<?xml version="1.0" encoding="utf-8"?>
<svg xmlns="http://www.w3.org/2000/svg" xmlns:xlink="http://www.w3.org/1999/xlink" width="600" height="400" viewBox="0 0 2400 1600">
<defs>
  <clipPath id="clip070">
    <rect x="0" y="0" width="2400" height="1600"/>
  </clipPath>
</defs>
<path clip-path="url(#clip070)" d="M0 1600 L2400 1600 L2400 0 L0 0  Z" fill="#ffffff" fill-rule="evenodd" fill-opacity="1"/>
<defs>
  <clipPath id="clip071">
    <rect x="480" y="0" width="1681" height="1600"/>
  </clipPath>
</defs>
<path clip-path="url(#clip070)" d="M251.842 1410.9 L2352.76 1410.9 L2352.76 166.672 L251.842 166.672  Z" fill="#eaeaea" fill-rule="evenodd" fill-opacity="1"/>
<defs>
  <clipPath id="clip072">
    <rect x="251" y="166" width="2102" height="1245"/>
  </clipPath>
</defs>
<polyline clip-path="url(#clip072)" style="stroke:#ffffff; stroke-linecap:round; stroke-linejoin:round; stroke-width:4; stroke-opacity:1; fill:none" points="1207.26,1410.9 1207.26,166.672 "/>
<polyline clip-path="url(#clip072)" style="stroke:#ffffff; stroke-linecap:round; stroke-linejoin:round; stroke-width:4; stroke-opacity:1; fill:none" points="2304.6,1410.9 2304.6,166.672 "/>
<polyline clip-path="url(#clip070)" style="stroke:#ffffff; stroke-linecap:round; stroke-linejoin:round; stroke-width:4; stroke-opacity:1; fill:none" points="251.842,1410.9 2352.76,1410.9 "/>
<polyline clip-path="url(#clip070)" style="stroke:#333333; stroke-linecap:round; stroke-linejoin:round; stroke-width:4; stroke-opacity:1; fill:none" points="1207.26,1410.9 1207.26,1429.79 "/>
<polyline clip-path="url(#clip070)" style="stroke:#333333; stroke-linecap:round; stroke-linejoin:round; stroke-width:4; stroke-opacity:1; fill:none" points="2304.6,1410.9 2304.6,1429.79 "/>
<path clip-path="url(#clip070)" d="M1138.5 1494.62 L1146.14 1494.62 L1146.14 1468.26 L1137.83 1469.92 L1137.83 1465.66 L1146.09 1464 L1150.77 1464 L1150.77 1494.62 L1158.41 1494.62 L1158.41 1498.56 L1138.5 1498.56 L1138.5 1494.62 Z" fill="#4c4c4c" fill-rule="nonzero" fill-opacity="1" /><path clip-path="url(#clip070)" d="M1177.85 1467.08 Q1174.24 1467.08 1172.41 1470.64 Q1170.61 1474.18 1170.61 1481.31 Q1170.61 1488.42 1172.41 1491.98 Q1174.24 1495.52 1177.85 1495.52 Q1181.49 1495.52 1183.29 1491.98 Q1185.12 1488.42 1185.12 1481.31 Q1185.12 1474.18 1183.29 1470.64 Q1181.49 1467.08 1177.85 1467.08 M1177.85 1463.37 Q1183.66 1463.37 1186.72 1467.98 Q1189.8 1472.56 1189.8 1481.31 Q1189.8 1490.04 1186.72 1494.64 Q1183.66 1499.23 1177.85 1499.23 Q1172.04 1499.23 1168.96 1494.64 Q1165.91 1490.04 1165.91 1481.31 Q1165.91 1472.56 1168.96 1467.98 Q1172.04 1463.37 1177.85 1463.37 Z" fill="#4c4c4c" fill-rule="nonzero" fill-opacity="1" /><path clip-path="url(#clip070)" d="M1189.8 1457.47 L1213.91 1457.47 L1213.91 1460.67 L1189.8 1460.67 L1189.8 1457.47 Z" fill="#4c4c4c" fill-rule="nonzero" fill-opacity="1" /><path clip-path="url(#clip070)" d="M1225.38 1467.95 L1238.64 1467.95 L1238.64 1471.15 L1220.81 1471.15 L1220.81 1467.95 Q1222.97 1465.71 1226.7 1461.95 Q1230.44 1458.17 1231.4 1457.08 Q1233.22 1455.03 1233.94 1453.62 Q1234.67 1452.19 1234.67 1450.82 Q1234.67 1448.58 1233.09 1447.17 Q1231.53 1445.76 1229.01 1445.76 Q1227.22 1445.76 1225.23 1446.38 Q1223.26 1447 1221 1448.26 L1221 1444.42 Q1223.29 1443.5 1225.29 1443.03 Q1227.28 1442.56 1228.94 1442.56 Q1233.3 1442.56 1235.89 1444.74 Q1238.49 1446.92 1238.49 1450.57 Q1238.49 1452.3 1237.83 1453.86 Q1237.19 1455.4 1235.48 1457.51 Q1235.01 1458.06 1232.49 1460.67 Q1229.97 1463.27 1225.38 1467.95 Z" fill="#4c4c4c" fill-rule="nonzero" fill-opacity="1" /><path clip-path="url(#clip070)" d="M1246.61 1466.37 L1250.58 1466.37 L1250.58 1471.15 L1246.61 1471.15 L1246.61 1466.37 Z" fill="#4c4c4c" fill-rule="nonzero" fill-opacity="1" /><path clip-path="url(#clip070)" d="M1266.98 1445.57 Q1264.05 1445.57 1262.56 1448.46 Q1261.1 1451.34 1261.1 1457.13 Q1261.1 1462.91 1262.56 1465.8 Q1264.05 1468.68 1266.98 1468.68 Q1269.94 1468.68 1271.4 1465.8 Q1272.89 1462.91 1272.89 1457.13 Q1272.89 1451.34 1271.4 1448.46 Q1269.94 1445.57 1266.98 1445.57 M1266.98 1442.56 Q1271.7 1442.56 1274.19 1446.3 Q1276.69 1450.03 1276.69 1457.13 Q1276.69 1464.22 1274.19 1467.97 Q1271.7 1471.69 1266.98 1471.69 Q1262.26 1471.69 1259.76 1467.97 Q1257.28 1464.22 1257.28 1457.13 Q1257.28 1450.03 1259.76 1446.3 Q1262.26 1442.56 1266.98 1442.56 Z" fill="#4c4c4c" fill-rule="nonzero" fill-opacity="1" /><path clip-path="url(#clip070)" d="M2236.24 1494.62 L2243.88 1494.62 L2243.88 1468.26 L2235.57 1469.92 L2235.57 1465.66 L2243.84 1464 L2248.51 1464 L2248.51 1494.62 L2256.15 1494.62 L2256.15 1498.56 L2236.24 1498.56 L2236.24 1494.62 Z" fill="#4c4c4c" fill-rule="nonzero" fill-opacity="1" /><path clip-path="url(#clip070)" d="M2275.6 1467.08 Q2271.99 1467.08 2270.16 1470.64 Q2268.35 1474.18 2268.35 1481.31 Q2268.35 1488.42 2270.16 1491.98 Q2271.99 1495.52 2275.6 1495.52 Q2279.23 1495.52 2281.04 1491.98 Q2282.86 1488.42 2282.86 1481.31 Q2282.86 1474.18 2281.04 1470.64 Q2279.23 1467.08 2275.6 1467.08 M2275.6 1463.37 Q2281.41 1463.37 2284.46 1467.98 Q2287.54 1472.56 2287.54 1481.31 Q2287.54 1490.04 2284.46 1494.64 Q2281.41 1499.23 2275.6 1499.23 Q2269.79 1499.23 2266.71 1494.64 Q2263.65 1490.04 2263.65 1481.31 Q2263.65 1472.56 2266.71 1467.98 Q2269.79 1463.37 2275.6 1463.37 Z" fill="#4c4c4c" fill-rule="nonzero" fill-opacity="1" /><path clip-path="url(#clip070)" d="M2287.54 1457.47 L2311.65 1457.47 L2311.65 1460.67 L2287.54 1460.67 L2287.54 1457.47 Z" fill="#4c4c4c" fill-rule="nonzero" fill-opacity="1" /><path clip-path="url(#clip070)" d="M2320.51 1467.95 L2326.72 1467.95 L2326.72 1446.53 L2319.97 1447.88 L2319.97 1444.42 L2326.68 1443.07 L2330.48 1443.07 L2330.48 1467.95 L2336.69 1467.95 L2336.69 1471.15 L2320.51 1471.15 L2320.51 1467.95 Z" fill="#4c4c4c" fill-rule="nonzero" fill-opacity="1" /><path clip-path="url(#clip070)" d="M2344.36 1466.37 L2348.33 1466.37 L2348.33 1471.15 L2344.36 1471.15 L2344.36 1466.37 Z" fill="#4c4c4c" fill-rule="nonzero" fill-opacity="1" /><path clip-path="url(#clip070)" d="M2356.64 1443.07 L2371.56 1443.07 L2371.56 1446.26 L2360.12 1446.26 L2360.12 1453.15 Q2360.95 1452.87 2361.77 1452.73 Q2362.6 1452.58 2363.43 1452.58 Q2368.13 1452.58 2370.88 1455.16 Q2373.62 1457.74 2373.62 1462.14 Q2373.62 1466.67 2370.8 1469.19 Q2367.98 1471.69 2362.85 1471.69 Q2361.08 1471.69 2359.24 1471.39 Q2357.41 1471.09 2355.46 1470.49 L2355.46 1466.67 Q2357.15 1467.59 2358.95 1468.04 Q2360.76 1468.49 2362.77 1468.49 Q2366.03 1468.49 2367.93 1466.78 Q2369.82 1465.07 2369.82 1462.14 Q2369.82 1459.2 2367.93 1457.49 Q2366.03 1455.78 2362.77 1455.78 Q2361.25 1455.78 2359.72 1456.12 Q2358.22 1456.46 2356.64 1457.17 L2356.64 1443.07 Z" fill="#4c4c4c" fill-rule="nonzero" fill-opacity="1" /><path clip-path="url(#clip070)" d="M1290.03 1533 L1276.98 1568.84 L1303.11 1568.84 L1290.03 1533 M1268.26 1574.19 L1286.4 1526.67 L1293.69 1526.67 L1311.8 1574.19 L1268.26 1574.19 Z" fill="#000000" fill-rule="nonzero" fill-opacity="1" /><path clip-path="url(#clip070)" d="M1324.28 1528.42 L1324.28 1538.54 L1336.34 1538.54 L1336.34 1543.09 L1324.28 1543.09 L1324.28 1562.44 Q1324.28 1566.8 1325.45 1568.04 Q1326.66 1569.28 1330.32 1569.28 L1336.34 1569.28 L1336.34 1574.19 L1330.32 1574.19 Q1323.54 1574.19 1320.97 1571.67 Q1318.39 1569.12 1318.39 1562.44 L1318.39 1543.09 L1314.09 1543.09 L1314.09 1538.54 L1318.39 1538.54 L1318.39 1528.42 L1324.28 1528.42 Z" fill="#000000" fill-rule="nonzero" fill-opacity="1" /><polyline clip-path="url(#clip072)" style="stroke:#ffffff; stroke-linecap:round; stroke-linejoin:round; stroke-width:4; stroke-opacity:1; fill:none" points="251.842,1088.13 2352.76,1088.13 "/>
<polyline clip-path="url(#clip072)" style="stroke:#ffffff; stroke-linecap:round; stroke-linejoin:round; stroke-width:4; stroke-opacity:1; fill:none" points="251.842,689.908 2352.76,689.908 "/>
<polyline clip-path="url(#clip072)" style="stroke:#ffffff; stroke-linecap:round; stroke-linejoin:round; stroke-width:4; stroke-opacity:1; fill:none" points="251.842,291.685 2352.76,291.685 "/>
<polyline clip-path="url(#clip072)" style="stroke:#ffffff; stroke-linecap:round; stroke-linejoin:round; stroke-width:2; stroke-opacity:1; fill:none" points="251.842,1191.52 2352.76,1191.52 "/>
<polyline clip-path="url(#clip072)" style="stroke:#ffffff; stroke-linecap:round; stroke-linejoin:round; stroke-width:2; stroke-opacity:1; fill:none" points="251.842,793.301 2352.76,793.301 "/>
<polyline clip-path="url(#clip072)" style="stroke:#ffffff; stroke-linecap:round; stroke-linejoin:round; stroke-width:2; stroke-opacity:1; fill:none" points="251.842,395.078 2352.76,395.078 "/>
<polyline clip-path="url(#clip070)" style="stroke:#ffffff; stroke-linecap:round; stroke-linejoin:round; stroke-width:4; stroke-opacity:1; fill:none" points="251.842,1410.9 251.842,166.672 "/>
<polyline clip-path="url(#clip070)" style="stroke:#333333; stroke-linecap:round; stroke-linejoin:round; stroke-width:4; stroke-opacity:1; fill:none" points="251.842,1088.13 232.945,1088.13 "/>
<polyline clip-path="url(#clip070)" style="stroke:#333333; stroke-linecap:round; stroke-linejoin:round; stroke-width:4; stroke-opacity:1; fill:none" points="251.842,689.908 232.945,689.908 "/>
<polyline clip-path="url(#clip070)" style="stroke:#333333; stroke-linecap:round; stroke-linejoin:round; stroke-width:4; stroke-opacity:1; fill:none" points="251.842,291.685 232.945,291.685 "/>
<polyline clip-path="url(#clip070)" style="stroke:#333333; stroke-linecap:round; stroke-linejoin:round; stroke-width:4; stroke-opacity:1; fill:none" points="251.842,1191.52 242.394,1191.52 "/>
<polyline clip-path="url(#clip070)" style="stroke:#333333; stroke-linecap:round; stroke-linejoin:round; stroke-width:4; stroke-opacity:1; fill:none" points="251.842,793.301 242.394,793.301 "/>
<polyline clip-path="url(#clip070)" style="stroke:#333333; stroke-linecap:round; stroke-linejoin:round; stroke-width:4; stroke-opacity:1; fill:none" points="251.842,395.078 242.394,395.078 "/>
<path clip-path="url(#clip070)" d="M96.9315 1107.92 L104.57 1107.92 L104.57 1081.56 L96.2602 1083.22 L96.2602 1078.97 L104.524 1077.3 L109.2 1077.3 L109.2 1107.92 L116.839 1107.92 L116.839 1111.86 L96.9315 1111.86 L96.9315 1107.92 Z" fill="#4c4c4c" fill-rule="nonzero" fill-opacity="1" /><path clip-path="url(#clip070)" d="M136.283 1080.38 Q132.672 1080.38 130.843 1083.94 Q129.038 1087.48 129.038 1094.61 Q129.038 1101.72 130.843 1105.28 Q132.672 1108.83 136.283 1108.83 Q139.917 1108.83 141.723 1105.28 Q143.552 1101.72 143.552 1094.61 Q143.552 1087.48 141.723 1083.94 Q139.917 1080.38 136.283 1080.38 M136.283 1076.67 Q142.093 1076.67 145.149 1081.28 Q148.227 1085.86 148.227 1094.61 Q148.227 1103.34 145.149 1107.95 Q142.093 1112.53 136.283 1112.53 Q130.473 1112.53 127.394 1107.95 Q124.339 1103.34 124.339 1094.61 Q124.339 1085.86 127.394 1081.28 Q130.473 1076.67 136.283 1076.67 Z" fill="#4c4c4c" fill-rule="nonzero" fill-opacity="1" /><path clip-path="url(#clip070)" d="M148.227 1070.77 L172.339 1070.77 L172.339 1073.97 L148.227 1073.97 L148.227 1070.77 Z" fill="#4c4c4c" fill-rule="nonzero" fill-opacity="1" /><path clip-path="url(#clip070)" d="M192.05 1069.31 Q194.777 1069.89 196.3 1071.73 Q197.842 1073.58 197.842 1076.29 Q197.842 1080.44 194.984 1082.72 Q192.125 1084.99 186.859 1084.99 Q185.091 1084.99 183.21 1084.64 Q181.348 1084.3 179.354 1083.6 L179.354 1079.93 Q180.934 1080.86 182.815 1081.33 Q184.696 1081.8 186.746 1081.8 Q190.319 1081.8 192.181 1080.39 Q194.062 1078.97 194.062 1076.29 Q194.062 1073.8 192.313 1072.41 Q190.583 1071 187.479 1071 L184.207 1071 L184.207 1067.88 L187.63 1067.88 Q190.432 1067.88 191.918 1066.77 Q193.404 1065.64 193.404 1063.53 Q193.404 1061.37 191.861 1060.22 Q190.338 1059.06 187.479 1059.06 Q185.918 1059.06 184.132 1059.4 Q182.345 1059.73 180.201 1060.45 L180.201 1057.06 Q182.364 1056.46 184.244 1056.16 Q186.144 1055.86 187.818 1055.86 Q192.144 1055.86 194.664 1057.84 Q197.184 1059.79 197.184 1063.14 Q197.184 1065.47 195.849 1067.09 Q194.513 1068.69 192.05 1069.31 Z" fill="#4c4c4c" fill-rule="nonzero" fill-opacity="1" /><path clip-path="url(#clip070)" d="M97.7026 709.7 L105.341 709.7 L105.341 683.335 L97.0313 685.001 L97.0313 680.742 L105.295 679.075 L109.971 679.075 L109.971 709.7 L117.61 709.7 L117.61 713.635 L97.7026 713.635 L97.7026 709.7 Z" fill="#4c4c4c" fill-rule="nonzero" fill-opacity="1" /><path clip-path="url(#clip070)" d="M137.054 682.154 Q133.443 682.154 131.614 685.719 Q129.809 689.261 129.809 696.39 Q129.809 703.497 131.614 707.061 Q133.443 710.603 137.054 710.603 Q140.688 710.603 142.494 707.061 Q144.323 703.497 144.323 696.39 Q144.323 689.261 142.494 685.719 Q140.688 682.154 137.054 682.154 M137.054 678.45 Q142.864 678.45 145.92 683.057 Q148.999 687.64 148.999 696.39 Q148.999 705.117 145.92 709.723 Q142.864 714.307 137.054 714.307 Q131.244 714.307 128.165 709.723 Q125.11 705.117 125.11 696.39 Q125.11 687.64 128.165 683.057 Q131.244 678.45 137.054 678.45 Z" fill="#4c4c4c" fill-rule="nonzero" fill-opacity="1" /><path clip-path="url(#clip070)" d="M148.999 672.552 L173.11 672.552 L173.11 675.749 L148.999 675.749 L148.999 672.552 Z" fill="#4c4c4c" fill-rule="nonzero" fill-opacity="1" /><path clip-path="url(#clip070)" d="M184.583 683.028 L197.842 683.028 L197.842 686.225 L180.013 686.225 L180.013 683.028 Q182.175 680.79 185.899 677.028 Q189.642 673.248 190.601 672.157 Q192.426 670.107 193.14 668.696 Q193.874 667.267 193.874 665.894 Q193.874 663.656 192.294 662.245 Q190.733 660.835 188.213 660.835 Q186.426 660.835 184.432 661.455 Q182.458 662.076 180.201 663.336 L180.201 659.499 Q182.495 658.578 184.489 658.107 Q186.482 657.637 188.138 657.637 Q192.501 657.637 195.096 659.819 Q197.692 662.001 197.692 665.649 Q197.692 667.38 197.034 668.941 Q196.394 670.483 194.683 672.589 Q194.212 673.135 191.692 675.749 Q189.172 678.345 184.583 683.028 Z" fill="#4c4c4c" fill-rule="nonzero" fill-opacity="1" /><path clip-path="url(#clip070)" d="M97.4016 311.477 L105.04 311.477 L105.04 285.112 L96.7304 286.778 L96.7304 282.519 L104.994 280.852 L109.67 280.852 L109.67 311.477 L117.309 311.477 L117.309 315.412 L97.4016 315.412 L97.4016 311.477 Z" fill="#4c4c4c" fill-rule="nonzero" fill-opacity="1" /><path clip-path="url(#clip070)" d="M136.753 283.931 Q133.142 283.931 131.313 287.496 Q129.508 291.038 129.508 298.167 Q129.508 305.274 131.313 308.838 Q133.142 312.38 136.753 312.38 Q140.388 312.38 142.193 308.838 Q144.022 305.274 144.022 298.167 Q144.022 291.038 142.193 287.496 Q140.388 283.931 136.753 283.931 M136.753 280.227 Q142.563 280.227 145.619 284.834 Q148.698 289.417 148.698 298.167 Q148.698 306.894 145.619 311.5 Q142.563 316.084 136.753 316.084 Q130.943 316.084 127.864 311.5 Q124.809 306.894 124.809 298.167 Q124.809 289.417 127.864 284.834 Q130.943 280.227 136.753 280.227 Z" fill="#4c4c4c" fill-rule="nonzero" fill-opacity="1" /><path clip-path="url(#clip070)" d="M148.698 274.329 L172.809 274.329 L172.809 277.526 L148.698 277.526 L148.698 274.329 Z" fill="#4c4c4c" fill-rule="nonzero" fill-opacity="1" /><path clip-path="url(#clip070)" d="M181.668 284.805 L187.874 284.805 L187.874 263.383 L181.122 264.737 L181.122 261.276 L187.837 259.922 L191.636 259.922 L191.636 284.805 L197.842 284.805 L197.842 288.002 L181.668 288.002 L181.668 284.805 Z" fill="#4c4c4c" fill-rule="nonzero" fill-opacity="1" /><path clip-path="url(#clip070)" d="M44.7161 817.669 L47.5806 817.669 L47.5806 844.596 Q53.6281 844.214 56.8109 840.967 Q59.9619 837.689 59.9619 831.864 Q59.9619 828.49 59.1344 825.339 Q58.3069 822.157 56.6518 819.037 L62.1899 819.037 Q63.5267 822.188 64.227 825.499 Q64.9272 828.809 64.9272 832.214 Q64.9272 840.744 59.9619 845.742 Q54.9967 850.707 46.5303 850.707 Q37.7774 850.707 32.6531 845.996 Q27.4968 841.254 27.4968 833.233 Q27.4968 826.04 32.1438 821.87 Q36.7589 817.669 44.7161 817.669 M42.9973 823.525 Q38.1912 823.589 35.3266 826.231 Q32.4621 828.841 32.4621 833.169 Q32.4621 838.071 35.2312 841.031 Q38.0002 843.959 43.0292 844.405 L42.9973 823.525 Z" fill="#000000" fill-rule="nonzero" fill-opacity="1" /><path clip-path="url(#clip070)" d="M33.8307 787.4 Q33.2578 788.387 33.0032 789.564 Q32.7167 790.71 32.7167 792.11 Q32.7167 797.076 35.9632 799.749 Q39.1779 802.391 45.2253 802.391 L64.0042 802.391 L64.0042 808.279 L28.3562 808.279 L28.3562 802.391 L33.8944 802.391 Q30.6479 800.545 29.0883 797.585 Q27.4968 794.625 27.4968 790.392 Q27.4968 789.787 27.5923 789.055 Q27.656 788.323 27.8151 787.432 L33.8307 787.4 Z" fill="#000000" fill-rule="nonzero" fill-opacity="1" /><path clip-path="url(#clip070)" d="M33.8307 761.746 Q33.2578 762.733 33.0032 763.91 Q32.7167 765.056 32.7167 766.457 Q32.7167 771.422 35.9632 774.096 Q39.1779 776.737 45.2253 776.737 L64.0042 776.737 L64.0042 782.626 L28.3562 782.626 L28.3562 776.737 L33.8944 776.737 Q30.6479 774.891 29.0883 771.931 Q27.4968 768.971 27.4968 764.738 Q27.4968 764.133 27.5923 763.401 Q27.656 762.669 27.8151 761.778 L33.8307 761.746 Z" fill="#000000" fill-rule="nonzero" fill-opacity="1" /><path clip-path="url(#clip070)" d="M32.4621 743.222 Q32.4621 747.932 36.1542 750.67 Q39.8145 753.407 46.212 753.407 Q52.6095 753.407 56.3017 750.702 Q59.9619 747.964 59.9619 743.222 Q59.9619 738.543 56.2698 735.806 Q52.5777 733.069 46.212 733.069 Q39.8781 733.069 36.186 735.806 Q32.4621 738.543 32.4621 743.222 M27.4968 743.222 Q27.4968 735.583 32.4621 731.222 Q37.4273 726.862 46.212 726.862 Q54.9649 726.862 59.9619 731.222 Q64.9272 735.583 64.9272 743.222 Q64.9272 750.893 59.9619 755.253 Q54.9649 759.582 46.212 759.582 Q37.4273 759.582 32.4621 755.253 Q27.4968 750.893 27.4968 743.222 Z" fill="#000000" fill-rule="nonzero" fill-opacity="1" /><path clip-path="url(#clip070)" d="M909.853 28.512 L942.631 28.512 L942.631 34.4147 L916.867 34.4147 L916.867 49.7619 L941.555 49.7619 L941.555 55.6646 L916.867 55.6646 L916.867 74.4493 L943.256 74.4493 L943.256 80.352 L909.853 80.352 L909.853 28.512 Z" fill="#000000" fill-rule="nonzero" fill-opacity="1" /><path clip-path="url(#clip070)" d="M977.04 47.4355 Q975.964 46.8105 974.679 46.5327 Q973.429 46.2202 971.902 46.2202 Q966.485 46.2202 963.568 49.7619 Q960.686 53.2688 960.686 59.866 L960.686 80.352 L954.263 80.352 L954.263 41.4633 L960.686 41.4633 L960.686 47.505 Q962.7 43.9633 965.929 42.2619 Q969.159 40.5258 973.777 40.5258 Q974.436 40.5258 975.235 40.63 Q976.034 40.6994 977.006 40.873 L977.04 47.4355 Z" fill="#000000" fill-rule="nonzero" fill-opacity="1" /><path clip-path="url(#clip070)" d="M1005.03 47.4355 Q1003.95 46.8105 1002.67 46.5327 Q1001.42 46.2202 999.888 46.2202 Q994.471 46.2202 991.554 49.7619 Q988.672 53.2688 988.672 59.866 L988.672 80.352 L982.249 80.352 L982.249 41.4633 L988.672 41.4633 L988.672 47.505 Q990.686 43.9633 993.915 42.2619 Q997.145 40.5258 1001.76 40.5258 Q1002.42 40.5258 1003.22 40.63 Q1004.02 40.6994 1004.99 40.873 L1005.03 47.4355 Z" fill="#000000" fill-rule="nonzero" fill-opacity="1" /><path clip-path="url(#clip070)" d="M1025.23 45.9425 Q1020.1 45.9425 1017.11 49.9702 Q1014.12 53.9633 1014.12 60.9424 Q1014.12 67.9215 1017.07 71.9493 Q1020.06 75.9423 1025.23 75.9423 Q1030.34 75.9423 1033.32 71.9145 Q1036.31 67.8868 1036.31 60.9424 Q1036.31 54.0327 1033.32 50.0049 Q1030.34 45.9425 1025.23 45.9425 M1025.23 40.5258 Q1033.57 40.5258 1038.32 45.9425 Q1043.08 51.3591 1043.08 60.9424 Q1043.08 70.4909 1038.32 75.9423 Q1033.57 81.3589 1025.23 81.3589 Q1016.87 81.3589 1012.11 75.9423 Q1007.39 70.4909 1007.39 60.9424 Q1007.39 51.3591 1012.11 45.9425 Q1016.87 40.5258 1025.23 40.5258 Z" fill="#000000" fill-rule="nonzero" fill-opacity="1" /><path clip-path="url(#clip070)" d="M1095.96 26.3245 L1095.96 31.637 L1089.85 31.637 Q1086.41 31.637 1085.06 33.0259 Q1083.74 34.4147 1083.74 38.0258 L1083.74 41.4633 L1094.26 41.4633 L1094.26 46.4286 L1083.74 46.4286 L1083.74 80.352 L1077.32 80.352 L1077.32 46.4286 L1071.21 46.4286 L1071.21 41.4633 L1077.32 41.4633 L1077.32 38.755 Q1077.32 32.262 1080.34 29.3106 Q1083.36 26.3245 1089.92 26.3245 L1095.96 26.3245 Z" fill="#000000" fill-rule="nonzero" fill-opacity="1" /><path clip-path="url(#clip070)" d="M1116.38 45.9425 Q1111.24 45.9425 1108.26 49.9702 Q1105.27 53.9633 1105.27 60.9424 Q1105.27 67.9215 1108.22 71.9493 Q1111.21 75.9423 1116.38 75.9423 Q1121.48 75.9423 1124.47 71.9145 Q1127.46 67.8868 1127.46 60.9424 Q1127.46 54.0327 1124.47 50.0049 Q1121.48 45.9425 1116.38 45.9425 M1116.38 40.5258 Q1124.71 40.5258 1129.47 45.9425 Q1134.23 51.3591 1134.23 60.9424 Q1134.23 70.4909 1129.47 75.9423 Q1124.71 81.3589 1116.38 81.3589 Q1108.01 81.3589 1103.26 75.9423 Q1098.53 70.4909 1098.53 60.9424 Q1098.53 51.3591 1103.26 45.9425 Q1108.01 40.5258 1116.38 40.5258 Z" fill="#000000" fill-rule="nonzero" fill-opacity="1" /><path clip-path="url(#clip070)" d="M1167.35 47.4355 Q1166.28 46.8105 1164.99 46.5327 Q1163.74 46.2202 1162.21 46.2202 Q1156.8 46.2202 1153.88 49.7619 Q1151 53.2688 1151 59.866 L1151 80.352 L1144.57 80.352 L1144.57 41.4633 L1151 41.4633 L1151 47.505 Q1153.01 43.9633 1156.24 42.2619 Q1159.47 40.5258 1164.09 40.5258 Q1164.75 40.5258 1165.55 40.63 Q1166.35 40.6994 1167.32 40.873 L1167.35 47.4355 Z" fill="#000000" fill-rule="nonzero" fill-opacity="1" /><path clip-path="url(#clip070)" d="M1180.37 30.4217 L1180.37 41.4633 L1193.53 41.4633 L1193.53 46.4286 L1180.37 46.4286 L1180.37 67.5396 Q1180.37 72.2965 1181.66 73.6506 Q1182.98 75.0048 1186.97 75.0048 L1193.53 75.0048 L1193.53 80.352 L1186.97 80.352 Q1179.57 80.352 1176.76 77.609 Q1173.95 74.8312 1173.95 67.5396 L1173.95 46.4286 L1169.26 46.4286 L1169.26 41.4633 L1173.95 41.4633 L1173.95 30.4217 L1180.37 30.4217 Z" fill="#000000" fill-rule="nonzero" fill-opacity="1" /><path clip-path="url(#clip070)" d="M1235.2 59.3104 L1235.2 62.4354 L1205.82 62.4354 Q1206.24 69.0326 1209.78 72.5048 Q1213.36 75.9423 1219.71 75.9423 Q1223.39 75.9423 1226.83 75.0395 Q1230.3 74.1368 1233.71 72.3312 L1233.71 78.3728 Q1230.27 79.8312 1226.66 80.5951 Q1223.05 81.3589 1219.33 81.3589 Q1210.03 81.3589 1204.57 75.9423 Q1199.16 70.5257 1199.16 61.2896 Q1199.16 51.741 1204.3 46.1508 Q1209.47 40.5258 1218.22 40.5258 Q1226.07 40.5258 1230.62 45.5952 Q1235.2 50.6299 1235.2 59.3104 M1228.81 57.4355 Q1228.74 52.1924 1225.86 49.0674 Q1223.01 45.9425 1218.29 45.9425 Q1212.94 45.9425 1209.71 48.9633 Q1206.52 51.9841 1206.03 57.4702 L1228.81 57.4355 Z" fill="#000000" fill-rule="nonzero" fill-opacity="1" /><path clip-path="url(#clip070)" d="M1268.57 28.512 L1301.34 28.512 L1301.34 34.4147 L1275.58 34.4147 L1275.58 49.7619 L1300.27 49.7619 L1300.27 55.6646 L1275.58 55.6646 L1275.58 74.4493 L1301.97 74.4493 L1301.97 80.352 L1268.57 80.352 L1268.57 28.512 Z" fill="#000000" fill-rule="nonzero" fill-opacity="1" /><path clip-path="url(#clip070)" d="M1313.5 28.512 L1323.95 28.512 L1337.18 63.7896 L1350.48 28.512 L1360.93 28.512 L1360.93 80.352 L1354.09 80.352 L1354.09 34.8314 L1340.72 70.3868 L1333.67 70.3868 L1320.3 34.8314 L1320.3 80.352 L1313.5 80.352 L1313.5 28.512 Z" fill="#000000" fill-rule="nonzero" fill-opacity="1" /><path clip-path="url(#clip070)" d="M1403.36 74.5187 L1403.36 95.1436 L1396.93 95.1436 L1396.93 41.4633 L1403.36 41.4633 L1403.36 47.3661 Q1405.37 43.8939 1408.43 42.2272 Q1411.52 40.5258 1415.79 40.5258 Q1422.87 40.5258 1427.28 46.1508 Q1431.73 51.7758 1431.73 60.9424 Q1431.73 70.109 1427.28 75.734 Q1422.87 81.3589 1415.79 81.3589 Q1411.52 81.3589 1408.43 79.6923 Q1405.37 77.9909 1403.36 74.5187 M1425.09 60.9424 Q1425.09 53.8938 1422.18 49.9008 Q1419.3 45.873 1414.23 45.873 Q1409.16 45.873 1406.24 49.9008 Q1403.36 53.8938 1403.36 60.9424 Q1403.36 67.991 1406.24 72.0187 Q1409.16 76.0117 1414.23 76.0117 Q1419.3 76.0117 1422.18 72.0187 Q1425.09 67.991 1425.09 60.9424 Z" fill="#000000" fill-rule="nonzero" fill-opacity="1" /><path clip-path="url(#clip070)" d="M1465.75 48.0605 L1510.27 48.0605 L1510.27 53.8938 L1465.75 53.8938 L1465.75 48.0605 M1465.75 62.2271 L1510.27 62.2271 L1510.27 68.1298 L1465.75 68.1298 L1465.75 62.2271 Z" fill="#000000" fill-rule="nonzero" fill-opacity="1" /><path clip-path="url(#clip070)" d="M1549.22 74.4493 L1560.68 74.4493 L1560.68 34.9009 L1548.22 37.4008 L1548.22 31.012 L1560.61 28.512 L1567.63 28.512 L1567.63 74.4493 L1579.09 74.4493 L1579.09 80.352 L1549.22 80.352 L1549.22 74.4493 Z" fill="#000000" fill-rule="nonzero" fill-opacity="1" /><path clip-path="url(#clip070)" d="M1593.25 71.5326 L1600.58 71.5326 L1600.58 80.352 L1593.25 80.352 L1593.25 71.5326 Z" fill="#000000" fill-rule="nonzero" fill-opacity="1" /><path clip-path="url(#clip070)" d="M1630.86 33.13 Q1625.44 33.13 1622.7 38.4772 Q1619.99 43.7897 1619.99 54.4841 Q1619.99 65.1437 1622.7 70.4909 Q1625.44 75.8034 1630.86 75.8034 Q1636.31 75.8034 1639.02 70.4909 Q1641.76 65.1437 1641.76 54.4841 Q1641.76 43.7897 1639.02 38.4772 Q1636.31 33.13 1630.86 33.13 M1630.86 27.5745 Q1639.57 27.5745 1644.15 34.4842 Q1648.77 41.3592 1648.77 54.4841 Q1648.77 67.5743 1644.15 74.484 Q1639.57 81.3589 1630.86 81.3589 Q1622.14 81.3589 1617.52 74.484 Q1612.94 67.5743 1612.94 54.4841 Q1612.94 41.3592 1617.52 34.4842 Q1622.14 27.5745 1630.86 27.5745 Z" fill="#000000" fill-rule="nonzero" fill-opacity="1" /><path clip-path="url(#clip070)" d="M1680.37 34.6231 L1662.66 62.2965 L1680.37 62.2965 L1680.37 34.6231 M1678.53 28.512 L1687.35 28.512 L1687.35 62.2965 L1694.74 62.2965 L1694.74 68.1298 L1687.35 68.1298 L1687.35 80.352 L1680.37 80.352 L1680.37 68.1298 L1656.97 68.1298 L1656.97 61.359 L1678.53 28.512 Z" fill="#000000" fill-rule="nonzero" fill-opacity="1" /><path clip-path="url(#clip070)" d="M548.206 106.272 L555.741 106.272 L568.623 125.543 L581.574 106.272 L589.109 106.272 L572.442 131.168 L590.22 158.112 L582.685 158.112 L568.102 136.064 L553.414 158.112 L545.845 158.112 L564.352 130.439 L548.206 106.272 Z" fill="#000000" fill-rule="nonzero" fill-opacity="1" /><path clip-path="url(#clip070)" d="M612.233 134.605 Q610.497 131.619 606.99 131.619 Q603.483 131.619 601.747 134.605 Q599.977 137.591 599.977 143.563 Q599.977 149.57 601.747 152.556 Q603.483 155.543 606.99 155.543 Q610.497 155.543 612.233 152.556 Q614.004 149.57 614.004 143.563 Q614.004 137.591 612.233 134.605 M606.99 128.529 Q612.581 128.529 615.532 132.383 Q618.483 136.237 618.483 143.563 Q618.483 150.925 615.532 154.779 Q612.581 158.633 606.99 158.633 Q601.365 158.633 598.414 154.779 Q595.463 150.925 595.463 143.563 Q595.463 136.237 598.414 132.383 Q601.365 128.529 606.99 128.529 Z" fill="#000000" fill-rule="nonzero" fill-opacity="1" /><path clip-path="url(#clip070)" d="M651.087 125.821 L695.601 125.821 L695.601 131.654 L651.087 131.654 L651.087 125.821 M651.087 139.987 L695.601 139.987 L695.601 145.89 L651.087 145.89 L651.087 139.987 Z" fill="#000000" fill-rule="nonzero" fill-opacity="1" /><path clip-path="url(#clip070)" d="M734.559 152.209 L746.017 152.209 L746.017 112.661 L733.552 115.161 L733.552 108.772 L745.948 106.272 L752.962 106.272 L752.962 152.209 L764.42 152.209 L764.42 158.112 L734.559 158.112 L734.559 152.209 Z" fill="#000000" fill-rule="nonzero" fill-opacity="1" /><path clip-path="url(#clip070)" d="M778.587 149.293 L785.913 149.293 L785.913 158.112 L778.587 158.112 L778.587 149.293 Z" fill="#000000" fill-rule="nonzero" fill-opacity="1" /><path clip-path="url(#clip070)" d="M816.191 110.89 Q810.774 110.89 808.031 116.237 Q805.323 121.55 805.323 132.244 Q805.323 142.904 808.031 148.251 Q810.774 153.563 816.191 153.563 Q821.642 153.563 824.35 148.251 Q827.093 142.904 827.093 132.244 Q827.093 121.55 824.35 116.237 Q821.642 110.89 816.191 110.89 M816.191 105.335 Q824.906 105.335 829.489 112.244 Q834.107 119.119 834.107 132.244 Q834.107 145.334 829.489 152.244 Q824.906 159.119 816.191 159.119 Q807.475 159.119 802.857 152.244 Q798.274 145.334 798.274 132.244 Q798.274 119.119 802.857 112.244 Q807.475 105.335 816.191 105.335 Z" fill="#000000" fill-rule="nonzero" fill-opacity="1" /><path clip-path="url(#clip070)" d="M847.163 149.293 L854.489 149.293 L854.489 155.265 L848.795 166.376 L844.315 166.376 L847.163 155.265 L847.163 149.293 Z" fill="#000000" fill-rule="nonzero" fill-opacity="1" /><path clip-path="url(#clip070)" d="M890.079 172.904 L890.079 119.223 L896.468 119.223 L896.468 143.39 Q896.468 148.425 898.864 150.994 Q901.26 153.563 905.947 153.563 Q911.086 153.563 913.655 150.647 Q916.26 147.73 916.26 141.897 L916.26 119.223 L922.648 119.223 L922.648 149.154 Q922.648 151.237 923.239 152.244 Q923.864 153.216 925.148 153.216 Q925.461 153.216 926.016 153.043 Q926.572 152.834 927.544 152.418 L927.544 157.556 Q926.121 158.355 924.836 158.737 Q923.586 159.119 922.371 159.119 Q919.975 159.119 918.551 157.765 Q917.128 156.411 916.607 153.633 Q914.871 156.376 912.336 157.765 Q909.836 159.119 906.433 159.119 Q902.892 159.119 900.392 157.765 Q897.926 156.411 896.468 153.702 L896.468 172.904 L890.079 172.904 Z" fill="#000000" fill-rule="nonzero" fill-opacity="1" /><path clip-path="url(#clip070)" d="M959.419 125.821 L1003.93 125.821 L1003.93 131.654 L959.419 131.654 L959.419 125.821 M959.419 139.987 L1003.93 139.987 L1003.93 145.89 L959.419 145.89 L959.419 139.987 Z" fill="#000000" fill-rule="nonzero" fill-opacity="1" /><path clip-path="url(#clip070)" d="M1047.72 152.209 L1072.2 152.209 L1072.2 158.112 L1039.28 158.112 L1039.28 152.209 Q1043.27 148.077 1050.15 141.133 Q1057.06 134.154 1058.83 132.14 Q1062.2 128.355 1063.52 125.751 Q1064.87 123.112 1064.87 120.577 Q1064.87 116.446 1061.95 113.841 Q1059.07 111.237 1054.42 111.237 Q1051.12 111.237 1047.44 112.383 Q1043.79 113.529 1039.63 115.855 L1039.63 108.772 Q1043.86 107.071 1047.54 106.203 Q1051.22 105.335 1054.28 105.335 Q1062.34 105.335 1067.13 109.362 Q1071.92 113.39 1071.92 120.126 Q1071.92 123.321 1070.7 126.202 Q1069.52 129.05 1066.36 132.939 Q1065.49 133.945 1060.84 138.772 Q1056.19 143.563 1047.72 152.209 Z" fill="#000000" fill-rule="nonzero" fill-opacity="1" /><path clip-path="url(#clip070)" d="M1086.92 149.293 L1094.24 149.293 L1094.24 158.112 L1086.92 158.112 L1086.92 149.293 Z" fill="#000000" fill-rule="nonzero" fill-opacity="1" /><path clip-path="url(#clip070)" d="M1124.52 110.89 Q1119.11 110.89 1116.36 116.237 Q1113.65 121.55 1113.65 132.244 Q1113.65 142.904 1116.36 148.251 Q1119.11 153.563 1124.52 153.563 Q1129.97 153.563 1132.68 148.251 Q1135.43 142.904 1135.43 132.244 Q1135.43 121.55 1132.68 116.237 Q1129.97 110.89 1124.52 110.89 M1124.52 105.335 Q1133.24 105.335 1137.82 112.244 Q1142.44 119.119 1142.44 132.244 Q1142.44 145.334 1137.82 152.244 Q1133.24 159.119 1124.52 159.119 Q1115.81 159.119 1111.19 152.244 Q1106.61 145.334 1106.61 132.244 Q1106.61 119.119 1111.19 112.244 Q1115.81 105.335 1124.52 105.335 Z" fill="#000000" fill-rule="nonzero" fill-opacity="1" /><path clip-path="url(#clip070)" d="M1155.49 149.293 L1162.82 149.293 L1162.82 155.265 L1157.13 166.376 L1152.65 166.376 L1155.49 155.265 L1155.49 149.293 Z" fill="#000000" fill-rule="nonzero" fill-opacity="1" /><path clip-path="url(#clip070)" d="M1225.18 133.459 L1203.06 133.459 Q1203.58 143.841 1205.98 148.251 Q1208.97 153.668 1214.14 153.668 Q1219.35 153.668 1222.23 148.216 Q1224.76 143.425 1225.18 133.459 M1225.08 127.557 Q1224.11 117.696 1222.23 114.223 Q1219.24 108.737 1214.14 108.737 Q1208.83 108.737 1206.01 114.154 Q1203.79 118.529 1203.13 127.557 L1225.08 127.557 M1214.14 103.529 Q1222.47 103.529 1227.23 110.89 Q1231.99 118.216 1231.99 131.202 Q1231.99 144.154 1227.23 151.515 Q1222.47 158.911 1214.14 158.911 Q1205.77 158.911 1201.05 151.515 Q1196.29 144.154 1196.29 131.202 Q1196.29 118.216 1201.05 110.89 Q1205.77 103.529 1214.14 103.529 Z" fill="#000000" fill-rule="nonzero" fill-opacity="1" /><path clip-path="url(#clip070)" d="M1266.01 125.821 L1310.53 125.821 L1310.53 131.654 L1266.01 131.654 L1266.01 125.821 M1266.01 139.987 L1310.53 139.987 L1310.53 145.89 L1266.01 145.89 L1266.01 139.987 Z" fill="#000000" fill-rule="nonzero" fill-opacity="1" /><path clip-path="url(#clip070)" d="M1349.49 152.209 L1360.94 152.209 L1360.94 112.661 L1348.48 115.161 L1348.48 108.772 L1360.88 106.272 L1367.89 106.272 L1367.89 152.209 L1379.35 152.209 L1379.35 158.112 L1349.49 158.112 L1349.49 152.209 Z" fill="#000000" fill-rule="nonzero" fill-opacity="1" /><path clip-path="url(#clip070)" d="M1403.97 106.272 L1409.87 106.272 L1391.81 164.709 L1385.91 164.709 L1403.97 106.272 Z" fill="#000000" fill-rule="nonzero" fill-opacity="1" /><path clip-path="url(#clip070)" d="M1438.72 130.161 Q1443.76 131.237 1446.57 134.64 Q1449.42 138.043 1449.42 143.043 Q1449.42 150.716 1444.14 154.918 Q1438.86 159.119 1429.14 159.119 Q1425.87 159.119 1422.4 158.459 Q1418.97 157.834 1415.28 156.55 L1415.28 149.779 Q1418.2 151.48 1421.67 152.348 Q1425.15 153.216 1428.93 153.216 Q1435.53 153.216 1438.97 150.612 Q1442.44 148.008 1442.44 143.043 Q1442.44 138.459 1439.21 135.89 Q1436.01 133.286 1430.28 133.286 L1424.24 133.286 L1424.24 127.522 L1430.56 127.522 Q1435.74 127.522 1438.48 125.473 Q1441.22 123.39 1441.22 119.501 Q1441.22 115.508 1438.37 113.39 Q1435.56 111.237 1430.28 111.237 Q1427.4 111.237 1424.1 111.862 Q1420.81 112.487 1416.85 113.807 L1416.85 107.557 Q1420.84 106.446 1424.31 105.89 Q1427.82 105.335 1430.91 105.335 Q1438.9 105.335 1443.55 108.98 Q1448.2 112.591 1448.2 118.772 Q1448.2 123.077 1445.74 126.064 Q1443.27 129.015 1438.72 130.161 Z" fill="#000000" fill-rule="nonzero" fill-opacity="1" /><path clip-path="url(#clip070)" d="M1463.44 149.293 L1470.77 149.293 L1470.77 155.265 L1465.08 166.376 L1460.6 166.376 L1463.44 155.265 L1463.44 149.293 Z" fill="#000000" fill-rule="nonzero" fill-opacity="1" /><path clip-path="url(#clip070)" d="M1500.11 106.272 L1543.96 106.272 L1543.96 112.175 L1525.56 112.175 L1525.56 158.112 L1518.51 158.112 L1518.51 112.175 L1500.11 112.175 L1500.11 106.272 Z" fill="#000000" fill-rule="nonzero" fill-opacity="1" /><path clip-path="url(#clip070)" d="M1573.89 125.821 L1618.41 125.821 L1618.41 131.654 L1573.89 131.654 L1573.89 125.821 M1573.89 139.987 L1618.41 139.987 L1618.41 145.89 L1573.89 145.89 L1573.89 139.987 Z" fill="#000000" fill-rule="nonzero" fill-opacity="1" /><path clip-path="url(#clip070)" d="M1662.19 152.209 L1686.67 152.209 L1686.67 158.112 L1653.76 158.112 L1653.76 152.209 Q1657.75 148.077 1664.62 141.133 Q1671.53 134.154 1673.3 132.14 Q1676.67 128.355 1677.99 125.751 Q1679.35 123.112 1679.35 120.577 Q1679.35 116.446 1676.43 113.841 Q1673.55 111.237 1668.89 111.237 Q1665.6 111.237 1661.92 112.383 Q1658.27 113.529 1654.1 115.855 L1654.1 108.772 Q1658.34 107.071 1662.02 106.203 Q1665.7 105.335 1668.76 105.335 Q1676.81 105.335 1681.6 109.362 Q1686.39 113.39 1686.39 120.126 Q1686.39 123.321 1685.18 126.202 Q1684 129.05 1680.84 132.939 Q1679.97 133.945 1675.32 138.772 Q1670.67 143.563 1662.19 152.209 Z" fill="#000000" fill-rule="nonzero" fill-opacity="1" /><path clip-path="url(#clip070)" d="M1701.39 149.293 L1708.72 149.293 L1708.72 158.112 L1701.39 158.112 L1701.39 149.293 Z" fill="#000000" fill-rule="nonzero" fill-opacity="1" /><path clip-path="url(#clip070)" d="M1739 110.89 Q1733.58 110.89 1730.84 116.237 Q1728.13 121.55 1728.13 132.244 Q1728.13 142.904 1730.84 148.251 Q1733.58 153.563 1739 153.563 Q1744.45 153.563 1747.16 148.251 Q1749.9 142.904 1749.9 132.244 Q1749.9 121.55 1747.16 116.237 Q1744.45 110.89 1739 110.89 M1739 105.335 Q1747.71 105.335 1752.3 112.244 Q1756.91 119.119 1756.91 132.244 Q1756.91 145.334 1752.3 152.244 Q1747.71 159.119 1739 159.119 Q1730.28 159.119 1725.66 152.244 Q1721.08 145.334 1721.08 132.244 Q1721.08 119.119 1725.66 112.244 Q1730.28 105.335 1739 105.335 Z" fill="#000000" fill-rule="nonzero" fill-opacity="1" /><path clip-path="url(#clip070)" d="M1769.97 149.293 L1777.3 149.293 L1777.3 155.265 L1771.6 166.376 L1767.12 166.376 L1769.97 155.265 L1769.97 149.293 Z" fill="#000000" fill-rule="nonzero" fill-opacity="1" /><path clip-path="url(#clip070)" d="M1813.82 106.272 L1824.28 106.272 L1837.5 141.55 L1850.8 106.272 L1861.25 106.272 L1861.25 158.112 L1854.41 158.112 L1854.41 112.591 L1841.05 148.147 L1834 148.147 L1820.63 112.591 L1820.63 158.112 L1813.82 158.112 L1813.82 106.272 Z" fill="#000000" fill-rule="nonzero" fill-opacity="1" /><path clip-path="url(#clip070)" d="M1898.34 125.821 L1942.85 125.821 L1942.85 131.654 L1898.34 131.654 L1898.34 125.821 M1898.34 139.987 L1942.85 139.987 L1942.85 145.89 L1898.34 145.89 L1898.34 139.987 Z" fill="#000000" fill-rule="nonzero" fill-opacity="1" /><path clip-path="url(#clip070)" d="M1981.81 152.209 L1993.27 152.209 L1993.27 112.661 L1980.8 115.161 L1980.8 108.772 L1993.2 106.272 L2000.21 106.272 L2000.21 152.209 L2011.67 152.209 L2011.67 158.112 L1981.81 158.112 L1981.81 152.209 Z" fill="#000000" fill-rule="nonzero" fill-opacity="1" /><path clip-path="url(#clip070)" d="M2040.84 110.89 Q2035.42 110.89 2032.68 116.237 Q2029.97 121.55 2029.97 132.244 Q2029.97 142.904 2032.68 148.251 Q2035.42 153.563 2040.84 153.563 Q2046.29 153.563 2049 148.251 Q2051.74 142.904 2051.74 132.244 Q2051.74 121.55 2049 116.237 Q2046.29 110.89 2040.84 110.89 M2040.84 105.335 Q2049.55 105.335 2054.14 112.244 Q2058.75 119.119 2058.75 132.244 Q2058.75 145.334 2054.14 152.244 Q2049.55 159.119 2040.84 159.119 Q2032.12 159.119 2027.5 152.244 Q2022.92 145.334 2022.92 132.244 Q2022.92 119.119 2027.5 112.244 Q2032.12 105.335 2040.84 105.335 Z" fill="#000000" fill-rule="nonzero" fill-opacity="1" /><path clip-path="url(#clip072)" d="M2293.3 584.109 L2289.54 594.925 L2278.08 595.165 L2287.22 602.093 L2283.89 613.053 L2293.3 606.509 L2302.7 613.053 L2299.38 602.093 L2308.51 595.165 L2297.06 594.925 L2293.3 584.109 Z" fill="#009af9" fill-rule="evenodd" fill-opacity="1" stroke="#000000" stroke-opacity="1" stroke-width="0"/>
<path clip-path="url(#clip072)" d="M1632.63 724.803 L1628.87 735.619 L1617.42 735.859 L1626.55 742.787 L1623.22 753.747 L1632.63 747.203 L1642.04 753.747 L1638.71 742.787 L1647.85 735.859 L1636.39 735.619 L1632.63 724.803 Z" fill="#009af9" fill-rule="evenodd" fill-opacity="1" stroke="#000000" stroke-opacity="1" stroke-width="0"/>
<path clip-path="url(#clip072)" d="M971.967 843.824 L968.207 854.64 L956.751 854.88 L965.887 861.808 L962.559 872.768 L971.967 866.224 L981.375 872.768 L978.047 861.808 L987.183 854.88 L975.727 854.64 L971.967 843.824 Z" fill="#009af9" fill-rule="evenodd" fill-opacity="1" stroke="#000000" stroke-opacity="1" stroke-width="0"/>
<path clip-path="url(#clip072)" d="M311.302 961.46 L307.542 972.276 L296.086 972.516 L305.222 979.444 L301.894 990.404 L311.302 983.86 L320.71 990.404 L317.382 979.444 L326.518 972.516 L315.062 972.276 L311.302 961.46 Z" fill="#009af9" fill-rule="evenodd" fill-opacity="1" stroke="#000000" stroke-opacity="1" stroke-width="0"/>
<polyline clip-path="url(#clip072)" style="stroke:#e26f46; stroke-linecap:round; stroke-linejoin:round; stroke-width:4; stroke-opacity:1; fill:none" stroke-dasharray="16, 10" points="2293.3,606.888 1632.63,731.995 971.967,857.103 311.302,982.21 "/>
<path clip-path="url(#clip070)" d="M321.873 363.666 L1061.54 363.666 L1061.54 208.146 L321.873 208.146  Z" fill="#eaeaea" fill-rule="evenodd" fill-opacity="1"/>
<polyline clip-path="url(#clip070)" style="stroke:#ffffff; stroke-linecap:round; stroke-linejoin:round; stroke-width:4; stroke-opacity:1; fill:none" points="321.873,363.666 1061.54,363.666 1061.54,208.146 321.873,208.146 321.873,363.666 "/>
<path clip-path="url(#clip070)" d="M415.247 234.386 L409.231 251.692 L390.901 252.076 L405.519 263.161 L400.194 280.697 L415.247 270.226 L430.3 280.697 L424.975 263.161 L439.592 252.076 L421.263 251.692 L415.247 234.386 Z" fill="#009af9" fill-rule="evenodd" fill-opacity="1" stroke="#000000" stroke-opacity="1" stroke-width="0"/>
<path clip-path="url(#clip070)" d="M532.648 263.239 L532.648 265.322 L513.065 265.322 Q513.343 269.72 515.704 272.035 Q518.088 274.326 522.324 274.326 Q524.778 274.326 527.07 273.725 Q529.384 273.123 531.653 271.919 L531.653 275.947 Q529.361 276.919 526.954 277.428 Q524.547 277.938 522.07 277.938 Q515.866 277.938 512.232 274.326 Q508.621 270.715 508.621 264.558 Q508.621 258.192 512.047 254.465 Q515.496 250.715 521.329 250.715 Q526.56 250.715 529.593 254.095 Q532.648 257.452 532.648 263.239 M528.389 261.989 Q528.343 258.493 526.422 256.41 Q524.523 254.327 521.375 254.327 Q517.81 254.327 515.658 256.34 Q513.528 258.354 513.204 262.012 L528.389 261.989 Z" fill="#000000" fill-rule="nonzero" fill-opacity="1" /><path clip-path="url(#clip070)" d="M554.662 255.322 Q553.945 254.905 553.088 254.72 Q552.255 254.512 551.236 254.512 Q547.625 254.512 545.681 256.873 Q543.759 259.211 543.759 263.609 L543.759 277.266 L539.477 277.266 L539.477 251.34 L543.759 251.34 L543.759 255.368 Q545.102 253.007 547.255 251.873 Q549.408 250.715 552.486 250.715 Q552.926 250.715 553.458 250.785 Q553.991 250.831 554.639 250.947 L554.662 255.322 Z" fill="#000000" fill-rule="nonzero" fill-opacity="1" /><path clip-path="url(#clip070)" d="M573.319 255.322 Q572.602 254.905 571.745 254.72 Q570.912 254.512 569.894 254.512 Q566.282 254.512 564.338 256.873 Q562.417 259.211 562.417 263.609 L562.417 277.266 L558.134 277.266 L558.134 251.34 L562.417 251.34 L562.417 255.368 Q563.759 253.007 565.912 251.873 Q568.065 250.715 571.144 250.715 Q571.583 250.715 572.116 250.785 Q572.648 250.831 573.296 250.947 L573.319 255.322 Z" fill="#000000" fill-rule="nonzero" fill-opacity="1" /><path clip-path="url(#clip070)" d="M586.792 254.327 Q583.366 254.327 581.375 257.012 Q579.384 259.674 579.384 264.327 Q579.384 268.979 581.352 271.664 Q583.343 274.326 586.792 274.326 Q590.194 274.326 592.185 271.641 Q594.176 268.956 594.176 264.327 Q594.176 259.72 592.185 257.035 Q590.194 254.327 586.792 254.327 M586.792 250.715 Q592.347 250.715 595.518 254.327 Q598.69 257.938 598.69 264.327 Q598.69 270.692 595.518 274.326 Q592.347 277.938 586.792 277.938 Q581.213 277.938 578.042 274.326 Q574.893 270.692 574.893 264.327 Q574.893 257.938 578.042 254.327 Q581.213 250.715 586.792 250.715 Z" fill="#000000" fill-rule="nonzero" fill-opacity="1" /><path clip-path="url(#clip070)" d="M633.944 241.248 L633.944 244.79 L629.87 244.79 Q627.578 244.79 626.676 245.716 Q625.796 246.641 625.796 249.049 L625.796 251.34 L632.81 251.34 L632.81 254.651 L625.796 254.651 L625.796 277.266 L621.514 277.266 L621.514 254.651 L617.44 254.651 L617.44 251.34 L621.514 251.34 L621.514 249.535 Q621.514 245.206 623.527 243.239 Q625.541 241.248 629.916 241.248 L633.944 241.248 Z" fill="#000000" fill-rule="nonzero" fill-opacity="1" /><path clip-path="url(#clip070)" d="M647.555 254.327 Q644.129 254.327 642.138 257.012 Q640.148 259.674 640.148 264.327 Q640.148 268.979 642.115 271.664 Q644.106 274.326 647.555 274.326 Q650.958 274.326 652.949 271.641 Q654.939 268.956 654.939 264.327 Q654.939 259.72 652.949 257.035 Q650.958 254.327 647.555 254.327 M647.555 250.715 Q653.111 250.715 656.282 254.327 Q659.453 257.938 659.453 264.327 Q659.453 270.692 656.282 274.326 Q653.111 277.938 647.555 277.938 Q641.976 277.938 638.805 274.326 Q635.657 270.692 635.657 264.327 Q635.657 257.938 638.805 254.327 Q641.976 250.715 647.555 250.715 Z" fill="#000000" fill-rule="nonzero" fill-opacity="1" /><path clip-path="url(#clip070)" d="M681.536 255.322 Q680.819 254.905 679.962 254.72 Q679.129 254.512 678.111 254.512 Q674.499 254.512 672.555 256.873 Q670.634 259.211 670.634 263.609 L670.634 277.266 L666.351 277.266 L666.351 251.34 L670.634 251.34 L670.634 255.368 Q671.976 253.007 674.129 251.873 Q676.282 250.715 679.361 250.715 Q679.8 250.715 680.333 250.785 Q680.865 250.831 681.513 250.947 L681.536 255.322 Z" fill="#000000" fill-rule="nonzero" fill-opacity="1" /><path clip-path="url(#clip070)" d="M690.217 243.979 L690.217 251.34 L698.99 251.34 L698.99 254.651 L690.217 254.651 L690.217 268.725 Q690.217 271.896 691.073 272.799 Q691.953 273.701 694.615 273.701 L698.99 273.701 L698.99 277.266 L694.615 277.266 Q689.685 277.266 687.81 275.438 Q685.935 273.586 685.935 268.725 L685.935 254.651 L682.81 254.651 L682.81 251.34 L685.935 251.34 L685.935 243.979 L690.217 243.979 Z" fill="#000000" fill-rule="nonzero" fill-opacity="1" /><path clip-path="url(#clip070)" d="M726.768 263.239 L726.768 265.322 L707.184 265.322 Q707.462 269.72 709.823 272.035 Q712.208 274.326 716.444 274.326 Q718.897 274.326 721.189 273.725 Q723.504 273.123 725.772 271.919 L725.772 275.947 Q723.481 276.919 721.073 277.428 Q718.666 277.938 716.189 277.938 Q709.985 277.938 706.351 274.326 Q702.74 270.715 702.74 264.558 Q702.74 258.192 706.166 254.465 Q709.615 250.715 715.448 250.715 Q720.68 250.715 723.712 254.095 Q726.768 257.452 726.768 263.239 M722.508 261.989 Q722.462 258.493 720.541 256.41 Q718.643 254.327 715.495 254.327 Q711.93 254.327 709.777 256.34 Q707.647 258.354 707.323 262.012 L722.508 261.989 Z" fill="#000000" fill-rule="nonzero" fill-opacity="1" /><path clip-path="url(#clip070)" d="M750.24 273.331 L757.879 273.331 L757.879 246.966 L749.568 248.632 L749.568 244.373 L757.832 242.706 L762.508 242.706 L762.508 273.331 L770.147 273.331 L770.147 277.266 L750.24 277.266 L750.24 273.331 Z" fill="#000000" fill-rule="nonzero" fill-opacity="1" /><path clip-path="url(#clip070)" d="M789.591 245.785 Q785.98 245.785 784.152 249.35 Q782.346 252.891 782.346 260.021 Q782.346 267.127 784.152 270.692 Q785.98 274.234 789.591 274.234 Q793.226 274.234 795.031 270.692 Q796.86 267.127 796.86 260.021 Q796.86 252.891 795.031 249.35 Q793.226 245.785 789.591 245.785 M789.591 242.081 Q795.402 242.081 798.457 246.688 Q801.536 251.271 801.536 260.021 Q801.536 268.748 798.457 273.354 Q795.402 277.938 789.591 277.938 Q783.781 277.938 780.703 273.354 Q777.647 268.748 777.647 260.021 Q777.647 251.271 780.703 246.688 Q783.781 242.081 789.591 242.081 Z" fill="#000000" fill-rule="nonzero" fill-opacity="1" /><path clip-path="url(#clip070)" d="M836.003 264.234 Q830.841 264.234 828.85 265.414 Q826.86 266.595 826.86 269.442 Q826.86 271.711 828.341 273.053 Q829.846 274.373 832.415 274.373 Q835.957 274.373 838.087 271.873 Q840.239 269.35 840.239 265.183 L840.239 264.234 L836.003 264.234 M844.499 262.475 L844.499 277.266 L840.239 277.266 L840.239 273.331 Q838.781 275.692 836.605 276.826 Q834.429 277.938 831.281 277.938 Q827.3 277.938 824.938 275.715 Q822.6 273.47 822.6 269.72 Q822.6 265.345 825.517 263.123 Q828.457 260.901 834.267 260.901 L840.239 260.901 L840.239 260.484 Q840.239 257.544 838.295 255.947 Q836.374 254.327 832.878 254.327 Q830.656 254.327 828.55 254.859 Q826.443 255.391 824.499 256.456 L824.499 252.521 Q826.837 251.618 829.036 251.178 Q831.235 250.715 833.318 250.715 Q838.943 250.715 841.721 253.632 Q844.499 256.549 844.499 262.475 Z" fill="#000000" fill-rule="nonzero" fill-opacity="1" /><path clip-path="url(#clip070)" d="M873.457 256.317 Q875.054 253.447 877.276 252.081 Q879.498 250.715 882.508 250.715 Q886.558 250.715 888.758 253.563 Q890.957 256.387 890.957 261.618 L890.957 277.266 L886.674 277.266 L886.674 261.757 Q886.674 258.03 885.355 256.225 Q884.035 254.419 881.327 254.419 Q878.017 254.419 876.096 256.618 Q874.174 258.817 874.174 262.614 L874.174 277.266 L869.892 277.266 L869.892 261.757 Q869.892 258.007 868.572 256.225 Q867.253 254.419 864.498 254.419 Q861.235 254.419 859.313 256.641 Q857.392 258.84 857.392 262.614 L857.392 277.266 L853.11 277.266 L853.11 251.34 L857.392 251.34 L857.392 255.368 Q858.85 252.984 860.887 251.85 Q862.924 250.715 865.725 250.715 Q868.549 250.715 870.517 252.151 Q872.508 253.586 873.457 256.317 Z" fill="#000000" fill-rule="nonzero" fill-opacity="1" /><path clip-path="url(#clip070)" d="M909.498 254.327 Q906.072 254.327 904.082 257.012 Q902.091 259.674 902.091 264.327 Q902.091 268.979 904.058 271.664 Q906.049 274.326 909.498 274.326 Q912.901 274.326 914.892 271.641 Q916.882 268.956 916.882 264.327 Q916.882 259.72 914.892 257.035 Q912.901 254.327 909.498 254.327 M909.498 250.715 Q915.054 250.715 918.225 254.327 Q921.396 257.938 921.396 264.327 Q921.396 270.692 918.225 274.326 Q915.054 277.938 909.498 277.938 Q903.919 277.938 900.748 274.326 Q897.6 270.692 897.6 264.327 Q897.6 257.938 900.748 254.327 Q903.919 250.715 909.498 250.715 Z" fill="#000000" fill-rule="nonzero" fill-opacity="1" /><path clip-path="url(#clip070)" d="M944.984 252.104 L944.984 256.132 Q943.179 255.206 941.234 254.743 Q939.29 254.28 937.206 254.28 Q934.035 254.28 932.438 255.253 Q930.864 256.225 930.864 258.169 Q930.864 259.651 931.998 260.507 Q933.132 261.34 936.558 262.104 L938.017 262.428 Q942.554 263.401 944.452 265.183 Q946.373 266.942 946.373 270.114 Q946.373 273.725 943.503 275.831 Q940.655 277.938 935.655 277.938 Q933.572 277.938 931.304 277.521 Q929.058 277.127 926.558 276.317 L926.558 271.919 Q928.919 273.146 931.211 273.771 Q933.503 274.373 935.748 274.373 Q938.757 274.373 940.378 273.354 Q941.998 272.313 941.998 270.438 Q941.998 268.702 940.817 267.776 Q939.66 266.85 935.702 265.993 L934.22 265.646 Q930.262 264.813 928.503 263.1 Q926.743 261.364 926.743 258.354 Q926.743 254.697 929.336 252.706 Q931.929 250.715 936.697 250.715 Q939.058 250.715 941.142 251.063 Q943.225 251.41 944.984 252.104 Z" fill="#000000" fill-rule="nonzero" fill-opacity="1" /><path clip-path="url(#clip070)" d="M957.368 243.979 L957.368 251.34 L966.141 251.34 L966.141 254.651 L957.368 254.651 L957.368 268.725 Q957.368 271.896 958.225 272.799 Q959.104 273.701 961.766 273.701 L966.141 273.701 L966.141 277.266 L961.766 277.266 Q956.836 277.266 954.961 275.438 Q953.086 273.586 953.086 268.725 L953.086 254.651 L949.961 254.651 L949.961 251.34 L953.086 251.34 L953.086 243.979 L957.368 243.979 Z" fill="#000000" fill-rule="nonzero" fill-opacity="1" /><path clip-path="url(#clip070)" d="M986.766 255.322 Q986.049 254.905 985.192 254.72 Q984.359 254.512 983.34 254.512 Q979.729 254.512 977.785 256.873 Q975.864 259.211 975.864 263.609 L975.864 277.266 L971.581 277.266 L971.581 251.34 L975.864 251.34 L975.864 255.368 Q977.206 253.007 979.359 251.873 Q981.512 250.715 984.59 250.715 Q985.03 250.715 985.563 250.785 Q986.095 250.831 986.743 250.947 L986.766 255.322 Z" fill="#000000" fill-rule="nonzero" fill-opacity="1" /><path clip-path="url(#clip070)" d="M1003.02 264.234 Q997.854 264.234 995.863 265.414 Q993.873 266.595 993.873 269.442 Q993.873 271.711 995.354 273.053 Q996.859 274.373 999.428 274.373 Q1002.97 274.373 1005.1 271.873 Q1007.25 269.35 1007.25 265.183 L1007.25 264.234 L1003.02 264.234 M1011.51 262.475 L1011.51 277.266 L1007.25 277.266 L1007.25 273.331 Q1005.79 275.692 1003.62 276.826 Q1001.44 277.938 998.294 277.938 Q994.313 277.938 991.951 275.715 Q989.613 273.47 989.613 269.72 Q989.613 265.345 992.53 263.123 Q995.47 260.901 1001.28 260.901 L1007.25 260.901 L1007.25 260.484 Q1007.25 257.544 1005.31 255.947 Q1003.39 254.327 999.891 254.327 Q997.669 254.327 995.563 254.859 Q993.456 255.391 991.512 256.456 L991.512 252.521 Q993.85 251.618 996.049 251.178 Q998.248 250.715 1000.33 250.715 Q1005.96 250.715 1008.73 253.632 Q1011.51 256.549 1011.51 262.475 Z" fill="#000000" fill-rule="nonzero" fill-opacity="1" /><path clip-path="url(#clip070)" d="M1036.81 252.104 L1036.81 256.132 Q1035.01 255.206 1033.06 254.743 Q1031.12 254.28 1029.03 254.28 Q1025.86 254.28 1024.27 255.253 Q1022.69 256.225 1022.69 258.169 Q1022.69 259.651 1023.83 260.507 Q1024.96 261.34 1028.39 262.104 L1029.84 262.428 Q1034.38 263.401 1036.28 265.183 Q1038.2 266.942 1038.2 270.114 Q1038.2 273.725 1035.33 275.831 Q1032.48 277.938 1027.48 277.938 Q1025.4 277.938 1023.13 277.521 Q1020.89 277.127 1018.39 276.317 L1018.39 271.919 Q1020.75 273.146 1023.04 273.771 Q1025.33 274.373 1027.58 274.373 Q1030.59 274.373 1032.21 273.354 Q1033.83 272.313 1033.83 270.438 Q1033.83 268.702 1032.65 267.776 Q1031.49 266.85 1027.53 265.993 L1026.05 265.646 Q1022.09 264.813 1020.33 263.1 Q1018.57 261.364 1018.57 258.354 Q1018.57 254.697 1021.16 252.706 Q1023.76 250.715 1028.53 250.715 Q1030.89 250.715 1032.97 251.063 Q1035.05 251.41 1036.81 252.104 Z" fill="#000000" fill-rule="nonzero" fill-opacity="1" /><polyline clip-path="url(#clip070)" style="stroke:#e26f46; stroke-linecap:round; stroke-linejoin:round; stroke-width:4; stroke-opacity:1; fill:none" stroke-dasharray="16, 10" points="345.216,311.826 485.277,311.826 "/>
<path clip-path="url(#clip070)" d="M522.023 316.074 Q516.861 316.074 514.871 317.254 Q512.88 318.435 512.88 321.282 Q512.88 323.551 514.361 324.893 Q515.866 326.213 518.435 326.213 Q521.977 326.213 524.107 323.713 Q526.259 321.19 526.259 317.023 L526.259 316.074 L522.023 316.074 M530.519 314.315 L530.519 329.106 L526.259 329.106 L526.259 325.171 Q524.801 327.532 522.625 328.666 Q520.449 329.778 517.301 329.778 Q513.32 329.778 510.959 327.555 Q508.621 325.31 508.621 321.56 Q508.621 317.185 511.537 314.963 Q514.477 312.741 520.287 312.741 L526.259 312.741 L526.259 312.324 Q526.259 309.384 524.315 307.787 Q522.394 306.167 518.898 306.167 Q516.676 306.167 514.57 306.699 Q512.463 307.231 510.519 308.296 L510.519 304.361 Q512.857 303.458 515.056 303.018 Q517.255 302.555 519.338 302.555 Q524.963 302.555 527.741 305.472 Q530.519 308.389 530.519 314.315 Z" fill="#000000" fill-rule="nonzero" fill-opacity="1" /><path clip-path="url(#clip070)" d="M539.292 303.18 L543.551 303.18 L543.551 329.569 Q543.551 334.523 541.653 336.745 Q539.778 338.967 535.588 338.967 L533.968 338.967 L533.968 335.356 L535.102 335.356 Q537.533 335.356 538.412 334.222 Q539.292 333.111 539.292 329.569 L539.292 303.18 M539.292 293.088 L543.551 293.088 L543.551 298.481 L539.292 298.481 L539.292 293.088 Z" fill="#000000" fill-rule="nonzero" fill-opacity="1" /><path clip-path="url(#clip070)" d="M552.023 318.875 L552.023 303.18 L556.282 303.18 L556.282 318.713 Q556.282 322.393 557.718 324.245 Q559.153 326.074 562.023 326.074 Q565.472 326.074 567.463 323.875 Q569.477 321.676 569.477 317.879 L569.477 303.18 L573.736 303.18 L573.736 329.106 L569.477 329.106 L569.477 325.125 Q567.926 327.486 565.866 328.643 Q563.829 329.778 561.12 329.778 Q556.653 329.778 554.338 327 Q552.023 324.222 552.023 318.875 M562.741 302.555 L562.741 302.555 Z" fill="#000000" fill-rule="nonzero" fill-opacity="1" /><path clip-path="url(#clip070)" d="M599.037 303.944 L599.037 307.972 Q597.231 307.046 595.287 306.583 Q593.342 306.12 591.259 306.12 Q588.088 306.12 586.491 307.093 Q584.917 308.065 584.917 310.009 Q584.917 311.491 586.051 312.347 Q587.185 313.18 590.611 313.944 L592.069 314.268 Q596.606 315.241 598.504 317.023 Q600.426 318.782 600.426 321.954 Q600.426 325.565 597.555 327.671 Q594.708 329.778 589.708 329.778 Q587.625 329.778 585.356 329.361 Q583.111 328.967 580.611 328.157 L580.611 323.759 Q582.972 324.986 585.264 325.611 Q587.555 326.213 589.801 326.213 Q592.81 326.213 594.43 325.194 Q596.051 324.153 596.051 322.278 Q596.051 320.542 594.87 319.616 Q593.713 318.69 589.755 317.833 L588.273 317.486 Q584.315 316.653 582.555 314.94 Q580.796 313.204 580.796 310.194 Q580.796 306.537 583.389 304.546 Q585.981 302.555 590.75 302.555 Q593.111 302.555 595.194 302.903 Q597.278 303.25 599.037 303.944 Z" fill="#000000" fill-rule="nonzero" fill-opacity="1" /><path clip-path="url(#clip070)" d="M611.421 295.819 L611.421 303.18 L620.194 303.18 L620.194 306.491 L611.421 306.491 L611.421 320.565 Q611.421 323.736 612.278 324.639 Q613.157 325.541 615.819 325.541 L620.194 325.541 L620.194 329.106 L615.819 329.106 Q610.889 329.106 609.014 327.278 Q607.139 325.426 607.139 320.565 L607.139 306.491 L604.014 306.491 L604.014 303.18 L607.139 303.18 L607.139 295.819 L611.421 295.819 Z" fill="#000000" fill-rule="nonzero" fill-opacity="1" /><path clip-path="url(#clip070)" d="M647.972 315.079 L647.972 317.162 L628.389 317.162 Q628.666 321.56 631.027 323.875 Q633.412 326.166 637.648 326.166 Q640.101 326.166 642.393 325.565 Q644.708 324.963 646.976 323.759 L646.976 327.787 Q644.685 328.759 642.277 329.268 Q639.87 329.778 637.393 329.778 Q631.189 329.778 627.555 326.166 Q623.944 322.555 623.944 316.398 Q623.944 310.032 627.37 306.305 Q630.819 302.555 636.652 302.555 Q641.884 302.555 644.916 305.935 Q647.972 309.292 647.972 315.079 M643.713 313.829 Q643.666 310.333 641.745 308.25 Q639.847 306.167 636.699 306.167 Q633.134 306.167 630.981 308.18 Q628.852 310.194 628.527 313.852 L643.713 313.829 Z" fill="#000000" fill-rule="nonzero" fill-opacity="1" /><path clip-path="url(#clip070)" d="M670.032 293.088 L674.291 293.088 L674.291 329.106 L670.032 329.106 L670.032 293.088 Z" fill="#000000" fill-rule="nonzero" fill-opacity="1" /><path clip-path="url(#clip070)" d="M683.203 303.18 L687.462 303.18 L687.462 329.106 L683.203 329.106 L683.203 303.18 M683.203 293.088 L687.462 293.088 L687.462 298.481 L683.203 298.481 L683.203 293.088 Z" fill="#000000" fill-rule="nonzero" fill-opacity="1" /><path clip-path="url(#clip070)" d="M717.925 313.458 L717.925 329.106 L713.666 329.106 L713.666 313.597 Q713.666 309.917 712.231 308.088 Q710.796 306.259 707.925 306.259 Q704.476 306.259 702.485 308.458 Q700.495 310.657 700.495 314.454 L700.495 329.106 L696.212 329.106 L696.212 303.18 L700.495 303.18 L700.495 307.208 Q702.022 304.87 704.083 303.713 Q706.166 302.555 708.874 302.555 Q713.342 302.555 715.633 305.333 Q717.925 308.088 717.925 313.458 Z" fill="#000000" fill-rule="nonzero" fill-opacity="1" /><path clip-path="url(#clip070)" d="M748.596 315.079 L748.596 317.162 L729.013 317.162 Q729.291 321.56 731.652 323.875 Q734.036 326.166 738.272 326.166 Q740.726 326.166 743.018 325.565 Q745.332 324.963 747.601 323.759 L747.601 327.787 Q745.309 328.759 742.902 329.268 Q740.494 329.778 738.018 329.778 Q731.814 329.778 728.18 326.166 Q724.569 322.555 724.569 316.398 Q724.569 310.032 727.995 306.305 Q731.444 302.555 737.277 302.555 Q742.508 302.555 745.541 305.935 Q748.596 309.292 748.596 315.079 M744.337 313.829 Q744.291 310.333 742.369 308.25 Q740.471 306.167 737.323 306.167 Q733.758 306.167 731.606 308.18 Q729.476 310.194 729.152 313.852 L744.337 313.829 Z" fill="#000000" fill-rule="nonzero" fill-opacity="1" /><path clip-path="url(#clip070)" d="M767.369 316.074 Q762.207 316.074 760.217 317.254 Q758.226 318.435 758.226 321.282 Q758.226 323.551 759.707 324.893 Q761.212 326.213 763.781 326.213 Q767.323 326.213 769.453 323.713 Q771.605 321.19 771.605 317.023 L771.605 316.074 L767.369 316.074 M775.865 314.315 L775.865 329.106 L771.605 329.106 L771.605 325.171 Q770.147 327.532 767.971 328.666 Q765.795 329.778 762.647 329.778 Q758.666 329.778 756.305 327.555 Q753.967 325.31 753.967 321.56 Q753.967 317.185 756.883 314.963 Q759.823 312.741 765.633 312.741 L771.605 312.741 L771.605 312.324 Q771.605 309.384 769.661 307.787 Q767.74 306.167 764.244 306.167 Q762.022 306.167 759.916 306.699 Q757.809 307.231 755.865 308.296 L755.865 304.361 Q758.203 303.458 760.402 303.018 Q762.601 302.555 764.684 302.555 Q770.309 302.555 773.087 305.472 Q775.865 308.389 775.865 314.315 Z" fill="#000000" fill-rule="nonzero" fill-opacity="1" /><path clip-path="url(#clip070)" d="M799.661 307.162 Q798.943 306.745 798.087 306.56 Q797.253 306.352 796.235 306.352 Q792.624 306.352 790.679 308.713 Q788.758 311.051 788.758 315.449 L788.758 329.106 L784.476 329.106 L784.476 303.18 L788.758 303.18 L788.758 307.208 Q790.101 304.847 792.253 303.713 Q794.406 302.555 797.485 302.555 Q797.925 302.555 798.457 302.625 Q798.99 302.671 799.638 302.787 L799.661 307.162 Z" fill="#000000" fill-rule="nonzero" fill-opacity="1" /></svg>
