<?xml version="1.0" encoding="utf-8"?>
<svg xmlns="http://www.w3.org/2000/svg" xmlns:xlink="http://www.w3.org/1999/xlink" width="600" height="400" viewBox="0 0 2400 1600">
<defs>
  <clipPath id="clip280">
    <rect x="0" y="0" width="2400" height="1600"/>
  </clipPath>
</defs>
<path clip-path="url(#clip280)" d="M0 1600 L2400 1600 L2400 0 L0 0  Z" fill="#ffffff" fill-rule="evenodd" fill-opacity="1"/>
<defs>
  <clipPath id="clip281">
    <rect x="480" y="0" width="1681" height="1600"/>
  </clipPath>
</defs>
<path clip-path="url(#clip280)" d="M249.542 1423.18 L2352.76 1423.18 L2352.76 106.192 L249.542 106.192  Z" fill="#eaeaea" fill-rule="evenodd" fill-opacity="1"/>
<defs>
  <clipPath id="clip282">
    <rect x="249" y="106" width="2104" height="1318"/>
  </clipPath>
</defs>
<polyline clip-path="url(#clip282)" style="stroke:#ffffff; stroke-linecap:round; stroke-linejoin:round; stroke-width:4; stroke-opacity:1; fill:none" points="270.91,1423.18 270.91,106.192 "/>
<polyline clip-path="url(#clip282)" style="stroke:#ffffff; stroke-linecap:round; stroke-linejoin:round; stroke-width:4; stroke-opacity:1; fill:none" points="652.48,1423.18 652.48,106.192 "/>
<polyline clip-path="url(#clip282)" style="stroke:#ffffff; stroke-linecap:round; stroke-linejoin:round; stroke-width:4; stroke-opacity:1; fill:none" points="1034.05,1423.18 1034.05,106.192 "/>
<polyline clip-path="url(#clip282)" style="stroke:#ffffff; stroke-linecap:round; stroke-linejoin:round; stroke-width:4; stroke-opacity:1; fill:none" points="1415.62,1423.18 1415.62,106.192 "/>
<polyline clip-path="url(#clip282)" style="stroke:#ffffff; stroke-linecap:round; stroke-linejoin:round; stroke-width:4; stroke-opacity:1; fill:none" points="1797.19,1423.18 1797.19,106.192 "/>
<polyline clip-path="url(#clip282)" style="stroke:#ffffff; stroke-linecap:round; stroke-linejoin:round; stroke-width:4; stroke-opacity:1; fill:none" points="2178.76,1423.18 2178.76,106.192 "/>
<polyline clip-path="url(#clip282)" style="stroke:#ffffff; stroke-linecap:round; stroke-linejoin:round; stroke-width:2; stroke-opacity:1; fill:none" points="461.695,1423.18 461.695,106.192 "/>
<polyline clip-path="url(#clip282)" style="stroke:#ffffff; stroke-linecap:round; stroke-linejoin:round; stroke-width:2; stroke-opacity:1; fill:none" points="843.265,1423.18 843.265,106.192 "/>
<polyline clip-path="url(#clip282)" style="stroke:#ffffff; stroke-linecap:round; stroke-linejoin:round; stroke-width:2; stroke-opacity:1; fill:none" points="1224.83,1423.18 1224.83,106.192 "/>
<polyline clip-path="url(#clip282)" style="stroke:#ffffff; stroke-linecap:round; stroke-linejoin:round; stroke-width:2; stroke-opacity:1; fill:none" points="1606.4,1423.18 1606.4,106.192 "/>
<polyline clip-path="url(#clip282)" style="stroke:#ffffff; stroke-linecap:round; stroke-linejoin:round; stroke-width:2; stroke-opacity:1; fill:none" points="1987.97,1423.18 1987.97,106.192 "/>
<polyline clip-path="url(#clip280)" style="stroke:#ffffff; stroke-linecap:round; stroke-linejoin:round; stroke-width:4; stroke-opacity:1; fill:none" points="249.542,1423.18 2352.76,1423.18 "/>
<polyline clip-path="url(#clip280)" style="stroke:#333333; stroke-linecap:round; stroke-linejoin:round; stroke-width:4; stroke-opacity:1; fill:none" points="270.91,1423.18 270.91,1442.08 "/>
<polyline clip-path="url(#clip280)" style="stroke:#333333; stroke-linecap:round; stroke-linejoin:round; stroke-width:4; stroke-opacity:1; fill:none" points="652.48,1423.18 652.48,1442.08 "/>
<polyline clip-path="url(#clip280)" style="stroke:#333333; stroke-linecap:round; stroke-linejoin:round; stroke-width:4; stroke-opacity:1; fill:none" points="1034.05,1423.18 1034.05,1442.08 "/>
<polyline clip-path="url(#clip280)" style="stroke:#333333; stroke-linecap:round; stroke-linejoin:round; stroke-width:4; stroke-opacity:1; fill:none" points="1415.62,1423.18 1415.62,1442.08 "/>
<polyline clip-path="url(#clip280)" style="stroke:#333333; stroke-linecap:round; stroke-linejoin:round; stroke-width:4; stroke-opacity:1; fill:none" points="1797.19,1423.18 1797.19,1442.08 "/>
<polyline clip-path="url(#clip280)" style="stroke:#333333; stroke-linecap:round; stroke-linejoin:round; stroke-width:4; stroke-opacity:1; fill:none" points="2178.76,1423.18 2178.76,1442.08 "/>
<polyline clip-path="url(#clip280)" style="stroke:#333333; stroke-linecap:round; stroke-linejoin:round; stroke-width:4; stroke-opacity:1; fill:none" points="461.695,1423.18 461.695,1432.63 "/>
<polyline clip-path="url(#clip280)" style="stroke:#333333; stroke-linecap:round; stroke-linejoin:round; stroke-width:4; stroke-opacity:1; fill:none" points="843.265,1423.18 843.265,1432.63 "/>
<polyline clip-path="url(#clip280)" style="stroke:#333333; stroke-linecap:round; stroke-linejoin:round; stroke-width:4; stroke-opacity:1; fill:none" points="1224.83,1423.18 1224.83,1432.63 "/>
<polyline clip-path="url(#clip280)" style="stroke:#333333; stroke-linecap:round; stroke-linejoin:round; stroke-width:4; stroke-opacity:1; fill:none" points="1606.4,1423.18 1606.4,1432.63 "/>
<polyline clip-path="url(#clip280)" style="stroke:#333333; stroke-linecap:round; stroke-linejoin:round; stroke-width:4; stroke-opacity:1; fill:none" points="1987.97,1423.18 1987.97,1432.63 "/>
<path clip-path="url(#clip280)" d="M270.91 1463.7 Q267.299 1463.7 265.47 1467.26 Q263.665 1470.8 263.665 1477.93 Q263.665 1485.04 265.47 1488.61 Q267.299 1492.15 270.91 1492.15 Q274.544 1492.15 276.35 1488.61 Q278.178 1485.04 278.178 1477.93 Q278.178 1470.8 276.35 1467.26 Q274.544 1463.7 270.91 1463.7 M270.91 1459.99 Q276.72 1459.99 279.776 1464.6 Q282.854 1469.18 282.854 1477.93 Q282.854 1486.66 279.776 1491.27 Q276.72 1495.85 270.91 1495.85 Q265.1 1495.85 262.021 1491.27 Q258.966 1486.66 258.966 1477.93 Q258.966 1469.18 262.021 1464.6 Q265.1 1459.99 270.91 1459.99 Z" fill="#4c4c4c" fill-rule="nonzero" fill-opacity="1" /><path clip-path="url(#clip280)" d="M627.168 1491.24 L634.806 1491.24 L634.806 1464.88 L626.496 1466.55 L626.496 1462.29 L634.76 1460.62 L639.436 1460.62 L639.436 1491.24 L647.075 1491.24 L647.075 1495.18 L627.168 1495.18 L627.168 1491.24 Z" fill="#4c4c4c" fill-rule="nonzero" fill-opacity="1" /><path clip-path="url(#clip280)" d="M666.519 1463.7 Q662.908 1463.7 661.079 1467.26 Q659.274 1470.8 659.274 1477.93 Q659.274 1485.04 661.079 1488.61 Q662.908 1492.15 666.519 1492.15 Q670.153 1492.15 671.959 1488.61 Q673.788 1485.04 673.788 1477.93 Q673.788 1470.8 671.959 1467.26 Q670.153 1463.7 666.519 1463.7 M666.519 1459.99 Q672.329 1459.99 675.385 1464.6 Q678.464 1469.18 678.464 1477.93 Q678.464 1486.66 675.385 1491.27 Q672.329 1495.85 666.519 1495.85 Q660.709 1495.85 657.63 1491.27 Q654.575 1486.66 654.575 1477.93 Q654.575 1469.18 657.63 1464.6 Q660.709 1459.99 666.519 1459.99 Z" fill="#4c4c4c" fill-rule="nonzero" fill-opacity="1" /><path clip-path="url(#clip280)" d="M1012.82 1491.24 L1029.14 1491.24 L1029.14 1495.18 L1007.2 1495.18 L1007.2 1491.24 Q1009.86 1488.49 1014.44 1483.86 Q1019.05 1479.21 1020.23 1477.87 Q1022.48 1475.34 1023.36 1473.61 Q1024.26 1471.85 1024.26 1470.16 Q1024.26 1467.4 1022.31 1465.67 Q1020.39 1463.93 1017.29 1463.93 Q1015.09 1463.93 1012.64 1464.69 Q1010.21 1465.46 1007.43 1467.01 L1007.43 1462.29 Q1010.25 1461.15 1012.71 1460.57 Q1015.16 1459.99 1017.2 1459.99 Q1022.57 1459.99 1025.76 1462.68 Q1028.96 1465.37 1028.96 1469.86 Q1028.96 1471.99 1028.15 1473.91 Q1027.36 1475.8 1025.25 1478.4 Q1024.68 1479.07 1021.57 1482.29 Q1018.47 1485.48 1012.82 1491.24 Z" fill="#4c4c4c" fill-rule="nonzero" fill-opacity="1" /><path clip-path="url(#clip280)" d="M1048.96 1463.7 Q1045.35 1463.7 1043.52 1467.26 Q1041.71 1470.8 1041.71 1477.93 Q1041.71 1485.04 1043.52 1488.61 Q1045.35 1492.15 1048.96 1492.15 Q1052.59 1492.15 1054.4 1488.61 Q1056.23 1485.04 1056.23 1477.93 Q1056.23 1470.8 1054.4 1467.26 Q1052.59 1463.7 1048.96 1463.7 M1048.96 1459.99 Q1054.77 1459.99 1057.82 1464.6 Q1060.9 1469.18 1060.9 1477.93 Q1060.9 1486.66 1057.82 1491.27 Q1054.77 1495.85 1048.96 1495.85 Q1043.15 1495.85 1040.07 1491.27 Q1037.01 1486.66 1037.01 1477.93 Q1037.01 1469.18 1040.07 1464.6 Q1043.15 1459.99 1048.96 1459.99 Z" fill="#4c4c4c" fill-rule="nonzero" fill-opacity="1" /><path clip-path="url(#clip280)" d="M1404.46 1476.55 Q1407.82 1477.26 1409.69 1479.53 Q1411.59 1481.8 1411.59 1485.13 Q1411.59 1490.25 1408.07 1493.05 Q1404.56 1495.85 1398.07 1495.85 Q1395.9 1495.85 1393.58 1495.41 Q1391.29 1494.99 1388.84 1494.14 L1388.84 1489.62 Q1390.78 1490.76 1393.1 1491.34 Q1395.41 1491.92 1397.93 1491.92 Q1402.33 1491.92 1404.62 1490.18 Q1406.94 1488.44 1406.94 1485.13 Q1406.94 1482.08 1404.79 1480.37 Q1402.66 1478.63 1398.84 1478.63 L1394.81 1478.63 L1394.81 1474.79 L1399.02 1474.79 Q1402.47 1474.79 1404.3 1473.42 Q1406.13 1472.03 1406.13 1469.44 Q1406.13 1466.78 1404.23 1465.37 Q1402.36 1463.93 1398.84 1463.93 Q1396.92 1463.93 1394.72 1464.35 Q1392.52 1464.76 1389.88 1465.64 L1389.88 1461.48 Q1392.54 1460.74 1394.86 1460.37 Q1397.19 1459.99 1399.25 1459.99 Q1404.58 1459.99 1407.68 1462.43 Q1410.78 1464.83 1410.78 1468.95 Q1410.78 1471.82 1409.14 1473.81 Q1407.5 1475.78 1404.46 1476.55 Z" fill="#4c4c4c" fill-rule="nonzero" fill-opacity="1" /><path clip-path="url(#clip280)" d="M1430.46 1463.7 Q1426.85 1463.7 1425.02 1467.26 Q1423.21 1470.8 1423.21 1477.93 Q1423.21 1485.04 1425.02 1488.61 Q1426.85 1492.15 1430.46 1492.15 Q1434.09 1492.15 1435.9 1488.61 Q1437.73 1485.04 1437.73 1477.93 Q1437.73 1470.8 1435.9 1467.26 Q1434.09 1463.7 1430.46 1463.7 M1430.46 1459.99 Q1436.27 1459.99 1439.32 1464.6 Q1442.4 1469.18 1442.4 1477.93 Q1442.4 1486.66 1439.32 1491.27 Q1436.27 1495.85 1430.46 1495.85 Q1424.65 1495.85 1421.57 1491.27 Q1418.51 1486.66 1418.51 1477.93 Q1418.51 1469.18 1421.57 1464.6 Q1424.65 1459.99 1430.46 1459.99 Z" fill="#4c4c4c" fill-rule="nonzero" fill-opacity="1" /><path clip-path="url(#clip280)" d="M1785.36 1464.69 L1773.56 1483.14 L1785.36 1483.14 L1785.36 1464.69 M1784.13 1460.62 L1790.01 1460.62 L1790.01 1483.14 L1794.94 1483.14 L1794.94 1487.03 L1790.01 1487.03 L1790.01 1495.18 L1785.36 1495.18 L1785.36 1487.03 L1769.76 1487.03 L1769.76 1482.52 L1784.13 1460.62 Z" fill="#4c4c4c" fill-rule="nonzero" fill-opacity="1" /><path clip-path="url(#clip280)" d="M1812.68 1463.7 Q1809.06 1463.7 1807.24 1467.26 Q1805.43 1470.8 1805.43 1477.93 Q1805.43 1485.04 1807.24 1488.61 Q1809.06 1492.15 1812.68 1492.15 Q1816.31 1492.15 1818.12 1488.61 Q1819.94 1485.04 1819.94 1477.93 Q1819.94 1470.8 1818.12 1467.26 Q1816.31 1463.7 1812.68 1463.7 M1812.68 1459.99 Q1818.49 1459.99 1821.54 1464.6 Q1824.62 1469.18 1824.62 1477.93 Q1824.62 1486.66 1821.54 1491.27 Q1818.49 1495.85 1812.68 1495.85 Q1806.87 1495.85 1803.79 1491.27 Q1800.73 1486.66 1800.73 1477.93 Q1800.73 1469.18 1803.79 1464.6 Q1806.87 1459.99 1812.68 1459.99 Z" fill="#4c4c4c" fill-rule="nonzero" fill-opacity="1" /><path clip-path="url(#clip280)" d="M2153.46 1460.62 L2171.82 1460.62 L2171.82 1464.56 L2157.74 1464.56 L2157.74 1473.03 Q2158.76 1472.68 2159.78 1472.52 Q2160.8 1472.33 2161.82 1472.33 Q2167.6 1472.33 2170.98 1475.5 Q2174.36 1478.68 2174.36 1484.09 Q2174.36 1489.67 2170.89 1492.77 Q2167.42 1495.85 2161.1 1495.85 Q2158.92 1495.85 2156.65 1495.48 Q2154.41 1495.11 2152 1494.37 L2152 1489.67 Q2154.08 1490.8 2156.31 1491.36 Q2158.53 1491.92 2161.01 1491.92 Q2165.01 1491.92 2167.35 1489.81 Q2169.69 1487.7 2169.69 1484.09 Q2169.69 1480.48 2167.35 1478.37 Q2165.01 1476.27 2161.01 1476.27 Q2159.13 1476.27 2157.26 1476.68 Q2155.4 1477.1 2153.46 1477.98 L2153.46 1460.62 Z" fill="#4c4c4c" fill-rule="nonzero" fill-opacity="1" /><path clip-path="url(#clip280)" d="M2193.57 1463.7 Q2189.96 1463.7 2188.13 1467.26 Q2186.33 1470.8 2186.33 1477.93 Q2186.33 1485.04 2188.13 1488.61 Q2189.96 1492.15 2193.57 1492.15 Q2197.21 1492.15 2199.01 1488.61 Q2200.84 1485.04 2200.84 1477.93 Q2200.84 1470.8 2199.01 1467.26 Q2197.21 1463.7 2193.57 1463.7 M2193.57 1459.99 Q2199.38 1459.99 2202.44 1464.6 Q2205.52 1469.18 2205.52 1477.93 Q2205.52 1486.66 2202.44 1491.27 Q2199.38 1495.85 2193.57 1495.85 Q2187.76 1495.85 2184.69 1491.27 Q2181.63 1486.66 2181.63 1477.93 Q2181.63 1469.18 2184.69 1464.6 Q2187.76 1459.99 2193.57 1459.99 Z" fill="#4c4c4c" fill-rule="nonzero" fill-opacity="1" /><path clip-path="url(#clip280)" d="M1128.65 1522.27 L1128.65 1532.4 L1140.72 1532.4 L1140.72 1536.95 L1128.65 1536.95 L1128.65 1556.3 Q1128.65 1560.66 1129.83 1561.9 Q1131.04 1563.14 1134.7 1563.14 L1140.72 1563.14 L1140.72 1568.04 L1134.7 1568.04 Q1127.92 1568.04 1125.34 1565.53 Q1122.77 1562.98 1122.77 1556.3 L1122.77 1536.95 L1118.47 1536.95 L1118.47 1532.4 L1122.77 1532.4 L1122.77 1522.27 L1128.65 1522.27 Z" fill="#000000" fill-rule="nonzero" fill-opacity="1" /><path clip-path="url(#clip280)" d="M1148.42 1532.4 L1154.28 1532.4 L1154.28 1568.04 L1148.42 1568.04 L1148.42 1532.4 M1148.42 1518.52 L1154.28 1518.52 L1154.28 1525.93 L1148.42 1525.93 L1148.42 1518.52 Z" fill="#000000" fill-rule="nonzero" fill-opacity="1" /><path clip-path="url(#clip280)" d="M1194.28 1539.24 Q1196.48 1535.29 1199.54 1533.41 Q1202.59 1531.54 1206.73 1531.54 Q1212.3 1531.54 1215.32 1535.45 Q1218.35 1539.33 1218.35 1546.53 L1218.35 1568.04 L1212.46 1568.04 L1212.46 1546.72 Q1212.46 1541.59 1210.64 1539.11 Q1208.83 1536.63 1205.11 1536.63 Q1200.55 1536.63 1197.91 1539.65 Q1195.27 1542.68 1195.27 1547.9 L1195.27 1568.04 L1189.38 1568.04 L1189.38 1546.72 Q1189.38 1541.56 1187.57 1539.11 Q1185.75 1536.63 1181.97 1536.63 Q1177.48 1536.63 1174.84 1539.68 Q1172.2 1542.71 1172.2 1547.9 L1172.2 1568.04 L1166.31 1568.04 L1166.31 1532.4 L1172.2 1532.4 L1172.2 1537.93 Q1174.2 1534.66 1177 1533.1 Q1179.8 1531.54 1183.65 1531.54 Q1187.54 1531.54 1190.24 1533.51 Q1192.98 1535.48 1194.28 1539.24 Z" fill="#000000" fill-rule="nonzero" fill-opacity="1" /><path clip-path="url(#clip280)" d="M1260.52 1548.76 L1260.52 1551.62 L1233.59 1551.62 Q1233.97 1557.67 1237.22 1560.85 Q1240.5 1564 1246.32 1564 Q1249.7 1564 1252.85 1563.17 Q1256.03 1562.35 1259.15 1560.69 L1259.15 1566.23 Q1256 1567.57 1252.69 1568.27 Q1249.38 1568.97 1245.97 1568.97 Q1237.44 1568.97 1232.45 1564 Q1227.48 1559.04 1227.48 1550.57 Q1227.48 1541.82 1232.19 1536.69 Q1236.93 1531.54 1244.96 1531.54 Q1252.15 1531.54 1256.32 1536.18 Q1260.52 1540.8 1260.52 1548.76 M1254.66 1547.04 Q1254.6 1542.23 1251.96 1539.37 Q1249.35 1536.5 1245.02 1536.5 Q1240.12 1536.5 1237.16 1539.27 Q1234.23 1542.04 1233.78 1547.07 L1254.66 1547.04 Z" fill="#000000" fill-rule="nonzero" fill-opacity="1" /><path clip-path="url(#clip280)" d="M1304.92 1518.58 Q1300.66 1525.9 1298.59 1533.06 Q1296.52 1540.23 1296.52 1547.58 Q1296.52 1554.93 1298.59 1562.16 Q1300.69 1569.35 1304.92 1576.64 L1299.83 1576.64 Q1295.05 1569.16 1292.67 1561.93 Q1290.31 1554.71 1290.31 1547.58 Q1290.31 1540.48 1292.67 1533.29 Q1295.02 1526.09 1299.83 1518.58 L1304.92 1518.58 Z" fill="#000000" fill-rule="nonzero" fill-opacity="1" /><path clip-path="url(#clip280)" d="M1339.74 1537.81 L1339.74 1518.52 L1345.6 1518.52 L1345.6 1568.04 L1339.74 1568.04 L1339.74 1562.7 Q1337.9 1565.88 1335.06 1567.44 Q1332.26 1568.97 1328.31 1568.97 Q1321.85 1568.97 1317.78 1563.81 Q1313.74 1558.65 1313.74 1550.25 Q1313.74 1541.85 1317.78 1536.69 Q1321.85 1531.54 1328.31 1531.54 Q1332.26 1531.54 1335.06 1533.1 Q1337.9 1534.62 1339.74 1537.81 M1319.78 1550.25 Q1319.78 1556.71 1322.43 1560.4 Q1325.1 1564.07 1329.75 1564.07 Q1334.39 1564.07 1337.07 1560.4 Q1339.74 1556.71 1339.74 1550.25 Q1339.74 1543.79 1337.07 1540.13 Q1334.39 1536.44 1329.75 1536.44 Q1325.1 1536.44 1322.43 1540.13 Q1319.78 1543.79 1319.78 1550.25 Z" fill="#000000" fill-rule="nonzero" fill-opacity="1" /><path clip-path="url(#clip280)" d="M1373.86 1550.12 Q1366.76 1550.12 1364.03 1551.75 Q1361.29 1553.37 1361.29 1557.29 Q1361.29 1560.4 1363.33 1562.25 Q1365.39 1564.07 1368.93 1564.07 Q1373.8 1564.07 1376.73 1560.63 Q1379.69 1557.16 1379.69 1551.43 L1379.69 1550.12 L1373.86 1550.12 M1385.54 1547.71 L1385.54 1568.04 L1379.69 1568.04 L1379.69 1562.63 Q1377.68 1565.88 1374.69 1567.44 Q1371.7 1568.97 1367.37 1568.97 Q1361.89 1568.97 1358.65 1565.91 Q1355.43 1562.82 1355.43 1557.67 Q1355.43 1551.65 1359.44 1548.6 Q1363.49 1545.54 1371.47 1545.54 L1379.69 1545.54 L1379.69 1544.97 Q1379.69 1540.93 1377.01 1538.73 Q1374.37 1536.5 1369.56 1536.5 Q1366.51 1536.5 1363.61 1537.23 Q1360.72 1537.97 1358.04 1539.43 L1358.04 1534.02 Q1361.26 1532.78 1364.28 1532.17 Q1367.3 1531.54 1370.17 1531.54 Q1377.9 1531.54 1381.72 1535.55 Q1385.54 1539.56 1385.54 1547.71 Z" fill="#000000" fill-rule="nonzero" fill-opacity="1" /><path clip-path="url(#clip280)" d="M1412.44 1571.35 Q1409.95 1577.72 1407.6 1579.66 Q1405.24 1581.6 1401.3 1581.6 L1396.62 1581.6 L1396.62 1576.7 L1400.06 1576.7 Q1402.48 1576.7 1403.81 1575.56 Q1405.15 1574.41 1406.77 1570.14 L1407.82 1567.47 L1393.4 1532.4 L1399.61 1532.4 L1410.75 1560.28 L1421.89 1532.4 L1428.1 1532.4 L1412.44 1571.35 Z" fill="#000000" fill-rule="nonzero" fill-opacity="1" /><path clip-path="url(#clip280)" d="M1458.91 1533.45 L1458.91 1538.98 Q1456.42 1537.71 1453.75 1537.07 Q1451.08 1536.44 1448.21 1536.44 Q1443.85 1536.44 1441.66 1537.77 Q1439.49 1539.11 1439.49 1541.79 Q1439.49 1543.82 1441.05 1545 Q1442.61 1546.15 1447.32 1547.2 L1449.33 1547.64 Q1455.57 1548.98 1458.18 1551.43 Q1460.82 1553.85 1460.82 1558.21 Q1460.82 1563.17 1456.87 1566.07 Q1452.96 1568.97 1446.08 1568.97 Q1443.22 1568.97 1440.1 1568.39 Q1437.01 1567.85 1433.57 1566.74 L1433.57 1560.69 Q1436.82 1562.38 1439.97 1563.24 Q1443.12 1564.07 1446.21 1564.07 Q1450.35 1564.07 1452.57 1562.66 Q1454.8 1561.23 1454.8 1558.65 Q1454.8 1556.27 1453.18 1554.99 Q1451.59 1553.72 1446.14 1552.54 L1444.11 1552.07 Q1438.66 1550.92 1436.25 1548.56 Q1433.83 1546.18 1433.83 1542.04 Q1433.83 1537.01 1437.39 1534.27 Q1440.96 1531.54 1447.51 1531.54 Q1450.76 1531.54 1453.62 1532.01 Q1456.49 1532.49 1458.91 1533.45 Z" fill="#000000" fill-rule="nonzero" fill-opacity="1" /><path clip-path="url(#clip280)" d="M1469.22 1518.58 L1474.31 1518.58 Q1479.09 1526.09 1481.44 1533.29 Q1483.83 1540.48 1483.83 1547.58 Q1483.83 1554.71 1481.44 1561.93 Q1479.09 1569.16 1474.31 1576.64 L1469.22 1576.64 Q1473.45 1569.35 1475.52 1562.16 Q1477.62 1554.93 1477.62 1547.58 Q1477.62 1540.23 1475.52 1533.06 Q1473.45 1525.9 1469.22 1518.58 Z" fill="#000000" fill-rule="nonzero" fill-opacity="1" /><polyline clip-path="url(#clip282)" style="stroke:#ffffff; stroke-linecap:round; stroke-linejoin:round; stroke-width:4; stroke-opacity:1; fill:none" points="249.542,1385.91 2352.76,1385.91 "/>
<polyline clip-path="url(#clip282)" style="stroke:#ffffff; stroke-linecap:round; stroke-linejoin:round; stroke-width:4; stroke-opacity:1; fill:none" points="249.542,1075.3 2352.76,1075.3 "/>
<polyline clip-path="url(#clip282)" style="stroke:#ffffff; stroke-linecap:round; stroke-linejoin:round; stroke-width:4; stroke-opacity:1; fill:none" points="249.542,764.686 2352.76,764.686 "/>
<polyline clip-path="url(#clip282)" style="stroke:#ffffff; stroke-linecap:round; stroke-linejoin:round; stroke-width:4; stroke-opacity:1; fill:none" points="249.542,454.076 2352.76,454.076 "/>
<polyline clip-path="url(#clip282)" style="stroke:#ffffff; stroke-linecap:round; stroke-linejoin:round; stroke-width:4; stroke-opacity:1; fill:none" points="249.542,143.465 2352.76,143.465 "/>
<polyline clip-path="url(#clip282)" style="stroke:#ffffff; stroke-linecap:round; stroke-linejoin:round; stroke-width:2; stroke-opacity:1; fill:none" points="249.542,1230.6 2352.76,1230.6 "/>
<polyline clip-path="url(#clip282)" style="stroke:#ffffff; stroke-linecap:round; stroke-linejoin:round; stroke-width:2; stroke-opacity:1; fill:none" points="249.542,919.991 2352.76,919.991 "/>
<polyline clip-path="url(#clip282)" style="stroke:#ffffff; stroke-linecap:round; stroke-linejoin:round; stroke-width:2; stroke-opacity:1; fill:none" points="249.542,609.381 2352.76,609.381 "/>
<polyline clip-path="url(#clip282)" style="stroke:#ffffff; stroke-linecap:round; stroke-linejoin:round; stroke-width:2; stroke-opacity:1; fill:none" points="249.542,298.771 2352.76,298.771 "/>
<polyline clip-path="url(#clip280)" style="stroke:#ffffff; stroke-linecap:round; stroke-linejoin:round; stroke-width:4; stroke-opacity:1; fill:none" points="249.542,1423.18 249.542,106.192 "/>
<polyline clip-path="url(#clip280)" style="stroke:#333333; stroke-linecap:round; stroke-linejoin:round; stroke-width:4; stroke-opacity:1; fill:none" points="249.542,1385.91 230.644,1385.91 "/>
<polyline clip-path="url(#clip280)" style="stroke:#333333; stroke-linecap:round; stroke-linejoin:round; stroke-width:4; stroke-opacity:1; fill:none" points="249.542,1075.3 230.644,1075.3 "/>
<polyline clip-path="url(#clip280)" style="stroke:#333333; stroke-linecap:round; stroke-linejoin:round; stroke-width:4; stroke-opacity:1; fill:none" points="249.542,764.686 230.644,764.686 "/>
<polyline clip-path="url(#clip280)" style="stroke:#333333; stroke-linecap:round; stroke-linejoin:round; stroke-width:4; stroke-opacity:1; fill:none" points="249.542,454.076 230.644,454.076 "/>
<polyline clip-path="url(#clip280)" style="stroke:#333333; stroke-linecap:round; stroke-linejoin:round; stroke-width:4; stroke-opacity:1; fill:none" points="249.542,143.465 230.644,143.465 "/>
<polyline clip-path="url(#clip280)" style="stroke:#333333; stroke-linecap:round; stroke-linejoin:round; stroke-width:4; stroke-opacity:1; fill:none" points="249.542,1230.6 240.093,1230.6 "/>
<polyline clip-path="url(#clip280)" style="stroke:#333333; stroke-linecap:round; stroke-linejoin:round; stroke-width:4; stroke-opacity:1; fill:none" points="249.542,919.991 240.093,919.991 "/>
<polyline clip-path="url(#clip280)" style="stroke:#333333; stroke-linecap:round; stroke-linejoin:round; stroke-width:4; stroke-opacity:1; fill:none" points="249.542,609.381 240.093,609.381 "/>
<polyline clip-path="url(#clip280)" style="stroke:#333333; stroke-linecap:round; stroke-linejoin:round; stroke-width:4; stroke-opacity:1; fill:none" points="249.542,298.771 240.093,298.771 "/>
<path clip-path="url(#clip280)" d="M108.205 1371.71 Q104.593 1371.71 102.765 1375.27 Q100.959 1378.81 100.959 1385.94 Q100.959 1393.05 102.765 1396.61 Q104.593 1400.15 108.205 1400.15 Q111.839 1400.15 113.644 1396.61 Q115.473 1393.05 115.473 1385.94 Q115.473 1378.81 113.644 1375.27 Q111.839 1371.71 108.205 1371.71 M108.205 1368 Q114.015 1368 117.07 1372.61 Q120.149 1377.19 120.149 1385.94 Q120.149 1394.67 117.07 1399.27 Q114.015 1403.86 108.205 1403.86 Q102.394 1403.86 99.3157 1399.27 Q96.2602 1394.67 96.2602 1385.94 Q96.2602 1377.19 99.3157 1372.61 Q102.394 1368 108.205 1368 Z" fill="#4c4c4c" fill-rule="nonzero" fill-opacity="1" /><path clip-path="url(#clip280)" d="M128.366 1397.31 L133.251 1397.31 L133.251 1403.19 L128.366 1403.19 L128.366 1397.31 Z" fill="#4c4c4c" fill-rule="nonzero" fill-opacity="1" /><path clip-path="url(#clip280)" d="M153.436 1371.71 Q149.825 1371.71 147.996 1375.27 Q146.19 1378.81 146.19 1385.94 Q146.19 1393.05 147.996 1396.61 Q149.825 1400.15 153.436 1400.15 Q157.07 1400.15 158.876 1396.61 Q160.704 1393.05 160.704 1385.94 Q160.704 1378.81 158.876 1375.27 Q157.07 1371.71 153.436 1371.71 M153.436 1368 Q159.246 1368 162.301 1372.61 Q165.38 1377.19 165.38 1385.94 Q165.38 1394.67 162.301 1399.27 Q159.246 1403.86 153.436 1403.86 Q147.626 1403.86 144.547 1399.27 Q141.491 1394.67 141.491 1385.94 Q141.491 1377.19 144.547 1372.61 Q147.626 1368 153.436 1368 Z" fill="#4c4c4c" fill-rule="nonzero" fill-opacity="1" /><path clip-path="url(#clip280)" d="M183.598 1371.71 Q179.987 1371.71 178.158 1375.27 Q176.352 1378.81 176.352 1385.94 Q176.352 1393.05 178.158 1396.61 Q179.987 1400.15 183.598 1400.15 Q187.232 1400.15 189.037 1396.61 Q190.866 1393.05 190.866 1385.94 Q190.866 1378.81 189.037 1375.27 Q187.232 1371.71 183.598 1371.71 M183.598 1368 Q189.408 1368 192.463 1372.61 Q195.542 1377.19 195.542 1385.94 Q195.542 1394.67 192.463 1399.27 Q189.408 1403.86 183.598 1403.86 Q177.787 1403.86 174.709 1399.27 Q171.653 1394.67 171.653 1385.94 Q171.653 1377.19 174.709 1372.61 Q177.787 1368 183.598 1368 Z" fill="#4c4c4c" fill-rule="nonzero" fill-opacity="1" /><path clip-path="url(#clip280)" d="M109.2 1061.09 Q105.589 1061.09 103.76 1064.66 Q101.955 1068.2 101.955 1075.33 Q101.955 1082.44 103.76 1086 Q105.589 1089.54 109.2 1089.54 Q112.834 1089.54 114.64 1086 Q116.468 1082.44 116.468 1075.33 Q116.468 1068.2 114.64 1064.66 Q112.834 1061.09 109.2 1061.09 M109.2 1057.39 Q115.01 1057.39 118.066 1062 Q121.144 1066.58 121.144 1075.33 Q121.144 1084.06 118.066 1088.66 Q115.01 1093.25 109.2 1093.25 Q103.39 1093.25 100.311 1088.66 Q97.2555 1084.06 97.2555 1075.33 Q97.2555 1066.58 100.311 1062 Q103.39 1057.39 109.2 1057.39 Z" fill="#4c4c4c" fill-rule="nonzero" fill-opacity="1" /><path clip-path="url(#clip280)" d="M129.362 1086.7 L134.246 1086.7 L134.246 1092.58 L129.362 1092.58 L129.362 1086.7 Z" fill="#4c4c4c" fill-rule="nonzero" fill-opacity="1" /><path clip-path="url(#clip280)" d="M148.459 1088.64 L164.778 1088.64 L164.778 1092.58 L142.834 1092.58 L142.834 1088.64 Q145.496 1085.89 150.079 1081.26 Q154.686 1076.6 155.866 1075.26 Q158.112 1072.74 158.991 1071 Q159.894 1069.24 159.894 1067.55 Q159.894 1064.8 157.95 1063.06 Q156.028 1061.33 152.927 1061.33 Q150.727 1061.33 148.274 1062.09 Q145.843 1062.85 143.065 1064.41 L143.065 1059.68 Q145.89 1058.55 148.343 1057.97 Q150.797 1057.39 152.834 1057.39 Q158.204 1057.39 161.399 1060.08 Q164.593 1062.76 164.593 1067.25 Q164.593 1069.38 163.783 1071.3 Q162.996 1073.2 160.889 1075.79 Q160.311 1076.47 157.209 1079.68 Q154.107 1082.88 148.459 1088.64 Z" fill="#4c4c4c" fill-rule="nonzero" fill-opacity="1" /><path clip-path="url(#clip280)" d="M174.639 1058.02 L192.996 1058.02 L192.996 1061.95 L178.922 1061.95 L178.922 1070.42 Q179.94 1070.08 180.959 1069.91 Q181.977 1069.73 182.996 1069.73 Q188.783 1069.73 192.162 1072.9 Q195.542 1076.07 195.542 1081.49 Q195.542 1087.07 192.07 1090.17 Q188.598 1093.25 182.278 1093.25 Q180.102 1093.25 177.834 1092.88 Q175.588 1092.51 173.181 1091.77 L173.181 1087.07 Q175.264 1088.2 177.487 1088.76 Q179.709 1089.31 182.186 1089.31 Q186.19 1089.31 188.528 1087.21 Q190.866 1085.1 190.866 1081.49 Q190.866 1077.88 188.528 1075.77 Q186.19 1073.66 182.186 1073.66 Q180.311 1073.66 178.436 1074.08 Q176.584 1074.5 174.639 1075.38 L174.639 1058.02 Z" fill="#4c4c4c" fill-rule="nonzero" fill-opacity="1" /><path clip-path="url(#clip280)" d="M108.205 750.485 Q104.593 750.485 102.765 754.049 Q100.959 757.591 100.959 764.721 Q100.959 771.827 102.765 775.392 Q104.593 778.934 108.205 778.934 Q111.839 778.934 113.644 775.392 Q115.473 771.827 115.473 764.721 Q115.473 757.591 113.644 754.049 Q111.839 750.485 108.205 750.485 M108.205 746.781 Q114.015 746.781 117.07 751.387 Q120.149 755.971 120.149 764.721 Q120.149 773.448 117.07 778.054 Q114.015 782.637 108.205 782.637 Q102.394 782.637 99.3157 778.054 Q96.2602 773.448 96.2602 764.721 Q96.2602 755.971 99.3157 751.387 Q102.394 746.781 108.205 746.781 Z" fill="#4c4c4c" fill-rule="nonzero" fill-opacity="1" /><path clip-path="url(#clip280)" d="M128.366 776.086 L133.251 776.086 L133.251 781.966 L128.366 781.966 L128.366 776.086 Z" fill="#4c4c4c" fill-rule="nonzero" fill-opacity="1" /><path clip-path="url(#clip280)" d="M143.482 747.406 L161.839 747.406 L161.839 751.341 L147.765 751.341 L147.765 759.813 Q148.783 759.466 149.802 759.304 Q150.82 759.119 151.839 759.119 Q157.626 759.119 161.005 762.29 Q164.385 765.461 164.385 770.878 Q164.385 776.457 160.913 779.559 Q157.44 782.637 151.121 782.637 Q148.945 782.637 146.677 782.267 Q144.431 781.897 142.024 781.156 L142.024 776.457 Q144.107 777.591 146.329 778.147 Q148.552 778.702 151.028 778.702 Q155.033 778.702 157.371 776.596 Q159.709 774.489 159.709 770.878 Q159.709 767.267 157.371 765.161 Q155.033 763.054 151.028 763.054 Q149.153 763.054 147.278 763.471 Q145.427 763.887 143.482 764.767 L143.482 747.406 Z" fill="#4c4c4c" fill-rule="nonzero" fill-opacity="1" /><path clip-path="url(#clip280)" d="M183.598 750.485 Q179.987 750.485 178.158 754.049 Q176.352 757.591 176.352 764.721 Q176.352 771.827 178.158 775.392 Q179.987 778.934 183.598 778.934 Q187.232 778.934 189.037 775.392 Q190.866 771.827 190.866 764.721 Q190.866 757.591 189.037 754.049 Q187.232 750.485 183.598 750.485 M183.598 746.781 Q189.408 746.781 192.463 751.387 Q195.542 755.971 195.542 764.721 Q195.542 773.448 192.463 778.054 Q189.408 782.637 183.598 782.637 Q177.787 782.637 174.709 778.054 Q171.653 773.448 171.653 764.721 Q171.653 755.971 174.709 751.387 Q177.787 746.781 183.598 746.781 Z" fill="#4c4c4c" fill-rule="nonzero" fill-opacity="1" /><path clip-path="url(#clip280)" d="M109.2 439.874 Q105.589 439.874 103.76 443.439 Q101.955 446.981 101.955 454.11 Q101.955 461.217 103.76 464.782 Q105.589 468.323 109.2 468.323 Q112.834 468.323 114.64 464.782 Q116.468 461.217 116.468 454.11 Q116.468 446.981 114.64 443.439 Q112.834 439.874 109.2 439.874 M109.2 436.171 Q115.01 436.171 118.066 440.777 Q121.144 445.36 121.144 454.11 Q121.144 462.837 118.066 467.444 Q115.01 472.027 109.2 472.027 Q103.39 472.027 100.311 467.444 Q97.2555 462.837 97.2555 454.11 Q97.2555 445.36 100.311 440.777 Q103.39 436.171 109.2 436.171 Z" fill="#4c4c4c" fill-rule="nonzero" fill-opacity="1" /><path clip-path="url(#clip280)" d="M129.362 465.476 L134.246 465.476 L134.246 471.356 L129.362 471.356 L129.362 465.476 Z" fill="#4c4c4c" fill-rule="nonzero" fill-opacity="1" /><path clip-path="url(#clip280)" d="M143.251 436.796 L165.473 436.796 L165.473 438.786 L152.927 471.356 L148.042 471.356 L159.848 440.731 L143.251 440.731 L143.251 436.796 Z" fill="#4c4c4c" fill-rule="nonzero" fill-opacity="1" /><path clip-path="url(#clip280)" d="M174.639 436.796 L192.996 436.796 L192.996 440.731 L178.922 440.731 L178.922 449.203 Q179.94 448.856 180.959 448.694 Q181.977 448.509 182.996 448.509 Q188.783 448.509 192.162 451.68 Q195.542 454.851 195.542 460.268 Q195.542 465.846 192.07 468.948 Q188.598 472.027 182.278 472.027 Q180.102 472.027 177.834 471.657 Q175.588 471.286 173.181 470.545 L173.181 465.846 Q175.264 466.981 177.487 467.536 Q179.709 468.092 182.186 468.092 Q186.19 468.092 188.528 465.985 Q190.866 463.879 190.866 460.268 Q190.866 456.657 188.528 454.55 Q186.19 452.444 182.186 452.444 Q180.311 452.444 178.436 452.86 Q176.584 453.277 174.639 454.157 L174.639 436.796 Z" fill="#4c4c4c" fill-rule="nonzero" fill-opacity="1" /><path clip-path="url(#clip280)" d="M99.0148 156.81 L106.654 156.81 L106.654 130.445 L98.3435 132.111 L98.3435 127.852 L106.607 126.185 L111.283 126.185 L111.283 156.81 L118.922 156.81 L118.922 160.745 L99.0148 160.745 L99.0148 156.81 Z" fill="#4c4c4c" fill-rule="nonzero" fill-opacity="1" /><path clip-path="url(#clip280)" d="M128.366 154.866 L133.251 154.866 L133.251 160.745 L128.366 160.745 L128.366 154.866 Z" fill="#4c4c4c" fill-rule="nonzero" fill-opacity="1" /><path clip-path="url(#clip280)" d="M153.436 129.264 Q149.825 129.264 147.996 132.829 Q146.19 136.37 146.19 143.5 Q146.19 150.607 147.996 154.171 Q149.825 157.713 153.436 157.713 Q157.07 157.713 158.876 154.171 Q160.704 150.607 160.704 143.5 Q160.704 136.37 158.876 132.829 Q157.07 129.264 153.436 129.264 M153.436 125.56 Q159.246 125.56 162.301 130.167 Q165.38 134.75 165.38 143.5 Q165.38 152.227 162.301 156.833 Q159.246 161.417 153.436 161.417 Q147.626 161.417 144.547 156.833 Q141.491 152.227 141.491 143.5 Q141.491 134.75 144.547 130.167 Q147.626 125.56 153.436 125.56 Z" fill="#4c4c4c" fill-rule="nonzero" fill-opacity="1" /><path clip-path="url(#clip280)" d="M183.598 129.264 Q179.987 129.264 178.158 132.829 Q176.352 136.37 176.352 143.5 Q176.352 150.607 178.158 154.171 Q179.987 157.713 183.598 157.713 Q187.232 157.713 189.037 154.171 Q190.866 150.607 190.866 143.5 Q190.866 136.37 189.037 132.829 Q187.232 129.264 183.598 129.264 M183.598 125.56 Q189.408 125.56 192.463 130.167 Q195.542 134.75 195.542 143.5 Q195.542 152.227 192.463 156.833 Q189.408 161.417 183.598 161.417 Q177.787 161.417 174.709 156.833 Q171.653 152.227 171.653 143.5 Q171.653 134.75 174.709 130.167 Q177.787 125.56 183.598 125.56 Z" fill="#4c4c4c" fill-rule="nonzero" fill-opacity="1" /><path clip-path="url(#clip280)" d="M58.657 1062.06 L77.5631 1062.06 L77.5631 1067.95 L28.3562 1067.95 L28.3562 1062.06 L33.7671 1062.06 Q30.5842 1060.21 29.0564 1057.41 Q27.4968 1054.58 27.4968 1050.67 Q27.4968 1044.17 32.6531 1040.13 Q37.8093 1036.06 46.212 1036.06 Q54.6147 1036.06 59.771 1040.13 Q64.9272 1044.17 64.9272 1050.67 Q64.9272 1054.58 63.3994 1057.41 Q61.8398 1060.21 58.657 1062.06 M46.212 1042.14 Q39.7508 1042.14 36.0905 1044.81 Q32.3984 1047.45 32.3984 1052.1 Q32.3984 1056.74 36.0905 1059.42 Q39.7508 1062.06 46.212 1062.06 Q52.6732 1062.06 56.3653 1059.42 Q60.0256 1056.74 60.0256 1052.1 Q60.0256 1047.45 56.3653 1044.81 Q52.6732 1042.14 46.212 1042.14 Z" fill="#000000" fill-rule="nonzero" fill-opacity="1" /><path clip-path="url(#clip280)" d="M32.4621 1012.53 Q32.4621 1017.25 36.1542 1019.98 Q39.8145 1022.72 46.212 1022.72 Q52.6095 1022.72 56.3017 1020.01 Q59.9619 1017.28 59.9619 1012.53 Q59.9619 1007.86 56.2698 1005.12 Q52.5777 1002.38 46.212 1002.38 Q39.8781 1002.38 36.186 1005.12 Q32.4621 1007.86 32.4621 1012.53 M27.4968 1012.53 Q27.4968 1004.9 32.4621 1000.54 Q37.4273 996.175 46.212 996.175 Q54.9649 996.175 59.9619 1000.54 Q64.9272 1004.9 64.9272 1012.53 Q64.9272 1020.21 59.9619 1024.57 Q54.9649 1028.89 46.212 1028.89 Q37.4273 1028.89 32.4621 1024.57 Q27.4968 1020.21 27.4968 1012.53 Z" fill="#000000" fill-rule="nonzero" fill-opacity="1" /><path clip-path="url(#clip280)" d="M58.657 980.802 L77.5631 980.802 L77.5631 986.69 L28.3562 986.69 L28.3562 980.802 L33.7671 980.802 Q30.5842 978.956 29.0564 976.155 Q27.4968 973.322 27.4968 969.407 Q27.4968 962.914 32.6531 958.872 Q37.8093 954.798 46.212 954.798 Q54.6147 954.798 59.771 958.872 Q64.9272 962.914 64.9272 969.407 Q64.9272 973.322 63.3994 976.155 Q61.8398 978.956 58.657 980.802 M46.212 960.877 Q39.7508 960.877 36.0905 963.551 Q32.3984 966.192 32.3984 970.839 Q32.3984 975.486 36.0905 978.16 Q39.7508 980.802 46.212 980.802 Q52.6732 980.802 56.3653 978.16 Q60.0256 975.486 60.0256 970.839 Q60.0256 966.192 56.3653 963.551 Q52.6732 960.877 46.212 960.877 Z" fill="#000000" fill-rule="nonzero" fill-opacity="1" /><path clip-path="url(#clip280)" d="M49.9359 945.695 L28.3562 945.695 L28.3562 939.838 L49.7131 939.838 Q54.7739 939.838 57.3202 937.865 Q59.8346 935.892 59.8346 931.945 Q59.8346 927.202 56.8109 924.465 Q53.7872 921.696 48.5673 921.696 L28.3562 921.696 L28.3562 915.84 L64.0042 915.84 L64.0042 921.696 L58.5296 921.696 Q61.7762 923.829 63.3676 926.661 Q64.9272 929.462 64.9272 933.186 Q64.9272 939.329 61.1078 942.512 Q57.2883 945.695 49.9359 945.695 M27.4968 930.958 L27.4968 930.958 Z" fill="#000000" fill-rule="nonzero" fill-opacity="1" /><path clip-path="url(#clip280)" d="M14.479 903.777 L14.479 897.92 L64.0042 897.92 L64.0042 903.777 L14.479 903.777 Z" fill="#000000" fill-rule="nonzero" fill-opacity="1" /><path clip-path="url(#clip280)" d="M46.0847 869.466 Q46.0847 876.563 47.7079 879.301 Q49.3312 882.038 53.2461 882.038 Q56.3653 882.038 58.2114 880.001 Q60.0256 877.932 60.0256 874.399 Q60.0256 869.529 56.5881 866.601 Q53.1188 863.641 47.3897 863.641 L46.0847 863.641 L46.0847 869.466 M43.6657 857.784 L64.0042 857.784 L64.0042 863.641 L58.5933 863.641 Q61.8398 865.646 63.3994 868.638 Q64.9272 871.63 64.9272 875.959 Q64.9272 881.433 61.8716 884.68 Q58.7843 887.894 53.6281 887.894 Q47.6125 887.894 44.5569 883.884 Q41.5014 879.842 41.5014 871.853 L41.5014 863.641 L40.9285 863.641 Q36.8862 863.641 34.6901 866.314 Q32.4621 868.956 32.4621 873.762 Q32.4621 876.818 33.1941 879.714 Q33.9262 882.611 35.3903 885.284 L29.9795 885.284 Q28.7381 882.07 28.1334 879.046 Q27.4968 876.022 27.4968 873.158 Q27.4968 865.423 31.5072 861.604 Q35.5176 857.784 43.6657 857.784 Z" fill="#000000" fill-rule="nonzero" fill-opacity="1" /><path clip-path="url(#clip280)" d="M18.2347 839.929 L28.3562 839.929 L28.3562 827.866 L32.9077 827.866 L32.9077 839.929 L52.2594 839.929 Q56.6199 839.929 57.8613 838.751 Q59.1026 837.541 59.1026 833.881 L59.1026 827.866 L64.0042 827.866 L64.0042 833.881 Q64.0042 840.661 61.4897 843.239 Q58.9434 845.817 52.2594 845.817 L32.9077 845.817 L32.9077 850.114 L28.3562 850.114 L28.3562 845.817 L18.2347 845.817 L18.2347 839.929 Z" fill="#000000" fill-rule="nonzero" fill-opacity="1" /><path clip-path="url(#clip280)" d="M28.3562 820.163 L28.3562 814.307 L64.0042 814.307 L64.0042 820.163 L28.3562 820.163 M14.479 820.163 L14.479 814.307 L21.895 814.307 L21.895 820.163 L14.479 820.163 Z" fill="#000000" fill-rule="nonzero" fill-opacity="1" /><path clip-path="url(#clip280)" d="M32.4621 788.239 Q32.4621 792.95 36.1542 795.687 Q39.8145 798.424 46.212 798.424 Q52.6095 798.424 56.3017 795.719 Q59.9619 792.982 59.9619 788.239 Q59.9619 783.56 56.2698 780.823 Q52.5777 778.086 46.212 778.086 Q39.8781 778.086 36.186 780.823 Q32.4621 783.56 32.4621 788.239 M27.4968 788.239 Q27.4968 780.6 32.4621 776.24 Q37.4273 771.879 46.212 771.879 Q54.9649 771.879 59.9619 776.24 Q64.9272 780.6 64.9272 788.239 Q64.9272 795.91 59.9619 800.27 Q54.9649 804.599 46.212 804.599 Q37.4273 804.599 32.4621 800.27 Q27.4968 795.91 27.4968 788.239 Z" fill="#000000" fill-rule="nonzero" fill-opacity="1" /><path clip-path="url(#clip280)" d="M42.4881 732.539 L64.0042 732.539 L64.0042 738.396 L42.679 738.396 Q37.6183 738.396 35.1038 740.369 Q32.5894 742.342 32.5894 746.289 Q32.5894 751.032 35.6131 753.769 Q38.6368 756.506 43.8567 756.506 L64.0042 756.506 L64.0042 762.394 L28.3562 762.394 L28.3562 756.506 L33.8944 756.506 Q30.6797 754.405 29.0883 751.573 Q27.4968 748.708 27.4968 744.984 Q27.4968 738.841 31.3163 735.69 Q35.1038 732.539 42.4881 732.539 Z" fill="#000000" fill-rule="nonzero" fill-opacity="1" /><path clip-path="url(#clip280)" d="M14.479 682.091 L19.3487 682.091 L19.3487 687.693 Q19.3487 690.844 20.6219 692.085 Q21.895 693.295 25.2052 693.295 L28.3562 693.295 L28.3562 683.651 L32.9077 683.651 L32.9077 693.295 L64.0042 693.295 L64.0042 699.183 L32.9077 699.183 L32.9077 704.785 L28.3562 704.785 L28.3562 699.183 L25.8736 699.183 Q19.9216 699.183 17.2162 696.414 Q14.479 693.645 14.479 687.629 L14.479 682.091 Z" fill="#000000" fill-rule="nonzero" fill-opacity="1" /><path clip-path="url(#clip280)" d="M33.8307 656.533 Q33.2578 657.519 33.0032 658.697 Q32.7167 659.843 32.7167 661.243 Q32.7167 666.209 35.9632 668.882 Q39.1779 671.524 45.2253 671.524 L64.0042 671.524 L64.0042 677.412 L28.3562 677.412 L28.3562 671.524 L33.8944 671.524 Q30.6479 669.678 29.0883 666.718 Q27.4968 663.758 27.4968 659.525 Q27.4968 658.92 27.5923 658.188 Q27.656 657.456 27.8151 656.564 L33.8307 656.533 Z" fill="#000000" fill-rule="nonzero" fill-opacity="1" /><path clip-path="url(#clip280)" d="M46.0847 634.189 Q46.0847 641.287 47.7079 644.024 Q49.3312 646.761 53.2461 646.761 Q56.3653 646.761 58.2114 644.724 Q60.0256 642.655 60.0256 639.122 Q60.0256 634.253 56.5881 631.324 Q53.1188 628.364 47.3897 628.364 L46.0847 628.364 L46.0847 634.189 M43.6657 622.508 L64.0042 622.508 L64.0042 628.364 L58.5933 628.364 Q61.8398 630.37 63.3994 633.361 Q64.9272 636.353 64.9272 640.682 Q64.9272 646.157 61.8716 649.403 Q58.7843 652.618 53.6281 652.618 Q47.6125 652.618 44.5569 648.607 Q41.5014 644.565 41.5014 636.576 L41.5014 628.364 L40.9285 628.364 Q36.8862 628.364 34.6901 631.038 Q32.4621 633.68 32.4621 638.486 Q32.4621 641.541 33.1941 644.438 Q33.9262 647.334 35.3903 650.008 L29.9795 650.008 Q28.7381 646.793 28.1334 643.769 Q27.4968 640.746 27.4968 637.881 Q27.4968 630.147 31.5072 626.327 Q35.5176 622.508 43.6657 622.508 Z" fill="#000000" fill-rule="nonzero" fill-opacity="1" /><path clip-path="url(#clip280)" d="M29.7248 584.791 L35.1993 584.791 Q33.8307 587.274 33.1623 589.788 Q32.4621 592.271 32.4621 594.817 Q32.4621 600.514 36.0905 603.665 Q39.6872 606.816 46.212 606.816 Q52.7369 606.816 56.3653 603.665 Q59.9619 600.514 59.9619 594.817 Q59.9619 592.271 59.2935 589.788 Q58.5933 587.274 57.2247 584.791 L62.6355 584.791 Q63.7814 587.242 64.3543 589.884 Q64.9272 592.494 64.9272 595.454 Q64.9272 603.506 59.8664 608.249 Q54.8057 612.991 46.212 612.991 Q37.491 612.991 32.4939 608.217 Q27.4968 603.411 27.4968 595.072 Q27.4968 592.366 28.0697 589.788 Q28.6108 587.21 29.7248 584.791 Z" fill="#000000" fill-rule="nonzero" fill-opacity="1" /><path clip-path="url(#clip280)" d="M18.2347 568.813 L28.3562 568.813 L28.3562 556.75 L32.9077 556.75 L32.9077 568.813 L52.2594 568.813 Q56.6199 568.813 57.8613 567.636 Q59.1026 566.426 59.1026 562.766 L59.1026 556.75 L64.0042 556.75 L64.0042 562.766 Q64.0042 569.545 61.4897 572.123 Q58.9434 574.701 52.2594 574.701 L32.9077 574.701 L32.9077 578.998 L28.3562 578.998 L28.3562 574.701 L18.2347 574.701 L18.2347 568.813 Z" fill="#000000" fill-rule="nonzero" fill-opacity="1" /><path clip-path="url(#clip280)" d="M28.3562 549.048 L28.3562 543.191 L64.0042 543.191 L64.0042 549.048 L28.3562 549.048 M14.479 549.048 L14.479 543.191 L21.895 543.191 L21.895 549.048 L14.479 549.048 Z" fill="#000000" fill-rule="nonzero" fill-opacity="1" /><path clip-path="url(#clip280)" d="M32.4621 517.124 Q32.4621 521.834 36.1542 524.572 Q39.8145 527.309 46.212 527.309 Q52.6095 527.309 56.3017 524.603 Q59.9619 521.866 59.9619 517.124 Q59.9619 512.445 56.2698 509.708 Q52.5777 506.97 46.212 506.97 Q39.8781 506.97 36.186 509.708 Q32.4621 512.445 32.4621 517.124 M27.4968 517.124 Q27.4968 509.485 32.4621 505.124 Q37.4273 500.764 46.212 500.764 Q54.9649 500.764 59.9619 505.124 Q64.9272 509.485 64.9272 517.124 Q64.9272 524.794 59.9619 529.155 Q54.9649 533.484 46.212 533.484 Q37.4273 533.484 32.4621 529.155 Q27.4968 524.794 27.4968 517.124 Z" fill="#000000" fill-rule="nonzero" fill-opacity="1" /><path clip-path="url(#clip280)" d="M42.4881 461.424 L64.0042 461.424 L64.0042 467.28 L42.679 467.28 Q37.6183 467.28 35.1038 469.254 Q32.5894 471.227 32.5894 475.174 Q32.5894 479.916 35.6131 482.653 Q38.6368 485.391 43.8567 485.391 L64.0042 485.391 L64.0042 491.279 L28.3562 491.279 L28.3562 485.391 L33.8944 485.391 Q30.6797 483.29 29.0883 480.457 Q27.4968 477.593 27.4968 473.869 Q27.4968 467.726 31.3163 464.575 Q35.1038 461.424 42.4881 461.424 Z" fill="#000000" fill-rule="nonzero" fill-opacity="1" /><path clip-path="url(#clip280)" d="M622.984 8.64 L647.81 8.64 L647.81 13.559 L628.829 13.559 L628.829 26.2904 L645.959 26.2904 L645.959 31.2093 L628.829 31.2093 L628.829 51.84 L622.984 51.84 L622.984 8.64 Z" fill="#000000" fill-rule="nonzero" fill-opacity="1" /><path clip-path="url(#clip280)" d="M671.306 24.4096 Q670.409 23.8888 669.338 23.6573 Q668.296 23.3969 667.023 23.3969 Q662.509 23.3969 660.079 26.3482 Q657.677 29.2707 657.677 34.7683 L657.677 51.84 L652.324 51.84 L652.324 19.4328 L657.677 19.4328 L657.677 24.4675 Q659.356 21.5161 662.046 20.0983 Q664.737 18.6515 668.586 18.6515 Q669.136 18.6515 669.801 18.7383 Q670.467 18.7962 671.277 18.9409 L671.306 24.4096 Z" fill="#000000" fill-rule="nonzero" fill-opacity="1" /><path clip-path="url(#clip280)" d="M691.618 35.5496 Q685.166 35.5496 682.677 37.0253 Q680.189 38.501 680.189 42.06 Q680.189 44.8956 682.041 46.5738 Q683.921 48.2231 687.133 48.2231 Q691.56 48.2231 694.222 45.0981 Q696.913 41.9442 696.913 36.7359 L696.913 35.5496 L691.618 35.5496 M702.237 33.3505 L702.237 51.84 L696.913 51.84 L696.913 46.921 Q695.09 49.8724 692.37 51.2902 Q689.651 52.6791 685.715 52.6791 Q680.739 52.6791 677.787 49.9014 Q674.865 47.0947 674.865 42.4072 Q674.865 36.9385 678.511 34.1607 Q682.185 31.3829 689.448 31.3829 L696.913 31.3829 L696.913 30.8621 Q696.913 27.1874 694.483 25.1908 Q692.081 23.1654 687.712 23.1654 Q684.934 23.1654 682.301 23.8309 Q679.668 24.4964 677.237 25.8274 L677.237 20.9085 Q680.16 19.78 682.909 19.2302 Q685.657 18.6515 688.262 18.6515 Q695.293 18.6515 698.765 22.2973 Q702.237 25.9431 702.237 33.3505 Z" fill="#000000" fill-rule="nonzero" fill-opacity="1" /><path clip-path="url(#clip280)" d="M736.525 20.677 L736.525 25.6538 Q734.268 24.4096 731.982 23.802 Q729.726 23.1654 727.411 23.1654 Q722.231 23.1654 719.367 26.464 Q716.502 29.7336 716.502 35.6653 Q716.502 41.597 719.367 44.8956 Q722.231 48.1653 727.411 48.1653 Q729.726 48.1653 731.982 47.5576 Q734.268 46.921 736.525 45.6768 L736.525 50.5958 Q734.297 51.6375 731.896 52.1583 Q729.523 52.6791 726.832 52.6791 Q719.511 52.6791 715.2 48.0784 Q710.889 43.4778 710.889 35.6653 Q710.889 27.7371 715.229 23.1943 Q719.598 18.6515 727.179 18.6515 Q729.639 18.6515 731.982 19.1724 Q734.326 19.6642 736.525 20.677 Z" fill="#000000" fill-rule="nonzero" fill-opacity="1" /><path clip-path="url(#clip280)" d="M751.051 10.2314 L751.051 19.4328 L762.017 19.4328 L762.017 23.5705 L751.051 23.5705 L751.051 41.163 Q751.051 45.1271 752.121 46.2555 Q753.221 47.384 756.548 47.384 L762.017 47.384 L762.017 51.84 L756.548 51.84 Q750.385 51.84 748.041 49.5541 Q745.698 47.2393 745.698 41.163 L745.698 23.5705 L741.791 23.5705 L741.791 19.4328 L745.698 19.4328 L745.698 10.2314 L751.051 10.2314 Z" fill="#000000" fill-rule="nonzero" fill-opacity="1" /><path clip-path="url(#clip280)" d="M769.019 19.4328 L774.343 19.4328 L774.343 51.84 L769.019 51.84 L769.019 19.4328 M769.019 6.81709 L774.343 6.81709 L774.343 13.559 L769.019 13.559 L769.019 6.81709 Z" fill="#000000" fill-rule="nonzero" fill-opacity="1" /><path clip-path="url(#clip280)" d="M798.041 23.1654 Q793.759 23.1654 791.27 26.5218 Q788.782 29.8494 788.782 35.6653 Q788.782 41.4813 791.241 44.8377 Q793.73 48.1653 798.041 48.1653 Q802.295 48.1653 804.783 44.8088 Q807.271 41.4523 807.271 35.6653 Q807.271 29.9072 804.783 26.5508 Q802.295 23.1654 798.041 23.1654 M798.041 18.6515 Q804.986 18.6515 808.95 23.1654 Q812.914 27.6792 812.914 35.6653 Q812.914 43.6225 808.95 48.1653 Q804.986 52.6791 798.041 52.6791 Q791.068 52.6791 787.104 48.1653 Q783.169 43.6225 783.169 35.6653 Q783.169 27.6792 787.104 23.1654 Q791.068 18.6515 798.041 18.6515 Z" fill="#000000" fill-rule="nonzero" fill-opacity="1" /><path clip-path="url(#clip280)" d="M848.677 32.2799 L848.677 51.84 L843.353 51.84 L843.353 32.4535 Q843.353 27.8529 841.559 25.567 Q839.765 23.2811 836.178 23.2811 Q831.866 23.2811 829.378 26.03 Q826.889 28.7788 826.889 33.5241 L826.889 51.84 L821.536 51.84 L821.536 19.4328 L826.889 19.4328 L826.889 24.4675 Q828.799 21.545 831.374 20.0983 Q833.978 18.6515 837.364 18.6515 Q842.948 18.6515 845.813 22.1237 Q848.677 25.567 848.677 32.2799 Z" fill="#000000" fill-rule="nonzero" fill-opacity="1" /><path clip-path="url(#clip280)" d="M890.691 23.1654 Q886.409 23.1654 883.92 26.5218 Q881.432 29.8494 881.432 35.6653 Q881.432 41.4813 883.891 44.8377 Q886.38 48.1653 890.691 48.1653 Q894.945 48.1653 897.433 44.8088 Q899.921 41.4523 899.921 35.6653 Q899.921 29.9072 897.433 26.5508 Q894.945 23.1654 890.691 23.1654 M890.691 18.6515 Q897.636 18.6515 901.6 23.1654 Q905.564 27.6792 905.564 35.6653 Q905.564 43.6225 901.6 48.1653 Q897.636 52.6791 890.691 52.6791 Q883.718 52.6791 879.754 48.1653 Q875.818 43.6225 875.818 35.6653 Q875.818 27.6792 879.754 23.1654 Q883.718 18.6515 890.691 18.6515 Z" fill="#000000" fill-rule="nonzero" fill-opacity="1" /><path clip-path="url(#clip280)" d="M930.795 6.81709 L930.795 11.2442 L925.702 11.2442 Q922.838 11.2442 921.709 12.4016 Q920.61 13.559 920.61 16.5682 L920.61 19.4328 L929.377 19.4328 L929.377 23.5705 L920.61 23.5705 L920.61 51.84 L915.257 51.84 L915.257 23.5705 L910.164 23.5705 L910.164 19.4328 L915.257 19.4328 L915.257 17.1758 Q915.257 11.765 917.774 9.30551 Q920.292 6.81709 925.76 6.81709 L930.795 6.81709 Z" fill="#000000" fill-rule="nonzero" fill-opacity="1" /><path clip-path="url(#clip280)" d="M974.747 20.3876 L974.747 25.4223 Q972.49 24.2649 970.06 23.6862 Q967.629 23.1075 965.025 23.1075 Q961.061 23.1075 959.065 24.3228 Q957.097 25.5381 957.097 27.9686 Q957.097 29.8204 958.515 30.891 Q959.933 31.9327 964.215 32.8876 L966.038 33.2926 Q971.709 34.5079 974.082 36.7359 Q976.483 38.935 976.483 42.8991 Q976.483 47.4129 972.896 50.046 Q969.337 52.6791 963.087 52.6791 Q960.482 52.6791 957.647 52.1583 Q954.84 51.6664 951.715 50.6537 L951.715 45.156 Q954.666 46.6896 957.531 47.4708 Q960.396 48.2231 963.202 48.2231 Q966.964 48.2231 968.989 46.95 Q971.015 45.6479 971.015 43.3042 Q971.015 41.134 969.539 39.9766 Q968.092 38.8192 963.144 37.7486 L961.293 37.3146 Q956.345 36.273 954.146 34.1318 Q951.947 31.9616 951.947 28.2001 Q951.947 23.6283 955.187 21.1399 Q958.428 18.6515 964.389 18.6515 Q967.34 18.6515 969.944 19.0855 Q972.548 19.5196 974.747 20.3876 Z" fill="#000000" fill-rule="nonzero" fill-opacity="1" /><path clip-path="url(#clip280)" d="M984.412 39.0507 L984.412 19.4328 L989.736 19.4328 L989.736 38.8482 Q989.736 43.4488 991.53 45.7636 Q993.324 48.0495 996.912 48.0495 Q1001.22 48.0495 1003.71 45.3007 Q1006.23 42.5519 1006.23 37.8065 L1006.23 19.4328 L1011.55 19.4328 L1011.55 51.84 L1006.23 51.84 L1006.23 46.8632 Q1004.29 49.8145 1001.71 51.2613 Q999.169 52.6791 995.783 52.6791 Q990.199 52.6791 987.305 49.2069 Q984.412 45.7347 984.412 39.0507 M997.809 18.6515 L997.809 18.6515 Z" fill="#000000" fill-rule="nonzero" fill-opacity="1" /><path clip-path="url(#clip280)" d="M1043.18 20.3876 L1043.18 25.4223 Q1040.92 24.2649 1038.49 23.6862 Q1036.06 23.1075 1033.46 23.1075 Q1029.49 23.1075 1027.5 24.3228 Q1025.53 25.5381 1025.53 27.9686 Q1025.53 29.8204 1026.95 30.891 Q1028.36 31.9327 1032.65 32.8876 L1034.47 33.2926 Q1040.14 34.5079 1042.51 36.7359 Q1044.91 38.935 1044.91 42.8991 Q1044.91 47.4129 1041.33 50.046 Q1037.77 52.6791 1031.52 52.6791 Q1028.91 52.6791 1026.08 52.1583 Q1023.27 51.6664 1020.15 50.6537 L1020.15 45.156 Q1023.1 46.6896 1025.96 47.4708 Q1028.83 48.2231 1031.63 48.2231 Q1035.4 48.2231 1037.42 46.95 Q1039.45 45.6479 1039.45 43.3042 Q1039.45 41.134 1037.97 39.9766 Q1036.52 38.8192 1031.58 37.7486 L1029.72 37.3146 Q1024.78 36.273 1022.58 34.1318 Q1020.38 31.9616 1020.38 28.2001 Q1020.38 23.6283 1023.62 21.1399 Q1026.86 18.6515 1032.82 18.6515 Q1035.77 18.6515 1038.38 19.0855 Q1040.98 19.5196 1043.18 20.3876 Z" fill="#000000" fill-rule="nonzero" fill-opacity="1" /><path clip-path="url(#clip280)" d="M1076.71 20.677 L1076.71 25.6538 Q1074.46 24.4096 1072.17 23.802 Q1069.91 23.1654 1067.6 23.1654 Q1062.42 23.1654 1059.56 26.464 Q1056.69 29.7336 1056.69 35.6653 Q1056.69 41.597 1059.56 44.8956 Q1062.42 48.1653 1067.6 48.1653 Q1069.91 48.1653 1072.17 47.5576 Q1074.46 46.921 1076.71 45.6768 L1076.71 50.5958 Q1074.49 51.6375 1072.08 52.1583 Q1069.71 52.6791 1067.02 52.6791 Q1059.7 52.6791 1055.39 48.0784 Q1051.08 43.4778 1051.08 35.6653 Q1051.08 27.7371 1055.42 23.1943 Q1059.79 18.6515 1067.37 18.6515 Q1069.83 18.6515 1072.17 19.1724 Q1074.52 19.6642 1076.71 20.677 Z" fill="#000000" fill-rule="nonzero" fill-opacity="1" /><path clip-path="url(#clip280)" d="M1113.69 34.3054 L1113.69 36.9095 L1089.21 36.9095 Q1089.56 42.4072 1092.51 45.3007 Q1095.49 48.1653 1100.79 48.1653 Q1103.86 48.1653 1106.72 47.4129 Q1109.61 46.6606 1112.45 45.156 L1112.45 50.1907 Q1109.58 51.406 1106.58 52.0425 Q1103.57 52.6791 1100.47 52.6791 Q1092.72 52.6791 1088.17 48.1653 Q1083.66 43.6514 1083.66 35.9547 Q1083.66 27.9975 1087.94 23.339 Q1092.25 18.6515 1099.54 18.6515 Q1106.08 18.6515 1109.87 22.876 Q1113.69 27.0716 1113.69 34.3054 M1108.37 32.7429 Q1108.31 28.3737 1105.91 25.7695 Q1103.54 23.1654 1099.6 23.1654 Q1095.15 23.1654 1092.46 25.6827 Q1089.79 28.2001 1089.39 32.7718 L1108.37 32.7429 Z" fill="#000000" fill-rule="nonzero" fill-opacity="1" /><path clip-path="url(#clip280)" d="M1127.58 46.9789 L1127.58 64.1663 L1122.23 64.1663 L1122.23 19.4328 L1127.58 19.4328 L1127.58 24.3517 Q1129.26 21.4582 1131.81 20.0693 Q1134.38 18.6515 1137.94 18.6515 Q1143.84 18.6515 1147.52 23.339 Q1151.22 28.0265 1151.22 35.6653 Q1151.22 43.3042 1147.52 47.9916 Q1143.84 52.6791 1137.94 52.6791 Q1134.38 52.6791 1131.81 51.2902 Q1129.26 49.8724 1127.58 46.9789 M1145.7 35.6653 Q1145.7 29.7915 1143.26 26.464 Q1140.86 23.1075 1136.64 23.1075 Q1132.41 23.1075 1129.98 26.464 Q1127.58 29.7915 1127.58 35.6653 Q1127.58 41.5391 1129.98 44.8956 Q1132.41 48.2231 1136.64 48.2231 Q1140.86 48.2231 1143.26 44.8956 Q1145.7 41.5391 1145.7 35.6653 Z" fill="#000000" fill-rule="nonzero" fill-opacity="1" /><path clip-path="url(#clip280)" d="M1165.31 10.2314 L1165.31 19.4328 L1176.28 19.4328 L1176.28 23.5705 L1165.31 23.5705 L1165.31 41.163 Q1165.31 45.1271 1166.38 46.2555 Q1167.48 47.384 1170.81 47.384 L1176.28 47.384 L1176.28 51.84 L1170.81 51.84 Q1164.65 51.84 1162.3 49.5541 Q1159.96 47.2393 1159.96 41.163 L1159.96 23.5705 L1156.05 23.5705 L1156.05 19.4328 L1159.96 19.4328 L1159.96 10.2314 L1165.31 10.2314 Z" fill="#000000" fill-rule="nonzero" fill-opacity="1" /><path clip-path="url(#clip280)" d="M1183.28 19.4328 L1188.61 19.4328 L1188.61 51.84 L1183.28 51.84 L1183.28 19.4328 M1183.28 6.81709 L1188.61 6.81709 L1188.61 13.559 L1183.28 13.559 L1183.28 6.81709 Z" fill="#000000" fill-rule="nonzero" fill-opacity="1" /><path clip-path="url(#clip280)" d="M1223.01 35.6653 Q1223.01 29.7915 1220.58 26.464 Q1218.18 23.1075 1213.95 23.1075 Q1209.73 23.1075 1207.3 26.464 Q1204.9 29.7915 1204.9 35.6653 Q1204.9 41.5391 1207.3 44.8956 Q1209.73 48.2231 1213.95 48.2231 Q1218.18 48.2231 1220.58 44.8956 Q1223.01 41.5391 1223.01 35.6653 M1204.9 24.3517 Q1206.57 21.4582 1209.12 20.0693 Q1211.7 18.6515 1215.26 18.6515 Q1221.16 18.6515 1224.83 23.339 Q1228.54 28.0265 1228.54 35.6653 Q1228.54 43.3042 1224.83 47.9916 Q1221.16 52.6791 1215.26 52.6791 Q1211.7 52.6791 1209.12 51.2902 Q1206.57 49.8724 1204.9 46.9789 L1204.9 51.84 L1199.54 51.84 L1199.54 6.81709 L1204.9 6.81709 L1204.9 24.3517 Z" fill="#000000" fill-rule="nonzero" fill-opacity="1" /><path clip-path="url(#clip280)" d="M1237.36 6.81709 L1242.69 6.81709 L1242.69 51.84 L1237.36 51.84 L1237.36 6.81709 Z" fill="#000000" fill-rule="nonzero" fill-opacity="1" /><path clip-path="url(#clip280)" d="M1281.55 34.3054 L1281.55 36.9095 L1257.07 36.9095 Q1257.41 42.4072 1260.37 45.3007 Q1263.35 48.1653 1268.64 48.1653 Q1271.71 48.1653 1274.57 47.4129 Q1277.47 46.6606 1280.3 45.156 L1280.3 50.1907 Q1277.44 51.406 1274.43 52.0425 Q1271.42 52.6791 1268.32 52.6791 Q1260.57 52.6791 1256.02 48.1653 Q1251.51 43.6514 1251.51 35.9547 Q1251.51 27.9975 1255.79 23.339 Q1260.1 18.6515 1267.4 18.6515 Q1273.94 18.6515 1277.73 22.876 Q1281.55 27.0716 1281.55 34.3054 M1276.22 32.7429 Q1276.16 28.3737 1273.76 25.7695 Q1271.39 23.1654 1267.45 23.1654 Q1263 23.1654 1260.31 25.6827 Q1257.65 28.2001 1257.24 32.7718 L1276.22 32.7429 Z" fill="#000000" fill-rule="nonzero" fill-opacity="1" /><path clip-path="url(#clip280)" d="M1309.12 19.4328 L1314.44 19.4328 L1314.44 51.84 L1309.12 51.84 L1309.12 19.4328 M1309.12 6.81709 L1314.44 6.81709 L1314.44 13.559 L1309.12 13.559 L1309.12 6.81709 Z" fill="#000000" fill-rule="nonzero" fill-opacity="1" /><path clip-path="url(#clip280)" d="M1352.52 32.2799 L1352.52 51.84 L1347.2 51.84 L1347.2 32.4535 Q1347.2 27.8529 1345.41 25.567 Q1343.61 23.2811 1340.02 23.2811 Q1335.71 23.2811 1333.22 26.03 Q1330.74 28.7788 1330.74 33.5241 L1330.74 51.84 L1325.38 51.84 L1325.38 19.4328 L1330.74 19.4328 L1330.74 24.4675 Q1332.64 21.545 1335.22 20.0983 Q1337.82 18.6515 1341.21 18.6515 Q1346.79 18.6515 1349.66 22.1237 Q1352.52 25.567 1352.52 32.2799 Z" fill="#000000" fill-rule="nonzero" fill-opacity="1" /><path clip-path="url(#clip280)" d="M1384.47 24.3517 L1384.47 6.81709 L1389.79 6.81709 L1389.79 51.84 L1384.47 51.84 L1384.47 46.9789 Q1382.79 49.8724 1380.21 51.2902 Q1377.67 52.6791 1374.08 52.6791 Q1368.21 52.6791 1364.5 47.9916 Q1360.83 43.3042 1360.83 35.6653 Q1360.83 28.0265 1364.5 23.339 Q1368.21 18.6515 1374.08 18.6515 Q1377.67 18.6515 1380.21 20.0693 Q1382.79 21.4582 1384.47 24.3517 M1366.33 35.6653 Q1366.33 41.5391 1368.73 44.8956 Q1371.16 48.2231 1375.38 48.2231 Q1379.61 48.2231 1382.04 44.8956 Q1384.47 41.5391 1384.47 35.6653 Q1384.47 29.7915 1382.04 26.464 Q1379.61 23.1075 1375.38 23.1075 Q1371.16 23.1075 1368.73 26.464 Q1366.33 29.7915 1366.33 35.6653 Z" fill="#000000" fill-rule="nonzero" fill-opacity="1" /><path clip-path="url(#clip280)" d="M1400.76 19.4328 L1406.08 19.4328 L1406.08 51.84 L1400.76 51.84 L1400.76 19.4328 M1400.76 6.81709 L1406.08 6.81709 L1406.08 13.559 L1400.76 13.559 L1400.76 6.81709 Z" fill="#000000" fill-rule="nonzero" fill-opacity="1" /><path clip-path="url(#clip280)" d="M1413.4 19.4328 L1419.04 19.4328 L1429.17 46.6317 L1439.3 19.4328 L1444.94 19.4328 L1432.79 51.84 L1425.56 51.84 L1413.4 19.4328 Z" fill="#000000" fill-rule="nonzero" fill-opacity="1" /><path clip-path="url(#clip280)" d="M1452.29 19.4328 L1457.62 19.4328 L1457.62 51.84 L1452.29 51.84 L1452.29 19.4328 M1452.29 6.81709 L1457.62 6.81709 L1457.62 13.559 L1452.29 13.559 L1452.29 6.81709 Z" fill="#000000" fill-rule="nonzero" fill-opacity="1" /><path clip-path="url(#clip280)" d="M1490.08 24.3517 L1490.08 6.81709 L1495.4 6.81709 L1495.4 51.84 L1490.08 51.84 L1490.08 46.9789 Q1488.4 49.8724 1485.83 51.2902 Q1483.28 52.6791 1479.69 52.6791 Q1473.82 52.6791 1470.12 47.9916 Q1466.44 43.3042 1466.44 35.6653 Q1466.44 28.0265 1470.12 23.339 Q1473.82 18.6515 1479.69 18.6515 Q1483.28 18.6515 1485.83 20.0693 Q1488.4 21.4582 1490.08 24.3517 M1471.94 35.6653 Q1471.94 41.5391 1474.34 44.8956 Q1476.77 48.2231 1480.99 48.2231 Q1485.22 48.2231 1487.65 44.8956 Q1490.08 41.5391 1490.08 35.6653 Q1490.08 29.7915 1487.65 26.464 Q1485.22 23.1075 1480.99 23.1075 Q1476.77 23.1075 1474.34 26.464 Q1471.94 29.7915 1471.94 35.6653 Z" fill="#000000" fill-rule="nonzero" fill-opacity="1" /><path clip-path="url(#clip280)" d="M1505.82 39.0507 L1505.82 19.4328 L1511.14 19.4328 L1511.14 38.8482 Q1511.14 43.4488 1512.94 45.7636 Q1514.73 48.0495 1518.32 48.0495 Q1522.63 48.0495 1525.12 45.3007 Q1527.64 42.5519 1527.64 37.8065 L1527.64 19.4328 L1532.96 19.4328 L1532.96 51.84 L1527.64 51.84 L1527.64 46.8632 Q1525.7 49.8145 1523.12 51.2613 Q1520.58 52.6791 1517.19 52.6791 Q1511.61 52.6791 1508.71 49.2069 Q1505.82 45.7347 1505.82 39.0507 M1519.22 18.6515 L1519.22 18.6515 Z" fill="#000000" fill-rule="nonzero" fill-opacity="1" /><path clip-path="url(#clip280)" d="M1558.66 35.5496 Q1552.2 35.5496 1549.72 37.0253 Q1547.23 38.501 1547.23 42.06 Q1547.23 44.8956 1549.08 46.5738 Q1550.96 48.2231 1554.17 48.2231 Q1558.6 48.2231 1561.26 45.0981 Q1563.95 41.9442 1563.95 36.7359 L1563.95 35.5496 L1558.66 35.5496 M1569.28 33.3505 L1569.28 51.84 L1563.95 51.84 L1563.95 46.921 Q1562.13 49.8724 1559.41 51.2902 Q1556.69 52.6791 1552.75 52.6791 Q1547.78 52.6791 1544.83 49.9014 Q1541.9 47.0947 1541.9 42.4072 Q1541.9 36.9385 1545.55 34.1607 Q1549.22 31.3829 1556.49 31.3829 L1563.95 31.3829 L1563.95 30.8621 Q1563.95 27.1874 1561.52 25.1908 Q1559.12 23.1654 1554.75 23.1654 Q1551.97 23.1654 1549.34 23.8309 Q1546.71 24.4964 1544.28 25.8274 L1544.28 20.9085 Q1547.2 19.78 1549.95 19.2302 Q1552.7 18.6515 1555.3 18.6515 Q1562.33 18.6515 1565.8 22.2973 Q1569.28 25.9431 1569.28 33.3505 Z" fill="#000000" fill-rule="nonzero" fill-opacity="1" /><path clip-path="url(#clip280)" d="M1580.24 6.81709 L1585.57 6.81709 L1585.57 51.84 L1580.24 51.84 L1580.24 6.81709 Z" fill="#000000" fill-rule="nonzero" fill-opacity="1" /><path clip-path="url(#clip280)" d="M1617.37 20.3876 L1617.37 25.4223 Q1615.11 24.2649 1612.68 23.6862 Q1610.25 23.1075 1607.64 23.1075 Q1603.68 23.1075 1601.68 24.3228 Q1599.72 25.5381 1599.72 27.9686 Q1599.72 29.8204 1601.13 30.891 Q1602.55 31.9327 1606.83 32.8876 L1608.66 33.2926 Q1614.33 34.5079 1616.7 36.7359 Q1619.1 38.935 1619.1 42.8991 Q1619.1 47.4129 1615.51 50.046 Q1611.95 52.6791 1605.7 52.6791 Q1603.1 52.6791 1600.26 52.1583 Q1597.46 51.6664 1594.33 50.6537 L1594.33 45.156 Q1597.28 46.6896 1600.15 47.4708 Q1603.01 48.2231 1605.82 48.2231 Q1609.58 48.2231 1611.61 46.95 Q1613.63 45.6479 1613.63 43.3042 Q1613.63 41.134 1612.16 39.9766 Q1610.71 38.8192 1605.76 37.7486 L1603.91 37.3146 Q1598.96 36.273 1596.76 34.1318 Q1594.56 31.9616 1594.56 28.2001 Q1594.56 23.6283 1597.81 21.1399 Q1601.05 18.6515 1607.01 18.6515 Q1609.96 18.6515 1612.56 19.0855 Q1615.17 19.5196 1617.37 20.3876 Z" fill="#000000" fill-rule="nonzero" fill-opacity="1" /><path clip-path="url(#clip280)" d="M1646.42 19.4328 L1651.74 19.4328 L1651.74 51.84 L1646.42 51.84 L1646.42 19.4328 M1646.42 6.81709 L1651.74 6.81709 L1651.74 13.559 L1646.42 13.559 L1646.42 6.81709 Z" fill="#000000" fill-rule="nonzero" fill-opacity="1" /><path clip-path="url(#clip280)" d="M1689.82 32.2799 L1689.82 51.84 L1684.49 51.84 L1684.49 32.4535 Q1684.49 27.8529 1682.7 25.567 Q1680.91 23.2811 1677.32 23.2811 Q1673.01 23.2811 1670.52 26.03 Q1668.03 28.7788 1668.03 33.5241 L1668.03 51.84 L1662.68 51.84 L1662.68 19.4328 L1668.03 19.4328 L1668.03 24.4675 Q1669.94 21.545 1672.52 20.0983 Q1675.12 18.6515 1678.51 18.6515 Q1684.09 18.6515 1686.95 22.1237 Q1689.82 25.567 1689.82 32.2799 Z" fill="#000000" fill-rule="nonzero" fill-opacity="1" /><path clip-path="url(#clip280)" d="M1746.99 34.3054 L1746.99 36.9095 L1722.52 36.9095 Q1722.86 42.4072 1725.81 45.3007 Q1728.79 48.1653 1734.09 48.1653 Q1737.16 48.1653 1740.02 47.4129 Q1742.91 46.6606 1745.75 45.156 L1745.75 50.1907 Q1742.89 51.406 1739.88 52.0425 Q1736.87 52.6791 1733.77 52.6791 Q1726.02 52.6791 1721.47 48.1653 Q1716.96 43.6514 1716.96 35.9547 Q1716.96 27.9975 1721.24 23.339 Q1725.55 18.6515 1732.85 18.6515 Q1739.38 18.6515 1743.17 22.876 Q1746.99 27.0716 1746.99 34.3054 M1741.67 32.7429 Q1741.61 28.3737 1739.21 25.7695 Q1736.84 23.1654 1732.9 23.1654 Q1728.45 23.1654 1725.76 25.6827 Q1723.09 28.2001 1722.69 32.7718 L1741.67 32.7429 Z" fill="#000000" fill-rule="nonzero" fill-opacity="1" /><path clip-path="url(#clip280)" d="M1770.46 35.5496 Q1764.01 35.5496 1761.52 37.0253 Q1759.03 38.501 1759.03 42.06 Q1759.03 44.8956 1760.88 46.5738 Q1762.76 48.2231 1765.98 48.2231 Q1770.4 48.2231 1773.06 45.0981 Q1775.76 41.9442 1775.76 36.7359 L1775.76 35.5496 L1770.46 35.5496 M1781.08 33.3505 L1781.08 51.84 L1775.76 51.84 L1775.76 46.921 Q1773.93 49.8724 1771.21 51.2902 Q1768.49 52.6791 1764.56 52.6791 Q1759.58 52.6791 1756.63 49.9014 Q1753.71 47.0947 1753.71 42.4072 Q1753.71 36.9385 1757.35 34.1607 Q1761.03 31.3829 1768.29 31.3829 L1775.76 31.3829 L1775.76 30.8621 Q1775.76 27.1874 1773.33 25.1908 Q1770.92 23.1654 1766.55 23.1654 Q1763.78 23.1654 1761.14 23.8309 Q1758.51 24.4964 1756.08 25.8274 L1756.08 20.9085 Q1759 19.78 1761.75 19.2302 Q1764.5 18.6515 1767.1 18.6515 Q1774.14 18.6515 1777.61 22.2973 Q1781.08 25.9431 1781.08 33.3505 Z" fill="#000000" fill-rule="nonzero" fill-opacity="1" /><path clip-path="url(#clip280)" d="M1815.37 20.677 L1815.37 25.6538 Q1813.11 24.4096 1810.83 23.802 Q1808.57 23.1654 1806.25 23.1654 Q1801.07 23.1654 1798.21 26.464 Q1795.34 29.7336 1795.34 35.6653 Q1795.34 41.597 1798.21 44.8956 Q1801.07 48.1653 1806.25 48.1653 Q1808.57 48.1653 1810.83 47.5576 Q1813.11 46.921 1815.37 45.6768 L1815.37 50.5958 Q1813.14 51.6375 1810.74 52.1583 Q1808.37 52.6791 1805.67 52.6791 Q1798.35 52.6791 1794.04 48.0784 Q1789.73 43.4778 1789.73 35.6653 Q1789.73 27.7371 1794.07 23.1943 Q1798.44 18.6515 1806.02 18.6515 Q1808.48 18.6515 1810.83 19.1724 Q1813.17 19.6642 1815.37 20.677 Z" fill="#000000" fill-rule="nonzero" fill-opacity="1" /><path clip-path="url(#clip280)" d="M1851.57 32.2799 L1851.57 51.84 L1846.24 51.84 L1846.24 32.4535 Q1846.24 27.8529 1844.45 25.567 Q1842.65 23.2811 1839.07 23.2811 Q1834.75 23.2811 1832.27 26.03 Q1829.78 28.7788 1829.78 33.5241 L1829.78 51.84 L1824.42 51.84 L1824.42 6.81709 L1829.78 6.81709 L1829.78 24.4675 Q1831.69 21.545 1834.26 20.0983 Q1836.87 18.6515 1840.25 18.6515 Q1845.84 18.6515 1848.7 22.1237 Q1851.57 25.567 1851.57 32.2799 Z" fill="#000000" fill-rule="nonzero" fill-opacity="1" /><path clip-path="url(#clip280)" d="M1901.68 20.3876 L1901.68 25.4223 Q1899.42 24.2649 1896.99 23.6862 Q1894.56 23.1075 1891.96 23.1075 Q1887.99 23.1075 1886 24.3228 Q1884.03 25.5381 1884.03 27.9686 Q1884.03 29.8204 1885.45 30.891 Q1886.87 31.9327 1891.15 32.8876 L1892.97 33.2926 Q1898.64 34.5079 1901.02 36.7359 Q1903.42 38.935 1903.42 42.8991 Q1903.42 47.4129 1899.83 50.046 Q1896.27 52.6791 1890.02 52.6791 Q1887.42 52.6791 1884.58 52.1583 Q1881.77 51.6664 1878.65 50.6537 L1878.65 45.156 Q1881.6 46.6896 1884.46 47.4708 Q1887.33 48.2231 1890.14 48.2231 Q1893.9 48.2231 1895.92 46.95 Q1897.95 45.6479 1897.95 43.3042 Q1897.95 41.134 1896.47 39.9766 Q1895.03 38.8192 1890.08 37.7486 L1888.23 37.3146 Q1883.28 36.273 1881.08 34.1318 Q1878.88 31.9616 1878.88 28.2001 Q1878.88 23.6283 1882.12 21.1399 Q1885.36 18.6515 1891.32 18.6515 Q1894.27 18.6515 1896.88 19.0855 Q1899.48 19.5196 1901.68 20.3876 Z" fill="#000000" fill-rule="nonzero" fill-opacity="1" /><path clip-path="url(#clip280)" d="M1911.9 19.4328 L1917.22 19.4328 L1917.22 51.84 L1911.9 51.84 L1911.9 19.4328 M1911.9 6.81709 L1917.22 6.81709 L1917.22 13.559 L1911.9 13.559 L1911.9 6.81709 Z" fill="#000000" fill-rule="nonzero" fill-opacity="1" /><path clip-path="url(#clip280)" d="M1933.63 10.2314 L1933.63 19.4328 L1944.59 19.4328 L1944.59 23.5705 L1933.63 23.5705 L1933.63 41.163 Q1933.63 45.1271 1934.7 46.2555 Q1935.8 47.384 1939.12 47.384 L1944.59 47.384 L1944.59 51.84 L1939.12 51.84 Q1932.96 51.84 1930.62 49.5541 Q1928.27 47.2393 1928.27 41.163 L1928.27 23.5705 L1924.37 23.5705 L1924.37 19.4328 L1928.27 19.4328 L1928.27 10.2314 L1933.63 10.2314 Z" fill="#000000" fill-rule="nonzero" fill-opacity="1" /><path clip-path="url(#clip280)" d="M1979.31 34.3054 L1979.31 36.9095 L1954.83 36.9095 Q1955.18 42.4072 1958.13 45.3007 Q1961.11 48.1653 1966.41 48.1653 Q1969.48 48.1653 1972.34 47.4129 Q1975.23 46.6606 1978.07 45.156 L1978.07 50.1907 Q1975.2 51.406 1972.2 52.0425 Q1969.19 52.6791 1966.09 52.6791 Q1958.34 52.6791 1953.79 48.1653 Q1949.28 43.6514 1949.28 35.9547 Q1949.28 27.9975 1953.56 23.339 Q1957.87 18.6515 1965.16 18.6515 Q1971.7 18.6515 1975.49 22.876 Q1979.31 27.0716 1979.31 34.3054 M1973.99 32.7429 Q1973.93 28.3737 1971.53 25.7695 Q1969.16 23.1654 1965.22 23.1654 Q1960.77 23.1654 1958.08 25.6827 Q1955.41 28.2001 1955.01 32.7718 L1973.99 32.7429 Z" fill="#000000" fill-rule="nonzero" fill-opacity="1" /><polyline clip-path="url(#clip282)" style="stroke:#009af9; stroke-linecap:round; stroke-linejoin:round; stroke-width:4; stroke-opacity:1; fill:none" points="309.067,144.459 347.224,144.459 385.381,144.461 423.538,144.472 461.695,144.497 499.852,144.535 538.009,144.585 576.166,144.658 614.323,144.766 652.48,144.94 690.637,145.242 728.794,145.85 766.951,147.216 805.108,150.259 843.265,157.351 881.422,174.485 919.579,215.985 957.736,309.875 995.893,483.63 1034.05,740.491 1072.21,920.867 1110.36,1035.68 1148.52,1100.15 1186.68,1139.23 1224.83,1158.15 1262.99,1170.45 1301.15,1177.69 1339.31,1182.35 1377.46,1185.21 1415.62,1187 1453.78,1188.09 1491.93,1188.73 1530.09,1189.11 1568.25,1189.31 1606.4,1189.42 1644.56,1189.48 1682.72,1189.51 1720.88,1189.52 1759.03,1189.53 1797.19,1189.53 1835.35,1189.53 1873.5,1189.53 1911.66,1189.53 1949.82,1189.53 1987.97,1189.53 2026.13,1189.53 2064.29,1189.53 2102.45,1189.53 2140.6,1189.53 2178.76,1189.53 2216.92,1189.53 2255.07,1189.53 2293.23,1189.53 "/>
<polyline clip-path="url(#clip282)" style="stroke:#e26f46; stroke-linecap:round; stroke-linejoin:round; stroke-width:4; stroke-opacity:1; fill:none" points="309.067,143.501 347.224,143.501 385.381,143.502 423.538,143.512 461.695,143.535 499.852,143.572 538.009,143.626 576.166,143.71 614.323,143.842 652.48,144.061 690.637,144.445 728.794,145.221 766.951,146.967 805.108,150.855 843.265,159.909 881.422,181.722 919.579,234.209 957.736,351.075 995.893,559.962 1034.05,848.577 1072.21,1033.63 1110.36,1141.8 1148.52,1198.49 1186.68,1231.18 1224.83,1246.49 1262.99,1256.26 1301.15,1261.93 1339.31,1265.55 1377.46,1267.76 1415.62,1269.14 1453.78,1269.98 1491.93,1270.48 1530.09,1270.76 1568.25,1270.92 1606.4,1271 1644.56,1271.05 1682.72,1271.07 1720.88,1271.08 1759.03,1271.08 1797.19,1271.09 1835.35,1271.09 1873.5,1271.09 1911.66,1271.09 1949.82,1271.09 1987.97,1271.09 2026.13,1271.09 2064.29,1271.09 2102.45,1271.09 2140.6,1271.09 2178.76,1271.09 2216.92,1271.09 2255.07,1271.09 2293.23,1271.09 "/>
<polyline clip-path="url(#clip282)" style="stroke:#3da44d; stroke-linecap:round; stroke-linejoin:round; stroke-width:4; stroke-opacity:1; fill:none" points="309.067,143.465 347.224,143.466 385.381,143.467 423.538,143.476 461.695,143.499 499.852,143.536 538.009,143.59 576.166,143.674 614.323,143.805 652.48,144.022 690.637,144.403 728.794,145.172 766.951,146.904 805.108,150.76 843.265,159.737 881.422,181.37 919.579,233.427 957.736,349.375 995.893,556.777 1034.05,843.815 1072.21,1028.34 1110.36,1136.55 1148.52,1193.41 1186.68,1226.27 1224.83,1241.69 1262.99,1251.54 1301.15,1257.26 1339.31,1260.91 1377.46,1263.14 1415.62,1264.53 1453.78,1265.38 1491.93,1265.88 1530.09,1266.17 1568.25,1266.33 1606.4,1266.41 1644.56,1266.46 1682.72,1266.48 1720.88,1266.49 1759.03,1266.5 1797.19,1266.5 1835.35,1266.5 1873.5,1266.5 1911.66,1266.5 1949.82,1266.5 1987.97,1266.5 2026.13,1266.5 2064.29,1266.5 2102.45,1266.5 2140.6,1266.5 2178.76,1266.5 2216.92,1266.5 2255.07,1266.5 2293.23,1266.5 "/>
<path clip-path="url(#clip280)" d="M1937.33 357.452 L2282.65 357.452 L2282.65 150.092 L1937.33 150.092  Z" fill="#eaeaea" fill-rule="evenodd" fill-opacity="1"/>
<polyline clip-path="url(#clip280)" style="stroke:#ffffff; stroke-linecap:round; stroke-linejoin:round; stroke-width:4; stroke-opacity:1; fill:none" points="1937.33,357.452 2282.65,357.452 2282.65,150.092 1937.33,150.092 1937.33,357.452 "/>
<polyline clip-path="url(#clip280)" style="stroke:#009af9; stroke-linecap:round; stroke-linejoin:round; stroke-width:4; stroke-opacity:1; fill:none" points="1960.7,201.932 2100.91,201.932 "/>
<path clip-path="url(#clip280)" d="M2146.53 185.786 L2146.53 190.346 Q2143.86 189.073 2141.5 188.448 Q2139.14 187.823 2136.94 187.823 Q2133.12 187.823 2131.04 189.304 Q2128.98 190.786 2128.98 193.517 Q2128.98 195.809 2130.35 196.99 Q2131.73 198.147 2135.58 198.865 L2138.4 199.443 Q2143.63 200.439 2146.11 202.962 Q2148.61 205.462 2148.61 209.675 Q2148.61 214.698 2145.23 217.29 Q2141.87 219.883 2135.37 219.883 Q2132.91 219.883 2130.14 219.327 Q2127.38 218.772 2124.42 217.684 L2124.42 212.869 Q2127.27 214.466 2130 215.277 Q2132.73 216.087 2135.37 216.087 Q2139.37 216.087 2141.55 214.513 Q2143.72 212.939 2143.72 210.022 Q2143.72 207.476 2142.15 206.04 Q2140.6 204.605 2137.04 203.888 L2134.19 203.332 Q2128.96 202.291 2126.62 200.068 Q2124.28 197.846 2124.28 193.888 Q2124.28 189.304 2127.5 186.666 Q2130.74 184.027 2136.41 184.027 Q2138.84 184.027 2141.36 184.467 Q2143.89 184.906 2146.53 185.786 Z" fill="#000000" fill-rule="nonzero" fill-opacity="1" /><path clip-path="url(#clip280)" d="M2155.72 193.286 L2159.97 193.286 L2159.97 219.212 L2155.72 219.212 L2155.72 193.286 M2155.72 183.193 L2159.97 183.193 L2159.97 188.587 L2155.72 188.587 L2155.72 183.193 Z" fill="#000000" fill-rule="nonzero" fill-opacity="1" /><path clip-path="url(#clip280)" d="M2173.1 185.925 L2173.1 193.286 L2181.87 193.286 L2181.87 196.596 L2173.1 196.596 L2173.1 210.67 Q2173.1 213.841 2173.96 214.744 Q2174.84 215.647 2177.5 215.647 L2181.87 215.647 L2181.87 219.212 L2177.5 219.212 Q2172.57 219.212 2170.69 217.383 Q2168.82 215.531 2168.82 210.67 L2168.82 196.596 L2165.69 196.596 L2165.69 193.286 L2168.82 193.286 L2168.82 185.925 L2173.1 185.925 Z" fill="#000000" fill-rule="nonzero" fill-opacity="1" /><path clip-path="url(#clip280)" d="M2209.65 205.184 L2209.65 207.267 L2190.07 207.267 Q2190.34 211.665 2192.71 213.98 Q2195.09 216.272 2199.33 216.272 Q2201.78 216.272 2204.07 215.67 Q2206.39 215.068 2208.66 213.865 L2208.66 217.892 Q2206.36 218.864 2203.96 219.374 Q2201.55 219.883 2199.07 219.883 Q2192.87 219.883 2189.23 216.272 Q2185.62 212.661 2185.62 206.503 Q2185.62 200.138 2189.05 196.411 Q2192.5 192.661 2198.33 192.661 Q2203.56 192.661 2206.59 196.041 Q2209.65 199.397 2209.65 205.184 M2205.39 203.934 Q2205.34 200.439 2203.42 198.355 Q2201.53 196.272 2198.38 196.272 Q2194.81 196.272 2192.66 198.286 Q2190.53 200.3 2190.21 203.957 L2205.39 203.934 Z" fill="#000000" fill-rule="nonzero" fill-opacity="1" /><path clip-path="url(#clip280)" d="M2243.45 189.258 L2237.1 206.457 L2249.81 206.457 L2243.45 189.258 M2240.81 184.652 L2246.11 184.652 L2259.28 219.212 L2254.42 219.212 L2251.27 210.346 L2235.69 210.346 L2232.54 219.212 L2227.61 219.212 L2240.81 184.652 Z" fill="#000000" fill-rule="nonzero" fill-opacity="1" /><polyline clip-path="url(#clip280)" style="stroke:#e26f46; stroke-linecap:round; stroke-linejoin:round; stroke-width:4; stroke-opacity:1; fill:none" points="1960.7,253.772 2100.91,253.772 "/>
<path clip-path="url(#clip280)" d="M2146.53 237.626 L2146.53 242.186 Q2143.86 240.913 2141.5 240.288 Q2139.14 239.663 2136.94 239.663 Q2133.12 239.663 2131.04 241.144 Q2128.98 242.626 2128.98 245.357 Q2128.98 247.649 2130.35 248.83 Q2131.73 249.987 2135.58 250.705 L2138.4 251.283 Q2143.63 252.279 2146.11 254.802 Q2148.61 257.302 2148.61 261.515 Q2148.61 266.538 2145.23 269.13 Q2141.87 271.723 2135.37 271.723 Q2132.91 271.723 2130.14 271.167 Q2127.38 270.612 2124.42 269.524 L2124.42 264.709 Q2127.27 266.306 2130 267.117 Q2132.73 267.927 2135.37 267.927 Q2139.37 267.927 2141.55 266.353 Q2143.72 264.779 2143.72 261.862 Q2143.72 259.316 2142.15 257.88 Q2140.6 256.445 2137.04 255.728 L2134.19 255.172 Q2128.96 254.131 2126.62 251.908 Q2124.28 249.686 2124.28 245.728 Q2124.28 241.144 2127.5 238.506 Q2130.74 235.867 2136.41 235.867 Q2138.84 235.867 2141.36 236.307 Q2143.89 236.746 2146.53 237.626 Z" fill="#000000" fill-rule="nonzero" fill-opacity="1" /><path clip-path="url(#clip280)" d="M2155.72 245.126 L2159.97 245.126 L2159.97 271.052 L2155.72 271.052 L2155.72 245.126 M2155.72 235.033 L2159.97 235.033 L2159.97 240.427 L2155.72 240.427 L2155.72 235.033 Z" fill="#000000" fill-rule="nonzero" fill-opacity="1" /><path clip-path="url(#clip280)" d="M2173.1 237.765 L2173.1 245.126 L2181.87 245.126 L2181.87 248.436 L2173.1 248.436 L2173.1 262.51 Q2173.1 265.681 2173.96 266.584 Q2174.84 267.487 2177.5 267.487 L2181.87 267.487 L2181.87 271.052 L2177.5 271.052 Q2172.57 271.052 2170.69 269.223 Q2168.82 267.371 2168.82 262.51 L2168.82 248.436 L2165.69 248.436 L2165.69 245.126 L2168.82 245.126 L2168.82 237.765 L2173.1 237.765 Z" fill="#000000" fill-rule="nonzero" fill-opacity="1" /><path clip-path="url(#clip280)" d="M2209.65 257.024 L2209.65 259.107 L2190.07 259.107 Q2190.34 263.505 2192.71 265.82 Q2195.09 268.112 2199.33 268.112 Q2201.78 268.112 2204.07 267.51 Q2206.39 266.908 2208.66 265.705 L2208.66 269.732 Q2206.36 270.704 2203.96 271.214 Q2201.55 271.723 2199.07 271.723 Q2192.87 271.723 2189.23 268.112 Q2185.62 264.501 2185.62 258.343 Q2185.62 251.978 2189.05 248.251 Q2192.5 244.501 2198.33 244.501 Q2203.56 244.501 2206.59 247.881 Q2209.65 251.237 2209.65 257.024 M2205.39 255.774 Q2205.34 252.279 2203.42 250.195 Q2201.53 248.112 2198.38 248.112 Q2194.81 248.112 2192.66 250.126 Q2190.53 252.14 2190.21 255.797 L2205.39 255.774 Z" fill="#000000" fill-rule="nonzero" fill-opacity="1" /><path clip-path="url(#clip280)" d="M2236.57 254.547 L2236.57 267.209 L2244.07 267.209 Q2247.84 267.209 2249.65 265.658 Q2251.48 264.084 2251.48 260.867 Q2251.48 257.626 2249.65 256.098 Q2247.84 254.547 2244.07 254.547 L2236.57 254.547 M2236.57 240.334 L2236.57 250.751 L2243.49 250.751 Q2246.92 250.751 2248.59 249.478 Q2250.28 248.181 2250.28 245.543 Q2250.28 242.927 2248.59 241.631 Q2246.92 240.334 2243.49 240.334 L2236.57 240.334 M2231.9 236.492 L2243.84 236.492 Q2249.19 236.492 2252.08 238.714 Q2254.97 240.936 2254.97 245.033 Q2254.97 248.205 2253.49 250.08 Q2252.01 251.955 2249.14 252.418 Q2252.59 253.158 2254.49 255.519 Q2256.41 257.857 2256.41 261.376 Q2256.41 266.005 2253.26 268.529 Q2250.11 271.052 2244.3 271.052 L2231.9 271.052 L2231.9 236.492 Z" fill="#000000" fill-rule="nonzero" fill-opacity="1" /><polyline clip-path="url(#clip280)" style="stroke:#3da44d; stroke-linecap:round; stroke-linejoin:round; stroke-width:4; stroke-opacity:1; fill:none" points="1960.7,305.612 2100.91,305.612 "/>
<path clip-path="url(#clip280)" d="M2146.53 289.466 L2146.53 294.026 Q2143.86 292.753 2141.5 292.128 Q2139.14 291.503 2136.94 291.503 Q2133.12 291.503 2131.04 292.984 Q2128.98 294.466 2128.98 297.197 Q2128.98 299.489 2130.35 300.67 Q2131.73 301.827 2135.58 302.545 L2138.4 303.123 Q2143.63 304.119 2146.11 306.642 Q2148.61 309.142 2148.61 313.355 Q2148.61 318.378 2145.23 320.97 Q2141.87 323.563 2135.37 323.563 Q2132.91 323.563 2130.14 323.007 Q2127.38 322.452 2124.42 321.364 L2124.42 316.549 Q2127.27 318.146 2130 318.957 Q2132.73 319.767 2135.37 319.767 Q2139.37 319.767 2141.55 318.193 Q2143.72 316.619 2143.72 313.702 Q2143.72 311.156 2142.15 309.72 Q2140.6 308.285 2137.04 307.568 L2134.19 307.012 Q2128.96 305.971 2126.62 303.748 Q2124.28 301.526 2124.28 297.568 Q2124.28 292.984 2127.5 290.346 Q2130.74 287.707 2136.41 287.707 Q2138.84 287.707 2141.36 288.147 Q2143.89 288.586 2146.53 289.466 Z" fill="#000000" fill-rule="nonzero" fill-opacity="1" /><path clip-path="url(#clip280)" d="M2155.72 296.966 L2159.97 296.966 L2159.97 322.892 L2155.72 322.892 L2155.72 296.966 M2155.72 286.873 L2159.97 286.873 L2159.97 292.267 L2155.72 292.267 L2155.72 286.873 Z" fill="#000000" fill-rule="nonzero" fill-opacity="1" /><path clip-path="url(#clip280)" d="M2173.1 289.605 L2173.1 296.966 L2181.87 296.966 L2181.87 300.276 L2173.1 300.276 L2173.1 314.35 Q2173.1 317.521 2173.96 318.424 Q2174.84 319.327 2177.5 319.327 L2181.87 319.327 L2181.87 322.892 L2177.5 322.892 Q2172.57 322.892 2170.69 321.063 Q2168.82 319.211 2168.82 314.35 L2168.82 300.276 L2165.69 300.276 L2165.69 296.966 L2168.82 296.966 L2168.82 289.605 L2173.1 289.605 Z" fill="#000000" fill-rule="nonzero" fill-opacity="1" /><path clip-path="url(#clip280)" d="M2209.65 308.864 L2209.65 310.947 L2190.07 310.947 Q2190.34 315.345 2192.71 317.66 Q2195.09 319.952 2199.33 319.952 Q2201.78 319.952 2204.07 319.35 Q2206.39 318.748 2208.66 317.545 L2208.66 321.572 Q2206.36 322.544 2203.96 323.054 Q2201.55 323.563 2199.07 323.563 Q2192.87 323.563 2189.23 319.952 Q2185.62 316.341 2185.62 310.183 Q2185.62 303.818 2189.05 300.091 Q2192.5 296.341 2198.33 296.341 Q2203.56 296.341 2206.59 299.721 Q2209.65 303.077 2209.65 308.864 M2205.39 307.614 Q2205.34 304.119 2203.42 302.035 Q2201.53 299.952 2198.38 299.952 Q2194.81 299.952 2192.66 301.966 Q2190.53 303.98 2190.21 307.637 L2205.39 307.614 Z" fill="#000000" fill-rule="nonzero" fill-opacity="1" /><path clip-path="url(#clip280)" d="M2257.78 290.994 L2257.78 295.924 Q2255.41 293.725 2252.73 292.637 Q2250.07 291.549 2247.06 291.549 Q2241.13 291.549 2237.98 295.184 Q2234.84 298.795 2234.84 305.646 Q2234.84 312.475 2237.98 316.109 Q2241.13 319.72 2247.06 319.72 Q2250.07 319.72 2252.73 318.632 Q2255.41 317.545 2257.78 315.345 L2257.78 320.23 Q2255.32 321.896 2252.57 322.73 Q2249.84 323.563 2246.78 323.563 Q2238.93 323.563 2234.42 318.771 Q2229.9 313.957 2229.9 305.646 Q2229.9 297.313 2234.42 292.522 Q2238.93 287.707 2246.78 287.707 Q2249.88 287.707 2252.61 288.54 Q2255.37 289.35 2257.78 290.994 Z" fill="#000000" fill-rule="nonzero" fill-opacity="1" /></svg>
