<?xml version="1.0" encoding="utf-8"?>
<svg xmlns="http://www.w3.org/2000/svg" xmlns:xlink="http://www.w3.org/1999/xlink" width="800" height="500" viewBox="0 0 3200 2000">
<defs>
  <clipPath id="clip780">
    <rect x="0" y="0" width="3200" height="2000"/>
  </clipPath>
</defs>
<path clip-path="url(#clip780)" d="M0 2000 L3200 2000 L3200 0 L0 0  Z" fill="#ffffff" fill-rule="evenodd" fill-opacity="1"/>
<defs>
  <clipPath id="clip781">
    <rect x="640" y="0" width="2241" height="2000"/>
  </clipPath>
</defs>
<path clip-path="url(#clip780)" d="M217.489 1824.31 L3152.76 1824.31 L3152.76 103.492 L217.489 103.492  Z" fill="#eaeaea" fill-rule="evenodd" fill-opacity="1"/>
<defs>
  <clipPath id="clip782">
    <rect x="217" y="103" width="2936" height="1722"/>
  </clipPath>
</defs>
<polyline clip-path="url(#clip782)" style="stroke:#ffffff; stroke-linecap:round; stroke-linejoin:round; stroke-width:4; stroke-opacity:1; fill:none" points="300.562,1824.31 300.562,103.492 "/>
<polyline clip-path="url(#clip782)" style="stroke:#ffffff; stroke-linecap:round; stroke-linejoin:round; stroke-width:4; stroke-opacity:1; fill:none" points="992.842,1824.31 992.842,103.492 "/>
<polyline clip-path="url(#clip782)" style="stroke:#ffffff; stroke-linecap:round; stroke-linejoin:round; stroke-width:4; stroke-opacity:1; fill:none" points="1685.12,1824.31 1685.12,103.492 "/>
<polyline clip-path="url(#clip782)" style="stroke:#ffffff; stroke-linecap:round; stroke-linejoin:round; stroke-width:4; stroke-opacity:1; fill:none" points="2377.4,1824.31 2377.4,103.492 "/>
<polyline clip-path="url(#clip782)" style="stroke:#ffffff; stroke-linecap:round; stroke-linejoin:round; stroke-width:4; stroke-opacity:1; fill:none" points="3069.68,1824.31 3069.68,103.492 "/>
<polyline clip-path="url(#clip782)" style="stroke:#ffffff; stroke-linecap:round; stroke-linejoin:round; stroke-width:2; stroke-opacity:1; fill:none" points="646.702,1824.31 646.702,103.492 "/>
<polyline clip-path="url(#clip782)" style="stroke:#ffffff; stroke-linecap:round; stroke-linejoin:round; stroke-width:2; stroke-opacity:1; fill:none" points="1338.98,1824.31 1338.98,103.492 "/>
<polyline clip-path="url(#clip782)" style="stroke:#ffffff; stroke-linecap:round; stroke-linejoin:round; stroke-width:2; stroke-opacity:1; fill:none" points="2031.26,1824.31 2031.26,103.492 "/>
<polyline clip-path="url(#clip782)" style="stroke:#ffffff; stroke-linecap:round; stroke-linejoin:round; stroke-width:2; stroke-opacity:1; fill:none" points="2723.54,1824.31 2723.54,103.492 "/>
<polyline clip-path="url(#clip780)" style="stroke:#ffffff; stroke-linecap:round; stroke-linejoin:round; stroke-width:4; stroke-opacity:1; fill:none" points="217.489,1824.31 3152.76,1824.31 "/>
<polyline clip-path="url(#clip780)" style="stroke:#333333; stroke-linecap:round; stroke-linejoin:round; stroke-width:4; stroke-opacity:1; fill:none" points="300.562,1824.31 300.562,1843.21 "/>
<polyline clip-path="url(#clip780)" style="stroke:#333333; stroke-linecap:round; stroke-linejoin:round; stroke-width:4; stroke-opacity:1; fill:none" points="992.842,1824.31 992.842,1843.21 "/>
<polyline clip-path="url(#clip780)" style="stroke:#333333; stroke-linecap:round; stroke-linejoin:round; stroke-width:4; stroke-opacity:1; fill:none" points="1685.12,1824.31 1685.12,1843.21 "/>
<polyline clip-path="url(#clip780)" style="stroke:#333333; stroke-linecap:round; stroke-linejoin:round; stroke-width:4; stroke-opacity:1; fill:none" points="2377.4,1824.31 2377.4,1843.21 "/>
<polyline clip-path="url(#clip780)" style="stroke:#333333; stroke-linecap:round; stroke-linejoin:round; stroke-width:4; stroke-opacity:1; fill:none" points="3069.68,1824.31 3069.68,1843.21 "/>
<polyline clip-path="url(#clip780)" style="stroke:#333333; stroke-linecap:round; stroke-linejoin:round; stroke-width:4; stroke-opacity:1; fill:none" points="646.702,1824.31 646.702,1833.76 "/>
<polyline clip-path="url(#clip780)" style="stroke:#333333; stroke-linecap:round; stroke-linejoin:round; stroke-width:4; stroke-opacity:1; fill:none" points="1338.98,1824.31 1338.98,1833.76 "/>
<polyline clip-path="url(#clip780)" style="stroke:#333333; stroke-linecap:round; stroke-linejoin:round; stroke-width:4; stroke-opacity:1; fill:none" points="2031.26,1824.31 2031.26,1833.76 "/>
<polyline clip-path="url(#clip780)" style="stroke:#333333; stroke-linecap:round; stroke-linejoin:round; stroke-width:4; stroke-opacity:1; fill:none" points="2723.54,1824.31 2723.54,1833.76 "/>
<path clip-path="url(#clip780)" d="M262.866 1874.43 Q259.255 1874.43 257.426 1877.99 Q255.621 1881.53 255.621 1888.66 Q255.621 1895.77 257.426 1899.34 Q259.255 1902.88 262.866 1902.88 Q266.5 1902.88 268.306 1899.34 Q270.134 1895.77 270.134 1888.66 Q270.134 1881.53 268.306 1877.99 Q266.5 1874.43 262.866 1874.43 M262.866 1870.72 Q268.676 1870.72 271.732 1875.33 Q274.81 1879.91 274.81 1888.66 Q274.81 1897.39 271.732 1902 Q268.676 1906.58 262.866 1906.58 Q257.056 1906.58 253.977 1902 Q250.922 1897.39 250.922 1888.66 Q250.922 1879.91 253.977 1875.33 Q257.056 1870.72 262.866 1870.72 Z" fill="#4c4c4c" fill-rule="nonzero" fill-opacity="1" /><path clip-path="url(#clip780)" d="M283.028 1900.03 L287.912 1900.03 L287.912 1905.91 L283.028 1905.91 L283.028 1900.03 Z" fill="#4c4c4c" fill-rule="nonzero" fill-opacity="1" /><path clip-path="url(#clip780)" d="M308.097 1874.43 Q304.486 1874.43 302.657 1877.99 Q300.852 1881.53 300.852 1888.66 Q300.852 1895.77 302.657 1899.34 Q304.486 1902.88 308.097 1902.88 Q311.731 1902.88 313.537 1899.34 Q315.366 1895.77 315.366 1888.66 Q315.366 1881.53 313.537 1877.99 Q311.731 1874.43 308.097 1874.43 M308.097 1870.72 Q313.907 1870.72 316.963 1875.33 Q320.042 1879.91 320.042 1888.66 Q320.042 1897.39 316.963 1902 Q313.907 1906.58 308.097 1906.58 Q302.287 1906.58 299.208 1902 Q296.153 1897.39 296.153 1888.66 Q296.153 1879.91 299.208 1875.33 Q302.287 1870.72 308.097 1870.72 Z" fill="#4c4c4c" fill-rule="nonzero" fill-opacity="1" /><path clip-path="url(#clip780)" d="M338.259 1874.43 Q334.648 1874.43 332.819 1877.99 Q331.014 1881.53 331.014 1888.66 Q331.014 1895.77 332.819 1899.34 Q334.648 1902.88 338.259 1902.88 Q341.893 1902.88 343.699 1899.34 Q345.528 1895.77 345.528 1888.66 Q345.528 1881.53 343.699 1877.99 Q341.893 1874.43 338.259 1874.43 M338.259 1870.72 Q344.069 1870.72 347.125 1875.33 Q350.203 1879.91 350.203 1888.66 Q350.203 1897.39 347.125 1902 Q344.069 1906.58 338.259 1906.58 Q332.449 1906.58 329.37 1902 Q326.315 1897.39 326.315 1888.66 Q326.315 1879.91 329.37 1875.33 Q332.449 1870.72 338.259 1870.72 Z" fill="#4c4c4c" fill-rule="nonzero" fill-opacity="1" /><path clip-path="url(#clip780)" d="M955.644 1874.43 Q952.032 1874.43 950.204 1877.99 Q948.398 1881.53 948.398 1888.66 Q948.398 1895.77 950.204 1899.34 Q952.032 1902.88 955.644 1902.88 Q959.278 1902.88 961.083 1899.34 Q962.912 1895.77 962.912 1888.66 Q962.912 1881.53 961.083 1877.99 Q959.278 1874.43 955.644 1874.43 M955.644 1870.72 Q961.454 1870.72 964.509 1875.33 Q967.588 1879.91 967.588 1888.66 Q967.588 1897.39 964.509 1902 Q961.454 1906.58 955.644 1906.58 Q949.833 1906.58 946.755 1902 Q943.699 1897.39 943.699 1888.66 Q943.699 1879.91 946.755 1875.33 Q949.833 1870.72 955.644 1870.72 Z" fill="#4c4c4c" fill-rule="nonzero" fill-opacity="1" /><path clip-path="url(#clip780)" d="M975.806 1900.03 L980.69 1900.03 L980.69 1905.91 L975.806 1905.91 L975.806 1900.03 Z" fill="#4c4c4c" fill-rule="nonzero" fill-opacity="1" /><path clip-path="url(#clip780)" d="M994.903 1901.97 L1011.22 1901.97 L1011.22 1905.91 L989.278 1905.91 L989.278 1901.97 Q991.94 1899.22 996.523 1894.59 Q1001.13 1889.94 1002.31 1888.6 Q1004.56 1886.07 1005.43 1884.34 Q1006.34 1882.58 1006.34 1880.89 Q1006.34 1878.13 1004.39 1876.4 Q1002.47 1874.66 999.37 1874.66 Q997.171 1874.66 994.717 1875.42 Q992.287 1876.19 989.509 1877.74 L989.509 1873.02 Q992.333 1871.88 994.787 1871.3 Q997.241 1870.72 999.278 1870.72 Q1004.65 1870.72 1007.84 1873.41 Q1011.04 1876.1 1011.04 1880.59 Q1011.04 1882.72 1010.23 1884.64 Q1009.44 1886.53 1007.33 1889.13 Q1006.75 1889.8 1003.65 1893.02 Q1000.55 1896.21 994.903 1901.97 Z" fill="#4c4c4c" fill-rule="nonzero" fill-opacity="1" /><path clip-path="url(#clip780)" d="M1021.08 1871.35 L1039.44 1871.35 L1039.44 1875.29 L1025.37 1875.29 L1025.37 1883.76 Q1026.38 1883.41 1027.4 1883.25 Q1028.42 1883.06 1029.44 1883.06 Q1035.23 1883.06 1038.61 1886.23 Q1041.99 1889.41 1041.99 1894.82 Q1041.99 1900.4 1038.51 1903.5 Q1035.04 1906.58 1028.72 1906.58 Q1026.55 1906.58 1024.28 1906.21 Q1022.03 1905.84 1019.62 1905.1 L1019.62 1900.4 Q1021.71 1901.53 1023.93 1902.09 Q1026.15 1902.65 1028.63 1902.65 Q1032.63 1902.65 1034.97 1900.54 Q1037.31 1898.43 1037.31 1894.82 Q1037.31 1891.21 1034.97 1889.1 Q1032.63 1887 1028.63 1887 Q1026.75 1887 1024.88 1887.41 Q1023.03 1887.83 1021.08 1888.71 L1021.08 1871.35 Z" fill="#4c4c4c" fill-rule="nonzero" fill-opacity="1" /><path clip-path="url(#clip780)" d="M1647.43 1874.43 Q1643.81 1874.43 1641.99 1877.99 Q1640.18 1881.53 1640.18 1888.66 Q1640.18 1895.77 1641.99 1899.34 Q1643.81 1902.88 1647.43 1902.88 Q1651.06 1902.88 1652.87 1899.34 Q1654.69 1895.77 1654.69 1888.66 Q1654.69 1881.53 1652.87 1877.99 Q1651.06 1874.43 1647.43 1874.43 M1647.43 1870.72 Q1653.24 1870.72 1656.29 1875.33 Q1659.37 1879.91 1659.37 1888.66 Q1659.37 1897.39 1656.29 1902 Q1653.24 1906.58 1647.43 1906.58 Q1641.62 1906.58 1638.54 1902 Q1635.48 1897.39 1635.48 1888.66 Q1635.48 1879.91 1638.54 1875.33 Q1641.62 1870.72 1647.43 1870.72 Z" fill="#4c4c4c" fill-rule="nonzero" fill-opacity="1" /><path clip-path="url(#clip780)" d="M1667.59 1900.03 L1672.47 1900.03 L1672.47 1905.91 L1667.59 1905.91 L1667.59 1900.03 Z" fill="#4c4c4c" fill-rule="nonzero" fill-opacity="1" /><path clip-path="url(#clip780)" d="M1682.7 1871.35 L1701.06 1871.35 L1701.06 1875.29 L1686.99 1875.29 L1686.99 1883.76 Q1688 1883.41 1689.02 1883.25 Q1690.04 1883.06 1691.06 1883.06 Q1696.85 1883.06 1700.23 1886.23 Q1703.61 1889.41 1703.61 1894.82 Q1703.61 1900.4 1700.13 1903.5 Q1696.66 1906.58 1690.34 1906.58 Q1688.17 1906.58 1685.9 1906.21 Q1683.65 1905.84 1681.25 1905.1 L1681.25 1900.4 Q1683.33 1901.53 1685.55 1902.09 Q1687.77 1902.65 1690.25 1902.65 Q1694.25 1902.65 1696.59 1900.54 Q1698.93 1898.43 1698.93 1894.82 Q1698.93 1891.21 1696.59 1889.1 Q1694.25 1887 1690.25 1887 Q1688.37 1887 1686.5 1887.41 Q1684.65 1887.83 1682.7 1888.71 L1682.7 1871.35 Z" fill="#4c4c4c" fill-rule="nonzero" fill-opacity="1" /><path clip-path="url(#clip780)" d="M1722.82 1874.43 Q1719.21 1874.43 1717.38 1877.99 Q1715.57 1881.53 1715.57 1888.66 Q1715.57 1895.77 1717.38 1899.34 Q1719.21 1902.88 1722.82 1902.88 Q1726.45 1902.88 1728.26 1899.34 Q1730.09 1895.77 1730.09 1888.66 Q1730.09 1881.53 1728.26 1877.99 Q1726.45 1874.43 1722.82 1874.43 M1722.82 1870.72 Q1728.63 1870.72 1731.68 1875.33 Q1734.76 1879.91 1734.76 1888.66 Q1734.76 1897.39 1731.68 1902 Q1728.63 1906.58 1722.82 1906.58 Q1717.01 1906.58 1713.93 1902 Q1710.87 1897.39 1710.87 1888.66 Q1710.87 1879.91 1713.93 1875.33 Q1717.01 1870.72 1722.82 1870.72 Z" fill="#4c4c4c" fill-rule="nonzero" fill-opacity="1" /><path clip-path="url(#clip780)" d="M2340.2 1874.43 Q2336.59 1874.43 2334.76 1877.99 Q2332.96 1881.53 2332.96 1888.66 Q2332.96 1895.77 2334.76 1899.34 Q2336.59 1902.88 2340.2 1902.88 Q2343.84 1902.88 2345.64 1899.34 Q2347.47 1895.77 2347.47 1888.66 Q2347.47 1881.53 2345.64 1877.99 Q2343.84 1874.43 2340.2 1874.43 M2340.2 1870.72 Q2346.01 1870.72 2349.07 1875.33 Q2352.15 1879.91 2352.15 1888.66 Q2352.15 1897.39 2349.07 1902 Q2346.01 1906.58 2340.2 1906.58 Q2334.39 1906.58 2331.31 1902 Q2328.26 1897.39 2328.26 1888.66 Q2328.26 1879.91 2331.31 1875.33 Q2334.39 1870.72 2340.2 1870.72 Z" fill="#4c4c4c" fill-rule="nonzero" fill-opacity="1" /><path clip-path="url(#clip780)" d="M2360.37 1900.03 L2365.25 1900.03 L2365.25 1905.91 L2360.37 1905.91 L2360.37 1900.03 Z" fill="#4c4c4c" fill-rule="nonzero" fill-opacity="1" /><path clip-path="url(#clip780)" d="M2374.25 1871.35 L2396.48 1871.35 L2396.48 1873.34 L2383.93 1905.91 L2379.05 1905.91 L2390.85 1875.29 L2374.25 1875.29 L2374.25 1871.35 Z" fill="#4c4c4c" fill-rule="nonzero" fill-opacity="1" /><path clip-path="url(#clip780)" d="M2405.64 1871.35 L2424 1871.35 L2424 1875.29 L2409.93 1875.29 L2409.93 1883.76 Q2410.94 1883.41 2411.96 1883.25 Q2412.98 1883.06 2414 1883.06 Q2419.79 1883.06 2423.17 1886.23 Q2426.55 1889.41 2426.55 1894.82 Q2426.55 1900.4 2423.07 1903.5 Q2419.6 1906.58 2413.28 1906.58 Q2411.11 1906.58 2408.84 1906.21 Q2406.59 1905.84 2404.18 1905.1 L2404.18 1900.4 Q2406.27 1901.53 2408.49 1902.09 Q2410.71 1902.65 2413.19 1902.65 Q2417.19 1902.65 2419.53 1900.54 Q2421.87 1898.43 2421.87 1894.82 Q2421.87 1891.21 2419.53 1889.1 Q2417.19 1887 2413.19 1887 Q2411.31 1887 2409.44 1887.41 Q2407.59 1887.83 2405.64 1888.71 L2405.64 1871.35 Z" fill="#4c4c4c" fill-rule="nonzero" fill-opacity="1" /><path clip-path="url(#clip780)" d="M3021.75 1901.97 L3029.39 1901.97 L3029.39 1875.61 L3021.08 1877.28 L3021.08 1873.02 L3029.35 1871.35 L3034.02 1871.35 L3034.02 1901.97 L3041.66 1901.97 L3041.66 1905.91 L3021.75 1905.91 L3021.75 1901.97 Z" fill="#4c4c4c" fill-rule="nonzero" fill-opacity="1" /><path clip-path="url(#clip780)" d="M3051.11 1900.03 L3055.99 1900.03 L3055.99 1905.91 L3051.11 1905.91 L3051.11 1900.03 Z" fill="#4c4c4c" fill-rule="nonzero" fill-opacity="1" /><path clip-path="url(#clip780)" d="M3076.18 1874.43 Q3072.56 1874.43 3070.74 1877.99 Q3068.93 1881.53 3068.93 1888.66 Q3068.93 1895.77 3070.74 1899.34 Q3072.56 1902.88 3076.18 1902.88 Q3079.81 1902.88 3081.62 1899.34 Q3083.44 1895.77 3083.44 1888.66 Q3083.44 1881.53 3081.62 1877.99 Q3079.81 1874.43 3076.18 1874.43 M3076.18 1870.72 Q3081.99 1870.72 3085.04 1875.33 Q3088.12 1879.91 3088.12 1888.66 Q3088.12 1897.39 3085.04 1902 Q3081.99 1906.58 3076.18 1906.58 Q3070.37 1906.58 3067.29 1902 Q3064.23 1897.39 3064.23 1888.66 Q3064.23 1879.91 3067.29 1875.33 Q3070.37 1870.72 3076.18 1870.72 Z" fill="#4c4c4c" fill-rule="nonzero" fill-opacity="1" /><path clip-path="url(#clip780)" d="M3106.34 1874.43 Q3102.73 1874.43 3100.9 1877.99 Q3099.09 1881.53 3099.09 1888.66 Q3099.09 1895.77 3100.9 1899.34 Q3102.73 1902.88 3106.34 1902.88 Q3109.97 1902.88 3111.78 1899.34 Q3113.61 1895.77 3113.61 1888.66 Q3113.61 1881.53 3111.78 1877.99 Q3109.97 1874.43 3106.34 1874.43 M3106.34 1870.72 Q3112.15 1870.72 3115.2 1875.33 Q3118.28 1879.91 3118.28 1888.66 Q3118.28 1897.39 3115.2 1902 Q3112.15 1906.58 3106.34 1906.58 Q3100.53 1906.58 3097.45 1902 Q3094.39 1897.39 3094.39 1888.66 Q3094.39 1879.91 3097.45 1875.33 Q3100.53 1870.72 3106.34 1870.72 Z" fill="#4c4c4c" fill-rule="nonzero" fill-opacity="1" /><path clip-path="url(#clip780)" d="M1693.6 1945.04 Q1693.6 1945.94 1693.18 1946.16 Q1692.76 1946.36 1691.6 1946.36 L1685.42 1946.36 L1680.52 1965.81 Q1680.13 1967.52 1680.13 1968.97 Q1680.13 1970.58 1680.62 1971.29 Q1681.13 1971.99 1682.2 1971.99 Q1684.29 1971.99 1686.54 1970.09 Q1688.83 1968.19 1690.76 1963.56 Q1691.02 1962.94 1691.15 1962.82 Q1691.31 1962.65 1691.73 1962.65 Q1692.53 1962.65 1692.53 1963.3 Q1692.53 1963.52 1692.08 1964.55 Q1691.66 1965.59 1690.73 1967.1 Q1689.83 1968.61 1688.64 1970.03 Q1687.48 1971.45 1685.71 1972.48 Q1683.93 1973.48 1682.03 1973.48 Q1679.36 1973.48 1677.65 1971.77 Q1675.98 1970.06 1675.98 1967.39 Q1675.98 1966.52 1676.66 1963.75 Q1677.33 1960.95 1681 1946.36 L1675.17 1946.36 Q1674.37 1946.36 1674.05 1946.33 Q1673.76 1946.29 1673.53 1946.13 Q1673.34 1945.94 1673.34 1945.55 Q1673.34 1944.94 1673.6 1944.68 Q1673.85 1944.39 1674.18 1944.36 Q1674.53 1944.3 1675.34 1944.3 L1681.52 1944.3 L1684.1 1933.83 Q1684.35 1932.8 1685 1932.22 Q1685.67 1931.61 1686.06 1931.54 Q1686.45 1931.45 1686.74 1931.45 Q1687.61 1931.45 1688.12 1931.93 Q1688.64 1932.38 1688.64 1933.22 Q1688.64 1933.67 1685.93 1944.3 L1691.73 1944.3 Q1692.47 1944.3 1692.76 1944.33 Q1693.08 1944.36 1693.34 1944.52 Q1693.6 1944.68 1693.6 1945.04 Z" fill="#000000" fill-rule="nonzero" fill-opacity="1" /><polyline clip-path="url(#clip782)" style="stroke:#ffffff; stroke-linecap:round; stroke-linejoin:round; stroke-width:4; stroke-opacity:1; fill:none" points="217.489,1613.27 3152.76,1613.27 "/>
<polyline clip-path="url(#clip782)" style="stroke:#ffffff; stroke-linecap:round; stroke-linejoin:round; stroke-width:4; stroke-opacity:1; fill:none" points="217.489,1288.58 3152.76,1288.58 "/>
<polyline clip-path="url(#clip782)" style="stroke:#ffffff; stroke-linecap:round; stroke-linejoin:round; stroke-width:4; stroke-opacity:1; fill:none" points="217.489,963.901 3152.76,963.901 "/>
<polyline clip-path="url(#clip782)" style="stroke:#ffffff; stroke-linecap:round; stroke-linejoin:round; stroke-width:4; stroke-opacity:1; fill:none" points="217.489,639.218 3152.76,639.218 "/>
<polyline clip-path="url(#clip782)" style="stroke:#ffffff; stroke-linecap:round; stroke-linejoin:round; stroke-width:4; stroke-opacity:1; fill:none" points="217.489,314.536 3152.76,314.536 "/>
<polyline clip-path="url(#clip782)" style="stroke:#ffffff; stroke-linecap:round; stroke-linejoin:round; stroke-width:2; stroke-opacity:1; fill:none" points="217.489,1775.61 3152.76,1775.61 "/>
<polyline clip-path="url(#clip782)" style="stroke:#ffffff; stroke-linecap:round; stroke-linejoin:round; stroke-width:2; stroke-opacity:1; fill:none" points="217.489,1450.92 3152.76,1450.92 "/>
<polyline clip-path="url(#clip782)" style="stroke:#ffffff; stroke-linecap:round; stroke-linejoin:round; stroke-width:2; stroke-opacity:1; fill:none" points="217.489,1126.24 3152.76,1126.24 "/>
<polyline clip-path="url(#clip782)" style="stroke:#ffffff; stroke-linecap:round; stroke-linejoin:round; stroke-width:2; stroke-opacity:1; fill:none" points="217.489,801.56 3152.76,801.56 "/>
<polyline clip-path="url(#clip782)" style="stroke:#ffffff; stroke-linecap:round; stroke-linejoin:round; stroke-width:2; stroke-opacity:1; fill:none" points="217.489,476.877 3152.76,476.877 "/>
<polyline clip-path="url(#clip782)" style="stroke:#ffffff; stroke-linecap:round; stroke-linejoin:round; stroke-width:2; stroke-opacity:1; fill:none" points="217.489,152.195 3152.76,152.195 "/>
<polyline clip-path="url(#clip780)" style="stroke:#ffffff; stroke-linecap:round; stroke-linejoin:round; stroke-width:4; stroke-opacity:1; fill:none" points="217.489,1824.31 217.489,103.492 "/>
<polyline clip-path="url(#clip780)" style="stroke:#333333; stroke-linecap:round; stroke-linejoin:round; stroke-width:4; stroke-opacity:1; fill:none" points="217.489,1613.27 198.591,1613.27 "/>
<polyline clip-path="url(#clip780)" style="stroke:#333333; stroke-linecap:round; stroke-linejoin:round; stroke-width:4; stroke-opacity:1; fill:none" points="217.489,1288.58 198.591,1288.58 "/>
<polyline clip-path="url(#clip780)" style="stroke:#333333; stroke-linecap:round; stroke-linejoin:round; stroke-width:4; stroke-opacity:1; fill:none" points="217.489,963.901 198.591,963.901 "/>
<polyline clip-path="url(#clip780)" style="stroke:#333333; stroke-linecap:round; stroke-linejoin:round; stroke-width:4; stroke-opacity:1; fill:none" points="217.489,639.218 198.591,639.218 "/>
<polyline clip-path="url(#clip780)" style="stroke:#333333; stroke-linecap:round; stroke-linejoin:round; stroke-width:4; stroke-opacity:1; fill:none" points="217.489,314.536 198.591,314.536 "/>
<polyline clip-path="url(#clip780)" style="stroke:#333333; stroke-linecap:round; stroke-linejoin:round; stroke-width:4; stroke-opacity:1; fill:none" points="217.489,1775.61 208.04,1775.61 "/>
<polyline clip-path="url(#clip780)" style="stroke:#333333; stroke-linecap:round; stroke-linejoin:round; stroke-width:4; stroke-opacity:1; fill:none" points="217.489,1450.92 208.04,1450.92 "/>
<polyline clip-path="url(#clip780)" style="stroke:#333333; stroke-linecap:round; stroke-linejoin:round; stroke-width:4; stroke-opacity:1; fill:none" points="217.489,1126.24 208.04,1126.24 "/>
<polyline clip-path="url(#clip780)" style="stroke:#333333; stroke-linecap:round; stroke-linejoin:round; stroke-width:4; stroke-opacity:1; fill:none" points="217.489,801.56 208.04,801.56 "/>
<polyline clip-path="url(#clip780)" style="stroke:#333333; stroke-linecap:round; stroke-linejoin:round; stroke-width:4; stroke-opacity:1; fill:none" points="217.489,476.877 208.04,476.877 "/>
<polyline clip-path="url(#clip780)" style="stroke:#333333; stroke-linecap:round; stroke-linejoin:round; stroke-width:4; stroke-opacity:1; fill:none" points="217.489,152.195 208.04,152.195 "/>
<path clip-path="url(#clip780)" d="M83.2902 1613.72 L112.966 1613.72 L112.966 1617.65 L83.2902 1617.65 L83.2902 1613.72 Z" fill="#4c4c4c" fill-rule="nonzero" fill-opacity="1" /><path clip-path="url(#clip780)" d="M135.906 1600.06 L124.1 1618.51 L135.906 1618.51 L135.906 1600.06 M134.679 1595.99 L140.558 1595.99 L140.558 1618.51 L145.489 1618.51 L145.489 1622.4 L140.558 1622.4 L140.558 1630.55 L135.906 1630.55 L135.906 1622.4 L120.304 1622.4 L120.304 1617.88 L134.679 1595.99 Z" fill="#4c4c4c" fill-rule="nonzero" fill-opacity="1" /><path clip-path="url(#clip780)" d="M85.3735 1289.03 L115.049 1289.03 L115.049 1292.97 L85.3735 1292.97 L85.3735 1289.03 Z" fill="#4c4c4c" fill-rule="nonzero" fill-opacity="1" /><path clip-path="url(#clip780)" d="M129.17 1301.93 L145.489 1301.93 L145.489 1305.86 L123.545 1305.86 L123.545 1301.93 Q126.207 1299.17 130.79 1294.54 Q135.396 1289.89 136.577 1288.55 Q138.822 1286.03 139.702 1284.29 Q140.605 1282.53 140.605 1280.84 Q140.605 1278.09 138.66 1276.35 Q136.739 1274.61 133.637 1274.61 Q131.438 1274.61 128.984 1275.38 Q126.554 1276.14 123.776 1277.69 L123.776 1272.97 Q126.6 1271.84 129.054 1271.26 Q131.507 1270.68 133.545 1270.68 Q138.915 1270.68 142.109 1273.36 Q145.304 1276.05 145.304 1280.54 Q145.304 1282.67 144.494 1284.59 Q143.707 1286.49 141.6 1289.08 Q141.021 1289.75 137.919 1292.97 Q134.818 1296.16 129.17 1301.93 Z" fill="#4c4c4c" fill-rule="nonzero" fill-opacity="1" /><path clip-path="url(#clip780)" d="M133.545 949.7 Q129.933 949.7 128.105 953.264 Q126.299 956.806 126.299 963.936 Q126.299 971.042 128.105 974.607 Q129.933 978.149 133.545 978.149 Q137.179 978.149 138.984 974.607 Q140.813 971.042 140.813 963.936 Q140.813 956.806 138.984 953.264 Q137.179 949.7 133.545 949.7 M133.545 945.996 Q139.355 945.996 142.41 950.602 Q145.489 955.186 145.489 963.936 Q145.489 972.663 142.41 977.269 Q139.355 981.852 133.545 981.852 Q127.734 981.852 124.656 977.269 Q121.6 972.663 121.6 963.936 Q121.6 955.186 124.656 950.602 Q127.734 945.996 133.545 945.996 Z" fill="#4c4c4c" fill-rule="nonzero" fill-opacity="1" /><path clip-path="url(#clip780)" d="M129.17 652.563 L145.489 652.563 L145.489 656.498 L123.545 656.498 L123.545 652.563 Q126.207 649.809 130.79 645.179 Q135.396 640.526 136.577 639.184 Q138.822 636.661 139.702 634.924 Q140.605 633.165 140.605 631.475 Q140.605 628.721 138.66 626.985 Q136.739 625.249 133.637 625.249 Q131.438 625.249 128.984 626.012 Q126.554 626.776 123.776 628.327 L123.776 623.605 Q126.6 622.471 129.054 621.892 Q131.507 621.313 133.545 621.313 Q138.915 621.313 142.109 623.999 Q145.304 626.684 145.304 631.174 Q145.304 633.304 144.494 635.225 Q143.707 637.124 141.6 639.716 Q141.021 640.387 137.919 643.605 Q134.818 646.799 129.17 652.563 Z" fill="#4c4c4c" fill-rule="nonzero" fill-opacity="1" /><path clip-path="url(#clip780)" d="M135.906 301.33 L124.1 319.779 L135.906 319.779 L135.906 301.33 M134.679 297.256 L140.558 297.256 L140.558 319.779 L145.489 319.779 L145.489 323.668 L140.558 323.668 L140.558 331.816 L135.906 331.816 L135.906 323.668 L120.304 323.668 L120.304 319.154 L134.679 297.256 Z" fill="#4c4c4c" fill-rule="nonzero" fill-opacity="1" /><path clip-path="url(#clip780)" d="M8.05664 929.249 Q8.63635 929.249 8.95841 929.474 Q9.24826 929.7 9.28047 929.893 Q9.31267 930.054 9.37708 930.505 Q9.50591 931.986 9.95679 933.146 Q10.4077 934.305 11.2772 935.175 Q12.1146 936.044 12.8875 936.592 Q13.6605 937.139 14.9809 937.88 L52.5651 959.522 Q52.9516 959.748 53.1448 959.909 Q53.3703 960.038 53.5957 960.36 Q53.8212 960.682 53.8212 961.101 Q53.8212 961.68 53.4991 961.874 Q53.1771 962.067 52.1143 962.163 L18.8134 964.579 L52.4363 983.999 Q53.0482 984.353 53.2415 984.514 Q53.4669 984.643 53.6279 984.933 Q53.8212 985.191 53.8212 985.577 Q53.8212 986.028 53.5957 986.253 Q53.4025 986.479 53.1126 986.543 Q52.8228 986.575 52.1143 986.608 L11.7925 989.603 Q10.2788 989.699 9.82796 990.247 Q9.37708 990.762 9.37708 993.081 Q9.37708 993.725 9.34488 994.015 Q9.31267 994.273 9.15164 994.498 Q8.95841 994.724 8.57194 994.724 Q7.31591 994.724 7.31591 993.532 Q7.31591 992.405 7.41253 990.086 Q7.50914 987.767 7.50914 986.608 Q7.50914 985.255 7.41253 982.55 Q7.31591 979.844 7.31591 978.524 Q7.31591 977.59 8.05664 977.59 Q8.66855 977.59 8.99061 977.848 Q9.28047 978.073 9.34488 978.299 Q9.37708 978.524 9.37708 978.975 Q9.40929 980.746 9.63473 981.873 Q9.86017 982.968 10.3111 983.387 Q10.7297 983.806 11.0196 983.902 Q11.2772 983.999 11.7281 983.999 L45.19 981.487 L16.1081 964.804 L11.0196 965.191 Q10.0212 965.287 9.69914 965.931 Q9.37708 966.576 9.37708 968.669 Q9.37708 969.249 9.34488 969.539 Q9.31267 969.796 9.15164 970.054 Q8.99061 970.279 8.63635 970.279 Q8.02444 970.279 7.73458 970.022 Q7.41253 969.764 7.38032 969.571 Q7.31591 969.345 7.31591 969.023 Q7.31591 968.282 7.41253 965.577 Q7.50914 962.872 7.50914 962.099 Q7.50914 960.779 7.41253 958.073 Q7.31591 955.368 7.31591 954.048 Q7.31591 953.049 8.05664 953.049 Q8.95841 953.049 9.18385 953.436 Q9.37708 953.822 9.37708 954.82 Q9.40929 956.527 9.66694 957.59 Q9.92458 958.621 10.5043 959.007 Q11.0518 959.361 11.4061 959.426 Q11.7603 959.49 12.4688 959.458 L45.19 957.01 L14.1113 939.201 Q13.9825 939.136 13.6283 938.943 Q13.2418 938.718 13.1452 938.685 Q13.0486 938.621 12.7909 938.524 Q12.5333 938.395 12.3722 938.363 Q12.179 938.331 11.9536 938.331 Q10.6331 938.331 10.0534 939.523 Q9.44149 940.714 9.37708 942.228 Q9.37708 943.226 8.57194 943.226 Q7.99223 943.226 7.70238 942.969 Q7.38032 942.711 7.34811 942.518 Q7.31591 942.292 7.31591 941.97 Q7.31591 940.875 7.41253 938.556 Q7.50914 936.238 7.50914 935.11 Q7.50914 934.273 7.41253 932.534 Q7.31591 930.795 7.31591 930.022 Q7.31591 929.668 7.57355 929.474 Q7.8312 929.249 8.05664 929.249 Z" fill="#000000" fill-rule="nonzero" fill-opacity="1" /><path clip-path="url(#clip780)" d="M1074.61 13.4432 L1074.61 47.0368 L1081.67 47.0368 Q1090.61 47.0368 1094.75 42.9859 Q1098.91 38.935 1098.91 30.1966 Q1098.91 21.5161 1094.75 17.4941 Q1090.61 13.4432 1081.67 13.4432 L1074.61 13.4432 M1068.76 8.64 L1080.77 8.64 Q1093.33 8.64 1099.2 13.8772 Q1105.08 19.0855 1105.08 30.1966 Q1105.08 41.3655 1099.17 46.6028 Q1093.27 51.84 1080.77 51.84 L1068.76 51.84 L1068.76 8.64 Z" fill="#000000" fill-rule="nonzero" fill-opacity="1" /><path clip-path="url(#clip780)" d="M1114.16 19.4328 L1119.49 19.4328 L1119.49 51.84 L1114.16 51.84 L1114.16 19.4328 M1114.16 6.81709 L1119.49 6.81709 L1119.49 13.559 L1114.16 13.559 L1114.16 6.81709 Z" fill="#000000" fill-rule="nonzero" fill-opacity="1" /><path clip-path="url(#clip780)" d="M1151.29 20.3876 L1151.29 25.4223 Q1149.03 24.2649 1146.6 23.6862 Q1144.17 23.1075 1141.56 23.1075 Q1137.6 23.1075 1135.6 24.3228 Q1133.64 25.5381 1133.64 27.9686 Q1133.64 29.8204 1135.05 30.891 Q1136.47 31.9327 1140.75 32.8876 L1142.58 33.2926 Q1148.25 34.5079 1150.62 36.7359 Q1153.02 38.935 1153.02 42.8991 Q1153.02 47.4129 1149.43 50.046 Q1145.87 52.6791 1139.62 52.6791 Q1137.02 52.6791 1134.18 52.1583 Q1131.38 51.6664 1128.25 50.6537 L1128.25 45.156 Q1131.2 46.6896 1134.07 47.4708 Q1136.93 48.2231 1139.74 48.2231 Q1143.5 48.2231 1145.53 46.95 Q1147.55 45.6479 1147.55 43.3042 Q1147.55 41.134 1146.08 39.9766 Q1144.63 38.8192 1139.68 37.7486 L1137.83 37.3146 Q1132.88 36.273 1130.68 34.1318 Q1128.48 31.9616 1128.48 28.2001 Q1128.48 23.6283 1131.73 21.1399 Q1134.97 18.6515 1140.93 18.6515 Q1143.88 18.6515 1146.48 19.0855 Q1149.09 19.5196 1151.29 20.3876 Z" fill="#000000" fill-rule="nonzero" fill-opacity="1" /><path clip-path="url(#clip780)" d="M1184.82 20.677 L1184.82 25.6538 Q1182.56 24.4096 1180.28 23.802 Q1178.02 23.1654 1175.71 23.1654 Q1170.53 23.1654 1167.66 26.464 Q1164.8 29.7336 1164.8 35.6653 Q1164.8 41.597 1167.66 44.8956 Q1170.53 48.1653 1175.71 48.1653 Q1178.02 48.1653 1180.28 47.5576 Q1182.56 46.921 1184.82 45.6768 L1184.82 50.5958 Q1182.59 51.6375 1180.19 52.1583 Q1177.82 52.6791 1175.13 52.6791 Q1167.81 52.6791 1163.5 48.0784 Q1159.18 43.4778 1159.18 35.6653 Q1159.18 27.7371 1163.53 23.1943 Q1167.89 18.6515 1175.48 18.6515 Q1177.93 18.6515 1180.28 19.1724 Q1182.62 19.6642 1184.82 20.677 Z" fill="#000000" fill-rule="nonzero" fill-opacity="1" /><path clip-path="url(#clip780)" d="M1212.86 24.4096 Q1211.96 23.8888 1210.89 23.6573 Q1209.85 23.3969 1208.58 23.3969 Q1204.06 23.3969 1201.63 26.3482 Q1199.23 29.2707 1199.23 34.7683 L1199.23 51.84 L1193.88 51.84 L1193.88 19.4328 L1199.23 19.4328 L1199.23 24.4675 Q1200.91 21.5161 1203.6 20.0983 Q1206.29 18.6515 1210.14 18.6515 Q1210.69 18.6515 1211.35 18.7383 Q1212.02 18.7962 1212.83 18.9409 L1212.86 24.4096 Z" fill="#000000" fill-rule="nonzero" fill-opacity="1" /><path clip-path="url(#clip780)" d="M1244.86 34.3054 L1244.86 36.9095 L1220.38 36.9095 Q1220.73 42.4072 1223.68 45.3007 Q1226.66 48.1653 1231.96 48.1653 Q1235.02 48.1653 1237.89 47.4129 Q1240.78 46.6606 1243.62 45.156 L1243.62 50.1907 Q1240.75 51.406 1237.74 52.0425 Q1234.73 52.6791 1231.64 52.6791 Q1223.88 52.6791 1219.34 48.1653 Q1214.83 43.6514 1214.83 35.9547 Q1214.83 27.9975 1219.11 23.339 Q1223.42 18.6515 1230.71 18.6515 Q1237.25 18.6515 1241.04 22.876 Q1244.86 27.0716 1244.86 34.3054 M1239.54 32.7429 Q1239.48 28.3737 1237.08 25.7695 Q1234.71 23.1654 1230.77 23.1654 Q1226.31 23.1654 1223.62 25.6827 Q1220.96 28.2001 1220.56 32.7718 L1239.54 32.7429 Z" fill="#000000" fill-rule="nonzero" fill-opacity="1" /><path clip-path="url(#clip780)" d="M1258.87 10.2314 L1258.87 19.4328 L1269.83 19.4328 L1269.83 23.5705 L1258.87 23.5705 L1258.87 41.163 Q1258.87 45.1271 1259.94 46.2555 Q1261.04 47.384 1264.36 47.384 L1269.83 47.384 L1269.83 51.84 L1264.36 51.84 Q1258.2 51.84 1255.86 49.5541 Q1253.51 47.2393 1253.51 41.163 L1253.51 23.5705 L1249.61 23.5705 L1249.61 19.4328 L1253.51 19.4328 L1253.51 10.2314 L1258.87 10.2314 Z" fill="#000000" fill-rule="nonzero" fill-opacity="1" /><path clip-path="url(#clip780)" d="M1276.83 19.4328 L1282.16 19.4328 L1282.16 51.84 L1276.83 51.84 L1276.83 19.4328 M1276.83 6.81709 L1282.16 6.81709 L1282.16 13.559 L1276.83 13.559 L1276.83 6.81709 Z" fill="#000000" fill-rule="nonzero" fill-opacity="1" /><path clip-path="url(#clip780)" d="M1290.98 19.4328 L1316.27 19.4328 L1316.27 24.2939 L1296.25 47.5866 L1316.27 47.5866 L1316.27 51.84 L1290.26 51.84 L1290.26 46.9789 L1310.28 23.6862 L1290.98 23.6862 L1290.98 19.4328 Z" fill="#000000" fill-rule="nonzero" fill-opacity="1" /><path clip-path="url(#clip780)" d="M1339.13 35.5496 Q1332.68 35.5496 1330.19 37.0253 Q1327.7 38.501 1327.7 42.06 Q1327.7 44.8956 1329.55 46.5738 Q1331.44 48.2231 1334.65 48.2231 Q1339.07 48.2231 1341.74 45.0981 Q1344.43 41.9442 1344.43 36.7359 L1344.43 35.5496 L1339.13 35.5496 M1349.75 33.3505 L1349.75 51.84 L1344.43 51.84 L1344.43 46.921 Q1342.6 49.8724 1339.88 51.2902 Q1337.16 52.6791 1333.23 52.6791 Q1328.25 52.6791 1325.3 49.9014 Q1322.38 47.0947 1322.38 42.4072 Q1322.38 36.9385 1326.02 34.1607 Q1329.7 31.3829 1336.96 31.3829 L1344.43 31.3829 L1344.43 30.8621 Q1344.43 27.1874 1342 25.1908 Q1339.59 23.1654 1335.23 23.1654 Q1332.45 23.1654 1329.81 23.8309 Q1327.18 24.4964 1324.75 25.8274 L1324.75 20.9085 Q1327.67 19.78 1330.42 19.2302 Q1333.17 18.6515 1335.78 18.6515 Q1342.81 18.6515 1346.28 22.2973 Q1349.75 25.9431 1349.75 33.3505 Z" fill="#000000" fill-rule="nonzero" fill-opacity="1" /><path clip-path="url(#clip780)" d="M1384.04 20.677 L1384.04 25.6538 Q1381.78 24.4096 1379.5 23.802 Q1377.24 23.1654 1374.92 23.1654 Q1369.75 23.1654 1366.88 26.464 Q1364.02 29.7336 1364.02 35.6653 Q1364.02 41.597 1366.88 44.8956 Q1369.75 48.1653 1374.92 48.1653 Q1377.24 48.1653 1379.5 47.5576 Q1381.78 46.921 1384.04 45.6768 L1384.04 50.5958 Q1381.81 51.6375 1379.41 52.1583 Q1377.04 52.6791 1374.35 52.6791 Q1367.03 52.6791 1362.71 48.0784 Q1358.4 43.4778 1358.4 35.6653 Q1358.4 27.7371 1362.74 23.1943 Q1367.11 18.6515 1374.69 18.6515 Q1377.15 18.6515 1379.5 19.1724 Q1381.84 19.6642 1384.04 20.677 M1376.52 51.84 Q1378.11 53.634 1378.89 55.1386 Q1379.67 56.6722 1379.67 58.061 Q1379.67 60.6362 1377.93 61.9383 Q1376.2 63.2693 1372.78 63.2693 Q1371.45 63.2693 1370.18 63.0957 Q1368.93 62.9221 1367.69 62.5749 L1367.69 58.7844 Q1368.67 59.2763 1369.75 59.4788 Q1370.82 59.7103 1372.18 59.7103 Q1373.88 59.7103 1374.75 59.0159 Q1375.62 58.3214 1375.62 56.9904 Q1375.62 56.1224 1374.98 54.8492 Q1374.37 53.605 1373.07 51.84 L1376.52 51.84 Z" fill="#000000" fill-rule="nonzero" fill-opacity="1" /><path clip-path="url(#clip780)" d="M1405.86 23.1654 Q1401.57 23.1654 1399.09 26.5218 Q1396.6 29.8494 1396.6 35.6653 Q1396.6 41.4813 1399.06 44.8377 Q1401.54 48.1653 1405.86 48.1653 Q1410.11 48.1653 1412.6 44.8088 Q1415.09 41.4523 1415.09 35.6653 Q1415.09 29.9072 1412.6 26.5508 Q1410.11 23.1654 1405.86 23.1654 M1405.86 18.6515 Q1412.8 18.6515 1416.76 23.1654 Q1420.73 27.6792 1420.73 35.6653 Q1420.73 43.6225 1416.76 48.1653 Q1412.8 52.6791 1405.86 52.6791 Q1398.88 52.6791 1394.92 48.1653 Q1390.98 43.6225 1390.98 35.6653 Q1390.98 27.6792 1394.92 23.1654 Q1398.88 18.6515 1405.86 18.6515 M1405.74 12.199 L1404.09 10.6076 Q1403.45 10.0289 1402.96 9.76847 Q1402.5 9.47912 1402.12 9.47912 Q1401.02 9.47912 1400.5 10.5497 Q1399.98 11.5914 1399.92 13.964 L1396.31 13.964 Q1396.37 10.0578 1397.84 7.94556 Q1399.32 5.80437 1401.95 5.80437 Q1403.05 5.80437 1403.98 6.20946 Q1404.9 6.61455 1405.97 7.5694 L1407.62 9.16083 Q1408.26 9.73953 1408.72 10.0289 Q1409.21 10.2893 1409.59 10.2893 Q1410.69 10.2893 1411.21 9.24764 Q1411.73 8.17704 1411.79 5.80437 L1415.4 5.80437 Q1415.35 9.7106 1413.87 11.8518 Q1412.4 13.964 1409.76 13.964 Q1408.66 13.964 1407.74 13.559 Q1406.81 13.1539 1405.74 12.199 Z" fill="#000000" fill-rule="nonzero" fill-opacity="1" /><path clip-path="url(#clip780)" d="M1457.27 34.3054 L1457.27 36.9095 L1432.79 36.9095 Q1433.14 42.4072 1436.09 45.3007 Q1439.07 48.1653 1444.37 48.1653 Q1447.44 48.1653 1450.3 47.4129 Q1453.19 46.6606 1456.03 45.156 L1456.03 50.1907 Q1453.16 51.406 1450.16 52.0425 Q1447.15 52.6791 1444.05 52.6791 Q1436.3 52.6791 1431.75 48.1653 Q1427.24 43.6514 1427.24 35.9547 Q1427.24 27.9975 1431.52 23.339 Q1435.83 18.6515 1443.12 18.6515 Q1449.66 18.6515 1453.45 22.876 Q1457.27 27.0716 1457.27 34.3054 M1451.95 32.7429 Q1451.89 28.3737 1449.49 25.7695 Q1447.12 23.1654 1443.18 23.1654 Q1438.73 23.1654 1436.04 25.6827 Q1433.37 28.2001 1432.97 32.7718 L1451.95 32.7429 Z" fill="#000000" fill-rule="nonzero" fill-opacity="1" /><path clip-path="url(#clip780)" d="M1486.67 20.3876 L1486.67 25.4223 Q1484.41 24.2649 1481.98 23.6862 Q1479.55 23.1075 1476.95 23.1075 Q1472.99 23.1075 1470.99 24.3228 Q1469.02 25.5381 1469.02 27.9686 Q1469.02 29.8204 1470.44 30.891 Q1471.86 31.9327 1476.14 32.8876 L1477.96 33.2926 Q1483.63 34.5079 1486.01 36.7359 Q1488.41 38.935 1488.41 42.8991 Q1488.41 47.4129 1484.82 50.046 Q1481.26 52.6791 1475.01 52.6791 Q1472.41 52.6791 1469.57 52.1583 Q1466.76 51.6664 1463.64 50.6537 L1463.64 45.156 Q1466.59 46.6896 1469.46 47.4708 Q1472.32 48.2231 1475.13 48.2231 Q1478.89 48.2231 1480.91 46.95 Q1482.94 45.6479 1482.94 43.3042 Q1482.94 41.134 1481.46 39.9766 Q1480.02 38.8192 1475.07 37.7486 L1473.22 37.3146 Q1468.27 36.273 1466.07 34.1318 Q1463.87 31.9616 1463.87 28.2001 Q1463.87 23.6283 1467.11 21.1399 Q1470.35 18.6515 1476.31 18.6515 Q1479.26 18.6515 1481.87 19.0855 Q1484.47 19.5196 1486.67 20.3876 Z" fill="#000000" fill-rule="nonzero" fill-opacity="1" /><path clip-path="url(#clip780)" d="M1537.05 24.3517 L1537.05 6.81709 L1542.37 6.81709 L1542.37 51.84 L1537.05 51.84 L1537.05 46.9789 Q1535.37 49.8724 1532.79 51.2902 Q1530.25 52.6791 1526.66 52.6791 Q1520.79 52.6791 1517.08 47.9916 Q1513.41 43.3042 1513.41 35.6653 Q1513.41 28.0265 1517.08 23.339 Q1520.79 18.6515 1526.66 18.6515 Q1530.25 18.6515 1532.79 20.0693 Q1535.37 21.4582 1537.05 24.3517 M1518.91 35.6653 Q1518.91 41.5391 1521.31 44.8956 Q1523.74 48.2231 1527.96 48.2231 Q1532.19 48.2231 1534.62 44.8956 Q1537.05 41.5391 1537.05 35.6653 Q1537.05 29.7915 1534.62 26.464 Q1532.19 23.1075 1527.96 23.1075 Q1523.74 23.1075 1521.31 26.464 Q1518.91 29.7915 1518.91 35.6653 Z" fill="#000000" fill-rule="nonzero" fill-opacity="1" /><path clip-path="url(#clip780)" d="M1581.06 34.3054 L1581.06 36.9095 L1556.58 36.9095 Q1556.93 42.4072 1559.88 45.3007 Q1562.86 48.1653 1568.15 48.1653 Q1571.22 48.1653 1574.08 47.4129 Q1576.98 46.6606 1579.81 45.156 L1579.81 50.1907 Q1576.95 51.406 1573.94 52.0425 Q1570.93 52.6791 1567.83 52.6791 Q1560.08 52.6791 1555.54 48.1653 Q1551.02 43.6514 1551.02 35.9547 Q1551.02 27.9975 1555.31 23.339 Q1559.62 18.6515 1566.91 18.6515 Q1573.45 18.6515 1577.24 22.876 Q1581.06 27.0716 1581.06 34.3054 M1575.73 32.7429 Q1575.68 28.3737 1573.27 25.7695 Q1570.9 23.1654 1566.97 23.1654 Q1562.51 23.1654 1559.82 25.6827 Q1557.16 28.2001 1556.75 32.7718 L1575.73 32.7429 Z" fill="#000000" fill-rule="nonzero" fill-opacity="1" /><path clip-path="url(#clip780)" d="M1608.08 39.0507 L1608.08 19.4328 L1613.41 19.4328 L1613.41 38.8482 Q1613.41 43.4488 1615.2 45.7636 Q1616.99 48.0495 1620.58 48.0495 Q1624.89 48.0495 1627.38 45.3007 Q1629.9 42.5519 1629.9 37.8065 L1629.9 19.4328 L1635.22 19.4328 L1635.22 51.84 L1629.9 51.84 L1629.9 46.8632 Q1627.96 49.8145 1625.39 51.2613 Q1622.84 52.6791 1619.45 52.6791 Q1613.87 52.6791 1610.98 49.2069 Q1608.08 45.7347 1608.08 39.0507 M1621.48 18.6515 L1621.48 18.6515 Z" fill="#000000" fill-rule="nonzero" fill-opacity="1" /><path clip-path="url(#clip780)" d="M1671.42 25.6538 Q1673.42 22.0659 1676.2 20.3587 Q1678.97 18.6515 1682.74 18.6515 Q1687.8 18.6515 1690.55 22.2105 Q1693.3 25.7406 1693.3 32.2799 L1693.3 51.84 L1687.94 51.84 L1687.94 32.4535 Q1687.94 27.795 1686.29 25.5381 Q1684.64 23.2811 1681.26 23.2811 Q1677.12 23.2811 1674.72 26.03 Q1672.32 28.7788 1672.32 33.5241 L1672.32 51.84 L1666.97 51.84 L1666.97 32.4535 Q1666.97 27.7661 1665.32 25.5381 Q1663.67 23.2811 1660.22 23.2811 Q1656.14 23.2811 1653.74 26.0589 Q1651.34 28.8077 1651.34 33.5241 L1651.34 51.84 L1645.99 51.84 L1645.99 19.4328 L1651.34 19.4328 L1651.34 24.4675 Q1653.16 21.4872 1655.71 20.0693 Q1658.26 18.6515 1661.76 18.6515 Q1665.29 18.6515 1667.75 20.4455 Q1670.24 22.2395 1671.42 25.6538 Z" fill="#000000" fill-rule="nonzero" fill-opacity="1" /><path clip-path="url(#clip780)" d="M1727.9 46.9789 L1727.9 64.1663 L1722.55 64.1663 L1722.55 19.4328 L1727.9 19.4328 L1727.9 24.3517 Q1729.58 21.4582 1732.13 20.0693 Q1734.7 18.6515 1738.26 18.6515 Q1744.16 18.6515 1747.84 23.339 Q1751.54 28.0265 1751.54 35.6653 Q1751.54 43.3042 1747.84 47.9916 Q1744.16 52.6791 1738.26 52.6791 Q1734.7 52.6791 1732.13 51.2902 Q1729.58 49.8724 1727.9 46.9789 M1746.02 35.6653 Q1746.02 29.7915 1743.59 26.464 Q1741.18 23.1075 1736.96 23.1075 Q1732.73 23.1075 1730.3 26.464 Q1727.9 29.7915 1727.9 35.6653 Q1727.9 41.5391 1730.3 44.8956 Q1732.73 48.2231 1736.96 48.2231 Q1741.18 48.2231 1743.59 44.8956 Q1746.02 41.5391 1746.02 35.6653 Z" fill="#000000" fill-rule="nonzero" fill-opacity="1" /><path clip-path="url(#clip780)" d="M1779.15 24.4096 Q1778.25 23.8888 1777.18 23.6573 Q1776.14 23.3969 1774.86 23.3969 Q1770.35 23.3969 1767.92 26.3482 Q1765.52 29.2707 1765.52 34.7683 L1765.52 51.84 L1760.17 51.84 L1760.17 19.4328 L1765.52 19.4328 L1765.52 24.4675 Q1767.2 21.5161 1769.89 20.0983 Q1772.58 18.6515 1776.43 18.6515 Q1776.98 18.6515 1777.64 18.7383 Q1778.31 18.7962 1779.12 18.9409 L1779.15 24.4096 Z" fill="#000000" fill-rule="nonzero" fill-opacity="1" /><path clip-path="url(#clip780)" d="M1795.99 23.1654 Q1791.7 23.1654 1789.22 26.5218 Q1786.73 29.8494 1786.73 35.6653 Q1786.73 41.4813 1789.19 44.8377 Q1791.68 48.1653 1795.99 48.1653 Q1800.24 48.1653 1802.73 44.8088 Q1805.22 41.4523 1805.22 35.6653 Q1805.22 29.9072 1802.73 26.5508 Q1800.24 23.1654 1795.99 23.1654 M1795.99 18.6515 Q1802.93 18.6515 1806.9 23.1654 Q1810.86 27.6792 1810.86 35.6653 Q1810.86 43.6225 1806.9 48.1653 Q1802.93 52.6791 1795.99 52.6791 Q1789.01 52.6791 1785.05 48.1653 Q1781.11 43.6225 1781.11 35.6653 Q1781.11 27.6792 1785.05 23.1654 Q1789.01 18.6515 1795.99 18.6515 Z" fill="#000000" fill-rule="nonzero" fill-opacity="1" /><path clip-path="url(#clip780)" d="M1843.01 20.677 L1843.01 25.6538 Q1840.75 24.4096 1838.46 23.802 Q1836.21 23.1654 1833.89 23.1654 Q1828.71 23.1654 1825.85 26.464 Q1822.98 29.7336 1822.98 35.6653 Q1822.98 41.597 1825.85 44.8956 Q1828.71 48.1653 1833.89 48.1653 Q1836.21 48.1653 1838.46 47.5576 Q1840.75 46.921 1843.01 45.6768 L1843.01 50.5958 Q1840.78 51.6375 1838.38 52.1583 Q1836 52.6791 1833.31 52.6791 Q1825.99 52.6791 1821.68 48.0784 Q1817.37 43.4778 1817.37 35.6653 Q1817.37 27.7371 1821.71 23.1943 Q1826.08 18.6515 1833.66 18.6515 Q1836.12 18.6515 1838.46 19.1724 Q1840.81 19.6642 1843.01 20.677 Z" fill="#000000" fill-rule="nonzero" fill-opacity="1" /><path clip-path="url(#clip780)" d="M1879.99 34.3054 L1879.99 36.9095 L1855.51 36.9095 Q1855.85 42.4072 1858.8 45.3007 Q1861.79 48.1653 1867.08 48.1653 Q1870.15 48.1653 1873.01 47.4129 Q1875.91 46.6606 1878.74 45.156 L1878.74 50.1907 Q1875.88 51.406 1872.87 52.0425 Q1869.86 52.6791 1866.76 52.6791 Q1859.01 52.6791 1854.46 48.1653 Q1849.95 43.6514 1849.95 35.9547 Q1849.95 27.9975 1854.23 23.339 Q1858.54 18.6515 1865.84 18.6515 Q1872.38 18.6515 1876.17 22.876 Q1879.99 27.0716 1879.99 34.3054 M1874.66 32.7429 Q1874.6 28.3737 1872.2 25.7695 Q1869.83 23.1654 1865.89 23.1654 Q1861.44 23.1654 1858.75 25.6827 Q1856.09 28.2001 1855.68 32.7718 L1874.66 32.7429 Z" fill="#000000" fill-rule="nonzero" fill-opacity="1" /><path clip-path="url(#clip780)" d="M1909.38 20.3876 L1909.38 25.4223 Q1907.13 24.2649 1904.7 23.6862 Q1902.27 23.1075 1899.66 23.1075 Q1895.7 23.1075 1893.7 24.3228 Q1891.73 25.5381 1891.73 27.9686 Q1891.73 29.8204 1893.15 30.891 Q1894.57 31.9327 1898.85 32.8876 L1900.67 33.2926 Q1906.35 34.5079 1908.72 36.7359 Q1911.12 38.935 1911.12 42.8991 Q1911.12 47.4129 1907.53 50.046 Q1903.97 52.6791 1897.72 52.6791 Q1895.12 52.6791 1892.28 52.1583 Q1889.48 51.6664 1886.35 50.6537 L1886.35 45.156 Q1889.3 46.6896 1892.17 47.4708 Q1895.03 48.2231 1897.84 48.2231 Q1901.6 48.2231 1903.63 46.95 Q1905.65 45.6479 1905.65 43.3042 Q1905.65 41.134 1904.18 39.9766 Q1902.73 38.8192 1897.78 37.7486 L1895.93 37.3146 Q1890.98 36.273 1888.78 34.1318 Q1886.58 31.9616 1886.58 28.2001 Q1886.58 23.6283 1889.82 21.1399 Q1893.06 18.6515 1899.02 18.6515 Q1901.98 18.6515 1904.58 19.0855 Q1907.18 19.5196 1909.38 20.3876 Z" fill="#000000" fill-rule="nonzero" fill-opacity="1" /><path clip-path="url(#clip780)" d="M1940.26 20.3876 L1940.26 25.4223 Q1938 24.2649 1935.57 23.6862 Q1933.14 23.1075 1930.53 23.1075 Q1926.57 23.1075 1924.57 24.3228 Q1922.61 25.5381 1922.61 27.9686 Q1922.61 29.8204 1924.02 30.891 Q1925.44 31.9327 1929.72 32.8876 L1931.55 33.2926 Q1937.22 34.5079 1939.59 36.7359 Q1941.99 38.935 1941.99 42.8991 Q1941.99 47.4129 1938.41 50.046 Q1934.85 52.6791 1928.6 52.6791 Q1925.99 52.6791 1923.16 52.1583 Q1920.35 51.6664 1917.22 50.6537 L1917.22 45.156 Q1920.18 46.6896 1923.04 47.4708 Q1925.91 48.2231 1928.71 48.2231 Q1932.47 48.2231 1934.5 46.95 Q1936.52 45.6479 1936.52 43.3042 Q1936.52 41.134 1935.05 39.9766 Q1933.6 38.8192 1928.65 37.7486 L1926.8 37.3146 Q1921.85 36.273 1919.66 34.1318 Q1917.46 31.9616 1917.46 28.2001 Q1917.46 23.6283 1920.7 21.1399 Q1923.94 18.6515 1929.9 18.6515 Q1932.85 18.6515 1935.45 19.0855 Q1938.06 19.5196 1940.26 20.3876 Z" fill="#000000" fill-rule="nonzero" fill-opacity="1" /><path clip-path="url(#clip780)" d="M1963.03 23.1654 Q1958.75 23.1654 1956.26 26.5218 Q1953.77 29.8494 1953.77 35.6653 Q1953.77 41.4813 1956.23 44.8377 Q1958.72 48.1653 1963.03 48.1653 Q1967.28 48.1653 1969.77 44.8088 Q1972.26 41.4523 1972.26 35.6653 Q1972.26 29.9072 1969.77 26.5508 Q1967.28 23.1654 1963.03 23.1654 M1963.03 18.6515 Q1969.97 18.6515 1973.94 23.1654 Q1977.9 27.6792 1977.9 35.6653 Q1977.9 43.6225 1973.94 48.1653 Q1969.97 52.6791 1963.03 52.6791 Q1956.06 52.6791 1952.09 48.1653 Q1948.16 43.6225 1948.16 35.6653 Q1948.16 27.6792 1952.09 23.1654 Q1956.06 18.6515 1963.03 18.6515 Z" fill="#000000" fill-rule="nonzero" fill-opacity="1" /><path clip-path="url(#clip780)" d="M2026.89 24.3517 L2026.89 6.81709 L2032.21 6.81709 L2032.21 51.84 L2026.89 51.84 L2026.89 46.9789 Q2025.21 49.8724 2022.64 51.2902 Q2020.09 52.6791 2016.5 52.6791 Q2010.63 52.6791 2006.92 47.9916 Q2003.25 43.3042 2003.25 35.6653 Q2003.25 28.0265 2006.92 23.339 Q2010.63 18.6515 2016.5 18.6515 Q2020.09 18.6515 2022.64 20.0693 Q2025.21 21.4582 2026.89 24.3517 M2008.75 35.6653 Q2008.75 41.5391 2011.15 44.8956 Q2013.58 48.2231 2017.8 48.2231 Q2022.03 48.2231 2024.46 44.8956 Q2026.89 41.5391 2026.89 35.6653 Q2026.89 29.7915 2024.46 26.464 Q2022.03 23.1075 2017.8 23.1075 Q2013.58 23.1075 2011.15 26.464 Q2008.75 29.7915 2008.75 35.6653 Z" fill="#000000" fill-rule="nonzero" fill-opacity="1" /><path clip-path="url(#clip780)" d="M2070.9 34.3054 L2070.9 36.9095 L2046.42 36.9095 Q2046.77 42.4072 2049.72 45.3007 Q2052.7 48.1653 2057.99 48.1653 Q2061.06 48.1653 2063.93 47.4129 Q2066.82 46.6606 2069.65 45.156 L2069.65 50.1907 Q2066.79 51.406 2063.78 52.0425 Q2060.77 52.6791 2057.68 52.6791 Q2049.92 52.6791 2045.38 48.1653 Q2040.86 43.6514 2040.86 35.9547 Q2040.86 27.9975 2045.15 23.339 Q2049.46 18.6515 2056.75 18.6515 Q2063.29 18.6515 2067.08 22.876 Q2070.9 27.0716 2070.9 34.3054 M2065.57 32.7429 Q2065.52 28.3737 2063.12 25.7695 Q2060.74 23.1654 2056.81 23.1654 Q2052.35 23.1654 2049.66 25.6827 Q2047 28.2001 2046.59 32.7718 L2065.57 32.7429 Z" fill="#000000" fill-rule="nonzero" fill-opacity="1" /><path clip-path="url(#clip780)" d="M2094.86 8.64 L2100.76 8.64 L2109.85 45.156 L2118.9 8.64 L2125.47 8.64 L2134.56 45.156 L2143.61 8.64 L2149.54 8.64 L2138.69 51.84 L2131.34 51.84 L2122.23 14.3402 L2113.03 51.84 L2105.68 51.84 L2094.86 8.64 Z" fill="#000000" fill-rule="nonzero" fill-opacity="1" /><path clip-path="url(#clip780)" d="M2155.77 19.4328 L2161.09 19.4328 L2161.09 51.84 L2155.77 51.84 L2155.77 19.4328 M2155.77 6.81709 L2161.09 6.81709 L2161.09 13.559 L2155.77 13.559 L2155.77 6.81709 Z" fill="#000000" fill-rule="nonzero" fill-opacity="1" /><path clip-path="url(#clip780)" d="M2199.95 34.3054 L2199.95 36.9095 L2175.47 36.9095 Q2175.82 42.4072 2178.77 45.3007 Q2181.75 48.1653 2187.04 48.1653 Q2190.11 48.1653 2192.98 47.4129 Q2195.87 46.6606 2198.7 45.156 L2198.7 50.1907 Q2195.84 51.406 2192.83 52.0425 Q2189.82 52.6791 2186.73 52.6791 Q2178.97 52.6791 2174.43 48.1653 Q2169.91 43.6514 2169.91 35.9547 Q2169.91 27.9975 2174.2 23.339 Q2178.51 18.6515 2185.8 18.6515 Q2192.34 18.6515 2196.13 22.876 Q2199.95 27.0716 2199.95 34.3054 M2194.62 32.7429 Q2194.57 28.3737 2192.17 25.7695 Q2189.79 23.1654 2185.86 23.1654 Q2181.4 23.1654 2178.71 25.6827 Q2176.05 28.2001 2175.64 32.7718 L2194.62 32.7429 Z" fill="#000000" fill-rule="nonzero" fill-opacity="1" /><path clip-path="url(#clip780)" d="M2235.63 32.2799 L2235.63 51.84 L2230.3 51.84 L2230.3 32.4535 Q2230.3 27.8529 2228.51 25.567 Q2226.71 23.2811 2223.13 23.2811 Q2218.81 23.2811 2216.33 26.03 Q2213.84 28.7788 2213.84 33.5241 L2213.84 51.84 L2208.48 51.84 L2208.48 19.4328 L2213.84 19.4328 L2213.84 24.4675 Q2215.75 21.545 2218.32 20.0983 Q2220.93 18.6515 2224.31 18.6515 Q2229.9 18.6515 2232.76 22.1237 Q2235.63 25.567 2235.63 32.2799 Z" fill="#000000" fill-rule="nonzero" fill-opacity="1" /><path clip-path="url(#clip780)" d="M2273.96 34.3054 L2273.96 36.9095 L2249.49 36.9095 Q2249.83 42.4072 2252.78 45.3007 Q2255.76 48.1653 2261.06 48.1653 Q2264.13 48.1653 2266.99 47.4129 Q2269.88 46.6606 2272.72 45.156 L2272.72 50.1907 Q2269.86 51.406 2266.85 52.0425 Q2263.84 52.6791 2260.74 52.6791 Q2252.99 52.6791 2248.44 48.1653 Q2243.93 43.6514 2243.93 35.9547 Q2243.93 27.9975 2248.21 23.339 Q2252.52 18.6515 2259.82 18.6515 Q2266.35 18.6515 2270.15 22.876 Q2273.96 27.0716 2273.96 34.3054 M2268.64 32.7429 Q2268.58 28.3737 2266.18 25.7695 Q2263.81 23.1654 2259.87 23.1654 Q2255.42 23.1654 2252.73 25.6827 Q2250.06 28.2001 2249.66 32.7718 L2268.64 32.7429 Z" fill="#000000" fill-rule="nonzero" fill-opacity="1" /><path clip-path="url(#clip780)" d="M2301.48 24.4096 Q2300.58 23.8888 2299.51 23.6573 Q2298.47 23.3969 2297.2 23.3969 Q2292.69 23.3969 2290.26 26.3482 Q2287.85 29.2707 2287.85 34.7683 L2287.85 51.84 L2282.5 51.84 L2282.5 19.4328 L2287.85 19.4328 L2287.85 24.4675 Q2289.53 21.5161 2292.22 20.0983 Q2294.91 18.6515 2298.76 18.6515 Q2299.31 18.6515 2299.98 18.7383 Q2300.64 18.7962 2301.45 18.9409 L2301.48 24.4096 Z" fill="#000000" fill-rule="nonzero" fill-opacity="1" /><polyline clip-path="url(#clip782)" style="stroke:#009af9; stroke-linecap:round; stroke-linejoin:round; stroke-width:4; stroke-opacity:1; fill:none" stroke-dasharray="2, 4" points="300.562,963.901 3069.68,1068.73 "/>
<circle clip-path="url(#clip782)" cx="300.562" cy="963.901" r="10.8" fill="#009af9" fill-rule="evenodd" fill-opacity="1" stroke="none"/>
<circle clip-path="url(#clip782)" cx="3069.68" cy="1068.73" r="10.8" fill="#009af9" fill-rule="evenodd" fill-opacity="1" stroke="none"/>
<polyline clip-path="url(#clip782)" style="stroke:#e26f46; stroke-linecap:round; stroke-linejoin:round; stroke-width:4; stroke-opacity:1; fill:none" stroke-dasharray="2, 4" points="300.562,963.901 1685.12,1253.86 3069.68,1068.73 "/>
<circle clip-path="url(#clip782)" cx="300.562" cy="963.901" r="10.8" fill="#e26f46" fill-rule="evenodd" fill-opacity="1" stroke="none"/>
<circle clip-path="url(#clip782)" cx="1685.12" cy="1253.86" r="10.8" fill="#e26f46" fill-rule="evenodd" fill-opacity="1" stroke="none"/>
<circle clip-path="url(#clip782)" cx="3069.68" cy="1068.73" r="10.8" fill="#e26f46" fill-rule="evenodd" fill-opacity="1" stroke="none"/>
<polyline clip-path="url(#clip782)" style="stroke:#3da44d; stroke-linecap:round; stroke-linejoin:round; stroke-width:4; stroke-opacity:1; fill:none" stroke-dasharray="2, 4" points="300.562,963.901 992.842,1372.46 1685.12,1253.86 2377.4,1196.63 3069.68,1068.73 "/>
<circle clip-path="url(#clip782)" cx="300.562" cy="963.901" r="10.8" fill="#3da44d" fill-rule="evenodd" fill-opacity="1" stroke="none"/>
<circle clip-path="url(#clip782)" cx="992.842" cy="1372.46" r="10.8" fill="#3da44d" fill-rule="evenodd" fill-opacity="1" stroke="none"/>
<circle clip-path="url(#clip782)" cx="1685.12" cy="1253.86" r="10.8" fill="#3da44d" fill-rule="evenodd" fill-opacity="1" stroke="none"/>
<circle clip-path="url(#clip782)" cx="2377.4" cy="1196.63" r="10.8" fill="#3da44d" fill-rule="evenodd" fill-opacity="1" stroke="none"/>
<circle clip-path="url(#clip782)" cx="3069.68" cy="1068.73" r="10.8" fill="#3da44d" fill-rule="evenodd" fill-opacity="1" stroke="none"/>
<polyline clip-path="url(#clip782)" style="stroke:#c271d2; stroke-linecap:round; stroke-linejoin:round; stroke-width:4; stroke-opacity:1; fill:none" stroke-dasharray="2, 4" points="300.562,963.901 646.702,1088.27 992.842,1372.46 1338.98,1153.91 1685.12,1253.86 2031.26,1212.27 2377.4,1196.63 2723.54,881.194 3069.68,1068.73 "/>
<circle clip-path="url(#clip782)" cx="300.562" cy="963.901" r="10.8" fill="#c271d2" fill-rule="evenodd" fill-opacity="1" stroke="none"/>
<circle clip-path="url(#clip782)" cx="646.702" cy="1088.27" r="10.8" fill="#c271d2" fill-rule="evenodd" fill-opacity="1" stroke="none"/>
<circle clip-path="url(#clip782)" cx="992.842" cy="1372.46" r="10.8" fill="#c271d2" fill-rule="evenodd" fill-opacity="1" stroke="none"/>
<circle clip-path="url(#clip782)" cx="1338.98" cy="1153.91" r="10.8" fill="#c271d2" fill-rule="evenodd" fill-opacity="1" stroke="none"/>
<circle clip-path="url(#clip782)" cx="1685.12" cy="1253.86" r="10.8" fill="#c271d2" fill-rule="evenodd" fill-opacity="1" stroke="none"/>
<circle clip-path="url(#clip782)" cx="2031.26" cy="1212.27" r="10.8" fill="#c271d2" fill-rule="evenodd" fill-opacity="1" stroke="none"/>
<circle clip-path="url(#clip782)" cx="2377.4" cy="1196.63" r="10.8" fill="#c271d2" fill-rule="evenodd" fill-opacity="1" stroke="none"/>
<circle clip-path="url(#clip782)" cx="2723.54" cy="881.194" r="10.8" fill="#c271d2" fill-rule="evenodd" fill-opacity="1" stroke="none"/>
<circle clip-path="url(#clip782)" cx="3069.68" cy="1068.73" r="10.8" fill="#c271d2" fill-rule="evenodd" fill-opacity="1" stroke="none"/>
<polyline clip-path="url(#clip782)" style="stroke:#ac8d18; stroke-linecap:round; stroke-linejoin:round; stroke-width:4; stroke-opacity:1; fill:none" stroke-dasharray="2, 4" points="300.562,963.901 473.632,1036.14 646.702,1088.27 819.772,1218.41 992.842,1372.46 1165.91,1496.52 1338.98,1153.91 1512.05,1391.72 1685.12,1253.86 1858.19,1192.66 2031.26,1212.27 2204.33,1212.87 2377.4,1196.63 2550.47,1093.55 2723.54,881.194 2896.61,745.345 3069.68,1068.73 "/>
<circle clip-path="url(#clip782)" cx="300.562" cy="963.901" r="10.8" fill="#ac8d18" fill-rule="evenodd" fill-opacity="1" stroke="none"/>
<circle clip-path="url(#clip782)" cx="473.632" cy="1036.14" r="10.8" fill="#ac8d18" fill-rule="evenodd" fill-opacity="1" stroke="none"/>
<circle clip-path="url(#clip782)" cx="646.702" cy="1088.27" r="10.8" fill="#ac8d18" fill-rule="evenodd" fill-opacity="1" stroke="none"/>
<circle clip-path="url(#clip782)" cx="819.772" cy="1218.41" r="10.8" fill="#ac8d18" fill-rule="evenodd" fill-opacity="1" stroke="none"/>
<circle clip-path="url(#clip782)" cx="992.842" cy="1372.46" r="10.8" fill="#ac8d18" fill-rule="evenodd" fill-opacity="1" stroke="none"/>
<circle clip-path="url(#clip782)" cx="1165.91" cy="1496.52" r="10.8" fill="#ac8d18" fill-rule="evenodd" fill-opacity="1" stroke="none"/>
<circle clip-path="url(#clip782)" cx="1338.98" cy="1153.91" r="10.8" fill="#ac8d18" fill-rule="evenodd" fill-opacity="1" stroke="none"/>
<circle clip-path="url(#clip782)" cx="1512.05" cy="1391.72" r="10.8" fill="#ac8d18" fill-rule="evenodd" fill-opacity="1" stroke="none"/>
<circle clip-path="url(#clip782)" cx="1685.12" cy="1253.86" r="10.8" fill="#ac8d18" fill-rule="evenodd" fill-opacity="1" stroke="none"/>
<circle clip-path="url(#clip782)" cx="1858.19" cy="1192.66" r="10.8" fill="#ac8d18" fill-rule="evenodd" fill-opacity="1" stroke="none"/>
<circle clip-path="url(#clip782)" cx="2031.26" cy="1212.27" r="10.8" fill="#ac8d18" fill-rule="evenodd" fill-opacity="1" stroke="none"/>
<circle clip-path="url(#clip782)" cx="2204.33" cy="1212.87" r="10.8" fill="#ac8d18" fill-rule="evenodd" fill-opacity="1" stroke="none"/>
<circle clip-path="url(#clip782)" cx="2377.4" cy="1196.63" r="10.8" fill="#ac8d18" fill-rule="evenodd" fill-opacity="1" stroke="none"/>
<circle clip-path="url(#clip782)" cx="2550.47" cy="1093.55" r="10.8" fill="#ac8d18" fill-rule="evenodd" fill-opacity="1" stroke="none"/>
<circle clip-path="url(#clip782)" cx="2723.54" cy="881.194" r="10.8" fill="#ac8d18" fill-rule="evenodd" fill-opacity="1" stroke="none"/>
<circle clip-path="url(#clip782)" cx="2896.61" cy="745.345" r="10.8" fill="#ac8d18" fill-rule="evenodd" fill-opacity="1" stroke="none"/>
<circle clip-path="url(#clip782)" cx="3069.68" cy="1068.73" r="10.8" fill="#ac8d18" fill-rule="evenodd" fill-opacity="1" stroke="none"/>
<polyline clip-path="url(#clip782)" style="stroke:#00a9ad; stroke-linecap:round; stroke-linejoin:round; stroke-width:4; stroke-opacity:1; fill:none" stroke-dasharray="2, 4" points="300.562,963.901 387.097,979.87 473.632,1036.14 560.167,1056.99 646.702,1088.27 733.237,1115.63 819.772,1218.41 906.307,1500.85 992.842,1372.46 1079.38,1625.4 1165.91,1496.52 1252.45,1347.68 1338.98,1153.91 1425.52,1401.08 1512.05,1391.72 1598.59,1010.06 1685.12,1253.86 1771.66,1523.16 1858.19,1192.66 1944.73,1225.4 2031.26,1212.27 2117.8,1337.39 2204.33,1212.87 2290.87,1085.91 2377.4,1196.63 2463.94,913.328 2550.47,1093.55 2637.01,1164.84 2723.54,881.194 2810.08,578.756 2896.61,745.345 2983.15,936.564 3069.68,1068.73 "/>
<circle clip-path="url(#clip782)" cx="300.562" cy="963.901" r="10.8" fill="#00a9ad" fill-rule="evenodd" fill-opacity="1" stroke="none"/>
<circle clip-path="url(#clip782)" cx="387.097" cy="979.87" r="10.8" fill="#00a9ad" fill-rule="evenodd" fill-opacity="1" stroke="none"/>
<circle clip-path="url(#clip782)" cx="473.632" cy="1036.14" r="10.8" fill="#00a9ad" fill-rule="evenodd" fill-opacity="1" stroke="none"/>
<circle clip-path="url(#clip782)" cx="560.167" cy="1056.99" r="10.8" fill="#00a9ad" fill-rule="evenodd" fill-opacity="1" stroke="none"/>
<circle clip-path="url(#clip782)" cx="646.702" cy="1088.27" r="10.8" fill="#00a9ad" fill-rule="evenodd" fill-opacity="1" stroke="none"/>
<circle clip-path="url(#clip782)" cx="733.237" cy="1115.63" r="10.8" fill="#00a9ad" fill-rule="evenodd" fill-opacity="1" stroke="none"/>
<circle clip-path="url(#clip782)" cx="819.772" cy="1218.41" r="10.8" fill="#00a9ad" fill-rule="evenodd" fill-opacity="1" stroke="none"/>
<circle clip-path="url(#clip782)" cx="906.307" cy="1500.85" r="10.8" fill="#00a9ad" fill-rule="evenodd" fill-opacity="1" stroke="none"/>
<circle clip-path="url(#clip782)" cx="992.842" cy="1372.46" r="10.8" fill="#00a9ad" fill-rule="evenodd" fill-opacity="1" stroke="none"/>
<circle clip-path="url(#clip782)" cx="1079.38" cy="1625.4" r="10.8" fill="#00a9ad" fill-rule="evenodd" fill-opacity="1" stroke="none"/>
<circle clip-path="url(#clip782)" cx="1165.91" cy="1496.52" r="10.8" fill="#00a9ad" fill-rule="evenodd" fill-opacity="1" stroke="none"/>
<circle clip-path="url(#clip782)" cx="1252.45" cy="1347.68" r="10.8" fill="#00a9ad" fill-rule="evenodd" fill-opacity="1" stroke="none"/>
<circle clip-path="url(#clip782)" cx="1338.98" cy="1153.91" r="10.8" fill="#00a9ad" fill-rule="evenodd" fill-opacity="1" stroke="none"/>
<circle clip-path="url(#clip782)" cx="1425.52" cy="1401.08" r="10.8" fill="#00a9ad" fill-rule="evenodd" fill-opacity="1" stroke="none"/>
<circle clip-path="url(#clip782)" cx="1512.05" cy="1391.72" r="10.8" fill="#00a9ad" fill-rule="evenodd" fill-opacity="1" stroke="none"/>
<circle clip-path="url(#clip782)" cx="1598.59" cy="1010.06" r="10.8" fill="#00a9ad" fill-rule="evenodd" fill-opacity="1" stroke="none"/>
<circle clip-path="url(#clip782)" cx="1685.12" cy="1253.86" r="10.8" fill="#00a9ad" fill-rule="evenodd" fill-opacity="1" stroke="none"/>
<circle clip-path="url(#clip782)" cx="1771.66" cy="1523.16" r="10.8" fill="#00a9ad" fill-rule="evenodd" fill-opacity="1" stroke="none"/>
<circle clip-path="url(#clip782)" cx="1858.19" cy="1192.66" r="10.8" fill="#00a9ad" fill-rule="evenodd" fill-opacity="1" stroke="none"/>
<circle clip-path="url(#clip782)" cx="1944.73" cy="1225.4" r="10.8" fill="#00a9ad" fill-rule="evenodd" fill-opacity="1" stroke="none"/>
<circle clip-path="url(#clip782)" cx="2031.26" cy="1212.27" r="10.8" fill="#00a9ad" fill-rule="evenodd" fill-opacity="1" stroke="none"/>
<circle clip-path="url(#clip782)" cx="2117.8" cy="1337.39" r="10.8" fill="#00a9ad" fill-rule="evenodd" fill-opacity="1" stroke="none"/>
<circle clip-path="url(#clip782)" cx="2204.33" cy="1212.87" r="10.8" fill="#00a9ad" fill-rule="evenodd" fill-opacity="1" stroke="none"/>
<circle clip-path="url(#clip782)" cx="2290.87" cy="1085.91" r="10.8" fill="#00a9ad" fill-rule="evenodd" fill-opacity="1" stroke="none"/>
<circle clip-path="url(#clip782)" cx="2377.4" cy="1196.63" r="10.8" fill="#00a9ad" fill-rule="evenodd" fill-opacity="1" stroke="none"/>
<circle clip-path="url(#clip782)" cx="2463.94" cy="913.328" r="10.8" fill="#00a9ad" fill-rule="evenodd" fill-opacity="1" stroke="none"/>
<circle clip-path="url(#clip782)" cx="2550.47" cy="1093.55" r="10.8" fill="#00a9ad" fill-rule="evenodd" fill-opacity="1" stroke="none"/>
<circle clip-path="url(#clip782)" cx="2637.01" cy="1164.84" r="10.8" fill="#00a9ad" fill-rule="evenodd" fill-opacity="1" stroke="none"/>
<circle clip-path="url(#clip782)" cx="2723.54" cy="881.194" r="10.8" fill="#00a9ad" fill-rule="evenodd" fill-opacity="1" stroke="none"/>
<circle clip-path="url(#clip782)" cx="2810.08" cy="578.756" r="10.8" fill="#00a9ad" fill-rule="evenodd" fill-opacity="1" stroke="none"/>
<circle clip-path="url(#clip782)" cx="2896.61" cy="745.345" r="10.8" fill="#00a9ad" fill-rule="evenodd" fill-opacity="1" stroke="none"/>
<circle clip-path="url(#clip782)" cx="2983.15" cy="936.564" r="10.8" fill="#00a9ad" fill-rule="evenodd" fill-opacity="1" stroke="none"/>
<circle clip-path="url(#clip782)" cx="3069.68" cy="1068.73" r="10.8" fill="#00a9ad" fill-rule="evenodd" fill-opacity="1" stroke="none"/>
<polyline clip-path="url(#clip782)" style="stroke:#ed5d92; stroke-linecap:round; stroke-linejoin:round; stroke-width:4; stroke-opacity:1; fill:none" stroke-dasharray="2, 4" points="300.562,963.901 343.83,1099.46 387.097,979.87 430.365,1030.14 473.632,1036.14 516.9,1117.42 560.167,1056.99 603.435,1380.47 646.702,1088.27 689.97,957.97 733.237,1115.63 776.505,1155.86 819.772,1218.41 863.04,1370.42 906.307,1500.85 949.575,1313.98 992.842,1372.46 1036.11,1457.45 1079.38,1625.4 1122.64,1609.16 1165.91,1496.52 1209.18,1375.76 1252.45,1347.68 1295.71,1480.31 1338.98,1153.91 1382.25,1060.16 1425.52,1401.08 1468.78,1609.95 1512.05,1391.72 1555.32,1465.14 1598.59,1010.06 1641.85,1427.39 1685.12,1253.86 1728.39,1589.44 1771.66,1523.16 1814.92,1218.16 1858.19,1192.66 1901.46,1036.27 1944.73,1225.4 1987.99,1169.52 2031.26,1212.27 2074.53,1392.26 2117.8,1337.39 2161.06,1365.62 2204.33,1212.87 2247.6,864.338 2290.87,1085.91 2334.13,1189.67 2377.4,1196.63 2420.67,1031.81 2463.94,913.328 2507.2,973.399 2550.47,1093.55 2593.74,1238.69 2637.01,1164.84 2680.27,958.978 2723.54,881.194 2766.81,600.434 2810.08,578.756 2853.34,774.64 2896.61,745.345 2939.88,809.729 2983.15,936.564 3026.41,1091.15 3069.68,1068.73 "/>
<circle clip-path="url(#clip782)" cx="300.562" cy="963.901" r="10.8" fill="#ed5d92" fill-rule="evenodd" fill-opacity="1" stroke="none"/>
<circle clip-path="url(#clip782)" cx="343.83" cy="1099.46" r="10.8" fill="#ed5d92" fill-rule="evenodd" fill-opacity="1" stroke="none"/>
<circle clip-path="url(#clip782)" cx="387.097" cy="979.87" r="10.8" fill="#ed5d92" fill-rule="evenodd" fill-opacity="1" stroke="none"/>
<circle clip-path="url(#clip782)" cx="430.365" cy="1030.14" r="10.8" fill="#ed5d92" fill-rule="evenodd" fill-opacity="1" stroke="none"/>
<circle clip-path="url(#clip782)" cx="473.632" cy="1036.14" r="10.8" fill="#ed5d92" fill-rule="evenodd" fill-opacity="1" stroke="none"/>
<circle clip-path="url(#clip782)" cx="516.9" cy="1117.42" r="10.8" fill="#ed5d92" fill-rule="evenodd" fill-opacity="1" stroke="none"/>
<circle clip-path="url(#clip782)" cx="560.167" cy="1056.99" r="10.8" fill="#ed5d92" fill-rule="evenodd" fill-opacity="1" stroke="none"/>
<circle clip-path="url(#clip782)" cx="603.435" cy="1380.47" r="10.8" fill="#ed5d92" fill-rule="evenodd" fill-opacity="1" stroke="none"/>
<circle clip-path="url(#clip782)" cx="646.702" cy="1088.27" r="10.8" fill="#ed5d92" fill-rule="evenodd" fill-opacity="1" stroke="none"/>
<circle clip-path="url(#clip782)" cx="689.97" cy="957.97" r="10.8" fill="#ed5d92" fill-rule="evenodd" fill-opacity="1" stroke="none"/>
<circle clip-path="url(#clip782)" cx="733.237" cy="1115.63" r="10.8" fill="#ed5d92" fill-rule="evenodd" fill-opacity="1" stroke="none"/>
<circle clip-path="url(#clip782)" cx="776.505" cy="1155.86" r="10.8" fill="#ed5d92" fill-rule="evenodd" fill-opacity="1" stroke="none"/>
<circle clip-path="url(#clip782)" cx="819.772" cy="1218.41" r="10.8" fill="#ed5d92" fill-rule="evenodd" fill-opacity="1" stroke="none"/>
<circle clip-path="url(#clip782)" cx="863.04" cy="1370.42" r="10.8" fill="#ed5d92" fill-rule="evenodd" fill-opacity="1" stroke="none"/>
<circle clip-path="url(#clip782)" cx="906.307" cy="1500.85" r="10.8" fill="#ed5d92" fill-rule="evenodd" fill-opacity="1" stroke="none"/>
<circle clip-path="url(#clip782)" cx="949.575" cy="1313.98" r="10.8" fill="#ed5d92" fill-rule="evenodd" fill-opacity="1" stroke="none"/>
<circle clip-path="url(#clip782)" cx="992.842" cy="1372.46" r="10.8" fill="#ed5d92" fill-rule="evenodd" fill-opacity="1" stroke="none"/>
<circle clip-path="url(#clip782)" cx="1036.11" cy="1457.45" r="10.8" fill="#ed5d92" fill-rule="evenodd" fill-opacity="1" stroke="none"/>
<circle clip-path="url(#clip782)" cx="1079.38" cy="1625.4" r="10.8" fill="#ed5d92" fill-rule="evenodd" fill-opacity="1" stroke="none"/>
<circle clip-path="url(#clip782)" cx="1122.64" cy="1609.16" r="10.8" fill="#ed5d92" fill-rule="evenodd" fill-opacity="1" stroke="none"/>
<circle clip-path="url(#clip782)" cx="1165.91" cy="1496.52" r="10.8" fill="#ed5d92" fill-rule="evenodd" fill-opacity="1" stroke="none"/>
<circle clip-path="url(#clip782)" cx="1209.18" cy="1375.76" r="10.8" fill="#ed5d92" fill-rule="evenodd" fill-opacity="1" stroke="none"/>
<circle clip-path="url(#clip782)" cx="1252.45" cy="1347.68" r="10.8" fill="#ed5d92" fill-rule="evenodd" fill-opacity="1" stroke="none"/>
<circle clip-path="url(#clip782)" cx="1295.71" cy="1480.31" r="10.8" fill="#ed5d92" fill-rule="evenodd" fill-opacity="1" stroke="none"/>
<circle clip-path="url(#clip782)" cx="1338.98" cy="1153.91" r="10.8" fill="#ed5d92" fill-rule="evenodd" fill-opacity="1" stroke="none"/>
<circle clip-path="url(#clip782)" cx="1382.25" cy="1060.16" r="10.8" fill="#ed5d92" fill-rule="evenodd" fill-opacity="1" stroke="none"/>
<circle clip-path="url(#clip782)" cx="1425.52" cy="1401.08" r="10.8" fill="#ed5d92" fill-rule="evenodd" fill-opacity="1" stroke="none"/>
<circle clip-path="url(#clip782)" cx="1468.78" cy="1609.95" r="10.8" fill="#ed5d92" fill-rule="evenodd" fill-opacity="1" stroke="none"/>
<circle clip-path="url(#clip782)" cx="1512.05" cy="1391.72" r="10.8" fill="#ed5d92" fill-rule="evenodd" fill-opacity="1" stroke="none"/>
<circle clip-path="url(#clip782)" cx="1555.32" cy="1465.14" r="10.8" fill="#ed5d92" fill-rule="evenodd" fill-opacity="1" stroke="none"/>
<circle clip-path="url(#clip782)" cx="1598.59" cy="1010.06" r="10.8" fill="#ed5d92" fill-rule="evenodd" fill-opacity="1" stroke="none"/>
<circle clip-path="url(#clip782)" cx="1641.85" cy="1427.39" r="10.8" fill="#ed5d92" fill-rule="evenodd" fill-opacity="1" stroke="none"/>
<circle clip-path="url(#clip782)" cx="1685.12" cy="1253.86" r="10.8" fill="#ed5d92" fill-rule="evenodd" fill-opacity="1" stroke="none"/>
<circle clip-path="url(#clip782)" cx="1728.39" cy="1589.44" r="10.8" fill="#ed5d92" fill-rule="evenodd" fill-opacity="1" stroke="none"/>
<circle clip-path="url(#clip782)" cx="1771.66" cy="1523.16" r="10.8" fill="#ed5d92" fill-rule="evenodd" fill-opacity="1" stroke="none"/>
<circle clip-path="url(#clip782)" cx="1814.92" cy="1218.16" r="10.8" fill="#ed5d92" fill-rule="evenodd" fill-opacity="1" stroke="none"/>
<circle clip-path="url(#clip782)" cx="1858.19" cy="1192.66" r="10.8" fill="#ed5d92" fill-rule="evenodd" fill-opacity="1" stroke="none"/>
<circle clip-path="url(#clip782)" cx="1901.46" cy="1036.27" r="10.8" fill="#ed5d92" fill-rule="evenodd" fill-opacity="1" stroke="none"/>
<circle clip-path="url(#clip782)" cx="1944.73" cy="1225.4" r="10.8" fill="#ed5d92" fill-rule="evenodd" fill-opacity="1" stroke="none"/>
<circle clip-path="url(#clip782)" cx="1987.99" cy="1169.52" r="10.8" fill="#ed5d92" fill-rule="evenodd" fill-opacity="1" stroke="none"/>
<circle clip-path="url(#clip782)" cx="2031.26" cy="1212.27" r="10.8" fill="#ed5d92" fill-rule="evenodd" fill-opacity="1" stroke="none"/>
<circle clip-path="url(#clip782)" cx="2074.53" cy="1392.26" r="10.8" fill="#ed5d92" fill-rule="evenodd" fill-opacity="1" stroke="none"/>
<circle clip-path="url(#clip782)" cx="2117.8" cy="1337.39" r="10.8" fill="#ed5d92" fill-rule="evenodd" fill-opacity="1" stroke="none"/>
<circle clip-path="url(#clip782)" cx="2161.06" cy="1365.62" r="10.8" fill="#ed5d92" fill-rule="evenodd" fill-opacity="1" stroke="none"/>
<circle clip-path="url(#clip782)" cx="2204.33" cy="1212.87" r="10.8" fill="#ed5d92" fill-rule="evenodd" fill-opacity="1" stroke="none"/>
<circle clip-path="url(#clip782)" cx="2247.6" cy="864.338" r="10.8" fill="#ed5d92" fill-rule="evenodd" fill-opacity="1" stroke="none"/>
<circle clip-path="url(#clip782)" cx="2290.87" cy="1085.91" r="10.8" fill="#ed5d92" fill-rule="evenodd" fill-opacity="1" stroke="none"/>
<circle clip-path="url(#clip782)" cx="2334.13" cy="1189.67" r="10.8" fill="#ed5d92" fill-rule="evenodd" fill-opacity="1" stroke="none"/>
<circle clip-path="url(#clip782)" cx="2377.4" cy="1196.63" r="10.8" fill="#ed5d92" fill-rule="evenodd" fill-opacity="1" stroke="none"/>
<circle clip-path="url(#clip782)" cx="2420.67" cy="1031.81" r="10.8" fill="#ed5d92" fill-rule="evenodd" fill-opacity="1" stroke="none"/>
<circle clip-path="url(#clip782)" cx="2463.94" cy="913.328" r="10.8" fill="#ed5d92" fill-rule="evenodd" fill-opacity="1" stroke="none"/>
<circle clip-path="url(#clip782)" cx="2507.2" cy="973.399" r="10.8" fill="#ed5d92" fill-rule="evenodd" fill-opacity="1" stroke="none"/>
<circle clip-path="url(#clip782)" cx="2550.47" cy="1093.55" r="10.8" fill="#ed5d92" fill-rule="evenodd" fill-opacity="1" stroke="none"/>
<circle clip-path="url(#clip782)" cx="2593.74" cy="1238.69" r="10.8" fill="#ed5d92" fill-rule="evenodd" fill-opacity="1" stroke="none"/>
<circle clip-path="url(#clip782)" cx="2637.01" cy="1164.84" r="10.8" fill="#ed5d92" fill-rule="evenodd" fill-opacity="1" stroke="none"/>
<circle clip-path="url(#clip782)" cx="2680.27" cy="958.978" r="10.8" fill="#ed5d92" fill-rule="evenodd" fill-opacity="1" stroke="none"/>
<circle clip-path="url(#clip782)" cx="2723.54" cy="881.194" r="10.8" fill="#ed5d92" fill-rule="evenodd" fill-opacity="1" stroke="none"/>
<circle clip-path="url(#clip782)" cx="2766.81" cy="600.434" r="10.8" fill="#ed5d92" fill-rule="evenodd" fill-opacity="1" stroke="none"/>
<circle clip-path="url(#clip782)" cx="2810.08" cy="578.756" r="10.8" fill="#ed5d92" fill-rule="evenodd" fill-opacity="1" stroke="none"/>
<circle clip-path="url(#clip782)" cx="2853.34" cy="774.64" r="10.8" fill="#ed5d92" fill-rule="evenodd" fill-opacity="1" stroke="none"/>
<circle clip-path="url(#clip782)" cx="2896.61" cy="745.345" r="10.8" fill="#ed5d92" fill-rule="evenodd" fill-opacity="1" stroke="none"/>
<circle clip-path="url(#clip782)" cx="2939.88" cy="809.729" r="10.8" fill="#ed5d92" fill-rule="evenodd" fill-opacity="1" stroke="none"/>
<circle clip-path="url(#clip782)" cx="2983.15" cy="936.564" r="10.8" fill="#ed5d92" fill-rule="evenodd" fill-opacity="1" stroke="none"/>
<circle clip-path="url(#clip782)" cx="3026.41" cy="1091.15" r="10.8" fill="#ed5d92" fill-rule="evenodd" fill-opacity="1" stroke="none"/>
<circle clip-path="url(#clip782)" cx="3069.68" cy="1068.73" r="10.8" fill="#ed5d92" fill-rule="evenodd" fill-opacity="1" stroke="none"/>
<polyline clip-path="url(#clip782)" style="stroke:#c68125; stroke-linecap:round; stroke-linejoin:round; stroke-width:4; stroke-opacity:1; fill:none" stroke-dasharray="2, 4" points="300.562,963.901 322.196,1189.94 343.83,1099.46 365.464,1084.53 387.097,979.87 408.731,1158.67 430.365,1030.14 451.999,1262.03 473.632,1036.14 495.266,1085.24 516.9,1117.42 538.534,1192.19 560.167,1056.99 581.801,1349.89 603.435,1380.47 625.069,1382.56 646.702,1088.27 668.336,769.937 689.97,957.97 711.604,979.446 733.237,1115.63 754.871,890.846 776.505,1155.86 798.139,1008.4 819.772,1218.41 841.406,1410.19 863.04,1370.42 884.674,1170.16 906.307,1500.85 927.941,1547.77 949.575,1313.98 971.209,1388.45 992.842,1372.46 1014.48,1126.38 1036.11,1457.45 1057.74,1467.72 1079.38,1625.4 1101.01,1450.53 1122.64,1609.16 1144.28,1406.41 1165.91,1496.52 1187.55,1324.99 1209.18,1375.76 1230.81,1413.35 1252.45,1347.68 1274.08,1485.86 1295.71,1480.31 1317.35,1595.51 1338.98,1153.91 1360.62,1230.29 1382.25,1060.16 1403.88,1124.31 1425.52,1401.08 1447.15,1552.83 1468.78,1609.95 1490.42,1715.83 1512.05,1391.72 1533.69,1291.88 1555.32,1465.14 1576.95,1146.12 1598.59,1010.06 1620.22,1350.74 1641.85,1427.39 1663.49,1269.46 1685.12,1253.86 1706.76,1256.06 1728.39,1589.44 1750.02,1295.22 1771.66,1523.16 1793.29,1520.98 1814.92,1218.16 1836.56,1164.32 1858.19,1192.66 1879.83,1081.8 1901.46,1036.27 1923.09,1141.53 1944.73,1225.4 1966.36,1428.27 1987.99,1169.52 2009.63,1072.73 2031.26,1212.27 2052.9,1498.11 2074.53,1392.26 2096.16,1262.46 2117.8,1337.39 2139.43,1118.05 2161.06,1365.62 2182.7,963.075 2204.33,1212.87 2225.97,1048.19 2247.6,864.338 2269.23,1275.37 2290.87,1085.91 2312.5,1133.43 2334.13,1189.67 2355.77,1079.6 2377.4,1196.63 2399.04,1107.63 2420.67,1031.81 2442.3,913.061 2463.94,913.328 2485.57,1140.66 2507.2,973.399 2528.84,1097.23 2550.47,1093.55 2572.11,1112.96 2593.74,1238.69 2615.37,1192.59 2637.01,1164.84 2658.64,1009.52 2680.27,958.978 2701.91,830.016 2723.54,881.194 2745.18,784.595 2766.81,600.434 2788.44,889.42 2810.08,578.756 2831.71,744.299 2853.34,774.64 2874.98,873.335 2896.61,745.345 2918.25,668.877 2939.88,809.729 2961.51,956.234 2983.15,936.564 3004.78,1022.59 3026.41,1091.15 3048.05,1349.85 3069.68,1068.73 "/>
<circle clip-path="url(#clip782)" cx="300.562" cy="963.901" r="10.8" fill="#c68125" fill-rule="evenodd" fill-opacity="1" stroke="none"/>
<circle clip-path="url(#clip782)" cx="322.196" cy="1189.94" r="10.8" fill="#c68125" fill-rule="evenodd" fill-opacity="1" stroke="none"/>
<circle clip-path="url(#clip782)" cx="343.83" cy="1099.46" r="10.8" fill="#c68125" fill-rule="evenodd" fill-opacity="1" stroke="none"/>
<circle clip-path="url(#clip782)" cx="365.464" cy="1084.53" r="10.8" fill="#c68125" fill-rule="evenodd" fill-opacity="1" stroke="none"/>
<circle clip-path="url(#clip782)" cx="387.097" cy="979.87" r="10.8" fill="#c68125" fill-rule="evenodd" fill-opacity="1" stroke="none"/>
<circle clip-path="url(#clip782)" cx="408.731" cy="1158.67" r="10.8" fill="#c68125" fill-rule="evenodd" fill-opacity="1" stroke="none"/>
<circle clip-path="url(#clip782)" cx="430.365" cy="1030.14" r="10.8" fill="#c68125" fill-rule="evenodd" fill-opacity="1" stroke="none"/>
<circle clip-path="url(#clip782)" cx="451.999" cy="1262.03" r="10.8" fill="#c68125" fill-rule="evenodd" fill-opacity="1" stroke="none"/>
<circle clip-path="url(#clip782)" cx="473.632" cy="1036.14" r="10.8" fill="#c68125" fill-rule="evenodd" fill-opacity="1" stroke="none"/>
<circle clip-path="url(#clip782)" cx="495.266" cy="1085.24" r="10.8" fill="#c68125" fill-rule="evenodd" fill-opacity="1" stroke="none"/>
<circle clip-path="url(#clip782)" cx="516.9" cy="1117.42" r="10.8" fill="#c68125" fill-rule="evenodd" fill-opacity="1" stroke="none"/>
<circle clip-path="url(#clip782)" cx="538.534" cy="1192.19" r="10.8" fill="#c68125" fill-rule="evenodd" fill-opacity="1" stroke="none"/>
<circle clip-path="url(#clip782)" cx="560.167" cy="1056.99" r="10.8" fill="#c68125" fill-rule="evenodd" fill-opacity="1" stroke="none"/>
<circle clip-path="url(#clip782)" cx="581.801" cy="1349.89" r="10.8" fill="#c68125" fill-rule="evenodd" fill-opacity="1" stroke="none"/>
<circle clip-path="url(#clip782)" cx="603.435" cy="1380.47" r="10.8" fill="#c68125" fill-rule="evenodd" fill-opacity="1" stroke="none"/>
<circle clip-path="url(#clip782)" cx="625.069" cy="1382.56" r="10.8" fill="#c68125" fill-rule="evenodd" fill-opacity="1" stroke="none"/>
<circle clip-path="url(#clip782)" cx="646.702" cy="1088.27" r="10.8" fill="#c68125" fill-rule="evenodd" fill-opacity="1" stroke="none"/>
<circle clip-path="url(#clip782)" cx="668.336" cy="769.937" r="10.8" fill="#c68125" fill-rule="evenodd" fill-opacity="1" stroke="none"/>
<circle clip-path="url(#clip782)" cx="689.97" cy="957.97" r="10.8" fill="#c68125" fill-rule="evenodd" fill-opacity="1" stroke="none"/>
<circle clip-path="url(#clip782)" cx="711.604" cy="979.446" r="10.8" fill="#c68125" fill-rule="evenodd" fill-opacity="1" stroke="none"/>
<circle clip-path="url(#clip782)" cx="733.237" cy="1115.63" r="10.8" fill="#c68125" fill-rule="evenodd" fill-opacity="1" stroke="none"/>
<circle clip-path="url(#clip782)" cx="754.871" cy="890.846" r="10.8" fill="#c68125" fill-rule="evenodd" fill-opacity="1" stroke="none"/>
<circle clip-path="url(#clip782)" cx="776.505" cy="1155.86" r="10.8" fill="#c68125" fill-rule="evenodd" fill-opacity="1" stroke="none"/>
<circle clip-path="url(#clip782)" cx="798.139" cy="1008.4" r="10.8" fill="#c68125" fill-rule="evenodd" fill-opacity="1" stroke="none"/>
<circle clip-path="url(#clip782)" cx="819.772" cy="1218.41" r="10.8" fill="#c68125" fill-rule="evenodd" fill-opacity="1" stroke="none"/>
<circle clip-path="url(#clip782)" cx="841.406" cy="1410.19" r="10.8" fill="#c68125" fill-rule="evenodd" fill-opacity="1" stroke="none"/>
<circle clip-path="url(#clip782)" cx="863.04" cy="1370.42" r="10.8" fill="#c68125" fill-rule="evenodd" fill-opacity="1" stroke="none"/>
<circle clip-path="url(#clip782)" cx="884.674" cy="1170.16" r="10.8" fill="#c68125" fill-rule="evenodd" fill-opacity="1" stroke="none"/>
<circle clip-path="url(#clip782)" cx="906.307" cy="1500.85" r="10.8" fill="#c68125" fill-rule="evenodd" fill-opacity="1" stroke="none"/>
<circle clip-path="url(#clip782)" cx="927.941" cy="1547.77" r="10.8" fill="#c68125" fill-rule="evenodd" fill-opacity="1" stroke="none"/>
<circle clip-path="url(#clip782)" cx="949.575" cy="1313.98" r="10.8" fill="#c68125" fill-rule="evenodd" fill-opacity="1" stroke="none"/>
<circle clip-path="url(#clip782)" cx="971.209" cy="1388.45" r="10.8" fill="#c68125" fill-rule="evenodd" fill-opacity="1" stroke="none"/>
<circle clip-path="url(#clip782)" cx="992.842" cy="1372.46" r="10.8" fill="#c68125" fill-rule="evenodd" fill-opacity="1" stroke="none"/>
<circle clip-path="url(#clip782)" cx="1014.48" cy="1126.38" r="10.8" fill="#c68125" fill-rule="evenodd" fill-opacity="1" stroke="none"/>
<circle clip-path="url(#clip782)" cx="1036.11" cy="1457.45" r="10.8" fill="#c68125" fill-rule="evenodd" fill-opacity="1" stroke="none"/>
<circle clip-path="url(#clip782)" cx="1057.74" cy="1467.72" r="10.8" fill="#c68125" fill-rule="evenodd" fill-opacity="1" stroke="none"/>
<circle clip-path="url(#clip782)" cx="1079.38" cy="1625.4" r="10.8" fill="#c68125" fill-rule="evenodd" fill-opacity="1" stroke="none"/>
<circle clip-path="url(#clip782)" cx="1101.01" cy="1450.53" r="10.8" fill="#c68125" fill-rule="evenodd" fill-opacity="1" stroke="none"/>
<circle clip-path="url(#clip782)" cx="1122.64" cy="1609.16" r="10.8" fill="#c68125" fill-rule="evenodd" fill-opacity="1" stroke="none"/>
<circle clip-path="url(#clip782)" cx="1144.28" cy="1406.41" r="10.8" fill="#c68125" fill-rule="evenodd" fill-opacity="1" stroke="none"/>
<circle clip-path="url(#clip782)" cx="1165.91" cy="1496.52" r="10.8" fill="#c68125" fill-rule="evenodd" fill-opacity="1" stroke="none"/>
<circle clip-path="url(#clip782)" cx="1187.55" cy="1324.99" r="10.8" fill="#c68125" fill-rule="evenodd" fill-opacity="1" stroke="none"/>
<circle clip-path="url(#clip782)" cx="1209.18" cy="1375.76" r="10.8" fill="#c68125" fill-rule="evenodd" fill-opacity="1" stroke="none"/>
<circle clip-path="url(#clip782)" cx="1230.81" cy="1413.35" r="10.8" fill="#c68125" fill-rule="evenodd" fill-opacity="1" stroke="none"/>
<circle clip-path="url(#clip782)" cx="1252.45" cy="1347.68" r="10.8" fill="#c68125" fill-rule="evenodd" fill-opacity="1" stroke="none"/>
<circle clip-path="url(#clip782)" cx="1274.08" cy="1485.86" r="10.8" fill="#c68125" fill-rule="evenodd" fill-opacity="1" stroke="none"/>
<circle clip-path="url(#clip782)" cx="1295.71" cy="1480.31" r="10.8" fill="#c68125" fill-rule="evenodd" fill-opacity="1" stroke="none"/>
<circle clip-path="url(#clip782)" cx="1317.35" cy="1595.51" r="10.8" fill="#c68125" fill-rule="evenodd" fill-opacity="1" stroke="none"/>
<circle clip-path="url(#clip782)" cx="1338.98" cy="1153.91" r="10.8" fill="#c68125" fill-rule="evenodd" fill-opacity="1" stroke="none"/>
<circle clip-path="url(#clip782)" cx="1360.62" cy="1230.29" r="10.8" fill="#c68125" fill-rule="evenodd" fill-opacity="1" stroke="none"/>
<circle clip-path="url(#clip782)" cx="1382.25" cy="1060.16" r="10.8" fill="#c68125" fill-rule="evenodd" fill-opacity="1" stroke="none"/>
<circle clip-path="url(#clip782)" cx="1403.88" cy="1124.31" r="10.8" fill="#c68125" fill-rule="evenodd" fill-opacity="1" stroke="none"/>
<circle clip-path="url(#clip782)" cx="1425.52" cy="1401.08" r="10.8" fill="#c68125" fill-rule="evenodd" fill-opacity="1" stroke="none"/>
<circle clip-path="url(#clip782)" cx="1447.15" cy="1552.83" r="10.8" fill="#c68125" fill-rule="evenodd" fill-opacity="1" stroke="none"/>
<circle clip-path="url(#clip782)" cx="1468.78" cy="1609.95" r="10.8" fill="#c68125" fill-rule="evenodd" fill-opacity="1" stroke="none"/>
<circle clip-path="url(#clip782)" cx="1490.42" cy="1715.83" r="10.8" fill="#c68125" fill-rule="evenodd" fill-opacity="1" stroke="none"/>
<circle clip-path="url(#clip782)" cx="1512.05" cy="1391.72" r="10.8" fill="#c68125" fill-rule="evenodd" fill-opacity="1" stroke="none"/>
<circle clip-path="url(#clip782)" cx="1533.69" cy="1291.88" r="10.8" fill="#c68125" fill-rule="evenodd" fill-opacity="1" stroke="none"/>
<circle clip-path="url(#clip782)" cx="1555.32" cy="1465.14" r="10.8" fill="#c68125" fill-rule="evenodd" fill-opacity="1" stroke="none"/>
<circle clip-path="url(#clip782)" cx="1576.95" cy="1146.12" r="10.8" fill="#c68125" fill-rule="evenodd" fill-opacity="1" stroke="none"/>
<circle clip-path="url(#clip782)" cx="1598.59" cy="1010.06" r="10.8" fill="#c68125" fill-rule="evenodd" fill-opacity="1" stroke="none"/>
<circle clip-path="url(#clip782)" cx="1620.22" cy="1350.74" r="10.8" fill="#c68125" fill-rule="evenodd" fill-opacity="1" stroke="none"/>
<circle clip-path="url(#clip782)" cx="1641.85" cy="1427.39" r="10.8" fill="#c68125" fill-rule="evenodd" fill-opacity="1" stroke="none"/>
<circle clip-path="url(#clip782)" cx="1663.49" cy="1269.46" r="10.8" fill="#c68125" fill-rule="evenodd" fill-opacity="1" stroke="none"/>
<circle clip-path="url(#clip782)" cx="1685.12" cy="1253.86" r="10.8" fill="#c68125" fill-rule="evenodd" fill-opacity="1" stroke="none"/>
<circle clip-path="url(#clip782)" cx="1706.76" cy="1256.06" r="10.8" fill="#c68125" fill-rule="evenodd" fill-opacity="1" stroke="none"/>
<circle clip-path="url(#clip782)" cx="1728.39" cy="1589.44" r="10.8" fill="#c68125" fill-rule="evenodd" fill-opacity="1" stroke="none"/>
<circle clip-path="url(#clip782)" cx="1750.02" cy="1295.22" r="10.8" fill="#c68125" fill-rule="evenodd" fill-opacity="1" stroke="none"/>
<circle clip-path="url(#clip782)" cx="1771.66" cy="1523.16" r="10.8" fill="#c68125" fill-rule="evenodd" fill-opacity="1" stroke="none"/>
<circle clip-path="url(#clip782)" cx="1793.29" cy="1520.98" r="10.8" fill="#c68125" fill-rule="evenodd" fill-opacity="1" stroke="none"/>
<circle clip-path="url(#clip782)" cx="1814.92" cy="1218.16" r="10.8" fill="#c68125" fill-rule="evenodd" fill-opacity="1" stroke="none"/>
<circle clip-path="url(#clip782)" cx="1836.56" cy="1164.32" r="10.8" fill="#c68125" fill-rule="evenodd" fill-opacity="1" stroke="none"/>
<circle clip-path="url(#clip782)" cx="1858.19" cy="1192.66" r="10.8" fill="#c68125" fill-rule="evenodd" fill-opacity="1" stroke="none"/>
<circle clip-path="url(#clip782)" cx="1879.83" cy="1081.8" r="10.8" fill="#c68125" fill-rule="evenodd" fill-opacity="1" stroke="none"/>
<circle clip-path="url(#clip782)" cx="1901.46" cy="1036.27" r="10.8" fill="#c68125" fill-rule="evenodd" fill-opacity="1" stroke="none"/>
<circle clip-path="url(#clip782)" cx="1923.09" cy="1141.53" r="10.8" fill="#c68125" fill-rule="evenodd" fill-opacity="1" stroke="none"/>
<circle clip-path="url(#clip782)" cx="1944.73" cy="1225.4" r="10.8" fill="#c68125" fill-rule="evenodd" fill-opacity="1" stroke="none"/>
<circle clip-path="url(#clip782)" cx="1966.36" cy="1428.27" r="10.8" fill="#c68125" fill-rule="evenodd" fill-opacity="1" stroke="none"/>
<circle clip-path="url(#clip782)" cx="1987.99" cy="1169.52" r="10.8" fill="#c68125" fill-rule="evenodd" fill-opacity="1" stroke="none"/>
<circle clip-path="url(#clip782)" cx="2009.63" cy="1072.73" r="10.8" fill="#c68125" fill-rule="evenodd" fill-opacity="1" stroke="none"/>
<circle clip-path="url(#clip782)" cx="2031.26" cy="1212.27" r="10.8" fill="#c68125" fill-rule="evenodd" fill-opacity="1" stroke="none"/>
<circle clip-path="url(#clip782)" cx="2052.9" cy="1498.11" r="10.8" fill="#c68125" fill-rule="evenodd" fill-opacity="1" stroke="none"/>
<circle clip-path="url(#clip782)" cx="2074.53" cy="1392.26" r="10.8" fill="#c68125" fill-rule="evenodd" fill-opacity="1" stroke="none"/>
<circle clip-path="url(#clip782)" cx="2096.16" cy="1262.46" r="10.8" fill="#c68125" fill-rule="evenodd" fill-opacity="1" stroke="none"/>
<circle clip-path="url(#clip782)" cx="2117.8" cy="1337.39" r="10.8" fill="#c68125" fill-rule="evenodd" fill-opacity="1" stroke="none"/>
<circle clip-path="url(#clip782)" cx="2139.43" cy="1118.05" r="10.8" fill="#c68125" fill-rule="evenodd" fill-opacity="1" stroke="none"/>
<circle clip-path="url(#clip782)" cx="2161.06" cy="1365.62" r="10.8" fill="#c68125" fill-rule="evenodd" fill-opacity="1" stroke="none"/>
<circle clip-path="url(#clip782)" cx="2182.7" cy="963.075" r="10.8" fill="#c68125" fill-rule="evenodd" fill-opacity="1" stroke="none"/>
<circle clip-path="url(#clip782)" cx="2204.33" cy="1212.87" r="10.8" fill="#c68125" fill-rule="evenodd" fill-opacity="1" stroke="none"/>
<circle clip-path="url(#clip782)" cx="2225.97" cy="1048.19" r="10.8" fill="#c68125" fill-rule="evenodd" fill-opacity="1" stroke="none"/>
<circle clip-path="url(#clip782)" cx="2247.6" cy="864.338" r="10.8" fill="#c68125" fill-rule="evenodd" fill-opacity="1" stroke="none"/>
<circle clip-path="url(#clip782)" cx="2269.23" cy="1275.37" r="10.8" fill="#c68125" fill-rule="evenodd" fill-opacity="1" stroke="none"/>
<circle clip-path="url(#clip782)" cx="2290.87" cy="1085.91" r="10.8" fill="#c68125" fill-rule="evenodd" fill-opacity="1" stroke="none"/>
<circle clip-path="url(#clip782)" cx="2312.5" cy="1133.43" r="10.8" fill="#c68125" fill-rule="evenodd" fill-opacity="1" stroke="none"/>
<circle clip-path="url(#clip782)" cx="2334.13" cy="1189.67" r="10.8" fill="#c68125" fill-rule="evenodd" fill-opacity="1" stroke="none"/>
<circle clip-path="url(#clip782)" cx="2355.77" cy="1079.6" r="10.8" fill="#c68125" fill-rule="evenodd" fill-opacity="1" stroke="none"/>
<circle clip-path="url(#clip782)" cx="2377.4" cy="1196.63" r="10.8" fill="#c68125" fill-rule="evenodd" fill-opacity="1" stroke="none"/>
<circle clip-path="url(#clip782)" cx="2399.04" cy="1107.63" r="10.8" fill="#c68125" fill-rule="evenodd" fill-opacity="1" stroke="none"/>
<circle clip-path="url(#clip782)" cx="2420.67" cy="1031.81" r="10.8" fill="#c68125" fill-rule="evenodd" fill-opacity="1" stroke="none"/>
<circle clip-path="url(#clip782)" cx="2442.3" cy="913.061" r="10.8" fill="#c68125" fill-rule="evenodd" fill-opacity="1" stroke="none"/>
<circle clip-path="url(#clip782)" cx="2463.94" cy="913.328" r="10.8" fill="#c68125" fill-rule="evenodd" fill-opacity="1" stroke="none"/>
<circle clip-path="url(#clip782)" cx="2485.57" cy="1140.66" r="10.8" fill="#c68125" fill-rule="evenodd" fill-opacity="1" stroke="none"/>
<circle clip-path="url(#clip782)" cx="2507.2" cy="973.399" r="10.8" fill="#c68125" fill-rule="evenodd" fill-opacity="1" stroke="none"/>
<circle clip-path="url(#clip782)" cx="2528.84" cy="1097.23" r="10.8" fill="#c68125" fill-rule="evenodd" fill-opacity="1" stroke="none"/>
<circle clip-path="url(#clip782)" cx="2550.47" cy="1093.55" r="10.8" fill="#c68125" fill-rule="evenodd" fill-opacity="1" stroke="none"/>
<circle clip-path="url(#clip782)" cx="2572.11" cy="1112.96" r="10.8" fill="#c68125" fill-rule="evenodd" fill-opacity="1" stroke="none"/>
<circle clip-path="url(#clip782)" cx="2593.74" cy="1238.69" r="10.8" fill="#c68125" fill-rule="evenodd" fill-opacity="1" stroke="none"/>
<circle clip-path="url(#clip782)" cx="2615.37" cy="1192.59" r="10.8" fill="#c68125" fill-rule="evenodd" fill-opacity="1" stroke="none"/>
<circle clip-path="url(#clip782)" cx="2637.01" cy="1164.84" r="10.8" fill="#c68125" fill-rule="evenodd" fill-opacity="1" stroke="none"/>
<circle clip-path="url(#clip782)" cx="2658.64" cy="1009.52" r="10.8" fill="#c68125" fill-rule="evenodd" fill-opacity="1" stroke="none"/>
<circle clip-path="url(#clip782)" cx="2680.27" cy="958.978" r="10.8" fill="#c68125" fill-rule="evenodd" fill-opacity="1" stroke="none"/>
<circle clip-path="url(#clip782)" cx="2701.91" cy="830.016" r="10.8" fill="#c68125" fill-rule="evenodd" fill-opacity="1" stroke="none"/>
<circle clip-path="url(#clip782)" cx="2723.54" cy="881.194" r="10.8" fill="#c68125" fill-rule="evenodd" fill-opacity="1" stroke="none"/>
<circle clip-path="url(#clip782)" cx="2745.18" cy="784.595" r="10.8" fill="#c68125" fill-rule="evenodd" fill-opacity="1" stroke="none"/>
<circle clip-path="url(#clip782)" cx="2766.81" cy="600.434" r="10.8" fill="#c68125" fill-rule="evenodd" fill-opacity="1" stroke="none"/>
<circle clip-path="url(#clip782)" cx="2788.44" cy="889.42" r="10.8" fill="#c68125" fill-rule="evenodd" fill-opacity="1" stroke="none"/>
<circle clip-path="url(#clip782)" cx="2810.08" cy="578.756" r="10.8" fill="#c68125" fill-rule="evenodd" fill-opacity="1" stroke="none"/>
<circle clip-path="url(#clip782)" cx="2831.71" cy="744.299" r="10.8" fill="#c68125" fill-rule="evenodd" fill-opacity="1" stroke="none"/>
<circle clip-path="url(#clip782)" cx="2853.34" cy="774.64" r="10.8" fill="#c68125" fill-rule="evenodd" fill-opacity="1" stroke="none"/>
<circle clip-path="url(#clip782)" cx="2874.98" cy="873.335" r="10.8" fill="#c68125" fill-rule="evenodd" fill-opacity="1" stroke="none"/>
<circle clip-path="url(#clip782)" cx="2896.61" cy="745.345" r="10.8" fill="#c68125" fill-rule="evenodd" fill-opacity="1" stroke="none"/>
<circle clip-path="url(#clip782)" cx="2918.25" cy="668.877" r="10.8" fill="#c68125" fill-rule="evenodd" fill-opacity="1" stroke="none"/>
<circle clip-path="url(#clip782)" cx="2939.88" cy="809.729" r="10.8" fill="#c68125" fill-rule="evenodd" fill-opacity="1" stroke="none"/>
<circle clip-path="url(#clip782)" cx="2961.51" cy="956.234" r="10.8" fill="#c68125" fill-rule="evenodd" fill-opacity="1" stroke="none"/>
<circle clip-path="url(#clip782)" cx="2983.15" cy="936.564" r="10.8" fill="#c68125" fill-rule="evenodd" fill-opacity="1" stroke="none"/>
<circle clip-path="url(#clip782)" cx="3004.78" cy="1022.59" r="10.8" fill="#c68125" fill-rule="evenodd" fill-opacity="1" stroke="none"/>
<circle clip-path="url(#clip782)" cx="3026.41" cy="1091.15" r="10.8" fill="#c68125" fill-rule="evenodd" fill-opacity="1" stroke="none"/>
<circle clip-path="url(#clip782)" cx="3048.05" cy="1349.85" r="10.8" fill="#c68125" fill-rule="evenodd" fill-opacity="1" stroke="none"/>
<circle clip-path="url(#clip782)" cx="3069.68" cy="1068.73" r="10.8" fill="#c68125" fill-rule="evenodd" fill-opacity="1" stroke="none"/>
</svg>
