<?xml version="1.0" encoding="utf-8"?>
<svg xmlns="http://www.w3.org/2000/svg" xmlns:xlink="http://www.w3.org/1999/xlink" width="600" height="400" viewBox="0 0 2400 1600">
<defs>
  <clipPath id="clip090">
    <rect x="0" y="0" width="2400" height="1600"/>
  </clipPath>
</defs>
<path clip-path="url(#clip090)" d="
M0 1600 L2400 1600 L2400 0 L0 0  Z
  " fill="#ffffff" fill-rule="evenodd" fill-opacity="1"/>
<defs>
  <clipPath id="clip091">
    <rect x="480" y="0" width="1681" height="1600"/>
  </clipPath>
</defs>
<path clip-path="url(#clip090)" d="
M219.38 1423.18 L2352.76 1423.18 L2352.76 132.112 L219.38 132.112  Z
  " fill="#eaeaea" fill-rule="evenodd" fill-opacity="1"/>
<defs>
  <clipPath id="clip092">
    <rect x="219" y="132" width="2134" height="1292"/>
  </clipPath>
</defs>
<polyline clip-path="url(#clip092)" style="stroke:#ffffff; stroke-linecap:butt; stroke-linejoin:round; stroke-width:4; stroke-opacity:1; fill:none" points="
  279.759,1423.18 279.759,132.112 
  "/>
<polyline clip-path="url(#clip092)" style="stroke:#ffffff; stroke-linecap:butt; stroke-linejoin:round; stroke-width:4; stroke-opacity:1; fill:none" points="
  782.913,1423.18 782.913,132.112 
  "/>
<polyline clip-path="url(#clip092)" style="stroke:#ffffff; stroke-linecap:butt; stroke-linejoin:round; stroke-width:4; stroke-opacity:1; fill:none" points="
  1286.07,1423.18 1286.07,132.112 
  "/>
<polyline clip-path="url(#clip092)" style="stroke:#ffffff; stroke-linecap:butt; stroke-linejoin:round; stroke-width:4; stroke-opacity:1; fill:none" points="
  1789.22,1423.18 1789.22,132.112 
  "/>
<polyline clip-path="url(#clip092)" style="stroke:#ffffff; stroke-linecap:butt; stroke-linejoin:round; stroke-width:4; stroke-opacity:1; fill:none" points="
  2292.38,1423.18 2292.38,132.112 
  "/>
<polyline clip-path="url(#clip092)" style="stroke:#ffffff; stroke-linecap:butt; stroke-linejoin:round; stroke-width:2; stroke-opacity:1; fill:none" points="
  531.336,1423.18 531.336,132.112 
  "/>
<polyline clip-path="url(#clip092)" style="stroke:#ffffff; stroke-linecap:butt; stroke-linejoin:round; stroke-width:2; stroke-opacity:1; fill:none" points="
  1034.49,1423.18 1034.49,132.112 
  "/>
<polyline clip-path="url(#clip092)" style="stroke:#ffffff; stroke-linecap:butt; stroke-linejoin:round; stroke-width:2; stroke-opacity:1; fill:none" points="
  1537.65,1423.18 1537.65,132.112 
  "/>
<polyline clip-path="url(#clip092)" style="stroke:#ffffff; stroke-linecap:butt; stroke-linejoin:round; stroke-width:2; stroke-opacity:1; fill:none" points="
  2040.8,1423.18 2040.8,132.112 
  "/>
<polyline clip-path="url(#clip090)" style="stroke:#ffffff; stroke-linecap:butt; stroke-linejoin:round; stroke-width:4; stroke-opacity:1; fill:none" points="
  219.38,1423.18 2352.76,1423.18 
  "/>
<polyline clip-path="url(#clip090)" style="stroke:#333333; stroke-linecap:butt; stroke-linejoin:round; stroke-width:4; stroke-opacity:1; fill:none" points="
  279.759,1423.18 279.759,1442.08 
  "/>
<polyline clip-path="url(#clip090)" style="stroke:#333333; stroke-linecap:butt; stroke-linejoin:round; stroke-width:4; stroke-opacity:1; fill:none" points="
  782.913,1423.18 782.913,1442.08 
  "/>
<polyline clip-path="url(#clip090)" style="stroke:#333333; stroke-linecap:butt; stroke-linejoin:round; stroke-width:4; stroke-opacity:1; fill:none" points="
  1286.07,1423.18 1286.07,1442.08 
  "/>
<polyline clip-path="url(#clip090)" style="stroke:#333333; stroke-linecap:butt; stroke-linejoin:round; stroke-width:4; stroke-opacity:1; fill:none" points="
  1789.22,1423.18 1789.22,1442.08 
  "/>
<polyline clip-path="url(#clip090)" style="stroke:#333333; stroke-linecap:butt; stroke-linejoin:round; stroke-width:4; stroke-opacity:1; fill:none" points="
  2292.38,1423.18 2292.38,1442.08 
  "/>
<polyline clip-path="url(#clip090)" style="stroke:#333333; stroke-linecap:butt; stroke-linejoin:round; stroke-width:4; stroke-opacity:1; fill:none" points="
  531.336,1423.18 531.336,1432.63 
  "/>
<polyline clip-path="url(#clip090)" style="stroke:#333333; stroke-linecap:butt; stroke-linejoin:round; stroke-width:4; stroke-opacity:1; fill:none" points="
  1034.49,1423.18 1034.49,1432.63 
  "/>
<polyline clip-path="url(#clip090)" style="stroke:#333333; stroke-linecap:butt; stroke-linejoin:round; stroke-width:4; stroke-opacity:1; fill:none" points="
  1537.65,1423.18 1537.65,1432.63 
  "/>
<polyline clip-path="url(#clip090)" style="stroke:#333333; stroke-linecap:butt; stroke-linejoin:round; stroke-width:4; stroke-opacity:1; fill:none" points="
  2040.8,1423.18 2040.8,1432.63 
  "/>
<path clip-path="url(#clip090)" d="M279.759 1463.7 Q276.148 1463.7 274.319 1467.26 Q272.513 1470.8 272.513 1477.93 Q272.513 1485.04 274.319 1488.61 Q276.148 1492.15 279.759 1492.15 Q283.393 1492.15 285.199 1488.61 Q287.027 1485.04 287.027 1477.93 Q287.027 1470.8 285.199 1467.26 Q283.393 1463.7 279.759 1463.7 M279.759 1459.99 Q285.569 1459.99 288.624 1464.6 Q291.703 1469.18 291.703 1477.93 Q291.703 1486.66 288.624 1491.27 Q285.569 1495.85 279.759 1495.85 Q273.949 1495.85 270.87 1491.27 Q267.814 1486.66 267.814 1477.93 Q267.814 1469.18 270.87 1464.6 Q273.949 1459.99 279.759 1459.99 Z" fill="#4c4c4c" fill-rule="evenodd" fill-opacity="1" /><path clip-path="url(#clip090)" d="M773.295 1491.24 L780.934 1491.24 L780.934 1464.88 L772.624 1466.55 L772.624 1462.29 L780.888 1460.62 L785.564 1460.62 L785.564 1491.24 L793.203 1491.24 L793.203 1495.18 L773.295 1495.18 L773.295 1491.24 Z" fill="#4c4c4c" fill-rule="evenodd" fill-opacity="1" /><path clip-path="url(#clip090)" d="M1280.72 1491.24 L1297.04 1491.24 L1297.04 1495.18 L1275.1 1495.18 L1275.1 1491.24 Q1277.76 1488.49 1282.34 1483.86 Q1286.95 1479.21 1288.13 1477.87 Q1290.37 1475.34 1291.25 1473.61 Q1292.16 1471.85 1292.16 1470.16 Q1292.16 1467.4 1290.21 1465.67 Q1288.29 1463.93 1285.19 1463.93 Q1282.99 1463.93 1280.54 1464.69 Q1278.11 1465.46 1275.33 1467.01 L1275.33 1462.29 Q1278.15 1461.15 1280.61 1460.57 Q1283.06 1459.99 1285.1 1459.99 Q1290.47 1459.99 1293.66 1462.68 Q1296.86 1465.37 1296.86 1469.86 Q1296.86 1471.99 1296.04 1473.91 Q1295.26 1475.8 1293.15 1478.4 Q1292.57 1479.07 1289.47 1482.29 Q1286.37 1485.48 1280.72 1491.24 Z" fill="#4c4c4c" fill-rule="evenodd" fill-opacity="1" /><path clip-path="url(#clip090)" d="M1793.47 1476.55 Q1796.83 1477.26 1798.7 1479.53 Q1800.6 1481.8 1800.6 1485.13 Q1800.6 1490.25 1797.08 1493.05 Q1793.56 1495.85 1787.08 1495.85 Q1784.91 1495.85 1782.59 1495.41 Q1780.3 1494.99 1777.85 1494.14 L1777.85 1489.62 Q1779.79 1490.76 1782.1 1491.34 Q1784.42 1491.92 1786.94 1491.92 Q1791.34 1491.92 1793.63 1490.18 Q1795.95 1488.44 1795.95 1485.13 Q1795.95 1482.08 1793.79 1480.37 Q1791.66 1478.63 1787.85 1478.63 L1783.82 1478.63 L1783.82 1474.79 L1788.03 1474.79 Q1791.48 1474.79 1793.31 1473.42 Q1795.14 1472.03 1795.14 1469.44 Q1795.14 1466.78 1793.24 1465.37 Q1791.36 1463.93 1787.85 1463.93 Q1785.92 1463.93 1783.73 1464.35 Q1781.53 1464.76 1778.89 1465.64 L1778.89 1461.48 Q1781.55 1460.74 1783.86 1460.37 Q1786.2 1459.99 1788.26 1459.99 Q1793.59 1459.99 1796.69 1462.43 Q1799.79 1464.83 1799.79 1468.95 Q1799.79 1471.82 1798.15 1473.81 Q1796.5 1475.78 1793.47 1476.55 Z" fill="#4c4c4c" fill-rule="evenodd" fill-opacity="1" /><path clip-path="url(#clip090)" d="M2295.39 1464.69 L2283.58 1483.14 L2295.39 1483.14 L2295.39 1464.69 M2294.16 1460.62 L2300.04 1460.62 L2300.04 1483.14 L2304.97 1483.14 L2304.97 1487.03 L2300.04 1487.03 L2300.04 1495.18 L2295.39 1495.18 L2295.39 1487.03 L2279.78 1487.03 L2279.78 1482.52 L2294.16 1460.62 Z" fill="#4c4c4c" fill-rule="evenodd" fill-opacity="1" /><path clip-path="url(#clip090)" d="M1193.7 1522.27 L1193.7 1532.4 L1205.76 1532.4 L1205.76 1536.95 L1193.7 1536.95 L1193.7 1556.3 Q1193.7 1560.66 1194.88 1561.9 Q1196.09 1563.14 1199.75 1563.14 L1205.76 1563.14 L1205.76 1568.04 L1199.75 1568.04 Q1192.97 1568.04 1190.39 1565.53 Q1187.81 1562.98 1187.81 1556.3 L1187.81 1536.95 L1183.52 1536.95 L1183.52 1532.4 L1187.81 1532.4 L1187.81 1522.27 L1193.7 1522.27 Z" fill="#000000" fill-rule="evenodd" fill-opacity="1" /><path clip-path="url(#clip090)" d="M1243.96 1548.76 L1243.96 1551.62 L1217.03 1551.62 Q1217.41 1557.67 1220.66 1560.85 Q1223.94 1564 1229.76 1564 Q1233.14 1564 1236.29 1563.17 Q1239.47 1562.35 1242.59 1560.69 L1242.59 1566.23 Q1239.44 1567.57 1236.13 1568.27 Q1232.82 1568.97 1229.41 1568.97 Q1220.88 1568.97 1215.89 1564 Q1210.92 1559.04 1210.92 1550.57 Q1210.92 1541.82 1215.63 1536.69 Q1220.37 1531.54 1228.39 1531.54 Q1235.59 1531.54 1239.76 1536.18 Q1243.96 1540.8 1243.96 1548.76 M1238.1 1547.04 Q1238.04 1542.23 1235.4 1539.37 Q1232.79 1536.5 1228.46 1536.5 Q1223.56 1536.5 1220.6 1539.27 Q1217.67 1542.04 1217.22 1547.07 L1238.1 1547.04 Z" fill="#000000" fill-rule="evenodd" fill-opacity="1" /><path clip-path="url(#clip090)" d="M1281.33 1539.24 Q1283.52 1535.29 1286.58 1533.41 Q1289.63 1531.54 1293.77 1531.54 Q1299.34 1531.54 1302.36 1535.45 Q1305.39 1539.33 1305.39 1546.53 L1305.39 1568.04 L1299.5 1568.04 L1299.5 1546.72 Q1299.5 1541.59 1297.69 1539.11 Q1295.87 1536.63 1292.15 1536.63 Q1287.6 1536.63 1284.95 1539.65 Q1282.31 1542.68 1282.31 1547.9 L1282.31 1568.04 L1276.42 1568.04 L1276.42 1546.72 Q1276.42 1541.56 1274.61 1539.11 Q1272.8 1536.63 1269.01 1536.63 Q1264.52 1536.63 1261.88 1539.68 Q1259.24 1542.71 1259.24 1547.9 L1259.24 1568.04 L1253.35 1568.04 L1253.35 1532.4 L1259.24 1532.4 L1259.24 1537.93 Q1261.24 1534.66 1264.04 1533.1 Q1266.84 1531.54 1270.69 1531.54 Q1274.58 1531.54 1277.28 1533.51 Q1280.02 1535.48 1281.33 1539.24 Z" fill="#000000" fill-rule="evenodd" fill-opacity="1" /><path clip-path="url(#clip090)" d="M1322.73 1562.7 L1322.73 1581.6 L1316.85 1581.6 L1316.85 1532.4 L1322.73 1532.4 L1322.73 1537.81 Q1324.58 1534.62 1327.38 1533.1 Q1330.21 1531.54 1334.13 1531.54 Q1340.62 1531.54 1344.66 1536.69 Q1348.74 1541.85 1348.74 1550.25 Q1348.74 1558.65 1344.66 1563.81 Q1340.62 1568.97 1334.13 1568.97 Q1330.21 1568.97 1327.38 1567.44 Q1324.58 1565.88 1322.73 1562.7 M1342.66 1550.25 Q1342.66 1543.79 1339.99 1540.13 Q1337.34 1536.44 1332.7 1536.44 Q1328.05 1536.44 1325.38 1540.13 Q1322.73 1543.79 1322.73 1550.25 Q1322.73 1556.71 1325.38 1560.4 Q1328.05 1564.07 1332.7 1564.07 Q1337.34 1564.07 1339.99 1560.4 Q1342.66 1556.71 1342.66 1550.25 Z" fill="#000000" fill-rule="evenodd" fill-opacity="1" /><path clip-path="url(#clip090)" d="M1372.26 1536.5 Q1367.55 1536.5 1364.81 1540.19 Q1362.07 1543.85 1362.07 1550.25 Q1362.07 1556.65 1364.78 1560.34 Q1367.52 1564 1372.26 1564 Q1376.94 1564 1379.68 1560.31 Q1382.41 1556.62 1382.41 1550.25 Q1382.41 1543.92 1379.68 1540.23 Q1376.94 1536.5 1372.26 1536.5 M1372.26 1531.54 Q1379.9 1531.54 1384.26 1536.5 Q1388.62 1541.47 1388.62 1550.25 Q1388.62 1559 1384.26 1564 Q1379.9 1568.97 1372.26 1568.97 Q1364.59 1568.97 1360.23 1564 Q1355.9 1559 1355.9 1550.25 Q1355.9 1541.47 1360.23 1536.5 Q1364.59 1531.54 1372.26 1531.54 Z" fill="#000000" fill-rule="evenodd" fill-opacity="1" /><polyline clip-path="url(#clip092)" style="stroke:#ffffff; stroke-linecap:butt; stroke-linejoin:round; stroke-width:4; stroke-opacity:1; fill:none" points="
  219.38,1386.64 2352.76,1386.64 
  "/>
<polyline clip-path="url(#clip092)" style="stroke:#ffffff; stroke-linecap:butt; stroke-linejoin:round; stroke-width:4; stroke-opacity:1; fill:none" points="
  219.38,1075.9 2352.76,1075.9 
  "/>
<polyline clip-path="url(#clip092)" style="stroke:#ffffff; stroke-linecap:butt; stroke-linejoin:round; stroke-width:4; stroke-opacity:1; fill:none" points="
  219.38,765.154 2352.76,765.154 
  "/>
<polyline clip-path="url(#clip092)" style="stroke:#ffffff; stroke-linecap:butt; stroke-linejoin:round; stroke-width:4; stroke-opacity:1; fill:none" points="
  219.38,454.411 2352.76,454.411 
  "/>
<polyline clip-path="url(#clip092)" style="stroke:#ffffff; stroke-linecap:butt; stroke-linejoin:round; stroke-width:4; stroke-opacity:1; fill:none" points="
  219.38,143.667 2352.76,143.667 
  "/>
<polyline clip-path="url(#clip092)" style="stroke:#ffffff; stroke-linecap:butt; stroke-linejoin:round; stroke-width:2; stroke-opacity:1; fill:none" points="
  219.38,1231.27 2352.76,1231.27 
  "/>
<polyline clip-path="url(#clip092)" style="stroke:#ffffff; stroke-linecap:butt; stroke-linejoin:round; stroke-width:2; stroke-opacity:1; fill:none" points="
  219.38,920.525 2352.76,920.525 
  "/>
<polyline clip-path="url(#clip092)" style="stroke:#ffffff; stroke-linecap:butt; stroke-linejoin:round; stroke-width:2; stroke-opacity:1; fill:none" points="
  219.38,609.782 2352.76,609.782 
  "/>
<polyline clip-path="url(#clip092)" style="stroke:#ffffff; stroke-linecap:butt; stroke-linejoin:round; stroke-width:2; stroke-opacity:1; fill:none" points="
  219.38,299.039 2352.76,299.039 
  "/>
<polyline clip-path="url(#clip090)" style="stroke:#ffffff; stroke-linecap:butt; stroke-linejoin:round; stroke-width:4; stroke-opacity:1; fill:none" points="
  219.38,1423.18 219.38,132.112 
  "/>
<polyline clip-path="url(#clip090)" style="stroke:#333333; stroke-linecap:butt; stroke-linejoin:round; stroke-width:4; stroke-opacity:1; fill:none" points="
  219.38,1386.64 200.483,1386.64 
  "/>
<polyline clip-path="url(#clip090)" style="stroke:#333333; stroke-linecap:butt; stroke-linejoin:round; stroke-width:4; stroke-opacity:1; fill:none" points="
  219.38,1075.9 200.483,1075.9 
  "/>
<polyline clip-path="url(#clip090)" style="stroke:#333333; stroke-linecap:butt; stroke-linejoin:round; stroke-width:4; stroke-opacity:1; fill:none" points="
  219.38,765.154 200.483,765.154 
  "/>
<polyline clip-path="url(#clip090)" style="stroke:#333333; stroke-linecap:butt; stroke-linejoin:round; stroke-width:4; stroke-opacity:1; fill:none" points="
  219.38,454.411 200.483,454.411 
  "/>
<polyline clip-path="url(#clip090)" style="stroke:#333333; stroke-linecap:butt; stroke-linejoin:round; stroke-width:4; stroke-opacity:1; fill:none" points="
  219.38,143.667 200.483,143.667 
  "/>
<polyline clip-path="url(#clip090)" style="stroke:#333333; stroke-linecap:butt; stroke-linejoin:round; stroke-width:4; stroke-opacity:1; fill:none" points="
  219.38,1231.27 209.931,1231.27 
  "/>
<polyline clip-path="url(#clip090)" style="stroke:#333333; stroke-linecap:butt; stroke-linejoin:round; stroke-width:4; stroke-opacity:1; fill:none" points="
  219.38,920.525 209.931,920.525 
  "/>
<polyline clip-path="url(#clip090)" style="stroke:#333333; stroke-linecap:butt; stroke-linejoin:round; stroke-width:4; stroke-opacity:1; fill:none" points="
  219.38,609.782 209.931,609.782 
  "/>
<polyline clip-path="url(#clip090)" style="stroke:#333333; stroke-linecap:butt; stroke-linejoin:round; stroke-width:4; stroke-opacity:1; fill:none" points="
  219.38,299.039 209.931,299.039 
  "/>
<path clip-path="url(#clip090)" d="M108.205 1372.44 Q104.593 1372.44 102.765 1376 Q100.959 1379.55 100.959 1386.67 Q100.959 1393.78 102.765 1397.35 Q104.593 1400.89 108.205 1400.89 Q111.839 1400.89 113.644 1397.35 Q115.473 1393.78 115.473 1386.67 Q115.473 1379.55 113.644 1376 Q111.839 1372.44 108.205 1372.44 M108.205 1368.74 Q114.015 1368.74 117.07 1373.34 Q120.149 1377.92 120.149 1386.67 Q120.149 1395.4 117.07 1400.01 Q114.015 1404.59 108.205 1404.59 Q102.394 1404.59 99.3157 1400.01 Q96.2602 1395.4 96.2602 1386.67 Q96.2602 1377.92 99.3157 1373.34 Q102.394 1368.74 108.205 1368.74 Z" fill="#4c4c4c" fill-rule="evenodd" fill-opacity="1" /><path clip-path="url(#clip090)" d="M128.366 1398.04 L133.251 1398.04 L133.251 1403.92 L128.366 1403.92 L128.366 1398.04 Z" fill="#4c4c4c" fill-rule="evenodd" fill-opacity="1" /><path clip-path="url(#clip090)" d="M153.436 1372.44 Q149.825 1372.44 147.996 1376 Q146.19 1379.55 146.19 1386.67 Q146.19 1393.78 147.996 1397.35 Q149.825 1400.89 153.436 1400.89 Q157.07 1400.89 158.876 1397.35 Q160.704 1393.78 160.704 1386.67 Q160.704 1379.55 158.876 1376 Q157.07 1372.44 153.436 1372.44 M153.436 1368.74 Q159.246 1368.74 162.301 1373.34 Q165.38 1377.92 165.38 1386.67 Q165.38 1395.4 162.301 1400.01 Q159.246 1404.59 153.436 1404.59 Q147.626 1404.59 144.547 1400.01 Q141.491 1395.4 141.491 1386.67 Q141.491 1377.92 144.547 1373.34 Q147.626 1368.74 153.436 1368.74 Z" fill="#4c4c4c" fill-rule="evenodd" fill-opacity="1" /><path clip-path="url(#clip090)" d="M109.2 1061.7 Q105.589 1061.7 103.76 1065.26 Q101.955 1068.8 101.955 1075.93 Q101.955 1083.04 103.76 1086.6 Q105.589 1090.14 109.2 1090.14 Q112.834 1090.14 114.64 1086.6 Q116.468 1083.04 116.468 1075.93 Q116.468 1068.8 114.64 1065.26 Q112.834 1061.7 109.2 1061.7 M109.2 1057.99 Q115.01 1057.99 118.066 1062.6 Q121.144 1067.18 121.144 1075.93 Q121.144 1084.66 118.066 1089.26 Q115.01 1093.85 109.2 1093.85 Q103.39 1093.85 100.311 1089.26 Q97.2555 1084.66 97.2555 1075.93 Q97.2555 1067.18 100.311 1062.6 Q103.39 1057.99 109.2 1057.99 Z" fill="#4c4c4c" fill-rule="evenodd" fill-opacity="1" /><path clip-path="url(#clip090)" d="M129.362 1087.3 L134.246 1087.3 L134.246 1093.18 L129.362 1093.18 L129.362 1087.3 Z" fill="#4c4c4c" fill-rule="evenodd" fill-opacity="1" /><path clip-path="url(#clip090)" d="M144.477 1058.62 L162.834 1058.62 L162.834 1062.55 L148.76 1062.55 L148.76 1071.02 Q149.778 1070.68 150.797 1070.52 Q151.815 1070.33 152.834 1070.33 Q158.621 1070.33 162.001 1073.5 Q165.38 1076.67 165.38 1082.09 Q165.38 1087.67 161.908 1090.77 Q158.436 1093.85 152.116 1093.85 Q149.94 1093.85 147.672 1093.48 Q145.427 1093.11 143.019 1092.37 L143.019 1087.67 Q145.102 1088.8 147.325 1089.36 Q149.547 1089.91 152.024 1089.91 Q156.028 1089.91 158.366 1087.81 Q160.704 1085.7 160.704 1082.09 Q160.704 1078.48 158.366 1076.37 Q156.028 1074.27 152.024 1074.27 Q150.149 1074.27 148.274 1074.68 Q146.422 1075.1 144.477 1075.98 L144.477 1058.62 Z" fill="#4c4c4c" fill-rule="evenodd" fill-opacity="1" /><path clip-path="url(#clip090)" d="M99.0148 778.499 L106.654 778.499 L106.654 752.133 L98.3435 753.8 L98.3435 749.54 L106.607 747.874 L111.283 747.874 L111.283 778.499 L118.922 778.499 L118.922 782.434 L99.0148 782.434 L99.0148 778.499 Z" fill="#4c4c4c" fill-rule="evenodd" fill-opacity="1" /><path clip-path="url(#clip090)" d="M128.366 776.554 L133.251 776.554 L133.251 782.434 L128.366 782.434 L128.366 776.554 Z" fill="#4c4c4c" fill-rule="evenodd" fill-opacity="1" /><path clip-path="url(#clip090)" d="M153.436 750.952 Q149.825 750.952 147.996 754.517 Q146.19 758.059 146.19 765.189 Q146.19 772.295 147.996 775.86 Q149.825 779.401 153.436 779.401 Q157.07 779.401 158.876 775.86 Q160.704 772.295 160.704 765.189 Q160.704 758.059 158.876 754.517 Q157.07 750.952 153.436 750.952 M153.436 747.249 Q159.246 747.249 162.301 751.855 Q165.38 756.439 165.38 765.189 Q165.38 773.915 162.301 778.522 Q159.246 783.105 153.436 783.105 Q147.626 783.105 144.547 778.522 Q141.491 773.915 141.491 765.189 Q141.491 756.439 144.547 751.855 Q147.626 747.249 153.436 747.249 Z" fill="#4c4c4c" fill-rule="evenodd" fill-opacity="1" /><path clip-path="url(#clip090)" d="M100.01 467.755 L107.649 467.755 L107.649 441.39 L99.3388 443.056 L99.3388 438.797 L107.603 437.131 L112.279 437.131 L112.279 467.755 L119.917 467.755 L119.917 471.691 L100.01 471.691 L100.01 467.755 Z" fill="#4c4c4c" fill-rule="evenodd" fill-opacity="1" /><path clip-path="url(#clip090)" d="M129.362 465.811 L134.246 465.811 L134.246 471.691 L129.362 471.691 L129.362 465.811 Z" fill="#4c4c4c" fill-rule="evenodd" fill-opacity="1" /><path clip-path="url(#clip090)" d="M144.477 437.131 L162.834 437.131 L162.834 441.066 L148.76 441.066 L148.76 449.538 Q149.778 449.191 150.797 449.029 Q151.815 448.843 152.834 448.843 Q158.621 448.843 162.001 452.015 Q165.38 455.186 165.38 460.603 Q165.38 466.181 161.908 469.283 Q158.436 472.362 152.116 472.362 Q149.94 472.362 147.672 471.992 Q145.427 471.621 143.019 470.88 L143.019 466.181 Q145.102 467.316 147.325 467.871 Q149.547 468.427 152.024 468.427 Q156.028 468.427 158.366 466.32 Q160.704 464.214 160.704 460.603 Q160.704 456.992 158.366 454.885 Q156.028 452.779 152.024 452.779 Q150.149 452.779 148.274 453.195 Q146.422 453.612 144.477 454.492 L144.477 437.131 Z" fill="#4c4c4c" fill-rule="evenodd" fill-opacity="1" /><path clip-path="url(#clip090)" d="M102.232 157.012 L118.552 157.012 L118.552 160.947 L96.6074 160.947 L96.6074 157.012 Q99.2694 154.258 103.853 149.628 Q108.459 144.975 109.64 143.633 Q111.885 141.11 112.765 139.373 Q113.667 137.614 113.667 135.924 Q113.667 133.17 111.723 131.434 Q109.802 129.698 106.7 129.698 Q104.501 129.698 102.047 130.461 Q99.6166 131.225 96.8389 132.776 L96.8389 128.054 Q99.6629 126.92 102.117 126.341 Q104.57 125.762 106.607 125.762 Q111.978 125.762 115.172 128.448 Q118.367 131.133 118.367 135.623 Q118.367 137.753 117.556 139.674 Q116.769 141.573 114.663 144.165 Q114.084 144.836 110.982 148.054 Q107.88 151.248 102.232 157.012 Z" fill="#4c4c4c" fill-rule="evenodd" fill-opacity="1" /><path clip-path="url(#clip090)" d="M128.366 155.068 L133.251 155.068 L133.251 160.947 L128.366 160.947 L128.366 155.068 Z" fill="#4c4c4c" fill-rule="evenodd" fill-opacity="1" /><path clip-path="url(#clip090)" d="M153.436 129.466 Q149.825 129.466 147.996 133.031 Q146.19 136.573 146.19 143.702 Q146.19 150.809 147.996 154.373 Q149.825 157.915 153.436 157.915 Q157.07 157.915 158.876 154.373 Q160.704 150.809 160.704 143.702 Q160.704 136.573 158.876 133.031 Q157.07 129.466 153.436 129.466 M153.436 125.762 Q159.246 125.762 162.301 130.369 Q165.38 134.952 165.38 143.702 Q165.38 152.429 162.301 157.035 Q159.246 161.619 153.436 161.619 Q147.626 161.619 144.547 157.035 Q141.491 152.429 141.491 143.702 Q141.491 134.952 144.547 130.369 Q147.626 125.762 153.436 125.762 Z" fill="#4c4c4c" fill-rule="evenodd" fill-opacity="1" /><path clip-path="url(#clip090)" d="M28.3562 858.331 L28.3562 852.125 L58.275 840.985 L28.3562 829.845 L28.3562 823.638 L64.0042 837.006 L64.0042 844.963 L28.3562 858.331 Z" fill="#000000" fill-rule="evenodd" fill-opacity="1" /><path clip-path="url(#clip090)" d="M46.0847 799.353 Q46.0847 806.451 47.7079 809.188 Q49.3312 811.925 53.2461 811.925 Q56.3653 811.925 58.2114 809.888 Q60.0256 807.819 60.0256 804.286 Q60.0256 799.417 56.5881 796.488 Q53.1188 793.528 47.3897 793.528 L46.0847 793.528 L46.0847 799.353 M43.6657 787.672 L64.0042 787.672 L64.0042 793.528 L58.5933 793.528 Q61.8398 795.534 63.3994 798.526 Q64.9272 801.517 64.9272 805.846 Q64.9272 811.321 61.8716 814.567 Q58.7843 817.782 53.6281 817.782 Q47.6125 817.782 44.5569 813.771 Q41.5014 809.729 41.5014 801.74 L41.5014 793.528 L40.9285 793.528 Q36.8862 793.528 34.6901 796.202 Q32.4621 798.844 32.4621 803.65 Q32.4621 806.705 33.1941 809.602 Q33.9262 812.498 35.3903 815.172 L29.9795 815.172 Q28.7381 811.957 28.1334 808.933 Q27.4968 805.91 27.4968 803.045 Q27.4968 795.311 31.5072 791.491 Q35.5176 787.672 43.6657 787.672 Z" fill="#000000" fill-rule="evenodd" fill-opacity="1" /><path clip-path="url(#clip090)" d="M14.479 775.609 L14.479 769.753 L64.0042 769.753 L64.0042 775.609 L14.479 775.609 Z" fill="#000000" fill-rule="evenodd" fill-opacity="1" /><path clip-path="url(#clip090)" d="M32.4621 743.685 Q32.4621 748.396 36.1542 751.133 Q39.8145 753.87 46.212 753.87 Q52.6095 753.87 56.3017 751.165 Q59.9619 748.427 59.9619 743.685 Q59.9619 739.006 56.2698 736.269 Q52.5777 733.532 46.212 733.532 Q39.8781 733.532 36.186 736.269 Q32.4621 739.006 32.4621 743.685 M27.4968 743.685 Q27.4968 736.046 32.4621 731.686 Q37.4273 727.325 46.212 727.325 Q54.9649 727.325 59.9619 731.686 Q64.9272 736.046 64.9272 743.685 Q64.9272 751.356 59.9619 755.716 Q54.9649 760.045 46.212 760.045 Q37.4273 760.045 32.4621 755.716 Q27.4968 751.356 27.4968 743.685 Z" fill="#000000" fill-rule="evenodd" fill-opacity="1" /><path clip-path="url(#clip090)" d="M33.8307 696.961 Q33.2578 697.947 33.0032 699.125 Q32.7167 700.271 32.7167 701.671 Q32.7167 706.637 35.9632 709.31 Q39.1779 711.952 45.2253 711.952 L64.0042 711.952 L64.0042 717.84 L28.3562 717.84 L28.3562 711.952 L33.8944 711.952 Q30.6479 710.106 29.0883 707.146 Q27.4968 704.186 27.4968 699.953 Q27.4968 699.348 27.5923 698.616 Q27.656 697.884 27.8151 696.992 L33.8307 696.961 Z" fill="#000000" fill-rule="evenodd" fill-opacity="1" /><path clip-path="url(#clip090)" d="M487.947 18.214 L487.947 23.1446 Q485.586 20.9455 482.901 19.8575 Q480.239 18.7696 477.23 18.7696 Q471.304 18.7696 468.156 22.4038 Q465.008 26.0149 465.008 32.8667 Q465.008 39.6954 468.156 43.3296 Q471.304 46.9407 477.23 46.9407 Q480.239 46.9407 482.901 45.8528 Q485.586 44.7648 487.947 42.5657 L487.947 47.45 Q485.494 49.1166 482.739 49.95 Q480.008 50.7833 476.952 50.7833 Q469.105 50.7833 464.591 45.9917 Q460.077 41.1769 460.077 32.8667 Q460.077 24.5334 464.591 19.7418 Q469.105 14.927 476.952 14.927 Q480.054 14.927 482.785 15.7603 Q485.54 16.5705 487.947 18.214 Z" fill="#000000" fill-rule="evenodd" fill-opacity="1" /><path clip-path="url(#clip090)" d="M505.031 27.1723 Q501.605 27.1723 499.614 29.8575 Q497.623 32.5195 497.623 37.1723 Q497.623 41.825 499.591 44.5102 Q501.581 47.1722 505.031 47.1722 Q508.433 47.1722 510.424 44.487 Q512.415 41.8019 512.415 37.1723 Q512.415 32.5658 510.424 29.8806 Q508.433 27.1723 505.031 27.1723 M505.031 23.5612 Q510.586 23.5612 513.757 27.1723 Q516.929 30.7834 516.929 37.1723 Q516.929 43.538 513.757 47.1722 Q510.586 50.7833 505.031 50.7833 Q499.452 50.7833 496.281 47.1722 Q493.132 43.538 493.132 37.1723 Q493.132 30.7834 496.281 27.1723 Q499.452 23.5612 505.031 23.5612 Z" fill="#000000" fill-rule="evenodd" fill-opacity="1" /><path clip-path="url(#clip090)" d="M520.933 24.1862 L525.447 24.1862 L533.549 45.9454 L541.651 24.1862 L546.165 24.1862 L536.442 50.112 L530.655 50.112 L520.933 24.1862 Z" fill="#000000" fill-rule="evenodd" fill-opacity="1" /><path clip-path="url(#clip090)" d="M563.827 37.0797 Q558.665 37.0797 556.674 38.2602 Q554.683 39.4408 554.683 42.288 Q554.683 44.5565 556.165 45.8991 Q557.669 47.2185 560.239 47.2185 Q563.78 47.2185 565.91 44.7185 Q568.063 42.1954 568.063 38.0287 L568.063 37.0797 L563.827 37.0797 M572.322 35.3204 L572.322 50.112 L568.063 50.112 L568.063 46.1768 Q566.604 48.5379 564.428 49.6722 Q562.252 50.7833 559.104 50.7833 Q555.123 50.7833 552.762 48.5611 Q550.424 46.3157 550.424 42.5657 Q550.424 38.1908 553.34 35.9686 Q556.28 33.7463 562.09 33.7463 L568.063 33.7463 L568.063 33.3297 Q568.063 30.3899 566.118 28.7927 Q564.197 27.1723 560.702 27.1723 Q558.479 27.1723 556.373 27.7047 Q554.266 28.2371 552.322 29.3019 L552.322 25.3668 Q554.66 24.464 556.859 24.0242 Q559.058 23.5612 561.141 23.5612 Q566.766 23.5612 569.544 26.4779 Q572.322 29.3945 572.322 35.3204 Z" fill="#000000" fill-rule="evenodd" fill-opacity="1" /><path clip-path="url(#clip090)" d="M596.118 28.1677 Q595.4 27.751 594.544 27.5658 Q593.711 27.3575 592.692 27.3575 Q589.081 27.3575 587.137 29.7186 Q585.215 32.0565 585.215 36.4547 L585.215 50.112 L580.933 50.112 L580.933 24.1862 L585.215 24.1862 L585.215 28.214 Q586.558 25.8529 588.711 24.7186 Q590.863 23.5612 593.942 23.5612 Q594.382 23.5612 594.914 23.6307 Q595.447 23.677 596.095 23.7927 L596.118 28.1677 Z" fill="#000000" fill-rule="evenodd" fill-opacity="1" /><path clip-path="url(#clip090)" d="M600.586 24.1862 L604.845 24.1862 L604.845 50.112 L600.586 50.112 L600.586 24.1862 M600.586 14.0937 L604.845 14.0937 L604.845 19.4872 L600.586 19.4872 L600.586 14.0937 Z" fill="#000000" fill-rule="evenodd" fill-opacity="1" /><path clip-path="url(#clip090)" d="M625.539 37.0797 Q620.377 37.0797 618.386 38.2602 Q616.396 39.4408 616.396 42.288 Q616.396 44.5565 617.877 45.8991 Q619.382 47.2185 621.951 47.2185 Q625.493 47.2185 627.622 44.7185 Q629.775 42.1954 629.775 38.0287 L629.775 37.0797 L625.539 37.0797 M634.034 35.3204 L634.034 50.112 L629.775 50.112 L629.775 46.1768 Q628.317 48.5379 626.141 49.6722 Q623.965 50.7833 620.817 50.7833 Q616.836 50.7833 614.474 48.5611 Q612.136 46.3157 612.136 42.5657 Q612.136 38.1908 615.053 35.9686 Q617.993 33.7463 623.803 33.7463 L629.775 33.7463 L629.775 33.3297 Q629.775 30.3899 627.831 28.7927 Q625.91 27.1723 622.414 27.1723 Q620.192 27.1723 618.085 27.7047 Q615.979 28.2371 614.035 29.3019 L614.035 25.3668 Q616.373 24.464 618.572 24.0242 Q620.771 23.5612 622.854 23.5612 Q628.479 23.5612 631.257 26.4779 Q634.034 29.3945 634.034 35.3204 M621.326 12.1955 L624.752 12.1955 L630.423 20.8992 L627.206 20.8992 L623.039 15.2279 L618.873 20.8992 L615.655 20.8992 L621.326 12.1955 Z" fill="#000000" fill-rule="evenodd" fill-opacity="1" /><path clip-path="url(#clip090)" d="M664.358 34.4639 L664.358 50.112 L660.099 50.112 L660.099 34.6028 Q660.099 30.9223 658.664 29.0936 Q657.229 27.2649 654.358 27.2649 Q650.909 27.2649 648.919 29.464 Q646.928 31.663 646.928 35.4593 L646.928 50.112 L642.646 50.112 L642.646 24.1862 L646.928 24.1862 L646.928 28.214 Q648.456 25.876 650.516 24.7186 Q652.599 23.5612 655.308 23.5612 Q659.775 23.5612 662.067 26.339 Q664.358 29.0936 664.358 34.4639 Z" fill="#000000" fill-rule="evenodd" fill-opacity="1" /><path clip-path="url(#clip090)" d="M691.511 25.1816 L691.511 29.163 Q689.705 28.1677 687.877 27.6816 Q686.071 27.1723 684.219 27.1723 Q680.076 27.1723 677.784 29.8112 Q675.493 32.4269 675.493 37.1723 Q675.493 41.9176 677.784 44.5565 Q680.076 47.1722 684.219 47.1722 Q686.071 47.1722 687.877 46.6861 Q689.705 46.1768 691.511 45.1815 L691.511 49.1166 Q689.729 49.95 687.807 50.3666 Q685.909 50.7833 683.756 50.7833 Q677.9 50.7833 674.451 47.1028 Q671.002 43.4222 671.002 37.1723 Q671.002 30.8297 674.474 27.1955 Q677.969 23.5612 684.034 23.5612 Q686.002 23.5612 687.877 23.9779 Q689.752 24.3714 691.511 25.1816 Z" fill="#000000" fill-rule="evenodd" fill-opacity="1" /><path clip-path="url(#clip090)" d="M698.918 24.1862 L703.178 24.1862 L703.178 50.112 L698.918 50.112 L698.918 24.1862 M698.918 14.0937 L703.178 14.0937 L703.178 19.4872 L698.918 19.4872 L698.918 14.0937 Z" fill="#000000" fill-rule="evenodd" fill-opacity="1" /><path clip-path="url(#clip090)" d="M723.872 37.0797 Q718.71 37.0797 716.719 38.2602 Q714.729 39.4408 714.729 42.288 Q714.729 44.5565 716.21 45.8991 Q717.715 47.2185 720.284 47.2185 Q723.826 47.2185 725.955 44.7185 Q728.108 42.1954 728.108 38.0287 L728.108 37.0797 L723.872 37.0797 M732.367 35.3204 L732.367 50.112 L728.108 50.112 L728.108 46.1768 Q726.65 48.5379 724.474 49.6722 Q722.298 50.7833 719.15 50.7833 Q715.168 50.7833 712.807 48.5611 Q710.469 46.3157 710.469 42.5657 Q710.469 38.1908 713.386 35.9686 Q716.326 33.7463 722.136 33.7463 L728.108 33.7463 L728.108 33.3297 Q728.108 30.3899 726.164 28.7927 Q724.242 27.1723 720.747 27.1723 Q718.525 27.1723 716.418 27.7047 Q714.312 28.2371 712.367 29.3019 L712.367 25.3668 Q714.705 24.464 716.904 24.0242 Q719.103 23.5612 721.187 23.5612 Q726.812 23.5612 729.59 26.4779 Q732.367 29.3945 732.367 35.3204 Z" fill="#000000" fill-rule="evenodd" fill-opacity="1" /><path clip-path="url(#clip090)" d="M761.071 19.3946 L761.071 46.2694 L766.719 46.2694 Q773.872 46.2694 777.182 43.0287 Q780.515 39.788 780.515 32.7973 Q780.515 25.8529 777.182 22.6353 Q773.872 19.3946 766.719 19.3946 L761.071 19.3946 M756.395 15.552 L766.001 15.552 Q776.048 15.552 780.747 19.7418 Q785.446 23.9084 785.446 32.7973 Q785.446 41.7324 780.724 45.9222 Q776.001 50.112 766.001 50.112 L756.395 50.112 L756.395 15.552 Z" fill="#000000" fill-rule="evenodd" fill-opacity="1" /><path clip-path="url(#clip090)" d="M804.635 41.3389 L804.635 50.112 L801.95 50.112 L801.95 41.4315 Q801.95 39.3713 801.047 38.3528 Q800.145 37.3111 798.339 37.3111 Q796.163 37.3111 794.913 38.5611 Q793.663 39.788 793.663 41.9176 L793.663 50.112 L790.955 50.112 L790.955 29.9501 L793.663 29.9501 L793.663 37.8435 Q794.612 36.5473 795.909 35.8991 Q797.228 35.251 798.941 35.251 Q801.742 35.251 803.177 36.8019 Q804.635 38.3528 804.635 41.3389 Z" fill="#000000" fill-rule="evenodd" fill-opacity="1" /><path clip-path="url(#clip090)" d="M821.14 18.0057 L821.14 25.2279 L829.265 25.2279 L829.265 27.4269 L821.14 27.4269 L821.14 34.6491 L818.709 34.6491 L818.709 27.4269 L810.584 27.4269 L810.584 25.2279 L818.709 25.2279 L818.709 18.0057 L821.14 18.0057 Z" fill="#000000" fill-rule="evenodd" fill-opacity="1" /><path clip-path="url(#clip090)" d="M847.135 14.14 Q844.033 19.464 842.529 24.6723 Q841.024 29.8806 841.024 35.2278 Q841.024 40.575 842.529 45.8296 Q844.057 51.0611 847.135 56.362 L843.432 56.362 Q839.959 50.9222 838.223 45.6676 Q836.51 40.413 836.51 35.2278 Q836.51 30.0658 838.223 24.8344 Q839.936 19.6029 843.432 14.14 L847.135 14.14 Z" fill="#000000" fill-rule="evenodd" fill-opacity="1" /><path clip-path="url(#clip090)" d="M859.612 16.8251 L859.612 24.1862 L868.385 24.1862 L868.385 27.4964 L859.612 27.4964 L859.612 41.5704 Q859.612 44.7417 860.468 45.6444 Q861.348 46.5472 864.01 46.5472 L868.385 46.5472 L868.385 50.112 L864.01 50.112 Q859.08 50.112 857.205 48.2833 Q855.33 46.4315 855.33 41.5704 L855.33 27.4964 L852.205 27.4964 L852.205 24.1862 L855.33 24.1862 L855.33 16.8251 L859.612 16.8251 Z" fill="#000000" fill-rule="evenodd" fill-opacity="1" /><path clip-path="url(#clip090)" d="M875.075 44.2324 L879.959 44.2324 L879.959 48.2139 L876.163 55.6212 L873.177 55.6212 L875.075 48.2139 L875.075 44.2324 Z" fill="#000000" fill-rule="evenodd" fill-opacity="1" /><path clip-path="url(#clip090)" d="M920.653 24.9501 L920.653 28.9779 Q918.848 28.0519 916.903 27.589 Q914.959 27.126 912.876 27.126 Q909.704 27.126 908.107 28.0982 Q906.533 29.0704 906.533 31.0149 Q906.533 32.4964 907.667 33.3528 Q908.802 34.1862 912.227 34.95 L913.686 35.2741 Q918.223 36.2463 920.121 38.0287 Q922.042 39.788 922.042 42.9593 Q922.042 46.5704 919.172 48.6768 Q916.325 50.7833 911.325 50.7833 Q909.241 50.7833 906.973 50.3666 Q904.727 49.9731 902.227 49.1629 L902.227 44.7648 Q904.589 45.9917 906.88 46.6166 Q909.172 47.2185 911.417 47.2185 Q914.427 47.2185 916.047 46.2 Q917.667 45.1583 917.667 43.2833 Q917.667 41.5472 916.487 40.6213 Q915.329 39.6954 911.371 38.8389 L909.889 38.4917 Q905.931 37.6584 904.172 35.9454 Q902.413 34.2093 902.413 31.2001 Q902.413 27.5427 905.005 25.5519 Q907.598 23.5612 912.366 23.5612 Q914.727 23.5612 916.811 23.9084 Q918.894 24.2557 920.653 24.9501 Z" fill="#000000" fill-rule="evenodd" fill-opacity="1" /><path clip-path="url(#clip090)" d="M928.153 14.14 L931.857 14.14 Q935.329 19.6029 937.042 24.8344 Q938.778 30.0658 938.778 35.2278 Q938.778 40.413 937.042 45.6676 Q935.329 50.9222 931.857 56.362 L928.153 56.362 Q931.232 51.0611 932.737 45.8296 Q934.264 40.575 934.264 35.2278 Q934.264 29.8806 932.737 24.6723 Q931.232 19.464 928.153 14.14 Z" fill="#000000" fill-rule="evenodd" fill-opacity="1" /><path clip-path="url(#clip090)" d="M979.449 28.1214 L979.449 14.0937 L983.709 14.0937 L983.709 50.112 L979.449 50.112 L979.449 46.2231 Q978.107 48.5379 976.047 49.6722 Q974.01 50.7833 971.139 50.7833 Q966.44 50.7833 963.477 47.0333 Q960.537 43.2833 960.537 37.1723 Q960.537 31.0612 963.477 27.3112 Q966.44 23.5612 971.139 23.5612 Q974.01 23.5612 976.047 24.6955 Q978.107 25.8066 979.449 28.1214 M964.935 37.1723 Q964.935 41.8713 966.857 44.5565 Q968.801 47.2185 972.181 47.2185 Q975.56 47.2185 977.505 44.5565 Q979.449 41.8713 979.449 37.1723 Q979.449 32.4732 977.505 29.8112 Q975.56 27.126 972.181 27.126 Q968.801 27.126 966.857 29.8112 Q964.935 32.4732 964.935 37.1723 Z" fill="#000000" fill-rule="evenodd" fill-opacity="1" /><path clip-path="url(#clip090)" d="M1004.26 37.0797 Q999.102 37.0797 997.111 38.2602 Q995.121 39.4408 995.121 42.288 Q995.121 44.5565 996.602 45.8991 Q998.107 47.2185 1000.68 47.2185 Q1004.22 47.2185 1006.35 44.7185 Q1008.5 42.1954 1008.5 38.0287 L1008.5 37.0797 L1004.26 37.0797 M1012.76 35.3204 L1012.76 50.112 L1008.5 50.112 L1008.5 46.1768 Q1007.04 48.5379 1004.87 49.6722 Q1002.69 50.7833 999.542 50.7833 Q995.56 50.7833 993.199 48.5611 Q990.861 46.3157 990.861 42.5657 Q990.861 38.1908 993.778 35.9686 Q996.718 33.7463 1002.53 33.7463 L1008.5 33.7463 L1008.5 33.3297 Q1008.5 30.3899 1006.56 28.7927 Q1004.63 27.1723 1001.14 27.1723 Q998.917 27.1723 996.81 27.7047 Q994.704 28.2371 992.759 29.3019 L992.759 25.3668 Q995.097 24.464 997.296 24.0242 Q999.495 23.5612 1001.58 23.5612 Q1007.2 23.5612 1009.98 26.4779 Q1012.76 29.3945 1012.76 35.3204 Z" fill="#000000" fill-rule="evenodd" fill-opacity="1" /><path clip-path="url(#clip090)" d="M1038.06 24.9501 L1038.06 28.9779 Q1036.25 28.0519 1034.31 27.589 Q1032.37 27.126 1030.28 27.126 Q1027.11 27.126 1025.51 28.0982 Q1023.94 29.0704 1023.94 31.0149 Q1023.94 32.4964 1025.07 33.3528 Q1026.21 34.1862 1029.63 34.95 L1031.09 35.2741 Q1035.63 36.2463 1037.53 38.0287 Q1039.45 39.788 1039.45 42.9593 Q1039.45 46.5704 1036.58 48.6768 Q1033.73 50.7833 1028.73 50.7833 Q1026.65 50.7833 1024.38 50.3666 Q1022.13 49.9731 1019.63 49.1629 L1019.63 44.7648 Q1022 45.9917 1024.29 46.6166 Q1026.58 47.2185 1028.82 47.2185 Q1031.83 47.2185 1033.45 46.2 Q1035.07 45.1583 1035.07 43.2833 Q1035.07 41.5472 1033.89 40.6213 Q1032.74 39.6954 1028.78 38.8389 L1027.3 38.4917 Q1023.34 37.6584 1021.58 35.9454 Q1019.82 34.2093 1019.82 31.2001 Q1019.82 27.5427 1022.41 25.5519 Q1025 23.5612 1029.77 23.5612 Q1032.13 23.5612 1034.22 23.9084 Q1036.3 24.2557 1038.06 24.9501 Z" fill="#000000" fill-rule="evenodd" fill-opacity="1" /><path clip-path="url(#clip090)" d="M1078.36 28.1214 L1078.36 14.0937 L1082.62 14.0937 L1082.62 50.112 L1078.36 50.112 L1078.36 46.2231 Q1077.02 48.5379 1074.96 49.6722 Q1072.92 50.7833 1070.05 50.7833 Q1065.35 50.7833 1062.39 47.0333 Q1059.45 43.2833 1059.45 37.1723 Q1059.45 31.0612 1062.39 27.3112 Q1065.35 23.5612 1070.05 23.5612 Q1072.92 23.5612 1074.96 24.6955 Q1077.02 25.8066 1078.36 28.1214 M1063.85 37.1723 Q1063.85 41.8713 1065.77 44.5565 Q1067.71 47.2185 1071.09 47.2185 Q1074.47 47.2185 1076.42 44.5565 Q1078.36 41.8713 1078.36 37.1723 Q1078.36 32.4732 1076.42 29.8112 Q1074.47 27.126 1071.09 27.126 Q1067.71 27.126 1065.77 29.8112 Q1063.85 32.4732 1063.85 37.1723 Z" fill="#000000" fill-rule="evenodd" fill-opacity="1" /><path clip-path="url(#clip090)" d="M1091.39 24.1862 L1095.65 24.1862 L1095.65 50.112 L1091.39 50.112 L1091.39 24.1862 M1091.39 14.0937 L1095.65 14.0937 L1095.65 19.4872 L1091.39 19.4872 L1091.39 14.0937 Z" fill="#000000" fill-rule="evenodd" fill-opacity="1" /><path clip-path="url(#clip090)" d="M1117.69 14.0937 L1117.69 17.6353 L1113.62 17.6353 Q1111.32 17.6353 1110.42 18.5612 Q1109.54 19.4872 1109.54 21.8946 L1109.54 24.1862 L1116.56 24.1862 L1116.56 27.4964 L1109.54 27.4964 L1109.54 50.112 L1105.26 50.112 L1105.26 27.4964 L1101.18 27.4964 L1101.18 24.1862 L1105.26 24.1862 L1105.26 22.3807 Q1105.26 18.052 1107.27 16.0844 Q1109.29 14.0937 1113.66 14.0937 L1117.69 14.0937 Z" fill="#000000" fill-rule="evenodd" fill-opacity="1" /><path clip-path="url(#clip090)" d="M1143.43 36.0843 L1143.43 38.1676 L1123.85 38.1676 Q1124.12 42.5657 1126.49 44.8805 Q1128.87 47.1722 1133.11 47.1722 Q1135.56 47.1722 1137.85 46.5704 Q1140.17 45.9685 1142.43 44.7648 L1142.43 48.7926 Q1140.14 49.7648 1137.74 50.274 Q1135.33 50.7833 1132.85 50.7833 Q1126.65 50.7833 1123.01 47.1722 Q1119.4 43.5611 1119.4 37.4037 Q1119.4 31.038 1122.83 27.3112 Q1126.28 23.5612 1132.11 23.5612 Q1137.34 23.5612 1140.37 26.9408 Q1143.43 30.2973 1143.43 36.0843 M1139.17 34.8343 Q1139.12 31.339 1137.2 29.2556 Q1135.3 27.1723 1132.16 27.1723 Q1128.59 27.1723 1126.44 29.1862 Q1124.31 31.2001 1123.99 34.8575 L1139.17 34.8343 Z" fill="#000000" fill-rule="evenodd" fill-opacity="1" /><path clip-path="url(#clip090)" d="M1165.44 28.1677 Q1164.73 27.751 1163.87 27.5658 Q1163.04 27.3575 1162.02 27.3575 Q1158.41 27.3575 1156.46 29.7186 Q1154.54 32.0565 1154.54 36.4547 L1154.54 50.112 L1150.26 50.112 L1150.26 24.1862 L1154.54 24.1862 L1154.54 28.214 Q1155.88 25.8529 1158.04 24.7186 Q1160.19 23.5612 1163.27 23.5612 Q1163.71 23.5612 1164.24 23.6307 Q1164.77 23.677 1165.42 23.7927 L1165.44 28.1677 Z" fill="#000000" fill-rule="evenodd" fill-opacity="1" /><path clip-path="url(#clip090)" d="M1191.05 36.0843 L1191.05 38.1676 L1171.46 38.1676 Q1171.74 42.5657 1174.1 44.8805 Q1176.49 47.1722 1180.72 47.1722 Q1183.18 47.1722 1185.47 46.5704 Q1187.78 45.9685 1190.05 44.7648 L1190.05 48.7926 Q1187.76 49.7648 1185.35 50.274 Q1182.94 50.7833 1180.47 50.7833 Q1174.26 50.7833 1170.63 47.1722 Q1167.02 43.5611 1167.02 37.4037 Q1167.02 31.038 1170.44 27.3112 Q1173.89 23.5612 1179.73 23.5612 Q1184.96 23.5612 1187.99 26.9408 Q1191.05 30.2973 1191.05 36.0843 M1186.79 34.8343 Q1186.74 31.339 1184.82 29.2556 Q1182.92 27.1723 1179.77 27.1723 Q1176.21 27.1723 1174.05 29.1862 Q1171.93 31.2001 1171.6 34.8575 L1186.79 34.8343 Z" fill="#000000" fill-rule="evenodd" fill-opacity="1" /><path clip-path="url(#clip090)" d="M1219.59 34.4639 L1219.59 50.112 L1215.33 50.112 L1215.33 34.6028 Q1215.33 30.9223 1213.89 29.0936 Q1212.46 27.2649 1209.59 27.2649 Q1206.14 27.2649 1204.15 29.464 Q1202.16 31.663 1202.16 35.4593 L1202.16 50.112 L1197.87 50.112 L1197.87 24.1862 L1202.16 24.1862 L1202.16 28.214 Q1203.68 25.876 1205.74 24.7186 Q1207.83 23.5612 1210.54 23.5612 Q1215 23.5612 1217.3 26.339 Q1219.59 29.0936 1219.59 34.4639 Z" fill="#000000" fill-rule="evenodd" fill-opacity="1" /><path clip-path="url(#clip090)" d="M1246.74 25.1816 L1246.74 29.163 Q1244.93 28.1677 1243.11 27.6816 Q1241.3 27.1723 1239.45 27.1723 Q1235.3 27.1723 1233.01 29.8112 Q1230.72 32.4269 1230.72 37.1723 Q1230.72 41.9176 1233.01 44.5565 Q1235.3 47.1722 1239.45 47.1722 Q1241.3 47.1722 1243.11 46.6861 Q1244.93 46.1768 1246.74 45.1815 L1246.74 49.1166 Q1244.96 49.95 1243.04 50.3666 Q1241.14 50.7833 1238.98 50.7833 Q1233.13 50.7833 1229.68 47.1028 Q1226.23 43.4222 1226.23 37.1723 Q1226.23 30.8297 1229.7 27.1955 Q1233.2 23.5612 1239.26 23.5612 Q1241.23 23.5612 1243.11 23.9779 Q1244.98 24.3714 1246.74 25.1816 M1240.72 50.112 Q1241.99 51.5472 1242.62 52.7509 Q1243.24 53.9777 1243.24 55.0888 Q1243.24 57.149 1241.86 58.1907 Q1240.47 59.2555 1237.73 59.2555 Q1236.67 59.2555 1235.65 59.1166 Q1234.66 58.9777 1233.66 58.6999 L1233.66 55.6675 Q1234.45 56.061 1235.3 56.2231 Q1236.16 56.4083 1237.25 56.4083 Q1238.61 56.4083 1239.31 55.8527 Q1240 55.2972 1240 54.2323 Q1240 53.5379 1239.49 52.5194 Q1239.01 51.524 1237.97 50.112 L1240.72 50.112 Z" fill="#000000" fill-rule="evenodd" fill-opacity="1" /><path clip-path="url(#clip090)" d="M1265.93 37.0797 Q1260.77 37.0797 1258.78 38.2602 Q1256.79 39.4408 1256.79 42.288 Q1256.79 44.5565 1258.27 45.8991 Q1259.77 47.2185 1262.34 47.2185 Q1265.88 47.2185 1268.01 44.7185 Q1270.17 42.1954 1270.17 38.0287 L1270.17 37.0797 L1265.93 37.0797 M1274.42 35.3204 L1274.42 50.112 L1270.17 50.112 L1270.17 46.1768 Q1268.71 48.5379 1266.53 49.6722 Q1264.36 50.7833 1261.21 50.7833 Q1257.23 50.7833 1254.86 48.5611 Q1252.53 46.3157 1252.53 42.5657 Q1252.53 38.1908 1255.44 35.9686 Q1258.38 33.7463 1264.19 33.7463 L1270.17 33.7463 L1270.17 33.3297 Q1270.17 30.3899 1268.22 28.7927 Q1266.3 27.1723 1262.8 27.1723 Q1260.58 27.1723 1258.48 27.7047 Q1256.37 28.2371 1254.42 29.3019 L1254.42 25.3668 Q1256.76 24.464 1258.96 24.0242 Q1261.16 23.5612 1263.24 23.5612 Q1268.87 23.5612 1271.65 26.4779 Q1274.42 29.3945 1274.42 35.3204 Z" fill="#000000" fill-rule="evenodd" fill-opacity="1" /><path clip-path="url(#clip090)" d="M1299.73 24.9501 L1299.73 28.9779 Q1297.92 28.0519 1295.98 27.589 Q1294.03 27.126 1291.95 27.126 Q1288.78 27.126 1287.18 28.0982 Q1285.61 29.0704 1285.61 31.0149 Q1285.61 32.4964 1286.74 33.3528 Q1287.87 34.1862 1291.3 34.95 L1292.76 35.2741 Q1297.29 36.2463 1299.19 38.0287 Q1301.11 39.788 1301.11 42.9593 Q1301.11 46.5704 1298.24 48.6768 Q1295.4 50.7833 1290.4 50.7833 Q1288.31 50.7833 1286.04 50.3666 Q1283.8 49.9731 1281.3 49.1629 L1281.3 44.7648 Q1283.66 45.9917 1285.95 46.6166 Q1288.24 47.2185 1290.49 47.2185 Q1293.5 47.2185 1295.12 46.2 Q1296.74 45.1583 1296.74 43.2833 Q1296.74 41.5472 1295.56 40.6213 Q1294.4 39.6954 1290.44 38.8389 L1288.96 38.4917 Q1285 37.6584 1283.24 35.9454 Q1281.48 34.2093 1281.48 31.2001 Q1281.48 27.5427 1284.08 25.5519 Q1286.67 23.5612 1291.44 23.5612 Q1293.8 23.5612 1295.88 23.9084 Q1297.97 24.2557 1299.73 24.9501 Z" fill="#000000" fill-rule="evenodd" fill-opacity="1" /><path clip-path="url(#clip090)" d="M1336.09 14.0937 L1336.09 17.6353 L1332.02 17.6353 Q1329.73 17.6353 1328.82 18.5612 Q1327.94 19.4872 1327.94 21.8946 L1327.94 24.1862 L1334.96 24.1862 L1334.96 27.4964 L1327.94 27.4964 L1327.94 50.112 L1323.66 50.112 L1323.66 27.4964 L1319.59 27.4964 L1319.59 24.1862 L1323.66 24.1862 L1323.66 22.3807 Q1323.66 18.052 1325.67 16.0844 Q1327.69 14.0937 1332.06 14.0937 L1336.09 14.0937 Z" fill="#000000" fill-rule="evenodd" fill-opacity="1" /><path clip-path="url(#clip090)" d="M1339.66 24.1862 L1343.91 24.1862 L1343.91 50.112 L1339.66 50.112 L1339.66 24.1862 M1339.66 14.0937 L1343.91 14.0937 L1343.91 19.4872 L1339.66 19.4872 L1339.66 14.0937 Z" fill="#000000" fill-rule="evenodd" fill-opacity="1" /><path clip-path="url(#clip090)" d="M1374.38 34.4639 L1374.38 50.112 L1370.12 50.112 L1370.12 34.6028 Q1370.12 30.9223 1368.68 29.0936 Q1367.25 27.2649 1364.38 27.2649 Q1360.93 27.2649 1358.94 29.464 Q1356.95 31.663 1356.95 35.4593 L1356.95 50.112 L1352.66 50.112 L1352.66 24.1862 L1356.95 24.1862 L1356.95 28.214 Q1358.48 25.876 1360.54 24.7186 Q1362.62 23.5612 1365.33 23.5612 Q1369.79 23.5612 1372.09 26.339 Q1374.38 29.0936 1374.38 34.4639 Z" fill="#000000" fill-rule="evenodd" fill-opacity="1" /><path clip-path="url(#clip090)" d="M1382.87 24.1862 L1387.13 24.1862 L1387.13 50.112 L1382.87 50.112 L1382.87 24.1862 M1382.87 14.0937 L1387.13 14.0937 L1387.13 19.4872 L1382.87 19.4872 L1382.87 14.0937 Z" fill="#000000" fill-rule="evenodd" fill-opacity="1" /><path clip-path="url(#clip090)" d="M1400.26 16.8251 L1400.26 24.1862 L1409.03 24.1862 L1409.03 27.4964 L1400.26 27.4964 L1400.26 41.5704 Q1400.26 44.7417 1401.11 45.6444 Q1401.99 46.5472 1404.66 46.5472 L1409.03 46.5472 L1409.03 50.112 L1404.66 50.112 Q1399.72 50.112 1397.85 48.2833 Q1395.97 46.4315 1395.97 41.5704 L1395.97 27.4964 L1392.85 27.4964 L1392.85 24.1862 L1395.97 24.1862 L1395.97 16.8251 L1400.26 16.8251 Z" fill="#000000" fill-rule="evenodd" fill-opacity="1" /><path clip-path="url(#clip090)" d="M1426.41 37.0797 Q1421.25 37.0797 1419.26 38.2602 Q1417.27 39.4408 1417.27 42.288 Q1417.27 44.5565 1418.75 45.8991 Q1420.26 47.2185 1422.83 47.2185 Q1426.37 47.2185 1428.5 44.7185 Q1430.65 42.1954 1430.65 38.0287 L1430.65 37.0797 L1426.41 37.0797 M1434.91 35.3204 L1434.91 50.112 L1430.65 50.112 L1430.65 46.1768 Q1429.19 48.5379 1427.02 49.6722 Q1424.84 50.7833 1421.69 50.7833 Q1417.71 50.7833 1415.35 48.5611 Q1413.01 46.3157 1413.01 42.5657 Q1413.01 38.1908 1415.93 35.9686 Q1418.87 33.7463 1424.68 33.7463 L1430.65 33.7463 L1430.65 33.3297 Q1430.65 30.3899 1428.71 28.7927 Q1426.78 27.1723 1423.29 27.1723 Q1421.07 27.1723 1418.96 27.7047 Q1416.85 28.2371 1414.91 29.3019 L1414.91 25.3668 Q1417.25 24.464 1419.45 24.0242 Q1421.65 23.5612 1423.73 23.5612 Q1429.35 23.5612 1432.13 26.4779 Q1434.91 29.3945 1434.91 35.3204 Z" fill="#000000" fill-rule="evenodd" fill-opacity="1" /><path clip-path="url(#clip090)" d="M1460.21 24.9501 L1460.21 28.9779 Q1458.41 28.0519 1456.46 27.589 Q1454.52 27.126 1452.43 27.126 Q1449.26 27.126 1447.66 28.0982 Q1446.09 29.0704 1446.09 31.0149 Q1446.09 32.4964 1447.22 33.3528 Q1448.36 34.1862 1451.78 34.95 L1453.24 35.2741 Q1457.78 36.2463 1459.68 38.0287 Q1461.6 39.788 1461.6 42.9593 Q1461.6 46.5704 1458.73 48.6768 Q1455.88 50.7833 1450.88 50.7833 Q1448.8 50.7833 1446.53 50.3666 Q1444.28 49.9731 1441.78 49.1629 L1441.78 44.7648 Q1444.15 45.9917 1446.44 46.6166 Q1448.73 47.2185 1450.97 47.2185 Q1453.98 47.2185 1455.6 46.2 Q1457.22 45.1583 1457.22 43.2833 Q1457.22 41.5472 1456.04 40.6213 Q1454.89 39.6954 1450.93 38.8389 L1449.45 38.4917 Q1445.49 37.6584 1443.73 35.9454 Q1441.97 34.2093 1441.97 31.2001 Q1441.97 27.5427 1444.56 25.5519 Q1447.16 23.5612 1451.92 23.5612 Q1454.28 23.5612 1456.37 23.9084 Q1458.45 24.2557 1460.21 24.9501 Z" fill="#000000" fill-rule="evenodd" fill-opacity="1" /><path clip-path="url(#clip090)" d="M1500.51 28.1214 L1500.51 14.0937 L1504.77 14.0937 L1504.77 50.112 L1500.51 50.112 L1500.51 46.2231 Q1499.17 48.5379 1497.11 49.6722 Q1495.07 50.7833 1492.2 50.7833 Q1487.5 50.7833 1484.54 47.0333 Q1481.6 43.2833 1481.6 37.1723 Q1481.6 31.0612 1484.54 27.3112 Q1487.5 23.5612 1492.2 23.5612 Q1495.07 23.5612 1497.11 24.6955 Q1499.17 25.8066 1500.51 28.1214 M1486 37.1723 Q1486 41.8713 1487.92 44.5565 Q1489.86 47.2185 1493.24 47.2185 Q1496.62 47.2185 1498.57 44.5565 Q1500.51 41.8713 1500.51 37.1723 Q1500.51 32.4732 1498.57 29.8112 Q1496.62 27.126 1493.24 27.126 Q1489.86 27.126 1487.92 29.8112 Q1486 32.4732 1486 37.1723 Z" fill="#000000" fill-rule="evenodd" fill-opacity="1" /><path clip-path="url(#clip090)" d="M1535.72 36.0843 L1535.72 38.1676 L1516.14 38.1676 Q1516.41 42.5657 1518.78 44.8805 Q1521.16 47.1722 1525.4 47.1722 Q1527.85 47.1722 1530.14 46.5704 Q1532.46 45.9685 1534.72 44.7648 L1534.72 48.7926 Q1532.43 49.7648 1530.03 50.274 Q1527.62 50.7833 1525.14 50.7833 Q1518.94 50.7833 1515.3 47.1722 Q1511.69 43.5611 1511.69 37.4037 Q1511.69 31.038 1515.12 27.3112 Q1518.57 23.5612 1524.4 23.5612 Q1529.63 23.5612 1532.66 26.9408 Q1535.72 30.2973 1535.72 36.0843 M1531.46 34.8343 Q1531.41 31.339 1529.49 29.2556 Q1527.59 27.1723 1524.45 27.1723 Q1520.88 27.1723 1518.73 29.1862 Q1516.6 31.2001 1516.28 34.8575 L1531.46 34.8343 Z" fill="#000000" fill-rule="evenodd" fill-opacity="1" /><path clip-path="url(#clip090)" d="M1557.34 39.8806 L1557.34 24.1862 L1561.6 24.1862 L1561.6 39.7185 Q1561.6 43.3991 1563.03 45.2509 Q1564.47 47.0796 1567.34 47.0796 Q1570.79 47.0796 1572.78 44.8805 Q1574.79 42.6815 1574.79 38.8852 L1574.79 24.1862 L1579.05 24.1862 L1579.05 50.112 L1574.79 50.112 L1574.79 46.1305 Q1573.24 48.4916 1571.18 49.649 Q1569.15 50.7833 1566.44 50.7833 Q1561.97 50.7833 1559.65 48.0055 Q1557.34 45.2278 1557.34 39.8806 M1568.06 23.5612 L1568.06 23.5612 Z" fill="#000000" fill-rule="evenodd" fill-opacity="1" /><path clip-path="url(#clip090)" d="M1608.01 29.163 Q1609.61 26.2927 1611.83 24.9269 Q1614.05 23.5612 1617.06 23.5612 Q1621.11 23.5612 1623.31 26.4084 Q1625.51 29.2325 1625.51 34.4639 L1625.51 50.112 L1621.23 50.112 L1621.23 34.6028 Q1621.23 30.876 1619.91 29.0704 Q1618.59 27.2649 1615.88 27.2649 Q1612.57 27.2649 1610.65 29.464 Q1608.73 31.663 1608.73 35.4593 L1608.73 50.112 L1604.45 50.112 L1604.45 34.6028 Q1604.45 30.8528 1603.13 29.0704 Q1601.81 27.2649 1599.05 27.2649 Q1595.79 27.2649 1593.87 29.4871 Q1591.95 31.6862 1591.95 35.4593 L1591.95 50.112 L1587.66 50.112 L1587.66 24.1862 L1591.95 24.1862 L1591.95 28.214 Q1593.4 25.8297 1595.44 24.6955 Q1597.48 23.5612 1600.28 23.5612 Q1603.1 23.5612 1605.07 24.9964 Q1607.06 26.4316 1608.01 29.163 Z" fill="#000000" fill-rule="evenodd" fill-opacity="1" /><path clip-path="url(#clip090)" d="M1653.2 46.2231 L1653.2 59.9731 L1648.91 59.9731 L1648.91 24.1862 L1653.2 24.1862 L1653.2 28.1214 Q1654.54 25.8066 1656.58 24.6955 Q1658.64 23.5612 1661.48 23.5612 Q1666.2 23.5612 1669.14 27.3112 Q1672.11 31.0612 1672.11 37.1723 Q1672.11 43.2833 1669.14 47.0333 Q1666.2 50.7833 1661.48 50.7833 Q1658.64 50.7833 1656.58 49.6722 Q1654.54 48.5379 1653.2 46.2231 M1667.69 37.1723 Q1667.69 32.4732 1665.74 29.8112 Q1663.82 27.126 1660.44 27.126 Q1657.06 27.126 1655.12 29.8112 Q1653.2 32.4732 1653.2 37.1723 Q1653.2 41.8713 1655.12 44.5565 Q1657.06 47.2185 1660.44 47.2185 Q1663.82 47.2185 1665.74 44.5565 Q1667.69 41.8713 1667.69 37.1723 Z" fill="#000000" fill-rule="evenodd" fill-opacity="1" /><path clip-path="url(#clip090)" d="M1694.19 28.1677 Q1693.47 27.751 1692.62 27.5658 Q1691.78 27.3575 1690.76 27.3575 Q1687.15 27.3575 1685.21 29.7186 Q1683.29 32.0565 1683.29 36.4547 L1683.29 50.112 L1679.01 50.112 L1679.01 24.1862 L1683.29 24.1862 L1683.29 28.214 Q1684.63 25.8529 1686.78 24.7186 Q1688.94 23.5612 1692.01 23.5612 Q1692.45 23.5612 1692.99 23.6307 Q1693.52 23.677 1694.17 23.7927 L1694.19 28.1677 Z" fill="#000000" fill-rule="evenodd" fill-opacity="1" /><path clip-path="url(#clip090)" d="M1707.66 27.1723 Q1704.24 27.1723 1702.25 29.8575 Q1700.26 32.5195 1700.26 37.1723 Q1700.26 41.825 1702.22 44.5102 Q1704.21 47.1722 1707.66 47.1722 Q1711.07 47.1722 1713.06 44.487 Q1715.05 41.8019 1715.05 37.1723 Q1715.05 32.5658 1713.06 29.8806 Q1711.07 27.1723 1707.66 27.1723 M1707.66 23.5612 Q1713.22 23.5612 1716.39 27.1723 Q1719.56 30.7834 1719.56 37.1723 Q1719.56 43.538 1716.39 47.1722 Q1713.22 50.7833 1707.66 50.7833 Q1702.08 50.7833 1698.91 47.1722 Q1695.76 43.538 1695.76 37.1723 Q1695.76 30.7834 1698.91 27.1723 Q1702.08 23.5612 1707.66 23.5612 Z" fill="#000000" fill-rule="evenodd" fill-opacity="1" /><path clip-path="url(#clip090)" d="M1745.28 25.1816 L1745.28 29.163 Q1743.47 28.1677 1741.64 27.6816 Q1739.84 27.1723 1737.99 27.1723 Q1733.84 27.1723 1731.55 29.8112 Q1729.26 32.4269 1729.26 37.1723 Q1729.26 41.9176 1731.55 44.5565 Q1733.84 47.1722 1737.99 47.1722 Q1739.84 47.1722 1741.64 46.6861 Q1743.47 46.1768 1745.28 45.1815 L1745.28 49.1166 Q1743.5 49.95 1741.57 50.3666 Q1739.68 50.7833 1737.52 50.7833 Q1731.67 50.7833 1728.22 47.1028 Q1724.77 43.4222 1724.77 37.1723 Q1724.77 30.8297 1728.24 27.1955 Q1731.74 23.5612 1737.8 23.5612 Q1739.77 23.5612 1741.64 23.9779 Q1743.52 24.3714 1745.28 25.1816 Z" fill="#000000" fill-rule="evenodd" fill-opacity="1" /><path clip-path="url(#clip090)" d="M1774.86 36.0843 L1774.86 38.1676 L1755.28 38.1676 Q1755.56 42.5657 1757.92 44.8805 Q1760.3 47.1722 1764.54 47.1722 Q1766.99 47.1722 1769.28 46.5704 Q1771.6 45.9685 1773.87 44.7648 L1773.87 48.7926 Q1771.57 49.7648 1769.17 50.274 Q1766.76 50.7833 1764.28 50.7833 Q1758.08 50.7833 1754.45 47.1722 Q1750.83 43.5611 1750.83 37.4037 Q1750.83 31.038 1754.26 27.3112 Q1757.71 23.5612 1763.54 23.5612 Q1768.77 23.5612 1771.81 26.9408 Q1774.86 30.2973 1774.86 36.0843 M1770.6 34.8343 Q1770.56 31.339 1768.63 29.2556 Q1766.74 27.1723 1763.59 27.1723 Q1760.02 27.1723 1757.87 29.1862 Q1755.74 31.2001 1755.42 34.8575 L1770.6 34.8343 Z" fill="#000000" fill-rule="evenodd" fill-opacity="1" /><path clip-path="url(#clip090)" d="M1798.38 24.9501 L1798.38 28.9779 Q1796.57 28.0519 1794.63 27.589 Q1792.69 27.126 1790.6 27.126 Q1787.43 27.126 1785.83 28.0982 Q1784.26 29.0704 1784.26 31.0149 Q1784.26 32.4964 1785.39 33.3528 Q1786.53 34.1862 1789.95 34.95 L1791.41 35.2741 Q1795.95 36.2463 1797.85 38.0287 Q1799.77 39.788 1799.77 42.9593 Q1799.77 46.5704 1796.9 48.6768 Q1794.05 50.7833 1789.05 50.7833 Q1786.97 50.7833 1784.7 50.3666 Q1782.45 49.9731 1779.95 49.1629 L1779.95 44.7648 Q1782.32 45.9917 1784.61 46.6166 Q1786.9 47.2185 1789.14 47.2185 Q1792.15 47.2185 1793.77 46.2 Q1795.39 45.1583 1795.39 43.2833 Q1795.39 41.5472 1794.21 40.6213 Q1793.06 39.6954 1789.1 38.8389 L1787.62 38.4917 Q1783.66 37.6584 1781.9 35.9454 Q1780.14 34.2093 1780.14 31.2001 Q1780.14 27.5427 1782.73 25.5519 Q1785.32 23.5612 1790.09 23.5612 Q1792.45 23.5612 1794.54 23.9084 Q1796.62 24.2557 1798.38 24.9501 Z" fill="#000000" fill-rule="evenodd" fill-opacity="1" /><path clip-path="url(#clip090)" d="M1823.08 24.9501 L1823.08 28.9779 Q1821.27 28.0519 1819.33 27.589 Q1817.38 27.126 1815.3 27.126 Q1812.13 27.126 1810.53 28.0982 Q1808.96 29.0704 1808.96 31.0149 Q1808.96 32.4964 1810.09 33.3528 Q1811.23 34.1862 1814.65 34.95 L1816.11 35.2741 Q1820.65 36.2463 1822.55 38.0287 Q1824.47 39.788 1824.47 42.9593 Q1824.47 46.5704 1821.6 48.6768 Q1818.75 50.7833 1813.75 50.7833 Q1811.67 50.7833 1809.4 50.3666 Q1807.15 49.9731 1804.65 49.1629 L1804.65 44.7648 Q1807.01 45.9917 1809.31 46.6166 Q1811.6 47.2185 1813.84 47.2185 Q1816.85 47.2185 1818.47 46.2 Q1820.09 45.1583 1820.09 43.2833 Q1820.09 41.5472 1818.91 40.6213 Q1817.75 39.6954 1813.8 38.8389 L1812.32 38.4917 Q1808.36 37.6584 1806.6 35.9454 Q1804.84 34.2093 1804.84 31.2001 Q1804.84 27.5427 1807.43 25.5519 Q1810.02 23.5612 1814.79 23.5612 Q1817.15 23.5612 1819.24 23.9084 Q1821.32 24.2557 1823.08 24.9501 Z" fill="#000000" fill-rule="evenodd" fill-opacity="1" /><path clip-path="url(#clip090)" d="M1841.3 27.1723 Q1837.87 27.1723 1835.88 29.8575 Q1833.89 32.5195 1833.89 37.1723 Q1833.89 41.825 1835.86 44.5102 Q1837.85 47.1722 1841.3 47.1722 Q1844.7 47.1722 1846.69 44.487 Q1848.68 41.8019 1848.68 37.1723 Q1848.68 32.5658 1846.69 29.8806 Q1844.7 27.1723 1841.3 27.1723 M1841.3 23.5612 Q1846.85 23.5612 1850.02 27.1723 Q1853.19 30.7834 1853.19 37.1723 Q1853.19 43.538 1850.02 47.1722 Q1846.85 50.7833 1841.3 50.7833 Q1835.72 50.7833 1832.55 47.1722 Q1829.4 43.538 1829.4 37.1723 Q1829.4 30.7834 1832.55 27.1723 Q1835.72 23.5612 1841.3 23.5612 Z" fill="#000000" fill-rule="evenodd" fill-opacity="1" /><path clip-path="url(#clip090)" d="M1892.38 28.1214 L1892.38 14.0937 L1896.64 14.0937 L1896.64 50.112 L1892.38 50.112 L1892.38 46.2231 Q1891.04 48.5379 1888.98 49.6722 Q1886.94 50.7833 1884.07 50.7833 Q1879.38 50.7833 1876.41 47.0333 Q1873.47 43.2833 1873.47 37.1723 Q1873.47 31.0612 1876.41 27.3112 Q1879.38 23.5612 1884.07 23.5612 Q1886.94 23.5612 1888.98 24.6955 Q1891.04 25.8066 1892.38 28.1214 M1877.87 37.1723 Q1877.87 41.8713 1879.79 44.5565 Q1881.74 47.2185 1885.12 47.2185 Q1888.5 47.2185 1890.44 44.5565 Q1892.38 41.8713 1892.38 37.1723 Q1892.38 32.4732 1890.44 29.8112 Q1888.5 27.126 1885.12 27.126 Q1881.74 27.126 1879.79 29.8112 Q1877.87 32.4732 1877.87 37.1723 Z" fill="#000000" fill-rule="evenodd" fill-opacity="1" /><path clip-path="url(#clip090)" d="M1927.59 36.0843 L1927.59 38.1676 L1908.01 38.1676 Q1908.29 42.5657 1910.65 44.8805 Q1913.03 47.1722 1917.27 47.1722 Q1919.72 47.1722 1922.01 46.5704 Q1924.33 45.9685 1926.6 44.7648 L1926.6 48.7926 Q1924.31 49.7648 1921.9 50.274 Q1919.49 50.7833 1917.01 50.7833 Q1910.81 50.7833 1907.18 47.1722 Q1903.56 43.5611 1903.56 37.4037 Q1903.56 31.038 1906.99 27.3112 Q1910.44 23.5612 1916.27 23.5612 Q1921.5 23.5612 1924.54 26.9408 Q1927.59 30.2973 1927.59 36.0843 M1923.33 34.8343 Q1923.29 31.339 1921.37 29.2556 Q1919.47 27.1723 1916.32 27.1723 Q1912.75 27.1723 1910.6 29.1862 Q1908.47 31.2001 1908.15 34.8575 L1923.33 34.8343 Z" fill="#000000" fill-rule="evenodd" fill-opacity="1" /><path clip-path="url(#clip090)" d="M1946.76 15.552 L1951.48 15.552 L1958.75 44.7648 L1965.99 15.552 L1971.25 15.552 L1978.52 44.7648 L1985.76 15.552 L1990.51 15.552 L1981.83 50.112 L1975.95 50.112 L1968.66 20.1122 L1961.3 50.112 L1955.42 50.112 L1946.76 15.552 Z" fill="#000000" fill-rule="evenodd" fill-opacity="1" /><path clip-path="url(#clip090)" d="M1995.49 24.1862 L1999.74 24.1862 L1999.74 50.112 L1995.49 50.112 L1995.49 24.1862 M1995.49 14.0937 L1999.74 14.0937 L1999.74 19.4872 L1995.49 19.4872 L1995.49 14.0937 Z" fill="#000000" fill-rule="evenodd" fill-opacity="1" /><path clip-path="url(#clip090)" d="M2030.83 36.0843 L2030.83 38.1676 L2011.25 38.1676 Q2011.53 42.5657 2013.89 44.8805 Q2016.27 47.1722 2020.51 47.1722 Q2022.96 47.1722 2025.25 46.5704 Q2027.57 45.9685 2029.84 44.7648 L2029.84 48.7926 Q2027.55 49.7648 2025.14 50.274 Q2022.73 50.7833 2020.25 50.7833 Q2014.05 50.7833 2010.42 47.1722 Q2006.8 43.5611 2006.8 37.4037 Q2006.8 31.038 2010.23 27.3112 Q2013.68 23.5612 2019.51 23.5612 Q2024.74 23.5612 2027.78 26.9408 Q2030.83 30.2973 2030.83 36.0843 M2026.57 34.8343 Q2026.53 31.339 2024.61 29.2556 Q2022.71 27.1723 2019.56 27.1723 Q2015.99 27.1723 2013.84 29.1862 Q2011.71 31.2001 2011.39 34.8575 L2026.57 34.8343 Z" fill="#000000" fill-rule="evenodd" fill-opacity="1" /><path clip-path="url(#clip090)" d="M2059.37 34.4639 L2059.37 50.112 L2055.11 50.112 L2055.11 34.6028 Q2055.11 30.9223 2053.68 29.0936 Q2052.24 27.2649 2049.37 27.2649 Q2045.93 27.2649 2043.93 29.464 Q2041.94 31.663 2041.94 35.4593 L2041.94 50.112 L2037.66 50.112 L2037.66 24.1862 L2041.94 24.1862 L2041.94 28.214 Q2043.47 25.876 2045.53 24.7186 Q2047.61 23.5612 2050.32 23.5612 Q2054.79 23.5612 2057.08 26.339 Q2059.37 29.0936 2059.37 34.4639 Z" fill="#000000" fill-rule="evenodd" fill-opacity="1" /><path clip-path="url(#clip090)" d="M2090.05 36.0843 L2090.05 38.1676 L2070.46 38.1676 Q2070.74 42.5657 2073.1 44.8805 Q2075.49 47.1722 2079.72 47.1722 Q2082.17 47.1722 2084.47 46.5704 Q2086.78 45.9685 2089.05 44.7648 L2089.05 48.7926 Q2086.76 49.7648 2084.35 50.274 Q2081.94 50.7833 2079.47 50.7833 Q2073.26 50.7833 2069.63 47.1722 Q2066.02 43.5611 2066.02 37.4037 Q2066.02 31.038 2069.44 27.3112 Q2072.89 23.5612 2078.73 23.5612 Q2083.96 23.5612 2086.99 26.9408 Q2090.05 30.2973 2090.05 36.0843 M2085.79 34.8343 Q2085.74 31.339 2083.82 29.2556 Q2081.92 27.1723 2078.77 27.1723 Q2075.21 27.1723 2073.05 29.1862 Q2070.92 31.2001 2070.6 34.8575 L2085.79 34.8343 Z" fill="#000000" fill-rule="evenodd" fill-opacity="1" /><path clip-path="url(#clip090)" d="M2112.06 28.1677 Q2111.34 27.751 2110.48 27.5658 Q2109.65 27.3575 2108.63 27.3575 Q2105.02 27.3575 2103.08 29.7186 Q2101.16 32.0565 2101.16 36.4547 L2101.16 50.112 L2096.87 50.112 L2096.87 24.1862 L2101.16 24.1862 L2101.16 28.214 Q2102.5 25.8529 2104.65 24.7186 Q2106.8 23.5612 2109.88 23.5612 Q2110.32 23.5612 2110.86 23.6307 Q2111.39 23.677 2112.04 23.7927 L2112.06 28.1677 Z" fill="#000000" fill-rule="evenodd" fill-opacity="1" /><path clip-path="url(#clip090)" d="M1049.52 77.0216 L1049.52 81.003 Q1047.71 80.0077 1045.88 79.5216 Q1044.08 79.0123 1042.23 79.0123 Q1038.08 79.0123 1035.79 81.6512 Q1033.5 84.2669 1033.5 89.0123 Q1033.5 93.7576 1035.79 96.3965 Q1038.08 99.0122 1042.23 99.0122 Q1044.08 99.0122 1045.88 98.5261 Q1047.71 98.0168 1049.52 97.0215 L1049.52 100.957 Q1047.74 101.79 1045.81 102.207 Q1043.92 102.623 1041.76 102.623 Q1035.91 102.623 1032.46 98.9428 Q1029.01 95.2622 1029.01 89.0123 Q1029.01 82.6697 1032.48 79.0355 Q1035.98 75.4012 1042.04 75.4012 Q1044.01 75.4012 1045.88 75.8179 Q1047.76 76.2114 1049.52 77.0216 Z" fill="#000000" fill-rule="evenodd" fill-opacity="1" /><path clip-path="url(#clip090)" d="M1066.97 79.0123 Q1063.55 79.0123 1061.56 81.6975 Q1059.56 84.3595 1059.56 89.0123 Q1059.56 93.665 1061.53 96.3502 Q1063.52 99.0122 1066.97 99.0122 Q1070.37 99.0122 1072.37 96.327 Q1074.36 93.6419 1074.36 89.0123 Q1074.36 84.4058 1072.37 81.7206 Q1070.37 79.0123 1066.97 79.0123 M1066.97 75.4012 Q1072.53 75.4012 1075.7 79.0123 Q1078.87 82.6234 1078.87 89.0123 Q1078.87 95.378 1075.7 99.0122 Q1072.53 102.623 1066.97 102.623 Q1061.39 102.623 1058.22 99.0122 Q1055.07 95.378 1055.07 89.0123 Q1055.07 82.6234 1058.22 79.0123 Q1061.39 75.4012 1066.97 75.4012 Z" fill="#000000" fill-rule="evenodd" fill-opacity="1" /><path clip-path="url(#clip090)" d="M1106.12 81.003 Q1107.71 78.1327 1109.93 76.7669 Q1112.16 75.4012 1115.17 75.4012 Q1119.22 75.4012 1121.42 78.2484 Q1123.62 81.0725 1123.62 86.3039 L1123.62 101.952 L1119.33 101.952 L1119.33 86.4428 Q1119.33 82.716 1118.01 80.9104 Q1116.69 79.1049 1113.99 79.1049 Q1110.68 79.1049 1108.75 81.304 Q1106.83 83.503 1106.83 87.2993 L1106.83 101.952 L1102.55 101.952 L1102.55 86.4428 Q1102.55 82.6928 1101.23 80.9104 Q1099.91 79.1049 1097.16 79.1049 Q1093.89 79.1049 1091.97 81.3271 Q1090.05 83.5262 1090.05 87.2993 L1090.05 101.952 L1085.77 101.952 L1085.77 76.0262 L1090.05 76.0262 L1090.05 80.054 Q1091.51 77.6697 1093.55 76.5355 Q1095.58 75.4012 1098.38 75.4012 Q1101.21 75.4012 1103.18 76.8364 Q1105.17 78.2716 1106.12 81.003 Z" fill="#000000" fill-rule="evenodd" fill-opacity="1" /><path clip-path="url(#clip090)" d="M1163.71 76.7901 L1163.71 80.8179 Q1161.9 79.8919 1159.96 79.429 Q1158.01 78.966 1155.93 78.966 Q1152.76 78.966 1151.16 79.9382 Q1149.59 80.9104 1149.59 82.8549 Q1149.59 84.3364 1150.72 85.1928 Q1151.86 86.0262 1155.28 86.79 L1156.74 87.1141 Q1161.28 88.0863 1163.18 89.8687 Q1165.1 91.628 1165.1 94.7993 Q1165.1 98.4104 1162.23 100.517 Q1159.38 102.623 1154.38 102.623 Q1152.3 102.623 1150.03 102.207 Q1147.78 101.813 1145.28 101.003 L1145.28 96.6048 Q1147.64 97.8317 1149.93 98.4566 Q1152.23 99.0585 1154.47 99.0585 Q1157.48 99.0585 1159.1 98.04 Q1160.72 96.9983 1160.72 95.1233 Q1160.72 93.3872 1159.54 92.4613 Q1158.38 91.5354 1154.43 90.6789 L1152.94 90.3317 Q1148.99 89.4984 1147.23 87.7854 Q1145.47 86.0493 1145.47 83.0401 Q1145.47 79.3827 1148.06 77.3919 Q1150.65 75.4012 1155.42 75.4012 Q1157.78 75.4012 1159.87 75.7484 Q1161.95 76.0957 1163.71 76.7901 Z" fill="#000000" fill-rule="evenodd" fill-opacity="1" /><path clip-path="url(#clip090)" d="M1187.5 80.4243 L1217.18 80.4243 L1217.18 84.3132 L1187.5 84.3132 L1187.5 80.4243 M1187.5 89.8687 L1217.18 89.8687 L1217.18 93.8039 L1187.5 93.8039 L1187.5 89.8687 Z" fill="#000000" fill-rule="evenodd" fill-opacity="1" /><path clip-path="url(#clip090)" d="M1246.37 98.0168 L1262.69 98.0168 L1262.69 101.952 L1240.74 101.952 L1240.74 98.0168 Q1243.41 95.2622 1247.99 90.6326 Q1252.6 85.9799 1253.78 84.6373 Q1256.02 82.1141 1256.9 80.378 Q1257.8 78.6188 1257.8 76.929 Q1257.8 74.1744 1255.86 72.4383 Q1253.94 70.7022 1250.84 70.7022 Q1248.64 70.7022 1246.18 71.4661 Q1243.75 72.2299 1240.98 73.7809 L1240.98 69.0587 Q1243.8 67.9244 1246.25 67.3457 Q1248.71 66.767 1250.74 66.767 Q1256.11 66.767 1259.31 69.4522 Q1262.5 72.1373 1262.5 76.6281 Q1262.5 78.7577 1261.69 80.679 Q1260.91 82.5771 1258.8 85.1697 Q1258.22 85.841 1255.12 89.0586 Q1252.02 92.253 1246.37 98.0168 Z" fill="#000000" fill-rule="evenodd" fill-opacity="1" /><path clip-path="url(#clip090)" d="M1272.5 96.0724 L1277.39 96.0724 L1277.39 101.952 L1272.5 101.952 L1272.5 96.0724 Z" fill="#000000" fill-rule="evenodd" fill-opacity="1" /><path clip-path="url(#clip090)" d="M1297.57 70.4707 Q1293.96 70.4707 1292.13 74.0355 Q1290.33 77.5771 1290.33 84.7067 Q1290.33 91.8132 1292.13 95.378 Q1293.96 98.9196 1297.57 98.9196 Q1301.21 98.9196 1303.01 95.378 Q1304.84 91.8132 1304.84 84.7067 Q1304.84 77.5771 1303.01 74.0355 Q1301.21 70.4707 1297.57 70.4707 M1297.57 66.767 Q1303.38 66.767 1306.44 71.3735 Q1309.52 75.9568 1309.52 84.7067 Q1309.52 93.4335 1306.44 98.04 Q1303.38 102.623 1297.57 102.623 Q1291.76 102.623 1288.68 98.04 Q1285.63 93.4335 1285.63 84.7067 Q1285.63 75.9568 1288.68 71.3735 Q1291.76 66.767 1297.57 66.767 Z" fill="#000000" fill-rule="evenodd" fill-opacity="1" /><path clip-path="url(#clip090)" d="M1354.38 87.9243 L1354.38 90.0076 L1334.79 90.0076 Q1335.07 94.4057 1337.43 96.7205 Q1339.82 99.0122 1344.05 99.0122 Q1346.51 99.0122 1348.8 98.4104 Q1351.11 97.8085 1353.38 96.6048 L1353.38 100.633 Q1351.09 101.605 1348.68 102.114 Q1346.28 102.623 1343.8 102.623 Q1337.6 102.623 1333.96 99.0122 Q1330.35 95.4011 1330.35 89.2437 Q1330.35 82.878 1333.78 79.1512 Q1337.23 75.4012 1343.06 75.4012 Q1348.29 75.4012 1351.32 78.7808 Q1354.38 82.1373 1354.38 87.9243 M1350.12 86.6743 Q1350.07 83.179 1348.15 81.0956 Q1346.25 79.0123 1343.1 79.0123 Q1339.54 79.0123 1337.39 81.0262 Q1335.26 83.0401 1334.93 86.6975 L1350.12 86.6743 Z" fill="#000000" fill-rule="evenodd" fill-opacity="1" /><path clip-path="url(#clip090)" d="M1397.99 86.3039 L1397.99 101.952 L1393.73 101.952 L1393.73 86.4428 Q1393.73 82.7623 1392.29 80.9336 Q1390.86 79.1049 1387.99 79.1049 Q1384.54 79.1049 1382.55 81.304 Q1380.56 83.503 1380.56 87.2993 L1380.56 101.952 L1376.28 101.952 L1376.28 65.9337 L1380.56 65.9337 L1380.56 80.054 Q1382.09 77.716 1384.15 76.5586 Q1386.23 75.4012 1388.94 75.4012 Q1393.41 75.4012 1395.7 78.179 Q1397.99 80.9336 1397.99 86.3039 Z" fill="#000000" fill-rule="evenodd" fill-opacity="1" /><path clip-path="url(#clip090)" d="M1422.11 80.4243 L1451.78 80.4243 L1451.78 84.3132 L1422.11 84.3132 L1422.11 80.4243 M1422.11 89.8687 L1451.78 89.8687 L1451.78 93.8039 L1422.11 93.8039 L1422.11 89.8687 Z" fill="#000000" fill-rule="evenodd" fill-opacity="1" /><path clip-path="url(#clip090)" d="M1486.95 70.4707 Q1483.34 70.4707 1481.51 74.0355 Q1479.7 77.5771 1479.7 84.7067 Q1479.7 91.8132 1481.51 95.378 Q1483.34 98.9196 1486.95 98.9196 Q1490.58 98.9196 1492.39 95.378 Q1494.22 91.8132 1494.22 84.7067 Q1494.22 77.5771 1492.39 74.0355 Q1490.58 70.4707 1486.95 70.4707 M1486.95 66.767 Q1492.76 66.767 1495.81 71.3735 Q1498.89 75.9568 1498.89 84.7067 Q1498.89 93.4335 1495.81 98.04 Q1492.76 102.623 1486.95 102.623 Q1481.14 102.623 1478.06 98.04 Q1475 93.4335 1475 84.7067 Q1475 75.9568 1478.06 71.3735 Q1481.14 66.767 1486.95 66.767 Z" fill="#000000" fill-rule="evenodd" fill-opacity="1" /><path clip-path="url(#clip090)" d="M1507.11 96.0724 L1511.99 96.0724 L1511.99 101.952 L1507.11 101.952 L1507.11 96.0724 Z" fill="#000000" fill-rule="evenodd" fill-opacity="1" /><path clip-path="url(#clip090)" d="M1522.22 67.392 L1540.58 67.392 L1540.58 71.3272 L1526.51 71.3272 L1526.51 79.7993 Q1527.53 79.4521 1528.54 79.2901 Q1529.56 79.1049 1530.58 79.1049 Q1536.37 79.1049 1539.75 82.2762 Q1543.13 85.4475 1543.13 90.8641 Q1543.13 96.4428 1539.65 99.5446 Q1536.18 102.623 1529.86 102.623 Q1527.69 102.623 1525.42 102.253 Q1523.17 101.883 1520.77 101.142 L1520.77 96.4428 Q1522.85 97.577 1525.07 98.1326 Q1527.29 98.6881 1529.77 98.6881 Q1533.78 98.6881 1536.11 96.5817 Q1538.45 94.4752 1538.45 90.8641 Q1538.45 87.253 1536.11 85.1465 Q1533.78 83.0401 1529.77 83.0401 Q1527.9 83.0401 1526.02 83.4567 Q1524.17 83.8734 1522.22 84.753 L1522.22 67.392 Z" fill="#000000" fill-rule="evenodd" fill-opacity="1" /><polyline clip-path="url(#clip092)" style="stroke:#009af9; stroke-linecap:butt; stroke-linejoin:round; stroke-width:4; stroke-opacity:1; fill:none" points="
  279.759,1386.64 289.872,1386.64 299.986,1386.64 310.1,1386.64 320.213,1386.64 330.327,1386.64 340.441,1386.64 350.554,1386.64 360.668,1386.64 370.782,1386.64 
  380.895,1386.64 391.009,1386.64 401.123,1386.64 411.236,1386.64 421.35,1386.64 431.464,1386.64 441.577,1386.64 451.691,1386.64 461.805,1386.64 471.918,1386.64 
  482.032,1386.64 492.146,1386.64 502.259,1386.64 512.373,1386.64 522.487,1386.64 532.6,1386.64 542.714,1386.64 552.828,1386.64 562.941,1386.64 573.055,1386.64 
  583.169,1386.64 593.282,1386.64 603.396,1386.64 613.51,1386.64 623.623,1386.64 633.737,1386.64 643.851,1386.64 653.964,1386.64 664.078,1386.64 674.192,1386.64 
  684.305,1386.64 694.419,1386.64 704.532,1386.64 714.646,1386.64 724.76,1386.64 734.873,1386.64 744.987,1386.64 755.101,1386.64 765.214,1386.64 775.328,1386.64 
  785.442,1386.64 795.555,1386.64 805.669,1386.64 815.783,1386.64 825.896,1386.64 836.01,1386.64 846.124,1386.64 856.237,1386.64 866.351,1386.64 876.465,1386.64 
  886.578,1386.64 896.692,1386.64 906.806,1386.64 916.919,1386.64 927.033,1386.64 937.147,1386.64 947.26,1386.64 957.374,1386.64 967.488,1386.64 977.601,1386.64 
  987.715,1386.64 997.829,1386.64 1007.94,1386.64 1018.06,1386.64 1028.17,1386.64 1038.28,1367.9 1048.4,1317.93 1058.51,1267.96 1068.62,1218 1078.74,1168.03 
  1088.85,1118.06 1098.97,1068.09 1109.08,1018.12 1119.19,968.152 1129.31,918.183 1139.42,868.214 1149.53,818.246 1159.65,768.277 1169.76,718.308 1179.87,668.339 
  1189.99,618.371 1200.1,568.402 1210.22,518.433 1220.33,468.464 1230.44,418.496 1240.56,368.527 1250.67,318.558 1260.78,268.589 1270.9,218.621 1281.01,168.652 
  1291.12,168.652 1301.24,218.621 1311.35,268.589 1321.47,318.558 1331.58,368.527 1341.69,418.496 1351.81,468.464 1361.92,518.433 1372.03,568.402 1382.15,618.371 
  1392.26,668.339 1402.38,718.308 1412.49,768.277 1422.6,818.246 1432.72,868.214 1442.83,918.183 1452.94,968.152 1463.06,1018.12 1473.17,1068.09 1483.28,1118.06 
  1493.4,1168.03 1503.51,1218 1513.63,1267.96 1523.74,1317.93 1533.85,1367.9 1543.97,1386.64 1554.08,1386.64 1564.19,1386.64 1574.31,1386.64 1584.42,1386.64 
  1594.53,1386.64 1604.65,1386.64 1614.76,1386.64 1624.88,1386.64 1634.99,1386.64 1645.1,1386.64 1655.22,1386.64 1665.33,1386.64 1675.44,1386.64 1685.56,1386.64 
  1695.67,1386.64 1705.78,1386.64 1715.9,1386.64 1726.01,1386.64 1736.13,1386.64 1746.24,1386.64 1756.35,1386.64 1766.47,1386.64 1776.58,1386.64 1786.69,1386.64 
  1796.81,1386.64 1806.92,1386.64 1817.04,1386.64 1827.15,1386.64 1837.26,1386.64 1847.38,1386.64 1857.49,1386.64 1867.6,1386.64 1877.72,1386.64 1887.83,1386.64 
  1897.94,1386.64 1908.06,1386.64 1918.17,1386.64 1928.29,1386.64 1938.4,1386.64 1948.51,1386.64 1958.63,1386.64 1968.74,1386.64 1978.85,1386.64 1988.97,1386.64 
  1999.08,1386.64 2009.19,1386.64 2019.31,1386.64 2029.42,1386.64 2039.54,1386.64 2049.65,1386.64 2059.76,1386.64 2069.88,1386.64 2079.99,1386.64 2090.1,1386.64 
  2100.22,1386.64 2110.33,1386.64 2120.45,1386.64 2130.56,1386.64 2140.67,1386.64 2150.79,1386.64 2160.9,1386.64 2171.01,1386.64 2181.13,1386.64 2191.24,1386.64 
  2201.35,1386.64 2211.47,1386.64 2221.58,1386.64 2231.7,1386.64 2241.81,1386.64 2251.92,1386.64 2262.04,1386.64 2272.15,1386.64 2282.26,1386.64 2292.38,1386.64 
  
  "/>
</svg>
