<?xml version="1.0" encoding="utf-8"?>
<svg xmlns="http://www.w3.org/2000/svg" xmlns:xlink="http://www.w3.org/1999/xlink" width="800" height="600" viewBox="0 0 3200 2400">
<defs>
  <clipPath id="clip410">
    <rect x="0" y="0" width="3200" height="2400"/>
  </clipPath>
</defs>
<path clip-path="url(#clip410)" d="M0 2400 L3200 2400 L3200 0 L0 0  Z" fill="#ffffff" fill-rule="evenodd" fill-opacity="1"/>
<defs>
  <clipPath id="clip411">
    <rect x="640" y="0" width="2241" height="2241"/>
  </clipPath>
</defs>
<path clip-path="url(#clip410)" d="M233.806 2204.92 L3152.76 2204.92 L3152.76 121.312 L233.806 121.312  Z" fill="#eaeaea" fill-rule="evenodd" fill-opacity="1"/>
<defs>
  <clipPath id="clip412">
    <rect x="233" y="121" width="2920" height="2085"/>
  </clipPath>
</defs>
<polyline clip-path="url(#clip412)" style="stroke:#ffffff; stroke-linecap:round; stroke-linejoin:round; stroke-width:4; stroke-opacity:1; fill:none" points="316.418,2204.92 316.418,121.312 "/>
<polyline clip-path="url(#clip412)" style="stroke:#ffffff; stroke-linecap:round; stroke-linejoin:round; stroke-width:4; stroke-opacity:1; fill:none" points="867.163,2204.92 867.163,121.312 "/>
<polyline clip-path="url(#clip412)" style="stroke:#ffffff; stroke-linecap:round; stroke-linejoin:round; stroke-width:4; stroke-opacity:1; fill:none" points="1417.91,2204.92 1417.91,121.312 "/>
<polyline clip-path="url(#clip412)" style="stroke:#ffffff; stroke-linecap:round; stroke-linejoin:round; stroke-width:4; stroke-opacity:1; fill:none" points="1968.65,2204.92 1968.65,121.312 "/>
<polyline clip-path="url(#clip412)" style="stroke:#ffffff; stroke-linecap:round; stroke-linejoin:round; stroke-width:4; stroke-opacity:1; fill:none" points="2519.4,2204.92 2519.4,121.312 "/>
<polyline clip-path="url(#clip412)" style="stroke:#ffffff; stroke-linecap:round; stroke-linejoin:round; stroke-width:4; stroke-opacity:1; fill:none" points="3070.14,2204.92 3070.14,121.312 "/>
<polyline clip-path="url(#clip412)" style="stroke:#ffffff; stroke-linecap:round; stroke-linejoin:round; stroke-width:2; stroke-opacity:1; fill:none" points="591.791,2204.92 591.791,121.312 "/>
<polyline clip-path="url(#clip412)" style="stroke:#ffffff; stroke-linecap:round; stroke-linejoin:round; stroke-width:2; stroke-opacity:1; fill:none" points="1142.54,2204.92 1142.54,121.312 "/>
<polyline clip-path="url(#clip412)" style="stroke:#ffffff; stroke-linecap:round; stroke-linejoin:round; stroke-width:2; stroke-opacity:1; fill:none" points="1693.28,2204.92 1693.28,121.312 "/>
<polyline clip-path="url(#clip412)" style="stroke:#ffffff; stroke-linecap:round; stroke-linejoin:round; stroke-width:2; stroke-opacity:1; fill:none" points="2244.03,2204.92 2244.03,121.312 "/>
<polyline clip-path="url(#clip412)" style="stroke:#ffffff; stroke-linecap:round; stroke-linejoin:round; stroke-width:2; stroke-opacity:1; fill:none" points="2794.77,2204.92 2794.77,121.312 "/>
<polyline clip-path="url(#clip410)" style="stroke:#ffffff; stroke-linecap:round; stroke-linejoin:round; stroke-width:4; stroke-opacity:1; fill:none" points="233.806,2204.92 3152.76,2204.92 "/>
<polyline clip-path="url(#clip410)" style="stroke:#333333; stroke-linecap:round; stroke-linejoin:round; stroke-width:4; stroke-opacity:1; fill:none" points="316.418,2204.92 316.418,2223.82 "/>
<polyline clip-path="url(#clip410)" style="stroke:#333333; stroke-linecap:round; stroke-linejoin:round; stroke-width:4; stroke-opacity:1; fill:none" points="867.163,2204.92 867.163,2223.82 "/>
<polyline clip-path="url(#clip410)" style="stroke:#333333; stroke-linecap:round; stroke-linejoin:round; stroke-width:4; stroke-opacity:1; fill:none" points="1417.91,2204.92 1417.91,2223.82 "/>
<polyline clip-path="url(#clip410)" style="stroke:#333333; stroke-linecap:round; stroke-linejoin:round; stroke-width:4; stroke-opacity:1; fill:none" points="1968.65,2204.92 1968.65,2223.82 "/>
<polyline clip-path="url(#clip410)" style="stroke:#333333; stroke-linecap:round; stroke-linejoin:round; stroke-width:4; stroke-opacity:1; fill:none" points="2519.4,2204.92 2519.4,2223.82 "/>
<polyline clip-path="url(#clip410)" style="stroke:#333333; stroke-linecap:round; stroke-linejoin:round; stroke-width:4; stroke-opacity:1; fill:none" points="3070.14,2204.92 3070.14,2223.82 "/>
<polyline clip-path="url(#clip410)" style="stroke:#333333; stroke-linecap:round; stroke-linejoin:round; stroke-width:4; stroke-opacity:1; fill:none" points="591.791,2204.92 591.791,2214.37 "/>
<polyline clip-path="url(#clip410)" style="stroke:#333333; stroke-linecap:round; stroke-linejoin:round; stroke-width:4; stroke-opacity:1; fill:none" points="1142.54,2204.92 1142.54,2214.37 "/>
<polyline clip-path="url(#clip410)" style="stroke:#333333; stroke-linecap:round; stroke-linejoin:round; stroke-width:4; stroke-opacity:1; fill:none" points="1693.28,2204.92 1693.28,2214.37 "/>
<polyline clip-path="url(#clip410)" style="stroke:#333333; stroke-linecap:round; stroke-linejoin:round; stroke-width:4; stroke-opacity:1; fill:none" points="2244.03,2204.92 2244.03,2214.37 "/>
<polyline clip-path="url(#clip410)" style="stroke:#333333; stroke-linecap:round; stroke-linejoin:round; stroke-width:4; stroke-opacity:1; fill:none" points="2794.77,2204.92 2794.77,2214.37 "/>
<path clip-path="url(#clip410)" d="M316.418 2255.04 Q312.807 2255.04 310.978 2258.6 Q309.173 2262.14 309.173 2269.27 Q309.173 2276.38 310.978 2279.95 Q312.807 2283.49 316.418 2283.49 Q320.052 2283.49 321.858 2279.95 Q323.687 2276.38 323.687 2269.27 Q323.687 2262.14 321.858 2258.6 Q320.052 2255.04 316.418 2255.04 M316.418 2251.33 Q322.228 2251.33 325.284 2255.94 Q328.362 2260.52 328.362 2269.27 Q328.362 2278 325.284 2282.61 Q322.228 2287.19 316.418 2287.19 Q310.608 2287.19 307.529 2282.61 Q304.474 2278 304.474 2269.27 Q304.474 2260.52 307.529 2255.94 Q310.608 2251.33 316.418 2251.33 Z" fill="#4c4c4c" fill-rule="nonzero" fill-opacity="1" /><path clip-path="url(#clip410)" d="M857.545 2282.58 L865.184 2282.58 L865.184 2256.22 L856.874 2257.89 L856.874 2253.63 L865.138 2251.96 L869.814 2251.96 L869.814 2282.58 L877.453 2282.58 L877.453 2286.52 L857.545 2286.52 L857.545 2282.58 Z" fill="#4c4c4c" fill-rule="nonzero" fill-opacity="1" /><path clip-path="url(#clip410)" d="M1412.56 2282.58 L1428.88 2282.58 L1428.88 2286.52 L1406.94 2286.52 L1406.94 2282.58 Q1409.6 2279.83 1414.18 2275.2 Q1418.79 2270.55 1419.97 2269.21 Q1422.21 2266.68 1423.09 2264.95 Q1424 2263.19 1424 2261.5 Q1424 2258.74 1422.05 2257.01 Q1420.13 2255.27 1417.03 2255.27 Q1414.83 2255.27 1412.38 2256.03 Q1409.95 2256.8 1407.17 2258.35 L1407.17 2253.63 Q1409.99 2252.49 1412.45 2251.91 Q1414.9 2251.33 1416.94 2251.33 Q1422.31 2251.33 1425.5 2254.02 Q1428.7 2256.71 1428.7 2261.2 Q1428.7 2263.33 1427.89 2265.25 Q1427.1 2267.14 1424.99 2269.74 Q1424.41 2270.41 1421.31 2273.63 Q1418.21 2276.82 1412.56 2282.58 Z" fill="#4c4c4c" fill-rule="nonzero" fill-opacity="1" /><path clip-path="url(#clip410)" d="M1972.9 2267.89 Q1976.26 2268.6 1978.13 2270.87 Q1980.03 2273.14 1980.03 2276.47 Q1980.03 2281.59 1976.51 2284.39 Q1972.99 2287.19 1966.51 2287.19 Q1964.34 2287.19 1962.02 2286.75 Q1959.73 2286.33 1957.28 2285.48 L1957.28 2280.96 Q1959.22 2282.1 1961.54 2282.68 Q1963.85 2283.26 1966.37 2283.26 Q1970.77 2283.26 1973.06 2281.52 Q1975.38 2279.78 1975.38 2276.47 Q1975.38 2273.42 1973.23 2271.71 Q1971.1 2269.97 1967.28 2269.97 L1963.25 2269.97 L1963.25 2266.13 L1967.46 2266.13 Q1970.91 2266.13 1972.74 2264.76 Q1974.57 2263.37 1974.57 2260.78 Q1974.57 2258.12 1972.67 2256.71 Q1970.79 2255.27 1967.28 2255.27 Q1965.36 2255.27 1963.16 2255.69 Q1960.96 2256.1 1958.32 2256.98 L1958.32 2252.82 Q1960.98 2252.08 1963.29 2251.71 Q1965.63 2251.33 1967.69 2251.33 Q1973.02 2251.33 1976.12 2253.77 Q1979.22 2256.17 1979.22 2260.29 Q1979.22 2263.16 1977.58 2265.15 Q1975.93 2267.12 1972.9 2267.89 Z" fill="#4c4c4c" fill-rule="nonzero" fill-opacity="1" /><path clip-path="url(#clip410)" d="M2522.41 2256.03 L2510.6 2274.48 L2522.41 2274.48 L2522.41 2256.03 M2521.18 2251.96 L2527.06 2251.96 L2527.06 2274.48 L2531.99 2274.48 L2531.99 2278.37 L2527.06 2278.37 L2527.06 2286.52 L2522.41 2286.52 L2522.41 2278.37 L2506.81 2278.37 L2506.81 2273.86 L2521.18 2251.96 Z" fill="#4c4c4c" fill-rule="nonzero" fill-opacity="1" /><path clip-path="url(#clip410)" d="M3060.42 2251.96 L3078.78 2251.96 L3078.78 2255.9 L3064.7 2255.9 L3064.7 2264.37 Q3065.72 2264.02 3066.74 2263.86 Q3067.76 2263.67 3068.78 2263.67 Q3074.57 2263.67 3077.95 2266.84 Q3081.32 2270.02 3081.32 2275.43 Q3081.32 2281.01 3077.85 2284.11 Q3074.38 2287.19 3068.06 2287.19 Q3065.88 2287.19 3063.62 2286.82 Q3061.37 2286.45 3058.96 2285.71 L3058.96 2281.01 Q3061.05 2282.14 3063.27 2282.7 Q3065.49 2283.26 3067.97 2283.26 Q3071.97 2283.26 3074.31 2281.15 Q3076.65 2279.04 3076.65 2275.43 Q3076.65 2271.82 3074.31 2269.71 Q3071.97 2267.61 3067.97 2267.61 Q3066.09 2267.61 3064.22 2268.02 Q3062.37 2268.44 3060.42 2269.32 L3060.42 2251.96 Z" fill="#4c4c4c" fill-rule="nonzero" fill-opacity="1" /><path clip-path="url(#clip410)" d="M1692.34 2316.01 L1692.34 2326.14 L1704.41 2326.14 L1704.41 2330.69 L1692.34 2330.69 L1692.34 2350.04 Q1692.34 2354.4 1693.52 2355.64 Q1694.73 2356.88 1698.39 2356.88 L1704.41 2356.88 L1704.41 2361.78 L1698.39 2361.78 Q1691.61 2361.78 1689.03 2359.27 Q1686.45 2356.72 1686.45 2350.04 L1686.45 2330.69 L1682.16 2330.69 L1682.16 2326.14 L1686.45 2326.14 L1686.45 2316.01 L1692.34 2316.01 Z" fill="#000000" fill-rule="nonzero" fill-opacity="1" /><polyline clip-path="url(#clip412)" style="stroke:#ffffff; stroke-linecap:round; stroke-linejoin:round; stroke-width:4; stroke-opacity:1; fill:none" points="233.806,2153.28 3152.76,2153.28 "/>
<polyline clip-path="url(#clip412)" style="stroke:#ffffff; stroke-linecap:round; stroke-linejoin:round; stroke-width:4; stroke-opacity:1; fill:none" points="233.806,1855.21 3152.76,1855.21 "/>
<polyline clip-path="url(#clip412)" style="stroke:#ffffff; stroke-linecap:round; stroke-linejoin:round; stroke-width:4; stroke-opacity:1; fill:none" points="233.806,1557.15 3152.76,1557.15 "/>
<polyline clip-path="url(#clip412)" style="stroke:#ffffff; stroke-linecap:round; stroke-linejoin:round; stroke-width:4; stroke-opacity:1; fill:none" points="233.806,1259.08 3152.76,1259.08 "/>
<polyline clip-path="url(#clip412)" style="stroke:#ffffff; stroke-linecap:round; stroke-linejoin:round; stroke-width:4; stroke-opacity:1; fill:none" points="233.806,961.014 3152.76,961.014 "/>
<polyline clip-path="url(#clip412)" style="stroke:#ffffff; stroke-linecap:round; stroke-linejoin:round; stroke-width:4; stroke-opacity:1; fill:none" points="233.806,662.948 3152.76,662.948 "/>
<polyline clip-path="url(#clip412)" style="stroke:#ffffff; stroke-linecap:round; stroke-linejoin:round; stroke-width:4; stroke-opacity:1; fill:none" points="233.806,364.882 3152.76,364.882 "/>
<polyline clip-path="url(#clip412)" style="stroke:#ffffff; stroke-linecap:round; stroke-linejoin:round; stroke-width:2; stroke-opacity:1; fill:none" points="233.806,2004.24 3152.76,2004.24 "/>
<polyline clip-path="url(#clip412)" style="stroke:#ffffff; stroke-linecap:round; stroke-linejoin:round; stroke-width:2; stroke-opacity:1; fill:none" points="233.806,1706.18 3152.76,1706.18 "/>
<polyline clip-path="url(#clip412)" style="stroke:#ffffff; stroke-linecap:round; stroke-linejoin:round; stroke-width:2; stroke-opacity:1; fill:none" points="233.806,1408.11 3152.76,1408.11 "/>
<polyline clip-path="url(#clip412)" style="stroke:#ffffff; stroke-linecap:round; stroke-linejoin:round; stroke-width:2; stroke-opacity:1; fill:none" points="233.806,1110.05 3152.76,1110.05 "/>
<polyline clip-path="url(#clip412)" style="stroke:#ffffff; stroke-linecap:round; stroke-linejoin:round; stroke-width:2; stroke-opacity:1; fill:none" points="233.806,811.981 3152.76,811.981 "/>
<polyline clip-path="url(#clip412)" style="stroke:#ffffff; stroke-linecap:round; stroke-linejoin:round; stroke-width:2; stroke-opacity:1; fill:none" points="233.806,513.915 3152.76,513.915 "/>
<polyline clip-path="url(#clip412)" style="stroke:#ffffff; stroke-linecap:round; stroke-linejoin:round; stroke-width:2; stroke-opacity:1; fill:none" points="233.806,215.849 3152.76,215.849 "/>
<polyline clip-path="url(#clip410)" style="stroke:#ffffff; stroke-linecap:round; stroke-linejoin:round; stroke-width:4; stroke-opacity:1; fill:none" points="233.806,2204.92 233.806,121.312 "/>
<polyline clip-path="url(#clip410)" style="stroke:#333333; stroke-linecap:round; stroke-linejoin:round; stroke-width:4; stroke-opacity:1; fill:none" points="233.806,2153.28 214.909,2153.28 "/>
<polyline clip-path="url(#clip410)" style="stroke:#333333; stroke-linecap:round; stroke-linejoin:round; stroke-width:4; stroke-opacity:1; fill:none" points="233.806,1855.21 214.909,1855.21 "/>
<polyline clip-path="url(#clip410)" style="stroke:#333333; stroke-linecap:round; stroke-linejoin:round; stroke-width:4; stroke-opacity:1; fill:none" points="233.806,1557.15 214.909,1557.15 "/>
<polyline clip-path="url(#clip410)" style="stroke:#333333; stroke-linecap:round; stroke-linejoin:round; stroke-width:4; stroke-opacity:1; fill:none" points="233.806,1259.08 214.909,1259.08 "/>
<polyline clip-path="url(#clip410)" style="stroke:#333333; stroke-linecap:round; stroke-linejoin:round; stroke-width:4; stroke-opacity:1; fill:none" points="233.806,961.014 214.909,961.014 "/>
<polyline clip-path="url(#clip410)" style="stroke:#333333; stroke-linecap:round; stroke-linejoin:round; stroke-width:4; stroke-opacity:1; fill:none" points="233.806,662.948 214.909,662.948 "/>
<polyline clip-path="url(#clip410)" style="stroke:#333333; stroke-linecap:round; stroke-linejoin:round; stroke-width:4; stroke-opacity:1; fill:none" points="233.806,364.882 214.909,364.882 "/>
<polyline clip-path="url(#clip410)" style="stroke:#333333; stroke-linecap:round; stroke-linejoin:round; stroke-width:4; stroke-opacity:1; fill:none" points="233.806,2004.24 224.357,2004.24 "/>
<polyline clip-path="url(#clip410)" style="stroke:#333333; stroke-linecap:round; stroke-linejoin:round; stroke-width:4; stroke-opacity:1; fill:none" points="233.806,1706.18 224.357,1706.18 "/>
<polyline clip-path="url(#clip410)" style="stroke:#333333; stroke-linecap:round; stroke-linejoin:round; stroke-width:4; stroke-opacity:1; fill:none" points="233.806,1408.11 224.357,1408.11 "/>
<polyline clip-path="url(#clip410)" style="stroke:#333333; stroke-linecap:round; stroke-linejoin:round; stroke-width:4; stroke-opacity:1; fill:none" points="233.806,1110.05 224.357,1110.05 "/>
<polyline clip-path="url(#clip410)" style="stroke:#333333; stroke-linecap:round; stroke-linejoin:round; stroke-width:4; stroke-opacity:1; fill:none" points="233.806,811.981 224.357,811.981 "/>
<polyline clip-path="url(#clip410)" style="stroke:#333333; stroke-linecap:round; stroke-linejoin:round; stroke-width:4; stroke-opacity:1; fill:none" points="233.806,513.915 224.357,513.915 "/>
<polyline clip-path="url(#clip410)" style="stroke:#333333; stroke-linecap:round; stroke-linejoin:round; stroke-width:4; stroke-opacity:1; fill:none" points="233.806,215.849 224.357,215.849 "/>
<path clip-path="url(#clip410)" d="M106.228 2139.08 Q102.617 2139.08 100.788 2142.64 Q98.9825 2146.18 98.9825 2153.31 Q98.9825 2160.42 100.788 2163.98 Q102.617 2167.52 106.228 2167.52 Q109.862 2167.52 111.668 2163.98 Q113.496 2160.42 113.496 2153.31 Q113.496 2146.18 111.668 2142.64 Q109.862 2139.08 106.228 2139.08 M106.228 2135.37 Q112.038 2135.37 115.094 2139.98 Q118.172 2144.56 118.172 2153.31 Q118.172 2162.04 115.094 2166.65 Q112.038 2171.23 106.228 2171.23 Q100.418 2171.23 97.339 2166.65 Q94.2835 2162.04 94.2835 2153.31 Q94.2835 2144.56 97.339 2139.98 Q100.418 2135.37 106.228 2135.37 Z" fill="#4c4c4c" fill-rule="nonzero" fill-opacity="1" /><path clip-path="url(#clip410)" d="M126.39 2164.68 L131.274 2164.68 L131.274 2170.56 L126.39 2170.56 L126.39 2164.68 Z" fill="#4c4c4c" fill-rule="nonzero" fill-opacity="1" /><path clip-path="url(#clip410)" d="M145.487 2166.62 L161.806 2166.62 L161.806 2170.56 L139.862 2170.56 L139.862 2166.62 Q142.524 2163.87 147.107 2159.24 Q151.714 2154.59 152.894 2153.24 Q155.14 2150.72 156.019 2148.98 Q156.922 2147.22 156.922 2145.53 Q156.922 2142.78 154.978 2141.04 Q153.056 2139.31 149.954 2139.31 Q147.755 2139.31 145.302 2140.07 Q142.871 2140.84 140.093 2142.39 L140.093 2137.66 Q142.917 2136.53 145.371 2135.95 Q147.825 2135.37 149.862 2135.37 Q155.232 2135.37 158.427 2138.06 Q161.621 2140.74 161.621 2145.23 Q161.621 2147.36 160.811 2149.28 Q160.024 2151.18 157.917 2153.78 Q157.339 2154.45 154.237 2157.66 Q151.135 2160.86 145.487 2166.62 Z" fill="#4c4c4c" fill-rule="nonzero" fill-opacity="1" /><path clip-path="url(#clip410)" d="M104.145 1841.01 Q100.533 1841.01 98.7048 1844.57 Q96.8992 1848.12 96.8992 1855.25 Q96.8992 1862.35 98.7048 1865.92 Q100.533 1869.46 104.145 1869.46 Q107.779 1869.46 109.584 1865.92 Q111.413 1862.35 111.413 1855.25 Q111.413 1848.12 109.584 1844.57 Q107.779 1841.01 104.145 1841.01 M104.145 1837.31 Q109.955 1837.31 113.01 1841.91 Q116.089 1846.5 116.089 1855.25 Q116.089 1863.97 113.01 1868.58 Q109.955 1873.16 104.145 1873.16 Q98.3344 1873.16 95.2557 1868.58 Q92.2002 1863.97 92.2002 1855.25 Q92.2002 1846.5 95.2557 1841.91 Q98.3344 1837.31 104.145 1837.31 Z" fill="#4c4c4c" fill-rule="nonzero" fill-opacity="1" /><path clip-path="url(#clip410)" d="M124.306 1866.61 L129.191 1866.61 L129.191 1872.49 L124.306 1872.49 L124.306 1866.61 Z" fill="#4c4c4c" fill-rule="nonzero" fill-opacity="1" /><path clip-path="url(#clip410)" d="M152.223 1842.01 L140.417 1860.45 L152.223 1860.45 L152.223 1842.01 M150.996 1837.93 L156.876 1837.93 L156.876 1860.45 L161.806 1860.45 L161.806 1864.34 L156.876 1864.34 L156.876 1872.49 L152.223 1872.49 L152.223 1864.34 L136.621 1864.34 L136.621 1859.83 L150.996 1837.93 Z" fill="#4c4c4c" fill-rule="nonzero" fill-opacity="1" /><path clip-path="url(#clip410)" d="M104.469 1542.94 Q100.858 1542.94 99.0288 1546.51 Q97.2233 1550.05 97.2233 1557.18 Q97.2233 1564.29 99.0288 1567.85 Q100.858 1571.39 104.469 1571.39 Q108.103 1571.39 109.908 1567.85 Q111.737 1564.29 111.737 1557.18 Q111.737 1550.05 109.908 1546.51 Q108.103 1542.94 104.469 1542.94 M104.469 1539.24 Q110.279 1539.24 113.334 1543.85 Q116.413 1548.43 116.413 1557.18 Q116.413 1565.91 113.334 1570.51 Q110.279 1575.1 104.469 1575.1 Q98.6585 1575.1 95.5798 1570.51 Q92.5242 1565.91 92.5242 1557.18 Q92.5242 1548.43 95.5798 1543.85 Q98.6585 1539.24 104.469 1539.24 Z" fill="#4c4c4c" fill-rule="nonzero" fill-opacity="1" /><path clip-path="url(#clip410)" d="M124.631 1568.55 L129.515 1568.55 L129.515 1574.43 L124.631 1574.43 L124.631 1568.55 Z" fill="#4c4c4c" fill-rule="nonzero" fill-opacity="1" /><path clip-path="url(#clip410)" d="M150.279 1555.28 Q147.13 1555.28 145.279 1557.43 Q143.45 1559.59 143.45 1563.34 Q143.45 1567.06 145.279 1569.24 Q147.13 1571.39 150.279 1571.39 Q153.427 1571.39 155.255 1569.24 Q157.107 1567.06 157.107 1563.34 Q157.107 1559.59 155.255 1557.43 Q153.427 1555.28 150.279 1555.28 M159.561 1540.63 L159.561 1544.89 Q157.802 1544.06 155.996 1543.62 Q154.214 1543.18 152.454 1543.18 Q147.825 1543.18 145.371 1546.3 Q142.941 1549.43 142.593 1555.75 Q143.959 1553.73 146.019 1552.67 Q148.079 1551.58 150.556 1551.58 Q155.765 1551.58 158.774 1554.75 Q161.806 1557.9 161.806 1563.34 Q161.806 1568.66 158.658 1571.88 Q155.51 1575.1 150.279 1575.1 Q144.283 1575.1 141.112 1570.51 Q137.941 1565.91 137.941 1557.18 Q137.941 1548.99 141.83 1544.12 Q145.718 1539.24 152.269 1539.24 Q154.029 1539.24 155.811 1539.59 Q157.616 1539.94 159.561 1540.63 Z" fill="#4c4c4c" fill-rule="nonzero" fill-opacity="1" /><path clip-path="url(#clip410)" d="M104.723 1244.88 Q101.112 1244.88 99.2835 1248.44 Q97.4779 1251.98 97.4779 1259.11 Q97.4779 1266.22 99.2835 1269.79 Q101.112 1273.33 104.723 1273.33 Q108.357 1273.33 110.163 1269.79 Q111.992 1266.22 111.992 1259.11 Q111.992 1251.98 110.163 1248.44 Q108.357 1244.88 104.723 1244.88 M104.723 1241.17 Q110.533 1241.17 113.589 1245.78 Q116.668 1250.36 116.668 1259.11 Q116.668 1267.84 113.589 1272.45 Q110.533 1277.03 104.723 1277.03 Q98.9131 1277.03 95.8344 1272.45 Q92.7789 1267.84 92.7789 1259.11 Q92.7789 1250.36 95.8344 1245.78 Q98.9131 1241.17 104.723 1241.17 Z" fill="#4c4c4c" fill-rule="nonzero" fill-opacity="1" /><path clip-path="url(#clip410)" d="M124.885 1270.48 L129.769 1270.48 L129.769 1276.36 L124.885 1276.36 L124.885 1270.48 Z" fill="#4c4c4c" fill-rule="nonzero" fill-opacity="1" /><path clip-path="url(#clip410)" d="M149.954 1259.95 Q146.621 1259.95 144.7 1261.73 Q142.802 1263.51 142.802 1266.64 Q142.802 1269.76 144.7 1271.54 Q146.621 1273.33 149.954 1273.33 Q153.288 1273.33 155.209 1271.54 Q157.13 1269.74 157.13 1266.64 Q157.13 1263.51 155.209 1261.73 Q153.311 1259.95 149.954 1259.95 M145.279 1257.96 Q142.269 1257.22 140.58 1255.16 Q138.913 1253.1 138.913 1250.13 Q138.913 1245.99 141.853 1243.58 Q144.816 1241.17 149.954 1241.17 Q155.116 1241.17 158.056 1243.58 Q160.996 1245.99 160.996 1250.13 Q160.996 1253.1 159.306 1255.16 Q157.64 1257.22 154.654 1257.96 Q158.033 1258.74 159.908 1261.04 Q161.806 1263.33 161.806 1266.64 Q161.806 1271.66 158.728 1274.35 Q155.672 1277.03 149.954 1277.03 Q144.237 1277.03 141.158 1274.35 Q138.103 1271.66 138.103 1266.64 Q138.103 1263.33 140.001 1261.04 Q141.899 1258.74 145.279 1257.96 M143.566 1250.57 Q143.566 1253.26 145.232 1254.76 Q146.922 1256.27 149.954 1256.27 Q152.964 1256.27 154.654 1254.76 Q156.366 1253.26 156.366 1250.57 Q156.366 1247.89 154.654 1246.38 Q152.964 1244.88 149.954 1244.88 Q146.922 1244.88 145.232 1246.38 Q143.566 1247.89 143.566 1250.57 Z" fill="#4c4c4c" fill-rule="nonzero" fill-opacity="1" /><path clip-path="url(#clip410)" d="M95.4409 974.359 L103.08 974.359 L103.08 947.993 L94.7696 949.66 L94.7696 945.401 L103.033 943.734 L107.709 943.734 L107.709 974.359 L115.348 974.359 L115.348 978.294 L95.4409 978.294 L95.4409 974.359 Z" fill="#4c4c4c" fill-rule="nonzero" fill-opacity="1" /><path clip-path="url(#clip410)" d="M124.793 972.414 L129.677 972.414 L129.677 978.294 L124.793 978.294 L124.793 972.414 Z" fill="#4c4c4c" fill-rule="nonzero" fill-opacity="1" /><path clip-path="url(#clip410)" d="M149.862 946.813 Q146.251 946.813 144.422 950.377 Q142.617 953.919 142.617 961.049 Q142.617 968.155 144.422 971.72 Q146.251 975.262 149.862 975.262 Q153.496 975.262 155.302 971.72 Q157.13 968.155 157.13 961.049 Q157.13 953.919 155.302 950.377 Q153.496 946.813 149.862 946.813 M149.862 943.109 Q155.672 943.109 158.728 947.715 Q161.806 952.299 161.806 961.049 Q161.806 969.775 158.728 974.382 Q155.672 978.965 149.862 978.965 Q144.052 978.965 140.973 974.382 Q137.918 969.775 137.918 961.049 Q137.918 952.299 140.973 947.715 Q144.052 943.109 149.862 943.109 Z" fill="#4c4c4c" fill-rule="nonzero" fill-opacity="1" /><path clip-path="url(#clip410)" d="M97.0381 676.293 L104.677 676.293 L104.677 649.927 L96.3668 651.594 L96.3668 647.335 L104.631 645.668 L109.307 645.668 L109.307 676.293 L116.945 676.293 L116.945 680.228 L97.0381 680.228 L97.0381 676.293 Z" fill="#4c4c4c" fill-rule="nonzero" fill-opacity="1" /><path clip-path="url(#clip410)" d="M126.39 674.348 L131.274 674.348 L131.274 680.228 L126.39 680.228 L126.39 674.348 Z" fill="#4c4c4c" fill-rule="nonzero" fill-opacity="1" /><path clip-path="url(#clip410)" d="M145.487 676.293 L161.806 676.293 L161.806 680.228 L139.862 680.228 L139.862 676.293 Q142.524 673.538 147.107 668.909 Q151.714 664.256 152.894 662.913 Q155.14 660.39 156.019 658.654 Q156.922 656.895 156.922 655.205 Q156.922 652.45 154.978 650.714 Q153.056 648.978 149.954 648.978 Q147.755 648.978 145.302 649.742 Q142.871 650.506 140.093 652.057 L140.093 647.335 Q142.917 646.2 145.371 645.622 Q147.825 645.043 149.862 645.043 Q155.232 645.043 158.427 647.728 Q161.621 650.413 161.621 654.904 Q161.621 657.034 160.811 658.955 Q160.024 660.853 157.917 663.446 Q157.339 664.117 154.237 667.335 Q151.135 670.529 145.487 676.293 Z" fill="#4c4c4c" fill-rule="nonzero" fill-opacity="1" /><path clip-path="url(#clip410)" d="M94.9548 378.227 L102.594 378.227 L102.594 351.861 L94.2835 353.528 L94.2835 349.269 L102.547 347.602 L107.223 347.602 L107.223 378.227 L114.862 378.227 L114.862 382.162 L94.9548 382.162 L94.9548 378.227 Z" fill="#4c4c4c" fill-rule="nonzero" fill-opacity="1" /><path clip-path="url(#clip410)" d="M124.306 376.283 L129.191 376.283 L129.191 382.162 L124.306 382.162 L124.306 376.283 Z" fill="#4c4c4c" fill-rule="nonzero" fill-opacity="1" /><path clip-path="url(#clip410)" d="M152.223 351.676 L140.417 370.125 L152.223 370.125 L152.223 351.676 M150.996 347.602 L156.876 347.602 L156.876 370.125 L161.806 370.125 L161.806 374.014 L156.876 374.014 L156.876 382.162 L152.223 382.162 L152.223 374.014 L136.621 374.014 L136.621 369.5 L150.996 347.602 Z" fill="#4c4c4c" fill-rule="nonzero" fill-opacity="1" /><path clip-path="url(#clip410)" d="M48.597 1321.32 L67.5031 1321.32 L67.5031 1327.21 L18.2962 1327.21 L18.2962 1321.32 L23.7071 1321.32 Q20.5242 1319.47 18.9964 1316.67 Q17.4368 1313.84 17.4368 1309.93 Q17.4368 1303.43 22.5931 1299.39 Q27.7493 1295.32 36.152 1295.32 Q44.5547 1295.32 49.711 1299.39 Q54.8672 1303.43 54.8672 1309.93 Q54.8672 1313.84 53.3394 1316.67 Q51.7798 1319.47 48.597 1321.32 M36.152 1301.4 Q29.6908 1301.4 26.0305 1304.07 Q22.3384 1306.71 22.3384 1311.36 Q22.3384 1316 26.0305 1318.68 Q29.6908 1321.32 36.152 1321.32 Q42.6132 1321.32 46.3053 1318.68 Q49.9656 1316 49.9656 1311.36 Q49.9656 1306.71 46.3053 1304.07 Q42.6132 1301.4 36.152 1301.4 Z" fill="#000000" fill-rule="nonzero" fill-opacity="1" /><path clip-path="url(#clip410)" d="M22.4021 1271.79 Q22.4021 1276.51 26.0942 1279.24 Q29.7545 1281.98 36.152 1281.98 Q42.5495 1281.98 46.2417 1279.27 Q49.9019 1276.54 49.9019 1271.79 Q49.9019 1267.12 46.2098 1264.38 Q42.5177 1261.64 36.152 1261.64 Q29.8181 1261.64 26.126 1264.38 Q22.4021 1267.12 22.4021 1271.79 M17.4368 1271.79 Q17.4368 1264.16 22.4021 1259.8 Q27.3673 1255.43 36.152 1255.43 Q44.9049 1255.43 49.9019 1259.8 Q54.8672 1264.16 54.8672 1271.79 Q54.8672 1279.47 49.9019 1283.83 Q44.9049 1288.15 36.152 1288.15 Q27.3673 1288.15 22.4021 1283.83 Q17.4368 1279.47 17.4368 1271.79 Z" fill="#000000" fill-rule="nonzero" fill-opacity="1" /><path clip-path="url(#clip410)" d="M48.597 1240.06 L67.5031 1240.06 L67.5031 1245.95 L18.2962 1245.95 L18.2962 1240.06 L23.7071 1240.06 Q20.5242 1238.22 18.9964 1235.41 Q17.4368 1232.58 17.4368 1228.67 Q17.4368 1222.17 22.5931 1218.13 Q27.7493 1214.06 36.152 1214.06 Q44.5547 1214.06 49.711 1218.13 Q54.8672 1222.17 54.8672 1228.67 Q54.8672 1232.58 53.3394 1235.41 Q51.7798 1238.22 48.597 1240.06 M36.152 1220.14 Q29.6908 1220.14 26.0305 1222.81 Q22.3384 1225.45 22.3384 1230.1 Q22.3384 1234.75 26.0305 1237.42 Q29.6908 1240.06 36.152 1240.06 Q42.6132 1240.06 46.3053 1237.42 Q49.9656 1234.75 49.9656 1230.1 Q49.9656 1225.45 46.3053 1222.81 Q42.6132 1220.14 36.152 1220.14 Z" fill="#000000" fill-rule="nonzero" fill-opacity="1" /><path clip-path="url(#clip410)" d="M39.8759 1204.95 L18.2962 1204.95 L18.2962 1199.1 L39.6531 1199.1 Q44.7139 1199.1 47.2602 1197.12 Q49.7746 1195.15 49.7746 1191.2 Q49.7746 1186.46 46.7509 1183.72 Q43.7272 1180.96 38.5073 1180.96 L18.2962 1180.96 L18.2962 1175.1 L53.9442 1175.1 L53.9442 1180.96 L48.4696 1180.96 Q51.7162 1183.09 53.3076 1185.92 Q54.8672 1188.72 54.8672 1192.45 Q54.8672 1198.59 51.0478 1201.77 Q47.2283 1204.95 39.8759 1204.95 M17.4368 1190.22 L17.4368 1190.22 Z" fill="#000000" fill-rule="nonzero" fill-opacity="1" /><path clip-path="url(#clip410)" d="M4.41896 1163.04 L4.41896 1157.18 L53.9442 1157.18 L53.9442 1163.04 L4.41896 1163.04 Z" fill="#000000" fill-rule="nonzero" fill-opacity="1" /><path clip-path="url(#clip410)" d="M36.0247 1128.73 Q36.0247 1135.82 37.6479 1138.56 Q39.2712 1141.3 43.1861 1141.3 Q46.3053 1141.3 48.1514 1139.26 Q49.9656 1137.19 49.9656 1133.66 Q49.9656 1128.79 46.5281 1125.86 Q43.0588 1122.9 37.3297 1122.9 L36.0247 1122.9 L36.0247 1128.73 M33.6057 1117.04 L53.9442 1117.04 L53.9442 1122.9 L48.5333 1122.9 Q51.7798 1124.91 53.3394 1127.9 Q54.8672 1130.89 54.8672 1135.22 Q54.8672 1140.69 51.8116 1143.94 Q48.7243 1147.15 43.5681 1147.15 Q37.5525 1147.15 34.4969 1143.14 Q31.4414 1139.1 31.4414 1131.11 L31.4414 1122.9 L30.8685 1122.9 Q26.8262 1122.9 24.6301 1125.57 Q22.4021 1128.22 22.4021 1133.02 Q22.4021 1136.08 23.1341 1138.97 Q23.8662 1141.87 25.3303 1144.54 L19.9195 1144.54 Q18.6781 1141.33 18.0734 1138.31 Q17.4368 1135.28 17.4368 1132.42 Q17.4368 1124.68 21.4472 1120.86 Q25.4576 1117.04 33.6057 1117.04 Z" fill="#000000" fill-rule="nonzero" fill-opacity="1" /><path clip-path="url(#clip410)" d="M19.6648 1079.33 L25.1393 1079.33 Q23.7707 1081.81 23.1023 1084.32 Q22.4021 1086.81 22.4021 1089.35 Q22.4021 1095.05 26.0305 1098.2 Q29.6272 1101.35 36.152 1101.35 Q42.6769 1101.35 46.3053 1098.2 Q49.9019 1095.05 49.9019 1089.35 Q49.9019 1086.81 49.2335 1084.32 Q48.5333 1081.81 47.1647 1079.33 L52.5755 1079.33 Q53.7214 1081.78 54.2943 1084.42 Q54.8672 1087.03 54.8672 1089.99 Q54.8672 1098.04 49.8064 1102.78 Q44.7457 1107.53 36.152 1107.53 Q27.431 1107.53 22.4339 1102.75 Q17.4368 1097.95 17.4368 1089.61 Q17.4368 1086.9 18.0097 1084.32 Q18.5508 1081.75 19.6648 1079.33 M53.9442 1087.6 Q55.9175 1085.85 57.5726 1084.99 Q59.2595 1084.13 60.7873 1084.13 Q63.62 1084.13 65.0523 1086.04 Q66.5164 1087.95 66.5164 1091.71 Q66.5164 1093.17 66.3255 1094.57 Q66.1345 1095.94 65.7525 1097.31 L61.583 1097.31 Q62.1241 1096.23 62.3469 1095.05 Q62.6015 1093.87 62.6015 1092.38 Q62.6015 1090.5 61.8376 1089.54 Q61.0737 1088.59 59.6096 1088.59 Q58.6548 1088.59 57.2543 1089.29 Q55.8857 1089.96 53.9442 1091.39 L53.9442 1087.6 Z" fill="#000000" fill-rule="nonzero" fill-opacity="1" /><path clip-path="url(#clip410)" d="M36.0247 1052.94 Q36.0247 1060.04 37.6479 1062.78 Q39.2712 1065.51 43.1861 1065.51 Q46.3053 1065.51 48.1514 1063.48 Q49.9656 1061.41 49.9656 1057.87 Q49.9656 1053.01 46.5281 1050.08 Q43.0588 1047.12 37.3297 1047.12 L36.0247 1047.12 L36.0247 1052.94 M33.6057 1041.26 L53.9442 1041.26 L53.9442 1047.12 L48.5333 1047.12 Q51.7798 1049.12 53.3394 1052.11 Q54.8672 1055.11 54.8672 1059.43 Q54.8672 1064.91 51.8116 1068.16 Q48.7243 1071.37 43.5681 1071.37 Q37.5525 1071.37 34.4969 1067.36 Q31.4414 1063.32 31.4414 1055.33 L31.4414 1047.12 L30.8685 1047.12 Q26.8262 1047.12 24.6301 1049.79 Q22.4021 1052.43 22.4021 1057.24 Q22.4021 1060.29 23.1341 1063.19 Q23.8662 1066.09 25.3303 1068.76 L19.9195 1068.76 Q18.6781 1065.55 18.0734 1062.52 Q17.4368 1059.5 17.4368 1056.63 Q17.4368 1048.9 21.4472 1045.08 Q25.4576 1041.26 33.6057 1041.26 M10.3391 1056.51 L8.5885 1058.32 Q7.95193 1059.02 7.66547 1059.56 Q7.34718 1060.07 7.34718 1060.48 Q7.34718 1061.69 8.52484 1062.27 Q9.67067 1062.84 12.2806 1062.9 L12.2806 1066.88 Q7.98376 1066.82 5.66027 1065.2 Q3.30496 1063.57 3.30496 1060.68 Q3.30496 1059.47 3.75056 1058.45 Q4.19616 1057.43 5.2465 1056.25 L6.99707 1054.44 Q7.63364 1053.74 7.95193 1053.23 Q8.23838 1052.69 8.23838 1052.27 Q8.23838 1051.06 7.09256 1050.49 Q5.9149 1049.92 3.30496 1049.85 L3.30496 1045.88 Q7.60181 1045.94 9.95712 1047.56 Q12.2806 1049.19 12.2806 1052.08 Q12.2806 1053.29 11.835 1054.31 Q11.3894 1055.33 10.3391 1056.51 Z" fill="#000000" fill-rule="nonzero" fill-opacity="1" /><path clip-path="url(#clip410)" d="M22.4021 1015.38 Q22.4021 1020.09 26.0942 1022.83 Q29.7545 1025.57 36.152 1025.57 Q42.5495 1025.57 46.2417 1022.86 Q49.9019 1020.13 49.9019 1015.38 Q49.9019 1010.71 46.2098 1007.97 Q42.5177 1005.23 36.152 1005.23 Q29.8181 1005.23 26.126 1007.97 Q22.4021 1010.71 22.4021 1015.38 M17.4368 1015.38 Q17.4368 1007.74 22.4021 1003.38 Q27.3673 999.024 36.152 999.024 Q44.9049 999.024 49.9019 1003.38 Q54.8672 1007.74 54.8672 1015.38 Q54.8672 1023.05 49.9019 1027.42 Q44.9049 1031.74 36.152 1031.74 Q27.3673 1031.74 22.4021 1027.42 Q17.4368 1023.05 17.4368 1015.38 Z" fill="#000000" fill-rule="nonzero" fill-opacity="1" /><path clip-path="url(#clip410)" d="M972.365 23.3193 L979.136 23.3193 L991.288 55.958 L1003.44 23.3193 L1010.21 23.3193 L995.629 62.208 L986.948 62.208 L972.365 23.3193 Z" fill="#000000" fill-rule="nonzero" fill-opacity="1" /><path clip-path="url(#clip410)" d="M1036.7 42.6595 Q1028.96 42.6595 1025.98 44.4303 Q1022.99 46.2011 1022.99 50.472 Q1022.99 53.8747 1025.21 55.8886 Q1027.47 57.8677 1031.32 57.8677 Q1036.64 57.8677 1039.83 54.1178 Q1043.06 50.3331 1043.06 44.0831 L1043.06 42.6595 L1036.7 42.6595 M1049.45 40.0206 L1049.45 62.208 L1043.06 62.208 L1043.06 56.3053 Q1040.87 59.8469 1037.61 61.5483 Q1034.34 63.2149 1029.62 63.2149 Q1023.65 63.2149 1020.11 59.8816 Q1016.6 56.5136 1016.6 50.8886 Q1016.6 44.3262 1020.98 40.9928 Q1025.39 37.6595 1034.1 37.6595 L1043.06 37.6595 L1043.06 37.0345 Q1043.06 32.6248 1040.14 30.229 Q1037.26 27.7985 1032.02 27.7985 Q1028.68 27.7985 1025.52 28.5971 Q1022.36 29.3957 1019.45 30.9929 L1019.45 25.0901 Q1022.95 23.736 1026.25 23.0763 Q1029.55 22.3818 1032.68 22.3818 Q1041.11 22.3818 1045.28 26.7568 Q1049.45 31.1318 1049.45 40.0206 Z" fill="#000000" fill-rule="nonzero" fill-opacity="1" /><path clip-path="url(#clip410)" d="M1062.61 8.18051 L1069 8.18051 L1069 62.208 L1062.61 62.208 L1062.61 8.18051 Z" fill="#000000" fill-rule="nonzero" fill-opacity="1" /><path clip-path="url(#clip410)" d="M1097.43 27.7985 Q1092.29 27.7985 1089.31 31.8262 Q1086.32 35.8193 1086.32 42.7984 Q1086.32 49.7775 1089.27 53.8053 Q1092.26 57.7983 1097.43 57.7983 Q1102.54 57.7983 1105.52 53.7705 Q1108.51 49.7428 1108.51 42.7984 Q1108.51 35.8887 1105.52 31.8609 Q1102.54 27.7985 1097.43 27.7985 M1097.43 22.3818 Q1105.77 22.3818 1110.52 27.7985 Q1115.28 33.2151 1115.28 42.7984 Q1115.28 52.3469 1110.52 57.7983 Q1105.77 63.2149 1097.43 63.2149 Q1089.07 63.2149 1084.31 57.7983 Q1079.59 52.3469 1079.59 42.7984 Q1079.59 33.2151 1084.31 27.7985 Q1089.07 22.3818 1097.43 22.3818 Z" fill="#000000" fill-rule="nonzero" fill-opacity="1" /><path clip-path="url(#clip410)" d="M1148.41 29.2915 Q1147.33 28.6665 1146.04 28.3887 Q1144.79 28.0762 1143.27 28.0762 Q1137.85 28.0762 1134.93 31.6179 Q1132.05 35.1248 1132.05 41.722 L1132.05 62.208 L1125.63 62.208 L1125.63 23.3193 L1132.05 23.3193 L1132.05 29.361 Q1134.07 25.8193 1137.29 24.1179 Q1140.52 22.3818 1145.14 22.3818 Q1145.8 22.3818 1146.6 22.486 Q1147.4 22.5554 1148.37 22.729 L1148.41 29.2915 Z" fill="#000000" fill-rule="nonzero" fill-opacity="1" /><path clip-path="url(#clip410)" d="M1210.97 41.1664 L1210.97 44.2914 L1181.6 44.2914 Q1182.02 50.8886 1185.56 54.3608 Q1189.13 57.7983 1195.49 57.7983 Q1199.17 57.7983 1202.61 56.8955 Q1206.08 55.9928 1209.48 54.1872 L1209.48 60.2288 Q1206.04 61.6872 1202.43 62.4511 Q1198.82 63.2149 1195.11 63.2149 Q1185.8 63.2149 1180.35 57.7983 Q1174.93 52.3817 1174.93 43.1456 Q1174.93 33.597 1180.07 28.0068 Q1185.25 22.3818 1194 22.3818 Q1201.84 22.3818 1206.39 27.4512 Q1210.97 32.4859 1210.97 41.1664 M1204.59 39.2915 Q1204.52 34.0484 1201.63 30.9234 Q1198.79 27.7985 1194.07 27.7985 Q1188.72 27.7985 1185.49 30.8193 Q1182.29 33.8401 1181.81 39.3262 L1204.59 39.2915 Z" fill="#000000" fill-rule="nonzero" fill-opacity="1" /><path clip-path="url(#clip410)" d="M1246.25 24.4651 L1246.25 30.5068 Q1243.54 29.1179 1240.63 28.4235 Q1237.71 27.729 1234.59 27.729 Q1229.83 27.729 1227.43 29.1873 Q1225.07 30.6457 1225.07 33.5623 Q1225.07 35.7845 1226.77 37.0692 Q1228.47 38.3192 1233.61 39.4651 L1235.8 39.9512 Q1242.61 41.4095 1245.45 44.0831 Q1248.34 46.722 1248.34 51.4789 Q1248.34 56.8955 1244.03 60.0552 Q1239.76 63.2149 1232.26 63.2149 Q1229.13 63.2149 1225.73 62.5899 Q1222.36 61.9997 1218.61 60.7844 L1218.61 54.1872 Q1222.16 56.0275 1225.59 56.965 Q1229.03 57.8677 1232.4 57.8677 Q1236.91 57.8677 1239.34 56.34 Q1241.77 54.7775 1241.77 51.965 Q1241.77 49.3608 1240 47.972 Q1238.27 46.5831 1232.33 45.2984 L1230.11 44.7775 Q1224.17 43.5275 1221.53 40.9581 Q1218.89 38.354 1218.89 33.8401 Q1218.89 28.354 1222.78 25.3679 Q1226.67 22.3818 1233.82 22.3818 Q1237.36 22.3818 1240.49 22.9027 Q1243.61 23.4235 1246.25 24.4651 Z" fill="#000000" fill-rule="nonzero" fill-opacity="1" /><path clip-path="url(#clip410)" d="M1264.69 56.3747 L1264.69 76.9996 L1258.27 76.9996 L1258.27 23.3193 L1264.69 23.3193 L1264.69 29.2221 Q1266.7 25.7499 1269.76 24.0832 Q1272.85 22.3818 1277.12 22.3818 Q1284.2 22.3818 1288.61 28.0068 Q1293.06 33.6318 1293.06 42.7984 Q1293.06 51.965 1288.61 57.59 Q1284.2 63.2149 1277.12 63.2149 Q1272.85 63.2149 1269.76 61.5483 Q1266.7 59.8469 1264.69 56.3747 M1286.43 42.7984 Q1286.43 35.7498 1283.51 31.7568 Q1280.63 27.729 1275.56 27.729 Q1270.49 27.729 1267.57 31.7568 Q1264.69 35.7498 1264.69 42.7984 Q1264.69 49.847 1267.57 53.8747 Q1270.49 57.8677 1275.56 57.8677 Q1280.63 57.8677 1283.51 53.8747 Q1286.43 49.847 1286.43 42.7984 Z" fill="#000000" fill-rule="nonzero" fill-opacity="1" /><path clip-path="url(#clip410)" d="M1336.91 41.1664 L1336.91 44.2914 L1307.54 44.2914 Q1307.95 50.8886 1311.49 54.3608 Q1315.07 57.7983 1321.43 57.7983 Q1325.11 57.7983 1328.54 56.8955 Q1332.02 55.9928 1335.42 54.1872 L1335.42 60.2288 Q1331.98 61.6872 1328.37 62.4511 Q1324.76 63.2149 1321.04 63.2149 Q1311.74 63.2149 1306.29 57.7983 Q1300.87 52.3817 1300.87 43.1456 Q1300.87 33.597 1306.01 28.0068 Q1311.18 22.3818 1319.93 22.3818 Q1327.78 22.3818 1332.33 27.4512 Q1336.91 32.4859 1336.91 41.1664 M1330.52 39.2915 Q1330.45 34.0484 1327.57 30.9234 Q1324.72 27.7985 1320 27.7985 Q1314.65 27.7985 1311.43 30.8193 Q1308.23 33.8401 1307.74 39.3262 L1330.52 39.2915 Z" fill="#000000" fill-rule="nonzero" fill-opacity="1" /><path clip-path="url(#clip410)" d="M1369.93 29.2915 Q1368.86 28.6665 1367.57 28.3887 Q1366.32 28.0762 1364.79 28.0762 Q1359.38 28.0762 1356.46 31.6179 Q1353.58 35.1248 1353.58 41.722 L1353.58 62.208 L1347.15 62.208 L1347.15 23.3193 L1353.58 23.3193 L1353.58 29.361 Q1355.59 25.8193 1358.82 24.1179 Q1362.05 22.3818 1366.67 22.3818 Q1367.33 22.3818 1368.13 22.486 Q1368.93 22.5554 1369.9 22.729 L1369.93 29.2915 Z" fill="#000000" fill-rule="nonzero" fill-opacity="1" /><path clip-path="url(#clip410)" d="M1394.31 42.6595 Q1386.56 42.6595 1383.58 44.4303 Q1380.59 46.2011 1380.59 50.472 Q1380.59 53.8747 1382.81 55.8886 Q1385.07 57.8677 1388.93 57.8677 Q1394.24 57.8677 1397.43 54.1178 Q1400.66 50.3331 1400.66 44.0831 L1400.66 42.6595 L1394.31 42.6595 M1407.05 40.0206 L1407.05 62.208 L1400.66 62.208 L1400.66 56.3053 Q1398.47 59.8469 1395.21 61.5483 Q1391.95 63.2149 1387.22 63.2149 Q1381.25 63.2149 1377.71 59.8816 Q1374.2 56.5136 1374.2 50.8886 Q1374.2 44.3262 1378.58 40.9928 Q1382.99 37.6595 1391.7 37.6595 L1400.66 37.6595 L1400.66 37.0345 Q1400.66 32.6248 1397.74 30.229 Q1394.86 27.7985 1389.62 27.7985 Q1386.29 27.7985 1383.13 28.5971 Q1379.97 29.3957 1377.05 30.9929 L1377.05 25.0901 Q1380.56 23.736 1383.86 23.0763 Q1387.15 22.3818 1390.28 22.3818 Q1398.72 22.3818 1402.88 26.7568 Q1407.05 31.1318 1407.05 40.0206 Z" fill="#000000" fill-rule="nonzero" fill-opacity="1" /><path clip-path="url(#clip410)" d="M1445.8 29.2221 L1445.8 8.18051 L1452.19 8.18051 L1452.19 62.208 L1445.8 62.208 L1445.8 56.3747 Q1443.79 59.8469 1440.7 61.5483 Q1437.64 63.2149 1433.33 63.2149 Q1426.29 63.2149 1421.84 57.59 Q1417.43 51.965 1417.43 42.7984 Q1417.43 33.6318 1421.84 28.0068 Q1426.29 22.3818 1433.33 22.3818 Q1437.64 22.3818 1440.7 24.0832 Q1443.79 25.7499 1445.8 29.2221 M1424.03 42.7984 Q1424.03 49.847 1426.91 53.8747 Q1429.83 57.8677 1434.9 57.8677 Q1439.97 57.8677 1442.88 53.8747 Q1445.8 49.847 1445.8 42.7984 Q1445.8 35.7498 1442.88 31.7568 Q1439.97 27.729 1434.9 27.729 Q1429.83 27.729 1426.91 31.7568 Q1424.03 35.7498 1424.03 42.7984 Z" fill="#000000" fill-rule="nonzero" fill-opacity="1" /><path clip-path="url(#clip410)" d="M1480.42 27.7985 Q1475.28 27.7985 1472.29 31.8262 Q1469.31 35.8193 1469.31 42.7984 Q1469.31 49.7775 1472.26 53.8053 Q1475.24 57.7983 1480.42 57.7983 Q1485.52 57.7983 1488.51 53.7705 Q1491.49 49.7428 1491.49 42.7984 Q1491.49 35.8887 1488.51 31.8609 Q1485.52 27.7985 1480.42 27.7985 M1480.42 22.3818 Q1488.75 22.3818 1493.51 27.7985 Q1498.26 33.2151 1498.26 42.7984 Q1498.26 52.3469 1493.51 57.7983 Q1488.75 63.2149 1480.42 63.2149 Q1472.05 63.2149 1467.29 57.7983 Q1462.57 52.3469 1462.57 42.7984 Q1462.57 33.2151 1467.29 27.7985 Q1472.05 22.3818 1480.42 22.3818 Z" fill="#000000" fill-rule="nonzero" fill-opacity="1" /><path clip-path="url(#clip410)" d="M1564.72 41.1664 L1564.72 44.2914 L1535.35 44.2914 Q1535.76 50.8886 1539.31 54.3608 Q1542.88 57.7983 1549.24 57.7983 Q1552.92 57.7983 1556.35 56.8955 Q1559.83 55.9928 1563.23 54.1872 L1563.23 60.2288 Q1559.79 61.6872 1556.18 62.4511 Q1552.57 63.2149 1548.85 63.2149 Q1539.55 63.2149 1534.1 57.7983 Q1528.68 52.3817 1528.68 43.1456 Q1528.68 33.597 1533.82 28.0068 Q1538.99 22.3818 1547.74 22.3818 Q1555.59 22.3818 1560.14 27.4512 Q1564.72 32.4859 1564.72 41.1664 M1558.33 39.2915 Q1558.26 34.0484 1555.38 30.9234 Q1552.54 27.7985 1547.81 27.7985 Q1542.47 27.7985 1539.24 30.8193 Q1536.04 33.8401 1535.56 39.3262 L1558.33 39.2915 Z" fill="#000000" fill-rule="nonzero" fill-opacity="1" /><path clip-path="url(#clip410)" d="M1597.81 23.3193 L1604.2 23.3193 L1604.2 62.208 L1597.81 62.208 L1597.81 23.3193 M1597.81 8.18051 L1604.2 8.18051 L1604.2 16.2707 L1597.81 16.2707 L1597.81 8.18051 Z" fill="#000000" fill-rule="nonzero" fill-opacity="1" /><path clip-path="url(#clip410)" d="M1649.9 38.7359 L1649.9 62.208 L1643.51 62.208 L1643.51 38.9442 Q1643.51 33.4234 1641.35 30.6804 Q1639.2 27.9374 1634.9 27.9374 Q1629.72 27.9374 1626.74 31.2359 Q1623.75 34.5345 1623.75 40.229 L1623.75 62.208 L1617.33 62.208 L1617.33 23.3193 L1623.75 23.3193 L1623.75 29.361 Q1626.04 25.854 1629.13 24.1179 Q1632.26 22.3818 1636.32 22.3818 Q1643.02 22.3818 1646.46 26.5485 Q1649.9 30.6804 1649.9 38.7359 Z" fill="#000000" fill-rule="nonzero" fill-opacity="1" /><path clip-path="url(#clip410)" d="M1668.96 12.2777 L1668.96 23.3193 L1682.12 23.3193 L1682.12 28.2846 L1668.96 28.2846 L1668.96 49.3956 Q1668.96 54.1525 1670.24 55.5066 Q1671.56 56.8608 1675.56 56.8608 L1682.12 56.8608 L1682.12 62.208 L1675.56 62.208 Q1668.16 62.208 1665.35 59.465 Q1662.53 56.6872 1662.53 49.3956 L1662.53 28.2846 L1657.85 28.2846 L1657.85 23.3193 L1662.53 23.3193 L1662.53 12.2777 L1668.96 12.2777 Z" fill="#000000" fill-rule="nonzero" fill-opacity="1" /><path clip-path="url(#clip410)" d="M1723.78 41.1664 L1723.78 44.2914 L1694.41 44.2914 Q1694.83 50.8886 1698.37 54.3608 Q1701.94 57.7983 1708.3 57.7983 Q1711.98 57.7983 1715.42 56.8955 Q1718.89 55.9928 1722.29 54.1872 L1722.29 60.2288 Q1718.85 61.6872 1715.24 62.4511 Q1711.63 63.2149 1707.92 63.2149 Q1698.61 63.2149 1693.16 57.7983 Q1687.74 52.3817 1687.74 43.1456 Q1687.74 33.597 1692.88 28.0068 Q1698.06 22.3818 1706.81 22.3818 Q1714.65 22.3818 1719.2 27.4512 Q1723.78 32.4859 1723.78 41.1664 M1717.4 39.2915 Q1717.33 34.0484 1714.44 30.9234 Q1711.6 27.7985 1706.87 27.7985 Q1701.53 27.7985 1698.3 30.8193 Q1695.1 33.8401 1694.62 39.3262 L1717.4 39.2915 Z" fill="#000000" fill-rule="nonzero" fill-opacity="1" /><path clip-path="url(#clip410)" d="M1756.81 29.2915 Q1755.73 28.6665 1754.44 28.3887 Q1753.19 28.0762 1751.67 28.0762 Q1746.25 28.0762 1743.33 31.6179 Q1740.45 35.1248 1740.45 41.722 L1740.45 62.208 L1734.03 62.208 L1734.03 23.3193 L1740.45 23.3193 L1740.45 29.361 Q1742.46 25.8193 1745.69 24.1179 Q1748.92 22.3818 1753.54 22.3818 Q1754.2 22.3818 1755 22.486 Q1755.8 22.5554 1756.77 22.729 L1756.81 29.2915 Z" fill="#000000" fill-rule="nonzero" fill-opacity="1" /><path clip-path="url(#clip410)" d="M1758.92 23.3193 L1765.69 23.3193 L1777.85 55.958 L1790 23.3193 L1796.77 23.3193 L1782.19 62.208 L1773.51 62.208 L1758.92 23.3193 Z" fill="#000000" fill-rule="nonzero" fill-opacity="1" /><path clip-path="url(#clip410)" d="M1823.26 42.6595 Q1815.52 42.6595 1812.53 44.4303 Q1809.55 46.2011 1809.55 50.472 Q1809.55 53.8747 1811.77 55.8886 Q1814.03 57.8677 1817.88 57.8677 Q1823.19 57.8677 1826.39 54.1178 Q1829.62 50.3331 1829.62 44.0831 L1829.62 42.6595 L1823.26 42.6595 M1836.01 40.0206 L1836.01 62.208 L1829.62 62.208 L1829.62 56.3053 Q1827.43 59.8469 1824.17 61.5483 Q1820.9 63.2149 1816.18 63.2149 Q1810.21 63.2149 1806.67 59.8816 Q1803.16 56.5136 1803.16 50.8886 Q1803.16 44.3262 1807.53 40.9928 Q1811.94 37.6595 1820.66 37.6595 L1829.62 37.6595 L1829.62 37.0345 Q1829.62 32.6248 1826.7 30.229 Q1823.82 27.7985 1818.58 27.7985 Q1815.24 27.7985 1812.08 28.5971 Q1808.92 29.3957 1806.01 30.9929 L1806.01 25.0901 Q1809.51 23.736 1812.81 23.0763 Q1816.11 22.3818 1819.24 22.3818 Q1827.67 22.3818 1831.84 26.7568 Q1836.01 31.1318 1836.01 40.0206 Z" fill="#000000" fill-rule="nonzero" fill-opacity="1" /><path clip-path="url(#clip410)" d="M1849.17 8.18051 L1855.55 8.18051 L1855.55 62.208 L1849.17 62.208 L1849.17 8.18051 Z" fill="#000000" fill-rule="nonzero" fill-opacity="1" /><path clip-path="url(#clip410)" d="M1883.99 27.7985 Q1878.85 27.7985 1875.87 31.8262 Q1872.88 35.8193 1872.88 42.7984 Q1872.88 49.7775 1875.83 53.8053 Q1878.82 57.7983 1883.99 57.7983 Q1889.1 57.7983 1892.08 53.7705 Q1895.07 49.7428 1895.07 42.7984 Q1895.07 35.8887 1892.08 31.8609 Q1889.1 27.7985 1883.99 27.7985 M1883.99 22.3818 Q1892.33 22.3818 1897.08 27.7985 Q1901.84 33.2151 1901.84 42.7984 Q1901.84 52.3469 1897.08 57.7983 Q1892.33 63.2149 1883.99 63.2149 Q1875.62 63.2149 1870.87 57.7983 Q1866.14 52.3469 1866.14 42.7984 Q1866.14 33.2151 1870.87 27.7985 Q1875.62 22.3818 1883.99 22.3818 Z" fill="#000000" fill-rule="nonzero" fill-opacity="1" /><path clip-path="url(#clip410)" d="M1937.22 24.4651 L1937.22 30.5068 Q1934.51 29.1179 1931.6 28.4235 Q1928.68 27.729 1925.55 27.729 Q1920.8 27.729 1918.4 29.1873 Q1916.04 30.6457 1916.04 33.5623 Q1916.04 35.7845 1917.74 37.0692 Q1919.44 38.3192 1924.58 39.4651 L1926.77 39.9512 Q1933.57 41.4095 1936.42 44.0831 Q1939.3 46.722 1939.3 51.4789 Q1939.3 56.8955 1935 60.0552 Q1930.73 63.2149 1923.23 63.2149 Q1920.1 63.2149 1916.7 62.5899 Q1913.33 61.9997 1909.58 60.7844 L1909.58 54.1872 Q1913.12 56.0275 1916.56 56.965 Q1920 57.8677 1923.37 57.8677 Q1927.88 57.8677 1930.31 56.34 Q1932.74 54.7775 1932.74 51.965 Q1932.74 49.3608 1930.97 47.972 Q1929.23 46.5831 1923.3 45.2984 L1921.08 44.7775 Q1915.14 43.5275 1912.5 40.9581 Q1909.86 38.354 1909.86 33.8401 Q1909.86 28.354 1913.75 25.3679 Q1917.64 22.3818 1924.79 22.3818 Q1928.33 22.3818 1931.46 22.9027 Q1934.58 23.4235 1937.22 24.4651 Z" fill="#000000" fill-rule="nonzero" fill-opacity="1" /><path clip-path="url(#clip410)" d="M1997.67 29.2221 L1997.67 8.18051 L2004.06 8.18051 L2004.06 62.208 L1997.67 62.208 L1997.67 56.3747 Q1995.66 59.8469 1992.57 61.5483 Q1989.51 63.2149 1985.21 63.2149 Q1978.16 63.2149 1973.71 57.59 Q1969.3 51.965 1969.3 42.7984 Q1969.3 33.6318 1973.71 28.0068 Q1978.16 22.3818 1985.21 22.3818 Q1989.51 22.3818 1992.57 24.0832 Q1995.66 25.7499 1997.67 29.2221 M1975.9 42.7984 Q1975.9 49.847 1978.78 53.8747 Q1981.7 57.8677 1986.77 57.8677 Q1991.84 57.8677 1994.76 53.8747 Q1997.67 49.847 1997.67 42.7984 Q1997.67 35.7498 1994.76 31.7568 Q1991.84 27.729 1986.77 27.729 Q1981.7 27.729 1978.78 31.7568 Q1975.9 35.7498 1975.9 42.7984 Z" fill="#000000" fill-rule="nonzero" fill-opacity="1" /><path clip-path="url(#clip410)" d="M2050.48 41.1664 L2050.48 44.2914 L2021.11 44.2914 Q2021.53 50.8886 2025.07 54.3608 Q2028.64 57.7983 2035 57.7983 Q2038.68 57.7983 2042.12 56.8955 Q2045.59 55.9928 2048.99 54.1872 L2048.99 60.2288 Q2045.55 61.6872 2041.94 62.4511 Q2038.33 63.2149 2034.62 63.2149 Q2025.31 63.2149 2019.86 57.7983 Q2014.44 52.3817 2014.44 43.1456 Q2014.44 33.597 2019.58 28.0068 Q2024.76 22.3818 2033.5 22.3818 Q2041.35 22.3818 2045.9 27.4512 Q2050.48 32.4859 2050.48 41.1664 M2044.1 39.2915 Q2044.03 34.0484 2041.14 30.9234 Q2038.3 27.7985 2033.57 27.7985 Q2028.23 27.7985 2025 30.8193 Q2021.8 33.8401 2021.32 39.3262 L2044.1 39.2915 Z" fill="#000000" fill-rule="nonzero" fill-opacity="1" /><path clip-path="url(#clip410)" d="M2111.56 24.8124 L2111.56 30.7846 Q2108.85 29.2915 2106.11 28.5623 Q2103.4 27.7985 2100.62 27.7985 Q2094.41 27.7985 2090.97 31.7568 Q2087.53 35.6804 2087.53 42.7984 Q2087.53 49.9164 2090.97 53.8747 Q2094.41 57.7983 2100.62 57.7983 Q2103.4 57.7983 2106.11 57.0691 Q2108.85 56.3053 2111.56 54.8122 L2111.56 60.715 Q2108.89 61.9649 2106 62.5899 Q2103.16 63.2149 2099.93 63.2149 Q2091.14 63.2149 2085.97 57.6941 Q2080.8 52.1733 2080.8 42.7984 Q2080.8 33.2845 2086 27.8332 Q2091.25 22.3818 2100.34 22.3818 Q2103.3 22.3818 2106.11 23.0068 Q2108.92 23.5971 2111.56 24.8124 Z" fill="#000000" fill-rule="nonzero" fill-opacity="1" /><path clip-path="url(#clip410)" d="M2137.74 27.7985 Q2132.6 27.7985 2129.62 31.8262 Q2126.63 35.8193 2126.63 42.7984 Q2126.63 49.7775 2129.58 53.8053 Q2132.57 57.7983 2137.74 57.7983 Q2142.84 57.7983 2145.83 53.7705 Q2148.82 49.7428 2148.82 42.7984 Q2148.82 35.8887 2145.83 31.8609 Q2142.84 27.7985 2137.74 27.7985 M2137.74 22.3818 Q2146.07 22.3818 2150.83 27.7985 Q2155.59 33.2151 2155.59 42.7984 Q2155.59 52.3469 2150.83 57.7983 Q2146.07 63.2149 2137.74 63.2149 Q2129.37 63.2149 2124.62 57.7983 Q2119.89 52.3469 2119.89 42.7984 Q2119.89 33.2151 2124.62 27.7985 Q2129.37 22.3818 2137.74 22.3818 Z" fill="#000000" fill-rule="nonzero" fill-opacity="1" /><path clip-path="url(#clip410)" d="M2198.5 38.7359 L2198.5 62.208 L2192.12 62.208 L2192.12 38.9442 Q2192.12 33.4234 2189.96 30.6804 Q2187.81 27.9374 2183.5 27.9374 Q2178.33 27.9374 2175.34 31.2359 Q2172.36 34.5345 2172.36 40.229 L2172.36 62.208 L2165.93 62.208 L2165.93 23.3193 L2172.36 23.3193 L2172.36 29.361 Q2174.65 25.854 2177.74 24.1179 Q2180.87 22.3818 2184.93 22.3818 Q2191.63 22.3818 2195.07 26.5485 Q2198.5 30.6804 2198.5 38.7359 Z" fill="#000000" fill-rule="nonzero" fill-opacity="1" /><path clip-path="url(#clip410)" d="M2230.93 8.18051 L2230.93 13.493 L2224.82 13.493 Q2221.39 13.493 2220.03 14.8819 Q2218.71 16.2707 2218.71 19.8818 L2218.71 23.3193 L2229.23 23.3193 L2229.23 28.2846 L2218.71 28.2846 L2218.71 62.208 L2212.29 62.208 L2212.29 28.2846 L2206.18 28.2846 L2206.18 23.3193 L2212.29 23.3193 L2212.29 20.611 Q2212.29 14.118 2215.31 11.1666 Q2218.33 8.18051 2224.89 8.18051 L2230.93 8.18051 Z" fill="#000000" fill-rule="nonzero" fill-opacity="1" /><path clip-path="url(#clip410)" d="M2236.28 23.3193 L2242.67 23.3193 L2242.67 62.208 L2236.28 62.208 L2236.28 23.3193 M2236.28 8.18051 L2242.67 8.18051 L2242.67 16.2707 L2236.28 16.2707 L2236.28 8.18051 Z" fill="#000000" fill-rule="nonzero" fill-opacity="1" /><path clip-path="url(#clip410)" d="M2273.71 42.6595 Q2265.97 42.6595 2262.98 44.4303 Q2260 46.2011 2260 50.472 Q2260 53.8747 2262.22 55.8886 Q2264.48 57.8677 2268.33 57.8677 Q2273.64 57.8677 2276.84 54.1178 Q2280.07 50.3331 2280.07 44.0831 L2280.07 42.6595 L2273.71 42.6595 M2286.45 40.0206 L2286.45 62.208 L2280.07 62.208 L2280.07 56.3053 Q2277.88 59.8469 2274.61 61.5483 Q2271.35 63.2149 2266.63 63.2149 Q2260.66 63.2149 2257.11 59.8816 Q2253.61 56.5136 2253.61 50.8886 Q2253.61 44.3262 2257.98 40.9928 Q2262.39 37.6595 2271.11 37.6595 L2280.07 37.6595 L2280.07 37.0345 Q2280.07 32.6248 2277.15 30.229 Q2274.27 27.7985 2269.02 27.7985 Q2265.69 27.7985 2262.53 28.5971 Q2259.37 29.3957 2256.46 30.9929 L2256.46 25.0901 Q2259.96 23.736 2263.26 23.0763 Q2266.56 22.3818 2269.68 22.3818 Q2278.12 22.3818 2282.29 26.7568 Q2286.45 31.1318 2286.45 40.0206 Z" fill="#000000" fill-rule="nonzero" fill-opacity="1" /><path clip-path="url(#clip410)" d="M2331.94 38.7359 L2331.94 62.208 L2325.55 62.208 L2325.55 38.9442 Q2325.55 33.4234 2323.4 30.6804 Q2321.25 27.9374 2316.94 27.9374 Q2311.77 27.9374 2308.78 31.2359 Q2305.8 34.5345 2305.8 40.229 L2305.8 62.208 L2299.37 62.208 L2299.37 23.3193 L2305.8 23.3193 L2305.8 29.361 Q2308.09 25.854 2311.18 24.1179 Q2314.3 22.3818 2318.36 22.3818 Q2325.07 22.3818 2328.5 26.5485 Q2331.94 30.6804 2331.94 38.7359 Z" fill="#000000" fill-rule="nonzero" fill-opacity="1" /><path clip-path="url(#clip410)" d="M2372.67 24.8124 L2372.67 30.7846 Q2369.96 29.2915 2367.22 28.5623 Q2364.51 27.7985 2361.73 27.7985 Q2355.52 27.7985 2352.08 31.7568 Q2348.64 35.6804 2348.64 42.7984 Q2348.64 49.9164 2352.08 53.8747 Q2355.52 57.7983 2361.73 57.7983 Q2364.51 57.7983 2367.22 57.0691 Q2369.96 56.3053 2372.67 54.8122 L2372.67 60.715 Q2370 61.9649 2367.11 62.5899 Q2364.27 63.2149 2361.04 63.2149 Q2352.25 63.2149 2347.08 57.6941 Q2341.91 52.1733 2341.91 42.7984 Q2341.91 33.2845 2347.11 27.8332 Q2352.36 22.3818 2361.45 22.3818 Q2364.41 22.3818 2367.22 23.0068 Q2370.03 23.5971 2372.67 24.8124 M2363.64 62.208 Q2365.55 64.3608 2366.49 66.1663 Q2367.43 68.0066 2367.43 69.6732 Q2367.43 72.7635 2365.34 74.326 Q2363.26 75.9232 2359.16 75.9232 Q2357.57 75.9232 2356.04 75.7149 Q2354.54 75.5065 2353.05 75.0899 L2353.05 70.5413 Q2354.23 71.1316 2355.52 71.3746 Q2356.8 71.6524 2358.43 71.6524 Q2360.48 71.6524 2361.52 70.8191 Q2362.57 69.9857 2362.57 68.3885 Q2362.57 67.3469 2361.8 65.8191 Q2361.07 64.326 2359.51 62.208 L2363.64 62.208 Z" fill="#000000" fill-rule="nonzero" fill-opacity="1" /><path clip-path="url(#clip410)" d="M2401.45 42.6595 Q2393.71 42.6595 2390.73 44.4303 Q2387.74 46.2011 2387.74 50.472 Q2387.74 53.8747 2389.96 55.8886 Q2392.22 57.8677 2396.07 57.8677 Q2401.38 57.8677 2404.58 54.1178 Q2407.81 50.3331 2407.81 44.0831 L2407.81 42.6595 L2401.45 42.6595 M2414.2 40.0206 L2414.2 62.208 L2407.81 62.208 L2407.81 56.3053 Q2405.62 59.8469 2402.36 61.5483 Q2399.09 63.2149 2394.37 63.2149 Q2388.4 63.2149 2384.86 59.8816 Q2381.35 56.5136 2381.35 50.8886 Q2381.35 44.3262 2385.73 40.9928 Q2390.13 37.6595 2398.85 37.6595 L2407.81 37.6595 L2407.81 37.0345 Q2407.81 32.6248 2404.89 30.229 Q2402.01 27.7985 2396.77 27.7985 Q2393.43 27.7985 2390.27 28.5971 Q2387.11 29.3957 2384.2 30.9929 L2384.2 25.0901 Q2387.7 23.736 2391 23.0763 Q2394.3 22.3818 2397.43 22.3818 Q2405.86 22.3818 2410.03 26.7568 Q2414.2 31.1318 2414.2 40.0206 Z" fill="#000000" fill-rule="nonzero" fill-opacity="1" /><path clip-path="url(#clip412)" d="M316.418 2145.95 L330.256 2125.55 L344.094 2104.03 L357.932 2081.38 L371.769 2057.55 L385.607 2032.54 L399.445 2006.33 L413.283 1978.95 L427.121 1950.4 L440.958 1920.59 L454.796 1889.47 L468.634 1857.17 L482.472 1823.78 L496.31 1789.3 L510.148 1753.75 L523.985 1717.18 L537.823 1679.67 L551.661 1641.29 L565.499 1601.97 L579.337 1561.73 L593.174 1520.55 L607.012 1478.83 L620.85 1437.17 L634.688 1395.82 L648.526 1354.12 L662.364 1312.31 L676.201 1270.11 L690.039 1227.62 L703.877 1185.86 L717.715 1144.57 L731.553 1103.89 L745.39 1064.38 L759.228 1025.79 L773.066 987.926 L786.904 950.878 L800.742 914.142 L814.58 878.415 L828.417 843.478 L842.255 809.995 L856.093 778.35 L869.931 747.91 L883.769 718.33 L897.606 689.965 L911.444 663.32 L925.282 637.341 L939.12 612.597 L952.958 589.052 L966.796 566.639 L980.633 545.82 L994.471 526.237 L1008.31 507.774 L1022.15 490.355 L1035.98 473.789 L1049.82 457.626 L1063.66 442.783 L1077.5 430.592 L1091.34 417.909 L1105.17 406.183 L1119.01 395.24 L1132.85 384.772 L1146.69 374.67 L1160.53 365.411 L1174.36 357.543 L1188.2 350.175 L1202.04 342.873 L1215.88 335.797 L1229.71 329.986 L1243.55 323.821 L1257.39 317.947 L1271.23 312.842 L1285.07 308.064 L1298.9 303.345 L1312.74 299.716 L1326.58 296.066 L1340.42 293.017 L1354.25 290.275 L1368.09 287.733 L1381.93 285.369 L1395.77 283.17 L1409.61 281.124 L1423.44 279.221 L1437.28 277.453 L1451.12 275.812 L1464.96 274.29 L1478.79 272.88 L1492.63 271.574 L1506.47 270.192 L1520.31 268.9 L1534.15 267.712 L1547.98 266.621 L1561.82 265.6 L1575.66 264.648 L1589.5 263.759 L1603.34 262.933 L1617.17 262.183 L1631.01 261.527 L1644.85 260.947 L1658.69 260.41 L1672.52 259.913 L1686.36 259.455 L1700.2 259.031 L1714.04 258.64 L1727.88 258.279 L1741.71 257.945 L1755.55 257.636 L1769.39 257.324 L1783.23 257.023 L1797.06 256.742 L1810.9 256.48 L1824.74 256.235 L1838.58 256.006 L1852.42 255.791 L1866.25 255.591 L1880.09 255.405 L1893.93 255.235 L1907.77 255.079 L1921.61 254.936 L1935.44 254.804 L1949.28 254.683 L1963.12 254.572 L1976.96 254.472 L1990.79 254.38 L2004.63 254.296 L2018.47 254.219 L2032.31 254.149 L2046.15 254.084 L2059.98 254.024 L2073.82 253.967 L2087.66 253.913 L2101.5 253.862 L2115.33 253.813 L2129.17 253.766 L2143.01 253.724 L2156.85 253.688 L2170.69 253.654 L2184.52 253.624 L2198.36 253.596 L2212.2 253.571 L2226.04 253.548 L2239.87 253.527 L2253.71 253.507 L2267.55 253.489 L2281.39 253.472 L2295.23 253.456 L2309.06 253.441 L2322.9 253.428 L2336.74 253.415 L2350.58 253.403 L2364.42 253.392 L2378.25 253.382 L2392.09 253.372 L2405.93 253.363 L2419.77 253.353 L2433.6 253.344 L2447.44 253.336 L2461.28 253.328 L2475.12 253.32 L2488.96 253.314 L2502.79 253.307 L2516.63 253.302 L2530.47 253.296 L2544.31 253.292 L2558.14 253.288 L2571.98 253.285 L2585.82 253.282 L2599.66 253.279 L2613.5 253.277 L2627.33 253.275 L2641.17 253.274 L2655.01 253.272 L2668.85 253.271 L2682.69 253.27 L2696.52 253.269 L2710.36 253.267 L2724.2 253.266 L2738.04 253.265 L2751.87 253.265 L2765.71 253.264 L2779.55 253.264 L2793.39 253.263 L2807.23 253.263 L2821.06 253.263 L2834.9 253.262 L2848.74 253.261 L2862.58 253.26 L2876.41 253.259 L2890.25 253.258 L2904.09 253.257 L2917.93 253.256 L2931.77 253.255 L2945.6 253.254 L2959.44 253.253 L2973.28 253.252 L2987.12 253.252 L3000.96 253.251 L3014.79 253.251 L3028.63 253.25 L3042.47 253.25 L3056.31 253.249 L3070.14 253.249 L3070.14 180.282 L3056.31 180.283 L3042.47 180.284 L3028.63 180.284 L3014.79 180.285 L3000.96 180.286 L2987.12 180.287 L2973.28 180.288 L2959.44 180.289 L2945.6 180.291 L2931.77 180.292 L2917.93 180.293 L2904.09 180.295 L2890.25 180.296 L2876.41 180.297 L2862.58 180.298 L2848.74 180.298 L2834.9 180.298 L2821.06 180.297 L2807.23 180.296 L2793.39 180.295 L2779.55 180.295 L2765.71 180.294 L2751.87 180.293 L2738.04 180.293 L2724.2 180.293 L2710.36 180.294 L2696.52 180.295 L2682.69 180.296 L2668.85 180.298 L2655.01 180.301 L2641.17 180.304 L2627.33 180.308 L2613.5 180.312 L2599.66 180.317 L2585.82 180.322 L2571.98 180.328 L2558.14 180.335 L2544.31 180.342 L2530.47 180.35 L2516.63 180.358 L2502.79 180.367 L2488.96 180.376 L2475.12 180.385 L2461.28 180.395 L2447.44 180.404 L2433.6 180.414 L2419.77 180.423 L2405.93 180.432 L2392.09 180.442 L2378.25 180.451 L2364.42 180.462 L2350.58 180.473 L2336.74 180.486 L2322.9 180.5 L2309.06 180.516 L2295.23 180.534 L2281.39 180.554 L2267.55 180.577 L2253.71 180.601 L2239.87 180.628 L2226.04 180.658 L2212.2 180.691 L2198.36 180.727 L2184.52 180.765 L2170.69 180.807 L2156.85 180.852 L2143.01 180.9 L2129.17 180.951 L2115.33 181.004 L2101.5 181.06 L2087.66 181.119 L2073.82 181.18 L2059.98 181.245 L2046.15 181.314 L2032.31 181.387 L2018.47 181.468 L2004.63 181.555 L1990.79 181.65 L1976.96 181.755 L1963.12 181.869 L1949.28 181.995 L1935.44 182.132 L1921.61 182.271 L1907.77 182.432 L1893.93 182.611 L1880.09 182.804 L1866.25 183.01 L1852.42 183.231 L1838.58 183.468 L1824.74 183.723 L1810.9 183.997 L1797.06 184.291 L1783.23 184.607 L1769.39 184.948 L1755.55 185.315 L1741.71 185.71 L1727.88 186.138 L1714.04 186.601 L1700.2 187.086 L1686.36 187.611 L1672.52 188.178 L1658.69 188.729 L1644.85 189.302 L1631.01 189.922 L1617.17 190.591 L1603.34 191.313 L1589.5 192.09 L1575.66 192.927 L1561.82 193.825 L1547.98 194.786 L1534.15 195.813 L1520.31 196.914 L1506.47 198.099 L1492.63 199.376 L1478.79 200.755 L1464.96 202.245 L1451.12 203.856 L1437.28 205.597 L1423.44 207.478 L1409.61 209.506 L1395.77 211.516 L1381.93 213.911 L1368.09 216.588 L1354.25 219.309 L1340.42 222.229 L1326.58 225.441 L1312.74 229.029 L1298.9 232.504 L1285.07 236.209 L1271.23 240.379 L1257.39 244.703 L1243.55 249.242 L1229.71 254.603 L1215.88 260.013 L1202.04 265.703 L1188.2 271.535 L1174.36 278.233 L1160.53 285.298 L1146.69 292.753 L1132.85 300.71 L1119.01 308.862 L1105.17 318.363 L1091.34 328.456 L1077.5 338.794 L1063.66 349.341 L1049.82 361.018 L1035.98 373.374 L1022.15 386.749 L1008.31 400.576 L994.471 414.582 L980.633 429.512 L966.796 445.772 L952.958 462.968 L939.12 480.707 L925.282 500.168 L911.444 521.044 L897.606 542.521 L883.769 565.215 L869.931 587.825 L856.093 611.599 L842.255 636.74 L828.417 663.309 L814.58 691.091 L800.742 719.746 L786.904 749.683 L773.066 781.445 L759.228 814.692 L745.39 849.326 L731.553 884.529 L717.715 920.964 L703.877 957.704 L690.039 995.193 L676.201 1033.78 L662.364 1073.25 L648.526 1113.35 L634.688 1154.05 L620.85 1195.02 L607.012 1236.15 L593.174 1277.58 L579.337 1319.21 L565.499 1360.91 L551.661 1402.58 L537.823 1444.1 L523.985 1485.33 L510.148 1526.21 L496.31 1566.65 L482.472 1606.47 L468.634 1645.58 L454.796 1683.88 L440.958 1721.29 L427.121 1757.82 L413.283 1793.32 L399.445 1827.74 L385.607 1861.03 L371.769 1893.16 L357.932 1924.1 L344.094 1953.83 L330.256 1982.35 L316.418 2009.65  Z" fill="#009af9" fill-rule="evenodd" fill-opacity="0.2"/>
<polyline clip-path="url(#clip412)" style="stroke:#009af9; stroke-linecap:round; stroke-linejoin:round; stroke-width:12; stroke-opacity:1; fill:none" points="316.418,2079.98 330.256,2055.99 344.094,2030.8 357.932,2004.39 371.769,1976.77 385.607,1948.06 399.445,1918.15 413.283,1887 427.121,1854.55 440.958,1820.92 454.796,1786.18 468.634,1750.36 482.472,1713.52 496.31,1675.72 510.148,1637.06 523.985,1597.65 537.823,1557.52 551.661,1516.78 565.499,1475.63 579.337,1434.33 593.174,1392.78 607.012,1351 620.85,1308.94 634.688,1266.96 648.526,1226.13 662.364,1185.19 676.201,1144.52 690.039,1104.3 703.877,1064.33 717.715,1024.76 731.553,986 745.39,948.13 759.228,911.227 773.066,875.926 786.904,840.824 800.742,806.628 814.58,773.96 828.417,742.496 842.255,713.353 856.093,685.018 869.931,657.396 883.769,631.993 897.606,607.836 911.444,583.293 925.282,561.984 939.12,540.643 952.958,520.873 966.796,502.434 980.633,484.827 994.471,467.67 1008.31,451.552 1022.15,436.009 1035.98,421.033 1049.82,407.417 1063.66,394.496 1077.5,383 1091.34,372.267 1105.17,360.85 1119.01,351.5 1132.85,342.75 1146.69,333.931 1160.53,325.67 1174.36,318.443 1188.2,311.359 1202.04,305.23 1215.88,299.009 1229.71,292.901 1243.55,287.641 1257.39,282.656 1271.23,278.464 1285.07,274.163 1298.9,270.223 1312.74,266.592 1326.58,262.679 1340.42,259.603 1354.25,256.405 1368.09,253.641 1381.93,251.01 1395.77,248.88 1409.61,246.617 1423.44,244.565 1437.28,242.788 1451.12,241.105 1464.96,239.454 1478.79,237.602 1492.63,236.065 1506.47,234.695 1520.31,233.424 1534.15,232.241 1547.98,231.083 1561.82,230.129 1575.66,229.24 1589.5,228.43 1603.34,227.792 1617.17,227.099 1631.01,226.434 1644.85,225.8 1658.69,225.143 1672.52,224.534 1686.36,223.97 1700.2,223.444 1714.04,222.943 1727.88,222.496 1741.71,222.075 1755.55,221.676 1769.39,221.31 1783.23,220.969 1797.06,220.651 1810.9,220.354 1824.74,220.075 1838.58,219.815 1852.42,219.592 1866.25,219.39 1880.09,219.203 1893.93,219.03 1907.77,218.869 1921.61,218.721 1935.44,218.586 1949.28,218.478 1963.12,218.369 1976.96,218.266 1990.79,218.172 2004.63,218.086 2018.47,218.008 2032.31,217.937 2046.15,217.873 2059.98,217.815 2073.82,217.762 2087.66,217.713 2101.5,217.668 2115.33,217.626 2129.17,217.586 2143.01,217.548 2156.85,217.51 2170.69,217.473 2184.52,217.437 2198.36,217.404 2212.2,217.367 2226.04,217.333 2239.87,217.302 2253.71,217.274 2267.55,217.248 2281.39,217.224 2295.23,217.202 2309.06,217.182 2322.9,217.163 2336.74,217.146 2350.58,217.131 2364.42,217.116 2378.25,217.102 2392.09,217.088 2405.93,217.076 2419.77,217.065 2433.6,217.054 2447.44,217.044 2461.28,217.034 2475.12,217.026 2488.96,217.017 2502.79,217.009 2516.63,217.001 2530.47,216.993 2544.31,216.986 2558.14,216.98 2571.98,216.974 2585.82,216.969 2599.66,216.964 2613.5,216.96 2627.33,216.956 2641.17,216.953 2655.01,216.95 2668.85,216.947 2682.69,216.945 2696.52,216.944 2710.36,216.943 2724.2,216.941 2738.04,216.94 2751.87,216.939 2765.71,216.939 2779.55,216.937 2793.39,216.936 2807.23,216.935 2821.06,216.935 2834.9,216.934 2848.74,216.934 2862.58,216.933 2876.41,216.933 2890.25,216.933 2904.09,216.933 2917.93,216.933 2931.77,216.933 2945.6,216.932 2959.44,216.932 2973.28,216.931 2987.12,216.93 3000.96,216.929 3014.79,216.928 3028.63,216.927 3042.47,216.926 3056.31,216.925 3070.14,216.924 "/>
<path clip-path="url(#clip412)" d="M316.418 2132.05 L330.256 2110.87 L344.094 2088.55 L357.932 2065 L371.769 2040.33 L385.607 2014.55 L399.445 1987.56 L413.283 1959.32 L427.121 1929.85 L440.958 1899.16 L454.796 1867.28 L468.634 1834.18 L482.472 1799.93 L496.31 1764.59 L510.148 1728.22 L523.985 1691.29 L537.823 1653.18 L551.661 1614.13 L565.499 1574.18 L579.337 1533.47 L593.174 1492.35 L607.012 1450.43 L620.85 1408.34 L634.688 1366.18 L648.526 1323.91 L662.364 1281.66 L676.201 1239.59 L690.039 1197.75 L703.877 1156.35 L717.715 1115.43 L731.553 1075.05 L745.39 1035.3 L759.228 996.321 L773.066 958.286 L786.904 921.264 L800.742 885.201 L814.58 850.008 L828.417 815.289 L842.255 782.515 L856.093 751.734 L869.931 722.387 L883.769 693.264 L897.606 665.143 L911.444 637.573 L925.282 612.879 L939.12 588.766 L952.958 565.796 L966.796 544.303 L980.633 524.621 L994.471 505.174 L1008.31 487.024 L1022.15 469.984 L1035.98 453.178 L1049.82 437.678 L1063.66 423.82 L1077.5 410.537 L1091.34 397.813 L1105.17 386.913 L1119.01 376.849 L1132.85 367.127 L1146.69 358.67 L1160.53 350.755 L1174.36 343.176 L1188.2 335.643 L1202.04 328.783 L1215.88 322.273 L1229.71 316.472 L1243.55 311.368 L1257.39 305.363 L1271.23 299.732 L1285.07 295.609 L1298.9 291.506 L1312.74 287.25 L1326.58 283.707 L1340.42 280.921 L1354.25 278.325 L1368.09 275.272 L1381.93 272.104 L1395.77 269.217 L1409.61 267.088 L1423.44 265.063 L1437.28 263.243 L1451.12 261.503 L1464.96 259.879 L1478.79 258.342 L1492.63 256.99 L1506.47 255.674 L1520.31 254.404 L1534.15 253.213 L1547.98 252.057 L1561.82 250.974 L1575.66 249.965 L1589.5 249.025 L1603.34 248.15 L1617.17 247.347 L1631.01 246.625 L1644.85 245.97 L1658.69 245.425 L1672.52 244.917 L1686.36 244.391 L1700.2 243.886 L1714.04 243.438 L1727.88 242.984 L1741.71 242.572 L1755.55 242.204 L1769.39 241.894 L1783.23 241.652 L1797.06 241.428 L1810.9 241.174 L1824.74 240.929 L1838.58 240.699 L1852.42 240.479 L1866.25 240.273 L1880.09 240.082 L1893.93 239.905 L1907.77 239.742 L1921.61 239.592 L1935.44 239.453 L1949.28 239.32 L1963.12 239.198 L1976.96 239.088 L1990.79 238.987 L2004.63 238.895 L2018.47 238.812 L2032.31 238.735 L2046.15 238.665 L2059.98 238.601 L2073.82 238.54 L2087.66 238.483 L2101.5 238.428 L2115.33 238.374 L2129.17 238.322 L2143.01 238.272 L2156.85 238.226 L2170.69 238.183 L2184.52 238.142 L2198.36 238.105 L2212.2 238.07 L2226.04 238.038 L2239.87 238.009 L2253.71 237.982 L2267.55 237.958 L2281.39 237.934 L2295.23 237.91 L2309.06 237.889 L2322.9 237.869 L2336.74 237.852 L2350.58 237.837 L2364.42 237.823 L2378.25 237.81 L2392.09 237.799 L2405.93 237.788 L2419.77 237.778 L2433.6 237.769 L2447.44 237.76 L2461.28 237.751 L2475.12 237.741 L2488.96 237.731 L2502.79 237.722 L2516.63 237.713 L2530.47 237.704 L2544.31 237.695 L2558.14 237.687 L2571.98 237.68 L2585.82 237.673 L2599.66 237.666 L2613.5 237.661 L2627.33 237.655 L2641.17 237.651 L2655.01 237.647 L2668.85 237.643 L2682.69 237.64 L2696.52 237.638 L2710.36 237.636 L2724.2 237.635 L2738.04 237.634 L2751.87 237.634 L2765.71 237.634 L2779.55 237.635 L2793.39 237.635 L2807.23 237.636 L2821.06 237.637 L2834.9 237.638 L2848.74 237.639 L2862.58 237.64 L2876.41 237.64 L2890.25 237.64 L2904.09 237.639 L2917.93 237.638 L2931.77 237.637 L2945.6 237.635 L2959.44 237.634 L2973.28 237.632 L2987.12 237.631 L3000.96 237.63 L3014.79 237.629 L3028.63 237.628 L3042.47 237.627 L3056.31 237.626 L3070.14 237.625 L3070.14 194.557 L3056.31 194.558 L3042.47 194.558 L3028.63 194.559 L3014.79 194.56 L3000.96 194.561 L2987.12 194.562 L2973.28 194.563 L2959.44 194.564 L2945.6 194.564 L2931.77 194.565 L2917.93 194.564 L2904.09 194.564 L2890.25 194.563 L2876.41 194.563 L2862.58 194.562 L2848.74 194.561 L2834.9 194.56 L2821.06 194.559 L2807.23 194.559 L2793.39 194.559 L2779.55 194.558 L2765.71 194.559 L2751.87 194.559 L2738.04 194.56 L2724.2 194.561 L2710.36 194.563 L2696.52 194.565 L2682.69 194.567 L2668.85 194.57 L2655.01 194.573 L2641.17 194.577 L2627.33 194.581 L2613.5 194.585 L2599.66 194.59 L2585.82 194.595 L2571.98 194.601 L2558.14 194.606 L2544.31 194.612 L2530.47 194.618 L2516.63 194.625 L2502.79 194.631 L2488.96 194.637 L2475.12 194.642 L2461.28 194.647 L2447.44 194.652 L2433.6 194.657 L2419.77 194.662 L2405.93 194.668 L2392.09 194.675 L2378.25 194.682 L2364.42 194.69 L2350.58 194.7 L2336.74 194.711 L2322.9 194.723 L2309.06 194.737 L2295.23 194.753 L2281.39 194.77 L2267.55 194.79 L2253.71 194.811 L2239.87 194.835 L2226.04 194.86 L2212.2 194.888 L2198.36 194.917 L2184.52 194.949 L2170.69 194.983 L2156.85 195.019 L2143.01 195.057 L2129.17 195.096 L2115.33 195.137 L2101.5 195.179 L2087.66 195.224 L2073.82 195.271 L2059.98 195.323 L2046.15 195.378 L2032.31 195.438 L2018.47 195.504 L2004.63 195.577 L1990.79 195.656 L1976.96 195.743 L1963.12 195.838 L1949.28 195.941 L1935.44 196.054 L1921.61 196.176 L1907.77 196.309 L1893.93 196.452 L1880.09 196.606 L1866.25 196.771 L1852.42 196.948 L1838.58 197.138 L1824.74 197.338 L1810.9 197.552 L1797.06 197.78 L1783.23 198.025 L1769.39 198.289 L1755.55 198.574 L1741.71 198.882 L1727.88 199.217 L1714.04 199.579 L1700.2 199.972 L1686.36 200.398 L1672.52 200.86 L1658.69 201.358 L1644.85 201.897 L1631.01 202.478 L1617.17 203.104 L1603.34 203.776 L1589.5 204.498 L1575.66 205.271 L1561.82 206.098 L1547.98 206.987 L1534.15 207.942 L1520.31 208.971 L1506.47 210.171 L1492.63 211.633 L1478.79 213.211 L1464.96 214.925 L1451.12 216.807 L1437.28 218.513 L1423.44 220.364 L1409.61 222.442 L1395.77 224.737 L1381.93 227.024 L1368.09 229.402 L1354.25 232.711 L1340.42 235.869 L1326.58 239.11 L1312.74 242.116 L1298.9 245.629 L1285.07 249.486 L1271.23 253.542 L1257.39 258.151 L1243.55 262.393 L1229.71 267.202 L1215.88 272.641 L1202.04 278.596 L1188.2 284.896 L1174.36 291.316 L1160.53 298.412 L1146.69 305.57 L1132.85 313.239 L1119.01 321.702 L1105.17 330.91 L1091.34 341.116 L1077.5 352.009 L1063.66 363.12 L1049.82 373.857 L1035.98 385.944 L1022.15 399.442 L1008.31 413.506 L994.471 429.354 L980.633 445.511 L966.796 461.165 L952.958 478.868 L939.12 497.722 L925.282 516.502 L911.444 537.149 L897.606 559.294 L883.769 582.884 L869.931 605.893 L856.093 631.352 L842.255 658.432 L828.417 686.443 L814.58 714.249 L800.742 743.981 L786.904 775.521 L773.066 808.304 L759.228 842.21 L745.39 877.246 L731.553 913.565 L717.715 950.891 L703.877 988.727 L690.039 1027.43 L676.201 1066.78 L662.364 1106.83 L648.526 1146.03 L634.688 1187.53 L620.85 1229.59 L607.012 1271.32 L593.174 1313.6 L579.337 1356.02 L565.499 1398.38 L551.661 1440.54 L537.823 1482.4 L523.985 1523.82 L510.148 1564.67 L496.31 1604.56 L482.472 1643.75 L468.634 1682.13 L454.796 1719.81 L440.958 1756.62 L427.121 1792.43 L413.283 1826.82 L399.445 1860.2 L385.607 1892.42 L371.769 1923.47 L357.932 1953.08 L344.094 1981.49 L330.256 2008.7 L316.418 2034.7  Z" fill="#e26f46" fill-rule="evenodd" fill-opacity="0.2"/>
<polyline clip-path="url(#clip412)" style="stroke:#e26f46; stroke-linecap:round; stroke-linejoin:round; stroke-width:12; stroke-opacity:1; fill:none" points="316.418,2079.98 330.256,2055.99 344.094,2030.8 357.932,2004.39 371.769,1976.77 385.607,1948.06 399.445,1918.15 413.283,1887 427.121,1854.55 440.958,1820.92 454.796,1786.18 468.634,1750.36 482.472,1713.52 496.31,1675.72 510.148,1637.06 523.985,1597.65 537.823,1557.52 551.661,1516.78 565.499,1475.63 579.337,1434.33 593.174,1392.78 607.012,1351 620.85,1308.94 634.688,1266.96 648.526,1226.13 662.364,1185.19 676.201,1144.52 690.039,1104.3 703.877,1064.33 717.715,1024.76 731.553,986 745.39,948.13 759.228,911.227 773.066,875.926 786.904,840.824 800.742,806.628 814.58,773.96 828.417,742.496 842.255,713.353 856.093,685.018 869.931,657.396 883.769,631.993 897.606,607.836 911.444,583.293 925.282,561.984 939.12,540.643 952.958,520.873 966.796,502.434 980.633,484.827 994.471,467.67 1008.31,451.552 1022.15,436.009 1035.98,421.033 1049.82,407.417 1063.66,394.496 1077.5,383 1091.34,372.267 1105.17,360.85 1119.01,351.5 1132.85,342.75 1146.69,333.931 1160.53,325.67 1174.36,318.443 1188.2,311.359 1202.04,305.23 1215.88,299.009 1229.71,292.901 1243.55,287.641 1257.39,282.656 1271.23,278.464 1285.07,274.163 1298.9,270.223 1312.74,266.592 1326.58,262.679 1340.42,259.603 1354.25,256.405 1368.09,253.641 1381.93,251.01 1395.77,248.88 1409.61,246.617 1423.44,244.565 1437.28,242.788 1451.12,241.105 1464.96,239.454 1478.79,237.602 1492.63,236.065 1506.47,234.695 1520.31,233.424 1534.15,232.241 1547.98,231.083 1561.82,230.129 1575.66,229.24 1589.5,228.43 1603.34,227.792 1617.17,227.099 1631.01,226.434 1644.85,225.8 1658.69,225.143 1672.52,224.534 1686.36,223.97 1700.2,223.444 1714.04,222.943 1727.88,222.496 1741.71,222.075 1755.55,221.676 1769.39,221.31 1783.23,220.969 1797.06,220.651 1810.9,220.354 1824.74,220.075 1838.58,219.815 1852.42,219.592 1866.25,219.39 1880.09,219.203 1893.93,219.03 1907.77,218.869 1921.61,218.721 1935.44,218.586 1949.28,218.478 1963.12,218.369 1976.96,218.266 1990.79,218.172 2004.63,218.086 2018.47,218.008 2032.31,217.937 2046.15,217.873 2059.98,217.815 2073.82,217.762 2087.66,217.713 2101.5,217.668 2115.33,217.626 2129.17,217.586 2143.01,217.548 2156.85,217.51 2170.69,217.473 2184.52,217.437 2198.36,217.404 2212.2,217.367 2226.04,217.333 2239.87,217.302 2253.71,217.274 2267.55,217.248 2281.39,217.224 2295.23,217.202 2309.06,217.182 2322.9,217.163 2336.74,217.146 2350.58,217.131 2364.42,217.116 2378.25,217.102 2392.09,217.088 2405.93,217.076 2419.77,217.065 2433.6,217.054 2447.44,217.044 2461.28,217.034 2475.12,217.026 2488.96,217.017 2502.79,217.009 2516.63,217.001 2530.47,216.993 2544.31,216.986 2558.14,216.98 2571.98,216.974 2585.82,216.969 2599.66,216.964 2613.5,216.96 2627.33,216.956 2641.17,216.953 2655.01,216.95 2668.85,216.947 2682.69,216.945 2696.52,216.944 2710.36,216.943 2724.2,216.941 2738.04,216.94 2751.87,216.939 2765.71,216.939 2779.55,216.937 2793.39,216.936 2807.23,216.935 2821.06,216.935 2834.9,216.934 2848.74,216.934 2862.58,216.933 2876.41,216.933 2890.25,216.933 2904.09,216.933 2917.93,216.933 2931.77,216.933 2945.6,216.932 2959.44,216.932 2973.28,216.931 2987.12,216.93 3000.96,216.929 3014.79,216.928 3028.63,216.927 3042.47,216.926 3056.31,216.925 3070.14,216.924 "/>
<path clip-path="url(#clip410)" d="M2663.79 2135.47 L3055.46 2135.47 L3055.46 1979.95 L2663.79 1979.95  Z" fill="#eaeaea" fill-rule="evenodd" fill-opacity="1"/>
<polyline clip-path="url(#clip410)" style="stroke:#ffffff; stroke-linecap:round; stroke-linejoin:round; stroke-width:4; stroke-opacity:1; fill:none" points="2663.79,2135.47 3055.46,2135.47 3055.46,1979.95 2663.79,1979.95 2663.79,2135.47 "/>
<polyline clip-path="url(#clip410)" style="stroke:#009af9; stroke-linecap:round; stroke-linejoin:round; stroke-width:12; stroke-opacity:1; fill:none" points="2696.23,2031.79 2890.82,2031.79 "/>
<path clip-path="url(#clip410)" d="M2925.48 2048.35 L2925.48 2044.09 Q2927.24 2044.92 2929.04 2045.36 Q2930.85 2045.8 2932.59 2045.8 Q2937.22 2045.8 2939.65 2042.7 Q2942.1 2039.58 2942.45 2033.23 Q2941.1 2035.22 2939.04 2036.29 Q2936.98 2037.35 2934.48 2037.35 Q2929.3 2037.35 2926.27 2034.23 Q2923.26 2031.08 2923.26 2025.64 Q2923.26 2020.32 2926.4 2017.1 Q2929.55 2013.88 2934.78 2013.88 Q2940.78 2013.88 2943.93 2018.49 Q2947.1 2023.07 2947.1 2031.82 Q2947.1 2039.99 2943.21 2044.88 Q2939.34 2049.74 2932.79 2049.74 Q2931.03 2049.74 2929.23 2049.39 Q2927.42 2049.04 2925.48 2048.35 M2934.78 2033.7 Q2937.93 2033.7 2939.76 2031.54 Q2941.61 2029.39 2941.61 2025.64 Q2941.61 2021.91 2939.76 2019.76 Q2937.93 2017.58 2934.78 2017.58 Q2931.64 2017.58 2929.78 2019.76 Q2927.96 2021.91 2927.96 2025.64 Q2927.96 2029.39 2929.78 2031.54 Q2931.64 2033.7 2934.78 2033.7 Z" fill="#000000" fill-rule="nonzero" fill-opacity="1" /><path clip-path="url(#clip410)" d="M2955.55 2014.51 L2973.9 2014.51 L2973.9 2018.44 L2959.83 2018.44 L2959.83 2026.91 Q2960.85 2026.57 2961.87 2026.4 Q2962.89 2026.22 2963.9 2026.22 Q2969.69 2026.22 2973.07 2029.39 Q2976.45 2032.56 2976.45 2037.98 Q2976.45 2043.56 2972.98 2046.66 Q2969.51 2049.74 2963.19 2049.74 Q2961.01 2049.74 2958.74 2049.37 Q2956.5 2049 2954.09 2048.26 L2954.09 2043.56 Q2956.17 2044.69 2958.4 2045.25 Q2960.62 2045.8 2963.09 2045.8 Q2967.1 2045.8 2969.44 2043.7 Q2971.78 2041.59 2971.78 2037.98 Q2971.78 2034.37 2969.44 2032.26 Q2967.1 2030.15 2963.09 2030.15 Q2961.22 2030.15 2959.34 2030.57 Q2957.49 2030.99 2955.55 2031.87 L2955.55 2014.51 Z" fill="#000000" fill-rule="nonzero" fill-opacity="1" /><path clip-path="url(#clip410)" d="M3015.06 2033.86 Q3013.05 2033.86 3011.89 2035.57 Q3010.76 2037.28 3010.76 2040.34 Q3010.76 2043.35 3011.89 2045.08 Q3013.05 2046.8 3015.06 2046.8 Q3017.03 2046.8 3018.16 2045.08 Q3019.32 2043.35 3019.32 2040.34 Q3019.32 2037.31 3018.16 2035.59 Q3017.03 2033.86 3015.06 2033.86 M3015.06 2030.92 Q3018.72 2030.92 3020.87 2033.46 Q3023.02 2036.01 3023.02 2040.34 Q3023.02 2044.67 3020.85 2047.21 Q3018.7 2049.74 3015.06 2049.74 Q3011.36 2049.74 3009.21 2047.21 Q3007.05 2044.67 3007.05 2040.34 Q3007.05 2035.99 3009.21 2033.46 Q3011.38 2030.92 3015.06 2030.92 M2991.17 2016.82 Q2989.18 2016.82 2988.02 2018.56 Q2986.89 2020.27 2986.89 2023.28 Q2986.89 2026.33 2988.02 2028.05 Q2989.16 2029.76 2991.17 2029.76 Q2993.19 2029.76 2994.32 2028.05 Q2995.48 2026.33 2995.48 2023.28 Q2995.48 2020.29 2994.32 2018.56 Q2993.16 2016.82 2991.17 2016.82 M3012.08 2013.88 L3015.78 2013.88 L2994.16 2049.74 L2990.46 2049.74 L3012.08 2013.88 M2991.17 2013.88 Q2994.83 2013.88 2997.01 2016.43 Q2999.18 2018.95 2999.18 2023.28 Q2999.18 2027.65 2997.01 2030.18 Q2994.85 2032.7 2991.17 2032.7 Q2987.49 2032.7 2985.34 2030.18 Q2983.21 2027.63 2983.21 2023.28 Q2983.21 2018.97 2985.36 2016.43 Q2987.52 2013.88 2991.17 2013.88 Z" fill="#000000" fill-rule="nonzero" fill-opacity="1" /><polyline clip-path="url(#clip410)" style="stroke:#e26f46; stroke-linecap:round; stroke-linejoin:round; stroke-width:12; stroke-opacity:1; fill:none" points="2696.23,2083.63 2890.82,2083.63 "/>
<path clip-path="url(#clip410)" d="M2935.59 2081.76 Q2932.45 2081.76 2930.59 2083.92 Q2928.77 2086.07 2928.77 2089.82 Q2928.77 2093.55 2930.59 2095.72 Q2932.45 2097.87 2935.59 2097.87 Q2938.74 2097.87 2940.57 2095.72 Q2942.42 2093.55 2942.42 2089.82 Q2942.42 2086.07 2940.57 2083.92 Q2938.74 2081.76 2935.59 2081.76 M2944.88 2067.11 L2944.88 2071.37 Q2943.12 2070.54 2941.31 2070.1 Q2939.53 2069.66 2937.77 2069.66 Q2933.14 2069.66 2930.69 2072.78 Q2928.26 2075.91 2927.91 2082.23 Q2929.28 2080.21 2931.34 2079.15 Q2933.4 2078.06 2935.87 2078.06 Q2941.08 2078.06 2944.09 2081.23 Q2947.12 2084.38 2947.12 2089.82 Q2947.12 2095.14 2943.97 2098.36 Q2940.83 2101.58 2935.59 2101.58 Q2929.6 2101.58 2926.43 2096.99 Q2923.26 2092.39 2923.26 2083.66 Q2923.26 2075.47 2927.15 2070.61 Q2931.03 2065.72 2937.59 2065.72 Q2939.34 2065.72 2941.13 2066.07 Q2942.93 2066.42 2944.88 2067.11 Z" fill="#000000" fill-rule="nonzero" fill-opacity="1" /><path clip-path="url(#clip410)" d="M2965.18 2084.49 Q2961.84 2084.49 2959.92 2086.28 Q2958.03 2088.06 2958.03 2091.18 Q2958.03 2094.31 2959.92 2096.09 Q2961.84 2097.87 2965.18 2097.87 Q2968.51 2097.87 2970.43 2096.09 Q2972.35 2094.29 2972.35 2091.18 Q2972.35 2088.06 2970.43 2086.28 Q2968.53 2084.49 2965.18 2084.49 M2960.5 2082.5 Q2957.49 2081.76 2955.8 2079.7 Q2954.14 2077.64 2954.14 2074.68 Q2954.14 2070.54 2957.08 2068.13 Q2960.04 2065.72 2965.18 2065.72 Q2970.34 2065.72 2973.28 2068.13 Q2976.22 2070.54 2976.22 2074.68 Q2976.22 2077.64 2974.53 2079.7 Q2972.86 2081.76 2969.88 2082.5 Q2973.26 2083.29 2975.13 2085.58 Q2977.03 2087.87 2977.03 2091.18 Q2977.03 2096.21 2973.95 2098.89 Q2970.9 2101.58 2965.18 2101.58 Q2959.46 2101.58 2956.38 2098.89 Q2953.33 2096.21 2953.33 2091.18 Q2953.33 2087.87 2955.22 2085.58 Q2957.12 2083.29 2960.5 2082.5 M2958.79 2075.12 Q2958.79 2077.8 2960.46 2079.31 Q2962.15 2080.81 2965.18 2080.81 Q2968.19 2080.81 2969.88 2079.31 Q2971.59 2077.8 2971.59 2075.12 Q2971.59 2072.43 2969.88 2070.93 Q2968.19 2069.42 2965.18 2069.42 Q2962.15 2069.42 2960.46 2070.93 Q2958.79 2072.43 2958.79 2075.12 Z" fill="#000000" fill-rule="nonzero" fill-opacity="1" /><path clip-path="url(#clip410)" d="M3014.74 2085.7 Q3012.72 2085.7 3011.57 2087.41 Q3010.43 2089.12 3010.43 2092.18 Q3010.43 2095.19 3011.57 2096.92 Q3012.72 2098.64 3014.74 2098.64 Q3016.71 2098.64 3017.84 2096.92 Q3019 2095.19 3019 2092.18 Q3019 2089.15 3017.84 2087.43 Q3016.71 2085.7 3014.74 2085.7 M3014.74 2082.76 Q3018.4 2082.76 3020.55 2085.3 Q3022.7 2087.85 3022.7 2092.18 Q3022.7 2096.51 3020.52 2099.05 Q3018.37 2101.58 3014.74 2101.58 Q3011.03 2101.58 3008.88 2099.05 Q3006.73 2096.51 3006.73 2092.18 Q3006.73 2087.83 3008.88 2085.3 Q3011.06 2082.76 3014.74 2082.76 M2990.85 2068.66 Q2988.86 2068.66 2987.7 2070.4 Q2986.57 2072.11 2986.57 2075.12 Q2986.57 2078.17 2987.7 2079.89 Q2988.84 2081.6 2990.85 2081.6 Q2992.86 2081.6 2994 2079.89 Q2995.15 2078.17 2995.15 2075.12 Q2995.15 2072.13 2994 2070.4 Q2992.84 2068.66 2990.85 2068.66 M3011.75 2065.72 L3015.46 2065.72 L2993.84 2101.58 L2990.13 2101.58 L3011.75 2065.72 M2990.85 2065.72 Q2994.51 2065.72 2996.68 2068.27 Q2998.86 2070.79 2998.86 2075.12 Q2998.86 2079.49 2996.68 2082.02 Q2994.53 2084.54 2990.85 2084.54 Q2987.17 2084.54 2985.02 2082.02 Q2982.89 2079.47 2982.89 2075.12 Q2982.89 2070.81 2985.04 2068.27 Q2987.19 2065.72 2990.85 2065.72 Z" fill="#000000" fill-rule="nonzero" fill-opacity="1" /></svg>
