<?xml version="1.0" encoding="utf-8"?>
<svg xmlns="http://www.w3.org/2000/svg" xmlns:xlink="http://www.w3.org/1999/xlink" width="800" height="600" viewBox="0 0 3200 2400">
<defs>
  <clipPath id="clip220">
    <rect x="0" y="0" width="3200" height="2400"/>
  </clipPath>
</defs>
<path clip-path="url(#clip220)" d="M0 2400 L3200 2400 L3200 0 L0 0  Z" fill="#ffffff" fill-rule="evenodd" fill-opacity="1"/>
<defs>
  <clipPath id="clip221">
    <rect x="640" y="0" width="2241" height="2241"/>
  </clipPath>
</defs>
<path clip-path="url(#clip220)" d="M233.806 2204.92 L3152.76 2204.92 L3152.76 121.312 L233.806 121.312  Z" fill="#eaeaea" fill-rule="evenodd" fill-opacity="1"/>
<defs>
  <clipPath id="clip222">
    <rect x="233" y="121" width="2920" height="2085"/>
  </clipPath>
</defs>
<polyline clip-path="url(#clip222)" style="stroke:#ffffff; stroke-linecap:round; stroke-linejoin:round; stroke-width:4; stroke-opacity:1; fill:none" points="316.418,2204.92 316.418,121.312 "/>
<polyline clip-path="url(#clip222)" style="stroke:#ffffff; stroke-linecap:round; stroke-linejoin:round; stroke-width:4; stroke-opacity:1; fill:none" points="867.163,2204.92 867.163,121.312 "/>
<polyline clip-path="url(#clip222)" style="stroke:#ffffff; stroke-linecap:round; stroke-linejoin:round; stroke-width:4; stroke-opacity:1; fill:none" points="1417.91,2204.92 1417.91,121.312 "/>
<polyline clip-path="url(#clip222)" style="stroke:#ffffff; stroke-linecap:round; stroke-linejoin:round; stroke-width:4; stroke-opacity:1; fill:none" points="1968.65,2204.92 1968.65,121.312 "/>
<polyline clip-path="url(#clip222)" style="stroke:#ffffff; stroke-linecap:round; stroke-linejoin:round; stroke-width:4; stroke-opacity:1; fill:none" points="2519.4,2204.92 2519.4,121.312 "/>
<polyline clip-path="url(#clip222)" style="stroke:#ffffff; stroke-linecap:round; stroke-linejoin:round; stroke-width:4; stroke-opacity:1; fill:none" points="3070.14,2204.92 3070.14,121.312 "/>
<polyline clip-path="url(#clip222)" style="stroke:#ffffff; stroke-linecap:round; stroke-linejoin:round; stroke-width:2; stroke-opacity:1; fill:none" points="591.791,2204.92 591.791,121.312 "/>
<polyline clip-path="url(#clip222)" style="stroke:#ffffff; stroke-linecap:round; stroke-linejoin:round; stroke-width:2; stroke-opacity:1; fill:none" points="1142.54,2204.92 1142.54,121.312 "/>
<polyline clip-path="url(#clip222)" style="stroke:#ffffff; stroke-linecap:round; stroke-linejoin:round; stroke-width:2; stroke-opacity:1; fill:none" points="1693.28,2204.92 1693.28,121.312 "/>
<polyline clip-path="url(#clip222)" style="stroke:#ffffff; stroke-linecap:round; stroke-linejoin:round; stroke-width:2; stroke-opacity:1; fill:none" points="2244.03,2204.92 2244.03,121.312 "/>
<polyline clip-path="url(#clip222)" style="stroke:#ffffff; stroke-linecap:round; stroke-linejoin:round; stroke-width:2; stroke-opacity:1; fill:none" points="2794.77,2204.92 2794.77,121.312 "/>
<polyline clip-path="url(#clip220)" style="stroke:#ffffff; stroke-linecap:round; stroke-linejoin:round; stroke-width:4; stroke-opacity:1; fill:none" points="233.806,2204.92 3152.76,2204.92 "/>
<polyline clip-path="url(#clip220)" style="stroke:#333333; stroke-linecap:round; stroke-linejoin:round; stroke-width:4; stroke-opacity:1; fill:none" points="316.418,2204.92 316.418,2223.82 "/>
<polyline clip-path="url(#clip220)" style="stroke:#333333; stroke-linecap:round; stroke-linejoin:round; stroke-width:4; stroke-opacity:1; fill:none" points="867.163,2204.92 867.163,2223.82 "/>
<polyline clip-path="url(#clip220)" style="stroke:#333333; stroke-linecap:round; stroke-linejoin:round; stroke-width:4; stroke-opacity:1; fill:none" points="1417.91,2204.92 1417.91,2223.82 "/>
<polyline clip-path="url(#clip220)" style="stroke:#333333; stroke-linecap:round; stroke-linejoin:round; stroke-width:4; stroke-opacity:1; fill:none" points="1968.65,2204.92 1968.65,2223.82 "/>
<polyline clip-path="url(#clip220)" style="stroke:#333333; stroke-linecap:round; stroke-linejoin:round; stroke-width:4; stroke-opacity:1; fill:none" points="2519.4,2204.92 2519.4,2223.82 "/>
<polyline clip-path="url(#clip220)" style="stroke:#333333; stroke-linecap:round; stroke-linejoin:round; stroke-width:4; stroke-opacity:1; fill:none" points="3070.14,2204.92 3070.14,2223.82 "/>
<polyline clip-path="url(#clip220)" style="stroke:#333333; stroke-linecap:round; stroke-linejoin:round; stroke-width:4; stroke-opacity:1; fill:none" points="591.791,2204.92 591.791,2214.37 "/>
<polyline clip-path="url(#clip220)" style="stroke:#333333; stroke-linecap:round; stroke-linejoin:round; stroke-width:4; stroke-opacity:1; fill:none" points="1142.54,2204.92 1142.54,2214.37 "/>
<polyline clip-path="url(#clip220)" style="stroke:#333333; stroke-linecap:round; stroke-linejoin:round; stroke-width:4; stroke-opacity:1; fill:none" points="1693.28,2204.92 1693.28,2214.37 "/>
<polyline clip-path="url(#clip220)" style="stroke:#333333; stroke-linecap:round; stroke-linejoin:round; stroke-width:4; stroke-opacity:1; fill:none" points="2244.03,2204.92 2244.03,2214.37 "/>
<polyline clip-path="url(#clip220)" style="stroke:#333333; stroke-linecap:round; stroke-linejoin:round; stroke-width:4; stroke-opacity:1; fill:none" points="2794.77,2204.92 2794.77,2214.37 "/>
<path clip-path="url(#clip220)" d="M316.418 2255.04 Q312.807 2255.04 310.978 2258.6 Q309.173 2262.14 309.173 2269.27 Q309.173 2276.38 310.978 2279.95 Q312.807 2283.49 316.418 2283.49 Q320.052 2283.49 321.858 2279.95 Q323.687 2276.38 323.687 2269.27 Q323.687 2262.14 321.858 2258.6 Q320.052 2255.04 316.418 2255.04 M316.418 2251.33 Q322.228 2251.33 325.284 2255.94 Q328.362 2260.52 328.362 2269.27 Q328.362 2278 325.284 2282.61 Q322.228 2287.19 316.418 2287.19 Q310.608 2287.19 307.529 2282.61 Q304.474 2278 304.474 2269.27 Q304.474 2260.52 307.529 2255.94 Q310.608 2251.33 316.418 2251.33 Z" fill="#4c4c4c" fill-rule="nonzero" fill-opacity="1" /><path clip-path="url(#clip220)" d="M857.545 2282.58 L865.184 2282.58 L865.184 2256.22 L856.874 2257.89 L856.874 2253.63 L865.138 2251.96 L869.814 2251.96 L869.814 2282.58 L877.453 2282.58 L877.453 2286.52 L857.545 2286.52 L857.545 2282.58 Z" fill="#4c4c4c" fill-rule="nonzero" fill-opacity="1" /><path clip-path="url(#clip220)" d="M1412.56 2282.58 L1428.88 2282.58 L1428.88 2286.52 L1406.94 2286.52 L1406.94 2282.58 Q1409.6 2279.83 1414.18 2275.2 Q1418.79 2270.55 1419.97 2269.21 Q1422.21 2266.68 1423.09 2264.95 Q1424 2263.19 1424 2261.5 Q1424 2258.74 1422.05 2257.01 Q1420.13 2255.27 1417.03 2255.27 Q1414.83 2255.27 1412.38 2256.03 Q1409.95 2256.8 1407.17 2258.35 L1407.17 2253.63 Q1409.99 2252.49 1412.45 2251.91 Q1414.9 2251.33 1416.94 2251.33 Q1422.31 2251.33 1425.5 2254.02 Q1428.7 2256.71 1428.7 2261.2 Q1428.7 2263.33 1427.89 2265.25 Q1427.1 2267.14 1424.99 2269.74 Q1424.41 2270.41 1421.31 2273.63 Q1418.21 2276.82 1412.56 2282.58 Z" fill="#4c4c4c" fill-rule="nonzero" fill-opacity="1" /><path clip-path="url(#clip220)" d="M1972.9 2267.89 Q1976.26 2268.6 1978.13 2270.87 Q1980.03 2273.14 1980.03 2276.47 Q1980.03 2281.59 1976.51 2284.39 Q1972.99 2287.19 1966.51 2287.19 Q1964.34 2287.19 1962.02 2286.75 Q1959.73 2286.33 1957.28 2285.48 L1957.28 2280.96 Q1959.22 2282.1 1961.54 2282.68 Q1963.85 2283.26 1966.37 2283.26 Q1970.77 2283.26 1973.06 2281.52 Q1975.38 2279.78 1975.38 2276.47 Q1975.38 2273.42 1973.23 2271.71 Q1971.1 2269.97 1967.28 2269.97 L1963.25 2269.97 L1963.25 2266.13 L1967.46 2266.13 Q1970.91 2266.13 1972.74 2264.76 Q1974.57 2263.37 1974.57 2260.78 Q1974.57 2258.12 1972.67 2256.71 Q1970.79 2255.27 1967.28 2255.27 Q1965.36 2255.27 1963.16 2255.69 Q1960.96 2256.1 1958.32 2256.98 L1958.32 2252.82 Q1960.98 2252.08 1963.29 2251.71 Q1965.63 2251.33 1967.69 2251.33 Q1973.02 2251.33 1976.12 2253.77 Q1979.22 2256.17 1979.22 2260.29 Q1979.22 2263.16 1977.58 2265.15 Q1975.93 2267.12 1972.9 2267.89 Z" fill="#4c4c4c" fill-rule="nonzero" fill-opacity="1" /><path clip-path="url(#clip220)" d="M2522.41 2256.03 L2510.6 2274.48 L2522.41 2274.48 L2522.41 2256.03 M2521.18 2251.96 L2527.06 2251.96 L2527.06 2274.48 L2531.99 2274.48 L2531.99 2278.37 L2527.06 2278.37 L2527.06 2286.52 L2522.41 2286.52 L2522.41 2278.37 L2506.81 2278.37 L2506.81 2273.86 L2521.18 2251.96 Z" fill="#4c4c4c" fill-rule="nonzero" fill-opacity="1" /><path clip-path="url(#clip220)" d="M3060.42 2251.96 L3078.78 2251.96 L3078.78 2255.9 L3064.7 2255.9 L3064.7 2264.37 Q3065.72 2264.02 3066.74 2263.86 Q3067.76 2263.67 3068.78 2263.67 Q3074.57 2263.67 3077.95 2266.84 Q3081.32 2270.02 3081.32 2275.43 Q3081.32 2281.01 3077.85 2284.11 Q3074.38 2287.19 3068.06 2287.19 Q3065.88 2287.19 3063.62 2286.82 Q3061.37 2286.45 3058.96 2285.71 L3058.96 2281.01 Q3061.05 2282.14 3063.27 2282.7 Q3065.49 2283.26 3067.97 2283.26 Q3071.97 2283.26 3074.31 2281.15 Q3076.65 2279.04 3076.65 2275.43 Q3076.65 2271.82 3074.31 2269.71 Q3071.97 2267.61 3067.97 2267.61 Q3066.09 2267.61 3064.22 2268.02 Q3062.37 2268.44 3060.42 2269.32 L3060.42 2251.96 Z" fill="#4c4c4c" fill-rule="nonzero" fill-opacity="1" /><path clip-path="url(#clip220)" d="M1692.34 2316.01 L1692.34 2326.14 L1704.41 2326.14 L1704.41 2330.69 L1692.34 2330.69 L1692.34 2350.04 Q1692.34 2354.4 1693.52 2355.64 Q1694.73 2356.88 1698.39 2356.88 L1704.41 2356.88 L1704.41 2361.78 L1698.39 2361.78 Q1691.61 2361.78 1689.03 2359.27 Q1686.45 2356.72 1686.45 2350.04 L1686.45 2330.69 L1682.16 2330.69 L1682.16 2326.14 L1686.45 2326.14 L1686.45 2316.01 L1692.34 2316.01 Z" fill="#000000" fill-rule="nonzero" fill-opacity="1" /><polyline clip-path="url(#clip222)" style="stroke:#ffffff; stroke-linecap:round; stroke-linejoin:round; stroke-width:4; stroke-opacity:1; fill:none" points="233.806,2152.06 3152.76,2152.06 "/>
<polyline clip-path="url(#clip222)" style="stroke:#ffffff; stroke-linecap:round; stroke-linejoin:round; stroke-width:4; stroke-opacity:1; fill:none" points="233.806,1854.19 3152.76,1854.19 "/>
<polyline clip-path="url(#clip222)" style="stroke:#ffffff; stroke-linecap:round; stroke-linejoin:round; stroke-width:4; stroke-opacity:1; fill:none" points="233.806,1556.32 3152.76,1556.32 "/>
<polyline clip-path="url(#clip222)" style="stroke:#ffffff; stroke-linecap:round; stroke-linejoin:round; stroke-width:4; stroke-opacity:1; fill:none" points="233.806,1258.46 3152.76,1258.46 "/>
<polyline clip-path="url(#clip222)" style="stroke:#ffffff; stroke-linecap:round; stroke-linejoin:round; stroke-width:4; stroke-opacity:1; fill:none" points="233.806,960.591 3152.76,960.591 "/>
<polyline clip-path="url(#clip222)" style="stroke:#ffffff; stroke-linecap:round; stroke-linejoin:round; stroke-width:4; stroke-opacity:1; fill:none" points="233.806,662.724 3152.76,662.724 "/>
<polyline clip-path="url(#clip222)" style="stroke:#ffffff; stroke-linecap:round; stroke-linejoin:round; stroke-width:4; stroke-opacity:1; fill:none" points="233.806,364.857 3152.76,364.857 "/>
<polyline clip-path="url(#clip222)" style="stroke:#ffffff; stroke-linecap:round; stroke-linejoin:round; stroke-width:2; stroke-opacity:1; fill:none" points="233.806,2003.12 3152.76,2003.12 "/>
<polyline clip-path="url(#clip222)" style="stroke:#ffffff; stroke-linecap:round; stroke-linejoin:round; stroke-width:2; stroke-opacity:1; fill:none" points="233.806,1705.26 3152.76,1705.26 "/>
<polyline clip-path="url(#clip222)" style="stroke:#ffffff; stroke-linecap:round; stroke-linejoin:round; stroke-width:2; stroke-opacity:1; fill:none" points="233.806,1407.39 3152.76,1407.39 "/>
<polyline clip-path="url(#clip222)" style="stroke:#ffffff; stroke-linecap:round; stroke-linejoin:round; stroke-width:2; stroke-opacity:1; fill:none" points="233.806,1109.52 3152.76,1109.52 "/>
<polyline clip-path="url(#clip222)" style="stroke:#ffffff; stroke-linecap:round; stroke-linejoin:round; stroke-width:2; stroke-opacity:1; fill:none" points="233.806,811.657 3152.76,811.657 "/>
<polyline clip-path="url(#clip222)" style="stroke:#ffffff; stroke-linecap:round; stroke-linejoin:round; stroke-width:2; stroke-opacity:1; fill:none" points="233.806,513.79 3152.76,513.79 "/>
<polyline clip-path="url(#clip222)" style="stroke:#ffffff; stroke-linecap:round; stroke-linejoin:round; stroke-width:2; stroke-opacity:1; fill:none" points="233.806,215.923 3152.76,215.923 "/>
<polyline clip-path="url(#clip220)" style="stroke:#ffffff; stroke-linecap:round; stroke-linejoin:round; stroke-width:4; stroke-opacity:1; fill:none" points="233.806,2204.92 233.806,121.312 "/>
<polyline clip-path="url(#clip220)" style="stroke:#333333; stroke-linecap:round; stroke-linejoin:round; stroke-width:4; stroke-opacity:1; fill:none" points="233.806,2152.06 214.909,2152.06 "/>
<polyline clip-path="url(#clip220)" style="stroke:#333333; stroke-linecap:round; stroke-linejoin:round; stroke-width:4; stroke-opacity:1; fill:none" points="233.806,1854.19 214.909,1854.19 "/>
<polyline clip-path="url(#clip220)" style="stroke:#333333; stroke-linecap:round; stroke-linejoin:round; stroke-width:4; stroke-opacity:1; fill:none" points="233.806,1556.32 214.909,1556.32 "/>
<polyline clip-path="url(#clip220)" style="stroke:#333333; stroke-linecap:round; stroke-linejoin:round; stroke-width:4; stroke-opacity:1; fill:none" points="233.806,1258.46 214.909,1258.46 "/>
<polyline clip-path="url(#clip220)" style="stroke:#333333; stroke-linecap:round; stroke-linejoin:round; stroke-width:4; stroke-opacity:1; fill:none" points="233.806,960.591 214.909,960.591 "/>
<polyline clip-path="url(#clip220)" style="stroke:#333333; stroke-linecap:round; stroke-linejoin:round; stroke-width:4; stroke-opacity:1; fill:none" points="233.806,662.724 214.909,662.724 "/>
<polyline clip-path="url(#clip220)" style="stroke:#333333; stroke-linecap:round; stroke-linejoin:round; stroke-width:4; stroke-opacity:1; fill:none" points="233.806,364.857 214.909,364.857 "/>
<polyline clip-path="url(#clip220)" style="stroke:#333333; stroke-linecap:round; stroke-linejoin:round; stroke-width:4; stroke-opacity:1; fill:none" points="233.806,2003.12 224.357,2003.12 "/>
<polyline clip-path="url(#clip220)" style="stroke:#333333; stroke-linecap:round; stroke-linejoin:round; stroke-width:4; stroke-opacity:1; fill:none" points="233.806,1705.26 224.357,1705.26 "/>
<polyline clip-path="url(#clip220)" style="stroke:#333333; stroke-linecap:round; stroke-linejoin:round; stroke-width:4; stroke-opacity:1; fill:none" points="233.806,1407.39 224.357,1407.39 "/>
<polyline clip-path="url(#clip220)" style="stroke:#333333; stroke-linecap:round; stroke-linejoin:round; stroke-width:4; stroke-opacity:1; fill:none" points="233.806,1109.52 224.357,1109.52 "/>
<polyline clip-path="url(#clip220)" style="stroke:#333333; stroke-linecap:round; stroke-linejoin:round; stroke-width:4; stroke-opacity:1; fill:none" points="233.806,811.657 224.357,811.657 "/>
<polyline clip-path="url(#clip220)" style="stroke:#333333; stroke-linecap:round; stroke-linejoin:round; stroke-width:4; stroke-opacity:1; fill:none" points="233.806,513.79 224.357,513.79 "/>
<polyline clip-path="url(#clip220)" style="stroke:#333333; stroke-linecap:round; stroke-linejoin:round; stroke-width:4; stroke-opacity:1; fill:none" points="233.806,215.923 224.357,215.923 "/>
<path clip-path="url(#clip220)" d="M106.228 2137.86 Q102.617 2137.86 100.788 2141.42 Q98.9825 2144.96 98.9825 2152.09 Q98.9825 2159.2 100.788 2162.76 Q102.617 2166.31 106.228 2166.31 Q109.862 2166.31 111.668 2162.76 Q113.496 2159.2 113.496 2152.09 Q113.496 2144.96 111.668 2141.42 Q109.862 2137.86 106.228 2137.86 M106.228 2134.15 Q112.038 2134.15 115.094 2138.76 Q118.172 2143.34 118.172 2152.09 Q118.172 2160.82 115.094 2165.43 Q112.038 2170.01 106.228 2170.01 Q100.418 2170.01 97.339 2165.43 Q94.2835 2160.82 94.2835 2152.09 Q94.2835 2143.34 97.339 2138.76 Q100.418 2134.15 106.228 2134.15 Z" fill="#4c4c4c" fill-rule="nonzero" fill-opacity="1" /><path clip-path="url(#clip220)" d="M126.39 2163.46 L131.274 2163.46 L131.274 2169.34 L126.39 2169.34 L126.39 2163.46 Z" fill="#4c4c4c" fill-rule="nonzero" fill-opacity="1" /><path clip-path="url(#clip220)" d="M145.487 2165.4 L161.806 2165.4 L161.806 2169.34 L139.862 2169.34 L139.862 2165.4 Q142.524 2162.65 147.107 2158.02 Q151.714 2153.37 152.894 2152.02 Q155.14 2149.5 156.019 2147.76 Q156.922 2146 156.922 2144.32 Q156.922 2141.56 154.978 2139.82 Q153.056 2138.09 149.954 2138.09 Q147.755 2138.09 145.302 2138.85 Q142.871 2139.62 140.093 2141.17 L140.093 2136.44 Q142.917 2135.31 145.371 2134.73 Q147.825 2134.15 149.862 2134.15 Q155.232 2134.15 158.427 2136.84 Q161.621 2139.52 161.621 2144.01 Q161.621 2146.14 160.811 2148.07 Q160.024 2149.96 157.917 2152.56 Q157.339 2153.23 154.237 2156.44 Q151.135 2159.64 145.487 2165.4 Z" fill="#4c4c4c" fill-rule="nonzero" fill-opacity="1" /><path clip-path="url(#clip220)" d="M104.145 1839.99 Q100.533 1839.99 98.7048 1843.55 Q96.8992 1847.1 96.8992 1854.23 Q96.8992 1861.33 98.7048 1864.9 Q100.533 1868.44 104.145 1868.44 Q107.779 1868.44 109.584 1864.9 Q111.413 1861.33 111.413 1854.23 Q111.413 1847.1 109.584 1843.55 Q107.779 1839.99 104.145 1839.99 M104.145 1836.29 Q109.955 1836.29 113.01 1840.89 Q116.089 1845.48 116.089 1854.23 Q116.089 1862.95 113.01 1867.56 Q109.955 1872.14 104.145 1872.14 Q98.3344 1872.14 95.2557 1867.56 Q92.2002 1862.95 92.2002 1854.23 Q92.2002 1845.48 95.2557 1840.89 Q98.3344 1836.29 104.145 1836.29 Z" fill="#4c4c4c" fill-rule="nonzero" fill-opacity="1" /><path clip-path="url(#clip220)" d="M124.306 1865.59 L129.191 1865.59 L129.191 1871.47 L124.306 1871.47 L124.306 1865.59 Z" fill="#4c4c4c" fill-rule="nonzero" fill-opacity="1" /><path clip-path="url(#clip220)" d="M152.223 1840.99 L140.417 1859.43 L152.223 1859.43 L152.223 1840.99 M150.996 1836.91 L156.876 1836.91 L156.876 1859.43 L161.806 1859.43 L161.806 1863.32 L156.876 1863.32 L156.876 1871.47 L152.223 1871.47 L152.223 1863.32 L136.621 1863.32 L136.621 1858.81 L150.996 1836.91 Z" fill="#4c4c4c" fill-rule="nonzero" fill-opacity="1" /><path clip-path="url(#clip220)" d="M104.469 1542.12 Q100.858 1542.12 99.0288 1545.69 Q97.2233 1549.23 97.2233 1556.36 Q97.2233 1563.47 99.0288 1567.03 Q100.858 1570.57 104.469 1570.57 Q108.103 1570.57 109.908 1567.03 Q111.737 1563.47 111.737 1556.36 Q111.737 1549.23 109.908 1545.69 Q108.103 1542.12 104.469 1542.12 M104.469 1538.42 Q110.279 1538.42 113.334 1543.03 Q116.413 1547.61 116.413 1556.36 Q116.413 1565.09 113.334 1569.69 Q110.279 1574.28 104.469 1574.28 Q98.6585 1574.28 95.5798 1569.69 Q92.5242 1565.09 92.5242 1556.36 Q92.5242 1547.61 95.5798 1543.03 Q98.6585 1538.42 104.469 1538.42 Z" fill="#4c4c4c" fill-rule="nonzero" fill-opacity="1" /><path clip-path="url(#clip220)" d="M124.631 1567.72 L129.515 1567.72 L129.515 1573.6 L124.631 1573.6 L124.631 1567.72 Z" fill="#4c4c4c" fill-rule="nonzero" fill-opacity="1" /><path clip-path="url(#clip220)" d="M150.279 1554.46 Q147.13 1554.46 145.279 1556.61 Q143.45 1558.77 143.45 1562.52 Q143.45 1566.24 145.279 1568.42 Q147.13 1570.57 150.279 1570.57 Q153.427 1570.57 155.255 1568.42 Q157.107 1566.24 157.107 1562.52 Q157.107 1558.77 155.255 1556.61 Q153.427 1554.46 150.279 1554.46 M159.561 1539.81 L159.561 1544.07 Q157.802 1543.23 155.996 1542.79 Q154.214 1542.35 152.454 1542.35 Q147.825 1542.35 145.371 1545.48 Q142.941 1548.6 142.593 1554.92 Q143.959 1552.91 146.019 1551.85 Q148.079 1550.76 150.556 1550.76 Q155.765 1550.76 158.774 1553.93 Q161.806 1557.08 161.806 1562.52 Q161.806 1567.84 158.658 1571.06 Q155.51 1574.28 150.279 1574.28 Q144.283 1574.28 141.112 1569.69 Q137.941 1565.09 137.941 1556.36 Q137.941 1548.16 141.83 1543.3 Q145.718 1538.42 152.269 1538.42 Q154.029 1538.42 155.811 1538.77 Q157.616 1539.11 159.561 1539.81 Z" fill="#4c4c4c" fill-rule="nonzero" fill-opacity="1" /><path clip-path="url(#clip220)" d="M104.723 1244.26 Q101.112 1244.26 99.2835 1247.82 Q97.4779 1251.36 97.4779 1258.49 Q97.4779 1265.6 99.2835 1269.16 Q101.112 1272.71 104.723 1272.71 Q108.357 1272.71 110.163 1269.16 Q111.992 1265.6 111.992 1258.49 Q111.992 1251.36 110.163 1247.82 Q108.357 1244.26 104.723 1244.26 M104.723 1240.55 Q110.533 1240.55 113.589 1245.16 Q116.668 1249.74 116.668 1258.49 Q116.668 1267.22 113.589 1271.83 Q110.533 1276.41 104.723 1276.41 Q98.9131 1276.41 95.8344 1271.83 Q92.7789 1267.22 92.7789 1258.49 Q92.7789 1249.74 95.8344 1245.16 Q98.9131 1240.55 104.723 1240.55 Z" fill="#4c4c4c" fill-rule="nonzero" fill-opacity="1" /><path clip-path="url(#clip220)" d="M124.885 1269.86 L129.769 1269.86 L129.769 1275.74 L124.885 1275.74 L124.885 1269.86 Z" fill="#4c4c4c" fill-rule="nonzero" fill-opacity="1" /><path clip-path="url(#clip220)" d="M149.954 1259.33 Q146.621 1259.33 144.7 1261.11 Q142.802 1262.89 142.802 1266.02 Q142.802 1269.14 144.7 1270.92 Q146.621 1272.71 149.954 1272.71 Q153.288 1272.71 155.209 1270.92 Q157.13 1269.12 157.13 1266.02 Q157.13 1262.89 155.209 1261.11 Q153.311 1259.33 149.954 1259.33 M145.279 1257.33 Q142.269 1256.59 140.58 1254.53 Q138.913 1252.47 138.913 1249.51 Q138.913 1245.37 141.853 1242.96 Q144.816 1240.55 149.954 1240.55 Q155.116 1240.55 158.056 1242.96 Q160.996 1245.37 160.996 1249.51 Q160.996 1252.47 159.306 1254.53 Q157.64 1256.59 154.654 1257.33 Q158.033 1258.12 159.908 1260.41 Q161.806 1262.71 161.806 1266.02 Q161.806 1271.04 158.728 1273.72 Q155.672 1276.41 149.954 1276.41 Q144.237 1276.41 141.158 1273.72 Q138.103 1271.04 138.103 1266.02 Q138.103 1262.71 140.001 1260.41 Q141.899 1258.12 145.279 1257.33 M143.566 1249.95 Q143.566 1252.64 145.232 1254.14 Q146.922 1255.65 149.954 1255.65 Q152.964 1255.65 154.654 1254.14 Q156.366 1252.64 156.366 1249.95 Q156.366 1247.27 154.654 1245.76 Q152.964 1244.26 149.954 1244.26 Q146.922 1244.26 145.232 1245.76 Q143.566 1247.27 143.566 1249.95 Z" fill="#4c4c4c" fill-rule="nonzero" fill-opacity="1" /><path clip-path="url(#clip220)" d="M95.4409 973.935 L103.08 973.935 L103.08 947.57 L94.7696 949.237 L94.7696 944.977 L103.033 943.311 L107.709 943.311 L107.709 973.935 L115.348 973.935 L115.348 977.871 L95.4409 977.871 L95.4409 973.935 Z" fill="#4c4c4c" fill-rule="nonzero" fill-opacity="1" /><path clip-path="url(#clip220)" d="M124.793 971.991 L129.677 971.991 L129.677 977.871 L124.793 977.871 L124.793 971.991 Z" fill="#4c4c4c" fill-rule="nonzero" fill-opacity="1" /><path clip-path="url(#clip220)" d="M149.862 946.389 Q146.251 946.389 144.422 949.954 Q142.617 953.496 142.617 960.625 Q142.617 967.732 144.422 971.297 Q146.251 974.838 149.862 974.838 Q153.496 974.838 155.302 971.297 Q157.13 967.732 157.13 960.625 Q157.13 953.496 155.302 949.954 Q153.496 946.389 149.862 946.389 M149.862 942.686 Q155.672 942.686 158.728 947.292 Q161.806 951.875 161.806 960.625 Q161.806 969.352 158.728 973.959 Q155.672 978.542 149.862 978.542 Q144.052 978.542 140.973 973.959 Q137.918 969.352 137.918 960.625 Q137.918 951.875 140.973 947.292 Q144.052 942.686 149.862 942.686 Z" fill="#4c4c4c" fill-rule="nonzero" fill-opacity="1" /><path clip-path="url(#clip220)" d="M97.0381 676.069 L104.677 676.069 L104.677 649.703 L96.3668 651.37 L96.3668 647.11 L104.631 645.444 L109.307 645.444 L109.307 676.069 L116.945 676.069 L116.945 680.004 L97.0381 680.004 L97.0381 676.069 Z" fill="#4c4c4c" fill-rule="nonzero" fill-opacity="1" /><path clip-path="url(#clip220)" d="M126.39 674.124 L131.274 674.124 L131.274 680.004 L126.39 680.004 L126.39 674.124 Z" fill="#4c4c4c" fill-rule="nonzero" fill-opacity="1" /><path clip-path="url(#clip220)" d="M145.487 676.069 L161.806 676.069 L161.806 680.004 L139.862 680.004 L139.862 676.069 Q142.524 673.314 147.107 668.684 Q151.714 664.032 152.894 662.689 Q155.14 660.166 156.019 658.43 Q156.922 656.671 156.922 654.981 Q156.922 652.226 154.978 650.49 Q153.056 648.754 149.954 648.754 Q147.755 648.754 145.302 649.518 Q142.871 650.282 140.093 651.833 L140.093 647.11 Q142.917 645.976 145.371 645.397 Q147.825 644.819 149.862 644.819 Q155.232 644.819 158.427 647.504 Q161.621 650.189 161.621 654.68 Q161.621 656.809 160.811 658.731 Q160.024 660.629 157.917 663.221 Q157.339 663.893 154.237 667.11 Q151.135 670.305 145.487 676.069 Z" fill="#4c4c4c" fill-rule="nonzero" fill-opacity="1" /><path clip-path="url(#clip220)" d="M94.9548 378.202 L102.594 378.202 L102.594 351.836 L94.2835 353.503 L94.2835 349.244 L102.547 347.577 L107.223 347.577 L107.223 378.202 L114.862 378.202 L114.862 382.137 L94.9548 382.137 L94.9548 378.202 Z" fill="#4c4c4c" fill-rule="nonzero" fill-opacity="1" /><path clip-path="url(#clip220)" d="M124.306 376.257 L129.191 376.257 L129.191 382.137 L124.306 382.137 L124.306 376.257 Z" fill="#4c4c4c" fill-rule="nonzero" fill-opacity="1" /><path clip-path="url(#clip220)" d="M152.223 351.651 L140.417 370.1 L152.223 370.1 L152.223 351.651 M150.996 347.577 L156.876 347.577 L156.876 370.1 L161.806 370.1 L161.806 373.989 L156.876 373.989 L156.876 382.137 L152.223 382.137 L152.223 373.989 L136.621 373.989 L136.621 369.475 L150.996 347.577 Z" fill="#4c4c4c" fill-rule="nonzero" fill-opacity="1" /><path clip-path="url(#clip220)" d="M48.597 1321.32 L67.5031 1321.32 L67.5031 1327.21 L18.2962 1327.21 L18.2962 1321.32 L23.7071 1321.32 Q20.5242 1319.47 18.9964 1316.67 Q17.4368 1313.84 17.4368 1309.93 Q17.4368 1303.43 22.5931 1299.39 Q27.7493 1295.32 36.152 1295.32 Q44.5547 1295.32 49.711 1299.39 Q54.8672 1303.43 54.8672 1309.93 Q54.8672 1313.84 53.3394 1316.67 Q51.7798 1319.47 48.597 1321.32 M36.152 1301.4 Q29.6908 1301.4 26.0305 1304.07 Q22.3384 1306.71 22.3384 1311.36 Q22.3384 1316 26.0305 1318.68 Q29.6908 1321.32 36.152 1321.32 Q42.6132 1321.32 46.3053 1318.68 Q49.9656 1316 49.9656 1311.36 Q49.9656 1306.71 46.3053 1304.07 Q42.6132 1301.4 36.152 1301.4 Z" fill="#000000" fill-rule="nonzero" fill-opacity="1" /><path clip-path="url(#clip220)" d="M22.4021 1271.79 Q22.4021 1276.51 26.0942 1279.24 Q29.7545 1281.98 36.152 1281.98 Q42.5495 1281.98 46.2417 1279.27 Q49.9019 1276.54 49.9019 1271.79 Q49.9019 1267.12 46.2098 1264.38 Q42.5177 1261.64 36.152 1261.64 Q29.8181 1261.64 26.126 1264.38 Q22.4021 1267.12 22.4021 1271.79 M17.4368 1271.79 Q17.4368 1264.16 22.4021 1259.8 Q27.3673 1255.43 36.152 1255.43 Q44.9049 1255.43 49.9019 1259.8 Q54.8672 1264.16 54.8672 1271.79 Q54.8672 1279.47 49.9019 1283.83 Q44.9049 1288.15 36.152 1288.15 Q27.3673 1288.15 22.4021 1283.83 Q17.4368 1279.47 17.4368 1271.79 Z" fill="#000000" fill-rule="nonzero" fill-opacity="1" /><path clip-path="url(#clip220)" d="M48.597 1240.06 L67.5031 1240.06 L67.5031 1245.95 L18.2962 1245.95 L18.2962 1240.06 L23.7071 1240.06 Q20.5242 1238.22 18.9964 1235.41 Q17.4368 1232.58 17.4368 1228.67 Q17.4368 1222.17 22.5931 1218.13 Q27.7493 1214.06 36.152 1214.06 Q44.5547 1214.06 49.711 1218.13 Q54.8672 1222.17 54.8672 1228.67 Q54.8672 1232.58 53.3394 1235.41 Q51.7798 1238.22 48.597 1240.06 M36.152 1220.14 Q29.6908 1220.14 26.0305 1222.81 Q22.3384 1225.45 22.3384 1230.1 Q22.3384 1234.75 26.0305 1237.42 Q29.6908 1240.06 36.152 1240.06 Q42.6132 1240.06 46.3053 1237.42 Q49.9656 1234.75 49.9656 1230.1 Q49.9656 1225.45 46.3053 1222.81 Q42.6132 1220.14 36.152 1220.14 Z" fill="#000000" fill-rule="nonzero" fill-opacity="1" /><path clip-path="url(#clip220)" d="M39.8759 1204.95 L18.2962 1204.95 L18.2962 1199.1 L39.6531 1199.1 Q44.7139 1199.1 47.2602 1197.12 Q49.7746 1195.15 49.7746 1191.2 Q49.7746 1186.46 46.7509 1183.72 Q43.7272 1180.96 38.5073 1180.96 L18.2962 1180.96 L18.2962 1175.1 L53.9442 1175.1 L53.9442 1180.96 L48.4696 1180.96 Q51.7162 1183.09 53.3076 1185.92 Q54.8672 1188.72 54.8672 1192.45 Q54.8672 1198.59 51.0478 1201.77 Q47.2283 1204.95 39.8759 1204.95 M17.4368 1190.22 L17.4368 1190.22 Z" fill="#000000" fill-rule="nonzero" fill-opacity="1" /><path clip-path="url(#clip220)" d="M4.41896 1163.04 L4.41896 1157.18 L53.9442 1157.18 L53.9442 1163.04 L4.41896 1163.04 Z" fill="#000000" fill-rule="nonzero" fill-opacity="1" /><path clip-path="url(#clip220)" d="M36.0247 1128.73 Q36.0247 1135.82 37.6479 1138.56 Q39.2712 1141.3 43.1861 1141.3 Q46.3053 1141.3 48.1514 1139.26 Q49.9656 1137.19 49.9656 1133.66 Q49.9656 1128.79 46.5281 1125.86 Q43.0588 1122.9 37.3297 1122.9 L36.0247 1122.9 L36.0247 1128.73 M33.6057 1117.04 L53.9442 1117.04 L53.9442 1122.9 L48.5333 1122.9 Q51.7798 1124.91 53.3394 1127.9 Q54.8672 1130.89 54.8672 1135.22 Q54.8672 1140.69 51.8116 1143.94 Q48.7243 1147.15 43.5681 1147.15 Q37.5525 1147.15 34.4969 1143.14 Q31.4414 1139.1 31.4414 1131.11 L31.4414 1122.9 L30.8685 1122.9 Q26.8262 1122.9 24.6301 1125.57 Q22.4021 1128.22 22.4021 1133.02 Q22.4021 1136.08 23.1341 1138.97 Q23.8662 1141.87 25.3303 1144.54 L19.9195 1144.54 Q18.6781 1141.33 18.0734 1138.31 Q17.4368 1135.28 17.4368 1132.42 Q17.4368 1124.68 21.4472 1120.86 Q25.4576 1117.04 33.6057 1117.04 Z" fill="#000000" fill-rule="nonzero" fill-opacity="1" /><path clip-path="url(#clip220)" d="M19.6648 1079.33 L25.1393 1079.33 Q23.7707 1081.81 23.1023 1084.32 Q22.4021 1086.81 22.4021 1089.35 Q22.4021 1095.05 26.0305 1098.2 Q29.6272 1101.35 36.152 1101.35 Q42.6769 1101.35 46.3053 1098.2 Q49.9019 1095.05 49.9019 1089.35 Q49.9019 1086.81 49.2335 1084.32 Q48.5333 1081.81 47.1647 1079.33 L52.5755 1079.33 Q53.7214 1081.78 54.2943 1084.42 Q54.8672 1087.03 54.8672 1089.99 Q54.8672 1098.04 49.8064 1102.78 Q44.7457 1107.53 36.152 1107.53 Q27.431 1107.53 22.4339 1102.75 Q17.4368 1097.95 17.4368 1089.61 Q17.4368 1086.9 18.0097 1084.32 Q18.5508 1081.75 19.6648 1079.33 M53.9442 1087.6 Q55.9175 1085.85 57.5726 1084.99 Q59.2595 1084.13 60.7873 1084.13 Q63.62 1084.13 65.0523 1086.04 Q66.5164 1087.95 66.5164 1091.71 Q66.5164 1093.17 66.3255 1094.57 Q66.1345 1095.94 65.7525 1097.31 L61.583 1097.31 Q62.1241 1096.23 62.3469 1095.05 Q62.6015 1093.87 62.6015 1092.38 Q62.6015 1090.5 61.8376 1089.54 Q61.0737 1088.59 59.6096 1088.59 Q58.6548 1088.59 57.2543 1089.29 Q55.8857 1089.96 53.9442 1091.39 L53.9442 1087.6 Z" fill="#000000" fill-rule="nonzero" fill-opacity="1" /><path clip-path="url(#clip220)" d="M36.0247 1052.94 Q36.0247 1060.04 37.6479 1062.78 Q39.2712 1065.51 43.1861 1065.51 Q46.3053 1065.51 48.1514 1063.48 Q49.9656 1061.41 49.9656 1057.87 Q49.9656 1053.01 46.5281 1050.08 Q43.0588 1047.12 37.3297 1047.12 L36.0247 1047.12 L36.0247 1052.94 M33.6057 1041.26 L53.9442 1041.26 L53.9442 1047.12 L48.5333 1047.12 Q51.7798 1049.12 53.3394 1052.11 Q54.8672 1055.11 54.8672 1059.43 Q54.8672 1064.91 51.8116 1068.16 Q48.7243 1071.37 43.5681 1071.37 Q37.5525 1071.37 34.4969 1067.36 Q31.4414 1063.32 31.4414 1055.33 L31.4414 1047.12 L30.8685 1047.12 Q26.8262 1047.12 24.6301 1049.79 Q22.4021 1052.43 22.4021 1057.24 Q22.4021 1060.29 23.1341 1063.19 Q23.8662 1066.09 25.3303 1068.76 L19.9195 1068.76 Q18.6781 1065.55 18.0734 1062.52 Q17.4368 1059.5 17.4368 1056.63 Q17.4368 1048.9 21.4472 1045.08 Q25.4576 1041.26 33.6057 1041.26 M10.3391 1056.51 L8.5885 1058.32 Q7.95193 1059.02 7.66547 1059.56 Q7.34718 1060.07 7.34718 1060.48 Q7.34718 1061.69 8.52484 1062.27 Q9.67067 1062.84 12.2806 1062.9 L12.2806 1066.88 Q7.98376 1066.82 5.66027 1065.2 Q3.30496 1063.57 3.30496 1060.68 Q3.30496 1059.47 3.75056 1058.45 Q4.19616 1057.43 5.2465 1056.25 L6.99707 1054.44 Q7.63364 1053.74 7.95193 1053.23 Q8.23838 1052.69 8.23838 1052.27 Q8.23838 1051.06 7.09256 1050.49 Q5.9149 1049.92 3.30496 1049.85 L3.30496 1045.88 Q7.60181 1045.94 9.95712 1047.56 Q12.2806 1049.19 12.2806 1052.08 Q12.2806 1053.29 11.835 1054.31 Q11.3894 1055.33 10.3391 1056.51 Z" fill="#000000" fill-rule="nonzero" fill-opacity="1" /><path clip-path="url(#clip220)" d="M22.4021 1015.38 Q22.4021 1020.09 26.0942 1022.83 Q29.7545 1025.57 36.152 1025.57 Q42.5495 1025.57 46.2417 1022.86 Q49.9019 1020.13 49.9019 1015.38 Q49.9019 1010.71 46.2098 1007.97 Q42.5177 1005.23 36.152 1005.23 Q29.8181 1005.23 26.126 1007.97 Q22.4021 1010.71 22.4021 1015.38 M17.4368 1015.38 Q17.4368 1007.74 22.4021 1003.38 Q27.3673 999.024 36.152 999.024 Q44.9049 999.024 49.9019 1003.38 Q54.8672 1007.74 54.8672 1015.38 Q54.8672 1023.05 49.9019 1027.42 Q44.9049 1031.74 36.152 1031.74 Q27.3673 1031.74 22.4021 1027.42 Q17.4368 1023.05 17.4368 1015.38 Z" fill="#000000" fill-rule="nonzero" fill-opacity="1" /><path clip-path="url(#clip220)" d="M972.365 23.3193 L979.136 23.3193 L991.288 55.958 L1003.44 23.3193 L1010.21 23.3193 L995.629 62.208 L986.948 62.208 L972.365 23.3193 Z" fill="#000000" fill-rule="nonzero" fill-opacity="1" /><path clip-path="url(#clip220)" d="M1036.7 42.6595 Q1028.96 42.6595 1025.98 44.4303 Q1022.99 46.2011 1022.99 50.472 Q1022.99 53.8747 1025.21 55.8886 Q1027.47 57.8677 1031.32 57.8677 Q1036.64 57.8677 1039.83 54.1178 Q1043.06 50.3331 1043.06 44.0831 L1043.06 42.6595 L1036.7 42.6595 M1049.45 40.0206 L1049.45 62.208 L1043.06 62.208 L1043.06 56.3053 Q1040.87 59.8469 1037.61 61.5483 Q1034.34 63.2149 1029.62 63.2149 Q1023.65 63.2149 1020.11 59.8816 Q1016.6 56.5136 1016.6 50.8886 Q1016.6 44.3262 1020.98 40.9928 Q1025.39 37.6595 1034.1 37.6595 L1043.06 37.6595 L1043.06 37.0345 Q1043.06 32.6248 1040.14 30.229 Q1037.26 27.7985 1032.02 27.7985 Q1028.68 27.7985 1025.52 28.5971 Q1022.36 29.3957 1019.45 30.9929 L1019.45 25.0901 Q1022.95 23.736 1026.25 23.0763 Q1029.55 22.3818 1032.68 22.3818 Q1041.11 22.3818 1045.28 26.7568 Q1049.45 31.1318 1049.45 40.0206 Z" fill="#000000" fill-rule="nonzero" fill-opacity="1" /><path clip-path="url(#clip220)" d="M1062.61 8.18051 L1069 8.18051 L1069 62.208 L1062.61 62.208 L1062.61 8.18051 Z" fill="#000000" fill-rule="nonzero" fill-opacity="1" /><path clip-path="url(#clip220)" d="M1097.43 27.7985 Q1092.29 27.7985 1089.31 31.8262 Q1086.32 35.8193 1086.32 42.7984 Q1086.32 49.7775 1089.27 53.8053 Q1092.26 57.7983 1097.43 57.7983 Q1102.54 57.7983 1105.52 53.7705 Q1108.51 49.7428 1108.51 42.7984 Q1108.51 35.8887 1105.52 31.8609 Q1102.54 27.7985 1097.43 27.7985 M1097.43 22.3818 Q1105.77 22.3818 1110.52 27.7985 Q1115.28 33.2151 1115.28 42.7984 Q1115.28 52.3469 1110.52 57.7983 Q1105.77 63.2149 1097.43 63.2149 Q1089.07 63.2149 1084.31 57.7983 Q1079.59 52.3469 1079.59 42.7984 Q1079.59 33.2151 1084.31 27.7985 Q1089.07 22.3818 1097.43 22.3818 Z" fill="#000000" fill-rule="nonzero" fill-opacity="1" /><path clip-path="url(#clip220)" d="M1148.41 29.2915 Q1147.33 28.6665 1146.04 28.3887 Q1144.79 28.0762 1143.27 28.0762 Q1137.85 28.0762 1134.93 31.6179 Q1132.05 35.1248 1132.05 41.722 L1132.05 62.208 L1125.63 62.208 L1125.63 23.3193 L1132.05 23.3193 L1132.05 29.361 Q1134.07 25.8193 1137.29 24.1179 Q1140.52 22.3818 1145.14 22.3818 Q1145.8 22.3818 1146.6 22.486 Q1147.4 22.5554 1148.37 22.729 L1148.41 29.2915 Z" fill="#000000" fill-rule="nonzero" fill-opacity="1" /><path clip-path="url(#clip220)" d="M1210.97 41.1664 L1210.97 44.2914 L1181.6 44.2914 Q1182.02 50.8886 1185.56 54.3608 Q1189.13 57.7983 1195.49 57.7983 Q1199.17 57.7983 1202.61 56.8955 Q1206.08 55.9928 1209.48 54.1872 L1209.48 60.2288 Q1206.04 61.6872 1202.43 62.4511 Q1198.82 63.2149 1195.11 63.2149 Q1185.8 63.2149 1180.35 57.7983 Q1174.93 52.3817 1174.93 43.1456 Q1174.93 33.597 1180.07 28.0068 Q1185.25 22.3818 1194 22.3818 Q1201.84 22.3818 1206.39 27.4512 Q1210.97 32.4859 1210.97 41.1664 M1204.59 39.2915 Q1204.52 34.0484 1201.63 30.9234 Q1198.79 27.7985 1194.07 27.7985 Q1188.72 27.7985 1185.49 30.8193 Q1182.29 33.8401 1181.81 39.3262 L1204.59 39.2915 Z" fill="#000000" fill-rule="nonzero" fill-opacity="1" /><path clip-path="url(#clip220)" d="M1246.25 24.4651 L1246.25 30.5068 Q1243.54 29.1179 1240.63 28.4235 Q1237.71 27.729 1234.59 27.729 Q1229.83 27.729 1227.43 29.1873 Q1225.07 30.6457 1225.07 33.5623 Q1225.07 35.7845 1226.77 37.0692 Q1228.47 38.3192 1233.61 39.4651 L1235.8 39.9512 Q1242.61 41.4095 1245.45 44.0831 Q1248.34 46.722 1248.34 51.4789 Q1248.34 56.8955 1244.03 60.0552 Q1239.76 63.2149 1232.26 63.2149 Q1229.13 63.2149 1225.73 62.5899 Q1222.36 61.9997 1218.61 60.7844 L1218.61 54.1872 Q1222.16 56.0275 1225.59 56.965 Q1229.03 57.8677 1232.4 57.8677 Q1236.91 57.8677 1239.34 56.34 Q1241.77 54.7775 1241.77 51.965 Q1241.77 49.3608 1240 47.972 Q1238.27 46.5831 1232.33 45.2984 L1230.11 44.7775 Q1224.17 43.5275 1221.53 40.9581 Q1218.89 38.354 1218.89 33.8401 Q1218.89 28.354 1222.78 25.3679 Q1226.67 22.3818 1233.82 22.3818 Q1237.36 22.3818 1240.49 22.9027 Q1243.61 23.4235 1246.25 24.4651 Z" fill="#000000" fill-rule="nonzero" fill-opacity="1" /><path clip-path="url(#clip220)" d="M1264.69 56.3747 L1264.69 76.9996 L1258.27 76.9996 L1258.27 23.3193 L1264.69 23.3193 L1264.69 29.2221 Q1266.7 25.7499 1269.76 24.0832 Q1272.85 22.3818 1277.12 22.3818 Q1284.2 22.3818 1288.61 28.0068 Q1293.06 33.6318 1293.06 42.7984 Q1293.06 51.965 1288.61 57.59 Q1284.2 63.2149 1277.12 63.2149 Q1272.85 63.2149 1269.76 61.5483 Q1266.7 59.8469 1264.69 56.3747 M1286.43 42.7984 Q1286.43 35.7498 1283.51 31.7568 Q1280.63 27.729 1275.56 27.729 Q1270.49 27.729 1267.57 31.7568 Q1264.69 35.7498 1264.69 42.7984 Q1264.69 49.847 1267.57 53.8747 Q1270.49 57.8677 1275.56 57.8677 Q1280.63 57.8677 1283.51 53.8747 Q1286.43 49.847 1286.43 42.7984 Z" fill="#000000" fill-rule="nonzero" fill-opacity="1" /><path clip-path="url(#clip220)" d="M1336.91 41.1664 L1336.91 44.2914 L1307.54 44.2914 Q1307.95 50.8886 1311.49 54.3608 Q1315.07 57.7983 1321.43 57.7983 Q1325.11 57.7983 1328.54 56.8955 Q1332.02 55.9928 1335.42 54.1872 L1335.42 60.2288 Q1331.98 61.6872 1328.37 62.4511 Q1324.76 63.2149 1321.04 63.2149 Q1311.74 63.2149 1306.29 57.7983 Q1300.87 52.3817 1300.87 43.1456 Q1300.87 33.597 1306.01 28.0068 Q1311.18 22.3818 1319.93 22.3818 Q1327.78 22.3818 1332.33 27.4512 Q1336.91 32.4859 1336.91 41.1664 M1330.52 39.2915 Q1330.45 34.0484 1327.57 30.9234 Q1324.72 27.7985 1320 27.7985 Q1314.65 27.7985 1311.43 30.8193 Q1308.23 33.8401 1307.74 39.3262 L1330.52 39.2915 Z" fill="#000000" fill-rule="nonzero" fill-opacity="1" /><path clip-path="url(#clip220)" d="M1369.93 29.2915 Q1368.86 28.6665 1367.57 28.3887 Q1366.32 28.0762 1364.79 28.0762 Q1359.38 28.0762 1356.46 31.6179 Q1353.58 35.1248 1353.58 41.722 L1353.58 62.208 L1347.15 62.208 L1347.15 23.3193 L1353.58 23.3193 L1353.58 29.361 Q1355.59 25.8193 1358.82 24.1179 Q1362.05 22.3818 1366.67 22.3818 Q1367.33 22.3818 1368.13 22.486 Q1368.93 22.5554 1369.9 22.729 L1369.93 29.2915 Z" fill="#000000" fill-rule="nonzero" fill-opacity="1" /><path clip-path="url(#clip220)" d="M1394.31 42.6595 Q1386.56 42.6595 1383.58 44.4303 Q1380.59 46.2011 1380.59 50.472 Q1380.59 53.8747 1382.81 55.8886 Q1385.07 57.8677 1388.93 57.8677 Q1394.24 57.8677 1397.43 54.1178 Q1400.66 50.3331 1400.66 44.0831 L1400.66 42.6595 L1394.31 42.6595 M1407.05 40.0206 L1407.05 62.208 L1400.66 62.208 L1400.66 56.3053 Q1398.47 59.8469 1395.21 61.5483 Q1391.95 63.2149 1387.22 63.2149 Q1381.25 63.2149 1377.71 59.8816 Q1374.2 56.5136 1374.2 50.8886 Q1374.2 44.3262 1378.58 40.9928 Q1382.99 37.6595 1391.7 37.6595 L1400.66 37.6595 L1400.66 37.0345 Q1400.66 32.6248 1397.74 30.229 Q1394.86 27.7985 1389.62 27.7985 Q1386.29 27.7985 1383.13 28.5971 Q1379.97 29.3957 1377.05 30.9929 L1377.05 25.0901 Q1380.56 23.736 1383.86 23.0763 Q1387.15 22.3818 1390.28 22.3818 Q1398.72 22.3818 1402.88 26.7568 Q1407.05 31.1318 1407.05 40.0206 Z" fill="#000000" fill-rule="nonzero" fill-opacity="1" /><path clip-path="url(#clip220)" d="M1445.8 29.2221 L1445.8 8.18051 L1452.19 8.18051 L1452.19 62.208 L1445.8 62.208 L1445.8 56.3747 Q1443.79 59.8469 1440.7 61.5483 Q1437.64 63.2149 1433.33 63.2149 Q1426.29 63.2149 1421.84 57.59 Q1417.43 51.965 1417.43 42.7984 Q1417.43 33.6318 1421.84 28.0068 Q1426.29 22.3818 1433.33 22.3818 Q1437.64 22.3818 1440.7 24.0832 Q1443.79 25.7499 1445.8 29.2221 M1424.03 42.7984 Q1424.03 49.847 1426.91 53.8747 Q1429.83 57.8677 1434.9 57.8677 Q1439.97 57.8677 1442.88 53.8747 Q1445.8 49.847 1445.8 42.7984 Q1445.8 35.7498 1442.88 31.7568 Q1439.97 27.729 1434.9 27.729 Q1429.83 27.729 1426.91 31.7568 Q1424.03 35.7498 1424.03 42.7984 Z" fill="#000000" fill-rule="nonzero" fill-opacity="1" /><path clip-path="url(#clip220)" d="M1480.42 27.7985 Q1475.28 27.7985 1472.29 31.8262 Q1469.31 35.8193 1469.31 42.7984 Q1469.31 49.7775 1472.26 53.8053 Q1475.24 57.7983 1480.42 57.7983 Q1485.52 57.7983 1488.51 53.7705 Q1491.49 49.7428 1491.49 42.7984 Q1491.49 35.8887 1488.51 31.8609 Q1485.52 27.7985 1480.42 27.7985 M1480.42 22.3818 Q1488.75 22.3818 1493.51 27.7985 Q1498.26 33.2151 1498.26 42.7984 Q1498.26 52.3469 1493.51 57.7983 Q1488.75 63.2149 1480.42 63.2149 Q1472.05 63.2149 1467.29 57.7983 Q1462.57 52.3469 1462.57 42.7984 Q1462.57 33.2151 1467.29 27.7985 Q1472.05 22.3818 1480.42 22.3818 Z" fill="#000000" fill-rule="nonzero" fill-opacity="1" /><path clip-path="url(#clip220)" d="M1564.72 41.1664 L1564.72 44.2914 L1535.35 44.2914 Q1535.76 50.8886 1539.31 54.3608 Q1542.88 57.7983 1549.24 57.7983 Q1552.92 57.7983 1556.35 56.8955 Q1559.83 55.9928 1563.23 54.1872 L1563.23 60.2288 Q1559.79 61.6872 1556.18 62.4511 Q1552.57 63.2149 1548.85 63.2149 Q1539.55 63.2149 1534.1 57.7983 Q1528.68 52.3817 1528.68 43.1456 Q1528.68 33.597 1533.82 28.0068 Q1538.99 22.3818 1547.74 22.3818 Q1555.59 22.3818 1560.14 27.4512 Q1564.72 32.4859 1564.72 41.1664 M1558.33 39.2915 Q1558.26 34.0484 1555.38 30.9234 Q1552.54 27.7985 1547.81 27.7985 Q1542.47 27.7985 1539.24 30.8193 Q1536.04 33.8401 1535.56 39.3262 L1558.33 39.2915 Z" fill="#000000" fill-rule="nonzero" fill-opacity="1" /><path clip-path="url(#clip220)" d="M1597.81 23.3193 L1604.2 23.3193 L1604.2 62.208 L1597.81 62.208 L1597.81 23.3193 M1597.81 8.18051 L1604.2 8.18051 L1604.2 16.2707 L1597.81 16.2707 L1597.81 8.18051 Z" fill="#000000" fill-rule="nonzero" fill-opacity="1" /><path clip-path="url(#clip220)" d="M1649.9 38.7359 L1649.9 62.208 L1643.51 62.208 L1643.51 38.9442 Q1643.51 33.4234 1641.35 30.6804 Q1639.2 27.9374 1634.9 27.9374 Q1629.72 27.9374 1626.74 31.2359 Q1623.75 34.5345 1623.75 40.229 L1623.75 62.208 L1617.33 62.208 L1617.33 23.3193 L1623.75 23.3193 L1623.75 29.361 Q1626.04 25.854 1629.13 24.1179 Q1632.26 22.3818 1636.32 22.3818 Q1643.02 22.3818 1646.46 26.5485 Q1649.9 30.6804 1649.9 38.7359 Z" fill="#000000" fill-rule="nonzero" fill-opacity="1" /><path clip-path="url(#clip220)" d="M1668.96 12.2777 L1668.96 23.3193 L1682.12 23.3193 L1682.12 28.2846 L1668.96 28.2846 L1668.96 49.3956 Q1668.96 54.1525 1670.24 55.5066 Q1671.56 56.8608 1675.56 56.8608 L1682.12 56.8608 L1682.12 62.208 L1675.56 62.208 Q1668.16 62.208 1665.35 59.465 Q1662.53 56.6872 1662.53 49.3956 L1662.53 28.2846 L1657.85 28.2846 L1657.85 23.3193 L1662.53 23.3193 L1662.53 12.2777 L1668.96 12.2777 Z" fill="#000000" fill-rule="nonzero" fill-opacity="1" /><path clip-path="url(#clip220)" d="M1723.78 41.1664 L1723.78 44.2914 L1694.41 44.2914 Q1694.83 50.8886 1698.37 54.3608 Q1701.94 57.7983 1708.3 57.7983 Q1711.98 57.7983 1715.42 56.8955 Q1718.89 55.9928 1722.29 54.1872 L1722.29 60.2288 Q1718.85 61.6872 1715.24 62.4511 Q1711.63 63.2149 1707.92 63.2149 Q1698.61 63.2149 1693.16 57.7983 Q1687.74 52.3817 1687.74 43.1456 Q1687.74 33.597 1692.88 28.0068 Q1698.06 22.3818 1706.81 22.3818 Q1714.65 22.3818 1719.2 27.4512 Q1723.78 32.4859 1723.78 41.1664 M1717.4 39.2915 Q1717.33 34.0484 1714.44 30.9234 Q1711.6 27.7985 1706.87 27.7985 Q1701.53 27.7985 1698.3 30.8193 Q1695.1 33.8401 1694.62 39.3262 L1717.4 39.2915 Z" fill="#000000" fill-rule="nonzero" fill-opacity="1" /><path clip-path="url(#clip220)" d="M1756.81 29.2915 Q1755.73 28.6665 1754.44 28.3887 Q1753.19 28.0762 1751.67 28.0762 Q1746.25 28.0762 1743.33 31.6179 Q1740.45 35.1248 1740.45 41.722 L1740.45 62.208 L1734.03 62.208 L1734.03 23.3193 L1740.45 23.3193 L1740.45 29.361 Q1742.46 25.8193 1745.69 24.1179 Q1748.92 22.3818 1753.54 22.3818 Q1754.2 22.3818 1755 22.486 Q1755.8 22.5554 1756.77 22.729 L1756.81 29.2915 Z" fill="#000000" fill-rule="nonzero" fill-opacity="1" /><path clip-path="url(#clip220)" d="M1758.92 23.3193 L1765.69 23.3193 L1777.85 55.958 L1790 23.3193 L1796.77 23.3193 L1782.19 62.208 L1773.51 62.208 L1758.92 23.3193 Z" fill="#000000" fill-rule="nonzero" fill-opacity="1" /><path clip-path="url(#clip220)" d="M1823.26 42.6595 Q1815.52 42.6595 1812.53 44.4303 Q1809.55 46.2011 1809.55 50.472 Q1809.55 53.8747 1811.77 55.8886 Q1814.03 57.8677 1817.88 57.8677 Q1823.19 57.8677 1826.39 54.1178 Q1829.62 50.3331 1829.62 44.0831 L1829.62 42.6595 L1823.26 42.6595 M1836.01 40.0206 L1836.01 62.208 L1829.62 62.208 L1829.62 56.3053 Q1827.43 59.8469 1824.17 61.5483 Q1820.9 63.2149 1816.18 63.2149 Q1810.21 63.2149 1806.67 59.8816 Q1803.16 56.5136 1803.16 50.8886 Q1803.16 44.3262 1807.53 40.9928 Q1811.94 37.6595 1820.66 37.6595 L1829.62 37.6595 L1829.62 37.0345 Q1829.62 32.6248 1826.7 30.229 Q1823.82 27.7985 1818.58 27.7985 Q1815.24 27.7985 1812.08 28.5971 Q1808.92 29.3957 1806.01 30.9929 L1806.01 25.0901 Q1809.51 23.736 1812.81 23.0763 Q1816.11 22.3818 1819.24 22.3818 Q1827.67 22.3818 1831.84 26.7568 Q1836.01 31.1318 1836.01 40.0206 Z" fill="#000000" fill-rule="nonzero" fill-opacity="1" /><path clip-path="url(#clip220)" d="M1849.17 8.18051 L1855.55 8.18051 L1855.55 62.208 L1849.17 62.208 L1849.17 8.18051 Z" fill="#000000" fill-rule="nonzero" fill-opacity="1" /><path clip-path="url(#clip220)" d="M1883.99 27.7985 Q1878.85 27.7985 1875.87 31.8262 Q1872.88 35.8193 1872.88 42.7984 Q1872.88 49.7775 1875.83 53.8053 Q1878.82 57.7983 1883.99 57.7983 Q1889.1 57.7983 1892.08 53.7705 Q1895.07 49.7428 1895.07 42.7984 Q1895.07 35.8887 1892.08 31.8609 Q1889.1 27.7985 1883.99 27.7985 M1883.99 22.3818 Q1892.33 22.3818 1897.08 27.7985 Q1901.84 33.2151 1901.84 42.7984 Q1901.84 52.3469 1897.08 57.7983 Q1892.33 63.2149 1883.99 63.2149 Q1875.62 63.2149 1870.87 57.7983 Q1866.14 52.3469 1866.14 42.7984 Q1866.14 33.2151 1870.87 27.7985 Q1875.62 22.3818 1883.99 22.3818 Z" fill="#000000" fill-rule="nonzero" fill-opacity="1" /><path clip-path="url(#clip220)" d="M1937.22 24.4651 L1937.22 30.5068 Q1934.51 29.1179 1931.6 28.4235 Q1928.68 27.729 1925.55 27.729 Q1920.8 27.729 1918.4 29.1873 Q1916.04 30.6457 1916.04 33.5623 Q1916.04 35.7845 1917.74 37.0692 Q1919.44 38.3192 1924.58 39.4651 L1926.77 39.9512 Q1933.57 41.4095 1936.42 44.0831 Q1939.3 46.722 1939.3 51.4789 Q1939.3 56.8955 1935 60.0552 Q1930.73 63.2149 1923.23 63.2149 Q1920.1 63.2149 1916.7 62.5899 Q1913.33 61.9997 1909.58 60.7844 L1909.58 54.1872 Q1913.12 56.0275 1916.56 56.965 Q1920 57.8677 1923.37 57.8677 Q1927.88 57.8677 1930.31 56.34 Q1932.74 54.7775 1932.74 51.965 Q1932.74 49.3608 1930.97 47.972 Q1929.23 46.5831 1923.3 45.2984 L1921.08 44.7775 Q1915.14 43.5275 1912.5 40.9581 Q1909.86 38.354 1909.86 33.8401 Q1909.86 28.354 1913.75 25.3679 Q1917.64 22.3818 1924.79 22.3818 Q1928.33 22.3818 1931.46 22.9027 Q1934.58 23.4235 1937.22 24.4651 Z" fill="#000000" fill-rule="nonzero" fill-opacity="1" /><path clip-path="url(#clip220)" d="M1997.67 29.2221 L1997.67 8.18051 L2004.06 8.18051 L2004.06 62.208 L1997.67 62.208 L1997.67 56.3747 Q1995.66 59.8469 1992.57 61.5483 Q1989.51 63.2149 1985.21 63.2149 Q1978.16 63.2149 1973.71 57.59 Q1969.3 51.965 1969.3 42.7984 Q1969.3 33.6318 1973.71 28.0068 Q1978.16 22.3818 1985.21 22.3818 Q1989.51 22.3818 1992.57 24.0832 Q1995.66 25.7499 1997.67 29.2221 M1975.9 42.7984 Q1975.9 49.847 1978.78 53.8747 Q1981.7 57.8677 1986.77 57.8677 Q1991.84 57.8677 1994.76 53.8747 Q1997.67 49.847 1997.67 42.7984 Q1997.67 35.7498 1994.76 31.7568 Q1991.84 27.729 1986.77 27.729 Q1981.7 27.729 1978.78 31.7568 Q1975.9 35.7498 1975.9 42.7984 Z" fill="#000000" fill-rule="nonzero" fill-opacity="1" /><path clip-path="url(#clip220)" d="M2050.48 41.1664 L2050.48 44.2914 L2021.11 44.2914 Q2021.53 50.8886 2025.07 54.3608 Q2028.64 57.7983 2035 57.7983 Q2038.68 57.7983 2042.12 56.8955 Q2045.59 55.9928 2048.99 54.1872 L2048.99 60.2288 Q2045.55 61.6872 2041.94 62.4511 Q2038.33 63.2149 2034.62 63.2149 Q2025.31 63.2149 2019.86 57.7983 Q2014.44 52.3817 2014.44 43.1456 Q2014.44 33.597 2019.58 28.0068 Q2024.76 22.3818 2033.5 22.3818 Q2041.35 22.3818 2045.9 27.4512 Q2050.48 32.4859 2050.48 41.1664 M2044.1 39.2915 Q2044.03 34.0484 2041.14 30.9234 Q2038.3 27.7985 2033.57 27.7985 Q2028.23 27.7985 2025 30.8193 Q2021.8 33.8401 2021.32 39.3262 L2044.1 39.2915 Z" fill="#000000" fill-rule="nonzero" fill-opacity="1" /><path clip-path="url(#clip220)" d="M2111.56 24.8124 L2111.56 30.7846 Q2108.85 29.2915 2106.11 28.5623 Q2103.4 27.7985 2100.62 27.7985 Q2094.41 27.7985 2090.97 31.7568 Q2087.53 35.6804 2087.53 42.7984 Q2087.53 49.9164 2090.97 53.8747 Q2094.41 57.7983 2100.62 57.7983 Q2103.4 57.7983 2106.11 57.0691 Q2108.85 56.3053 2111.56 54.8122 L2111.56 60.715 Q2108.89 61.9649 2106 62.5899 Q2103.16 63.2149 2099.93 63.2149 Q2091.14 63.2149 2085.97 57.6941 Q2080.8 52.1733 2080.8 42.7984 Q2080.8 33.2845 2086 27.8332 Q2091.25 22.3818 2100.34 22.3818 Q2103.3 22.3818 2106.11 23.0068 Q2108.92 23.5971 2111.56 24.8124 Z" fill="#000000" fill-rule="nonzero" fill-opacity="1" /><path clip-path="url(#clip220)" d="M2137.74 27.7985 Q2132.6 27.7985 2129.62 31.8262 Q2126.63 35.8193 2126.63 42.7984 Q2126.63 49.7775 2129.58 53.8053 Q2132.57 57.7983 2137.74 57.7983 Q2142.84 57.7983 2145.83 53.7705 Q2148.82 49.7428 2148.82 42.7984 Q2148.82 35.8887 2145.83 31.8609 Q2142.84 27.7985 2137.74 27.7985 M2137.74 22.3818 Q2146.07 22.3818 2150.83 27.7985 Q2155.59 33.2151 2155.59 42.7984 Q2155.59 52.3469 2150.83 57.7983 Q2146.07 63.2149 2137.74 63.2149 Q2129.37 63.2149 2124.62 57.7983 Q2119.89 52.3469 2119.89 42.7984 Q2119.89 33.2151 2124.62 27.7985 Q2129.37 22.3818 2137.74 22.3818 Z" fill="#000000" fill-rule="nonzero" fill-opacity="1" /><path clip-path="url(#clip220)" d="M2198.5 38.7359 L2198.5 62.208 L2192.12 62.208 L2192.12 38.9442 Q2192.12 33.4234 2189.96 30.6804 Q2187.81 27.9374 2183.5 27.9374 Q2178.33 27.9374 2175.34 31.2359 Q2172.36 34.5345 2172.36 40.229 L2172.36 62.208 L2165.93 62.208 L2165.93 23.3193 L2172.36 23.3193 L2172.36 29.361 Q2174.65 25.854 2177.74 24.1179 Q2180.87 22.3818 2184.93 22.3818 Q2191.63 22.3818 2195.07 26.5485 Q2198.5 30.6804 2198.5 38.7359 Z" fill="#000000" fill-rule="nonzero" fill-opacity="1" /><path clip-path="url(#clip220)" d="M2230.93 8.18051 L2230.93 13.493 L2224.82 13.493 Q2221.39 13.493 2220.03 14.8819 Q2218.71 16.2707 2218.71 19.8818 L2218.71 23.3193 L2229.23 23.3193 L2229.23 28.2846 L2218.71 28.2846 L2218.71 62.208 L2212.29 62.208 L2212.29 28.2846 L2206.18 28.2846 L2206.18 23.3193 L2212.29 23.3193 L2212.29 20.611 Q2212.29 14.118 2215.31 11.1666 Q2218.33 8.18051 2224.89 8.18051 L2230.93 8.18051 Z" fill="#000000" fill-rule="nonzero" fill-opacity="1" /><path clip-path="url(#clip220)" d="M2236.28 23.3193 L2242.67 23.3193 L2242.67 62.208 L2236.28 62.208 L2236.28 23.3193 M2236.28 8.18051 L2242.67 8.18051 L2242.67 16.2707 L2236.28 16.2707 L2236.28 8.18051 Z" fill="#000000" fill-rule="nonzero" fill-opacity="1" /><path clip-path="url(#clip220)" d="M2273.71 42.6595 Q2265.97 42.6595 2262.98 44.4303 Q2260 46.2011 2260 50.472 Q2260 53.8747 2262.22 55.8886 Q2264.48 57.8677 2268.33 57.8677 Q2273.64 57.8677 2276.84 54.1178 Q2280.07 50.3331 2280.07 44.0831 L2280.07 42.6595 L2273.71 42.6595 M2286.45 40.0206 L2286.45 62.208 L2280.07 62.208 L2280.07 56.3053 Q2277.88 59.8469 2274.61 61.5483 Q2271.35 63.2149 2266.63 63.2149 Q2260.66 63.2149 2257.11 59.8816 Q2253.61 56.5136 2253.61 50.8886 Q2253.61 44.3262 2257.98 40.9928 Q2262.39 37.6595 2271.11 37.6595 L2280.07 37.6595 L2280.07 37.0345 Q2280.07 32.6248 2277.15 30.229 Q2274.27 27.7985 2269.02 27.7985 Q2265.69 27.7985 2262.53 28.5971 Q2259.37 29.3957 2256.46 30.9929 L2256.46 25.0901 Q2259.96 23.736 2263.26 23.0763 Q2266.56 22.3818 2269.68 22.3818 Q2278.12 22.3818 2282.29 26.7568 Q2286.45 31.1318 2286.45 40.0206 Z" fill="#000000" fill-rule="nonzero" fill-opacity="1" /><path clip-path="url(#clip220)" d="M2331.94 38.7359 L2331.94 62.208 L2325.55 62.208 L2325.55 38.9442 Q2325.55 33.4234 2323.4 30.6804 Q2321.25 27.9374 2316.94 27.9374 Q2311.77 27.9374 2308.78 31.2359 Q2305.8 34.5345 2305.8 40.229 L2305.8 62.208 L2299.37 62.208 L2299.37 23.3193 L2305.8 23.3193 L2305.8 29.361 Q2308.09 25.854 2311.18 24.1179 Q2314.3 22.3818 2318.36 22.3818 Q2325.07 22.3818 2328.5 26.5485 Q2331.94 30.6804 2331.94 38.7359 Z" fill="#000000" fill-rule="nonzero" fill-opacity="1" /><path clip-path="url(#clip220)" d="M2372.67 24.8124 L2372.67 30.7846 Q2369.96 29.2915 2367.22 28.5623 Q2364.51 27.7985 2361.73 27.7985 Q2355.52 27.7985 2352.08 31.7568 Q2348.64 35.6804 2348.64 42.7984 Q2348.64 49.9164 2352.08 53.8747 Q2355.52 57.7983 2361.73 57.7983 Q2364.51 57.7983 2367.22 57.0691 Q2369.96 56.3053 2372.67 54.8122 L2372.67 60.715 Q2370 61.9649 2367.11 62.5899 Q2364.27 63.2149 2361.04 63.2149 Q2352.25 63.2149 2347.08 57.6941 Q2341.91 52.1733 2341.91 42.7984 Q2341.91 33.2845 2347.11 27.8332 Q2352.36 22.3818 2361.45 22.3818 Q2364.41 22.3818 2367.22 23.0068 Q2370.03 23.5971 2372.67 24.8124 M2363.64 62.208 Q2365.55 64.3608 2366.49 66.1663 Q2367.43 68.0066 2367.43 69.6732 Q2367.43 72.7635 2365.34 74.326 Q2363.26 75.9232 2359.16 75.9232 Q2357.57 75.9232 2356.04 75.7149 Q2354.54 75.5065 2353.05 75.0899 L2353.05 70.5413 Q2354.23 71.1316 2355.52 71.3746 Q2356.8 71.6524 2358.43 71.6524 Q2360.48 71.6524 2361.52 70.8191 Q2362.57 69.9857 2362.57 68.3885 Q2362.57 67.3469 2361.8 65.8191 Q2361.07 64.326 2359.51 62.208 L2363.64 62.208 Z" fill="#000000" fill-rule="nonzero" fill-opacity="1" /><path clip-path="url(#clip220)" d="M2401.45 42.6595 Q2393.71 42.6595 2390.73 44.4303 Q2387.74 46.2011 2387.74 50.472 Q2387.74 53.8747 2389.96 55.8886 Q2392.22 57.8677 2396.07 57.8677 Q2401.38 57.8677 2404.58 54.1178 Q2407.81 50.3331 2407.81 44.0831 L2407.81 42.6595 L2401.45 42.6595 M2414.2 40.0206 L2414.2 62.208 L2407.81 62.208 L2407.81 56.3053 Q2405.62 59.8469 2402.36 61.5483 Q2399.09 63.2149 2394.37 63.2149 Q2388.4 63.2149 2384.86 59.8816 Q2381.35 56.5136 2381.35 50.8886 Q2381.35 44.3262 2385.73 40.9928 Q2390.13 37.6595 2398.85 37.6595 L2407.81 37.6595 L2407.81 37.0345 Q2407.81 32.6248 2404.89 30.229 Q2402.01 27.7985 2396.77 27.7985 Q2393.43 27.7985 2390.27 28.5971 Q2387.11 29.3957 2384.2 30.9929 L2384.2 25.0901 Q2387.7 23.736 2391 23.0763 Q2394.3 22.3818 2397.43 22.3818 Q2405.86 22.3818 2410.03 26.7568 Q2414.2 31.1318 2414.2 40.0206 Z" fill="#000000" fill-rule="nonzero" fill-opacity="1" /><path clip-path="url(#clip222)" d="M316.418 2145.95 L330.256 2125.63 L344.094 2104.19 L357.932 2081.56 L371.769 2057.71 L385.607 2032.65 L399.445 2006.35 L413.283 1978.83 L427.121 1950.07 L440.958 1920.08 L454.796 1888.87 L468.634 1856.67 L482.472 1823.4 L496.31 1789.03 L510.148 1753.61 L523.985 1717.19 L537.823 1679.83 L551.661 1641.62 L565.499 1602.35 L579.337 1562.28 L593.174 1521.68 L607.012 1480.65 L620.85 1439.55 L634.688 1398.01 L648.526 1356.16 L662.364 1314.25 L676.201 1272.41 L690.039 1230.76 L703.877 1189.4 L717.715 1148.53 L731.553 1108.49 L745.39 1069.15 L759.228 1030.28 L773.066 991.652 L786.904 953.806 L800.742 916.897 L814.58 881.294 L828.417 846.539 L842.255 813.033 L856.093 781.284 L869.931 750.404 L883.769 720.917 L897.606 692.642 L911.444 665.625 L925.282 640.186 L939.12 615.189 L952.958 591.401 L966.796 569.207 L980.633 547.761 L994.471 527.177 L1008.31 507.649 L1022.15 489.436 L1035.98 472.4 L1049.82 456.967 L1063.66 442.248 L1077.5 427.996 L1091.34 415.61 L1105.17 404.244 L1119.01 393.445 L1132.85 384.028 L1146.69 374.016 L1160.53 364.674 L1174.36 356.614 L1188.2 349.216 L1202.04 342.29 L1215.88 335.59 L1229.71 329.54 L1243.55 323.908 L1257.39 319.245 L1271.23 314.35 L1285.07 309.32 L1298.9 304.955 L1312.74 301.392 L1326.58 298.102 L1340.42 295.04 L1354.25 292.306 L1368.09 290.08 L1381.93 287.965 L1395.77 285.855 L1409.61 283.888 L1423.44 282.057 L1437.28 280.356 L1451.12 278.776 L1464.96 277.082 L1478.79 275.494 L1492.63 274.024 L1506.47 272.664 L1520.31 271.404 L1534.15 270.238 L1547.98 269.156 L1561.82 268.185 L1575.66 267.279 L1589.5 266.301 L1603.34 265.353 L1617.17 264.473 L1631.01 263.655 L1644.85 262.897 L1658.69 262.195 L1672.52 261.546 L1686.36 260.944 L1700.2 260.388 L1714.04 259.874 L1727.88 259.399 L1741.71 258.958 L1755.55 258.549 L1769.39 258.169 L1783.23 257.847 L1797.06 257.57 L1810.9 257.311 L1824.74 257.069 L1838.58 256.844 L1852.42 256.632 L1866.25 256.435 L1880.09 256.252 L1893.93 256.083 L1907.77 255.926 L1921.61 255.781 L1935.44 255.648 L1949.28 255.526 L1963.12 255.414 L1976.96 255.312 L1990.79 255.218 L2004.63 255.132 L2018.47 255.054 L2032.31 254.983 L2046.15 254.918 L2059.98 254.858 L2073.82 254.801 L2087.66 254.747 L2101.5 254.697 L2115.33 254.649 L2129.17 254.604 L2143.01 254.562 L2156.85 254.522 L2170.69 254.484 L2184.52 254.448 L2198.36 254.415 L2212.2 254.384 L2226.04 254.356 L2239.87 254.33 L2253.71 254.306 L2267.55 254.284 L2281.39 254.264 L2295.23 254.246 L2309.06 254.23 L2322.9 254.215 L2336.74 254.202 L2350.58 254.191 L2364.42 254.18 L2378.25 254.17 L2392.09 254.161 L2405.93 254.153 L2419.77 254.145 L2433.6 254.137 L2447.44 254.13 L2461.28 254.123 L2475.12 254.116 L2488.96 254.11 L2502.79 254.104 L2516.63 254.097 L2530.47 254.091 L2544.31 254.085 L2558.14 254.079 L2571.98 254.074 L2585.82 254.068 L2599.66 254.064 L2613.5 254.059 L2627.33 254.055 L2641.17 254.052 L2655.01 254.049 L2668.85 254.046 L2682.69 254.044 L2696.52 254.042 L2710.36 254.041 L2724.2 254.04 L2738.04 254.039 L2751.87 254.039 L2765.71 254.038 L2779.55 254.038 L2793.39 254.038 L2807.23 254.038 L2821.06 254.038 L2834.9 254.038 L2848.74 254.037 L2862.58 254.037 L2876.41 254.037 L2890.25 254.036 L2904.09 254.036 L2917.93 254.036 L2931.77 254.036 L2945.6 254.036 L2959.44 254.036 L2973.28 254.035 L2987.12 254.035 L3000.96 254.034 L3014.79 254.033 L3028.63 254.032 L3042.47 254.032 L3056.31 254.031 L3070.14 254.03 L3070.14 180.282 L3056.31 180.283 L3042.47 180.284 L3028.63 180.285 L3014.79 180.285 L3000.96 180.286 L2987.12 180.287 L2973.28 180.287 L2959.44 180.288 L2945.6 180.288 L2931.77 180.288 L2917.93 180.288 L2904.09 180.288 L2890.25 180.288 L2876.41 180.289 L2862.58 180.288 L2848.74 180.288 L2834.9 180.288 L2821.06 180.287 L2807.23 180.287 L2793.39 180.287 L2779.55 180.286 L2765.71 180.286 L2751.87 180.287 L2738.04 180.287 L2724.2 180.288 L2710.36 180.289 L2696.52 180.291 L2682.69 180.293 L2668.85 180.295 L2655.01 180.298 L2641.17 180.302 L2627.33 180.305 L2613.5 180.31 L2599.66 180.314 L2585.82 180.319 L2571.98 180.324 L2558.14 180.33 L2544.31 180.336 L2530.47 180.342 L2516.63 180.348 L2502.79 180.354 L2488.96 180.36 L2475.12 180.366 L2461.28 180.372 L2447.44 180.378 L2433.6 180.384 L2419.77 180.391 L2405.93 180.398 L2392.09 180.406 L2378.25 180.414 L2364.42 180.423 L2350.58 180.433 L2336.74 180.444 L2322.9 180.457 L2309.06 180.472 L2295.23 180.488 L2281.39 180.506 L2267.55 180.525 L2253.71 180.547 L2239.87 180.571 L2226.04 180.597 L2212.2 180.625 L2198.36 180.656 L2184.52 180.688 L2170.69 180.723 L2156.85 180.76 L2143.01 180.799 L2129.17 180.84 L2115.33 180.883 L2101.5 180.928 L2087.66 180.976 L2073.82 181.026 L2059.98 181.08 L2046.15 181.137 L2032.31 181.2 L2018.47 181.267 L2004.63 181.348 L1990.79 181.444 L1976.96 181.549 L1963.12 181.665 L1949.28 181.792 L1935.44 181.93 L1921.61 182.081 L1907.77 182.245 L1893.93 182.422 L1880.09 182.613 L1866.25 182.819 L1852.42 183.04 L1838.58 183.276 L1824.74 183.529 L1810.9 183.798 L1797.06 184.087 L1783.23 184.396 L1769.39 184.729 L1755.55 185.087 L1741.71 185.468 L1727.88 185.876 L1714.04 186.318 L1700.2 186.796 L1686.36 187.312 L1672.52 187.868 L1658.69 188.468 L1644.85 189.115 L1631.01 189.81 L1617.17 190.549 L1603.34 191.336 L1589.5 192.171 L1575.66 193.062 L1561.82 194.02 L1547.98 195.054 L1534.15 196.174 L1520.31 197.389 L1506.47 198.597 L1492.63 199.87 L1478.79 201.241 L1464.96 202.727 L1451.12 204.338 L1437.28 206.061 L1423.44 207.902 L1409.61 209.725 L1395.77 211.691 L1381.93 214.138 L1368.09 217.052 L1354.25 220.131 L1340.42 223.055 L1326.58 225.823 L1312.74 229.026 L1298.9 233.104 L1285.07 237.095 L1271.23 241.207 L1257.39 245.259 L1243.55 249.616 L1229.71 254.564 L1215.88 260.283 L1202.04 267.198 L1188.2 272.951 L1174.36 278.995 L1160.53 286.161 L1146.69 293.573 L1132.85 301.008 L1119.01 309.472 L1105.17 317.885 L1091.34 326.855 L1077.5 337.163 L1063.66 348.244 L1049.82 360.251 L1035.98 372.735 L1022.15 385.039 L1008.31 398.135 L994.471 412.632 L980.633 428.086 L966.796 444.338 L952.958 461.134 L939.12 479.096 L925.282 498.063 L911.444 518.701 L897.606 540.359 L883.769 563.087 L869.931 586.916 L856.093 611.811 L842.255 637.355 L828.417 664.057 L814.58 691.984 L800.742 721.138 L786.904 751.512 L773.066 783.674 L759.228 816.685 L745.39 850.675 L731.553 885.701 L717.715 921.659 L703.877 959.396 L690.039 998.252 L676.201 1037.28 L662.364 1077.01 L648.526 1117.42 L634.688 1158.41 L620.85 1199.62 L607.012 1240.94 L593.174 1282.54 L579.337 1324.31 L565.499 1366.32 L551.661 1408.37 L537.823 1450.2 L523.985 1491.68 L510.148 1532.71 L496.31 1573.19 L482.472 1613.02 L468.634 1652.1 L454.796 1690.34 L440.958 1727.53 L427.121 1763.57 L413.283 1798.59 L399.445 1832.56 L385.607 1865.41 L371.769 1897.13 L357.932 1927.69 L344.094 1957.07 L330.256 1985.25 L316.418 2012.23  Z" fill="#009af9" fill-rule="evenodd" fill-opacity="0.2"/>
<polyline clip-path="url(#clip222)" style="stroke:#009af9; stroke-linecap:round; stroke-linejoin:round; stroke-width:12; stroke-opacity:1; fill:none" points="316.418,2079.04 330.256,2055.2 344.094,2030.19 357.932,2003.97 371.769,1976.54 385.607,1947.89 399.445,1918.03 413.283,1886.82 427.121,1854.41 440.958,1820.83 454.796,1786.12 468.634,1750.32 482.472,1713.49 496.31,1675.69 510.148,1636.96 523.985,1597.33 537.823,1556.97 551.661,1515.97 565.499,1474.47 579.337,1433.07 593.174,1391.08 607.012,1348.79 620.85,1306.44 634.688,1264.06 648.526,1221.71 662.364,1179.64 676.201,1138.33 690.039,1097.62 703.877,1057.77 717.715,1018.17 731.553,979.343 745.39,941.828 759.228,905.458 773.066,870.052 786.904,835.155 800.742,801.641 814.58,769.489 828.417,739.178 842.255,709.545 856.093,681.091 869.931,654.367 883.769,628.702 897.606,603.839 911.444,580.395 925.282,557.092 939.12,536.255 952.958,516.028 966.796,497.321 980.633,478.84 994.471,461.254 1008.31,446.184 1022.15,431.097 1035.98,417.675 1049.82,404.778 1063.66,391.673 1077.5,380.488 1091.34,368.656 1105.17,358.113 1119.01,348.343 1132.85,339.458 1146.69,331.652 1160.53,323.644 1174.36,315.78 1188.2,308.954 1202.04,302.421 1215.88,296.904 1229.71,291.291 1243.55,285.632 1257.39,280.179 1271.23,275.65 1285.07,271.588 1298.9,267.799 1312.74,264.059 1326.58,260.841 1340.42,257.77 1354.25,254.841 1368.09,251.97 1381.93,249.412 1395.77,247.025 1409.61,244.723 1423.44,242.586 1437.28,240.646 1451.12,238.896 1464.96,237.184 1478.79,235.591 1492.63,234.277 1506.47,232.981 1520.31,231.821 1534.15,230.772 1547.98,229.789 1561.82,228.825 1575.66,227.923 1589.5,227.083 1603.34,226.342 1617.17,225.693 1631.01,225.091 1644.85,224.52 1658.69,223.916 1672.52,223.379 1686.36,222.805 1700.2,222.272 1714.04,221.778 1727.88,221.321 1741.71,220.898 1755.55,220.524 1769.39,220.193 1783.23,219.886 1797.06,219.599 1810.9,219.329 1824.74,219.076 1838.58,218.84 1852.42,218.626 1866.25,218.431 1880.09,218.25 1893.93,218.075 1907.77,217.895 1921.61,217.757 1935.44,217.636 1949.28,217.522 1963.12,217.416 1976.96,217.318 1990.79,217.228 2004.63,217.144 2018.47,217.067 2032.31,216.997 2046.15,216.931 2059.98,216.87 2073.82,216.814 2087.66,216.76 2101.5,216.71 2115.33,216.663 2129.17,216.619 2143.01,216.575 2156.85,216.531 2170.69,216.488 2184.52,216.447 2198.36,216.408 2212.2,216.372 2226.04,216.338 2239.87,216.307 2253.71,216.278 2267.55,216.252 2281.39,216.227 2295.23,216.205 2309.06,216.185 2322.9,216.167 2336.74,216.151 2350.58,216.136 2364.42,216.123 2378.25,216.111 2392.09,216.101 2405.93,216.091 2419.77,216.082 2433.6,216.073 2447.44,216.065 2461.28,216.057 2475.12,216.049 2488.96,216.041 2502.79,216.034 2516.63,216.027 2530.47,216.019 2544.31,216.012 2558.14,216.005 2571.98,215.999 2585.82,215.992 2599.66,215.986 2613.5,215.981 2627.33,215.976 2641.17,215.971 2655.01,215.967 2668.85,215.964 2682.69,215.961 2696.52,215.958 2710.36,215.956 2724.2,215.955 2738.04,215.953 2751.87,215.953 2765.71,215.952 2779.55,215.952 2793.39,215.952 2807.23,215.952 2821.06,215.953 2834.9,215.954 2848.74,215.954 2862.58,215.955 2876.41,215.955 2890.25,215.955 2904.09,215.955 2917.93,215.955 2931.77,215.955 2945.6,215.954 2959.44,215.954 2973.28,215.954 2987.12,215.953 3000.96,215.952 3014.79,215.951 3028.63,215.95 3042.47,215.949 3056.31,215.948 3070.14,215.947 "/>
<path clip-path="url(#clip222)" d="M316.418 2129.1 L330.256 2107.91 L344.094 2085.58 L357.932 2062.08 L371.769 2037.38 L385.607 2011.48 L399.445 1984.36 L413.283 1955.75 L427.121 1925.85 L440.958 1894.71 L454.796 1862.34 L468.634 1829.35 L482.472 1795.27 L496.31 1760.08 L510.148 1723.88 L523.985 1686.54 L537.823 1647.7 L551.661 1608 L565.499 1567.53 L579.337 1526.51 L593.174 1485.41 L607.012 1443.48 L620.85 1401.2 L634.688 1358.69 L648.526 1316.07 L662.364 1274.35 L676.201 1232.89 L690.039 1191.74 L703.877 1150.92 L717.715 1110.61 L731.553 1070.92 L745.39 1031.94 L759.228 993.741 L773.066 955.826 L786.904 918.856 L800.742 882.833 L814.58 847.773 L828.417 814.101 L842.255 781.524 L856.093 749.903 L869.931 720.071 L883.769 691.412 L897.606 663.504 L911.444 636.712 L925.282 610.967 L939.12 585.875 L952.958 562.932 L966.796 541.646 L980.633 521.911 L994.471 502.999 L1008.31 484.461 L1022.15 466.562 L1035.98 450.974 L1049.82 436.649 L1063.66 422.318 L1077.5 410.361 L1091.34 397.705 L1105.17 386.657 L1119.01 374.979 L1132.85 366.016 L1146.69 356.598 L1160.53 348.735 L1174.36 340.951 L1188.2 333.417 L1202.04 326.64 L1215.88 319.148 L1229.71 313.4 L1243.55 307.595 L1257.39 303.026 L1271.23 297.363 L1285.07 292.779 L1298.9 288.182 L1312.74 283.636 L1326.58 279.992 L1340.42 276.464 L1354.25 273.58 L1368.09 270.987 L1381.93 268.561 L1395.77 266.035 L1409.61 264.075 L1423.44 262.305 L1437.28 260.655 L1451.12 259.121 L1464.96 257.706 L1478.79 256.419 L1492.63 255.003 L1506.47 253.8 L1520.31 252.493 L1534.15 251.204 L1547.98 249.992 L1561.82 248.916 L1575.66 248.143 L1589.5 247.422 L1603.34 246.57 L1617.17 245.684 L1631.01 244.861 L1644.85 244.112 L1658.69 243.564 L1672.52 242.943 L1686.36 242.353 L1700.2 241.777 L1714.04 241.243 L1727.88 240.749 L1741.71 240.292 L1755.55 239.935 L1769.39 239.65 L1783.23 239.369 L1797.06 239.064 L1810.9 238.812 L1824.74 238.581 L1838.58 238.365 L1852.42 238.163 L1866.25 237.975 L1880.09 237.8 L1893.93 237.638 L1907.77 237.489 L1921.61 237.351 L1935.44 237.224 L1949.28 237.108 L1963.12 237.001 L1976.96 236.904 L1990.79 236.828 L2004.63 236.757 L2018.47 236.689 L2032.31 236.624 L2046.15 236.563 L2059.98 236.506 L2073.82 236.453 L2087.66 236.403 L2101.5 236.357 L2115.33 236.314 L2129.17 236.275 L2143.01 236.238 L2156.85 236.204 L2170.69 236.172 L2184.52 236.144 L2198.36 236.118 L2212.2 236.094 L2226.04 236.073 L2239.87 236.053 L2253.71 236.036 L2267.55 236.02 L2281.39 236.006 L2295.23 235.992 L2309.06 235.98 L2322.9 235.968 L2336.74 235.957 L2350.58 235.945 L2364.42 235.934 L2378.25 235.923 L2392.09 235.912 L2405.93 235.902 L2419.77 235.893 L2433.6 235.884 L2447.44 235.875 L2461.28 235.867 L2475.12 235.86 L2488.96 235.853 L2502.79 235.847 L2516.63 235.841 L2530.47 235.836 L2544.31 235.832 L2558.14 235.828 L2571.98 235.824 L2585.82 235.821 L2599.66 235.819 L2613.5 235.817 L2627.33 235.816 L2641.17 235.815 L2655.01 235.814 L2668.85 235.814 L2682.69 235.814 L2696.52 235.814 L2710.36 235.815 L2724.2 235.815 L2738.04 235.815 L2751.87 235.815 L2765.71 235.814 L2779.55 235.814 L2793.39 235.812 L2807.23 235.811 L2821.06 235.809 L2834.9 235.808 L2848.74 235.807 L2862.58 235.806 L2876.41 235.805 L2890.25 235.804 L2904.09 235.803 L2917.93 235.803 L2931.77 235.802 L2945.6 235.802 L2959.44 235.801 L2973.28 235.8 L2987.12 235.8 L3000.96 235.799 L3014.79 235.798 L3028.63 235.798 L3042.47 235.797 L3056.31 235.797 L3070.14 235.796 L3070.14 194.981 L3056.31 194.982 L3042.47 194.983 L3028.63 194.984 L3014.79 194.985 L3000.96 194.986 L2987.12 194.987 L2973.28 194.989 L2959.44 194.989 L2945.6 194.99 L2931.77 194.99 L2917.93 194.989 L2904.09 194.988 L2890.25 194.988 L2876.41 194.987 L2862.58 194.986 L2848.74 194.985 L2834.9 194.984 L2821.06 194.983 L2807.23 194.982 L2793.39 194.981 L2779.55 194.981 L2765.71 194.981 L2751.87 194.982 L2738.04 194.982 L2724.2 194.984 L2710.36 194.985 L2696.52 194.988 L2682.69 194.99 L2668.85 194.994 L2655.01 194.997 L2641.17 195.002 L2627.33 195.006 L2613.5 195.011 L2599.66 195.017 L2585.82 195.023 L2571.98 195.029 L2558.14 195.036 L2544.31 195.043 L2530.47 195.05 L2516.63 195.057 L2502.79 195.064 L2488.96 195.072 L2475.12 195.078 L2461.28 195.085 L2447.44 195.092 L2433.6 195.099 L2419.77 195.107 L2405.93 195.116 L2392.09 195.125 L2378.25 195.135 L2364.42 195.146 L2350.58 195.159 L2336.74 195.173 L2322.9 195.189 L2309.06 195.204 L2295.23 195.221 L2281.39 195.24 L2267.55 195.261 L2253.71 195.285 L2239.87 195.31 L2226.04 195.338 L2212.2 195.368 L2198.36 195.401 L2184.52 195.436 L2170.69 195.474 L2156.85 195.515 L2143.01 195.558 L2129.17 195.604 L2115.33 195.651 L2101.5 195.699 L2087.66 195.749 L2073.82 195.801 L2059.98 195.857 L2046.15 195.916 L2032.31 195.982 L2018.47 196.053 L2004.63 196.131 L1990.79 196.217 L1976.96 196.312 L1963.12 196.417 L1949.28 196.531 L1935.44 196.656 L1921.61 196.793 L1907.77 196.941 L1893.93 197.103 L1880.09 197.277 L1866.25 197.465 L1852.42 197.666 L1838.58 197.883 L1824.74 198.113 L1810.9 198.361 L1797.06 198.634 L1783.23 198.926 L1769.39 199.241 L1755.55 199.58 L1741.71 199.946 L1727.88 200.342 L1714.04 200.77 L1700.2 201.279 L1686.36 201.851 L1672.52 202.469 L1658.69 202.947 L1644.85 203.446 L1631.01 204.051 L1617.17 204.763 L1603.34 205.557 L1589.5 206.477 L1575.66 207.326 L1561.82 208.16 L1547.98 209.1 L1534.15 210.069 L1520.31 211.11 L1506.47 212.232 L1492.63 213.443 L1478.79 214.834 L1464.96 216.371 L1451.12 217.862 L1437.28 219.513 L1423.44 221.449 L1409.61 223.762 L1395.77 226.274 L1381.93 229.025 L1368.09 231.982 L1354.25 234.803 L1340.42 237.812 L1326.58 240.957 L1312.74 244.527 L1298.9 248.299 L1285.07 252.12 L1271.23 256.208 L1257.39 260.565 L1243.55 265.514 L1229.71 270.093 L1215.88 275.755 L1202.04 281.924 L1188.2 288.482 L1174.36 295.167 L1160.53 302.161 L1146.69 309.909 L1132.85 317.668 L1119.01 326.108 L1105.17 335.833 L1091.34 345.574 L1077.5 355.662 L1063.66 367.553 L1049.82 378.939 L1035.98 391.775 L1022.15 405.575 L1008.31 419.094 L994.471 433.468 L980.633 448.626 L966.796 464.554 L952.958 482.336 L939.12 500.715 L925.282 521.238 L911.444 542.051 L897.606 563.23 L883.769 585.742 L869.931 609.564 L856.093 634.522 L842.255 660.217 L828.417 687.562 L814.58 716.319 L800.742 746.48 L786.904 777.985 L773.066 809.612 L759.228 842.885 L745.39 877.574 L731.553 913.419 L717.715 950.048 L703.877 987.564 L690.039 1026.03 L676.201 1065.31 L662.364 1105.3 L648.526 1145.89 L634.688 1186.99 L620.85 1228.27 L607.012 1269.78 L593.174 1311.56 L579.337 1353.3 L565.499 1395.09 L551.661 1436.78 L537.823 1478.21 L523.985 1519.24 L510.148 1559.83 L496.31 1599.82 L482.472 1639.09 L468.634 1677.56 L454.796 1715.15 L440.958 1751.85 L427.121 1787.4 L413.283 1821.93 L399.445 1855.35 L385.607 1887.61 L371.769 1918.69 L357.932 1948.56 L344.094 1977.22 L330.256 2004.68 L316.418 2030.95  Z" fill="#e26f46" fill-rule="evenodd" fill-opacity="0.2"/>
<polyline clip-path="url(#clip222)" style="stroke:#e26f46; stroke-linecap:round; stroke-linejoin:round; stroke-width:12; stroke-opacity:1; fill:none" points="316.418,2079.04 330.256,2055.2 344.094,2030.19 357.932,2003.97 371.769,1976.54 385.607,1947.89 399.445,1918.03 413.283,1886.82 427.121,1854.41 440.958,1820.83 454.796,1786.12 468.634,1750.32 482.472,1713.49 496.31,1675.69 510.148,1636.96 523.985,1597.33 537.823,1556.97 551.661,1515.97 565.499,1474.47 579.337,1433.07 593.174,1391.08 607.012,1348.79 620.85,1306.44 634.688,1264.06 648.526,1221.71 662.364,1179.64 676.201,1138.33 690.039,1097.62 703.877,1057.77 717.715,1018.17 731.553,979.343 745.39,941.828 759.228,905.458 773.066,870.052 786.904,835.155 800.742,801.641 814.58,769.489 828.417,739.178 842.255,709.545 856.093,681.091 869.931,654.367 883.769,628.702 897.606,603.839 911.444,580.395 925.282,557.092 939.12,536.255 952.958,516.028 966.796,497.321 980.633,478.84 994.471,461.254 1008.31,446.184 1022.15,431.097 1035.98,417.675 1049.82,404.778 1063.66,391.673 1077.5,380.488 1091.34,368.656 1105.17,358.113 1119.01,348.343 1132.85,339.458 1146.69,331.652 1160.53,323.644 1174.36,315.78 1188.2,308.954 1202.04,302.421 1215.88,296.904 1229.71,291.291 1243.55,285.632 1257.39,280.179 1271.23,275.65 1285.07,271.588 1298.9,267.799 1312.74,264.059 1326.58,260.841 1340.42,257.77 1354.25,254.841 1368.09,251.97 1381.93,249.412 1395.77,247.025 1409.61,244.723 1423.44,242.586 1437.28,240.646 1451.12,238.896 1464.96,237.184 1478.79,235.591 1492.63,234.277 1506.47,232.981 1520.31,231.821 1534.15,230.772 1547.98,229.789 1561.82,228.825 1575.66,227.923 1589.5,227.083 1603.34,226.342 1617.17,225.693 1631.01,225.091 1644.85,224.52 1658.69,223.916 1672.52,223.379 1686.36,222.805 1700.2,222.272 1714.04,221.778 1727.88,221.321 1741.71,220.898 1755.55,220.524 1769.39,220.193 1783.23,219.886 1797.06,219.599 1810.9,219.329 1824.74,219.076 1838.58,218.84 1852.42,218.626 1866.25,218.431 1880.09,218.25 1893.93,218.075 1907.77,217.895 1921.61,217.757 1935.44,217.636 1949.28,217.522 1963.12,217.416 1976.96,217.318 1990.79,217.228 2004.63,217.144 2018.47,217.067 2032.31,216.997 2046.15,216.931 2059.98,216.87 2073.82,216.814 2087.66,216.76 2101.5,216.71 2115.33,216.663 2129.17,216.619 2143.01,216.575 2156.85,216.531 2170.69,216.488 2184.52,216.447 2198.36,216.408 2212.2,216.372 2226.04,216.338 2239.87,216.307 2253.71,216.278 2267.55,216.252 2281.39,216.227 2295.23,216.205 2309.06,216.185 2322.9,216.167 2336.74,216.151 2350.58,216.136 2364.42,216.123 2378.25,216.111 2392.09,216.101 2405.93,216.091 2419.77,216.082 2433.6,216.073 2447.44,216.065 2461.28,216.057 2475.12,216.049 2488.96,216.041 2502.79,216.034 2516.63,216.027 2530.47,216.019 2544.31,216.012 2558.14,216.005 2571.98,215.999 2585.82,215.992 2599.66,215.986 2613.5,215.981 2627.33,215.976 2641.17,215.971 2655.01,215.967 2668.85,215.964 2682.69,215.961 2696.52,215.958 2710.36,215.956 2724.2,215.955 2738.04,215.953 2751.87,215.953 2765.71,215.952 2779.55,215.952 2793.39,215.952 2807.23,215.952 2821.06,215.953 2834.9,215.954 2848.74,215.954 2862.58,215.955 2876.41,215.955 2890.25,215.955 2904.09,215.955 2917.93,215.955 2931.77,215.955 2945.6,215.954 2959.44,215.954 2973.28,215.954 2987.12,215.953 3000.96,215.952 3014.79,215.951 3028.63,215.95 3042.47,215.949 3056.31,215.948 3070.14,215.947 "/>
<path clip-path="url(#clip220)" d="M2663.79 2135.47 L3055.46 2135.47 L3055.46 1979.95 L2663.79 1979.95  Z" fill="#eaeaea" fill-rule="evenodd" fill-opacity="1"/>
<polyline clip-path="url(#clip220)" style="stroke:#ffffff; stroke-linecap:round; stroke-linejoin:round; stroke-width:4; stroke-opacity:1; fill:none" points="2663.79,2135.47 3055.46,2135.47 3055.46,1979.95 2663.79,1979.95 2663.79,2135.47 "/>
<polyline clip-path="url(#clip220)" style="stroke:#009af9; stroke-linecap:round; stroke-linejoin:round; stroke-width:12; stroke-opacity:1; fill:none" points="2696.23,2031.79 2890.82,2031.79 "/>
<path clip-path="url(#clip220)" d="M2925.48 2048.35 L2925.48 2044.09 Q2927.24 2044.92 2929.04 2045.36 Q2930.85 2045.8 2932.59 2045.8 Q2937.22 2045.8 2939.65 2042.7 Q2942.1 2039.58 2942.45 2033.23 Q2941.1 2035.22 2939.04 2036.29 Q2936.98 2037.35 2934.48 2037.35 Q2929.3 2037.35 2926.27 2034.23 Q2923.26 2031.08 2923.26 2025.64 Q2923.26 2020.32 2926.4 2017.1 Q2929.55 2013.88 2934.78 2013.88 Q2940.78 2013.88 2943.93 2018.49 Q2947.1 2023.07 2947.1 2031.82 Q2947.1 2039.99 2943.21 2044.88 Q2939.34 2049.74 2932.79 2049.74 Q2931.03 2049.74 2929.23 2049.39 Q2927.42 2049.04 2925.48 2048.35 M2934.78 2033.7 Q2937.93 2033.7 2939.76 2031.54 Q2941.61 2029.39 2941.61 2025.64 Q2941.61 2021.91 2939.76 2019.76 Q2937.93 2017.58 2934.78 2017.58 Q2931.64 2017.58 2929.78 2019.76 Q2927.96 2021.91 2927.96 2025.64 Q2927.96 2029.39 2929.78 2031.54 Q2931.64 2033.7 2934.78 2033.7 Z" fill="#000000" fill-rule="nonzero" fill-opacity="1" /><path clip-path="url(#clip220)" d="M2955.55 2014.51 L2973.9 2014.51 L2973.9 2018.44 L2959.83 2018.44 L2959.83 2026.91 Q2960.85 2026.57 2961.87 2026.4 Q2962.89 2026.22 2963.9 2026.22 Q2969.69 2026.22 2973.07 2029.39 Q2976.45 2032.56 2976.45 2037.98 Q2976.45 2043.56 2972.98 2046.66 Q2969.51 2049.74 2963.19 2049.74 Q2961.01 2049.74 2958.74 2049.37 Q2956.5 2049 2954.09 2048.26 L2954.09 2043.56 Q2956.17 2044.69 2958.4 2045.25 Q2960.62 2045.8 2963.09 2045.8 Q2967.1 2045.8 2969.44 2043.7 Q2971.78 2041.59 2971.78 2037.98 Q2971.78 2034.37 2969.44 2032.26 Q2967.1 2030.15 2963.09 2030.15 Q2961.22 2030.15 2959.34 2030.57 Q2957.49 2030.99 2955.55 2031.87 L2955.55 2014.51 Z" fill="#000000" fill-rule="nonzero" fill-opacity="1" /><path clip-path="url(#clip220)" d="M3015.06 2033.86 Q3013.05 2033.86 3011.89 2035.57 Q3010.76 2037.28 3010.76 2040.34 Q3010.76 2043.35 3011.89 2045.08 Q3013.05 2046.8 3015.06 2046.8 Q3017.03 2046.8 3018.16 2045.08 Q3019.32 2043.35 3019.32 2040.34 Q3019.32 2037.31 3018.16 2035.59 Q3017.03 2033.86 3015.06 2033.86 M3015.06 2030.92 Q3018.72 2030.92 3020.87 2033.46 Q3023.02 2036.01 3023.02 2040.34 Q3023.02 2044.67 3020.85 2047.21 Q3018.7 2049.74 3015.06 2049.74 Q3011.36 2049.74 3009.21 2047.21 Q3007.05 2044.67 3007.05 2040.34 Q3007.05 2035.99 3009.21 2033.46 Q3011.38 2030.92 3015.06 2030.92 M2991.17 2016.82 Q2989.18 2016.82 2988.02 2018.56 Q2986.89 2020.27 2986.89 2023.28 Q2986.89 2026.33 2988.02 2028.05 Q2989.16 2029.76 2991.17 2029.76 Q2993.19 2029.76 2994.32 2028.05 Q2995.48 2026.33 2995.48 2023.28 Q2995.48 2020.29 2994.32 2018.56 Q2993.16 2016.82 2991.17 2016.82 M3012.08 2013.88 L3015.78 2013.88 L2994.16 2049.74 L2990.46 2049.74 L3012.08 2013.88 M2991.17 2013.88 Q2994.83 2013.88 2997.01 2016.43 Q2999.18 2018.95 2999.18 2023.28 Q2999.18 2027.65 2997.01 2030.18 Q2994.85 2032.7 2991.17 2032.7 Q2987.49 2032.7 2985.34 2030.18 Q2983.21 2027.63 2983.21 2023.28 Q2983.21 2018.97 2985.36 2016.43 Q2987.52 2013.88 2991.17 2013.88 Z" fill="#000000" fill-rule="nonzero" fill-opacity="1" /><polyline clip-path="url(#clip220)" style="stroke:#e26f46; stroke-linecap:round; stroke-linejoin:round; stroke-width:12; stroke-opacity:1; fill:none" points="2696.23,2083.63 2890.82,2083.63 "/>
<path clip-path="url(#clip220)" d="M2935.59 2081.76 Q2932.45 2081.76 2930.59 2083.92 Q2928.77 2086.07 2928.77 2089.82 Q2928.77 2093.55 2930.59 2095.72 Q2932.45 2097.87 2935.59 2097.87 Q2938.74 2097.87 2940.57 2095.72 Q2942.42 2093.55 2942.42 2089.82 Q2942.42 2086.07 2940.57 2083.92 Q2938.74 2081.76 2935.59 2081.76 M2944.88 2067.11 L2944.88 2071.37 Q2943.12 2070.54 2941.31 2070.1 Q2939.53 2069.66 2937.77 2069.66 Q2933.14 2069.66 2930.69 2072.78 Q2928.26 2075.91 2927.91 2082.23 Q2929.28 2080.21 2931.34 2079.15 Q2933.4 2078.06 2935.87 2078.06 Q2941.08 2078.06 2944.09 2081.23 Q2947.12 2084.38 2947.12 2089.82 Q2947.12 2095.14 2943.97 2098.36 Q2940.83 2101.58 2935.59 2101.58 Q2929.6 2101.58 2926.43 2096.99 Q2923.26 2092.39 2923.26 2083.66 Q2923.26 2075.47 2927.15 2070.61 Q2931.03 2065.72 2937.59 2065.72 Q2939.34 2065.72 2941.13 2066.07 Q2942.93 2066.42 2944.88 2067.11 Z" fill="#000000" fill-rule="nonzero" fill-opacity="1" /><path clip-path="url(#clip220)" d="M2965.18 2084.49 Q2961.84 2084.49 2959.92 2086.28 Q2958.03 2088.06 2958.03 2091.18 Q2958.03 2094.31 2959.92 2096.09 Q2961.84 2097.87 2965.18 2097.87 Q2968.51 2097.87 2970.43 2096.09 Q2972.35 2094.29 2972.35 2091.18 Q2972.35 2088.06 2970.43 2086.28 Q2968.53 2084.49 2965.18 2084.49 M2960.5 2082.5 Q2957.49 2081.76 2955.8 2079.7 Q2954.14 2077.64 2954.14 2074.68 Q2954.14 2070.54 2957.08 2068.13 Q2960.04 2065.72 2965.18 2065.72 Q2970.34 2065.72 2973.28 2068.13 Q2976.22 2070.54 2976.22 2074.68 Q2976.22 2077.64 2974.53 2079.7 Q2972.86 2081.76 2969.88 2082.5 Q2973.26 2083.29 2975.13 2085.58 Q2977.03 2087.87 2977.03 2091.18 Q2977.03 2096.21 2973.95 2098.89 Q2970.9 2101.58 2965.18 2101.58 Q2959.46 2101.58 2956.38 2098.89 Q2953.33 2096.21 2953.33 2091.18 Q2953.33 2087.87 2955.22 2085.58 Q2957.12 2083.29 2960.5 2082.5 M2958.79 2075.12 Q2958.79 2077.8 2960.46 2079.31 Q2962.15 2080.81 2965.18 2080.81 Q2968.19 2080.81 2969.88 2079.31 Q2971.59 2077.8 2971.59 2075.12 Q2971.59 2072.43 2969.88 2070.93 Q2968.19 2069.42 2965.18 2069.42 Q2962.15 2069.42 2960.46 2070.93 Q2958.79 2072.43 2958.79 2075.12 Z" fill="#000000" fill-rule="nonzero" fill-opacity="1" /><path clip-path="url(#clip220)" d="M3014.74 2085.7 Q3012.72 2085.7 3011.57 2087.41 Q3010.43 2089.12 3010.43 2092.18 Q3010.43 2095.19 3011.57 2096.92 Q3012.72 2098.64 3014.74 2098.64 Q3016.71 2098.64 3017.84 2096.92 Q3019 2095.19 3019 2092.18 Q3019 2089.15 3017.84 2087.43 Q3016.71 2085.7 3014.74 2085.7 M3014.74 2082.76 Q3018.4 2082.76 3020.55 2085.3 Q3022.7 2087.85 3022.7 2092.18 Q3022.7 2096.51 3020.52 2099.05 Q3018.37 2101.58 3014.74 2101.58 Q3011.03 2101.58 3008.88 2099.05 Q3006.73 2096.51 3006.73 2092.18 Q3006.73 2087.83 3008.88 2085.3 Q3011.06 2082.76 3014.74 2082.76 M2990.85 2068.66 Q2988.86 2068.66 2987.7 2070.4 Q2986.57 2072.11 2986.57 2075.12 Q2986.57 2078.17 2987.7 2079.89 Q2988.84 2081.6 2990.85 2081.6 Q2992.86 2081.6 2994 2079.89 Q2995.15 2078.17 2995.15 2075.12 Q2995.15 2072.13 2994 2070.4 Q2992.84 2068.66 2990.85 2068.66 M3011.75 2065.72 L3015.46 2065.72 L2993.84 2101.58 L2990.13 2101.58 L3011.75 2065.72 M2990.85 2065.72 Q2994.51 2065.72 2996.68 2068.27 Q2998.86 2070.79 2998.86 2075.12 Q2998.86 2079.49 2996.68 2082.02 Q2994.53 2084.54 2990.85 2084.54 Q2987.17 2084.54 2985.02 2082.02 Q2982.89 2079.47 2982.89 2075.12 Q2982.89 2070.81 2985.04 2068.27 Q2987.19 2065.72 2990.85 2065.72 Z" fill="#000000" fill-rule="nonzero" fill-opacity="1" /></svg>
