<?xml version="1.0" encoding="utf-8"?>
<svg xmlns="http://www.w3.org/2000/svg" xmlns:xlink="http://www.w3.org/1999/xlink" width="800" height="600" viewBox="0 0 3200 2400">
<defs>
  <clipPath id="clip500">
    <rect x="0" y="0" width="3200" height="2400"/>
  </clipPath>
</defs>
<path clip-path="url(#clip500)" d="M0 2400 L3200 2400 L3200 0 L0 0  Z" fill="#ffffff" fill-rule="evenodd" fill-opacity="1"/>
<defs>
  <clipPath id="clip501">
    <rect x="640" y="0" width="2241" height="2241"/>
  </clipPath>
</defs>
<path clip-path="url(#clip500)" d="M233.806 2204.92 L3152.76 2204.92 L3152.76 121.312 L233.806 121.312  Z" fill="#eaeaea" fill-rule="evenodd" fill-opacity="1"/>
<defs>
  <clipPath id="clip502">
    <rect x="233" y="121" width="2920" height="2085"/>
  </clipPath>
</defs>
<polyline clip-path="url(#clip502)" style="stroke:#ffffff; stroke-linecap:round; stroke-linejoin:round; stroke-width:4; stroke-opacity:1; fill:none" points="316.418,2204.92 316.418,121.312 "/>
<polyline clip-path="url(#clip502)" style="stroke:#ffffff; stroke-linecap:round; stroke-linejoin:round; stroke-width:4; stroke-opacity:1; fill:none" points="867.163,2204.92 867.163,121.312 "/>
<polyline clip-path="url(#clip502)" style="stroke:#ffffff; stroke-linecap:round; stroke-linejoin:round; stroke-width:4; stroke-opacity:1; fill:none" points="1417.91,2204.92 1417.91,121.312 "/>
<polyline clip-path="url(#clip502)" style="stroke:#ffffff; stroke-linecap:round; stroke-linejoin:round; stroke-width:4; stroke-opacity:1; fill:none" points="1968.65,2204.92 1968.65,121.312 "/>
<polyline clip-path="url(#clip502)" style="stroke:#ffffff; stroke-linecap:round; stroke-linejoin:round; stroke-width:4; stroke-opacity:1; fill:none" points="2519.4,2204.92 2519.4,121.312 "/>
<polyline clip-path="url(#clip502)" style="stroke:#ffffff; stroke-linecap:round; stroke-linejoin:round; stroke-width:4; stroke-opacity:1; fill:none" points="3070.14,2204.92 3070.14,121.312 "/>
<polyline clip-path="url(#clip502)" style="stroke:#ffffff; stroke-linecap:round; stroke-linejoin:round; stroke-width:2; stroke-opacity:1; fill:none" points="591.791,2204.92 591.791,121.312 "/>
<polyline clip-path="url(#clip502)" style="stroke:#ffffff; stroke-linecap:round; stroke-linejoin:round; stroke-width:2; stroke-opacity:1; fill:none" points="1142.54,2204.92 1142.54,121.312 "/>
<polyline clip-path="url(#clip502)" style="stroke:#ffffff; stroke-linecap:round; stroke-linejoin:round; stroke-width:2; stroke-opacity:1; fill:none" points="1693.28,2204.92 1693.28,121.312 "/>
<polyline clip-path="url(#clip502)" style="stroke:#ffffff; stroke-linecap:round; stroke-linejoin:round; stroke-width:2; stroke-opacity:1; fill:none" points="2244.03,2204.92 2244.03,121.312 "/>
<polyline clip-path="url(#clip502)" style="stroke:#ffffff; stroke-linecap:round; stroke-linejoin:round; stroke-width:2; stroke-opacity:1; fill:none" points="2794.77,2204.92 2794.77,121.312 "/>
<polyline clip-path="url(#clip500)" style="stroke:#ffffff; stroke-linecap:round; stroke-linejoin:round; stroke-width:4; stroke-opacity:1; fill:none" points="233.806,2204.92 3152.76,2204.92 "/>
<polyline clip-path="url(#clip500)" style="stroke:#333333; stroke-linecap:round; stroke-linejoin:round; stroke-width:4; stroke-opacity:1; fill:none" points="316.418,2204.92 316.418,2223.82 "/>
<polyline clip-path="url(#clip500)" style="stroke:#333333; stroke-linecap:round; stroke-linejoin:round; stroke-width:4; stroke-opacity:1; fill:none" points="867.163,2204.92 867.163,2223.82 "/>
<polyline clip-path="url(#clip500)" style="stroke:#333333; stroke-linecap:round; stroke-linejoin:round; stroke-width:4; stroke-opacity:1; fill:none" points="1417.91,2204.92 1417.91,2223.82 "/>
<polyline clip-path="url(#clip500)" style="stroke:#333333; stroke-linecap:round; stroke-linejoin:round; stroke-width:4; stroke-opacity:1; fill:none" points="1968.65,2204.92 1968.65,2223.82 "/>
<polyline clip-path="url(#clip500)" style="stroke:#333333; stroke-linecap:round; stroke-linejoin:round; stroke-width:4; stroke-opacity:1; fill:none" points="2519.4,2204.92 2519.4,2223.82 "/>
<polyline clip-path="url(#clip500)" style="stroke:#333333; stroke-linecap:round; stroke-linejoin:round; stroke-width:4; stroke-opacity:1; fill:none" points="3070.14,2204.92 3070.14,2223.82 "/>
<polyline clip-path="url(#clip500)" style="stroke:#333333; stroke-linecap:round; stroke-linejoin:round; stroke-width:4; stroke-opacity:1; fill:none" points="591.791,2204.92 591.791,2214.37 "/>
<polyline clip-path="url(#clip500)" style="stroke:#333333; stroke-linecap:round; stroke-linejoin:round; stroke-width:4; stroke-opacity:1; fill:none" points="1142.54,2204.92 1142.54,2214.37 "/>
<polyline clip-path="url(#clip500)" style="stroke:#333333; stroke-linecap:round; stroke-linejoin:round; stroke-width:4; stroke-opacity:1; fill:none" points="1693.28,2204.92 1693.28,2214.37 "/>
<polyline clip-path="url(#clip500)" style="stroke:#333333; stroke-linecap:round; stroke-linejoin:round; stroke-width:4; stroke-opacity:1; fill:none" points="2244.03,2204.92 2244.03,2214.37 "/>
<polyline clip-path="url(#clip500)" style="stroke:#333333; stroke-linecap:round; stroke-linejoin:round; stroke-width:4; stroke-opacity:1; fill:none" points="2794.77,2204.92 2794.77,2214.37 "/>
<path clip-path="url(#clip500)" d="M316.418 2255.04 Q312.807 2255.04 310.978 2258.6 Q309.173 2262.14 309.173 2269.27 Q309.173 2276.38 310.978 2279.95 Q312.807 2283.49 316.418 2283.49 Q320.052 2283.49 321.858 2279.95 Q323.687 2276.38 323.687 2269.27 Q323.687 2262.14 321.858 2258.6 Q320.052 2255.04 316.418 2255.04 M316.418 2251.33 Q322.228 2251.33 325.284 2255.94 Q328.362 2260.52 328.362 2269.27 Q328.362 2278 325.284 2282.61 Q322.228 2287.19 316.418 2287.19 Q310.608 2287.19 307.529 2282.61 Q304.474 2278 304.474 2269.27 Q304.474 2260.52 307.529 2255.94 Q310.608 2251.33 316.418 2251.33 Z" fill="#4c4c4c" fill-rule="nonzero" fill-opacity="1" /><path clip-path="url(#clip500)" d="M857.545 2282.58 L865.184 2282.58 L865.184 2256.22 L856.874 2257.89 L856.874 2253.63 L865.138 2251.96 L869.814 2251.96 L869.814 2282.58 L877.453 2282.58 L877.453 2286.52 L857.545 2286.52 L857.545 2282.58 Z" fill="#4c4c4c" fill-rule="nonzero" fill-opacity="1" /><path clip-path="url(#clip500)" d="M1412.56 2282.58 L1428.88 2282.58 L1428.88 2286.52 L1406.94 2286.52 L1406.94 2282.58 Q1409.6 2279.83 1414.18 2275.2 Q1418.79 2270.55 1419.97 2269.21 Q1422.21 2266.68 1423.09 2264.95 Q1424 2263.19 1424 2261.5 Q1424 2258.74 1422.05 2257.01 Q1420.13 2255.27 1417.03 2255.27 Q1414.83 2255.27 1412.38 2256.03 Q1409.95 2256.8 1407.17 2258.35 L1407.17 2253.63 Q1409.99 2252.49 1412.45 2251.91 Q1414.9 2251.33 1416.94 2251.33 Q1422.31 2251.33 1425.5 2254.02 Q1428.7 2256.71 1428.7 2261.2 Q1428.7 2263.33 1427.89 2265.25 Q1427.1 2267.14 1424.99 2269.74 Q1424.41 2270.41 1421.31 2273.63 Q1418.21 2276.82 1412.56 2282.58 Z" fill="#4c4c4c" fill-rule="nonzero" fill-opacity="1" /><path clip-path="url(#clip500)" d="M1972.9 2267.89 Q1976.26 2268.6 1978.13 2270.87 Q1980.03 2273.14 1980.03 2276.47 Q1980.03 2281.59 1976.51 2284.39 Q1972.99 2287.19 1966.51 2287.19 Q1964.34 2287.19 1962.02 2286.75 Q1959.73 2286.33 1957.28 2285.48 L1957.28 2280.96 Q1959.22 2282.1 1961.54 2282.68 Q1963.85 2283.26 1966.37 2283.26 Q1970.77 2283.26 1973.06 2281.52 Q1975.38 2279.78 1975.38 2276.47 Q1975.38 2273.42 1973.23 2271.71 Q1971.1 2269.97 1967.28 2269.97 L1963.25 2269.97 L1963.25 2266.13 L1967.46 2266.13 Q1970.91 2266.13 1972.74 2264.76 Q1974.57 2263.37 1974.57 2260.78 Q1974.57 2258.12 1972.67 2256.71 Q1970.79 2255.27 1967.28 2255.27 Q1965.36 2255.27 1963.16 2255.69 Q1960.96 2256.1 1958.32 2256.98 L1958.32 2252.82 Q1960.98 2252.08 1963.29 2251.71 Q1965.63 2251.33 1967.69 2251.33 Q1973.02 2251.33 1976.12 2253.77 Q1979.22 2256.17 1979.22 2260.29 Q1979.22 2263.16 1977.58 2265.15 Q1975.93 2267.12 1972.9 2267.89 Z" fill="#4c4c4c" fill-rule="nonzero" fill-opacity="1" /><path clip-path="url(#clip500)" d="M2522.41 2256.03 L2510.6 2274.48 L2522.41 2274.48 L2522.41 2256.03 M2521.18 2251.96 L2527.06 2251.96 L2527.06 2274.48 L2531.99 2274.48 L2531.99 2278.37 L2527.06 2278.37 L2527.06 2286.52 L2522.41 2286.52 L2522.41 2278.37 L2506.81 2278.37 L2506.81 2273.86 L2521.18 2251.96 Z" fill="#4c4c4c" fill-rule="nonzero" fill-opacity="1" /><path clip-path="url(#clip500)" d="M3060.42 2251.96 L3078.78 2251.96 L3078.78 2255.9 L3064.7 2255.9 L3064.7 2264.37 Q3065.72 2264.02 3066.74 2263.86 Q3067.76 2263.67 3068.78 2263.67 Q3074.57 2263.67 3077.95 2266.84 Q3081.32 2270.02 3081.32 2275.43 Q3081.32 2281.01 3077.85 2284.11 Q3074.38 2287.19 3068.06 2287.19 Q3065.88 2287.19 3063.62 2286.82 Q3061.37 2286.45 3058.96 2285.71 L3058.96 2281.01 Q3061.05 2282.14 3063.27 2282.7 Q3065.49 2283.26 3067.97 2283.26 Q3071.97 2283.26 3074.31 2281.15 Q3076.65 2279.04 3076.65 2275.43 Q3076.65 2271.82 3074.31 2269.71 Q3071.97 2267.61 3067.97 2267.61 Q3066.09 2267.61 3064.22 2268.02 Q3062.37 2268.44 3060.42 2269.32 L3060.42 2251.96 Z" fill="#4c4c4c" fill-rule="nonzero" fill-opacity="1" /><path clip-path="url(#clip500)" d="M1692.34 2316.01 L1692.34 2326.14 L1704.41 2326.14 L1704.41 2330.69 L1692.34 2330.69 L1692.34 2350.04 Q1692.34 2354.4 1693.52 2355.64 Q1694.73 2356.88 1698.39 2356.88 L1704.41 2356.88 L1704.41 2361.78 L1698.39 2361.78 Q1691.61 2361.78 1689.03 2359.27 Q1686.45 2356.72 1686.45 2350.04 L1686.45 2330.69 L1682.16 2330.69 L1682.16 2326.14 L1686.45 2326.14 L1686.45 2316.01 L1692.34 2316.01 Z" fill="#000000" fill-rule="nonzero" fill-opacity="1" /><polyline clip-path="url(#clip502)" style="stroke:#ffffff; stroke-linecap:round; stroke-linejoin:round; stroke-width:4; stroke-opacity:1; fill:none" points="233.806,2152.1 3152.76,2152.1 "/>
<polyline clip-path="url(#clip502)" style="stroke:#ffffff; stroke-linecap:round; stroke-linejoin:round; stroke-width:4; stroke-opacity:1; fill:none" points="233.806,1855.48 3152.76,1855.48 "/>
<polyline clip-path="url(#clip502)" style="stroke:#ffffff; stroke-linecap:round; stroke-linejoin:round; stroke-width:4; stroke-opacity:1; fill:none" points="233.806,1558.85 3152.76,1558.85 "/>
<polyline clip-path="url(#clip502)" style="stroke:#ffffff; stroke-linecap:round; stroke-linejoin:round; stroke-width:4; stroke-opacity:1; fill:none" points="233.806,1262.23 3152.76,1262.23 "/>
<polyline clip-path="url(#clip502)" style="stroke:#ffffff; stroke-linecap:round; stroke-linejoin:round; stroke-width:4; stroke-opacity:1; fill:none" points="233.806,965.604 3152.76,965.604 "/>
<polyline clip-path="url(#clip502)" style="stroke:#ffffff; stroke-linecap:round; stroke-linejoin:round; stroke-width:4; stroke-opacity:1; fill:none" points="233.806,668.98 3152.76,668.98 "/>
<polyline clip-path="url(#clip502)" style="stroke:#ffffff; stroke-linecap:round; stroke-linejoin:round; stroke-width:4; stroke-opacity:1; fill:none" points="233.806,372.356 3152.76,372.356 "/>
<polyline clip-path="url(#clip502)" style="stroke:#ffffff; stroke-linecap:round; stroke-linejoin:round; stroke-width:2; stroke-opacity:1; fill:none" points="233.806,2003.79 3152.76,2003.79 "/>
<polyline clip-path="url(#clip502)" style="stroke:#ffffff; stroke-linecap:round; stroke-linejoin:round; stroke-width:2; stroke-opacity:1; fill:none" points="233.806,1707.16 3152.76,1707.16 "/>
<polyline clip-path="url(#clip502)" style="stroke:#ffffff; stroke-linecap:round; stroke-linejoin:round; stroke-width:2; stroke-opacity:1; fill:none" points="233.806,1410.54 3152.76,1410.54 "/>
<polyline clip-path="url(#clip502)" style="stroke:#ffffff; stroke-linecap:round; stroke-linejoin:round; stroke-width:2; stroke-opacity:1; fill:none" points="233.806,1113.92 3152.76,1113.92 "/>
<polyline clip-path="url(#clip502)" style="stroke:#ffffff; stroke-linecap:round; stroke-linejoin:round; stroke-width:2; stroke-opacity:1; fill:none" points="233.806,817.292 3152.76,817.292 "/>
<polyline clip-path="url(#clip502)" style="stroke:#ffffff; stroke-linecap:round; stroke-linejoin:round; stroke-width:2; stroke-opacity:1; fill:none" points="233.806,520.668 3152.76,520.668 "/>
<polyline clip-path="url(#clip502)" style="stroke:#ffffff; stroke-linecap:round; stroke-linejoin:round; stroke-width:2; stroke-opacity:1; fill:none" points="233.806,224.043 3152.76,224.043 "/>
<polyline clip-path="url(#clip500)" style="stroke:#ffffff; stroke-linecap:round; stroke-linejoin:round; stroke-width:4; stroke-opacity:1; fill:none" points="233.806,2204.92 233.806,121.312 "/>
<polyline clip-path="url(#clip500)" style="stroke:#333333; stroke-linecap:round; stroke-linejoin:round; stroke-width:4; stroke-opacity:1; fill:none" points="233.806,2152.1 214.909,2152.1 "/>
<polyline clip-path="url(#clip500)" style="stroke:#333333; stroke-linecap:round; stroke-linejoin:round; stroke-width:4; stroke-opacity:1; fill:none" points="233.806,1855.48 214.909,1855.48 "/>
<polyline clip-path="url(#clip500)" style="stroke:#333333; stroke-linecap:round; stroke-linejoin:round; stroke-width:4; stroke-opacity:1; fill:none" points="233.806,1558.85 214.909,1558.85 "/>
<polyline clip-path="url(#clip500)" style="stroke:#333333; stroke-linecap:round; stroke-linejoin:round; stroke-width:4; stroke-opacity:1; fill:none" points="233.806,1262.23 214.909,1262.23 "/>
<polyline clip-path="url(#clip500)" style="stroke:#333333; stroke-linecap:round; stroke-linejoin:round; stroke-width:4; stroke-opacity:1; fill:none" points="233.806,965.604 214.909,965.604 "/>
<polyline clip-path="url(#clip500)" style="stroke:#333333; stroke-linecap:round; stroke-linejoin:round; stroke-width:4; stroke-opacity:1; fill:none" points="233.806,668.98 214.909,668.98 "/>
<polyline clip-path="url(#clip500)" style="stroke:#333333; stroke-linecap:round; stroke-linejoin:round; stroke-width:4; stroke-opacity:1; fill:none" points="233.806,372.356 214.909,372.356 "/>
<polyline clip-path="url(#clip500)" style="stroke:#333333; stroke-linecap:round; stroke-linejoin:round; stroke-width:4; stroke-opacity:1; fill:none" points="233.806,2003.79 224.357,2003.79 "/>
<polyline clip-path="url(#clip500)" style="stroke:#333333; stroke-linecap:round; stroke-linejoin:round; stroke-width:4; stroke-opacity:1; fill:none" points="233.806,1707.16 224.357,1707.16 "/>
<polyline clip-path="url(#clip500)" style="stroke:#333333; stroke-linecap:round; stroke-linejoin:round; stroke-width:4; stroke-opacity:1; fill:none" points="233.806,1410.54 224.357,1410.54 "/>
<polyline clip-path="url(#clip500)" style="stroke:#333333; stroke-linecap:round; stroke-linejoin:round; stroke-width:4; stroke-opacity:1; fill:none" points="233.806,1113.92 224.357,1113.92 "/>
<polyline clip-path="url(#clip500)" style="stroke:#333333; stroke-linecap:round; stroke-linejoin:round; stroke-width:4; stroke-opacity:1; fill:none" points="233.806,817.292 224.357,817.292 "/>
<polyline clip-path="url(#clip500)" style="stroke:#333333; stroke-linecap:round; stroke-linejoin:round; stroke-width:4; stroke-opacity:1; fill:none" points="233.806,520.668 224.357,520.668 "/>
<polyline clip-path="url(#clip500)" style="stroke:#333333; stroke-linecap:round; stroke-linejoin:round; stroke-width:4; stroke-opacity:1; fill:none" points="233.806,224.043 224.357,224.043 "/>
<path clip-path="url(#clip500)" d="M106.228 2137.9 Q102.617 2137.9 100.788 2141.46 Q98.9825 2145.01 98.9825 2152.14 Q98.9825 2159.24 100.788 2162.81 Q102.617 2166.35 106.228 2166.35 Q109.862 2166.35 111.668 2162.81 Q113.496 2159.24 113.496 2152.14 Q113.496 2145.01 111.668 2141.46 Q109.862 2137.9 106.228 2137.9 M106.228 2134.2 Q112.038 2134.2 115.094 2138.8 Q118.172 2143.39 118.172 2152.14 Q118.172 2160.86 115.094 2165.47 Q112.038 2170.05 106.228 2170.05 Q100.418 2170.05 97.339 2165.47 Q94.2835 2160.86 94.2835 2152.14 Q94.2835 2143.39 97.339 2138.8 Q100.418 2134.2 106.228 2134.2 Z" fill="#4c4c4c" fill-rule="nonzero" fill-opacity="1" /><path clip-path="url(#clip500)" d="M126.39 2163.5 L131.274 2163.5 L131.274 2169.38 L126.39 2169.38 L126.39 2163.5 Z" fill="#4c4c4c" fill-rule="nonzero" fill-opacity="1" /><path clip-path="url(#clip500)" d="M145.487 2165.45 L161.806 2165.45 L161.806 2169.38 L139.862 2169.38 L139.862 2165.45 Q142.524 2162.69 147.107 2158.06 Q151.714 2153.41 152.894 2152.07 Q155.14 2149.54 156.019 2147.81 Q156.922 2146.05 156.922 2144.36 Q156.922 2141.6 154.978 2139.87 Q153.056 2138.13 149.954 2138.13 Q147.755 2138.13 145.302 2138.9 Q142.871 2139.66 140.093 2141.21 L140.093 2136.49 Q142.917 2135.35 145.371 2134.77 Q147.825 2134.2 149.862 2134.2 Q155.232 2134.2 158.427 2136.88 Q161.621 2139.57 161.621 2144.06 Q161.621 2146.19 160.811 2148.11 Q160.024 2150.01 157.917 2152.6 Q157.339 2153.27 154.237 2156.49 Q151.135 2159.68 145.487 2165.45 Z" fill="#4c4c4c" fill-rule="nonzero" fill-opacity="1" /><path clip-path="url(#clip500)" d="M104.145 1841.28 Q100.533 1841.28 98.7048 1844.84 Q96.8992 1848.38 96.8992 1855.51 Q96.8992 1862.62 98.7048 1866.18 Q100.533 1869.72 104.145 1869.72 Q107.779 1869.72 109.584 1866.18 Q111.413 1862.62 111.413 1855.51 Q111.413 1848.38 109.584 1844.84 Q107.779 1841.28 104.145 1841.28 M104.145 1837.57 Q109.955 1837.57 113.01 1842.18 Q116.089 1846.76 116.089 1855.51 Q116.089 1864.24 113.01 1868.84 Q109.955 1873.43 104.145 1873.43 Q98.3344 1873.43 95.2557 1868.84 Q92.2002 1864.24 92.2002 1855.51 Q92.2002 1846.76 95.2557 1842.18 Q98.3344 1837.57 104.145 1837.57 Z" fill="#4c4c4c" fill-rule="nonzero" fill-opacity="1" /><path clip-path="url(#clip500)" d="M124.306 1866.88 L129.191 1866.88 L129.191 1872.76 L124.306 1872.76 L124.306 1866.88 Z" fill="#4c4c4c" fill-rule="nonzero" fill-opacity="1" /><path clip-path="url(#clip500)" d="M152.223 1842.27 L140.417 1860.72 L152.223 1860.72 L152.223 1842.27 M150.996 1838.2 L156.876 1838.2 L156.876 1860.72 L161.806 1860.72 L161.806 1864.61 L156.876 1864.61 L156.876 1872.76 L152.223 1872.76 L152.223 1864.61 L136.621 1864.61 L136.621 1860.09 L150.996 1838.2 Z" fill="#4c4c4c" fill-rule="nonzero" fill-opacity="1" /><path clip-path="url(#clip500)" d="M104.469 1544.65 Q100.858 1544.65 99.0288 1548.22 Q97.2233 1551.76 97.2233 1558.89 Q97.2233 1565.99 99.0288 1569.56 Q100.858 1573.1 104.469 1573.1 Q108.103 1573.1 109.908 1569.56 Q111.737 1565.99 111.737 1558.89 Q111.737 1551.76 109.908 1548.22 Q108.103 1544.65 104.469 1544.65 M104.469 1540.95 Q110.279 1540.95 113.334 1545.55 Q116.413 1550.14 116.413 1558.89 Q116.413 1567.61 113.334 1572.22 Q110.279 1576.8 104.469 1576.8 Q98.6585 1576.8 95.5798 1572.22 Q92.5242 1567.61 92.5242 1558.89 Q92.5242 1550.14 95.5798 1545.55 Q98.6585 1540.95 104.469 1540.95 Z" fill="#4c4c4c" fill-rule="nonzero" fill-opacity="1" /><path clip-path="url(#clip500)" d="M124.631 1570.25 L129.515 1570.25 L129.515 1576.13 L124.631 1576.13 L124.631 1570.25 Z" fill="#4c4c4c" fill-rule="nonzero" fill-opacity="1" /><path clip-path="url(#clip500)" d="M150.279 1556.99 Q147.13 1556.99 145.279 1559.14 Q143.45 1561.29 143.45 1565.04 Q143.45 1568.77 145.279 1570.95 Q147.13 1573.1 150.279 1573.1 Q153.427 1573.1 155.255 1570.95 Q157.107 1568.77 157.107 1565.04 Q157.107 1561.29 155.255 1559.14 Q153.427 1556.99 150.279 1556.99 M159.561 1542.34 L159.561 1546.6 Q157.802 1545.76 155.996 1545.32 Q154.214 1544.88 152.454 1544.88 Q147.825 1544.88 145.371 1548.01 Q142.941 1551.13 142.593 1557.45 Q143.959 1555.44 146.019 1554.37 Q148.079 1553.29 150.556 1553.29 Q155.765 1553.29 158.774 1556.46 Q161.806 1559.6 161.806 1565.04 Q161.806 1570.37 158.658 1573.59 Q155.51 1576.8 150.279 1576.8 Q144.283 1576.8 141.112 1572.22 Q137.941 1567.61 137.941 1558.89 Q137.941 1550.69 141.83 1545.83 Q145.718 1540.95 152.269 1540.95 Q154.029 1540.95 155.811 1541.29 Q157.616 1541.64 159.561 1542.34 Z" fill="#4c4c4c" fill-rule="nonzero" fill-opacity="1" /><path clip-path="url(#clip500)" d="M104.723 1248.03 Q101.112 1248.03 99.2835 1251.59 Q97.4779 1255.13 97.4779 1262.26 Q97.4779 1269.37 99.2835 1272.93 Q101.112 1276.48 104.723 1276.48 Q108.357 1276.48 110.163 1272.93 Q111.992 1269.37 111.992 1262.26 Q111.992 1255.13 110.163 1251.59 Q108.357 1248.03 104.723 1248.03 M104.723 1244.32 Q110.533 1244.32 113.589 1248.93 Q116.668 1253.51 116.668 1262.26 Q116.668 1270.99 113.589 1275.6 Q110.533 1280.18 104.723 1280.18 Q98.9131 1280.18 95.8344 1275.6 Q92.7789 1270.99 92.7789 1262.26 Q92.7789 1253.51 95.8344 1248.93 Q98.9131 1244.32 104.723 1244.32 Z" fill="#4c4c4c" fill-rule="nonzero" fill-opacity="1" /><path clip-path="url(#clip500)" d="M124.885 1273.63 L129.769 1273.63 L129.769 1279.51 L124.885 1279.51 L124.885 1273.63 Z" fill="#4c4c4c" fill-rule="nonzero" fill-opacity="1" /><path clip-path="url(#clip500)" d="M149.954 1263.1 Q146.621 1263.1 144.7 1264.88 Q142.802 1266.66 142.802 1269.79 Q142.802 1272.91 144.7 1274.69 Q146.621 1276.48 149.954 1276.48 Q153.288 1276.48 155.209 1274.69 Q157.13 1272.89 157.13 1269.79 Q157.13 1266.66 155.209 1264.88 Q153.311 1263.1 149.954 1263.1 M145.279 1261.11 Q142.269 1260.36 140.58 1258.3 Q138.913 1256.24 138.913 1253.28 Q138.913 1249.14 141.853 1246.73 Q144.816 1244.32 149.954 1244.32 Q155.116 1244.32 158.056 1246.73 Q160.996 1249.14 160.996 1253.28 Q160.996 1256.24 159.306 1258.3 Q157.64 1260.36 154.654 1261.11 Q158.033 1261.89 159.908 1264.18 Q161.806 1266.48 161.806 1269.79 Q161.806 1274.81 158.728 1277.49 Q155.672 1280.18 149.954 1280.18 Q144.237 1280.18 141.158 1277.49 Q138.103 1274.81 138.103 1269.79 Q138.103 1266.48 140.001 1264.18 Q141.899 1261.89 145.279 1261.11 M143.566 1253.72 Q143.566 1256.41 145.232 1257.91 Q146.922 1259.42 149.954 1259.42 Q152.964 1259.42 154.654 1257.91 Q156.366 1256.41 156.366 1253.72 Q156.366 1251.04 154.654 1249.53 Q152.964 1248.03 149.954 1248.03 Q146.922 1248.03 145.232 1249.53 Q143.566 1251.04 143.566 1253.72 Z" fill="#4c4c4c" fill-rule="nonzero" fill-opacity="1" /><path clip-path="url(#clip500)" d="M95.4409 978.949 L103.08 978.949 L103.08 952.583 L94.7696 954.25 L94.7696 949.991 L103.033 948.324 L107.709 948.324 L107.709 978.949 L115.348 978.949 L115.348 982.884 L95.4409 982.884 L95.4409 978.949 Z" fill="#4c4c4c" fill-rule="nonzero" fill-opacity="1" /><path clip-path="url(#clip500)" d="M124.793 977.004 L129.677 977.004 L129.677 982.884 L124.793 982.884 L124.793 977.004 Z" fill="#4c4c4c" fill-rule="nonzero" fill-opacity="1" /><path clip-path="url(#clip500)" d="M149.862 951.403 Q146.251 951.403 144.422 954.968 Q142.617 958.509 142.617 965.639 Q142.617 972.745 144.422 976.31 Q146.251 979.852 149.862 979.852 Q153.496 979.852 155.302 976.31 Q157.13 972.745 157.13 965.639 Q157.13 958.509 155.302 954.968 Q153.496 951.403 149.862 951.403 M149.862 947.699 Q155.672 947.699 158.728 952.306 Q161.806 956.889 161.806 965.639 Q161.806 974.366 158.728 978.972 Q155.672 983.555 149.862 983.555 Q144.052 983.555 140.973 978.972 Q137.918 974.366 137.918 965.639 Q137.918 956.889 140.973 952.306 Q144.052 947.699 149.862 947.699 Z" fill="#4c4c4c" fill-rule="nonzero" fill-opacity="1" /><path clip-path="url(#clip500)" d="M97.0381 682.325 L104.677 682.325 L104.677 655.959 L96.3668 657.626 L96.3668 653.366 L104.631 651.7 L109.307 651.7 L109.307 682.325 L116.945 682.325 L116.945 686.26 L97.0381 686.26 L97.0381 682.325 Z" fill="#4c4c4c" fill-rule="nonzero" fill-opacity="1" /><path clip-path="url(#clip500)" d="M126.39 680.38 L131.274 680.38 L131.274 686.26 L126.39 686.26 L126.39 680.38 Z" fill="#4c4c4c" fill-rule="nonzero" fill-opacity="1" /><path clip-path="url(#clip500)" d="M145.487 682.325 L161.806 682.325 L161.806 686.26 L139.862 686.26 L139.862 682.325 Q142.524 679.57 147.107 674.94 Q151.714 670.288 152.894 668.945 Q155.14 666.422 156.019 664.686 Q156.922 662.927 156.922 661.237 Q156.922 658.482 154.978 656.746 Q153.056 655.01 149.954 655.01 Q147.755 655.01 145.302 655.774 Q142.871 656.538 140.093 658.089 L140.093 653.366 Q142.917 652.232 145.371 651.654 Q147.825 651.075 149.862 651.075 Q155.232 651.075 158.427 653.76 Q161.621 656.445 161.621 660.936 Q161.621 663.065 160.811 664.987 Q160.024 666.885 157.917 669.477 Q157.339 670.149 154.237 673.366 Q151.135 676.561 145.487 682.325 Z" fill="#4c4c4c" fill-rule="nonzero" fill-opacity="1" /><path clip-path="url(#clip500)" d="M94.9548 385.7 L102.594 385.7 L102.594 359.335 L94.2835 361.001 L94.2835 356.742 L102.547 355.076 L107.223 355.076 L107.223 385.7 L114.862 385.7 L114.862 389.636 L94.9548 389.636 L94.9548 385.7 Z" fill="#4c4c4c" fill-rule="nonzero" fill-opacity="1" /><path clip-path="url(#clip500)" d="M124.306 383.756 L129.191 383.756 L129.191 389.636 L124.306 389.636 L124.306 383.756 Z" fill="#4c4c4c" fill-rule="nonzero" fill-opacity="1" /><path clip-path="url(#clip500)" d="M152.223 359.15 L140.417 377.599 L152.223 377.599 L152.223 359.15 M150.996 355.076 L156.876 355.076 L156.876 377.599 L161.806 377.599 L161.806 381.487 L156.876 381.487 L156.876 389.636 L152.223 389.636 L152.223 381.487 L136.621 381.487 L136.621 376.974 L150.996 355.076 Z" fill="#4c4c4c" fill-rule="nonzero" fill-opacity="1" /><path clip-path="url(#clip500)" d="M48.597 1321.32 L67.5031 1321.32 L67.5031 1327.21 L18.2962 1327.21 L18.2962 1321.32 L23.7071 1321.32 Q20.5242 1319.47 18.9964 1316.67 Q17.4368 1313.84 17.4368 1309.93 Q17.4368 1303.43 22.5931 1299.39 Q27.7493 1295.32 36.152 1295.32 Q44.5547 1295.32 49.711 1299.39 Q54.8672 1303.43 54.8672 1309.93 Q54.8672 1313.84 53.3394 1316.67 Q51.7798 1319.47 48.597 1321.32 M36.152 1301.4 Q29.6908 1301.4 26.0305 1304.07 Q22.3384 1306.71 22.3384 1311.36 Q22.3384 1316 26.0305 1318.68 Q29.6908 1321.32 36.152 1321.32 Q42.6132 1321.32 46.3053 1318.68 Q49.9656 1316 49.9656 1311.36 Q49.9656 1306.71 46.3053 1304.07 Q42.6132 1301.4 36.152 1301.4 Z" fill="#000000" fill-rule="nonzero" fill-opacity="1" /><path clip-path="url(#clip500)" d="M22.4021 1271.79 Q22.4021 1276.51 26.0942 1279.24 Q29.7545 1281.98 36.152 1281.98 Q42.5495 1281.98 46.2417 1279.27 Q49.9019 1276.54 49.9019 1271.79 Q49.9019 1267.12 46.2098 1264.38 Q42.5177 1261.64 36.152 1261.64 Q29.8181 1261.64 26.126 1264.38 Q22.4021 1267.12 22.4021 1271.79 M17.4368 1271.79 Q17.4368 1264.16 22.4021 1259.8 Q27.3673 1255.43 36.152 1255.43 Q44.9049 1255.43 49.9019 1259.8 Q54.8672 1264.16 54.8672 1271.79 Q54.8672 1279.47 49.9019 1283.83 Q44.9049 1288.15 36.152 1288.15 Q27.3673 1288.15 22.4021 1283.83 Q17.4368 1279.47 17.4368 1271.79 Z" fill="#000000" fill-rule="nonzero" fill-opacity="1" /><path clip-path="url(#clip500)" d="M48.597 1240.06 L67.5031 1240.06 L67.5031 1245.95 L18.2962 1245.95 L18.2962 1240.06 L23.7071 1240.06 Q20.5242 1238.22 18.9964 1235.41 Q17.4368 1232.58 17.4368 1228.67 Q17.4368 1222.17 22.5931 1218.13 Q27.7493 1214.06 36.152 1214.06 Q44.5547 1214.06 49.711 1218.13 Q54.8672 1222.17 54.8672 1228.67 Q54.8672 1232.58 53.3394 1235.41 Q51.7798 1238.22 48.597 1240.06 M36.152 1220.14 Q29.6908 1220.14 26.0305 1222.81 Q22.3384 1225.45 22.3384 1230.1 Q22.3384 1234.75 26.0305 1237.42 Q29.6908 1240.06 36.152 1240.06 Q42.6132 1240.06 46.3053 1237.42 Q49.9656 1234.75 49.9656 1230.1 Q49.9656 1225.45 46.3053 1222.81 Q42.6132 1220.14 36.152 1220.14 Z" fill="#000000" fill-rule="nonzero" fill-opacity="1" /><path clip-path="url(#clip500)" d="M39.8759 1204.95 L18.2962 1204.95 L18.2962 1199.1 L39.6531 1199.1 Q44.7139 1199.1 47.2602 1197.12 Q49.7746 1195.15 49.7746 1191.2 Q49.7746 1186.46 46.7509 1183.72 Q43.7272 1180.96 38.5073 1180.96 L18.2962 1180.96 L18.2962 1175.1 L53.9442 1175.1 L53.9442 1180.96 L48.4696 1180.96 Q51.7162 1183.09 53.3076 1185.92 Q54.8672 1188.72 54.8672 1192.45 Q54.8672 1198.59 51.0478 1201.77 Q47.2283 1204.95 39.8759 1204.95 M17.4368 1190.22 L17.4368 1190.22 Z" fill="#000000" fill-rule="nonzero" fill-opacity="1" /><path clip-path="url(#clip500)" d="M4.41896 1163.04 L4.41896 1157.18 L53.9442 1157.18 L53.9442 1163.04 L4.41896 1163.04 Z" fill="#000000" fill-rule="nonzero" fill-opacity="1" /><path clip-path="url(#clip500)" d="M36.0247 1128.73 Q36.0247 1135.82 37.6479 1138.56 Q39.2712 1141.3 43.1861 1141.3 Q46.3053 1141.3 48.1514 1139.26 Q49.9656 1137.19 49.9656 1133.66 Q49.9656 1128.79 46.5281 1125.86 Q43.0588 1122.9 37.3297 1122.9 L36.0247 1122.9 L36.0247 1128.73 M33.6057 1117.04 L53.9442 1117.04 L53.9442 1122.9 L48.5333 1122.9 Q51.7798 1124.91 53.3394 1127.9 Q54.8672 1130.89 54.8672 1135.22 Q54.8672 1140.69 51.8116 1143.94 Q48.7243 1147.15 43.5681 1147.15 Q37.5525 1147.15 34.4969 1143.14 Q31.4414 1139.1 31.4414 1131.11 L31.4414 1122.9 L30.8685 1122.9 Q26.8262 1122.9 24.6301 1125.57 Q22.4021 1128.22 22.4021 1133.02 Q22.4021 1136.08 23.1341 1138.97 Q23.8662 1141.87 25.3303 1144.54 L19.9195 1144.54 Q18.6781 1141.33 18.0734 1138.31 Q17.4368 1135.28 17.4368 1132.42 Q17.4368 1124.68 21.4472 1120.86 Q25.4576 1117.04 33.6057 1117.04 Z" fill="#000000" fill-rule="nonzero" fill-opacity="1" /><path clip-path="url(#clip500)" d="M19.6648 1079.33 L25.1393 1079.33 Q23.7707 1081.81 23.1023 1084.32 Q22.4021 1086.81 22.4021 1089.35 Q22.4021 1095.05 26.0305 1098.2 Q29.6272 1101.35 36.152 1101.35 Q42.6769 1101.35 46.3053 1098.2 Q49.9019 1095.05 49.9019 1089.35 Q49.9019 1086.81 49.2335 1084.32 Q48.5333 1081.81 47.1647 1079.33 L52.5755 1079.33 Q53.7214 1081.78 54.2943 1084.42 Q54.8672 1087.03 54.8672 1089.99 Q54.8672 1098.04 49.8064 1102.78 Q44.7457 1107.53 36.152 1107.53 Q27.431 1107.53 22.4339 1102.75 Q17.4368 1097.95 17.4368 1089.61 Q17.4368 1086.9 18.0097 1084.32 Q18.5508 1081.75 19.6648 1079.33 M53.9442 1087.6 Q55.9175 1085.85 57.5726 1084.99 Q59.2595 1084.13 60.7873 1084.13 Q63.62 1084.13 65.0523 1086.04 Q66.5164 1087.95 66.5164 1091.71 Q66.5164 1093.17 66.3255 1094.57 Q66.1345 1095.94 65.7525 1097.31 L61.583 1097.31 Q62.1241 1096.23 62.3469 1095.05 Q62.6015 1093.87 62.6015 1092.38 Q62.6015 1090.5 61.8376 1089.54 Q61.0737 1088.59 59.6096 1088.59 Q58.6548 1088.59 57.2543 1089.29 Q55.8857 1089.96 53.9442 1091.39 L53.9442 1087.6 Z" fill="#000000" fill-rule="nonzero" fill-opacity="1" /><path clip-path="url(#clip500)" d="M36.0247 1052.94 Q36.0247 1060.04 37.6479 1062.78 Q39.2712 1065.51 43.1861 1065.51 Q46.3053 1065.51 48.1514 1063.48 Q49.9656 1061.41 49.9656 1057.87 Q49.9656 1053.01 46.5281 1050.08 Q43.0588 1047.12 37.3297 1047.12 L36.0247 1047.12 L36.0247 1052.94 M33.6057 1041.26 L53.9442 1041.26 L53.9442 1047.12 L48.5333 1047.12 Q51.7798 1049.12 53.3394 1052.11 Q54.8672 1055.11 54.8672 1059.43 Q54.8672 1064.91 51.8116 1068.16 Q48.7243 1071.37 43.5681 1071.37 Q37.5525 1071.37 34.4969 1067.36 Q31.4414 1063.32 31.4414 1055.33 L31.4414 1047.12 L30.8685 1047.12 Q26.8262 1047.12 24.6301 1049.79 Q22.4021 1052.43 22.4021 1057.24 Q22.4021 1060.29 23.1341 1063.19 Q23.8662 1066.09 25.3303 1068.76 L19.9195 1068.76 Q18.6781 1065.55 18.0734 1062.52 Q17.4368 1059.5 17.4368 1056.63 Q17.4368 1048.9 21.4472 1045.08 Q25.4576 1041.26 33.6057 1041.26 M10.3391 1056.51 L8.5885 1058.32 Q7.95193 1059.02 7.66547 1059.56 Q7.34718 1060.07 7.34718 1060.48 Q7.34718 1061.69 8.52484 1062.27 Q9.67067 1062.84 12.2806 1062.9 L12.2806 1066.88 Q7.98376 1066.82 5.66027 1065.2 Q3.30496 1063.57 3.30496 1060.68 Q3.30496 1059.47 3.75056 1058.45 Q4.19616 1057.43 5.2465 1056.25 L6.99707 1054.44 Q7.63364 1053.74 7.95193 1053.23 Q8.23838 1052.69 8.23838 1052.27 Q8.23838 1051.06 7.09256 1050.49 Q5.9149 1049.92 3.30496 1049.85 L3.30496 1045.88 Q7.60181 1045.94 9.95712 1047.56 Q12.2806 1049.19 12.2806 1052.08 Q12.2806 1053.29 11.835 1054.31 Q11.3894 1055.33 10.3391 1056.51 Z" fill="#000000" fill-rule="nonzero" fill-opacity="1" /><path clip-path="url(#clip500)" d="M22.4021 1015.38 Q22.4021 1020.09 26.0942 1022.83 Q29.7545 1025.57 36.152 1025.57 Q42.5495 1025.57 46.2417 1022.86 Q49.9019 1020.13 49.9019 1015.38 Q49.9019 1010.71 46.2098 1007.97 Q42.5177 1005.23 36.152 1005.23 Q29.8181 1005.23 26.126 1007.97 Q22.4021 1010.71 22.4021 1015.38 M17.4368 1015.38 Q17.4368 1007.74 22.4021 1003.38 Q27.3673 999.024 36.152 999.024 Q44.9049 999.024 49.9019 1003.38 Q54.8672 1007.74 54.8672 1015.38 Q54.8672 1023.05 49.9019 1027.42 Q44.9049 1031.74 36.152 1031.74 Q27.3673 1031.74 22.4021 1027.42 Q17.4368 1023.05 17.4368 1015.38 Z" fill="#000000" fill-rule="nonzero" fill-opacity="1" /><path clip-path="url(#clip500)" d="M972.365 23.3193 L979.136 23.3193 L991.288 55.958 L1003.44 23.3193 L1010.21 23.3193 L995.629 62.208 L986.948 62.208 L972.365 23.3193 Z" fill="#000000" fill-rule="nonzero" fill-opacity="1" /><path clip-path="url(#clip500)" d="M1036.7 42.6595 Q1028.96 42.6595 1025.98 44.4303 Q1022.99 46.2011 1022.99 50.472 Q1022.99 53.8747 1025.21 55.8886 Q1027.47 57.8677 1031.32 57.8677 Q1036.64 57.8677 1039.83 54.1178 Q1043.06 50.3331 1043.06 44.0831 L1043.06 42.6595 L1036.7 42.6595 M1049.45 40.0206 L1049.45 62.208 L1043.06 62.208 L1043.06 56.3053 Q1040.87 59.8469 1037.61 61.5483 Q1034.34 63.2149 1029.62 63.2149 Q1023.65 63.2149 1020.11 59.8816 Q1016.6 56.5136 1016.6 50.8886 Q1016.6 44.3262 1020.98 40.9928 Q1025.39 37.6595 1034.1 37.6595 L1043.06 37.6595 L1043.06 37.0345 Q1043.06 32.6248 1040.14 30.229 Q1037.26 27.7985 1032.02 27.7985 Q1028.68 27.7985 1025.52 28.5971 Q1022.36 29.3957 1019.45 30.9929 L1019.45 25.0901 Q1022.95 23.736 1026.25 23.0763 Q1029.55 22.3818 1032.68 22.3818 Q1041.11 22.3818 1045.28 26.7568 Q1049.45 31.1318 1049.45 40.0206 Z" fill="#000000" fill-rule="nonzero" fill-opacity="1" /><path clip-path="url(#clip500)" d="M1062.61 8.18051 L1069 8.18051 L1069 62.208 L1062.61 62.208 L1062.61 8.18051 Z" fill="#000000" fill-rule="nonzero" fill-opacity="1" /><path clip-path="url(#clip500)" d="M1097.43 27.7985 Q1092.29 27.7985 1089.31 31.8262 Q1086.32 35.8193 1086.32 42.7984 Q1086.32 49.7775 1089.27 53.8053 Q1092.26 57.7983 1097.43 57.7983 Q1102.54 57.7983 1105.52 53.7705 Q1108.51 49.7428 1108.51 42.7984 Q1108.51 35.8887 1105.52 31.8609 Q1102.54 27.7985 1097.43 27.7985 M1097.43 22.3818 Q1105.77 22.3818 1110.52 27.7985 Q1115.28 33.2151 1115.28 42.7984 Q1115.28 52.3469 1110.52 57.7983 Q1105.77 63.2149 1097.43 63.2149 Q1089.07 63.2149 1084.31 57.7983 Q1079.59 52.3469 1079.59 42.7984 Q1079.59 33.2151 1084.31 27.7985 Q1089.07 22.3818 1097.43 22.3818 Z" fill="#000000" fill-rule="nonzero" fill-opacity="1" /><path clip-path="url(#clip500)" d="M1148.41 29.2915 Q1147.33 28.6665 1146.04 28.3887 Q1144.79 28.0762 1143.27 28.0762 Q1137.85 28.0762 1134.93 31.6179 Q1132.05 35.1248 1132.05 41.722 L1132.05 62.208 L1125.63 62.208 L1125.63 23.3193 L1132.05 23.3193 L1132.05 29.361 Q1134.07 25.8193 1137.29 24.1179 Q1140.52 22.3818 1145.14 22.3818 Q1145.8 22.3818 1146.6 22.486 Q1147.4 22.5554 1148.37 22.729 L1148.41 29.2915 Z" fill="#000000" fill-rule="nonzero" fill-opacity="1" /><path clip-path="url(#clip500)" d="M1210.97 41.1664 L1210.97 44.2914 L1181.6 44.2914 Q1182.02 50.8886 1185.56 54.3608 Q1189.13 57.7983 1195.49 57.7983 Q1199.17 57.7983 1202.61 56.8955 Q1206.08 55.9928 1209.48 54.1872 L1209.48 60.2288 Q1206.04 61.6872 1202.43 62.4511 Q1198.82 63.2149 1195.11 63.2149 Q1185.8 63.2149 1180.35 57.7983 Q1174.93 52.3817 1174.93 43.1456 Q1174.93 33.597 1180.07 28.0068 Q1185.25 22.3818 1194 22.3818 Q1201.84 22.3818 1206.39 27.4512 Q1210.97 32.4859 1210.97 41.1664 M1204.59 39.2915 Q1204.52 34.0484 1201.63 30.9234 Q1198.79 27.7985 1194.07 27.7985 Q1188.72 27.7985 1185.49 30.8193 Q1182.29 33.8401 1181.81 39.3262 L1204.59 39.2915 Z" fill="#000000" fill-rule="nonzero" fill-opacity="1" /><path clip-path="url(#clip500)" d="M1246.25 24.4651 L1246.25 30.5068 Q1243.54 29.1179 1240.63 28.4235 Q1237.71 27.729 1234.59 27.729 Q1229.83 27.729 1227.43 29.1873 Q1225.07 30.6457 1225.07 33.5623 Q1225.07 35.7845 1226.77 37.0692 Q1228.47 38.3192 1233.61 39.4651 L1235.8 39.9512 Q1242.61 41.4095 1245.45 44.0831 Q1248.34 46.722 1248.34 51.4789 Q1248.34 56.8955 1244.03 60.0552 Q1239.76 63.2149 1232.26 63.2149 Q1229.13 63.2149 1225.73 62.5899 Q1222.36 61.9997 1218.61 60.7844 L1218.61 54.1872 Q1222.16 56.0275 1225.59 56.965 Q1229.03 57.8677 1232.4 57.8677 Q1236.91 57.8677 1239.34 56.34 Q1241.77 54.7775 1241.77 51.965 Q1241.77 49.3608 1240 47.972 Q1238.27 46.5831 1232.33 45.2984 L1230.11 44.7775 Q1224.17 43.5275 1221.53 40.9581 Q1218.89 38.354 1218.89 33.8401 Q1218.89 28.354 1222.78 25.3679 Q1226.67 22.3818 1233.82 22.3818 Q1237.36 22.3818 1240.49 22.9027 Q1243.61 23.4235 1246.25 24.4651 Z" fill="#000000" fill-rule="nonzero" fill-opacity="1" /><path clip-path="url(#clip500)" d="M1264.69 56.3747 L1264.69 76.9996 L1258.27 76.9996 L1258.27 23.3193 L1264.69 23.3193 L1264.69 29.2221 Q1266.7 25.7499 1269.76 24.0832 Q1272.85 22.3818 1277.12 22.3818 Q1284.2 22.3818 1288.61 28.0068 Q1293.06 33.6318 1293.06 42.7984 Q1293.06 51.965 1288.61 57.59 Q1284.2 63.2149 1277.12 63.2149 Q1272.85 63.2149 1269.76 61.5483 Q1266.7 59.8469 1264.69 56.3747 M1286.43 42.7984 Q1286.43 35.7498 1283.51 31.7568 Q1280.63 27.729 1275.56 27.729 Q1270.49 27.729 1267.57 31.7568 Q1264.69 35.7498 1264.69 42.7984 Q1264.69 49.847 1267.57 53.8747 Q1270.49 57.8677 1275.56 57.8677 Q1280.63 57.8677 1283.51 53.8747 Q1286.43 49.847 1286.43 42.7984 Z" fill="#000000" fill-rule="nonzero" fill-opacity="1" /><path clip-path="url(#clip500)" d="M1336.91 41.1664 L1336.91 44.2914 L1307.54 44.2914 Q1307.95 50.8886 1311.49 54.3608 Q1315.07 57.7983 1321.43 57.7983 Q1325.11 57.7983 1328.54 56.8955 Q1332.02 55.9928 1335.42 54.1872 L1335.42 60.2288 Q1331.98 61.6872 1328.37 62.4511 Q1324.76 63.2149 1321.04 63.2149 Q1311.74 63.2149 1306.29 57.7983 Q1300.87 52.3817 1300.87 43.1456 Q1300.87 33.597 1306.01 28.0068 Q1311.18 22.3818 1319.93 22.3818 Q1327.78 22.3818 1332.33 27.4512 Q1336.91 32.4859 1336.91 41.1664 M1330.52 39.2915 Q1330.45 34.0484 1327.57 30.9234 Q1324.72 27.7985 1320 27.7985 Q1314.65 27.7985 1311.43 30.8193 Q1308.23 33.8401 1307.74 39.3262 L1330.52 39.2915 Z" fill="#000000" fill-rule="nonzero" fill-opacity="1" /><path clip-path="url(#clip500)" d="M1369.93 29.2915 Q1368.86 28.6665 1367.57 28.3887 Q1366.32 28.0762 1364.79 28.0762 Q1359.38 28.0762 1356.46 31.6179 Q1353.58 35.1248 1353.58 41.722 L1353.58 62.208 L1347.15 62.208 L1347.15 23.3193 L1353.58 23.3193 L1353.58 29.361 Q1355.59 25.8193 1358.82 24.1179 Q1362.05 22.3818 1366.67 22.3818 Q1367.33 22.3818 1368.13 22.486 Q1368.93 22.5554 1369.9 22.729 L1369.93 29.2915 Z" fill="#000000" fill-rule="nonzero" fill-opacity="1" /><path clip-path="url(#clip500)" d="M1394.31 42.6595 Q1386.56 42.6595 1383.58 44.4303 Q1380.59 46.2011 1380.59 50.472 Q1380.59 53.8747 1382.81 55.8886 Q1385.07 57.8677 1388.93 57.8677 Q1394.24 57.8677 1397.43 54.1178 Q1400.66 50.3331 1400.66 44.0831 L1400.66 42.6595 L1394.31 42.6595 M1407.05 40.0206 L1407.05 62.208 L1400.66 62.208 L1400.66 56.3053 Q1398.47 59.8469 1395.21 61.5483 Q1391.95 63.2149 1387.22 63.2149 Q1381.25 63.2149 1377.71 59.8816 Q1374.2 56.5136 1374.2 50.8886 Q1374.2 44.3262 1378.58 40.9928 Q1382.99 37.6595 1391.7 37.6595 L1400.66 37.6595 L1400.66 37.0345 Q1400.66 32.6248 1397.74 30.229 Q1394.86 27.7985 1389.62 27.7985 Q1386.29 27.7985 1383.13 28.5971 Q1379.97 29.3957 1377.05 30.9929 L1377.05 25.0901 Q1380.56 23.736 1383.86 23.0763 Q1387.15 22.3818 1390.28 22.3818 Q1398.72 22.3818 1402.88 26.7568 Q1407.05 31.1318 1407.05 40.0206 Z" fill="#000000" fill-rule="nonzero" fill-opacity="1" /><path clip-path="url(#clip500)" d="M1445.8 29.2221 L1445.8 8.18051 L1452.19 8.18051 L1452.19 62.208 L1445.8 62.208 L1445.8 56.3747 Q1443.79 59.8469 1440.7 61.5483 Q1437.64 63.2149 1433.33 63.2149 Q1426.29 63.2149 1421.84 57.59 Q1417.43 51.965 1417.43 42.7984 Q1417.43 33.6318 1421.84 28.0068 Q1426.29 22.3818 1433.33 22.3818 Q1437.64 22.3818 1440.7 24.0832 Q1443.79 25.7499 1445.8 29.2221 M1424.03 42.7984 Q1424.03 49.847 1426.91 53.8747 Q1429.83 57.8677 1434.9 57.8677 Q1439.97 57.8677 1442.88 53.8747 Q1445.8 49.847 1445.8 42.7984 Q1445.8 35.7498 1442.88 31.7568 Q1439.97 27.729 1434.9 27.729 Q1429.83 27.729 1426.91 31.7568 Q1424.03 35.7498 1424.03 42.7984 Z" fill="#000000" fill-rule="nonzero" fill-opacity="1" /><path clip-path="url(#clip500)" d="M1480.42 27.7985 Q1475.28 27.7985 1472.29 31.8262 Q1469.31 35.8193 1469.31 42.7984 Q1469.31 49.7775 1472.26 53.8053 Q1475.24 57.7983 1480.42 57.7983 Q1485.52 57.7983 1488.51 53.7705 Q1491.49 49.7428 1491.49 42.7984 Q1491.49 35.8887 1488.51 31.8609 Q1485.52 27.7985 1480.42 27.7985 M1480.42 22.3818 Q1488.75 22.3818 1493.51 27.7985 Q1498.26 33.2151 1498.26 42.7984 Q1498.26 52.3469 1493.51 57.7983 Q1488.75 63.2149 1480.42 63.2149 Q1472.05 63.2149 1467.29 57.7983 Q1462.57 52.3469 1462.57 42.7984 Q1462.57 33.2151 1467.29 27.7985 Q1472.05 22.3818 1480.42 22.3818 Z" fill="#000000" fill-rule="nonzero" fill-opacity="1" /><path clip-path="url(#clip500)" d="M1564.72 41.1664 L1564.72 44.2914 L1535.35 44.2914 Q1535.76 50.8886 1539.31 54.3608 Q1542.88 57.7983 1549.24 57.7983 Q1552.92 57.7983 1556.35 56.8955 Q1559.83 55.9928 1563.23 54.1872 L1563.23 60.2288 Q1559.79 61.6872 1556.18 62.4511 Q1552.57 63.2149 1548.85 63.2149 Q1539.55 63.2149 1534.1 57.7983 Q1528.68 52.3817 1528.68 43.1456 Q1528.68 33.597 1533.82 28.0068 Q1538.99 22.3818 1547.74 22.3818 Q1555.59 22.3818 1560.14 27.4512 Q1564.72 32.4859 1564.72 41.1664 M1558.33 39.2915 Q1558.26 34.0484 1555.38 30.9234 Q1552.54 27.7985 1547.81 27.7985 Q1542.47 27.7985 1539.24 30.8193 Q1536.04 33.8401 1535.56 39.3262 L1558.33 39.2915 Z" fill="#000000" fill-rule="nonzero" fill-opacity="1" /><path clip-path="url(#clip500)" d="M1597.81 23.3193 L1604.2 23.3193 L1604.2 62.208 L1597.81 62.208 L1597.81 23.3193 M1597.81 8.18051 L1604.2 8.18051 L1604.2 16.2707 L1597.81 16.2707 L1597.81 8.18051 Z" fill="#000000" fill-rule="nonzero" fill-opacity="1" /><path clip-path="url(#clip500)" d="M1649.9 38.7359 L1649.9 62.208 L1643.51 62.208 L1643.51 38.9442 Q1643.51 33.4234 1641.35 30.6804 Q1639.2 27.9374 1634.9 27.9374 Q1629.72 27.9374 1626.74 31.2359 Q1623.75 34.5345 1623.75 40.229 L1623.75 62.208 L1617.33 62.208 L1617.33 23.3193 L1623.75 23.3193 L1623.75 29.361 Q1626.04 25.854 1629.13 24.1179 Q1632.26 22.3818 1636.32 22.3818 Q1643.02 22.3818 1646.46 26.5485 Q1649.9 30.6804 1649.9 38.7359 Z" fill="#000000" fill-rule="nonzero" fill-opacity="1" /><path clip-path="url(#clip500)" d="M1668.96 12.2777 L1668.96 23.3193 L1682.12 23.3193 L1682.12 28.2846 L1668.96 28.2846 L1668.96 49.3956 Q1668.96 54.1525 1670.24 55.5066 Q1671.56 56.8608 1675.56 56.8608 L1682.12 56.8608 L1682.12 62.208 L1675.56 62.208 Q1668.16 62.208 1665.35 59.465 Q1662.53 56.6872 1662.53 49.3956 L1662.53 28.2846 L1657.85 28.2846 L1657.85 23.3193 L1662.53 23.3193 L1662.53 12.2777 L1668.96 12.2777 Z" fill="#000000" fill-rule="nonzero" fill-opacity="1" /><path clip-path="url(#clip500)" d="M1723.78 41.1664 L1723.78 44.2914 L1694.41 44.2914 Q1694.83 50.8886 1698.37 54.3608 Q1701.94 57.7983 1708.3 57.7983 Q1711.98 57.7983 1715.42 56.8955 Q1718.89 55.9928 1722.29 54.1872 L1722.29 60.2288 Q1718.85 61.6872 1715.24 62.4511 Q1711.63 63.2149 1707.92 63.2149 Q1698.61 63.2149 1693.16 57.7983 Q1687.74 52.3817 1687.74 43.1456 Q1687.74 33.597 1692.88 28.0068 Q1698.06 22.3818 1706.81 22.3818 Q1714.65 22.3818 1719.2 27.4512 Q1723.78 32.4859 1723.78 41.1664 M1717.4 39.2915 Q1717.33 34.0484 1714.44 30.9234 Q1711.6 27.7985 1706.87 27.7985 Q1701.53 27.7985 1698.3 30.8193 Q1695.1 33.8401 1694.62 39.3262 L1717.4 39.2915 Z" fill="#000000" fill-rule="nonzero" fill-opacity="1" /><path clip-path="url(#clip500)" d="M1756.81 29.2915 Q1755.73 28.6665 1754.44 28.3887 Q1753.19 28.0762 1751.67 28.0762 Q1746.25 28.0762 1743.33 31.6179 Q1740.45 35.1248 1740.45 41.722 L1740.45 62.208 L1734.03 62.208 L1734.03 23.3193 L1740.45 23.3193 L1740.45 29.361 Q1742.46 25.8193 1745.69 24.1179 Q1748.92 22.3818 1753.54 22.3818 Q1754.2 22.3818 1755 22.486 Q1755.8 22.5554 1756.77 22.729 L1756.81 29.2915 Z" fill="#000000" fill-rule="nonzero" fill-opacity="1" /><path clip-path="url(#clip500)" d="M1758.92 23.3193 L1765.69 23.3193 L1777.85 55.958 L1790 23.3193 L1796.77 23.3193 L1782.19 62.208 L1773.51 62.208 L1758.92 23.3193 Z" fill="#000000" fill-rule="nonzero" fill-opacity="1" /><path clip-path="url(#clip500)" d="M1823.26 42.6595 Q1815.52 42.6595 1812.53 44.4303 Q1809.55 46.2011 1809.55 50.472 Q1809.55 53.8747 1811.77 55.8886 Q1814.03 57.8677 1817.88 57.8677 Q1823.19 57.8677 1826.39 54.1178 Q1829.62 50.3331 1829.62 44.0831 L1829.62 42.6595 L1823.26 42.6595 M1836.01 40.0206 L1836.01 62.208 L1829.62 62.208 L1829.62 56.3053 Q1827.43 59.8469 1824.17 61.5483 Q1820.9 63.2149 1816.18 63.2149 Q1810.21 63.2149 1806.67 59.8816 Q1803.16 56.5136 1803.16 50.8886 Q1803.16 44.3262 1807.53 40.9928 Q1811.94 37.6595 1820.66 37.6595 L1829.62 37.6595 L1829.62 37.0345 Q1829.62 32.6248 1826.7 30.229 Q1823.82 27.7985 1818.58 27.7985 Q1815.24 27.7985 1812.08 28.5971 Q1808.92 29.3957 1806.01 30.9929 L1806.01 25.0901 Q1809.51 23.736 1812.81 23.0763 Q1816.11 22.3818 1819.24 22.3818 Q1827.67 22.3818 1831.84 26.7568 Q1836.01 31.1318 1836.01 40.0206 Z" fill="#000000" fill-rule="nonzero" fill-opacity="1" /><path clip-path="url(#clip500)" d="M1849.17 8.18051 L1855.55 8.18051 L1855.55 62.208 L1849.17 62.208 L1849.17 8.18051 Z" fill="#000000" fill-rule="nonzero" fill-opacity="1" /><path clip-path="url(#clip500)" d="M1883.99 27.7985 Q1878.85 27.7985 1875.87 31.8262 Q1872.88 35.8193 1872.88 42.7984 Q1872.88 49.7775 1875.83 53.8053 Q1878.82 57.7983 1883.99 57.7983 Q1889.1 57.7983 1892.08 53.7705 Q1895.07 49.7428 1895.07 42.7984 Q1895.07 35.8887 1892.08 31.8609 Q1889.1 27.7985 1883.99 27.7985 M1883.99 22.3818 Q1892.33 22.3818 1897.08 27.7985 Q1901.84 33.2151 1901.84 42.7984 Q1901.84 52.3469 1897.08 57.7983 Q1892.33 63.2149 1883.99 63.2149 Q1875.62 63.2149 1870.87 57.7983 Q1866.14 52.3469 1866.14 42.7984 Q1866.14 33.2151 1870.87 27.7985 Q1875.62 22.3818 1883.99 22.3818 Z" fill="#000000" fill-rule="nonzero" fill-opacity="1" /><path clip-path="url(#clip500)" d="M1937.22 24.4651 L1937.22 30.5068 Q1934.51 29.1179 1931.6 28.4235 Q1928.68 27.729 1925.55 27.729 Q1920.8 27.729 1918.4 29.1873 Q1916.04 30.6457 1916.04 33.5623 Q1916.04 35.7845 1917.74 37.0692 Q1919.44 38.3192 1924.58 39.4651 L1926.77 39.9512 Q1933.57 41.4095 1936.42 44.0831 Q1939.3 46.722 1939.3 51.4789 Q1939.3 56.8955 1935 60.0552 Q1930.73 63.2149 1923.23 63.2149 Q1920.1 63.2149 1916.7 62.5899 Q1913.33 61.9997 1909.58 60.7844 L1909.58 54.1872 Q1913.12 56.0275 1916.56 56.965 Q1920 57.8677 1923.37 57.8677 Q1927.88 57.8677 1930.31 56.34 Q1932.74 54.7775 1932.74 51.965 Q1932.74 49.3608 1930.97 47.972 Q1929.23 46.5831 1923.3 45.2984 L1921.08 44.7775 Q1915.14 43.5275 1912.5 40.9581 Q1909.86 38.354 1909.86 33.8401 Q1909.86 28.354 1913.75 25.3679 Q1917.64 22.3818 1924.79 22.3818 Q1928.33 22.3818 1931.46 22.9027 Q1934.58 23.4235 1937.22 24.4651 Z" fill="#000000" fill-rule="nonzero" fill-opacity="1" /><path clip-path="url(#clip500)" d="M1997.67 29.2221 L1997.67 8.18051 L2004.06 8.18051 L2004.06 62.208 L1997.67 62.208 L1997.67 56.3747 Q1995.66 59.8469 1992.57 61.5483 Q1989.51 63.2149 1985.21 63.2149 Q1978.16 63.2149 1973.71 57.59 Q1969.3 51.965 1969.3 42.7984 Q1969.3 33.6318 1973.71 28.0068 Q1978.16 22.3818 1985.21 22.3818 Q1989.51 22.3818 1992.57 24.0832 Q1995.66 25.7499 1997.67 29.2221 M1975.9 42.7984 Q1975.9 49.847 1978.78 53.8747 Q1981.7 57.8677 1986.77 57.8677 Q1991.84 57.8677 1994.76 53.8747 Q1997.67 49.847 1997.67 42.7984 Q1997.67 35.7498 1994.76 31.7568 Q1991.84 27.729 1986.77 27.729 Q1981.7 27.729 1978.78 31.7568 Q1975.9 35.7498 1975.9 42.7984 Z" fill="#000000" fill-rule="nonzero" fill-opacity="1" /><path clip-path="url(#clip500)" d="M2050.48 41.1664 L2050.48 44.2914 L2021.11 44.2914 Q2021.53 50.8886 2025.07 54.3608 Q2028.64 57.7983 2035 57.7983 Q2038.68 57.7983 2042.12 56.8955 Q2045.59 55.9928 2048.99 54.1872 L2048.99 60.2288 Q2045.55 61.6872 2041.94 62.4511 Q2038.33 63.2149 2034.62 63.2149 Q2025.31 63.2149 2019.86 57.7983 Q2014.44 52.3817 2014.44 43.1456 Q2014.44 33.597 2019.58 28.0068 Q2024.76 22.3818 2033.5 22.3818 Q2041.35 22.3818 2045.9 27.4512 Q2050.48 32.4859 2050.48 41.1664 M2044.1 39.2915 Q2044.03 34.0484 2041.14 30.9234 Q2038.3 27.7985 2033.57 27.7985 Q2028.23 27.7985 2025 30.8193 Q2021.8 33.8401 2021.32 39.3262 L2044.1 39.2915 Z" fill="#000000" fill-rule="nonzero" fill-opacity="1" /><path clip-path="url(#clip500)" d="M2111.56 24.8124 L2111.56 30.7846 Q2108.85 29.2915 2106.11 28.5623 Q2103.4 27.7985 2100.62 27.7985 Q2094.41 27.7985 2090.97 31.7568 Q2087.53 35.6804 2087.53 42.7984 Q2087.53 49.9164 2090.97 53.8747 Q2094.41 57.7983 2100.62 57.7983 Q2103.4 57.7983 2106.11 57.0691 Q2108.85 56.3053 2111.56 54.8122 L2111.56 60.715 Q2108.89 61.9649 2106 62.5899 Q2103.16 63.2149 2099.93 63.2149 Q2091.14 63.2149 2085.97 57.6941 Q2080.8 52.1733 2080.8 42.7984 Q2080.8 33.2845 2086 27.8332 Q2091.25 22.3818 2100.34 22.3818 Q2103.3 22.3818 2106.11 23.0068 Q2108.92 23.5971 2111.56 24.8124 Z" fill="#000000" fill-rule="nonzero" fill-opacity="1" /><path clip-path="url(#clip500)" d="M2137.74 27.7985 Q2132.6 27.7985 2129.62 31.8262 Q2126.63 35.8193 2126.63 42.7984 Q2126.63 49.7775 2129.58 53.8053 Q2132.57 57.7983 2137.74 57.7983 Q2142.84 57.7983 2145.83 53.7705 Q2148.82 49.7428 2148.82 42.7984 Q2148.82 35.8887 2145.83 31.8609 Q2142.84 27.7985 2137.74 27.7985 M2137.74 22.3818 Q2146.07 22.3818 2150.83 27.7985 Q2155.59 33.2151 2155.59 42.7984 Q2155.59 52.3469 2150.83 57.7983 Q2146.07 63.2149 2137.74 63.2149 Q2129.37 63.2149 2124.62 57.7983 Q2119.89 52.3469 2119.89 42.7984 Q2119.89 33.2151 2124.62 27.7985 Q2129.37 22.3818 2137.74 22.3818 Z" fill="#000000" fill-rule="nonzero" fill-opacity="1" /><path clip-path="url(#clip500)" d="M2198.5 38.7359 L2198.5 62.208 L2192.12 62.208 L2192.12 38.9442 Q2192.12 33.4234 2189.96 30.6804 Q2187.81 27.9374 2183.5 27.9374 Q2178.33 27.9374 2175.34 31.2359 Q2172.36 34.5345 2172.36 40.229 L2172.36 62.208 L2165.93 62.208 L2165.93 23.3193 L2172.36 23.3193 L2172.36 29.361 Q2174.65 25.854 2177.74 24.1179 Q2180.87 22.3818 2184.93 22.3818 Q2191.63 22.3818 2195.07 26.5485 Q2198.5 30.6804 2198.5 38.7359 Z" fill="#000000" fill-rule="nonzero" fill-opacity="1" /><path clip-path="url(#clip500)" d="M2230.93 8.18051 L2230.93 13.493 L2224.82 13.493 Q2221.39 13.493 2220.03 14.8819 Q2218.71 16.2707 2218.71 19.8818 L2218.71 23.3193 L2229.23 23.3193 L2229.23 28.2846 L2218.71 28.2846 L2218.71 62.208 L2212.29 62.208 L2212.29 28.2846 L2206.18 28.2846 L2206.18 23.3193 L2212.29 23.3193 L2212.29 20.611 Q2212.29 14.118 2215.31 11.1666 Q2218.33 8.18051 2224.89 8.18051 L2230.93 8.18051 Z" fill="#000000" fill-rule="nonzero" fill-opacity="1" /><path clip-path="url(#clip500)" d="M2236.28 23.3193 L2242.67 23.3193 L2242.67 62.208 L2236.28 62.208 L2236.28 23.3193 M2236.28 8.18051 L2242.67 8.18051 L2242.67 16.2707 L2236.28 16.2707 L2236.28 8.18051 Z" fill="#000000" fill-rule="nonzero" fill-opacity="1" /><path clip-path="url(#clip500)" d="M2273.71 42.6595 Q2265.97 42.6595 2262.98 44.4303 Q2260 46.2011 2260 50.472 Q2260 53.8747 2262.22 55.8886 Q2264.48 57.8677 2268.33 57.8677 Q2273.64 57.8677 2276.84 54.1178 Q2280.07 50.3331 2280.07 44.0831 L2280.07 42.6595 L2273.71 42.6595 M2286.45 40.0206 L2286.45 62.208 L2280.07 62.208 L2280.07 56.3053 Q2277.88 59.8469 2274.61 61.5483 Q2271.35 63.2149 2266.63 63.2149 Q2260.66 63.2149 2257.11 59.8816 Q2253.61 56.5136 2253.61 50.8886 Q2253.61 44.3262 2257.98 40.9928 Q2262.39 37.6595 2271.11 37.6595 L2280.07 37.6595 L2280.07 37.0345 Q2280.07 32.6248 2277.15 30.229 Q2274.27 27.7985 2269.02 27.7985 Q2265.69 27.7985 2262.53 28.5971 Q2259.37 29.3957 2256.46 30.9929 L2256.46 25.0901 Q2259.96 23.736 2263.26 23.0763 Q2266.56 22.3818 2269.68 22.3818 Q2278.12 22.3818 2282.29 26.7568 Q2286.45 31.1318 2286.45 40.0206 Z" fill="#000000" fill-rule="nonzero" fill-opacity="1" /><path clip-path="url(#clip500)" d="M2331.94 38.7359 L2331.94 62.208 L2325.55 62.208 L2325.55 38.9442 Q2325.55 33.4234 2323.4 30.6804 Q2321.25 27.9374 2316.94 27.9374 Q2311.77 27.9374 2308.78 31.2359 Q2305.8 34.5345 2305.8 40.229 L2305.8 62.208 L2299.37 62.208 L2299.37 23.3193 L2305.8 23.3193 L2305.8 29.361 Q2308.09 25.854 2311.18 24.1179 Q2314.3 22.3818 2318.36 22.3818 Q2325.07 22.3818 2328.5 26.5485 Q2331.94 30.6804 2331.94 38.7359 Z" fill="#000000" fill-rule="nonzero" fill-opacity="1" /><path clip-path="url(#clip500)" d="M2372.67 24.8124 L2372.67 30.7846 Q2369.96 29.2915 2367.22 28.5623 Q2364.51 27.7985 2361.73 27.7985 Q2355.52 27.7985 2352.08 31.7568 Q2348.64 35.6804 2348.64 42.7984 Q2348.64 49.9164 2352.08 53.8747 Q2355.52 57.7983 2361.73 57.7983 Q2364.51 57.7983 2367.22 57.0691 Q2369.96 56.3053 2372.67 54.8122 L2372.67 60.715 Q2370 61.9649 2367.11 62.5899 Q2364.27 63.2149 2361.04 63.2149 Q2352.25 63.2149 2347.08 57.6941 Q2341.91 52.1733 2341.91 42.7984 Q2341.91 33.2845 2347.11 27.8332 Q2352.36 22.3818 2361.45 22.3818 Q2364.41 22.3818 2367.22 23.0068 Q2370.03 23.5971 2372.67 24.8124 M2363.64 62.208 Q2365.55 64.3608 2366.49 66.1663 Q2367.43 68.0066 2367.43 69.6732 Q2367.43 72.7635 2365.34 74.326 Q2363.26 75.9232 2359.16 75.9232 Q2357.57 75.9232 2356.04 75.7149 Q2354.54 75.5065 2353.05 75.0899 L2353.05 70.5413 Q2354.23 71.1316 2355.52 71.3746 Q2356.8 71.6524 2358.43 71.6524 Q2360.48 71.6524 2361.52 70.8191 Q2362.57 69.9857 2362.57 68.3885 Q2362.57 67.3469 2361.8 65.8191 Q2361.07 64.326 2359.51 62.208 L2363.64 62.208 Z" fill="#000000" fill-rule="nonzero" fill-opacity="1" /><path clip-path="url(#clip500)" d="M2401.45 42.6595 Q2393.71 42.6595 2390.73 44.4303 Q2387.74 46.2011 2387.74 50.472 Q2387.74 53.8747 2389.96 55.8886 Q2392.22 57.8677 2396.07 57.8677 Q2401.38 57.8677 2404.58 54.1178 Q2407.81 50.3331 2407.81 44.0831 L2407.81 42.6595 L2401.45 42.6595 M2414.2 40.0206 L2414.2 62.208 L2407.81 62.208 L2407.81 56.3053 Q2405.62 59.8469 2402.36 61.5483 Q2399.09 63.2149 2394.37 63.2149 Q2388.4 63.2149 2384.86 59.8816 Q2381.35 56.5136 2381.35 50.8886 Q2381.35 44.3262 2385.73 40.9928 Q2390.13 37.6595 2398.85 37.6595 L2407.81 37.6595 L2407.81 37.0345 Q2407.81 32.6248 2404.89 30.229 Q2402.01 27.7985 2396.77 27.7985 Q2393.43 27.7985 2390.27 28.5971 Q2387.11 29.3957 2384.2 30.9929 L2384.2 25.0901 Q2387.7 23.736 2391 23.0763 Q2394.3 22.3818 2397.43 22.3818 Q2405.86 22.3818 2410.03 26.7568 Q2414.2 31.1318 2414.2 40.0206 Z" fill="#000000" fill-rule="nonzero" fill-opacity="1" /><path clip-path="url(#clip502)" d="M316.418 2145.95 L330.256 2125.57 L344.094 2104.07 L357.932 2081.4 L371.769 2057.55 L385.607 2032.5 L399.445 2006.22 L413.283 1978.71 L427.121 1949.96 L440.958 1919.98 L454.796 1888.78 L468.634 1856.38 L482.472 1822.94 L496.31 1788.55 L510.148 1753.12 L523.985 1716.69 L537.823 1679.31 L551.661 1641.06 L565.499 1601.65 L579.337 1561.5 L593.174 1520.72 L607.012 1479.4 L620.85 1437.66 L634.688 1395.59 L648.526 1353.37 L662.364 1311.11 L676.201 1269.45 L690.039 1227.46 L703.877 1185.77 L717.715 1145.24 L731.553 1105.12 L745.39 1065.74 L759.228 1027.35 L773.066 988.666 L786.904 950.902 L800.742 914.07 L814.58 878.489 L828.417 843.375 L842.255 809.393 L856.093 776.596 L869.931 746.32 L883.769 718.48 L897.606 690.846 L911.444 664.368 L925.282 639.164 L939.12 615.507 L952.958 592.365 L966.796 570.488 L980.633 549.836 L994.471 530.329 L1008.31 513.053 L1022.15 496.756 L1035.98 480.874 L1049.82 466.449 L1063.66 452.913 L1077.5 440.072 L1091.34 427.932 L1105.17 416.615 L1119.01 405.576 L1132.85 394.905 L1146.69 385.974 L1160.53 377.886 L1174.36 370.498 L1188.2 363.884 L1202.04 357.168 L1215.88 350.369 L1229.71 343.981 L1243.55 338.044 L1257.39 333.092 L1271.23 328.143 L1285.07 323.314 L1298.9 318.995 L1312.74 315.117 L1326.58 311.507 L1340.42 308.149 L1354.25 305.013 L1368.09 302.108 L1381.93 299.404 L1395.77 296.887 L1409.61 294.547 L1423.44 292.459 L1437.28 290.578 L1451.12 288.782 L1464.96 286.991 L1478.79 285.336 L1492.63 283.808 L1506.47 282.396 L1520.31 281.091 L1534.15 279.884 L1547.98 278.763 L1561.82 277.718 L1575.66 276.739 L1589.5 275.818 L1603.34 274.957 L1617.17 274.156 L1631.01 273.46 L1644.85 272.826 L1658.69 272.239 L1672.52 271.696 L1686.36 271.194 L1700.2 270.73 L1714.04 270.301 L1727.88 269.904 L1741.71 269.538 L1755.55 269.199 L1769.39 268.885 L1783.23 268.593 L1797.06 268.32 L1810.9 268.065 L1824.74 267.824 L1838.58 267.599 L1852.42 267.356 L1866.25 267.131 L1880.09 266.922 L1893.93 266.728 L1907.77 266.55 L1921.61 266.386 L1935.44 266.236 L1949.28 266.098 L1963.12 265.972 L1976.96 265.857 L1990.79 265.752 L2004.63 265.657 L2018.47 265.569 L2032.31 265.488 L2046.15 265.413 L2059.98 265.343 L2073.82 265.277 L2087.66 265.213 L2101.5 265.152 L2115.33 265.093 L2129.17 265.038 L2143.01 264.985 L2156.85 264.936 L2170.69 264.891 L2184.52 264.849 L2198.36 264.81 L2212.2 264.774 L2226.04 264.741 L2239.87 264.711 L2253.71 264.683 L2267.55 264.659 L2281.39 264.636 L2295.23 264.616 L2309.06 264.598 L2322.9 264.582 L2336.74 264.567 L2350.58 264.554 L2364.42 264.542 L2378.25 264.531 L2392.09 264.52 L2405.93 264.51 L2419.77 264.499 L2433.6 264.489 L2447.44 264.478 L2461.28 264.468 L2475.12 264.458 L2488.96 264.448 L2502.79 264.439 L2516.63 264.43 L2530.47 264.422 L2544.31 264.414 L2558.14 264.407 L2571.98 264.401 L2585.82 264.395 L2599.66 264.389 L2613.5 264.385 L2627.33 264.381 L2641.17 264.378 L2655.01 264.375 L2668.85 264.373 L2682.69 264.371 L2696.52 264.37 L2710.36 264.37 L2724.2 264.369 L2738.04 264.369 L2751.87 264.37 L2765.71 264.37 L2779.55 264.371 L2793.39 264.372 L2807.23 264.372 L2821.06 264.372 L2834.9 264.373 L2848.74 264.372 L2862.58 264.371 L2876.41 264.37 L2890.25 264.369 L2904.09 264.368 L2917.93 264.366 L2931.77 264.365 L2945.6 264.363 L2959.44 264.362 L2973.28 264.361 L2987.12 264.36 L3000.96 264.359 L3014.79 264.358 L3028.63 264.357 L3042.47 264.356 L3056.31 264.356 L3070.14 264.355 L3070.14 180.282 L3056.31 180.283 L3042.47 180.283 L3028.63 180.284 L3014.79 180.284 L3000.96 180.285 L2987.12 180.286 L2973.28 180.287 L2959.44 180.287 L2945.6 180.288 L2931.77 180.289 L2917.93 180.29 L2904.09 180.292 L2890.25 180.293 L2876.41 180.294 L2862.58 180.295 L2848.74 180.296 L2834.9 180.297 L2821.06 180.297 L2807.23 180.298 L2793.39 180.299 L2779.55 180.299 L2765.71 180.3 L2751.87 180.301 L2738.04 180.302 L2724.2 180.303 L2710.36 180.305 L2696.52 180.306 L2682.69 180.307 L2668.85 180.309 L2655.01 180.31 L2641.17 180.312 L2627.33 180.314 L2613.5 180.317 L2599.66 180.32 L2585.82 180.324 L2571.98 180.328 L2558.14 180.333 L2544.31 180.338 L2530.47 180.344 L2516.63 180.351 L2502.79 180.358 L2488.96 180.366 L2475.12 180.375 L2461.28 180.384 L2447.44 180.394 L2433.6 180.405 L2419.77 180.415 L2405.93 180.426 L2392.09 180.438 L2378.25 180.45 L2364.42 180.462 L2350.58 180.476 L2336.74 180.49 L2322.9 180.506 L2309.06 180.521 L2295.23 180.538 L2281.39 180.555 L2267.55 180.574 L2253.71 180.594 L2239.87 180.617 L2226.04 180.641 L2212.2 180.669 L2198.36 180.699 L2184.52 180.733 L2170.69 180.77 L2156.85 180.811 L2143.01 180.855 L2129.17 180.903 L2115.33 180.956 L2101.5 181.012 L2087.66 181.073 L2073.82 181.138 L2059.98 181.206 L2046.15 181.279 L2032.31 181.357 L2018.47 181.44 L2004.63 181.53 L1990.79 181.626 L1976.96 181.729 L1963.12 181.839 L1949.28 181.958 L1935.44 182.087 L1921.61 182.227 L1907.77 182.379 L1893.93 182.544 L1880.09 182.723 L1866.25 182.918 L1852.42 183.128 L1838.58 183.356 L1824.74 183.602 L1810.9 183.868 L1797.06 184.153 L1783.23 184.459 L1769.39 184.787 L1755.55 185.138 L1741.71 185.516 L1727.88 185.922 L1714.04 186.363 L1700.2 186.851 L1686.36 187.377 L1672.52 187.943 L1658.69 188.555 L1644.85 189.217 L1631.01 189.921 L1617.17 190.594 L1603.34 191.32 L1589.5 192.101 L1575.66 192.942 L1561.82 193.84 L1547.98 194.8 L1534.15 195.827 L1520.31 196.931 L1506.47 198.12 L1492.63 199.404 L1478.79 200.793 L1464.96 202.295 L1451.12 203.922 L1437.28 205.682 L1423.44 207.523 L1409.61 209.501 L1395.77 211.642 L1381.93 214.098 L1368.09 216.742 L1354.25 219.583 L1340.42 222.6 L1326.58 225.442 L1312.74 228.711 L1298.9 232.761 L1285.07 236.699 L1271.23 240.985 L1257.39 246.107 L1243.55 250.66 L1229.71 255.697 L1215.88 261 L1202.04 266.612 L1188.2 272.499 L1174.36 278.811 L1160.53 285.577 L1146.69 292.693 L1132.85 299.908 L1119.01 307.64 L1105.17 316.057 L1091.34 325.354 L1077.5 336.264 L1063.66 347.988 L1049.82 359.412 L1035.98 370.924 L1022.15 383.312 L1008.31 397.125 L994.471 411.784 L980.633 427.484 L966.796 444.065 L952.958 460.767 L939.12 478.379 L925.282 498.035 L911.444 518.158 L897.606 539.602 L883.769 562.374 L869.931 586.007 L856.093 610.813 L842.255 636.833 L828.417 663.393 L814.58 691.079 L800.742 719.989 L786.904 750.596 L773.066 782.402 L759.228 815.759 L745.39 849.965 L731.553 885.188 L717.715 921.472 L703.877 958.665 L690.039 996.586 L676.201 1035.06 L662.364 1074.32 L648.526 1114.34 L634.688 1155.48 L620.85 1197.07 L607.012 1239.27 L593.174 1281.21 L579.337 1322.95 L565.499 1364.83 L551.661 1406.7 L537.823 1448.2 L523.985 1489.41 L510.148 1530.21 L496.31 1570.67 L482.472 1610.34 L468.634 1648.94 L454.796 1686.99 L440.958 1724.13 L427.121 1760.29 L413.283 1795.45 L399.445 1829.54 L385.607 1862.64 L371.769 1894.63 L357.932 1925.49 L344.094 1955.05 L330.256 1983.51 L316.418 2010.83  Z" fill="#009af9" fill-rule="evenodd" fill-opacity="0.2"/>
<polyline clip-path="url(#clip502)" style="stroke:#009af9; stroke-linecap:round; stroke-linejoin:round; stroke-width:12; stroke-opacity:1; fill:none" points="316.418,2075.28 330.256,2051.39 344.094,2026.32 357.932,2000.06 371.769,1972.52 385.607,1943.65 399.445,1913.54 413.283,1882.33 427.121,1850.04 440.958,1816.61 454.796,1782.08 468.634,1746.5 482.472,1709.93 496.31,1672.22 510.148,1633.28 523.985,1593.51 537.823,1553.14 551.661,1512.73 565.499,1471.84 579.337,1430.07 593.174,1387.99 607.012,1346.14 620.85,1304.44 634.688,1262.69 648.526,1220.89 662.364,1179.32 676.201,1138.01 690.039,1098.06 703.877,1058.32 717.715,1019.45 731.553,982.318 745.39,945.953 759.228,910.478 773.066,875.465 786.904,842.678 800.742,810.954 814.58,779.499 828.417,749.128 842.255,719.81 856.093,690.817 869.931,662.076 883.769,636.378 897.606,610.97 911.444,587.769 925.282,566.922 939.12,546.131 952.958,525.44 966.796,505.612 980.633,486.597 994.471,471.038 1008.31,454.686 1022.15,439.701 1035.98,425.986 1049.82,411.979 1063.66,399.32 1077.5,387.475 1091.34,377.288 1105.17,366.001 1119.01,357.138 1132.85,348.817 1146.69,339.913 1160.53,331.892 1174.36,323.475 1188.2,316.507 1202.04,311.021 1215.88,305.491 1229.71,299.753 1243.55,294.178 1257.39,289.012 1271.23,284.544 1285.07,280.321 1298.9,276.139 1312.74,272.261 1326.58,268.647 1340.42,265.285 1354.25,262.037 1368.09,259.313 1381.93,256.892 1395.77,254.704 1409.61,252.357 1423.44,250.157 1437.28,247.844 1451.12,245.881 1464.96,244.377 1478.79,243.021 1492.63,241.628 1506.47,240.207 1520.31,238.896 1534.15,237.827 1547.98,236.843 1561.82,235.79 1575.66,234.807 1589.5,233.893 1603.34,233.042 1617.17,232.253 1631.01,231.462 1644.85,230.699 1658.69,230.041 1672.52,229.491 1686.36,228.957 1700.2,228.444 1714.04,228.037 1727.88,227.696 1741.71,227.381 1755.55,227.092 1769.39,226.824 1783.23,226.578 1797.06,226.349 1810.9,226.136 1824.74,225.937 1838.58,225.75 1852.42,225.574 1866.25,225.407 1880.09,225.247 1893.93,225.094 1907.77,224.952 1921.61,224.82 1935.44,224.7 1949.28,224.589 1963.12,224.484 1976.96,224.389 1990.79,224.302 2004.63,224.222 2018.47,224.149 2032.31,224.078 2046.15,224.007 2059.98,223.94 2073.82,223.876 2087.66,223.814 2101.5,223.755 2115.33,223.699 2129.17,223.646 2143.01,223.597 2156.85,223.551 2170.69,223.508 2184.52,223.469 2198.36,223.433 2212.2,223.4 2226.04,223.37 2239.87,223.342 2253.71,223.317 2267.55,223.295 2281.39,223.275 2295.23,223.257 2309.06,223.241 2322.9,223.226 2336.74,223.213 2350.58,223.202 2364.42,223.191 2378.25,223.18 2392.09,223.17 2405.93,223.16 2419.77,223.15 2433.6,223.139 2447.44,223.129 2461.28,223.119 2475.12,223.109 2488.96,223.1 2502.79,223.091 2516.63,223.083 2530.47,223.075 2544.31,223.068 2558.14,223.061 2571.98,223.056 2585.82,223.05 2599.66,223.046 2613.5,223.042 2627.33,223.038 2641.17,223.036 2655.01,223.034 2668.85,223.032 2682.69,223.031 2696.52,223.03 2710.36,223.03 2724.2,223.03 2738.04,223.03 2751.87,223.031 2765.71,223.031 2779.55,223.032 2793.39,223.033 2807.23,223.033 2821.06,223.033 2834.9,223.032 2848.74,223.032 2862.58,223.031 2876.41,223.029 2890.25,223.028 2904.09,223.026 2917.93,223.025 2931.77,223.024 2945.6,223.022 2959.44,223.021 2973.28,223.02 2987.12,223.019 3000.96,223.018 3014.79,223.018 3028.63,223.017 3042.47,223.016 3056.31,223.015 3070.14,223.015 "/>
<path clip-path="url(#clip502)" d="M316.418 2125.46 L330.256 2103.98 L344.094 2081.32 L357.932 2057.51 L371.769 2032.55 L385.607 2006.44 L399.445 1979.26 L413.283 1950.83 L427.121 1921.3 L440.958 1890.61 L454.796 1858.76 L468.634 1825.77 L482.472 1791.67 L496.31 1756.3 L510.148 1719.84 L523.985 1682.48 L537.823 1644.19 L551.661 1605.07 L565.499 1565.24 L579.337 1524.8 L593.174 1483.85 L607.012 1442.5 L620.85 1400.86 L634.688 1359.21 L648.526 1317.69 L662.364 1276.25 L676.201 1235.02 L690.039 1193.5 L703.877 1151.95 L717.715 1111.36 L731.553 1071.65 L745.39 1032.55 L759.228 994.241 L773.066 956.954 L786.904 920.683 L800.742 885.626 L814.58 851.999 L828.417 819.533 L842.255 787.594 L856.093 756.649 L869.931 726.274 L883.769 697.981 L897.606 670.717 L911.444 645.048 L925.282 619.265 L939.12 595.716 L952.958 573.63 L966.796 552.448 L980.633 531.85 L994.471 512.704 L1008.31 493.553 L1022.15 475.625 L1035.98 459.372 L1049.82 443.733 L1063.66 430.829 L1077.5 418.734 L1091.34 406.801 L1105.17 395.657 L1119.01 384.893 L1132.85 374.826 L1146.69 365.918 L1160.53 357.214 L1174.36 349.356 L1188.2 341.636 L1202.04 334.644 L1215.88 327.985 L1229.71 322.414 L1243.55 316.179 L1257.39 310.745 L1271.23 306.522 L1285.07 302.555 L1298.9 298.747 L1312.74 295.134 L1326.58 291.735 L1340.42 288.577 L1354.25 285.816 L1368.09 283.131 L1381.93 280.632 L1395.77 278.309 L1409.61 276.12 L1423.44 273.998 L1437.28 271.902 L1451.12 270.206 L1464.96 268.657 L1478.79 266.984 L1492.63 265.56 L1506.47 264.442 L1520.31 263.406 L1534.15 262.485 L1547.98 261.562 L1561.82 260.647 L1575.66 259.774 L1589.5 258.923 L1603.34 258.148 L1617.17 257.402 L1631.01 256.687 L1644.85 256.05 L1658.69 255.51 L1672.52 255.012 L1686.36 254.552 L1700.2 254.127 L1714.04 253.726 L1727.88 253.348 L1741.71 252.998 L1755.55 252.673 L1769.39 252.371 L1783.23 252.115 L1797.06 251.884 L1810.9 251.671 L1824.74 251.476 L1838.58 251.295 L1852.42 251.129 L1866.25 250.974 L1880.09 250.827 L1893.93 250.688 L1907.77 250.565 L1921.61 250.429 L1935.44 250.295 L1949.28 250.173 L1963.12 250.061 L1976.96 249.959 L1990.79 249.866 L2004.63 249.782 L2018.47 249.705 L2032.31 249.635 L2046.15 249.571 L2059.98 249.514 L2073.82 249.462 L2087.66 249.412 L2101.5 249.364 L2115.33 249.319 L2129.17 249.276 L2143.01 249.235 L2156.85 249.196 L2170.69 249.16 L2184.52 249.126 L2198.36 249.095 L2212.2 249.066 L2226.04 249.04 L2239.87 249.016 L2253.71 248.994 L2267.55 248.975 L2281.39 248.958 L2295.23 248.942 L2309.06 248.928 L2322.9 248.916 L2336.74 248.906 L2350.58 248.896 L2364.42 248.888 L2378.25 248.88 L2392.09 248.873 L2405.93 248.866 L2419.77 248.859 L2433.6 248.851 L2447.44 248.843 L2461.28 248.835 L2475.12 248.827 L2488.96 248.819 L2502.79 248.811 L2516.63 248.804 L2530.47 248.797 L2544.31 248.79 L2558.14 248.784 L2571.98 248.778 L2585.82 248.773 L2599.66 248.769 L2613.5 248.765 L2627.33 248.761 L2641.17 248.758 L2655.01 248.756 L2668.85 248.754 L2682.69 248.752 L2696.52 248.751 L2710.36 248.751 L2724.2 248.751 L2738.04 248.751 L2751.87 248.751 L2765.71 248.752 L2779.55 248.752 L2793.39 248.753 L2807.23 248.754 L2821.06 248.755 L2834.9 248.755 L2848.74 248.756 L2862.58 248.756 L2876.41 248.755 L2890.25 248.754 L2904.09 248.753 L2917.93 248.751 L2931.77 248.75 L2945.6 248.749 L2959.44 248.748 L2973.28 248.747 L2987.12 248.746 L3000.96 248.745 L3014.79 248.744 L3028.63 248.744 L3042.47 248.743 L3056.31 248.742 L3070.14 248.742 L3070.14 198.727 L3056.31 198.728 L3042.47 198.729 L3028.63 198.729 L3014.79 198.73 L3000.96 198.731 L2987.12 198.732 L2973.28 198.733 L2959.44 198.734 L2945.6 198.735 L2931.77 198.736 L2917.93 198.737 L2904.09 198.738 L2890.25 198.739 L2876.41 198.74 L2862.58 198.741 L2848.74 198.74 L2834.9 198.74 L2821.06 198.739 L2807.23 198.739 L2793.39 198.738 L2779.55 198.737 L2765.71 198.736 L2751.87 198.736 L2738.04 198.736 L2724.2 198.736 L2710.36 198.737 L2696.52 198.738 L2682.69 198.74 L2668.85 198.742 L2655.01 198.744 L2641.17 198.747 L2627.33 198.751 L2613.5 198.755 L2599.66 198.76 L2585.82 198.765 L2571.98 198.771 L2558.14 198.777 L2544.31 198.784 L2530.47 198.791 L2516.63 198.799 L2502.79 198.807 L2488.96 198.815 L2475.12 198.823 L2461.28 198.832 L2447.44 198.84 L2433.6 198.849 L2419.77 198.858 L2405.93 198.867 L2392.09 198.877 L2378.25 198.886 L2364.42 198.897 L2350.58 198.909 L2336.74 198.922 L2322.9 198.937 L2309.06 198.953 L2295.23 198.971 L2281.39 198.991 L2267.55 199.013 L2253.71 199.037 L2239.87 199.064 L2226.04 199.093 L2212.2 199.124 L2198.36 199.158 L2184.52 199.195 L2170.69 199.234 L2156.85 199.276 L2143.01 199.321 L2129.17 199.369 L2115.33 199.421 L2101.5 199.476 L2087.66 199.534 L2073.82 199.593 L2059.98 199.657 L2046.15 199.726 L2032.31 199.8 L2018.47 199.881 L2004.63 199.97 L1990.79 200.068 L1976.96 200.175 L1963.12 200.293 L1949.28 200.421 L1935.44 200.561 L1921.61 200.697 L1907.77 200.826 L1893.93 201.015 L1880.09 201.217 L1866.25 201.417 L1852.42 201.626 L1838.58 201.851 L1824.74 202.092 L1810.9 202.326 L1797.06 202.552 L1783.23 202.793 L1769.39 203.052 L1755.55 203.33 L1741.71 203.631 L1727.88 203.957 L1714.04 204.309 L1700.2 204.711 L1686.36 205.152 L1672.52 205.63 L1658.69 206.167 L1644.85 206.684 L1631.01 207.289 L1617.17 207.958 L1603.34 208.564 L1589.5 209.215 L1575.66 209.965 L1561.82 210.782 L1547.98 211.655 L1534.15 212.593 L1520.31 213.601 L1506.47 214.689 L1492.63 215.87 L1478.79 217.389 L1464.96 219.143 L1451.12 221.108 L1437.28 223.231 L1423.44 225.408 L1409.61 227.392 L1395.77 229.565 L1381.93 232.031 L1368.09 234.566 L1354.25 237.272 L1340.42 240.465 L1326.58 243.462 L1312.74 246.438 L1298.9 249.657 L1285.07 253.804 L1271.23 257.453 L1257.39 261.512 L1243.55 265.965 L1229.71 270.701 L1215.88 275.745 L1202.04 281.259 L1188.2 288.051 L1174.36 293.931 L1160.53 300.203 L1146.69 307.444 L1132.85 316.485 L1119.01 324.71 L1105.17 333.272 L1091.34 343.977 L1077.5 354.661 L1063.66 364.966 L1049.82 376.01 L1035.98 389.117 L1022.15 402.58 L1008.31 415.785 L994.471 430.448 L980.633 447.059 L966.796 464.014 L952.958 481.069 L939.12 498.884 L925.282 518.72 L911.444 539.691 L897.606 561.492 L883.769 584.339 L869.931 607.109 L856.093 631.069 L842.255 656.18 L828.417 684.568 L814.58 712.197 L800.742 742.218 L786.904 773.834 L773.066 805.511 L759.228 838.084 L745.39 872.057 L731.553 906.856 L717.715 943.825 L703.877 980.628 L690.039 1019.07 L676.201 1057.95 L662.364 1096.74 L648.526 1136.2 L634.688 1177.04 L620.85 1218.51 L607.012 1260.23 L593.174 1302.34 L579.337 1344.79 L565.499 1386.4 L551.661 1428.14 L537.823 1469.63 L523.985 1510.95 L510.148 1551.75 L496.31 1591.82 L482.472 1631.2 L468.634 1669.79 L454.796 1707.52 L440.958 1744.39 L427.121 1780.28 L413.283 1815.08 L399.445 1848.6 L385.607 1880.99 L371.769 1912.25 L357.932 1942.31 L344.094 1971.16 L330.256 1998.79 L316.418 2025.21  Z" fill="#e26f46" fill-rule="evenodd" fill-opacity="0.2"/>
<polyline clip-path="url(#clip502)" style="stroke:#e26f46; stroke-linecap:round; stroke-linejoin:round; stroke-width:12; stroke-opacity:1; fill:none" points="316.418,2075.28 330.256,2051.39 344.094,2026.32 357.932,2000.06 371.769,1972.52 385.607,1943.65 399.445,1913.54 413.283,1882.33 427.121,1850.04 440.958,1816.61 454.796,1782.08 468.634,1746.5 482.472,1709.93 496.31,1672.22 510.148,1633.28 523.985,1593.51 537.823,1553.14 551.661,1512.73 565.499,1471.84 579.337,1430.07 593.174,1387.99 607.012,1346.14 620.85,1304.44 634.688,1262.69 648.526,1220.89 662.364,1179.32 676.201,1138.01 690.039,1098.06 703.877,1058.32 717.715,1019.45 731.553,982.318 745.39,945.953 759.228,910.478 773.066,875.465 786.904,842.678 800.742,810.954 814.58,779.499 828.417,749.128 842.255,719.81 856.093,690.817 869.931,662.076 883.769,636.378 897.606,610.97 911.444,587.769 925.282,566.922 939.12,546.131 952.958,525.44 966.796,505.612 980.633,486.597 994.471,471.038 1008.31,454.686 1022.15,439.701 1035.98,425.986 1049.82,411.979 1063.66,399.32 1077.5,387.475 1091.34,377.288 1105.17,366.001 1119.01,357.138 1132.85,348.817 1146.69,339.913 1160.53,331.892 1174.36,323.475 1188.2,316.507 1202.04,311.021 1215.88,305.491 1229.71,299.753 1243.55,294.178 1257.39,289.012 1271.23,284.544 1285.07,280.321 1298.9,276.139 1312.74,272.261 1326.58,268.647 1340.42,265.285 1354.25,262.037 1368.09,259.313 1381.93,256.892 1395.77,254.704 1409.61,252.357 1423.44,250.157 1437.28,247.844 1451.12,245.881 1464.96,244.377 1478.79,243.021 1492.63,241.628 1506.47,240.207 1520.31,238.896 1534.15,237.827 1547.98,236.843 1561.82,235.79 1575.66,234.807 1589.5,233.893 1603.34,233.042 1617.17,232.253 1631.01,231.462 1644.85,230.699 1658.69,230.041 1672.52,229.491 1686.36,228.957 1700.2,228.444 1714.04,228.037 1727.88,227.696 1741.71,227.381 1755.55,227.092 1769.39,226.824 1783.23,226.578 1797.06,226.349 1810.9,226.136 1824.74,225.937 1838.58,225.75 1852.42,225.574 1866.25,225.407 1880.09,225.247 1893.93,225.094 1907.77,224.952 1921.61,224.82 1935.44,224.7 1949.28,224.589 1963.12,224.484 1976.96,224.389 1990.79,224.302 2004.63,224.222 2018.47,224.149 2032.31,224.078 2046.15,224.007 2059.98,223.94 2073.82,223.876 2087.66,223.814 2101.5,223.755 2115.33,223.699 2129.17,223.646 2143.01,223.597 2156.85,223.551 2170.69,223.508 2184.52,223.469 2198.36,223.433 2212.2,223.4 2226.04,223.37 2239.87,223.342 2253.71,223.317 2267.55,223.295 2281.39,223.275 2295.23,223.257 2309.06,223.241 2322.9,223.226 2336.74,223.213 2350.58,223.202 2364.42,223.191 2378.25,223.18 2392.09,223.17 2405.93,223.16 2419.77,223.15 2433.6,223.139 2447.44,223.129 2461.28,223.119 2475.12,223.109 2488.96,223.1 2502.79,223.091 2516.63,223.083 2530.47,223.075 2544.31,223.068 2558.14,223.061 2571.98,223.056 2585.82,223.05 2599.66,223.046 2613.5,223.042 2627.33,223.038 2641.17,223.036 2655.01,223.034 2668.85,223.032 2682.69,223.031 2696.52,223.03 2710.36,223.03 2724.2,223.03 2738.04,223.03 2751.87,223.031 2765.71,223.031 2779.55,223.032 2793.39,223.033 2807.23,223.033 2821.06,223.033 2834.9,223.032 2848.74,223.032 2862.58,223.031 2876.41,223.029 2890.25,223.028 2904.09,223.026 2917.93,223.025 2931.77,223.024 2945.6,223.022 2959.44,223.021 2973.28,223.02 2987.12,223.019 3000.96,223.018 3014.79,223.018 3028.63,223.017 3042.47,223.016 3056.31,223.015 3070.14,223.015 "/>
<path clip-path="url(#clip500)" d="M2663.79 2135.47 L3055.46 2135.47 L3055.46 1979.95 L2663.79 1979.95  Z" fill="#eaeaea" fill-rule="evenodd" fill-opacity="1"/>
<polyline clip-path="url(#clip500)" style="stroke:#ffffff; stroke-linecap:round; stroke-linejoin:round; stroke-width:4; stroke-opacity:1; fill:none" points="2663.79,2135.47 3055.46,2135.47 3055.46,1979.95 2663.79,1979.95 2663.79,2135.47 "/>
<polyline clip-path="url(#clip500)" style="stroke:#009af9; stroke-linecap:round; stroke-linejoin:round; stroke-width:12; stroke-opacity:1; fill:none" points="2696.23,2031.79 2890.82,2031.79 "/>
<path clip-path="url(#clip500)" d="M2925.48 2048.35 L2925.48 2044.09 Q2927.24 2044.92 2929.04 2045.36 Q2930.85 2045.8 2932.59 2045.8 Q2937.22 2045.8 2939.65 2042.7 Q2942.1 2039.58 2942.45 2033.23 Q2941.1 2035.22 2939.04 2036.29 Q2936.98 2037.35 2934.48 2037.35 Q2929.3 2037.35 2926.27 2034.23 Q2923.26 2031.08 2923.26 2025.64 Q2923.26 2020.32 2926.4 2017.1 Q2929.55 2013.88 2934.78 2013.88 Q2940.78 2013.88 2943.93 2018.49 Q2947.1 2023.07 2947.1 2031.82 Q2947.1 2039.99 2943.21 2044.88 Q2939.34 2049.74 2932.79 2049.74 Q2931.03 2049.74 2929.23 2049.39 Q2927.42 2049.04 2925.48 2048.35 M2934.78 2033.7 Q2937.93 2033.7 2939.76 2031.54 Q2941.61 2029.39 2941.61 2025.64 Q2941.61 2021.91 2939.76 2019.76 Q2937.93 2017.58 2934.78 2017.58 Q2931.64 2017.58 2929.78 2019.76 Q2927.96 2021.91 2927.96 2025.64 Q2927.96 2029.39 2929.78 2031.54 Q2931.64 2033.7 2934.78 2033.7 Z" fill="#000000" fill-rule="nonzero" fill-opacity="1" /><path clip-path="url(#clip500)" d="M2955.55 2014.51 L2973.9 2014.51 L2973.9 2018.44 L2959.83 2018.44 L2959.83 2026.91 Q2960.85 2026.57 2961.87 2026.4 Q2962.89 2026.22 2963.9 2026.22 Q2969.69 2026.22 2973.07 2029.39 Q2976.45 2032.56 2976.45 2037.98 Q2976.45 2043.56 2972.98 2046.66 Q2969.51 2049.74 2963.19 2049.74 Q2961.01 2049.74 2958.74 2049.37 Q2956.5 2049 2954.09 2048.26 L2954.09 2043.56 Q2956.17 2044.69 2958.4 2045.25 Q2960.62 2045.8 2963.09 2045.8 Q2967.1 2045.8 2969.44 2043.7 Q2971.78 2041.59 2971.78 2037.98 Q2971.78 2034.37 2969.44 2032.26 Q2967.1 2030.15 2963.09 2030.15 Q2961.22 2030.15 2959.34 2030.57 Q2957.49 2030.99 2955.55 2031.87 L2955.55 2014.51 Z" fill="#000000" fill-rule="nonzero" fill-opacity="1" /><path clip-path="url(#clip500)" d="M3015.06 2033.86 Q3013.05 2033.86 3011.89 2035.57 Q3010.76 2037.28 3010.76 2040.34 Q3010.76 2043.35 3011.89 2045.08 Q3013.05 2046.8 3015.06 2046.8 Q3017.03 2046.8 3018.16 2045.08 Q3019.32 2043.35 3019.32 2040.34 Q3019.32 2037.31 3018.16 2035.59 Q3017.03 2033.86 3015.06 2033.86 M3015.06 2030.92 Q3018.72 2030.92 3020.87 2033.46 Q3023.02 2036.01 3023.02 2040.34 Q3023.02 2044.67 3020.85 2047.21 Q3018.7 2049.74 3015.06 2049.74 Q3011.36 2049.74 3009.21 2047.21 Q3007.05 2044.67 3007.05 2040.34 Q3007.05 2035.99 3009.21 2033.46 Q3011.38 2030.92 3015.06 2030.92 M2991.17 2016.82 Q2989.18 2016.82 2988.02 2018.56 Q2986.89 2020.27 2986.89 2023.28 Q2986.89 2026.33 2988.02 2028.05 Q2989.16 2029.76 2991.17 2029.76 Q2993.19 2029.76 2994.32 2028.05 Q2995.48 2026.33 2995.48 2023.28 Q2995.48 2020.29 2994.32 2018.56 Q2993.16 2016.82 2991.17 2016.82 M3012.08 2013.88 L3015.78 2013.88 L2994.16 2049.74 L2990.46 2049.74 L3012.08 2013.88 M2991.17 2013.88 Q2994.83 2013.88 2997.01 2016.43 Q2999.18 2018.95 2999.18 2023.28 Q2999.18 2027.65 2997.01 2030.18 Q2994.85 2032.7 2991.17 2032.7 Q2987.49 2032.7 2985.34 2030.18 Q2983.21 2027.63 2983.21 2023.28 Q2983.21 2018.97 2985.36 2016.43 Q2987.52 2013.88 2991.17 2013.88 Z" fill="#000000" fill-rule="nonzero" fill-opacity="1" /><polyline clip-path="url(#clip500)" style="stroke:#e26f46; stroke-linecap:round; stroke-linejoin:round; stroke-width:12; stroke-opacity:1; fill:none" points="2696.23,2083.63 2890.82,2083.63 "/>
<path clip-path="url(#clip500)" d="M2935.59 2081.76 Q2932.45 2081.76 2930.59 2083.92 Q2928.77 2086.07 2928.77 2089.82 Q2928.77 2093.55 2930.59 2095.72 Q2932.45 2097.87 2935.59 2097.87 Q2938.74 2097.87 2940.57 2095.72 Q2942.42 2093.55 2942.42 2089.82 Q2942.42 2086.07 2940.57 2083.92 Q2938.74 2081.76 2935.59 2081.76 M2944.88 2067.11 L2944.88 2071.37 Q2943.12 2070.54 2941.31 2070.1 Q2939.53 2069.66 2937.77 2069.66 Q2933.14 2069.66 2930.69 2072.78 Q2928.26 2075.91 2927.91 2082.23 Q2929.28 2080.21 2931.34 2079.15 Q2933.4 2078.06 2935.87 2078.06 Q2941.08 2078.06 2944.09 2081.23 Q2947.12 2084.38 2947.12 2089.82 Q2947.12 2095.14 2943.97 2098.36 Q2940.83 2101.58 2935.59 2101.58 Q2929.6 2101.58 2926.43 2096.99 Q2923.26 2092.39 2923.26 2083.66 Q2923.26 2075.47 2927.15 2070.61 Q2931.03 2065.72 2937.59 2065.72 Q2939.34 2065.72 2941.13 2066.07 Q2942.93 2066.42 2944.88 2067.11 Z" fill="#000000" fill-rule="nonzero" fill-opacity="1" /><path clip-path="url(#clip500)" d="M2965.18 2084.49 Q2961.84 2084.49 2959.92 2086.28 Q2958.03 2088.06 2958.03 2091.18 Q2958.03 2094.31 2959.92 2096.09 Q2961.84 2097.87 2965.18 2097.87 Q2968.51 2097.87 2970.43 2096.09 Q2972.35 2094.29 2972.35 2091.18 Q2972.35 2088.06 2970.43 2086.28 Q2968.53 2084.49 2965.18 2084.49 M2960.5 2082.5 Q2957.49 2081.76 2955.8 2079.7 Q2954.14 2077.64 2954.14 2074.68 Q2954.14 2070.54 2957.08 2068.13 Q2960.04 2065.72 2965.18 2065.72 Q2970.34 2065.72 2973.28 2068.13 Q2976.22 2070.54 2976.22 2074.68 Q2976.22 2077.64 2974.53 2079.7 Q2972.86 2081.76 2969.88 2082.5 Q2973.26 2083.29 2975.13 2085.58 Q2977.03 2087.87 2977.03 2091.18 Q2977.03 2096.21 2973.95 2098.89 Q2970.9 2101.58 2965.18 2101.58 Q2959.46 2101.58 2956.38 2098.89 Q2953.33 2096.21 2953.33 2091.18 Q2953.33 2087.87 2955.22 2085.58 Q2957.12 2083.29 2960.5 2082.5 M2958.79 2075.12 Q2958.79 2077.8 2960.46 2079.31 Q2962.15 2080.81 2965.18 2080.81 Q2968.19 2080.81 2969.88 2079.31 Q2971.59 2077.8 2971.59 2075.12 Q2971.59 2072.43 2969.88 2070.93 Q2968.19 2069.42 2965.18 2069.42 Q2962.15 2069.42 2960.46 2070.93 Q2958.79 2072.43 2958.79 2075.12 Z" fill="#000000" fill-rule="nonzero" fill-opacity="1" /><path clip-path="url(#clip500)" d="M3014.74 2085.7 Q3012.72 2085.7 3011.57 2087.41 Q3010.43 2089.12 3010.43 2092.18 Q3010.43 2095.19 3011.57 2096.92 Q3012.72 2098.64 3014.74 2098.64 Q3016.71 2098.64 3017.84 2096.92 Q3019 2095.19 3019 2092.18 Q3019 2089.15 3017.84 2087.43 Q3016.71 2085.7 3014.74 2085.7 M3014.74 2082.76 Q3018.4 2082.76 3020.55 2085.3 Q3022.7 2087.85 3022.7 2092.18 Q3022.7 2096.51 3020.52 2099.05 Q3018.37 2101.58 3014.74 2101.58 Q3011.03 2101.58 3008.88 2099.05 Q3006.73 2096.51 3006.73 2092.18 Q3006.73 2087.83 3008.88 2085.3 Q3011.06 2082.76 3014.74 2082.76 M2990.85 2068.66 Q2988.86 2068.66 2987.7 2070.4 Q2986.57 2072.11 2986.57 2075.12 Q2986.57 2078.17 2987.7 2079.89 Q2988.84 2081.6 2990.85 2081.6 Q2992.86 2081.6 2994 2079.89 Q2995.15 2078.17 2995.15 2075.12 Q2995.15 2072.13 2994 2070.4 Q2992.84 2068.66 2990.85 2068.66 M3011.75 2065.72 L3015.46 2065.72 L2993.84 2101.58 L2990.13 2101.58 L3011.75 2065.72 M2990.85 2065.72 Q2994.51 2065.72 2996.68 2068.27 Q2998.86 2070.79 2998.86 2075.12 Q2998.86 2079.49 2996.68 2082.02 Q2994.53 2084.54 2990.85 2084.54 Q2987.17 2084.54 2985.02 2082.02 Q2982.89 2079.47 2982.89 2075.12 Q2982.89 2070.81 2985.04 2068.27 Q2987.19 2065.72 2990.85 2065.72 Z" fill="#000000" fill-rule="nonzero" fill-opacity="1" /></svg>
