<?xml version="1.0" encoding="utf-8"?>
<svg xmlns="http://www.w3.org/2000/svg" xmlns:xlink="http://www.w3.org/1999/xlink" width="800" height="600" viewBox="0 0 3200 2400">
<defs>
  <clipPath id="clip250">
    <rect x="0" y="0" width="3200" height="2400"/>
  </clipPath>
</defs>
<path clip-path="url(#clip250)" d="M0 2400 L3200 2400 L3200 0 L0 0  Z" fill="#ffffff" fill-rule="evenodd" fill-opacity="1"/>
<defs>
  <clipPath id="clip251">
    <rect x="640" y="0" width="2241" height="2241"/>
  </clipPath>
</defs>
<path clip-path="url(#clip250)" d="M233.32 2204.92 L3152.76 2204.92 L3152.76 111.592 L233.32 111.592  Z" fill="#eaeaea" fill-rule="evenodd" fill-opacity="1"/>
<defs>
  <clipPath id="clip252">
    <rect x="233" y="111" width="2920" height="2094"/>
  </clipPath>
</defs>
<polyline clip-path="url(#clip252)" style="stroke:#ffffff; stroke-linecap:round; stroke-linejoin:round; stroke-width:4; stroke-opacity:1; fill:none" points="315.946,2204.92 315.946,111.592 "/>
<polyline clip-path="url(#clip252)" style="stroke:#ffffff; stroke-linecap:round; stroke-linejoin:round; stroke-width:4; stroke-opacity:1; fill:none" points="866.783,2204.92 866.783,111.592 "/>
<polyline clip-path="url(#clip252)" style="stroke:#ffffff; stroke-linecap:round; stroke-linejoin:round; stroke-width:4; stroke-opacity:1; fill:none" points="1417.62,2204.92 1417.62,111.592 "/>
<polyline clip-path="url(#clip252)" style="stroke:#ffffff; stroke-linecap:round; stroke-linejoin:round; stroke-width:4; stroke-opacity:1; fill:none" points="1968.46,2204.92 1968.46,111.592 "/>
<polyline clip-path="url(#clip252)" style="stroke:#ffffff; stroke-linecap:round; stroke-linejoin:round; stroke-width:4; stroke-opacity:1; fill:none" points="2519.29,2204.92 2519.29,111.592 "/>
<polyline clip-path="url(#clip252)" style="stroke:#ffffff; stroke-linecap:round; stroke-linejoin:round; stroke-width:4; stroke-opacity:1; fill:none" points="3070.13,2204.92 3070.13,111.592 "/>
<polyline clip-path="url(#clip252)" style="stroke:#ffffff; stroke-linecap:round; stroke-linejoin:round; stroke-width:2; stroke-opacity:1; fill:none" points="591.364,2204.92 591.364,111.592 "/>
<polyline clip-path="url(#clip252)" style="stroke:#ffffff; stroke-linecap:round; stroke-linejoin:round; stroke-width:2; stroke-opacity:1; fill:none" points="1142.2,2204.92 1142.2,111.592 "/>
<polyline clip-path="url(#clip252)" style="stroke:#ffffff; stroke-linecap:round; stroke-linejoin:round; stroke-width:2; stroke-opacity:1; fill:none" points="1693.04,2204.92 1693.04,111.592 "/>
<polyline clip-path="url(#clip252)" style="stroke:#ffffff; stroke-linecap:round; stroke-linejoin:round; stroke-width:2; stroke-opacity:1; fill:none" points="2243.87,2204.92 2243.87,111.592 "/>
<polyline clip-path="url(#clip252)" style="stroke:#ffffff; stroke-linecap:round; stroke-linejoin:round; stroke-width:2; stroke-opacity:1; fill:none" points="2794.71,2204.92 2794.71,111.592 "/>
<polyline clip-path="url(#clip250)" style="stroke:#ffffff; stroke-linecap:round; stroke-linejoin:round; stroke-width:4; stroke-opacity:1; fill:none" points="233.32,2204.92 3152.76,2204.92 "/>
<polyline clip-path="url(#clip250)" style="stroke:#333333; stroke-linecap:round; stroke-linejoin:round; stroke-width:4; stroke-opacity:1; fill:none" points="315.946,2204.92 315.946,2223.82 "/>
<polyline clip-path="url(#clip250)" style="stroke:#333333; stroke-linecap:round; stroke-linejoin:round; stroke-width:4; stroke-opacity:1; fill:none" points="866.783,2204.92 866.783,2223.82 "/>
<polyline clip-path="url(#clip250)" style="stroke:#333333; stroke-linecap:round; stroke-linejoin:round; stroke-width:4; stroke-opacity:1; fill:none" points="1417.62,2204.92 1417.62,2223.82 "/>
<polyline clip-path="url(#clip250)" style="stroke:#333333; stroke-linecap:round; stroke-linejoin:round; stroke-width:4; stroke-opacity:1; fill:none" points="1968.46,2204.92 1968.46,2223.82 "/>
<polyline clip-path="url(#clip250)" style="stroke:#333333; stroke-linecap:round; stroke-linejoin:round; stroke-width:4; stroke-opacity:1; fill:none" points="2519.29,2204.92 2519.29,2223.82 "/>
<polyline clip-path="url(#clip250)" style="stroke:#333333; stroke-linecap:round; stroke-linejoin:round; stroke-width:4; stroke-opacity:1; fill:none" points="3070.13,2204.92 3070.13,2223.82 "/>
<polyline clip-path="url(#clip250)" style="stroke:#333333; stroke-linecap:round; stroke-linejoin:round; stroke-width:4; stroke-opacity:1; fill:none" points="591.364,2204.92 591.364,2214.37 "/>
<polyline clip-path="url(#clip250)" style="stroke:#333333; stroke-linecap:round; stroke-linejoin:round; stroke-width:4; stroke-opacity:1; fill:none" points="1142.2,2204.92 1142.2,2214.37 "/>
<polyline clip-path="url(#clip250)" style="stroke:#333333; stroke-linecap:round; stroke-linejoin:round; stroke-width:4; stroke-opacity:1; fill:none" points="1693.04,2204.92 1693.04,2214.37 "/>
<polyline clip-path="url(#clip250)" style="stroke:#333333; stroke-linecap:round; stroke-linejoin:round; stroke-width:4; stroke-opacity:1; fill:none" points="2243.87,2204.92 2243.87,2214.37 "/>
<polyline clip-path="url(#clip250)" style="stroke:#333333; stroke-linecap:round; stroke-linejoin:round; stroke-width:4; stroke-opacity:1; fill:none" points="2794.71,2204.92 2794.71,2214.37 "/>
<path clip-path="url(#clip250)" d="M315.946 2255.04 Q312.335 2255.04 310.506 2258.6 Q308.7 2262.14 308.7 2269.27 Q308.7 2276.38 310.506 2279.95 Q312.335 2283.49 315.946 2283.49 Q319.58 2283.49 321.385 2279.95 Q323.214 2276.38 323.214 2269.27 Q323.214 2262.14 321.385 2258.6 Q319.58 2255.04 315.946 2255.04 M315.946 2251.33 Q321.756 2251.33 324.811 2255.94 Q327.89 2260.52 327.89 2269.27 Q327.89 2278 324.811 2282.61 Q321.756 2287.19 315.946 2287.19 Q310.136 2287.19 307.057 2282.61 Q304.001 2278 304.001 2269.27 Q304.001 2260.52 307.057 2255.94 Q310.136 2251.33 315.946 2251.33 Z" fill="#4c4c4c" fill-rule="nonzero" fill-opacity="1" /><path clip-path="url(#clip250)" d="M857.165 2282.58 L864.803 2282.58 L864.803 2256.22 L856.493 2257.89 L856.493 2253.63 L864.757 2251.96 L869.433 2251.96 L869.433 2282.58 L877.072 2282.58 L877.072 2286.52 L857.165 2286.52 L857.165 2282.58 Z" fill="#4c4c4c" fill-rule="nonzero" fill-opacity="1" /><path clip-path="url(#clip250)" d="M1412.27 2282.58 L1428.59 2282.58 L1428.59 2286.52 L1406.65 2286.52 L1406.65 2282.58 Q1409.31 2279.83 1413.89 2275.2 Q1418.5 2270.55 1419.68 2269.21 Q1421.93 2266.68 1422.8 2264.95 Q1423.71 2263.19 1423.71 2261.5 Q1423.71 2258.74 1421.76 2257.01 Q1419.84 2255.27 1416.74 2255.27 Q1414.54 2255.27 1412.09 2256.03 Q1409.66 2256.8 1406.88 2258.35 L1406.88 2253.63 Q1409.7 2252.49 1412.16 2251.91 Q1414.61 2251.33 1416.65 2251.33 Q1422.02 2251.33 1425.21 2254.02 Q1428.41 2256.71 1428.41 2261.2 Q1428.41 2263.33 1427.6 2265.25 Q1426.81 2267.14 1424.7 2269.74 Q1424.12 2270.41 1421.02 2273.63 Q1417.92 2276.82 1412.27 2282.58 Z" fill="#4c4c4c" fill-rule="nonzero" fill-opacity="1" /><path clip-path="url(#clip250)" d="M1972.7 2267.89 Q1976.06 2268.6 1977.94 2270.87 Q1979.83 2273.14 1979.83 2276.47 Q1979.83 2281.59 1976.32 2284.39 Q1972.8 2287.19 1966.32 2287.19 Q1964.14 2287.19 1961.82 2286.75 Q1959.53 2286.33 1957.08 2285.48 L1957.08 2280.96 Q1959.02 2282.1 1961.34 2282.68 Q1963.65 2283.26 1966.18 2283.26 Q1970.57 2283.26 1972.87 2281.52 Q1975.18 2279.78 1975.18 2276.47 Q1975.18 2273.42 1973.03 2271.71 Q1970.9 2269.97 1967.08 2269.97 L1963.05 2269.97 L1963.05 2266.13 L1967.26 2266.13 Q1970.71 2266.13 1972.54 2264.76 Q1974.37 2263.37 1974.37 2260.78 Q1974.37 2258.12 1972.47 2256.71 Q1970.6 2255.27 1967.08 2255.27 Q1965.16 2255.27 1962.96 2255.69 Q1960.76 2256.1 1958.12 2256.98 L1958.12 2252.82 Q1960.78 2252.08 1963.1 2251.71 Q1965.44 2251.33 1967.5 2251.33 Q1972.82 2251.33 1975.92 2253.77 Q1979.02 2256.17 1979.02 2260.29 Q1979.02 2263.16 1977.38 2265.15 Q1975.74 2267.12 1972.7 2267.89 Z" fill="#4c4c4c" fill-rule="nonzero" fill-opacity="1" /><path clip-path="url(#clip250)" d="M2522.3 2256.03 L2510.5 2274.48 L2522.3 2274.48 L2522.3 2256.03 M2521.08 2251.96 L2526.96 2251.96 L2526.96 2274.48 L2531.89 2274.48 L2531.89 2278.37 L2526.96 2278.37 L2526.96 2286.52 L2522.3 2286.52 L2522.3 2278.37 L2506.7 2278.37 L2506.7 2273.86 L2521.08 2251.96 Z" fill="#4c4c4c" fill-rule="nonzero" fill-opacity="1" /><path clip-path="url(#clip250)" d="M3060.41 2251.96 L3078.76 2251.96 L3078.76 2255.9 L3064.69 2255.9 L3064.69 2264.37 Q3065.71 2264.02 3066.73 2263.86 Q3067.75 2263.67 3068.76 2263.67 Q3074.55 2263.67 3077.93 2266.84 Q3081.31 2270.02 3081.31 2275.43 Q3081.31 2281.01 3077.84 2284.11 Q3074.37 2287.19 3068.05 2287.19 Q3065.87 2287.19 3063.6 2286.82 Q3061.36 2286.45 3058.95 2285.71 L3058.95 2281.01 Q3061.03 2282.14 3063.26 2282.7 Q3065.48 2283.26 3067.95 2283.26 Q3071.96 2283.26 3074.3 2281.15 Q3076.63 2279.04 3076.63 2275.43 Q3076.63 2271.82 3074.3 2269.71 Q3071.96 2267.61 3067.95 2267.61 Q3066.08 2267.61 3064.2 2268.02 Q3062.35 2268.44 3060.41 2269.32 L3060.41 2251.96 Z" fill="#4c4c4c" fill-rule="nonzero" fill-opacity="1" /><path clip-path="url(#clip250)" d="M1692.1 2316.01 L1692.1 2326.14 L1704.16 2326.14 L1704.16 2330.69 L1692.1 2330.69 L1692.1 2350.04 Q1692.1 2354.4 1693.28 2355.64 Q1694.49 2356.88 1698.15 2356.88 L1704.16 2356.88 L1704.16 2361.78 L1698.15 2361.78 Q1691.37 2361.78 1688.79 2359.27 Q1686.21 2356.72 1686.21 2350.04 L1686.21 2330.69 L1681.91 2330.69 L1681.91 2326.14 L1686.21 2326.14 L1686.21 2316.01 L1692.1 2316.01 Z" fill="#000000" fill-rule="nonzero" fill-opacity="1" /><polyline clip-path="url(#clip252)" style="stroke:#ffffff; stroke-linecap:round; stroke-linejoin:round; stroke-width:4; stroke-opacity:1; fill:none" points="233.32,2158.93 3152.76,2158.93 "/>
<polyline clip-path="url(#clip252)" style="stroke:#ffffff; stroke-linecap:round; stroke-linejoin:round; stroke-width:4; stroke-opacity:1; fill:none" points="233.32,1496.2 3152.76,1496.2 "/>
<polyline clip-path="url(#clip252)" style="stroke:#ffffff; stroke-linecap:round; stroke-linejoin:round; stroke-width:4; stroke-opacity:1; fill:none" points="233.32,833.465 3152.76,833.465 "/>
<polyline clip-path="url(#clip252)" style="stroke:#ffffff; stroke-linecap:round; stroke-linejoin:round; stroke-width:4; stroke-opacity:1; fill:none" points="233.32,170.733 3152.76,170.733 "/>
<polyline clip-path="url(#clip252)" style="stroke:#ffffff; stroke-linecap:round; stroke-linejoin:round; stroke-width:2; stroke-opacity:1; fill:none" points="233.32,1827.56 3152.76,1827.56 "/>
<polyline clip-path="url(#clip252)" style="stroke:#ffffff; stroke-linecap:round; stroke-linejoin:round; stroke-width:2; stroke-opacity:1; fill:none" points="233.32,1164.83 3152.76,1164.83 "/>
<polyline clip-path="url(#clip252)" style="stroke:#ffffff; stroke-linecap:round; stroke-linejoin:round; stroke-width:2; stroke-opacity:1; fill:none" points="233.32,502.099 3152.76,502.099 "/>
<polyline clip-path="url(#clip250)" style="stroke:#ffffff; stroke-linecap:round; stroke-linejoin:round; stroke-width:4; stroke-opacity:1; fill:none" points="233.32,2204.92 233.32,111.592 "/>
<polyline clip-path="url(#clip250)" style="stroke:#333333; stroke-linecap:round; stroke-linejoin:round; stroke-width:4; stroke-opacity:1; fill:none" points="233.32,2158.93 214.423,2158.93 "/>
<polyline clip-path="url(#clip250)" style="stroke:#333333; stroke-linecap:round; stroke-linejoin:round; stroke-width:4; stroke-opacity:1; fill:none" points="233.32,1496.2 214.423,1496.2 "/>
<polyline clip-path="url(#clip250)" style="stroke:#333333; stroke-linecap:round; stroke-linejoin:round; stroke-width:4; stroke-opacity:1; fill:none" points="233.32,833.465 214.423,833.465 "/>
<polyline clip-path="url(#clip250)" style="stroke:#333333; stroke-linecap:round; stroke-linejoin:round; stroke-width:4; stroke-opacity:1; fill:none" points="233.32,170.733 214.423,170.733 "/>
<polyline clip-path="url(#clip250)" style="stroke:#333333; stroke-linecap:round; stroke-linejoin:round; stroke-width:4; stroke-opacity:1; fill:none" points="233.32,1827.56 223.871,1827.56 "/>
<polyline clip-path="url(#clip250)" style="stroke:#333333; stroke-linecap:round; stroke-linejoin:round; stroke-width:4; stroke-opacity:1; fill:none" points="233.32,1164.83 223.871,1164.83 "/>
<polyline clip-path="url(#clip250)" style="stroke:#333333; stroke-linecap:round; stroke-linejoin:round; stroke-width:4; stroke-opacity:1; fill:none" points="233.32,502.099 223.871,502.099 "/>
<path clip-path="url(#clip250)" d="M104.145 2144.73 Q100.533 2144.73 98.7048 2148.29 Q96.8992 2151.83 96.8992 2158.96 Q96.8992 2166.07 98.7048 2169.64 Q100.533 2173.18 104.145 2173.18 Q107.779 2173.18 109.584 2169.64 Q111.413 2166.07 111.413 2158.96 Q111.413 2151.83 109.584 2148.29 Q107.779 2144.73 104.145 2144.73 M104.145 2141.02 Q109.955 2141.02 113.01 2145.63 Q116.089 2150.21 116.089 2158.96 Q116.089 2167.69 113.01 2172.3 Q109.955 2176.88 104.145 2176.88 Q98.3344 2176.88 95.2557 2172.3 Q92.2002 2167.69 92.2002 2158.96 Q92.2002 2150.21 95.2557 2145.63 Q98.3344 2141.02 104.145 2141.02 Z" fill="#4c4c4c" fill-rule="nonzero" fill-opacity="1" /><path clip-path="url(#clip250)" d="M124.306 2170.33 L129.191 2170.33 L129.191 2176.21 L124.306 2176.21 L124.306 2170.33 Z" fill="#4c4c4c" fill-rule="nonzero" fill-opacity="1" /><path clip-path="url(#clip250)" d="M149.376 2144.73 Q145.765 2144.73 143.936 2148.29 Q142.13 2151.83 142.13 2158.96 Q142.13 2166.07 143.936 2169.64 Q145.765 2173.18 149.376 2173.18 Q153.01 2173.18 154.816 2169.64 Q156.644 2166.07 156.644 2158.96 Q156.644 2151.83 154.816 2148.29 Q153.01 2144.73 149.376 2144.73 M149.376 2141.02 Q155.186 2141.02 158.241 2145.63 Q161.32 2150.21 161.32 2158.96 Q161.32 2167.69 158.241 2172.3 Q155.186 2176.88 149.376 2176.88 Q143.566 2176.88 140.487 2172.3 Q137.431 2167.69 137.431 2158.96 Q137.431 2150.21 140.487 2145.63 Q143.566 2141.02 149.376 2141.02 Z" fill="#4c4c4c" fill-rule="nonzero" fill-opacity="1" /><path clip-path="url(#clip250)" d="M105.14 1482 Q101.529 1482 99.7001 1485.56 Q97.8946 1489.1 97.8946 1496.23 Q97.8946 1503.34 99.7001 1506.9 Q101.529 1510.44 105.14 1510.44 Q108.774 1510.44 110.58 1506.9 Q112.408 1503.34 112.408 1496.23 Q112.408 1489.1 110.58 1485.56 Q108.774 1482 105.14 1482 M105.14 1478.29 Q110.95 1478.29 114.006 1482.9 Q117.084 1487.48 117.084 1496.23 Q117.084 1504.96 114.006 1509.57 Q110.95 1514.15 105.14 1514.15 Q99.3297 1514.15 96.2511 1509.57 Q93.1955 1504.96 93.1955 1496.23 Q93.1955 1487.48 96.2511 1482.9 Q99.3297 1478.29 105.14 1478.29 Z" fill="#4c4c4c" fill-rule="nonzero" fill-opacity="1" /><path clip-path="url(#clip250)" d="M125.302 1507.6 L130.186 1507.6 L130.186 1513.48 L125.302 1513.48 L125.302 1507.6 Z" fill="#4c4c4c" fill-rule="nonzero" fill-opacity="1" /><path clip-path="url(#clip250)" d="M140.417 1478.92 L158.774 1478.92 L158.774 1482.85 L144.7 1482.85 L144.7 1491.32 Q145.718 1490.98 146.737 1490.82 Q147.755 1490.63 148.774 1490.63 Q154.561 1490.63 157.941 1493.8 Q161.32 1496.97 161.32 1502.39 Q161.32 1507.97 157.848 1511.07 Q154.376 1514.15 148.056 1514.15 Q145.88 1514.15 143.612 1513.78 Q141.367 1513.41 138.959 1512.67 L138.959 1507.97 Q141.042 1509.1 143.265 1509.66 Q145.487 1510.21 147.964 1510.21 Q151.968 1510.21 154.306 1508.11 Q156.644 1506 156.644 1502.39 Q156.644 1498.78 154.306 1496.67 Q151.968 1494.57 147.964 1494.57 Q146.089 1494.57 144.214 1494.98 Q142.362 1495.4 140.417 1496.28 L140.417 1478.92 Z" fill="#4c4c4c" fill-rule="nonzero" fill-opacity="1" /><path clip-path="url(#clip250)" d="M94.9548 846.81 L102.594 846.81 L102.594 820.444 L94.2835 822.111 L94.2835 817.852 L102.547 816.185 L107.223 816.185 L107.223 846.81 L114.862 846.81 L114.862 850.745 L94.9548 850.745 L94.9548 846.81 Z" fill="#4c4c4c" fill-rule="nonzero" fill-opacity="1" /><path clip-path="url(#clip250)" d="M124.306 844.866 L129.191 844.866 L129.191 850.745 L124.306 850.745 L124.306 844.866 Z" fill="#4c4c4c" fill-rule="nonzero" fill-opacity="1" /><path clip-path="url(#clip250)" d="M149.376 819.264 Q145.765 819.264 143.936 822.829 Q142.13 826.37 142.13 833.5 Q142.13 840.606 143.936 844.171 Q145.765 847.713 149.376 847.713 Q153.01 847.713 154.816 844.171 Q156.644 840.606 156.644 833.5 Q156.644 826.37 154.816 822.829 Q153.01 819.264 149.376 819.264 M149.376 815.56 Q155.186 815.56 158.241 820.167 Q161.32 824.75 161.32 833.5 Q161.32 842.227 158.241 846.833 Q155.186 851.416 149.376 851.416 Q143.566 851.416 140.487 846.833 Q137.431 842.227 137.431 833.5 Q137.431 824.75 140.487 820.167 Q143.566 815.56 149.376 815.56 Z" fill="#4c4c4c" fill-rule="nonzero" fill-opacity="1" /><path clip-path="url(#clip250)" d="M95.9501 184.078 L103.589 184.078 L103.589 157.712 L95.2788 159.379 L95.2788 155.12 L103.543 153.453 L108.219 153.453 L108.219 184.078 L115.857 184.078 L115.857 188.013 L95.9501 188.013 L95.9501 184.078 Z" fill="#4c4c4c" fill-rule="nonzero" fill-opacity="1" /><path clip-path="url(#clip250)" d="M125.302 182.133 L130.186 182.133 L130.186 188.013 L125.302 188.013 L125.302 182.133 Z" fill="#4c4c4c" fill-rule="nonzero" fill-opacity="1" /><path clip-path="url(#clip250)" d="M140.417 153.453 L158.774 153.453 L158.774 157.388 L144.7 157.388 L144.7 165.86 Q145.718 165.513 146.737 165.351 Q147.755 165.166 148.774 165.166 Q154.561 165.166 157.941 168.337 Q161.32 171.508 161.32 176.925 Q161.32 182.504 157.848 185.606 Q154.376 188.684 148.056 188.684 Q145.88 188.684 143.612 188.314 Q141.367 187.944 138.959 187.203 L138.959 182.504 Q141.042 183.638 143.265 184.194 Q145.487 184.749 147.964 184.749 Q151.968 184.749 154.306 182.643 Q156.644 180.536 156.644 176.925 Q156.644 173.314 154.306 171.208 Q151.968 169.101 147.964 169.101 Q146.089 169.101 144.214 169.518 Q142.362 169.934 140.417 170.814 L140.417 153.453 Z" fill="#4c4c4c" fill-rule="nonzero" fill-opacity="1" /><path clip-path="url(#clip250)" d="M18.2962 1141.64 L35.6428 1154.53 L53.9442 1140.97 L53.9442 1147.88 L39.9396 1158.26 L53.9442 1168.63 L53.9442 1175.54 L35.2926 1161.69 L18.2962 1174.36 L18.2962 1167.45 L30.9958 1158 L18.2962 1148.55 L18.2962 1141.64 Z" fill="#000000" fill-rule="nonzero" fill-opacity="1" /><path clip-path="url(#clip250)" d="M1070.52 20.3876 L1070.52 25.4223 Q1068.26 24.2649 1065.83 23.6862 Q1063.4 23.1075 1060.79 23.1075 Q1056.83 23.1075 1054.83 24.3228 Q1052.86 25.5381 1052.86 27.9686 Q1052.86 29.8204 1054.28 30.891 Q1055.7 31.9327 1059.98 32.8876 L1061.81 33.2926 Q1067.48 34.5079 1069.85 36.7359 Q1072.25 38.935 1072.25 42.8991 Q1072.25 47.4129 1068.66 50.046 Q1065.1 52.6791 1058.85 52.6791 Q1056.25 52.6791 1053.41 52.1583 Q1050.61 51.6664 1047.48 50.6537 L1047.48 45.156 Q1050.43 46.6896 1053.3 47.4708 Q1056.16 48.2231 1058.97 48.2231 Q1062.73 48.2231 1064.76 46.95 Q1066.78 45.6479 1066.78 43.3042 Q1066.78 41.134 1065.31 39.9766 Q1063.86 38.8192 1058.91 37.7486 L1057.06 37.3146 Q1052.11 36.273 1049.91 34.1318 Q1047.71 31.9616 1047.71 28.2001 Q1047.71 23.6283 1050.96 21.1399 Q1054.2 18.6515 1060.16 18.6515 Q1063.11 18.6515 1065.71 19.0855 Q1068.32 19.5196 1070.52 20.3876 Z" fill="#000000" fill-rule="nonzero" fill-opacity="1" /><path clip-path="url(#clip250)" d="M1093.29 23.1654 Q1089 23.1654 1086.52 26.5218 Q1084.03 29.8494 1084.03 35.6653 Q1084.03 41.4813 1086.49 44.8377 Q1088.98 48.1653 1093.29 48.1653 Q1097.54 48.1653 1100.03 44.8088 Q1102.52 41.4523 1102.52 35.6653 Q1102.52 29.9072 1100.03 26.5508 Q1097.54 23.1654 1093.29 23.1654 M1093.29 18.6515 Q1100.23 18.6515 1104.2 23.1654 Q1108.16 27.6792 1108.16 35.6653 Q1108.16 43.6225 1104.2 48.1653 Q1100.23 52.6791 1093.29 52.6791 Q1086.31 52.6791 1082.35 48.1653 Q1078.41 43.6225 1078.41 35.6653 Q1078.41 27.6792 1082.35 23.1654 Q1086.31 18.6515 1093.29 18.6515 Z" fill="#000000" fill-rule="nonzero" fill-opacity="1" /><path clip-path="url(#clip250)" d="M1116.98 6.81709 L1122.31 6.81709 L1122.31 51.84 L1116.98 51.84 L1116.98 6.81709 Z" fill="#000000" fill-rule="nonzero" fill-opacity="1" /><path clip-path="url(#clip250)" d="M1132.9 39.0507 L1132.9 19.4328 L1138.22 19.4328 L1138.22 38.8482 Q1138.22 43.4488 1140.02 45.7636 Q1141.81 48.0495 1145.4 48.0495 Q1149.71 48.0495 1152.2 45.3007 Q1154.72 42.5519 1154.72 37.8065 L1154.72 19.4328 L1160.04 19.4328 L1160.04 51.84 L1154.72 51.84 L1154.72 46.8632 Q1152.78 49.8145 1150.2 51.2613 Q1147.66 52.6791 1144.27 52.6791 Q1138.69 52.6791 1135.79 49.2069 Q1132.9 45.7347 1132.9 39.0507 M1146.3 18.6515 L1146.3 18.6515 Z" fill="#000000" fill-rule="nonzero" fill-opacity="1" /><path clip-path="url(#clip250)" d="M1194.33 20.677 L1194.33 25.6538 Q1192.07 24.4096 1189.79 23.802 Q1187.53 23.1654 1185.21 23.1654 Q1180.03 23.1654 1177.17 26.464 Q1174.31 29.7336 1174.31 35.6653 Q1174.31 41.597 1177.17 44.8956 Q1180.03 48.1653 1185.21 48.1653 Q1187.53 48.1653 1189.79 47.5576 Q1192.07 46.921 1194.33 45.6768 L1194.33 50.5958 Q1192.1 51.6375 1189.7 52.1583 Q1187.33 52.6791 1184.64 52.6791 Q1177.31 52.6791 1173 48.0784 Q1168.69 43.4778 1168.69 35.6653 Q1168.69 27.7371 1173.03 23.1943 Q1177.4 18.6515 1184.98 18.6515 Q1187.44 18.6515 1189.79 19.1724 Q1192.13 19.6642 1194.33 20.677 M1186.81 51.84 Q1188.4 53.634 1189.18 55.1386 Q1189.96 56.6722 1189.96 58.061 Q1189.96 60.6362 1188.22 61.9383 Q1186.49 63.2693 1183.07 63.2693 Q1181.74 63.2693 1180.47 63.0957 Q1179.22 62.9221 1177.98 62.5749 L1177.98 58.7844 Q1178.96 59.2763 1180.03 59.4788 Q1181.11 59.7103 1182.46 59.7103 Q1184.17 59.7103 1185.04 59.0159 Q1185.91 58.3214 1185.91 56.9904 Q1185.91 56.1224 1185.27 54.8492 Q1184.66 53.605 1183.36 51.84 L1186.81 51.84 Z" fill="#000000" fill-rule="nonzero" fill-opacity="1" /><path clip-path="url(#clip250)" d="M1218.32 35.5496 Q1211.86 35.5496 1209.37 37.0253 Q1206.89 38.501 1206.89 42.06 Q1206.89 44.8956 1208.74 46.5738 Q1210.62 48.2231 1213.83 48.2231 Q1218.26 48.2231 1220.92 45.0981 Q1223.61 41.9442 1223.61 36.7359 L1223.61 35.5496 L1218.32 35.5496 M1228.93 33.3505 L1228.93 51.84 L1223.61 51.84 L1223.61 46.921 Q1221.79 49.8724 1219.07 51.2902 Q1216.35 52.6791 1212.41 52.6791 Q1207.44 52.6791 1204.48 49.9014 Q1201.56 47.0947 1201.56 42.4072 Q1201.56 36.9385 1205.21 34.1607 Q1208.88 31.3829 1216.15 31.3829 L1223.61 31.3829 L1223.61 30.8621 Q1223.61 27.1874 1221.18 25.1908 Q1218.78 23.1654 1214.41 23.1654 Q1211.63 23.1654 1209 23.8309 Q1206.37 24.4964 1203.93 25.8274 L1203.93 20.9085 Q1206.86 19.78 1209.61 19.2302 Q1212.35 18.6515 1214.96 18.6515 Q1221.99 18.6515 1225.46 22.2973 Q1228.93 25.9431 1228.93 33.3505 M1215.07 12.199 L1213.43 10.6076 Q1212.79 10.0289 1212.3 9.76847 Q1211.83 9.47912 1211.46 9.47912 Q1210.36 9.47912 1209.84 10.5497 Q1209.32 11.5914 1209.26 13.964 L1205.64 13.964 Q1205.7 10.0578 1207.18 7.94556 Q1208.65 5.80437 1211.28 5.80437 Q1212.38 5.80437 1213.31 6.20946 Q1214.24 6.61455 1215.31 7.5694 L1216.96 9.16083 Q1217.59 9.73953 1218.06 10.0289 Q1218.55 10.2893 1218.92 10.2893 Q1220.02 10.2893 1220.54 9.24764 Q1221.06 8.17704 1221.12 5.80437 L1224.74 5.80437 Q1224.68 9.7106 1223.21 11.8518 Q1221.73 13.964 1219.1 13.964 Q1218 13.964 1217.07 13.559 Q1216.15 13.1539 1215.07 12.199 Z" fill="#000000" fill-rule="nonzero" fill-opacity="1" /><path clip-path="url(#clip250)" d="M1252.46 23.1654 Q1248.18 23.1654 1245.69 26.5218 Q1243.2 29.8494 1243.2 35.6653 Q1243.2 41.4813 1245.66 44.8377 Q1248.15 48.1653 1252.46 48.1653 Q1256.71 48.1653 1259.2 44.8088 Q1261.69 41.4523 1261.69 35.6653 Q1261.69 29.9072 1259.2 26.5508 Q1256.71 23.1654 1252.46 23.1654 M1252.46 18.6515 Q1259.4 18.6515 1263.37 23.1654 Q1267.33 27.6792 1267.33 35.6653 Q1267.33 43.6225 1263.37 48.1653 Q1259.4 52.6791 1252.46 52.6791 Q1245.49 52.6791 1241.52 48.1653 Q1237.59 43.6225 1237.59 35.6653 Q1237.59 27.6792 1241.52 23.1654 Q1245.49 18.6515 1252.46 18.6515 Z" fill="#000000" fill-rule="nonzero" fill-opacity="1" /><path clip-path="url(#clip250)" d="M1316.32 24.3517 L1316.32 6.81709 L1321.64 6.81709 L1321.64 51.84 L1316.32 51.84 L1316.32 46.9789 Q1314.64 49.8724 1312.06 51.2902 Q1309.52 52.6791 1305.93 52.6791 Q1300.06 52.6791 1296.35 47.9916 Q1292.68 43.3042 1292.68 35.6653 Q1292.68 28.0265 1296.35 23.339 Q1300.06 18.6515 1305.93 18.6515 Q1309.52 18.6515 1312.06 20.0693 Q1314.64 21.4582 1316.32 24.3517 M1298.18 35.6653 Q1298.18 41.5391 1300.58 44.8956 Q1303.01 48.2231 1307.23 48.2231 Q1311.46 48.2231 1313.89 44.8956 Q1316.32 41.5391 1316.32 35.6653 Q1316.32 29.7915 1313.89 26.464 Q1311.46 23.1075 1307.23 23.1075 Q1303.01 23.1075 1300.58 26.464 Q1298.18 29.7915 1298.18 35.6653 Z" fill="#000000" fill-rule="nonzero" fill-opacity="1" /><path clip-path="url(#clip250)" d="M1347.34 35.5496 Q1340.88 35.5496 1338.4 37.0253 Q1335.91 38.501 1335.91 42.06 Q1335.91 44.8956 1337.76 46.5738 Q1339.64 48.2231 1342.85 48.2231 Q1347.28 48.2231 1349.94 45.0981 Q1352.63 41.9442 1352.63 36.7359 L1352.63 35.5496 L1347.34 35.5496 M1357.96 33.3505 L1357.96 51.84 L1352.63 51.84 L1352.63 46.921 Q1350.81 49.8724 1348.09 51.2902 Q1345.37 52.6791 1341.43 52.6791 Q1336.46 52.6791 1333.51 49.9014 Q1330.58 47.0947 1330.58 42.4072 Q1330.58 36.9385 1334.23 34.1607 Q1337.9 31.3829 1345.17 31.3829 L1352.63 31.3829 L1352.63 30.8621 Q1352.63 27.1874 1350.2 25.1908 Q1347.8 23.1654 1343.43 23.1654 Q1340.65 23.1654 1338.02 23.8309 Q1335.39 24.4964 1332.96 25.8274 L1332.96 20.9085 Q1335.88 19.78 1338.63 19.2302 Q1341.38 18.6515 1343.98 18.6515 Q1351.01 18.6515 1354.48 22.2973 Q1357.96 25.9431 1357.96 33.3505 Z" fill="#000000" fill-rule="nonzero" fill-opacity="1" /><path clip-path="url(#clip250)" d="M1415.48 34.3054 L1415.48 36.9095 L1391 36.9095 Q1391.35 42.4072 1394.3 45.3007 Q1397.28 48.1653 1402.57 48.1653 Q1405.64 48.1653 1408.51 47.4129 Q1411.4 46.6606 1414.23 45.156 L1414.23 50.1907 Q1411.37 51.406 1408.36 52.0425 Q1405.35 52.6791 1402.26 52.6791 Q1394.5 52.6791 1389.96 48.1653 Q1385.44 43.6514 1385.44 35.9547 Q1385.44 27.9975 1389.73 23.339 Q1394.04 18.6515 1401.33 18.6515 Q1407.87 18.6515 1411.66 22.876 Q1415.48 27.0716 1415.48 34.3054 M1410.15 32.7429 Q1410.1 28.3737 1407.7 25.7695 Q1405.32 23.1654 1401.39 23.1654 Q1396.93 23.1654 1394.24 25.6827 Q1391.58 28.2001 1391.17 32.7718 L1410.15 32.7429 Z" fill="#000000" fill-rule="nonzero" fill-opacity="1" /><path clip-path="url(#clip250)" d="M1427.4 35.6653 Q1427.4 41.5391 1429.8 44.8956 Q1432.23 48.2231 1436.46 48.2231 Q1440.68 48.2231 1443.11 44.8956 Q1445.54 41.5391 1445.54 35.6653 Q1445.54 29.7915 1443.11 26.464 Q1440.68 23.1075 1436.46 23.1075 Q1432.23 23.1075 1429.8 26.464 Q1427.4 29.7915 1427.4 35.6653 M1445.54 46.9789 Q1443.86 49.8724 1441.29 51.2902 Q1438.74 52.6791 1435.15 52.6791 Q1429.28 52.6791 1425.58 47.9916 Q1421.9 43.3042 1421.9 35.6653 Q1421.9 28.0265 1425.58 23.339 Q1429.28 18.6515 1435.15 18.6515 Q1438.74 18.6515 1441.29 20.0693 Q1443.86 21.4582 1445.54 24.3517 L1445.54 19.4328 L1450.87 19.4328 L1450.87 64.1663 L1445.54 64.1663 L1445.54 46.9789 Z" fill="#000000" fill-rule="nonzero" fill-opacity="1" /><path clip-path="url(#clip250)" d="M1461.28 39.0507 L1461.28 19.4328 L1466.61 19.4328 L1466.61 38.8482 Q1466.61 43.4488 1468.4 45.7636 Q1470.19 48.0495 1473.78 48.0495 Q1478.09 48.0495 1480.58 45.3007 Q1483.1 42.5519 1483.1 37.8065 L1483.1 19.4328 L1488.42 19.4328 L1488.42 51.84 L1483.1 51.84 L1483.1 46.8632 Q1481.16 49.8145 1478.59 51.2613 Q1476.04 52.6791 1472.65 52.6791 Q1467.07 52.6791 1464.18 49.2069 Q1461.28 45.7347 1461.28 39.0507 M1474.68 18.6515 L1474.68 18.6515 Z" fill="#000000" fill-rule="nonzero" fill-opacity="1" /><path clip-path="url(#clip250)" d="M1514.12 35.5496 Q1507.67 35.5496 1505.18 37.0253 Q1502.69 38.501 1502.69 42.06 Q1502.69 44.8956 1504.54 46.5738 Q1506.42 48.2231 1509.63 48.2231 Q1514.06 48.2231 1516.72 45.0981 Q1519.41 41.9442 1519.41 36.7359 L1519.41 35.5496 L1514.12 35.5496 M1524.74 33.3505 L1524.74 51.84 L1519.41 51.84 L1519.41 46.921 Q1517.59 49.8724 1514.87 51.2902 Q1512.15 52.6791 1508.22 52.6791 Q1503.24 52.6791 1500.29 49.9014 Q1497.36 47.0947 1497.36 42.4072 Q1497.36 36.9385 1501.01 34.1607 Q1504.69 31.3829 1511.95 31.3829 L1519.41 31.3829 L1519.41 30.8621 Q1519.41 27.1874 1516.98 25.1908 Q1514.58 23.1654 1510.21 23.1654 Q1507.43 23.1654 1504.8 23.8309 Q1502.17 24.4964 1499.74 25.8274 L1499.74 20.9085 Q1502.66 19.78 1505.41 19.2302 Q1508.16 18.6515 1510.76 18.6515 Q1517.79 18.6515 1521.27 22.2973 Q1524.74 25.9431 1524.74 33.3505 Z" fill="#000000" fill-rule="nonzero" fill-opacity="1" /><path clip-path="url(#clip250)" d="M1559.03 20.677 L1559.03 25.6538 Q1556.77 24.4096 1554.48 23.802 Q1552.23 23.1654 1549.91 23.1654 Q1544.73 23.1654 1541.87 26.464 Q1539 29.7336 1539 35.6653 Q1539 41.597 1541.87 44.8956 Q1544.73 48.1653 1549.91 48.1653 Q1552.23 48.1653 1554.48 47.5576 Q1556.77 46.921 1559.03 45.6768 L1559.03 50.5958 Q1556.8 51.6375 1554.4 52.1583 Q1552.02 52.6791 1549.33 52.6791 Q1542.01 52.6791 1537.7 48.0784 Q1533.39 43.4778 1533.39 35.6653 Q1533.39 27.7371 1537.73 23.1943 Q1542.1 18.6515 1549.68 18.6515 Q1552.14 18.6515 1554.48 19.1724 Q1556.83 19.6642 1559.03 20.677 M1551.5 51.84 Q1553.09 53.634 1553.88 55.1386 Q1554.66 56.6722 1554.66 58.061 Q1554.66 60.6362 1552.92 61.9383 Q1551.18 63.2693 1547.77 63.2693 Q1546.44 63.2693 1545.17 63.0957 Q1543.92 62.9221 1542.68 62.5749 L1542.68 58.7844 Q1543.66 59.2763 1544.73 59.4788 Q1545.8 59.7103 1547.16 59.7103 Q1548.87 59.7103 1549.74 59.0159 Q1550.61 58.3214 1550.61 56.9904 Q1550.61 56.1224 1549.97 54.8492 Q1549.36 53.605 1548.06 51.84 L1551.5 51.84 Z" fill="#000000" fill-rule="nonzero" fill-opacity="1" /><path clip-path="url(#clip250)" d="M1583.01 35.5496 Q1576.56 35.5496 1574.07 37.0253 Q1571.58 38.501 1571.58 42.06 Q1571.58 44.8956 1573.44 46.5738 Q1575.32 48.2231 1578.53 48.2231 Q1582.95 48.2231 1585.62 45.0981 Q1588.31 41.9442 1588.31 36.7359 L1588.31 35.5496 L1583.01 35.5496 M1593.63 33.3505 L1593.63 51.84 L1588.31 51.84 L1588.31 46.921 Q1586.48 49.8724 1583.76 51.2902 Q1581.04 52.6791 1577.11 52.6791 Q1572.13 52.6791 1569.18 49.9014 Q1566.26 47.0947 1566.26 42.4072 Q1566.26 36.9385 1569.91 34.1607 Q1573.58 31.3829 1580.84 31.3829 L1588.31 31.3829 L1588.31 30.8621 Q1588.31 27.1874 1585.88 25.1908 Q1583.48 23.1654 1579.11 23.1654 Q1576.33 23.1654 1573.7 23.8309 Q1571.06 24.4964 1568.63 25.8274 L1568.63 20.9085 Q1571.55 19.78 1574.3 19.2302 Q1577.05 18.6515 1579.66 18.6515 Q1586.69 18.6515 1590.16 22.2973 Q1593.63 25.9431 1593.63 33.3505 M1579.77 12.199 L1578.12 10.6076 Q1577.49 10.0289 1576.99 9.76847 Q1576.53 9.47912 1576.15 9.47912 Q1575.06 9.47912 1574.53 10.5497 Q1574.01 11.5914 1573.96 13.964 L1570.34 13.964 Q1570.4 10.0578 1571.87 7.94556 Q1573.35 5.80437 1575.98 5.80437 Q1577.08 5.80437 1578.01 6.20946 Q1578.93 6.61455 1580 7.5694 L1581.65 9.16083 Q1582.29 9.73953 1582.75 10.0289 Q1583.24 10.2893 1583.62 10.2893 Q1584.72 10.2893 1585.24 9.24764 Q1585.76 8.17704 1585.82 5.80437 L1589.44 5.80437 Q1589.38 9.7106 1587.9 11.8518 Q1586.43 13.964 1583.79 13.964 Q1582.69 13.964 1581.77 13.559 Q1580.84 13.1539 1579.77 12.199 Z" fill="#000000" fill-rule="nonzero" fill-opacity="1" /><path clip-path="url(#clip250)" d="M1617.16 23.1654 Q1612.87 23.1654 1610.39 26.5218 Q1607.9 29.8494 1607.9 35.6653 Q1607.9 41.4813 1610.36 44.8377 Q1612.84 48.1653 1617.16 48.1653 Q1621.41 48.1653 1623.9 44.8088 Q1626.39 41.4523 1626.39 35.6653 Q1626.39 29.9072 1623.9 26.5508 Q1621.41 23.1654 1617.16 23.1654 M1617.16 18.6515 Q1624.1 18.6515 1628.06 23.1654 Q1632.03 27.6792 1632.03 35.6653 Q1632.03 43.6225 1628.06 48.1653 Q1624.1 52.6791 1617.16 52.6791 Q1610.18 52.6791 1606.22 48.1653 Q1602.28 43.6225 1602.28 35.6653 Q1602.28 27.6792 1606.22 23.1654 Q1610.18 18.6515 1617.16 18.6515 Z" fill="#000000" fill-rule="nonzero" fill-opacity="1" /><path clip-path="url(#clip250)" d="M1659.69 6.81709 L1665.01 6.81709 L1665.01 51.84 L1659.69 51.84 L1659.69 6.81709 Z" fill="#000000" fill-rule="nonzero" fill-opacity="1" /><path clip-path="url(#clip250)" d="M1688.71 23.1654 Q1684.43 23.1654 1681.94 26.5218 Q1679.45 29.8494 1679.45 35.6653 Q1679.45 41.4813 1681.91 44.8377 Q1684.4 48.1653 1688.71 48.1653 Q1692.97 48.1653 1695.45 44.8088 Q1697.94 41.4523 1697.94 35.6653 Q1697.94 29.9072 1695.45 26.5508 Q1692.97 23.1654 1688.71 23.1654 M1688.71 18.6515 Q1695.66 18.6515 1699.62 23.1654 Q1703.58 27.6792 1703.58 35.6653 Q1703.58 43.6225 1699.62 48.1653 Q1695.66 52.6791 1688.71 52.6791 Q1681.74 52.6791 1677.77 48.1653 Q1673.84 43.6225 1673.84 35.6653 Q1673.84 27.6792 1677.77 23.1654 Q1681.74 18.6515 1688.71 18.6515 Z" fill="#000000" fill-rule="nonzero" fill-opacity="1" /><path clip-path="url(#clip250)" d="M1733.74 35.2602 Q1733.74 29.4732 1731.33 26.2904 Q1728.96 23.1075 1724.65 23.1075 Q1720.37 23.1075 1717.97 26.2904 Q1715.59 29.4732 1715.59 35.2602 Q1715.59 41.0183 1717.97 44.2012 Q1720.37 47.384 1724.65 47.384 Q1728.96 47.384 1731.33 44.2012 Q1733.74 41.0183 1733.74 35.2602 M1739.06 47.818 Q1739.06 56.0934 1735.38 60.1154 Q1731.71 64.1663 1724.13 64.1663 Q1721.32 64.1663 1718.83 63.7323 Q1716.35 63.3272 1714 62.4592 L1714 57.2798 Q1716.35 58.5529 1718.63 59.1606 Q1720.92 59.7682 1723.29 59.7682 Q1728.53 59.7682 1731.13 57.0194 Q1733.74 54.2995 1733.74 48.7729 L1733.74 46.1398 Q1732.09 49.0044 1729.51 50.4222 Q1726.94 51.84 1723.35 51.84 Q1717.39 51.84 1713.74 47.2972 Q1710.1 42.7544 1710.1 35.2602 Q1710.1 27.7371 1713.74 23.1943 Q1717.39 18.6515 1723.35 18.6515 Q1726.94 18.6515 1729.51 20.0693 Q1732.09 21.4872 1733.74 24.3517 L1733.74 19.4328 L1739.06 19.4328 L1739.06 47.818 Z" fill="#000000" fill-rule="nonzero" fill-opacity="1" /><path clip-path="url(#clip250)" d="M1756.71 4.44442 L1762.47 4.44442 L1753.03 15.324 L1748.61 15.324 L1756.71 4.44442 M1750.03 19.4328 L1755.35 19.4328 L1755.35 51.84 L1750.03 51.84 L1750.03 19.4328 M1752.69 18.6515 L1752.69 18.6515 Z" fill="#000000" fill-rule="nonzero" fill-opacity="1" /><path clip-path="url(#clip250)" d="M1787.15 20.3876 L1787.15 25.4223 Q1784.89 24.2649 1782.46 23.6862 Q1780.03 23.1075 1777.43 23.1075 Q1773.46 23.1075 1771.47 24.3228 Q1769.5 25.5381 1769.5 27.9686 Q1769.5 29.8204 1770.92 30.891 Q1772.33 31.9327 1776.62 32.8876 L1778.44 33.2926 Q1784.11 34.5079 1786.48 36.7359 Q1788.89 38.935 1788.89 42.8991 Q1788.89 47.4129 1785.3 50.046 Q1781.74 52.6791 1775.49 52.6791 Q1772.88 52.6791 1770.05 52.1583 Q1767.24 51.6664 1764.12 50.6537 L1764.12 45.156 Q1767.07 46.6896 1769.93 47.4708 Q1772.8 48.2231 1775.6 48.2231 Q1779.37 48.2231 1781.39 46.95 Q1783.42 45.6479 1783.42 43.3042 Q1783.42 41.134 1781.94 39.9766 Q1780.49 38.8192 1775.55 37.7486 L1773.69 37.3146 Q1768.75 36.273 1766.55 34.1318 Q1764.35 31.9616 1764.35 28.2001 Q1764.35 23.6283 1767.59 21.1399 Q1770.83 18.6515 1776.79 18.6515 Q1779.74 18.6515 1782.35 19.0855 Q1784.95 19.5196 1787.15 20.3876 Z" fill="#000000" fill-rule="nonzero" fill-opacity="1" /><path clip-path="url(#clip250)" d="M1802.63 10.2314 L1802.63 19.4328 L1813.6 19.4328 L1813.6 23.5705 L1802.63 23.5705 L1802.63 41.163 Q1802.63 45.1271 1803.7 46.2555 Q1804.8 47.384 1808.13 47.384 L1813.6 47.384 L1813.6 51.84 L1808.13 51.84 Q1801.96 51.84 1799.62 49.5541 Q1797.28 47.2393 1797.28 41.163 L1797.28 23.5705 L1793.37 23.5705 L1793.37 19.4328 L1797.28 19.4328 L1797.28 10.2314 L1802.63 10.2314 Z" fill="#000000" fill-rule="nonzero" fill-opacity="1" /><path clip-path="url(#clip250)" d="M1820.6 19.4328 L1825.92 19.4328 L1825.92 51.84 L1820.6 51.84 L1820.6 19.4328 M1820.6 6.81709 L1825.92 6.81709 L1825.92 13.559 L1820.6 13.559 L1820.6 6.81709 Z" fill="#000000" fill-rule="nonzero" fill-opacity="1" /><path clip-path="url(#clip250)" d="M1860.38 20.677 L1860.38 25.6538 Q1858.13 24.4096 1855.84 23.802 Q1853.58 23.1654 1851.27 23.1654 Q1846.09 23.1654 1843.23 26.464 Q1840.36 29.7336 1840.36 35.6653 Q1840.36 41.597 1843.23 44.8956 Q1846.09 48.1653 1851.27 48.1653 Q1853.58 48.1653 1855.84 47.5576 Q1858.13 46.921 1860.38 45.6768 L1860.38 50.5958 Q1858.16 51.6375 1855.75 52.1583 Q1853.38 52.6791 1850.69 52.6791 Q1843.37 52.6791 1839.06 48.0784 Q1834.75 43.4778 1834.75 35.6653 Q1834.75 27.7371 1839.09 23.1943 Q1843.46 18.6515 1851.04 18.6515 Q1853.5 18.6515 1855.84 19.1724 Q1858.18 19.6642 1860.38 20.677 Z" fill="#000000" fill-rule="nonzero" fill-opacity="1" /><path clip-path="url(#clip250)" d="M1884.37 35.5496 Q1877.92 35.5496 1875.43 37.0253 Q1872.94 38.501 1872.94 42.06 Q1872.94 44.8956 1874.79 46.5738 Q1876.67 48.2231 1879.89 48.2231 Q1884.31 48.2231 1886.98 45.0981 Q1889.67 41.9442 1889.67 36.7359 L1889.67 35.5496 L1884.37 35.5496 M1894.99 33.3505 L1894.99 51.84 L1889.67 51.84 L1889.67 46.921 Q1887.84 49.8724 1885.12 51.2902 Q1882.4 52.6791 1878.47 52.6791 Q1873.49 52.6791 1870.54 49.9014 Q1867.62 47.0947 1867.62 42.4072 Q1867.62 36.9385 1871.26 34.1607 Q1874.94 31.3829 1882.2 31.3829 L1889.67 31.3829 L1889.67 30.8621 Q1889.67 27.1874 1887.24 25.1908 Q1884.83 23.1654 1880.46 23.1654 Q1877.69 23.1654 1875.05 23.8309 Q1872.42 24.4964 1869.99 25.8274 L1869.99 20.9085 Q1872.91 19.78 1875.66 19.2302 Q1878.41 18.6515 1881.01 18.6515 Q1888.05 18.6515 1891.52 22.2973 Q1894.99 25.9431 1894.99 33.3505 Z" fill="#000000" fill-rule="nonzero" fill-opacity="1" /><path clip-path="url(#clip250)" d="M1946.12 24.3517 L1946.12 6.81709 L1951.44 6.81709 L1951.44 51.84 L1946.12 51.84 L1946.12 46.9789 Q1944.44 49.8724 1941.86 51.2902 Q1939.32 52.6791 1935.73 52.6791 Q1929.86 52.6791 1926.15 47.9916 Q1922.48 43.3042 1922.48 35.6653 Q1922.48 28.0265 1926.15 23.339 Q1929.86 18.6515 1935.73 18.6515 Q1939.32 18.6515 1941.86 20.0693 Q1944.44 21.4582 1946.12 24.3517 M1927.98 35.6653 Q1927.98 41.5391 1930.38 44.8956 Q1932.81 48.2231 1937.03 48.2231 Q1941.26 48.2231 1943.69 44.8956 Q1946.12 41.5391 1946.12 35.6653 Q1946.12 29.7915 1943.69 26.464 Q1941.26 23.1075 1937.03 23.1075 Q1932.81 23.1075 1930.38 26.464 Q1927.98 29.7915 1927.98 35.6653 Z" fill="#000000" fill-rule="nonzero" fill-opacity="1" /><path clip-path="url(#clip250)" d="M1990.13 34.3054 L1990.13 36.9095 L1965.65 36.9095 Q1966 42.4072 1968.95 45.3007 Q1971.93 48.1653 1977.22 48.1653 Q1980.29 48.1653 1983.16 47.4129 Q1986.05 46.6606 1988.88 45.156 L1988.88 50.1907 Q1986.02 51.406 1983.01 52.0425 Q1980 52.6791 1976.91 52.6791 Q1969.15 52.6791 1964.61 48.1653 Q1960.09 43.6514 1960.09 35.9547 Q1960.09 27.9975 1964.38 23.339 Q1968.69 18.6515 1975.98 18.6515 Q1982.52 18.6515 1986.31 22.876 Q1990.13 27.0716 1990.13 34.3054 M1984.8 32.7429 Q1984.75 28.3737 1982.34 25.7695 Q1979.97 23.1654 1976.04 23.1654 Q1971.58 23.1654 1968.89 25.6827 Q1966.23 28.2001 1965.82 32.7718 L1984.8 32.7429 Z" fill="#000000" fill-rule="nonzero" fill-opacity="1" /><path clip-path="url(#clip250)" d="M2004.13 10.2314 L2004.13 19.4328 L2015.1 19.4328 L2015.1 23.5705 L2004.13 23.5705 L2004.13 41.163 Q2004.13 45.1271 2005.2 46.2555 Q2006.3 47.384 2009.63 47.384 L2015.1 47.384 L2015.1 51.84 L2009.63 51.84 Q2003.47 51.84 2001.12 49.5541 Q1998.78 47.2393 1998.78 41.163 L1998.78 23.5705 L1994.87 23.5705 L1994.87 19.4328 L1998.78 19.4328 L1998.78 10.2314 L2004.13 10.2314 Z" fill="#000000" fill-rule="nonzero" fill-opacity="1" /><path clip-path="url(#clip250)" d="M2049.82 34.3054 L2049.82 36.9095 L2025.34 36.9095 Q2025.69 42.4072 2028.64 45.3007 Q2031.62 48.1653 2036.92 48.1653 Q2039.98 48.1653 2042.85 47.4129 Q2045.74 46.6606 2048.58 45.156 L2048.58 50.1907 Q2045.71 51.406 2042.7 52.0425 Q2039.69 52.6791 2036.6 52.6791 Q2028.84 52.6791 2024.3 48.1653 Q2019.79 43.6514 2019.79 35.9547 Q2019.79 27.9975 2024.07 23.339 Q2028.38 18.6515 2035.67 18.6515 Q2042.21 18.6515 2046 22.876 Q2049.82 27.0716 2049.82 34.3054 M2044.5 32.7429 Q2044.44 28.3737 2042.04 25.7695 Q2039.67 23.1654 2035.73 23.1654 Q2031.27 23.1654 2028.58 25.6827 Q2025.92 28.2001 2025.52 32.7718 L2044.5 32.7429 Z" fill="#000000" fill-rule="nonzero" fill-opacity="1" /><path clip-path="url(#clip250)" d="M2077.34 24.4096 Q2076.44 23.8888 2075.37 23.6573 Q2074.33 23.3969 2073.06 23.3969 Q2068.54 23.3969 2066.11 26.3482 Q2063.71 29.2707 2063.71 34.7683 L2063.71 51.84 L2058.36 51.84 L2058.36 19.4328 L2063.71 19.4328 L2063.71 24.4675 Q2065.39 21.5161 2068.08 20.0983 Q2070.77 18.6515 2074.62 18.6515 Q2075.17 18.6515 2075.83 18.7383 Q2076.5 18.7962 2077.31 18.9409 L2077.34 24.4096 Z" fill="#000000" fill-rule="nonzero" fill-opacity="1" /><path clip-path="url(#clip250)" d="M2107.11 25.6538 Q2109.11 22.0659 2111.89 20.3587 Q2114.66 18.6515 2118.43 18.6515 Q2123.49 18.6515 2126.24 22.2105 Q2128.99 25.7406 2128.99 32.2799 L2128.99 51.84 L2123.63 51.84 L2123.63 32.4535 Q2123.63 27.795 2121.99 25.5381 Q2120.34 23.2811 2116.95 23.2811 Q2112.81 23.2811 2110.41 26.03 Q2108.01 28.7788 2108.01 33.5241 L2108.01 51.84 L2102.66 51.84 L2102.66 32.4535 Q2102.66 27.7661 2101.01 25.5381 Q2099.36 23.2811 2095.91 23.2811 Q2091.84 23.2811 2089.43 26.0589 Q2087.03 28.8077 2087.03 33.5241 L2087.03 51.84 L2081.68 51.84 L2081.68 19.4328 L2087.03 19.4328 L2087.03 24.4675 Q2088.85 21.4872 2091.4 20.0693 Q2093.95 18.6515 2097.45 18.6515 Q2100.98 18.6515 2103.44 20.4455 Q2105.93 22.2395 2107.11 25.6538 Z" fill="#000000" fill-rule="nonzero" fill-opacity="1" /><path clip-path="url(#clip250)" d="M2139.61 19.4328 L2144.93 19.4328 L2144.93 51.84 L2139.61 51.84 L2139.61 19.4328 M2139.61 6.81709 L2144.93 6.81709 L2144.93 13.559 L2139.61 13.559 L2139.61 6.81709 Z" fill="#000000" fill-rule="nonzero" fill-opacity="1" /><path clip-path="url(#clip250)" d="M2183.01 32.2799 L2183.01 51.84 L2177.69 51.84 L2177.69 32.4535 Q2177.69 27.8529 2175.89 25.567 Q2174.1 23.2811 2170.51 23.2811 Q2166.2 23.2811 2163.71 26.03 Q2161.22 28.7788 2161.22 33.5241 L2161.22 51.84 L2155.87 51.84 L2155.87 19.4328 L2161.22 19.4328 L2161.22 24.4675 Q2163.13 21.545 2165.71 20.0983 Q2168.31 18.6515 2171.7 18.6515 Q2177.28 18.6515 2180.14 22.1237 Q2183.01 25.567 2183.01 32.2799 Z" fill="#000000" fill-rule="nonzero" fill-opacity="1" /><path clip-path="url(#clip250)" d="M2200.31 4.44442 L2206.07 4.44442 L2196.64 15.324 L2192.21 15.324 L2200.31 4.44442 M2193.63 19.4328 L2198.95 19.4328 L2198.95 51.84 L2193.63 51.84 L2193.63 19.4328 M2196.29 18.6515 L2196.29 18.6515 Z" fill="#000000" fill-rule="nonzero" fill-opacity="1" /><path clip-path="url(#clip250)" d="M2230.75 20.3876 L2230.75 25.4223 Q2228.5 24.2649 2226.06 23.6862 Q2223.63 23.1075 2221.03 23.1075 Q2217.07 23.1075 2215.07 24.3228 Q2213.1 25.5381 2213.1 27.9686 Q2213.1 29.8204 2214.52 30.891 Q2215.94 31.9327 2220.22 32.8876 L2222.04 33.2926 Q2227.71 34.5079 2230.09 36.7359 Q2232.49 38.935 2232.49 42.8991 Q2232.49 47.4129 2228.9 50.046 Q2225.34 52.6791 2219.09 52.6791 Q2216.49 52.6791 2213.65 52.1583 Q2210.84 51.6664 2207.72 50.6537 L2207.72 45.156 Q2210.67 46.6896 2213.54 47.4708 Q2216.4 48.2231 2219.21 48.2231 Q2222.97 48.2231 2224.99 46.95 Q2227.02 45.6479 2227.02 43.3042 Q2227.02 41.134 2225.54 39.9766 Q2224.1 38.8192 2219.15 37.7486 L2217.3 37.3146 Q2212.35 36.273 2210.15 34.1318 Q2207.95 31.9616 2207.95 28.2001 Q2207.95 23.6283 2211.19 21.1399 Q2214.43 18.6515 2220.39 18.6515 Q2223.34 18.6515 2225.95 19.0855 Q2228.55 19.5196 2230.75 20.3876 Z" fill="#000000" fill-rule="nonzero" fill-opacity="1" /><path clip-path="url(#clip250)" d="M2246.23 10.2314 L2246.23 19.4328 L2257.2 19.4328 L2257.2 23.5705 L2246.23 23.5705 L2246.23 41.163 Q2246.23 45.1271 2247.3 46.2555 Q2248.4 47.384 2251.73 47.384 L2257.2 47.384 L2257.2 51.84 L2251.73 51.84 Q2245.57 51.84 2243.22 49.5541 Q2240.88 47.2393 2240.88 41.163 L2240.88 23.5705 L2236.97 23.5705 L2236.97 19.4328 L2240.88 19.4328 L2240.88 10.2314 L2246.23 10.2314 Z" fill="#000000" fill-rule="nonzero" fill-opacity="1" /><path clip-path="url(#clip250)" d="M2264.2 19.4328 L2269.53 19.4328 L2269.53 51.84 L2264.2 51.84 L2264.2 19.4328 M2264.2 6.81709 L2269.53 6.81709 L2269.53 13.559 L2264.2 13.559 L2264.2 6.81709 Z" fill="#000000" fill-rule="nonzero" fill-opacity="1" /><path clip-path="url(#clip250)" d="M2303.99 20.677 L2303.99 25.6538 Q2301.73 24.4096 2299.44 23.802 Q2297.19 23.1654 2294.87 23.1654 Q2289.69 23.1654 2286.83 26.464 Q2283.96 29.7336 2283.96 35.6653 Q2283.96 41.597 2286.83 44.8956 Q2289.69 48.1653 2294.87 48.1653 Q2297.19 48.1653 2299.44 47.5576 Q2301.73 46.921 2303.99 45.6768 L2303.99 50.5958 Q2301.76 51.6375 2299.36 52.1583 Q2296.98 52.6791 2294.29 52.6791 Q2286.97 52.6791 2282.66 48.0784 Q2278.35 43.4778 2278.35 35.6653 Q2278.35 27.7371 2282.69 23.1943 Q2287.06 18.6515 2294.64 18.6515 Q2297.1 18.6515 2299.44 19.1724 Q2301.79 19.6642 2303.99 20.677 Z" fill="#000000" fill-rule="nonzero" fill-opacity="1" /><path clip-path="url(#clip250)" d="M2327.97 35.5496 Q2321.52 35.5496 2319.03 37.0253 Q2316.54 38.501 2316.54 42.06 Q2316.54 44.8956 2318.4 46.5738 Q2320.28 48.2231 2323.49 48.2231 Q2327.92 48.2231 2330.58 45.0981 Q2333.27 41.9442 2333.27 36.7359 L2333.27 35.5496 L2327.97 35.5496 M2338.59 33.3505 L2338.59 51.84 L2333.27 51.84 L2333.27 46.921 Q2331.45 49.8724 2328.73 51.2902 Q2326.01 52.6791 2322.07 52.6791 Q2317.09 52.6791 2314.14 49.9014 Q2311.22 47.0947 2311.22 42.4072 Q2311.22 36.9385 2314.87 34.1607 Q2318.54 31.3829 2325.8 31.3829 L2333.27 31.3829 L2333.27 30.8621 Q2333.27 27.1874 2330.84 25.1908 Q2328.44 23.1654 2324.07 23.1654 Q2321.29 23.1654 2318.66 23.8309 Q2316.02 24.4964 2313.59 25.8274 L2313.59 20.9085 Q2316.52 19.78 2319.26 19.2302 Q2322.01 18.6515 2324.62 18.6515 Q2331.65 18.6515 2335.12 22.2973 Q2338.59 25.9431 2338.59 33.3505 Z" fill="#000000" fill-rule="nonzero" fill-opacity="1" /><polyline clip-path="url(#clip252)" style="stroke:#009af9; stroke-linecap:round; stroke-linejoin:round; stroke-width:4; stroke-opacity:1; fill:none" points="315.946,2145.67 318.703,2145.48 321.46,2145.27 324.217,2145.07 326.973,2144.86 329.73,2144.65 332.487,2144.43 335.244,2144.22 338.001,2144 340.758,2143.77 343.515,2143.54 346.272,2143.31 349.029,2143.08 351.786,2142.84 354.543,2142.6 357.3,2142.35 360.057,2142.11 362.814,2141.85 365.571,2141.6 368.328,2141.34 371.085,2141.07 373.841,2140.81 376.598,2140.53 379.355,2140.26 382.112,2139.98 384.869,2139.7 387.626,2139.41 390.383,2139.11 393.14,2138.82 395.897,2138.52 398.654,2138.21 401.411,2137.9 404.168,2137.59 406.925,2137.27 409.682,2136.94 412.439,2136.61 415.196,2136.28 417.953,2135.94 420.709,2135.6 423.466,2135.25 426.223,2134.9 428.98,2134.54 431.737,2134.17 434.494,2133.8 437.251,2133.43 440.008,2133.05 442.765,2132.66 445.522,2132.27 448.279,2131.87 451.036,2131.47 453.793,2131.06 456.55,2130.64 459.307,2130.22 462.064,2129.79 464.821,2129.36 467.577,2128.92 470.334,2128.47 473.091,2128.01 475.848,2127.55 478.605,2127.09 481.362,2126.61 484.119,2126.13 486.876,2125.65 489.633,2125.15 492.39,2124.65 495.147,2124.14 497.904,2123.62 500.661,2123.1 503.418,2122.56 506.175,2122.02 508.932,2121.48 511.689,2120.92 514.445,2120.36 517.202,2119.79 519.959,2119.21 522.716,2118.62 525.473,2118.02 528.23,2117.41 530.987,2116.8 533.744,2116.17 536.501,2115.54 539.258,2114.9 542.015,2114.25 544.772,2113.59 547.529,2112.92 550.286,2112.24 553.043,2111.55 555.8,2110.85 558.557,2110.14 561.314,2109.42 564.07,2108.69 566.827,2107.95 569.584,2107.2 572.341,2106.44 575.098,2105.66 577.855,2104.88 580.612,2104.08 583.369,2103.28 586.126,2102.46 588.883,2101.63 591.64,2100.79 594.397,2099.94 597.154,2099.07 599.911,2098.19 602.668,2097.3 605.425,2096.4 608.182,2095.48 610.938,2094.55 613.695,2093.61 616.452,2092.66 619.209,2091.69 621.966,2090.71 624.723,2089.71 627.48,2088.7 630.237,2087.68 632.994,2086.64 635.751,2085.58 638.508,2084.52 641.265,2083.43 644.022,2082.33 646.779,2081.22 649.536,2080.09 652.293,2078.95 655.05,2077.79 657.806,2076.61 660.563,2075.42 663.32,2074.21 666.077,2072.98 668.834,2071.74 671.591,2070.48 674.348,2069.2 677.105,2067.9 679.862,2066.59 682.619,2065.26 685.376,2063.91 688.133,2062.54 690.89,2061.16 693.647,2059.75 696.404,2058.33 699.161,2056.88 701.918,2055.42 704.674,2053.94 707.431,2052.43 710.188,2050.91 712.945,2049.37 715.702,2047.8 718.459,2046.21 721.216,2044.61 723.973,2042.98 726.73,2041.33 729.487,2039.66 732.244,2037.96 735.001,2036.24 737.758,2034.5 740.515,2032.74 743.272,2030.96 746.029,2029.15 748.786,2027.31 751.542,2025.45 754.299,2023.57 757.056,2021.67 759.813,2019.73 762.57,2017.78 765.327,2015.8 768.084,2013.79 770.841,2011.76 773.598,2009.7 776.355,2007.61 779.112,2005.5 781.869,2003.36 784.626,2001.19 787.383,1999 790.14,1996.78 792.897,1994.53 795.654,1992.25 798.41,1989.94 801.167,1987.61 803.924,1985.24 806.681,1982.85 809.438,1980.42 812.195,1977.97 814.952,1975.48 817.709,1972.97 820.466,1970.42 823.223,1967.84 825.98,1965.23 828.737,1962.59 831.494,1959.92 834.251,1957.21 837.008,1954.47 839.765,1951.7 842.522,1948.9 845.278,1946.06 848.035,1943.19 850.792,1940.29 853.549,1937.35 856.306,1934.37 859.063,1931.36 861.82,1928.32 864.577,1925.24 867.334,1922.13 870.091,1918.98 872.848,1915.79 875.605,1912.57 878.362,1909.31 881.119,1906.01 883.876,1902.68 886.633,1899.31 889.39,1895.9 892.146,1892.46 894.903,1888.97 897.66,1885.45 900.417,1881.89 903.174,1878.29 905.931,1874.65 908.688,1870.97 911.445,1867.26 914.202,1863.5 916.959,1859.7 919.716,1855.87 922.473,1851.99 925.23,1848.08 927.987,1844.12 930.744,1840.12 933.501,1836.08 936.258,1832 939.015,1827.88 941.771,1823.71 944.528,1819.51 947.285,1815.26 950.042,1810.97 952.799,1806.64 955.556,1802.26 958.313,1797.85 961.07,1793.39 963.827,1788.89 966.584,1784.34 969.341,1779.76 972.098,1775.13 974.855,1770.45 977.612,1765.74 980.369,1760.98 983.126,1756.18 985.883,1751.33 988.639,1746.45 991.396,1741.52 994.153,1736.54 996.91,1731.53 999.667,1726.47 1002.42,1721.36 1005.18,1716.22 1007.94,1711.03 1010.69,1705.8 1013.45,1700.52 1016.21,1695.21 1018.97,1689.85 1021.72,1684.44 1024.48,1679 1027.24,1673.51 1029.99,1667.98 1032.75,1662.41 1035.51,1656.8 1038.26,1651.14 1041.02,1645.44 1043.78,1639.7 1046.54,1633.92 1049.29,1628.1 1052.05,1622.24 1054.81,1616.33 1057.56,1610.39 1060.32,1604.4 1063.08,1598.38 1065.83,1592.31 1068.59,1586.21 1071.35,1580.07 1074.1,1573.89 1076.86,1567.67 1079.62,1561.41 1082.38,1555.11 1085.13,1548.78 1087.89,1542.41 1090.65,1536.01 1093.4,1529.57 1096.16,1523.09 1098.92,1516.58 1101.67,1510.03 1104.43,1503.45 1107.19,1496.84 1109.94,1490.19 1112.7,1483.51 1115.46,1476.8 1118.22,1470.06 1120.97,1463.28 1123.73,1456.48 1126.49,1449.64 1129.24,1442.78 1132,1435.89 1134.76,1428.96 1137.51,1422.02 1140.27,1415.04 1143.03,1408.04 1145.79,1401.01 1148.54,1393.96 1151.3,1386.88 1154.06,1379.78 1156.81,1372.65 1159.57,1365.5 1162.33,1358.33 1165.08,1351.14 1167.84,1343.93 1170.6,1336.7 1173.35,1329.45 1176.11,1322.18 1178.87,1314.9 1181.63,1307.6 1184.38,1300.28 1187.14,1292.95 1189.9,1285.6 1192.65,1278.24 1195.41,1270.87 1198.17,1263.48 1200.92,1256.09 1203.68,1248.68 1206.44,1241.27 1209.19,1233.85 1211.95,1226.41 1214.71,1218.97 1217.47,1211.53 1220.22,1204.08 1222.98,1196.62 1225.74,1189.16 1228.49,1181.7 1231.25,1174.23 1234.01,1166.77 1236.76,1159.3 1239.52,1151.84 1242.28,1144.37 1245.04,1136.91 1247.79,1129.46 1250.55,1122 1253.31,1114.56 1256.06,1107.11 1258.82,1099.68 1261.58,1092.25 1264.33,1084.84 1267.09,1077.43 1269.85,1070.03 1272.6,1062.64 1275.36,1055.26 1278.12,1047.9 1280.88,1040.55 1283.63,1033.21 1286.39,1025.89 1289.15,1018.59 1291.9,1011.3 1294.66,1004.02 1297.42,996.767 1300.17,989.53 1302.93,982.313 1305.69,975.115 1308.44,967.938 1311.2,960.781 1313.96,953.647 1316.72,946.535 1319.47,939.447 1322.23,932.382 1324.99,925.342 1327.74,918.327 1330.5,911.338 1333.26,904.375 1336.01,897.439 1338.77,890.53 1341.53,883.65 1344.28,876.799 1347.04,869.977 1349.8,863.184 1352.56,856.423 1355.31,849.692 1358.07,842.993 1360.83,836.326 1363.58,829.691 1366.34,823.09 1369.1,816.523 1371.85,809.989 1374.61,803.491 1377.37,797.027 1380.13,790.6 1382.88,784.208 1385.64,777.853 1388.4,771.535 1391.15,765.254 1393.91,759.012 1396.67,752.807 1399.42,746.642 1402.18,740.516 1404.94,734.429 1407.69,728.383 1410.45,722.377 1413.21,716.412 1415.97,710.487 1418.72,704.604 1421.48,698.762 1424.24,692.96 1426.99,687.2 1429.75,681.482 1432.51,675.805 1435.26,670.17 1438.02,664.577 1440.78,659.026 1443.53,653.517 1446.29,648.051 1449.05,642.626 1451.81,637.245 1454.56,631.906 1457.32,626.609 1460.08,621.355 1462.83,616.144 1465.59,610.976 1468.35,605.85 1471.1,600.768 1473.86,595.728 1476.62,590.732 1479.38,585.778 1482.13,580.867 1484.89,575.999 1487.65,571.175 1490.4,566.393 1493.16,561.654 1495.92,556.958 1498.67,552.305 1501.43,547.695 1504.19,543.127 1506.94,538.602 1509.7,534.12 1512.46,529.68 1515.22,525.282 1517.97,520.927 1520.73,516.615 1523.49,512.344 1526.24,508.115 1529,503.929 1531.76,499.784 1534.51,495.68 1537.27,491.618 1540.03,487.598 1542.78,483.618 1545.54,479.679 1548.3,475.782 1551.06,471.924 1553.81,468.108 1556.57,464.331 1559.33,460.594 1562.08,456.897 1564.84,453.24 1567.6,449.622 1570.35,446.043 1573.11,442.502 1575.87,439 1578.62,435.537 1581.38,432.111 1584.14,428.723 1586.9,425.373 1589.65,422.059 1592.41,418.783 1595.17,415.543 1597.92,412.339 1600.68,409.17 1603.44,406.038 1606.19,402.938 1608.95,399.871 1611.71,396.836 1614.47,393.834 1617.22,390.864 1619.98,387.926 1622.74,385.02 1625.49,382.146 1628.25,379.304 1631.01,376.494 1633.76,373.715 1636.52,370.968 1639.28,368.252 1642.03,365.568 1644.79,362.914 1647.55,360.292 1650.31,357.7 1653.06,355.139 1655.82,352.609 1658.58,350.109 1661.33,347.64 1664.09,345.2 1666.85,342.791 1669.6,340.411 1672.36,338.061 1675.12,335.74 1677.87,333.449 1680.63,331.186 1683.39,328.953 1686.15,326.749 1688.9,324.573 1691.66,322.425 1694.42,320.305 1697.17,318.214 1699.93,316.15 1702.69,314.114 1705.44,312.105 1708.2,310.123 1710.96,308.169 1713.72,306.241 1716.47,304.339 1719.23,302.463 1721.99,300.614 1724.74,298.79 1727.5,296.992 1730.26,295.219 1733.01,293.471 1735.77,291.748 1738.53,290.05 1741.28,288.375 1744.04,286.725 1746.8,285.098 1749.56,283.495 1752.31,281.915 1755.07,280.358 1757.83,278.823 1760.58,277.311 1763.34,275.82 1766.1,274.352 1768.85,272.905 1771.61,271.479 1774.37,270.074 1777.12,268.689 1779.88,267.325 1782.64,265.98 1785.4,264.655 1788.15,263.35 1790.91,262.063 1793.67,260.794 1796.42,259.544 1799.18,258.312 1801.94,257.098 1804.69,255.9 1807.45,254.72 1810.21,253.556 1812.96,252.408 1815.72,251.276 1818.48,250.159 1821.24,249.058 1823.99,247.971 1826.75,246.898 1829.51,245.839 1832.26,244.794 1835.02,243.762 1837.78,242.742 1840.53,241.735 1843.29,240.74 1846.05,239.756 1848.81,238.784 1851.56,237.822 1854.32,236.871 1857.08,235.929 1859.83,234.997 1862.59,234.074 1865.35,233.16 1868.1,232.258 1870.86,231.369 1873.62,230.491 1876.37,229.626 1879.13,228.773 1881.89,227.932 1884.65,227.102 1887.4,226.284 1890.16,225.477 1892.92,224.681 1895.67,223.897 1898.43,223.123 1901.19,222.361 1903.94,221.609 1906.7,220.868 1909.46,220.138 1912.21,219.417 1914.97,218.708 1917.73,218.008 1920.49,217.318 1923.24,216.638 1926,215.968 1928.76,215.307 1931.51,214.656 1934.27,214.015 1937.03,213.382 1939.78,212.759 1942.54,212.145 1945.3,211.54 1948.06,210.943 1950.81,210.355 1953.57,209.776 1956.33,209.205 1959.08,208.643 1961.84,208.089 1964.6,207.543 1967.35,207.004 1970.11,206.474 1972.87,205.951 1975.62,205.437 1978.38,204.929 1981.14,204.429 1983.9,203.937 1986.65,203.451 1989.41,202.973 1992.17,202.502 1994.92,202.037 1997.68,201.58 2000.44,201.129 2003.19,200.684 2005.95,200.246 2008.71,199.815 2011.46,199.389 2014.22,198.97 2016.98,198.557 2019.74,198.15 2022.49,197.749 2025.25,197.353 2028.01,196.963 2030.76,196.579 2033.52,196.2 2036.28,195.826 2039.03,195.458 2041.79,195.095 2044.55,194.737 2047.31,194.384 2050.06,194.036 2052.82,193.693 2055.58,193.354 2058.33,193.019 2061.09,192.689 2063.85,192.363 2066.6,192.042 2069.36,191.725 2072.12,191.412 2074.87,191.103 2077.63,190.798 2080.39,190.498 2083.15,190.202 2085.9,189.91 2088.66,189.622 2091.42,189.338 2094.17,189.058 2096.93,188.782 2099.69,188.51 2102.44,188.241 2105.2,187.977 2107.96,187.717 2110.71,187.46 2113.47,187.207 2116.23,186.958 2118.99,186.713 2121.74,186.471 2124.5,186.233 2127.26,185.998 2130.01,185.767 2132.77,185.54 2135.53,185.316 2138.28,185.095 2141.04,184.878 2143.8,184.664 2146.55,184.454 2149.31,184.247 2152.07,184.043 2154.83,183.842 2157.58,183.645 2160.34,183.451 2163.1,183.26 2165.85,183.072 2168.61,182.887 2171.37,182.705 2174.12,182.526 2176.88,182.35 2179.64,182.176 2182.4,182.006 2185.15,181.839 2187.91,181.674 2190.67,181.512 2193.42,181.352 2196.18,181.196 2198.94,181.042 2201.69,180.89 2204.45,180.741 2207.21,180.595 2209.96,180.451 2212.72,180.309 2215.48,180.17 2218.24,180.033 2220.99,179.898 2223.75,179.766 2226.51,179.636 2229.26,179.508 2232.02,179.382 2234.78,179.258 2237.53,179.136 2240.29,179.016 2243.05,178.898 2245.8,178.782 2248.56,178.668 2251.32,178.556 2254.08,178.445 2256.83,178.336 2259.59,178.229 2262.35,178.123 2265.1,178.019 2267.86,177.917 2270.62,177.816 2273.37,177.716 2276.13,177.618 2278.89,177.521 2281.65,177.426 2284.4,177.332 2287.16,177.239 2289.92,177.147 2292.67,177.056 2295.43,176.966 2298.19,176.878 2300.94,176.79 2303.7,176.703 2306.46,176.617 2309.21,176.532 2311.97,176.448 2314.73,176.364 2317.49,176.281 2320.24,176.199 2323,176.118 2325.76,176.038 2328.51,175.958 2331.27,175.88 2334.03,175.803 2336.78,175.727 2339.54,175.653 2342.3,175.579 2345.05,175.506 2347.81,175.434 2350.57,175.363 2353.33,175.293 2356.08,175.225 2358.84,175.157 2361.6,175.09 2364.35,175.024 2367.11,174.959 2369.87,174.895 2372.62,174.832 2375.38,174.77 2378.14,174.709 2380.89,174.649 2383.65,174.589 2386.41,174.531 2389.17,174.473 2391.92,174.417 2394.68,174.361 2397.44,174.306 2400.19,174.252 2402.95,174.198 2405.71,174.146 2408.46,174.094 2411.22,174.043 2413.98,173.993 2416.74,173.944 2419.49,173.895 2422.25,173.848 2425.01,173.801 2427.76,173.755 2430.52,173.709 2433.28,173.664 2436.03,173.62 2438.79,173.577 2441.55,173.534 2444.3,173.493 2447.06,173.451 2449.82,173.411 2452.58,173.371 2455.33,173.332 2458.09,173.293 2460.85,173.255 2463.6,173.218 2466.36,173.181 2469.12,173.145 2471.87,173.11 2474.63,173.075 2477.39,173.04 2480.14,173.006 2482.9,172.973 2485.66,172.941 2488.42,172.908 2491.17,172.877 2493.93,172.846 2496.69,172.815 2499.44,172.785 2502.2,172.755 2504.96,172.726 2507.71,172.698 2510.47,172.669 2513.23,172.642 2515.99,172.614 2518.74,172.587 2521.5,172.561 2524.26,172.535 2527.01,172.509 2529.77,172.484 2532.53,172.459 2535.28,172.434 2538.04,172.41 2540.8,172.386 2543.55,172.363 2546.31,172.339 2549.07,172.317 2551.83,172.294 2554.58,172.272 2557.34,172.25 2560.1,172.228 2562.85,172.206 2565.61,172.185 2568.37,172.164 2571.12,172.143 2573.88,172.123 2576.64,172.102 2579.39,172.082 2582.15,172.062 2584.91,172.042 2587.67,172.023 2590.42,172.003 2593.18,171.984 2595.94,171.965 2598.69,171.946 2601.45,171.928 2604.21,171.909 2606.96,171.891 2609.72,171.873 2612.48,171.856 2615.23,171.838 2617.99,171.821 2620.75,171.804 2623.51,171.787 2626.26,171.77 2629.02,171.753 2631.78,171.737 2634.53,171.721 2637.29,171.705 2640.05,171.69 2642.8,171.674 2645.56,171.659 2648.32,171.644 2651.08,171.629 2653.83,171.615 2656.59,171.6 2659.35,171.586 2662.1,171.572 2664.86,171.558 2667.62,171.545 2670.37,171.531 2673.13,171.518 2675.89,171.505 2678.64,171.493 2681.4,171.48 2684.16,171.468 2686.92,171.456 2689.67,171.444 2692.43,171.432 2695.19,171.42 2697.94,171.409 2700.7,171.398 2703.46,171.387 2706.21,171.376 2708.97,171.366 2711.73,171.355 2714.48,171.345 2717.24,171.335 2720,171.326 2722.76,171.316 2725.51,171.307 2728.27,171.297 2731.03,171.288 2733.78,171.279 2736.54,171.271 2739.3,171.262 2742.05,171.254 2744.81,171.246 2747.57,171.238 2750.33,171.23 2753.08,171.222 2755.84,171.215 2758.6,171.208 2761.35,171.201 2764.11,171.194 2766.87,171.187 2769.62,171.18 2772.38,171.173 2775.14,171.167 2777.89,171.161 2780.65,171.155 2783.41,171.149 2786.17,171.143 2788.92,171.137 2791.68,171.132 2794.44,171.127 2797.19,171.121 2799.95,171.116 2802.71,171.111 2805.46,171.106 2808.22,171.102 2810.98,171.097 2813.73,171.092 2816.49,171.088 2819.25,171.084 2822.01,171.079 2824.76,171.075 2827.52,171.071 2830.28,171.067 2833.03,171.063 2835.79,171.06 2838.55,171.056 2841.3,171.052 2844.06,171.049 2846.82,171.046 2849.58,171.042 2852.33,171.039 2855.09,171.036 2857.85,171.032 2860.6,171.029 2863.36,171.026 2866.12,171.023 2868.87,171.02 2871.63,171.017 2874.39,171.014 2877.14,171.012 2879.9,171.009 2882.66,171.006 2885.42,171.003 2888.17,171 2890.93,170.997 2893.69,170.995 2896.44,170.992 2899.2,170.989 2901.96,170.986 2904.71,170.984 2907.47,170.981 2910.23,170.978 2912.98,170.975 2915.74,170.972 2918.5,170.969 2921.26,170.966 2924.01,170.963 2926.77,170.96 2929.53,170.957 2932.28,170.954 2935.04,170.951 2937.8,170.947 2940.55,170.944 2943.31,170.941 2946.07,170.938 2948.82,170.935 2951.58,170.932 2954.34,170.929 2957.1,170.926 2959.85,170.923 2962.61,170.92 2965.37,170.917 2968.12,170.915 2970.88,170.912 2973.64,170.909 2976.39,170.907 2979.15,170.904 2981.91,170.902 2984.67,170.899 2987.42,170.897 2990.18,170.894 2992.94,170.892 2995.69,170.889 2998.45,170.887 3001.21,170.885 3003.96,170.882 3006.72,170.88 3009.48,170.878 3012.23,170.876 3014.99,170.874 3017.75,170.872 3020.51,170.87 3023.26,170.868 3026.02,170.866 3028.78,170.864 3031.53,170.862 3034.29,170.86 3037.05,170.858 3039.8,170.856 3042.56,170.854 3045.32,170.852 3048.07,170.851 3050.83,170.849 3053.59,170.847 3056.35,170.845 3059.1,170.844 3061.86,170.842 3064.62,170.84 3067.37,170.839 3070.13,170.837 "/>
</svg>
