<?xml version="1.0" encoding="utf-8"?>
<svg xmlns="http://www.w3.org/2000/svg" xmlns:xlink="http://www.w3.org/1999/xlink" width="800" height="600" viewBox="0 0 3200 2400">
<defs>
  <clipPath id="clip030">
    <rect x="0" y="0" width="3200" height="2400"/>
  </clipPath>
</defs>
<path clip-path="url(#clip030)" d="M0 2400 L3200 2400 L3200 0 L0 0  Z" fill="#ffffff" fill-rule="evenodd" fill-opacity="1"/>
<defs>
  <clipPath id="clip031">
    <rect x="640" y="0" width="2241" height="2241"/>
  </clipPath>
</defs>
<path clip-path="url(#clip030)" d="M233.806 2204.92 L3152.76 2204.92 L3152.76 121.312 L233.806 121.312  Z" fill="#eaeaea" fill-rule="evenodd" fill-opacity="1"/>
<defs>
  <clipPath id="clip032">
    <rect x="233" y="121" width="2920" height="2085"/>
  </clipPath>
</defs>
<polyline clip-path="url(#clip032)" style="stroke:#ffffff; stroke-linecap:round; stroke-linejoin:round; stroke-width:4; stroke-opacity:1; fill:none" points="316.418,2204.92 316.418,121.312 "/>
<polyline clip-path="url(#clip032)" style="stroke:#ffffff; stroke-linecap:round; stroke-linejoin:round; stroke-width:4; stroke-opacity:1; fill:none" points="867.163,2204.92 867.163,121.312 "/>
<polyline clip-path="url(#clip032)" style="stroke:#ffffff; stroke-linecap:round; stroke-linejoin:round; stroke-width:4; stroke-opacity:1; fill:none" points="1417.91,2204.92 1417.91,121.312 "/>
<polyline clip-path="url(#clip032)" style="stroke:#ffffff; stroke-linecap:round; stroke-linejoin:round; stroke-width:4; stroke-opacity:1; fill:none" points="1968.65,2204.92 1968.65,121.312 "/>
<polyline clip-path="url(#clip032)" style="stroke:#ffffff; stroke-linecap:round; stroke-linejoin:round; stroke-width:4; stroke-opacity:1; fill:none" points="2519.4,2204.92 2519.4,121.312 "/>
<polyline clip-path="url(#clip032)" style="stroke:#ffffff; stroke-linecap:round; stroke-linejoin:round; stroke-width:4; stroke-opacity:1; fill:none" points="3070.14,2204.92 3070.14,121.312 "/>
<polyline clip-path="url(#clip032)" style="stroke:#ffffff; stroke-linecap:round; stroke-linejoin:round; stroke-width:2; stroke-opacity:1; fill:none" points="591.791,2204.92 591.791,121.312 "/>
<polyline clip-path="url(#clip032)" style="stroke:#ffffff; stroke-linecap:round; stroke-linejoin:round; stroke-width:2; stroke-opacity:1; fill:none" points="1142.54,2204.92 1142.54,121.312 "/>
<polyline clip-path="url(#clip032)" style="stroke:#ffffff; stroke-linecap:round; stroke-linejoin:round; stroke-width:2; stroke-opacity:1; fill:none" points="1693.28,2204.92 1693.28,121.312 "/>
<polyline clip-path="url(#clip032)" style="stroke:#ffffff; stroke-linecap:round; stroke-linejoin:round; stroke-width:2; stroke-opacity:1; fill:none" points="2244.03,2204.92 2244.03,121.312 "/>
<polyline clip-path="url(#clip032)" style="stroke:#ffffff; stroke-linecap:round; stroke-linejoin:round; stroke-width:2; stroke-opacity:1; fill:none" points="2794.77,2204.92 2794.77,121.312 "/>
<polyline clip-path="url(#clip030)" style="stroke:#ffffff; stroke-linecap:round; stroke-linejoin:round; stroke-width:4; stroke-opacity:1; fill:none" points="233.806,2204.92 3152.76,2204.92 "/>
<polyline clip-path="url(#clip030)" style="stroke:#333333; stroke-linecap:round; stroke-linejoin:round; stroke-width:4; stroke-opacity:1; fill:none" points="316.418,2204.92 316.418,2223.82 "/>
<polyline clip-path="url(#clip030)" style="stroke:#333333; stroke-linecap:round; stroke-linejoin:round; stroke-width:4; stroke-opacity:1; fill:none" points="867.163,2204.92 867.163,2223.82 "/>
<polyline clip-path="url(#clip030)" style="stroke:#333333; stroke-linecap:round; stroke-linejoin:round; stroke-width:4; stroke-opacity:1; fill:none" points="1417.91,2204.92 1417.91,2223.82 "/>
<polyline clip-path="url(#clip030)" style="stroke:#333333; stroke-linecap:round; stroke-linejoin:round; stroke-width:4; stroke-opacity:1; fill:none" points="1968.65,2204.92 1968.65,2223.82 "/>
<polyline clip-path="url(#clip030)" style="stroke:#333333; stroke-linecap:round; stroke-linejoin:round; stroke-width:4; stroke-opacity:1; fill:none" points="2519.4,2204.92 2519.4,2223.82 "/>
<polyline clip-path="url(#clip030)" style="stroke:#333333; stroke-linecap:round; stroke-linejoin:round; stroke-width:4; stroke-opacity:1; fill:none" points="3070.14,2204.92 3070.14,2223.82 "/>
<polyline clip-path="url(#clip030)" style="stroke:#333333; stroke-linecap:round; stroke-linejoin:round; stroke-width:4; stroke-opacity:1; fill:none" points="591.791,2204.92 591.791,2214.37 "/>
<polyline clip-path="url(#clip030)" style="stroke:#333333; stroke-linecap:round; stroke-linejoin:round; stroke-width:4; stroke-opacity:1; fill:none" points="1142.54,2204.92 1142.54,2214.37 "/>
<polyline clip-path="url(#clip030)" style="stroke:#333333; stroke-linecap:round; stroke-linejoin:round; stroke-width:4; stroke-opacity:1; fill:none" points="1693.28,2204.92 1693.28,2214.37 "/>
<polyline clip-path="url(#clip030)" style="stroke:#333333; stroke-linecap:round; stroke-linejoin:round; stroke-width:4; stroke-opacity:1; fill:none" points="2244.03,2204.92 2244.03,2214.37 "/>
<polyline clip-path="url(#clip030)" style="stroke:#333333; stroke-linecap:round; stroke-linejoin:round; stroke-width:4; stroke-opacity:1; fill:none" points="2794.77,2204.92 2794.77,2214.37 "/>
<path clip-path="url(#clip030)" d="M316.418 2255.04 Q312.807 2255.04 310.978 2258.6 Q309.173 2262.14 309.173 2269.27 Q309.173 2276.38 310.978 2279.95 Q312.807 2283.49 316.418 2283.49 Q320.052 2283.49 321.858 2279.95 Q323.687 2276.38 323.687 2269.27 Q323.687 2262.14 321.858 2258.6 Q320.052 2255.04 316.418 2255.04 M316.418 2251.33 Q322.228 2251.33 325.284 2255.94 Q328.362 2260.52 328.362 2269.27 Q328.362 2278 325.284 2282.61 Q322.228 2287.19 316.418 2287.19 Q310.608 2287.19 307.529 2282.61 Q304.474 2278 304.474 2269.27 Q304.474 2260.52 307.529 2255.94 Q310.608 2251.33 316.418 2251.33 Z" fill="#4c4c4c" fill-rule="nonzero" fill-opacity="1" /><path clip-path="url(#clip030)" d="M857.545 2282.58 L865.184 2282.58 L865.184 2256.22 L856.874 2257.89 L856.874 2253.63 L865.138 2251.96 L869.814 2251.96 L869.814 2282.58 L877.453 2282.58 L877.453 2286.52 L857.545 2286.52 L857.545 2282.58 Z" fill="#4c4c4c" fill-rule="nonzero" fill-opacity="1" /><path clip-path="url(#clip030)" d="M1412.56 2282.58 L1428.88 2282.58 L1428.88 2286.52 L1406.94 2286.52 L1406.94 2282.58 Q1409.6 2279.83 1414.18 2275.2 Q1418.79 2270.55 1419.97 2269.21 Q1422.21 2266.68 1423.09 2264.95 Q1424 2263.19 1424 2261.5 Q1424 2258.74 1422.05 2257.01 Q1420.13 2255.27 1417.03 2255.27 Q1414.83 2255.27 1412.38 2256.03 Q1409.95 2256.8 1407.17 2258.35 L1407.17 2253.63 Q1409.99 2252.49 1412.45 2251.91 Q1414.9 2251.33 1416.94 2251.33 Q1422.31 2251.33 1425.5 2254.02 Q1428.7 2256.71 1428.7 2261.2 Q1428.7 2263.33 1427.89 2265.25 Q1427.1 2267.14 1424.99 2269.74 Q1424.41 2270.41 1421.31 2273.63 Q1418.21 2276.82 1412.56 2282.58 Z" fill="#4c4c4c" fill-rule="nonzero" fill-opacity="1" /><path clip-path="url(#clip030)" d="M1972.9 2267.89 Q1976.26 2268.6 1978.13 2270.87 Q1980.03 2273.14 1980.03 2276.47 Q1980.03 2281.59 1976.51 2284.39 Q1972.99 2287.19 1966.51 2287.19 Q1964.34 2287.19 1962.02 2286.75 Q1959.73 2286.33 1957.28 2285.48 L1957.28 2280.96 Q1959.22 2282.1 1961.54 2282.68 Q1963.85 2283.26 1966.37 2283.26 Q1970.77 2283.26 1973.06 2281.52 Q1975.38 2279.78 1975.38 2276.47 Q1975.38 2273.42 1973.23 2271.71 Q1971.1 2269.97 1967.28 2269.97 L1963.25 2269.97 L1963.25 2266.13 L1967.46 2266.13 Q1970.91 2266.13 1972.74 2264.76 Q1974.57 2263.37 1974.57 2260.78 Q1974.57 2258.12 1972.67 2256.71 Q1970.79 2255.27 1967.28 2255.27 Q1965.36 2255.27 1963.16 2255.69 Q1960.96 2256.1 1958.32 2256.98 L1958.32 2252.82 Q1960.98 2252.08 1963.29 2251.71 Q1965.63 2251.33 1967.69 2251.33 Q1973.02 2251.33 1976.12 2253.77 Q1979.22 2256.17 1979.22 2260.29 Q1979.22 2263.16 1977.58 2265.15 Q1975.93 2267.12 1972.9 2267.89 Z" fill="#4c4c4c" fill-rule="nonzero" fill-opacity="1" /><path clip-path="url(#clip030)" d="M2522.41 2256.03 L2510.6 2274.48 L2522.41 2274.48 L2522.41 2256.03 M2521.18 2251.96 L2527.06 2251.96 L2527.06 2274.48 L2531.99 2274.48 L2531.99 2278.37 L2527.06 2278.37 L2527.06 2286.52 L2522.41 2286.52 L2522.41 2278.37 L2506.81 2278.37 L2506.81 2273.86 L2521.18 2251.96 Z" fill="#4c4c4c" fill-rule="nonzero" fill-opacity="1" /><path clip-path="url(#clip030)" d="M3060.42 2251.96 L3078.78 2251.96 L3078.78 2255.9 L3064.7 2255.9 L3064.7 2264.37 Q3065.72 2264.02 3066.74 2263.86 Q3067.76 2263.67 3068.78 2263.67 Q3074.57 2263.67 3077.95 2266.84 Q3081.32 2270.02 3081.32 2275.43 Q3081.32 2281.01 3077.85 2284.11 Q3074.38 2287.19 3068.06 2287.19 Q3065.88 2287.19 3063.62 2286.82 Q3061.37 2286.45 3058.96 2285.71 L3058.96 2281.01 Q3061.05 2282.14 3063.27 2282.7 Q3065.49 2283.26 3067.97 2283.26 Q3071.97 2283.26 3074.31 2281.15 Q3076.65 2279.04 3076.65 2275.43 Q3076.65 2271.82 3074.31 2269.71 Q3071.97 2267.61 3067.97 2267.61 Q3066.09 2267.61 3064.22 2268.02 Q3062.37 2268.44 3060.42 2269.32 L3060.42 2251.96 Z" fill="#4c4c4c" fill-rule="nonzero" fill-opacity="1" /><path clip-path="url(#clip030)" d="M1692.34 2316.01 L1692.34 2326.14 L1704.41 2326.14 L1704.41 2330.69 L1692.34 2330.69 L1692.34 2350.04 Q1692.34 2354.4 1693.52 2355.64 Q1694.73 2356.88 1698.39 2356.88 L1704.41 2356.88 L1704.41 2361.78 L1698.39 2361.78 Q1691.61 2361.78 1689.03 2359.27 Q1686.45 2356.72 1686.45 2350.04 L1686.45 2330.69 L1682.16 2330.69 L1682.16 2326.14 L1686.45 2326.14 L1686.45 2316.01 L1692.34 2316.01 Z" fill="#000000" fill-rule="nonzero" fill-opacity="1" /><polyline clip-path="url(#clip032)" style="stroke:#ffffff; stroke-linecap:round; stroke-linejoin:round; stroke-width:4; stroke-opacity:1; fill:none" points="233.806,2149.58 3152.76,2149.58 "/>
<polyline clip-path="url(#clip032)" style="stroke:#ffffff; stroke-linecap:round; stroke-linejoin:round; stroke-width:4; stroke-opacity:1; fill:none" points="233.806,1853.21 3152.76,1853.21 "/>
<polyline clip-path="url(#clip032)" style="stroke:#ffffff; stroke-linecap:round; stroke-linejoin:round; stroke-width:4; stroke-opacity:1; fill:none" points="233.806,1556.83 3152.76,1556.83 "/>
<polyline clip-path="url(#clip032)" style="stroke:#ffffff; stroke-linecap:round; stroke-linejoin:round; stroke-width:4; stroke-opacity:1; fill:none" points="233.806,1260.46 3152.76,1260.46 "/>
<polyline clip-path="url(#clip032)" style="stroke:#ffffff; stroke-linecap:round; stroke-linejoin:round; stroke-width:4; stroke-opacity:1; fill:none" points="233.806,964.087 3152.76,964.087 "/>
<polyline clip-path="url(#clip032)" style="stroke:#ffffff; stroke-linecap:round; stroke-linejoin:round; stroke-width:4; stroke-opacity:1; fill:none" points="233.806,667.713 3152.76,667.713 "/>
<polyline clip-path="url(#clip032)" style="stroke:#ffffff; stroke-linecap:round; stroke-linejoin:round; stroke-width:4; stroke-opacity:1; fill:none" points="233.806,371.34 3152.76,371.34 "/>
<polyline clip-path="url(#clip032)" style="stroke:#ffffff; stroke-linecap:round; stroke-linejoin:round; stroke-width:2; stroke-opacity:1; fill:none" points="233.806,2001.39 3152.76,2001.39 "/>
<polyline clip-path="url(#clip032)" style="stroke:#ffffff; stroke-linecap:round; stroke-linejoin:round; stroke-width:2; stroke-opacity:1; fill:none" points="233.806,1705.02 3152.76,1705.02 "/>
<polyline clip-path="url(#clip032)" style="stroke:#ffffff; stroke-linecap:round; stroke-linejoin:round; stroke-width:2; stroke-opacity:1; fill:none" points="233.806,1408.65 3152.76,1408.65 "/>
<polyline clip-path="url(#clip032)" style="stroke:#ffffff; stroke-linecap:round; stroke-linejoin:round; stroke-width:2; stroke-opacity:1; fill:none" points="233.806,1112.27 3152.76,1112.27 "/>
<polyline clip-path="url(#clip032)" style="stroke:#ffffff; stroke-linecap:round; stroke-linejoin:round; stroke-width:2; stroke-opacity:1; fill:none" points="233.806,815.9 3152.76,815.9 "/>
<polyline clip-path="url(#clip032)" style="stroke:#ffffff; stroke-linecap:round; stroke-linejoin:round; stroke-width:2; stroke-opacity:1; fill:none" points="233.806,519.526 3152.76,519.526 "/>
<polyline clip-path="url(#clip032)" style="stroke:#ffffff; stroke-linecap:round; stroke-linejoin:round; stroke-width:2; stroke-opacity:1; fill:none" points="233.806,223.153 3152.76,223.153 "/>
<polyline clip-path="url(#clip030)" style="stroke:#ffffff; stroke-linecap:round; stroke-linejoin:round; stroke-width:4; stroke-opacity:1; fill:none" points="233.806,2204.92 233.806,121.312 "/>
<polyline clip-path="url(#clip030)" style="stroke:#333333; stroke-linecap:round; stroke-linejoin:round; stroke-width:4; stroke-opacity:1; fill:none" points="233.806,2149.58 214.909,2149.58 "/>
<polyline clip-path="url(#clip030)" style="stroke:#333333; stroke-linecap:round; stroke-linejoin:round; stroke-width:4; stroke-opacity:1; fill:none" points="233.806,1853.21 214.909,1853.21 "/>
<polyline clip-path="url(#clip030)" style="stroke:#333333; stroke-linecap:round; stroke-linejoin:round; stroke-width:4; stroke-opacity:1; fill:none" points="233.806,1556.83 214.909,1556.83 "/>
<polyline clip-path="url(#clip030)" style="stroke:#333333; stroke-linecap:round; stroke-linejoin:round; stroke-width:4; stroke-opacity:1; fill:none" points="233.806,1260.46 214.909,1260.46 "/>
<polyline clip-path="url(#clip030)" style="stroke:#333333; stroke-linecap:round; stroke-linejoin:round; stroke-width:4; stroke-opacity:1; fill:none" points="233.806,964.087 214.909,964.087 "/>
<polyline clip-path="url(#clip030)" style="stroke:#333333; stroke-linecap:round; stroke-linejoin:round; stroke-width:4; stroke-opacity:1; fill:none" points="233.806,667.713 214.909,667.713 "/>
<polyline clip-path="url(#clip030)" style="stroke:#333333; stroke-linecap:round; stroke-linejoin:round; stroke-width:4; stroke-opacity:1; fill:none" points="233.806,371.34 214.909,371.34 "/>
<polyline clip-path="url(#clip030)" style="stroke:#333333; stroke-linecap:round; stroke-linejoin:round; stroke-width:4; stroke-opacity:1; fill:none" points="233.806,2001.39 224.357,2001.39 "/>
<polyline clip-path="url(#clip030)" style="stroke:#333333; stroke-linecap:round; stroke-linejoin:round; stroke-width:4; stroke-opacity:1; fill:none" points="233.806,1705.02 224.357,1705.02 "/>
<polyline clip-path="url(#clip030)" style="stroke:#333333; stroke-linecap:round; stroke-linejoin:round; stroke-width:4; stroke-opacity:1; fill:none" points="233.806,1408.65 224.357,1408.65 "/>
<polyline clip-path="url(#clip030)" style="stroke:#333333; stroke-linecap:round; stroke-linejoin:round; stroke-width:4; stroke-opacity:1; fill:none" points="233.806,1112.27 224.357,1112.27 "/>
<polyline clip-path="url(#clip030)" style="stroke:#333333; stroke-linecap:round; stroke-linejoin:round; stroke-width:4; stroke-opacity:1; fill:none" points="233.806,815.9 224.357,815.9 "/>
<polyline clip-path="url(#clip030)" style="stroke:#333333; stroke-linecap:round; stroke-linejoin:round; stroke-width:4; stroke-opacity:1; fill:none" points="233.806,519.526 224.357,519.526 "/>
<polyline clip-path="url(#clip030)" style="stroke:#333333; stroke-linecap:round; stroke-linejoin:round; stroke-width:4; stroke-opacity:1; fill:none" points="233.806,223.153 224.357,223.153 "/>
<path clip-path="url(#clip030)" d="M106.228 2135.38 Q102.617 2135.38 100.788 2138.94 Q98.9825 2142.49 98.9825 2149.61 Q98.9825 2156.72 100.788 2160.29 Q102.617 2163.83 106.228 2163.83 Q109.862 2163.83 111.668 2160.29 Q113.496 2156.72 113.496 2149.61 Q113.496 2142.49 111.668 2138.94 Q109.862 2135.38 106.228 2135.38 M106.228 2131.68 Q112.038 2131.68 115.094 2136.28 Q118.172 2140.86 118.172 2149.61 Q118.172 2158.34 115.094 2162.95 Q112.038 2167.53 106.228 2167.53 Q100.418 2167.53 97.339 2162.95 Q94.2835 2158.34 94.2835 2149.61 Q94.2835 2140.86 97.339 2136.28 Q100.418 2131.68 106.228 2131.68 Z" fill="#4c4c4c" fill-rule="nonzero" fill-opacity="1" /><path clip-path="url(#clip030)" d="M126.39 2160.98 L131.274 2160.98 L131.274 2166.86 L126.39 2166.86 L126.39 2160.98 Z" fill="#4c4c4c" fill-rule="nonzero" fill-opacity="1" /><path clip-path="url(#clip030)" d="M145.487 2162.92 L161.806 2162.92 L161.806 2166.86 L139.862 2166.86 L139.862 2162.92 Q142.524 2160.17 147.107 2155.54 Q151.714 2150.89 152.894 2149.55 Q155.14 2147.02 156.019 2145.29 Q156.922 2143.53 156.922 2141.84 Q156.922 2139.08 154.978 2137.35 Q153.056 2135.61 149.954 2135.61 Q147.755 2135.61 145.302 2136.37 Q142.871 2137.14 140.093 2138.69 L140.093 2133.97 Q142.917 2132.83 145.371 2132.25 Q147.825 2131.68 149.862 2131.68 Q155.232 2131.68 158.427 2134.36 Q161.621 2137.05 161.621 2141.54 Q161.621 2143.67 160.811 2145.59 Q160.024 2147.49 157.917 2150.08 Q157.339 2150.75 154.237 2153.97 Q151.135 2157.16 145.487 2162.92 Z" fill="#4c4c4c" fill-rule="nonzero" fill-opacity="1" /><path clip-path="url(#clip030)" d="M104.145 1839.01 Q100.533 1839.01 98.7048 1842.57 Q96.8992 1846.11 96.8992 1853.24 Q96.8992 1860.35 98.7048 1863.91 Q100.533 1867.45 104.145 1867.45 Q107.779 1867.45 109.584 1863.91 Q111.413 1860.35 111.413 1853.24 Q111.413 1846.11 109.584 1842.57 Q107.779 1839.01 104.145 1839.01 M104.145 1835.3 Q109.955 1835.3 113.01 1839.91 Q116.089 1844.49 116.089 1853.24 Q116.089 1861.97 113.01 1866.57 Q109.955 1871.16 104.145 1871.16 Q98.3344 1871.16 95.2557 1866.57 Q92.2002 1861.97 92.2002 1853.24 Q92.2002 1844.49 95.2557 1839.91 Q98.3344 1835.3 104.145 1835.3 Z" fill="#4c4c4c" fill-rule="nonzero" fill-opacity="1" /><path clip-path="url(#clip030)" d="M124.306 1864.61 L129.191 1864.61 L129.191 1870.49 L124.306 1870.49 L124.306 1864.61 Z" fill="#4c4c4c" fill-rule="nonzero" fill-opacity="1" /><path clip-path="url(#clip030)" d="M152.223 1840 L140.417 1858.45 L152.223 1858.45 L152.223 1840 M150.996 1835.93 L156.876 1835.93 L156.876 1858.45 L161.806 1858.45 L161.806 1862.34 L156.876 1862.34 L156.876 1870.49 L152.223 1870.49 L152.223 1862.34 L136.621 1862.34 L136.621 1857.82 L150.996 1835.93 Z" fill="#4c4c4c" fill-rule="nonzero" fill-opacity="1" /><path clip-path="url(#clip030)" d="M104.469 1542.63 Q100.858 1542.63 99.0288 1546.2 Q97.2233 1549.74 97.2233 1556.87 Q97.2233 1563.97 99.0288 1567.54 Q100.858 1571.08 104.469 1571.08 Q108.103 1571.08 109.908 1567.54 Q111.737 1563.97 111.737 1556.87 Q111.737 1549.74 109.908 1546.2 Q108.103 1542.63 104.469 1542.63 M104.469 1538.93 Q110.279 1538.93 113.334 1543.53 Q116.413 1548.12 116.413 1556.87 Q116.413 1565.59 113.334 1570.2 Q110.279 1574.78 104.469 1574.78 Q98.6585 1574.78 95.5798 1570.2 Q92.5242 1565.59 92.5242 1556.87 Q92.5242 1548.12 95.5798 1543.53 Q98.6585 1538.93 104.469 1538.93 Z" fill="#4c4c4c" fill-rule="nonzero" fill-opacity="1" /><path clip-path="url(#clip030)" d="M124.631 1568.23 L129.515 1568.23 L129.515 1574.11 L124.631 1574.11 L124.631 1568.23 Z" fill="#4c4c4c" fill-rule="nonzero" fill-opacity="1" /><path clip-path="url(#clip030)" d="M150.279 1554.97 Q147.13 1554.97 145.279 1557.12 Q143.45 1559.28 143.45 1563.03 Q143.45 1566.75 145.279 1568.93 Q147.13 1571.08 150.279 1571.08 Q153.427 1571.08 155.255 1568.93 Q157.107 1566.75 157.107 1563.03 Q157.107 1559.28 155.255 1557.12 Q153.427 1554.97 150.279 1554.97 M159.561 1540.32 L159.561 1544.58 Q157.802 1543.74 155.996 1543.3 Q154.214 1542.86 152.454 1542.86 Q147.825 1542.86 145.371 1545.99 Q142.941 1549.11 142.593 1555.43 Q143.959 1553.42 146.019 1552.35 Q148.079 1551.27 150.556 1551.27 Q155.765 1551.27 158.774 1554.44 Q161.806 1557.59 161.806 1563.03 Q161.806 1568.35 158.658 1571.57 Q155.51 1574.78 150.279 1574.78 Q144.283 1574.78 141.112 1570.2 Q137.941 1565.59 137.941 1556.87 Q137.941 1548.67 141.83 1543.81 Q145.718 1538.93 152.269 1538.93 Q154.029 1538.93 155.811 1539.28 Q157.616 1539.62 159.561 1540.32 Z" fill="#4c4c4c" fill-rule="nonzero" fill-opacity="1" /><path clip-path="url(#clip030)" d="M104.723 1246.26 Q101.112 1246.26 99.2835 1249.82 Q97.4779 1253.37 97.4779 1260.49 Q97.4779 1267.6 99.2835 1271.17 Q101.112 1274.71 104.723 1274.71 Q108.357 1274.71 110.163 1271.17 Q111.992 1267.6 111.992 1260.49 Q111.992 1253.37 110.163 1249.82 Q108.357 1246.26 104.723 1246.26 M104.723 1242.55 Q110.533 1242.55 113.589 1247.16 Q116.668 1251.74 116.668 1260.49 Q116.668 1269.22 113.589 1273.83 Q110.533 1278.41 104.723 1278.41 Q98.9131 1278.41 95.8344 1273.83 Q92.7789 1269.22 92.7789 1260.49 Q92.7789 1251.74 95.8344 1247.16 Q98.9131 1242.55 104.723 1242.55 Z" fill="#4c4c4c" fill-rule="nonzero" fill-opacity="1" /><path clip-path="url(#clip030)" d="M124.885 1271.86 L129.769 1271.86 L129.769 1277.74 L124.885 1277.74 L124.885 1271.86 Z" fill="#4c4c4c" fill-rule="nonzero" fill-opacity="1" /><path clip-path="url(#clip030)" d="M149.954 1261.33 Q146.621 1261.33 144.7 1263.11 Q142.802 1264.89 142.802 1268.02 Q142.802 1271.14 144.7 1272.93 Q146.621 1274.71 149.954 1274.71 Q153.288 1274.71 155.209 1272.93 Q157.13 1271.12 157.13 1268.02 Q157.13 1264.89 155.209 1263.11 Q153.311 1261.33 149.954 1261.33 M145.279 1259.34 Q142.269 1258.6 140.58 1256.54 Q138.913 1254.48 138.913 1251.51 Q138.913 1247.37 141.853 1244.96 Q144.816 1242.55 149.954 1242.55 Q155.116 1242.55 158.056 1244.96 Q160.996 1247.37 160.996 1251.51 Q160.996 1254.48 159.306 1256.54 Q157.64 1258.6 154.654 1259.34 Q158.033 1260.12 159.908 1262.42 Q161.806 1264.71 161.806 1268.02 Q161.806 1273.04 158.728 1275.73 Q155.672 1278.41 149.954 1278.41 Q144.237 1278.41 141.158 1275.73 Q138.103 1273.04 138.103 1268.02 Q138.103 1264.71 140.001 1262.42 Q141.899 1260.12 145.279 1259.34 M143.566 1251.95 Q143.566 1254.64 145.232 1256.14 Q146.922 1257.65 149.954 1257.65 Q152.964 1257.65 154.654 1256.14 Q156.366 1254.64 156.366 1251.95 Q156.366 1249.27 154.654 1247.76 Q152.964 1246.26 149.954 1246.26 Q146.922 1246.26 145.232 1247.76 Q143.566 1249.27 143.566 1251.95 Z" fill="#4c4c4c" fill-rule="nonzero" fill-opacity="1" /><path clip-path="url(#clip030)" d="M95.4409 977.431 L103.08 977.431 L103.08 951.066 L94.7696 952.732 L94.7696 948.473 L103.033 946.807 L107.709 946.807 L107.709 977.431 L115.348 977.431 L115.348 981.367 L95.4409 981.367 L95.4409 977.431 Z" fill="#4c4c4c" fill-rule="nonzero" fill-opacity="1" /><path clip-path="url(#clip030)" d="M124.793 975.487 L129.677 975.487 L129.677 981.367 L124.793 981.367 L124.793 975.487 Z" fill="#4c4c4c" fill-rule="nonzero" fill-opacity="1" /><path clip-path="url(#clip030)" d="M149.862 949.885 Q146.251 949.885 144.422 953.45 Q142.617 956.992 142.617 964.121 Q142.617 971.228 144.422 974.793 Q146.251 978.334 149.862 978.334 Q153.496 978.334 155.302 974.793 Q157.13 971.228 157.13 964.121 Q157.13 956.992 155.302 953.45 Q153.496 949.885 149.862 949.885 M149.862 946.182 Q155.672 946.182 158.728 950.788 Q161.806 955.371 161.806 964.121 Q161.806 972.848 158.728 977.455 Q155.672 982.038 149.862 982.038 Q144.052 982.038 140.973 977.455 Q137.918 972.848 137.918 964.121 Q137.918 955.371 140.973 950.788 Q144.052 946.182 149.862 946.182 Z" fill="#4c4c4c" fill-rule="nonzero" fill-opacity="1" /><path clip-path="url(#clip030)" d="M97.0381 681.058 L104.677 681.058 L104.677 654.692 L96.3668 656.359 L96.3668 652.1 L104.631 650.433 L109.307 650.433 L109.307 681.058 L116.945 681.058 L116.945 684.993 L97.0381 684.993 L97.0381 681.058 Z" fill="#4c4c4c" fill-rule="nonzero" fill-opacity="1" /><path clip-path="url(#clip030)" d="M126.39 679.114 L131.274 679.114 L131.274 684.993 L126.39 684.993 L126.39 679.114 Z" fill="#4c4c4c" fill-rule="nonzero" fill-opacity="1" /><path clip-path="url(#clip030)" d="M145.487 681.058 L161.806 681.058 L161.806 684.993 L139.862 684.993 L139.862 681.058 Q142.524 678.303 147.107 673.674 Q151.714 669.021 152.894 667.678 Q155.14 665.155 156.019 663.419 Q156.922 661.66 156.922 659.97 Q156.922 657.216 154.978 655.479 Q153.056 653.743 149.954 653.743 Q147.755 653.743 145.302 654.507 Q142.871 655.271 140.093 656.822 L140.093 652.1 Q142.917 650.966 145.371 650.387 Q147.825 649.808 149.862 649.808 Q155.232 649.808 158.427 652.493 Q161.621 655.179 161.621 659.669 Q161.621 661.799 160.811 663.72 Q160.024 665.618 157.917 668.211 Q157.339 668.882 154.237 672.1 Q151.135 675.294 145.487 681.058 Z" fill="#4c4c4c" fill-rule="nonzero" fill-opacity="1" /><path clip-path="url(#clip030)" d="M94.9548 384.685 L102.594 384.685 L102.594 358.319 L94.2835 359.986 L94.2835 355.726 L102.547 354.06 L107.223 354.06 L107.223 384.685 L114.862 384.685 L114.862 388.62 L94.9548 388.62 L94.9548 384.685 Z" fill="#4c4c4c" fill-rule="nonzero" fill-opacity="1" /><path clip-path="url(#clip030)" d="M124.306 382.74 L129.191 382.74 L129.191 388.62 L124.306 388.62 L124.306 382.74 Z" fill="#4c4c4c" fill-rule="nonzero" fill-opacity="1" /><path clip-path="url(#clip030)" d="M152.223 358.134 L140.417 376.583 L152.223 376.583 L152.223 358.134 M150.996 354.06 L156.876 354.06 L156.876 376.583 L161.806 376.583 L161.806 380.472 L156.876 380.472 L156.876 388.62 L152.223 388.62 L152.223 380.472 L136.621 380.472 L136.621 375.958 L150.996 354.06 Z" fill="#4c4c4c" fill-rule="nonzero" fill-opacity="1" /><path clip-path="url(#clip030)" d="M48.597 1321.32 L67.5031 1321.32 L67.5031 1327.21 L18.2962 1327.21 L18.2962 1321.32 L23.7071 1321.32 Q20.5242 1319.47 18.9964 1316.67 Q17.4368 1313.84 17.4368 1309.93 Q17.4368 1303.43 22.5931 1299.39 Q27.7493 1295.32 36.152 1295.32 Q44.5547 1295.32 49.711 1299.39 Q54.8672 1303.43 54.8672 1309.93 Q54.8672 1313.84 53.3394 1316.67 Q51.7798 1319.47 48.597 1321.32 M36.152 1301.4 Q29.6908 1301.4 26.0305 1304.07 Q22.3384 1306.71 22.3384 1311.36 Q22.3384 1316 26.0305 1318.68 Q29.6908 1321.32 36.152 1321.32 Q42.6132 1321.32 46.3053 1318.68 Q49.9656 1316 49.9656 1311.36 Q49.9656 1306.71 46.3053 1304.07 Q42.6132 1301.4 36.152 1301.4 Z" fill="#000000" fill-rule="nonzero" fill-opacity="1" /><path clip-path="url(#clip030)" d="M22.4021 1271.79 Q22.4021 1276.51 26.0942 1279.24 Q29.7545 1281.98 36.152 1281.98 Q42.5495 1281.98 46.2417 1279.27 Q49.9019 1276.54 49.9019 1271.79 Q49.9019 1267.12 46.2098 1264.38 Q42.5177 1261.64 36.152 1261.64 Q29.8181 1261.64 26.126 1264.38 Q22.4021 1267.12 22.4021 1271.79 M17.4368 1271.79 Q17.4368 1264.16 22.4021 1259.8 Q27.3673 1255.43 36.152 1255.43 Q44.9049 1255.43 49.9019 1259.8 Q54.8672 1264.16 54.8672 1271.79 Q54.8672 1279.47 49.9019 1283.83 Q44.9049 1288.15 36.152 1288.15 Q27.3673 1288.15 22.4021 1283.83 Q17.4368 1279.47 17.4368 1271.79 Z" fill="#000000" fill-rule="nonzero" fill-opacity="1" /><path clip-path="url(#clip030)" d="M48.597 1240.06 L67.5031 1240.06 L67.5031 1245.95 L18.2962 1245.95 L18.2962 1240.06 L23.7071 1240.06 Q20.5242 1238.22 18.9964 1235.41 Q17.4368 1232.58 17.4368 1228.67 Q17.4368 1222.17 22.5931 1218.13 Q27.7493 1214.06 36.152 1214.06 Q44.5547 1214.06 49.711 1218.13 Q54.8672 1222.17 54.8672 1228.67 Q54.8672 1232.58 53.3394 1235.41 Q51.7798 1238.22 48.597 1240.06 M36.152 1220.14 Q29.6908 1220.14 26.0305 1222.81 Q22.3384 1225.45 22.3384 1230.1 Q22.3384 1234.75 26.0305 1237.42 Q29.6908 1240.06 36.152 1240.06 Q42.6132 1240.06 46.3053 1237.42 Q49.9656 1234.75 49.9656 1230.1 Q49.9656 1225.45 46.3053 1222.81 Q42.6132 1220.14 36.152 1220.14 Z" fill="#000000" fill-rule="nonzero" fill-opacity="1" /><path clip-path="url(#clip030)" d="M39.8759 1204.95 L18.2962 1204.95 L18.2962 1199.1 L39.6531 1199.1 Q44.7139 1199.1 47.2602 1197.12 Q49.7746 1195.15 49.7746 1191.2 Q49.7746 1186.46 46.7509 1183.72 Q43.7272 1180.96 38.5073 1180.96 L18.2962 1180.96 L18.2962 1175.1 L53.9442 1175.1 L53.9442 1180.96 L48.4696 1180.96 Q51.7162 1183.09 53.3076 1185.92 Q54.8672 1188.72 54.8672 1192.45 Q54.8672 1198.59 51.0478 1201.77 Q47.2283 1204.95 39.8759 1204.95 M17.4368 1190.22 L17.4368 1190.22 Z" fill="#000000" fill-rule="nonzero" fill-opacity="1" /><path clip-path="url(#clip030)" d="M4.41896 1163.04 L4.41896 1157.18 L53.9442 1157.18 L53.9442 1163.04 L4.41896 1163.04 Z" fill="#000000" fill-rule="nonzero" fill-opacity="1" /><path clip-path="url(#clip030)" d="M36.0247 1128.73 Q36.0247 1135.82 37.6479 1138.56 Q39.2712 1141.3 43.1861 1141.3 Q46.3053 1141.3 48.1514 1139.26 Q49.9656 1137.19 49.9656 1133.66 Q49.9656 1128.79 46.5281 1125.86 Q43.0588 1122.9 37.3297 1122.9 L36.0247 1122.9 L36.0247 1128.73 M33.6057 1117.04 L53.9442 1117.04 L53.9442 1122.9 L48.5333 1122.9 Q51.7798 1124.91 53.3394 1127.9 Q54.8672 1130.89 54.8672 1135.22 Q54.8672 1140.69 51.8116 1143.94 Q48.7243 1147.15 43.5681 1147.15 Q37.5525 1147.15 34.4969 1143.14 Q31.4414 1139.1 31.4414 1131.11 L31.4414 1122.9 L30.8685 1122.9 Q26.8262 1122.9 24.6301 1125.57 Q22.4021 1128.22 22.4021 1133.02 Q22.4021 1136.08 23.1341 1138.97 Q23.8662 1141.87 25.3303 1144.54 L19.9195 1144.54 Q18.6781 1141.33 18.0734 1138.31 Q17.4368 1135.28 17.4368 1132.42 Q17.4368 1124.68 21.4472 1120.86 Q25.4576 1117.04 33.6057 1117.04 Z" fill="#000000" fill-rule="nonzero" fill-opacity="1" /><path clip-path="url(#clip030)" d="M19.6648 1079.33 L25.1393 1079.33 Q23.7707 1081.81 23.1023 1084.32 Q22.4021 1086.81 22.4021 1089.35 Q22.4021 1095.05 26.0305 1098.2 Q29.6272 1101.35 36.152 1101.35 Q42.6769 1101.35 46.3053 1098.2 Q49.9019 1095.05 49.9019 1089.35 Q49.9019 1086.81 49.2335 1084.32 Q48.5333 1081.81 47.1647 1079.33 L52.5755 1079.33 Q53.7214 1081.78 54.2943 1084.42 Q54.8672 1087.03 54.8672 1089.99 Q54.8672 1098.04 49.8064 1102.78 Q44.7457 1107.53 36.152 1107.53 Q27.431 1107.53 22.4339 1102.75 Q17.4368 1097.95 17.4368 1089.61 Q17.4368 1086.9 18.0097 1084.32 Q18.5508 1081.75 19.6648 1079.33 M53.9442 1087.6 Q55.9175 1085.85 57.5726 1084.99 Q59.2595 1084.13 60.7873 1084.13 Q63.62 1084.13 65.0523 1086.04 Q66.5164 1087.95 66.5164 1091.71 Q66.5164 1093.17 66.3255 1094.57 Q66.1345 1095.94 65.7525 1097.31 L61.583 1097.31 Q62.1241 1096.23 62.3469 1095.05 Q62.6015 1093.87 62.6015 1092.38 Q62.6015 1090.5 61.8376 1089.54 Q61.0737 1088.59 59.6096 1088.59 Q58.6548 1088.59 57.2543 1089.29 Q55.8857 1089.96 53.9442 1091.39 L53.9442 1087.6 Z" fill="#000000" fill-rule="nonzero" fill-opacity="1" /><path clip-path="url(#clip030)" d="M36.0247 1052.94 Q36.0247 1060.04 37.6479 1062.78 Q39.2712 1065.51 43.1861 1065.51 Q46.3053 1065.51 48.1514 1063.48 Q49.9656 1061.41 49.9656 1057.87 Q49.9656 1053.01 46.5281 1050.08 Q43.0588 1047.12 37.3297 1047.12 L36.0247 1047.12 L36.0247 1052.94 M33.6057 1041.26 L53.9442 1041.26 L53.9442 1047.12 L48.5333 1047.12 Q51.7798 1049.12 53.3394 1052.11 Q54.8672 1055.11 54.8672 1059.43 Q54.8672 1064.91 51.8116 1068.16 Q48.7243 1071.37 43.5681 1071.37 Q37.5525 1071.37 34.4969 1067.36 Q31.4414 1063.32 31.4414 1055.33 L31.4414 1047.12 L30.8685 1047.12 Q26.8262 1047.12 24.6301 1049.79 Q22.4021 1052.43 22.4021 1057.24 Q22.4021 1060.29 23.1341 1063.19 Q23.8662 1066.09 25.3303 1068.76 L19.9195 1068.76 Q18.6781 1065.55 18.0734 1062.52 Q17.4368 1059.5 17.4368 1056.63 Q17.4368 1048.9 21.4472 1045.08 Q25.4576 1041.26 33.6057 1041.26 M10.3391 1056.51 L8.5885 1058.32 Q7.95193 1059.02 7.66547 1059.56 Q7.34718 1060.07 7.34718 1060.48 Q7.34718 1061.69 8.52484 1062.27 Q9.67067 1062.84 12.2806 1062.9 L12.2806 1066.88 Q7.98376 1066.82 5.66027 1065.2 Q3.30496 1063.57 3.30496 1060.68 Q3.30496 1059.47 3.75056 1058.45 Q4.19616 1057.43 5.2465 1056.25 L6.99707 1054.44 Q7.63364 1053.74 7.95193 1053.23 Q8.23838 1052.69 8.23838 1052.27 Q8.23838 1051.06 7.09256 1050.49 Q5.9149 1049.92 3.30496 1049.85 L3.30496 1045.88 Q7.60181 1045.94 9.95712 1047.56 Q12.2806 1049.19 12.2806 1052.08 Q12.2806 1053.29 11.835 1054.31 Q11.3894 1055.33 10.3391 1056.51 Z" fill="#000000" fill-rule="nonzero" fill-opacity="1" /><path clip-path="url(#clip030)" d="M22.4021 1015.38 Q22.4021 1020.09 26.0942 1022.83 Q29.7545 1025.57 36.152 1025.57 Q42.5495 1025.57 46.2417 1022.86 Q49.9019 1020.13 49.9019 1015.38 Q49.9019 1010.71 46.2098 1007.97 Q42.5177 1005.23 36.152 1005.23 Q29.8181 1005.23 26.126 1007.97 Q22.4021 1010.71 22.4021 1015.38 M17.4368 1015.38 Q17.4368 1007.74 22.4021 1003.38 Q27.3673 999.024 36.152 999.024 Q44.9049 999.024 49.9019 1003.38 Q54.8672 1007.74 54.8672 1015.38 Q54.8672 1023.05 49.9019 1027.42 Q44.9049 1031.74 36.152 1031.74 Q27.3673 1031.74 22.4021 1027.42 Q17.4368 1023.05 17.4368 1015.38 Z" fill="#000000" fill-rule="nonzero" fill-opacity="1" /><path clip-path="url(#clip030)" d="M972.365 23.3193 L979.136 23.3193 L991.288 55.958 L1003.44 23.3193 L1010.21 23.3193 L995.629 62.208 L986.948 62.208 L972.365 23.3193 Z" fill="#000000" fill-rule="nonzero" fill-opacity="1" /><path clip-path="url(#clip030)" d="M1036.7 42.6595 Q1028.96 42.6595 1025.98 44.4303 Q1022.99 46.2011 1022.99 50.472 Q1022.99 53.8747 1025.21 55.8886 Q1027.47 57.8677 1031.32 57.8677 Q1036.64 57.8677 1039.83 54.1178 Q1043.06 50.3331 1043.06 44.0831 L1043.06 42.6595 L1036.7 42.6595 M1049.45 40.0206 L1049.45 62.208 L1043.06 62.208 L1043.06 56.3053 Q1040.87 59.8469 1037.61 61.5483 Q1034.34 63.2149 1029.62 63.2149 Q1023.65 63.2149 1020.11 59.8816 Q1016.6 56.5136 1016.6 50.8886 Q1016.6 44.3262 1020.98 40.9928 Q1025.39 37.6595 1034.1 37.6595 L1043.06 37.6595 L1043.06 37.0345 Q1043.06 32.6248 1040.14 30.229 Q1037.26 27.7985 1032.02 27.7985 Q1028.68 27.7985 1025.52 28.5971 Q1022.36 29.3957 1019.45 30.9929 L1019.45 25.0901 Q1022.95 23.736 1026.25 23.0763 Q1029.55 22.3818 1032.68 22.3818 Q1041.11 22.3818 1045.28 26.7568 Q1049.45 31.1318 1049.45 40.0206 Z" fill="#000000" fill-rule="nonzero" fill-opacity="1" /><path clip-path="url(#clip030)" d="M1062.61 8.18051 L1069 8.18051 L1069 62.208 L1062.61 62.208 L1062.61 8.18051 Z" fill="#000000" fill-rule="nonzero" fill-opacity="1" /><path clip-path="url(#clip030)" d="M1097.43 27.7985 Q1092.29 27.7985 1089.31 31.8262 Q1086.32 35.8193 1086.32 42.7984 Q1086.32 49.7775 1089.27 53.8053 Q1092.26 57.7983 1097.43 57.7983 Q1102.54 57.7983 1105.52 53.7705 Q1108.51 49.7428 1108.51 42.7984 Q1108.51 35.8887 1105.52 31.8609 Q1102.54 27.7985 1097.43 27.7985 M1097.43 22.3818 Q1105.77 22.3818 1110.52 27.7985 Q1115.28 33.2151 1115.28 42.7984 Q1115.28 52.3469 1110.52 57.7983 Q1105.77 63.2149 1097.43 63.2149 Q1089.07 63.2149 1084.31 57.7983 Q1079.59 52.3469 1079.59 42.7984 Q1079.59 33.2151 1084.31 27.7985 Q1089.07 22.3818 1097.43 22.3818 Z" fill="#000000" fill-rule="nonzero" fill-opacity="1" /><path clip-path="url(#clip030)" d="M1148.41 29.2915 Q1147.33 28.6665 1146.04 28.3887 Q1144.79 28.0762 1143.27 28.0762 Q1137.85 28.0762 1134.93 31.6179 Q1132.05 35.1248 1132.05 41.722 L1132.05 62.208 L1125.63 62.208 L1125.63 23.3193 L1132.05 23.3193 L1132.05 29.361 Q1134.07 25.8193 1137.29 24.1179 Q1140.52 22.3818 1145.14 22.3818 Q1145.8 22.3818 1146.6 22.486 Q1147.4 22.5554 1148.37 22.729 L1148.41 29.2915 Z" fill="#000000" fill-rule="nonzero" fill-opacity="1" /><path clip-path="url(#clip030)" d="M1210.97 41.1664 L1210.97 44.2914 L1181.6 44.2914 Q1182.02 50.8886 1185.56 54.3608 Q1189.13 57.7983 1195.49 57.7983 Q1199.17 57.7983 1202.61 56.8955 Q1206.08 55.9928 1209.48 54.1872 L1209.48 60.2288 Q1206.04 61.6872 1202.43 62.4511 Q1198.82 63.2149 1195.11 63.2149 Q1185.8 63.2149 1180.35 57.7983 Q1174.93 52.3817 1174.93 43.1456 Q1174.93 33.597 1180.07 28.0068 Q1185.25 22.3818 1194 22.3818 Q1201.84 22.3818 1206.39 27.4512 Q1210.97 32.4859 1210.97 41.1664 M1204.59 39.2915 Q1204.52 34.0484 1201.63 30.9234 Q1198.79 27.7985 1194.07 27.7985 Q1188.72 27.7985 1185.49 30.8193 Q1182.29 33.8401 1181.81 39.3262 L1204.59 39.2915 Z" fill="#000000" fill-rule="nonzero" fill-opacity="1" /><path clip-path="url(#clip030)" d="M1246.25 24.4651 L1246.25 30.5068 Q1243.54 29.1179 1240.63 28.4235 Q1237.71 27.729 1234.59 27.729 Q1229.83 27.729 1227.43 29.1873 Q1225.07 30.6457 1225.07 33.5623 Q1225.07 35.7845 1226.77 37.0692 Q1228.47 38.3192 1233.61 39.4651 L1235.8 39.9512 Q1242.61 41.4095 1245.45 44.0831 Q1248.34 46.722 1248.34 51.4789 Q1248.34 56.8955 1244.03 60.0552 Q1239.76 63.2149 1232.26 63.2149 Q1229.13 63.2149 1225.73 62.5899 Q1222.36 61.9997 1218.61 60.7844 L1218.61 54.1872 Q1222.16 56.0275 1225.59 56.965 Q1229.03 57.8677 1232.4 57.8677 Q1236.91 57.8677 1239.34 56.34 Q1241.77 54.7775 1241.77 51.965 Q1241.77 49.3608 1240 47.972 Q1238.27 46.5831 1232.33 45.2984 L1230.11 44.7775 Q1224.17 43.5275 1221.53 40.9581 Q1218.89 38.354 1218.89 33.8401 Q1218.89 28.354 1222.78 25.3679 Q1226.67 22.3818 1233.82 22.3818 Q1237.36 22.3818 1240.49 22.9027 Q1243.61 23.4235 1246.25 24.4651 Z" fill="#000000" fill-rule="nonzero" fill-opacity="1" /><path clip-path="url(#clip030)" d="M1264.69 56.3747 L1264.69 76.9996 L1258.27 76.9996 L1258.27 23.3193 L1264.69 23.3193 L1264.69 29.2221 Q1266.7 25.7499 1269.76 24.0832 Q1272.85 22.3818 1277.12 22.3818 Q1284.2 22.3818 1288.61 28.0068 Q1293.06 33.6318 1293.06 42.7984 Q1293.06 51.965 1288.61 57.59 Q1284.2 63.2149 1277.12 63.2149 Q1272.85 63.2149 1269.76 61.5483 Q1266.7 59.8469 1264.69 56.3747 M1286.43 42.7984 Q1286.43 35.7498 1283.51 31.7568 Q1280.63 27.729 1275.56 27.729 Q1270.49 27.729 1267.57 31.7568 Q1264.69 35.7498 1264.69 42.7984 Q1264.69 49.847 1267.57 53.8747 Q1270.49 57.8677 1275.56 57.8677 Q1280.63 57.8677 1283.51 53.8747 Q1286.43 49.847 1286.43 42.7984 Z" fill="#000000" fill-rule="nonzero" fill-opacity="1" /><path clip-path="url(#clip030)" d="M1336.91 41.1664 L1336.91 44.2914 L1307.54 44.2914 Q1307.95 50.8886 1311.49 54.3608 Q1315.07 57.7983 1321.43 57.7983 Q1325.11 57.7983 1328.54 56.8955 Q1332.02 55.9928 1335.42 54.1872 L1335.42 60.2288 Q1331.98 61.6872 1328.37 62.4511 Q1324.76 63.2149 1321.04 63.2149 Q1311.74 63.2149 1306.29 57.7983 Q1300.87 52.3817 1300.87 43.1456 Q1300.87 33.597 1306.01 28.0068 Q1311.18 22.3818 1319.93 22.3818 Q1327.78 22.3818 1332.33 27.4512 Q1336.91 32.4859 1336.91 41.1664 M1330.52 39.2915 Q1330.45 34.0484 1327.57 30.9234 Q1324.72 27.7985 1320 27.7985 Q1314.65 27.7985 1311.43 30.8193 Q1308.23 33.8401 1307.74 39.3262 L1330.52 39.2915 Z" fill="#000000" fill-rule="nonzero" fill-opacity="1" /><path clip-path="url(#clip030)" d="M1369.93 29.2915 Q1368.86 28.6665 1367.57 28.3887 Q1366.32 28.0762 1364.79 28.0762 Q1359.38 28.0762 1356.46 31.6179 Q1353.58 35.1248 1353.58 41.722 L1353.58 62.208 L1347.15 62.208 L1347.15 23.3193 L1353.58 23.3193 L1353.58 29.361 Q1355.59 25.8193 1358.82 24.1179 Q1362.05 22.3818 1366.67 22.3818 Q1367.33 22.3818 1368.13 22.486 Q1368.93 22.5554 1369.9 22.729 L1369.93 29.2915 Z" fill="#000000" fill-rule="nonzero" fill-opacity="1" /><path clip-path="url(#clip030)" d="M1394.31 42.6595 Q1386.56 42.6595 1383.58 44.4303 Q1380.59 46.2011 1380.59 50.472 Q1380.59 53.8747 1382.81 55.8886 Q1385.07 57.8677 1388.93 57.8677 Q1394.24 57.8677 1397.43 54.1178 Q1400.66 50.3331 1400.66 44.0831 L1400.66 42.6595 L1394.31 42.6595 M1407.05 40.0206 L1407.05 62.208 L1400.66 62.208 L1400.66 56.3053 Q1398.47 59.8469 1395.21 61.5483 Q1391.95 63.2149 1387.22 63.2149 Q1381.25 63.2149 1377.71 59.8816 Q1374.2 56.5136 1374.2 50.8886 Q1374.2 44.3262 1378.58 40.9928 Q1382.99 37.6595 1391.7 37.6595 L1400.66 37.6595 L1400.66 37.0345 Q1400.66 32.6248 1397.74 30.229 Q1394.86 27.7985 1389.62 27.7985 Q1386.29 27.7985 1383.13 28.5971 Q1379.97 29.3957 1377.05 30.9929 L1377.05 25.0901 Q1380.56 23.736 1383.86 23.0763 Q1387.15 22.3818 1390.28 22.3818 Q1398.72 22.3818 1402.88 26.7568 Q1407.05 31.1318 1407.05 40.0206 Z" fill="#000000" fill-rule="nonzero" fill-opacity="1" /><path clip-path="url(#clip030)" d="M1445.8 29.2221 L1445.8 8.18051 L1452.19 8.18051 L1452.19 62.208 L1445.8 62.208 L1445.8 56.3747 Q1443.79 59.8469 1440.7 61.5483 Q1437.64 63.2149 1433.33 63.2149 Q1426.29 63.2149 1421.84 57.59 Q1417.43 51.965 1417.43 42.7984 Q1417.43 33.6318 1421.84 28.0068 Q1426.29 22.3818 1433.33 22.3818 Q1437.64 22.3818 1440.7 24.0832 Q1443.79 25.7499 1445.8 29.2221 M1424.03 42.7984 Q1424.03 49.847 1426.91 53.8747 Q1429.83 57.8677 1434.9 57.8677 Q1439.97 57.8677 1442.88 53.8747 Q1445.8 49.847 1445.8 42.7984 Q1445.8 35.7498 1442.88 31.7568 Q1439.97 27.729 1434.9 27.729 Q1429.83 27.729 1426.91 31.7568 Q1424.03 35.7498 1424.03 42.7984 Z" fill="#000000" fill-rule="nonzero" fill-opacity="1" /><path clip-path="url(#clip030)" d="M1480.42 27.7985 Q1475.28 27.7985 1472.29 31.8262 Q1469.31 35.8193 1469.31 42.7984 Q1469.31 49.7775 1472.26 53.8053 Q1475.24 57.7983 1480.42 57.7983 Q1485.52 57.7983 1488.51 53.7705 Q1491.49 49.7428 1491.49 42.7984 Q1491.49 35.8887 1488.51 31.8609 Q1485.52 27.7985 1480.42 27.7985 M1480.42 22.3818 Q1488.75 22.3818 1493.51 27.7985 Q1498.26 33.2151 1498.26 42.7984 Q1498.26 52.3469 1493.51 57.7983 Q1488.75 63.2149 1480.42 63.2149 Q1472.05 63.2149 1467.29 57.7983 Q1462.57 52.3469 1462.57 42.7984 Q1462.57 33.2151 1467.29 27.7985 Q1472.05 22.3818 1480.42 22.3818 Z" fill="#000000" fill-rule="nonzero" fill-opacity="1" /><path clip-path="url(#clip030)" d="M1564.72 41.1664 L1564.72 44.2914 L1535.35 44.2914 Q1535.76 50.8886 1539.31 54.3608 Q1542.88 57.7983 1549.24 57.7983 Q1552.92 57.7983 1556.35 56.8955 Q1559.83 55.9928 1563.23 54.1872 L1563.23 60.2288 Q1559.79 61.6872 1556.18 62.4511 Q1552.57 63.2149 1548.85 63.2149 Q1539.55 63.2149 1534.1 57.7983 Q1528.68 52.3817 1528.68 43.1456 Q1528.68 33.597 1533.82 28.0068 Q1538.99 22.3818 1547.74 22.3818 Q1555.59 22.3818 1560.14 27.4512 Q1564.72 32.4859 1564.72 41.1664 M1558.33 39.2915 Q1558.26 34.0484 1555.38 30.9234 Q1552.54 27.7985 1547.81 27.7985 Q1542.47 27.7985 1539.24 30.8193 Q1536.04 33.8401 1535.56 39.3262 L1558.33 39.2915 Z" fill="#000000" fill-rule="nonzero" fill-opacity="1" /><path clip-path="url(#clip030)" d="M1597.81 23.3193 L1604.2 23.3193 L1604.2 62.208 L1597.81 62.208 L1597.81 23.3193 M1597.81 8.18051 L1604.2 8.18051 L1604.2 16.2707 L1597.81 16.2707 L1597.81 8.18051 Z" fill="#000000" fill-rule="nonzero" fill-opacity="1" /><path clip-path="url(#clip030)" d="M1649.9 38.7359 L1649.9 62.208 L1643.51 62.208 L1643.51 38.9442 Q1643.51 33.4234 1641.35 30.6804 Q1639.2 27.9374 1634.9 27.9374 Q1629.72 27.9374 1626.74 31.2359 Q1623.75 34.5345 1623.75 40.229 L1623.75 62.208 L1617.33 62.208 L1617.33 23.3193 L1623.75 23.3193 L1623.75 29.361 Q1626.04 25.854 1629.13 24.1179 Q1632.26 22.3818 1636.32 22.3818 Q1643.02 22.3818 1646.46 26.5485 Q1649.9 30.6804 1649.9 38.7359 Z" fill="#000000" fill-rule="nonzero" fill-opacity="1" /><path clip-path="url(#clip030)" d="M1668.96 12.2777 L1668.96 23.3193 L1682.12 23.3193 L1682.12 28.2846 L1668.96 28.2846 L1668.96 49.3956 Q1668.96 54.1525 1670.24 55.5066 Q1671.56 56.8608 1675.56 56.8608 L1682.12 56.8608 L1682.12 62.208 L1675.56 62.208 Q1668.16 62.208 1665.35 59.465 Q1662.53 56.6872 1662.53 49.3956 L1662.53 28.2846 L1657.85 28.2846 L1657.85 23.3193 L1662.53 23.3193 L1662.53 12.2777 L1668.96 12.2777 Z" fill="#000000" fill-rule="nonzero" fill-opacity="1" /><path clip-path="url(#clip030)" d="M1723.78 41.1664 L1723.78 44.2914 L1694.41 44.2914 Q1694.83 50.8886 1698.37 54.3608 Q1701.94 57.7983 1708.3 57.7983 Q1711.98 57.7983 1715.42 56.8955 Q1718.89 55.9928 1722.29 54.1872 L1722.29 60.2288 Q1718.85 61.6872 1715.24 62.4511 Q1711.63 63.2149 1707.92 63.2149 Q1698.61 63.2149 1693.16 57.7983 Q1687.74 52.3817 1687.74 43.1456 Q1687.74 33.597 1692.88 28.0068 Q1698.06 22.3818 1706.81 22.3818 Q1714.65 22.3818 1719.2 27.4512 Q1723.78 32.4859 1723.78 41.1664 M1717.4 39.2915 Q1717.33 34.0484 1714.44 30.9234 Q1711.6 27.7985 1706.87 27.7985 Q1701.53 27.7985 1698.3 30.8193 Q1695.1 33.8401 1694.62 39.3262 L1717.4 39.2915 Z" fill="#000000" fill-rule="nonzero" fill-opacity="1" /><path clip-path="url(#clip030)" d="M1756.81 29.2915 Q1755.73 28.6665 1754.44 28.3887 Q1753.19 28.0762 1751.67 28.0762 Q1746.25 28.0762 1743.33 31.6179 Q1740.45 35.1248 1740.45 41.722 L1740.45 62.208 L1734.03 62.208 L1734.03 23.3193 L1740.45 23.3193 L1740.45 29.361 Q1742.46 25.8193 1745.69 24.1179 Q1748.92 22.3818 1753.54 22.3818 Q1754.2 22.3818 1755 22.486 Q1755.8 22.5554 1756.77 22.729 L1756.81 29.2915 Z" fill="#000000" fill-rule="nonzero" fill-opacity="1" /><path clip-path="url(#clip030)" d="M1758.92 23.3193 L1765.69 23.3193 L1777.85 55.958 L1790 23.3193 L1796.77 23.3193 L1782.19 62.208 L1773.51 62.208 L1758.92 23.3193 Z" fill="#000000" fill-rule="nonzero" fill-opacity="1" /><path clip-path="url(#clip030)" d="M1823.26 42.6595 Q1815.52 42.6595 1812.53 44.4303 Q1809.55 46.2011 1809.55 50.472 Q1809.55 53.8747 1811.77 55.8886 Q1814.03 57.8677 1817.88 57.8677 Q1823.19 57.8677 1826.39 54.1178 Q1829.62 50.3331 1829.62 44.0831 L1829.62 42.6595 L1823.26 42.6595 M1836.01 40.0206 L1836.01 62.208 L1829.62 62.208 L1829.62 56.3053 Q1827.43 59.8469 1824.17 61.5483 Q1820.9 63.2149 1816.18 63.2149 Q1810.21 63.2149 1806.67 59.8816 Q1803.16 56.5136 1803.16 50.8886 Q1803.16 44.3262 1807.53 40.9928 Q1811.94 37.6595 1820.66 37.6595 L1829.62 37.6595 L1829.62 37.0345 Q1829.62 32.6248 1826.7 30.229 Q1823.82 27.7985 1818.58 27.7985 Q1815.24 27.7985 1812.08 28.5971 Q1808.92 29.3957 1806.01 30.9929 L1806.01 25.0901 Q1809.51 23.736 1812.81 23.0763 Q1816.11 22.3818 1819.24 22.3818 Q1827.67 22.3818 1831.84 26.7568 Q1836.01 31.1318 1836.01 40.0206 Z" fill="#000000" fill-rule="nonzero" fill-opacity="1" /><path clip-path="url(#clip030)" d="M1849.17 8.18051 L1855.55 8.18051 L1855.55 62.208 L1849.17 62.208 L1849.17 8.18051 Z" fill="#000000" fill-rule="nonzero" fill-opacity="1" /><path clip-path="url(#clip030)" d="M1883.99 27.7985 Q1878.85 27.7985 1875.87 31.8262 Q1872.88 35.8193 1872.88 42.7984 Q1872.88 49.7775 1875.83 53.8053 Q1878.82 57.7983 1883.99 57.7983 Q1889.1 57.7983 1892.08 53.7705 Q1895.07 49.7428 1895.07 42.7984 Q1895.07 35.8887 1892.08 31.8609 Q1889.1 27.7985 1883.99 27.7985 M1883.99 22.3818 Q1892.33 22.3818 1897.08 27.7985 Q1901.84 33.2151 1901.84 42.7984 Q1901.84 52.3469 1897.08 57.7983 Q1892.33 63.2149 1883.99 63.2149 Q1875.62 63.2149 1870.87 57.7983 Q1866.14 52.3469 1866.14 42.7984 Q1866.14 33.2151 1870.87 27.7985 Q1875.62 22.3818 1883.99 22.3818 Z" fill="#000000" fill-rule="nonzero" fill-opacity="1" /><path clip-path="url(#clip030)" d="M1937.22 24.4651 L1937.22 30.5068 Q1934.51 29.1179 1931.6 28.4235 Q1928.68 27.729 1925.55 27.729 Q1920.8 27.729 1918.4 29.1873 Q1916.04 30.6457 1916.04 33.5623 Q1916.04 35.7845 1917.74 37.0692 Q1919.44 38.3192 1924.58 39.4651 L1926.77 39.9512 Q1933.57 41.4095 1936.42 44.0831 Q1939.3 46.722 1939.3 51.4789 Q1939.3 56.8955 1935 60.0552 Q1930.73 63.2149 1923.23 63.2149 Q1920.1 63.2149 1916.7 62.5899 Q1913.33 61.9997 1909.58 60.7844 L1909.58 54.1872 Q1913.12 56.0275 1916.56 56.965 Q1920 57.8677 1923.37 57.8677 Q1927.88 57.8677 1930.31 56.34 Q1932.74 54.7775 1932.74 51.965 Q1932.74 49.3608 1930.97 47.972 Q1929.23 46.5831 1923.3 45.2984 L1921.08 44.7775 Q1915.14 43.5275 1912.5 40.9581 Q1909.86 38.354 1909.86 33.8401 Q1909.86 28.354 1913.75 25.3679 Q1917.64 22.3818 1924.79 22.3818 Q1928.33 22.3818 1931.46 22.9027 Q1934.58 23.4235 1937.22 24.4651 Z" fill="#000000" fill-rule="nonzero" fill-opacity="1" /><path clip-path="url(#clip030)" d="M1997.67 29.2221 L1997.67 8.18051 L2004.06 8.18051 L2004.06 62.208 L1997.67 62.208 L1997.67 56.3747 Q1995.66 59.8469 1992.57 61.5483 Q1989.51 63.2149 1985.21 63.2149 Q1978.16 63.2149 1973.71 57.59 Q1969.3 51.965 1969.3 42.7984 Q1969.3 33.6318 1973.71 28.0068 Q1978.16 22.3818 1985.21 22.3818 Q1989.51 22.3818 1992.57 24.0832 Q1995.66 25.7499 1997.67 29.2221 M1975.9 42.7984 Q1975.9 49.847 1978.78 53.8747 Q1981.7 57.8677 1986.77 57.8677 Q1991.84 57.8677 1994.76 53.8747 Q1997.67 49.847 1997.67 42.7984 Q1997.67 35.7498 1994.76 31.7568 Q1991.84 27.729 1986.77 27.729 Q1981.7 27.729 1978.78 31.7568 Q1975.9 35.7498 1975.9 42.7984 Z" fill="#000000" fill-rule="nonzero" fill-opacity="1" /><path clip-path="url(#clip030)" d="M2050.48 41.1664 L2050.48 44.2914 L2021.11 44.2914 Q2021.53 50.8886 2025.07 54.3608 Q2028.64 57.7983 2035 57.7983 Q2038.68 57.7983 2042.12 56.8955 Q2045.59 55.9928 2048.99 54.1872 L2048.99 60.2288 Q2045.55 61.6872 2041.94 62.4511 Q2038.33 63.2149 2034.62 63.2149 Q2025.31 63.2149 2019.86 57.7983 Q2014.44 52.3817 2014.44 43.1456 Q2014.44 33.597 2019.58 28.0068 Q2024.76 22.3818 2033.5 22.3818 Q2041.35 22.3818 2045.9 27.4512 Q2050.48 32.4859 2050.48 41.1664 M2044.1 39.2915 Q2044.03 34.0484 2041.14 30.9234 Q2038.3 27.7985 2033.57 27.7985 Q2028.23 27.7985 2025 30.8193 Q2021.8 33.8401 2021.32 39.3262 L2044.1 39.2915 Z" fill="#000000" fill-rule="nonzero" fill-opacity="1" /><path clip-path="url(#clip030)" d="M2111.56 24.8124 L2111.56 30.7846 Q2108.85 29.2915 2106.11 28.5623 Q2103.4 27.7985 2100.62 27.7985 Q2094.41 27.7985 2090.97 31.7568 Q2087.53 35.6804 2087.53 42.7984 Q2087.53 49.9164 2090.97 53.8747 Q2094.41 57.7983 2100.62 57.7983 Q2103.4 57.7983 2106.11 57.0691 Q2108.85 56.3053 2111.56 54.8122 L2111.56 60.715 Q2108.89 61.9649 2106 62.5899 Q2103.16 63.2149 2099.93 63.2149 Q2091.14 63.2149 2085.97 57.6941 Q2080.8 52.1733 2080.8 42.7984 Q2080.8 33.2845 2086 27.8332 Q2091.25 22.3818 2100.34 22.3818 Q2103.3 22.3818 2106.11 23.0068 Q2108.92 23.5971 2111.56 24.8124 Z" fill="#000000" fill-rule="nonzero" fill-opacity="1" /><path clip-path="url(#clip030)" d="M2137.74 27.7985 Q2132.6 27.7985 2129.62 31.8262 Q2126.63 35.8193 2126.63 42.7984 Q2126.63 49.7775 2129.58 53.8053 Q2132.57 57.7983 2137.74 57.7983 Q2142.84 57.7983 2145.83 53.7705 Q2148.82 49.7428 2148.82 42.7984 Q2148.82 35.8887 2145.83 31.8609 Q2142.84 27.7985 2137.74 27.7985 M2137.74 22.3818 Q2146.07 22.3818 2150.83 27.7985 Q2155.59 33.2151 2155.59 42.7984 Q2155.59 52.3469 2150.83 57.7983 Q2146.07 63.2149 2137.74 63.2149 Q2129.37 63.2149 2124.62 57.7983 Q2119.89 52.3469 2119.89 42.7984 Q2119.89 33.2151 2124.62 27.7985 Q2129.37 22.3818 2137.74 22.3818 Z" fill="#000000" fill-rule="nonzero" fill-opacity="1" /><path clip-path="url(#clip030)" d="M2198.5 38.7359 L2198.5 62.208 L2192.12 62.208 L2192.12 38.9442 Q2192.12 33.4234 2189.96 30.6804 Q2187.81 27.9374 2183.5 27.9374 Q2178.33 27.9374 2175.34 31.2359 Q2172.36 34.5345 2172.36 40.229 L2172.36 62.208 L2165.93 62.208 L2165.93 23.3193 L2172.36 23.3193 L2172.36 29.361 Q2174.65 25.854 2177.74 24.1179 Q2180.87 22.3818 2184.93 22.3818 Q2191.63 22.3818 2195.07 26.5485 Q2198.5 30.6804 2198.5 38.7359 Z" fill="#000000" fill-rule="nonzero" fill-opacity="1" /><path clip-path="url(#clip030)" d="M2230.93 8.18051 L2230.93 13.493 L2224.82 13.493 Q2221.39 13.493 2220.03 14.8819 Q2218.71 16.2707 2218.71 19.8818 L2218.71 23.3193 L2229.23 23.3193 L2229.23 28.2846 L2218.71 28.2846 L2218.71 62.208 L2212.29 62.208 L2212.29 28.2846 L2206.18 28.2846 L2206.18 23.3193 L2212.29 23.3193 L2212.29 20.611 Q2212.29 14.118 2215.31 11.1666 Q2218.33 8.18051 2224.89 8.18051 L2230.93 8.18051 Z" fill="#000000" fill-rule="nonzero" fill-opacity="1" /><path clip-path="url(#clip030)" d="M2236.28 23.3193 L2242.67 23.3193 L2242.67 62.208 L2236.28 62.208 L2236.28 23.3193 M2236.28 8.18051 L2242.67 8.18051 L2242.67 16.2707 L2236.28 16.2707 L2236.28 8.18051 Z" fill="#000000" fill-rule="nonzero" fill-opacity="1" /><path clip-path="url(#clip030)" d="M2273.71 42.6595 Q2265.97 42.6595 2262.98 44.4303 Q2260 46.2011 2260 50.472 Q2260 53.8747 2262.22 55.8886 Q2264.48 57.8677 2268.33 57.8677 Q2273.64 57.8677 2276.84 54.1178 Q2280.07 50.3331 2280.07 44.0831 L2280.07 42.6595 L2273.71 42.6595 M2286.45 40.0206 L2286.45 62.208 L2280.07 62.208 L2280.07 56.3053 Q2277.88 59.8469 2274.61 61.5483 Q2271.35 63.2149 2266.63 63.2149 Q2260.66 63.2149 2257.11 59.8816 Q2253.61 56.5136 2253.61 50.8886 Q2253.61 44.3262 2257.98 40.9928 Q2262.39 37.6595 2271.11 37.6595 L2280.07 37.6595 L2280.07 37.0345 Q2280.07 32.6248 2277.15 30.229 Q2274.27 27.7985 2269.02 27.7985 Q2265.69 27.7985 2262.53 28.5971 Q2259.37 29.3957 2256.46 30.9929 L2256.46 25.0901 Q2259.96 23.736 2263.26 23.0763 Q2266.56 22.3818 2269.68 22.3818 Q2278.12 22.3818 2282.29 26.7568 Q2286.45 31.1318 2286.45 40.0206 Z" fill="#000000" fill-rule="nonzero" fill-opacity="1" /><path clip-path="url(#clip030)" d="M2331.94 38.7359 L2331.94 62.208 L2325.55 62.208 L2325.55 38.9442 Q2325.55 33.4234 2323.4 30.6804 Q2321.25 27.9374 2316.94 27.9374 Q2311.77 27.9374 2308.78 31.2359 Q2305.8 34.5345 2305.8 40.229 L2305.8 62.208 L2299.37 62.208 L2299.37 23.3193 L2305.8 23.3193 L2305.8 29.361 Q2308.09 25.854 2311.18 24.1179 Q2314.3 22.3818 2318.36 22.3818 Q2325.07 22.3818 2328.5 26.5485 Q2331.94 30.6804 2331.94 38.7359 Z" fill="#000000" fill-rule="nonzero" fill-opacity="1" /><path clip-path="url(#clip030)" d="M2372.67 24.8124 L2372.67 30.7846 Q2369.96 29.2915 2367.22 28.5623 Q2364.51 27.7985 2361.73 27.7985 Q2355.52 27.7985 2352.08 31.7568 Q2348.64 35.6804 2348.64 42.7984 Q2348.64 49.9164 2352.08 53.8747 Q2355.52 57.7983 2361.73 57.7983 Q2364.51 57.7983 2367.22 57.0691 Q2369.96 56.3053 2372.67 54.8122 L2372.67 60.715 Q2370 61.9649 2367.11 62.5899 Q2364.27 63.2149 2361.04 63.2149 Q2352.25 63.2149 2347.08 57.6941 Q2341.91 52.1733 2341.91 42.7984 Q2341.91 33.2845 2347.11 27.8332 Q2352.36 22.3818 2361.45 22.3818 Q2364.41 22.3818 2367.22 23.0068 Q2370.03 23.5971 2372.67 24.8124 M2363.64 62.208 Q2365.55 64.3608 2366.49 66.1663 Q2367.43 68.0066 2367.43 69.6732 Q2367.43 72.7635 2365.34 74.326 Q2363.26 75.9232 2359.16 75.9232 Q2357.57 75.9232 2356.04 75.7149 Q2354.54 75.5065 2353.05 75.0899 L2353.05 70.5413 Q2354.23 71.1316 2355.52 71.3746 Q2356.8 71.6524 2358.43 71.6524 Q2360.48 71.6524 2361.52 70.8191 Q2362.57 69.9857 2362.57 68.3885 Q2362.57 67.3469 2361.8 65.8191 Q2361.07 64.326 2359.51 62.208 L2363.64 62.208 Z" fill="#000000" fill-rule="nonzero" fill-opacity="1" /><path clip-path="url(#clip030)" d="M2401.45 42.6595 Q2393.71 42.6595 2390.73 44.4303 Q2387.74 46.2011 2387.74 50.472 Q2387.74 53.8747 2389.96 55.8886 Q2392.22 57.8677 2396.07 57.8677 Q2401.38 57.8677 2404.58 54.1178 Q2407.81 50.3331 2407.81 44.0831 L2407.81 42.6595 L2401.45 42.6595 M2414.2 40.0206 L2414.2 62.208 L2407.81 62.208 L2407.81 56.3053 Q2405.62 59.8469 2402.36 61.5483 Q2399.09 63.2149 2394.37 63.2149 Q2388.4 63.2149 2384.86 59.8816 Q2381.35 56.5136 2381.35 50.8886 Q2381.35 44.3262 2385.73 40.9928 Q2390.13 37.6595 2398.85 37.6595 L2407.81 37.6595 L2407.81 37.0345 Q2407.81 32.6248 2404.89 30.229 Q2402.01 27.7985 2396.77 27.7985 Q2393.43 27.7985 2390.27 28.5971 Q2387.11 29.3957 2384.2 30.9929 L2384.2 25.0901 Q2387.7 23.736 2391 23.0763 Q2394.3 22.3818 2397.43 22.3818 Q2405.86 22.3818 2410.03 26.7568 Q2414.2 31.1318 2414.2 40.0206 Z" fill="#000000" fill-rule="nonzero" fill-opacity="1" /><path clip-path="url(#clip032)" d="M316.418 2145.95 L330.256 2125.86 L344.094 2104.65 L357.932 2082.31 L371.769 2058.8 L385.607 2034.11 L399.445 2008.21 L413.283 1981.12 L427.121 1952.56 L440.958 1922.79 L454.796 1891.77 L468.634 1859.54 L482.472 1826.11 L496.31 1791.73 L510.148 1756.31 L523.985 1719.84 L537.823 1682.41 L551.661 1644.06 L565.499 1604.65 L579.337 1564.48 L593.174 1523.63 L607.012 1482.36 L620.85 1440.51 L634.688 1398.3 L648.526 1355.85 L662.364 1313.29 L676.201 1270.85 L690.039 1229.21 L703.877 1188.06 L717.715 1147.34 L731.553 1107.14 L745.39 1067.56 L759.228 1028.37 L773.066 989.87 L786.904 952.235 L800.742 915.538 L814.58 879.854 L828.417 845.248 L842.255 811.765 L856.093 780.536 L869.931 750.913 L883.769 720.973 L897.606 692.439 L911.444 665.393 L925.282 638.924 L939.12 614.219 L952.958 592.287 L966.796 570.425 L980.633 549.881 L994.471 530.661 L1008.31 512.357 L1022.15 495.41 L1035.98 480.009 L1049.82 464.933 L1063.66 450.517 L1077.5 436.905 L1091.34 424.763 L1105.17 412.687 L1119.01 401.474 L1132.85 391.466 L1146.69 382.606 L1160.53 373.73 L1174.36 365.457 L1188.2 357.319 L1202.04 349.686 L1215.88 342.597 L1229.71 336.274 L1243.55 330.069 L1257.39 324.599 L1271.23 319.746 L1285.07 315.619 L1298.9 311.194 L1312.74 307.148 L1326.58 303.43 L1340.42 300.302 L1354.25 297.364 L1368.09 294.522 L1381.93 291.874 L1395.77 289.402 L1409.61 287.099 L1423.44 284.958 L1437.28 282.97 L1451.12 281.127 L1464.96 279.421 L1478.79 277.689 L1492.63 276.088 L1506.47 274.609 L1520.31 273.242 L1534.15 272.003 L1547.98 270.854 L1561.82 269.785 L1575.66 268.809 L1589.5 267.965 L1603.34 267.179 L1617.17 266.449 L1631.01 265.771 L1644.85 265.142 L1658.69 264.56 L1672.52 264.021 L1686.36 263.523 L1700.2 263.063 L1714.04 262.638 L1727.88 262.245 L1741.71 261.881 L1755.55 261.545 L1769.39 261.233 L1783.23 260.942 L1797.06 260.67 L1810.9 260.416 L1824.74 260.177 L1838.58 259.953 L1852.42 259.744 L1866.25 259.55 L1880.09 259.369 L1893.93 259.202 L1907.77 259.048 L1921.61 258.907 L1935.44 258.777 L1949.28 258.658 L1963.12 258.55 L1976.96 258.451 L1990.79 258.361 L2004.63 258.279 L2018.47 258.204 L2032.31 258.136 L2046.15 258.073 L2059.98 258.015 L2073.82 257.96 L2087.66 257.907 L2101.5 257.856 L2115.33 257.806 L2129.17 257.758 L2143.01 257.713 L2156.85 257.671 L2170.69 257.632 L2184.52 257.596 L2198.36 257.562 L2212.2 257.53 L2226.04 257.502 L2239.87 257.475 L2253.71 257.452 L2267.55 257.43 L2281.39 257.41 L2295.23 257.393 L2309.06 257.377 L2322.9 257.364 L2336.74 257.351 L2350.58 257.34 L2364.42 257.33 L2378.25 257.321 L2392.09 257.313 L2405.93 257.305 L2419.77 257.297 L2433.6 257.29 L2447.44 257.281 L2461.28 257.273 L2475.12 257.264 L2488.96 257.256 L2502.79 257.248 L2516.63 257.241 L2530.47 257.233 L2544.31 257.226 L2558.14 257.22 L2571.98 257.214 L2585.82 257.208 L2599.66 257.203 L2613.5 257.199 L2627.33 257.195 L2641.17 257.192 L2655.01 257.189 L2668.85 257.187 L2682.69 257.185 L2696.52 257.184 L2710.36 257.183 L2724.2 257.182 L2738.04 257.182 L2751.87 257.183 L2765.71 257.183 L2779.55 257.184 L2793.39 257.185 L2807.23 257.186 L2821.06 257.187 L2834.9 257.188 L2848.74 257.189 L2862.58 257.189 L2876.41 257.189 L2890.25 257.188 L2904.09 257.187 L2917.93 257.186 L2931.77 257.184 L2945.6 257.183 L2959.44 257.182 L2973.28 257.181 L2987.12 257.18 L3000.96 257.179 L3014.79 257.178 L3028.63 257.177 L3042.47 257.176 L3056.31 257.176 L3070.14 257.175 L3070.14 180.282 L3056.31 180.283 L3042.47 180.283 L3028.63 180.284 L3014.79 180.285 L3000.96 180.286 L2987.12 180.287 L2973.28 180.287 L2959.44 180.288 L2945.6 180.29 L2931.77 180.291 L2917.93 180.292 L2904.09 180.293 L2890.25 180.295 L2876.41 180.297 L2862.58 180.298 L2848.74 180.3 L2834.9 180.302 L2821.06 180.303 L2807.23 180.304 L2793.39 180.304 L2779.55 180.304 L2765.71 180.304 L2751.87 180.303 L2738.04 180.303 L2724.2 180.302 L2710.36 180.302 L2696.52 180.302 L2682.69 180.302 L2668.85 180.303 L2655.01 180.304 L2641.17 180.306 L2627.33 180.308 L2613.5 180.311 L2599.66 180.315 L2585.82 180.319 L2571.98 180.324 L2558.14 180.33 L2544.31 180.336 L2530.47 180.344 L2516.63 180.352 L2502.79 180.36 L2488.96 180.37 L2475.12 180.38 L2461.28 180.39 L2447.44 180.401 L2433.6 180.413 L2419.77 180.425 L2405.93 180.437 L2392.09 180.449 L2378.25 180.461 L2364.42 180.473 L2350.58 180.485 L2336.74 180.498 L2322.9 180.512 L2309.06 180.527 L2295.23 180.544 L2281.39 180.563 L2267.55 180.584 L2253.71 180.607 L2239.87 180.633 L2226.04 180.662 L2212.2 180.693 L2198.36 180.728 L2184.52 180.766 L2170.69 180.808 L2156.85 180.853 L2143.01 180.902 L2129.17 180.954 L2115.33 181.011 L2101.5 181.071 L2087.66 181.135 L2073.82 181.203 L2059.98 181.274 L2046.15 181.348 L2032.31 181.425 L2018.47 181.507 L2004.63 181.594 L1990.79 181.689 L1976.96 181.793 L1963.12 181.906 L1949.28 182.029 L1935.44 182.165 L1921.61 182.313 L1907.77 182.475 L1893.93 182.651 L1880.09 182.843 L1866.25 183.052 L1852.42 183.278 L1838.58 183.523 L1824.74 183.786 L1810.9 184.068 L1797.06 184.371 L1783.23 184.695 L1769.39 185.041 L1755.55 185.41 L1741.71 185.806 L1727.88 186.205 L1714.04 186.603 L1700.2 187.033 L1686.36 187.498 L1672.52 187.993 L1658.69 188.52 L1644.85 189.09 L1631.01 189.706 L1617.17 190.369 L1603.34 191.083 L1589.5 191.851 L1575.66 192.675 L1561.82 193.496 L1547.98 194.294 L1534.15 195.154 L1520.31 196.082 L1506.47 197.085 L1492.63 198.169 L1478.79 199.377 L1464.96 200.861 L1451.12 202.467 L1437.28 204.203 L1423.44 206.068 L1409.61 208.031 L1395.77 210.145 L1381.93 212.481 L1368.09 215.074 L1354.25 217.75 L1340.42 220.753 L1326.58 223.992 L1312.74 227.738 L1298.9 231.687 L1285.07 235.689 L1271.23 239.661 L1257.39 243.747 L1243.55 249.141 L1229.71 255.382 L1215.88 261.386 L1202.04 268.166 L1188.2 274.98 L1174.36 281.95 L1160.53 289.465 L1146.69 297.715 L1132.85 305.404 L1119.01 313.6 L1105.17 322.345 L1091.34 332.923 L1077.5 342.638 L1063.66 354.369 L1049.82 366.805 L1035.98 379.337 L1022.15 391.478 L1008.31 404.948 L994.471 419.249 L980.633 433.966 L966.796 449.61 L952.958 467.222 L939.12 485.984 L925.282 505.763 L911.444 525.294 L897.606 546.376 L883.769 568.52 L869.931 591.724 L856.093 616.109 L842.255 641.691 L828.417 668.278 L814.58 695.94 L800.742 724.824 L786.904 754.921 L773.066 786.169 L759.228 818.599 L745.39 852.183 L731.553 886.881 L717.715 922.647 L703.877 959.424 L690.039 997.434 L676.201 1036.35 L662.364 1076.04 L648.526 1116.24 L634.688 1156.92 L620.85 1198.08 L607.012 1239.61 L593.174 1281.41 L579.337 1323.33 L565.499 1364.92 L551.661 1406.29 L537.823 1447.48 L523.985 1488.59 L510.148 1529.72 L496.31 1570.3 L482.472 1610.19 L468.634 1649.32 L454.796 1687.62 L440.958 1725 L427.121 1761.23 L413.283 1796.38 L399.445 1830.45 L385.607 1863.41 L371.769 1895.21 L357.932 1925.83 L344.094 1955.26 L330.256 1983.47 L316.418 2010.48  Z" fill="#009af9" fill-rule="evenodd" fill-opacity="0.2"/>
<polyline clip-path="url(#clip032)" style="stroke:#009af9; stroke-linecap:round; stroke-linejoin:round; stroke-width:12; stroke-opacity:1; fill:none" points="316.418,2083.34 330.256,2059.96 344.094,2035.4 357.932,2009.64 371.769,1982.68 385.607,1954.52 399.445,1925.14 413.283,1894.46 427.121,1862.56 440.958,1829.5 454.796,1795.29 468.634,1759.77 482.472,1723.23 496.31,1685.92 510.148,1647.69 523.985,1608.62 537.823,1568.78 551.661,1528.28 565.499,1487.22 579.337,1445.63 593.174,1403.42 607.012,1361.34 620.85,1319.26 634.688,1277.21 648.526,1235.31 662.364,1193.68 676.201,1152.27 690.039,1110.96 703.877,1070.23 717.715,1030.45 731.553,991.714 745.39,953.86 759.228,917.522 773.066,882.365 786.904,848.365 800.742,815.307 814.58,782.805 828.417,751.538 842.255,721.568 856.093,693.604 869.931,665.75 883.769,638.626 897.606,613.586 911.444,590.363 925.282,567.774 939.12,545.692 952.958,524.992 966.796,505.536 980.633,486.604 994.471,469.719 1008.31,453.285 1022.15,438.667 1035.98,423.46 1049.82,409.662 1063.66,397.376 1077.5,385.489 1091.34,374.25 1105.17,364.204 1119.01,354.008 1132.85,344.51 1146.69,336.616 1160.53,328.201 1174.36,320.432 1188.2,313.252 1202.04,306.823 1215.88,300.237 1229.71,294.755 1243.55,289.481 1257.39,284.994 1271.23,280.672 1285.07,276.745 1298.9,272.73 1312.74,269.086 1326.58,265.694 1340.42,262.368 1354.25,258.97 1368.09,256.427 1381.93,253.936 1395.77,251.9 1409.61,249.694 1423.44,247.442 1437.28,245.637 1451.12,243.978 1464.96,242.058 1478.79,240.294 1492.63,238.941 1506.47,237.482 1520.31,236.016 1534.15,234.742 1547.98,233.676 1561.82,232.616 1575.66,231.52 1589.5,230.497 1603.34,229.54 1617.17,228.654 1631.01,227.976 1644.85,227.401 1658.69,226.91 1672.52,226.454 1686.36,226.029 1700.2,225.636 1714.04,225.271 1727.88,224.927 1741.71,224.553 1755.55,224.207 1769.39,223.887 1783.23,223.591 1797.06,223.317 1810.9,223.062 1824.74,222.825 1838.58,222.638 1852.42,222.468 1866.25,222.309 1880.09,222.161 1893.93,222.023 1907.77,221.894 1921.61,221.773 1935.44,221.66 1949.28,221.556 1963.12,221.46 1976.96,221.371 1990.79,221.29 2004.63,221.216 2018.47,221.148 2032.31,221.087 2046.15,221.03 2059.98,220.979 2073.82,220.929 2087.66,220.882 2101.5,220.839 2115.33,220.798 2129.17,220.758 2143.01,220.719 2156.85,220.68 2170.69,220.643 2184.52,220.607 2198.36,220.574 2212.2,220.543 2226.04,220.514 2239.87,220.487 2253.71,220.462 2267.55,220.439 2281.39,220.418 2295.23,220.399 2309.06,220.382 2322.9,220.367 2336.74,220.353 2350.58,220.341 2364.42,220.33 2378.25,220.32 2392.09,220.312 2405.93,220.304 2419.77,220.297 2433.6,220.291 2447.44,220.286 2461.28,220.28 2475.12,220.274 2488.96,220.268 2502.79,220.262 2516.63,220.255 2530.47,220.249 2544.31,220.242 2558.14,220.236 2571.98,220.23 2585.82,220.224 2599.66,220.219 2613.5,220.213 2627.33,220.209 2641.17,220.204 2655.01,220.2 2668.85,220.197 2682.69,220.193 2696.52,220.191 2710.36,220.189 2724.2,220.187 2738.04,220.186 2751.87,220.185 2765.71,220.184 2779.55,220.184 2793.39,220.185 2807.23,220.185 2821.06,220.186 2834.9,220.187 2848.74,220.189 2862.58,220.19 2876.41,220.192 2890.25,220.193 2904.09,220.194 2917.93,220.195 2931.77,220.196 2945.6,220.196 2959.44,220.196 2973.28,220.195 2987.12,220.194 3000.96,220.193 3014.79,220.192 3028.63,220.19 3042.47,220.189 3056.31,220.189 3070.14,220.188 "/>
<path clip-path="url(#clip032)" d="M316.418 2128.65 L330.256 2107.53 L344.094 2085.27 L357.932 2061.85 L371.769 2037.23 L385.607 2011.41 L399.445 1984.37 L413.283 1956.1 L427.121 1926.79 L440.958 1896.31 L454.796 1864.62 L468.634 1831.34 L482.472 1796.85 L496.31 1761.17 L510.148 1724.72 L523.985 1687.28 L537.823 1648.92 L551.661 1609.71 L565.499 1569.74 L579.337 1529.1 L593.174 1487.9 L607.012 1446.24 L620.85 1404.59 L634.688 1362.45 L648.526 1320.31 L662.364 1278.13 L676.201 1237.07 L690.039 1195.2 L703.877 1153.53 L717.715 1113.06 L731.553 1073.07 L745.39 1034.05 L759.228 995.53 L773.066 957.991 L786.904 921.692 L800.742 886.161 L814.58 851.823 L828.417 818.393 L842.255 786.013 L856.093 755.032 L869.931 724.502 L883.769 695.625 L897.606 668.321 L911.444 642.531 L925.282 617.523 L939.12 594.05 L952.958 571.46 L966.796 549.956 L980.633 529.795 L994.471 510.341 L1008.31 492.155 L1022.15 474.517 L1035.98 459.019 L1049.82 444.61 L1063.66 430.388 L1077.5 417.647 L1091.34 405.09 L1105.17 393.399 L1119.01 383.044 L1132.85 373.589 L1146.69 364.4 L1160.53 355.291 L1174.36 347.702 L1188.2 340.18 L1202.04 333.51 L1215.88 326.973 L1229.71 320.87 L1243.55 315.127 L1257.39 310.535 L1271.23 305.735 L1285.07 301.545 L1298.9 298.075 L1312.74 294.732 L1326.58 291.588 L1340.42 288.279 L1354.25 285.353 L1368.09 282.464 L1381.93 279.903 L1395.77 276.984 L1409.61 274.676 L1423.44 272.278 L1437.28 270.224 L1451.12 268.652 L1464.96 267.248 L1478.79 265.886 L1492.63 264.362 L1506.47 263.009 L1520.31 261.854 L1534.15 260.783 L1547.98 259.775 L1561.82 258.766 L1575.66 257.814 L1589.5 256.876 L1603.34 256.174 L1617.17 255.537 L1631.01 254.939 L1644.85 254.371 L1658.69 253.779 L1672.52 253.2 L1686.36 252.663 L1700.2 252.155 L1714.04 251.732 L1727.88 251.29 L1741.71 250.825 L1755.55 250.436 L1769.39 250.096 L1783.23 249.781 L1797.06 249.49 L1810.9 249.219 L1824.74 248.967 L1838.58 248.731 L1852.42 248.511 L1866.25 248.303 L1880.09 248.102 L1893.93 247.915 L1907.77 247.74 L1921.61 247.578 L1935.44 247.428 L1949.28 247.288 L1963.12 247.159 L1976.96 247.041 L1990.79 246.933 L2004.63 246.835 L2018.47 246.746 L2032.31 246.665 L2046.15 246.592 L2059.98 246.525 L2073.82 246.465 L2087.66 246.409 L2101.5 246.358 L2115.33 246.31 L2129.17 246.264 L2143.01 246.221 L2156.85 246.179 L2170.69 246.137 L2184.52 246.096 L2198.36 246.058 L2212.2 246.022 L2226.04 245.989 L2239.87 245.958 L2253.71 245.929 L2267.55 245.902 L2281.39 245.878 L2295.23 245.855 L2309.06 245.835 L2322.9 245.817 L2336.74 245.8 L2350.58 245.785 L2364.42 245.772 L2378.25 245.76 L2392.09 245.749 L2405.93 245.74 L2419.77 245.731 L2433.6 245.723 L2447.44 245.715 L2461.28 245.708 L2475.12 245.701 L2488.96 245.695 L2502.79 245.688 L2516.63 245.681 L2530.47 245.674 L2544.31 245.667 L2558.14 245.66 L2571.98 245.653 L2585.82 245.646 L2599.66 245.64 L2613.5 245.635 L2627.33 245.629 L2641.17 245.624 L2655.01 245.62 L2668.85 245.616 L2682.69 245.613 L2696.52 245.61 L2710.36 245.607 L2724.2 245.605 L2738.04 245.603 L2751.87 245.602 L2765.71 245.602 L2779.55 245.601 L2793.39 245.601 L2807.23 245.602 L2821.06 245.602 L2834.9 245.603 L2848.74 245.604 L2862.58 245.605 L2876.41 245.606 L2890.25 245.607 L2904.09 245.608 L2917.93 245.609 L2931.77 245.609 L2945.6 245.61 L2959.44 245.61 L2973.28 245.609 L2987.12 245.608 L3000.96 245.607 L3014.79 245.606 L3028.63 245.605 L3042.47 245.604 L3056.31 245.603 L3070.14 245.602 L3070.14 194.221 L3056.31 194.222 L3042.47 194.223 L3028.63 194.224 L3014.79 194.225 L3000.96 194.226 L2987.12 194.227 L2973.28 194.228 L2959.44 194.229 L2945.6 194.229 L2931.77 194.229 L2917.93 194.228 L2904.09 194.227 L2890.25 194.227 L2876.41 194.226 L2862.58 194.225 L2848.74 194.224 L2834.9 194.223 L2821.06 194.222 L2807.23 194.221 L2793.39 194.221 L2779.55 194.221 L2765.71 194.221 L2751.87 194.221 L2738.04 194.222 L2724.2 194.223 L2710.36 194.225 L2696.52 194.227 L2682.69 194.23 L2668.85 194.233 L2655.01 194.236 L2641.17 194.24 L2627.33 194.245 L2613.5 194.25 L2599.66 194.255 L2585.82 194.261 L2571.98 194.267 L2558.14 194.274 L2544.31 194.28 L2530.47 194.287 L2516.63 194.294 L2502.79 194.301 L2488.96 194.308 L2475.12 194.315 L2461.28 194.321 L2447.44 194.328 L2433.6 194.335 L2419.77 194.343 L2405.93 194.351 L2392.09 194.36 L2378.25 194.37 L2364.42 194.381 L2350.58 194.393 L2336.74 194.407 L2322.9 194.422 L2309.06 194.439 L2295.23 194.458 L2281.39 194.479 L2267.55 194.501 L2253.71 194.526 L2239.87 194.554 L2226.04 194.583 L2212.2 194.615 L2198.36 194.649 L2184.52 194.685 L2170.69 194.724 L2156.85 194.764 L2143.01 194.806 L2129.17 194.848 L2115.33 194.892 L2101.5 194.937 L2087.66 194.987 L2073.82 195.039 L2059.98 195.097 L2046.15 195.159 L2032.31 195.228 L2018.47 195.304 L2004.63 195.387 L1990.79 195.479 L1976.96 195.58 L1963.12 195.691 L1949.28 195.812 L1935.44 195.945 L1921.61 196.088 L1907.77 196.244 L1893.93 196.412 L1880.09 196.593 L1866.25 196.786 L1852.42 196.993 L1838.58 197.214 L1824.74 197.449 L1810.9 197.701 L1797.06 197.972 L1783.23 198.271 L1769.39 198.606 L1755.55 198.966 L1741.71 199.353 L1727.88 199.771 L1714.04 200.223 L1700.2 200.711 L1686.36 201.239 L1672.52 201.809 L1658.69 202.426 L1644.85 203.092 L1631.01 203.812 L1617.17 204.547 L1603.34 205.173 L1589.5 205.841 L1575.66 206.556 L1561.82 207.446 L1547.98 208.406 L1534.15 209.483 L1520.31 210.679 L1506.47 212.026 L1492.63 213.453 L1478.79 215.019 L1464.96 216.993 L1451.12 218.989 L1437.28 220.909 L1423.44 222.986 L1409.61 225.23 L1395.77 227.711 L1381.93 230.243 L1368.09 233.528 L1354.25 236.298 L1340.42 239.55 L1326.58 242.645 L1312.74 245.926 L1298.9 249.768 L1285.07 253.67 L1271.23 257.418 L1257.39 262.162 L1243.55 267.257 L1229.71 272.309 L1215.88 277.76 L1202.04 283.925 L1188.2 290.597 L1174.36 297.013 L1160.53 304.779 L1146.69 312.508 L1132.85 320.317 L1119.01 328.9 L1105.17 339.058 L1091.34 349.003 L1077.5 359.031 L1063.66 369.786 L1049.82 381.409 L1035.98 394.683 L1022.15 408.235 L1008.31 423.467 L994.471 439.186 L980.633 454.929 L966.796 470.661 L952.958 489.157 L939.12 508.242 L925.282 526.618 L911.444 546.957 L897.606 568.327 L883.769 591.196 L869.931 613.918 L856.093 638.459 L842.255 664.83 L828.417 692.47 L814.58 721.106 L800.742 751.02 L786.904 781.968 L773.066 813.442 L759.228 846.58 L745.39 880.946 L731.553 916.552 L717.715 953.505 L703.877 990.937 L690.039 1028.92 L676.201 1067.67 L662.364 1107.23 L648.526 1147.54 L634.688 1188.37 L620.85 1229.6 L607.012 1271.14 L593.174 1312.86 L579.337 1354.67 L565.499 1396.44 L551.661 1438.05 L537.823 1479.37 L523.985 1520.28 L510.148 1560.46 L496.31 1599.73 L482.472 1638.43 L468.634 1676.83 L454.796 1714.48 L440.958 1751.18 L427.121 1786.85 L413.283 1821.43 L399.445 1854.87 L385.607 1887.12 L371.769 1918.21 L357.932 1948.04 L344.094 1976.65 L330.256 2004.04 L316.418 2030.21  Z" fill="#e26f46" fill-rule="evenodd" fill-opacity="0.2"/>
<polyline clip-path="url(#clip032)" style="stroke:#e26f46; stroke-linecap:round; stroke-linejoin:round; stroke-width:12; stroke-opacity:1; fill:none" points="316.418,2083.34 330.256,2059.96 344.094,2035.4 357.932,2009.64 371.769,1982.68 385.607,1954.52 399.445,1925.14 413.283,1894.46 427.121,1862.56 440.958,1829.5 454.796,1795.29 468.634,1759.77 482.472,1723.23 496.31,1685.92 510.148,1647.69 523.985,1608.62 537.823,1568.78 551.661,1528.28 565.499,1487.22 579.337,1445.63 593.174,1403.42 607.012,1361.34 620.85,1319.26 634.688,1277.21 648.526,1235.31 662.364,1193.68 676.201,1152.27 690.039,1110.96 703.877,1070.23 717.715,1030.45 731.553,991.714 745.39,953.86 759.228,917.522 773.066,882.365 786.904,848.365 800.742,815.307 814.58,782.805 828.417,751.538 842.255,721.568 856.093,693.604 869.931,665.75 883.769,638.626 897.606,613.586 911.444,590.363 925.282,567.774 939.12,545.692 952.958,524.992 966.796,505.536 980.633,486.604 994.471,469.719 1008.31,453.285 1022.15,438.667 1035.98,423.46 1049.82,409.662 1063.66,397.376 1077.5,385.489 1091.34,374.25 1105.17,364.204 1119.01,354.008 1132.85,344.51 1146.69,336.616 1160.53,328.201 1174.36,320.432 1188.2,313.252 1202.04,306.823 1215.88,300.237 1229.71,294.755 1243.55,289.481 1257.39,284.994 1271.23,280.672 1285.07,276.745 1298.9,272.73 1312.74,269.086 1326.58,265.694 1340.42,262.368 1354.25,258.97 1368.09,256.427 1381.93,253.936 1395.77,251.9 1409.61,249.694 1423.44,247.442 1437.28,245.637 1451.12,243.978 1464.96,242.058 1478.79,240.294 1492.63,238.941 1506.47,237.482 1520.31,236.016 1534.15,234.742 1547.98,233.676 1561.82,232.616 1575.66,231.52 1589.5,230.497 1603.34,229.54 1617.17,228.654 1631.01,227.976 1644.85,227.401 1658.69,226.91 1672.52,226.454 1686.36,226.029 1700.2,225.636 1714.04,225.271 1727.88,224.927 1741.71,224.553 1755.55,224.207 1769.39,223.887 1783.23,223.591 1797.06,223.317 1810.9,223.062 1824.74,222.825 1838.58,222.638 1852.42,222.468 1866.25,222.309 1880.09,222.161 1893.93,222.023 1907.77,221.894 1921.61,221.773 1935.44,221.66 1949.28,221.556 1963.12,221.46 1976.96,221.371 1990.79,221.29 2004.63,221.216 2018.47,221.148 2032.31,221.087 2046.15,221.03 2059.98,220.979 2073.82,220.929 2087.66,220.882 2101.5,220.839 2115.33,220.798 2129.17,220.758 2143.01,220.719 2156.85,220.68 2170.69,220.643 2184.52,220.607 2198.36,220.574 2212.2,220.543 2226.04,220.514 2239.87,220.487 2253.71,220.462 2267.55,220.439 2281.39,220.418 2295.23,220.399 2309.06,220.382 2322.9,220.367 2336.74,220.353 2350.58,220.341 2364.42,220.33 2378.25,220.32 2392.09,220.312 2405.93,220.304 2419.77,220.297 2433.6,220.291 2447.44,220.286 2461.28,220.28 2475.12,220.274 2488.96,220.268 2502.79,220.262 2516.63,220.255 2530.47,220.249 2544.31,220.242 2558.14,220.236 2571.98,220.23 2585.82,220.224 2599.66,220.219 2613.5,220.213 2627.33,220.209 2641.17,220.204 2655.01,220.2 2668.85,220.197 2682.69,220.193 2696.52,220.191 2710.36,220.189 2724.2,220.187 2738.04,220.186 2751.87,220.185 2765.71,220.184 2779.55,220.184 2793.39,220.185 2807.23,220.185 2821.06,220.186 2834.9,220.187 2848.74,220.189 2862.58,220.19 2876.41,220.192 2890.25,220.193 2904.09,220.194 2917.93,220.195 2931.77,220.196 2945.6,220.196 2959.44,220.196 2973.28,220.195 2987.12,220.194 3000.96,220.193 3014.79,220.192 3028.63,220.19 3042.47,220.189 3056.31,220.189 3070.14,220.188 "/>
<path clip-path="url(#clip030)" d="M2663.79 2135.47 L3055.46 2135.47 L3055.46 1979.95 L2663.79 1979.95  Z" fill="#eaeaea" fill-rule="evenodd" fill-opacity="1"/>
<polyline clip-path="url(#clip030)" style="stroke:#ffffff; stroke-linecap:round; stroke-linejoin:round; stroke-width:4; stroke-opacity:1; fill:none" points="2663.79,2135.47 3055.46,2135.47 3055.46,1979.95 2663.79,1979.95 2663.79,2135.47 "/>
<polyline clip-path="url(#clip030)" style="stroke:#009af9; stroke-linecap:round; stroke-linejoin:round; stroke-width:12; stroke-opacity:1; fill:none" points="2696.23,2031.79 2890.82,2031.79 "/>
<path clip-path="url(#clip030)" d="M2925.48 2048.35 L2925.48 2044.09 Q2927.24 2044.92 2929.04 2045.36 Q2930.85 2045.8 2932.59 2045.8 Q2937.22 2045.8 2939.65 2042.7 Q2942.1 2039.58 2942.45 2033.23 Q2941.1 2035.22 2939.04 2036.29 Q2936.98 2037.35 2934.48 2037.35 Q2929.3 2037.35 2926.27 2034.23 Q2923.26 2031.08 2923.26 2025.64 Q2923.26 2020.32 2926.4 2017.1 Q2929.55 2013.88 2934.78 2013.88 Q2940.78 2013.88 2943.93 2018.49 Q2947.1 2023.07 2947.1 2031.82 Q2947.1 2039.99 2943.21 2044.88 Q2939.34 2049.74 2932.79 2049.74 Q2931.03 2049.74 2929.23 2049.39 Q2927.42 2049.04 2925.48 2048.35 M2934.78 2033.7 Q2937.93 2033.7 2939.76 2031.54 Q2941.61 2029.39 2941.61 2025.64 Q2941.61 2021.91 2939.76 2019.76 Q2937.93 2017.58 2934.78 2017.58 Q2931.64 2017.58 2929.78 2019.76 Q2927.96 2021.91 2927.96 2025.64 Q2927.96 2029.39 2929.78 2031.54 Q2931.64 2033.7 2934.78 2033.7 Z" fill="#000000" fill-rule="nonzero" fill-opacity="1" /><path clip-path="url(#clip030)" d="M2955.55 2014.51 L2973.9 2014.51 L2973.9 2018.44 L2959.83 2018.44 L2959.83 2026.91 Q2960.85 2026.57 2961.87 2026.4 Q2962.89 2026.22 2963.9 2026.22 Q2969.69 2026.22 2973.07 2029.39 Q2976.45 2032.56 2976.45 2037.98 Q2976.45 2043.56 2972.98 2046.66 Q2969.51 2049.74 2963.19 2049.74 Q2961.01 2049.74 2958.74 2049.37 Q2956.5 2049 2954.09 2048.26 L2954.09 2043.56 Q2956.17 2044.69 2958.4 2045.25 Q2960.62 2045.8 2963.09 2045.8 Q2967.1 2045.8 2969.44 2043.7 Q2971.78 2041.59 2971.78 2037.98 Q2971.78 2034.37 2969.44 2032.26 Q2967.1 2030.15 2963.09 2030.15 Q2961.22 2030.15 2959.34 2030.57 Q2957.49 2030.99 2955.55 2031.87 L2955.55 2014.51 Z" fill="#000000" fill-rule="nonzero" fill-opacity="1" /><path clip-path="url(#clip030)" d="M3015.06 2033.86 Q3013.05 2033.86 3011.89 2035.57 Q3010.76 2037.28 3010.76 2040.34 Q3010.76 2043.35 3011.89 2045.08 Q3013.05 2046.8 3015.06 2046.8 Q3017.03 2046.8 3018.16 2045.08 Q3019.32 2043.35 3019.32 2040.34 Q3019.32 2037.31 3018.16 2035.59 Q3017.03 2033.86 3015.06 2033.86 M3015.06 2030.92 Q3018.72 2030.92 3020.87 2033.46 Q3023.02 2036.01 3023.02 2040.34 Q3023.02 2044.67 3020.85 2047.21 Q3018.7 2049.74 3015.06 2049.74 Q3011.36 2049.74 3009.21 2047.21 Q3007.05 2044.67 3007.05 2040.34 Q3007.05 2035.99 3009.21 2033.46 Q3011.38 2030.92 3015.06 2030.92 M2991.17 2016.82 Q2989.18 2016.82 2988.02 2018.56 Q2986.89 2020.27 2986.89 2023.28 Q2986.89 2026.33 2988.02 2028.05 Q2989.16 2029.76 2991.17 2029.76 Q2993.19 2029.76 2994.32 2028.05 Q2995.48 2026.33 2995.48 2023.28 Q2995.48 2020.29 2994.32 2018.56 Q2993.16 2016.82 2991.17 2016.82 M3012.08 2013.88 L3015.78 2013.88 L2994.16 2049.74 L2990.46 2049.74 L3012.08 2013.88 M2991.17 2013.88 Q2994.83 2013.88 2997.01 2016.43 Q2999.18 2018.95 2999.18 2023.28 Q2999.18 2027.65 2997.01 2030.18 Q2994.85 2032.7 2991.17 2032.7 Q2987.49 2032.7 2985.34 2030.18 Q2983.21 2027.63 2983.21 2023.28 Q2983.21 2018.97 2985.36 2016.43 Q2987.52 2013.88 2991.17 2013.88 Z" fill="#000000" fill-rule="nonzero" fill-opacity="1" /><polyline clip-path="url(#clip030)" style="stroke:#e26f46; stroke-linecap:round; stroke-linejoin:round; stroke-width:12; stroke-opacity:1; fill:none" points="2696.23,2083.63 2890.82,2083.63 "/>
<path clip-path="url(#clip030)" d="M2935.59 2081.76 Q2932.45 2081.76 2930.59 2083.92 Q2928.77 2086.07 2928.77 2089.82 Q2928.77 2093.55 2930.59 2095.72 Q2932.45 2097.87 2935.59 2097.87 Q2938.74 2097.87 2940.57 2095.72 Q2942.42 2093.55 2942.42 2089.82 Q2942.42 2086.07 2940.57 2083.92 Q2938.74 2081.76 2935.59 2081.76 M2944.88 2067.11 L2944.88 2071.37 Q2943.12 2070.54 2941.31 2070.1 Q2939.53 2069.66 2937.77 2069.66 Q2933.14 2069.66 2930.69 2072.78 Q2928.26 2075.91 2927.91 2082.23 Q2929.28 2080.21 2931.34 2079.15 Q2933.4 2078.06 2935.87 2078.06 Q2941.08 2078.06 2944.09 2081.23 Q2947.12 2084.38 2947.12 2089.82 Q2947.12 2095.14 2943.97 2098.36 Q2940.83 2101.58 2935.59 2101.58 Q2929.6 2101.58 2926.43 2096.99 Q2923.26 2092.39 2923.26 2083.66 Q2923.26 2075.47 2927.15 2070.61 Q2931.03 2065.72 2937.59 2065.72 Q2939.34 2065.72 2941.13 2066.07 Q2942.93 2066.42 2944.88 2067.11 Z" fill="#000000" fill-rule="nonzero" fill-opacity="1" /><path clip-path="url(#clip030)" d="M2965.18 2084.49 Q2961.84 2084.49 2959.92 2086.28 Q2958.03 2088.06 2958.03 2091.18 Q2958.03 2094.31 2959.92 2096.09 Q2961.84 2097.87 2965.18 2097.87 Q2968.51 2097.87 2970.43 2096.09 Q2972.35 2094.29 2972.35 2091.18 Q2972.35 2088.06 2970.43 2086.28 Q2968.53 2084.49 2965.18 2084.49 M2960.5 2082.5 Q2957.49 2081.76 2955.8 2079.7 Q2954.14 2077.64 2954.14 2074.68 Q2954.14 2070.54 2957.08 2068.13 Q2960.04 2065.72 2965.18 2065.72 Q2970.34 2065.72 2973.28 2068.13 Q2976.22 2070.54 2976.22 2074.68 Q2976.22 2077.64 2974.53 2079.7 Q2972.86 2081.76 2969.88 2082.5 Q2973.26 2083.29 2975.13 2085.58 Q2977.03 2087.87 2977.03 2091.18 Q2977.03 2096.21 2973.95 2098.89 Q2970.9 2101.58 2965.18 2101.58 Q2959.46 2101.58 2956.38 2098.89 Q2953.33 2096.21 2953.33 2091.18 Q2953.33 2087.87 2955.22 2085.58 Q2957.12 2083.29 2960.5 2082.5 M2958.79 2075.12 Q2958.79 2077.8 2960.46 2079.31 Q2962.15 2080.81 2965.18 2080.81 Q2968.19 2080.81 2969.88 2079.31 Q2971.59 2077.8 2971.59 2075.12 Q2971.59 2072.43 2969.88 2070.93 Q2968.19 2069.42 2965.18 2069.42 Q2962.15 2069.42 2960.46 2070.93 Q2958.79 2072.43 2958.79 2075.12 Z" fill="#000000" fill-rule="nonzero" fill-opacity="1" /><path clip-path="url(#clip030)" d="M3014.74 2085.7 Q3012.72 2085.7 3011.57 2087.41 Q3010.43 2089.12 3010.43 2092.18 Q3010.43 2095.19 3011.57 2096.92 Q3012.72 2098.64 3014.74 2098.64 Q3016.71 2098.64 3017.84 2096.92 Q3019 2095.19 3019 2092.18 Q3019 2089.15 3017.84 2087.43 Q3016.71 2085.7 3014.74 2085.7 M3014.74 2082.76 Q3018.4 2082.76 3020.55 2085.3 Q3022.7 2087.85 3022.7 2092.18 Q3022.7 2096.51 3020.52 2099.05 Q3018.37 2101.58 3014.74 2101.58 Q3011.03 2101.58 3008.88 2099.05 Q3006.73 2096.51 3006.73 2092.18 Q3006.73 2087.83 3008.88 2085.3 Q3011.06 2082.76 3014.74 2082.76 M2990.85 2068.66 Q2988.86 2068.66 2987.7 2070.4 Q2986.57 2072.11 2986.57 2075.12 Q2986.57 2078.17 2987.7 2079.89 Q2988.84 2081.6 2990.85 2081.6 Q2992.86 2081.6 2994 2079.89 Q2995.15 2078.17 2995.15 2075.12 Q2995.15 2072.13 2994 2070.4 Q2992.84 2068.66 2990.85 2068.66 M3011.75 2065.72 L3015.46 2065.72 L2993.84 2101.58 L2990.13 2101.58 L3011.75 2065.72 M2990.85 2065.72 Q2994.51 2065.72 2996.68 2068.27 Q2998.86 2070.79 2998.86 2075.12 Q2998.86 2079.49 2996.68 2082.02 Q2994.53 2084.54 2990.85 2084.54 Q2987.17 2084.54 2985.02 2082.02 Q2982.89 2079.47 2982.89 2075.12 Q2982.89 2070.81 2985.04 2068.27 Q2987.19 2065.72 2990.85 2065.72 Z" fill="#000000" fill-rule="nonzero" fill-opacity="1" /></svg>
