<?xml version="1.0" encoding="utf-8"?>
<svg xmlns="http://www.w3.org/2000/svg" xmlns:xlink="http://www.w3.org/1999/xlink" width="800" height="600" viewBox="0 0 3200 2400">
<defs>
  <clipPath id="clip180">
    <rect x="0" y="0" width="3200" height="2400"/>
  </clipPath>
</defs>
<path clip-path="url(#clip180)" d="M0 2400 L3200 2400 L3200 0 L0 0  Z" fill="#ffffff" fill-rule="evenodd" fill-opacity="1"/>
<defs>
  <clipPath id="clip181">
    <rect x="640" y="0" width="2241" height="2241"/>
  </clipPath>
</defs>
<path clip-path="url(#clip180)" d="M233.806 2204.92 L3152.76 2204.92 L3152.76 121.312 L233.806 121.312  Z" fill="#eaeaea" fill-rule="evenodd" fill-opacity="1"/>
<defs>
  <clipPath id="clip182">
    <rect x="233" y="121" width="2920" height="2085"/>
  </clipPath>
</defs>
<polyline clip-path="url(#clip182)" style="stroke:#ffffff; stroke-linecap:round; stroke-linejoin:round; stroke-width:4; stroke-opacity:1; fill:none" points="316.418,2204.92 316.418,121.312 "/>
<polyline clip-path="url(#clip182)" style="stroke:#ffffff; stroke-linecap:round; stroke-linejoin:round; stroke-width:4; stroke-opacity:1; fill:none" points="867.163,2204.92 867.163,121.312 "/>
<polyline clip-path="url(#clip182)" style="stroke:#ffffff; stroke-linecap:round; stroke-linejoin:round; stroke-width:4; stroke-opacity:1; fill:none" points="1417.91,2204.92 1417.91,121.312 "/>
<polyline clip-path="url(#clip182)" style="stroke:#ffffff; stroke-linecap:round; stroke-linejoin:round; stroke-width:4; stroke-opacity:1; fill:none" points="1968.65,2204.92 1968.65,121.312 "/>
<polyline clip-path="url(#clip182)" style="stroke:#ffffff; stroke-linecap:round; stroke-linejoin:round; stroke-width:4; stroke-opacity:1; fill:none" points="2519.4,2204.92 2519.4,121.312 "/>
<polyline clip-path="url(#clip182)" style="stroke:#ffffff; stroke-linecap:round; stroke-linejoin:round; stroke-width:4; stroke-opacity:1; fill:none" points="3070.14,2204.92 3070.14,121.312 "/>
<polyline clip-path="url(#clip182)" style="stroke:#ffffff; stroke-linecap:round; stroke-linejoin:round; stroke-width:2; stroke-opacity:1; fill:none" points="591.791,2204.92 591.791,121.312 "/>
<polyline clip-path="url(#clip182)" style="stroke:#ffffff; stroke-linecap:round; stroke-linejoin:round; stroke-width:2; stroke-opacity:1; fill:none" points="1142.54,2204.92 1142.54,121.312 "/>
<polyline clip-path="url(#clip182)" style="stroke:#ffffff; stroke-linecap:round; stroke-linejoin:round; stroke-width:2; stroke-opacity:1; fill:none" points="1693.28,2204.92 1693.28,121.312 "/>
<polyline clip-path="url(#clip182)" style="stroke:#ffffff; stroke-linecap:round; stroke-linejoin:round; stroke-width:2; stroke-opacity:1; fill:none" points="2244.03,2204.92 2244.03,121.312 "/>
<polyline clip-path="url(#clip182)" style="stroke:#ffffff; stroke-linecap:round; stroke-linejoin:round; stroke-width:2; stroke-opacity:1; fill:none" points="2794.77,2204.92 2794.77,121.312 "/>
<polyline clip-path="url(#clip180)" style="stroke:#ffffff; stroke-linecap:round; stroke-linejoin:round; stroke-width:4; stroke-opacity:1; fill:none" points="233.806,2204.92 3152.76,2204.92 "/>
<polyline clip-path="url(#clip180)" style="stroke:#333333; stroke-linecap:round; stroke-linejoin:round; stroke-width:4; stroke-opacity:1; fill:none" points="316.418,2204.92 316.418,2223.82 "/>
<polyline clip-path="url(#clip180)" style="stroke:#333333; stroke-linecap:round; stroke-linejoin:round; stroke-width:4; stroke-opacity:1; fill:none" points="867.163,2204.92 867.163,2223.82 "/>
<polyline clip-path="url(#clip180)" style="stroke:#333333; stroke-linecap:round; stroke-linejoin:round; stroke-width:4; stroke-opacity:1; fill:none" points="1417.91,2204.92 1417.91,2223.82 "/>
<polyline clip-path="url(#clip180)" style="stroke:#333333; stroke-linecap:round; stroke-linejoin:round; stroke-width:4; stroke-opacity:1; fill:none" points="1968.65,2204.92 1968.65,2223.82 "/>
<polyline clip-path="url(#clip180)" style="stroke:#333333; stroke-linecap:round; stroke-linejoin:round; stroke-width:4; stroke-opacity:1; fill:none" points="2519.4,2204.92 2519.4,2223.82 "/>
<polyline clip-path="url(#clip180)" style="stroke:#333333; stroke-linecap:round; stroke-linejoin:round; stroke-width:4; stroke-opacity:1; fill:none" points="3070.14,2204.92 3070.14,2223.82 "/>
<polyline clip-path="url(#clip180)" style="stroke:#333333; stroke-linecap:round; stroke-linejoin:round; stroke-width:4; stroke-opacity:1; fill:none" points="591.791,2204.92 591.791,2214.37 "/>
<polyline clip-path="url(#clip180)" style="stroke:#333333; stroke-linecap:round; stroke-linejoin:round; stroke-width:4; stroke-opacity:1; fill:none" points="1142.54,2204.92 1142.54,2214.37 "/>
<polyline clip-path="url(#clip180)" style="stroke:#333333; stroke-linecap:round; stroke-linejoin:round; stroke-width:4; stroke-opacity:1; fill:none" points="1693.28,2204.92 1693.28,2214.37 "/>
<polyline clip-path="url(#clip180)" style="stroke:#333333; stroke-linecap:round; stroke-linejoin:round; stroke-width:4; stroke-opacity:1; fill:none" points="2244.03,2204.92 2244.03,2214.37 "/>
<polyline clip-path="url(#clip180)" style="stroke:#333333; stroke-linecap:round; stroke-linejoin:round; stroke-width:4; stroke-opacity:1; fill:none" points="2794.77,2204.92 2794.77,2214.37 "/>
<path clip-path="url(#clip180)" d="M316.418 2255.04 Q312.807 2255.04 310.978 2258.6 Q309.173 2262.14 309.173 2269.27 Q309.173 2276.38 310.978 2279.95 Q312.807 2283.49 316.418 2283.49 Q320.052 2283.49 321.858 2279.95 Q323.687 2276.38 323.687 2269.27 Q323.687 2262.14 321.858 2258.6 Q320.052 2255.04 316.418 2255.04 M316.418 2251.33 Q322.228 2251.33 325.284 2255.94 Q328.362 2260.52 328.362 2269.27 Q328.362 2278 325.284 2282.61 Q322.228 2287.19 316.418 2287.19 Q310.608 2287.19 307.529 2282.61 Q304.474 2278 304.474 2269.27 Q304.474 2260.52 307.529 2255.94 Q310.608 2251.33 316.418 2251.33 Z" fill="#4c4c4c" fill-rule="nonzero" fill-opacity="1" /><path clip-path="url(#clip180)" d="M857.545 2282.58 L865.184 2282.58 L865.184 2256.22 L856.874 2257.89 L856.874 2253.63 L865.138 2251.96 L869.814 2251.96 L869.814 2282.58 L877.453 2282.58 L877.453 2286.52 L857.545 2286.52 L857.545 2282.58 Z" fill="#4c4c4c" fill-rule="nonzero" fill-opacity="1" /><path clip-path="url(#clip180)" d="M1412.56 2282.58 L1428.88 2282.58 L1428.88 2286.52 L1406.94 2286.52 L1406.94 2282.58 Q1409.6 2279.83 1414.18 2275.2 Q1418.79 2270.55 1419.97 2269.21 Q1422.21 2266.68 1423.09 2264.95 Q1424 2263.19 1424 2261.5 Q1424 2258.74 1422.05 2257.01 Q1420.13 2255.27 1417.03 2255.27 Q1414.83 2255.27 1412.38 2256.03 Q1409.95 2256.8 1407.17 2258.35 L1407.17 2253.63 Q1409.99 2252.49 1412.45 2251.91 Q1414.9 2251.33 1416.94 2251.33 Q1422.31 2251.33 1425.5 2254.02 Q1428.7 2256.71 1428.7 2261.2 Q1428.7 2263.33 1427.89 2265.25 Q1427.1 2267.14 1424.99 2269.74 Q1424.41 2270.41 1421.31 2273.63 Q1418.21 2276.82 1412.56 2282.58 Z" fill="#4c4c4c" fill-rule="nonzero" fill-opacity="1" /><path clip-path="url(#clip180)" d="M1972.9 2267.89 Q1976.26 2268.6 1978.13 2270.87 Q1980.03 2273.14 1980.03 2276.47 Q1980.03 2281.59 1976.51 2284.39 Q1972.99 2287.19 1966.51 2287.19 Q1964.34 2287.19 1962.02 2286.75 Q1959.73 2286.33 1957.28 2285.48 L1957.28 2280.96 Q1959.22 2282.1 1961.54 2282.68 Q1963.85 2283.26 1966.37 2283.26 Q1970.77 2283.26 1973.06 2281.52 Q1975.38 2279.78 1975.38 2276.47 Q1975.38 2273.42 1973.23 2271.71 Q1971.1 2269.97 1967.28 2269.97 L1963.25 2269.97 L1963.25 2266.13 L1967.46 2266.13 Q1970.91 2266.13 1972.74 2264.76 Q1974.57 2263.37 1974.57 2260.78 Q1974.57 2258.12 1972.67 2256.71 Q1970.79 2255.27 1967.28 2255.27 Q1965.36 2255.27 1963.16 2255.69 Q1960.96 2256.1 1958.32 2256.98 L1958.32 2252.82 Q1960.98 2252.08 1963.29 2251.71 Q1965.63 2251.33 1967.69 2251.33 Q1973.02 2251.33 1976.12 2253.77 Q1979.22 2256.17 1979.22 2260.29 Q1979.22 2263.16 1977.58 2265.15 Q1975.93 2267.12 1972.9 2267.89 Z" fill="#4c4c4c" fill-rule="nonzero" fill-opacity="1" /><path clip-path="url(#clip180)" d="M2522.41 2256.03 L2510.6 2274.48 L2522.41 2274.48 L2522.41 2256.03 M2521.18 2251.96 L2527.06 2251.96 L2527.06 2274.48 L2531.99 2274.48 L2531.99 2278.37 L2527.06 2278.37 L2527.06 2286.52 L2522.41 2286.52 L2522.41 2278.37 L2506.81 2278.37 L2506.81 2273.86 L2521.18 2251.96 Z" fill="#4c4c4c" fill-rule="nonzero" fill-opacity="1" /><path clip-path="url(#clip180)" d="M3060.42 2251.96 L3078.78 2251.96 L3078.78 2255.9 L3064.7 2255.9 L3064.7 2264.37 Q3065.72 2264.02 3066.74 2263.86 Q3067.76 2263.67 3068.78 2263.67 Q3074.57 2263.67 3077.95 2266.84 Q3081.32 2270.02 3081.32 2275.43 Q3081.32 2281.01 3077.85 2284.11 Q3074.38 2287.19 3068.06 2287.19 Q3065.88 2287.19 3063.62 2286.82 Q3061.37 2286.45 3058.96 2285.71 L3058.96 2281.01 Q3061.05 2282.14 3063.27 2282.7 Q3065.49 2283.26 3067.97 2283.26 Q3071.97 2283.26 3074.31 2281.15 Q3076.65 2279.04 3076.65 2275.43 Q3076.65 2271.82 3074.31 2269.71 Q3071.97 2267.61 3067.97 2267.61 Q3066.09 2267.61 3064.22 2268.02 Q3062.37 2268.44 3060.42 2269.32 L3060.42 2251.96 Z" fill="#4c4c4c" fill-rule="nonzero" fill-opacity="1" /><path clip-path="url(#clip180)" d="M1692.34 2316.01 L1692.34 2326.14 L1704.41 2326.14 L1704.41 2330.69 L1692.34 2330.69 L1692.34 2350.04 Q1692.34 2354.4 1693.52 2355.64 Q1694.73 2356.88 1698.39 2356.88 L1704.41 2356.88 L1704.41 2361.78 L1698.39 2361.78 Q1691.61 2361.78 1689.03 2359.27 Q1686.45 2356.72 1686.45 2350.04 L1686.45 2330.69 L1682.16 2330.69 L1682.16 2326.14 L1686.45 2326.14 L1686.45 2316.01 L1692.34 2316.01 Z" fill="#000000" fill-rule="nonzero" fill-opacity="1" /><polyline clip-path="url(#clip182)" style="stroke:#ffffff; stroke-linecap:round; stroke-linejoin:round; stroke-width:4; stroke-opacity:1; fill:none" points="233.806,2152.24 3152.76,2152.24 "/>
<polyline clip-path="url(#clip182)" style="stroke:#ffffff; stroke-linecap:round; stroke-linejoin:round; stroke-width:4; stroke-opacity:1; fill:none" points="233.806,1855.01 3152.76,1855.01 "/>
<polyline clip-path="url(#clip182)" style="stroke:#ffffff; stroke-linecap:round; stroke-linejoin:round; stroke-width:4; stroke-opacity:1; fill:none" points="233.806,1557.79 3152.76,1557.79 "/>
<polyline clip-path="url(#clip182)" style="stroke:#ffffff; stroke-linecap:round; stroke-linejoin:round; stroke-width:4; stroke-opacity:1; fill:none" points="233.806,1260.57 3152.76,1260.57 "/>
<polyline clip-path="url(#clip182)" style="stroke:#ffffff; stroke-linecap:round; stroke-linejoin:round; stroke-width:4; stroke-opacity:1; fill:none" points="233.806,963.345 3152.76,963.345 "/>
<polyline clip-path="url(#clip182)" style="stroke:#ffffff; stroke-linecap:round; stroke-linejoin:round; stroke-width:4; stroke-opacity:1; fill:none" points="233.806,666.122 3152.76,666.122 "/>
<polyline clip-path="url(#clip182)" style="stroke:#ffffff; stroke-linecap:round; stroke-linejoin:round; stroke-width:4; stroke-opacity:1; fill:none" points="233.806,368.899 3152.76,368.899 "/>
<polyline clip-path="url(#clip182)" style="stroke:#ffffff; stroke-linecap:round; stroke-linejoin:round; stroke-width:2; stroke-opacity:1; fill:none" points="233.806,2003.63 3152.76,2003.63 "/>
<polyline clip-path="url(#clip182)" style="stroke:#ffffff; stroke-linecap:round; stroke-linejoin:round; stroke-width:2; stroke-opacity:1; fill:none" points="233.806,1706.4 3152.76,1706.4 "/>
<polyline clip-path="url(#clip182)" style="stroke:#ffffff; stroke-linecap:round; stroke-linejoin:round; stroke-width:2; stroke-opacity:1; fill:none" points="233.806,1409.18 3152.76,1409.18 "/>
<polyline clip-path="url(#clip182)" style="stroke:#ffffff; stroke-linecap:round; stroke-linejoin:round; stroke-width:2; stroke-opacity:1; fill:none" points="233.806,1111.96 3152.76,1111.96 "/>
<polyline clip-path="url(#clip182)" style="stroke:#ffffff; stroke-linecap:round; stroke-linejoin:round; stroke-width:2; stroke-opacity:1; fill:none" points="233.806,814.733 3152.76,814.733 "/>
<polyline clip-path="url(#clip182)" style="stroke:#ffffff; stroke-linecap:round; stroke-linejoin:round; stroke-width:2; stroke-opacity:1; fill:none" points="233.806,517.51 3152.76,517.51 "/>
<polyline clip-path="url(#clip182)" style="stroke:#ffffff; stroke-linecap:round; stroke-linejoin:round; stroke-width:2; stroke-opacity:1; fill:none" points="233.806,220.287 3152.76,220.287 "/>
<polyline clip-path="url(#clip180)" style="stroke:#ffffff; stroke-linecap:round; stroke-linejoin:round; stroke-width:4; stroke-opacity:1; fill:none" points="233.806,2204.92 233.806,121.312 "/>
<polyline clip-path="url(#clip180)" style="stroke:#333333; stroke-linecap:round; stroke-linejoin:round; stroke-width:4; stroke-opacity:1; fill:none" points="233.806,2152.24 214.909,2152.24 "/>
<polyline clip-path="url(#clip180)" style="stroke:#333333; stroke-linecap:round; stroke-linejoin:round; stroke-width:4; stroke-opacity:1; fill:none" points="233.806,1855.01 214.909,1855.01 "/>
<polyline clip-path="url(#clip180)" style="stroke:#333333; stroke-linecap:round; stroke-linejoin:round; stroke-width:4; stroke-opacity:1; fill:none" points="233.806,1557.79 214.909,1557.79 "/>
<polyline clip-path="url(#clip180)" style="stroke:#333333; stroke-linecap:round; stroke-linejoin:round; stroke-width:4; stroke-opacity:1; fill:none" points="233.806,1260.57 214.909,1260.57 "/>
<polyline clip-path="url(#clip180)" style="stroke:#333333; stroke-linecap:round; stroke-linejoin:round; stroke-width:4; stroke-opacity:1; fill:none" points="233.806,963.345 214.909,963.345 "/>
<polyline clip-path="url(#clip180)" style="stroke:#333333; stroke-linecap:round; stroke-linejoin:round; stroke-width:4; stroke-opacity:1; fill:none" points="233.806,666.122 214.909,666.122 "/>
<polyline clip-path="url(#clip180)" style="stroke:#333333; stroke-linecap:round; stroke-linejoin:round; stroke-width:4; stroke-opacity:1; fill:none" points="233.806,368.899 214.909,368.899 "/>
<polyline clip-path="url(#clip180)" style="stroke:#333333; stroke-linecap:round; stroke-linejoin:round; stroke-width:4; stroke-opacity:1; fill:none" points="233.806,2003.63 224.357,2003.63 "/>
<polyline clip-path="url(#clip180)" style="stroke:#333333; stroke-linecap:round; stroke-linejoin:round; stroke-width:4; stroke-opacity:1; fill:none" points="233.806,1706.4 224.357,1706.4 "/>
<polyline clip-path="url(#clip180)" style="stroke:#333333; stroke-linecap:round; stroke-linejoin:round; stroke-width:4; stroke-opacity:1; fill:none" points="233.806,1409.18 224.357,1409.18 "/>
<polyline clip-path="url(#clip180)" style="stroke:#333333; stroke-linecap:round; stroke-linejoin:round; stroke-width:4; stroke-opacity:1; fill:none" points="233.806,1111.96 224.357,1111.96 "/>
<polyline clip-path="url(#clip180)" style="stroke:#333333; stroke-linecap:round; stroke-linejoin:round; stroke-width:4; stroke-opacity:1; fill:none" points="233.806,814.733 224.357,814.733 "/>
<polyline clip-path="url(#clip180)" style="stroke:#333333; stroke-linecap:round; stroke-linejoin:round; stroke-width:4; stroke-opacity:1; fill:none" points="233.806,517.51 224.357,517.51 "/>
<polyline clip-path="url(#clip180)" style="stroke:#333333; stroke-linecap:round; stroke-linejoin:round; stroke-width:4; stroke-opacity:1; fill:none" points="233.806,220.287 224.357,220.287 "/>
<path clip-path="url(#clip180)" d="M106.228 2138.04 Q102.617 2138.04 100.788 2141.6 Q98.9825 2145.14 98.9825 2152.27 Q98.9825 2159.38 100.788 2162.94 Q102.617 2166.49 106.228 2166.49 Q109.862 2166.49 111.668 2162.94 Q113.496 2159.38 113.496 2152.27 Q113.496 2145.14 111.668 2141.6 Q109.862 2138.04 106.228 2138.04 M106.228 2134.33 Q112.038 2134.33 115.094 2138.94 Q118.172 2143.52 118.172 2152.27 Q118.172 2161 115.094 2165.61 Q112.038 2170.19 106.228 2170.19 Q100.418 2170.19 97.339 2165.61 Q94.2835 2161 94.2835 2152.27 Q94.2835 2143.52 97.339 2138.94 Q100.418 2134.33 106.228 2134.33 Z" fill="#4c4c4c" fill-rule="nonzero" fill-opacity="1" /><path clip-path="url(#clip180)" d="M126.39 2163.64 L131.274 2163.64 L131.274 2169.52 L126.39 2169.52 L126.39 2163.64 Z" fill="#4c4c4c" fill-rule="nonzero" fill-opacity="1" /><path clip-path="url(#clip180)" d="M145.487 2165.58 L161.806 2165.58 L161.806 2169.52 L139.862 2169.52 L139.862 2165.58 Q142.524 2162.83 147.107 2158.2 Q151.714 2153.55 152.894 2152.2 Q155.14 2149.68 156.019 2147.94 Q156.922 2146.18 156.922 2144.49 Q156.922 2141.74 154.978 2140 Q153.056 2138.27 149.954 2138.27 Q147.755 2138.27 145.302 2139.03 Q142.871 2139.8 140.093 2141.35 L140.093 2136.62 Q142.917 2135.49 145.371 2134.91 Q147.825 2134.33 149.862 2134.33 Q155.232 2134.33 158.427 2137.02 Q161.621 2139.7 161.621 2144.19 Q161.621 2146.32 160.811 2148.24 Q160.024 2150.14 157.917 2152.74 Q157.339 2153.41 154.237 2156.62 Q151.135 2159.82 145.487 2165.58 Z" fill="#4c4c4c" fill-rule="nonzero" fill-opacity="1" /><path clip-path="url(#clip180)" d="M104.145 1840.81 Q100.533 1840.81 98.7048 1844.38 Q96.8992 1847.92 96.8992 1855.05 Q96.8992 1862.16 98.7048 1865.72 Q100.533 1869.26 104.145 1869.26 Q107.779 1869.26 109.584 1865.72 Q111.413 1862.16 111.413 1855.05 Q111.413 1847.92 109.584 1844.38 Q107.779 1840.81 104.145 1840.81 M104.145 1837.11 Q109.955 1837.11 113.01 1841.72 Q116.089 1846.3 116.089 1855.05 Q116.089 1863.78 113.01 1868.38 Q109.955 1872.97 104.145 1872.97 Q98.3344 1872.97 95.2557 1868.38 Q92.2002 1863.78 92.2002 1855.05 Q92.2002 1846.3 95.2557 1841.72 Q98.3344 1837.11 104.145 1837.11 Z" fill="#4c4c4c" fill-rule="nonzero" fill-opacity="1" /><path clip-path="url(#clip180)" d="M124.306 1866.41 L129.191 1866.41 L129.191 1872.29 L124.306 1872.29 L124.306 1866.41 Z" fill="#4c4c4c" fill-rule="nonzero" fill-opacity="1" /><path clip-path="url(#clip180)" d="M152.223 1841.81 L140.417 1860.26 L152.223 1860.26 L152.223 1841.81 M150.996 1837.73 L156.876 1837.73 L156.876 1860.26 L161.806 1860.26 L161.806 1864.15 L156.876 1864.15 L156.876 1872.29 L152.223 1872.29 L152.223 1864.15 L136.621 1864.15 L136.621 1859.63 L150.996 1837.73 Z" fill="#4c4c4c" fill-rule="nonzero" fill-opacity="1" /><path clip-path="url(#clip180)" d="M104.469 1543.59 Q100.858 1543.59 99.0288 1547.15 Q97.2233 1550.7 97.2233 1557.83 Q97.2233 1564.93 99.0288 1568.5 Q100.858 1572.04 104.469 1572.04 Q108.103 1572.04 109.908 1568.5 Q111.737 1564.93 111.737 1557.83 Q111.737 1550.7 109.908 1547.15 Q108.103 1543.59 104.469 1543.59 M104.469 1539.89 Q110.279 1539.89 113.334 1544.49 Q116.413 1549.08 116.413 1557.83 Q116.413 1566.55 113.334 1571.16 Q110.279 1575.74 104.469 1575.74 Q98.6585 1575.74 95.5798 1571.16 Q92.5242 1566.55 92.5242 1557.83 Q92.5242 1549.08 95.5798 1544.49 Q98.6585 1539.89 104.469 1539.89 Z" fill="#4c4c4c" fill-rule="nonzero" fill-opacity="1" /><path clip-path="url(#clip180)" d="M124.631 1569.19 L129.515 1569.19 L129.515 1575.07 L124.631 1575.07 L124.631 1569.19 Z" fill="#4c4c4c" fill-rule="nonzero" fill-opacity="1" /><path clip-path="url(#clip180)" d="M150.279 1555.93 Q147.13 1555.93 145.279 1558.08 Q143.45 1560.23 143.45 1563.98 Q143.45 1567.71 145.279 1569.89 Q147.13 1572.04 150.279 1572.04 Q153.427 1572.04 155.255 1569.89 Q157.107 1567.71 157.107 1563.98 Q157.107 1560.23 155.255 1558.08 Q153.427 1555.93 150.279 1555.93 M159.561 1541.28 L159.561 1545.53 Q157.802 1544.7 155.996 1544.26 Q154.214 1543.82 152.454 1543.82 Q147.825 1543.82 145.371 1546.95 Q142.941 1550.07 142.593 1556.39 Q143.959 1554.38 146.019 1553.31 Q148.079 1552.22 150.556 1552.22 Q155.765 1552.22 158.774 1555.4 Q161.806 1558.54 161.806 1563.98 Q161.806 1569.31 158.658 1572.52 Q155.51 1575.74 150.279 1575.74 Q144.283 1575.74 141.112 1571.16 Q137.941 1566.55 137.941 1557.83 Q137.941 1549.63 141.83 1544.77 Q145.718 1539.89 152.269 1539.89 Q154.029 1539.89 155.811 1540.23 Q157.616 1540.58 159.561 1541.28 Z" fill="#4c4c4c" fill-rule="nonzero" fill-opacity="1" /><path clip-path="url(#clip180)" d="M104.723 1246.37 Q101.112 1246.37 99.2835 1249.93 Q97.4779 1253.47 97.4779 1260.6 Q97.4779 1267.71 99.2835 1271.27 Q101.112 1274.82 104.723 1274.82 Q108.357 1274.82 110.163 1271.27 Q111.992 1267.71 111.992 1260.6 Q111.992 1253.47 110.163 1249.93 Q108.357 1246.37 104.723 1246.37 M104.723 1242.66 Q110.533 1242.66 113.589 1247.27 Q116.668 1251.85 116.668 1260.6 Q116.668 1269.33 113.589 1273.94 Q110.533 1278.52 104.723 1278.52 Q98.9131 1278.52 95.8344 1273.94 Q92.7789 1269.33 92.7789 1260.6 Q92.7789 1251.85 95.8344 1247.27 Q98.9131 1242.66 104.723 1242.66 Z" fill="#4c4c4c" fill-rule="nonzero" fill-opacity="1" /><path clip-path="url(#clip180)" d="M124.885 1271.97 L129.769 1271.97 L129.769 1277.85 L124.885 1277.85 L124.885 1271.97 Z" fill="#4c4c4c" fill-rule="nonzero" fill-opacity="1" /><path clip-path="url(#clip180)" d="M149.954 1261.44 Q146.621 1261.44 144.7 1263.22 Q142.802 1265 142.802 1268.13 Q142.802 1271.25 144.7 1273.03 Q146.621 1274.82 149.954 1274.82 Q153.288 1274.82 155.209 1273.03 Q157.13 1271.23 157.13 1268.13 Q157.13 1265 155.209 1263.22 Q153.311 1261.44 149.954 1261.44 M145.279 1259.45 Q142.269 1258.7 140.58 1256.64 Q138.913 1254.58 138.913 1251.62 Q138.913 1247.48 141.853 1245.07 Q144.816 1242.66 149.954 1242.66 Q155.116 1242.66 158.056 1245.07 Q160.996 1247.48 160.996 1251.62 Q160.996 1254.58 159.306 1256.64 Q157.64 1258.7 154.654 1259.45 Q158.033 1260.23 159.908 1262.52 Q161.806 1264.82 161.806 1268.13 Q161.806 1273.15 158.728 1275.83 Q155.672 1278.52 149.954 1278.52 Q144.237 1278.52 141.158 1275.83 Q138.103 1273.15 138.103 1268.13 Q138.103 1264.82 140.001 1262.52 Q141.899 1260.23 145.279 1259.45 M143.566 1252.06 Q143.566 1254.75 145.232 1256.25 Q146.922 1257.76 149.954 1257.76 Q152.964 1257.76 154.654 1256.25 Q156.366 1254.75 156.366 1252.06 Q156.366 1249.38 154.654 1247.87 Q152.964 1246.37 149.954 1246.37 Q146.922 1246.37 145.232 1247.87 Q143.566 1249.38 143.566 1252.06 Z" fill="#4c4c4c" fill-rule="nonzero" fill-opacity="1" /><path clip-path="url(#clip180)" d="M95.4409 976.69 L103.08 976.69 L103.08 950.324 L94.7696 951.991 L94.7696 947.732 L103.033 946.065 L107.709 946.065 L107.709 976.69 L115.348 976.69 L115.348 980.625 L95.4409 980.625 L95.4409 976.69 Z" fill="#4c4c4c" fill-rule="nonzero" fill-opacity="1" /><path clip-path="url(#clip180)" d="M124.793 974.745 L129.677 974.745 L129.677 980.625 L124.793 980.625 L124.793 974.745 Z" fill="#4c4c4c" fill-rule="nonzero" fill-opacity="1" /><path clip-path="url(#clip180)" d="M149.862 949.144 Q146.251 949.144 144.422 952.708 Q142.617 956.25 142.617 963.38 Q142.617 970.486 144.422 974.051 Q146.251 977.593 149.862 977.593 Q153.496 977.593 155.302 974.051 Q157.13 970.486 157.13 963.38 Q157.13 956.25 155.302 952.708 Q153.496 949.144 149.862 949.144 M149.862 945.44 Q155.672 945.44 158.728 950.046 Q161.806 954.63 161.806 963.38 Q161.806 972.106 158.728 976.713 Q155.672 981.296 149.862 981.296 Q144.052 981.296 140.973 976.713 Q137.918 972.106 137.918 963.38 Q137.918 954.63 140.973 950.046 Q144.052 945.44 149.862 945.44 Z" fill="#4c4c4c" fill-rule="nonzero" fill-opacity="1" /><path clip-path="url(#clip180)" d="M97.0381 679.467 L104.677 679.467 L104.677 653.101 L96.3668 654.768 L96.3668 650.509 L104.631 648.842 L109.307 648.842 L109.307 679.467 L116.945 679.467 L116.945 683.402 L97.0381 683.402 L97.0381 679.467 Z" fill="#4c4c4c" fill-rule="nonzero" fill-opacity="1" /><path clip-path="url(#clip180)" d="M126.39 677.522 L131.274 677.522 L131.274 683.402 L126.39 683.402 L126.39 677.522 Z" fill="#4c4c4c" fill-rule="nonzero" fill-opacity="1" /><path clip-path="url(#clip180)" d="M145.487 679.467 L161.806 679.467 L161.806 683.402 L139.862 683.402 L139.862 679.467 Q142.524 676.712 147.107 672.082 Q151.714 667.43 152.894 666.087 Q155.14 663.564 156.019 661.828 Q156.922 660.069 156.922 658.379 Q156.922 655.624 154.978 653.888 Q153.056 652.152 149.954 652.152 Q147.755 652.152 145.302 652.916 Q142.871 653.68 140.093 655.231 L140.093 650.509 Q142.917 649.374 145.371 648.796 Q147.825 648.217 149.862 648.217 Q155.232 648.217 158.427 650.902 Q161.621 653.587 161.621 658.078 Q161.621 660.208 160.811 662.129 Q160.024 664.027 157.917 666.62 Q157.339 667.291 154.237 670.508 Q151.135 673.703 145.487 679.467 Z" fill="#4c4c4c" fill-rule="nonzero" fill-opacity="1" /><path clip-path="url(#clip180)" d="M94.9548 382.244 L102.594 382.244 L102.594 355.878 L94.2835 357.545 L94.2835 353.285 L102.547 351.619 L107.223 351.619 L107.223 382.244 L114.862 382.244 L114.862 386.179 L94.9548 386.179 L94.9548 382.244 Z" fill="#4c4c4c" fill-rule="nonzero" fill-opacity="1" /><path clip-path="url(#clip180)" d="M124.306 380.299 L129.191 380.299 L129.191 386.179 L124.306 386.179 L124.306 380.299 Z" fill="#4c4c4c" fill-rule="nonzero" fill-opacity="1" /><path clip-path="url(#clip180)" d="M152.223 355.693 L140.417 374.142 L152.223 374.142 L152.223 355.693 M150.996 351.619 L156.876 351.619 L156.876 374.142 L161.806 374.142 L161.806 378.031 L156.876 378.031 L156.876 386.179 L152.223 386.179 L152.223 378.031 L136.621 378.031 L136.621 373.517 L150.996 351.619 Z" fill="#4c4c4c" fill-rule="nonzero" fill-opacity="1" /><path clip-path="url(#clip180)" d="M48.597 1321.32 L67.5031 1321.32 L67.5031 1327.21 L18.2962 1327.21 L18.2962 1321.32 L23.7071 1321.32 Q20.5242 1319.47 18.9964 1316.67 Q17.4368 1313.84 17.4368 1309.93 Q17.4368 1303.43 22.5931 1299.39 Q27.7493 1295.32 36.152 1295.32 Q44.5547 1295.32 49.711 1299.39 Q54.8672 1303.43 54.8672 1309.93 Q54.8672 1313.84 53.3394 1316.67 Q51.7798 1319.47 48.597 1321.32 M36.152 1301.4 Q29.6908 1301.4 26.0305 1304.07 Q22.3384 1306.71 22.3384 1311.36 Q22.3384 1316 26.0305 1318.68 Q29.6908 1321.32 36.152 1321.32 Q42.6132 1321.32 46.3053 1318.68 Q49.9656 1316 49.9656 1311.36 Q49.9656 1306.71 46.3053 1304.07 Q42.6132 1301.4 36.152 1301.4 Z" fill="#000000" fill-rule="nonzero" fill-opacity="1" /><path clip-path="url(#clip180)" d="M22.4021 1271.79 Q22.4021 1276.51 26.0942 1279.24 Q29.7545 1281.98 36.152 1281.98 Q42.5495 1281.98 46.2417 1279.27 Q49.9019 1276.54 49.9019 1271.79 Q49.9019 1267.12 46.2098 1264.38 Q42.5177 1261.64 36.152 1261.64 Q29.8181 1261.64 26.126 1264.38 Q22.4021 1267.12 22.4021 1271.79 M17.4368 1271.79 Q17.4368 1264.16 22.4021 1259.8 Q27.3673 1255.43 36.152 1255.43 Q44.9049 1255.43 49.9019 1259.8 Q54.8672 1264.16 54.8672 1271.79 Q54.8672 1279.47 49.9019 1283.83 Q44.9049 1288.15 36.152 1288.15 Q27.3673 1288.15 22.4021 1283.83 Q17.4368 1279.47 17.4368 1271.79 Z" fill="#000000" fill-rule="nonzero" fill-opacity="1" /><path clip-path="url(#clip180)" d="M48.597 1240.06 L67.5031 1240.06 L67.5031 1245.95 L18.2962 1245.95 L18.2962 1240.06 L23.7071 1240.06 Q20.5242 1238.22 18.9964 1235.41 Q17.4368 1232.58 17.4368 1228.67 Q17.4368 1222.17 22.5931 1218.13 Q27.7493 1214.06 36.152 1214.06 Q44.5547 1214.06 49.711 1218.13 Q54.8672 1222.17 54.8672 1228.67 Q54.8672 1232.58 53.3394 1235.41 Q51.7798 1238.22 48.597 1240.06 M36.152 1220.14 Q29.6908 1220.14 26.0305 1222.81 Q22.3384 1225.45 22.3384 1230.1 Q22.3384 1234.75 26.0305 1237.42 Q29.6908 1240.06 36.152 1240.06 Q42.6132 1240.06 46.3053 1237.42 Q49.9656 1234.75 49.9656 1230.1 Q49.9656 1225.45 46.3053 1222.81 Q42.6132 1220.14 36.152 1220.14 Z" fill="#000000" fill-rule="nonzero" fill-opacity="1" /><path clip-path="url(#clip180)" d="M39.8759 1204.95 L18.2962 1204.95 L18.2962 1199.1 L39.6531 1199.1 Q44.7139 1199.1 47.2602 1197.12 Q49.7746 1195.15 49.7746 1191.2 Q49.7746 1186.46 46.7509 1183.72 Q43.7272 1180.96 38.5073 1180.96 L18.2962 1180.96 L18.2962 1175.1 L53.9442 1175.1 L53.9442 1180.96 L48.4696 1180.96 Q51.7162 1183.09 53.3076 1185.92 Q54.8672 1188.72 54.8672 1192.45 Q54.8672 1198.59 51.0478 1201.77 Q47.2283 1204.95 39.8759 1204.95 M17.4368 1190.22 L17.4368 1190.22 Z" fill="#000000" fill-rule="nonzero" fill-opacity="1" /><path clip-path="url(#clip180)" d="M4.41896 1163.04 L4.41896 1157.18 L53.9442 1157.18 L53.9442 1163.04 L4.41896 1163.04 Z" fill="#000000" fill-rule="nonzero" fill-opacity="1" /><path clip-path="url(#clip180)" d="M36.0247 1128.73 Q36.0247 1135.82 37.6479 1138.56 Q39.2712 1141.3 43.1861 1141.3 Q46.3053 1141.3 48.1514 1139.26 Q49.9656 1137.19 49.9656 1133.66 Q49.9656 1128.79 46.5281 1125.86 Q43.0588 1122.9 37.3297 1122.9 L36.0247 1122.9 L36.0247 1128.73 M33.6057 1117.04 L53.9442 1117.04 L53.9442 1122.9 L48.5333 1122.9 Q51.7798 1124.91 53.3394 1127.9 Q54.8672 1130.89 54.8672 1135.22 Q54.8672 1140.69 51.8116 1143.94 Q48.7243 1147.15 43.5681 1147.15 Q37.5525 1147.15 34.4969 1143.14 Q31.4414 1139.1 31.4414 1131.11 L31.4414 1122.9 L30.8685 1122.9 Q26.8262 1122.9 24.6301 1125.57 Q22.4021 1128.22 22.4021 1133.02 Q22.4021 1136.08 23.1341 1138.97 Q23.8662 1141.87 25.3303 1144.54 L19.9195 1144.54 Q18.6781 1141.33 18.0734 1138.31 Q17.4368 1135.28 17.4368 1132.42 Q17.4368 1124.68 21.4472 1120.86 Q25.4576 1117.04 33.6057 1117.04 Z" fill="#000000" fill-rule="nonzero" fill-opacity="1" /><path clip-path="url(#clip180)" d="M19.6648 1079.33 L25.1393 1079.33 Q23.7707 1081.81 23.1023 1084.32 Q22.4021 1086.81 22.4021 1089.35 Q22.4021 1095.05 26.0305 1098.2 Q29.6272 1101.35 36.152 1101.35 Q42.6769 1101.35 46.3053 1098.2 Q49.9019 1095.05 49.9019 1089.35 Q49.9019 1086.81 49.2335 1084.32 Q48.5333 1081.81 47.1647 1079.33 L52.5755 1079.33 Q53.7214 1081.78 54.2943 1084.42 Q54.8672 1087.03 54.8672 1089.99 Q54.8672 1098.04 49.8064 1102.78 Q44.7457 1107.53 36.152 1107.53 Q27.431 1107.53 22.4339 1102.75 Q17.4368 1097.95 17.4368 1089.61 Q17.4368 1086.9 18.0097 1084.32 Q18.5508 1081.75 19.6648 1079.33 M53.9442 1087.6 Q55.9175 1085.85 57.5726 1084.99 Q59.2595 1084.13 60.7873 1084.13 Q63.62 1084.13 65.0523 1086.04 Q66.5164 1087.95 66.5164 1091.71 Q66.5164 1093.17 66.3255 1094.57 Q66.1345 1095.94 65.7525 1097.31 L61.583 1097.31 Q62.1241 1096.23 62.3469 1095.05 Q62.6015 1093.87 62.6015 1092.38 Q62.6015 1090.5 61.8376 1089.54 Q61.0737 1088.59 59.6096 1088.59 Q58.6548 1088.59 57.2543 1089.29 Q55.8857 1089.96 53.9442 1091.39 L53.9442 1087.6 Z" fill="#000000" fill-rule="nonzero" fill-opacity="1" /><path clip-path="url(#clip180)" d="M36.0247 1052.94 Q36.0247 1060.04 37.6479 1062.78 Q39.2712 1065.51 43.1861 1065.51 Q46.3053 1065.51 48.1514 1063.48 Q49.9656 1061.41 49.9656 1057.87 Q49.9656 1053.01 46.5281 1050.08 Q43.0588 1047.12 37.3297 1047.12 L36.0247 1047.12 L36.0247 1052.94 M33.6057 1041.26 L53.9442 1041.26 L53.9442 1047.12 L48.5333 1047.12 Q51.7798 1049.12 53.3394 1052.11 Q54.8672 1055.11 54.8672 1059.43 Q54.8672 1064.91 51.8116 1068.16 Q48.7243 1071.37 43.5681 1071.37 Q37.5525 1071.37 34.4969 1067.36 Q31.4414 1063.32 31.4414 1055.33 L31.4414 1047.12 L30.8685 1047.12 Q26.8262 1047.12 24.6301 1049.79 Q22.4021 1052.43 22.4021 1057.24 Q22.4021 1060.29 23.1341 1063.19 Q23.8662 1066.09 25.3303 1068.76 L19.9195 1068.76 Q18.6781 1065.55 18.0734 1062.52 Q17.4368 1059.5 17.4368 1056.63 Q17.4368 1048.9 21.4472 1045.08 Q25.4576 1041.26 33.6057 1041.26 M10.3391 1056.51 L8.5885 1058.32 Q7.95193 1059.02 7.66547 1059.56 Q7.34718 1060.07 7.34718 1060.48 Q7.34718 1061.69 8.52484 1062.27 Q9.67067 1062.84 12.2806 1062.9 L12.2806 1066.88 Q7.98376 1066.82 5.66027 1065.2 Q3.30496 1063.57 3.30496 1060.68 Q3.30496 1059.47 3.75056 1058.45 Q4.19616 1057.43 5.2465 1056.25 L6.99707 1054.44 Q7.63364 1053.74 7.95193 1053.23 Q8.23838 1052.69 8.23838 1052.27 Q8.23838 1051.06 7.09256 1050.49 Q5.9149 1049.92 3.30496 1049.85 L3.30496 1045.88 Q7.60181 1045.94 9.95712 1047.56 Q12.2806 1049.19 12.2806 1052.08 Q12.2806 1053.29 11.835 1054.31 Q11.3894 1055.33 10.3391 1056.51 Z" fill="#000000" fill-rule="nonzero" fill-opacity="1" /><path clip-path="url(#clip180)" d="M22.4021 1015.38 Q22.4021 1020.09 26.0942 1022.83 Q29.7545 1025.57 36.152 1025.57 Q42.5495 1025.57 46.2417 1022.86 Q49.9019 1020.13 49.9019 1015.38 Q49.9019 1010.71 46.2098 1007.97 Q42.5177 1005.23 36.152 1005.23 Q29.8181 1005.23 26.126 1007.97 Q22.4021 1010.71 22.4021 1015.38 M17.4368 1015.38 Q17.4368 1007.74 22.4021 1003.38 Q27.3673 999.024 36.152 999.024 Q44.9049 999.024 49.9019 1003.38 Q54.8672 1007.74 54.8672 1015.38 Q54.8672 1023.05 49.9019 1027.42 Q44.9049 1031.74 36.152 1031.74 Q27.3673 1031.74 22.4021 1027.42 Q17.4368 1023.05 17.4368 1015.38 Z" fill="#000000" fill-rule="nonzero" fill-opacity="1" /><path clip-path="url(#clip180)" d="M972.365 23.3193 L979.136 23.3193 L991.288 55.958 L1003.44 23.3193 L1010.21 23.3193 L995.629 62.208 L986.948 62.208 L972.365 23.3193 Z" fill="#000000" fill-rule="nonzero" fill-opacity="1" /><path clip-path="url(#clip180)" d="M1036.7 42.6595 Q1028.96 42.6595 1025.98 44.4303 Q1022.99 46.2011 1022.99 50.472 Q1022.99 53.8747 1025.21 55.8886 Q1027.47 57.8677 1031.32 57.8677 Q1036.64 57.8677 1039.83 54.1178 Q1043.06 50.3331 1043.06 44.0831 L1043.06 42.6595 L1036.7 42.6595 M1049.45 40.0206 L1049.45 62.208 L1043.06 62.208 L1043.06 56.3053 Q1040.87 59.8469 1037.61 61.5483 Q1034.34 63.2149 1029.62 63.2149 Q1023.65 63.2149 1020.11 59.8816 Q1016.6 56.5136 1016.6 50.8886 Q1016.6 44.3262 1020.98 40.9928 Q1025.39 37.6595 1034.1 37.6595 L1043.06 37.6595 L1043.06 37.0345 Q1043.06 32.6248 1040.14 30.229 Q1037.26 27.7985 1032.02 27.7985 Q1028.68 27.7985 1025.52 28.5971 Q1022.36 29.3957 1019.45 30.9929 L1019.45 25.0901 Q1022.95 23.736 1026.25 23.0763 Q1029.55 22.3818 1032.68 22.3818 Q1041.11 22.3818 1045.28 26.7568 Q1049.45 31.1318 1049.45 40.0206 Z" fill="#000000" fill-rule="nonzero" fill-opacity="1" /><path clip-path="url(#clip180)" d="M1062.61 8.18051 L1069 8.18051 L1069 62.208 L1062.61 62.208 L1062.61 8.18051 Z" fill="#000000" fill-rule="nonzero" fill-opacity="1" /><path clip-path="url(#clip180)" d="M1097.43 27.7985 Q1092.29 27.7985 1089.31 31.8262 Q1086.32 35.8193 1086.32 42.7984 Q1086.32 49.7775 1089.27 53.8053 Q1092.26 57.7983 1097.43 57.7983 Q1102.54 57.7983 1105.52 53.7705 Q1108.51 49.7428 1108.51 42.7984 Q1108.51 35.8887 1105.52 31.8609 Q1102.54 27.7985 1097.43 27.7985 M1097.43 22.3818 Q1105.77 22.3818 1110.52 27.7985 Q1115.28 33.2151 1115.28 42.7984 Q1115.28 52.3469 1110.52 57.7983 Q1105.77 63.2149 1097.43 63.2149 Q1089.07 63.2149 1084.31 57.7983 Q1079.59 52.3469 1079.59 42.7984 Q1079.59 33.2151 1084.31 27.7985 Q1089.07 22.3818 1097.43 22.3818 Z" fill="#000000" fill-rule="nonzero" fill-opacity="1" /><path clip-path="url(#clip180)" d="M1148.41 29.2915 Q1147.33 28.6665 1146.04 28.3887 Q1144.79 28.0762 1143.27 28.0762 Q1137.85 28.0762 1134.93 31.6179 Q1132.05 35.1248 1132.05 41.722 L1132.05 62.208 L1125.63 62.208 L1125.63 23.3193 L1132.05 23.3193 L1132.05 29.361 Q1134.07 25.8193 1137.29 24.1179 Q1140.52 22.3818 1145.14 22.3818 Q1145.8 22.3818 1146.6 22.486 Q1147.4 22.5554 1148.37 22.729 L1148.41 29.2915 Z" fill="#000000" fill-rule="nonzero" fill-opacity="1" /><path clip-path="url(#clip180)" d="M1210.97 41.1664 L1210.97 44.2914 L1181.6 44.2914 Q1182.02 50.8886 1185.56 54.3608 Q1189.13 57.7983 1195.49 57.7983 Q1199.17 57.7983 1202.61 56.8955 Q1206.08 55.9928 1209.48 54.1872 L1209.48 60.2288 Q1206.04 61.6872 1202.43 62.4511 Q1198.82 63.2149 1195.11 63.2149 Q1185.8 63.2149 1180.35 57.7983 Q1174.93 52.3817 1174.93 43.1456 Q1174.93 33.597 1180.07 28.0068 Q1185.25 22.3818 1194 22.3818 Q1201.84 22.3818 1206.39 27.4512 Q1210.97 32.4859 1210.97 41.1664 M1204.59 39.2915 Q1204.52 34.0484 1201.63 30.9234 Q1198.79 27.7985 1194.07 27.7985 Q1188.72 27.7985 1185.49 30.8193 Q1182.29 33.8401 1181.81 39.3262 L1204.59 39.2915 Z" fill="#000000" fill-rule="nonzero" fill-opacity="1" /><path clip-path="url(#clip180)" d="M1246.25 24.4651 L1246.25 30.5068 Q1243.54 29.1179 1240.63 28.4235 Q1237.71 27.729 1234.59 27.729 Q1229.83 27.729 1227.43 29.1873 Q1225.07 30.6457 1225.07 33.5623 Q1225.07 35.7845 1226.77 37.0692 Q1228.47 38.3192 1233.61 39.4651 L1235.8 39.9512 Q1242.61 41.4095 1245.45 44.0831 Q1248.34 46.722 1248.34 51.4789 Q1248.34 56.8955 1244.03 60.0552 Q1239.76 63.2149 1232.26 63.2149 Q1229.13 63.2149 1225.73 62.5899 Q1222.36 61.9997 1218.61 60.7844 L1218.61 54.1872 Q1222.16 56.0275 1225.59 56.965 Q1229.03 57.8677 1232.4 57.8677 Q1236.91 57.8677 1239.34 56.34 Q1241.77 54.7775 1241.77 51.965 Q1241.77 49.3608 1240 47.972 Q1238.27 46.5831 1232.33 45.2984 L1230.11 44.7775 Q1224.17 43.5275 1221.53 40.9581 Q1218.89 38.354 1218.89 33.8401 Q1218.89 28.354 1222.78 25.3679 Q1226.67 22.3818 1233.82 22.3818 Q1237.36 22.3818 1240.49 22.9027 Q1243.61 23.4235 1246.25 24.4651 Z" fill="#000000" fill-rule="nonzero" fill-opacity="1" /><path clip-path="url(#clip180)" d="M1264.69 56.3747 L1264.69 76.9996 L1258.27 76.9996 L1258.27 23.3193 L1264.69 23.3193 L1264.69 29.2221 Q1266.7 25.7499 1269.76 24.0832 Q1272.85 22.3818 1277.12 22.3818 Q1284.2 22.3818 1288.61 28.0068 Q1293.06 33.6318 1293.06 42.7984 Q1293.06 51.965 1288.61 57.59 Q1284.2 63.2149 1277.12 63.2149 Q1272.85 63.2149 1269.76 61.5483 Q1266.7 59.8469 1264.69 56.3747 M1286.43 42.7984 Q1286.43 35.7498 1283.51 31.7568 Q1280.63 27.729 1275.56 27.729 Q1270.49 27.729 1267.57 31.7568 Q1264.69 35.7498 1264.69 42.7984 Q1264.69 49.847 1267.57 53.8747 Q1270.49 57.8677 1275.56 57.8677 Q1280.63 57.8677 1283.51 53.8747 Q1286.43 49.847 1286.43 42.7984 Z" fill="#000000" fill-rule="nonzero" fill-opacity="1" /><path clip-path="url(#clip180)" d="M1336.91 41.1664 L1336.91 44.2914 L1307.54 44.2914 Q1307.95 50.8886 1311.49 54.3608 Q1315.07 57.7983 1321.43 57.7983 Q1325.11 57.7983 1328.54 56.8955 Q1332.02 55.9928 1335.42 54.1872 L1335.42 60.2288 Q1331.98 61.6872 1328.37 62.4511 Q1324.76 63.2149 1321.04 63.2149 Q1311.74 63.2149 1306.29 57.7983 Q1300.87 52.3817 1300.87 43.1456 Q1300.87 33.597 1306.01 28.0068 Q1311.18 22.3818 1319.93 22.3818 Q1327.78 22.3818 1332.33 27.4512 Q1336.91 32.4859 1336.91 41.1664 M1330.52 39.2915 Q1330.45 34.0484 1327.57 30.9234 Q1324.72 27.7985 1320 27.7985 Q1314.65 27.7985 1311.43 30.8193 Q1308.23 33.8401 1307.74 39.3262 L1330.52 39.2915 Z" fill="#000000" fill-rule="nonzero" fill-opacity="1" /><path clip-path="url(#clip180)" d="M1369.93 29.2915 Q1368.86 28.6665 1367.57 28.3887 Q1366.32 28.0762 1364.79 28.0762 Q1359.38 28.0762 1356.46 31.6179 Q1353.58 35.1248 1353.58 41.722 L1353.58 62.208 L1347.15 62.208 L1347.15 23.3193 L1353.58 23.3193 L1353.58 29.361 Q1355.59 25.8193 1358.82 24.1179 Q1362.05 22.3818 1366.67 22.3818 Q1367.33 22.3818 1368.13 22.486 Q1368.93 22.5554 1369.9 22.729 L1369.93 29.2915 Z" fill="#000000" fill-rule="nonzero" fill-opacity="1" /><path clip-path="url(#clip180)" d="M1394.31 42.6595 Q1386.56 42.6595 1383.58 44.4303 Q1380.59 46.2011 1380.59 50.472 Q1380.59 53.8747 1382.81 55.8886 Q1385.07 57.8677 1388.93 57.8677 Q1394.24 57.8677 1397.43 54.1178 Q1400.66 50.3331 1400.66 44.0831 L1400.66 42.6595 L1394.31 42.6595 M1407.05 40.0206 L1407.05 62.208 L1400.66 62.208 L1400.66 56.3053 Q1398.47 59.8469 1395.21 61.5483 Q1391.95 63.2149 1387.22 63.2149 Q1381.25 63.2149 1377.71 59.8816 Q1374.2 56.5136 1374.2 50.8886 Q1374.2 44.3262 1378.58 40.9928 Q1382.99 37.6595 1391.7 37.6595 L1400.66 37.6595 L1400.66 37.0345 Q1400.66 32.6248 1397.74 30.229 Q1394.86 27.7985 1389.62 27.7985 Q1386.29 27.7985 1383.13 28.5971 Q1379.97 29.3957 1377.05 30.9929 L1377.05 25.0901 Q1380.56 23.736 1383.86 23.0763 Q1387.15 22.3818 1390.28 22.3818 Q1398.72 22.3818 1402.88 26.7568 Q1407.05 31.1318 1407.05 40.0206 Z" fill="#000000" fill-rule="nonzero" fill-opacity="1" /><path clip-path="url(#clip180)" d="M1445.8 29.2221 L1445.8 8.18051 L1452.19 8.18051 L1452.19 62.208 L1445.8 62.208 L1445.8 56.3747 Q1443.79 59.8469 1440.7 61.5483 Q1437.64 63.2149 1433.33 63.2149 Q1426.29 63.2149 1421.84 57.59 Q1417.43 51.965 1417.43 42.7984 Q1417.43 33.6318 1421.84 28.0068 Q1426.29 22.3818 1433.33 22.3818 Q1437.64 22.3818 1440.7 24.0832 Q1443.79 25.7499 1445.8 29.2221 M1424.03 42.7984 Q1424.03 49.847 1426.91 53.8747 Q1429.83 57.8677 1434.9 57.8677 Q1439.97 57.8677 1442.88 53.8747 Q1445.8 49.847 1445.8 42.7984 Q1445.8 35.7498 1442.88 31.7568 Q1439.97 27.729 1434.9 27.729 Q1429.83 27.729 1426.91 31.7568 Q1424.03 35.7498 1424.03 42.7984 Z" fill="#000000" fill-rule="nonzero" fill-opacity="1" /><path clip-path="url(#clip180)" d="M1480.42 27.7985 Q1475.28 27.7985 1472.29 31.8262 Q1469.31 35.8193 1469.31 42.7984 Q1469.31 49.7775 1472.26 53.8053 Q1475.24 57.7983 1480.42 57.7983 Q1485.52 57.7983 1488.51 53.7705 Q1491.49 49.7428 1491.49 42.7984 Q1491.49 35.8887 1488.51 31.8609 Q1485.52 27.7985 1480.42 27.7985 M1480.42 22.3818 Q1488.75 22.3818 1493.51 27.7985 Q1498.26 33.2151 1498.26 42.7984 Q1498.26 52.3469 1493.51 57.7983 Q1488.75 63.2149 1480.42 63.2149 Q1472.05 63.2149 1467.29 57.7983 Q1462.57 52.3469 1462.57 42.7984 Q1462.57 33.2151 1467.29 27.7985 Q1472.05 22.3818 1480.42 22.3818 Z" fill="#000000" fill-rule="nonzero" fill-opacity="1" /><path clip-path="url(#clip180)" d="M1564.72 41.1664 L1564.72 44.2914 L1535.35 44.2914 Q1535.76 50.8886 1539.31 54.3608 Q1542.88 57.7983 1549.24 57.7983 Q1552.92 57.7983 1556.35 56.8955 Q1559.83 55.9928 1563.23 54.1872 L1563.23 60.2288 Q1559.79 61.6872 1556.18 62.4511 Q1552.57 63.2149 1548.85 63.2149 Q1539.55 63.2149 1534.1 57.7983 Q1528.68 52.3817 1528.68 43.1456 Q1528.68 33.597 1533.82 28.0068 Q1538.99 22.3818 1547.74 22.3818 Q1555.59 22.3818 1560.14 27.4512 Q1564.72 32.4859 1564.72 41.1664 M1558.33 39.2915 Q1558.26 34.0484 1555.38 30.9234 Q1552.54 27.7985 1547.81 27.7985 Q1542.47 27.7985 1539.24 30.8193 Q1536.04 33.8401 1535.56 39.3262 L1558.33 39.2915 Z" fill="#000000" fill-rule="nonzero" fill-opacity="1" /><path clip-path="url(#clip180)" d="M1597.81 23.3193 L1604.2 23.3193 L1604.2 62.208 L1597.81 62.208 L1597.81 23.3193 M1597.81 8.18051 L1604.2 8.18051 L1604.2 16.2707 L1597.81 16.2707 L1597.81 8.18051 Z" fill="#000000" fill-rule="nonzero" fill-opacity="1" /><path clip-path="url(#clip180)" d="M1649.9 38.7359 L1649.9 62.208 L1643.51 62.208 L1643.51 38.9442 Q1643.51 33.4234 1641.35 30.6804 Q1639.2 27.9374 1634.9 27.9374 Q1629.72 27.9374 1626.74 31.2359 Q1623.75 34.5345 1623.75 40.229 L1623.75 62.208 L1617.33 62.208 L1617.33 23.3193 L1623.75 23.3193 L1623.75 29.361 Q1626.04 25.854 1629.13 24.1179 Q1632.26 22.3818 1636.32 22.3818 Q1643.02 22.3818 1646.46 26.5485 Q1649.9 30.6804 1649.9 38.7359 Z" fill="#000000" fill-rule="nonzero" fill-opacity="1" /><path clip-path="url(#clip180)" d="M1668.96 12.2777 L1668.96 23.3193 L1682.12 23.3193 L1682.12 28.2846 L1668.96 28.2846 L1668.96 49.3956 Q1668.96 54.1525 1670.24 55.5066 Q1671.56 56.8608 1675.56 56.8608 L1682.12 56.8608 L1682.12 62.208 L1675.56 62.208 Q1668.16 62.208 1665.35 59.465 Q1662.53 56.6872 1662.53 49.3956 L1662.53 28.2846 L1657.85 28.2846 L1657.85 23.3193 L1662.53 23.3193 L1662.53 12.2777 L1668.96 12.2777 Z" fill="#000000" fill-rule="nonzero" fill-opacity="1" /><path clip-path="url(#clip180)" d="M1723.78 41.1664 L1723.78 44.2914 L1694.41 44.2914 Q1694.83 50.8886 1698.37 54.3608 Q1701.94 57.7983 1708.3 57.7983 Q1711.98 57.7983 1715.42 56.8955 Q1718.89 55.9928 1722.29 54.1872 L1722.29 60.2288 Q1718.85 61.6872 1715.24 62.4511 Q1711.63 63.2149 1707.92 63.2149 Q1698.61 63.2149 1693.16 57.7983 Q1687.74 52.3817 1687.74 43.1456 Q1687.74 33.597 1692.88 28.0068 Q1698.06 22.3818 1706.81 22.3818 Q1714.65 22.3818 1719.2 27.4512 Q1723.78 32.4859 1723.78 41.1664 M1717.4 39.2915 Q1717.33 34.0484 1714.44 30.9234 Q1711.6 27.7985 1706.87 27.7985 Q1701.53 27.7985 1698.3 30.8193 Q1695.1 33.8401 1694.62 39.3262 L1717.4 39.2915 Z" fill="#000000" fill-rule="nonzero" fill-opacity="1" /><path clip-path="url(#clip180)" d="M1756.81 29.2915 Q1755.73 28.6665 1754.44 28.3887 Q1753.19 28.0762 1751.67 28.0762 Q1746.25 28.0762 1743.33 31.6179 Q1740.45 35.1248 1740.45 41.722 L1740.45 62.208 L1734.03 62.208 L1734.03 23.3193 L1740.45 23.3193 L1740.45 29.361 Q1742.46 25.8193 1745.69 24.1179 Q1748.92 22.3818 1753.54 22.3818 Q1754.2 22.3818 1755 22.486 Q1755.8 22.5554 1756.77 22.729 L1756.81 29.2915 Z" fill="#000000" fill-rule="nonzero" fill-opacity="1" /><path clip-path="url(#clip180)" d="M1758.92 23.3193 L1765.69 23.3193 L1777.85 55.958 L1790 23.3193 L1796.77 23.3193 L1782.19 62.208 L1773.51 62.208 L1758.92 23.3193 Z" fill="#000000" fill-rule="nonzero" fill-opacity="1" /><path clip-path="url(#clip180)" d="M1823.26 42.6595 Q1815.52 42.6595 1812.53 44.4303 Q1809.55 46.2011 1809.55 50.472 Q1809.55 53.8747 1811.77 55.8886 Q1814.03 57.8677 1817.88 57.8677 Q1823.19 57.8677 1826.39 54.1178 Q1829.62 50.3331 1829.62 44.0831 L1829.62 42.6595 L1823.26 42.6595 M1836.01 40.0206 L1836.01 62.208 L1829.62 62.208 L1829.62 56.3053 Q1827.43 59.8469 1824.17 61.5483 Q1820.9 63.2149 1816.18 63.2149 Q1810.21 63.2149 1806.67 59.8816 Q1803.16 56.5136 1803.16 50.8886 Q1803.16 44.3262 1807.53 40.9928 Q1811.94 37.6595 1820.66 37.6595 L1829.62 37.6595 L1829.62 37.0345 Q1829.62 32.6248 1826.7 30.229 Q1823.82 27.7985 1818.58 27.7985 Q1815.24 27.7985 1812.08 28.5971 Q1808.92 29.3957 1806.01 30.9929 L1806.01 25.0901 Q1809.51 23.736 1812.81 23.0763 Q1816.11 22.3818 1819.24 22.3818 Q1827.67 22.3818 1831.84 26.7568 Q1836.01 31.1318 1836.01 40.0206 Z" fill="#000000" fill-rule="nonzero" fill-opacity="1" /><path clip-path="url(#clip180)" d="M1849.17 8.18051 L1855.55 8.18051 L1855.55 62.208 L1849.17 62.208 L1849.17 8.18051 Z" fill="#000000" fill-rule="nonzero" fill-opacity="1" /><path clip-path="url(#clip180)" d="M1883.99 27.7985 Q1878.85 27.7985 1875.87 31.8262 Q1872.88 35.8193 1872.88 42.7984 Q1872.88 49.7775 1875.83 53.8053 Q1878.82 57.7983 1883.99 57.7983 Q1889.1 57.7983 1892.08 53.7705 Q1895.07 49.7428 1895.07 42.7984 Q1895.07 35.8887 1892.08 31.8609 Q1889.1 27.7985 1883.99 27.7985 M1883.99 22.3818 Q1892.33 22.3818 1897.08 27.7985 Q1901.84 33.2151 1901.84 42.7984 Q1901.84 52.3469 1897.08 57.7983 Q1892.33 63.2149 1883.99 63.2149 Q1875.62 63.2149 1870.87 57.7983 Q1866.14 52.3469 1866.14 42.7984 Q1866.14 33.2151 1870.87 27.7985 Q1875.62 22.3818 1883.99 22.3818 Z" fill="#000000" fill-rule="nonzero" fill-opacity="1" /><path clip-path="url(#clip180)" d="M1937.22 24.4651 L1937.22 30.5068 Q1934.51 29.1179 1931.6 28.4235 Q1928.68 27.729 1925.55 27.729 Q1920.8 27.729 1918.4 29.1873 Q1916.04 30.6457 1916.04 33.5623 Q1916.04 35.7845 1917.74 37.0692 Q1919.44 38.3192 1924.58 39.4651 L1926.77 39.9512 Q1933.57 41.4095 1936.42 44.0831 Q1939.3 46.722 1939.3 51.4789 Q1939.3 56.8955 1935 60.0552 Q1930.73 63.2149 1923.23 63.2149 Q1920.1 63.2149 1916.7 62.5899 Q1913.33 61.9997 1909.58 60.7844 L1909.58 54.1872 Q1913.12 56.0275 1916.56 56.965 Q1920 57.8677 1923.37 57.8677 Q1927.88 57.8677 1930.31 56.34 Q1932.74 54.7775 1932.74 51.965 Q1932.74 49.3608 1930.97 47.972 Q1929.23 46.5831 1923.3 45.2984 L1921.08 44.7775 Q1915.14 43.5275 1912.5 40.9581 Q1909.86 38.354 1909.86 33.8401 Q1909.86 28.354 1913.75 25.3679 Q1917.64 22.3818 1924.79 22.3818 Q1928.33 22.3818 1931.46 22.9027 Q1934.58 23.4235 1937.22 24.4651 Z" fill="#000000" fill-rule="nonzero" fill-opacity="1" /><path clip-path="url(#clip180)" d="M1997.67 29.2221 L1997.67 8.18051 L2004.06 8.18051 L2004.06 62.208 L1997.67 62.208 L1997.67 56.3747 Q1995.66 59.8469 1992.57 61.5483 Q1989.51 63.2149 1985.21 63.2149 Q1978.16 63.2149 1973.71 57.59 Q1969.3 51.965 1969.3 42.7984 Q1969.3 33.6318 1973.71 28.0068 Q1978.16 22.3818 1985.21 22.3818 Q1989.51 22.3818 1992.57 24.0832 Q1995.66 25.7499 1997.67 29.2221 M1975.9 42.7984 Q1975.9 49.847 1978.78 53.8747 Q1981.7 57.8677 1986.77 57.8677 Q1991.84 57.8677 1994.76 53.8747 Q1997.67 49.847 1997.67 42.7984 Q1997.67 35.7498 1994.76 31.7568 Q1991.84 27.729 1986.77 27.729 Q1981.7 27.729 1978.78 31.7568 Q1975.9 35.7498 1975.9 42.7984 Z" fill="#000000" fill-rule="nonzero" fill-opacity="1" /><path clip-path="url(#clip180)" d="M2050.48 41.1664 L2050.48 44.2914 L2021.11 44.2914 Q2021.53 50.8886 2025.07 54.3608 Q2028.64 57.7983 2035 57.7983 Q2038.68 57.7983 2042.12 56.8955 Q2045.59 55.9928 2048.99 54.1872 L2048.99 60.2288 Q2045.55 61.6872 2041.94 62.4511 Q2038.33 63.2149 2034.62 63.2149 Q2025.31 63.2149 2019.86 57.7983 Q2014.44 52.3817 2014.44 43.1456 Q2014.44 33.597 2019.58 28.0068 Q2024.76 22.3818 2033.5 22.3818 Q2041.35 22.3818 2045.9 27.4512 Q2050.48 32.4859 2050.48 41.1664 M2044.1 39.2915 Q2044.03 34.0484 2041.14 30.9234 Q2038.3 27.7985 2033.57 27.7985 Q2028.23 27.7985 2025 30.8193 Q2021.8 33.8401 2021.32 39.3262 L2044.1 39.2915 Z" fill="#000000" fill-rule="nonzero" fill-opacity="1" /><path clip-path="url(#clip180)" d="M2111.56 24.8124 L2111.56 30.7846 Q2108.85 29.2915 2106.11 28.5623 Q2103.4 27.7985 2100.62 27.7985 Q2094.41 27.7985 2090.97 31.7568 Q2087.53 35.6804 2087.53 42.7984 Q2087.53 49.9164 2090.97 53.8747 Q2094.41 57.7983 2100.62 57.7983 Q2103.4 57.7983 2106.11 57.0691 Q2108.85 56.3053 2111.56 54.8122 L2111.56 60.715 Q2108.89 61.9649 2106 62.5899 Q2103.16 63.2149 2099.93 63.2149 Q2091.14 63.2149 2085.97 57.6941 Q2080.8 52.1733 2080.8 42.7984 Q2080.8 33.2845 2086 27.8332 Q2091.25 22.3818 2100.34 22.3818 Q2103.3 22.3818 2106.11 23.0068 Q2108.92 23.5971 2111.56 24.8124 Z" fill="#000000" fill-rule="nonzero" fill-opacity="1" /><path clip-path="url(#clip180)" d="M2137.74 27.7985 Q2132.6 27.7985 2129.62 31.8262 Q2126.63 35.8193 2126.63 42.7984 Q2126.63 49.7775 2129.58 53.8053 Q2132.57 57.7983 2137.74 57.7983 Q2142.84 57.7983 2145.83 53.7705 Q2148.82 49.7428 2148.82 42.7984 Q2148.82 35.8887 2145.83 31.8609 Q2142.84 27.7985 2137.74 27.7985 M2137.74 22.3818 Q2146.07 22.3818 2150.83 27.7985 Q2155.59 33.2151 2155.59 42.7984 Q2155.59 52.3469 2150.83 57.7983 Q2146.07 63.2149 2137.74 63.2149 Q2129.37 63.2149 2124.62 57.7983 Q2119.89 52.3469 2119.89 42.7984 Q2119.89 33.2151 2124.62 27.7985 Q2129.37 22.3818 2137.74 22.3818 Z" fill="#000000" fill-rule="nonzero" fill-opacity="1" /><path clip-path="url(#clip180)" d="M2198.5 38.7359 L2198.5 62.208 L2192.12 62.208 L2192.12 38.9442 Q2192.12 33.4234 2189.96 30.6804 Q2187.81 27.9374 2183.5 27.9374 Q2178.33 27.9374 2175.34 31.2359 Q2172.36 34.5345 2172.36 40.229 L2172.36 62.208 L2165.93 62.208 L2165.93 23.3193 L2172.36 23.3193 L2172.36 29.361 Q2174.65 25.854 2177.74 24.1179 Q2180.87 22.3818 2184.93 22.3818 Q2191.63 22.3818 2195.07 26.5485 Q2198.5 30.6804 2198.5 38.7359 Z" fill="#000000" fill-rule="nonzero" fill-opacity="1" /><path clip-path="url(#clip180)" d="M2230.93 8.18051 L2230.93 13.493 L2224.82 13.493 Q2221.39 13.493 2220.03 14.8819 Q2218.71 16.2707 2218.71 19.8818 L2218.71 23.3193 L2229.23 23.3193 L2229.23 28.2846 L2218.71 28.2846 L2218.71 62.208 L2212.29 62.208 L2212.29 28.2846 L2206.18 28.2846 L2206.18 23.3193 L2212.29 23.3193 L2212.29 20.611 Q2212.29 14.118 2215.31 11.1666 Q2218.33 8.18051 2224.89 8.18051 L2230.93 8.18051 Z" fill="#000000" fill-rule="nonzero" fill-opacity="1" /><path clip-path="url(#clip180)" d="M2236.28 23.3193 L2242.67 23.3193 L2242.67 62.208 L2236.28 62.208 L2236.28 23.3193 M2236.28 8.18051 L2242.67 8.18051 L2242.67 16.2707 L2236.28 16.2707 L2236.28 8.18051 Z" fill="#000000" fill-rule="nonzero" fill-opacity="1" /><path clip-path="url(#clip180)" d="M2273.71 42.6595 Q2265.97 42.6595 2262.98 44.4303 Q2260 46.2011 2260 50.472 Q2260 53.8747 2262.22 55.8886 Q2264.48 57.8677 2268.33 57.8677 Q2273.64 57.8677 2276.84 54.1178 Q2280.07 50.3331 2280.07 44.0831 L2280.07 42.6595 L2273.71 42.6595 M2286.45 40.0206 L2286.45 62.208 L2280.07 62.208 L2280.07 56.3053 Q2277.88 59.8469 2274.61 61.5483 Q2271.35 63.2149 2266.63 63.2149 Q2260.66 63.2149 2257.11 59.8816 Q2253.61 56.5136 2253.61 50.8886 Q2253.61 44.3262 2257.98 40.9928 Q2262.39 37.6595 2271.11 37.6595 L2280.07 37.6595 L2280.07 37.0345 Q2280.07 32.6248 2277.15 30.229 Q2274.27 27.7985 2269.02 27.7985 Q2265.69 27.7985 2262.53 28.5971 Q2259.37 29.3957 2256.46 30.9929 L2256.46 25.0901 Q2259.96 23.736 2263.26 23.0763 Q2266.56 22.3818 2269.68 22.3818 Q2278.12 22.3818 2282.29 26.7568 Q2286.45 31.1318 2286.45 40.0206 Z" fill="#000000" fill-rule="nonzero" fill-opacity="1" /><path clip-path="url(#clip180)" d="M2331.94 38.7359 L2331.94 62.208 L2325.55 62.208 L2325.55 38.9442 Q2325.55 33.4234 2323.4 30.6804 Q2321.25 27.9374 2316.94 27.9374 Q2311.77 27.9374 2308.78 31.2359 Q2305.8 34.5345 2305.8 40.229 L2305.8 62.208 L2299.37 62.208 L2299.37 23.3193 L2305.8 23.3193 L2305.8 29.361 Q2308.09 25.854 2311.18 24.1179 Q2314.3 22.3818 2318.36 22.3818 Q2325.07 22.3818 2328.5 26.5485 Q2331.94 30.6804 2331.94 38.7359 Z" fill="#000000" fill-rule="nonzero" fill-opacity="1" /><path clip-path="url(#clip180)" d="M2372.67 24.8124 L2372.67 30.7846 Q2369.96 29.2915 2367.22 28.5623 Q2364.51 27.7985 2361.73 27.7985 Q2355.52 27.7985 2352.08 31.7568 Q2348.64 35.6804 2348.64 42.7984 Q2348.64 49.9164 2352.08 53.8747 Q2355.52 57.7983 2361.73 57.7983 Q2364.51 57.7983 2367.22 57.0691 Q2369.96 56.3053 2372.67 54.8122 L2372.67 60.715 Q2370 61.9649 2367.11 62.5899 Q2364.27 63.2149 2361.04 63.2149 Q2352.25 63.2149 2347.08 57.6941 Q2341.91 52.1733 2341.91 42.7984 Q2341.91 33.2845 2347.11 27.8332 Q2352.36 22.3818 2361.45 22.3818 Q2364.41 22.3818 2367.22 23.0068 Q2370.03 23.5971 2372.67 24.8124 M2363.64 62.208 Q2365.55 64.3608 2366.49 66.1663 Q2367.43 68.0066 2367.43 69.6732 Q2367.43 72.7635 2365.34 74.326 Q2363.26 75.9232 2359.16 75.9232 Q2357.57 75.9232 2356.04 75.7149 Q2354.54 75.5065 2353.05 75.0899 L2353.05 70.5413 Q2354.23 71.1316 2355.52 71.3746 Q2356.8 71.6524 2358.43 71.6524 Q2360.48 71.6524 2361.52 70.8191 Q2362.57 69.9857 2362.57 68.3885 Q2362.57 67.3469 2361.8 65.8191 Q2361.07 64.326 2359.51 62.208 L2363.64 62.208 Z" fill="#000000" fill-rule="nonzero" fill-opacity="1" /><path clip-path="url(#clip180)" d="M2401.45 42.6595 Q2393.71 42.6595 2390.73 44.4303 Q2387.74 46.2011 2387.74 50.472 Q2387.74 53.8747 2389.96 55.8886 Q2392.22 57.8677 2396.07 57.8677 Q2401.38 57.8677 2404.58 54.1178 Q2407.81 50.3331 2407.81 44.0831 L2407.81 42.6595 L2401.45 42.6595 M2414.2 40.0206 L2414.2 62.208 L2407.81 62.208 L2407.81 56.3053 Q2405.62 59.8469 2402.36 61.5483 Q2399.09 63.2149 2394.37 63.2149 Q2388.4 63.2149 2384.86 59.8816 Q2381.35 56.5136 2381.35 50.8886 Q2381.35 44.3262 2385.73 40.9928 Q2390.13 37.6595 2398.85 37.6595 L2407.81 37.6595 L2407.81 37.0345 Q2407.81 32.6248 2404.89 30.229 Q2402.01 27.7985 2396.77 27.7985 Q2393.43 27.7985 2390.27 28.5971 Q2387.11 29.3957 2384.2 30.9929 L2384.2 25.0901 Q2387.7 23.736 2391 23.0763 Q2394.3 22.3818 2397.43 22.3818 Q2405.86 22.3818 2410.03 26.7568 Q2414.2 31.1318 2414.2 40.0206 Z" fill="#000000" fill-rule="nonzero" fill-opacity="1" /><path clip-path="url(#clip182)" d="M316.418 2145.95 L330.256 2125.64 L344.094 2104.24 L357.932 2081.7 L371.769 2058 L385.607 2033.11 L399.445 2006.96 L413.283 1979.59 L427.121 1951 L440.958 1921.19 L454.796 1890.12 L468.634 1858.15 L482.472 1825.09 L496.31 1790.95 L510.148 1755.72 L523.985 1719.34 L537.823 1682 L551.661 1643.44 L565.499 1604.1 L579.337 1564.05 L593.174 1523.36 L607.012 1482.14 L620.85 1440.51 L634.688 1398.55 L648.526 1356.63 L662.364 1314.48 L676.201 1272.02 L690.039 1229.71 L703.877 1187.65 L717.715 1146.25 L731.553 1105.67 L745.39 1065.68 L759.228 1026.53 L773.066 988.446 L786.904 951.332 L800.742 914.909 L814.58 879.151 L828.417 845.015 L842.255 812.06 L856.093 781.242 L869.931 751.721 L883.769 723.391 L897.606 696.057 L911.444 669.002 L925.282 642.737 L939.12 617.713 L952.958 594.753 L966.796 572.084 L980.633 551.31 L994.471 531.511 L1008.31 512.085 L1022.15 494.369 L1035.98 477.663 L1049.82 462.052 L1063.66 447.377 L1077.5 433.871 L1091.34 420.958 L1105.17 409.635 L1119.01 398.673 L1132.85 388.152 L1146.69 379.424 L1160.53 371.319 L1174.36 362.611 L1188.2 354.274 L1202.04 346.456 L1215.88 339.487 L1229.71 334.105 L1243.55 328.931 L1257.39 323.998 L1271.23 320.01 L1285.07 316.302 L1298.9 312.858 L1312.74 309.591 L1326.58 305.98 L1340.42 302.286 L1354.25 298.836 L1368.09 295.62 L1381.93 292.627 L1395.77 290.062 L1409.61 287.896 L1423.44 285.946 L1437.28 284.078 L1451.12 282.181 L1464.96 280.447 L1478.79 278.924 L1492.63 277.461 L1506.47 276.117 L1520.31 275.054 L1534.15 273.929 L1547.98 272.81 L1561.82 271.768 L1575.66 270.808 L1589.5 269.914 L1603.34 269.084 L1617.17 268.313 L1631.01 267.598 L1644.85 266.936 L1658.69 266.324 L1672.52 265.757 L1686.36 265.234 L1700.2 264.753 L1714.04 264.355 L1727.88 263.985 L1741.71 263.61 L1755.55 263.262 L1769.39 262.938 L1783.23 262.637 L1797.06 262.358 L1810.9 262.098 L1824.74 261.857 L1838.58 261.633 L1852.42 261.425 L1866.25 261.232 L1880.09 261.052 L1893.93 260.884 L1907.77 260.728 L1921.61 260.584 L1935.44 260.45 L1949.28 260.326 L1963.12 260.213 L1976.96 260.108 L1990.79 260.012 L2004.63 259.923 L2018.47 259.842 L2032.31 259.767 L2046.15 259.698 L2059.98 259.634 L2073.82 259.573 L2087.66 259.518 L2101.5 259.468 L2115.33 259.421 L2129.17 259.378 L2143.01 259.338 L2156.85 259.301 L2170.69 259.266 L2184.52 259.233 L2198.36 259.2 L2212.2 259.169 L2226.04 259.14 L2239.87 259.113 L2253.71 259.087 L2267.55 259.064 L2281.39 259.043 L2295.23 259.023 L2309.06 259.005 L2322.9 258.988 L2336.74 258.973 L2350.58 258.959 L2364.42 258.946 L2378.25 258.934 L2392.09 258.923 L2405.93 258.912 L2419.77 258.902 L2433.6 258.893 L2447.44 258.884 L2461.28 258.877 L2475.12 258.869 L2488.96 258.863 L2502.79 258.856 L2516.63 258.85 L2530.47 258.845 L2544.31 258.839 L2558.14 258.834 L2571.98 258.828 L2585.82 258.823 L2599.66 258.819 L2613.5 258.814 L2627.33 258.81 L2641.17 258.807 L2655.01 258.804 L2668.85 258.801 L2682.69 258.798 L2696.52 258.796 L2710.36 258.794 L2724.2 258.793 L2738.04 258.792 L2751.87 258.791 L2765.71 258.79 L2779.55 258.789 L2793.39 258.789 L2807.23 258.788 L2821.06 258.788 L2834.9 258.787 L2848.74 258.787 L2862.58 258.786 L2876.41 258.786 L2890.25 258.786 L2904.09 258.786 L2917.93 258.786 L2931.77 258.787 L2945.6 258.787 L2959.44 258.787 L2973.28 258.788 L2987.12 258.788 L3000.96 258.788 L3014.79 258.788 L3028.63 258.787 L3042.47 258.786 L3056.31 258.785 L3070.14 258.785 L3070.14 180.282 L3056.31 180.283 L3042.47 180.284 L3028.63 180.285 L3014.79 180.286 L3000.96 180.287 L2987.12 180.288 L2973.28 180.289 L2959.44 180.29 L2945.6 180.291 L2931.77 180.291 L2917.93 180.291 L2904.09 180.291 L2890.25 180.29 L2876.41 180.29 L2862.58 180.288 L2848.74 180.287 L2834.9 180.286 L2821.06 180.285 L2807.23 180.284 L2793.39 180.283 L2779.55 180.282 L2765.71 180.282 L2751.87 180.282 L2738.04 180.283 L2724.2 180.283 L2710.36 180.284 L2696.52 180.286 L2682.69 180.288 L2668.85 180.291 L2655.01 180.294 L2641.17 180.297 L2627.33 180.301 L2613.5 180.305 L2599.66 180.31 L2585.82 180.315 L2571.98 180.321 L2558.14 180.326 L2544.31 180.333 L2530.47 180.339 L2516.63 180.345 L2502.79 180.352 L2488.96 180.359 L2475.12 180.365 L2461.28 180.371 L2447.44 180.377 L2433.6 180.382 L2419.77 180.388 L2405.93 180.394 L2392.09 180.4 L2378.25 180.407 L2364.42 180.415 L2350.58 180.424 L2336.74 180.434 L2322.9 180.446 L2309.06 180.459 L2295.23 180.474 L2281.39 180.491 L2267.55 180.509 L2253.71 180.53 L2239.87 180.552 L2226.04 180.577 L2212.2 180.604 L2198.36 180.633 L2184.52 180.664 L2170.69 180.697 L2156.85 180.733 L2143.01 180.771 L2129.17 180.81 L2115.33 180.851 L2101.5 180.892 L2087.66 180.935 L2073.82 180.979 L2059.98 181.027 L2046.15 181.078 L2032.31 181.135 L2018.47 181.196 L2004.63 181.264 L1990.79 181.338 L1976.96 181.42 L1963.12 181.511 L1949.28 181.61 L1935.44 181.719 L1921.61 181.837 L1907.77 181.966 L1893.93 182.106 L1880.09 182.257 L1866.25 182.42 L1852.42 182.595 L1838.58 182.782 L1824.74 183.01 L1810.9 183.26 L1797.06 183.527 L1783.23 183.814 L1769.39 184.12 L1755.55 184.448 L1741.71 184.8 L1727.88 185.18 L1714.04 185.59 L1700.2 186.034 L1686.36 186.515 L1672.52 187.028 L1658.69 187.578 L1644.85 188.186 L1631.01 188.977 L1617.17 189.831 L1603.34 190.746 L1589.5 191.723 L1575.66 192.775 L1561.82 193.902 L1547.98 195.109 L1534.15 196.401 L1520.31 197.676 L1506.47 198.982 L1492.63 200.39 L1478.79 201.91 L1464.96 203.539 L1451.12 205.288 L1437.28 207.285 L1423.44 209.533 L1409.61 211.723 L1395.77 214.287 L1381.93 217.249 L1368.09 220.417 L1354.25 223.298 L1340.42 225.905 L1326.58 228.674 L1312.74 231.984 L1298.9 235.27 L1285.07 239.407 L1271.23 243.881 L1257.39 248.027 L1243.55 252.433 L1229.71 257.217 L1215.88 262.548 L1202.04 268.232 L1188.2 274.214 L1174.36 281.372 L1160.53 288.451 L1146.69 295.758 L1132.85 303.587 L1119.01 312.022 L1105.17 320.847 L1091.34 330.072 L1077.5 339.934 L1063.66 350.469 L1049.82 361.711 L1035.98 373.698 L1022.15 386.034 L1008.31 399.136 L994.471 414.433 L980.633 430.796 L966.796 447.605 L952.958 465.273 L939.12 483.309 L925.282 501.699 L911.444 521.347 L897.606 542.443 L883.769 563.77 L869.931 587.12 L856.093 611.684 L842.255 638.028 L828.417 664.555 L814.58 692.933 L800.742 722.283 L786.904 752.62 L773.066 783.847 L759.228 816.323 L745.39 849.959 L731.553 884.715 L717.715 920.545 L703.877 957.468 L690.039 995.175 L676.201 1033.84 L662.364 1073.3 L648.526 1113.46 L634.688 1153.79 L620.85 1194.66 L607.012 1236.87 L593.174 1279.04 L579.337 1321.49 L565.499 1363.98 L551.661 1406.37 L537.823 1448.34 L523.985 1489.5 L510.148 1530.08 L496.31 1570.14 L482.472 1609.59 L468.634 1648.4 L454.796 1686.59 L440.958 1723.86 L427.121 1760.17 L413.283 1795.46 L399.445 1829.67 L385.607 1862.69 L371.769 1894.51 L357.932 1925.15 L344.094 1954.63 L330.256 1982.98 L316.418 2010.12  Z" fill="#009af9" fill-rule="evenodd" fill-opacity="0.2"/>
<polyline clip-path="url(#clip182)" style="stroke:#009af9; stroke-linecap:round; stroke-linejoin:round; stroke-width:12; stroke-opacity:1; fill:none" points="316.418,2085.25 330.256,2061.7 344.094,2037 357.932,2011.1 371.769,1984 385.607,1955.69 399.445,1926.17 413.283,1895.41 427.121,1863.46 440.958,1830.35 454.796,1796.08 468.634,1760.59 482.472,1724.07 496.31,1686.81 510.148,1648.84 523.985,1609.94 537.823,1570.2 551.661,1529.82 565.499,1488.91 579.337,1447.59 593.174,1405.96 607.012,1364.14 620.85,1322.22 634.688,1279.64 648.526,1237.19 662.364,1195.52 676.201,1154.84 690.039,1114.87 703.877,1075.13 717.715,1036.06 731.553,997.262 745.39,959.164 759.228,921.961 773.066,885.783 786.904,851.065 800.742,817.406 814.58,784.686 828.417,753.508 842.255,723.653 856.093,695.358 869.931,668.636 883.769,642.2 897.606,617.689 911.444,593.222 925.282,571.992 939.12,551.439 952.958,531.138 966.796,510.153 980.633,491.525 994.471,474.788 1008.31,458.52 1022.15,443.051 1035.98,428.442 1049.82,414.557 1063.66,401.415 1077.5,390.199 1091.34,378.958 1105.17,368.277 1119.01,358.987 1132.85,349.857 1146.69,341.686 1160.53,333.593 1174.36,326.267 1188.2,319.463 1202.04,312.674 1215.88,306.278 1229.71,300.778 1243.55,294.894 1257.39,290.048 1271.23,285.468 1285.07,280.523 1298.9,276.258 1312.74,272.216 1326.58,268.385 1340.42,264.818 1354.25,261.663 1368.09,258.489 1381.93,255.537 1395.77,253.119 1409.61,250.582 1423.44,248.292 1437.28,246.153 1451.12,244.173 1464.96,242.342 1478.79,240.651 1492.63,239.119 1506.47,237.755 1520.31,236.495 1534.15,235.261 1547.98,234.11 1561.82,233.035 1575.66,232.14 1589.5,231.347 1603.34,230.449 1617.17,229.666 1631.01,228.939 1644.85,228.313 1658.69,227.806 1672.52,227.337 1686.36,226.904 1700.2,226.504 1714.04,226.135 1727.88,225.768 1741.71,225.414 1755.55,225.087 1769.39,224.784 1783.23,224.501 1797.06,224.236 1810.9,223.946 1824.74,223.67 1838.58,223.411 1852.42,223.17 1866.25,222.945 1880.09,222.736 1893.93,222.542 1907.77,222.363 1921.61,222.203 1935.44,222.081 1949.28,221.968 1963.12,221.864 1976.96,221.769 1990.79,221.682 2004.63,221.603 2018.47,221.531 2032.31,221.465 2046.15,221.404 2059.98,221.349 2073.82,221.297 2087.66,221.249 2101.5,221.203 2115.33,221.16 2129.17,221.118 2143.01,221.079 2156.85,221.042 2170.69,221.007 2184.52,220.974 2198.36,220.942 2212.2,220.913 2226.04,220.885 2239.87,220.86 2253.71,220.837 2267.55,220.815 2281.39,220.796 2295.23,220.778 2309.06,220.762 2322.9,220.748 2336.74,220.735 2350.58,220.724 2364.42,220.714 2378.25,220.705 2392.09,220.697 2405.93,220.689 2419.77,220.683 2433.6,220.677 2447.44,220.671 2461.28,220.665 2475.12,220.659 2488.96,220.653 2502.79,220.648 2516.63,220.642 2530.47,220.637 2544.31,220.631 2558.14,220.626 2571.98,220.62 2585.82,220.615 2599.66,220.61 2613.5,220.606 2627.33,220.601 2641.17,220.598 2655.01,220.594 2668.85,220.591 2682.69,220.589 2696.52,220.586 2710.36,220.584 2724.2,220.583 2738.04,220.582 2751.87,220.581 2765.71,220.581 2779.55,220.581 2793.39,220.581 2807.23,220.581 2821.06,220.581 2834.9,220.582 2848.74,220.582 2862.58,220.583 2876.41,220.583 2890.25,220.584 2904.09,220.584 2917.93,220.583 2931.77,220.583 2945.6,220.583 2959.44,220.583 2973.28,220.583 2987.12,220.582 3000.96,220.582 3014.79,220.581 3028.63,220.581 3042.47,220.58 3056.31,220.579 3070.14,220.578 "/>
<path clip-path="url(#clip182)" d="M316.418 2133.8 L330.256 2112.82 L344.094 2090.69 L357.932 2067.19 L371.769 2042.62 L385.607 2017.09 L399.445 1990.34 L413.283 1962.32 L427.121 1932.93 L440.958 1902.33 L454.796 1870.47 L468.634 1837.43 L482.472 1803.23 L496.31 1767.93 L510.148 1731.56 L523.985 1694.18 L537.823 1655.86 L551.661 1616.69 L565.499 1576.75 L579.337 1536.16 L593.174 1495.24 L607.012 1453.86 L620.85 1412.15 L634.688 1370.29 L648.526 1328.42 L662.364 1286.14 L676.201 1244.14 L690.039 1202.73 L703.877 1161.9 L717.715 1121.49 L731.553 1080.66 L745.39 1041.02 L759.228 1001.96 L773.066 963.914 L786.904 926.807 L800.742 890.325 L814.58 855.41 L828.417 821.532 L842.255 788.762 L856.093 757.175 L869.931 727.314 L883.769 698.805 L897.606 671.697 L911.444 645.186 L925.282 619.564 L939.12 595.189 L952.958 572.666 L966.796 550.877 L980.633 529.995 L994.471 510.913 L1008.31 492.864 L1022.15 475.399 L1035.98 459.326 L1049.82 444.224 L1063.66 430.276 L1077.5 416.926 L1091.34 406.482 L1105.17 396.37 L1119.01 385.75 L1132.85 376.135 L1146.69 366.392 L1160.53 356.913 L1174.36 349.181 L1188.2 341.353 L1202.04 333.913 L1215.88 327.267 L1229.71 321.717 L1243.55 316.37 L1257.39 311.366 L1271.23 306.033 L1285.07 301.322 L1298.9 297.317 L1312.74 293.343 L1326.58 289.44 L1340.42 285.885 L1354.25 282.993 L1368.09 279.882 L1381.93 277.582 L1395.77 275.354 L1409.61 272.991 L1423.44 271.035 L1437.28 269.301 L1451.12 267.715 L1464.96 266.117 L1478.79 264.806 L1492.63 263.439 L1506.47 262.343 L1520.31 261.264 L1534.15 260.244 L1547.98 259.293 L1561.82 258.409 L1575.66 257.582 L1589.5 256.784 L1603.34 256.042 L1617.17 255.352 L1631.01 254.713 L1644.85 254.142 L1658.69 253.641 L1672.52 253.174 L1686.36 252.683 L1700.2 252.173 L1714.04 251.763 L1727.88 251.394 L1741.71 251.052 L1755.55 250.765 L1769.39 250.507 L1783.23 250.226 L1797.06 249.913 L1810.9 249.66 L1824.74 249.44 L1838.58 249.233 L1852.42 249.037 L1866.25 248.854 L1880.09 248.691 L1893.93 248.549 L1907.77 248.416 L1921.61 248.291 L1935.44 248.173 L1949.28 248.061 L1963.12 247.956 L1976.96 247.858 L1990.79 247.768 L2004.63 247.683 L2018.47 247.605 L2032.31 247.534 L2046.15 247.468 L2059.98 247.407 L2073.82 247.352 L2087.66 247.301 L2101.5 247.255 L2115.33 247.213 L2129.17 247.172 L2143.01 247.135 L2156.85 247.1 L2170.69 247.069 L2184.52 247.04 L2198.36 247.013 L2212.2 246.988 L2226.04 246.964 L2239.87 246.94 L2253.71 246.917 L2267.55 246.896 L2281.39 246.875 L2295.23 246.855 L2309.06 246.837 L2322.9 246.82 L2336.74 246.804 L2350.58 246.789 L2364.42 246.776 L2378.25 246.763 L2392.09 246.752 L2405.93 246.742 L2419.77 246.732 L2433.6 246.724 L2447.44 246.717 L2461.28 246.71 L2475.12 246.704 L2488.96 246.699 L2502.79 246.695 L2516.63 246.691 L2530.47 246.688 L2544.31 246.685 L2558.14 246.683 L2571.98 246.681 L2585.82 246.679 L2599.66 246.677 L2613.5 246.675 L2627.33 246.672 L2641.17 246.67 L2655.01 246.666 L2668.85 246.663 L2682.69 246.66 L2696.52 246.657 L2710.36 246.655 L2724.2 246.653 L2738.04 246.65 L2751.87 246.648 L2765.71 246.647 L2779.55 246.645 L2793.39 246.644 L2807.23 246.642 L2821.06 246.641 L2834.9 246.64 L2848.74 246.639 L2862.58 246.639 L2876.41 246.638 L2890.25 246.637 L2904.09 246.637 L2917.93 246.636 L2931.77 246.636 L2945.6 246.635 L2959.44 246.635 L2973.28 246.635 L2987.12 246.635 L3000.96 246.634 L3014.79 246.634 L3028.63 246.634 L3042.47 246.634 L3056.31 246.633 L3070.14 246.633 L3070.14 197.973 L3056.31 197.973 L3042.47 197.974 L3028.63 197.975 L3014.79 197.976 L3000.96 197.977 L2987.12 197.977 L2973.28 197.978 L2959.44 197.979 L2945.6 197.98 L2931.77 197.981 L2917.93 197.982 L2904.09 197.983 L2890.25 197.984 L2876.41 197.985 L2862.58 197.987 L2848.74 197.988 L2834.9 197.989 L2821.06 197.989 L2807.23 197.989 L2793.39 197.988 L2779.55 197.988 L2765.71 197.987 L2751.87 197.987 L2738.04 197.987 L2724.2 197.987 L2710.36 197.987 L2696.52 197.987 L2682.69 197.989 L2668.85 197.99 L2655.01 197.992 L2641.17 197.995 L2627.33 197.998 L2613.5 198.001 L2599.66 198.006 L2585.82 198.011 L2571.98 198.016 L2558.14 198.022 L2544.31 198.029 L2530.47 198.036 L2516.63 198.043 L2502.79 198.051 L2488.96 198.06 L2475.12 198.069 L2461.28 198.078 L2447.44 198.087 L2433.6 198.097 L2419.77 198.107 L2405.93 198.118 L2392.09 198.128 L2378.25 198.139 L2364.42 198.15 L2350.58 198.162 L2336.74 198.175 L2322.9 198.189 L2309.06 198.204 L2295.23 198.222 L2281.39 198.241 L2267.55 198.262 L2253.71 198.286 L2239.87 198.313 L2226.04 198.342 L2212.2 198.374 L2198.36 198.41 L2184.52 198.448 L2170.69 198.49 L2156.85 198.535 L2143.01 198.584 L2129.17 198.637 L2115.33 198.693 L2101.5 198.752 L2087.66 198.815 L2073.82 198.881 L2059.98 198.949 L2046.15 199.02 L2032.31 199.095 L2018.47 199.175 L2004.63 199.262 L1990.79 199.356 L1976.96 199.46 L1963.12 199.573 L1949.28 199.697 L1935.44 199.833 L1921.61 199.981 L1907.77 200.143 L1893.93 200.32 L1880.09 200.512 L1866.25 200.72 L1852.42 200.945 L1838.58 201.188 L1824.74 201.448 L1810.9 201.728 L1797.06 202.027 L1783.23 202.346 L1769.39 202.686 L1755.55 203.05 L1741.71 203.442 L1727.88 203.864 L1714.04 204.313 L1700.2 204.797 L1686.36 205.322 L1672.52 205.896 L1658.69 206.524 L1644.85 207.187 L1631.01 207.896 L1617.17 208.66 L1603.34 209.483 L1589.5 210.367 L1575.66 211.316 L1561.82 212.325 L1547.98 213.4 L1534.15 214.553 L1520.31 215.795 L1506.47 217.139 L1492.63 218.561 L1478.79 220.101 L1464.96 221.686 L1451.12 223.407 L1437.28 225.238 L1423.44 227.235 L1409.61 229.39 L1395.77 231.601 L1381.93 234.143 L1368.09 236.868 L1354.25 239.74 L1340.42 242.643 L1326.58 245.865 L1312.74 248.882 L1298.9 253.011 L1285.07 256.789 L1271.23 260.862 L1257.39 264.958 L1243.55 270.139 L1229.71 275.433 L1215.88 280.934 L1202.04 286.836 L1188.2 292.746 L1174.36 299.558 L1160.53 306.346 L1146.69 314.072 L1132.85 322.569 L1119.01 331.134 L1105.17 340.098 L1091.34 350.25 L1077.5 359.919 L1063.66 370.093 L1049.82 381.205 L1035.98 394.428 L1022.15 408.592 L1008.31 423.651 L994.471 438.146 L980.633 455.328 L966.796 470.664 L952.958 486.647 L939.12 504.364 L925.282 525.293 L911.444 545.19 L897.606 566.875 L883.769 588.729 L869.931 612.822 L856.093 637.72 L842.255 664.599 L828.417 692.135 L814.58 720.049 L800.742 748.985 L786.904 779.106 L773.066 810.446 L759.228 843.372 L745.39 876.602 L731.553 911.124 L717.715 946.928 L703.877 984.231 L690.039 1023.25 L676.201 1062.75 L662.364 1103.29 L648.526 1144.46 L634.688 1186.11 L620.85 1228.13 L607.012 1270.4 L593.174 1312.82 L579.337 1355.26 L565.499 1397.5 L551.661 1438.53 L537.823 1479.32 L523.985 1519.77 L510.148 1560.37 L496.31 1600.34 L482.472 1639.56 L468.634 1677.76 L454.796 1715.1 L440.958 1751.52 L427.121 1787.09 L413.283 1821.76 L399.445 1855.31 L385.607 1887.69 L371.769 1918.87 L357.932 1948.83 L344.094 1977.57 L330.256 2005.07 L316.418 2031.36  Z" fill="#e26f46" fill-rule="evenodd" fill-opacity="0.2"/>
<polyline clip-path="url(#clip182)" style="stroke:#e26f46; stroke-linecap:round; stroke-linejoin:round; stroke-width:12; stroke-opacity:1; fill:none" points="316.418,2085.25 330.256,2061.7 344.094,2037 357.932,2011.1 371.769,1984 385.607,1955.69 399.445,1926.17 413.283,1895.41 427.121,1863.46 440.958,1830.35 454.796,1796.08 468.634,1760.59 482.472,1724.07 496.31,1686.81 510.148,1648.84 523.985,1609.94 537.823,1570.2 551.661,1529.82 565.499,1488.91 579.337,1447.59 593.174,1405.96 607.012,1364.14 620.85,1322.22 634.688,1279.64 648.526,1237.19 662.364,1195.52 676.201,1154.84 690.039,1114.87 703.877,1075.13 717.715,1036.06 731.553,997.262 745.39,959.164 759.228,921.961 773.066,885.783 786.904,851.065 800.742,817.406 814.58,784.686 828.417,753.508 842.255,723.653 856.093,695.358 869.931,668.636 883.769,642.2 897.606,617.689 911.444,593.222 925.282,571.992 939.12,551.439 952.958,531.138 966.796,510.153 980.633,491.525 994.471,474.788 1008.31,458.52 1022.15,443.051 1035.98,428.442 1049.82,414.557 1063.66,401.415 1077.5,390.199 1091.34,378.958 1105.17,368.277 1119.01,358.987 1132.85,349.857 1146.69,341.686 1160.53,333.593 1174.36,326.267 1188.2,319.463 1202.04,312.674 1215.88,306.278 1229.71,300.778 1243.55,294.894 1257.39,290.048 1271.23,285.468 1285.07,280.523 1298.9,276.258 1312.74,272.216 1326.58,268.385 1340.42,264.818 1354.25,261.663 1368.09,258.489 1381.93,255.537 1395.77,253.119 1409.61,250.582 1423.44,248.292 1437.28,246.153 1451.12,244.173 1464.96,242.342 1478.79,240.651 1492.63,239.119 1506.47,237.755 1520.31,236.495 1534.15,235.261 1547.98,234.11 1561.82,233.035 1575.66,232.14 1589.5,231.347 1603.34,230.449 1617.17,229.666 1631.01,228.939 1644.85,228.313 1658.69,227.806 1672.52,227.337 1686.36,226.904 1700.2,226.504 1714.04,226.135 1727.88,225.768 1741.71,225.414 1755.55,225.087 1769.39,224.784 1783.23,224.501 1797.06,224.236 1810.9,223.946 1824.74,223.67 1838.58,223.411 1852.42,223.17 1866.25,222.945 1880.09,222.736 1893.93,222.542 1907.77,222.363 1921.61,222.203 1935.44,222.081 1949.28,221.968 1963.12,221.864 1976.96,221.769 1990.79,221.682 2004.63,221.603 2018.47,221.531 2032.31,221.465 2046.15,221.404 2059.98,221.349 2073.82,221.297 2087.66,221.249 2101.5,221.203 2115.33,221.16 2129.17,221.118 2143.01,221.079 2156.85,221.042 2170.69,221.007 2184.52,220.974 2198.36,220.942 2212.2,220.913 2226.04,220.885 2239.87,220.86 2253.71,220.837 2267.55,220.815 2281.39,220.796 2295.23,220.778 2309.06,220.762 2322.9,220.748 2336.74,220.735 2350.58,220.724 2364.42,220.714 2378.25,220.705 2392.09,220.697 2405.93,220.689 2419.77,220.683 2433.6,220.677 2447.44,220.671 2461.28,220.665 2475.12,220.659 2488.96,220.653 2502.79,220.648 2516.63,220.642 2530.47,220.637 2544.31,220.631 2558.14,220.626 2571.98,220.62 2585.82,220.615 2599.66,220.61 2613.5,220.606 2627.33,220.601 2641.17,220.598 2655.01,220.594 2668.85,220.591 2682.69,220.589 2696.52,220.586 2710.36,220.584 2724.2,220.583 2738.04,220.582 2751.87,220.581 2765.71,220.581 2779.55,220.581 2793.39,220.581 2807.23,220.581 2821.06,220.581 2834.9,220.582 2848.74,220.582 2862.58,220.583 2876.41,220.583 2890.25,220.584 2904.09,220.584 2917.93,220.583 2931.77,220.583 2945.6,220.583 2959.44,220.583 2973.28,220.583 2987.12,220.582 3000.96,220.582 3014.79,220.581 3028.63,220.581 3042.47,220.58 3056.31,220.579 3070.14,220.578 "/>
<path clip-path="url(#clip180)" d="M2663.79 2135.47 L3055.46 2135.47 L3055.46 1979.95 L2663.79 1979.95  Z" fill="#eaeaea" fill-rule="evenodd" fill-opacity="1"/>
<polyline clip-path="url(#clip180)" style="stroke:#ffffff; stroke-linecap:round; stroke-linejoin:round; stroke-width:4; stroke-opacity:1; fill:none" points="2663.79,2135.47 3055.46,2135.47 3055.46,1979.95 2663.79,1979.95 2663.79,2135.47 "/>
<polyline clip-path="url(#clip180)" style="stroke:#009af9; stroke-linecap:round; stroke-linejoin:round; stroke-width:12; stroke-opacity:1; fill:none" points="2696.23,2031.79 2890.82,2031.79 "/>
<path clip-path="url(#clip180)" d="M2925.48 2048.35 L2925.48 2044.09 Q2927.24 2044.92 2929.04 2045.36 Q2930.85 2045.8 2932.59 2045.8 Q2937.22 2045.8 2939.65 2042.7 Q2942.1 2039.58 2942.45 2033.23 Q2941.1 2035.22 2939.04 2036.29 Q2936.98 2037.35 2934.48 2037.35 Q2929.3 2037.35 2926.27 2034.23 Q2923.26 2031.08 2923.26 2025.64 Q2923.26 2020.32 2926.4 2017.1 Q2929.55 2013.88 2934.78 2013.88 Q2940.78 2013.88 2943.93 2018.49 Q2947.1 2023.07 2947.1 2031.82 Q2947.1 2039.99 2943.21 2044.88 Q2939.34 2049.74 2932.79 2049.74 Q2931.03 2049.74 2929.23 2049.39 Q2927.42 2049.04 2925.48 2048.35 M2934.78 2033.7 Q2937.93 2033.7 2939.76 2031.54 Q2941.61 2029.39 2941.61 2025.64 Q2941.61 2021.91 2939.76 2019.76 Q2937.93 2017.58 2934.78 2017.58 Q2931.64 2017.58 2929.78 2019.76 Q2927.96 2021.91 2927.96 2025.64 Q2927.96 2029.39 2929.78 2031.54 Q2931.64 2033.7 2934.78 2033.7 Z" fill="#000000" fill-rule="nonzero" fill-opacity="1" /><path clip-path="url(#clip180)" d="M2955.55 2014.51 L2973.9 2014.51 L2973.9 2018.44 L2959.83 2018.44 L2959.83 2026.91 Q2960.85 2026.57 2961.87 2026.4 Q2962.89 2026.22 2963.9 2026.22 Q2969.69 2026.22 2973.07 2029.39 Q2976.45 2032.56 2976.45 2037.98 Q2976.45 2043.56 2972.98 2046.66 Q2969.51 2049.74 2963.19 2049.74 Q2961.01 2049.74 2958.74 2049.37 Q2956.5 2049 2954.09 2048.26 L2954.09 2043.56 Q2956.17 2044.69 2958.4 2045.25 Q2960.62 2045.8 2963.09 2045.8 Q2967.1 2045.8 2969.44 2043.7 Q2971.78 2041.59 2971.78 2037.98 Q2971.78 2034.37 2969.44 2032.26 Q2967.1 2030.15 2963.09 2030.15 Q2961.22 2030.15 2959.34 2030.57 Q2957.49 2030.99 2955.55 2031.87 L2955.55 2014.51 Z" fill="#000000" fill-rule="nonzero" fill-opacity="1" /><path clip-path="url(#clip180)" d="M3015.06 2033.86 Q3013.05 2033.86 3011.89 2035.57 Q3010.76 2037.28 3010.76 2040.34 Q3010.76 2043.35 3011.89 2045.08 Q3013.05 2046.8 3015.06 2046.8 Q3017.03 2046.8 3018.16 2045.08 Q3019.32 2043.35 3019.32 2040.34 Q3019.32 2037.31 3018.16 2035.59 Q3017.03 2033.86 3015.06 2033.86 M3015.06 2030.92 Q3018.72 2030.92 3020.87 2033.46 Q3023.02 2036.01 3023.02 2040.34 Q3023.02 2044.67 3020.85 2047.21 Q3018.7 2049.74 3015.06 2049.74 Q3011.36 2049.74 3009.21 2047.21 Q3007.05 2044.67 3007.05 2040.34 Q3007.05 2035.99 3009.21 2033.46 Q3011.38 2030.92 3015.06 2030.92 M2991.17 2016.82 Q2989.18 2016.82 2988.02 2018.56 Q2986.89 2020.27 2986.89 2023.28 Q2986.89 2026.33 2988.02 2028.05 Q2989.16 2029.76 2991.17 2029.76 Q2993.19 2029.76 2994.32 2028.05 Q2995.48 2026.33 2995.48 2023.28 Q2995.48 2020.29 2994.32 2018.56 Q2993.16 2016.82 2991.17 2016.82 M3012.08 2013.88 L3015.78 2013.88 L2994.16 2049.74 L2990.46 2049.74 L3012.08 2013.88 M2991.17 2013.88 Q2994.83 2013.88 2997.01 2016.43 Q2999.18 2018.95 2999.18 2023.28 Q2999.18 2027.65 2997.01 2030.18 Q2994.85 2032.7 2991.17 2032.7 Q2987.49 2032.7 2985.34 2030.18 Q2983.21 2027.63 2983.21 2023.28 Q2983.21 2018.97 2985.36 2016.43 Q2987.52 2013.88 2991.17 2013.88 Z" fill="#000000" fill-rule="nonzero" fill-opacity="1" /><polyline clip-path="url(#clip180)" style="stroke:#e26f46; stroke-linecap:round; stroke-linejoin:round; stroke-width:12; stroke-opacity:1; fill:none" points="2696.23,2083.63 2890.82,2083.63 "/>
<path clip-path="url(#clip180)" d="M2935.59 2081.76 Q2932.45 2081.76 2930.59 2083.92 Q2928.77 2086.07 2928.77 2089.82 Q2928.77 2093.55 2930.59 2095.72 Q2932.45 2097.87 2935.59 2097.87 Q2938.74 2097.87 2940.57 2095.72 Q2942.42 2093.55 2942.42 2089.82 Q2942.42 2086.07 2940.57 2083.92 Q2938.74 2081.76 2935.59 2081.76 M2944.88 2067.11 L2944.88 2071.37 Q2943.12 2070.54 2941.31 2070.1 Q2939.53 2069.66 2937.77 2069.66 Q2933.14 2069.66 2930.69 2072.78 Q2928.26 2075.91 2927.91 2082.23 Q2929.28 2080.21 2931.34 2079.15 Q2933.4 2078.06 2935.87 2078.06 Q2941.08 2078.06 2944.09 2081.23 Q2947.12 2084.38 2947.12 2089.82 Q2947.12 2095.14 2943.97 2098.36 Q2940.83 2101.58 2935.59 2101.58 Q2929.6 2101.58 2926.43 2096.99 Q2923.26 2092.39 2923.26 2083.66 Q2923.26 2075.47 2927.15 2070.61 Q2931.03 2065.72 2937.59 2065.72 Q2939.34 2065.72 2941.13 2066.07 Q2942.93 2066.42 2944.88 2067.11 Z" fill="#000000" fill-rule="nonzero" fill-opacity="1" /><path clip-path="url(#clip180)" d="M2965.18 2084.49 Q2961.84 2084.49 2959.92 2086.28 Q2958.03 2088.06 2958.03 2091.18 Q2958.03 2094.31 2959.92 2096.09 Q2961.84 2097.87 2965.18 2097.87 Q2968.51 2097.87 2970.43 2096.09 Q2972.35 2094.29 2972.35 2091.18 Q2972.35 2088.06 2970.43 2086.28 Q2968.53 2084.49 2965.18 2084.49 M2960.5 2082.5 Q2957.49 2081.76 2955.8 2079.7 Q2954.14 2077.64 2954.14 2074.68 Q2954.14 2070.54 2957.08 2068.13 Q2960.04 2065.72 2965.18 2065.72 Q2970.34 2065.72 2973.28 2068.13 Q2976.22 2070.54 2976.22 2074.68 Q2976.22 2077.64 2974.53 2079.7 Q2972.86 2081.76 2969.88 2082.5 Q2973.26 2083.29 2975.13 2085.58 Q2977.03 2087.87 2977.03 2091.18 Q2977.03 2096.21 2973.95 2098.89 Q2970.9 2101.58 2965.18 2101.58 Q2959.46 2101.58 2956.38 2098.89 Q2953.33 2096.21 2953.33 2091.18 Q2953.33 2087.87 2955.22 2085.58 Q2957.12 2083.29 2960.5 2082.5 M2958.79 2075.12 Q2958.79 2077.8 2960.46 2079.31 Q2962.15 2080.81 2965.18 2080.81 Q2968.19 2080.81 2969.88 2079.31 Q2971.59 2077.8 2971.59 2075.12 Q2971.59 2072.43 2969.88 2070.93 Q2968.19 2069.42 2965.18 2069.42 Q2962.15 2069.42 2960.46 2070.93 Q2958.79 2072.43 2958.79 2075.12 Z" fill="#000000" fill-rule="nonzero" fill-opacity="1" /><path clip-path="url(#clip180)" d="M3014.74 2085.7 Q3012.72 2085.7 3011.57 2087.41 Q3010.43 2089.12 3010.43 2092.18 Q3010.43 2095.19 3011.57 2096.92 Q3012.72 2098.64 3014.74 2098.64 Q3016.71 2098.64 3017.84 2096.92 Q3019 2095.19 3019 2092.18 Q3019 2089.15 3017.84 2087.43 Q3016.71 2085.7 3014.74 2085.7 M3014.74 2082.76 Q3018.4 2082.76 3020.55 2085.3 Q3022.7 2087.85 3022.7 2092.18 Q3022.7 2096.51 3020.52 2099.05 Q3018.37 2101.58 3014.74 2101.58 Q3011.03 2101.58 3008.88 2099.05 Q3006.73 2096.51 3006.73 2092.18 Q3006.73 2087.83 3008.88 2085.3 Q3011.06 2082.76 3014.74 2082.76 M2990.85 2068.66 Q2988.86 2068.66 2987.7 2070.4 Q2986.57 2072.11 2986.57 2075.12 Q2986.57 2078.17 2987.7 2079.89 Q2988.84 2081.6 2990.85 2081.6 Q2992.86 2081.6 2994 2079.89 Q2995.15 2078.17 2995.15 2075.12 Q2995.15 2072.13 2994 2070.4 Q2992.84 2068.66 2990.85 2068.66 M3011.75 2065.72 L3015.46 2065.72 L2993.84 2101.58 L2990.13 2101.58 L3011.75 2065.72 M2990.85 2065.72 Q2994.51 2065.72 2996.68 2068.27 Q2998.86 2070.79 2998.86 2075.12 Q2998.86 2079.49 2996.68 2082.02 Q2994.53 2084.54 2990.85 2084.54 Q2987.17 2084.54 2985.02 2082.02 Q2982.89 2079.47 2982.89 2075.12 Q2982.89 2070.81 2985.04 2068.27 Q2987.19 2065.72 2990.85 2065.72 Z" fill="#000000" fill-rule="nonzero" fill-opacity="1" /></svg>
