<?xml version="1.0" encoding="utf-8"?>
<svg xmlns="http://www.w3.org/2000/svg" xmlns:xlink="http://www.w3.org/1999/xlink" width="800" height="600" viewBox="0 0 3200 2400">
<defs>
  <clipPath id="clip030">
    <rect x="0" y="0" width="3200" height="2400"/>
  </clipPath>
</defs>
<path clip-path="url(#clip030)" d="
M0 2400 L3200 2400 L3200 0 L0 0  Z
  " fill="#ffffff" fill-rule="evenodd" fill-opacity="1"/>
<defs>
  <clipPath id="clip031">
    <rect x="640" y="0" width="2241" height="2241"/>
  </clipPath>
</defs>
<path clip-path="url(#clip030)" d="
M233.806 2204.92 L3152.76 2204.92 L3152.76 121.312 L233.806 121.312  Z
  " fill="#eaeaea" fill-rule="evenodd" fill-opacity="1"/>
<defs>
  <clipPath id="clip032">
    <rect x="233" y="121" width="2920" height="2085"/>
  </clipPath>
</defs>
<polyline clip-path="url(#clip032)" style="stroke:#ffffff; stroke-linecap:butt; stroke-linejoin:round; stroke-width:4; stroke-opacity:1; fill:none" points="
  316.418,2204.92 316.418,121.312 
  "/>
<polyline clip-path="url(#clip032)" style="stroke:#ffffff; stroke-linecap:butt; stroke-linejoin:round; stroke-width:4; stroke-opacity:1; fill:none" points="
  867.163,2204.92 867.163,121.312 
  "/>
<polyline clip-path="url(#clip032)" style="stroke:#ffffff; stroke-linecap:butt; stroke-linejoin:round; stroke-width:4; stroke-opacity:1; fill:none" points="
  1417.91,2204.92 1417.91,121.312 
  "/>
<polyline clip-path="url(#clip032)" style="stroke:#ffffff; stroke-linecap:butt; stroke-linejoin:round; stroke-width:4; stroke-opacity:1; fill:none" points="
  1968.65,2204.92 1968.65,121.312 
  "/>
<polyline clip-path="url(#clip032)" style="stroke:#ffffff; stroke-linecap:butt; stroke-linejoin:round; stroke-width:4; stroke-opacity:1; fill:none" points="
  2519.4,2204.92 2519.4,121.312 
  "/>
<polyline clip-path="url(#clip032)" style="stroke:#ffffff; stroke-linecap:butt; stroke-linejoin:round; stroke-width:4; stroke-opacity:1; fill:none" points="
  3070.14,2204.92 3070.14,121.312 
  "/>
<polyline clip-path="url(#clip032)" style="stroke:#ffffff; stroke-linecap:butt; stroke-linejoin:round; stroke-width:2; stroke-opacity:1; fill:none" points="
  591.791,2204.92 591.791,121.312 
  "/>
<polyline clip-path="url(#clip032)" style="stroke:#ffffff; stroke-linecap:butt; stroke-linejoin:round; stroke-width:2; stroke-opacity:1; fill:none" points="
  1142.54,2204.92 1142.54,121.312 
  "/>
<polyline clip-path="url(#clip032)" style="stroke:#ffffff; stroke-linecap:butt; stroke-linejoin:round; stroke-width:2; stroke-opacity:1; fill:none" points="
  1693.28,2204.92 1693.28,121.312 
  "/>
<polyline clip-path="url(#clip032)" style="stroke:#ffffff; stroke-linecap:butt; stroke-linejoin:round; stroke-width:2; stroke-opacity:1; fill:none" points="
  2244.03,2204.92 2244.03,121.312 
  "/>
<polyline clip-path="url(#clip032)" style="stroke:#ffffff; stroke-linecap:butt; stroke-linejoin:round; stroke-width:2; stroke-opacity:1; fill:none" points="
  2794.77,2204.92 2794.77,121.312 
  "/>
<polyline clip-path="url(#clip030)" style="stroke:#ffffff; stroke-linecap:butt; stroke-linejoin:round; stroke-width:4; stroke-opacity:1; fill:none" points="
  233.806,2204.92 3152.76,2204.92 
  "/>
<polyline clip-path="url(#clip030)" style="stroke:#333333; stroke-linecap:butt; stroke-linejoin:round; stroke-width:4; stroke-opacity:1; fill:none" points="
  316.418,2204.92 316.418,2223.82 
  "/>
<polyline clip-path="url(#clip030)" style="stroke:#333333; stroke-linecap:butt; stroke-linejoin:round; stroke-width:4; stroke-opacity:1; fill:none" points="
  867.163,2204.92 867.163,2223.82 
  "/>
<polyline clip-path="url(#clip030)" style="stroke:#333333; stroke-linecap:butt; stroke-linejoin:round; stroke-width:4; stroke-opacity:1; fill:none" points="
  1417.91,2204.92 1417.91,2223.82 
  "/>
<polyline clip-path="url(#clip030)" style="stroke:#333333; stroke-linecap:butt; stroke-linejoin:round; stroke-width:4; stroke-opacity:1; fill:none" points="
  1968.65,2204.92 1968.65,2223.82 
  "/>
<polyline clip-path="url(#clip030)" style="stroke:#333333; stroke-linecap:butt; stroke-linejoin:round; stroke-width:4; stroke-opacity:1; fill:none" points="
  2519.4,2204.92 2519.4,2223.82 
  "/>
<polyline clip-path="url(#clip030)" style="stroke:#333333; stroke-linecap:butt; stroke-linejoin:round; stroke-width:4; stroke-opacity:1; fill:none" points="
  3070.14,2204.92 3070.14,2223.82 
  "/>
<polyline clip-path="url(#clip030)" style="stroke:#333333; stroke-linecap:butt; stroke-linejoin:round; stroke-width:4; stroke-opacity:1; fill:none" points="
  591.791,2204.92 591.791,2214.37 
  "/>
<polyline clip-path="url(#clip030)" style="stroke:#333333; stroke-linecap:butt; stroke-linejoin:round; stroke-width:4; stroke-opacity:1; fill:none" points="
  1142.54,2204.92 1142.54,2214.37 
  "/>
<polyline clip-path="url(#clip030)" style="stroke:#333333; stroke-linecap:butt; stroke-linejoin:round; stroke-width:4; stroke-opacity:1; fill:none" points="
  1693.28,2204.92 1693.28,2214.37 
  "/>
<polyline clip-path="url(#clip030)" style="stroke:#333333; stroke-linecap:butt; stroke-linejoin:round; stroke-width:4; stroke-opacity:1; fill:none" points="
  2244.03,2204.92 2244.03,2214.37 
  "/>
<polyline clip-path="url(#clip030)" style="stroke:#333333; stroke-linecap:butt; stroke-linejoin:round; stroke-width:4; stroke-opacity:1; fill:none" points="
  2794.77,2204.92 2794.77,2214.37 
  "/>
<path clip-path="url(#clip030)" d="M316.418 2255.04 Q312.807 2255.04 310.978 2258.6 Q309.173 2262.14 309.173 2269.27 Q309.173 2276.38 310.978 2279.95 Q312.807 2283.49 316.418 2283.49 Q320.052 2283.49 321.858 2279.95 Q323.687 2276.38 323.687 2269.27 Q323.687 2262.14 321.858 2258.6 Q320.052 2255.04 316.418 2255.04 M316.418 2251.33 Q322.228 2251.33 325.284 2255.94 Q328.362 2260.52 328.362 2269.27 Q328.362 2278 325.284 2282.61 Q322.228 2287.19 316.418 2287.19 Q310.608 2287.19 307.529 2282.61 Q304.474 2278 304.474 2269.27 Q304.474 2260.52 307.529 2255.94 Q310.608 2251.33 316.418 2251.33 Z" fill="#4c4c4c" fill-rule="evenodd" fill-opacity="1" /><path clip-path="url(#clip030)" d="M857.545 2282.58 L865.184 2282.58 L865.184 2256.22 L856.874 2257.89 L856.874 2253.63 L865.138 2251.96 L869.814 2251.96 L869.814 2282.58 L877.453 2282.58 L877.453 2286.52 L857.545 2286.52 L857.545 2282.58 Z" fill="#4c4c4c" fill-rule="evenodd" fill-opacity="1" /><path clip-path="url(#clip030)" d="M1412.56 2282.58 L1428.88 2282.58 L1428.88 2286.52 L1406.94 2286.52 L1406.94 2282.58 Q1409.6 2279.83 1414.18 2275.2 Q1418.79 2270.55 1419.97 2269.21 Q1422.21 2266.68 1423.09 2264.95 Q1424 2263.19 1424 2261.5 Q1424 2258.74 1422.05 2257.01 Q1420.13 2255.27 1417.03 2255.27 Q1414.83 2255.27 1412.38 2256.03 Q1409.95 2256.8 1407.17 2258.35 L1407.17 2253.63 Q1409.99 2252.49 1412.45 2251.91 Q1414.9 2251.33 1416.94 2251.33 Q1422.31 2251.33 1425.5 2254.02 Q1428.7 2256.71 1428.7 2261.2 Q1428.7 2263.33 1427.89 2265.25 Q1427.1 2267.14 1424.99 2269.74 Q1424.41 2270.41 1421.31 2273.63 Q1418.21 2276.82 1412.56 2282.58 Z" fill="#4c4c4c" fill-rule="evenodd" fill-opacity="1" /><path clip-path="url(#clip030)" d="M1972.9 2267.89 Q1976.26 2268.6 1978.13 2270.87 Q1980.03 2273.14 1980.03 2276.47 Q1980.03 2281.59 1976.51 2284.39 Q1972.99 2287.19 1966.51 2287.19 Q1964.34 2287.19 1962.02 2286.75 Q1959.73 2286.33 1957.28 2285.48 L1957.28 2280.96 Q1959.22 2282.1 1961.54 2282.68 Q1963.85 2283.26 1966.37 2283.26 Q1970.77 2283.26 1973.06 2281.52 Q1975.38 2279.78 1975.38 2276.47 Q1975.38 2273.42 1973.23 2271.71 Q1971.1 2269.97 1967.28 2269.97 L1963.25 2269.97 L1963.25 2266.13 L1967.46 2266.13 Q1970.91 2266.13 1972.74 2264.76 Q1974.57 2263.37 1974.57 2260.78 Q1974.57 2258.12 1972.67 2256.71 Q1970.79 2255.27 1967.28 2255.27 Q1965.36 2255.27 1963.16 2255.69 Q1960.96 2256.1 1958.32 2256.98 L1958.32 2252.82 Q1960.98 2252.08 1963.29 2251.71 Q1965.63 2251.33 1967.69 2251.33 Q1973.02 2251.33 1976.12 2253.77 Q1979.22 2256.17 1979.22 2260.29 Q1979.22 2263.16 1977.58 2265.15 Q1975.93 2267.12 1972.9 2267.89 Z" fill="#4c4c4c" fill-rule="evenodd" fill-opacity="1" /><path clip-path="url(#clip030)" d="M2522.41 2256.03 L2510.6 2274.48 L2522.41 2274.48 L2522.41 2256.03 M2521.18 2251.96 L2527.06 2251.96 L2527.06 2274.48 L2531.99 2274.48 L2531.99 2278.37 L2527.06 2278.37 L2527.06 2286.52 L2522.41 2286.52 L2522.41 2278.37 L2506.81 2278.37 L2506.81 2273.86 L2521.18 2251.96 Z" fill="#4c4c4c" fill-rule="evenodd" fill-opacity="1" /><path clip-path="url(#clip030)" d="M3060.42 2251.96 L3078.78 2251.96 L3078.78 2255.9 L3064.7 2255.9 L3064.7 2264.37 Q3065.72 2264.02 3066.74 2263.86 Q3067.76 2263.67 3068.78 2263.67 Q3074.57 2263.67 3077.95 2266.84 Q3081.32 2270.02 3081.32 2275.43 Q3081.32 2281.01 3077.85 2284.11 Q3074.38 2287.19 3068.06 2287.19 Q3065.88 2287.19 3063.62 2286.82 Q3061.37 2286.45 3058.96 2285.71 L3058.96 2281.01 Q3061.05 2282.14 3063.27 2282.7 Q3065.49 2283.26 3067.97 2283.26 Q3071.97 2283.26 3074.31 2281.15 Q3076.65 2279.04 3076.65 2275.43 Q3076.65 2271.82 3074.31 2269.71 Q3071.97 2267.61 3067.97 2267.61 Q3066.09 2267.61 3064.22 2268.02 Q3062.37 2268.44 3060.42 2269.32 L3060.42 2251.96 Z" fill="#4c4c4c" fill-rule="evenodd" fill-opacity="1" /><path clip-path="url(#clip030)" d="M1692.34 2316.01 L1692.34 2326.14 L1704.41 2326.14 L1704.41 2330.69 L1692.34 2330.69 L1692.34 2350.04 Q1692.34 2354.4 1693.52 2355.64 Q1694.73 2356.88 1698.39 2356.88 L1704.41 2356.88 L1704.41 2361.78 L1698.39 2361.78 Q1691.61 2361.78 1689.03 2359.27 Q1686.45 2356.72 1686.45 2350.04 L1686.45 2330.69 L1682.16 2330.69 L1682.16 2326.14 L1686.45 2326.14 L1686.45 2316.01 L1692.34 2316.01 Z" fill="#000000" fill-rule="evenodd" fill-opacity="1" /><polyline clip-path="url(#clip032)" style="stroke:#ffffff; stroke-linecap:butt; stroke-linejoin:round; stroke-width:4; stroke-opacity:1; fill:none" points="
  233.806,2151.74 3152.76,2151.74 
  "/>
<polyline clip-path="url(#clip032)" style="stroke:#ffffff; stroke-linecap:butt; stroke-linejoin:round; stroke-width:4; stroke-opacity:1; fill:none" points="
  233.806,1854.73 3152.76,1854.73 
  "/>
<polyline clip-path="url(#clip032)" style="stroke:#ffffff; stroke-linecap:butt; stroke-linejoin:round; stroke-width:4; stroke-opacity:1; fill:none" points="
  233.806,1557.73 3152.76,1557.73 
  "/>
<polyline clip-path="url(#clip032)" style="stroke:#ffffff; stroke-linecap:butt; stroke-linejoin:round; stroke-width:4; stroke-opacity:1; fill:none" points="
  233.806,1260.72 3152.76,1260.72 
  "/>
<polyline clip-path="url(#clip032)" style="stroke:#ffffff; stroke-linecap:butt; stroke-linejoin:round; stroke-width:4; stroke-opacity:1; fill:none" points="
  233.806,963.719 3152.76,963.719 
  "/>
<polyline clip-path="url(#clip032)" style="stroke:#ffffff; stroke-linecap:butt; stroke-linejoin:round; stroke-width:4; stroke-opacity:1; fill:none" points="
  233.806,666.715 3152.76,666.715 
  "/>
<polyline clip-path="url(#clip032)" style="stroke:#ffffff; stroke-linecap:butt; stroke-linejoin:round; stroke-width:4; stroke-opacity:1; fill:none" points="
  233.806,369.711 3152.76,369.711 
  "/>
<polyline clip-path="url(#clip032)" style="stroke:#ffffff; stroke-linecap:butt; stroke-linejoin:round; stroke-width:2; stroke-opacity:1; fill:none" points="
  233.806,2003.23 3152.76,2003.23 
  "/>
<polyline clip-path="url(#clip032)" style="stroke:#ffffff; stroke-linecap:butt; stroke-linejoin:round; stroke-width:2; stroke-opacity:1; fill:none" points="
  233.806,1706.23 3152.76,1706.23 
  "/>
<polyline clip-path="url(#clip032)" style="stroke:#ffffff; stroke-linecap:butt; stroke-linejoin:round; stroke-width:2; stroke-opacity:1; fill:none" points="
  233.806,1409.22 3152.76,1409.22 
  "/>
<polyline clip-path="url(#clip032)" style="stroke:#ffffff; stroke-linecap:butt; stroke-linejoin:round; stroke-width:2; stroke-opacity:1; fill:none" points="
  233.806,1112.22 3152.76,1112.22 
  "/>
<polyline clip-path="url(#clip032)" style="stroke:#ffffff; stroke-linecap:butt; stroke-linejoin:round; stroke-width:2; stroke-opacity:1; fill:none" points="
  233.806,815.217 3152.76,815.217 
  "/>
<polyline clip-path="url(#clip032)" style="stroke:#ffffff; stroke-linecap:butt; stroke-linejoin:round; stroke-width:2; stroke-opacity:1; fill:none" points="
  233.806,518.213 3152.76,518.213 
  "/>
<polyline clip-path="url(#clip032)" style="stroke:#ffffff; stroke-linecap:butt; stroke-linejoin:round; stroke-width:2; stroke-opacity:1; fill:none" points="
  233.806,221.209 3152.76,221.209 
  "/>
<polyline clip-path="url(#clip030)" style="stroke:#ffffff; stroke-linecap:butt; stroke-linejoin:round; stroke-width:4; stroke-opacity:1; fill:none" points="
  233.806,2204.92 233.806,121.312 
  "/>
<polyline clip-path="url(#clip030)" style="stroke:#333333; stroke-linecap:butt; stroke-linejoin:round; stroke-width:4; stroke-opacity:1; fill:none" points="
  233.806,2151.74 214.909,2151.74 
  "/>
<polyline clip-path="url(#clip030)" style="stroke:#333333; stroke-linecap:butt; stroke-linejoin:round; stroke-width:4; stroke-opacity:1; fill:none" points="
  233.806,1854.73 214.909,1854.73 
  "/>
<polyline clip-path="url(#clip030)" style="stroke:#333333; stroke-linecap:butt; stroke-linejoin:round; stroke-width:4; stroke-opacity:1; fill:none" points="
  233.806,1557.73 214.909,1557.73 
  "/>
<polyline clip-path="url(#clip030)" style="stroke:#333333; stroke-linecap:butt; stroke-linejoin:round; stroke-width:4; stroke-opacity:1; fill:none" points="
  233.806,1260.72 214.909,1260.72 
  "/>
<polyline clip-path="url(#clip030)" style="stroke:#333333; stroke-linecap:butt; stroke-linejoin:round; stroke-width:4; stroke-opacity:1; fill:none" points="
  233.806,963.719 214.909,963.719 
  "/>
<polyline clip-path="url(#clip030)" style="stroke:#333333; stroke-linecap:butt; stroke-linejoin:round; stroke-width:4; stroke-opacity:1; fill:none" points="
  233.806,666.715 214.909,666.715 
  "/>
<polyline clip-path="url(#clip030)" style="stroke:#333333; stroke-linecap:butt; stroke-linejoin:round; stroke-width:4; stroke-opacity:1; fill:none" points="
  233.806,369.711 214.909,369.711 
  "/>
<polyline clip-path="url(#clip030)" style="stroke:#333333; stroke-linecap:butt; stroke-linejoin:round; stroke-width:4; stroke-opacity:1; fill:none" points="
  233.806,2003.23 224.357,2003.23 
  "/>
<polyline clip-path="url(#clip030)" style="stroke:#333333; stroke-linecap:butt; stroke-linejoin:round; stroke-width:4; stroke-opacity:1; fill:none" points="
  233.806,1706.23 224.357,1706.23 
  "/>
<polyline clip-path="url(#clip030)" style="stroke:#333333; stroke-linecap:butt; stroke-linejoin:round; stroke-width:4; stroke-opacity:1; fill:none" points="
  233.806,1409.22 224.357,1409.22 
  "/>
<polyline clip-path="url(#clip030)" style="stroke:#333333; stroke-linecap:butt; stroke-linejoin:round; stroke-width:4; stroke-opacity:1; fill:none" points="
  233.806,1112.22 224.357,1112.22 
  "/>
<polyline clip-path="url(#clip030)" style="stroke:#333333; stroke-linecap:butt; stroke-linejoin:round; stroke-width:4; stroke-opacity:1; fill:none" points="
  233.806,815.217 224.357,815.217 
  "/>
<polyline clip-path="url(#clip030)" style="stroke:#333333; stroke-linecap:butt; stroke-linejoin:round; stroke-width:4; stroke-opacity:1; fill:none" points="
  233.806,518.213 224.357,518.213 
  "/>
<polyline clip-path="url(#clip030)" style="stroke:#333333; stroke-linecap:butt; stroke-linejoin:round; stroke-width:4; stroke-opacity:1; fill:none" points="
  233.806,221.209 224.357,221.209 
  "/>
<path clip-path="url(#clip030)" d="M106.228 2137.53 Q102.617 2137.53 100.788 2141.1 Q98.9825 2144.64 98.9825 2151.77 Q98.9825 2158.88 100.788 2162.44 Q102.617 2165.98 106.228 2165.98 Q109.862 2165.98 111.668 2162.44 Q113.496 2158.88 113.496 2151.77 Q113.496 2144.64 111.668 2141.1 Q109.862 2137.53 106.228 2137.53 M106.228 2133.83 Q112.038 2133.83 115.094 2138.44 Q118.172 2143.02 118.172 2151.77 Q118.172 2160.5 115.094 2165.1 Q112.038 2169.69 106.228 2169.69 Q100.418 2169.69 97.339 2165.1 Q94.2835 2160.5 94.2835 2151.77 Q94.2835 2143.02 97.339 2138.44 Q100.418 2133.83 106.228 2133.83 Z" fill="#4c4c4c" fill-rule="evenodd" fill-opacity="1" /><path clip-path="url(#clip030)" d="M126.39 2163.14 L131.274 2163.14 L131.274 2169.02 L126.39 2169.02 L126.39 2163.14 Z" fill="#4c4c4c" fill-rule="evenodd" fill-opacity="1" /><path clip-path="url(#clip030)" d="M145.487 2165.08 L161.806 2165.08 L161.806 2169.02 L139.862 2169.02 L139.862 2165.08 Q142.524 2162.33 147.107 2157.7 Q151.714 2153.04 152.894 2151.7 Q155.14 2149.18 156.019 2147.44 Q156.922 2145.68 156.922 2143.99 Q156.922 2141.24 154.978 2139.5 Q153.056 2137.77 149.954 2137.77 Q147.755 2137.77 145.302 2138.53 Q142.871 2139.29 140.093 2140.84 L140.093 2136.12 Q142.917 2134.99 145.371 2134.41 Q147.825 2133.83 149.862 2133.83 Q155.232 2133.83 158.427 2136.52 Q161.621 2139.2 161.621 2143.69 Q161.621 2145.82 160.811 2147.74 Q160.024 2149.64 157.917 2152.23 Q157.339 2152.9 154.237 2156.12 Q151.135 2159.32 145.487 2165.08 Z" fill="#4c4c4c" fill-rule="evenodd" fill-opacity="1" /><path clip-path="url(#clip030)" d="M104.145 1840.53 Q100.533 1840.53 98.7048 1844.09 Q96.8992 1847.64 96.8992 1854.77 Q96.8992 1861.87 98.7048 1865.44 Q100.533 1868.98 104.145 1868.98 Q107.779 1868.98 109.584 1865.44 Q111.413 1861.87 111.413 1854.77 Q111.413 1847.64 109.584 1844.09 Q107.779 1840.53 104.145 1840.53 M104.145 1836.83 Q109.955 1836.83 113.01 1841.43 Q116.089 1846.02 116.089 1854.77 Q116.089 1863.49 113.01 1868.1 Q109.955 1872.68 104.145 1872.68 Q98.3344 1872.68 95.2557 1868.1 Q92.2002 1863.49 92.2002 1854.77 Q92.2002 1846.02 95.2557 1841.43 Q98.3344 1836.83 104.145 1836.83 Z" fill="#4c4c4c" fill-rule="evenodd" fill-opacity="1" /><path clip-path="url(#clip030)" d="M124.306 1866.13 L129.191 1866.13 L129.191 1872.01 L124.306 1872.01 L124.306 1866.13 Z" fill="#4c4c4c" fill-rule="evenodd" fill-opacity="1" /><path clip-path="url(#clip030)" d="M152.223 1841.53 L140.417 1859.97 L152.223 1859.97 L152.223 1841.53 M150.996 1837.45 L156.876 1837.45 L156.876 1859.97 L161.806 1859.97 L161.806 1863.86 L156.876 1863.86 L156.876 1872.01 L152.223 1872.01 L152.223 1863.86 L136.621 1863.86 L136.621 1859.35 L150.996 1837.45 Z" fill="#4c4c4c" fill-rule="evenodd" fill-opacity="1" /><path clip-path="url(#clip030)" d="M104.469 1543.53 Q100.858 1543.53 99.0288 1547.09 Q97.2233 1550.63 97.2233 1557.76 Q97.2233 1564.87 99.0288 1568.43 Q100.858 1571.97 104.469 1571.97 Q108.103 1571.97 109.908 1568.43 Q111.737 1564.87 111.737 1557.76 Q111.737 1550.63 109.908 1547.09 Q108.103 1543.53 104.469 1543.53 M104.469 1539.82 Q110.279 1539.82 113.334 1544.43 Q116.413 1549.01 116.413 1557.76 Q116.413 1566.49 113.334 1571.09 Q110.279 1575.68 104.469 1575.68 Q98.6585 1575.68 95.5798 1571.09 Q92.5242 1566.49 92.5242 1557.76 Q92.5242 1549.01 95.5798 1544.43 Q98.6585 1539.82 104.469 1539.82 Z" fill="#4c4c4c" fill-rule="evenodd" fill-opacity="1" /><path clip-path="url(#clip030)" d="M124.631 1569.13 L129.515 1569.13 L129.515 1575.01 L124.631 1575.01 L124.631 1569.13 Z" fill="#4c4c4c" fill-rule="evenodd" fill-opacity="1" /><path clip-path="url(#clip030)" d="M150.279 1555.86 Q147.13 1555.86 145.279 1558.02 Q143.45 1560.17 143.45 1563.92 Q143.45 1567.65 145.279 1569.82 Q147.13 1571.97 150.279 1571.97 Q153.427 1571.97 155.255 1569.82 Q157.107 1567.65 157.107 1563.92 Q157.107 1560.17 155.255 1558.02 Q153.427 1555.86 150.279 1555.86 M159.561 1541.21 L159.561 1545.47 Q157.802 1544.64 155.996 1544.2 Q154.214 1543.76 152.454 1543.76 Q147.825 1543.76 145.371 1546.88 Q142.941 1550.01 142.593 1556.33 Q143.959 1554.31 146.019 1553.25 Q148.079 1552.16 150.556 1552.16 Q155.765 1552.16 158.774 1555.33 Q161.806 1558.48 161.806 1563.92 Q161.806 1569.24 158.658 1572.46 Q155.51 1575.68 150.279 1575.68 Q144.283 1575.68 141.112 1571.09 Q137.941 1566.49 137.941 1557.76 Q137.941 1549.57 141.83 1544.71 Q145.718 1539.82 152.269 1539.82 Q154.029 1539.82 155.811 1540.17 Q157.616 1540.52 159.561 1541.21 Z" fill="#4c4c4c" fill-rule="evenodd" fill-opacity="1" /><path clip-path="url(#clip030)" d="M104.723 1246.52 Q101.112 1246.52 99.2835 1250.09 Q97.4779 1253.63 97.4779 1260.76 Q97.4779 1267.86 99.2835 1271.43 Q101.112 1274.97 104.723 1274.97 Q108.357 1274.97 110.163 1271.43 Q111.992 1267.86 111.992 1260.76 Q111.992 1253.63 110.163 1250.09 Q108.357 1246.52 104.723 1246.52 M104.723 1242.82 Q110.533 1242.82 113.589 1247.42 Q116.668 1252.01 116.668 1260.76 Q116.668 1269.48 113.589 1274.09 Q110.533 1278.67 104.723 1278.67 Q98.9131 1278.67 95.8344 1274.09 Q92.7789 1269.48 92.7789 1260.76 Q92.7789 1252.01 95.8344 1247.42 Q98.9131 1242.82 104.723 1242.82 Z" fill="#4c4c4c" fill-rule="evenodd" fill-opacity="1" /><path clip-path="url(#clip030)" d="M124.885 1272.12 L129.769 1272.12 L129.769 1278 L124.885 1278 L124.885 1272.12 Z" fill="#4c4c4c" fill-rule="evenodd" fill-opacity="1" /><path clip-path="url(#clip030)" d="M149.954 1261.59 Q146.621 1261.59 144.7 1263.37 Q142.802 1265.16 142.802 1268.28 Q142.802 1271.41 144.7 1273.19 Q146.621 1274.97 149.954 1274.97 Q153.288 1274.97 155.209 1273.19 Q157.13 1271.38 157.13 1268.28 Q157.13 1265.16 155.209 1263.37 Q153.311 1261.59 149.954 1261.59 M145.279 1259.6 Q142.269 1258.86 140.58 1256.8 Q138.913 1254.74 138.913 1251.78 Q138.913 1247.63 141.853 1245.23 Q144.816 1242.82 149.954 1242.82 Q155.116 1242.82 158.056 1245.23 Q160.996 1247.63 160.996 1251.78 Q160.996 1254.74 159.306 1256.8 Q157.64 1258.86 154.654 1259.6 Q158.033 1260.39 159.908 1262.68 Q161.806 1264.97 161.806 1268.28 Q161.806 1273.3 158.728 1275.99 Q155.672 1278.67 149.954 1278.67 Q144.237 1278.67 141.158 1275.99 Q138.103 1273.3 138.103 1268.28 Q138.103 1264.97 140.001 1262.68 Q141.899 1260.39 145.279 1259.6 M143.566 1252.22 Q143.566 1254.9 145.232 1256.41 Q146.922 1257.91 149.954 1257.91 Q152.964 1257.91 154.654 1256.41 Q156.366 1254.9 156.366 1252.22 Q156.366 1249.53 154.654 1248.03 Q152.964 1246.52 149.954 1246.52 Q146.922 1246.52 145.232 1248.03 Q143.566 1249.53 143.566 1252.22 Z" fill="#4c4c4c" fill-rule="evenodd" fill-opacity="1" /><path clip-path="url(#clip030)" d="M95.4409 977.064 L103.08 977.064 L103.08 950.698 L94.7696 952.365 L94.7696 948.106 L103.033 946.439 L107.709 946.439 L107.709 977.064 L115.348 977.064 L115.348 980.999 L95.4409 980.999 L95.4409 977.064 Z" fill="#4c4c4c" fill-rule="evenodd" fill-opacity="1" /><path clip-path="url(#clip030)" d="M124.793 975.119 L129.677 975.119 L129.677 980.999 L124.793 980.999 L124.793 975.119 Z" fill="#4c4c4c" fill-rule="evenodd" fill-opacity="1" /><path clip-path="url(#clip030)" d="M149.862 949.518 Q146.251 949.518 144.422 953.082 Q142.617 956.624 142.617 963.754 Q142.617 970.86 144.422 974.425 Q146.251 977.967 149.862 977.967 Q153.496 977.967 155.302 974.425 Q157.13 970.86 157.13 963.754 Q157.13 956.624 155.302 953.082 Q153.496 949.518 149.862 949.518 M149.862 945.814 Q155.672 945.814 158.728 950.42 Q161.806 955.004 161.806 963.754 Q161.806 972.48 158.728 977.087 Q155.672 981.67 149.862 981.67 Q144.052 981.67 140.973 977.087 Q137.918 972.48 137.918 963.754 Q137.918 955.004 140.973 950.42 Q144.052 945.814 149.862 945.814 Z" fill="#4c4c4c" fill-rule="evenodd" fill-opacity="1" /><path clip-path="url(#clip030)" d="M97.0381 680.06 L104.677 680.06 L104.677 653.694 L96.3668 655.361 L96.3668 651.102 L104.631 649.435 L109.307 649.435 L109.307 680.06 L116.945 680.06 L116.945 683.995 L97.0381 683.995 L97.0381 680.06 Z" fill="#4c4c4c" fill-rule="evenodd" fill-opacity="1" /><path clip-path="url(#clip030)" d="M126.39 678.115 L131.274 678.115 L131.274 683.995 L126.39 683.995 L126.39 678.115 Z" fill="#4c4c4c" fill-rule="evenodd" fill-opacity="1" /><path clip-path="url(#clip030)" d="M145.487 680.06 L161.806 680.06 L161.806 683.995 L139.862 683.995 L139.862 680.06 Q142.524 677.305 147.107 672.675 Q151.714 668.023 152.894 666.68 Q155.14 664.157 156.019 662.421 Q156.922 660.662 156.922 658.972 Q156.922 656.217 154.978 654.481 Q153.056 652.745 149.954 652.745 Q147.755 652.745 145.302 653.509 Q142.871 654.273 140.093 655.824 L140.093 651.102 Q142.917 649.967 145.371 649.389 Q147.825 648.81 149.862 648.81 Q155.232 648.81 158.427 651.495 Q161.621 654.18 161.621 658.671 Q161.621 660.801 160.811 662.722 Q160.024 664.62 157.917 667.213 Q157.339 667.884 154.237 671.101 Q151.135 674.296 145.487 680.06 Z" fill="#4c4c4c" fill-rule="evenodd" fill-opacity="1" /><path clip-path="url(#clip030)" d="M94.9548 383.056 L102.594 383.056 L102.594 356.69 L94.2835 358.357 L94.2835 354.097 L102.547 352.431 L107.223 352.431 L107.223 383.056 L114.862 383.056 L114.862 386.991 L94.9548 386.991 L94.9548 383.056 Z" fill="#4c4c4c" fill-rule="evenodd" fill-opacity="1" /><path clip-path="url(#clip030)" d="M124.306 381.111 L129.191 381.111 L129.191 386.991 L124.306 386.991 L124.306 381.111 Z" fill="#4c4c4c" fill-rule="evenodd" fill-opacity="1" /><path clip-path="url(#clip030)" d="M152.223 356.505 L140.417 374.954 L152.223 374.954 L152.223 356.505 M150.996 352.431 L156.876 352.431 L156.876 374.954 L161.806 374.954 L161.806 378.843 L156.876 378.843 L156.876 386.991 L152.223 386.991 L152.223 378.843 L136.621 378.843 L136.621 374.329 L150.996 352.431 Z" fill="#4c4c4c" fill-rule="evenodd" fill-opacity="1" /><path clip-path="url(#clip030)" d="M48.597 1321.32 L67.5031 1321.32 L67.5031 1327.21 L18.2962 1327.21 L18.2962 1321.32 L23.7071 1321.32 Q20.5242 1319.47 18.9964 1316.67 Q17.4368 1313.84 17.4368 1309.93 Q17.4368 1303.43 22.5931 1299.39 Q27.7493 1295.32 36.152 1295.32 Q44.5547 1295.32 49.711 1299.39 Q54.8672 1303.43 54.8672 1309.93 Q54.8672 1313.84 53.3394 1316.67 Q51.7798 1319.47 48.597 1321.32 M36.152 1301.4 Q29.6908 1301.4 26.0305 1304.07 Q22.3384 1306.71 22.3384 1311.36 Q22.3384 1316 26.0305 1318.68 Q29.6908 1321.32 36.152 1321.32 Q42.6132 1321.32 46.3053 1318.68 Q49.9656 1316 49.9656 1311.36 Q49.9656 1306.71 46.3053 1304.07 Q42.6132 1301.4 36.152 1301.4 Z" fill="#000000" fill-rule="evenodd" fill-opacity="1" /><path clip-path="url(#clip030)" d="M22.4021 1271.79 Q22.4021 1276.51 26.0942 1279.24 Q29.7545 1281.98 36.152 1281.98 Q42.5495 1281.98 46.2417 1279.27 Q49.9019 1276.54 49.9019 1271.79 Q49.9019 1267.12 46.2098 1264.38 Q42.5177 1261.64 36.152 1261.64 Q29.8181 1261.64 26.126 1264.38 Q22.4021 1267.12 22.4021 1271.79 M17.4368 1271.79 Q17.4368 1264.16 22.4021 1259.8 Q27.3673 1255.43 36.152 1255.43 Q44.9049 1255.43 49.9019 1259.8 Q54.8672 1264.16 54.8672 1271.79 Q54.8672 1279.47 49.9019 1283.83 Q44.9049 1288.15 36.152 1288.15 Q27.3673 1288.15 22.4021 1283.83 Q17.4368 1279.47 17.4368 1271.79 Z" fill="#000000" fill-rule="evenodd" fill-opacity="1" /><path clip-path="url(#clip030)" d="M48.597 1240.06 L67.5031 1240.06 L67.5031 1245.95 L18.2962 1245.95 L18.2962 1240.06 L23.7071 1240.06 Q20.5242 1238.22 18.9964 1235.41 Q17.4368 1232.58 17.4368 1228.67 Q17.4368 1222.17 22.5931 1218.13 Q27.7493 1214.06 36.152 1214.06 Q44.5547 1214.06 49.711 1218.13 Q54.8672 1222.17 54.8672 1228.67 Q54.8672 1232.58 53.3394 1235.41 Q51.7798 1238.22 48.597 1240.06 M36.152 1220.14 Q29.6908 1220.14 26.0305 1222.81 Q22.3384 1225.45 22.3384 1230.1 Q22.3384 1234.75 26.0305 1237.42 Q29.6908 1240.06 36.152 1240.06 Q42.6132 1240.06 46.3053 1237.42 Q49.9656 1234.75 49.9656 1230.1 Q49.9656 1225.45 46.3053 1222.81 Q42.6132 1220.14 36.152 1220.14 Z" fill="#000000" fill-rule="evenodd" fill-opacity="1" /><path clip-path="url(#clip030)" d="M39.8759 1204.95 L18.2962 1204.95 L18.2962 1199.1 L39.6531 1199.1 Q44.7139 1199.1 47.2602 1197.12 Q49.7746 1195.15 49.7746 1191.2 Q49.7746 1186.46 46.7509 1183.72 Q43.7272 1180.96 38.5073 1180.96 L18.2962 1180.96 L18.2962 1175.1 L53.9442 1175.1 L53.9442 1180.96 L48.4696 1180.96 Q51.7162 1183.09 53.3076 1185.92 Q54.8672 1188.72 54.8672 1192.45 Q54.8672 1198.59 51.0478 1201.77 Q47.2283 1204.95 39.8759 1204.95 M17.4368 1190.22 L17.4368 1190.22 Z" fill="#000000" fill-rule="evenodd" fill-opacity="1" /><path clip-path="url(#clip030)" d="M4.41896 1163.04 L4.41896 1157.18 L53.9442 1157.18 L53.9442 1163.04 L4.41896 1163.04 Z" fill="#000000" fill-rule="evenodd" fill-opacity="1" /><path clip-path="url(#clip030)" d="M36.0247 1128.73 Q36.0247 1135.82 37.6479 1138.56 Q39.2712 1141.3 43.1861 1141.3 Q46.3053 1141.3 48.1514 1139.26 Q49.9656 1137.19 49.9656 1133.66 Q49.9656 1128.79 46.5281 1125.86 Q43.0588 1122.9 37.3297 1122.9 L36.0247 1122.9 L36.0247 1128.73 M33.6057 1117.04 L53.9442 1117.04 L53.9442 1122.9 L48.5333 1122.9 Q51.7798 1124.91 53.3394 1127.9 Q54.8672 1130.89 54.8672 1135.22 Q54.8672 1140.69 51.8116 1143.94 Q48.7243 1147.15 43.5681 1147.15 Q37.5525 1147.15 34.4969 1143.14 Q31.4414 1139.1 31.4414 1131.11 L31.4414 1122.9 L30.8685 1122.9 Q26.8262 1122.9 24.6301 1125.57 Q22.4021 1128.22 22.4021 1133.02 Q22.4021 1136.08 23.1341 1138.97 Q23.8662 1141.87 25.3303 1144.54 L19.9195 1144.54 Q18.6781 1141.33 18.0734 1138.31 Q17.4368 1135.28 17.4368 1132.42 Q17.4368 1124.68 21.4472 1120.86 Q25.4576 1117.04 33.6057 1117.04 Z" fill="#000000" fill-rule="evenodd" fill-opacity="1" /><path clip-path="url(#clip030)" d="M19.6648 1079.33 L25.1393 1079.33 Q23.7707 1081.81 23.1023 1084.32 Q22.4021 1086.81 22.4021 1089.35 Q22.4021 1095.05 26.0305 1098.2 Q29.6272 1101.35 36.152 1101.35 Q42.6769 1101.35 46.3053 1098.2 Q49.9019 1095.05 49.9019 1089.35 Q49.9019 1086.81 49.2335 1084.32 Q48.5333 1081.81 47.1647 1079.33 L52.5755 1079.33 Q53.7214 1081.78 54.2943 1084.42 Q54.8672 1087.03 54.8672 1089.99 Q54.8672 1098.04 49.8064 1102.78 Q44.7457 1107.53 36.152 1107.53 Q27.431 1107.53 22.4339 1102.75 Q17.4368 1097.95 17.4368 1089.61 Q17.4368 1086.9 18.0097 1084.32 Q18.5508 1081.75 19.6648 1079.33 M53.9442 1087.6 Q55.9175 1085.85 57.5726 1084.99 Q59.2595 1084.13 60.7873 1084.13 Q63.62 1084.13 65.0523 1086.04 Q66.5164 1087.95 66.5164 1091.71 Q66.5164 1093.17 66.3255 1094.57 Q66.1345 1095.94 65.7525 1097.31 L61.583 1097.31 Q62.1241 1096.23 62.3469 1095.05 Q62.6015 1093.87 62.6015 1092.38 Q62.6015 1090.5 61.8376 1089.54 Q61.0737 1088.59 59.6096 1088.59 Q58.6548 1088.59 57.2543 1089.29 Q55.8857 1089.96 53.9442 1091.39 L53.9442 1087.6 Z" fill="#000000" fill-rule="evenodd" fill-opacity="1" /><path clip-path="url(#clip030)" d="M36.0247 1052.94 Q36.0247 1060.04 37.6479 1062.78 Q39.2712 1065.51 43.1861 1065.51 Q46.3053 1065.51 48.1514 1063.48 Q49.9656 1061.41 49.9656 1057.87 Q49.9656 1053.01 46.5281 1050.08 Q43.0588 1047.12 37.3297 1047.12 L36.0247 1047.12 L36.0247 1052.94 M33.6057 1041.26 L53.9442 1041.26 L53.9442 1047.12 L48.5333 1047.12 Q51.7798 1049.12 53.3394 1052.11 Q54.8672 1055.11 54.8672 1059.43 Q54.8672 1064.91 51.8116 1068.16 Q48.7243 1071.37 43.5681 1071.37 Q37.5525 1071.37 34.4969 1067.36 Q31.4414 1063.32 31.4414 1055.33 L31.4414 1047.12 L30.8685 1047.12 Q26.8262 1047.12 24.6301 1049.79 Q22.4021 1052.43 22.4021 1057.24 Q22.4021 1060.29 23.1341 1063.19 Q23.8662 1066.09 25.3303 1068.76 L19.9195 1068.76 Q18.6781 1065.55 18.0734 1062.52 Q17.4368 1059.5 17.4368 1056.63 Q17.4368 1048.9 21.4472 1045.08 Q25.4576 1041.26 33.6057 1041.26 M10.3391 1056.51 L8.5885 1058.32 Q7.95193 1059.02 7.66547 1059.56 Q7.34718 1060.07 7.34718 1060.48 Q7.34718 1061.69 8.52484 1062.27 Q9.67067 1062.84 12.2806 1062.9 L12.2806 1066.88 Q7.98376 1066.82 5.66027 1065.2 Q3.30496 1063.57 3.30496 1060.68 Q3.30496 1059.47 3.75056 1058.45 Q4.19616 1057.43 5.2465 1056.25 L6.99707 1054.44 Q7.63364 1053.74 7.95193 1053.23 Q8.23838 1052.69 8.23838 1052.27 Q8.23838 1051.06 7.09256 1050.49 Q5.9149 1049.92 3.30496 1049.85 L3.30496 1045.88 Q7.60181 1045.94 9.95712 1047.56 Q12.2806 1049.19 12.2806 1052.08 Q12.2806 1053.29 11.835 1054.31 Q11.3894 1055.33 10.3391 1056.51 Z" fill="#000000" fill-rule="evenodd" fill-opacity="1" /><path clip-path="url(#clip030)" d="M22.4021 1015.38 Q22.4021 1020.09 26.0942 1022.83 Q29.7545 1025.57 36.152 1025.57 Q42.5495 1025.57 46.2417 1022.86 Q49.9019 1020.13 49.9019 1015.38 Q49.9019 1010.71 46.2098 1007.97 Q42.5177 1005.23 36.152 1005.23 Q29.8181 1005.23 26.126 1007.97 Q22.4021 1010.71 22.4021 1015.38 M17.4368 1015.38 Q17.4368 1007.74 22.4021 1003.38 Q27.3673 999.024 36.152 999.024 Q44.9049 999.024 49.9019 1003.38 Q54.8672 1007.74 54.8672 1015.38 Q54.8672 1023.05 49.9019 1027.42 Q44.9049 1031.74 36.152 1031.74 Q27.3673 1031.74 22.4021 1027.42 Q17.4368 1023.05 17.4368 1015.38 Z" fill="#000000" fill-rule="evenodd" fill-opacity="1" /><path clip-path="url(#clip030)" d="M972.365 23.3193 L979.136 23.3193 L991.288 55.958 L1003.44 23.3193 L1010.21 23.3193 L995.629 62.208 L986.948 62.208 L972.365 23.3193 Z" fill="#000000" fill-rule="evenodd" fill-opacity="1" /><path clip-path="url(#clip030)" d="M1036.7 42.6595 Q1028.96 42.6595 1025.98 44.4303 Q1022.99 46.2011 1022.99 50.472 Q1022.99 53.8747 1025.21 55.8886 Q1027.47 57.8677 1031.32 57.8677 Q1036.64 57.8677 1039.83 54.1178 Q1043.06 50.3331 1043.06 44.0831 L1043.06 42.6595 L1036.7 42.6595 M1049.45 40.0206 L1049.45 62.208 L1043.06 62.208 L1043.06 56.3053 Q1040.87 59.8469 1037.61 61.5483 Q1034.34 63.2149 1029.62 63.2149 Q1023.65 63.2149 1020.11 59.8816 Q1016.6 56.5136 1016.6 50.8886 Q1016.6 44.3262 1020.98 40.9928 Q1025.39 37.6595 1034.1 37.6595 L1043.06 37.6595 L1043.06 37.0345 Q1043.06 32.6248 1040.14 30.229 Q1037.26 27.7985 1032.02 27.7985 Q1028.68 27.7985 1025.52 28.5971 Q1022.36 29.3957 1019.45 30.9929 L1019.45 25.0901 Q1022.95 23.736 1026.25 23.0763 Q1029.55 22.3818 1032.68 22.3818 Q1041.11 22.3818 1045.28 26.7568 Q1049.45 31.1318 1049.45 40.0206 Z" fill="#000000" fill-rule="evenodd" fill-opacity="1" /><path clip-path="url(#clip030)" d="M1062.61 8.18051 L1069 8.18051 L1069 62.208 L1062.61 62.208 L1062.61 8.18051 Z" fill="#000000" fill-rule="evenodd" fill-opacity="1" /><path clip-path="url(#clip030)" d="M1097.43 27.7985 Q1092.29 27.7985 1089.31 31.8262 Q1086.32 35.8193 1086.32 42.7984 Q1086.32 49.7775 1089.27 53.8053 Q1092.26 57.7983 1097.43 57.7983 Q1102.54 57.7983 1105.52 53.7705 Q1108.51 49.7428 1108.51 42.7984 Q1108.51 35.8887 1105.52 31.8609 Q1102.54 27.7985 1097.43 27.7985 M1097.43 22.3818 Q1105.77 22.3818 1110.52 27.7985 Q1115.28 33.2151 1115.28 42.7984 Q1115.28 52.3469 1110.52 57.7983 Q1105.77 63.2149 1097.43 63.2149 Q1089.07 63.2149 1084.31 57.7983 Q1079.59 52.3469 1079.59 42.7984 Q1079.59 33.2151 1084.31 27.7985 Q1089.07 22.3818 1097.43 22.3818 Z" fill="#000000" fill-rule="evenodd" fill-opacity="1" /><path clip-path="url(#clip030)" d="M1148.41 29.2915 Q1147.33 28.6665 1146.04 28.3887 Q1144.79 28.0762 1143.27 28.0762 Q1137.85 28.0762 1134.93 31.6179 Q1132.05 35.1248 1132.05 41.722 L1132.05 62.208 L1125.63 62.208 L1125.63 23.3193 L1132.05 23.3193 L1132.05 29.361 Q1134.07 25.8193 1137.29 24.1179 Q1140.52 22.3818 1145.14 22.3818 Q1145.8 22.3818 1146.6 22.486 Q1147.4 22.5554 1148.37 22.729 L1148.41 29.2915 Z" fill="#000000" fill-rule="evenodd" fill-opacity="1" /><path clip-path="url(#clip030)" d="M1210.97 41.1664 L1210.97 44.2914 L1181.6 44.2914 Q1182.02 50.8886 1185.56 54.3608 Q1189.13 57.7983 1195.49 57.7983 Q1199.17 57.7983 1202.61 56.8955 Q1206.08 55.9928 1209.48 54.1872 L1209.48 60.2288 Q1206.04 61.6872 1202.43 62.4511 Q1198.82 63.2149 1195.11 63.2149 Q1185.8 63.2149 1180.35 57.7983 Q1174.93 52.3817 1174.93 43.1456 Q1174.93 33.597 1180.07 28.0068 Q1185.25 22.3818 1194 22.3818 Q1201.84 22.3818 1206.39 27.4512 Q1210.97 32.4859 1210.97 41.1664 M1204.59 39.2915 Q1204.52 34.0484 1201.63 30.9234 Q1198.79 27.7985 1194.07 27.7985 Q1188.72 27.7985 1185.49 30.8193 Q1182.29 33.8401 1181.81 39.3262 L1204.59 39.2915 Z" fill="#000000" fill-rule="evenodd" fill-opacity="1" /><path clip-path="url(#clip030)" d="M1246.25 24.4651 L1246.25 30.5068 Q1243.54 29.1179 1240.63 28.4235 Q1237.71 27.729 1234.59 27.729 Q1229.83 27.729 1227.43 29.1873 Q1225.07 30.6457 1225.07 33.5623 Q1225.07 35.7845 1226.77 37.0692 Q1228.47 38.3192 1233.61 39.4651 L1235.8 39.9512 Q1242.61 41.4095 1245.45 44.0831 Q1248.34 46.722 1248.34 51.4789 Q1248.34 56.8955 1244.03 60.0552 Q1239.76 63.2149 1232.26 63.2149 Q1229.13 63.2149 1225.73 62.5899 Q1222.36 61.9997 1218.61 60.7844 L1218.61 54.1872 Q1222.16 56.0275 1225.59 56.965 Q1229.03 57.8677 1232.4 57.8677 Q1236.91 57.8677 1239.34 56.34 Q1241.77 54.7775 1241.77 51.965 Q1241.77 49.3608 1240 47.972 Q1238.27 46.5831 1232.33 45.2984 L1230.11 44.7775 Q1224.17 43.5275 1221.53 40.9581 Q1218.89 38.354 1218.89 33.8401 Q1218.89 28.354 1222.78 25.3679 Q1226.67 22.3818 1233.82 22.3818 Q1237.36 22.3818 1240.49 22.9027 Q1243.61 23.4235 1246.25 24.4651 Z" fill="#000000" fill-rule="evenodd" fill-opacity="1" /><path clip-path="url(#clip030)" d="M1264.69 56.3747 L1264.69 76.9996 L1258.27 76.9996 L1258.27 23.3193 L1264.69 23.3193 L1264.69 29.2221 Q1266.7 25.7499 1269.76 24.0832 Q1272.85 22.3818 1277.12 22.3818 Q1284.2 22.3818 1288.61 28.0068 Q1293.06 33.6318 1293.06 42.7984 Q1293.06 51.965 1288.61 57.59 Q1284.2 63.2149 1277.12 63.2149 Q1272.85 63.2149 1269.76 61.5483 Q1266.7 59.8469 1264.69 56.3747 M1286.43 42.7984 Q1286.43 35.7498 1283.51 31.7568 Q1280.63 27.729 1275.56 27.729 Q1270.49 27.729 1267.57 31.7568 Q1264.69 35.7498 1264.69 42.7984 Q1264.69 49.847 1267.57 53.8747 Q1270.49 57.8677 1275.56 57.8677 Q1280.63 57.8677 1283.51 53.8747 Q1286.43 49.847 1286.43 42.7984 Z" fill="#000000" fill-rule="evenodd" fill-opacity="1" /><path clip-path="url(#clip030)" d="M1336.91 41.1664 L1336.91 44.2914 L1307.54 44.2914 Q1307.95 50.8886 1311.49 54.3608 Q1315.07 57.7983 1321.43 57.7983 Q1325.11 57.7983 1328.54 56.8955 Q1332.02 55.9928 1335.42 54.1872 L1335.42 60.2288 Q1331.98 61.6872 1328.37 62.4511 Q1324.76 63.2149 1321.04 63.2149 Q1311.74 63.2149 1306.29 57.7983 Q1300.87 52.3817 1300.87 43.1456 Q1300.87 33.597 1306.01 28.0068 Q1311.18 22.3818 1319.93 22.3818 Q1327.78 22.3818 1332.33 27.4512 Q1336.91 32.4859 1336.91 41.1664 M1330.52 39.2915 Q1330.45 34.0484 1327.57 30.9234 Q1324.72 27.7985 1320 27.7985 Q1314.65 27.7985 1311.43 30.8193 Q1308.23 33.8401 1307.74 39.3262 L1330.52 39.2915 Z" fill="#000000" fill-rule="evenodd" fill-opacity="1" /><path clip-path="url(#clip030)" d="M1369.93 29.2915 Q1368.86 28.6665 1367.57 28.3887 Q1366.32 28.0762 1364.79 28.0762 Q1359.38 28.0762 1356.46 31.6179 Q1353.58 35.1248 1353.58 41.722 L1353.58 62.208 L1347.15 62.208 L1347.15 23.3193 L1353.58 23.3193 L1353.58 29.361 Q1355.59 25.8193 1358.82 24.1179 Q1362.05 22.3818 1366.67 22.3818 Q1367.33 22.3818 1368.13 22.486 Q1368.93 22.5554 1369.9 22.729 L1369.93 29.2915 Z" fill="#000000" fill-rule="evenodd" fill-opacity="1" /><path clip-path="url(#clip030)" d="M1394.31 42.6595 Q1386.56 42.6595 1383.58 44.4303 Q1380.59 46.2011 1380.59 50.472 Q1380.59 53.8747 1382.81 55.8886 Q1385.07 57.8677 1388.93 57.8677 Q1394.24 57.8677 1397.43 54.1178 Q1400.66 50.3331 1400.66 44.0831 L1400.66 42.6595 L1394.31 42.6595 M1407.05 40.0206 L1407.05 62.208 L1400.66 62.208 L1400.66 56.3053 Q1398.47 59.8469 1395.21 61.5483 Q1391.95 63.2149 1387.22 63.2149 Q1381.25 63.2149 1377.71 59.8816 Q1374.2 56.5136 1374.2 50.8886 Q1374.2 44.3262 1378.58 40.9928 Q1382.99 37.6595 1391.7 37.6595 L1400.66 37.6595 L1400.66 37.0345 Q1400.66 32.6248 1397.74 30.229 Q1394.86 27.7985 1389.62 27.7985 Q1386.29 27.7985 1383.13 28.5971 Q1379.97 29.3957 1377.05 30.9929 L1377.05 25.0901 Q1380.56 23.736 1383.86 23.0763 Q1387.15 22.3818 1390.28 22.3818 Q1398.72 22.3818 1402.88 26.7568 Q1407.05 31.1318 1407.05 40.0206 Z" fill="#000000" fill-rule="evenodd" fill-opacity="1" /><path clip-path="url(#clip030)" d="M1445.8 29.2221 L1445.8 8.18051 L1452.19 8.18051 L1452.19 62.208 L1445.8 62.208 L1445.8 56.3747 Q1443.79 59.8469 1440.7 61.5483 Q1437.64 63.2149 1433.33 63.2149 Q1426.29 63.2149 1421.84 57.59 Q1417.43 51.965 1417.43 42.7984 Q1417.43 33.6318 1421.84 28.0068 Q1426.29 22.3818 1433.33 22.3818 Q1437.64 22.3818 1440.7 24.0832 Q1443.79 25.7499 1445.8 29.2221 M1424.03 42.7984 Q1424.03 49.847 1426.91 53.8747 Q1429.83 57.8677 1434.9 57.8677 Q1439.97 57.8677 1442.88 53.8747 Q1445.8 49.847 1445.8 42.7984 Q1445.8 35.7498 1442.88 31.7568 Q1439.97 27.729 1434.9 27.729 Q1429.83 27.729 1426.91 31.7568 Q1424.03 35.7498 1424.03 42.7984 Z" fill="#000000" fill-rule="evenodd" fill-opacity="1" /><path clip-path="url(#clip030)" d="M1480.42 27.7985 Q1475.28 27.7985 1472.29 31.8262 Q1469.31 35.8193 1469.31 42.7984 Q1469.31 49.7775 1472.26 53.8053 Q1475.24 57.7983 1480.42 57.7983 Q1485.52 57.7983 1488.51 53.7705 Q1491.49 49.7428 1491.49 42.7984 Q1491.49 35.8887 1488.51 31.8609 Q1485.52 27.7985 1480.42 27.7985 M1480.42 22.3818 Q1488.75 22.3818 1493.51 27.7985 Q1498.26 33.2151 1498.26 42.7984 Q1498.26 52.3469 1493.51 57.7983 Q1488.75 63.2149 1480.42 63.2149 Q1472.05 63.2149 1467.29 57.7983 Q1462.57 52.3469 1462.57 42.7984 Q1462.57 33.2151 1467.29 27.7985 Q1472.05 22.3818 1480.42 22.3818 Z" fill="#000000" fill-rule="evenodd" fill-opacity="1" /><path clip-path="url(#clip030)" d="M1564.72 41.1664 L1564.72 44.2914 L1535.35 44.2914 Q1535.76 50.8886 1539.31 54.3608 Q1542.88 57.7983 1549.24 57.7983 Q1552.92 57.7983 1556.35 56.8955 Q1559.83 55.9928 1563.23 54.1872 L1563.23 60.2288 Q1559.79 61.6872 1556.18 62.4511 Q1552.57 63.2149 1548.85 63.2149 Q1539.55 63.2149 1534.1 57.7983 Q1528.68 52.3817 1528.68 43.1456 Q1528.68 33.597 1533.82 28.0068 Q1538.99 22.3818 1547.74 22.3818 Q1555.59 22.3818 1560.14 27.4512 Q1564.72 32.4859 1564.72 41.1664 M1558.33 39.2915 Q1558.26 34.0484 1555.38 30.9234 Q1552.54 27.7985 1547.81 27.7985 Q1542.47 27.7985 1539.24 30.8193 Q1536.04 33.8401 1535.56 39.3262 L1558.33 39.2915 Z" fill="#000000" fill-rule="evenodd" fill-opacity="1" /><path clip-path="url(#clip030)" d="M1597.81 23.3193 L1604.2 23.3193 L1604.2 62.208 L1597.81 62.208 L1597.81 23.3193 M1597.81 8.18051 L1604.2 8.18051 L1604.2 16.2707 L1597.81 16.2707 L1597.81 8.18051 Z" fill="#000000" fill-rule="evenodd" fill-opacity="1" /><path clip-path="url(#clip030)" d="M1649.9 38.7359 L1649.9 62.208 L1643.51 62.208 L1643.51 38.9442 Q1643.51 33.4234 1641.35 30.6804 Q1639.2 27.9374 1634.9 27.9374 Q1629.72 27.9374 1626.74 31.2359 Q1623.75 34.5345 1623.75 40.229 L1623.75 62.208 L1617.33 62.208 L1617.33 23.3193 L1623.75 23.3193 L1623.75 29.361 Q1626.04 25.854 1629.13 24.1179 Q1632.26 22.3818 1636.32 22.3818 Q1643.02 22.3818 1646.46 26.5485 Q1649.9 30.6804 1649.9 38.7359 Z" fill="#000000" fill-rule="evenodd" fill-opacity="1" /><path clip-path="url(#clip030)" d="M1668.96 12.2777 L1668.96 23.3193 L1682.12 23.3193 L1682.12 28.2846 L1668.96 28.2846 L1668.96 49.3956 Q1668.96 54.1525 1670.24 55.5066 Q1671.56 56.8608 1675.56 56.8608 L1682.12 56.8608 L1682.12 62.208 L1675.56 62.208 Q1668.16 62.208 1665.35 59.465 Q1662.53 56.6872 1662.53 49.3956 L1662.53 28.2846 L1657.85 28.2846 L1657.85 23.3193 L1662.53 23.3193 L1662.53 12.2777 L1668.96 12.2777 Z" fill="#000000" fill-rule="evenodd" fill-opacity="1" /><path clip-path="url(#clip030)" d="M1723.78 41.1664 L1723.78 44.2914 L1694.41 44.2914 Q1694.83 50.8886 1698.37 54.3608 Q1701.94 57.7983 1708.3 57.7983 Q1711.98 57.7983 1715.42 56.8955 Q1718.89 55.9928 1722.29 54.1872 L1722.29 60.2288 Q1718.85 61.6872 1715.24 62.4511 Q1711.63 63.2149 1707.92 63.2149 Q1698.61 63.2149 1693.16 57.7983 Q1687.74 52.3817 1687.74 43.1456 Q1687.74 33.597 1692.88 28.0068 Q1698.06 22.3818 1706.81 22.3818 Q1714.65 22.3818 1719.2 27.4512 Q1723.78 32.4859 1723.78 41.1664 M1717.4 39.2915 Q1717.33 34.0484 1714.44 30.9234 Q1711.6 27.7985 1706.87 27.7985 Q1701.53 27.7985 1698.3 30.8193 Q1695.1 33.8401 1694.62 39.3262 L1717.4 39.2915 Z" fill="#000000" fill-rule="evenodd" fill-opacity="1" /><path clip-path="url(#clip030)" d="M1756.81 29.2915 Q1755.73 28.6665 1754.44 28.3887 Q1753.19 28.0762 1751.67 28.0762 Q1746.25 28.0762 1743.33 31.6179 Q1740.45 35.1248 1740.45 41.722 L1740.45 62.208 L1734.03 62.208 L1734.03 23.3193 L1740.45 23.3193 L1740.45 29.361 Q1742.46 25.8193 1745.69 24.1179 Q1748.92 22.3818 1753.54 22.3818 Q1754.2 22.3818 1755 22.486 Q1755.8 22.5554 1756.77 22.729 L1756.81 29.2915 Z" fill="#000000" fill-rule="evenodd" fill-opacity="1" /><path clip-path="url(#clip030)" d="M1758.92 23.3193 L1765.69 23.3193 L1777.85 55.958 L1790 23.3193 L1796.77 23.3193 L1782.19 62.208 L1773.51 62.208 L1758.92 23.3193 Z" fill="#000000" fill-rule="evenodd" fill-opacity="1" /><path clip-path="url(#clip030)" d="M1823.26 42.6595 Q1815.52 42.6595 1812.53 44.4303 Q1809.55 46.2011 1809.55 50.472 Q1809.55 53.8747 1811.77 55.8886 Q1814.03 57.8677 1817.88 57.8677 Q1823.19 57.8677 1826.39 54.1178 Q1829.62 50.3331 1829.62 44.0831 L1829.62 42.6595 L1823.26 42.6595 M1836.01 40.0206 L1836.01 62.208 L1829.62 62.208 L1829.62 56.3053 Q1827.43 59.8469 1824.17 61.5483 Q1820.9 63.2149 1816.18 63.2149 Q1810.21 63.2149 1806.67 59.8816 Q1803.16 56.5136 1803.16 50.8886 Q1803.16 44.3262 1807.53 40.9928 Q1811.94 37.6595 1820.66 37.6595 L1829.62 37.6595 L1829.62 37.0345 Q1829.62 32.6248 1826.7 30.229 Q1823.82 27.7985 1818.58 27.7985 Q1815.24 27.7985 1812.08 28.5971 Q1808.92 29.3957 1806.01 30.9929 L1806.01 25.0901 Q1809.51 23.736 1812.81 23.0763 Q1816.11 22.3818 1819.24 22.3818 Q1827.67 22.3818 1831.84 26.7568 Q1836.01 31.1318 1836.01 40.0206 Z" fill="#000000" fill-rule="evenodd" fill-opacity="1" /><path clip-path="url(#clip030)" d="M1849.17 8.18051 L1855.55 8.18051 L1855.55 62.208 L1849.17 62.208 L1849.17 8.18051 Z" fill="#000000" fill-rule="evenodd" fill-opacity="1" /><path clip-path="url(#clip030)" d="M1883.99 27.7985 Q1878.85 27.7985 1875.87 31.8262 Q1872.88 35.8193 1872.88 42.7984 Q1872.88 49.7775 1875.83 53.8053 Q1878.82 57.7983 1883.99 57.7983 Q1889.1 57.7983 1892.08 53.7705 Q1895.07 49.7428 1895.07 42.7984 Q1895.07 35.8887 1892.08 31.8609 Q1889.1 27.7985 1883.99 27.7985 M1883.99 22.3818 Q1892.33 22.3818 1897.08 27.7985 Q1901.84 33.2151 1901.84 42.7984 Q1901.84 52.3469 1897.08 57.7983 Q1892.33 63.2149 1883.99 63.2149 Q1875.62 63.2149 1870.87 57.7983 Q1866.14 52.3469 1866.14 42.7984 Q1866.14 33.2151 1870.87 27.7985 Q1875.62 22.3818 1883.99 22.3818 Z" fill="#000000" fill-rule="evenodd" fill-opacity="1" /><path clip-path="url(#clip030)" d="M1937.22 24.4651 L1937.22 30.5068 Q1934.51 29.1179 1931.6 28.4235 Q1928.68 27.729 1925.55 27.729 Q1920.8 27.729 1918.4 29.1873 Q1916.04 30.6457 1916.04 33.5623 Q1916.04 35.7845 1917.74 37.0692 Q1919.44 38.3192 1924.58 39.4651 L1926.77 39.9512 Q1933.57 41.4095 1936.42 44.0831 Q1939.3 46.722 1939.3 51.4789 Q1939.3 56.8955 1935 60.0552 Q1930.73 63.2149 1923.23 63.2149 Q1920.1 63.2149 1916.7 62.5899 Q1913.33 61.9997 1909.58 60.7844 L1909.58 54.1872 Q1913.12 56.0275 1916.56 56.965 Q1920 57.8677 1923.37 57.8677 Q1927.88 57.8677 1930.31 56.34 Q1932.74 54.7775 1932.74 51.965 Q1932.74 49.3608 1930.97 47.972 Q1929.23 46.5831 1923.3 45.2984 L1921.08 44.7775 Q1915.14 43.5275 1912.5 40.9581 Q1909.86 38.354 1909.86 33.8401 Q1909.86 28.354 1913.75 25.3679 Q1917.64 22.3818 1924.79 22.3818 Q1928.33 22.3818 1931.46 22.9027 Q1934.58 23.4235 1937.22 24.4651 Z" fill="#000000" fill-rule="evenodd" fill-opacity="1" /><path clip-path="url(#clip030)" d="M1997.67 29.2221 L1997.67 8.18051 L2004.06 8.18051 L2004.06 62.208 L1997.67 62.208 L1997.67 56.3747 Q1995.66 59.8469 1992.57 61.5483 Q1989.51 63.2149 1985.21 63.2149 Q1978.16 63.2149 1973.71 57.59 Q1969.3 51.965 1969.3 42.7984 Q1969.3 33.6318 1973.71 28.0068 Q1978.16 22.3818 1985.21 22.3818 Q1989.51 22.3818 1992.57 24.0832 Q1995.66 25.7499 1997.67 29.2221 M1975.9 42.7984 Q1975.9 49.847 1978.78 53.8747 Q1981.7 57.8677 1986.77 57.8677 Q1991.84 57.8677 1994.76 53.8747 Q1997.67 49.847 1997.67 42.7984 Q1997.67 35.7498 1994.76 31.7568 Q1991.84 27.729 1986.77 27.729 Q1981.7 27.729 1978.78 31.7568 Q1975.9 35.7498 1975.9 42.7984 Z" fill="#000000" fill-rule="evenodd" fill-opacity="1" /><path clip-path="url(#clip030)" d="M2050.48 41.1664 L2050.48 44.2914 L2021.11 44.2914 Q2021.53 50.8886 2025.07 54.3608 Q2028.64 57.7983 2035 57.7983 Q2038.68 57.7983 2042.12 56.8955 Q2045.59 55.9928 2048.99 54.1872 L2048.99 60.2288 Q2045.55 61.6872 2041.94 62.4511 Q2038.33 63.2149 2034.62 63.2149 Q2025.31 63.2149 2019.86 57.7983 Q2014.44 52.3817 2014.44 43.1456 Q2014.44 33.597 2019.58 28.0068 Q2024.76 22.3818 2033.5 22.3818 Q2041.35 22.3818 2045.9 27.4512 Q2050.48 32.4859 2050.48 41.1664 M2044.1 39.2915 Q2044.03 34.0484 2041.14 30.9234 Q2038.3 27.7985 2033.57 27.7985 Q2028.23 27.7985 2025 30.8193 Q2021.8 33.8401 2021.32 39.3262 L2044.1 39.2915 Z" fill="#000000" fill-rule="evenodd" fill-opacity="1" /><path clip-path="url(#clip030)" d="M2111.56 24.8124 L2111.56 30.7846 Q2108.85 29.2915 2106.11 28.5623 Q2103.4 27.7985 2100.62 27.7985 Q2094.41 27.7985 2090.97 31.7568 Q2087.53 35.6804 2087.53 42.7984 Q2087.53 49.9164 2090.97 53.8747 Q2094.41 57.7983 2100.62 57.7983 Q2103.4 57.7983 2106.11 57.0691 Q2108.85 56.3053 2111.56 54.8122 L2111.56 60.715 Q2108.89 61.9649 2106 62.5899 Q2103.16 63.2149 2099.93 63.2149 Q2091.14 63.2149 2085.97 57.6941 Q2080.8 52.1733 2080.8 42.7984 Q2080.8 33.2845 2086 27.8332 Q2091.25 22.3818 2100.34 22.3818 Q2103.3 22.3818 2106.11 23.0068 Q2108.92 23.5971 2111.56 24.8124 Z" fill="#000000" fill-rule="evenodd" fill-opacity="1" /><path clip-path="url(#clip030)" d="M2137.74 27.7985 Q2132.6 27.7985 2129.62 31.8262 Q2126.63 35.8193 2126.63 42.7984 Q2126.63 49.7775 2129.58 53.8053 Q2132.57 57.7983 2137.74 57.7983 Q2142.84 57.7983 2145.83 53.7705 Q2148.82 49.7428 2148.82 42.7984 Q2148.82 35.8887 2145.83 31.8609 Q2142.84 27.7985 2137.74 27.7985 M2137.74 22.3818 Q2146.07 22.3818 2150.83 27.7985 Q2155.59 33.2151 2155.59 42.7984 Q2155.59 52.3469 2150.83 57.7983 Q2146.07 63.2149 2137.74 63.2149 Q2129.37 63.2149 2124.62 57.7983 Q2119.89 52.3469 2119.89 42.7984 Q2119.89 33.2151 2124.62 27.7985 Q2129.37 22.3818 2137.74 22.3818 Z" fill="#000000" fill-rule="evenodd" fill-opacity="1" /><path clip-path="url(#clip030)" d="M2198.5 38.7359 L2198.5 62.208 L2192.12 62.208 L2192.12 38.9442 Q2192.12 33.4234 2189.96 30.6804 Q2187.81 27.9374 2183.5 27.9374 Q2178.33 27.9374 2175.34 31.2359 Q2172.36 34.5345 2172.36 40.229 L2172.36 62.208 L2165.93 62.208 L2165.93 23.3193 L2172.36 23.3193 L2172.36 29.361 Q2174.65 25.854 2177.74 24.1179 Q2180.87 22.3818 2184.93 22.3818 Q2191.63 22.3818 2195.07 26.5485 Q2198.5 30.6804 2198.5 38.7359 Z" fill="#000000" fill-rule="evenodd" fill-opacity="1" /><path clip-path="url(#clip030)" d="M2230.93 8.18051 L2230.93 13.493 L2224.82 13.493 Q2221.39 13.493 2220.03 14.8819 Q2218.71 16.2707 2218.71 19.8818 L2218.71 23.3193 L2229.23 23.3193 L2229.23 28.2846 L2218.71 28.2846 L2218.71 62.208 L2212.29 62.208 L2212.29 28.2846 L2206.18 28.2846 L2206.18 23.3193 L2212.29 23.3193 L2212.29 20.611 Q2212.29 14.118 2215.31 11.1666 Q2218.33 8.18051 2224.89 8.18051 L2230.93 8.18051 Z" fill="#000000" fill-rule="evenodd" fill-opacity="1" /><path clip-path="url(#clip030)" d="M2236.28 23.3193 L2242.67 23.3193 L2242.67 62.208 L2236.28 62.208 L2236.28 23.3193 M2236.28 8.18051 L2242.67 8.18051 L2242.67 16.2707 L2236.28 16.2707 L2236.28 8.18051 Z" fill="#000000" fill-rule="evenodd" fill-opacity="1" /><path clip-path="url(#clip030)" d="M2273.71 42.6595 Q2265.97 42.6595 2262.98 44.4303 Q2260 46.2011 2260 50.472 Q2260 53.8747 2262.22 55.8886 Q2264.48 57.8677 2268.33 57.8677 Q2273.64 57.8677 2276.84 54.1178 Q2280.07 50.3331 2280.07 44.0831 L2280.07 42.6595 L2273.71 42.6595 M2286.45 40.0206 L2286.45 62.208 L2280.07 62.208 L2280.07 56.3053 Q2277.88 59.8469 2274.61 61.5483 Q2271.35 63.2149 2266.63 63.2149 Q2260.66 63.2149 2257.11 59.8816 Q2253.61 56.5136 2253.61 50.8886 Q2253.61 44.3262 2257.98 40.9928 Q2262.39 37.6595 2271.11 37.6595 L2280.07 37.6595 L2280.07 37.0345 Q2280.07 32.6248 2277.15 30.229 Q2274.27 27.7985 2269.02 27.7985 Q2265.69 27.7985 2262.53 28.5971 Q2259.37 29.3957 2256.46 30.9929 L2256.46 25.0901 Q2259.96 23.736 2263.26 23.0763 Q2266.56 22.3818 2269.68 22.3818 Q2278.12 22.3818 2282.29 26.7568 Q2286.45 31.1318 2286.45 40.0206 Z" fill="#000000" fill-rule="evenodd" fill-opacity="1" /><path clip-path="url(#clip030)" d="M2331.94 38.7359 L2331.94 62.208 L2325.55 62.208 L2325.55 38.9442 Q2325.55 33.4234 2323.4 30.6804 Q2321.25 27.9374 2316.94 27.9374 Q2311.77 27.9374 2308.78 31.2359 Q2305.8 34.5345 2305.8 40.229 L2305.8 62.208 L2299.37 62.208 L2299.37 23.3193 L2305.8 23.3193 L2305.8 29.361 Q2308.09 25.854 2311.18 24.1179 Q2314.3 22.3818 2318.36 22.3818 Q2325.07 22.3818 2328.5 26.5485 Q2331.94 30.6804 2331.94 38.7359 Z" fill="#000000" fill-rule="evenodd" fill-opacity="1" /><path clip-path="url(#clip030)" d="M2372.67 24.8124 L2372.67 30.7846 Q2369.96 29.2915 2367.22 28.5623 Q2364.51 27.7985 2361.73 27.7985 Q2355.52 27.7985 2352.08 31.7568 Q2348.64 35.6804 2348.64 42.7984 Q2348.64 49.9164 2352.08 53.8747 Q2355.52 57.7983 2361.73 57.7983 Q2364.51 57.7983 2367.22 57.0691 Q2369.96 56.3053 2372.67 54.8122 L2372.67 60.715 Q2370 61.9649 2367.11 62.5899 Q2364.27 63.2149 2361.04 63.2149 Q2352.25 63.2149 2347.08 57.6941 Q2341.91 52.1733 2341.91 42.7984 Q2341.91 33.2845 2347.11 27.8332 Q2352.36 22.3818 2361.45 22.3818 Q2364.41 22.3818 2367.22 23.0068 Q2370.03 23.5971 2372.67 24.8124 M2363.64 62.208 Q2365.55 64.3608 2366.49 66.1663 Q2367.43 68.0066 2367.43 69.6732 Q2367.43 72.7635 2365.34 74.326 Q2363.26 75.9232 2359.16 75.9232 Q2357.57 75.9232 2356.04 75.7149 Q2354.54 75.5065 2353.05 75.0899 L2353.05 70.5413 Q2354.23 71.1316 2355.52 71.3746 Q2356.8 71.6524 2358.43 71.6524 Q2360.48 71.6524 2361.52 70.8191 Q2362.57 69.9857 2362.57 68.3885 Q2362.57 67.3469 2361.8 65.8191 Q2361.07 64.326 2359.51 62.208 L2363.64 62.208 Z" fill="#000000" fill-rule="evenodd" fill-opacity="1" /><path clip-path="url(#clip030)" d="M2401.45 42.6595 Q2393.71 42.6595 2390.73 44.4303 Q2387.74 46.2011 2387.74 50.472 Q2387.74 53.8747 2389.96 55.8886 Q2392.22 57.8677 2396.07 57.8677 Q2401.38 57.8677 2404.58 54.1178 Q2407.81 50.3331 2407.81 44.0831 L2407.81 42.6595 L2401.45 42.6595 M2414.2 40.0206 L2414.2 62.208 L2407.81 62.208 L2407.81 56.3053 Q2405.62 59.8469 2402.36 61.5483 Q2399.09 63.2149 2394.37 63.2149 Q2388.4 63.2149 2384.86 59.8816 Q2381.35 56.5136 2381.35 50.8886 Q2381.35 44.3262 2385.73 40.9928 Q2390.13 37.6595 2398.85 37.6595 L2407.81 37.6595 L2407.81 37.0345 Q2407.81 32.6248 2404.89 30.229 Q2402.01 27.7985 2396.77 27.7985 Q2393.43 27.7985 2390.27 28.5971 Q2387.11 29.3957 2384.2 30.9929 L2384.2 25.0901 Q2387.7 23.736 2391 23.0763 Q2394.3 22.3818 2397.43 22.3818 Q2405.86 22.3818 2410.03 26.7568 Q2414.2 31.1318 2414.2 40.0206 Z" fill="#000000" fill-rule="evenodd" fill-opacity="1" /><path clip-path="url(#clip032)" d="
M316.418 2145.95 L330.256 2125.63 L344.094 2104.19 L357.932 2081.61 L371.769 2057.86 L385.607 2032.91 L399.445 2006.76 L413.283 1979.4 L427.121 1950.82 L440.958 1921.03 
  L454.796 1889.98 L468.634 1857.74 L482.472 1824.32 L496.31 1789.79 L510.148 1754.17 L523.985 1717.53 L537.823 1679.78 L551.661 1641.05 L565.499 1601.64 L579.337 1561.58 
  L593.174 1521.44 L607.012 1480.81 L620.85 1439.43 L634.688 1397.76 L648.526 1355.76 L662.364 1313.63 L676.201 1271.84 L690.039 1230.31 L703.877 1188.57 L717.715 1147 
  L731.553 1105.92 L745.39 1065.64 L759.228 1026.82 L773.066 989.422 L786.904 952.892 L800.742 917.416 L814.58 882.838 L828.417 849.058 L842.255 816.707 L856.093 785.509 
  L869.931 755.53 L883.769 725.731 L897.606 696.944 L911.444 669.788 L925.282 644.461 L939.12 620.595 L952.958 597.925 L966.796 576.315 L980.633 555.845 L994.471 536.002 
  L1008.31 517.952 L1022.15 500.916 L1035.98 484.912 L1049.82 469.161 L1063.66 454.086 L1077.5 439.762 L1091.34 426.871 L1105.17 414.907 L1119.01 404.165 L1132.85 394.509 
  L1146.69 385.26 L1160.53 376.079 L1174.36 367.494 L1188.2 359.692 L1202.04 352.425 L1215.88 345.551 L1229.71 339.105 L1243.55 334.028 L1257.39 329.018 L1271.23 323.741 
  L1285.07 318.825 L1298.9 314.322 L1312.74 310.281 L1326.58 306.8 L1340.42 303.912 L1354.25 300.975 L1368.09 298.139 L1381.93 295.42 L1395.77 292.984 L1409.61 290.75 
  L1423.44 288.759 L1437.28 286.911 L1451.12 285.199 L1464.96 283.517 L1478.79 281.846 L1492.63 280.3 L1506.47 278.868 L1520.31 277.54 L1534.15 276.325 L1547.98 275.194 
  L1561.82 274.136 L1575.66 273.305 L1589.5 272.535 L1603.34 271.817 L1617.17 271.16 L1631.01 270.554 L1644.85 269.99 L1658.69 269.467 L1672.52 268.984 L1686.36 268.536 
  L1700.2 268.118 L1714.04 267.653 L1727.88 267.224 L1741.71 266.826 L1755.55 266.456 L1769.39 266.113 L1783.23 265.793 L1797.06 265.493 L1810.9 265.212 L1824.74 264.949 
  L1838.58 264.703 L1852.42 264.473 L1866.25 264.261 L1880.09 264.063 L1893.93 263.881 L1907.77 263.713 L1921.61 263.559 L1935.44 263.417 L1949.28 263.288 L1963.12 263.169 
  L1976.96 263.061 L1990.79 262.962 L2004.63 262.872 L2018.47 262.789 L2032.31 262.713 L2046.15 262.642 L2059.98 262.575 L2073.82 262.512 L2087.66 262.45 L2101.5 262.391 
  L2115.33 262.335 L2129.17 262.283 L2143.01 262.234 L2156.85 262.188 L2170.69 262.145 L2184.52 262.106 L2198.36 262.069 L2212.2 262.036 L2226.04 262.005 L2239.87 261.977 
  L2253.71 261.951 L2267.55 261.928 L2281.39 261.908 L2295.23 261.889 L2309.06 261.873 L2322.9 261.858 L2336.74 261.844 L2350.58 261.832 L2364.42 261.821 L2378.25 261.811 
  L2392.09 261.801 L2405.93 261.792 L2419.77 261.782 L2433.6 261.773 L2447.44 261.763 L2461.28 261.753 L2475.12 261.744 L2488.96 261.735 L2502.79 261.726 L2516.63 261.717 
  L2530.47 261.71 L2544.31 261.702 L2558.14 261.696 L2571.98 261.689 L2585.82 261.684 L2599.66 261.679 L2613.5 261.674 L2627.33 261.671 L2641.17 261.668 L2655.01 261.665 
  L2668.85 261.663 L2682.69 261.661 L2696.52 261.66 L2710.36 261.66 L2724.2 261.66 L2738.04 261.66 L2751.87 261.66 L2765.71 261.661 L2779.55 261.661 L2793.39 261.662 
  L2807.23 261.663 L2821.06 261.663 L2834.9 261.663 L2848.74 261.663 L2862.58 261.662 L2876.41 261.661 L2890.25 261.66 L2904.09 261.659 L2917.93 261.657 L2931.77 261.656 
  L2945.6 261.655 L2959.44 261.653 L2973.28 261.652 L2987.12 261.651 L3000.96 261.65 L3014.79 261.65 L3028.63 261.649 L3042.47 261.648 L3056.31 261.647 L3070.14 261.647 
  L3070.14 180.282 L3056.31 180.283 L3042.47 180.284 L3028.63 180.285 L3014.79 180.286 L3000.96 180.287 L2987.12 180.287 L2973.28 180.287 L2959.44 180.287 L2945.6 180.287 
  L2931.77 180.287 L2917.93 180.287 L2904.09 180.286 L2890.25 180.286 L2876.41 180.285 L2862.58 180.284 L2848.74 180.284 L2834.9 180.283 L2821.06 180.283 L2807.23 180.282 
  L2793.39 180.282 L2779.55 180.283 L2765.71 180.284 L2751.87 180.285 L2738.04 180.286 L2724.2 180.288 L2710.36 180.29 L2696.52 180.293 L2682.69 180.297 L2668.85 180.3 
  L2655.01 180.304 L2641.17 180.309 L2627.33 180.314 L2613.5 180.319 L2599.66 180.325 L2585.82 180.331 L2571.98 180.337 L2558.14 180.343 L2544.31 180.349 L2530.47 180.356 
  L2516.63 180.362 L2502.79 180.368 L2488.96 180.374 L2475.12 180.381 L2461.28 180.388 L2447.44 180.394 L2433.6 180.401 L2419.77 180.409 L2405.93 180.418 L2392.09 180.427 
  L2378.25 180.438 L2364.42 180.45 L2350.58 180.463 L2336.74 180.478 L2322.9 180.495 L2309.06 180.513 L2295.23 180.533 L2281.39 180.556 L2267.55 180.58 L2253.71 180.607 
  L2239.87 180.636 L2226.04 180.667 L2212.2 180.7 L2198.36 180.736 L2184.52 180.773 L2170.69 180.811 L2156.85 180.851 L2143.01 180.894 L2129.17 180.939 L2115.33 180.987 
  L2101.5 181.038 L2087.66 181.093 L2073.82 181.152 L2059.98 181.217 L2046.15 181.287 L2032.31 181.364 L2018.47 181.449 L2004.63 181.541 L1990.79 181.642 L1976.96 181.752 
  L1963.12 181.872 L1949.28 182.002 L1935.44 182.143 L1921.61 182.296 L1907.77 182.46 L1893.93 182.635 L1880.09 182.824 L1866.25 183.025 L1852.42 183.24 L1838.58 183.471 
  L1824.74 183.719 L1810.9 183.985 L1797.06 184.271 L1783.23 184.57 L1769.39 184.891 L1755.55 185.238 L1741.71 185.635 L1727.88 186.111 L1714.04 186.626 L1700.2 187.183 
  L1686.36 187.784 L1672.52 188.433 L1658.69 189.132 L1644.85 189.766 L1631.01 190.442 L1617.17 191.143 L1603.34 191.877 L1589.5 192.522 L1575.66 193.351 L1561.82 194.303 
  L1547.98 195.293 L1534.15 196.349 L1520.31 197.338 L1506.47 198.405 L1492.63 199.655 L1478.79 201.174 L1464.96 202.815 L1451.12 204.546 L1437.28 206.412 L1423.44 208.591 
  L1409.61 211.207 L1395.77 214.018 L1381.93 217.036 L1368.09 220.275 L1354.25 223.695 L1340.42 226.558 L1326.58 229.386 L1312.74 232.419 L1298.9 235.657 L1285.07 238.996 
  L1271.23 242.589 L1257.39 246.455 L1243.55 250.589 L1229.71 255.03 L1215.88 259.801 L1202.04 265.626 L1188.2 271.242 L1174.36 277.25 L1160.53 283.686 L1146.69 290.901 
  L1132.85 298.987 L1119.01 307.008 L1105.17 315.668 L1091.34 324.934 L1077.5 334.993 L1063.66 346.102 L1049.82 358.046 L1035.98 370.591 L1022.15 384.034 L1008.31 398.216 
  L994.471 412.737 L980.633 427.657 L966.796 443.503 L952.958 460.312 L939.12 478.108 L925.282 496.928 L911.444 516.611 L897.606 538.01 L883.769 560.066 L869.931 583.238 
  L856.093 607.958 L842.255 633.911 L828.417 661.499 L814.58 690.302 L800.742 719.768 L786.904 749.942 L773.066 781.078 L759.228 813.323 L745.39 846.758 L731.553 881.243 
  L717.715 916.81 L703.877 954.105 L690.039 992.604 L676.201 1031.5 L662.364 1070.98 L648.526 1111.23 L634.688 1151.65 L620.85 1192.82 L607.012 1234.93 L593.174 1276.61 
  L579.337 1318.45 L565.499 1360.34 L551.661 1402.31 L537.823 1444.12 L523.985 1485.62 L510.148 1526.75 L496.31 1567.33 L482.472 1607.27 L468.634 1646.47 L454.796 1684.84 
  L440.958 1722.31 L427.121 1758.8 L413.283 1794.18 L399.445 1828.62 L385.607 1861.93 L371.769 1894.07 L357.932 1924.99 L344.094 1954.7 L330.256 1983.14 L316.418 2010.27 
   Z
  " fill="#009af9" fill-rule="evenodd" fill-opacity="0.2"/>
<polyline clip-path="url(#clip032)" style="stroke:#009af9; stroke-linecap:butt; stroke-linejoin:round; stroke-width:12; stroke-opacity:1; fill:none" points="
  316.418,2075.79 330.256,2051.97 344.094,2026.92 357.932,2000.46 371.769,1972.78 385.607,1943.86 399.445,1913.75 413.283,1882.67 427.121,1850.43 440.958,1817.05 
  454.796,1782.59 468.634,1747.08 482.472,1710.24 496.31,1672.34 510.148,1633.57 523.985,1594.29 537.823,1554.32 551.661,1513.75 565.499,1472.69 579.337,1430.91 
  593.174,1388.75 607.012,1346.4 620.85,1303.99 634.688,1261.73 648.526,1220.17 662.364,1178.82 676.201,1137.81 690.039,1097.35 703.877,1057.53 717.715,1019.04 
  731.553,981.585 745.39,944.514 759.228,907.809 773.066,872.195 786.904,837.266 800.742,804.191 814.58,772.966 828.417,742.428 842.255,713.896 856.093,686.552 
  869.931,660.02 883.769,634.653 897.606,609.364 911.444,584.799 925.282,562.72 939.12,541.825 952.958,521.677 966.796,501.819 980.633,483.486 994.471,466.418 
  1008.31,449.566 1022.15,434.095 1035.98,420.022 1049.82,406.555 1063.66,394.77 1077.5,381.458 1091.34,369.758 1105.17,359.734 1119.01,350.511 1132.85,341.966 
  1146.69,333.404 1160.53,325.471 1174.36,318.467 1188.2,311.815 1202.04,304.751 1215.88,298.451 1229.71,292.747 1243.55,287.583 1257.39,283.248 1271.23,278.319 
  1285.07,273.928 1298.9,270.044 1312.74,266.709 1326.58,263.061 1340.42,259.979 1354.25,257.212 1368.09,254.295 1381.93,251.79 1395.77,249.487 1409.61,247.356 
  1423.44,245.406 1437.28,243.468 1451.12,241.732 1464.96,240.091 1478.79,238.501 1492.63,236.972 1506.47,235.649 1520.31,234.535 1534.15,233.494 1547.98,232.391 
  1561.82,231.425 1575.66,230.541 1589.5,229.682 1603.34,228.883 1617.17,228.184 1631.01,227.568 1644.85,226.997 1658.69,226.467 1672.52,225.975 1686.36,225.517 
  1700.2,225.042 1714.04,224.557 1727.88,224.109 1741.71,223.693 1755.55,223.378 1769.39,223.094 1783.23,222.83 1797.06,222.584 1810.9,222.355 1824.74,222.141 
  1838.58,221.94 1852.42,221.753 1866.25,221.577 1880.09,221.413 1893.93,221.26 1907.77,221.119 1921.61,220.988 1935.44,220.868 1949.28,220.757 1963.12,220.655 
  1976.96,220.562 1990.79,220.477 2004.63,220.399 2018.47,220.327 2032.31,220.262 2046.15,220.202 2059.98,220.146 2073.82,220.094 2087.66,220.045 2101.5,219.999 
  2115.33,219.955 2129.17,219.914 2143.01,219.875 2156.85,219.837 2170.69,219.802 2184.52,219.769 2198.36,219.737 2212.2,219.708 2226.04,219.681 2239.87,219.657 
  2253.71,219.634 2267.55,219.613 2281.39,219.594 2295.23,219.577 2309.06,219.562 2322.9,219.548 2336.74,219.536 2350.58,219.525 2364.42,219.515 2378.25,219.507 
  2392.09,219.499 2405.93,219.492 2419.77,219.485 2433.6,219.479 2447.44,219.472 2461.28,219.466 2475.12,219.46 2488.96,219.455 2502.79,219.449 2516.63,219.443 
  2530.47,219.438 2544.31,219.432 2558.14,219.426 2571.98,219.421 2585.82,219.415 2599.66,219.411 2613.5,219.406 2627.33,219.402 2641.17,219.398 2655.01,219.395 
  2668.85,219.392 2682.69,219.39 2696.52,219.388 2710.36,219.386 2724.2,219.385 2738.04,219.384 2751.87,219.383 2765.71,219.383 2779.55,219.383 2793.39,219.383 
  2807.23,219.383 2821.06,219.384 2834.9,219.384 2848.74,219.385 2862.58,219.385 2876.41,219.385 2890.25,219.385 2904.09,219.385 2917.93,219.385 2931.77,219.384 
  2945.6,219.384 2959.44,219.384 2973.28,219.384 2987.12,219.383 3000.96,219.383 3014.79,219.382 3028.63,219.381 3042.47,219.38 3056.31,219.38 3070.14,219.379 
  
  "/>
<path clip-path="url(#clip032)" d="
M316.418 2129.13 L330.256 2107.99 L344.094 2085.69 L357.932 2062.23 L371.769 2037.43 L385.607 2011.68 L399.445 1984.76 L413.283 1956.64 L427.121 1927.11 L440.958 1896.3 
  L454.796 1864.3 L468.634 1831.25 L482.472 1797.18 L496.31 1762.05 L510.148 1725.91 L523.985 1688.82 L537.823 1650.86 L551.661 1612.11 L565.499 1572.63 L579.337 1532.64 
  L593.174 1492.33 L607.012 1451.22 L620.85 1409.22 L634.688 1366.81 L648.526 1324.59 L662.364 1282.71 L676.201 1241.6 L690.039 1199.92 L703.877 1157.87 L717.715 1116.48 
  L731.553 1076.88 L745.39 1037.29 L759.228 999.576 L773.066 962.842 L786.904 925.542 L800.742 888.937 L814.58 854.483 L828.417 821.969 L842.255 789.146 L856.093 758.124 
  L869.931 727.797 L883.769 699.071 L897.606 671.281 L911.444 644.666 L925.282 618.383 L939.12 593.966 L952.958 570.438 L966.796 548.459 L980.633 529.219 L994.471 510.171 
  L1008.31 492.301 L1022.15 475.353 L1035.98 459.309 L1049.82 444.453 L1063.66 430.504 L1077.5 417.254 L1091.34 406.665 L1105.17 396.186 L1119.01 386.172 L1132.85 376.646 
  L1146.69 367.964 L1160.53 359.79 L1174.36 352.718 L1188.2 345.715 L1202.04 338.551 L1215.88 332.997 L1229.71 327.623 L1243.55 321.814 L1257.39 315.966 L1271.23 311.571 
  L1285.07 307.525 L1298.9 302.912 L1312.74 298.479 L1326.58 294.447 L1340.42 291.223 L1354.25 288.039 L1368.09 284.626 L1381.93 281.783 L1395.77 279.05 L1409.61 276.484 
  L1423.44 274.253 L1437.28 272.335 L1451.12 270.809 L1464.96 269.396 L1478.79 268.085 L1492.63 266.827 L1506.47 265.531 L1520.31 264.275 L1534.15 263.032 L1547.98 261.878 
  L1561.82 260.805 L1575.66 259.704 L1589.5 258.85 L1603.34 258.083 L1617.17 257.307 L1631.01 256.577 L1644.85 255.872 L1658.69 255.247 L1672.52 254.714 L1686.36 254.183 
  L1700.2 253.644 L1714.04 253.146 L1727.88 252.74 L1741.71 252.38 L1755.55 252.047 L1769.39 251.758 L1783.23 251.49 L1797.06 251.244 L1810.9 251.016 L1824.74 250.806 
  L1838.58 250.612 L1852.42 250.398 L1866.25 250.192 L1880.09 250.001 L1893.93 249.817 L1907.77 249.644 L1921.61 249.486 L1935.44 249.34 L1949.28 249.207 L1963.12 249.085 
  L1976.96 248.974 L1990.79 248.872 L2004.63 248.78 L2018.47 248.696 L2032.31 248.62 L2046.15 248.549 L2059.98 248.484 L2073.82 248.422 L2087.66 248.364 L2101.5 248.31 
  L2115.33 248.258 L2129.17 248.209 L2143.01 248.162 L2156.85 248.119 L2170.69 248.079 L2184.52 248.041 L2198.36 248.007 L2212.2 247.975 L2226.04 247.945 L2239.87 247.919 
  L2253.71 247.894 L2267.55 247.872 L2281.39 247.853 L2295.23 247.835 L2309.06 247.818 L2322.9 247.802 L2336.74 247.788 L2350.58 247.775 L2364.42 247.764 L2378.25 247.753 
  L2392.09 247.742 L2405.93 247.732 L2419.77 247.722 L2433.6 247.712 L2447.44 247.701 L2461.28 247.691 L2475.12 247.681 L2488.96 247.671 L2502.79 247.662 L2516.63 247.653 
  L2530.47 247.645 L2544.31 247.637 L2558.14 247.63 L2571.98 247.624 L2585.82 247.618 L2599.66 247.613 L2613.5 247.608 L2627.33 247.604 L2641.17 247.601 L2655.01 247.598 
  L2668.85 247.596 L2682.69 247.595 L2696.52 247.594 L2710.36 247.593 L2724.2 247.593 L2738.04 247.593 L2751.87 247.593 L2765.71 247.594 L2779.55 247.595 L2793.39 247.596 
  L2807.23 247.596 L2821.06 247.597 L2834.9 247.597 L2848.74 247.597 L2862.58 247.596 L2876.41 247.595 L2890.25 247.593 L2904.09 247.591 L2917.93 247.59 L2931.77 247.589 
  L2945.6 247.587 L2959.44 247.586 L2973.28 247.585 L2987.12 247.584 L3000.96 247.583 L3014.79 247.582 L3028.63 247.581 L3042.47 247.58 L3056.31 247.58 L3070.14 247.579 
  L3070.14 194.053 L3056.31 194.053 L3042.47 194.054 L3028.63 194.055 L3014.79 194.055 L3000.96 194.056 L2987.12 194.057 L2973.28 194.058 L2959.44 194.059 L2945.6 194.06 
  L2931.77 194.061 L2917.93 194.062 L2904.09 194.064 L2890.25 194.065 L2876.41 194.067 L2862.58 194.068 L2848.74 194.068 L2834.9 194.068 L2821.06 194.068 L2807.23 194.067 
  L2793.39 194.066 L2779.55 194.065 L2765.71 194.064 L2751.87 194.064 L2738.04 194.063 L2724.2 194.063 L2710.36 194.063 L2696.52 194.063 L2682.69 194.064 L2668.85 194.065 
  L2655.01 194.067 L2641.17 194.069 L2627.33 194.072 L2613.5 194.076 L2599.66 194.079 L2585.82 194.084 L2571.98 194.089 L2558.14 194.095 L2544.31 194.101 L2530.47 194.107 
  L2516.63 194.114 L2502.79 194.122 L2488.96 194.131 L2475.12 194.139 L2461.28 194.148 L2447.44 194.157 L2433.6 194.167 L2419.77 194.176 L2405.93 194.184 L2392.09 194.193 
  L2378.25 194.202 L2364.42 194.211 L2350.58 194.221 L2336.74 194.231 L2322.9 194.243 L2309.06 194.257 L2295.23 194.272 L2281.39 194.289 L2267.55 194.308 L2253.71 194.329 
  L2239.87 194.353 L2226.04 194.379 L2212.2 194.407 L2198.36 194.438 L2184.52 194.472 L2170.69 194.509 L2156.85 194.549 L2143.01 194.592 L2129.17 194.638 L2115.33 194.687 
  L2101.5 194.739 L2087.66 194.793 L2073.82 194.856 L2059.98 194.926 L2046.15 195.001 L2032.31 195.082 L2018.47 195.17 L2004.63 195.266 L1990.79 195.371 L1976.96 195.466 
  L1963.12 195.551 L1949.28 195.643 L1935.44 195.743 L1921.61 195.853 L1907.77 195.971 L1893.93 196.099 L1880.09 196.236 L1866.25 196.384 L1852.42 196.552 L1838.58 196.746 
  L1824.74 196.955 L1810.9 197.181 L1797.06 197.436 L1783.23 197.708 L1769.39 198.033 L1755.55 198.388 L1741.71 198.769 L1727.88 199.178 L1714.04 199.62 L1700.2 200.097 
  L1686.36 200.613 L1672.52 201.172 L1658.69 201.779 L1644.85 202.417 L1631.01 203.072 L1617.17 203.713 L1603.34 204.4 L1589.5 205.15 L1575.66 205.956 L1561.82 206.896 
  L1547.98 208.06 L1534.15 209.273 L1520.31 210.489 L1506.47 211.53 L1492.63 212.635 L1478.79 214.003 L1464.96 215.752 L1451.12 217.477 L1437.28 219.58 L1423.44 221.655 
  L1409.61 223.783 L1395.77 226.098 L1381.93 228.645 L1368.09 231.404 L1354.25 234.224 L1340.42 237.307 L1326.58 240.179 L1312.74 243.628 L1298.9 247.495 L1285.07 251.679 
  L1271.23 255.905 L1257.39 260.051 L1243.55 264.293 L1229.71 268.859 L1215.88 274.289 L1202.04 280.907 L1188.2 287.051 L1174.36 293.694 L1160.53 300.499 L1146.69 307.753 
  L1132.85 315.966 L1119.01 324.225 L1105.17 332.703 L1091.34 342.045 L1077.5 351.84 L1063.66 362.116 L1049.82 373.571 L1035.98 385.539 L1022.15 398.764 L1008.31 412.152 
  L994.471 426.665 L980.633 441.835 L966.796 457.535 L952.958 474.382 L939.12 492.871 L925.282 511.522 L911.444 532.337 L897.606 553.679 L883.769 575.335 L869.931 598.662 
  L856.093 623.926 L842.255 649.78 L828.417 677.331 L814.58 706.109 L800.742 735.084 L786.904 765.925 L773.066 797.748 L759.228 831.016 L745.39 864.753 L731.553 899.539 
  L717.715 936.029 L703.877 972.957 L690.039 1011.12 L676.201 1050.15 L662.364 1090.28 L648.526 1130.4 L634.688 1170.78 L620.85 1212.35 L607.012 1254.3 L593.174 1296.19 
  L579.337 1338.29 L565.499 1380.52 L551.661 1422.67 L537.823 1464.49 L523.985 1505.93 L510.148 1546.89 L496.31 1587.25 L482.472 1626.93 L468.634 1665.82 L454.796 1703.51 
  L440.958 1740.27 L427.121 1776.14 L413.283 1811.02 L399.445 1844.84 L385.607 1877.51 L371.769 1909.03 L357.932 1939.41 L344.094 1968.56 L330.256 1996.46 L316.418 2023.14 
   Z
  " fill="#e26f46" fill-rule="evenodd" fill-opacity="0.2"/>
<polyline clip-path="url(#clip032)" style="stroke:#e26f46; stroke-linecap:butt; stroke-linejoin:round; stroke-width:12; stroke-opacity:1; fill:none" points="
  316.418,2075.79 330.256,2051.97 344.094,2026.92 357.932,2000.46 371.769,1972.78 385.607,1943.86 399.445,1913.75 413.283,1882.67 427.121,1850.43 440.958,1817.05 
  454.796,1782.59 468.634,1747.08 482.472,1710.24 496.31,1672.34 510.148,1633.57 523.985,1594.29 537.823,1554.32 551.661,1513.75 565.499,1472.69 579.337,1430.91 
  593.174,1388.75 607.012,1346.4 620.85,1303.99 634.688,1261.73 648.526,1220.17 662.364,1178.82 676.201,1137.81 690.039,1097.35 703.877,1057.53 717.715,1019.04 
  731.553,981.585 745.39,944.514 759.228,907.809 773.066,872.195 786.904,837.266 800.742,804.191 814.58,772.966 828.417,742.428 842.255,713.896 856.093,686.552 
  869.931,660.02 883.769,634.653 897.606,609.364 911.444,584.799 925.282,562.72 939.12,541.825 952.958,521.677 966.796,501.819 980.633,483.486 994.471,466.418 
  1008.31,449.566 1022.15,434.095 1035.98,420.022 1049.82,406.555 1063.66,394.77 1077.5,381.458 1091.34,369.758 1105.17,359.734 1119.01,350.511 1132.85,341.966 
  1146.69,333.404 1160.53,325.471 1174.36,318.467 1188.2,311.815 1202.04,304.751 1215.88,298.451 1229.71,292.747 1243.55,287.583 1257.39,283.248 1271.23,278.319 
  1285.07,273.928 1298.9,270.044 1312.74,266.709 1326.58,263.061 1340.42,259.979 1354.25,257.212 1368.09,254.295 1381.93,251.79 1395.77,249.487 1409.61,247.356 
  1423.44,245.406 1437.28,243.468 1451.12,241.732 1464.96,240.091 1478.79,238.501 1492.63,236.972 1506.47,235.649 1520.31,234.535 1534.15,233.494 1547.98,232.391 
  1561.82,231.425 1575.66,230.541 1589.5,229.682 1603.34,228.883 1617.17,228.184 1631.01,227.568 1644.85,226.997 1658.69,226.467 1672.52,225.975 1686.36,225.517 
  1700.2,225.042 1714.04,224.557 1727.88,224.109 1741.71,223.693 1755.55,223.378 1769.39,223.094 1783.23,222.83 1797.06,222.584 1810.9,222.355 1824.74,222.141 
  1838.58,221.94 1852.42,221.753 1866.25,221.577 1880.09,221.413 1893.93,221.26 1907.77,221.119 1921.61,220.988 1935.44,220.868 1949.28,220.757 1963.12,220.655 
  1976.96,220.562 1990.79,220.477 2004.63,220.399 2018.47,220.327 2032.31,220.262 2046.15,220.202 2059.98,220.146 2073.82,220.094 2087.66,220.045 2101.5,219.999 
  2115.33,219.955 2129.17,219.914 2143.01,219.875 2156.85,219.837 2170.69,219.802 2184.52,219.769 2198.36,219.737 2212.2,219.708 2226.04,219.681 2239.87,219.657 
  2253.71,219.634 2267.55,219.613 2281.39,219.594 2295.23,219.577 2309.06,219.562 2322.9,219.548 2336.74,219.536 2350.58,219.525 2364.42,219.515 2378.25,219.507 
  2392.09,219.499 2405.93,219.492 2419.77,219.485 2433.6,219.479 2447.44,219.472 2461.28,219.466 2475.12,219.46 2488.96,219.455 2502.79,219.449 2516.63,219.443 
  2530.47,219.438 2544.31,219.432 2558.14,219.426 2571.98,219.421 2585.82,219.415 2599.66,219.411 2613.5,219.406 2627.33,219.402 2641.17,219.398 2655.01,219.395 
  2668.85,219.392 2682.69,219.39 2696.52,219.388 2710.36,219.386 2724.2,219.385 2738.04,219.384 2751.87,219.383 2765.71,219.383 2779.55,219.383 2793.39,219.383 
  2807.23,219.383 2821.06,219.384 2834.9,219.384 2848.74,219.385 2862.58,219.385 2876.41,219.385 2890.25,219.385 2904.09,219.385 2917.93,219.385 2931.77,219.384 
  2945.6,219.384 2959.44,219.384 2973.28,219.384 2987.12,219.383 3000.96,219.383 3014.79,219.382 3028.63,219.381 3042.47,219.38 3056.31,219.38 3070.14,219.379 
  
  "/>
<path clip-path="url(#clip030)" d="
M2631.36 2135.47 L3055.46 2135.47 L3055.46 1979.95 L2631.36 1979.95  Z
  " fill="#eaeaea" fill-rule="evenodd" fill-opacity="1"/>
<polyline clip-path="url(#clip030)" style="stroke:#ffffff; stroke-linecap:butt; stroke-linejoin:round; stroke-width:4; stroke-opacity:1; fill:none" points="
  2631.36,2135.47 3055.46,2135.47 3055.46,1979.95 2631.36,1979.95 2631.36,2135.47 
  "/>
<polyline clip-path="url(#clip030)" style="stroke:#009af9; stroke-linecap:butt; stroke-linejoin:round; stroke-width:4; stroke-opacity:1; fill:none" points="
  2663.79,2031.79 2858.39,2031.79 
  "/>
<path clip-path="url(#clip030)" d="M2893.05 2048.35 L2893.05 2044.09 Q2894.81 2044.92 2896.61 2045.36 Q2898.42 2045.8 2900.15 2045.8 Q2904.78 2045.8 2907.21 2042.7 Q2909.67 2039.58 2910.01 2033.23 Q2908.67 2035.22 2906.61 2036.29 Q2904.55 2037.35 2902.05 2037.35 Q2896.87 2037.35 2893.83 2034.23 Q2890.82 2031.08 2890.82 2025.64 Q2890.82 2020.32 2893.97 2017.1 Q2897.12 2013.88 2902.35 2013.88 Q2908.35 2013.88 2911.5 2018.49 Q2914.67 2023.07 2914.67 2031.82 Q2914.67 2039.99 2910.78 2044.88 Q2906.91 2049.74 2900.36 2049.74 Q2898.6 2049.74 2896.8 2049.39 Q2894.99 2049.04 2893.05 2048.35 M2902.35 2033.7 Q2905.5 2033.7 2907.33 2031.54 Q2909.18 2029.39 2909.18 2025.64 Q2909.18 2021.91 2907.33 2019.76 Q2905.5 2017.58 2902.35 2017.58 Q2899.2 2017.58 2897.35 2019.76 Q2895.52 2021.91 2895.52 2025.64 Q2895.52 2029.39 2897.35 2031.54 Q2899.2 2033.7 2902.35 2033.7 Z" fill="#000000" fill-rule="evenodd" fill-opacity="1" /><path clip-path="url(#clip030)" d="M2923.12 2014.51 L2941.47 2014.51 L2941.47 2018.44 L2927.4 2018.44 L2927.4 2026.91 Q2928.42 2026.57 2929.43 2026.4 Q2930.45 2026.22 2931.47 2026.22 Q2937.26 2026.22 2940.64 2029.39 Q2944.02 2032.56 2944.02 2037.98 Q2944.02 2043.56 2940.55 2046.66 Q2937.07 2049.74 2930.75 2049.74 Q2928.58 2049.74 2926.31 2049.37 Q2924.06 2049 2921.66 2048.26 L2921.66 2043.56 Q2923.74 2044.69 2925.96 2045.25 Q2928.18 2045.8 2930.66 2045.8 Q2934.67 2045.8 2937 2043.7 Q2939.34 2041.59 2939.34 2037.98 Q2939.34 2034.37 2937 2032.26 Q2934.67 2030.15 2930.66 2030.15 Q2928.79 2030.15 2926.91 2030.57 Q2925.06 2030.99 2923.12 2031.87 L2923.12 2014.51 Z" fill="#000000" fill-rule="evenodd" fill-opacity="1" /><path clip-path="url(#clip030)" d="M2982.63 2033.86 Q2980.62 2033.86 2979.46 2035.57 Q2978.32 2037.28 2978.32 2040.34 Q2978.32 2043.35 2979.46 2045.08 Q2980.62 2046.8 2982.63 2046.8 Q2984.6 2046.8 2985.73 2045.08 Q2986.89 2043.35 2986.89 2040.34 Q2986.89 2037.31 2985.73 2035.59 Q2984.6 2033.86 2982.63 2033.86 M2982.63 2030.92 Q2986.29 2030.92 2988.44 2033.46 Q2990.59 2036.01 2990.59 2040.34 Q2990.59 2044.67 2988.42 2047.21 Q2986.26 2049.74 2982.63 2049.74 Q2978.93 2049.74 2976.77 2047.21 Q2974.62 2044.67 2974.62 2040.34 Q2974.62 2035.99 2976.77 2033.46 Q2978.95 2030.92 2982.63 2030.92 M2958.74 2016.82 Q2956.75 2016.82 2955.59 2018.56 Q2954.46 2020.27 2954.46 2023.28 Q2954.46 2026.33 2955.59 2028.05 Q2956.73 2029.76 2958.74 2029.76 Q2960.75 2029.76 2961.89 2028.05 Q2963.05 2026.33 2963.05 2023.28 Q2963.05 2020.29 2961.89 2018.56 Q2960.73 2016.82 2958.74 2016.82 M2979.64 2013.88 L2983.35 2013.88 L2961.73 2049.74 L2958.02 2049.74 L2979.64 2013.88 M2958.74 2013.88 Q2962.4 2013.88 2964.57 2016.43 Q2966.75 2018.95 2966.75 2023.28 Q2966.75 2027.65 2964.57 2030.18 Q2962.42 2032.7 2958.74 2032.7 Q2955.06 2032.7 2952.91 2030.18 Q2950.78 2027.63 2950.78 2023.28 Q2950.78 2018.97 2952.93 2016.43 Q2955.08 2013.88 2958.74 2013.88 Z" fill="#000000" fill-rule="evenodd" fill-opacity="1" /><polyline clip-path="url(#clip030)" style="stroke:#e26f46; stroke-linecap:butt; stroke-linejoin:round; stroke-width:4; stroke-opacity:1; fill:none" points="
  2663.79,2083.63 2858.39,2083.63 
  "/>
<path clip-path="url(#clip030)" d="M2903.16 2081.76 Q2900.01 2081.76 2898.16 2083.92 Q2896.33 2086.07 2896.33 2089.82 Q2896.33 2093.55 2898.16 2095.72 Q2900.01 2097.87 2903.16 2097.87 Q2906.31 2097.87 2908.14 2095.72 Q2909.99 2093.55 2909.99 2089.82 Q2909.99 2086.07 2908.14 2083.92 Q2906.31 2081.76 2903.16 2081.76 M2912.44 2067.11 L2912.44 2071.37 Q2910.69 2070.54 2908.88 2070.1 Q2907.1 2069.66 2905.34 2069.66 Q2900.71 2069.66 2898.25 2072.78 Q2895.82 2075.91 2895.48 2082.23 Q2896.84 2080.21 2898.9 2079.15 Q2900.96 2078.06 2903.44 2078.06 Q2908.65 2078.06 2911.66 2081.23 Q2914.69 2084.38 2914.69 2089.82 Q2914.69 2095.14 2911.54 2098.36 Q2908.39 2101.58 2903.16 2101.58 Q2897.17 2101.58 2894 2096.99 Q2890.82 2092.39 2890.82 2083.66 Q2890.82 2075.47 2894.71 2070.61 Q2898.6 2065.72 2905.15 2065.72 Q2906.91 2065.72 2908.69 2066.07 Q2910.5 2066.42 2912.44 2067.11 Z" fill="#000000" fill-rule="evenodd" fill-opacity="1" /><path clip-path="url(#clip030)" d="M2932.75 2084.49 Q2929.41 2084.49 2927.49 2086.28 Q2925.59 2088.06 2925.59 2091.18 Q2925.59 2094.31 2927.49 2096.09 Q2929.41 2097.87 2932.75 2097.87 Q2936.08 2097.87 2938 2096.09 Q2939.92 2094.29 2939.92 2091.18 Q2939.92 2088.06 2938 2086.28 Q2936.1 2084.49 2932.75 2084.49 M2928.07 2082.5 Q2925.06 2081.76 2923.37 2079.7 Q2921.7 2077.64 2921.7 2074.68 Q2921.7 2070.54 2924.64 2068.13 Q2927.61 2065.72 2932.75 2065.72 Q2937.91 2065.72 2940.85 2068.13 Q2943.79 2070.54 2943.79 2074.68 Q2943.79 2077.64 2942.1 2079.7 Q2940.43 2081.76 2937.44 2082.5 Q2940.82 2083.29 2942.7 2085.58 Q2944.6 2087.87 2944.6 2091.18 Q2944.6 2096.21 2941.52 2098.89 Q2938.46 2101.58 2932.75 2101.58 Q2927.03 2101.58 2923.95 2098.89 Q2920.89 2096.21 2920.89 2091.18 Q2920.89 2087.87 2922.79 2085.58 Q2924.69 2083.29 2928.07 2082.5 M2926.36 2075.12 Q2926.36 2077.8 2928.02 2079.31 Q2929.71 2080.81 2932.75 2080.81 Q2935.75 2080.81 2937.44 2079.31 Q2939.16 2077.8 2939.16 2075.12 Q2939.16 2072.43 2937.44 2070.93 Q2935.75 2069.42 2932.75 2069.42 Q2929.71 2069.42 2928.02 2070.93 Q2926.36 2072.43 2926.36 2075.12 Z" fill="#000000" fill-rule="evenodd" fill-opacity="1" /><path clip-path="url(#clip030)" d="M2982.31 2085.7 Q2980.29 2085.7 2979.13 2087.41 Q2978 2089.12 2978 2092.18 Q2978 2095.19 2979.13 2096.92 Q2980.29 2098.64 2982.31 2098.64 Q2984.27 2098.64 2985.41 2096.92 Q2986.56 2095.19 2986.56 2092.18 Q2986.56 2089.15 2985.41 2087.43 Q2984.27 2085.7 2982.31 2085.7 M2982.31 2082.76 Q2985.96 2082.76 2988.12 2085.3 Q2990.27 2087.85 2990.27 2092.18 Q2990.27 2096.51 2988.09 2099.05 Q2985.94 2101.58 2982.31 2101.58 Q2978.6 2101.58 2976.45 2099.05 Q2974.3 2096.51 2974.3 2092.18 Q2974.3 2087.83 2976.45 2085.3 Q2978.62 2082.76 2982.31 2082.76 M2958.42 2068.66 Q2956.43 2068.66 2955.27 2070.4 Q2954.13 2072.11 2954.13 2075.12 Q2954.13 2078.17 2955.27 2079.89 Q2956.4 2081.6 2958.42 2081.6 Q2960.43 2081.6 2961.56 2079.89 Q2962.72 2078.17 2962.72 2075.12 Q2962.72 2072.13 2961.56 2070.4 Q2960.41 2068.66 2958.42 2068.66 M2979.32 2065.72 L2983.02 2065.72 L2961.4 2101.58 L2957.7 2101.58 L2979.32 2065.72 M2958.42 2065.72 Q2962.07 2065.72 2964.25 2068.27 Q2966.43 2070.79 2966.43 2075.12 Q2966.43 2079.49 2964.25 2082.02 Q2962.1 2084.54 2958.42 2084.54 Q2954.74 2084.54 2952.58 2082.02 Q2950.45 2079.47 2950.45 2075.12 Q2950.45 2070.81 2952.61 2068.27 Q2954.76 2065.72 2958.42 2065.72 Z" fill="#000000" fill-rule="evenodd" fill-opacity="1" /></svg>
