<?xml version="1.0" encoding="utf-8"?>
<svg xmlns="http://www.w3.org/2000/svg" xmlns:xlink="http://www.w3.org/1999/xlink" width="800" height="600" viewBox="0 0 3200 2400">
<defs>
  <clipPath id="clip490">
    <rect x="0" y="0" width="3200" height="2400"/>
  </clipPath>
</defs>
<path clip-path="url(#clip490)" d="M0 2400 L3200 2400 L3200 0 L0 0  Z" fill="#ffffff" fill-rule="evenodd" fill-opacity="1"/>
<defs>
  <clipPath id="clip491">
    <rect x="640" y="0" width="2241" height="2241"/>
  </clipPath>
</defs>
<path clip-path="url(#clip490)" d="M233.806 2204.92 L3152.76 2204.92 L3152.76 121.312 L233.806 121.312  Z" fill="#eaeaea" fill-rule="evenodd" fill-opacity="1"/>
<defs>
  <clipPath id="clip492">
    <rect x="233" y="121" width="2920" height="2085"/>
  </clipPath>
</defs>
<polyline clip-path="url(#clip492)" style="stroke:#ffffff; stroke-linecap:round; stroke-linejoin:round; stroke-width:4; stroke-opacity:1; fill:none" points="316.418,2204.92 316.418,121.312 "/>
<polyline clip-path="url(#clip492)" style="stroke:#ffffff; stroke-linecap:round; stroke-linejoin:round; stroke-width:4; stroke-opacity:1; fill:none" points="867.163,2204.92 867.163,121.312 "/>
<polyline clip-path="url(#clip492)" style="stroke:#ffffff; stroke-linecap:round; stroke-linejoin:round; stroke-width:4; stroke-opacity:1; fill:none" points="1417.91,2204.92 1417.91,121.312 "/>
<polyline clip-path="url(#clip492)" style="stroke:#ffffff; stroke-linecap:round; stroke-linejoin:round; stroke-width:4; stroke-opacity:1; fill:none" points="1968.65,2204.92 1968.65,121.312 "/>
<polyline clip-path="url(#clip492)" style="stroke:#ffffff; stroke-linecap:round; stroke-linejoin:round; stroke-width:4; stroke-opacity:1; fill:none" points="2519.4,2204.92 2519.4,121.312 "/>
<polyline clip-path="url(#clip492)" style="stroke:#ffffff; stroke-linecap:round; stroke-linejoin:round; stroke-width:4; stroke-opacity:1; fill:none" points="3070.14,2204.92 3070.14,121.312 "/>
<polyline clip-path="url(#clip492)" style="stroke:#ffffff; stroke-linecap:round; stroke-linejoin:round; stroke-width:2; stroke-opacity:1; fill:none" points="591.791,2204.92 591.791,121.312 "/>
<polyline clip-path="url(#clip492)" style="stroke:#ffffff; stroke-linecap:round; stroke-linejoin:round; stroke-width:2; stroke-opacity:1; fill:none" points="1142.54,2204.92 1142.54,121.312 "/>
<polyline clip-path="url(#clip492)" style="stroke:#ffffff; stroke-linecap:round; stroke-linejoin:round; stroke-width:2; stroke-opacity:1; fill:none" points="1693.28,2204.92 1693.28,121.312 "/>
<polyline clip-path="url(#clip492)" style="stroke:#ffffff; stroke-linecap:round; stroke-linejoin:round; stroke-width:2; stroke-opacity:1; fill:none" points="2244.03,2204.92 2244.03,121.312 "/>
<polyline clip-path="url(#clip492)" style="stroke:#ffffff; stroke-linecap:round; stroke-linejoin:round; stroke-width:2; stroke-opacity:1; fill:none" points="2794.77,2204.92 2794.77,121.312 "/>
<polyline clip-path="url(#clip490)" style="stroke:#ffffff; stroke-linecap:round; stroke-linejoin:round; stroke-width:4; stroke-opacity:1; fill:none" points="233.806,2204.92 3152.76,2204.92 "/>
<polyline clip-path="url(#clip490)" style="stroke:#333333; stroke-linecap:round; stroke-linejoin:round; stroke-width:4; stroke-opacity:1; fill:none" points="316.418,2204.92 316.418,2223.82 "/>
<polyline clip-path="url(#clip490)" style="stroke:#333333; stroke-linecap:round; stroke-linejoin:round; stroke-width:4; stroke-opacity:1; fill:none" points="867.163,2204.92 867.163,2223.82 "/>
<polyline clip-path="url(#clip490)" style="stroke:#333333; stroke-linecap:round; stroke-linejoin:round; stroke-width:4; stroke-opacity:1; fill:none" points="1417.91,2204.92 1417.91,2223.82 "/>
<polyline clip-path="url(#clip490)" style="stroke:#333333; stroke-linecap:round; stroke-linejoin:round; stroke-width:4; stroke-opacity:1; fill:none" points="1968.65,2204.92 1968.65,2223.82 "/>
<polyline clip-path="url(#clip490)" style="stroke:#333333; stroke-linecap:round; stroke-linejoin:round; stroke-width:4; stroke-opacity:1; fill:none" points="2519.4,2204.92 2519.4,2223.82 "/>
<polyline clip-path="url(#clip490)" style="stroke:#333333; stroke-linecap:round; stroke-linejoin:round; stroke-width:4; stroke-opacity:1; fill:none" points="3070.14,2204.92 3070.14,2223.82 "/>
<polyline clip-path="url(#clip490)" style="stroke:#333333; stroke-linecap:round; stroke-linejoin:round; stroke-width:4; stroke-opacity:1; fill:none" points="591.791,2204.92 591.791,2214.37 "/>
<polyline clip-path="url(#clip490)" style="stroke:#333333; stroke-linecap:round; stroke-linejoin:round; stroke-width:4; stroke-opacity:1; fill:none" points="1142.54,2204.92 1142.54,2214.37 "/>
<polyline clip-path="url(#clip490)" style="stroke:#333333; stroke-linecap:round; stroke-linejoin:round; stroke-width:4; stroke-opacity:1; fill:none" points="1693.28,2204.92 1693.28,2214.37 "/>
<polyline clip-path="url(#clip490)" style="stroke:#333333; stroke-linecap:round; stroke-linejoin:round; stroke-width:4; stroke-opacity:1; fill:none" points="2244.03,2204.92 2244.03,2214.37 "/>
<polyline clip-path="url(#clip490)" style="stroke:#333333; stroke-linecap:round; stroke-linejoin:round; stroke-width:4; stroke-opacity:1; fill:none" points="2794.77,2204.92 2794.77,2214.37 "/>
<path clip-path="url(#clip490)" d="M316.418 2255.04 Q312.807 2255.04 310.978 2258.6 Q309.173 2262.14 309.173 2269.27 Q309.173 2276.38 310.978 2279.95 Q312.807 2283.49 316.418 2283.49 Q320.052 2283.49 321.858 2279.95 Q323.687 2276.38 323.687 2269.27 Q323.687 2262.14 321.858 2258.6 Q320.052 2255.04 316.418 2255.04 M316.418 2251.33 Q322.228 2251.33 325.284 2255.94 Q328.362 2260.52 328.362 2269.27 Q328.362 2278 325.284 2282.61 Q322.228 2287.19 316.418 2287.19 Q310.608 2287.19 307.529 2282.61 Q304.474 2278 304.474 2269.27 Q304.474 2260.52 307.529 2255.94 Q310.608 2251.33 316.418 2251.33 Z" fill="#4c4c4c" fill-rule="nonzero" fill-opacity="1" /><path clip-path="url(#clip490)" d="M857.545 2282.58 L865.184 2282.58 L865.184 2256.22 L856.874 2257.89 L856.874 2253.63 L865.138 2251.96 L869.814 2251.96 L869.814 2282.58 L877.453 2282.58 L877.453 2286.52 L857.545 2286.52 L857.545 2282.58 Z" fill="#4c4c4c" fill-rule="nonzero" fill-opacity="1" /><path clip-path="url(#clip490)" d="M1412.56 2282.58 L1428.88 2282.58 L1428.88 2286.52 L1406.94 2286.52 L1406.94 2282.58 Q1409.6 2279.83 1414.18 2275.2 Q1418.79 2270.55 1419.97 2269.21 Q1422.21 2266.68 1423.09 2264.95 Q1424 2263.19 1424 2261.5 Q1424 2258.74 1422.05 2257.01 Q1420.13 2255.27 1417.03 2255.27 Q1414.83 2255.27 1412.38 2256.03 Q1409.95 2256.8 1407.17 2258.35 L1407.17 2253.63 Q1409.99 2252.49 1412.45 2251.91 Q1414.9 2251.33 1416.94 2251.33 Q1422.31 2251.33 1425.5 2254.02 Q1428.7 2256.71 1428.7 2261.2 Q1428.7 2263.33 1427.89 2265.25 Q1427.1 2267.14 1424.99 2269.74 Q1424.41 2270.41 1421.31 2273.63 Q1418.21 2276.82 1412.56 2282.58 Z" fill="#4c4c4c" fill-rule="nonzero" fill-opacity="1" /><path clip-path="url(#clip490)" d="M1972.9 2267.89 Q1976.26 2268.6 1978.13 2270.87 Q1980.03 2273.14 1980.03 2276.47 Q1980.03 2281.59 1976.51 2284.39 Q1972.99 2287.19 1966.51 2287.19 Q1964.34 2287.19 1962.02 2286.75 Q1959.73 2286.33 1957.28 2285.48 L1957.28 2280.96 Q1959.22 2282.1 1961.54 2282.68 Q1963.85 2283.26 1966.37 2283.26 Q1970.77 2283.26 1973.06 2281.52 Q1975.38 2279.78 1975.38 2276.47 Q1975.38 2273.42 1973.23 2271.71 Q1971.1 2269.97 1967.28 2269.97 L1963.25 2269.97 L1963.25 2266.13 L1967.46 2266.13 Q1970.91 2266.13 1972.74 2264.76 Q1974.57 2263.37 1974.57 2260.78 Q1974.57 2258.12 1972.67 2256.71 Q1970.79 2255.27 1967.28 2255.27 Q1965.36 2255.27 1963.16 2255.69 Q1960.96 2256.1 1958.32 2256.98 L1958.32 2252.82 Q1960.98 2252.08 1963.29 2251.71 Q1965.63 2251.33 1967.69 2251.33 Q1973.02 2251.33 1976.12 2253.77 Q1979.22 2256.17 1979.22 2260.29 Q1979.22 2263.16 1977.58 2265.15 Q1975.93 2267.12 1972.9 2267.89 Z" fill="#4c4c4c" fill-rule="nonzero" fill-opacity="1" /><path clip-path="url(#clip490)" d="M2522.41 2256.03 L2510.6 2274.48 L2522.41 2274.48 L2522.41 2256.03 M2521.18 2251.96 L2527.06 2251.96 L2527.06 2274.48 L2531.99 2274.48 L2531.99 2278.37 L2527.06 2278.37 L2527.06 2286.52 L2522.41 2286.52 L2522.41 2278.37 L2506.81 2278.37 L2506.81 2273.86 L2521.18 2251.96 Z" fill="#4c4c4c" fill-rule="nonzero" fill-opacity="1" /><path clip-path="url(#clip490)" d="M3060.42 2251.96 L3078.78 2251.96 L3078.78 2255.9 L3064.7 2255.9 L3064.7 2264.37 Q3065.72 2264.02 3066.74 2263.86 Q3067.76 2263.67 3068.78 2263.67 Q3074.57 2263.67 3077.95 2266.84 Q3081.32 2270.02 3081.32 2275.43 Q3081.32 2281.01 3077.85 2284.11 Q3074.38 2287.19 3068.06 2287.19 Q3065.88 2287.19 3063.62 2286.82 Q3061.37 2286.45 3058.96 2285.71 L3058.96 2281.01 Q3061.05 2282.14 3063.27 2282.7 Q3065.49 2283.26 3067.97 2283.26 Q3071.97 2283.26 3074.31 2281.15 Q3076.65 2279.04 3076.65 2275.43 Q3076.65 2271.82 3074.31 2269.71 Q3071.97 2267.61 3067.97 2267.61 Q3066.09 2267.61 3064.22 2268.02 Q3062.37 2268.44 3060.42 2269.32 L3060.42 2251.96 Z" fill="#4c4c4c" fill-rule="nonzero" fill-opacity="1" /><path clip-path="url(#clip490)" d="M1692.34 2316.01 L1692.34 2326.14 L1704.41 2326.14 L1704.41 2330.69 L1692.34 2330.69 L1692.34 2350.04 Q1692.34 2354.4 1693.52 2355.64 Q1694.73 2356.88 1698.39 2356.88 L1704.41 2356.88 L1704.41 2361.78 L1698.39 2361.78 Q1691.61 2361.78 1689.03 2359.27 Q1686.45 2356.72 1686.45 2350.04 L1686.45 2330.69 L1682.16 2330.69 L1682.16 2326.14 L1686.45 2326.14 L1686.45 2316.01 L1692.34 2316.01 Z" fill="#000000" fill-rule="nonzero" fill-opacity="1" /><polyline clip-path="url(#clip492)" style="stroke:#ffffff; stroke-linecap:round; stroke-linejoin:round; stroke-width:4; stroke-opacity:1; fill:none" points="233.806,2157.9 3152.76,2157.9 "/>
<polyline clip-path="url(#clip492)" style="stroke:#ffffff; stroke-linecap:round; stroke-linejoin:round; stroke-width:4; stroke-opacity:1; fill:none" points="233.806,1859.65 3152.76,1859.65 "/>
<polyline clip-path="url(#clip492)" style="stroke:#ffffff; stroke-linecap:round; stroke-linejoin:round; stroke-width:4; stroke-opacity:1; fill:none" points="233.806,1561.41 3152.76,1561.41 "/>
<polyline clip-path="url(#clip492)" style="stroke:#ffffff; stroke-linecap:round; stroke-linejoin:round; stroke-width:4; stroke-opacity:1; fill:none" points="233.806,1263.16 3152.76,1263.16 "/>
<polyline clip-path="url(#clip492)" style="stroke:#ffffff; stroke-linecap:round; stroke-linejoin:round; stroke-width:4; stroke-opacity:1; fill:none" points="233.806,964.914 3152.76,964.914 "/>
<polyline clip-path="url(#clip492)" style="stroke:#ffffff; stroke-linecap:round; stroke-linejoin:round; stroke-width:4; stroke-opacity:1; fill:none" points="233.806,666.667 3152.76,666.667 "/>
<polyline clip-path="url(#clip492)" style="stroke:#ffffff; stroke-linecap:round; stroke-linejoin:round; stroke-width:4; stroke-opacity:1; fill:none" points="233.806,368.419 3152.76,368.419 "/>
<polyline clip-path="url(#clip492)" style="stroke:#ffffff; stroke-linecap:round; stroke-linejoin:round; stroke-width:2; stroke-opacity:1; fill:none" points="233.806,2008.78 3152.76,2008.78 "/>
<polyline clip-path="url(#clip492)" style="stroke:#ffffff; stroke-linecap:round; stroke-linejoin:round; stroke-width:2; stroke-opacity:1; fill:none" points="233.806,1710.53 3152.76,1710.53 "/>
<polyline clip-path="url(#clip492)" style="stroke:#ffffff; stroke-linecap:round; stroke-linejoin:round; stroke-width:2; stroke-opacity:1; fill:none" points="233.806,1412.28 3152.76,1412.28 "/>
<polyline clip-path="url(#clip492)" style="stroke:#ffffff; stroke-linecap:round; stroke-linejoin:round; stroke-width:2; stroke-opacity:1; fill:none" points="233.806,1114.04 3152.76,1114.04 "/>
<polyline clip-path="url(#clip492)" style="stroke:#ffffff; stroke-linecap:round; stroke-linejoin:round; stroke-width:2; stroke-opacity:1; fill:none" points="233.806,815.79 3152.76,815.79 "/>
<polyline clip-path="url(#clip492)" style="stroke:#ffffff; stroke-linecap:round; stroke-linejoin:round; stroke-width:2; stroke-opacity:1; fill:none" points="233.806,517.543 3152.76,517.543 "/>
<polyline clip-path="url(#clip492)" style="stroke:#ffffff; stroke-linecap:round; stroke-linejoin:round; stroke-width:2; stroke-opacity:1; fill:none" points="233.806,219.296 3152.76,219.296 "/>
<polyline clip-path="url(#clip490)" style="stroke:#ffffff; stroke-linecap:round; stroke-linejoin:round; stroke-width:4; stroke-opacity:1; fill:none" points="233.806,2204.92 233.806,121.312 "/>
<polyline clip-path="url(#clip490)" style="stroke:#333333; stroke-linecap:round; stroke-linejoin:round; stroke-width:4; stroke-opacity:1; fill:none" points="233.806,2157.9 214.909,2157.9 "/>
<polyline clip-path="url(#clip490)" style="stroke:#333333; stroke-linecap:round; stroke-linejoin:round; stroke-width:4; stroke-opacity:1; fill:none" points="233.806,1859.65 214.909,1859.65 "/>
<polyline clip-path="url(#clip490)" style="stroke:#333333; stroke-linecap:round; stroke-linejoin:round; stroke-width:4; stroke-opacity:1; fill:none" points="233.806,1561.41 214.909,1561.41 "/>
<polyline clip-path="url(#clip490)" style="stroke:#333333; stroke-linecap:round; stroke-linejoin:round; stroke-width:4; stroke-opacity:1; fill:none" points="233.806,1263.16 214.909,1263.16 "/>
<polyline clip-path="url(#clip490)" style="stroke:#333333; stroke-linecap:round; stroke-linejoin:round; stroke-width:4; stroke-opacity:1; fill:none" points="233.806,964.914 214.909,964.914 "/>
<polyline clip-path="url(#clip490)" style="stroke:#333333; stroke-linecap:round; stroke-linejoin:round; stroke-width:4; stroke-opacity:1; fill:none" points="233.806,666.667 214.909,666.667 "/>
<polyline clip-path="url(#clip490)" style="stroke:#333333; stroke-linecap:round; stroke-linejoin:round; stroke-width:4; stroke-opacity:1; fill:none" points="233.806,368.419 214.909,368.419 "/>
<polyline clip-path="url(#clip490)" style="stroke:#333333; stroke-linecap:round; stroke-linejoin:round; stroke-width:4; stroke-opacity:1; fill:none" points="233.806,2008.78 224.357,2008.78 "/>
<polyline clip-path="url(#clip490)" style="stroke:#333333; stroke-linecap:round; stroke-linejoin:round; stroke-width:4; stroke-opacity:1; fill:none" points="233.806,1710.53 224.357,1710.53 "/>
<polyline clip-path="url(#clip490)" style="stroke:#333333; stroke-linecap:round; stroke-linejoin:round; stroke-width:4; stroke-opacity:1; fill:none" points="233.806,1412.28 224.357,1412.28 "/>
<polyline clip-path="url(#clip490)" style="stroke:#333333; stroke-linecap:round; stroke-linejoin:round; stroke-width:4; stroke-opacity:1; fill:none" points="233.806,1114.04 224.357,1114.04 "/>
<polyline clip-path="url(#clip490)" style="stroke:#333333; stroke-linecap:round; stroke-linejoin:round; stroke-width:4; stroke-opacity:1; fill:none" points="233.806,815.79 224.357,815.79 "/>
<polyline clip-path="url(#clip490)" style="stroke:#333333; stroke-linecap:round; stroke-linejoin:round; stroke-width:4; stroke-opacity:1; fill:none" points="233.806,517.543 224.357,517.543 "/>
<polyline clip-path="url(#clip490)" style="stroke:#333333; stroke-linecap:round; stroke-linejoin:round; stroke-width:4; stroke-opacity:1; fill:none" points="233.806,219.296 224.357,219.296 "/>
<path clip-path="url(#clip490)" d="M106.228 2143.7 Q102.617 2143.7 100.788 2147.27 Q98.9825 2150.81 98.9825 2157.94 Q98.9825 2165.04 100.788 2168.61 Q102.617 2172.15 106.228 2172.15 Q109.862 2172.15 111.668 2168.61 Q113.496 2165.04 113.496 2157.94 Q113.496 2150.81 111.668 2147.27 Q109.862 2143.7 106.228 2143.7 M106.228 2140 Q112.038 2140 115.094 2144.6 Q118.172 2149.19 118.172 2157.94 Q118.172 2166.66 115.094 2171.27 Q112.038 2175.85 106.228 2175.85 Q100.418 2175.85 97.339 2171.27 Q94.2835 2166.66 94.2835 2157.94 Q94.2835 2149.19 97.339 2144.6 Q100.418 2140 106.228 2140 Z" fill="#4c4c4c" fill-rule="nonzero" fill-opacity="1" /><path clip-path="url(#clip490)" d="M126.39 2169.3 L131.274 2169.3 L131.274 2175.18 L126.39 2175.18 L126.39 2169.3 Z" fill="#4c4c4c" fill-rule="nonzero" fill-opacity="1" /><path clip-path="url(#clip490)" d="M145.487 2171.25 L161.806 2171.25 L161.806 2175.18 L139.862 2175.18 L139.862 2171.25 Q142.524 2168.49 147.107 2163.86 Q151.714 2159.21 152.894 2157.87 Q155.14 2155.34 156.019 2153.61 Q156.922 2151.85 156.922 2150.16 Q156.922 2147.4 154.978 2145.67 Q153.056 2143.93 149.954 2143.93 Q147.755 2143.93 145.302 2144.7 Q142.871 2145.46 140.093 2147.01 L140.093 2142.29 Q142.917 2141.15 145.371 2140.58 Q147.825 2140 149.862 2140 Q155.232 2140 158.427 2142.68 Q161.621 2145.37 161.621 2149.86 Q161.621 2151.99 160.811 2153.91 Q160.024 2155.81 157.917 2158.4 Q157.339 2159.07 154.237 2162.29 Q151.135 2165.48 145.487 2171.25 Z" fill="#4c4c4c" fill-rule="nonzero" fill-opacity="1" /><path clip-path="url(#clip490)" d="M104.145 1845.45 Q100.533 1845.45 98.7048 1849.02 Q96.8992 1852.56 96.8992 1859.69 Q96.8992 1866.8 98.7048 1870.36 Q100.533 1873.9 104.145 1873.9 Q107.779 1873.9 109.584 1870.36 Q111.413 1866.8 111.413 1859.69 Q111.413 1852.56 109.584 1849.02 Q107.779 1845.45 104.145 1845.45 M104.145 1841.75 Q109.955 1841.75 113.01 1846.36 Q116.089 1850.94 116.089 1859.69 Q116.089 1868.42 113.01 1873.02 Q109.955 1877.61 104.145 1877.61 Q98.3344 1877.61 95.2557 1873.02 Q92.2002 1868.42 92.2002 1859.69 Q92.2002 1850.94 95.2557 1846.36 Q98.3344 1841.75 104.145 1841.75 Z" fill="#4c4c4c" fill-rule="nonzero" fill-opacity="1" /><path clip-path="url(#clip490)" d="M124.306 1871.06 L129.191 1871.06 L129.191 1876.93 L124.306 1876.93 L124.306 1871.06 Z" fill="#4c4c4c" fill-rule="nonzero" fill-opacity="1" /><path clip-path="url(#clip490)" d="M152.223 1846.45 L140.417 1864.9 L152.223 1864.9 L152.223 1846.45 M150.996 1842.37 L156.876 1842.37 L156.876 1864.9 L161.806 1864.9 L161.806 1868.79 L156.876 1868.79 L156.876 1876.93 L152.223 1876.93 L152.223 1868.79 L136.621 1868.79 L136.621 1864.27 L150.996 1842.37 Z" fill="#4c4c4c" fill-rule="nonzero" fill-opacity="1" /><path clip-path="url(#clip490)" d="M104.469 1547.21 Q100.858 1547.21 99.0288 1550.77 Q97.2233 1554.31 97.2233 1561.44 Q97.2233 1568.55 99.0288 1572.11 Q100.858 1575.66 104.469 1575.66 Q108.103 1575.66 109.908 1572.11 Q111.737 1568.55 111.737 1561.44 Q111.737 1554.31 109.908 1550.77 Q108.103 1547.21 104.469 1547.21 M104.469 1543.5 Q110.279 1543.5 113.334 1548.11 Q116.413 1552.69 116.413 1561.44 Q116.413 1570.17 113.334 1574.78 Q110.279 1579.36 104.469 1579.36 Q98.6585 1579.36 95.5798 1574.78 Q92.5242 1570.17 92.5242 1561.44 Q92.5242 1552.69 95.5798 1548.11 Q98.6585 1543.5 104.469 1543.5 Z" fill="#4c4c4c" fill-rule="nonzero" fill-opacity="1" /><path clip-path="url(#clip490)" d="M124.631 1572.81 L129.515 1572.81 L129.515 1578.69 L124.631 1578.69 L124.631 1572.81 Z" fill="#4c4c4c" fill-rule="nonzero" fill-opacity="1" /><path clip-path="url(#clip490)" d="M150.279 1559.54 Q147.13 1559.54 145.279 1561.7 Q143.45 1563.85 143.45 1567.6 Q143.45 1571.33 145.279 1573.5 Q147.13 1575.66 150.279 1575.66 Q153.427 1575.66 155.255 1573.5 Q157.107 1571.33 157.107 1567.6 Q157.107 1563.85 155.255 1561.7 Q153.427 1559.54 150.279 1559.54 M159.561 1544.89 L159.561 1549.15 Q157.802 1548.32 155.996 1547.88 Q154.214 1547.44 152.454 1547.44 Q147.825 1547.44 145.371 1550.56 Q142.941 1553.69 142.593 1560.01 Q143.959 1557.99 146.019 1556.93 Q148.079 1555.84 150.556 1555.84 Q155.765 1555.84 158.774 1559.01 Q161.806 1562.16 161.806 1567.6 Q161.806 1572.92 158.658 1576.14 Q155.51 1579.36 150.279 1579.36 Q144.283 1579.36 141.112 1574.78 Q137.941 1570.17 137.941 1561.44 Q137.941 1553.25 141.83 1548.39 Q145.718 1543.5 152.269 1543.5 Q154.029 1543.5 155.811 1543.85 Q157.616 1544.2 159.561 1544.89 Z" fill="#4c4c4c" fill-rule="nonzero" fill-opacity="1" /><path clip-path="url(#clip490)" d="M104.723 1248.96 Q101.112 1248.96 99.2835 1252.52 Q97.4779 1256.07 97.4779 1263.2 Q97.4779 1270.3 99.2835 1273.87 Q101.112 1277.41 104.723 1277.41 Q108.357 1277.41 110.163 1273.87 Q111.992 1270.3 111.992 1263.2 Q111.992 1256.07 110.163 1252.52 Q108.357 1248.96 104.723 1248.96 M104.723 1245.26 Q110.533 1245.26 113.589 1249.86 Q116.668 1254.45 116.668 1263.2 Q116.668 1271.92 113.589 1276.53 Q110.533 1281.11 104.723 1281.11 Q98.9131 1281.11 95.8344 1276.53 Q92.7789 1271.92 92.7789 1263.2 Q92.7789 1254.45 95.8344 1249.86 Q98.9131 1245.26 104.723 1245.26 Z" fill="#4c4c4c" fill-rule="nonzero" fill-opacity="1" /><path clip-path="url(#clip490)" d="M124.885 1274.56 L129.769 1274.56 L129.769 1280.44 L124.885 1280.44 L124.885 1274.56 Z" fill="#4c4c4c" fill-rule="nonzero" fill-opacity="1" /><path clip-path="url(#clip490)" d="M149.954 1264.03 Q146.621 1264.03 144.7 1265.81 Q142.802 1267.59 142.802 1270.72 Q142.802 1273.84 144.7 1275.63 Q146.621 1277.41 149.954 1277.41 Q153.288 1277.41 155.209 1275.63 Q157.13 1273.82 157.13 1270.72 Q157.13 1267.59 155.209 1265.81 Q153.311 1264.03 149.954 1264.03 M145.279 1262.04 Q142.269 1261.3 140.58 1259.24 Q138.913 1257.18 138.913 1254.21 Q138.913 1250.07 141.853 1247.66 Q144.816 1245.26 149.954 1245.26 Q155.116 1245.26 158.056 1247.66 Q160.996 1250.07 160.996 1254.21 Q160.996 1257.18 159.306 1259.24 Q157.64 1261.3 154.654 1262.04 Q158.033 1262.83 159.908 1265.12 Q161.806 1267.41 161.806 1270.72 Q161.806 1275.74 158.728 1278.43 Q155.672 1281.11 149.954 1281.11 Q144.237 1281.11 141.158 1278.43 Q138.103 1275.74 138.103 1270.72 Q138.103 1267.41 140.001 1265.12 Q141.899 1262.83 145.279 1262.04 M143.566 1254.65 Q143.566 1257.34 145.232 1258.84 Q146.922 1260.35 149.954 1260.35 Q152.964 1260.35 154.654 1258.84 Q156.366 1257.34 156.366 1254.65 Q156.366 1251.97 154.654 1250.46 Q152.964 1248.96 149.954 1248.96 Q146.922 1248.96 145.232 1250.46 Q143.566 1251.97 143.566 1254.65 Z" fill="#4c4c4c" fill-rule="nonzero" fill-opacity="1" /><path clip-path="url(#clip490)" d="M95.4409 978.259 L103.08 978.259 L103.08 951.893 L94.7696 953.56 L94.7696 949.3 L103.033 947.634 L107.709 947.634 L107.709 978.259 L115.348 978.259 L115.348 982.194 L95.4409 982.194 L95.4409 978.259 Z" fill="#4c4c4c" fill-rule="nonzero" fill-opacity="1" /><path clip-path="url(#clip490)" d="M124.793 976.314 L129.677 976.314 L129.677 982.194 L124.793 982.194 L124.793 976.314 Z" fill="#4c4c4c" fill-rule="nonzero" fill-opacity="1" /><path clip-path="url(#clip490)" d="M149.862 950.712 Q146.251 950.712 144.422 954.277 Q142.617 957.819 142.617 964.948 Q142.617 972.055 144.422 975.62 Q146.251 979.161 149.862 979.161 Q153.496 979.161 155.302 975.62 Q157.13 972.055 157.13 964.948 Q157.13 957.819 155.302 954.277 Q153.496 950.712 149.862 950.712 M149.862 947.009 Q155.672 947.009 158.728 951.615 Q161.806 956.198 161.806 964.948 Q161.806 973.675 158.728 978.282 Q155.672 982.865 149.862 982.865 Q144.052 982.865 140.973 978.282 Q137.918 973.675 137.918 964.948 Q137.918 956.198 140.973 951.615 Q144.052 947.009 149.862 947.009 Z" fill="#4c4c4c" fill-rule="nonzero" fill-opacity="1" /><path clip-path="url(#clip490)" d="M97.0381 680.011 L104.677 680.011 L104.677 653.646 L96.3668 655.312 L96.3668 651.053 L104.631 649.387 L109.307 649.387 L109.307 680.011 L116.945 680.011 L116.945 683.947 L97.0381 683.947 L97.0381 680.011 Z" fill="#4c4c4c" fill-rule="nonzero" fill-opacity="1" /><path clip-path="url(#clip490)" d="M126.39 678.067 L131.274 678.067 L131.274 683.947 L126.39 683.947 L126.39 678.067 Z" fill="#4c4c4c" fill-rule="nonzero" fill-opacity="1" /><path clip-path="url(#clip490)" d="M145.487 680.011 L161.806 680.011 L161.806 683.947 L139.862 683.947 L139.862 680.011 Q142.524 677.257 147.107 672.627 Q151.714 667.974 152.894 666.632 Q155.14 664.109 156.019 662.373 Q156.922 660.613 156.922 658.924 Q156.922 656.169 154.978 654.433 Q153.056 652.697 149.954 652.697 Q147.755 652.697 145.302 653.461 Q142.871 654.224 140.093 655.775 L140.093 651.053 Q142.917 649.919 145.371 649.34 Q147.825 648.762 149.862 648.762 Q155.232 648.762 158.427 651.447 Q161.621 654.132 161.621 658.623 Q161.621 660.752 160.811 662.674 Q160.024 664.572 157.917 667.164 Q157.339 667.836 154.237 671.053 Q151.135 674.248 145.487 680.011 Z" fill="#4c4c4c" fill-rule="nonzero" fill-opacity="1" /><path clip-path="url(#clip490)" d="M94.9548 381.764 L102.594 381.764 L102.594 355.399 L94.2835 357.065 L94.2835 352.806 L102.547 351.139 L107.223 351.139 L107.223 381.764 L114.862 381.764 L114.862 385.699 L94.9548 385.699 L94.9548 381.764 Z" fill="#4c4c4c" fill-rule="nonzero" fill-opacity="1" /><path clip-path="url(#clip490)" d="M124.306 379.82 L129.191 379.82 L129.191 385.699 L124.306 385.699 L124.306 379.82 Z" fill="#4c4c4c" fill-rule="nonzero" fill-opacity="1" /><path clip-path="url(#clip490)" d="M152.223 355.214 L140.417 373.662 L152.223 373.662 L152.223 355.214 M150.996 351.139 L156.876 351.139 L156.876 373.662 L161.806 373.662 L161.806 377.551 L156.876 377.551 L156.876 385.699 L152.223 385.699 L152.223 377.551 L136.621 377.551 L136.621 373.037 L150.996 351.139 Z" fill="#4c4c4c" fill-rule="nonzero" fill-opacity="1" /><path clip-path="url(#clip490)" d="M48.597 1321.32 L67.5031 1321.32 L67.5031 1327.21 L18.2962 1327.21 L18.2962 1321.32 L23.7071 1321.32 Q20.5242 1319.47 18.9964 1316.67 Q17.4368 1313.84 17.4368 1309.93 Q17.4368 1303.43 22.5931 1299.39 Q27.7493 1295.32 36.152 1295.32 Q44.5547 1295.32 49.711 1299.39 Q54.8672 1303.43 54.8672 1309.93 Q54.8672 1313.84 53.3394 1316.67 Q51.7798 1319.47 48.597 1321.32 M36.152 1301.4 Q29.6908 1301.4 26.0305 1304.07 Q22.3384 1306.71 22.3384 1311.36 Q22.3384 1316 26.0305 1318.68 Q29.6908 1321.32 36.152 1321.32 Q42.6132 1321.32 46.3053 1318.68 Q49.9656 1316 49.9656 1311.36 Q49.9656 1306.71 46.3053 1304.07 Q42.6132 1301.4 36.152 1301.4 Z" fill="#000000" fill-rule="nonzero" fill-opacity="1" /><path clip-path="url(#clip490)" d="M22.4021 1271.79 Q22.4021 1276.51 26.0942 1279.24 Q29.7545 1281.98 36.152 1281.98 Q42.5495 1281.98 46.2417 1279.27 Q49.9019 1276.54 49.9019 1271.79 Q49.9019 1267.12 46.2098 1264.38 Q42.5177 1261.64 36.152 1261.64 Q29.8181 1261.64 26.126 1264.38 Q22.4021 1267.12 22.4021 1271.79 M17.4368 1271.79 Q17.4368 1264.16 22.4021 1259.8 Q27.3673 1255.43 36.152 1255.43 Q44.9049 1255.43 49.9019 1259.8 Q54.8672 1264.16 54.8672 1271.79 Q54.8672 1279.47 49.9019 1283.83 Q44.9049 1288.15 36.152 1288.15 Q27.3673 1288.15 22.4021 1283.83 Q17.4368 1279.47 17.4368 1271.79 Z" fill="#000000" fill-rule="nonzero" fill-opacity="1" /><path clip-path="url(#clip490)" d="M48.597 1240.06 L67.5031 1240.06 L67.5031 1245.95 L18.2962 1245.95 L18.2962 1240.06 L23.7071 1240.06 Q20.5242 1238.22 18.9964 1235.41 Q17.4368 1232.58 17.4368 1228.67 Q17.4368 1222.17 22.5931 1218.13 Q27.7493 1214.06 36.152 1214.06 Q44.5547 1214.06 49.711 1218.13 Q54.8672 1222.17 54.8672 1228.67 Q54.8672 1232.58 53.3394 1235.41 Q51.7798 1238.22 48.597 1240.06 M36.152 1220.14 Q29.6908 1220.14 26.0305 1222.81 Q22.3384 1225.45 22.3384 1230.1 Q22.3384 1234.75 26.0305 1237.42 Q29.6908 1240.06 36.152 1240.06 Q42.6132 1240.06 46.3053 1237.42 Q49.9656 1234.75 49.9656 1230.1 Q49.9656 1225.45 46.3053 1222.81 Q42.6132 1220.14 36.152 1220.14 Z" fill="#000000" fill-rule="nonzero" fill-opacity="1" /><path clip-path="url(#clip490)" d="M39.8759 1204.95 L18.2962 1204.95 L18.2962 1199.1 L39.6531 1199.1 Q44.7139 1199.1 47.2602 1197.12 Q49.7746 1195.15 49.7746 1191.2 Q49.7746 1186.46 46.7509 1183.72 Q43.7272 1180.96 38.5073 1180.96 L18.2962 1180.96 L18.2962 1175.1 L53.9442 1175.1 L53.9442 1180.96 L48.4696 1180.96 Q51.7162 1183.09 53.3076 1185.92 Q54.8672 1188.72 54.8672 1192.45 Q54.8672 1198.59 51.0478 1201.77 Q47.2283 1204.95 39.8759 1204.95 M17.4368 1190.22 L17.4368 1190.22 Z" fill="#000000" fill-rule="nonzero" fill-opacity="1" /><path clip-path="url(#clip490)" d="M4.41896 1163.04 L4.41896 1157.18 L53.9442 1157.18 L53.9442 1163.04 L4.41896 1163.04 Z" fill="#000000" fill-rule="nonzero" fill-opacity="1" /><path clip-path="url(#clip490)" d="M36.0247 1128.73 Q36.0247 1135.82 37.6479 1138.56 Q39.2712 1141.3 43.1861 1141.3 Q46.3053 1141.3 48.1514 1139.26 Q49.9656 1137.19 49.9656 1133.66 Q49.9656 1128.79 46.5281 1125.86 Q43.0588 1122.9 37.3297 1122.9 L36.0247 1122.9 L36.0247 1128.73 M33.6057 1117.04 L53.9442 1117.04 L53.9442 1122.9 L48.5333 1122.9 Q51.7798 1124.91 53.3394 1127.9 Q54.8672 1130.89 54.8672 1135.22 Q54.8672 1140.69 51.8116 1143.94 Q48.7243 1147.15 43.5681 1147.15 Q37.5525 1147.15 34.4969 1143.14 Q31.4414 1139.1 31.4414 1131.11 L31.4414 1122.9 L30.8685 1122.9 Q26.8262 1122.9 24.6301 1125.57 Q22.4021 1128.22 22.4021 1133.02 Q22.4021 1136.08 23.1341 1138.97 Q23.8662 1141.87 25.3303 1144.54 L19.9195 1144.54 Q18.6781 1141.33 18.0734 1138.31 Q17.4368 1135.28 17.4368 1132.42 Q17.4368 1124.68 21.4472 1120.86 Q25.4576 1117.04 33.6057 1117.04 Z" fill="#000000" fill-rule="nonzero" fill-opacity="1" /><path clip-path="url(#clip490)" d="M19.6648 1079.33 L25.1393 1079.33 Q23.7707 1081.81 23.1023 1084.32 Q22.4021 1086.81 22.4021 1089.35 Q22.4021 1095.05 26.0305 1098.2 Q29.6272 1101.35 36.152 1101.35 Q42.6769 1101.35 46.3053 1098.2 Q49.9019 1095.05 49.9019 1089.35 Q49.9019 1086.81 49.2335 1084.32 Q48.5333 1081.81 47.1647 1079.33 L52.5755 1079.33 Q53.7214 1081.78 54.2943 1084.42 Q54.8672 1087.03 54.8672 1089.99 Q54.8672 1098.04 49.8064 1102.78 Q44.7457 1107.53 36.152 1107.53 Q27.431 1107.53 22.4339 1102.75 Q17.4368 1097.95 17.4368 1089.61 Q17.4368 1086.9 18.0097 1084.32 Q18.5508 1081.75 19.6648 1079.33 M53.9442 1087.6 Q55.9175 1085.85 57.5726 1084.99 Q59.2595 1084.13 60.7873 1084.13 Q63.62 1084.13 65.0523 1086.04 Q66.5164 1087.95 66.5164 1091.71 Q66.5164 1093.17 66.3255 1094.57 Q66.1345 1095.94 65.7525 1097.31 L61.583 1097.31 Q62.1241 1096.23 62.3469 1095.05 Q62.6015 1093.87 62.6015 1092.38 Q62.6015 1090.5 61.8376 1089.54 Q61.0737 1088.59 59.6096 1088.59 Q58.6548 1088.59 57.2543 1089.29 Q55.8857 1089.96 53.9442 1091.39 L53.9442 1087.6 Z" fill="#000000" fill-rule="nonzero" fill-opacity="1" /><path clip-path="url(#clip490)" d="M36.0247 1052.94 Q36.0247 1060.04 37.6479 1062.78 Q39.2712 1065.51 43.1861 1065.51 Q46.3053 1065.51 48.1514 1063.48 Q49.9656 1061.41 49.9656 1057.87 Q49.9656 1053.01 46.5281 1050.08 Q43.0588 1047.12 37.3297 1047.12 L36.0247 1047.12 L36.0247 1052.94 M33.6057 1041.26 L53.9442 1041.26 L53.9442 1047.12 L48.5333 1047.12 Q51.7798 1049.12 53.3394 1052.11 Q54.8672 1055.11 54.8672 1059.43 Q54.8672 1064.91 51.8116 1068.16 Q48.7243 1071.37 43.5681 1071.37 Q37.5525 1071.37 34.4969 1067.36 Q31.4414 1063.32 31.4414 1055.33 L31.4414 1047.12 L30.8685 1047.12 Q26.8262 1047.12 24.6301 1049.79 Q22.4021 1052.43 22.4021 1057.24 Q22.4021 1060.29 23.1341 1063.19 Q23.8662 1066.09 25.3303 1068.76 L19.9195 1068.76 Q18.6781 1065.55 18.0734 1062.52 Q17.4368 1059.5 17.4368 1056.63 Q17.4368 1048.9 21.4472 1045.08 Q25.4576 1041.26 33.6057 1041.26 M10.3391 1056.51 L8.5885 1058.32 Q7.95193 1059.02 7.66547 1059.56 Q7.34718 1060.07 7.34718 1060.48 Q7.34718 1061.69 8.52484 1062.27 Q9.67067 1062.84 12.2806 1062.9 L12.2806 1066.88 Q7.98376 1066.82 5.66027 1065.2 Q3.30496 1063.57 3.30496 1060.68 Q3.30496 1059.47 3.75056 1058.45 Q4.19616 1057.43 5.2465 1056.25 L6.99707 1054.44 Q7.63364 1053.74 7.95193 1053.23 Q8.23838 1052.69 8.23838 1052.27 Q8.23838 1051.06 7.09256 1050.49 Q5.9149 1049.92 3.30496 1049.85 L3.30496 1045.88 Q7.60181 1045.94 9.95712 1047.56 Q12.2806 1049.19 12.2806 1052.08 Q12.2806 1053.29 11.835 1054.31 Q11.3894 1055.33 10.3391 1056.51 Z" fill="#000000" fill-rule="nonzero" fill-opacity="1" /><path clip-path="url(#clip490)" d="M22.4021 1015.38 Q22.4021 1020.09 26.0942 1022.83 Q29.7545 1025.57 36.152 1025.57 Q42.5495 1025.57 46.2417 1022.86 Q49.9019 1020.13 49.9019 1015.38 Q49.9019 1010.71 46.2098 1007.97 Q42.5177 1005.23 36.152 1005.23 Q29.8181 1005.23 26.126 1007.97 Q22.4021 1010.71 22.4021 1015.38 M17.4368 1015.38 Q17.4368 1007.74 22.4021 1003.38 Q27.3673 999.024 36.152 999.024 Q44.9049 999.024 49.9019 1003.38 Q54.8672 1007.74 54.8672 1015.38 Q54.8672 1023.05 49.9019 1027.42 Q44.9049 1031.74 36.152 1031.74 Q27.3673 1031.74 22.4021 1027.42 Q17.4368 1023.05 17.4368 1015.38 Z" fill="#000000" fill-rule="nonzero" fill-opacity="1" /><path clip-path="url(#clip490)" d="M972.365 23.3193 L979.136 23.3193 L991.288 55.958 L1003.44 23.3193 L1010.21 23.3193 L995.629 62.208 L986.948 62.208 L972.365 23.3193 Z" fill="#000000" fill-rule="nonzero" fill-opacity="1" /><path clip-path="url(#clip490)" d="M1036.7 42.6595 Q1028.96 42.6595 1025.98 44.4303 Q1022.99 46.2011 1022.99 50.472 Q1022.99 53.8747 1025.21 55.8886 Q1027.47 57.8677 1031.32 57.8677 Q1036.64 57.8677 1039.83 54.1178 Q1043.06 50.3331 1043.06 44.0831 L1043.06 42.6595 L1036.7 42.6595 M1049.45 40.0206 L1049.45 62.208 L1043.06 62.208 L1043.06 56.3053 Q1040.87 59.8469 1037.61 61.5483 Q1034.34 63.2149 1029.62 63.2149 Q1023.65 63.2149 1020.11 59.8816 Q1016.6 56.5136 1016.6 50.8886 Q1016.6 44.3262 1020.98 40.9928 Q1025.39 37.6595 1034.1 37.6595 L1043.06 37.6595 L1043.06 37.0345 Q1043.06 32.6248 1040.14 30.229 Q1037.26 27.7985 1032.02 27.7985 Q1028.68 27.7985 1025.52 28.5971 Q1022.36 29.3957 1019.45 30.9929 L1019.45 25.0901 Q1022.95 23.736 1026.25 23.0763 Q1029.55 22.3818 1032.68 22.3818 Q1041.11 22.3818 1045.28 26.7568 Q1049.45 31.1318 1049.45 40.0206 Z" fill="#000000" fill-rule="nonzero" fill-opacity="1" /><path clip-path="url(#clip490)" d="M1062.61 8.18051 L1069 8.18051 L1069 62.208 L1062.61 62.208 L1062.61 8.18051 Z" fill="#000000" fill-rule="nonzero" fill-opacity="1" /><path clip-path="url(#clip490)" d="M1097.43 27.7985 Q1092.29 27.7985 1089.31 31.8262 Q1086.32 35.8193 1086.32 42.7984 Q1086.32 49.7775 1089.27 53.8053 Q1092.26 57.7983 1097.43 57.7983 Q1102.54 57.7983 1105.52 53.7705 Q1108.51 49.7428 1108.51 42.7984 Q1108.51 35.8887 1105.52 31.8609 Q1102.54 27.7985 1097.43 27.7985 M1097.43 22.3818 Q1105.77 22.3818 1110.52 27.7985 Q1115.28 33.2151 1115.28 42.7984 Q1115.28 52.3469 1110.52 57.7983 Q1105.77 63.2149 1097.43 63.2149 Q1089.07 63.2149 1084.31 57.7983 Q1079.59 52.3469 1079.59 42.7984 Q1079.59 33.2151 1084.31 27.7985 Q1089.07 22.3818 1097.43 22.3818 Z" fill="#000000" fill-rule="nonzero" fill-opacity="1" /><path clip-path="url(#clip490)" d="M1148.41 29.2915 Q1147.33 28.6665 1146.04 28.3887 Q1144.79 28.0762 1143.27 28.0762 Q1137.85 28.0762 1134.93 31.6179 Q1132.05 35.1248 1132.05 41.722 L1132.05 62.208 L1125.63 62.208 L1125.63 23.3193 L1132.05 23.3193 L1132.05 29.361 Q1134.07 25.8193 1137.29 24.1179 Q1140.52 22.3818 1145.14 22.3818 Q1145.8 22.3818 1146.6 22.486 Q1147.4 22.5554 1148.37 22.729 L1148.41 29.2915 Z" fill="#000000" fill-rule="nonzero" fill-opacity="1" /><path clip-path="url(#clip490)" d="M1210.97 41.1664 L1210.97 44.2914 L1181.6 44.2914 Q1182.02 50.8886 1185.56 54.3608 Q1189.13 57.7983 1195.49 57.7983 Q1199.17 57.7983 1202.61 56.8955 Q1206.08 55.9928 1209.48 54.1872 L1209.48 60.2288 Q1206.04 61.6872 1202.43 62.4511 Q1198.82 63.2149 1195.11 63.2149 Q1185.8 63.2149 1180.35 57.7983 Q1174.93 52.3817 1174.93 43.1456 Q1174.93 33.597 1180.07 28.0068 Q1185.25 22.3818 1194 22.3818 Q1201.84 22.3818 1206.39 27.4512 Q1210.97 32.4859 1210.97 41.1664 M1204.59 39.2915 Q1204.52 34.0484 1201.63 30.9234 Q1198.79 27.7985 1194.07 27.7985 Q1188.72 27.7985 1185.49 30.8193 Q1182.29 33.8401 1181.81 39.3262 L1204.59 39.2915 Z" fill="#000000" fill-rule="nonzero" fill-opacity="1" /><path clip-path="url(#clip490)" d="M1246.25 24.4651 L1246.25 30.5068 Q1243.54 29.1179 1240.63 28.4235 Q1237.71 27.729 1234.59 27.729 Q1229.83 27.729 1227.43 29.1873 Q1225.07 30.6457 1225.07 33.5623 Q1225.07 35.7845 1226.77 37.0692 Q1228.47 38.3192 1233.61 39.4651 L1235.8 39.9512 Q1242.61 41.4095 1245.45 44.0831 Q1248.34 46.722 1248.34 51.4789 Q1248.34 56.8955 1244.03 60.0552 Q1239.76 63.2149 1232.26 63.2149 Q1229.13 63.2149 1225.73 62.5899 Q1222.36 61.9997 1218.61 60.7844 L1218.61 54.1872 Q1222.16 56.0275 1225.59 56.965 Q1229.03 57.8677 1232.4 57.8677 Q1236.91 57.8677 1239.34 56.34 Q1241.77 54.7775 1241.77 51.965 Q1241.77 49.3608 1240 47.972 Q1238.27 46.5831 1232.33 45.2984 L1230.11 44.7775 Q1224.17 43.5275 1221.53 40.9581 Q1218.89 38.354 1218.89 33.8401 Q1218.89 28.354 1222.78 25.3679 Q1226.67 22.3818 1233.82 22.3818 Q1237.36 22.3818 1240.49 22.9027 Q1243.61 23.4235 1246.25 24.4651 Z" fill="#000000" fill-rule="nonzero" fill-opacity="1" /><path clip-path="url(#clip490)" d="M1264.69 56.3747 L1264.69 76.9996 L1258.27 76.9996 L1258.27 23.3193 L1264.69 23.3193 L1264.69 29.2221 Q1266.7 25.7499 1269.76 24.0832 Q1272.85 22.3818 1277.12 22.3818 Q1284.2 22.3818 1288.61 28.0068 Q1293.06 33.6318 1293.06 42.7984 Q1293.06 51.965 1288.61 57.59 Q1284.2 63.2149 1277.12 63.2149 Q1272.85 63.2149 1269.76 61.5483 Q1266.7 59.8469 1264.69 56.3747 M1286.43 42.7984 Q1286.43 35.7498 1283.51 31.7568 Q1280.63 27.729 1275.56 27.729 Q1270.49 27.729 1267.57 31.7568 Q1264.69 35.7498 1264.69 42.7984 Q1264.69 49.847 1267.57 53.8747 Q1270.49 57.8677 1275.56 57.8677 Q1280.63 57.8677 1283.51 53.8747 Q1286.43 49.847 1286.43 42.7984 Z" fill="#000000" fill-rule="nonzero" fill-opacity="1" /><path clip-path="url(#clip490)" d="M1336.91 41.1664 L1336.91 44.2914 L1307.54 44.2914 Q1307.95 50.8886 1311.49 54.3608 Q1315.07 57.7983 1321.43 57.7983 Q1325.11 57.7983 1328.54 56.8955 Q1332.02 55.9928 1335.42 54.1872 L1335.42 60.2288 Q1331.98 61.6872 1328.37 62.4511 Q1324.76 63.2149 1321.04 63.2149 Q1311.74 63.2149 1306.29 57.7983 Q1300.87 52.3817 1300.87 43.1456 Q1300.87 33.597 1306.01 28.0068 Q1311.18 22.3818 1319.93 22.3818 Q1327.78 22.3818 1332.33 27.4512 Q1336.91 32.4859 1336.91 41.1664 M1330.52 39.2915 Q1330.45 34.0484 1327.57 30.9234 Q1324.72 27.7985 1320 27.7985 Q1314.65 27.7985 1311.43 30.8193 Q1308.23 33.8401 1307.74 39.3262 L1330.52 39.2915 Z" fill="#000000" fill-rule="nonzero" fill-opacity="1" /><path clip-path="url(#clip490)" d="M1369.93 29.2915 Q1368.86 28.6665 1367.57 28.3887 Q1366.32 28.0762 1364.79 28.0762 Q1359.38 28.0762 1356.46 31.6179 Q1353.58 35.1248 1353.58 41.722 L1353.58 62.208 L1347.15 62.208 L1347.15 23.3193 L1353.58 23.3193 L1353.58 29.361 Q1355.59 25.8193 1358.82 24.1179 Q1362.05 22.3818 1366.67 22.3818 Q1367.33 22.3818 1368.13 22.486 Q1368.93 22.5554 1369.9 22.729 L1369.93 29.2915 Z" fill="#000000" fill-rule="nonzero" fill-opacity="1" /><path clip-path="url(#clip490)" d="M1394.31 42.6595 Q1386.56 42.6595 1383.58 44.4303 Q1380.59 46.2011 1380.59 50.472 Q1380.59 53.8747 1382.81 55.8886 Q1385.07 57.8677 1388.93 57.8677 Q1394.24 57.8677 1397.43 54.1178 Q1400.66 50.3331 1400.66 44.0831 L1400.66 42.6595 L1394.31 42.6595 M1407.05 40.0206 L1407.05 62.208 L1400.66 62.208 L1400.66 56.3053 Q1398.47 59.8469 1395.21 61.5483 Q1391.95 63.2149 1387.22 63.2149 Q1381.25 63.2149 1377.71 59.8816 Q1374.2 56.5136 1374.2 50.8886 Q1374.2 44.3262 1378.58 40.9928 Q1382.99 37.6595 1391.7 37.6595 L1400.66 37.6595 L1400.66 37.0345 Q1400.66 32.6248 1397.74 30.229 Q1394.86 27.7985 1389.62 27.7985 Q1386.29 27.7985 1383.13 28.5971 Q1379.97 29.3957 1377.05 30.9929 L1377.05 25.0901 Q1380.56 23.736 1383.86 23.0763 Q1387.15 22.3818 1390.28 22.3818 Q1398.72 22.3818 1402.88 26.7568 Q1407.05 31.1318 1407.05 40.0206 Z" fill="#000000" fill-rule="nonzero" fill-opacity="1" /><path clip-path="url(#clip490)" d="M1445.8 29.2221 L1445.8 8.18051 L1452.19 8.18051 L1452.19 62.208 L1445.8 62.208 L1445.8 56.3747 Q1443.79 59.8469 1440.7 61.5483 Q1437.64 63.2149 1433.33 63.2149 Q1426.29 63.2149 1421.84 57.59 Q1417.43 51.965 1417.43 42.7984 Q1417.43 33.6318 1421.84 28.0068 Q1426.29 22.3818 1433.33 22.3818 Q1437.64 22.3818 1440.7 24.0832 Q1443.79 25.7499 1445.8 29.2221 M1424.03 42.7984 Q1424.03 49.847 1426.91 53.8747 Q1429.83 57.8677 1434.9 57.8677 Q1439.97 57.8677 1442.88 53.8747 Q1445.8 49.847 1445.8 42.7984 Q1445.8 35.7498 1442.88 31.7568 Q1439.97 27.729 1434.9 27.729 Q1429.83 27.729 1426.91 31.7568 Q1424.03 35.7498 1424.03 42.7984 Z" fill="#000000" fill-rule="nonzero" fill-opacity="1" /><path clip-path="url(#clip490)" d="M1480.42 27.7985 Q1475.28 27.7985 1472.29 31.8262 Q1469.31 35.8193 1469.31 42.7984 Q1469.31 49.7775 1472.26 53.8053 Q1475.24 57.7983 1480.42 57.7983 Q1485.52 57.7983 1488.51 53.7705 Q1491.49 49.7428 1491.49 42.7984 Q1491.49 35.8887 1488.51 31.8609 Q1485.52 27.7985 1480.42 27.7985 M1480.42 22.3818 Q1488.75 22.3818 1493.51 27.7985 Q1498.26 33.2151 1498.26 42.7984 Q1498.26 52.3469 1493.51 57.7983 Q1488.75 63.2149 1480.42 63.2149 Q1472.05 63.2149 1467.29 57.7983 Q1462.57 52.3469 1462.57 42.7984 Q1462.57 33.2151 1467.29 27.7985 Q1472.05 22.3818 1480.42 22.3818 Z" fill="#000000" fill-rule="nonzero" fill-opacity="1" /><path clip-path="url(#clip490)" d="M1564.72 41.1664 L1564.72 44.2914 L1535.35 44.2914 Q1535.76 50.8886 1539.31 54.3608 Q1542.88 57.7983 1549.24 57.7983 Q1552.92 57.7983 1556.35 56.8955 Q1559.83 55.9928 1563.23 54.1872 L1563.23 60.2288 Q1559.79 61.6872 1556.18 62.4511 Q1552.57 63.2149 1548.85 63.2149 Q1539.55 63.2149 1534.1 57.7983 Q1528.68 52.3817 1528.68 43.1456 Q1528.68 33.597 1533.82 28.0068 Q1538.99 22.3818 1547.74 22.3818 Q1555.59 22.3818 1560.14 27.4512 Q1564.72 32.4859 1564.72 41.1664 M1558.33 39.2915 Q1558.26 34.0484 1555.38 30.9234 Q1552.54 27.7985 1547.81 27.7985 Q1542.47 27.7985 1539.24 30.8193 Q1536.04 33.8401 1535.56 39.3262 L1558.33 39.2915 Z" fill="#000000" fill-rule="nonzero" fill-opacity="1" /><path clip-path="url(#clip490)" d="M1597.81 23.3193 L1604.2 23.3193 L1604.2 62.208 L1597.81 62.208 L1597.81 23.3193 M1597.81 8.18051 L1604.2 8.18051 L1604.2 16.2707 L1597.81 16.2707 L1597.81 8.18051 Z" fill="#000000" fill-rule="nonzero" fill-opacity="1" /><path clip-path="url(#clip490)" d="M1649.9 38.7359 L1649.9 62.208 L1643.51 62.208 L1643.51 38.9442 Q1643.51 33.4234 1641.35 30.6804 Q1639.2 27.9374 1634.9 27.9374 Q1629.72 27.9374 1626.74 31.2359 Q1623.75 34.5345 1623.75 40.229 L1623.75 62.208 L1617.33 62.208 L1617.33 23.3193 L1623.75 23.3193 L1623.75 29.361 Q1626.04 25.854 1629.13 24.1179 Q1632.26 22.3818 1636.32 22.3818 Q1643.02 22.3818 1646.46 26.5485 Q1649.9 30.6804 1649.9 38.7359 Z" fill="#000000" fill-rule="nonzero" fill-opacity="1" /><path clip-path="url(#clip490)" d="M1668.96 12.2777 L1668.96 23.3193 L1682.12 23.3193 L1682.12 28.2846 L1668.96 28.2846 L1668.96 49.3956 Q1668.96 54.1525 1670.24 55.5066 Q1671.56 56.8608 1675.56 56.8608 L1682.12 56.8608 L1682.12 62.208 L1675.56 62.208 Q1668.16 62.208 1665.35 59.465 Q1662.53 56.6872 1662.53 49.3956 L1662.53 28.2846 L1657.85 28.2846 L1657.85 23.3193 L1662.53 23.3193 L1662.53 12.2777 L1668.96 12.2777 Z" fill="#000000" fill-rule="nonzero" fill-opacity="1" /><path clip-path="url(#clip490)" d="M1723.78 41.1664 L1723.78 44.2914 L1694.41 44.2914 Q1694.83 50.8886 1698.37 54.3608 Q1701.94 57.7983 1708.3 57.7983 Q1711.98 57.7983 1715.42 56.8955 Q1718.89 55.9928 1722.29 54.1872 L1722.29 60.2288 Q1718.85 61.6872 1715.24 62.4511 Q1711.63 63.2149 1707.92 63.2149 Q1698.61 63.2149 1693.16 57.7983 Q1687.74 52.3817 1687.74 43.1456 Q1687.74 33.597 1692.88 28.0068 Q1698.06 22.3818 1706.81 22.3818 Q1714.65 22.3818 1719.2 27.4512 Q1723.78 32.4859 1723.78 41.1664 M1717.4 39.2915 Q1717.33 34.0484 1714.44 30.9234 Q1711.6 27.7985 1706.87 27.7985 Q1701.53 27.7985 1698.3 30.8193 Q1695.1 33.8401 1694.62 39.3262 L1717.4 39.2915 Z" fill="#000000" fill-rule="nonzero" fill-opacity="1" /><path clip-path="url(#clip490)" d="M1756.81 29.2915 Q1755.73 28.6665 1754.44 28.3887 Q1753.19 28.0762 1751.67 28.0762 Q1746.25 28.0762 1743.33 31.6179 Q1740.45 35.1248 1740.45 41.722 L1740.45 62.208 L1734.03 62.208 L1734.03 23.3193 L1740.45 23.3193 L1740.45 29.361 Q1742.46 25.8193 1745.69 24.1179 Q1748.92 22.3818 1753.54 22.3818 Q1754.2 22.3818 1755 22.486 Q1755.8 22.5554 1756.77 22.729 L1756.81 29.2915 Z" fill="#000000" fill-rule="nonzero" fill-opacity="1" /><path clip-path="url(#clip490)" d="M1758.92 23.3193 L1765.69 23.3193 L1777.85 55.958 L1790 23.3193 L1796.77 23.3193 L1782.19 62.208 L1773.51 62.208 L1758.92 23.3193 Z" fill="#000000" fill-rule="nonzero" fill-opacity="1" /><path clip-path="url(#clip490)" d="M1823.26 42.6595 Q1815.52 42.6595 1812.53 44.4303 Q1809.55 46.2011 1809.55 50.472 Q1809.55 53.8747 1811.77 55.8886 Q1814.03 57.8677 1817.88 57.8677 Q1823.19 57.8677 1826.39 54.1178 Q1829.62 50.3331 1829.62 44.0831 L1829.62 42.6595 L1823.26 42.6595 M1836.01 40.0206 L1836.01 62.208 L1829.62 62.208 L1829.62 56.3053 Q1827.43 59.8469 1824.17 61.5483 Q1820.9 63.2149 1816.18 63.2149 Q1810.21 63.2149 1806.67 59.8816 Q1803.16 56.5136 1803.16 50.8886 Q1803.16 44.3262 1807.53 40.9928 Q1811.94 37.6595 1820.66 37.6595 L1829.62 37.6595 L1829.62 37.0345 Q1829.62 32.6248 1826.7 30.229 Q1823.82 27.7985 1818.58 27.7985 Q1815.24 27.7985 1812.08 28.5971 Q1808.92 29.3957 1806.01 30.9929 L1806.01 25.0901 Q1809.51 23.736 1812.81 23.0763 Q1816.11 22.3818 1819.24 22.3818 Q1827.67 22.3818 1831.84 26.7568 Q1836.01 31.1318 1836.01 40.0206 Z" fill="#000000" fill-rule="nonzero" fill-opacity="1" /><path clip-path="url(#clip490)" d="M1849.17 8.18051 L1855.55 8.18051 L1855.55 62.208 L1849.17 62.208 L1849.17 8.18051 Z" fill="#000000" fill-rule="nonzero" fill-opacity="1" /><path clip-path="url(#clip490)" d="M1883.99 27.7985 Q1878.85 27.7985 1875.87 31.8262 Q1872.88 35.8193 1872.88 42.7984 Q1872.88 49.7775 1875.83 53.8053 Q1878.82 57.7983 1883.99 57.7983 Q1889.1 57.7983 1892.08 53.7705 Q1895.07 49.7428 1895.07 42.7984 Q1895.07 35.8887 1892.08 31.8609 Q1889.1 27.7985 1883.99 27.7985 M1883.99 22.3818 Q1892.33 22.3818 1897.08 27.7985 Q1901.84 33.2151 1901.84 42.7984 Q1901.84 52.3469 1897.08 57.7983 Q1892.33 63.2149 1883.99 63.2149 Q1875.62 63.2149 1870.87 57.7983 Q1866.14 52.3469 1866.14 42.7984 Q1866.14 33.2151 1870.87 27.7985 Q1875.62 22.3818 1883.99 22.3818 Z" fill="#000000" fill-rule="nonzero" fill-opacity="1" /><path clip-path="url(#clip490)" d="M1937.22 24.4651 L1937.22 30.5068 Q1934.51 29.1179 1931.6 28.4235 Q1928.68 27.729 1925.55 27.729 Q1920.8 27.729 1918.4 29.1873 Q1916.04 30.6457 1916.04 33.5623 Q1916.04 35.7845 1917.74 37.0692 Q1919.44 38.3192 1924.58 39.4651 L1926.77 39.9512 Q1933.57 41.4095 1936.42 44.0831 Q1939.3 46.722 1939.3 51.4789 Q1939.3 56.8955 1935 60.0552 Q1930.73 63.2149 1923.23 63.2149 Q1920.1 63.2149 1916.7 62.5899 Q1913.33 61.9997 1909.58 60.7844 L1909.58 54.1872 Q1913.12 56.0275 1916.56 56.965 Q1920 57.8677 1923.37 57.8677 Q1927.88 57.8677 1930.31 56.34 Q1932.74 54.7775 1932.74 51.965 Q1932.74 49.3608 1930.97 47.972 Q1929.23 46.5831 1923.3 45.2984 L1921.08 44.7775 Q1915.14 43.5275 1912.5 40.9581 Q1909.86 38.354 1909.86 33.8401 Q1909.86 28.354 1913.75 25.3679 Q1917.64 22.3818 1924.79 22.3818 Q1928.33 22.3818 1931.46 22.9027 Q1934.58 23.4235 1937.22 24.4651 Z" fill="#000000" fill-rule="nonzero" fill-opacity="1" /><path clip-path="url(#clip490)" d="M1997.67 29.2221 L1997.67 8.18051 L2004.06 8.18051 L2004.06 62.208 L1997.67 62.208 L1997.67 56.3747 Q1995.66 59.8469 1992.57 61.5483 Q1989.51 63.2149 1985.21 63.2149 Q1978.16 63.2149 1973.71 57.59 Q1969.3 51.965 1969.3 42.7984 Q1969.3 33.6318 1973.71 28.0068 Q1978.16 22.3818 1985.21 22.3818 Q1989.51 22.3818 1992.57 24.0832 Q1995.66 25.7499 1997.67 29.2221 M1975.9 42.7984 Q1975.9 49.847 1978.78 53.8747 Q1981.7 57.8677 1986.77 57.8677 Q1991.84 57.8677 1994.76 53.8747 Q1997.67 49.847 1997.67 42.7984 Q1997.67 35.7498 1994.76 31.7568 Q1991.84 27.729 1986.77 27.729 Q1981.7 27.729 1978.78 31.7568 Q1975.9 35.7498 1975.9 42.7984 Z" fill="#000000" fill-rule="nonzero" fill-opacity="1" /><path clip-path="url(#clip490)" d="M2050.48 41.1664 L2050.48 44.2914 L2021.11 44.2914 Q2021.53 50.8886 2025.07 54.3608 Q2028.64 57.7983 2035 57.7983 Q2038.68 57.7983 2042.12 56.8955 Q2045.59 55.9928 2048.99 54.1872 L2048.99 60.2288 Q2045.55 61.6872 2041.94 62.4511 Q2038.33 63.2149 2034.62 63.2149 Q2025.31 63.2149 2019.86 57.7983 Q2014.44 52.3817 2014.44 43.1456 Q2014.44 33.597 2019.58 28.0068 Q2024.76 22.3818 2033.5 22.3818 Q2041.35 22.3818 2045.9 27.4512 Q2050.48 32.4859 2050.48 41.1664 M2044.1 39.2915 Q2044.03 34.0484 2041.14 30.9234 Q2038.3 27.7985 2033.57 27.7985 Q2028.23 27.7985 2025 30.8193 Q2021.8 33.8401 2021.32 39.3262 L2044.1 39.2915 Z" fill="#000000" fill-rule="nonzero" fill-opacity="1" /><path clip-path="url(#clip490)" d="M2111.56 24.8124 L2111.56 30.7846 Q2108.85 29.2915 2106.11 28.5623 Q2103.4 27.7985 2100.62 27.7985 Q2094.41 27.7985 2090.97 31.7568 Q2087.53 35.6804 2087.53 42.7984 Q2087.53 49.9164 2090.97 53.8747 Q2094.41 57.7983 2100.62 57.7983 Q2103.4 57.7983 2106.11 57.0691 Q2108.85 56.3053 2111.56 54.8122 L2111.56 60.715 Q2108.89 61.9649 2106 62.5899 Q2103.16 63.2149 2099.93 63.2149 Q2091.14 63.2149 2085.97 57.6941 Q2080.8 52.1733 2080.8 42.7984 Q2080.8 33.2845 2086 27.8332 Q2091.25 22.3818 2100.34 22.3818 Q2103.3 22.3818 2106.11 23.0068 Q2108.92 23.5971 2111.56 24.8124 Z" fill="#000000" fill-rule="nonzero" fill-opacity="1" /><path clip-path="url(#clip490)" d="M2137.74 27.7985 Q2132.6 27.7985 2129.62 31.8262 Q2126.63 35.8193 2126.63 42.7984 Q2126.63 49.7775 2129.58 53.8053 Q2132.57 57.7983 2137.74 57.7983 Q2142.84 57.7983 2145.83 53.7705 Q2148.82 49.7428 2148.82 42.7984 Q2148.82 35.8887 2145.83 31.8609 Q2142.84 27.7985 2137.74 27.7985 M2137.74 22.3818 Q2146.07 22.3818 2150.83 27.7985 Q2155.59 33.2151 2155.59 42.7984 Q2155.59 52.3469 2150.83 57.7983 Q2146.07 63.2149 2137.74 63.2149 Q2129.37 63.2149 2124.62 57.7983 Q2119.89 52.3469 2119.89 42.7984 Q2119.89 33.2151 2124.62 27.7985 Q2129.37 22.3818 2137.74 22.3818 Z" fill="#000000" fill-rule="nonzero" fill-opacity="1" /><path clip-path="url(#clip490)" d="M2198.5 38.7359 L2198.5 62.208 L2192.12 62.208 L2192.12 38.9442 Q2192.12 33.4234 2189.96 30.6804 Q2187.81 27.9374 2183.5 27.9374 Q2178.33 27.9374 2175.34 31.2359 Q2172.36 34.5345 2172.36 40.229 L2172.36 62.208 L2165.93 62.208 L2165.93 23.3193 L2172.36 23.3193 L2172.36 29.361 Q2174.65 25.854 2177.74 24.1179 Q2180.87 22.3818 2184.93 22.3818 Q2191.63 22.3818 2195.07 26.5485 Q2198.5 30.6804 2198.5 38.7359 Z" fill="#000000" fill-rule="nonzero" fill-opacity="1" /><path clip-path="url(#clip490)" d="M2230.93 8.18051 L2230.93 13.493 L2224.82 13.493 Q2221.39 13.493 2220.03 14.8819 Q2218.71 16.2707 2218.71 19.8818 L2218.71 23.3193 L2229.23 23.3193 L2229.23 28.2846 L2218.71 28.2846 L2218.71 62.208 L2212.29 62.208 L2212.29 28.2846 L2206.18 28.2846 L2206.18 23.3193 L2212.29 23.3193 L2212.29 20.611 Q2212.29 14.118 2215.31 11.1666 Q2218.33 8.18051 2224.89 8.18051 L2230.93 8.18051 Z" fill="#000000" fill-rule="nonzero" fill-opacity="1" /><path clip-path="url(#clip490)" d="M2236.28 23.3193 L2242.67 23.3193 L2242.67 62.208 L2236.28 62.208 L2236.28 23.3193 M2236.28 8.18051 L2242.67 8.18051 L2242.67 16.2707 L2236.28 16.2707 L2236.28 8.18051 Z" fill="#000000" fill-rule="nonzero" fill-opacity="1" /><path clip-path="url(#clip490)" d="M2273.71 42.6595 Q2265.97 42.6595 2262.98 44.4303 Q2260 46.2011 2260 50.472 Q2260 53.8747 2262.22 55.8886 Q2264.48 57.8677 2268.33 57.8677 Q2273.64 57.8677 2276.84 54.1178 Q2280.07 50.3331 2280.07 44.0831 L2280.07 42.6595 L2273.71 42.6595 M2286.45 40.0206 L2286.45 62.208 L2280.07 62.208 L2280.07 56.3053 Q2277.88 59.8469 2274.61 61.5483 Q2271.35 63.2149 2266.63 63.2149 Q2260.66 63.2149 2257.11 59.8816 Q2253.61 56.5136 2253.61 50.8886 Q2253.61 44.3262 2257.98 40.9928 Q2262.39 37.6595 2271.11 37.6595 L2280.07 37.6595 L2280.07 37.0345 Q2280.07 32.6248 2277.15 30.229 Q2274.27 27.7985 2269.02 27.7985 Q2265.69 27.7985 2262.53 28.5971 Q2259.37 29.3957 2256.46 30.9929 L2256.46 25.0901 Q2259.96 23.736 2263.26 23.0763 Q2266.56 22.3818 2269.68 22.3818 Q2278.12 22.3818 2282.29 26.7568 Q2286.45 31.1318 2286.45 40.0206 Z" fill="#000000" fill-rule="nonzero" fill-opacity="1" /><path clip-path="url(#clip490)" d="M2331.94 38.7359 L2331.94 62.208 L2325.55 62.208 L2325.55 38.9442 Q2325.55 33.4234 2323.4 30.6804 Q2321.25 27.9374 2316.94 27.9374 Q2311.77 27.9374 2308.78 31.2359 Q2305.8 34.5345 2305.8 40.229 L2305.8 62.208 L2299.37 62.208 L2299.37 23.3193 L2305.8 23.3193 L2305.8 29.361 Q2308.09 25.854 2311.18 24.1179 Q2314.3 22.3818 2318.36 22.3818 Q2325.07 22.3818 2328.5 26.5485 Q2331.94 30.6804 2331.94 38.7359 Z" fill="#000000" fill-rule="nonzero" fill-opacity="1" /><path clip-path="url(#clip490)" d="M2372.67 24.8124 L2372.67 30.7846 Q2369.96 29.2915 2367.22 28.5623 Q2364.51 27.7985 2361.73 27.7985 Q2355.52 27.7985 2352.08 31.7568 Q2348.64 35.6804 2348.64 42.7984 Q2348.64 49.9164 2352.08 53.8747 Q2355.52 57.7983 2361.73 57.7983 Q2364.51 57.7983 2367.22 57.0691 Q2369.96 56.3053 2372.67 54.8122 L2372.67 60.715 Q2370 61.9649 2367.11 62.5899 Q2364.27 63.2149 2361.04 63.2149 Q2352.25 63.2149 2347.08 57.6941 Q2341.91 52.1733 2341.91 42.7984 Q2341.91 33.2845 2347.11 27.8332 Q2352.36 22.3818 2361.45 22.3818 Q2364.41 22.3818 2367.22 23.0068 Q2370.03 23.5971 2372.67 24.8124 M2363.64 62.208 Q2365.55 64.3608 2366.49 66.1663 Q2367.43 68.0066 2367.43 69.6732 Q2367.43 72.7635 2365.34 74.326 Q2363.26 75.9232 2359.16 75.9232 Q2357.57 75.9232 2356.04 75.7149 Q2354.54 75.5065 2353.05 75.0899 L2353.05 70.5413 Q2354.23 71.1316 2355.52 71.3746 Q2356.8 71.6524 2358.43 71.6524 Q2360.48 71.6524 2361.52 70.8191 Q2362.57 69.9857 2362.57 68.3885 Q2362.57 67.3469 2361.8 65.8191 Q2361.07 64.326 2359.51 62.208 L2363.64 62.208 Z" fill="#000000" fill-rule="nonzero" fill-opacity="1" /><path clip-path="url(#clip490)" d="M2401.45 42.6595 Q2393.71 42.6595 2390.73 44.4303 Q2387.74 46.2011 2387.74 50.472 Q2387.74 53.8747 2389.96 55.8886 Q2392.22 57.8677 2396.07 57.8677 Q2401.38 57.8677 2404.58 54.1178 Q2407.81 50.3331 2407.81 44.0831 L2407.81 42.6595 L2401.45 42.6595 M2414.2 40.0206 L2414.2 62.208 L2407.81 62.208 L2407.81 56.3053 Q2405.62 59.8469 2402.36 61.5483 Q2399.09 63.2149 2394.37 63.2149 Q2388.4 63.2149 2384.86 59.8816 Q2381.35 56.5136 2381.35 50.8886 Q2381.35 44.3262 2385.73 40.9928 Q2390.13 37.6595 2398.85 37.6595 L2407.81 37.6595 L2407.81 37.0345 Q2407.81 32.6248 2404.89 30.229 Q2402.01 27.7985 2396.77 27.7985 Q2393.43 27.7985 2390.27 28.5971 Q2387.11 29.3957 2384.2 30.9929 L2384.2 25.0901 Q2387.7 23.736 2391 23.0763 Q2394.3 22.3818 2397.43 22.3818 Q2405.86 22.3818 2410.03 26.7568 Q2414.2 31.1318 2414.2 40.0206 Z" fill="#000000" fill-rule="nonzero" fill-opacity="1" /><path clip-path="url(#clip492)" d="M316.418 2145.95 L330.256 2125.17 L344.094 2103.25 L357.932 2080.17 L371.769 2055.9 L385.607 2030.45 L399.445 2003.84 L413.283 1976.01 L427.121 1946.98 L440.958 1916.75 L454.796 1885.33 L468.634 1852.74 L482.472 1818.8 L496.31 1783.95 L510.148 1748.03 L523.985 1711.2 L537.823 1673.55 L551.661 1635.41 L565.499 1596.54 L579.337 1557 L593.174 1516.52 L607.012 1475.58 L620.85 1434.36 L634.688 1393.22 L648.526 1351.54 L662.364 1309.84 L676.201 1268.28 L690.039 1226.94 L703.877 1185.68 L717.715 1144.63 L731.553 1104.13 L745.39 1064.43 L759.228 1025.8 L773.066 987.908 L786.904 951.016 L800.742 915.107 L814.58 880.513 L828.417 847.175 L842.255 814.587 L856.093 782.734 L869.931 752.57 L883.769 724.764 L897.606 698.26 L911.444 670.9 L925.282 644.976 L939.12 621.305 L952.958 598.509 L966.796 576.546 L980.633 555.715 L994.471 535.933 L1008.31 517.255 L1022.15 499.725 L1035.98 483.857 L1049.82 469.023 L1063.66 455.215 L1077.5 442.682 L1091.34 430.641 L1105.17 419.243 L1119.01 408.172 L1132.85 397.802 L1146.69 388.055 L1160.53 378.73 L1174.36 370.601 L1188.2 362.745 L1202.04 355.184 L1215.88 348.12 L1229.71 341.578 L1243.55 335.63 L1257.39 330.085 L1271.23 324.919 L1285.07 320.106 L1298.9 315.624 L1312.74 311.45 L1326.58 307.907 L1340.42 304.429 L1354.25 300.814 L1368.09 297.435 L1381.93 294.281 L1395.77 291.506 L1409.61 289.064 L1423.44 286.81 L1437.28 284.632 L1451.12 282.61 L1464.96 280.745 L1478.79 279.019 L1492.63 277.423 L1506.47 275.945 L1520.31 274.575 L1534.15 273.302 L1547.98 272.116 L1561.82 271.005 L1575.66 269.977 L1589.5 269.156 L1603.34 268.404 L1617.17 267.718 L1631.01 267.081 L1644.85 266.489 L1658.69 265.941 L1672.52 265.434 L1686.36 264.913 L1700.2 264.406 L1714.04 263.936 L1727.88 263.501 L1741.71 263.098 L1755.55 262.724 L1769.39 262.377 L1783.23 262.054 L1797.06 261.752 L1810.9 261.468 L1824.74 261.203 L1838.58 260.955 L1852.42 260.724 L1866.25 260.509 L1880.09 260.31 L1893.93 260.127 L1907.77 259.958 L1921.61 259.803 L1935.44 259.66 L1949.28 259.53 L1963.12 259.412 L1976.96 259.303 L1990.79 259.205 L2004.63 259.115 L2018.47 259.032 L2032.31 258.956 L2046.15 258.886 L2059.98 258.82 L2073.82 258.757 L2087.66 258.696 L2101.5 258.636 L2115.33 258.58 L2129.17 258.527 L2143.01 258.477 L2156.85 258.431 L2170.69 258.387 L2184.52 258.347 L2198.36 258.31 L2212.2 258.277 L2226.04 258.245 L2239.87 258.217 L2253.71 258.191 L2267.55 258.168 L2281.39 258.147 L2295.23 258.128 L2309.06 258.111 L2322.9 258.096 L2336.74 258.082 L2350.58 258.069 L2364.42 258.057 L2378.25 258.046 L2392.09 258.036 L2405.93 258.026 L2419.77 258.015 L2433.6 258.005 L2447.44 257.994 L2461.28 257.984 L2475.12 257.974 L2488.96 257.965 L2502.79 257.956 L2516.63 257.947 L2530.47 257.939 L2544.31 257.932 L2558.14 257.925 L2571.98 257.919 L2585.82 257.914 L2599.66 257.909 L2613.5 257.905 L2627.33 257.902 L2641.17 257.899 L2655.01 257.897 L2668.85 257.895 L2682.69 257.894 L2696.52 257.893 L2710.36 257.893 L2724.2 257.893 L2738.04 257.893 L2751.87 257.894 L2765.71 257.895 L2779.55 257.895 L2793.39 257.896 L2807.23 257.897 L2821.06 257.897 L2834.9 257.897 L2848.74 257.896 L2862.58 257.895 L2876.41 257.894 L2890.25 257.892 L2904.09 257.89 L2917.93 257.889 L2931.77 257.888 L2945.6 257.886 L2959.44 257.885 L2973.28 257.884 L2987.12 257.883 L3000.96 257.882 L3014.79 257.881 L3028.63 257.881 L3042.47 257.88 L3056.31 257.879 L3070.14 257.879 L3070.14 180.282 L3056.31 180.283 L3042.47 180.284 L3028.63 180.284 L3014.79 180.285 L3000.96 180.286 L2987.12 180.287 L2973.28 180.288 L2959.44 180.289 L2945.6 180.29 L2931.77 180.292 L2917.93 180.293 L2904.09 180.295 L2890.25 180.296 L2876.41 180.298 L2862.58 180.299 L2848.74 180.3 L2834.9 180.301 L2821.06 180.301 L2807.23 180.301 L2793.39 180.301 L2779.55 180.3 L2765.71 180.3 L2751.87 180.299 L2738.04 180.298 L2724.2 180.298 L2710.36 180.298 L2696.52 180.299 L2682.69 180.299 L2668.85 180.301 L2655.01 180.303 L2641.17 180.305 L2627.33 180.308 L2613.5 180.312 L2599.66 180.316 L2585.82 180.321 L2571.98 180.327 L2558.14 180.334 L2544.31 180.341 L2530.47 180.349 L2516.63 180.357 L2502.79 180.366 L2488.96 180.376 L2475.12 180.386 L2461.28 180.396 L2447.44 180.407 L2433.6 180.418 L2419.77 180.429 L2405.93 180.44 L2392.09 180.452 L2378.25 180.463 L2364.42 180.475 L2350.58 180.487 L2336.74 180.501 L2322.9 180.516 L2309.06 180.532 L2295.23 180.55 L2281.39 180.571 L2267.55 180.593 L2253.71 180.618 L2239.87 180.646 L2226.04 180.677 L2212.2 180.711 L2198.36 180.747 L2184.52 180.787 L2170.69 180.831 L2156.85 180.878 L2143.01 180.928 L2129.17 180.982 L2115.33 181.04 L2101.5 181.101 L2087.66 181.165 L2073.82 181.232 L2059.98 181.302 L2046.15 181.375 L2032.31 181.453 L2018.47 181.537 L2004.63 181.628 L1990.79 181.727 L1976.96 181.83 L1963.12 181.931 L1949.28 182.042 L1935.44 182.159 L1921.61 182.287 L1907.77 182.426 L1893.93 182.579 L1880.09 182.746 L1866.25 182.928 L1852.42 183.126 L1838.58 183.34 L1824.74 183.572 L1810.9 183.821 L1797.06 184.089 L1783.23 184.377 L1769.39 184.684 L1755.55 185.013 L1741.71 185.365 L1727.88 185.742 L1714.04 186.18 L1700.2 186.641 L1686.36 187.14 L1672.52 187.68 L1658.69 188.264 L1644.85 188.897 L1631.01 189.58 L1617.17 190.319 L1603.34 191.096 L1589.5 191.931 L1575.66 192.831 L1561.82 193.766 L1547.98 194.869 L1534.15 196.048 L1520.31 197.315 L1506.47 198.663 L1492.63 200.11 L1478.79 201.817 L1464.96 203.523 L1451.12 205.136 L1437.28 206.818 L1423.44 208.635 L1409.61 210.645 L1395.77 212.859 L1381.93 215.244 L1368.09 217.785 L1354.25 220.362 L1340.42 223.017 L1326.58 225.863 L1312.74 229.029 L1298.9 232.717 L1285.07 236.482 L1271.23 240.531 L1257.39 244.884 L1243.55 249.565 L1229.71 254.301 L1215.88 260 L1202.04 265.798 L1188.2 272.088 L1174.36 279.103 L1160.53 286.248 L1146.69 293.788 L1132.85 302.002 L1119.01 310.428 L1105.17 319.592 L1091.34 329.449 L1077.5 340.147 L1063.66 351.595 L1049.82 363.625 L1035.98 376.067 L1022.15 389.272 L1008.31 403.754 L994.471 418.886 L980.633 434.239 L966.796 450.55 L952.958 468.647 L939.12 487.046 L925.282 505.503 L911.444 524.835 L897.606 545.583 L883.769 567.748 L869.931 590.501 L856.093 615.392 L842.255 640.943 L828.417 668.053 L814.58 696.498 L800.742 725.613 L786.904 755.718 L773.066 787.034 L759.228 819.665 L745.39 853.412 L731.553 888.309 L717.715 924.014 L703.877 961.266 L690.039 999.361 L676.201 1037.8 L662.364 1077.75 L648.526 1118.48 L634.688 1159.79 L620.85 1201.49 L607.012 1242.79 L593.174 1284.39 L579.337 1326.16 L565.499 1367.91 L551.661 1409.68 L537.823 1451.65 L523.985 1493.52 L510.148 1534.72 L496.31 1575.11 L482.472 1615.09 L468.634 1654.33 L454.796 1692.74 L440.958 1730.23 L427.121 1766.74 L413.283 1802.2 L399.445 1836.57 L385.607 1869.79 L371.769 1901.84 L357.932 1932.7 L344.094 1962.34 L330.256 1990.75 L316.418 2017.94  Z" fill="#009af9" fill-rule="evenodd" fill-opacity="0.2"/>
<polyline clip-path="url(#clip492)" style="stroke:#009af9; stroke-linecap:round; stroke-linejoin:round; stroke-width:12; stroke-opacity:1; fill:none" points="316.418,2088.18 330.256,2064.36 344.094,2039.34 357.932,2013.12 371.769,1985.82 385.607,1957.32 399.445,1927.61 413.283,1896.71 427.121,1864.64 440.958,1831.42 454.796,1797.09 468.634,1761.7 482.472,1725.3 496.31,1687.96 510.148,1649.74 523.985,1610.7 537.823,1570.63 551.661,1529.91 565.499,1488.94 579.337,1447.89 593.174,1406.47 607.012,1364.48 620.85,1322.42 634.688,1280.4 648.526,1238.48 662.364,1196.61 676.201,1155.14 690.039,1114.16 703.877,1073.41 717.715,1033.15 731.553,993.666 745.39,955.045 759.228,917.366 773.066,881.554 786.904,847.238 800.742,813.568 814.58,781.06 828.417,750.199 842.255,719.108 856.093,689.311 869.931,662.281 883.769,635.229 897.606,608.212 911.444,585.947 925.282,563.142 939.12,542.59 952.958,522.425 966.796,503.309 980.633,485.16 994.471,467.042 1008.31,450.909 1022.15,435.958 1035.98,421.268 1049.82,408.019 1063.66,394.903 1077.5,383.427 1091.34,372.577 1105.17,362.675 1119.01,353.674 1132.85,344.363 1146.69,336.302 1160.53,328.491 1174.36,321.888 1188.2,315.469 1202.04,308.592 1215.88,302.378 1229.71,296.409 1243.55,291.11 1257.39,286.176 1271.23,281.2 1285.07,276.705 1298.9,272.574 1312.74,268.894 1326.58,265.743 1340.42,262.631 1354.25,259.588 1368.09,256.657 1381.93,253.939 1395.77,251.266 1409.61,249.157 1423.44,247.047 1437.28,245.014 1451.12,243.159 1464.96,241.513 1478.79,239.987 1492.63,238.622 1506.47,237.358 1520.31,236.081 1534.15,234.962 1547.98,233.896 1561.82,232.931 1575.66,232.068 1589.5,231.262 1603.34,230.397 1617.17,229.662 1631.01,228.972 1644.85,228.346 1658.69,227.766 1672.52,227.23 1686.36,226.736 1700.2,226.291 1714.04,225.879 1727.88,225.499 1741.71,225.148 1755.55,224.823 1769.39,224.521 1783.23,224.203 1797.06,223.906 1810.9,223.627 1824.74,223.366 1838.58,223.141 1852.42,222.933 1866.25,222.739 1880.09,222.558 1893.93,222.39 1907.77,222.234 1921.61,222.088 1935.44,221.954 1949.28,221.83 1963.12,221.726 1976.96,221.631 1990.79,221.544 2004.63,221.465 2018.47,221.392 2032.31,221.324 2046.15,221.262 2059.98,221.205 2073.82,221.151 2087.66,221.101 2101.5,221.054 2115.33,221.01 2129.17,220.969 2143.01,220.931 2156.85,220.895 2170.69,220.862 2184.52,220.831 2198.36,220.801 2212.2,220.773 2226.04,220.748 2239.87,220.725 2253.71,220.7 2267.55,220.676 2281.39,220.654 2295.23,220.634 2309.06,220.616 2322.9,220.6 2336.74,220.585 2350.58,220.572 2364.42,220.561 2378.25,220.551 2392.09,220.542 2405.93,220.534 2419.77,220.527 2433.6,220.52 2447.44,220.514 2461.28,220.507 2475.12,220.501 2488.96,220.495 2502.79,220.488 2516.63,220.481 2530.47,220.475 2544.31,220.468 2558.14,220.461 2571.98,220.455 2585.82,220.449 2599.66,220.443 2613.5,220.438 2627.33,220.433 2641.17,220.429 2655.01,220.425 2668.85,220.421 2682.69,220.418 2696.52,220.416 2710.36,220.414 2724.2,220.412 2738.04,220.411 2751.87,220.41 2765.71,220.41 2779.55,220.41 2793.39,220.41 2807.23,220.41 2821.06,220.411 2834.9,220.412 2848.74,220.413 2862.58,220.413 2876.41,220.414 2890.25,220.415 2904.09,220.415 2917.93,220.415 2931.77,220.415 2945.6,220.414 2959.44,220.414 2973.28,220.413 2987.12,220.413 3000.96,220.412 3014.79,220.411 3028.63,220.41 3042.47,220.409 3056.31,220.408 3070.14,220.407 "/>
<path clip-path="url(#clip492)" d="M316.418 2133.46 L330.256 2112.17 L344.094 2089.59 L357.932 2065.72 L371.769 2040.66 L385.607 2014.52 L399.445 1987.16 L413.283 1958.57 L427.121 1928.75 L440.958 1897.73 L454.796 1865.51 L468.634 1832.11 L482.472 1797.59 L496.31 1761.97 L510.148 1725.32 L523.985 1687.69 L537.823 1649.27 L551.661 1610.43 L565.499 1570.56 L579.337 1529.76 L593.174 1488.22 L607.012 1446.62 L620.85 1404.59 L634.688 1362.59 L648.526 1321.03 L662.364 1278.77 L676.201 1236.65 L690.039 1194.37 L703.877 1153.64 L717.715 1113.14 L731.553 1073.03 L745.39 1033.49 L759.228 994.722 L773.066 956.825 L786.904 920.497 L800.742 885.092 L814.58 850.237 L828.417 815.783 L842.255 782.842 L856.093 753.037 L869.931 723.301 L883.769 694.393 L897.606 667.376 L911.444 641.283 L925.282 616.913 L939.12 593.551 L952.958 570.621 L966.796 548.556 L980.633 528.5 L994.471 509.394 L1008.31 491.433 L1022.15 473.872 L1035.98 457.926 L1049.82 442.755 L1063.66 429.884 L1077.5 417.705 L1091.34 405.602 L1105.17 395.564 L1119.01 384.026 L1132.85 374.601 L1146.69 365.374 L1160.53 356.17 L1174.36 347.868 L1188.2 340.511 L1202.04 333.789 L1215.88 326.986 L1229.71 320.362 L1243.55 314.852 L1257.39 309.683 L1271.23 305.089 L1285.07 300.058 L1298.9 295.459 L1312.74 292.061 L1326.58 288.662 L1340.42 285.598 L1354.25 282.956 L1368.09 279.896 L1381.93 277.523 L1395.77 275.57 L1409.61 273.752 L1423.44 271.964 L1437.28 270.192 L1451.12 268.44 L1464.96 266.679 L1478.79 264.873 L1492.63 263.238 L1506.47 262.06 L1520.31 260.968 L1534.15 259.927 L1547.98 258.846 L1561.82 257.832 L1575.66 256.882 L1589.5 255.99 L1603.34 255.158 L1617.17 254.384 L1631.01 253.664 L1644.85 252.984 L1658.69 252.35 L1672.52 251.762 L1686.36 251.219 L1700.2 250.688 L1714.04 250.188 L1727.88 249.726 L1741.71 249.298 L1755.55 248.9 L1769.39 248.53 L1783.23 248.184 L1797.06 247.86 L1810.9 247.557 L1824.74 247.273 L1838.58 247.009 L1852.42 246.762 L1866.25 246.534 L1880.09 246.322 L1893.93 246.127 L1907.77 245.947 L1921.61 245.782 L1935.44 245.63 L1949.28 245.491 L1963.12 245.364 L1976.96 245.248 L1990.79 245.157 L2004.63 245.071 L2018.47 244.992 L2032.31 244.918 L2046.15 244.849 L2059.98 244.785 L2073.82 244.725 L2087.66 244.671 L2101.5 244.62 L2115.33 244.573 L2129.17 244.53 L2143.01 244.49 L2156.85 244.454 L2170.69 244.421 L2184.52 244.391 L2198.36 244.364 L2212.2 244.339 L2226.04 244.316 L2239.87 244.295 L2253.71 244.276 L2267.55 244.257 L2281.39 244.24 L2295.23 244.223 L2309.06 244.206 L2322.9 244.19 L2336.74 244.174 L2350.58 244.159 L2364.42 244.146 L2378.25 244.133 L2392.09 244.12 L2405.93 244.109 L2419.77 244.099 L2433.6 244.089 L2447.44 244.08 L2461.28 244.072 L2475.12 244.065 L2488.96 244.058 L2502.79 244.052 L2516.63 244.047 L2530.47 244.042 L2544.31 244.039 L2558.14 244.035 L2571.98 244.033 L2585.82 244.031 L2599.66 244.029 L2613.5 244.028 L2627.33 244.027 L2641.17 244.026 L2655.01 244.026 L2668.85 244.025 L2682.69 244.024 L2696.52 244.023 L2710.36 244.021 L2724.2 244.019 L2738.04 244.017 L2751.87 244.015 L2765.71 244.013 L2779.55 244.011 L2793.39 244.009 L2807.23 244.008 L2821.06 244.007 L2834.9 244.006 L2848.74 244.005 L2862.58 244.004 L2876.41 244.003 L2890.25 244.002 L2904.09 244.001 L2917.93 244 L2931.77 243.999 L2945.6 243.998 L2959.44 243.998 L2973.28 243.997 L2987.12 243.996 L3000.96 243.996 L3014.79 243.995 L3028.63 243.995 L3042.47 243.994 L3056.31 243.994 L3070.14 243.993 L3070.14 193.08 L3056.31 193.081 L3042.47 193.082 L3028.63 193.083 L3014.79 193.084 L3000.96 193.085 L2987.12 193.085 L2973.28 193.086 L2959.44 193.086 L2945.6 193.085 L2931.77 193.085 L2917.93 193.085 L2904.09 193.084 L2890.25 193.083 L2876.41 193.083 L2862.58 193.082 L2848.74 193.081 L2834.9 193.081 L2821.06 193.08 L2807.23 193.08 L2793.39 193.08 L2779.55 193.08 L2765.71 193.08 L2751.87 193.081 L2738.04 193.082 L2724.2 193.083 L2710.36 193.085 L2696.52 193.087 L2682.69 193.089 L2668.85 193.092 L2655.01 193.095 L2641.17 193.098 L2627.33 193.102 L2613.5 193.106 L2599.66 193.111 L2585.82 193.115 L2571.98 193.12 L2558.14 193.125 L2544.31 193.13 L2530.47 193.136 L2516.63 193.141 L2502.79 193.146 L2488.96 193.15 L2475.12 193.154 L2461.28 193.158 L2447.44 193.162 L2433.6 193.167 L2419.77 193.171 L2405.93 193.177 L2392.09 193.183 L2378.25 193.189 L2364.42 193.197 L2350.58 193.206 L2336.74 193.216 L2322.9 193.227 L2309.06 193.24 L2295.23 193.255 L2281.39 193.271 L2267.55 193.289 L2253.71 193.308 L2239.87 193.33 L2226.04 193.353 L2212.2 193.378 L2198.36 193.405 L2184.52 193.434 L2170.69 193.464 L2156.85 193.496 L2143.01 193.53 L2129.17 193.565 L2115.33 193.601 L2101.5 193.639 L2087.66 193.683 L2073.82 193.737 L2059.98 193.792 L2046.15 193.85 L2032.31 193.912 L2018.47 193.978 L2004.63 194.05 L1990.79 194.129 L1976.96 194.215 L1963.12 194.31 L1949.28 194.413 L1935.44 194.531 L1921.61 194.663 L1907.77 194.807 L1893.93 194.97 L1880.09 195.169 L1866.25 195.384 L1852.42 195.615 L1838.58 195.862 L1824.74 196.128 L1810.9 196.411 L1797.06 196.693 L1783.23 196.927 L1769.39 197.182 L1755.55 197.458 L1741.71 197.758 L1727.88 198.082 L1714.04 198.434 L1700.2 198.815 L1686.36 199.237 L1672.52 199.719 L1658.69 200.241 L1644.85 200.804 L1631.01 201.412 L1617.17 202.068 L1603.34 202.775 L1589.5 203.537 L1575.66 204.357 L1561.82 205.239 L1547.98 206.188 L1534.15 207.23 L1520.31 208.348 L1506.47 209.551 L1492.63 210.85 L1478.79 212.253 L1464.96 213.77 L1451.12 215.411 L1437.28 217.086 L1423.44 219.043 L1409.61 221.064 L1395.77 223.371 L1381.93 226.184 L1368.09 228.416 L1354.25 231.007 L1340.42 234.488 L1326.58 237.591 L1312.74 241.188 L1298.9 245.509 L1285.07 249.985 L1271.23 254.675 L1257.39 259.417 L1243.55 264.587 L1229.71 270.192 L1215.88 275.996 L1202.04 282.429 L1188.2 288.838 L1174.36 295.706 L1160.53 303.495 L1146.69 311.955 L1132.85 319.33 L1119.01 327.87 L1105.17 337.071 L1091.34 347.042 L1077.5 357.534 L1063.66 368.493 L1049.82 380.176 L1035.98 393.188 L1022.15 406.406 L1008.31 420.474 L994.471 435.211 L980.633 450.492 L966.796 466.9 L952.958 484.273 L939.12 502.864 L925.282 521.853 L911.444 542.442 L897.606 564.524 L883.769 587.611 L869.931 610.951 L856.093 636.24 L842.255 663.341 L828.417 690.672 L814.58 719.753 L800.742 750.153 L786.904 781.514 L773.066 814.391 L759.228 847.491 L745.39 882.408 L731.553 917.978 L717.715 954.353 L703.877 992.22 L690.039 1030.98 L676.201 1070.63 L662.364 1111.03 L648.526 1151.75 L634.688 1192.61 L620.85 1234.41 L607.012 1276.32 L593.174 1317.97 L579.337 1359.71 L565.499 1401.45 L551.661 1442.99 L537.823 1484.39 L523.985 1525.18 L510.148 1565.49 L496.31 1605.25 L482.472 1644.33 L468.634 1682.77 L454.796 1720.36 L440.958 1757.02 L427.121 1792.72 L413.283 1827.35 L399.445 1861.01 L385.607 1893.52 L371.769 1924.83 L357.932 1954.9 L344.094 1983.53 L330.256 2010.99 L316.418 2037.45  Z" fill="#e26f46" fill-rule="evenodd" fill-opacity="0.2"/>
<polyline clip-path="url(#clip492)" style="stroke:#e26f46; stroke-linecap:round; stroke-linejoin:round; stroke-width:12; stroke-opacity:1; fill:none" points="316.418,2088.18 330.256,2064.36 344.094,2039.34 357.932,2013.12 371.769,1985.82 385.607,1957.32 399.445,1927.61 413.283,1896.71 427.121,1864.64 440.958,1831.42 454.796,1797.09 468.634,1761.7 482.472,1725.3 496.31,1687.96 510.148,1649.74 523.985,1610.7 537.823,1570.63 551.661,1529.91 565.499,1488.94 579.337,1447.89 593.174,1406.47 607.012,1364.48 620.85,1322.42 634.688,1280.4 648.526,1238.48 662.364,1196.61 676.201,1155.14 690.039,1114.16 703.877,1073.41 717.715,1033.15 731.553,993.666 745.39,955.045 759.228,917.366 773.066,881.554 786.904,847.238 800.742,813.568 814.58,781.06 828.417,750.199 842.255,719.108 856.093,689.311 869.931,662.281 883.769,635.229 897.606,608.212 911.444,585.947 925.282,563.142 939.12,542.59 952.958,522.425 966.796,503.309 980.633,485.16 994.471,467.042 1008.31,450.909 1022.15,435.958 1035.98,421.268 1049.82,408.019 1063.66,394.903 1077.5,383.427 1091.34,372.577 1105.17,362.675 1119.01,353.674 1132.85,344.363 1146.69,336.302 1160.53,328.491 1174.36,321.888 1188.2,315.469 1202.04,308.592 1215.88,302.378 1229.71,296.409 1243.55,291.11 1257.39,286.176 1271.23,281.2 1285.07,276.705 1298.9,272.574 1312.74,268.894 1326.58,265.743 1340.42,262.631 1354.25,259.588 1368.09,256.657 1381.93,253.939 1395.77,251.266 1409.61,249.157 1423.44,247.047 1437.28,245.014 1451.12,243.159 1464.96,241.513 1478.79,239.987 1492.63,238.622 1506.47,237.358 1520.31,236.081 1534.15,234.962 1547.98,233.896 1561.82,232.931 1575.66,232.068 1589.5,231.262 1603.34,230.397 1617.17,229.662 1631.01,228.972 1644.85,228.346 1658.69,227.766 1672.52,227.23 1686.36,226.736 1700.2,226.291 1714.04,225.879 1727.88,225.499 1741.71,225.148 1755.55,224.823 1769.39,224.521 1783.23,224.203 1797.06,223.906 1810.9,223.627 1824.74,223.366 1838.58,223.141 1852.42,222.933 1866.25,222.739 1880.09,222.558 1893.93,222.39 1907.77,222.234 1921.61,222.088 1935.44,221.954 1949.28,221.83 1963.12,221.726 1976.96,221.631 1990.79,221.544 2004.63,221.465 2018.47,221.392 2032.31,221.324 2046.15,221.262 2059.98,221.205 2073.82,221.151 2087.66,221.101 2101.5,221.054 2115.33,221.01 2129.17,220.969 2143.01,220.931 2156.85,220.895 2170.69,220.862 2184.52,220.831 2198.36,220.801 2212.2,220.773 2226.04,220.748 2239.87,220.725 2253.71,220.7 2267.55,220.676 2281.39,220.654 2295.23,220.634 2309.06,220.616 2322.9,220.6 2336.74,220.585 2350.58,220.572 2364.42,220.561 2378.25,220.551 2392.09,220.542 2405.93,220.534 2419.77,220.527 2433.6,220.52 2447.44,220.514 2461.28,220.507 2475.12,220.501 2488.96,220.495 2502.79,220.488 2516.63,220.481 2530.47,220.475 2544.31,220.468 2558.14,220.461 2571.98,220.455 2585.82,220.449 2599.66,220.443 2613.5,220.438 2627.33,220.433 2641.17,220.429 2655.01,220.425 2668.85,220.421 2682.69,220.418 2696.52,220.416 2710.36,220.414 2724.2,220.412 2738.04,220.411 2751.87,220.41 2765.71,220.41 2779.55,220.41 2793.39,220.41 2807.23,220.41 2821.06,220.411 2834.9,220.412 2848.74,220.413 2862.58,220.413 2876.41,220.414 2890.25,220.415 2904.09,220.415 2917.93,220.415 2931.77,220.415 2945.6,220.414 2959.44,220.414 2973.28,220.413 2987.12,220.413 3000.96,220.412 3014.79,220.411 3028.63,220.41 3042.47,220.409 3056.31,220.408 3070.14,220.407 "/>
<path clip-path="url(#clip490)" d="M2663.79 2135.47 L3055.46 2135.47 L3055.46 1979.95 L2663.79 1979.95  Z" fill="#eaeaea" fill-rule="evenodd" fill-opacity="1"/>
<polyline clip-path="url(#clip490)" style="stroke:#ffffff; stroke-linecap:round; stroke-linejoin:round; stroke-width:4; stroke-opacity:1; fill:none" points="2663.79,2135.47 3055.46,2135.47 3055.46,1979.95 2663.79,1979.95 2663.79,2135.47 "/>
<polyline clip-path="url(#clip490)" style="stroke:#009af9; stroke-linecap:round; stroke-linejoin:round; stroke-width:12; stroke-opacity:1; fill:none" points="2696.23,2031.79 2890.82,2031.79 "/>
<path clip-path="url(#clip490)" d="M2925.48 2048.35 L2925.48 2044.09 Q2927.24 2044.92 2929.04 2045.36 Q2930.85 2045.8 2932.59 2045.8 Q2937.22 2045.8 2939.65 2042.7 Q2942.1 2039.58 2942.45 2033.23 Q2941.1 2035.22 2939.04 2036.29 Q2936.98 2037.35 2934.48 2037.35 Q2929.3 2037.35 2926.27 2034.23 Q2923.26 2031.08 2923.26 2025.64 Q2923.26 2020.32 2926.4 2017.1 Q2929.55 2013.88 2934.78 2013.88 Q2940.78 2013.88 2943.93 2018.49 Q2947.1 2023.07 2947.1 2031.82 Q2947.1 2039.99 2943.21 2044.88 Q2939.34 2049.74 2932.79 2049.74 Q2931.03 2049.74 2929.23 2049.39 Q2927.42 2049.04 2925.48 2048.35 M2934.78 2033.7 Q2937.93 2033.7 2939.76 2031.54 Q2941.61 2029.39 2941.61 2025.64 Q2941.61 2021.91 2939.76 2019.76 Q2937.93 2017.58 2934.78 2017.58 Q2931.64 2017.58 2929.78 2019.76 Q2927.96 2021.91 2927.96 2025.64 Q2927.96 2029.39 2929.78 2031.54 Q2931.64 2033.7 2934.78 2033.7 Z" fill="#000000" fill-rule="nonzero" fill-opacity="1" /><path clip-path="url(#clip490)" d="M2955.55 2014.51 L2973.9 2014.51 L2973.9 2018.44 L2959.83 2018.44 L2959.83 2026.91 Q2960.85 2026.57 2961.87 2026.4 Q2962.89 2026.22 2963.9 2026.22 Q2969.69 2026.22 2973.07 2029.39 Q2976.45 2032.56 2976.45 2037.98 Q2976.45 2043.56 2972.98 2046.66 Q2969.51 2049.74 2963.19 2049.74 Q2961.01 2049.74 2958.74 2049.37 Q2956.5 2049 2954.09 2048.26 L2954.09 2043.56 Q2956.17 2044.69 2958.4 2045.25 Q2960.62 2045.8 2963.09 2045.8 Q2967.1 2045.8 2969.44 2043.7 Q2971.78 2041.59 2971.78 2037.98 Q2971.78 2034.37 2969.44 2032.26 Q2967.1 2030.15 2963.09 2030.15 Q2961.22 2030.15 2959.34 2030.57 Q2957.49 2030.99 2955.55 2031.87 L2955.55 2014.51 Z" fill="#000000" fill-rule="nonzero" fill-opacity="1" /><path clip-path="url(#clip490)" d="M3015.06 2033.86 Q3013.05 2033.86 3011.89 2035.57 Q3010.76 2037.28 3010.76 2040.34 Q3010.76 2043.35 3011.89 2045.08 Q3013.05 2046.8 3015.06 2046.8 Q3017.03 2046.8 3018.16 2045.08 Q3019.32 2043.35 3019.32 2040.34 Q3019.32 2037.31 3018.16 2035.59 Q3017.03 2033.86 3015.06 2033.86 M3015.06 2030.92 Q3018.72 2030.92 3020.87 2033.46 Q3023.02 2036.01 3023.02 2040.34 Q3023.02 2044.67 3020.85 2047.21 Q3018.7 2049.74 3015.06 2049.74 Q3011.36 2049.74 3009.21 2047.21 Q3007.05 2044.67 3007.05 2040.34 Q3007.05 2035.99 3009.21 2033.46 Q3011.38 2030.92 3015.06 2030.92 M2991.17 2016.82 Q2989.18 2016.82 2988.02 2018.56 Q2986.89 2020.27 2986.89 2023.28 Q2986.89 2026.33 2988.02 2028.05 Q2989.16 2029.76 2991.17 2029.76 Q2993.19 2029.76 2994.32 2028.05 Q2995.48 2026.33 2995.48 2023.28 Q2995.48 2020.29 2994.32 2018.56 Q2993.16 2016.82 2991.17 2016.82 M3012.08 2013.88 L3015.78 2013.88 L2994.16 2049.74 L2990.46 2049.74 L3012.08 2013.88 M2991.17 2013.88 Q2994.83 2013.88 2997.01 2016.43 Q2999.18 2018.95 2999.18 2023.28 Q2999.18 2027.65 2997.01 2030.18 Q2994.85 2032.7 2991.17 2032.7 Q2987.49 2032.7 2985.34 2030.18 Q2983.21 2027.63 2983.21 2023.28 Q2983.21 2018.97 2985.36 2016.43 Q2987.52 2013.88 2991.17 2013.88 Z" fill="#000000" fill-rule="nonzero" fill-opacity="1" /><polyline clip-path="url(#clip490)" style="stroke:#e26f46; stroke-linecap:round; stroke-linejoin:round; stroke-width:12; stroke-opacity:1; fill:none" points="2696.23,2083.63 2890.82,2083.63 "/>
<path clip-path="url(#clip490)" d="M2935.59 2081.76 Q2932.45 2081.76 2930.59 2083.92 Q2928.77 2086.07 2928.77 2089.82 Q2928.77 2093.55 2930.59 2095.72 Q2932.45 2097.87 2935.59 2097.87 Q2938.74 2097.87 2940.57 2095.72 Q2942.42 2093.55 2942.42 2089.82 Q2942.42 2086.07 2940.57 2083.92 Q2938.74 2081.76 2935.59 2081.76 M2944.88 2067.11 L2944.88 2071.37 Q2943.12 2070.54 2941.31 2070.1 Q2939.53 2069.66 2937.77 2069.66 Q2933.14 2069.66 2930.69 2072.78 Q2928.26 2075.91 2927.91 2082.23 Q2929.28 2080.21 2931.34 2079.15 Q2933.4 2078.06 2935.87 2078.06 Q2941.08 2078.06 2944.09 2081.23 Q2947.12 2084.38 2947.12 2089.82 Q2947.12 2095.14 2943.97 2098.36 Q2940.83 2101.58 2935.59 2101.58 Q2929.6 2101.58 2926.43 2096.99 Q2923.26 2092.39 2923.26 2083.66 Q2923.26 2075.47 2927.15 2070.61 Q2931.03 2065.72 2937.59 2065.72 Q2939.34 2065.72 2941.13 2066.07 Q2942.93 2066.42 2944.88 2067.11 Z" fill="#000000" fill-rule="nonzero" fill-opacity="1" /><path clip-path="url(#clip490)" d="M2965.18 2084.49 Q2961.84 2084.49 2959.92 2086.28 Q2958.03 2088.06 2958.03 2091.18 Q2958.03 2094.31 2959.92 2096.09 Q2961.84 2097.87 2965.18 2097.87 Q2968.51 2097.87 2970.43 2096.09 Q2972.35 2094.29 2972.35 2091.18 Q2972.35 2088.06 2970.43 2086.28 Q2968.53 2084.49 2965.18 2084.49 M2960.5 2082.5 Q2957.49 2081.76 2955.8 2079.7 Q2954.14 2077.64 2954.14 2074.68 Q2954.14 2070.54 2957.08 2068.13 Q2960.04 2065.72 2965.18 2065.72 Q2970.34 2065.72 2973.28 2068.13 Q2976.22 2070.54 2976.22 2074.68 Q2976.22 2077.64 2974.53 2079.7 Q2972.86 2081.76 2969.88 2082.5 Q2973.26 2083.29 2975.13 2085.58 Q2977.03 2087.87 2977.03 2091.18 Q2977.03 2096.21 2973.95 2098.89 Q2970.9 2101.58 2965.18 2101.58 Q2959.46 2101.58 2956.38 2098.89 Q2953.33 2096.21 2953.33 2091.18 Q2953.33 2087.87 2955.22 2085.58 Q2957.12 2083.29 2960.5 2082.5 M2958.79 2075.12 Q2958.79 2077.8 2960.46 2079.31 Q2962.15 2080.81 2965.18 2080.81 Q2968.19 2080.81 2969.88 2079.31 Q2971.59 2077.8 2971.59 2075.12 Q2971.59 2072.43 2969.88 2070.93 Q2968.19 2069.42 2965.18 2069.42 Q2962.15 2069.42 2960.46 2070.93 Q2958.79 2072.43 2958.79 2075.12 Z" fill="#000000" fill-rule="nonzero" fill-opacity="1" /><path clip-path="url(#clip490)" d="M3014.74 2085.7 Q3012.72 2085.7 3011.57 2087.41 Q3010.43 2089.12 3010.43 2092.18 Q3010.43 2095.19 3011.57 2096.92 Q3012.72 2098.64 3014.74 2098.64 Q3016.71 2098.64 3017.84 2096.92 Q3019 2095.19 3019 2092.18 Q3019 2089.15 3017.84 2087.43 Q3016.71 2085.7 3014.74 2085.7 M3014.74 2082.76 Q3018.4 2082.76 3020.55 2085.3 Q3022.7 2087.85 3022.7 2092.18 Q3022.7 2096.51 3020.52 2099.05 Q3018.37 2101.58 3014.74 2101.58 Q3011.03 2101.58 3008.88 2099.05 Q3006.73 2096.51 3006.73 2092.18 Q3006.73 2087.83 3008.88 2085.3 Q3011.06 2082.76 3014.74 2082.76 M2990.85 2068.66 Q2988.86 2068.66 2987.7 2070.4 Q2986.57 2072.11 2986.57 2075.12 Q2986.57 2078.17 2987.7 2079.89 Q2988.84 2081.6 2990.85 2081.6 Q2992.86 2081.6 2994 2079.89 Q2995.15 2078.17 2995.15 2075.12 Q2995.15 2072.13 2994 2070.4 Q2992.84 2068.66 2990.85 2068.66 M3011.75 2065.72 L3015.46 2065.72 L2993.84 2101.58 L2990.13 2101.58 L3011.75 2065.72 M2990.85 2065.72 Q2994.51 2065.72 2996.68 2068.27 Q2998.86 2070.79 2998.86 2075.12 Q2998.86 2079.49 2996.68 2082.02 Q2994.53 2084.54 2990.85 2084.54 Q2987.17 2084.54 2985.02 2082.02 Q2982.89 2079.47 2982.89 2075.12 Q2982.89 2070.81 2985.04 2068.27 Q2987.19 2065.72 2990.85 2065.72 Z" fill="#000000" fill-rule="nonzero" fill-opacity="1" /></svg>
