<?xml version="1.0" encoding="utf-8"?>
<svg xmlns="http://www.w3.org/2000/svg" xmlns:xlink="http://www.w3.org/1999/xlink" width="800" height="600" viewBox="0 0 3200 2400">
<defs>
  <clipPath id="clip770">
    <rect x="0" y="0" width="3200" height="2400"/>
  </clipPath>
</defs>
<path clip-path="url(#clip770)" d="M0 2400 L3200 2400 L3200 0 L0 0  Z" fill="#ffffff" fill-rule="evenodd" fill-opacity="1"/>
<defs>
  <clipPath id="clip771">
    <rect x="640" y="0" width="2241" height="2241"/>
  </clipPath>
</defs>
<path clip-path="url(#clip770)" d="M233.806 2204.92 L3152.76 2204.92 L3152.76 121.312 L233.806 121.312  Z" fill="#eaeaea" fill-rule="evenodd" fill-opacity="1"/>
<defs>
  <clipPath id="clip772">
    <rect x="233" y="121" width="2920" height="2085"/>
  </clipPath>
</defs>
<polyline clip-path="url(#clip772)" style="stroke:#ffffff; stroke-linecap:round; stroke-linejoin:round; stroke-width:4; stroke-opacity:1; fill:none" points="316.418,2204.92 316.418,121.312 "/>
<polyline clip-path="url(#clip772)" style="stroke:#ffffff; stroke-linecap:round; stroke-linejoin:round; stroke-width:4; stroke-opacity:1; fill:none" points="867.163,2204.92 867.163,121.312 "/>
<polyline clip-path="url(#clip772)" style="stroke:#ffffff; stroke-linecap:round; stroke-linejoin:round; stroke-width:4; stroke-opacity:1; fill:none" points="1417.91,2204.92 1417.91,121.312 "/>
<polyline clip-path="url(#clip772)" style="stroke:#ffffff; stroke-linecap:round; stroke-linejoin:round; stroke-width:4; stroke-opacity:1; fill:none" points="1968.65,2204.92 1968.65,121.312 "/>
<polyline clip-path="url(#clip772)" style="stroke:#ffffff; stroke-linecap:round; stroke-linejoin:round; stroke-width:4; stroke-opacity:1; fill:none" points="2519.4,2204.92 2519.4,121.312 "/>
<polyline clip-path="url(#clip772)" style="stroke:#ffffff; stroke-linecap:round; stroke-linejoin:round; stroke-width:4; stroke-opacity:1; fill:none" points="3070.14,2204.92 3070.14,121.312 "/>
<polyline clip-path="url(#clip772)" style="stroke:#ffffff; stroke-linecap:round; stroke-linejoin:round; stroke-width:2; stroke-opacity:1; fill:none" points="591.791,2204.92 591.791,121.312 "/>
<polyline clip-path="url(#clip772)" style="stroke:#ffffff; stroke-linecap:round; stroke-linejoin:round; stroke-width:2; stroke-opacity:1; fill:none" points="1142.54,2204.92 1142.54,121.312 "/>
<polyline clip-path="url(#clip772)" style="stroke:#ffffff; stroke-linecap:round; stroke-linejoin:round; stroke-width:2; stroke-opacity:1; fill:none" points="1693.28,2204.92 1693.28,121.312 "/>
<polyline clip-path="url(#clip772)" style="stroke:#ffffff; stroke-linecap:round; stroke-linejoin:round; stroke-width:2; stroke-opacity:1; fill:none" points="2244.03,2204.92 2244.03,121.312 "/>
<polyline clip-path="url(#clip772)" style="stroke:#ffffff; stroke-linecap:round; stroke-linejoin:round; stroke-width:2; stroke-opacity:1; fill:none" points="2794.77,2204.92 2794.77,121.312 "/>
<polyline clip-path="url(#clip770)" style="stroke:#ffffff; stroke-linecap:round; stroke-linejoin:round; stroke-width:4; stroke-opacity:1; fill:none" points="233.806,2204.92 3152.76,2204.92 "/>
<polyline clip-path="url(#clip770)" style="stroke:#333333; stroke-linecap:round; stroke-linejoin:round; stroke-width:4; stroke-opacity:1; fill:none" points="316.418,2204.92 316.418,2223.82 "/>
<polyline clip-path="url(#clip770)" style="stroke:#333333; stroke-linecap:round; stroke-linejoin:round; stroke-width:4; stroke-opacity:1; fill:none" points="867.163,2204.92 867.163,2223.82 "/>
<polyline clip-path="url(#clip770)" style="stroke:#333333; stroke-linecap:round; stroke-linejoin:round; stroke-width:4; stroke-opacity:1; fill:none" points="1417.91,2204.92 1417.91,2223.82 "/>
<polyline clip-path="url(#clip770)" style="stroke:#333333; stroke-linecap:round; stroke-linejoin:round; stroke-width:4; stroke-opacity:1; fill:none" points="1968.65,2204.92 1968.65,2223.82 "/>
<polyline clip-path="url(#clip770)" style="stroke:#333333; stroke-linecap:round; stroke-linejoin:round; stroke-width:4; stroke-opacity:1; fill:none" points="2519.4,2204.92 2519.4,2223.82 "/>
<polyline clip-path="url(#clip770)" style="stroke:#333333; stroke-linecap:round; stroke-linejoin:round; stroke-width:4; stroke-opacity:1; fill:none" points="3070.14,2204.92 3070.14,2223.82 "/>
<polyline clip-path="url(#clip770)" style="stroke:#333333; stroke-linecap:round; stroke-linejoin:round; stroke-width:4; stroke-opacity:1; fill:none" points="591.791,2204.92 591.791,2214.37 "/>
<polyline clip-path="url(#clip770)" style="stroke:#333333; stroke-linecap:round; stroke-linejoin:round; stroke-width:4; stroke-opacity:1; fill:none" points="1142.54,2204.92 1142.54,2214.37 "/>
<polyline clip-path="url(#clip770)" style="stroke:#333333; stroke-linecap:round; stroke-linejoin:round; stroke-width:4; stroke-opacity:1; fill:none" points="1693.28,2204.92 1693.28,2214.37 "/>
<polyline clip-path="url(#clip770)" style="stroke:#333333; stroke-linecap:round; stroke-linejoin:round; stroke-width:4; stroke-opacity:1; fill:none" points="2244.03,2204.92 2244.03,2214.37 "/>
<polyline clip-path="url(#clip770)" style="stroke:#333333; stroke-linecap:round; stroke-linejoin:round; stroke-width:4; stroke-opacity:1; fill:none" points="2794.77,2204.92 2794.77,2214.37 "/>
<path clip-path="url(#clip770)" d="M316.418 2255.04 Q312.807 2255.04 310.978 2258.6 Q309.173 2262.14 309.173 2269.27 Q309.173 2276.38 310.978 2279.95 Q312.807 2283.49 316.418 2283.49 Q320.052 2283.49 321.858 2279.95 Q323.687 2276.38 323.687 2269.27 Q323.687 2262.14 321.858 2258.6 Q320.052 2255.04 316.418 2255.04 M316.418 2251.33 Q322.228 2251.33 325.284 2255.94 Q328.362 2260.52 328.362 2269.27 Q328.362 2278 325.284 2282.61 Q322.228 2287.19 316.418 2287.19 Q310.608 2287.19 307.529 2282.61 Q304.474 2278 304.474 2269.27 Q304.474 2260.52 307.529 2255.94 Q310.608 2251.33 316.418 2251.33 Z" fill="#4c4c4c" fill-rule="nonzero" fill-opacity="1" /><path clip-path="url(#clip770)" d="M857.545 2282.58 L865.184 2282.58 L865.184 2256.22 L856.874 2257.89 L856.874 2253.63 L865.138 2251.96 L869.814 2251.96 L869.814 2282.58 L877.453 2282.58 L877.453 2286.52 L857.545 2286.52 L857.545 2282.58 Z" fill="#4c4c4c" fill-rule="nonzero" fill-opacity="1" /><path clip-path="url(#clip770)" d="M1412.56 2282.58 L1428.88 2282.58 L1428.88 2286.52 L1406.94 2286.52 L1406.94 2282.58 Q1409.6 2279.83 1414.18 2275.2 Q1418.79 2270.55 1419.97 2269.21 Q1422.21 2266.68 1423.09 2264.95 Q1424 2263.19 1424 2261.5 Q1424 2258.74 1422.05 2257.01 Q1420.13 2255.27 1417.03 2255.27 Q1414.83 2255.27 1412.38 2256.03 Q1409.95 2256.8 1407.17 2258.35 L1407.17 2253.63 Q1409.99 2252.49 1412.45 2251.91 Q1414.9 2251.33 1416.94 2251.33 Q1422.31 2251.33 1425.5 2254.02 Q1428.7 2256.71 1428.7 2261.2 Q1428.7 2263.33 1427.89 2265.25 Q1427.1 2267.14 1424.99 2269.74 Q1424.41 2270.41 1421.31 2273.63 Q1418.21 2276.82 1412.56 2282.58 Z" fill="#4c4c4c" fill-rule="nonzero" fill-opacity="1" /><path clip-path="url(#clip770)" d="M1972.9 2267.89 Q1976.26 2268.6 1978.13 2270.87 Q1980.03 2273.14 1980.03 2276.47 Q1980.03 2281.59 1976.51 2284.39 Q1972.99 2287.19 1966.51 2287.19 Q1964.34 2287.19 1962.02 2286.75 Q1959.73 2286.33 1957.28 2285.48 L1957.28 2280.96 Q1959.22 2282.1 1961.54 2282.68 Q1963.85 2283.26 1966.37 2283.26 Q1970.77 2283.26 1973.06 2281.52 Q1975.38 2279.78 1975.38 2276.47 Q1975.38 2273.42 1973.23 2271.71 Q1971.1 2269.97 1967.28 2269.97 L1963.25 2269.97 L1963.25 2266.13 L1967.46 2266.13 Q1970.91 2266.13 1972.74 2264.76 Q1974.57 2263.37 1974.57 2260.78 Q1974.57 2258.12 1972.67 2256.71 Q1970.79 2255.27 1967.28 2255.27 Q1965.36 2255.27 1963.16 2255.69 Q1960.96 2256.1 1958.32 2256.98 L1958.32 2252.82 Q1960.98 2252.08 1963.29 2251.71 Q1965.63 2251.33 1967.69 2251.33 Q1973.02 2251.33 1976.12 2253.77 Q1979.22 2256.17 1979.22 2260.29 Q1979.22 2263.16 1977.58 2265.15 Q1975.93 2267.12 1972.9 2267.89 Z" fill="#4c4c4c" fill-rule="nonzero" fill-opacity="1" /><path clip-path="url(#clip770)" d="M2522.41 2256.03 L2510.6 2274.48 L2522.41 2274.48 L2522.41 2256.03 M2521.18 2251.96 L2527.06 2251.96 L2527.06 2274.48 L2531.99 2274.48 L2531.99 2278.37 L2527.06 2278.37 L2527.06 2286.52 L2522.41 2286.52 L2522.41 2278.37 L2506.81 2278.37 L2506.81 2273.86 L2521.18 2251.96 Z" fill="#4c4c4c" fill-rule="nonzero" fill-opacity="1" /><path clip-path="url(#clip770)" d="M3060.42 2251.96 L3078.78 2251.96 L3078.78 2255.9 L3064.7 2255.9 L3064.7 2264.37 Q3065.72 2264.02 3066.74 2263.86 Q3067.76 2263.67 3068.78 2263.67 Q3074.57 2263.67 3077.95 2266.84 Q3081.32 2270.02 3081.32 2275.43 Q3081.32 2281.01 3077.85 2284.11 Q3074.38 2287.19 3068.06 2287.19 Q3065.88 2287.19 3063.62 2286.82 Q3061.37 2286.45 3058.96 2285.71 L3058.96 2281.01 Q3061.05 2282.14 3063.27 2282.7 Q3065.49 2283.26 3067.97 2283.26 Q3071.97 2283.26 3074.31 2281.15 Q3076.65 2279.04 3076.65 2275.43 Q3076.65 2271.82 3074.31 2269.71 Q3071.97 2267.61 3067.97 2267.61 Q3066.09 2267.61 3064.22 2268.02 Q3062.37 2268.44 3060.42 2269.32 L3060.42 2251.96 Z" fill="#4c4c4c" fill-rule="nonzero" fill-opacity="1" /><path clip-path="url(#clip770)" d="M1692.34 2316.01 L1692.34 2326.14 L1704.41 2326.14 L1704.41 2330.69 L1692.34 2330.69 L1692.34 2350.04 Q1692.34 2354.4 1693.52 2355.64 Q1694.73 2356.88 1698.39 2356.88 L1704.41 2356.88 L1704.41 2361.78 L1698.39 2361.78 Q1691.61 2361.78 1689.03 2359.27 Q1686.45 2356.72 1686.45 2350.04 L1686.45 2330.69 L1682.16 2330.69 L1682.16 2326.14 L1686.45 2326.14 L1686.45 2316.01 L1692.34 2316.01 Z" fill="#000000" fill-rule="nonzero" fill-opacity="1" /><polyline clip-path="url(#clip772)" style="stroke:#ffffff; stroke-linecap:round; stroke-linejoin:round; stroke-width:4; stroke-opacity:1; fill:none" points="233.806,2151.82 3152.76,2151.82 "/>
<polyline clip-path="url(#clip772)" style="stroke:#ffffff; stroke-linecap:round; stroke-linejoin:round; stroke-width:4; stroke-opacity:1; fill:none" points="233.806,1854.05 3152.76,1854.05 "/>
<polyline clip-path="url(#clip772)" style="stroke:#ffffff; stroke-linecap:round; stroke-linejoin:round; stroke-width:4; stroke-opacity:1; fill:none" points="233.806,1556.29 3152.76,1556.29 "/>
<polyline clip-path="url(#clip772)" style="stroke:#ffffff; stroke-linecap:round; stroke-linejoin:round; stroke-width:4; stroke-opacity:1; fill:none" points="233.806,1258.53 3152.76,1258.53 "/>
<polyline clip-path="url(#clip772)" style="stroke:#ffffff; stroke-linecap:round; stroke-linejoin:round; stroke-width:4; stroke-opacity:1; fill:none" points="233.806,960.77 3152.76,960.77 "/>
<polyline clip-path="url(#clip772)" style="stroke:#ffffff; stroke-linecap:round; stroke-linejoin:round; stroke-width:4; stroke-opacity:1; fill:none" points="233.806,663.008 3152.76,663.008 "/>
<polyline clip-path="url(#clip772)" style="stroke:#ffffff; stroke-linecap:round; stroke-linejoin:round; stroke-width:4; stroke-opacity:1; fill:none" points="233.806,365.246 3152.76,365.246 "/>
<polyline clip-path="url(#clip772)" style="stroke:#ffffff; stroke-linecap:round; stroke-linejoin:round; stroke-width:2; stroke-opacity:1; fill:none" points="233.806,2002.94 3152.76,2002.94 "/>
<polyline clip-path="url(#clip772)" style="stroke:#ffffff; stroke-linecap:round; stroke-linejoin:round; stroke-width:2; stroke-opacity:1; fill:none" points="233.806,1705.17 3152.76,1705.17 "/>
<polyline clip-path="url(#clip772)" style="stroke:#ffffff; stroke-linecap:round; stroke-linejoin:round; stroke-width:2; stroke-opacity:1; fill:none" points="233.806,1407.41 3152.76,1407.41 "/>
<polyline clip-path="url(#clip772)" style="stroke:#ffffff; stroke-linecap:round; stroke-linejoin:round; stroke-width:2; stroke-opacity:1; fill:none" points="233.806,1109.65 3152.76,1109.65 "/>
<polyline clip-path="url(#clip772)" style="stroke:#ffffff; stroke-linecap:round; stroke-linejoin:round; stroke-width:2; stroke-opacity:1; fill:none" points="233.806,811.889 3152.76,811.889 "/>
<polyline clip-path="url(#clip772)" style="stroke:#ffffff; stroke-linecap:round; stroke-linejoin:round; stroke-width:2; stroke-opacity:1; fill:none" points="233.806,514.127 3152.76,514.127 "/>
<polyline clip-path="url(#clip772)" style="stroke:#ffffff; stroke-linecap:round; stroke-linejoin:round; stroke-width:2; stroke-opacity:1; fill:none" points="233.806,216.366 3152.76,216.366 "/>
<polyline clip-path="url(#clip770)" style="stroke:#ffffff; stroke-linecap:round; stroke-linejoin:round; stroke-width:4; stroke-opacity:1; fill:none" points="233.806,2204.92 233.806,121.312 "/>
<polyline clip-path="url(#clip770)" style="stroke:#333333; stroke-linecap:round; stroke-linejoin:round; stroke-width:4; stroke-opacity:1; fill:none" points="233.806,2151.82 214.909,2151.82 "/>
<polyline clip-path="url(#clip770)" style="stroke:#333333; stroke-linecap:round; stroke-linejoin:round; stroke-width:4; stroke-opacity:1; fill:none" points="233.806,1854.05 214.909,1854.05 "/>
<polyline clip-path="url(#clip770)" style="stroke:#333333; stroke-linecap:round; stroke-linejoin:round; stroke-width:4; stroke-opacity:1; fill:none" points="233.806,1556.29 214.909,1556.29 "/>
<polyline clip-path="url(#clip770)" style="stroke:#333333; stroke-linecap:round; stroke-linejoin:round; stroke-width:4; stroke-opacity:1; fill:none" points="233.806,1258.53 214.909,1258.53 "/>
<polyline clip-path="url(#clip770)" style="stroke:#333333; stroke-linecap:round; stroke-linejoin:round; stroke-width:4; stroke-opacity:1; fill:none" points="233.806,960.77 214.909,960.77 "/>
<polyline clip-path="url(#clip770)" style="stroke:#333333; stroke-linecap:round; stroke-linejoin:round; stroke-width:4; stroke-opacity:1; fill:none" points="233.806,663.008 214.909,663.008 "/>
<polyline clip-path="url(#clip770)" style="stroke:#333333; stroke-linecap:round; stroke-linejoin:round; stroke-width:4; stroke-opacity:1; fill:none" points="233.806,365.246 214.909,365.246 "/>
<polyline clip-path="url(#clip770)" style="stroke:#333333; stroke-linecap:round; stroke-linejoin:round; stroke-width:4; stroke-opacity:1; fill:none" points="233.806,2002.94 224.357,2002.94 "/>
<polyline clip-path="url(#clip770)" style="stroke:#333333; stroke-linecap:round; stroke-linejoin:round; stroke-width:4; stroke-opacity:1; fill:none" points="233.806,1705.17 224.357,1705.17 "/>
<polyline clip-path="url(#clip770)" style="stroke:#333333; stroke-linecap:round; stroke-linejoin:round; stroke-width:4; stroke-opacity:1; fill:none" points="233.806,1407.41 224.357,1407.41 "/>
<polyline clip-path="url(#clip770)" style="stroke:#333333; stroke-linecap:round; stroke-linejoin:round; stroke-width:4; stroke-opacity:1; fill:none" points="233.806,1109.65 224.357,1109.65 "/>
<polyline clip-path="url(#clip770)" style="stroke:#333333; stroke-linecap:round; stroke-linejoin:round; stroke-width:4; stroke-opacity:1; fill:none" points="233.806,811.889 224.357,811.889 "/>
<polyline clip-path="url(#clip770)" style="stroke:#333333; stroke-linecap:round; stroke-linejoin:round; stroke-width:4; stroke-opacity:1; fill:none" points="233.806,514.127 224.357,514.127 "/>
<polyline clip-path="url(#clip770)" style="stroke:#333333; stroke-linecap:round; stroke-linejoin:round; stroke-width:4; stroke-opacity:1; fill:none" points="233.806,216.366 224.357,216.366 "/>
<path clip-path="url(#clip770)" d="M106.228 2137.61 Q102.617 2137.61 100.788 2141.18 Q98.9825 2144.72 98.9825 2151.85 Q98.9825 2158.96 100.788 2162.52 Q102.617 2166.06 106.228 2166.06 Q109.862 2166.06 111.668 2162.52 Q113.496 2158.96 113.496 2151.85 Q113.496 2144.72 111.668 2141.18 Q109.862 2137.61 106.228 2137.61 M106.228 2133.91 Q112.038 2133.91 115.094 2138.52 Q118.172 2143.1 118.172 2151.85 Q118.172 2160.58 115.094 2165.18 Q112.038 2169.77 106.228 2169.77 Q100.418 2169.77 97.339 2165.18 Q94.2835 2160.58 94.2835 2151.85 Q94.2835 2143.1 97.339 2138.52 Q100.418 2133.91 106.228 2133.91 Z" fill="#4c4c4c" fill-rule="nonzero" fill-opacity="1" /><path clip-path="url(#clip770)" d="M126.39 2163.22 L131.274 2163.22 L131.274 2169.1 L126.39 2169.1 L126.39 2163.22 Z" fill="#4c4c4c" fill-rule="nonzero" fill-opacity="1" /><path clip-path="url(#clip770)" d="M145.487 2165.16 L161.806 2165.16 L161.806 2169.1 L139.862 2169.1 L139.862 2165.16 Q142.524 2162.41 147.107 2157.78 Q151.714 2153.12 152.894 2151.78 Q155.14 2149.26 156.019 2147.52 Q156.922 2145.76 156.922 2144.07 Q156.922 2141.32 154.978 2139.58 Q153.056 2137.85 149.954 2137.85 Q147.755 2137.85 145.302 2138.61 Q142.871 2139.37 140.093 2140.93 L140.093 2136.2 Q142.917 2135.07 145.371 2134.49 Q147.825 2133.91 149.862 2133.91 Q155.232 2133.91 158.427 2136.6 Q161.621 2139.28 161.621 2143.77 Q161.621 2145.9 160.811 2147.82 Q160.024 2149.72 157.917 2152.31 Q157.339 2152.99 154.237 2156.2 Q151.135 2159.4 145.487 2165.16 Z" fill="#4c4c4c" fill-rule="nonzero" fill-opacity="1" /><path clip-path="url(#clip770)" d="M104.145 1839.85 Q100.533 1839.85 98.7048 1843.42 Q96.8992 1846.96 96.8992 1854.09 Q96.8992 1861.2 98.7048 1864.76 Q100.533 1868.3 104.145 1868.3 Q107.779 1868.3 109.584 1864.76 Q111.413 1861.2 111.413 1854.09 Q111.413 1846.96 109.584 1843.42 Q107.779 1839.85 104.145 1839.85 M104.145 1836.15 Q109.955 1836.15 113.01 1840.76 Q116.089 1845.34 116.089 1854.09 Q116.089 1862.82 113.01 1867.42 Q109.955 1872.01 104.145 1872.01 Q98.3344 1872.01 95.2557 1867.42 Q92.2002 1862.82 92.2002 1854.09 Q92.2002 1845.34 95.2557 1840.76 Q98.3344 1836.15 104.145 1836.15 Z" fill="#4c4c4c" fill-rule="nonzero" fill-opacity="1" /><path clip-path="url(#clip770)" d="M124.306 1865.45 L129.191 1865.45 L129.191 1871.33 L124.306 1871.33 L124.306 1865.45 Z" fill="#4c4c4c" fill-rule="nonzero" fill-opacity="1" /><path clip-path="url(#clip770)" d="M152.223 1840.85 L140.417 1859.3 L152.223 1859.3 L152.223 1840.85 M150.996 1836.77 L156.876 1836.77 L156.876 1859.3 L161.806 1859.3 L161.806 1863.19 L156.876 1863.19 L156.876 1871.33 L152.223 1871.33 L152.223 1863.19 L136.621 1863.19 L136.621 1858.67 L150.996 1836.77 Z" fill="#4c4c4c" fill-rule="nonzero" fill-opacity="1" /><path clip-path="url(#clip770)" d="M104.469 1542.09 Q100.858 1542.09 99.0288 1545.66 Q97.2233 1549.2 97.2233 1556.33 Q97.2233 1563.43 99.0288 1567 Q100.858 1570.54 104.469 1570.54 Q108.103 1570.54 109.908 1567 Q111.737 1563.43 111.737 1556.33 Q111.737 1549.2 109.908 1545.66 Q108.103 1542.09 104.469 1542.09 M104.469 1538.39 Q110.279 1538.39 113.334 1542.99 Q116.413 1547.58 116.413 1556.33 Q116.413 1565.05 113.334 1569.66 Q110.279 1574.24 104.469 1574.24 Q98.6585 1574.24 95.5798 1569.66 Q92.5242 1565.05 92.5242 1556.33 Q92.5242 1547.58 95.5798 1542.99 Q98.6585 1538.39 104.469 1538.39 Z" fill="#4c4c4c" fill-rule="nonzero" fill-opacity="1" /><path clip-path="url(#clip770)" d="M124.631 1567.69 L129.515 1567.69 L129.515 1573.57 L124.631 1573.57 L124.631 1567.69 Z" fill="#4c4c4c" fill-rule="nonzero" fill-opacity="1" /><path clip-path="url(#clip770)" d="M150.279 1554.43 Q147.13 1554.43 145.279 1556.58 Q143.45 1558.74 143.45 1562.48 Q143.45 1566.21 145.279 1568.39 Q147.13 1570.54 150.279 1570.54 Q153.427 1570.54 155.255 1568.39 Q157.107 1566.21 157.107 1562.48 Q157.107 1558.74 155.255 1556.58 Q153.427 1554.43 150.279 1554.43 M159.561 1539.78 L159.561 1544.04 Q157.802 1543.2 155.996 1542.76 Q154.214 1542.32 152.454 1542.32 Q147.825 1542.32 145.371 1545.45 Q142.941 1548.57 142.593 1554.89 Q143.959 1552.88 146.019 1551.81 Q148.079 1550.73 150.556 1550.73 Q155.765 1550.73 158.774 1553.9 Q161.806 1557.05 161.806 1562.48 Q161.806 1567.81 158.658 1571.03 Q155.51 1574.24 150.279 1574.24 Q144.283 1574.24 141.112 1569.66 Q137.941 1565.05 137.941 1556.33 Q137.941 1548.13 141.83 1543.27 Q145.718 1538.39 152.269 1538.39 Q154.029 1538.39 155.811 1538.74 Q157.616 1539.08 159.561 1539.78 Z" fill="#4c4c4c" fill-rule="nonzero" fill-opacity="1" /><path clip-path="url(#clip770)" d="M104.723 1244.33 Q101.112 1244.33 99.2835 1247.89 Q97.4779 1251.44 97.4779 1258.57 Q97.4779 1265.67 99.2835 1269.24 Q101.112 1272.78 104.723 1272.78 Q108.357 1272.78 110.163 1269.24 Q111.992 1265.67 111.992 1258.57 Q111.992 1251.44 110.163 1247.89 Q108.357 1244.33 104.723 1244.33 M104.723 1240.63 Q110.533 1240.63 113.589 1245.23 Q116.668 1249.82 116.668 1258.57 Q116.668 1267.29 113.589 1271.9 Q110.533 1276.48 104.723 1276.48 Q98.9131 1276.48 95.8344 1271.9 Q92.7789 1267.29 92.7789 1258.57 Q92.7789 1249.82 95.8344 1245.23 Q98.9131 1240.63 104.723 1240.63 Z" fill="#4c4c4c" fill-rule="nonzero" fill-opacity="1" /><path clip-path="url(#clip770)" d="M124.885 1269.93 L129.769 1269.93 L129.769 1275.81 L124.885 1275.81 L124.885 1269.93 Z" fill="#4c4c4c" fill-rule="nonzero" fill-opacity="1" /><path clip-path="url(#clip770)" d="M149.954 1259.4 Q146.621 1259.4 144.7 1261.18 Q142.802 1262.96 142.802 1266.09 Q142.802 1269.21 144.7 1271 Q146.621 1272.78 149.954 1272.78 Q153.288 1272.78 155.209 1271 Q157.13 1269.19 157.13 1266.09 Q157.13 1262.96 155.209 1261.18 Q153.311 1259.4 149.954 1259.4 M145.279 1257.41 Q142.269 1256.67 140.58 1254.61 Q138.913 1252.55 138.913 1249.58 Q138.913 1245.44 141.853 1243.03 Q144.816 1240.63 149.954 1240.63 Q155.116 1240.63 158.056 1243.03 Q160.996 1245.44 160.996 1249.58 Q160.996 1252.55 159.306 1254.61 Q157.64 1256.67 154.654 1257.41 Q158.033 1258.2 159.908 1260.49 Q161.806 1262.78 161.806 1266.09 Q161.806 1271.11 158.728 1273.8 Q155.672 1276.48 149.954 1276.48 Q144.237 1276.48 141.158 1273.8 Q138.103 1271.11 138.103 1266.09 Q138.103 1262.78 140.001 1260.49 Q141.899 1258.2 145.279 1257.41 M143.566 1250.02 Q143.566 1252.71 145.232 1254.21 Q146.922 1255.72 149.954 1255.72 Q152.964 1255.72 154.654 1254.21 Q156.366 1252.71 156.366 1250.02 Q156.366 1247.34 154.654 1245.83 Q152.964 1244.33 149.954 1244.33 Q146.922 1244.33 145.232 1245.83 Q143.566 1247.34 143.566 1250.02 Z" fill="#4c4c4c" fill-rule="nonzero" fill-opacity="1" /><path clip-path="url(#clip770)" d="M95.4409 974.114 L103.08 974.114 L103.08 947.749 L94.7696 949.416 L94.7696 945.156 L103.033 943.49 L107.709 943.49 L107.709 974.114 L115.348 974.114 L115.348 978.05 L95.4409 978.05 L95.4409 974.114 Z" fill="#4c4c4c" fill-rule="nonzero" fill-opacity="1" /><path clip-path="url(#clip770)" d="M124.793 972.17 L129.677 972.17 L129.677 978.05 L124.793 978.05 L124.793 972.17 Z" fill="#4c4c4c" fill-rule="nonzero" fill-opacity="1" /><path clip-path="url(#clip770)" d="M149.862 946.568 Q146.251 946.568 144.422 950.133 Q142.617 953.675 142.617 960.804 Q142.617 967.911 144.422 971.476 Q146.251 975.017 149.862 975.017 Q153.496 975.017 155.302 971.476 Q157.13 967.911 157.13 960.804 Q157.13 953.675 155.302 950.133 Q153.496 946.568 149.862 946.568 M149.862 942.865 Q155.672 942.865 158.728 947.471 Q161.806 952.054 161.806 960.804 Q161.806 969.531 158.728 974.138 Q155.672 978.721 149.862 978.721 Q144.052 978.721 140.973 974.138 Q137.918 969.531 137.918 960.804 Q137.918 952.054 140.973 947.471 Q144.052 942.865 149.862 942.865 Z" fill="#4c4c4c" fill-rule="nonzero" fill-opacity="1" /><path clip-path="url(#clip770)" d="M97.0381 676.353 L104.677 676.353 L104.677 649.987 L96.3668 651.654 L96.3668 647.395 L104.631 645.728 L109.307 645.728 L109.307 676.353 L116.945 676.353 L116.945 680.288 L97.0381 680.288 L97.0381 676.353 Z" fill="#4c4c4c" fill-rule="nonzero" fill-opacity="1" /><path clip-path="url(#clip770)" d="M126.39 674.408 L131.274 674.408 L131.274 680.288 L126.39 680.288 L126.39 674.408 Z" fill="#4c4c4c" fill-rule="nonzero" fill-opacity="1" /><path clip-path="url(#clip770)" d="M145.487 676.353 L161.806 676.353 L161.806 680.288 L139.862 680.288 L139.862 676.353 Q142.524 673.598 147.107 668.969 Q151.714 664.316 152.894 662.973 Q155.14 660.45 156.019 658.714 Q156.922 656.955 156.922 655.265 Q156.922 652.51 154.978 650.774 Q153.056 649.038 149.954 649.038 Q147.755 649.038 145.302 649.802 Q142.871 650.566 140.093 652.117 L140.093 647.395 Q142.917 646.26 145.371 645.682 Q147.825 645.103 149.862 645.103 Q155.232 645.103 158.427 647.788 Q161.621 650.473 161.621 654.964 Q161.621 657.094 160.811 659.015 Q160.024 660.913 157.917 663.506 Q157.339 664.177 154.237 667.395 Q151.135 670.589 145.487 676.353 Z" fill="#4c4c4c" fill-rule="nonzero" fill-opacity="1" /><path clip-path="url(#clip770)" d="M94.9548 378.591 L102.594 378.591 L102.594 352.226 L94.2835 353.892 L94.2835 349.633 L102.547 347.966 L107.223 347.966 L107.223 378.591 L114.862 378.591 L114.862 382.526 L94.9548 382.526 L94.9548 378.591 Z" fill="#4c4c4c" fill-rule="nonzero" fill-opacity="1" /><path clip-path="url(#clip770)" d="M124.306 376.647 L129.191 376.647 L129.191 382.526 L124.306 382.526 L124.306 376.647 Z" fill="#4c4c4c" fill-rule="nonzero" fill-opacity="1" /><path clip-path="url(#clip770)" d="M152.223 352.04 L140.417 370.489 L152.223 370.489 L152.223 352.04 M150.996 347.966 L156.876 347.966 L156.876 370.489 L161.806 370.489 L161.806 374.378 L156.876 374.378 L156.876 382.526 L152.223 382.526 L152.223 374.378 L136.621 374.378 L136.621 369.864 L150.996 347.966 Z" fill="#4c4c4c" fill-rule="nonzero" fill-opacity="1" /><path clip-path="url(#clip770)" d="M48.597 1321.32 L67.5031 1321.32 L67.5031 1327.21 L18.2962 1327.21 L18.2962 1321.32 L23.7071 1321.32 Q20.5242 1319.47 18.9964 1316.67 Q17.4368 1313.84 17.4368 1309.93 Q17.4368 1303.43 22.5931 1299.39 Q27.7493 1295.32 36.152 1295.32 Q44.5547 1295.32 49.711 1299.39 Q54.8672 1303.43 54.8672 1309.93 Q54.8672 1313.84 53.3394 1316.67 Q51.7798 1319.47 48.597 1321.32 M36.152 1301.4 Q29.6908 1301.4 26.0305 1304.07 Q22.3384 1306.71 22.3384 1311.36 Q22.3384 1316 26.0305 1318.68 Q29.6908 1321.32 36.152 1321.32 Q42.6132 1321.32 46.3053 1318.68 Q49.9656 1316 49.9656 1311.36 Q49.9656 1306.71 46.3053 1304.07 Q42.6132 1301.4 36.152 1301.4 Z" fill="#000000" fill-rule="nonzero" fill-opacity="1" /><path clip-path="url(#clip770)" d="M22.4021 1271.79 Q22.4021 1276.51 26.0942 1279.24 Q29.7545 1281.98 36.152 1281.98 Q42.5495 1281.98 46.2417 1279.27 Q49.9019 1276.54 49.9019 1271.79 Q49.9019 1267.12 46.2098 1264.38 Q42.5177 1261.64 36.152 1261.64 Q29.8181 1261.64 26.126 1264.38 Q22.4021 1267.12 22.4021 1271.79 M17.4368 1271.79 Q17.4368 1264.16 22.4021 1259.8 Q27.3673 1255.43 36.152 1255.43 Q44.9049 1255.43 49.9019 1259.8 Q54.8672 1264.16 54.8672 1271.79 Q54.8672 1279.47 49.9019 1283.83 Q44.9049 1288.15 36.152 1288.15 Q27.3673 1288.15 22.4021 1283.83 Q17.4368 1279.47 17.4368 1271.79 Z" fill="#000000" fill-rule="nonzero" fill-opacity="1" /><path clip-path="url(#clip770)" d="M48.597 1240.06 L67.5031 1240.06 L67.5031 1245.95 L18.2962 1245.95 L18.2962 1240.06 L23.7071 1240.06 Q20.5242 1238.22 18.9964 1235.41 Q17.4368 1232.58 17.4368 1228.67 Q17.4368 1222.17 22.5931 1218.13 Q27.7493 1214.06 36.152 1214.06 Q44.5547 1214.06 49.711 1218.13 Q54.8672 1222.17 54.8672 1228.67 Q54.8672 1232.58 53.3394 1235.41 Q51.7798 1238.22 48.597 1240.06 M36.152 1220.14 Q29.6908 1220.14 26.0305 1222.81 Q22.3384 1225.45 22.3384 1230.1 Q22.3384 1234.75 26.0305 1237.42 Q29.6908 1240.06 36.152 1240.06 Q42.6132 1240.06 46.3053 1237.42 Q49.9656 1234.75 49.9656 1230.1 Q49.9656 1225.45 46.3053 1222.81 Q42.6132 1220.14 36.152 1220.14 Z" fill="#000000" fill-rule="nonzero" fill-opacity="1" /><path clip-path="url(#clip770)" d="M39.8759 1204.95 L18.2962 1204.95 L18.2962 1199.1 L39.6531 1199.1 Q44.7139 1199.1 47.2602 1197.12 Q49.7746 1195.15 49.7746 1191.2 Q49.7746 1186.46 46.7509 1183.72 Q43.7272 1180.96 38.5073 1180.96 L18.2962 1180.96 L18.2962 1175.1 L53.9442 1175.1 L53.9442 1180.96 L48.4696 1180.96 Q51.7162 1183.09 53.3076 1185.92 Q54.8672 1188.72 54.8672 1192.45 Q54.8672 1198.59 51.0478 1201.77 Q47.2283 1204.95 39.8759 1204.95 M17.4368 1190.22 L17.4368 1190.22 Z" fill="#000000" fill-rule="nonzero" fill-opacity="1" /><path clip-path="url(#clip770)" d="M4.41896 1163.04 L4.41896 1157.18 L53.9442 1157.18 L53.9442 1163.04 L4.41896 1163.04 Z" fill="#000000" fill-rule="nonzero" fill-opacity="1" /><path clip-path="url(#clip770)" d="M36.0247 1128.73 Q36.0247 1135.82 37.6479 1138.56 Q39.2712 1141.3 43.1861 1141.3 Q46.3053 1141.3 48.1514 1139.26 Q49.9656 1137.19 49.9656 1133.66 Q49.9656 1128.79 46.5281 1125.86 Q43.0588 1122.9 37.3297 1122.9 L36.0247 1122.9 L36.0247 1128.73 M33.6057 1117.04 L53.9442 1117.04 L53.9442 1122.9 L48.5333 1122.9 Q51.7798 1124.91 53.3394 1127.9 Q54.8672 1130.89 54.8672 1135.22 Q54.8672 1140.69 51.8116 1143.94 Q48.7243 1147.15 43.5681 1147.15 Q37.5525 1147.15 34.4969 1143.14 Q31.4414 1139.1 31.4414 1131.11 L31.4414 1122.9 L30.8685 1122.9 Q26.8262 1122.9 24.6301 1125.57 Q22.4021 1128.22 22.4021 1133.02 Q22.4021 1136.08 23.1341 1138.97 Q23.8662 1141.87 25.3303 1144.54 L19.9195 1144.54 Q18.6781 1141.33 18.0734 1138.31 Q17.4368 1135.28 17.4368 1132.42 Q17.4368 1124.68 21.4472 1120.86 Q25.4576 1117.04 33.6057 1117.04 Z" fill="#000000" fill-rule="nonzero" fill-opacity="1" /><path clip-path="url(#clip770)" d="M19.6648 1079.33 L25.1393 1079.33 Q23.7707 1081.81 23.1023 1084.32 Q22.4021 1086.81 22.4021 1089.35 Q22.4021 1095.05 26.0305 1098.2 Q29.6272 1101.35 36.152 1101.35 Q42.6769 1101.35 46.3053 1098.2 Q49.9019 1095.05 49.9019 1089.35 Q49.9019 1086.81 49.2335 1084.32 Q48.5333 1081.81 47.1647 1079.33 L52.5755 1079.33 Q53.7214 1081.78 54.2943 1084.42 Q54.8672 1087.03 54.8672 1089.99 Q54.8672 1098.04 49.8064 1102.78 Q44.7457 1107.53 36.152 1107.53 Q27.431 1107.53 22.4339 1102.75 Q17.4368 1097.95 17.4368 1089.61 Q17.4368 1086.9 18.0097 1084.32 Q18.5508 1081.75 19.6648 1079.33 M53.9442 1087.6 Q55.9175 1085.85 57.5726 1084.99 Q59.2595 1084.13 60.7873 1084.13 Q63.62 1084.13 65.0523 1086.04 Q66.5164 1087.95 66.5164 1091.71 Q66.5164 1093.17 66.3255 1094.57 Q66.1345 1095.94 65.7525 1097.31 L61.583 1097.31 Q62.1241 1096.23 62.3469 1095.05 Q62.6015 1093.87 62.6015 1092.38 Q62.6015 1090.5 61.8376 1089.54 Q61.0737 1088.59 59.6096 1088.59 Q58.6548 1088.59 57.2543 1089.29 Q55.8857 1089.96 53.9442 1091.39 L53.9442 1087.6 Z" fill="#000000" fill-rule="nonzero" fill-opacity="1" /><path clip-path="url(#clip770)" d="M36.0247 1052.94 Q36.0247 1060.04 37.6479 1062.78 Q39.2712 1065.51 43.1861 1065.51 Q46.3053 1065.51 48.1514 1063.48 Q49.9656 1061.41 49.9656 1057.87 Q49.9656 1053.01 46.5281 1050.08 Q43.0588 1047.12 37.3297 1047.12 L36.0247 1047.12 L36.0247 1052.94 M33.6057 1041.26 L53.9442 1041.26 L53.9442 1047.12 L48.5333 1047.12 Q51.7798 1049.12 53.3394 1052.11 Q54.8672 1055.11 54.8672 1059.43 Q54.8672 1064.91 51.8116 1068.16 Q48.7243 1071.37 43.5681 1071.37 Q37.5525 1071.37 34.4969 1067.36 Q31.4414 1063.32 31.4414 1055.33 L31.4414 1047.12 L30.8685 1047.12 Q26.8262 1047.12 24.6301 1049.79 Q22.4021 1052.43 22.4021 1057.24 Q22.4021 1060.29 23.1341 1063.19 Q23.8662 1066.09 25.3303 1068.76 L19.9195 1068.76 Q18.6781 1065.55 18.0734 1062.52 Q17.4368 1059.5 17.4368 1056.63 Q17.4368 1048.9 21.4472 1045.08 Q25.4576 1041.26 33.6057 1041.26 M10.3391 1056.51 L8.5885 1058.32 Q7.95193 1059.02 7.66547 1059.56 Q7.34718 1060.07 7.34718 1060.48 Q7.34718 1061.69 8.52484 1062.27 Q9.67067 1062.84 12.2806 1062.9 L12.2806 1066.88 Q7.98376 1066.82 5.66027 1065.2 Q3.30496 1063.57 3.30496 1060.68 Q3.30496 1059.47 3.75056 1058.45 Q4.19616 1057.43 5.2465 1056.25 L6.99707 1054.44 Q7.63364 1053.74 7.95193 1053.23 Q8.23838 1052.69 8.23838 1052.27 Q8.23838 1051.06 7.09256 1050.49 Q5.9149 1049.92 3.30496 1049.85 L3.30496 1045.88 Q7.60181 1045.94 9.95712 1047.56 Q12.2806 1049.19 12.2806 1052.08 Q12.2806 1053.29 11.835 1054.31 Q11.3894 1055.33 10.3391 1056.51 Z" fill="#000000" fill-rule="nonzero" fill-opacity="1" /><path clip-path="url(#clip770)" d="M22.4021 1015.38 Q22.4021 1020.09 26.0942 1022.83 Q29.7545 1025.57 36.152 1025.57 Q42.5495 1025.57 46.2417 1022.86 Q49.9019 1020.13 49.9019 1015.38 Q49.9019 1010.71 46.2098 1007.97 Q42.5177 1005.23 36.152 1005.23 Q29.8181 1005.23 26.126 1007.97 Q22.4021 1010.71 22.4021 1015.38 M17.4368 1015.38 Q17.4368 1007.74 22.4021 1003.38 Q27.3673 999.024 36.152 999.024 Q44.9049 999.024 49.9019 1003.38 Q54.8672 1007.74 54.8672 1015.38 Q54.8672 1023.05 49.9019 1027.42 Q44.9049 1031.74 36.152 1031.74 Q27.3673 1031.74 22.4021 1027.42 Q17.4368 1023.05 17.4368 1015.38 Z" fill="#000000" fill-rule="nonzero" fill-opacity="1" /><path clip-path="url(#clip770)" d="M972.365 23.3193 L979.136 23.3193 L991.288 55.958 L1003.44 23.3193 L1010.21 23.3193 L995.629 62.208 L986.948 62.208 L972.365 23.3193 Z" fill="#000000" fill-rule="nonzero" fill-opacity="1" /><path clip-path="url(#clip770)" d="M1036.7 42.6595 Q1028.96 42.6595 1025.98 44.4303 Q1022.99 46.2011 1022.99 50.472 Q1022.99 53.8747 1025.21 55.8886 Q1027.47 57.8677 1031.32 57.8677 Q1036.64 57.8677 1039.83 54.1178 Q1043.06 50.3331 1043.06 44.0831 L1043.06 42.6595 L1036.7 42.6595 M1049.45 40.0206 L1049.45 62.208 L1043.06 62.208 L1043.06 56.3053 Q1040.87 59.8469 1037.61 61.5483 Q1034.34 63.2149 1029.62 63.2149 Q1023.65 63.2149 1020.11 59.8816 Q1016.6 56.5136 1016.6 50.8886 Q1016.6 44.3262 1020.98 40.9928 Q1025.39 37.6595 1034.1 37.6595 L1043.06 37.6595 L1043.06 37.0345 Q1043.06 32.6248 1040.14 30.229 Q1037.26 27.7985 1032.02 27.7985 Q1028.68 27.7985 1025.52 28.5971 Q1022.36 29.3957 1019.45 30.9929 L1019.45 25.0901 Q1022.95 23.736 1026.25 23.0763 Q1029.55 22.3818 1032.68 22.3818 Q1041.11 22.3818 1045.28 26.7568 Q1049.45 31.1318 1049.45 40.0206 Z" fill="#000000" fill-rule="nonzero" fill-opacity="1" /><path clip-path="url(#clip770)" d="M1062.61 8.18051 L1069 8.18051 L1069 62.208 L1062.61 62.208 L1062.61 8.18051 Z" fill="#000000" fill-rule="nonzero" fill-opacity="1" /><path clip-path="url(#clip770)" d="M1097.43 27.7985 Q1092.29 27.7985 1089.31 31.8262 Q1086.32 35.8193 1086.32 42.7984 Q1086.32 49.7775 1089.27 53.8053 Q1092.26 57.7983 1097.43 57.7983 Q1102.54 57.7983 1105.52 53.7705 Q1108.51 49.7428 1108.51 42.7984 Q1108.51 35.8887 1105.52 31.8609 Q1102.54 27.7985 1097.43 27.7985 M1097.43 22.3818 Q1105.77 22.3818 1110.52 27.7985 Q1115.28 33.2151 1115.28 42.7984 Q1115.28 52.3469 1110.52 57.7983 Q1105.77 63.2149 1097.43 63.2149 Q1089.07 63.2149 1084.31 57.7983 Q1079.59 52.3469 1079.59 42.7984 Q1079.59 33.2151 1084.31 27.7985 Q1089.07 22.3818 1097.43 22.3818 Z" fill="#000000" fill-rule="nonzero" fill-opacity="1" /><path clip-path="url(#clip770)" d="M1148.41 29.2915 Q1147.33 28.6665 1146.04 28.3887 Q1144.79 28.0762 1143.27 28.0762 Q1137.85 28.0762 1134.93 31.6179 Q1132.05 35.1248 1132.05 41.722 L1132.05 62.208 L1125.63 62.208 L1125.63 23.3193 L1132.05 23.3193 L1132.05 29.361 Q1134.07 25.8193 1137.29 24.1179 Q1140.52 22.3818 1145.14 22.3818 Q1145.8 22.3818 1146.6 22.486 Q1147.4 22.5554 1148.37 22.729 L1148.41 29.2915 Z" fill="#000000" fill-rule="nonzero" fill-opacity="1" /><path clip-path="url(#clip770)" d="M1210.97 41.1664 L1210.97 44.2914 L1181.6 44.2914 Q1182.02 50.8886 1185.56 54.3608 Q1189.13 57.7983 1195.49 57.7983 Q1199.17 57.7983 1202.61 56.8955 Q1206.08 55.9928 1209.48 54.1872 L1209.48 60.2288 Q1206.04 61.6872 1202.43 62.4511 Q1198.82 63.2149 1195.11 63.2149 Q1185.8 63.2149 1180.35 57.7983 Q1174.93 52.3817 1174.93 43.1456 Q1174.93 33.597 1180.07 28.0068 Q1185.25 22.3818 1194 22.3818 Q1201.84 22.3818 1206.39 27.4512 Q1210.97 32.4859 1210.97 41.1664 M1204.59 39.2915 Q1204.52 34.0484 1201.63 30.9234 Q1198.79 27.7985 1194.07 27.7985 Q1188.72 27.7985 1185.49 30.8193 Q1182.29 33.8401 1181.81 39.3262 L1204.59 39.2915 Z" fill="#000000" fill-rule="nonzero" fill-opacity="1" /><path clip-path="url(#clip770)" d="M1246.25 24.4651 L1246.25 30.5068 Q1243.54 29.1179 1240.63 28.4235 Q1237.71 27.729 1234.59 27.729 Q1229.83 27.729 1227.43 29.1873 Q1225.07 30.6457 1225.07 33.5623 Q1225.07 35.7845 1226.77 37.0692 Q1228.47 38.3192 1233.61 39.4651 L1235.8 39.9512 Q1242.61 41.4095 1245.45 44.0831 Q1248.34 46.722 1248.34 51.4789 Q1248.34 56.8955 1244.03 60.0552 Q1239.76 63.2149 1232.26 63.2149 Q1229.13 63.2149 1225.73 62.5899 Q1222.36 61.9997 1218.61 60.7844 L1218.61 54.1872 Q1222.16 56.0275 1225.59 56.965 Q1229.03 57.8677 1232.4 57.8677 Q1236.91 57.8677 1239.34 56.34 Q1241.77 54.7775 1241.77 51.965 Q1241.77 49.3608 1240 47.972 Q1238.27 46.5831 1232.33 45.2984 L1230.11 44.7775 Q1224.17 43.5275 1221.53 40.9581 Q1218.89 38.354 1218.89 33.8401 Q1218.89 28.354 1222.78 25.3679 Q1226.67 22.3818 1233.82 22.3818 Q1237.36 22.3818 1240.49 22.9027 Q1243.61 23.4235 1246.25 24.4651 Z" fill="#000000" fill-rule="nonzero" fill-opacity="1" /><path clip-path="url(#clip770)" d="M1264.69 56.3747 L1264.69 76.9996 L1258.27 76.9996 L1258.27 23.3193 L1264.69 23.3193 L1264.69 29.2221 Q1266.7 25.7499 1269.76 24.0832 Q1272.85 22.3818 1277.12 22.3818 Q1284.2 22.3818 1288.61 28.0068 Q1293.06 33.6318 1293.06 42.7984 Q1293.06 51.965 1288.61 57.59 Q1284.2 63.2149 1277.12 63.2149 Q1272.85 63.2149 1269.76 61.5483 Q1266.7 59.8469 1264.69 56.3747 M1286.43 42.7984 Q1286.43 35.7498 1283.51 31.7568 Q1280.63 27.729 1275.56 27.729 Q1270.49 27.729 1267.57 31.7568 Q1264.69 35.7498 1264.69 42.7984 Q1264.69 49.847 1267.57 53.8747 Q1270.49 57.8677 1275.56 57.8677 Q1280.63 57.8677 1283.51 53.8747 Q1286.43 49.847 1286.43 42.7984 Z" fill="#000000" fill-rule="nonzero" fill-opacity="1" /><path clip-path="url(#clip770)" d="M1336.91 41.1664 L1336.91 44.2914 L1307.54 44.2914 Q1307.95 50.8886 1311.49 54.3608 Q1315.07 57.7983 1321.43 57.7983 Q1325.11 57.7983 1328.54 56.8955 Q1332.02 55.9928 1335.42 54.1872 L1335.42 60.2288 Q1331.98 61.6872 1328.37 62.4511 Q1324.76 63.2149 1321.04 63.2149 Q1311.74 63.2149 1306.29 57.7983 Q1300.87 52.3817 1300.87 43.1456 Q1300.87 33.597 1306.01 28.0068 Q1311.18 22.3818 1319.93 22.3818 Q1327.78 22.3818 1332.33 27.4512 Q1336.91 32.4859 1336.91 41.1664 M1330.52 39.2915 Q1330.45 34.0484 1327.57 30.9234 Q1324.72 27.7985 1320 27.7985 Q1314.65 27.7985 1311.43 30.8193 Q1308.23 33.8401 1307.74 39.3262 L1330.52 39.2915 Z" fill="#000000" fill-rule="nonzero" fill-opacity="1" /><path clip-path="url(#clip770)" d="M1369.93 29.2915 Q1368.86 28.6665 1367.57 28.3887 Q1366.32 28.0762 1364.79 28.0762 Q1359.38 28.0762 1356.46 31.6179 Q1353.58 35.1248 1353.58 41.722 L1353.58 62.208 L1347.15 62.208 L1347.15 23.3193 L1353.58 23.3193 L1353.58 29.361 Q1355.59 25.8193 1358.82 24.1179 Q1362.05 22.3818 1366.67 22.3818 Q1367.33 22.3818 1368.13 22.486 Q1368.93 22.5554 1369.9 22.729 L1369.93 29.2915 Z" fill="#000000" fill-rule="nonzero" fill-opacity="1" /><path clip-path="url(#clip770)" d="M1394.31 42.6595 Q1386.56 42.6595 1383.58 44.4303 Q1380.59 46.2011 1380.59 50.472 Q1380.59 53.8747 1382.81 55.8886 Q1385.07 57.8677 1388.93 57.8677 Q1394.24 57.8677 1397.43 54.1178 Q1400.66 50.3331 1400.66 44.0831 L1400.66 42.6595 L1394.31 42.6595 M1407.05 40.0206 L1407.05 62.208 L1400.66 62.208 L1400.66 56.3053 Q1398.47 59.8469 1395.21 61.5483 Q1391.95 63.2149 1387.22 63.2149 Q1381.25 63.2149 1377.71 59.8816 Q1374.2 56.5136 1374.2 50.8886 Q1374.2 44.3262 1378.58 40.9928 Q1382.99 37.6595 1391.7 37.6595 L1400.66 37.6595 L1400.66 37.0345 Q1400.66 32.6248 1397.74 30.229 Q1394.86 27.7985 1389.62 27.7985 Q1386.29 27.7985 1383.13 28.5971 Q1379.97 29.3957 1377.05 30.9929 L1377.05 25.0901 Q1380.56 23.736 1383.86 23.0763 Q1387.15 22.3818 1390.28 22.3818 Q1398.72 22.3818 1402.88 26.7568 Q1407.05 31.1318 1407.05 40.0206 Z" fill="#000000" fill-rule="nonzero" fill-opacity="1" /><path clip-path="url(#clip770)" d="M1445.8 29.2221 L1445.8 8.18051 L1452.19 8.18051 L1452.19 62.208 L1445.8 62.208 L1445.8 56.3747 Q1443.79 59.8469 1440.7 61.5483 Q1437.64 63.2149 1433.33 63.2149 Q1426.29 63.2149 1421.84 57.59 Q1417.43 51.965 1417.43 42.7984 Q1417.43 33.6318 1421.84 28.0068 Q1426.29 22.3818 1433.33 22.3818 Q1437.64 22.3818 1440.7 24.0832 Q1443.79 25.7499 1445.8 29.2221 M1424.03 42.7984 Q1424.03 49.847 1426.91 53.8747 Q1429.83 57.8677 1434.9 57.8677 Q1439.97 57.8677 1442.88 53.8747 Q1445.8 49.847 1445.8 42.7984 Q1445.8 35.7498 1442.88 31.7568 Q1439.97 27.729 1434.9 27.729 Q1429.83 27.729 1426.91 31.7568 Q1424.03 35.7498 1424.03 42.7984 Z" fill="#000000" fill-rule="nonzero" fill-opacity="1" /><path clip-path="url(#clip770)" d="M1480.42 27.7985 Q1475.28 27.7985 1472.29 31.8262 Q1469.31 35.8193 1469.31 42.7984 Q1469.31 49.7775 1472.26 53.8053 Q1475.24 57.7983 1480.42 57.7983 Q1485.52 57.7983 1488.51 53.7705 Q1491.49 49.7428 1491.49 42.7984 Q1491.49 35.8887 1488.51 31.8609 Q1485.52 27.7985 1480.42 27.7985 M1480.42 22.3818 Q1488.75 22.3818 1493.51 27.7985 Q1498.26 33.2151 1498.26 42.7984 Q1498.26 52.3469 1493.51 57.7983 Q1488.75 63.2149 1480.42 63.2149 Q1472.05 63.2149 1467.29 57.7983 Q1462.57 52.3469 1462.57 42.7984 Q1462.57 33.2151 1467.29 27.7985 Q1472.05 22.3818 1480.42 22.3818 Z" fill="#000000" fill-rule="nonzero" fill-opacity="1" /><path clip-path="url(#clip770)" d="M1564.72 41.1664 L1564.72 44.2914 L1535.35 44.2914 Q1535.76 50.8886 1539.31 54.3608 Q1542.88 57.7983 1549.24 57.7983 Q1552.92 57.7983 1556.35 56.8955 Q1559.83 55.9928 1563.23 54.1872 L1563.23 60.2288 Q1559.79 61.6872 1556.18 62.4511 Q1552.57 63.2149 1548.85 63.2149 Q1539.55 63.2149 1534.1 57.7983 Q1528.68 52.3817 1528.68 43.1456 Q1528.68 33.597 1533.82 28.0068 Q1538.99 22.3818 1547.74 22.3818 Q1555.59 22.3818 1560.14 27.4512 Q1564.72 32.4859 1564.72 41.1664 M1558.33 39.2915 Q1558.26 34.0484 1555.38 30.9234 Q1552.54 27.7985 1547.81 27.7985 Q1542.47 27.7985 1539.24 30.8193 Q1536.04 33.8401 1535.56 39.3262 L1558.33 39.2915 Z" fill="#000000" fill-rule="nonzero" fill-opacity="1" /><path clip-path="url(#clip770)" d="M1597.81 23.3193 L1604.2 23.3193 L1604.2 62.208 L1597.81 62.208 L1597.81 23.3193 M1597.81 8.18051 L1604.2 8.18051 L1604.2 16.2707 L1597.81 16.2707 L1597.81 8.18051 Z" fill="#000000" fill-rule="nonzero" fill-opacity="1" /><path clip-path="url(#clip770)" d="M1649.9 38.7359 L1649.9 62.208 L1643.51 62.208 L1643.51 38.9442 Q1643.51 33.4234 1641.35 30.6804 Q1639.2 27.9374 1634.9 27.9374 Q1629.72 27.9374 1626.74 31.2359 Q1623.75 34.5345 1623.75 40.229 L1623.75 62.208 L1617.33 62.208 L1617.33 23.3193 L1623.75 23.3193 L1623.75 29.361 Q1626.04 25.854 1629.13 24.1179 Q1632.26 22.3818 1636.32 22.3818 Q1643.02 22.3818 1646.46 26.5485 Q1649.9 30.6804 1649.9 38.7359 Z" fill="#000000" fill-rule="nonzero" fill-opacity="1" /><path clip-path="url(#clip770)" d="M1668.96 12.2777 L1668.96 23.3193 L1682.12 23.3193 L1682.12 28.2846 L1668.96 28.2846 L1668.96 49.3956 Q1668.96 54.1525 1670.24 55.5066 Q1671.56 56.8608 1675.56 56.8608 L1682.12 56.8608 L1682.12 62.208 L1675.56 62.208 Q1668.16 62.208 1665.35 59.465 Q1662.53 56.6872 1662.53 49.3956 L1662.53 28.2846 L1657.85 28.2846 L1657.85 23.3193 L1662.53 23.3193 L1662.53 12.2777 L1668.96 12.2777 Z" fill="#000000" fill-rule="nonzero" fill-opacity="1" /><path clip-path="url(#clip770)" d="M1723.78 41.1664 L1723.78 44.2914 L1694.41 44.2914 Q1694.83 50.8886 1698.37 54.3608 Q1701.94 57.7983 1708.3 57.7983 Q1711.98 57.7983 1715.42 56.8955 Q1718.89 55.9928 1722.29 54.1872 L1722.29 60.2288 Q1718.85 61.6872 1715.24 62.4511 Q1711.63 63.2149 1707.92 63.2149 Q1698.61 63.2149 1693.16 57.7983 Q1687.74 52.3817 1687.74 43.1456 Q1687.74 33.597 1692.88 28.0068 Q1698.06 22.3818 1706.81 22.3818 Q1714.65 22.3818 1719.2 27.4512 Q1723.78 32.4859 1723.78 41.1664 M1717.4 39.2915 Q1717.33 34.0484 1714.44 30.9234 Q1711.6 27.7985 1706.87 27.7985 Q1701.53 27.7985 1698.3 30.8193 Q1695.1 33.8401 1694.62 39.3262 L1717.4 39.2915 Z" fill="#000000" fill-rule="nonzero" fill-opacity="1" /><path clip-path="url(#clip770)" d="M1756.81 29.2915 Q1755.73 28.6665 1754.44 28.3887 Q1753.19 28.0762 1751.67 28.0762 Q1746.25 28.0762 1743.33 31.6179 Q1740.45 35.1248 1740.45 41.722 L1740.45 62.208 L1734.03 62.208 L1734.03 23.3193 L1740.45 23.3193 L1740.45 29.361 Q1742.46 25.8193 1745.69 24.1179 Q1748.92 22.3818 1753.54 22.3818 Q1754.2 22.3818 1755 22.486 Q1755.8 22.5554 1756.77 22.729 L1756.81 29.2915 Z" fill="#000000" fill-rule="nonzero" fill-opacity="1" /><path clip-path="url(#clip770)" d="M1758.92 23.3193 L1765.69 23.3193 L1777.85 55.958 L1790 23.3193 L1796.77 23.3193 L1782.19 62.208 L1773.51 62.208 L1758.92 23.3193 Z" fill="#000000" fill-rule="nonzero" fill-opacity="1" /><path clip-path="url(#clip770)" d="M1823.26 42.6595 Q1815.52 42.6595 1812.53 44.4303 Q1809.55 46.2011 1809.55 50.472 Q1809.55 53.8747 1811.77 55.8886 Q1814.03 57.8677 1817.88 57.8677 Q1823.19 57.8677 1826.39 54.1178 Q1829.62 50.3331 1829.62 44.0831 L1829.62 42.6595 L1823.26 42.6595 M1836.01 40.0206 L1836.01 62.208 L1829.62 62.208 L1829.62 56.3053 Q1827.43 59.8469 1824.17 61.5483 Q1820.9 63.2149 1816.18 63.2149 Q1810.21 63.2149 1806.67 59.8816 Q1803.16 56.5136 1803.16 50.8886 Q1803.16 44.3262 1807.53 40.9928 Q1811.94 37.6595 1820.66 37.6595 L1829.62 37.6595 L1829.62 37.0345 Q1829.62 32.6248 1826.7 30.229 Q1823.82 27.7985 1818.58 27.7985 Q1815.24 27.7985 1812.08 28.5971 Q1808.92 29.3957 1806.01 30.9929 L1806.01 25.0901 Q1809.51 23.736 1812.81 23.0763 Q1816.11 22.3818 1819.24 22.3818 Q1827.67 22.3818 1831.84 26.7568 Q1836.01 31.1318 1836.01 40.0206 Z" fill="#000000" fill-rule="nonzero" fill-opacity="1" /><path clip-path="url(#clip770)" d="M1849.17 8.18051 L1855.55 8.18051 L1855.55 62.208 L1849.17 62.208 L1849.17 8.18051 Z" fill="#000000" fill-rule="nonzero" fill-opacity="1" /><path clip-path="url(#clip770)" d="M1883.99 27.7985 Q1878.85 27.7985 1875.87 31.8262 Q1872.88 35.8193 1872.88 42.7984 Q1872.88 49.7775 1875.83 53.8053 Q1878.82 57.7983 1883.99 57.7983 Q1889.1 57.7983 1892.08 53.7705 Q1895.07 49.7428 1895.07 42.7984 Q1895.07 35.8887 1892.08 31.8609 Q1889.1 27.7985 1883.99 27.7985 M1883.99 22.3818 Q1892.33 22.3818 1897.08 27.7985 Q1901.84 33.2151 1901.84 42.7984 Q1901.84 52.3469 1897.08 57.7983 Q1892.33 63.2149 1883.99 63.2149 Q1875.62 63.2149 1870.87 57.7983 Q1866.14 52.3469 1866.14 42.7984 Q1866.14 33.2151 1870.87 27.7985 Q1875.62 22.3818 1883.99 22.3818 Z" fill="#000000" fill-rule="nonzero" fill-opacity="1" /><path clip-path="url(#clip770)" d="M1937.22 24.4651 L1937.22 30.5068 Q1934.51 29.1179 1931.6 28.4235 Q1928.68 27.729 1925.55 27.729 Q1920.8 27.729 1918.4 29.1873 Q1916.04 30.6457 1916.04 33.5623 Q1916.04 35.7845 1917.74 37.0692 Q1919.44 38.3192 1924.58 39.4651 L1926.77 39.9512 Q1933.57 41.4095 1936.42 44.0831 Q1939.3 46.722 1939.3 51.4789 Q1939.3 56.8955 1935 60.0552 Q1930.73 63.2149 1923.23 63.2149 Q1920.1 63.2149 1916.7 62.5899 Q1913.33 61.9997 1909.58 60.7844 L1909.58 54.1872 Q1913.12 56.0275 1916.56 56.965 Q1920 57.8677 1923.37 57.8677 Q1927.88 57.8677 1930.31 56.34 Q1932.74 54.7775 1932.74 51.965 Q1932.74 49.3608 1930.97 47.972 Q1929.23 46.5831 1923.3 45.2984 L1921.08 44.7775 Q1915.14 43.5275 1912.5 40.9581 Q1909.86 38.354 1909.86 33.8401 Q1909.86 28.354 1913.75 25.3679 Q1917.64 22.3818 1924.79 22.3818 Q1928.33 22.3818 1931.46 22.9027 Q1934.58 23.4235 1937.22 24.4651 Z" fill="#000000" fill-rule="nonzero" fill-opacity="1" /><path clip-path="url(#clip770)" d="M1997.67 29.2221 L1997.67 8.18051 L2004.06 8.18051 L2004.06 62.208 L1997.67 62.208 L1997.67 56.3747 Q1995.66 59.8469 1992.57 61.5483 Q1989.51 63.2149 1985.21 63.2149 Q1978.16 63.2149 1973.71 57.59 Q1969.3 51.965 1969.3 42.7984 Q1969.3 33.6318 1973.71 28.0068 Q1978.16 22.3818 1985.21 22.3818 Q1989.51 22.3818 1992.57 24.0832 Q1995.66 25.7499 1997.67 29.2221 M1975.9 42.7984 Q1975.9 49.847 1978.78 53.8747 Q1981.7 57.8677 1986.77 57.8677 Q1991.84 57.8677 1994.76 53.8747 Q1997.67 49.847 1997.67 42.7984 Q1997.67 35.7498 1994.76 31.7568 Q1991.84 27.729 1986.77 27.729 Q1981.7 27.729 1978.78 31.7568 Q1975.9 35.7498 1975.9 42.7984 Z" fill="#000000" fill-rule="nonzero" fill-opacity="1" /><path clip-path="url(#clip770)" d="M2050.48 41.1664 L2050.48 44.2914 L2021.11 44.2914 Q2021.53 50.8886 2025.07 54.3608 Q2028.64 57.7983 2035 57.7983 Q2038.68 57.7983 2042.12 56.8955 Q2045.59 55.9928 2048.99 54.1872 L2048.99 60.2288 Q2045.55 61.6872 2041.94 62.4511 Q2038.33 63.2149 2034.62 63.2149 Q2025.31 63.2149 2019.86 57.7983 Q2014.44 52.3817 2014.44 43.1456 Q2014.44 33.597 2019.58 28.0068 Q2024.76 22.3818 2033.5 22.3818 Q2041.35 22.3818 2045.9 27.4512 Q2050.48 32.4859 2050.48 41.1664 M2044.1 39.2915 Q2044.03 34.0484 2041.14 30.9234 Q2038.3 27.7985 2033.57 27.7985 Q2028.23 27.7985 2025 30.8193 Q2021.8 33.8401 2021.32 39.3262 L2044.1 39.2915 Z" fill="#000000" fill-rule="nonzero" fill-opacity="1" /><path clip-path="url(#clip770)" d="M2111.56 24.8124 L2111.56 30.7846 Q2108.85 29.2915 2106.11 28.5623 Q2103.4 27.7985 2100.62 27.7985 Q2094.41 27.7985 2090.97 31.7568 Q2087.53 35.6804 2087.53 42.7984 Q2087.53 49.9164 2090.97 53.8747 Q2094.41 57.7983 2100.62 57.7983 Q2103.4 57.7983 2106.11 57.0691 Q2108.85 56.3053 2111.56 54.8122 L2111.56 60.715 Q2108.89 61.9649 2106 62.5899 Q2103.16 63.2149 2099.93 63.2149 Q2091.14 63.2149 2085.97 57.6941 Q2080.8 52.1733 2080.8 42.7984 Q2080.8 33.2845 2086 27.8332 Q2091.25 22.3818 2100.34 22.3818 Q2103.3 22.3818 2106.11 23.0068 Q2108.92 23.5971 2111.56 24.8124 Z" fill="#000000" fill-rule="nonzero" fill-opacity="1" /><path clip-path="url(#clip770)" d="M2137.74 27.7985 Q2132.6 27.7985 2129.62 31.8262 Q2126.63 35.8193 2126.63 42.7984 Q2126.63 49.7775 2129.58 53.8053 Q2132.57 57.7983 2137.74 57.7983 Q2142.84 57.7983 2145.83 53.7705 Q2148.82 49.7428 2148.82 42.7984 Q2148.82 35.8887 2145.83 31.8609 Q2142.84 27.7985 2137.74 27.7985 M2137.74 22.3818 Q2146.07 22.3818 2150.83 27.7985 Q2155.59 33.2151 2155.59 42.7984 Q2155.59 52.3469 2150.83 57.7983 Q2146.07 63.2149 2137.74 63.2149 Q2129.37 63.2149 2124.62 57.7983 Q2119.89 52.3469 2119.89 42.7984 Q2119.89 33.2151 2124.62 27.7985 Q2129.37 22.3818 2137.74 22.3818 Z" fill="#000000" fill-rule="nonzero" fill-opacity="1" /><path clip-path="url(#clip770)" d="M2198.5 38.7359 L2198.5 62.208 L2192.12 62.208 L2192.12 38.9442 Q2192.12 33.4234 2189.96 30.6804 Q2187.81 27.9374 2183.5 27.9374 Q2178.33 27.9374 2175.34 31.2359 Q2172.36 34.5345 2172.36 40.229 L2172.36 62.208 L2165.93 62.208 L2165.93 23.3193 L2172.36 23.3193 L2172.36 29.361 Q2174.65 25.854 2177.74 24.1179 Q2180.87 22.3818 2184.93 22.3818 Q2191.63 22.3818 2195.07 26.5485 Q2198.5 30.6804 2198.5 38.7359 Z" fill="#000000" fill-rule="nonzero" fill-opacity="1" /><path clip-path="url(#clip770)" d="M2230.93 8.18051 L2230.93 13.493 L2224.82 13.493 Q2221.39 13.493 2220.03 14.8819 Q2218.71 16.2707 2218.71 19.8818 L2218.71 23.3193 L2229.23 23.3193 L2229.23 28.2846 L2218.71 28.2846 L2218.71 62.208 L2212.29 62.208 L2212.29 28.2846 L2206.18 28.2846 L2206.18 23.3193 L2212.29 23.3193 L2212.29 20.611 Q2212.29 14.118 2215.31 11.1666 Q2218.33 8.18051 2224.89 8.18051 L2230.93 8.18051 Z" fill="#000000" fill-rule="nonzero" fill-opacity="1" /><path clip-path="url(#clip770)" d="M2236.28 23.3193 L2242.67 23.3193 L2242.67 62.208 L2236.28 62.208 L2236.28 23.3193 M2236.28 8.18051 L2242.67 8.18051 L2242.67 16.2707 L2236.28 16.2707 L2236.28 8.18051 Z" fill="#000000" fill-rule="nonzero" fill-opacity="1" /><path clip-path="url(#clip770)" d="M2273.71 42.6595 Q2265.97 42.6595 2262.98 44.4303 Q2260 46.2011 2260 50.472 Q2260 53.8747 2262.22 55.8886 Q2264.48 57.8677 2268.33 57.8677 Q2273.64 57.8677 2276.84 54.1178 Q2280.07 50.3331 2280.07 44.0831 L2280.07 42.6595 L2273.71 42.6595 M2286.45 40.0206 L2286.45 62.208 L2280.07 62.208 L2280.07 56.3053 Q2277.88 59.8469 2274.61 61.5483 Q2271.35 63.2149 2266.63 63.2149 Q2260.66 63.2149 2257.11 59.8816 Q2253.61 56.5136 2253.61 50.8886 Q2253.61 44.3262 2257.98 40.9928 Q2262.39 37.6595 2271.11 37.6595 L2280.07 37.6595 L2280.07 37.0345 Q2280.07 32.6248 2277.15 30.229 Q2274.27 27.7985 2269.02 27.7985 Q2265.69 27.7985 2262.53 28.5971 Q2259.37 29.3957 2256.46 30.9929 L2256.46 25.0901 Q2259.96 23.736 2263.26 23.0763 Q2266.56 22.3818 2269.68 22.3818 Q2278.12 22.3818 2282.29 26.7568 Q2286.45 31.1318 2286.45 40.0206 Z" fill="#000000" fill-rule="nonzero" fill-opacity="1" /><path clip-path="url(#clip770)" d="M2331.94 38.7359 L2331.94 62.208 L2325.55 62.208 L2325.55 38.9442 Q2325.55 33.4234 2323.4 30.6804 Q2321.25 27.9374 2316.94 27.9374 Q2311.77 27.9374 2308.78 31.2359 Q2305.8 34.5345 2305.8 40.229 L2305.8 62.208 L2299.37 62.208 L2299.37 23.3193 L2305.8 23.3193 L2305.8 29.361 Q2308.09 25.854 2311.18 24.1179 Q2314.3 22.3818 2318.36 22.3818 Q2325.07 22.3818 2328.5 26.5485 Q2331.94 30.6804 2331.94 38.7359 Z" fill="#000000" fill-rule="nonzero" fill-opacity="1" /><path clip-path="url(#clip770)" d="M2372.67 24.8124 L2372.67 30.7846 Q2369.96 29.2915 2367.22 28.5623 Q2364.51 27.7985 2361.73 27.7985 Q2355.52 27.7985 2352.08 31.7568 Q2348.64 35.6804 2348.64 42.7984 Q2348.64 49.9164 2352.08 53.8747 Q2355.52 57.7983 2361.73 57.7983 Q2364.51 57.7983 2367.22 57.0691 Q2369.96 56.3053 2372.67 54.8122 L2372.67 60.715 Q2370 61.9649 2367.11 62.5899 Q2364.27 63.2149 2361.04 63.2149 Q2352.25 63.2149 2347.08 57.6941 Q2341.91 52.1733 2341.91 42.7984 Q2341.91 33.2845 2347.11 27.8332 Q2352.36 22.3818 2361.45 22.3818 Q2364.41 22.3818 2367.22 23.0068 Q2370.03 23.5971 2372.67 24.8124 M2363.64 62.208 Q2365.55 64.3608 2366.49 66.1663 Q2367.43 68.0066 2367.43 69.6732 Q2367.43 72.7635 2365.34 74.326 Q2363.26 75.9232 2359.16 75.9232 Q2357.57 75.9232 2356.04 75.7149 Q2354.54 75.5065 2353.05 75.0899 L2353.05 70.5413 Q2354.23 71.1316 2355.52 71.3746 Q2356.8 71.6524 2358.43 71.6524 Q2360.48 71.6524 2361.52 70.8191 Q2362.57 69.9857 2362.57 68.3885 Q2362.57 67.3469 2361.8 65.8191 Q2361.07 64.326 2359.51 62.208 L2363.64 62.208 Z" fill="#000000" fill-rule="nonzero" fill-opacity="1" /><path clip-path="url(#clip770)" d="M2401.45 42.6595 Q2393.71 42.6595 2390.73 44.4303 Q2387.74 46.2011 2387.74 50.472 Q2387.74 53.8747 2389.96 55.8886 Q2392.22 57.8677 2396.07 57.8677 Q2401.38 57.8677 2404.58 54.1178 Q2407.81 50.3331 2407.81 44.0831 L2407.81 42.6595 L2401.45 42.6595 M2414.2 40.0206 L2414.2 62.208 L2407.81 62.208 L2407.81 56.3053 Q2405.62 59.8469 2402.36 61.5483 Q2399.09 63.2149 2394.37 63.2149 Q2388.4 63.2149 2384.86 59.8816 Q2381.35 56.5136 2381.35 50.8886 Q2381.35 44.3262 2385.73 40.9928 Q2390.13 37.6595 2398.85 37.6595 L2407.81 37.6595 L2407.81 37.0345 Q2407.81 32.6248 2404.89 30.229 Q2402.01 27.7985 2396.77 27.7985 Q2393.43 27.7985 2390.27 28.5971 Q2387.11 29.3957 2384.2 30.9929 L2384.2 25.0901 Q2387.7 23.736 2391 23.0763 Q2394.3 22.3818 2397.43 22.3818 Q2405.86 22.3818 2410.03 26.7568 Q2414.2 31.1318 2414.2 40.0206 Z" fill="#000000" fill-rule="nonzero" fill-opacity="1" /><path clip-path="url(#clip772)" d="M316.418 2145.95 L330.256 2125.58 L344.094 2104.08 L357.932 2081.44 L371.769 2057.62 L385.607 2032.61 L399.445 2006.38 L413.283 1978.93 L427.121 1950.26 L440.958 1920.37 L454.796 1889.27 L468.634 1856.99 L482.472 1823.59 L496.31 1789.06 L510.148 1753.45 L523.985 1716.82 L537.823 1679.23 L551.661 1640.76 L565.499 1601.35 L579.337 1561.49 L593.174 1520.87 L607.012 1479.77 L620.85 1438.36 L634.688 1396.67 L648.526 1354.85 L662.364 1312.84 L676.201 1271.05 L690.039 1229.41 L703.877 1188.09 L717.715 1147.17 L731.553 1106.79 L745.39 1067.02 L759.228 1027.95 L773.066 989.531 L786.904 952.442 L800.742 916.387 L814.58 880.968 L828.417 846.973 L842.255 814.143 L856.093 782.5 L869.931 752.062 L883.769 722.584 L897.606 693.822 L911.444 666.497 L925.282 641.342 L939.12 616.516 L952.958 592.67 L966.796 569.976 L980.633 548.419 L994.471 528.066 L1008.31 509.169 L1022.15 491.38 L1035.98 475.052 L1049.82 458.863 L1063.66 443.947 L1077.5 430.864 L1091.34 418.414 L1105.17 406.505 L1119.01 395.193 L1132.85 384.54 L1146.69 374.15 L1160.53 365.335 L1174.36 357.298 L1188.2 350.384 L1202.04 344.78 L1215.88 338.428 L1229.71 332.96 L1243.55 327.463 L1257.39 322.709 L1271.23 318.349 L1285.07 313.898 L1298.9 309.87 L1312.74 306.146 L1326.58 302.324 L1340.42 298.808 L1354.25 295.527 L1368.09 292.562 L1381.93 289.816 L1395.77 287.255 L1409.61 285.011 L1423.44 282.881 L1437.28 280.785 L1451.12 278.844 L1464.96 277.046 L1478.79 275.413 L1492.63 273.914 L1506.47 272.526 L1520.31 271.24 L1534.15 269.884 L1547.98 268.581 L1561.82 267.371 L1575.66 266.26 L1589.5 265.377 L1603.34 264.552 L1617.17 263.777 L1631.01 263.072 L1644.85 262.428 L1658.69 261.8 L1672.52 261.132 L1686.36 260.517 L1700.2 260.034 L1714.04 259.587 L1727.88 259.175 L1741.71 258.794 L1755.55 258.449 L1769.39 258.131 L1783.23 257.836 L1797.06 257.565 L1810.9 257.339 L1824.74 257.145 L1838.58 256.962 L1852.42 256.79 L1866.25 256.628 L1880.09 256.477 L1893.93 256.336 L1907.77 256.205 L1921.61 256.083 L1935.44 255.971 L1949.28 255.867 L1963.12 255.771 L1976.96 255.684 L1990.79 255.604 L2004.63 255.531 L2018.47 255.464 L2032.31 255.403 L2046.15 255.348 L2059.98 255.297 L2073.82 255.251 L2087.66 255.208 L2101.5 255.167 L2115.33 255.129 L2129.17 255.093 L2143.01 255.058 L2156.85 255.024 L2170.69 254.991 L2184.52 254.96 L2198.36 254.931 L2212.2 254.904 L2226.04 254.878 L2239.87 254.855 L2253.71 254.833 L2267.55 254.813 L2281.39 254.795 L2295.23 254.779 L2309.06 254.764 L2322.9 254.751 L2336.74 254.739 L2350.58 254.729 L2364.42 254.72 L2378.25 254.712 L2392.09 254.705 L2405.93 254.7 L2419.77 254.694 L2433.6 254.69 L2447.44 254.686 L2461.28 254.682 L2475.12 254.678 L2488.96 254.673 L2502.79 254.669 L2516.63 254.664 L2530.47 254.659 L2544.31 254.653 L2558.14 254.648 L2571.98 254.643 L2585.82 254.638 L2599.66 254.633 L2613.5 254.628 L2627.33 254.624 L2641.17 254.62 L2655.01 254.617 L2668.85 254.613 L2682.69 254.61 L2696.52 254.608 L2710.36 254.606 L2724.2 254.604 L2738.04 254.603 L2751.87 254.602 L2765.71 254.601 L2779.55 254.601 L2793.39 254.6 L2807.23 254.601 L2821.06 254.601 L2834.9 254.602 L2848.74 254.602 L2862.58 254.603 L2876.41 254.604 L2890.25 254.605 L2904.09 254.606 L2917.93 254.607 L2931.77 254.607 L2945.6 254.607 L2959.44 254.607 L2973.28 254.607 L2987.12 254.606 L3000.96 254.606 L3014.79 254.605 L3028.63 254.604 L3042.47 254.603 L3056.31 254.602 L3070.14 254.601 L3070.14 180.282 L3056.31 180.283 L3042.47 180.284 L3028.63 180.285 L3014.79 180.286 L3000.96 180.287 L2987.12 180.287 L2973.28 180.288 L2959.44 180.288 L2945.6 180.288 L2931.77 180.288 L2917.93 180.288 L2904.09 180.288 L2890.25 180.289 L2876.41 180.289 L2862.58 180.289 L2848.74 180.29 L2834.9 180.291 L2821.06 180.291 L2807.23 180.292 L2793.39 180.292 L2779.55 180.292 L2765.71 180.293 L2751.87 180.293 L2738.04 180.294 L2724.2 180.295 L2710.36 180.296 L2696.52 180.298 L2682.69 180.3 L2668.85 180.303 L2655.01 180.306 L2641.17 180.31 L2627.33 180.314 L2613.5 180.319 L2599.66 180.324 L2585.82 180.329 L2571.98 180.336 L2558.14 180.342 L2544.31 180.349 L2530.47 180.357 L2516.63 180.364 L2502.79 180.372 L2488.96 180.38 L2475.12 180.389 L2461.28 180.398 L2447.44 180.408 L2433.6 180.419 L2419.77 180.43 L2405.93 180.442 L2392.09 180.454 L2378.25 180.467 L2364.42 180.481 L2350.58 180.495 L2336.74 180.511 L2322.9 180.529 L2309.06 180.548 L2295.23 180.569 L2281.39 180.592 L2267.55 180.618 L2253.71 180.646 L2239.87 180.676 L2226.04 180.709 L2212.2 180.744 L2198.36 180.783 L2184.52 180.824 L2170.69 180.866 L2156.85 180.911 L2143.01 180.959 L2129.17 181.01 L2115.33 181.065 L2101.5 181.124 L2087.66 181.188 L2073.82 181.257 L2059.98 181.33 L2046.15 181.409 L2032.31 181.493 L2018.47 181.585 L2004.63 181.684 L1990.79 181.793 L1976.96 181.908 L1963.12 182.012 L1949.28 182.125 L1935.44 182.248 L1921.61 182.383 L1907.77 182.53 L1893.93 182.691 L1880.09 182.866 L1866.25 183.057 L1852.42 183.26 L1838.58 183.477 L1824.74 183.712 L1810.9 183.965 L1797.06 184.238 L1783.23 184.53 L1769.39 184.843 L1755.55 185.178 L1741.71 185.536 L1727.88 185.921 L1714.04 186.333 L1700.2 186.777 L1686.36 187.219 L1672.52 187.684 L1658.69 188.188 L1644.85 188.826 L1631.01 189.515 L1617.17 190.259 L1603.34 191.06 L1589.5 191.923 L1575.66 192.851 L1561.82 193.847 L1547.98 194.912 L1534.15 196.028 L1520.31 197.226 L1506.47 198.515 L1492.63 199.861 L1478.79 201.157 L1464.96 202.557 L1451.12 204.068 L1437.28 205.699 L1423.44 207.433 L1409.61 209.22 L1395.77 211.124 L1381.93 213.173 L1368.09 215.565 L1354.25 218.298 L1340.42 221.211 L1326.58 224.18 L1312.74 227.289 L1298.9 230.632 L1285.07 234.223 L1271.23 238.196 L1257.39 243.26 L1243.55 247.734 L1229.71 252.367 L1215.88 257.479 L1202.04 263.748 L1188.2 270.187 L1174.36 276.65 L1160.53 283.238 L1146.69 290.488 L1132.85 298.411 L1119.01 306.817 L1105.17 315.747 L1091.34 325.33 L1077.5 335.572 L1063.66 346.298 L1049.82 357.347 L1035.98 369.465 L1022.15 382.753 L1008.31 397.147 L994.471 412.668 L980.633 427.984 L966.796 443.85 L952.958 461.256 L939.12 479.499 L925.282 498.102 L911.444 517.573 L897.606 538.65 L883.769 561.086 L869.931 584.283 L856.093 608.557 L842.255 634.416 L828.417 661.111 L814.58 688.962 L800.742 717.877 L786.904 748.494 L773.066 780.219 L759.228 813.253 L745.39 847.252 L731.553 882.361 L717.715 918.534 L703.877 955.711 L690.039 993.827 L676.201 1032.81 L662.364 1072.57 L648.526 1112.67 L634.688 1153.26 L620.85 1194.35 L607.012 1235.81 L593.174 1277.55 L579.337 1319.45 L565.499 1361.37 L551.661 1402.79 L537.823 1443.99 L523.985 1485.25 L510.148 1526.32 L496.31 1566.85 L482.472 1606.74 L468.634 1645.98 L454.796 1684.48 L440.958 1722 L427.121 1758.48 L413.283 1794.12 L399.445 1828.75 L385.607 1862.22 L371.769 1894.48 L357.932 1925.46 L344.094 1955.2 L330.256 1983.7 L316.418 2010.93  Z" fill="#009af9" fill-rule="evenodd" fill-opacity="0.2"/>
<polyline clip-path="url(#clip772)" style="stroke:#009af9; stroke-linecap:round; stroke-linejoin:round; stroke-width:12; stroke-opacity:1; fill:none" points="316.418,2077.5 330.256,2053.58 344.094,2028.5 357.932,2002.24 371.769,1974.77 385.607,1946.09 399.445,1916.22 413.283,1885.07 427.121,1852.89 440.958,1819.55 454.796,1785.05 468.634,1749.4 482.472,1712.74 496.31,1675.16 510.148,1637.02 523.985,1598.13 537.823,1558.44 551.661,1518.08 565.499,1477.13 579.337,1435.53 593.174,1393.73 607.012,1352.12 620.85,1310.48 634.688,1268.63 648.526,1226.9 662.364,1185.47 676.201,1144.45 690.039,1103.96 703.877,1064.09 717.715,1024.95 731.553,986.403 745.39,949.364 759.228,912.656 773.066,877.049 786.904,842.924 800.742,810.092 814.58,777.923 828.417,746.884 842.255,716.863 856.093,688.489 869.931,660.92 883.769,634.549 897.606,609.614 911.444,586.283 925.282,563.924 939.12,543.138 952.958,523.1 966.796,503.716 980.633,485.932 994.471,468.345 1008.31,451.429 1022.15,436.286 1035.98,421.988 1049.82,408.535 1063.66,395.65 1077.5,383.472 1091.34,372.266 1105.17,362.035 1119.01,352.758 1132.85,344.146 1146.69,335.304 1160.53,327.351 1174.36,320.103 1188.2,313.038 1202.04,306.138 1215.88,300.184 1229.71,294.481 1243.55,288.956 1257.39,284.011 1271.23,279.746 1285.07,275.055 1298.9,270.491 1312.74,266.364 1326.58,262.61 1340.42,258.939 1354.25,256.002 1368.09,253.596 1381.93,250.823 1395.77,248.459 1409.61,246.263 1423.44,244.307 1437.28,242.513 1451.12,240.848 1464.96,239.355 1478.79,237.905 1492.63,236.462 1506.47,235.191 1520.31,234.015 1534.15,232.97 1547.98,232.035 1561.82,231.164 1575.66,230.335 1589.5,229.426 1603.34,228.581 1617.17,227.796 1631.01,227.068 1644.85,226.394 1658.69,225.769 1672.52,225.192 1686.36,224.658 1700.2,224.165 1714.04,223.709 1727.88,223.287 1741.71,222.896 1755.55,222.534 1769.39,222.161 1783.23,221.791 1797.06,221.447 1810.9,221.165 1824.74,220.914 1838.58,220.682 1852.42,220.469 1866.25,220.272 1880.09,220.091 1893.93,219.924 1907.77,219.768 1921.61,219.623 1935.44,219.486 1949.28,219.357 1963.12,219.234 1976.96,219.118 1990.79,219.01 2004.63,218.909 2018.47,218.815 2032.31,218.728 2046.15,218.648 2059.98,218.574 2073.82,218.506 2087.66,218.444 2101.5,218.388 2115.33,218.337 2129.17,218.291 2143.01,218.249 2156.85,218.212 2170.69,218.178 2184.52,218.147 2198.36,218.118 2212.2,218.092 2226.04,218.067 2239.87,218.044 2253.71,218.02 2267.55,217.997 2281.39,217.974 2295.23,217.952 2309.06,217.931 2322.9,217.911 2336.74,217.892 2350.58,217.874 2364.42,217.858 2378.25,217.843 2392.09,217.829 2405.93,217.816 2419.77,217.805 2433.6,217.795 2447.44,217.786 2461.28,217.778 2475.12,217.771 2488.96,217.765 2502.79,217.76 2516.63,217.756 2530.47,217.752 2544.31,217.749 2558.14,217.747 2571.98,217.745 2585.82,217.743 2599.66,217.741 2613.5,217.739 2627.33,217.737 2641.17,217.735 2655.01,217.732 2668.85,217.729 2682.69,217.726 2696.52,217.723 2710.36,217.72 2724.2,217.716 2738.04,217.714 2751.87,217.711 2765.71,217.708 2779.55,217.706 2793.39,217.704 2807.23,217.702 2821.06,217.7 2834.9,217.699 2848.74,217.698 2862.58,217.697 2876.41,217.696 2890.25,217.695 2904.09,217.694 2917.93,217.694 2931.77,217.694 2945.6,217.693 2959.44,217.693 2973.28,217.693 2987.12,217.693 3000.96,217.693 3014.79,217.693 3028.63,217.693 3042.47,217.693 3056.31,217.692 3070.14,217.692 "/>
<path clip-path="url(#clip772)" d="M316.418 2126.04 L330.256 2104.54 L344.094 2081.87 L357.932 2058.18 L371.769 2033.43 L385.607 2007.5 L399.445 1980.37 L413.283 1951.9 L427.121 1922.17 L440.958 1891.23 L454.796 1859.05 L468.634 1825.7 L482.472 1791.28 L496.31 1755.98 L510.148 1719.38 L523.985 1681.69 L537.823 1643.37 L551.661 1604.41 L565.499 1564.77 L579.337 1524.52 L593.174 1483.64 L607.012 1442.23 L620.85 1400.44 L634.688 1358.44 L648.526 1316.34 L662.364 1273.52 L676.201 1232.04 L690.039 1190.37 L703.877 1149.02 L717.715 1108.31 L731.553 1069.46 L745.39 1030.4 L759.228 991.995 L773.066 954.468 L786.904 917.9 L800.742 882.355 L814.58 848.784 L828.417 815.34 L842.255 783.097 L856.093 750.906 L869.931 721.094 L883.769 692.401 L897.606 664.715 L911.444 638.226 L925.282 612.95 L939.12 589.545 L952.958 566.47 L966.796 545.13 L980.633 524.694 L994.471 505.08 L1008.31 486.912 L1022.15 469.875 L1035.98 454.825 L1049.82 438.85 L1063.66 425.184 L1077.5 413.294 L1091.34 401.552 L1105.17 391.606 L1119.01 381.378 L1132.85 372.188 L1146.69 363.841 L1160.53 354.3 L1174.36 345.676 L1188.2 338.223 L1202.04 330.735 L1215.88 324.283 L1229.71 318.727 L1243.55 313.452 L1257.39 308.408 L1271.23 303.494 L1285.07 298.768 L1298.9 294.644 L1312.74 291.073 L1326.58 287.517 L1340.42 284.289 L1354.25 280.819 L1368.09 278.037 L1381.93 275.701 L1395.77 273.236 L1409.61 270.792 L1423.44 268.514 L1437.28 266.397 L1451.12 264.567 L1464.96 262.901 L1478.79 261.648 L1492.63 260.243 L1506.47 258.791 L1520.31 257.774 L1534.15 256.812 L1547.98 255.798 L1561.82 254.701 L1575.66 253.653 L1589.5 252.66 L1603.34 251.893 L1617.17 251.18 L1631.01 250.518 L1644.85 249.869 L1658.69 249.197 L1672.52 248.574 L1686.36 247.982 L1700.2 247.433 L1714.04 246.925 L1727.88 246.455 L1741.71 246.019 L1755.55 245.614 L1769.39 245.322 L1783.23 245.055 L1797.06 244.803 L1810.9 244.568 L1824.74 244.348 L1838.58 244.132 L1852.42 243.898 L1866.25 243.687 L1880.09 243.541 L1893.93 243.406 L1907.77 243.281 L1921.61 243.165 L1935.44 243.052 L1949.28 242.94 L1963.12 242.835 L1976.96 242.736 L1990.79 242.629 L2004.63 242.532 L2018.47 242.442 L2032.31 242.359 L2046.15 242.282 L2059.98 242.217 L2073.82 242.172 L2087.66 242.131 L2101.5 242.092 L2115.33 242.056 L2129.17 242.022 L2143.01 241.989 L2156.85 241.957 L2170.69 241.927 L2184.52 241.899 L2198.36 241.873 L2212.2 241.848 L2226.04 241.824 L2239.87 241.803 L2253.71 241.782 L2267.55 241.764 L2281.39 241.746 L2295.23 241.73 L2309.06 241.716 L2322.9 241.703 L2336.74 241.691 L2350.58 241.681 L2364.42 241.672 L2378.25 241.664 L2392.09 241.657 L2405.93 241.651 L2419.77 241.646 L2433.6 241.641 L2447.44 241.637 L2461.28 241.633 L2475.12 241.63 L2488.96 241.625 L2502.79 241.622 L2516.63 241.618 L2530.47 241.613 L2544.31 241.609 L2558.14 241.604 L2571.98 241.6 L2585.82 241.596 L2599.66 241.592 L2613.5 241.588 L2627.33 241.585 L2641.17 241.581 L2655.01 241.578 L2668.85 241.575 L2682.69 241.572 L2696.52 241.569 L2710.36 241.567 L2724.2 241.565 L2738.04 241.564 L2751.87 241.562 L2765.71 241.562 L2779.55 241.561 L2793.39 241.56 L2807.23 241.56 L2821.06 241.56 L2834.9 241.561 L2848.74 241.561 L2862.58 241.562 L2876.41 241.562 L2890.25 241.563 L2904.09 241.564 L2917.93 241.565 L2931.77 241.565 L2945.6 241.566 L2959.44 241.566 L2973.28 241.566 L2987.12 241.565 L3000.96 241.564 L3014.79 241.564 L3028.63 241.563 L3042.47 241.562 L3056.31 241.561 L3070.14 241.561 L3070.14 195.564 L3056.31 195.565 L3042.47 195.565 L3028.63 195.566 L3014.79 195.567 L3000.96 195.568 L2987.12 195.569 L2973.28 195.57 L2959.44 195.571 L2945.6 195.572 L2931.77 195.573 L2917.93 195.574 L2904.09 195.576 L2890.25 195.577 L2876.41 195.579 L2862.58 195.58 L2848.74 195.582 L2834.9 195.584 L2821.06 195.585 L2807.23 195.584 L2793.39 195.584 L2779.55 195.583 L2765.71 195.582 L2751.87 195.582 L2738.04 195.582 L2724.2 195.583 L2710.36 195.582 L2696.52 195.582 L2682.69 195.583 L2668.85 195.583 L2655.01 195.585 L2641.17 195.587 L2627.33 195.589 L2613.5 195.592 L2599.66 195.596 L2585.82 195.6 L2571.98 195.606 L2558.14 195.611 L2544.31 195.618 L2530.47 195.625 L2516.63 195.633 L2502.79 195.642 L2488.96 195.651 L2475.12 195.661 L2461.28 195.671 L2447.44 195.682 L2433.6 195.69 L2419.77 195.697 L2405.93 195.705 L2392.09 195.713 L2378.25 195.721 L2364.42 195.731 L2350.58 195.741 L2336.74 195.753 L2322.9 195.767 L2309.06 195.782 L2295.23 195.799 L2281.39 195.817 L2267.55 195.838 L2253.71 195.861 L2239.87 195.886 L2226.04 195.913 L2212.2 195.942 L2198.36 195.974 L2184.52 196.009 L2170.69 196.045 L2156.85 196.085 L2143.01 196.126 L2129.17 196.17 L2115.33 196.213 L2101.5 196.258 L2087.66 196.305 L2073.82 196.355 L2059.98 196.409 L2046.15 196.467 L2032.31 196.53 L2018.47 196.6 L2004.63 196.676 L1990.79 196.761 L1976.96 196.854 L1963.12 196.956 L1949.28 197.068 L1935.44 197.196 L1921.61 197.337 L1907.77 197.491 L1893.93 197.656 L1880.09 197.835 L1866.25 198.028 L1852.42 198.234 L1838.58 198.455 L1824.74 198.703 L1810.9 198.999 L1797.06 199.305 L1783.23 199.532 L1769.39 199.777 L1755.55 200.108 L1741.71 200.501 L1727.88 200.926 L1714.04 201.385 L1700.2 201.831 L1686.36 202.29 L1672.52 202.787 L1658.69 203.326 L1644.85 203.907 L1631.01 204.536 L1617.17 205.215 L1603.34 205.946 L1589.5 206.733 L1575.66 207.605 L1561.82 208.581 L1547.98 209.624 L1534.15 210.866 L1520.31 212.156 L1506.47 213.235 L1492.63 214.402 L1478.79 215.672 L1464.96 217.179 L1451.12 218.881 L1437.28 220.908 L1423.44 223.098 L1409.61 225.463 L1395.77 227.68 L1381.93 229.97 L1368.09 232.244 L1354.25 235.041 L1340.42 237.832 L1326.58 241.055 L1312.74 244.635 L1298.9 248.425 L1285.07 252.563 L1271.23 256.904 L1257.39 261.087 L1243.55 265.231 L1229.71 270.46 L1215.88 276.59 L1202.04 283.13 L1188.2 288.911 L1174.36 295.517 L1160.53 302.71 L1146.69 310.281 L1132.85 317.55 L1119.01 326.136 L1105.17 334.777 L1091.34 344.138 L1077.5 353.755 L1063.66 364.312 L1049.82 376.366 L1035.98 389.044 L1022.15 402.022 L1008.31 415.752 L994.471 430.094 L980.633 445.977 L966.796 462.9 L952.958 479.908 L939.12 497.547 L925.282 516.651 L911.444 537.005 L897.606 558.95 L883.769 581.754 L869.931 605.175 L856.093 631.087 L842.255 658.228 L828.417 685.637 L814.58 712.833 L800.742 743.485 L786.904 775.788 L773.066 807.784 L759.228 840.695 L745.39 874.758 L731.553 909.979 L717.715 945.778 L703.877 982.815 L690.039 1020.73 L676.201 1059.47 L662.364 1099.1 L648.526 1139.39 L634.688 1180.75 L620.85 1222.19 L607.012 1263.46 L593.174 1304.99 L579.337 1347.02 L565.499 1388.85 L551.661 1430.57 L537.823 1472.15 L523.985 1513.05 L510.148 1553.61 L496.31 1593.59 L482.472 1632.77 L468.634 1671.28 L454.796 1709 L440.958 1745.91 L427.121 1781.79 L413.283 1816.61 L399.445 1850.3 L385.607 1882.7 L371.769 1913.9 L357.932 1943.91 L344.094 1972.71 L330.256 2000.29 L316.418 2026.65  Z" fill="#e26f46" fill-rule="evenodd" fill-opacity="0.2"/>
<polyline clip-path="url(#clip772)" style="stroke:#e26f46; stroke-linecap:round; stroke-linejoin:round; stroke-width:12; stroke-opacity:1; fill:none" points="316.418,2077.5 330.256,2053.58 344.094,2028.5 357.932,2002.24 371.769,1974.77 385.607,1946.09 399.445,1916.22 413.283,1885.07 427.121,1852.89 440.958,1819.55 454.796,1785.05 468.634,1749.4 482.472,1712.74 496.31,1675.16 510.148,1637.02 523.985,1598.13 537.823,1558.44 551.661,1518.08 565.499,1477.13 579.337,1435.53 593.174,1393.73 607.012,1352.12 620.85,1310.48 634.688,1268.63 648.526,1226.9 662.364,1185.47 676.201,1144.45 690.039,1103.96 703.877,1064.09 717.715,1024.95 731.553,986.403 745.39,949.364 759.228,912.656 773.066,877.049 786.904,842.924 800.742,810.092 814.58,777.923 828.417,746.884 842.255,716.863 856.093,688.489 869.931,660.92 883.769,634.549 897.606,609.614 911.444,586.283 925.282,563.924 939.12,543.138 952.958,523.1 966.796,503.716 980.633,485.932 994.471,468.345 1008.31,451.429 1022.15,436.286 1035.98,421.988 1049.82,408.535 1063.66,395.65 1077.5,383.472 1091.34,372.266 1105.17,362.035 1119.01,352.758 1132.85,344.146 1146.69,335.304 1160.53,327.351 1174.36,320.103 1188.2,313.038 1202.04,306.138 1215.88,300.184 1229.71,294.481 1243.55,288.956 1257.39,284.011 1271.23,279.746 1285.07,275.055 1298.9,270.491 1312.74,266.364 1326.58,262.61 1340.42,258.939 1354.25,256.002 1368.09,253.596 1381.93,250.823 1395.77,248.459 1409.61,246.263 1423.44,244.307 1437.28,242.513 1451.12,240.848 1464.96,239.355 1478.79,237.905 1492.63,236.462 1506.47,235.191 1520.31,234.015 1534.15,232.97 1547.98,232.035 1561.82,231.164 1575.66,230.335 1589.5,229.426 1603.34,228.581 1617.17,227.796 1631.01,227.068 1644.85,226.394 1658.69,225.769 1672.52,225.192 1686.36,224.658 1700.2,224.165 1714.04,223.709 1727.88,223.287 1741.71,222.896 1755.55,222.534 1769.39,222.161 1783.23,221.791 1797.06,221.447 1810.9,221.165 1824.74,220.914 1838.58,220.682 1852.42,220.469 1866.25,220.272 1880.09,220.091 1893.93,219.924 1907.77,219.768 1921.61,219.623 1935.44,219.486 1949.28,219.357 1963.12,219.234 1976.96,219.118 1990.79,219.01 2004.63,218.909 2018.47,218.815 2032.31,218.728 2046.15,218.648 2059.98,218.574 2073.82,218.506 2087.66,218.444 2101.5,218.388 2115.33,218.337 2129.17,218.291 2143.01,218.249 2156.85,218.212 2170.69,218.178 2184.52,218.147 2198.36,218.118 2212.2,218.092 2226.04,218.067 2239.87,218.044 2253.71,218.02 2267.55,217.997 2281.39,217.974 2295.23,217.952 2309.06,217.931 2322.9,217.911 2336.74,217.892 2350.58,217.874 2364.42,217.858 2378.25,217.843 2392.09,217.829 2405.93,217.816 2419.77,217.805 2433.6,217.795 2447.44,217.786 2461.28,217.778 2475.12,217.771 2488.96,217.765 2502.79,217.76 2516.63,217.756 2530.47,217.752 2544.31,217.749 2558.14,217.747 2571.98,217.745 2585.82,217.743 2599.66,217.741 2613.5,217.739 2627.33,217.737 2641.17,217.735 2655.01,217.732 2668.85,217.729 2682.69,217.726 2696.52,217.723 2710.36,217.72 2724.2,217.716 2738.04,217.714 2751.87,217.711 2765.71,217.708 2779.55,217.706 2793.39,217.704 2807.23,217.702 2821.06,217.7 2834.9,217.699 2848.74,217.698 2862.58,217.697 2876.41,217.696 2890.25,217.695 2904.09,217.694 2917.93,217.694 2931.77,217.694 2945.6,217.693 2959.44,217.693 2973.28,217.693 2987.12,217.693 3000.96,217.693 3014.79,217.693 3028.63,217.693 3042.47,217.693 3056.31,217.692 3070.14,217.692 "/>
<path clip-path="url(#clip770)" d="M2663.79 2135.47 L3055.46 2135.47 L3055.46 1979.95 L2663.79 1979.95  Z" fill="#eaeaea" fill-rule="evenodd" fill-opacity="1"/>
<polyline clip-path="url(#clip770)" style="stroke:#ffffff; stroke-linecap:round; stroke-linejoin:round; stroke-width:4; stroke-opacity:1; fill:none" points="2663.79,2135.47 3055.46,2135.47 3055.46,1979.95 2663.79,1979.95 2663.79,2135.47 "/>
<polyline clip-path="url(#clip770)" style="stroke:#009af9; stroke-linecap:round; stroke-linejoin:round; stroke-width:12; stroke-opacity:1; fill:none" points="2696.23,2031.79 2890.82,2031.79 "/>
<path clip-path="url(#clip770)" d="M2925.48 2048.35 L2925.48 2044.09 Q2927.24 2044.92 2929.04 2045.36 Q2930.85 2045.8 2932.59 2045.8 Q2937.22 2045.8 2939.65 2042.7 Q2942.1 2039.58 2942.45 2033.23 Q2941.1 2035.22 2939.04 2036.29 Q2936.98 2037.35 2934.48 2037.35 Q2929.3 2037.35 2926.27 2034.23 Q2923.26 2031.08 2923.26 2025.64 Q2923.26 2020.32 2926.4 2017.1 Q2929.55 2013.88 2934.78 2013.88 Q2940.78 2013.88 2943.93 2018.49 Q2947.1 2023.07 2947.1 2031.82 Q2947.1 2039.99 2943.21 2044.88 Q2939.34 2049.74 2932.79 2049.74 Q2931.03 2049.74 2929.23 2049.39 Q2927.42 2049.04 2925.48 2048.35 M2934.78 2033.7 Q2937.93 2033.7 2939.76 2031.54 Q2941.61 2029.39 2941.61 2025.64 Q2941.61 2021.91 2939.76 2019.76 Q2937.93 2017.58 2934.78 2017.58 Q2931.64 2017.58 2929.78 2019.76 Q2927.96 2021.91 2927.96 2025.64 Q2927.96 2029.39 2929.78 2031.54 Q2931.64 2033.7 2934.78 2033.7 Z" fill="#000000" fill-rule="nonzero" fill-opacity="1" /><path clip-path="url(#clip770)" d="M2955.55 2014.51 L2973.9 2014.51 L2973.9 2018.44 L2959.83 2018.44 L2959.83 2026.91 Q2960.85 2026.57 2961.87 2026.4 Q2962.89 2026.22 2963.9 2026.22 Q2969.69 2026.22 2973.07 2029.39 Q2976.45 2032.56 2976.45 2037.98 Q2976.45 2043.56 2972.98 2046.66 Q2969.51 2049.74 2963.19 2049.74 Q2961.01 2049.74 2958.74 2049.37 Q2956.5 2049 2954.09 2048.26 L2954.09 2043.56 Q2956.17 2044.69 2958.4 2045.25 Q2960.62 2045.8 2963.09 2045.8 Q2967.1 2045.8 2969.44 2043.7 Q2971.78 2041.59 2971.78 2037.98 Q2971.78 2034.37 2969.44 2032.26 Q2967.1 2030.15 2963.09 2030.15 Q2961.22 2030.15 2959.34 2030.57 Q2957.49 2030.99 2955.55 2031.87 L2955.55 2014.51 Z" fill="#000000" fill-rule="nonzero" fill-opacity="1" /><path clip-path="url(#clip770)" d="M3015.06 2033.86 Q3013.05 2033.86 3011.89 2035.57 Q3010.76 2037.28 3010.76 2040.34 Q3010.76 2043.35 3011.89 2045.08 Q3013.05 2046.8 3015.06 2046.8 Q3017.03 2046.8 3018.16 2045.08 Q3019.32 2043.35 3019.32 2040.34 Q3019.32 2037.31 3018.16 2035.59 Q3017.03 2033.86 3015.06 2033.86 M3015.06 2030.92 Q3018.72 2030.92 3020.87 2033.46 Q3023.02 2036.01 3023.02 2040.34 Q3023.02 2044.67 3020.85 2047.21 Q3018.7 2049.74 3015.06 2049.74 Q3011.36 2049.74 3009.21 2047.21 Q3007.05 2044.67 3007.05 2040.34 Q3007.05 2035.99 3009.21 2033.46 Q3011.38 2030.92 3015.06 2030.92 M2991.17 2016.82 Q2989.18 2016.82 2988.02 2018.56 Q2986.89 2020.27 2986.89 2023.28 Q2986.89 2026.33 2988.02 2028.05 Q2989.16 2029.76 2991.17 2029.76 Q2993.19 2029.76 2994.32 2028.05 Q2995.48 2026.33 2995.48 2023.28 Q2995.48 2020.29 2994.32 2018.56 Q2993.16 2016.82 2991.17 2016.82 M3012.08 2013.88 L3015.78 2013.88 L2994.16 2049.74 L2990.46 2049.74 L3012.08 2013.88 M2991.17 2013.88 Q2994.83 2013.88 2997.01 2016.43 Q2999.18 2018.95 2999.18 2023.28 Q2999.18 2027.65 2997.01 2030.18 Q2994.85 2032.7 2991.17 2032.7 Q2987.49 2032.7 2985.34 2030.18 Q2983.21 2027.63 2983.21 2023.28 Q2983.21 2018.97 2985.36 2016.43 Q2987.52 2013.88 2991.17 2013.88 Z" fill="#000000" fill-rule="nonzero" fill-opacity="1" /><polyline clip-path="url(#clip770)" style="stroke:#e26f46; stroke-linecap:round; stroke-linejoin:round; stroke-width:12; stroke-opacity:1; fill:none" points="2696.23,2083.63 2890.82,2083.63 "/>
<path clip-path="url(#clip770)" d="M2935.59 2081.76 Q2932.45 2081.76 2930.59 2083.92 Q2928.77 2086.07 2928.77 2089.82 Q2928.77 2093.55 2930.59 2095.72 Q2932.45 2097.87 2935.59 2097.87 Q2938.74 2097.87 2940.57 2095.72 Q2942.42 2093.55 2942.42 2089.82 Q2942.42 2086.07 2940.57 2083.92 Q2938.74 2081.76 2935.59 2081.76 M2944.88 2067.11 L2944.88 2071.37 Q2943.12 2070.54 2941.31 2070.1 Q2939.53 2069.66 2937.77 2069.66 Q2933.14 2069.66 2930.69 2072.78 Q2928.26 2075.91 2927.91 2082.23 Q2929.28 2080.21 2931.34 2079.15 Q2933.4 2078.06 2935.87 2078.06 Q2941.08 2078.06 2944.09 2081.23 Q2947.12 2084.38 2947.12 2089.82 Q2947.12 2095.14 2943.97 2098.36 Q2940.83 2101.58 2935.59 2101.58 Q2929.6 2101.58 2926.43 2096.99 Q2923.26 2092.39 2923.26 2083.66 Q2923.26 2075.47 2927.15 2070.61 Q2931.03 2065.72 2937.59 2065.72 Q2939.34 2065.72 2941.13 2066.07 Q2942.93 2066.42 2944.88 2067.11 Z" fill="#000000" fill-rule="nonzero" fill-opacity="1" /><path clip-path="url(#clip770)" d="M2965.18 2084.49 Q2961.84 2084.49 2959.92 2086.28 Q2958.03 2088.06 2958.03 2091.18 Q2958.03 2094.31 2959.92 2096.09 Q2961.84 2097.87 2965.18 2097.87 Q2968.51 2097.87 2970.43 2096.09 Q2972.35 2094.29 2972.35 2091.18 Q2972.35 2088.06 2970.43 2086.28 Q2968.53 2084.49 2965.18 2084.49 M2960.5 2082.5 Q2957.49 2081.76 2955.8 2079.7 Q2954.14 2077.64 2954.14 2074.68 Q2954.14 2070.54 2957.08 2068.13 Q2960.04 2065.72 2965.18 2065.72 Q2970.34 2065.72 2973.28 2068.13 Q2976.22 2070.54 2976.22 2074.68 Q2976.22 2077.64 2974.53 2079.7 Q2972.86 2081.76 2969.88 2082.5 Q2973.26 2083.29 2975.13 2085.58 Q2977.03 2087.87 2977.03 2091.18 Q2977.03 2096.21 2973.95 2098.89 Q2970.9 2101.58 2965.18 2101.58 Q2959.46 2101.58 2956.38 2098.89 Q2953.33 2096.21 2953.33 2091.18 Q2953.33 2087.87 2955.22 2085.58 Q2957.12 2083.29 2960.5 2082.5 M2958.79 2075.12 Q2958.79 2077.8 2960.46 2079.31 Q2962.15 2080.81 2965.18 2080.81 Q2968.19 2080.81 2969.88 2079.31 Q2971.59 2077.8 2971.59 2075.12 Q2971.59 2072.43 2969.88 2070.93 Q2968.19 2069.42 2965.18 2069.42 Q2962.15 2069.42 2960.46 2070.93 Q2958.79 2072.43 2958.79 2075.12 Z" fill="#000000" fill-rule="nonzero" fill-opacity="1" /><path clip-path="url(#clip770)" d="M3014.74 2085.7 Q3012.72 2085.7 3011.57 2087.41 Q3010.43 2089.12 3010.43 2092.18 Q3010.43 2095.19 3011.57 2096.92 Q3012.72 2098.64 3014.74 2098.64 Q3016.71 2098.64 3017.84 2096.92 Q3019 2095.19 3019 2092.18 Q3019 2089.15 3017.84 2087.43 Q3016.71 2085.7 3014.74 2085.7 M3014.74 2082.76 Q3018.4 2082.76 3020.55 2085.3 Q3022.7 2087.85 3022.7 2092.18 Q3022.7 2096.51 3020.52 2099.05 Q3018.37 2101.58 3014.74 2101.58 Q3011.03 2101.58 3008.88 2099.05 Q3006.73 2096.51 3006.73 2092.18 Q3006.73 2087.83 3008.88 2085.3 Q3011.06 2082.76 3014.74 2082.76 M2990.85 2068.66 Q2988.86 2068.66 2987.7 2070.4 Q2986.57 2072.11 2986.57 2075.12 Q2986.57 2078.17 2987.7 2079.89 Q2988.84 2081.6 2990.85 2081.6 Q2992.86 2081.6 2994 2079.89 Q2995.15 2078.17 2995.15 2075.12 Q2995.15 2072.13 2994 2070.4 Q2992.84 2068.66 2990.85 2068.66 M3011.75 2065.72 L3015.46 2065.72 L2993.84 2101.58 L2990.13 2101.58 L3011.75 2065.72 M2990.85 2065.72 Q2994.51 2065.72 2996.68 2068.27 Q2998.86 2070.79 2998.86 2075.12 Q2998.86 2079.49 2996.68 2082.02 Q2994.53 2084.54 2990.85 2084.54 Q2987.17 2084.54 2985.02 2082.02 Q2982.89 2079.47 2982.89 2075.12 Q2982.89 2070.81 2985.04 2068.27 Q2987.19 2065.72 2990.85 2065.72 Z" fill="#000000" fill-rule="nonzero" fill-opacity="1" /></svg>
