<?xml version="1.0" encoding="utf-8"?>
<svg xmlns="http://www.w3.org/2000/svg" xmlns:xlink="http://www.w3.org/1999/xlink" width="800" height="600" viewBox="0 0 3200 2400">
<defs>
  <clipPath id="clip640">
    <rect x="0" y="0" width="3200" height="2400"/>
  </clipPath>
</defs>
<path clip-path="url(#clip640)" d="M0 2400 L3200 2400 L3200 0 L0 0  Z" fill="#ffffff" fill-rule="evenodd" fill-opacity="1"/>
<defs>
  <clipPath id="clip641">
    <rect x="640" y="0" width="2241" height="2241"/>
  </clipPath>
</defs>
<path clip-path="url(#clip640)" d="M233.806 2204.92 L3152.76 2204.92 L3152.76 121.312 L233.806 121.312  Z" fill="#eaeaea" fill-rule="evenodd" fill-opacity="1"/>
<defs>
  <clipPath id="clip642">
    <rect x="233" y="121" width="2920" height="2085"/>
  </clipPath>
</defs>
<polyline clip-path="url(#clip642)" style="stroke:#ffffff; stroke-linecap:round; stroke-linejoin:round; stroke-width:4; stroke-opacity:1; fill:none" points="316.418,2204.92 316.418,121.312 "/>
<polyline clip-path="url(#clip642)" style="stroke:#ffffff; stroke-linecap:round; stroke-linejoin:round; stroke-width:4; stroke-opacity:1; fill:none" points="867.163,2204.92 867.163,121.312 "/>
<polyline clip-path="url(#clip642)" style="stroke:#ffffff; stroke-linecap:round; stroke-linejoin:round; stroke-width:4; stroke-opacity:1; fill:none" points="1417.91,2204.92 1417.91,121.312 "/>
<polyline clip-path="url(#clip642)" style="stroke:#ffffff; stroke-linecap:round; stroke-linejoin:round; stroke-width:4; stroke-opacity:1; fill:none" points="1968.65,2204.92 1968.65,121.312 "/>
<polyline clip-path="url(#clip642)" style="stroke:#ffffff; stroke-linecap:round; stroke-linejoin:round; stroke-width:4; stroke-opacity:1; fill:none" points="2519.4,2204.92 2519.4,121.312 "/>
<polyline clip-path="url(#clip642)" style="stroke:#ffffff; stroke-linecap:round; stroke-linejoin:round; stroke-width:4; stroke-opacity:1; fill:none" points="3070.14,2204.92 3070.14,121.312 "/>
<polyline clip-path="url(#clip642)" style="stroke:#ffffff; stroke-linecap:round; stroke-linejoin:round; stroke-width:2; stroke-opacity:1; fill:none" points="591.791,2204.92 591.791,121.312 "/>
<polyline clip-path="url(#clip642)" style="stroke:#ffffff; stroke-linecap:round; stroke-linejoin:round; stroke-width:2; stroke-opacity:1; fill:none" points="1142.54,2204.92 1142.54,121.312 "/>
<polyline clip-path="url(#clip642)" style="stroke:#ffffff; stroke-linecap:round; stroke-linejoin:round; stroke-width:2; stroke-opacity:1; fill:none" points="1693.28,2204.92 1693.28,121.312 "/>
<polyline clip-path="url(#clip642)" style="stroke:#ffffff; stroke-linecap:round; stroke-linejoin:round; stroke-width:2; stroke-opacity:1; fill:none" points="2244.03,2204.92 2244.03,121.312 "/>
<polyline clip-path="url(#clip642)" style="stroke:#ffffff; stroke-linecap:round; stroke-linejoin:round; stroke-width:2; stroke-opacity:1; fill:none" points="2794.77,2204.92 2794.77,121.312 "/>
<polyline clip-path="url(#clip640)" style="stroke:#ffffff; stroke-linecap:round; stroke-linejoin:round; stroke-width:4; stroke-opacity:1; fill:none" points="233.806,2204.92 3152.76,2204.92 "/>
<polyline clip-path="url(#clip640)" style="stroke:#333333; stroke-linecap:round; stroke-linejoin:round; stroke-width:4; stroke-opacity:1; fill:none" points="316.418,2204.92 316.418,2223.82 "/>
<polyline clip-path="url(#clip640)" style="stroke:#333333; stroke-linecap:round; stroke-linejoin:round; stroke-width:4; stroke-opacity:1; fill:none" points="867.163,2204.92 867.163,2223.82 "/>
<polyline clip-path="url(#clip640)" style="stroke:#333333; stroke-linecap:round; stroke-linejoin:round; stroke-width:4; stroke-opacity:1; fill:none" points="1417.91,2204.92 1417.91,2223.82 "/>
<polyline clip-path="url(#clip640)" style="stroke:#333333; stroke-linecap:round; stroke-linejoin:round; stroke-width:4; stroke-opacity:1; fill:none" points="1968.65,2204.92 1968.65,2223.82 "/>
<polyline clip-path="url(#clip640)" style="stroke:#333333; stroke-linecap:round; stroke-linejoin:round; stroke-width:4; stroke-opacity:1; fill:none" points="2519.4,2204.92 2519.4,2223.82 "/>
<polyline clip-path="url(#clip640)" style="stroke:#333333; stroke-linecap:round; stroke-linejoin:round; stroke-width:4; stroke-opacity:1; fill:none" points="3070.14,2204.92 3070.14,2223.82 "/>
<polyline clip-path="url(#clip640)" style="stroke:#333333; stroke-linecap:round; stroke-linejoin:round; stroke-width:4; stroke-opacity:1; fill:none" points="591.791,2204.92 591.791,2214.37 "/>
<polyline clip-path="url(#clip640)" style="stroke:#333333; stroke-linecap:round; stroke-linejoin:round; stroke-width:4; stroke-opacity:1; fill:none" points="1142.54,2204.92 1142.54,2214.37 "/>
<polyline clip-path="url(#clip640)" style="stroke:#333333; stroke-linecap:round; stroke-linejoin:round; stroke-width:4; stroke-opacity:1; fill:none" points="1693.28,2204.92 1693.28,2214.37 "/>
<polyline clip-path="url(#clip640)" style="stroke:#333333; stroke-linecap:round; stroke-linejoin:round; stroke-width:4; stroke-opacity:1; fill:none" points="2244.03,2204.92 2244.03,2214.37 "/>
<polyline clip-path="url(#clip640)" style="stroke:#333333; stroke-linecap:round; stroke-linejoin:round; stroke-width:4; stroke-opacity:1; fill:none" points="2794.77,2204.92 2794.77,2214.37 "/>
<path clip-path="url(#clip640)" d="M316.418 2255.04 Q312.807 2255.04 310.978 2258.6 Q309.173 2262.14 309.173 2269.27 Q309.173 2276.38 310.978 2279.95 Q312.807 2283.49 316.418 2283.49 Q320.052 2283.49 321.858 2279.95 Q323.687 2276.38 323.687 2269.27 Q323.687 2262.14 321.858 2258.6 Q320.052 2255.04 316.418 2255.04 M316.418 2251.33 Q322.228 2251.33 325.284 2255.94 Q328.362 2260.52 328.362 2269.27 Q328.362 2278 325.284 2282.61 Q322.228 2287.19 316.418 2287.19 Q310.608 2287.19 307.529 2282.61 Q304.474 2278 304.474 2269.27 Q304.474 2260.52 307.529 2255.94 Q310.608 2251.33 316.418 2251.33 Z" fill="#4c4c4c" fill-rule="nonzero" fill-opacity="1" /><path clip-path="url(#clip640)" d="M857.545 2282.58 L865.184 2282.58 L865.184 2256.22 L856.874 2257.89 L856.874 2253.63 L865.138 2251.96 L869.814 2251.96 L869.814 2282.58 L877.453 2282.58 L877.453 2286.52 L857.545 2286.52 L857.545 2282.58 Z" fill="#4c4c4c" fill-rule="nonzero" fill-opacity="1" /><path clip-path="url(#clip640)" d="M1412.56 2282.58 L1428.88 2282.58 L1428.88 2286.52 L1406.94 2286.52 L1406.94 2282.58 Q1409.6 2279.83 1414.18 2275.2 Q1418.79 2270.55 1419.97 2269.21 Q1422.21 2266.68 1423.09 2264.95 Q1424 2263.19 1424 2261.5 Q1424 2258.74 1422.05 2257.01 Q1420.13 2255.27 1417.03 2255.27 Q1414.83 2255.27 1412.38 2256.03 Q1409.95 2256.8 1407.17 2258.35 L1407.17 2253.63 Q1409.99 2252.49 1412.45 2251.91 Q1414.9 2251.33 1416.94 2251.33 Q1422.31 2251.33 1425.5 2254.02 Q1428.7 2256.71 1428.7 2261.2 Q1428.7 2263.33 1427.89 2265.25 Q1427.1 2267.14 1424.99 2269.74 Q1424.41 2270.41 1421.31 2273.63 Q1418.21 2276.82 1412.56 2282.58 Z" fill="#4c4c4c" fill-rule="nonzero" fill-opacity="1" /><path clip-path="url(#clip640)" d="M1972.9 2267.89 Q1976.26 2268.6 1978.13 2270.87 Q1980.03 2273.14 1980.03 2276.47 Q1980.03 2281.59 1976.51 2284.39 Q1972.99 2287.19 1966.51 2287.19 Q1964.34 2287.19 1962.02 2286.75 Q1959.73 2286.33 1957.28 2285.48 L1957.28 2280.96 Q1959.22 2282.1 1961.54 2282.68 Q1963.85 2283.26 1966.37 2283.26 Q1970.77 2283.26 1973.06 2281.52 Q1975.38 2279.78 1975.38 2276.47 Q1975.38 2273.42 1973.23 2271.71 Q1971.1 2269.97 1967.28 2269.97 L1963.25 2269.97 L1963.25 2266.13 L1967.46 2266.13 Q1970.91 2266.13 1972.74 2264.76 Q1974.57 2263.37 1974.57 2260.78 Q1974.57 2258.12 1972.67 2256.71 Q1970.79 2255.27 1967.28 2255.27 Q1965.36 2255.27 1963.16 2255.69 Q1960.96 2256.1 1958.32 2256.98 L1958.32 2252.82 Q1960.98 2252.08 1963.29 2251.71 Q1965.63 2251.33 1967.69 2251.33 Q1973.02 2251.33 1976.12 2253.77 Q1979.22 2256.17 1979.22 2260.29 Q1979.22 2263.16 1977.58 2265.15 Q1975.93 2267.12 1972.9 2267.89 Z" fill="#4c4c4c" fill-rule="nonzero" fill-opacity="1" /><path clip-path="url(#clip640)" d="M2522.41 2256.03 L2510.6 2274.48 L2522.41 2274.48 L2522.41 2256.03 M2521.18 2251.96 L2527.06 2251.96 L2527.06 2274.48 L2531.99 2274.48 L2531.99 2278.37 L2527.06 2278.37 L2527.06 2286.52 L2522.41 2286.52 L2522.41 2278.37 L2506.81 2278.37 L2506.81 2273.86 L2521.18 2251.96 Z" fill="#4c4c4c" fill-rule="nonzero" fill-opacity="1" /><path clip-path="url(#clip640)" d="M3060.42 2251.96 L3078.78 2251.96 L3078.78 2255.9 L3064.7 2255.9 L3064.7 2264.37 Q3065.72 2264.02 3066.74 2263.86 Q3067.76 2263.67 3068.78 2263.67 Q3074.57 2263.67 3077.95 2266.84 Q3081.32 2270.02 3081.32 2275.43 Q3081.32 2281.01 3077.85 2284.11 Q3074.38 2287.19 3068.06 2287.19 Q3065.88 2287.19 3063.62 2286.82 Q3061.37 2286.45 3058.96 2285.71 L3058.96 2281.01 Q3061.05 2282.14 3063.27 2282.7 Q3065.49 2283.26 3067.97 2283.26 Q3071.97 2283.26 3074.31 2281.15 Q3076.65 2279.04 3076.65 2275.43 Q3076.65 2271.82 3074.31 2269.71 Q3071.97 2267.61 3067.97 2267.61 Q3066.09 2267.61 3064.22 2268.02 Q3062.37 2268.44 3060.42 2269.32 L3060.42 2251.96 Z" fill="#4c4c4c" fill-rule="nonzero" fill-opacity="1" /><path clip-path="url(#clip640)" d="M1692.34 2316.01 L1692.34 2326.14 L1704.41 2326.14 L1704.41 2330.69 L1692.34 2330.69 L1692.34 2350.04 Q1692.34 2354.4 1693.52 2355.64 Q1694.73 2356.88 1698.39 2356.88 L1704.41 2356.88 L1704.41 2361.78 L1698.39 2361.78 Q1691.61 2361.78 1689.03 2359.27 Q1686.45 2356.72 1686.45 2350.04 L1686.45 2330.69 L1682.16 2330.69 L1682.16 2326.14 L1686.45 2326.14 L1686.45 2316.01 L1692.34 2316.01 Z" fill="#000000" fill-rule="nonzero" fill-opacity="1" /><polyline clip-path="url(#clip642)" style="stroke:#ffffff; stroke-linecap:round; stroke-linejoin:round; stroke-width:4; stroke-opacity:1; fill:none" points="233.806,2154.26 3152.76,2154.26 "/>
<polyline clip-path="url(#clip642)" style="stroke:#ffffff; stroke-linecap:round; stroke-linejoin:round; stroke-width:4; stroke-opacity:1; fill:none" points="233.806,1855.86 3152.76,1855.86 "/>
<polyline clip-path="url(#clip642)" style="stroke:#ffffff; stroke-linecap:round; stroke-linejoin:round; stroke-width:4; stroke-opacity:1; fill:none" points="233.806,1557.47 3152.76,1557.47 "/>
<polyline clip-path="url(#clip642)" style="stroke:#ffffff; stroke-linecap:round; stroke-linejoin:round; stroke-width:4; stroke-opacity:1; fill:none" points="233.806,1259.07 3152.76,1259.07 "/>
<polyline clip-path="url(#clip642)" style="stroke:#ffffff; stroke-linecap:round; stroke-linejoin:round; stroke-width:4; stroke-opacity:1; fill:none" points="233.806,960.67 3152.76,960.67 "/>
<polyline clip-path="url(#clip642)" style="stroke:#ffffff; stroke-linecap:round; stroke-linejoin:round; stroke-width:4; stroke-opacity:1; fill:none" points="233.806,662.271 3152.76,662.271 "/>
<polyline clip-path="url(#clip642)" style="stroke:#ffffff; stroke-linecap:round; stroke-linejoin:round; stroke-width:4; stroke-opacity:1; fill:none" points="233.806,363.873 3152.76,363.873 "/>
<polyline clip-path="url(#clip642)" style="stroke:#ffffff; stroke-linecap:round; stroke-linejoin:round; stroke-width:2; stroke-opacity:1; fill:none" points="233.806,2005.06 3152.76,2005.06 "/>
<polyline clip-path="url(#clip642)" style="stroke:#ffffff; stroke-linecap:round; stroke-linejoin:round; stroke-width:2; stroke-opacity:1; fill:none" points="233.806,1706.67 3152.76,1706.67 "/>
<polyline clip-path="url(#clip642)" style="stroke:#ffffff; stroke-linecap:round; stroke-linejoin:round; stroke-width:2; stroke-opacity:1; fill:none" points="233.806,1408.27 3152.76,1408.27 "/>
<polyline clip-path="url(#clip642)" style="stroke:#ffffff; stroke-linecap:round; stroke-linejoin:round; stroke-width:2; stroke-opacity:1; fill:none" points="233.806,1109.87 3152.76,1109.87 "/>
<polyline clip-path="url(#clip642)" style="stroke:#ffffff; stroke-linecap:round; stroke-linejoin:round; stroke-width:2; stroke-opacity:1; fill:none" points="233.806,811.471 3152.76,811.471 "/>
<polyline clip-path="url(#clip642)" style="stroke:#ffffff; stroke-linecap:round; stroke-linejoin:round; stroke-width:2; stroke-opacity:1; fill:none" points="233.806,513.072 3152.76,513.072 "/>
<polyline clip-path="url(#clip642)" style="stroke:#ffffff; stroke-linecap:round; stroke-linejoin:round; stroke-width:2; stroke-opacity:1; fill:none" points="233.806,214.674 3152.76,214.674 "/>
<polyline clip-path="url(#clip640)" style="stroke:#ffffff; stroke-linecap:round; stroke-linejoin:round; stroke-width:4; stroke-opacity:1; fill:none" points="233.806,2204.92 233.806,121.312 "/>
<polyline clip-path="url(#clip640)" style="stroke:#333333; stroke-linecap:round; stroke-linejoin:round; stroke-width:4; stroke-opacity:1; fill:none" points="233.806,2154.26 214.909,2154.26 "/>
<polyline clip-path="url(#clip640)" style="stroke:#333333; stroke-linecap:round; stroke-linejoin:round; stroke-width:4; stroke-opacity:1; fill:none" points="233.806,1855.86 214.909,1855.86 "/>
<polyline clip-path="url(#clip640)" style="stroke:#333333; stroke-linecap:round; stroke-linejoin:round; stroke-width:4; stroke-opacity:1; fill:none" points="233.806,1557.47 214.909,1557.47 "/>
<polyline clip-path="url(#clip640)" style="stroke:#333333; stroke-linecap:round; stroke-linejoin:round; stroke-width:4; stroke-opacity:1; fill:none" points="233.806,1259.07 214.909,1259.07 "/>
<polyline clip-path="url(#clip640)" style="stroke:#333333; stroke-linecap:round; stroke-linejoin:round; stroke-width:4; stroke-opacity:1; fill:none" points="233.806,960.67 214.909,960.67 "/>
<polyline clip-path="url(#clip640)" style="stroke:#333333; stroke-linecap:round; stroke-linejoin:round; stroke-width:4; stroke-opacity:1; fill:none" points="233.806,662.271 214.909,662.271 "/>
<polyline clip-path="url(#clip640)" style="stroke:#333333; stroke-linecap:round; stroke-linejoin:round; stroke-width:4; stroke-opacity:1; fill:none" points="233.806,363.873 214.909,363.873 "/>
<polyline clip-path="url(#clip640)" style="stroke:#333333; stroke-linecap:round; stroke-linejoin:round; stroke-width:4; stroke-opacity:1; fill:none" points="233.806,2005.06 224.357,2005.06 "/>
<polyline clip-path="url(#clip640)" style="stroke:#333333; stroke-linecap:round; stroke-linejoin:round; stroke-width:4; stroke-opacity:1; fill:none" points="233.806,1706.67 224.357,1706.67 "/>
<polyline clip-path="url(#clip640)" style="stroke:#333333; stroke-linecap:round; stroke-linejoin:round; stroke-width:4; stroke-opacity:1; fill:none" points="233.806,1408.27 224.357,1408.27 "/>
<polyline clip-path="url(#clip640)" style="stroke:#333333; stroke-linecap:round; stroke-linejoin:round; stroke-width:4; stroke-opacity:1; fill:none" points="233.806,1109.87 224.357,1109.87 "/>
<polyline clip-path="url(#clip640)" style="stroke:#333333; stroke-linecap:round; stroke-linejoin:round; stroke-width:4; stroke-opacity:1; fill:none" points="233.806,811.471 224.357,811.471 "/>
<polyline clip-path="url(#clip640)" style="stroke:#333333; stroke-linecap:round; stroke-linejoin:round; stroke-width:4; stroke-opacity:1; fill:none" points="233.806,513.072 224.357,513.072 "/>
<polyline clip-path="url(#clip640)" style="stroke:#333333; stroke-linecap:round; stroke-linejoin:round; stroke-width:4; stroke-opacity:1; fill:none" points="233.806,214.674 224.357,214.674 "/>
<path clip-path="url(#clip640)" d="M106.228 2140.06 Q102.617 2140.06 100.788 2143.63 Q98.9825 2147.17 98.9825 2154.3 Q98.9825 2161.4 100.788 2164.97 Q102.617 2168.51 106.228 2168.51 Q109.862 2168.51 111.668 2164.97 Q113.496 2161.4 113.496 2154.3 Q113.496 2147.17 111.668 2143.63 Q109.862 2140.06 106.228 2140.06 M106.228 2136.36 Q112.038 2136.36 115.094 2140.96 Q118.172 2145.55 118.172 2154.3 Q118.172 2163.02 115.094 2167.63 Q112.038 2172.21 106.228 2172.21 Q100.418 2172.21 97.339 2167.63 Q94.2835 2163.02 94.2835 2154.3 Q94.2835 2145.55 97.339 2140.96 Q100.418 2136.36 106.228 2136.36 Z" fill="#4c4c4c" fill-rule="nonzero" fill-opacity="1" /><path clip-path="url(#clip640)" d="M126.39 2165.66 L131.274 2165.66 L131.274 2171.54 L126.39 2171.54 L126.39 2165.66 Z" fill="#4c4c4c" fill-rule="nonzero" fill-opacity="1" /><path clip-path="url(#clip640)" d="M145.487 2167.61 L161.806 2167.61 L161.806 2171.54 L139.862 2171.54 L139.862 2167.61 Q142.524 2164.85 147.107 2160.22 Q151.714 2155.57 152.894 2154.23 Q155.14 2151.7 156.019 2149.97 Q156.922 2148.21 156.922 2146.52 Q156.922 2143.77 154.978 2142.03 Q153.056 2140.29 149.954 2140.29 Q147.755 2140.29 145.302 2141.06 Q142.871 2141.82 140.093 2143.37 L140.093 2138.65 Q142.917 2137.52 145.371 2136.94 Q147.825 2136.36 149.862 2136.36 Q155.232 2136.36 158.427 2139.04 Q161.621 2141.73 161.621 2146.22 Q161.621 2148.35 160.811 2150.27 Q160.024 2152.17 157.917 2154.76 Q157.339 2155.43 154.237 2158.65 Q151.135 2161.84 145.487 2167.61 Z" fill="#4c4c4c" fill-rule="nonzero" fill-opacity="1" /><path clip-path="url(#clip640)" d="M104.145 1841.66 Q100.533 1841.66 98.7048 1845.23 Q96.8992 1848.77 96.8992 1855.9 Q96.8992 1863.01 98.7048 1866.57 Q100.533 1870.11 104.145 1870.11 Q107.779 1870.11 109.584 1866.57 Q111.413 1863.01 111.413 1855.9 Q111.413 1848.77 109.584 1845.23 Q107.779 1841.66 104.145 1841.66 M104.145 1837.96 Q109.955 1837.96 113.01 1842.57 Q116.089 1847.15 116.089 1855.9 Q116.089 1864.63 113.01 1869.23 Q109.955 1873.82 104.145 1873.82 Q98.3344 1873.82 95.2557 1869.23 Q92.2002 1864.63 92.2002 1855.9 Q92.2002 1847.15 95.2557 1842.57 Q98.3344 1837.96 104.145 1837.96 Z" fill="#4c4c4c" fill-rule="nonzero" fill-opacity="1" /><path clip-path="url(#clip640)" d="M124.306 1867.26 L129.191 1867.26 L129.191 1873.14 L124.306 1873.14 L124.306 1867.26 Z" fill="#4c4c4c" fill-rule="nonzero" fill-opacity="1" /><path clip-path="url(#clip640)" d="M152.223 1842.66 L140.417 1861.11 L152.223 1861.11 L152.223 1842.66 M150.996 1838.58 L156.876 1838.58 L156.876 1861.11 L161.806 1861.11 L161.806 1865 L156.876 1865 L156.876 1873.14 L152.223 1873.14 L152.223 1865 L136.621 1865 L136.621 1860.48 L150.996 1838.58 Z" fill="#4c4c4c" fill-rule="nonzero" fill-opacity="1" /><path clip-path="url(#clip640)" d="M104.469 1543.26 Q100.858 1543.26 99.0288 1546.83 Q97.2233 1550.37 97.2233 1557.5 Q97.2233 1564.61 99.0288 1568.17 Q100.858 1571.71 104.469 1571.71 Q108.103 1571.71 109.908 1568.17 Q111.737 1564.61 111.737 1557.5 Q111.737 1550.37 109.908 1546.83 Q108.103 1543.26 104.469 1543.26 M104.469 1539.56 Q110.279 1539.56 113.334 1544.17 Q116.413 1548.75 116.413 1557.5 Q116.413 1566.23 113.334 1570.83 Q110.279 1575.42 104.469 1575.42 Q98.6585 1575.42 95.5798 1570.83 Q92.5242 1566.23 92.5242 1557.5 Q92.5242 1548.75 95.5798 1544.17 Q98.6585 1539.56 104.469 1539.56 Z" fill="#4c4c4c" fill-rule="nonzero" fill-opacity="1" /><path clip-path="url(#clip640)" d="M124.631 1568.87 L129.515 1568.87 L129.515 1574.75 L124.631 1574.75 L124.631 1568.87 Z" fill="#4c4c4c" fill-rule="nonzero" fill-opacity="1" /><path clip-path="url(#clip640)" d="M150.279 1555.6 Q147.13 1555.6 145.279 1557.76 Q143.45 1559.91 143.45 1563.66 Q143.45 1567.39 145.279 1569.56 Q147.13 1571.71 150.279 1571.71 Q153.427 1571.71 155.255 1569.56 Q157.107 1567.39 157.107 1563.66 Q157.107 1559.91 155.255 1557.76 Q153.427 1555.6 150.279 1555.6 M159.561 1540.95 L159.561 1545.21 Q157.802 1544.38 155.996 1543.94 Q154.214 1543.5 152.454 1543.5 Q147.825 1543.5 145.371 1546.62 Q142.941 1549.75 142.593 1556.07 Q143.959 1554.05 146.019 1552.99 Q148.079 1551.9 150.556 1551.9 Q155.765 1551.9 158.774 1555.07 Q161.806 1558.22 161.806 1563.66 Q161.806 1568.98 158.658 1572.2 Q155.51 1575.42 150.279 1575.42 Q144.283 1575.42 141.112 1570.83 Q137.941 1566.23 137.941 1557.5 Q137.941 1549.31 141.83 1544.45 Q145.718 1539.56 152.269 1539.56 Q154.029 1539.56 155.811 1539.91 Q157.616 1540.26 159.561 1540.95 Z" fill="#4c4c4c" fill-rule="nonzero" fill-opacity="1" /><path clip-path="url(#clip640)" d="M104.723 1244.87 Q101.112 1244.87 99.2835 1248.43 Q97.4779 1251.97 97.4779 1259.1 Q97.4779 1266.21 99.2835 1269.77 Q101.112 1273.32 104.723 1273.32 Q108.357 1273.32 110.163 1269.77 Q111.992 1266.21 111.992 1259.1 Q111.992 1251.97 110.163 1248.43 Q108.357 1244.87 104.723 1244.87 M104.723 1241.16 Q110.533 1241.16 113.589 1245.77 Q116.668 1250.35 116.668 1259.1 Q116.668 1267.83 113.589 1272.44 Q110.533 1277.02 104.723 1277.02 Q98.9131 1277.02 95.8344 1272.44 Q92.7789 1267.83 92.7789 1259.1 Q92.7789 1250.35 95.8344 1245.77 Q98.9131 1241.16 104.723 1241.16 Z" fill="#4c4c4c" fill-rule="nonzero" fill-opacity="1" /><path clip-path="url(#clip640)" d="M124.885 1270.47 L129.769 1270.47 L129.769 1276.35 L124.885 1276.35 L124.885 1270.47 Z" fill="#4c4c4c" fill-rule="nonzero" fill-opacity="1" /><path clip-path="url(#clip640)" d="M149.954 1259.94 Q146.621 1259.94 144.7 1261.72 Q142.802 1263.5 142.802 1266.63 Q142.802 1269.75 144.7 1271.53 Q146.621 1273.32 149.954 1273.32 Q153.288 1273.32 155.209 1271.53 Q157.13 1269.73 157.13 1266.63 Q157.13 1263.5 155.209 1261.72 Q153.311 1259.94 149.954 1259.94 M145.279 1257.95 Q142.269 1257.2 140.58 1255.14 Q138.913 1253.08 138.913 1250.12 Q138.913 1245.98 141.853 1243.57 Q144.816 1241.16 149.954 1241.16 Q155.116 1241.16 158.056 1243.57 Q160.996 1245.98 160.996 1250.12 Q160.996 1253.08 159.306 1255.14 Q157.64 1257.2 154.654 1257.95 Q158.033 1258.73 159.908 1261.02 Q161.806 1263.32 161.806 1266.63 Q161.806 1271.65 158.728 1274.33 Q155.672 1277.02 149.954 1277.02 Q144.237 1277.02 141.158 1274.33 Q138.103 1271.65 138.103 1266.63 Q138.103 1263.32 140.001 1261.02 Q141.899 1258.73 145.279 1257.95 M143.566 1250.56 Q143.566 1253.25 145.232 1254.75 Q146.922 1256.26 149.954 1256.26 Q152.964 1256.26 154.654 1254.75 Q156.366 1253.25 156.366 1250.56 Q156.366 1247.88 154.654 1246.37 Q152.964 1244.87 149.954 1244.87 Q146.922 1244.87 145.232 1246.37 Q143.566 1247.88 143.566 1250.56 Z" fill="#4c4c4c" fill-rule="nonzero" fill-opacity="1" /><path clip-path="url(#clip640)" d="M95.4409 974.015 L103.08 974.015 L103.08 947.649 L94.7696 949.316 L94.7696 945.056 L103.033 943.39 L107.709 943.39 L107.709 974.015 L115.348 974.015 L115.348 977.95 L95.4409 977.95 L95.4409 974.015 Z" fill="#4c4c4c" fill-rule="nonzero" fill-opacity="1" /><path clip-path="url(#clip640)" d="M124.793 972.07 L129.677 972.07 L129.677 977.95 L124.793 977.95 L124.793 972.07 Z" fill="#4c4c4c" fill-rule="nonzero" fill-opacity="1" /><path clip-path="url(#clip640)" d="M149.862 946.468 Q146.251 946.468 144.422 950.033 Q142.617 953.575 142.617 960.704 Q142.617 967.811 144.422 971.376 Q146.251 974.917 149.862 974.917 Q153.496 974.917 155.302 971.376 Q157.13 967.811 157.13 960.704 Q157.13 953.575 155.302 950.033 Q153.496 946.468 149.862 946.468 M149.862 942.765 Q155.672 942.765 158.728 947.371 Q161.806 951.954 161.806 960.704 Q161.806 969.431 158.728 974.038 Q155.672 978.621 149.862 978.621 Q144.052 978.621 140.973 974.038 Q137.918 969.431 137.918 960.704 Q137.918 951.954 140.973 947.371 Q144.052 942.765 149.862 942.765 Z" fill="#4c4c4c" fill-rule="nonzero" fill-opacity="1" /><path clip-path="url(#clip640)" d="M97.0381 675.616 L104.677 675.616 L104.677 649.251 L96.3668 650.917 L96.3668 646.658 L104.631 644.991 L109.307 644.991 L109.307 675.616 L116.945 675.616 L116.945 679.551 L97.0381 679.551 L97.0381 675.616 Z" fill="#4c4c4c" fill-rule="nonzero" fill-opacity="1" /><path clip-path="url(#clip640)" d="M126.39 673.672 L131.274 673.672 L131.274 679.551 L126.39 679.551 L126.39 673.672 Z" fill="#4c4c4c" fill-rule="nonzero" fill-opacity="1" /><path clip-path="url(#clip640)" d="M145.487 675.616 L161.806 675.616 L161.806 679.551 L139.862 679.551 L139.862 675.616 Q142.524 672.862 147.107 668.232 Q151.714 663.579 152.894 662.237 Q155.14 659.714 156.019 657.977 Q156.922 656.218 156.922 654.528 Q156.922 651.774 154.978 650.038 Q153.056 648.302 149.954 648.302 Q147.755 648.302 145.302 649.065 Q142.871 649.829 140.093 651.38 L140.093 646.658 Q142.917 645.524 145.371 644.945 Q147.825 644.366 149.862 644.366 Q155.232 644.366 158.427 647.052 Q161.621 649.737 161.621 654.227 Q161.621 656.357 160.811 658.278 Q160.024 660.177 157.917 662.769 Q157.339 663.44 154.237 666.658 Q151.135 669.852 145.487 675.616 Z" fill="#4c4c4c" fill-rule="nonzero" fill-opacity="1" /><path clip-path="url(#clip640)" d="M94.9548 377.218 L102.594 377.218 L102.594 350.852 L94.2835 352.519 L94.2835 348.26 L102.547 346.593 L107.223 346.593 L107.223 377.218 L114.862 377.218 L114.862 381.153 L94.9548 381.153 L94.9548 377.218 Z" fill="#4c4c4c" fill-rule="nonzero" fill-opacity="1" /><path clip-path="url(#clip640)" d="M124.306 375.274 L129.191 375.274 L129.191 381.153 L124.306 381.153 L124.306 375.274 Z" fill="#4c4c4c" fill-rule="nonzero" fill-opacity="1" /><path clip-path="url(#clip640)" d="M152.223 350.667 L140.417 369.116 L152.223 369.116 L152.223 350.667 M150.996 346.593 L156.876 346.593 L156.876 369.116 L161.806 369.116 L161.806 373.005 L156.876 373.005 L156.876 381.153 L152.223 381.153 L152.223 373.005 L136.621 373.005 L136.621 368.491 L150.996 346.593 Z" fill="#4c4c4c" fill-rule="nonzero" fill-opacity="1" /><path clip-path="url(#clip640)" d="M48.597 1321.32 L67.5031 1321.32 L67.5031 1327.21 L18.2962 1327.21 L18.2962 1321.32 L23.7071 1321.32 Q20.5242 1319.47 18.9964 1316.67 Q17.4368 1313.84 17.4368 1309.93 Q17.4368 1303.43 22.5931 1299.39 Q27.7493 1295.32 36.152 1295.32 Q44.5547 1295.32 49.711 1299.39 Q54.8672 1303.43 54.8672 1309.93 Q54.8672 1313.84 53.3394 1316.67 Q51.7798 1319.47 48.597 1321.32 M36.152 1301.4 Q29.6908 1301.4 26.0305 1304.07 Q22.3384 1306.71 22.3384 1311.36 Q22.3384 1316 26.0305 1318.68 Q29.6908 1321.32 36.152 1321.32 Q42.6132 1321.32 46.3053 1318.68 Q49.9656 1316 49.9656 1311.36 Q49.9656 1306.71 46.3053 1304.07 Q42.6132 1301.4 36.152 1301.4 Z" fill="#000000" fill-rule="nonzero" fill-opacity="1" /><path clip-path="url(#clip640)" d="M22.4021 1271.79 Q22.4021 1276.51 26.0942 1279.24 Q29.7545 1281.98 36.152 1281.98 Q42.5495 1281.98 46.2417 1279.27 Q49.9019 1276.54 49.9019 1271.79 Q49.9019 1267.12 46.2098 1264.38 Q42.5177 1261.64 36.152 1261.64 Q29.8181 1261.64 26.126 1264.38 Q22.4021 1267.12 22.4021 1271.79 M17.4368 1271.79 Q17.4368 1264.16 22.4021 1259.8 Q27.3673 1255.43 36.152 1255.43 Q44.9049 1255.43 49.9019 1259.8 Q54.8672 1264.16 54.8672 1271.79 Q54.8672 1279.47 49.9019 1283.83 Q44.9049 1288.15 36.152 1288.15 Q27.3673 1288.15 22.4021 1283.83 Q17.4368 1279.47 17.4368 1271.79 Z" fill="#000000" fill-rule="nonzero" fill-opacity="1" /><path clip-path="url(#clip640)" d="M48.597 1240.06 L67.5031 1240.06 L67.5031 1245.95 L18.2962 1245.95 L18.2962 1240.06 L23.7071 1240.06 Q20.5242 1238.22 18.9964 1235.41 Q17.4368 1232.58 17.4368 1228.67 Q17.4368 1222.17 22.5931 1218.13 Q27.7493 1214.06 36.152 1214.06 Q44.5547 1214.06 49.711 1218.13 Q54.8672 1222.17 54.8672 1228.67 Q54.8672 1232.58 53.3394 1235.41 Q51.7798 1238.22 48.597 1240.06 M36.152 1220.14 Q29.6908 1220.14 26.0305 1222.81 Q22.3384 1225.45 22.3384 1230.1 Q22.3384 1234.75 26.0305 1237.42 Q29.6908 1240.06 36.152 1240.06 Q42.6132 1240.06 46.3053 1237.42 Q49.9656 1234.75 49.9656 1230.1 Q49.9656 1225.45 46.3053 1222.81 Q42.6132 1220.14 36.152 1220.14 Z" fill="#000000" fill-rule="nonzero" fill-opacity="1" /><path clip-path="url(#clip640)" d="M39.8759 1204.95 L18.2962 1204.95 L18.2962 1199.1 L39.6531 1199.1 Q44.7139 1199.1 47.2602 1197.12 Q49.7746 1195.15 49.7746 1191.2 Q49.7746 1186.46 46.7509 1183.72 Q43.7272 1180.96 38.5073 1180.96 L18.2962 1180.96 L18.2962 1175.1 L53.9442 1175.1 L53.9442 1180.96 L48.4696 1180.96 Q51.7162 1183.09 53.3076 1185.92 Q54.8672 1188.72 54.8672 1192.45 Q54.8672 1198.59 51.0478 1201.77 Q47.2283 1204.95 39.8759 1204.95 M17.4368 1190.22 L17.4368 1190.22 Z" fill="#000000" fill-rule="nonzero" fill-opacity="1" /><path clip-path="url(#clip640)" d="M4.41896 1163.04 L4.41896 1157.18 L53.9442 1157.18 L53.9442 1163.04 L4.41896 1163.04 Z" fill="#000000" fill-rule="nonzero" fill-opacity="1" /><path clip-path="url(#clip640)" d="M36.0247 1128.73 Q36.0247 1135.82 37.6479 1138.56 Q39.2712 1141.3 43.1861 1141.3 Q46.3053 1141.3 48.1514 1139.26 Q49.9656 1137.19 49.9656 1133.66 Q49.9656 1128.79 46.5281 1125.86 Q43.0588 1122.9 37.3297 1122.9 L36.0247 1122.9 L36.0247 1128.73 M33.6057 1117.04 L53.9442 1117.04 L53.9442 1122.9 L48.5333 1122.9 Q51.7798 1124.91 53.3394 1127.9 Q54.8672 1130.89 54.8672 1135.22 Q54.8672 1140.69 51.8116 1143.94 Q48.7243 1147.15 43.5681 1147.15 Q37.5525 1147.15 34.4969 1143.14 Q31.4414 1139.1 31.4414 1131.11 L31.4414 1122.9 L30.8685 1122.9 Q26.8262 1122.9 24.6301 1125.57 Q22.4021 1128.22 22.4021 1133.02 Q22.4021 1136.08 23.1341 1138.97 Q23.8662 1141.87 25.3303 1144.54 L19.9195 1144.54 Q18.6781 1141.33 18.0734 1138.31 Q17.4368 1135.28 17.4368 1132.42 Q17.4368 1124.68 21.4472 1120.86 Q25.4576 1117.04 33.6057 1117.04 Z" fill="#000000" fill-rule="nonzero" fill-opacity="1" /><path clip-path="url(#clip640)" d="M19.6648 1079.33 L25.1393 1079.33 Q23.7707 1081.81 23.1023 1084.32 Q22.4021 1086.81 22.4021 1089.35 Q22.4021 1095.05 26.0305 1098.2 Q29.6272 1101.35 36.152 1101.35 Q42.6769 1101.35 46.3053 1098.2 Q49.9019 1095.05 49.9019 1089.35 Q49.9019 1086.81 49.2335 1084.32 Q48.5333 1081.81 47.1647 1079.33 L52.5755 1079.33 Q53.7214 1081.78 54.2943 1084.42 Q54.8672 1087.03 54.8672 1089.99 Q54.8672 1098.04 49.8064 1102.78 Q44.7457 1107.53 36.152 1107.53 Q27.431 1107.53 22.4339 1102.75 Q17.4368 1097.95 17.4368 1089.61 Q17.4368 1086.9 18.0097 1084.32 Q18.5508 1081.75 19.6648 1079.33 M53.9442 1087.6 Q55.9175 1085.85 57.5726 1084.99 Q59.2595 1084.13 60.7873 1084.13 Q63.62 1084.13 65.0523 1086.04 Q66.5164 1087.95 66.5164 1091.71 Q66.5164 1093.17 66.3255 1094.57 Q66.1345 1095.94 65.7525 1097.31 L61.583 1097.31 Q62.1241 1096.23 62.3469 1095.05 Q62.6015 1093.87 62.6015 1092.38 Q62.6015 1090.5 61.8376 1089.54 Q61.0737 1088.59 59.6096 1088.59 Q58.6548 1088.59 57.2543 1089.29 Q55.8857 1089.96 53.9442 1091.39 L53.9442 1087.6 Z" fill="#000000" fill-rule="nonzero" fill-opacity="1" /><path clip-path="url(#clip640)" d="M36.0247 1052.94 Q36.0247 1060.04 37.6479 1062.78 Q39.2712 1065.51 43.1861 1065.51 Q46.3053 1065.51 48.1514 1063.48 Q49.9656 1061.41 49.9656 1057.87 Q49.9656 1053.01 46.5281 1050.08 Q43.0588 1047.12 37.3297 1047.12 L36.0247 1047.12 L36.0247 1052.94 M33.6057 1041.26 L53.9442 1041.26 L53.9442 1047.12 L48.5333 1047.12 Q51.7798 1049.12 53.3394 1052.11 Q54.8672 1055.11 54.8672 1059.43 Q54.8672 1064.91 51.8116 1068.16 Q48.7243 1071.37 43.5681 1071.37 Q37.5525 1071.37 34.4969 1067.36 Q31.4414 1063.32 31.4414 1055.33 L31.4414 1047.12 L30.8685 1047.12 Q26.8262 1047.12 24.6301 1049.79 Q22.4021 1052.43 22.4021 1057.24 Q22.4021 1060.29 23.1341 1063.19 Q23.8662 1066.09 25.3303 1068.76 L19.9195 1068.76 Q18.6781 1065.55 18.0734 1062.52 Q17.4368 1059.5 17.4368 1056.63 Q17.4368 1048.9 21.4472 1045.08 Q25.4576 1041.26 33.6057 1041.26 M10.3391 1056.51 L8.5885 1058.32 Q7.95193 1059.02 7.66547 1059.56 Q7.34718 1060.07 7.34718 1060.48 Q7.34718 1061.69 8.52484 1062.27 Q9.67067 1062.84 12.2806 1062.9 L12.2806 1066.88 Q7.98376 1066.82 5.66027 1065.2 Q3.30496 1063.57 3.30496 1060.68 Q3.30496 1059.47 3.75056 1058.45 Q4.19616 1057.43 5.2465 1056.25 L6.99707 1054.44 Q7.63364 1053.74 7.95193 1053.23 Q8.23838 1052.69 8.23838 1052.27 Q8.23838 1051.06 7.09256 1050.49 Q5.9149 1049.92 3.30496 1049.85 L3.30496 1045.88 Q7.60181 1045.94 9.95712 1047.56 Q12.2806 1049.19 12.2806 1052.08 Q12.2806 1053.29 11.835 1054.31 Q11.3894 1055.33 10.3391 1056.51 Z" fill="#000000" fill-rule="nonzero" fill-opacity="1" /><path clip-path="url(#clip640)" d="M22.4021 1015.38 Q22.4021 1020.09 26.0942 1022.83 Q29.7545 1025.57 36.152 1025.57 Q42.5495 1025.57 46.2417 1022.86 Q49.9019 1020.13 49.9019 1015.38 Q49.9019 1010.71 46.2098 1007.97 Q42.5177 1005.23 36.152 1005.23 Q29.8181 1005.23 26.126 1007.97 Q22.4021 1010.71 22.4021 1015.38 M17.4368 1015.38 Q17.4368 1007.74 22.4021 1003.38 Q27.3673 999.024 36.152 999.024 Q44.9049 999.024 49.9019 1003.38 Q54.8672 1007.74 54.8672 1015.38 Q54.8672 1023.05 49.9019 1027.42 Q44.9049 1031.74 36.152 1031.74 Q27.3673 1031.74 22.4021 1027.42 Q17.4368 1023.05 17.4368 1015.38 Z" fill="#000000" fill-rule="nonzero" fill-opacity="1" /><path clip-path="url(#clip640)" d="M972.365 23.3193 L979.136 23.3193 L991.288 55.958 L1003.44 23.3193 L1010.21 23.3193 L995.629 62.208 L986.948 62.208 L972.365 23.3193 Z" fill="#000000" fill-rule="nonzero" fill-opacity="1" /><path clip-path="url(#clip640)" d="M1036.7 42.6595 Q1028.96 42.6595 1025.98 44.4303 Q1022.99 46.2011 1022.99 50.472 Q1022.99 53.8747 1025.21 55.8886 Q1027.47 57.8677 1031.32 57.8677 Q1036.64 57.8677 1039.83 54.1178 Q1043.06 50.3331 1043.06 44.0831 L1043.06 42.6595 L1036.7 42.6595 M1049.45 40.0206 L1049.45 62.208 L1043.06 62.208 L1043.06 56.3053 Q1040.87 59.8469 1037.61 61.5483 Q1034.34 63.2149 1029.62 63.2149 Q1023.65 63.2149 1020.11 59.8816 Q1016.6 56.5136 1016.6 50.8886 Q1016.6 44.3262 1020.98 40.9928 Q1025.39 37.6595 1034.1 37.6595 L1043.06 37.6595 L1043.06 37.0345 Q1043.06 32.6248 1040.14 30.229 Q1037.26 27.7985 1032.02 27.7985 Q1028.68 27.7985 1025.52 28.5971 Q1022.36 29.3957 1019.45 30.9929 L1019.45 25.0901 Q1022.95 23.736 1026.25 23.0763 Q1029.55 22.3818 1032.68 22.3818 Q1041.11 22.3818 1045.28 26.7568 Q1049.45 31.1318 1049.45 40.0206 Z" fill="#000000" fill-rule="nonzero" fill-opacity="1" /><path clip-path="url(#clip640)" d="M1062.61 8.18051 L1069 8.18051 L1069 62.208 L1062.61 62.208 L1062.61 8.18051 Z" fill="#000000" fill-rule="nonzero" fill-opacity="1" /><path clip-path="url(#clip640)" d="M1097.43 27.7985 Q1092.29 27.7985 1089.31 31.8262 Q1086.32 35.8193 1086.32 42.7984 Q1086.32 49.7775 1089.27 53.8053 Q1092.26 57.7983 1097.43 57.7983 Q1102.54 57.7983 1105.52 53.7705 Q1108.51 49.7428 1108.51 42.7984 Q1108.51 35.8887 1105.52 31.8609 Q1102.54 27.7985 1097.43 27.7985 M1097.43 22.3818 Q1105.77 22.3818 1110.52 27.7985 Q1115.28 33.2151 1115.28 42.7984 Q1115.28 52.3469 1110.52 57.7983 Q1105.77 63.2149 1097.43 63.2149 Q1089.07 63.2149 1084.31 57.7983 Q1079.59 52.3469 1079.59 42.7984 Q1079.59 33.2151 1084.31 27.7985 Q1089.07 22.3818 1097.43 22.3818 Z" fill="#000000" fill-rule="nonzero" fill-opacity="1" /><path clip-path="url(#clip640)" d="M1148.41 29.2915 Q1147.33 28.6665 1146.04 28.3887 Q1144.79 28.0762 1143.27 28.0762 Q1137.85 28.0762 1134.93 31.6179 Q1132.05 35.1248 1132.05 41.722 L1132.05 62.208 L1125.63 62.208 L1125.63 23.3193 L1132.05 23.3193 L1132.05 29.361 Q1134.07 25.8193 1137.29 24.1179 Q1140.52 22.3818 1145.14 22.3818 Q1145.8 22.3818 1146.6 22.486 Q1147.4 22.5554 1148.37 22.729 L1148.41 29.2915 Z" fill="#000000" fill-rule="nonzero" fill-opacity="1" /><path clip-path="url(#clip640)" d="M1210.97 41.1664 L1210.97 44.2914 L1181.6 44.2914 Q1182.02 50.8886 1185.56 54.3608 Q1189.13 57.7983 1195.49 57.7983 Q1199.17 57.7983 1202.61 56.8955 Q1206.08 55.9928 1209.48 54.1872 L1209.48 60.2288 Q1206.04 61.6872 1202.43 62.4511 Q1198.82 63.2149 1195.11 63.2149 Q1185.8 63.2149 1180.35 57.7983 Q1174.93 52.3817 1174.93 43.1456 Q1174.93 33.597 1180.07 28.0068 Q1185.25 22.3818 1194 22.3818 Q1201.84 22.3818 1206.39 27.4512 Q1210.97 32.4859 1210.97 41.1664 M1204.59 39.2915 Q1204.52 34.0484 1201.63 30.9234 Q1198.79 27.7985 1194.07 27.7985 Q1188.72 27.7985 1185.49 30.8193 Q1182.29 33.8401 1181.81 39.3262 L1204.59 39.2915 Z" fill="#000000" fill-rule="nonzero" fill-opacity="1" /><path clip-path="url(#clip640)" d="M1246.25 24.4651 L1246.25 30.5068 Q1243.54 29.1179 1240.63 28.4235 Q1237.71 27.729 1234.59 27.729 Q1229.83 27.729 1227.43 29.1873 Q1225.07 30.6457 1225.07 33.5623 Q1225.07 35.7845 1226.77 37.0692 Q1228.47 38.3192 1233.61 39.4651 L1235.8 39.9512 Q1242.61 41.4095 1245.45 44.0831 Q1248.34 46.722 1248.34 51.4789 Q1248.34 56.8955 1244.03 60.0552 Q1239.76 63.2149 1232.26 63.2149 Q1229.13 63.2149 1225.73 62.5899 Q1222.36 61.9997 1218.61 60.7844 L1218.61 54.1872 Q1222.16 56.0275 1225.59 56.965 Q1229.03 57.8677 1232.4 57.8677 Q1236.91 57.8677 1239.34 56.34 Q1241.77 54.7775 1241.77 51.965 Q1241.77 49.3608 1240 47.972 Q1238.27 46.5831 1232.33 45.2984 L1230.11 44.7775 Q1224.17 43.5275 1221.53 40.9581 Q1218.89 38.354 1218.89 33.8401 Q1218.89 28.354 1222.78 25.3679 Q1226.67 22.3818 1233.82 22.3818 Q1237.36 22.3818 1240.49 22.9027 Q1243.61 23.4235 1246.25 24.4651 Z" fill="#000000" fill-rule="nonzero" fill-opacity="1" /><path clip-path="url(#clip640)" d="M1264.69 56.3747 L1264.69 76.9996 L1258.27 76.9996 L1258.27 23.3193 L1264.69 23.3193 L1264.69 29.2221 Q1266.7 25.7499 1269.76 24.0832 Q1272.85 22.3818 1277.12 22.3818 Q1284.2 22.3818 1288.61 28.0068 Q1293.06 33.6318 1293.06 42.7984 Q1293.06 51.965 1288.61 57.59 Q1284.2 63.2149 1277.12 63.2149 Q1272.85 63.2149 1269.76 61.5483 Q1266.7 59.8469 1264.69 56.3747 M1286.43 42.7984 Q1286.43 35.7498 1283.51 31.7568 Q1280.63 27.729 1275.56 27.729 Q1270.49 27.729 1267.57 31.7568 Q1264.69 35.7498 1264.69 42.7984 Q1264.69 49.847 1267.57 53.8747 Q1270.49 57.8677 1275.56 57.8677 Q1280.63 57.8677 1283.51 53.8747 Q1286.43 49.847 1286.43 42.7984 Z" fill="#000000" fill-rule="nonzero" fill-opacity="1" /><path clip-path="url(#clip640)" d="M1336.91 41.1664 L1336.91 44.2914 L1307.54 44.2914 Q1307.95 50.8886 1311.49 54.3608 Q1315.07 57.7983 1321.43 57.7983 Q1325.11 57.7983 1328.54 56.8955 Q1332.02 55.9928 1335.42 54.1872 L1335.42 60.2288 Q1331.98 61.6872 1328.37 62.4511 Q1324.76 63.2149 1321.04 63.2149 Q1311.74 63.2149 1306.29 57.7983 Q1300.87 52.3817 1300.87 43.1456 Q1300.87 33.597 1306.01 28.0068 Q1311.18 22.3818 1319.93 22.3818 Q1327.78 22.3818 1332.33 27.4512 Q1336.91 32.4859 1336.91 41.1664 M1330.52 39.2915 Q1330.45 34.0484 1327.57 30.9234 Q1324.72 27.7985 1320 27.7985 Q1314.65 27.7985 1311.43 30.8193 Q1308.23 33.8401 1307.74 39.3262 L1330.52 39.2915 Z" fill="#000000" fill-rule="nonzero" fill-opacity="1" /><path clip-path="url(#clip640)" d="M1369.93 29.2915 Q1368.86 28.6665 1367.57 28.3887 Q1366.32 28.0762 1364.79 28.0762 Q1359.38 28.0762 1356.46 31.6179 Q1353.58 35.1248 1353.58 41.722 L1353.58 62.208 L1347.15 62.208 L1347.15 23.3193 L1353.58 23.3193 L1353.58 29.361 Q1355.59 25.8193 1358.82 24.1179 Q1362.05 22.3818 1366.67 22.3818 Q1367.33 22.3818 1368.13 22.486 Q1368.93 22.5554 1369.9 22.729 L1369.93 29.2915 Z" fill="#000000" fill-rule="nonzero" fill-opacity="1" /><path clip-path="url(#clip640)" d="M1394.31 42.6595 Q1386.56 42.6595 1383.58 44.4303 Q1380.59 46.2011 1380.59 50.472 Q1380.59 53.8747 1382.81 55.8886 Q1385.07 57.8677 1388.93 57.8677 Q1394.24 57.8677 1397.43 54.1178 Q1400.66 50.3331 1400.66 44.0831 L1400.66 42.6595 L1394.31 42.6595 M1407.05 40.0206 L1407.05 62.208 L1400.66 62.208 L1400.66 56.3053 Q1398.47 59.8469 1395.21 61.5483 Q1391.95 63.2149 1387.22 63.2149 Q1381.25 63.2149 1377.71 59.8816 Q1374.2 56.5136 1374.2 50.8886 Q1374.2 44.3262 1378.58 40.9928 Q1382.99 37.6595 1391.7 37.6595 L1400.66 37.6595 L1400.66 37.0345 Q1400.66 32.6248 1397.74 30.229 Q1394.86 27.7985 1389.62 27.7985 Q1386.29 27.7985 1383.13 28.5971 Q1379.97 29.3957 1377.05 30.9929 L1377.05 25.0901 Q1380.56 23.736 1383.86 23.0763 Q1387.15 22.3818 1390.28 22.3818 Q1398.72 22.3818 1402.88 26.7568 Q1407.05 31.1318 1407.05 40.0206 Z" fill="#000000" fill-rule="nonzero" fill-opacity="1" /><path clip-path="url(#clip640)" d="M1445.8 29.2221 L1445.8 8.18051 L1452.19 8.18051 L1452.19 62.208 L1445.8 62.208 L1445.8 56.3747 Q1443.79 59.8469 1440.7 61.5483 Q1437.64 63.2149 1433.33 63.2149 Q1426.29 63.2149 1421.84 57.59 Q1417.43 51.965 1417.43 42.7984 Q1417.43 33.6318 1421.84 28.0068 Q1426.29 22.3818 1433.33 22.3818 Q1437.64 22.3818 1440.7 24.0832 Q1443.79 25.7499 1445.8 29.2221 M1424.03 42.7984 Q1424.03 49.847 1426.91 53.8747 Q1429.83 57.8677 1434.9 57.8677 Q1439.97 57.8677 1442.88 53.8747 Q1445.8 49.847 1445.8 42.7984 Q1445.8 35.7498 1442.88 31.7568 Q1439.97 27.729 1434.9 27.729 Q1429.83 27.729 1426.91 31.7568 Q1424.03 35.7498 1424.03 42.7984 Z" fill="#000000" fill-rule="nonzero" fill-opacity="1" /><path clip-path="url(#clip640)" d="M1480.42 27.7985 Q1475.28 27.7985 1472.29 31.8262 Q1469.31 35.8193 1469.31 42.7984 Q1469.31 49.7775 1472.26 53.8053 Q1475.24 57.7983 1480.42 57.7983 Q1485.52 57.7983 1488.51 53.7705 Q1491.49 49.7428 1491.49 42.7984 Q1491.49 35.8887 1488.51 31.8609 Q1485.52 27.7985 1480.42 27.7985 M1480.42 22.3818 Q1488.75 22.3818 1493.51 27.7985 Q1498.26 33.2151 1498.26 42.7984 Q1498.26 52.3469 1493.51 57.7983 Q1488.75 63.2149 1480.42 63.2149 Q1472.05 63.2149 1467.29 57.7983 Q1462.57 52.3469 1462.57 42.7984 Q1462.57 33.2151 1467.29 27.7985 Q1472.05 22.3818 1480.42 22.3818 Z" fill="#000000" fill-rule="nonzero" fill-opacity="1" /><path clip-path="url(#clip640)" d="M1564.72 41.1664 L1564.72 44.2914 L1535.35 44.2914 Q1535.76 50.8886 1539.31 54.3608 Q1542.88 57.7983 1549.24 57.7983 Q1552.92 57.7983 1556.35 56.8955 Q1559.83 55.9928 1563.23 54.1872 L1563.23 60.2288 Q1559.79 61.6872 1556.18 62.4511 Q1552.57 63.2149 1548.85 63.2149 Q1539.55 63.2149 1534.1 57.7983 Q1528.68 52.3817 1528.68 43.1456 Q1528.68 33.597 1533.82 28.0068 Q1538.99 22.3818 1547.74 22.3818 Q1555.59 22.3818 1560.14 27.4512 Q1564.72 32.4859 1564.72 41.1664 M1558.33 39.2915 Q1558.26 34.0484 1555.38 30.9234 Q1552.54 27.7985 1547.81 27.7985 Q1542.47 27.7985 1539.24 30.8193 Q1536.04 33.8401 1535.56 39.3262 L1558.33 39.2915 Z" fill="#000000" fill-rule="nonzero" fill-opacity="1" /><path clip-path="url(#clip640)" d="M1597.81 23.3193 L1604.2 23.3193 L1604.2 62.208 L1597.81 62.208 L1597.81 23.3193 M1597.81 8.18051 L1604.2 8.18051 L1604.2 16.2707 L1597.81 16.2707 L1597.81 8.18051 Z" fill="#000000" fill-rule="nonzero" fill-opacity="1" /><path clip-path="url(#clip640)" d="M1649.9 38.7359 L1649.9 62.208 L1643.51 62.208 L1643.51 38.9442 Q1643.51 33.4234 1641.35 30.6804 Q1639.2 27.9374 1634.9 27.9374 Q1629.72 27.9374 1626.74 31.2359 Q1623.75 34.5345 1623.75 40.229 L1623.75 62.208 L1617.33 62.208 L1617.33 23.3193 L1623.75 23.3193 L1623.75 29.361 Q1626.04 25.854 1629.13 24.1179 Q1632.26 22.3818 1636.32 22.3818 Q1643.02 22.3818 1646.46 26.5485 Q1649.9 30.6804 1649.9 38.7359 Z" fill="#000000" fill-rule="nonzero" fill-opacity="1" /><path clip-path="url(#clip640)" d="M1668.96 12.2777 L1668.96 23.3193 L1682.12 23.3193 L1682.12 28.2846 L1668.96 28.2846 L1668.96 49.3956 Q1668.96 54.1525 1670.24 55.5066 Q1671.56 56.8608 1675.56 56.8608 L1682.12 56.8608 L1682.12 62.208 L1675.56 62.208 Q1668.16 62.208 1665.35 59.465 Q1662.53 56.6872 1662.53 49.3956 L1662.53 28.2846 L1657.85 28.2846 L1657.85 23.3193 L1662.53 23.3193 L1662.53 12.2777 L1668.96 12.2777 Z" fill="#000000" fill-rule="nonzero" fill-opacity="1" /><path clip-path="url(#clip640)" d="M1723.78 41.1664 L1723.78 44.2914 L1694.41 44.2914 Q1694.83 50.8886 1698.37 54.3608 Q1701.94 57.7983 1708.3 57.7983 Q1711.98 57.7983 1715.42 56.8955 Q1718.89 55.9928 1722.29 54.1872 L1722.29 60.2288 Q1718.85 61.6872 1715.24 62.4511 Q1711.63 63.2149 1707.92 63.2149 Q1698.61 63.2149 1693.16 57.7983 Q1687.74 52.3817 1687.74 43.1456 Q1687.74 33.597 1692.88 28.0068 Q1698.06 22.3818 1706.81 22.3818 Q1714.65 22.3818 1719.2 27.4512 Q1723.78 32.4859 1723.78 41.1664 M1717.4 39.2915 Q1717.33 34.0484 1714.44 30.9234 Q1711.6 27.7985 1706.87 27.7985 Q1701.53 27.7985 1698.3 30.8193 Q1695.1 33.8401 1694.62 39.3262 L1717.4 39.2915 Z" fill="#000000" fill-rule="nonzero" fill-opacity="1" /><path clip-path="url(#clip640)" d="M1756.81 29.2915 Q1755.73 28.6665 1754.44 28.3887 Q1753.19 28.0762 1751.67 28.0762 Q1746.25 28.0762 1743.33 31.6179 Q1740.45 35.1248 1740.45 41.722 L1740.45 62.208 L1734.03 62.208 L1734.03 23.3193 L1740.45 23.3193 L1740.45 29.361 Q1742.46 25.8193 1745.69 24.1179 Q1748.92 22.3818 1753.54 22.3818 Q1754.2 22.3818 1755 22.486 Q1755.8 22.5554 1756.77 22.729 L1756.81 29.2915 Z" fill="#000000" fill-rule="nonzero" fill-opacity="1" /><path clip-path="url(#clip640)" d="M1758.92 23.3193 L1765.69 23.3193 L1777.85 55.958 L1790 23.3193 L1796.77 23.3193 L1782.19 62.208 L1773.51 62.208 L1758.92 23.3193 Z" fill="#000000" fill-rule="nonzero" fill-opacity="1" /><path clip-path="url(#clip640)" d="M1823.26 42.6595 Q1815.52 42.6595 1812.53 44.4303 Q1809.55 46.2011 1809.55 50.472 Q1809.55 53.8747 1811.77 55.8886 Q1814.03 57.8677 1817.88 57.8677 Q1823.19 57.8677 1826.39 54.1178 Q1829.62 50.3331 1829.62 44.0831 L1829.62 42.6595 L1823.26 42.6595 M1836.01 40.0206 L1836.01 62.208 L1829.62 62.208 L1829.62 56.3053 Q1827.43 59.8469 1824.17 61.5483 Q1820.9 63.2149 1816.18 63.2149 Q1810.21 63.2149 1806.67 59.8816 Q1803.16 56.5136 1803.16 50.8886 Q1803.16 44.3262 1807.53 40.9928 Q1811.94 37.6595 1820.66 37.6595 L1829.62 37.6595 L1829.62 37.0345 Q1829.62 32.6248 1826.7 30.229 Q1823.82 27.7985 1818.58 27.7985 Q1815.24 27.7985 1812.08 28.5971 Q1808.92 29.3957 1806.01 30.9929 L1806.01 25.0901 Q1809.51 23.736 1812.81 23.0763 Q1816.11 22.3818 1819.24 22.3818 Q1827.67 22.3818 1831.84 26.7568 Q1836.01 31.1318 1836.01 40.0206 Z" fill="#000000" fill-rule="nonzero" fill-opacity="1" /><path clip-path="url(#clip640)" d="M1849.17 8.18051 L1855.55 8.18051 L1855.55 62.208 L1849.17 62.208 L1849.17 8.18051 Z" fill="#000000" fill-rule="nonzero" fill-opacity="1" /><path clip-path="url(#clip640)" d="M1883.99 27.7985 Q1878.85 27.7985 1875.87 31.8262 Q1872.88 35.8193 1872.88 42.7984 Q1872.88 49.7775 1875.83 53.8053 Q1878.82 57.7983 1883.99 57.7983 Q1889.1 57.7983 1892.08 53.7705 Q1895.07 49.7428 1895.07 42.7984 Q1895.07 35.8887 1892.08 31.8609 Q1889.1 27.7985 1883.99 27.7985 M1883.99 22.3818 Q1892.33 22.3818 1897.08 27.7985 Q1901.84 33.2151 1901.84 42.7984 Q1901.84 52.3469 1897.08 57.7983 Q1892.33 63.2149 1883.99 63.2149 Q1875.62 63.2149 1870.87 57.7983 Q1866.14 52.3469 1866.14 42.7984 Q1866.14 33.2151 1870.87 27.7985 Q1875.62 22.3818 1883.99 22.3818 Z" fill="#000000" fill-rule="nonzero" fill-opacity="1" /><path clip-path="url(#clip640)" d="M1937.22 24.4651 L1937.22 30.5068 Q1934.51 29.1179 1931.6 28.4235 Q1928.68 27.729 1925.55 27.729 Q1920.8 27.729 1918.4 29.1873 Q1916.04 30.6457 1916.04 33.5623 Q1916.04 35.7845 1917.74 37.0692 Q1919.44 38.3192 1924.58 39.4651 L1926.77 39.9512 Q1933.57 41.4095 1936.42 44.0831 Q1939.3 46.722 1939.3 51.4789 Q1939.3 56.8955 1935 60.0552 Q1930.73 63.2149 1923.23 63.2149 Q1920.1 63.2149 1916.7 62.5899 Q1913.33 61.9997 1909.58 60.7844 L1909.58 54.1872 Q1913.12 56.0275 1916.56 56.965 Q1920 57.8677 1923.37 57.8677 Q1927.88 57.8677 1930.31 56.34 Q1932.74 54.7775 1932.74 51.965 Q1932.74 49.3608 1930.97 47.972 Q1929.23 46.5831 1923.3 45.2984 L1921.08 44.7775 Q1915.14 43.5275 1912.5 40.9581 Q1909.86 38.354 1909.86 33.8401 Q1909.86 28.354 1913.75 25.3679 Q1917.64 22.3818 1924.79 22.3818 Q1928.33 22.3818 1931.46 22.9027 Q1934.58 23.4235 1937.22 24.4651 Z" fill="#000000" fill-rule="nonzero" fill-opacity="1" /><path clip-path="url(#clip640)" d="M1997.67 29.2221 L1997.67 8.18051 L2004.06 8.18051 L2004.06 62.208 L1997.67 62.208 L1997.67 56.3747 Q1995.66 59.8469 1992.57 61.5483 Q1989.51 63.2149 1985.21 63.2149 Q1978.16 63.2149 1973.71 57.59 Q1969.3 51.965 1969.3 42.7984 Q1969.3 33.6318 1973.71 28.0068 Q1978.16 22.3818 1985.21 22.3818 Q1989.51 22.3818 1992.57 24.0832 Q1995.66 25.7499 1997.67 29.2221 M1975.9 42.7984 Q1975.9 49.847 1978.78 53.8747 Q1981.7 57.8677 1986.77 57.8677 Q1991.84 57.8677 1994.76 53.8747 Q1997.67 49.847 1997.67 42.7984 Q1997.67 35.7498 1994.76 31.7568 Q1991.84 27.729 1986.77 27.729 Q1981.7 27.729 1978.78 31.7568 Q1975.9 35.7498 1975.9 42.7984 Z" fill="#000000" fill-rule="nonzero" fill-opacity="1" /><path clip-path="url(#clip640)" d="M2050.48 41.1664 L2050.48 44.2914 L2021.11 44.2914 Q2021.53 50.8886 2025.07 54.3608 Q2028.64 57.7983 2035 57.7983 Q2038.68 57.7983 2042.12 56.8955 Q2045.59 55.9928 2048.99 54.1872 L2048.99 60.2288 Q2045.55 61.6872 2041.94 62.4511 Q2038.33 63.2149 2034.62 63.2149 Q2025.31 63.2149 2019.86 57.7983 Q2014.44 52.3817 2014.44 43.1456 Q2014.44 33.597 2019.58 28.0068 Q2024.76 22.3818 2033.5 22.3818 Q2041.35 22.3818 2045.9 27.4512 Q2050.48 32.4859 2050.48 41.1664 M2044.1 39.2915 Q2044.03 34.0484 2041.14 30.9234 Q2038.3 27.7985 2033.57 27.7985 Q2028.23 27.7985 2025 30.8193 Q2021.8 33.8401 2021.32 39.3262 L2044.1 39.2915 Z" fill="#000000" fill-rule="nonzero" fill-opacity="1" /><path clip-path="url(#clip640)" d="M2111.56 24.8124 L2111.56 30.7846 Q2108.85 29.2915 2106.11 28.5623 Q2103.4 27.7985 2100.62 27.7985 Q2094.41 27.7985 2090.97 31.7568 Q2087.53 35.6804 2087.53 42.7984 Q2087.53 49.9164 2090.97 53.8747 Q2094.41 57.7983 2100.62 57.7983 Q2103.4 57.7983 2106.11 57.0691 Q2108.85 56.3053 2111.56 54.8122 L2111.56 60.715 Q2108.89 61.9649 2106 62.5899 Q2103.16 63.2149 2099.93 63.2149 Q2091.14 63.2149 2085.97 57.6941 Q2080.8 52.1733 2080.8 42.7984 Q2080.8 33.2845 2086 27.8332 Q2091.25 22.3818 2100.34 22.3818 Q2103.3 22.3818 2106.11 23.0068 Q2108.92 23.5971 2111.56 24.8124 Z" fill="#000000" fill-rule="nonzero" fill-opacity="1" /><path clip-path="url(#clip640)" d="M2137.74 27.7985 Q2132.6 27.7985 2129.62 31.8262 Q2126.63 35.8193 2126.63 42.7984 Q2126.63 49.7775 2129.58 53.8053 Q2132.57 57.7983 2137.74 57.7983 Q2142.84 57.7983 2145.83 53.7705 Q2148.82 49.7428 2148.82 42.7984 Q2148.82 35.8887 2145.83 31.8609 Q2142.84 27.7985 2137.74 27.7985 M2137.74 22.3818 Q2146.07 22.3818 2150.83 27.7985 Q2155.59 33.2151 2155.59 42.7984 Q2155.59 52.3469 2150.83 57.7983 Q2146.07 63.2149 2137.74 63.2149 Q2129.37 63.2149 2124.62 57.7983 Q2119.89 52.3469 2119.89 42.7984 Q2119.89 33.2151 2124.62 27.7985 Q2129.37 22.3818 2137.74 22.3818 Z" fill="#000000" fill-rule="nonzero" fill-opacity="1" /><path clip-path="url(#clip640)" d="M2198.5 38.7359 L2198.5 62.208 L2192.12 62.208 L2192.12 38.9442 Q2192.12 33.4234 2189.96 30.6804 Q2187.81 27.9374 2183.5 27.9374 Q2178.33 27.9374 2175.34 31.2359 Q2172.36 34.5345 2172.36 40.229 L2172.36 62.208 L2165.93 62.208 L2165.93 23.3193 L2172.36 23.3193 L2172.36 29.361 Q2174.65 25.854 2177.74 24.1179 Q2180.87 22.3818 2184.93 22.3818 Q2191.63 22.3818 2195.07 26.5485 Q2198.5 30.6804 2198.5 38.7359 Z" fill="#000000" fill-rule="nonzero" fill-opacity="1" /><path clip-path="url(#clip640)" d="M2230.93 8.18051 L2230.93 13.493 L2224.82 13.493 Q2221.39 13.493 2220.03 14.8819 Q2218.71 16.2707 2218.71 19.8818 L2218.71 23.3193 L2229.23 23.3193 L2229.23 28.2846 L2218.71 28.2846 L2218.71 62.208 L2212.29 62.208 L2212.29 28.2846 L2206.18 28.2846 L2206.18 23.3193 L2212.29 23.3193 L2212.29 20.611 Q2212.29 14.118 2215.31 11.1666 Q2218.33 8.18051 2224.89 8.18051 L2230.93 8.18051 Z" fill="#000000" fill-rule="nonzero" fill-opacity="1" /><path clip-path="url(#clip640)" d="M2236.28 23.3193 L2242.67 23.3193 L2242.67 62.208 L2236.28 62.208 L2236.28 23.3193 M2236.28 8.18051 L2242.67 8.18051 L2242.67 16.2707 L2236.28 16.2707 L2236.28 8.18051 Z" fill="#000000" fill-rule="nonzero" fill-opacity="1" /><path clip-path="url(#clip640)" d="M2273.71 42.6595 Q2265.97 42.6595 2262.98 44.4303 Q2260 46.2011 2260 50.472 Q2260 53.8747 2262.22 55.8886 Q2264.48 57.8677 2268.33 57.8677 Q2273.64 57.8677 2276.84 54.1178 Q2280.07 50.3331 2280.07 44.0831 L2280.07 42.6595 L2273.71 42.6595 M2286.45 40.0206 L2286.45 62.208 L2280.07 62.208 L2280.07 56.3053 Q2277.88 59.8469 2274.61 61.5483 Q2271.35 63.2149 2266.63 63.2149 Q2260.66 63.2149 2257.11 59.8816 Q2253.61 56.5136 2253.61 50.8886 Q2253.61 44.3262 2257.98 40.9928 Q2262.39 37.6595 2271.11 37.6595 L2280.07 37.6595 L2280.07 37.0345 Q2280.07 32.6248 2277.15 30.229 Q2274.27 27.7985 2269.02 27.7985 Q2265.69 27.7985 2262.53 28.5971 Q2259.37 29.3957 2256.46 30.9929 L2256.46 25.0901 Q2259.96 23.736 2263.26 23.0763 Q2266.56 22.3818 2269.68 22.3818 Q2278.12 22.3818 2282.29 26.7568 Q2286.45 31.1318 2286.45 40.0206 Z" fill="#000000" fill-rule="nonzero" fill-opacity="1" /><path clip-path="url(#clip640)" d="M2331.94 38.7359 L2331.94 62.208 L2325.55 62.208 L2325.55 38.9442 Q2325.55 33.4234 2323.4 30.6804 Q2321.25 27.9374 2316.94 27.9374 Q2311.77 27.9374 2308.78 31.2359 Q2305.8 34.5345 2305.8 40.229 L2305.8 62.208 L2299.37 62.208 L2299.37 23.3193 L2305.8 23.3193 L2305.8 29.361 Q2308.09 25.854 2311.18 24.1179 Q2314.3 22.3818 2318.36 22.3818 Q2325.07 22.3818 2328.5 26.5485 Q2331.94 30.6804 2331.94 38.7359 Z" fill="#000000" fill-rule="nonzero" fill-opacity="1" /><path clip-path="url(#clip640)" d="M2372.67 24.8124 L2372.67 30.7846 Q2369.96 29.2915 2367.22 28.5623 Q2364.51 27.7985 2361.73 27.7985 Q2355.52 27.7985 2352.08 31.7568 Q2348.64 35.6804 2348.64 42.7984 Q2348.64 49.9164 2352.08 53.8747 Q2355.52 57.7983 2361.73 57.7983 Q2364.51 57.7983 2367.22 57.0691 Q2369.96 56.3053 2372.67 54.8122 L2372.67 60.715 Q2370 61.9649 2367.11 62.5899 Q2364.27 63.2149 2361.04 63.2149 Q2352.25 63.2149 2347.08 57.6941 Q2341.91 52.1733 2341.91 42.7984 Q2341.91 33.2845 2347.11 27.8332 Q2352.36 22.3818 2361.45 22.3818 Q2364.41 22.3818 2367.22 23.0068 Q2370.03 23.5971 2372.67 24.8124 M2363.64 62.208 Q2365.55 64.3608 2366.49 66.1663 Q2367.43 68.0066 2367.43 69.6732 Q2367.43 72.7635 2365.34 74.326 Q2363.26 75.9232 2359.16 75.9232 Q2357.57 75.9232 2356.04 75.7149 Q2354.54 75.5065 2353.05 75.0899 L2353.05 70.5413 Q2354.23 71.1316 2355.52 71.3746 Q2356.8 71.6524 2358.43 71.6524 Q2360.48 71.6524 2361.52 70.8191 Q2362.57 69.9857 2362.57 68.3885 Q2362.57 67.3469 2361.8 65.8191 Q2361.07 64.326 2359.51 62.208 L2363.64 62.208 Z" fill="#000000" fill-rule="nonzero" fill-opacity="1" /><path clip-path="url(#clip640)" d="M2401.45 42.6595 Q2393.71 42.6595 2390.73 44.4303 Q2387.74 46.2011 2387.74 50.472 Q2387.74 53.8747 2389.96 55.8886 Q2392.22 57.8677 2396.07 57.8677 Q2401.38 57.8677 2404.58 54.1178 Q2407.81 50.3331 2407.81 44.0831 L2407.81 42.6595 L2401.45 42.6595 M2414.2 40.0206 L2414.2 62.208 L2407.81 62.208 L2407.81 56.3053 Q2405.62 59.8469 2402.36 61.5483 Q2399.09 63.2149 2394.37 63.2149 Q2388.4 63.2149 2384.86 59.8816 Q2381.35 56.5136 2381.35 50.8886 Q2381.35 44.3262 2385.73 40.9928 Q2390.13 37.6595 2398.85 37.6595 L2407.81 37.6595 L2407.81 37.0345 Q2407.81 32.6248 2404.89 30.229 Q2402.01 27.7985 2396.77 27.7985 Q2393.43 27.7985 2390.27 28.5971 Q2387.11 29.3957 2384.2 30.9929 L2384.2 25.0901 Q2387.7 23.736 2391 23.0763 Q2394.3 22.3818 2397.43 22.3818 Q2405.86 22.3818 2410.03 26.7568 Q2414.2 31.1318 2414.2 40.0206 Z" fill="#000000" fill-rule="nonzero" fill-opacity="1" /><path clip-path="url(#clip642)" d="M316.418 2145.95 L330.256 2125.41 L344.094 2103.73 L357.932 2080.9 L371.769 2056.88 L385.607 2031.6 L399.445 2005.18 L413.283 1977.57 L427.121 1948.74 L440.958 1918.69 L454.796 1887.47 L468.634 1855.07 L482.472 1821.39 L496.31 1786.5 L510.148 1750.53 L523.985 1713.51 L537.823 1675.52 L551.661 1636.63 L565.499 1596.93 L579.337 1556.59 L593.174 1515.88 L607.012 1474.71 L620.85 1433.19 L634.688 1391.61 L648.526 1350.05 L662.364 1308.49 L676.201 1267.03 L690.039 1225.64 L703.877 1184.27 L717.715 1143.32 L731.553 1102.91 L745.39 1063.16 L759.228 1024.18 L773.066 986.009 L786.904 948.723 L800.742 911.804 L814.58 875.907 L828.417 841.097 L842.255 807.421 L856.093 774.912 L869.931 743.592 L883.769 713.951 L897.606 686.086 L911.444 659.925 L925.282 634.448 L939.12 610.352 L952.958 588.138 L966.796 566.566 L980.633 545.696 L994.471 526.046 L1008.31 507.635 L1022.15 490.024 L1035.98 473.106 L1049.82 456.817 L1063.66 441.344 L1077.5 427.964 L1091.34 416.44 L1105.17 405.6 L1119.01 394.329 L1132.85 384.597 L1146.69 375.353 L1160.53 366.059 L1174.36 357.328 L1188.2 349.137 L1202.04 341.479 L1215.88 334.326 L1229.71 328.125 L1243.55 323.112 L1257.39 318.719 L1271.23 314.877 L1285.07 310.434 L1298.9 306.43 L1312.74 302.89 L1326.58 299.19 L1340.42 295.741 L1354.25 292.541 L1368.09 289.585 L1381.93 287.006 L1395.77 284.576 L1409.61 282.314 L1423.44 280.161 L1437.28 277.941 L1451.12 275.992 L1464.96 274.206 L1478.79 272.596 L1492.63 271.092 L1506.47 269.562 L1520.31 268.144 L1534.15 266.828 L1547.98 265.675 L1561.82 264.668 L1575.66 263.738 L1589.5 262.872 L1603.34 262.066 L1617.17 261.333 L1631.01 260.655 L1644.85 260.08 L1658.69 259.549 L1672.52 259.059 L1686.36 258.605 L1700.2 258.188 L1714.04 257.813 L1727.88 257.465 L1741.71 257.142 L1755.55 256.842 L1769.39 256.564 L1783.23 256.306 L1797.06 256.068 L1810.9 255.847 L1824.74 255.641 L1838.58 255.45 L1852.42 255.272 L1866.25 255.106 L1880.09 254.952 L1893.93 254.785 L1907.77 254.616 L1921.61 254.46 L1935.44 254.315 L1949.28 254.18 L1963.12 254.056 L1976.96 253.941 L1990.79 253.834 L2004.63 253.735 L2018.47 253.646 L2032.31 253.563 L2046.15 253.486 L2059.98 253.416 L2073.82 253.352 L2087.66 253.292 L2101.5 253.238 L2115.33 253.188 L2129.17 253.141 L2143.01 253.099 L2156.85 253.059 L2170.69 253.022 L2184.52 252.986 L2198.36 252.952 L2212.2 252.921 L2226.04 252.891 L2239.87 252.864 L2253.71 252.84 L2267.55 252.817 L2281.39 252.796 L2295.23 252.776 L2309.06 252.758 L2322.9 252.741 L2336.74 252.724 L2350.58 252.712 L2364.42 252.701 L2378.25 252.691 L2392.09 252.681 L2405.93 252.671 L2419.77 252.662 L2433.6 252.652 L2447.44 252.643 L2461.28 252.634 L2475.12 252.626 L2488.96 252.618 L2502.79 252.611 L2516.63 252.605 L2530.47 252.599 L2544.31 252.593 L2558.14 252.589 L2571.98 252.585 L2585.82 252.581 L2599.66 252.578 L2613.5 252.576 L2627.33 252.574 L2641.17 252.573 L2655.01 252.572 L2668.85 252.571 L2682.69 252.571 L2696.52 252.571 L2710.36 252.571 L2724.2 252.571 L2738.04 252.571 L2751.87 252.571 L2765.71 252.571 L2779.55 252.57 L2793.39 252.569 L2807.23 252.569 L2821.06 252.568 L2834.9 252.567 L2848.74 252.566 L2862.58 252.565 L2876.41 252.564 L2890.25 252.563 L2904.09 252.562 L2917.93 252.561 L2931.77 252.559 L2945.6 252.558 L2959.44 252.558 L2973.28 252.557 L2987.12 252.556 L3000.96 252.555 L3014.79 252.555 L3028.63 252.554 L3042.47 252.553 L3056.31 252.553 L3070.14 252.552 L3070.14 180.282 L3056.31 180.283 L3042.47 180.284 L3028.63 180.284 L3014.79 180.285 L3000.96 180.286 L2987.12 180.287 L2973.28 180.288 L2959.44 180.289 L2945.6 180.289 L2931.77 180.289 L2917.93 180.289 L2904.09 180.289 L2890.25 180.289 L2876.41 180.289 L2862.58 180.288 L2848.74 180.287 L2834.9 180.286 L2821.06 180.286 L2807.23 180.285 L2793.39 180.285 L2779.55 180.284 L2765.71 180.284 L2751.87 180.285 L2738.04 180.285 L2724.2 180.286 L2710.36 180.288 L2696.52 180.289 L2682.69 180.291 L2668.85 180.294 L2655.01 180.297 L2641.17 180.3 L2627.33 180.304 L2613.5 180.308 L2599.66 180.313 L2585.82 180.318 L2571.98 180.323 L2558.14 180.328 L2544.31 180.334 L2530.47 180.34 L2516.63 180.346 L2502.79 180.352 L2488.96 180.358 L2475.12 180.363 L2461.28 180.369 L2447.44 180.374 L2433.6 180.379 L2419.77 180.385 L2405.93 180.39 L2392.09 180.396 L2378.25 180.403 L2364.42 180.411 L2350.58 180.42 L2336.74 180.43 L2322.9 180.442 L2309.06 180.455 L2295.23 180.47 L2281.39 180.487 L2267.55 180.505 L2253.71 180.526 L2239.87 180.548 L2226.04 180.573 L2212.2 180.599 L2198.36 180.628 L2184.52 180.658 L2170.69 180.691 L2156.85 180.724 L2143.01 180.756 L2129.17 180.79 L2115.33 180.826 L2101.5 180.864 L2087.66 180.905 L2073.82 180.95 L2059.98 180.999 L2046.15 181.053 L2032.31 181.112 L2018.47 181.177 L2004.63 181.248 L1990.79 181.325 L1976.96 181.409 L1963.12 181.501 L1949.28 181.6 L1935.44 181.707 L1921.61 181.822 L1907.77 181.945 L1893.93 182.077 L1880.09 182.217 L1866.25 182.367 L1852.42 182.527 L1838.58 182.699 L1824.74 182.882 L1810.9 183.078 L1797.06 183.291 L1783.23 183.52 L1769.39 183.77 L1755.55 184.04 L1741.71 184.334 L1727.88 184.653 L1714.04 184.999 L1700.2 185.373 L1686.36 185.779 L1672.52 186.217 L1658.69 186.689 L1644.85 187.197 L1631.01 187.742 L1617.17 188.328 L1603.34 188.957 L1589.5 189.632 L1575.66 190.357 L1561.82 191.136 L1547.98 191.976 L1534.15 192.882 L1520.31 193.861 L1506.47 194.919 L1492.63 196.062 L1478.79 197.441 L1464.96 198.95 L1451.12 200.551 L1437.28 202.267 L1423.44 204.117 L1409.61 205.959 L1395.77 207.867 L1381.93 209.923 L1368.09 212.139 L1354.25 214.846 L1340.42 217.793 L1326.58 220.951 L1312.74 224.297 L1298.9 227.863 L1285.07 231.648 L1271.23 236.424 L1257.39 240.727 L1243.55 245.246 L1229.71 250.102 L1215.88 255.319 L1202.04 260.919 L1188.2 266.925 L1174.36 273.359 L1160.53 280.012 L1146.69 287.073 L1132.85 294.613 L1119.01 302.688 L1105.17 311.71 L1091.34 321.878 L1077.5 331.985 L1063.66 342.857 L1049.82 354.411 L1035.98 366.748 L1022.15 379.532 L1008.31 392.893 L994.471 407.4 L980.633 422.441 L966.796 439.263 L952.958 457.31 L939.12 476.375 L925.282 496.008 L911.444 515.912 L897.606 536.734 L883.769 558.293 L869.931 581.682 L856.093 605.348 L842.255 630.286 L828.417 658.548 L814.58 687.717 L800.742 717.021 L786.904 746.706 L773.066 777.606 L759.228 810.616 L745.39 844.027 L731.553 878.559 L717.715 914.166 L703.877 951.238 L690.039 988.782 L676.201 1027.69 L662.364 1068.07 L648.526 1109.34 L634.688 1150.71 L620.85 1191.93 L607.012 1233.31 L593.174 1275.28 L579.337 1317.57 L565.499 1359.85 L551.661 1401.94 L537.823 1443.74 L523.985 1485.23 L510.148 1526.3 L496.31 1566.79 L482.472 1606.61 L468.634 1645.71 L454.796 1684.01 L440.958 1721.43 L427.121 1757.89 L413.283 1793.68 L399.445 1828.31 L385.607 1861.65 L371.769 1893.7 L357.932 1924.57 L344.094 1954.24 L330.256 1982.71 L316.418 2009.97  Z" fill="#009af9" fill-rule="evenodd" fill-opacity="0.2"/>
<polyline clip-path="url(#clip642)" style="stroke:#009af9; stroke-linecap:round; stroke-linejoin:round; stroke-width:12; stroke-opacity:1; fill:none" points="316.418,2072.62 330.256,2048.33 344.094,2022.89 357.932,1996.24 371.769,1968.39 385.607,1939.22 399.445,1908.84 413.283,1877.27 427.121,1844.54 440.958,1810.67 454.796,1775.7 468.634,1739.7 482.472,1702.72 496.31,1664.82 510.148,1626.21 523.985,1586.83 537.823,1546.58 551.661,1505.73 565.499,1463.87 579.337,1421.88 593.174,1380.18 607.012,1338.37 620.85,1296.27 634.688,1253.78 648.526,1210.87 662.364,1169.33 676.201,1128.64 690.039,1088.43 703.877,1048.75 717.715,1009.83 731.553,971.747 745.39,935.396 759.228,900.302 773.066,865.788 786.904,832.216 800.742,799.113 814.58,767.35 828.417,736.778 842.255,707.411 856.093,679.268 869.931,652.756 883.769,627.935 897.606,603.166 911.444,580.542 925.282,558.645 939.12,537.501 952.958,517.918 966.796,499.621 980.633,482.367 994.471,465.119 1008.31,449.396 1022.15,434.091 1035.98,420.78 1049.82,407.77 1063.66,395.323 1077.5,382.682 1091.34,371.835 1105.17,360.739 1119.01,350.379 1132.85,340.835 1146.69,332.454 1160.53,324.425 1174.36,316.612 1188.2,309.892 1202.04,303.46 1215.88,297.741 1229.71,291.881 1243.55,286.068 1257.39,281.492 1271.23,276.737 1285.07,272.274 1298.9,268.597 1312.74,265.076 1326.58,261.544 1340.42,258.519 1354.25,255.828 1368.09,253.274 1381.93,250.926 1395.77,248.693 1409.61,246.682 1423.44,244.334 1437.28,242.014 1451.12,240.139 1464.96,238.435 1478.79,237.151 1492.63,235.919 1506.47,234.381 1520.31,233.146 1534.15,232.115 1547.98,231.038 1561.82,230.037 1575.66,229.186 1589.5,228.393 1603.34,227.608 1617.17,226.922 1631.01,226.247 1644.85,225.699 1658.69,225.059 1672.52,224.493 1686.36,223.97 1700.2,223.47 1714.04,223.042 1727.88,222.646 1741.71,222.28 1755.55,221.941 1769.39,221.627 1783.23,221.335 1797.06,221.062 1810.9,220.807 1824.74,220.568 1838.58,220.345 1852.42,220.136 1866.25,219.942 1880.09,219.761 1893.93,219.597 1907.77,219.456 1921.61,219.326 1935.44,219.206 1949.28,219.096 1963.12,218.995 1976.96,218.903 1990.79,218.819 2004.63,218.742 2018.47,218.673 2032.31,218.61 2046.15,218.553 2059.98,218.501 2073.82,218.453 2087.66,218.409 2101.5,218.367 2115.33,218.328 2129.17,218.289 2143.01,218.251 2156.85,218.214 2170.69,218.179 2184.52,218.146 2198.36,218.115 2212.2,218.087 2226.04,218.06 2239.87,218.035 2253.71,218.012 2267.55,217.991 2281.39,217.972 2295.23,217.955 2309.06,217.939 2322.9,217.926 2336.74,217.913 2350.58,217.903 2364.42,217.893 2378.25,217.885 2392.09,217.878 2405.93,217.871 2419.77,217.865 2433.6,217.86 2447.44,217.855 2461.28,217.85 2475.12,217.845 2488.96,217.84 2502.79,217.834 2516.63,217.828 2530.47,217.822 2544.31,217.816 2558.14,217.81 2571.98,217.805 2585.82,217.799 2599.66,217.794 2613.5,217.79 2627.33,217.785 2641.17,217.781 2655.01,217.778 2668.85,217.774 2682.69,217.772 2696.52,217.769 2710.36,217.768 2724.2,217.766 2738.04,217.765 2751.87,217.764 2765.71,217.764 2779.55,217.764 2793.39,217.764 2807.23,217.765 2821.06,217.766 2834.9,217.767 2848.74,217.768 2862.58,217.769 2876.41,217.77 2890.25,217.771 2904.09,217.772 2917.93,217.773 2931.77,217.773 2945.6,217.773 2959.44,217.772 2973.28,217.771 2987.12,217.77 3000.96,217.769 3014.79,217.768 3028.63,217.767 3042.47,217.766 3056.31,217.766 3070.14,217.765 "/>
<path clip-path="url(#clip642)" d="M316.418 2129.11 L330.256 2107.65 L344.094 2085.03 L357.932 2061.24 L371.769 2036.24 L385.607 2010.02 L399.445 1982.57 L413.283 1953.95 L427.121 1924.36 L440.958 1893.57 L454.796 1861.22 L468.634 1827.64 L482.472 1793.09 L496.31 1757.63 L510.148 1721.03 L523.985 1683.32 L537.823 1644.67 L551.661 1605.16 L565.499 1564.92 L579.337 1524.02 L593.174 1482.51 L607.012 1440.7 L620.85 1398.71 L634.688 1356.54 L648.526 1314.27 L662.364 1271.98 L676.201 1229.86 L690.039 1188.03 L703.877 1146.59 L717.715 1105.66 L731.553 1065.33 L745.39 1025.67 L759.228 986.747 L773.066 948.663 L786.904 911.079 L800.742 874.77 L814.58 839.683 L828.417 806.365 L842.255 774.265 L856.093 742.977 L869.931 714.017 L883.769 685.904 L897.606 658.973 L911.444 633.58 L925.282 610.044 L939.12 586.711 L952.958 563.401 L966.796 542.331 L980.633 522.73 L994.471 504.38 L1008.31 485.651 L1022.15 469.527 L1035.98 453.562 L1049.82 438.618 L1063.66 424.729 L1077.5 412.453 L1091.34 400.026 L1105.17 388.206 L1119.01 377.52 L1132.85 367.708 L1146.69 359.08 L1160.53 350.778 L1174.36 342.975 L1188.2 335.992 L1202.04 329.052 L1215.88 322.595 L1229.71 316.659 L1243.55 311.071 L1257.39 305.748 L1271.23 300.843 L1285.07 296.2 L1298.9 292.627 L1312.74 288.743 L1326.58 285.564 L1340.42 282.407 L1354.25 279.226 L1368.09 276.326 L1381.93 273.618 L1395.77 271.094 L1409.61 268.745 L1423.44 266.563 L1437.28 264.538 L1451.12 262.664 L1464.96 260.93 L1478.79 259.328 L1492.63 257.85 L1506.47 256.485 L1520.31 255.226 L1534.15 254.062 L1547.98 252.985 L1561.82 251.986 L1575.66 251.054 L1589.5 250.173 L1603.34 249.368 L1617.17 248.55 L1631.01 247.823 L1644.85 247.147 L1658.69 246.52 L1672.52 245.94 L1686.36 245.402 L1700.2 244.905 L1714.04 244.446 L1727.88 244.021 L1741.71 243.628 L1755.55 243.265 L1769.39 242.929 L1783.23 242.617 L1797.06 242.327 L1810.9 242.057 L1824.74 241.804 L1838.58 241.566 L1852.42 241.343 L1866.25 241.134 L1880.09 240.94 L1893.93 240.76 L1907.77 240.593 L1921.61 240.439 L1935.44 240.297 L1949.28 240.167 L1963.12 240.049 L1976.96 239.941 L1990.79 239.842 L2004.63 239.753 L2018.47 239.672 L2032.31 239.598 L2046.15 239.531 L2059.98 239.47 L2073.82 239.413 L2087.66 239.36 L2101.5 239.31 L2115.33 239.261 L2129.17 239.213 L2143.01 239.166 L2156.85 239.121 L2170.69 239.08 L2184.52 239.041 L2198.36 239.004 L2212.2 238.97 L2226.04 238.939 L2239.87 238.91 L2253.71 238.884 L2267.55 238.859 L2281.39 238.837 L2295.23 238.818 L2309.06 238.8 L2322.9 238.784 L2336.74 238.77 L2350.58 238.757 L2364.42 238.746 L2378.25 238.736 L2392.09 238.726 L2405.93 238.718 L2419.77 238.71 L2433.6 238.703 L2447.44 238.695 L2461.28 238.687 L2475.12 238.679 L2488.96 238.671 L2502.79 238.663 L2516.63 238.655 L2530.47 238.648 L2544.31 238.64 L2558.14 238.633 L2571.98 238.627 L2585.82 238.621 L2599.66 238.615 L2613.5 238.61 L2627.33 238.605 L2641.17 238.601 L2655.01 238.598 L2668.85 238.595 L2682.69 238.592 L2696.52 238.59 L2710.36 238.589 L2724.2 238.588 L2738.04 238.587 L2751.87 238.587 L2765.71 238.588 L2779.55 238.588 L2793.39 238.589 L2807.23 238.59 L2821.06 238.591 L2834.9 238.592 L2848.74 238.594 L2862.58 238.595 L2876.41 238.595 L2890.25 238.596 L2904.09 238.596 L2917.93 238.595 L2931.77 238.594 L2945.6 238.593 L2959.44 238.591 L2973.28 238.59 L2987.12 238.589 L3000.96 238.588 L3014.79 238.587 L3028.63 238.586 L3042.47 238.585 L3056.31 238.584 L3070.14 238.583 L3070.14 193.738 L3056.31 193.739 L3042.47 193.739 L3028.63 193.74 L3014.79 193.741 L3000.96 193.741 L2987.12 193.742 L2973.28 193.743 L2959.44 193.744 L2945.6 193.745 L2931.77 193.746 L2917.93 193.747 L2904.09 193.749 L2890.25 193.75 L2876.41 193.751 L2862.58 193.753 L2848.74 193.754 L2834.9 193.754 L2821.06 193.754 L2807.23 193.753 L2793.39 193.752 L2779.55 193.751 L2765.71 193.751 L2751.87 193.75 L2738.04 193.749 L2724.2 193.749 L2710.36 193.748 L2696.52 193.748 L2682.69 193.749 L2668.85 193.75 L2655.01 193.751 L2641.17 193.753 L2627.33 193.756 L2613.5 193.759 L2599.66 193.762 L2585.82 193.766 L2571.98 193.771 L2558.14 193.776 L2544.31 193.782 L2530.47 193.788 L2516.63 193.795 L2502.79 193.802 L2488.96 193.81 L2475.12 193.818 L2461.28 193.826 L2447.44 193.835 L2433.6 193.843 L2419.77 193.852 L2405.93 193.86 L2392.09 193.868 L2378.25 193.876 L2364.42 193.884 L2350.58 193.893 L2336.74 193.902 L2322.9 193.912 L2309.06 193.924 L2295.23 193.937 L2281.39 193.951 L2267.55 193.968 L2253.71 193.986 L2239.87 194.007 L2226.04 194.03 L2212.2 194.055 L2198.36 194.083 L2184.52 194.113 L2170.69 194.147 L2156.85 194.183 L2143.01 194.221 L2129.17 194.263 L2115.33 194.308 L2101.5 194.355 L2087.66 194.406 L2073.82 194.459 L2059.98 194.513 L2046.15 194.57 L2032.31 194.629 L2018.47 194.693 L2004.63 194.763 L1990.79 194.84 L1976.96 194.925 L1963.12 195.018 L1949.28 195.12 L1935.44 195.232 L1921.61 195.354 L1907.77 195.488 L1893.93 195.633 L1880.09 195.791 L1866.25 195.962 L1852.42 196.147 L1838.58 196.347 L1824.74 196.561 L1810.9 196.791 L1797.06 197.037 L1783.23 197.299 L1769.39 197.579 L1755.55 197.878 L1741.71 198.199 L1727.88 198.546 L1714.04 198.92 L1700.2 199.325 L1686.36 199.763 L1672.52 200.298 L1658.69 200.906 L1644.85 201.537 L1631.01 202.211 L1617.17 202.893 L1603.34 203.515 L1589.5 204.195 L1575.66 204.931 L1561.82 205.744 L1547.98 206.828 L1534.15 208.132 L1520.31 209.475 L1506.47 210.657 L1492.63 211.867 L1478.79 213.155 L1464.96 214.877 L1451.12 216.967 L1437.28 219.258 L1423.44 220.999 L1409.61 223.083 L1395.77 225.483 L1381.93 227.653 L1368.09 230.039 L1354.25 232.599 L1340.42 235.369 L1326.58 238.369 L1312.74 242.214 L1298.9 246.221 L1285.07 250.54 L1271.23 255.49 L1257.39 260.74 L1243.55 265.143 L1229.71 269.726 L1215.88 274.868 L1202.04 281.194 L1188.2 286.686 L1174.36 292.712 L1160.53 299.73 L1146.69 306.766 L1132.85 315.202 L1119.01 322.698 L1105.17 331.181 L1091.34 339.92 L1077.5 349.306 L1063.66 359.697 L1049.82 372.497 L1035.98 384.542 L1022.15 397.92 L1008.31 411.184 L994.471 425.029 L980.633 439.418 L966.796 456.06 L952.958 472.814 L939.12 490.083 L925.282 508.894 L911.444 529.48 L897.606 550.948 L883.769 572.53 L869.931 595.263 L856.093 619.291 L842.255 645.94 L828.417 672.832 L814.58 702.151 L800.742 731.962 L786.904 762.23 L773.066 793.72 L759.228 826.393 L745.39 860.218 L731.553 895.488 L717.715 932.184 L703.877 970.561 L690.039 1009.96 L676.201 1050.18 L662.364 1090.63 L648.526 1129.91 L634.688 1170.61 L620.85 1211.54 L607.012 1253.52 L593.174 1295.78 L579.337 1338.25 L565.499 1380.5 L551.661 1422.38 L537.823 1464.35 L523.985 1506.23 L510.148 1547.67 L496.31 1588.3 L482.472 1628.35 L468.634 1667.58 L454.796 1705.91 L440.958 1743.27 L427.121 1779.58 L413.283 1814.72 L399.445 1848.56 L385.607 1881.22 L371.769 1912.7 L357.932 1942.93 L344.094 1971.93 L330.256 1999.71 L316.418 2026.26  Z" fill="#e26f46" fill-rule="evenodd" fill-opacity="0.2"/>
<polyline clip-path="url(#clip642)" style="stroke:#e26f46; stroke-linecap:round; stroke-linejoin:round; stroke-width:12; stroke-opacity:1; fill:none" points="316.418,2072.62 330.256,2048.33 344.094,2022.89 357.932,1996.24 371.769,1968.39 385.607,1939.22 399.445,1908.84 413.283,1877.27 427.121,1844.54 440.958,1810.67 454.796,1775.7 468.634,1739.7 482.472,1702.72 496.31,1664.82 510.148,1626.21 523.985,1586.83 537.823,1546.58 551.661,1505.73 565.499,1463.87 579.337,1421.88 593.174,1380.18 607.012,1338.37 620.85,1296.27 634.688,1253.78 648.526,1210.87 662.364,1169.33 676.201,1128.64 690.039,1088.43 703.877,1048.75 717.715,1009.83 731.553,971.747 745.39,935.396 759.228,900.302 773.066,865.788 786.904,832.216 800.742,799.113 814.58,767.35 828.417,736.778 842.255,707.411 856.093,679.268 869.931,652.756 883.769,627.935 897.606,603.166 911.444,580.542 925.282,558.645 939.12,537.501 952.958,517.918 966.796,499.621 980.633,482.367 994.471,465.119 1008.31,449.396 1022.15,434.091 1035.98,420.78 1049.82,407.77 1063.66,395.323 1077.5,382.682 1091.34,371.835 1105.17,360.739 1119.01,350.379 1132.85,340.835 1146.69,332.454 1160.53,324.425 1174.36,316.612 1188.2,309.892 1202.04,303.46 1215.88,297.741 1229.71,291.881 1243.55,286.068 1257.39,281.492 1271.23,276.737 1285.07,272.274 1298.9,268.597 1312.74,265.076 1326.58,261.544 1340.42,258.519 1354.25,255.828 1368.09,253.274 1381.93,250.926 1395.77,248.693 1409.61,246.682 1423.44,244.334 1437.28,242.014 1451.12,240.139 1464.96,238.435 1478.79,237.151 1492.63,235.919 1506.47,234.381 1520.31,233.146 1534.15,232.115 1547.98,231.038 1561.82,230.037 1575.66,229.186 1589.5,228.393 1603.34,227.608 1617.17,226.922 1631.01,226.247 1644.85,225.699 1658.69,225.059 1672.52,224.493 1686.36,223.97 1700.2,223.47 1714.04,223.042 1727.88,222.646 1741.71,222.28 1755.55,221.941 1769.39,221.627 1783.23,221.335 1797.06,221.062 1810.9,220.807 1824.74,220.568 1838.58,220.345 1852.42,220.136 1866.25,219.942 1880.09,219.761 1893.93,219.597 1907.77,219.456 1921.61,219.326 1935.44,219.206 1949.28,219.096 1963.12,218.995 1976.96,218.903 1990.79,218.819 2004.63,218.742 2018.47,218.673 2032.31,218.61 2046.15,218.553 2059.98,218.501 2073.82,218.453 2087.66,218.409 2101.5,218.367 2115.33,218.328 2129.17,218.289 2143.01,218.251 2156.85,218.214 2170.69,218.179 2184.52,218.146 2198.36,218.115 2212.2,218.087 2226.04,218.06 2239.87,218.035 2253.71,218.012 2267.55,217.991 2281.39,217.972 2295.23,217.955 2309.06,217.939 2322.9,217.926 2336.74,217.913 2350.58,217.903 2364.42,217.893 2378.25,217.885 2392.09,217.878 2405.93,217.871 2419.77,217.865 2433.6,217.86 2447.44,217.855 2461.28,217.85 2475.12,217.845 2488.96,217.84 2502.79,217.834 2516.63,217.828 2530.47,217.822 2544.31,217.816 2558.14,217.81 2571.98,217.805 2585.82,217.799 2599.66,217.794 2613.5,217.79 2627.33,217.785 2641.17,217.781 2655.01,217.778 2668.85,217.774 2682.69,217.772 2696.52,217.769 2710.36,217.768 2724.2,217.766 2738.04,217.765 2751.87,217.764 2765.71,217.764 2779.55,217.764 2793.39,217.764 2807.23,217.765 2821.06,217.766 2834.9,217.767 2848.74,217.768 2862.58,217.769 2876.41,217.77 2890.25,217.771 2904.09,217.772 2917.93,217.773 2931.77,217.773 2945.6,217.773 2959.44,217.772 2973.28,217.771 2987.12,217.77 3000.96,217.769 3014.79,217.768 3028.63,217.767 3042.47,217.766 3056.31,217.766 3070.14,217.765 "/>
<path clip-path="url(#clip640)" d="M2663.79 2135.47 L3055.46 2135.47 L3055.46 1979.95 L2663.79 1979.95  Z" fill="#eaeaea" fill-rule="evenodd" fill-opacity="1"/>
<polyline clip-path="url(#clip640)" style="stroke:#ffffff; stroke-linecap:round; stroke-linejoin:round; stroke-width:4; stroke-opacity:1; fill:none" points="2663.79,2135.47 3055.46,2135.47 3055.46,1979.95 2663.79,1979.95 2663.79,2135.47 "/>
<polyline clip-path="url(#clip640)" style="stroke:#009af9; stroke-linecap:round; stroke-linejoin:round; stroke-width:12; stroke-opacity:1; fill:none" points="2696.23,2031.79 2890.82,2031.79 "/>
<path clip-path="url(#clip640)" d="M2925.48 2048.35 L2925.48 2044.09 Q2927.24 2044.92 2929.04 2045.36 Q2930.85 2045.8 2932.59 2045.8 Q2937.22 2045.8 2939.65 2042.7 Q2942.1 2039.58 2942.45 2033.23 Q2941.1 2035.22 2939.04 2036.29 Q2936.98 2037.35 2934.48 2037.35 Q2929.3 2037.35 2926.27 2034.23 Q2923.26 2031.08 2923.26 2025.64 Q2923.26 2020.32 2926.4 2017.1 Q2929.55 2013.88 2934.78 2013.88 Q2940.78 2013.88 2943.93 2018.49 Q2947.1 2023.07 2947.1 2031.82 Q2947.1 2039.99 2943.21 2044.88 Q2939.34 2049.74 2932.79 2049.74 Q2931.03 2049.74 2929.23 2049.39 Q2927.42 2049.04 2925.48 2048.35 M2934.78 2033.7 Q2937.93 2033.7 2939.76 2031.54 Q2941.61 2029.39 2941.61 2025.64 Q2941.61 2021.91 2939.76 2019.76 Q2937.93 2017.58 2934.78 2017.58 Q2931.64 2017.58 2929.78 2019.76 Q2927.96 2021.91 2927.96 2025.64 Q2927.96 2029.39 2929.78 2031.54 Q2931.64 2033.7 2934.78 2033.7 Z" fill="#000000" fill-rule="nonzero" fill-opacity="1" /><path clip-path="url(#clip640)" d="M2955.55 2014.51 L2973.9 2014.51 L2973.9 2018.44 L2959.83 2018.44 L2959.83 2026.91 Q2960.85 2026.57 2961.87 2026.4 Q2962.89 2026.22 2963.9 2026.22 Q2969.69 2026.22 2973.07 2029.39 Q2976.45 2032.56 2976.45 2037.98 Q2976.45 2043.56 2972.98 2046.66 Q2969.51 2049.74 2963.19 2049.74 Q2961.01 2049.74 2958.74 2049.37 Q2956.5 2049 2954.09 2048.26 L2954.09 2043.56 Q2956.17 2044.69 2958.4 2045.25 Q2960.62 2045.8 2963.09 2045.8 Q2967.1 2045.8 2969.44 2043.7 Q2971.78 2041.59 2971.78 2037.98 Q2971.78 2034.37 2969.44 2032.26 Q2967.1 2030.15 2963.09 2030.15 Q2961.22 2030.15 2959.34 2030.57 Q2957.49 2030.99 2955.55 2031.87 L2955.55 2014.51 Z" fill="#000000" fill-rule="nonzero" fill-opacity="1" /><path clip-path="url(#clip640)" d="M3015.06 2033.86 Q3013.05 2033.86 3011.89 2035.57 Q3010.76 2037.28 3010.76 2040.34 Q3010.76 2043.35 3011.89 2045.08 Q3013.05 2046.8 3015.06 2046.8 Q3017.03 2046.8 3018.16 2045.08 Q3019.32 2043.35 3019.32 2040.34 Q3019.32 2037.31 3018.16 2035.59 Q3017.03 2033.86 3015.06 2033.86 M3015.06 2030.92 Q3018.72 2030.92 3020.87 2033.46 Q3023.02 2036.01 3023.02 2040.34 Q3023.02 2044.67 3020.85 2047.21 Q3018.7 2049.74 3015.06 2049.74 Q3011.36 2049.74 3009.21 2047.21 Q3007.05 2044.67 3007.05 2040.34 Q3007.05 2035.99 3009.21 2033.46 Q3011.38 2030.92 3015.06 2030.92 M2991.17 2016.82 Q2989.18 2016.82 2988.02 2018.56 Q2986.89 2020.27 2986.89 2023.28 Q2986.89 2026.33 2988.02 2028.05 Q2989.16 2029.76 2991.17 2029.76 Q2993.19 2029.76 2994.32 2028.05 Q2995.48 2026.33 2995.48 2023.28 Q2995.48 2020.29 2994.32 2018.56 Q2993.16 2016.82 2991.17 2016.82 M3012.08 2013.88 L3015.78 2013.88 L2994.16 2049.74 L2990.46 2049.74 L3012.08 2013.88 M2991.17 2013.88 Q2994.83 2013.88 2997.01 2016.43 Q2999.18 2018.95 2999.18 2023.28 Q2999.18 2027.65 2997.01 2030.18 Q2994.85 2032.7 2991.17 2032.7 Q2987.49 2032.7 2985.34 2030.18 Q2983.21 2027.63 2983.21 2023.28 Q2983.21 2018.97 2985.36 2016.43 Q2987.52 2013.88 2991.17 2013.88 Z" fill="#000000" fill-rule="nonzero" fill-opacity="1" /><polyline clip-path="url(#clip640)" style="stroke:#e26f46; stroke-linecap:round; stroke-linejoin:round; stroke-width:12; stroke-opacity:1; fill:none" points="2696.23,2083.63 2890.82,2083.63 "/>
<path clip-path="url(#clip640)" d="M2935.59 2081.76 Q2932.45 2081.76 2930.59 2083.92 Q2928.77 2086.07 2928.77 2089.82 Q2928.77 2093.55 2930.59 2095.72 Q2932.45 2097.87 2935.59 2097.87 Q2938.74 2097.87 2940.57 2095.72 Q2942.42 2093.55 2942.42 2089.82 Q2942.42 2086.07 2940.57 2083.92 Q2938.74 2081.76 2935.59 2081.76 M2944.88 2067.11 L2944.88 2071.37 Q2943.12 2070.54 2941.31 2070.1 Q2939.53 2069.66 2937.77 2069.66 Q2933.14 2069.66 2930.69 2072.78 Q2928.26 2075.91 2927.91 2082.23 Q2929.28 2080.21 2931.34 2079.15 Q2933.4 2078.06 2935.87 2078.06 Q2941.08 2078.06 2944.09 2081.23 Q2947.12 2084.38 2947.12 2089.82 Q2947.12 2095.14 2943.97 2098.36 Q2940.83 2101.58 2935.59 2101.58 Q2929.6 2101.58 2926.43 2096.99 Q2923.26 2092.39 2923.26 2083.66 Q2923.26 2075.47 2927.15 2070.61 Q2931.03 2065.72 2937.59 2065.72 Q2939.34 2065.72 2941.13 2066.07 Q2942.93 2066.42 2944.88 2067.11 Z" fill="#000000" fill-rule="nonzero" fill-opacity="1" /><path clip-path="url(#clip640)" d="M2965.18 2084.49 Q2961.84 2084.49 2959.92 2086.28 Q2958.03 2088.06 2958.03 2091.18 Q2958.03 2094.31 2959.92 2096.09 Q2961.84 2097.87 2965.18 2097.87 Q2968.51 2097.87 2970.43 2096.09 Q2972.35 2094.29 2972.35 2091.18 Q2972.35 2088.06 2970.43 2086.28 Q2968.53 2084.49 2965.18 2084.49 M2960.5 2082.5 Q2957.49 2081.76 2955.8 2079.7 Q2954.14 2077.64 2954.14 2074.68 Q2954.14 2070.54 2957.08 2068.13 Q2960.04 2065.72 2965.18 2065.72 Q2970.34 2065.72 2973.28 2068.13 Q2976.22 2070.54 2976.22 2074.68 Q2976.22 2077.64 2974.53 2079.7 Q2972.86 2081.76 2969.88 2082.5 Q2973.26 2083.29 2975.13 2085.58 Q2977.03 2087.87 2977.03 2091.18 Q2977.03 2096.21 2973.95 2098.89 Q2970.9 2101.58 2965.18 2101.58 Q2959.46 2101.58 2956.38 2098.89 Q2953.33 2096.21 2953.33 2091.18 Q2953.33 2087.87 2955.22 2085.58 Q2957.12 2083.29 2960.5 2082.5 M2958.79 2075.12 Q2958.79 2077.8 2960.46 2079.31 Q2962.15 2080.81 2965.18 2080.81 Q2968.19 2080.81 2969.88 2079.31 Q2971.59 2077.8 2971.59 2075.12 Q2971.59 2072.43 2969.88 2070.93 Q2968.19 2069.42 2965.18 2069.42 Q2962.15 2069.42 2960.46 2070.93 Q2958.79 2072.43 2958.79 2075.12 Z" fill="#000000" fill-rule="nonzero" fill-opacity="1" /><path clip-path="url(#clip640)" d="M3014.74 2085.7 Q3012.72 2085.7 3011.57 2087.41 Q3010.43 2089.12 3010.43 2092.18 Q3010.43 2095.19 3011.57 2096.92 Q3012.72 2098.64 3014.74 2098.64 Q3016.71 2098.64 3017.84 2096.92 Q3019 2095.19 3019 2092.18 Q3019 2089.15 3017.84 2087.43 Q3016.71 2085.7 3014.74 2085.7 M3014.74 2082.76 Q3018.4 2082.76 3020.55 2085.3 Q3022.7 2087.85 3022.7 2092.18 Q3022.7 2096.51 3020.52 2099.05 Q3018.37 2101.58 3014.74 2101.58 Q3011.03 2101.58 3008.88 2099.05 Q3006.73 2096.51 3006.73 2092.18 Q3006.73 2087.83 3008.88 2085.3 Q3011.06 2082.76 3014.74 2082.76 M2990.85 2068.66 Q2988.86 2068.66 2987.7 2070.4 Q2986.57 2072.11 2986.57 2075.12 Q2986.57 2078.17 2987.7 2079.89 Q2988.84 2081.6 2990.85 2081.6 Q2992.86 2081.6 2994 2079.89 Q2995.15 2078.17 2995.15 2075.12 Q2995.15 2072.13 2994 2070.4 Q2992.84 2068.66 2990.85 2068.66 M3011.75 2065.72 L3015.46 2065.72 L2993.84 2101.58 L2990.13 2101.58 L3011.75 2065.72 M2990.85 2065.72 Q2994.51 2065.72 2996.68 2068.27 Q2998.86 2070.79 2998.86 2075.12 Q2998.86 2079.49 2996.68 2082.02 Q2994.53 2084.54 2990.85 2084.54 Q2987.17 2084.54 2985.02 2082.02 Q2982.89 2079.47 2982.89 2075.12 Q2982.89 2070.81 2985.04 2068.27 Q2987.19 2065.72 2990.85 2065.72 Z" fill="#000000" fill-rule="nonzero" fill-opacity="1" /></svg>
