<?xml version="1.0" encoding="utf-8"?>
<svg xmlns="http://www.w3.org/2000/svg" xmlns:xlink="http://www.w3.org/1999/xlink" width="800" height="600" viewBox="0 0 3200 2400">
<defs>
  <clipPath id="clip990">
    <rect x="0" y="0" width="3200" height="2400"/>
  </clipPath>
</defs>
<path clip-path="url(#clip990)" d="M0 2400 L3200 2400 L3200 0 L0 0  Z" fill="#ffffff" fill-rule="evenodd" fill-opacity="1"/>
<defs>
  <clipPath id="clip991">
    <rect x="640" y="0" width="2241" height="2241"/>
  </clipPath>
</defs>
<path clip-path="url(#clip990)" d="M233.806 2204.92 L3152.76 2204.92 L3152.76 121.312 L233.806 121.312  Z" fill="#eaeaea" fill-rule="evenodd" fill-opacity="1"/>
<defs>
  <clipPath id="clip992">
    <rect x="233" y="121" width="2920" height="2085"/>
  </clipPath>
</defs>
<polyline clip-path="url(#clip992)" style="stroke:#ffffff; stroke-linecap:round; stroke-linejoin:round; stroke-width:4; stroke-opacity:1; fill:none" points="316.418,2204.92 316.418,121.312 "/>
<polyline clip-path="url(#clip992)" style="stroke:#ffffff; stroke-linecap:round; stroke-linejoin:round; stroke-width:4; stroke-opacity:1; fill:none" points="867.163,2204.92 867.163,121.312 "/>
<polyline clip-path="url(#clip992)" style="stroke:#ffffff; stroke-linecap:round; stroke-linejoin:round; stroke-width:4; stroke-opacity:1; fill:none" points="1417.91,2204.92 1417.91,121.312 "/>
<polyline clip-path="url(#clip992)" style="stroke:#ffffff; stroke-linecap:round; stroke-linejoin:round; stroke-width:4; stroke-opacity:1; fill:none" points="1968.65,2204.92 1968.65,121.312 "/>
<polyline clip-path="url(#clip992)" style="stroke:#ffffff; stroke-linecap:round; stroke-linejoin:round; stroke-width:4; stroke-opacity:1; fill:none" points="2519.4,2204.92 2519.4,121.312 "/>
<polyline clip-path="url(#clip992)" style="stroke:#ffffff; stroke-linecap:round; stroke-linejoin:round; stroke-width:4; stroke-opacity:1; fill:none" points="3070.14,2204.92 3070.14,121.312 "/>
<polyline clip-path="url(#clip992)" style="stroke:#ffffff; stroke-linecap:round; stroke-linejoin:round; stroke-width:2; stroke-opacity:1; fill:none" points="591.791,2204.92 591.791,121.312 "/>
<polyline clip-path="url(#clip992)" style="stroke:#ffffff; stroke-linecap:round; stroke-linejoin:round; stroke-width:2; stroke-opacity:1; fill:none" points="1142.54,2204.92 1142.54,121.312 "/>
<polyline clip-path="url(#clip992)" style="stroke:#ffffff; stroke-linecap:round; stroke-linejoin:round; stroke-width:2; stroke-opacity:1; fill:none" points="1693.28,2204.92 1693.28,121.312 "/>
<polyline clip-path="url(#clip992)" style="stroke:#ffffff; stroke-linecap:round; stroke-linejoin:round; stroke-width:2; stroke-opacity:1; fill:none" points="2244.03,2204.92 2244.03,121.312 "/>
<polyline clip-path="url(#clip992)" style="stroke:#ffffff; stroke-linecap:round; stroke-linejoin:round; stroke-width:2; stroke-opacity:1; fill:none" points="2794.77,2204.92 2794.77,121.312 "/>
<polyline clip-path="url(#clip990)" style="stroke:#ffffff; stroke-linecap:round; stroke-linejoin:round; stroke-width:4; stroke-opacity:1; fill:none" points="233.806,2204.92 3152.76,2204.92 "/>
<polyline clip-path="url(#clip990)" style="stroke:#333333; stroke-linecap:round; stroke-linejoin:round; stroke-width:4; stroke-opacity:1; fill:none" points="316.418,2204.92 316.418,2223.82 "/>
<polyline clip-path="url(#clip990)" style="stroke:#333333; stroke-linecap:round; stroke-linejoin:round; stroke-width:4; stroke-opacity:1; fill:none" points="867.163,2204.92 867.163,2223.82 "/>
<polyline clip-path="url(#clip990)" style="stroke:#333333; stroke-linecap:round; stroke-linejoin:round; stroke-width:4; stroke-opacity:1; fill:none" points="1417.91,2204.92 1417.91,2223.82 "/>
<polyline clip-path="url(#clip990)" style="stroke:#333333; stroke-linecap:round; stroke-linejoin:round; stroke-width:4; stroke-opacity:1; fill:none" points="1968.65,2204.92 1968.65,2223.82 "/>
<polyline clip-path="url(#clip990)" style="stroke:#333333; stroke-linecap:round; stroke-linejoin:round; stroke-width:4; stroke-opacity:1; fill:none" points="2519.4,2204.92 2519.4,2223.82 "/>
<polyline clip-path="url(#clip990)" style="stroke:#333333; stroke-linecap:round; stroke-linejoin:round; stroke-width:4; stroke-opacity:1; fill:none" points="3070.14,2204.92 3070.14,2223.82 "/>
<polyline clip-path="url(#clip990)" style="stroke:#333333; stroke-linecap:round; stroke-linejoin:round; stroke-width:4; stroke-opacity:1; fill:none" points="591.791,2204.92 591.791,2214.37 "/>
<polyline clip-path="url(#clip990)" style="stroke:#333333; stroke-linecap:round; stroke-linejoin:round; stroke-width:4; stroke-opacity:1; fill:none" points="1142.54,2204.92 1142.54,2214.37 "/>
<polyline clip-path="url(#clip990)" style="stroke:#333333; stroke-linecap:round; stroke-linejoin:round; stroke-width:4; stroke-opacity:1; fill:none" points="1693.28,2204.92 1693.28,2214.37 "/>
<polyline clip-path="url(#clip990)" style="stroke:#333333; stroke-linecap:round; stroke-linejoin:round; stroke-width:4; stroke-opacity:1; fill:none" points="2244.03,2204.92 2244.03,2214.37 "/>
<polyline clip-path="url(#clip990)" style="stroke:#333333; stroke-linecap:round; stroke-linejoin:round; stroke-width:4; stroke-opacity:1; fill:none" points="2794.77,2204.92 2794.77,2214.37 "/>
<path clip-path="url(#clip990)" d="M316.418 2255.04 Q312.807 2255.04 310.978 2258.6 Q309.173 2262.14 309.173 2269.27 Q309.173 2276.38 310.978 2279.95 Q312.807 2283.49 316.418 2283.49 Q320.052 2283.49 321.858 2279.95 Q323.687 2276.38 323.687 2269.27 Q323.687 2262.14 321.858 2258.6 Q320.052 2255.04 316.418 2255.04 M316.418 2251.33 Q322.228 2251.33 325.284 2255.94 Q328.362 2260.52 328.362 2269.27 Q328.362 2278 325.284 2282.61 Q322.228 2287.19 316.418 2287.19 Q310.608 2287.19 307.529 2282.61 Q304.474 2278 304.474 2269.27 Q304.474 2260.52 307.529 2255.94 Q310.608 2251.33 316.418 2251.33 Z" fill="#4c4c4c" fill-rule="nonzero" fill-opacity="1" /><path clip-path="url(#clip990)" d="M857.545 2282.58 L865.184 2282.58 L865.184 2256.22 L856.874 2257.89 L856.874 2253.63 L865.138 2251.96 L869.814 2251.96 L869.814 2282.58 L877.453 2282.58 L877.453 2286.52 L857.545 2286.52 L857.545 2282.58 Z" fill="#4c4c4c" fill-rule="nonzero" fill-opacity="1" /><path clip-path="url(#clip990)" d="M1412.56 2282.58 L1428.88 2282.58 L1428.88 2286.52 L1406.94 2286.52 L1406.94 2282.58 Q1409.6 2279.83 1414.18 2275.2 Q1418.79 2270.55 1419.97 2269.21 Q1422.21 2266.68 1423.09 2264.95 Q1424 2263.19 1424 2261.5 Q1424 2258.74 1422.05 2257.01 Q1420.13 2255.27 1417.03 2255.27 Q1414.83 2255.27 1412.38 2256.03 Q1409.95 2256.8 1407.17 2258.35 L1407.17 2253.63 Q1409.99 2252.49 1412.45 2251.91 Q1414.9 2251.33 1416.94 2251.33 Q1422.31 2251.33 1425.5 2254.02 Q1428.7 2256.71 1428.7 2261.2 Q1428.7 2263.33 1427.89 2265.25 Q1427.1 2267.14 1424.99 2269.74 Q1424.41 2270.41 1421.31 2273.63 Q1418.21 2276.82 1412.56 2282.58 Z" fill="#4c4c4c" fill-rule="nonzero" fill-opacity="1" /><path clip-path="url(#clip990)" d="M1972.9 2267.89 Q1976.26 2268.6 1978.13 2270.87 Q1980.03 2273.14 1980.03 2276.47 Q1980.03 2281.59 1976.51 2284.39 Q1972.99 2287.19 1966.51 2287.19 Q1964.34 2287.19 1962.02 2286.75 Q1959.73 2286.33 1957.28 2285.48 L1957.28 2280.96 Q1959.22 2282.1 1961.54 2282.68 Q1963.85 2283.26 1966.37 2283.26 Q1970.77 2283.26 1973.06 2281.52 Q1975.38 2279.78 1975.38 2276.47 Q1975.38 2273.42 1973.23 2271.71 Q1971.1 2269.97 1967.28 2269.97 L1963.25 2269.97 L1963.25 2266.13 L1967.46 2266.13 Q1970.91 2266.13 1972.74 2264.76 Q1974.57 2263.37 1974.57 2260.78 Q1974.57 2258.12 1972.67 2256.71 Q1970.79 2255.27 1967.28 2255.27 Q1965.36 2255.27 1963.16 2255.69 Q1960.96 2256.1 1958.32 2256.98 L1958.32 2252.82 Q1960.98 2252.08 1963.29 2251.71 Q1965.63 2251.33 1967.69 2251.33 Q1973.02 2251.33 1976.12 2253.77 Q1979.22 2256.17 1979.22 2260.29 Q1979.22 2263.16 1977.58 2265.15 Q1975.93 2267.12 1972.9 2267.89 Z" fill="#4c4c4c" fill-rule="nonzero" fill-opacity="1" /><path clip-path="url(#clip990)" d="M2522.41 2256.03 L2510.6 2274.48 L2522.41 2274.48 L2522.41 2256.03 M2521.18 2251.96 L2527.06 2251.96 L2527.06 2274.48 L2531.99 2274.48 L2531.99 2278.37 L2527.06 2278.37 L2527.06 2286.52 L2522.41 2286.52 L2522.41 2278.37 L2506.81 2278.37 L2506.81 2273.86 L2521.18 2251.96 Z" fill="#4c4c4c" fill-rule="nonzero" fill-opacity="1" /><path clip-path="url(#clip990)" d="M3060.42 2251.96 L3078.78 2251.96 L3078.78 2255.9 L3064.7 2255.9 L3064.7 2264.37 Q3065.72 2264.02 3066.74 2263.86 Q3067.76 2263.67 3068.78 2263.67 Q3074.57 2263.67 3077.95 2266.84 Q3081.32 2270.02 3081.32 2275.43 Q3081.32 2281.01 3077.85 2284.11 Q3074.38 2287.19 3068.06 2287.19 Q3065.88 2287.19 3063.62 2286.82 Q3061.37 2286.45 3058.96 2285.71 L3058.96 2281.01 Q3061.05 2282.14 3063.27 2282.7 Q3065.49 2283.26 3067.97 2283.26 Q3071.97 2283.26 3074.31 2281.15 Q3076.65 2279.04 3076.65 2275.43 Q3076.65 2271.82 3074.31 2269.71 Q3071.97 2267.61 3067.97 2267.61 Q3066.09 2267.61 3064.22 2268.02 Q3062.37 2268.44 3060.42 2269.32 L3060.42 2251.96 Z" fill="#4c4c4c" fill-rule="nonzero" fill-opacity="1" /><path clip-path="url(#clip990)" d="M1692.34 2316.01 L1692.34 2326.14 L1704.41 2326.14 L1704.41 2330.69 L1692.34 2330.69 L1692.34 2350.04 Q1692.34 2354.4 1693.52 2355.64 Q1694.73 2356.88 1698.39 2356.88 L1704.41 2356.88 L1704.41 2361.78 L1698.39 2361.78 Q1691.61 2361.78 1689.03 2359.27 Q1686.45 2356.72 1686.45 2350.04 L1686.45 2330.69 L1682.16 2330.69 L1682.16 2326.14 L1686.45 2326.14 L1686.45 2316.01 L1692.34 2316.01 Z" fill="#000000" fill-rule="nonzero" fill-opacity="1" /><polyline clip-path="url(#clip992)" style="stroke:#ffffff; stroke-linecap:round; stroke-linejoin:round; stroke-width:4; stroke-opacity:1; fill:none" points="233.806,2157.73 3152.76,2157.73 "/>
<polyline clip-path="url(#clip992)" style="stroke:#ffffff; stroke-linecap:round; stroke-linejoin:round; stroke-width:4; stroke-opacity:1; fill:none" points="233.806,1860.39 3152.76,1860.39 "/>
<polyline clip-path="url(#clip992)" style="stroke:#ffffff; stroke-linecap:round; stroke-linejoin:round; stroke-width:4; stroke-opacity:1; fill:none" points="233.806,1563.04 3152.76,1563.04 "/>
<polyline clip-path="url(#clip992)" style="stroke:#ffffff; stroke-linecap:round; stroke-linejoin:round; stroke-width:4; stroke-opacity:1; fill:none" points="233.806,1265.7 3152.76,1265.7 "/>
<polyline clip-path="url(#clip992)" style="stroke:#ffffff; stroke-linecap:round; stroke-linejoin:round; stroke-width:4; stroke-opacity:1; fill:none" points="233.806,968.353 3152.76,968.353 "/>
<polyline clip-path="url(#clip992)" style="stroke:#ffffff; stroke-linecap:round; stroke-linejoin:round; stroke-width:4; stroke-opacity:1; fill:none" points="233.806,671.009 3152.76,671.009 "/>
<polyline clip-path="url(#clip992)" style="stroke:#ffffff; stroke-linecap:round; stroke-linejoin:round; stroke-width:4; stroke-opacity:1; fill:none" points="233.806,373.664 3152.76,373.664 "/>
<polyline clip-path="url(#clip992)" style="stroke:#ffffff; stroke-linecap:round; stroke-linejoin:round; stroke-width:2; stroke-opacity:1; fill:none" points="233.806,2009.06 3152.76,2009.06 "/>
<polyline clip-path="url(#clip992)" style="stroke:#ffffff; stroke-linecap:round; stroke-linejoin:round; stroke-width:2; stroke-opacity:1; fill:none" points="233.806,1711.72 3152.76,1711.72 "/>
<polyline clip-path="url(#clip992)" style="stroke:#ffffff; stroke-linecap:round; stroke-linejoin:round; stroke-width:2; stroke-opacity:1; fill:none" points="233.806,1414.37 3152.76,1414.37 "/>
<polyline clip-path="url(#clip992)" style="stroke:#ffffff; stroke-linecap:round; stroke-linejoin:round; stroke-width:2; stroke-opacity:1; fill:none" points="233.806,1117.03 3152.76,1117.03 "/>
<polyline clip-path="url(#clip992)" style="stroke:#ffffff; stroke-linecap:round; stroke-linejoin:round; stroke-width:2; stroke-opacity:1; fill:none" points="233.806,819.681 3152.76,819.681 "/>
<polyline clip-path="url(#clip992)" style="stroke:#ffffff; stroke-linecap:round; stroke-linejoin:round; stroke-width:2; stroke-opacity:1; fill:none" points="233.806,522.336 3152.76,522.336 "/>
<polyline clip-path="url(#clip992)" style="stroke:#ffffff; stroke-linecap:round; stroke-linejoin:round; stroke-width:2; stroke-opacity:1; fill:none" points="233.806,224.991 3152.76,224.991 "/>
<polyline clip-path="url(#clip990)" style="stroke:#ffffff; stroke-linecap:round; stroke-linejoin:round; stroke-width:4; stroke-opacity:1; fill:none" points="233.806,2204.92 233.806,121.312 "/>
<polyline clip-path="url(#clip990)" style="stroke:#333333; stroke-linecap:round; stroke-linejoin:round; stroke-width:4; stroke-opacity:1; fill:none" points="233.806,2157.73 214.909,2157.73 "/>
<polyline clip-path="url(#clip990)" style="stroke:#333333; stroke-linecap:round; stroke-linejoin:round; stroke-width:4; stroke-opacity:1; fill:none" points="233.806,1860.39 214.909,1860.39 "/>
<polyline clip-path="url(#clip990)" style="stroke:#333333; stroke-linecap:round; stroke-linejoin:round; stroke-width:4; stroke-opacity:1; fill:none" points="233.806,1563.04 214.909,1563.04 "/>
<polyline clip-path="url(#clip990)" style="stroke:#333333; stroke-linecap:round; stroke-linejoin:round; stroke-width:4; stroke-opacity:1; fill:none" points="233.806,1265.7 214.909,1265.7 "/>
<polyline clip-path="url(#clip990)" style="stroke:#333333; stroke-linecap:round; stroke-linejoin:round; stroke-width:4; stroke-opacity:1; fill:none" points="233.806,968.353 214.909,968.353 "/>
<polyline clip-path="url(#clip990)" style="stroke:#333333; stroke-linecap:round; stroke-linejoin:round; stroke-width:4; stroke-opacity:1; fill:none" points="233.806,671.009 214.909,671.009 "/>
<polyline clip-path="url(#clip990)" style="stroke:#333333; stroke-linecap:round; stroke-linejoin:round; stroke-width:4; stroke-opacity:1; fill:none" points="233.806,373.664 214.909,373.664 "/>
<polyline clip-path="url(#clip990)" style="stroke:#333333; stroke-linecap:round; stroke-linejoin:round; stroke-width:4; stroke-opacity:1; fill:none" points="233.806,2009.06 224.357,2009.06 "/>
<polyline clip-path="url(#clip990)" style="stroke:#333333; stroke-linecap:round; stroke-linejoin:round; stroke-width:4; stroke-opacity:1; fill:none" points="233.806,1711.72 224.357,1711.72 "/>
<polyline clip-path="url(#clip990)" style="stroke:#333333; stroke-linecap:round; stroke-linejoin:round; stroke-width:4; stroke-opacity:1; fill:none" points="233.806,1414.37 224.357,1414.37 "/>
<polyline clip-path="url(#clip990)" style="stroke:#333333; stroke-linecap:round; stroke-linejoin:round; stroke-width:4; stroke-opacity:1; fill:none" points="233.806,1117.03 224.357,1117.03 "/>
<polyline clip-path="url(#clip990)" style="stroke:#333333; stroke-linecap:round; stroke-linejoin:round; stroke-width:4; stroke-opacity:1; fill:none" points="233.806,819.681 224.357,819.681 "/>
<polyline clip-path="url(#clip990)" style="stroke:#333333; stroke-linecap:round; stroke-linejoin:round; stroke-width:4; stroke-opacity:1; fill:none" points="233.806,522.336 224.357,522.336 "/>
<polyline clip-path="url(#clip990)" style="stroke:#333333; stroke-linecap:round; stroke-linejoin:round; stroke-width:4; stroke-opacity:1; fill:none" points="233.806,224.991 224.357,224.991 "/>
<path clip-path="url(#clip990)" d="M106.228 2143.53 Q102.617 2143.53 100.788 2147.1 Q98.9825 2150.64 98.9825 2157.77 Q98.9825 2164.87 100.788 2168.44 Q102.617 2171.98 106.228 2171.98 Q109.862 2171.98 111.668 2168.44 Q113.496 2164.87 113.496 2157.77 Q113.496 2150.64 111.668 2147.1 Q109.862 2143.53 106.228 2143.53 M106.228 2139.83 Q112.038 2139.83 115.094 2144.43 Q118.172 2149.02 118.172 2157.77 Q118.172 2166.49 115.094 2171.1 Q112.038 2175.68 106.228 2175.68 Q100.418 2175.68 97.339 2171.1 Q94.2835 2166.49 94.2835 2157.77 Q94.2835 2149.02 97.339 2144.43 Q100.418 2139.83 106.228 2139.83 Z" fill="#4c4c4c" fill-rule="nonzero" fill-opacity="1" /><path clip-path="url(#clip990)" d="M126.39 2169.13 L131.274 2169.13 L131.274 2175.01 L126.39 2175.01 L126.39 2169.13 Z" fill="#4c4c4c" fill-rule="nonzero" fill-opacity="1" /><path clip-path="url(#clip990)" d="M145.487 2171.08 L161.806 2171.08 L161.806 2175.01 L139.862 2175.01 L139.862 2171.08 Q142.524 2168.32 147.107 2163.69 Q151.714 2159.04 152.894 2157.7 Q155.14 2155.17 156.019 2153.44 Q156.922 2151.68 156.922 2149.99 Q156.922 2147.23 154.978 2145.5 Q153.056 2143.76 149.954 2143.76 Q147.755 2143.76 145.302 2144.53 Q142.871 2145.29 140.093 2146.84 L140.093 2142.12 Q142.917 2140.98 145.371 2140.41 Q147.825 2139.83 149.862 2139.83 Q155.232 2139.83 158.427 2142.51 Q161.621 2145.2 161.621 2149.69 Q161.621 2151.82 160.811 2153.74 Q160.024 2155.64 157.917 2158.23 Q157.339 2158.9 154.237 2162.12 Q151.135 2165.31 145.487 2171.08 Z" fill="#4c4c4c" fill-rule="nonzero" fill-opacity="1" /><path clip-path="url(#clip990)" d="M104.145 1846.19 Q100.533 1846.19 98.7048 1849.75 Q96.8992 1853.29 96.8992 1860.42 Q96.8992 1867.53 98.7048 1871.09 Q100.533 1874.64 104.145 1874.64 Q107.779 1874.64 109.584 1871.09 Q111.413 1867.53 111.413 1860.42 Q111.413 1853.29 109.584 1849.75 Q107.779 1846.19 104.145 1846.19 M104.145 1842.48 Q109.955 1842.48 113.01 1847.09 Q116.089 1851.67 116.089 1860.42 Q116.089 1869.15 113.01 1873.76 Q109.955 1878.34 104.145 1878.34 Q98.3344 1878.34 95.2557 1873.76 Q92.2002 1869.15 92.2002 1860.42 Q92.2002 1851.67 95.2557 1847.09 Q98.3344 1842.48 104.145 1842.48 Z" fill="#4c4c4c" fill-rule="nonzero" fill-opacity="1" /><path clip-path="url(#clip990)" d="M124.306 1871.79 L129.191 1871.79 L129.191 1877.67 L124.306 1877.67 L124.306 1871.79 Z" fill="#4c4c4c" fill-rule="nonzero" fill-opacity="1" /><path clip-path="url(#clip990)" d="M152.223 1847.18 L140.417 1865.63 L152.223 1865.63 L152.223 1847.18 M150.996 1843.11 L156.876 1843.11 L156.876 1865.63 L161.806 1865.63 L161.806 1869.52 L156.876 1869.52 L156.876 1877.67 L152.223 1877.67 L152.223 1869.52 L136.621 1869.52 L136.621 1865.01 L150.996 1843.11 Z" fill="#4c4c4c" fill-rule="nonzero" fill-opacity="1" /><path clip-path="url(#clip990)" d="M104.469 1548.84 Q100.858 1548.84 99.0288 1552.41 Q97.2233 1555.95 97.2233 1563.08 Q97.2233 1570.18 99.0288 1573.75 Q100.858 1577.29 104.469 1577.29 Q108.103 1577.29 109.908 1573.75 Q111.737 1570.18 111.737 1563.08 Q111.737 1555.95 109.908 1552.41 Q108.103 1548.84 104.469 1548.84 M104.469 1545.14 Q110.279 1545.14 113.334 1549.74 Q116.413 1554.33 116.413 1563.08 Q116.413 1571.8 113.334 1576.41 Q110.279 1580.99 104.469 1580.99 Q98.6585 1580.99 95.5798 1576.41 Q92.5242 1571.8 92.5242 1563.08 Q92.5242 1554.33 95.5798 1549.74 Q98.6585 1545.14 104.469 1545.14 Z" fill="#4c4c4c" fill-rule="nonzero" fill-opacity="1" /><path clip-path="url(#clip990)" d="M124.631 1574.44 L129.515 1574.44 L129.515 1580.32 L124.631 1580.32 L124.631 1574.44 Z" fill="#4c4c4c" fill-rule="nonzero" fill-opacity="1" /><path clip-path="url(#clip990)" d="M150.279 1561.18 Q147.13 1561.18 145.279 1563.33 Q143.45 1565.48 143.45 1569.23 Q143.45 1572.96 145.279 1575.14 Q147.13 1577.29 150.279 1577.29 Q153.427 1577.29 155.255 1575.14 Q157.107 1572.96 157.107 1569.23 Q157.107 1565.48 155.255 1563.33 Q153.427 1561.18 150.279 1561.18 M159.561 1546.53 L159.561 1550.79 Q157.802 1549.95 155.996 1549.51 Q154.214 1549.07 152.454 1549.07 Q147.825 1549.07 145.371 1552.2 Q142.941 1555.32 142.593 1561.64 Q143.959 1559.63 146.019 1558.56 Q148.079 1557.48 150.556 1557.48 Q155.765 1557.48 158.774 1560.65 Q161.806 1563.8 161.806 1569.23 Q161.806 1574.56 158.658 1577.78 Q155.51 1580.99 150.279 1580.99 Q144.283 1580.99 141.112 1576.41 Q137.941 1571.8 137.941 1563.08 Q137.941 1554.88 141.83 1550.02 Q145.718 1545.14 152.269 1545.14 Q154.029 1545.14 155.811 1545.48 Q157.616 1545.83 159.561 1546.53 Z" fill="#4c4c4c" fill-rule="nonzero" fill-opacity="1" /><path clip-path="url(#clip990)" d="M104.723 1251.5 Q101.112 1251.5 99.2835 1255.06 Q97.4779 1258.6 97.4779 1265.73 Q97.4779 1272.84 99.2835 1276.4 Q101.112 1279.95 104.723 1279.95 Q108.357 1279.95 110.163 1276.4 Q111.992 1272.84 111.992 1265.73 Q111.992 1258.6 110.163 1255.06 Q108.357 1251.5 104.723 1251.5 M104.723 1247.79 Q110.533 1247.79 113.589 1252.4 Q116.668 1256.98 116.668 1265.73 Q116.668 1274.46 113.589 1279.07 Q110.533 1283.65 104.723 1283.65 Q98.9131 1283.65 95.8344 1279.07 Q92.7789 1274.46 92.7789 1265.73 Q92.7789 1256.98 95.8344 1252.4 Q98.9131 1247.79 104.723 1247.79 Z" fill="#4c4c4c" fill-rule="nonzero" fill-opacity="1" /><path clip-path="url(#clip990)" d="M124.885 1277.1 L129.769 1277.1 L129.769 1282.98 L124.885 1282.98 L124.885 1277.1 Z" fill="#4c4c4c" fill-rule="nonzero" fill-opacity="1" /><path clip-path="url(#clip990)" d="M149.954 1266.57 Q146.621 1266.57 144.7 1268.35 Q142.802 1270.13 142.802 1273.26 Q142.802 1276.38 144.7 1278.16 Q146.621 1279.95 149.954 1279.95 Q153.288 1279.95 155.209 1278.16 Q157.13 1276.36 157.13 1273.26 Q157.13 1270.13 155.209 1268.35 Q153.311 1266.57 149.954 1266.57 M145.279 1264.58 Q142.269 1263.83 140.58 1261.77 Q138.913 1259.71 138.913 1256.75 Q138.913 1252.61 141.853 1250.2 Q144.816 1247.79 149.954 1247.79 Q155.116 1247.79 158.056 1250.2 Q160.996 1252.61 160.996 1256.75 Q160.996 1259.71 159.306 1261.77 Q157.64 1263.83 154.654 1264.58 Q158.033 1265.36 159.908 1267.65 Q161.806 1269.95 161.806 1273.26 Q161.806 1278.28 158.728 1280.96 Q155.672 1283.65 149.954 1283.65 Q144.237 1283.65 141.158 1280.96 Q138.103 1278.28 138.103 1273.26 Q138.103 1269.95 140.001 1267.65 Q141.899 1265.36 145.279 1264.58 M143.566 1257.19 Q143.566 1259.88 145.232 1261.38 Q146.922 1262.89 149.954 1262.89 Q152.964 1262.89 154.654 1261.38 Q156.366 1259.88 156.366 1257.19 Q156.366 1254.51 154.654 1253 Q152.964 1251.5 149.954 1251.5 Q146.922 1251.5 145.232 1253 Q143.566 1254.51 143.566 1257.19 Z" fill="#4c4c4c" fill-rule="nonzero" fill-opacity="1" /><path clip-path="url(#clip990)" d="M95.4409 981.698 L103.08 981.698 L103.08 955.332 L94.7696 956.999 L94.7696 952.74 L103.033 951.073 L107.709 951.073 L107.709 981.698 L115.348 981.698 L115.348 985.633 L95.4409 985.633 L95.4409 981.698 Z" fill="#4c4c4c" fill-rule="nonzero" fill-opacity="1" /><path clip-path="url(#clip990)" d="M124.793 979.754 L129.677 979.754 L129.677 985.633 L124.793 985.633 L124.793 979.754 Z" fill="#4c4c4c" fill-rule="nonzero" fill-opacity="1" /><path clip-path="url(#clip990)" d="M149.862 954.152 Q146.251 954.152 144.422 957.717 Q142.617 961.258 142.617 968.388 Q142.617 975.494 144.422 979.059 Q146.251 982.601 149.862 982.601 Q153.496 982.601 155.302 979.059 Q157.13 975.494 157.13 968.388 Q157.13 961.258 155.302 957.717 Q153.496 954.152 149.862 954.152 M149.862 950.448 Q155.672 950.448 158.728 955.055 Q161.806 959.638 161.806 968.388 Q161.806 977.115 158.728 981.721 Q155.672 986.305 149.862 986.305 Q144.052 986.305 140.973 981.721 Q137.918 977.115 137.918 968.388 Q137.918 959.638 140.973 955.055 Q144.052 950.448 149.862 950.448 Z" fill="#4c4c4c" fill-rule="nonzero" fill-opacity="1" /><path clip-path="url(#clip990)" d="M97.0381 684.353 L104.677 684.353 L104.677 657.988 L96.3668 659.654 L96.3668 655.395 L104.631 653.729 L109.307 653.729 L109.307 684.353 L116.945 684.353 L116.945 688.289 L97.0381 688.289 L97.0381 684.353 Z" fill="#4c4c4c" fill-rule="nonzero" fill-opacity="1" /><path clip-path="url(#clip990)" d="M126.39 682.409 L131.274 682.409 L131.274 688.289 L126.39 688.289 L126.39 682.409 Z" fill="#4c4c4c" fill-rule="nonzero" fill-opacity="1" /><path clip-path="url(#clip990)" d="M145.487 684.353 L161.806 684.353 L161.806 688.289 L139.862 688.289 L139.862 684.353 Q142.524 681.599 147.107 676.969 Q151.714 672.316 152.894 670.974 Q155.14 668.451 156.019 666.715 Q156.922 664.955 156.922 663.265 Q156.922 660.511 154.978 658.775 Q153.056 657.039 149.954 657.039 Q147.755 657.039 145.302 657.803 Q142.871 658.566 140.093 660.117 L140.093 655.395 Q142.917 654.261 145.371 653.682 Q147.825 653.104 149.862 653.104 Q155.232 653.104 158.427 655.789 Q161.621 658.474 161.621 662.965 Q161.621 665.094 160.811 667.015 Q160.024 668.914 157.917 671.506 Q157.339 672.177 154.237 675.395 Q151.135 678.589 145.487 684.353 Z" fill="#4c4c4c" fill-rule="nonzero" fill-opacity="1" /><path clip-path="url(#clip990)" d="M94.9548 387.009 L102.594 387.009 L102.594 360.643 L94.2835 362.31 L94.2835 358.05 L102.547 356.384 L107.223 356.384 L107.223 387.009 L114.862 387.009 L114.862 390.944 L94.9548 390.944 L94.9548 387.009 Z" fill="#4c4c4c" fill-rule="nonzero" fill-opacity="1" /><path clip-path="url(#clip990)" d="M124.306 385.064 L129.191 385.064 L129.191 390.944 L124.306 390.944 L124.306 385.064 Z" fill="#4c4c4c" fill-rule="nonzero" fill-opacity="1" /><path clip-path="url(#clip990)" d="M152.223 360.458 L140.417 378.907 L152.223 378.907 L152.223 360.458 M150.996 356.384 L156.876 356.384 L156.876 378.907 L161.806 378.907 L161.806 382.796 L156.876 382.796 L156.876 390.944 L152.223 390.944 L152.223 382.796 L136.621 382.796 L136.621 378.282 L150.996 356.384 Z" fill="#4c4c4c" fill-rule="nonzero" fill-opacity="1" /><path clip-path="url(#clip990)" d="M48.597 1321.32 L67.5031 1321.32 L67.5031 1327.21 L18.2962 1327.21 L18.2962 1321.32 L23.7071 1321.32 Q20.5242 1319.47 18.9964 1316.67 Q17.4368 1313.84 17.4368 1309.93 Q17.4368 1303.43 22.5931 1299.39 Q27.7493 1295.32 36.152 1295.32 Q44.5547 1295.32 49.711 1299.39 Q54.8672 1303.43 54.8672 1309.93 Q54.8672 1313.84 53.3394 1316.67 Q51.7798 1319.47 48.597 1321.32 M36.152 1301.4 Q29.6908 1301.4 26.0305 1304.07 Q22.3384 1306.71 22.3384 1311.36 Q22.3384 1316 26.0305 1318.68 Q29.6908 1321.32 36.152 1321.32 Q42.6132 1321.32 46.3053 1318.68 Q49.9656 1316 49.9656 1311.36 Q49.9656 1306.71 46.3053 1304.07 Q42.6132 1301.4 36.152 1301.4 Z" fill="#000000" fill-rule="nonzero" fill-opacity="1" /><path clip-path="url(#clip990)" d="M22.4021 1271.79 Q22.4021 1276.51 26.0942 1279.24 Q29.7545 1281.98 36.152 1281.98 Q42.5495 1281.98 46.2417 1279.27 Q49.9019 1276.54 49.9019 1271.79 Q49.9019 1267.12 46.2098 1264.38 Q42.5177 1261.64 36.152 1261.64 Q29.8181 1261.64 26.126 1264.38 Q22.4021 1267.12 22.4021 1271.79 M17.4368 1271.79 Q17.4368 1264.16 22.4021 1259.8 Q27.3673 1255.43 36.152 1255.43 Q44.9049 1255.43 49.9019 1259.8 Q54.8672 1264.16 54.8672 1271.79 Q54.8672 1279.47 49.9019 1283.83 Q44.9049 1288.15 36.152 1288.15 Q27.3673 1288.15 22.4021 1283.83 Q17.4368 1279.47 17.4368 1271.79 Z" fill="#000000" fill-rule="nonzero" fill-opacity="1" /><path clip-path="url(#clip990)" d="M48.597 1240.06 L67.5031 1240.06 L67.5031 1245.95 L18.2962 1245.95 L18.2962 1240.06 L23.7071 1240.06 Q20.5242 1238.22 18.9964 1235.41 Q17.4368 1232.58 17.4368 1228.67 Q17.4368 1222.17 22.5931 1218.13 Q27.7493 1214.06 36.152 1214.06 Q44.5547 1214.06 49.711 1218.13 Q54.8672 1222.17 54.8672 1228.67 Q54.8672 1232.58 53.3394 1235.41 Q51.7798 1238.22 48.597 1240.06 M36.152 1220.14 Q29.6908 1220.14 26.0305 1222.81 Q22.3384 1225.45 22.3384 1230.1 Q22.3384 1234.75 26.0305 1237.42 Q29.6908 1240.06 36.152 1240.06 Q42.6132 1240.06 46.3053 1237.42 Q49.9656 1234.75 49.9656 1230.1 Q49.9656 1225.45 46.3053 1222.81 Q42.6132 1220.14 36.152 1220.14 Z" fill="#000000" fill-rule="nonzero" fill-opacity="1" /><path clip-path="url(#clip990)" d="M39.8759 1204.95 L18.2962 1204.95 L18.2962 1199.1 L39.6531 1199.1 Q44.7139 1199.1 47.2602 1197.12 Q49.7746 1195.15 49.7746 1191.2 Q49.7746 1186.46 46.7509 1183.72 Q43.7272 1180.96 38.5073 1180.96 L18.2962 1180.96 L18.2962 1175.1 L53.9442 1175.1 L53.9442 1180.96 L48.4696 1180.96 Q51.7162 1183.09 53.3076 1185.92 Q54.8672 1188.72 54.8672 1192.45 Q54.8672 1198.59 51.0478 1201.77 Q47.2283 1204.95 39.8759 1204.95 M17.4368 1190.22 L17.4368 1190.22 Z" fill="#000000" fill-rule="nonzero" fill-opacity="1" /><path clip-path="url(#clip990)" d="M4.41896 1163.04 L4.41896 1157.18 L53.9442 1157.18 L53.9442 1163.04 L4.41896 1163.04 Z" fill="#000000" fill-rule="nonzero" fill-opacity="1" /><path clip-path="url(#clip990)" d="M36.0247 1128.73 Q36.0247 1135.82 37.6479 1138.56 Q39.2712 1141.3 43.1861 1141.3 Q46.3053 1141.3 48.1514 1139.26 Q49.9656 1137.19 49.9656 1133.66 Q49.9656 1128.79 46.5281 1125.86 Q43.0588 1122.9 37.3297 1122.9 L36.0247 1122.9 L36.0247 1128.73 M33.6057 1117.04 L53.9442 1117.04 L53.9442 1122.9 L48.5333 1122.9 Q51.7798 1124.91 53.3394 1127.9 Q54.8672 1130.89 54.8672 1135.22 Q54.8672 1140.69 51.8116 1143.94 Q48.7243 1147.15 43.5681 1147.15 Q37.5525 1147.15 34.4969 1143.14 Q31.4414 1139.1 31.4414 1131.11 L31.4414 1122.9 L30.8685 1122.9 Q26.8262 1122.9 24.6301 1125.57 Q22.4021 1128.22 22.4021 1133.02 Q22.4021 1136.08 23.1341 1138.97 Q23.8662 1141.87 25.3303 1144.54 L19.9195 1144.54 Q18.6781 1141.33 18.0734 1138.31 Q17.4368 1135.28 17.4368 1132.42 Q17.4368 1124.68 21.4472 1120.86 Q25.4576 1117.04 33.6057 1117.04 Z" fill="#000000" fill-rule="nonzero" fill-opacity="1" /><path clip-path="url(#clip990)" d="M19.6648 1079.33 L25.1393 1079.33 Q23.7707 1081.81 23.1023 1084.32 Q22.4021 1086.81 22.4021 1089.35 Q22.4021 1095.05 26.0305 1098.2 Q29.6272 1101.35 36.152 1101.35 Q42.6769 1101.35 46.3053 1098.2 Q49.9019 1095.05 49.9019 1089.35 Q49.9019 1086.81 49.2335 1084.32 Q48.5333 1081.81 47.1647 1079.33 L52.5755 1079.33 Q53.7214 1081.78 54.2943 1084.42 Q54.8672 1087.03 54.8672 1089.99 Q54.8672 1098.04 49.8064 1102.78 Q44.7457 1107.53 36.152 1107.53 Q27.431 1107.53 22.4339 1102.75 Q17.4368 1097.95 17.4368 1089.61 Q17.4368 1086.9 18.0097 1084.32 Q18.5508 1081.75 19.6648 1079.33 M53.9442 1087.6 Q55.9175 1085.85 57.5726 1084.99 Q59.2595 1084.13 60.7873 1084.13 Q63.62 1084.13 65.0523 1086.04 Q66.5164 1087.95 66.5164 1091.71 Q66.5164 1093.17 66.3255 1094.57 Q66.1345 1095.94 65.7525 1097.31 L61.583 1097.31 Q62.1241 1096.23 62.3469 1095.05 Q62.6015 1093.87 62.6015 1092.38 Q62.6015 1090.5 61.8376 1089.54 Q61.0737 1088.59 59.6096 1088.59 Q58.6548 1088.59 57.2543 1089.29 Q55.8857 1089.96 53.9442 1091.39 L53.9442 1087.6 Z" fill="#000000" fill-rule="nonzero" fill-opacity="1" /><path clip-path="url(#clip990)" d="M36.0247 1052.94 Q36.0247 1060.04 37.6479 1062.78 Q39.2712 1065.51 43.1861 1065.51 Q46.3053 1065.51 48.1514 1063.48 Q49.9656 1061.41 49.9656 1057.87 Q49.9656 1053.01 46.5281 1050.08 Q43.0588 1047.12 37.3297 1047.12 L36.0247 1047.12 L36.0247 1052.94 M33.6057 1041.26 L53.9442 1041.26 L53.9442 1047.12 L48.5333 1047.12 Q51.7798 1049.12 53.3394 1052.11 Q54.8672 1055.11 54.8672 1059.43 Q54.8672 1064.91 51.8116 1068.16 Q48.7243 1071.37 43.5681 1071.37 Q37.5525 1071.37 34.4969 1067.36 Q31.4414 1063.32 31.4414 1055.33 L31.4414 1047.12 L30.8685 1047.12 Q26.8262 1047.12 24.6301 1049.79 Q22.4021 1052.43 22.4021 1057.24 Q22.4021 1060.29 23.1341 1063.19 Q23.8662 1066.09 25.3303 1068.76 L19.9195 1068.76 Q18.6781 1065.55 18.0734 1062.52 Q17.4368 1059.5 17.4368 1056.63 Q17.4368 1048.9 21.4472 1045.08 Q25.4576 1041.26 33.6057 1041.26 M10.3391 1056.51 L8.5885 1058.32 Q7.95193 1059.02 7.66547 1059.56 Q7.34718 1060.07 7.34718 1060.48 Q7.34718 1061.69 8.52484 1062.27 Q9.67067 1062.84 12.2806 1062.9 L12.2806 1066.88 Q7.98376 1066.82 5.66027 1065.2 Q3.30496 1063.57 3.30496 1060.68 Q3.30496 1059.47 3.75056 1058.45 Q4.19616 1057.43 5.2465 1056.25 L6.99707 1054.44 Q7.63364 1053.74 7.95193 1053.23 Q8.23838 1052.69 8.23838 1052.27 Q8.23838 1051.06 7.09256 1050.49 Q5.9149 1049.92 3.30496 1049.85 L3.30496 1045.88 Q7.60181 1045.94 9.95712 1047.56 Q12.2806 1049.19 12.2806 1052.08 Q12.2806 1053.29 11.835 1054.31 Q11.3894 1055.33 10.3391 1056.51 Z" fill="#000000" fill-rule="nonzero" fill-opacity="1" /><path clip-path="url(#clip990)" d="M22.4021 1015.38 Q22.4021 1020.09 26.0942 1022.83 Q29.7545 1025.57 36.152 1025.57 Q42.5495 1025.57 46.2417 1022.86 Q49.9019 1020.13 49.9019 1015.38 Q49.9019 1010.71 46.2098 1007.97 Q42.5177 1005.23 36.152 1005.23 Q29.8181 1005.23 26.126 1007.97 Q22.4021 1010.71 22.4021 1015.38 M17.4368 1015.38 Q17.4368 1007.74 22.4021 1003.38 Q27.3673 999.024 36.152 999.024 Q44.9049 999.024 49.9019 1003.38 Q54.8672 1007.74 54.8672 1015.38 Q54.8672 1023.05 49.9019 1027.42 Q44.9049 1031.74 36.152 1031.74 Q27.3673 1031.74 22.4021 1027.42 Q17.4368 1023.05 17.4368 1015.38 Z" fill="#000000" fill-rule="nonzero" fill-opacity="1" /><path clip-path="url(#clip990)" d="M972.365 23.3193 L979.136 23.3193 L991.288 55.958 L1003.44 23.3193 L1010.21 23.3193 L995.629 62.208 L986.948 62.208 L972.365 23.3193 Z" fill="#000000" fill-rule="nonzero" fill-opacity="1" /><path clip-path="url(#clip990)" d="M1036.7 42.6595 Q1028.96 42.6595 1025.98 44.4303 Q1022.99 46.2011 1022.99 50.472 Q1022.99 53.8747 1025.21 55.8886 Q1027.47 57.8677 1031.32 57.8677 Q1036.64 57.8677 1039.83 54.1178 Q1043.06 50.3331 1043.06 44.0831 L1043.06 42.6595 L1036.7 42.6595 M1049.45 40.0206 L1049.45 62.208 L1043.06 62.208 L1043.06 56.3053 Q1040.87 59.8469 1037.61 61.5483 Q1034.34 63.2149 1029.62 63.2149 Q1023.65 63.2149 1020.11 59.8816 Q1016.6 56.5136 1016.6 50.8886 Q1016.6 44.3262 1020.98 40.9928 Q1025.39 37.6595 1034.1 37.6595 L1043.06 37.6595 L1043.06 37.0345 Q1043.06 32.6248 1040.14 30.229 Q1037.26 27.7985 1032.02 27.7985 Q1028.68 27.7985 1025.52 28.5971 Q1022.36 29.3957 1019.45 30.9929 L1019.45 25.0901 Q1022.95 23.736 1026.25 23.0763 Q1029.55 22.3818 1032.68 22.3818 Q1041.11 22.3818 1045.28 26.7568 Q1049.45 31.1318 1049.45 40.0206 Z" fill="#000000" fill-rule="nonzero" fill-opacity="1" /><path clip-path="url(#clip990)" d="M1062.61 8.18051 L1069 8.18051 L1069 62.208 L1062.61 62.208 L1062.61 8.18051 Z" fill="#000000" fill-rule="nonzero" fill-opacity="1" /><path clip-path="url(#clip990)" d="M1097.43 27.7985 Q1092.29 27.7985 1089.31 31.8262 Q1086.32 35.8193 1086.32 42.7984 Q1086.32 49.7775 1089.27 53.8053 Q1092.26 57.7983 1097.43 57.7983 Q1102.54 57.7983 1105.52 53.7705 Q1108.51 49.7428 1108.51 42.7984 Q1108.51 35.8887 1105.52 31.8609 Q1102.54 27.7985 1097.43 27.7985 M1097.43 22.3818 Q1105.77 22.3818 1110.52 27.7985 Q1115.28 33.2151 1115.28 42.7984 Q1115.28 52.3469 1110.52 57.7983 Q1105.77 63.2149 1097.43 63.2149 Q1089.07 63.2149 1084.31 57.7983 Q1079.59 52.3469 1079.59 42.7984 Q1079.59 33.2151 1084.31 27.7985 Q1089.07 22.3818 1097.43 22.3818 Z" fill="#000000" fill-rule="nonzero" fill-opacity="1" /><path clip-path="url(#clip990)" d="M1148.41 29.2915 Q1147.33 28.6665 1146.04 28.3887 Q1144.79 28.0762 1143.27 28.0762 Q1137.85 28.0762 1134.93 31.6179 Q1132.05 35.1248 1132.05 41.722 L1132.05 62.208 L1125.63 62.208 L1125.63 23.3193 L1132.05 23.3193 L1132.05 29.361 Q1134.07 25.8193 1137.29 24.1179 Q1140.52 22.3818 1145.14 22.3818 Q1145.8 22.3818 1146.6 22.486 Q1147.4 22.5554 1148.37 22.729 L1148.41 29.2915 Z" fill="#000000" fill-rule="nonzero" fill-opacity="1" /><path clip-path="url(#clip990)" d="M1210.97 41.1664 L1210.97 44.2914 L1181.6 44.2914 Q1182.02 50.8886 1185.56 54.3608 Q1189.13 57.7983 1195.49 57.7983 Q1199.17 57.7983 1202.61 56.8955 Q1206.08 55.9928 1209.48 54.1872 L1209.48 60.2288 Q1206.04 61.6872 1202.43 62.4511 Q1198.82 63.2149 1195.11 63.2149 Q1185.8 63.2149 1180.35 57.7983 Q1174.93 52.3817 1174.93 43.1456 Q1174.93 33.597 1180.07 28.0068 Q1185.25 22.3818 1194 22.3818 Q1201.84 22.3818 1206.39 27.4512 Q1210.97 32.4859 1210.97 41.1664 M1204.59 39.2915 Q1204.52 34.0484 1201.63 30.9234 Q1198.79 27.7985 1194.07 27.7985 Q1188.72 27.7985 1185.49 30.8193 Q1182.29 33.8401 1181.81 39.3262 L1204.59 39.2915 Z" fill="#000000" fill-rule="nonzero" fill-opacity="1" /><path clip-path="url(#clip990)" d="M1246.25 24.4651 L1246.25 30.5068 Q1243.54 29.1179 1240.63 28.4235 Q1237.71 27.729 1234.59 27.729 Q1229.83 27.729 1227.43 29.1873 Q1225.07 30.6457 1225.07 33.5623 Q1225.07 35.7845 1226.77 37.0692 Q1228.47 38.3192 1233.61 39.4651 L1235.8 39.9512 Q1242.61 41.4095 1245.45 44.0831 Q1248.34 46.722 1248.34 51.4789 Q1248.34 56.8955 1244.03 60.0552 Q1239.76 63.2149 1232.26 63.2149 Q1229.13 63.2149 1225.73 62.5899 Q1222.36 61.9997 1218.61 60.7844 L1218.61 54.1872 Q1222.16 56.0275 1225.59 56.965 Q1229.03 57.8677 1232.4 57.8677 Q1236.91 57.8677 1239.34 56.34 Q1241.77 54.7775 1241.77 51.965 Q1241.77 49.3608 1240 47.972 Q1238.27 46.5831 1232.33 45.2984 L1230.11 44.7775 Q1224.17 43.5275 1221.53 40.9581 Q1218.89 38.354 1218.89 33.8401 Q1218.89 28.354 1222.78 25.3679 Q1226.67 22.3818 1233.82 22.3818 Q1237.36 22.3818 1240.49 22.9027 Q1243.61 23.4235 1246.25 24.4651 Z" fill="#000000" fill-rule="nonzero" fill-opacity="1" /><path clip-path="url(#clip990)" d="M1264.69 56.3747 L1264.69 76.9996 L1258.27 76.9996 L1258.27 23.3193 L1264.69 23.3193 L1264.69 29.2221 Q1266.7 25.7499 1269.76 24.0832 Q1272.85 22.3818 1277.12 22.3818 Q1284.2 22.3818 1288.61 28.0068 Q1293.06 33.6318 1293.06 42.7984 Q1293.06 51.965 1288.61 57.59 Q1284.2 63.2149 1277.12 63.2149 Q1272.85 63.2149 1269.76 61.5483 Q1266.7 59.8469 1264.69 56.3747 M1286.43 42.7984 Q1286.43 35.7498 1283.51 31.7568 Q1280.63 27.729 1275.56 27.729 Q1270.49 27.729 1267.57 31.7568 Q1264.69 35.7498 1264.69 42.7984 Q1264.69 49.847 1267.57 53.8747 Q1270.49 57.8677 1275.56 57.8677 Q1280.63 57.8677 1283.51 53.8747 Q1286.43 49.847 1286.43 42.7984 Z" fill="#000000" fill-rule="nonzero" fill-opacity="1" /><path clip-path="url(#clip990)" d="M1336.91 41.1664 L1336.91 44.2914 L1307.54 44.2914 Q1307.95 50.8886 1311.49 54.3608 Q1315.07 57.7983 1321.43 57.7983 Q1325.11 57.7983 1328.54 56.8955 Q1332.02 55.9928 1335.42 54.1872 L1335.42 60.2288 Q1331.98 61.6872 1328.37 62.4511 Q1324.76 63.2149 1321.04 63.2149 Q1311.74 63.2149 1306.29 57.7983 Q1300.87 52.3817 1300.87 43.1456 Q1300.87 33.597 1306.01 28.0068 Q1311.18 22.3818 1319.93 22.3818 Q1327.78 22.3818 1332.33 27.4512 Q1336.91 32.4859 1336.91 41.1664 M1330.52 39.2915 Q1330.45 34.0484 1327.57 30.9234 Q1324.72 27.7985 1320 27.7985 Q1314.65 27.7985 1311.43 30.8193 Q1308.23 33.8401 1307.74 39.3262 L1330.52 39.2915 Z" fill="#000000" fill-rule="nonzero" fill-opacity="1" /><path clip-path="url(#clip990)" d="M1369.93 29.2915 Q1368.86 28.6665 1367.57 28.3887 Q1366.32 28.0762 1364.79 28.0762 Q1359.38 28.0762 1356.46 31.6179 Q1353.58 35.1248 1353.58 41.722 L1353.58 62.208 L1347.15 62.208 L1347.15 23.3193 L1353.58 23.3193 L1353.58 29.361 Q1355.59 25.8193 1358.82 24.1179 Q1362.05 22.3818 1366.67 22.3818 Q1367.33 22.3818 1368.13 22.486 Q1368.93 22.5554 1369.9 22.729 L1369.93 29.2915 Z" fill="#000000" fill-rule="nonzero" fill-opacity="1" /><path clip-path="url(#clip990)" d="M1394.31 42.6595 Q1386.56 42.6595 1383.58 44.4303 Q1380.59 46.2011 1380.59 50.472 Q1380.59 53.8747 1382.81 55.8886 Q1385.07 57.8677 1388.93 57.8677 Q1394.24 57.8677 1397.43 54.1178 Q1400.66 50.3331 1400.66 44.0831 L1400.66 42.6595 L1394.31 42.6595 M1407.05 40.0206 L1407.05 62.208 L1400.66 62.208 L1400.66 56.3053 Q1398.47 59.8469 1395.21 61.5483 Q1391.95 63.2149 1387.22 63.2149 Q1381.25 63.2149 1377.71 59.8816 Q1374.2 56.5136 1374.2 50.8886 Q1374.2 44.3262 1378.58 40.9928 Q1382.99 37.6595 1391.7 37.6595 L1400.66 37.6595 L1400.66 37.0345 Q1400.66 32.6248 1397.74 30.229 Q1394.86 27.7985 1389.62 27.7985 Q1386.29 27.7985 1383.13 28.5971 Q1379.97 29.3957 1377.05 30.9929 L1377.05 25.0901 Q1380.56 23.736 1383.86 23.0763 Q1387.15 22.3818 1390.28 22.3818 Q1398.72 22.3818 1402.88 26.7568 Q1407.05 31.1318 1407.05 40.0206 Z" fill="#000000" fill-rule="nonzero" fill-opacity="1" /><path clip-path="url(#clip990)" d="M1445.8 29.2221 L1445.8 8.18051 L1452.19 8.18051 L1452.19 62.208 L1445.8 62.208 L1445.8 56.3747 Q1443.79 59.8469 1440.7 61.5483 Q1437.64 63.2149 1433.33 63.2149 Q1426.29 63.2149 1421.84 57.59 Q1417.43 51.965 1417.43 42.7984 Q1417.43 33.6318 1421.84 28.0068 Q1426.29 22.3818 1433.33 22.3818 Q1437.64 22.3818 1440.7 24.0832 Q1443.79 25.7499 1445.8 29.2221 M1424.03 42.7984 Q1424.03 49.847 1426.91 53.8747 Q1429.83 57.8677 1434.9 57.8677 Q1439.97 57.8677 1442.88 53.8747 Q1445.8 49.847 1445.8 42.7984 Q1445.8 35.7498 1442.88 31.7568 Q1439.97 27.729 1434.9 27.729 Q1429.83 27.729 1426.91 31.7568 Q1424.03 35.7498 1424.03 42.7984 Z" fill="#000000" fill-rule="nonzero" fill-opacity="1" /><path clip-path="url(#clip990)" d="M1480.42 27.7985 Q1475.28 27.7985 1472.29 31.8262 Q1469.31 35.8193 1469.31 42.7984 Q1469.31 49.7775 1472.26 53.8053 Q1475.24 57.7983 1480.42 57.7983 Q1485.52 57.7983 1488.51 53.7705 Q1491.49 49.7428 1491.49 42.7984 Q1491.49 35.8887 1488.51 31.8609 Q1485.52 27.7985 1480.42 27.7985 M1480.42 22.3818 Q1488.75 22.3818 1493.51 27.7985 Q1498.26 33.2151 1498.26 42.7984 Q1498.26 52.3469 1493.51 57.7983 Q1488.75 63.2149 1480.42 63.2149 Q1472.05 63.2149 1467.29 57.7983 Q1462.57 52.3469 1462.57 42.7984 Q1462.57 33.2151 1467.29 27.7985 Q1472.05 22.3818 1480.42 22.3818 Z" fill="#000000" fill-rule="nonzero" fill-opacity="1" /><path clip-path="url(#clip990)" d="M1564.72 41.1664 L1564.72 44.2914 L1535.35 44.2914 Q1535.76 50.8886 1539.31 54.3608 Q1542.88 57.7983 1549.24 57.7983 Q1552.92 57.7983 1556.35 56.8955 Q1559.83 55.9928 1563.23 54.1872 L1563.23 60.2288 Q1559.79 61.6872 1556.18 62.4511 Q1552.57 63.2149 1548.85 63.2149 Q1539.55 63.2149 1534.1 57.7983 Q1528.68 52.3817 1528.68 43.1456 Q1528.68 33.597 1533.82 28.0068 Q1538.99 22.3818 1547.74 22.3818 Q1555.59 22.3818 1560.14 27.4512 Q1564.72 32.4859 1564.72 41.1664 M1558.33 39.2915 Q1558.26 34.0484 1555.38 30.9234 Q1552.54 27.7985 1547.81 27.7985 Q1542.47 27.7985 1539.24 30.8193 Q1536.04 33.8401 1535.56 39.3262 L1558.33 39.2915 Z" fill="#000000" fill-rule="nonzero" fill-opacity="1" /><path clip-path="url(#clip990)" d="M1597.81 23.3193 L1604.2 23.3193 L1604.2 62.208 L1597.81 62.208 L1597.81 23.3193 M1597.81 8.18051 L1604.2 8.18051 L1604.2 16.2707 L1597.81 16.2707 L1597.81 8.18051 Z" fill="#000000" fill-rule="nonzero" fill-opacity="1" /><path clip-path="url(#clip990)" d="M1649.9 38.7359 L1649.9 62.208 L1643.51 62.208 L1643.51 38.9442 Q1643.51 33.4234 1641.35 30.6804 Q1639.2 27.9374 1634.9 27.9374 Q1629.72 27.9374 1626.74 31.2359 Q1623.75 34.5345 1623.75 40.229 L1623.75 62.208 L1617.33 62.208 L1617.33 23.3193 L1623.75 23.3193 L1623.75 29.361 Q1626.04 25.854 1629.13 24.1179 Q1632.26 22.3818 1636.32 22.3818 Q1643.02 22.3818 1646.46 26.5485 Q1649.9 30.6804 1649.9 38.7359 Z" fill="#000000" fill-rule="nonzero" fill-opacity="1" /><path clip-path="url(#clip990)" d="M1668.96 12.2777 L1668.96 23.3193 L1682.12 23.3193 L1682.12 28.2846 L1668.96 28.2846 L1668.96 49.3956 Q1668.96 54.1525 1670.24 55.5066 Q1671.56 56.8608 1675.56 56.8608 L1682.12 56.8608 L1682.12 62.208 L1675.56 62.208 Q1668.16 62.208 1665.35 59.465 Q1662.53 56.6872 1662.53 49.3956 L1662.53 28.2846 L1657.85 28.2846 L1657.85 23.3193 L1662.53 23.3193 L1662.53 12.2777 L1668.96 12.2777 Z" fill="#000000" fill-rule="nonzero" fill-opacity="1" /><path clip-path="url(#clip990)" d="M1723.78 41.1664 L1723.78 44.2914 L1694.41 44.2914 Q1694.83 50.8886 1698.37 54.3608 Q1701.94 57.7983 1708.3 57.7983 Q1711.98 57.7983 1715.42 56.8955 Q1718.89 55.9928 1722.29 54.1872 L1722.29 60.2288 Q1718.85 61.6872 1715.24 62.4511 Q1711.63 63.2149 1707.92 63.2149 Q1698.61 63.2149 1693.16 57.7983 Q1687.74 52.3817 1687.74 43.1456 Q1687.74 33.597 1692.88 28.0068 Q1698.06 22.3818 1706.81 22.3818 Q1714.65 22.3818 1719.2 27.4512 Q1723.78 32.4859 1723.78 41.1664 M1717.4 39.2915 Q1717.33 34.0484 1714.44 30.9234 Q1711.6 27.7985 1706.87 27.7985 Q1701.53 27.7985 1698.3 30.8193 Q1695.1 33.8401 1694.62 39.3262 L1717.4 39.2915 Z" fill="#000000" fill-rule="nonzero" fill-opacity="1" /><path clip-path="url(#clip990)" d="M1756.81 29.2915 Q1755.73 28.6665 1754.44 28.3887 Q1753.19 28.0762 1751.67 28.0762 Q1746.25 28.0762 1743.33 31.6179 Q1740.45 35.1248 1740.45 41.722 L1740.45 62.208 L1734.03 62.208 L1734.03 23.3193 L1740.45 23.3193 L1740.45 29.361 Q1742.46 25.8193 1745.69 24.1179 Q1748.92 22.3818 1753.54 22.3818 Q1754.2 22.3818 1755 22.486 Q1755.8 22.5554 1756.77 22.729 L1756.81 29.2915 Z" fill="#000000" fill-rule="nonzero" fill-opacity="1" /><path clip-path="url(#clip990)" d="M1758.92 23.3193 L1765.69 23.3193 L1777.85 55.958 L1790 23.3193 L1796.77 23.3193 L1782.19 62.208 L1773.51 62.208 L1758.92 23.3193 Z" fill="#000000" fill-rule="nonzero" fill-opacity="1" /><path clip-path="url(#clip990)" d="M1823.26 42.6595 Q1815.52 42.6595 1812.53 44.4303 Q1809.55 46.2011 1809.55 50.472 Q1809.55 53.8747 1811.77 55.8886 Q1814.03 57.8677 1817.88 57.8677 Q1823.19 57.8677 1826.39 54.1178 Q1829.62 50.3331 1829.62 44.0831 L1829.62 42.6595 L1823.26 42.6595 M1836.01 40.0206 L1836.01 62.208 L1829.62 62.208 L1829.62 56.3053 Q1827.43 59.8469 1824.17 61.5483 Q1820.9 63.2149 1816.18 63.2149 Q1810.21 63.2149 1806.67 59.8816 Q1803.16 56.5136 1803.16 50.8886 Q1803.16 44.3262 1807.53 40.9928 Q1811.94 37.6595 1820.66 37.6595 L1829.62 37.6595 L1829.62 37.0345 Q1829.62 32.6248 1826.7 30.229 Q1823.82 27.7985 1818.58 27.7985 Q1815.24 27.7985 1812.08 28.5971 Q1808.92 29.3957 1806.01 30.9929 L1806.01 25.0901 Q1809.51 23.736 1812.81 23.0763 Q1816.11 22.3818 1819.24 22.3818 Q1827.67 22.3818 1831.84 26.7568 Q1836.01 31.1318 1836.01 40.0206 Z" fill="#000000" fill-rule="nonzero" fill-opacity="1" /><path clip-path="url(#clip990)" d="M1849.17 8.18051 L1855.55 8.18051 L1855.55 62.208 L1849.17 62.208 L1849.17 8.18051 Z" fill="#000000" fill-rule="nonzero" fill-opacity="1" /><path clip-path="url(#clip990)" d="M1883.99 27.7985 Q1878.85 27.7985 1875.87 31.8262 Q1872.88 35.8193 1872.88 42.7984 Q1872.88 49.7775 1875.83 53.8053 Q1878.82 57.7983 1883.99 57.7983 Q1889.1 57.7983 1892.08 53.7705 Q1895.07 49.7428 1895.07 42.7984 Q1895.07 35.8887 1892.08 31.8609 Q1889.1 27.7985 1883.99 27.7985 M1883.99 22.3818 Q1892.33 22.3818 1897.08 27.7985 Q1901.84 33.2151 1901.84 42.7984 Q1901.84 52.3469 1897.08 57.7983 Q1892.33 63.2149 1883.99 63.2149 Q1875.62 63.2149 1870.87 57.7983 Q1866.14 52.3469 1866.14 42.7984 Q1866.14 33.2151 1870.87 27.7985 Q1875.62 22.3818 1883.99 22.3818 Z" fill="#000000" fill-rule="nonzero" fill-opacity="1" /><path clip-path="url(#clip990)" d="M1937.22 24.4651 L1937.22 30.5068 Q1934.51 29.1179 1931.6 28.4235 Q1928.68 27.729 1925.55 27.729 Q1920.8 27.729 1918.4 29.1873 Q1916.04 30.6457 1916.04 33.5623 Q1916.04 35.7845 1917.74 37.0692 Q1919.44 38.3192 1924.58 39.4651 L1926.77 39.9512 Q1933.57 41.4095 1936.42 44.0831 Q1939.3 46.722 1939.3 51.4789 Q1939.3 56.8955 1935 60.0552 Q1930.73 63.2149 1923.23 63.2149 Q1920.1 63.2149 1916.7 62.5899 Q1913.33 61.9997 1909.58 60.7844 L1909.58 54.1872 Q1913.12 56.0275 1916.56 56.965 Q1920 57.8677 1923.37 57.8677 Q1927.88 57.8677 1930.31 56.34 Q1932.74 54.7775 1932.74 51.965 Q1932.74 49.3608 1930.97 47.972 Q1929.23 46.5831 1923.3 45.2984 L1921.08 44.7775 Q1915.14 43.5275 1912.5 40.9581 Q1909.86 38.354 1909.86 33.8401 Q1909.86 28.354 1913.75 25.3679 Q1917.64 22.3818 1924.79 22.3818 Q1928.33 22.3818 1931.46 22.9027 Q1934.58 23.4235 1937.22 24.4651 Z" fill="#000000" fill-rule="nonzero" fill-opacity="1" /><path clip-path="url(#clip990)" d="M1997.67 29.2221 L1997.67 8.18051 L2004.06 8.18051 L2004.06 62.208 L1997.67 62.208 L1997.67 56.3747 Q1995.66 59.8469 1992.57 61.5483 Q1989.51 63.2149 1985.21 63.2149 Q1978.16 63.2149 1973.71 57.59 Q1969.3 51.965 1969.3 42.7984 Q1969.3 33.6318 1973.71 28.0068 Q1978.16 22.3818 1985.21 22.3818 Q1989.51 22.3818 1992.57 24.0832 Q1995.66 25.7499 1997.67 29.2221 M1975.9 42.7984 Q1975.9 49.847 1978.78 53.8747 Q1981.7 57.8677 1986.77 57.8677 Q1991.84 57.8677 1994.76 53.8747 Q1997.67 49.847 1997.67 42.7984 Q1997.67 35.7498 1994.76 31.7568 Q1991.84 27.729 1986.77 27.729 Q1981.7 27.729 1978.78 31.7568 Q1975.9 35.7498 1975.9 42.7984 Z" fill="#000000" fill-rule="nonzero" fill-opacity="1" /><path clip-path="url(#clip990)" d="M2050.48 41.1664 L2050.48 44.2914 L2021.11 44.2914 Q2021.53 50.8886 2025.07 54.3608 Q2028.64 57.7983 2035 57.7983 Q2038.68 57.7983 2042.12 56.8955 Q2045.59 55.9928 2048.99 54.1872 L2048.99 60.2288 Q2045.55 61.6872 2041.94 62.4511 Q2038.33 63.2149 2034.62 63.2149 Q2025.31 63.2149 2019.86 57.7983 Q2014.44 52.3817 2014.44 43.1456 Q2014.44 33.597 2019.58 28.0068 Q2024.76 22.3818 2033.5 22.3818 Q2041.35 22.3818 2045.9 27.4512 Q2050.48 32.4859 2050.48 41.1664 M2044.1 39.2915 Q2044.03 34.0484 2041.14 30.9234 Q2038.3 27.7985 2033.57 27.7985 Q2028.23 27.7985 2025 30.8193 Q2021.8 33.8401 2021.32 39.3262 L2044.1 39.2915 Z" fill="#000000" fill-rule="nonzero" fill-opacity="1" /><path clip-path="url(#clip990)" d="M2111.56 24.8124 L2111.56 30.7846 Q2108.85 29.2915 2106.11 28.5623 Q2103.4 27.7985 2100.62 27.7985 Q2094.41 27.7985 2090.97 31.7568 Q2087.53 35.6804 2087.53 42.7984 Q2087.53 49.9164 2090.97 53.8747 Q2094.41 57.7983 2100.62 57.7983 Q2103.4 57.7983 2106.11 57.0691 Q2108.85 56.3053 2111.56 54.8122 L2111.56 60.715 Q2108.89 61.9649 2106 62.5899 Q2103.16 63.2149 2099.93 63.2149 Q2091.14 63.2149 2085.97 57.6941 Q2080.8 52.1733 2080.8 42.7984 Q2080.8 33.2845 2086 27.8332 Q2091.25 22.3818 2100.34 22.3818 Q2103.3 22.3818 2106.11 23.0068 Q2108.92 23.5971 2111.56 24.8124 Z" fill="#000000" fill-rule="nonzero" fill-opacity="1" /><path clip-path="url(#clip990)" d="M2137.74 27.7985 Q2132.6 27.7985 2129.62 31.8262 Q2126.63 35.8193 2126.63 42.7984 Q2126.63 49.7775 2129.58 53.8053 Q2132.57 57.7983 2137.74 57.7983 Q2142.84 57.7983 2145.83 53.7705 Q2148.82 49.7428 2148.82 42.7984 Q2148.82 35.8887 2145.83 31.8609 Q2142.84 27.7985 2137.74 27.7985 M2137.74 22.3818 Q2146.07 22.3818 2150.83 27.7985 Q2155.59 33.2151 2155.59 42.7984 Q2155.59 52.3469 2150.83 57.7983 Q2146.07 63.2149 2137.74 63.2149 Q2129.37 63.2149 2124.62 57.7983 Q2119.89 52.3469 2119.89 42.7984 Q2119.89 33.2151 2124.62 27.7985 Q2129.37 22.3818 2137.74 22.3818 Z" fill="#000000" fill-rule="nonzero" fill-opacity="1" /><path clip-path="url(#clip990)" d="M2198.5 38.7359 L2198.5 62.208 L2192.12 62.208 L2192.12 38.9442 Q2192.12 33.4234 2189.96 30.6804 Q2187.81 27.9374 2183.5 27.9374 Q2178.33 27.9374 2175.34 31.2359 Q2172.36 34.5345 2172.36 40.229 L2172.36 62.208 L2165.93 62.208 L2165.93 23.3193 L2172.36 23.3193 L2172.36 29.361 Q2174.65 25.854 2177.74 24.1179 Q2180.87 22.3818 2184.93 22.3818 Q2191.63 22.3818 2195.07 26.5485 Q2198.5 30.6804 2198.5 38.7359 Z" fill="#000000" fill-rule="nonzero" fill-opacity="1" /><path clip-path="url(#clip990)" d="M2230.93 8.18051 L2230.93 13.493 L2224.82 13.493 Q2221.39 13.493 2220.03 14.8819 Q2218.71 16.2707 2218.71 19.8818 L2218.71 23.3193 L2229.23 23.3193 L2229.23 28.2846 L2218.71 28.2846 L2218.71 62.208 L2212.29 62.208 L2212.29 28.2846 L2206.18 28.2846 L2206.18 23.3193 L2212.29 23.3193 L2212.29 20.611 Q2212.29 14.118 2215.31 11.1666 Q2218.33 8.18051 2224.89 8.18051 L2230.93 8.18051 Z" fill="#000000" fill-rule="nonzero" fill-opacity="1" /><path clip-path="url(#clip990)" d="M2236.28 23.3193 L2242.67 23.3193 L2242.67 62.208 L2236.28 62.208 L2236.28 23.3193 M2236.28 8.18051 L2242.67 8.18051 L2242.67 16.2707 L2236.28 16.2707 L2236.28 8.18051 Z" fill="#000000" fill-rule="nonzero" fill-opacity="1" /><path clip-path="url(#clip990)" d="M2273.71 42.6595 Q2265.97 42.6595 2262.98 44.4303 Q2260 46.2011 2260 50.472 Q2260 53.8747 2262.22 55.8886 Q2264.48 57.8677 2268.33 57.8677 Q2273.64 57.8677 2276.84 54.1178 Q2280.07 50.3331 2280.07 44.0831 L2280.07 42.6595 L2273.71 42.6595 M2286.45 40.0206 L2286.45 62.208 L2280.07 62.208 L2280.07 56.3053 Q2277.88 59.8469 2274.61 61.5483 Q2271.35 63.2149 2266.63 63.2149 Q2260.66 63.2149 2257.11 59.8816 Q2253.61 56.5136 2253.61 50.8886 Q2253.61 44.3262 2257.98 40.9928 Q2262.39 37.6595 2271.11 37.6595 L2280.07 37.6595 L2280.07 37.0345 Q2280.07 32.6248 2277.15 30.229 Q2274.27 27.7985 2269.02 27.7985 Q2265.69 27.7985 2262.53 28.5971 Q2259.37 29.3957 2256.46 30.9929 L2256.46 25.0901 Q2259.96 23.736 2263.26 23.0763 Q2266.56 22.3818 2269.68 22.3818 Q2278.12 22.3818 2282.29 26.7568 Q2286.45 31.1318 2286.45 40.0206 Z" fill="#000000" fill-rule="nonzero" fill-opacity="1" /><path clip-path="url(#clip990)" d="M2331.94 38.7359 L2331.94 62.208 L2325.55 62.208 L2325.55 38.9442 Q2325.55 33.4234 2323.4 30.6804 Q2321.25 27.9374 2316.94 27.9374 Q2311.77 27.9374 2308.78 31.2359 Q2305.8 34.5345 2305.8 40.229 L2305.8 62.208 L2299.37 62.208 L2299.37 23.3193 L2305.8 23.3193 L2305.8 29.361 Q2308.09 25.854 2311.18 24.1179 Q2314.3 22.3818 2318.36 22.3818 Q2325.07 22.3818 2328.5 26.5485 Q2331.94 30.6804 2331.94 38.7359 Z" fill="#000000" fill-rule="nonzero" fill-opacity="1" /><path clip-path="url(#clip990)" d="M2372.67 24.8124 L2372.67 30.7846 Q2369.96 29.2915 2367.22 28.5623 Q2364.51 27.7985 2361.73 27.7985 Q2355.52 27.7985 2352.08 31.7568 Q2348.64 35.6804 2348.64 42.7984 Q2348.64 49.9164 2352.08 53.8747 Q2355.52 57.7983 2361.73 57.7983 Q2364.51 57.7983 2367.22 57.0691 Q2369.96 56.3053 2372.67 54.8122 L2372.67 60.715 Q2370 61.9649 2367.11 62.5899 Q2364.27 63.2149 2361.04 63.2149 Q2352.25 63.2149 2347.08 57.6941 Q2341.91 52.1733 2341.91 42.7984 Q2341.91 33.2845 2347.11 27.8332 Q2352.36 22.3818 2361.45 22.3818 Q2364.41 22.3818 2367.22 23.0068 Q2370.03 23.5971 2372.67 24.8124 M2363.64 62.208 Q2365.55 64.3608 2366.49 66.1663 Q2367.43 68.0066 2367.43 69.6732 Q2367.43 72.7635 2365.34 74.326 Q2363.26 75.9232 2359.16 75.9232 Q2357.57 75.9232 2356.04 75.7149 Q2354.54 75.5065 2353.05 75.0899 L2353.05 70.5413 Q2354.23 71.1316 2355.52 71.3746 Q2356.8 71.6524 2358.43 71.6524 Q2360.48 71.6524 2361.52 70.8191 Q2362.57 69.9857 2362.57 68.3885 Q2362.57 67.3469 2361.8 65.8191 Q2361.07 64.326 2359.51 62.208 L2363.64 62.208 Z" fill="#000000" fill-rule="nonzero" fill-opacity="1" /><path clip-path="url(#clip990)" d="M2401.45 42.6595 Q2393.71 42.6595 2390.73 44.4303 Q2387.74 46.2011 2387.74 50.472 Q2387.74 53.8747 2389.96 55.8886 Q2392.22 57.8677 2396.07 57.8677 Q2401.38 57.8677 2404.58 54.1178 Q2407.81 50.3331 2407.81 44.0831 L2407.81 42.6595 L2401.45 42.6595 M2414.2 40.0206 L2414.2 62.208 L2407.81 62.208 L2407.81 56.3053 Q2405.62 59.8469 2402.36 61.5483 Q2399.09 63.2149 2394.37 63.2149 Q2388.4 63.2149 2384.86 59.8816 Q2381.35 56.5136 2381.35 50.8886 Q2381.35 44.3262 2385.73 40.9928 Q2390.13 37.6595 2398.85 37.6595 L2407.81 37.6595 L2407.81 37.0345 Q2407.81 32.6248 2404.89 30.229 Q2402.01 27.7985 2396.77 27.7985 Q2393.43 27.7985 2390.27 28.5971 Q2387.11 29.3957 2384.2 30.9929 L2384.2 25.0901 Q2387.7 23.736 2391 23.0763 Q2394.3 22.3818 2397.43 22.3818 Q2405.86 22.3818 2410.03 26.7568 Q2414.2 31.1318 2414.2 40.0206 Z" fill="#000000" fill-rule="nonzero" fill-opacity="1" /><path clip-path="url(#clip992)" d="M316.418 2145.95 L330.256 2125.27 L344.094 2103.45 L357.932 2080.49 L371.769 2056.36 L385.607 2031.03 L399.445 2004.62 L413.283 1977 L427.121 1948.16 L440.958 1918.13 L454.796 1886.9 L468.634 1854.54 L482.472 1821.09 L496.31 1786.55 L510.148 1750.96 L523.985 1714.4 L537.823 1676.93 L551.661 1638.63 L565.499 1599.58 L579.337 1559.86 L593.174 1519.08 L607.012 1477.79 L620.85 1436.14 L634.688 1394.19 L648.526 1352.34 L662.364 1310.87 L676.201 1269.51 L690.039 1228.38 L703.877 1186.79 L717.715 1144.67 L731.553 1103.01 L745.39 1062.12 L759.228 1022.74 L773.066 985.033 L786.904 948.234 L800.742 912.105 L814.58 877.048 L828.417 843.168 L842.255 810.345 L856.093 778.79 L869.931 748.941 L883.769 720.456 L897.606 693.173 L911.444 667.091 L925.282 643.055 L939.12 619.875 L952.958 597.436 L966.796 576.106 L980.633 555.648 L994.471 536.005 L1008.31 517.295 L1022.15 499.455 L1035.98 482.44 L1049.82 466.812 L1063.66 452.447 L1077.5 438.869 L1091.34 426.206 L1105.17 413.699 L1119.01 402.439 L1132.85 392.497 L1146.69 382.857 L1160.53 373.874 L1174.36 365.975 L1188.2 359.154 L1202.04 351.492 L1215.88 344.646 L1229.71 338.019 L1243.55 331.9 L1257.39 326.347 L1271.23 321.174 L1285.07 316.355 L1298.9 311.868 L1312.74 307.689 L1326.58 303.992 L1340.42 300.917 L1354.25 297.872 L1368.09 295.093 L1381.93 292.083 L1395.77 289.308 L1409.61 287.13 L1423.44 284.848 L1437.28 282.589 L1451.12 280.496 L1464.96 278.69 L1478.79 277.058 L1492.63 275.373 L1506.47 273.811 L1520.31 272.364 L1534.15 271.018 L1547.98 269.787 L1561.82 268.805 L1575.66 267.899 L1589.5 267.057 L1603.34 266.275 L1617.17 265.548 L1631.01 264.871 L1644.85 264.28 L1658.69 263.767 L1672.52 263.292 L1686.36 262.851 L1700.2 262.443 L1714.04 262.065 L1727.88 261.715 L1741.71 261.392 L1755.55 261.093 L1769.39 260.816 L1783.23 260.559 L1797.06 260.32 L1810.9 260.099 L1824.74 259.894 L1838.58 259.704 L1852.42 259.528 L1866.25 259.365 L1880.09 259.213 L1893.93 259.072 L1907.77 258.939 L1921.61 258.816 L1935.44 258.701 L1949.28 258.595 L1963.12 258.497 L1976.96 258.407 L1990.79 258.324 L2004.63 258.248 L2018.47 258.177 L2032.31 258.112 L2046.15 258.052 L2059.98 257.997 L2073.82 257.944 L2087.66 257.895 L2101.5 257.85 L2115.33 257.808 L2129.17 257.769 L2143.01 257.733 L2156.85 257.7 L2170.69 257.669 L2184.52 257.64 L2198.36 257.613 L2212.2 257.587 L2226.04 257.563 L2239.87 257.54 L2253.71 257.519 L2267.55 257.499 L2281.39 257.481 L2295.23 257.464 L2309.06 257.449 L2322.9 257.435 L2336.74 257.423 L2350.58 257.411 L2364.42 257.401 L2378.25 257.391 L2392.09 257.382 L2405.93 257.374 L2419.77 257.366 L2433.6 257.358 L2447.44 257.352 L2461.28 257.345 L2475.12 257.34 L2488.96 257.334 L2502.79 257.33 L2516.63 257.325 L2530.47 257.321 L2544.31 257.318 L2558.14 257.314 L2571.98 257.311 L2585.82 257.308 L2599.66 257.305 L2613.5 257.301 L2627.33 257.298 L2641.17 257.295 L2655.01 257.292 L2668.85 257.29 L2682.69 257.288 L2696.52 257.286 L2710.36 257.284 L2724.2 257.283 L2738.04 257.281 L2751.87 257.28 L2765.71 257.28 L2779.55 257.279 L2793.39 257.278 L2807.23 257.278 L2821.06 257.278 L2834.9 257.277 L2848.74 257.277 L2862.58 257.276 L2876.41 257.275 L2890.25 257.274 L2904.09 257.274 L2917.93 257.273 L2931.77 257.273 L2945.6 257.273 L2959.44 257.272 L2973.28 257.272 L2987.12 257.272 L3000.96 257.272 L3014.79 257.272 L3028.63 257.272 L3042.47 257.271 L3056.31 257.271 L3070.14 257.27 L3070.14 180.282 L3056.31 180.283 L3042.47 180.283 L3028.63 180.284 L3014.79 180.285 L3000.96 180.286 L2987.12 180.287 L2973.28 180.288 L2959.44 180.289 L2945.6 180.29 L2931.77 180.291 L2917.93 180.292 L2904.09 180.293 L2890.25 180.294 L2876.41 180.294 L2862.58 180.294 L2848.74 180.294 L2834.9 180.293 L2821.06 180.292 L2807.23 180.291 L2793.39 180.29 L2779.55 180.289 L2765.71 180.289 L2751.87 180.289 L2738.04 180.289 L2724.2 180.289 L2710.36 180.29 L2696.52 180.291 L2682.69 180.292 L2668.85 180.294 L2655.01 180.296 L2641.17 180.299 L2627.33 180.303 L2613.5 180.307 L2599.66 180.311 L2585.82 180.316 L2571.98 180.321 L2558.14 180.327 L2544.31 180.333 L2530.47 180.34 L2516.63 180.347 L2502.79 180.354 L2488.96 180.362 L2475.12 180.369 L2461.28 180.377 L2447.44 180.384 L2433.6 180.391 L2419.77 180.398 L2405.93 180.404 L2392.09 180.411 L2378.25 180.418 L2364.42 180.426 L2350.58 180.435 L2336.74 180.445 L2322.9 180.456 L2309.06 180.469 L2295.23 180.483 L2281.39 180.5 L2267.55 180.518 L2253.71 180.538 L2239.87 180.561 L2226.04 180.586 L2212.2 180.613 L2198.36 180.643 L2184.52 180.675 L2170.69 180.71 L2156.85 180.747 L2143.01 180.787 L2129.17 180.829 L2115.33 180.874 L2101.5 180.921 L2087.66 180.969 L2073.82 181.02 L2059.98 181.073 L2046.15 181.129 L2032.31 181.19 L2018.47 181.255 L2004.63 181.327 L1990.79 181.405 L1976.96 181.491 L1963.12 181.585 L1949.28 181.688 L1935.44 181.8 L1921.61 181.923 L1907.77 182.057 L1893.93 182.202 L1880.09 182.358 L1866.25 182.528 L1852.42 182.71 L1838.58 182.906 L1824.74 183.116 L1810.9 183.34 L1797.06 183.578 L1783.23 183.832 L1769.39 184.103 L1755.55 184.394 L1741.71 184.709 L1727.88 185.048 L1714.04 185.416 L1700.2 185.815 L1686.36 186.247 L1672.52 186.715 L1658.69 187.221 L1644.85 187.769 L1631.01 188.362 L1617.17 189.01 L1603.34 189.791 L1589.5 190.633 L1575.66 191.538 L1561.82 192.512 L1547.98 193.536 L1534.15 194.626 L1520.31 195.795 L1506.47 196.924 L1492.63 198.118 L1478.79 199.409 L1464.96 200.869 L1451.12 202.719 L1437.28 204.789 L1423.44 207.029 L1409.61 209.14 L1395.77 211.387 L1381.93 213.756 L1368.09 216.301 L1354.25 219.293 L1340.42 222.573 L1326.58 226.094 L1312.74 229.876 L1298.9 233.613 L1285.07 237.56 L1271.23 241.804 L1257.39 246.367 L1243.55 251.31 L1229.71 256.798 L1215.88 262.518 L1202.04 268.678 L1188.2 274.761 L1174.36 281.877 L1160.53 289.461 L1146.69 297.373 L1132.85 305.243 L1119.01 313.962 L1105.17 322.421 L1091.34 331.44 L1077.5 341.224 L1063.66 351.788 L1049.82 363.248 L1035.98 375.702 L1022.15 388.95 L1008.31 402.439 L994.471 416.693 L980.633 432.897 L966.796 449.175 L952.958 466.185 L939.12 484.383 L925.282 503.792 L911.444 524.216 L897.606 544.637 L883.769 566.182 L869.931 589.019 L856.093 613.72 L842.255 640.203 L828.417 667.103 L814.58 695.187 L800.742 724.447 L786.904 754.712 L773.066 786.029 L759.228 818.537 L745.39 852.207 L731.553 887.533 L717.715 923.946 L703.877 961.162 L690.039 998.886 L676.201 1037.43 L662.364 1076.6 L648.526 1116.48 L634.688 1156.96 L620.85 1197.98 L607.012 1239.77 L593.174 1281.92 L579.337 1324.29 L565.499 1366.24 L551.661 1408.1 L537.823 1449.87 L523.985 1491.34 L510.148 1532.77 L496.31 1573.36 L482.472 1613.26 L468.634 1652.28 L454.796 1690.29 L440.958 1727.4 L427.121 1763.58 L413.283 1798.78 L399.445 1833.4 L385.607 1866.86 L371.769 1899.09 L357.932 1930.11 L344.094 1959.84 L330.256 1988.18 L316.418 2015.3  Z" fill="#009af9" fill-rule="evenodd" fill-opacity="0.2"/>
<polyline clip-path="url(#clip992)" style="stroke:#009af9; stroke-linecap:round; stroke-linejoin:round; stroke-width:12; stroke-opacity:1; fill:none" points="316.418,2080.86 330.256,2056.73 344.094,2031.54 357.932,2005.18 371.769,1977.61 385.607,1948.85 399.445,1918.89 413.283,1887.74 427.121,1855.43 440.958,1821.81 454.796,1787.05 468.634,1751.11 482.472,1714.15 496.31,1676.24 510.148,1637.46 523.985,1597.97 537.823,1557.97 551.661,1517.39 565.499,1475.96 579.337,1433.97 593.174,1391.84 607.012,1350.28 620.85,1308.73 634.688,1267.02 648.526,1224.96 662.364,1182.95 676.201,1141.43 690.039,1100.83 703.877,1061.01 717.715,1021.61 731.553,983.073 745.39,945.017 759.228,909.198 773.066,873.863 786.904,839.578 800.742,806.067 814.58,773.726 828.417,743.245 842.255,713.922 856.093,684.23 869.931,656.63 883.769,630.951 897.606,606.539 911.444,585.031 925.282,562.619 939.12,539.945 952.958,520.878 966.796,502.168 980.633,484.131 994.471,467.584 1008.31,451.504 1022.15,437.124 1035.98,423.407 1049.82,409.736 1063.66,397.272 1077.5,385.932 1091.34,375.021 1105.17,365.739 1119.01,356.099 1132.85,346.779 1146.69,338.656 1160.53,331.19 1174.36,324.002 1188.2,316.948 1202.04,309.487 1215.88,302.62 1229.71,297.108 1243.55,292.404 1257.39,287.733 1271.23,283.155 1285.07,279.144 1298.9,275.143 1312.74,271.726 1326.58,268.588 1340.42,265.631 1354.25,262.681 1368.09,259.784 1381.93,257.192 1395.77,254.994 1409.61,253.073 1423.44,251.028 1437.28,249.043 1451.12,247.3 1464.96,245.36 1478.79,243.789 1492.63,242.334 1506.47,241.114 1520.31,240.012 1534.15,238.989 1547.98,238.038 1561.82,237.162 1575.66,236.307 1589.5,235.476 1603.34,234.696 1617.17,233.964 1631.01,233.209 1644.85,232.529 1658.69,231.9 1672.52,231.317 1686.36,230.779 1700.2,230.281 1714.04,229.843 1727.88,229.44 1741.71,229.068 1755.55,228.734 1769.39,228.462 1783.23,228.209 1797.06,227.975 1810.9,227.756 1824.74,227.552 1838.58,227.36 1852.42,227.181 1866.25,227.012 1880.09,226.855 1893.93,226.708 1907.77,226.572 1921.61,226.446 1935.44,226.33 1949.28,226.222 1963.12,226.124 1976.96,226.033 1990.79,225.95 2004.63,225.872 2018.47,225.801 2032.31,225.736 2046.15,225.676 2059.98,225.621 2073.82,225.57 2087.66,225.523 2101.5,225.477 2115.33,225.433 2129.17,225.392 2143.01,225.354 2156.85,225.317 2170.69,225.281 2184.52,225.248 2198.36,225.217 2212.2,225.188 2226.04,225.161 2239.87,225.136 2253.71,225.113 2267.55,225.092 2281.39,225.072 2295.23,225.055 2309.06,225.04 2322.9,225.026 2336.74,225.013 2350.58,225.002 2364.42,224.992 2378.25,224.984 2392.09,224.976 2405.93,224.969 2419.77,224.962 2433.6,224.956 2447.44,224.95 2461.28,224.944 2475.12,224.938 2488.96,224.933 2502.79,224.927 2516.63,224.921 2530.47,224.916 2544.31,224.91 2558.14,224.904 2571.98,224.899 2585.82,224.894 2599.66,224.889 2613.5,224.885 2627.33,224.88 2641.17,224.877 2655.01,224.873 2668.85,224.871 2682.69,224.868 2696.52,224.866 2710.36,224.864 2724.2,224.863 2738.04,224.862 2751.87,224.861 2765.71,224.861 2779.55,224.861 2793.39,224.861 2807.23,224.861 2821.06,224.862 2834.9,224.863 2848.74,224.863 2862.58,224.864 2876.41,224.864 2890.25,224.864 2904.09,224.864 2917.93,224.864 2931.77,224.863 2945.6,224.863 2959.44,224.863 2973.28,224.863 2987.12,224.862 3000.96,224.862 3014.79,224.861 3028.63,224.86 3042.47,224.86 3056.31,224.859 3070.14,224.858 "/>
<path clip-path="url(#clip992)" d="M316.418 2125.91 L330.256 2104.2 L344.094 2081.42 L357.932 2057.48 L371.769 2032.36 L385.607 2006.05 L399.445 1978.53 L413.283 1949.82 L427.121 1919.91 L440.958 1888.75 L454.796 1856.3 L468.634 1822.69 L482.472 1787.97 L496.31 1752.18 L510.148 1715.39 L523.985 1677.64 L537.823 1639 L551.661 1599.51 L565.499 1559.32 L579.337 1518.52 L593.174 1477.21 L607.012 1435.51 L620.85 1393.53 L634.688 1351.79 L648.526 1310.17 L662.364 1268.58 L676.201 1226.63 L690.039 1184.99 L703.877 1144.65 L717.715 1105.94 L731.553 1067.59 L745.39 1029.24 L759.228 990.416 L773.066 952.713 L786.904 916.921 L800.742 882.084 L814.58 847.482 L828.417 814.656 L842.255 783.668 L856.093 751.964 L869.931 722.027 L883.769 694.226 L897.606 667.298 L911.444 641.007 L925.282 615.806 L939.12 591.993 L952.958 568.397 L966.796 547.704 L980.633 527.047 L994.471 507.958 L1008.31 489.565 L1022.15 472.183 L1035.98 456.974 L1049.82 443.003 L1063.66 429.498 L1077.5 416.65 L1091.34 404.875 L1105.17 393.787 L1119.01 383.624 L1132.85 374.153 L1146.69 365.35 L1160.53 356.584 L1174.36 349.015 L1188.2 341.979 L1202.04 335.198 L1215.88 328.546 L1229.71 323.189 L1243.55 317.407 L1257.39 312.546 L1271.23 307.787 L1285.07 303.58 L1298.9 299.372 L1312.74 295.486 L1326.58 291.909 L1340.42 288.717 L1354.25 285.49 L1368.09 282.975 L1381.93 280.809 L1395.77 278.428 L1409.61 275.997 L1423.44 274.115 L1437.28 272.321 L1451.12 270.499 L1464.96 268.572 L1478.79 266.71 L1492.63 265.13 L1506.47 263.915 L1520.31 262.912 L1534.15 261.982 L1547.98 261.121 L1561.82 260.227 L1575.66 259.188 L1589.5 258.196 L1603.34 257.268 L1617.17 256.394 L1631.01 255.574 L1644.85 254.892 L1658.69 254.342 L1672.52 253.833 L1686.36 253.364 L1700.2 252.895 L1714.04 252.411 L1727.88 251.956 L1741.71 251.536 L1755.55 251.146 L1769.39 250.771 L1783.23 250.419 L1797.06 250.089 L1810.9 249.777 L1824.74 249.486 L1838.58 249.213 L1852.42 248.96 L1866.25 248.725 L1880.09 248.507 L1893.93 248.306 L1907.77 248.118 L1921.61 247.942 L1935.44 247.78 L1949.28 247.631 L1963.12 247.495 L1976.96 247.371 L1990.79 247.257 L2004.63 247.154 L2018.47 247.06 L2032.31 246.973 L2046.15 246.894 L2059.98 246.82 L2073.82 246.751 L2087.66 246.685 L2101.5 246.622 L2115.33 246.561 L2129.17 246.51 L2143.01 246.473 L2156.85 246.437 L2170.69 246.393 L2184.52 246.351 L2198.36 246.313 L2212.2 246.279 L2226.04 246.247 L2239.87 246.217 L2253.71 246.191 L2267.55 246.167 L2281.39 246.146 L2295.23 246.126 L2309.06 246.109 L2322.9 246.093 L2336.74 246.079 L2350.58 246.066 L2364.42 246.054 L2378.25 246.043 L2392.09 246.032 L2405.93 246.021 L2419.77 246.01 L2433.6 245.999 L2447.44 245.988 L2461.28 245.978 L2475.12 245.969 L2488.96 245.959 L2502.79 245.951 L2516.63 245.942 L2530.47 245.935 L2544.31 245.927 L2558.14 245.921 L2571.98 245.914 L2585.82 245.909 L2599.66 245.904 L2613.5 245.9 L2627.33 245.897 L2641.17 245.894 L2655.01 245.891 L2668.85 245.889 L2682.69 245.888 L2696.52 245.887 L2710.36 245.887 L2724.2 245.886 L2738.04 245.886 L2751.87 245.887 L2765.71 245.887 L2779.55 245.887 L2793.39 245.888 L2807.23 245.888 L2821.06 245.887 L2834.9 245.887 L2848.74 245.885 L2862.58 245.884 L2876.41 245.882 L2890.25 245.881 L2904.09 245.88 L2917.93 245.879 L2931.77 245.878 L2945.6 245.877 L2959.44 245.876 L2973.28 245.875 L2987.12 245.874 L3000.96 245.873 L3014.79 245.872 L3028.63 245.872 L3042.47 245.871 L3056.31 245.87 L3070.14 245.87 L3070.14 202.54 L3056.31 202.541 L3042.47 202.542 L3028.63 202.543 L3014.79 202.545 L3000.96 202.546 L2987.12 202.546 L2973.28 202.547 L2959.44 202.546 L2945.6 202.546 L2931.77 202.545 L2917.93 202.544 L2904.09 202.543 L2890.25 202.542 L2876.41 202.541 L2862.58 202.54 L2848.74 202.539 L2834.9 202.538 L2821.06 202.537 L2807.23 202.537 L2793.39 202.537 L2779.55 202.537 L2765.71 202.537 L2751.87 202.538 L2738.04 202.54 L2724.2 202.542 L2710.36 202.544 L2696.52 202.546 L2682.69 202.55 L2668.85 202.553 L2655.01 202.557 L2641.17 202.562 L2627.33 202.567 L2613.5 202.572 L2599.66 202.577 L2585.82 202.583 L2571.98 202.59 L2558.14 202.596 L2544.31 202.602 L2530.47 202.609 L2516.63 202.615 L2502.79 202.622 L2488.96 202.628 L2475.12 202.634 L2461.28 202.64 L2447.44 202.646 L2433.6 202.653 L2419.77 202.661 L2405.93 202.669 L2392.09 202.679 L2378.25 202.689 L2364.42 202.701 L2350.58 202.714 L2336.74 202.728 L2322.9 202.744 L2309.06 202.762 L2295.23 202.782 L2281.39 202.803 L2267.55 202.827 L2253.71 202.853 L2239.87 202.88 L2226.04 202.91 L2212.2 202.942 L2198.36 202.976 L2184.52 203.013 L2170.69 203.051 L2156.85 203.089 L2143.01 203.128 L2129.17 203.169 L2115.33 203.211 L2101.5 203.256 L2087.66 203.305 L2073.82 203.358 L2059.98 203.416 L2046.15 203.48 L2032.31 203.55 L2018.47 203.628 L2004.63 203.714 L1990.79 203.808 L1976.96 203.912 L1963.12 204.026 L1949.28 204.149 L1935.44 204.284 L1921.61 204.43 L1907.77 204.587 L1893.93 204.756 L1880.09 204.937 L1866.25 205.131 L1852.42 205.337 L1838.58 205.556 L1824.74 205.791 L1810.9 206.043 L1797.06 206.315 L1783.23 206.606 L1769.39 206.921 L1755.55 207.262 L1741.71 207.629 L1727.88 207.976 L1714.04 208.309 L1700.2 208.67 L1686.36 209.062 L1672.52 209.486 L1658.69 209.945 L1644.85 210.469 L1631.01 211.067 L1617.17 211.623 L1603.34 212.22 L1589.5 212.859 L1575.66 213.544 L1561.82 214.278 L1547.98 215.088 L1534.15 216.12 L1520.31 217.333 L1506.47 218.691 L1492.63 220.279 L1478.79 221.995 L1464.96 223.85 L1451.12 225.424 L1437.28 227.119 L1423.44 228.899 L1409.61 230.79 L1395.77 232.828 L1381.93 235.022 L1368.09 237.431 L1354.25 240.056 L1340.42 242.873 L1326.58 245.894 L1312.74 249.339 L1298.9 253.363 L1285.07 257.115 L1271.23 261.44 L1257.39 265.931 L1243.55 270.469 L1229.71 275.192 L1215.88 279.962 L1202.04 285.156 L1188.2 290.984 L1174.36 297.295 L1160.53 304.241 L1146.69 312.067 L1132.85 319.967 L1119.01 328.337 L1105.17 336.967 L1091.34 346.967 L1077.5 357.433 L1063.66 367.959 L1049.82 379.296 L1035.98 391.612 L1022.15 405.593 L1008.31 419.093 L994.471 433.496 L980.633 448.668 L966.796 464.774 L952.958 482.454 L939.12 499.788 L925.282 518.686 L911.444 538.922 L897.606 560.403 L883.769 582.752 L869.931 605.643 L856.093 629.685 L842.255 656.293 L828.417 683.263 L814.58 710.524 L800.742 740.63 L786.904 771.106 L773.066 803.292 L759.228 836.65 L745.39 871.16 L731.553 906.784 L717.715 943.048 L703.877 980.485 L690.039 1018.93 L676.201 1057.78 L662.364 1097.34 L648.526 1137.55 L634.688 1178.45 L620.85 1219.8 L607.012 1261.48 L593.174 1303.38 L579.337 1345.39 L565.499 1387.38 L551.661 1429.24 L537.823 1470.85 L523.985 1512.08 L510.148 1552.82 L496.31 1592.98 L482.472 1632.46 L468.634 1671.16 L454.796 1709 L440.958 1745.92 L427.121 1781.83 L413.283 1816.68 L399.445 1850.38 L385.607 1882.87 L371.769 1914.25 L357.932 1944.65 L344.094 1973.69 L330.256 2001.47 L316.418 2028.02  Z" fill="#e26f46" fill-rule="evenodd" fill-opacity="0.2"/>
<polyline clip-path="url(#clip992)" style="stroke:#e26f46; stroke-linecap:round; stroke-linejoin:round; stroke-width:12; stroke-opacity:1; fill:none" points="316.418,2080.86 330.256,2056.73 344.094,2031.54 357.932,2005.18 371.769,1977.61 385.607,1948.85 399.445,1918.89 413.283,1887.74 427.121,1855.43 440.958,1821.81 454.796,1787.05 468.634,1751.11 482.472,1714.15 496.31,1676.24 510.148,1637.46 523.985,1597.97 537.823,1557.97 551.661,1517.39 565.499,1475.96 579.337,1433.97 593.174,1391.84 607.012,1350.28 620.85,1308.73 634.688,1267.02 648.526,1224.96 662.364,1182.95 676.201,1141.43 690.039,1100.83 703.877,1061.01 717.715,1021.61 731.553,983.073 745.39,945.017 759.228,909.198 773.066,873.863 786.904,839.578 800.742,806.067 814.58,773.726 828.417,743.245 842.255,713.922 856.093,684.23 869.931,656.63 883.769,630.951 897.606,606.539 911.444,585.031 925.282,562.619 939.12,539.945 952.958,520.878 966.796,502.168 980.633,484.131 994.471,467.584 1008.31,451.504 1022.15,437.124 1035.98,423.407 1049.82,409.736 1063.66,397.272 1077.5,385.932 1091.34,375.021 1105.17,365.739 1119.01,356.099 1132.85,346.779 1146.69,338.656 1160.53,331.19 1174.36,324.002 1188.2,316.948 1202.04,309.487 1215.88,302.62 1229.71,297.108 1243.55,292.404 1257.39,287.733 1271.23,283.155 1285.07,279.144 1298.9,275.143 1312.74,271.726 1326.58,268.588 1340.42,265.631 1354.25,262.681 1368.09,259.784 1381.93,257.192 1395.77,254.994 1409.61,253.073 1423.44,251.028 1437.28,249.043 1451.12,247.3 1464.96,245.36 1478.79,243.789 1492.63,242.334 1506.47,241.114 1520.31,240.012 1534.15,238.989 1547.98,238.038 1561.82,237.162 1575.66,236.307 1589.5,235.476 1603.34,234.696 1617.17,233.964 1631.01,233.209 1644.85,232.529 1658.69,231.9 1672.52,231.317 1686.36,230.779 1700.2,230.281 1714.04,229.843 1727.88,229.44 1741.71,229.068 1755.55,228.734 1769.39,228.462 1783.23,228.209 1797.06,227.975 1810.9,227.756 1824.74,227.552 1838.58,227.36 1852.42,227.181 1866.25,227.012 1880.09,226.855 1893.93,226.708 1907.77,226.572 1921.61,226.446 1935.44,226.33 1949.28,226.222 1963.12,226.124 1976.96,226.033 1990.79,225.95 2004.63,225.872 2018.47,225.801 2032.31,225.736 2046.15,225.676 2059.98,225.621 2073.82,225.57 2087.66,225.523 2101.5,225.477 2115.33,225.433 2129.17,225.392 2143.01,225.354 2156.85,225.317 2170.69,225.281 2184.52,225.248 2198.36,225.217 2212.2,225.188 2226.04,225.161 2239.87,225.136 2253.71,225.113 2267.55,225.092 2281.39,225.072 2295.23,225.055 2309.06,225.04 2322.9,225.026 2336.74,225.013 2350.58,225.002 2364.42,224.992 2378.25,224.984 2392.09,224.976 2405.93,224.969 2419.77,224.962 2433.6,224.956 2447.44,224.95 2461.28,224.944 2475.12,224.938 2488.96,224.933 2502.79,224.927 2516.63,224.921 2530.47,224.916 2544.31,224.91 2558.14,224.904 2571.98,224.899 2585.82,224.894 2599.66,224.889 2613.5,224.885 2627.33,224.88 2641.17,224.877 2655.01,224.873 2668.85,224.871 2682.69,224.868 2696.52,224.866 2710.36,224.864 2724.2,224.863 2738.04,224.862 2751.87,224.861 2765.71,224.861 2779.55,224.861 2793.39,224.861 2807.23,224.861 2821.06,224.862 2834.9,224.863 2848.74,224.863 2862.58,224.864 2876.41,224.864 2890.25,224.864 2904.09,224.864 2917.93,224.864 2931.77,224.863 2945.6,224.863 2959.44,224.863 2973.28,224.863 2987.12,224.862 3000.96,224.862 3014.79,224.861 3028.63,224.86 3042.47,224.86 3056.31,224.859 3070.14,224.858 "/>
<path clip-path="url(#clip990)" d="M2663.79 2135.47 L3055.46 2135.47 L3055.46 1979.95 L2663.79 1979.95  Z" fill="#eaeaea" fill-rule="evenodd" fill-opacity="1"/>
<polyline clip-path="url(#clip990)" style="stroke:#ffffff; stroke-linecap:round; stroke-linejoin:round; stroke-width:4; stroke-opacity:1; fill:none" points="2663.79,2135.47 3055.46,2135.47 3055.46,1979.95 2663.79,1979.95 2663.79,2135.47 "/>
<polyline clip-path="url(#clip990)" style="stroke:#009af9; stroke-linecap:round; stroke-linejoin:round; stroke-width:12; stroke-opacity:1; fill:none" points="2696.23,2031.79 2890.82,2031.79 "/>
<path clip-path="url(#clip990)" d="M2925.48 2048.35 L2925.48 2044.09 Q2927.24 2044.92 2929.04 2045.36 Q2930.85 2045.8 2932.59 2045.8 Q2937.22 2045.8 2939.65 2042.7 Q2942.1 2039.58 2942.45 2033.23 Q2941.1 2035.22 2939.04 2036.29 Q2936.98 2037.35 2934.48 2037.35 Q2929.3 2037.35 2926.27 2034.23 Q2923.26 2031.08 2923.26 2025.64 Q2923.26 2020.32 2926.4 2017.1 Q2929.55 2013.88 2934.78 2013.88 Q2940.78 2013.88 2943.93 2018.49 Q2947.1 2023.07 2947.1 2031.82 Q2947.1 2039.99 2943.21 2044.88 Q2939.34 2049.74 2932.79 2049.74 Q2931.03 2049.74 2929.23 2049.39 Q2927.42 2049.04 2925.48 2048.35 M2934.78 2033.7 Q2937.93 2033.7 2939.76 2031.54 Q2941.61 2029.39 2941.61 2025.64 Q2941.61 2021.91 2939.76 2019.76 Q2937.93 2017.58 2934.78 2017.58 Q2931.64 2017.58 2929.78 2019.76 Q2927.96 2021.91 2927.96 2025.64 Q2927.96 2029.39 2929.78 2031.54 Q2931.64 2033.7 2934.78 2033.7 Z" fill="#000000" fill-rule="nonzero" fill-opacity="1" /><path clip-path="url(#clip990)" d="M2955.55 2014.51 L2973.9 2014.51 L2973.9 2018.44 L2959.83 2018.44 L2959.83 2026.91 Q2960.85 2026.57 2961.87 2026.4 Q2962.89 2026.22 2963.9 2026.22 Q2969.69 2026.22 2973.07 2029.39 Q2976.45 2032.56 2976.45 2037.98 Q2976.45 2043.56 2972.98 2046.66 Q2969.51 2049.74 2963.19 2049.74 Q2961.01 2049.74 2958.74 2049.37 Q2956.5 2049 2954.09 2048.26 L2954.09 2043.56 Q2956.17 2044.69 2958.4 2045.25 Q2960.62 2045.8 2963.09 2045.8 Q2967.1 2045.8 2969.44 2043.7 Q2971.78 2041.59 2971.78 2037.98 Q2971.78 2034.37 2969.44 2032.26 Q2967.1 2030.15 2963.09 2030.15 Q2961.22 2030.15 2959.34 2030.57 Q2957.49 2030.99 2955.55 2031.87 L2955.55 2014.51 Z" fill="#000000" fill-rule="nonzero" fill-opacity="1" /><path clip-path="url(#clip990)" d="M3015.06 2033.86 Q3013.05 2033.86 3011.89 2035.57 Q3010.76 2037.28 3010.76 2040.34 Q3010.76 2043.35 3011.89 2045.08 Q3013.05 2046.8 3015.06 2046.8 Q3017.03 2046.8 3018.16 2045.08 Q3019.32 2043.35 3019.32 2040.34 Q3019.32 2037.31 3018.16 2035.59 Q3017.03 2033.86 3015.06 2033.86 M3015.06 2030.92 Q3018.72 2030.92 3020.87 2033.46 Q3023.02 2036.01 3023.02 2040.34 Q3023.02 2044.67 3020.85 2047.21 Q3018.7 2049.74 3015.06 2049.74 Q3011.36 2049.74 3009.21 2047.21 Q3007.05 2044.67 3007.05 2040.34 Q3007.05 2035.99 3009.21 2033.46 Q3011.38 2030.92 3015.06 2030.92 M2991.17 2016.82 Q2989.18 2016.82 2988.02 2018.56 Q2986.89 2020.27 2986.89 2023.28 Q2986.89 2026.33 2988.02 2028.05 Q2989.16 2029.76 2991.17 2029.76 Q2993.19 2029.76 2994.32 2028.05 Q2995.48 2026.33 2995.48 2023.28 Q2995.48 2020.29 2994.32 2018.56 Q2993.16 2016.82 2991.17 2016.82 M3012.08 2013.88 L3015.78 2013.88 L2994.16 2049.74 L2990.46 2049.74 L3012.08 2013.88 M2991.17 2013.88 Q2994.83 2013.88 2997.01 2016.43 Q2999.18 2018.95 2999.18 2023.28 Q2999.18 2027.65 2997.01 2030.18 Q2994.85 2032.7 2991.17 2032.7 Q2987.49 2032.7 2985.34 2030.18 Q2983.21 2027.63 2983.21 2023.28 Q2983.21 2018.97 2985.36 2016.43 Q2987.52 2013.88 2991.17 2013.88 Z" fill="#000000" fill-rule="nonzero" fill-opacity="1" /><polyline clip-path="url(#clip990)" style="stroke:#e26f46; stroke-linecap:round; stroke-linejoin:round; stroke-width:12; stroke-opacity:1; fill:none" points="2696.23,2083.63 2890.82,2083.63 "/>
<path clip-path="url(#clip990)" d="M2935.59 2081.76 Q2932.45 2081.76 2930.59 2083.92 Q2928.77 2086.07 2928.77 2089.82 Q2928.77 2093.55 2930.59 2095.72 Q2932.45 2097.87 2935.59 2097.87 Q2938.74 2097.87 2940.57 2095.72 Q2942.42 2093.55 2942.42 2089.82 Q2942.42 2086.07 2940.57 2083.92 Q2938.74 2081.76 2935.59 2081.76 M2944.88 2067.11 L2944.88 2071.37 Q2943.12 2070.54 2941.31 2070.1 Q2939.53 2069.66 2937.77 2069.66 Q2933.14 2069.66 2930.69 2072.78 Q2928.26 2075.91 2927.91 2082.23 Q2929.28 2080.21 2931.34 2079.15 Q2933.4 2078.06 2935.87 2078.06 Q2941.08 2078.06 2944.09 2081.23 Q2947.12 2084.38 2947.12 2089.82 Q2947.12 2095.14 2943.97 2098.36 Q2940.83 2101.58 2935.59 2101.58 Q2929.6 2101.58 2926.43 2096.99 Q2923.26 2092.39 2923.26 2083.66 Q2923.26 2075.47 2927.15 2070.61 Q2931.03 2065.72 2937.59 2065.72 Q2939.34 2065.72 2941.13 2066.07 Q2942.93 2066.42 2944.88 2067.11 Z" fill="#000000" fill-rule="nonzero" fill-opacity="1" /><path clip-path="url(#clip990)" d="M2965.18 2084.49 Q2961.84 2084.49 2959.92 2086.28 Q2958.03 2088.06 2958.03 2091.18 Q2958.03 2094.31 2959.92 2096.09 Q2961.84 2097.87 2965.18 2097.87 Q2968.51 2097.87 2970.43 2096.09 Q2972.35 2094.29 2972.35 2091.18 Q2972.35 2088.06 2970.43 2086.28 Q2968.53 2084.49 2965.18 2084.49 M2960.5 2082.5 Q2957.49 2081.76 2955.8 2079.7 Q2954.14 2077.64 2954.14 2074.68 Q2954.14 2070.54 2957.08 2068.13 Q2960.04 2065.72 2965.18 2065.72 Q2970.34 2065.72 2973.28 2068.13 Q2976.22 2070.54 2976.22 2074.68 Q2976.22 2077.64 2974.53 2079.7 Q2972.86 2081.76 2969.88 2082.5 Q2973.26 2083.29 2975.13 2085.58 Q2977.03 2087.87 2977.03 2091.18 Q2977.03 2096.21 2973.95 2098.89 Q2970.9 2101.58 2965.18 2101.58 Q2959.46 2101.58 2956.38 2098.89 Q2953.33 2096.21 2953.33 2091.18 Q2953.33 2087.87 2955.22 2085.58 Q2957.12 2083.29 2960.5 2082.5 M2958.79 2075.12 Q2958.79 2077.8 2960.46 2079.31 Q2962.15 2080.81 2965.18 2080.81 Q2968.19 2080.81 2969.88 2079.31 Q2971.59 2077.8 2971.59 2075.12 Q2971.59 2072.43 2969.88 2070.93 Q2968.19 2069.42 2965.18 2069.42 Q2962.15 2069.42 2960.46 2070.93 Q2958.79 2072.43 2958.79 2075.12 Z" fill="#000000" fill-rule="nonzero" fill-opacity="1" /><path clip-path="url(#clip990)" d="M3014.74 2085.7 Q3012.72 2085.7 3011.57 2087.41 Q3010.43 2089.12 3010.43 2092.18 Q3010.43 2095.19 3011.57 2096.92 Q3012.72 2098.64 3014.74 2098.64 Q3016.71 2098.64 3017.84 2096.92 Q3019 2095.19 3019 2092.18 Q3019 2089.15 3017.84 2087.43 Q3016.71 2085.7 3014.74 2085.7 M3014.74 2082.76 Q3018.4 2082.76 3020.55 2085.3 Q3022.7 2087.85 3022.7 2092.18 Q3022.7 2096.51 3020.52 2099.05 Q3018.37 2101.58 3014.74 2101.58 Q3011.03 2101.58 3008.88 2099.05 Q3006.73 2096.51 3006.73 2092.18 Q3006.73 2087.83 3008.88 2085.3 Q3011.06 2082.76 3014.74 2082.76 M2990.85 2068.66 Q2988.86 2068.66 2987.7 2070.4 Q2986.57 2072.11 2986.57 2075.12 Q2986.57 2078.17 2987.7 2079.89 Q2988.84 2081.6 2990.85 2081.6 Q2992.86 2081.6 2994 2079.89 Q2995.15 2078.17 2995.15 2075.12 Q2995.15 2072.13 2994 2070.4 Q2992.84 2068.66 2990.85 2068.66 M3011.75 2065.72 L3015.46 2065.72 L2993.84 2101.58 L2990.13 2101.58 L3011.75 2065.72 M2990.85 2065.72 Q2994.51 2065.72 2996.68 2068.27 Q2998.86 2070.79 2998.86 2075.12 Q2998.86 2079.49 2996.68 2082.02 Q2994.53 2084.54 2990.85 2084.54 Q2987.17 2084.54 2985.02 2082.02 Q2982.89 2079.47 2982.89 2075.12 Q2982.89 2070.81 2985.04 2068.27 Q2987.19 2065.72 2990.85 2065.72 Z" fill="#000000" fill-rule="nonzero" fill-opacity="1" /></svg>
