<?xml version="1.0" encoding="utf-8"?>
<svg xmlns="http://www.w3.org/2000/svg" xmlns:xlink="http://www.w3.org/1999/xlink" width="800" height="600" viewBox="0 0 3200 2400">
<defs>
  <clipPath id="clip610">
    <rect x="0" y="0" width="3200" height="2400"/>
  </clipPath>
</defs>
<path clip-path="url(#clip610)" d="
M0 2400 L3200 2400 L3200 0 L0 0  Z
  " fill="#ffffff" fill-rule="evenodd" fill-opacity="1"/>
<defs>
  <clipPath id="clip611">
    <rect x="640" y="0" width="2241" height="2241"/>
  </clipPath>
</defs>
<path clip-path="url(#clip610)" d="
M233.806 2204.92 L3152.76 2204.92 L3152.76 121.312 L233.806 121.312  Z
  " fill="#eaeaea" fill-rule="evenodd" fill-opacity="1"/>
<defs>
  <clipPath id="clip612">
    <rect x="233" y="121" width="2920" height="2085"/>
  </clipPath>
</defs>
<polyline clip-path="url(#clip612)" style="stroke:#ffffff; stroke-linecap:butt; stroke-linejoin:round; stroke-width:4; stroke-opacity:1; fill:none" points="
  316.418,2204.92 316.418,121.312 
  "/>
<polyline clip-path="url(#clip612)" style="stroke:#ffffff; stroke-linecap:butt; stroke-linejoin:round; stroke-width:4; stroke-opacity:1; fill:none" points="
  867.163,2204.92 867.163,121.312 
  "/>
<polyline clip-path="url(#clip612)" style="stroke:#ffffff; stroke-linecap:butt; stroke-linejoin:round; stroke-width:4; stroke-opacity:1; fill:none" points="
  1417.91,2204.92 1417.91,121.312 
  "/>
<polyline clip-path="url(#clip612)" style="stroke:#ffffff; stroke-linecap:butt; stroke-linejoin:round; stroke-width:4; stroke-opacity:1; fill:none" points="
  1968.65,2204.92 1968.65,121.312 
  "/>
<polyline clip-path="url(#clip612)" style="stroke:#ffffff; stroke-linecap:butt; stroke-linejoin:round; stroke-width:4; stroke-opacity:1; fill:none" points="
  2519.4,2204.92 2519.4,121.312 
  "/>
<polyline clip-path="url(#clip612)" style="stroke:#ffffff; stroke-linecap:butt; stroke-linejoin:round; stroke-width:4; stroke-opacity:1; fill:none" points="
  3070.14,2204.92 3070.14,121.312 
  "/>
<polyline clip-path="url(#clip612)" style="stroke:#ffffff; stroke-linecap:butt; stroke-linejoin:round; stroke-width:2; stroke-opacity:1; fill:none" points="
  591.791,2204.92 591.791,121.312 
  "/>
<polyline clip-path="url(#clip612)" style="stroke:#ffffff; stroke-linecap:butt; stroke-linejoin:round; stroke-width:2; stroke-opacity:1; fill:none" points="
  1142.54,2204.92 1142.54,121.312 
  "/>
<polyline clip-path="url(#clip612)" style="stroke:#ffffff; stroke-linecap:butt; stroke-linejoin:round; stroke-width:2; stroke-opacity:1; fill:none" points="
  1693.28,2204.92 1693.28,121.312 
  "/>
<polyline clip-path="url(#clip612)" style="stroke:#ffffff; stroke-linecap:butt; stroke-linejoin:round; stroke-width:2; stroke-opacity:1; fill:none" points="
  2244.03,2204.92 2244.03,121.312 
  "/>
<polyline clip-path="url(#clip612)" style="stroke:#ffffff; stroke-linecap:butt; stroke-linejoin:round; stroke-width:2; stroke-opacity:1; fill:none" points="
  2794.77,2204.92 2794.77,121.312 
  "/>
<polyline clip-path="url(#clip610)" style="stroke:#ffffff; stroke-linecap:butt; stroke-linejoin:round; stroke-width:4; stroke-opacity:1; fill:none" points="
  233.806,2204.92 3152.76,2204.92 
  "/>
<polyline clip-path="url(#clip610)" style="stroke:#333333; stroke-linecap:butt; stroke-linejoin:round; stroke-width:4; stroke-opacity:1; fill:none" points="
  316.418,2204.92 316.418,2223.82 
  "/>
<polyline clip-path="url(#clip610)" style="stroke:#333333; stroke-linecap:butt; stroke-linejoin:round; stroke-width:4; stroke-opacity:1; fill:none" points="
  867.163,2204.92 867.163,2223.82 
  "/>
<polyline clip-path="url(#clip610)" style="stroke:#333333; stroke-linecap:butt; stroke-linejoin:round; stroke-width:4; stroke-opacity:1; fill:none" points="
  1417.91,2204.92 1417.91,2223.82 
  "/>
<polyline clip-path="url(#clip610)" style="stroke:#333333; stroke-linecap:butt; stroke-linejoin:round; stroke-width:4; stroke-opacity:1; fill:none" points="
  1968.65,2204.92 1968.65,2223.82 
  "/>
<polyline clip-path="url(#clip610)" style="stroke:#333333; stroke-linecap:butt; stroke-linejoin:round; stroke-width:4; stroke-opacity:1; fill:none" points="
  2519.4,2204.92 2519.4,2223.82 
  "/>
<polyline clip-path="url(#clip610)" style="stroke:#333333; stroke-linecap:butt; stroke-linejoin:round; stroke-width:4; stroke-opacity:1; fill:none" points="
  3070.14,2204.92 3070.14,2223.82 
  "/>
<polyline clip-path="url(#clip610)" style="stroke:#333333; stroke-linecap:butt; stroke-linejoin:round; stroke-width:4; stroke-opacity:1; fill:none" points="
  591.791,2204.92 591.791,2214.37 
  "/>
<polyline clip-path="url(#clip610)" style="stroke:#333333; stroke-linecap:butt; stroke-linejoin:round; stroke-width:4; stroke-opacity:1; fill:none" points="
  1142.54,2204.92 1142.54,2214.37 
  "/>
<polyline clip-path="url(#clip610)" style="stroke:#333333; stroke-linecap:butt; stroke-linejoin:round; stroke-width:4; stroke-opacity:1; fill:none" points="
  1693.28,2204.92 1693.28,2214.37 
  "/>
<polyline clip-path="url(#clip610)" style="stroke:#333333; stroke-linecap:butt; stroke-linejoin:round; stroke-width:4; stroke-opacity:1; fill:none" points="
  2244.03,2204.92 2244.03,2214.37 
  "/>
<polyline clip-path="url(#clip610)" style="stroke:#333333; stroke-linecap:butt; stroke-linejoin:round; stroke-width:4; stroke-opacity:1; fill:none" points="
  2794.77,2204.92 2794.77,2214.37 
  "/>
<path clip-path="url(#clip610)" d="M316.418 2255.04 Q312.807 2255.04 310.978 2258.6 Q309.173 2262.14 309.173 2269.27 Q309.173 2276.38 310.978 2279.95 Q312.807 2283.49 316.418 2283.49 Q320.052 2283.49 321.858 2279.95 Q323.687 2276.38 323.687 2269.27 Q323.687 2262.14 321.858 2258.6 Q320.052 2255.04 316.418 2255.04 M316.418 2251.33 Q322.228 2251.33 325.284 2255.94 Q328.362 2260.52 328.362 2269.27 Q328.362 2278 325.284 2282.61 Q322.228 2287.19 316.418 2287.19 Q310.608 2287.19 307.529 2282.61 Q304.474 2278 304.474 2269.27 Q304.474 2260.52 307.529 2255.94 Q310.608 2251.33 316.418 2251.33 Z" fill="#4c4c4c" fill-rule="evenodd" fill-opacity="1" /><path clip-path="url(#clip610)" d="M857.545 2282.58 L865.184 2282.58 L865.184 2256.22 L856.874 2257.89 L856.874 2253.63 L865.138 2251.96 L869.814 2251.96 L869.814 2282.58 L877.453 2282.58 L877.453 2286.52 L857.545 2286.52 L857.545 2282.58 Z" fill="#4c4c4c" fill-rule="evenodd" fill-opacity="1" /><path clip-path="url(#clip610)" d="M1412.56 2282.58 L1428.88 2282.58 L1428.88 2286.52 L1406.94 2286.52 L1406.94 2282.58 Q1409.6 2279.83 1414.18 2275.2 Q1418.79 2270.55 1419.97 2269.21 Q1422.21 2266.68 1423.09 2264.95 Q1424 2263.19 1424 2261.5 Q1424 2258.74 1422.05 2257.01 Q1420.13 2255.27 1417.03 2255.27 Q1414.83 2255.27 1412.38 2256.03 Q1409.95 2256.8 1407.17 2258.35 L1407.17 2253.63 Q1409.99 2252.49 1412.45 2251.91 Q1414.9 2251.33 1416.94 2251.33 Q1422.31 2251.33 1425.5 2254.02 Q1428.7 2256.71 1428.7 2261.2 Q1428.7 2263.33 1427.89 2265.25 Q1427.1 2267.14 1424.99 2269.74 Q1424.41 2270.41 1421.31 2273.63 Q1418.21 2276.82 1412.56 2282.58 Z" fill="#4c4c4c" fill-rule="evenodd" fill-opacity="1" /><path clip-path="url(#clip610)" d="M1972.9 2267.89 Q1976.26 2268.6 1978.13 2270.87 Q1980.03 2273.14 1980.03 2276.47 Q1980.03 2281.59 1976.51 2284.39 Q1972.99 2287.19 1966.51 2287.19 Q1964.34 2287.19 1962.02 2286.75 Q1959.73 2286.33 1957.28 2285.48 L1957.28 2280.96 Q1959.22 2282.1 1961.54 2282.68 Q1963.85 2283.26 1966.37 2283.26 Q1970.77 2283.26 1973.06 2281.52 Q1975.38 2279.78 1975.38 2276.47 Q1975.38 2273.42 1973.23 2271.71 Q1971.1 2269.97 1967.28 2269.97 L1963.25 2269.97 L1963.25 2266.13 L1967.46 2266.13 Q1970.91 2266.13 1972.74 2264.76 Q1974.57 2263.37 1974.57 2260.78 Q1974.57 2258.12 1972.67 2256.71 Q1970.79 2255.27 1967.28 2255.27 Q1965.36 2255.27 1963.16 2255.69 Q1960.96 2256.1 1958.32 2256.98 L1958.32 2252.82 Q1960.98 2252.08 1963.29 2251.71 Q1965.63 2251.33 1967.69 2251.33 Q1973.02 2251.33 1976.12 2253.77 Q1979.22 2256.17 1979.22 2260.29 Q1979.22 2263.16 1977.58 2265.15 Q1975.93 2267.12 1972.9 2267.89 Z" fill="#4c4c4c" fill-rule="evenodd" fill-opacity="1" /><path clip-path="url(#clip610)" d="M2522.41 2256.03 L2510.6 2274.48 L2522.41 2274.48 L2522.41 2256.03 M2521.18 2251.96 L2527.06 2251.96 L2527.06 2274.48 L2531.99 2274.48 L2531.99 2278.37 L2527.06 2278.37 L2527.06 2286.52 L2522.41 2286.52 L2522.41 2278.37 L2506.81 2278.37 L2506.81 2273.86 L2521.18 2251.96 Z" fill="#4c4c4c" fill-rule="evenodd" fill-opacity="1" /><path clip-path="url(#clip610)" d="M3060.42 2251.96 L3078.78 2251.96 L3078.78 2255.9 L3064.7 2255.9 L3064.7 2264.37 Q3065.72 2264.02 3066.74 2263.86 Q3067.76 2263.67 3068.78 2263.67 Q3074.57 2263.67 3077.95 2266.84 Q3081.32 2270.02 3081.32 2275.43 Q3081.32 2281.01 3077.85 2284.11 Q3074.38 2287.19 3068.06 2287.19 Q3065.88 2287.19 3063.62 2286.82 Q3061.37 2286.45 3058.96 2285.71 L3058.96 2281.01 Q3061.05 2282.14 3063.27 2282.7 Q3065.49 2283.26 3067.97 2283.26 Q3071.97 2283.26 3074.31 2281.15 Q3076.65 2279.04 3076.65 2275.43 Q3076.65 2271.82 3074.31 2269.71 Q3071.97 2267.61 3067.97 2267.61 Q3066.09 2267.61 3064.22 2268.02 Q3062.37 2268.44 3060.42 2269.32 L3060.42 2251.96 Z" fill="#4c4c4c" fill-rule="evenodd" fill-opacity="1" /><path clip-path="url(#clip610)" d="M1692.34 2316.01 L1692.34 2326.14 L1704.41 2326.14 L1704.41 2330.69 L1692.34 2330.69 L1692.34 2350.04 Q1692.34 2354.4 1693.52 2355.64 Q1694.73 2356.88 1698.39 2356.88 L1704.41 2356.88 L1704.41 2361.78 L1698.39 2361.78 Q1691.61 2361.78 1689.03 2359.27 Q1686.45 2356.72 1686.45 2350.04 L1686.45 2330.69 L1682.16 2330.69 L1682.16 2326.14 L1686.45 2326.14 L1686.45 2316.01 L1692.34 2316.01 Z" fill="#000000" fill-rule="evenodd" fill-opacity="1" /><polyline clip-path="url(#clip612)" style="stroke:#ffffff; stroke-linecap:butt; stroke-linejoin:round; stroke-width:4; stroke-opacity:1; fill:none" points="
  233.806,2152.79 3152.76,2152.79 
  "/>
<polyline clip-path="url(#clip612)" style="stroke:#ffffff; stroke-linecap:butt; stroke-linejoin:round; stroke-width:4; stroke-opacity:1; fill:none" points="
  233.806,1854.66 3152.76,1854.66 
  "/>
<polyline clip-path="url(#clip612)" style="stroke:#ffffff; stroke-linecap:butt; stroke-linejoin:round; stroke-width:4; stroke-opacity:1; fill:none" points="
  233.806,1556.53 3152.76,1556.53 
  "/>
<polyline clip-path="url(#clip612)" style="stroke:#ffffff; stroke-linecap:butt; stroke-linejoin:round; stroke-width:4; stroke-opacity:1; fill:none" points="
  233.806,1258.41 3152.76,1258.41 
  "/>
<polyline clip-path="url(#clip612)" style="stroke:#ffffff; stroke-linecap:butt; stroke-linejoin:round; stroke-width:4; stroke-opacity:1; fill:none" points="
  233.806,960.277 3152.76,960.277 
  "/>
<polyline clip-path="url(#clip612)" style="stroke:#ffffff; stroke-linecap:butt; stroke-linejoin:round; stroke-width:4; stroke-opacity:1; fill:none" points="
  233.806,662.148 3152.76,662.148 
  "/>
<polyline clip-path="url(#clip612)" style="stroke:#ffffff; stroke-linecap:butt; stroke-linejoin:round; stroke-width:4; stroke-opacity:1; fill:none" points="
  233.806,364.019 3152.76,364.019 
  "/>
<polyline clip-path="url(#clip612)" style="stroke:#ffffff; stroke-linecap:butt; stroke-linejoin:round; stroke-width:2; stroke-opacity:1; fill:none" points="
  233.806,2003.73 3152.76,2003.73 
  "/>
<polyline clip-path="url(#clip612)" style="stroke:#ffffff; stroke-linecap:butt; stroke-linejoin:round; stroke-width:2; stroke-opacity:1; fill:none" points="
  233.806,1705.6 3152.76,1705.6 
  "/>
<polyline clip-path="url(#clip612)" style="stroke:#ffffff; stroke-linecap:butt; stroke-linejoin:round; stroke-width:2; stroke-opacity:1; fill:none" points="
  233.806,1407.47 3152.76,1407.47 
  "/>
<polyline clip-path="url(#clip612)" style="stroke:#ffffff; stroke-linecap:butt; stroke-linejoin:round; stroke-width:2; stroke-opacity:1; fill:none" points="
  233.806,1109.34 3152.76,1109.34 
  "/>
<polyline clip-path="url(#clip612)" style="stroke:#ffffff; stroke-linecap:butt; stroke-linejoin:round; stroke-width:2; stroke-opacity:1; fill:none" points="
  233.806,811.212 3152.76,811.212 
  "/>
<polyline clip-path="url(#clip612)" style="stroke:#ffffff; stroke-linecap:butt; stroke-linejoin:round; stroke-width:2; stroke-opacity:1; fill:none" points="
  233.806,513.083 3152.76,513.083 
  "/>
<polyline clip-path="url(#clip612)" style="stroke:#ffffff; stroke-linecap:butt; stroke-linejoin:round; stroke-width:2; stroke-opacity:1; fill:none" points="
  233.806,214.954 3152.76,214.954 
  "/>
<polyline clip-path="url(#clip610)" style="stroke:#ffffff; stroke-linecap:butt; stroke-linejoin:round; stroke-width:4; stroke-opacity:1; fill:none" points="
  233.806,2204.92 233.806,121.312 
  "/>
<polyline clip-path="url(#clip610)" style="stroke:#333333; stroke-linecap:butt; stroke-linejoin:round; stroke-width:4; stroke-opacity:1; fill:none" points="
  233.806,2152.79 214.909,2152.79 
  "/>
<polyline clip-path="url(#clip610)" style="stroke:#333333; stroke-linecap:butt; stroke-linejoin:round; stroke-width:4; stroke-opacity:1; fill:none" points="
  233.806,1854.66 214.909,1854.66 
  "/>
<polyline clip-path="url(#clip610)" style="stroke:#333333; stroke-linecap:butt; stroke-linejoin:round; stroke-width:4; stroke-opacity:1; fill:none" points="
  233.806,1556.53 214.909,1556.53 
  "/>
<polyline clip-path="url(#clip610)" style="stroke:#333333; stroke-linecap:butt; stroke-linejoin:round; stroke-width:4; stroke-opacity:1; fill:none" points="
  233.806,1258.41 214.909,1258.41 
  "/>
<polyline clip-path="url(#clip610)" style="stroke:#333333; stroke-linecap:butt; stroke-linejoin:round; stroke-width:4; stroke-opacity:1; fill:none" points="
  233.806,960.277 214.909,960.277 
  "/>
<polyline clip-path="url(#clip610)" style="stroke:#333333; stroke-linecap:butt; stroke-linejoin:round; stroke-width:4; stroke-opacity:1; fill:none" points="
  233.806,662.148 214.909,662.148 
  "/>
<polyline clip-path="url(#clip610)" style="stroke:#333333; stroke-linecap:butt; stroke-linejoin:round; stroke-width:4; stroke-opacity:1; fill:none" points="
  233.806,364.019 214.909,364.019 
  "/>
<polyline clip-path="url(#clip610)" style="stroke:#333333; stroke-linecap:butt; stroke-linejoin:round; stroke-width:4; stroke-opacity:1; fill:none" points="
  233.806,2003.73 224.357,2003.73 
  "/>
<polyline clip-path="url(#clip610)" style="stroke:#333333; stroke-linecap:butt; stroke-linejoin:round; stroke-width:4; stroke-opacity:1; fill:none" points="
  233.806,1705.6 224.357,1705.6 
  "/>
<polyline clip-path="url(#clip610)" style="stroke:#333333; stroke-linecap:butt; stroke-linejoin:round; stroke-width:4; stroke-opacity:1; fill:none" points="
  233.806,1407.47 224.357,1407.47 
  "/>
<polyline clip-path="url(#clip610)" style="stroke:#333333; stroke-linecap:butt; stroke-linejoin:round; stroke-width:4; stroke-opacity:1; fill:none" points="
  233.806,1109.34 224.357,1109.34 
  "/>
<polyline clip-path="url(#clip610)" style="stroke:#333333; stroke-linecap:butt; stroke-linejoin:round; stroke-width:4; stroke-opacity:1; fill:none" points="
  233.806,811.212 224.357,811.212 
  "/>
<polyline clip-path="url(#clip610)" style="stroke:#333333; stroke-linecap:butt; stroke-linejoin:round; stroke-width:4; stroke-opacity:1; fill:none" points="
  233.806,513.083 224.357,513.083 
  "/>
<polyline clip-path="url(#clip610)" style="stroke:#333333; stroke-linecap:butt; stroke-linejoin:round; stroke-width:4; stroke-opacity:1; fill:none" points="
  233.806,214.954 224.357,214.954 
  "/>
<path clip-path="url(#clip610)" d="M106.228 2138.59 Q102.617 2138.59 100.788 2142.16 Q98.9825 2145.7 98.9825 2152.83 Q98.9825 2159.93 100.788 2163.5 Q102.617 2167.04 106.228 2167.04 Q109.862 2167.04 111.668 2163.5 Q113.496 2159.93 113.496 2152.83 Q113.496 2145.7 111.668 2142.16 Q109.862 2138.59 106.228 2138.59 M106.228 2134.89 Q112.038 2134.89 115.094 2139.49 Q118.172 2144.08 118.172 2152.83 Q118.172 2161.55 115.094 2166.16 Q112.038 2170.74 106.228 2170.74 Q100.418 2170.74 97.339 2166.16 Q94.2835 2161.55 94.2835 2152.83 Q94.2835 2144.08 97.339 2139.49 Q100.418 2134.89 106.228 2134.89 Z" fill="#4c4c4c" fill-rule="evenodd" fill-opacity="1" /><path clip-path="url(#clip610)" d="M126.39 2164.19 L131.274 2164.19 L131.274 2170.07 L126.39 2170.07 L126.39 2164.19 Z" fill="#4c4c4c" fill-rule="evenodd" fill-opacity="1" /><path clip-path="url(#clip610)" d="M145.487 2166.14 L161.806 2166.14 L161.806 2170.07 L139.862 2170.07 L139.862 2166.14 Q142.524 2163.38 147.107 2158.75 Q151.714 2154.1 152.894 2152.76 Q155.14 2150.23 156.019 2148.5 Q156.922 2146.74 156.922 2145.05 Q156.922 2142.29 154.978 2140.56 Q153.056 2138.82 149.954 2138.82 Q147.755 2138.82 145.302 2139.59 Q142.871 2140.35 140.093 2141.9 L140.093 2137.18 Q142.917 2136.04 145.371 2135.47 Q147.825 2134.89 149.862 2134.89 Q155.232 2134.89 158.427 2137.57 Q161.621 2140.26 161.621 2144.75 Q161.621 2146.88 160.811 2148.8 Q160.024 2150.7 157.917 2153.29 Q157.339 2153.96 154.237 2157.18 Q151.135 2160.37 145.487 2166.14 Z" fill="#4c4c4c" fill-rule="evenodd" fill-opacity="1" /><path clip-path="url(#clip610)" d="M104.145 1840.46 Q100.533 1840.46 98.7048 1844.03 Q96.8992 1847.57 96.8992 1854.7 Q96.8992 1861.8 98.7048 1865.37 Q100.533 1868.91 104.145 1868.91 Q107.779 1868.91 109.584 1865.37 Q111.413 1861.8 111.413 1854.7 Q111.413 1847.57 109.584 1844.03 Q107.779 1840.46 104.145 1840.46 M104.145 1836.76 Q109.955 1836.76 113.01 1841.37 Q116.089 1845.95 116.089 1854.7 Q116.089 1863.43 113.01 1868.03 Q109.955 1872.61 104.145 1872.61 Q98.3344 1872.61 95.2557 1868.03 Q92.2002 1863.43 92.2002 1854.7 Q92.2002 1845.95 95.2557 1841.37 Q98.3344 1836.76 104.145 1836.76 Z" fill="#4c4c4c" fill-rule="evenodd" fill-opacity="1" /><path clip-path="url(#clip610)" d="M124.306 1866.06 L129.191 1866.06 L129.191 1871.94 L124.306 1871.94 L124.306 1866.06 Z" fill="#4c4c4c" fill-rule="evenodd" fill-opacity="1" /><path clip-path="url(#clip610)" d="M152.223 1841.46 L140.417 1859.91 L152.223 1859.91 L152.223 1841.46 M150.996 1837.38 L156.876 1837.38 L156.876 1859.91 L161.806 1859.91 L161.806 1863.8 L156.876 1863.8 L156.876 1871.94 L152.223 1871.94 L152.223 1863.8 L136.621 1863.8 L136.621 1859.28 L150.996 1837.38 Z" fill="#4c4c4c" fill-rule="evenodd" fill-opacity="1" /><path clip-path="url(#clip610)" d="M104.469 1542.33 Q100.858 1542.33 99.0288 1545.9 Q97.2233 1549.44 97.2233 1556.57 Q97.2233 1563.68 99.0288 1567.24 Q100.858 1570.78 104.469 1570.78 Q108.103 1570.78 109.908 1567.24 Q111.737 1563.68 111.737 1556.57 Q111.737 1549.44 109.908 1545.9 Q108.103 1542.33 104.469 1542.33 M104.469 1538.63 Q110.279 1538.63 113.334 1543.24 Q116.413 1547.82 116.413 1556.57 Q116.413 1565.3 113.334 1569.9 Q110.279 1574.49 104.469 1574.49 Q98.6585 1574.49 95.5798 1569.9 Q92.5242 1565.3 92.5242 1556.57 Q92.5242 1547.82 95.5798 1543.24 Q98.6585 1538.63 104.469 1538.63 Z" fill="#4c4c4c" fill-rule="evenodd" fill-opacity="1" /><path clip-path="url(#clip610)" d="M124.631 1567.94 L129.515 1567.94 L129.515 1573.81 L124.631 1573.81 L124.631 1567.94 Z" fill="#4c4c4c" fill-rule="evenodd" fill-opacity="1" /><path clip-path="url(#clip610)" d="M150.279 1554.67 Q147.13 1554.67 145.279 1556.82 Q143.45 1558.98 143.45 1562.73 Q143.45 1566.45 145.279 1568.63 Q147.13 1570.78 150.279 1570.78 Q153.427 1570.78 155.255 1568.63 Q157.107 1566.45 157.107 1562.73 Q157.107 1558.98 155.255 1556.82 Q153.427 1554.67 150.279 1554.67 M159.561 1540.02 L159.561 1544.28 Q157.802 1543.44 155.996 1543 Q154.214 1542.56 152.454 1542.56 Q147.825 1542.56 145.371 1545.69 Q142.941 1548.81 142.593 1555.13 Q143.959 1553.12 146.019 1552.06 Q148.079 1550.97 150.556 1550.97 Q155.765 1550.97 158.774 1554.14 Q161.806 1557.29 161.806 1562.73 Q161.806 1568.05 158.658 1571.27 Q155.51 1574.49 150.279 1574.49 Q144.283 1574.49 141.112 1569.9 Q137.941 1565.3 137.941 1556.57 Q137.941 1548.37 141.83 1543.51 Q145.718 1538.63 152.269 1538.63 Q154.029 1538.63 155.811 1538.98 Q157.616 1539.32 159.561 1540.02 Z" fill="#4c4c4c" fill-rule="evenodd" fill-opacity="1" /><path clip-path="url(#clip610)" d="M104.723 1244.2 Q101.112 1244.2 99.2835 1247.77 Q97.4779 1251.31 97.4779 1258.44 Q97.4779 1265.55 99.2835 1269.11 Q101.112 1272.65 104.723 1272.65 Q108.357 1272.65 110.163 1269.11 Q111.992 1265.55 111.992 1258.44 Q111.992 1251.31 110.163 1247.77 Q108.357 1244.2 104.723 1244.2 M104.723 1240.5 Q110.533 1240.5 113.589 1245.11 Q116.668 1249.69 116.668 1258.44 Q116.668 1267.17 113.589 1271.77 Q110.533 1276.36 104.723 1276.36 Q98.9131 1276.36 95.8344 1271.77 Q92.7789 1267.17 92.7789 1258.44 Q92.7789 1249.69 95.8344 1245.11 Q98.9131 1240.5 104.723 1240.5 Z" fill="#4c4c4c" fill-rule="evenodd" fill-opacity="1" /><path clip-path="url(#clip610)" d="M124.885 1269.81 L129.769 1269.81 L129.769 1275.69 L124.885 1275.69 L124.885 1269.81 Z" fill="#4c4c4c" fill-rule="evenodd" fill-opacity="1" /><path clip-path="url(#clip610)" d="M149.954 1259.27 Q146.621 1259.27 144.7 1261.06 Q142.802 1262.84 142.802 1265.96 Q142.802 1269.09 144.7 1270.87 Q146.621 1272.65 149.954 1272.65 Q153.288 1272.65 155.209 1270.87 Q157.13 1269.07 157.13 1265.96 Q157.13 1262.84 155.209 1261.06 Q153.311 1259.27 149.954 1259.27 M145.279 1257.28 Q142.269 1256.54 140.58 1254.48 Q138.913 1252.42 138.913 1249.46 Q138.913 1245.32 141.853 1242.91 Q144.816 1240.5 149.954 1240.5 Q155.116 1240.5 158.056 1242.91 Q160.996 1245.32 160.996 1249.46 Q160.996 1252.42 159.306 1254.48 Q157.64 1256.54 154.654 1257.28 Q158.033 1258.07 159.908 1260.36 Q161.806 1262.65 161.806 1265.96 Q161.806 1270.99 158.728 1273.67 Q155.672 1276.36 149.954 1276.36 Q144.237 1276.36 141.158 1273.67 Q138.103 1270.99 138.103 1265.96 Q138.103 1262.65 140.001 1260.36 Q141.899 1258.07 145.279 1257.28 M143.566 1249.9 Q143.566 1252.58 145.232 1254.09 Q146.922 1255.59 149.954 1255.59 Q152.964 1255.59 154.654 1254.09 Q156.366 1252.58 156.366 1249.9 Q156.366 1247.21 154.654 1245.71 Q152.964 1244.2 149.954 1244.2 Q146.922 1244.2 145.232 1245.71 Q143.566 1247.21 143.566 1249.9 Z" fill="#4c4c4c" fill-rule="evenodd" fill-opacity="1" /><path clip-path="url(#clip610)" d="M95.4409 973.622 L103.08 973.622 L103.08 947.256 L94.7696 948.923 L94.7696 944.663 L103.033 942.997 L107.709 942.997 L107.709 973.622 L115.348 973.622 L115.348 977.557 L95.4409 977.557 L95.4409 973.622 Z" fill="#4c4c4c" fill-rule="evenodd" fill-opacity="1" /><path clip-path="url(#clip610)" d="M124.793 971.677 L129.677 971.677 L129.677 977.557 L124.793 977.557 L124.793 971.677 Z" fill="#4c4c4c" fill-rule="evenodd" fill-opacity="1" /><path clip-path="url(#clip610)" d="M149.862 946.075 Q146.251 946.075 144.422 949.64 Q142.617 953.182 142.617 960.311 Q142.617 967.418 144.422 970.983 Q146.251 974.524 149.862 974.524 Q153.496 974.524 155.302 970.983 Q157.13 967.418 157.13 960.311 Q157.13 953.182 155.302 949.64 Q153.496 946.075 149.862 946.075 M149.862 942.372 Q155.672 942.372 158.728 946.978 Q161.806 951.561 161.806 960.311 Q161.806 969.038 158.728 973.645 Q155.672 978.228 149.862 978.228 Q144.052 978.228 140.973 973.645 Q137.918 969.038 137.918 960.311 Q137.918 951.561 140.973 946.978 Q144.052 942.372 149.862 942.372 Z" fill="#4c4c4c" fill-rule="evenodd" fill-opacity="1" /><path clip-path="url(#clip610)" d="M97.0381 675.493 L104.677 675.493 L104.677 649.127 L96.3668 650.794 L96.3668 646.534 L104.631 644.868 L109.307 644.868 L109.307 675.493 L116.945 675.493 L116.945 679.428 L97.0381 679.428 L97.0381 675.493 Z" fill="#4c4c4c" fill-rule="evenodd" fill-opacity="1" /><path clip-path="url(#clip610)" d="M126.39 673.548 L131.274 673.548 L131.274 679.428 L126.39 679.428 L126.39 673.548 Z" fill="#4c4c4c" fill-rule="evenodd" fill-opacity="1" /><path clip-path="url(#clip610)" d="M145.487 675.493 L161.806 675.493 L161.806 679.428 L139.862 679.428 L139.862 675.493 Q142.524 672.738 147.107 668.108 Q151.714 663.456 152.894 662.113 Q155.14 659.59 156.019 657.854 Q156.922 656.095 156.922 654.405 Q156.922 651.65 154.978 649.914 Q153.056 648.178 149.954 648.178 Q147.755 648.178 145.302 648.942 Q142.871 649.706 140.093 651.257 L140.093 646.534 Q142.917 645.4 145.371 644.821 Q147.825 644.243 149.862 644.243 Q155.232 644.243 158.427 646.928 Q161.621 649.613 161.621 654.104 Q161.621 656.233 160.811 658.155 Q160.024 660.053 157.917 662.645 Q157.339 663.317 154.237 666.534 Q151.135 669.729 145.487 675.493 Z" fill="#4c4c4c" fill-rule="evenodd" fill-opacity="1" /><path clip-path="url(#clip610)" d="M94.9548 377.364 L102.594 377.364 L102.594 350.998 L94.2835 352.665 L94.2835 348.405 L102.547 346.739 L107.223 346.739 L107.223 377.364 L114.862 377.364 L114.862 381.299 L94.9548 381.299 L94.9548 377.364 Z" fill="#4c4c4c" fill-rule="evenodd" fill-opacity="1" /><path clip-path="url(#clip610)" d="M124.306 375.419 L129.191 375.419 L129.191 381.299 L124.306 381.299 L124.306 375.419 Z" fill="#4c4c4c" fill-rule="evenodd" fill-opacity="1" /><path clip-path="url(#clip610)" d="M152.223 350.813 L140.417 369.262 L152.223 369.262 L152.223 350.813 M150.996 346.739 L156.876 346.739 L156.876 369.262 L161.806 369.262 L161.806 373.151 L156.876 373.151 L156.876 381.299 L152.223 381.299 L152.223 373.151 L136.621 373.151 L136.621 368.637 L150.996 346.739 Z" fill="#4c4c4c" fill-rule="evenodd" fill-opacity="1" /><path clip-path="url(#clip610)" d="M48.597 1321.32 L67.5031 1321.32 L67.5031 1327.21 L18.2962 1327.21 L18.2962 1321.32 L23.7071 1321.32 Q20.5242 1319.47 18.9964 1316.67 Q17.4368 1313.84 17.4368 1309.93 Q17.4368 1303.43 22.5931 1299.39 Q27.7493 1295.32 36.152 1295.32 Q44.5547 1295.32 49.711 1299.39 Q54.8672 1303.43 54.8672 1309.93 Q54.8672 1313.84 53.3394 1316.67 Q51.7798 1319.47 48.597 1321.32 M36.152 1301.4 Q29.6908 1301.4 26.0305 1304.07 Q22.3384 1306.71 22.3384 1311.36 Q22.3384 1316 26.0305 1318.68 Q29.6908 1321.32 36.152 1321.32 Q42.6132 1321.32 46.3053 1318.68 Q49.9656 1316 49.9656 1311.36 Q49.9656 1306.71 46.3053 1304.07 Q42.6132 1301.4 36.152 1301.4 Z" fill="#000000" fill-rule="evenodd" fill-opacity="1" /><path clip-path="url(#clip610)" d="M22.4021 1271.79 Q22.4021 1276.51 26.0942 1279.24 Q29.7545 1281.98 36.152 1281.98 Q42.5495 1281.98 46.2417 1279.27 Q49.9019 1276.54 49.9019 1271.79 Q49.9019 1267.12 46.2098 1264.38 Q42.5177 1261.64 36.152 1261.64 Q29.8181 1261.64 26.126 1264.38 Q22.4021 1267.12 22.4021 1271.79 M17.4368 1271.79 Q17.4368 1264.16 22.4021 1259.8 Q27.3673 1255.43 36.152 1255.43 Q44.9049 1255.43 49.9019 1259.8 Q54.8672 1264.16 54.8672 1271.79 Q54.8672 1279.47 49.9019 1283.83 Q44.9049 1288.15 36.152 1288.15 Q27.3673 1288.15 22.4021 1283.83 Q17.4368 1279.47 17.4368 1271.79 Z" fill="#000000" fill-rule="evenodd" fill-opacity="1" /><path clip-path="url(#clip610)" d="M48.597 1240.06 L67.5031 1240.06 L67.5031 1245.95 L18.2962 1245.95 L18.2962 1240.06 L23.7071 1240.06 Q20.5242 1238.22 18.9964 1235.41 Q17.4368 1232.58 17.4368 1228.67 Q17.4368 1222.17 22.5931 1218.13 Q27.7493 1214.06 36.152 1214.06 Q44.5547 1214.06 49.711 1218.13 Q54.8672 1222.17 54.8672 1228.67 Q54.8672 1232.58 53.3394 1235.41 Q51.7798 1238.22 48.597 1240.06 M36.152 1220.14 Q29.6908 1220.14 26.0305 1222.81 Q22.3384 1225.45 22.3384 1230.1 Q22.3384 1234.75 26.0305 1237.42 Q29.6908 1240.06 36.152 1240.06 Q42.6132 1240.06 46.3053 1237.42 Q49.9656 1234.75 49.9656 1230.1 Q49.9656 1225.45 46.3053 1222.81 Q42.6132 1220.14 36.152 1220.14 Z" fill="#000000" fill-rule="evenodd" fill-opacity="1" /><path clip-path="url(#clip610)" d="M39.8759 1204.95 L18.2962 1204.95 L18.2962 1199.1 L39.6531 1199.1 Q44.7139 1199.1 47.2602 1197.12 Q49.7746 1195.15 49.7746 1191.2 Q49.7746 1186.46 46.7509 1183.72 Q43.7272 1180.96 38.5073 1180.96 L18.2962 1180.96 L18.2962 1175.1 L53.9442 1175.1 L53.9442 1180.96 L48.4696 1180.96 Q51.7162 1183.09 53.3076 1185.92 Q54.8672 1188.72 54.8672 1192.45 Q54.8672 1198.59 51.0478 1201.77 Q47.2283 1204.95 39.8759 1204.95 M17.4368 1190.22 L17.4368 1190.22 Z" fill="#000000" fill-rule="evenodd" fill-opacity="1" /><path clip-path="url(#clip610)" d="M4.41896 1163.04 L4.41896 1157.18 L53.9442 1157.18 L53.9442 1163.04 L4.41896 1163.04 Z" fill="#000000" fill-rule="evenodd" fill-opacity="1" /><path clip-path="url(#clip610)" d="M36.0247 1128.73 Q36.0247 1135.82 37.6479 1138.56 Q39.2712 1141.3 43.1861 1141.3 Q46.3053 1141.3 48.1514 1139.26 Q49.9656 1137.19 49.9656 1133.66 Q49.9656 1128.79 46.5281 1125.86 Q43.0588 1122.9 37.3297 1122.9 L36.0247 1122.9 L36.0247 1128.73 M33.6057 1117.04 L53.9442 1117.04 L53.9442 1122.9 L48.5333 1122.9 Q51.7798 1124.91 53.3394 1127.9 Q54.8672 1130.89 54.8672 1135.22 Q54.8672 1140.69 51.8116 1143.94 Q48.7243 1147.15 43.5681 1147.15 Q37.5525 1147.15 34.4969 1143.14 Q31.4414 1139.1 31.4414 1131.11 L31.4414 1122.9 L30.8685 1122.9 Q26.8262 1122.9 24.6301 1125.57 Q22.4021 1128.22 22.4021 1133.02 Q22.4021 1136.08 23.1341 1138.97 Q23.8662 1141.87 25.3303 1144.54 L19.9195 1144.54 Q18.6781 1141.33 18.0734 1138.31 Q17.4368 1135.28 17.4368 1132.42 Q17.4368 1124.68 21.4472 1120.86 Q25.4576 1117.04 33.6057 1117.04 Z" fill="#000000" fill-rule="evenodd" fill-opacity="1" /><path clip-path="url(#clip610)" d="M19.6648 1079.33 L25.1393 1079.33 Q23.7707 1081.81 23.1023 1084.32 Q22.4021 1086.81 22.4021 1089.35 Q22.4021 1095.05 26.0305 1098.2 Q29.6272 1101.35 36.152 1101.35 Q42.6769 1101.35 46.3053 1098.2 Q49.9019 1095.05 49.9019 1089.35 Q49.9019 1086.81 49.2335 1084.32 Q48.5333 1081.81 47.1647 1079.33 L52.5755 1079.33 Q53.7214 1081.78 54.2943 1084.42 Q54.8672 1087.03 54.8672 1089.99 Q54.8672 1098.04 49.8064 1102.78 Q44.7457 1107.53 36.152 1107.53 Q27.431 1107.53 22.4339 1102.75 Q17.4368 1097.95 17.4368 1089.61 Q17.4368 1086.9 18.0097 1084.32 Q18.5508 1081.75 19.6648 1079.33 M53.9442 1087.6 Q55.9175 1085.85 57.5726 1084.99 Q59.2595 1084.13 60.7873 1084.13 Q63.62 1084.13 65.0523 1086.04 Q66.5164 1087.95 66.5164 1091.71 Q66.5164 1093.17 66.3255 1094.57 Q66.1345 1095.94 65.7525 1097.31 L61.583 1097.31 Q62.1241 1096.23 62.3469 1095.05 Q62.6015 1093.87 62.6015 1092.38 Q62.6015 1090.5 61.8376 1089.54 Q61.0737 1088.59 59.6096 1088.59 Q58.6548 1088.59 57.2543 1089.29 Q55.8857 1089.96 53.9442 1091.39 L53.9442 1087.6 Z" fill="#000000" fill-rule="evenodd" fill-opacity="1" /><path clip-path="url(#clip610)" d="M36.0247 1052.94 Q36.0247 1060.04 37.6479 1062.78 Q39.2712 1065.51 43.1861 1065.51 Q46.3053 1065.51 48.1514 1063.48 Q49.9656 1061.41 49.9656 1057.87 Q49.9656 1053.01 46.5281 1050.08 Q43.0588 1047.12 37.3297 1047.12 L36.0247 1047.12 L36.0247 1052.94 M33.6057 1041.26 L53.9442 1041.26 L53.9442 1047.12 L48.5333 1047.12 Q51.7798 1049.12 53.3394 1052.11 Q54.8672 1055.11 54.8672 1059.43 Q54.8672 1064.91 51.8116 1068.16 Q48.7243 1071.37 43.5681 1071.37 Q37.5525 1071.37 34.4969 1067.36 Q31.4414 1063.32 31.4414 1055.33 L31.4414 1047.12 L30.8685 1047.12 Q26.8262 1047.12 24.6301 1049.79 Q22.4021 1052.43 22.4021 1057.24 Q22.4021 1060.29 23.1341 1063.19 Q23.8662 1066.09 25.3303 1068.76 L19.9195 1068.76 Q18.6781 1065.55 18.0734 1062.52 Q17.4368 1059.5 17.4368 1056.63 Q17.4368 1048.9 21.4472 1045.08 Q25.4576 1041.26 33.6057 1041.26 M10.3391 1056.51 L8.5885 1058.32 Q7.95193 1059.02 7.66547 1059.56 Q7.34718 1060.07 7.34718 1060.48 Q7.34718 1061.69 8.52484 1062.27 Q9.67067 1062.84 12.2806 1062.9 L12.2806 1066.88 Q7.98376 1066.82 5.66027 1065.2 Q3.30496 1063.57 3.30496 1060.68 Q3.30496 1059.47 3.75056 1058.45 Q4.19616 1057.43 5.2465 1056.25 L6.99707 1054.44 Q7.63364 1053.74 7.95193 1053.23 Q8.23838 1052.69 8.23838 1052.27 Q8.23838 1051.06 7.09256 1050.49 Q5.9149 1049.92 3.30496 1049.85 L3.30496 1045.88 Q7.60181 1045.94 9.95712 1047.56 Q12.2806 1049.19 12.2806 1052.08 Q12.2806 1053.29 11.835 1054.31 Q11.3894 1055.33 10.3391 1056.51 Z" fill="#000000" fill-rule="evenodd" fill-opacity="1" /><path clip-path="url(#clip610)" d="M22.4021 1015.38 Q22.4021 1020.09 26.0942 1022.83 Q29.7545 1025.57 36.152 1025.57 Q42.5495 1025.57 46.2417 1022.86 Q49.9019 1020.13 49.9019 1015.38 Q49.9019 1010.71 46.2098 1007.97 Q42.5177 1005.23 36.152 1005.23 Q29.8181 1005.23 26.126 1007.97 Q22.4021 1010.71 22.4021 1015.38 M17.4368 1015.38 Q17.4368 1007.74 22.4021 1003.38 Q27.3673 999.024 36.152 999.024 Q44.9049 999.024 49.9019 1003.38 Q54.8672 1007.74 54.8672 1015.38 Q54.8672 1023.05 49.9019 1027.42 Q44.9049 1031.74 36.152 1031.74 Q27.3673 1031.74 22.4021 1027.42 Q17.4368 1023.05 17.4368 1015.38 Z" fill="#000000" fill-rule="evenodd" fill-opacity="1" /><path clip-path="url(#clip610)" d="M972.365 23.3193 L979.136 23.3193 L991.288 55.958 L1003.44 23.3193 L1010.21 23.3193 L995.629 62.208 L986.948 62.208 L972.365 23.3193 Z" fill="#000000" fill-rule="evenodd" fill-opacity="1" /><path clip-path="url(#clip610)" d="M1036.7 42.6595 Q1028.96 42.6595 1025.98 44.4303 Q1022.99 46.2011 1022.99 50.472 Q1022.99 53.8747 1025.21 55.8886 Q1027.47 57.8677 1031.32 57.8677 Q1036.64 57.8677 1039.83 54.1178 Q1043.06 50.3331 1043.06 44.0831 L1043.06 42.6595 L1036.7 42.6595 M1049.45 40.0206 L1049.45 62.208 L1043.06 62.208 L1043.06 56.3053 Q1040.87 59.8469 1037.61 61.5483 Q1034.34 63.2149 1029.62 63.2149 Q1023.65 63.2149 1020.11 59.8816 Q1016.6 56.5136 1016.6 50.8886 Q1016.6 44.3262 1020.98 40.9928 Q1025.39 37.6595 1034.1 37.6595 L1043.06 37.6595 L1043.06 37.0345 Q1043.06 32.6248 1040.14 30.229 Q1037.26 27.7985 1032.02 27.7985 Q1028.68 27.7985 1025.52 28.5971 Q1022.36 29.3957 1019.45 30.9929 L1019.45 25.0901 Q1022.95 23.736 1026.25 23.0763 Q1029.55 22.3818 1032.68 22.3818 Q1041.11 22.3818 1045.28 26.7568 Q1049.45 31.1318 1049.45 40.0206 Z" fill="#000000" fill-rule="evenodd" fill-opacity="1" /><path clip-path="url(#clip610)" d="M1062.61 8.18051 L1069 8.18051 L1069 62.208 L1062.61 62.208 L1062.61 8.18051 Z" fill="#000000" fill-rule="evenodd" fill-opacity="1" /><path clip-path="url(#clip610)" d="M1097.43 27.7985 Q1092.29 27.7985 1089.31 31.8262 Q1086.32 35.8193 1086.32 42.7984 Q1086.32 49.7775 1089.27 53.8053 Q1092.26 57.7983 1097.43 57.7983 Q1102.54 57.7983 1105.52 53.7705 Q1108.51 49.7428 1108.51 42.7984 Q1108.51 35.8887 1105.52 31.8609 Q1102.54 27.7985 1097.43 27.7985 M1097.43 22.3818 Q1105.77 22.3818 1110.52 27.7985 Q1115.28 33.2151 1115.28 42.7984 Q1115.28 52.3469 1110.52 57.7983 Q1105.77 63.2149 1097.43 63.2149 Q1089.07 63.2149 1084.31 57.7983 Q1079.59 52.3469 1079.59 42.7984 Q1079.59 33.2151 1084.31 27.7985 Q1089.07 22.3818 1097.43 22.3818 Z" fill="#000000" fill-rule="evenodd" fill-opacity="1" /><path clip-path="url(#clip610)" d="M1148.41 29.2915 Q1147.33 28.6665 1146.04 28.3887 Q1144.79 28.0762 1143.27 28.0762 Q1137.85 28.0762 1134.93 31.6179 Q1132.05 35.1248 1132.05 41.722 L1132.05 62.208 L1125.63 62.208 L1125.63 23.3193 L1132.05 23.3193 L1132.05 29.361 Q1134.07 25.8193 1137.29 24.1179 Q1140.52 22.3818 1145.14 22.3818 Q1145.8 22.3818 1146.6 22.486 Q1147.4 22.5554 1148.37 22.729 L1148.41 29.2915 Z" fill="#000000" fill-rule="evenodd" fill-opacity="1" /><path clip-path="url(#clip610)" d="M1210.97 41.1664 L1210.97 44.2914 L1181.6 44.2914 Q1182.02 50.8886 1185.56 54.3608 Q1189.13 57.7983 1195.49 57.7983 Q1199.17 57.7983 1202.61 56.8955 Q1206.08 55.9928 1209.48 54.1872 L1209.48 60.2288 Q1206.04 61.6872 1202.43 62.4511 Q1198.82 63.2149 1195.11 63.2149 Q1185.8 63.2149 1180.35 57.7983 Q1174.93 52.3817 1174.93 43.1456 Q1174.93 33.597 1180.07 28.0068 Q1185.25 22.3818 1194 22.3818 Q1201.84 22.3818 1206.39 27.4512 Q1210.97 32.4859 1210.97 41.1664 M1204.59 39.2915 Q1204.52 34.0484 1201.63 30.9234 Q1198.79 27.7985 1194.07 27.7985 Q1188.72 27.7985 1185.49 30.8193 Q1182.29 33.8401 1181.81 39.3262 L1204.59 39.2915 Z" fill="#000000" fill-rule="evenodd" fill-opacity="1" /><path clip-path="url(#clip610)" d="M1246.25 24.4651 L1246.25 30.5068 Q1243.54 29.1179 1240.63 28.4235 Q1237.71 27.729 1234.59 27.729 Q1229.83 27.729 1227.43 29.1873 Q1225.07 30.6457 1225.07 33.5623 Q1225.07 35.7845 1226.77 37.0692 Q1228.47 38.3192 1233.61 39.4651 L1235.8 39.9512 Q1242.61 41.4095 1245.45 44.0831 Q1248.34 46.722 1248.34 51.4789 Q1248.34 56.8955 1244.03 60.0552 Q1239.76 63.2149 1232.26 63.2149 Q1229.13 63.2149 1225.73 62.5899 Q1222.36 61.9997 1218.61 60.7844 L1218.61 54.1872 Q1222.16 56.0275 1225.59 56.965 Q1229.03 57.8677 1232.4 57.8677 Q1236.91 57.8677 1239.34 56.34 Q1241.77 54.7775 1241.77 51.965 Q1241.77 49.3608 1240 47.972 Q1238.27 46.5831 1232.33 45.2984 L1230.11 44.7775 Q1224.17 43.5275 1221.53 40.9581 Q1218.89 38.354 1218.89 33.8401 Q1218.89 28.354 1222.78 25.3679 Q1226.67 22.3818 1233.82 22.3818 Q1237.36 22.3818 1240.49 22.9027 Q1243.61 23.4235 1246.25 24.4651 Z" fill="#000000" fill-rule="evenodd" fill-opacity="1" /><path clip-path="url(#clip610)" d="M1264.69 56.3747 L1264.69 76.9996 L1258.27 76.9996 L1258.27 23.3193 L1264.69 23.3193 L1264.69 29.2221 Q1266.7 25.7499 1269.76 24.0832 Q1272.85 22.3818 1277.12 22.3818 Q1284.2 22.3818 1288.61 28.0068 Q1293.06 33.6318 1293.06 42.7984 Q1293.06 51.965 1288.61 57.59 Q1284.2 63.2149 1277.12 63.2149 Q1272.85 63.2149 1269.76 61.5483 Q1266.7 59.8469 1264.69 56.3747 M1286.43 42.7984 Q1286.43 35.7498 1283.51 31.7568 Q1280.63 27.729 1275.56 27.729 Q1270.49 27.729 1267.57 31.7568 Q1264.69 35.7498 1264.69 42.7984 Q1264.69 49.847 1267.57 53.8747 Q1270.49 57.8677 1275.56 57.8677 Q1280.63 57.8677 1283.51 53.8747 Q1286.43 49.847 1286.43 42.7984 Z" fill="#000000" fill-rule="evenodd" fill-opacity="1" /><path clip-path="url(#clip610)" d="M1336.91 41.1664 L1336.91 44.2914 L1307.54 44.2914 Q1307.95 50.8886 1311.49 54.3608 Q1315.07 57.7983 1321.43 57.7983 Q1325.11 57.7983 1328.54 56.8955 Q1332.02 55.9928 1335.42 54.1872 L1335.42 60.2288 Q1331.98 61.6872 1328.37 62.4511 Q1324.76 63.2149 1321.04 63.2149 Q1311.74 63.2149 1306.29 57.7983 Q1300.87 52.3817 1300.87 43.1456 Q1300.87 33.597 1306.01 28.0068 Q1311.18 22.3818 1319.93 22.3818 Q1327.78 22.3818 1332.33 27.4512 Q1336.91 32.4859 1336.91 41.1664 M1330.52 39.2915 Q1330.45 34.0484 1327.57 30.9234 Q1324.72 27.7985 1320 27.7985 Q1314.65 27.7985 1311.43 30.8193 Q1308.23 33.8401 1307.74 39.3262 L1330.52 39.2915 Z" fill="#000000" fill-rule="evenodd" fill-opacity="1" /><path clip-path="url(#clip610)" d="M1369.93 29.2915 Q1368.86 28.6665 1367.57 28.3887 Q1366.32 28.0762 1364.79 28.0762 Q1359.38 28.0762 1356.46 31.6179 Q1353.58 35.1248 1353.58 41.722 L1353.58 62.208 L1347.15 62.208 L1347.15 23.3193 L1353.58 23.3193 L1353.58 29.361 Q1355.59 25.8193 1358.82 24.1179 Q1362.05 22.3818 1366.67 22.3818 Q1367.33 22.3818 1368.13 22.486 Q1368.93 22.5554 1369.9 22.729 L1369.93 29.2915 Z" fill="#000000" fill-rule="evenodd" fill-opacity="1" /><path clip-path="url(#clip610)" d="M1394.31 42.6595 Q1386.56 42.6595 1383.58 44.4303 Q1380.59 46.2011 1380.59 50.472 Q1380.59 53.8747 1382.81 55.8886 Q1385.07 57.8677 1388.93 57.8677 Q1394.24 57.8677 1397.43 54.1178 Q1400.66 50.3331 1400.66 44.0831 L1400.66 42.6595 L1394.31 42.6595 M1407.05 40.0206 L1407.05 62.208 L1400.66 62.208 L1400.66 56.3053 Q1398.47 59.8469 1395.21 61.5483 Q1391.95 63.2149 1387.22 63.2149 Q1381.25 63.2149 1377.71 59.8816 Q1374.2 56.5136 1374.2 50.8886 Q1374.2 44.3262 1378.58 40.9928 Q1382.99 37.6595 1391.7 37.6595 L1400.66 37.6595 L1400.66 37.0345 Q1400.66 32.6248 1397.74 30.229 Q1394.86 27.7985 1389.62 27.7985 Q1386.29 27.7985 1383.13 28.5971 Q1379.97 29.3957 1377.05 30.9929 L1377.05 25.0901 Q1380.56 23.736 1383.86 23.0763 Q1387.15 22.3818 1390.28 22.3818 Q1398.72 22.3818 1402.88 26.7568 Q1407.05 31.1318 1407.05 40.0206 Z" fill="#000000" fill-rule="evenodd" fill-opacity="1" /><path clip-path="url(#clip610)" d="M1445.8 29.2221 L1445.8 8.18051 L1452.19 8.18051 L1452.19 62.208 L1445.8 62.208 L1445.8 56.3747 Q1443.79 59.8469 1440.7 61.5483 Q1437.64 63.2149 1433.33 63.2149 Q1426.29 63.2149 1421.84 57.59 Q1417.43 51.965 1417.43 42.7984 Q1417.43 33.6318 1421.84 28.0068 Q1426.29 22.3818 1433.33 22.3818 Q1437.64 22.3818 1440.7 24.0832 Q1443.79 25.7499 1445.8 29.2221 M1424.03 42.7984 Q1424.03 49.847 1426.91 53.8747 Q1429.83 57.8677 1434.9 57.8677 Q1439.97 57.8677 1442.88 53.8747 Q1445.8 49.847 1445.8 42.7984 Q1445.8 35.7498 1442.88 31.7568 Q1439.97 27.729 1434.9 27.729 Q1429.83 27.729 1426.91 31.7568 Q1424.03 35.7498 1424.03 42.7984 Z" fill="#000000" fill-rule="evenodd" fill-opacity="1" /><path clip-path="url(#clip610)" d="M1480.42 27.7985 Q1475.28 27.7985 1472.29 31.8262 Q1469.31 35.8193 1469.31 42.7984 Q1469.31 49.7775 1472.26 53.8053 Q1475.24 57.7983 1480.42 57.7983 Q1485.52 57.7983 1488.51 53.7705 Q1491.49 49.7428 1491.49 42.7984 Q1491.49 35.8887 1488.51 31.8609 Q1485.52 27.7985 1480.42 27.7985 M1480.42 22.3818 Q1488.75 22.3818 1493.51 27.7985 Q1498.26 33.2151 1498.26 42.7984 Q1498.26 52.3469 1493.51 57.7983 Q1488.75 63.2149 1480.42 63.2149 Q1472.05 63.2149 1467.29 57.7983 Q1462.57 52.3469 1462.57 42.7984 Q1462.57 33.2151 1467.29 27.7985 Q1472.05 22.3818 1480.42 22.3818 Z" fill="#000000" fill-rule="evenodd" fill-opacity="1" /><path clip-path="url(#clip610)" d="M1564.72 41.1664 L1564.72 44.2914 L1535.35 44.2914 Q1535.76 50.8886 1539.31 54.3608 Q1542.88 57.7983 1549.24 57.7983 Q1552.92 57.7983 1556.35 56.8955 Q1559.83 55.9928 1563.23 54.1872 L1563.23 60.2288 Q1559.79 61.6872 1556.18 62.4511 Q1552.57 63.2149 1548.85 63.2149 Q1539.55 63.2149 1534.1 57.7983 Q1528.68 52.3817 1528.68 43.1456 Q1528.68 33.597 1533.82 28.0068 Q1538.99 22.3818 1547.74 22.3818 Q1555.59 22.3818 1560.14 27.4512 Q1564.72 32.4859 1564.72 41.1664 M1558.33 39.2915 Q1558.26 34.0484 1555.38 30.9234 Q1552.54 27.7985 1547.81 27.7985 Q1542.47 27.7985 1539.24 30.8193 Q1536.04 33.8401 1535.56 39.3262 L1558.33 39.2915 Z" fill="#000000" fill-rule="evenodd" fill-opacity="1" /><path clip-path="url(#clip610)" d="M1597.81 23.3193 L1604.2 23.3193 L1604.2 62.208 L1597.81 62.208 L1597.81 23.3193 M1597.81 8.18051 L1604.2 8.18051 L1604.2 16.2707 L1597.81 16.2707 L1597.81 8.18051 Z" fill="#000000" fill-rule="evenodd" fill-opacity="1" /><path clip-path="url(#clip610)" d="M1649.9 38.7359 L1649.9 62.208 L1643.51 62.208 L1643.51 38.9442 Q1643.51 33.4234 1641.35 30.6804 Q1639.2 27.9374 1634.9 27.9374 Q1629.72 27.9374 1626.74 31.2359 Q1623.75 34.5345 1623.75 40.229 L1623.75 62.208 L1617.33 62.208 L1617.33 23.3193 L1623.75 23.3193 L1623.75 29.361 Q1626.04 25.854 1629.13 24.1179 Q1632.26 22.3818 1636.32 22.3818 Q1643.02 22.3818 1646.46 26.5485 Q1649.9 30.6804 1649.9 38.7359 Z" fill="#000000" fill-rule="evenodd" fill-opacity="1" /><path clip-path="url(#clip610)" d="M1668.96 12.2777 L1668.96 23.3193 L1682.12 23.3193 L1682.12 28.2846 L1668.96 28.2846 L1668.96 49.3956 Q1668.96 54.1525 1670.24 55.5066 Q1671.56 56.8608 1675.56 56.8608 L1682.12 56.8608 L1682.12 62.208 L1675.56 62.208 Q1668.16 62.208 1665.35 59.465 Q1662.53 56.6872 1662.53 49.3956 L1662.53 28.2846 L1657.85 28.2846 L1657.85 23.3193 L1662.53 23.3193 L1662.53 12.2777 L1668.96 12.2777 Z" fill="#000000" fill-rule="evenodd" fill-opacity="1" /><path clip-path="url(#clip610)" d="M1723.78 41.1664 L1723.78 44.2914 L1694.41 44.2914 Q1694.83 50.8886 1698.37 54.3608 Q1701.94 57.7983 1708.3 57.7983 Q1711.98 57.7983 1715.42 56.8955 Q1718.89 55.9928 1722.29 54.1872 L1722.29 60.2288 Q1718.85 61.6872 1715.24 62.4511 Q1711.63 63.2149 1707.92 63.2149 Q1698.61 63.2149 1693.16 57.7983 Q1687.74 52.3817 1687.74 43.1456 Q1687.74 33.597 1692.88 28.0068 Q1698.06 22.3818 1706.81 22.3818 Q1714.65 22.3818 1719.2 27.4512 Q1723.78 32.4859 1723.78 41.1664 M1717.4 39.2915 Q1717.33 34.0484 1714.44 30.9234 Q1711.6 27.7985 1706.87 27.7985 Q1701.53 27.7985 1698.3 30.8193 Q1695.1 33.8401 1694.62 39.3262 L1717.4 39.2915 Z" fill="#000000" fill-rule="evenodd" fill-opacity="1" /><path clip-path="url(#clip610)" d="M1756.81 29.2915 Q1755.73 28.6665 1754.44 28.3887 Q1753.19 28.0762 1751.67 28.0762 Q1746.25 28.0762 1743.33 31.6179 Q1740.45 35.1248 1740.45 41.722 L1740.45 62.208 L1734.03 62.208 L1734.03 23.3193 L1740.45 23.3193 L1740.45 29.361 Q1742.46 25.8193 1745.69 24.1179 Q1748.92 22.3818 1753.54 22.3818 Q1754.2 22.3818 1755 22.486 Q1755.8 22.5554 1756.77 22.729 L1756.81 29.2915 Z" fill="#000000" fill-rule="evenodd" fill-opacity="1" /><path clip-path="url(#clip610)" d="M1758.92 23.3193 L1765.69 23.3193 L1777.85 55.958 L1790 23.3193 L1796.77 23.3193 L1782.19 62.208 L1773.51 62.208 L1758.92 23.3193 Z" fill="#000000" fill-rule="evenodd" fill-opacity="1" /><path clip-path="url(#clip610)" d="M1823.26 42.6595 Q1815.52 42.6595 1812.53 44.4303 Q1809.55 46.2011 1809.55 50.472 Q1809.55 53.8747 1811.77 55.8886 Q1814.03 57.8677 1817.88 57.8677 Q1823.19 57.8677 1826.39 54.1178 Q1829.62 50.3331 1829.62 44.0831 L1829.62 42.6595 L1823.26 42.6595 M1836.01 40.0206 L1836.01 62.208 L1829.62 62.208 L1829.62 56.3053 Q1827.43 59.8469 1824.17 61.5483 Q1820.9 63.2149 1816.18 63.2149 Q1810.21 63.2149 1806.67 59.8816 Q1803.16 56.5136 1803.16 50.8886 Q1803.16 44.3262 1807.53 40.9928 Q1811.94 37.6595 1820.66 37.6595 L1829.62 37.6595 L1829.62 37.0345 Q1829.62 32.6248 1826.7 30.229 Q1823.82 27.7985 1818.58 27.7985 Q1815.24 27.7985 1812.08 28.5971 Q1808.92 29.3957 1806.01 30.9929 L1806.01 25.0901 Q1809.51 23.736 1812.81 23.0763 Q1816.11 22.3818 1819.24 22.3818 Q1827.67 22.3818 1831.84 26.7568 Q1836.01 31.1318 1836.01 40.0206 Z" fill="#000000" fill-rule="evenodd" fill-opacity="1" /><path clip-path="url(#clip610)" d="M1849.17 8.18051 L1855.55 8.18051 L1855.55 62.208 L1849.17 62.208 L1849.17 8.18051 Z" fill="#000000" fill-rule="evenodd" fill-opacity="1" /><path clip-path="url(#clip610)" d="M1883.99 27.7985 Q1878.85 27.7985 1875.87 31.8262 Q1872.88 35.8193 1872.88 42.7984 Q1872.88 49.7775 1875.83 53.8053 Q1878.82 57.7983 1883.99 57.7983 Q1889.1 57.7983 1892.08 53.7705 Q1895.07 49.7428 1895.07 42.7984 Q1895.07 35.8887 1892.08 31.8609 Q1889.1 27.7985 1883.99 27.7985 M1883.99 22.3818 Q1892.33 22.3818 1897.08 27.7985 Q1901.84 33.2151 1901.84 42.7984 Q1901.84 52.3469 1897.08 57.7983 Q1892.33 63.2149 1883.99 63.2149 Q1875.62 63.2149 1870.87 57.7983 Q1866.14 52.3469 1866.14 42.7984 Q1866.14 33.2151 1870.87 27.7985 Q1875.62 22.3818 1883.99 22.3818 Z" fill="#000000" fill-rule="evenodd" fill-opacity="1" /><path clip-path="url(#clip610)" d="M1937.22 24.4651 L1937.22 30.5068 Q1934.51 29.1179 1931.6 28.4235 Q1928.68 27.729 1925.55 27.729 Q1920.8 27.729 1918.4 29.1873 Q1916.04 30.6457 1916.04 33.5623 Q1916.04 35.7845 1917.74 37.0692 Q1919.44 38.3192 1924.58 39.4651 L1926.77 39.9512 Q1933.57 41.4095 1936.42 44.0831 Q1939.3 46.722 1939.3 51.4789 Q1939.3 56.8955 1935 60.0552 Q1930.73 63.2149 1923.23 63.2149 Q1920.1 63.2149 1916.7 62.5899 Q1913.33 61.9997 1909.58 60.7844 L1909.58 54.1872 Q1913.12 56.0275 1916.56 56.965 Q1920 57.8677 1923.37 57.8677 Q1927.88 57.8677 1930.31 56.34 Q1932.74 54.7775 1932.74 51.965 Q1932.74 49.3608 1930.97 47.972 Q1929.23 46.5831 1923.3 45.2984 L1921.08 44.7775 Q1915.14 43.5275 1912.5 40.9581 Q1909.86 38.354 1909.86 33.8401 Q1909.86 28.354 1913.75 25.3679 Q1917.64 22.3818 1924.79 22.3818 Q1928.33 22.3818 1931.46 22.9027 Q1934.58 23.4235 1937.22 24.4651 Z" fill="#000000" fill-rule="evenodd" fill-opacity="1" /><path clip-path="url(#clip610)" d="M1997.67 29.2221 L1997.67 8.18051 L2004.06 8.18051 L2004.06 62.208 L1997.67 62.208 L1997.67 56.3747 Q1995.66 59.8469 1992.57 61.5483 Q1989.51 63.2149 1985.21 63.2149 Q1978.16 63.2149 1973.71 57.59 Q1969.3 51.965 1969.3 42.7984 Q1969.3 33.6318 1973.71 28.0068 Q1978.16 22.3818 1985.21 22.3818 Q1989.51 22.3818 1992.57 24.0832 Q1995.66 25.7499 1997.67 29.2221 M1975.9 42.7984 Q1975.9 49.847 1978.78 53.8747 Q1981.7 57.8677 1986.77 57.8677 Q1991.84 57.8677 1994.76 53.8747 Q1997.67 49.847 1997.67 42.7984 Q1997.67 35.7498 1994.76 31.7568 Q1991.84 27.729 1986.77 27.729 Q1981.7 27.729 1978.78 31.7568 Q1975.9 35.7498 1975.9 42.7984 Z" fill="#000000" fill-rule="evenodd" fill-opacity="1" /><path clip-path="url(#clip610)" d="M2050.48 41.1664 L2050.48 44.2914 L2021.11 44.2914 Q2021.53 50.8886 2025.07 54.3608 Q2028.64 57.7983 2035 57.7983 Q2038.68 57.7983 2042.12 56.8955 Q2045.59 55.9928 2048.99 54.1872 L2048.99 60.2288 Q2045.55 61.6872 2041.94 62.4511 Q2038.33 63.2149 2034.62 63.2149 Q2025.31 63.2149 2019.86 57.7983 Q2014.44 52.3817 2014.44 43.1456 Q2014.44 33.597 2019.58 28.0068 Q2024.76 22.3818 2033.5 22.3818 Q2041.35 22.3818 2045.9 27.4512 Q2050.48 32.4859 2050.48 41.1664 M2044.1 39.2915 Q2044.03 34.0484 2041.14 30.9234 Q2038.3 27.7985 2033.57 27.7985 Q2028.23 27.7985 2025 30.8193 Q2021.8 33.8401 2021.32 39.3262 L2044.1 39.2915 Z" fill="#000000" fill-rule="evenodd" fill-opacity="1" /><path clip-path="url(#clip610)" d="M2111.56 24.8124 L2111.56 30.7846 Q2108.85 29.2915 2106.11 28.5623 Q2103.4 27.7985 2100.62 27.7985 Q2094.41 27.7985 2090.97 31.7568 Q2087.53 35.6804 2087.53 42.7984 Q2087.53 49.9164 2090.97 53.8747 Q2094.41 57.7983 2100.62 57.7983 Q2103.4 57.7983 2106.11 57.0691 Q2108.85 56.3053 2111.56 54.8122 L2111.56 60.715 Q2108.89 61.9649 2106 62.5899 Q2103.16 63.2149 2099.93 63.2149 Q2091.14 63.2149 2085.97 57.6941 Q2080.8 52.1733 2080.8 42.7984 Q2080.8 33.2845 2086 27.8332 Q2091.25 22.3818 2100.34 22.3818 Q2103.3 22.3818 2106.11 23.0068 Q2108.92 23.5971 2111.56 24.8124 Z" fill="#000000" fill-rule="evenodd" fill-opacity="1" /><path clip-path="url(#clip610)" d="M2137.74 27.7985 Q2132.6 27.7985 2129.62 31.8262 Q2126.63 35.8193 2126.63 42.7984 Q2126.63 49.7775 2129.58 53.8053 Q2132.57 57.7983 2137.74 57.7983 Q2142.84 57.7983 2145.83 53.7705 Q2148.82 49.7428 2148.82 42.7984 Q2148.82 35.8887 2145.83 31.8609 Q2142.84 27.7985 2137.74 27.7985 M2137.74 22.3818 Q2146.07 22.3818 2150.83 27.7985 Q2155.59 33.2151 2155.59 42.7984 Q2155.59 52.3469 2150.83 57.7983 Q2146.07 63.2149 2137.74 63.2149 Q2129.37 63.2149 2124.62 57.7983 Q2119.89 52.3469 2119.89 42.7984 Q2119.89 33.2151 2124.62 27.7985 Q2129.37 22.3818 2137.74 22.3818 Z" fill="#000000" fill-rule="evenodd" fill-opacity="1" /><path clip-path="url(#clip610)" d="M2198.5 38.7359 L2198.5 62.208 L2192.12 62.208 L2192.12 38.9442 Q2192.12 33.4234 2189.96 30.6804 Q2187.81 27.9374 2183.5 27.9374 Q2178.33 27.9374 2175.34 31.2359 Q2172.36 34.5345 2172.36 40.229 L2172.36 62.208 L2165.93 62.208 L2165.93 23.3193 L2172.36 23.3193 L2172.36 29.361 Q2174.65 25.854 2177.74 24.1179 Q2180.87 22.3818 2184.93 22.3818 Q2191.63 22.3818 2195.07 26.5485 Q2198.5 30.6804 2198.5 38.7359 Z" fill="#000000" fill-rule="evenodd" fill-opacity="1" /><path clip-path="url(#clip610)" d="M2230.93 8.18051 L2230.93 13.493 L2224.82 13.493 Q2221.39 13.493 2220.03 14.8819 Q2218.71 16.2707 2218.71 19.8818 L2218.71 23.3193 L2229.23 23.3193 L2229.23 28.2846 L2218.71 28.2846 L2218.71 62.208 L2212.29 62.208 L2212.29 28.2846 L2206.18 28.2846 L2206.18 23.3193 L2212.29 23.3193 L2212.29 20.611 Q2212.29 14.118 2215.31 11.1666 Q2218.33 8.18051 2224.89 8.18051 L2230.93 8.18051 Z" fill="#000000" fill-rule="evenodd" fill-opacity="1" /><path clip-path="url(#clip610)" d="M2236.28 23.3193 L2242.67 23.3193 L2242.67 62.208 L2236.28 62.208 L2236.28 23.3193 M2236.28 8.18051 L2242.67 8.18051 L2242.67 16.2707 L2236.28 16.2707 L2236.28 8.18051 Z" fill="#000000" fill-rule="evenodd" fill-opacity="1" /><path clip-path="url(#clip610)" d="M2273.71 42.6595 Q2265.97 42.6595 2262.98 44.4303 Q2260 46.2011 2260 50.472 Q2260 53.8747 2262.22 55.8886 Q2264.48 57.8677 2268.33 57.8677 Q2273.64 57.8677 2276.84 54.1178 Q2280.07 50.3331 2280.07 44.0831 L2280.07 42.6595 L2273.71 42.6595 M2286.45 40.0206 L2286.45 62.208 L2280.07 62.208 L2280.07 56.3053 Q2277.88 59.8469 2274.61 61.5483 Q2271.35 63.2149 2266.63 63.2149 Q2260.66 63.2149 2257.11 59.8816 Q2253.61 56.5136 2253.61 50.8886 Q2253.61 44.3262 2257.98 40.9928 Q2262.39 37.6595 2271.11 37.6595 L2280.07 37.6595 L2280.07 37.0345 Q2280.07 32.6248 2277.15 30.229 Q2274.27 27.7985 2269.02 27.7985 Q2265.69 27.7985 2262.53 28.5971 Q2259.37 29.3957 2256.46 30.9929 L2256.46 25.0901 Q2259.96 23.736 2263.26 23.0763 Q2266.56 22.3818 2269.68 22.3818 Q2278.12 22.3818 2282.29 26.7568 Q2286.45 31.1318 2286.45 40.0206 Z" fill="#000000" fill-rule="evenodd" fill-opacity="1" /><path clip-path="url(#clip610)" d="M2331.94 38.7359 L2331.94 62.208 L2325.55 62.208 L2325.55 38.9442 Q2325.55 33.4234 2323.4 30.6804 Q2321.25 27.9374 2316.94 27.9374 Q2311.77 27.9374 2308.78 31.2359 Q2305.8 34.5345 2305.8 40.229 L2305.8 62.208 L2299.37 62.208 L2299.37 23.3193 L2305.8 23.3193 L2305.8 29.361 Q2308.09 25.854 2311.18 24.1179 Q2314.3 22.3818 2318.36 22.3818 Q2325.07 22.3818 2328.5 26.5485 Q2331.94 30.6804 2331.94 38.7359 Z" fill="#000000" fill-rule="evenodd" fill-opacity="1" /><path clip-path="url(#clip610)" d="M2372.67 24.8124 L2372.67 30.7846 Q2369.96 29.2915 2367.22 28.5623 Q2364.51 27.7985 2361.73 27.7985 Q2355.52 27.7985 2352.08 31.7568 Q2348.64 35.6804 2348.64 42.7984 Q2348.64 49.9164 2352.08 53.8747 Q2355.52 57.7983 2361.73 57.7983 Q2364.51 57.7983 2367.22 57.0691 Q2369.96 56.3053 2372.67 54.8122 L2372.67 60.715 Q2370 61.9649 2367.11 62.5899 Q2364.27 63.2149 2361.04 63.2149 Q2352.25 63.2149 2347.08 57.6941 Q2341.91 52.1733 2341.91 42.7984 Q2341.91 33.2845 2347.11 27.8332 Q2352.36 22.3818 2361.45 22.3818 Q2364.41 22.3818 2367.22 23.0068 Q2370.03 23.5971 2372.67 24.8124 M2363.64 62.208 Q2365.55 64.3608 2366.49 66.1663 Q2367.43 68.0066 2367.43 69.6732 Q2367.43 72.7635 2365.34 74.326 Q2363.26 75.9232 2359.16 75.9232 Q2357.57 75.9232 2356.04 75.7149 Q2354.54 75.5065 2353.05 75.0899 L2353.05 70.5413 Q2354.23 71.1316 2355.52 71.3746 Q2356.8 71.6524 2358.43 71.6524 Q2360.48 71.6524 2361.52 70.8191 Q2362.57 69.9857 2362.57 68.3885 Q2362.57 67.3469 2361.8 65.8191 Q2361.07 64.326 2359.51 62.208 L2363.64 62.208 Z" fill="#000000" fill-rule="evenodd" fill-opacity="1" /><path clip-path="url(#clip610)" d="M2401.45 42.6595 Q2393.71 42.6595 2390.73 44.4303 Q2387.74 46.2011 2387.74 50.472 Q2387.74 53.8747 2389.96 55.8886 Q2392.22 57.8677 2396.07 57.8677 Q2401.38 57.8677 2404.58 54.1178 Q2407.81 50.3331 2407.81 44.0831 L2407.81 42.6595 L2401.45 42.6595 M2414.2 40.0206 L2414.2 62.208 L2407.81 62.208 L2407.81 56.3053 Q2405.62 59.8469 2402.36 61.5483 Q2399.09 63.2149 2394.37 63.2149 Q2388.4 63.2149 2384.86 59.8816 Q2381.35 56.5136 2381.35 50.8886 Q2381.35 44.3262 2385.73 40.9928 Q2390.13 37.6595 2398.85 37.6595 L2407.81 37.6595 L2407.81 37.0345 Q2407.81 32.6248 2404.89 30.229 Q2402.01 27.7985 2396.77 27.7985 Q2393.43 27.7985 2390.27 28.5971 Q2387.11 29.3957 2384.2 30.9929 L2384.2 25.0901 Q2387.7 23.736 2391 23.0763 Q2394.3 22.3818 2397.43 22.3818 Q2405.86 22.3818 2410.03 26.7568 Q2414.2 31.1318 2414.2 40.0206 Z" fill="#000000" fill-rule="evenodd" fill-opacity="1" /><path clip-path="url(#clip612)" d="
M316.418 2145.95 L330.256 2125.59 L344.094 2103.96 L357.932 2081.14 L371.769 2057.14 L385.607 2031.92 L399.445 2005.57 L413.283 1978.1 L427.121 1949.43 L440.958 1919.55 
  L454.796 1888.48 L468.634 1856.22 L482.472 1823.02 L496.31 1788.62 L510.148 1753.17 L523.985 1716.72 L537.823 1679.33 L551.661 1640.81 L565.499 1601.22 L579.337 1560.88 
  L593.174 1519.9 L607.012 1478.96 L620.85 1437.87 L634.688 1396.55 L648.526 1354.47 L662.364 1312.14 L676.201 1270.55 L690.039 1228.58 L703.877 1186.73 L717.715 1145.33 
  L731.553 1104.44 L745.39 1064.15 L759.228 1024.72 L773.066 986.368 L786.904 948.45 L800.742 911.404 L814.58 875.479 L828.417 840.628 L842.255 807.981 L856.093 777.103 
  L869.931 746.726 L883.769 717.851 L897.606 690.439 L911.444 664.4 L925.282 638.727 L939.12 614.415 L952.958 591.441 L966.796 569.68 L980.633 548.148 L994.471 527.818 
  L1008.31 508.712 L1022.15 490.66 L1035.98 473.718 L1049.82 458.6 L1063.66 444.394 L1077.5 430.743 L1091.34 417.466 L1105.17 405.296 L1119.01 394.716 L1132.85 383.919 
  L1146.69 373.794 L1160.53 365.384 L1174.36 357.688 L1188.2 351.371 L1202.04 345.599 L1215.88 339.933 L1229.71 334.062 L1243.55 328.045 L1257.39 322.297 L1271.23 317.182 
  L1285.07 312.765 L1298.9 308.654 L1312.74 304.827 L1326.58 301.264 L1340.42 297.945 L1354.25 294.85 L1368.09 291.97 L1381.93 289.83 L1395.77 287.837 L1409.61 285.568 
  L1423.44 283.162 L1437.28 281.082 L1451.12 279.174 L1464.96 277.577 L1478.79 276.014 L1492.63 274.549 L1506.47 273.225 L1520.31 271.999 L1534.15 270.861 L1547.98 269.804 
  L1561.82 268.664 L1575.66 267.602 L1589.5 266.687 L1603.34 265.829 L1617.17 265.029 L1631.01 264.285 L1644.85 263.594 L1658.69 262.97 L1672.52 262.395 L1686.36 261.863 
  L1700.2 261.37 L1714.04 260.915 L1727.88 260.495 L1741.71 260.107 L1755.55 259.748 L1769.39 259.416 L1783.23 259.109 L1797.06 258.823 L1810.9 258.557 L1824.74 258.307 
  L1838.58 258.073 L1852.42 257.853 L1866.25 257.647 L1880.09 257.454 L1893.93 257.276 L1907.77 257.11 L1921.61 256.957 L1935.44 256.815 L1949.28 256.685 L1963.12 256.566 
  L1976.96 256.456 L1990.79 256.357 L2004.63 256.266 L2018.47 256.183 L2032.31 256.107 L2046.15 256.037 L2059.98 255.974 L2073.82 255.915 L2087.66 255.86 L2101.5 255.808 
  L2115.33 255.758 L2129.17 255.711 L2143.01 255.674 L2156.85 255.638 L2170.69 255.603 L2184.52 255.57 L2198.36 255.539 L2212.2 255.51 L2226.04 255.483 L2239.87 255.458 
  L2253.71 255.434 L2267.55 255.413 L2281.39 255.393 L2295.23 255.375 L2309.06 255.359 L2322.9 255.345 L2336.74 255.332 L2350.58 255.321 L2364.42 255.311 L2378.25 255.303 
  L2392.09 255.295 L2405.93 255.289 L2419.77 255.283 L2433.6 255.278 L2447.44 255.274 L2461.28 255.27 L2475.12 255.266 L2488.96 255.261 L2502.79 255.256 L2516.63 255.251 
  L2530.47 255.245 L2544.31 255.24 L2558.14 255.234 L2571.98 255.228 L2585.82 255.223 L2599.66 255.218 L2613.5 255.213 L2627.33 255.209 L2641.17 255.204 L2655.01 255.2 
  L2668.85 255.197 L2682.69 255.194 L2696.52 255.191 L2710.36 255.189 L2724.2 255.187 L2738.04 255.185 L2751.87 255.184 L2765.71 255.183 L2779.55 255.183 L2793.39 255.183 
  L2807.23 255.183 L2821.06 255.183 L2834.9 255.184 L2848.74 255.185 L2862.58 255.185 L2876.41 255.186 L2890.25 255.187 L2904.09 255.188 L2917.93 255.189 L2931.77 255.19 
  L2945.6 255.19 L2959.44 255.19 L2973.28 255.189 L2987.12 255.189 L3000.96 255.188 L3014.79 255.187 L3028.63 255.186 L3042.47 255.185 L3056.31 255.184 L3070.14 255.183 
  L3070.14 180.282 L3056.31 180.283 L3042.47 180.283 L3028.63 180.284 L3014.79 180.285 L3000.96 180.286 L2987.12 180.287 L2973.28 180.288 L2959.44 180.289 L2945.6 180.29 
  L2931.77 180.291 L2917.93 180.292 L2904.09 180.294 L2890.25 180.295 L2876.41 180.296 L2862.58 180.297 L2848.74 180.297 L2834.9 180.297 L2821.06 180.297 L2807.23 180.296 
  L2793.39 180.295 L2779.55 180.294 L2765.71 180.293 L2751.87 180.293 L2738.04 180.292 L2724.2 180.292 L2710.36 180.292 L2696.52 180.293 L2682.69 180.293 L2668.85 180.295 
  L2655.01 180.297 L2641.17 180.299 L2627.33 180.302 L2613.5 180.306 L2599.66 180.31 L2585.82 180.314 L2571.98 180.319 L2558.14 180.325 L2544.31 180.331 L2530.47 180.338 
  L2516.63 180.345 L2502.79 180.353 L2488.96 180.361 L2475.12 180.369 L2461.28 180.378 L2447.44 180.387 L2433.6 180.396 L2419.77 180.404 L2405.93 180.412 L2392.09 180.42 
  L2378.25 180.428 L2364.42 180.437 L2350.58 180.446 L2336.74 180.456 L2322.9 180.468 L2309.06 180.481 L2295.23 180.495 L2281.39 180.511 L2267.55 180.53 L2253.71 180.55 
  L2239.87 180.573 L2226.04 180.598 L2212.2 180.626 L2198.36 180.656 L2184.52 180.689 L2170.69 180.725 L2156.85 180.763 L2143.01 180.805 L2129.17 180.849 L2115.33 180.896 
  L2101.5 180.947 L2087.66 180.999 L2073.82 181.054 L2059.98 181.11 L2046.15 181.169 L2032.31 181.232 L2018.47 181.3 L2004.63 181.373 L1990.79 181.452 L1976.96 181.539 
  L1963.12 181.634 L1949.28 181.738 L1935.44 181.853 L1921.61 181.977 L1907.77 182.114 L1893.93 182.262 L1880.09 182.423 L1866.25 182.597 L1852.42 182.786 L1838.58 182.986 
  L1824.74 183.196 L1810.9 183.421 L1797.06 183.662 L1783.23 183.918 L1769.39 184.192 L1755.55 184.484 L1741.71 184.797 L1727.88 185.135 L1714.04 185.5 L1700.2 185.896 
  L1686.36 186.324 L1672.52 186.788 L1658.69 187.29 L1644.85 187.834 L1631.01 188.423 L1617.17 189.156 L1603.34 189.953 L1589.5 190.801 L1575.66 191.654 L1561.82 192.485 
  L1547.98 193.379 L1534.15 194.337 L1520.31 195.366 L1506.47 196.47 L1492.63 197.651 L1478.79 198.911 L1464.96 200.267 L1451.12 201.733 L1437.28 203.395 L1423.44 205.192 
  L1409.61 207.132 L1395.77 209.582 L1381.93 212.182 L1368.09 214.979 L1354.25 217.861 L1340.42 220.595 L1326.58 223.533 L1312.74 226.692 L1298.9 230.09 L1285.07 234.423 
  L1271.23 238.159 L1257.39 242.156 L1243.55 246.455 L1229.71 251.339 L1215.88 256.554 L1202.04 262.15 L1188.2 268.148 L1174.36 274.653 L1160.53 281.663 L1146.69 289.066 
  L1132.85 296.985 L1119.01 305.97 L1105.17 314.528 L1091.34 324.161 L1077.5 334.744 L1063.66 345.477 L1049.82 356.64 L1035.98 368.658 L1022.15 381.654 L1008.31 395.808 
  L994.471 410.193 L980.633 424.759 L966.796 440.381 L952.958 457.383 L939.12 476.027 L925.282 495.19 L911.444 514.557 L897.606 535.362 L883.769 557.421 L869.931 580.542 
  L856.093 604.98 L842.255 630.924 L828.417 657.574 L814.58 685.444 L800.742 714.604 L786.904 745.285 L773.066 776.537 L759.228 808.973 L745.39 842.563 L731.553 877.369 
  L717.715 913.522 L703.877 950.736 L690.039 989.719 L676.201 1029.65 L662.364 1069.86 L648.526 1110.64 L634.688 1152 L620.85 1193.79 L607.012 1235.93 L593.174 1277.81 
  L579.337 1320.28 L565.499 1363.09 L551.661 1405.65 L537.823 1447.43 L523.985 1489.14 L510.148 1530.28 L496.31 1570.82 L482.472 1610.69 L468.634 1649.99 L454.796 1688.4 
  L440.958 1725.84 L427.121 1762.32 L413.283 1797.69 L399.445 1831.98 L385.607 1865.16 L371.769 1897.16 L357.932 1927.97 L344.094 1957.57 L330.256 1985.95 L316.418 2013.11 
   Z
  " fill="#009af9" fill-rule="evenodd" fill-opacity="0.2"/>
<polyline clip-path="url(#clip612)" style="stroke:#009af9; stroke-linecap:butt; stroke-linejoin:round; stroke-width:12; stroke-opacity:1; fill:none" points="
  316.418,2071.63 330.256,2047.38 344.094,2021.93 357.932,1995.24 371.769,1967.24 385.607,1938.04 399.445,1907.65 413.283,1876.13 427.121,1843.44 440.958,1809.62 
  454.796,1774.69 468.634,1738.72 482.472,1701.85 496.31,1664.23 510.148,1625.48 523.985,1585.57 537.823,1544.95 551.661,1503.72 565.499,1462.07 579.337,1420.15 
  593.174,1377.97 607.012,1335.65 620.85,1293.29 634.688,1251.18 648.526,1209.68 662.364,1168.54 676.201,1127.37 690.039,1086.92 703.877,1047.19 717.715,1007.56 
  731.553,968.728 745.39,931.135 759.228,895.378 773.066,860.38 786.904,826.301 800.742,793.304 814.58,762.217 828.417,731.535 842.255,702.049 856.093,674.7 
  869.931,647.961 883.769,622.482 897.606,597.647 911.444,574.131 925.282,552.739 939.12,532.313 952.958,511.797 966.796,492.183 980.633,474.27 994.471,458.652 
  1008.31,443.928 1022.15,429.418 1035.98,415.146 1049.82,402.63 1063.66,390.6 1077.5,379.051 1091.34,367.96 1105.17,357.406 1119.01,348.058 1132.85,339.087 
  1146.69,330.403 1160.53,322.87 1174.36,315.196 1188.2,308.641 1202.04,302.376 1215.88,296.547 1229.71,291.552 1243.55,286.265 1257.39,280.479 1271.23,275.941 
  1285.07,271.738 1298.9,267.85 1312.74,264.067 1326.58,260.592 1340.42,257.591 1354.25,254.562 1368.09,251.718 1381.93,248.974 1395.77,246.294 1409.61,243.959 
  1423.44,241.855 1437.28,240.078 1451.12,238.26 1464.96,236.618 1478.79,235.169 1492.63,233.813 1506.47,232.621 1520.31,231.408 1534.15,230.139 1547.98,228.927 
  1561.82,227.814 1575.66,226.904 1589.5,226.053 1603.34,225.261 1617.17,224.525 1631.01,223.794 1644.85,223.119 1658.69,222.521 1672.52,221.967 1686.36,221.396 
  1700.2,220.899 1714.04,220.476 1727.88,220.031 1741.71,219.616 1755.55,219.232 1769.39,218.879 1783.23,218.593 1797.06,218.327 1810.9,218.08 1824.74,217.851 
  1838.58,217.638 1852.42,217.44 1866.25,217.272 1880.09,217.118 1893.93,216.963 1907.77,216.806 1921.61,216.662 1935.44,216.53 1949.28,216.408 1963.12,216.297 
  1976.96,216.196 1990.79,216.103 2004.63,216.018 2018.47,215.94 2032.31,215.868 2046.15,215.802 2059.98,215.741 2073.82,215.683 2087.66,215.627 2101.5,215.575 
  2115.33,215.525 2129.17,215.478 2143.01,215.434 2156.85,215.391 2170.69,215.352 2184.52,215.315 2198.36,215.28 2212.2,215.249 2226.04,215.219 2239.87,215.193 
  2253.71,215.168 2267.55,215.146 2281.39,215.126 2295.23,215.108 2309.06,215.092 2322.9,215.077 2336.74,215.064 2350.58,215.053 2364.42,215.042 2378.25,215.033 
  2392.09,215.024 2405.93,215.016 2419.77,215.007 2433.6,214.999 2447.44,214.992 2461.28,214.984 2475.12,214.977 2488.96,214.97 2502.79,214.962 2516.63,214.955 
  2530.47,214.948 2544.31,214.941 2558.14,214.935 2571.98,214.929 2585.82,214.924 2599.66,214.919 2613.5,214.914 2627.33,214.91 2641.17,214.907 2655.01,214.904 
  2668.85,214.902 2682.69,214.9 2696.52,214.898 2710.36,214.897 2724.2,214.896 2738.04,214.896 2751.87,214.896 2765.71,214.896 2779.55,214.896 2793.39,214.897 
  2807.23,214.897 2821.06,214.897 2834.9,214.897 2848.74,214.897 2862.58,214.897 2876.41,214.897 2890.25,214.896 2904.09,214.896 2917.93,214.895 2931.77,214.895 
  2945.6,214.894 2959.44,214.894 2973.28,214.893 2987.12,214.892 3000.96,214.891 3014.79,214.89 3028.63,214.889 3042.47,214.888 3056.31,214.887 3070.14,214.887 
  
  "/>
<path clip-path="url(#clip612)" d="
M316.418 2127.46 L330.256 2106.06 L344.094 2083.41 L357.932 2059.58 L371.769 2034.61 L385.607 2008.54 L399.445 1981.26 L413.283 1952.77 L427.121 1923.07 L440.958 1891.96 
  L454.796 1859.84 L468.634 1826.61 L482.472 1792.19 L496.31 1756.67 L510.148 1720.11 L523.985 1682.52 L537.823 1644.03 L551.661 1604.73 L565.499 1564.73 L579.337 1524.23 
  L593.174 1483.17 L607.012 1441.51 L620.85 1399.53 L634.688 1357.23 L648.526 1315.24 L662.364 1273.21 L676.201 1231.34 L690.039 1189.91 L703.877 1149.01 L717.715 1108.38 
  L731.553 1068.21 L745.39 1029.58 L759.228 991.628 L773.066 954.549 L786.904 918.42 L800.742 883.199 L814.58 848.683 L828.417 815.23 L842.255 782.769 L856.093 751.359 
  L869.931 721.117 L883.769 691.982 L897.606 663.456 L911.444 636.48 L925.282 611.399 L939.12 587.671 L952.958 564.484 L966.796 542.439 L980.633 522.156 L994.471 502.465 
  L1008.31 483.553 L1022.15 466.15 L1035.98 449.398 L1049.82 433.327 L1063.66 419.298 L1077.5 407.217 L1091.34 394.988 L1105.17 383.825 L1119.01 374.275 L1132.85 365.066 
  L1146.69 356.068 L1160.53 348.204 L1174.36 341.516 L1188.2 333.879 L1202.04 326.806 L1215.88 320.374 L1229.71 314.041 L1243.55 308.116 L1257.39 302.449 L1271.23 297.679 
  L1285.07 293.347 L1298.9 289.356 L1312.74 285.734 L1326.58 281.994 L1340.42 278.72 L1354.25 275.867 L1368.09 273.343 L1381.93 270.402 L1395.77 267.963 L1409.61 266.036 
  L1423.44 264.013 L1437.28 262.068 L1451.12 260.162 L1464.96 258.663 L1478.79 257.33 L1492.63 256.07 L1506.47 254.837 L1520.31 253.663 L1534.15 252.567 L1547.98 251.545 
  L1561.82 250.61 L1575.66 249.63 L1589.5 248.757 L1603.34 247.943 L1617.17 247.187 L1631.01 246.484 L1644.85 245.833 L1658.69 245.237 L1672.52 244.767 L1686.36 244.328 
  L1700.2 243.92 L1714.04 243.542 L1727.88 243.191 L1741.71 242.866 L1755.55 242.566 L1769.39 242.289 L1783.23 242.033 L1797.06 241.797 L1810.9 241.555 L1824.74 241.327 
  L1838.58 241.115 L1852.42 240.918 L1866.25 240.735 L1880.09 240.576 L1893.93 240.432 L1907.77 240.292 L1921.61 240.161 L1935.44 240.016 L1949.28 239.864 L1963.12 239.756 
  L1976.96 239.661 L1990.79 239.575 L2004.63 239.497 L2018.47 239.425 L2032.31 239.358 L2046.15 239.297 L2059.98 239.239 L2073.82 239.185 L2087.66 239.132 L2101.5 239.081 
  L2115.33 239.034 L2129.17 238.989 L2143.01 238.946 L2156.85 238.907 L2170.69 238.87 L2184.52 238.835 L2198.36 238.803 L2212.2 238.773 L2226.04 238.746 L2239.87 238.721 
  L2253.71 238.699 L2267.55 238.679 L2281.39 238.66 L2295.23 238.644 L2309.06 238.63 L2322.9 238.617 L2336.74 238.605 L2350.58 238.595 L2364.42 238.585 L2378.25 238.577 
  L2392.09 238.569 L2405.93 238.561 L2419.77 238.553 L2433.6 238.545 L2447.44 238.537 L2461.28 238.529 L2475.12 238.522 L2488.96 238.514 L2502.79 238.507 L2516.63 238.5 
  L2530.47 238.493 L2544.31 238.487 L2558.14 238.481 L2571.98 238.475 L2585.82 238.47 L2599.66 238.466 L2613.5 238.462 L2627.33 238.458 L2641.17 238.455 L2655.01 238.452 
  L2668.85 238.45 L2682.69 238.449 L2696.52 238.447 L2710.36 238.447 L2724.2 238.446 L2738.04 238.446 L2751.87 238.446 L2765.71 238.446 L2779.55 238.447 L2793.39 238.448 
  L2807.23 238.448 L2821.06 238.449 L2834.9 238.449 L2848.74 238.449 L2862.58 238.449 L2876.41 238.449 L2890.25 238.448 L2904.09 238.446 L2917.93 238.446 L2931.77 238.445 
  L2945.6 238.444 L2959.44 238.443 L2973.28 238.442 L2987.12 238.441 L3000.96 238.441 L3014.79 238.44 L3028.63 238.439 L3042.47 238.438 L3056.31 238.438 L3070.14 238.437 
  L3070.14 193.734 L3056.31 193.734 L3042.47 193.735 L3028.63 193.735 L3014.79 193.735 L3000.96 193.735 L2987.12 193.735 L2973.28 193.735 L2959.44 193.735 L2945.6 193.735 
  L2931.77 193.735 L2917.93 193.735 L2904.09 193.735 L2890.25 193.735 L2876.41 193.735 L2862.58 193.736 L2848.74 193.736 L2834.9 193.737 L2821.06 193.738 L2807.23 193.739 
  L2793.39 193.74 L2779.55 193.741 L2765.71 193.743 L2751.87 193.745 L2738.04 193.747 L2724.2 193.749 L2710.36 193.752 L2696.52 193.755 L2682.69 193.757 L2668.85 193.759 
  L2655.01 193.762 L2641.17 193.765 L2627.33 193.768 L2613.5 193.772 L2599.66 193.774 L2585.82 193.776 L2571.98 193.778 L2558.14 193.779 L2544.31 193.781 L2530.47 193.783 
  L2516.63 193.786 L2502.79 193.788 L2488.96 193.792 L2475.12 193.795 L2461.28 193.8 L2447.44 193.805 L2433.6 193.811 L2419.77 193.818 L2405.93 193.826 L2392.09 193.836 
  L2378.25 193.846 L2364.42 193.857 L2350.58 193.87 L2336.74 193.883 L2322.9 193.898 L2309.06 193.914 L2295.23 193.931 L2281.39 193.95 L2267.55 193.969 L2253.71 193.989 
  L2239.87 194.011 L2226.04 194.032 L2212.2 194.054 L2198.36 194.077 L2184.52 194.102 L2170.69 194.128 L2156.85 194.156 L2143.01 194.186 L2129.17 194.218 L2115.33 194.254 
  L2101.5 194.292 L2087.66 194.336 L2073.82 194.387 L2059.98 194.441 L2046.15 194.501 L2032.31 194.565 L2018.47 194.635 L2004.63 194.714 L1990.79 194.8 L1976.96 194.893 
  L1963.12 194.993 L1949.28 195.1 L1935.44 195.215 L1921.61 195.336 L1907.77 195.464 L1893.93 195.599 L1880.09 195.743 L1866.25 195.897 L1852.42 196.063 L1838.58 196.243 
  L1824.74 196.438 L1810.9 196.649 L1797.06 196.88 L1783.23 197.131 L1769.39 197.457 L1755.55 197.853 L1741.71 198.281 L1727.88 198.745 L1714.04 199.263 L1700.2 199.823 
  L1686.36 200.396 L1672.52 200.916 L1658.69 201.479 L1644.85 202.088 L1631.01 202.745 L1617.17 203.454 L1603.34 204.219 L1589.5 205.041 L1575.66 205.909 L1561.82 206.824 
  L1547.98 207.802 L1534.15 208.848 L1520.31 209.904 L1506.47 210.937 L1492.63 212.074 L1478.79 213.372 L1464.96 215.095 L1451.12 216.692 L1437.28 218.25 L1423.44 219.936 
  L1409.61 221.763 L1395.77 223.832 L1381.93 226.095 L1368.09 228.511 L1354.25 231.4 L1340.42 234.066 L1326.58 237.191 L1312.74 240.991 L1298.9 244.604 L1285.07 248.746 
  L1271.23 252.993 L1257.39 257.765 L1243.55 262.454 L1229.71 266.843 L1215.88 271.699 L1202.04 278.242 L1188.2 284.02 L1174.36 290.062 L1160.53 297.216 L1146.69 304.058 
  L1132.85 311.464 L1119.01 319.625 L1105.17 328.604 L1091.34 337.397 L1077.5 348.003 L1063.66 359.423 L1049.82 370.722 L1035.98 383.361 L1022.15 396.34 L1008.31 409.603 
  L994.471 423.755 L980.633 439.04 L966.796 456.097 L952.958 475.006 L939.12 493.676 L925.282 513.631 L911.444 534.004 L897.606 555.197 L883.769 576.659 L869.931 600.731 
  L856.093 624.586 L842.255 650.226 L828.417 677.451 L814.58 705.636 L800.742 734.557 L786.904 765.425 L773.066 796.961 L759.228 829.197 L745.39 862.895 L731.553 898.718 
  L717.715 935.569 L703.877 973.438 L690.039 1012.24 L676.201 1051.54 L662.364 1091.29 L648.526 1131.88 L634.688 1173.75 L620.85 1215.48 L607.012 1256.97 L593.174 1298.97 
  L579.337 1341.44 L565.499 1383.74 L551.661 1425.62 L537.823 1467.38 L523.985 1508.9 L510.148 1549.92 L496.31 1590.41 L482.472 1630.18 L468.634 1669.17 L454.796 1707.26 
  L440.958 1744.08 L427.121 1780.1 L413.283 1814.84 L399.445 1848.31 L385.607 1880.99 L371.769 1912.52 L357.932 1942.83 L344.094 1971.91 L330.256 1999.76 L316.418 2026.39 
   Z
  " fill="#e26f46" fill-rule="evenodd" fill-opacity="0.2"/>
<polyline clip-path="url(#clip612)" style="stroke:#e26f46; stroke-linecap:butt; stroke-linejoin:round; stroke-width:12; stroke-opacity:1; fill:none" points="
  316.418,2071.63 330.256,2047.38 344.094,2021.93 357.932,1995.24 371.769,1967.24 385.607,1938.04 399.445,1907.65 413.283,1876.13 427.121,1843.44 440.958,1809.62 
  454.796,1774.69 468.634,1738.72 482.472,1701.85 496.31,1664.23 510.148,1625.48 523.985,1585.57 537.823,1544.95 551.661,1503.72 565.499,1462.07 579.337,1420.15 
  593.174,1377.97 607.012,1335.65 620.85,1293.29 634.688,1251.18 648.526,1209.68 662.364,1168.54 676.201,1127.37 690.039,1086.92 703.877,1047.19 717.715,1007.56 
  731.553,968.728 745.39,931.135 759.228,895.378 773.066,860.38 786.904,826.301 800.742,793.304 814.58,762.217 828.417,731.535 842.255,702.049 856.093,674.7 
  869.931,647.961 883.769,622.482 897.606,597.647 911.444,574.131 925.282,552.739 939.12,532.313 952.958,511.797 966.796,492.183 980.633,474.27 994.471,458.652 
  1008.31,443.928 1022.15,429.418 1035.98,415.146 1049.82,402.63 1063.66,390.6 1077.5,379.051 1091.34,367.96 1105.17,357.406 1119.01,348.058 1132.85,339.087 
  1146.69,330.403 1160.53,322.87 1174.36,315.196 1188.2,308.641 1202.04,302.376 1215.88,296.547 1229.71,291.552 1243.55,286.265 1257.39,280.479 1271.23,275.941 
  1285.07,271.738 1298.9,267.85 1312.74,264.067 1326.58,260.592 1340.42,257.591 1354.25,254.562 1368.09,251.718 1381.93,248.974 1395.77,246.294 1409.61,243.959 
  1423.44,241.855 1437.28,240.078 1451.12,238.26 1464.96,236.618 1478.79,235.169 1492.63,233.813 1506.47,232.621 1520.31,231.408 1534.15,230.139 1547.98,228.927 
  1561.82,227.814 1575.66,226.904 1589.5,226.053 1603.34,225.261 1617.17,224.525 1631.01,223.794 1644.85,223.119 1658.69,222.521 1672.52,221.967 1686.36,221.396 
  1700.2,220.899 1714.04,220.476 1727.88,220.031 1741.71,219.616 1755.55,219.232 1769.39,218.879 1783.23,218.593 1797.06,218.327 1810.9,218.08 1824.74,217.851 
  1838.58,217.638 1852.42,217.44 1866.25,217.272 1880.09,217.118 1893.93,216.963 1907.77,216.806 1921.61,216.662 1935.44,216.53 1949.28,216.408 1963.12,216.297 
  1976.96,216.196 1990.79,216.103 2004.63,216.018 2018.47,215.94 2032.31,215.868 2046.15,215.802 2059.98,215.741 2073.82,215.683 2087.66,215.627 2101.5,215.575 
  2115.33,215.525 2129.17,215.478 2143.01,215.434 2156.85,215.391 2170.69,215.352 2184.52,215.315 2198.36,215.28 2212.2,215.249 2226.04,215.219 2239.87,215.193 
  2253.71,215.168 2267.55,215.146 2281.39,215.126 2295.23,215.108 2309.06,215.092 2322.9,215.077 2336.74,215.064 2350.58,215.053 2364.42,215.042 2378.25,215.033 
  2392.09,215.024 2405.93,215.016 2419.77,215.007 2433.6,214.999 2447.44,214.992 2461.28,214.984 2475.12,214.977 2488.96,214.97 2502.79,214.962 2516.63,214.955 
  2530.47,214.948 2544.31,214.941 2558.14,214.935 2571.98,214.929 2585.82,214.924 2599.66,214.919 2613.5,214.914 2627.33,214.91 2641.17,214.907 2655.01,214.904 
  2668.85,214.902 2682.69,214.9 2696.52,214.898 2710.36,214.897 2724.2,214.896 2738.04,214.896 2751.87,214.896 2765.71,214.896 2779.55,214.896 2793.39,214.897 
  2807.23,214.897 2821.06,214.897 2834.9,214.897 2848.74,214.897 2862.58,214.897 2876.41,214.897 2890.25,214.896 2904.09,214.896 2917.93,214.895 2931.77,214.895 
  2945.6,214.894 2959.44,214.894 2973.28,214.893 2987.12,214.892 3000.96,214.891 3014.79,214.89 3028.63,214.889 3042.47,214.888 3056.31,214.887 3070.14,214.887 
  
  "/>
<path clip-path="url(#clip610)" d="
M2631.36 2135.47 L3055.46 2135.47 L3055.46 1979.95 L2631.36 1979.95  Z
  " fill="#eaeaea" fill-rule="evenodd" fill-opacity="1"/>
<polyline clip-path="url(#clip610)" style="stroke:#ffffff; stroke-linecap:butt; stroke-linejoin:round; stroke-width:4; stroke-opacity:1; fill:none" points="
  2631.36,2135.47 3055.46,2135.47 3055.46,1979.95 2631.36,1979.95 2631.36,2135.47 
  "/>
<polyline clip-path="url(#clip610)" style="stroke:#009af9; stroke-linecap:butt; stroke-linejoin:round; stroke-width:4; stroke-opacity:1; fill:none" points="
  2663.79,2031.79 2858.39,2031.79 
  "/>
<path clip-path="url(#clip610)" d="M2893.05 2048.35 L2893.05 2044.09 Q2894.81 2044.92 2896.61 2045.36 Q2898.42 2045.8 2900.15 2045.8 Q2904.78 2045.8 2907.21 2042.7 Q2909.67 2039.58 2910.01 2033.23 Q2908.67 2035.22 2906.61 2036.29 Q2904.55 2037.35 2902.05 2037.35 Q2896.87 2037.35 2893.83 2034.23 Q2890.82 2031.08 2890.82 2025.64 Q2890.82 2020.32 2893.97 2017.1 Q2897.12 2013.88 2902.35 2013.88 Q2908.35 2013.88 2911.5 2018.49 Q2914.67 2023.07 2914.67 2031.82 Q2914.67 2039.99 2910.78 2044.88 Q2906.91 2049.74 2900.36 2049.74 Q2898.6 2049.74 2896.8 2049.39 Q2894.99 2049.04 2893.05 2048.35 M2902.35 2033.7 Q2905.5 2033.7 2907.33 2031.54 Q2909.18 2029.39 2909.18 2025.64 Q2909.18 2021.91 2907.33 2019.76 Q2905.5 2017.58 2902.35 2017.58 Q2899.2 2017.58 2897.35 2019.76 Q2895.52 2021.91 2895.52 2025.64 Q2895.52 2029.39 2897.35 2031.54 Q2899.2 2033.7 2902.35 2033.7 Z" fill="#000000" fill-rule="evenodd" fill-opacity="1" /><path clip-path="url(#clip610)" d="M2923.12 2014.51 L2941.47 2014.51 L2941.47 2018.44 L2927.4 2018.44 L2927.4 2026.91 Q2928.42 2026.57 2929.43 2026.4 Q2930.45 2026.22 2931.47 2026.22 Q2937.26 2026.22 2940.64 2029.39 Q2944.02 2032.56 2944.02 2037.98 Q2944.02 2043.56 2940.55 2046.66 Q2937.07 2049.74 2930.75 2049.74 Q2928.58 2049.74 2926.31 2049.37 Q2924.06 2049 2921.66 2048.26 L2921.66 2043.56 Q2923.74 2044.69 2925.96 2045.25 Q2928.18 2045.8 2930.66 2045.8 Q2934.67 2045.8 2937 2043.7 Q2939.34 2041.59 2939.34 2037.98 Q2939.34 2034.37 2937 2032.26 Q2934.67 2030.15 2930.66 2030.15 Q2928.79 2030.15 2926.91 2030.57 Q2925.06 2030.99 2923.12 2031.87 L2923.12 2014.51 Z" fill="#000000" fill-rule="evenodd" fill-opacity="1" /><path clip-path="url(#clip610)" d="M2982.63 2033.86 Q2980.62 2033.86 2979.46 2035.57 Q2978.32 2037.28 2978.32 2040.34 Q2978.32 2043.35 2979.46 2045.08 Q2980.62 2046.8 2982.63 2046.8 Q2984.6 2046.8 2985.73 2045.08 Q2986.89 2043.35 2986.89 2040.34 Q2986.89 2037.31 2985.73 2035.59 Q2984.6 2033.86 2982.63 2033.86 M2982.63 2030.92 Q2986.29 2030.92 2988.44 2033.46 Q2990.59 2036.01 2990.59 2040.34 Q2990.59 2044.67 2988.42 2047.21 Q2986.26 2049.74 2982.63 2049.74 Q2978.93 2049.74 2976.77 2047.21 Q2974.62 2044.67 2974.62 2040.34 Q2974.62 2035.99 2976.77 2033.46 Q2978.95 2030.92 2982.63 2030.92 M2958.74 2016.82 Q2956.75 2016.82 2955.59 2018.56 Q2954.46 2020.27 2954.46 2023.28 Q2954.46 2026.33 2955.59 2028.05 Q2956.73 2029.76 2958.74 2029.76 Q2960.75 2029.76 2961.89 2028.05 Q2963.05 2026.33 2963.05 2023.28 Q2963.05 2020.29 2961.89 2018.56 Q2960.73 2016.82 2958.74 2016.82 M2979.64 2013.88 L2983.35 2013.88 L2961.73 2049.74 L2958.02 2049.74 L2979.64 2013.88 M2958.74 2013.88 Q2962.4 2013.88 2964.57 2016.43 Q2966.75 2018.95 2966.75 2023.28 Q2966.75 2027.65 2964.57 2030.18 Q2962.42 2032.7 2958.74 2032.7 Q2955.06 2032.7 2952.91 2030.18 Q2950.78 2027.63 2950.78 2023.28 Q2950.78 2018.97 2952.93 2016.43 Q2955.08 2013.88 2958.74 2013.88 Z" fill="#000000" fill-rule="evenodd" fill-opacity="1" /><polyline clip-path="url(#clip610)" style="stroke:#e26f46; stroke-linecap:butt; stroke-linejoin:round; stroke-width:4; stroke-opacity:1; fill:none" points="
  2663.79,2083.63 2858.39,2083.63 
  "/>
<path clip-path="url(#clip610)" d="M2903.16 2081.76 Q2900.01 2081.76 2898.16 2083.92 Q2896.33 2086.07 2896.33 2089.82 Q2896.33 2093.55 2898.16 2095.72 Q2900.01 2097.87 2903.16 2097.87 Q2906.31 2097.87 2908.14 2095.72 Q2909.99 2093.55 2909.99 2089.82 Q2909.99 2086.07 2908.14 2083.92 Q2906.31 2081.76 2903.16 2081.76 M2912.44 2067.11 L2912.44 2071.37 Q2910.69 2070.54 2908.88 2070.1 Q2907.1 2069.66 2905.34 2069.66 Q2900.71 2069.66 2898.25 2072.78 Q2895.82 2075.91 2895.48 2082.23 Q2896.84 2080.21 2898.9 2079.15 Q2900.96 2078.06 2903.44 2078.06 Q2908.65 2078.06 2911.66 2081.23 Q2914.69 2084.38 2914.69 2089.82 Q2914.69 2095.14 2911.54 2098.36 Q2908.39 2101.58 2903.16 2101.58 Q2897.17 2101.58 2894 2096.99 Q2890.82 2092.39 2890.82 2083.66 Q2890.82 2075.47 2894.71 2070.61 Q2898.6 2065.72 2905.15 2065.72 Q2906.91 2065.72 2908.69 2066.07 Q2910.5 2066.42 2912.44 2067.11 Z" fill="#000000" fill-rule="evenodd" fill-opacity="1" /><path clip-path="url(#clip610)" d="M2932.75 2084.49 Q2929.41 2084.49 2927.49 2086.28 Q2925.59 2088.06 2925.59 2091.18 Q2925.59 2094.31 2927.49 2096.09 Q2929.41 2097.87 2932.75 2097.87 Q2936.08 2097.87 2938 2096.09 Q2939.92 2094.29 2939.92 2091.18 Q2939.92 2088.06 2938 2086.28 Q2936.1 2084.49 2932.75 2084.49 M2928.07 2082.5 Q2925.06 2081.76 2923.37 2079.7 Q2921.7 2077.64 2921.7 2074.68 Q2921.7 2070.54 2924.64 2068.13 Q2927.61 2065.72 2932.75 2065.72 Q2937.91 2065.72 2940.85 2068.13 Q2943.79 2070.54 2943.79 2074.68 Q2943.79 2077.64 2942.1 2079.7 Q2940.43 2081.76 2937.44 2082.5 Q2940.82 2083.29 2942.7 2085.58 Q2944.6 2087.87 2944.6 2091.18 Q2944.6 2096.21 2941.52 2098.89 Q2938.46 2101.58 2932.75 2101.58 Q2927.03 2101.58 2923.95 2098.89 Q2920.89 2096.21 2920.89 2091.18 Q2920.89 2087.87 2922.79 2085.58 Q2924.69 2083.29 2928.07 2082.5 M2926.36 2075.12 Q2926.36 2077.8 2928.02 2079.31 Q2929.71 2080.81 2932.75 2080.81 Q2935.75 2080.81 2937.44 2079.31 Q2939.16 2077.8 2939.16 2075.12 Q2939.16 2072.43 2937.44 2070.93 Q2935.75 2069.42 2932.75 2069.42 Q2929.71 2069.42 2928.02 2070.93 Q2926.36 2072.43 2926.36 2075.12 Z" fill="#000000" fill-rule="evenodd" fill-opacity="1" /><path clip-path="url(#clip610)" d="M2982.31 2085.7 Q2980.29 2085.7 2979.13 2087.41 Q2978 2089.12 2978 2092.18 Q2978 2095.19 2979.13 2096.92 Q2980.29 2098.64 2982.31 2098.64 Q2984.27 2098.64 2985.41 2096.92 Q2986.56 2095.19 2986.56 2092.18 Q2986.56 2089.15 2985.41 2087.43 Q2984.27 2085.7 2982.31 2085.7 M2982.31 2082.76 Q2985.96 2082.76 2988.12 2085.3 Q2990.27 2087.85 2990.27 2092.18 Q2990.27 2096.51 2988.09 2099.05 Q2985.94 2101.58 2982.31 2101.58 Q2978.6 2101.58 2976.45 2099.05 Q2974.3 2096.51 2974.3 2092.18 Q2974.3 2087.83 2976.45 2085.3 Q2978.62 2082.76 2982.31 2082.76 M2958.42 2068.66 Q2956.43 2068.66 2955.27 2070.4 Q2954.13 2072.11 2954.13 2075.12 Q2954.13 2078.17 2955.27 2079.89 Q2956.4 2081.6 2958.42 2081.6 Q2960.43 2081.6 2961.56 2079.89 Q2962.72 2078.17 2962.72 2075.12 Q2962.72 2072.13 2961.56 2070.4 Q2960.41 2068.66 2958.42 2068.66 M2979.32 2065.72 L2983.02 2065.72 L2961.4 2101.58 L2957.7 2101.58 L2979.32 2065.72 M2958.42 2065.72 Q2962.07 2065.72 2964.25 2068.27 Q2966.43 2070.79 2966.43 2075.12 Q2966.43 2079.49 2964.25 2082.02 Q2962.1 2084.54 2958.42 2084.54 Q2954.74 2084.54 2952.58 2082.02 Q2950.45 2079.47 2950.45 2075.12 Q2950.45 2070.81 2952.61 2068.27 Q2954.76 2065.72 2958.42 2065.72 Z" fill="#000000" fill-rule="evenodd" fill-opacity="1" /></svg>
