<?xml version="1.0" encoding="utf-8"?>
<svg xmlns="http://www.w3.org/2000/svg" xmlns:xlink="http://www.w3.org/1999/xlink" width="800" height="600" viewBox="0 0 3200 2400">
<defs>
  <clipPath id="clip610">
    <rect x="0" y="0" width="3200" height="2400"/>
  </clipPath>
</defs>
<path clip-path="url(#clip610)" d="M0 2400 L3200 2400 L3200 0 L0 0  Z" fill="#ffffff" fill-rule="evenodd" fill-opacity="1"/>
<defs>
  <clipPath id="clip611">
    <rect x="640" y="0" width="2241" height="2241"/>
  </clipPath>
</defs>
<path clip-path="url(#clip610)" d="M233.806 2204.92 L3152.76 2204.92 L3152.76 121.312 L233.806 121.312  Z" fill="#eaeaea" fill-rule="evenodd" fill-opacity="1"/>
<defs>
  <clipPath id="clip612">
    <rect x="233" y="121" width="2920" height="2085"/>
  </clipPath>
</defs>
<polyline clip-path="url(#clip612)" style="stroke:#ffffff; stroke-linecap:round; stroke-linejoin:round; stroke-width:4; stroke-opacity:1; fill:none" points="316.418,2204.92 316.418,121.312 "/>
<polyline clip-path="url(#clip612)" style="stroke:#ffffff; stroke-linecap:round; stroke-linejoin:round; stroke-width:4; stroke-opacity:1; fill:none" points="867.163,2204.92 867.163,121.312 "/>
<polyline clip-path="url(#clip612)" style="stroke:#ffffff; stroke-linecap:round; stroke-linejoin:round; stroke-width:4; stroke-opacity:1; fill:none" points="1417.91,2204.92 1417.91,121.312 "/>
<polyline clip-path="url(#clip612)" style="stroke:#ffffff; stroke-linecap:round; stroke-linejoin:round; stroke-width:4; stroke-opacity:1; fill:none" points="1968.65,2204.92 1968.65,121.312 "/>
<polyline clip-path="url(#clip612)" style="stroke:#ffffff; stroke-linecap:round; stroke-linejoin:round; stroke-width:4; stroke-opacity:1; fill:none" points="2519.4,2204.92 2519.4,121.312 "/>
<polyline clip-path="url(#clip612)" style="stroke:#ffffff; stroke-linecap:round; stroke-linejoin:round; stroke-width:4; stroke-opacity:1; fill:none" points="3070.14,2204.92 3070.14,121.312 "/>
<polyline clip-path="url(#clip612)" style="stroke:#ffffff; stroke-linecap:round; stroke-linejoin:round; stroke-width:2; stroke-opacity:1; fill:none" points="591.791,2204.92 591.791,121.312 "/>
<polyline clip-path="url(#clip612)" style="stroke:#ffffff; stroke-linecap:round; stroke-linejoin:round; stroke-width:2; stroke-opacity:1; fill:none" points="1142.54,2204.92 1142.54,121.312 "/>
<polyline clip-path="url(#clip612)" style="stroke:#ffffff; stroke-linecap:round; stroke-linejoin:round; stroke-width:2; stroke-opacity:1; fill:none" points="1693.28,2204.92 1693.28,121.312 "/>
<polyline clip-path="url(#clip612)" style="stroke:#ffffff; stroke-linecap:round; stroke-linejoin:round; stroke-width:2; stroke-opacity:1; fill:none" points="2244.03,2204.92 2244.03,121.312 "/>
<polyline clip-path="url(#clip612)" style="stroke:#ffffff; stroke-linecap:round; stroke-linejoin:round; stroke-width:2; stroke-opacity:1; fill:none" points="2794.77,2204.92 2794.77,121.312 "/>
<polyline clip-path="url(#clip610)" style="stroke:#ffffff; stroke-linecap:round; stroke-linejoin:round; stroke-width:4; stroke-opacity:1; fill:none" points="233.806,2204.92 3152.76,2204.92 "/>
<polyline clip-path="url(#clip610)" style="stroke:#333333; stroke-linecap:round; stroke-linejoin:round; stroke-width:4; stroke-opacity:1; fill:none" points="316.418,2204.92 316.418,2223.82 "/>
<polyline clip-path="url(#clip610)" style="stroke:#333333; stroke-linecap:round; stroke-linejoin:round; stroke-width:4; stroke-opacity:1; fill:none" points="867.163,2204.92 867.163,2223.82 "/>
<polyline clip-path="url(#clip610)" style="stroke:#333333; stroke-linecap:round; stroke-linejoin:round; stroke-width:4; stroke-opacity:1; fill:none" points="1417.91,2204.92 1417.91,2223.82 "/>
<polyline clip-path="url(#clip610)" style="stroke:#333333; stroke-linecap:round; stroke-linejoin:round; stroke-width:4; stroke-opacity:1; fill:none" points="1968.65,2204.92 1968.65,2223.82 "/>
<polyline clip-path="url(#clip610)" style="stroke:#333333; stroke-linecap:round; stroke-linejoin:round; stroke-width:4; stroke-opacity:1; fill:none" points="2519.4,2204.92 2519.4,2223.82 "/>
<polyline clip-path="url(#clip610)" style="stroke:#333333; stroke-linecap:round; stroke-linejoin:round; stroke-width:4; stroke-opacity:1; fill:none" points="3070.14,2204.92 3070.14,2223.82 "/>
<polyline clip-path="url(#clip610)" style="stroke:#333333; stroke-linecap:round; stroke-linejoin:round; stroke-width:4; stroke-opacity:1; fill:none" points="591.791,2204.92 591.791,2214.37 "/>
<polyline clip-path="url(#clip610)" style="stroke:#333333; stroke-linecap:round; stroke-linejoin:round; stroke-width:4; stroke-opacity:1; fill:none" points="1142.54,2204.92 1142.54,2214.37 "/>
<polyline clip-path="url(#clip610)" style="stroke:#333333; stroke-linecap:round; stroke-linejoin:round; stroke-width:4; stroke-opacity:1; fill:none" points="1693.28,2204.92 1693.28,2214.37 "/>
<polyline clip-path="url(#clip610)" style="stroke:#333333; stroke-linecap:round; stroke-linejoin:round; stroke-width:4; stroke-opacity:1; fill:none" points="2244.03,2204.92 2244.03,2214.37 "/>
<polyline clip-path="url(#clip610)" style="stroke:#333333; stroke-linecap:round; stroke-linejoin:round; stroke-width:4; stroke-opacity:1; fill:none" points="2794.77,2204.92 2794.77,2214.37 "/>
<path clip-path="url(#clip610)" d="M316.418 2255.04 Q312.807 2255.04 310.978 2258.6 Q309.173 2262.14 309.173 2269.27 Q309.173 2276.38 310.978 2279.95 Q312.807 2283.49 316.418 2283.49 Q320.052 2283.49 321.858 2279.95 Q323.687 2276.38 323.687 2269.27 Q323.687 2262.14 321.858 2258.6 Q320.052 2255.04 316.418 2255.04 M316.418 2251.33 Q322.228 2251.33 325.284 2255.94 Q328.362 2260.52 328.362 2269.27 Q328.362 2278 325.284 2282.61 Q322.228 2287.19 316.418 2287.19 Q310.608 2287.19 307.529 2282.61 Q304.474 2278 304.474 2269.27 Q304.474 2260.52 307.529 2255.94 Q310.608 2251.33 316.418 2251.33 Z" fill="#4c4c4c" fill-rule="nonzero" fill-opacity="1" /><path clip-path="url(#clip610)" d="M857.545 2282.58 L865.184 2282.58 L865.184 2256.22 L856.874 2257.89 L856.874 2253.63 L865.138 2251.96 L869.814 2251.96 L869.814 2282.58 L877.453 2282.58 L877.453 2286.52 L857.545 2286.52 L857.545 2282.58 Z" fill="#4c4c4c" fill-rule="nonzero" fill-opacity="1" /><path clip-path="url(#clip610)" d="M1412.56 2282.58 L1428.88 2282.58 L1428.88 2286.52 L1406.94 2286.52 L1406.94 2282.58 Q1409.6 2279.83 1414.18 2275.2 Q1418.79 2270.55 1419.97 2269.21 Q1422.21 2266.68 1423.09 2264.95 Q1424 2263.19 1424 2261.5 Q1424 2258.74 1422.05 2257.01 Q1420.13 2255.27 1417.03 2255.27 Q1414.83 2255.27 1412.38 2256.03 Q1409.95 2256.8 1407.17 2258.35 L1407.17 2253.63 Q1409.99 2252.49 1412.45 2251.91 Q1414.9 2251.33 1416.94 2251.33 Q1422.31 2251.33 1425.5 2254.02 Q1428.7 2256.71 1428.7 2261.2 Q1428.7 2263.33 1427.89 2265.25 Q1427.1 2267.14 1424.99 2269.74 Q1424.41 2270.41 1421.31 2273.63 Q1418.21 2276.82 1412.56 2282.58 Z" fill="#4c4c4c" fill-rule="nonzero" fill-opacity="1" /><path clip-path="url(#clip610)" d="M1972.9 2267.89 Q1976.26 2268.6 1978.13 2270.87 Q1980.03 2273.14 1980.03 2276.47 Q1980.03 2281.59 1976.51 2284.39 Q1972.99 2287.19 1966.51 2287.19 Q1964.34 2287.19 1962.02 2286.75 Q1959.73 2286.33 1957.28 2285.48 L1957.28 2280.96 Q1959.22 2282.1 1961.54 2282.68 Q1963.85 2283.26 1966.37 2283.26 Q1970.77 2283.26 1973.06 2281.52 Q1975.38 2279.78 1975.38 2276.47 Q1975.38 2273.42 1973.23 2271.71 Q1971.1 2269.97 1967.28 2269.97 L1963.25 2269.97 L1963.25 2266.13 L1967.46 2266.13 Q1970.91 2266.13 1972.74 2264.76 Q1974.57 2263.37 1974.57 2260.78 Q1974.57 2258.12 1972.67 2256.71 Q1970.79 2255.27 1967.28 2255.27 Q1965.36 2255.27 1963.16 2255.69 Q1960.96 2256.1 1958.32 2256.98 L1958.32 2252.82 Q1960.98 2252.08 1963.29 2251.71 Q1965.63 2251.33 1967.69 2251.33 Q1973.02 2251.33 1976.12 2253.77 Q1979.22 2256.17 1979.22 2260.29 Q1979.22 2263.16 1977.58 2265.15 Q1975.93 2267.12 1972.9 2267.89 Z" fill="#4c4c4c" fill-rule="nonzero" fill-opacity="1" /><path clip-path="url(#clip610)" d="M2522.41 2256.03 L2510.6 2274.48 L2522.41 2274.48 L2522.41 2256.03 M2521.18 2251.96 L2527.06 2251.96 L2527.06 2274.48 L2531.99 2274.48 L2531.99 2278.37 L2527.06 2278.37 L2527.06 2286.52 L2522.41 2286.52 L2522.41 2278.37 L2506.81 2278.37 L2506.81 2273.86 L2521.18 2251.96 Z" fill="#4c4c4c" fill-rule="nonzero" fill-opacity="1" /><path clip-path="url(#clip610)" d="M3060.42 2251.96 L3078.78 2251.96 L3078.78 2255.9 L3064.7 2255.9 L3064.7 2264.37 Q3065.72 2264.02 3066.74 2263.86 Q3067.76 2263.67 3068.78 2263.67 Q3074.57 2263.67 3077.95 2266.84 Q3081.32 2270.02 3081.32 2275.43 Q3081.32 2281.01 3077.85 2284.11 Q3074.38 2287.19 3068.06 2287.19 Q3065.88 2287.19 3063.62 2286.82 Q3061.37 2286.45 3058.96 2285.71 L3058.96 2281.01 Q3061.05 2282.14 3063.27 2282.7 Q3065.49 2283.26 3067.97 2283.26 Q3071.97 2283.26 3074.31 2281.15 Q3076.65 2279.04 3076.65 2275.43 Q3076.65 2271.82 3074.31 2269.71 Q3071.97 2267.61 3067.97 2267.61 Q3066.09 2267.61 3064.22 2268.02 Q3062.37 2268.44 3060.42 2269.32 L3060.42 2251.96 Z" fill="#4c4c4c" fill-rule="nonzero" fill-opacity="1" /><path clip-path="url(#clip610)" d="M1692.34 2316.01 L1692.34 2326.14 L1704.41 2326.14 L1704.41 2330.69 L1692.34 2330.69 L1692.34 2350.04 Q1692.34 2354.4 1693.52 2355.64 Q1694.73 2356.88 1698.39 2356.88 L1704.41 2356.88 L1704.41 2361.78 L1698.39 2361.78 Q1691.61 2361.78 1689.03 2359.27 Q1686.45 2356.72 1686.45 2350.04 L1686.45 2330.69 L1682.16 2330.69 L1682.16 2326.14 L1686.45 2326.14 L1686.45 2316.01 L1692.34 2316.01 Z" fill="#000000" fill-rule="nonzero" fill-opacity="1" /><polyline clip-path="url(#clip612)" style="stroke:#ffffff; stroke-linecap:round; stroke-linejoin:round; stroke-width:4; stroke-opacity:1; fill:none" points="233.806,2151.32 3152.76,2151.32 "/>
<polyline clip-path="url(#clip612)" style="stroke:#ffffff; stroke-linecap:round; stroke-linejoin:round; stroke-width:4; stroke-opacity:1; fill:none" points="233.806,1854.99 3152.76,1854.99 "/>
<polyline clip-path="url(#clip612)" style="stroke:#ffffff; stroke-linecap:round; stroke-linejoin:round; stroke-width:4; stroke-opacity:1; fill:none" points="233.806,1558.65 3152.76,1558.65 "/>
<polyline clip-path="url(#clip612)" style="stroke:#ffffff; stroke-linecap:round; stroke-linejoin:round; stroke-width:4; stroke-opacity:1; fill:none" points="233.806,1262.32 3152.76,1262.32 "/>
<polyline clip-path="url(#clip612)" style="stroke:#ffffff; stroke-linecap:round; stroke-linejoin:round; stroke-width:4; stroke-opacity:1; fill:none" points="233.806,965.985 3152.76,965.985 "/>
<polyline clip-path="url(#clip612)" style="stroke:#ffffff; stroke-linecap:round; stroke-linejoin:round; stroke-width:4; stroke-opacity:1; fill:none" points="233.806,669.651 3152.76,669.651 "/>
<polyline clip-path="url(#clip612)" style="stroke:#ffffff; stroke-linecap:round; stroke-linejoin:round; stroke-width:4; stroke-opacity:1; fill:none" points="233.806,373.317 3152.76,373.317 "/>
<polyline clip-path="url(#clip612)" style="stroke:#ffffff; stroke-linecap:round; stroke-linejoin:round; stroke-width:2; stroke-opacity:1; fill:none" points="233.806,2003.15 3152.76,2003.15 "/>
<polyline clip-path="url(#clip612)" style="stroke:#ffffff; stroke-linecap:round; stroke-linejoin:round; stroke-width:2; stroke-opacity:1; fill:none" points="233.806,1706.82 3152.76,1706.82 "/>
<polyline clip-path="url(#clip612)" style="stroke:#ffffff; stroke-linecap:round; stroke-linejoin:round; stroke-width:2; stroke-opacity:1; fill:none" points="233.806,1410.49 3152.76,1410.49 "/>
<polyline clip-path="url(#clip612)" style="stroke:#ffffff; stroke-linecap:round; stroke-linejoin:round; stroke-width:2; stroke-opacity:1; fill:none" points="233.806,1114.15 3152.76,1114.15 "/>
<polyline clip-path="url(#clip612)" style="stroke:#ffffff; stroke-linecap:round; stroke-linejoin:round; stroke-width:2; stroke-opacity:1; fill:none" points="233.806,817.818 3152.76,817.818 "/>
<polyline clip-path="url(#clip612)" style="stroke:#ffffff; stroke-linecap:round; stroke-linejoin:round; stroke-width:2; stroke-opacity:1; fill:none" points="233.806,521.484 3152.76,521.484 "/>
<polyline clip-path="url(#clip612)" style="stroke:#ffffff; stroke-linecap:round; stroke-linejoin:round; stroke-width:2; stroke-opacity:1; fill:none" points="233.806,225.15 3152.76,225.15 "/>
<polyline clip-path="url(#clip610)" style="stroke:#ffffff; stroke-linecap:round; stroke-linejoin:round; stroke-width:4; stroke-opacity:1; fill:none" points="233.806,2204.92 233.806,121.312 "/>
<polyline clip-path="url(#clip610)" style="stroke:#333333; stroke-linecap:round; stroke-linejoin:round; stroke-width:4; stroke-opacity:1; fill:none" points="233.806,2151.32 214.909,2151.32 "/>
<polyline clip-path="url(#clip610)" style="stroke:#333333; stroke-linecap:round; stroke-linejoin:round; stroke-width:4; stroke-opacity:1; fill:none" points="233.806,1854.99 214.909,1854.99 "/>
<polyline clip-path="url(#clip610)" style="stroke:#333333; stroke-linecap:round; stroke-linejoin:round; stroke-width:4; stroke-opacity:1; fill:none" points="233.806,1558.65 214.909,1558.65 "/>
<polyline clip-path="url(#clip610)" style="stroke:#333333; stroke-linecap:round; stroke-linejoin:round; stroke-width:4; stroke-opacity:1; fill:none" points="233.806,1262.32 214.909,1262.32 "/>
<polyline clip-path="url(#clip610)" style="stroke:#333333; stroke-linecap:round; stroke-linejoin:round; stroke-width:4; stroke-opacity:1; fill:none" points="233.806,965.985 214.909,965.985 "/>
<polyline clip-path="url(#clip610)" style="stroke:#333333; stroke-linecap:round; stroke-linejoin:round; stroke-width:4; stroke-opacity:1; fill:none" points="233.806,669.651 214.909,669.651 "/>
<polyline clip-path="url(#clip610)" style="stroke:#333333; stroke-linecap:round; stroke-linejoin:round; stroke-width:4; stroke-opacity:1; fill:none" points="233.806,373.317 214.909,373.317 "/>
<polyline clip-path="url(#clip610)" style="stroke:#333333; stroke-linecap:round; stroke-linejoin:round; stroke-width:4; stroke-opacity:1; fill:none" points="233.806,2003.15 224.357,2003.15 "/>
<polyline clip-path="url(#clip610)" style="stroke:#333333; stroke-linecap:round; stroke-linejoin:round; stroke-width:4; stroke-opacity:1; fill:none" points="233.806,1706.82 224.357,1706.82 "/>
<polyline clip-path="url(#clip610)" style="stroke:#333333; stroke-linecap:round; stroke-linejoin:round; stroke-width:4; stroke-opacity:1; fill:none" points="233.806,1410.49 224.357,1410.49 "/>
<polyline clip-path="url(#clip610)" style="stroke:#333333; stroke-linecap:round; stroke-linejoin:round; stroke-width:4; stroke-opacity:1; fill:none" points="233.806,1114.15 224.357,1114.15 "/>
<polyline clip-path="url(#clip610)" style="stroke:#333333; stroke-linecap:round; stroke-linejoin:round; stroke-width:4; stroke-opacity:1; fill:none" points="233.806,817.818 224.357,817.818 "/>
<polyline clip-path="url(#clip610)" style="stroke:#333333; stroke-linecap:round; stroke-linejoin:round; stroke-width:4; stroke-opacity:1; fill:none" points="233.806,521.484 224.357,521.484 "/>
<polyline clip-path="url(#clip610)" style="stroke:#333333; stroke-linecap:round; stroke-linejoin:round; stroke-width:4; stroke-opacity:1; fill:none" points="233.806,225.15 224.357,225.15 "/>
<path clip-path="url(#clip610)" d="M106.228 2137.12 Q102.617 2137.12 100.788 2140.68 Q98.9825 2144.23 98.9825 2151.35 Q98.9825 2158.46 100.788 2162.03 Q102.617 2165.57 106.228 2165.57 Q109.862 2165.57 111.668 2162.03 Q113.496 2158.46 113.496 2151.35 Q113.496 2144.23 111.668 2140.68 Q109.862 2137.12 106.228 2137.12 M106.228 2133.41 Q112.038 2133.41 115.094 2138.02 Q118.172 2142.6 118.172 2151.35 Q118.172 2160.08 115.094 2164.69 Q112.038 2169.27 106.228 2169.27 Q100.418 2169.27 97.339 2164.69 Q94.2835 2160.08 94.2835 2151.35 Q94.2835 2142.6 97.339 2138.02 Q100.418 2133.41 106.228 2133.41 Z" fill="#4c4c4c" fill-rule="nonzero" fill-opacity="1" /><path clip-path="url(#clip610)" d="M126.39 2162.72 L131.274 2162.72 L131.274 2168.6 L126.39 2168.6 L126.39 2162.72 Z" fill="#4c4c4c" fill-rule="nonzero" fill-opacity="1" /><path clip-path="url(#clip610)" d="M145.487 2164.66 L161.806 2164.66 L161.806 2168.6 L139.862 2168.6 L139.862 2164.66 Q142.524 2161.91 147.107 2157.28 Q151.714 2152.63 152.894 2151.29 Q155.14 2148.76 156.019 2147.03 Q156.922 2145.27 156.922 2143.58 Q156.922 2140.82 154.978 2139.09 Q153.056 2137.35 149.954 2137.35 Q147.755 2137.35 145.302 2138.11 Q142.871 2138.88 140.093 2140.43 L140.093 2135.71 Q142.917 2134.57 145.371 2133.99 Q147.825 2133.41 149.862 2133.41 Q155.232 2133.41 158.427 2136.1 Q161.621 2138.79 161.621 2143.28 Q161.621 2145.41 160.811 2147.33 Q160.024 2149.23 157.917 2151.82 Q157.339 2152.49 154.237 2155.71 Q151.135 2158.9 145.487 2164.66 Z" fill="#4c4c4c" fill-rule="nonzero" fill-opacity="1" /><path clip-path="url(#clip610)" d="M104.145 1840.78 Q100.533 1840.78 98.7048 1844.35 Q96.8992 1847.89 96.8992 1855.02 Q96.8992 1862.13 98.7048 1865.69 Q100.533 1869.23 104.145 1869.23 Q107.779 1869.23 109.584 1865.69 Q111.413 1862.13 111.413 1855.02 Q111.413 1847.89 109.584 1844.35 Q107.779 1840.78 104.145 1840.78 M104.145 1837.08 Q109.955 1837.08 113.01 1841.69 Q116.089 1846.27 116.089 1855.02 Q116.089 1863.75 113.01 1868.35 Q109.955 1872.94 104.145 1872.94 Q98.3344 1872.94 95.2557 1868.35 Q92.2002 1863.75 92.2002 1855.02 Q92.2002 1846.27 95.2557 1841.69 Q98.3344 1837.08 104.145 1837.08 Z" fill="#4c4c4c" fill-rule="nonzero" fill-opacity="1" /><path clip-path="url(#clip610)" d="M124.306 1866.39 L129.191 1866.39 L129.191 1872.27 L124.306 1872.27 L124.306 1866.39 Z" fill="#4c4c4c" fill-rule="nonzero" fill-opacity="1" /><path clip-path="url(#clip610)" d="M152.223 1841.78 L140.417 1860.23 L152.223 1860.23 L152.223 1841.78 M150.996 1837.71 L156.876 1837.71 L156.876 1860.23 L161.806 1860.23 L161.806 1864.12 L156.876 1864.12 L156.876 1872.27 L152.223 1872.27 L152.223 1864.12 L136.621 1864.12 L136.621 1859.6 L150.996 1837.71 Z" fill="#4c4c4c" fill-rule="nonzero" fill-opacity="1" /><path clip-path="url(#clip610)" d="M104.469 1544.45 Q100.858 1544.45 99.0288 1548.02 Q97.2233 1551.56 97.2233 1558.69 Q97.2233 1565.79 99.0288 1569.36 Q100.858 1572.9 104.469 1572.9 Q108.103 1572.9 109.908 1569.36 Q111.737 1565.79 111.737 1558.69 Q111.737 1551.56 109.908 1548.02 Q108.103 1544.45 104.469 1544.45 M104.469 1540.75 Q110.279 1540.75 113.334 1545.35 Q116.413 1549.94 116.413 1558.69 Q116.413 1567.41 113.334 1572.02 Q110.279 1576.6 104.469 1576.6 Q98.6585 1576.6 95.5798 1572.02 Q92.5242 1567.41 92.5242 1558.69 Q92.5242 1549.94 95.5798 1545.35 Q98.6585 1540.75 104.469 1540.75 Z" fill="#4c4c4c" fill-rule="nonzero" fill-opacity="1" /><path clip-path="url(#clip610)" d="M124.631 1570.05 L129.515 1570.05 L129.515 1575.93 L124.631 1575.93 L124.631 1570.05 Z" fill="#4c4c4c" fill-rule="nonzero" fill-opacity="1" /><path clip-path="url(#clip610)" d="M150.279 1556.79 Q147.13 1556.79 145.279 1558.94 Q143.45 1561.09 143.45 1564.84 Q143.45 1568.57 145.279 1570.75 Q147.13 1572.9 150.279 1572.9 Q153.427 1572.9 155.255 1570.75 Q157.107 1568.57 157.107 1564.84 Q157.107 1561.09 155.255 1558.94 Q153.427 1556.79 150.279 1556.79 M159.561 1542.14 L159.561 1546.4 Q157.802 1545.56 155.996 1545.12 Q154.214 1544.68 152.454 1544.68 Q147.825 1544.68 145.371 1547.81 Q142.941 1550.93 142.593 1557.25 Q143.959 1555.24 146.019 1554.17 Q148.079 1553.09 150.556 1553.09 Q155.765 1553.09 158.774 1556.26 Q161.806 1559.4 161.806 1564.84 Q161.806 1570.17 158.658 1573.39 Q155.51 1576.6 150.279 1576.6 Q144.283 1576.6 141.112 1572.02 Q137.941 1567.41 137.941 1558.69 Q137.941 1550.49 141.83 1545.63 Q145.718 1540.75 152.269 1540.75 Q154.029 1540.75 155.811 1541.09 Q157.616 1541.44 159.561 1542.14 Z" fill="#4c4c4c" fill-rule="nonzero" fill-opacity="1" /><path clip-path="url(#clip610)" d="M104.723 1248.12 Q101.112 1248.12 99.2835 1251.68 Q97.4779 1255.22 97.4779 1262.35 Q97.4779 1269.46 99.2835 1273.02 Q101.112 1276.57 104.723 1276.57 Q108.357 1276.57 110.163 1273.02 Q111.992 1269.46 111.992 1262.35 Q111.992 1255.22 110.163 1251.68 Q108.357 1248.12 104.723 1248.12 M104.723 1244.41 Q110.533 1244.41 113.589 1249.02 Q116.668 1253.6 116.668 1262.35 Q116.668 1271.08 113.589 1275.69 Q110.533 1280.27 104.723 1280.27 Q98.9131 1280.27 95.8344 1275.69 Q92.7789 1271.08 92.7789 1262.35 Q92.7789 1253.6 95.8344 1249.02 Q98.9131 1244.41 104.723 1244.41 Z" fill="#4c4c4c" fill-rule="nonzero" fill-opacity="1" /><path clip-path="url(#clip610)" d="M124.885 1273.72 L129.769 1273.72 L129.769 1279.6 L124.885 1279.6 L124.885 1273.72 Z" fill="#4c4c4c" fill-rule="nonzero" fill-opacity="1" /><path clip-path="url(#clip610)" d="M149.954 1263.19 Q146.621 1263.19 144.7 1264.97 Q142.802 1266.75 142.802 1269.88 Q142.802 1273 144.7 1274.78 Q146.621 1276.57 149.954 1276.57 Q153.288 1276.57 155.209 1274.78 Q157.13 1272.98 157.13 1269.88 Q157.13 1266.75 155.209 1264.97 Q153.311 1263.19 149.954 1263.19 M145.279 1261.2 Q142.269 1260.46 140.58 1258.39 Q138.913 1256.33 138.913 1253.37 Q138.913 1249.23 141.853 1246.82 Q144.816 1244.41 149.954 1244.41 Q155.116 1244.41 158.056 1246.82 Q160.996 1249.23 160.996 1253.37 Q160.996 1256.33 159.306 1258.39 Q157.64 1260.46 154.654 1261.2 Q158.033 1261.98 159.908 1264.27 Q161.806 1266.57 161.806 1269.88 Q161.806 1274.9 158.728 1277.58 Q155.672 1280.27 149.954 1280.27 Q144.237 1280.27 141.158 1277.58 Q138.103 1274.9 138.103 1269.88 Q138.103 1266.57 140.001 1264.27 Q141.899 1261.98 145.279 1261.2 M143.566 1253.81 Q143.566 1256.5 145.232 1258 Q146.922 1259.51 149.954 1259.51 Q152.964 1259.51 154.654 1258 Q156.366 1256.5 156.366 1253.81 Q156.366 1251.13 154.654 1249.62 Q152.964 1248.12 149.954 1248.12 Q146.922 1248.12 145.232 1249.62 Q143.566 1251.13 143.566 1253.81 Z" fill="#4c4c4c" fill-rule="nonzero" fill-opacity="1" /><path clip-path="url(#clip610)" d="M95.4409 979.33 L103.08 979.33 L103.08 952.964 L94.7696 954.631 L94.7696 950.371 L103.033 948.705 L107.709 948.705 L107.709 979.33 L115.348 979.33 L115.348 983.265 L95.4409 983.265 L95.4409 979.33 Z" fill="#4c4c4c" fill-rule="nonzero" fill-opacity="1" /><path clip-path="url(#clip610)" d="M124.793 977.385 L129.677 977.385 L129.677 983.265 L124.793 983.265 L124.793 977.385 Z" fill="#4c4c4c" fill-rule="nonzero" fill-opacity="1" /><path clip-path="url(#clip610)" d="M149.862 951.783 Q146.251 951.783 144.422 955.348 Q142.617 958.89 142.617 966.019 Q142.617 973.126 144.422 976.691 Q146.251 980.232 149.862 980.232 Q153.496 980.232 155.302 976.691 Q157.13 973.126 157.13 966.019 Q157.13 958.89 155.302 955.348 Q153.496 951.783 149.862 951.783 M149.862 948.08 Q155.672 948.08 158.728 952.686 Q161.806 957.27 161.806 966.019 Q161.806 974.746 158.728 979.353 Q155.672 983.936 149.862 983.936 Q144.052 983.936 140.973 979.353 Q137.918 974.746 137.918 966.019 Q137.918 957.27 140.973 952.686 Q144.052 948.08 149.862 948.08 Z" fill="#4c4c4c" fill-rule="nonzero" fill-opacity="1" /><path clip-path="url(#clip610)" d="M97.0381 682.996 L104.677 682.996 L104.677 656.63 L96.3668 658.297 L96.3668 654.038 L104.631 652.371 L109.307 652.371 L109.307 682.996 L116.945 682.996 L116.945 686.931 L97.0381 686.931 L97.0381 682.996 Z" fill="#4c4c4c" fill-rule="nonzero" fill-opacity="1" /><path clip-path="url(#clip610)" d="M126.39 681.051 L131.274 681.051 L131.274 686.931 L126.39 686.931 L126.39 681.051 Z" fill="#4c4c4c" fill-rule="nonzero" fill-opacity="1" /><path clip-path="url(#clip610)" d="M145.487 682.996 L161.806 682.996 L161.806 686.931 L139.862 686.931 L139.862 682.996 Q142.524 680.241 147.107 675.612 Q151.714 670.959 152.894 669.616 Q155.14 667.093 156.019 665.357 Q156.922 663.598 156.922 661.908 Q156.922 659.153 154.978 657.417 Q153.056 655.681 149.954 655.681 Q147.755 655.681 145.302 656.445 Q142.871 657.209 140.093 658.76 L140.093 654.038 Q142.917 652.903 145.371 652.325 Q147.825 651.746 149.862 651.746 Q155.232 651.746 158.427 654.431 Q161.621 657.116 161.621 661.607 Q161.621 663.737 160.811 665.658 Q160.024 667.556 157.917 670.149 Q157.339 670.82 154.237 674.038 Q151.135 677.232 145.487 682.996 Z" fill="#4c4c4c" fill-rule="nonzero" fill-opacity="1" /><path clip-path="url(#clip610)" d="M94.9548 386.662 L102.594 386.662 L102.594 360.296 L94.2835 361.963 L94.2835 357.704 L102.547 356.037 L107.223 356.037 L107.223 386.662 L114.862 386.662 L114.862 390.597 L94.9548 390.597 L94.9548 386.662 Z" fill="#4c4c4c" fill-rule="nonzero" fill-opacity="1" /><path clip-path="url(#clip610)" d="M124.306 384.718 L129.191 384.718 L129.191 390.597 L124.306 390.597 L124.306 384.718 Z" fill="#4c4c4c" fill-rule="nonzero" fill-opacity="1" /><path clip-path="url(#clip610)" d="M152.223 360.111 L140.417 378.56 L152.223 378.56 L152.223 360.111 M150.996 356.037 L156.876 356.037 L156.876 378.56 L161.806 378.56 L161.806 382.449 L156.876 382.449 L156.876 390.597 L152.223 390.597 L152.223 382.449 L136.621 382.449 L136.621 377.935 L150.996 356.037 Z" fill="#4c4c4c" fill-rule="nonzero" fill-opacity="1" /><path clip-path="url(#clip610)" d="M48.597 1321.32 L67.5031 1321.32 L67.5031 1327.21 L18.2962 1327.21 L18.2962 1321.32 L23.7071 1321.32 Q20.5242 1319.47 18.9964 1316.67 Q17.4368 1313.84 17.4368 1309.93 Q17.4368 1303.43 22.5931 1299.39 Q27.7493 1295.32 36.152 1295.32 Q44.5547 1295.32 49.711 1299.39 Q54.8672 1303.43 54.8672 1309.93 Q54.8672 1313.84 53.3394 1316.67 Q51.7798 1319.47 48.597 1321.32 M36.152 1301.4 Q29.6908 1301.4 26.0305 1304.07 Q22.3384 1306.71 22.3384 1311.36 Q22.3384 1316 26.0305 1318.68 Q29.6908 1321.32 36.152 1321.32 Q42.6132 1321.32 46.3053 1318.68 Q49.9656 1316 49.9656 1311.36 Q49.9656 1306.71 46.3053 1304.07 Q42.6132 1301.4 36.152 1301.4 Z" fill="#000000" fill-rule="nonzero" fill-opacity="1" /><path clip-path="url(#clip610)" d="M22.4021 1271.79 Q22.4021 1276.51 26.0942 1279.24 Q29.7545 1281.98 36.152 1281.98 Q42.5495 1281.98 46.2417 1279.27 Q49.9019 1276.54 49.9019 1271.79 Q49.9019 1267.12 46.2098 1264.38 Q42.5177 1261.64 36.152 1261.64 Q29.8181 1261.64 26.126 1264.38 Q22.4021 1267.12 22.4021 1271.79 M17.4368 1271.79 Q17.4368 1264.16 22.4021 1259.8 Q27.3673 1255.43 36.152 1255.43 Q44.9049 1255.43 49.9019 1259.8 Q54.8672 1264.16 54.8672 1271.79 Q54.8672 1279.47 49.9019 1283.83 Q44.9049 1288.15 36.152 1288.15 Q27.3673 1288.15 22.4021 1283.83 Q17.4368 1279.47 17.4368 1271.79 Z" fill="#000000" fill-rule="nonzero" fill-opacity="1" /><path clip-path="url(#clip610)" d="M48.597 1240.06 L67.5031 1240.06 L67.5031 1245.95 L18.2962 1245.95 L18.2962 1240.06 L23.7071 1240.06 Q20.5242 1238.22 18.9964 1235.41 Q17.4368 1232.58 17.4368 1228.67 Q17.4368 1222.17 22.5931 1218.13 Q27.7493 1214.06 36.152 1214.06 Q44.5547 1214.06 49.711 1218.13 Q54.8672 1222.17 54.8672 1228.67 Q54.8672 1232.58 53.3394 1235.41 Q51.7798 1238.22 48.597 1240.06 M36.152 1220.14 Q29.6908 1220.14 26.0305 1222.81 Q22.3384 1225.45 22.3384 1230.1 Q22.3384 1234.75 26.0305 1237.42 Q29.6908 1240.06 36.152 1240.06 Q42.6132 1240.06 46.3053 1237.42 Q49.9656 1234.75 49.9656 1230.1 Q49.9656 1225.45 46.3053 1222.81 Q42.6132 1220.14 36.152 1220.14 Z" fill="#000000" fill-rule="nonzero" fill-opacity="1" /><path clip-path="url(#clip610)" d="M39.8759 1204.95 L18.2962 1204.95 L18.2962 1199.1 L39.6531 1199.1 Q44.7139 1199.1 47.2602 1197.12 Q49.7746 1195.15 49.7746 1191.2 Q49.7746 1186.46 46.7509 1183.72 Q43.7272 1180.96 38.5073 1180.96 L18.2962 1180.96 L18.2962 1175.1 L53.9442 1175.1 L53.9442 1180.96 L48.4696 1180.96 Q51.7162 1183.09 53.3076 1185.92 Q54.8672 1188.72 54.8672 1192.45 Q54.8672 1198.59 51.0478 1201.77 Q47.2283 1204.95 39.8759 1204.95 M17.4368 1190.22 L17.4368 1190.22 Z" fill="#000000" fill-rule="nonzero" fill-opacity="1" /><path clip-path="url(#clip610)" d="M4.41896 1163.04 L4.41896 1157.18 L53.9442 1157.18 L53.9442 1163.04 L4.41896 1163.04 Z" fill="#000000" fill-rule="nonzero" fill-opacity="1" /><path clip-path="url(#clip610)" d="M36.0247 1128.73 Q36.0247 1135.82 37.6479 1138.56 Q39.2712 1141.3 43.1861 1141.3 Q46.3053 1141.3 48.1514 1139.26 Q49.9656 1137.19 49.9656 1133.66 Q49.9656 1128.79 46.5281 1125.86 Q43.0588 1122.9 37.3297 1122.9 L36.0247 1122.9 L36.0247 1128.73 M33.6057 1117.04 L53.9442 1117.04 L53.9442 1122.9 L48.5333 1122.9 Q51.7798 1124.91 53.3394 1127.9 Q54.8672 1130.89 54.8672 1135.22 Q54.8672 1140.69 51.8116 1143.94 Q48.7243 1147.15 43.5681 1147.15 Q37.5525 1147.15 34.4969 1143.14 Q31.4414 1139.1 31.4414 1131.11 L31.4414 1122.9 L30.8685 1122.9 Q26.8262 1122.9 24.6301 1125.57 Q22.4021 1128.22 22.4021 1133.02 Q22.4021 1136.08 23.1341 1138.97 Q23.8662 1141.87 25.3303 1144.54 L19.9195 1144.54 Q18.6781 1141.33 18.0734 1138.31 Q17.4368 1135.28 17.4368 1132.42 Q17.4368 1124.68 21.4472 1120.86 Q25.4576 1117.04 33.6057 1117.04 Z" fill="#000000" fill-rule="nonzero" fill-opacity="1" /><path clip-path="url(#clip610)" d="M19.6648 1079.33 L25.1393 1079.33 Q23.7707 1081.81 23.1023 1084.32 Q22.4021 1086.81 22.4021 1089.35 Q22.4021 1095.05 26.0305 1098.2 Q29.6272 1101.35 36.152 1101.35 Q42.6769 1101.35 46.3053 1098.2 Q49.9019 1095.05 49.9019 1089.35 Q49.9019 1086.81 49.2335 1084.32 Q48.5333 1081.81 47.1647 1079.33 L52.5755 1079.33 Q53.7214 1081.78 54.2943 1084.42 Q54.8672 1087.03 54.8672 1089.99 Q54.8672 1098.04 49.8064 1102.78 Q44.7457 1107.53 36.152 1107.53 Q27.431 1107.53 22.4339 1102.75 Q17.4368 1097.95 17.4368 1089.61 Q17.4368 1086.9 18.0097 1084.32 Q18.5508 1081.75 19.6648 1079.33 M53.9442 1087.6 Q55.9175 1085.85 57.5726 1084.99 Q59.2595 1084.13 60.7873 1084.13 Q63.62 1084.13 65.0523 1086.04 Q66.5164 1087.95 66.5164 1091.71 Q66.5164 1093.17 66.3255 1094.57 Q66.1345 1095.94 65.7525 1097.31 L61.583 1097.31 Q62.1241 1096.23 62.3469 1095.05 Q62.6015 1093.87 62.6015 1092.38 Q62.6015 1090.5 61.8376 1089.54 Q61.0737 1088.59 59.6096 1088.59 Q58.6548 1088.59 57.2543 1089.29 Q55.8857 1089.96 53.9442 1091.39 L53.9442 1087.6 Z" fill="#000000" fill-rule="nonzero" fill-opacity="1" /><path clip-path="url(#clip610)" d="M36.0247 1052.94 Q36.0247 1060.04 37.6479 1062.78 Q39.2712 1065.51 43.1861 1065.51 Q46.3053 1065.51 48.1514 1063.48 Q49.9656 1061.41 49.9656 1057.87 Q49.9656 1053.01 46.5281 1050.08 Q43.0588 1047.12 37.3297 1047.12 L36.0247 1047.12 L36.0247 1052.94 M33.6057 1041.26 L53.9442 1041.26 L53.9442 1047.12 L48.5333 1047.12 Q51.7798 1049.12 53.3394 1052.11 Q54.8672 1055.11 54.8672 1059.43 Q54.8672 1064.91 51.8116 1068.16 Q48.7243 1071.37 43.5681 1071.37 Q37.5525 1071.37 34.4969 1067.36 Q31.4414 1063.32 31.4414 1055.33 L31.4414 1047.12 L30.8685 1047.12 Q26.8262 1047.12 24.6301 1049.79 Q22.4021 1052.43 22.4021 1057.24 Q22.4021 1060.29 23.1341 1063.19 Q23.8662 1066.09 25.3303 1068.76 L19.9195 1068.76 Q18.6781 1065.55 18.0734 1062.52 Q17.4368 1059.5 17.4368 1056.63 Q17.4368 1048.9 21.4472 1045.08 Q25.4576 1041.26 33.6057 1041.26 M10.3391 1056.51 L8.5885 1058.32 Q7.95193 1059.02 7.66547 1059.56 Q7.34718 1060.07 7.34718 1060.48 Q7.34718 1061.69 8.52484 1062.27 Q9.67067 1062.84 12.2806 1062.9 L12.2806 1066.88 Q7.98376 1066.82 5.66027 1065.2 Q3.30496 1063.57 3.30496 1060.68 Q3.30496 1059.47 3.75056 1058.45 Q4.19616 1057.43 5.2465 1056.25 L6.99707 1054.44 Q7.63364 1053.74 7.95193 1053.23 Q8.23838 1052.69 8.23838 1052.27 Q8.23838 1051.06 7.09256 1050.49 Q5.9149 1049.92 3.30496 1049.85 L3.30496 1045.88 Q7.60181 1045.94 9.95712 1047.56 Q12.2806 1049.19 12.2806 1052.08 Q12.2806 1053.29 11.835 1054.31 Q11.3894 1055.33 10.3391 1056.51 Z" fill="#000000" fill-rule="nonzero" fill-opacity="1" /><path clip-path="url(#clip610)" d="M22.4021 1015.38 Q22.4021 1020.09 26.0942 1022.83 Q29.7545 1025.57 36.152 1025.57 Q42.5495 1025.57 46.2417 1022.86 Q49.9019 1020.13 49.9019 1015.38 Q49.9019 1010.71 46.2098 1007.97 Q42.5177 1005.23 36.152 1005.23 Q29.8181 1005.23 26.126 1007.97 Q22.4021 1010.71 22.4021 1015.38 M17.4368 1015.38 Q17.4368 1007.74 22.4021 1003.38 Q27.3673 999.024 36.152 999.024 Q44.9049 999.024 49.9019 1003.38 Q54.8672 1007.74 54.8672 1015.38 Q54.8672 1023.05 49.9019 1027.42 Q44.9049 1031.74 36.152 1031.74 Q27.3673 1031.74 22.4021 1027.42 Q17.4368 1023.05 17.4368 1015.38 Z" fill="#000000" fill-rule="nonzero" fill-opacity="1" /><path clip-path="url(#clip610)" d="M972.365 23.3193 L979.136 23.3193 L991.288 55.958 L1003.44 23.3193 L1010.21 23.3193 L995.629 62.208 L986.948 62.208 L972.365 23.3193 Z" fill="#000000" fill-rule="nonzero" fill-opacity="1" /><path clip-path="url(#clip610)" d="M1036.7 42.6595 Q1028.96 42.6595 1025.98 44.4303 Q1022.99 46.2011 1022.99 50.472 Q1022.99 53.8747 1025.21 55.8886 Q1027.47 57.8677 1031.32 57.8677 Q1036.64 57.8677 1039.83 54.1178 Q1043.06 50.3331 1043.06 44.0831 L1043.06 42.6595 L1036.7 42.6595 M1049.45 40.0206 L1049.45 62.208 L1043.06 62.208 L1043.06 56.3053 Q1040.87 59.8469 1037.61 61.5483 Q1034.34 63.2149 1029.62 63.2149 Q1023.65 63.2149 1020.11 59.8816 Q1016.6 56.5136 1016.6 50.8886 Q1016.6 44.3262 1020.98 40.9928 Q1025.39 37.6595 1034.1 37.6595 L1043.06 37.6595 L1043.06 37.0345 Q1043.06 32.6248 1040.14 30.229 Q1037.26 27.7985 1032.02 27.7985 Q1028.68 27.7985 1025.52 28.5971 Q1022.36 29.3957 1019.45 30.9929 L1019.45 25.0901 Q1022.95 23.736 1026.25 23.0763 Q1029.55 22.3818 1032.68 22.3818 Q1041.11 22.3818 1045.28 26.7568 Q1049.45 31.1318 1049.45 40.0206 Z" fill="#000000" fill-rule="nonzero" fill-opacity="1" /><path clip-path="url(#clip610)" d="M1062.61 8.18051 L1069 8.18051 L1069 62.208 L1062.61 62.208 L1062.61 8.18051 Z" fill="#000000" fill-rule="nonzero" fill-opacity="1" /><path clip-path="url(#clip610)" d="M1097.43 27.7985 Q1092.29 27.7985 1089.31 31.8262 Q1086.32 35.8193 1086.32 42.7984 Q1086.32 49.7775 1089.27 53.8053 Q1092.26 57.7983 1097.43 57.7983 Q1102.54 57.7983 1105.52 53.7705 Q1108.51 49.7428 1108.51 42.7984 Q1108.51 35.8887 1105.52 31.8609 Q1102.54 27.7985 1097.43 27.7985 M1097.43 22.3818 Q1105.77 22.3818 1110.52 27.7985 Q1115.28 33.2151 1115.28 42.7984 Q1115.28 52.3469 1110.52 57.7983 Q1105.77 63.2149 1097.43 63.2149 Q1089.07 63.2149 1084.31 57.7983 Q1079.59 52.3469 1079.59 42.7984 Q1079.59 33.2151 1084.31 27.7985 Q1089.07 22.3818 1097.43 22.3818 Z" fill="#000000" fill-rule="nonzero" fill-opacity="1" /><path clip-path="url(#clip610)" d="M1148.41 29.2915 Q1147.33 28.6665 1146.04 28.3887 Q1144.79 28.0762 1143.27 28.0762 Q1137.85 28.0762 1134.93 31.6179 Q1132.05 35.1248 1132.05 41.722 L1132.05 62.208 L1125.63 62.208 L1125.63 23.3193 L1132.05 23.3193 L1132.05 29.361 Q1134.07 25.8193 1137.29 24.1179 Q1140.52 22.3818 1145.14 22.3818 Q1145.8 22.3818 1146.6 22.486 Q1147.4 22.5554 1148.37 22.729 L1148.41 29.2915 Z" fill="#000000" fill-rule="nonzero" fill-opacity="1" /><path clip-path="url(#clip610)" d="M1210.97 41.1664 L1210.97 44.2914 L1181.6 44.2914 Q1182.02 50.8886 1185.56 54.3608 Q1189.13 57.7983 1195.49 57.7983 Q1199.17 57.7983 1202.61 56.8955 Q1206.08 55.9928 1209.48 54.1872 L1209.48 60.2288 Q1206.04 61.6872 1202.43 62.4511 Q1198.82 63.2149 1195.11 63.2149 Q1185.8 63.2149 1180.35 57.7983 Q1174.93 52.3817 1174.93 43.1456 Q1174.93 33.597 1180.07 28.0068 Q1185.25 22.3818 1194 22.3818 Q1201.84 22.3818 1206.39 27.4512 Q1210.97 32.4859 1210.97 41.1664 M1204.59 39.2915 Q1204.52 34.0484 1201.63 30.9234 Q1198.79 27.7985 1194.07 27.7985 Q1188.72 27.7985 1185.49 30.8193 Q1182.29 33.8401 1181.81 39.3262 L1204.59 39.2915 Z" fill="#000000" fill-rule="nonzero" fill-opacity="1" /><path clip-path="url(#clip610)" d="M1246.25 24.4651 L1246.25 30.5068 Q1243.54 29.1179 1240.63 28.4235 Q1237.71 27.729 1234.59 27.729 Q1229.83 27.729 1227.43 29.1873 Q1225.07 30.6457 1225.07 33.5623 Q1225.07 35.7845 1226.77 37.0692 Q1228.47 38.3192 1233.61 39.4651 L1235.8 39.9512 Q1242.61 41.4095 1245.45 44.0831 Q1248.34 46.722 1248.34 51.4789 Q1248.34 56.8955 1244.03 60.0552 Q1239.76 63.2149 1232.26 63.2149 Q1229.13 63.2149 1225.73 62.5899 Q1222.36 61.9997 1218.61 60.7844 L1218.61 54.1872 Q1222.16 56.0275 1225.59 56.965 Q1229.03 57.8677 1232.4 57.8677 Q1236.91 57.8677 1239.34 56.34 Q1241.77 54.7775 1241.77 51.965 Q1241.77 49.3608 1240 47.972 Q1238.27 46.5831 1232.33 45.2984 L1230.11 44.7775 Q1224.17 43.5275 1221.53 40.9581 Q1218.89 38.354 1218.89 33.8401 Q1218.89 28.354 1222.78 25.3679 Q1226.67 22.3818 1233.82 22.3818 Q1237.36 22.3818 1240.49 22.9027 Q1243.61 23.4235 1246.25 24.4651 Z" fill="#000000" fill-rule="nonzero" fill-opacity="1" /><path clip-path="url(#clip610)" d="M1264.69 56.3747 L1264.69 76.9996 L1258.27 76.9996 L1258.27 23.3193 L1264.69 23.3193 L1264.69 29.2221 Q1266.7 25.7499 1269.76 24.0832 Q1272.85 22.3818 1277.12 22.3818 Q1284.2 22.3818 1288.61 28.0068 Q1293.06 33.6318 1293.06 42.7984 Q1293.06 51.965 1288.61 57.59 Q1284.2 63.2149 1277.12 63.2149 Q1272.85 63.2149 1269.76 61.5483 Q1266.7 59.8469 1264.69 56.3747 M1286.43 42.7984 Q1286.43 35.7498 1283.51 31.7568 Q1280.63 27.729 1275.56 27.729 Q1270.49 27.729 1267.57 31.7568 Q1264.69 35.7498 1264.69 42.7984 Q1264.69 49.847 1267.57 53.8747 Q1270.49 57.8677 1275.56 57.8677 Q1280.63 57.8677 1283.51 53.8747 Q1286.43 49.847 1286.43 42.7984 Z" fill="#000000" fill-rule="nonzero" fill-opacity="1" /><path clip-path="url(#clip610)" d="M1336.91 41.1664 L1336.91 44.2914 L1307.54 44.2914 Q1307.95 50.8886 1311.49 54.3608 Q1315.07 57.7983 1321.43 57.7983 Q1325.11 57.7983 1328.54 56.8955 Q1332.02 55.9928 1335.42 54.1872 L1335.42 60.2288 Q1331.98 61.6872 1328.37 62.4511 Q1324.76 63.2149 1321.04 63.2149 Q1311.74 63.2149 1306.29 57.7983 Q1300.87 52.3817 1300.87 43.1456 Q1300.87 33.597 1306.01 28.0068 Q1311.18 22.3818 1319.93 22.3818 Q1327.78 22.3818 1332.33 27.4512 Q1336.91 32.4859 1336.91 41.1664 M1330.52 39.2915 Q1330.45 34.0484 1327.57 30.9234 Q1324.72 27.7985 1320 27.7985 Q1314.65 27.7985 1311.43 30.8193 Q1308.23 33.8401 1307.74 39.3262 L1330.52 39.2915 Z" fill="#000000" fill-rule="nonzero" fill-opacity="1" /><path clip-path="url(#clip610)" d="M1369.93 29.2915 Q1368.86 28.6665 1367.57 28.3887 Q1366.32 28.0762 1364.79 28.0762 Q1359.38 28.0762 1356.46 31.6179 Q1353.58 35.1248 1353.58 41.722 L1353.58 62.208 L1347.15 62.208 L1347.15 23.3193 L1353.58 23.3193 L1353.58 29.361 Q1355.59 25.8193 1358.82 24.1179 Q1362.05 22.3818 1366.67 22.3818 Q1367.33 22.3818 1368.13 22.486 Q1368.93 22.5554 1369.9 22.729 L1369.93 29.2915 Z" fill="#000000" fill-rule="nonzero" fill-opacity="1" /><path clip-path="url(#clip610)" d="M1394.31 42.6595 Q1386.56 42.6595 1383.58 44.4303 Q1380.59 46.2011 1380.59 50.472 Q1380.59 53.8747 1382.81 55.8886 Q1385.07 57.8677 1388.93 57.8677 Q1394.24 57.8677 1397.43 54.1178 Q1400.66 50.3331 1400.66 44.0831 L1400.66 42.6595 L1394.31 42.6595 M1407.05 40.0206 L1407.05 62.208 L1400.66 62.208 L1400.66 56.3053 Q1398.47 59.8469 1395.21 61.5483 Q1391.95 63.2149 1387.22 63.2149 Q1381.25 63.2149 1377.71 59.8816 Q1374.2 56.5136 1374.2 50.8886 Q1374.2 44.3262 1378.58 40.9928 Q1382.99 37.6595 1391.7 37.6595 L1400.66 37.6595 L1400.66 37.0345 Q1400.66 32.6248 1397.74 30.229 Q1394.86 27.7985 1389.62 27.7985 Q1386.29 27.7985 1383.13 28.5971 Q1379.97 29.3957 1377.05 30.9929 L1377.05 25.0901 Q1380.56 23.736 1383.86 23.0763 Q1387.15 22.3818 1390.28 22.3818 Q1398.72 22.3818 1402.88 26.7568 Q1407.05 31.1318 1407.05 40.0206 Z" fill="#000000" fill-rule="nonzero" fill-opacity="1" /><path clip-path="url(#clip610)" d="M1445.8 29.2221 L1445.8 8.18051 L1452.19 8.18051 L1452.19 62.208 L1445.8 62.208 L1445.8 56.3747 Q1443.79 59.8469 1440.7 61.5483 Q1437.64 63.2149 1433.33 63.2149 Q1426.29 63.2149 1421.84 57.59 Q1417.43 51.965 1417.43 42.7984 Q1417.43 33.6318 1421.84 28.0068 Q1426.29 22.3818 1433.33 22.3818 Q1437.64 22.3818 1440.7 24.0832 Q1443.79 25.7499 1445.8 29.2221 M1424.03 42.7984 Q1424.03 49.847 1426.91 53.8747 Q1429.83 57.8677 1434.9 57.8677 Q1439.97 57.8677 1442.88 53.8747 Q1445.8 49.847 1445.8 42.7984 Q1445.8 35.7498 1442.88 31.7568 Q1439.97 27.729 1434.9 27.729 Q1429.83 27.729 1426.91 31.7568 Q1424.03 35.7498 1424.03 42.7984 Z" fill="#000000" fill-rule="nonzero" fill-opacity="1" /><path clip-path="url(#clip610)" d="M1480.42 27.7985 Q1475.28 27.7985 1472.29 31.8262 Q1469.31 35.8193 1469.31 42.7984 Q1469.31 49.7775 1472.26 53.8053 Q1475.24 57.7983 1480.42 57.7983 Q1485.52 57.7983 1488.51 53.7705 Q1491.49 49.7428 1491.49 42.7984 Q1491.49 35.8887 1488.51 31.8609 Q1485.52 27.7985 1480.42 27.7985 M1480.42 22.3818 Q1488.75 22.3818 1493.51 27.7985 Q1498.26 33.2151 1498.26 42.7984 Q1498.26 52.3469 1493.51 57.7983 Q1488.75 63.2149 1480.42 63.2149 Q1472.05 63.2149 1467.29 57.7983 Q1462.57 52.3469 1462.57 42.7984 Q1462.57 33.2151 1467.29 27.7985 Q1472.05 22.3818 1480.42 22.3818 Z" fill="#000000" fill-rule="nonzero" fill-opacity="1" /><path clip-path="url(#clip610)" d="M1564.72 41.1664 L1564.72 44.2914 L1535.35 44.2914 Q1535.76 50.8886 1539.31 54.3608 Q1542.88 57.7983 1549.24 57.7983 Q1552.92 57.7983 1556.35 56.8955 Q1559.83 55.9928 1563.23 54.1872 L1563.23 60.2288 Q1559.79 61.6872 1556.18 62.4511 Q1552.57 63.2149 1548.85 63.2149 Q1539.55 63.2149 1534.1 57.7983 Q1528.68 52.3817 1528.68 43.1456 Q1528.68 33.597 1533.82 28.0068 Q1538.99 22.3818 1547.74 22.3818 Q1555.59 22.3818 1560.14 27.4512 Q1564.72 32.4859 1564.72 41.1664 M1558.33 39.2915 Q1558.26 34.0484 1555.38 30.9234 Q1552.54 27.7985 1547.81 27.7985 Q1542.47 27.7985 1539.24 30.8193 Q1536.04 33.8401 1535.56 39.3262 L1558.33 39.2915 Z" fill="#000000" fill-rule="nonzero" fill-opacity="1" /><path clip-path="url(#clip610)" d="M1597.81 23.3193 L1604.2 23.3193 L1604.2 62.208 L1597.81 62.208 L1597.81 23.3193 M1597.81 8.18051 L1604.2 8.18051 L1604.2 16.2707 L1597.81 16.2707 L1597.81 8.18051 Z" fill="#000000" fill-rule="nonzero" fill-opacity="1" /><path clip-path="url(#clip610)" d="M1649.9 38.7359 L1649.9 62.208 L1643.51 62.208 L1643.51 38.9442 Q1643.51 33.4234 1641.35 30.6804 Q1639.2 27.9374 1634.9 27.9374 Q1629.72 27.9374 1626.74 31.2359 Q1623.75 34.5345 1623.75 40.229 L1623.75 62.208 L1617.33 62.208 L1617.33 23.3193 L1623.75 23.3193 L1623.75 29.361 Q1626.04 25.854 1629.13 24.1179 Q1632.26 22.3818 1636.32 22.3818 Q1643.02 22.3818 1646.46 26.5485 Q1649.9 30.6804 1649.9 38.7359 Z" fill="#000000" fill-rule="nonzero" fill-opacity="1" /><path clip-path="url(#clip610)" d="M1668.96 12.2777 L1668.96 23.3193 L1682.12 23.3193 L1682.12 28.2846 L1668.96 28.2846 L1668.96 49.3956 Q1668.96 54.1525 1670.24 55.5066 Q1671.56 56.8608 1675.56 56.8608 L1682.12 56.8608 L1682.12 62.208 L1675.56 62.208 Q1668.16 62.208 1665.35 59.465 Q1662.53 56.6872 1662.53 49.3956 L1662.53 28.2846 L1657.85 28.2846 L1657.85 23.3193 L1662.53 23.3193 L1662.53 12.2777 L1668.96 12.2777 Z" fill="#000000" fill-rule="nonzero" fill-opacity="1" /><path clip-path="url(#clip610)" d="M1723.78 41.1664 L1723.78 44.2914 L1694.41 44.2914 Q1694.83 50.8886 1698.37 54.3608 Q1701.94 57.7983 1708.3 57.7983 Q1711.98 57.7983 1715.42 56.8955 Q1718.89 55.9928 1722.29 54.1872 L1722.29 60.2288 Q1718.85 61.6872 1715.24 62.4511 Q1711.63 63.2149 1707.92 63.2149 Q1698.61 63.2149 1693.16 57.7983 Q1687.74 52.3817 1687.74 43.1456 Q1687.74 33.597 1692.88 28.0068 Q1698.06 22.3818 1706.81 22.3818 Q1714.65 22.3818 1719.2 27.4512 Q1723.78 32.4859 1723.78 41.1664 M1717.4 39.2915 Q1717.33 34.0484 1714.44 30.9234 Q1711.6 27.7985 1706.87 27.7985 Q1701.53 27.7985 1698.3 30.8193 Q1695.1 33.8401 1694.62 39.3262 L1717.4 39.2915 Z" fill="#000000" fill-rule="nonzero" fill-opacity="1" /><path clip-path="url(#clip610)" d="M1756.81 29.2915 Q1755.73 28.6665 1754.44 28.3887 Q1753.19 28.0762 1751.67 28.0762 Q1746.25 28.0762 1743.33 31.6179 Q1740.45 35.1248 1740.45 41.722 L1740.45 62.208 L1734.03 62.208 L1734.03 23.3193 L1740.45 23.3193 L1740.45 29.361 Q1742.46 25.8193 1745.69 24.1179 Q1748.92 22.3818 1753.54 22.3818 Q1754.2 22.3818 1755 22.486 Q1755.8 22.5554 1756.77 22.729 L1756.81 29.2915 Z" fill="#000000" fill-rule="nonzero" fill-opacity="1" /><path clip-path="url(#clip610)" d="M1758.92 23.3193 L1765.69 23.3193 L1777.85 55.958 L1790 23.3193 L1796.77 23.3193 L1782.19 62.208 L1773.51 62.208 L1758.92 23.3193 Z" fill="#000000" fill-rule="nonzero" fill-opacity="1" /><path clip-path="url(#clip610)" d="M1823.26 42.6595 Q1815.52 42.6595 1812.53 44.4303 Q1809.55 46.2011 1809.55 50.472 Q1809.55 53.8747 1811.77 55.8886 Q1814.03 57.8677 1817.88 57.8677 Q1823.19 57.8677 1826.39 54.1178 Q1829.62 50.3331 1829.62 44.0831 L1829.62 42.6595 L1823.26 42.6595 M1836.01 40.0206 L1836.01 62.208 L1829.62 62.208 L1829.62 56.3053 Q1827.43 59.8469 1824.17 61.5483 Q1820.9 63.2149 1816.18 63.2149 Q1810.21 63.2149 1806.67 59.8816 Q1803.16 56.5136 1803.16 50.8886 Q1803.16 44.3262 1807.53 40.9928 Q1811.94 37.6595 1820.66 37.6595 L1829.62 37.6595 L1829.62 37.0345 Q1829.62 32.6248 1826.7 30.229 Q1823.82 27.7985 1818.58 27.7985 Q1815.24 27.7985 1812.08 28.5971 Q1808.92 29.3957 1806.01 30.9929 L1806.01 25.0901 Q1809.51 23.736 1812.81 23.0763 Q1816.11 22.3818 1819.24 22.3818 Q1827.67 22.3818 1831.84 26.7568 Q1836.01 31.1318 1836.01 40.0206 Z" fill="#000000" fill-rule="nonzero" fill-opacity="1" /><path clip-path="url(#clip610)" d="M1849.17 8.18051 L1855.55 8.18051 L1855.55 62.208 L1849.17 62.208 L1849.17 8.18051 Z" fill="#000000" fill-rule="nonzero" fill-opacity="1" /><path clip-path="url(#clip610)" d="M1883.99 27.7985 Q1878.85 27.7985 1875.87 31.8262 Q1872.88 35.8193 1872.88 42.7984 Q1872.88 49.7775 1875.83 53.8053 Q1878.82 57.7983 1883.99 57.7983 Q1889.1 57.7983 1892.08 53.7705 Q1895.07 49.7428 1895.07 42.7984 Q1895.07 35.8887 1892.08 31.8609 Q1889.1 27.7985 1883.99 27.7985 M1883.99 22.3818 Q1892.33 22.3818 1897.08 27.7985 Q1901.84 33.2151 1901.84 42.7984 Q1901.84 52.3469 1897.08 57.7983 Q1892.33 63.2149 1883.99 63.2149 Q1875.62 63.2149 1870.87 57.7983 Q1866.14 52.3469 1866.14 42.7984 Q1866.14 33.2151 1870.87 27.7985 Q1875.62 22.3818 1883.99 22.3818 Z" fill="#000000" fill-rule="nonzero" fill-opacity="1" /><path clip-path="url(#clip610)" d="M1937.22 24.4651 L1937.22 30.5068 Q1934.51 29.1179 1931.6 28.4235 Q1928.68 27.729 1925.55 27.729 Q1920.8 27.729 1918.4 29.1873 Q1916.04 30.6457 1916.04 33.5623 Q1916.04 35.7845 1917.74 37.0692 Q1919.44 38.3192 1924.58 39.4651 L1926.77 39.9512 Q1933.57 41.4095 1936.42 44.0831 Q1939.3 46.722 1939.3 51.4789 Q1939.3 56.8955 1935 60.0552 Q1930.73 63.2149 1923.23 63.2149 Q1920.1 63.2149 1916.7 62.5899 Q1913.33 61.9997 1909.58 60.7844 L1909.58 54.1872 Q1913.12 56.0275 1916.56 56.965 Q1920 57.8677 1923.37 57.8677 Q1927.88 57.8677 1930.31 56.34 Q1932.74 54.7775 1932.74 51.965 Q1932.74 49.3608 1930.97 47.972 Q1929.23 46.5831 1923.3 45.2984 L1921.08 44.7775 Q1915.14 43.5275 1912.5 40.9581 Q1909.86 38.354 1909.86 33.8401 Q1909.86 28.354 1913.75 25.3679 Q1917.64 22.3818 1924.79 22.3818 Q1928.33 22.3818 1931.46 22.9027 Q1934.58 23.4235 1937.22 24.4651 Z" fill="#000000" fill-rule="nonzero" fill-opacity="1" /><path clip-path="url(#clip610)" d="M1997.67 29.2221 L1997.67 8.18051 L2004.06 8.18051 L2004.06 62.208 L1997.67 62.208 L1997.67 56.3747 Q1995.66 59.8469 1992.57 61.5483 Q1989.51 63.2149 1985.21 63.2149 Q1978.16 63.2149 1973.71 57.59 Q1969.3 51.965 1969.3 42.7984 Q1969.3 33.6318 1973.71 28.0068 Q1978.16 22.3818 1985.21 22.3818 Q1989.51 22.3818 1992.57 24.0832 Q1995.66 25.7499 1997.67 29.2221 M1975.9 42.7984 Q1975.9 49.847 1978.78 53.8747 Q1981.7 57.8677 1986.77 57.8677 Q1991.84 57.8677 1994.76 53.8747 Q1997.67 49.847 1997.67 42.7984 Q1997.67 35.7498 1994.76 31.7568 Q1991.84 27.729 1986.77 27.729 Q1981.7 27.729 1978.78 31.7568 Q1975.9 35.7498 1975.9 42.7984 Z" fill="#000000" fill-rule="nonzero" fill-opacity="1" /><path clip-path="url(#clip610)" d="M2050.48 41.1664 L2050.48 44.2914 L2021.11 44.2914 Q2021.53 50.8886 2025.07 54.3608 Q2028.64 57.7983 2035 57.7983 Q2038.68 57.7983 2042.12 56.8955 Q2045.59 55.9928 2048.99 54.1872 L2048.99 60.2288 Q2045.55 61.6872 2041.94 62.4511 Q2038.33 63.2149 2034.62 63.2149 Q2025.31 63.2149 2019.86 57.7983 Q2014.44 52.3817 2014.44 43.1456 Q2014.44 33.597 2019.58 28.0068 Q2024.76 22.3818 2033.5 22.3818 Q2041.35 22.3818 2045.9 27.4512 Q2050.48 32.4859 2050.48 41.1664 M2044.1 39.2915 Q2044.03 34.0484 2041.14 30.9234 Q2038.3 27.7985 2033.57 27.7985 Q2028.23 27.7985 2025 30.8193 Q2021.8 33.8401 2021.32 39.3262 L2044.1 39.2915 Z" fill="#000000" fill-rule="nonzero" fill-opacity="1" /><path clip-path="url(#clip610)" d="M2111.56 24.8124 L2111.56 30.7846 Q2108.85 29.2915 2106.11 28.5623 Q2103.4 27.7985 2100.62 27.7985 Q2094.41 27.7985 2090.97 31.7568 Q2087.53 35.6804 2087.53 42.7984 Q2087.53 49.9164 2090.97 53.8747 Q2094.41 57.7983 2100.62 57.7983 Q2103.4 57.7983 2106.11 57.0691 Q2108.85 56.3053 2111.56 54.8122 L2111.56 60.715 Q2108.89 61.9649 2106 62.5899 Q2103.16 63.2149 2099.93 63.2149 Q2091.14 63.2149 2085.97 57.6941 Q2080.8 52.1733 2080.8 42.7984 Q2080.8 33.2845 2086 27.8332 Q2091.25 22.3818 2100.34 22.3818 Q2103.3 22.3818 2106.11 23.0068 Q2108.92 23.5971 2111.56 24.8124 Z" fill="#000000" fill-rule="nonzero" fill-opacity="1" /><path clip-path="url(#clip610)" d="M2137.74 27.7985 Q2132.6 27.7985 2129.62 31.8262 Q2126.63 35.8193 2126.63 42.7984 Q2126.63 49.7775 2129.58 53.8053 Q2132.57 57.7983 2137.74 57.7983 Q2142.84 57.7983 2145.83 53.7705 Q2148.82 49.7428 2148.82 42.7984 Q2148.82 35.8887 2145.83 31.8609 Q2142.84 27.7985 2137.74 27.7985 M2137.74 22.3818 Q2146.07 22.3818 2150.83 27.7985 Q2155.59 33.2151 2155.59 42.7984 Q2155.59 52.3469 2150.83 57.7983 Q2146.07 63.2149 2137.74 63.2149 Q2129.37 63.2149 2124.62 57.7983 Q2119.89 52.3469 2119.89 42.7984 Q2119.89 33.2151 2124.62 27.7985 Q2129.37 22.3818 2137.74 22.3818 Z" fill="#000000" fill-rule="nonzero" fill-opacity="1" /><path clip-path="url(#clip610)" d="M2198.5 38.7359 L2198.5 62.208 L2192.12 62.208 L2192.12 38.9442 Q2192.12 33.4234 2189.96 30.6804 Q2187.81 27.9374 2183.5 27.9374 Q2178.33 27.9374 2175.34 31.2359 Q2172.36 34.5345 2172.36 40.229 L2172.36 62.208 L2165.93 62.208 L2165.93 23.3193 L2172.36 23.3193 L2172.36 29.361 Q2174.65 25.854 2177.74 24.1179 Q2180.87 22.3818 2184.93 22.3818 Q2191.63 22.3818 2195.07 26.5485 Q2198.5 30.6804 2198.5 38.7359 Z" fill="#000000" fill-rule="nonzero" fill-opacity="1" /><path clip-path="url(#clip610)" d="M2230.93 8.18051 L2230.93 13.493 L2224.82 13.493 Q2221.39 13.493 2220.03 14.8819 Q2218.71 16.2707 2218.71 19.8818 L2218.71 23.3193 L2229.23 23.3193 L2229.23 28.2846 L2218.71 28.2846 L2218.71 62.208 L2212.29 62.208 L2212.29 28.2846 L2206.18 28.2846 L2206.18 23.3193 L2212.29 23.3193 L2212.29 20.611 Q2212.29 14.118 2215.31 11.1666 Q2218.33 8.18051 2224.89 8.18051 L2230.93 8.18051 Z" fill="#000000" fill-rule="nonzero" fill-opacity="1" /><path clip-path="url(#clip610)" d="M2236.28 23.3193 L2242.67 23.3193 L2242.67 62.208 L2236.28 62.208 L2236.28 23.3193 M2236.28 8.18051 L2242.67 8.18051 L2242.67 16.2707 L2236.28 16.2707 L2236.28 8.18051 Z" fill="#000000" fill-rule="nonzero" fill-opacity="1" /><path clip-path="url(#clip610)" d="M2273.71 42.6595 Q2265.97 42.6595 2262.98 44.4303 Q2260 46.2011 2260 50.472 Q2260 53.8747 2262.22 55.8886 Q2264.48 57.8677 2268.33 57.8677 Q2273.64 57.8677 2276.84 54.1178 Q2280.07 50.3331 2280.07 44.0831 L2280.07 42.6595 L2273.71 42.6595 M2286.45 40.0206 L2286.45 62.208 L2280.07 62.208 L2280.07 56.3053 Q2277.88 59.8469 2274.61 61.5483 Q2271.35 63.2149 2266.63 63.2149 Q2260.66 63.2149 2257.11 59.8816 Q2253.61 56.5136 2253.61 50.8886 Q2253.61 44.3262 2257.98 40.9928 Q2262.39 37.6595 2271.11 37.6595 L2280.07 37.6595 L2280.07 37.0345 Q2280.07 32.6248 2277.15 30.229 Q2274.27 27.7985 2269.02 27.7985 Q2265.69 27.7985 2262.53 28.5971 Q2259.37 29.3957 2256.46 30.9929 L2256.46 25.0901 Q2259.96 23.736 2263.26 23.0763 Q2266.56 22.3818 2269.68 22.3818 Q2278.12 22.3818 2282.29 26.7568 Q2286.45 31.1318 2286.45 40.0206 Z" fill="#000000" fill-rule="nonzero" fill-opacity="1" /><path clip-path="url(#clip610)" d="M2331.94 38.7359 L2331.94 62.208 L2325.55 62.208 L2325.55 38.9442 Q2325.55 33.4234 2323.4 30.6804 Q2321.25 27.9374 2316.94 27.9374 Q2311.77 27.9374 2308.78 31.2359 Q2305.8 34.5345 2305.8 40.229 L2305.8 62.208 L2299.37 62.208 L2299.37 23.3193 L2305.8 23.3193 L2305.8 29.361 Q2308.09 25.854 2311.18 24.1179 Q2314.3 22.3818 2318.36 22.3818 Q2325.07 22.3818 2328.5 26.5485 Q2331.94 30.6804 2331.94 38.7359 Z" fill="#000000" fill-rule="nonzero" fill-opacity="1" /><path clip-path="url(#clip610)" d="M2372.67 24.8124 L2372.67 30.7846 Q2369.96 29.2915 2367.22 28.5623 Q2364.51 27.7985 2361.73 27.7985 Q2355.52 27.7985 2352.08 31.7568 Q2348.64 35.6804 2348.64 42.7984 Q2348.64 49.9164 2352.08 53.8747 Q2355.52 57.7983 2361.73 57.7983 Q2364.51 57.7983 2367.22 57.0691 Q2369.96 56.3053 2372.67 54.8122 L2372.67 60.715 Q2370 61.9649 2367.11 62.5899 Q2364.27 63.2149 2361.04 63.2149 Q2352.25 63.2149 2347.08 57.6941 Q2341.91 52.1733 2341.91 42.7984 Q2341.91 33.2845 2347.11 27.8332 Q2352.36 22.3818 2361.45 22.3818 Q2364.41 22.3818 2367.22 23.0068 Q2370.03 23.5971 2372.67 24.8124 M2363.64 62.208 Q2365.55 64.3608 2366.49 66.1663 Q2367.43 68.0066 2367.43 69.6732 Q2367.43 72.7635 2365.34 74.326 Q2363.26 75.9232 2359.16 75.9232 Q2357.57 75.9232 2356.04 75.7149 Q2354.54 75.5065 2353.05 75.0899 L2353.05 70.5413 Q2354.23 71.1316 2355.52 71.3746 Q2356.8 71.6524 2358.43 71.6524 Q2360.48 71.6524 2361.52 70.8191 Q2362.57 69.9857 2362.57 68.3885 Q2362.57 67.3469 2361.8 65.8191 Q2361.07 64.326 2359.51 62.208 L2363.64 62.208 Z" fill="#000000" fill-rule="nonzero" fill-opacity="1" /><path clip-path="url(#clip610)" d="M2401.45 42.6595 Q2393.71 42.6595 2390.73 44.4303 Q2387.74 46.2011 2387.74 50.472 Q2387.74 53.8747 2389.96 55.8886 Q2392.22 57.8677 2396.07 57.8677 Q2401.38 57.8677 2404.58 54.1178 Q2407.81 50.3331 2407.81 44.0831 L2407.81 42.6595 L2401.45 42.6595 M2414.2 40.0206 L2414.2 62.208 L2407.81 62.208 L2407.81 56.3053 Q2405.62 59.8469 2402.36 61.5483 Q2399.09 63.2149 2394.37 63.2149 Q2388.4 63.2149 2384.86 59.8816 Q2381.35 56.5136 2381.35 50.8886 Q2381.35 44.3262 2385.73 40.9928 Q2390.13 37.6595 2398.85 37.6595 L2407.81 37.6595 L2407.81 37.0345 Q2407.81 32.6248 2404.89 30.229 Q2402.01 27.7985 2396.77 27.7985 Q2393.43 27.7985 2390.27 28.5971 Q2387.11 29.3957 2384.2 30.9929 L2384.2 25.0901 Q2387.7 23.736 2391 23.0763 Q2394.3 22.3818 2397.43 22.3818 Q2405.86 22.3818 2410.03 26.7568 Q2414.2 31.1318 2414.2 40.0206 Z" fill="#000000" fill-rule="nonzero" fill-opacity="1" /><path clip-path="url(#clip612)" d="M316.418 2145.95 L330.256 2125.76 L344.094 2104.5 L357.932 2082.11 L371.769 2058.56 L385.607 2033.84 L399.445 2007.92 L413.283 1980.79 L427.121 1952.45 L440.958 1922.84 L454.796 1892.05 L468.634 1860.05 L482.472 1827.02 L496.31 1792.9 L510.148 1757.73 L523.985 1721.56 L537.823 1684.24 L551.661 1646.02 L565.499 1606.99 L579.337 1567.24 L593.174 1526.87 L607.012 1485.97 L620.85 1444.65 L634.688 1403.03 L648.526 1361.21 L662.364 1319.48 L676.201 1277.95 L690.039 1236.61 L703.877 1195.62 L717.715 1154.44 L731.553 1114.06 L745.39 1074.13 L759.228 1034.82 L773.066 996.302 L786.904 958.644 L800.742 922.568 L814.58 887.576 L828.417 853.673 L842.255 820.536 L856.093 788.47 L869.931 757.52 L883.769 728.157 L897.606 700.326 L911.444 673.516 L925.282 648.064 L939.12 623.833 L952.958 600.892 L966.796 579.29 L980.633 558.78 L994.471 539.78 L1008.31 521.008 L1022.15 503.193 L1035.98 486.454 L1049.82 470.755 L1063.66 456.891 L1077.5 442.916 L1091.34 429.989 L1105.17 418.155 L1119.01 407.022 L1132.85 396.349 L1146.69 386.341 L1160.53 376.967 L1174.36 368.171 L1188.2 359.9 L1202.04 352.241 L1215.88 345.537 L1229.71 339.947 L1243.55 334.643 L1257.39 329.113 L1271.23 323.716 L1285.07 319.158 L1298.9 314.963 L1312.74 310.834 L1326.58 307.031 L1340.42 303.814 L1354.25 300.5 L1368.09 297.212 L1381.93 294.385 L1395.77 291.767 L1409.61 289.183 L1423.44 286.625 L1437.28 284.245 L1451.12 282.218 L1464.96 280.68 L1478.79 279.289 L1492.63 277.801 L1506.47 276.445 L1520.31 275.188 L1534.15 274.021 L1547.98 272.934 L1561.82 271.918 L1575.66 270.966 L1589.5 270.078 L1603.34 269.252 L1617.17 268.485 L1631.01 267.774 L1644.85 267.114 L1658.69 266.504 L1672.52 265.939 L1686.36 265.484 L1700.2 265.08 L1714.04 264.707 L1727.88 264.362 L1741.71 264.044 L1755.55 263.75 L1769.39 263.478 L1783.23 263.225 L1797.06 262.99 L1810.9 262.769 L1824.74 262.563 L1838.58 262.37 L1852.42 262.189 L1866.25 262.019 L1880.09 261.861 L1893.93 261.715 L1907.77 261.579 L1921.61 261.453 L1935.44 261.337 L1949.28 261.231 L1963.12 261.133 L1976.96 261.044 L1990.79 260.962 L2004.63 260.887 L2018.47 260.819 L2032.31 260.756 L2046.15 260.698 L2059.98 260.645 L2073.82 260.596 L2087.66 260.549 L2101.5 260.504 L2115.33 260.462 L2129.17 260.422 L2143.01 260.384 L2156.85 260.347 L2170.69 260.313 L2184.52 260.281 L2198.36 260.25 L2212.2 260.222 L2226.04 260.196 L2239.87 260.172 L2253.71 260.151 L2267.55 260.131 L2281.39 260.113 L2295.23 260.096 L2309.06 260.082 L2322.9 260.069 L2336.74 260.057 L2350.58 260.047 L2364.42 260.038 L2378.25 260.03 L2392.09 260.023 L2405.93 260.016 L2419.77 260.01 L2433.6 260.004 L2447.44 259.998 L2461.28 259.992 L2475.12 259.986 L2488.96 259.981 L2502.79 259.975 L2516.63 259.969 L2530.47 259.963 L2544.31 259.958 L2558.14 259.952 L2571.98 259.947 L2585.82 259.942 L2599.66 259.937 L2613.5 259.932 L2627.33 259.929 L2641.17 259.925 L2655.01 259.922 L2668.85 259.919 L2682.69 259.917 L2696.52 259.915 L2710.36 259.913 L2724.2 259.912 L2738.04 259.911 L2751.87 259.911 L2765.71 259.91 L2779.55 259.91 L2793.39 259.911 L2807.23 259.911 L2821.06 259.911 L2834.9 259.912 L2848.74 259.913 L2862.58 259.913 L2876.41 259.913 L2890.25 259.913 L2904.09 259.913 L2917.93 259.913 L2931.77 259.913 L2945.6 259.912 L2959.44 259.912 L2973.28 259.912 L2987.12 259.911 L3000.96 259.91 L3014.79 259.91 L3028.63 259.909 L3042.47 259.908 L3056.31 259.907 L3070.14 259.906 L3070.14 180.282 L3056.31 180.283 L3042.47 180.283 L3028.63 180.284 L3014.79 180.285 L3000.96 180.286 L2987.12 180.286 L2973.28 180.287 L2959.44 180.288 L2945.6 180.289 L2931.77 180.29 L2917.93 180.292 L2904.09 180.293 L2890.25 180.295 L2876.41 180.296 L2862.58 180.297 L2848.74 180.298 L2834.9 180.299 L2821.06 180.3 L2807.23 180.301 L2793.39 180.301 L2779.55 180.3 L2765.71 180.3 L2751.87 180.299 L2738.04 180.299 L2724.2 180.298 L2710.36 180.298 L2696.52 180.298 L2682.69 180.299 L2668.85 180.3 L2655.01 180.301 L2641.17 180.303 L2627.33 180.305 L2613.5 180.308 L2599.66 180.312 L2585.82 180.316 L2571.98 180.321 L2558.14 180.326 L2544.31 180.332 L2530.47 180.339 L2516.63 180.347 L2502.79 180.355 L2488.96 180.363 L2475.12 180.372 L2461.28 180.382 L2447.44 180.392 L2433.6 180.402 L2419.77 180.412 L2405.93 180.423 L2392.09 180.433 L2378.25 180.443 L2364.42 180.454 L2350.58 180.465 L2336.74 180.476 L2322.9 180.489 L2309.06 180.502 L2295.23 180.518 L2281.39 180.535 L2267.55 180.554 L2253.71 180.575 L2239.87 180.599 L2226.04 180.625 L2212.2 180.654 L2198.36 180.686 L2184.52 180.721 L2170.69 180.759 L2156.85 180.8 L2143.01 180.845 L2129.17 180.893 L2115.33 180.945 L2101.5 181 L2087.66 181.058 L2073.82 181.119 L2059.98 181.184 L2046.15 181.251 L2032.31 181.321 L2018.47 181.395 L2004.63 181.476 L1990.79 181.562 L1976.96 181.657 L1963.12 181.759 L1949.28 181.87 L1935.44 181.992 L1921.61 182.126 L1907.77 182.262 L1893.93 182.411 L1880.09 182.571 L1866.25 182.746 L1852.42 182.934 L1838.58 183.137 L1824.74 183.355 L1810.9 183.589 L1797.06 183.839 L1783.23 184.106 L1769.39 184.39 L1755.55 184.693 L1741.71 185.02 L1727.88 185.372 L1714.04 185.752 L1700.2 186.163 L1686.36 186.631 L1672.52 187.139 L1658.69 187.688 L1644.85 188.28 L1631.01 188.915 L1617.17 189.6 L1603.34 190.335 L1589.5 191.12 L1575.66 191.96 L1561.82 192.862 L1547.98 193.831 L1534.15 194.872 L1520.31 195.993 L1506.47 197.205 L1492.63 198.686 L1478.79 200.286 L1464.96 202.008 L1451.12 203.911 L1437.28 206.023 L1423.44 208.247 L1409.61 210.498 L1395.77 212.918 L1381.93 215.571 L1368.09 218.353 L1354.25 221.225 L1340.42 223.985 L1326.58 226.883 L1312.74 230.198 L1298.9 233.785 L1285.07 237.614 L1271.23 241.908 L1257.39 246.963 L1243.55 252.392 L1229.71 257.911 L1215.88 263.3 L1202.04 270.002 L1188.2 276.62 L1174.36 283.654 L1160.53 291.007 L1146.69 298.266 L1132.85 305.847 L1119.01 313.695 L1105.17 322.096 L1091.34 331.478 L1077.5 342.271 L1063.66 353.481 L1049.82 364.967 L1035.98 377.13 L1022.15 390.375 L1008.31 404.29 L994.471 418.576 L980.633 433.34 L966.796 449.084 L952.958 465.77 L939.12 483.317 L925.282 502.495 L911.444 522.364 L897.606 542.875 L883.769 564.607 L869.931 587.302 L856.093 611.576 L842.255 637.289 L828.417 664.258 L814.58 693.076 L800.742 722.507 L786.904 753.153 L773.066 784.702 L759.228 817.001 L745.39 850.449 L731.553 884.926 L717.715 920.497 L703.877 958.107 L690.039 996.235 L676.201 1034.78 L662.364 1073.83 L648.526 1113.57 L634.688 1154.23 L620.85 1195.57 L607.012 1237.38 L593.174 1279.44 L579.337 1321.64 L565.499 1363.72 L551.661 1405.67 L537.823 1447.06 L523.985 1488.13 L510.148 1529.24 L496.31 1569.8 L482.472 1609.71 L468.634 1648.87 L454.796 1687.19 L440.958 1724.59 L427.121 1761 L413.283 1796.3 L399.445 1830.48 L385.607 1863.53 L371.769 1895.35 L357.932 1925.95 L344.094 1955.35 L330.256 1983.55 L316.418 2010.53  Z" fill="#009af9" fill-rule="evenodd" fill-opacity="0.2"/>
<polyline clip-path="url(#clip612)" style="stroke:#009af9; stroke-linecap:round; stroke-linejoin:round; stroke-width:12; stroke-opacity:1; fill:none" points="316.418,2081.47 330.256,2057.81 344.094,2032.88 357.932,2006.84 371.769,1979.63 385.607,1951.14 399.445,1921.44 413.283,1890.54 427.121,1858.45 440.958,1825.42 454.796,1791.32 468.634,1756.17 482.472,1720.01 496.31,1682.62 510.148,1644.34 523.985,1605.25 537.823,1565.45 551.661,1525 565.499,1484.08 579.337,1442.73 593.174,1401.08 607.012,1359.18 620.85,1317.12 634.688,1275.21 648.526,1233.83 662.364,1192.76 676.201,1151.79 690.039,1110.52 703.877,1069.91 717.715,1030.91 731.553,992.583 745.39,955.01 759.228,918.07 773.066,882.137 786.904,847.351 800.742,814.009 814.58,782.682 828.417,751.532 842.255,722.321 856.093,694.312 869.931,667.507 883.769,641.961 897.606,616.69 911.444,593.523 925.282,571.571 939.12,549.716 952.958,529.036 966.796,510.696 980.633,492.608 994.471,474.43 1008.31,457.438 1022.15,442.697 1035.98,428.087 1049.82,414.541 1063.66,401.425 1077.5,390.11 1091.34,379.605 1105.17,369.338 1119.01,359.84 1132.85,350.789 1146.69,341.949 1160.53,334.135 1174.36,326.817 1188.2,320.237 1202.04,314.018 1215.88,308.093 1229.71,302.056 1243.55,296.405 1257.39,291.092 1271.23,286.29 1285.07,281.862 1298.9,277.739 1312.74,273.675 1326.58,269.96 1340.42,266.977 1354.25,264.139 1368.09,261.381 1381.93,258.607 1395.77,256.228 1409.61,253.918 1423.44,251.822 1437.28,249.904 1451.12,248.128 1464.96,246.482 1478.79,244.982 1492.63,243.545 1506.47,242.066 1520.31,240.782 1534.15,239.667 1547.98,238.682 1561.82,237.766 1575.66,236.912 1589.5,236.118 1603.34,235.327 1617.17,234.598 1631.01,233.928 1644.85,233.349 1658.69,232.818 1672.52,232.327 1686.36,231.873 1700.2,231.453 1714.04,231.066 1727.88,230.708 1741.71,230.378 1755.55,230.072 1769.39,229.789 1783.23,229.542 1797.06,229.319 1810.9,229.085 1824.74,228.838 1838.58,228.608 1852.42,228.391 1866.25,228.189 1880.09,228.003 1893.93,227.835 1907.77,227.703 1921.61,227.581 1935.44,227.467 1949.28,227.362 1963.12,227.265 1976.96,227.177 1990.79,227.096 2004.63,227.023 2018.47,226.957 2032.31,226.897 2046.15,226.841 2059.98,226.791 2073.82,226.746 2087.66,226.704 2101.5,226.665 2115.33,226.629 2129.17,226.594 2143.01,226.562 2156.85,226.531 2170.69,226.5 2184.52,226.47 2198.36,226.442 2212.2,226.415 2226.04,226.389 2239.87,226.365 2253.71,226.343 2267.55,226.323 2281.39,226.304 2295.23,226.288 2309.06,226.272 2322.9,226.259 2336.74,226.247 2350.58,226.236 2364.42,226.227 2378.25,226.218 2392.09,226.212 2405.93,226.206 2419.77,226.2 2433.6,226.196 2447.44,226.192 2461.28,226.189 2475.12,226.186 2488.96,226.183 2502.79,226.18 2516.63,226.176 2530.47,226.171 2544.31,226.167 2558.14,226.162 2571.98,226.157 2585.82,226.152 2599.66,226.147 2613.5,226.142 2627.33,226.138 2641.17,226.134 2655.01,226.13 2668.85,226.127 2682.69,226.123 2696.52,226.12 2710.36,226.118 2724.2,226.116 2738.04,226.114 2751.87,226.112 2765.71,226.111 2779.55,226.111 2793.39,226.11 2807.23,226.11 2821.06,226.11 2834.9,226.11 2848.74,226.111 2862.58,226.112 2876.41,226.113 2890.25,226.114 2904.09,226.115 2917.93,226.116 2931.77,226.117 2945.6,226.117 2959.44,226.118 2973.28,226.118 2987.12,226.119 3000.96,226.118 3014.79,226.117 3028.63,226.116 3042.47,226.115 3056.31,226.115 3070.14,226.114 "/>
<path clip-path="url(#clip612)" d="M316.418 2128.32 L330.256 2107.09 L344.094 2084.79 L357.932 2061.23 L371.769 2036.4 L385.607 2010.48 L399.445 1983.34 L413.283 1954.99 L427.121 1925.42 L440.958 1894.58 L454.796 1862.57 L468.634 1829.49 L482.472 1795.27 L496.31 1759.96 L510.148 1723.38 L523.985 1685.78 L537.823 1647.62 L551.661 1608.73 L565.499 1569 L579.337 1528.72 L593.174 1487.79 L607.012 1446.83 L620.85 1405.32 L634.688 1363.67 L648.526 1321.53 L662.364 1279.66 L676.201 1238.53 L690.039 1197.51 L703.877 1156.87 L717.715 1116.88 L731.553 1077.45 L745.39 1038.69 L759.228 1000.74 L773.066 963.527 L786.904 925.881 L800.742 890.469 L814.58 857.172 L828.417 825.228 L842.255 792.732 L856.093 762.31 L869.931 733.271 L883.769 703.831 L897.606 675.597 L911.444 649.975 L925.282 627.03 L939.12 602.509 L952.958 578.965 L966.796 557.028 L980.633 536.711 L994.471 516.917 L1008.31 497.879 L1022.15 481.951 L1035.98 465.683 L1049.82 450.425 L1063.66 436.959 L1077.5 423.413 L1091.34 410.762 L1105.17 399.315 L1119.01 389.162 L1132.85 379.629 L1146.69 370.887 L1160.53 362.333 L1174.36 353.932 L1188.2 347.331 L1202.04 340.253 L1215.88 334.299 L1229.71 328.798 L1243.55 323.166 L1257.39 317.538 L1271.23 312.371 L1285.07 307.095 L1298.9 302.949 L1312.74 298.699 L1326.58 295.039 L1340.42 291.446 L1354.25 288.18 L1368.09 285.376 L1381.93 282.568 L1395.77 279.742 L1409.61 277.068 L1423.44 274.584 L1437.28 272.25 L1451.12 270.394 L1464.96 268.894 L1478.79 267.359 L1492.63 266.049 L1506.47 264.821 L1520.31 263.653 L1534.15 262.623 L1547.98 261.55 L1561.82 260.639 L1575.66 259.788 L1589.5 258.92 L1603.34 258.045 L1617.17 257.419 L1631.01 256.752 L1644.85 256.082 L1658.69 255.517 L1672.52 255.018 L1686.36 254.598 L1700.2 254.217 L1714.04 253.866 L1727.88 253.542 L1741.71 253.244 L1755.55 252.954 L1769.39 252.669 L1783.23 252.404 L1797.06 252.155 L1810.9 251.916 L1824.74 251.692 L1838.58 251.482 L1852.42 251.283 L1866.25 251.097 L1880.09 250.924 L1893.93 250.765 L1907.77 250.617 L1921.61 250.482 L1935.44 250.357 L1949.28 250.243 L1963.12 250.139 L1976.96 250.043 L1990.79 249.949 L2004.63 249.862 L2018.47 249.783 L2032.31 249.711 L2046.15 249.644 L2059.98 249.583 L2073.82 249.525 L2087.66 249.47 L2101.5 249.416 L2115.33 249.364 L2129.17 249.312 L2143.01 249.264 L2156.85 249.218 L2170.69 249.175 L2184.52 249.135 L2198.36 249.098 L2212.2 249.064 L2226.04 249.032 L2239.87 249.003 L2253.71 248.977 L2267.55 248.953 L2281.39 248.931 L2295.23 248.912 L2309.06 248.894 L2322.9 248.877 L2336.74 248.862 L2350.58 248.848 L2364.42 248.835 L2378.25 248.824 L2392.09 248.813 L2405.93 248.803 L2419.77 248.793 L2433.6 248.783 L2447.44 248.772 L2461.28 248.762 L2475.12 248.751 L2488.96 248.741 L2502.79 248.732 L2516.63 248.723 L2530.47 248.714 L2544.31 248.706 L2558.14 248.698 L2571.98 248.691 L2585.82 248.685 L2599.66 248.679 L2613.5 248.674 L2627.33 248.67 L2641.17 248.666 L2655.01 248.663 L2668.85 248.66 L2682.69 248.658 L2696.52 248.657 L2710.36 248.656 L2724.2 248.655 L2738.04 248.655 L2751.87 248.655 L2765.71 248.656 L2779.55 248.656 L2793.39 248.657 L2807.23 248.658 L2821.06 248.658 L2834.9 248.659 L2848.74 248.659 L2862.58 248.659 L2876.41 248.658 L2890.25 248.656 L2904.09 248.655 L2917.93 248.653 L2931.77 248.652 L2945.6 248.65 L2959.44 248.649 L2973.28 248.648 L2987.12 248.647 L3000.96 248.646 L3014.79 248.645 L3028.63 248.644 L3042.47 248.643 L3056.31 248.642 L3070.14 248.641 L3070.14 199.866 L3056.31 199.866 L3042.47 199.867 L3028.63 199.868 L3014.79 199.869 L3000.96 199.869 L2987.12 199.87 L2973.28 199.87 L2959.44 199.869 L2945.6 199.869 L2931.77 199.868 L2917.93 199.867 L2904.09 199.867 L2890.25 199.866 L2876.41 199.865 L2862.58 199.865 L2848.74 199.864 L2834.9 199.864 L2821.06 199.864 L2807.23 199.864 L2793.39 199.865 L2779.55 199.865 L2765.71 199.867 L2751.87 199.868 L2738.04 199.87 L2724.2 199.872 L2710.36 199.874 L2696.52 199.876 L2682.69 199.879 L2668.85 199.882 L2655.01 199.885 L2641.17 199.888 L2627.33 199.892 L2613.5 199.895 L2599.66 199.899 L2585.82 199.903 L2571.98 199.908 L2558.14 199.912 L2544.31 199.916 L2530.47 199.921 L2516.63 199.925 L2502.79 199.929 L2488.96 199.932 L2475.12 199.935 L2461.28 199.939 L2447.44 199.943 L2433.6 199.948 L2419.77 199.953 L2405.93 199.959 L2392.09 199.966 L2378.25 199.974 L2364.42 199.983 L2350.58 199.993 L2336.74 200.005 L2322.9 200.017 L2309.06 200.032 L2295.23 200.047 L2281.39 200.064 L2267.55 200.082 L2253.71 200.102 L2239.87 200.123 L2226.04 200.146 L2212.2 200.171 L2198.36 200.197 L2184.52 200.224 L2170.69 200.254 L2156.85 200.285 L2143.01 200.317 L2129.17 200.351 L2115.33 200.386 L2101.5 200.423 L2087.66 200.464 L2073.82 200.508 L2059.98 200.556 L2046.15 200.608 L2032.31 200.666 L2018.47 200.729 L2004.63 200.799 L1990.79 200.876 L1976.96 200.961 L1963.12 201.053 L1949.28 201.154 L1935.44 201.263 L1921.61 201.382 L1907.77 201.51 L1893.93 201.647 L1880.09 201.796 L1866.25 201.955 L1852.42 202.125 L1838.58 202.305 L1824.74 202.497 L1810.9 202.703 L1797.06 202.923 L1783.23 203.161 L1769.39 203.417 L1755.55 203.695 L1741.71 203.995 L1727.88 204.39 L1714.04 204.833 L1700.2 205.311 L1686.36 205.828 L1672.52 206.388 L1658.69 206.993 L1644.85 207.653 L1631.01 208.385 L1617.17 209.186 L1603.34 210.053 L1589.5 210.987 L1575.66 211.993 L1561.82 212.931 L1547.98 213.795 L1534.15 214.726 L1520.31 215.945 L1506.47 217.14 L1492.63 218.311 L1478.79 219.827 L1464.96 221.266 L1451.12 222.818 L1437.28 224.634 L1423.44 226.66 L1409.61 228.587 L1395.77 230.665 L1381.93 232.902 L1368.09 235.309 L1354.25 237.896 L1340.42 240.494 L1326.58 243.48 L1312.74 246.607 L1298.9 250.34 L1285.07 253.981 L1271.23 257.61 L1257.39 261.618 L1243.55 266.964 L1229.71 271.943 L1215.88 277.177 L1202.04 283.004 L1188.2 289.181 L1174.36 295.593 L1160.53 302.678 L1146.69 310.1 L1132.85 317.224 L1119.01 325.876 L1105.17 335.925 L1091.34 345.706 L1077.5 355.747 L1063.66 366.106 L1049.82 378.247 L1035.98 391.313 L1022.15 404.253 L1008.31 418.054 L994.471 433.304 L980.633 448.561 L966.796 464.168 L952.958 481.038 L939.12 500.291 L925.282 520.4 L911.444 541.576 L897.606 563.903 L883.769 585.671 L869.931 608.935 L856.093 635.45 L842.255 662.019 L828.417 689.591 L814.58 717.415 L800.742 746.708 L786.904 777.264 L773.066 808.596 L759.228 841.47 L745.39 875.956 L731.553 911.11 L717.715 947.463 L703.877 984.843 L690.039 1022.77 L676.201 1061.93 L662.364 1102.14 L648.526 1142.41 L634.688 1183.7 L620.85 1225.45 L607.012 1266.55 L593.174 1307.88 L579.337 1349.33 L565.499 1390.77 L551.661 1432.38 L537.823 1473.84 L523.985 1514.97 L510.148 1555.77 L496.31 1595.63 L482.472 1634.68 L468.634 1673.11 L454.796 1710.78 L440.958 1748.1 L427.121 1784.23 L413.283 1818.87 L399.445 1852.38 L385.607 1884.72 L371.769 1915.87 L357.932 1945.81 L344.094 1974.53 L330.256 2002.03 L316.418 2028.3  Z" fill="#e26f46" fill-rule="evenodd" fill-opacity="0.2"/>
<polyline clip-path="url(#clip612)" style="stroke:#e26f46; stroke-linecap:round; stroke-linejoin:round; stroke-width:12; stroke-opacity:1; fill:none" points="316.418,2081.47 330.256,2057.81 344.094,2032.88 357.932,2006.84 371.769,1979.63 385.607,1951.14 399.445,1921.44 413.283,1890.54 427.121,1858.45 440.958,1825.42 454.796,1791.32 468.634,1756.17 482.472,1720.01 496.31,1682.62 510.148,1644.34 523.985,1605.25 537.823,1565.45 551.661,1525 565.499,1484.08 579.337,1442.73 593.174,1401.08 607.012,1359.18 620.85,1317.12 634.688,1275.21 648.526,1233.83 662.364,1192.76 676.201,1151.79 690.039,1110.52 703.877,1069.91 717.715,1030.91 731.553,992.583 745.39,955.01 759.228,918.07 773.066,882.137 786.904,847.351 800.742,814.009 814.58,782.682 828.417,751.532 842.255,722.321 856.093,694.312 869.931,667.507 883.769,641.961 897.606,616.69 911.444,593.523 925.282,571.571 939.12,549.716 952.958,529.036 966.796,510.696 980.633,492.608 994.471,474.43 1008.31,457.438 1022.15,442.697 1035.98,428.087 1049.82,414.541 1063.66,401.425 1077.5,390.11 1091.34,379.605 1105.17,369.338 1119.01,359.84 1132.85,350.789 1146.69,341.949 1160.53,334.135 1174.36,326.817 1188.2,320.237 1202.04,314.018 1215.88,308.093 1229.71,302.056 1243.55,296.405 1257.39,291.092 1271.23,286.29 1285.07,281.862 1298.9,277.739 1312.74,273.675 1326.58,269.96 1340.42,266.977 1354.25,264.139 1368.09,261.381 1381.93,258.607 1395.77,256.228 1409.61,253.918 1423.44,251.822 1437.28,249.904 1451.12,248.128 1464.96,246.482 1478.79,244.982 1492.63,243.545 1506.47,242.066 1520.31,240.782 1534.15,239.667 1547.98,238.682 1561.82,237.766 1575.66,236.912 1589.5,236.118 1603.34,235.327 1617.17,234.598 1631.01,233.928 1644.85,233.349 1658.69,232.818 1672.52,232.327 1686.36,231.873 1700.2,231.453 1714.04,231.066 1727.88,230.708 1741.71,230.378 1755.55,230.072 1769.39,229.789 1783.23,229.542 1797.06,229.319 1810.9,229.085 1824.74,228.838 1838.58,228.608 1852.42,228.391 1866.25,228.189 1880.09,228.003 1893.93,227.835 1907.77,227.703 1921.61,227.581 1935.44,227.467 1949.28,227.362 1963.12,227.265 1976.96,227.177 1990.79,227.096 2004.63,227.023 2018.47,226.957 2032.31,226.897 2046.15,226.841 2059.98,226.791 2073.82,226.746 2087.66,226.704 2101.5,226.665 2115.33,226.629 2129.17,226.594 2143.01,226.562 2156.85,226.531 2170.69,226.5 2184.52,226.47 2198.36,226.442 2212.2,226.415 2226.04,226.389 2239.87,226.365 2253.71,226.343 2267.55,226.323 2281.39,226.304 2295.23,226.288 2309.06,226.272 2322.9,226.259 2336.74,226.247 2350.58,226.236 2364.42,226.227 2378.25,226.218 2392.09,226.212 2405.93,226.206 2419.77,226.2 2433.6,226.196 2447.44,226.192 2461.28,226.189 2475.12,226.186 2488.96,226.183 2502.79,226.18 2516.63,226.176 2530.47,226.171 2544.31,226.167 2558.14,226.162 2571.98,226.157 2585.82,226.152 2599.66,226.147 2613.5,226.142 2627.33,226.138 2641.17,226.134 2655.01,226.13 2668.85,226.127 2682.69,226.123 2696.52,226.12 2710.36,226.118 2724.2,226.116 2738.04,226.114 2751.87,226.112 2765.71,226.111 2779.55,226.111 2793.39,226.11 2807.23,226.11 2821.06,226.11 2834.9,226.11 2848.74,226.111 2862.58,226.112 2876.41,226.113 2890.25,226.114 2904.09,226.115 2917.93,226.116 2931.77,226.117 2945.6,226.117 2959.44,226.118 2973.28,226.118 2987.12,226.119 3000.96,226.118 3014.79,226.117 3028.63,226.116 3042.47,226.115 3056.31,226.115 3070.14,226.114 "/>
<path clip-path="url(#clip610)" d="M2663.79 2135.47 L3055.46 2135.47 L3055.46 1979.95 L2663.79 1979.95  Z" fill="#eaeaea" fill-rule="evenodd" fill-opacity="1"/>
<polyline clip-path="url(#clip610)" style="stroke:#ffffff; stroke-linecap:round; stroke-linejoin:round; stroke-width:4; stroke-opacity:1; fill:none" points="2663.79,2135.47 3055.46,2135.47 3055.46,1979.95 2663.79,1979.95 2663.79,2135.47 "/>
<polyline clip-path="url(#clip610)" style="stroke:#009af9; stroke-linecap:round; stroke-linejoin:round; stroke-width:12; stroke-opacity:1; fill:none" points="2696.23,2031.79 2890.82,2031.79 "/>
<path clip-path="url(#clip610)" d="M2925.48 2048.35 L2925.48 2044.09 Q2927.24 2044.92 2929.04 2045.36 Q2930.85 2045.8 2932.59 2045.8 Q2937.22 2045.8 2939.65 2042.7 Q2942.1 2039.58 2942.45 2033.23 Q2941.1 2035.22 2939.04 2036.29 Q2936.98 2037.35 2934.48 2037.35 Q2929.3 2037.35 2926.27 2034.23 Q2923.26 2031.08 2923.26 2025.64 Q2923.26 2020.32 2926.4 2017.1 Q2929.55 2013.88 2934.78 2013.88 Q2940.78 2013.88 2943.93 2018.49 Q2947.1 2023.07 2947.1 2031.82 Q2947.1 2039.99 2943.21 2044.88 Q2939.34 2049.74 2932.79 2049.74 Q2931.03 2049.74 2929.23 2049.39 Q2927.42 2049.04 2925.48 2048.35 M2934.78 2033.7 Q2937.93 2033.7 2939.76 2031.54 Q2941.61 2029.39 2941.61 2025.64 Q2941.61 2021.91 2939.76 2019.76 Q2937.93 2017.58 2934.78 2017.58 Q2931.64 2017.58 2929.78 2019.76 Q2927.96 2021.91 2927.96 2025.64 Q2927.96 2029.39 2929.78 2031.54 Q2931.64 2033.7 2934.78 2033.7 Z" fill="#000000" fill-rule="nonzero" fill-opacity="1" /><path clip-path="url(#clip610)" d="M2955.55 2014.51 L2973.9 2014.51 L2973.9 2018.44 L2959.83 2018.44 L2959.83 2026.91 Q2960.85 2026.57 2961.87 2026.4 Q2962.89 2026.22 2963.9 2026.22 Q2969.69 2026.22 2973.07 2029.39 Q2976.45 2032.56 2976.45 2037.98 Q2976.45 2043.56 2972.98 2046.66 Q2969.51 2049.74 2963.19 2049.74 Q2961.01 2049.74 2958.74 2049.37 Q2956.5 2049 2954.09 2048.26 L2954.09 2043.56 Q2956.17 2044.69 2958.4 2045.25 Q2960.62 2045.8 2963.09 2045.8 Q2967.1 2045.8 2969.44 2043.7 Q2971.78 2041.59 2971.78 2037.98 Q2971.78 2034.37 2969.44 2032.26 Q2967.1 2030.15 2963.09 2030.15 Q2961.22 2030.15 2959.34 2030.57 Q2957.49 2030.99 2955.55 2031.87 L2955.55 2014.51 Z" fill="#000000" fill-rule="nonzero" fill-opacity="1" /><path clip-path="url(#clip610)" d="M3015.06 2033.86 Q3013.05 2033.86 3011.89 2035.57 Q3010.76 2037.28 3010.76 2040.34 Q3010.76 2043.35 3011.89 2045.08 Q3013.05 2046.8 3015.06 2046.8 Q3017.03 2046.8 3018.16 2045.08 Q3019.32 2043.35 3019.32 2040.34 Q3019.32 2037.31 3018.16 2035.59 Q3017.03 2033.86 3015.06 2033.86 M3015.06 2030.92 Q3018.72 2030.92 3020.87 2033.46 Q3023.02 2036.01 3023.02 2040.34 Q3023.02 2044.67 3020.85 2047.21 Q3018.7 2049.74 3015.06 2049.74 Q3011.36 2049.74 3009.21 2047.21 Q3007.05 2044.67 3007.05 2040.34 Q3007.05 2035.99 3009.21 2033.46 Q3011.38 2030.92 3015.06 2030.92 M2991.17 2016.82 Q2989.18 2016.82 2988.02 2018.56 Q2986.89 2020.27 2986.89 2023.28 Q2986.89 2026.33 2988.02 2028.05 Q2989.16 2029.76 2991.17 2029.76 Q2993.19 2029.76 2994.32 2028.05 Q2995.48 2026.33 2995.48 2023.28 Q2995.48 2020.29 2994.32 2018.56 Q2993.16 2016.82 2991.17 2016.82 M3012.08 2013.88 L3015.78 2013.88 L2994.16 2049.74 L2990.46 2049.74 L3012.08 2013.88 M2991.17 2013.88 Q2994.83 2013.88 2997.01 2016.43 Q2999.18 2018.95 2999.18 2023.28 Q2999.18 2027.65 2997.01 2030.18 Q2994.85 2032.7 2991.17 2032.7 Q2987.49 2032.7 2985.34 2030.18 Q2983.21 2027.63 2983.21 2023.28 Q2983.21 2018.97 2985.36 2016.43 Q2987.52 2013.88 2991.17 2013.88 Z" fill="#000000" fill-rule="nonzero" fill-opacity="1" /><polyline clip-path="url(#clip610)" style="stroke:#e26f46; stroke-linecap:round; stroke-linejoin:round; stroke-width:12; stroke-opacity:1; fill:none" points="2696.23,2083.63 2890.82,2083.63 "/>
<path clip-path="url(#clip610)" d="M2935.59 2081.76 Q2932.45 2081.76 2930.59 2083.92 Q2928.77 2086.07 2928.77 2089.82 Q2928.77 2093.55 2930.59 2095.72 Q2932.45 2097.87 2935.59 2097.87 Q2938.74 2097.87 2940.57 2095.72 Q2942.42 2093.55 2942.42 2089.82 Q2942.42 2086.07 2940.57 2083.92 Q2938.74 2081.76 2935.59 2081.76 M2944.88 2067.11 L2944.88 2071.37 Q2943.12 2070.54 2941.31 2070.1 Q2939.53 2069.66 2937.77 2069.66 Q2933.14 2069.66 2930.69 2072.78 Q2928.26 2075.91 2927.91 2082.23 Q2929.28 2080.21 2931.34 2079.15 Q2933.4 2078.06 2935.87 2078.06 Q2941.08 2078.06 2944.09 2081.23 Q2947.12 2084.38 2947.12 2089.82 Q2947.12 2095.14 2943.97 2098.36 Q2940.83 2101.58 2935.59 2101.58 Q2929.6 2101.58 2926.43 2096.99 Q2923.26 2092.39 2923.26 2083.66 Q2923.26 2075.47 2927.15 2070.61 Q2931.03 2065.72 2937.59 2065.72 Q2939.34 2065.72 2941.13 2066.07 Q2942.93 2066.42 2944.88 2067.11 Z" fill="#000000" fill-rule="nonzero" fill-opacity="1" /><path clip-path="url(#clip610)" d="M2965.18 2084.49 Q2961.84 2084.49 2959.92 2086.28 Q2958.03 2088.06 2958.03 2091.18 Q2958.03 2094.31 2959.92 2096.09 Q2961.84 2097.87 2965.18 2097.87 Q2968.51 2097.87 2970.43 2096.09 Q2972.35 2094.29 2972.35 2091.18 Q2972.35 2088.06 2970.43 2086.28 Q2968.53 2084.49 2965.18 2084.49 M2960.5 2082.5 Q2957.49 2081.76 2955.8 2079.7 Q2954.14 2077.64 2954.14 2074.68 Q2954.14 2070.54 2957.08 2068.13 Q2960.04 2065.72 2965.18 2065.72 Q2970.34 2065.72 2973.28 2068.13 Q2976.22 2070.54 2976.22 2074.68 Q2976.22 2077.64 2974.53 2079.7 Q2972.86 2081.76 2969.88 2082.5 Q2973.26 2083.29 2975.13 2085.58 Q2977.03 2087.87 2977.03 2091.18 Q2977.03 2096.21 2973.95 2098.89 Q2970.9 2101.58 2965.18 2101.58 Q2959.46 2101.58 2956.38 2098.89 Q2953.33 2096.21 2953.33 2091.18 Q2953.33 2087.87 2955.22 2085.58 Q2957.12 2083.29 2960.5 2082.5 M2958.79 2075.12 Q2958.79 2077.8 2960.46 2079.31 Q2962.15 2080.81 2965.18 2080.81 Q2968.19 2080.81 2969.88 2079.31 Q2971.59 2077.8 2971.59 2075.12 Q2971.59 2072.43 2969.88 2070.93 Q2968.19 2069.42 2965.18 2069.42 Q2962.15 2069.42 2960.46 2070.93 Q2958.79 2072.43 2958.79 2075.12 Z" fill="#000000" fill-rule="nonzero" fill-opacity="1" /><path clip-path="url(#clip610)" d="M3014.74 2085.7 Q3012.72 2085.7 3011.57 2087.41 Q3010.43 2089.12 3010.43 2092.18 Q3010.43 2095.19 3011.57 2096.92 Q3012.72 2098.64 3014.74 2098.64 Q3016.71 2098.64 3017.84 2096.92 Q3019 2095.19 3019 2092.18 Q3019 2089.15 3017.84 2087.43 Q3016.71 2085.7 3014.74 2085.7 M3014.74 2082.76 Q3018.4 2082.76 3020.55 2085.3 Q3022.7 2087.85 3022.7 2092.18 Q3022.7 2096.51 3020.52 2099.05 Q3018.37 2101.58 3014.74 2101.58 Q3011.03 2101.58 3008.88 2099.05 Q3006.73 2096.51 3006.73 2092.18 Q3006.73 2087.83 3008.88 2085.3 Q3011.06 2082.76 3014.74 2082.76 M2990.85 2068.66 Q2988.86 2068.66 2987.7 2070.4 Q2986.57 2072.11 2986.57 2075.12 Q2986.57 2078.17 2987.7 2079.89 Q2988.84 2081.6 2990.85 2081.6 Q2992.86 2081.6 2994 2079.89 Q2995.15 2078.17 2995.15 2075.12 Q2995.15 2072.13 2994 2070.4 Q2992.84 2068.66 2990.85 2068.66 M3011.75 2065.72 L3015.46 2065.72 L2993.84 2101.58 L2990.13 2101.58 L3011.75 2065.72 M2990.85 2065.72 Q2994.51 2065.72 2996.68 2068.27 Q2998.86 2070.79 2998.86 2075.12 Q2998.86 2079.49 2996.68 2082.02 Q2994.53 2084.54 2990.85 2084.54 Q2987.17 2084.54 2985.02 2082.02 Q2982.89 2079.47 2982.89 2075.12 Q2982.89 2070.81 2985.04 2068.27 Q2987.19 2065.72 2990.85 2065.72 Z" fill="#000000" fill-rule="nonzero" fill-opacity="1" /></svg>
