<?xml version="1.0" encoding="utf-8"?>
<svg xmlns="http://www.w3.org/2000/svg" xmlns:xlink="http://www.w3.org/1999/xlink" width="800" height="600" viewBox="0 0 3200 2400">
<defs>
  <clipPath id="clip210">
    <rect x="0" y="0" width="3200" height="2400"/>
  </clipPath>
</defs>
<path clip-path="url(#clip210)" d="M0 2400 L3200 2400 L3200 0 L0 0  Z" fill="#ffffff" fill-rule="evenodd" fill-opacity="1"/>
<defs>
  <clipPath id="clip211">
    <rect x="640" y="0" width="2241" height="2241"/>
  </clipPath>
</defs>
<path clip-path="url(#clip210)" d="M233.806 2204.92 L3152.76 2204.92 L3152.76 121.312 L233.806 121.312  Z" fill="#eaeaea" fill-rule="evenodd" fill-opacity="1"/>
<defs>
  <clipPath id="clip212">
    <rect x="233" y="121" width="2920" height="2085"/>
  </clipPath>
</defs>
<polyline clip-path="url(#clip212)" style="stroke:#ffffff; stroke-linecap:round; stroke-linejoin:round; stroke-width:4; stroke-opacity:1; fill:none" points="316.418,2204.92 316.418,121.312 "/>
<polyline clip-path="url(#clip212)" style="stroke:#ffffff; stroke-linecap:round; stroke-linejoin:round; stroke-width:4; stroke-opacity:1; fill:none" points="867.163,2204.92 867.163,121.312 "/>
<polyline clip-path="url(#clip212)" style="stroke:#ffffff; stroke-linecap:round; stroke-linejoin:round; stroke-width:4; stroke-opacity:1; fill:none" points="1417.91,2204.92 1417.91,121.312 "/>
<polyline clip-path="url(#clip212)" style="stroke:#ffffff; stroke-linecap:round; stroke-linejoin:round; stroke-width:4; stroke-opacity:1; fill:none" points="1968.65,2204.92 1968.65,121.312 "/>
<polyline clip-path="url(#clip212)" style="stroke:#ffffff; stroke-linecap:round; stroke-linejoin:round; stroke-width:4; stroke-opacity:1; fill:none" points="2519.4,2204.92 2519.4,121.312 "/>
<polyline clip-path="url(#clip212)" style="stroke:#ffffff; stroke-linecap:round; stroke-linejoin:round; stroke-width:4; stroke-opacity:1; fill:none" points="3070.14,2204.92 3070.14,121.312 "/>
<polyline clip-path="url(#clip212)" style="stroke:#ffffff; stroke-linecap:round; stroke-linejoin:round; stroke-width:2; stroke-opacity:1; fill:none" points="591.791,2204.92 591.791,121.312 "/>
<polyline clip-path="url(#clip212)" style="stroke:#ffffff; stroke-linecap:round; stroke-linejoin:round; stroke-width:2; stroke-opacity:1; fill:none" points="1142.54,2204.92 1142.54,121.312 "/>
<polyline clip-path="url(#clip212)" style="stroke:#ffffff; stroke-linecap:round; stroke-linejoin:round; stroke-width:2; stroke-opacity:1; fill:none" points="1693.28,2204.92 1693.28,121.312 "/>
<polyline clip-path="url(#clip212)" style="stroke:#ffffff; stroke-linecap:round; stroke-linejoin:round; stroke-width:2; stroke-opacity:1; fill:none" points="2244.03,2204.92 2244.03,121.312 "/>
<polyline clip-path="url(#clip212)" style="stroke:#ffffff; stroke-linecap:round; stroke-linejoin:round; stroke-width:2; stroke-opacity:1; fill:none" points="2794.77,2204.92 2794.77,121.312 "/>
<polyline clip-path="url(#clip210)" style="stroke:#ffffff; stroke-linecap:round; stroke-linejoin:round; stroke-width:4; stroke-opacity:1; fill:none" points="233.806,2204.92 3152.76,2204.92 "/>
<polyline clip-path="url(#clip210)" style="stroke:#333333; stroke-linecap:round; stroke-linejoin:round; stroke-width:4; stroke-opacity:1; fill:none" points="316.418,2204.92 316.418,2223.82 "/>
<polyline clip-path="url(#clip210)" style="stroke:#333333; stroke-linecap:round; stroke-linejoin:round; stroke-width:4; stroke-opacity:1; fill:none" points="867.163,2204.92 867.163,2223.82 "/>
<polyline clip-path="url(#clip210)" style="stroke:#333333; stroke-linecap:round; stroke-linejoin:round; stroke-width:4; stroke-opacity:1; fill:none" points="1417.91,2204.92 1417.91,2223.82 "/>
<polyline clip-path="url(#clip210)" style="stroke:#333333; stroke-linecap:round; stroke-linejoin:round; stroke-width:4; stroke-opacity:1; fill:none" points="1968.65,2204.92 1968.65,2223.82 "/>
<polyline clip-path="url(#clip210)" style="stroke:#333333; stroke-linecap:round; stroke-linejoin:round; stroke-width:4; stroke-opacity:1; fill:none" points="2519.4,2204.92 2519.4,2223.82 "/>
<polyline clip-path="url(#clip210)" style="stroke:#333333; stroke-linecap:round; stroke-linejoin:round; stroke-width:4; stroke-opacity:1; fill:none" points="3070.14,2204.92 3070.14,2223.82 "/>
<polyline clip-path="url(#clip210)" style="stroke:#333333; stroke-linecap:round; stroke-linejoin:round; stroke-width:4; stroke-opacity:1; fill:none" points="591.791,2204.92 591.791,2214.37 "/>
<polyline clip-path="url(#clip210)" style="stroke:#333333; stroke-linecap:round; stroke-linejoin:round; stroke-width:4; stroke-opacity:1; fill:none" points="1142.54,2204.92 1142.54,2214.37 "/>
<polyline clip-path="url(#clip210)" style="stroke:#333333; stroke-linecap:round; stroke-linejoin:round; stroke-width:4; stroke-opacity:1; fill:none" points="1693.28,2204.92 1693.28,2214.37 "/>
<polyline clip-path="url(#clip210)" style="stroke:#333333; stroke-linecap:round; stroke-linejoin:round; stroke-width:4; stroke-opacity:1; fill:none" points="2244.03,2204.92 2244.03,2214.37 "/>
<polyline clip-path="url(#clip210)" style="stroke:#333333; stroke-linecap:round; stroke-linejoin:round; stroke-width:4; stroke-opacity:1; fill:none" points="2794.77,2204.92 2794.77,2214.37 "/>
<path clip-path="url(#clip210)" d="M316.418 2255.04 Q312.807 2255.04 310.978 2258.6 Q309.173 2262.14 309.173 2269.27 Q309.173 2276.38 310.978 2279.95 Q312.807 2283.49 316.418 2283.49 Q320.052 2283.49 321.858 2279.95 Q323.687 2276.38 323.687 2269.27 Q323.687 2262.14 321.858 2258.6 Q320.052 2255.04 316.418 2255.04 M316.418 2251.33 Q322.228 2251.33 325.284 2255.94 Q328.362 2260.52 328.362 2269.27 Q328.362 2278 325.284 2282.61 Q322.228 2287.19 316.418 2287.19 Q310.608 2287.19 307.529 2282.61 Q304.474 2278 304.474 2269.27 Q304.474 2260.52 307.529 2255.94 Q310.608 2251.33 316.418 2251.33 Z" fill="#4c4c4c" fill-rule="nonzero" fill-opacity="1" /><path clip-path="url(#clip210)" d="M857.545 2282.58 L865.184 2282.58 L865.184 2256.22 L856.874 2257.89 L856.874 2253.63 L865.138 2251.96 L869.814 2251.96 L869.814 2282.58 L877.453 2282.58 L877.453 2286.52 L857.545 2286.52 L857.545 2282.58 Z" fill="#4c4c4c" fill-rule="nonzero" fill-opacity="1" /><path clip-path="url(#clip210)" d="M1412.56 2282.58 L1428.88 2282.58 L1428.88 2286.52 L1406.94 2286.52 L1406.94 2282.58 Q1409.6 2279.83 1414.18 2275.2 Q1418.79 2270.55 1419.97 2269.21 Q1422.21 2266.68 1423.09 2264.95 Q1424 2263.19 1424 2261.5 Q1424 2258.74 1422.05 2257.01 Q1420.13 2255.27 1417.03 2255.27 Q1414.83 2255.27 1412.38 2256.03 Q1409.95 2256.8 1407.17 2258.35 L1407.17 2253.63 Q1409.99 2252.49 1412.45 2251.91 Q1414.9 2251.33 1416.94 2251.33 Q1422.31 2251.33 1425.5 2254.02 Q1428.7 2256.71 1428.7 2261.2 Q1428.7 2263.33 1427.89 2265.25 Q1427.1 2267.14 1424.99 2269.74 Q1424.41 2270.41 1421.31 2273.63 Q1418.21 2276.82 1412.56 2282.58 Z" fill="#4c4c4c" fill-rule="nonzero" fill-opacity="1" /><path clip-path="url(#clip210)" d="M1972.9 2267.89 Q1976.26 2268.6 1978.13 2270.87 Q1980.03 2273.14 1980.03 2276.47 Q1980.03 2281.59 1976.51 2284.39 Q1972.99 2287.19 1966.51 2287.19 Q1964.34 2287.19 1962.02 2286.75 Q1959.73 2286.33 1957.28 2285.48 L1957.28 2280.96 Q1959.22 2282.1 1961.54 2282.68 Q1963.85 2283.26 1966.37 2283.26 Q1970.77 2283.26 1973.06 2281.52 Q1975.38 2279.78 1975.38 2276.47 Q1975.38 2273.42 1973.23 2271.71 Q1971.1 2269.97 1967.28 2269.97 L1963.25 2269.97 L1963.25 2266.13 L1967.46 2266.13 Q1970.91 2266.13 1972.74 2264.76 Q1974.57 2263.37 1974.57 2260.78 Q1974.57 2258.12 1972.67 2256.71 Q1970.79 2255.27 1967.28 2255.27 Q1965.36 2255.27 1963.16 2255.69 Q1960.96 2256.1 1958.32 2256.98 L1958.32 2252.82 Q1960.98 2252.08 1963.29 2251.71 Q1965.63 2251.33 1967.69 2251.33 Q1973.02 2251.33 1976.12 2253.77 Q1979.22 2256.17 1979.22 2260.29 Q1979.22 2263.16 1977.58 2265.15 Q1975.93 2267.12 1972.9 2267.89 Z" fill="#4c4c4c" fill-rule="nonzero" fill-opacity="1" /><path clip-path="url(#clip210)" d="M2522.41 2256.03 L2510.6 2274.48 L2522.41 2274.48 L2522.41 2256.03 M2521.18 2251.96 L2527.06 2251.96 L2527.06 2274.48 L2531.99 2274.48 L2531.99 2278.37 L2527.06 2278.37 L2527.06 2286.52 L2522.41 2286.52 L2522.41 2278.37 L2506.81 2278.37 L2506.81 2273.86 L2521.18 2251.96 Z" fill="#4c4c4c" fill-rule="nonzero" fill-opacity="1" /><path clip-path="url(#clip210)" d="M3060.42 2251.96 L3078.78 2251.96 L3078.78 2255.9 L3064.7 2255.9 L3064.7 2264.37 Q3065.72 2264.02 3066.74 2263.86 Q3067.76 2263.67 3068.78 2263.67 Q3074.57 2263.67 3077.95 2266.84 Q3081.32 2270.02 3081.32 2275.43 Q3081.32 2281.01 3077.85 2284.11 Q3074.38 2287.19 3068.06 2287.19 Q3065.88 2287.19 3063.62 2286.82 Q3061.37 2286.45 3058.96 2285.71 L3058.96 2281.01 Q3061.05 2282.14 3063.27 2282.7 Q3065.49 2283.26 3067.97 2283.26 Q3071.97 2283.26 3074.31 2281.15 Q3076.65 2279.04 3076.65 2275.43 Q3076.65 2271.82 3074.31 2269.71 Q3071.97 2267.61 3067.97 2267.61 Q3066.09 2267.61 3064.22 2268.02 Q3062.37 2268.44 3060.42 2269.32 L3060.42 2251.96 Z" fill="#4c4c4c" fill-rule="nonzero" fill-opacity="1" /><path clip-path="url(#clip210)" d="M1692.34 2316.01 L1692.34 2326.14 L1704.41 2326.14 L1704.41 2330.69 L1692.34 2330.69 L1692.34 2350.04 Q1692.34 2354.4 1693.52 2355.64 Q1694.73 2356.88 1698.39 2356.88 L1704.41 2356.88 L1704.41 2361.78 L1698.39 2361.78 Q1691.61 2361.78 1689.03 2359.27 Q1686.45 2356.72 1686.45 2350.04 L1686.45 2330.69 L1682.16 2330.69 L1682.16 2326.14 L1686.45 2326.14 L1686.45 2316.01 L1692.34 2316.01 Z" fill="#000000" fill-rule="nonzero" fill-opacity="1" /><polyline clip-path="url(#clip212)" style="stroke:#ffffff; stroke-linecap:round; stroke-linejoin:round; stroke-width:4; stroke-opacity:1; fill:none" points="233.806,2154.05 3152.76,2154.05 "/>
<polyline clip-path="url(#clip212)" style="stroke:#ffffff; stroke-linecap:round; stroke-linejoin:round; stroke-width:4; stroke-opacity:1; fill:none" points="233.806,1857.13 3152.76,1857.13 "/>
<polyline clip-path="url(#clip212)" style="stroke:#ffffff; stroke-linecap:round; stroke-linejoin:round; stroke-width:4; stroke-opacity:1; fill:none" points="233.806,1560.21 3152.76,1560.21 "/>
<polyline clip-path="url(#clip212)" style="stroke:#ffffff; stroke-linecap:round; stroke-linejoin:round; stroke-width:4; stroke-opacity:1; fill:none" points="233.806,1263.29 3152.76,1263.29 "/>
<polyline clip-path="url(#clip212)" style="stroke:#ffffff; stroke-linecap:round; stroke-linejoin:round; stroke-width:4; stroke-opacity:1; fill:none" points="233.806,966.364 3152.76,966.364 "/>
<polyline clip-path="url(#clip212)" style="stroke:#ffffff; stroke-linecap:round; stroke-linejoin:round; stroke-width:4; stroke-opacity:1; fill:none" points="233.806,669.443 3152.76,669.443 "/>
<polyline clip-path="url(#clip212)" style="stroke:#ffffff; stroke-linecap:round; stroke-linejoin:round; stroke-width:4; stroke-opacity:1; fill:none" points="233.806,372.523 3152.76,372.523 "/>
<polyline clip-path="url(#clip212)" style="stroke:#ffffff; stroke-linecap:round; stroke-linejoin:round; stroke-width:2; stroke-opacity:1; fill:none" points="233.806,2005.59 3152.76,2005.59 "/>
<polyline clip-path="url(#clip212)" style="stroke:#ffffff; stroke-linecap:round; stroke-linejoin:round; stroke-width:2; stroke-opacity:1; fill:none" points="233.806,1708.67 3152.76,1708.67 "/>
<polyline clip-path="url(#clip212)" style="stroke:#ffffff; stroke-linecap:round; stroke-linejoin:round; stroke-width:2; stroke-opacity:1; fill:none" points="233.806,1411.75 3152.76,1411.75 "/>
<polyline clip-path="url(#clip212)" style="stroke:#ffffff; stroke-linecap:round; stroke-linejoin:round; stroke-width:2; stroke-opacity:1; fill:none" points="233.806,1114.82 3152.76,1114.82 "/>
<polyline clip-path="url(#clip212)" style="stroke:#ffffff; stroke-linecap:round; stroke-linejoin:round; stroke-width:2; stroke-opacity:1; fill:none" points="233.806,817.904 3152.76,817.904 "/>
<polyline clip-path="url(#clip212)" style="stroke:#ffffff; stroke-linecap:round; stroke-linejoin:round; stroke-width:2; stroke-opacity:1; fill:none" points="233.806,520.983 3152.76,520.983 "/>
<polyline clip-path="url(#clip212)" style="stroke:#ffffff; stroke-linecap:round; stroke-linejoin:round; stroke-width:2; stroke-opacity:1; fill:none" points="233.806,224.062 3152.76,224.062 "/>
<polyline clip-path="url(#clip210)" style="stroke:#ffffff; stroke-linecap:round; stroke-linejoin:round; stroke-width:4; stroke-opacity:1; fill:none" points="233.806,2204.92 233.806,121.312 "/>
<polyline clip-path="url(#clip210)" style="stroke:#333333; stroke-linecap:round; stroke-linejoin:round; stroke-width:4; stroke-opacity:1; fill:none" points="233.806,2154.05 214.909,2154.05 "/>
<polyline clip-path="url(#clip210)" style="stroke:#333333; stroke-linecap:round; stroke-linejoin:round; stroke-width:4; stroke-opacity:1; fill:none" points="233.806,1857.13 214.909,1857.13 "/>
<polyline clip-path="url(#clip210)" style="stroke:#333333; stroke-linecap:round; stroke-linejoin:round; stroke-width:4; stroke-opacity:1; fill:none" points="233.806,1560.21 214.909,1560.21 "/>
<polyline clip-path="url(#clip210)" style="stroke:#333333; stroke-linecap:round; stroke-linejoin:round; stroke-width:4; stroke-opacity:1; fill:none" points="233.806,1263.29 214.909,1263.29 "/>
<polyline clip-path="url(#clip210)" style="stroke:#333333; stroke-linecap:round; stroke-linejoin:round; stroke-width:4; stroke-opacity:1; fill:none" points="233.806,966.364 214.909,966.364 "/>
<polyline clip-path="url(#clip210)" style="stroke:#333333; stroke-linecap:round; stroke-linejoin:round; stroke-width:4; stroke-opacity:1; fill:none" points="233.806,669.443 214.909,669.443 "/>
<polyline clip-path="url(#clip210)" style="stroke:#333333; stroke-linecap:round; stroke-linejoin:round; stroke-width:4; stroke-opacity:1; fill:none" points="233.806,372.523 214.909,372.523 "/>
<polyline clip-path="url(#clip210)" style="stroke:#333333; stroke-linecap:round; stroke-linejoin:round; stroke-width:4; stroke-opacity:1; fill:none" points="233.806,2005.59 224.357,2005.59 "/>
<polyline clip-path="url(#clip210)" style="stroke:#333333; stroke-linecap:round; stroke-linejoin:round; stroke-width:4; stroke-opacity:1; fill:none" points="233.806,1708.67 224.357,1708.67 "/>
<polyline clip-path="url(#clip210)" style="stroke:#333333; stroke-linecap:round; stroke-linejoin:round; stroke-width:4; stroke-opacity:1; fill:none" points="233.806,1411.75 224.357,1411.75 "/>
<polyline clip-path="url(#clip210)" style="stroke:#333333; stroke-linecap:round; stroke-linejoin:round; stroke-width:4; stroke-opacity:1; fill:none" points="233.806,1114.82 224.357,1114.82 "/>
<polyline clip-path="url(#clip210)" style="stroke:#333333; stroke-linecap:round; stroke-linejoin:round; stroke-width:4; stroke-opacity:1; fill:none" points="233.806,817.904 224.357,817.904 "/>
<polyline clip-path="url(#clip210)" style="stroke:#333333; stroke-linecap:round; stroke-linejoin:round; stroke-width:4; stroke-opacity:1; fill:none" points="233.806,520.983 224.357,520.983 "/>
<polyline clip-path="url(#clip210)" style="stroke:#333333; stroke-linecap:round; stroke-linejoin:round; stroke-width:4; stroke-opacity:1; fill:none" points="233.806,224.062 224.357,224.062 "/>
<path clip-path="url(#clip210)" d="M106.228 2139.85 Q102.617 2139.85 100.788 2143.41 Q98.9825 2146.95 98.9825 2154.08 Q98.9825 2161.19 100.788 2164.75 Q102.617 2168.3 106.228 2168.3 Q109.862 2168.3 111.668 2164.75 Q113.496 2161.19 113.496 2154.08 Q113.496 2146.95 111.668 2143.41 Q109.862 2139.85 106.228 2139.85 M106.228 2136.14 Q112.038 2136.14 115.094 2140.75 Q118.172 2145.33 118.172 2154.08 Q118.172 2162.81 115.094 2167.42 Q112.038 2172 106.228 2172 Q100.418 2172 97.339 2167.42 Q94.2835 2162.81 94.2835 2154.08 Q94.2835 2145.33 97.339 2140.75 Q100.418 2136.14 106.228 2136.14 Z" fill="#4c4c4c" fill-rule="nonzero" fill-opacity="1" /><path clip-path="url(#clip210)" d="M126.39 2165.45 L131.274 2165.45 L131.274 2171.33 L126.39 2171.33 L126.39 2165.45 Z" fill="#4c4c4c" fill-rule="nonzero" fill-opacity="1" /><path clip-path="url(#clip210)" d="M145.487 2167.39 L161.806 2167.39 L161.806 2171.33 L139.862 2171.33 L139.862 2167.39 Q142.524 2164.64 147.107 2160.01 Q151.714 2155.36 152.894 2154.01 Q155.14 2151.49 156.019 2149.75 Q156.922 2147.99 156.922 2146.3 Q156.922 2143.55 154.978 2141.81 Q153.056 2140.08 149.954 2140.08 Q147.755 2140.08 145.302 2140.84 Q142.871 2141.61 140.093 2143.16 L140.093 2138.43 Q142.917 2137.3 145.371 2136.72 Q147.825 2136.14 149.862 2136.14 Q155.232 2136.14 158.427 2138.83 Q161.621 2141.51 161.621 2146 Q161.621 2148.13 160.811 2150.05 Q160.024 2151.95 157.917 2154.55 Q157.339 2155.22 154.237 2158.43 Q151.135 2161.63 145.487 2167.39 Z" fill="#4c4c4c" fill-rule="nonzero" fill-opacity="1" /><path clip-path="url(#clip210)" d="M104.145 1842.93 Q100.533 1842.93 98.7048 1846.49 Q96.8992 1850.03 96.8992 1857.16 Q96.8992 1864.27 98.7048 1867.83 Q100.533 1871.37 104.145 1871.37 Q107.779 1871.37 109.584 1867.83 Q111.413 1864.27 111.413 1857.16 Q111.413 1850.03 109.584 1846.49 Q107.779 1842.93 104.145 1842.93 M104.145 1839.22 Q109.955 1839.22 113.01 1843.83 Q116.089 1848.41 116.089 1857.16 Q116.089 1865.89 113.01 1870.49 Q109.955 1875.08 104.145 1875.08 Q98.3344 1875.08 95.2557 1870.49 Q92.2002 1865.89 92.2002 1857.16 Q92.2002 1848.41 95.2557 1843.83 Q98.3344 1839.22 104.145 1839.22 Z" fill="#4c4c4c" fill-rule="nonzero" fill-opacity="1" /><path clip-path="url(#clip210)" d="M124.306 1868.53 L129.191 1868.53 L129.191 1874.41 L124.306 1874.41 L124.306 1868.53 Z" fill="#4c4c4c" fill-rule="nonzero" fill-opacity="1" /><path clip-path="url(#clip210)" d="M152.223 1843.92 L140.417 1862.37 L152.223 1862.37 L152.223 1843.92 M150.996 1839.85 L156.876 1839.85 L156.876 1862.37 L161.806 1862.37 L161.806 1866.26 L156.876 1866.26 L156.876 1874.41 L152.223 1874.41 L152.223 1866.26 L136.621 1866.26 L136.621 1861.74 L150.996 1839.85 Z" fill="#4c4c4c" fill-rule="nonzero" fill-opacity="1" /><path clip-path="url(#clip210)" d="M104.469 1546 Q100.858 1546 99.0288 1549.57 Q97.2233 1553.11 97.2233 1560.24 Q97.2233 1567.35 99.0288 1570.91 Q100.858 1574.45 104.469 1574.45 Q108.103 1574.45 109.908 1570.91 Q111.737 1567.35 111.737 1560.24 Q111.737 1553.11 109.908 1549.57 Q108.103 1546 104.469 1546 M104.469 1542.3 Q110.279 1542.3 113.334 1546.91 Q116.413 1551.49 116.413 1560.24 Q116.413 1568.97 113.334 1573.57 Q110.279 1578.16 104.469 1578.16 Q98.6585 1578.16 95.5798 1573.57 Q92.5242 1568.97 92.5242 1560.24 Q92.5242 1551.49 95.5798 1546.91 Q98.6585 1542.3 104.469 1542.3 Z" fill="#4c4c4c" fill-rule="nonzero" fill-opacity="1" /><path clip-path="url(#clip210)" d="M124.631 1571.61 L129.515 1571.61 L129.515 1577.49 L124.631 1577.49 L124.631 1571.61 Z" fill="#4c4c4c" fill-rule="nonzero" fill-opacity="1" /><path clip-path="url(#clip210)" d="M150.279 1558.34 Q147.13 1558.34 145.279 1560.5 Q143.45 1562.65 143.45 1566.4 Q143.45 1570.12 145.279 1572.3 Q147.13 1574.45 150.279 1574.45 Q153.427 1574.45 155.255 1572.3 Q157.107 1570.12 157.107 1566.4 Q157.107 1562.65 155.255 1560.5 Q153.427 1558.34 150.279 1558.34 M159.561 1543.69 L159.561 1547.95 Q157.802 1547.12 155.996 1546.68 Q154.214 1546.24 152.454 1546.24 Q147.825 1546.24 145.371 1549.36 Q142.941 1552.49 142.593 1558.81 Q143.959 1556.79 146.019 1555.73 Q148.079 1554.64 150.556 1554.64 Q155.765 1554.64 158.774 1557.81 Q161.806 1560.96 161.806 1566.4 Q161.806 1571.72 158.658 1574.94 Q155.51 1578.16 150.279 1578.16 Q144.283 1578.16 141.112 1573.57 Q137.941 1568.97 137.941 1560.24 Q137.941 1552.05 141.83 1547.19 Q145.718 1542.3 152.269 1542.3 Q154.029 1542.3 155.811 1542.65 Q157.616 1543 159.561 1543.69 Z" fill="#4c4c4c" fill-rule="nonzero" fill-opacity="1" /><path clip-path="url(#clip210)" d="M104.723 1249.08 Q101.112 1249.08 99.2835 1252.65 Q97.4779 1256.19 97.4779 1263.32 Q97.4779 1270.43 99.2835 1273.99 Q101.112 1277.53 104.723 1277.53 Q108.357 1277.53 110.163 1273.99 Q111.992 1270.43 111.992 1263.32 Q111.992 1256.19 110.163 1252.65 Q108.357 1249.08 104.723 1249.08 M104.723 1245.38 Q110.533 1245.38 113.589 1249.99 Q116.668 1254.57 116.668 1263.32 Q116.668 1272.05 113.589 1276.65 Q110.533 1281.24 104.723 1281.24 Q98.9131 1281.24 95.8344 1276.65 Q92.7789 1272.05 92.7789 1263.32 Q92.7789 1254.57 95.8344 1249.99 Q98.9131 1245.38 104.723 1245.38 Z" fill="#4c4c4c" fill-rule="nonzero" fill-opacity="1" /><path clip-path="url(#clip210)" d="M124.885 1274.69 L129.769 1274.69 L129.769 1280.57 L124.885 1280.57 L124.885 1274.69 Z" fill="#4c4c4c" fill-rule="nonzero" fill-opacity="1" /><path clip-path="url(#clip210)" d="M149.954 1264.15 Q146.621 1264.15 144.7 1265.94 Q142.802 1267.72 142.802 1270.84 Q142.802 1273.97 144.7 1275.75 Q146.621 1277.53 149.954 1277.53 Q153.288 1277.53 155.209 1275.75 Q157.13 1273.94 157.13 1270.84 Q157.13 1267.72 155.209 1265.94 Q153.311 1264.15 149.954 1264.15 M145.279 1262.16 Q142.269 1261.42 140.58 1259.36 Q138.913 1257.3 138.913 1254.34 Q138.913 1250.19 141.853 1247.79 Q144.816 1245.38 149.954 1245.38 Q155.116 1245.38 158.056 1247.79 Q160.996 1250.19 160.996 1254.34 Q160.996 1257.3 159.306 1259.36 Q157.64 1261.42 154.654 1262.16 Q158.033 1262.95 159.908 1265.24 Q161.806 1267.53 161.806 1270.84 Q161.806 1275.87 158.728 1278.55 Q155.672 1281.24 149.954 1281.24 Q144.237 1281.24 141.158 1278.55 Q138.103 1275.87 138.103 1270.84 Q138.103 1267.53 140.001 1265.24 Q141.899 1262.95 145.279 1262.16 M143.566 1254.78 Q143.566 1257.46 145.232 1258.97 Q146.922 1260.47 149.954 1260.47 Q152.964 1260.47 154.654 1258.97 Q156.366 1257.46 156.366 1254.78 Q156.366 1252.09 154.654 1250.59 Q152.964 1249.08 149.954 1249.08 Q146.922 1249.08 145.232 1250.59 Q143.566 1252.09 143.566 1254.78 Z" fill="#4c4c4c" fill-rule="nonzero" fill-opacity="1" /><path clip-path="url(#clip210)" d="M95.4409 979.709 L103.08 979.709 L103.08 953.343 L94.7696 955.01 L94.7696 950.751 L103.033 949.084 L107.709 949.084 L107.709 979.709 L115.348 979.709 L115.348 983.644 L95.4409 983.644 L95.4409 979.709 Z" fill="#4c4c4c" fill-rule="nonzero" fill-opacity="1" /><path clip-path="url(#clip210)" d="M124.793 977.765 L129.677 977.765 L129.677 983.644 L124.793 983.644 L124.793 977.765 Z" fill="#4c4c4c" fill-rule="nonzero" fill-opacity="1" /><path clip-path="url(#clip210)" d="M149.862 952.163 Q146.251 952.163 144.422 955.728 Q142.617 959.269 142.617 966.399 Q142.617 973.505 144.422 977.07 Q146.251 980.612 149.862 980.612 Q153.496 980.612 155.302 977.07 Q157.13 973.505 157.13 966.399 Q157.13 959.269 155.302 955.728 Q153.496 952.163 149.862 952.163 M149.862 948.459 Q155.672 948.459 158.728 953.066 Q161.806 957.649 161.806 966.399 Q161.806 975.126 158.728 979.732 Q155.672 984.315 149.862 984.315 Q144.052 984.315 140.973 979.732 Q137.918 975.126 137.918 966.399 Q137.918 957.649 140.973 953.066 Q144.052 948.459 149.862 948.459 Z" fill="#4c4c4c" fill-rule="nonzero" fill-opacity="1" /><path clip-path="url(#clip210)" d="M97.0381 682.788 L104.677 682.788 L104.677 656.423 L96.3668 658.089 L96.3668 653.83 L104.631 652.163 L109.307 652.163 L109.307 682.788 L116.945 682.788 L116.945 686.723 L97.0381 686.723 L97.0381 682.788 Z" fill="#4c4c4c" fill-rule="nonzero" fill-opacity="1" /><path clip-path="url(#clip210)" d="M126.39 680.844 L131.274 680.844 L131.274 686.723 L126.39 686.723 L126.39 680.844 Z" fill="#4c4c4c" fill-rule="nonzero" fill-opacity="1" /><path clip-path="url(#clip210)" d="M145.487 682.788 L161.806 682.788 L161.806 686.723 L139.862 686.723 L139.862 682.788 Q142.524 680.034 147.107 675.404 Q151.714 670.751 152.894 669.409 Q155.14 666.886 156.019 665.149 Q156.922 663.39 156.922 661.7 Q156.922 658.946 154.978 657.21 Q153.056 655.474 149.954 655.474 Q147.755 655.474 145.302 656.237 Q142.871 657.001 140.093 658.552 L140.093 653.83 Q142.917 652.696 145.371 652.117 Q147.825 651.538 149.862 651.538 Q155.232 651.538 158.427 654.224 Q161.621 656.909 161.621 661.399 Q161.621 663.529 160.811 665.45 Q160.024 667.348 157.917 669.941 Q157.339 670.612 154.237 673.83 Q151.135 677.024 145.487 682.788 Z" fill="#4c4c4c" fill-rule="nonzero" fill-opacity="1" /><path clip-path="url(#clip210)" d="M94.9548 385.867 L102.594 385.867 L102.594 359.502 L94.2835 361.168 L94.2835 356.909 L102.547 355.243 L107.223 355.243 L107.223 385.867 L114.862 385.867 L114.862 389.803 L94.9548 389.803 L94.9548 385.867 Z" fill="#4c4c4c" fill-rule="nonzero" fill-opacity="1" /><path clip-path="url(#clip210)" d="M124.306 383.923 L129.191 383.923 L129.191 389.803 L124.306 389.803 L124.306 383.923 Z" fill="#4c4c4c" fill-rule="nonzero" fill-opacity="1" /><path clip-path="url(#clip210)" d="M152.223 359.317 L140.417 377.766 L152.223 377.766 L152.223 359.317 M150.996 355.243 L156.876 355.243 L156.876 377.766 L161.806 377.766 L161.806 381.654 L156.876 381.654 L156.876 389.803 L152.223 389.803 L152.223 381.654 L136.621 381.654 L136.621 377.141 L150.996 355.243 Z" fill="#4c4c4c" fill-rule="nonzero" fill-opacity="1" /><path clip-path="url(#clip210)" d="M48.597 1321.32 L67.5031 1321.32 L67.5031 1327.21 L18.2962 1327.21 L18.2962 1321.32 L23.7071 1321.32 Q20.5242 1319.47 18.9964 1316.67 Q17.4368 1313.84 17.4368 1309.93 Q17.4368 1303.43 22.5931 1299.39 Q27.7493 1295.32 36.152 1295.32 Q44.5547 1295.32 49.711 1299.39 Q54.8672 1303.43 54.8672 1309.93 Q54.8672 1313.84 53.3394 1316.67 Q51.7798 1319.47 48.597 1321.32 M36.152 1301.4 Q29.6908 1301.4 26.0305 1304.07 Q22.3384 1306.71 22.3384 1311.36 Q22.3384 1316 26.0305 1318.68 Q29.6908 1321.32 36.152 1321.32 Q42.6132 1321.32 46.3053 1318.68 Q49.9656 1316 49.9656 1311.36 Q49.9656 1306.71 46.3053 1304.07 Q42.6132 1301.4 36.152 1301.4 Z" fill="#000000" fill-rule="nonzero" fill-opacity="1" /><path clip-path="url(#clip210)" d="M22.4021 1271.79 Q22.4021 1276.51 26.0942 1279.24 Q29.7545 1281.98 36.152 1281.98 Q42.5495 1281.98 46.2417 1279.27 Q49.9019 1276.54 49.9019 1271.79 Q49.9019 1267.12 46.2098 1264.38 Q42.5177 1261.64 36.152 1261.64 Q29.8181 1261.64 26.126 1264.38 Q22.4021 1267.12 22.4021 1271.79 M17.4368 1271.79 Q17.4368 1264.16 22.4021 1259.8 Q27.3673 1255.43 36.152 1255.43 Q44.9049 1255.43 49.9019 1259.8 Q54.8672 1264.16 54.8672 1271.79 Q54.8672 1279.47 49.9019 1283.83 Q44.9049 1288.15 36.152 1288.15 Q27.3673 1288.15 22.4021 1283.83 Q17.4368 1279.47 17.4368 1271.79 Z" fill="#000000" fill-rule="nonzero" fill-opacity="1" /><path clip-path="url(#clip210)" d="M48.597 1240.06 L67.5031 1240.06 L67.5031 1245.95 L18.2962 1245.95 L18.2962 1240.06 L23.7071 1240.06 Q20.5242 1238.22 18.9964 1235.41 Q17.4368 1232.58 17.4368 1228.67 Q17.4368 1222.17 22.5931 1218.13 Q27.7493 1214.06 36.152 1214.06 Q44.5547 1214.06 49.711 1218.13 Q54.8672 1222.17 54.8672 1228.67 Q54.8672 1232.58 53.3394 1235.41 Q51.7798 1238.22 48.597 1240.06 M36.152 1220.14 Q29.6908 1220.14 26.0305 1222.81 Q22.3384 1225.45 22.3384 1230.1 Q22.3384 1234.75 26.0305 1237.42 Q29.6908 1240.06 36.152 1240.06 Q42.6132 1240.06 46.3053 1237.42 Q49.9656 1234.75 49.9656 1230.1 Q49.9656 1225.45 46.3053 1222.81 Q42.6132 1220.14 36.152 1220.14 Z" fill="#000000" fill-rule="nonzero" fill-opacity="1" /><path clip-path="url(#clip210)" d="M39.8759 1204.95 L18.2962 1204.95 L18.2962 1199.1 L39.6531 1199.1 Q44.7139 1199.1 47.2602 1197.12 Q49.7746 1195.15 49.7746 1191.2 Q49.7746 1186.46 46.7509 1183.72 Q43.7272 1180.96 38.5073 1180.96 L18.2962 1180.96 L18.2962 1175.1 L53.9442 1175.1 L53.9442 1180.96 L48.4696 1180.96 Q51.7162 1183.09 53.3076 1185.92 Q54.8672 1188.72 54.8672 1192.45 Q54.8672 1198.59 51.0478 1201.77 Q47.2283 1204.95 39.8759 1204.95 M17.4368 1190.22 L17.4368 1190.22 Z" fill="#000000" fill-rule="nonzero" fill-opacity="1" /><path clip-path="url(#clip210)" d="M4.41896 1163.04 L4.41896 1157.18 L53.9442 1157.18 L53.9442 1163.04 L4.41896 1163.04 Z" fill="#000000" fill-rule="nonzero" fill-opacity="1" /><path clip-path="url(#clip210)" d="M36.0247 1128.73 Q36.0247 1135.82 37.6479 1138.56 Q39.2712 1141.3 43.1861 1141.3 Q46.3053 1141.3 48.1514 1139.26 Q49.9656 1137.19 49.9656 1133.66 Q49.9656 1128.79 46.5281 1125.86 Q43.0588 1122.9 37.3297 1122.9 L36.0247 1122.9 L36.0247 1128.73 M33.6057 1117.04 L53.9442 1117.04 L53.9442 1122.9 L48.5333 1122.9 Q51.7798 1124.91 53.3394 1127.9 Q54.8672 1130.89 54.8672 1135.22 Q54.8672 1140.69 51.8116 1143.94 Q48.7243 1147.15 43.5681 1147.15 Q37.5525 1147.15 34.4969 1143.14 Q31.4414 1139.1 31.4414 1131.11 L31.4414 1122.9 L30.8685 1122.9 Q26.8262 1122.9 24.6301 1125.57 Q22.4021 1128.22 22.4021 1133.02 Q22.4021 1136.08 23.1341 1138.97 Q23.8662 1141.87 25.3303 1144.54 L19.9195 1144.54 Q18.6781 1141.33 18.0734 1138.31 Q17.4368 1135.28 17.4368 1132.42 Q17.4368 1124.68 21.4472 1120.86 Q25.4576 1117.04 33.6057 1117.04 Z" fill="#000000" fill-rule="nonzero" fill-opacity="1" /><path clip-path="url(#clip210)" d="M19.6648 1079.33 L25.1393 1079.33 Q23.7707 1081.81 23.1023 1084.32 Q22.4021 1086.81 22.4021 1089.35 Q22.4021 1095.05 26.0305 1098.2 Q29.6272 1101.35 36.152 1101.35 Q42.6769 1101.35 46.3053 1098.2 Q49.9019 1095.05 49.9019 1089.35 Q49.9019 1086.81 49.2335 1084.32 Q48.5333 1081.81 47.1647 1079.33 L52.5755 1079.33 Q53.7214 1081.78 54.2943 1084.42 Q54.8672 1087.03 54.8672 1089.99 Q54.8672 1098.04 49.8064 1102.78 Q44.7457 1107.53 36.152 1107.53 Q27.431 1107.53 22.4339 1102.75 Q17.4368 1097.95 17.4368 1089.61 Q17.4368 1086.9 18.0097 1084.32 Q18.5508 1081.75 19.6648 1079.33 M53.9442 1087.6 Q55.9175 1085.85 57.5726 1084.99 Q59.2595 1084.13 60.7873 1084.13 Q63.62 1084.13 65.0523 1086.04 Q66.5164 1087.95 66.5164 1091.71 Q66.5164 1093.17 66.3255 1094.57 Q66.1345 1095.94 65.7525 1097.31 L61.583 1097.31 Q62.1241 1096.23 62.3469 1095.05 Q62.6015 1093.87 62.6015 1092.38 Q62.6015 1090.5 61.8376 1089.54 Q61.0737 1088.59 59.6096 1088.59 Q58.6548 1088.59 57.2543 1089.29 Q55.8857 1089.96 53.9442 1091.39 L53.9442 1087.6 Z" fill="#000000" fill-rule="nonzero" fill-opacity="1" /><path clip-path="url(#clip210)" d="M36.0247 1052.94 Q36.0247 1060.04 37.6479 1062.78 Q39.2712 1065.51 43.1861 1065.51 Q46.3053 1065.51 48.1514 1063.48 Q49.9656 1061.41 49.9656 1057.87 Q49.9656 1053.01 46.5281 1050.08 Q43.0588 1047.12 37.3297 1047.12 L36.0247 1047.12 L36.0247 1052.94 M33.6057 1041.26 L53.9442 1041.26 L53.9442 1047.12 L48.5333 1047.12 Q51.7798 1049.12 53.3394 1052.11 Q54.8672 1055.11 54.8672 1059.43 Q54.8672 1064.91 51.8116 1068.16 Q48.7243 1071.37 43.5681 1071.37 Q37.5525 1071.37 34.4969 1067.36 Q31.4414 1063.32 31.4414 1055.33 L31.4414 1047.12 L30.8685 1047.12 Q26.8262 1047.12 24.6301 1049.79 Q22.4021 1052.43 22.4021 1057.24 Q22.4021 1060.29 23.1341 1063.19 Q23.8662 1066.09 25.3303 1068.76 L19.9195 1068.76 Q18.6781 1065.55 18.0734 1062.52 Q17.4368 1059.5 17.4368 1056.63 Q17.4368 1048.9 21.4472 1045.08 Q25.4576 1041.26 33.6057 1041.26 M10.3391 1056.51 L8.5885 1058.32 Q7.95193 1059.02 7.66547 1059.56 Q7.34718 1060.07 7.34718 1060.48 Q7.34718 1061.69 8.52484 1062.27 Q9.67067 1062.84 12.2806 1062.9 L12.2806 1066.88 Q7.98376 1066.82 5.66027 1065.2 Q3.30496 1063.57 3.30496 1060.68 Q3.30496 1059.47 3.75056 1058.45 Q4.19616 1057.43 5.2465 1056.25 L6.99707 1054.44 Q7.63364 1053.74 7.95193 1053.23 Q8.23838 1052.69 8.23838 1052.27 Q8.23838 1051.06 7.09256 1050.49 Q5.9149 1049.92 3.30496 1049.85 L3.30496 1045.88 Q7.60181 1045.94 9.95712 1047.56 Q12.2806 1049.19 12.2806 1052.08 Q12.2806 1053.29 11.835 1054.31 Q11.3894 1055.33 10.3391 1056.51 Z" fill="#000000" fill-rule="nonzero" fill-opacity="1" /><path clip-path="url(#clip210)" d="M22.4021 1015.38 Q22.4021 1020.09 26.0942 1022.83 Q29.7545 1025.57 36.152 1025.57 Q42.5495 1025.57 46.2417 1022.86 Q49.9019 1020.13 49.9019 1015.38 Q49.9019 1010.71 46.2098 1007.97 Q42.5177 1005.23 36.152 1005.23 Q29.8181 1005.23 26.126 1007.97 Q22.4021 1010.71 22.4021 1015.38 M17.4368 1015.38 Q17.4368 1007.74 22.4021 1003.38 Q27.3673 999.024 36.152 999.024 Q44.9049 999.024 49.9019 1003.38 Q54.8672 1007.74 54.8672 1015.38 Q54.8672 1023.05 49.9019 1027.42 Q44.9049 1031.74 36.152 1031.74 Q27.3673 1031.74 22.4021 1027.42 Q17.4368 1023.05 17.4368 1015.38 Z" fill="#000000" fill-rule="nonzero" fill-opacity="1" /><path clip-path="url(#clip210)" d="M972.365 23.3193 L979.136 23.3193 L991.288 55.958 L1003.44 23.3193 L1010.21 23.3193 L995.629 62.208 L986.948 62.208 L972.365 23.3193 Z" fill="#000000" fill-rule="nonzero" fill-opacity="1" /><path clip-path="url(#clip210)" d="M1036.7 42.6595 Q1028.96 42.6595 1025.98 44.4303 Q1022.99 46.2011 1022.99 50.472 Q1022.99 53.8747 1025.21 55.8886 Q1027.47 57.8677 1031.32 57.8677 Q1036.64 57.8677 1039.83 54.1178 Q1043.06 50.3331 1043.06 44.0831 L1043.06 42.6595 L1036.7 42.6595 M1049.45 40.0206 L1049.45 62.208 L1043.06 62.208 L1043.06 56.3053 Q1040.87 59.8469 1037.61 61.5483 Q1034.34 63.2149 1029.62 63.2149 Q1023.65 63.2149 1020.11 59.8816 Q1016.6 56.5136 1016.6 50.8886 Q1016.6 44.3262 1020.98 40.9928 Q1025.39 37.6595 1034.1 37.6595 L1043.06 37.6595 L1043.06 37.0345 Q1043.06 32.6248 1040.14 30.229 Q1037.26 27.7985 1032.02 27.7985 Q1028.68 27.7985 1025.52 28.5971 Q1022.36 29.3957 1019.45 30.9929 L1019.45 25.0901 Q1022.95 23.736 1026.25 23.0763 Q1029.55 22.3818 1032.68 22.3818 Q1041.11 22.3818 1045.28 26.7568 Q1049.45 31.1318 1049.45 40.0206 Z" fill="#000000" fill-rule="nonzero" fill-opacity="1" /><path clip-path="url(#clip210)" d="M1062.61 8.18051 L1069 8.18051 L1069 62.208 L1062.61 62.208 L1062.61 8.18051 Z" fill="#000000" fill-rule="nonzero" fill-opacity="1" /><path clip-path="url(#clip210)" d="M1097.43 27.7985 Q1092.29 27.7985 1089.31 31.8262 Q1086.32 35.8193 1086.32 42.7984 Q1086.32 49.7775 1089.27 53.8053 Q1092.26 57.7983 1097.43 57.7983 Q1102.54 57.7983 1105.52 53.7705 Q1108.51 49.7428 1108.51 42.7984 Q1108.51 35.8887 1105.52 31.8609 Q1102.54 27.7985 1097.43 27.7985 M1097.43 22.3818 Q1105.77 22.3818 1110.52 27.7985 Q1115.28 33.2151 1115.28 42.7984 Q1115.28 52.3469 1110.52 57.7983 Q1105.77 63.2149 1097.43 63.2149 Q1089.07 63.2149 1084.31 57.7983 Q1079.59 52.3469 1079.59 42.7984 Q1079.59 33.2151 1084.31 27.7985 Q1089.07 22.3818 1097.43 22.3818 Z" fill="#000000" fill-rule="nonzero" fill-opacity="1" /><path clip-path="url(#clip210)" d="M1148.41 29.2915 Q1147.33 28.6665 1146.04 28.3887 Q1144.79 28.0762 1143.27 28.0762 Q1137.85 28.0762 1134.93 31.6179 Q1132.05 35.1248 1132.05 41.722 L1132.05 62.208 L1125.63 62.208 L1125.63 23.3193 L1132.05 23.3193 L1132.05 29.361 Q1134.07 25.8193 1137.29 24.1179 Q1140.52 22.3818 1145.14 22.3818 Q1145.8 22.3818 1146.6 22.486 Q1147.4 22.5554 1148.37 22.729 L1148.41 29.2915 Z" fill="#000000" fill-rule="nonzero" fill-opacity="1" /><path clip-path="url(#clip210)" d="M1210.97 41.1664 L1210.97 44.2914 L1181.6 44.2914 Q1182.02 50.8886 1185.56 54.3608 Q1189.13 57.7983 1195.49 57.7983 Q1199.17 57.7983 1202.61 56.8955 Q1206.08 55.9928 1209.48 54.1872 L1209.48 60.2288 Q1206.04 61.6872 1202.43 62.4511 Q1198.82 63.2149 1195.11 63.2149 Q1185.8 63.2149 1180.35 57.7983 Q1174.93 52.3817 1174.93 43.1456 Q1174.93 33.597 1180.07 28.0068 Q1185.25 22.3818 1194 22.3818 Q1201.84 22.3818 1206.39 27.4512 Q1210.97 32.4859 1210.97 41.1664 M1204.59 39.2915 Q1204.52 34.0484 1201.63 30.9234 Q1198.79 27.7985 1194.07 27.7985 Q1188.72 27.7985 1185.49 30.8193 Q1182.29 33.8401 1181.81 39.3262 L1204.59 39.2915 Z" fill="#000000" fill-rule="nonzero" fill-opacity="1" /><path clip-path="url(#clip210)" d="M1246.25 24.4651 L1246.25 30.5068 Q1243.54 29.1179 1240.63 28.4235 Q1237.71 27.729 1234.59 27.729 Q1229.83 27.729 1227.43 29.1873 Q1225.07 30.6457 1225.07 33.5623 Q1225.07 35.7845 1226.77 37.0692 Q1228.47 38.3192 1233.61 39.4651 L1235.8 39.9512 Q1242.61 41.4095 1245.45 44.0831 Q1248.34 46.722 1248.34 51.4789 Q1248.34 56.8955 1244.03 60.0552 Q1239.76 63.2149 1232.26 63.2149 Q1229.13 63.2149 1225.73 62.5899 Q1222.36 61.9997 1218.61 60.7844 L1218.61 54.1872 Q1222.16 56.0275 1225.59 56.965 Q1229.03 57.8677 1232.4 57.8677 Q1236.91 57.8677 1239.34 56.34 Q1241.77 54.7775 1241.77 51.965 Q1241.77 49.3608 1240 47.972 Q1238.27 46.5831 1232.33 45.2984 L1230.11 44.7775 Q1224.17 43.5275 1221.53 40.9581 Q1218.89 38.354 1218.89 33.8401 Q1218.89 28.354 1222.78 25.3679 Q1226.67 22.3818 1233.82 22.3818 Q1237.36 22.3818 1240.49 22.9027 Q1243.61 23.4235 1246.25 24.4651 Z" fill="#000000" fill-rule="nonzero" fill-opacity="1" /><path clip-path="url(#clip210)" d="M1264.69 56.3747 L1264.69 76.9996 L1258.27 76.9996 L1258.27 23.3193 L1264.69 23.3193 L1264.69 29.2221 Q1266.7 25.7499 1269.76 24.0832 Q1272.85 22.3818 1277.12 22.3818 Q1284.2 22.3818 1288.61 28.0068 Q1293.06 33.6318 1293.06 42.7984 Q1293.06 51.965 1288.61 57.59 Q1284.2 63.2149 1277.12 63.2149 Q1272.85 63.2149 1269.76 61.5483 Q1266.7 59.8469 1264.69 56.3747 M1286.43 42.7984 Q1286.43 35.7498 1283.51 31.7568 Q1280.63 27.729 1275.56 27.729 Q1270.49 27.729 1267.57 31.7568 Q1264.69 35.7498 1264.69 42.7984 Q1264.69 49.847 1267.57 53.8747 Q1270.49 57.8677 1275.56 57.8677 Q1280.63 57.8677 1283.51 53.8747 Q1286.43 49.847 1286.43 42.7984 Z" fill="#000000" fill-rule="nonzero" fill-opacity="1" /><path clip-path="url(#clip210)" d="M1336.91 41.1664 L1336.91 44.2914 L1307.54 44.2914 Q1307.95 50.8886 1311.49 54.3608 Q1315.07 57.7983 1321.43 57.7983 Q1325.11 57.7983 1328.54 56.8955 Q1332.02 55.9928 1335.42 54.1872 L1335.42 60.2288 Q1331.98 61.6872 1328.37 62.4511 Q1324.76 63.2149 1321.04 63.2149 Q1311.74 63.2149 1306.29 57.7983 Q1300.87 52.3817 1300.87 43.1456 Q1300.87 33.597 1306.01 28.0068 Q1311.18 22.3818 1319.93 22.3818 Q1327.78 22.3818 1332.33 27.4512 Q1336.91 32.4859 1336.91 41.1664 M1330.52 39.2915 Q1330.45 34.0484 1327.57 30.9234 Q1324.72 27.7985 1320 27.7985 Q1314.65 27.7985 1311.43 30.8193 Q1308.23 33.8401 1307.74 39.3262 L1330.52 39.2915 Z" fill="#000000" fill-rule="nonzero" fill-opacity="1" /><path clip-path="url(#clip210)" d="M1369.93 29.2915 Q1368.86 28.6665 1367.57 28.3887 Q1366.32 28.0762 1364.79 28.0762 Q1359.38 28.0762 1356.46 31.6179 Q1353.58 35.1248 1353.58 41.722 L1353.58 62.208 L1347.15 62.208 L1347.15 23.3193 L1353.58 23.3193 L1353.58 29.361 Q1355.59 25.8193 1358.82 24.1179 Q1362.05 22.3818 1366.67 22.3818 Q1367.33 22.3818 1368.13 22.486 Q1368.93 22.5554 1369.9 22.729 L1369.93 29.2915 Z" fill="#000000" fill-rule="nonzero" fill-opacity="1" /><path clip-path="url(#clip210)" d="M1394.31 42.6595 Q1386.56 42.6595 1383.58 44.4303 Q1380.59 46.2011 1380.59 50.472 Q1380.59 53.8747 1382.81 55.8886 Q1385.07 57.8677 1388.93 57.8677 Q1394.24 57.8677 1397.43 54.1178 Q1400.66 50.3331 1400.66 44.0831 L1400.66 42.6595 L1394.31 42.6595 M1407.05 40.0206 L1407.05 62.208 L1400.66 62.208 L1400.66 56.3053 Q1398.47 59.8469 1395.21 61.5483 Q1391.95 63.2149 1387.22 63.2149 Q1381.25 63.2149 1377.71 59.8816 Q1374.2 56.5136 1374.2 50.8886 Q1374.2 44.3262 1378.58 40.9928 Q1382.99 37.6595 1391.7 37.6595 L1400.66 37.6595 L1400.66 37.0345 Q1400.66 32.6248 1397.74 30.229 Q1394.86 27.7985 1389.62 27.7985 Q1386.29 27.7985 1383.13 28.5971 Q1379.97 29.3957 1377.05 30.9929 L1377.05 25.0901 Q1380.56 23.736 1383.86 23.0763 Q1387.15 22.3818 1390.28 22.3818 Q1398.72 22.3818 1402.88 26.7568 Q1407.05 31.1318 1407.05 40.0206 Z" fill="#000000" fill-rule="nonzero" fill-opacity="1" /><path clip-path="url(#clip210)" d="M1445.8 29.2221 L1445.8 8.18051 L1452.19 8.18051 L1452.19 62.208 L1445.8 62.208 L1445.8 56.3747 Q1443.79 59.8469 1440.7 61.5483 Q1437.64 63.2149 1433.33 63.2149 Q1426.29 63.2149 1421.84 57.59 Q1417.43 51.965 1417.43 42.7984 Q1417.43 33.6318 1421.84 28.0068 Q1426.29 22.3818 1433.33 22.3818 Q1437.64 22.3818 1440.7 24.0832 Q1443.79 25.7499 1445.8 29.2221 M1424.03 42.7984 Q1424.03 49.847 1426.91 53.8747 Q1429.83 57.8677 1434.9 57.8677 Q1439.97 57.8677 1442.88 53.8747 Q1445.8 49.847 1445.8 42.7984 Q1445.8 35.7498 1442.88 31.7568 Q1439.97 27.729 1434.9 27.729 Q1429.83 27.729 1426.91 31.7568 Q1424.03 35.7498 1424.03 42.7984 Z" fill="#000000" fill-rule="nonzero" fill-opacity="1" /><path clip-path="url(#clip210)" d="M1480.42 27.7985 Q1475.28 27.7985 1472.29 31.8262 Q1469.31 35.8193 1469.31 42.7984 Q1469.31 49.7775 1472.26 53.8053 Q1475.24 57.7983 1480.42 57.7983 Q1485.52 57.7983 1488.51 53.7705 Q1491.49 49.7428 1491.49 42.7984 Q1491.49 35.8887 1488.51 31.8609 Q1485.52 27.7985 1480.42 27.7985 M1480.42 22.3818 Q1488.75 22.3818 1493.51 27.7985 Q1498.26 33.2151 1498.26 42.7984 Q1498.26 52.3469 1493.51 57.7983 Q1488.75 63.2149 1480.42 63.2149 Q1472.05 63.2149 1467.29 57.7983 Q1462.57 52.3469 1462.57 42.7984 Q1462.57 33.2151 1467.29 27.7985 Q1472.05 22.3818 1480.42 22.3818 Z" fill="#000000" fill-rule="nonzero" fill-opacity="1" /><path clip-path="url(#clip210)" d="M1564.72 41.1664 L1564.72 44.2914 L1535.35 44.2914 Q1535.76 50.8886 1539.31 54.3608 Q1542.88 57.7983 1549.24 57.7983 Q1552.92 57.7983 1556.35 56.8955 Q1559.83 55.9928 1563.23 54.1872 L1563.23 60.2288 Q1559.79 61.6872 1556.18 62.4511 Q1552.57 63.2149 1548.85 63.2149 Q1539.55 63.2149 1534.1 57.7983 Q1528.68 52.3817 1528.68 43.1456 Q1528.68 33.597 1533.82 28.0068 Q1538.99 22.3818 1547.74 22.3818 Q1555.59 22.3818 1560.14 27.4512 Q1564.72 32.4859 1564.72 41.1664 M1558.33 39.2915 Q1558.26 34.0484 1555.38 30.9234 Q1552.54 27.7985 1547.81 27.7985 Q1542.47 27.7985 1539.24 30.8193 Q1536.04 33.8401 1535.56 39.3262 L1558.33 39.2915 Z" fill="#000000" fill-rule="nonzero" fill-opacity="1" /><path clip-path="url(#clip210)" d="M1597.81 23.3193 L1604.2 23.3193 L1604.2 62.208 L1597.81 62.208 L1597.81 23.3193 M1597.81 8.18051 L1604.2 8.18051 L1604.2 16.2707 L1597.81 16.2707 L1597.81 8.18051 Z" fill="#000000" fill-rule="nonzero" fill-opacity="1" /><path clip-path="url(#clip210)" d="M1649.9 38.7359 L1649.9 62.208 L1643.51 62.208 L1643.51 38.9442 Q1643.51 33.4234 1641.35 30.6804 Q1639.2 27.9374 1634.9 27.9374 Q1629.72 27.9374 1626.74 31.2359 Q1623.75 34.5345 1623.75 40.229 L1623.75 62.208 L1617.33 62.208 L1617.33 23.3193 L1623.75 23.3193 L1623.75 29.361 Q1626.04 25.854 1629.13 24.1179 Q1632.26 22.3818 1636.32 22.3818 Q1643.02 22.3818 1646.46 26.5485 Q1649.9 30.6804 1649.9 38.7359 Z" fill="#000000" fill-rule="nonzero" fill-opacity="1" /><path clip-path="url(#clip210)" d="M1668.96 12.2777 L1668.96 23.3193 L1682.12 23.3193 L1682.12 28.2846 L1668.96 28.2846 L1668.96 49.3956 Q1668.96 54.1525 1670.24 55.5066 Q1671.56 56.8608 1675.56 56.8608 L1682.12 56.8608 L1682.12 62.208 L1675.56 62.208 Q1668.16 62.208 1665.35 59.465 Q1662.53 56.6872 1662.53 49.3956 L1662.53 28.2846 L1657.85 28.2846 L1657.85 23.3193 L1662.53 23.3193 L1662.53 12.2777 L1668.96 12.2777 Z" fill="#000000" fill-rule="nonzero" fill-opacity="1" /><path clip-path="url(#clip210)" d="M1723.78 41.1664 L1723.78 44.2914 L1694.41 44.2914 Q1694.83 50.8886 1698.37 54.3608 Q1701.94 57.7983 1708.3 57.7983 Q1711.98 57.7983 1715.42 56.8955 Q1718.89 55.9928 1722.29 54.1872 L1722.29 60.2288 Q1718.85 61.6872 1715.24 62.4511 Q1711.63 63.2149 1707.92 63.2149 Q1698.61 63.2149 1693.16 57.7983 Q1687.74 52.3817 1687.74 43.1456 Q1687.74 33.597 1692.88 28.0068 Q1698.06 22.3818 1706.81 22.3818 Q1714.65 22.3818 1719.2 27.4512 Q1723.78 32.4859 1723.78 41.1664 M1717.4 39.2915 Q1717.33 34.0484 1714.44 30.9234 Q1711.6 27.7985 1706.87 27.7985 Q1701.53 27.7985 1698.3 30.8193 Q1695.1 33.8401 1694.62 39.3262 L1717.4 39.2915 Z" fill="#000000" fill-rule="nonzero" fill-opacity="1" /><path clip-path="url(#clip210)" d="M1756.81 29.2915 Q1755.73 28.6665 1754.44 28.3887 Q1753.19 28.0762 1751.67 28.0762 Q1746.25 28.0762 1743.33 31.6179 Q1740.45 35.1248 1740.45 41.722 L1740.45 62.208 L1734.03 62.208 L1734.03 23.3193 L1740.45 23.3193 L1740.45 29.361 Q1742.46 25.8193 1745.69 24.1179 Q1748.92 22.3818 1753.54 22.3818 Q1754.2 22.3818 1755 22.486 Q1755.8 22.5554 1756.77 22.729 L1756.81 29.2915 Z" fill="#000000" fill-rule="nonzero" fill-opacity="1" /><path clip-path="url(#clip210)" d="M1758.92 23.3193 L1765.69 23.3193 L1777.85 55.958 L1790 23.3193 L1796.77 23.3193 L1782.19 62.208 L1773.51 62.208 L1758.92 23.3193 Z" fill="#000000" fill-rule="nonzero" fill-opacity="1" /><path clip-path="url(#clip210)" d="M1823.26 42.6595 Q1815.52 42.6595 1812.53 44.4303 Q1809.55 46.2011 1809.55 50.472 Q1809.55 53.8747 1811.77 55.8886 Q1814.03 57.8677 1817.88 57.8677 Q1823.19 57.8677 1826.39 54.1178 Q1829.62 50.3331 1829.62 44.0831 L1829.62 42.6595 L1823.26 42.6595 M1836.01 40.0206 L1836.01 62.208 L1829.62 62.208 L1829.62 56.3053 Q1827.43 59.8469 1824.17 61.5483 Q1820.9 63.2149 1816.18 63.2149 Q1810.21 63.2149 1806.67 59.8816 Q1803.16 56.5136 1803.16 50.8886 Q1803.16 44.3262 1807.53 40.9928 Q1811.94 37.6595 1820.66 37.6595 L1829.62 37.6595 L1829.62 37.0345 Q1829.62 32.6248 1826.7 30.229 Q1823.82 27.7985 1818.58 27.7985 Q1815.24 27.7985 1812.08 28.5971 Q1808.92 29.3957 1806.01 30.9929 L1806.01 25.0901 Q1809.51 23.736 1812.81 23.0763 Q1816.11 22.3818 1819.24 22.3818 Q1827.67 22.3818 1831.84 26.7568 Q1836.01 31.1318 1836.01 40.0206 Z" fill="#000000" fill-rule="nonzero" fill-opacity="1" /><path clip-path="url(#clip210)" d="M1849.17 8.18051 L1855.55 8.18051 L1855.55 62.208 L1849.17 62.208 L1849.17 8.18051 Z" fill="#000000" fill-rule="nonzero" fill-opacity="1" /><path clip-path="url(#clip210)" d="M1883.99 27.7985 Q1878.85 27.7985 1875.87 31.8262 Q1872.88 35.8193 1872.88 42.7984 Q1872.88 49.7775 1875.83 53.8053 Q1878.82 57.7983 1883.99 57.7983 Q1889.1 57.7983 1892.08 53.7705 Q1895.07 49.7428 1895.07 42.7984 Q1895.07 35.8887 1892.08 31.8609 Q1889.1 27.7985 1883.99 27.7985 M1883.99 22.3818 Q1892.33 22.3818 1897.08 27.7985 Q1901.84 33.2151 1901.84 42.7984 Q1901.84 52.3469 1897.08 57.7983 Q1892.33 63.2149 1883.99 63.2149 Q1875.62 63.2149 1870.87 57.7983 Q1866.14 52.3469 1866.14 42.7984 Q1866.14 33.2151 1870.87 27.7985 Q1875.62 22.3818 1883.99 22.3818 Z" fill="#000000" fill-rule="nonzero" fill-opacity="1" /><path clip-path="url(#clip210)" d="M1937.22 24.4651 L1937.22 30.5068 Q1934.51 29.1179 1931.6 28.4235 Q1928.68 27.729 1925.55 27.729 Q1920.8 27.729 1918.4 29.1873 Q1916.04 30.6457 1916.04 33.5623 Q1916.04 35.7845 1917.74 37.0692 Q1919.44 38.3192 1924.58 39.4651 L1926.77 39.9512 Q1933.57 41.4095 1936.42 44.0831 Q1939.3 46.722 1939.3 51.4789 Q1939.3 56.8955 1935 60.0552 Q1930.73 63.2149 1923.23 63.2149 Q1920.1 63.2149 1916.7 62.5899 Q1913.33 61.9997 1909.58 60.7844 L1909.58 54.1872 Q1913.12 56.0275 1916.56 56.965 Q1920 57.8677 1923.37 57.8677 Q1927.88 57.8677 1930.31 56.34 Q1932.74 54.7775 1932.74 51.965 Q1932.74 49.3608 1930.97 47.972 Q1929.23 46.5831 1923.3 45.2984 L1921.08 44.7775 Q1915.14 43.5275 1912.5 40.9581 Q1909.86 38.354 1909.86 33.8401 Q1909.86 28.354 1913.75 25.3679 Q1917.64 22.3818 1924.79 22.3818 Q1928.33 22.3818 1931.46 22.9027 Q1934.58 23.4235 1937.22 24.4651 Z" fill="#000000" fill-rule="nonzero" fill-opacity="1" /><path clip-path="url(#clip210)" d="M1997.67 29.2221 L1997.67 8.18051 L2004.06 8.18051 L2004.06 62.208 L1997.67 62.208 L1997.67 56.3747 Q1995.66 59.8469 1992.57 61.5483 Q1989.51 63.2149 1985.21 63.2149 Q1978.16 63.2149 1973.71 57.59 Q1969.3 51.965 1969.3 42.7984 Q1969.3 33.6318 1973.71 28.0068 Q1978.16 22.3818 1985.21 22.3818 Q1989.51 22.3818 1992.57 24.0832 Q1995.66 25.7499 1997.67 29.2221 M1975.9 42.7984 Q1975.9 49.847 1978.78 53.8747 Q1981.7 57.8677 1986.77 57.8677 Q1991.84 57.8677 1994.76 53.8747 Q1997.67 49.847 1997.67 42.7984 Q1997.67 35.7498 1994.76 31.7568 Q1991.84 27.729 1986.77 27.729 Q1981.7 27.729 1978.78 31.7568 Q1975.9 35.7498 1975.9 42.7984 Z" fill="#000000" fill-rule="nonzero" fill-opacity="1" /><path clip-path="url(#clip210)" d="M2050.48 41.1664 L2050.48 44.2914 L2021.11 44.2914 Q2021.53 50.8886 2025.07 54.3608 Q2028.64 57.7983 2035 57.7983 Q2038.68 57.7983 2042.12 56.8955 Q2045.59 55.9928 2048.99 54.1872 L2048.99 60.2288 Q2045.55 61.6872 2041.94 62.4511 Q2038.33 63.2149 2034.62 63.2149 Q2025.31 63.2149 2019.86 57.7983 Q2014.44 52.3817 2014.44 43.1456 Q2014.44 33.597 2019.58 28.0068 Q2024.76 22.3818 2033.5 22.3818 Q2041.35 22.3818 2045.9 27.4512 Q2050.48 32.4859 2050.48 41.1664 M2044.1 39.2915 Q2044.03 34.0484 2041.14 30.9234 Q2038.3 27.7985 2033.57 27.7985 Q2028.23 27.7985 2025 30.8193 Q2021.8 33.8401 2021.32 39.3262 L2044.1 39.2915 Z" fill="#000000" fill-rule="nonzero" fill-opacity="1" /><path clip-path="url(#clip210)" d="M2111.56 24.8124 L2111.56 30.7846 Q2108.85 29.2915 2106.11 28.5623 Q2103.4 27.7985 2100.62 27.7985 Q2094.41 27.7985 2090.97 31.7568 Q2087.53 35.6804 2087.53 42.7984 Q2087.53 49.9164 2090.97 53.8747 Q2094.41 57.7983 2100.62 57.7983 Q2103.4 57.7983 2106.11 57.0691 Q2108.85 56.3053 2111.56 54.8122 L2111.56 60.715 Q2108.89 61.9649 2106 62.5899 Q2103.16 63.2149 2099.93 63.2149 Q2091.14 63.2149 2085.97 57.6941 Q2080.8 52.1733 2080.8 42.7984 Q2080.8 33.2845 2086 27.8332 Q2091.25 22.3818 2100.34 22.3818 Q2103.3 22.3818 2106.11 23.0068 Q2108.92 23.5971 2111.56 24.8124 Z" fill="#000000" fill-rule="nonzero" fill-opacity="1" /><path clip-path="url(#clip210)" d="M2137.74 27.7985 Q2132.6 27.7985 2129.62 31.8262 Q2126.63 35.8193 2126.63 42.7984 Q2126.63 49.7775 2129.58 53.8053 Q2132.57 57.7983 2137.74 57.7983 Q2142.84 57.7983 2145.83 53.7705 Q2148.82 49.7428 2148.82 42.7984 Q2148.82 35.8887 2145.83 31.8609 Q2142.84 27.7985 2137.74 27.7985 M2137.74 22.3818 Q2146.07 22.3818 2150.83 27.7985 Q2155.59 33.2151 2155.59 42.7984 Q2155.59 52.3469 2150.83 57.7983 Q2146.07 63.2149 2137.74 63.2149 Q2129.37 63.2149 2124.62 57.7983 Q2119.89 52.3469 2119.89 42.7984 Q2119.89 33.2151 2124.62 27.7985 Q2129.37 22.3818 2137.74 22.3818 Z" fill="#000000" fill-rule="nonzero" fill-opacity="1" /><path clip-path="url(#clip210)" d="M2198.5 38.7359 L2198.5 62.208 L2192.12 62.208 L2192.12 38.9442 Q2192.12 33.4234 2189.96 30.6804 Q2187.81 27.9374 2183.5 27.9374 Q2178.33 27.9374 2175.34 31.2359 Q2172.36 34.5345 2172.36 40.229 L2172.36 62.208 L2165.93 62.208 L2165.93 23.3193 L2172.36 23.3193 L2172.36 29.361 Q2174.65 25.854 2177.74 24.1179 Q2180.87 22.3818 2184.93 22.3818 Q2191.63 22.3818 2195.07 26.5485 Q2198.5 30.6804 2198.5 38.7359 Z" fill="#000000" fill-rule="nonzero" fill-opacity="1" /><path clip-path="url(#clip210)" d="M2230.93 8.18051 L2230.93 13.493 L2224.82 13.493 Q2221.39 13.493 2220.03 14.8819 Q2218.71 16.2707 2218.71 19.8818 L2218.71 23.3193 L2229.23 23.3193 L2229.23 28.2846 L2218.71 28.2846 L2218.71 62.208 L2212.29 62.208 L2212.29 28.2846 L2206.18 28.2846 L2206.18 23.3193 L2212.29 23.3193 L2212.29 20.611 Q2212.29 14.118 2215.31 11.1666 Q2218.33 8.18051 2224.89 8.18051 L2230.93 8.18051 Z" fill="#000000" fill-rule="nonzero" fill-opacity="1" /><path clip-path="url(#clip210)" d="M2236.28 23.3193 L2242.67 23.3193 L2242.67 62.208 L2236.28 62.208 L2236.28 23.3193 M2236.28 8.18051 L2242.67 8.18051 L2242.67 16.2707 L2236.28 16.2707 L2236.28 8.18051 Z" fill="#000000" fill-rule="nonzero" fill-opacity="1" /><path clip-path="url(#clip210)" d="M2273.71 42.6595 Q2265.97 42.6595 2262.98 44.4303 Q2260 46.2011 2260 50.472 Q2260 53.8747 2262.22 55.8886 Q2264.48 57.8677 2268.33 57.8677 Q2273.64 57.8677 2276.84 54.1178 Q2280.07 50.3331 2280.07 44.0831 L2280.07 42.6595 L2273.71 42.6595 M2286.45 40.0206 L2286.45 62.208 L2280.07 62.208 L2280.07 56.3053 Q2277.88 59.8469 2274.61 61.5483 Q2271.35 63.2149 2266.63 63.2149 Q2260.66 63.2149 2257.11 59.8816 Q2253.61 56.5136 2253.61 50.8886 Q2253.61 44.3262 2257.98 40.9928 Q2262.39 37.6595 2271.11 37.6595 L2280.07 37.6595 L2280.07 37.0345 Q2280.07 32.6248 2277.15 30.229 Q2274.27 27.7985 2269.02 27.7985 Q2265.69 27.7985 2262.53 28.5971 Q2259.37 29.3957 2256.46 30.9929 L2256.46 25.0901 Q2259.96 23.736 2263.26 23.0763 Q2266.56 22.3818 2269.68 22.3818 Q2278.12 22.3818 2282.29 26.7568 Q2286.45 31.1318 2286.45 40.0206 Z" fill="#000000" fill-rule="nonzero" fill-opacity="1" /><path clip-path="url(#clip210)" d="M2331.94 38.7359 L2331.94 62.208 L2325.55 62.208 L2325.55 38.9442 Q2325.55 33.4234 2323.4 30.6804 Q2321.25 27.9374 2316.94 27.9374 Q2311.77 27.9374 2308.78 31.2359 Q2305.8 34.5345 2305.8 40.229 L2305.8 62.208 L2299.37 62.208 L2299.37 23.3193 L2305.8 23.3193 L2305.8 29.361 Q2308.09 25.854 2311.18 24.1179 Q2314.3 22.3818 2318.36 22.3818 Q2325.07 22.3818 2328.5 26.5485 Q2331.94 30.6804 2331.94 38.7359 Z" fill="#000000" fill-rule="nonzero" fill-opacity="1" /><path clip-path="url(#clip210)" d="M2372.67 24.8124 L2372.67 30.7846 Q2369.96 29.2915 2367.22 28.5623 Q2364.51 27.7985 2361.73 27.7985 Q2355.52 27.7985 2352.08 31.7568 Q2348.64 35.6804 2348.64 42.7984 Q2348.64 49.9164 2352.08 53.8747 Q2355.52 57.7983 2361.73 57.7983 Q2364.51 57.7983 2367.22 57.0691 Q2369.96 56.3053 2372.67 54.8122 L2372.67 60.715 Q2370 61.9649 2367.11 62.5899 Q2364.27 63.2149 2361.04 63.2149 Q2352.25 63.2149 2347.08 57.6941 Q2341.91 52.1733 2341.91 42.7984 Q2341.91 33.2845 2347.11 27.8332 Q2352.36 22.3818 2361.45 22.3818 Q2364.41 22.3818 2367.22 23.0068 Q2370.03 23.5971 2372.67 24.8124 M2363.64 62.208 Q2365.55 64.3608 2366.49 66.1663 Q2367.43 68.0066 2367.43 69.6732 Q2367.43 72.7635 2365.34 74.326 Q2363.26 75.9232 2359.16 75.9232 Q2357.57 75.9232 2356.04 75.7149 Q2354.54 75.5065 2353.05 75.0899 L2353.05 70.5413 Q2354.23 71.1316 2355.52 71.3746 Q2356.8 71.6524 2358.43 71.6524 Q2360.48 71.6524 2361.52 70.8191 Q2362.57 69.9857 2362.57 68.3885 Q2362.57 67.3469 2361.8 65.8191 Q2361.07 64.326 2359.51 62.208 L2363.64 62.208 Z" fill="#000000" fill-rule="nonzero" fill-opacity="1" /><path clip-path="url(#clip210)" d="M2401.45 42.6595 Q2393.71 42.6595 2390.73 44.4303 Q2387.74 46.2011 2387.74 50.472 Q2387.74 53.8747 2389.96 55.8886 Q2392.22 57.8677 2396.07 57.8677 Q2401.38 57.8677 2404.58 54.1178 Q2407.81 50.3331 2407.81 44.0831 L2407.81 42.6595 L2401.45 42.6595 M2414.2 40.0206 L2414.2 62.208 L2407.81 62.208 L2407.81 56.3053 Q2405.62 59.8469 2402.36 61.5483 Q2399.09 63.2149 2394.37 63.2149 Q2388.4 63.2149 2384.86 59.8816 Q2381.35 56.5136 2381.35 50.8886 Q2381.35 44.3262 2385.73 40.9928 Q2390.13 37.6595 2398.85 37.6595 L2407.81 37.6595 L2407.81 37.0345 Q2407.81 32.6248 2404.89 30.229 Q2402.01 27.7985 2396.77 27.7985 Q2393.43 27.7985 2390.27 28.5971 Q2387.11 29.3957 2384.2 30.9929 L2384.2 25.0901 Q2387.7 23.736 2391 23.0763 Q2394.3 22.3818 2397.43 22.3818 Q2405.86 22.3818 2410.03 26.7568 Q2414.2 31.1318 2414.2 40.0206 Z" fill="#000000" fill-rule="nonzero" fill-opacity="1" /><path clip-path="url(#clip212)" d="M316.418 2145.95 L330.256 2125.55 L344.094 2104.06 L357.932 2081.44 L371.769 2057.64 L385.607 2032.66 L399.445 2006.48 L413.283 1979.08 L427.121 1950.43 L440.958 1920.42 L454.796 1889.19 L468.634 1856.75 L482.472 1823.14 L496.31 1788.4 L510.148 1752.57 L523.985 1715.72 L537.823 1678.09 L551.661 1639.66 L565.499 1600.66 L579.337 1561.02 L593.174 1520.51 L607.012 1479.48 L620.85 1438.1 L634.688 1396.44 L648.526 1354.63 L662.364 1312.8 L676.201 1270.88 L690.039 1228.87 L703.877 1187.16 L717.715 1145.93 L731.553 1105.72 L745.39 1066.66 L759.228 1027.5 L773.066 989.152 L786.904 951.693 L800.742 915.716 L814.58 880.814 L828.417 846.998 L842.255 814.307 L856.093 782.775 L869.931 752.461 L883.769 724.205 L897.606 697.019 L911.444 670.667 L925.282 645.416 L939.12 620.988 L952.958 597.713 L966.796 575.543 L980.633 554.504 L994.471 534.829 L1008.31 515.786 L1022.15 497.814 L1035.98 480.668 L1049.82 464.95 L1063.66 450.575 L1077.5 436.655 L1091.34 423.517 L1105.17 412.396 L1119.01 402.18 L1132.85 392.569 L1146.69 383.177 L1160.53 374.234 L1174.36 365.389 L1188.2 357.565 L1202.04 351.218 L1215.88 345.719 L1229.71 339.846 L1243.55 334.36 L1257.39 328.718 L1271.23 323.628 L1285.07 319.397 L1298.9 315.417 L1312.74 311.602 L1326.58 308.047 L1340.42 304.732 L1354.25 301.702 L1368.09 298.775 L1381.93 296.128 L1395.77 293.69 L1409.61 291.434 L1423.44 289.369 L1437.28 287.454 L1451.12 285.68 L1464.96 284.176 L1478.79 282.617 L1492.63 281.087 L1506.47 279.683 L1520.31 278.418 L1534.15 277.248 L1547.98 276.166 L1561.82 275.164 L1575.66 274.223 L1589.5 273.349 L1603.34 272.538 L1617.17 271.784 L1631.01 271.083 L1644.85 270.441 L1658.69 269.85 L1672.52 269.294 L1686.36 268.776 L1700.2 268.296 L1714.04 267.851 L1727.88 267.439 L1741.71 267.058 L1755.55 266.706 L1769.39 266.381 L1783.23 266.08 L1797.06 265.802 L1810.9 265.545 L1824.74 265.306 L1838.58 265.084 L1852.42 264.876 L1866.25 264.681 L1880.09 264.499 L1893.93 264.329 L1907.77 264.169 L1921.61 264.019 L1935.44 263.88 L1949.28 263.75 L1963.12 263.63 L1976.96 263.518 L1990.79 263.416 L2004.63 263.322 L2018.47 263.236 L2032.31 263.166 L2046.15 263.112 L2059.98 263.063 L2073.82 263.017 L2087.66 262.976 L2101.5 262.938 L2115.33 262.902 L2129.17 262.868 L2143.01 262.835 L2156.85 262.804 L2170.69 262.773 L2184.52 262.743 L2198.36 262.715 L2212.2 262.689 L2226.04 262.664 L2239.87 262.641 L2253.71 262.619 L2267.55 262.599 L2281.39 262.581 L2295.23 262.565 L2309.06 262.55 L2322.9 262.536 L2336.74 262.524 L2350.58 262.514 L2364.42 262.505 L2378.25 262.497 L2392.09 262.49 L2405.93 262.484 L2419.77 262.479 L2433.6 262.475 L2447.44 262.471 L2461.28 262.467 L2475.12 262.464 L2488.96 262.461 L2502.79 262.458 L2516.63 262.454 L2530.47 262.449 L2544.31 262.445 L2558.14 262.44 L2571.98 262.435 L2585.82 262.43 L2599.66 262.425 L2613.5 262.421 L2627.33 262.416 L2641.17 262.412 L2655.01 262.408 L2668.85 262.405 L2682.69 262.402 L2696.52 262.399 L2710.36 262.396 L2724.2 262.394 L2738.04 262.393 L2751.87 262.391 L2765.71 262.39 L2779.55 262.389 L2793.39 262.389 L2807.23 262.389 L2821.06 262.389 L2834.9 262.389 L2848.74 262.39 L2862.58 262.39 L2876.41 262.391 L2890.25 262.392 L2904.09 262.393 L2917.93 262.394 L2931.77 262.395 L2945.6 262.396 L2959.44 262.397 L2973.28 262.397 L2987.12 262.397 L3000.96 262.397 L3014.79 262.396 L3028.63 262.395 L3042.47 262.394 L3056.31 262.393 L3070.14 262.392 L3070.14 180.282 L3056.31 180.283 L3042.47 180.284 L3028.63 180.284 L3014.79 180.285 L3000.96 180.286 L2987.12 180.287 L2973.28 180.288 L2959.44 180.289 L2945.6 180.29 L2931.77 180.292 L2917.93 180.292 L2904.09 180.293 L2890.25 180.294 L2876.41 180.294 L2862.58 180.293 L2848.74 180.293 L2834.9 180.292 L2821.06 180.291 L2807.23 180.29 L2793.39 180.289 L2779.55 180.289 L2765.71 180.288 L2751.87 180.288 L2738.04 180.288 L2724.2 180.288 L2710.36 180.289 L2696.52 180.29 L2682.69 180.292 L2668.85 180.294 L2655.01 180.297 L2641.17 180.3 L2627.33 180.303 L2613.5 180.307 L2599.66 180.312 L2585.82 180.317 L2571.98 180.322 L2558.14 180.328 L2544.31 180.335 L2530.47 180.341 L2516.63 180.348 L2502.79 180.355 L2488.96 180.363 L2475.12 180.37 L2461.28 180.378 L2447.44 180.385 L2433.6 180.392 L2419.77 180.398 L2405.93 180.405 L2392.09 180.412 L2378.25 180.42 L2364.42 180.428 L2350.58 180.438 L2336.74 180.448 L2322.9 180.46 L2309.06 180.474 L2295.23 180.489 L2281.39 180.506 L2267.55 180.525 L2253.71 180.547 L2239.87 180.57 L2226.04 180.596 L2212.2 180.624 L2198.36 180.655 L2184.52 180.688 L2170.69 180.723 L2156.85 180.761 L2143.01 180.802 L2129.17 180.845 L2115.33 180.89 L2101.5 180.938 L2087.66 180.987 L2073.82 181.037 L2059.98 181.091 L2046.15 181.148 L2032.31 181.21 L2018.47 181.277 L2004.63 181.35 L1990.79 181.431 L1976.96 181.519 L1963.12 181.616 L1949.28 181.722 L1935.44 181.838 L1921.61 181.964 L1907.77 182.102 L1893.93 182.251 L1880.09 182.412 L1866.25 182.586 L1852.42 182.774 L1838.58 182.975 L1824.74 183.19 L1810.9 183.42 L1797.06 183.664 L1783.23 183.924 L1769.39 184.203 L1755.55 184.504 L1741.71 184.828 L1727.88 185.179 L1714.04 185.559 L1700.2 185.97 L1686.36 186.416 L1672.52 186.898 L1658.69 187.421 L1644.85 187.985 L1631.01 188.682 L1617.17 189.461 L1603.34 190.295 L1589.5 191.189 L1575.66 192.151 L1561.82 193.187 L1547.98 194.302 L1534.15 195.493 L1520.31 196.763 L1506.47 198.136 L1492.63 199.508 L1478.79 200.904 L1464.96 202.414 L1451.12 204.046 L1437.28 205.811 L1423.44 207.717 L1409.61 209.878 L1395.77 212.335 L1381.93 214.961 L1368.09 217.494 L1354.25 220.223 L1340.42 223.117 L1326.58 226.131 L1312.74 229.597 L1298.9 233.48 L1285.07 237.263 L1271.23 241.239 L1257.39 245.333 L1243.55 249.743 L1229.71 254.69 L1215.88 260.29 L1202.04 265.901 L1188.2 272.39 L1174.36 279.611 L1160.53 286.852 L1146.69 294.148 L1132.85 302.094 L1119.01 310.408 L1105.17 320.243 L1091.34 329.944 L1077.5 340.307 L1063.66 351.53 L1049.82 363.068 L1035.98 375.171 L1022.15 388.019 L1008.31 401.487 L994.471 416.387 L980.633 431.952 L966.796 447.289 L952.958 463.575 L939.12 481.996 L925.282 500.883 L911.444 520.697 L897.606 541.876 L883.769 564.857 L869.931 588.637 L856.093 613.292 L842.255 639.1 L828.417 666.058 L814.58 694.235 L800.742 723.119 L786.904 753.1 L773.066 785.402 L759.228 818.78 L745.39 852.584 L731.553 887.353 L717.715 923.364 L703.877 960.796 L690.039 999.159 L676.201 1038.25 L662.364 1078.06 L648.526 1118.49 L634.688 1159.23 L620.85 1200.02 L607.012 1241.65 L593.174 1283.76 L579.337 1326.21 L565.499 1368.46 L551.661 1410.51 L537.823 1452.3 L523.985 1493.16 L510.148 1533.74 L496.31 1573.96 L482.472 1613.4 L468.634 1652.07 L454.796 1689.97 L440.958 1727 L427.121 1763.1 L413.283 1798.22 L399.445 1832.29 L385.607 1865.25 L371.769 1897.06 L357.932 1927.7 L344.094 1957.27 L330.256 1985.63 L316.418 2012.78  Z" fill="#009af9" fill-rule="evenodd" fill-opacity="0.2"/>
<polyline clip-path="url(#clip212)" style="stroke:#009af9; stroke-linecap:round; stroke-linejoin:round; stroke-width:12; stroke-opacity:1; fill:none" points="316.418,2084.19 330.256,2060.42 344.094,2035.44 357.932,2009.25 371.769,1981.8 385.607,1953.02 399.445,1922.99 413.283,1891.74 427.121,1859.27 440.958,1825.61 454.796,1790.8 468.634,1755.08 482.472,1718.34 496.31,1680.64 510.148,1642.04 523.985,1602.63 537.823,1562.49 551.661,1521.73 565.499,1480.51 579.337,1439.43 593.174,1398.09 607.012,1355.57 620.85,1313.51 634.688,1271.51 648.526,1230.22 662.364,1189.72 676.201,1148.99 690.039,1108.72 703.877,1068.31 717.715,1027.92 731.553,988.366 745.39,950.744 759.228,914.304 773.066,879.2 786.904,844.978 800.742,811.511 814.58,779.529 828.417,748.942 842.255,719.21 856.093,689.303 869.931,661.94 883.769,635.608 897.606,610.817 911.444,586.663 925.282,564.494 939.12,542.89 952.958,522.752 966.796,503.279 980.633,485.558 994.471,468.178 1008.31,452.208 1022.15,437.17 1035.98,423.29 1049.82,409.166 1063.66,395.829 1077.5,384.43 1091.34,374.22 1105.17,363.743 1119.01,353.902 1132.85,345.605 1146.69,337.15 1160.53,329.316 1174.36,321.896 1188.2,315.007 1202.04,308.621 1215.88,302.513 1229.71,296.848 1243.55,291.655 1257.39,286.779 1271.23,282.472 1285.07,277.752 1298.9,273.827 1312.74,270.158 1326.58,266.817 1340.42,263.908 1354.25,261.034 1368.09,258.525 1381.93,256.132 1395.77,253.933 1409.61,251.603 1423.44,249.731 1437.28,247.955 1451.12,246.077 1464.96,244.207 1478.79,242.477 1492.63,241.052 1506.47,239.699 1520.31,238.491 1534.15,237.446 1547.98,236.369 1561.82,235.298 1575.66,234.393 1589.5,233.582 1603.34,232.827 1617.17,232.083 1631.01,231.331 1644.85,230.747 1658.69,230.206 1672.52,229.68 1686.36,229.146 1700.2,228.652 1714.04,228.198 1727.88,227.819 1741.71,227.468 1755.55,227.143 1769.39,226.841 1783.23,226.559 1797.06,226.295 1810.9,226.057 1824.74,225.852 1838.58,225.657 1852.42,225.437 1866.25,225.228 1880.09,225.034 1893.93,224.883 1907.77,224.752 1921.61,224.631 1935.44,224.52 1949.28,224.418 1963.12,224.325 1976.96,224.24 1990.79,224.162 2004.63,224.091 2018.47,224.026 2032.31,223.966 2046.15,223.903 2059.98,223.841 2073.82,223.785 2087.66,223.732 2101.5,223.68 2115.33,223.627 2129.17,223.575 2143.01,223.526 2156.85,223.479 2170.69,223.436 2184.52,223.395 2198.36,223.358 2212.2,223.323 2226.04,223.291 2239.87,223.261 2253.71,223.235 2267.55,223.21 2281.39,223.188 2295.23,223.169 2309.06,223.151 2322.9,223.135 2336.74,223.12 2350.58,223.108 2364.42,223.096 2378.25,223.085 2392.09,223.076 2405.93,223.066 2419.77,223.057 2433.6,223.048 2447.44,223.039 2461.28,223.03 2475.12,223.021 2488.96,223.013 2502.79,223.006 2516.63,222.999 2530.47,222.992 2544.31,222.986 2558.14,222.98 2571.98,222.974 2585.82,222.969 2599.66,222.965 2613.5,222.96 2627.33,222.957 2641.17,222.954 2655.01,222.951 2668.85,222.948 2682.69,222.947 2696.52,222.945 2710.36,222.944 2724.2,222.944 2738.04,222.943 2751.87,222.943 2765.71,222.944 2779.55,222.944 2793.39,222.945 2807.23,222.946 2821.06,222.946 2834.9,222.947 2848.74,222.948 2862.58,222.948 2876.41,222.948 2890.25,222.948 2904.09,222.947 2917.93,222.946 2931.77,222.946 2945.6,222.945 2959.44,222.943 2973.28,222.942 2987.12,222.941 3000.96,222.941 3014.79,222.94 3028.63,222.939 3042.47,222.938 3056.31,222.938 3070.14,222.937 "/>
<path clip-path="url(#clip212)" d="M316.418 2127.48 L330.256 2106.06 L344.094 2083.49 L357.932 2059.75 L371.769 2034.8 L385.607 2008.62 L399.445 1981.02 L413.283 1952.21 L427.121 1922.52 L440.958 1891.64 L454.796 1859.58 L468.634 1826.36 L482.472 1792.03 L496.31 1756.5 L510.148 1719.9 L523.985 1682.39 L537.823 1644.17 L551.661 1605.03 L565.499 1565.19 L579.337 1524.7 L593.174 1483.46 L607.012 1441.41 L620.85 1399.59 L634.688 1358.48 L648.526 1316.69 L662.364 1274.78 L676.201 1233.04 L690.039 1191.9 L703.877 1151.32 L717.715 1110.29 L731.553 1070.25 L745.39 1030.9 L759.228 992.693 L773.066 954.454 L786.904 917.925 L800.742 882.613 L814.58 848.475 L828.417 815.124 L842.255 783.114 L856.093 752.284 L869.931 722.756 L883.769 694.438 L897.606 667.382 L911.444 641.534 L925.282 616.636 L939.12 593.344 L952.958 570.578 L966.796 548.399 L980.633 528.267 L994.471 508.795 L1008.31 491.44 L1022.15 474.112 L1035.98 457.63 L1049.82 442.817 L1063.66 429.327 L1077.5 417.109 L1091.34 405.513 L1105.17 394.637 L1119.01 384.869 L1132.85 375.563 L1146.69 366.832 L1160.53 357.98 L1174.36 349.605 L1188.2 342.737 L1202.04 336.478 L1215.88 330.109 L1229.71 324.383 L1243.55 319.275 L1257.39 314.321 L1271.23 309.307 L1285.07 304.879 L1298.9 300.798 L1312.74 297.057 L1326.58 293.41 L1340.42 290.088 L1354.25 287.405 L1368.09 284.895 L1381.93 282.073 L1395.77 279.688 L1409.61 276.997 L1423.44 274.616 L1437.28 272.412 L1451.12 270.422 L1464.96 268.904 L1478.79 267.261 L1492.63 265.693 L1506.47 264.237 L1520.31 263.054 L1534.15 261.953 L1547.98 260.935 L1561.82 260.035 L1575.66 259.153 L1589.5 258.193 L1603.34 257.232 L1617.17 256.334 L1631.01 255.499 L1644.85 254.723 L1658.69 254.06 L1672.52 253.59 L1686.36 253.141 L1700.2 252.726 L1714.04 252.342 L1727.88 251.988 L1741.71 251.662 L1755.55 251.361 L1769.39 251.084 L1783.23 250.795 L1797.06 250.482 L1810.9 250.19 L1824.74 249.916 L1838.58 249.66 L1852.42 249.44 L1866.25 249.274 L1880.09 249.118 L1893.93 248.971 L1907.77 248.833 L1921.61 248.704 L1935.44 248.584 L1949.28 248.473 L1963.12 248.37 L1976.96 248.275 L1990.79 248.188 L2004.63 248.107 L2018.47 248.033 L2032.31 247.965 L2046.15 247.903 L2059.98 247.846 L2073.82 247.794 L2087.66 247.745 L2101.5 247.701 L2115.33 247.66 L2129.17 247.623 L2143.01 247.575 L2156.85 247.53 L2170.69 247.489 L2184.52 247.45 L2198.36 247.415 L2212.2 247.382 L2226.04 247.352 L2239.87 247.325 L2253.71 247.3 L2267.55 247.277 L2281.39 247.257 L2295.23 247.239 L2309.06 247.222 L2322.9 247.207 L2336.74 247.193 L2350.58 247.181 L2364.42 247.169 L2378.25 247.158 L2392.09 247.147 L2405.93 247.136 L2419.77 247.125 L2433.6 247.114 L2447.44 247.104 L2461.28 247.094 L2475.12 247.085 L2488.96 247.076 L2502.79 247.068 L2516.63 247.061 L2530.47 247.054 L2544.31 247.048 L2558.14 247.042 L2571.98 247.036 L2585.82 247.032 L2599.66 247.027 L2613.5 247.024 L2627.33 247.02 L2641.17 247.018 L2655.01 247.016 L2668.85 247.014 L2682.69 247.013 L2696.52 247.012 L2710.36 247.012 L2724.2 247.012 L2738.04 247.012 L2751.87 247.012 L2765.71 247.012 L2779.55 247.012 L2793.39 247.012 L2807.23 247.012 L2821.06 247.011 L2834.9 247.01 L2848.74 247.008 L2862.58 247.007 L2876.41 247.005 L2890.25 247.004 L2904.09 247.003 L2917.93 247.002 L2931.77 247.001 L2945.6 247 L2959.44 246.999 L2973.28 246.999 L2987.12 246.998 L3000.96 246.998 L3014.79 246.997 L3028.63 246.997 L3042.47 246.996 L3056.31 246.995 L3070.14 246.995 L3070.14 196.485 L3056.31 196.485 L3042.47 196.486 L3028.63 196.487 L3014.79 196.487 L3000.96 196.488 L2987.12 196.489 L2973.28 196.49 L2959.44 196.491 L2945.6 196.492 L2931.77 196.494 L2917.93 196.495 L2904.09 196.496 L2890.25 196.498 L2876.41 196.499 L2862.58 196.501 L2848.74 196.503 L2834.9 196.503 L2821.06 196.504 L2807.23 196.504 L2793.39 196.503 L2779.55 196.502 L2765.71 196.501 L2751.87 196.501 L2738.04 196.5 L2724.2 196.499 L2710.36 196.499 L2696.52 196.499 L2682.69 196.499 L2668.85 196.5 L2655.01 196.502 L2641.17 196.504 L2627.33 196.506 L2613.5 196.509 L2599.66 196.513 L2585.82 196.518 L2571.98 196.523 L2558.14 196.528 L2544.31 196.535 L2530.47 196.542 L2516.63 196.55 L2502.79 196.558 L2488.96 196.567 L2475.12 196.576 L2461.28 196.586 L2447.44 196.596 L2433.6 196.606 L2419.77 196.617 L2405.93 196.628 L2392.09 196.638 L2378.25 196.649 L2364.42 196.66 L2350.58 196.671 L2336.74 196.684 L2322.9 196.697 L2309.06 196.712 L2295.23 196.729 L2281.39 196.747 L2267.55 196.768 L2253.71 196.791 L2239.87 196.816 L2226.04 196.843 L2212.2 196.873 L2198.36 196.907 L2184.52 196.943 L2170.69 196.982 L2156.85 197.024 L2143.01 197.069 L2129.17 197.118 L2115.33 197.171 L2101.5 197.226 L2087.66 197.285 L2073.82 197.345 L2059.98 197.407 L2046.15 197.472 L2032.31 197.542 L2018.47 197.616 L2004.63 197.697 L1990.79 197.785 L1976.96 197.881 L1963.12 197.987 L1949.28 198.103 L1935.44 198.231 L1921.61 198.371 L1907.77 198.52 L1893.93 198.66 L1880.09 198.811 L1866.25 198.974 L1852.42 199.149 L1838.58 199.337 L1824.74 199.554 L1810.9 199.818 L1797.06 200.102 L1783.23 200.404 L1769.39 200.727 L1755.55 201.073 L1741.71 201.444 L1727.88 201.844 L1714.04 202.275 L1700.2 202.742 L1686.36 203.246 L1672.52 203.792 L1658.69 204.364 L1644.85 204.997 L1631.01 205.68 L1617.17 206.416 L1603.34 207.209 L1589.5 207.917 L1575.66 208.644 L1561.82 209.422 L1547.98 210.258 L1534.15 211.245 L1520.31 212.425 L1506.47 213.698 L1492.63 215.072 L1478.79 216.559 L1464.96 218.031 L1451.12 219.419 L1437.28 220.946 L1423.44 222.589 L1409.61 224.357 L1395.77 226.321 L1381.93 228.884 L1368.09 231.166 L1354.25 233.958 L1340.42 237.584 L1326.58 241.428 L1312.74 244.745 L1298.9 248.253 L1285.07 252.779 L1271.23 257.495 L1257.39 262.141 L1243.55 267.311 L1229.71 272.68 L1215.88 278.312 L1202.04 283.647 L1188.2 290.006 L1174.36 296.544 L1160.53 303.29 L1146.69 310.428 L1132.85 318.149 L1119.01 326.267 L1105.17 335.883 L1091.34 345.036 L1077.5 355.068 L1063.66 366.828 L1049.82 379.278 L1035.98 391.669 L1022.15 405.317 L1008.31 419.471 L994.471 434.412 L980.633 451.056 L966.796 468.562 L952.958 485.987 L939.12 504.022 L925.282 522.861 L911.444 542.707 L897.606 564.067 L883.769 586.418 L869.931 609.846 L856.093 634.097 L842.255 660.044 L828.417 687.279 L814.58 716.564 L800.742 746.112 L786.904 776.228 L773.066 807.545 L759.228 839.933 L745.39 873.419 L731.553 908.165 L717.715 945.346 L703.877 982.736 L690.039 1020.09 L676.201 1058.79 L662.364 1099.31 L648.526 1140.21 L634.688 1181.98 L620.85 1223.44 L607.012 1264.71 L593.174 1306.67 L579.337 1348.2 L565.499 1389.76 L551.661 1431.71 L537.823 1473.93 L523.985 1515.7 L510.148 1556.48 L496.31 1596.38 L482.472 1635.62 L468.634 1674.06 L454.796 1711.61 L440.958 1748.27 L427.121 1783.89 L413.283 1818.54 L399.445 1852.29 L385.607 1884.88 L371.769 1916.28 L357.932 1946.46 L344.094 1975.42 L330.256 2003.15 L316.418 2029.64  Z" fill="#e26f46" fill-rule="evenodd" fill-opacity="0.2"/>
<polyline clip-path="url(#clip212)" style="stroke:#e26f46; stroke-linecap:round; stroke-linejoin:round; stroke-width:12; stroke-opacity:1; fill:none" points="316.418,2084.19 330.256,2060.42 344.094,2035.44 357.932,2009.25 371.769,1981.8 385.607,1953.02 399.445,1922.99 413.283,1891.74 427.121,1859.27 440.958,1825.61 454.796,1790.8 468.634,1755.08 482.472,1718.34 496.31,1680.64 510.148,1642.04 523.985,1602.63 537.823,1562.49 551.661,1521.73 565.499,1480.51 579.337,1439.43 593.174,1398.09 607.012,1355.57 620.85,1313.51 634.688,1271.51 648.526,1230.22 662.364,1189.72 676.201,1148.99 690.039,1108.72 703.877,1068.31 717.715,1027.92 731.553,988.366 745.39,950.744 759.228,914.304 773.066,879.2 786.904,844.978 800.742,811.511 814.58,779.529 828.417,748.942 842.255,719.21 856.093,689.303 869.931,661.94 883.769,635.608 897.606,610.817 911.444,586.663 925.282,564.494 939.12,542.89 952.958,522.752 966.796,503.279 980.633,485.558 994.471,468.178 1008.31,452.208 1022.15,437.17 1035.98,423.29 1049.82,409.166 1063.66,395.829 1077.5,384.43 1091.34,374.22 1105.17,363.743 1119.01,353.902 1132.85,345.605 1146.69,337.15 1160.53,329.316 1174.36,321.896 1188.2,315.007 1202.04,308.621 1215.88,302.513 1229.71,296.848 1243.55,291.655 1257.39,286.779 1271.23,282.472 1285.07,277.752 1298.9,273.827 1312.74,270.158 1326.58,266.817 1340.42,263.908 1354.25,261.034 1368.09,258.525 1381.93,256.132 1395.77,253.933 1409.61,251.603 1423.44,249.731 1437.28,247.955 1451.12,246.077 1464.96,244.207 1478.79,242.477 1492.63,241.052 1506.47,239.699 1520.31,238.491 1534.15,237.446 1547.98,236.369 1561.82,235.298 1575.66,234.393 1589.5,233.582 1603.34,232.827 1617.17,232.083 1631.01,231.331 1644.85,230.747 1658.69,230.206 1672.52,229.68 1686.36,229.146 1700.2,228.652 1714.04,228.198 1727.88,227.819 1741.71,227.468 1755.55,227.143 1769.39,226.841 1783.23,226.559 1797.06,226.295 1810.9,226.057 1824.74,225.852 1838.58,225.657 1852.42,225.437 1866.25,225.228 1880.09,225.034 1893.93,224.883 1907.77,224.752 1921.61,224.631 1935.44,224.52 1949.28,224.418 1963.12,224.325 1976.96,224.24 1990.79,224.162 2004.63,224.091 2018.47,224.026 2032.31,223.966 2046.15,223.903 2059.98,223.841 2073.82,223.785 2087.66,223.732 2101.5,223.68 2115.33,223.627 2129.17,223.575 2143.01,223.526 2156.85,223.479 2170.69,223.436 2184.52,223.395 2198.36,223.358 2212.2,223.323 2226.04,223.291 2239.87,223.261 2253.71,223.235 2267.55,223.21 2281.39,223.188 2295.23,223.169 2309.06,223.151 2322.9,223.135 2336.74,223.12 2350.58,223.108 2364.42,223.096 2378.25,223.085 2392.09,223.076 2405.93,223.066 2419.77,223.057 2433.6,223.048 2447.44,223.039 2461.28,223.03 2475.12,223.021 2488.96,223.013 2502.79,223.006 2516.63,222.999 2530.47,222.992 2544.31,222.986 2558.14,222.98 2571.98,222.974 2585.82,222.969 2599.66,222.965 2613.5,222.96 2627.33,222.957 2641.17,222.954 2655.01,222.951 2668.85,222.948 2682.69,222.947 2696.52,222.945 2710.36,222.944 2724.2,222.944 2738.04,222.943 2751.87,222.943 2765.71,222.944 2779.55,222.944 2793.39,222.945 2807.23,222.946 2821.06,222.946 2834.9,222.947 2848.74,222.948 2862.58,222.948 2876.41,222.948 2890.25,222.948 2904.09,222.947 2917.93,222.946 2931.77,222.946 2945.6,222.945 2959.44,222.943 2973.28,222.942 2987.12,222.941 3000.96,222.941 3014.79,222.94 3028.63,222.939 3042.47,222.938 3056.31,222.938 3070.14,222.937 "/>
<path clip-path="url(#clip210)" d="M2663.79 2135.47 L3055.46 2135.47 L3055.46 1979.95 L2663.79 1979.95  Z" fill="#eaeaea" fill-rule="evenodd" fill-opacity="1"/>
<polyline clip-path="url(#clip210)" style="stroke:#ffffff; stroke-linecap:round; stroke-linejoin:round; stroke-width:4; stroke-opacity:1; fill:none" points="2663.79,2135.47 3055.46,2135.47 3055.46,1979.95 2663.79,1979.95 2663.79,2135.47 "/>
<polyline clip-path="url(#clip210)" style="stroke:#009af9; stroke-linecap:round; stroke-linejoin:round; stroke-width:12; stroke-opacity:1; fill:none" points="2696.23,2031.79 2890.82,2031.79 "/>
<path clip-path="url(#clip210)" d="M2925.48 2048.35 L2925.48 2044.09 Q2927.24 2044.92 2929.04 2045.36 Q2930.85 2045.8 2932.59 2045.8 Q2937.22 2045.8 2939.65 2042.7 Q2942.1 2039.58 2942.45 2033.23 Q2941.1 2035.22 2939.04 2036.29 Q2936.98 2037.35 2934.48 2037.35 Q2929.3 2037.35 2926.27 2034.23 Q2923.26 2031.08 2923.26 2025.64 Q2923.26 2020.32 2926.4 2017.1 Q2929.55 2013.88 2934.78 2013.88 Q2940.78 2013.88 2943.93 2018.49 Q2947.1 2023.07 2947.1 2031.82 Q2947.1 2039.99 2943.21 2044.88 Q2939.34 2049.74 2932.79 2049.74 Q2931.03 2049.74 2929.23 2049.39 Q2927.42 2049.04 2925.48 2048.35 M2934.78 2033.7 Q2937.93 2033.7 2939.76 2031.54 Q2941.61 2029.39 2941.61 2025.64 Q2941.61 2021.91 2939.76 2019.76 Q2937.93 2017.58 2934.78 2017.58 Q2931.64 2017.58 2929.78 2019.76 Q2927.96 2021.91 2927.96 2025.64 Q2927.96 2029.39 2929.78 2031.54 Q2931.64 2033.7 2934.78 2033.7 Z" fill="#000000" fill-rule="nonzero" fill-opacity="1" /><path clip-path="url(#clip210)" d="M2955.55 2014.51 L2973.9 2014.51 L2973.9 2018.44 L2959.83 2018.44 L2959.83 2026.91 Q2960.85 2026.57 2961.87 2026.4 Q2962.89 2026.22 2963.9 2026.22 Q2969.69 2026.22 2973.07 2029.39 Q2976.45 2032.56 2976.45 2037.98 Q2976.45 2043.56 2972.98 2046.66 Q2969.51 2049.74 2963.19 2049.74 Q2961.01 2049.74 2958.74 2049.37 Q2956.5 2049 2954.09 2048.26 L2954.09 2043.56 Q2956.17 2044.69 2958.4 2045.25 Q2960.62 2045.8 2963.09 2045.8 Q2967.1 2045.8 2969.44 2043.7 Q2971.78 2041.59 2971.78 2037.98 Q2971.78 2034.37 2969.44 2032.26 Q2967.1 2030.15 2963.09 2030.15 Q2961.22 2030.15 2959.34 2030.57 Q2957.49 2030.99 2955.55 2031.87 L2955.55 2014.51 Z" fill="#000000" fill-rule="nonzero" fill-opacity="1" /><path clip-path="url(#clip210)" d="M3015.06 2033.86 Q3013.05 2033.86 3011.89 2035.57 Q3010.76 2037.28 3010.76 2040.34 Q3010.76 2043.35 3011.89 2045.08 Q3013.05 2046.8 3015.06 2046.8 Q3017.03 2046.8 3018.16 2045.08 Q3019.32 2043.35 3019.32 2040.34 Q3019.32 2037.31 3018.16 2035.59 Q3017.03 2033.86 3015.06 2033.86 M3015.06 2030.92 Q3018.72 2030.92 3020.87 2033.46 Q3023.02 2036.01 3023.02 2040.34 Q3023.02 2044.67 3020.85 2047.21 Q3018.7 2049.74 3015.06 2049.74 Q3011.36 2049.74 3009.21 2047.21 Q3007.05 2044.67 3007.05 2040.34 Q3007.05 2035.99 3009.21 2033.46 Q3011.38 2030.92 3015.06 2030.92 M2991.17 2016.82 Q2989.18 2016.82 2988.02 2018.56 Q2986.89 2020.27 2986.89 2023.28 Q2986.89 2026.33 2988.02 2028.05 Q2989.16 2029.76 2991.17 2029.76 Q2993.19 2029.76 2994.32 2028.05 Q2995.48 2026.33 2995.48 2023.28 Q2995.48 2020.29 2994.32 2018.56 Q2993.16 2016.82 2991.17 2016.82 M3012.08 2013.88 L3015.78 2013.88 L2994.16 2049.74 L2990.46 2049.74 L3012.08 2013.88 M2991.17 2013.88 Q2994.83 2013.88 2997.01 2016.43 Q2999.18 2018.95 2999.18 2023.28 Q2999.18 2027.65 2997.01 2030.18 Q2994.85 2032.7 2991.17 2032.7 Q2987.49 2032.7 2985.34 2030.18 Q2983.21 2027.63 2983.21 2023.28 Q2983.21 2018.97 2985.36 2016.43 Q2987.52 2013.88 2991.17 2013.88 Z" fill="#000000" fill-rule="nonzero" fill-opacity="1" /><polyline clip-path="url(#clip210)" style="stroke:#e26f46; stroke-linecap:round; stroke-linejoin:round; stroke-width:12; stroke-opacity:1; fill:none" points="2696.23,2083.63 2890.82,2083.63 "/>
<path clip-path="url(#clip210)" d="M2935.59 2081.76 Q2932.45 2081.76 2930.59 2083.92 Q2928.77 2086.07 2928.77 2089.82 Q2928.77 2093.55 2930.59 2095.72 Q2932.45 2097.87 2935.59 2097.87 Q2938.74 2097.87 2940.57 2095.72 Q2942.42 2093.55 2942.42 2089.82 Q2942.42 2086.07 2940.57 2083.92 Q2938.74 2081.76 2935.59 2081.76 M2944.88 2067.11 L2944.88 2071.37 Q2943.12 2070.54 2941.31 2070.1 Q2939.53 2069.66 2937.77 2069.66 Q2933.14 2069.66 2930.69 2072.78 Q2928.26 2075.91 2927.91 2082.23 Q2929.28 2080.21 2931.34 2079.15 Q2933.4 2078.06 2935.87 2078.06 Q2941.08 2078.06 2944.09 2081.23 Q2947.12 2084.38 2947.12 2089.82 Q2947.12 2095.14 2943.97 2098.36 Q2940.83 2101.58 2935.59 2101.58 Q2929.6 2101.58 2926.43 2096.99 Q2923.26 2092.39 2923.26 2083.66 Q2923.26 2075.47 2927.15 2070.61 Q2931.03 2065.72 2937.59 2065.72 Q2939.34 2065.72 2941.13 2066.07 Q2942.93 2066.42 2944.88 2067.11 Z" fill="#000000" fill-rule="nonzero" fill-opacity="1" /><path clip-path="url(#clip210)" d="M2965.18 2084.49 Q2961.84 2084.49 2959.92 2086.28 Q2958.03 2088.06 2958.03 2091.18 Q2958.03 2094.31 2959.92 2096.09 Q2961.84 2097.87 2965.18 2097.87 Q2968.51 2097.87 2970.43 2096.09 Q2972.35 2094.29 2972.35 2091.18 Q2972.35 2088.06 2970.43 2086.28 Q2968.53 2084.49 2965.18 2084.49 M2960.5 2082.5 Q2957.49 2081.76 2955.8 2079.7 Q2954.14 2077.64 2954.14 2074.68 Q2954.14 2070.54 2957.08 2068.13 Q2960.04 2065.72 2965.18 2065.72 Q2970.34 2065.72 2973.28 2068.13 Q2976.22 2070.54 2976.22 2074.68 Q2976.22 2077.64 2974.53 2079.7 Q2972.86 2081.76 2969.88 2082.5 Q2973.26 2083.29 2975.13 2085.58 Q2977.03 2087.87 2977.03 2091.18 Q2977.03 2096.21 2973.95 2098.89 Q2970.9 2101.58 2965.18 2101.58 Q2959.46 2101.58 2956.38 2098.89 Q2953.33 2096.21 2953.33 2091.18 Q2953.33 2087.87 2955.22 2085.58 Q2957.12 2083.29 2960.5 2082.5 M2958.79 2075.12 Q2958.79 2077.8 2960.46 2079.31 Q2962.15 2080.81 2965.18 2080.81 Q2968.19 2080.81 2969.88 2079.31 Q2971.59 2077.8 2971.59 2075.12 Q2971.59 2072.43 2969.88 2070.93 Q2968.19 2069.42 2965.18 2069.42 Q2962.15 2069.42 2960.46 2070.93 Q2958.79 2072.43 2958.79 2075.12 Z" fill="#000000" fill-rule="nonzero" fill-opacity="1" /><path clip-path="url(#clip210)" d="M3014.74 2085.7 Q3012.72 2085.7 3011.57 2087.41 Q3010.43 2089.12 3010.43 2092.18 Q3010.43 2095.19 3011.57 2096.92 Q3012.72 2098.64 3014.74 2098.64 Q3016.71 2098.64 3017.84 2096.92 Q3019 2095.19 3019 2092.18 Q3019 2089.15 3017.84 2087.43 Q3016.71 2085.7 3014.74 2085.7 M3014.74 2082.76 Q3018.4 2082.76 3020.55 2085.3 Q3022.7 2087.85 3022.7 2092.18 Q3022.7 2096.51 3020.52 2099.05 Q3018.37 2101.58 3014.74 2101.58 Q3011.03 2101.58 3008.88 2099.05 Q3006.73 2096.51 3006.73 2092.18 Q3006.73 2087.83 3008.88 2085.3 Q3011.06 2082.76 3014.74 2082.76 M2990.85 2068.66 Q2988.86 2068.66 2987.7 2070.4 Q2986.57 2072.11 2986.57 2075.12 Q2986.57 2078.17 2987.7 2079.89 Q2988.84 2081.6 2990.85 2081.6 Q2992.86 2081.6 2994 2079.89 Q2995.15 2078.17 2995.15 2075.12 Q2995.15 2072.13 2994 2070.4 Q2992.84 2068.66 2990.85 2068.66 M3011.75 2065.72 L3015.46 2065.72 L2993.84 2101.58 L2990.13 2101.58 L3011.75 2065.72 M2990.85 2065.72 Q2994.51 2065.72 2996.68 2068.27 Q2998.86 2070.79 2998.86 2075.12 Q2998.86 2079.49 2996.68 2082.02 Q2994.53 2084.54 2990.85 2084.54 Q2987.17 2084.54 2985.02 2082.02 Q2982.89 2079.47 2982.89 2075.12 Q2982.89 2070.81 2985.04 2068.27 Q2987.19 2065.72 2990.85 2065.72 Z" fill="#000000" fill-rule="nonzero" fill-opacity="1" /></svg>
