<?xml version="1.0" encoding="utf-8"?>
<svg xmlns="http://www.w3.org/2000/svg" xmlns:xlink="http://www.w3.org/1999/xlink" width="800" height="600" viewBox="0 0 3200 2400">
<defs>
  <clipPath id="clip090">
    <rect x="0" y="0" width="3200" height="2400"/>
  </clipPath>
</defs>
<path clip-path="url(#clip090)" d="M0 2400 L3200 2400 L3200 0 L0 0  Z" fill="#ffffff" fill-rule="evenodd" fill-opacity="1"/>
<defs>
  <clipPath id="clip091">
    <rect x="640" y="0" width="2241" height="2241"/>
  </clipPath>
</defs>
<path clip-path="url(#clip090)" d="M217.904 2204.92 L3152.76 2204.92 L3152.76 111.592 L217.904 111.592  Z" fill="#eaeaea" fill-rule="evenodd" fill-opacity="1"/>
<defs>
  <clipPath id="clip092">
    <rect x="217" y="111" width="2936" height="2094"/>
  </clipPath>
</defs>
<polyline clip-path="url(#clip092)" style="stroke:#ffffff; stroke-linecap:round; stroke-linejoin:round; stroke-width:4; stroke-opacity:1; fill:none" points="300.965,2204.92 300.965,111.592 "/>
<polyline clip-path="url(#clip092)" style="stroke:#ffffff; stroke-linecap:round; stroke-linejoin:round; stroke-width:4; stroke-opacity:1; fill:none" points="854.711,2204.92 854.711,111.592 "/>
<polyline clip-path="url(#clip092)" style="stroke:#ffffff; stroke-linecap:round; stroke-linejoin:round; stroke-width:4; stroke-opacity:1; fill:none" points="1408.46,2204.92 1408.46,111.592 "/>
<polyline clip-path="url(#clip092)" style="stroke:#ffffff; stroke-linecap:round; stroke-linejoin:round; stroke-width:4; stroke-opacity:1; fill:none" points="1962.2,2204.92 1962.2,111.592 "/>
<polyline clip-path="url(#clip092)" style="stroke:#ffffff; stroke-linecap:round; stroke-linejoin:round; stroke-width:4; stroke-opacity:1; fill:none" points="2515.95,2204.92 2515.95,111.592 "/>
<polyline clip-path="url(#clip092)" style="stroke:#ffffff; stroke-linecap:round; stroke-linejoin:round; stroke-width:4; stroke-opacity:1; fill:none" points="3069.69,2204.92 3069.69,111.592 "/>
<polyline clip-path="url(#clip092)" style="stroke:#ffffff; stroke-linecap:round; stroke-linejoin:round; stroke-width:2; stroke-opacity:1; fill:none" points="577.838,2204.92 577.838,111.592 "/>
<polyline clip-path="url(#clip092)" style="stroke:#ffffff; stroke-linecap:round; stroke-linejoin:round; stroke-width:2; stroke-opacity:1; fill:none" points="1131.58,2204.92 1131.58,111.592 "/>
<polyline clip-path="url(#clip092)" style="stroke:#ffffff; stroke-linecap:round; stroke-linejoin:round; stroke-width:2; stroke-opacity:1; fill:none" points="1685.33,2204.92 1685.33,111.592 "/>
<polyline clip-path="url(#clip092)" style="stroke:#ffffff; stroke-linecap:round; stroke-linejoin:round; stroke-width:2; stroke-opacity:1; fill:none" points="2239.08,2204.92 2239.08,111.592 "/>
<polyline clip-path="url(#clip092)" style="stroke:#ffffff; stroke-linecap:round; stroke-linejoin:round; stroke-width:2; stroke-opacity:1; fill:none" points="2792.82,2204.92 2792.82,111.592 "/>
<polyline clip-path="url(#clip090)" style="stroke:#ffffff; stroke-linecap:round; stroke-linejoin:round; stroke-width:4; stroke-opacity:1; fill:none" points="217.904,2204.92 3152.76,2204.92 "/>
<polyline clip-path="url(#clip090)" style="stroke:#333333; stroke-linecap:round; stroke-linejoin:round; stroke-width:4; stroke-opacity:1; fill:none" points="300.965,2204.92 300.965,2223.82 "/>
<polyline clip-path="url(#clip090)" style="stroke:#333333; stroke-linecap:round; stroke-linejoin:round; stroke-width:4; stroke-opacity:1; fill:none" points="854.711,2204.92 854.711,2223.82 "/>
<polyline clip-path="url(#clip090)" style="stroke:#333333; stroke-linecap:round; stroke-linejoin:round; stroke-width:4; stroke-opacity:1; fill:none" points="1408.46,2204.92 1408.46,2223.82 "/>
<polyline clip-path="url(#clip090)" style="stroke:#333333; stroke-linecap:round; stroke-linejoin:round; stroke-width:4; stroke-opacity:1; fill:none" points="1962.2,2204.92 1962.2,2223.82 "/>
<polyline clip-path="url(#clip090)" style="stroke:#333333; stroke-linecap:round; stroke-linejoin:round; stroke-width:4; stroke-opacity:1; fill:none" points="2515.95,2204.92 2515.95,2223.82 "/>
<polyline clip-path="url(#clip090)" style="stroke:#333333; stroke-linecap:round; stroke-linejoin:round; stroke-width:4; stroke-opacity:1; fill:none" points="3069.69,2204.92 3069.69,2223.82 "/>
<polyline clip-path="url(#clip090)" style="stroke:#333333; stroke-linecap:round; stroke-linejoin:round; stroke-width:4; stroke-opacity:1; fill:none" points="577.838,2204.92 577.838,2214.37 "/>
<polyline clip-path="url(#clip090)" style="stroke:#333333; stroke-linecap:round; stroke-linejoin:round; stroke-width:4; stroke-opacity:1; fill:none" points="1131.58,2204.92 1131.58,2214.37 "/>
<polyline clip-path="url(#clip090)" style="stroke:#333333; stroke-linecap:round; stroke-linejoin:round; stroke-width:4; stroke-opacity:1; fill:none" points="1685.33,2204.92 1685.33,2214.37 "/>
<polyline clip-path="url(#clip090)" style="stroke:#333333; stroke-linecap:round; stroke-linejoin:round; stroke-width:4; stroke-opacity:1; fill:none" points="2239.08,2204.92 2239.08,2214.37 "/>
<polyline clip-path="url(#clip090)" style="stroke:#333333; stroke-linecap:round; stroke-linejoin:round; stroke-width:4; stroke-opacity:1; fill:none" points="2792.82,2204.92 2792.82,2214.37 "/>
<path clip-path="url(#clip090)" d="M300.965 2255.04 Q297.354 2255.04 295.526 2258.6 Q293.72 2262.14 293.72 2269.27 Q293.72 2276.38 295.526 2279.95 Q297.354 2283.49 300.965 2283.49 Q304.6 2283.49 306.405 2279.95 Q308.234 2276.38 308.234 2269.27 Q308.234 2262.14 306.405 2258.6 Q304.6 2255.04 300.965 2255.04 M300.965 2251.33 Q306.776 2251.33 309.831 2255.94 Q312.91 2260.52 312.91 2269.27 Q312.91 2278 309.831 2282.61 Q306.776 2287.19 300.965 2287.19 Q295.155 2287.19 292.077 2282.61 Q289.021 2278 289.021 2269.27 Q289.021 2260.52 292.077 2255.94 Q295.155 2251.33 300.965 2251.33 Z" fill="#4c4c4c" fill-rule="nonzero" fill-opacity="1" /><path clip-path="url(#clip090)" d="M845.093 2282.58 L852.732 2282.58 L852.732 2256.22 L844.422 2257.89 L844.422 2253.63 L852.686 2251.96 L857.362 2251.96 L857.362 2282.58 L865 2282.58 L865 2286.52 L845.093 2286.52 L845.093 2282.58 Z" fill="#4c4c4c" fill-rule="nonzero" fill-opacity="1" /><path clip-path="url(#clip090)" d="M1403.11 2282.58 L1419.43 2282.58 L1419.43 2286.52 L1397.48 2286.52 L1397.48 2282.58 Q1400.15 2279.83 1404.73 2275.2 Q1409.34 2270.55 1410.52 2269.21 Q1412.76 2266.68 1413.64 2264.95 Q1414.54 2263.19 1414.54 2261.5 Q1414.54 2258.74 1412.6 2257.01 Q1410.68 2255.27 1407.58 2255.27 Q1405.38 2255.27 1402.92 2256.03 Q1400.49 2256.8 1397.72 2258.35 L1397.72 2253.63 Q1400.54 2252.49 1402.99 2251.91 Q1405.45 2251.33 1407.48 2251.33 Q1412.86 2251.33 1416.05 2254.02 Q1419.24 2256.71 1419.24 2261.2 Q1419.24 2263.33 1418.43 2265.25 Q1417.65 2267.14 1415.54 2269.74 Q1414.96 2270.41 1411.86 2273.63 Q1408.76 2276.82 1403.11 2282.58 Z" fill="#4c4c4c" fill-rule="nonzero" fill-opacity="1" /><path clip-path="url(#clip090)" d="M1966.45 2267.89 Q1969.81 2268.6 1971.68 2270.87 Q1973.58 2273.14 1973.58 2276.47 Q1973.58 2281.59 1970.06 2284.39 Q1966.54 2287.19 1960.06 2287.19 Q1957.89 2287.19 1955.57 2286.75 Q1953.28 2286.33 1950.83 2285.48 L1950.83 2280.96 Q1952.77 2282.1 1955.08 2282.68 Q1957.4 2283.26 1959.92 2283.26 Q1964.32 2283.26 1966.61 2281.52 Q1968.93 2279.78 1968.93 2276.47 Q1968.93 2273.42 1966.77 2271.71 Q1964.64 2269.97 1960.83 2269.97 L1956.8 2269.97 L1956.8 2266.13 L1961.01 2266.13 Q1964.46 2266.13 1966.29 2264.76 Q1968.12 2263.37 1968.12 2260.78 Q1968.12 2258.12 1966.22 2256.71 Q1964.34 2255.27 1960.83 2255.27 Q1958.9 2255.27 1956.7 2255.69 Q1954.51 2256.1 1951.87 2256.98 L1951.87 2252.82 Q1954.53 2252.08 1956.84 2251.71 Q1959.18 2251.33 1961.24 2251.33 Q1966.57 2251.33 1969.67 2253.77 Q1972.77 2256.17 1972.77 2260.29 Q1972.77 2263.16 1971.13 2265.15 Q1969.48 2267.12 1966.45 2267.89 Z" fill="#4c4c4c" fill-rule="nonzero" fill-opacity="1" /><path clip-path="url(#clip090)" d="M2518.96 2256.03 L2507.15 2274.48 L2518.96 2274.48 L2518.96 2256.03 M2517.73 2251.96 L2523.61 2251.96 L2523.61 2274.48 L2528.54 2274.48 L2528.54 2278.37 L2523.61 2278.37 L2523.61 2286.52 L2518.96 2286.52 L2518.96 2278.37 L2503.36 2278.37 L2503.36 2273.86 L2517.73 2251.96 Z" fill="#4c4c4c" fill-rule="nonzero" fill-opacity="1" /><path clip-path="url(#clip090)" d="M3059.97 2251.96 L3078.33 2251.96 L3078.33 2255.9 L3064.25 2255.9 L3064.25 2264.37 Q3065.27 2264.02 3066.29 2263.86 Q3067.31 2263.67 3068.33 2263.67 Q3074.12 2263.67 3077.49 2266.84 Q3080.87 2270.02 3080.87 2275.43 Q3080.87 2281.01 3077.4 2284.11 Q3073.93 2287.19 3067.61 2287.19 Q3065.43 2287.19 3063.17 2286.82 Q3060.92 2286.45 3058.51 2285.71 L3058.51 2281.01 Q3060.6 2282.14 3062.82 2282.7 Q3065.04 2283.26 3067.52 2283.26 Q3071.52 2283.26 3073.86 2281.15 Q3076.2 2279.04 3076.2 2275.43 Q3076.2 2271.82 3073.86 2269.71 Q3071.52 2267.61 3067.52 2267.61 Q3065.64 2267.61 3063.77 2268.02 Q3061.92 2268.44 3059.97 2269.32 L3059.97 2251.96 Z" fill="#4c4c4c" fill-rule="nonzero" fill-opacity="1" /><path clip-path="url(#clip090)" d="M1684.39 2316.01 L1684.39 2326.14 L1696.45 2326.14 L1696.45 2330.69 L1684.39 2330.69 L1684.39 2350.04 Q1684.39 2354.4 1685.57 2355.64 Q1686.78 2356.88 1690.44 2356.88 L1696.45 2356.88 L1696.45 2361.78 L1690.44 2361.78 Q1683.66 2361.78 1681.08 2359.27 Q1678.5 2356.72 1678.5 2350.04 L1678.5 2330.69 L1674.21 2330.69 L1674.21 2326.14 L1678.5 2326.14 L1678.5 2316.01 L1684.39 2316.01 Z" fill="#000000" fill-rule="nonzero" fill-opacity="1" /><polyline clip-path="url(#clip092)" style="stroke:#ffffff; stroke-linecap:round; stroke-linejoin:round; stroke-width:4; stroke-opacity:1; fill:none" points="217.904,2204.04 3152.76,2204.04 "/>
<polyline clip-path="url(#clip092)" style="stroke:#ffffff; stroke-linecap:round; stroke-linejoin:round; stroke-width:4; stroke-opacity:1; fill:none" points="217.904,1620.35 3152.76,1620.35 "/>
<polyline clip-path="url(#clip092)" style="stroke:#ffffff; stroke-linecap:round; stroke-linejoin:round; stroke-width:4; stroke-opacity:1; fill:none" points="217.904,1036.66 3152.76,1036.66 "/>
<polyline clip-path="url(#clip092)" style="stroke:#ffffff; stroke-linecap:round; stroke-linejoin:round; stroke-width:4; stroke-opacity:1; fill:none" points="217.904,452.967 3152.76,452.967 "/>
<polyline clip-path="url(#clip092)" style="stroke:#ffffff; stroke-linecap:round; stroke-linejoin:round; stroke-width:2; stroke-opacity:1; fill:none" points="217.904,1912.2 3152.76,1912.2 "/>
<polyline clip-path="url(#clip092)" style="stroke:#ffffff; stroke-linecap:round; stroke-linejoin:round; stroke-width:2; stroke-opacity:1; fill:none" points="217.904,1328.51 3152.76,1328.51 "/>
<polyline clip-path="url(#clip092)" style="stroke:#ffffff; stroke-linecap:round; stroke-linejoin:round; stroke-width:2; stroke-opacity:1; fill:none" points="217.904,744.813 3152.76,744.813 "/>
<polyline clip-path="url(#clip092)" style="stroke:#ffffff; stroke-linecap:round; stroke-linejoin:round; stroke-width:2; stroke-opacity:1; fill:none" points="217.904,161.121 3152.76,161.121 "/>
<polyline clip-path="url(#clip090)" style="stroke:#ffffff; stroke-linecap:round; stroke-linejoin:round; stroke-width:4; stroke-opacity:1; fill:none" points="217.904,2204.92 217.904,111.592 "/>
<polyline clip-path="url(#clip090)" style="stroke:#333333; stroke-linecap:round; stroke-linejoin:round; stroke-width:4; stroke-opacity:1; fill:none" points="217.904,2204.04 199.006,2204.04 "/>
<polyline clip-path="url(#clip090)" style="stroke:#333333; stroke-linecap:round; stroke-linejoin:round; stroke-width:4; stroke-opacity:1; fill:none" points="217.904,1620.35 199.006,1620.35 "/>
<polyline clip-path="url(#clip090)" style="stroke:#333333; stroke-linecap:round; stroke-linejoin:round; stroke-width:4; stroke-opacity:1; fill:none" points="217.904,1036.66 199.006,1036.66 "/>
<polyline clip-path="url(#clip090)" style="stroke:#333333; stroke-linecap:round; stroke-linejoin:round; stroke-width:4; stroke-opacity:1; fill:none" points="217.904,452.967 199.006,452.967 "/>
<polyline clip-path="url(#clip090)" style="stroke:#333333; stroke-linecap:round; stroke-linejoin:round; stroke-width:4; stroke-opacity:1; fill:none" points="217.904,1912.2 208.455,1912.2 "/>
<polyline clip-path="url(#clip090)" style="stroke:#333333; stroke-linecap:round; stroke-linejoin:round; stroke-width:4; stroke-opacity:1; fill:none" points="217.904,1328.51 208.455,1328.51 "/>
<polyline clip-path="url(#clip090)" style="stroke:#333333; stroke-linecap:round; stroke-linejoin:round; stroke-width:4; stroke-opacity:1; fill:none" points="217.904,744.813 208.455,744.813 "/>
<polyline clip-path="url(#clip090)" style="stroke:#333333; stroke-linecap:round; stroke-linejoin:round; stroke-width:4; stroke-opacity:1; fill:none" points="217.904,161.121 208.455,161.121 "/>
<path clip-path="url(#clip090)" d="M133.959 2189.84 Q130.348 2189.84 128.519 2193.41 Q126.714 2196.95 126.714 2204.08 Q126.714 2211.19 128.519 2214.75 Q130.348 2218.29 133.959 2218.29 Q137.593 2218.29 139.399 2214.75 Q141.228 2211.19 141.228 2204.08 Q141.228 2196.95 139.399 2193.41 Q137.593 2189.84 133.959 2189.84 M133.959 2186.14 Q139.769 2186.14 142.825 2190.75 Q145.904 2195.33 145.904 2204.08 Q145.904 2212.81 142.825 2217.41 Q139.769 2222 133.959 2222 Q128.149 2222 125.07 2217.41 Q122.015 2212.81 122.015 2204.08 Q122.015 2195.33 125.07 2190.75 Q128.149 2186.14 133.959 2186.14 Z" fill="#4c4c4c" fill-rule="nonzero" fill-opacity="1" /><path clip-path="url(#clip090)" d="M94.6076 1633.7 L102.246 1633.7 L102.246 1607.33 L93.9363 1609 L93.9363 1604.74 L102.2 1603.07 L106.876 1603.07 L106.876 1633.7 L114.515 1633.7 L114.515 1637.63 L94.6076 1637.63 L94.6076 1633.7 Z" fill="#4c4c4c" fill-rule="nonzero" fill-opacity="1" /><path clip-path="url(#clip090)" d="M133.959 1606.15 Q130.348 1606.15 128.519 1609.72 Q126.714 1613.26 126.714 1620.39 Q126.714 1627.49 128.519 1631.06 Q130.348 1634.6 133.959 1634.6 Q137.593 1634.6 139.399 1631.06 Q141.228 1627.49 141.228 1620.39 Q141.228 1613.26 139.399 1609.72 Q137.593 1606.15 133.959 1606.15 M133.959 1602.45 Q139.769 1602.45 142.825 1607.05 Q145.904 1611.64 145.904 1620.39 Q145.904 1629.11 142.825 1633.72 Q139.769 1638.3 133.959 1638.3 Q128.149 1638.3 125.07 1633.72 Q122.015 1629.11 122.015 1620.39 Q122.015 1611.64 125.07 1607.05 Q128.149 1602.45 133.959 1602.45 Z" fill="#4c4c4c" fill-rule="nonzero" fill-opacity="1" /><path clip-path="url(#clip090)" d="M97.8251 1050 L114.144 1050 L114.144 1053.94 L92.2002 1053.94 L92.2002 1050 Q94.8622 1047.25 99.4455 1042.62 Q104.052 1037.97 105.232 1036.62 Q107.478 1034.1 108.357 1032.37 Q109.26 1030.61 109.26 1028.92 Q109.26 1026.16 107.316 1024.43 Q105.395 1022.69 102.293 1022.69 Q100.094 1022.69 97.6399 1023.45 Q95.2094 1024.22 92.4316 1025.77 L92.4316 1021.05 Q95.2557 1019.91 97.7094 1019.33 Q100.163 1018.75 102.2 1018.75 Q107.57 1018.75 110.765 1021.44 Q113.959 1024.12 113.959 1028.62 Q113.959 1030.75 113.149 1032.67 Q112.362 1034.56 110.256 1037.16 Q109.677 1037.83 106.575 1041.05 Q103.473 1044.24 97.8251 1050 Z" fill="#4c4c4c" fill-rule="nonzero" fill-opacity="1" /><path clip-path="url(#clip090)" d="M133.959 1022.46 Q130.348 1022.46 128.519 1026.02 Q126.714 1029.56 126.714 1036.69 Q126.714 1043.8 128.519 1047.37 Q130.348 1050.91 133.959 1050.91 Q137.593 1050.91 139.399 1047.37 Q141.228 1043.8 141.228 1036.69 Q141.228 1029.56 139.399 1026.02 Q137.593 1022.46 133.959 1022.46 M133.959 1018.75 Q139.769 1018.75 142.825 1023.36 Q145.904 1027.94 145.904 1036.69 Q145.904 1045.42 142.825 1050.03 Q139.769 1054.61 133.959 1054.61 Q128.149 1054.61 125.07 1050.03 Q122.015 1045.42 122.015 1036.69 Q122.015 1027.94 125.07 1023.36 Q128.149 1018.75 133.959 1018.75 Z" fill="#4c4c4c" fill-rule="nonzero" fill-opacity="1" /><path clip-path="url(#clip090)" d="M107.964 451.613 Q111.32 452.331 113.195 454.599 Q115.094 456.868 115.094 460.201 Q115.094 465.317 111.575 468.118 Q108.057 470.918 101.575 470.918 Q99.3992 470.918 97.0844 470.479 Q94.7927 470.062 92.339 469.205 L92.339 464.692 Q94.2835 465.826 96.5983 466.405 Q98.9131 466.983 101.436 466.983 Q105.834 466.983 108.126 465.247 Q110.441 463.511 110.441 460.201 Q110.441 457.145 108.288 455.432 Q106.158 453.696 102.339 453.696 L98.3112 453.696 L98.3112 449.854 L102.524 449.854 Q105.973 449.854 107.802 448.488 Q109.631 447.099 109.631 444.507 Q109.631 441.845 107.732 440.432 Q105.857 438.997 102.339 438.997 Q100.418 438.997 98.2186 439.414 Q96.0196 439.831 93.3807 440.71 L93.3807 436.544 Q96.0427 435.803 98.3575 435.433 Q100.695 435.062 102.756 435.062 Q108.08 435.062 111.182 437.493 Q114.283 439.9 114.283 444.02 Q114.283 446.891 112.64 448.882 Q110.996 450.849 107.964 451.613 Z" fill="#4c4c4c" fill-rule="nonzero" fill-opacity="1" /><path clip-path="url(#clip090)" d="M133.959 438.766 Q130.348 438.766 128.519 442.331 Q126.714 445.872 126.714 453.002 Q126.714 460.108 128.519 463.673 Q130.348 467.215 133.959 467.215 Q137.593 467.215 139.399 463.673 Q141.228 460.108 141.228 453.002 Q141.228 445.872 139.399 442.331 Q137.593 438.766 133.959 438.766 M133.959 435.062 Q139.769 435.062 142.825 439.669 Q145.904 444.252 145.904 453.002 Q145.904 461.729 142.825 466.335 Q139.769 470.918 133.959 470.918 Q128.149 470.918 125.07 466.335 Q122.015 461.729 122.015 453.002 Q122.015 444.252 125.07 439.669 Q128.149 435.062 133.959 435.062 Z" fill="#4c4c4c" fill-rule="nonzero" fill-opacity="1" /><path clip-path="url(#clip090)" d="M18.2962 1141.64 L35.6428 1154.53 L53.9442 1140.97 L53.9442 1147.88 L39.9396 1158.26 L53.9442 1168.63 L53.9442 1175.54 L35.2926 1161.69 L18.2962 1174.36 L18.2962 1167.45 L30.9958 1158 L18.2962 1148.55 L18.2962 1141.64 Z" fill="#000000" fill-rule="nonzero" fill-opacity="1" /><path clip-path="url(#clip090)" d="M628.261 20.3876 L628.261 25.4223 Q626.004 24.2649 623.573 23.6862 Q621.143 23.1075 618.539 23.1075 Q614.574 23.1075 612.578 24.3228 Q610.61 25.5381 610.61 27.9686 Q610.61 29.8204 612.028 30.891 Q613.446 31.9327 617.728 32.8876 L619.551 33.2926 Q625.223 34.5079 627.595 36.7359 Q629.997 38.935 629.997 42.8991 Q629.997 47.4129 626.409 50.046 Q622.85 52.6791 616.6 52.6791 Q613.996 52.6791 611.16 52.1583 Q608.353 51.6664 605.228 50.6537 L605.228 45.156 Q608.18 46.6896 611.044 47.4708 Q613.909 48.2231 616.716 48.2231 Q620.477 48.2231 622.503 46.95 Q624.528 45.6479 624.528 43.3042 Q624.528 41.134 623.052 39.9766 Q621.606 38.8192 616.658 37.7486 L614.806 37.3146 Q609.858 36.273 607.659 34.1318 Q605.46 31.9616 605.46 28.2001 Q605.46 23.6283 608.701 21.1399 Q611.941 18.6515 617.902 18.6515 Q620.853 18.6515 623.458 19.0855 Q626.062 19.5196 628.261 20.3876 Z" fill="#000000" fill-rule="nonzero" fill-opacity="1" /><path clip-path="url(#clip090)" d="M651.033 23.1654 Q646.75 23.1654 644.262 26.5218 Q641.773 29.8494 641.773 35.6653 Q641.773 41.4813 644.233 44.8377 Q646.721 48.1653 651.033 48.1653 Q655.286 48.1653 657.774 44.8088 Q660.263 41.4523 660.263 35.6653 Q660.263 29.9072 657.774 26.5508 Q655.286 23.1654 651.033 23.1654 M651.033 18.6515 Q657.977 18.6515 661.941 23.1654 Q665.905 27.6792 665.905 35.6653 Q665.905 43.6225 661.941 48.1653 Q657.977 52.6791 651.033 52.6791 Q644.059 52.6791 640.095 48.1653 Q636.16 43.6225 636.16 35.6653 Q636.16 27.6792 640.095 23.1654 Q644.059 18.6515 651.033 18.6515 Z" fill="#000000" fill-rule="nonzero" fill-opacity="1" /><path clip-path="url(#clip090)" d="M674.73 6.81709 L680.054 6.81709 L680.054 51.84 L674.73 51.84 L674.73 6.81709 Z" fill="#000000" fill-rule="nonzero" fill-opacity="1" /><path clip-path="url(#clip090)" d="M690.645 39.0507 L690.645 19.4328 L695.969 19.4328 L695.969 38.8482 Q695.969 43.4488 697.763 45.7636 Q699.557 48.0495 703.145 48.0495 Q707.456 48.0495 709.944 45.3007 Q712.462 42.5519 712.462 37.8065 L712.462 19.4328 L717.786 19.4328 L717.786 51.84 L712.462 51.84 L712.462 46.8632 Q710.523 49.8145 707.948 51.2613 Q705.402 52.6791 702.016 52.6791 Q696.432 52.6791 693.538 49.2069 Q690.645 45.7347 690.645 39.0507 M704.042 18.6515 L704.042 18.6515 Z" fill="#000000" fill-rule="nonzero" fill-opacity="1" /><path clip-path="url(#clip090)" d="M752.074 20.677 L752.074 25.6538 Q749.817 24.4096 747.531 23.802 Q745.274 23.1654 742.959 23.1654 Q737.78 23.1654 734.915 26.464 Q732.051 29.7336 732.051 35.6653 Q732.051 41.597 734.915 44.8956 Q737.78 48.1653 742.959 48.1653 Q745.274 48.1653 747.531 47.5576 Q749.817 46.921 752.074 45.6768 L752.074 50.5958 Q749.846 51.6375 747.444 52.1583 Q745.071 52.6791 742.381 52.6791 Q735.06 52.6791 730.749 48.0784 Q726.437 43.4778 726.437 35.6653 Q726.437 27.7371 730.778 23.1943 Q735.147 18.6515 742.728 18.6515 Q745.187 18.6515 747.531 19.1724 Q749.875 19.6642 752.074 20.677 M744.551 51.84 Q746.142 53.634 746.923 55.1386 Q747.705 56.6722 747.705 58.061 Q747.705 60.6362 745.968 61.9383 Q744.232 63.2693 740.818 63.2693 Q739.487 63.2693 738.214 63.0957 Q736.97 62.9221 735.725 62.5749 L735.725 58.7844 Q736.709 59.2763 737.78 59.4788 Q738.85 59.7103 740.21 59.7103 Q741.918 59.7103 742.786 59.0159 Q743.654 58.3214 743.654 56.9904 Q743.654 56.1224 743.017 54.8492 Q742.409 53.605 741.107 51.84 L744.551 51.84 Z" fill="#000000" fill-rule="nonzero" fill-opacity="1" /><path clip-path="url(#clip090)" d="M776.061 35.5496 Q769.608 35.5496 767.12 37.0253 Q764.632 38.501 764.632 42.06 Q764.632 44.8956 766.483 46.5738 Q768.364 48.2231 771.576 48.2231 Q776.003 48.2231 778.665 45.0981 Q781.356 41.9442 781.356 36.7359 L781.356 35.5496 L776.061 35.5496 M786.68 33.3505 L786.68 51.84 L781.356 51.84 L781.356 46.921 Q779.533 49.8724 776.813 51.2902 Q774.093 52.6791 770.158 52.6791 Q765.181 52.6791 762.23 49.9014 Q759.308 47.0947 759.308 42.4072 Q759.308 36.9385 762.953 34.1607 Q766.628 31.3829 773.891 31.3829 L781.356 31.3829 L781.356 30.8621 Q781.356 27.1874 778.925 25.1908 Q776.524 23.1654 772.155 23.1654 Q769.377 23.1654 766.744 23.8309 Q764.111 24.4964 761.68 25.8274 L761.68 20.9085 Q764.603 19.78 767.351 19.2302 Q770.1 18.6515 772.704 18.6515 Q779.736 18.6515 783.208 22.2973 Q786.68 25.9431 786.68 33.3505 M772.82 12.199 L771.171 10.6076 Q770.534 10.0289 770.042 9.76847 Q769.579 9.47912 769.203 9.47912 Q768.104 9.47912 767.583 10.5497 Q767.062 11.5914 767.004 13.964 L763.387 13.964 Q763.445 10.0578 764.921 7.94556 Q766.397 5.80437 769.03 5.80437 Q770.129 5.80437 771.055 6.20946 Q771.981 6.61455 773.052 7.5694 L774.701 9.16083 Q775.338 9.73953 775.8 10.0289 Q776.292 10.2893 776.669 10.2893 Q777.768 10.2893 778.289 9.24764 Q778.81 8.17704 778.868 5.80437 L782.484 5.80437 Q782.427 9.7106 780.951 11.8518 Q779.475 13.964 776.842 13.964 Q775.743 13.964 774.817 13.559 Q773.891 13.1539 772.82 12.199 Z" fill="#000000" fill-rule="nonzero" fill-opacity="1" /><path clip-path="url(#clip090)" d="M810.204 23.1654 Q805.922 23.1654 803.433 26.5218 Q800.945 29.8494 800.945 35.6653 Q800.945 41.4813 803.404 44.8377 Q805.893 48.1653 810.204 48.1653 Q814.458 48.1653 816.946 44.8088 Q819.434 41.4523 819.434 35.6653 Q819.434 29.9072 816.946 26.5508 Q814.458 23.1654 810.204 23.1654 M810.204 18.6515 Q817.149 18.6515 821.113 23.1654 Q825.077 27.6792 825.077 35.6653 Q825.077 43.6225 821.113 48.1653 Q817.149 52.6791 810.204 52.6791 Q803.231 52.6791 799.267 48.1653 Q795.332 43.6225 795.332 35.6653 Q795.332 27.6792 799.267 23.1654 Q803.231 18.6515 810.204 18.6515 Z" fill="#000000" fill-rule="nonzero" fill-opacity="1" /><path clip-path="url(#clip090)" d="M874.064 24.3517 L874.064 6.81709 L879.388 6.81709 L879.388 51.84 L874.064 51.84 L874.064 46.9789 Q872.386 49.8724 869.81 51.2902 Q867.264 52.6791 863.676 52.6791 Q857.802 52.6791 854.099 47.9916 Q850.424 43.3042 850.424 35.6653 Q850.424 28.0265 854.099 23.339 Q857.802 18.6515 863.676 18.6515 Q867.264 18.6515 869.81 20.0693 Q872.386 21.4582 874.064 24.3517 M855.922 35.6653 Q855.922 41.5391 858.323 44.8956 Q860.754 48.2231 864.978 48.2231 Q869.203 48.2231 871.633 44.8956 Q874.064 41.5391 874.064 35.6653 Q874.064 29.7915 871.633 26.464 Q869.203 23.1075 864.978 23.1075 Q860.754 23.1075 858.323 26.464 Q855.922 29.7915 855.922 35.6653 Z" fill="#000000" fill-rule="nonzero" fill-opacity="1" /><path clip-path="url(#clip090)" d="M905.082 35.5496 Q898.63 35.5496 896.141 37.0253 Q893.653 38.501 893.653 42.06 Q893.653 44.8956 895.505 46.5738 Q897.385 48.2231 900.597 48.2231 Q905.024 48.2231 907.686 45.0981 Q910.377 41.9442 910.377 36.7359 L910.377 35.5496 L905.082 35.5496 M915.701 33.3505 L915.701 51.84 L910.377 51.84 L910.377 46.921 Q908.554 49.8724 905.834 51.2902 Q903.115 52.6791 899.179 52.6791 Q894.203 52.6791 891.251 49.9014 Q888.329 47.0947 888.329 42.4072 Q888.329 36.9385 891.975 34.1607 Q895.649 31.3829 902.912 31.3829 L910.377 31.3829 L910.377 30.8621 Q910.377 27.1874 907.947 25.1908 Q905.545 23.1654 901.176 23.1654 Q898.398 23.1654 895.765 23.8309 Q893.132 24.4964 890.701 25.8274 L890.701 20.9085 Q893.624 19.78 896.373 19.2302 Q899.122 18.6515 901.726 18.6515 Q908.757 18.6515 912.229 22.2973 Q915.701 25.9431 915.701 33.3505 Z" fill="#000000" fill-rule="nonzero" fill-opacity="1" /><path clip-path="url(#clip090)" d="M973.224 34.3054 L973.224 36.9095 L948.745 36.9095 Q949.092 42.4072 952.044 45.3007 Q955.024 48.1653 960.319 48.1653 Q963.386 48.1653 966.251 47.4129 Q969.144 46.6606 971.98 45.156 L971.98 50.1907 Q969.115 51.406 966.106 52.0425 Q963.097 52.6791 960.001 52.6791 Q952.246 52.6791 947.703 48.1653 Q943.19 43.6514 943.19 35.9547 Q943.19 27.9975 947.472 23.339 Q951.783 18.6515 959.075 18.6515 Q965.614 18.6515 969.405 22.876 Q973.224 27.0716 973.224 34.3054 M967.9 32.7429 Q967.842 28.3737 965.441 25.7695 Q963.068 23.1654 959.133 23.1654 Q954.677 23.1654 951.986 25.6827 Q949.324 28.2001 948.919 32.7718 L967.9 32.7429 Z" fill="#000000" fill-rule="nonzero" fill-opacity="1" /><path clip-path="url(#clip090)" d="M985.145 35.6653 Q985.145 41.5391 987.547 44.8956 Q989.978 48.2231 994.202 48.2231 Q998.427 48.2231 1000.86 44.8956 Q1003.29 41.5391 1003.29 35.6653 Q1003.29 29.7915 1000.86 26.464 Q998.427 23.1075 994.202 23.1075 Q989.978 23.1075 987.547 26.464 Q985.145 29.7915 985.145 35.6653 M1003.29 46.9789 Q1001.61 49.8724 999.034 51.2902 Q996.488 52.6791 992.9 52.6791 Q987.026 52.6791 983.323 47.9916 Q979.648 43.3042 979.648 35.6653 Q979.648 28.0265 983.323 23.339 Q987.026 18.6515 992.9 18.6515 Q996.488 18.6515 999.034 20.0693 Q1001.61 21.4582 1003.29 24.3517 L1003.29 19.4328 L1008.61 19.4328 L1008.61 64.1663 L1003.29 64.1663 L1003.29 46.9789 Z" fill="#000000" fill-rule="nonzero" fill-opacity="1" /><path clip-path="url(#clip090)" d="M1019.03 39.0507 L1019.03 19.4328 L1024.35 19.4328 L1024.35 38.8482 Q1024.35 43.4488 1026.15 45.7636 Q1027.94 48.0495 1031.53 48.0495 Q1035.84 48.0495 1038.33 45.3007 Q1040.85 42.5519 1040.85 37.8065 L1040.85 19.4328 L1046.17 19.4328 L1046.17 51.84 L1040.85 51.84 L1040.85 46.8632 Q1038.91 49.8145 1036.33 51.2613 Q1033.79 52.6791 1030.4 52.6791 Q1024.82 52.6791 1021.92 49.2069 Q1019.03 45.7347 1019.03 39.0507 M1032.43 18.6515 L1032.43 18.6515 Z" fill="#000000" fill-rule="nonzero" fill-opacity="1" /><path clip-path="url(#clip090)" d="M1071.86 35.5496 Q1065.41 35.5496 1062.92 37.0253 Q1060.43 38.501 1060.43 42.06 Q1060.43 44.8956 1062.29 46.5738 Q1064.17 48.2231 1067.38 48.2231 Q1071.81 48.2231 1074.47 45.0981 Q1077.16 41.9442 1077.16 36.7359 L1077.16 35.5496 L1071.86 35.5496 M1082.48 33.3505 L1082.48 51.84 L1077.16 51.84 L1077.16 46.921 Q1075.34 49.8724 1072.62 51.2902 Q1069.9 52.6791 1065.96 52.6791 Q1060.98 52.6791 1058.03 49.9014 Q1055.11 47.0947 1055.11 42.4072 Q1055.11 36.9385 1058.76 34.1607 Q1062.43 31.3829 1069.69 31.3829 L1077.16 31.3829 L1077.16 30.8621 Q1077.16 27.1874 1074.73 25.1908 Q1072.33 23.1654 1067.96 23.1654 Q1065.18 23.1654 1062.55 23.8309 Q1059.91 24.4964 1057.48 25.8274 L1057.48 20.9085 Q1060.41 19.78 1063.15 19.2302 Q1065.9 18.6515 1068.51 18.6515 Q1075.54 18.6515 1079.01 22.2973 Q1082.48 25.9431 1082.48 33.3505 Z" fill="#000000" fill-rule="nonzero" fill-opacity="1" /><path clip-path="url(#clip090)" d="M1116.77 20.677 L1116.77 25.6538 Q1114.51 24.4096 1112.23 23.802 Q1109.97 23.1654 1107.66 23.1654 Q1102.48 23.1654 1099.61 26.464 Q1096.75 29.7336 1096.75 35.6653 Q1096.75 41.597 1099.61 44.8956 Q1102.48 48.1653 1107.66 48.1653 Q1109.97 48.1653 1112.23 47.5576 Q1114.51 46.921 1116.77 45.6768 L1116.77 50.5958 Q1114.54 51.6375 1112.14 52.1583 Q1109.77 52.6791 1107.08 52.6791 Q1099.76 52.6791 1095.45 48.0784 Q1091.13 43.4778 1091.13 35.6653 Q1091.13 27.7371 1095.47 23.1943 Q1099.84 18.6515 1107.42 18.6515 Q1109.88 18.6515 1112.23 19.1724 Q1114.57 19.6642 1116.77 20.677 M1109.25 51.84 Q1110.84 53.634 1111.62 55.1386 Q1112.4 56.6722 1112.4 58.061 Q1112.4 60.6362 1110.67 61.9383 Q1108.93 63.2693 1105.52 63.2693 Q1104.18 63.2693 1102.91 63.0957 Q1101.67 62.9221 1100.42 62.5749 L1100.42 58.7844 Q1101.41 59.2763 1102.48 59.4788 Q1103.55 59.7103 1104.91 59.7103 Q1106.61 59.7103 1107.48 59.0159 Q1108.35 58.3214 1108.35 56.9904 Q1108.35 56.1224 1107.71 54.8492 Q1107.11 53.605 1105.8 51.84 L1109.25 51.84 Z" fill="#000000" fill-rule="nonzero" fill-opacity="1" /><path clip-path="url(#clip090)" d="M1140.76 35.5496 Q1134.31 35.5496 1131.82 37.0253 Q1129.33 38.501 1129.33 42.06 Q1129.33 44.8956 1131.18 46.5738 Q1133.06 48.2231 1136.27 48.2231 Q1140.7 48.2231 1143.36 45.0981 Q1146.05 41.9442 1146.05 36.7359 L1146.05 35.5496 L1140.76 35.5496 M1151.38 33.3505 L1151.38 51.84 L1146.05 51.84 L1146.05 46.921 Q1144.23 49.8724 1141.51 51.2902 Q1138.79 52.6791 1134.86 52.6791 Q1129.88 52.6791 1126.93 49.9014 Q1124 47.0947 1124 42.4072 Q1124 36.9385 1127.65 34.1607 Q1131.33 31.3829 1138.59 31.3829 L1146.05 31.3829 L1146.05 30.8621 Q1146.05 27.1874 1143.62 25.1908 Q1141.22 23.1654 1136.85 23.1654 Q1134.07 23.1654 1131.44 23.8309 Q1128.81 24.4964 1126.38 25.8274 L1126.38 20.9085 Q1129.3 19.78 1132.05 19.2302 Q1134.8 18.6515 1137.4 18.6515 Q1144.43 18.6515 1147.9 22.2973 Q1151.38 25.9431 1151.38 33.3505 M1137.52 12.199 L1135.87 10.6076 Q1135.23 10.0289 1134.74 9.76847 Q1134.28 9.47912 1133.9 9.47912 Q1132.8 9.47912 1132.28 10.5497 Q1131.76 11.5914 1131.7 13.964 L1128.08 13.964 Q1128.14 10.0578 1129.62 7.94556 Q1131.09 5.80437 1133.73 5.80437 Q1134.83 5.80437 1135.75 6.20946 Q1136.68 6.61455 1137.75 7.5694 L1139.4 9.16083 Q1140.03 9.73953 1140.5 10.0289 Q1140.99 10.2893 1141.37 10.2893 Q1142.47 10.2893 1142.99 9.24764 Q1143.51 8.17704 1143.56 5.80437 L1147.18 5.80437 Q1147.12 9.7106 1145.65 11.8518 Q1144.17 13.964 1141.54 13.964 Q1140.44 13.964 1139.51 13.559 Q1138.59 13.1539 1137.52 12.199 Z" fill="#000000" fill-rule="nonzero" fill-opacity="1" /><path clip-path="url(#clip090)" d="M1174.9 23.1654 Q1170.62 23.1654 1168.13 26.5218 Q1165.64 29.8494 1165.64 35.6653 Q1165.64 41.4813 1168.1 44.8377 Q1170.59 48.1653 1174.9 48.1653 Q1179.15 48.1653 1181.64 44.8088 Q1184.13 41.4523 1184.13 35.6653 Q1184.13 29.9072 1181.64 26.5508 Q1179.15 23.1654 1174.9 23.1654 M1174.9 18.6515 Q1181.85 18.6515 1185.81 23.1654 Q1189.77 27.6792 1189.77 35.6653 Q1189.77 43.6225 1185.81 48.1653 Q1181.85 52.6791 1174.9 52.6791 Q1167.93 52.6791 1163.96 48.1653 Q1160.03 43.6225 1160.03 35.6653 Q1160.03 27.6792 1163.96 23.1654 Q1167.93 18.6515 1174.9 18.6515 Z" fill="#000000" fill-rule="nonzero" fill-opacity="1" /><path clip-path="url(#clip090)" d="M1238.76 24.3517 L1238.76 6.81709 L1244.08 6.81709 L1244.08 51.84 L1238.76 51.84 L1238.76 46.9789 Q1237.08 49.8724 1234.51 51.2902 Q1231.96 52.6791 1228.37 52.6791 Q1222.5 52.6791 1218.8 47.9916 Q1215.12 43.3042 1215.12 35.6653 Q1215.12 28.0265 1218.8 23.339 Q1222.5 18.6515 1228.37 18.6515 Q1231.96 18.6515 1234.51 20.0693 Q1237.08 21.4582 1238.76 24.3517 M1220.62 35.6653 Q1220.62 41.5391 1223.02 44.8956 Q1225.45 48.2231 1229.68 48.2231 Q1233.9 48.2231 1236.33 44.8956 Q1238.76 41.5391 1238.76 35.6653 Q1238.76 29.7915 1236.33 26.464 Q1233.9 23.1075 1229.68 23.1075 Q1225.45 23.1075 1223.02 26.464 Q1220.62 29.7915 1220.62 35.6653 Z" fill="#000000" fill-rule="nonzero" fill-opacity="1" /><path clip-path="url(#clip090)" d="M1255.05 19.4328 L1260.38 19.4328 L1260.38 51.84 L1255.05 51.84 L1255.05 19.4328 M1255.05 6.81709 L1260.38 6.81709 L1260.38 13.559 L1255.05 13.559 L1255.05 6.81709 Z" fill="#000000" fill-rule="nonzero" fill-opacity="1" /><path clip-path="url(#clip090)" d="M1287.92 6.81709 L1287.92 11.2442 L1282.83 11.2442 Q1279.96 11.2442 1278.84 12.4016 Q1277.74 13.559 1277.74 16.5682 L1277.74 19.4328 L1286.5 19.4328 L1286.5 23.5705 L1277.74 23.5705 L1277.74 51.84 L1272.38 51.84 L1272.38 23.5705 L1267.29 23.5705 L1267.29 19.4328 L1272.38 19.4328 L1272.38 17.1758 Q1272.38 11.765 1274.9 9.30551 Q1277.42 6.81709 1282.89 6.81709 L1287.92 6.81709 Z" fill="#000000" fill-rule="nonzero" fill-opacity="1" /><path clip-path="url(#clip090)" d="M1320.1 34.3054 L1320.1 36.9095 L1295.62 36.9095 Q1295.97 42.4072 1298.92 45.3007 Q1301.9 48.1653 1307.19 48.1653 Q1310.26 48.1653 1313.12 47.4129 Q1316.02 46.6606 1318.85 45.156 L1318.85 50.1907 Q1315.99 51.406 1312.98 52.0425 Q1309.97 52.6791 1306.87 52.6791 Q1299.12 52.6791 1294.58 48.1653 Q1290.06 43.6514 1290.06 35.9547 Q1290.06 27.9975 1294.35 23.339 Q1298.66 18.6515 1305.95 18.6515 Q1312.49 18.6515 1316.28 22.876 Q1320.1 27.0716 1320.1 34.3054 M1314.77 32.7429 Q1314.72 28.3737 1312.31 25.7695 Q1309.94 23.1654 1306.01 23.1654 Q1301.55 23.1654 1298.86 25.6827 Q1296.2 28.2001 1295.79 32.7718 L1314.77 32.7429 Z" fill="#000000" fill-rule="nonzero" fill-opacity="1" /><path clip-path="url(#clip090)" d="M1347.61 24.4096 Q1346.72 23.8888 1345.65 23.6573 Q1344.61 23.3969 1343.33 23.3969 Q1338.82 23.3969 1336.39 26.3482 Q1333.99 29.2707 1333.99 34.7683 L1333.99 51.84 L1328.63 51.84 L1328.63 19.4328 L1333.99 19.4328 L1333.99 24.4675 Q1335.66 21.5161 1338.36 20.0983 Q1341.05 18.6515 1344.89 18.6515 Q1345.44 18.6515 1346.11 18.7383 Q1346.78 18.7962 1347.59 18.9409 L1347.61 24.4096 Z" fill="#000000" fill-rule="nonzero" fill-opacity="1" /><path clip-path="url(#clip090)" d="M1379.62 34.3054 L1379.62 36.9095 L1355.14 36.9095 Q1355.48 42.4072 1358.44 45.3007 Q1361.42 48.1653 1366.71 48.1653 Q1369.78 48.1653 1372.64 47.4129 Q1375.54 46.6606 1378.37 45.156 L1378.37 50.1907 Q1375.51 51.406 1372.5 52.0425 Q1369.49 52.6791 1366.39 52.6791 Q1358.64 52.6791 1354.1 48.1653 Q1349.58 43.6514 1349.58 35.9547 Q1349.58 27.9975 1353.86 23.339 Q1358.18 18.6515 1365.47 18.6515 Q1372.01 18.6515 1375.8 22.876 Q1379.62 27.0716 1379.62 34.3054 M1374.29 32.7429 Q1374.23 28.3737 1371.83 25.7695 Q1369.46 23.1654 1365.53 23.1654 Q1361.07 23.1654 1358.38 25.6827 Q1355.72 28.2001 1355.31 32.7718 L1374.29 32.7429 Z" fill="#000000" fill-rule="nonzero" fill-opacity="1" /><path clip-path="url(#clip090)" d="M1415.29 32.2799 L1415.29 51.84 L1409.97 51.84 L1409.97 32.4535 Q1409.97 27.8529 1408.18 25.567 Q1406.38 23.2811 1402.79 23.2811 Q1398.48 23.2811 1395.99 26.03 Q1393.51 28.7788 1393.51 33.5241 L1393.51 51.84 L1388.15 51.84 L1388.15 19.4328 L1393.51 19.4328 L1393.51 24.4675 Q1395.42 21.545 1397.99 20.0983 Q1400.59 18.6515 1403.98 18.6515 Q1409.56 18.6515 1412.43 22.1237 Q1415.29 25.567 1415.29 32.2799 Z" fill="#000000" fill-rule="nonzero" fill-opacity="1" /><path clip-path="url(#clip090)" d="M1449.23 20.677 L1449.23 25.6538 Q1446.98 24.4096 1444.69 23.802 Q1442.43 23.1654 1440.12 23.1654 Q1434.94 23.1654 1432.08 26.464 Q1429.21 29.7336 1429.21 35.6653 Q1429.21 41.597 1432.08 44.8956 Q1434.94 48.1653 1440.12 48.1653 Q1442.43 48.1653 1444.69 47.5576 Q1446.98 46.921 1449.23 45.6768 L1449.23 50.5958 Q1447.01 51.6375 1444.6 52.1583 Q1442.23 52.6791 1439.54 52.6791 Q1432.22 52.6791 1427.91 48.0784 Q1423.6 43.4778 1423.6 35.6653 Q1423.6 27.7371 1427.94 23.1943 Q1432.31 18.6515 1439.89 18.6515 Q1442.35 18.6515 1444.69 19.1724 Q1447.04 19.6642 1449.23 20.677 Z" fill="#000000" fill-rule="nonzero" fill-opacity="1" /><path clip-path="url(#clip090)" d="M1458.49 19.4328 L1463.82 19.4328 L1463.82 51.84 L1458.49 51.84 L1458.49 19.4328 M1458.49 6.81709 L1463.82 6.81709 L1463.82 13.559 L1458.49 13.559 L1458.49 6.81709 Z" fill="#000000" fill-rule="nonzero" fill-opacity="1" /><path clip-path="url(#clip090)" d="M1489.69 35.5496 Q1483.23 35.5496 1480.74 37.0253 Q1478.26 38.501 1478.26 42.06 Q1478.26 44.8956 1480.11 46.5738 Q1481.99 48.2231 1485.2 48.2231 Q1489.63 48.2231 1492.29 45.0981 Q1494.98 41.9442 1494.98 36.7359 L1494.98 35.5496 L1489.69 35.5496 M1500.3 33.3505 L1500.3 51.84 L1494.98 51.84 L1494.98 46.921 Q1493.16 49.8724 1490.44 51.2902 Q1487.72 52.6791 1483.78 52.6791 Q1478.81 52.6791 1475.85 49.9014 Q1472.93 47.0947 1472.93 42.4072 Q1472.93 36.9385 1476.58 34.1607 Q1480.25 31.3829 1487.52 31.3829 L1494.98 31.3829 L1494.98 30.8621 Q1494.98 27.1874 1492.55 25.1908 Q1490.15 23.1654 1485.78 23.1654 Q1483 23.1654 1480.37 23.8309 Q1477.74 24.4964 1475.3 25.8274 L1475.3 20.9085 Q1478.23 19.78 1480.98 19.2302 Q1483.72 18.6515 1486.33 18.6515 Q1493.36 18.6515 1496.83 22.2973 Q1500.3 25.9431 1500.3 33.3505 Z" fill="#000000" fill-rule="nonzero" fill-opacity="1" /><path clip-path="url(#clip090)" d="M1511.27 6.81709 L1516.6 6.81709 L1516.6 51.84 L1511.27 51.84 L1511.27 6.81709 Z" fill="#000000" fill-rule="nonzero" fill-opacity="1" /><path clip-path="url(#clip090)" d="M1561.3 35.5496 Q1554.85 35.5496 1552.36 37.0253 Q1549.87 38.501 1549.87 42.06 Q1549.87 44.8956 1551.72 46.5738 Q1553.6 48.2231 1556.81 48.2231 Q1561.24 48.2231 1563.9 45.0981 Q1566.59 41.9442 1566.59 36.7359 L1566.59 35.5496 L1561.3 35.5496 M1571.92 33.3505 L1571.92 51.84 L1566.59 51.84 L1566.59 46.921 Q1564.77 49.8724 1562.05 51.2902 Q1559.33 52.6791 1555.4 52.6791 Q1550.42 52.6791 1547.47 49.9014 Q1544.55 47.0947 1544.55 42.4072 Q1544.55 36.9385 1548.19 34.1607 Q1551.87 31.3829 1559.13 31.3829 L1566.59 31.3829 L1566.59 30.8621 Q1566.59 27.1874 1564.16 25.1908 Q1561.76 23.1654 1557.39 23.1654 Q1554.62 23.1654 1551.98 23.8309 Q1549.35 24.4964 1546.92 25.8274 L1546.92 20.9085 Q1549.84 19.78 1552.59 19.2302 Q1555.34 18.6515 1557.94 18.6515 Q1564.97 18.6515 1568.45 22.2973 Q1571.92 25.9431 1571.92 33.3505 Z" fill="#000000" fill-rule="nonzero" fill-opacity="1" /><path clip-path="url(#clip090)" d="M1582.89 6.81709 L1588.21 6.81709 L1588.21 51.84 L1582.89 51.84 L1582.89 6.81709 Z" fill="#000000" fill-rule="nonzero" fill-opacity="1" /><path clip-path="url(#clip090)" d="M1627.07 34.3054 L1627.07 36.9095 L1602.59 36.9095 Q1602.94 42.4072 1605.89 45.3007 Q1608.87 48.1653 1614.16 48.1653 Q1617.23 48.1653 1620.1 47.4129 Q1622.99 46.6606 1625.82 45.156 L1625.82 50.1907 Q1622.96 51.406 1619.95 52.0425 Q1616.94 52.6791 1613.85 52.6791 Q1606.09 52.6791 1601.55 48.1653 Q1597.03 43.6514 1597.03 35.9547 Q1597.03 27.9975 1601.32 23.339 Q1605.63 18.6515 1612.92 18.6515 Q1619.46 18.6515 1623.25 22.876 Q1627.07 27.0716 1627.07 34.3054 M1621.75 32.7429 Q1621.69 28.3737 1619.29 25.7695 Q1616.91 23.1654 1612.98 23.1654 Q1608.52 23.1654 1605.83 25.6827 Q1603.17 28.2001 1602.76 32.7718 L1621.75 32.7429 Z" fill="#000000" fill-rule="nonzero" fill-opacity="1" /><path clip-path="url(#clip090)" d="M1650.54 35.5496 Q1644.08 35.5496 1641.59 37.0253 Q1639.11 38.501 1639.11 42.06 Q1639.11 44.8956 1640.96 46.5738 Q1642.84 48.2231 1646.05 48.2231 Q1650.48 48.2231 1653.14 45.0981 Q1655.83 41.9442 1655.83 36.7359 L1655.83 35.5496 L1650.54 35.5496 M1661.15 33.3505 L1661.15 51.84 L1655.83 51.84 L1655.83 46.921 Q1654.01 49.8724 1651.29 51.2902 Q1648.57 52.6791 1644.63 52.6791 Q1639.66 52.6791 1636.7 49.9014 Q1633.78 47.0947 1633.78 42.4072 Q1633.78 36.9385 1637.43 34.1607 Q1641.1 31.3829 1648.37 31.3829 L1655.83 31.3829 L1655.83 30.8621 Q1655.83 27.1874 1653.4 25.1908 Q1651 23.1654 1646.63 23.1654 Q1643.85 23.1654 1641.22 23.8309 Q1638.59 24.4964 1636.15 25.8274 L1636.15 20.9085 Q1639.08 19.78 1641.83 19.2302 Q1644.57 18.6515 1647.18 18.6515 Q1654.21 18.6515 1657.68 22.2973 Q1661.15 25.9431 1661.15 33.3505 Z" fill="#000000" fill-rule="nonzero" fill-opacity="1" /><path clip-path="url(#clip090)" d="M1677.39 10.2314 L1677.39 19.4328 L1688.35 19.4328 L1688.35 23.5705 L1677.39 23.5705 L1677.39 41.163 Q1677.39 45.1271 1678.46 46.2555 Q1679.56 47.384 1682.88 47.384 L1688.35 47.384 L1688.35 51.84 L1682.88 51.84 Q1676.72 51.84 1674.38 49.5541 Q1672.03 47.2393 1672.03 41.163 L1672.03 23.5705 L1668.13 23.5705 L1668.13 19.4328 L1672.03 19.4328 L1672.03 10.2314 L1677.39 10.2314 Z" fill="#000000" fill-rule="nonzero" fill-opacity="1" /><path clip-path="url(#clip090)" d="M1707.91 23.1654 Q1703.63 23.1654 1701.14 26.5218 Q1698.65 29.8494 1698.65 35.6653 Q1698.65 41.4813 1701.11 44.8377 Q1703.6 48.1653 1707.91 48.1653 Q1712.17 48.1653 1714.66 44.8088 Q1717.14 41.4523 1717.14 35.6653 Q1717.14 29.9072 1714.66 26.5508 Q1712.17 23.1654 1707.91 23.1654 M1707.91 18.6515 Q1714.86 18.6515 1718.82 23.1654 Q1722.79 27.6792 1722.79 35.6653 Q1722.79 43.6225 1718.82 48.1653 Q1714.86 52.6791 1707.91 52.6791 Q1700.94 52.6791 1696.98 48.1653 Q1693.04 43.6225 1693.04 35.6653 Q1693.04 27.6792 1696.98 23.1654 Q1700.94 18.6515 1707.91 18.6515 M1711.94 4.44442 L1717.69 4.44442 L1708.26 15.324 L1703.83 15.324 L1711.94 4.44442 Z" fill="#000000" fill-rule="nonzero" fill-opacity="1" /><path clip-path="url(#clip090)" d="M1750.39 24.4096 Q1749.49 23.8888 1748.42 23.6573 Q1747.38 23.3969 1746.11 23.3969 Q1741.59 23.3969 1739.16 26.3482 Q1736.76 29.2707 1736.76 34.7683 L1736.76 51.84 L1731.41 51.84 L1731.41 19.4328 L1736.76 19.4328 L1736.76 24.4675 Q1738.44 21.5161 1741.13 20.0983 Q1743.82 18.6515 1747.67 18.6515 Q1748.22 18.6515 1748.89 18.7383 Q1749.55 18.7962 1750.36 18.9409 L1750.39 24.4096 Z" fill="#000000" fill-rule="nonzero" fill-opacity="1" /><path clip-path="url(#clip090)" d="M1755.97 19.4328 L1761.3 19.4328 L1761.3 51.84 L1755.97 51.84 L1755.97 19.4328 M1755.97 6.81709 L1761.3 6.81709 L1761.3 13.559 L1755.97 13.559 L1755.97 6.81709 Z" fill="#000000" fill-rule="nonzero" fill-opacity="1" /><path clip-path="url(#clip090)" d="M1787.17 35.5496 Q1780.71 35.5496 1778.23 37.0253 Q1775.74 38.501 1775.74 42.06 Q1775.74 44.8956 1777.59 46.5738 Q1779.47 48.2231 1782.68 48.2231 Q1787.11 48.2231 1789.77 45.0981 Q1792.46 41.9442 1792.46 36.7359 L1792.46 35.5496 L1787.17 35.5496 M1797.79 33.3505 L1797.79 51.84 L1792.46 51.84 L1792.46 46.921 Q1790.64 49.8724 1787.92 51.2902 Q1785.2 52.6791 1781.26 52.6791 Q1776.29 52.6791 1773.34 49.9014 Q1770.41 47.0947 1770.41 42.4072 Q1770.41 36.9385 1774.06 34.1607 Q1777.73 31.3829 1785 31.3829 L1792.46 31.3829 L1792.46 30.8621 Q1792.46 27.1874 1790.03 25.1908 Q1787.63 23.1654 1783.26 23.1654 Q1780.48 23.1654 1777.85 23.8309 Q1775.22 24.4964 1772.79 25.8274 L1772.79 20.9085 Q1775.71 19.78 1778.46 19.2302 Q1781.21 18.6515 1783.81 18.6515 Q1790.84 18.6515 1794.31 22.2973 Q1797.79 25.9431 1797.79 33.3505 Z" fill="#000000" fill-rule="nonzero" fill-opacity="1" /><path clip-path="url(#clip090)" d="M1832.62 4.44442 L1840.78 15.2661 L1836.36 15.2661 L1826.92 4.44442 L1832.62 4.44442 Z" fill="#000000" fill-rule="nonzero" fill-opacity="1" /><path clip-path="url(#clip090)" d="M1856.67 39.0507 L1856.67 19.4328 L1861.99 19.4328 L1861.99 38.8482 Q1861.99 43.4488 1863.79 45.7636 Q1865.58 48.0495 1869.17 48.0495 Q1873.48 48.0495 1875.97 45.3007 Q1878.49 42.5519 1878.49 37.8065 L1878.49 19.4328 L1883.81 19.4328 L1883.81 51.84 L1878.49 51.84 L1878.49 46.8632 Q1876.55 49.8145 1873.97 51.2613 Q1871.43 52.6791 1868.04 52.6791 Q1862.46 52.6791 1859.56 49.2069 Q1856.67 45.7347 1856.67 39.0507 M1870.07 18.6515 L1870.07 18.6515 Z" fill="#000000" fill-rule="nonzero" fill-opacity="1" /><path clip-path="url(#clip090)" d="M1899.81 8.64 L1899.81 24.6989 L1894.89 24.6989 L1894.89 8.64 L1899.81 8.64 Z" fill="#000000" fill-rule="nonzero" fill-opacity="1" /><path clip-path="url(#clip090)" d="M1930.6 24.9304 L1967.69 24.9304 L1967.69 29.7915 L1930.6 29.7915 L1930.6 24.9304 M1930.6 36.7359 L1967.69 36.7359 L1967.69 41.6549 L1930.6 41.6549 L1930.6 36.7359 Z" fill="#000000" fill-rule="nonzero" fill-opacity="1" /><path clip-path="url(#clip090)" d="M2019.05 20.3876 L2019.05 25.4223 Q2016.79 24.2649 2014.36 23.6862 Q2011.93 23.1075 2009.33 23.1075 Q2005.37 23.1075 2003.37 24.3228 Q2001.4 25.5381 2001.4 27.9686 Q2001.4 29.8204 2002.82 30.891 Q2004.24 31.9327 2008.52 32.8876 L2010.34 33.2926 Q2016.01 34.5079 2018.39 36.7359 Q2020.79 38.935 2020.79 42.8991 Q2020.79 47.4129 2017.2 50.046 Q2013.64 52.6791 2007.39 52.6791 Q2004.79 52.6791 2001.95 52.1583 Q1999.14 51.6664 1996.02 50.6537 L1996.02 45.156 Q1998.97 46.6896 2001.84 47.4708 Q2004.7 48.2231 2007.51 48.2231 Q2011.27 48.2231 2013.29 46.95 Q2015.32 45.6479 2015.32 43.3042 Q2015.32 41.134 2013.84 39.9766 Q2012.4 38.8192 2007.45 37.7486 L2005.6 37.3146 Q2000.65 36.273 1998.45 34.1318 Q1996.25 31.9616 1996.25 28.2001 Q1996.25 23.6283 1999.49 21.1399 Q2002.73 18.6515 2008.69 18.6515 Q2011.64 18.6515 2014.25 19.0855 Q2016.85 19.5196 2019.05 20.3876 Z" fill="#000000" fill-rule="nonzero" fill-opacity="1" /><path clip-path="url(#clip090)" d="M2029.27 19.4328 L2034.59 19.4328 L2034.59 51.84 L2029.27 51.84 L2029.27 19.4328 M2029.27 6.81709 L2034.59 6.81709 L2034.59 13.559 L2029.27 13.559 L2029.27 6.81709 Z" fill="#000000" fill-rule="nonzero" fill-opacity="1" /><path clip-path="url(#clip090)" d="M2072.67 32.2799 L2072.67 51.84 L2067.34 51.84 L2067.34 32.4535 Q2067.34 27.8529 2065.55 25.567 Q2063.76 23.2811 2060.17 23.2811 Q2055.86 23.2811 2053.37 26.03 Q2050.88 28.7788 2050.88 33.5241 L2050.88 51.84 L2045.53 51.84 L2045.53 19.4328 L2050.88 19.4328 L2050.88 24.4675 Q2052.79 21.545 2055.37 20.0983 Q2057.97 18.6515 2061.35 18.6515 Q2066.94 18.6515 2069.8 22.1237 Q2072.67 25.567 2072.67 32.2799 Z" fill="#000000" fill-rule="nonzero" fill-opacity="1" /><path clip-path="url(#clip090)" d="M2096.08 6.87496 Q2092.2 13.53 2090.32 20.0404 Q2088.44 26.5508 2088.44 33.2348 Q2088.44 39.9188 2090.32 46.487 Q2092.23 53.0263 2096.08 59.6525 L2091.45 59.6525 Q2087.11 52.8527 2084.94 46.2845 Q2082.8 39.7162 2082.8 33.2348 Q2082.8 26.7823 2084.94 20.2429 Q2087.08 13.7036 2091.45 6.87496 L2096.08 6.87496 Z" fill="#000000" fill-rule="nonzero" fill-opacity="1" /><path clip-path="url(#clip090)" d="M2102.79 8.64 L2108.69 8.64 L2117.78 45.156 L2126.83 8.64 L2133.4 8.64 L2142.49 45.156 L2151.55 8.64 L2157.48 8.64 L2146.63 51.84 L2139.28 51.84 L2130.16 14.3402 L2120.96 51.84 L2113.61 51.84 L2102.79 8.64 Z" fill="#000000" fill-rule="nonzero" fill-opacity="1" /><path clip-path="url(#clip090)" d="M2164.16 6.87496 L2168.79 6.87496 Q2173.13 13.7036 2175.27 20.2429 Q2177.44 26.7823 2177.44 33.2348 Q2177.44 39.7162 2175.27 46.2845 Q2173.13 52.8527 2168.79 59.6525 L2164.16 59.6525 Q2168.01 53.0263 2169.89 46.487 Q2171.8 39.9188 2171.8 33.2348 Q2171.8 26.5508 2169.89 20.0404 Q2168.01 13.53 2164.16 6.87496 Z" fill="#000000" fill-rule="nonzero" fill-opacity="1" /><path clip-path="url(#clip090)" d="M2187.57 39.0507 L2187.57 19.4328 L2192.89 19.4328 L2192.89 38.8482 Q2192.89 43.4488 2194.69 45.7636 Q2196.48 48.0495 2200.07 48.0495 Q2204.38 48.0495 2206.87 45.3007 Q2209.39 42.5519 2209.39 37.8065 L2209.39 19.4328 L2214.71 19.4328 L2214.71 51.84 L2209.39 51.84 L2209.39 46.8632 Q2207.45 49.8145 2204.87 51.2613 Q2202.33 52.6791 2198.94 52.6791 Q2193.36 52.6791 2190.46 49.2069 Q2187.57 45.7347 2187.57 39.0507 M2200.97 18.6515 L2200.97 18.6515 Z" fill="#000000" fill-rule="nonzero" fill-opacity="1" /><path clip-path="url(#clip090)" d="M2230.71 4.44442 L2238.87 15.2661 L2234.44 15.2661 L2225.01 4.44442 L2230.71 4.44442 Z" fill="#000000" fill-rule="nonzero" fill-opacity="1" /><path clip-path="url(#clip090)" d="M2297.46 20.677 L2297.46 25.6538 Q2295.21 24.4096 2292.92 23.802 Q2290.67 23.1654 2288.35 23.1654 Q2283.17 23.1654 2280.31 26.464 Q2277.44 29.7336 2277.44 35.6653 Q2277.44 41.597 2280.31 44.8956 Q2283.17 48.1653 2288.35 48.1653 Q2290.67 48.1653 2292.92 47.5576 Q2295.21 46.921 2297.46 45.6768 L2297.46 50.5958 Q2295.24 51.6375 2292.84 52.1583 Q2290.46 52.6791 2287.77 52.6791 Q2280.45 52.6791 2276.14 48.0784 Q2271.83 43.4778 2271.83 35.6653 Q2271.83 27.7371 2276.17 23.1943 Q2280.54 18.6515 2288.12 18.6515 Q2290.58 18.6515 2292.92 19.1724 Q2295.27 19.6642 2297.46 20.677 Z" fill="#000000" fill-rule="nonzero" fill-opacity="1" /><path clip-path="url(#clip090)" d="M2319.28 23.1654 Q2315 23.1654 2312.51 26.5218 Q2310.02 29.8494 2310.02 35.6653 Q2310.02 41.4813 2312.48 44.8377 Q2314.97 48.1653 2319.28 48.1653 Q2323.54 48.1653 2326.02 44.8088 Q2328.51 41.4523 2328.51 35.6653 Q2328.51 29.9072 2326.02 26.5508 Q2323.54 23.1654 2319.28 23.1654 M2319.28 18.6515 Q2326.23 18.6515 2330.19 23.1654 Q2334.15 27.6792 2334.15 35.6653 Q2334.15 43.6225 2330.19 48.1653 Q2326.23 52.6791 2319.28 52.6791 Q2312.31 52.6791 2308.34 48.1653 Q2304.41 43.6225 2304.41 35.6653 Q2304.41 27.6792 2308.34 23.1654 Q2312.31 18.6515 2319.28 18.6515 Z" fill="#000000" fill-rule="nonzero" fill-opacity="1" /><path clip-path="url(#clip090)" d="M2368.21 25.6538 Q2370.21 22.0659 2372.99 20.3587 Q2375.76 18.6515 2379.52 18.6515 Q2384.59 18.6515 2387.34 22.2105 Q2390.09 25.7406 2390.09 32.2799 L2390.09 51.84 L2384.73 51.84 L2384.73 32.4535 Q2384.73 27.795 2383.08 25.5381 Q2381.43 23.2811 2378.05 23.2811 Q2373.91 23.2811 2371.51 26.03 Q2369.11 28.7788 2369.11 33.5241 L2369.11 51.84 L2363.75 51.84 L2363.75 32.4535 Q2363.75 27.7661 2362.11 25.5381 Q2360.46 23.2811 2357.01 23.2811 Q2352.93 23.2811 2350.53 26.0589 Q2348.13 28.8077 2348.13 33.5241 L2348.13 51.84 L2342.78 51.84 L2342.78 19.4328 L2348.13 19.4328 L2348.13 24.4675 Q2349.95 21.4872 2352.5 20.0693 Q2355.05 18.6515 2358.55 18.6515 Q2362.08 18.6515 2364.54 20.4455 Q2367.02 22.2395 2368.21 25.6538 Z" fill="#000000" fill-rule="nonzero" fill-opacity="1" /><path clip-path="url(#clip090)" d="M2424.58 4.44442 L2432.74 15.2661 L2428.31 15.2661 L2418.88 4.44442 L2424.58 4.44442 Z" fill="#000000" fill-rule="nonzero" fill-opacity="1" /><path clip-path="url(#clip090)" d="M2448.62 39.0507 L2448.62 19.4328 L2453.95 19.4328 L2453.95 38.8482 Q2453.95 43.4488 2455.74 45.7636 Q2457.53 48.0495 2461.12 48.0495 Q2465.43 48.0495 2467.92 45.3007 Q2470.44 42.5519 2470.44 37.8065 L2470.44 19.4328 L2475.76 19.4328 L2475.76 51.84 L2470.44 51.84 L2470.44 46.8632 Q2468.5 49.8145 2465.92 51.2613 Q2463.38 52.6791 2459.99 52.6791 Q2454.41 52.6791 2451.51 49.2069 Q2448.62 45.7347 2448.62 39.0507 M2462.02 18.6515 L2462.02 18.6515 Z" fill="#000000" fill-rule="nonzero" fill-opacity="1" /><path clip-path="url(#clip090)" d="M2499.52 6.87496 Q2495.64 13.53 2493.76 20.0404 Q2491.88 26.5508 2491.88 33.2348 Q2491.88 39.9188 2493.76 46.487 Q2495.67 53.0263 2499.52 59.6525 L2494.89 59.6525 Q2490.55 52.8527 2488.38 46.2845 Q2486.24 39.7162 2486.24 33.2348 Q2486.24 26.7823 2488.38 20.2429 Q2490.52 13.7036 2494.89 6.87496 L2499.52 6.87496 Z" fill="#000000" fill-rule="nonzero" fill-opacity="1" /><path clip-path="url(#clip090)" d="M2523.1 12.4884 Q2518.59 12.4884 2516.3 16.9444 Q2514.04 21.3714 2514.04 30.2834 Q2514.04 39.1665 2516.3 43.6225 Q2518.59 48.0495 2523.1 48.0495 Q2527.64 48.0495 2529.9 43.6225 Q2532.19 39.1665 2532.19 30.2834 Q2532.19 21.3714 2529.9 16.9444 Q2527.64 12.4884 2523.1 12.4884 M2523.1 7.85875 Q2530.36 7.85875 2534.18 13.6168 Q2538.03 19.346 2538.03 30.2834 Q2538.03 41.1919 2534.18 46.95 Q2530.36 52.6791 2523.1 52.6791 Q2515.84 52.6791 2511.99 46.95 Q2508.17 41.1919 2508.17 30.2834 Q2508.17 19.346 2511.99 13.6168 Q2515.84 7.85875 2523.1 7.85875 Z" fill="#000000" fill-rule="nonzero" fill-opacity="1" /><path clip-path="url(#clip090)" d="M2546.71 6.87496 L2551.34 6.87496 Q2555.68 13.7036 2557.82 20.2429 Q2559.99 26.7823 2559.99 33.2348 Q2559.99 39.7162 2557.82 46.2845 Q2555.68 52.8527 2551.34 59.6525 L2546.71 59.6525 Q2550.56 53.0263 2552.44 46.487 Q2554.35 39.9188 2554.35 33.2348 Q2554.35 26.5508 2552.44 20.0404 Q2550.56 13.53 2546.71 6.87496 Z" fill="#000000" fill-rule="nonzero" fill-opacity="1" /><path clip-path="url(#clip090)" d="M2590.2 24.9304 L2627.3 24.9304 L2627.3 29.7915 L2590.2 29.7915 L2590.2 24.9304 M2590.2 36.7359 L2627.3 36.7359 L2627.3 41.6549 L2590.2 41.6549 L2590.2 36.7359 Z" fill="#000000" fill-rule="nonzero" fill-opacity="1" /><path clip-path="url(#clip090)" d="M2659.76 46.921 L2669.31 46.921 L2669.31 13.964 L2658.92 16.0474 L2658.92 10.7233 L2669.25 8.64 L2675.1 8.64 L2675.1 46.921 L2684.64 46.921 L2684.64 51.84 L2659.76 51.84 L2659.76 46.921 Z" fill="#000000" fill-rule="nonzero" fill-opacity="1" /><path clip-path="url(#clip090)" d="M2696.45 44.4905 L2702.56 44.4905 L2702.56 51.84 L2696.45 51.84 L2696.45 44.4905 Z" fill="#000000" fill-rule="nonzero" fill-opacity="1" /><path clip-path="url(#clip090)" d="M2727.79 12.4884 Q2723.27 12.4884 2720.99 16.9444 Q2718.73 21.3714 2718.73 30.2834 Q2718.73 39.1665 2720.99 43.6225 Q2723.27 48.0495 2727.79 48.0495 Q2732.33 48.0495 2734.59 43.6225 Q2736.87 39.1665 2736.87 30.2834 Q2736.87 21.3714 2734.59 16.9444 Q2732.33 12.4884 2727.79 12.4884 M2727.79 7.85875 Q2735.05 7.85875 2738.87 13.6168 Q2742.72 19.346 2742.72 30.2834 Q2742.72 41.1919 2738.87 46.95 Q2735.05 52.6791 2727.79 52.6791 Q2720.52 52.6791 2716.68 46.95 Q2712.86 41.1919 2712.86 30.2834 Q2712.86 19.346 2716.68 13.6168 Q2720.52 7.85875 2727.79 7.85875 Z" fill="#000000" fill-rule="nonzero" fill-opacity="1" /><path clip-path="url(#clip090)" d="M2757.27 4.44442 L2765.43 15.2661 L2761 15.2661 L2751.57 4.44442 L2757.27 4.44442 Z" fill="#000000" fill-rule="nonzero" fill-opacity="1" /><polyline clip-path="url(#clip092)" style="stroke:#009af9; stroke-linecap:round; stroke-linejoin:round; stroke-width:4; stroke-opacity:1; fill:none" points="300.965,2145.67 306.503,2145.67 312.04,2145.65 317.578,2145.6 323.115,2145.61 328.653,2145.63 334.19,2145.62 339.728,2145.48 345.265,2145.39 350.803,2145.33 356.34,2145.26 361.877,2145.16 367.415,2145.01 372.952,2144.9 378.49,2144.69 384.027,2144.54 389.565,2144.33 395.102,2144.18 400.64,2144.09 406.177,2143.96 411.715,2143.75 417.252,2143.54 422.789,2143.37 428.327,2143.22 433.864,2143.08 439.402,2142.94 444.939,2142.73 450.477,2142.55 456.014,2142.35 461.552,2142.22 467.089,2142.07 472.627,2141.82 478.164,2141.66 483.702,2141.52 489.239,2141.41 494.776,2141.31 500.314,2141.17 505.851,2141.02 511.389,2140.79 516.926,2140.59 522.464,2140.35 528.001,2140.16 533.539,2140.03 539.076,2139.97 544.614,2139.95 550.151,2139.81 555.688,2139.72 561.226,2139.63 566.763,2139.46 572.301,2139.27 577.838,2139.09 583.376,2138.87 588.913,2138.77 594.451,2138.72 599.988,2138.65 605.526,2138.61 611.063,2138.55 616.6,2138.43 622.138,2138.33 627.675,2138.26 633.213,2138.19 638.75,2138.13 644.288,2138.06 649.825,2137.95 655.363,2137.87 660.9,2137.83 666.438,2137.9 671.975,2137.82 677.513,2137.81 683.05,2137.73 688.587,2137.66 694.125,2137.66 699.662,2137.6 705.2,2137.48 710.737,2137.46 716.275,2137.52 721.812,2137.48 727.35,2137.41 732.887,2137.41 738.425,2137.37 743.962,2137.29 749.499,2137.15 755.037,2136.99 760.574,2136.83 766.112,2136.58 771.649,2136.18 777.187,2135.72 782.724,2135.26 788.262,2134.71 793.799,2134.21 799.337,2133.65 804.874,2133.06 810.411,2132.45 815.949,2131.82 821.486,2131.16 827.024,2130.54 832.561,2129.92 838.099,2129.29 843.636,2128.63 849.174,2127.94 854.711,2127.27 860.249,2126.6 865.786,2125.87 871.324,2125.12 876.861,2124.36 882.398,2123.62 887.936,2122.86 893.473,2122.09 899.011,2121.36 904.548,2120.66 910.086,2119.94 915.623,2119.18 921.161,2118.38 926.698,2117.6 932.236,2116.8 937.773,2116 943.31,2115.14 948.848,2114.27 954.385,2113.37 959.923,2112.48 965.46,2111.59 970.998,2110.69 976.535,2109.86 982.073,2108.96 987.61,2108.06 993.148,2107.13 998.685,2106.26 1004.22,2105.43 1009.76,2104.56 1015.3,2103.63 1020.83,2102.77 1026.37,2102 1031.91,2101.24 1037.45,2100.47 1042.98,2099.63 1048.52,2098.75 1054.06,2097.84 1059.6,2097.01 1065.13,2096.17 1070.67,2095.38 1076.21,2094.45 1081.75,2093.52 1087.28,2092.52 1092.82,2091.48 1098.36,2090.47 1103.9,2089.47 1109.43,2088.5 1114.97,2087.47 1120.51,2086.42 1126.05,2085.38 1131.58,2084.34 1137.12,2083.26 1142.66,2082.1 1148.2,2080.96 1153.73,2079.81 1159.27,2078.6 1164.81,2077.36 1170.35,2076.17 1175.88,2074.98 1181.42,2073.8 1186.96,2072.54 1192.5,2071.28 1198.03,2070.05 1203.57,2068.74 1209.11,2067.42 1214.65,2066.07 1220.18,2064.71 1225.72,2063.37 1231.26,2061.97 1236.8,2060.56 1242.33,2059.12 1247.87,2057.68 1253.41,2056.22 1258.95,2054.75 1264.48,2053.27 1270.02,2051.87 1275.56,2050.45 1281.1,2049.05 1286.63,2047.57 1292.17,2046.03 1297.71,2044.47 1303.25,2042.89 1308.78,2041.3 1314.32,2039.71 1319.86,2038.09 1325.4,2036.45 1330.93,2034.8 1336.47,2033.11 1342.01,2031.41 1347.54,2029.71 1353.08,2028 1358.62,2026.27 1364.16,2024.56 1369.69,2022.81 1375.23,2021.12 1380.77,2019.42 1386.31,2017.74 1391.84,2016 1397.38,2014.21 1402.92,2012.36 1408.46,2010.45 1413.99,2008.52 1419.53,2006.57 1425.07,2004.6 1430.61,2002.61 1436.14,2000.62 1441.68,1998.62 1447.22,1996.72 1452.76,1994.85 1458.29,1992.94 1463.83,1990.91 1469.37,1988.87 1474.91,1986.82 1480.44,1984.83 1485.98,1982.66 1491.52,1980.46 1497.06,1978.23 1502.59,1975.98 1508.13,1973.71 1513.67,1971.4 1519.21,1969.08 1524.74,1966.78 1530.28,1964.48 1535.82,1962.32 1541.36,1960.05 1546.89,1957.82 1552.43,1955.76 1557.97,1953.82 1563.51,1951.78 1569.04,1949.8 1574.58,1947.72 1580.12,1945.39 1585.66,1942.92 1591.19,1940.44 1596.73,1937.88 1602.27,1935.23 1607.81,1932.72 1613.34,1930.22 1618.88,1927.85 1624.42,1925.43 1629.96,1922.79 1635.49,1920.2 1641.03,1917.53 1646.57,1914.8 1652.1,1912.22 1657.64,1909.7 1663.18,1907.05 1668.72,1904.24 1674.25,1901.37 1679.79,1898.47 1685.33,1895.59 1690.87,1892.6 1696.4,1889.62 1701.94,1886.69 1707.48,1883.87 1713.02,1881.34 1718.55,1878.66 1724.09,1876.1 1729.63,1873.56 1735.17,1870.68 1740.7,1867.95 1746.24,1865.25 1751.78,1862.27 1757.32,1859.3 1762.85,1856.12 1768.39,1852.99 1773.93,1849.76 1779.47,1846.52 1785,1843.09 1790.54,1839.75 1796.08,1836.38 1801.62,1832.94 1807.15,1829.69 1812.69,1826.33 1818.23,1823.16 1823.77,1820.23 1829.3,1817.06 1834.84,1814.1 1840.38,1811.47 1845.92,1808.68 1851.45,1806.13 1856.99,1803.48 1862.53,1801.15 1868.07,1798.32 1873.6,1795.74 1879.14,1792.88 1884.68,1790.5 1890.22,1787.87 1895.75,1785.18 1901.29,1782.03 1906.83,1778.59 1912.37,1775.22 1917.9,1772.55 1923.44,1769.56 1928.98,1766.69 1934.52,1763.71 1940.05,1760.37 1945.59,1756.43 1951.13,1752.54 1956.67,1748.82 1962.2,1745.19 1967.74,1741.61 1973.28,1737.55 1978.81,1733.64 1984.35,1729.48 1989.89,1725.32 1995.43,1721.23 2000.96,1717.45 2006.5,1713.61 2012.04,1709.89 2017.58,1706.25 2023.11,1702.38 2028.65,1698.27 2034.19,1693.98 2039.73,1689.8 2045.26,1685.44 2050.8,1680.88 2056.34,1675.94 2061.88,1670.72 2067.41,1665.39 2072.95,1660.09 2078.49,1654.89 2084.03,1649.58 2089.56,1644.22 2095.1,1639 2100.64,1633.62 2106.18,1628.29 2111.71,1622.85 2117.25,1617.29 2122.79,1611.74 2128.33,1606.4 2133.86,1601.24 2139.4,1596.21 2144.94,1591.9 2150.48,1587.69 2156.01,1583.46 2161.55,1579.65 2167.09,1576.02 2172.63,1572.08 2178.16,1568.25 2183.7,1564.22 2189.24,1561.28 2194.78,1558.79 2200.31,1556.39 2205.85,1553.57 2211.39,1549.97 2216.93,1545.94 2222.46,1541.54 2228,1537.08 2233.54,1532.24 2239.08,1527.17 2244.61,1523 2250.15,1518.56 2255.69,1515.42 2261.23,1512.76 2266.76,1509.88 2272.3,1506.84 2277.84,1503.6 2283.38,1500.75 2288.91,1497.89 2294.45,1495.87 2299.99,1493.64 2305.52,1491.61 2311.06,1488.42 2316.6,1485.22 2322.14,1483.3 2327.67,1481.44 2333.21,1479.98 2338.75,1477.88 2344.29,1475.63 2349.82,1474.26 2355.36,1471.99 2360.9,1469.76 2366.44,1468.09 2371.97,1466.95 2377.51,1465.01 2383.05,1463.38 2388.59,1461.58 2394.12,1458.98 2399.66,1456.23 2405.2,1452.36 2410.74,1448.17 2416.27,1444.58 2421.81,1441.51 2427.35,1439.18 2432.89,1437.29 2438.42,1435.9 2443.96,1434.49 2449.5,1433.1 2455.04,1431.03 2460.57,1428.16 2466.11,1424.19 2471.65,1419.58 2477.19,1414.42 2482.72,1408.85 2488.26,1403.82 2493.8,1399.68 2499.34,1395.19 2504.87,1390.33 2510.41,1385.91 2515.95,1380.61 2521.49,1374.04 2527.02,1366.92 2532.56,1359.15 2538.1,1351.71 2543.64,1343.86 2549.17,1335.39 2554.71,1326.75 2560.25,1317.98 2565.79,1309.14 2571.32,1300.19 2576.86,1291.15 2582.4,1282.03 2587.94,1272.9 2593.47,1263.59 2599.01,1254.21 2604.55,1244.71 2610.09,1235.25 2615.62,1225.69 2621.16,1216.02 2626.7,1206.15 2632.23,1196.31 2637.77,1186.41 2643.31,1176.5 2648.85,1166.4 2654.38,1156.11 2659.92,1145.69 2665.46,1135.45 2671,1124.92 2676.53,1114.14 2682.07,1103.32 2687.61,1092.4 2693.15,1081.35 2698.68,1070.15 2704.22,1058.81 2709.76,1047.47 2715.3,1035.97 2720.83,1024.64 2726.37,1012.9 2731.91,1001.07 2737.45,989.347 2742.98,977.366 2748.52,965.487 2754.06,953.372 2759.6,941.567 2765.13,929.944 2770.67,917.576 2776.21,904.87 2781.75,892.164 2787.28,880.632 2792.82,869.353 2798.36,857.354 2803.9,845.197 2809.43,833.772 2814.97,822.721 2820.51,810.616 2826.05,797.821 2831.58,785.16 2837.12,772.309 2842.66,759.344 2848.2,746.872 2853.73,734.634 2859.27,721.802 2864.81,707.989 2870.35,694.299 2875.88,680.513 2881.42,666.374 2886.96,652.247 2892.5,637.333 2898.03,622.41 2903.57,608.31 2909.11,593.73 2914.65,579.455 2920.18,563.922 2925.72,548.75 2931.26,533.403 2936.8,518.317 2942.33,503.143 2947.87,487.818 2953.41,472.653 2958.94,457.535 2964.48,442.789 2970.02,428.184 2975.56,413.927 2981.09,400.84 2986.63,387.465 2992.17,374.355 2997.71,361.738 3003.24,350.18 3008.78,336.861 3014.32,320.786 3019.86,303.713 3025.39,285.838 3030.93,269.649 3036.47,254.728 3042.01,239.623 3047.54,227.258 3053.08,213.735 3058.62,201.189 3064.16,186.529 3069.69,170.837 "/>
</svg>
