<?xml version="1.0" encoding="utf-8"?>
<svg xmlns="http://www.w3.org/2000/svg" xmlns:xlink="http://www.w3.org/1999/xlink" width="800" height="600" viewBox="0 0 3200 2400">
<defs>
  <clipPath id="clip970">
    <rect x="0" y="0" width="3200" height="2400"/>
  </clipPath>
</defs>
<path clip-path="url(#clip970)" d="M0 2400 L3200 2400 L3200 0 L0 0  Z" fill="#ffffff" fill-rule="evenodd" fill-opacity="1"/>
<defs>
  <clipPath id="clip971">
    <rect x="640" y="0" width="2241" height="2241"/>
  </clipPath>
</defs>
<path clip-path="url(#clip970)" d="M263.482 2204.92 L3152.76 2204.92 L3152.76 111.592 L263.482 111.592  Z" fill="#eaeaea" fill-rule="evenodd" fill-opacity="1"/>
<defs>
  <clipPath id="clip972">
    <rect x="263" y="111" width="2890" height="2094"/>
  </clipPath>
</defs>
<polyline clip-path="url(#clip972)" style="stroke:#ffffff; stroke-linecap:round; stroke-linejoin:round; stroke-width:4; stroke-opacity:1; fill:none" points="345.254,2204.92 345.254,111.592 "/>
<polyline clip-path="url(#clip972)" style="stroke:#ffffff; stroke-linecap:round; stroke-linejoin:round; stroke-width:4; stroke-opacity:1; fill:none" points="890.4,2204.92 890.4,111.592 "/>
<polyline clip-path="url(#clip972)" style="stroke:#ffffff; stroke-linecap:round; stroke-linejoin:round; stroke-width:4; stroke-opacity:1; fill:none" points="1435.55,2204.92 1435.55,111.592 "/>
<polyline clip-path="url(#clip972)" style="stroke:#ffffff; stroke-linecap:round; stroke-linejoin:round; stroke-width:4; stroke-opacity:1; fill:none" points="1980.69,2204.92 1980.69,111.592 "/>
<polyline clip-path="url(#clip972)" style="stroke:#ffffff; stroke-linecap:round; stroke-linejoin:round; stroke-width:4; stroke-opacity:1; fill:none" points="2525.84,2204.92 2525.84,111.592 "/>
<polyline clip-path="url(#clip972)" style="stroke:#ffffff; stroke-linecap:round; stroke-linejoin:round; stroke-width:4; stroke-opacity:1; fill:none" points="3070.98,2204.92 3070.98,111.592 "/>
<polyline clip-path="url(#clip972)" style="stroke:#ffffff; stroke-linecap:round; stroke-linejoin:round; stroke-width:2; stroke-opacity:1; fill:none" points="617.827,2204.92 617.827,111.592 "/>
<polyline clip-path="url(#clip972)" style="stroke:#ffffff; stroke-linecap:round; stroke-linejoin:round; stroke-width:2; stroke-opacity:1; fill:none" points="1162.97,2204.92 1162.97,111.592 "/>
<polyline clip-path="url(#clip972)" style="stroke:#ffffff; stroke-linecap:round; stroke-linejoin:round; stroke-width:2; stroke-opacity:1; fill:none" points="1708.12,2204.92 1708.12,111.592 "/>
<polyline clip-path="url(#clip972)" style="stroke:#ffffff; stroke-linecap:round; stroke-linejoin:round; stroke-width:2; stroke-opacity:1; fill:none" points="2253.26,2204.92 2253.26,111.592 "/>
<polyline clip-path="url(#clip972)" style="stroke:#ffffff; stroke-linecap:round; stroke-linejoin:round; stroke-width:2; stroke-opacity:1; fill:none" points="2798.41,2204.92 2798.41,111.592 "/>
<polyline clip-path="url(#clip970)" style="stroke:#ffffff; stroke-linecap:round; stroke-linejoin:round; stroke-width:4; stroke-opacity:1; fill:none" points="263.482,2204.92 3152.76,2204.92 "/>
<polyline clip-path="url(#clip970)" style="stroke:#333333; stroke-linecap:round; stroke-linejoin:round; stroke-width:4; stroke-opacity:1; fill:none" points="345.254,2204.92 345.254,2223.82 "/>
<polyline clip-path="url(#clip970)" style="stroke:#333333; stroke-linecap:round; stroke-linejoin:round; stroke-width:4; stroke-opacity:1; fill:none" points="890.4,2204.92 890.4,2223.82 "/>
<polyline clip-path="url(#clip970)" style="stroke:#333333; stroke-linecap:round; stroke-linejoin:round; stroke-width:4; stroke-opacity:1; fill:none" points="1435.55,2204.92 1435.55,2223.82 "/>
<polyline clip-path="url(#clip970)" style="stroke:#333333; stroke-linecap:round; stroke-linejoin:round; stroke-width:4; stroke-opacity:1; fill:none" points="1980.69,2204.92 1980.69,2223.82 "/>
<polyline clip-path="url(#clip970)" style="stroke:#333333; stroke-linecap:round; stroke-linejoin:round; stroke-width:4; stroke-opacity:1; fill:none" points="2525.84,2204.92 2525.84,2223.82 "/>
<polyline clip-path="url(#clip970)" style="stroke:#333333; stroke-linecap:round; stroke-linejoin:round; stroke-width:4; stroke-opacity:1; fill:none" points="3070.98,2204.92 3070.98,2223.82 "/>
<polyline clip-path="url(#clip970)" style="stroke:#333333; stroke-linecap:round; stroke-linejoin:round; stroke-width:4; stroke-opacity:1; fill:none" points="617.827,2204.92 617.827,2214.37 "/>
<polyline clip-path="url(#clip970)" style="stroke:#333333; stroke-linecap:round; stroke-linejoin:round; stroke-width:4; stroke-opacity:1; fill:none" points="1162.97,2204.92 1162.97,2214.37 "/>
<polyline clip-path="url(#clip970)" style="stroke:#333333; stroke-linecap:round; stroke-linejoin:round; stroke-width:4; stroke-opacity:1; fill:none" points="1708.12,2204.92 1708.12,2214.37 "/>
<polyline clip-path="url(#clip970)" style="stroke:#333333; stroke-linecap:round; stroke-linejoin:round; stroke-width:4; stroke-opacity:1; fill:none" points="2253.26,2204.92 2253.26,2214.37 "/>
<polyline clip-path="url(#clip970)" style="stroke:#333333; stroke-linecap:round; stroke-linejoin:round; stroke-width:4; stroke-opacity:1; fill:none" points="2798.41,2204.92 2798.41,2214.37 "/>
<path clip-path="url(#clip970)" d="M345.254 2255.04 Q341.643 2255.04 339.814 2258.6 Q338.009 2262.14 338.009 2269.27 Q338.009 2276.38 339.814 2279.95 Q341.643 2283.49 345.254 2283.49 Q348.888 2283.49 350.694 2279.95 Q352.522 2276.38 352.522 2269.27 Q352.522 2262.14 350.694 2258.6 Q348.888 2255.04 345.254 2255.04 M345.254 2251.33 Q351.064 2251.33 354.12 2255.94 Q357.198 2260.52 357.198 2269.27 Q357.198 2278 354.12 2282.61 Q351.064 2287.19 345.254 2287.19 Q339.444 2287.19 336.365 2282.61 Q333.31 2278 333.31 2269.27 Q333.31 2260.52 336.365 2255.94 Q339.444 2251.33 345.254 2251.33 Z" fill="#4c4c4c" fill-rule="nonzero" fill-opacity="1" /><path clip-path="url(#clip970)" d="M880.782 2282.58 L888.421 2282.58 L888.421 2256.22 L880.111 2257.89 L880.111 2253.63 L888.374 2251.96 L893.05 2251.96 L893.05 2282.58 L900.689 2282.58 L900.689 2286.52 L880.782 2286.52 L880.782 2282.58 Z" fill="#4c4c4c" fill-rule="nonzero" fill-opacity="1" /><path clip-path="url(#clip970)" d="M1430.2 2282.58 L1446.52 2282.58 L1446.52 2286.52 L1424.57 2286.52 L1424.57 2282.58 Q1427.24 2279.83 1431.82 2275.2 Q1436.43 2270.55 1437.61 2269.21 Q1439.85 2266.68 1440.73 2264.95 Q1441.63 2263.19 1441.63 2261.5 Q1441.63 2258.74 1439.69 2257.01 Q1437.77 2255.27 1434.67 2255.27 Q1432.47 2255.27 1430.01 2256.03 Q1427.58 2256.8 1424.81 2258.35 L1424.81 2253.63 Q1427.63 2252.49 1430.08 2251.91 Q1432.54 2251.33 1434.57 2251.33 Q1439.94 2251.33 1443.14 2254.02 Q1446.33 2256.71 1446.33 2261.2 Q1446.33 2263.33 1445.52 2265.25 Q1444.74 2267.14 1442.63 2269.74 Q1442.05 2270.41 1438.95 2273.63 Q1435.85 2276.82 1430.2 2282.58 Z" fill="#4c4c4c" fill-rule="nonzero" fill-opacity="1" /><path clip-path="url(#clip970)" d="M1984.94 2267.89 Q1988.3 2268.6 1990.17 2270.87 Q1992.07 2273.14 1992.07 2276.47 Q1992.07 2281.59 1988.55 2284.39 Q1985.03 2287.19 1978.55 2287.19 Q1976.37 2287.19 1974.06 2286.75 Q1971.77 2286.33 1969.31 2285.48 L1969.31 2280.96 Q1971.26 2282.1 1973.57 2282.68 Q1975.89 2283.26 1978.41 2283.26 Q1982.81 2283.26 1985.1 2281.52 Q1987.42 2279.78 1987.42 2276.47 Q1987.42 2273.42 1985.26 2271.71 Q1983.13 2269.97 1979.31 2269.97 L1975.29 2269.97 L1975.29 2266.13 L1979.5 2266.13 Q1982.95 2266.13 1984.78 2264.76 Q1986.61 2263.37 1986.61 2260.78 Q1986.61 2258.12 1984.71 2256.71 Q1982.83 2255.27 1979.31 2255.27 Q1977.39 2255.27 1975.19 2255.69 Q1973 2256.1 1970.36 2256.98 L1970.36 2252.82 Q1973.02 2252.08 1975.33 2251.71 Q1977.67 2251.33 1979.73 2251.33 Q1985.06 2251.33 1988.16 2253.77 Q1991.26 2256.17 1991.26 2260.29 Q1991.26 2263.16 1989.62 2265.15 Q1987.97 2267.12 1984.94 2267.89 Z" fill="#4c4c4c" fill-rule="nonzero" fill-opacity="1" /><path clip-path="url(#clip970)" d="M2528.85 2256.03 L2517.04 2274.48 L2528.85 2274.48 L2528.85 2256.03 M2527.62 2251.96 L2533.5 2251.96 L2533.5 2274.48 L2538.43 2274.48 L2538.43 2278.37 L2533.5 2278.37 L2533.5 2286.52 L2528.85 2286.52 L2528.85 2278.37 L2513.25 2278.37 L2513.25 2273.86 L2527.62 2251.96 Z" fill="#4c4c4c" fill-rule="nonzero" fill-opacity="1" /><path clip-path="url(#clip970)" d="M3061.26 2251.96 L3079.62 2251.96 L3079.62 2255.9 L3065.54 2255.9 L3065.54 2264.37 Q3066.56 2264.02 3067.58 2263.86 Q3068.6 2263.67 3069.62 2263.67 Q3075.41 2263.67 3078.78 2266.84 Q3082.16 2270.02 3082.16 2275.43 Q3082.16 2281.01 3078.69 2284.11 Q3075.22 2287.19 3068.9 2287.19 Q3066.72 2287.19 3064.46 2286.82 Q3062.21 2286.45 3059.8 2285.71 L3059.8 2281.01 Q3061.89 2282.14 3064.11 2282.7 Q3066.33 2283.26 3068.81 2283.26 Q3072.81 2283.26 3075.15 2281.15 Q3077.49 2279.04 3077.49 2275.43 Q3077.49 2271.82 3075.15 2269.71 Q3072.81 2267.61 3068.81 2267.61 Q3066.93 2267.61 3065.06 2268.02 Q3063.21 2268.44 3061.26 2269.32 L3061.26 2251.96 Z" fill="#4c4c4c" fill-rule="nonzero" fill-opacity="1" /><path clip-path="url(#clip970)" d="M1707.18 2316.01 L1707.18 2326.14 L1719.24 2326.14 L1719.24 2330.69 L1707.18 2330.69 L1707.18 2350.04 Q1707.18 2354.4 1708.36 2355.64 Q1709.57 2356.88 1713.23 2356.88 L1719.24 2356.88 L1719.24 2361.78 L1713.23 2361.78 Q1706.45 2361.78 1703.87 2359.27 Q1701.29 2356.72 1701.29 2350.04 L1701.29 2330.69 L1696.99 2330.69 L1696.99 2326.14 L1701.29 2326.14 L1701.29 2316.01 L1707.18 2316.01 Z" fill="#000000" fill-rule="nonzero" fill-opacity="1" /><polyline clip-path="url(#clip972)" style="stroke:#ffffff; stroke-linecap:round; stroke-linejoin:round; stroke-width:4; stroke-opacity:1; fill:none" points="263.482,2176.48 3152.76,2176.48 "/>
<polyline clip-path="url(#clip972)" style="stroke:#ffffff; stroke-linecap:round; stroke-linejoin:round; stroke-width:4; stroke-opacity:1; fill:none" points="263.482,1682.3 3152.76,1682.3 "/>
<polyline clip-path="url(#clip972)" style="stroke:#ffffff; stroke-linecap:round; stroke-linejoin:round; stroke-width:4; stroke-opacity:1; fill:none" points="263.482,1188.12 3152.76,1188.12 "/>
<polyline clip-path="url(#clip972)" style="stroke:#ffffff; stroke-linecap:round; stroke-linejoin:round; stroke-width:4; stroke-opacity:1; fill:none" points="263.482,693.942 3152.76,693.942 "/>
<polyline clip-path="url(#clip972)" style="stroke:#ffffff; stroke-linecap:round; stroke-linejoin:round; stroke-width:4; stroke-opacity:1; fill:none" points="263.482,199.762 3152.76,199.762 "/>
<polyline clip-path="url(#clip972)" style="stroke:#ffffff; stroke-linecap:round; stroke-linejoin:round; stroke-width:2; stroke-opacity:1; fill:none" points="263.482,1929.39 3152.76,1929.39 "/>
<polyline clip-path="url(#clip972)" style="stroke:#ffffff; stroke-linecap:round; stroke-linejoin:round; stroke-width:2; stroke-opacity:1; fill:none" points="263.482,1435.21 3152.76,1435.21 "/>
<polyline clip-path="url(#clip972)" style="stroke:#ffffff; stroke-linecap:round; stroke-linejoin:round; stroke-width:2; stroke-opacity:1; fill:none" points="263.482,941.032 3152.76,941.032 "/>
<polyline clip-path="url(#clip972)" style="stroke:#ffffff; stroke-linecap:round; stroke-linejoin:round; stroke-width:2; stroke-opacity:1; fill:none" points="263.482,446.852 3152.76,446.852 "/>
<polyline clip-path="url(#clip970)" style="stroke:#ffffff; stroke-linecap:round; stroke-linejoin:round; stroke-width:4; stroke-opacity:1; fill:none" points="263.482,2204.92 263.482,111.592 "/>
<polyline clip-path="url(#clip970)" style="stroke:#333333; stroke-linecap:round; stroke-linejoin:round; stroke-width:4; stroke-opacity:1; fill:none" points="263.482,2176.48 244.584,2176.48 "/>
<polyline clip-path="url(#clip970)" style="stroke:#333333; stroke-linecap:round; stroke-linejoin:round; stroke-width:4; stroke-opacity:1; fill:none" points="263.482,1682.3 244.584,1682.3 "/>
<polyline clip-path="url(#clip970)" style="stroke:#333333; stroke-linecap:round; stroke-linejoin:round; stroke-width:4; stroke-opacity:1; fill:none" points="263.482,1188.12 244.584,1188.12 "/>
<polyline clip-path="url(#clip970)" style="stroke:#333333; stroke-linecap:round; stroke-linejoin:round; stroke-width:4; stroke-opacity:1; fill:none" points="263.482,693.942 244.584,693.942 "/>
<polyline clip-path="url(#clip970)" style="stroke:#333333; stroke-linecap:round; stroke-linejoin:round; stroke-width:4; stroke-opacity:1; fill:none" points="263.482,199.762 244.584,199.762 "/>
<polyline clip-path="url(#clip970)" style="stroke:#333333; stroke-linecap:round; stroke-linejoin:round; stroke-width:4; stroke-opacity:1; fill:none" points="263.482,1929.39 254.033,1929.39 "/>
<polyline clip-path="url(#clip970)" style="stroke:#333333; stroke-linecap:round; stroke-linejoin:round; stroke-width:4; stroke-opacity:1; fill:none" points="263.482,1435.21 254.033,1435.21 "/>
<polyline clip-path="url(#clip970)" style="stroke:#333333; stroke-linecap:round; stroke-linejoin:round; stroke-width:4; stroke-opacity:1; fill:none" points="263.482,941.032 254.033,941.032 "/>
<polyline clip-path="url(#clip970)" style="stroke:#333333; stroke-linecap:round; stroke-linejoin:round; stroke-width:4; stroke-opacity:1; fill:none" points="263.482,446.852 254.033,446.852 "/>
<path clip-path="url(#clip970)" d="M104.145 2162.28 Q100.533 2162.28 98.7048 2165.85 Q96.8992 2169.39 96.8992 2176.52 Q96.8992 2183.62 98.7048 2187.19 Q100.533 2190.73 104.145 2190.73 Q107.779 2190.73 109.584 2187.19 Q111.413 2183.62 111.413 2176.52 Q111.413 2169.39 109.584 2165.85 Q107.779 2162.28 104.145 2162.28 M104.145 2158.58 Q109.955 2158.58 113.01 2163.18 Q116.089 2167.77 116.089 2176.52 Q116.089 2185.24 113.01 2189.85 Q109.955 2194.43 104.145 2194.43 Q98.3344 2194.43 95.2557 2189.85 Q92.2002 2185.24 92.2002 2176.52 Q92.2002 2167.77 95.2557 2163.18 Q98.3344 2158.58 104.145 2158.58 Z" fill="#4c4c4c" fill-rule="nonzero" fill-opacity="1" /><path clip-path="url(#clip970)" d="M124.306 2187.88 L129.191 2187.88 L129.191 2193.76 L124.306 2193.76 L124.306 2187.88 Z" fill="#4c4c4c" fill-rule="nonzero" fill-opacity="1" /><path clip-path="url(#clip970)" d="M149.376 2162.28 Q145.765 2162.28 143.936 2165.85 Q142.13 2169.39 142.13 2176.52 Q142.13 2183.62 143.936 2187.19 Q145.765 2190.73 149.376 2190.73 Q153.01 2190.73 154.816 2187.19 Q156.644 2183.62 156.644 2176.52 Q156.644 2169.39 154.816 2165.85 Q153.01 2162.28 149.376 2162.28 M149.376 2158.58 Q155.186 2158.58 158.241 2163.18 Q161.32 2167.77 161.32 2176.52 Q161.32 2185.24 158.241 2189.85 Q155.186 2194.43 149.376 2194.43 Q143.566 2194.43 140.487 2189.85 Q137.431 2185.24 137.431 2176.52 Q137.431 2167.77 140.487 2163.18 Q143.566 2158.58 149.376 2158.58 Z" fill="#4c4c4c" fill-rule="nonzero" fill-opacity="1" /><path clip-path="url(#clip970)" d="M179.538 2162.28 Q175.927 2162.28 174.098 2165.85 Q172.292 2169.39 172.292 2176.52 Q172.292 2183.62 174.098 2187.19 Q175.927 2190.73 179.538 2190.73 Q183.172 2190.73 184.977 2187.19 Q186.806 2183.62 186.806 2176.52 Q186.806 2169.39 184.977 2165.85 Q183.172 2162.28 179.538 2162.28 M179.538 2158.58 Q185.348 2158.58 188.403 2163.18 Q191.482 2167.77 191.482 2176.52 Q191.482 2185.24 188.403 2189.85 Q185.348 2194.43 179.538 2194.43 Q173.727 2194.43 170.649 2189.85 Q167.593 2185.24 167.593 2176.52 Q167.593 2167.77 170.649 2163.18 Q173.727 2158.58 179.538 2158.58 Z" fill="#4c4c4c" fill-rule="nonzero" fill-opacity="1" /><path clip-path="url(#clip970)" d="M105.14 1668.1 Q101.529 1668.1 99.7001 1671.67 Q97.8946 1675.21 97.8946 1682.34 Q97.8946 1689.44 99.7001 1693.01 Q101.529 1696.55 105.14 1696.55 Q108.774 1696.55 110.58 1693.01 Q112.408 1689.44 112.408 1682.34 Q112.408 1675.21 110.58 1671.67 Q108.774 1668.1 105.14 1668.1 M105.14 1664.4 Q110.95 1664.4 114.006 1669 Q117.084 1673.59 117.084 1682.34 Q117.084 1691.06 114.006 1695.67 Q110.95 1700.25 105.14 1700.25 Q99.3297 1700.25 96.2511 1695.67 Q93.1955 1691.06 93.1955 1682.34 Q93.1955 1673.59 96.2511 1669 Q99.3297 1664.4 105.14 1664.4 Z" fill="#4c4c4c" fill-rule="nonzero" fill-opacity="1" /><path clip-path="url(#clip970)" d="M125.302 1693.7 L130.186 1693.7 L130.186 1699.58 L125.302 1699.58 L125.302 1693.7 Z" fill="#4c4c4c" fill-rule="nonzero" fill-opacity="1" /><path clip-path="url(#clip970)" d="M144.399 1695.65 L160.718 1695.65 L160.718 1699.58 L138.774 1699.58 L138.774 1695.65 Q141.436 1692.89 146.019 1688.26 Q150.626 1683.61 151.806 1682.27 Q154.052 1679.74 154.931 1678.01 Q155.834 1676.25 155.834 1674.56 Q155.834 1671.8 153.89 1670.07 Q151.968 1668.33 148.867 1668.33 Q146.667 1668.33 144.214 1669.1 Q141.783 1669.86 139.005 1671.41 L139.005 1666.69 Q141.83 1665.55 144.283 1664.98 Q146.737 1664.4 148.774 1664.4 Q154.144 1664.4 157.339 1667.08 Q160.533 1669.77 160.533 1674.26 Q160.533 1676.39 159.723 1678.31 Q158.936 1680.21 156.829 1682.8 Q156.251 1683.47 153.149 1686.69 Q150.047 1689.88 144.399 1695.65 Z" fill="#4c4c4c" fill-rule="nonzero" fill-opacity="1" /><path clip-path="url(#clip970)" d="M170.579 1665.02 L188.936 1665.02 L188.936 1668.96 L174.862 1668.96 L174.862 1677.43 Q175.88 1677.08 176.899 1676.92 Q177.917 1676.74 178.936 1676.74 Q184.723 1676.74 188.102 1679.91 Q191.482 1683.08 191.482 1688.49 Q191.482 1694.07 188.01 1697.18 Q184.538 1700.25 178.218 1700.25 Q176.042 1700.25 173.774 1699.88 Q171.528 1699.51 169.121 1698.77 L169.121 1694.07 Q171.204 1695.21 173.427 1695.76 Q175.649 1696.32 178.126 1696.32 Q182.13 1696.32 184.468 1694.21 Q186.806 1692.11 186.806 1688.49 Q186.806 1684.88 184.468 1682.78 Q182.13 1680.67 178.126 1680.67 Q176.251 1680.67 174.376 1681.09 Q172.524 1681.5 170.579 1682.38 L170.579 1665.02 Z" fill="#4c4c4c" fill-rule="nonzero" fill-opacity="1" /><path clip-path="url(#clip970)" d="M104.145 1173.92 Q100.533 1173.92 98.7048 1177.49 Q96.8992 1181.03 96.8992 1188.16 Q96.8992 1195.26 98.7048 1198.83 Q100.533 1202.37 104.145 1202.37 Q107.779 1202.37 109.584 1198.83 Q111.413 1195.26 111.413 1188.16 Q111.413 1181.03 109.584 1177.49 Q107.779 1173.92 104.145 1173.92 M104.145 1170.22 Q109.955 1170.22 113.01 1174.82 Q116.089 1179.41 116.089 1188.16 Q116.089 1196.88 113.01 1201.49 Q109.955 1206.07 104.145 1206.07 Q98.3344 1206.07 95.2557 1201.49 Q92.2002 1196.88 92.2002 1188.16 Q92.2002 1179.41 95.2557 1174.82 Q98.3344 1170.22 104.145 1170.22 Z" fill="#4c4c4c" fill-rule="nonzero" fill-opacity="1" /><path clip-path="url(#clip970)" d="M124.306 1199.52 L129.191 1199.52 L129.191 1205.4 L124.306 1205.4 L124.306 1199.52 Z" fill="#4c4c4c" fill-rule="nonzero" fill-opacity="1" /><path clip-path="url(#clip970)" d="M139.422 1170.84 L157.779 1170.84 L157.779 1174.78 L143.705 1174.78 L143.705 1183.25 Q144.723 1182.9 145.742 1182.74 Q146.76 1182.56 147.779 1182.56 Q153.566 1182.56 156.945 1185.73 Q160.325 1188.9 160.325 1194.31 Q160.325 1199.89 156.853 1202.99 Q153.38 1206.07 147.061 1206.07 Q144.885 1206.07 142.617 1205.7 Q140.371 1205.33 137.964 1204.59 L137.964 1199.89 Q140.047 1201.03 142.269 1201.58 Q144.492 1202.14 146.968 1202.14 Q150.973 1202.14 153.311 1200.03 Q155.649 1197.93 155.649 1194.31 Q155.649 1190.7 153.311 1188.6 Q150.973 1186.49 146.968 1186.49 Q145.093 1186.49 143.218 1186.91 Q141.367 1187.32 139.422 1188.2 L139.422 1170.84 Z" fill="#4c4c4c" fill-rule="nonzero" fill-opacity="1" /><path clip-path="url(#clip970)" d="M179.538 1173.92 Q175.927 1173.92 174.098 1177.49 Q172.292 1181.03 172.292 1188.16 Q172.292 1195.26 174.098 1198.83 Q175.927 1202.37 179.538 1202.37 Q183.172 1202.37 184.977 1198.83 Q186.806 1195.26 186.806 1188.16 Q186.806 1181.03 184.977 1177.49 Q183.172 1173.92 179.538 1173.92 M179.538 1170.22 Q185.348 1170.22 188.403 1174.82 Q191.482 1179.41 191.482 1188.16 Q191.482 1196.88 188.403 1201.49 Q185.348 1206.07 179.538 1206.07 Q173.727 1206.07 170.649 1201.49 Q167.593 1196.88 167.593 1188.16 Q167.593 1179.41 170.649 1174.82 Q173.727 1170.22 179.538 1170.22 Z" fill="#4c4c4c" fill-rule="nonzero" fill-opacity="1" /><path clip-path="url(#clip970)" d="M105.14 679.741 Q101.529 679.741 99.7001 683.306 Q97.8946 686.847 97.8946 693.977 Q97.8946 701.083 99.7001 704.648 Q101.529 708.19 105.14 708.19 Q108.774 708.19 110.58 704.648 Q112.408 701.083 112.408 693.977 Q112.408 686.847 110.58 683.306 Q108.774 679.741 105.14 679.741 M105.14 676.037 Q110.95 676.037 114.006 680.644 Q117.084 685.227 117.084 693.977 Q117.084 702.704 114.006 707.31 Q110.95 711.893 105.14 711.893 Q99.3297 711.893 96.2511 707.31 Q93.1955 702.704 93.1955 693.977 Q93.1955 685.227 96.2511 680.644 Q99.3297 676.037 105.14 676.037 Z" fill="#4c4c4c" fill-rule="nonzero" fill-opacity="1" /><path clip-path="url(#clip970)" d="M125.302 705.343 L130.186 705.343 L130.186 711.222 L125.302 711.222 L125.302 705.343 Z" fill="#4c4c4c" fill-rule="nonzero" fill-opacity="1" /><path clip-path="url(#clip970)" d="M139.191 676.662 L161.413 676.662 L161.413 678.653 L148.867 711.222 L143.982 711.222 L155.788 680.597 L139.191 680.597 L139.191 676.662 Z" fill="#4c4c4c" fill-rule="nonzero" fill-opacity="1" /><path clip-path="url(#clip970)" d="M170.579 676.662 L188.936 676.662 L188.936 680.597 L174.862 680.597 L174.862 689.069 Q175.88 688.722 176.899 688.56 Q177.917 688.375 178.936 688.375 Q184.723 688.375 188.102 691.546 Q191.482 694.718 191.482 700.134 Q191.482 705.713 188.01 708.815 Q184.538 711.893 178.218 711.893 Q176.042 711.893 173.774 711.523 Q171.528 711.153 169.121 710.412 L169.121 705.713 Q171.204 706.847 173.427 707.403 Q175.649 707.958 178.126 707.958 Q182.13 707.958 184.468 705.852 Q186.806 703.745 186.806 700.134 Q186.806 696.523 184.468 694.417 Q182.13 692.31 178.126 692.31 Q176.251 692.31 174.376 692.727 Q172.524 693.144 170.579 694.023 L170.579 676.662 Z" fill="#4c4c4c" fill-rule="nonzero" fill-opacity="1" /><path clip-path="url(#clip970)" d="M94.9548 213.107 L102.594 213.107 L102.594 186.741 L94.2835 188.408 L94.2835 184.149 L102.547 182.482 L107.223 182.482 L107.223 213.107 L114.862 213.107 L114.862 217.042 L94.9548 217.042 L94.9548 213.107 Z" fill="#4c4c4c" fill-rule="nonzero" fill-opacity="1" /><path clip-path="url(#clip970)" d="M124.306 211.162 L129.191 211.162 L129.191 217.042 L124.306 217.042 L124.306 211.162 Z" fill="#4c4c4c" fill-rule="nonzero" fill-opacity="1" /><path clip-path="url(#clip970)" d="M149.376 185.561 Q145.765 185.561 143.936 189.125 Q142.13 192.667 142.13 199.797 Q142.13 206.903 143.936 210.468 Q145.765 214.01 149.376 214.01 Q153.01 214.01 154.816 210.468 Q156.644 206.903 156.644 199.797 Q156.644 192.667 154.816 189.125 Q153.01 185.561 149.376 185.561 M149.376 181.857 Q155.186 181.857 158.241 186.463 Q161.32 191.047 161.32 199.797 Q161.32 208.523 158.241 213.13 Q155.186 217.713 149.376 217.713 Q143.566 217.713 140.487 213.13 Q137.431 208.523 137.431 199.797 Q137.431 191.047 140.487 186.463 Q143.566 181.857 149.376 181.857 Z" fill="#4c4c4c" fill-rule="nonzero" fill-opacity="1" /><path clip-path="url(#clip970)" d="M179.538 185.561 Q175.927 185.561 174.098 189.125 Q172.292 192.667 172.292 199.797 Q172.292 206.903 174.098 210.468 Q175.927 214.01 179.538 214.01 Q183.172 214.01 184.977 210.468 Q186.806 206.903 186.806 199.797 Q186.806 192.667 184.977 189.125 Q183.172 185.561 179.538 185.561 M179.538 181.857 Q185.348 181.857 188.403 186.463 Q191.482 191.047 191.482 199.797 Q191.482 208.523 188.403 213.13 Q185.348 217.713 179.538 217.713 Q173.727 217.713 170.649 213.13 Q167.593 208.523 167.593 199.797 Q167.593 191.047 170.649 186.463 Q173.727 181.857 179.538 181.857 Z" fill="#4c4c4c" fill-rule="nonzero" fill-opacity="1" /><path clip-path="url(#clip970)" d="M18.2962 1141.64 L35.6428 1154.53 L53.9442 1140.97 L53.9442 1147.88 L39.9396 1158.26 L53.9442 1168.63 L53.9442 1175.54 L35.2926 1161.69 L18.2962 1174.36 L18.2962 1167.45 L30.9958 1158 L18.2962 1148.55 L18.2962 1141.64 Z" fill="#000000" fill-rule="nonzero" fill-opacity="1" /><path clip-path="url(#clip970)" d="M651.05 20.3876 L651.05 25.4223 Q648.793 24.2649 646.363 23.6862 Q643.932 23.1075 641.328 23.1075 Q637.364 23.1075 635.367 24.3228 Q633.4 25.5381 633.4 27.9686 Q633.4 29.8204 634.817 30.891 Q636.235 31.9327 640.518 32.8876 L642.341 33.2926 Q648.012 34.5079 650.384 36.7359 Q652.786 38.935 652.786 42.8991 Q652.786 47.4129 649.198 50.046 Q645.639 52.6791 639.389 52.6791 Q636.785 52.6791 633.949 52.1583 Q631.143 51.6664 628.018 50.6537 L628.018 45.156 Q630.969 46.6896 633.834 47.4708 Q636.698 48.2231 639.505 48.2231 Q643.266 48.2231 645.292 46.95 Q647.317 45.6479 647.317 43.3042 Q647.317 41.134 645.842 39.9766 Q644.395 38.8192 639.447 37.7486 L637.595 37.3146 Q632.647 36.273 630.448 34.1318 Q628.249 31.9616 628.249 28.2001 Q628.249 23.6283 631.49 21.1399 Q634.731 18.6515 640.691 18.6515 Q643.643 18.6515 646.247 19.0855 Q648.851 19.5196 651.05 20.3876 Z" fill="#000000" fill-rule="nonzero" fill-opacity="1" /><path clip-path="url(#clip970)" d="M673.822 23.1654 Q669.539 23.1654 667.051 26.5218 Q664.563 29.8494 664.563 35.6653 Q664.563 41.4813 667.022 44.8377 Q669.511 48.1653 673.822 48.1653 Q678.075 48.1653 680.564 44.8088 Q683.052 41.4523 683.052 35.6653 Q683.052 29.9072 680.564 26.5508 Q678.075 23.1654 673.822 23.1654 M673.822 18.6515 Q680.766 18.6515 684.73 23.1654 Q688.694 27.6792 688.694 35.6653 Q688.694 43.6225 684.73 48.1653 Q680.766 52.6791 673.822 52.6791 Q666.849 52.6791 662.884 48.1653 Q658.949 43.6225 658.949 35.6653 Q658.949 27.6792 662.884 23.1654 Q666.849 18.6515 673.822 18.6515 Z" fill="#000000" fill-rule="nonzero" fill-opacity="1" /><path clip-path="url(#clip970)" d="M697.52 6.81709 L702.844 6.81709 L702.844 51.84 L697.52 51.84 L697.52 6.81709 Z" fill="#000000" fill-rule="nonzero" fill-opacity="1" /><path clip-path="url(#clip970)" d="M713.434 39.0507 L713.434 19.4328 L718.758 19.4328 L718.758 38.8482 Q718.758 43.4488 720.552 45.7636 Q722.346 48.0495 725.934 48.0495 Q730.245 48.0495 732.734 45.3007 Q735.251 42.5519 735.251 37.8065 L735.251 19.4328 L740.575 19.4328 L740.575 51.84 L735.251 51.84 L735.251 46.8632 Q733.312 49.8145 730.737 51.2613 Q728.191 52.6791 724.805 52.6791 Q719.221 52.6791 716.327 49.2069 Q713.434 45.7347 713.434 39.0507 M726.831 18.6515 L726.831 18.6515 Z" fill="#000000" fill-rule="nonzero" fill-opacity="1" /><path clip-path="url(#clip970)" d="M774.863 20.677 L774.863 25.6538 Q772.606 24.4096 770.32 23.802 Q768.063 23.1654 765.748 23.1654 Q760.569 23.1654 757.705 26.464 Q754.84 29.7336 754.84 35.6653 Q754.84 41.597 757.705 44.8956 Q760.569 48.1653 765.748 48.1653 Q768.063 48.1653 770.32 47.5576 Q772.606 46.921 774.863 45.6768 L774.863 50.5958 Q772.635 51.6375 770.233 52.1583 Q767.861 52.6791 765.17 52.6791 Q757.849 52.6791 753.538 48.0784 Q749.227 43.4778 749.227 35.6653 Q749.227 27.7371 753.567 23.1943 Q757.936 18.6515 765.517 18.6515 Q767.976 18.6515 770.32 19.1724 Q772.664 19.6642 774.863 20.677 M767.34 51.84 Q768.931 53.634 769.713 55.1386 Q770.494 56.6722 770.494 58.061 Q770.494 60.6362 768.758 61.9383 Q767.022 63.2693 763.607 63.2693 Q762.276 63.2693 761.003 63.0957 Q759.759 62.9221 758.515 62.5749 L758.515 58.7844 Q759.498 59.2763 760.569 59.4788 Q761.64 59.7103 763 59.7103 Q764.707 59.7103 765.575 59.0159 Q766.443 58.3214 766.443 56.9904 Q766.443 56.1224 765.806 54.8492 Q765.199 53.605 763.897 51.84 L767.34 51.84 Z" fill="#000000" fill-rule="nonzero" fill-opacity="1" /><path clip-path="url(#clip970)" d="M798.85 35.5496 Q792.398 35.5496 789.909 37.0253 Q787.421 38.501 787.421 42.06 Q787.421 44.8956 789.273 46.5738 Q791.153 48.2231 794.365 48.2231 Q798.792 48.2231 801.454 45.0981 Q804.145 41.9442 804.145 36.7359 L804.145 35.5496 L798.85 35.5496 M809.469 33.3505 L809.469 51.84 L804.145 51.84 L804.145 46.921 Q802.322 49.8724 799.602 51.2902 Q796.883 52.6791 792.947 52.6791 Q787.971 52.6791 785.019 49.9014 Q782.097 47.0947 782.097 42.4072 Q782.097 36.9385 785.743 34.1607 Q789.417 31.3829 796.68 31.3829 L804.145 31.3829 L804.145 30.8621 Q804.145 27.1874 801.715 25.1908 Q799.313 23.1654 794.944 23.1654 Q792.166 23.1654 789.533 23.8309 Q786.9 24.4964 784.469 25.8274 L784.469 20.9085 Q787.392 19.78 790.141 19.2302 Q792.889 18.6515 795.494 18.6515 Q802.525 18.6515 805.997 22.2973 Q809.469 25.9431 809.469 33.3505 M795.609 12.199 L793.96 10.6076 Q793.324 10.0289 792.832 9.76847 Q792.369 9.47912 791.993 9.47912 Q790.893 9.47912 790.372 10.5497 Q789.851 11.5914 789.793 13.964 L786.177 13.964 Q786.234 10.0578 787.71 7.94556 Q789.186 5.80437 791.819 5.80437 Q792.918 5.80437 793.844 6.20946 Q794.77 6.61455 795.841 7.5694 L797.49 9.16083 Q798.127 9.73953 798.59 10.0289 Q799.082 10.2893 799.458 10.2893 Q800.557 10.2893 801.078 9.24764 Q801.599 8.17704 801.657 5.80437 L805.274 5.80437 Q805.216 9.7106 803.74 11.8518 Q802.264 13.964 799.631 13.964 Q798.532 13.964 797.606 13.559 Q796.68 13.1539 795.609 12.199 Z" fill="#000000" fill-rule="nonzero" fill-opacity="1" /><path clip-path="url(#clip970)" d="M832.993 23.1654 Q828.711 23.1654 826.223 26.5218 Q823.734 29.8494 823.734 35.6653 Q823.734 41.4813 826.194 44.8377 Q828.682 48.1653 832.993 48.1653 Q837.247 48.1653 839.735 44.8088 Q842.224 41.4523 842.224 35.6653 Q842.224 29.9072 839.735 26.5508 Q837.247 23.1654 832.993 23.1654 M832.993 18.6515 Q839.938 18.6515 843.902 23.1654 Q847.866 27.6792 847.866 35.6653 Q847.866 43.6225 843.902 48.1653 Q839.938 52.6791 832.993 52.6791 Q826.02 52.6791 822.056 48.1653 Q818.121 43.6225 818.121 35.6653 Q818.121 27.6792 822.056 23.1654 Q826.02 18.6515 832.993 18.6515 Z" fill="#000000" fill-rule="nonzero" fill-opacity="1" /><path clip-path="url(#clip970)" d="M896.853 24.3517 L896.853 6.81709 L902.177 6.81709 L902.177 51.84 L896.853 51.84 L896.853 46.9789 Q895.175 49.8724 892.6 51.2902 Q890.053 52.6791 886.465 52.6791 Q880.592 52.6791 876.888 47.9916 Q873.213 43.3042 873.213 35.6653 Q873.213 28.0265 876.888 23.339 Q880.592 18.6515 886.465 18.6515 Q890.053 18.6515 892.6 20.0693 Q895.175 21.4582 896.853 24.3517 M878.711 35.6653 Q878.711 41.5391 881.112 44.8956 Q883.543 48.2231 887.767 48.2231 Q891.992 48.2231 894.423 44.8956 Q896.853 41.5391 896.853 35.6653 Q896.853 29.7915 894.423 26.464 Q891.992 23.1075 887.767 23.1075 Q883.543 23.1075 881.112 26.464 Q878.711 29.7915 878.711 35.6653 Z" fill="#000000" fill-rule="nonzero" fill-opacity="1" /><path clip-path="url(#clip970)" d="M927.871 35.5496 Q921.419 35.5496 918.93 37.0253 Q916.442 38.501 916.442 42.06 Q916.442 44.8956 918.294 46.5738 Q920.175 48.2231 923.386 48.2231 Q927.814 48.2231 930.476 45.0981 Q933.167 41.9442 933.167 36.7359 L933.167 35.5496 L927.871 35.5496 M938.491 33.3505 L938.491 51.84 L933.167 51.84 L933.167 46.921 Q931.344 49.8724 928.624 51.2902 Q925.904 52.6791 921.969 52.6791 Q916.992 52.6791 914.04 49.9014 Q911.118 47.0947 911.118 42.4072 Q911.118 36.9385 914.764 34.1607 Q918.439 31.3829 925.701 31.3829 L933.167 31.3829 L933.167 30.8621 Q933.167 27.1874 930.736 25.1908 Q928.334 23.1654 923.965 23.1654 Q921.187 23.1654 918.554 23.8309 Q915.921 24.4964 913.491 25.8274 L913.491 20.9085 Q916.413 19.78 919.162 19.2302 Q921.911 18.6515 924.515 18.6515 Q931.546 18.6515 935.018 22.2973 Q938.491 25.9431 938.491 33.3505 Z" fill="#000000" fill-rule="nonzero" fill-opacity="1" /><path clip-path="url(#clip970)" d="M996.013 34.3054 L996.013 36.9095 L971.534 36.9095 Q971.882 42.4072 974.833 45.3007 Q977.813 48.1653 983.108 48.1653 Q986.175 48.1653 989.04 47.4129 Q991.934 46.6606 994.769 45.156 L994.769 50.1907 Q991.905 51.406 988.895 52.0425 Q985.886 52.6791 982.79 52.6791 Q975.036 52.6791 970.493 48.1653 Q965.979 43.6514 965.979 35.9547 Q965.979 27.9975 970.261 23.339 Q974.573 18.6515 981.864 18.6515 Q988.403 18.6515 992.194 22.876 Q996.013 27.0716 996.013 34.3054 M990.689 32.7429 Q990.631 28.3737 988.23 25.7695 Q985.857 23.1654 981.922 23.1654 Q977.466 23.1654 974.775 25.6827 Q972.113 28.2001 971.708 32.7718 L990.689 32.7429 Z" fill="#000000" fill-rule="nonzero" fill-opacity="1" /><path clip-path="url(#clip970)" d="M1007.93 35.6653 Q1007.93 41.5391 1010.34 44.8956 Q1012.77 48.2231 1016.99 48.2231 Q1021.22 48.2231 1023.65 44.8956 Q1026.08 41.5391 1026.08 35.6653 Q1026.08 29.7915 1023.65 26.464 Q1021.22 23.1075 1016.99 23.1075 Q1012.77 23.1075 1010.34 26.464 Q1007.93 29.7915 1007.93 35.6653 M1026.08 46.9789 Q1024.4 49.8724 1021.82 51.2902 Q1019.28 52.6791 1015.69 52.6791 Q1009.82 52.6791 1006.11 47.9916 Q1002.44 43.3042 1002.44 35.6653 Q1002.44 28.0265 1006.11 23.339 Q1009.82 18.6515 1015.69 18.6515 Q1019.28 18.6515 1021.82 20.0693 Q1024.4 21.4582 1026.08 24.3517 L1026.08 19.4328 L1031.4 19.4328 L1031.4 64.1663 L1026.08 64.1663 L1026.08 46.9789 Z" fill="#000000" fill-rule="nonzero" fill-opacity="1" /><path clip-path="url(#clip970)" d="M1041.82 39.0507 L1041.82 19.4328 L1047.14 19.4328 L1047.14 38.8482 Q1047.14 43.4488 1048.94 45.7636 Q1050.73 48.0495 1054.32 48.0495 Q1058.63 48.0495 1061.12 45.3007 Q1063.63 42.5519 1063.63 37.8065 L1063.63 19.4328 L1068.96 19.4328 L1068.96 51.84 L1063.63 51.84 L1063.63 46.8632 Q1061.7 49.8145 1059.12 51.2613 Q1056.57 52.6791 1053.19 52.6791 Q1047.6 52.6791 1044.71 49.2069 Q1041.82 45.7347 1041.82 39.0507 M1055.21 18.6515 L1055.21 18.6515 Z" fill="#000000" fill-rule="nonzero" fill-opacity="1" /><path clip-path="url(#clip970)" d="M1094.65 35.5496 Q1088.2 35.5496 1085.71 37.0253 Q1083.22 38.501 1083.22 42.06 Q1083.22 44.8956 1085.08 46.5738 Q1086.96 48.2231 1090.17 48.2231 Q1094.6 48.2231 1097.26 45.0981 Q1099.95 41.9442 1099.95 36.7359 L1099.95 35.5496 L1094.65 35.5496 M1105.27 33.3505 L1105.27 51.84 L1099.95 51.84 L1099.95 46.921 Q1098.13 49.8724 1095.41 51.2902 Q1092.69 52.6791 1088.75 52.6791 Q1083.77 52.6791 1080.82 49.9014 Q1077.9 47.0947 1077.9 42.4072 Q1077.9 36.9385 1081.55 34.1607 Q1085.22 31.3829 1092.48 31.3829 L1099.95 31.3829 L1099.95 30.8621 Q1099.95 27.1874 1097.52 25.1908 Q1095.12 23.1654 1090.75 23.1654 Q1087.97 23.1654 1085.34 23.8309 Q1082.7 24.4964 1080.27 25.8274 L1080.27 20.9085 Q1083.19 19.78 1085.94 19.2302 Q1088.69 18.6515 1091.3 18.6515 Q1098.33 18.6515 1101.8 22.2973 Q1105.27 25.9431 1105.27 33.3505 Z" fill="#000000" fill-rule="nonzero" fill-opacity="1" /><path clip-path="url(#clip970)" d="M1139.56 20.677 L1139.56 25.6538 Q1137.3 24.4096 1135.02 23.802 Q1132.76 23.1654 1130.45 23.1654 Q1125.27 23.1654 1122.4 26.464 Q1119.54 29.7336 1119.54 35.6653 Q1119.54 41.597 1122.4 44.8956 Q1125.27 48.1653 1130.45 48.1653 Q1132.76 48.1653 1135.02 47.5576 Q1137.3 46.921 1139.56 45.6768 L1139.56 50.5958 Q1137.33 51.6375 1134.93 52.1583 Q1132.56 52.6791 1129.87 52.6791 Q1122.55 52.6791 1118.23 48.0784 Q1113.92 43.4778 1113.92 35.6653 Q1113.92 27.7371 1118.26 23.1943 Q1122.63 18.6515 1130.21 18.6515 Q1132.67 18.6515 1135.02 19.1724 Q1137.36 19.6642 1139.56 20.677 M1132.04 51.84 Q1133.63 53.634 1134.41 55.1386 Q1135.19 56.6722 1135.19 58.061 Q1135.19 60.6362 1133.45 61.9383 Q1131.72 63.2693 1128.3 63.2693 Q1126.97 63.2693 1125.7 63.0957 Q1124.46 62.9221 1123.21 62.5749 L1123.21 58.7844 Q1124.2 59.2763 1125.27 59.4788 Q1126.34 59.7103 1127.7 59.7103 Q1129.4 59.7103 1130.27 59.0159 Q1131.14 58.3214 1131.14 56.9904 Q1131.14 56.1224 1130.5 54.8492 Q1129.9 53.605 1128.59 51.84 L1132.04 51.84 Z" fill="#000000" fill-rule="nonzero" fill-opacity="1" /><path clip-path="url(#clip970)" d="M1163.55 35.5496 Q1157.09 35.5496 1154.61 37.0253 Q1152.12 38.501 1152.12 42.06 Q1152.12 44.8956 1153.97 46.5738 Q1155.85 48.2231 1159.06 48.2231 Q1163.49 48.2231 1166.15 45.0981 Q1168.84 41.9442 1168.84 36.7359 L1168.84 35.5496 L1163.55 35.5496 M1174.17 33.3505 L1174.17 51.84 L1168.84 51.84 L1168.84 46.921 Q1167.02 49.8724 1164.3 51.2902 Q1161.58 52.6791 1157.64 52.6791 Q1152.67 52.6791 1149.72 49.9014 Q1146.79 47.0947 1146.79 42.4072 Q1146.79 36.9385 1150.44 34.1607 Q1154.11 31.3829 1161.38 31.3829 L1168.84 31.3829 L1168.84 30.8621 Q1168.84 27.1874 1166.41 25.1908 Q1164.01 23.1654 1159.64 23.1654 Q1156.86 23.1654 1154.23 23.8309 Q1151.6 24.4964 1149.17 25.8274 L1149.17 20.9085 Q1152.09 19.78 1154.84 19.2302 Q1157.59 18.6515 1160.19 18.6515 Q1167.22 18.6515 1170.69 22.2973 Q1174.17 25.9431 1174.17 33.3505 M1160.31 12.199 L1158.66 10.6076 Q1158.02 10.0289 1157.53 9.76847 Q1157.07 9.47912 1156.69 9.47912 Q1155.59 9.47912 1155.07 10.5497 Q1154.55 11.5914 1154.49 13.964 L1150.87 13.964 Q1150.93 10.0578 1152.41 7.94556 Q1153.88 5.80437 1156.52 5.80437 Q1157.62 5.80437 1158.54 6.20946 Q1159.47 6.61455 1160.54 7.5694 L1162.19 9.16083 Q1162.82 9.73953 1163.29 10.0289 Q1163.78 10.2893 1164.15 10.2893 Q1165.25 10.2893 1165.78 9.24764 Q1166.3 8.17704 1166.35 5.80437 L1169.97 5.80437 Q1169.91 9.7106 1168.44 11.8518 Q1166.96 13.964 1164.33 13.964 Q1163.23 13.964 1162.3 13.559 Q1161.38 13.1539 1160.31 12.199 Z" fill="#000000" fill-rule="nonzero" fill-opacity="1" /><path clip-path="url(#clip970)" d="M1197.69 23.1654 Q1193.41 23.1654 1190.92 26.5218 Q1188.43 29.8494 1188.43 35.6653 Q1188.43 41.4813 1190.89 44.8377 Q1193.38 48.1653 1197.69 48.1653 Q1201.94 48.1653 1204.43 44.8088 Q1206.92 41.4523 1206.92 35.6653 Q1206.92 29.9072 1204.43 26.5508 Q1201.94 23.1654 1197.69 23.1654 M1197.69 18.6515 Q1204.63 18.6515 1208.6 23.1654 Q1212.56 27.6792 1212.56 35.6653 Q1212.56 43.6225 1208.6 48.1653 Q1204.63 52.6791 1197.69 52.6791 Q1190.72 52.6791 1186.75 48.1653 Q1182.82 43.6225 1182.82 35.6653 Q1182.82 27.6792 1186.75 23.1654 Q1190.72 18.6515 1197.69 18.6515 Z" fill="#000000" fill-rule="nonzero" fill-opacity="1" /><path clip-path="url(#clip970)" d="M1261.55 24.3517 L1261.55 6.81709 L1266.87 6.81709 L1266.87 51.84 L1261.55 51.84 L1261.55 46.9789 Q1259.87 49.8724 1257.3 51.2902 Q1254.75 52.6791 1251.16 52.6791 Q1245.29 52.6791 1241.59 47.9916 Q1237.91 43.3042 1237.91 35.6653 Q1237.91 28.0265 1241.59 23.339 Q1245.29 18.6515 1251.16 18.6515 Q1254.75 18.6515 1257.3 20.0693 Q1259.87 21.4582 1261.55 24.3517 M1243.41 35.6653 Q1243.41 41.5391 1245.81 44.8956 Q1248.24 48.2231 1252.46 48.2231 Q1256.69 48.2231 1259.12 44.8956 Q1261.55 41.5391 1261.55 35.6653 Q1261.55 29.7915 1259.12 26.464 Q1256.69 23.1075 1252.46 23.1075 Q1248.24 23.1075 1245.81 26.464 Q1243.41 29.7915 1243.41 35.6653 Z" fill="#000000" fill-rule="nonzero" fill-opacity="1" /><path clip-path="url(#clip970)" d="M1277.84 19.4328 L1283.16 19.4328 L1283.16 51.84 L1277.84 51.84 L1277.84 19.4328 M1277.84 6.81709 L1283.16 6.81709 L1283.16 13.559 L1277.84 13.559 L1277.84 6.81709 Z" fill="#000000" fill-rule="nonzero" fill-opacity="1" /><path clip-path="url(#clip970)" d="M1310.71 6.81709 L1310.71 11.2442 L1305.62 11.2442 Q1302.75 11.2442 1301.63 12.4016 Q1300.53 13.559 1300.53 16.5682 L1300.53 19.4328 L1309.29 19.4328 L1309.29 23.5705 L1300.53 23.5705 L1300.53 51.84 L1295.17 51.84 L1295.17 23.5705 L1290.08 23.5705 L1290.08 19.4328 L1295.17 19.4328 L1295.17 17.1758 Q1295.17 11.765 1297.69 9.30551 Q1300.21 6.81709 1305.68 6.81709 L1310.71 6.81709 Z" fill="#000000" fill-rule="nonzero" fill-opacity="1" /><path clip-path="url(#clip970)" d="M1342.89 34.3054 L1342.89 36.9095 L1318.41 36.9095 Q1318.75 42.4072 1321.71 45.3007 Q1324.69 48.1653 1329.98 48.1653 Q1333.05 48.1653 1335.91 47.4129 Q1338.81 46.6606 1341.64 45.156 L1341.64 50.1907 Q1338.78 51.406 1335.77 52.0425 Q1332.76 52.6791 1329.66 52.6791 Q1321.91 52.6791 1317.37 48.1653 Q1312.85 43.6514 1312.85 35.9547 Q1312.85 27.9975 1317.13 23.339 Q1321.45 18.6515 1328.74 18.6515 Q1335.28 18.6515 1339.07 22.876 Q1342.89 27.0716 1342.89 34.3054 M1337.56 32.7429 Q1337.5 28.3737 1335.1 25.7695 Q1332.73 23.1654 1328.8 23.1654 Q1324.34 23.1654 1321.65 25.6827 Q1318.99 28.2001 1318.58 32.7718 L1337.56 32.7429 Z" fill="#000000" fill-rule="nonzero" fill-opacity="1" /><path clip-path="url(#clip970)" d="M1370.4 24.4096 Q1369.51 23.8888 1368.44 23.6573 Q1367.39 23.3969 1366.12 23.3969 Q1361.61 23.3969 1359.18 26.3482 Q1356.78 29.2707 1356.78 34.7683 L1356.78 51.84 L1351.42 51.84 L1351.42 19.4328 L1356.78 19.4328 L1356.78 24.4675 Q1358.45 21.5161 1361.14 20.0983 Q1363.84 18.6515 1367.68 18.6515 Q1368.23 18.6515 1368.9 18.7383 Q1369.56 18.7962 1370.37 18.9409 L1370.4 24.4096 Z" fill="#000000" fill-rule="nonzero" fill-opacity="1" /><path clip-path="url(#clip970)" d="M1402.41 34.3054 L1402.41 36.9095 L1377.93 36.9095 Q1378.27 42.4072 1381.23 45.3007 Q1384.21 48.1653 1389.5 48.1653 Q1392.57 48.1653 1395.43 47.4129 Q1398.33 46.6606 1401.16 45.156 L1401.16 50.1907 Q1398.3 51.406 1395.29 52.0425 Q1392.28 52.6791 1389.18 52.6791 Q1381.43 52.6791 1376.89 48.1653 Q1372.37 43.6514 1372.37 35.9547 Q1372.37 27.9975 1376.65 23.339 Q1380.97 18.6515 1388.26 18.6515 Q1394.8 18.6515 1398.59 22.876 Q1402.41 27.0716 1402.41 34.3054 M1397.08 32.7429 Q1397.02 28.3737 1394.62 25.7695 Q1392.25 23.1654 1388.31 23.1654 Q1383.86 23.1654 1381.17 25.6827 Q1378.51 28.2001 1378.1 32.7718 L1397.08 32.7429 Z" fill="#000000" fill-rule="nonzero" fill-opacity="1" /><path clip-path="url(#clip970)" d="M1438.08 32.2799 L1438.08 51.84 L1432.76 51.84 L1432.76 32.4535 Q1432.76 27.8529 1430.96 25.567 Q1429.17 23.2811 1425.58 23.2811 Q1421.27 23.2811 1418.78 26.03 Q1416.29 28.7788 1416.29 33.5241 L1416.29 51.84 L1410.94 51.84 L1410.94 19.4328 L1416.29 19.4328 L1416.29 24.4675 Q1418.2 21.545 1420.78 20.0983 Q1423.38 18.6515 1426.77 18.6515 Q1432.35 18.6515 1435.22 22.1237 Q1438.08 25.567 1438.08 32.2799 Z" fill="#000000" fill-rule="nonzero" fill-opacity="1" /><path clip-path="url(#clip970)" d="M1472.02 20.677 L1472.02 25.6538 Q1469.77 24.4096 1467.48 23.802 Q1465.22 23.1654 1462.91 23.1654 Q1457.73 23.1654 1454.87 26.464 Q1452 29.7336 1452 35.6653 Q1452 41.597 1454.87 44.8956 Q1457.73 48.1653 1462.91 48.1653 Q1465.22 48.1653 1467.48 47.5576 Q1469.77 46.921 1472.02 45.6768 L1472.02 50.5958 Q1469.8 51.6375 1467.39 52.1583 Q1465.02 52.6791 1462.33 52.6791 Q1455.01 52.6791 1450.7 48.0784 Q1446.39 43.4778 1446.39 35.6653 Q1446.39 27.7371 1450.73 23.1943 Q1455.1 18.6515 1462.68 18.6515 Q1465.14 18.6515 1467.48 19.1724 Q1469.82 19.6642 1472.02 20.677 Z" fill="#000000" fill-rule="nonzero" fill-opacity="1" /><path clip-path="url(#clip970)" d="M1481.28 19.4328 L1486.61 19.4328 L1486.61 51.84 L1481.28 51.84 L1481.28 19.4328 M1481.28 6.81709 L1486.61 6.81709 L1486.61 13.559 L1481.28 13.559 L1481.28 6.81709 Z" fill="#000000" fill-rule="nonzero" fill-opacity="1" /><path clip-path="url(#clip970)" d="M1512.47 35.5496 Q1506.02 35.5496 1503.53 37.0253 Q1501.05 38.501 1501.05 42.06 Q1501.05 44.8956 1502.9 46.5738 Q1504.78 48.2231 1507.99 48.2231 Q1512.42 48.2231 1515.08 45.0981 Q1517.77 41.9442 1517.77 36.7359 L1517.77 35.5496 L1512.47 35.5496 M1523.09 33.3505 L1523.09 51.84 L1517.77 51.84 L1517.77 46.921 Q1515.95 49.8724 1513.23 51.2902 Q1510.51 52.6791 1506.57 52.6791 Q1501.6 52.6791 1498.64 49.9014 Q1495.72 47.0947 1495.72 42.4072 Q1495.72 36.9385 1499.37 34.1607 Q1503.04 31.3829 1510.3 31.3829 L1517.77 31.3829 L1517.77 30.8621 Q1517.77 27.1874 1515.34 25.1908 Q1512.94 23.1654 1508.57 23.1654 Q1505.79 23.1654 1503.16 23.8309 Q1500.52 24.4964 1498.09 25.8274 L1498.09 20.9085 Q1501.02 19.78 1503.77 19.2302 Q1506.51 18.6515 1509.12 18.6515 Q1516.15 18.6515 1519.62 22.2973 Q1523.09 25.9431 1523.09 33.3505 Z" fill="#000000" fill-rule="nonzero" fill-opacity="1" /><path clip-path="url(#clip970)" d="M1534.06 6.81709 L1539.38 6.81709 L1539.38 51.84 L1534.06 51.84 L1534.06 6.81709 Z" fill="#000000" fill-rule="nonzero" fill-opacity="1" /><path clip-path="url(#clip970)" d="M1584.09 35.5496 Q1577.64 35.5496 1575.15 37.0253 Q1572.66 38.501 1572.66 42.06 Q1572.66 44.8956 1574.51 46.5738 Q1576.39 48.2231 1579.6 48.2231 Q1584.03 48.2231 1586.69 45.0981 Q1589.38 41.9442 1589.38 36.7359 L1589.38 35.5496 L1584.09 35.5496 M1594.71 33.3505 L1594.71 51.84 L1589.38 51.84 L1589.38 46.921 Q1587.56 49.8724 1584.84 51.2902 Q1582.12 52.6791 1578.19 52.6791 Q1573.21 52.6791 1570.26 49.9014 Q1567.34 47.0947 1567.34 42.4072 Q1567.34 36.9385 1570.98 34.1607 Q1574.66 31.3829 1581.92 31.3829 L1589.38 31.3829 L1589.38 30.8621 Q1589.38 27.1874 1586.95 25.1908 Q1584.55 23.1654 1580.18 23.1654 Q1577.4 23.1654 1574.77 23.8309 Q1572.14 24.4964 1569.71 25.8274 L1569.71 20.9085 Q1572.63 19.78 1575.38 19.2302 Q1578.13 18.6515 1580.73 18.6515 Q1587.76 18.6515 1591.24 22.2973 Q1594.71 25.9431 1594.71 33.3505 Z" fill="#000000" fill-rule="nonzero" fill-opacity="1" /><path clip-path="url(#clip970)" d="M1605.67 6.81709 L1611 6.81709 L1611 51.84 L1605.67 51.84 L1605.67 6.81709 Z" fill="#000000" fill-rule="nonzero" fill-opacity="1" /><path clip-path="url(#clip970)" d="M1649.86 34.3054 L1649.86 36.9095 L1625.38 36.9095 Q1625.73 42.4072 1628.68 45.3007 Q1631.66 48.1653 1636.95 48.1653 Q1640.02 48.1653 1642.88 47.4129 Q1645.78 46.6606 1648.61 45.156 L1648.61 50.1907 Q1645.75 51.406 1642.74 52.0425 Q1639.73 52.6791 1636.63 52.6791 Q1628.88 52.6791 1624.34 48.1653 Q1619.82 43.6514 1619.82 35.9547 Q1619.82 27.9975 1624.11 23.339 Q1628.42 18.6515 1635.71 18.6515 Q1642.25 18.6515 1646.04 22.876 Q1649.86 27.0716 1649.86 34.3054 M1644.53 32.7429 Q1644.48 28.3737 1642.07 25.7695 Q1639.7 23.1654 1635.77 23.1654 Q1631.31 23.1654 1628.62 25.6827 Q1625.96 28.2001 1625.55 32.7718 L1644.53 32.7429 Z" fill="#000000" fill-rule="nonzero" fill-opacity="1" /><path clip-path="url(#clip970)" d="M1673.32 35.5496 Q1666.87 35.5496 1664.38 37.0253 Q1661.9 38.501 1661.9 42.06 Q1661.9 44.8956 1663.75 46.5738 Q1665.63 48.2231 1668.84 48.2231 Q1673.27 48.2231 1675.93 45.0981 Q1678.62 41.9442 1678.62 36.7359 L1678.62 35.5496 L1673.32 35.5496 M1683.94 33.3505 L1683.94 51.84 L1678.62 51.84 L1678.62 46.921 Q1676.8 49.8724 1674.08 51.2902 Q1671.36 52.6791 1667.42 52.6791 Q1662.45 52.6791 1659.49 49.9014 Q1656.57 47.0947 1656.57 42.4072 Q1656.57 36.9385 1660.22 34.1607 Q1663.89 31.3829 1671.15 31.3829 L1678.62 31.3829 L1678.62 30.8621 Q1678.62 27.1874 1676.19 25.1908 Q1673.79 23.1654 1669.42 23.1654 Q1666.64 23.1654 1664.01 23.8309 Q1661.37 24.4964 1658.94 25.8274 L1658.94 20.9085 Q1661.87 19.78 1664.62 19.2302 Q1667.36 18.6515 1669.97 18.6515 Q1677 18.6515 1680.47 22.2973 Q1683.94 25.9431 1683.94 33.3505 Z" fill="#000000" fill-rule="nonzero" fill-opacity="1" /><path clip-path="url(#clip970)" d="M1700.18 10.2314 L1700.18 19.4328 L1711.14 19.4328 L1711.14 23.5705 L1700.18 23.5705 L1700.18 41.163 Q1700.18 45.1271 1701.25 46.2555 Q1702.35 47.384 1705.67 47.384 L1711.14 47.384 L1711.14 51.84 L1705.67 51.84 Q1699.51 51.84 1697.17 49.5541 Q1694.82 47.2393 1694.82 41.163 L1694.82 23.5705 L1690.92 23.5705 L1690.92 19.4328 L1694.82 19.4328 L1694.82 10.2314 L1700.18 10.2314 Z" fill="#000000" fill-rule="nonzero" fill-opacity="1" /><path clip-path="url(#clip970)" d="M1730.7 23.1654 Q1726.42 23.1654 1723.93 26.5218 Q1721.44 29.8494 1721.44 35.6653 Q1721.44 41.4813 1723.9 44.8377 Q1726.39 48.1653 1730.7 48.1653 Q1734.96 48.1653 1737.44 44.8088 Q1739.93 41.4523 1739.93 35.6653 Q1739.93 29.9072 1737.44 26.5508 Q1734.96 23.1654 1730.7 23.1654 M1730.7 18.6515 Q1737.65 18.6515 1741.61 23.1654 Q1745.58 27.6792 1745.58 35.6653 Q1745.58 43.6225 1741.61 48.1653 Q1737.65 52.6791 1730.7 52.6791 Q1723.73 52.6791 1719.77 48.1653 Q1715.83 43.6225 1715.83 35.6653 Q1715.83 27.6792 1719.77 23.1654 Q1723.73 18.6515 1730.7 18.6515 M1734.72 4.44442 L1740.48 4.44442 L1731.05 15.324 L1726.62 15.324 L1734.72 4.44442 Z" fill="#000000" fill-rule="nonzero" fill-opacity="1" /><path clip-path="url(#clip970)" d="M1773.18 24.4096 Q1772.28 23.8888 1771.21 23.6573 Q1770.17 23.3969 1768.9 23.3969 Q1764.38 23.3969 1761.95 26.3482 Q1759.55 29.2707 1759.55 34.7683 L1759.55 51.84 L1754.2 51.84 L1754.2 19.4328 L1759.55 19.4328 L1759.55 24.4675 Q1761.23 21.5161 1763.92 20.0983 Q1766.61 18.6515 1770.46 18.6515 Q1771.01 18.6515 1771.67 18.7383 Q1772.34 18.7962 1773.15 18.9409 L1773.18 24.4096 Z" fill="#000000" fill-rule="nonzero" fill-opacity="1" /><path clip-path="url(#clip970)" d="M1778.76 19.4328 L1784.09 19.4328 L1784.09 51.84 L1778.76 51.84 L1778.76 19.4328 M1778.76 6.81709 L1784.09 6.81709 L1784.09 13.559 L1778.76 13.559 L1778.76 6.81709 Z" fill="#000000" fill-rule="nonzero" fill-opacity="1" /><path clip-path="url(#clip970)" d="M1809.96 35.5496 Q1803.5 35.5496 1801.01 37.0253 Q1798.53 38.501 1798.53 42.06 Q1798.53 44.8956 1800.38 46.5738 Q1802.26 48.2231 1805.47 48.2231 Q1809.9 48.2231 1812.56 45.0981 Q1815.25 41.9442 1815.25 36.7359 L1815.25 35.5496 L1809.96 35.5496 M1820.57 33.3505 L1820.57 51.84 L1815.25 51.84 L1815.25 46.921 Q1813.43 49.8724 1810.71 51.2902 Q1807.99 52.6791 1804.05 52.6791 Q1799.08 52.6791 1796.12 49.9014 Q1793.2 47.0947 1793.2 42.4072 Q1793.2 36.9385 1796.85 34.1607 Q1800.52 31.3829 1807.79 31.3829 L1815.25 31.3829 L1815.25 30.8621 Q1815.25 27.1874 1812.82 25.1908 Q1810.42 23.1654 1806.05 23.1654 Q1803.27 23.1654 1800.64 23.8309 Q1798.01 24.4964 1795.58 25.8274 L1795.58 20.9085 Q1798.5 19.78 1801.25 19.2302 Q1804 18.6515 1806.6 18.6515 Q1813.63 18.6515 1817.1 22.2973 Q1820.57 25.9431 1820.57 33.3505 Z" fill="#000000" fill-rule="nonzero" fill-opacity="1" /><path clip-path="url(#clip970)" d="M1855.41 4.44442 L1863.57 15.2661 L1859.15 15.2661 L1849.71 4.44442 L1855.41 4.44442 Z" fill="#000000" fill-rule="nonzero" fill-opacity="1" /><path clip-path="url(#clip970)" d="M1879.46 39.0507 L1879.46 19.4328 L1884.78 19.4328 L1884.78 38.8482 Q1884.78 43.4488 1886.58 45.7636 Q1888.37 48.0495 1891.96 48.0495 Q1896.27 48.0495 1898.76 45.3007 Q1901.27 42.5519 1901.27 37.8065 L1901.27 19.4328 L1906.6 19.4328 L1906.6 51.84 L1901.27 51.84 L1901.27 46.8632 Q1899.34 49.8145 1896.76 51.2613 Q1894.21 52.6791 1890.83 52.6791 Q1885.24 52.6791 1882.35 49.2069 Q1879.46 45.7347 1879.46 39.0507 M1892.85 18.6515 L1892.85 18.6515 Z" fill="#000000" fill-rule="nonzero" fill-opacity="1" /><path clip-path="url(#clip970)" d="M1922.6 8.64 L1922.6 24.6989 L1917.68 24.6989 L1917.68 8.64 L1922.6 8.64 Z" fill="#000000" fill-rule="nonzero" fill-opacity="1" /><path clip-path="url(#clip970)" d="M1953.39 24.9304 L1990.48 24.9304 L1990.48 29.7915 L1953.39 29.7915 L1953.39 24.9304 M1953.39 36.7359 L1990.48 36.7359 L1990.48 41.6549 L1953.39 41.6549 L1953.39 36.7359 Z" fill="#000000" fill-rule="nonzero" fill-opacity="1" /><path clip-path="url(#clip970)" d="M2041.84 20.3876 L2041.84 25.4223 Q2039.58 24.2649 2037.15 23.6862 Q2034.72 23.1075 2032.12 23.1075 Q2028.15 23.1075 2026.16 24.3228 Q2024.19 25.5381 2024.19 27.9686 Q2024.19 29.8204 2025.61 30.891 Q2027.03 31.9327 2031.31 32.8876 L2033.13 33.2926 Q2038.8 34.5079 2041.18 36.7359 Q2043.58 38.935 2043.58 42.8991 Q2043.58 47.4129 2039.99 50.046 Q2036.43 52.6791 2030.18 52.6791 Q2027.58 52.6791 2024.74 52.1583 Q2021.93 51.6664 2018.81 50.6537 L2018.81 45.156 Q2021.76 46.6896 2024.62 47.4708 Q2027.49 48.2231 2030.3 48.2231 Q2034.06 48.2231 2036.08 46.95 Q2038.11 45.6479 2038.11 43.3042 Q2038.11 41.134 2036.63 39.9766 Q2035.19 38.8192 2030.24 37.7486 L2028.39 37.3146 Q2023.44 36.273 2021.24 34.1318 Q2019.04 31.9616 2019.04 28.2001 Q2019.04 23.6283 2022.28 21.1399 Q2025.52 18.6515 2031.48 18.6515 Q2034.43 18.6515 2037.04 19.0855 Q2039.64 19.5196 2041.84 20.3876 Z" fill="#000000" fill-rule="nonzero" fill-opacity="1" /><path clip-path="url(#clip970)" d="M2052.06 19.4328 L2057.38 19.4328 L2057.38 51.84 L2052.06 51.84 L2052.06 19.4328 M2052.06 6.81709 L2057.38 6.81709 L2057.38 13.559 L2052.06 13.559 L2052.06 6.81709 Z" fill="#000000" fill-rule="nonzero" fill-opacity="1" /><path clip-path="url(#clip970)" d="M2095.46 32.2799 L2095.46 51.84 L2090.13 51.84 L2090.13 32.4535 Q2090.13 27.8529 2088.34 25.567 Q2086.55 23.2811 2082.96 23.2811 Q2078.65 23.2811 2076.16 26.03 Q2073.67 28.7788 2073.67 33.5241 L2073.67 51.84 L2068.32 51.84 L2068.32 19.4328 L2073.67 19.4328 L2073.67 24.4675 Q2075.58 21.545 2078.15 20.0983 Q2080.76 18.6515 2084.14 18.6515 Q2089.73 18.6515 2092.59 22.1237 Q2095.46 25.567 2095.46 32.2799 Z" fill="#000000" fill-rule="nonzero" fill-opacity="1" /><path clip-path="url(#clip970)" d="M2118.87 6.87496 Q2114.99 13.53 2113.11 20.0404 Q2111.23 26.5508 2111.23 33.2348 Q2111.23 39.9188 2113.11 46.487 Q2115.02 53.0263 2118.87 59.6525 L2114.24 59.6525 Q2109.9 52.8527 2107.73 46.2845 Q2105.59 39.7162 2105.59 33.2348 Q2105.59 26.7823 2107.73 20.2429 Q2109.87 13.7036 2114.24 6.87496 L2118.87 6.87496 Z" fill="#000000" fill-rule="nonzero" fill-opacity="1" /><path clip-path="url(#clip970)" d="M2125.58 8.64 L2131.48 8.64 L2140.57 45.156 L2149.62 8.64 L2156.19 8.64 L2165.28 45.156 L2174.33 8.64 L2180.27 8.64 L2169.42 51.84 L2162.07 51.84 L2152.95 14.3402 L2143.75 51.84 L2136.4 51.84 L2125.58 8.64 Z" fill="#000000" fill-rule="nonzero" fill-opacity="1" /><path clip-path="url(#clip970)" d="M2186.95 6.87496 L2191.58 6.87496 Q2195.92 13.7036 2198.06 20.2429 Q2200.23 26.7823 2200.23 33.2348 Q2200.23 39.7162 2198.06 46.2845 Q2195.92 52.8527 2191.58 59.6525 L2186.95 59.6525 Q2190.8 53.0263 2192.68 46.487 Q2194.59 39.9188 2194.59 33.2348 Q2194.59 26.5508 2192.68 20.0404 Q2190.8 13.53 2186.95 6.87496 Z" fill="#000000" fill-rule="nonzero" fill-opacity="1" /><path clip-path="url(#clip970)" d="M2210.36 39.0507 L2210.36 19.4328 L2215.68 19.4328 L2215.68 38.8482 Q2215.68 43.4488 2217.48 45.7636 Q2219.27 48.0495 2222.86 48.0495 Q2227.17 48.0495 2229.66 45.3007 Q2232.18 42.5519 2232.18 37.8065 L2232.18 19.4328 L2237.5 19.4328 L2237.5 51.84 L2232.18 51.84 L2232.18 46.8632 Q2230.24 49.8145 2227.66 51.2613 Q2225.12 52.6791 2221.73 52.6791 Q2216.15 52.6791 2213.25 49.2069 Q2210.36 45.7347 2210.36 39.0507 M2223.76 18.6515 L2223.76 18.6515 Z" fill="#000000" fill-rule="nonzero" fill-opacity="1" /><path clip-path="url(#clip970)" d="M2253.5 4.44442 L2261.66 15.2661 L2257.23 15.2661 L2247.8 4.44442 L2253.5 4.44442 Z" fill="#000000" fill-rule="nonzero" fill-opacity="1" /><path clip-path="url(#clip970)" d="M2320.25 20.677 L2320.25 25.6538 Q2318 24.4096 2315.71 23.802 Q2313.45 23.1654 2311.14 23.1654 Q2305.96 23.1654 2303.1 26.464 Q2300.23 29.7336 2300.23 35.6653 Q2300.23 41.597 2303.1 44.8956 Q2305.96 48.1653 2311.14 48.1653 Q2313.45 48.1653 2315.71 47.5576 Q2318 46.921 2320.25 45.6768 L2320.25 50.5958 Q2318.03 51.6375 2315.62 52.1583 Q2313.25 52.6791 2310.56 52.6791 Q2303.24 52.6791 2298.93 48.0784 Q2294.62 43.4778 2294.62 35.6653 Q2294.62 27.7371 2298.96 23.1943 Q2303.33 18.6515 2310.91 18.6515 Q2313.37 18.6515 2315.71 19.1724 Q2318.05 19.6642 2320.25 20.677 Z" fill="#000000" fill-rule="nonzero" fill-opacity="1" /><path clip-path="url(#clip970)" d="M2342.07 23.1654 Q2337.79 23.1654 2335.3 26.5218 Q2332.81 29.8494 2332.81 35.6653 Q2332.81 41.4813 2335.27 44.8377 Q2337.76 48.1653 2342.07 48.1653 Q2346.32 48.1653 2348.81 44.8088 Q2351.3 41.4523 2351.3 35.6653 Q2351.3 29.9072 2348.81 26.5508 Q2346.32 23.1654 2342.07 23.1654 M2342.07 18.6515 Q2349.02 18.6515 2352.98 23.1654 Q2356.94 27.6792 2356.94 35.6653 Q2356.94 43.6225 2352.98 48.1653 Q2349.02 52.6791 2342.07 52.6791 Q2335.1 52.6791 2331.13 48.1653 Q2327.2 43.6225 2327.2 35.6653 Q2327.2 27.6792 2331.13 23.1654 Q2335.1 18.6515 2342.07 18.6515 Z" fill="#000000" fill-rule="nonzero" fill-opacity="1" /><path clip-path="url(#clip970)" d="M2391 25.6538 Q2393 22.0659 2395.77 20.3587 Q2398.55 18.6515 2402.31 18.6515 Q2407.38 18.6515 2410.13 22.2105 Q2412.88 25.7406 2412.88 32.2799 L2412.88 51.84 L2407.52 51.84 L2407.52 32.4535 Q2407.52 27.795 2405.87 25.5381 Q2404.22 23.2811 2400.84 23.2811 Q2396.7 23.2811 2394.3 26.03 Q2391.9 28.7788 2391.9 33.5241 L2391.9 51.84 L2386.54 51.84 L2386.54 32.4535 Q2386.54 27.7661 2384.89 25.5381 Q2383.25 23.2811 2379.8 23.2811 Q2375.72 23.2811 2373.32 26.0589 Q2370.92 28.8077 2370.92 33.5241 L2370.92 51.84 L2365.57 51.84 L2365.57 19.4328 L2370.92 19.4328 L2370.92 24.4675 Q2372.74 21.4872 2375.29 20.0693 Q2377.83 18.6515 2381.34 18.6515 Q2384.87 18.6515 2387.33 20.4455 Q2389.81 22.2395 2391 25.6538 Z" fill="#000000" fill-rule="nonzero" fill-opacity="1" /><path clip-path="url(#clip970)" d="M2447.37 4.44442 L2455.53 15.2661 L2451.1 15.2661 L2441.67 4.44442 L2447.37 4.44442 Z" fill="#000000" fill-rule="nonzero" fill-opacity="1" /><path clip-path="url(#clip970)" d="M2471.41 39.0507 L2471.41 19.4328 L2476.73 19.4328 L2476.73 38.8482 Q2476.73 43.4488 2478.53 45.7636 Q2480.32 48.0495 2483.91 48.0495 Q2488.22 48.0495 2490.71 45.3007 Q2493.23 42.5519 2493.23 37.8065 L2493.23 19.4328 L2498.55 19.4328 L2498.55 51.84 L2493.23 51.84 L2493.23 46.8632 Q2491.29 49.8145 2488.71 51.2613 Q2486.17 52.6791 2482.78 52.6791 Q2477.2 52.6791 2474.3 49.2069 Q2471.41 45.7347 2471.41 39.0507 M2484.81 18.6515 L2484.81 18.6515 Z" fill="#000000" fill-rule="nonzero" fill-opacity="1" /><path clip-path="url(#clip970)" d="M2522.31 6.87496 Q2518.43 13.53 2516.55 20.0404 Q2514.67 26.5508 2514.67 33.2348 Q2514.67 39.9188 2516.55 46.487 Q2518.46 53.0263 2522.31 59.6525 L2517.68 59.6525 Q2513.34 52.8527 2511.17 46.2845 Q2509.03 39.7162 2509.03 33.2348 Q2509.03 26.7823 2511.17 20.2429 Q2513.31 13.7036 2517.68 6.87496 L2522.31 6.87496 Z" fill="#000000" fill-rule="nonzero" fill-opacity="1" /><path clip-path="url(#clip970)" d="M2545.89 12.4884 Q2541.38 12.4884 2539.09 16.9444 Q2536.83 21.3714 2536.83 30.2834 Q2536.83 39.1665 2539.09 43.6225 Q2541.38 48.0495 2545.89 48.0495 Q2550.43 48.0495 2552.69 43.6225 Q2554.97 39.1665 2554.97 30.2834 Q2554.97 21.3714 2552.69 16.9444 Q2550.43 12.4884 2545.89 12.4884 M2545.89 7.85875 Q2553.15 7.85875 2556.97 13.6168 Q2560.82 19.346 2560.82 30.2834 Q2560.82 41.1919 2556.97 46.95 Q2553.15 52.6791 2545.89 52.6791 Q2538.63 52.6791 2534.78 46.95 Q2530.96 41.1919 2530.96 30.2834 Q2530.96 19.346 2534.78 13.6168 Q2538.63 7.85875 2545.89 7.85875 Z" fill="#000000" fill-rule="nonzero" fill-opacity="1" /><path clip-path="url(#clip970)" d="M2569.5 6.87496 L2574.13 6.87496 Q2578.47 13.7036 2580.61 20.2429 Q2582.78 26.7823 2582.78 33.2348 Q2582.78 39.7162 2580.61 46.2845 Q2578.47 52.8527 2574.13 59.6525 L2569.5 59.6525 Q2573.35 53.0263 2575.23 46.487 Q2577.14 39.9188 2577.14 33.2348 Q2577.14 26.5508 2575.23 20.0404 Q2573.35 13.53 2569.5 6.87496 Z" fill="#000000" fill-rule="nonzero" fill-opacity="1" /><path clip-path="url(#clip970)" d="M2612.99 24.9304 L2650.08 24.9304 L2650.08 29.7915 L2612.99 29.7915 L2612.99 24.9304 M2612.99 36.7359 L2650.08 36.7359 L2650.08 41.6549 L2612.99 41.6549 L2612.99 36.7359 Z" fill="#000000" fill-rule="nonzero" fill-opacity="1" /><path clip-path="url(#clip970)" d="M2682.55 46.921 L2692.1 46.921 L2692.1 13.964 L2681.71 16.0474 L2681.71 10.7233 L2692.04 8.64 L2697.89 8.64 L2697.89 46.921 L2707.43 46.921 L2707.43 51.84 L2682.55 51.84 L2682.55 46.921 Z" fill="#000000" fill-rule="nonzero" fill-opacity="1" /><path clip-path="url(#clip970)" d="M2719.24 44.4905 L2725.34 44.4905 L2725.34 51.84 L2719.24 51.84 L2719.24 44.4905 Z" fill="#000000" fill-rule="nonzero" fill-opacity="1" /><path clip-path="url(#clip970)" d="M2750.58 12.4884 Q2746.06 12.4884 2743.78 16.9444 Q2741.52 21.3714 2741.52 30.2834 Q2741.52 39.1665 2743.78 43.6225 Q2746.06 48.0495 2750.58 48.0495 Q2755.12 48.0495 2757.38 43.6225 Q2759.66 39.1665 2759.66 30.2834 Q2759.66 21.3714 2757.38 16.9444 Q2755.12 12.4884 2750.58 12.4884 M2750.58 7.85875 Q2757.84 7.85875 2761.66 13.6168 Q2765.51 19.346 2765.51 30.2834 Q2765.51 41.1919 2761.66 46.95 Q2757.84 52.6791 2750.58 52.6791 Q2743.31 52.6791 2739.46 46.95 Q2735.65 41.1919 2735.65 30.2834 Q2735.65 19.346 2739.46 13.6168 Q2743.31 7.85875 2750.58 7.85875 Z" fill="#000000" fill-rule="nonzero" fill-opacity="1" /><path clip-path="url(#clip970)" d="M2780.06 4.44442 L2788.22 15.2661 L2783.79 15.2661 L2774.36 4.44442 L2780.06 4.44442 Z" fill="#000000" fill-rule="nonzero" fill-opacity="1" /><polyline clip-path="url(#clip972)" style="stroke:#009af9; stroke-linecap:round; stroke-linejoin:round; stroke-width:4; stroke-opacity:1; fill:none" points="345.254,199.762 350.705,199.762 356.157,202.449 361.608,201.07 367.06,197.127 372.511,191.397 377.963,187.648 383.414,184.804 388.866,179.532 394.317,173.818 399.769,171.005 405.22,170.837 410.671,173.061 416.123,177.587 421.574,182.897 427.026,187.486 432.477,194.059 437.929,198.091 443.38,201.238 448.832,205.435 454.283,209.762 459.735,213.156 465.186,216.301 470.638,219.528 476.089,220.38 481.54,220.477 486.992,221.911 492.443,225.342 497.895,228.748 503.346,230.408 508.798,232.231 514.249,236.622 519.701,241.183 525.152,246.579 530.604,251.59 536.055,254.453 541.506,257.977 546.958,261.698 552.409,263.538 557.861,265.299 563.312,268.105 568.764,272.542 574.215,278.939 579.667,286.007 585.118,292.597 590.57,298.987 596.021,304.8 601.473,312.055 606.924,317.421 612.375,321.316 617.827,325.304 623.278,330.398 628.73,335.153 634.181,340.359 639.633,342.982 645.084,346.59 650.536,350.799 655.987,354.288 661.439,358.214 666.89,365.298 672.342,370.754 677.793,377.146 683.244,384.557 688.696,393.574 694.147,402.042 699.599,413.792 705.05,426.427 710.502,438.337 715.953,450.635 721.405,463.181 726.856,476.324 732.308,489.99 737.759,502.188 743.211,516.089 748.662,529.881 754.113,544.024 759.565,559.356 765.016,574.82 770.468,590.429 775.919,605.856 781.371,621.241 786.822,636.757 792.274,652.081 797.725,667.269 803.177,682.35 808.628,697.22 814.08,711.976 819.531,726.525 824.982,741.017 830.434,755.321 835.885,769.449 841.337,783.229 846.788,796.533 852.24,808.654 857.691,820.325 863.143,830.65 868.594,842.129 874.046,853.169 879.497,863.983 884.948,873.674 890.4,883.308 895.851,892.883 901.303,902.857 906.754,911.913 912.206,921.948 917.657,931.456 923.109,940.001 928.56,949.367 934.012,957.176 939.463,964.416 944.915,971.444 950.366,979.402 955.817,986.991 961.269,994.625 966.72,1001.72 972.172,1007.61 977.623,1012.62 983.075,1018.14 988.526,1023.79 993.978,1030.42 999.429,1037.28 1004.88,1044.01 1010.33,1050.9 1015.78,1058.88 1021.23,1067.38 1026.69,1075.86 1032.14,1084.72 1037.59,1093.45 1043.04,1101.88 1048.49,1110.66 1053.94,1119.01 1059.4,1127.53 1064.85,1136.28 1070.3,1145.05 1075.75,1152.91 1081.2,1160.38 1086.65,1168.47 1092.1,1176.58 1097.56,1185.26 1103.01,1193.71 1108.46,1202.28 1113.91,1210.75 1119.36,1219.02 1124.81,1227.96 1130.26,1236.66 1135.72,1244.87 1141.17,1253.26 1146.62,1261.56 1152.07,1270.32 1157.52,1279.12 1162.97,1287.81 1168.42,1296.04 1173.88,1303.72 1179.33,1311.56 1184.78,1318.93 1190.23,1326.48 1195.68,1333.57 1201.13,1340.76 1206.58,1347.85 1212.04,1355.69 1217.49,1361.98 1222.94,1368.41 1228.39,1374.63 1233.84,1381.57 1239.29,1388.04 1244.74,1394.73 1250.2,1401.37 1255.65,1407.72 1261.1,1414.54 1266.55,1421.76 1272,1428.83 1277.45,1435.89 1282.91,1443.14 1288.36,1450.32 1293.81,1457.26 1299.26,1464.27 1304.71,1471.25 1310.16,1478.19 1315.61,1485.17 1321.07,1492.04 1326.52,1498.85 1331.97,1505.54 1337.42,1512.24 1342.87,1518.81 1348.32,1525.38 1353.77,1531.89 1359.23,1538.34 1364.68,1544.66 1370.13,1550.92 1375.58,1557.15 1381.03,1563.26 1386.48,1569.39 1391.93,1575.46 1397.39,1581.46 1402.84,1587.41 1408.29,1593.3 1413.74,1599.07 1419.19,1604.79 1424.64,1610.47 1430.09,1616.07 1435.55,1621.55 1441,1626.85 1446.45,1632.28 1451.9,1637.68 1457.35,1642.99 1462.8,1648.19 1468.25,1653.34 1473.71,1658.28 1479.16,1663.15 1484.61,1668.21 1490.06,1673.29 1495.51,1678.32 1500.96,1683.25 1506.41,1688.02 1511.87,1692.7 1517.32,1697.45 1522.77,1702.22 1528.22,1706.95 1533.67,1711.64 1539.12,1716.28 1544.58,1720.87 1550.03,1725.38 1555.48,1729.79 1560.93,1734.13 1566.38,1738.27 1571.83,1742.45 1577.28,1746.45 1582.74,1750.24 1588.19,1754.07 1593.64,1757.9 1599.09,1761.88 1604.54,1765.9 1609.99,1769.91 1615.44,1773.84 1620.9,1777.7 1626.35,1781.56 1631.8,1785.29 1637.25,1788.89 1642.7,1792.08 1648.15,1795.64 1653.6,1799.37 1659.06,1803.11 1664.51,1806.76 1669.96,1810.4 1675.41,1814.06 1680.86,1817.63 1686.31,1821.06 1691.76,1824.58 1697.22,1828.09 1702.67,1831.57 1708.12,1834.96 1713.57,1838.33 1719.02,1841.4 1724.47,1844.58 1729.92,1847.82 1735.38,1851.03 1740.83,1854.19 1746.28,1857.14 1751.73,1860.1 1757.18,1863.07 1762.63,1866.16 1768.09,1869.24 1773.54,1872.3 1778.99,1875.34 1784.44,1878.26 1789.89,1881.1 1795.34,1883.98 1800.79,1886.86 1806.25,1889.67 1811.7,1892.52 1817.15,1895.31 1822.6,1898.08 1828.05,1900.84 1833.5,1903.53 1838.95,1906.17 1844.41,1908.82 1849.86,1911.38 1855.31,1913.95 1860.76,1916.54 1866.21,1919.09 1871.66,1921.55 1877.11,1923.77 1882.57,1926.12 1888.02,1928.54 1893.47,1930.96 1898.92,1933.35 1904.37,1935.55 1909.82,1937.81 1915.27,1940.17 1920.73,1942.45 1926.18,1944.66 1931.63,1946.81 1937.08,1948.96 1942.53,1950.98 1947.98,1952.99 1953.43,1954.92 1958.89,1956.85 1964.34,1958.78 1969.79,1960.81 1975.24,1962.84 1980.69,1964.74 1986.14,1966.42 1991.59,1968.22 1997.05,1969.93 2002.5,1971.55 2007.95,1973.11 2013.4,1974.77 2018.85,1976.34 2024.3,1978.07 2029.76,1979.86 2035.21,1981.68 2040.66,1983.61 2046.11,1985.51 2051.56,1987.41 2057.01,1989.29 2062.46,1991.16 2067.92,1993.01 2073.37,1994.84 2078.82,1996.64 2084.27,1998.44 2089.72,2000.21 2095.17,2001.97 2100.62,2003.7 2106.08,2005.42 2111.53,2007.13 2116.98,2008.8 2122.43,2010.44 2127.88,2012.06 2133.33,2013.67 2138.78,2015.27 2144.24,2016.88 2149.69,2018.48 2155.14,2020.05 2160.59,2021.61 2166.04,2023.11 2171.49,2024.62 2176.94,2026.12 2182.4,2027.61 2187.85,2029.09 2193.3,2030.57 2198.75,2032.03 2204.2,2033.47 2209.65,2034.9 2215.1,2036.31 2220.56,2037.72 2226.01,2039.1 2231.46,2040.48 2236.91,2041.83 2242.36,2043.18 2247.81,2044.51 2253.26,2045.83 2258.72,2047.13 2264.17,2048.41 2269.62,2049.67 2275.07,2050.94 2280.52,2052.15 2285.97,2053.36 2291.43,2054.53 2296.88,2055.69 2302.33,2056.86 2307.78,2058.03 2313.23,2059.22 2318.68,2060.38 2324.13,2061.47 2329.59,2062.55 2335.04,2063.66 2340.49,2064.74 2345.94,2065.8 2351.39,2066.89 2356.84,2067.99 2362.29,2069.07 2367.75,2070.15 2373.2,2071.21 2378.65,2072.26 2384.1,2073.3 2389.55,2074.33 2395,2075.34 2400.45,2076.35 2405.91,2077.34 2411.36,2078.27 2416.81,2079.18 2422.26,2080.09 2427.71,2081.02 2433.16,2081.95 2438.61,2082.88 2444.07,2083.81 2449.52,2084.74 2454.97,2085.65 2460.42,2086.56 2465.87,2087.45 2471.32,2088.34 2476.77,2089.21 2482.23,2090.05 2487.68,2090.89 2493.13,2091.69 2498.58,2092.5 2504.03,2093.31 2509.48,2094.11 2514.94,2094.9 2520.39,2095.67 2525.84,2096.42 2531.29,2097.15 2536.74,2097.92 2542.19,2098.71 2547.64,2099.48 2553.1,2100.25 2558.55,2101.01 2564,2101.76 2569.45,2102.5 2574.9,2103.22 2580.35,2103.94 2585.8,2104.65 2591.26,2105.35 2596.71,2106.04 2602.16,2106.71 2607.61,2107.39 2613.06,2108.08 2618.51,2108.76 2623.96,2109.42 2629.42,2110.09 2634.87,2110.76 2640.32,2111.41 2645.77,2112.06 2651.22,2112.7 2656.67,2113.33 2662.12,2113.96 2667.58,2114.58 2673.03,2115.17 2678.48,2115.75 2683.93,2116.33 2689.38,2116.88 2694.83,2117.46 2700.28,2118.03 2705.74,2118.57 2711.19,2119.1 2716.64,2119.62 2722.09,2120.16 2727.54,2120.68 2732.99,2121.19 2738.44,2121.71 2743.9,2122.24 2749.35,2122.77 2754.8,2123.29 2760.25,2123.82 2765.7,2124.34 2771.15,2124.85 2776.61,2125.37 2782.06,2125.88 2787.51,2126.37 2792.96,2126.86 2798.41,2127.34 2803.86,2127.83 2809.31,2128.31 2814.77,2128.79 2820.22,2129.25 2825.67,2129.69 2831.12,2130.13 2836.57,2130.57 2842.02,2131 2847.47,2131.45 2852.93,2131.87 2858.38,2132.3 2863.83,2132.71 2869.28,2133.12 2874.73,2133.52 2880.18,2133.94 2885.63,2134.34 2891.09,2134.74 2896.54,2135.14 2901.99,2135.53 2907.44,2135.91 2912.89,2136.31 2918.34,2136.7 2923.79,2137.08 2929.25,2137.46 2934.7,2137.83 2940.15,2138.17 2945.6,2138.53 2951.05,2138.89 2956.5,2139.23 2961.95,2139.57 2967.41,2139.9 2972.86,2140.22 2978.31,2140.57 2983.76,2140.92 2989.21,2141.26 2994.66,2141.58 3000.12,2141.92 3005.57,2142.23 3011.02,2142.55 3016.47,2142.86 3021.92,2143.17 3027.37,2143.45 3032.82,2143.74 3038.28,2144.03 3043.73,2144.3 3049.18,2144.57 3054.63,2144.84 3060.08,2145.11 3065.53,2145.4 3070.98,2145.67 "/>
</svg>
