<?xml version="1.0" encoding="utf-8"?>
<svg xmlns="http://www.w3.org/2000/svg" xmlns:xlink="http://www.w3.org/1999/xlink" width="800" height="600" viewBox="0 0 3200 2400">
<defs>
  <clipPath id="clip710">
    <rect x="0" y="0" width="3200" height="2400"/>
  </clipPath>
</defs>
<path clip-path="url(#clip710)" d="M0 2400 L3200 2400 L3200 0 L0 0  Z" fill="#ffffff" fill-rule="evenodd" fill-opacity="1"/>
<defs>
  <clipPath id="clip711">
    <rect x="640" y="0" width="2241" height="2241"/>
  </clipPath>
</defs>
<path clip-path="url(#clip710)" d="M231.723 2204.92 L3152.76 2204.92 L3152.76 111.592 L231.723 111.592  Z" fill="#eaeaea" fill-rule="evenodd" fill-opacity="1"/>
<defs>
  <clipPath id="clip712">
    <rect x="231" y="111" width="2922" height="2094"/>
  </clipPath>
</defs>
<polyline clip-path="url(#clip712)" style="stroke:#ffffff; stroke-linecap:round; stroke-linejoin:round; stroke-width:4; stroke-opacity:1; fill:none" points="314.394,2204.92 314.394,111.592 "/>
<polyline clip-path="url(#clip712)" style="stroke:#ffffff; stroke-linecap:round; stroke-linejoin:round; stroke-width:4; stroke-opacity:1; fill:none" points="865.532,2204.92 865.532,111.592 "/>
<polyline clip-path="url(#clip712)" style="stroke:#ffffff; stroke-linecap:round; stroke-linejoin:round; stroke-width:4; stroke-opacity:1; fill:none" points="1416.67,2204.92 1416.67,111.592 "/>
<polyline clip-path="url(#clip712)" style="stroke:#ffffff; stroke-linecap:round; stroke-linejoin:round; stroke-width:4; stroke-opacity:1; fill:none" points="1967.81,2204.92 1967.81,111.592 "/>
<polyline clip-path="url(#clip712)" style="stroke:#ffffff; stroke-linecap:round; stroke-linejoin:round; stroke-width:4; stroke-opacity:1; fill:none" points="2518.95,2204.92 2518.95,111.592 "/>
<polyline clip-path="url(#clip712)" style="stroke:#ffffff; stroke-linecap:round; stroke-linejoin:round; stroke-width:4; stroke-opacity:1; fill:none" points="3070.09,2204.92 3070.09,111.592 "/>
<polyline clip-path="url(#clip712)" style="stroke:#ffffff; stroke-linecap:round; stroke-linejoin:round; stroke-width:2; stroke-opacity:1; fill:none" points="589.963,2204.92 589.963,111.592 "/>
<polyline clip-path="url(#clip712)" style="stroke:#ffffff; stroke-linecap:round; stroke-linejoin:round; stroke-width:2; stroke-opacity:1; fill:none" points="1141.1,2204.92 1141.1,111.592 "/>
<polyline clip-path="url(#clip712)" style="stroke:#ffffff; stroke-linecap:round; stroke-linejoin:round; stroke-width:2; stroke-opacity:1; fill:none" points="1692.24,2204.92 1692.24,111.592 "/>
<polyline clip-path="url(#clip712)" style="stroke:#ffffff; stroke-linecap:round; stroke-linejoin:round; stroke-width:2; stroke-opacity:1; fill:none" points="2243.38,2204.92 2243.38,111.592 "/>
<polyline clip-path="url(#clip712)" style="stroke:#ffffff; stroke-linecap:round; stroke-linejoin:round; stroke-width:2; stroke-opacity:1; fill:none" points="2794.52,2204.92 2794.52,111.592 "/>
<polyline clip-path="url(#clip710)" style="stroke:#ffffff; stroke-linecap:round; stroke-linejoin:round; stroke-width:4; stroke-opacity:1; fill:none" points="231.723,2204.92 3152.76,2204.92 "/>
<polyline clip-path="url(#clip710)" style="stroke:#333333; stroke-linecap:round; stroke-linejoin:round; stroke-width:4; stroke-opacity:1; fill:none" points="314.394,2204.92 314.394,2223.82 "/>
<polyline clip-path="url(#clip710)" style="stroke:#333333; stroke-linecap:round; stroke-linejoin:round; stroke-width:4; stroke-opacity:1; fill:none" points="865.532,2204.92 865.532,2223.82 "/>
<polyline clip-path="url(#clip710)" style="stroke:#333333; stroke-linecap:round; stroke-linejoin:round; stroke-width:4; stroke-opacity:1; fill:none" points="1416.67,2204.92 1416.67,2223.82 "/>
<polyline clip-path="url(#clip710)" style="stroke:#333333; stroke-linecap:round; stroke-linejoin:round; stroke-width:4; stroke-opacity:1; fill:none" points="1967.81,2204.92 1967.81,2223.82 "/>
<polyline clip-path="url(#clip710)" style="stroke:#333333; stroke-linecap:round; stroke-linejoin:round; stroke-width:4; stroke-opacity:1; fill:none" points="2518.95,2204.92 2518.95,2223.82 "/>
<polyline clip-path="url(#clip710)" style="stroke:#333333; stroke-linecap:round; stroke-linejoin:round; stroke-width:4; stroke-opacity:1; fill:none" points="3070.09,2204.92 3070.09,2223.82 "/>
<polyline clip-path="url(#clip710)" style="stroke:#333333; stroke-linecap:round; stroke-linejoin:round; stroke-width:4; stroke-opacity:1; fill:none" points="589.963,2204.92 589.963,2214.37 "/>
<polyline clip-path="url(#clip710)" style="stroke:#333333; stroke-linecap:round; stroke-linejoin:round; stroke-width:4; stroke-opacity:1; fill:none" points="1141.1,2204.92 1141.1,2214.37 "/>
<polyline clip-path="url(#clip710)" style="stroke:#333333; stroke-linecap:round; stroke-linejoin:round; stroke-width:4; stroke-opacity:1; fill:none" points="1692.24,2204.92 1692.24,2214.37 "/>
<polyline clip-path="url(#clip710)" style="stroke:#333333; stroke-linecap:round; stroke-linejoin:round; stroke-width:4; stroke-opacity:1; fill:none" points="2243.38,2204.92 2243.38,2214.37 "/>
<polyline clip-path="url(#clip710)" style="stroke:#333333; stroke-linecap:round; stroke-linejoin:round; stroke-width:4; stroke-opacity:1; fill:none" points="2794.52,2204.92 2794.52,2214.37 "/>
<path clip-path="url(#clip710)" d="M314.394 2255.04 Q310.783 2255.04 308.954 2258.6 Q307.148 2262.14 307.148 2269.27 Q307.148 2276.38 308.954 2279.95 Q310.783 2283.49 314.394 2283.49 Q318.028 2283.49 319.833 2279.95 Q321.662 2276.38 321.662 2269.27 Q321.662 2262.14 319.833 2258.6 Q318.028 2255.04 314.394 2255.04 M314.394 2251.33 Q320.204 2251.33 323.259 2255.94 Q326.338 2260.52 326.338 2269.27 Q326.338 2278 323.259 2282.61 Q320.204 2287.19 314.394 2287.19 Q308.584 2287.19 305.505 2282.61 Q302.449 2278 302.449 2269.27 Q302.449 2260.52 305.505 2255.94 Q308.584 2251.33 314.394 2251.33 Z" fill="#4c4c4c" fill-rule="nonzero" fill-opacity="1" /><path clip-path="url(#clip710)" d="M855.914 2282.58 L863.553 2282.58 L863.553 2256.22 L855.243 2257.89 L855.243 2253.63 L863.507 2251.96 L868.182 2251.96 L868.182 2282.58 L875.821 2282.58 L875.821 2286.52 L855.914 2286.52 L855.914 2282.58 Z" fill="#4c4c4c" fill-rule="nonzero" fill-opacity="1" /><path clip-path="url(#clip710)" d="M1411.32 2282.58 L1427.64 2282.58 L1427.64 2286.52 L1405.7 2286.52 L1405.7 2282.58 Q1408.36 2279.83 1412.94 2275.2 Q1417.55 2270.55 1418.73 2269.21 Q1420.98 2266.68 1421.86 2264.95 Q1422.76 2263.19 1422.76 2261.5 Q1422.76 2258.74 1420.81 2257.01 Q1418.89 2255.27 1415.79 2255.27 Q1413.59 2255.27 1411.14 2256.03 Q1408.71 2256.8 1405.93 2258.35 L1405.93 2253.63 Q1408.75 2252.49 1411.21 2251.91 Q1413.66 2251.33 1415.7 2251.33 Q1421.07 2251.33 1424.26 2254.02 Q1427.46 2256.71 1427.46 2261.2 Q1427.46 2263.33 1426.65 2265.25 Q1425.86 2267.14 1423.75 2269.74 Q1423.17 2270.41 1420.07 2273.63 Q1416.97 2276.82 1411.32 2282.58 Z" fill="#4c4c4c" fill-rule="nonzero" fill-opacity="1" /><path clip-path="url(#clip710)" d="M1972.06 2267.89 Q1975.41 2268.6 1977.29 2270.87 Q1979.19 2273.14 1979.19 2276.47 Q1979.19 2281.59 1975.67 2284.39 Q1972.15 2287.19 1965.67 2287.19 Q1963.49 2287.19 1961.18 2286.75 Q1958.89 2286.33 1956.43 2285.48 L1956.43 2280.96 Q1958.38 2282.1 1960.69 2282.68 Q1963.01 2283.26 1965.53 2283.26 Q1969.93 2283.26 1972.22 2281.52 Q1974.53 2279.78 1974.53 2276.47 Q1974.53 2273.42 1972.38 2271.71 Q1970.25 2269.97 1966.43 2269.97 L1962.4 2269.97 L1962.4 2266.13 L1966.62 2266.13 Q1970.07 2266.13 1971.89 2264.76 Q1973.72 2263.37 1973.72 2260.78 Q1973.72 2258.12 1971.82 2256.71 Q1969.95 2255.27 1966.43 2255.27 Q1964.51 2255.27 1962.31 2255.69 Q1960.11 2256.1 1957.47 2256.98 L1957.47 2252.82 Q1960.14 2252.08 1962.45 2251.71 Q1964.79 2251.33 1966.85 2251.33 Q1972.17 2251.33 1975.27 2253.77 Q1978.38 2256.17 1978.38 2260.29 Q1978.38 2263.16 1976.73 2265.15 Q1975.09 2267.12 1972.06 2267.89 Z" fill="#4c4c4c" fill-rule="nonzero" fill-opacity="1" /><path clip-path="url(#clip710)" d="M2521.96 2256.03 L2510.15 2274.48 L2521.96 2274.48 L2521.96 2256.03 M2520.73 2251.96 L2526.61 2251.96 L2526.61 2274.48 L2531.54 2274.48 L2531.54 2278.37 L2526.61 2278.37 L2526.61 2286.52 L2521.96 2286.52 L2521.96 2278.37 L2506.35 2278.37 L2506.35 2273.86 L2520.73 2251.96 Z" fill="#4c4c4c" fill-rule="nonzero" fill-opacity="1" /><path clip-path="url(#clip710)" d="M3060.36 2251.96 L3078.72 2251.96 L3078.72 2255.9 L3064.65 2255.9 L3064.65 2264.37 Q3065.66 2264.02 3066.68 2263.86 Q3067.7 2263.67 3068.72 2263.67 Q3074.51 2263.67 3077.89 2266.84 Q3081.27 2270.02 3081.27 2275.43 Q3081.27 2281.01 3077.79 2284.11 Q3074.32 2287.19 3068 2287.19 Q3065.83 2287.19 3063.56 2286.82 Q3061.31 2286.45 3058.9 2285.71 L3058.9 2281.01 Q3060.99 2282.14 3063.21 2282.7 Q3065.43 2283.26 3067.91 2283.26 Q3071.91 2283.26 3074.25 2281.15 Q3076.59 2279.04 3076.59 2275.43 Q3076.59 2271.82 3074.25 2269.71 Q3071.91 2267.61 3067.91 2267.61 Q3066.03 2267.61 3064.16 2268.02 Q3062.31 2268.44 3060.36 2269.32 L3060.36 2251.96 Z" fill="#4c4c4c" fill-rule="nonzero" fill-opacity="1" /><path clip-path="url(#clip710)" d="M1691.3 2316.01 L1691.3 2326.14 L1703.36 2326.14 L1703.36 2330.69 L1691.3 2330.69 L1691.3 2350.04 Q1691.3 2354.4 1692.48 2355.64 Q1693.69 2356.88 1697.35 2356.88 L1703.36 2356.88 L1703.36 2361.78 L1697.35 2361.78 Q1690.57 2361.78 1687.99 2359.27 Q1685.41 2356.72 1685.41 2350.04 L1685.41 2330.69 L1681.12 2330.69 L1681.12 2326.14 L1685.41 2326.14 L1685.41 2316.01 L1691.3 2316.01 Z" fill="#000000" fill-rule="nonzero" fill-opacity="1" /><polyline clip-path="url(#clip712)" style="stroke:#ffffff; stroke-linecap:round; stroke-linejoin:round; stroke-width:4; stroke-opacity:1; fill:none" points="231.723,2145.67 3152.76,2145.67 "/>
<polyline clip-path="url(#clip712)" style="stroke:#ffffff; stroke-linecap:round; stroke-linejoin:round; stroke-width:4; stroke-opacity:1; fill:none" points="231.723,1825.5 3152.76,1825.5 "/>
<polyline clip-path="url(#clip712)" style="stroke:#ffffff; stroke-linecap:round; stroke-linejoin:round; stroke-width:4; stroke-opacity:1; fill:none" points="231.723,1505.32 3152.76,1505.32 "/>
<polyline clip-path="url(#clip712)" style="stroke:#ffffff; stroke-linecap:round; stroke-linejoin:round; stroke-width:4; stroke-opacity:1; fill:none" points="231.723,1185.14 3152.76,1185.14 "/>
<polyline clip-path="url(#clip712)" style="stroke:#ffffff; stroke-linecap:round; stroke-linejoin:round; stroke-width:4; stroke-opacity:1; fill:none" points="231.723,864.967 3152.76,864.967 "/>
<polyline clip-path="url(#clip712)" style="stroke:#ffffff; stroke-linecap:round; stroke-linejoin:round; stroke-width:4; stroke-opacity:1; fill:none" points="231.723,544.79 3152.76,544.79 "/>
<polyline clip-path="url(#clip712)" style="stroke:#ffffff; stroke-linecap:round; stroke-linejoin:round; stroke-width:4; stroke-opacity:1; fill:none" points="231.723,224.613 3152.76,224.613 "/>
<polyline clip-path="url(#clip712)" style="stroke:#ffffff; stroke-linecap:round; stroke-linejoin:round; stroke-width:2; stroke-opacity:1; fill:none" points="231.723,1985.59 3152.76,1985.59 "/>
<polyline clip-path="url(#clip712)" style="stroke:#ffffff; stroke-linecap:round; stroke-linejoin:round; stroke-width:2; stroke-opacity:1; fill:none" points="231.723,1665.41 3152.76,1665.41 "/>
<polyline clip-path="url(#clip712)" style="stroke:#ffffff; stroke-linecap:round; stroke-linejoin:round; stroke-width:2; stroke-opacity:1; fill:none" points="231.723,1345.23 3152.76,1345.23 "/>
<polyline clip-path="url(#clip712)" style="stroke:#ffffff; stroke-linecap:round; stroke-linejoin:round; stroke-width:2; stroke-opacity:1; fill:none" points="231.723,1025.06 3152.76,1025.06 "/>
<polyline clip-path="url(#clip712)" style="stroke:#ffffff; stroke-linecap:round; stroke-linejoin:round; stroke-width:2; stroke-opacity:1; fill:none" points="231.723,704.879 3152.76,704.879 "/>
<polyline clip-path="url(#clip712)" style="stroke:#ffffff; stroke-linecap:round; stroke-linejoin:round; stroke-width:2; stroke-opacity:1; fill:none" points="231.723,384.702 3152.76,384.702 "/>
<polyline clip-path="url(#clip710)" style="stroke:#ffffff; stroke-linecap:round; stroke-linejoin:round; stroke-width:4; stroke-opacity:1; fill:none" points="231.723,2204.92 231.723,111.592 "/>
<polyline clip-path="url(#clip710)" style="stroke:#333333; stroke-linecap:round; stroke-linejoin:round; stroke-width:4; stroke-opacity:1; fill:none" points="231.723,2145.67 212.825,2145.67 "/>
<polyline clip-path="url(#clip710)" style="stroke:#333333; stroke-linecap:round; stroke-linejoin:round; stroke-width:4; stroke-opacity:1; fill:none" points="231.723,1825.5 212.825,1825.5 "/>
<polyline clip-path="url(#clip710)" style="stroke:#333333; stroke-linecap:round; stroke-linejoin:round; stroke-width:4; stroke-opacity:1; fill:none" points="231.723,1505.32 212.825,1505.32 "/>
<polyline clip-path="url(#clip710)" style="stroke:#333333; stroke-linecap:round; stroke-linejoin:round; stroke-width:4; stroke-opacity:1; fill:none" points="231.723,1185.14 212.825,1185.14 "/>
<polyline clip-path="url(#clip710)" style="stroke:#333333; stroke-linecap:round; stroke-linejoin:round; stroke-width:4; stroke-opacity:1; fill:none" points="231.723,864.967 212.825,864.967 "/>
<polyline clip-path="url(#clip710)" style="stroke:#333333; stroke-linecap:round; stroke-linejoin:round; stroke-width:4; stroke-opacity:1; fill:none" points="231.723,544.79 212.825,544.79 "/>
<polyline clip-path="url(#clip710)" style="stroke:#333333; stroke-linecap:round; stroke-linejoin:round; stroke-width:4; stroke-opacity:1; fill:none" points="231.723,224.613 212.825,224.613 "/>
<polyline clip-path="url(#clip710)" style="stroke:#333333; stroke-linecap:round; stroke-linejoin:round; stroke-width:4; stroke-opacity:1; fill:none" points="231.723,1985.59 222.274,1985.59 "/>
<polyline clip-path="url(#clip710)" style="stroke:#333333; stroke-linecap:round; stroke-linejoin:round; stroke-width:4; stroke-opacity:1; fill:none" points="231.723,1665.41 222.274,1665.41 "/>
<polyline clip-path="url(#clip710)" style="stroke:#333333; stroke-linecap:round; stroke-linejoin:round; stroke-width:4; stroke-opacity:1; fill:none" points="231.723,1345.23 222.274,1345.23 "/>
<polyline clip-path="url(#clip710)" style="stroke:#333333; stroke-linecap:round; stroke-linejoin:round; stroke-width:4; stroke-opacity:1; fill:none" points="231.723,1025.06 222.274,1025.06 "/>
<polyline clip-path="url(#clip710)" style="stroke:#333333; stroke-linecap:round; stroke-linejoin:round; stroke-width:4; stroke-opacity:1; fill:none" points="231.723,704.879 222.274,704.879 "/>
<polyline clip-path="url(#clip710)" style="stroke:#333333; stroke-linecap:round; stroke-linejoin:round; stroke-width:4; stroke-opacity:1; fill:none" points="231.723,384.702 222.274,384.702 "/>
<path clip-path="url(#clip710)" d="M93.3576 2159.02 L100.996 2159.02 L100.996 2132.65 L92.6863 2134.32 L92.6863 2130.06 L100.95 2128.39 L105.626 2128.39 L105.626 2159.02 L113.265 2159.02 L113.265 2162.95 L93.3576 2162.95 L93.3576 2159.02 Z" fill="#4c4c4c" fill-rule="nonzero" fill-opacity="1" /><path clip-path="url(#clip710)" d="M122.709 2157.08 L127.593 2157.08 L127.593 2162.95 L122.709 2162.95 L122.709 2157.08 Z" fill="#4c4c4c" fill-rule="nonzero" fill-opacity="1" /><path clip-path="url(#clip710)" d="M147.779 2131.47 Q144.167 2131.47 142.339 2135.04 Q140.533 2138.58 140.533 2145.71 Q140.533 2152.82 142.339 2156.38 Q144.167 2159.92 147.779 2159.92 Q151.413 2159.92 153.218 2156.38 Q155.047 2152.82 155.047 2145.71 Q155.047 2138.58 153.218 2135.04 Q151.413 2131.47 147.779 2131.47 M147.779 2127.77 Q153.589 2127.77 156.644 2132.38 Q159.723 2136.96 159.723 2145.71 Q159.723 2154.44 156.644 2159.04 Q153.589 2163.63 147.779 2163.63 Q141.968 2163.63 138.89 2159.04 Q135.834 2154.44 135.834 2145.71 Q135.834 2136.96 138.89 2132.38 Q141.968 2127.77 147.779 2127.77 Z" fill="#4c4c4c" fill-rule="nonzero" fill-opacity="1" /><path clip-path="url(#clip710)" d="M94.5844 1838.84 L102.223 1838.84 L102.223 1812.48 L93.9131 1814.14 L93.9131 1809.88 L102.177 1808.22 L106.853 1808.22 L106.853 1838.84 L114.492 1838.84 L114.492 1842.78 L94.5844 1842.78 L94.5844 1838.84 Z" fill="#4c4c4c" fill-rule="nonzero" fill-opacity="1" /><path clip-path="url(#clip710)" d="M123.936 1836.9 L128.82 1836.9 L128.82 1842.78 L123.936 1842.78 L123.936 1836.9 Z" fill="#4c4c4c" fill-rule="nonzero" fill-opacity="1" /><path clip-path="url(#clip710)" d="M139.816 1838.84 L147.454 1838.84 L147.454 1812.48 L139.144 1814.14 L139.144 1809.88 L147.408 1808.22 L152.084 1808.22 L152.084 1838.84 L159.723 1838.84 L159.723 1842.78 L139.816 1842.78 L139.816 1838.84 Z" fill="#4c4c4c" fill-rule="nonzero" fill-opacity="1" /><path clip-path="url(#clip710)" d="M94.9548 1518.67 L102.594 1518.67 L102.594 1492.3 L94.2835 1493.97 L94.2835 1489.71 L102.547 1488.04 L107.223 1488.04 L107.223 1518.67 L114.862 1518.67 L114.862 1522.6 L94.9548 1522.6 L94.9548 1518.67 Z" fill="#4c4c4c" fill-rule="nonzero" fill-opacity="1" /><path clip-path="url(#clip710)" d="M124.306 1516.72 L129.191 1516.72 L129.191 1522.6 L124.306 1522.6 L124.306 1516.72 Z" fill="#4c4c4c" fill-rule="nonzero" fill-opacity="1" /><path clip-path="url(#clip710)" d="M143.404 1518.67 L159.723 1518.67 L159.723 1522.6 L137.779 1522.6 L137.779 1518.67 Q140.441 1515.91 145.024 1511.28 Q149.63 1506.63 150.811 1505.29 Q153.056 1502.76 153.936 1501.03 Q154.839 1499.27 154.839 1497.58 Q154.839 1494.82 152.894 1493.09 Q150.973 1491.35 147.871 1491.35 Q145.672 1491.35 143.218 1492.12 Q140.788 1492.88 138.01 1494.43 L138.01 1489.71 Q140.834 1488.57 143.288 1487.99 Q145.742 1487.42 147.779 1487.42 Q153.149 1487.42 156.343 1490.1 Q159.538 1492.79 159.538 1497.28 Q159.538 1499.41 158.728 1501.33 Q157.941 1503.23 155.834 1505.82 Q155.255 1506.49 152.154 1509.71 Q149.052 1512.9 143.404 1518.67 Z" fill="#4c4c4c" fill-rule="nonzero" fill-opacity="1" /><path clip-path="url(#clip710)" d="M94.0057 1198.49 L101.645 1198.49 L101.645 1172.12 L93.3344 1173.79 L93.3344 1169.53 L101.598 1167.86 L106.274 1167.86 L106.274 1198.49 L113.913 1198.49 L113.913 1202.42 L94.0057 1202.42 L94.0057 1198.49 Z" fill="#4c4c4c" fill-rule="nonzero" fill-opacity="1" /><path clip-path="url(#clip710)" d="M123.357 1196.54 L128.242 1196.54 L128.242 1202.42 L123.357 1202.42 L123.357 1196.54 Z" fill="#4c4c4c" fill-rule="nonzero" fill-opacity="1" /><path clip-path="url(#clip710)" d="M152.593 1183.79 Q155.95 1184.51 157.825 1186.78 Q159.723 1189.04 159.723 1192.38 Q159.723 1197.49 156.204 1200.29 Q152.686 1203.1 146.204 1203.1 Q144.029 1203.1 141.714 1202.66 Q139.422 1202.24 136.968 1201.38 L136.968 1196.87 Q138.913 1198 141.228 1198.58 Q143.542 1199.16 146.066 1199.16 Q150.464 1199.16 152.755 1197.42 Q155.07 1195.69 155.07 1192.38 Q155.07 1189.32 152.917 1187.61 Q150.788 1185.87 146.968 1185.87 L142.941 1185.87 L142.941 1182.03 L147.154 1182.03 Q150.603 1182.03 152.431 1180.66 Q154.26 1179.28 154.26 1176.68 Q154.26 1174.02 152.362 1172.61 Q150.487 1171.17 146.968 1171.17 Q145.047 1171.17 142.848 1171.59 Q140.649 1172.01 138.01 1172.89 L138.01 1168.72 Q140.672 1167.98 142.987 1167.61 Q145.325 1167.24 147.385 1167.24 Q152.709 1167.24 155.811 1169.67 Q158.913 1172.08 158.913 1176.2 Q158.913 1179.07 157.269 1181.06 Q155.626 1183.03 152.593 1183.79 Z" fill="#4c4c4c" fill-rule="nonzero" fill-opacity="1" /><path clip-path="url(#clip710)" d="M92.8715 878.312 L100.51 878.312 L100.51 851.946 L92.2002 853.613 L92.2002 849.354 L100.464 847.687 L105.14 847.687 L105.14 878.312 L112.779 878.312 L112.779 882.247 L92.8715 882.247 L92.8715 878.312 Z" fill="#4c4c4c" fill-rule="nonzero" fill-opacity="1" /><path clip-path="url(#clip710)" d="M122.223 876.368 L127.107 876.368 L127.107 882.247 L122.223 882.247 L122.223 876.368 Z" fill="#4c4c4c" fill-rule="nonzero" fill-opacity="1" /><path clip-path="url(#clip710)" d="M150.14 851.761 L138.334 870.21 L150.14 870.21 L150.14 851.761 M148.913 847.687 L154.792 847.687 L154.792 870.21 L159.723 870.21 L159.723 874.099 L154.792 874.099 L154.792 882.247 L150.14 882.247 L150.14 874.099 L134.538 874.099 L134.538 869.585 L148.913 847.687 Z" fill="#4c4c4c" fill-rule="nonzero" fill-opacity="1" /><path clip-path="url(#clip710)" d="M94.3529 558.135 L101.992 558.135 L101.992 531.77 L93.6816 533.436 L93.6816 529.177 L101.945 527.51 L106.621 527.51 L106.621 558.135 L114.26 558.135 L114.26 562.07 L94.3529 562.07 L94.3529 558.135 Z" fill="#4c4c4c" fill-rule="nonzero" fill-opacity="1" /><path clip-path="url(#clip710)" d="M123.705 556.191 L128.589 556.191 L128.589 562.07 L123.705 562.07 L123.705 556.191 Z" fill="#4c4c4c" fill-rule="nonzero" fill-opacity="1" /><path clip-path="url(#clip710)" d="M138.82 527.51 L157.177 527.51 L157.177 531.445 L143.103 531.445 L143.103 539.918 Q144.121 539.57 145.14 539.408 Q146.158 539.223 147.177 539.223 Q152.964 539.223 156.343 542.394 Q159.723 545.566 159.723 550.982 Q159.723 556.561 156.251 559.663 Q152.779 562.742 146.459 562.742 Q144.283 562.742 142.015 562.371 Q139.769 562.001 137.362 561.26 L137.362 556.561 Q139.445 557.695 141.667 558.251 Q143.89 558.806 146.367 558.806 Q150.371 558.806 152.709 556.7 Q155.047 554.593 155.047 550.982 Q155.047 547.371 152.709 545.265 Q150.371 543.158 146.367 543.158 Q144.492 543.158 142.617 543.575 Q140.765 543.992 138.82 544.871 L138.82 527.51 Z" fill="#4c4c4c" fill-rule="nonzero" fill-opacity="1" /><path clip-path="url(#clip710)" d="M93.1955 237.958 L100.834 237.958 L100.834 211.593 L92.5242 213.259 L92.5242 209 L100.788 207.333 L105.464 207.333 L105.464 237.958 L113.103 237.958 L113.103 241.893 L93.1955 241.893 L93.1955 237.958 Z" fill="#4c4c4c" fill-rule="nonzero" fill-opacity="1" /><path clip-path="url(#clip710)" d="M122.547 236.014 L127.431 236.014 L127.431 241.893 L122.547 241.893 L122.547 236.014 Z" fill="#4c4c4c" fill-rule="nonzero" fill-opacity="1" /><path clip-path="url(#clip710)" d="M148.195 222.75 Q145.047 222.75 143.195 224.903 Q141.367 227.056 141.367 230.806 Q141.367 234.532 143.195 236.708 Q145.047 238.861 148.195 238.861 Q151.343 238.861 153.172 236.708 Q155.024 234.532 155.024 230.806 Q155.024 227.056 153.172 224.903 Q151.343 222.75 148.195 222.75 M157.478 208.097 L157.478 212.357 Q155.718 211.523 153.913 211.083 Q152.13 210.644 150.371 210.644 Q145.742 210.644 143.288 213.769 Q140.857 216.894 140.51 223.213 Q141.876 221.199 143.936 220.134 Q145.996 219.046 148.473 219.046 Q153.681 219.046 156.691 222.218 Q159.723 225.366 159.723 230.806 Q159.723 236.13 156.575 239.347 Q153.427 242.565 148.195 242.565 Q142.2 242.565 139.029 237.981 Q135.857 233.375 135.857 224.648 Q135.857 216.454 139.746 211.593 Q143.635 206.708 150.186 206.708 Q151.945 206.708 153.728 207.056 Q155.533 207.403 157.478 208.097 Z" fill="#4c4c4c" fill-rule="nonzero" fill-opacity="1" /><path clip-path="url(#clip710)" d="M18.2962 1141.64 L35.6428 1154.53 L53.9442 1140.97 L53.9442 1147.88 L39.9396 1158.26 L53.9442 1168.63 L53.9442 1175.54 L35.2926 1161.69 L18.2962 1174.36 L18.2962 1167.45 L30.9958 1158 L18.2962 1148.55 L18.2962 1141.64 Z" fill="#000000" fill-rule="nonzero" fill-opacity="1" /><path clip-path="url(#clip710)" d="M1151.01 20.3876 L1151.01 25.4223 Q1148.75 24.2649 1146.32 23.6862 Q1143.89 23.1075 1141.29 23.1075 Q1137.32 23.1075 1135.33 24.3228 Q1133.36 25.5381 1133.36 27.9686 Q1133.36 29.8204 1134.78 30.891 Q1136.19 31.9327 1140.48 32.8876 L1142.3 33.2926 Q1147.97 34.5079 1150.34 36.7359 Q1152.75 38.935 1152.75 42.8991 Q1152.75 47.4129 1149.16 50.046 Q1145.6 52.6791 1139.35 52.6791 Q1136.74 52.6791 1133.91 52.1583 Q1131.1 51.6664 1127.98 50.6537 L1127.98 45.156 Q1130.93 46.6896 1133.79 47.4708 Q1136.66 48.2231 1139.46 48.2231 Q1143.23 48.2231 1145.25 46.95 Q1147.28 45.6479 1147.28 43.3042 Q1147.28 41.134 1145.8 39.9766 Q1144.35 38.8192 1139.41 37.7486 L1137.55 37.3146 Q1132.61 36.273 1130.41 34.1318 Q1128.21 31.9616 1128.21 28.2001 Q1128.21 23.6283 1131.45 21.1399 Q1134.69 18.6515 1140.65 18.6515 Q1143.6 18.6515 1146.21 19.0855 Q1148.81 19.5196 1151.01 20.3876 Z" fill="#000000" fill-rule="nonzero" fill-opacity="1" /><path clip-path="url(#clip710)" d="M1173.78 23.1654 Q1169.5 23.1654 1167.01 26.5218 Q1164.52 29.8494 1164.52 35.6653 Q1164.52 41.4813 1166.98 44.8377 Q1169.47 48.1653 1173.78 48.1653 Q1178.04 48.1653 1180.52 44.8088 Q1183.01 41.4523 1183.01 35.6653 Q1183.01 29.9072 1180.52 26.5508 Q1178.04 23.1654 1173.78 23.1654 M1173.78 18.6515 Q1180.73 18.6515 1184.69 23.1654 Q1188.65 27.6792 1188.65 35.6653 Q1188.65 43.6225 1184.69 48.1653 Q1180.73 52.6791 1173.78 52.6791 Q1166.81 52.6791 1162.84 48.1653 Q1158.91 43.6225 1158.91 35.6653 Q1158.91 27.6792 1162.84 23.1654 Q1166.81 18.6515 1173.78 18.6515 Z" fill="#000000" fill-rule="nonzero" fill-opacity="1" /><path clip-path="url(#clip710)" d="M1197.48 6.81709 L1202.8 6.81709 L1202.8 51.84 L1197.48 51.84 L1197.48 6.81709 Z" fill="#000000" fill-rule="nonzero" fill-opacity="1" /><path clip-path="url(#clip710)" d="M1213.39 39.0507 L1213.39 19.4328 L1218.72 19.4328 L1218.72 38.8482 Q1218.72 43.4488 1220.51 45.7636 Q1222.31 48.0495 1225.89 48.0495 Q1230.2 48.0495 1232.69 45.3007 Q1235.21 42.5519 1235.21 37.8065 L1235.21 19.4328 L1240.53 19.4328 L1240.53 51.84 L1235.21 51.84 L1235.21 46.8632 Q1233.27 49.8145 1230.7 51.2613 Q1228.15 52.6791 1224.77 52.6791 Q1219.18 52.6791 1216.29 49.2069 Q1213.39 45.7347 1213.39 39.0507 M1226.79 18.6515 L1226.79 18.6515 Z" fill="#000000" fill-rule="nonzero" fill-opacity="1" /><path clip-path="url(#clip710)" d="M1274.82 20.677 L1274.82 25.6538 Q1272.57 24.4096 1270.28 23.802 Q1268.02 23.1654 1265.71 23.1654 Q1260.53 23.1654 1257.66 26.464 Q1254.8 29.7336 1254.8 35.6653 Q1254.8 41.597 1257.66 44.8956 Q1260.53 48.1653 1265.71 48.1653 Q1268.02 48.1653 1270.28 47.5576 Q1272.57 46.921 1274.82 45.6768 L1274.82 50.5958 Q1272.59 51.6375 1270.19 52.1583 Q1267.82 52.6791 1265.13 52.6791 Q1257.81 52.6791 1253.5 48.0784 Q1249.19 43.4778 1249.19 35.6653 Q1249.19 27.7371 1253.53 23.1943 Q1257.9 18.6515 1265.48 18.6515 Q1267.94 18.6515 1270.28 19.1724 Q1272.62 19.6642 1274.82 20.677 M1267.3 51.84 Q1268.89 53.634 1269.67 55.1386 Q1270.45 56.6722 1270.45 58.061 Q1270.45 60.6362 1268.72 61.9383 Q1266.98 63.2693 1263.57 63.2693 Q1262.24 63.2693 1260.96 63.0957 Q1259.72 62.9221 1258.47 62.5749 L1258.47 58.7844 Q1259.46 59.2763 1260.53 59.4788 Q1261.6 59.7103 1262.96 59.7103 Q1264.67 59.7103 1265.53 59.0159 Q1266.4 58.3214 1266.4 56.9904 Q1266.4 56.1224 1265.77 54.8492 Q1265.16 53.605 1263.86 51.84 L1267.3 51.84 Z" fill="#000000" fill-rule="nonzero" fill-opacity="1" /><path clip-path="url(#clip710)" d="M1298.81 35.5496 Q1292.36 35.5496 1289.87 37.0253 Q1287.38 38.501 1287.38 42.06 Q1287.38 44.8956 1289.23 46.5738 Q1291.11 48.2231 1294.32 48.2231 Q1298.75 48.2231 1301.41 45.0981 Q1304.1 41.9442 1304.1 36.7359 L1304.1 35.5496 L1298.81 35.5496 M1309.43 33.3505 L1309.43 51.84 L1304.1 51.84 L1304.1 46.921 Q1302.28 49.8724 1299.56 51.2902 Q1296.84 52.6791 1292.91 52.6791 Q1287.93 52.6791 1284.98 49.9014 Q1282.06 47.0947 1282.06 42.4072 Q1282.06 36.9385 1285.7 34.1607 Q1289.38 31.3829 1296.64 31.3829 L1304.1 31.3829 L1304.1 30.8621 Q1304.1 27.1874 1301.67 25.1908 Q1299.27 23.1654 1294.9 23.1654 Q1292.13 23.1654 1289.49 23.8309 Q1286.86 24.4964 1284.43 25.8274 L1284.43 20.9085 Q1287.35 19.78 1290.1 19.2302 Q1292.85 18.6515 1295.45 18.6515 Q1302.48 18.6515 1305.96 22.2973 Q1309.43 25.9431 1309.43 33.3505 M1295.57 12.199 L1293.92 10.6076 Q1293.28 10.0289 1292.79 9.76847 Q1292.33 9.47912 1291.95 9.47912 Q1290.85 9.47912 1290.33 10.5497 Q1289.81 11.5914 1289.75 13.964 L1286.14 13.964 Q1286.19 10.0578 1287.67 7.94556 Q1289.15 5.80437 1291.78 5.80437 Q1292.88 5.80437 1293.8 6.20946 Q1294.73 6.61455 1295.8 7.5694 L1297.45 9.16083 Q1298.09 9.73953 1298.55 10.0289 Q1299.04 10.2893 1299.42 10.2893 Q1300.52 10.2893 1301.04 9.24764 Q1301.56 8.17704 1301.62 5.80437 L1305.23 5.80437 Q1305.18 9.7106 1303.7 11.8518 Q1302.22 13.964 1299.59 13.964 Q1298.49 13.964 1297.57 13.559 Q1296.64 13.1539 1295.57 12.199 Z" fill="#000000" fill-rule="nonzero" fill-opacity="1" /><path clip-path="url(#clip710)" d="M1332.95 23.1654 Q1328.67 23.1654 1326.18 26.5218 Q1323.69 29.8494 1323.69 35.6653 Q1323.69 41.4813 1326.15 44.8377 Q1328.64 48.1653 1332.95 48.1653 Q1337.21 48.1653 1339.7 44.8088 Q1342.18 41.4523 1342.18 35.6653 Q1342.18 29.9072 1339.7 26.5508 Q1337.21 23.1654 1332.95 23.1654 M1332.95 18.6515 Q1339.9 18.6515 1343.86 23.1654 Q1347.83 27.6792 1347.83 35.6653 Q1347.83 43.6225 1343.86 48.1653 Q1339.9 52.6791 1332.95 52.6791 Q1325.98 52.6791 1322.02 48.1653 Q1318.08 43.6225 1318.08 35.6653 Q1318.08 27.6792 1322.02 23.1654 Q1325.98 18.6515 1332.95 18.6515 Z" fill="#000000" fill-rule="nonzero" fill-opacity="1" /><path clip-path="url(#clip710)" d="M1396.81 24.3517 L1396.81 6.81709 L1402.14 6.81709 L1402.14 51.84 L1396.81 51.84 L1396.81 46.9789 Q1395.13 49.8724 1392.56 51.2902 Q1390.01 52.6791 1386.43 52.6791 Q1380.55 52.6791 1376.85 47.9916 Q1373.17 43.3042 1373.17 35.6653 Q1373.17 28.0265 1376.85 23.339 Q1380.55 18.6515 1386.43 18.6515 Q1390.01 18.6515 1392.56 20.0693 Q1395.13 21.4582 1396.81 24.3517 M1378.67 35.6653 Q1378.67 41.5391 1381.07 44.8956 Q1383.5 48.2231 1387.73 48.2231 Q1391.95 48.2231 1394.38 44.8956 Q1396.81 41.5391 1396.81 35.6653 Q1396.81 29.7915 1394.38 26.464 Q1391.95 23.1075 1387.73 23.1075 Q1383.5 23.1075 1381.07 26.464 Q1378.67 29.7915 1378.67 35.6653 Z" fill="#000000" fill-rule="nonzero" fill-opacity="1" /><path clip-path="url(#clip710)" d="M1427.83 35.5496 Q1421.38 35.5496 1418.89 37.0253 Q1416.4 38.501 1416.4 42.06 Q1416.4 44.8956 1418.25 46.5738 Q1420.13 48.2231 1423.35 48.2231 Q1427.77 48.2231 1430.44 45.0981 Q1433.13 41.9442 1433.13 36.7359 L1433.13 35.5496 L1427.83 35.5496 M1438.45 33.3505 L1438.45 51.84 L1433.13 51.84 L1433.13 46.921 Q1431.3 49.8724 1428.58 51.2902 Q1425.86 52.6791 1421.93 52.6791 Q1416.95 52.6791 1414 49.9014 Q1411.08 47.0947 1411.08 42.4072 Q1411.08 36.9385 1414.72 34.1607 Q1418.4 31.3829 1425.66 31.3829 L1433.13 31.3829 L1433.13 30.8621 Q1433.13 27.1874 1430.7 25.1908 Q1428.29 23.1654 1423.92 23.1654 Q1421.15 23.1654 1418.51 23.8309 Q1415.88 24.4964 1413.45 25.8274 L1413.45 20.9085 Q1416.37 19.78 1419.12 19.2302 Q1421.87 18.6515 1424.47 18.6515 Q1431.51 18.6515 1434.98 22.2973 Q1438.45 25.9431 1438.45 33.3505 Z" fill="#000000" fill-rule="nonzero" fill-opacity="1" /><path clip-path="url(#clip710)" d="M1495.97 34.3054 L1495.97 36.9095 L1471.49 36.9095 Q1471.84 42.4072 1474.79 45.3007 Q1477.77 48.1653 1483.07 48.1653 Q1486.14 48.1653 1489 47.4129 Q1491.89 46.6606 1494.73 45.156 L1494.73 50.1907 Q1491.86 51.406 1488.86 52.0425 Q1485.85 52.6791 1482.75 52.6791 Q1475 52.6791 1470.45 48.1653 Q1465.94 43.6514 1465.94 35.9547 Q1465.94 27.9975 1470.22 23.339 Q1474.53 18.6515 1481.82 18.6515 Q1488.36 18.6515 1492.15 22.876 Q1495.97 27.0716 1495.97 34.3054 M1490.65 32.7429 Q1490.59 28.3737 1488.19 25.7695 Q1485.82 23.1654 1481.88 23.1654 Q1477.43 23.1654 1474.73 25.6827 Q1472.07 28.2001 1471.67 32.7718 L1490.65 32.7429 Z" fill="#000000" fill-rule="nonzero" fill-opacity="1" /><path clip-path="url(#clip710)" d="M1507.89 35.6653 Q1507.89 41.5391 1510.3 44.8956 Q1512.73 48.2231 1516.95 48.2231 Q1521.18 48.2231 1523.61 44.8956 Q1526.04 41.5391 1526.04 35.6653 Q1526.04 29.7915 1523.61 26.464 Q1521.18 23.1075 1516.95 23.1075 Q1512.73 23.1075 1510.3 26.464 Q1507.89 29.7915 1507.89 35.6653 M1526.04 46.9789 Q1524.36 49.8724 1521.78 51.2902 Q1519.24 52.6791 1515.65 52.6791 Q1509.78 52.6791 1506.07 47.9916 Q1502.4 43.3042 1502.4 35.6653 Q1502.4 28.0265 1506.07 23.339 Q1509.78 18.6515 1515.65 18.6515 Q1519.24 18.6515 1521.78 20.0693 Q1524.36 21.4582 1526.04 24.3517 L1526.04 19.4328 L1531.36 19.4328 L1531.36 64.1663 L1526.04 64.1663 L1526.04 46.9789 Z" fill="#000000" fill-rule="nonzero" fill-opacity="1" /><path clip-path="url(#clip710)" d="M1541.78 39.0507 L1541.78 19.4328 L1547.1 19.4328 L1547.1 38.8482 Q1547.1 43.4488 1548.9 45.7636 Q1550.69 48.0495 1554.28 48.0495 Q1558.59 48.0495 1561.08 45.3007 Q1563.59 42.5519 1563.59 37.8065 L1563.59 19.4328 L1568.92 19.4328 L1568.92 51.84 L1563.59 51.84 L1563.59 46.8632 Q1561.66 49.8145 1559.08 51.2613 Q1556.53 52.6791 1553.15 52.6791 Q1547.56 52.6791 1544.67 49.2069 Q1541.78 45.7347 1541.78 39.0507 M1555.17 18.6515 L1555.17 18.6515 Z" fill="#000000" fill-rule="nonzero" fill-opacity="1" /><path clip-path="url(#clip710)" d="M1594.61 35.5496 Q1588.16 35.5496 1585.67 37.0253 Q1583.18 38.501 1583.18 42.06 Q1583.18 44.8956 1585.04 46.5738 Q1586.92 48.2231 1590.13 48.2231 Q1594.55 48.2231 1597.22 45.0981 Q1599.91 41.9442 1599.91 36.7359 L1599.91 35.5496 L1594.61 35.5496 M1605.23 33.3505 L1605.23 51.84 L1599.91 51.84 L1599.91 46.921 Q1598.08 49.8724 1595.36 51.2902 Q1592.65 52.6791 1588.71 52.6791 Q1583.73 52.6791 1580.78 49.9014 Q1577.86 47.0947 1577.86 42.4072 Q1577.86 36.9385 1581.51 34.1607 Q1585.18 31.3829 1592.44 31.3829 L1599.91 31.3829 L1599.91 30.8621 Q1599.91 27.1874 1597.48 25.1908 Q1595.08 23.1654 1590.71 23.1654 Q1587.93 23.1654 1585.3 23.8309 Q1582.66 24.4964 1580.23 25.8274 L1580.23 20.9085 Q1583.15 19.78 1585.9 19.2302 Q1588.65 18.6515 1591.26 18.6515 Q1598.29 18.6515 1601.76 22.2973 Q1605.23 25.9431 1605.23 33.3505 Z" fill="#000000" fill-rule="nonzero" fill-opacity="1" /><path clip-path="url(#clip710)" d="M1639.52 20.677 L1639.52 25.6538 Q1637.26 24.4096 1634.98 23.802 Q1632.72 23.1654 1630.41 23.1654 Q1625.23 23.1654 1622.36 26.464 Q1619.5 29.7336 1619.5 35.6653 Q1619.5 41.597 1622.36 44.8956 Q1625.23 48.1653 1630.41 48.1653 Q1632.72 48.1653 1634.98 47.5576 Q1637.26 46.921 1639.52 45.6768 L1639.52 50.5958 Q1637.29 51.6375 1634.89 52.1583 Q1632.52 52.6791 1629.83 52.6791 Q1622.51 52.6791 1618.19 48.0784 Q1613.88 43.4778 1613.88 35.6653 Q1613.88 27.7371 1618.22 23.1943 Q1622.59 18.6515 1630.17 18.6515 Q1632.63 18.6515 1634.98 19.1724 Q1637.32 19.6642 1639.52 20.677 M1632 51.84 Q1633.59 53.634 1634.37 55.1386 Q1635.15 56.6722 1635.15 58.061 Q1635.15 60.6362 1633.41 61.9383 Q1631.68 63.2693 1628.26 63.2693 Q1626.93 63.2693 1625.66 63.0957 Q1624.42 62.9221 1623.17 62.5749 L1623.17 58.7844 Q1624.16 59.2763 1625.23 59.4788 Q1626.3 59.7103 1627.66 59.7103 Q1629.36 59.7103 1630.23 59.0159 Q1631.1 58.3214 1631.1 56.9904 Q1631.1 56.1224 1630.46 54.8492 Q1629.86 53.605 1628.55 51.84 L1632 51.84 Z" fill="#000000" fill-rule="nonzero" fill-opacity="1" /><path clip-path="url(#clip710)" d="M1663.51 35.5496 Q1657.05 35.5496 1654.57 37.0253 Q1652.08 38.501 1652.08 42.06 Q1652.08 44.8956 1653.93 46.5738 Q1655.81 48.2231 1659.02 48.2231 Q1663.45 48.2231 1666.11 45.0981 Q1668.8 41.9442 1668.8 36.7359 L1668.8 35.5496 L1663.51 35.5496 M1674.13 33.3505 L1674.13 51.84 L1668.8 51.84 L1668.8 46.921 Q1666.98 49.8724 1664.26 51.2902 Q1661.54 52.6791 1657.6 52.6791 Q1652.63 52.6791 1649.68 49.9014 Q1646.75 47.0947 1646.75 42.4072 Q1646.75 36.9385 1650.4 34.1607 Q1654.07 31.3829 1661.34 31.3829 L1668.8 31.3829 L1668.8 30.8621 Q1668.8 27.1874 1666.37 25.1908 Q1663.97 23.1654 1659.6 23.1654 Q1656.82 23.1654 1654.19 23.8309 Q1651.56 24.4964 1649.13 25.8274 L1649.13 20.9085 Q1652.05 19.78 1654.8 19.2302 Q1657.55 18.6515 1660.15 18.6515 Q1667.18 18.6515 1670.65 22.2973 Q1674.13 25.9431 1674.13 33.3505 M1660.27 12.199 L1658.62 10.6076 Q1657.98 10.0289 1657.49 9.76847 Q1657.03 9.47912 1656.65 9.47912 Q1655.55 9.47912 1655.03 10.5497 Q1654.51 11.5914 1654.45 13.964 L1650.83 13.964 Q1650.89 10.0578 1652.37 7.94556 Q1653.84 5.80437 1656.48 5.80437 Q1657.58 5.80437 1658.5 6.20946 Q1659.43 6.61455 1660.5 7.5694 L1662.15 9.16083 Q1662.78 9.73953 1663.25 10.0289 Q1663.74 10.2893 1664.11 10.2893 Q1665.21 10.2893 1665.73 9.24764 Q1666.26 8.17704 1666.31 5.80437 L1669.93 5.80437 Q1669.87 9.7106 1668.4 11.8518 Q1666.92 13.964 1664.29 13.964 Q1663.19 13.964 1662.26 13.559 Q1661.34 13.1539 1660.27 12.199 Z" fill="#000000" fill-rule="nonzero" fill-opacity="1" /><path clip-path="url(#clip710)" d="M1697.65 23.1654 Q1693.37 23.1654 1690.88 26.5218 Q1688.39 29.8494 1688.39 35.6653 Q1688.39 41.4813 1690.85 44.8377 Q1693.34 48.1653 1697.65 48.1653 Q1701.9 48.1653 1704.39 44.8088 Q1706.88 41.4523 1706.88 35.6653 Q1706.88 29.9072 1704.39 26.5508 Q1701.9 23.1654 1697.65 23.1654 M1697.65 18.6515 Q1704.59 18.6515 1708.56 23.1654 Q1712.52 27.6792 1712.52 35.6653 Q1712.52 43.6225 1708.56 48.1653 Q1704.59 52.6791 1697.65 52.6791 Q1690.68 52.6791 1686.71 48.1653 Q1682.78 43.6225 1682.78 35.6653 Q1682.78 27.6792 1686.71 23.1654 Q1690.68 18.6515 1697.65 18.6515 Z" fill="#000000" fill-rule="nonzero" fill-opacity="1" /><path clip-path="url(#clip710)" d="M1740.18 6.81709 L1745.51 6.81709 L1745.51 51.84 L1740.18 51.84 L1740.18 6.81709 Z" fill="#000000" fill-rule="nonzero" fill-opacity="1" /><path clip-path="url(#clip710)" d="M1769.21 23.1654 Q1764.92 23.1654 1762.44 26.5218 Q1759.95 29.8494 1759.95 35.6653 Q1759.95 41.4813 1762.41 44.8377 Q1764.9 48.1653 1769.21 48.1653 Q1773.46 48.1653 1775.95 44.8088 Q1778.44 41.4523 1778.44 35.6653 Q1778.44 29.9072 1775.95 26.5508 Q1773.46 23.1654 1769.21 23.1654 M1769.21 18.6515 Q1776.15 18.6515 1780.12 23.1654 Q1784.08 27.6792 1784.08 35.6653 Q1784.08 43.6225 1780.12 48.1653 Q1776.15 52.6791 1769.21 52.6791 Q1762.23 52.6791 1758.27 48.1653 Q1754.33 43.6225 1754.33 35.6653 Q1754.33 27.6792 1758.27 23.1654 Q1762.23 18.6515 1769.21 18.6515 Z" fill="#000000" fill-rule="nonzero" fill-opacity="1" /><path clip-path="url(#clip710)" d="M1814.23 35.2602 Q1814.23 29.4732 1811.83 26.2904 Q1809.46 23.1075 1805.14 23.1075 Q1800.86 23.1075 1798.46 26.2904 Q1796.09 29.4732 1796.09 35.2602 Q1796.09 41.0183 1798.46 44.2012 Q1800.86 47.384 1805.14 47.384 Q1809.46 47.384 1811.83 44.2012 Q1814.23 41.0183 1814.23 35.2602 M1819.55 47.818 Q1819.55 56.0934 1815.88 60.1154 Q1812.2 64.1663 1804.62 64.1663 Q1801.82 64.1663 1799.33 63.7323 Q1796.84 63.3272 1794.5 62.4592 L1794.5 57.2798 Q1796.84 58.5529 1799.13 59.1606 Q1801.41 59.7682 1803.78 59.7682 Q1809.02 59.7682 1811.63 57.0194 Q1814.23 54.2995 1814.23 48.7729 L1814.23 46.1398 Q1812.58 49.0044 1810 50.4222 Q1807.43 51.84 1803.84 51.84 Q1797.88 51.84 1794.24 47.2972 Q1790.59 42.7544 1790.59 35.2602 Q1790.59 27.7371 1794.24 23.1943 Q1797.88 18.6515 1803.84 18.6515 Q1807.43 18.6515 1810 20.0693 Q1812.58 21.4872 1814.23 24.3517 L1814.23 19.4328 L1819.55 19.4328 L1819.55 47.818 Z" fill="#000000" fill-rule="nonzero" fill-opacity="1" /><path clip-path="url(#clip710)" d="M1837.2 4.44442 L1842.96 4.44442 L1833.53 15.324 L1829.1 15.324 L1837.2 4.44442 M1830.52 19.4328 L1835.84 19.4328 L1835.84 51.84 L1830.52 51.84 L1830.52 19.4328 M1833.18 18.6515 L1833.18 18.6515 Z" fill="#000000" fill-rule="nonzero" fill-opacity="1" /><path clip-path="url(#clip710)" d="M1867.64 20.3876 L1867.64 25.4223 Q1865.39 24.2649 1862.96 23.6862 Q1860.53 23.1075 1857.92 23.1075 Q1853.96 23.1075 1851.96 24.3228 Q1849.99 25.5381 1849.99 27.9686 Q1849.99 29.8204 1851.41 30.891 Q1852.83 31.9327 1857.11 32.8876 L1858.93 33.2926 Q1864.61 34.5079 1866.98 36.7359 Q1869.38 38.935 1869.38 42.8991 Q1869.38 47.4129 1865.79 50.046 Q1862.23 52.6791 1855.98 52.6791 Q1853.38 52.6791 1850.54 52.1583 Q1847.74 51.6664 1844.61 50.6537 L1844.61 45.156 Q1847.56 46.6896 1850.43 47.4708 Q1853.29 48.2231 1856.1 48.2231 Q1859.86 48.2231 1861.89 46.95 Q1863.91 45.6479 1863.91 43.3042 Q1863.91 41.134 1862.44 39.9766 Q1860.99 38.8192 1856.04 37.7486 L1854.19 37.3146 Q1849.24 36.273 1847.04 34.1318 Q1844.84 31.9616 1844.84 28.2001 Q1844.84 23.6283 1848.08 21.1399 Q1851.32 18.6515 1857.28 18.6515 Q1860.24 18.6515 1862.84 19.0855 Q1865.44 19.5196 1867.64 20.3876 Z" fill="#000000" fill-rule="nonzero" fill-opacity="1" /><path clip-path="url(#clip710)" d="M1883.12 10.2314 L1883.12 19.4328 L1894.09 19.4328 L1894.09 23.5705 L1883.12 23.5705 L1883.12 41.163 Q1883.12 45.1271 1884.19 46.2555 Q1885.29 47.384 1888.62 47.384 L1894.09 47.384 L1894.09 51.84 L1888.62 51.84 Q1882.46 51.84 1880.11 49.5541 Q1877.77 47.2393 1877.77 41.163 L1877.77 23.5705 L1873.86 23.5705 L1873.86 19.4328 L1877.77 19.4328 L1877.77 10.2314 L1883.12 10.2314 Z" fill="#000000" fill-rule="nonzero" fill-opacity="1" /><path clip-path="url(#clip710)" d="M1901.09 19.4328 L1906.42 19.4328 L1906.42 51.84 L1901.09 51.84 L1901.09 19.4328 M1901.09 6.81709 L1906.42 6.81709 L1906.42 13.559 L1901.09 13.559 L1901.09 6.81709 Z" fill="#000000" fill-rule="nonzero" fill-opacity="1" /><path clip-path="url(#clip710)" d="M1940.88 20.677 L1940.88 25.6538 Q1938.62 24.4096 1936.34 23.802 Q1934.08 23.1654 1931.76 23.1654 Q1926.58 23.1654 1923.72 26.464 Q1920.86 29.7336 1920.86 35.6653 Q1920.86 41.597 1923.72 44.8956 Q1926.58 48.1653 1931.76 48.1653 Q1934.08 48.1653 1936.34 47.5576 Q1938.62 46.921 1940.88 45.6768 L1940.88 50.5958 Q1938.65 51.6375 1936.25 52.1583 Q1933.88 52.6791 1931.18 52.6791 Q1923.86 52.6791 1919.55 48.0784 Q1915.24 43.4778 1915.24 35.6653 Q1915.24 27.7371 1919.58 23.1943 Q1923.95 18.6515 1931.53 18.6515 Q1933.99 18.6515 1936.34 19.1724 Q1938.68 19.6642 1940.88 20.677 Z" fill="#000000" fill-rule="nonzero" fill-opacity="1" /><path clip-path="url(#clip710)" d="M1964.87 35.5496 Q1958.41 35.5496 1955.92 37.0253 Q1953.44 38.501 1953.44 42.06 Q1953.44 44.8956 1955.29 46.5738 Q1957.17 48.2231 1960.38 48.2231 Q1964.81 48.2231 1967.47 45.0981 Q1970.16 41.9442 1970.16 36.7359 L1970.16 35.5496 L1964.87 35.5496 M1975.48 33.3505 L1975.48 51.84 L1970.16 51.84 L1970.16 46.921 Q1968.34 49.8724 1965.62 51.2902 Q1962.9 52.6791 1958.96 52.6791 Q1953.99 52.6791 1951.03 49.9014 Q1948.11 47.0947 1948.11 42.4072 Q1948.11 36.9385 1951.76 34.1607 Q1955.43 31.3829 1962.7 31.3829 L1970.16 31.3829 L1970.16 30.8621 Q1970.16 27.1874 1967.73 25.1908 Q1965.33 23.1654 1960.96 23.1654 Q1958.18 23.1654 1955.55 23.8309 Q1952.92 24.4964 1950.48 25.8274 L1950.48 20.9085 Q1953.41 19.78 1956.16 19.2302 Q1958.9 18.6515 1961.51 18.6515 Q1968.54 18.6515 1972.01 22.2973 Q1975.48 25.9431 1975.48 33.3505 Z" fill="#000000" fill-rule="nonzero" fill-opacity="1" /><path clip-path="url(#clip710)" d="M2020.02 35.5496 Q2013.56 35.5496 2011.07 37.0253 Q2008.59 38.501 2008.59 42.06 Q2008.59 44.8956 2010.44 46.5738 Q2012.32 48.2231 2015.53 48.2231 Q2019.96 48.2231 2022.62 45.0981 Q2025.31 41.9442 2025.31 36.7359 L2025.31 35.5496 L2020.02 35.5496 M2030.63 33.3505 L2030.63 51.84 L2025.31 51.84 L2025.31 46.921 Q2023.49 49.8724 2020.77 51.2902 Q2018.05 52.6791 2014.11 52.6791 Q2009.14 52.6791 2006.18 49.9014 Q2003.26 47.0947 2003.26 42.4072 Q2003.26 36.9385 2006.91 34.1607 Q2010.58 31.3829 2017.85 31.3829 L2025.31 31.3829 L2025.31 30.8621 Q2025.31 27.1874 2022.88 25.1908 Q2020.48 23.1654 2016.11 23.1654 Q2013.33 23.1654 2010.7 23.8309 Q2008.07 24.4964 2005.63 25.8274 L2005.63 20.9085 Q2008.56 19.78 2011.31 19.2302 Q2014.05 18.6515 2016.66 18.6515 Q2023.69 18.6515 2027.16 22.2973 Q2030.63 25.9431 2030.63 33.3505 Z" fill="#000000" fill-rule="nonzero" fill-opacity="1" /><path clip-path="url(#clip710)" d="M2041.6 6.81709 L2046.93 6.81709 L2046.93 51.84 L2041.6 51.84 L2041.6 6.81709 Z" fill="#000000" fill-rule="nonzero" fill-opacity="1" /><path clip-path="url(#clip710)" d="M2085.78 34.3054 L2085.78 36.9095 L2061.31 36.9095 Q2061.65 42.4072 2064.6 45.3007 Q2067.58 48.1653 2072.88 48.1653 Q2075.95 48.1653 2078.81 47.4129 Q2081.7 46.6606 2084.54 45.156 L2084.54 50.1907 Q2081.68 51.406 2078.67 52.0425 Q2075.66 52.6791 2072.56 52.6791 Q2064.81 52.6791 2060.26 48.1653 Q2055.75 43.6514 2055.75 35.9547 Q2055.75 27.9975 2060.03 23.339 Q2064.34 18.6515 2071.64 18.6515 Q2078.17 18.6515 2081.97 22.876 Q2085.78 27.0716 2085.78 34.3054 M2080.46 32.7429 Q2080.4 28.3737 2078 25.7695 Q2075.63 23.1654 2071.69 23.1654 Q2067.24 23.1654 2064.55 25.6827 Q2061.88 28.2001 2061.48 32.7718 L2080.46 32.7429 Z" fill="#000000" fill-rule="nonzero" fill-opacity="1" /><path clip-path="url(#clip710)" d="M2109.25 35.5496 Q2102.8 35.5496 2100.31 37.0253 Q2097.82 38.501 2097.82 42.06 Q2097.82 44.8956 2099.67 46.5738 Q2101.55 48.2231 2104.77 48.2231 Q2109.19 48.2231 2111.86 45.0981 Q2114.55 41.9442 2114.55 36.7359 L2114.55 35.5496 L2109.25 35.5496 M2119.87 33.3505 L2119.87 51.84 L2114.55 51.84 L2114.55 46.921 Q2112.72 49.8724 2110 51.2902 Q2107.28 52.6791 2103.35 52.6791 Q2098.37 52.6791 2095.42 49.9014 Q2092.5 47.0947 2092.5 42.4072 Q2092.5 36.9385 2096.14 34.1607 Q2099.82 31.3829 2107.08 31.3829 L2114.55 31.3829 L2114.55 30.8621 Q2114.55 27.1874 2112.12 25.1908 Q2109.71 23.1654 2105.34 23.1654 Q2102.57 23.1654 2099.93 23.8309 Q2097.3 24.4964 2094.87 25.8274 L2094.87 20.9085 Q2097.79 19.78 2100.54 19.2302 Q2103.29 18.6515 2105.89 18.6515 Q2112.93 18.6515 2116.4 22.2973 Q2119.87 25.9431 2119.87 33.3505 Z" fill="#000000" fill-rule="nonzero" fill-opacity="1" /><path clip-path="url(#clip710)" d="M2136.1 10.2314 L2136.1 19.4328 L2147.07 19.4328 L2147.07 23.5705 L2136.1 23.5705 L2136.1 41.163 Q2136.1 45.1271 2137.17 46.2555 Q2138.27 47.384 2141.6 47.384 L2147.07 47.384 L2147.07 51.84 L2141.6 51.84 Q2135.44 51.84 2133.09 49.5541 Q2130.75 47.2393 2130.75 41.163 L2130.75 23.5705 L2126.84 23.5705 L2126.84 19.4328 L2130.75 19.4328 L2130.75 10.2314 L2136.1 10.2314 Z" fill="#000000" fill-rule="nonzero" fill-opacity="1" /><path clip-path="url(#clip710)" d="M2166.63 23.1654 Q2162.35 23.1654 2159.86 26.5218 Q2157.37 29.8494 2157.37 35.6653 Q2157.37 41.4813 2159.83 44.8377 Q2162.32 48.1653 2166.63 48.1653 Q2170.88 48.1653 2173.37 44.8088 Q2175.86 41.4523 2175.86 35.6653 Q2175.86 29.9072 2173.37 26.5508 Q2170.88 23.1654 2166.63 23.1654 M2166.63 18.6515 Q2173.57 18.6515 2177.54 23.1654 Q2181.5 27.6792 2181.5 35.6653 Q2181.5 43.6225 2177.54 48.1653 Q2173.57 52.6791 2166.63 52.6791 Q2159.66 52.6791 2155.69 48.1653 Q2151.76 43.6225 2151.76 35.6653 Q2151.76 27.6792 2155.69 23.1654 Q2159.66 18.6515 2166.63 18.6515 M2170.65 4.44442 L2176.41 4.44442 L2166.98 15.324 L2162.55 15.324 L2170.65 4.44442 Z" fill="#000000" fill-rule="nonzero" fill-opacity="1" /><path clip-path="url(#clip710)" d="M2209.11 24.4096 Q2208.21 23.8888 2207.14 23.6573 Q2206.1 23.3969 2204.82 23.3969 Q2200.31 23.3969 2197.88 26.3482 Q2195.48 29.2707 2195.48 34.7683 L2195.48 51.84 L2190.12 51.84 L2190.12 19.4328 L2195.48 19.4328 L2195.48 24.4675 Q2197.16 21.5161 2199.85 20.0983 Q2202.54 18.6515 2206.39 18.6515 Q2206.94 18.6515 2207.6 18.7383 Q2208.27 18.7962 2209.08 18.9409 L2209.11 24.4096 Z" fill="#000000" fill-rule="nonzero" fill-opacity="1" /><path clip-path="url(#clip710)" d="M2214.69 19.4328 L2220.01 19.4328 L2220.01 51.84 L2214.69 51.84 L2214.69 19.4328 M2214.69 6.81709 L2220.01 6.81709 L2220.01 13.559 L2214.69 13.559 L2214.69 6.81709 Z" fill="#000000" fill-rule="nonzero" fill-opacity="1" /><path clip-path="url(#clip710)" d="M2245.88 35.5496 Q2239.43 35.5496 2236.94 37.0253 Q2234.45 38.501 2234.45 42.06 Q2234.45 44.8956 2236.3 46.5738 Q2238.19 48.2231 2241.4 48.2231 Q2245.82 48.2231 2248.49 45.0981 Q2251.18 41.9442 2251.18 36.7359 L2251.18 35.5496 L2245.88 35.5496 M2256.5 33.3505 L2256.5 51.84 L2251.18 51.84 L2251.18 46.921 Q2249.35 49.8724 2246.63 51.2902 Q2243.91 52.6791 2239.98 52.6791 Q2235 52.6791 2232.05 49.9014 Q2229.13 47.0947 2229.13 42.4072 Q2229.13 36.9385 2232.77 34.1607 Q2236.45 31.3829 2243.71 31.3829 L2251.18 31.3829 L2251.18 30.8621 Q2251.18 27.1874 2248.75 25.1908 Q2246.35 23.1654 2241.98 23.1654 Q2239.2 23.1654 2236.57 23.8309 Q2233.93 24.4964 2231.5 25.8274 L2231.5 20.9085 Q2234.42 19.78 2237.17 19.2302 Q2239.92 18.6515 2242.53 18.6515 Q2249.56 18.6515 2253.03 22.2973 Q2256.5 25.9431 2256.5 33.3505 Z" fill="#000000" fill-rule="nonzero" fill-opacity="1" /><polyline clip-path="url(#clip712)" style="stroke:#009af9; stroke-linecap:round; stroke-linejoin:round; stroke-width:4; stroke-opacity:1; fill:none" points="314.394,2145.67 319.905,2113.66 325.416,2081.41 330.928,2049.66 336.439,2017.83 341.951,1986.04 347.462,1954.86 352.973,1924.73 358.485,1894.72 363.996,1864.71 369.508,1833.42 375.019,1801.54 380.53,1769.75 386.042,1739.03 391.553,1709.43 397.064,1680.37 402.576,1652.46 408.087,1625.83 413.599,1599.64 419.11,1574.54 424.621,1548.29 430.133,1521.98 435.644,1496.83 441.155,1471.17 446.667,1446.31 452.178,1422.06 457.69,1397.38 463.201,1373.14 468.712,1350.83 474.224,1328.44 479.735,1306.91 485.247,1286.14 490.758,1264.73 496.269,1243.59 501.781,1222.66 507.292,1202.54 512.803,1182.05 518.315,1162.99 523.826,1145.25 529.338,1129.29 534.849,1113.86 540.36,1098 545.872,1082.54 551.383,1068.1 556.895,1054.37 562.406,1040.86 567.917,1027.95 573.429,1015.34 578.94,1003.31 584.451,991.625 589.963,980.668 595.474,968.986 600.986,957.112 606.497,944.863 612.008,933.266 617.52,923.284 623.031,913.272 628.543,903.299 634.054,892.924 639.565,882.926 645.077,873.182 650.588,864.017 656.099,854.259 661.611,843.868 667.122,833.765 672.634,823.596 678.145,814.095 683.656,803.466 689.168,793.16 694.679,784.081 700.19,775.765 705.702,768.518 711.213,762.649 716.725,756.48 722.236,751.961 727.747,748.288 733.259,744.7 738.77,741.47 744.282,738.643 749.793,734.486 755.304,730.452 760.816,726.52 766.327,722.8 771.838,718.641 777.35,715.498 782.861,713.093 788.373,710.473 793.884,706.272 799.395,701.092 804.907,697.359 810.418,693.751 815.93,688.978 821.441,683.515 826.952,676.644 832.464,670.031 837.975,664.141 843.486,658.002 848.998,650.652 854.509,643.242 860.021,636.162 865.532,630.187 871.043,623.387 876.555,616.87 882.066,611.018 887.578,604.509 893.089,597.874 898.6,591.285 904.112,584.7 909.623,578.041 915.134,570.387 920.646,562.268 926.157,554.486 931.669,545.868 937.18,538.263 942.691,528.916 948.203,520.412 953.714,511.924 959.225,502.412 964.737,492.929 970.248,483.759 975.76,474.535 981.271,464.937 986.782,455.447 992.294,446.482 997.805,438.198 1003.32,429.725 1008.83,421.162 1014.34,412.8 1019.85,404.655 1025.36,396.724 1030.87,389.001 1036.38,381.721 1041.9,374.404 1047.41,367.282 1052.92,360.365 1058.43,353.669 1063.94,347.136 1069.45,341.25 1074.96,335.937 1080.48,331.05 1085.99,326.482 1091.5,322.216 1097.01,317.72 1102.52,312.535 1108.03,307.896 1113.54,303.959 1119.06,299.439 1124.57,295.59 1130.08,291.11 1135.59,287.083 1141.1,282.417 1146.61,278.19 1152.12,273.962 1157.64,269.754 1163.15,266.153 1168.66,262.831 1174.17,258.735 1179.68,255.27 1185.19,252.14 1190.7,249.964 1196.21,246.878 1201.73,243.838 1207.24,240.943 1212.75,237.74 1218.26,234.788 1223.77,232.485 1229.28,231.308 1234.79,230.069 1240.31,228.191 1245.82,225.809 1251.33,223.504 1256.84,221.342 1262.35,218.637 1267.86,215.775 1273.37,213.051 1278.89,210.467 1284.4,208.35 1289.91,206.205 1295.42,203.862 1300.93,201.623 1306.44,199.374 1311.95,198.034 1317.47,196.681 1322.98,196.444 1328.49,195.342 1334,194.392 1339.51,193.521 1345.02,192.511 1350.53,191.643 1356.05,191.911 1361.56,191.12 1367.07,191.889 1372.58,192.135 1378.09,192.135 1383.6,192.332 1389.11,191.255 1394.62,189.502 1400.14,187.915 1405.65,186.064 1411.16,184.187 1416.67,182.515 1422.18,181.156 1427.69,179.476 1433.2,177.81 1438.72,176.112 1444.23,174.497 1449.74,173.033 1455.25,171.714 1460.76,171.693 1466.27,171.499 1471.78,170.837 1477.3,171.088 1482.81,172.482 1488.32,173.968 1493.83,174.645 1499.34,176.019 1504.85,177.358 1510.36,179.468 1515.88,182.162 1521.39,184.601 1526.9,185.935 1532.41,187.16 1537.92,188.684 1543.43,190.343 1548.94,191.724 1554.45,192.654 1559.97,194.631 1565.48,195.995 1570.99,196.618 1576.5,197.793 1582.01,199.022 1587.52,200.345 1593.03,200.938 1598.55,201.478 1604.06,201.792 1609.57,201.498 1615.08,203.458 1620.59,205.78 1626.1,208.883 1631.61,212.619 1637.13,216.212 1642.64,219.178 1648.15,220.27 1653.66,222.978 1659.17,225.203 1664.68,228.692 1670.19,231.156 1675.71,230.675 1681.22,232.73 1686.73,234.467 1692.24,236.885 1697.75,240.031 1703.26,244.551 1708.77,249.891 1714.28,257.09 1719.8,265.134 1725.31,273.753 1730.82,282.923 1736.33,294.229 1741.84,306.183 1747.35,316.181 1752.86,326.204 1758.38,337.602 1763.89,347.624 1769.4,359.13 1774.91,372.864 1780.42,383.92 1785.93,393.47 1791.44,401.82 1796.96,411.245 1802.47,419.446 1807.98,428.956 1813.49,437.069 1819,443.281 1824.51,448.334 1830.02,456.434 1835.54,465.145 1841.05,473.987 1846.56,479.145 1852.07,484.898 1857.58,488.383 1863.09,492.682 1868.6,492.795 1874.12,495.58 1879.63,495.119 1885.14,495.493 1890.65,497.005 1896.16,497.814 1901.67,499.091 1907.18,498.753 1912.69,497.919 1918.21,497.978 1923.72,497.628 1929.23,495.116 1934.74,492.158 1940.25,488.524 1945.76,482.466 1951.27,478.682 1956.79,475.7 1962.3,471.968 1967.81,469.778 1973.32,469.405 1978.83,469.491 1984.34,467.506 1989.85,464.819 1995.37,462.169 2000.88,460.225 2006.39,458.173 2011.9,459.034 2017.41,458.42 2022.92,457.655 2028.43,456.039 2033.95,455.476 2039.46,454.923 2044.97,455.869 2050.48,455.696 2055.99,454.723 2061.5,453.633 2067.01,453.125 2072.52,451.644 2078.04,447.744 2083.55,446.941 2089.06,443.86 2094.57,441.387 2100.08,437.717 2105.59,435.894 2111.1,434.646 2116.62,433.347 2122.13,429.749 2127.64,426.913 2133.15,423.796 2138.66,421.317 2144.17,419.679 2149.68,416.98 2155.2,415.689 2160.71,413.386 2166.22,412.105 2171.73,410.725 2177.24,407.809 2182.75,404.681 2188.26,400.637 2193.78,397.763 2199.29,394.276 2204.8,391.575 2210.31,391.659 2215.82,392.636 2221.33,391.031 2226.84,388.93 2232.35,387.37 2237.87,385.965 2243.38,386.218 2248.89,387.15 2254.4,389.05 2259.91,390.859 2265.42,393.154 2270.93,396.132 2276.45,399.549 2281.96,403.49 2287.47,407.355 2292.98,409.959 2298.49,411.834 2304,412.953 2309.51,413.381 2315.03,414.567 2320.54,419.588 2326.05,425.66 2331.56,433.375 2337.07,443.502 2342.58,452.504 2348.09,462.703 2353.61,470.924 2359.12,480.482 2364.63,487.592 2370.14,495.276 2375.65,500.882 2381.16,505.623 2386.67,507.535 2392.19,511.078 2397.7,514.124 2403.21,516.227 2408.72,519.398 2414.23,521.047 2419.74,524 2425.25,525.522 2430.76,527.541 2436.28,528.846 2441.79,529.497 2447.3,528.895 2452.81,528.21 2458.32,527.521 2463.83,527.567 2469.34,530.413 2474.86,531.673 2480.37,530.764 2485.88,529.179 2491.39,525.36 2496.9,521.069 2502.41,517.02 2507.92,514.737 2513.44,513.211 2518.95,510.863 2524.46,508.49 2529.97,505.831 2535.48,502.387 2540.99,498.798 2546.5,496.342 2552.02,493.128 2557.53,488.881 2563.04,485.272 2568.55,482.217 2574.06,480.799 2579.57,479.11 2585.08,475.975 2590.59,475.165 2596.11,473.942 2601.62,470.879 2607.13,466.221 2612.64,460.871 2618.15,454.687 2623.66,449.544 2629.17,444.053 2634.69,439.57 2640.2,433.907 2645.71,428.983 2651.22,426.276 2656.73,426.552 2662.24,426.163 2667.75,428.604 2673.27,431.739 2678.78,434.358 2684.29,435.925 2689.8,436.81 2695.31,437.287 2700.82,440.064 2706.33,440.644 2711.85,440.824 2717.36,440.423 2722.87,441.305 2728.38,440.515 2733.89,438.365 2739.4,434.643 2744.91,429.868 2750.42,424.149 2755.94,419.248 2761.45,415.075 2766.96,409.053 2772.47,402.258 2777.98,395.734 2783.49,389.009 2789,382.599 2794.52,376.372 2800.03,370.659 2805.54,365.621 2811.05,360.544 2816.56,355.58 2822.07,350.589 2827.58,345.331 2833.1,339.49 2838.61,333.842 2844.12,328.226 2849.63,322.355 2855.14,316.641 2860.65,311.156 2866.16,305.959 2871.68,300.706 2877.19,295.713 2882.7,290.7 2888.21,285.831 2893.72,281.144 2899.23,276.666 2904.74,272.414 2910.26,268.628 2915.77,265.565 2921.28,262.771 2926.79,258.98 2932.3,255.187 2937.81,251.639 2943.32,248.389 2948.83,245.181 2954.35,242.393 2959.86,239.18 2965.37,235.794 2970.88,232.463 2976.39,229.276 2981.9,226.331 2987.41,223.271 2992.93,220.579 2998.44,217.745 3003.95,215.033 3009.46,212.73 3014.97,210.39 3020.48,208.258 3025.99,206.745 3031.51,205.194 3037.02,204.91 3042.53,203.862 3048.04,203.769 3053.55,203.539 3059.06,202.597 3064.57,201.634 3070.09,199.993 "/>
</svg>
