<?xml version="1.0" encoding="utf-8"?>
<svg xmlns="http://www.w3.org/2000/svg" xmlns:xlink="http://www.w3.org/1999/xlink" width="800" height="600" viewBox="0 0 3200 2400">
<defs>
  <clipPath id="clip640">
    <rect x="0" y="0" width="3200" height="2400"/>
  </clipPath>
</defs>
<path clip-path="url(#clip640)" d="M0 2400 L3200 2400 L3200 0 L0 0  Z" fill="#ffffff" fill-rule="evenodd" fill-opacity="1"/>
<defs>
  <clipPath id="clip641">
    <rect x="640" y="0" width="2241" height="2241"/>
  </clipPath>
</defs>
<path clip-path="url(#clip640)" d="M216.167 2204.92 L3152.76 2204.92 L3152.76 111.592 L216.167 111.592  Z" fill="#eaeaea" fill-rule="evenodd" fill-opacity="1"/>
<defs>
  <clipPath id="clip642">
    <rect x="216" y="111" width="2938" height="2094"/>
  </clipPath>
</defs>
<polyline clip-path="url(#clip642)" style="stroke:#ffffff; stroke-linecap:round; stroke-linejoin:round; stroke-width:4; stroke-opacity:1; fill:none" points="299.278,2204.92 299.278,111.592 "/>
<polyline clip-path="url(#clip642)" style="stroke:#ffffff; stroke-linecap:round; stroke-linejoin:round; stroke-width:4; stroke-opacity:1; fill:none" points="853.352,2204.92 853.352,111.592 "/>
<polyline clip-path="url(#clip642)" style="stroke:#ffffff; stroke-linecap:round; stroke-linejoin:round; stroke-width:4; stroke-opacity:1; fill:none" points="1407.43,2204.92 1407.43,111.592 "/>
<polyline clip-path="url(#clip642)" style="stroke:#ffffff; stroke-linecap:round; stroke-linejoin:round; stroke-width:4; stroke-opacity:1; fill:none" points="1961.5,2204.92 1961.5,111.592 "/>
<polyline clip-path="url(#clip642)" style="stroke:#ffffff; stroke-linecap:round; stroke-linejoin:round; stroke-width:4; stroke-opacity:1; fill:none" points="2515.57,2204.92 2515.57,111.592 "/>
<polyline clip-path="url(#clip642)" style="stroke:#ffffff; stroke-linecap:round; stroke-linejoin:round; stroke-width:4; stroke-opacity:1; fill:none" points="3069.64,2204.92 3069.64,111.592 "/>
<polyline clip-path="url(#clip642)" style="stroke:#ffffff; stroke-linecap:round; stroke-linejoin:round; stroke-width:2; stroke-opacity:1; fill:none" points="576.315,2204.92 576.315,111.592 "/>
<polyline clip-path="url(#clip642)" style="stroke:#ffffff; stroke-linecap:round; stroke-linejoin:round; stroke-width:2; stroke-opacity:1; fill:none" points="1130.39,2204.92 1130.39,111.592 "/>
<polyline clip-path="url(#clip642)" style="stroke:#ffffff; stroke-linecap:round; stroke-linejoin:round; stroke-width:2; stroke-opacity:1; fill:none" points="1684.46,2204.92 1684.46,111.592 "/>
<polyline clip-path="url(#clip642)" style="stroke:#ffffff; stroke-linecap:round; stroke-linejoin:round; stroke-width:2; stroke-opacity:1; fill:none" points="2238.53,2204.92 2238.53,111.592 "/>
<polyline clip-path="url(#clip642)" style="stroke:#ffffff; stroke-linecap:round; stroke-linejoin:round; stroke-width:2; stroke-opacity:1; fill:none" points="2792.61,2204.92 2792.61,111.592 "/>
<polyline clip-path="url(#clip640)" style="stroke:#ffffff; stroke-linecap:round; stroke-linejoin:round; stroke-width:4; stroke-opacity:1; fill:none" points="216.167,2204.92 3152.76,2204.92 "/>
<polyline clip-path="url(#clip640)" style="stroke:#333333; stroke-linecap:round; stroke-linejoin:round; stroke-width:4; stroke-opacity:1; fill:none" points="299.278,2204.92 299.278,2223.82 "/>
<polyline clip-path="url(#clip640)" style="stroke:#333333; stroke-linecap:round; stroke-linejoin:round; stroke-width:4; stroke-opacity:1; fill:none" points="853.352,2204.92 853.352,2223.82 "/>
<polyline clip-path="url(#clip640)" style="stroke:#333333; stroke-linecap:round; stroke-linejoin:round; stroke-width:4; stroke-opacity:1; fill:none" points="1407.43,2204.92 1407.43,2223.82 "/>
<polyline clip-path="url(#clip640)" style="stroke:#333333; stroke-linecap:round; stroke-linejoin:round; stroke-width:4; stroke-opacity:1; fill:none" points="1961.5,2204.92 1961.5,2223.82 "/>
<polyline clip-path="url(#clip640)" style="stroke:#333333; stroke-linecap:round; stroke-linejoin:round; stroke-width:4; stroke-opacity:1; fill:none" points="2515.57,2204.92 2515.57,2223.82 "/>
<polyline clip-path="url(#clip640)" style="stroke:#333333; stroke-linecap:round; stroke-linejoin:round; stroke-width:4; stroke-opacity:1; fill:none" points="3069.64,2204.92 3069.64,2223.82 "/>
<polyline clip-path="url(#clip640)" style="stroke:#333333; stroke-linecap:round; stroke-linejoin:round; stroke-width:4; stroke-opacity:1; fill:none" points="576.315,2204.92 576.315,2214.37 "/>
<polyline clip-path="url(#clip640)" style="stroke:#333333; stroke-linecap:round; stroke-linejoin:round; stroke-width:4; stroke-opacity:1; fill:none" points="1130.39,2204.92 1130.39,2214.37 "/>
<polyline clip-path="url(#clip640)" style="stroke:#333333; stroke-linecap:round; stroke-linejoin:round; stroke-width:4; stroke-opacity:1; fill:none" points="1684.46,2204.92 1684.46,2214.37 "/>
<polyline clip-path="url(#clip640)" style="stroke:#333333; stroke-linecap:round; stroke-linejoin:round; stroke-width:4; stroke-opacity:1; fill:none" points="2238.53,2204.92 2238.53,2214.37 "/>
<polyline clip-path="url(#clip640)" style="stroke:#333333; stroke-linecap:round; stroke-linejoin:round; stroke-width:4; stroke-opacity:1; fill:none" points="2792.61,2204.92 2792.61,2214.37 "/>
<path clip-path="url(#clip640)" d="M299.278 2255.04 Q295.667 2255.04 293.839 2258.6 Q292.033 2262.14 292.033 2269.27 Q292.033 2276.38 293.839 2279.95 Q295.667 2283.49 299.278 2283.49 Q302.913 2283.49 304.718 2279.95 Q306.547 2276.38 306.547 2269.27 Q306.547 2262.14 304.718 2258.6 Q302.913 2255.04 299.278 2255.04 M299.278 2251.33 Q305.089 2251.33 308.144 2255.94 Q311.223 2260.52 311.223 2269.27 Q311.223 2278 308.144 2282.61 Q305.089 2287.19 299.278 2287.19 Q293.468 2287.19 290.39 2282.61 Q287.334 2278 287.334 2269.27 Q287.334 2260.52 290.39 2255.94 Q293.468 2251.33 299.278 2251.33 Z" fill="#4c4c4c" fill-rule="nonzero" fill-opacity="1" /><path clip-path="url(#clip640)" d="M843.734 2282.58 L851.373 2282.58 L851.373 2256.22 L843.062 2257.89 L843.062 2253.63 L851.326 2251.96 L856.002 2251.96 L856.002 2282.58 L863.641 2282.58 L863.641 2286.52 L843.734 2286.52 L843.734 2282.58 Z" fill="#4c4c4c" fill-rule="nonzero" fill-opacity="1" /><path clip-path="url(#clip640)" d="M1402.08 2282.58 L1418.4 2282.58 L1418.4 2286.52 L1396.45 2286.52 L1396.45 2282.58 Q1399.11 2279.83 1403.7 2275.2 Q1408.3 2270.55 1409.49 2269.21 Q1411.73 2266.68 1412.61 2264.95 Q1413.51 2263.19 1413.51 2261.5 Q1413.51 2258.74 1411.57 2257.01 Q1409.65 2255.27 1406.55 2255.27 Q1404.35 2255.27 1401.89 2256.03 Q1399.46 2256.8 1396.68 2258.35 L1396.68 2253.63 Q1399.51 2252.49 1401.96 2251.91 Q1404.42 2251.33 1406.45 2251.33 Q1411.82 2251.33 1415.02 2254.02 Q1418.21 2256.71 1418.21 2261.2 Q1418.21 2263.33 1417.4 2265.25 Q1416.61 2267.14 1414.51 2269.74 Q1413.93 2270.41 1410.83 2273.63 Q1407.73 2276.82 1402.08 2282.58 Z" fill="#4c4c4c" fill-rule="nonzero" fill-opacity="1" /><path clip-path="url(#clip640)" d="M1965.75 2267.89 Q1969.1 2268.6 1970.98 2270.87 Q1972.88 2273.14 1972.88 2276.47 Q1972.88 2281.59 1969.36 2284.39 Q1965.84 2287.19 1959.36 2287.19 Q1957.18 2287.19 1954.87 2286.75 Q1952.57 2286.33 1950.12 2285.48 L1950.12 2280.96 Q1952.07 2282.1 1954.38 2282.68 Q1956.7 2283.26 1959.22 2283.26 Q1963.62 2283.26 1965.91 2281.52 Q1968.22 2279.78 1968.22 2276.47 Q1968.22 2273.42 1966.07 2271.71 Q1963.94 2269.97 1960.12 2269.97 L1956.09 2269.97 L1956.09 2266.13 L1960.31 2266.13 Q1963.76 2266.13 1965.58 2264.76 Q1967.41 2263.37 1967.41 2260.78 Q1967.41 2258.12 1965.51 2256.71 Q1963.64 2255.27 1960.12 2255.27 Q1958.2 2255.27 1956 2255.69 Q1953.8 2256.1 1951.16 2256.98 L1951.16 2252.82 Q1953.82 2252.08 1956.14 2251.71 Q1958.48 2251.33 1960.54 2251.33 Q1965.86 2251.33 1968.96 2253.77 Q1972.07 2256.17 1972.07 2260.29 Q1972.07 2263.16 1970.42 2265.15 Q1968.78 2267.12 1965.75 2267.89 Z" fill="#4c4c4c" fill-rule="nonzero" fill-opacity="1" /><path clip-path="url(#clip640)" d="M2518.58 2256.03 L2506.78 2274.48 L2518.58 2274.48 L2518.58 2256.03 M2517.35 2251.96 L2523.23 2251.96 L2523.23 2274.48 L2528.16 2274.48 L2528.16 2278.37 L2523.23 2278.37 L2523.23 2286.52 L2518.58 2286.52 L2518.58 2278.37 L2502.98 2278.37 L2502.98 2273.86 L2517.35 2251.96 Z" fill="#4c4c4c" fill-rule="nonzero" fill-opacity="1" /><path clip-path="url(#clip640)" d="M3059.92 2251.96 L3078.28 2251.96 L3078.28 2255.9 L3064.21 2255.9 L3064.21 2264.37 Q3065.22 2264.02 3066.24 2263.86 Q3067.26 2263.67 3068.28 2263.67 Q3074.07 2263.67 3077.45 2266.84 Q3080.83 2270.02 3080.83 2275.43 Q3080.83 2281.01 3077.35 2284.11 Q3073.88 2287.19 3067.56 2287.19 Q3065.39 2287.19 3063.12 2286.82 Q3060.87 2286.45 3058.46 2285.71 L3058.46 2281.01 Q3060.55 2282.14 3062.77 2282.7 Q3064.99 2283.26 3067.47 2283.26 Q3071.47 2283.26 3073.81 2281.15 Q3076.15 2279.04 3076.15 2275.43 Q3076.15 2271.82 3073.81 2269.71 Q3071.47 2267.61 3067.47 2267.61 Q3065.59 2267.61 3063.72 2268.02 Q3061.87 2268.44 3059.92 2269.32 L3059.92 2251.96 Z" fill="#4c4c4c" fill-rule="nonzero" fill-opacity="1" /><path clip-path="url(#clip640)" d="M1683.52 2316.01 L1683.52 2326.14 L1695.59 2326.14 L1695.59 2330.69 L1683.52 2330.69 L1683.52 2350.04 Q1683.52 2354.4 1684.7 2355.64 Q1685.91 2356.88 1689.57 2356.88 L1695.59 2356.88 L1695.59 2361.78 L1689.57 2361.78 Q1682.79 2361.78 1680.21 2359.27 Q1677.63 2356.72 1677.63 2350.04 L1677.63 2330.69 L1673.34 2330.69 L1673.34 2326.14 L1677.63 2326.14 L1677.63 2316.01 L1683.52 2316.01 Z" fill="#000000" fill-rule="nonzero" fill-opacity="1" /><polyline clip-path="url(#clip642)" style="stroke:#ffffff; stroke-linecap:round; stroke-linejoin:round; stroke-width:4; stroke-opacity:1; fill:none" points="216.167,1949.1 3152.76,1949.1 "/>
<polyline clip-path="url(#clip642)" style="stroke:#ffffff; stroke-linecap:round; stroke-linejoin:round; stroke-width:4; stroke-opacity:1; fill:none" points="216.167,1558.98 3152.76,1558.98 "/>
<polyline clip-path="url(#clip642)" style="stroke:#ffffff; stroke-linecap:round; stroke-linejoin:round; stroke-width:4; stroke-opacity:1; fill:none" points="216.167,1168.86 3152.76,1168.86 "/>
<polyline clip-path="url(#clip642)" style="stroke:#ffffff; stroke-linecap:round; stroke-linejoin:round; stroke-width:4; stroke-opacity:1; fill:none" points="216.167,778.745 3152.76,778.745 "/>
<polyline clip-path="url(#clip642)" style="stroke:#ffffff; stroke-linecap:round; stroke-linejoin:round; stroke-width:4; stroke-opacity:1; fill:none" points="216.167,388.627 3152.76,388.627 "/>
<polyline clip-path="url(#clip642)" style="stroke:#ffffff; stroke-linecap:round; stroke-linejoin:round; stroke-width:2; stroke-opacity:1; fill:none" points="216.167,2144.16 3152.76,2144.16 "/>
<polyline clip-path="url(#clip642)" style="stroke:#ffffff; stroke-linecap:round; stroke-linejoin:round; stroke-width:2; stroke-opacity:1; fill:none" points="216.167,1754.04 3152.76,1754.04 "/>
<polyline clip-path="url(#clip642)" style="stroke:#ffffff; stroke-linecap:round; stroke-linejoin:round; stroke-width:2; stroke-opacity:1; fill:none" points="216.167,1363.92 3152.76,1363.92 "/>
<polyline clip-path="url(#clip642)" style="stroke:#ffffff; stroke-linecap:round; stroke-linejoin:round; stroke-width:2; stroke-opacity:1; fill:none" points="216.167,973.803 3152.76,973.803 "/>
<polyline clip-path="url(#clip642)" style="stroke:#ffffff; stroke-linecap:round; stroke-linejoin:round; stroke-width:2; stroke-opacity:1; fill:none" points="216.167,583.686 3152.76,583.686 "/>
<polyline clip-path="url(#clip642)" style="stroke:#ffffff; stroke-linecap:round; stroke-linejoin:round; stroke-width:2; stroke-opacity:1; fill:none" points="216.167,193.568 3152.76,193.568 "/>
<polyline clip-path="url(#clip640)" style="stroke:#ffffff; stroke-linecap:round; stroke-linejoin:round; stroke-width:4; stroke-opacity:1; fill:none" points="216.167,2204.92 216.167,111.592 "/>
<polyline clip-path="url(#clip640)" style="stroke:#333333; stroke-linecap:round; stroke-linejoin:round; stroke-width:4; stroke-opacity:1; fill:none" points="216.167,1949.1 197.27,1949.1 "/>
<polyline clip-path="url(#clip640)" style="stroke:#333333; stroke-linecap:round; stroke-linejoin:round; stroke-width:4; stroke-opacity:1; fill:none" points="216.167,1558.98 197.27,1558.98 "/>
<polyline clip-path="url(#clip640)" style="stroke:#333333; stroke-linecap:round; stroke-linejoin:round; stroke-width:4; stroke-opacity:1; fill:none" points="216.167,1168.86 197.27,1168.86 "/>
<polyline clip-path="url(#clip640)" style="stroke:#333333; stroke-linecap:round; stroke-linejoin:round; stroke-width:4; stroke-opacity:1; fill:none" points="216.167,778.745 197.27,778.745 "/>
<polyline clip-path="url(#clip640)" style="stroke:#333333; stroke-linecap:round; stroke-linejoin:round; stroke-width:4; stroke-opacity:1; fill:none" points="216.167,388.627 197.27,388.627 "/>
<polyline clip-path="url(#clip640)" style="stroke:#333333; stroke-linecap:round; stroke-linejoin:round; stroke-width:4; stroke-opacity:1; fill:none" points="216.167,2144.16 206.719,2144.16 "/>
<polyline clip-path="url(#clip640)" style="stroke:#333333; stroke-linecap:round; stroke-linejoin:round; stroke-width:4; stroke-opacity:1; fill:none" points="216.167,1754.04 206.719,1754.04 "/>
<polyline clip-path="url(#clip640)" style="stroke:#333333; stroke-linecap:round; stroke-linejoin:round; stroke-width:4; stroke-opacity:1; fill:none" points="216.167,1363.92 206.719,1363.92 "/>
<polyline clip-path="url(#clip640)" style="stroke:#333333; stroke-linecap:round; stroke-linejoin:round; stroke-width:4; stroke-opacity:1; fill:none" points="216.167,973.803 206.719,973.803 "/>
<polyline clip-path="url(#clip640)" style="stroke:#333333; stroke-linecap:round; stroke-linejoin:round; stroke-width:4; stroke-opacity:1; fill:none" points="216.167,583.686 206.719,583.686 "/>
<polyline clip-path="url(#clip640)" style="stroke:#333333; stroke-linecap:round; stroke-linejoin:round; stroke-width:4; stroke-opacity:1; fill:none" points="216.167,193.568 206.719,193.568 "/>
<path clip-path="url(#clip640)" d="M127.848 1962.44 L144.167 1962.44 L144.167 1966.38 L122.223 1966.38 L122.223 1962.44 Q124.885 1959.69 129.468 1955.06 Q134.075 1950.41 135.255 1949.06 Q137.501 1946.54 138.38 1944.8 Q139.283 1943.04 139.283 1941.35 Q139.283 1938.6 137.339 1936.86 Q135.418 1935.13 132.316 1935.13 Q130.117 1935.13 127.663 1935.89 Q125.232 1936.66 122.455 1938.21 L122.455 1933.48 Q125.279 1932.35 127.732 1931.77 Q130.186 1931.19 132.223 1931.19 Q137.593 1931.19 140.788 1933.88 Q143.982 1936.56 143.982 1941.05 Q143.982 1943.18 143.172 1945.1 Q142.385 1947 140.279 1949.6 Q139.7 1950.27 136.598 1953.48 Q133.496 1956.68 127.848 1962.44 Z" fill="#4c4c4c" fill-rule="nonzero" fill-opacity="1" /><path clip-path="url(#clip640)" d="M134.584 1545.77 L122.779 1564.22 L134.584 1564.22 L134.584 1545.77 M133.357 1541.7 L139.237 1541.7 L139.237 1564.22 L144.167 1564.22 L144.167 1568.11 L139.237 1568.11 L139.237 1576.26 L134.584 1576.26 L134.584 1568.11 L118.982 1568.11 L118.982 1563.6 L133.357 1541.7 Z" fill="#4c4c4c" fill-rule="nonzero" fill-opacity="1" /><path clip-path="url(#clip640)" d="M132.64 1167 Q129.492 1167 127.64 1169.15 Q125.811 1171.3 125.811 1175.05 Q125.811 1178.78 127.64 1180.96 Q129.492 1183.11 132.64 1183.11 Q135.788 1183.11 137.617 1180.96 Q139.468 1178.78 139.468 1175.05 Q139.468 1171.3 137.617 1169.15 Q135.788 1167 132.64 1167 M141.922 1152.35 L141.922 1156.61 Q140.163 1155.77 138.357 1155.33 Q136.575 1154.89 134.816 1154.89 Q130.186 1154.89 127.732 1158.02 Q125.302 1161.14 124.955 1167.46 Q126.32 1165.45 128.381 1164.38 Q130.441 1163.3 132.918 1163.3 Q138.126 1163.3 141.135 1166.47 Q144.167 1169.61 144.167 1175.05 Q144.167 1180.38 141.019 1183.6 Q137.871 1186.81 132.64 1186.81 Q126.644 1186.81 123.473 1182.23 Q120.302 1177.62 120.302 1168.9 Q120.302 1160.7 124.191 1155.84 Q128.08 1150.96 134.63 1150.96 Q136.39 1150.96 138.172 1151.3 Q139.978 1151.65 141.922 1152.35 Z" fill="#4c4c4c" fill-rule="nonzero" fill-opacity="1" /><path clip-path="url(#clip640)" d="M132.316 779.613 Q128.982 779.613 127.061 781.395 Q125.163 783.177 125.163 786.302 Q125.163 789.427 127.061 791.21 Q128.982 792.992 132.316 792.992 Q135.649 792.992 137.57 791.21 Q139.492 789.404 139.492 786.302 Q139.492 783.177 137.57 781.395 Q135.672 779.613 132.316 779.613 M127.64 777.622 Q124.631 776.881 122.941 774.821 Q121.274 772.761 121.274 769.798 Q121.274 765.654 124.214 763.247 Q127.177 760.84 132.316 760.84 Q137.478 760.84 140.417 763.247 Q143.357 765.654 143.357 769.798 Q143.357 772.761 141.667 774.821 Q140.001 776.881 137.015 777.622 Q140.394 778.409 142.269 780.701 Q144.167 782.992 144.167 786.302 Q144.167 791.325 141.089 794.011 Q138.033 796.696 132.316 796.696 Q126.598 796.696 123.519 794.011 Q120.464 791.325 120.464 786.302 Q120.464 782.992 122.362 780.701 Q124.26 778.409 127.64 777.622 M125.927 770.238 Q125.927 772.923 127.593 774.427 Q129.283 775.932 132.316 775.932 Q135.325 775.932 137.015 774.427 Q138.728 772.923 138.728 770.238 Q138.728 767.552 137.015 766.048 Q135.325 764.543 132.316 764.543 Q129.283 764.543 127.593 766.048 Q125.927 767.552 125.927 770.238 Z" fill="#4c4c4c" fill-rule="nonzero" fill-opacity="1" /><path clip-path="url(#clip640)" d="M92.8715 401.972 L100.51 401.972 L100.51 375.606 L92.2002 377.273 L92.2002 373.013 L100.464 371.347 L105.14 371.347 L105.14 401.972 L112.779 401.972 L112.779 405.907 L92.8715 405.907 L92.8715 401.972 Z" fill="#4c4c4c" fill-rule="nonzero" fill-opacity="1" /><path clip-path="url(#clip640)" d="M132.223 374.425 Q128.612 374.425 126.783 377.99 Q124.978 381.532 124.978 388.661 Q124.978 395.768 126.783 399.333 Q128.612 402.874 132.223 402.874 Q135.857 402.874 137.663 399.333 Q139.492 395.768 139.492 388.661 Q139.492 381.532 137.663 377.99 Q135.857 374.425 132.223 374.425 M132.223 370.722 Q138.033 370.722 141.089 375.328 Q144.167 379.912 144.167 388.661 Q144.167 397.388 141.089 401.995 Q138.033 406.578 132.223 406.578 Q126.413 406.578 123.334 401.995 Q120.279 397.388 120.279 388.661 Q120.279 379.912 123.334 375.328 Q126.413 370.722 132.223 370.722 Z" fill="#4c4c4c" fill-rule="nonzero" fill-opacity="1" /><path clip-path="url(#clip640)" d="M18.2962 1141.64 L35.6428 1154.53 L53.9442 1140.97 L53.9442 1147.88 L39.9396 1158.26 L53.9442 1168.63 L53.9442 1175.54 L35.2926 1161.69 L18.2962 1174.36 L18.2962 1167.45 L30.9958 1158 L18.2962 1148.55 L18.2962 1141.64 Z" fill="#000000" fill-rule="nonzero" fill-opacity="1" /><path clip-path="url(#clip640)" d="M627.393 20.3876 L627.393 25.4223 Q625.136 24.2649 622.705 23.6862 Q620.275 23.1075 617.671 23.1075 Q613.706 23.1075 611.71 24.3228 Q609.742 25.5381 609.742 27.9686 Q609.742 29.8204 611.16 30.891 Q612.578 31.9327 616.86 32.8876 L618.683 33.2926 Q624.355 34.5079 626.727 36.7359 Q629.129 38.935 629.129 42.8991 Q629.129 47.4129 625.541 50.046 Q621.982 52.6791 615.732 52.6791 Q613.128 52.6791 610.292 52.1583 Q607.485 51.6664 604.36 50.6537 L604.36 45.156 Q607.312 46.6896 610.176 47.4708 Q613.041 48.2231 615.848 48.2231 Q619.609 48.2231 621.635 46.95 Q623.66 45.6479 623.66 43.3042 Q623.66 41.134 622.184 39.9766 Q620.738 38.8192 615.79 37.7486 L613.938 37.3146 Q608.99 36.273 606.791 34.1318 Q604.592 31.9616 604.592 28.2001 Q604.592 23.6283 607.833 21.1399 Q611.073 18.6515 617.034 18.6515 Q619.985 18.6515 622.589 19.0855 Q625.194 19.5196 627.393 20.3876 Z" fill="#000000" fill-rule="nonzero" fill-opacity="1" /><path clip-path="url(#clip640)" d="M650.165 23.1654 Q645.882 23.1654 643.394 26.5218 Q640.905 29.8494 640.905 35.6653 Q640.905 41.4813 643.365 44.8377 Q645.853 48.1653 650.165 48.1653 Q654.418 48.1653 656.906 44.8088 Q659.395 41.4523 659.395 35.6653 Q659.395 29.9072 656.906 26.5508 Q654.418 23.1654 650.165 23.1654 M650.165 18.6515 Q657.109 18.6515 661.073 23.1654 Q665.037 27.6792 665.037 35.6653 Q665.037 43.6225 661.073 48.1653 Q657.109 52.6791 650.165 52.6791 Q643.191 52.6791 639.227 48.1653 Q635.292 43.6225 635.292 35.6653 Q635.292 27.6792 639.227 23.1654 Q643.191 18.6515 650.165 18.6515 Z" fill="#000000" fill-rule="nonzero" fill-opacity="1" /><path clip-path="url(#clip640)" d="M673.862 6.81709 L679.186 6.81709 L679.186 51.84 L673.862 51.84 L673.862 6.81709 Z" fill="#000000" fill-rule="nonzero" fill-opacity="1" /><path clip-path="url(#clip640)" d="M689.777 39.0507 L689.777 19.4328 L695.101 19.4328 L695.101 38.8482 Q695.101 43.4488 696.895 45.7636 Q698.689 48.0495 702.277 48.0495 Q706.588 48.0495 709.076 45.3007 Q711.594 42.5519 711.594 37.8065 L711.594 19.4328 L716.918 19.4328 L716.918 51.84 L711.594 51.84 L711.594 46.8632 Q709.655 49.8145 707.08 51.2613 Q704.533 52.6791 701.148 52.6791 Q695.564 52.6791 692.67 49.2069 Q689.777 45.7347 689.777 39.0507 M703.174 18.6515 L703.174 18.6515 Z" fill="#000000" fill-rule="nonzero" fill-opacity="1" /><path clip-path="url(#clip640)" d="M751.206 20.677 L751.206 25.6538 Q748.949 24.4096 746.663 23.802 Q744.406 23.1654 742.091 23.1654 Q736.912 23.1654 734.047 26.464 Q731.183 29.7336 731.183 35.6653 Q731.183 41.597 734.047 44.8956 Q736.912 48.1653 742.091 48.1653 Q744.406 48.1653 746.663 47.5576 Q748.949 46.921 751.206 45.6768 L751.206 50.5958 Q748.978 51.6375 746.576 52.1583 Q744.203 52.6791 741.512 52.6791 Q734.192 52.6791 729.881 48.0784 Q725.569 43.4778 725.569 35.6653 Q725.569 27.7371 729.91 23.1943 Q734.279 18.6515 741.86 18.6515 Q744.319 18.6515 746.663 19.1724 Q749.007 19.6642 751.206 20.677 M743.683 51.84 Q745.274 53.634 746.055 55.1386 Q746.837 56.6722 746.837 58.061 Q746.837 60.6362 745.1 61.9383 Q743.364 63.2693 739.95 63.2693 Q738.619 63.2693 737.346 63.0957 Q736.102 62.9221 734.857 62.5749 L734.857 58.7844 Q735.841 59.2763 736.912 59.4788 Q737.982 59.7103 739.342 59.7103 Q741.049 59.7103 741.918 59.0159 Q742.786 58.3214 742.786 56.9904 Q742.786 56.1224 742.149 54.8492 Q741.541 53.605 740.239 51.84 L743.683 51.84 Z" fill="#000000" fill-rule="nonzero" fill-opacity="1" /><path clip-path="url(#clip640)" d="M775.193 35.5496 Q768.74 35.5496 766.252 37.0253 Q763.763 38.501 763.763 42.06 Q763.763 44.8956 765.615 46.5738 Q767.496 48.2231 770.708 48.2231 Q775.135 48.2231 777.797 45.0981 Q780.488 41.9442 780.488 36.7359 L780.488 35.5496 L775.193 35.5496 M785.812 33.3505 L785.812 51.84 L780.488 51.84 L780.488 46.921 Q778.665 49.8724 775.945 51.2902 Q773.225 52.6791 769.29 52.6791 Q764.313 52.6791 761.362 49.9014 Q758.439 47.0947 758.439 42.4072 Q758.439 36.9385 762.085 34.1607 Q765.76 31.3829 773.023 31.3829 L780.488 31.3829 L780.488 30.8621 Q780.488 27.1874 778.057 25.1908 Q775.656 23.1654 771.287 23.1654 Q768.509 23.1654 765.876 23.8309 Q763.243 24.4964 760.812 25.8274 L760.812 20.9085 Q763.735 19.78 766.483 19.2302 Q769.232 18.6515 771.836 18.6515 Q778.868 18.6515 782.34 22.2973 Q785.812 25.9431 785.812 33.3505 M771.952 12.199 L770.303 10.6076 Q769.666 10.0289 769.174 9.76847 Q768.711 9.47912 768.335 9.47912 Q767.236 9.47912 766.715 10.5497 Q766.194 11.5914 766.136 13.964 L762.519 13.964 Q762.577 10.0578 764.053 7.94556 Q765.529 5.80437 768.162 5.80437 Q769.261 5.80437 770.187 6.20946 Q771.113 6.61455 772.184 7.5694 L773.833 9.16083 Q774.469 9.73953 774.932 10.0289 Q775.424 10.2893 775.8 10.2893 Q776.9 10.2893 777.421 9.24764 Q777.942 8.17704 778 5.80437 L781.616 5.80437 Q781.559 9.7106 780.083 11.8518 Q778.607 13.964 775.974 13.964 Q774.875 13.964 773.949 13.559 Q773.023 13.1539 771.952 12.199 Z" fill="#000000" fill-rule="nonzero" fill-opacity="1" /><path clip-path="url(#clip640)" d="M809.336 23.1654 Q805.054 23.1654 802.565 26.5218 Q800.077 29.8494 800.077 35.6653 Q800.077 41.4813 802.536 44.8377 Q805.025 48.1653 809.336 48.1653 Q813.59 48.1653 816.078 44.8088 Q818.566 41.4523 818.566 35.6653 Q818.566 29.9072 816.078 26.5508 Q813.59 23.1654 809.336 23.1654 M809.336 18.6515 Q816.281 18.6515 820.245 23.1654 Q824.209 27.6792 824.209 35.6653 Q824.209 43.6225 820.245 48.1653 Q816.281 52.6791 809.336 52.6791 Q802.363 52.6791 798.399 48.1653 Q794.464 43.6225 794.464 35.6653 Q794.464 27.6792 798.399 23.1654 Q802.363 18.6515 809.336 18.6515 Z" fill="#000000" fill-rule="nonzero" fill-opacity="1" /><path clip-path="url(#clip640)" d="M873.196 24.3517 L873.196 6.81709 L878.52 6.81709 L878.52 51.84 L873.196 51.84 L873.196 46.9789 Q871.518 49.8724 868.942 51.2902 Q866.396 52.6791 862.808 52.6791 Q856.934 52.6791 853.231 47.9916 Q849.556 43.3042 849.556 35.6653 Q849.556 28.0265 853.231 23.339 Q856.934 18.6515 862.808 18.6515 Q866.396 18.6515 868.942 20.0693 Q871.518 21.4582 873.196 24.3517 M855.054 35.6653 Q855.054 41.5391 857.455 44.8956 Q859.886 48.2231 864.11 48.2231 Q868.335 48.2231 870.765 44.8956 Q873.196 41.5391 873.196 35.6653 Q873.196 29.7915 870.765 26.464 Q868.335 23.1075 864.11 23.1075 Q859.886 23.1075 857.455 26.464 Q855.054 29.7915 855.054 35.6653 Z" fill="#000000" fill-rule="nonzero" fill-opacity="1" /><path clip-path="url(#clip640)" d="M904.214 35.5496 Q897.762 35.5496 895.273 37.0253 Q892.785 38.501 892.785 42.06 Q892.785 44.8956 894.637 46.5738 Q896.517 48.2231 899.729 48.2231 Q904.156 48.2231 906.818 45.0981 Q909.509 41.9442 909.509 36.7359 L909.509 35.5496 L904.214 35.5496 M914.833 33.3505 L914.833 51.84 L909.509 51.84 L909.509 46.921 Q907.686 49.8724 904.966 51.2902 Q902.247 52.6791 898.311 52.6791 Q893.335 52.6791 890.383 49.9014 Q887.461 47.0947 887.461 42.4072 Q887.461 36.9385 891.107 34.1607 Q894.781 31.3829 902.044 31.3829 L909.509 31.3829 L909.509 30.8621 Q909.509 27.1874 907.079 25.1908 Q904.677 23.1654 900.308 23.1654 Q897.53 23.1654 894.897 23.8309 Q892.264 24.4964 889.833 25.8274 L889.833 20.9085 Q892.756 19.78 895.505 19.2302 Q898.254 18.6515 900.858 18.6515 Q907.889 18.6515 911.361 22.2973 Q914.833 25.9431 914.833 33.3505 Z" fill="#000000" fill-rule="nonzero" fill-opacity="1" /><path clip-path="url(#clip640)" d="M972.356 34.3054 L972.356 36.9095 L947.877 36.9095 Q948.224 42.4072 951.176 45.3007 Q954.156 48.1653 959.451 48.1653 Q962.518 48.1653 965.383 47.4129 Q968.276 46.6606 971.112 45.156 L971.112 50.1907 Q968.247 51.406 965.238 52.0425 Q962.229 52.6791 959.133 52.6791 Q951.378 52.6791 946.835 48.1653 Q942.322 43.6514 942.322 35.9547 Q942.322 27.9975 946.604 23.339 Q950.915 18.6515 958.207 18.6515 Q964.746 18.6515 968.537 22.876 Q972.356 27.0716 972.356 34.3054 M967.032 32.7429 Q966.974 28.3737 964.573 25.7695 Q962.2 23.1654 958.265 23.1654 Q953.809 23.1654 951.118 25.6827 Q948.456 28.2001 948.051 32.7718 L967.032 32.7429 Z" fill="#000000" fill-rule="nonzero" fill-opacity="1" /><path clip-path="url(#clip640)" d="M984.277 35.6653 Q984.277 41.5391 986.679 44.8956 Q989.11 48.2231 993.334 48.2231 Q997.559 48.2231 999.989 44.8956 Q1002.42 41.5391 1002.42 35.6653 Q1002.42 29.7915 999.989 26.464 Q997.559 23.1075 993.334 23.1075 Q989.11 23.1075 986.679 26.464 Q984.277 29.7915 984.277 35.6653 M1002.42 46.9789 Q1000.74 49.8724 998.166 51.2902 Q995.62 52.6791 992.032 52.6791 Q986.158 52.6791 982.454 47.9916 Q978.78 43.3042 978.78 35.6653 Q978.78 28.0265 982.454 23.339 Q986.158 18.6515 992.032 18.6515 Q995.62 18.6515 998.166 20.0693 Q1000.74 21.4582 1002.42 24.3517 L1002.42 19.4328 L1007.74 19.4328 L1007.74 64.1663 L1002.42 64.1663 L1002.42 46.9789 Z" fill="#000000" fill-rule="nonzero" fill-opacity="1" /><path clip-path="url(#clip640)" d="M1018.16 39.0507 L1018.16 19.4328 L1023.48 19.4328 L1023.48 38.8482 Q1023.48 43.4488 1025.28 45.7636 Q1027.07 48.0495 1030.66 48.0495 Q1034.97 48.0495 1037.46 45.3007 Q1039.98 42.5519 1039.98 37.8065 L1039.98 19.4328 L1045.3 19.4328 L1045.3 51.84 L1039.98 51.84 L1039.98 46.8632 Q1038.04 49.8145 1035.46 51.2613 Q1032.92 52.6791 1029.53 52.6791 Q1023.95 52.6791 1021.05 49.2069 Q1018.16 45.7347 1018.16 39.0507 M1031.56 18.6515 L1031.56 18.6515 Z" fill="#000000" fill-rule="nonzero" fill-opacity="1" /><path clip-path="url(#clip640)" d="M1071 35.5496 Q1064.54 35.5496 1062.05 37.0253 Q1059.57 38.501 1059.57 42.06 Q1059.57 44.8956 1061.42 46.5738 Q1063.3 48.2231 1066.51 48.2231 Q1070.94 48.2231 1073.6 45.0981 Q1076.29 41.9442 1076.29 36.7359 L1076.29 35.5496 L1071 35.5496 M1081.61 33.3505 L1081.61 51.84 L1076.29 51.84 L1076.29 46.921 Q1074.47 49.8724 1071.75 51.2902 Q1069.03 52.6791 1065.09 52.6791 Q1060.12 52.6791 1057.16 49.9014 Q1054.24 47.0947 1054.24 42.4072 Q1054.24 36.9385 1057.89 34.1607 Q1061.56 31.3829 1068.83 31.3829 L1076.29 31.3829 L1076.29 30.8621 Q1076.29 27.1874 1073.86 25.1908 Q1071.46 23.1654 1067.09 23.1654 Q1064.31 23.1654 1061.68 23.8309 Q1059.05 24.4964 1056.61 25.8274 L1056.61 20.9085 Q1059.54 19.78 1062.29 19.2302 Q1065.04 18.6515 1067.64 18.6515 Q1074.67 18.6515 1078.14 22.2973 Q1081.61 25.9431 1081.61 33.3505 Z" fill="#000000" fill-rule="nonzero" fill-opacity="1" /><path clip-path="url(#clip640)" d="M1115.9 20.677 L1115.9 25.6538 Q1113.65 24.4096 1111.36 23.802 Q1109.1 23.1654 1106.79 23.1654 Q1101.61 23.1654 1098.74 26.464 Q1095.88 29.7336 1095.88 35.6653 Q1095.88 41.597 1098.74 44.8956 Q1101.61 48.1653 1106.79 48.1653 Q1109.1 48.1653 1111.36 47.5576 Q1113.65 46.921 1115.9 45.6768 L1115.9 50.5958 Q1113.67 51.6375 1111.27 52.1583 Q1108.9 52.6791 1106.21 52.6791 Q1098.89 52.6791 1094.58 48.0784 Q1090.27 43.4778 1090.27 35.6653 Q1090.27 27.7371 1094.61 23.1943 Q1098.98 18.6515 1106.56 18.6515 Q1109.02 18.6515 1111.36 19.1724 Q1113.7 19.6642 1115.9 20.677 M1108.38 51.84 Q1109.97 53.634 1110.75 55.1386 Q1111.53 56.6722 1111.53 58.061 Q1111.53 60.6362 1109.8 61.9383 Q1108.06 63.2693 1104.65 63.2693 Q1103.32 63.2693 1102.04 63.0957 Q1100.8 62.9221 1099.55 62.5749 L1099.55 58.7844 Q1100.54 59.2763 1101.61 59.4788 Q1102.68 59.7103 1104.04 59.7103 Q1105.75 59.7103 1106.61 59.0159 Q1107.48 58.3214 1107.48 56.9904 Q1107.48 56.1224 1106.85 54.8492 Q1106.24 53.605 1104.94 51.84 L1108.38 51.84 Z" fill="#000000" fill-rule="nonzero" fill-opacity="1" /><path clip-path="url(#clip640)" d="M1139.89 35.5496 Q1133.44 35.5496 1130.95 37.0253 Q1128.46 38.501 1128.46 42.06 Q1128.46 44.8956 1130.31 46.5738 Q1132.19 48.2231 1135.41 48.2231 Q1139.83 48.2231 1142.49 45.0981 Q1145.19 41.9442 1145.19 36.7359 L1145.19 35.5496 L1139.89 35.5496 M1150.51 33.3505 L1150.51 51.84 L1145.19 51.84 L1145.19 46.921 Q1143.36 49.8724 1140.64 51.2902 Q1137.92 52.6791 1133.99 52.6791 Q1129.01 52.6791 1126.06 49.9014 Q1123.14 47.0947 1123.14 42.4072 Q1123.14 36.9385 1126.78 34.1607 Q1130.46 31.3829 1137.72 31.3829 L1145.19 31.3829 L1145.19 30.8621 Q1145.19 27.1874 1142.75 25.1908 Q1140.35 23.1654 1135.98 23.1654 Q1133.21 23.1654 1130.57 23.8309 Q1127.94 24.4964 1125.51 25.8274 L1125.51 20.9085 Q1128.43 19.78 1131.18 19.2302 Q1133.93 18.6515 1136.53 18.6515 Q1143.56 18.6515 1147.04 22.2973 Q1150.51 25.9431 1150.51 33.3505 M1136.65 12.199 L1135 10.6076 Q1134.36 10.0289 1133.87 9.76847 Q1133.41 9.47912 1133.03 9.47912 Q1131.93 9.47912 1131.41 10.5497 Q1130.89 11.5914 1130.83 13.964 L1127.22 13.964 Q1127.27 10.0578 1128.75 7.94556 Q1130.23 5.80437 1132.86 5.80437 Q1133.96 5.80437 1134.88 6.20946 Q1135.81 6.61455 1136.88 7.5694 L1138.53 9.16083 Q1139.17 9.73953 1139.63 10.0289 Q1140.12 10.2893 1140.5 10.2893 Q1141.6 10.2893 1142.12 9.24764 Q1142.64 8.17704 1142.7 5.80437 L1146.31 5.80437 Q1146.26 9.7106 1144.78 11.8518 Q1143.3 13.964 1140.67 13.964 Q1139.57 13.964 1138.65 13.559 Q1137.72 13.1539 1136.65 12.199 Z" fill="#000000" fill-rule="nonzero" fill-opacity="1" /><path clip-path="url(#clip640)" d="M1174.03 23.1654 Q1169.75 23.1654 1167.26 26.5218 Q1164.77 29.8494 1164.77 35.6653 Q1164.77 41.4813 1167.23 44.8377 Q1169.72 48.1653 1174.03 48.1653 Q1178.29 48.1653 1180.78 44.8088 Q1183.26 41.4523 1183.26 35.6653 Q1183.26 29.9072 1180.78 26.5508 Q1178.29 23.1654 1174.03 23.1654 M1174.03 18.6515 Q1180.98 18.6515 1184.94 23.1654 Q1188.91 27.6792 1188.91 35.6653 Q1188.91 43.6225 1184.94 48.1653 Q1180.98 52.6791 1174.03 52.6791 Q1167.06 52.6791 1163.1 48.1653 Q1159.16 43.6225 1159.16 35.6653 Q1159.16 27.6792 1163.1 23.1654 Q1167.06 18.6515 1174.03 18.6515 Z" fill="#000000" fill-rule="nonzero" fill-opacity="1" /><path clip-path="url(#clip640)" d="M1237.89 24.3517 L1237.89 6.81709 L1243.22 6.81709 L1243.22 51.84 L1237.89 51.84 L1237.89 46.9789 Q1236.21 49.8724 1233.64 51.2902 Q1231.09 52.6791 1227.51 52.6791 Q1221.63 52.6791 1217.93 47.9916 Q1214.25 43.3042 1214.25 35.6653 Q1214.25 28.0265 1217.93 23.339 Q1221.63 18.6515 1227.51 18.6515 Q1231.09 18.6515 1233.64 20.0693 Q1236.21 21.4582 1237.89 24.3517 M1219.75 35.6653 Q1219.75 41.5391 1222.15 44.8956 Q1224.58 48.2231 1228.81 48.2231 Q1233.03 48.2231 1235.46 44.8956 Q1237.89 41.5391 1237.89 35.6653 Q1237.89 29.7915 1235.46 26.464 Q1233.03 23.1075 1228.81 23.1075 Q1224.58 23.1075 1222.15 26.464 Q1219.75 29.7915 1219.75 35.6653 Z" fill="#000000" fill-rule="nonzero" fill-opacity="1" /><path clip-path="url(#clip640)" d="M1254.18 19.4328 L1259.51 19.4328 L1259.51 51.84 L1254.18 51.84 L1254.18 19.4328 M1254.18 6.81709 L1259.51 6.81709 L1259.51 13.559 L1254.18 13.559 L1254.18 6.81709 Z" fill="#000000" fill-rule="nonzero" fill-opacity="1" /><path clip-path="url(#clip640)" d="M1287.05 6.81709 L1287.05 11.2442 L1281.96 11.2442 Q1279.1 11.2442 1277.97 12.4016 Q1276.87 13.559 1276.87 16.5682 L1276.87 19.4328 L1285.64 19.4328 L1285.64 23.5705 L1276.87 23.5705 L1276.87 51.84 L1271.52 51.84 L1271.52 23.5705 L1266.42 23.5705 L1266.42 19.4328 L1271.52 19.4328 L1271.52 17.1758 Q1271.52 11.765 1274.03 9.30551 Q1276.55 6.81709 1282.02 6.81709 L1287.05 6.81709 Z" fill="#000000" fill-rule="nonzero" fill-opacity="1" /><path clip-path="url(#clip640)" d="M1319.23 34.3054 L1319.23 36.9095 L1294.75 36.9095 Q1295.1 42.4072 1298.05 45.3007 Q1301.03 48.1653 1306.32 48.1653 Q1309.39 48.1653 1312.26 47.4129 Q1315.15 46.6606 1317.99 45.156 L1317.99 50.1907 Q1315.12 51.406 1312.11 52.0425 Q1309.1 52.6791 1306.01 52.6791 Q1298.25 52.6791 1293.71 48.1653 Q1289.19 43.6514 1289.19 35.9547 Q1289.19 27.9975 1293.48 23.339 Q1297.79 18.6515 1305.08 18.6515 Q1311.62 18.6515 1315.41 22.876 Q1319.23 27.0716 1319.23 34.3054 M1313.91 32.7429 Q1313.85 28.3737 1311.45 25.7695 Q1309.07 23.1654 1305.14 23.1654 Q1300.68 23.1654 1297.99 25.6827 Q1295.33 28.2001 1294.92 32.7718 L1313.91 32.7429 Z" fill="#000000" fill-rule="nonzero" fill-opacity="1" /><path clip-path="url(#clip640)" d="M1346.75 24.4096 Q1345.85 23.8888 1344.78 23.6573 Q1343.74 23.3969 1342.46 23.3969 Q1337.95 23.3969 1335.52 26.3482 Q1333.12 29.2707 1333.12 34.7683 L1333.12 51.84 L1327.77 51.84 L1327.77 19.4328 L1333.12 19.4328 L1333.12 24.4675 Q1334.8 21.5161 1337.49 20.0983 Q1340.18 18.6515 1344.03 18.6515 Q1344.58 18.6515 1345.24 18.7383 Q1345.91 18.7962 1346.72 18.9409 L1346.75 24.4096 Z" fill="#000000" fill-rule="nonzero" fill-opacity="1" /><path clip-path="url(#clip640)" d="M1378.75 34.3054 L1378.75 36.9095 L1354.27 36.9095 Q1354.62 42.4072 1357.57 45.3007 Q1360.55 48.1653 1365.84 48.1653 Q1368.91 48.1653 1371.78 47.4129 Q1374.67 46.6606 1377.5 45.156 L1377.5 50.1907 Q1374.64 51.406 1371.63 52.0425 Q1368.62 52.6791 1365.53 52.6791 Q1357.77 52.6791 1353.23 48.1653 Q1348.71 43.6514 1348.71 35.9547 Q1348.71 27.9975 1353 23.339 Q1357.31 18.6515 1364.6 18.6515 Q1371.14 18.6515 1374.93 22.876 Q1378.75 27.0716 1378.75 34.3054 M1373.42 32.7429 Q1373.37 28.3737 1370.97 25.7695 Q1368.59 23.1654 1364.66 23.1654 Q1360.2 23.1654 1357.51 25.6827 Q1354.85 28.2001 1354.44 32.7718 L1373.42 32.7429 Z" fill="#000000" fill-rule="nonzero" fill-opacity="1" /><path clip-path="url(#clip640)" d="M1414.43 32.2799 L1414.43 51.84 L1409.1 51.84 L1409.1 32.4535 Q1409.1 27.8529 1407.31 25.567 Q1405.51 23.2811 1401.93 23.2811 Q1397.61 23.2811 1395.13 26.03 Q1392.64 28.7788 1392.64 33.5241 L1392.64 51.84 L1387.28 51.84 L1387.28 19.4328 L1392.64 19.4328 L1392.64 24.4675 Q1394.55 21.545 1397.12 20.0983 Q1399.73 18.6515 1403.11 18.6515 Q1408.7 18.6515 1411.56 22.1237 Q1414.43 25.567 1414.43 32.2799 Z" fill="#000000" fill-rule="nonzero" fill-opacity="1" /><path clip-path="url(#clip640)" d="M1448.37 20.677 L1448.37 25.6538 Q1446.11 24.4096 1443.82 23.802 Q1441.57 23.1654 1439.25 23.1654 Q1434.07 23.1654 1431.21 26.464 Q1428.34 29.7336 1428.34 35.6653 Q1428.34 41.597 1431.21 44.8956 Q1434.07 48.1653 1439.25 48.1653 Q1441.57 48.1653 1443.82 47.5576 Q1446.11 46.921 1448.37 45.6768 L1448.37 50.5958 Q1446.14 51.6375 1443.74 52.1583 Q1441.36 52.6791 1438.67 52.6791 Q1431.35 52.6791 1427.04 48.0784 Q1422.73 43.4778 1422.73 35.6653 Q1422.73 27.7371 1427.07 23.1943 Q1431.44 18.6515 1439.02 18.6515 Q1441.48 18.6515 1443.82 19.1724 Q1446.17 19.6642 1448.37 20.677 Z" fill="#000000" fill-rule="nonzero" fill-opacity="1" /><path clip-path="url(#clip640)" d="M1457.63 19.4328 L1462.95 19.4328 L1462.95 51.84 L1457.63 51.84 L1457.63 19.4328 M1457.63 6.81709 L1462.95 6.81709 L1462.95 13.559 L1457.63 13.559 L1457.63 6.81709 Z" fill="#000000" fill-rule="nonzero" fill-opacity="1" /><path clip-path="url(#clip640)" d="M1488.82 35.5496 Q1482.36 35.5496 1479.88 37.0253 Q1477.39 38.501 1477.39 42.06 Q1477.39 44.8956 1479.24 46.5738 Q1481.12 48.2231 1484.33 48.2231 Q1488.76 48.2231 1491.42 45.0981 Q1494.11 41.9442 1494.11 36.7359 L1494.11 35.5496 L1488.82 35.5496 M1499.44 33.3505 L1499.44 51.84 L1494.11 51.84 L1494.11 46.921 Q1492.29 49.8724 1489.57 51.2902 Q1486.85 52.6791 1482.91 52.6791 Q1477.94 52.6791 1474.99 49.9014 Q1472.06 47.0947 1472.06 42.4072 Q1472.06 36.9385 1475.71 34.1607 Q1479.38 31.3829 1486.65 31.3829 L1494.11 31.3829 L1494.11 30.8621 Q1494.11 27.1874 1491.68 25.1908 Q1489.28 23.1654 1484.91 23.1654 Q1482.13 23.1654 1479.5 23.8309 Q1476.87 24.4964 1474.44 25.8274 L1474.44 20.9085 Q1477.36 19.78 1480.11 19.2302 Q1482.86 18.6515 1485.46 18.6515 Q1492.49 18.6515 1495.96 22.2973 Q1499.44 25.9431 1499.44 33.3505 Z" fill="#000000" fill-rule="nonzero" fill-opacity="1" /><path clip-path="url(#clip640)" d="M1510.4 6.81709 L1515.73 6.81709 L1515.73 51.84 L1510.4 51.84 L1510.4 6.81709 Z" fill="#000000" fill-rule="nonzero" fill-opacity="1" /><path clip-path="url(#clip640)" d="M1560.43 35.5496 Q1553.98 35.5496 1551.49 37.0253 Q1549 38.501 1549 42.06 Q1549 44.8956 1550.85 46.5738 Q1552.73 48.2231 1555.95 48.2231 Q1560.37 48.2231 1563.04 45.0981 Q1565.73 41.9442 1565.73 36.7359 L1565.73 35.5496 L1560.43 35.5496 M1571.05 33.3505 L1571.05 51.84 L1565.73 51.84 L1565.73 46.921 Q1563.9 49.8724 1561.18 51.2902 Q1558.46 52.6791 1554.53 52.6791 Q1549.55 52.6791 1546.6 49.9014 Q1543.68 47.0947 1543.68 42.4072 Q1543.68 36.9385 1547.32 34.1607 Q1551 31.3829 1558.26 31.3829 L1565.73 31.3829 L1565.73 30.8621 Q1565.73 27.1874 1563.3 25.1908 Q1560.89 23.1654 1556.53 23.1654 Q1553.75 23.1654 1551.11 23.8309 Q1548.48 24.4964 1546.05 25.8274 L1546.05 20.9085 Q1548.97 19.78 1551.72 19.2302 Q1554.47 18.6515 1557.08 18.6515 Q1564.11 18.6515 1567.58 22.2973 Q1571.05 25.9431 1571.05 33.3505 Z" fill="#000000" fill-rule="nonzero" fill-opacity="1" /><path clip-path="url(#clip640)" d="M1582.02 6.81709 L1587.34 6.81709 L1587.34 51.84 L1582.02 51.84 L1582.02 6.81709 Z" fill="#000000" fill-rule="nonzero" fill-opacity="1" /><path clip-path="url(#clip640)" d="M1626.2 34.3054 L1626.2 36.9095 L1601.72 36.9095 Q1602.07 42.4072 1605.02 45.3007 Q1608 48.1653 1613.3 48.1653 Q1616.36 48.1653 1619.23 47.4129 Q1622.12 46.6606 1624.96 45.156 L1624.96 50.1907 Q1622.09 51.406 1619.08 52.0425 Q1616.07 52.6791 1612.98 52.6791 Q1605.22 52.6791 1600.68 48.1653 Q1596.17 43.6514 1596.17 35.9547 Q1596.17 27.9975 1600.45 23.339 Q1604.76 18.6515 1612.05 18.6515 Q1618.59 18.6515 1622.38 22.876 Q1626.2 27.0716 1626.2 34.3054 M1620.88 32.7429 Q1620.82 28.3737 1618.42 25.7695 Q1616.04 23.1654 1612.11 23.1654 Q1607.65 23.1654 1604.96 25.6827 Q1602.3 28.2001 1601.9 32.7718 L1620.88 32.7429 Z" fill="#000000" fill-rule="nonzero" fill-opacity="1" /><path clip-path="url(#clip640)" d="M1649.67 35.5496 Q1643.21 35.5496 1640.73 37.0253 Q1638.24 38.501 1638.24 42.06 Q1638.24 44.8956 1640.09 46.5738 Q1641.97 48.2231 1645.18 48.2231 Q1649.61 48.2231 1652.27 45.0981 Q1654.96 41.9442 1654.96 36.7359 L1654.96 35.5496 L1649.67 35.5496 M1660.29 33.3505 L1660.29 51.84 L1654.96 51.84 L1654.96 46.921 Q1653.14 49.8724 1650.42 51.2902 Q1647.7 52.6791 1643.76 52.6791 Q1638.79 52.6791 1635.84 49.9014 Q1632.91 47.0947 1632.91 42.4072 Q1632.91 36.9385 1636.56 34.1607 Q1640.23 31.3829 1647.5 31.3829 L1654.96 31.3829 L1654.96 30.8621 Q1654.96 27.1874 1652.53 25.1908 Q1650.13 23.1654 1645.76 23.1654 Q1642.98 23.1654 1640.35 23.8309 Q1637.72 24.4964 1635.29 25.8274 L1635.29 20.9085 Q1638.21 19.78 1640.96 19.2302 Q1643.71 18.6515 1646.31 18.6515 Q1653.34 18.6515 1656.81 22.2973 Q1660.29 25.9431 1660.29 33.3505 Z" fill="#000000" fill-rule="nonzero" fill-opacity="1" /><path clip-path="url(#clip640)" d="M1676.52 10.2314 L1676.52 19.4328 L1687.49 19.4328 L1687.49 23.5705 L1676.52 23.5705 L1676.52 41.163 Q1676.52 45.1271 1677.59 46.2555 Q1678.69 47.384 1682.02 47.384 L1687.49 47.384 L1687.49 51.84 L1682.02 51.84 Q1675.85 51.84 1673.51 49.5541 Q1671.17 47.2393 1671.17 41.163 L1671.17 23.5705 L1667.26 23.5705 L1667.26 19.4328 L1671.17 19.4328 L1671.17 10.2314 L1676.52 10.2314 Z" fill="#000000" fill-rule="nonzero" fill-opacity="1" /><path clip-path="url(#clip640)" d="M1707.05 23.1654 Q1702.76 23.1654 1700.27 26.5218 Q1697.79 29.8494 1697.79 35.6653 Q1697.79 41.4813 1700.25 44.8377 Q1702.73 48.1653 1707.05 48.1653 Q1711.3 48.1653 1713.79 44.8088 Q1716.28 41.4523 1716.28 35.6653 Q1716.28 29.9072 1713.79 26.5508 Q1711.3 23.1654 1707.05 23.1654 M1707.05 18.6515 Q1713.99 18.6515 1717.95 23.1654 Q1721.92 27.6792 1721.92 35.6653 Q1721.92 43.6225 1717.95 48.1653 Q1713.99 52.6791 1707.05 52.6791 Q1700.07 52.6791 1696.11 48.1653 Q1692.17 43.6225 1692.17 35.6653 Q1692.17 27.6792 1696.11 23.1654 Q1700.07 18.6515 1707.05 18.6515 M1711.07 4.44442 L1716.83 4.44442 L1707.39 15.324 L1702.97 15.324 L1711.07 4.44442 Z" fill="#000000" fill-rule="nonzero" fill-opacity="1" /><path clip-path="url(#clip640)" d="M1749.52 24.4096 Q1748.63 23.8888 1747.55 23.6573 Q1746.51 23.3969 1745.24 23.3969 Q1740.73 23.3969 1738.3 26.3482 Q1735.89 29.2707 1735.89 34.7683 L1735.89 51.84 L1730.54 51.84 L1730.54 19.4328 L1735.89 19.4328 L1735.89 24.4675 Q1737.57 21.5161 1740.26 20.0983 Q1742.95 18.6515 1746.8 18.6515 Q1747.35 18.6515 1748.02 18.7383 Q1748.68 18.7962 1749.49 18.9409 L1749.52 24.4096 Z" fill="#000000" fill-rule="nonzero" fill-opacity="1" /><path clip-path="url(#clip640)" d="M1755.11 19.4328 L1760.43 19.4328 L1760.43 51.84 L1755.11 51.84 L1755.11 19.4328 M1755.11 6.81709 L1760.43 6.81709 L1760.43 13.559 L1755.11 13.559 L1755.11 6.81709 Z" fill="#000000" fill-rule="nonzero" fill-opacity="1" /><path clip-path="url(#clip640)" d="M1786.3 35.5496 Q1779.85 35.5496 1777.36 37.0253 Q1774.87 38.501 1774.87 42.06 Q1774.87 44.8956 1776.72 46.5738 Q1778.6 48.2231 1781.81 48.2231 Q1786.24 48.2231 1788.9 45.0981 Q1791.59 41.9442 1791.59 36.7359 L1791.59 35.5496 L1786.3 35.5496 M1796.92 33.3505 L1796.92 51.84 L1791.59 51.84 L1791.59 46.921 Q1789.77 49.8724 1787.05 51.2902 Q1784.33 52.6791 1780.4 52.6791 Q1775.42 52.6791 1772.47 49.9014 Q1769.55 47.0947 1769.55 42.4072 Q1769.55 36.9385 1773.19 34.1607 Q1776.87 31.3829 1784.13 31.3829 L1791.59 31.3829 L1791.59 30.8621 Q1791.59 27.1874 1789.16 25.1908 Q1786.76 23.1654 1782.39 23.1654 Q1779.61 23.1654 1776.98 23.8309 Q1774.35 24.4964 1771.92 25.8274 L1771.92 20.9085 Q1774.84 19.78 1777.59 19.2302 Q1780.34 18.6515 1782.94 18.6515 Q1789.97 18.6515 1793.45 22.2973 Q1796.92 25.9431 1796.92 33.3505 Z" fill="#000000" fill-rule="nonzero" fill-opacity="1" /><path clip-path="url(#clip640)" d="M1831.76 4.44442 L1839.92 15.2661 L1835.49 15.2661 L1826.06 4.44442 L1831.76 4.44442 Z" fill="#000000" fill-rule="nonzero" fill-opacity="1" /><path clip-path="url(#clip640)" d="M1855.8 39.0507 L1855.8 19.4328 L1861.12 19.4328 L1861.12 38.8482 Q1861.12 43.4488 1862.92 45.7636 Q1864.71 48.0495 1868.3 48.0495 Q1872.61 48.0495 1875.1 45.3007 Q1877.62 42.5519 1877.62 37.8065 L1877.62 19.4328 L1882.94 19.4328 L1882.94 51.84 L1877.62 51.84 L1877.62 46.8632 Q1875.68 49.8145 1873.1 51.2613 Q1870.56 52.6791 1867.17 52.6791 Q1861.59 52.6791 1858.69 49.2069 Q1855.8 45.7347 1855.8 39.0507 M1869.2 18.6515 L1869.2 18.6515 Z" fill="#000000" fill-rule="nonzero" fill-opacity="1" /><path clip-path="url(#clip640)" d="M1898.94 8.64 L1898.94 24.6989 L1894.02 24.6989 L1894.02 8.64 L1898.94 8.64 Z" fill="#000000" fill-rule="nonzero" fill-opacity="1" /><path clip-path="url(#clip640)" d="M1929.73 24.9304 L1966.82 24.9304 L1966.82 29.7915 L1929.73 29.7915 L1929.73 24.9304 M1929.73 36.7359 L1966.82 36.7359 L1966.82 41.6549 L1929.73 41.6549 L1929.73 36.7359 Z" fill="#000000" fill-rule="nonzero" fill-opacity="1" /><path clip-path="url(#clip640)" d="M2018.18 20.3876 L2018.18 25.4223 Q2015.93 24.2649 2013.5 23.6862 Q2011.07 23.1075 2008.46 23.1075 Q2004.5 23.1075 2002.5 24.3228 Q2000.53 25.5381 2000.53 27.9686 Q2000.53 29.8204 2001.95 30.891 Q2003.37 31.9327 2007.65 32.8876 L2009.47 33.2926 Q2015.15 34.5079 2017.52 36.7359 Q2019.92 38.935 2019.92 42.8991 Q2019.92 47.4129 2016.33 50.046 Q2012.77 52.6791 2006.52 52.6791 Q2003.92 52.6791 2001.08 52.1583 Q1998.28 51.6664 1995.15 50.6537 L1995.15 45.156 Q1998.1 46.6896 2000.97 47.4708 Q2003.83 48.2231 2006.64 48.2231 Q2010.4 48.2231 2012.43 46.95 Q2014.45 45.6479 2014.45 43.3042 Q2014.45 41.134 2012.98 39.9766 Q2011.53 38.8192 2006.58 37.7486 L2004.73 37.3146 Q1999.78 36.273 1997.58 34.1318 Q1995.38 31.9616 1995.38 28.2001 Q1995.38 23.6283 1998.62 21.1399 Q2001.86 18.6515 2007.83 18.6515 Q2010.78 18.6515 2013.38 19.0855 Q2015.98 19.5196 2018.18 20.3876 Z" fill="#000000" fill-rule="nonzero" fill-opacity="1" /><path clip-path="url(#clip640)" d="M2028.4 19.4328 L2033.72 19.4328 L2033.72 51.84 L2028.4 51.84 L2028.4 19.4328 M2028.4 6.81709 L2033.72 6.81709 L2033.72 13.559 L2028.4 13.559 L2028.4 6.81709 Z" fill="#000000" fill-rule="nonzero" fill-opacity="1" /><path clip-path="url(#clip640)" d="M2071.8 32.2799 L2071.8 51.84 L2066.48 51.84 L2066.48 32.4535 Q2066.48 27.8529 2064.68 25.567 Q2062.89 23.2811 2059.3 23.2811 Q2054.99 23.2811 2052.5 26.03 Q2050.01 28.7788 2050.01 33.5241 L2050.01 51.84 L2044.66 51.84 L2044.66 19.4328 L2050.01 19.4328 L2050.01 24.4675 Q2051.92 21.545 2054.5 20.0983 Q2057.1 18.6515 2060.49 18.6515 Q2066.07 18.6515 2068.94 22.1237 Q2071.8 25.567 2071.8 32.2799 Z" fill="#000000" fill-rule="nonzero" fill-opacity="1" /><path clip-path="url(#clip640)" d="M2095.21 6.87496 Q2091.33 13.53 2089.45 20.0404 Q2087.57 26.5508 2087.57 33.2348 Q2087.57 39.9188 2089.45 46.487 Q2091.36 53.0263 2095.21 59.6525 L2090.58 59.6525 Q2086.24 52.8527 2084.07 46.2845 Q2081.93 39.7162 2081.93 33.2348 Q2081.93 26.7823 2084.07 20.2429 Q2086.21 13.7036 2090.58 6.87496 L2095.21 6.87496 Z" fill="#000000" fill-rule="nonzero" fill-opacity="1" /><path clip-path="url(#clip640)" d="M2101.92 8.64 L2107.82 8.64 L2116.91 45.156 L2125.97 8.64 L2132.54 8.64 L2141.62 45.156 L2150.68 8.64 L2156.61 8.64 L2145.76 51.84 L2138.41 51.84 L2129.29 14.3402 L2120.09 51.84 L2112.74 51.84 L2101.92 8.64 Z" fill="#000000" fill-rule="nonzero" fill-opacity="1" /><path clip-path="url(#clip640)" d="M2163.29 6.87496 L2167.92 6.87496 Q2172.26 13.7036 2174.4 20.2429 Q2176.57 26.7823 2176.57 33.2348 Q2176.57 39.7162 2174.4 46.2845 Q2172.26 52.8527 2167.92 59.6525 L2163.29 59.6525 Q2167.14 53.0263 2169.02 46.487 Q2170.93 39.9188 2170.93 33.2348 Q2170.93 26.5508 2169.02 20.0404 Q2167.14 13.53 2163.29 6.87496 Z" fill="#000000" fill-rule="nonzero" fill-opacity="1" /><path clip-path="url(#clip640)" d="M2186.7 39.0507 L2186.7 19.4328 L2192.03 19.4328 L2192.03 38.8482 Q2192.03 43.4488 2193.82 45.7636 Q2195.61 48.0495 2199.2 48.0495 Q2203.51 48.0495 2206 45.3007 Q2208.52 42.5519 2208.52 37.8065 L2208.52 19.4328 L2213.84 19.4328 L2213.84 51.84 L2208.52 51.84 L2208.52 46.8632 Q2206.58 49.8145 2204 51.2613 Q2201.46 52.6791 2198.07 52.6791 Q2192.49 52.6791 2189.59 49.2069 Q2186.7 45.7347 2186.7 39.0507 M2200.1 18.6515 L2200.1 18.6515 Z" fill="#000000" fill-rule="nonzero" fill-opacity="1" /><path clip-path="url(#clip640)" d="M2229.84 4.44442 L2238 15.2661 L2233.58 15.2661 L2224.14 4.44442 L2229.84 4.44442 Z" fill="#000000" fill-rule="nonzero" fill-opacity="1" /><path clip-path="url(#clip640)" d="M2296.6 20.677 L2296.6 25.6538 Q2294.34 24.4096 2292.05 23.802 Q2289.8 23.1654 2287.48 23.1654 Q2282.3 23.1654 2279.44 26.464 Q2276.57 29.7336 2276.57 35.6653 Q2276.57 41.597 2279.44 44.8956 Q2282.3 48.1653 2287.48 48.1653 Q2289.8 48.1653 2292.05 47.5576 Q2294.34 46.921 2296.6 45.6768 L2296.6 50.5958 Q2294.37 51.6375 2291.97 52.1583 Q2289.59 52.6791 2286.9 52.6791 Q2279.58 52.6791 2275.27 48.0784 Q2270.96 43.4778 2270.96 35.6653 Q2270.96 27.7371 2275.3 23.1943 Q2279.67 18.6515 2287.25 18.6515 Q2289.71 18.6515 2292.05 19.1724 Q2294.4 19.6642 2296.6 20.677 Z" fill="#000000" fill-rule="nonzero" fill-opacity="1" /><path clip-path="url(#clip640)" d="M2318.41 23.1654 Q2314.13 23.1654 2311.64 26.5218 Q2309.15 29.8494 2309.15 35.6653 Q2309.15 41.4813 2311.61 44.8377 Q2314.1 48.1653 2318.41 48.1653 Q2322.67 48.1653 2325.16 44.8088 Q2327.64 41.4523 2327.64 35.6653 Q2327.64 29.9072 2325.16 26.5508 Q2322.67 23.1654 2318.41 23.1654 M2318.41 18.6515 Q2325.36 18.6515 2329.32 23.1654 Q2333.29 27.6792 2333.29 35.6653 Q2333.29 43.6225 2329.32 48.1653 Q2325.36 52.6791 2318.41 52.6791 Q2311.44 52.6791 2307.48 48.1653 Q2303.54 43.6225 2303.54 35.6653 Q2303.54 27.6792 2307.48 23.1654 Q2311.44 18.6515 2318.41 18.6515 Z" fill="#000000" fill-rule="nonzero" fill-opacity="1" /><path clip-path="url(#clip640)" d="M2367.34 25.6538 Q2369.34 22.0659 2372.12 20.3587 Q2374.89 18.6515 2378.66 18.6515 Q2383.72 18.6515 2386.47 22.2105 Q2389.22 25.7406 2389.22 32.2799 L2389.22 51.84 L2383.86 51.84 L2383.86 32.4535 Q2383.86 27.795 2382.22 25.5381 Q2380.57 23.2811 2377.18 23.2811 Q2373.04 23.2811 2370.64 26.03 Q2368.24 28.7788 2368.24 33.5241 L2368.24 51.84 L2362.89 51.84 L2362.89 32.4535 Q2362.89 27.7661 2361.24 25.5381 Q2359.59 23.2811 2356.15 23.2811 Q2352.07 23.2811 2349.66 26.0589 Q2347.26 28.8077 2347.26 33.5241 L2347.26 51.84 L2341.91 51.84 L2341.91 19.4328 L2347.26 19.4328 L2347.26 24.4675 Q2349.08 21.4872 2351.63 20.0693 Q2354.18 18.6515 2357.68 18.6515 Q2361.21 18.6515 2363.67 20.4455 Q2366.16 22.2395 2367.34 25.6538 Z" fill="#000000" fill-rule="nonzero" fill-opacity="1" /><path clip-path="url(#clip640)" d="M2423.71 4.44442 L2431.87 15.2661 L2427.44 15.2661 L2418.01 4.44442 L2423.71 4.44442 Z" fill="#000000" fill-rule="nonzero" fill-opacity="1" /><path clip-path="url(#clip640)" d="M2447.75 39.0507 L2447.75 19.4328 L2453.08 19.4328 L2453.08 38.8482 Q2453.08 43.4488 2454.87 45.7636 Q2456.67 48.0495 2460.25 48.0495 Q2464.56 48.0495 2467.05 45.3007 Q2469.57 42.5519 2469.57 37.8065 L2469.57 19.4328 L2474.89 19.4328 L2474.89 51.84 L2469.57 51.84 L2469.57 46.8632 Q2467.63 49.8145 2465.06 51.2613 Q2462.51 52.6791 2459.12 52.6791 Q2453.54 52.6791 2450.65 49.2069 Q2447.75 45.7347 2447.75 39.0507 M2461.15 18.6515 L2461.15 18.6515 Z" fill="#000000" fill-rule="nonzero" fill-opacity="1" /><path clip-path="url(#clip640)" d="M2498.65 6.87496 Q2494.77 13.53 2492.89 20.0404 Q2491.01 26.5508 2491.01 33.2348 Q2491.01 39.9188 2492.89 46.487 Q2494.8 53.0263 2498.65 59.6525 L2494.02 59.6525 Q2489.68 52.8527 2487.51 46.2845 Q2485.37 39.7162 2485.37 33.2348 Q2485.37 26.7823 2487.51 20.2429 Q2489.65 13.7036 2494.02 6.87496 L2498.65 6.87496 Z" fill="#000000" fill-rule="nonzero" fill-opacity="1" /><path clip-path="url(#clip640)" d="M2522.23 12.4884 Q2517.72 12.4884 2515.43 16.9444 Q2513.18 21.3714 2513.18 30.2834 Q2513.18 39.1665 2515.43 43.6225 Q2517.72 48.0495 2522.23 48.0495 Q2526.77 48.0495 2529.03 43.6225 Q2531.32 39.1665 2531.32 30.2834 Q2531.32 21.3714 2529.03 16.9444 Q2526.77 12.4884 2522.23 12.4884 M2522.23 7.85875 Q2529.49 7.85875 2533.31 13.6168 Q2537.16 19.346 2537.16 30.2834 Q2537.16 41.1919 2533.31 46.95 Q2529.49 52.6791 2522.23 52.6791 Q2514.97 52.6791 2511.12 46.95 Q2507.3 41.1919 2507.3 30.2834 Q2507.3 19.346 2511.12 13.6168 Q2514.97 7.85875 2522.23 7.85875 Z" fill="#000000" fill-rule="nonzero" fill-opacity="1" /><path clip-path="url(#clip640)" d="M2545.84 6.87496 L2550.47 6.87496 Q2554.81 13.7036 2556.95 20.2429 Q2559.12 26.7823 2559.12 33.2348 Q2559.12 39.7162 2556.95 46.2845 Q2554.81 52.8527 2550.47 59.6525 L2545.84 59.6525 Q2549.69 53.0263 2551.57 46.487 Q2553.48 39.9188 2553.48 33.2348 Q2553.48 26.5508 2551.57 20.0404 Q2549.69 13.53 2545.84 6.87496 Z" fill="#000000" fill-rule="nonzero" fill-opacity="1" /><path clip-path="url(#clip640)" d="M2589.33 24.9304 L2626.43 24.9304 L2626.43 29.7915 L2589.33 29.7915 L2589.33 24.9304 M2589.33 36.7359 L2626.43 36.7359 L2626.43 41.6549 L2589.33 41.6549 L2589.33 36.7359 Z" fill="#000000" fill-rule="nonzero" fill-opacity="1" /><path clip-path="url(#clip640)" d="M2658.89 46.921 L2668.44 46.921 L2668.44 13.964 L2658.05 16.0474 L2658.05 10.7233 L2668.38 8.64 L2674.23 8.64 L2674.23 46.921 L2683.78 46.921 L2683.78 51.84 L2658.89 51.84 L2658.89 46.921 Z" fill="#000000" fill-rule="nonzero" fill-opacity="1" /><path clip-path="url(#clip640)" d="M2695.58 44.4905 L2701.69 44.4905 L2701.69 51.84 L2695.58 51.84 L2695.58 44.4905 Z" fill="#000000" fill-rule="nonzero" fill-opacity="1" /><path clip-path="url(#clip640)" d="M2726.92 12.4884 Q2722.4 12.4884 2720.12 16.9444 Q2717.86 21.3714 2717.86 30.2834 Q2717.86 39.1665 2720.12 43.6225 Q2722.4 48.0495 2726.92 48.0495 Q2731.46 48.0495 2733.72 43.6225 Q2736 39.1665 2736 30.2834 Q2736 21.3714 2733.72 16.9444 Q2731.46 12.4884 2726.92 12.4884 M2726.92 7.85875 Q2734.18 7.85875 2738 13.6168 Q2741.85 19.346 2741.85 30.2834 Q2741.85 41.1919 2738 46.95 Q2734.18 52.6791 2726.92 52.6791 Q2719.66 52.6791 2715.81 46.95 Q2711.99 41.1919 2711.99 30.2834 Q2711.99 19.346 2715.81 13.6168 Q2719.66 7.85875 2726.92 7.85875 Z" fill="#000000" fill-rule="nonzero" fill-opacity="1" /><path clip-path="url(#clip640)" d="M2756.4 4.44442 L2764.56 15.2661 L2760.14 15.2661 L2750.7 4.44442 L2756.4 4.44442 Z" fill="#000000" fill-rule="nonzero" fill-opacity="1" /><polyline clip-path="url(#clip642)" style="stroke:#009af9; stroke-linecap:round; stroke-linejoin:round; stroke-width:4; stroke-opacity:1; fill:none" points="299.278,2144.16 304.819,2144.16 310.36,2144.03 315.901,2143.74 321.441,2143.65 326.982,2143.62 332.523,2143.75 338.064,2143.88 343.604,2143.85 349.145,2144.11 354.686,2144.53 360.227,2144.96 365.767,2145.2 371.308,2145.4 376.849,2145.67 382.389,2145.58 387.93,2144.98 393.471,2144.78 399.012,2144.44 404.552,2143.91 410.093,2143.28 415.634,2142.32 421.175,2141.27 426.715,2140.05 432.256,2138.76 437.797,2137.3 443.338,2136.02 448.878,2134.78 454.419,2133.83 459.96,2132.72 465.5,2131.69 471.041,2130.91 476.582,2130.21 482.123,2129.34 487.663,2128.39 493.204,2127.19 498.745,2126.2 504.286,2125.45 509.826,2124.74 515.367,2123.81 520.908,2122.77 526.449,2121.84 531.989,2120.67 537.53,2119.43 543.071,2118.28 548.611,2116.93 554.152,2115.51 559.693,2113.88 565.234,2112.46 570.774,2111.07 576.315,2109.88 581.856,2108.52 587.397,2106.89 592.937,2105 598.478,2103.19 604.019,2101.5 609.56,2099.91 615.1,2098.33 620.641,2096.86 626.182,2095.44 631.722,2093.88 637.263,2092.68 642.804,2091.71 648.345,2090.87 653.885,2090.31 659.426,2089.73 664.967,2088.91 670.508,2088.31 676.048,2087.47 681.589,2086.42 687.13,2085.38 692.671,2084.27 698.211,2083.31 703.752,2082.33 709.293,2081.48 714.833,2080.93 720.374,2080.72 725.915,2080.33 731.456,2079.98 736.996,2079.59 742.537,2079.17 748.078,2078.53 753.619,2078.09 759.159,2078.14 764.7,2078.13 770.241,2077.98 775.781,2077.6 781.322,2077.23 786.863,2076.99 792.404,2076.74 797.944,2076.4 803.485,2076.72 809.026,2076.89 814.567,2077.16 820.107,2077.23 825.648,2077.41 831.189,2077.46 836.73,2077.35 842.27,2077.65 847.811,2078.12 853.352,2078.26 858.892,2078.23 864.433,2078.13 869.974,2077.97 875.515,2078.22 881.055,2078.84 886.596,2079.58 892.137,2080.2 897.678,2081.07 903.218,2081.87 908.759,2082.84 914.3,2083.71 919.841,2084.58 925.381,2085.6 930.922,2086.44 936.463,2087.16 942.003,2088.06 947.544,2088.86 953.085,2089.36 958.626,2089.53 964.166,2089.51 969.707,2089.49 975.248,2089.48 980.789,2089.93 986.329,2089.87 991.87,2089.55 997.411,2089.2 1002.95,2088.53 1008.49,2087.97 1014.03,2087.39 1019.57,2086.74 1025.11,2086.1 1030.66,2085.06 1036.2,2084.11 1041.74,2082.99 1047.28,2081.94 1052.82,2081.32 1058.36,2080.82 1063.9,2080.6 1069.44,2080.44 1074.98,2080.29 1080.52,2079.6 1086.06,2078.69 1091.6,2077.83 1097.14,2076.78 1102.68,2075.71 1108.23,2074.71 1113.77,2073.42 1119.31,2072.19 1124.85,2070.96 1130.39,2069.74 1135.93,2068.48 1141.47,2067.41 1147.01,2066.35 1152.55,2065.39 1158.09,2064.26 1163.63,2063.14 1169.17,2061.87 1174.71,2060.29 1180.25,2058.8 1185.8,2056.87 1191.34,2055.05 1196.88,2053.22 1202.42,2051.44 1207.96,2049.92 1213.5,2048.95 1219.04,2048 1224.58,2047.07 1230.12,2046.12 1235.66,2045.03 1241.2,2043.9 1246.74,2042.89 1252.28,2042.15 1257.83,2040.69 1263.37,2039.15 1268.91,2037.49 1274.45,2035.49 1279.99,2033.15 1285.53,2030.58 1291.07,2028.09 1296.61,2025.68 1302.15,2023.48 1307.69,2021.09 1313.23,2018.75 1318.77,2016.24 1324.31,2013.51 1329.85,2010.79 1335.4,2008.46 1340.94,2005.99 1346.48,2003.46 1352.02,2000.52 1357.56,1997.61 1363.1,1994.53 1368.64,1991.41 1374.18,1988.03 1379.72,1984.58 1385.26,1981.07 1390.8,1977.56 1396.34,1974 1401.88,1970.41 1407.43,1966.84 1412.97,1963.16 1418.51,1959.46 1424.05,1955.75 1429.59,1951.93 1435.13,1948.06 1440.67,1944.16 1446.21,1940.23 1451.75,1936.25 1457.29,1932.25 1462.83,1928.18 1468.37,1924.17 1473.91,1920.06 1479.45,1915.87 1485,1911.64 1490.54,1907.42 1496.08,1903.11 1501.62,1898.75 1507.16,1894.36 1512.7,1889.91 1518.24,1885.43 1523.78,1880.9 1529.32,1876.32 1534.86,1871.73 1540.4,1867.06 1545.94,1862.37 1551.48,1857.6 1557.02,1852.89 1562.57,1848.13 1568.11,1843.4 1573.65,1838.9 1579.19,1834.37 1584.73,1829.98 1590.27,1825.58 1595.81,1821.14 1601.35,1816.25 1606.89,1811.13 1612.43,1805.97 1617.97,1800.82 1623.51,1795.72 1629.05,1790.52 1634.6,1785.11 1640.14,1779.72 1645.68,1774.23 1651.22,1768.81 1656.76,1763.24 1662.3,1757.74 1667.84,1752 1673.38,1746.14 1678.92,1740.21 1684.46,1734.22 1690,1728.2 1695.54,1722.09 1701.08,1715.96 1706.62,1709.74 1712.17,1703.47 1717.71,1697.11 1723.25,1690.7 1728.79,1684.21 1734.33,1677.67 1739.87,1671.12 1745.41,1664.63 1750.95,1658.59 1756.49,1652.25 1762.03,1646.37 1767.57,1640.53 1773.11,1635.1 1778.65,1628.9 1784.19,1622.35 1789.74,1615.56 1795.28,1608.59 1800.82,1601.82 1806.36,1594.75 1811.9,1588.16 1817.44,1581.26 1822.98,1574.34 1828.52,1567.85 1834.06,1561.44 1839.6,1554.61 1845.14,1548.24 1850.68,1541.47 1856.22,1534.71 1861.77,1527.87 1867.31,1521.06 1872.85,1514.1 1878.39,1506.92 1883.93,1498.9 1889.47,1490.82 1895.01,1482.41 1900.55,1473.91 1906.09,1465.73 1911.63,1457.19 1917.17,1448.81 1922.71,1440.39 1928.25,1432.07 1933.79,1423.42 1939.34,1415.45 1944.88,1407.51 1950.42,1400.05 1955.96,1392.17 1961.5,1384.86 1967.04,1377.52 1972.58,1370.84 1978.12,1364.61 1983.66,1358.34 1989.2,1352.77 1994.74,1347.83 2000.28,1343.79 2005.82,1339.98 2011.36,1336.32 2016.91,1332.5 2022.45,1328.95 2027.99,1324.46 2033.53,1321.05 2039.07,1317.66 2044.61,1312.17 2050.15,1307.06 2055.69,1302.4 2061.23,1297.91 2066.77,1291.92 2072.31,1285.92 2077.85,1280.47 2083.39,1274.37 2088.94,1268.1 2094.48,1261.52 2100.02,1256.28 2105.56,1252.69 2111.1,1249.14 2116.64,1245.63 2122.18,1242.02 2127.72,1238.54 2133.26,1235.23 2138.8,1232.59 2144.34,1228.95 2149.88,1225.22 2155.42,1222.31 2160.96,1218.98 2166.51,1217.74 2172.05,1215.9 2177.59,1214.98 2183.13,1213.62 2188.67,1210.53 2194.21,1207.76 2199.75,1205.69 2205.29,1205.52 2210.83,1206.14 2216.37,1207.48 2221.91,1206.87 2227.45,1206.92 2232.99,1206.03 2238.53,1205.22 2244.08,1205.24 2249.62,1204.73 2255.16,1205.53 2260.7,1207.18 2266.24,1209.73 2271.78,1211.87 2277.32,1213.56 2282.86,1215.01 2288.4,1215.6 2293.94,1217.08 2299.48,1218.01 2305.02,1219.14 2310.56,1218.11 2316.11,1216.14 2321.65,1214.31 2327.19,1211.38 2332.73,1208.61 2338.27,1205.04 2343.81,1202.01 2349.35,1199.49 2354.89,1197.16 2360.43,1194.68 2365.97,1192.87 2371.51,1190.61 2377.05,1186.08 2382.59,1182 2388.13,1177.01 2393.68,1171.1 2399.22,1164.59 2404.76,1160.31 2410.3,1156.79 2415.84,1153.61 2421.38,1151.06 2426.92,1147.37 2432.46,1142.45 2438,1138.7 2443.54,1135.89 2449.08,1132.71 2454.62,1128.2 2460.16,1122.03 2465.71,1113.48 2471.25,1104.4 2476.79,1095.61 2482.33,1086.41 2487.87,1077.59 2493.41,1068.83 2498.95,1059.46 2504.49,1050.31 2510.03,1042.95 2515.57,1035.45 2521.11,1026.51 2526.65,1019.6 2532.19,1013.38 2537.73,1006.52 2543.28,999.44 2548.82,992.882 2554.36,985.853 2559.9,976.639 2565.44,966.893 2570.98,957.08 2576.52,946.308 2582.06,936.05 2587.6,925.663 2593.14,915.103 2598.68,904.108 2604.22,893.538 2609.76,882.123 2615.3,871.041 2620.85,860.427 2626.39,848.714 2631.93,837.806 2637.47,830.564 2643.01,822.444 2648.55,815.175 2654.09,808.762 2659.63,802.821 2665.17,796.748 2670.71,792.292 2676.25,788.321 2681.79,784.62 2687.33,781.902 2692.88,777.381 2698.42,773.948 2703.96,769.837 2709.5,766.39 2715.04,764.046 2720.58,761.854 2726.12,760.97 2731.66,757.876 2737.2,754.796 2742.74,754.67 2748.28,754.918 2753.82,753.92 2759.36,753.813 2764.9,752.512 2770.45,750.03 2775.99,748.004 2781.53,746.86 2787.07,742.986 2792.61,739.38 2798.15,737.214 2803.69,734.148 2809.23,730.417 2814.77,724.134 2820.31,715.567 2825.85,707.106 2831.39,699.661 2836.93,693.259 2842.47,688.471 2848.02,685.41 2853.56,680.929 2859.1,676.64 2864.64,670.561 2870.18,663.229 2875.72,657.585 2881.26,650.149 2886.8,642.512 2892.34,635.288 2897.88,626.071 2903.42,616.234 2908.96,604.889 2914.5,592.951 2920.05,580.03 2925.59,567.903 2931.13,555.05 2936.67,539.884 2942.21,524.217 2947.75,508.676 2953.29,493.603 2958.83,478.072 2964.37,461.803 2969.91,446.986 2975.45,431.317 2980.99,416.221 2986.53,401.372 2992.07,385.993 2997.62,370.332 3003.16,353.992 3008.7,339.572 3014.24,324.554 3019.78,308.965 3025.32,292.66 3030.86,277.579 3036.4,261.459 3041.94,245.258 3047.48,229.721 3053.02,215.783 3058.56,201.72 3064.1,185.956 3069.64,170.837 "/>
</svg>
