<?xml version="1.0" encoding="utf-8"?>
<svg xmlns="http://www.w3.org/2000/svg" xmlns:xlink="http://www.w3.org/1999/xlink" width="800" height="600" viewBox="0 0 3200 2400">
<defs>
  <clipPath id="clip740">
    <rect x="0" y="0" width="3200" height="2400"/>
  </clipPath>
</defs>
<path clip-path="url(#clip740)" d="M0 2400 L3200 2400 L3200 0 L0 0  Z" fill="#ffffff" fill-rule="evenodd" fill-opacity="1"/>
<defs>
  <clipPath id="clip741">
    <rect x="640" y="0" width="2241" height="2241"/>
  </clipPath>
</defs>
<path clip-path="url(#clip740)" d="M233.482 2204.92 L3152.76 2204.92 L3152.76 111.592 L233.482 111.592  Z" fill="#eaeaea" fill-rule="evenodd" fill-opacity="1"/>
<defs>
  <clipPath id="clip742">
    <rect x="233" y="111" width="2920" height="2094"/>
  </clipPath>
</defs>
<polyline clip-path="url(#clip742)" style="stroke:#ffffff; stroke-linecap:round; stroke-linejoin:round; stroke-width:4; stroke-opacity:1; fill:none" points="316.103,2204.92 316.103,111.592 "/>
<polyline clip-path="url(#clip742)" style="stroke:#ffffff; stroke-linecap:round; stroke-linejoin:round; stroke-width:4; stroke-opacity:1; fill:none" points="866.91,2204.92 866.91,111.592 "/>
<polyline clip-path="url(#clip742)" style="stroke:#ffffff; stroke-linecap:round; stroke-linejoin:round; stroke-width:4; stroke-opacity:1; fill:none" points="1417.72,2204.92 1417.72,111.592 "/>
<polyline clip-path="url(#clip742)" style="stroke:#ffffff; stroke-linecap:round; stroke-linejoin:round; stroke-width:4; stroke-opacity:1; fill:none" points="1968.52,2204.92 1968.52,111.592 "/>
<polyline clip-path="url(#clip742)" style="stroke:#ffffff; stroke-linecap:round; stroke-linejoin:round; stroke-width:4; stroke-opacity:1; fill:none" points="2519.33,2204.92 2519.33,111.592 "/>
<polyline clip-path="url(#clip742)" style="stroke:#ffffff; stroke-linecap:round; stroke-linejoin:round; stroke-width:4; stroke-opacity:1; fill:none" points="3070.13,2204.92 3070.13,111.592 "/>
<polyline clip-path="url(#clip742)" style="stroke:#ffffff; stroke-linecap:round; stroke-linejoin:round; stroke-width:2; stroke-opacity:1; fill:none" points="591.506,2204.92 591.506,111.592 "/>
<polyline clip-path="url(#clip742)" style="stroke:#ffffff; stroke-linecap:round; stroke-linejoin:round; stroke-width:2; stroke-opacity:1; fill:none" points="1142.31,2204.92 1142.31,111.592 "/>
<polyline clip-path="url(#clip742)" style="stroke:#ffffff; stroke-linecap:round; stroke-linejoin:round; stroke-width:2; stroke-opacity:1; fill:none" points="1693.12,2204.92 1693.12,111.592 "/>
<polyline clip-path="url(#clip742)" style="stroke:#ffffff; stroke-linecap:round; stroke-linejoin:round; stroke-width:2; stroke-opacity:1; fill:none" points="2243.93,2204.92 2243.93,111.592 "/>
<polyline clip-path="url(#clip742)" style="stroke:#ffffff; stroke-linecap:round; stroke-linejoin:round; stroke-width:2; stroke-opacity:1; fill:none" points="2794.73,2204.92 2794.73,111.592 "/>
<polyline clip-path="url(#clip740)" style="stroke:#ffffff; stroke-linecap:round; stroke-linejoin:round; stroke-width:4; stroke-opacity:1; fill:none" points="233.482,2204.92 3152.76,2204.92 "/>
<polyline clip-path="url(#clip740)" style="stroke:#333333; stroke-linecap:round; stroke-linejoin:round; stroke-width:4; stroke-opacity:1; fill:none" points="316.103,2204.92 316.103,2223.82 "/>
<polyline clip-path="url(#clip740)" style="stroke:#333333; stroke-linecap:round; stroke-linejoin:round; stroke-width:4; stroke-opacity:1; fill:none" points="866.91,2204.92 866.91,2223.82 "/>
<polyline clip-path="url(#clip740)" style="stroke:#333333; stroke-linecap:round; stroke-linejoin:round; stroke-width:4; stroke-opacity:1; fill:none" points="1417.72,2204.92 1417.72,2223.82 "/>
<polyline clip-path="url(#clip740)" style="stroke:#333333; stroke-linecap:round; stroke-linejoin:round; stroke-width:4; stroke-opacity:1; fill:none" points="1968.52,2204.92 1968.52,2223.82 "/>
<polyline clip-path="url(#clip740)" style="stroke:#333333; stroke-linecap:round; stroke-linejoin:round; stroke-width:4; stroke-opacity:1; fill:none" points="2519.33,2204.92 2519.33,2223.82 "/>
<polyline clip-path="url(#clip740)" style="stroke:#333333; stroke-linecap:round; stroke-linejoin:round; stroke-width:4; stroke-opacity:1; fill:none" points="3070.13,2204.92 3070.13,2223.82 "/>
<polyline clip-path="url(#clip740)" style="stroke:#333333; stroke-linecap:round; stroke-linejoin:round; stroke-width:4; stroke-opacity:1; fill:none" points="591.506,2204.92 591.506,2214.37 "/>
<polyline clip-path="url(#clip740)" style="stroke:#333333; stroke-linecap:round; stroke-linejoin:round; stroke-width:4; stroke-opacity:1; fill:none" points="1142.31,2204.92 1142.31,2214.37 "/>
<polyline clip-path="url(#clip740)" style="stroke:#333333; stroke-linecap:round; stroke-linejoin:round; stroke-width:4; stroke-opacity:1; fill:none" points="1693.12,2204.92 1693.12,2214.37 "/>
<polyline clip-path="url(#clip740)" style="stroke:#333333; stroke-linecap:round; stroke-linejoin:round; stroke-width:4; stroke-opacity:1; fill:none" points="2243.93,2204.92 2243.93,2214.37 "/>
<polyline clip-path="url(#clip740)" style="stroke:#333333; stroke-linecap:round; stroke-linejoin:round; stroke-width:4; stroke-opacity:1; fill:none" points="2794.73,2204.92 2794.73,2214.37 "/>
<path clip-path="url(#clip740)" d="M316.103 2255.04 Q312.492 2255.04 310.663 2258.6 Q308.858 2262.14 308.858 2269.27 Q308.858 2276.38 310.663 2279.95 Q312.492 2283.49 316.103 2283.49 Q319.737 2283.49 321.543 2279.95 Q323.372 2276.38 323.372 2269.27 Q323.372 2262.14 321.543 2258.6 Q319.737 2255.04 316.103 2255.04 M316.103 2251.33 Q321.913 2251.33 324.969 2255.94 Q328.048 2260.52 328.048 2269.27 Q328.048 2278 324.969 2282.61 Q321.913 2287.19 316.103 2287.19 Q310.293 2287.19 307.214 2282.61 Q304.159 2278 304.159 2269.27 Q304.159 2260.52 307.214 2255.94 Q310.293 2251.33 316.103 2251.33 Z" fill="#4c4c4c" fill-rule="nonzero" fill-opacity="1" /><path clip-path="url(#clip740)" d="M857.292 2282.58 L864.93 2282.58 L864.93 2256.22 L856.62 2257.89 L856.62 2253.63 L864.884 2251.96 L869.56 2251.96 L869.56 2282.58 L877.199 2282.58 L877.199 2286.52 L857.292 2286.52 L857.292 2282.58 Z" fill="#4c4c4c" fill-rule="nonzero" fill-opacity="1" /><path clip-path="url(#clip740)" d="M1412.37 2282.58 L1428.69 2282.58 L1428.69 2286.52 L1406.74 2286.52 L1406.74 2282.58 Q1409.41 2279.83 1413.99 2275.2 Q1418.6 2270.55 1419.78 2269.21 Q1422.02 2266.68 1422.9 2264.95 Q1423.8 2263.19 1423.8 2261.5 Q1423.8 2258.74 1421.86 2257.01 Q1419.94 2255.27 1416.84 2255.27 Q1414.64 2255.27 1412.18 2256.03 Q1409.75 2256.8 1406.98 2258.35 L1406.98 2253.63 Q1409.8 2252.49 1412.25 2251.91 Q1414.71 2251.33 1416.74 2251.33 Q1422.11 2251.33 1425.31 2254.02 Q1428.5 2256.71 1428.5 2261.2 Q1428.5 2263.33 1427.69 2265.25 Q1426.91 2267.14 1424.8 2269.74 Q1424.22 2270.41 1421.12 2273.63 Q1418.02 2276.82 1412.37 2282.58 Z" fill="#4c4c4c" fill-rule="nonzero" fill-opacity="1" /><path clip-path="url(#clip740)" d="M1972.77 2267.89 Q1976.13 2268.6 1978 2270.87 Q1979.9 2273.14 1979.9 2276.47 Q1979.9 2281.59 1976.38 2284.39 Q1972.86 2287.19 1966.38 2287.19 Q1964.21 2287.19 1961.89 2286.75 Q1959.6 2286.33 1957.14 2285.48 L1957.14 2280.96 Q1959.09 2282.1 1961.4 2282.68 Q1963.72 2283.26 1966.24 2283.26 Q1970.64 2283.26 1972.93 2281.52 Q1975.25 2279.78 1975.25 2276.47 Q1975.25 2273.42 1973.09 2271.71 Q1970.96 2269.97 1967.14 2269.97 L1963.12 2269.97 L1963.12 2266.13 L1967.33 2266.13 Q1970.78 2266.13 1972.61 2264.76 Q1974.44 2263.37 1974.44 2260.78 Q1974.44 2258.12 1972.54 2256.71 Q1970.66 2255.27 1967.14 2255.27 Q1965.22 2255.27 1963.02 2255.69 Q1960.83 2256.1 1958.19 2256.98 L1958.19 2252.82 Q1960.85 2252.08 1963.16 2251.71 Q1965.5 2251.33 1967.56 2251.33 Q1972.89 2251.33 1975.99 2253.77 Q1979.09 2256.17 1979.09 2260.29 Q1979.09 2263.16 1977.45 2265.15 Q1975.8 2267.12 1972.77 2267.89 Z" fill="#4c4c4c" fill-rule="nonzero" fill-opacity="1" /><path clip-path="url(#clip740)" d="M2522.34 2256.03 L2510.53 2274.48 L2522.34 2274.48 L2522.34 2256.03 M2521.11 2251.96 L2526.99 2251.96 L2526.99 2274.48 L2531.92 2274.48 L2531.92 2278.37 L2526.99 2278.37 L2526.99 2286.52 L2522.34 2286.52 L2522.34 2278.37 L2506.74 2278.37 L2506.74 2273.86 L2521.11 2251.96 Z" fill="#4c4c4c" fill-rule="nonzero" fill-opacity="1" /><path clip-path="url(#clip740)" d="M3060.41 2251.96 L3078.77 2251.96 L3078.77 2255.9 L3064.7 2255.9 L3064.7 2264.37 Q3065.71 2264.02 3066.73 2263.86 Q3067.75 2263.67 3068.77 2263.67 Q3074.56 2263.67 3077.94 2266.84 Q3081.32 2270.02 3081.32 2275.43 Q3081.32 2281.01 3077.84 2284.11 Q3074.37 2287.19 3068.05 2287.19 Q3065.88 2287.19 3063.61 2286.82 Q3061.36 2286.45 3058.95 2285.71 L3058.95 2281.01 Q3061.04 2282.14 3063.26 2282.7 Q3065.48 2283.26 3067.96 2283.26 Q3071.96 2283.26 3074.3 2281.15 Q3076.64 2279.04 3076.64 2275.43 Q3076.64 2271.82 3074.3 2269.71 Q3071.96 2267.61 3067.96 2267.61 Q3066.08 2267.61 3064.21 2268.02 Q3062.36 2268.44 3060.41 2269.32 L3060.41 2251.96 Z" fill="#4c4c4c" fill-rule="nonzero" fill-opacity="1" /><path clip-path="url(#clip740)" d="M1692.18 2316.01 L1692.18 2326.14 L1704.24 2326.14 L1704.24 2330.69 L1692.18 2330.69 L1692.18 2350.04 Q1692.18 2354.4 1693.36 2355.64 Q1694.57 2356.88 1698.23 2356.88 L1704.24 2356.88 L1704.24 2361.78 L1698.23 2361.78 Q1691.45 2361.78 1688.87 2359.27 Q1686.29 2356.72 1686.29 2350.04 L1686.29 2330.69 L1681.99 2330.69 L1681.99 2326.14 L1686.29 2326.14 L1686.29 2316.01 L1692.18 2316.01 Z" fill="#000000" fill-rule="nonzero" fill-opacity="1" /><polyline clip-path="url(#clip742)" style="stroke:#ffffff; stroke-linecap:round; stroke-linejoin:round; stroke-width:4; stroke-opacity:1; fill:none" points="233.482,1971.1 3152.76,1971.1 "/>
<polyline clip-path="url(#clip742)" style="stroke:#ffffff; stroke-linecap:round; stroke-linejoin:round; stroke-width:4; stroke-opacity:1; fill:none" points="233.482,1611.13 3152.76,1611.13 "/>
<polyline clip-path="url(#clip742)" style="stroke:#ffffff; stroke-linecap:round; stroke-linejoin:round; stroke-width:4; stroke-opacity:1; fill:none" points="233.482,1251.16 3152.76,1251.16 "/>
<polyline clip-path="url(#clip742)" style="stroke:#ffffff; stroke-linecap:round; stroke-linejoin:round; stroke-width:4; stroke-opacity:1; fill:none" points="233.482,891.186 3152.76,891.186 "/>
<polyline clip-path="url(#clip742)" style="stroke:#ffffff; stroke-linecap:round; stroke-linejoin:round; stroke-width:4; stroke-opacity:1; fill:none" points="233.482,531.216 3152.76,531.216 "/>
<polyline clip-path="url(#clip742)" style="stroke:#ffffff; stroke-linecap:round; stroke-linejoin:round; stroke-width:4; stroke-opacity:1; fill:none" points="233.482,171.246 3152.76,171.246 "/>
<polyline clip-path="url(#clip742)" style="stroke:#ffffff; stroke-linecap:round; stroke-linejoin:round; stroke-width:2; stroke-opacity:1; fill:none" points="233.482,2151.08 3152.76,2151.08 "/>
<polyline clip-path="url(#clip742)" style="stroke:#ffffff; stroke-linecap:round; stroke-linejoin:round; stroke-width:2; stroke-opacity:1; fill:none" points="233.482,1791.11 3152.76,1791.11 "/>
<polyline clip-path="url(#clip742)" style="stroke:#ffffff; stroke-linecap:round; stroke-linejoin:round; stroke-width:2; stroke-opacity:1; fill:none" points="233.482,1431.14 3152.76,1431.14 "/>
<polyline clip-path="url(#clip742)" style="stroke:#ffffff; stroke-linecap:round; stroke-linejoin:round; stroke-width:2; stroke-opacity:1; fill:none" points="233.482,1071.17 3152.76,1071.17 "/>
<polyline clip-path="url(#clip742)" style="stroke:#ffffff; stroke-linecap:round; stroke-linejoin:round; stroke-width:2; stroke-opacity:1; fill:none" points="233.482,711.201 3152.76,711.201 "/>
<polyline clip-path="url(#clip742)" style="stroke:#ffffff; stroke-linecap:round; stroke-linejoin:round; stroke-width:2; stroke-opacity:1; fill:none" points="233.482,351.231 3152.76,351.231 "/>
<polyline clip-path="url(#clip740)" style="stroke:#ffffff; stroke-linecap:round; stroke-linejoin:round; stroke-width:4; stroke-opacity:1; fill:none" points="233.482,2204.92 233.482,111.592 "/>
<polyline clip-path="url(#clip740)" style="stroke:#333333; stroke-linecap:round; stroke-linejoin:round; stroke-width:4; stroke-opacity:1; fill:none" points="233.482,1971.1 214.585,1971.1 "/>
<polyline clip-path="url(#clip740)" style="stroke:#333333; stroke-linecap:round; stroke-linejoin:round; stroke-width:4; stroke-opacity:1; fill:none" points="233.482,1611.13 214.585,1611.13 "/>
<polyline clip-path="url(#clip740)" style="stroke:#333333; stroke-linecap:round; stroke-linejoin:round; stroke-width:4; stroke-opacity:1; fill:none" points="233.482,1251.16 214.585,1251.16 "/>
<polyline clip-path="url(#clip740)" style="stroke:#333333; stroke-linecap:round; stroke-linejoin:round; stroke-width:4; stroke-opacity:1; fill:none" points="233.482,891.186 214.585,891.186 "/>
<polyline clip-path="url(#clip740)" style="stroke:#333333; stroke-linecap:round; stroke-linejoin:round; stroke-width:4; stroke-opacity:1; fill:none" points="233.482,531.216 214.585,531.216 "/>
<polyline clip-path="url(#clip740)" style="stroke:#333333; stroke-linecap:round; stroke-linejoin:round; stroke-width:4; stroke-opacity:1; fill:none" points="233.482,171.246 214.585,171.246 "/>
<polyline clip-path="url(#clip740)" style="stroke:#333333; stroke-linecap:round; stroke-linejoin:round; stroke-width:4; stroke-opacity:1; fill:none" points="233.482,2151.08 224.033,2151.08 "/>
<polyline clip-path="url(#clip740)" style="stroke:#333333; stroke-linecap:round; stroke-linejoin:round; stroke-width:4; stroke-opacity:1; fill:none" points="233.482,1791.11 224.033,1791.11 "/>
<polyline clip-path="url(#clip740)" style="stroke:#333333; stroke-linecap:round; stroke-linejoin:round; stroke-width:4; stroke-opacity:1; fill:none" points="233.482,1431.14 224.033,1431.14 "/>
<polyline clip-path="url(#clip740)" style="stroke:#333333; stroke-linecap:round; stroke-linejoin:round; stroke-width:4; stroke-opacity:1; fill:none" points="233.482,1071.17 224.033,1071.17 "/>
<polyline clip-path="url(#clip740)" style="stroke:#333333; stroke-linecap:round; stroke-linejoin:round; stroke-width:4; stroke-opacity:1; fill:none" points="233.482,711.201 224.033,711.201 "/>
<polyline clip-path="url(#clip740)" style="stroke:#333333; stroke-linecap:round; stroke-linejoin:round; stroke-width:4; stroke-opacity:1; fill:none" points="233.482,351.231 224.033,351.231 "/>
<path clip-path="url(#clip740)" d="M105.302 1956.89 Q101.691 1956.89 99.8622 1960.46 Q98.0566 1964 98.0566 1971.13 Q98.0566 1978.24 99.8622 1981.8 Q101.691 1985.34 105.302 1985.34 Q108.936 1985.34 110.742 1981.8 Q112.57 1978.24 112.57 1971.13 Q112.57 1964 110.742 1960.46 Q108.936 1956.89 105.302 1956.89 M105.302 1953.19 Q111.112 1953.19 114.168 1957.8 Q117.246 1962.38 117.246 1971.13 Q117.246 1979.86 114.168 1984.46 Q111.112 1989.05 105.302 1989.05 Q99.4918 1989.05 96.4131 1984.46 Q93.3576 1979.86 93.3576 1971.13 Q93.3576 1962.38 96.4131 1957.8 Q99.4918 1953.19 105.302 1953.19 Z" fill="#4c4c4c" fill-rule="nonzero" fill-opacity="1" /><path clip-path="url(#clip740)" d="M125.464 1982.5 L130.348 1982.5 L130.348 1988.38 L125.464 1988.38 L125.464 1982.5 Z" fill="#4c4c4c" fill-rule="nonzero" fill-opacity="1" /><path clip-path="url(#clip740)" d="M140.58 1953.82 L158.936 1953.82 L158.936 1957.75 L144.862 1957.75 L144.862 1966.22 Q145.88 1965.88 146.899 1965.71 Q147.917 1965.53 148.936 1965.53 Q154.723 1965.53 158.103 1968.7 Q161.482 1971.87 161.482 1977.29 Q161.482 1982.87 158.01 1985.97 Q154.538 1989.05 148.218 1989.05 Q146.042 1989.05 143.774 1988.68 Q141.529 1988.31 139.121 1987.57 L139.121 1982.87 Q141.205 1984 143.427 1984.56 Q145.649 1985.11 148.126 1985.11 Q152.13 1985.11 154.468 1983.01 Q156.806 1980.9 156.806 1977.29 Q156.806 1973.68 154.468 1971.57 Q152.13 1969.46 148.126 1969.46 Q146.251 1969.46 144.376 1969.88 Q142.524 1970.3 140.58 1971.18 L140.58 1953.82 Z" fill="#4c4c4c" fill-rule="nonzero" fill-opacity="1" /><path clip-path="url(#clip740)" d="M104.145 1596.92 Q100.533 1596.92 98.7048 1600.49 Q96.8992 1604.03 96.8992 1611.16 Q96.8992 1618.27 98.7048 1621.83 Q100.533 1625.37 104.145 1625.37 Q107.779 1625.37 109.584 1621.83 Q111.413 1618.27 111.413 1611.16 Q111.413 1604.03 109.584 1600.49 Q107.779 1596.92 104.145 1596.92 M104.145 1593.22 Q109.955 1593.22 113.01 1597.83 Q116.089 1602.41 116.089 1611.16 Q116.089 1619.89 113.01 1624.49 Q109.955 1629.08 104.145 1629.08 Q98.3344 1629.08 95.2557 1624.49 Q92.2002 1619.89 92.2002 1611.16 Q92.2002 1602.41 95.2557 1597.83 Q98.3344 1593.22 104.145 1593.22 Z" fill="#4c4c4c" fill-rule="nonzero" fill-opacity="1" /><path clip-path="url(#clip740)" d="M124.306 1622.53 L129.191 1622.53 L129.191 1628.41 L124.306 1628.41 L124.306 1622.53 Z" fill="#4c4c4c" fill-rule="nonzero" fill-opacity="1" /><path clip-path="url(#clip740)" d="M149.954 1609.26 Q146.806 1609.26 144.955 1611.42 Q143.126 1613.57 143.126 1617.32 Q143.126 1621.04 144.955 1623.22 Q146.806 1625.37 149.954 1625.37 Q153.103 1625.37 154.931 1623.22 Q156.783 1621.04 156.783 1617.32 Q156.783 1613.57 154.931 1611.42 Q153.103 1609.26 149.954 1609.26 M159.237 1594.61 L159.237 1598.87 Q157.478 1598.04 155.672 1597.6 Q153.89 1597.16 152.13 1597.16 Q147.501 1597.16 145.047 1600.28 Q142.617 1603.41 142.269 1609.73 Q143.635 1607.71 145.695 1606.65 Q147.755 1605.56 150.232 1605.56 Q155.441 1605.56 158.45 1608.73 Q161.482 1611.88 161.482 1617.32 Q161.482 1622.64 158.334 1625.86 Q155.186 1629.08 149.954 1629.08 Q143.959 1629.08 140.788 1624.49 Q137.617 1619.89 137.617 1611.16 Q137.617 1602.97 141.505 1598.11 Q145.394 1593.22 151.945 1593.22 Q153.704 1593.22 155.487 1593.57 Q157.292 1593.92 159.237 1594.61 Z" fill="#4c4c4c" fill-rule="nonzero" fill-opacity="1" /><path clip-path="url(#clip740)" d="M105.209 1236.95 Q101.598 1236.95 99.7696 1240.52 Q97.964 1244.06 97.964 1251.19 Q97.964 1258.3 99.7696 1261.86 Q101.598 1265.4 105.209 1265.4 Q108.844 1265.4 110.649 1261.86 Q112.478 1258.3 112.478 1251.19 Q112.478 1244.06 110.649 1240.52 Q108.844 1236.95 105.209 1236.95 M105.209 1233.25 Q111.02 1233.25 114.075 1237.86 Q117.154 1242.44 117.154 1251.19 Q117.154 1259.92 114.075 1264.52 Q111.02 1269.11 105.209 1269.11 Q99.3992 1269.11 96.3205 1264.52 Q93.265 1259.92 93.265 1251.19 Q93.265 1242.44 96.3205 1237.86 Q99.3992 1233.25 105.209 1233.25 Z" fill="#4c4c4c" fill-rule="nonzero" fill-opacity="1" /><path clip-path="url(#clip740)" d="M125.371 1262.56 L130.256 1262.56 L130.256 1268.44 L125.371 1268.44 L125.371 1262.56 Z" fill="#4c4c4c" fill-rule="nonzero" fill-opacity="1" /><path clip-path="url(#clip740)" d="M139.26 1233.88 L161.482 1233.88 L161.482 1235.87 L148.936 1268.44 L144.052 1268.44 L155.857 1237.81 L139.26 1237.81 L139.26 1233.88 Z" fill="#4c4c4c" fill-rule="nonzero" fill-opacity="1" /><path clip-path="url(#clip740)" d="M104.399 876.985 Q100.788 876.985 98.9594 880.55 Q97.1538 884.091 97.1538 891.221 Q97.1538 898.327 98.9594 901.892 Q100.788 905.434 104.399 905.434 Q108.033 905.434 109.839 901.892 Q111.668 898.327 111.668 891.221 Q111.668 884.091 109.839 880.55 Q108.033 876.985 104.399 876.985 M104.399 873.281 Q110.209 873.281 113.265 877.888 Q116.344 882.471 116.344 891.221 Q116.344 899.948 113.265 904.554 Q110.209 909.138 104.399 909.138 Q98.589 909.138 95.5103 904.554 Q92.4548 899.948 92.4548 891.221 Q92.4548 882.471 95.5103 877.888 Q98.589 873.281 104.399 873.281 Z" fill="#4c4c4c" fill-rule="nonzero" fill-opacity="1" /><path clip-path="url(#clip740)" d="M124.561 902.587 L129.445 902.587 L129.445 908.466 L124.561 908.466 L124.561 902.587 Z" fill="#4c4c4c" fill-rule="nonzero" fill-opacity="1" /><path clip-path="url(#clip740)" d="M149.63 892.054 Q146.297 892.054 144.376 893.837 Q142.478 895.619 142.478 898.744 Q142.478 901.869 144.376 903.651 Q146.297 905.434 149.63 905.434 Q152.964 905.434 154.885 903.651 Q156.806 901.846 156.806 898.744 Q156.806 895.619 154.885 893.837 Q152.987 892.054 149.63 892.054 M144.955 890.064 Q141.945 889.323 140.255 887.263 Q138.589 885.202 138.589 882.239 Q138.589 878.096 141.529 875.689 Q144.492 873.281 149.63 873.281 Q154.792 873.281 157.732 875.689 Q160.672 878.096 160.672 882.239 Q160.672 885.202 158.982 887.263 Q157.316 889.323 154.329 890.064 Q157.709 890.851 159.584 893.142 Q161.482 895.434 161.482 898.744 Q161.482 903.767 158.404 906.452 Q155.348 909.138 149.63 909.138 Q143.913 909.138 140.834 906.452 Q137.779 903.767 137.779 898.744 Q137.779 895.434 139.677 893.142 Q141.575 890.851 144.955 890.064 M143.242 882.679 Q143.242 885.364 144.908 886.869 Q146.598 888.374 149.63 888.374 Q152.64 888.374 154.329 886.869 Q156.042 885.364 156.042 882.679 Q156.042 879.994 154.329 878.49 Q152.64 876.985 149.63 876.985 Q146.598 876.985 144.908 878.49 Q143.242 879.994 143.242 882.679 Z" fill="#4c4c4c" fill-rule="nonzero" fill-opacity="1" /><path clip-path="url(#clip740)" d="M104.492 517.015 Q100.881 517.015 99.052 520.58 Q97.2464 524.121 97.2464 531.251 Q97.2464 538.357 99.052 541.922 Q100.881 545.464 104.492 545.464 Q108.126 545.464 109.932 541.922 Q111.76 538.357 111.76 531.251 Q111.76 524.121 109.932 520.58 Q108.126 517.015 104.492 517.015 M104.492 513.311 Q110.302 513.311 113.357 517.918 Q116.436 522.501 116.436 531.251 Q116.436 539.978 113.357 544.584 Q110.302 549.168 104.492 549.168 Q98.6816 549.168 95.6029 544.584 Q92.5474 539.978 92.5474 531.251 Q92.5474 522.501 95.6029 517.918 Q98.6816 513.311 104.492 513.311 Z" fill="#4c4c4c" fill-rule="nonzero" fill-opacity="1" /><path clip-path="url(#clip740)" d="M124.654 542.617 L129.538 542.617 L129.538 548.496 L124.654 548.496 L124.654 542.617 Z" fill="#4c4c4c" fill-rule="nonzero" fill-opacity="1" /><path clip-path="url(#clip740)" d="M139.862 547.779 L139.862 543.519 Q141.621 544.353 143.427 544.793 Q145.232 545.232 146.968 545.232 Q151.598 545.232 154.029 542.131 Q156.482 539.006 156.829 532.663 Q155.487 534.654 153.427 535.719 Q151.367 536.783 148.867 536.783 Q143.681 536.783 140.649 533.658 Q137.64 530.51 137.64 525.071 Q137.64 519.746 140.788 516.529 Q143.936 513.311 149.167 513.311 Q155.163 513.311 158.311 517.918 Q161.482 522.501 161.482 531.251 Q161.482 539.422 157.593 544.307 Q153.728 549.168 147.177 549.168 Q145.417 549.168 143.612 548.82 Q141.806 548.473 139.862 547.779 M149.167 533.126 Q152.316 533.126 154.144 530.973 Q155.996 528.82 155.996 525.071 Q155.996 521.344 154.144 519.191 Q152.316 517.015 149.167 517.015 Q146.019 517.015 144.167 519.191 Q142.339 521.344 142.339 525.071 Q142.339 528.82 144.167 530.973 Q146.019 533.126 149.167 533.126 Z" fill="#4c4c4c" fill-rule="nonzero" fill-opacity="1" /><path clip-path="url(#clip740)" d="M95.1168 184.591 L102.756 184.591 L102.756 158.226 L94.4455 159.892 L94.4455 155.633 L102.709 153.966 L107.385 153.966 L107.385 184.591 L115.024 184.591 L115.024 188.526 L95.1168 188.526 L95.1168 184.591 Z" fill="#4c4c4c" fill-rule="nonzero" fill-opacity="1" /><path clip-path="url(#clip740)" d="M124.469 182.647 L129.353 182.647 L129.353 188.526 L124.469 188.526 L124.469 182.647 Z" fill="#4c4c4c" fill-rule="nonzero" fill-opacity="1" /><path clip-path="url(#clip740)" d="M149.538 157.045 Q145.927 157.045 144.098 160.61 Q142.292 164.152 142.292 171.281 Q142.292 178.388 144.098 181.952 Q145.927 185.494 149.538 185.494 Q153.172 185.494 154.978 181.952 Q156.806 178.388 156.806 171.281 Q156.806 164.152 154.978 160.61 Q153.172 157.045 149.538 157.045 M149.538 153.341 Q155.348 153.341 158.404 157.948 Q161.482 162.531 161.482 171.281 Q161.482 180.008 158.404 184.614 Q155.348 189.198 149.538 189.198 Q143.728 189.198 140.649 184.614 Q137.593 180.008 137.593 171.281 Q137.593 162.531 140.649 157.948 Q143.728 153.341 149.538 153.341 Z" fill="#4c4c4c" fill-rule="nonzero" fill-opacity="1" /><path clip-path="url(#clip740)" d="M18.2962 1141.64 L35.6428 1154.53 L53.9442 1140.97 L53.9442 1147.88 L39.9396 1158.26 L53.9442 1168.63 L53.9442 1175.54 L35.2926 1161.69 L18.2962 1174.36 L18.2962 1167.45 L30.9958 1158 L18.2962 1148.55 L18.2962 1141.64 Z" fill="#000000" fill-rule="nonzero" fill-opacity="1" /><path clip-path="url(#clip740)" d="M636.05 20.3876 L636.05 25.4223 Q633.793 24.2649 631.363 23.6862 Q628.932 23.1075 626.328 23.1075 Q622.364 23.1075 620.367 24.3228 Q618.4 25.5381 618.4 27.9686 Q618.4 29.8204 619.818 30.891 Q621.235 31.9327 625.518 32.8876 L627.341 33.2926 Q633.012 34.5079 635.385 36.7359 Q637.786 38.935 637.786 42.8991 Q637.786 47.4129 634.198 50.046 Q630.639 52.6791 624.389 52.6791 Q621.785 52.6791 618.949 52.1583 Q616.143 51.6664 613.018 50.6537 L613.018 45.156 Q615.969 46.6896 618.834 47.4708 Q621.698 48.2231 624.505 48.2231 Q628.267 48.2231 630.292 46.95 Q632.317 45.6479 632.317 43.3042 Q632.317 41.134 630.842 39.9766 Q629.395 38.8192 624.447 37.7486 L622.595 37.3146 Q617.647 36.273 615.448 34.1318 Q613.249 31.9616 613.249 28.2001 Q613.249 23.6283 616.49 21.1399 Q619.731 18.6515 625.691 18.6515 Q628.643 18.6515 631.247 19.0855 Q633.851 19.5196 636.05 20.3876 Z" fill="#000000" fill-rule="nonzero" fill-opacity="1" /><path clip-path="url(#clip740)" d="M658.822 23.1654 Q654.54 23.1654 652.051 26.5218 Q649.563 29.8494 649.563 35.6653 Q649.563 41.4813 652.022 44.8377 Q654.511 48.1653 658.822 48.1653 Q663.075 48.1653 665.564 44.8088 Q668.052 41.4523 668.052 35.6653 Q668.052 29.9072 665.564 26.5508 Q663.075 23.1654 658.822 23.1654 M658.822 18.6515 Q665.766 18.6515 669.73 23.1654 Q673.695 27.6792 673.695 35.6653 Q673.695 43.6225 669.73 48.1653 Q665.766 52.6791 658.822 52.6791 Q651.849 52.6791 647.884 48.1653 Q643.949 43.6225 643.949 35.6653 Q643.949 27.6792 647.884 23.1654 Q651.849 18.6515 658.822 18.6515 Z" fill="#000000" fill-rule="nonzero" fill-opacity="1" /><path clip-path="url(#clip740)" d="M682.52 6.81709 L687.844 6.81709 L687.844 51.84 L682.52 51.84 L682.52 6.81709 Z" fill="#000000" fill-rule="nonzero" fill-opacity="1" /><path clip-path="url(#clip740)" d="M698.434 39.0507 L698.434 19.4328 L703.758 19.4328 L703.758 38.8482 Q703.758 43.4488 705.552 45.7636 Q707.346 48.0495 710.934 48.0495 Q715.245 48.0495 717.734 45.3007 Q720.251 42.5519 720.251 37.8065 L720.251 19.4328 L725.575 19.4328 L725.575 51.84 L720.251 51.84 L720.251 46.8632 Q718.312 49.8145 715.737 51.2613 Q713.191 52.6791 709.805 52.6791 Q704.221 52.6791 701.327 49.2069 Q698.434 45.7347 698.434 39.0507 M711.831 18.6515 L711.831 18.6515 Z" fill="#000000" fill-rule="nonzero" fill-opacity="1" /><path clip-path="url(#clip740)" d="M759.863 20.677 L759.863 25.6538 Q757.606 24.4096 755.32 23.802 Q753.063 23.1654 750.749 23.1654 Q745.569 23.1654 742.705 26.464 Q739.84 29.7336 739.84 35.6653 Q739.84 41.597 742.705 44.8956 Q745.569 48.1653 750.749 48.1653 Q753.063 48.1653 755.32 47.5576 Q757.606 46.921 759.863 45.6768 L759.863 50.5958 Q757.635 51.6375 755.233 52.1583 Q752.861 52.6791 750.17 52.6791 Q742.849 52.6791 738.538 48.0784 Q734.227 43.4778 734.227 35.6653 Q734.227 27.7371 738.567 23.1943 Q742.936 18.6515 750.517 18.6515 Q752.977 18.6515 755.32 19.1724 Q757.664 19.6642 759.863 20.677 M752.34 51.84 Q753.931 53.634 754.713 55.1386 Q755.494 56.6722 755.494 58.061 Q755.494 60.6362 753.758 61.9383 Q752.022 63.2693 748.607 63.2693 Q747.276 63.2693 746.003 63.0957 Q744.759 62.9221 743.515 62.5749 L743.515 58.7844 Q744.499 59.2763 745.569 59.4788 Q746.64 59.7103 748 59.7103 Q749.707 59.7103 750.575 59.0159 Q751.443 58.3214 751.443 56.9904 Q751.443 56.1224 750.806 54.8492 Q750.199 53.605 748.897 51.84 L752.34 51.84 Z" fill="#000000" fill-rule="nonzero" fill-opacity="1" /><path clip-path="url(#clip740)" d="M783.85 35.5496 Q777.398 35.5496 774.909 37.0253 Q772.421 38.501 772.421 42.06 Q772.421 44.8956 774.273 46.5738 Q776.153 48.2231 779.365 48.2231 Q783.792 48.2231 786.454 45.0981 Q789.145 41.9442 789.145 36.7359 L789.145 35.5496 L783.85 35.5496 M794.469 33.3505 L794.469 51.84 L789.145 51.84 L789.145 46.921 Q787.322 49.8724 784.603 51.2902 Q781.883 52.6791 777.947 52.6791 Q772.971 52.6791 770.019 49.9014 Q767.097 47.0947 767.097 42.4072 Q767.097 36.9385 770.743 34.1607 Q774.417 31.3829 781.68 31.3829 L789.145 31.3829 L789.145 30.8621 Q789.145 27.1874 786.715 25.1908 Q784.313 23.1654 779.944 23.1654 Q777.166 23.1654 774.533 23.8309 Q771.9 24.4964 769.469 25.8274 L769.469 20.9085 Q772.392 19.78 775.141 19.2302 Q777.89 18.6515 780.494 18.6515 Q787.525 18.6515 790.997 22.2973 Q794.469 25.9431 794.469 33.3505 M780.609 12.199 L778.96 10.6076 Q778.324 10.0289 777.832 9.76847 Q777.369 9.47912 776.993 9.47912 Q775.893 9.47912 775.372 10.5497 Q774.851 11.5914 774.794 13.964 L771.177 13.964 Q771.235 10.0578 772.71 7.94556 Q774.186 5.80437 776.819 5.80437 Q777.919 5.80437 778.844 6.20946 Q779.77 6.61455 780.841 7.5694 L782.49 9.16083 Q783.127 9.73953 783.59 10.0289 Q784.082 10.2893 784.458 10.2893 Q785.557 10.2893 786.078 9.24764 Q786.599 8.17704 786.657 5.80437 L790.274 5.80437 Q790.216 9.7106 788.74 11.8518 Q787.265 13.964 784.631 13.964 Q783.532 13.964 782.606 13.559 Q781.68 13.1539 780.609 12.199 Z" fill="#000000" fill-rule="nonzero" fill-opacity="1" /><path clip-path="url(#clip740)" d="M817.994 23.1654 Q813.711 23.1654 811.223 26.5218 Q808.734 29.8494 808.734 35.6653 Q808.734 41.4813 811.194 44.8377 Q813.682 48.1653 817.994 48.1653 Q822.247 48.1653 824.735 44.8088 Q827.224 41.4523 827.224 35.6653 Q827.224 29.9072 824.735 26.5508 Q822.247 23.1654 817.994 23.1654 M817.994 18.6515 Q824.938 18.6515 828.902 23.1654 Q832.866 27.6792 832.866 35.6653 Q832.866 43.6225 828.902 48.1653 Q824.938 52.6791 817.994 52.6791 Q811.02 52.6791 807.056 48.1653 Q803.121 43.6225 803.121 35.6653 Q803.121 27.6792 807.056 23.1654 Q811.02 18.6515 817.994 18.6515 Z" fill="#000000" fill-rule="nonzero" fill-opacity="1" /><path clip-path="url(#clip740)" d="M881.853 24.3517 L881.853 6.81709 L887.177 6.81709 L887.177 51.84 L881.853 51.84 L881.853 46.9789 Q880.175 49.8724 877.6 51.2902 Q875.053 52.6791 871.465 52.6791 Q865.592 52.6791 861.888 47.9916 Q858.213 43.3042 858.213 35.6653 Q858.213 28.0265 861.888 23.339 Q865.592 18.6515 871.465 18.6515 Q875.053 18.6515 877.6 20.0693 Q880.175 21.4582 881.853 24.3517 M863.711 35.6653 Q863.711 41.5391 866.112 44.8956 Q868.543 48.2231 872.768 48.2231 Q876.992 48.2231 879.423 44.8956 Q881.853 41.5391 881.853 35.6653 Q881.853 29.7915 879.423 26.464 Q876.992 23.1075 872.768 23.1075 Q868.543 23.1075 866.112 26.464 Q863.711 29.7915 863.711 35.6653 Z" fill="#000000" fill-rule="nonzero" fill-opacity="1" /><path clip-path="url(#clip740)" d="M912.871 35.5496 Q906.419 35.5496 903.931 37.0253 Q901.442 38.501 901.442 42.06 Q901.442 44.8956 903.294 46.5738 Q905.175 48.2231 908.387 48.2231 Q912.814 48.2231 915.476 45.0981 Q918.167 41.9442 918.167 36.7359 L918.167 35.5496 L912.871 35.5496 M923.491 33.3505 L923.491 51.84 L918.167 51.84 L918.167 46.921 Q916.344 49.8724 913.624 51.2902 Q910.904 52.6791 906.969 52.6791 Q901.992 52.6791 899.041 49.9014 Q896.118 47.0947 896.118 42.4072 Q896.118 36.9385 899.764 34.1607 Q903.439 31.3829 910.701 31.3829 L918.167 31.3829 L918.167 30.8621 Q918.167 27.1874 915.736 25.1908 Q913.334 23.1654 908.965 23.1654 Q906.188 23.1654 903.554 23.8309 Q900.921 24.4964 898.491 25.8274 L898.491 20.9085 Q901.413 19.78 904.162 19.2302 Q906.911 18.6515 909.515 18.6515 Q916.546 18.6515 920.018 22.2973 Q923.491 25.9431 923.491 33.3505 Z" fill="#000000" fill-rule="nonzero" fill-opacity="1" /><path clip-path="url(#clip740)" d="M981.013 34.3054 L981.013 36.9095 L956.534 36.9095 Q956.882 42.4072 959.833 45.3007 Q962.813 48.1653 968.108 48.1653 Q971.176 48.1653 974.04 47.4129 Q976.934 46.6606 979.769 45.156 L979.769 50.1907 Q976.905 51.406 973.895 52.0425 Q970.886 52.6791 967.79 52.6791 Q960.036 52.6791 955.493 48.1653 Q950.979 43.6514 950.979 35.9547 Q950.979 27.9975 955.261 23.339 Q959.573 18.6515 966.864 18.6515 Q973.404 18.6515 977.194 22.876 Q981.013 27.0716 981.013 34.3054 M975.689 32.7429 Q975.632 28.3737 973.23 25.7695 Q970.857 23.1654 966.922 23.1654 Q962.466 23.1654 959.775 25.6827 Q957.113 28.2001 956.708 32.7718 L975.689 32.7429 Z" fill="#000000" fill-rule="nonzero" fill-opacity="1" /><path clip-path="url(#clip740)" d="M992.935 35.6653 Q992.935 41.5391 995.336 44.8956 Q997.767 48.2231 1001.99 48.2231 Q1006.22 48.2231 1008.65 44.8956 Q1011.08 41.5391 1011.08 35.6653 Q1011.08 29.7915 1008.65 26.464 Q1006.22 23.1075 1001.99 23.1075 Q997.767 23.1075 995.336 26.464 Q992.935 29.7915 992.935 35.6653 M1011.08 46.9789 Q1009.4 49.8724 1006.82 51.2902 Q1004.28 52.6791 1000.69 52.6791 Q994.815 52.6791 991.112 47.9916 Q987.437 43.3042 987.437 35.6653 Q987.437 28.0265 991.112 23.339 Q994.815 18.6515 1000.69 18.6515 Q1004.28 18.6515 1006.82 20.0693 Q1009.4 21.4582 1011.08 24.3517 L1011.08 19.4328 L1016.4 19.4328 L1016.4 64.1663 L1011.08 64.1663 L1011.08 46.9789 Z" fill="#000000" fill-rule="nonzero" fill-opacity="1" /><path clip-path="url(#clip740)" d="M1026.82 39.0507 L1026.82 19.4328 L1032.14 19.4328 L1032.14 38.8482 Q1032.14 43.4488 1033.94 45.7636 Q1035.73 48.0495 1039.32 48.0495 Q1043.63 48.0495 1046.12 45.3007 Q1048.63 42.5519 1048.63 37.8065 L1048.63 19.4328 L1053.96 19.4328 L1053.96 51.84 L1048.63 51.84 L1048.63 46.8632 Q1046.7 49.8145 1044.12 51.2613 Q1041.57 52.6791 1038.19 52.6791 Q1032.6 52.6791 1029.71 49.2069 Q1026.82 45.7347 1026.82 39.0507 M1040.21 18.6515 L1040.21 18.6515 Z" fill="#000000" fill-rule="nonzero" fill-opacity="1" /><path clip-path="url(#clip740)" d="M1079.65 35.5496 Q1073.2 35.5496 1070.71 37.0253 Q1068.22 38.501 1068.22 42.06 Q1068.22 44.8956 1070.08 46.5738 Q1071.96 48.2231 1075.17 48.2231 Q1079.6 48.2231 1082.26 45.0981 Q1084.95 41.9442 1084.95 36.7359 L1084.95 35.5496 L1079.65 35.5496 M1090.27 33.3505 L1090.27 51.84 L1084.95 51.84 L1084.95 46.921 Q1083.13 49.8724 1080.41 51.2902 Q1077.69 52.6791 1073.75 52.6791 Q1068.77 52.6791 1065.82 49.9014 Q1062.9 47.0947 1062.9 42.4072 Q1062.9 36.9385 1066.55 34.1607 Q1070.22 31.3829 1077.48 31.3829 L1084.95 31.3829 L1084.95 30.8621 Q1084.95 27.1874 1082.52 25.1908 Q1080.12 23.1654 1075.75 23.1654 Q1072.97 23.1654 1070.34 23.8309 Q1067.7 24.4964 1065.27 25.8274 L1065.27 20.9085 Q1068.19 19.78 1070.94 19.2302 Q1073.69 18.6515 1076.3 18.6515 Q1083.33 18.6515 1086.8 22.2973 Q1090.27 25.9431 1090.27 33.3505 Z" fill="#000000" fill-rule="nonzero" fill-opacity="1" /><path clip-path="url(#clip740)" d="M1124.56 20.677 L1124.56 25.6538 Q1122.3 24.4096 1120.02 23.802 Q1117.76 23.1654 1115.45 23.1654 Q1110.27 23.1654 1107.4 26.464 Q1104.54 29.7336 1104.54 35.6653 Q1104.54 41.597 1107.4 44.8956 Q1110.27 48.1653 1115.45 48.1653 Q1117.76 48.1653 1120.02 47.5576 Q1122.3 46.921 1124.56 45.6768 L1124.56 50.5958 Q1122.33 51.6375 1119.93 52.1583 Q1117.56 52.6791 1114.87 52.6791 Q1107.55 52.6791 1103.24 48.0784 Q1098.92 43.4778 1098.92 35.6653 Q1098.92 27.7371 1103.26 23.1943 Q1107.63 18.6515 1115.21 18.6515 Q1117.67 18.6515 1120.02 19.1724 Q1122.36 19.6642 1124.56 20.677 M1117.04 51.84 Q1118.63 53.634 1119.41 55.1386 Q1120.19 56.6722 1120.19 58.061 Q1120.19 60.6362 1118.45 61.9383 Q1116.72 63.2693 1113.3 63.2693 Q1111.97 63.2693 1110.7 63.0957 Q1109.46 62.9221 1108.21 62.5749 L1108.21 58.7844 Q1109.2 59.2763 1110.27 59.4788 Q1111.34 59.7103 1112.7 59.7103 Q1114.4 59.7103 1115.27 59.0159 Q1116.14 58.3214 1116.14 56.9904 Q1116.14 56.1224 1115.5 54.8492 Q1114.9 53.605 1113.59 51.84 L1117.04 51.84 Z" fill="#000000" fill-rule="nonzero" fill-opacity="1" /><path clip-path="url(#clip740)" d="M1148.55 35.5496 Q1142.09 35.5496 1139.61 37.0253 Q1137.12 38.501 1137.12 42.06 Q1137.12 44.8956 1138.97 46.5738 Q1140.85 48.2231 1144.06 48.2231 Q1148.49 48.2231 1151.15 45.0981 Q1153.84 41.9442 1153.84 36.7359 L1153.84 35.5496 L1148.55 35.5496 M1159.17 33.3505 L1159.17 51.84 L1153.84 51.84 L1153.84 46.921 Q1152.02 49.8724 1149.3 51.2902 Q1146.58 52.6791 1142.64 52.6791 Q1137.67 52.6791 1134.72 49.9014 Q1131.79 47.0947 1131.79 42.4072 Q1131.79 36.9385 1135.44 34.1607 Q1139.11 31.3829 1146.38 31.3829 L1153.84 31.3829 L1153.84 30.8621 Q1153.84 27.1874 1151.41 25.1908 Q1149.01 23.1654 1144.64 23.1654 Q1141.86 23.1654 1139.23 23.8309 Q1136.6 24.4964 1134.17 25.8274 L1134.17 20.9085 Q1137.09 19.78 1139.84 19.2302 Q1142.59 18.6515 1145.19 18.6515 Q1152.22 18.6515 1155.69 22.2973 Q1159.17 25.9431 1159.17 33.3505 M1145.31 12.199 L1143.66 10.6076 Q1143.02 10.0289 1142.53 9.76847 Q1142.07 9.47912 1141.69 9.47912 Q1140.59 9.47912 1140.07 10.5497 Q1139.55 11.5914 1139.49 13.964 L1135.87 13.964 Q1135.93 10.0578 1137.41 7.94556 Q1138.88 5.80437 1141.52 5.80437 Q1142.62 5.80437 1143.54 6.20946 Q1144.47 6.61455 1145.54 7.5694 L1147.19 9.16083 Q1147.82 9.73953 1148.29 10.0289 Q1148.78 10.2893 1149.15 10.2893 Q1150.25 10.2893 1150.78 9.24764 Q1151.3 8.17704 1151.35 5.80437 L1154.97 5.80437 Q1154.91 9.7106 1153.44 11.8518 Q1151.96 13.964 1149.33 13.964 Q1148.23 13.964 1147.3 13.559 Q1146.38 13.1539 1145.31 12.199 Z" fill="#000000" fill-rule="nonzero" fill-opacity="1" /><path clip-path="url(#clip740)" d="M1182.69 23.1654 Q1178.41 23.1654 1175.92 26.5218 Q1173.43 29.8494 1173.43 35.6653 Q1173.43 41.4813 1175.89 44.8377 Q1178.38 48.1653 1182.69 48.1653 Q1186.94 48.1653 1189.43 44.8088 Q1191.92 41.4523 1191.92 35.6653 Q1191.92 29.9072 1189.43 26.5508 Q1186.94 23.1654 1182.69 23.1654 M1182.69 18.6515 Q1189.64 18.6515 1193.6 23.1654 Q1197.56 27.6792 1197.56 35.6653 Q1197.56 43.6225 1193.6 48.1653 Q1189.64 52.6791 1182.69 52.6791 Q1175.72 52.6791 1171.75 48.1653 Q1167.82 43.6225 1167.82 35.6653 Q1167.82 27.6792 1171.75 23.1654 Q1175.72 18.6515 1182.69 18.6515 Z" fill="#000000" fill-rule="nonzero" fill-opacity="1" /><path clip-path="url(#clip740)" d="M1246.55 24.3517 L1246.55 6.81709 L1251.87 6.81709 L1251.87 51.84 L1246.55 51.84 L1246.55 46.9789 Q1244.87 49.8724 1242.3 51.2902 Q1239.75 52.6791 1236.16 52.6791 Q1230.29 52.6791 1226.59 47.9916 Q1222.91 43.3042 1222.91 35.6653 Q1222.91 28.0265 1226.59 23.339 Q1230.29 18.6515 1236.16 18.6515 Q1239.75 18.6515 1242.3 20.0693 Q1244.87 21.4582 1246.55 24.3517 M1228.41 35.6653 Q1228.41 41.5391 1230.81 44.8956 Q1233.24 48.2231 1237.46 48.2231 Q1241.69 48.2231 1244.12 44.8956 Q1246.55 41.5391 1246.55 35.6653 Q1246.55 29.7915 1244.12 26.464 Q1241.69 23.1075 1237.46 23.1075 Q1233.24 23.1075 1230.81 26.464 Q1228.41 29.7915 1228.41 35.6653 Z" fill="#000000" fill-rule="nonzero" fill-opacity="1" /><path clip-path="url(#clip740)" d="M1262.84 19.4328 L1268.16 19.4328 L1268.16 51.84 L1262.84 51.84 L1262.84 19.4328 M1262.84 6.81709 L1268.16 6.81709 L1268.16 13.559 L1262.84 13.559 L1262.84 6.81709 Z" fill="#000000" fill-rule="nonzero" fill-opacity="1" /><path clip-path="url(#clip740)" d="M1295.71 6.81709 L1295.71 11.2442 L1290.62 11.2442 Q1287.75 11.2442 1286.63 12.4016 Q1285.53 13.559 1285.53 16.5682 L1285.53 19.4328 L1294.29 19.4328 L1294.29 23.5705 L1285.53 23.5705 L1285.53 51.84 L1280.17 51.84 L1280.17 23.5705 L1275.08 23.5705 L1275.08 19.4328 L1280.17 19.4328 L1280.17 17.1758 Q1280.17 11.765 1282.69 9.30551 Q1285.21 6.81709 1290.68 6.81709 L1295.71 6.81709 Z" fill="#000000" fill-rule="nonzero" fill-opacity="1" /><path clip-path="url(#clip740)" d="M1327.89 34.3054 L1327.89 36.9095 L1303.41 36.9095 Q1303.75 42.4072 1306.71 45.3007 Q1309.69 48.1653 1314.98 48.1653 Q1318.05 48.1653 1320.91 47.4129 Q1323.81 46.6606 1326.64 45.156 L1326.64 50.1907 Q1323.78 51.406 1320.77 52.0425 Q1317.76 52.6791 1314.66 52.6791 Q1306.91 52.6791 1302.37 48.1653 Q1297.85 43.6514 1297.85 35.9547 Q1297.85 27.9975 1302.13 23.339 Q1306.45 18.6515 1313.74 18.6515 Q1320.28 18.6515 1324.07 22.876 Q1327.89 27.0716 1327.89 34.3054 M1322.56 32.7429 Q1322.5 28.3737 1320.1 25.7695 Q1317.73 23.1654 1313.8 23.1654 Q1309.34 23.1654 1306.65 25.6827 Q1303.99 28.2001 1303.58 32.7718 L1322.56 32.7429 Z" fill="#000000" fill-rule="nonzero" fill-opacity="1" /><path clip-path="url(#clip740)" d="M1355.4 24.4096 Q1354.51 23.8888 1353.44 23.6573 Q1352.39 23.3969 1351.12 23.3969 Q1346.61 23.3969 1344.18 26.3482 Q1341.78 29.2707 1341.78 34.7683 L1341.78 51.84 L1336.42 51.84 L1336.42 19.4328 L1341.78 19.4328 L1341.78 24.4675 Q1343.45 21.5161 1346.14 20.0983 Q1348.84 18.6515 1352.68 18.6515 Q1353.23 18.6515 1353.9 18.7383 Q1354.56 18.7962 1355.37 18.9409 L1355.4 24.4096 Z" fill="#000000" fill-rule="nonzero" fill-opacity="1" /><path clip-path="url(#clip740)" d="M1387.41 34.3054 L1387.41 36.9095 L1362.93 36.9095 Q1363.27 42.4072 1366.23 45.3007 Q1369.21 48.1653 1374.5 48.1653 Q1377.57 48.1653 1380.43 47.4129 Q1383.33 46.6606 1386.16 45.156 L1386.16 50.1907 Q1383.3 51.406 1380.29 52.0425 Q1377.28 52.6791 1374.18 52.6791 Q1366.43 52.6791 1361.89 48.1653 Q1357.37 43.6514 1357.37 35.9547 Q1357.37 27.9975 1361.65 23.339 Q1365.97 18.6515 1373.26 18.6515 Q1379.8 18.6515 1383.59 22.876 Q1387.41 27.0716 1387.41 34.3054 M1382.08 32.7429 Q1382.02 28.3737 1379.62 25.7695 Q1377.25 23.1654 1373.31 23.1654 Q1368.86 23.1654 1366.17 25.6827 Q1363.51 28.2001 1363.1 32.7718 L1382.08 32.7429 Z" fill="#000000" fill-rule="nonzero" fill-opacity="1" /><path clip-path="url(#clip740)" d="M1423.08 32.2799 L1423.08 51.84 L1417.76 51.84 L1417.76 32.4535 Q1417.76 27.8529 1415.96 25.567 Q1414.17 23.2811 1410.58 23.2811 Q1406.27 23.2811 1403.78 26.03 Q1401.29 28.7788 1401.29 33.5241 L1401.29 51.84 L1395.94 51.84 L1395.94 19.4328 L1401.29 19.4328 L1401.29 24.4675 Q1403.2 21.545 1405.78 20.0983 Q1408.38 18.6515 1411.77 18.6515 Q1417.35 18.6515 1420.22 22.1237 Q1423.08 25.567 1423.08 32.2799 Z" fill="#000000" fill-rule="nonzero" fill-opacity="1" /><path clip-path="url(#clip740)" d="M1457.02 20.677 L1457.02 25.6538 Q1454.77 24.4096 1452.48 23.802 Q1450.22 23.1654 1447.91 23.1654 Q1442.73 23.1654 1439.87 26.464 Q1437 29.7336 1437 35.6653 Q1437 41.597 1439.87 44.8956 Q1442.73 48.1653 1447.91 48.1653 Q1450.22 48.1653 1452.48 47.5576 Q1454.77 46.921 1457.02 45.6768 L1457.02 50.5958 Q1454.8 51.6375 1452.39 52.1583 Q1450.02 52.6791 1447.33 52.6791 Q1440.01 52.6791 1435.7 48.0784 Q1431.39 43.4778 1431.39 35.6653 Q1431.39 27.7371 1435.73 23.1943 Q1440.1 18.6515 1447.68 18.6515 Q1450.14 18.6515 1452.48 19.1724 Q1454.82 19.6642 1457.02 20.677 Z" fill="#000000" fill-rule="nonzero" fill-opacity="1" /><path clip-path="url(#clip740)" d="M1466.28 19.4328 L1471.61 19.4328 L1471.61 51.84 L1466.28 51.84 L1466.28 19.4328 M1466.28 6.81709 L1471.61 6.81709 L1471.61 13.559 L1466.28 13.559 L1466.28 6.81709 Z" fill="#000000" fill-rule="nonzero" fill-opacity="1" /><path clip-path="url(#clip740)" d="M1497.47 35.5496 Q1491.02 35.5496 1488.53 37.0253 Q1486.05 38.501 1486.05 42.06 Q1486.05 44.8956 1487.9 46.5738 Q1489.78 48.2231 1492.99 48.2231 Q1497.42 48.2231 1500.08 45.0981 Q1502.77 41.9442 1502.77 36.7359 L1502.77 35.5496 L1497.47 35.5496 M1508.09 33.3505 L1508.09 51.84 L1502.77 51.84 L1502.77 46.921 Q1500.95 49.8724 1498.23 51.2902 Q1495.51 52.6791 1491.57 52.6791 Q1486.6 52.6791 1483.64 49.9014 Q1480.72 47.0947 1480.72 42.4072 Q1480.72 36.9385 1484.37 34.1607 Q1488.04 31.3829 1495.3 31.3829 L1502.77 31.3829 L1502.77 30.8621 Q1502.77 27.1874 1500.34 25.1908 Q1497.94 23.1654 1493.57 23.1654 Q1490.79 23.1654 1488.16 23.8309 Q1485.52 24.4964 1483.09 25.8274 L1483.09 20.9085 Q1486.02 19.78 1488.77 19.2302 Q1491.51 18.6515 1494.12 18.6515 Q1501.15 18.6515 1504.62 22.2973 Q1508.09 25.9431 1508.09 33.3505 Z" fill="#000000" fill-rule="nonzero" fill-opacity="1" /><path clip-path="url(#clip740)" d="M1519.06 6.81709 L1524.38 6.81709 L1524.38 51.84 L1519.06 51.84 L1519.06 6.81709 Z" fill="#000000" fill-rule="nonzero" fill-opacity="1" /><path clip-path="url(#clip740)" d="M1569.09 35.5496 Q1562.64 35.5496 1560.15 37.0253 Q1557.66 38.501 1557.66 42.06 Q1557.66 44.8956 1559.51 46.5738 Q1561.39 48.2231 1564.6 48.2231 Q1569.03 48.2231 1571.69 45.0981 Q1574.38 41.9442 1574.38 36.7359 L1574.38 35.5496 L1569.09 35.5496 M1579.71 33.3505 L1579.71 51.84 L1574.38 51.84 L1574.38 46.921 Q1572.56 49.8724 1569.84 51.2902 Q1567.12 52.6791 1563.19 52.6791 Q1558.21 52.6791 1555.26 49.9014 Q1552.34 47.0947 1552.34 42.4072 Q1552.34 36.9385 1555.98 34.1607 Q1559.66 31.3829 1566.92 31.3829 L1574.38 31.3829 L1574.38 30.8621 Q1574.38 27.1874 1571.95 25.1908 Q1569.55 23.1654 1565.18 23.1654 Q1562.41 23.1654 1559.77 23.8309 Q1557.14 24.4964 1554.71 25.8274 L1554.71 20.9085 Q1557.63 19.78 1560.38 19.2302 Q1563.13 18.6515 1565.73 18.6515 Q1572.76 18.6515 1576.24 22.2973 Q1579.71 25.9431 1579.71 33.3505 Z" fill="#000000" fill-rule="nonzero" fill-opacity="1" /><path clip-path="url(#clip740)" d="M1590.67 6.81709 L1596 6.81709 L1596 51.84 L1590.67 51.84 L1590.67 6.81709 Z" fill="#000000" fill-rule="nonzero" fill-opacity="1" /><path clip-path="url(#clip740)" d="M1634.86 34.3054 L1634.86 36.9095 L1610.38 36.9095 Q1610.73 42.4072 1613.68 45.3007 Q1616.66 48.1653 1621.95 48.1653 Q1625.02 48.1653 1627.89 47.4129 Q1630.78 46.6606 1633.61 45.156 L1633.61 50.1907 Q1630.75 51.406 1627.74 52.0425 Q1624.73 52.6791 1621.64 52.6791 Q1613.88 52.6791 1609.34 48.1653 Q1604.82 43.6514 1604.82 35.9547 Q1604.82 27.9975 1609.11 23.339 Q1613.42 18.6515 1620.71 18.6515 Q1627.25 18.6515 1631.04 22.876 Q1634.86 27.0716 1634.86 34.3054 M1629.53 32.7429 Q1629.48 28.3737 1627.07 25.7695 Q1624.7 23.1654 1620.77 23.1654 Q1616.31 23.1654 1613.62 25.6827 Q1610.96 28.2001 1610.55 32.7718 L1629.53 32.7429 Z" fill="#000000" fill-rule="nonzero" fill-opacity="1" /><path clip-path="url(#clip740)" d="M1658.32 35.5496 Q1651.87 35.5496 1649.38 37.0253 Q1646.9 38.501 1646.9 42.06 Q1646.9 44.8956 1648.75 46.5738 Q1650.63 48.2231 1653.84 48.2231 Q1658.27 48.2231 1660.93 45.0981 Q1663.62 41.9442 1663.62 36.7359 L1663.62 35.5496 L1658.32 35.5496 M1668.94 33.3505 L1668.94 51.84 L1663.62 51.84 L1663.62 46.921 Q1661.8 49.8724 1659.08 51.2902 Q1656.36 52.6791 1652.42 52.6791 Q1647.45 52.6791 1644.49 49.9014 Q1641.57 47.0947 1641.57 42.4072 Q1641.57 36.9385 1645.22 34.1607 Q1648.89 31.3829 1656.15 31.3829 L1663.62 31.3829 L1663.62 30.8621 Q1663.62 27.1874 1661.19 25.1908 Q1658.79 23.1654 1654.42 23.1654 Q1651.64 23.1654 1649.01 23.8309 Q1646.37 24.4964 1643.94 25.8274 L1643.94 20.9085 Q1646.87 19.78 1649.62 19.2302 Q1652.36 18.6515 1654.97 18.6515 Q1662 18.6515 1665.47 22.2973 Q1668.94 25.9431 1668.94 33.3505 Z" fill="#000000" fill-rule="nonzero" fill-opacity="1" /><path clip-path="url(#clip740)" d="M1685.18 10.2314 L1685.18 19.4328 L1696.14 19.4328 L1696.14 23.5705 L1685.18 23.5705 L1685.18 41.163 Q1685.18 45.1271 1686.25 46.2555 Q1687.35 47.384 1690.67 47.384 L1696.14 47.384 L1696.14 51.84 L1690.67 51.84 Q1684.51 51.84 1682.17 49.5541 Q1679.82 47.2393 1679.82 41.163 L1679.82 23.5705 L1675.92 23.5705 L1675.92 19.4328 L1679.82 19.4328 L1679.82 10.2314 L1685.18 10.2314 Z" fill="#000000" fill-rule="nonzero" fill-opacity="1" /><path clip-path="url(#clip740)" d="M1715.7 23.1654 Q1711.42 23.1654 1708.93 26.5218 Q1706.44 29.8494 1706.44 35.6653 Q1706.44 41.4813 1708.9 44.8377 Q1711.39 48.1653 1715.7 48.1653 Q1719.96 48.1653 1722.44 44.8088 Q1724.93 41.4523 1724.93 35.6653 Q1724.93 29.9072 1722.44 26.5508 Q1719.96 23.1654 1715.7 23.1654 M1715.7 18.6515 Q1722.65 18.6515 1726.61 23.1654 Q1730.58 27.6792 1730.58 35.6653 Q1730.58 43.6225 1726.61 48.1653 Q1722.65 52.6791 1715.7 52.6791 Q1708.73 52.6791 1704.77 48.1653 Q1700.83 43.6225 1700.83 35.6653 Q1700.83 27.6792 1704.77 23.1654 Q1708.73 18.6515 1715.7 18.6515 M1719.72 4.44442 L1725.48 4.44442 L1716.05 15.324 L1711.62 15.324 L1719.72 4.44442 Z" fill="#000000" fill-rule="nonzero" fill-opacity="1" /><path clip-path="url(#clip740)" d="M1758.18 24.4096 Q1757.28 23.8888 1756.21 23.6573 Q1755.17 23.3969 1753.9 23.3969 Q1749.38 23.3969 1746.95 26.3482 Q1744.55 29.2707 1744.55 34.7683 L1744.55 51.84 L1739.2 51.84 L1739.2 19.4328 L1744.55 19.4328 L1744.55 24.4675 Q1746.23 21.5161 1748.92 20.0983 Q1751.61 18.6515 1755.46 18.6515 Q1756.01 18.6515 1756.67 18.7383 Q1757.34 18.7962 1758.15 18.9409 L1758.18 24.4096 Z" fill="#000000" fill-rule="nonzero" fill-opacity="1" /><path clip-path="url(#clip740)" d="M1763.76 19.4328 L1769.09 19.4328 L1769.09 51.84 L1763.76 51.84 L1763.76 19.4328 M1763.76 6.81709 L1769.09 6.81709 L1769.09 13.559 L1763.76 13.559 L1763.76 6.81709 Z" fill="#000000" fill-rule="nonzero" fill-opacity="1" /><path clip-path="url(#clip740)" d="M1794.96 35.5496 Q1788.5 35.5496 1786.01 37.0253 Q1783.53 38.501 1783.53 42.06 Q1783.53 44.8956 1785.38 46.5738 Q1787.26 48.2231 1790.47 48.2231 Q1794.9 48.2231 1797.56 45.0981 Q1800.25 41.9442 1800.25 36.7359 L1800.25 35.5496 L1794.96 35.5496 M1805.58 33.3505 L1805.58 51.84 L1800.25 51.84 L1800.25 46.921 Q1798.43 49.8724 1795.71 51.2902 Q1792.99 52.6791 1789.05 52.6791 Q1784.08 52.6791 1781.12 49.9014 Q1778.2 47.0947 1778.2 42.4072 Q1778.2 36.9385 1781.85 34.1607 Q1785.52 31.3829 1792.79 31.3829 L1800.25 31.3829 L1800.25 30.8621 Q1800.25 27.1874 1797.82 25.1908 Q1795.42 23.1654 1791.05 23.1654 Q1788.27 23.1654 1785.64 23.8309 Q1783.01 24.4964 1780.58 25.8274 L1780.58 20.9085 Q1783.5 19.78 1786.25 19.2302 Q1789 18.6515 1791.6 18.6515 Q1798.63 18.6515 1802.1 22.2973 Q1805.58 25.9431 1805.58 33.3505 Z" fill="#000000" fill-rule="nonzero" fill-opacity="1" /><path clip-path="url(#clip740)" d="M1840.41 4.44442 L1848.57 15.2661 L1844.15 15.2661 L1834.71 4.44442 L1840.41 4.44442 Z" fill="#000000" fill-rule="nonzero" fill-opacity="1" /><path clip-path="url(#clip740)" d="M1864.46 39.0507 L1864.46 19.4328 L1869.78 19.4328 L1869.78 38.8482 Q1869.78 43.4488 1871.58 45.7636 Q1873.37 48.0495 1876.96 48.0495 Q1881.27 48.0495 1883.76 45.3007 Q1886.27 42.5519 1886.27 37.8065 L1886.27 19.4328 L1891.6 19.4328 L1891.6 51.84 L1886.27 51.84 L1886.27 46.8632 Q1884.34 49.8145 1881.76 51.2613 Q1879.21 52.6791 1875.83 52.6791 Q1870.24 52.6791 1867.35 49.2069 Q1864.46 45.7347 1864.46 39.0507 M1877.85 18.6515 L1877.85 18.6515 Z" fill="#000000" fill-rule="nonzero" fill-opacity="1" /><path clip-path="url(#clip740)" d="M1907.6 8.64 L1907.6 24.6989 L1902.68 24.6989 L1902.68 8.64 L1907.6 8.64 Z" fill="#000000" fill-rule="nonzero" fill-opacity="1" /><path clip-path="url(#clip740)" d="M1938.39 24.9304 L1975.48 24.9304 L1975.48 29.7915 L1938.39 29.7915 L1938.39 24.9304 M1938.39 36.7359 L1975.48 36.7359 L1975.48 41.6549 L1938.39 41.6549 L1938.39 36.7359 Z" fill="#000000" fill-rule="nonzero" fill-opacity="1" /><path clip-path="url(#clip740)" d="M2026.84 20.3876 L2026.84 25.4223 Q2024.58 24.2649 2022.15 23.6862 Q2019.72 23.1075 2017.12 23.1075 Q2013.15 23.1075 2011.16 24.3228 Q2009.19 25.5381 2009.19 27.9686 Q2009.19 29.8204 2010.61 30.891 Q2012.03 31.9327 2016.31 32.8876 L2018.13 33.2926 Q2023.8 34.5079 2026.18 36.7359 Q2028.58 38.935 2028.58 42.8991 Q2028.58 47.4129 2024.99 50.046 Q2021.43 52.6791 2015.18 52.6791 Q2012.58 52.6791 2009.74 52.1583 Q2006.93 51.6664 2003.81 50.6537 L2003.81 45.156 Q2006.76 46.6896 2009.62 47.4708 Q2012.49 48.2231 2015.3 48.2231 Q2019.06 48.2231 2021.08 46.95 Q2023.11 45.6479 2023.11 43.3042 Q2023.11 41.134 2021.63 39.9766 Q2020.19 38.8192 2015.24 37.7486 L2013.39 37.3146 Q2008.44 36.273 2006.24 34.1318 Q2004.04 31.9616 2004.04 28.2001 Q2004.04 23.6283 2007.28 21.1399 Q2010.52 18.6515 2016.48 18.6515 Q2019.43 18.6515 2022.04 19.0855 Q2024.64 19.5196 2026.84 20.3876 Z" fill="#000000" fill-rule="nonzero" fill-opacity="1" /><path clip-path="url(#clip740)" d="M2037.06 19.4328 L2042.38 19.4328 L2042.38 51.84 L2037.06 51.84 L2037.06 19.4328 M2037.06 6.81709 L2042.38 6.81709 L2042.38 13.559 L2037.06 13.559 L2037.06 6.81709 Z" fill="#000000" fill-rule="nonzero" fill-opacity="1" /><path clip-path="url(#clip740)" d="M2080.46 32.2799 L2080.46 51.84 L2075.13 51.84 L2075.13 32.4535 Q2075.13 27.8529 2073.34 25.567 Q2071.55 23.2811 2067.96 23.2811 Q2063.65 23.2811 2061.16 26.03 Q2058.67 28.7788 2058.67 33.5241 L2058.67 51.84 L2053.32 51.84 L2053.32 19.4328 L2058.67 19.4328 L2058.67 24.4675 Q2060.58 21.545 2063.15 20.0983 Q2065.76 18.6515 2069.14 18.6515 Q2074.73 18.6515 2077.59 22.1237 Q2080.46 25.567 2080.46 32.2799 Z" fill="#000000" fill-rule="nonzero" fill-opacity="1" /><path clip-path="url(#clip740)" d="M2103.87 6.87496 Q2099.99 13.53 2098.11 20.0404 Q2096.23 26.5508 2096.23 33.2348 Q2096.23 39.9188 2098.11 46.487 Q2100.02 53.0263 2103.87 59.6525 L2099.24 59.6525 Q2094.9 52.8527 2092.73 46.2845 Q2090.59 39.7162 2090.59 33.2348 Q2090.59 26.7823 2092.73 20.2429 Q2094.87 13.7036 2099.24 6.87496 L2103.87 6.87496 Z" fill="#000000" fill-rule="nonzero" fill-opacity="1" /><path clip-path="url(#clip740)" d="M2110.58 8.64 L2116.48 8.64 L2125.57 45.156 L2134.62 8.64 L2141.19 8.64 L2150.28 45.156 L2159.33 8.64 L2165.27 8.64 L2154.42 51.84 L2147.07 51.84 L2137.95 14.3402 L2128.75 51.84 L2121.4 51.84 L2110.58 8.64 Z" fill="#000000" fill-rule="nonzero" fill-opacity="1" /><path clip-path="url(#clip740)" d="M2171.95 6.87496 L2176.58 6.87496 Q2180.92 13.7036 2183.06 20.2429 Q2185.23 26.7823 2185.23 33.2348 Q2185.23 39.7162 2183.06 46.2845 Q2180.92 52.8527 2176.58 59.6525 L2171.95 59.6525 Q2175.8 53.0263 2177.68 46.487 Q2179.59 39.9188 2179.59 33.2348 Q2179.59 26.5508 2177.68 20.0404 Q2175.8 13.53 2171.95 6.87496 Z" fill="#000000" fill-rule="nonzero" fill-opacity="1" /><path clip-path="url(#clip740)" d="M2195.36 39.0507 L2195.36 19.4328 L2200.68 19.4328 L2200.68 38.8482 Q2200.68 43.4488 2202.48 45.7636 Q2204.27 48.0495 2207.86 48.0495 Q2212.17 48.0495 2214.66 45.3007 Q2217.18 42.5519 2217.18 37.8065 L2217.18 19.4328 L2222.5 19.4328 L2222.5 51.84 L2217.18 51.84 L2217.18 46.8632 Q2215.24 49.8145 2212.66 51.2613 Q2210.12 52.6791 2206.73 52.6791 Q2201.15 52.6791 2198.25 49.2069 Q2195.36 45.7347 2195.36 39.0507 M2208.76 18.6515 L2208.76 18.6515 Z" fill="#000000" fill-rule="nonzero" fill-opacity="1" /><path clip-path="url(#clip740)" d="M2238.5 4.44442 L2246.66 15.2661 L2242.23 15.2661 L2232.8 4.44442 L2238.5 4.44442 Z" fill="#000000" fill-rule="nonzero" fill-opacity="1" /><path clip-path="url(#clip740)" d="M2305.25 20.677 L2305.25 25.6538 Q2303 24.4096 2300.71 23.802 Q2298.45 23.1654 2296.14 23.1654 Q2290.96 23.1654 2288.1 26.464 Q2285.23 29.7336 2285.23 35.6653 Q2285.23 41.597 2288.1 44.8956 Q2290.96 48.1653 2296.14 48.1653 Q2298.45 48.1653 2300.71 47.5576 Q2303 46.921 2305.25 45.6768 L2305.25 50.5958 Q2303.03 51.6375 2300.62 52.1583 Q2298.25 52.6791 2295.56 52.6791 Q2288.24 52.6791 2283.93 48.0784 Q2279.62 43.4778 2279.62 35.6653 Q2279.62 27.7371 2283.96 23.1943 Q2288.33 18.6515 2295.91 18.6515 Q2298.37 18.6515 2300.71 19.1724 Q2303.06 19.6642 2305.25 20.677 Z" fill="#000000" fill-rule="nonzero" fill-opacity="1" /><path clip-path="url(#clip740)" d="M2327.07 23.1654 Q2322.79 23.1654 2320.3 26.5218 Q2317.81 29.8494 2317.81 35.6653 Q2317.81 41.4813 2320.27 44.8377 Q2322.76 48.1653 2327.07 48.1653 Q2331.32 48.1653 2333.81 44.8088 Q2336.3 41.4523 2336.3 35.6653 Q2336.3 29.9072 2333.81 26.5508 Q2331.32 23.1654 2327.07 23.1654 M2327.07 18.6515 Q2334.02 18.6515 2337.98 23.1654 Q2341.94 27.6792 2341.94 35.6653 Q2341.94 43.6225 2337.98 48.1653 Q2334.02 52.6791 2327.07 52.6791 Q2320.1 52.6791 2316.13 48.1653 Q2312.2 43.6225 2312.2 35.6653 Q2312.2 27.6792 2316.13 23.1654 Q2320.1 18.6515 2327.07 18.6515 Z" fill="#000000" fill-rule="nonzero" fill-opacity="1" /><path clip-path="url(#clip740)" d="M2376 25.6538 Q2378 22.0659 2380.77 20.3587 Q2383.55 18.6515 2387.31 18.6515 Q2392.38 18.6515 2395.13 22.2105 Q2397.88 25.7406 2397.88 32.2799 L2397.88 51.84 L2392.52 51.84 L2392.52 32.4535 Q2392.52 27.795 2390.87 25.5381 Q2389.22 23.2811 2385.84 23.2811 Q2381.7 23.2811 2379.3 26.03 Q2376.9 28.7788 2376.9 33.5241 L2376.9 51.84 L2371.54 51.84 L2371.54 32.4535 Q2371.54 27.7661 2369.89 25.5381 Q2368.25 23.2811 2364.8 23.2811 Q2360.72 23.2811 2358.32 26.0589 Q2355.92 28.8077 2355.92 33.5241 L2355.92 51.84 L2350.57 51.84 L2350.57 19.4328 L2355.92 19.4328 L2355.92 24.4675 Q2357.74 21.4872 2360.29 20.0693 Q2362.83 18.6515 2366.34 18.6515 Q2369.87 18.6515 2372.33 20.4455 Q2374.81 22.2395 2376 25.6538 Z" fill="#000000" fill-rule="nonzero" fill-opacity="1" /><path clip-path="url(#clip740)" d="M2432.37 4.44442 L2440.53 15.2661 L2436.1 15.2661 L2426.67 4.44442 L2432.37 4.44442 Z" fill="#000000" fill-rule="nonzero" fill-opacity="1" /><path clip-path="url(#clip740)" d="M2456.41 39.0507 L2456.41 19.4328 L2461.73 19.4328 L2461.73 38.8482 Q2461.73 43.4488 2463.53 45.7636 Q2465.32 48.0495 2468.91 48.0495 Q2473.22 48.0495 2475.71 45.3007 Q2478.23 42.5519 2478.23 37.8065 L2478.23 19.4328 L2483.55 19.4328 L2483.55 51.84 L2478.23 51.84 L2478.23 46.8632 Q2476.29 49.8145 2473.71 51.2613 Q2471.17 52.6791 2467.78 52.6791 Q2462.2 52.6791 2459.3 49.2069 Q2456.41 45.7347 2456.41 39.0507 M2469.81 18.6515 L2469.81 18.6515 Z" fill="#000000" fill-rule="nonzero" fill-opacity="1" /><path clip-path="url(#clip740)" d="M2507.31 6.87496 Q2503.43 13.53 2501.55 20.0404 Q2499.67 26.5508 2499.67 33.2348 Q2499.67 39.9188 2501.55 46.487 Q2503.46 53.0263 2507.31 59.6525 L2502.68 59.6525 Q2498.34 52.8527 2496.17 46.2845 Q2494.03 39.7162 2494.03 33.2348 Q2494.03 26.7823 2496.17 20.2429 Q2498.31 13.7036 2502.68 6.87496 L2507.31 6.87496 Z" fill="#000000" fill-rule="nonzero" fill-opacity="1" /><path clip-path="url(#clip740)" d="M2530.89 12.4884 Q2526.38 12.4884 2524.09 16.9444 Q2521.83 21.3714 2521.83 30.2834 Q2521.83 39.1665 2524.09 43.6225 Q2526.38 48.0495 2530.89 48.0495 Q2535.43 48.0495 2537.69 43.6225 Q2539.98 39.1665 2539.98 30.2834 Q2539.98 21.3714 2537.69 16.9444 Q2535.43 12.4884 2530.89 12.4884 M2530.89 7.85875 Q2538.15 7.85875 2541.97 13.6168 Q2545.82 19.346 2545.82 30.2834 Q2545.82 41.1919 2541.97 46.95 Q2538.15 52.6791 2530.89 52.6791 Q2523.63 52.6791 2519.78 46.95 Q2515.96 41.1919 2515.96 30.2834 Q2515.96 19.346 2519.78 13.6168 Q2523.63 7.85875 2530.89 7.85875 Z" fill="#000000" fill-rule="nonzero" fill-opacity="1" /><path clip-path="url(#clip740)" d="M2554.5 6.87496 L2559.13 6.87496 Q2563.47 13.7036 2565.61 20.2429 Q2567.78 26.7823 2567.78 33.2348 Q2567.78 39.7162 2565.61 46.2845 Q2563.47 52.8527 2559.13 59.6525 L2554.5 59.6525 Q2558.35 53.0263 2560.23 46.487 Q2562.14 39.9188 2562.14 33.2348 Q2562.14 26.5508 2560.23 20.0404 Q2558.35 13.53 2554.5 6.87496 Z" fill="#000000" fill-rule="nonzero" fill-opacity="1" /><path clip-path="url(#clip740)" d="M2597.99 24.9304 L2635.08 24.9304 L2635.08 29.7915 L2597.99 29.7915 L2597.99 24.9304 M2597.99 36.7359 L2635.08 36.7359 L2635.08 41.6549 L2597.99 41.6549 L2597.99 36.7359 Z" fill="#000000" fill-rule="nonzero" fill-opacity="1" /><path clip-path="url(#clip740)" d="M2667.55 46.921 L2677.1 46.921 L2677.1 13.964 L2666.71 16.0474 L2666.71 10.7233 L2677.04 8.64 L2682.89 8.64 L2682.89 46.921 L2692.43 46.921 L2692.43 51.84 L2667.55 51.84 L2667.55 46.921 Z" fill="#000000" fill-rule="nonzero" fill-opacity="1" /><path clip-path="url(#clip740)" d="M2704.24 44.4905 L2710.34 44.4905 L2710.34 51.84 L2704.24 51.84 L2704.24 44.4905 Z" fill="#000000" fill-rule="nonzero" fill-opacity="1" /><path clip-path="url(#clip740)" d="M2735.58 12.4884 Q2731.06 12.4884 2728.78 16.9444 Q2726.52 21.3714 2726.52 30.2834 Q2726.52 39.1665 2728.78 43.6225 Q2731.06 48.0495 2735.58 48.0495 Q2740.12 48.0495 2742.38 43.6225 Q2744.66 39.1665 2744.66 30.2834 Q2744.66 21.3714 2742.38 16.9444 Q2740.12 12.4884 2735.58 12.4884 M2735.58 7.85875 Q2742.84 7.85875 2746.66 13.6168 Q2750.51 19.346 2750.51 30.2834 Q2750.51 41.1919 2746.66 46.95 Q2742.84 52.6791 2735.58 52.6791 Q2728.31 52.6791 2724.46 46.95 Q2720.65 41.1919 2720.65 30.2834 Q2720.65 19.346 2724.46 13.6168 Q2728.31 7.85875 2735.58 7.85875 Z" fill="#000000" fill-rule="nonzero" fill-opacity="1" /><path clip-path="url(#clip740)" d="M2765.06 4.44442 L2773.22 15.2661 L2768.79 15.2661 L2759.36 4.44442 L2765.06 4.44442 Z" fill="#000000" fill-rule="nonzero" fill-opacity="1" /><polyline clip-path="url(#clip742)" style="stroke:#009af9; stroke-linecap:round; stroke-linejoin:round; stroke-width:4; stroke-opacity:1; fill:none" points="316.103,171.246 321.611,171.246 327.119,170.837 332.627,176.165 338.135,179.843 343.643,187.432 349.152,191.461 354.66,200.993 360.168,216.16 365.676,228.576 371.184,245.37 376.692,262.216 382.2,273.85 387.708,284.955 393.216,298.863 398.724,308.288 404.232,321.106 409.74,340.918 415.248,363.193 420.756,385.346 426.264,408.402 431.772,429.928 437.281,448.972 442.789,469.641 448.297,492.844 453.805,518.222 459.313,538.284 464.821,558.984 470.329,576.674 475.837,593.369 481.345,614.348 486.853,636.4 492.361,659.325 497.869,678.798 503.377,700.13 508.885,725.094 514.393,750.481 519.902,777.176 525.41,804.558 530.918,832.072 536.426,857.738 541.934,882.926 547.442,907.725 552.95,930.499 558.458,955.538 563.966,979.732 569.474,1005.52 574.982,1030.75 580.49,1056.15 585.998,1079.85 591.506,1101.65 597.014,1124.18 602.522,1148.93 608.031,1172.41 613.539,1194.12 619.047,1215.99 624.555,1236.94 630.063,1258.45 635.571,1276.34 641.079,1293.23 646.587,1311.13 652.095,1327.02 657.603,1342.53 663.111,1357.29 668.619,1375.26 674.127,1393.22 679.635,1410.52 685.143,1429.9 690.651,1448.74 696.16,1465.56 701.668,1480.5 707.176,1492.72 712.684,1502.89 718.192,1512.04 723.7,1520.37 729.208,1528.71 734.716,1536.01 740.224,1543.99 745.732,1552.9 751.24,1560.4 756.748,1567.01 762.256,1571.6 767.764,1574.1 773.272,1577.3 778.78,1580.83 784.289,1583.71 789.797,1587.52 795.305,1591.62 800.813,1594.95 806.321,1596.15 811.829,1596.15 817.337,1597.75 822.845,1598.41 828.353,1596.15 833.861,1591.97 839.369,1586.68 844.877,1582.7 850.385,1580.98 855.893,1578.2 861.401,1575.61 866.91,1576.24 872.418,1575.03 877.926,1574.07 883.434,1574.52 888.942,1576.92 894.45,1581.66 899.958,1584.9 905.466,1589.59 910.974,1595.75 916.482,1601.18 921.99,1610.99 927.498,1622.59 933.006,1632.68 938.514,1645.97 944.022,1658.09 949.53,1671.08 955.039,1683.97 960.547,1693.9 966.055,1706 971.563,1715.15 977.071,1720.06 982.579,1728.33 988.087,1737.86 993.595,1746.63 999.103,1753.06 1004.61,1757.5 1010.12,1761.08 1015.63,1766.43 1021.14,1768.28 1026.64,1768.29 1032.15,1766.9 1037.66,1770.5 1043.17,1769.33 1048.68,1768.39 1054.18,1767.36 1059.69,1766.44 1065.2,1765.03 1070.71,1757.34 1076.22,1748.83 1081.72,1741.8 1087.23,1734.82 1092.74,1726.59 1098.25,1719.57 1103.76,1715.92 1109.26,1709.39 1114.77,1703.14 1120.28,1698.98 1125.79,1692.49 1131.3,1685.69 1136.8,1678.68 1142.31,1674.5 1147.82,1670.01 1153.33,1667.53 1158.84,1660.35 1164.34,1657.07 1169.85,1651.38 1175.36,1645.93 1180.87,1641.45 1186.38,1635.47 1191.89,1634.24 1197.39,1630.1 1202.9,1625.19 1208.41,1622.57 1213.92,1624.35 1219.43,1626.28 1224.93,1625.57 1230.44,1623.78 1235.95,1623.16 1241.46,1620.97 1246.97,1617.44 1252.47,1616.18 1257.98,1616.67 1263.49,1618.53 1269,1621.98 1274.51,1626.35 1280.01,1633.34 1285.52,1639.95 1291.03,1646.44 1296.54,1654.15 1302.05,1659.75 1307.55,1669.09 1313.06,1682.8 1318.57,1699.4 1324.08,1713.41 1329.59,1726.18 1335.09,1739.57 1340.6,1752.46 1346.11,1763.77 1351.62,1775.53 1357.13,1790.69 1362.64,1805.04 1368.14,1818.04 1373.65,1829.9 1379.16,1839.09 1384.67,1847.47 1390.18,1854.72 1395.68,1861.07 1401.19,1870.26 1406.7,1878.7 1412.21,1885.93 1417.72,1893.16 1423.22,1900.03 1428.73,1906.03 1434.24,1911.57 1439.75,1919.06 1445.26,1927.13 1450.76,1935.49 1456.27,1943.18 1461.78,1951.41 1467.29,1959.14 1472.8,1968.61 1478.3,1977.84 1483.81,1984.59 1489.32,1990 1494.83,1995.58 1500.34,1998.3 1505.84,2002.18 1511.35,2003.39 1516.86,2006.03 1522.37,2007.06 1527.88,2009.96 1533.39,2012.27 1538.89,2014.82 1544.4,2020.12 1549.91,2028.94 1555.42,2038.73 1560.93,2049.21 1566.43,2057.65 1571.94,2066.41 1577.45,2075.1 1582.96,2083.69 1588.47,2089.4 1593.97,2095.34 1599.48,2101.55 1604.99,2110.21 1610.5,2118.09 1616.01,2122.28 1621.51,2126.13 1627.02,2130.92 1632.53,2134.44 1638.04,2136.93 1643.55,2137.76 1649.05,2139.15 1654.56,2140.8 1660.07,2141.88 1665.58,2142.71 1671.09,2144.55 1676.59,2144.51 1682.1,2145.67 1687.61,2144.38 1693.12,2143.42 1698.63,2141.5 1704.14,2136.47 1709.64,2129.52 1715.15,2123.64 1720.66,2117.37 1726.17,2109.83 1731.68,2100.23 1737.18,2090.17 1742.69,2084.04 1748.2,2080.96 1753.71,2079.04 1759.22,2077.03 1764.72,2077 1770.23,2075.14 1775.74,2071.33 1781.25,2067.95 1786.76,2062.85 1792.26,2058.46 1797.77,2055.2 1803.28,2052.35 1808.79,2047.21 1814.3,2042.04 1819.8,2036.31 1825.31,2032.41 1830.82,2028 1836.33,2019.95 1841.84,2009.65 1847.34,1998.53 1852.85,1987.03 1858.36,1976.09 1863.87,1964.75 1869.38,1953.71 1874.89,1941.79 1880.39,1930.44 1885.9,1918.32 1891.41,1906.76 1896.92,1894.42 1902.43,1880.97 1907.93,1869.11 1913.44,1855.8 1918.95,1844.3 1924.46,1831.73 1929.97,1818.1 1935.47,1803.39 1940.98,1788.36 1946.49,1773.24 1952,1759.91 1957.51,1744.85 1963.01,1730.38 1968.52,1716.83 1974.03,1706.77 1979.54,1695.83 1985.05,1684.26 1990.55,1674.5 1996.06,1662.97 2001.57,1649.02 2007.08,1634.22 2012.59,1618.77 2018.09,1602.93 2023.6,1584.1 2029.11,1565.72 2034.62,1546.13 2040.13,1525.2 2045.64,1502.94 2051.14,1480.27 2056.65,1457.4 2062.16,1434.39 2067.67,1411.35 2073.18,1388.14 2078.68,1364.32 2084.19,1340.27 2089.7,1315.96 2095.21,1291.81 2100.72,1268.63 2106.22,1245.93 2111.73,1223.1 2117.24,1201.44 2122.75,1177.53 2128.26,1154.7 2133.76,1132.7 2139.27,1112.64 2144.78,1093.35 2150.29,1073.23 2155.8,1053.8 2161.3,1036.01 2166.81,1018.71 2172.32,999.458 2177.83,982.568 2183.34,969.079 2188.84,958.208 2194.35,953 2199.86,951.171 2205.37,953.579 2210.88,951.737 2216.39,951.035 2221.89,954.034 2227.4,958.598 2232.91,962.948 2238.42,969.962 2243.93,978.299 2249.43,986.982 2254.94,996.028 2260.45,1008.45 2265.96,1023.04 2271.47,1037.66 2276.97,1047.59 2282.48,1060.23 2287.99,1070.09 2293.5,1079.95 2299.01,1088.68 2304.51,1097.7 2310.02,1105.63 2315.53,1109.72 2321.04,1114.49 2326.55,1118.83 2332.05,1117.67 2337.56,1116.79 2343.07,1115.06 2348.58,1115.8 2354.09,1116.25 2359.59,1114.76 2365.1,1115.15 2370.61,1116.02 2376.12,1119.9 2381.63,1120.94 2387.14,1117.09 2392.64,1111.25 2398.15,1104.06 2403.66,1097.3 2409.17,1090.5 2414.68,1089.79 2420.18,1090.58 2425.69,1087.33 2431.2,1084.28 2436.71,1082.98 2442.22,1079.78 2447.72,1073.93 2453.23,1070.11 2458.74,1067.99 2464.25,1064.83 2469.76,1065.91 2475.26,1070.4 2480.77,1076.71 2486.28,1087.14 2491.79,1089.68 2497.3,1093.44 2502.8,1097.44 2508.31,1098.2 2513.82,1102.31 2519.33,1110.37 2524.84,1117.24 2530.34,1125.29 2535.85,1131.82 2541.36,1141.55 2546.87,1149.41 2552.38,1163.12 2557.89,1175.38 2563.39,1184.42 2568.9,1197.16 2574.41,1212.41 2579.92,1226.11 2585.43,1240.66 2590.93,1258.34 2596.44,1274.09 2601.95,1289.44 2607.46,1303.47 2612.97,1316.68 2618.47,1326.49 2623.98,1339.35 2629.49,1354.25 2635,1368.51 2640.51,1379.53 2646.01,1388.55 2651.52,1395.09 2657.03,1404.95 2662.54,1410.33 2668.05,1414.01 2673.55,1419.17 2679.06,1425.02 2684.57,1427.07 2690.08,1429.58 2695.59,1428.65 2701.09,1425.01 2706.6,1422.82 2712.11,1423.4 2717.62,1422.96 2723.13,1423.36 2728.64,1424.78 2734.14,1425.69 2739.65,1427.57 2745.16,1432.53 2750.67,1438.8 2756.18,1443 2761.68,1447.02 2767.19,1449.46 2772.7,1455.24 2778.21,1463.48 2783.72,1471.94 2789.22,1481.63 2794.73,1494.34 2800.24,1509.39 2805.75,1525.55 2811.26,1543.84 2816.76,1560.62 2822.27,1578.17 2827.78,1594.57 2833.29,1611.18 2838.8,1626.82 2844.3,1644.02 2849.81,1660.31 2855.32,1675.53 2860.83,1688.83 2866.34,1701.24 2871.84,1712.36 2877.35,1721.98 2882.86,1730.66 2888.37,1741.11 2893.88,1751.88 2899.38,1766 2904.89,1779.37 2910.4,1792.03 2915.91,1804.48 2921.42,1815.57 2926.93,1828.7 2932.43,1841.15 2937.94,1853.59 2943.45,1866.36 2948.96,1879.06 2954.47,1890.93 2959.97,1900.08 2965.48,1910.51 2970.99,1920.28 2976.5,1928.73 2982.01,1937.2 2987.51,1944.18 2993.02,1949.47 2998.53,1955.33 3004.04,1960.29 3009.55,1964.76 3015.05,1964.89 3020.56,1964.91 3026.07,1965.24 3031.58,1965.82 3037.09,1967.03 3042.59,1967.75 3048.1,1966.96 3053.61,1967.86 3059.12,1970.09 3064.63,1971.78 3070.13,1974.33 "/>
</svg>
