<?xml version="1.0" encoding="utf-8"?>
<svg xmlns="http://www.w3.org/2000/svg" xmlns:xlink="http://www.w3.org/1999/xlink" width="600" height="400" viewBox="0 0 2400 1600">
<defs>
  <clipPath id="clip390">
    <rect x="0" y="0" width="2400" height="1600"/>
  </clipPath>
</defs>
<path clip-path="url(#clip390)" d="
M0 1600 L2400 1600 L2400 0 L0 0  Z
  " fill="#ffffff" fill-rule="evenodd" fill-opacity="1"/>
<defs>
  <clipPath id="clip391">
    <rect x="480" y="0" width="1681" height="1600"/>
  </clipPath>
</defs>
<path clip-path="url(#clip390)" d="
M154.515 1423.18 L2352.76 1423.18 L2352.76 47.2441 L154.515 47.2441  Z
  " fill="#eaeaea" fill-rule="evenodd" fill-opacity="1"/>
<defs>
  <clipPath id="clip392">
    <rect x="154" y="47" width="2199" height="1377"/>
  </clipPath>
</defs>
<polyline clip-path="url(#clip392)" style="stroke:#ffffff; stroke-linecap:butt; stroke-linejoin:round; stroke-width:4; stroke-opacity:1; fill:none" points="
  216.729,1423.18 216.729,47.2441 
  "/>
<polyline clip-path="url(#clip392)" style="stroke:#ffffff; stroke-linecap:butt; stroke-linejoin:round; stroke-width:4; stroke-opacity:1; fill:none" points="
  631.492,1423.18 631.492,47.2441 
  "/>
<polyline clip-path="url(#clip392)" style="stroke:#ffffff; stroke-linecap:butt; stroke-linejoin:round; stroke-width:4; stroke-opacity:1; fill:none" points="
  1046.25,1423.18 1046.25,47.2441 
  "/>
<polyline clip-path="url(#clip392)" style="stroke:#ffffff; stroke-linecap:butt; stroke-linejoin:round; stroke-width:4; stroke-opacity:1; fill:none" points="
  1461.02,1423.18 1461.02,47.2441 
  "/>
<polyline clip-path="url(#clip392)" style="stroke:#ffffff; stroke-linecap:butt; stroke-linejoin:round; stroke-width:4; stroke-opacity:1; fill:none" points="
  1875.78,1423.18 1875.78,47.2441 
  "/>
<polyline clip-path="url(#clip392)" style="stroke:#ffffff; stroke-linecap:butt; stroke-linejoin:round; stroke-width:4; stroke-opacity:1; fill:none" points="
  2290.54,1423.18 2290.54,47.2441 
  "/>
<polyline clip-path="url(#clip392)" style="stroke:#ffffff; stroke-linecap:butt; stroke-linejoin:round; stroke-width:2; stroke-opacity:1; fill:none" points="
  424.111,1423.18 424.111,47.2441 
  "/>
<polyline clip-path="url(#clip392)" style="stroke:#ffffff; stroke-linecap:butt; stroke-linejoin:round; stroke-width:2; stroke-opacity:1; fill:none" points="
  838.873,1423.18 838.873,47.2441 
  "/>
<polyline clip-path="url(#clip392)" style="stroke:#ffffff; stroke-linecap:butt; stroke-linejoin:round; stroke-width:2; stroke-opacity:1; fill:none" points="
  1253.64,1423.18 1253.64,47.2441 
  "/>
<polyline clip-path="url(#clip392)" style="stroke:#ffffff; stroke-linecap:butt; stroke-linejoin:round; stroke-width:2; stroke-opacity:1; fill:none" points="
  1668.4,1423.18 1668.4,47.2441 
  "/>
<polyline clip-path="url(#clip392)" style="stroke:#ffffff; stroke-linecap:butt; stroke-linejoin:round; stroke-width:2; stroke-opacity:1; fill:none" points="
  2083.16,1423.18 2083.16,47.2441 
  "/>
<polyline clip-path="url(#clip390)" style="stroke:#ffffff; stroke-linecap:butt; stroke-linejoin:round; stroke-width:4; stroke-opacity:1; fill:none" points="
  154.515,1423.18 2352.76,1423.18 
  "/>
<polyline clip-path="url(#clip390)" style="stroke:#333333; stroke-linecap:butt; stroke-linejoin:round; stroke-width:4; stroke-opacity:1; fill:none" points="
  216.729,1423.18 216.729,1442.08 
  "/>
<polyline clip-path="url(#clip390)" style="stroke:#333333; stroke-linecap:butt; stroke-linejoin:round; stroke-width:4; stroke-opacity:1; fill:none" points="
  631.492,1423.18 631.492,1442.08 
  "/>
<polyline clip-path="url(#clip390)" style="stroke:#333333; stroke-linecap:butt; stroke-linejoin:round; stroke-width:4; stroke-opacity:1; fill:none" points="
  1046.25,1423.18 1046.25,1442.08 
  "/>
<polyline clip-path="url(#clip390)" style="stroke:#333333; stroke-linecap:butt; stroke-linejoin:round; stroke-width:4; stroke-opacity:1; fill:none" points="
  1461.02,1423.18 1461.02,1442.08 
  "/>
<polyline clip-path="url(#clip390)" style="stroke:#333333; stroke-linecap:butt; stroke-linejoin:round; stroke-width:4; stroke-opacity:1; fill:none" points="
  1875.78,1423.18 1875.78,1442.08 
  "/>
<polyline clip-path="url(#clip390)" style="stroke:#333333; stroke-linecap:butt; stroke-linejoin:round; stroke-width:4; stroke-opacity:1; fill:none" points="
  2290.54,1423.18 2290.54,1442.08 
  "/>
<polyline clip-path="url(#clip390)" style="stroke:#333333; stroke-linecap:butt; stroke-linejoin:round; stroke-width:4; stroke-opacity:1; fill:none" points="
  424.111,1423.18 424.111,1432.63 
  "/>
<polyline clip-path="url(#clip390)" style="stroke:#333333; stroke-linecap:butt; stroke-linejoin:round; stroke-width:4; stroke-opacity:1; fill:none" points="
  838.873,1423.18 838.873,1432.63 
  "/>
<polyline clip-path="url(#clip390)" style="stroke:#333333; stroke-linecap:butt; stroke-linejoin:round; stroke-width:4; stroke-opacity:1; fill:none" points="
  1253.64,1423.18 1253.64,1432.63 
  "/>
<polyline clip-path="url(#clip390)" style="stroke:#333333; stroke-linecap:butt; stroke-linejoin:round; stroke-width:4; stroke-opacity:1; fill:none" points="
  1668.4,1423.18 1668.4,1432.63 
  "/>
<polyline clip-path="url(#clip390)" style="stroke:#333333; stroke-linecap:butt; stroke-linejoin:round; stroke-width:4; stroke-opacity:1; fill:none" points="
  2083.16,1423.18 2083.16,1432.63 
  "/>
<path clip-path="url(#clip390)" d="M216.729 1463.7 Q213.118 1463.7 211.289 1467.26 Q209.484 1470.8 209.484 1477.93 Q209.484 1485.04 211.289 1488.61 Q213.118 1492.15 216.729 1492.15 Q220.364 1492.15 222.169 1488.61 Q223.998 1485.04 223.998 1477.93 Q223.998 1470.8 222.169 1467.26 Q220.364 1463.7 216.729 1463.7 M216.729 1459.99 Q222.539 1459.99 225.595 1464.6 Q228.674 1469.18 228.674 1477.93 Q228.674 1486.66 225.595 1491.27 Q222.539 1495.85 216.729 1495.85 Q210.919 1495.85 207.84 1491.27 Q204.785 1486.66 204.785 1477.93 Q204.785 1469.18 207.84 1464.6 Q210.919 1459.99 216.729 1459.99 Z" fill="#4c4c4c" fill-rule="evenodd" fill-opacity="1" /><path clip-path="url(#clip390)" d="M621.874 1491.24 L629.513 1491.24 L629.513 1464.88 L621.202 1466.55 L621.202 1462.29 L629.466 1460.62 L634.142 1460.62 L634.142 1491.24 L641.781 1491.24 L641.781 1495.18 L621.874 1495.18 L621.874 1491.24 Z" fill="#4c4c4c" fill-rule="evenodd" fill-opacity="1" /><path clip-path="url(#clip390)" d="M1040.91 1491.24 L1057.23 1491.24 L1057.23 1495.18 L1035.28 1495.18 L1035.28 1491.24 Q1037.94 1488.49 1042.53 1483.86 Q1047.13 1479.21 1048.31 1477.87 Q1050.56 1475.34 1051.44 1473.61 Q1052.34 1471.85 1052.34 1470.16 Q1052.34 1467.4 1050.4 1465.67 Q1048.48 1463.93 1045.37 1463.93 Q1043.18 1463.93 1040.72 1464.69 Q1038.29 1465.46 1035.51 1467.01 L1035.51 1462.29 Q1038.34 1461.15 1040.79 1460.57 Q1043.24 1459.99 1045.28 1459.99 Q1050.65 1459.99 1053.85 1462.68 Q1057.04 1465.37 1057.04 1469.86 Q1057.04 1471.99 1056.23 1473.91 Q1055.44 1475.8 1053.34 1478.4 Q1052.76 1479.07 1049.66 1482.29 Q1046.56 1485.48 1040.91 1491.24 Z" fill="#4c4c4c" fill-rule="evenodd" fill-opacity="1" /><path clip-path="url(#clip390)" d="M1465.26 1476.55 Q1468.62 1477.26 1470.5 1479.53 Q1472.39 1481.8 1472.39 1485.13 Q1472.39 1490.25 1468.88 1493.05 Q1465.36 1495.85 1458.88 1495.85 Q1456.7 1495.85 1454.38 1495.41 Q1452.09 1494.99 1449.64 1494.14 L1449.64 1489.62 Q1451.58 1490.76 1453.9 1491.34 Q1456.21 1491.92 1458.74 1491.92 Q1463.13 1491.92 1465.43 1490.18 Q1467.74 1488.44 1467.74 1485.13 Q1467.74 1482.08 1465.59 1480.37 Q1463.46 1478.63 1459.64 1478.63 L1455.61 1478.63 L1455.61 1474.79 L1459.82 1474.79 Q1463.27 1474.79 1465.1 1473.42 Q1466.93 1472.03 1466.93 1469.44 Q1466.93 1466.78 1465.03 1465.37 Q1463.16 1463.93 1459.64 1463.93 Q1457.72 1463.93 1455.52 1464.35 Q1453.32 1464.76 1450.68 1465.64 L1450.68 1461.48 Q1453.34 1460.74 1455.66 1460.37 Q1458 1459.99 1460.06 1459.99 Q1465.38 1459.99 1468.48 1462.43 Q1471.58 1464.83 1471.58 1468.95 Q1471.58 1471.82 1469.94 1473.81 Q1468.3 1475.78 1465.26 1476.55 Z" fill="#4c4c4c" fill-rule="evenodd" fill-opacity="1" /><path clip-path="url(#clip390)" d="M1878.79 1464.69 L1866.98 1483.14 L1878.79 1483.14 L1878.79 1464.69 M1877.56 1460.62 L1883.44 1460.62 L1883.44 1483.14 L1888.37 1483.14 L1888.37 1487.03 L1883.44 1487.03 L1883.44 1495.18 L1878.79 1495.18 L1878.79 1487.03 L1863.19 1487.03 L1863.19 1482.52 L1877.56 1460.62 Z" fill="#4c4c4c" fill-rule="evenodd" fill-opacity="1" /><path clip-path="url(#clip390)" d="M2280.82 1460.62 L2299.18 1460.62 L2299.18 1464.56 L2285.1 1464.56 L2285.1 1473.03 Q2286.12 1472.68 2287.14 1472.52 Q2288.16 1472.33 2289.18 1472.33 Q2294.96 1472.33 2298.34 1475.5 Q2301.72 1478.68 2301.72 1484.09 Q2301.72 1489.67 2298.25 1492.77 Q2294.78 1495.85 2288.46 1495.85 Q2286.28 1495.85 2284.01 1495.48 Q2281.77 1495.11 2279.36 1494.37 L2279.36 1489.67 Q2281.44 1490.8 2283.67 1491.36 Q2285.89 1491.92 2288.37 1491.92 Q2292.37 1491.92 2294.71 1489.81 Q2297.05 1487.7 2297.05 1484.09 Q2297.05 1480.48 2294.71 1478.37 Q2292.37 1476.27 2288.37 1476.27 Q2286.49 1476.27 2284.62 1476.68 Q2282.76 1477.1 2280.82 1477.98 L2280.82 1460.62 Z" fill="#4c4c4c" fill-rule="evenodd" fill-opacity="1" /><path clip-path="url(#clip390)" d="M1252.7 1522.27 L1252.7 1532.4 L1264.76 1532.4 L1264.76 1536.95 L1252.7 1536.95 L1252.7 1556.3 Q1252.7 1560.66 1253.87 1561.9 Q1255.08 1563.14 1258.74 1563.14 L1264.76 1563.14 L1264.76 1568.04 L1258.74 1568.04 Q1251.96 1568.04 1249.39 1565.53 Q1246.81 1562.98 1246.81 1556.3 L1246.81 1536.95 L1242.51 1536.95 L1242.51 1532.4 L1246.81 1532.4 L1246.81 1522.27 L1252.7 1522.27 Z" fill="#000000" fill-rule="evenodd" fill-opacity="1" /><polyline clip-path="url(#clip392)" style="stroke:#ffffff; stroke-linecap:butt; stroke-linejoin:round; stroke-width:4; stroke-opacity:1; fill:none" points="
  154.515,1384.24 2352.76,1384.24 
  "/>
<polyline clip-path="url(#clip392)" style="stroke:#ffffff; stroke-linecap:butt; stroke-linejoin:round; stroke-width:4; stroke-opacity:1; fill:none" points="
  154.515,1163.55 2352.76,1163.55 
  "/>
<polyline clip-path="url(#clip392)" style="stroke:#ffffff; stroke-linecap:butt; stroke-linejoin:round; stroke-width:4; stroke-opacity:1; fill:none" points="
  154.515,942.86 2352.76,942.86 
  "/>
<polyline clip-path="url(#clip392)" style="stroke:#ffffff; stroke-linecap:butt; stroke-linejoin:round; stroke-width:4; stroke-opacity:1; fill:none" points="
  154.515,722.171 2352.76,722.171 
  "/>
<polyline clip-path="url(#clip392)" style="stroke:#ffffff; stroke-linecap:butt; stroke-linejoin:round; stroke-width:4; stroke-opacity:1; fill:none" points="
  154.515,501.482 2352.76,501.482 
  "/>
<polyline clip-path="url(#clip392)" style="stroke:#ffffff; stroke-linecap:butt; stroke-linejoin:round; stroke-width:4; stroke-opacity:1; fill:none" points="
  154.515,280.793 2352.76,280.793 
  "/>
<polyline clip-path="url(#clip392)" style="stroke:#ffffff; stroke-linecap:butt; stroke-linejoin:round; stroke-width:4; stroke-opacity:1; fill:none" points="
  154.515,60.1037 2352.76,60.1037 
  "/>
<polyline clip-path="url(#clip392)" style="stroke:#ffffff; stroke-linecap:butt; stroke-linejoin:round; stroke-width:2; stroke-opacity:1; fill:none" points="
  154.515,1273.89 2352.76,1273.89 
  "/>
<polyline clip-path="url(#clip392)" style="stroke:#ffffff; stroke-linecap:butt; stroke-linejoin:round; stroke-width:2; stroke-opacity:1; fill:none" points="
  154.515,1053.2 2352.76,1053.2 
  "/>
<polyline clip-path="url(#clip392)" style="stroke:#ffffff; stroke-linecap:butt; stroke-linejoin:round; stroke-width:2; stroke-opacity:1; fill:none" points="
  154.515,832.516 2352.76,832.516 
  "/>
<polyline clip-path="url(#clip392)" style="stroke:#ffffff; stroke-linecap:butt; stroke-linejoin:round; stroke-width:2; stroke-opacity:1; fill:none" points="
  154.515,611.826 2352.76,611.826 
  "/>
<polyline clip-path="url(#clip392)" style="stroke:#ffffff; stroke-linecap:butt; stroke-linejoin:round; stroke-width:2; stroke-opacity:1; fill:none" points="
  154.515,391.137 2352.76,391.137 
  "/>
<polyline clip-path="url(#clip392)" style="stroke:#ffffff; stroke-linecap:butt; stroke-linejoin:round; stroke-width:2; stroke-opacity:1; fill:none" points="
  154.515,170.448 2352.76,170.448 
  "/>
<polyline clip-path="url(#clip390)" style="stroke:#ffffff; stroke-linecap:butt; stroke-linejoin:round; stroke-width:4; stroke-opacity:1; fill:none" points="
  154.515,1423.18 154.515,47.2441 
  "/>
<polyline clip-path="url(#clip390)" style="stroke:#333333; stroke-linecap:butt; stroke-linejoin:round; stroke-width:4; stroke-opacity:1; fill:none" points="
  154.515,1384.24 135.617,1384.24 
  "/>
<polyline clip-path="url(#clip390)" style="stroke:#333333; stroke-linecap:butt; stroke-linejoin:round; stroke-width:4; stroke-opacity:1; fill:none" points="
  154.515,1163.55 135.617,1163.55 
  "/>
<polyline clip-path="url(#clip390)" style="stroke:#333333; stroke-linecap:butt; stroke-linejoin:round; stroke-width:4; stroke-opacity:1; fill:none" points="
  154.515,942.86 135.617,942.86 
  "/>
<polyline clip-path="url(#clip390)" style="stroke:#333333; stroke-linecap:butt; stroke-linejoin:round; stroke-width:4; stroke-opacity:1; fill:none" points="
  154.515,722.171 135.617,722.171 
  "/>
<polyline clip-path="url(#clip390)" style="stroke:#333333; stroke-linecap:butt; stroke-linejoin:round; stroke-width:4; stroke-opacity:1; fill:none" points="
  154.515,501.482 135.617,501.482 
  "/>
<polyline clip-path="url(#clip390)" style="stroke:#333333; stroke-linecap:butt; stroke-linejoin:round; stroke-width:4; stroke-opacity:1; fill:none" points="
  154.515,280.793 135.617,280.793 
  "/>
<polyline clip-path="url(#clip390)" style="stroke:#333333; stroke-linecap:butt; stroke-linejoin:round; stroke-width:4; stroke-opacity:1; fill:none" points="
  154.515,60.1037 135.617,60.1037 
  "/>
<polyline clip-path="url(#clip390)" style="stroke:#333333; stroke-linecap:butt; stroke-linejoin:round; stroke-width:4; stroke-opacity:1; fill:none" points="
  154.515,1273.89 145.066,1273.89 
  "/>
<polyline clip-path="url(#clip390)" style="stroke:#333333; stroke-linecap:butt; stroke-linejoin:round; stroke-width:4; stroke-opacity:1; fill:none" points="
  154.515,1053.2 145.066,1053.2 
  "/>
<polyline clip-path="url(#clip390)" style="stroke:#333333; stroke-linecap:butt; stroke-linejoin:round; stroke-width:4; stroke-opacity:1; fill:none" points="
  154.515,832.516 145.066,832.516 
  "/>
<polyline clip-path="url(#clip390)" style="stroke:#333333; stroke-linecap:butt; stroke-linejoin:round; stroke-width:4; stroke-opacity:1; fill:none" points="
  154.515,611.826 145.066,611.826 
  "/>
<polyline clip-path="url(#clip390)" style="stroke:#333333; stroke-linecap:butt; stroke-linejoin:round; stroke-width:4; stroke-opacity:1; fill:none" points="
  154.515,391.137 145.066,391.137 
  "/>
<polyline clip-path="url(#clip390)" style="stroke:#333333; stroke-linecap:butt; stroke-linejoin:round; stroke-width:4; stroke-opacity:1; fill:none" points="
  154.515,170.448 145.066,170.448 
  "/>
<path clip-path="url(#clip390)" d="M34.1495 1397.58 L41.7884 1397.58 L41.7884 1371.22 L33.4782 1372.88 L33.4782 1368.62 L41.7421 1366.96 L46.418 1366.96 L46.418 1397.58 L54.0568 1397.58 L54.0568 1401.52 L34.1495 1401.52 L34.1495 1397.58 Z" fill="#4c4c4c" fill-rule="evenodd" fill-opacity="1" /><path clip-path="url(#clip390)" d="M63.5012 1395.64 L68.3855 1395.64 L68.3855 1401.52 L63.5012 1401.52 L63.5012 1395.64 Z" fill="#4c4c4c" fill-rule="evenodd" fill-opacity="1" /><path clip-path="url(#clip390)" d="M88.5705 1370.04 Q84.9594 1370.04 83.1307 1373.6 Q81.3252 1377.14 81.3252 1384.27 Q81.3252 1391.38 83.1307 1394.94 Q84.9594 1398.49 88.5705 1398.49 Q92.2048 1398.49 94.0103 1394.94 Q95.839 1391.38 95.839 1384.27 Q95.839 1377.14 94.0103 1373.6 Q92.2048 1370.04 88.5705 1370.04 M88.5705 1366.33 Q94.3807 1366.33 97.4362 1370.94 Q100.515 1375.52 100.515 1384.27 Q100.515 1393 97.4362 1397.61 Q94.3807 1402.19 88.5705 1402.19 Q82.7604 1402.19 79.6817 1397.61 Q76.6262 1393 76.6262 1384.27 Q76.6262 1375.52 79.6817 1370.94 Q82.7604 1366.33 88.5705 1366.33 Z" fill="#4c4c4c" fill-rule="evenodd" fill-opacity="1" /><path clip-path="url(#clip390)" d="M35.3764 1176.89 L43.0152 1176.89 L43.0152 1150.53 L34.7051 1152.2 L34.7051 1147.94 L42.9689 1146.27 L47.6448 1146.27 L47.6448 1176.89 L55.2837 1176.89 L55.2837 1180.83 L35.3764 1180.83 L35.3764 1176.89 Z" fill="#4c4c4c" fill-rule="evenodd" fill-opacity="1" /><path clip-path="url(#clip390)" d="M64.7281 1174.95 L69.6123 1174.95 L69.6123 1180.83 L64.7281 1180.83 L64.7281 1174.95 Z" fill="#4c4c4c" fill-rule="evenodd" fill-opacity="1" /><path clip-path="url(#clip390)" d="M80.6076 1176.89 L88.2465 1176.89 L88.2465 1150.53 L79.9363 1152.2 L79.9363 1147.94 L88.2002 1146.27 L92.8761 1146.27 L92.8761 1176.89 L100.515 1176.89 L100.515 1180.83 L80.6076 1180.83 L80.6076 1176.89 Z" fill="#4c4c4c" fill-rule="evenodd" fill-opacity="1" /><path clip-path="url(#clip390)" d="M35.7467 956.205 L43.3856 956.205 L43.3856 929.839 L35.0754 931.506 L35.0754 927.247 L43.3393 925.58 L48.0152 925.58 L48.0152 956.205 L55.654 956.205 L55.654 960.14 L35.7467 960.14 L35.7467 956.205 Z" fill="#4c4c4c" fill-rule="evenodd" fill-opacity="1" /><path clip-path="url(#clip390)" d="M65.0984 954.26 L69.9827 954.26 L69.9827 960.14 L65.0984 960.14 L65.0984 954.26 Z" fill="#4c4c4c" fill-rule="evenodd" fill-opacity="1" /><path clip-path="url(#clip390)" d="M84.1956 956.205 L100.515 956.205 L100.515 960.14 L78.5706 960.14 L78.5706 956.205 Q81.2326 953.45 85.8159 948.821 Q90.4224 944.168 91.6029 942.825 Q93.8483 940.302 94.7279 938.566 Q95.6307 936.807 95.6307 935.117 Q95.6307 932.362 93.6862 930.626 Q91.765 928.89 88.6631 928.89 Q86.4641 928.89 84.0104 929.654 Q81.5798 930.418 78.8021 931.969 L78.8021 927.247 Q81.6261 926.112 84.0798 925.534 Q86.5335 924.955 88.5705 924.955 Q93.9409 924.955 97.1353 927.64 Q100.33 930.325 100.33 934.816 Q100.33 936.946 99.5195 938.867 Q98.7325 940.765 96.626 943.358 Q96.0473 944.029 92.9455 947.247 Q89.8437 950.441 84.1956 956.205 Z" fill="#4c4c4c" fill-rule="evenodd" fill-opacity="1" /><path clip-path="url(#clip390)" d="M34.7977 735.516 L42.4365 735.516 L42.4365 709.15 L34.1264 710.817 L34.1264 706.558 L42.3902 704.891 L47.0661 704.891 L47.0661 735.516 L54.705 735.516 L54.705 739.451 L34.7977 739.451 L34.7977 735.516 Z" fill="#4c4c4c" fill-rule="evenodd" fill-opacity="1" /><path clip-path="url(#clip390)" d="M64.1494 733.571 L69.0336 733.571 L69.0336 739.451 L64.1494 739.451 L64.1494 733.571 Z" fill="#4c4c4c" fill-rule="evenodd" fill-opacity="1" /><path clip-path="url(#clip390)" d="M93.3853 720.817 Q96.7418 721.534 98.6168 723.803 Q100.515 726.071 100.515 729.405 Q100.515 734.52 96.9964 737.321 Q93.4779 740.122 86.9965 740.122 Q84.8206 740.122 82.5057 739.682 Q80.2141 739.266 77.7604 738.409 L77.7604 733.895 Q79.7048 735.03 82.0196 735.608 Q84.3344 736.187 86.8576 736.187 Q91.2557 736.187 93.5474 734.451 Q95.8622 732.715 95.8622 729.405 Q95.8622 726.349 93.7094 724.636 Q91.5798 722.9 87.7604 722.9 L83.7326 722.9 L83.7326 719.058 L87.9455 719.058 Q91.3946 719.058 93.2233 717.692 Q95.052 716.303 95.052 713.71 Q95.052 711.048 93.1538 709.636 Q91.2789 708.201 87.7604 708.201 Q85.8391 708.201 83.64 708.618 Q81.4409 709.034 78.8021 709.914 L78.8021 705.747 Q81.4641 705.007 83.7789 704.636 Q86.1168 704.266 88.177 704.266 Q93.5011 704.266 96.6029 706.697 Q99.7047 709.104 99.7047 713.224 Q99.7047 716.095 98.0612 718.085 Q96.4177 720.053 93.3853 720.817 Z" fill="#4c4c4c" fill-rule="evenodd" fill-opacity="1" /><path clip-path="url(#clip390)" d="M33.6634 514.827 L41.3023 514.827 L41.3023 488.461 L32.9921 490.128 L32.9921 485.869 L41.256 484.202 L45.9319 484.202 L45.9319 514.827 L53.5707 514.827 L53.5707 518.762 L33.6634 518.762 L33.6634 514.827 Z" fill="#4c4c4c" fill-rule="evenodd" fill-opacity="1" /><path clip-path="url(#clip390)" d="M63.0151 512.882 L67.8993 512.882 L67.8993 518.762 L63.0151 518.762 L63.0151 512.882 Z" fill="#4c4c4c" fill-rule="evenodd" fill-opacity="1" /><path clip-path="url(#clip390)" d="M90.9316 488.276 L79.1261 506.725 L90.9316 506.725 L90.9316 488.276 M89.7048 484.202 L95.5844 484.202 L95.5844 506.725 L100.515 506.725 L100.515 510.614 L95.5844 510.614 L95.5844 518.762 L90.9316 518.762 L90.9316 510.614 L75.3299 510.614 L75.3299 506.1 L89.7048 484.202 Z" fill="#4c4c4c" fill-rule="evenodd" fill-opacity="1" /><path clip-path="url(#clip390)" d="M35.1449 294.138 L42.7837 294.138 L42.7837 267.772 L34.4736 269.439 L34.4736 265.179 L42.7374 263.513 L47.4133 263.513 L47.4133 294.138 L55.0522 294.138 L55.0522 298.073 L35.1449 298.073 L35.1449 294.138 Z" fill="#4c4c4c" fill-rule="evenodd" fill-opacity="1" /><path clip-path="url(#clip390)" d="M64.4966 292.193 L69.3808 292.193 L69.3808 298.073 L64.4966 298.073 L64.4966 292.193 Z" fill="#4c4c4c" fill-rule="evenodd" fill-opacity="1" /><path clip-path="url(#clip390)" d="M79.6122 263.513 L97.9686 263.513 L97.9686 267.448 L83.8946 267.448 L83.8946 275.92 Q84.9131 275.573 85.9317 275.411 Q86.9502 275.226 87.9687 275.226 Q93.7557 275.226 97.1353 278.397 Q100.515 281.568 100.515 286.985 Q100.515 292.564 97.0427 295.665 Q93.5705 298.744 87.2511 298.744 Q85.0752 298.744 82.8067 298.374 Q80.5613 298.003 78.1539 297.263 L78.1539 292.564 Q80.2372 293.698 82.4595 294.253 Q84.6817 294.809 87.1585 294.809 Q91.1631 294.809 93.5011 292.702 Q95.839 290.596 95.839 286.985 Q95.839 283.374 93.5011 281.267 Q91.1631 279.161 87.1585 279.161 Q85.2835 279.161 83.4085 279.577 Q81.5567 279.994 79.6122 280.874 L79.6122 263.513 Z" fill="#4c4c4c" fill-rule="evenodd" fill-opacity="1" /><path clip-path="url(#clip390)" d="M33.9875 73.4485 L41.6263 73.4485 L41.6263 47.0829 L33.3162 48.7495 L33.3162 44.4903 L41.58 42.8237 L46.2559 42.8237 L46.2559 73.4485 L53.8948 73.4485 L53.8948 77.3837 L33.9875 77.3837 L33.9875 73.4485 Z" fill="#4c4c4c" fill-rule="evenodd" fill-opacity="1" /><path clip-path="url(#clip390)" d="M63.3392 71.5041 L68.2234 71.5041 L68.2234 77.3837 L63.3392 77.3837 L63.3392 71.5041 Z" fill="#4c4c4c" fill-rule="evenodd" fill-opacity="1" /><path clip-path="url(#clip390)" d="M88.9872 58.2402 Q85.8391 58.2402 83.9872 60.393 Q82.1585 62.5458 82.1585 66.2957 Q82.1585 70.0226 83.9872 72.1985 Q85.8391 74.3513 88.9872 74.3513 Q92.1353 74.3513 93.964 72.1985 Q95.8159 70.0226 95.8159 66.2957 Q95.8159 62.5458 93.964 60.393 Q92.1353 58.2402 88.9872 58.2402 M98.2696 43.5875 L98.2696 47.8468 Q96.5103 47.0134 94.7048 46.5736 Q92.9224 46.1338 91.1631 46.1338 Q86.5335 46.1338 84.0798 49.2588 Q81.6493 52.3838 81.3021 58.7032 Q82.6678 56.6893 84.728 55.6245 Q86.7881 54.5366 89.265 54.5366 Q94.4733 54.5366 97.4825 57.7078 Q100.515 60.856 100.515 66.2957 Q100.515 71.6198 97.3668 74.8374 Q94.2186 78.0549 88.9872 78.0549 Q82.9919 78.0549 79.8206 73.4716 Q76.6493 68.8652 76.6493 60.1384 Q76.6493 51.944 80.5382 47.0829 Q84.427 42.1987 90.9779 42.1987 Q92.7372 42.1987 94.5196 42.5459 Q96.3251 42.8931 98.2696 43.5875 Z" fill="#4c4c4c" fill-rule="evenodd" fill-opacity="1" /><polyline clip-path="url(#clip392)" style="stroke:#009af9; stroke-linecap:butt; stroke-linejoin:round; stroke-width:4; stroke-opacity:1; fill:none" points="
  216.729,1384.24 220.877,1362.17 225.025,1340.34 229.172,1318.77 233.32,1297.9 237.467,1276.69 241.615,1255.36 245.763,1234 249.91,1212.81 254.058,1191.88 
  258.206,1171.42 262.353,1151.13 266.501,1130.69 270.648,1110.5 274.796,1091.15 278.944,1071.92 283.091,1052.05 287.239,1032.28 291.387,1013.1 295.534,994.286 
  299.682,975.946 303.829,958.472 307.977,940.738 312.125,923.59 316.272,906.732 320.42,889.589 324.568,872.829 328.715,856.227 332.863,840.453 337.01,825.696 
  341.158,811.238 345.306,797.219 349.453,783.015 353.601,768.557 357.749,754.515 361.896,739.878 366.044,725.967 370.191,712.634 374.339,700.997 378.487,689.815 
  382.634,678.965 386.782,668.642 390.93,658.136 395.077,648.071 399.225,638.693 403.372,629.81 407.52,621.417 411.668,613.366 415.815,604.708 419.963,596.101 
  424.111,586.965 428.258,577.627 432.406,569.244 436.553,559.495 440.701,548.672 444.849,536.815 448.996,525.67 453.144,514.552 457.292,504.02 461.439,494.26 
  465.587,485.561 469.734,476.856 473.882,468.377 478.03,460.313 482.177,452.5 486.325,443.88 490.472,435.81 494.62,427.898 498.768,421.584 502.915,415.254 
  507.063,409.946 511.211,405.45 515.358,400.741 519.506,395.797 523.653,392.255 527.801,388.408 531.949,385.368 536.096,383.426 540.244,380.862 544.392,379.237 
  548.539,376.599 552.687,373.854 556.834,371.078 560.982,367.278 565.13,363.292 569.277,359.772 573.425,355.926 577.573,352.011 581.72,348.277 585.868,346.347 
  590.015,344.307 594.163,343.043 598.311,342.736 602.458,343.36 606.606,344.067 610.754,345.046 614.901,346.411 619.049,346.912 623.196,347.889 627.344,348.353 
  631.492,348.631 635.639,349.314 639.787,349.1 643.935,347.691 648.082,345.628 652.23,343.887 656.377,342.258 660.525,341.944 664.673,340.968 668.82,340.849 
  672.968,341.587 677.116,342.209 681.263,343.652 685.411,345.455 689.558,348.12 693.706,349.123 697.854,350.56 702.001,351.724 706.149,352.344 710.297,351.896 
  714.444,350.626 718.592,348 722.739,345.926 726.887,343.238 731.035,341.051 735.182,338.172 739.33,337.052 743.478,337.06 747.625,338.188 751.773,339.161 
  755.92,339.956 760.068,339.969 764.216,339.414 768.363,338.412 772.511,336.993 776.659,335.133 780.806,333.781 784.954,332.921 789.101,331.273 793.249,330.81 
  797.397,330.228 801.544,329.189 805.692,328.419 809.84,327.032 813.987,325.565 818.135,322.83 822.282,321.577 826.43,319.51 830.578,318.036 834.725,316.963 
  838.873,315.901 843.021,315.568 847.168,315.324 851.316,316.522 855.463,318.69 859.611,319.903 863.759,320.811 867.906,320.015 872.054,319.943 876.202,319.789 
  880.349,320.614 884.497,320.593 888.644,321.877 892.792,321.933 896.94,323.084 901.087,323.004 905.235,322.39 909.383,322.826 913.53,322.328 917.678,321.628 
  921.825,321.233 925.973,320.748 930.121,319.528 934.268,318.035 938.416,317.183 942.564,317.336 946.711,317.317 950.859,317.665 955.006,318.207 959.154,318.392 
  963.302,318.27 967.449,317.553 971.597,316.677 975.745,316.947 979.892,317.71 984.04,320.132 988.187,322.091 992.335,324.084 996.483,326.756 1000.63,329.81 
  1004.78,332.817 1008.93,336.853 1013.07,339.677 1017.22,342.497 1021.37,345.4 1025.52,347.653 1029.66,349.951 1033.81,352.391 1037.96,354.091 1042.11,354.83 
  1046.25,355.429 1050.4,356.421 1054.55,357.501 1058.7,358.428 1062.84,359.419 1066.99,360.619 1071.14,362.667 1075.29,364.541 1079.44,367.251 1083.58,369.819 
  1087.73,371.94 1091.88,373.992 1096.03,375.995 1100.17,377.379 1104.32,377.865 1108.47,378.617 1112.62,380.026 1116.76,381.118 1120.91,382.78 1125.06,384.799 
  1129.21,386.863 1133.35,390.158 1137.5,394.081 1141.65,397.721 1145.8,400.883 1149.94,404.007 1154.09,407.153 1158.24,410.65 1162.39,414.023 1166.54,417.38 
  1170.68,420.629 1174.83,423.69 1178.98,426.634 1183.13,429.554 1187.27,432.406 1191.42,435.182 1195.57,437.721 1199.72,440.12 1203.86,442.63 1208.01,444.831 
  1212.16,446.905 1216.31,449.077 1220.45,451.2 1224.6,453.177 1228.75,454.882 1232.9,456.17 1237.04,456.779 1241.19,457.897 1245.34,458.982 1249.49,459.822 
  1253.64,460.834 1257.78,461.644 1261.93,462.367 1266.08,463.101 1270.23,464.06 1274.37,464.84 1278.52,465.999 1282.67,466.653 1286.82,466.877 1290.96,466.834 
  1295.11,466.893 1299.26,466.23 1303.41,464.827 1307.55,463.765 1311.7,463.503 1315.85,463.31 1320,462.886 1324.15,462.554 1328.29,462.883 1332.44,463.917 
  1336.59,464.833 1340.74,464.613 1344.88,463.836 1349.03,462.283 1353.18,461.139 1357.33,460.274 1361.47,458.079 1365.62,455.496 1369.77,453.741 1373.92,450.964 
  1378.06,447.876 1382.21,444.893 1386.36,442.454 1390.51,441.344 1394.65,439.502 1398.8,438.316 1402.95,437.143 1407.1,437.335 1411.25,437.787 1415.39,437.231 
  1419.54,437.688 1423.69,438.833 1427.84,439.961 1431.98,441.177 1436.13,442.193 1440.28,443.873 1444.43,445.319 1448.57,447.387 1452.72,449.126 1456.87,450.915 
  1461.02,452.374 1465.16,453.522 1469.31,454.939 1473.46,455.732 1477.61,456.563 1481.75,457.062 1485.9,457.297 1490.05,457.059 1494.2,457.009 1498.35,456.518 
  1502.49,455.941 1506.64,455.274 1510.79,454.646 1514.94,453.538 1519.08,452.643 1523.23,451.499 1527.38,450.241 1531.53,448.946 1535.67,448.088 1539.82,446.608 
  1543.97,445.477 1548.12,443.147 1552.26,439.708 1556.41,436.717 1560.56,433.707 1564.71,430.806 1568.85,427.909 1573,425.281 1577.15,421.208 1581.3,416.812 
  1585.45,412.829 1589.59,410.126 1593.74,406.576 1597.89,402.347 1602.04,398.275 1606.18,394.13 1610.33,389.178 1614.48,384.366 1618.63,379.585 1622.77,375.115 
  1626.92,370.377 1631.07,365.753 1635.22,360.595 1639.36,355.741 1643.51,351.132 1647.66,346.789 1651.81,342.045 1655.95,337.094 1660.1,332.253 1664.25,328.613 
  1668.4,325.737 1672.55,323.862 1676.69,321.645 1680.84,319.864 1684.99,317.796 1689.14,315.287 1693.28,312.664 1697.43,309.625 1701.58,307.361 1705.73,303.735 
  1709.87,299.976 1714.02,296.646 1718.17,292.339 1722.32,289.072 1726.46,284.659 1730.61,279.83 1734.76,274.366 1738.91,270.158 1743.06,266.908 1747.2,264.705 
  1751.35,261.078 1755.5,257.514 1759.65,255.559 1763.79,253.623 1767.94,250.696 1772.09,247.347 1776.24,244.366 1780.38,242.32 1784.53,241.807 1788.68,239.687 
  1792.83,237.323 1796.97,234.919 1801.12,233.892 1805.27,233.151 1809.42,233.653 1813.56,235.33 1817.71,237.748 1821.86,239.669 1826.01,241.553 1830.16,244.852 
  1834.3,247.88 1838.45,250.866 1842.6,253.34 1846.75,255.375 1850.89,256.873 1855.04,258.434 1859.19,261.544 1863.34,264.313 1867.48,267.33 1871.63,271.813 
  1875.78,274.324 1879.93,276.297 1884.07,279.197 1888.22,282.029 1892.37,285.458 1896.52,288.383 1900.66,290.224 1904.81,291.658 1908.96,291.364 1913.11,289.992 
  1917.26,289.546 1921.4,288.936 1925.55,288.622 1929.7,287.204 1933.85,285.586 1937.99,282.241 1942.14,278.941 1946.29,275.467 1950.44,272.754 1954.58,268.893 
  1958.73,265.287 1962.88,262.318 1967.03,259.614 1971.17,257.462 1975.32,256.081 1979.47,256.005 1983.62,256.144 1987.76,255.466 1991.91,254.089 1996.06,251.591 
  2000.21,250.827 2004.36,249.842 2008.5,248.154 2012.65,245.968 2016.8,242.545 2020.95,238.014 2025.09,233.95 2029.24,229.915 2033.39,225.675 2037.54,222.643 
  2041.68,218.885 2045.83,215.676 2049.98,212.406 2054.13,209.698 2058.27,206.977 2062.42,204.224 2066.57,200.926 2070.72,197.445 2074.87,193.448 2079.01,189.392 
  2083.16,185.99 2087.31,183.049 2091.46,180.259 2095.6,177.813 2099.75,175.92 2103.9,173.611 2108.05,172.046 2112.19,169.297 2116.34,166.761 2120.49,164.547 
  2124.64,161.682 2128.78,158.95 2132.93,156.176 2137.08,153.081 2141.23,149.821 2145.37,146.55 2149.52,143.098 2153.67,139.315 2157.82,135.955 2161.97,133.159 
  2166.11,130.29 2170.26,127.151 2174.41,124.404 2178.56,121.817 2182.7,119.837 2186.85,117.431 2191,114.528 2195.15,112.099 2199.29,109.195 2203.44,106.225 
  2207.59,103.398 2211.74,100.691 2215.88,98.4018 2220.03,96.3174 2224.18,95.3103 2228.33,94.166 2232.47,92.3722 2236.62,90.4634 2240.77,88.6842 2244.92,87.598 
  2249.07,86.2498 2253.21,86.1857 2257.36,87.2507 2261.51,87.7036 2265.66,87.7394 2269.8,87.886 2273.95,87.4177 2278.1,87.0683 2282.25,86.6609 2286.39,87.356 
  2290.54,88.1705 
  "/>
<path clip-path="url(#clip390)" d="
M1927.55 196.789 L2279.48 196.789 L2279.48 93.1086 L1927.55 93.1086  Z
  " fill="#eaeaea" fill-rule="evenodd" fill-opacity="1"/>
<polyline clip-path="url(#clip390)" style="stroke:#ffffff; stroke-linecap:butt; stroke-linejoin:round; stroke-width:4; stroke-opacity:1; fill:none" points="
  1927.55,196.789 2279.48,196.789 2279.48,93.1086 1927.55,93.1086 1927.55,196.789 
  "/>
<polyline clip-path="url(#clip390)" style="stroke:#009af9; stroke-linecap:butt; stroke-linejoin:round; stroke-width:4; stroke-opacity:1; fill:none" points="
  1951.97,144.949 2098.52,144.949 
  "/>
<path clip-path="url(#clip390)" d="M2122.95 151.997 L2122.95 136.303 L2127.21 136.303 L2127.21 151.835 Q2127.21 155.516 2128.64 157.368 Q2130.08 159.196 2132.95 159.196 Q2136.4 159.196 2138.39 156.997 Q2140.4 154.798 2140.4 151.002 L2140.4 136.303 L2144.66 136.303 L2144.66 162.229 L2140.4 162.229 L2140.4 158.247 Q2138.85 160.608 2136.79 161.766 Q2134.75 162.9 2132.04 162.9 Q2127.58 162.9 2125.26 160.122 Q2122.95 157.344 2122.95 151.997 M2133.66 135.678 L2133.66 135.678 Z" fill="#000000" fill-rule="evenodd" fill-opacity="1" /><path clip-path="url(#clip390)" d="M2154.84 158.293 L2162.48 158.293 L2162.48 131.928 L2154.17 133.595 L2154.17 129.335 L2162.44 127.669 L2167.11 127.669 L2167.11 158.293 L2174.75 158.293 L2174.75 162.229 L2154.84 162.229 L2154.84 158.293 Z" fill="#000000" fill-rule="evenodd" fill-opacity="1" /><path clip-path="url(#clip390)" d="M2193.83 126.257 Q2190.72 131.581 2189.22 136.789 Q2187.71 141.997 2187.71 147.344 Q2187.71 152.692 2189.22 157.946 Q2190.75 163.178 2193.83 168.479 L2190.12 168.479 Q2186.65 163.039 2184.91 157.784 Q2183.2 152.53 2183.2 147.344 Q2183.2 142.182 2184.91 136.951 Q2186.63 131.72 2190.12 126.257 L2193.83 126.257 Z" fill="#000000" fill-rule="evenodd" fill-opacity="1" /><path clip-path="url(#clip390)" d="M2206.3 128.942 L2206.3 136.303 L2215.08 136.303 L2215.08 139.613 L2206.3 139.613 L2206.3 153.687 Q2206.3 156.858 2207.16 157.761 Q2208.04 158.664 2210.7 158.664 L2215.08 158.664 L2215.08 162.229 L2210.7 162.229 Q2205.77 162.229 2203.9 160.4 Q2202.02 158.548 2202.02 153.687 L2202.02 139.613 L2198.9 139.613 L2198.9 136.303 L2202.02 136.303 L2202.02 128.942 L2206.3 128.942 Z" fill="#000000" fill-rule="evenodd" fill-opacity="1" /><path clip-path="url(#clip390)" d="M2220.01 126.257 L2223.71 126.257 Q2227.18 131.72 2228.9 136.951 Q2230.63 142.182 2230.63 147.344 Q2230.63 152.53 2228.9 157.784 Q2227.18 163.039 2223.71 168.479 L2220.01 168.479 Q2223.09 163.178 2224.59 157.946 Q2226.12 152.692 2226.12 147.344 Q2226.12 141.997 2224.59 136.789 Q2223.09 131.581 2220.01 126.257 Z" fill="#000000" fill-rule="evenodd" fill-opacity="1" /></svg>
