<?xml version="1.0" encoding="utf-8"?>
<svg xmlns="http://www.w3.org/2000/svg" xmlns:xlink="http://www.w3.org/1999/xlink" width="600" height="400" viewBox="0 0 2400 1600">
<defs>
  <clipPath id="clip360">
    <rect x="0" y="0" width="2400" height="1600"/>
  </clipPath>
</defs>
<path clip-path="url(#clip360)" d="
M0 1600 L2400 1600 L2400 0 L0 0  Z
  " fill="#ffffff" fill-rule="evenodd" fill-opacity="1"/>
<defs>
  <clipPath id="clip361">
    <rect x="480" y="0" width="1681" height="1600"/>
  </clipPath>
</defs>
<path clip-path="url(#clip360)" d="
M201.232 1423.18 L2352.76 1423.18 L2352.76 106.192 L201.232 106.192  Z
  " fill="#eaeaea" fill-rule="evenodd" fill-opacity="1"/>
<defs>
  <clipPath id="clip362">
    <rect x="201" y="106" width="2153" height="1318"/>
  </clipPath>
</defs>
<polyline clip-path="url(#clip362)" style="stroke:#ffffff; stroke-linecap:butt; stroke-linejoin:round; stroke-width:4; stroke-opacity:1; fill:none" points="
  262.124,1423.18 262.124,106.192 
  "/>
<polyline clip-path="url(#clip362)" style="stroke:#ffffff; stroke-linecap:butt; stroke-linejoin:round; stroke-width:4; stroke-opacity:1; fill:none" points="
  668.072,1423.18 668.072,106.192 
  "/>
<polyline clip-path="url(#clip362)" style="stroke:#ffffff; stroke-linecap:butt; stroke-linejoin:round; stroke-width:4; stroke-opacity:1; fill:none" points="
  1074.02,1423.18 1074.02,106.192 
  "/>
<polyline clip-path="url(#clip362)" style="stroke:#ffffff; stroke-linecap:butt; stroke-linejoin:round; stroke-width:4; stroke-opacity:1; fill:none" points="
  1479.97,1423.18 1479.97,106.192 
  "/>
<polyline clip-path="url(#clip362)" style="stroke:#ffffff; stroke-linecap:butt; stroke-linejoin:round; stroke-width:4; stroke-opacity:1; fill:none" points="
  1885.92,1423.18 1885.92,106.192 
  "/>
<polyline clip-path="url(#clip362)" style="stroke:#ffffff; stroke-linecap:butt; stroke-linejoin:round; stroke-width:4; stroke-opacity:1; fill:none" points="
  2291.86,1423.18 2291.86,106.192 
  "/>
<polyline clip-path="url(#clip362)" style="stroke:#ffffff; stroke-linecap:butt; stroke-linejoin:round; stroke-width:2; stroke-opacity:1; fill:none" points="
  465.098,1423.18 465.098,106.192 
  "/>
<polyline clip-path="url(#clip362)" style="stroke:#ffffff; stroke-linecap:butt; stroke-linejoin:round; stroke-width:2; stroke-opacity:1; fill:none" points="
  871.046,1423.18 871.046,106.192 
  "/>
<polyline clip-path="url(#clip362)" style="stroke:#ffffff; stroke-linecap:butt; stroke-linejoin:round; stroke-width:2; stroke-opacity:1; fill:none" points="
  1276.99,1423.18 1276.99,106.192 
  "/>
<polyline clip-path="url(#clip362)" style="stroke:#ffffff; stroke-linecap:butt; stroke-linejoin:round; stroke-width:2; stroke-opacity:1; fill:none" points="
  1682.94,1423.18 1682.94,106.192 
  "/>
<polyline clip-path="url(#clip362)" style="stroke:#ffffff; stroke-linecap:butt; stroke-linejoin:round; stroke-width:2; stroke-opacity:1; fill:none" points="
  2088.89,1423.18 2088.89,106.192 
  "/>
<polyline clip-path="url(#clip360)" style="stroke:#ffffff; stroke-linecap:butt; stroke-linejoin:round; stroke-width:4; stroke-opacity:1; fill:none" points="
  201.232,1423.18 2352.76,1423.18 
  "/>
<polyline clip-path="url(#clip360)" style="stroke:#333333; stroke-linecap:butt; stroke-linejoin:round; stroke-width:4; stroke-opacity:1; fill:none" points="
  262.124,1423.18 262.124,1442.08 
  "/>
<polyline clip-path="url(#clip360)" style="stroke:#333333; stroke-linecap:butt; stroke-linejoin:round; stroke-width:4; stroke-opacity:1; fill:none" points="
  668.072,1423.18 668.072,1442.08 
  "/>
<polyline clip-path="url(#clip360)" style="stroke:#333333; stroke-linecap:butt; stroke-linejoin:round; stroke-width:4; stroke-opacity:1; fill:none" points="
  1074.02,1423.18 1074.02,1442.08 
  "/>
<polyline clip-path="url(#clip360)" style="stroke:#333333; stroke-linecap:butt; stroke-linejoin:round; stroke-width:4; stroke-opacity:1; fill:none" points="
  1479.97,1423.18 1479.97,1442.08 
  "/>
<polyline clip-path="url(#clip360)" style="stroke:#333333; stroke-linecap:butt; stroke-linejoin:round; stroke-width:4; stroke-opacity:1; fill:none" points="
  1885.92,1423.18 1885.92,1442.08 
  "/>
<polyline clip-path="url(#clip360)" style="stroke:#333333; stroke-linecap:butt; stroke-linejoin:round; stroke-width:4; stroke-opacity:1; fill:none" points="
  2291.86,1423.18 2291.86,1442.08 
  "/>
<polyline clip-path="url(#clip360)" style="stroke:#333333; stroke-linecap:butt; stroke-linejoin:round; stroke-width:4; stroke-opacity:1; fill:none" points="
  465.098,1423.18 465.098,1432.63 
  "/>
<polyline clip-path="url(#clip360)" style="stroke:#333333; stroke-linecap:butt; stroke-linejoin:round; stroke-width:4; stroke-opacity:1; fill:none" points="
  871.046,1423.18 871.046,1432.63 
  "/>
<polyline clip-path="url(#clip360)" style="stroke:#333333; stroke-linecap:butt; stroke-linejoin:round; stroke-width:4; stroke-opacity:1; fill:none" points="
  1276.99,1423.18 1276.99,1432.63 
  "/>
<polyline clip-path="url(#clip360)" style="stroke:#333333; stroke-linecap:butt; stroke-linejoin:round; stroke-width:4; stroke-opacity:1; fill:none" points="
  1682.94,1423.18 1682.94,1432.63 
  "/>
<polyline clip-path="url(#clip360)" style="stroke:#333333; stroke-linecap:butt; stroke-linejoin:round; stroke-width:4; stroke-opacity:1; fill:none" points="
  2088.89,1423.18 2088.89,1432.63 
  "/>
<path clip-path="url(#clip360)" d="M262.124 1463.7 Q258.513 1463.7 256.685 1467.26 Q254.879 1470.8 254.879 1477.93 Q254.879 1485.04 256.685 1488.61 Q258.513 1492.15 262.124 1492.15 Q265.759 1492.15 267.564 1488.61 Q269.393 1485.04 269.393 1477.93 Q269.393 1470.8 267.564 1467.26 Q265.759 1463.7 262.124 1463.7 M262.124 1459.99 Q267.934 1459.99 270.99 1464.6 Q274.069 1469.18 274.069 1477.93 Q274.069 1486.66 270.99 1491.27 Q267.934 1495.85 262.124 1495.85 Q256.314 1495.85 253.235 1491.27 Q250.18 1486.66 250.18 1477.93 Q250.18 1469.18 253.235 1464.6 Q256.314 1459.99 262.124 1459.99 Z" fill="#4c4c4c" fill-rule="evenodd" fill-opacity="1" /><path clip-path="url(#clip360)" d="M658.454 1491.24 L666.093 1491.24 L666.093 1464.88 L657.783 1466.55 L657.783 1462.29 L666.047 1460.62 L670.723 1460.62 L670.723 1491.24 L678.361 1491.24 L678.361 1495.18 L658.454 1495.18 L658.454 1491.24 Z" fill="#4c4c4c" fill-rule="evenodd" fill-opacity="1" /><path clip-path="url(#clip360)" d="M1068.67 1491.24 L1084.99 1491.24 L1084.99 1495.18 L1063.05 1495.18 L1063.05 1491.24 Q1065.71 1488.49 1070.29 1483.86 Q1074.9 1479.21 1076.08 1477.87 Q1078.33 1475.34 1079.21 1473.61 Q1080.11 1471.85 1080.11 1470.16 Q1080.11 1467.4 1078.16 1465.67 Q1076.24 1463.93 1073.14 1463.93 Q1070.94 1463.93 1068.49 1464.69 Q1066.06 1465.46 1063.28 1467.01 L1063.28 1462.29 Q1066.1 1461.15 1068.56 1460.57 Q1071.01 1459.99 1073.05 1459.99 Q1078.42 1459.99 1081.61 1462.68 Q1084.81 1465.37 1084.81 1469.86 Q1084.81 1471.99 1084 1473.91 Q1083.21 1475.8 1081.1 1478.4 Q1080.52 1479.07 1077.42 1482.29 Q1074.32 1485.48 1068.67 1491.24 Z" fill="#4c4c4c" fill-rule="evenodd" fill-opacity="1" /><path clip-path="url(#clip360)" d="M1484.22 1476.55 Q1487.57 1477.26 1489.45 1479.53 Q1491.35 1481.8 1491.35 1485.13 Q1491.35 1490.25 1487.83 1493.05 Q1484.31 1495.85 1477.83 1495.85 Q1475.65 1495.85 1473.34 1495.41 Q1471.04 1494.99 1468.59 1494.14 L1468.59 1489.62 Q1470.54 1490.76 1472.85 1491.34 Q1475.16 1491.92 1477.69 1491.92 Q1482.09 1491.92 1484.38 1490.18 Q1486.69 1488.44 1486.69 1485.13 Q1486.69 1482.08 1484.54 1480.37 Q1482.41 1478.63 1478.59 1478.63 L1474.56 1478.63 L1474.56 1474.79 L1478.78 1474.79 Q1482.22 1474.79 1484.05 1473.42 Q1485.88 1472.03 1485.88 1469.44 Q1485.88 1466.78 1483.98 1465.37 Q1482.11 1463.93 1478.59 1463.93 Q1476.67 1463.93 1474.47 1464.35 Q1472.27 1464.76 1469.63 1465.64 L1469.63 1461.48 Q1472.29 1460.74 1474.61 1460.37 Q1476.95 1459.99 1479.01 1459.99 Q1484.33 1459.99 1487.43 1462.43 Q1490.54 1464.83 1490.54 1468.95 Q1490.54 1471.82 1488.89 1473.81 Q1487.25 1475.78 1484.22 1476.55 Z" fill="#4c4c4c" fill-rule="evenodd" fill-opacity="1" /><path clip-path="url(#clip360)" d="M1888.93 1464.69 L1877.12 1483.14 L1888.93 1483.14 L1888.93 1464.69 M1887.7 1460.62 L1893.58 1460.62 L1893.58 1483.14 L1898.51 1483.14 L1898.51 1487.03 L1893.58 1487.03 L1893.58 1495.18 L1888.93 1495.18 L1888.93 1487.03 L1873.32 1487.03 L1873.32 1482.52 L1887.7 1460.62 Z" fill="#4c4c4c" fill-rule="evenodd" fill-opacity="1" /><path clip-path="url(#clip360)" d="M2282.14 1460.62 L2300.5 1460.62 L2300.5 1464.56 L2286.42 1464.56 L2286.42 1473.03 Q2287.44 1472.68 2288.46 1472.52 Q2289.48 1472.33 2290.5 1472.33 Q2296.28 1472.33 2299.66 1475.5 Q2303.04 1478.68 2303.04 1484.09 Q2303.04 1489.67 2299.57 1492.77 Q2296.1 1495.85 2289.78 1495.85 Q2287.6 1495.85 2285.34 1495.48 Q2283.09 1495.11 2280.68 1494.37 L2280.68 1489.67 Q2282.77 1490.8 2284.99 1491.36 Q2287.21 1491.92 2289.69 1491.92 Q2293.69 1491.92 2296.03 1489.81 Q2298.37 1487.7 2298.37 1484.09 Q2298.37 1480.48 2296.03 1478.37 Q2293.69 1476.27 2289.69 1476.27 Q2287.81 1476.27 2285.94 1476.68 Q2284.09 1477.1 2282.14 1477.98 L2282.14 1460.62 Z" fill="#4c4c4c" fill-rule="evenodd" fill-opacity="1" /><path clip-path="url(#clip360)" d="M1276.06 1522.27 L1276.06 1532.4 L1288.12 1532.4 L1288.12 1536.95 L1276.06 1536.95 L1276.06 1556.3 Q1276.06 1560.66 1277.23 1561.9 Q1278.44 1563.14 1282.1 1563.14 L1288.12 1563.14 L1288.12 1568.04 L1282.1 1568.04 Q1275.32 1568.04 1272.74 1565.53 Q1270.17 1562.98 1270.17 1556.3 L1270.17 1536.95 L1265.87 1536.95 L1265.87 1532.4 L1270.17 1532.4 L1270.17 1522.27 L1276.06 1522.27 Z" fill="#000000" fill-rule="evenodd" fill-opacity="1" /><polyline clip-path="url(#clip362)" style="stroke:#ffffff; stroke-linecap:butt; stroke-linejoin:round; stroke-width:4; stroke-opacity:1; fill:none" points="
  201.232,1208.41 2352.76,1208.41 
  "/>
<polyline clip-path="url(#clip362)" style="stroke:#ffffff; stroke-linecap:butt; stroke-linejoin:round; stroke-width:4; stroke-opacity:1; fill:none" points="
  201.232,968.474 2352.76,968.474 
  "/>
<polyline clip-path="url(#clip362)" style="stroke:#ffffff; stroke-linecap:butt; stroke-linejoin:round; stroke-width:4; stroke-opacity:1; fill:none" points="
  201.232,728.54 2352.76,728.54 
  "/>
<polyline clip-path="url(#clip362)" style="stroke:#ffffff; stroke-linecap:butt; stroke-linejoin:round; stroke-width:4; stroke-opacity:1; fill:none" points="
  201.232,488.606 2352.76,488.606 
  "/>
<polyline clip-path="url(#clip362)" style="stroke:#ffffff; stroke-linecap:butt; stroke-linejoin:round; stroke-width:4; stroke-opacity:1; fill:none" points="
  201.232,248.672 2352.76,248.672 
  "/>
<polyline clip-path="url(#clip362)" style="stroke:#ffffff; stroke-linecap:butt; stroke-linejoin:round; stroke-width:2; stroke-opacity:1; fill:none" points="
  201.232,1328.37 2352.76,1328.37 
  "/>
<polyline clip-path="url(#clip362)" style="stroke:#ffffff; stroke-linecap:butt; stroke-linejoin:round; stroke-width:2; stroke-opacity:1; fill:none" points="
  201.232,1088.44 2352.76,1088.44 
  "/>
<polyline clip-path="url(#clip362)" style="stroke:#ffffff; stroke-linecap:butt; stroke-linejoin:round; stroke-width:2; stroke-opacity:1; fill:none" points="
  201.232,848.507 2352.76,848.507 
  "/>
<polyline clip-path="url(#clip362)" style="stroke:#ffffff; stroke-linecap:butt; stroke-linejoin:round; stroke-width:2; stroke-opacity:1; fill:none" points="
  201.232,608.573 2352.76,608.573 
  "/>
<polyline clip-path="url(#clip362)" style="stroke:#ffffff; stroke-linecap:butt; stroke-linejoin:round; stroke-width:2; stroke-opacity:1; fill:none" points="
  201.232,368.639 2352.76,368.639 
  "/>
<polyline clip-path="url(#clip362)" style="stroke:#ffffff; stroke-linecap:butt; stroke-linejoin:round; stroke-width:2; stroke-opacity:1; fill:none" points="
  201.232,128.705 2352.76,128.705 
  "/>
<polyline clip-path="url(#clip360)" style="stroke:#ffffff; stroke-linecap:butt; stroke-linejoin:round; stroke-width:4; stroke-opacity:1; fill:none" points="
  201.232,1423.18 201.232,106.192 
  "/>
<polyline clip-path="url(#clip360)" style="stroke:#333333; stroke-linecap:butt; stroke-linejoin:round; stroke-width:4; stroke-opacity:1; fill:none" points="
  201.232,1208.41 182.334,1208.41 
  "/>
<polyline clip-path="url(#clip360)" style="stroke:#333333; stroke-linecap:butt; stroke-linejoin:round; stroke-width:4; stroke-opacity:1; fill:none" points="
  201.232,968.474 182.334,968.474 
  "/>
<polyline clip-path="url(#clip360)" style="stroke:#333333; stroke-linecap:butt; stroke-linejoin:round; stroke-width:4; stroke-opacity:1; fill:none" points="
  201.232,728.54 182.334,728.54 
  "/>
<polyline clip-path="url(#clip360)" style="stroke:#333333; stroke-linecap:butt; stroke-linejoin:round; stroke-width:4; stroke-opacity:1; fill:none" points="
  201.232,488.606 182.334,488.606 
  "/>
<polyline clip-path="url(#clip360)" style="stroke:#333333; stroke-linecap:butt; stroke-linejoin:round; stroke-width:4; stroke-opacity:1; fill:none" points="
  201.232,248.672 182.334,248.672 
  "/>
<polyline clip-path="url(#clip360)" style="stroke:#333333; stroke-linecap:butt; stroke-linejoin:round; stroke-width:4; stroke-opacity:1; fill:none" points="
  201.232,1328.37 191.783,1328.37 
  "/>
<polyline clip-path="url(#clip360)" style="stroke:#333333; stroke-linecap:butt; stroke-linejoin:round; stroke-width:4; stroke-opacity:1; fill:none" points="
  201.232,1088.44 191.783,1088.44 
  "/>
<polyline clip-path="url(#clip360)" style="stroke:#333333; stroke-linecap:butt; stroke-linejoin:round; stroke-width:4; stroke-opacity:1; fill:none" points="
  201.232,848.507 191.783,848.507 
  "/>
<polyline clip-path="url(#clip360)" style="stroke:#333333; stroke-linecap:butt; stroke-linejoin:round; stroke-width:4; stroke-opacity:1; fill:none" points="
  201.232,608.573 191.783,608.573 
  "/>
<polyline clip-path="url(#clip360)" style="stroke:#333333; stroke-linecap:butt; stroke-linejoin:round; stroke-width:4; stroke-opacity:1; fill:none" points="
  201.232,368.639 191.783,368.639 
  "/>
<polyline clip-path="url(#clip360)" style="stroke:#333333; stroke-linecap:butt; stroke-linejoin:round; stroke-width:4; stroke-opacity:1; fill:none" points="
  201.232,128.705 191.783,128.705 
  "/>
<path clip-path="url(#clip360)" d="M140.103 1207.05 Q143.459 1207.77 145.334 1210.04 Q147.232 1212.31 147.232 1215.64 Q147.232 1220.76 143.714 1223.56 Q140.195 1226.36 133.714 1226.36 Q131.538 1226.36 129.223 1225.92 Q126.931 1225.5 124.478 1224.65 L124.478 1220.13 Q126.422 1221.27 128.737 1221.85 Q131.052 1222.42 133.575 1222.42 Q137.973 1222.42 140.265 1220.69 Q142.579 1218.95 142.579 1215.64 Q142.579 1212.59 140.427 1210.87 Q138.297 1209.14 134.478 1209.14 L130.45 1209.14 L130.45 1205.29 L134.663 1205.29 Q138.112 1205.29 139.94 1203.93 Q141.769 1202.54 141.769 1199.95 Q141.769 1197.28 139.871 1195.87 Q137.996 1194.44 134.478 1194.44 Q132.556 1194.44 130.357 1194.85 Q128.158 1195.27 125.519 1196.15 L125.519 1191.98 Q128.181 1191.24 130.496 1190.87 Q132.834 1190.5 134.894 1190.5 Q140.218 1190.5 143.32 1192.93 Q146.422 1195.34 146.422 1199.46 Q146.422 1202.33 144.778 1204.32 Q143.135 1206.29 140.103 1207.05 Z" fill="#4c4c4c" fill-rule="evenodd" fill-opacity="1" /><path clip-path="url(#clip360)" d="M135.704 966.61 Q132.556 966.61 130.704 968.763 Q128.876 970.916 128.876 974.666 Q128.876 978.393 130.704 980.569 Q132.556 982.721 135.704 982.721 Q138.853 982.721 140.681 980.569 Q142.533 978.393 142.533 974.666 Q142.533 970.916 140.681 968.763 Q138.853 966.61 135.704 966.61 M144.987 951.958 L144.987 956.217 Q143.227 955.383 141.422 954.944 Q139.64 954.504 137.88 954.504 Q133.251 954.504 130.797 957.629 Q128.366 960.754 128.019 967.073 Q129.385 965.059 131.445 963.995 Q133.505 962.907 135.982 962.907 Q141.19 962.907 144.2 966.078 Q147.232 969.226 147.232 974.666 Q147.232 979.99 144.084 983.207 Q140.936 986.425 135.704 986.425 Q129.709 986.425 126.538 981.842 Q123.366 977.235 123.366 968.508 Q123.366 960.314 127.255 955.453 Q131.144 950.569 137.695 950.569 Q139.454 950.569 141.237 950.916 Q143.042 951.263 144.987 951.958 Z" fill="#4c4c4c" fill-rule="evenodd" fill-opacity="1" /><path clip-path="url(#clip360)" d="M125.612 745.102 L125.612 740.843 Q127.371 741.676 129.177 742.116 Q130.982 742.556 132.718 742.556 Q137.348 742.556 139.778 739.454 Q142.232 736.329 142.579 729.987 Q141.237 731.977 139.177 733.042 Q137.116 734.107 134.616 734.107 Q129.431 734.107 126.399 730.982 Q123.39 727.834 123.39 722.394 Q123.39 717.07 126.538 713.852 Q129.686 710.635 134.917 710.635 Q140.913 710.635 144.061 715.241 Q147.232 719.825 147.232 728.574 Q147.232 736.746 143.343 741.63 Q139.478 746.491 132.927 746.491 Q131.167 746.491 129.362 746.144 Q127.556 745.797 125.612 745.102 M134.917 730.449 Q138.065 730.449 139.894 728.297 Q141.746 726.144 141.746 722.394 Q141.746 718.667 139.894 716.514 Q138.065 714.338 134.917 714.338 Q131.769 714.338 129.917 716.514 Q128.089 718.667 128.089 722.394 Q128.089 726.144 129.917 728.297 Q131.769 730.449 134.917 730.449 Z" fill="#4c4c4c" fill-rule="evenodd" fill-opacity="1" /><path clip-path="url(#clip360)" d="M97.5333 501.951 L105.172 501.951 L105.172 475.585 L96.862 477.252 L96.862 472.993 L105.126 471.326 L109.802 471.326 L109.802 501.951 L117.441 501.951 L117.441 505.886 L97.5333 505.886 L97.5333 501.951 Z" fill="#4c4c4c" fill-rule="evenodd" fill-opacity="1" /><path clip-path="url(#clip360)" d="M130.913 501.951 L147.232 501.951 L147.232 505.886 L125.288 505.886 L125.288 501.951 Q127.95 499.196 132.533 494.566 Q137.14 489.914 138.32 488.571 Q140.565 486.048 141.445 484.312 Q142.348 482.553 142.348 480.863 Q142.348 478.108 140.403 476.372 Q138.482 474.636 135.38 474.636 Q133.181 474.636 130.728 475.4 Q128.297 476.164 125.519 477.715 L125.519 472.993 Q128.343 471.858 130.797 471.28 Q133.251 470.701 135.288 470.701 Q140.658 470.701 143.852 473.386 Q147.047 476.071 147.047 480.562 Q147.047 482.692 146.237 484.613 Q145.45 486.511 143.343 489.104 Q142.765 489.775 139.663 492.992 Q136.561 496.187 130.913 501.951 Z" fill="#4c4c4c" fill-rule="evenodd" fill-opacity="1" /><path clip-path="url(#clip360)" d="M96.9315 262.017 L104.57 262.017 L104.57 235.651 L96.2602 237.318 L96.2602 233.059 L104.524 231.392 L109.2 231.392 L109.2 262.017 L116.839 262.017 L116.839 265.952 L96.9315 265.952 L96.9315 262.017 Z" fill="#4c4c4c" fill-rule="evenodd" fill-opacity="1" /><path clip-path="url(#clip360)" d="M126.329 231.392 L144.686 231.392 L144.686 235.327 L130.612 235.327 L130.612 243.799 Q131.63 243.452 132.649 243.29 Q133.667 243.105 134.686 243.105 Q140.473 243.105 143.852 246.276 Q147.232 249.447 147.232 254.864 Q147.232 260.443 143.76 263.545 Q140.288 266.623 133.968 266.623 Q131.792 266.623 129.524 266.253 Q127.279 265.883 124.871 265.142 L124.871 260.443 Q126.954 261.577 129.177 262.133 Q131.399 262.688 133.876 262.688 Q137.88 262.688 140.218 260.582 Q142.556 258.475 142.556 254.864 Q142.556 251.253 140.218 249.146 Q137.88 247.04 133.876 247.04 Q132.001 247.04 130.126 247.457 Q128.274 247.873 126.329 248.753 L126.329 231.392 Z" fill="#4c4c4c" fill-rule="evenodd" fill-opacity="1" /><path clip-path="url(#clip360)" d="M28.3562 748.071 L45.7028 760.962 L64.0042 747.403 L64.0042 754.31 L49.9996 764.686 L64.0042 775.062 L64.0042 781.969 L45.3526 768.123 L28.3562 780.791 L28.3562 773.884 L41.0558 764.431 L28.3562 754.978 L28.3562 748.071 Z" fill="#000000" fill-rule="evenodd" fill-opacity="1" /><path clip-path="url(#clip360)" d="M219.925 20.3876 L219.925 25.4223 Q217.668 24.2649 215.238 23.6862 Q212.807 23.1075 210.203 23.1075 Q206.239 23.1075 204.242 24.3228 Q202.275 25.5381 202.275 27.9686 Q202.275 29.8204 203.692 30.891 Q205.11 31.9327 209.393 32.8876 L211.216 33.2926 Q216.887 34.5079 219.26 36.7359 Q221.661 38.935 221.661 42.8991 Q221.661 47.4129 218.073 50.046 Q214.514 52.6791 208.264 52.6791 Q205.66 52.6791 202.824 52.1583 Q200.018 51.6664 196.893 50.6537 L196.893 45.156 Q199.844 46.6896 202.709 47.4708 Q205.573 48.2231 208.38 48.2231 Q212.141 48.2231 214.167 46.95 Q216.192 45.6479 216.192 43.3042 Q216.192 41.134 214.717 39.9766 Q213.27 38.8192 208.322 37.7486 L206.47 37.3146 Q201.522 36.273 199.323 34.1318 Q197.124 31.9616 197.124 28.2001 Q197.124 23.6283 200.365 21.1399 Q203.606 18.6515 209.566 18.6515 Q212.518 18.6515 215.122 19.0855 Q217.726 19.5196 219.925 20.3876 Z" fill="#000000" fill-rule="evenodd" fill-opacity="1" /><path clip-path="url(#clip360)" d="M242.697 23.1654 Q238.415 23.1654 235.926 26.5218 Q233.438 29.8494 233.438 35.6653 Q233.438 41.4813 235.897 44.8377 Q238.386 48.1653 242.697 48.1653 Q246.95 48.1653 249.439 44.8088 Q251.927 41.4523 251.927 35.6653 Q251.927 29.9072 249.439 26.5508 Q246.95 23.1654 242.697 23.1654 M242.697 18.6515 Q249.641 18.6515 253.605 23.1654 Q257.569 27.6792 257.569 35.6653 Q257.569 43.6225 253.605 48.1653 Q249.641 52.6791 242.697 52.6791 Q235.724 52.6791 231.759 48.1653 Q227.824 43.6225 227.824 35.6653 Q227.824 27.6792 231.759 23.1654 Q235.724 18.6515 242.697 18.6515 Z" fill="#000000" fill-rule="evenodd" fill-opacity="1" /><path clip-path="url(#clip360)" d="M266.395 6.81709 L271.719 6.81709 L271.719 51.84 L266.395 51.84 L266.395 6.81709 Z" fill="#000000" fill-rule="evenodd" fill-opacity="1" /><path clip-path="url(#clip360)" d="M282.309 39.0507 L282.309 19.4328 L287.633 19.4328 L287.633 38.8482 Q287.633 43.4488 289.427 45.7636 Q291.221 48.0495 294.809 48.0495 Q299.12 48.0495 301.609 45.3007 Q304.126 42.5519 304.126 37.8065 L304.126 19.4328 L309.45 19.4328 L309.45 51.84 L304.126 51.84 L304.126 46.8632 Q302.187 49.8145 299.612 51.2613 Q297.066 52.6791 293.68 52.6791 Q288.096 52.6791 285.202 49.2069 Q282.309 45.7347 282.309 39.0507 M295.706 18.6515 L295.706 18.6515 Z" fill="#000000" fill-rule="evenodd" fill-opacity="1" /><path clip-path="url(#clip360)" d="M343.738 20.677 L343.738 25.6538 Q341.481 24.4096 339.195 23.802 Q336.938 23.1654 334.623 23.1654 Q329.444 23.1654 326.58 26.464 Q323.715 29.7336 323.715 35.6653 Q323.715 41.597 326.58 44.8956 Q329.444 48.1653 334.623 48.1653 Q336.938 48.1653 339.195 47.5576 Q341.481 46.921 343.738 45.6768 L343.738 50.5958 Q341.51 51.6375 339.108 52.1583 Q336.736 52.6791 334.045 52.6791 Q326.724 52.6791 322.413 48.0784 Q318.102 43.4778 318.102 35.6653 Q318.102 27.7371 322.442 23.1943 Q326.811 18.6515 334.392 18.6515 Q336.851 18.6515 339.195 19.1724 Q341.539 19.6642 343.738 20.677 M336.215 51.84 Q337.806 53.634 338.588 55.1386 Q339.369 56.6722 339.369 58.061 Q339.369 60.6362 337.633 61.9383 Q335.897 63.2693 332.482 63.2693 Q331.151 63.2693 329.878 63.0957 Q328.634 62.9221 327.39 62.5749 L327.39 58.7844 Q328.374 59.2763 329.444 59.4788 Q330.515 59.7103 331.875 59.7103 Q333.582 59.7103 334.45 59.0159 Q335.318 58.3214 335.318 56.9904 Q335.318 56.1224 334.681 54.8492 Q334.074 53.605 332.772 51.84 L336.215 51.84 Z" fill="#000000" fill-rule="evenodd" fill-opacity="1" /><path clip-path="url(#clip360)" d="M367.725 35.5496 Q361.273 35.5496 358.784 37.0253 Q356.296 38.501 356.296 42.06 Q356.296 44.8956 358.148 46.5738 Q360.028 48.2231 363.24 48.2231 Q367.667 48.2231 370.329 45.0981 Q373.02 41.9442 373.02 36.7359 L373.02 35.5496 L367.725 35.5496 M378.344 33.3505 L378.344 51.84 L373.02 51.84 L373.02 46.921 Q371.197 49.8724 368.477 51.2902 Q365.758 52.6791 361.822 52.6791 Q356.846 52.6791 353.894 49.9014 Q350.972 47.0947 350.972 42.4072 Q350.972 36.9385 354.618 34.1607 Q358.292 31.3829 365.555 31.3829 L373.02 31.3829 L373.02 30.8621 Q373.02 27.1874 370.59 25.1908 Q368.188 23.1654 363.819 23.1654 Q361.041 23.1654 358.408 23.8309 Q355.775 24.4964 353.344 25.8274 L353.344 20.9085 Q356.267 19.78 359.016 19.2302 Q361.765 18.6515 364.369 18.6515 Q371.4 18.6515 374.872 22.2973 Q378.344 25.9431 378.344 33.3505 M364.484 12.199 L362.835 10.6076 Q362.199 10.0289 361.707 9.76847 Q361.244 9.47912 360.868 9.47912 Q359.768 9.47912 359.247 10.5497 Q358.726 11.5914 358.668 13.964 L355.052 13.964 Q355.109 10.0578 356.585 7.94556 Q358.061 5.80437 360.694 5.80437 Q361.793 5.80437 362.719 6.20946 Q363.645 6.61455 364.716 7.5694 L366.365 9.16083 Q367.002 9.73953 367.465 10.0289 Q367.957 10.2893 368.333 10.2893 Q369.432 10.2893 369.953 9.24764 Q370.474 8.17704 370.532 5.80437 L374.149 5.80437 Q374.091 9.7106 372.615 11.8518 Q371.139 13.964 368.506 13.964 Q367.407 13.964 366.481 13.559 Q365.555 13.1539 364.484 12.199 Z" fill="#000000" fill-rule="evenodd" fill-opacity="1" /><path clip-path="url(#clip360)" d="M401.868 23.1654 Q397.586 23.1654 395.098 26.5218 Q392.609 29.8494 392.609 35.6653 Q392.609 41.4813 395.069 44.8377 Q397.557 48.1653 401.868 48.1653 Q406.122 48.1653 408.61 44.8088 Q411.099 41.4523 411.099 35.6653 Q411.099 29.9072 408.61 26.5508 Q406.122 23.1654 401.868 23.1654 M401.868 18.6515 Q408.813 18.6515 412.777 23.1654 Q416.741 27.6792 416.741 35.6653 Q416.741 43.6225 412.777 48.1653 Q408.813 52.6791 401.868 52.6791 Q394.895 52.6791 390.931 48.1653 Q386.996 43.6225 386.996 35.6653 Q386.996 27.6792 390.931 23.1654 Q394.895 18.6515 401.868 18.6515 Z" fill="#000000" fill-rule="evenodd" fill-opacity="1" /><path clip-path="url(#clip360)" d="M465.728 24.3517 L465.728 6.81709 L471.052 6.81709 L471.052 51.84 L465.728 51.84 L465.728 46.9789 Q464.05 49.8724 461.475 51.2902 Q458.928 52.6791 455.34 52.6791 Q449.467 52.6791 445.763 47.9916 Q442.088 43.3042 442.088 35.6653 Q442.088 28.0265 445.763 23.339 Q449.467 18.6515 455.34 18.6515 Q458.928 18.6515 461.475 20.0693 Q464.05 21.4582 465.728 24.3517 M447.586 35.6653 Q447.586 41.5391 449.987 44.8956 Q452.418 48.2231 456.642 48.2231 Q460.867 48.2231 463.298 44.8956 Q465.728 41.5391 465.728 35.6653 Q465.728 29.7915 463.298 26.464 Q460.867 23.1075 456.642 23.1075 Q452.418 23.1075 449.987 26.464 Q447.586 29.7915 447.586 35.6653 Z" fill="#000000" fill-rule="evenodd" fill-opacity="1" /><path clip-path="url(#clip360)" d="M496.746 35.5496 Q490.294 35.5496 487.806 37.0253 Q485.317 38.501 485.317 42.06 Q485.317 44.8956 487.169 46.5738 Q489.05 48.2231 492.262 48.2231 Q496.689 48.2231 499.351 45.0981 Q502.042 41.9442 502.042 36.7359 L502.042 35.5496 L496.746 35.5496 M507.366 33.3505 L507.366 51.84 L502.042 51.84 L502.042 46.921 Q500.219 49.8724 497.499 51.2902 Q494.779 52.6791 490.844 52.6791 Q485.867 52.6791 482.916 49.9014 Q479.993 47.0947 479.993 42.4072 Q479.993 36.9385 483.639 34.1607 Q487.314 31.3829 494.576 31.3829 L502.042 31.3829 L502.042 30.8621 Q502.042 27.1874 499.611 25.1908 Q497.209 23.1654 492.84 23.1654 Q490.062 23.1654 487.429 23.8309 Q484.796 24.4964 482.366 25.8274 L482.366 20.9085 Q485.288 19.78 488.037 19.2302 Q490.786 18.6515 493.39 18.6515 Q500.421 18.6515 503.893 22.2973 Q507.366 25.9431 507.366 33.3505 Z" fill="#000000" fill-rule="evenodd" fill-opacity="1" /><path clip-path="url(#clip360)" d="M564.888 34.3054 L564.888 36.9095 L540.409 36.9095 Q540.757 42.4072 543.708 45.3007 Q546.688 48.1653 551.983 48.1653 Q555.051 48.1653 557.915 47.4129 Q560.809 46.6606 563.644 45.156 L563.644 50.1907 Q560.78 51.406 557.77 52.0425 Q554.761 52.6791 551.665 52.6791 Q543.911 52.6791 539.368 48.1653 Q534.854 43.6514 534.854 35.9547 Q534.854 27.9975 539.136 23.339 Q543.448 18.6515 550.739 18.6515 Q557.279 18.6515 561.069 22.876 Q564.888 27.0716 564.888 34.3054 M559.564 32.7429 Q559.507 28.3737 557.105 25.7695 Q554.732 23.1654 550.797 23.1654 Q546.341 23.1654 543.65 25.6827 Q540.988 28.2001 540.583 32.7718 L559.564 32.7429 Z" fill="#000000" fill-rule="evenodd" fill-opacity="1" /><path clip-path="url(#clip360)" d="M576.81 35.6653 Q576.81 41.5391 579.211 44.8956 Q581.642 48.2231 585.866 48.2231 Q590.091 48.2231 592.521 44.8956 Q594.952 41.5391 594.952 35.6653 Q594.952 29.7915 592.521 26.464 Q590.091 23.1075 585.866 23.1075 Q581.642 23.1075 579.211 26.464 Q576.81 29.7915 576.81 35.6653 M594.952 46.9789 Q593.274 49.8724 590.698 51.2902 Q588.152 52.6791 584.564 52.6791 Q578.69 52.6791 574.987 47.9916 Q571.312 43.3042 571.312 35.6653 Q571.312 28.0265 574.987 23.339 Q578.69 18.6515 584.564 18.6515 Q588.152 18.6515 590.698 20.0693 Q593.274 21.4582 594.952 24.3517 L594.952 19.4328 L600.276 19.4328 L600.276 64.1663 L594.952 64.1663 L594.952 46.9789 Z" fill="#000000" fill-rule="evenodd" fill-opacity="1" /><path clip-path="url(#clip360)" d="M610.693 39.0507 L610.693 19.4328 L616.017 19.4328 L616.017 38.8482 Q616.017 43.4488 617.811 45.7636 Q619.605 48.0495 623.193 48.0495 Q627.504 48.0495 629.992 45.3007 Q632.51 42.5519 632.51 37.8065 L632.51 19.4328 L637.834 19.4328 L637.834 51.84 L632.51 51.84 L632.51 46.8632 Q630.571 49.8145 627.996 51.2613 Q625.449 52.6791 622.064 52.6791 Q616.48 52.6791 613.586 49.2069 Q610.693 45.7347 610.693 39.0507 M624.09 18.6515 L624.09 18.6515 Z" fill="#000000" fill-rule="evenodd" fill-opacity="1" /><path clip-path="url(#clip360)" d="M663.528 35.5496 Q657.075 35.5496 654.587 37.0253 Q652.099 38.501 652.099 42.06 Q652.099 44.8956 653.95 46.5738 Q655.831 48.2231 659.043 48.2231 Q663.47 48.2231 666.132 45.0981 Q668.823 41.9442 668.823 36.7359 L668.823 35.5496 L663.528 35.5496 M674.147 33.3505 L674.147 51.84 L668.823 51.84 L668.823 46.921 Q667 49.8724 664.28 51.2902 Q661.56 52.6791 657.625 52.6791 Q652.648 52.6791 649.697 49.9014 Q646.775 47.0947 646.775 42.4072 Q646.775 36.9385 650.42 34.1607 Q654.095 31.3829 661.358 31.3829 L668.823 31.3829 L668.823 30.8621 Q668.823 27.1874 666.393 25.1908 Q663.991 23.1654 659.622 23.1654 Q656.844 23.1654 654.211 23.8309 Q651.578 24.4964 649.147 25.8274 L649.147 20.9085 Q652.07 19.78 654.819 19.2302 Q657.567 18.6515 660.172 18.6515 Q667.203 18.6515 670.675 22.2973 Q674.147 25.9431 674.147 33.3505 Z" fill="#000000" fill-rule="evenodd" fill-opacity="1" /><path clip-path="url(#clip360)" d="M708.435 20.677 L708.435 25.6538 Q706.178 24.4096 703.892 23.802 Q701.635 23.1654 699.321 23.1654 Q694.141 23.1654 691.277 26.464 Q688.412 29.7336 688.412 35.6653 Q688.412 41.597 691.277 44.8956 Q694.141 48.1653 699.321 48.1653 Q701.635 48.1653 703.892 47.5576 Q706.178 46.921 708.435 45.6768 L708.435 50.5958 Q706.207 51.6375 703.806 52.1583 Q701.433 52.6791 698.742 52.6791 Q691.421 52.6791 687.11 48.0784 Q682.799 43.4778 682.799 35.6653 Q682.799 27.7371 687.139 23.1943 Q691.508 18.6515 699.089 18.6515 Q701.549 18.6515 703.892 19.1724 Q706.236 19.6642 708.435 20.677 M700.912 51.84 Q702.503 53.634 703.285 55.1386 Q704.066 56.6722 704.066 58.061 Q704.066 60.6362 702.33 61.9383 Q700.594 63.2693 697.179 63.2693 Q695.848 63.2693 694.575 63.0957 Q693.331 62.9221 692.087 62.5749 L692.087 58.7844 Q693.071 59.2763 694.141 59.4788 Q695.212 59.7103 696.572 59.7103 Q698.279 59.7103 699.147 59.0159 Q700.015 58.3214 700.015 56.9904 Q700.015 56.1224 699.378 54.8492 Q698.771 53.605 697.469 51.84 L700.912 51.84 Z" fill="#000000" fill-rule="evenodd" fill-opacity="1" /><path clip-path="url(#clip360)" d="M732.422 35.5496 Q725.97 35.5496 723.481 37.0253 Q720.993 38.501 720.993 42.06 Q720.993 44.8956 722.845 46.5738 Q724.726 48.2231 727.937 48.2231 Q732.364 48.2231 735.026 45.0981 Q737.717 41.9442 737.717 36.7359 L737.717 35.5496 L732.422 35.5496 M743.041 33.3505 L743.041 51.84 L737.717 51.84 L737.717 46.921 Q735.894 49.8724 733.175 51.2902 Q730.455 52.6791 726.52 52.6791 Q721.543 52.6791 718.591 49.9014 Q715.669 47.0947 715.669 42.4072 Q715.669 36.9385 719.315 34.1607 Q722.989 31.3829 730.252 31.3829 L737.717 31.3829 L737.717 30.8621 Q737.717 27.1874 735.287 25.1908 Q732.885 23.1654 728.516 23.1654 Q725.738 23.1654 723.105 23.8309 Q720.472 24.4964 718.042 25.8274 L718.042 20.9085 Q720.964 19.78 723.713 19.2302 Q726.462 18.6515 729.066 18.6515 Q736.097 18.6515 739.569 22.2973 Q743.041 25.9431 743.041 33.3505 M729.182 12.199 L727.532 10.6076 Q726.896 10.0289 726.404 9.76847 Q725.941 9.47912 725.565 9.47912 Q724.465 9.47912 723.944 10.5497 Q723.423 11.5914 723.366 13.964 L719.749 13.964 Q719.807 10.0578 721.282 7.94556 Q722.758 5.80437 725.391 5.80437 Q726.491 5.80437 727.417 6.20946 Q728.342 6.61455 729.413 7.5694 L731.062 9.16083 Q731.699 9.73953 732.162 10.0289 Q732.654 10.2893 733.03 10.2893 Q734.129 10.2893 734.65 9.24764 Q735.171 8.17704 735.229 5.80437 L738.846 5.80437 Q738.788 9.7106 737.312 11.8518 Q735.837 13.964 733.204 13.964 Q732.104 13.964 731.178 13.559 Q730.252 13.1539 729.182 12.199 Z" fill="#000000" fill-rule="evenodd" fill-opacity="1" /><path clip-path="url(#clip360)" d="M766.566 23.1654 Q762.283 23.1654 759.795 26.5218 Q757.306 29.8494 757.306 35.6653 Q757.306 41.4813 759.766 44.8377 Q762.254 48.1653 766.566 48.1653 Q770.819 48.1653 773.307 44.8088 Q775.796 41.4523 775.796 35.6653 Q775.796 29.9072 773.307 26.5508 Q770.819 23.1654 766.566 23.1654 M766.566 18.6515 Q773.51 18.6515 777.474 23.1654 Q781.438 27.6792 781.438 35.6653 Q781.438 43.6225 777.474 48.1653 Q773.51 52.6791 766.566 52.6791 Q759.592 52.6791 755.628 48.1653 Q751.693 43.6225 751.693 35.6653 Q751.693 27.6792 755.628 23.1654 Q759.592 18.6515 766.566 18.6515 Z" fill="#000000" fill-rule="evenodd" fill-opacity="1" /><path clip-path="url(#clip360)" d="M830.425 24.3517 L830.425 6.81709 L835.749 6.81709 L835.749 51.84 L830.425 51.84 L830.425 46.9789 Q828.747 49.8724 826.172 51.2902 Q823.625 52.6791 820.038 52.6791 Q814.164 52.6791 810.46 47.9916 Q806.785 43.3042 806.785 35.6653 Q806.785 28.0265 810.46 23.339 Q814.164 18.6515 820.038 18.6515 Q823.625 18.6515 826.172 20.0693 Q828.747 21.4582 830.425 24.3517 M812.283 35.6653 Q812.283 41.5391 814.685 44.8956 Q817.115 48.2231 821.34 48.2231 Q825.564 48.2231 827.995 44.8956 Q830.425 41.5391 830.425 35.6653 Q830.425 29.7915 827.995 26.464 Q825.564 23.1075 821.34 23.1075 Q817.115 23.1075 814.685 26.464 Q812.283 29.7915 812.283 35.6653 Z" fill="#000000" fill-rule="evenodd" fill-opacity="1" /><path clip-path="url(#clip360)" d="M846.716 19.4328 L852.04 19.4328 L852.04 51.84 L846.716 51.84 L846.716 19.4328 M846.716 6.81709 L852.04 6.81709 L852.04 13.559 L846.716 13.559 L846.716 6.81709 Z" fill="#000000" fill-rule="evenodd" fill-opacity="1" /><path clip-path="url(#clip360)" d="M879.586 6.81709 L879.586 11.2442 L874.493 11.2442 Q871.629 11.2442 870.5 12.4016 Q869.401 13.559 869.401 16.5682 L869.401 19.4328 L878.168 19.4328 L878.168 23.5705 L869.401 23.5705 L869.401 51.84 L864.048 51.84 L864.048 23.5705 L858.955 23.5705 L858.955 19.4328 L864.048 19.4328 L864.048 17.1758 Q864.048 11.765 866.565 9.30551 Q869.082 6.81709 874.551 6.81709 L879.586 6.81709 Z" fill="#000000" fill-rule="evenodd" fill-opacity="1" /><path clip-path="url(#clip360)" d="M911.762 34.3054 L911.762 36.9095 L887.283 36.9095 Q887.63 42.4072 890.581 45.3007 Q893.561 48.1653 898.857 48.1653 Q901.924 48.1653 904.788 47.4129 Q907.682 46.6606 910.517 45.156 L910.517 50.1907 Q907.653 51.406 904.644 52.0425 Q901.634 52.6791 898.538 52.6791 Q890.784 52.6791 886.241 48.1653 Q881.727 43.6514 881.727 35.9547 Q881.727 27.9975 886.009 23.339 Q890.321 18.6515 897.612 18.6515 Q904.152 18.6515 907.942 22.876 Q911.762 27.0716 911.762 34.3054 M906.438 32.7429 Q906.38 28.3737 903.978 25.7695 Q901.605 23.1654 897.67 23.1654 Q893.214 23.1654 890.523 25.6827 Q887.861 28.2001 887.456 32.7718 L906.438 32.7429 Z" fill="#000000" fill-rule="evenodd" fill-opacity="1" /><path clip-path="url(#clip360)" d="M939.279 24.4096 Q938.382 23.8888 937.311 23.6573 Q936.27 23.3969 934.996 23.3969 Q930.483 23.3969 928.052 26.3482 Q925.65 29.2707 925.65 34.7683 L925.65 51.84 L920.297 51.84 L920.297 19.4328 L925.65 19.4328 L925.65 24.4675 Q927.329 21.5161 930.02 20.0983 Q932.711 18.6515 936.559 18.6515 Q937.109 18.6515 937.774 18.7383 Q938.44 18.7962 939.25 18.9409 L939.279 24.4096 Z" fill="#000000" fill-rule="evenodd" fill-opacity="1" /><path clip-path="url(#clip360)" d="M971.281 34.3054 L971.281 36.9095 L946.802 36.9095 Q947.149 42.4072 950.101 45.3007 Q953.081 48.1653 958.376 48.1653 Q961.443 48.1653 964.308 47.4129 Q967.201 46.6606 970.037 45.156 L970.037 50.1907 Q967.172 51.406 964.163 52.0425 Q961.154 52.6791 958.058 52.6791 Q950.303 52.6791 945.76 48.1653 Q941.246 43.6514 941.246 35.9547 Q941.246 27.9975 945.529 23.339 Q949.84 18.6515 957.132 18.6515 Q963.671 18.6515 967.462 22.876 Q971.281 27.0716 971.281 34.3054 M965.957 32.7429 Q965.899 28.3737 963.497 25.7695 Q961.125 23.1654 957.19 23.1654 Q952.734 23.1654 950.043 25.6827 Q947.381 28.2001 946.976 32.7718 L965.957 32.7429 Z" fill="#000000" fill-rule="evenodd" fill-opacity="1" /><path clip-path="url(#clip360)" d="M1006.96 32.2799 L1006.96 51.84 L1001.63 51.84 L1001.63 32.4535 Q1001.63 27.8529 999.84 25.567 Q998.046 23.2811 994.458 23.2811 Q990.147 23.2811 987.658 26.03 Q985.17 28.7788 985.17 33.5241 L985.17 51.84 L979.817 51.84 L979.817 19.4328 L985.17 19.4328 L985.17 24.4675 Q987.079 21.545 989.655 20.0983 Q992.259 18.6515 995.644 18.6515 Q1001.23 18.6515 1004.09 22.1237 Q1006.96 25.567 1006.96 32.2799 Z" fill="#000000" fill-rule="evenodd" fill-opacity="1" /><path clip-path="url(#clip360)" d="M1040.9 20.677 L1040.9 25.6538 Q1038.64 24.4096 1036.36 23.802 Q1034.1 23.1654 1031.78 23.1654 Q1026.6 23.1654 1023.74 26.464 Q1020.88 29.7336 1020.88 35.6653 Q1020.88 41.597 1023.74 44.8956 Q1026.6 48.1653 1031.78 48.1653 Q1034.1 48.1653 1036.36 47.5576 Q1038.64 46.921 1040.9 45.6768 L1040.9 50.5958 Q1038.67 51.6375 1036.27 52.1583 Q1033.9 52.6791 1031.21 52.6791 Q1023.88 52.6791 1019.57 48.0784 Q1015.26 43.4778 1015.26 35.6653 Q1015.26 27.7371 1019.6 23.1943 Q1023.97 18.6515 1031.55 18.6515 Q1034.01 18.6515 1036.36 19.1724 Q1038.7 19.6642 1040.9 20.677 Z" fill="#000000" fill-rule="evenodd" fill-opacity="1" /><path clip-path="url(#clip360)" d="M1050.16 19.4328 L1055.48 19.4328 L1055.48 51.84 L1050.16 51.84 L1050.16 19.4328 M1050.16 6.81709 L1055.48 6.81709 L1055.48 13.559 L1050.16 13.559 L1050.16 6.81709 Z" fill="#000000" fill-rule="evenodd" fill-opacity="1" /><path clip-path="url(#clip360)" d="M1081.35 35.5496 Q1074.9 35.5496 1072.41 37.0253 Q1069.92 38.501 1069.92 42.06 Q1069.92 44.8956 1071.77 46.5738 Q1073.65 48.2231 1076.86 48.2231 Q1081.29 48.2231 1083.95 45.0981 Q1086.64 41.9442 1086.64 36.7359 L1086.64 35.5496 L1081.35 35.5496 M1091.97 33.3505 L1091.97 51.84 L1086.64 51.84 L1086.64 46.921 Q1084.82 49.8724 1082.1 51.2902 Q1079.38 52.6791 1075.45 52.6791 Q1070.47 52.6791 1067.52 49.9014 Q1064.6 47.0947 1064.6 42.4072 Q1064.6 36.9385 1068.24 34.1607 Q1071.92 31.3829 1079.18 31.3829 L1086.64 31.3829 L1086.64 30.8621 Q1086.64 27.1874 1084.21 25.1908 Q1081.81 23.1654 1077.44 23.1654 Q1074.67 23.1654 1072.03 23.8309 Q1069.4 24.4964 1066.97 25.8274 L1066.97 20.9085 Q1069.89 19.78 1072.64 19.2302 Q1075.39 18.6515 1077.99 18.6515 Q1085.02 18.6515 1088.5 22.2973 Q1091.97 25.9431 1091.97 33.3505 Z" fill="#000000" fill-rule="evenodd" fill-opacity="1" /><path clip-path="url(#clip360)" d="M1102.94 6.81709 L1108.26 6.81709 L1108.26 51.84 L1102.94 51.84 L1102.94 6.81709 Z" fill="#000000" fill-rule="evenodd" fill-opacity="1" /><path clip-path="url(#clip360)" d="M1152.96 35.5496 Q1146.51 35.5496 1144.02 37.0253 Q1141.53 38.501 1141.53 42.06 Q1141.53 44.8956 1143.39 46.5738 Q1145.27 48.2231 1148.48 48.2231 Q1152.91 48.2231 1155.57 45.0981 Q1158.26 41.9442 1158.26 36.7359 L1158.26 35.5496 L1152.96 35.5496 M1163.58 33.3505 L1163.58 51.84 L1158.26 51.84 L1158.26 46.921 Q1156.44 49.8724 1153.72 51.2902 Q1151 52.6791 1147.06 52.6791 Q1142.08 52.6791 1139.13 49.9014 Q1136.21 47.0947 1136.21 42.4072 Q1136.21 36.9385 1139.86 34.1607 Q1143.53 31.3829 1150.79 31.3829 L1158.26 31.3829 L1158.26 30.8621 Q1158.26 27.1874 1155.83 25.1908 Q1153.43 23.1654 1149.06 23.1654 Q1146.28 23.1654 1143.65 23.8309 Q1141.01 24.4964 1138.58 25.8274 L1138.58 20.9085 Q1141.51 19.78 1144.25 19.2302 Q1147 18.6515 1149.61 18.6515 Q1156.64 18.6515 1160.11 22.2973 Q1163.58 25.9431 1163.58 33.3505 Z" fill="#000000" fill-rule="evenodd" fill-opacity="1" /><path clip-path="url(#clip360)" d="M1174.55 6.81709 L1179.87 6.81709 L1179.87 51.84 L1174.55 51.84 L1174.55 6.81709 Z" fill="#000000" fill-rule="evenodd" fill-opacity="1" /><path clip-path="url(#clip360)" d="M1218.73 34.3054 L1218.73 36.9095 L1194.25 36.9095 Q1194.6 42.4072 1197.55 45.3007 Q1200.53 48.1653 1205.83 48.1653 Q1208.9 48.1653 1211.76 47.4129 Q1214.65 46.6606 1217.49 45.156 L1217.49 50.1907 Q1214.62 51.406 1211.62 52.0425 Q1208.61 52.6791 1205.51 52.6791 Q1197.76 52.6791 1193.21 48.1653 Q1188.7 43.6514 1188.7 35.9547 Q1188.7 27.9975 1192.98 23.339 Q1197.29 18.6515 1204.58 18.6515 Q1211.12 18.6515 1214.91 22.876 Q1218.73 27.0716 1218.73 34.3054 M1213.41 32.7429 Q1213.35 28.3737 1210.95 25.7695 Q1208.58 23.1654 1204.64 23.1654 Q1200.19 23.1654 1197.5 25.6827 Q1194.83 28.2001 1194.43 32.7718 L1213.41 32.7429 Z" fill="#000000" fill-rule="evenodd" fill-opacity="1" /><path clip-path="url(#clip360)" d="M1242.2 35.5496 Q1235.75 35.5496 1233.26 37.0253 Q1230.77 38.501 1230.77 42.06 Q1230.77 44.8956 1232.62 46.5738 Q1234.5 48.2231 1237.71 48.2231 Q1242.14 48.2231 1244.8 45.0981 Q1247.49 41.9442 1247.49 36.7359 L1247.49 35.5496 L1242.2 35.5496 M1252.82 33.3505 L1252.82 51.84 L1247.49 51.84 L1247.49 46.921 Q1245.67 49.8724 1242.95 51.2902 Q1240.23 52.6791 1236.3 52.6791 Q1231.32 52.6791 1228.37 49.9014 Q1225.45 47.0947 1225.45 42.4072 Q1225.45 36.9385 1229.09 34.1607 Q1232.77 31.3829 1240.03 31.3829 L1247.49 31.3829 L1247.49 30.8621 Q1247.49 27.1874 1245.06 25.1908 Q1242.66 23.1654 1238.29 23.1654 Q1235.52 23.1654 1232.88 23.8309 Q1230.25 24.4964 1227.82 25.8274 L1227.82 20.9085 Q1230.74 19.78 1233.49 19.2302 Q1236.24 18.6515 1238.84 18.6515 Q1245.87 18.6515 1249.35 22.2973 Q1252.82 25.9431 1252.82 33.3505 Z" fill="#000000" fill-rule="evenodd" fill-opacity="1" /><path clip-path="url(#clip360)" d="M1269.05 10.2314 L1269.05 19.4328 L1280.02 19.4328 L1280.02 23.5705 L1269.05 23.5705 L1269.05 41.163 Q1269.05 45.1271 1270.12 46.2555 Q1271.22 47.384 1274.55 47.384 L1280.02 47.384 L1280.02 51.84 L1274.55 51.84 Q1268.39 51.84 1266.04 49.5541 Q1263.7 47.2393 1263.7 41.163 L1263.7 23.5705 L1259.79 23.5705 L1259.79 19.4328 L1263.7 19.4328 L1263.7 10.2314 L1269.05 10.2314 Z" fill="#000000" fill-rule="evenodd" fill-opacity="1" /><path clip-path="url(#clip360)" d="M1299.58 23.1654 Q1295.3 23.1654 1292.81 26.5218 Q1290.32 29.8494 1290.32 35.6653 Q1290.32 41.4813 1292.78 44.8377 Q1295.27 48.1653 1299.58 48.1653 Q1303.83 48.1653 1306.32 44.8088 Q1308.81 41.4523 1308.81 35.6653 Q1308.81 29.9072 1306.32 26.5508 Q1303.83 23.1654 1299.58 23.1654 M1299.58 18.6515 Q1306.52 18.6515 1310.49 23.1654 Q1314.45 27.6792 1314.45 35.6653 Q1314.45 43.6225 1310.49 48.1653 Q1306.52 52.6791 1299.58 52.6791 Q1292.6 52.6791 1288.64 48.1653 Q1284.71 43.6225 1284.71 35.6653 Q1284.71 27.6792 1288.64 23.1654 Q1292.6 18.6515 1299.58 18.6515 M1303.6 4.44442 L1309.36 4.44442 L1299.93 15.324 L1295.5 15.324 L1303.6 4.44442 Z" fill="#000000" fill-rule="evenodd" fill-opacity="1" /><path clip-path="url(#clip360)" d="M1342.05 24.4096 Q1341.16 23.8888 1340.09 23.6573 Q1339.05 23.3969 1337.77 23.3969 Q1333.26 23.3969 1330.83 26.3482 Q1328.43 29.2707 1328.43 34.7683 L1328.43 51.84 L1323.07 51.84 L1323.07 19.4328 L1328.43 19.4328 L1328.43 24.4675 Q1330.1 21.5161 1332.8 20.0983 Q1335.49 18.6515 1339.33 18.6515 Q1339.88 18.6515 1340.55 18.7383 Q1341.22 18.7962 1342.03 18.9409 L1342.05 24.4096 Z" fill="#000000" fill-rule="evenodd" fill-opacity="1" /><path clip-path="url(#clip360)" d="M1347.64 19.4328 L1352.96 19.4328 L1352.96 51.84 L1347.64 51.84 L1347.64 19.4328 M1347.64 6.81709 L1352.96 6.81709 L1352.96 13.559 L1347.64 13.559 L1347.64 6.81709 Z" fill="#000000" fill-rule="evenodd" fill-opacity="1" /><path clip-path="url(#clip360)" d="M1378.83 35.5496 Q1372.38 35.5496 1369.89 37.0253 Q1367.4 38.501 1367.4 42.06 Q1367.4 44.8956 1369.25 46.5738 Q1371.13 48.2231 1374.35 48.2231 Q1378.77 48.2231 1381.43 45.0981 Q1384.13 41.9442 1384.13 36.7359 L1384.13 35.5496 L1378.83 35.5496 M1389.45 33.3505 L1389.45 51.84 L1384.13 51.84 L1384.13 46.921 Q1382.3 49.8724 1379.58 51.2902 Q1376.86 52.6791 1372.93 52.6791 Q1367.95 52.6791 1365 49.9014 Q1362.08 47.0947 1362.08 42.4072 Q1362.08 36.9385 1365.72 34.1607 Q1369.4 31.3829 1376.66 31.3829 L1384.13 31.3829 L1384.13 30.8621 Q1384.13 27.1874 1381.7 25.1908 Q1379.29 23.1654 1374.92 23.1654 Q1372.15 23.1654 1369.51 23.8309 Q1366.88 24.4964 1364.45 25.8274 L1364.45 20.9085 Q1367.37 19.78 1370.12 19.2302 Q1372.87 18.6515 1375.47 18.6515 Q1382.51 18.6515 1385.98 22.2973 Q1389.45 25.9431 1389.45 33.3505 Z" fill="#000000" fill-rule="evenodd" fill-opacity="1" /><path clip-path="url(#clip360)" d="M1424.29 4.44442 L1432.45 15.2661 L1428.02 15.2661 L1418.59 4.44442 L1424.29 4.44442 Z" fill="#000000" fill-rule="evenodd" fill-opacity="1" /><path clip-path="url(#clip360)" d="M1448.33 39.0507 L1448.33 19.4328 L1453.66 19.4328 L1453.66 38.8482 Q1453.66 43.4488 1455.45 45.7636 Q1457.24 48.0495 1460.83 48.0495 Q1465.14 48.0495 1467.63 45.3007 Q1470.15 42.5519 1470.15 37.8065 L1470.15 19.4328 L1475.47 19.4328 L1475.47 51.84 L1470.15 51.84 L1470.15 46.8632 Q1468.21 49.8145 1465.64 51.2613 Q1463.09 52.6791 1459.7 52.6791 Q1454.12 52.6791 1451.23 49.2069 Q1448.33 45.7347 1448.33 39.0507 M1461.73 18.6515 L1461.73 18.6515 Z" fill="#000000" fill-rule="evenodd" fill-opacity="1" /><path clip-path="url(#clip360)" d="M1491.47 8.64 L1491.47 24.6989 L1486.56 24.6989 L1486.56 8.64 L1491.47 8.64 Z" fill="#000000" fill-rule="evenodd" fill-opacity="1" /><path clip-path="url(#clip360)" d="M1522.26 24.9304 L1559.36 24.9304 L1559.36 29.7915 L1522.26 29.7915 L1522.26 24.9304 M1522.26 36.7359 L1559.36 36.7359 L1559.36 41.6549 L1522.26 41.6549 L1522.26 36.7359 Z" fill="#000000" fill-rule="evenodd" fill-opacity="1" /><path clip-path="url(#clip360)" d="M1610.72 20.3876 L1610.72 25.4223 Q1608.46 24.2649 1606.03 23.6862 Q1603.6 23.1075 1600.99 23.1075 Q1597.03 23.1075 1595.03 24.3228 Q1593.07 25.5381 1593.07 27.9686 Q1593.07 29.8204 1594.48 30.891 Q1595.9 31.9327 1600.18 32.8876 L1602.01 33.2926 Q1607.68 34.5079 1610.05 36.7359 Q1612.45 38.935 1612.45 42.8991 Q1612.45 47.4129 1608.86 50.046 Q1605.31 52.6791 1599.06 52.6791 Q1596.45 52.6791 1593.62 52.1583 Q1590.81 51.6664 1587.68 50.6537 L1587.68 45.156 Q1590.64 46.6896 1593.5 47.4708 Q1596.36 48.2231 1599.17 48.2231 Q1602.93 48.2231 1604.96 46.95 Q1606.98 45.6479 1606.98 43.3042 Q1606.98 41.134 1605.51 39.9766 Q1604.06 38.8192 1599.11 37.7486 L1597.26 37.3146 Q1592.31 36.273 1590.11 34.1318 Q1587.92 31.9616 1587.92 28.2001 Q1587.92 23.6283 1591.16 21.1399 Q1594.4 18.6515 1600.36 18.6515 Q1603.31 18.6515 1605.91 19.0855 Q1608.52 19.5196 1610.72 20.3876 Z" fill="#000000" fill-rule="evenodd" fill-opacity="1" /><path clip-path="url(#clip360)" d="M1620.93 19.4328 L1626.25 19.4328 L1626.25 51.84 L1620.93 51.84 L1620.93 19.4328 M1620.93 6.81709 L1626.25 6.81709 L1626.25 13.559 L1620.93 13.559 L1620.93 6.81709 Z" fill="#000000" fill-rule="evenodd" fill-opacity="1" /><path clip-path="url(#clip360)" d="M1664.33 32.2799 L1664.33 51.84 L1659.01 51.84 L1659.01 32.4535 Q1659.01 27.8529 1657.21 25.567 Q1655.42 23.2811 1651.83 23.2811 Q1647.52 23.2811 1645.03 26.03 Q1642.54 28.7788 1642.54 33.5241 L1642.54 51.84 L1637.19 51.84 L1637.19 19.4328 L1642.54 19.4328 L1642.54 24.4675 Q1644.45 21.545 1647.03 20.0983 Q1649.63 18.6515 1653.02 18.6515 Q1658.6 18.6515 1661.47 22.1237 Q1664.33 25.567 1664.33 32.2799 Z" fill="#000000" fill-rule="evenodd" fill-opacity="1" /><path clip-path="url(#clip360)" d="M1687.74 6.87496 Q1683.86 13.53 1681.98 20.0404 Q1680.1 26.5508 1680.1 33.2348 Q1680.1 39.9188 1681.98 46.487 Q1683.89 53.0263 1687.74 59.6525 L1683.11 59.6525 Q1678.77 52.8527 1676.6 46.2845 Q1674.46 39.7162 1674.46 33.2348 Q1674.46 26.7823 1676.6 20.2429 Q1678.74 13.7036 1683.11 6.87496 L1687.74 6.87496 Z" fill="#000000" fill-rule="evenodd" fill-opacity="1" /><path clip-path="url(#clip360)" d="M1694.45 8.64 L1700.36 8.64 L1709.44 45.156 L1718.5 8.64 L1725.07 8.64 L1734.15 45.156 L1743.21 8.64 L1749.14 8.64 L1738.29 51.84 L1730.94 51.84 L1721.83 14.3402 L1712.63 51.84 L1705.28 51.84 L1694.45 8.64 Z" fill="#000000" fill-rule="evenodd" fill-opacity="1" /><path clip-path="url(#clip360)" d="M1755.83 6.87496 L1760.45 6.87496 Q1764.8 13.7036 1766.94 20.2429 Q1769.11 26.7823 1769.11 33.2348 Q1769.11 39.7162 1766.94 46.2845 Q1764.8 52.8527 1760.45 59.6525 L1755.83 59.6525 Q1759.67 53.0263 1761.55 46.487 Q1763.46 39.9188 1763.46 33.2348 Q1763.46 26.5508 1761.55 20.0404 Q1759.67 13.53 1755.83 6.87496 Z" fill="#000000" fill-rule="evenodd" fill-opacity="1" /><path clip-path="url(#clip360)" d="M1779.23 39.0507 L1779.23 19.4328 L1784.56 19.4328 L1784.56 38.8482 Q1784.56 43.4488 1786.35 45.7636 Q1788.15 48.0495 1791.73 48.0495 Q1796.05 48.0495 1798.53 45.3007 Q1801.05 42.5519 1801.05 37.8065 L1801.05 19.4328 L1806.37 19.4328 L1806.37 51.84 L1801.05 51.84 L1801.05 46.8632 Q1799.11 49.8145 1796.54 51.2613 Q1793.99 52.6791 1790.61 52.6791 Q1785.02 52.6791 1782.13 49.2069 Q1779.23 45.7347 1779.23 39.0507 M1792.63 18.6515 L1792.63 18.6515 Z" fill="#000000" fill-rule="evenodd" fill-opacity="1" /><path clip-path="url(#clip360)" d="M1822.38 4.44442 L1830.54 15.2661 L1826.11 15.2661 L1816.68 4.44442 L1822.38 4.44442 Z" fill="#000000" fill-rule="evenodd" fill-opacity="1" /><path clip-path="url(#clip360)" d="M1889.13 20.677 L1889.13 25.6538 Q1886.87 24.4096 1884.59 23.802 Q1882.33 23.1654 1880.01 23.1654 Q1874.84 23.1654 1871.97 26.464 Q1869.11 29.7336 1869.11 35.6653 Q1869.11 41.597 1871.97 44.8956 Q1874.84 48.1653 1880.01 48.1653 Q1882.33 48.1653 1884.59 47.5576 Q1886.87 46.921 1889.13 45.6768 L1889.13 50.5958 Q1886.9 51.6375 1884.5 52.1583 Q1882.13 52.6791 1879.44 52.6791 Q1872.12 52.6791 1867.8 48.0784 Q1863.49 43.4778 1863.49 35.6653 Q1863.49 27.7371 1867.83 23.1943 Q1872.2 18.6515 1879.78 18.6515 Q1882.24 18.6515 1884.59 19.1724 Q1886.93 19.6642 1889.13 20.677 Z" fill="#000000" fill-rule="evenodd" fill-opacity="1" /><path clip-path="url(#clip360)" d="M1910.95 23.1654 Q1906.66 23.1654 1904.18 26.5218 Q1901.69 29.8494 1901.69 35.6653 Q1901.69 41.4813 1904.15 44.8377 Q1906.63 48.1653 1910.95 48.1653 Q1915.2 48.1653 1917.69 44.8088 Q1920.18 41.4523 1920.18 35.6653 Q1920.18 29.9072 1917.69 26.5508 Q1915.2 23.1654 1910.95 23.1654 M1910.95 18.6515 Q1917.89 18.6515 1921.85 23.1654 Q1925.82 27.6792 1925.82 35.6653 Q1925.82 43.6225 1921.85 48.1653 Q1917.89 52.6791 1910.95 52.6791 Q1903.97 52.6791 1900.01 48.1653 Q1896.07 43.6225 1896.07 35.6653 Q1896.07 27.6792 1900.01 23.1654 Q1903.97 18.6515 1910.95 18.6515 Z" fill="#000000" fill-rule="evenodd" fill-opacity="1" /><path clip-path="url(#clip360)" d="M1959.88 25.6538 Q1961.87 22.0659 1964.65 20.3587 Q1967.43 18.6515 1971.19 18.6515 Q1976.25 18.6515 1979 22.2105 Q1981.75 25.7406 1981.75 32.2799 L1981.75 51.84 L1976.4 51.84 L1976.4 32.4535 Q1976.4 27.795 1974.75 25.5381 Q1973.1 23.2811 1969.71 23.2811 Q1965.58 23.2811 1963.17 26.03 Q1960.77 28.7788 1960.77 33.5241 L1960.77 51.84 L1955.42 51.84 L1955.42 32.4535 Q1955.42 27.7661 1953.77 25.5381 Q1952.12 23.2811 1948.68 23.2811 Q1944.6 23.2811 1942.2 26.0589 Q1939.79 28.8077 1939.79 33.5241 L1939.79 51.84 L1934.44 51.84 L1934.44 19.4328 L1939.79 19.4328 L1939.79 24.4675 Q1941.62 21.4872 1944.16 20.0693 Q1946.71 18.6515 1950.21 18.6515 Q1953.74 18.6515 1956.2 20.4455 Q1958.69 22.2395 1959.88 25.6538 Z" fill="#000000" fill-rule="evenodd" fill-opacity="1" /><path clip-path="url(#clip360)" d="M2016.24 4.44442 L2024.4 15.2661 L2019.97 15.2661 L2010.54 4.44442 L2016.24 4.44442 Z" fill="#000000" fill-rule="evenodd" fill-opacity="1" /><path clip-path="url(#clip360)" d="M2040.29 39.0507 L2040.29 19.4328 L2045.61 19.4328 L2045.61 38.8482 Q2045.61 43.4488 2047.4 45.7636 Q2049.2 48.0495 2052.79 48.0495 Q2057.1 48.0495 2059.59 45.3007 Q2062.1 42.5519 2062.1 37.8065 L2062.1 19.4328 L2067.43 19.4328 L2067.43 51.84 L2062.1 51.84 L2062.1 46.8632 Q2060.16 49.8145 2057.59 51.2613 Q2055.04 52.6791 2051.66 52.6791 Q2046.07 52.6791 2043.18 49.2069 Q2040.29 45.7347 2040.29 39.0507 M2053.68 18.6515 L2053.68 18.6515 Z" fill="#000000" fill-rule="evenodd" fill-opacity="1" /><path clip-path="url(#clip360)" d="M2091.18 6.87496 Q2087.31 13.53 2085.42 20.0404 Q2083.54 26.5508 2083.54 33.2348 Q2083.54 39.9188 2085.42 46.487 Q2087.33 53.0263 2091.18 59.6525 L2086.55 59.6525 Q2082.21 52.8527 2080.04 46.2845 Q2077.9 39.7162 2077.9 33.2348 Q2077.9 26.7823 2080.04 20.2429 Q2082.18 13.7036 2086.55 6.87496 L2091.18 6.87496 Z" fill="#000000" fill-rule="evenodd" fill-opacity="1" /><path clip-path="url(#clip360)" d="M2114.76 12.4884 Q2110.25 12.4884 2107.96 16.9444 Q2105.71 21.3714 2105.71 30.2834 Q2105.71 39.1665 2107.96 43.6225 Q2110.25 48.0495 2114.76 48.0495 Q2119.31 48.0495 2121.56 43.6225 Q2123.85 39.1665 2123.85 30.2834 Q2123.85 21.3714 2121.56 16.9444 Q2119.31 12.4884 2114.76 12.4884 M2114.76 7.85875 Q2122.03 7.85875 2125.85 13.6168 Q2129.69 19.346 2129.69 30.2834 Q2129.69 41.1919 2125.85 46.95 Q2122.03 52.6791 2114.76 52.6791 Q2107.5 52.6791 2103.65 46.95 Q2099.83 41.1919 2099.83 30.2834 Q2099.83 19.346 2103.65 13.6168 Q2107.5 7.85875 2114.76 7.85875 Z" fill="#000000" fill-rule="evenodd" fill-opacity="1" /><path clip-path="url(#clip360)" d="M2138.38 6.87496 L2143 6.87496 Q2147.35 13.7036 2149.49 20.2429 Q2151.66 26.7823 2151.66 33.2348 Q2151.66 39.7162 2149.49 46.2845 Q2147.35 52.8527 2143 59.6525 L2138.38 59.6525 Q2142.22 53.0263 2144.1 46.487 Q2146.01 39.9188 2146.01 33.2348 Q2146.01 26.5508 2144.1 20.0404 Q2142.22 13.53 2138.38 6.87496 Z" fill="#000000" fill-rule="evenodd" fill-opacity="1" /><path clip-path="url(#clip360)" d="M2181.86 24.9304 L2218.96 24.9304 L2218.96 29.7915 L2181.86 29.7915 L2181.86 24.9304 M2181.86 36.7359 L2218.96 36.7359 L2218.96 41.6549 L2181.86 41.6549 L2181.86 36.7359 Z" fill="#000000" fill-rule="evenodd" fill-opacity="1" /><path clip-path="url(#clip360)" d="M2251.42 46.921 L2260.97 46.921 L2260.97 13.964 L2250.59 16.0474 L2250.59 10.7233 L2260.92 8.64 L2266.76 8.64 L2266.76 46.921 L2276.31 46.921 L2276.31 51.84 L2251.42 51.84 L2251.42 46.921 Z" fill="#000000" fill-rule="evenodd" fill-opacity="1" /><path clip-path="url(#clip360)" d="M2288.11 44.4905 L2294.22 44.4905 L2294.22 51.84 L2288.11 51.84 L2288.11 44.4905 Z" fill="#000000" fill-rule="evenodd" fill-opacity="1" /><path clip-path="url(#clip360)" d="M2319.45 12.4884 Q2314.94 12.4884 2312.65 16.9444 Q2310.39 21.3714 2310.39 30.2834 Q2310.39 39.1665 2312.65 43.6225 Q2314.94 48.0495 2319.45 48.0495 Q2323.99 48.0495 2326.25 43.6225 Q2328.54 39.1665 2328.54 30.2834 Q2328.54 21.3714 2326.25 16.9444 Q2323.99 12.4884 2319.45 12.4884 M2319.45 7.85875 Q2326.71 7.85875 2330.53 13.6168 Q2334.38 19.346 2334.38 30.2834 Q2334.38 41.1919 2330.53 46.95 Q2326.71 52.6791 2319.45 52.6791 Q2312.19 52.6791 2308.34 46.95 Q2304.52 41.1919 2304.52 30.2834 Q2304.52 19.346 2308.34 13.6168 Q2312.19 7.85875 2319.45 7.85875 Z" fill="#000000" fill-rule="evenodd" fill-opacity="1" /><path clip-path="url(#clip360)" d="M2348.94 4.44442 L2357.1 15.2661 L2352.67 15.2661 L2343.24 4.44442 L2348.94 4.44442 Z" fill="#000000" fill-rule="evenodd" fill-opacity="1" /><polyline clip-path="url(#clip362)" style="stroke:#009af9; stroke-linecap:butt; stroke-linejoin:round; stroke-width:4; stroke-opacity:1; fill:none" points="
  262.124,1368.36 266.184,1368.36 270.243,1368.45 274.303,1368.52 278.362,1368.69 282.422,1369.01 286.481,1369.35 290.541,1369.61 294.6,1369.96 298.66,1370.38 
  302.719,1370.82 306.779,1371.24 310.838,1371.7 314.898,1372.13 318.957,1372.56 323.016,1373 327.076,1373.43 331.135,1373.82 335.195,1374.19 339.254,1374.52 
  343.314,1374.97 347.373,1375.4 351.433,1375.83 355.492,1376.19 359.552,1376.51 363.611,1376.78 367.671,1377.07 371.73,1377.38 375.79,1377.79 379.849,1378.23 
  383.909,1378.57 387.968,1378.91 392.028,1379.24 396.087,1379.66 400.147,1380.05 404.206,1380.42 408.266,1380.75 412.325,1381.08 416.384,1381.36 420.444,1381.62 
  424.503,1381.93 428.563,1382.3 432.622,1382.66 436.682,1383.01 440.741,1383.39 444.801,1383.68 448.86,1384 452.92,1384.26 456.979,1384.49 461.039,1384.72 
  465.098,1384.91 469.158,1385.05 473.217,1385.16 477.277,1385.3 481.336,1385.48 485.396,1385.55 489.455,1385.57 493.515,1385.63 497.574,1385.69 501.634,1385.79 
  505.693,1385.89 509.753,1385.91 513.812,1385.87 517.871,1385.81 521.931,1385.75 525.99,1385.7 530.05,1385.56 534.109,1385.38 538.169,1385.2 542.228,1384.94 
  546.288,1384.7 550.347,1384.44 554.407,1384.17 558.466,1383.82 562.526,1383.51 566.585,1383.25 570.645,1382.96 574.704,1382.65 578.764,1382.33 582.823,1382.07 
  586.883,1381.79 590.942,1381.56 595.002,1381.41 599.061,1381.29 603.121,1381.05 607.18,1380.86 611.239,1380.7 615.299,1380.57 619.358,1380.41 623.418,1380.36 
  627.477,1380.41 631.537,1380.39 635.596,1380.26 639.656,1380.15 643.715,1380.08 647.775,1380.08 651.834,1380.02 655.894,1379.89 659.953,1379.68 664.013,1379.4 
  668.072,1379.14 672.132,1378.86 676.191,1378.56 680.251,1378.32 684.31,1377.91 688.37,1377.62 692.429,1377.3 696.489,1376.99 700.548,1376.71 704.607,1376.44 
  708.667,1376.21 712.726,1375.82 716.786,1375.57 720.845,1375.32 724.905,1375.02 728.964,1374.76 733.024,1374.58 737.083,1374.3 741.143,1374.08 745.202,1373.79 
  749.262,1373.58 753.321,1373.43 757.381,1373.37 761.44,1373.43 765.5,1373.47 769.559,1373.41 773.619,1373.26 777.678,1372.93 781.738,1372.55 785.797,1372.2 
  789.857,1372 793.916,1371.7 797.975,1371.46 802.035,1371.16 806.094,1370.79 810.154,1370.53 814.213,1370.17 818.273,1369.77 822.332,1369.46 826.392,1369.09 
  830.451,1368.65 834.511,1368.1 838.57,1367.52 842.63,1366.92 846.689,1366.37 850.749,1365.81 854.808,1365.24 858.868,1364.72 862.927,1364.21 866.987,1363.71 
  871.046,1363.15 875.106,1362.63 879.165,1362.22 883.225,1361.91 887.284,1361.6 891.344,1361.26 895.403,1360.9 899.462,1360.65 903.522,1360.39 907.581,1360.04 
  911.641,1359.53 915.7,1359.07 919.76,1358.61 923.819,1358.17 927.879,1357.84 931.938,1357.6 935.998,1357.29 940.057,1356.93 944.117,1356.5 948.176,1356.04 
  952.236,1355.59 956.295,1355.08 960.355,1354.67 964.414,1354.29 968.474,1353.9 972.533,1353.53 976.593,1353.24 980.652,1353.01 984.712,1352.96 988.771,1352.94 
  992.83,1352.87 996.89,1352.69 1000.95,1352.48 1005.01,1352.32 1009.07,1352.23 1013.13,1352.01 1017.19,1351.83 1021.25,1351.47 1025.31,1351.06 1029.37,1350.68 
  1033.43,1350.13 1037.48,1349.67 1041.54,1349.26 1045.6,1348.7 1049.66,1348.11 1053.72,1347.43 1057.78,1346.72 1061.84,1346.05 1065.9,1345.33 1069.96,1344.55 
  1074.02,1343.93 1078.08,1343.3 1082.14,1342.59 1086.2,1341.97 1090.26,1341.4 1094.32,1340.86 1098.38,1340.29 1102.44,1339.72 1106.5,1339.17 1110.56,1338.64 
  1114.61,1338.1 1118.67,1337.67 1122.73,1337.22 1126.79,1336.71 1130.85,1336.23 1134.91,1335.6 1138.97,1334.85 1143.03,1334.04 1147.09,1333.27 1151.15,1332.54 
  1155.21,1331.75 1159.27,1330.77 1163.33,1329.81 1167.39,1328.92 1171.45,1328.01 1175.51,1327.05 1179.57,1326.16 1183.63,1325.18 1187.69,1324.26 1191.74,1323.17 
  1195.8,1322.07 1199.86,1321 1203.92,1320.06 1207.98,1319.18 1212.04,1318.27 1216.1,1317.51 1220.16,1316.76 1224.22,1316.22 1228.28,1315.51 1232.34,1314.78 
  1236.4,1313.97 1240.46,1313.22 1244.52,1312.3 1248.58,1311.29 1252.64,1310.29 1256.7,1309.31 1260.76,1308.41 1264.82,1307.52 1268.88,1306.66 1272.93,1305.57 
  1276.99,1304.45 1281.05,1303.27 1285.11,1301.97 1289.17,1300.67 1293.23,1299.38 1297.29,1298.15 1301.35,1296.91 1305.41,1295.57 1309.47,1294.09 1313.53,1292.56 
  1317.59,1291 1321.65,1289.44 1325.71,1287.86 1329.77,1286.25 1333.83,1284.63 1337.89,1283.02 1341.95,1281.41 1346.01,1279.78 1350.06,1278.09 1354.12,1276.41 
  1358.18,1274.69 1362.24,1272.96 1366.3,1271.2 1370.36,1269.45 1374.42,1267.71 1378.48,1265.93 1382.54,1264.14 1386.6,1262.3 1390.66,1260.44 1394.72,1258.57 
  1398.78,1256.67 1402.84,1254.89 1406.9,1253.08 1410.96,1251.2 1415.02,1249.46 1419.08,1247.72 1423.14,1245.88 1427.19,1244.21 1431.25,1242.65 1435.31,1241.06 
  1439.37,1239.47 1443.43,1237.94 1447.49,1236.35 1451.55,1234.95 1455.61,1233.23 1459.67,1231.44 1463.73,1229.48 1467.79,1227.65 1471.85,1225.9 1475.91,1224.02 
  1479.97,1222.18 1484.03,1220.29 1488.09,1218.48 1492.15,1216.69 1496.21,1214.84 1500.27,1213 1504.32,1211.26 1508.38,1209.26 1512.44,1207.43 1516.5,1205.74 
  1520.56,1203.61 1524.62,1201.78 1528.68,1200.04 1532.74,1198.23 1536.8,1196.39 1540.86,1194.56 1544.92,1193.22 1548.98,1191.92 1553.04,1190.8 1557.1,1189.72 
  1561.16,1188.4 1565.22,1186.88 1569.28,1185.23 1573.34,1183.66 1577.4,1182.31 1581.45,1180.42 1585.51,1178.32 1589.57,1176.06 1593.63,1173.63 1597.69,1171.31 
  1601.75,1168.87 1605.81,1166.36 1609.87,1163.73 1613.93,1160.89 1617.99,1158.05 1622.05,1155.25 1626.11,1152.57 1630.17,1149.82 1634.23,1146.96 1638.29,1144.11 
  1642.35,1141.15 1646.41,1138.17 1650.47,1135.34 1654.53,1132.41 1658.59,1129.49 1662.64,1126.63 1666.7,1123.81 1670.76,1120.92 1674.82,1117.94 1678.88,1114.92 
  1682.94,1111.65 1687,1108.3 1691.06,1104.91 1695.12,1101.48 1699.18,1098.03 1703.24,1094.67 1707.3,1091.17 1711.36,1087.61 1715.42,1084.13 1719.48,1080.62 
  1723.54,1077.1 1727.6,1073.59 1731.66,1070.08 1735.72,1066.32 1739.77,1062.52 1743.83,1058.82 1747.89,1055.16 1751.95,1051.75 1756.01,1048.06 1760.07,1044.53 
  1764.13,1041 1768.19,1037.36 1772.25,1033.9 1776.31,1030.21 1780.37,1026.51 1784.43,1023.1 1788.49,1019.3 1792.55,1015.26 1796.61,1011.04 1800.67,1006.75 
  1804.73,1002.59 1808.79,998.536 1812.85,994.411 1816.9,990.18 1820.96,986.053 1825.02,982.148 1829.08,978.103 1833.14,973.856 1837.2,969.505 1841.26,965.401 
  1845.32,961.142 1849.38,956.453 1853.44,951.879 1857.5,947.357 1861.56,942.82 1865.62,938.051 1869.68,933.606 1873.74,928.797 1877.8,923.789 1881.86,918.634 
  1885.92,913.39 1889.98,908.164 1894.03,902.846 1898.09,897.447 1902.15,892.01 1906.21,886.602 1910.27,881.081 1914.33,875.557 1918.39,870.107 1922.45,864.68 
  1926.51,859.058 1930.57,853.422 1934.63,848.073 1938.69,842.713 1942.75,837.789 1946.81,832.558 1950.87,827.463 1954.93,822.404 1958.99,817.745 1963.05,812.832 
  1967.11,807.634 1971.16,802.979 1975.22,798.046 1979.28,794.124 1983.34,789.905 1987.4,785.605 1991.46,780.927 1995.52,777.287 1999.58,772.817 2003.64,767.935 
  2007.7,762.992 2011.76,757.957 2015.82,752.604 2019.88,746.878 2023.94,741.251 2028,734.927 2032.06,728.495 2036.12,721.622 2040.18,715.265 2044.24,709.53 
  2048.29,703.525 2052.35,697.162 2056.41,690.71 2060.47,684.195 2064.53,677.358 2068.59,671.238 2072.65,664.564 2076.71,657.921 2080.77,650.988 2084.83,643.383 
  2088.89,635.624 2092.95,627.497 2097.01,619.322 2101.07,611.034 2105.13,602.708 2109.19,594.259 2113.25,585.718 2117.31,577.099 2121.37,568.387 2125.43,559.592 
  2129.48,550.705 2133.54,541.751 2137.6,532.789 2141.66,523.635 2145.72,514.488 2149.78,505.164 2153.84,495.737 2157.9,486.214 2161.96,476.612 2166.02,466.969 
  2170.08,457.174 2174.14,447.273 2178.2,437.273 2182.26,427.852 2186.32,417.845 2190.38,408.724 2194.44,399.319 2198.5,389.544 2202.56,379.463 2206.61,369.986 
  2210.67,359.896 2214.73,349.86 2218.79,340.023 2222.85,329.566 2226.91,318.994 2230.97,308.779 2235.03,298.244 2239.09,287.38 2243.15,276.777 2247.21,266.406 
  2251.27,257.143 2255.33,248.138 2259.39,239.678 2263.45,229.476 2267.51,218.552 2271.57,206.646 2275.63,194.341 2279.69,181.816 2283.74,169.153 2287.8,156.366 
  2291.86,143.465 
  "/>
</svg>
