<?xml version="1.0" encoding="utf-8"?>
<svg xmlns="http://www.w3.org/2000/svg" xmlns:xlink="http://www.w3.org/1999/xlink" width="800" height="600" viewBox="0 0 3200 2400">
<defs>
  <clipPath id="clip950">
    <rect x="0" y="0" width="3200" height="2400"/>
  </clipPath>
</defs>
<path clip-path="url(#clip950)" d="M0 2400 L3200 2400 L3200 0 L0 0  Z" fill="#ffffff" fill-rule="evenodd" fill-opacity="1"/>
<defs>
  <clipPath id="clip951">
    <rect x="640" y="0" width="2241" height="2241"/>
  </clipPath>
</defs>
<path clip-path="url(#clip950)" d="M219.061 2204.92 L3152.76 2204.92 L3152.76 111.592 L219.061 111.592  Z" fill="#eaeaea" fill-rule="evenodd" fill-opacity="1"/>
<defs>
  <clipPath id="clip952">
    <rect x="219" y="111" width="2935" height="2094"/>
  </clipPath>
</defs>
<polyline clip-path="url(#clip952)" style="stroke:#ffffff; stroke-linecap:round; stroke-linejoin:round; stroke-width:4; stroke-opacity:1; fill:none" points="302.09,2204.92 302.09,111.592 "/>
<polyline clip-path="url(#clip952)" style="stroke:#ffffff; stroke-linecap:round; stroke-linejoin:round; stroke-width:4; stroke-opacity:1; fill:none" points="855.617,2204.92 855.617,111.592 "/>
<polyline clip-path="url(#clip952)" style="stroke:#ffffff; stroke-linecap:round; stroke-linejoin:round; stroke-width:4; stroke-opacity:1; fill:none" points="1409.14,2204.92 1409.14,111.592 "/>
<polyline clip-path="url(#clip952)" style="stroke:#ffffff; stroke-linecap:round; stroke-linejoin:round; stroke-width:4; stroke-opacity:1; fill:none" points="1962.67,2204.92 1962.67,111.592 "/>
<polyline clip-path="url(#clip952)" style="stroke:#ffffff; stroke-linecap:round; stroke-linejoin:round; stroke-width:4; stroke-opacity:1; fill:none" points="2516.2,2204.92 2516.2,111.592 "/>
<polyline clip-path="url(#clip952)" style="stroke:#ffffff; stroke-linecap:round; stroke-linejoin:round; stroke-width:4; stroke-opacity:1; fill:none" points="3069.73,2204.92 3069.73,111.592 "/>
<polyline clip-path="url(#clip952)" style="stroke:#ffffff; stroke-linecap:round; stroke-linejoin:round; stroke-width:2; stroke-opacity:1; fill:none" points="578.854,2204.92 578.854,111.592 "/>
<polyline clip-path="url(#clip952)" style="stroke:#ffffff; stroke-linecap:round; stroke-linejoin:round; stroke-width:2; stroke-opacity:1; fill:none" points="1132.38,2204.92 1132.38,111.592 "/>
<polyline clip-path="url(#clip952)" style="stroke:#ffffff; stroke-linecap:round; stroke-linejoin:round; stroke-width:2; stroke-opacity:1; fill:none" points="1685.91,2204.92 1685.91,111.592 "/>
<polyline clip-path="url(#clip952)" style="stroke:#ffffff; stroke-linecap:round; stroke-linejoin:round; stroke-width:2; stroke-opacity:1; fill:none" points="2239.44,2204.92 2239.44,111.592 "/>
<polyline clip-path="url(#clip952)" style="stroke:#ffffff; stroke-linecap:round; stroke-linejoin:round; stroke-width:2; stroke-opacity:1; fill:none" points="2792.96,2204.92 2792.96,111.592 "/>
<polyline clip-path="url(#clip950)" style="stroke:#ffffff; stroke-linecap:round; stroke-linejoin:round; stroke-width:4; stroke-opacity:1; fill:none" points="219.061,2204.92 3152.76,2204.92 "/>
<polyline clip-path="url(#clip950)" style="stroke:#333333; stroke-linecap:round; stroke-linejoin:round; stroke-width:4; stroke-opacity:1; fill:none" points="302.09,2204.92 302.09,2223.82 "/>
<polyline clip-path="url(#clip950)" style="stroke:#333333; stroke-linecap:round; stroke-linejoin:round; stroke-width:4; stroke-opacity:1; fill:none" points="855.617,2204.92 855.617,2223.82 "/>
<polyline clip-path="url(#clip950)" style="stroke:#333333; stroke-linecap:round; stroke-linejoin:round; stroke-width:4; stroke-opacity:1; fill:none" points="1409.14,2204.92 1409.14,2223.82 "/>
<polyline clip-path="url(#clip950)" style="stroke:#333333; stroke-linecap:round; stroke-linejoin:round; stroke-width:4; stroke-opacity:1; fill:none" points="1962.67,2204.92 1962.67,2223.82 "/>
<polyline clip-path="url(#clip950)" style="stroke:#333333; stroke-linecap:round; stroke-linejoin:round; stroke-width:4; stroke-opacity:1; fill:none" points="2516.2,2204.92 2516.2,2223.82 "/>
<polyline clip-path="url(#clip950)" style="stroke:#333333; stroke-linecap:round; stroke-linejoin:round; stroke-width:4; stroke-opacity:1; fill:none" points="3069.73,2204.92 3069.73,2223.82 "/>
<polyline clip-path="url(#clip950)" style="stroke:#333333; stroke-linecap:round; stroke-linejoin:round; stroke-width:4; stroke-opacity:1; fill:none" points="578.854,2204.92 578.854,2214.37 "/>
<polyline clip-path="url(#clip950)" style="stroke:#333333; stroke-linecap:round; stroke-linejoin:round; stroke-width:4; stroke-opacity:1; fill:none" points="1132.38,2204.92 1132.38,2214.37 "/>
<polyline clip-path="url(#clip950)" style="stroke:#333333; stroke-linecap:round; stroke-linejoin:round; stroke-width:4; stroke-opacity:1; fill:none" points="1685.91,2204.92 1685.91,2214.37 "/>
<polyline clip-path="url(#clip950)" style="stroke:#333333; stroke-linecap:round; stroke-linejoin:round; stroke-width:4; stroke-opacity:1; fill:none" points="2239.44,2204.92 2239.44,2214.37 "/>
<polyline clip-path="url(#clip950)" style="stroke:#333333; stroke-linecap:round; stroke-linejoin:round; stroke-width:4; stroke-opacity:1; fill:none" points="2792.96,2204.92 2792.96,2214.37 "/>
<path clip-path="url(#clip950)" d="M302.09 2255.04 Q298.479 2255.04 296.65 2258.6 Q294.845 2262.14 294.845 2269.27 Q294.845 2276.38 296.65 2279.95 Q298.479 2283.49 302.09 2283.49 Q305.724 2283.49 307.53 2279.95 Q309.359 2276.38 309.359 2269.27 Q309.359 2262.14 307.53 2258.6 Q305.724 2255.04 302.09 2255.04 M302.09 2251.33 Q307.9 2251.33 310.956 2255.94 Q314.034 2260.52 314.034 2269.27 Q314.034 2278 310.956 2282.61 Q307.9 2287.19 302.09 2287.19 Q296.28 2287.19 293.201 2282.61 Q290.146 2278 290.146 2269.27 Q290.146 2260.52 293.201 2255.94 Q296.28 2251.33 302.09 2251.33 Z" fill="#4c4c4c" fill-rule="nonzero" fill-opacity="1" /><path clip-path="url(#clip950)" d="M845.999 2282.58 L853.638 2282.58 L853.638 2256.22 L845.328 2257.89 L845.328 2253.63 L853.592 2251.96 L858.268 2251.96 L858.268 2282.58 L865.907 2282.58 L865.907 2286.52 L845.999 2286.52 L845.999 2282.58 Z" fill="#4c4c4c" fill-rule="nonzero" fill-opacity="1" /><path clip-path="url(#clip950)" d="M1403.8 2282.58 L1420.12 2282.58 L1420.12 2286.52 L1398.17 2286.52 L1398.17 2282.58 Q1400.83 2279.83 1405.42 2275.2 Q1410.02 2270.55 1411.2 2269.21 Q1413.45 2266.68 1414.33 2264.95 Q1415.23 2263.19 1415.23 2261.5 Q1415.23 2258.74 1413.29 2257.01 Q1411.37 2255.27 1408.27 2255.27 Q1406.07 2255.27 1403.61 2256.03 Q1401.18 2256.8 1398.4 2258.35 L1398.4 2253.63 Q1401.23 2252.49 1403.68 2251.91 Q1406.14 2251.33 1408.17 2251.33 Q1413.54 2251.33 1416.74 2254.02 Q1419.93 2256.71 1419.93 2261.2 Q1419.93 2263.33 1419.12 2265.25 Q1418.33 2267.14 1416.23 2269.74 Q1415.65 2270.41 1412.55 2273.63 Q1409.45 2276.82 1403.8 2282.58 Z" fill="#4c4c4c" fill-rule="nonzero" fill-opacity="1" /><path clip-path="url(#clip950)" d="M1966.92 2267.89 Q1970.28 2268.6 1972.15 2270.87 Q1974.05 2273.14 1974.05 2276.47 Q1974.05 2281.59 1970.53 2284.39 Q1967.01 2287.19 1960.53 2287.19 Q1958.36 2287.19 1956.04 2286.75 Q1953.75 2286.33 1951.29 2285.48 L1951.29 2280.96 Q1953.24 2282.1 1955.55 2282.68 Q1957.87 2283.26 1960.39 2283.26 Q1964.79 2283.26 1967.08 2281.52 Q1969.4 2279.78 1969.4 2276.47 Q1969.4 2273.42 1967.24 2271.71 Q1965.11 2269.97 1961.29 2269.97 L1957.27 2269.97 L1957.27 2266.13 L1961.48 2266.13 Q1964.93 2266.13 1966.76 2264.76 Q1968.59 2263.37 1968.59 2260.78 Q1968.59 2258.12 1966.69 2256.71 Q1964.81 2255.27 1961.29 2255.27 Q1959.37 2255.27 1957.17 2255.69 Q1954.98 2256.1 1952.34 2256.98 L1952.34 2252.82 Q1955 2252.08 1957.31 2251.71 Q1959.65 2251.33 1961.71 2251.33 Q1967.04 2251.33 1970.14 2253.77 Q1973.24 2256.17 1973.24 2260.29 Q1973.24 2263.16 1971.6 2265.15 Q1969.95 2267.12 1966.92 2267.89 Z" fill="#4c4c4c" fill-rule="nonzero" fill-opacity="1" /><path clip-path="url(#clip950)" d="M2519.21 2256.03 L2507.4 2274.48 L2519.21 2274.48 L2519.21 2256.03 M2517.98 2251.96 L2523.86 2251.96 L2523.86 2274.48 L2528.79 2274.48 L2528.79 2278.37 L2523.86 2278.37 L2523.86 2286.52 L2519.21 2286.52 L2519.21 2278.37 L2503.61 2278.37 L2503.61 2273.86 L2517.98 2251.96 Z" fill="#4c4c4c" fill-rule="nonzero" fill-opacity="1" /><path clip-path="url(#clip950)" d="M3060 2251.96 L3078.36 2251.96 L3078.36 2255.9 L3064.29 2255.9 L3064.29 2264.37 Q3065.31 2264.02 3066.32 2263.86 Q3067.34 2263.67 3068.36 2263.67 Q3074.15 2263.67 3077.53 2266.84 Q3080.91 2270.02 3080.91 2275.43 Q3080.91 2281.01 3077.44 2284.11 Q3073.96 2287.19 3067.64 2287.19 Q3065.47 2287.19 3063.2 2286.82 Q3060.95 2286.45 3058.55 2285.71 L3058.55 2281.01 Q3060.63 2282.14 3062.85 2282.7 Q3065.07 2283.26 3067.55 2283.26 Q3071.56 2283.26 3073.89 2281.15 Q3076.23 2279.04 3076.23 2275.43 Q3076.23 2271.82 3073.89 2269.71 Q3071.56 2267.61 3067.55 2267.61 Q3065.68 2267.61 3063.8 2268.02 Q3061.95 2268.44 3060 2269.32 L3060 2251.96 Z" fill="#4c4c4c" fill-rule="nonzero" fill-opacity="1" /><path clip-path="url(#clip950)" d="M1684.97 2316.01 L1684.97 2326.14 L1697.03 2326.14 L1697.03 2330.69 L1684.97 2330.69 L1684.97 2350.04 Q1684.97 2354.4 1686.15 2355.64 Q1687.36 2356.88 1691.02 2356.88 L1697.03 2356.88 L1697.03 2361.78 L1691.02 2361.78 Q1684.24 2361.78 1681.66 2359.27 Q1679.08 2356.72 1679.08 2350.04 L1679.08 2330.69 L1674.78 2330.69 L1674.78 2326.14 L1679.08 2326.14 L1679.08 2316.01 L1684.97 2316.01 Z" fill="#000000" fill-rule="nonzero" fill-opacity="1" /><polyline clip-path="url(#clip952)" style="stroke:#ffffff; stroke-linecap:round; stroke-linejoin:round; stroke-width:4; stroke-opacity:1; fill:none" points="219.061,2171.28 3152.76,2171.28 "/>
<polyline clip-path="url(#clip952)" style="stroke:#ffffff; stroke-linecap:round; stroke-linejoin:round; stroke-width:4; stroke-opacity:1; fill:none" points="219.061,1659.25 3152.76,1659.25 "/>
<polyline clip-path="url(#clip952)" style="stroke:#ffffff; stroke-linecap:round; stroke-linejoin:round; stroke-width:4; stroke-opacity:1; fill:none" points="219.061,1147.22 3152.76,1147.22 "/>
<polyline clip-path="url(#clip952)" style="stroke:#ffffff; stroke-linecap:round; stroke-linejoin:round; stroke-width:4; stroke-opacity:1; fill:none" points="219.061,635.194 3152.76,635.194 "/>
<polyline clip-path="url(#clip952)" style="stroke:#ffffff; stroke-linecap:round; stroke-linejoin:round; stroke-width:4; stroke-opacity:1; fill:none" points="219.061,123.167 3152.76,123.167 "/>
<polyline clip-path="url(#clip952)" style="stroke:#ffffff; stroke-linecap:round; stroke-linejoin:round; stroke-width:2; stroke-opacity:1; fill:none" points="219.061,1915.26 3152.76,1915.26 "/>
<polyline clip-path="url(#clip952)" style="stroke:#ffffff; stroke-linecap:round; stroke-linejoin:round; stroke-width:2; stroke-opacity:1; fill:none" points="219.061,1403.24 3152.76,1403.24 "/>
<polyline clip-path="url(#clip952)" style="stroke:#ffffff; stroke-linecap:round; stroke-linejoin:round; stroke-width:2; stroke-opacity:1; fill:none" points="219.061,891.208 3152.76,891.208 "/>
<polyline clip-path="url(#clip952)" style="stroke:#ffffff; stroke-linecap:round; stroke-linejoin:round; stroke-width:2; stroke-opacity:1; fill:none" points="219.061,379.18 3152.76,379.18 "/>
<polyline clip-path="url(#clip950)" style="stroke:#ffffff; stroke-linecap:round; stroke-linejoin:round; stroke-width:4; stroke-opacity:1; fill:none" points="219.061,2204.92 219.061,111.592 "/>
<polyline clip-path="url(#clip950)" style="stroke:#333333; stroke-linecap:round; stroke-linejoin:round; stroke-width:4; stroke-opacity:1; fill:none" points="219.061,2171.28 200.163,2171.28 "/>
<polyline clip-path="url(#clip950)" style="stroke:#333333; stroke-linecap:round; stroke-linejoin:round; stroke-width:4; stroke-opacity:1; fill:none" points="219.061,1659.25 200.163,1659.25 "/>
<polyline clip-path="url(#clip950)" style="stroke:#333333; stroke-linecap:round; stroke-linejoin:round; stroke-width:4; stroke-opacity:1; fill:none" points="219.061,1147.22 200.163,1147.22 "/>
<polyline clip-path="url(#clip950)" style="stroke:#333333; stroke-linecap:round; stroke-linejoin:round; stroke-width:4; stroke-opacity:1; fill:none" points="219.061,635.194 200.163,635.194 "/>
<polyline clip-path="url(#clip950)" style="stroke:#333333; stroke-linecap:round; stroke-linejoin:round; stroke-width:4; stroke-opacity:1; fill:none" points="219.061,123.167 200.163,123.167 "/>
<polyline clip-path="url(#clip950)" style="stroke:#333333; stroke-linecap:round; stroke-linejoin:round; stroke-width:4; stroke-opacity:1; fill:none" points="219.061,1915.26 209.612,1915.26 "/>
<polyline clip-path="url(#clip950)" style="stroke:#333333; stroke-linecap:round; stroke-linejoin:round; stroke-width:4; stroke-opacity:1; fill:none" points="219.061,1403.24 209.612,1403.24 "/>
<polyline clip-path="url(#clip950)" style="stroke:#333333; stroke-linecap:round; stroke-linejoin:round; stroke-width:4; stroke-opacity:1; fill:none" points="219.061,891.208 209.612,891.208 "/>
<polyline clip-path="url(#clip950)" style="stroke:#333333; stroke-linecap:round; stroke-linejoin:round; stroke-width:4; stroke-opacity:1; fill:none" points="219.061,379.18 209.612,379.18 "/>
<path clip-path="url(#clip950)" d="M135.117 2157.07 Q131.506 2157.07 129.677 2160.64 Q127.871 2164.18 127.871 2171.31 Q127.871 2178.42 129.677 2181.98 Q131.506 2185.52 135.117 2185.52 Q138.751 2185.52 140.556 2181.98 Q142.385 2178.42 142.385 2171.31 Q142.385 2164.18 140.556 2160.64 Q138.751 2157.07 135.117 2157.07 M135.117 2153.37 Q140.927 2153.37 143.982 2157.98 Q147.061 2162.56 147.061 2171.31 Q147.061 2180.04 143.982 2184.64 Q140.927 2189.23 135.117 2189.23 Q129.306 2189.23 126.228 2184.64 Q123.172 2180.04 123.172 2171.31 Q123.172 2162.56 126.228 2157.98 Q129.306 2153.37 135.117 2153.37 Z" fill="#4c4c4c" fill-rule="nonzero" fill-opacity="1" /><path clip-path="url(#clip950)" d="M98.9825 1672.59 L115.302 1672.59 L115.302 1676.53 L93.3576 1676.53 L93.3576 1672.59 Q96.0196 1669.84 100.603 1665.21 Q105.209 1660.56 106.39 1659.21 Q108.635 1656.69 109.515 1654.95 Q110.418 1653.2 110.418 1651.51 Q110.418 1648.75 108.473 1647.01 Q106.552 1645.28 103.45 1645.28 Q101.251 1645.28 98.7973 1646.04 Q96.3668 1646.81 93.589 1648.36 L93.589 1643.64 Q96.4131 1642.5 98.8668 1641.92 Q101.32 1641.34 103.358 1641.34 Q108.728 1641.34 111.922 1644.03 Q115.117 1646.71 115.117 1651.2 Q115.117 1653.33 114.307 1655.26 Q113.519 1657.15 111.413 1659.75 Q110.834 1660.42 107.732 1663.64 Q104.631 1666.83 98.9825 1672.59 Z" fill="#4c4c4c" fill-rule="nonzero" fill-opacity="1" /><path clip-path="url(#clip950)" d="M135.117 1645.05 Q131.506 1645.05 129.677 1648.61 Q127.871 1652.15 127.871 1659.28 Q127.871 1666.39 129.677 1669.95 Q131.506 1673.5 135.117 1673.5 Q138.751 1673.5 140.556 1669.95 Q142.385 1666.39 142.385 1659.28 Q142.385 1652.15 140.556 1648.61 Q138.751 1645.05 135.117 1645.05 M135.117 1641.34 Q140.927 1641.34 143.982 1645.95 Q147.061 1650.53 147.061 1659.28 Q147.061 1668.01 143.982 1672.62 Q140.927 1677.2 135.117 1677.2 Q129.306 1677.2 126.228 1672.62 Q123.172 1668.01 123.172 1659.28 Q123.172 1650.53 126.228 1645.95 Q129.306 1641.34 135.117 1641.34 Z" fill="#4c4c4c" fill-rule="nonzero" fill-opacity="1" /><path clip-path="url(#clip950)" d="M107.802 1134.02 L95.9964 1152.46 L107.802 1152.46 L107.802 1134.02 M106.575 1129.94 L112.455 1129.94 L112.455 1152.46 L117.385 1152.46 L117.385 1156.35 L112.455 1156.35 L112.455 1164.5 L107.802 1164.5 L107.802 1156.35 L92.2002 1156.35 L92.2002 1151.84 L106.575 1129.94 Z" fill="#4c4c4c" fill-rule="nonzero" fill-opacity="1" /><path clip-path="url(#clip950)" d="M135.117 1133.02 Q131.506 1133.02 129.677 1136.58 Q127.871 1140.13 127.871 1147.26 Q127.871 1154.36 129.677 1157.93 Q131.506 1161.47 135.117 1161.47 Q138.751 1161.47 140.556 1157.93 Q142.385 1154.36 142.385 1147.26 Q142.385 1140.13 140.556 1136.58 Q138.751 1133.02 135.117 1133.02 M135.117 1129.32 Q140.927 1129.32 143.982 1133.92 Q147.061 1138.51 147.061 1147.26 Q147.061 1155.98 143.982 1160.59 Q140.927 1165.17 135.117 1165.17 Q129.306 1165.17 126.228 1160.59 Q123.172 1155.98 123.172 1147.26 Q123.172 1138.51 126.228 1133.92 Q129.306 1129.32 135.117 1129.32 Z" fill="#4c4c4c" fill-rule="nonzero" fill-opacity="1" /><path clip-path="url(#clip950)" d="M105.533 633.331 Q102.385 633.331 100.533 635.483 Q98.7048 637.636 98.7048 641.386 Q98.7048 645.113 100.533 647.289 Q102.385 649.442 105.533 649.442 Q108.682 649.442 110.51 647.289 Q112.362 645.113 112.362 641.386 Q112.362 637.636 110.51 635.483 Q108.682 633.331 105.533 633.331 M114.816 618.678 L114.816 622.937 Q113.057 622.104 111.251 621.664 Q109.469 621.224 107.709 621.224 Q103.08 621.224 100.626 624.349 Q98.1955 627.474 97.8483 633.794 Q99.214 631.78 101.274 630.715 Q103.334 629.627 105.811 629.627 Q111.02 629.627 114.029 632.798 Q117.061 635.946 117.061 641.386 Q117.061 646.71 113.913 649.928 Q110.765 653.145 105.533 653.145 Q99.5381 653.145 96.3668 648.562 Q93.1955 643.955 93.1955 635.229 Q93.1955 627.034 97.0844 622.173 Q100.973 617.289 107.524 617.289 Q109.283 617.289 111.066 617.636 Q112.871 617.983 114.816 618.678 Z" fill="#4c4c4c" fill-rule="nonzero" fill-opacity="1" /><path clip-path="url(#clip950)" d="M135.117 620.993 Q131.506 620.993 129.677 624.557 Q127.871 628.099 127.871 635.229 Q127.871 642.335 129.677 645.9 Q131.506 649.442 135.117 649.442 Q138.751 649.442 140.556 645.9 Q142.385 642.335 142.385 635.229 Q142.385 628.099 140.556 624.557 Q138.751 620.993 135.117 620.993 M135.117 617.289 Q140.927 617.289 143.982 621.895 Q147.061 626.479 147.061 635.229 Q147.061 643.955 143.982 648.562 Q140.927 653.145 135.117 653.145 Q129.306 653.145 126.228 648.562 Q123.172 643.955 123.172 635.229 Q123.172 626.479 126.228 621.895 Q129.306 617.289 135.117 617.289 Z" fill="#4c4c4c" fill-rule="nonzero" fill-opacity="1" /><path clip-path="url(#clip950)" d="M104.955 124.035 Q101.621 124.035 99.7001 125.817 Q97.802 127.599 97.802 130.724 Q97.802 133.849 99.7001 135.632 Q101.621 137.414 104.955 137.414 Q108.288 137.414 110.209 135.632 Q112.131 133.826 112.131 130.724 Q112.131 127.599 110.209 125.817 Q108.311 124.035 104.955 124.035 M100.279 122.044 Q97.2696 121.303 95.5798 119.243 Q93.9131 117.183 93.9131 114.22 Q93.9131 110.076 96.8529 107.669 Q99.8159 105.262 104.955 105.262 Q110.117 105.262 113.057 107.669 Q115.996 110.076 115.996 114.22 Q115.996 117.183 114.307 119.243 Q112.64 121.303 109.654 122.044 Q113.033 122.831 114.908 125.123 Q116.807 127.414 116.807 130.724 Q116.807 135.748 113.728 138.433 Q110.672 141.118 104.955 141.118 Q99.2372 141.118 96.1585 138.433 Q93.1029 135.748 93.1029 130.724 Q93.1029 127.414 95.0011 125.123 Q96.8992 122.831 100.279 122.044 M98.5659 114.66 Q98.5659 117.345 100.233 118.849 Q101.922 120.354 104.955 120.354 Q107.964 120.354 109.654 118.849 Q111.367 117.345 111.367 114.66 Q111.367 111.975 109.654 110.47 Q107.964 108.965 104.955 108.965 Q101.922 108.965 100.233 110.47 Q98.5659 111.975 98.5659 114.66 Z" fill="#4c4c4c" fill-rule="nonzero" fill-opacity="1" /><path clip-path="url(#clip950)" d="M135.117 108.965 Q131.506 108.965 129.677 112.53 Q127.871 116.072 127.871 123.201 Q127.871 130.308 129.677 133.873 Q131.506 137.414 135.117 137.414 Q138.751 137.414 140.556 133.873 Q142.385 130.308 142.385 123.201 Q142.385 116.072 140.556 112.53 Q138.751 108.965 135.117 108.965 M135.117 105.262 Q140.927 105.262 143.982 109.868 Q147.061 114.451 147.061 123.201 Q147.061 131.928 143.982 136.535 Q140.927 141.118 135.117 141.118 Q129.306 141.118 126.228 136.535 Q123.172 131.928 123.172 123.201 Q123.172 114.451 126.228 109.868 Q129.306 105.262 135.117 105.262 Z" fill="#4c4c4c" fill-rule="nonzero" fill-opacity="1" /><path clip-path="url(#clip950)" d="M18.2962 1141.64 L35.6428 1154.53 L53.9442 1140.97 L53.9442 1147.88 L39.9396 1158.26 L53.9442 1168.63 L53.9442 1175.54 L35.2926 1161.69 L18.2962 1174.36 L18.2962 1167.45 L30.9958 1158 L18.2962 1148.55 L18.2962 1141.64 Z" fill="#000000" fill-rule="nonzero" fill-opacity="1" /><path clip-path="url(#clip950)" d="M628.839 20.3876 L628.839 25.4223 Q626.583 24.2649 624.152 23.6862 Q621.721 23.1075 619.117 23.1075 Q615.153 23.1075 613.157 24.3228 Q611.189 25.5381 611.189 27.9686 Q611.189 29.8204 612.607 30.891 Q614.025 31.9327 618.307 32.8876 L620.13 33.2926 Q625.801 34.5079 628.174 36.7359 Q630.576 38.935 630.576 42.8991 Q630.576 47.4129 626.988 50.046 Q623.429 52.6791 617.179 52.6791 Q614.574 52.6791 611.739 52.1583 Q608.932 51.6664 605.807 50.6537 L605.807 45.156 Q608.759 46.6896 611.623 47.4708 Q614.488 48.2231 617.294 48.2231 Q621.056 48.2231 623.081 46.95 Q625.107 45.6479 625.107 43.3042 Q625.107 41.134 623.631 39.9766 Q622.184 38.8192 617.237 37.7486 L615.385 37.3146 Q610.437 36.273 608.238 34.1318 Q606.039 31.9616 606.039 28.2001 Q606.039 23.6283 609.279 21.1399 Q612.52 18.6515 618.481 18.6515 Q621.432 18.6515 624.036 19.0855 Q626.64 19.5196 628.839 20.3876 Z" fill="#000000" fill-rule="nonzero" fill-opacity="1" /><path clip-path="url(#clip950)" d="M651.611 23.1654 Q647.329 23.1654 644.841 26.5218 Q642.352 29.8494 642.352 35.6653 Q642.352 41.4813 644.812 44.8377 Q647.3 48.1653 651.611 48.1653 Q655.865 48.1653 658.353 44.8088 Q660.842 41.4523 660.842 35.6653 Q660.842 29.9072 658.353 26.5508 Q655.865 23.1654 651.611 23.1654 M651.611 18.6515 Q658.556 18.6515 662.52 23.1654 Q666.484 27.6792 666.484 35.6653 Q666.484 43.6225 662.52 48.1653 Q658.556 52.6791 651.611 52.6791 Q644.638 52.6791 640.674 48.1653 Q636.739 43.6225 636.739 35.6653 Q636.739 27.6792 640.674 23.1654 Q644.638 18.6515 651.611 18.6515 Z" fill="#000000" fill-rule="nonzero" fill-opacity="1" /><path clip-path="url(#clip950)" d="M675.309 6.81709 L680.633 6.81709 L680.633 51.84 L675.309 51.84 L675.309 6.81709 Z" fill="#000000" fill-rule="nonzero" fill-opacity="1" /><path clip-path="url(#clip950)" d="M691.223 39.0507 L691.223 19.4328 L696.547 19.4328 L696.547 38.8482 Q696.547 43.4488 698.341 45.7636 Q700.135 48.0495 703.723 48.0495 Q708.035 48.0495 710.523 45.3007 Q713.04 42.5519 713.04 37.8065 L713.04 19.4328 L718.364 19.4328 L718.364 51.84 L713.04 51.84 L713.04 46.8632 Q711.102 49.8145 708.527 51.2613 Q705.98 52.6791 702.595 52.6791 Q697.01 52.6791 694.117 49.2069 Q691.223 45.7347 691.223 39.0507 M704.62 18.6515 L704.62 18.6515 Z" fill="#000000" fill-rule="nonzero" fill-opacity="1" /><path clip-path="url(#clip950)" d="M752.652 20.677 L752.652 25.6538 Q750.396 24.4096 748.11 23.802 Q745.853 23.1654 743.538 23.1654 Q738.359 23.1654 735.494 26.464 Q732.629 29.7336 732.629 35.6653 Q732.629 41.597 735.494 44.8956 Q738.359 48.1653 743.538 48.1653 Q745.853 48.1653 748.11 47.5576 Q750.396 46.921 752.652 45.6768 L752.652 50.5958 Q750.424 51.6375 748.023 52.1583 Q745.65 52.6791 742.959 52.6791 Q735.639 52.6791 731.327 48.0784 Q727.016 43.4778 727.016 35.6653 Q727.016 27.7371 731.356 23.1943 Q735.725 18.6515 743.306 18.6515 Q745.766 18.6515 748.11 19.1724 Q750.453 19.6642 752.652 20.677 M745.129 51.84 Q746.721 53.634 747.502 55.1386 Q748.283 56.6722 748.283 58.061 Q748.283 60.6362 746.547 61.9383 Q744.811 63.2693 741.397 63.2693 Q740.066 63.2693 738.793 63.0957 Q737.548 62.9221 736.304 62.5749 L736.304 58.7844 Q737.288 59.2763 738.359 59.4788 Q739.429 59.7103 740.789 59.7103 Q742.496 59.7103 743.364 59.0159 Q744.232 58.3214 744.232 56.9904 Q744.232 56.1224 743.596 54.8492 Q742.988 53.605 741.686 51.84 L745.129 51.84 Z" fill="#000000" fill-rule="nonzero" fill-opacity="1" /><path clip-path="url(#clip950)" d="M776.64 35.5496 Q770.187 35.5496 767.699 37.0253 Q765.21 38.501 765.21 42.06 Q765.21 44.8956 767.062 46.5738 Q768.943 48.2231 772.155 48.2231 Q776.582 48.2231 779.244 45.0981 Q781.935 41.9442 781.935 36.7359 L781.935 35.5496 L776.64 35.5496 M787.259 33.3505 L787.259 51.84 L781.935 51.84 L781.935 46.921 Q780.112 49.8724 777.392 51.2902 Q774.672 52.6791 770.737 52.6791 Q765.76 52.6791 762.809 49.9014 Q759.886 47.0947 759.886 42.4072 Q759.886 36.9385 763.532 34.1607 Q767.207 31.3829 774.469 31.3829 L781.935 31.3829 L781.935 30.8621 Q781.935 27.1874 779.504 25.1908 Q777.103 23.1654 772.733 23.1654 Q769.956 23.1654 767.323 23.8309 Q764.689 24.4964 762.259 25.8274 L762.259 20.9085 Q765.181 19.78 767.93 19.2302 Q770.679 18.6515 773.283 18.6515 Q780.314 18.6515 783.787 22.2973 Q787.259 25.9431 787.259 33.3505 M773.399 12.199 L771.75 10.6076 Q771.113 10.0289 770.621 9.76847 Q770.158 9.47912 769.782 9.47912 Q768.682 9.47912 768.162 10.5497 Q767.641 11.5914 767.583 13.964 L763.966 13.964 Q764.024 10.0578 765.5 7.94556 Q766.975 5.80437 769.608 5.80437 Q770.708 5.80437 771.634 6.20946 Q772.56 6.61455 773.63 7.5694 L775.28 9.16083 Q775.916 9.73953 776.379 10.0289 Q776.871 10.2893 777.247 10.2893 Q778.347 10.2893 778.868 9.24764 Q779.388 8.17704 779.446 5.80437 L783.063 5.80437 Q783.005 9.7106 781.53 11.8518 Q780.054 13.964 777.421 13.964 Q776.321 13.964 775.395 13.559 Q774.469 13.1539 773.399 12.199 Z" fill="#000000" fill-rule="nonzero" fill-opacity="1" /><path clip-path="url(#clip950)" d="M810.783 23.1654 Q806.501 23.1654 804.012 26.5218 Q801.524 29.8494 801.524 35.6653 Q801.524 41.4813 803.983 44.8377 Q806.472 48.1653 810.783 48.1653 Q815.036 48.1653 817.525 44.8088 Q820.013 41.4523 820.013 35.6653 Q820.013 29.9072 817.525 26.5508 Q815.036 23.1654 810.783 23.1654 M810.783 18.6515 Q817.727 18.6515 821.691 23.1654 Q825.656 27.6792 825.656 35.6653 Q825.656 43.6225 821.691 48.1653 Q817.727 52.6791 810.783 52.6791 Q803.81 52.6791 799.845 48.1653 Q795.91 43.6225 795.91 35.6653 Q795.91 27.6792 799.845 23.1654 Q803.81 18.6515 810.783 18.6515 Z" fill="#000000" fill-rule="nonzero" fill-opacity="1" /><path clip-path="url(#clip950)" d="M874.643 24.3517 L874.643 6.81709 L879.967 6.81709 L879.967 51.84 L874.643 51.84 L874.643 46.9789 Q872.964 49.8724 870.389 51.2902 Q867.843 52.6791 864.255 52.6791 Q858.381 52.6791 854.677 47.9916 Q851.003 43.3042 851.003 35.6653 Q851.003 28.0265 854.677 23.339 Q858.381 18.6515 864.255 18.6515 Q867.843 18.6515 870.389 20.0693 Q872.964 21.4582 874.643 24.3517 M856.5 35.6653 Q856.5 41.5391 858.902 44.8956 Q861.332 48.2231 865.557 48.2231 Q869.781 48.2231 872.212 44.8956 Q874.643 41.5391 874.643 35.6653 Q874.643 29.7915 872.212 26.464 Q869.781 23.1075 865.557 23.1075 Q861.332 23.1075 858.902 26.464 Q856.5 29.7915 856.5 35.6653 Z" fill="#000000" fill-rule="nonzero" fill-opacity="1" /><path clip-path="url(#clip950)" d="M905.661 35.5496 Q899.208 35.5496 896.72 37.0253 Q894.232 38.501 894.232 42.06 Q894.232 44.8956 896.083 46.5738 Q897.964 48.2231 901.176 48.2231 Q905.603 48.2231 908.265 45.0981 Q910.956 41.9442 910.956 36.7359 L910.956 35.5496 L905.661 35.5496 M916.28 33.3505 L916.28 51.84 L910.956 51.84 L910.956 46.921 Q909.133 49.8724 906.413 51.2902 Q903.693 52.6791 899.758 52.6791 Q894.781 52.6791 891.83 49.9014 Q888.908 47.0947 888.908 42.4072 Q888.908 36.9385 892.553 34.1607 Q896.228 31.3829 903.491 31.3829 L910.956 31.3829 L910.956 30.8621 Q910.956 27.1874 908.525 25.1908 Q906.124 23.1654 901.755 23.1654 Q898.977 23.1654 896.344 23.8309 Q893.711 24.4964 891.28 25.8274 L891.28 20.9085 Q894.203 19.78 896.951 19.2302 Q899.7 18.6515 902.304 18.6515 Q909.336 18.6515 912.808 22.2973 Q916.28 25.9431 916.28 33.3505 Z" fill="#000000" fill-rule="nonzero" fill-opacity="1" /><path clip-path="url(#clip950)" d="M973.803 34.3054 L973.803 36.9095 L949.324 36.9095 Q949.671 42.4072 952.622 45.3007 Q955.603 48.1653 960.898 48.1653 Q963.965 48.1653 966.83 47.4129 Q969.723 46.6606 972.559 45.156 L972.559 50.1907 Q969.694 51.406 966.685 52.0425 Q963.676 52.6791 960.58 52.6791 Q952.825 52.6791 948.282 48.1653 Q943.768 43.6514 943.768 35.9547 Q943.768 27.9975 948.051 23.339 Q952.362 18.6515 959.654 18.6515 Q966.193 18.6515 969.983 22.876 Q973.803 27.0716 973.803 34.3054 M968.479 32.7429 Q968.421 28.3737 966.019 25.7695 Q963.647 23.1654 959.712 23.1654 Q955.256 23.1654 952.565 25.6827 Q949.903 28.2001 949.497 32.7718 L968.479 32.7429 Z" fill="#000000" fill-rule="nonzero" fill-opacity="1" /><path clip-path="url(#clip950)" d="M985.724 35.6653 Q985.724 41.5391 988.126 44.8956 Q990.556 48.2231 994.781 48.2231 Q999.005 48.2231 1001.44 44.8956 Q1003.87 41.5391 1003.87 35.6653 Q1003.87 29.7915 1001.44 26.464 Q999.005 23.1075 994.781 23.1075 Q990.556 23.1075 988.126 26.464 Q985.724 29.7915 985.724 35.6653 M1003.87 46.9789 Q1002.19 49.8724 999.613 51.2902 Q997.067 52.6791 993.479 52.6791 Q987.605 52.6791 983.901 47.9916 Q980.226 43.3042 980.226 35.6653 Q980.226 28.0265 983.901 23.339 Q987.605 18.6515 993.479 18.6515 Q997.067 18.6515 999.613 20.0693 Q1002.19 21.4582 1003.87 24.3517 L1003.87 19.4328 L1009.19 19.4328 L1009.19 64.1663 L1003.87 64.1663 L1003.87 46.9789 Z" fill="#000000" fill-rule="nonzero" fill-opacity="1" /><path clip-path="url(#clip950)" d="M1019.61 39.0507 L1019.61 19.4328 L1024.93 19.4328 L1024.93 38.8482 Q1024.93 43.4488 1026.73 45.7636 Q1028.52 48.0495 1032.11 48.0495 Q1036.42 48.0495 1038.91 45.3007 Q1041.42 42.5519 1041.42 37.8065 L1041.42 19.4328 L1046.75 19.4328 L1046.75 51.84 L1041.42 51.84 L1041.42 46.8632 Q1039.49 49.8145 1036.91 51.2613 Q1034.36 52.6791 1030.98 52.6791 Q1025.39 52.6791 1022.5 49.2069 Q1019.61 45.7347 1019.61 39.0507 M1033 18.6515 L1033 18.6515 Z" fill="#000000" fill-rule="nonzero" fill-opacity="1" /><path clip-path="url(#clip950)" d="M1072.44 35.5496 Q1065.99 35.5496 1063.5 37.0253 Q1061.01 38.501 1061.01 42.06 Q1061.01 44.8956 1062.86 46.5738 Q1064.75 48.2231 1067.96 48.2231 Q1072.38 48.2231 1075.05 45.0981 Q1077.74 41.9442 1077.74 36.7359 L1077.74 35.5496 L1072.44 35.5496 M1083.06 33.3505 L1083.06 51.84 L1077.74 51.84 L1077.74 46.921 Q1075.91 49.8724 1073.19 51.2902 Q1070.47 52.6791 1066.54 52.6791 Q1061.56 52.6791 1058.61 49.9014 Q1055.69 47.0947 1055.69 42.4072 Q1055.69 36.9385 1059.33 34.1607 Q1063.01 31.3829 1070.27 31.3829 L1077.74 31.3829 L1077.74 30.8621 Q1077.74 27.1874 1075.31 25.1908 Q1072.91 23.1654 1068.54 23.1654 Q1065.76 23.1654 1063.13 23.8309 Q1060.49 24.4964 1058.06 25.8274 L1058.06 20.9085 Q1060.98 19.78 1063.73 19.2302 Q1066.48 18.6515 1069.09 18.6515 Q1076.12 18.6515 1079.59 22.2973 Q1083.06 25.9431 1083.06 33.3505 Z" fill="#000000" fill-rule="nonzero" fill-opacity="1" /><path clip-path="url(#clip950)" d="M1117.35 20.677 L1117.35 25.6538 Q1115.09 24.4096 1112.81 23.802 Q1110.55 23.1654 1108.24 23.1654 Q1103.06 23.1654 1100.19 26.464 Q1097.33 29.7336 1097.33 35.6653 Q1097.33 41.597 1100.19 44.8956 Q1103.06 48.1653 1108.24 48.1653 Q1110.55 48.1653 1112.81 47.5576 Q1115.09 46.921 1117.35 45.6768 L1117.35 50.5958 Q1115.12 51.6375 1112.72 52.1583 Q1110.35 52.6791 1107.66 52.6791 Q1100.34 52.6791 1096.02 48.0784 Q1091.71 43.4778 1091.71 35.6653 Q1091.71 27.7371 1096.05 23.1943 Q1100.42 18.6515 1108 18.6515 Q1110.46 18.6515 1112.81 19.1724 Q1115.15 19.6642 1117.35 20.677 M1109.83 51.84 Q1111.42 53.634 1112.2 55.1386 Q1112.98 56.6722 1112.98 58.061 Q1112.98 60.6362 1111.24 61.9383 Q1109.51 63.2693 1106.09 63.2693 Q1104.76 63.2693 1103.49 63.0957 Q1102.25 62.9221 1101 62.5749 L1101 58.7844 Q1101.99 59.2763 1103.06 59.4788 Q1104.13 59.7103 1105.49 59.7103 Q1107.19 59.7103 1108.06 59.0159 Q1108.93 58.3214 1108.93 56.9904 Q1108.93 56.1224 1108.29 54.8492 Q1107.69 53.605 1106.38 51.84 L1109.83 51.84 Z" fill="#000000" fill-rule="nonzero" fill-opacity="1" /><path clip-path="url(#clip950)" d="M1141.34 35.5496 Q1134.88 35.5496 1132.4 37.0253 Q1129.91 38.501 1129.91 42.06 Q1129.91 44.8956 1131.76 46.5738 Q1133.64 48.2231 1136.85 48.2231 Q1141.28 48.2231 1143.94 45.0981 Q1146.63 41.9442 1146.63 36.7359 L1146.63 35.5496 L1141.34 35.5496 M1151.96 33.3505 L1151.96 51.84 L1146.63 51.84 L1146.63 46.921 Q1144.81 49.8724 1142.09 51.2902 Q1139.37 52.6791 1135.43 52.6791 Q1130.46 52.6791 1127.51 49.9014 Q1124.58 47.0947 1124.58 42.4072 Q1124.58 36.9385 1128.23 34.1607 Q1131.9 31.3829 1139.17 31.3829 L1146.63 31.3829 L1146.63 30.8621 Q1146.63 27.1874 1144.2 25.1908 Q1141.8 23.1654 1137.43 23.1654 Q1134.65 23.1654 1132.02 23.8309 Q1129.39 24.4964 1126.96 25.8274 L1126.96 20.9085 Q1129.88 19.78 1132.63 19.2302 Q1135.38 18.6515 1137.98 18.6515 Q1145.01 18.6515 1148.48 22.2973 Q1151.96 25.9431 1151.96 33.3505 M1138.1 12.199 L1136.45 10.6076 Q1135.81 10.0289 1135.32 9.76847 Q1134.86 9.47912 1134.48 9.47912 Q1133.38 9.47912 1132.86 10.5497 Q1132.34 11.5914 1132.28 13.964 L1128.66 13.964 Q1128.72 10.0578 1130.2 7.94556 Q1131.67 5.80437 1134.31 5.80437 Q1135.41 5.80437 1136.33 6.20946 Q1137.26 6.61455 1138.33 7.5694 L1139.98 9.16083 Q1140.61 9.73953 1141.08 10.0289 Q1141.57 10.2893 1141.94 10.2893 Q1143.04 10.2893 1143.56 9.24764 Q1144.09 8.17704 1144.14 5.80437 L1147.76 5.80437 Q1147.7 9.7106 1146.23 11.8518 Q1144.75 13.964 1142.12 13.964 Q1141.02 13.964 1140.09 13.559 Q1139.17 13.1539 1138.1 12.199 Z" fill="#000000" fill-rule="nonzero" fill-opacity="1" /><path clip-path="url(#clip950)" d="M1175.48 23.1654 Q1171.2 23.1654 1168.71 26.5218 Q1166.22 29.8494 1166.22 35.6653 Q1166.22 41.4813 1168.68 44.8377 Q1171.17 48.1653 1175.48 48.1653 Q1179.73 48.1653 1182.22 44.8088 Q1184.71 41.4523 1184.71 35.6653 Q1184.71 29.9072 1182.22 26.5508 Q1179.73 23.1654 1175.48 23.1654 M1175.48 18.6515 Q1182.42 18.6515 1186.39 23.1654 Q1190.35 27.6792 1190.35 35.6653 Q1190.35 43.6225 1186.39 48.1653 Q1182.42 52.6791 1175.48 52.6791 Q1168.51 52.6791 1164.54 48.1653 Q1160.61 43.6225 1160.61 35.6653 Q1160.61 27.6792 1164.54 23.1654 Q1168.51 18.6515 1175.48 18.6515 Z" fill="#000000" fill-rule="nonzero" fill-opacity="1" /><path clip-path="url(#clip950)" d="M1239.34 24.3517 L1239.34 6.81709 L1244.66 6.81709 L1244.66 51.84 L1239.34 51.84 L1239.34 46.9789 Q1237.66 49.8724 1235.09 51.2902 Q1232.54 52.6791 1228.95 52.6791 Q1223.08 52.6791 1219.37 47.9916 Q1215.7 43.3042 1215.7 35.6653 Q1215.7 28.0265 1219.37 23.339 Q1223.08 18.6515 1228.95 18.6515 Q1232.54 18.6515 1235.09 20.0693 Q1237.66 21.4582 1239.34 24.3517 M1221.2 35.6653 Q1221.2 41.5391 1223.6 44.8956 Q1226.03 48.2231 1230.25 48.2231 Q1234.48 48.2231 1236.91 44.8956 Q1239.34 41.5391 1239.34 35.6653 Q1239.34 29.7915 1236.91 26.464 Q1234.48 23.1075 1230.25 23.1075 Q1226.03 23.1075 1223.6 26.464 Q1221.2 29.7915 1221.2 35.6653 Z" fill="#000000" fill-rule="nonzero" fill-opacity="1" /><path clip-path="url(#clip950)" d="M1255.63 19.4328 L1260.95 19.4328 L1260.95 51.84 L1255.63 51.84 L1255.63 19.4328 M1255.63 6.81709 L1260.95 6.81709 L1260.95 13.559 L1255.63 13.559 L1255.63 6.81709 Z" fill="#000000" fill-rule="nonzero" fill-opacity="1" /><path clip-path="url(#clip950)" d="M1288.5 6.81709 L1288.5 11.2442 L1283.41 11.2442 Q1280.54 11.2442 1279.41 12.4016 Q1278.32 13.559 1278.32 16.5682 L1278.32 19.4328 L1287.08 19.4328 L1287.08 23.5705 L1278.32 23.5705 L1278.32 51.84 L1272.96 51.84 L1272.96 23.5705 L1267.87 23.5705 L1267.87 19.4328 L1272.96 19.4328 L1272.96 17.1758 Q1272.96 11.765 1275.48 9.30551 Q1278 6.81709 1283.47 6.81709 L1288.5 6.81709 Z" fill="#000000" fill-rule="nonzero" fill-opacity="1" /><path clip-path="url(#clip950)" d="M1320.68 34.3054 L1320.68 36.9095 L1296.2 36.9095 Q1296.54 42.4072 1299.5 45.3007 Q1302.48 48.1653 1307.77 48.1653 Q1310.84 48.1653 1313.7 47.4129 Q1316.6 46.6606 1319.43 45.156 L1319.43 50.1907 Q1316.57 51.406 1313.56 52.0425 Q1310.55 52.6791 1307.45 52.6791 Q1299.7 52.6791 1295.16 48.1653 Q1290.64 43.6514 1290.64 35.9547 Q1290.64 27.9975 1294.92 23.339 Q1299.24 18.6515 1306.53 18.6515 Q1313.07 18.6515 1316.86 22.876 Q1320.68 27.0716 1320.68 34.3054 M1315.35 32.7429 Q1315.29 28.3737 1312.89 25.7695 Q1310.52 23.1654 1306.58 23.1654 Q1302.13 23.1654 1299.44 25.6827 Q1296.78 28.2001 1296.37 32.7718 L1315.35 32.7429 Z" fill="#000000" fill-rule="nonzero" fill-opacity="1" /><path clip-path="url(#clip950)" d="M1348.19 24.4096 Q1347.3 23.8888 1346.23 23.6573 Q1345.18 23.3969 1343.91 23.3969 Q1339.4 23.3969 1336.97 26.3482 Q1334.56 29.2707 1334.56 34.7683 L1334.56 51.84 L1329.21 51.84 L1329.21 19.4328 L1334.56 19.4328 L1334.56 24.4675 Q1336.24 21.5161 1338.93 20.0983 Q1341.62 18.6515 1345.47 18.6515 Q1346.02 18.6515 1346.69 18.7383 Q1347.35 18.7962 1348.16 18.9409 L1348.19 24.4096 Z" fill="#000000" fill-rule="nonzero" fill-opacity="1" /><path clip-path="url(#clip950)" d="M1380.2 34.3054 L1380.2 36.9095 L1355.72 36.9095 Q1356.06 42.4072 1359.01 45.3007 Q1362 48.1653 1367.29 48.1653 Q1370.36 48.1653 1373.22 47.4129 Q1376.12 46.6606 1378.95 45.156 L1378.95 50.1907 Q1376.09 51.406 1373.08 52.0425 Q1370.07 52.6791 1366.97 52.6791 Q1359.22 52.6791 1354.67 48.1653 Q1350.16 43.6514 1350.16 35.9547 Q1350.16 27.9975 1354.44 23.339 Q1358.75 18.6515 1366.05 18.6515 Q1372.59 18.6515 1376.38 22.876 Q1380.2 27.0716 1380.2 34.3054 M1374.87 32.7429 Q1374.81 28.3737 1372.41 25.7695 Q1370.04 23.1654 1366.1 23.1654 Q1361.65 23.1654 1358.96 25.6827 Q1356.3 28.2001 1355.89 32.7718 L1374.87 32.7429 Z" fill="#000000" fill-rule="nonzero" fill-opacity="1" /><path clip-path="url(#clip950)" d="M1415.87 32.2799 L1415.87 51.84 L1410.55 51.84 L1410.55 32.4535 Q1410.55 27.8529 1408.75 25.567 Q1406.96 23.2811 1403.37 23.2811 Q1399.06 23.2811 1396.57 26.03 Q1394.08 28.7788 1394.08 33.5241 L1394.08 51.84 L1388.73 51.84 L1388.73 19.4328 L1394.08 19.4328 L1394.08 24.4675 Q1395.99 21.545 1398.57 20.0983 Q1401.17 18.6515 1404.56 18.6515 Q1410.14 18.6515 1413.01 22.1237 Q1415.87 25.567 1415.87 32.2799 Z" fill="#000000" fill-rule="nonzero" fill-opacity="1" /><path clip-path="url(#clip950)" d="M1449.81 20.677 L1449.81 25.6538 Q1447.56 24.4096 1445.27 23.802 Q1443.01 23.1654 1440.7 23.1654 Q1435.52 23.1654 1432.65 26.464 Q1429.79 29.7336 1429.79 35.6653 Q1429.79 41.597 1432.65 44.8956 Q1435.52 48.1653 1440.7 48.1653 Q1443.01 48.1653 1445.27 47.5576 Q1447.56 46.921 1449.81 45.6768 L1449.81 50.5958 Q1447.59 51.6375 1445.18 52.1583 Q1442.81 52.6791 1440.12 52.6791 Q1432.8 52.6791 1428.49 48.0784 Q1424.18 43.4778 1424.18 35.6653 Q1424.18 27.7371 1428.52 23.1943 Q1432.89 18.6515 1440.47 18.6515 Q1442.93 18.6515 1445.27 19.1724 Q1447.61 19.6642 1449.81 20.677 Z" fill="#000000" fill-rule="nonzero" fill-opacity="1" /><path clip-path="url(#clip950)" d="M1459.07 19.4328 L1464.4 19.4328 L1464.4 51.84 L1459.07 51.84 L1459.07 19.4328 M1459.07 6.81709 L1464.4 6.81709 L1464.4 13.559 L1459.07 13.559 L1459.07 6.81709 Z" fill="#000000" fill-rule="nonzero" fill-opacity="1" /><path clip-path="url(#clip950)" d="M1490.26 35.5496 Q1483.81 35.5496 1481.32 37.0253 Q1478.83 38.501 1478.83 42.06 Q1478.83 44.8956 1480.69 46.5738 Q1482.57 48.2231 1485.78 48.2231 Q1490.21 48.2231 1492.87 45.0981 Q1495.56 41.9442 1495.56 36.7359 L1495.56 35.5496 L1490.26 35.5496 M1500.88 33.3505 L1500.88 51.84 L1495.56 51.84 L1495.56 46.921 Q1493.74 49.8724 1491.02 51.2902 Q1488.3 52.6791 1484.36 52.6791 Q1479.38 52.6791 1476.43 49.9014 Q1473.51 47.0947 1473.51 42.4072 Q1473.51 36.9385 1477.16 34.1607 Q1480.83 31.3829 1488.09 31.3829 L1495.56 31.3829 L1495.56 30.8621 Q1495.56 27.1874 1493.13 25.1908 Q1490.73 23.1654 1486.36 23.1654 Q1483.58 23.1654 1480.95 23.8309 Q1478.31 24.4964 1475.88 25.8274 L1475.88 20.9085 Q1478.81 19.78 1481.55 19.2302 Q1484.3 18.6515 1486.91 18.6515 Q1493.94 18.6515 1497.41 22.2973 Q1500.88 25.9431 1500.88 33.3505 Z" fill="#000000" fill-rule="nonzero" fill-opacity="1" /><path clip-path="url(#clip950)" d="M1511.85 6.81709 L1517.17 6.81709 L1517.17 51.84 L1511.85 51.84 L1511.85 6.81709 Z" fill="#000000" fill-rule="nonzero" fill-opacity="1" /><path clip-path="url(#clip950)" d="M1561.88 35.5496 Q1555.43 35.5496 1552.94 37.0253 Q1550.45 38.501 1550.45 42.06 Q1550.45 44.8956 1552.3 46.5738 Q1554.18 48.2231 1557.39 48.2231 Q1561.82 48.2231 1564.48 45.0981 Q1567.17 41.9442 1567.17 36.7359 L1567.17 35.5496 L1561.88 35.5496 M1572.5 33.3505 L1572.5 51.84 L1567.17 51.84 L1567.17 46.921 Q1565.35 49.8724 1562.63 51.2902 Q1559.91 52.6791 1555.98 52.6791 Q1551 52.6791 1548.05 49.9014 Q1545.13 47.0947 1545.13 42.4072 Q1545.13 36.9385 1548.77 34.1607 Q1552.45 31.3829 1559.71 31.3829 L1567.17 31.3829 L1567.17 30.8621 Q1567.17 27.1874 1564.74 25.1908 Q1562.34 23.1654 1557.97 23.1654 Q1555.19 23.1654 1552.56 23.8309 Q1549.93 24.4964 1547.5 25.8274 L1547.5 20.9085 Q1550.42 19.78 1553.17 19.2302 Q1555.92 18.6515 1558.52 18.6515 Q1565.55 18.6515 1569.03 22.2973 Q1572.5 25.9431 1572.5 33.3505 Z" fill="#000000" fill-rule="nonzero" fill-opacity="1" /><path clip-path="url(#clip950)" d="M1583.46 6.81709 L1588.79 6.81709 L1588.79 51.84 L1583.46 51.84 L1583.46 6.81709 Z" fill="#000000" fill-rule="nonzero" fill-opacity="1" /><path clip-path="url(#clip950)" d="M1627.65 34.3054 L1627.65 36.9095 L1603.17 36.9095 Q1603.52 42.4072 1606.47 45.3007 Q1609.45 48.1653 1614.74 48.1653 Q1617.81 48.1653 1620.67 47.4129 Q1623.57 46.6606 1626.4 45.156 L1626.4 50.1907 Q1623.54 51.406 1620.53 52.0425 Q1617.52 52.6791 1614.42 52.6791 Q1606.67 52.6791 1602.13 48.1653 Q1597.61 43.6514 1597.61 35.9547 Q1597.61 27.9975 1601.9 23.339 Q1606.21 18.6515 1613.5 18.6515 Q1620.04 18.6515 1623.83 22.876 Q1627.65 27.0716 1627.65 34.3054 M1622.32 32.7429 Q1622.27 28.3737 1619.86 25.7695 Q1617.49 23.1654 1613.56 23.1654 Q1609.1 23.1654 1606.41 25.6827 Q1603.75 28.2001 1603.34 32.7718 L1622.32 32.7429 Z" fill="#000000" fill-rule="nonzero" fill-opacity="1" /><path clip-path="url(#clip950)" d="M1651.11 35.5496 Q1644.66 35.5496 1642.17 37.0253 Q1639.68 38.501 1639.68 42.06 Q1639.68 44.8956 1641.54 46.5738 Q1643.42 48.2231 1646.63 48.2231 Q1651.06 48.2231 1653.72 45.0981 Q1656.41 41.9442 1656.41 36.7359 L1656.41 35.5496 L1651.11 35.5496 M1661.73 33.3505 L1661.73 51.84 L1656.41 51.84 L1656.41 46.921 Q1654.59 49.8724 1651.87 51.2902 Q1649.15 52.6791 1645.21 52.6791 Q1640.23 52.6791 1637.28 49.9014 Q1634.36 47.0947 1634.36 42.4072 Q1634.36 36.9385 1638.01 34.1607 Q1641.68 31.3829 1648.94 31.3829 L1656.41 31.3829 L1656.41 30.8621 Q1656.41 27.1874 1653.98 25.1908 Q1651.58 23.1654 1647.21 23.1654 Q1644.43 23.1654 1641.8 23.8309 Q1639.16 24.4964 1636.73 25.8274 L1636.73 20.9085 Q1639.66 19.78 1642.4 19.2302 Q1645.15 18.6515 1647.76 18.6515 Q1654.79 18.6515 1658.26 22.2973 Q1661.73 25.9431 1661.73 33.3505 Z" fill="#000000" fill-rule="nonzero" fill-opacity="1" /><path clip-path="url(#clip950)" d="M1677.97 10.2314 L1677.97 19.4328 L1688.93 19.4328 L1688.93 23.5705 L1677.97 23.5705 L1677.97 41.163 Q1677.97 45.1271 1679.04 46.2555 Q1680.14 47.384 1683.46 47.384 L1688.93 47.384 L1688.93 51.84 L1683.46 51.84 Q1677.3 51.84 1674.96 49.5541 Q1672.61 47.2393 1672.61 41.163 L1672.61 23.5705 L1668.71 23.5705 L1668.71 19.4328 L1672.61 19.4328 L1672.61 10.2314 L1677.97 10.2314 Z" fill="#000000" fill-rule="nonzero" fill-opacity="1" /><path clip-path="url(#clip950)" d="M1708.49 23.1654 Q1704.21 23.1654 1701.72 26.5218 Q1699.23 29.8494 1699.23 35.6653 Q1699.23 41.4813 1701.69 44.8377 Q1704.18 48.1653 1708.49 48.1653 Q1712.75 48.1653 1715.23 44.8088 Q1717.72 41.4523 1717.72 35.6653 Q1717.72 29.9072 1715.23 26.5508 Q1712.75 23.1654 1708.49 23.1654 M1708.49 18.6515 Q1715.44 18.6515 1719.4 23.1654 Q1723.36 27.6792 1723.36 35.6653 Q1723.36 43.6225 1719.4 48.1653 Q1715.44 52.6791 1708.49 52.6791 Q1701.52 52.6791 1697.55 48.1653 Q1693.62 43.6225 1693.62 35.6653 Q1693.62 27.6792 1697.55 23.1654 Q1701.52 18.6515 1708.49 18.6515 M1712.51 4.44442 L1718.27 4.44442 L1708.84 15.324 L1704.41 15.324 L1712.51 4.44442 Z" fill="#000000" fill-rule="nonzero" fill-opacity="1" /><path clip-path="url(#clip950)" d="M1750.97 24.4096 Q1750.07 23.8888 1749 23.6573 Q1747.96 23.3969 1746.69 23.3969 Q1742.17 23.3969 1739.74 26.3482 Q1737.34 29.2707 1737.34 34.7683 L1737.34 51.84 L1731.99 51.84 L1731.99 19.4328 L1737.34 19.4328 L1737.34 24.4675 Q1739.02 21.5161 1741.71 20.0983 Q1744.4 18.6515 1748.25 18.6515 Q1748.8 18.6515 1749.46 18.7383 Q1750.13 18.7962 1750.94 18.9409 L1750.97 24.4096 Z" fill="#000000" fill-rule="nonzero" fill-opacity="1" /><path clip-path="url(#clip950)" d="M1756.55 19.4328 L1761.88 19.4328 L1761.88 51.84 L1756.55 51.84 L1756.55 19.4328 M1756.55 6.81709 L1761.88 6.81709 L1761.88 13.559 L1756.55 13.559 L1756.55 6.81709 Z" fill="#000000" fill-rule="nonzero" fill-opacity="1" /><path clip-path="url(#clip950)" d="M1787.75 35.5496 Q1781.29 35.5496 1778.8 37.0253 Q1776.32 38.501 1776.32 42.06 Q1776.32 44.8956 1778.17 46.5738 Q1780.05 48.2231 1783.26 48.2231 Q1787.69 48.2231 1790.35 45.0981 Q1793.04 41.9442 1793.04 36.7359 L1793.04 35.5496 L1787.75 35.5496 M1798.36 33.3505 L1798.36 51.84 L1793.04 51.84 L1793.04 46.921 Q1791.22 49.8724 1788.5 51.2902 Q1785.78 52.6791 1781.84 52.6791 Q1776.87 52.6791 1773.91 49.9014 Q1770.99 47.0947 1770.99 42.4072 Q1770.99 36.9385 1774.64 34.1607 Q1778.31 31.3829 1785.58 31.3829 L1793.04 31.3829 L1793.04 30.8621 Q1793.04 27.1874 1790.61 25.1908 Q1788.21 23.1654 1783.84 23.1654 Q1781.06 23.1654 1778.43 23.8309 Q1775.8 24.4964 1773.36 25.8274 L1773.36 20.9085 Q1776.29 19.78 1779.04 19.2302 Q1781.78 18.6515 1784.39 18.6515 Q1791.42 18.6515 1794.89 22.2973 Q1798.36 25.9431 1798.36 33.3505 Z" fill="#000000" fill-rule="nonzero" fill-opacity="1" /><path clip-path="url(#clip950)" d="M1833.2 4.44442 L1841.36 15.2661 L1836.93 15.2661 L1827.5 4.44442 L1833.2 4.44442 Z" fill="#000000" fill-rule="nonzero" fill-opacity="1" /><path clip-path="url(#clip950)" d="M1857.25 39.0507 L1857.25 19.4328 L1862.57 19.4328 L1862.57 38.8482 Q1862.57 43.4488 1864.37 45.7636 Q1866.16 48.0495 1869.75 48.0495 Q1874.06 48.0495 1876.55 45.3007 Q1879.06 42.5519 1879.06 37.8065 L1879.06 19.4328 L1884.39 19.4328 L1884.39 51.84 L1879.06 51.84 L1879.06 46.8632 Q1877.13 49.8145 1874.55 51.2613 Q1872 52.6791 1868.62 52.6791 Q1863.03 52.6791 1860.14 49.2069 Q1857.25 45.7347 1857.25 39.0507 M1870.64 18.6515 L1870.64 18.6515 Z" fill="#000000" fill-rule="nonzero" fill-opacity="1" /><path clip-path="url(#clip950)" d="M1900.39 8.64 L1900.39 24.6989 L1895.47 24.6989 L1895.47 8.64 L1900.39 8.64 Z" fill="#000000" fill-rule="nonzero" fill-opacity="1" /><path clip-path="url(#clip950)" d="M1931.18 24.9304 L1968.27 24.9304 L1968.27 29.7915 L1931.18 29.7915 L1931.18 24.9304 M1931.18 36.7359 L1968.27 36.7359 L1968.27 41.6549 L1931.18 41.6549 L1931.18 36.7359 Z" fill="#000000" fill-rule="nonzero" fill-opacity="1" /><path clip-path="url(#clip950)" d="M2019.63 20.3876 L2019.63 25.4223 Q2017.37 24.2649 2014.94 23.6862 Q2012.51 23.1075 2009.91 23.1075 Q2005.94 23.1075 2003.95 24.3228 Q2001.98 25.5381 2001.98 27.9686 Q2001.98 29.8204 2003.4 30.891 Q2004.82 31.9327 2009.1 32.8876 L2010.92 33.2926 Q2016.59 34.5079 2018.97 36.7359 Q2021.37 38.935 2021.37 42.8991 Q2021.37 47.4129 2017.78 50.046 Q2014.22 52.6791 2007.97 52.6791 Q2005.37 52.6791 2002.53 52.1583 Q1999.72 51.6664 1996.6 50.6537 L1996.6 45.156 Q1999.55 46.6896 2002.41 47.4708 Q2005.28 48.2231 2008.09 48.2231 Q2011.85 48.2231 2013.87 46.95 Q2015.9 45.6479 2015.9 43.3042 Q2015.9 41.134 2014.42 39.9766 Q2012.98 38.8192 2008.03 37.7486 L2006.18 37.3146 Q2001.23 36.273 1999.03 34.1318 Q1996.83 31.9616 1996.83 28.2001 Q1996.83 23.6283 2000.07 21.1399 Q2003.31 18.6515 2009.27 18.6515 Q2012.22 18.6515 2014.83 19.0855 Q2017.43 19.5196 2019.63 20.3876 Z" fill="#000000" fill-rule="nonzero" fill-opacity="1" /><path clip-path="url(#clip950)" d="M2029.84 19.4328 L2035.17 19.4328 L2035.17 51.84 L2029.84 51.84 L2029.84 19.4328 M2029.84 6.81709 L2035.17 6.81709 L2035.17 13.559 L2029.84 13.559 L2029.84 6.81709 Z" fill="#000000" fill-rule="nonzero" fill-opacity="1" /><path clip-path="url(#clip950)" d="M2073.25 32.2799 L2073.25 51.84 L2067.92 51.84 L2067.92 32.4535 Q2067.92 27.8529 2066.13 25.567 Q2064.34 23.2811 2060.75 23.2811 Q2056.44 23.2811 2053.95 26.03 Q2051.46 28.7788 2051.46 33.5241 L2051.46 51.84 L2046.11 51.84 L2046.11 19.4328 L2051.46 19.4328 L2051.46 24.4675 Q2053.37 21.545 2055.94 20.0983 Q2058.55 18.6515 2061.93 18.6515 Q2067.52 18.6515 2070.38 22.1237 Q2073.25 25.567 2073.25 32.2799 Z" fill="#000000" fill-rule="nonzero" fill-opacity="1" /><path clip-path="url(#clip950)" d="M2096.66 6.87496 Q2092.78 13.53 2090.9 20.0404 Q2089.02 26.5508 2089.02 33.2348 Q2089.02 39.9188 2090.9 46.487 Q2092.81 53.0263 2096.66 59.6525 L2092.03 59.6525 Q2087.69 52.8527 2085.52 46.2845 Q2083.37 39.7162 2083.37 33.2348 Q2083.37 26.7823 2085.52 20.2429 Q2087.66 13.7036 2092.03 6.87496 L2096.66 6.87496 Z" fill="#000000" fill-rule="nonzero" fill-opacity="1" /><path clip-path="url(#clip950)" d="M2103.37 8.64 L2109.27 8.64 L2118.36 45.156 L2127.41 8.64 L2133.98 8.64 L2143.07 45.156 L2152.12 8.64 L2158.06 8.64 L2147.21 51.84 L2139.86 51.84 L2130.74 14.3402 L2121.54 51.84 L2114.19 51.84 L2103.37 8.64 Z" fill="#000000" fill-rule="nonzero" fill-opacity="1" /><path clip-path="url(#clip950)" d="M2164.74 6.87496 L2169.37 6.87496 Q2173.71 13.7036 2175.85 20.2429 Q2178.02 26.7823 2178.02 33.2348 Q2178.02 39.7162 2175.85 46.2845 Q2173.71 52.8527 2169.37 59.6525 L2164.74 59.6525 Q2168.59 53.0263 2170.47 46.487 Q2172.38 39.9188 2172.38 33.2348 Q2172.38 26.5508 2170.47 20.0404 Q2168.59 13.53 2164.74 6.87496 Z" fill="#000000" fill-rule="nonzero" fill-opacity="1" /><path clip-path="url(#clip950)" d="M2188.15 39.0507 L2188.15 19.4328 L2193.47 19.4328 L2193.47 38.8482 Q2193.47 43.4488 2195.27 45.7636 Q2197.06 48.0495 2200.65 48.0495 Q2204.96 48.0495 2207.45 45.3007 Q2209.97 42.5519 2209.97 37.8065 L2209.97 19.4328 L2215.29 19.4328 L2215.29 51.84 L2209.97 51.84 L2209.97 46.8632 Q2208.03 49.8145 2205.45 51.2613 Q2202.91 52.6791 2199.52 52.6791 Q2193.94 52.6791 2191.04 49.2069 Q2188.15 45.7347 2188.15 39.0507 M2201.55 18.6515 L2201.55 18.6515 Z" fill="#000000" fill-rule="nonzero" fill-opacity="1" /><path clip-path="url(#clip950)" d="M2231.29 4.44442 L2239.45 15.2661 L2235.02 15.2661 L2225.59 4.44442 L2231.29 4.44442 Z" fill="#000000" fill-rule="nonzero" fill-opacity="1" /><path clip-path="url(#clip950)" d="M2298.04 20.677 L2298.04 25.6538 Q2295.79 24.4096 2293.5 23.802 Q2291.24 23.1654 2288.93 23.1654 Q2283.75 23.1654 2280.88 26.464 Q2278.02 29.7336 2278.02 35.6653 Q2278.02 41.597 2280.88 44.8956 Q2283.75 48.1653 2288.93 48.1653 Q2291.24 48.1653 2293.5 47.5576 Q2295.79 46.921 2298.04 45.6768 L2298.04 50.5958 Q2295.82 51.6375 2293.41 52.1583 Q2291.04 52.6791 2288.35 52.6791 Q2281.03 52.6791 2276.72 48.0784 Q2272.41 43.4778 2272.41 35.6653 Q2272.41 27.7371 2276.75 23.1943 Q2281.12 18.6515 2288.7 18.6515 Q2291.16 18.6515 2293.5 19.1724 Q2295.84 19.6642 2298.04 20.677 Z" fill="#000000" fill-rule="nonzero" fill-opacity="1" /><path clip-path="url(#clip950)" d="M2319.86 23.1654 Q2315.58 23.1654 2313.09 26.5218 Q2310.6 29.8494 2310.6 35.6653 Q2310.6 41.4813 2313.06 44.8377 Q2315.55 48.1653 2319.86 48.1653 Q2324.11 48.1653 2326.6 44.8088 Q2329.09 41.4523 2329.09 35.6653 Q2329.09 29.9072 2326.6 26.5508 Q2324.11 23.1654 2319.86 23.1654 M2319.86 18.6515 Q2326.8 18.6515 2330.77 23.1654 Q2334.73 27.6792 2334.73 35.6653 Q2334.73 43.6225 2330.77 48.1653 Q2326.8 52.6791 2319.86 52.6791 Q2312.89 52.6791 2308.92 48.1653 Q2304.99 43.6225 2304.99 35.6653 Q2304.99 27.6792 2308.92 23.1654 Q2312.89 18.6515 2319.86 18.6515 Z" fill="#000000" fill-rule="nonzero" fill-opacity="1" /><path clip-path="url(#clip950)" d="M2368.79 25.6538 Q2370.79 22.0659 2373.56 20.3587 Q2376.34 18.6515 2380.1 18.6515 Q2385.17 18.6515 2387.92 22.2105 Q2390.66 25.7406 2390.66 32.2799 L2390.66 51.84 L2385.31 51.84 L2385.31 32.4535 Q2385.31 27.795 2383.66 25.5381 Q2382.01 23.2811 2378.63 23.2811 Q2374.49 23.2811 2372.09 26.03 Q2369.69 28.7788 2369.69 33.5241 L2369.69 51.84 L2364.33 51.84 L2364.33 32.4535 Q2364.33 27.7661 2362.68 25.5381 Q2361.04 23.2811 2357.59 23.2811 Q2353.51 23.2811 2351.11 26.0589 Q2348.71 28.8077 2348.71 33.5241 L2348.71 51.84 L2343.36 51.84 L2343.36 19.4328 L2348.71 19.4328 L2348.71 24.4675 Q2350.53 21.4872 2353.08 20.0693 Q2355.62 18.6515 2359.13 18.6515 Q2362.66 18.6515 2365.11 20.4455 Q2367.6 22.2395 2368.79 25.6538 Z" fill="#000000" fill-rule="nonzero" fill-opacity="1" /><path clip-path="url(#clip950)" d="M2425.16 4.44442 L2433.31 15.2661 L2428.89 15.2661 L2419.45 4.44442 L2425.16 4.44442 Z" fill="#000000" fill-rule="nonzero" fill-opacity="1" /><path clip-path="url(#clip950)" d="M2449.2 39.0507 L2449.2 19.4328 L2454.52 19.4328 L2454.52 38.8482 Q2454.52 43.4488 2456.32 45.7636 Q2458.11 48.0495 2461.7 48.0495 Q2466.01 48.0495 2468.5 45.3007 Q2471.02 42.5519 2471.02 37.8065 L2471.02 19.4328 L2476.34 19.4328 L2476.34 51.84 L2471.02 51.84 L2471.02 46.8632 Q2469.08 49.8145 2466.5 51.2613 Q2463.96 52.6791 2460.57 52.6791 Q2454.99 52.6791 2452.09 49.2069 Q2449.2 45.7347 2449.2 39.0507 M2462.6 18.6515 L2462.6 18.6515 Z" fill="#000000" fill-rule="nonzero" fill-opacity="1" /><path clip-path="url(#clip950)" d="M2500.1 6.87496 Q2496.22 13.53 2494.34 20.0404 Q2492.46 26.5508 2492.46 33.2348 Q2492.46 39.9188 2494.34 46.487 Q2496.25 53.0263 2500.1 59.6525 L2495.47 59.6525 Q2491.13 52.8527 2488.96 46.2845 Q2486.82 39.7162 2486.82 33.2348 Q2486.82 26.7823 2488.96 20.2429 Q2491.1 13.7036 2495.47 6.87496 L2500.1 6.87496 Z" fill="#000000" fill-rule="nonzero" fill-opacity="1" /><path clip-path="url(#clip950)" d="M2523.68 12.4884 Q2519.16 12.4884 2516.88 16.9444 Q2514.62 21.3714 2514.62 30.2834 Q2514.62 39.1665 2516.88 43.6225 Q2519.16 48.0495 2523.68 48.0495 Q2528.22 48.0495 2530.48 43.6225 Q2532.76 39.1665 2532.76 30.2834 Q2532.76 21.3714 2530.48 16.9444 Q2528.22 12.4884 2523.68 12.4884 M2523.68 7.85875 Q2530.94 7.85875 2534.76 13.6168 Q2538.61 19.346 2538.61 30.2834 Q2538.61 41.1919 2534.76 46.95 Q2530.94 52.6791 2523.68 52.6791 Q2516.42 52.6791 2512.57 46.95 Q2508.75 41.1919 2508.75 30.2834 Q2508.75 19.346 2512.57 13.6168 Q2516.42 7.85875 2523.68 7.85875 Z" fill="#000000" fill-rule="nonzero" fill-opacity="1" /><path clip-path="url(#clip950)" d="M2547.29 6.87496 L2551.92 6.87496 Q2556.26 13.7036 2558.4 20.2429 Q2560.57 26.7823 2560.57 33.2348 Q2560.57 39.7162 2558.4 46.2845 Q2556.26 52.8527 2551.92 59.6525 L2547.29 59.6525 Q2551.14 53.0263 2553.02 46.487 Q2554.93 39.9188 2554.93 33.2348 Q2554.93 26.5508 2553.02 20.0404 Q2551.14 13.53 2547.29 6.87496 Z" fill="#000000" fill-rule="nonzero" fill-opacity="1" /><path clip-path="url(#clip950)" d="M2590.78 24.9304 L2627.87 24.9304 L2627.87 29.7915 L2590.78 29.7915 L2590.78 24.9304 M2590.78 36.7359 L2627.87 36.7359 L2627.87 41.6549 L2590.78 41.6549 L2590.78 36.7359 Z" fill="#000000" fill-rule="nonzero" fill-opacity="1" /><path clip-path="url(#clip950)" d="M2660.34 46.921 L2669.89 46.921 L2669.89 13.964 L2659.5 16.0474 L2659.5 10.7233 L2669.83 8.64 L2675.67 8.64 L2675.67 46.921 L2685.22 46.921 L2685.22 51.84 L2660.34 51.84 L2660.34 46.921 Z" fill="#000000" fill-rule="nonzero" fill-opacity="1" /><path clip-path="url(#clip950)" d="M2697.03 44.4905 L2703.13 44.4905 L2703.13 51.84 L2697.03 51.84 L2697.03 44.4905 Z" fill="#000000" fill-rule="nonzero" fill-opacity="1" /><path clip-path="url(#clip950)" d="M2728.37 12.4884 Q2723.85 12.4884 2721.57 16.9444 Q2719.31 21.3714 2719.31 30.2834 Q2719.31 39.1665 2721.57 43.6225 Q2723.85 48.0495 2728.37 48.0495 Q2732.91 48.0495 2735.16 43.6225 Q2737.45 39.1665 2737.45 30.2834 Q2737.45 21.3714 2735.16 16.9444 Q2732.91 12.4884 2728.37 12.4884 M2728.37 7.85875 Q2735.63 7.85875 2739.45 13.6168 Q2743.3 19.346 2743.3 30.2834 Q2743.3 41.1919 2739.45 46.95 Q2735.63 52.6791 2728.37 52.6791 Q2721.1 52.6791 2717.25 46.95 Q2713.43 41.1919 2713.43 30.2834 Q2713.43 19.346 2717.25 13.6168 Q2721.1 7.85875 2728.37 7.85875 Z" fill="#000000" fill-rule="nonzero" fill-opacity="1" /><path clip-path="url(#clip950)" d="M2757.85 4.44442 L2766.01 15.2661 L2761.58 15.2661 L2752.15 4.44442 L2757.85 4.44442 Z" fill="#000000" fill-rule="nonzero" fill-opacity="1" /><polyline clip-path="url(#clip952)" style="stroke:#009af9; stroke-linecap:round; stroke-linejoin:round; stroke-width:4; stroke-opacity:1; fill:none" points="302.09,2145.67 307.625,2145.67 313.161,2145.66 318.696,2145.62 324.231,2145.57 329.766,2145.53 335.302,2145.48 340.837,2145.41 346.372,2145.37 351.908,2145.3 357.443,2145.21 362.978,2145.1 368.513,2144.94 374.049,2144.79 379.584,2144.63 385.119,2144.47 390.654,2144.32 396.19,2144.16 401.725,2143.97 407.26,2143.8 412.796,2143.61 418.331,2143.47 423.866,2143.28 429.401,2143.07 434.937,2142.86 440.472,2142.63 446.007,2142.39 451.542,2142.14 457.078,2141.87 462.613,2141.62 468.148,2141.35 473.684,2141.09 479.219,2140.83 484.754,2140.57 490.289,2140.34 495.825,2140.1 501.36,2139.9 506.895,2139.68 512.43,2139.46 517.966,2139.23 523.501,2139.01 529.036,2138.8 534.572,2138.58 540.107,2138.36 545.642,2138.16 551.177,2137.91 556.713,2137.68 562.248,2137.46 567.783,2137.22 573.318,2136.97 578.854,2136.72 584.389,2136.44 589.924,2136.19 595.46,2135.98 600.995,2135.76 606.53,2135.56 612.065,2135.36 617.601,2135.15 623.136,2134.92 628.671,2134.71 634.206,2134.53 639.742,2134.33 645.277,2134.14 650.812,2133.91 656.348,2133.66 661.883,2133.43 667.418,2133.19 672.953,2132.97 678.489,2132.74 684.024,2132.49 689.559,2132.25 695.094,2132.03 700.63,2131.79 706.165,2131.53 711.7,2131.26 717.236,2130.97 722.771,2130.65 728.306,2130.29 733.841,2129.93 739.377,2129.58 744.912,2129.22 750.447,2128.88 755.982,2128.56 761.518,2128.27 767.053,2127.97 772.588,2127.71 778.124,2127.43 783.659,2127.12 789.194,2126.81 794.729,2126.52 800.265,2126.22 805.8,2125.92 811.335,2125.58 816.871,2125.26 822.406,2124.93 827.941,2124.55 833.476,2124.12 839.012,2123.67 844.547,2123.23 850.082,2122.8 855.617,2122.4 861.153,2121.99 866.688,2121.59 872.223,2121.2 877.759,2120.79 883.294,2120.42 888.829,2120.01 894.364,2119.53 899.9,2119.07 905.435,2118.59 910.97,2118.13 916.505,2117.69 922.041,2117.25 927.576,2116.81 933.111,2116.37 938.647,2115.93 944.182,2115.48 949.717,2115.05 955.252,2114.63 960.788,2114.15 966.323,2113.67 971.858,2113.16 977.393,2112.64 982.929,2112.08 988.464,2111.58 993.999,2111.07 999.535,2110.58 1005.07,2110.14 1010.61,2109.7 1016.14,2109.34 1021.68,2108.91 1027.21,2108.53 1032.75,2108.1 1038.28,2107.63 1043.82,2107.15 1049.35,2106.65 1054.89,2106.12 1060.42,2105.62 1065.96,2105.13 1071.49,2104.62 1077.03,2104.11 1082.56,2103.64 1088.1,2103.2 1093.63,2102.77 1099.17,2102.36 1104.7,2101.98 1110.24,2101.57 1115.78,2101.13 1121.31,2100.73 1126.85,2100.38 1132.38,2099.95 1137.92,2099.61 1143.45,2099.12 1148.99,2098.64 1154.52,2098.1 1160.06,2097.48 1165.59,2096.85 1171.13,2096.16 1176.66,2095.43 1182.2,2094.68 1187.73,2093.92 1193.27,2093.16 1198.8,2092.39 1204.34,2091.66 1209.87,2090.94 1215.41,2090.21 1220.95,2089.44 1226.48,2088.64 1232.02,2087.82 1237.55,2086.99 1243.09,2086.16 1248.62,2085.32 1254.16,2084.46 1259.69,2083.6 1265.23,2082.73 1270.76,2081.84 1276.3,2080.95 1281.83,2080.05 1287.37,2079.14 1292.9,2078.22 1298.44,2077.29 1303.97,2076.35 1309.51,2075.41 1315.05,2074.45 1320.58,2073.5 1326.12,2072.53 1331.65,2071.54 1337.19,2070.54 1342.72,2069.55 1348.26,2068.54 1353.79,2067.52 1359.33,2066.51 1364.86,2065.54 1370.4,2064.53 1375.93,2063.52 1381.47,2062.52 1387,2061.48 1392.54,2060.4 1398.07,2059.33 1403.61,2058.33 1409.14,2057.25 1414.68,2056.21 1420.22,2055.21 1425.75,2054.28 1431.29,2053.26 1436.82,2052.3 1442.36,2051.36 1447.89,2050.54 1453.43,2049.7 1458.96,2048.87 1464.5,2048 1470.03,2047.08 1475.57,2045.9 1481.1,2044.72 1486.64,2043.53 1492.17,2042.31 1497.71,2041.04 1503.24,2039.74 1508.78,2038.5 1514.31,2037.29 1519.85,2036.04 1525.39,2034.74 1530.92,2033.42 1536.46,2032.05 1541.99,2030.69 1547.53,2029.3 1553.06,2027.9 1558.6,2026.47 1564.13,2025.03 1569.67,2023.57 1575.2,2022.09 1580.74,2020.6 1586.27,2019.1 1591.81,2017.59 1597.34,2016.08 1602.88,2014.54 1608.41,2012.98 1613.95,2011.4 1619.49,2009.8 1625.02,2008.19 1630.56,2006.57 1636.09,2004.93 1641.63,2003.27 1647.16,2001.59 1652.7,1999.9 1658.23,1998.19 1663.77,1996.48 1669.3,1994.77 1674.84,1993.04 1680.37,1991.29 1685.91,1989.56 1691.44,1987.79 1696.98,1986 1702.51,1984.15 1708.05,1982.29 1713.58,1980.42 1719.12,1978.52 1724.66,1976.66 1730.19,1974.75 1735.73,1972.87 1741.26,1970.94 1746.8,1969.01 1752.33,1967.01 1757.87,1964.99 1763.4,1962.93 1768.94,1960.85 1774.47,1958.8 1780.01,1956.68 1785.54,1954.58 1791.08,1952.48 1796.61,1950.3 1802.15,1948.1 1807.68,1945.87 1813.22,1943.62 1818.76,1941.34 1824.29,1939.05 1829.83,1936.72 1835.36,1934.41 1840.9,1932.04 1846.43,1929.69 1851.97,1927.29 1857.5,1924.85 1863.04,1922.38 1868.57,1919.9 1874.11,1917.4 1879.64,1914.86 1885.18,1912.3 1890.71,1909.75 1896.25,1907.16 1901.78,1904.56 1907.32,1901.9 1912.85,1899.21 1918.39,1896.48 1923.93,1893.74 1929.46,1890.98 1935,1888.18 1940.53,1885.37 1946.07,1882.53 1951.6,1879.64 1957.14,1876.73 1962.67,1873.79 1968.21,1870.81 1973.74,1867.82 1979.28,1864.81 1984.81,1861.75 1990.35,1858.66 1995.88,1855.54 2001.42,1852.39 2006.95,1849.2 2012.49,1846.03 2018.02,1842.86 2023.56,1839.66 2029.1,1836.42 2034.63,1833.09 2040.17,1829.72 2045.7,1826.33 2051.24,1822.88 2056.77,1819.39 2062.31,1815.88 2067.84,1812.33 2073.38,1808.79 2078.91,1805.32 2084.45,1801.8 2089.98,1798.32 2095.52,1794.88 2101.05,1791.35 2106.59,1787.55 2112.12,1783.79 2117.66,1779.97 2123.2,1776.16 2128.73,1772.33 2134.27,1768.55 2139.8,1764.95 2145.34,1761.41 2150.87,1757.9 2156.41,1754.15 2161.94,1750.06 2167.48,1745.9 2173.01,1741.84 2178.55,1737.78 2184.08,1733.61 2189.62,1729.34 2195.15,1725.01 2200.69,1720.64 2206.22,1716.28 2211.76,1711.87 2217.29,1707.29 2222.83,1702.69 2228.37,1698 2233.9,1693.29 2239.44,1688.53 2244.97,1683.72 2250.51,1678.86 2256.04,1674 2261.58,1669.11 2267.11,1664.19 2272.65,1659.16 2278.18,1654.04 2283.72,1648.95 2289.25,1643.86 2294.79,1638.75 2300.32,1633.54 2305.86,1628.23 2311.39,1622.9 2316.93,1617.47 2322.46,1611.97 2328,1606.38 2333.54,1600.81 2339.07,1595.19 2344.61,1589.5 2350.14,1583.91 2355.68,1578.25 2361.21,1572.52 2366.75,1566.76 2372.28,1561.67 2377.82,1557.03 2383.35,1551.85 2388.89,1546.61 2394.42,1541.27 2399.96,1536.04 2405.49,1530.82 2411.03,1524.95 2416.56,1519.04 2422.1,1513.29 2427.64,1507.59 2433.17,1501.9 2438.71,1495.78 2444.24,1489.44 2449.78,1483.17 2455.31,1476.79 2460.85,1469.95 2466.38,1462.99 2471.92,1456.01 2477.45,1449.02 2482.99,1442.12 2488.52,1435.02 2494.06,1427.81 2499.59,1420.4 2505.13,1412.89 2510.66,1405.31 2516.2,1397.67 2521.73,1389.93 2527.27,1382.13 2532.81,1374.27 2538.34,1366.3 2543.88,1358.29 2549.41,1350.32 2554.95,1342.5 2560.48,1334.41 2566.02,1326.15 2571.55,1318.2 2577.09,1310.41 2582.62,1302.54 2588.16,1294.68 2593.69,1286.8 2599.23,1279.01 2604.76,1271.41 2610.3,1264.57 2615.83,1257.35 2621.37,1250.52 2626.9,1242.79 2632.44,1235.23 2637.98,1227.17 2643.51,1219.42 2649.05,1212.12 2654.58,1204.06 2660.12,1195.44 2665.65,1186.36 2671.19,1177.19 2676.72,1168.08 2682.26,1158.37 2687.79,1148.41 2693.33,1138.46 2698.86,1128.56 2704.4,1118.25 2709.93,1108.07 2715.47,1097.52 2721,1086.78 2726.54,1075.94 2732.08,1065.26 2737.61,1054.37 2743.15,1043.46 2748.68,1032.24 2754.22,1020.85 2759.75,1009.36 2765.29,997.764 2770.82,986.052 2776.36,974.275 2781.89,962.307 2787.43,950.218 2792.96,938.007 2798.5,925.732 2804.03,913.301 2809.57,900.763 2815.1,888.069 2820.64,875.288 2826.17,862.333 2831.71,849.408 2837.25,836.489 2842.78,823.369 2848.32,809.9 2853.85,796.316 2859.39,782.735 2864.92,769.073 2870.46,756.003 2875.99,743.274 2881.53,731.085 2887.06,718.81 2892.6,705.646 2898.13,693.045 2903.67,679.662 2909.2,665.478 2914.74,650.901 2920.27,635.699 2925.81,620.381 2931.34,604.908 2936.88,589.445 2942.42,573.838 2947.95,557.873 2953.49,541.744 2959.02,525.547 2964.56,509.481 2970.09,493.049 2975.63,476.273 2981.16,459.373 2986.7,442.377 2992.23,425.274 2997.77,407.915 3003.3,391.21 3008.84,374.33 3014.37,357.235 3019.91,339.386 3025.44,321.563 3030.98,303.855 3036.52,285.398 3042.05,266.677 3047.59,247.958 3053.12,228.875 3058.66,210.026 3064.19,190.629 3069.73,170.837 "/>
</svg>
