<?xml version="1.0" encoding="utf-8"?>
<svg xmlns="http://www.w3.org/2000/svg" xmlns:xlink="http://www.w3.org/1999/xlink" width="800" height="600" viewBox="0 0 3200 2400">
<defs>
  <clipPath id="clip440">
    <rect x="0" y="0" width="3200" height="2400"/>
  </clipPath>
</defs>
<path clip-path="url(#clip440)" d="M0 2400 L3200 2400 L3200 0 L0 0  Z" fill="#ffffff" fill-rule="evenodd" fill-opacity="1"/>
<defs>
  <clipPath id="clip441">
    <rect x="640" y="0" width="2241" height="2241"/>
  </clipPath>
</defs>
<path clip-path="url(#clip440)" d="M233.135 2204.92 L3152.76 2204.92 L3152.76 111.592 L233.135 111.592  Z" fill="#eaeaea" fill-rule="evenodd" fill-opacity="1"/>
<defs>
  <clipPath id="clip442">
    <rect x="233" y="111" width="2921" height="2094"/>
  </clipPath>
</defs>
<polyline clip-path="url(#clip442)" style="stroke:#ffffff; stroke-linecap:round; stroke-linejoin:round; stroke-width:4; stroke-opacity:1; fill:none" points="315.766,2204.92 315.766,111.592 "/>
<polyline clip-path="url(#clip442)" style="stroke:#ffffff; stroke-linecap:round; stroke-linejoin:round; stroke-width:4; stroke-opacity:1; fill:none" points="866.638,2204.92 866.638,111.592 "/>
<polyline clip-path="url(#clip442)" style="stroke:#ffffff; stroke-linecap:round; stroke-linejoin:round; stroke-width:4; stroke-opacity:1; fill:none" points="1417.51,2204.92 1417.51,111.592 "/>
<polyline clip-path="url(#clip442)" style="stroke:#ffffff; stroke-linecap:round; stroke-linejoin:round; stroke-width:4; stroke-opacity:1; fill:none" points="1968.38,2204.92 1968.38,111.592 "/>
<polyline clip-path="url(#clip442)" style="stroke:#ffffff; stroke-linecap:round; stroke-linejoin:round; stroke-width:4; stroke-opacity:1; fill:none" points="2519.25,2204.92 2519.25,111.592 "/>
<polyline clip-path="url(#clip442)" style="stroke:#ffffff; stroke-linecap:round; stroke-linejoin:round; stroke-width:4; stroke-opacity:1; fill:none" points="3070.13,2204.92 3070.13,111.592 "/>
<polyline clip-path="url(#clip442)" style="stroke:#ffffff; stroke-linecap:round; stroke-linejoin:round; stroke-width:2; stroke-opacity:1; fill:none" points="591.202,2204.92 591.202,111.592 "/>
<polyline clip-path="url(#clip442)" style="stroke:#ffffff; stroke-linecap:round; stroke-linejoin:round; stroke-width:2; stroke-opacity:1; fill:none" points="1142.07,2204.92 1142.07,111.592 "/>
<polyline clip-path="url(#clip442)" style="stroke:#ffffff; stroke-linecap:round; stroke-linejoin:round; stroke-width:2; stroke-opacity:1; fill:none" points="1692.95,2204.92 1692.95,111.592 "/>
<polyline clip-path="url(#clip442)" style="stroke:#ffffff; stroke-linecap:round; stroke-linejoin:round; stroke-width:2; stroke-opacity:1; fill:none" points="2243.82,2204.92 2243.82,111.592 "/>
<polyline clip-path="url(#clip442)" style="stroke:#ffffff; stroke-linecap:round; stroke-linejoin:round; stroke-width:2; stroke-opacity:1; fill:none" points="2794.69,2204.92 2794.69,111.592 "/>
<polyline clip-path="url(#clip440)" style="stroke:#ffffff; stroke-linecap:round; stroke-linejoin:round; stroke-width:4; stroke-opacity:1; fill:none" points="233.135,2204.92 3152.76,2204.92 "/>
<polyline clip-path="url(#clip440)" style="stroke:#333333; stroke-linecap:round; stroke-linejoin:round; stroke-width:4; stroke-opacity:1; fill:none" points="315.766,2204.92 315.766,2223.82 "/>
<polyline clip-path="url(#clip440)" style="stroke:#333333; stroke-linecap:round; stroke-linejoin:round; stroke-width:4; stroke-opacity:1; fill:none" points="866.638,2204.92 866.638,2223.82 "/>
<polyline clip-path="url(#clip440)" style="stroke:#333333; stroke-linecap:round; stroke-linejoin:round; stroke-width:4; stroke-opacity:1; fill:none" points="1417.51,2204.92 1417.51,2223.82 "/>
<polyline clip-path="url(#clip440)" style="stroke:#333333; stroke-linecap:round; stroke-linejoin:round; stroke-width:4; stroke-opacity:1; fill:none" points="1968.38,2204.92 1968.38,2223.82 "/>
<polyline clip-path="url(#clip440)" style="stroke:#333333; stroke-linecap:round; stroke-linejoin:round; stroke-width:4; stroke-opacity:1; fill:none" points="2519.25,2204.92 2519.25,2223.82 "/>
<polyline clip-path="url(#clip440)" style="stroke:#333333; stroke-linecap:round; stroke-linejoin:round; stroke-width:4; stroke-opacity:1; fill:none" points="3070.13,2204.92 3070.13,2223.82 "/>
<polyline clip-path="url(#clip440)" style="stroke:#333333; stroke-linecap:round; stroke-linejoin:round; stroke-width:4; stroke-opacity:1; fill:none" points="591.202,2204.92 591.202,2214.37 "/>
<polyline clip-path="url(#clip440)" style="stroke:#333333; stroke-linecap:round; stroke-linejoin:round; stroke-width:4; stroke-opacity:1; fill:none" points="1142.07,2204.92 1142.07,2214.37 "/>
<polyline clip-path="url(#clip440)" style="stroke:#333333; stroke-linecap:round; stroke-linejoin:round; stroke-width:4; stroke-opacity:1; fill:none" points="1692.95,2204.92 1692.95,2214.37 "/>
<polyline clip-path="url(#clip440)" style="stroke:#333333; stroke-linecap:round; stroke-linejoin:round; stroke-width:4; stroke-opacity:1; fill:none" points="2243.82,2204.92 2243.82,2214.37 "/>
<polyline clip-path="url(#clip440)" style="stroke:#333333; stroke-linecap:round; stroke-linejoin:round; stroke-width:4; stroke-opacity:1; fill:none" points="2794.69,2204.92 2794.69,2214.37 "/>
<path clip-path="url(#clip440)" d="M315.766 2255.04 Q312.155 2255.04 310.326 2258.6 Q308.52 2262.14 308.52 2269.27 Q308.52 2276.38 310.326 2279.95 Q312.155 2283.49 315.766 2283.49 Q319.4 2283.49 321.206 2279.95 Q323.034 2276.38 323.034 2269.27 Q323.034 2262.14 321.206 2258.6 Q319.4 2255.04 315.766 2255.04 M315.766 2251.33 Q321.576 2251.33 324.631 2255.94 Q327.71 2260.52 327.71 2269.27 Q327.71 2278 324.631 2282.61 Q321.576 2287.19 315.766 2287.19 Q309.956 2287.19 306.877 2282.61 Q303.821 2278 303.821 2269.27 Q303.821 2260.52 306.877 2255.94 Q309.956 2251.33 315.766 2251.33 Z" fill="#4c4c4c" fill-rule="nonzero" fill-opacity="1" /><path clip-path="url(#clip440)" d="M857.02 2282.58 L864.658 2282.58 L864.658 2256.22 L856.348 2257.89 L856.348 2253.63 L864.612 2251.96 L869.288 2251.96 L869.288 2282.58 L876.927 2282.58 L876.927 2286.52 L857.02 2286.52 L857.02 2282.58 Z" fill="#4c4c4c" fill-rule="nonzero" fill-opacity="1" /><path clip-path="url(#clip440)" d="M1412.16 2282.58 L1428.48 2282.58 L1428.48 2286.52 L1406.54 2286.52 L1406.54 2282.58 Q1409.2 2279.83 1413.78 2275.2 Q1418.39 2270.55 1419.57 2269.21 Q1421.82 2266.68 1422.69 2264.95 Q1423.6 2263.19 1423.6 2261.5 Q1423.6 2258.74 1421.65 2257.01 Q1419.73 2255.27 1416.63 2255.27 Q1414.43 2255.27 1411.98 2256.03 Q1409.55 2256.8 1406.77 2258.35 L1406.77 2253.63 Q1409.59 2252.49 1412.05 2251.91 Q1414.5 2251.33 1416.54 2251.33 Q1421.91 2251.33 1425.1 2254.02 Q1428.3 2256.71 1428.3 2261.2 Q1428.3 2263.33 1427.49 2265.25 Q1426.7 2267.14 1424.59 2269.74 Q1424.01 2270.41 1420.91 2273.63 Q1417.81 2276.82 1412.16 2282.58 Z" fill="#4c4c4c" fill-rule="nonzero" fill-opacity="1" /><path clip-path="url(#clip440)" d="M1972.63 2267.89 Q1975.99 2268.6 1977.86 2270.87 Q1979.76 2273.14 1979.76 2276.47 Q1979.76 2281.59 1976.24 2284.39 Q1972.72 2287.19 1966.24 2287.19 Q1964.06 2287.19 1961.75 2286.75 Q1959.46 2286.33 1957 2285.48 L1957 2280.96 Q1958.95 2282.1 1961.26 2282.68 Q1963.58 2283.26 1966.1 2283.26 Q1970.5 2283.26 1972.79 2281.52 Q1975.11 2279.78 1975.11 2276.47 Q1975.11 2273.42 1972.95 2271.71 Q1970.82 2269.97 1967 2269.97 L1962.98 2269.97 L1962.98 2266.13 L1967.19 2266.13 Q1970.64 2266.13 1972.47 2264.76 Q1974.3 2263.37 1974.3 2260.78 Q1974.3 2258.12 1972.4 2256.71 Q1970.52 2255.27 1967 2255.27 Q1965.08 2255.27 1962.88 2255.69 Q1960.68 2256.1 1958.05 2256.98 L1958.05 2252.82 Q1960.71 2252.08 1963.02 2251.71 Q1965.36 2251.33 1967.42 2251.33 Q1972.74 2251.33 1975.85 2253.77 Q1978.95 2256.17 1978.95 2260.29 Q1978.95 2263.16 1977.3 2265.15 Q1975.66 2267.12 1972.63 2267.89 Z" fill="#4c4c4c" fill-rule="nonzero" fill-opacity="1" /><path clip-path="url(#clip440)" d="M2522.26 2256.03 L2510.46 2274.48 L2522.26 2274.48 L2522.26 2256.03 M2521.04 2251.96 L2526.92 2251.96 L2526.92 2274.48 L2531.85 2274.48 L2531.85 2278.37 L2526.92 2278.37 L2526.92 2286.52 L2522.26 2286.52 L2522.26 2278.37 L2506.66 2278.37 L2506.66 2273.86 L2521.04 2251.96 Z" fill="#4c4c4c" fill-rule="nonzero" fill-opacity="1" /><path clip-path="url(#clip440)" d="M3060.4 2251.96 L3078.76 2251.96 L3078.76 2255.9 L3064.69 2255.9 L3064.69 2264.37 Q3065.7 2264.02 3066.72 2263.86 Q3067.74 2263.67 3068.76 2263.67 Q3074.55 2263.67 3077.93 2266.84 Q3081.31 2270.02 3081.31 2275.43 Q3081.31 2281.01 3077.83 2284.11 Q3074.36 2287.19 3068.04 2287.19 Q3065.87 2287.19 3063.6 2286.82 Q3061.35 2286.45 3058.94 2285.71 L3058.94 2281.01 Q3061.03 2282.14 3063.25 2282.7 Q3065.47 2283.26 3067.95 2283.26 Q3071.95 2283.26 3074.29 2281.15 Q3076.63 2279.04 3076.63 2275.43 Q3076.63 2271.82 3074.29 2269.71 Q3071.95 2267.61 3067.95 2267.61 Q3066.07 2267.61 3064.2 2268.02 Q3062.35 2268.44 3060.4 2269.32 L3060.4 2251.96 Z" fill="#4c4c4c" fill-rule="nonzero" fill-opacity="1" /><path clip-path="url(#clip440)" d="M1692.01 2316.01 L1692.01 2326.14 L1704.07 2326.14 L1704.07 2330.69 L1692.01 2330.69 L1692.01 2350.04 Q1692.01 2354.4 1693.18 2355.64 Q1694.39 2356.88 1698.05 2356.88 L1704.07 2356.88 L1704.07 2361.78 L1698.05 2361.78 Q1691.27 2361.78 1688.7 2359.27 Q1686.12 2356.72 1686.12 2350.04 L1686.12 2330.69 L1681.82 2330.69 L1681.82 2326.14 L1686.12 2326.14 L1686.12 2316.01 L1692.01 2316.01 Z" fill="#000000" fill-rule="nonzero" fill-opacity="1" /><polyline clip-path="url(#clip442)" style="stroke:#ffffff; stroke-linecap:round; stroke-linejoin:round; stroke-width:4; stroke-opacity:1; fill:none" points="233.135,1943.72 3152.76,1943.72 "/>
<polyline clip-path="url(#clip442)" style="stroke:#ffffff; stroke-linecap:round; stroke-linejoin:round; stroke-width:4; stroke-opacity:1; fill:none" points="233.135,1528.34 3152.76,1528.34 "/>
<polyline clip-path="url(#clip442)" style="stroke:#ffffff; stroke-linecap:round; stroke-linejoin:round; stroke-width:4; stroke-opacity:1; fill:none" points="233.135,1112.96 3152.76,1112.96 "/>
<polyline clip-path="url(#clip442)" style="stroke:#ffffff; stroke-linecap:round; stroke-linejoin:round; stroke-width:4; stroke-opacity:1; fill:none" points="233.135,697.579 3152.76,697.579 "/>
<polyline clip-path="url(#clip442)" style="stroke:#ffffff; stroke-linecap:round; stroke-linejoin:round; stroke-width:4; stroke-opacity:1; fill:none" points="233.135,282.2 3152.76,282.2 "/>
<polyline clip-path="url(#clip442)" style="stroke:#ffffff; stroke-linecap:round; stroke-linejoin:round; stroke-width:2; stroke-opacity:1; fill:none" points="233.135,2151.41 3152.76,2151.41 "/>
<polyline clip-path="url(#clip442)" style="stroke:#ffffff; stroke-linecap:round; stroke-linejoin:round; stroke-width:2; stroke-opacity:1; fill:none" points="233.135,1736.03 3152.76,1736.03 "/>
<polyline clip-path="url(#clip442)" style="stroke:#ffffff; stroke-linecap:round; stroke-linejoin:round; stroke-width:2; stroke-opacity:1; fill:none" points="233.135,1320.65 3152.76,1320.65 "/>
<polyline clip-path="url(#clip442)" style="stroke:#ffffff; stroke-linecap:round; stroke-linejoin:round; stroke-width:2; stroke-opacity:1; fill:none" points="233.135,905.268 3152.76,905.268 "/>
<polyline clip-path="url(#clip442)" style="stroke:#ffffff; stroke-linecap:round; stroke-linejoin:round; stroke-width:2; stroke-opacity:1; fill:none" points="233.135,489.889 3152.76,489.889 "/>
<polyline clip-path="url(#clip440)" style="stroke:#ffffff; stroke-linecap:round; stroke-linejoin:round; stroke-width:4; stroke-opacity:1; fill:none" points="233.135,2204.92 233.135,111.592 "/>
<polyline clip-path="url(#clip440)" style="stroke:#333333; stroke-linecap:round; stroke-linejoin:round; stroke-width:4; stroke-opacity:1; fill:none" points="233.135,1943.72 214.237,1943.72 "/>
<polyline clip-path="url(#clip440)" style="stroke:#333333; stroke-linecap:round; stroke-linejoin:round; stroke-width:4; stroke-opacity:1; fill:none" points="233.135,1528.34 214.237,1528.34 "/>
<polyline clip-path="url(#clip440)" style="stroke:#333333; stroke-linecap:round; stroke-linejoin:round; stroke-width:4; stroke-opacity:1; fill:none" points="233.135,1112.96 214.237,1112.96 "/>
<polyline clip-path="url(#clip440)" style="stroke:#333333; stroke-linecap:round; stroke-linejoin:round; stroke-width:4; stroke-opacity:1; fill:none" points="233.135,697.579 214.237,697.579 "/>
<polyline clip-path="url(#clip440)" style="stroke:#333333; stroke-linecap:round; stroke-linejoin:round; stroke-width:4; stroke-opacity:1; fill:none" points="233.135,282.2 214.237,282.2 "/>
<polyline clip-path="url(#clip440)" style="stroke:#333333; stroke-linecap:round; stroke-linejoin:round; stroke-width:4; stroke-opacity:1; fill:none" points="233.135,2151.41 223.686,2151.41 "/>
<polyline clip-path="url(#clip440)" style="stroke:#333333; stroke-linecap:round; stroke-linejoin:round; stroke-width:4; stroke-opacity:1; fill:none" points="233.135,1736.03 223.686,1736.03 "/>
<polyline clip-path="url(#clip440)" style="stroke:#333333; stroke-linecap:round; stroke-linejoin:round; stroke-width:4; stroke-opacity:1; fill:none" points="233.135,1320.65 223.686,1320.65 "/>
<polyline clip-path="url(#clip440)" style="stroke:#333333; stroke-linecap:round; stroke-linejoin:round; stroke-width:4; stroke-opacity:1; fill:none" points="233.135,905.268 223.686,905.268 "/>
<polyline clip-path="url(#clip440)" style="stroke:#333333; stroke-linecap:round; stroke-linejoin:round; stroke-width:4; stroke-opacity:1; fill:none" points="233.135,489.889 223.686,489.889 "/>
<path clip-path="url(#clip440)" d="M104.145 1929.51 Q100.533 1929.51 98.7048 1933.08 Q96.8992 1936.62 96.8992 1943.75 Q96.8992 1950.86 98.7048 1954.42 Q100.533 1957.96 104.145 1957.96 Q107.779 1957.96 109.584 1954.42 Q111.413 1950.86 111.413 1943.75 Q111.413 1936.62 109.584 1933.08 Q107.779 1929.51 104.145 1929.51 M104.145 1925.81 Q109.955 1925.81 113.01 1930.42 Q116.089 1935 116.089 1943.75 Q116.089 1952.48 113.01 1957.08 Q109.955 1961.67 104.145 1961.67 Q98.3344 1961.67 95.2557 1957.08 Q92.2002 1952.48 92.2002 1943.75 Q92.2002 1935 95.2557 1930.42 Q98.3344 1925.81 104.145 1925.81 Z" fill="#4c4c4c" fill-rule="nonzero" fill-opacity="1" /><path clip-path="url(#clip440)" d="M124.306 1955.12 L129.191 1955.12 L129.191 1961 L124.306 1961 L124.306 1955.12 Z" fill="#4c4c4c" fill-rule="nonzero" fill-opacity="1" /><path clip-path="url(#clip440)" d="M139.515 1960.28 L139.515 1956.02 Q141.274 1956.85 143.08 1957.29 Q144.885 1957.73 146.621 1957.73 Q151.251 1957.73 153.681 1954.63 Q156.135 1951.5 156.482 1945.16 Q155.14 1947.15 153.079 1948.22 Q151.019 1949.28 148.519 1949.28 Q143.334 1949.28 140.302 1946.16 Q137.293 1943.01 137.293 1937.57 Q137.293 1932.25 140.441 1929.03 Q143.589 1925.81 148.82 1925.81 Q154.816 1925.81 157.964 1930.42 Q161.135 1935 161.135 1943.75 Q161.135 1951.92 157.246 1956.81 Q153.38 1961.67 146.829 1961.67 Q145.07 1961.67 143.265 1961.32 Q141.459 1960.97 139.515 1960.28 M148.82 1945.63 Q151.968 1945.63 153.797 1943.47 Q155.649 1941.32 155.649 1937.57 Q155.649 1933.84 153.797 1931.69 Q151.968 1929.51 148.82 1929.51 Q145.672 1929.51 143.82 1931.69 Q141.992 1933.84 141.992 1937.57 Q141.992 1941.32 143.82 1943.47 Q145.672 1945.63 148.82 1945.63 Z" fill="#4c4c4c" fill-rule="nonzero" fill-opacity="1" /><path clip-path="url(#clip440)" d="M96.3668 1541.68 L104.006 1541.68 L104.006 1515.32 L95.6955 1516.98 L95.6955 1512.72 L103.959 1511.06 L108.635 1511.06 L108.635 1541.68 L116.274 1541.68 L116.274 1545.62 L96.3668 1545.62 L96.3668 1541.68 Z" fill="#4c4c4c" fill-rule="nonzero" fill-opacity="1" /><path clip-path="url(#clip440)" d="M125.718 1539.74 L130.603 1539.74 L130.603 1545.62 L125.718 1545.62 L125.718 1539.74 Z" fill="#4c4c4c" fill-rule="nonzero" fill-opacity="1" /><path clip-path="url(#clip440)" d="M144.816 1541.68 L161.135 1541.68 L161.135 1545.62 L139.191 1545.62 L139.191 1541.68 Q141.853 1538.93 146.436 1534.3 Q151.042 1529.64 152.223 1528.3 Q154.468 1525.78 155.348 1524.04 Q156.251 1522.28 156.251 1520.59 Q156.251 1517.84 154.306 1516.1 Q152.385 1514.37 149.283 1514.37 Q147.084 1514.37 144.63 1515.13 Q142.2 1515.89 139.422 1517.45 L139.422 1512.72 Q142.246 1511.59 144.7 1511.01 Q147.154 1510.43 149.191 1510.43 Q154.561 1510.43 157.755 1513.12 Q160.95 1515.8 160.95 1520.29 Q160.95 1522.42 160.14 1524.34 Q159.353 1526.24 157.246 1528.83 Q156.667 1529.51 153.566 1532.72 Q150.464 1535.92 144.816 1541.68 Z" fill="#4c4c4c" fill-rule="nonzero" fill-opacity="1" /><path clip-path="url(#clip440)" d="M95.765 1126.3 L103.404 1126.3 L103.404 1099.94 L95.0937 1101.6 L95.0937 1097.34 L103.358 1095.68 L108.033 1095.68 L108.033 1126.3 L115.672 1126.3 L115.672 1130.24 L95.765 1130.24 L95.765 1126.3 Z" fill="#4c4c4c" fill-rule="nonzero" fill-opacity="1" /><path clip-path="url(#clip440)" d="M125.117 1124.36 L130.001 1124.36 L130.001 1130.24 L125.117 1130.24 L125.117 1124.36 Z" fill="#4c4c4c" fill-rule="nonzero" fill-opacity="1" /><path clip-path="url(#clip440)" d="M140.232 1095.68 L158.589 1095.68 L158.589 1099.61 L144.515 1099.61 L144.515 1108.08 Q145.533 1107.74 146.552 1107.58 Q147.57 1107.39 148.589 1107.39 Q154.376 1107.39 157.755 1110.56 Q161.135 1113.73 161.135 1119.15 Q161.135 1124.73 157.663 1127.83 Q154.191 1130.91 147.871 1130.91 Q145.695 1130.91 143.427 1130.54 Q141.181 1130.17 138.774 1129.43 L138.774 1124.73 Q140.857 1125.86 143.08 1126.42 Q145.302 1126.97 147.779 1126.97 Q151.783 1126.97 154.121 1124.87 Q156.459 1122.76 156.459 1119.15 Q156.459 1115.54 154.121 1113.43 Q151.783 1111.33 147.779 1111.33 Q145.904 1111.33 144.029 1111.74 Q142.177 1112.16 140.232 1113.04 L140.232 1095.68 Z" fill="#4c4c4c" fill-rule="nonzero" fill-opacity="1" /><path clip-path="url(#clip440)" d="M94.8622 710.923 L102.501 710.923 L102.501 684.558 L94.1909 686.224 L94.1909 681.965 L102.455 680.299 L107.131 680.299 L107.131 710.923 L114.769 710.923 L114.769 714.859 L94.8622 714.859 L94.8622 710.923 Z" fill="#4c4c4c" fill-rule="nonzero" fill-opacity="1" /><path clip-path="url(#clip440)" d="M124.214 708.979 L129.098 708.979 L129.098 714.859 L124.214 714.859 L124.214 708.979 Z" fill="#4c4c4c" fill-rule="nonzero" fill-opacity="1" /><path clip-path="url(#clip440)" d="M149.283 698.447 Q145.95 698.447 144.029 700.229 Q142.13 702.011 142.13 705.136 Q142.13 708.261 144.029 710.044 Q145.95 711.826 149.283 711.826 Q152.617 711.826 154.538 710.044 Q156.459 708.238 156.459 705.136 Q156.459 702.011 154.538 700.229 Q152.64 698.447 149.283 698.447 M144.607 696.456 Q141.598 695.715 139.908 693.655 Q138.242 691.595 138.242 688.632 Q138.242 684.488 141.181 682.081 Q144.144 679.674 149.283 679.674 Q154.445 679.674 157.385 682.081 Q160.325 684.488 160.325 688.632 Q160.325 691.595 158.635 693.655 Q156.968 695.715 153.982 696.456 Q157.362 697.243 159.237 699.535 Q161.135 701.826 161.135 705.136 Q161.135 710.16 158.056 712.845 Q155.001 715.53 149.283 715.53 Q143.566 715.53 140.487 712.845 Q137.431 710.16 137.431 705.136 Q137.431 701.826 139.33 699.535 Q141.228 697.243 144.607 696.456 M142.894 689.072 Q142.894 691.757 144.561 693.261 Q146.251 694.766 149.283 694.766 Q152.292 694.766 153.982 693.261 Q155.695 691.757 155.695 689.072 Q155.695 686.386 153.982 684.882 Q152.292 683.377 149.283 683.377 Q146.251 683.377 144.561 684.882 Q142.894 686.386 142.894 689.072 Z" fill="#4c4c4c" fill-rule="nonzero" fill-opacity="1" /><path clip-path="url(#clip440)" d="M99.214 295.544 L115.533 295.544 L115.533 299.48 L93.589 299.48 L93.589 295.544 Q96.2511 292.79 100.834 288.16 Q105.441 283.507 106.621 282.165 Q108.867 279.642 109.746 277.906 Q110.649 276.146 110.649 274.457 Q110.649 271.702 108.705 269.966 Q106.783 268.23 103.682 268.23 Q101.483 268.23 99.0288 268.994 Q96.5983 269.758 93.8205 271.308 L93.8205 266.586 Q96.6446 265.452 99.0983 264.873 Q101.552 264.295 103.589 264.295 Q108.959 264.295 112.154 266.98 Q115.348 269.665 115.348 274.156 Q115.348 276.285 114.538 278.207 Q113.751 280.105 111.644 282.697 Q111.066 283.369 107.964 286.586 Q104.862 289.781 99.214 295.544 Z" fill="#4c4c4c" fill-rule="nonzero" fill-opacity="1" /><path clip-path="url(#clip440)" d="M125.348 293.6 L130.232 293.6 L130.232 299.48 L125.348 299.48 L125.348 293.6 Z" fill="#4c4c4c" fill-rule="nonzero" fill-opacity="1" /><path clip-path="url(#clip440)" d="M141.228 295.544 L148.867 295.544 L148.867 269.179 L140.556 270.845 L140.556 266.586 L148.82 264.92 L153.496 264.92 L153.496 295.544 L161.135 295.544 L161.135 299.48 L141.228 299.48 L141.228 295.544 Z" fill="#4c4c4c" fill-rule="nonzero" fill-opacity="1" /><path clip-path="url(#clip440)" d="M18.2962 1141.64 L35.6428 1154.53 L53.9442 1140.97 L53.9442 1147.88 L39.9396 1158.26 L53.9442 1168.63 L53.9442 1175.54 L35.2926 1161.69 L18.2962 1174.36 L18.2962 1167.45 L30.9958 1158 L18.2962 1148.55 L18.2962 1141.64 Z" fill="#000000" fill-rule="nonzero" fill-opacity="1" /><path clip-path="url(#clip440)" d="M635.876 20.3876 L635.876 25.4223 Q633.62 24.2649 631.189 23.6862 Q628.758 23.1075 626.154 23.1075 Q622.19 23.1075 620.194 24.3228 Q618.226 25.5381 618.226 27.9686 Q618.226 29.8204 619.644 30.891 Q621.062 31.9327 625.344 32.8876 L627.167 33.2926 Q632.838 34.5079 635.211 36.7359 Q637.613 38.935 637.613 42.8991 Q637.613 47.4129 634.025 50.046 Q630.466 52.6791 624.216 52.6791 Q621.611 52.6791 618.776 52.1583 Q615.969 51.6664 612.844 50.6537 L612.844 45.156 Q615.796 46.6896 618.66 47.4708 Q621.525 48.2231 624.331 48.2231 Q628.093 48.2231 630.118 46.95 Q632.144 45.6479 632.144 43.3042 Q632.144 41.134 630.668 39.9766 Q629.221 38.8192 624.274 37.7486 L622.422 37.3146 Q617.474 36.273 615.275 34.1318 Q613.076 31.9616 613.076 28.2001 Q613.076 23.6283 616.316 21.1399 Q619.557 18.6515 625.518 18.6515 Q628.469 18.6515 631.073 19.0855 Q633.677 19.5196 635.876 20.3876 Z" fill="#000000" fill-rule="nonzero" fill-opacity="1" /><path clip-path="url(#clip440)" d="M658.648 23.1654 Q654.366 23.1654 651.878 26.5218 Q649.389 29.8494 649.389 35.6653 Q649.389 41.4813 651.849 44.8377 Q654.337 48.1653 658.648 48.1653 Q662.902 48.1653 665.39 44.8088 Q667.879 41.4523 667.879 35.6653 Q667.879 29.9072 665.39 26.5508 Q662.902 23.1654 658.648 23.1654 M658.648 18.6515 Q665.593 18.6515 669.557 23.1654 Q673.521 27.6792 673.521 35.6653 Q673.521 43.6225 669.557 48.1653 Q665.593 52.6791 658.648 52.6791 Q651.675 52.6791 647.711 48.1653 Q643.776 43.6225 643.776 35.6653 Q643.776 27.6792 647.711 23.1654 Q651.675 18.6515 658.648 18.6515 Z" fill="#000000" fill-rule="nonzero" fill-opacity="1" /><path clip-path="url(#clip440)" d="M682.346 6.81709 L687.67 6.81709 L687.67 51.84 L682.346 51.84 L682.346 6.81709 Z" fill="#000000" fill-rule="nonzero" fill-opacity="1" /><path clip-path="url(#clip440)" d="M698.26 39.0507 L698.26 19.4328 L703.584 19.4328 L703.584 38.8482 Q703.584 43.4488 705.378 45.7636 Q707.172 48.0495 710.76 48.0495 Q715.072 48.0495 717.56 45.3007 Q720.077 42.5519 720.077 37.8065 L720.077 19.4328 L725.401 19.4328 L725.401 51.84 L720.077 51.84 L720.077 46.8632 Q718.139 49.8145 715.564 51.2613 Q713.017 52.6791 709.632 52.6791 Q704.047 52.6791 701.154 49.2069 Q698.26 45.7347 698.26 39.0507 M711.657 18.6515 L711.657 18.6515 Z" fill="#000000" fill-rule="nonzero" fill-opacity="1" /><path clip-path="url(#clip440)" d="M759.689 20.677 L759.689 25.6538 Q757.433 24.4096 755.147 23.802 Q752.89 23.1654 750.575 23.1654 Q745.396 23.1654 742.531 26.464 Q739.666 29.7336 739.666 35.6653 Q739.666 41.597 742.531 44.8956 Q745.396 48.1653 750.575 48.1653 Q752.89 48.1653 755.147 47.5576 Q757.433 46.921 759.689 45.6768 L759.689 50.5958 Q757.461 51.6375 755.06 52.1583 Q752.687 52.6791 749.996 52.6791 Q742.676 52.6791 738.364 48.0784 Q734.053 43.4778 734.053 35.6653 Q734.053 27.7371 738.393 23.1943 Q742.762 18.6515 750.343 18.6515 Q752.803 18.6515 755.147 19.1724 Q757.49 19.6642 759.689 20.677 M752.166 51.84 Q753.758 53.634 754.539 55.1386 Q755.32 56.6722 755.32 58.061 Q755.32 60.6362 753.584 61.9383 Q751.848 63.2693 748.434 63.2693 Q747.103 63.2693 745.83 63.0957 Q744.585 62.9221 743.341 62.5749 L743.341 58.7844 Q744.325 59.2763 745.396 59.4788 Q746.466 59.7103 747.826 59.7103 Q749.533 59.7103 750.401 59.0159 Q751.269 58.3214 751.269 56.9904 Q751.269 56.1224 750.633 54.8492 Q750.025 53.605 748.723 51.84 L752.166 51.84 Z" fill="#000000" fill-rule="nonzero" fill-opacity="1" /><path clip-path="url(#clip440)" d="M783.677 35.5496 Q777.224 35.5496 774.736 37.0253 Q772.247 38.501 772.247 42.06 Q772.247 44.8956 774.099 46.5738 Q775.98 48.2231 779.192 48.2231 Q783.619 48.2231 786.281 45.0981 Q788.972 41.9442 788.972 36.7359 L788.972 35.5496 L783.677 35.5496 M794.296 33.3505 L794.296 51.84 L788.972 51.84 L788.972 46.921 Q787.149 49.8724 784.429 51.2902 Q781.709 52.6791 777.774 52.6791 Q772.797 52.6791 769.846 49.9014 Q766.923 47.0947 766.923 42.4072 Q766.923 36.9385 770.569 34.1607 Q774.244 31.3829 781.506 31.3829 L788.972 31.3829 L788.972 30.8621 Q788.972 27.1874 786.541 25.1908 Q784.14 23.1654 779.77 23.1654 Q776.993 23.1654 774.36 23.8309 Q771.726 24.4964 769.296 25.8274 L769.296 20.9085 Q772.218 19.78 774.967 19.2302 Q777.716 18.6515 780.32 18.6515 Q787.351 18.6515 790.824 22.2973 Q794.296 25.9431 794.296 33.3505 M780.436 12.199 L778.787 10.6076 Q778.15 10.0289 777.658 9.76847 Q777.195 9.47912 776.819 9.47912 Q775.719 9.47912 775.199 10.5497 Q774.678 11.5914 774.62 13.964 L771.003 13.964 Q771.061 10.0578 772.537 7.94556 Q774.012 5.80437 776.645 5.80437 Q777.745 5.80437 778.671 6.20946 Q779.597 6.61455 780.667 7.5694 L782.317 9.16083 Q782.953 9.73953 783.416 10.0289 Q783.908 10.2893 784.284 10.2893 Q785.384 10.2893 785.905 9.24764 Q786.425 8.17704 786.483 5.80437 L790.1 5.80437 Q790.042 9.7106 788.567 11.8518 Q787.091 13.964 784.458 13.964 Q783.358 13.964 782.432 13.559 Q781.506 13.1539 780.436 12.199 Z" fill="#000000" fill-rule="nonzero" fill-opacity="1" /><path clip-path="url(#clip440)" d="M817.82 23.1654 Q813.538 23.1654 811.049 26.5218 Q808.561 29.8494 808.561 35.6653 Q808.561 41.4813 811.02 44.8377 Q813.509 48.1653 817.82 48.1653 Q822.073 48.1653 824.562 44.8088 Q827.05 41.4523 827.05 35.6653 Q827.05 29.9072 824.562 26.5508 Q822.073 23.1654 817.82 23.1654 M817.82 18.6515 Q824.764 18.6515 828.728 23.1654 Q832.693 27.6792 832.693 35.6653 Q832.693 43.6225 828.728 48.1653 Q824.764 52.6791 817.82 52.6791 Q810.847 52.6791 806.882 48.1653 Q802.947 43.6225 802.947 35.6653 Q802.947 27.6792 806.882 23.1654 Q810.847 18.6515 817.82 18.6515 Z" fill="#000000" fill-rule="nonzero" fill-opacity="1" /><path clip-path="url(#clip440)" d="M881.68 24.3517 L881.68 6.81709 L887.004 6.81709 L887.004 51.84 L881.68 51.84 L881.68 46.9789 Q880.001 49.8724 877.426 51.2902 Q874.88 52.6791 871.292 52.6791 Q865.418 52.6791 861.714 47.9916 Q858.04 43.3042 858.04 35.6653 Q858.04 28.0265 861.714 23.339 Q865.418 18.6515 871.292 18.6515 Q874.88 18.6515 877.426 20.0693 Q880.001 21.4582 881.68 24.3517 M863.537 35.6653 Q863.537 41.5391 865.939 44.8956 Q868.369 48.2231 872.594 48.2231 Q876.818 48.2231 879.249 44.8956 Q881.68 41.5391 881.68 35.6653 Q881.68 29.7915 879.249 26.464 Q876.818 23.1075 872.594 23.1075 Q868.369 23.1075 865.939 26.464 Q863.537 29.7915 863.537 35.6653 Z" fill="#000000" fill-rule="nonzero" fill-opacity="1" /><path clip-path="url(#clip440)" d="M912.698 35.5496 Q906.245 35.5496 903.757 37.0253 Q901.269 38.501 901.269 42.06 Q901.269 44.8956 903.12 46.5738 Q905.001 48.2231 908.213 48.2231 Q912.64 48.2231 915.302 45.0981 Q917.993 41.9442 917.993 36.7359 L917.993 35.5496 L912.698 35.5496 M923.317 33.3505 L923.317 51.84 L917.993 51.84 L917.993 46.921 Q916.17 49.8724 913.45 51.2902 Q910.73 52.6791 906.795 52.6791 Q901.818 52.6791 898.867 49.9014 Q895.945 47.0947 895.945 42.4072 Q895.945 36.9385 899.59 34.1607 Q903.265 31.3829 910.528 31.3829 L917.993 31.3829 L917.993 30.8621 Q917.993 27.1874 915.562 25.1908 Q913.161 23.1654 908.792 23.1654 Q906.014 23.1654 903.381 23.8309 Q900.748 24.4964 898.317 25.8274 L898.317 20.9085 Q901.24 19.78 903.988 19.2302 Q906.737 18.6515 909.341 18.6515 Q916.373 18.6515 919.845 22.2973 Q923.317 25.9431 923.317 33.3505 Z" fill="#000000" fill-rule="nonzero" fill-opacity="1" /><path clip-path="url(#clip440)" d="M980.84 34.3054 L980.84 36.9095 L956.361 36.9095 Q956.708 42.4072 959.659 45.3007 Q962.64 48.1653 967.935 48.1653 Q971.002 48.1653 973.867 47.4129 Q976.76 46.6606 979.596 45.156 L979.596 50.1907 Q976.731 51.406 973.722 52.0425 Q970.713 52.6791 967.617 52.6791 Q959.862 52.6791 955.319 48.1653 Q950.805 43.6514 950.805 35.9547 Q950.805 27.9975 955.088 23.339 Q959.399 18.6515 966.691 18.6515 Q973.23 18.6515 977.02 22.876 Q980.84 27.0716 980.84 34.3054 M975.516 32.7429 Q975.458 28.3737 973.056 25.7695 Q970.684 23.1654 966.749 23.1654 Q962.293 23.1654 959.602 25.6827 Q956.94 28.2001 956.534 32.7718 L975.516 32.7429 Z" fill="#000000" fill-rule="nonzero" fill-opacity="1" /><path clip-path="url(#clip440)" d="M992.761 35.6653 Q992.761 41.5391 995.163 44.8956 Q997.593 48.2231 1001.82 48.2231 Q1006.04 48.2231 1008.47 44.8956 Q1010.9 41.5391 1010.9 35.6653 Q1010.9 29.7915 1008.47 26.464 Q1006.04 23.1075 1001.82 23.1075 Q997.593 23.1075 995.163 26.464 Q992.761 29.7915 992.761 35.6653 M1010.9 46.9789 Q1009.23 49.8724 1006.65 51.2902 Q1004.1 52.6791 1000.52 52.6791 Q994.642 52.6791 990.938 47.9916 Q987.263 43.3042 987.263 35.6653 Q987.263 28.0265 990.938 23.339 Q994.642 18.6515 1000.52 18.6515 Q1004.1 18.6515 1006.65 20.0693 Q1009.23 21.4582 1010.9 24.3517 L1010.9 19.4328 L1016.23 19.4328 L1016.23 64.1663 L1010.9 64.1663 L1010.9 46.9789 Z" fill="#000000" fill-rule="nonzero" fill-opacity="1" /><path clip-path="url(#clip440)" d="M1026.64 39.0507 L1026.64 19.4328 L1031.97 19.4328 L1031.97 38.8482 Q1031.97 43.4488 1033.76 45.7636 Q1035.56 48.0495 1039.14 48.0495 Q1043.46 48.0495 1045.94 45.3007 Q1048.46 42.5519 1048.46 37.8065 L1048.46 19.4328 L1053.79 19.4328 L1053.79 51.84 L1048.46 51.84 L1048.46 46.8632 Q1046.52 49.8145 1043.95 51.2613 Q1041.4 52.6791 1038.02 52.6791 Q1032.43 52.6791 1029.54 49.2069 Q1026.64 45.7347 1026.64 39.0507 M1040.04 18.6515 L1040.04 18.6515 Z" fill="#000000" fill-rule="nonzero" fill-opacity="1" /><path clip-path="url(#clip440)" d="M1079.48 35.5496 Q1073.03 35.5496 1070.54 37.0253 Q1068.05 38.501 1068.05 42.06 Q1068.05 44.8956 1069.9 46.5738 Q1071.78 48.2231 1074.99 48.2231 Q1079.42 48.2231 1082.08 45.0981 Q1084.77 41.9442 1084.77 36.7359 L1084.77 35.5496 L1079.48 35.5496 M1090.1 33.3505 L1090.1 51.84 L1084.77 51.84 L1084.77 46.921 Q1082.95 49.8724 1080.23 51.2902 Q1077.51 52.6791 1073.58 52.6791 Q1068.6 52.6791 1065.65 49.9014 Q1062.73 47.0947 1062.73 42.4072 Q1062.73 36.9385 1066.37 34.1607 Q1070.05 31.3829 1077.31 31.3829 L1084.77 31.3829 L1084.77 30.8621 Q1084.77 27.1874 1082.34 25.1908 Q1079.94 23.1654 1075.57 23.1654 Q1072.8 23.1654 1070.16 23.8309 Q1067.53 24.4964 1065.1 25.8274 L1065.1 20.9085 Q1068.02 19.78 1070.77 19.2302 Q1073.52 18.6515 1076.12 18.6515 Q1083.15 18.6515 1086.63 22.2973 Q1090.1 25.9431 1090.1 33.3505 Z" fill="#000000" fill-rule="nonzero" fill-opacity="1" /><path clip-path="url(#clip440)" d="M1124.39 20.677 L1124.39 25.6538 Q1122.13 24.4096 1119.84 23.802 Q1117.59 23.1654 1115.27 23.1654 Q1110.09 23.1654 1107.23 26.464 Q1104.36 29.7336 1104.36 35.6653 Q1104.36 41.597 1107.23 44.8956 Q1110.09 48.1653 1115.27 48.1653 Q1117.59 48.1653 1119.84 47.5576 Q1122.13 46.921 1124.39 45.6768 L1124.39 50.5958 Q1122.16 51.6375 1119.76 52.1583 Q1117.38 52.6791 1114.69 52.6791 Q1107.37 52.6791 1103.06 48.0784 Q1098.75 43.4778 1098.75 35.6653 Q1098.75 27.7371 1103.09 23.1943 Q1107.46 18.6515 1115.04 18.6515 Q1117.5 18.6515 1119.84 19.1724 Q1122.19 19.6642 1124.39 20.677 M1116.86 51.84 Q1118.45 53.634 1119.24 55.1386 Q1120.02 56.6722 1120.02 58.061 Q1120.02 60.6362 1118.28 61.9383 Q1116.55 63.2693 1113.13 63.2693 Q1111.8 63.2693 1110.53 63.0957 Q1109.28 62.9221 1108.04 62.5749 L1108.04 58.7844 Q1109.02 59.2763 1110.09 59.4788 Q1111.16 59.7103 1112.52 59.7103 Q1114.23 59.7103 1115.1 59.0159 Q1115.97 58.3214 1115.97 56.9904 Q1115.97 56.1224 1115.33 54.8492 Q1114.72 53.605 1113.42 51.84 L1116.86 51.84 Z" fill="#000000" fill-rule="nonzero" fill-opacity="1" /><path clip-path="url(#clip440)" d="M1148.37 35.5496 Q1141.92 35.5496 1139.43 37.0253 Q1136.94 38.501 1136.94 42.06 Q1136.94 44.8956 1138.8 46.5738 Q1140.68 48.2231 1143.89 48.2231 Q1148.32 48.2231 1150.98 45.0981 Q1153.67 41.9442 1153.67 36.7359 L1153.67 35.5496 L1148.37 35.5496 M1158.99 33.3505 L1158.99 51.84 L1153.67 51.84 L1153.67 46.921 Q1151.85 49.8724 1149.13 51.2902 Q1146.41 52.6791 1142.47 52.6791 Q1137.49 52.6791 1134.54 49.9014 Q1131.62 47.0947 1131.62 42.4072 Q1131.62 36.9385 1135.27 34.1607 Q1138.94 31.3829 1146.2 31.3829 L1153.67 31.3829 L1153.67 30.8621 Q1153.67 27.1874 1151.24 25.1908 Q1148.84 23.1654 1144.47 23.1654 Q1141.69 23.1654 1139.06 23.8309 Q1136.42 24.4964 1133.99 25.8274 L1133.99 20.9085 Q1136.92 19.78 1139.66 19.2302 Q1142.41 18.6515 1145.02 18.6515 Q1152.05 18.6515 1155.52 22.2973 Q1158.99 25.9431 1158.99 33.3505 M1145.13 12.199 L1143.48 10.6076 Q1142.85 10.0289 1142.36 9.76847 Q1141.89 9.47912 1141.52 9.47912 Q1140.42 9.47912 1139.9 10.5497 Q1139.37 11.5914 1139.32 13.964 L1135.7 13.964 Q1135.76 10.0578 1137.23 7.94556 Q1138.71 5.80437 1141.34 5.80437 Q1142.44 5.80437 1143.37 6.20946 Q1144.29 6.61455 1145.36 7.5694 L1147.01 9.16083 Q1147.65 9.73953 1148.11 10.0289 Q1148.61 10.2893 1148.98 10.2893 Q1150.08 10.2893 1150.6 9.24764 Q1151.12 8.17704 1151.18 5.80437 L1154.8 5.80437 Q1154.74 9.7106 1153.26 11.8518 Q1151.79 13.964 1149.15 13.964 Q1148.06 13.964 1147.13 13.559 Q1146.2 13.1539 1145.13 12.199 Z" fill="#000000" fill-rule="nonzero" fill-opacity="1" /><path clip-path="url(#clip440)" d="M1182.52 23.1654 Q1178.23 23.1654 1175.75 26.5218 Q1173.26 29.8494 1173.26 35.6653 Q1173.26 41.4813 1175.72 44.8377 Q1178.21 48.1653 1182.52 48.1653 Q1186.77 48.1653 1189.26 44.8088 Q1191.75 41.4523 1191.75 35.6653 Q1191.75 29.9072 1189.26 26.5508 Q1186.77 23.1654 1182.52 23.1654 M1182.52 18.6515 Q1189.46 18.6515 1193.43 23.1654 Q1197.39 27.6792 1197.39 35.6653 Q1197.39 43.6225 1193.43 48.1653 Q1189.46 52.6791 1182.52 52.6791 Q1175.54 52.6791 1171.58 48.1653 Q1167.64 43.6225 1167.64 35.6653 Q1167.64 27.6792 1171.58 23.1654 Q1175.54 18.6515 1182.52 18.6515 Z" fill="#000000" fill-rule="nonzero" fill-opacity="1" /><path clip-path="url(#clip440)" d="M1246.38 24.3517 L1246.38 6.81709 L1251.7 6.81709 L1251.7 51.84 L1246.38 51.84 L1246.38 46.9789 Q1244.7 49.8724 1242.12 51.2902 Q1239.58 52.6791 1235.99 52.6791 Q1230.12 52.6791 1226.41 47.9916 Q1222.74 43.3042 1222.74 35.6653 Q1222.74 28.0265 1226.41 23.339 Q1230.12 18.6515 1235.99 18.6515 Q1239.58 18.6515 1242.12 20.0693 Q1244.7 21.4582 1246.38 24.3517 M1228.23 35.6653 Q1228.23 41.5391 1230.64 44.8956 Q1233.07 48.2231 1237.29 48.2231 Q1241.52 48.2231 1243.95 44.8956 Q1246.38 41.5391 1246.38 35.6653 Q1246.38 29.7915 1243.95 26.464 Q1241.52 23.1075 1237.29 23.1075 Q1233.07 23.1075 1230.64 26.464 Q1228.23 29.7915 1228.23 35.6653 Z" fill="#000000" fill-rule="nonzero" fill-opacity="1" /><path clip-path="url(#clip440)" d="M1262.67 19.4328 L1267.99 19.4328 L1267.99 51.84 L1262.67 51.84 L1262.67 19.4328 M1262.67 6.81709 L1267.99 6.81709 L1267.99 13.559 L1262.67 13.559 L1262.67 6.81709 Z" fill="#000000" fill-rule="nonzero" fill-opacity="1" /><path clip-path="url(#clip440)" d="M1295.54 6.81709 L1295.54 11.2442 L1290.44 11.2442 Q1287.58 11.2442 1286.45 12.4016 Q1285.35 13.559 1285.35 16.5682 L1285.35 19.4328 L1294.12 19.4328 L1294.12 23.5705 L1285.35 23.5705 L1285.35 51.84 L1280 51.84 L1280 23.5705 L1274.91 23.5705 L1274.91 19.4328 L1280 19.4328 L1280 17.1758 Q1280 11.765 1282.52 9.30551 Q1285.03 6.81709 1290.5 6.81709 L1295.54 6.81709 Z" fill="#000000" fill-rule="nonzero" fill-opacity="1" /><path clip-path="url(#clip440)" d="M1327.71 34.3054 L1327.71 36.9095 L1303.23 36.9095 Q1303.58 42.4072 1306.53 45.3007 Q1309.51 48.1653 1314.81 48.1653 Q1317.88 48.1653 1320.74 47.4129 Q1323.63 46.6606 1326.47 45.156 L1326.47 50.1907 Q1323.6 51.406 1320.6 52.0425 Q1317.59 52.6791 1314.49 52.6791 Q1306.74 52.6791 1302.19 48.1653 Q1297.68 43.6514 1297.68 35.9547 Q1297.68 27.9975 1301.96 23.339 Q1306.27 18.6515 1313.56 18.6515 Q1320.1 18.6515 1323.89 22.876 Q1327.71 27.0716 1327.71 34.3054 M1322.39 32.7429 Q1322.33 28.3737 1319.93 25.7695 Q1317.56 23.1654 1313.62 23.1654 Q1309.17 23.1654 1306.47 25.6827 Q1303.81 28.2001 1303.41 32.7718 L1322.39 32.7429 Z" fill="#000000" fill-rule="nonzero" fill-opacity="1" /><path clip-path="url(#clip440)" d="M1355.23 24.4096 Q1354.33 23.8888 1353.26 23.6573 Q1352.22 23.3969 1350.95 23.3969 Q1346.43 23.3969 1344 26.3482 Q1341.6 29.2707 1341.6 34.7683 L1341.6 51.84 L1336.25 51.84 L1336.25 19.4328 L1341.6 19.4328 L1341.6 24.4675 Q1343.28 21.5161 1345.97 20.0983 Q1348.66 18.6515 1352.51 18.6515 Q1353.06 18.6515 1353.73 18.7383 Q1354.39 18.7962 1355.2 18.9409 L1355.23 24.4096 Z" fill="#000000" fill-rule="nonzero" fill-opacity="1" /><path clip-path="url(#clip440)" d="M1387.23 34.3054 L1387.23 36.9095 L1362.75 36.9095 Q1363.1 42.4072 1366.05 45.3007 Q1369.03 48.1653 1374.33 48.1653 Q1377.39 48.1653 1380.26 47.4129 Q1383.15 46.6606 1385.99 45.156 L1385.99 50.1907 Q1383.12 51.406 1380.11 52.0425 Q1377.11 52.6791 1374.01 52.6791 Q1366.25 52.6791 1361.71 48.1653 Q1357.2 43.6514 1357.2 35.9547 Q1357.2 27.9975 1361.48 23.339 Q1365.79 18.6515 1373.08 18.6515 Q1379.62 18.6515 1383.41 22.876 Q1387.23 27.0716 1387.23 34.3054 M1381.91 32.7429 Q1381.85 28.3737 1379.45 25.7695 Q1377.08 23.1654 1373.14 23.1654 Q1368.69 23.1654 1365.99 25.6827 Q1363.33 28.2001 1362.93 32.7718 L1381.91 32.7429 Z" fill="#000000" fill-rule="nonzero" fill-opacity="1" /><path clip-path="url(#clip440)" d="M1422.91 32.2799 L1422.91 51.84 L1417.59 51.84 L1417.59 32.4535 Q1417.59 27.8529 1415.79 25.567 Q1414 23.2811 1410.41 23.2811 Q1406.1 23.2811 1403.61 26.03 Q1401.12 28.7788 1401.12 33.5241 L1401.12 51.84 L1395.77 51.84 L1395.77 19.4328 L1401.12 19.4328 L1401.12 24.4675 Q1403.03 21.545 1405.61 20.0983 Q1408.21 18.6515 1411.6 18.6515 Q1417.18 18.6515 1420.04 22.1237 Q1422.91 25.567 1422.91 32.2799 Z" fill="#000000" fill-rule="nonzero" fill-opacity="1" /><path clip-path="url(#clip440)" d="M1456.85 20.677 L1456.85 25.6538 Q1454.59 24.4096 1452.31 23.802 Q1450.05 23.1654 1447.74 23.1654 Q1442.56 23.1654 1439.69 26.464 Q1436.83 29.7336 1436.83 35.6653 Q1436.83 41.597 1439.69 44.8956 Q1442.56 48.1653 1447.74 48.1653 Q1450.05 48.1653 1452.31 47.5576 Q1454.59 46.921 1456.85 45.6768 L1456.85 50.5958 Q1454.62 51.6375 1452.22 52.1583 Q1449.85 52.6791 1447.16 52.6791 Q1439.84 52.6791 1435.52 48.0784 Q1431.21 43.4778 1431.21 35.6653 Q1431.21 27.7371 1435.55 23.1943 Q1439.92 18.6515 1447.5 18.6515 Q1449.96 18.6515 1452.31 19.1724 Q1454.65 19.6642 1456.85 20.677 Z" fill="#000000" fill-rule="nonzero" fill-opacity="1" /><path clip-path="url(#clip440)" d="M1466.11 19.4328 L1471.43 19.4328 L1471.43 51.84 L1466.11 51.84 L1466.11 19.4328 M1466.11 6.81709 L1471.43 6.81709 L1471.43 13.559 L1466.11 13.559 L1466.11 6.81709 Z" fill="#000000" fill-rule="nonzero" fill-opacity="1" /><path clip-path="url(#clip440)" d="M1497.3 35.5496 Q1490.85 35.5496 1488.36 37.0253 Q1485.87 38.501 1485.87 42.06 Q1485.87 44.8956 1487.72 46.5738 Q1489.6 48.2231 1492.82 48.2231 Q1497.24 48.2231 1499.91 45.0981 Q1502.6 41.9442 1502.6 36.7359 L1502.6 35.5496 L1497.3 35.5496 M1507.92 33.3505 L1507.92 51.84 L1502.6 51.84 L1502.6 46.921 Q1500.77 49.8724 1498.05 51.2902 Q1495.33 52.6791 1491.4 52.6791 Q1486.42 52.6791 1483.47 49.9014 Q1480.55 47.0947 1480.55 42.4072 Q1480.55 36.9385 1484.19 34.1607 Q1487.87 31.3829 1495.13 31.3829 L1502.6 31.3829 L1502.6 30.8621 Q1502.6 27.1874 1500.17 25.1908 Q1497.76 23.1654 1493.4 23.1654 Q1490.62 23.1654 1487.98 23.8309 Q1485.35 24.4964 1482.92 25.8274 L1482.92 20.9085 Q1485.84 19.78 1488.59 19.2302 Q1491.34 18.6515 1493.94 18.6515 Q1500.98 18.6515 1504.45 22.2973 Q1507.92 25.9431 1507.92 33.3505 Z" fill="#000000" fill-rule="nonzero" fill-opacity="1" /><path clip-path="url(#clip440)" d="M1518.89 6.81709 L1524.21 6.81709 L1524.21 51.84 L1518.89 51.84 L1518.89 6.81709 Z" fill="#000000" fill-rule="nonzero" fill-opacity="1" /><path clip-path="url(#clip440)" d="M1568.92 35.5496 Q1562.46 35.5496 1559.97 37.0253 Q1557.49 38.501 1557.49 42.06 Q1557.49 44.8956 1559.34 46.5738 Q1561.22 48.2231 1564.43 48.2231 Q1568.86 48.2231 1571.52 45.0981 Q1574.21 41.9442 1574.21 36.7359 L1574.21 35.5496 L1568.92 35.5496 M1579.53 33.3505 L1579.53 51.84 L1574.21 51.84 L1574.21 46.921 Q1572.39 49.8724 1569.67 51.2902 Q1566.95 52.6791 1563.01 52.6791 Q1558.04 52.6791 1555.08 49.9014 Q1552.16 47.0947 1552.16 42.4072 Q1552.16 36.9385 1555.81 34.1607 Q1559.48 31.3829 1566.75 31.3829 L1574.21 31.3829 L1574.21 30.8621 Q1574.21 27.1874 1571.78 25.1908 Q1569.38 23.1654 1565.01 23.1654 Q1562.23 23.1654 1559.6 23.8309 Q1556.97 24.4964 1554.53 25.8274 L1554.53 20.9085 Q1557.46 19.78 1560.21 19.2302 Q1562.95 18.6515 1565.56 18.6515 Q1572.59 18.6515 1576.06 22.2973 Q1579.53 25.9431 1579.53 33.3505 Z" fill="#000000" fill-rule="nonzero" fill-opacity="1" /><path clip-path="url(#clip440)" d="M1590.5 6.81709 L1595.83 6.81709 L1595.83 51.84 L1590.5 51.84 L1590.5 6.81709 Z" fill="#000000" fill-rule="nonzero" fill-opacity="1" /><path clip-path="url(#clip440)" d="M1634.68 34.3054 L1634.68 36.9095 L1610.21 36.9095 Q1610.55 42.4072 1613.5 45.3007 Q1616.48 48.1653 1621.78 48.1653 Q1624.85 48.1653 1627.71 47.4129 Q1630.6 46.6606 1633.44 45.156 L1633.44 50.1907 Q1630.58 51.406 1627.57 52.0425 Q1624.56 52.6791 1621.46 52.6791 Q1613.71 52.6791 1609.16 48.1653 Q1604.65 43.6514 1604.65 35.9547 Q1604.65 27.9975 1608.93 23.339 Q1613.24 18.6515 1620.54 18.6515 Q1627.07 18.6515 1630.87 22.876 Q1634.68 27.0716 1634.68 34.3054 M1629.36 32.7429 Q1629.3 28.3737 1626.9 25.7695 Q1624.53 23.1654 1620.59 23.1654 Q1616.14 23.1654 1613.45 25.6827 Q1610.78 28.2001 1610.38 32.7718 L1629.36 32.7429 Z" fill="#000000" fill-rule="nonzero" fill-opacity="1" /><path clip-path="url(#clip440)" d="M1658.15 35.5496 Q1651.7 35.5496 1649.21 37.0253 Q1646.72 38.501 1646.72 42.06 Q1646.72 44.8956 1648.57 46.5738 Q1650.45 48.2231 1653.67 48.2231 Q1658.09 48.2231 1660.76 45.0981 Q1663.45 41.9442 1663.45 36.7359 L1663.45 35.5496 L1658.15 35.5496 M1668.77 33.3505 L1668.77 51.84 L1663.45 51.84 L1663.45 46.921 Q1661.62 49.8724 1658.9 51.2902 Q1656.18 52.6791 1652.25 52.6791 Q1647.27 52.6791 1644.32 49.9014 Q1641.4 47.0947 1641.4 42.4072 Q1641.4 36.9385 1645.04 34.1607 Q1648.72 31.3829 1655.98 31.3829 L1663.45 31.3829 L1663.45 30.8621 Q1663.45 27.1874 1661.02 25.1908 Q1658.61 23.1654 1654.24 23.1654 Q1651.47 23.1654 1648.83 23.8309 Q1646.2 24.4964 1643.77 25.8274 L1643.77 20.9085 Q1646.69 19.78 1649.44 19.2302 Q1652.19 18.6515 1654.79 18.6515 Q1661.83 18.6515 1665.3 22.2973 Q1668.77 25.9431 1668.77 33.3505 Z" fill="#000000" fill-rule="nonzero" fill-opacity="1" /><path clip-path="url(#clip440)" d="M1685 10.2314 L1685 19.4328 L1695.97 19.4328 L1695.97 23.5705 L1685 23.5705 L1685 41.163 Q1685 45.1271 1686.07 46.2555 Q1687.17 47.384 1690.5 47.384 L1695.97 47.384 L1695.97 51.84 L1690.5 51.84 Q1684.34 51.84 1681.99 49.5541 Q1679.65 47.2393 1679.65 41.163 L1679.65 23.5705 L1675.74 23.5705 L1675.74 19.4328 L1679.65 19.4328 L1679.65 10.2314 L1685 10.2314 Z" fill="#000000" fill-rule="nonzero" fill-opacity="1" /><path clip-path="url(#clip440)" d="M1715.53 23.1654 Q1711.25 23.1654 1708.76 26.5218 Q1706.27 29.8494 1706.27 35.6653 Q1706.27 41.4813 1708.73 44.8377 Q1711.22 48.1653 1715.53 48.1653 Q1719.78 48.1653 1722.27 44.8088 Q1724.76 41.4523 1724.76 35.6653 Q1724.76 29.9072 1722.27 26.5508 Q1719.78 23.1654 1715.53 23.1654 M1715.53 18.6515 Q1722.47 18.6515 1726.44 23.1654 Q1730.4 27.6792 1730.4 35.6653 Q1730.4 43.6225 1726.44 48.1653 Q1722.47 52.6791 1715.53 52.6791 Q1708.56 52.6791 1704.59 48.1653 Q1700.66 43.6225 1700.66 35.6653 Q1700.66 27.6792 1704.59 23.1654 Q1708.56 18.6515 1715.53 18.6515 M1719.55 4.44442 L1725.31 4.44442 L1715.88 15.324 L1711.45 15.324 L1719.55 4.44442 Z" fill="#000000" fill-rule="nonzero" fill-opacity="1" /><path clip-path="url(#clip440)" d="M1758.01 24.4096 Q1757.11 23.8888 1756.04 23.6573 Q1755 23.3969 1753.72 23.3969 Q1749.21 23.3969 1746.78 26.3482 Q1744.38 29.2707 1744.38 34.7683 L1744.38 51.84 L1739.02 51.84 L1739.02 19.4328 L1744.38 19.4328 L1744.38 24.4675 Q1746.06 21.5161 1748.75 20.0983 Q1751.44 18.6515 1755.29 18.6515 Q1755.84 18.6515 1756.5 18.7383 Q1757.17 18.7962 1757.98 18.9409 L1758.01 24.4096 Z" fill="#000000" fill-rule="nonzero" fill-opacity="1" /><path clip-path="url(#clip440)" d="M1763.59 19.4328 L1768.91 19.4328 L1768.91 51.84 L1763.59 51.84 L1763.59 19.4328 M1763.59 6.81709 L1768.91 6.81709 L1768.91 13.559 L1763.59 13.559 L1763.59 6.81709 Z" fill="#000000" fill-rule="nonzero" fill-opacity="1" /><path clip-path="url(#clip440)" d="M1794.78 35.5496 Q1788.33 35.5496 1785.84 37.0253 Q1783.35 38.501 1783.35 42.06 Q1783.35 44.8956 1785.2 46.5738 Q1787.09 48.2231 1790.3 48.2231 Q1794.72 48.2231 1797.39 45.0981 Q1800.08 41.9442 1800.08 36.7359 L1800.08 35.5496 L1794.78 35.5496 M1805.4 33.3505 L1805.4 51.84 L1800.08 51.84 L1800.08 46.921 Q1798.25 49.8724 1795.53 51.2902 Q1792.81 52.6791 1788.88 52.6791 Q1783.9 52.6791 1780.95 49.9014 Q1778.03 47.0947 1778.03 42.4072 Q1778.03 36.9385 1781.67 34.1607 Q1785.35 31.3829 1792.61 31.3829 L1800.08 31.3829 L1800.08 30.8621 Q1800.08 27.1874 1797.65 25.1908 Q1795.25 23.1654 1790.88 23.1654 Q1788.1 23.1654 1785.47 23.8309 Q1782.83 24.4964 1780.4 25.8274 L1780.4 20.9085 Q1783.32 19.78 1786.07 19.2302 Q1788.82 18.6515 1791.43 18.6515 Q1798.46 18.6515 1801.93 22.2973 Q1805.4 25.9431 1805.4 33.3505 Z" fill="#000000" fill-rule="nonzero" fill-opacity="1" /><path clip-path="url(#clip440)" d="M1840.24 4.44442 L1848.4 15.2661 L1843.97 15.2661 L1834.54 4.44442 L1840.24 4.44442 Z" fill="#000000" fill-rule="nonzero" fill-opacity="1" /><path clip-path="url(#clip440)" d="M1864.28 39.0507 L1864.28 19.4328 L1869.61 19.4328 L1869.61 38.8482 Q1869.61 43.4488 1871.4 45.7636 Q1873.2 48.0495 1876.78 48.0495 Q1881.1 48.0495 1883.58 45.3007 Q1886.1 42.5519 1886.1 37.8065 L1886.1 19.4328 L1891.43 19.4328 L1891.43 51.84 L1886.1 51.84 L1886.1 46.8632 Q1884.16 49.8145 1881.59 51.2613 Q1879.04 52.6791 1875.66 52.6791 Q1870.07 52.6791 1867.18 49.2069 Q1864.28 45.7347 1864.28 39.0507 M1877.68 18.6515 L1877.68 18.6515 Z" fill="#000000" fill-rule="nonzero" fill-opacity="1" /><path clip-path="url(#clip440)" d="M1907.43 8.64 L1907.43 24.6989 L1902.51 24.6989 L1902.51 8.64 L1907.43 8.64 Z" fill="#000000" fill-rule="nonzero" fill-opacity="1" /><path clip-path="url(#clip440)" d="M1938.21 24.9304 L1975.31 24.9304 L1975.31 29.7915 L1938.21 29.7915 L1938.21 24.9304 M1938.21 36.7359 L1975.31 36.7359 L1975.31 41.6549 L1938.21 41.6549 L1938.21 36.7359 Z" fill="#000000" fill-rule="nonzero" fill-opacity="1" /><path clip-path="url(#clip440)" d="M2026.67 20.3876 L2026.67 25.4223 Q2024.41 24.2649 2021.98 23.6862 Q2019.55 23.1075 2016.95 23.1075 Q2012.98 23.1075 2010.98 24.3228 Q2009.02 25.5381 2009.02 27.9686 Q2009.02 29.8204 2010.44 30.891 Q2011.85 31.9327 2016.14 32.8876 L2017.96 33.2926 Q2023.63 34.5079 2026 36.7359 Q2028.4 38.935 2028.4 42.8991 Q2028.4 47.4129 2024.82 50.046 Q2021.26 52.6791 2015.01 52.6791 Q2012.4 52.6791 2009.57 52.1583 Q2006.76 51.6664 2003.64 50.6537 L2003.64 45.156 Q2006.59 46.6896 2009.45 47.4708 Q2012.32 48.2231 2015.12 48.2231 Q2018.88 48.2231 2020.91 46.95 Q2022.93 45.6479 2022.93 43.3042 Q2022.93 41.134 2021.46 39.9766 Q2020.01 38.8192 2015.06 37.7486 L2013.21 37.3146 Q2008.26 36.273 2006.07 34.1318 Q2003.87 31.9616 2003.87 28.2001 Q2003.87 23.6283 2007.11 21.1399 Q2010.35 18.6515 2016.31 18.6515 Q2019.26 18.6515 2021.86 19.0855 Q2024.47 19.5196 2026.67 20.3876 Z" fill="#000000" fill-rule="nonzero" fill-opacity="1" /><path clip-path="url(#clip440)" d="M2036.88 19.4328 L2042.21 19.4328 L2042.21 51.84 L2036.88 51.84 L2036.88 19.4328 M2036.88 6.81709 L2042.21 6.81709 L2042.21 13.559 L2036.88 13.559 L2036.88 6.81709 Z" fill="#000000" fill-rule="nonzero" fill-opacity="1" /><path clip-path="url(#clip440)" d="M2080.28 32.2799 L2080.28 51.84 L2074.96 51.84 L2074.96 32.4535 Q2074.96 27.8529 2073.17 25.567 Q2071.37 23.2811 2067.78 23.2811 Q2063.47 23.2811 2060.98 26.03 Q2058.5 28.7788 2058.5 33.5241 L2058.5 51.84 L2053.14 51.84 L2053.14 19.4328 L2058.5 19.4328 L2058.5 24.4675 Q2060.41 21.545 2062.98 20.0983 Q2065.59 18.6515 2068.97 18.6515 Q2074.56 18.6515 2077.42 22.1237 Q2080.28 25.567 2080.28 32.2799 Z" fill="#000000" fill-rule="nonzero" fill-opacity="1" /><path clip-path="url(#clip440)" d="M2103.69 6.87496 Q2099.82 13.53 2097.93 20.0404 Q2096.05 26.5508 2096.05 33.2348 Q2096.05 39.9188 2097.93 46.487 Q2099.84 53.0263 2103.69 59.6525 L2099.06 59.6525 Q2094.72 52.8527 2092.55 46.2845 Q2090.41 39.7162 2090.41 33.2348 Q2090.41 26.7823 2092.55 20.2429 Q2094.69 13.7036 2099.06 6.87496 L2103.69 6.87496 Z" fill="#000000" fill-rule="nonzero" fill-opacity="1" /><path clip-path="url(#clip440)" d="M2110.41 8.64 L2116.31 8.64 L2125.39 45.156 L2134.45 8.64 L2141.02 8.64 L2150.1 45.156 L2159.16 8.64 L2165.09 8.64 L2154.24 51.84 L2146.89 51.84 L2137.78 14.3402 L2128.58 51.84 L2121.23 51.84 L2110.41 8.64 Z" fill="#000000" fill-rule="nonzero" fill-opacity="1" /><path clip-path="url(#clip440)" d="M2171.78 6.87496 L2176.41 6.87496 Q2180.75 13.7036 2182.89 20.2429 Q2185.06 26.7823 2185.06 33.2348 Q2185.06 39.7162 2182.89 46.2845 Q2180.75 52.8527 2176.41 59.6525 L2171.78 59.6525 Q2175.63 53.0263 2177.51 46.487 Q2179.42 39.9188 2179.42 33.2348 Q2179.42 26.5508 2177.51 20.0404 Q2175.63 13.53 2171.78 6.87496 Z" fill="#000000" fill-rule="nonzero" fill-opacity="1" /><path clip-path="url(#clip440)" d="M2195.19 39.0507 L2195.19 19.4328 L2200.51 19.4328 L2200.51 38.8482 Q2200.51 43.4488 2202.3 45.7636 Q2204.1 48.0495 2207.69 48.0495 Q2212 48.0495 2214.48 45.3007 Q2217 42.5519 2217 37.8065 L2217 19.4328 L2222.33 19.4328 L2222.33 51.84 L2217 51.84 L2217 46.8632 Q2215.06 49.8145 2212.49 51.2613 Q2209.94 52.6791 2206.56 52.6791 Q2200.97 52.6791 2198.08 49.2069 Q2195.19 45.7347 2195.19 39.0507 M2208.58 18.6515 L2208.58 18.6515 Z" fill="#000000" fill-rule="nonzero" fill-opacity="1" /><path clip-path="url(#clip440)" d="M2238.33 4.44442 L2246.49 15.2661 L2242.06 15.2661 L2232.63 4.44442 L2238.33 4.44442 Z" fill="#000000" fill-rule="nonzero" fill-opacity="1" /><path clip-path="url(#clip440)" d="M2305.08 20.677 L2305.08 25.6538 Q2302.82 24.4096 2300.54 23.802 Q2298.28 23.1654 2295.97 23.1654 Q2290.79 23.1654 2287.92 26.464 Q2285.06 29.7336 2285.06 35.6653 Q2285.06 41.597 2287.92 44.8956 Q2290.79 48.1653 2295.97 48.1653 Q2298.28 48.1653 2300.54 47.5576 Q2302.82 46.921 2305.08 45.6768 L2305.08 50.5958 Q2302.85 51.6375 2300.45 52.1583 Q2298.08 52.6791 2295.39 52.6791 Q2288.07 52.6791 2283.76 48.0784 Q2279.44 43.4778 2279.44 35.6653 Q2279.44 27.7371 2283.78 23.1943 Q2288.15 18.6515 2295.73 18.6515 Q2298.19 18.6515 2300.54 19.1724 Q2302.88 19.6642 2305.08 20.677 Z" fill="#000000" fill-rule="nonzero" fill-opacity="1" /><path clip-path="url(#clip440)" d="M2326.9 23.1654 Q2322.62 23.1654 2320.13 26.5218 Q2317.64 29.8494 2317.64 35.6653 Q2317.64 41.4813 2320.1 44.8377 Q2322.59 48.1653 2326.9 48.1653 Q2331.15 48.1653 2333.64 44.8088 Q2336.13 41.4523 2336.13 35.6653 Q2336.13 29.9072 2333.64 26.5508 Q2331.15 23.1654 2326.9 23.1654 M2326.9 18.6515 Q2333.84 18.6515 2337.81 23.1654 Q2341.77 27.6792 2341.77 35.6653 Q2341.77 43.6225 2337.81 48.1653 Q2333.84 52.6791 2326.9 52.6791 Q2319.92 52.6791 2315.96 48.1653 Q2312.02 43.6225 2312.02 35.6653 Q2312.02 27.6792 2315.96 23.1654 Q2319.92 18.6515 2326.9 18.6515 Z" fill="#000000" fill-rule="nonzero" fill-opacity="1" /><path clip-path="url(#clip440)" d="M2375.83 25.6538 Q2377.82 22.0659 2380.6 20.3587 Q2383.38 18.6515 2387.14 18.6515 Q2392.2 18.6515 2394.95 22.2105 Q2397.7 25.7406 2397.7 32.2799 L2397.7 51.84 L2392.35 51.84 L2392.35 32.4535 Q2392.35 27.795 2390.7 25.5381 Q2389.05 23.2811 2385.66 23.2811 Q2381.53 23.2811 2379.13 26.03 Q2376.72 28.7788 2376.72 33.5241 L2376.72 51.84 L2371.37 51.84 L2371.37 32.4535 Q2371.37 27.7661 2369.72 25.5381 Q2368.07 23.2811 2364.63 23.2811 Q2360.55 23.2811 2358.15 26.0589 Q2355.75 28.8077 2355.75 33.5241 L2355.75 51.84 L2350.39 51.84 L2350.39 19.4328 L2355.75 19.4328 L2355.75 24.4675 Q2357.57 21.4872 2360.11 20.0693 Q2362.66 18.6515 2366.16 18.6515 Q2369.69 18.6515 2372.15 20.4455 Q2374.64 22.2395 2375.83 25.6538 Z" fill="#000000" fill-rule="nonzero" fill-opacity="1" /><path clip-path="url(#clip440)" d="M2432.19 4.44442 L2440.35 15.2661 L2435.92 15.2661 L2426.49 4.44442 L2432.19 4.44442 Z" fill="#000000" fill-rule="nonzero" fill-opacity="1" /><path clip-path="url(#clip440)" d="M2456.24 39.0507 L2456.24 19.4328 L2461.56 19.4328 L2461.56 38.8482 Q2461.56 43.4488 2463.36 45.7636 Q2465.15 48.0495 2468.74 48.0495 Q2473.05 48.0495 2475.54 45.3007 Q2478.05 42.5519 2478.05 37.8065 L2478.05 19.4328 L2483.38 19.4328 L2483.38 51.84 L2478.05 51.84 L2478.05 46.8632 Q2476.12 49.8145 2473.54 51.2613 Q2470.99 52.6791 2467.61 52.6791 Q2462.02 52.6791 2459.13 49.2069 Q2456.24 45.7347 2456.24 39.0507 M2469.63 18.6515 L2469.63 18.6515 Z" fill="#000000" fill-rule="nonzero" fill-opacity="1" /><path clip-path="url(#clip440)" d="M2507.13 6.87496 Q2503.26 13.53 2501.38 20.0404 Q2499.49 26.5508 2499.49 33.2348 Q2499.49 39.9188 2501.38 46.487 Q2503.29 53.0263 2507.13 59.6525 L2502.5 59.6525 Q2498.16 52.8527 2495.99 46.2845 Q2493.85 39.7162 2493.85 33.2348 Q2493.85 26.7823 2495.99 20.2429 Q2498.13 13.7036 2502.5 6.87496 L2507.13 6.87496 Z" fill="#000000" fill-rule="nonzero" fill-opacity="1" /><path clip-path="url(#clip440)" d="M2530.72 12.4884 Q2526.2 12.4884 2523.92 16.9444 Q2521.66 21.3714 2521.66 30.2834 Q2521.66 39.1665 2523.92 43.6225 Q2526.2 48.0495 2530.72 48.0495 Q2535.26 48.0495 2537.52 43.6225 Q2539.8 39.1665 2539.8 30.2834 Q2539.8 21.3714 2537.52 16.9444 Q2535.26 12.4884 2530.72 12.4884 M2530.72 7.85875 Q2537.98 7.85875 2541.8 13.6168 Q2545.65 19.346 2545.65 30.2834 Q2545.65 41.1919 2541.8 46.95 Q2537.98 52.6791 2530.72 52.6791 Q2523.45 52.6791 2519.6 46.95 Q2515.79 41.1919 2515.79 30.2834 Q2515.79 19.346 2519.6 13.6168 Q2523.45 7.85875 2530.72 7.85875 Z" fill="#000000" fill-rule="nonzero" fill-opacity="1" /><path clip-path="url(#clip440)" d="M2554.33 6.87496 L2558.96 6.87496 Q2563.3 13.7036 2565.44 20.2429 Q2567.61 26.7823 2567.61 33.2348 Q2567.61 39.7162 2565.44 46.2845 Q2563.3 52.8527 2558.96 59.6525 L2554.33 59.6525 Q2558.18 53.0263 2560.06 46.487 Q2561.97 39.9188 2561.97 33.2348 Q2561.97 26.5508 2560.06 20.0404 Q2558.18 13.53 2554.33 6.87496 Z" fill="#000000" fill-rule="nonzero" fill-opacity="1" /><path clip-path="url(#clip440)" d="M2597.82 24.9304 L2634.91 24.9304 L2634.91 29.7915 L2597.82 29.7915 L2597.82 24.9304 M2597.82 36.7359 L2634.91 36.7359 L2634.91 41.6549 L2597.82 41.6549 L2597.82 36.7359 Z" fill="#000000" fill-rule="nonzero" fill-opacity="1" /><path clip-path="url(#clip440)" d="M2667.38 46.921 L2676.92 46.921 L2676.92 13.964 L2666.54 16.0474 L2666.54 10.7233 L2676.87 8.64 L2682.71 8.64 L2682.71 46.921 L2692.26 46.921 L2692.26 51.84 L2667.38 51.84 L2667.38 46.921 Z" fill="#000000" fill-rule="nonzero" fill-opacity="1" /><path clip-path="url(#clip440)" d="M2704.07 44.4905 L2710.17 44.4905 L2710.17 51.84 L2704.07 51.84 L2704.07 44.4905 Z" fill="#000000" fill-rule="nonzero" fill-opacity="1" /><path clip-path="url(#clip440)" d="M2735.4 12.4884 Q2730.89 12.4884 2728.6 16.9444 Q2726.35 21.3714 2726.35 30.2834 Q2726.35 39.1665 2728.6 43.6225 Q2730.89 48.0495 2735.4 48.0495 Q2739.95 48.0495 2742.2 43.6225 Q2744.49 39.1665 2744.49 30.2834 Q2744.49 21.3714 2742.2 16.9444 Q2739.95 12.4884 2735.4 12.4884 M2735.4 7.85875 Q2742.66 7.85875 2746.48 13.6168 Q2750.33 19.346 2750.33 30.2834 Q2750.33 41.1919 2746.48 46.95 Q2742.66 52.6791 2735.4 52.6791 Q2728.14 52.6791 2724.29 46.95 Q2720.47 41.1919 2720.47 30.2834 Q2720.47 19.346 2724.29 13.6168 Q2728.14 7.85875 2735.4 7.85875 Z" fill="#000000" fill-rule="nonzero" fill-opacity="1" /><path clip-path="url(#clip440)" d="M2764.89 4.44442 L2773.05 15.2661 L2768.62 15.2661 L2759.19 4.44442 L2764.89 4.44442 Z" fill="#000000" fill-rule="nonzero" fill-opacity="1" /><polyline clip-path="url(#clip442)" style="stroke:#009af9; stroke-linecap:round; stroke-linejoin:round; stroke-width:4; stroke-opacity:1; fill:none" points="315.766,1805.26 321.274,1805.26 326.783,1804.02 332.292,1802.93 337.801,1802.74 343.309,1801.62 348.818,1800.69 354.327,1799.09 359.836,1797.51 365.344,1796.03 370.853,1794.01 376.362,1791.42 381.87,1788.45 387.379,1785.44 392.888,1785.32 398.397,1786.96 403.905,1787.9 409.414,1787.81 414.923,1787.72 420.431,1785.31 425.94,1784.58 431.449,1784.02 436.958,1783.39 442.466,1783.26 447.975,1783.46 453.484,1783.52 458.992,1784.84 464.501,1784.89 470.01,1785.76 475.519,1786.98 481.027,1786.23 486.536,1786.5 492.045,1787.27 497.553,1789.87 503.062,1790.69 508.571,1792.27 514.08,1795.35 519.588,1798.59 525.097,1802.73 530.606,1807.1 536.115,1811.02 541.623,1815.77 547.132,1819.41 552.641,1821.17 558.149,1823.13 563.658,1825.51 569.167,1828.62 574.676,1831.37 580.184,1833.05 585.693,1833.29 591.202,1833.56 596.71,1833.59 602.219,1832.88 607.728,1831.19 613.237,1828.21 618.745,1824.2 624.254,1820.42 629.763,1818.17 635.271,1814.66 640.78,1810.75 646.289,1808.02 651.798,1805.27 657.306,1800.79 662.815,1797.52 668.324,1794.25 673.832,1789.7 679.341,1785.09 684.85,1779.93 690.359,1774.12 695.867,1766.99 701.376,1759.87 706.885,1751.31 712.394,1742.62 717.902,1735.13 723.411,1728.39 728.92,1722.41 734.428,1715.43 739.937,1709.26 745.446,1701.6 750.955,1693.87 756.463,1686.35 761.972,1678.57 767.481,1670.04 772.989,1660.07 778.498,1649.71 784.007,1638.97 789.516,1627.11 795.024,1614.95 800.533,1604.09 806.042,1595.58 811.55,1587.86 817.059,1579.88 822.568,1570.9 828.077,1561.02 833.585,1550.22 839.094,1538 844.603,1527.39 850.111,1516.79 855.62,1506.85 861.129,1494.71 866.638,1484.57 872.146,1475.35 877.655,1466.09 883.164,1455.05 888.673,1444.13 894.181,1433.58 899.69,1420.99 905.199,1406.82 910.707,1394.95 916.216,1382.17 921.725,1368.59 927.234,1355.35 932.742,1341.73 938.251,1328.45 943.76,1315.52 949.268,1302.38 954.777,1289.09 960.286,1277.39 965.795,1264.15 971.303,1250.02 976.812,1235.35 982.321,1220.45 987.829,1208.82 993.338,1196.42 998.847,1185.15 1004.36,1176.13 1009.86,1170.09 1015.37,1162.17 1020.88,1158.61 1026.39,1155.47 1031.9,1153.94 1037.41,1153.09 1042.92,1150.23 1048.43,1148.62 1053.93,1149.13 1059.44,1153.2 1064.95,1156.56 1070.46,1163.49 1075.97,1171.83 1081.48,1182.52 1086.99,1194.1 1092.5,1205.03 1098,1215.33 1103.51,1223.9 1109.02,1231.48 1114.53,1241.62 1120.04,1251.89 1125.55,1259.42 1131.06,1269.27 1136.56,1280.56 1142.07,1293.66 1147.58,1306.77 1153.09,1318.8 1158.6,1332.31 1164.11,1347.18 1169.62,1363.01 1175.13,1376.87 1180.63,1389.67 1186.14,1401.56 1191.65,1415.49 1197.16,1428.74 1202.67,1442.06 1208.18,1455.32 1213.69,1470.63 1219.2,1485.59 1224.7,1500.69 1230.21,1515.77 1235.72,1529.92 1241.23,1542.81 1246.74,1556.19 1252.25,1570.59 1257.76,1583.46 1263.27,1596.46 1268.77,1608.91 1274.28,1620.78 1279.79,1631.82 1285.3,1642.79 1290.81,1655.23 1296.32,1667.42 1301.83,1679.76 1307.34,1692.28 1312.84,1705.76 1318.35,1718.56 1323.86,1731.23 1329.37,1744.16 1334.88,1756.88 1340.39,1770.46 1345.9,1783.29 1351.4,1796.01 1356.91,1808.3 1362.42,1821.53 1367.93,1834.57 1373.44,1846.48 1378.95,1859.54 1384.46,1872.08 1389.97,1884.04 1395.47,1896.46 1400.98,1907.53 1406.49,1919.39 1412,1931.5 1417.51,1943.39 1423.02,1955.3 1428.53,1967.37 1434.04,1978.71 1439.54,1990.28 1445.05,2001.03 1450.56,2011.49 1456.07,2022.12 1461.58,2032.64 1467.09,2042.56 1472.6,2053.01 1478.11,2063.01 1483.61,2072.39 1489.12,2081.7 1494.63,2090.76 1500.14,2098 1505.65,2103.54 1511.16,2108.14 1516.67,2112.72 1522.18,2117.59 1527.68,2121.33 1533.19,2124.05 1538.7,2127.83 1544.21,2130.02 1549.72,2133.5 1555.23,2136.47 1560.74,2138.49 1566.24,2140.85 1571.75,2142.18 1577.26,2141.91 1582.77,2141.03 1588.28,2139.94 1593.79,2140.75 1599.3,2141.77 1604.81,2142.64 1610.31,2142.29 1615.82,2141.75 1621.33,2141.46 1626.84,2140.94 1632.35,2141.52 1637.86,2141.51 1643.37,2141.73 1648.88,2143.25 1654.38,2144.71 1659.89,2145.67 1665.4,2145.51 1670.91,2144.46 1676.42,2140.68 1681.93,2137.44 1687.44,2134.85 1692.95,2132.42 1698.45,2129.49 1703.96,2124.23 1709.47,2118.26 1714.98,2113.44 1720.49,2107.38 1726,2100.38 1731.51,2093.51 1737.02,2086.93 1742.52,2080.91 1748.03,2073.98 1753.54,2065.35 1759.05,2055.78 1764.56,2045.65 1770.07,2035.51 1775.58,2024.71 1781.08,2013.46 1786.59,2002.22 1792.1,1990.98 1797.61,1979.72 1803.12,1968.62 1808.63,1957.25 1814.14,1945.68 1819.65,1934.15 1825.15,1922.52 1830.66,1910.11 1836.17,1898.02 1841.68,1885.98 1847.19,1874.06 1852.7,1861.94 1858.21,1849.5 1863.72,1836.95 1869.22,1823.87 1874.73,1810.23 1880.24,1796.56 1885.75,1782.71 1891.26,1768.65 1896.77,1754.63 1902.28,1740.58 1907.79,1726.59 1913.29,1712.46 1918.8,1698.27 1924.31,1683.47 1929.82,1668.47 1935.33,1653.27 1940.84,1638.08 1946.35,1622.71 1951.86,1607.54 1957.36,1592.42 1962.87,1577.38 1968.38,1564.34 1973.89,1550.69 1979.4,1537.78 1984.91,1526.28 1990.42,1513.37 1995.92,1501.91 2001.43,1493.11 2006.94,1484.02 2012.45,1474.02 2017.96,1465.76 2023.47,1456 2028.98,1445.45 2034.49,1436.1 2039.99,1424.11 2045.5,1410.14 2051.01,1396.63 2056.52,1383.4 2062.03,1370.69 2067.54,1357.1 2073.05,1345.36 2078.56,1334.61 2084.06,1326.69 2089.57,1318.51 2095.08,1311.09 2100.59,1305.22 2106.1,1298 2111.61,1292.52 2117.12,1285.81 2122.63,1275.21 2128.13,1265.16 2133.64,1256.48 2139.15,1245.28 2144.66,1233.2 2150.17,1223.47 2155.68,1212.25 2161.19,1201.64 2166.7,1194.1 2172.2,1189.46 2177.71,1183.83 2183.22,1179.79 2188.73,1175.23 2194.24,1170.17 2199.75,1162.87 2205.26,1155.23 2210.77,1148.28 2216.27,1141.45 2221.78,1132.2 2227.29,1124.16 2232.8,1115.99 2238.31,1109.54 2243.82,1104.04 2249.33,1097.65 2254.83,1091.42 2260.34,1086.98 2265.85,1082.32 2271.36,1077.78 2276.87,1070.98 2282.38,1065.71 2287.89,1061.28 2293.4,1054.28 2298.9,1045.28 2304.41,1038.76 2309.92,1030.99 2315.43,1024.2 2320.94,1017.32 2326.45,1010.13 2331.96,1002.47 2337.47,989.9 2342.97,976.322 2348.48,963.127 2353.99,948.053 2359.5,930.569 2365.01,912.165 2370.52,891.157 2376.03,870.188 2381.54,850.661 2387.04,831.47 2392.55,813.821 2398.06,795.113 2403.57,779.217 2409.08,760.411 2414.59,741.975 2420.1,722.908 2425.61,704.935 2431.11,688.532 2436.62,672.414 2442.13,653.643 2447.64,635.608 2453.15,615.985 2458.66,595.13 2464.17,574.199 2469.67,557.215 2475.18,540.574 2480.69,525.385 2486.2,509.358 2491.71,495.322 2497.22,484.839 2502.73,472.594 2508.24,459.87 2513.74,447.623 2519.25,434.827 2524.76,425.945 2530.27,418.086 2535.78,409.216 2541.29,395.324 2546.8,377.427 2552.31,361.452 2557.81,347.914 2563.32,332.014 2568.83,313.451 2574.34,296.15 2579.85,280.552 2585.36,266.384 2590.87,251.401 2596.38,239.501 2601.88,225.44 2607.39,211.047 2612.9,202.779 2618.41,199.319 2623.92,197.049 2629.43,190.38 2634.94,185.582 2640.45,174.976 2645.95,170.853 2651.46,170.837 2656.97,174.762 2662.48,184.693 2667.99,192.017 2673.5,198.453 2679.01,204.833 2684.51,209.82 2690.02,218.44 2695.53,223.005 2701.04,229.678 2706.55,236.473 2712.06,241.056 2717.57,250.558 2723.08,260.583 2728.58,274.706 2734.09,288.94 2739.6,302.051 2745.11,315.004 2750.62,325.872 2756.13,339.249 2761.64,355.41 2767.15,373.158 2772.65,386.181 2778.16,401.196 2783.67,417.987 2789.18,433.761 2794.69,442.146 2800.2,451.663 2805.71,461.325 2811.22,477.289 2816.72,493.547 2822.23,509.797 2827.74,525.547 2833.25,541.261 2838.76,554.944 2844.27,569.468 2849.78,583.628 2855.29,597.337 2860.79,613.241 2866.3,627.863 2871.81,640.463 2877.32,651.004 2882.83,663.652 2888.34,675.639 2893.85,684.729 2899.35,695.401 2904.86,705.804 2910.37,714.542 2915.88,722.897 2921.39,732.906 2926.9,744.998 2932.41,755.351 2937.92,766.068 2943.42,781.231 2948.93,798.34 2954.44,810.833 2959.95,824.741 2965.46,834.327 2970.97,844.569 2976.48,852.964 2981.99,858.216 2987.49,864.971 2993,871.292 2998.51,875.975 3004.02,882.639 3009.53,890.011 3015.04,900.166 3020.55,912.641 3026.06,923.012 3031.56,934.245 3037.07,945.519 3042.58,961.653 3048.09,977.768 3053.6,992.302 3059.11,1006.82 3064.62,1020.72 3070.13,1036.8 "/>
</svg>
