<?xml version="1.0" encoding="utf-8"?>
<svg xmlns="http://www.w3.org/2000/svg" xmlns:xlink="http://www.w3.org/1999/xlink" width="800" height="600" viewBox="0 0 3200 2400">
<defs>
  <clipPath id="clip980">
    <rect x="0" y="0" width="3200" height="2400"/>
  </clipPath>
</defs>
<path clip-path="url(#clip980)" d="M0 2400 L3200 2400 L3200 0 L0 0  Z" fill="#ffffff" fill-rule="evenodd" fill-opacity="1"/>
<defs>
  <clipPath id="clip981">
    <rect x="640" y="0" width="2241" height="2241"/>
  </clipPath>
</defs>
<path clip-path="url(#clip980)" d="M231.723 2204.92 L3152.76 2204.92 L3152.76 111.592 L231.723 111.592  Z" fill="#eaeaea" fill-rule="evenodd" fill-opacity="1"/>
<defs>
  <clipPath id="clip982">
    <rect x="231" y="111" width="2922" height="2094"/>
  </clipPath>
</defs>
<polyline clip-path="url(#clip982)" style="stroke:#ffffff; stroke-linecap:round; stroke-linejoin:round; stroke-width:4; stroke-opacity:1; fill:none" points="314.394,2204.92 314.394,111.592 "/>
<polyline clip-path="url(#clip982)" style="stroke:#ffffff; stroke-linecap:round; stroke-linejoin:round; stroke-width:4; stroke-opacity:1; fill:none" points="865.532,2204.92 865.532,111.592 "/>
<polyline clip-path="url(#clip982)" style="stroke:#ffffff; stroke-linecap:round; stroke-linejoin:round; stroke-width:4; stroke-opacity:1; fill:none" points="1416.67,2204.92 1416.67,111.592 "/>
<polyline clip-path="url(#clip982)" style="stroke:#ffffff; stroke-linecap:round; stroke-linejoin:round; stroke-width:4; stroke-opacity:1; fill:none" points="1967.81,2204.92 1967.81,111.592 "/>
<polyline clip-path="url(#clip982)" style="stroke:#ffffff; stroke-linecap:round; stroke-linejoin:round; stroke-width:4; stroke-opacity:1; fill:none" points="2518.95,2204.92 2518.95,111.592 "/>
<polyline clip-path="url(#clip982)" style="stroke:#ffffff; stroke-linecap:round; stroke-linejoin:round; stroke-width:4; stroke-opacity:1; fill:none" points="3070.09,2204.92 3070.09,111.592 "/>
<polyline clip-path="url(#clip982)" style="stroke:#ffffff; stroke-linecap:round; stroke-linejoin:round; stroke-width:2; stroke-opacity:1; fill:none" points="589.963,2204.92 589.963,111.592 "/>
<polyline clip-path="url(#clip982)" style="stroke:#ffffff; stroke-linecap:round; stroke-linejoin:round; stroke-width:2; stroke-opacity:1; fill:none" points="1141.1,2204.92 1141.1,111.592 "/>
<polyline clip-path="url(#clip982)" style="stroke:#ffffff; stroke-linecap:round; stroke-linejoin:round; stroke-width:2; stroke-opacity:1; fill:none" points="1692.24,2204.92 1692.24,111.592 "/>
<polyline clip-path="url(#clip982)" style="stroke:#ffffff; stroke-linecap:round; stroke-linejoin:round; stroke-width:2; stroke-opacity:1; fill:none" points="2243.38,2204.92 2243.38,111.592 "/>
<polyline clip-path="url(#clip982)" style="stroke:#ffffff; stroke-linecap:round; stroke-linejoin:round; stroke-width:2; stroke-opacity:1; fill:none" points="2794.52,2204.92 2794.52,111.592 "/>
<polyline clip-path="url(#clip980)" style="stroke:#ffffff; stroke-linecap:round; stroke-linejoin:round; stroke-width:4; stroke-opacity:1; fill:none" points="231.723,2204.92 3152.76,2204.92 "/>
<polyline clip-path="url(#clip980)" style="stroke:#333333; stroke-linecap:round; stroke-linejoin:round; stroke-width:4; stroke-opacity:1; fill:none" points="314.394,2204.92 314.394,2223.82 "/>
<polyline clip-path="url(#clip980)" style="stroke:#333333; stroke-linecap:round; stroke-linejoin:round; stroke-width:4; stroke-opacity:1; fill:none" points="865.532,2204.92 865.532,2223.82 "/>
<polyline clip-path="url(#clip980)" style="stroke:#333333; stroke-linecap:round; stroke-linejoin:round; stroke-width:4; stroke-opacity:1; fill:none" points="1416.67,2204.92 1416.67,2223.82 "/>
<polyline clip-path="url(#clip980)" style="stroke:#333333; stroke-linecap:round; stroke-linejoin:round; stroke-width:4; stroke-opacity:1; fill:none" points="1967.81,2204.92 1967.81,2223.82 "/>
<polyline clip-path="url(#clip980)" style="stroke:#333333; stroke-linecap:round; stroke-linejoin:round; stroke-width:4; stroke-opacity:1; fill:none" points="2518.95,2204.92 2518.95,2223.82 "/>
<polyline clip-path="url(#clip980)" style="stroke:#333333; stroke-linecap:round; stroke-linejoin:round; stroke-width:4; stroke-opacity:1; fill:none" points="3070.09,2204.92 3070.09,2223.82 "/>
<polyline clip-path="url(#clip980)" style="stroke:#333333; stroke-linecap:round; stroke-linejoin:round; stroke-width:4; stroke-opacity:1; fill:none" points="589.963,2204.92 589.963,2214.37 "/>
<polyline clip-path="url(#clip980)" style="stroke:#333333; stroke-linecap:round; stroke-linejoin:round; stroke-width:4; stroke-opacity:1; fill:none" points="1141.1,2204.92 1141.1,2214.37 "/>
<polyline clip-path="url(#clip980)" style="stroke:#333333; stroke-linecap:round; stroke-linejoin:round; stroke-width:4; stroke-opacity:1; fill:none" points="1692.24,2204.92 1692.24,2214.37 "/>
<polyline clip-path="url(#clip980)" style="stroke:#333333; stroke-linecap:round; stroke-linejoin:round; stroke-width:4; stroke-opacity:1; fill:none" points="2243.38,2204.92 2243.38,2214.37 "/>
<polyline clip-path="url(#clip980)" style="stroke:#333333; stroke-linecap:round; stroke-linejoin:round; stroke-width:4; stroke-opacity:1; fill:none" points="2794.52,2204.92 2794.52,2214.37 "/>
<path clip-path="url(#clip980)" d="M314.394 2255.04 Q310.783 2255.04 308.954 2258.6 Q307.148 2262.14 307.148 2269.27 Q307.148 2276.38 308.954 2279.95 Q310.783 2283.49 314.394 2283.49 Q318.028 2283.49 319.833 2279.95 Q321.662 2276.38 321.662 2269.27 Q321.662 2262.14 319.833 2258.6 Q318.028 2255.04 314.394 2255.04 M314.394 2251.33 Q320.204 2251.33 323.259 2255.94 Q326.338 2260.52 326.338 2269.27 Q326.338 2278 323.259 2282.61 Q320.204 2287.19 314.394 2287.19 Q308.584 2287.19 305.505 2282.61 Q302.449 2278 302.449 2269.27 Q302.449 2260.52 305.505 2255.94 Q308.584 2251.33 314.394 2251.33 Z" fill="#4c4c4c" fill-rule="nonzero" fill-opacity="1" /><path clip-path="url(#clip980)" d="M855.914 2282.58 L863.553 2282.58 L863.553 2256.22 L855.243 2257.89 L855.243 2253.63 L863.507 2251.96 L868.182 2251.96 L868.182 2282.58 L875.821 2282.58 L875.821 2286.52 L855.914 2286.52 L855.914 2282.58 Z" fill="#4c4c4c" fill-rule="nonzero" fill-opacity="1" /><path clip-path="url(#clip980)" d="M1411.32 2282.58 L1427.64 2282.58 L1427.64 2286.52 L1405.7 2286.52 L1405.7 2282.58 Q1408.36 2279.83 1412.94 2275.2 Q1417.55 2270.55 1418.73 2269.21 Q1420.98 2266.68 1421.86 2264.95 Q1422.76 2263.19 1422.76 2261.5 Q1422.76 2258.74 1420.81 2257.01 Q1418.89 2255.27 1415.79 2255.27 Q1413.59 2255.27 1411.14 2256.03 Q1408.71 2256.8 1405.93 2258.35 L1405.93 2253.63 Q1408.75 2252.49 1411.21 2251.91 Q1413.66 2251.33 1415.7 2251.33 Q1421.07 2251.33 1424.26 2254.02 Q1427.46 2256.71 1427.46 2261.2 Q1427.46 2263.33 1426.65 2265.25 Q1425.86 2267.14 1423.75 2269.74 Q1423.17 2270.41 1420.07 2273.63 Q1416.97 2276.82 1411.32 2282.58 Z" fill="#4c4c4c" fill-rule="nonzero" fill-opacity="1" /><path clip-path="url(#clip980)" d="M1972.06 2267.89 Q1975.41 2268.6 1977.29 2270.87 Q1979.19 2273.14 1979.19 2276.47 Q1979.19 2281.59 1975.67 2284.39 Q1972.15 2287.19 1965.67 2287.19 Q1963.49 2287.19 1961.18 2286.75 Q1958.89 2286.33 1956.43 2285.48 L1956.43 2280.96 Q1958.38 2282.1 1960.69 2282.68 Q1963.01 2283.26 1965.53 2283.26 Q1969.93 2283.26 1972.22 2281.52 Q1974.53 2279.78 1974.53 2276.47 Q1974.53 2273.42 1972.38 2271.71 Q1970.25 2269.97 1966.43 2269.97 L1962.4 2269.97 L1962.4 2266.13 L1966.62 2266.13 Q1970.07 2266.13 1971.89 2264.76 Q1973.72 2263.37 1973.72 2260.78 Q1973.72 2258.12 1971.82 2256.71 Q1969.95 2255.27 1966.43 2255.27 Q1964.51 2255.27 1962.31 2255.69 Q1960.11 2256.1 1957.47 2256.98 L1957.47 2252.82 Q1960.14 2252.08 1962.45 2251.71 Q1964.79 2251.33 1966.85 2251.33 Q1972.17 2251.33 1975.27 2253.77 Q1978.38 2256.17 1978.38 2260.29 Q1978.38 2263.16 1976.73 2265.15 Q1975.09 2267.12 1972.06 2267.89 Z" fill="#4c4c4c" fill-rule="nonzero" fill-opacity="1" /><path clip-path="url(#clip980)" d="M2521.96 2256.03 L2510.15 2274.48 L2521.96 2274.48 L2521.96 2256.03 M2520.73 2251.96 L2526.61 2251.96 L2526.61 2274.48 L2531.54 2274.48 L2531.54 2278.37 L2526.61 2278.37 L2526.61 2286.52 L2521.96 2286.52 L2521.96 2278.37 L2506.35 2278.37 L2506.35 2273.86 L2520.73 2251.96 Z" fill="#4c4c4c" fill-rule="nonzero" fill-opacity="1" /><path clip-path="url(#clip980)" d="M3060.36 2251.96 L3078.72 2251.96 L3078.72 2255.9 L3064.65 2255.9 L3064.65 2264.37 Q3065.66 2264.02 3066.68 2263.86 Q3067.7 2263.67 3068.72 2263.67 Q3074.51 2263.67 3077.89 2266.84 Q3081.27 2270.02 3081.27 2275.43 Q3081.27 2281.01 3077.79 2284.11 Q3074.32 2287.19 3068 2287.19 Q3065.83 2287.19 3063.56 2286.82 Q3061.31 2286.45 3058.9 2285.71 L3058.9 2281.01 Q3060.99 2282.14 3063.21 2282.7 Q3065.43 2283.26 3067.91 2283.26 Q3071.91 2283.26 3074.25 2281.15 Q3076.59 2279.04 3076.59 2275.43 Q3076.59 2271.82 3074.25 2269.71 Q3071.91 2267.61 3067.91 2267.61 Q3066.03 2267.61 3064.16 2268.02 Q3062.31 2268.44 3060.36 2269.32 L3060.36 2251.96 Z" fill="#4c4c4c" fill-rule="nonzero" fill-opacity="1" /><path clip-path="url(#clip980)" d="M1691.3 2316.01 L1691.3 2326.14 L1703.36 2326.14 L1703.36 2330.69 L1691.3 2330.69 L1691.3 2350.04 Q1691.3 2354.4 1692.48 2355.64 Q1693.69 2356.88 1697.35 2356.88 L1703.36 2356.88 L1703.36 2361.78 L1697.35 2361.78 Q1690.57 2361.78 1687.99 2359.27 Q1685.41 2356.72 1685.41 2350.04 L1685.41 2330.69 L1681.12 2330.69 L1681.12 2326.14 L1685.41 2326.14 L1685.41 2316.01 L1691.3 2316.01 Z" fill="#000000" fill-rule="nonzero" fill-opacity="1" /><polyline clip-path="url(#clip982)" style="stroke:#ffffff; stroke-linecap:round; stroke-linejoin:round; stroke-width:4; stroke-opacity:1; fill:none" points="231.723,2145.67 3152.76,2145.67 "/>
<polyline clip-path="url(#clip982)" style="stroke:#ffffff; stroke-linecap:round; stroke-linejoin:round; stroke-width:4; stroke-opacity:1; fill:none" points="231.723,1813.58 3152.76,1813.58 "/>
<polyline clip-path="url(#clip982)" style="stroke:#ffffff; stroke-linecap:round; stroke-linejoin:round; stroke-width:4; stroke-opacity:1; fill:none" points="231.723,1481.48 3152.76,1481.48 "/>
<polyline clip-path="url(#clip982)" style="stroke:#ffffff; stroke-linecap:round; stroke-linejoin:round; stroke-width:4; stroke-opacity:1; fill:none" points="231.723,1149.38 3152.76,1149.38 "/>
<polyline clip-path="url(#clip982)" style="stroke:#ffffff; stroke-linecap:round; stroke-linejoin:round; stroke-width:4; stroke-opacity:1; fill:none" points="231.723,817.288 3152.76,817.288 "/>
<polyline clip-path="url(#clip982)" style="stroke:#ffffff; stroke-linecap:round; stroke-linejoin:round; stroke-width:4; stroke-opacity:1; fill:none" points="231.723,485.191 3152.76,485.191 "/>
<polyline clip-path="url(#clip982)" style="stroke:#ffffff; stroke-linecap:round; stroke-linejoin:round; stroke-width:4; stroke-opacity:1; fill:none" points="231.723,153.095 3152.76,153.095 "/>
<polyline clip-path="url(#clip982)" style="stroke:#ffffff; stroke-linecap:round; stroke-linejoin:round; stroke-width:2; stroke-opacity:1; fill:none" points="231.723,1979.63 3152.76,1979.63 "/>
<polyline clip-path="url(#clip982)" style="stroke:#ffffff; stroke-linecap:round; stroke-linejoin:round; stroke-width:2; stroke-opacity:1; fill:none" points="231.723,1647.53 3152.76,1647.53 "/>
<polyline clip-path="url(#clip982)" style="stroke:#ffffff; stroke-linecap:round; stroke-linejoin:round; stroke-width:2; stroke-opacity:1; fill:none" points="231.723,1315.43 3152.76,1315.43 "/>
<polyline clip-path="url(#clip982)" style="stroke:#ffffff; stroke-linecap:round; stroke-linejoin:round; stroke-width:2; stroke-opacity:1; fill:none" points="231.723,983.336 3152.76,983.336 "/>
<polyline clip-path="url(#clip982)" style="stroke:#ffffff; stroke-linecap:round; stroke-linejoin:round; stroke-width:2; stroke-opacity:1; fill:none" points="231.723,651.24 3152.76,651.24 "/>
<polyline clip-path="url(#clip982)" style="stroke:#ffffff; stroke-linecap:round; stroke-linejoin:round; stroke-width:2; stroke-opacity:1; fill:none" points="231.723,319.143 3152.76,319.143 "/>
<polyline clip-path="url(#clip980)" style="stroke:#ffffff; stroke-linecap:round; stroke-linejoin:round; stroke-width:4; stroke-opacity:1; fill:none" points="231.723,2204.92 231.723,111.592 "/>
<polyline clip-path="url(#clip980)" style="stroke:#333333; stroke-linecap:round; stroke-linejoin:round; stroke-width:4; stroke-opacity:1; fill:none" points="231.723,2145.67 212.825,2145.67 "/>
<polyline clip-path="url(#clip980)" style="stroke:#333333; stroke-linecap:round; stroke-linejoin:round; stroke-width:4; stroke-opacity:1; fill:none" points="231.723,1813.58 212.825,1813.58 "/>
<polyline clip-path="url(#clip980)" style="stroke:#333333; stroke-linecap:round; stroke-linejoin:round; stroke-width:4; stroke-opacity:1; fill:none" points="231.723,1481.48 212.825,1481.48 "/>
<polyline clip-path="url(#clip980)" style="stroke:#333333; stroke-linecap:round; stroke-linejoin:round; stroke-width:4; stroke-opacity:1; fill:none" points="231.723,1149.38 212.825,1149.38 "/>
<polyline clip-path="url(#clip980)" style="stroke:#333333; stroke-linecap:round; stroke-linejoin:round; stroke-width:4; stroke-opacity:1; fill:none" points="231.723,817.288 212.825,817.288 "/>
<polyline clip-path="url(#clip980)" style="stroke:#333333; stroke-linecap:round; stroke-linejoin:round; stroke-width:4; stroke-opacity:1; fill:none" points="231.723,485.191 212.825,485.191 "/>
<polyline clip-path="url(#clip980)" style="stroke:#333333; stroke-linecap:round; stroke-linejoin:round; stroke-width:4; stroke-opacity:1; fill:none" points="231.723,153.095 212.825,153.095 "/>
<polyline clip-path="url(#clip980)" style="stroke:#333333; stroke-linecap:round; stroke-linejoin:round; stroke-width:4; stroke-opacity:1; fill:none" points="231.723,1979.63 222.274,1979.63 "/>
<polyline clip-path="url(#clip980)" style="stroke:#333333; stroke-linecap:round; stroke-linejoin:round; stroke-width:4; stroke-opacity:1; fill:none" points="231.723,1647.53 222.274,1647.53 "/>
<polyline clip-path="url(#clip980)" style="stroke:#333333; stroke-linecap:round; stroke-linejoin:round; stroke-width:4; stroke-opacity:1; fill:none" points="231.723,1315.43 222.274,1315.43 "/>
<polyline clip-path="url(#clip980)" style="stroke:#333333; stroke-linecap:round; stroke-linejoin:round; stroke-width:4; stroke-opacity:1; fill:none" points="231.723,983.336 222.274,983.336 "/>
<polyline clip-path="url(#clip980)" style="stroke:#333333; stroke-linecap:round; stroke-linejoin:round; stroke-width:4; stroke-opacity:1; fill:none" points="231.723,651.24 222.274,651.24 "/>
<polyline clip-path="url(#clip980)" style="stroke:#333333; stroke-linecap:round; stroke-linejoin:round; stroke-width:4; stroke-opacity:1; fill:none" points="231.723,319.143 222.274,319.143 "/>
<path clip-path="url(#clip980)" d="M93.3576 2159.02 L100.996 2159.02 L100.996 2132.65 L92.6863 2134.32 L92.6863 2130.06 L100.95 2128.39 L105.626 2128.39 L105.626 2159.02 L113.265 2159.02 L113.265 2162.95 L93.3576 2162.95 L93.3576 2159.02 Z" fill="#4c4c4c" fill-rule="nonzero" fill-opacity="1" /><path clip-path="url(#clip980)" d="M122.709 2157.08 L127.593 2157.08 L127.593 2162.95 L122.709 2162.95 L122.709 2157.08 Z" fill="#4c4c4c" fill-rule="nonzero" fill-opacity="1" /><path clip-path="url(#clip980)" d="M147.779 2131.47 Q144.167 2131.47 142.339 2135.04 Q140.533 2138.58 140.533 2145.71 Q140.533 2152.82 142.339 2156.38 Q144.167 2159.92 147.779 2159.92 Q151.413 2159.92 153.218 2156.38 Q155.047 2152.82 155.047 2145.71 Q155.047 2138.58 153.218 2135.04 Q151.413 2131.47 147.779 2131.47 M147.779 2127.77 Q153.589 2127.77 156.644 2132.38 Q159.723 2136.96 159.723 2145.71 Q159.723 2154.44 156.644 2159.04 Q153.589 2163.63 147.779 2163.63 Q141.968 2163.63 138.89 2159.04 Q135.834 2154.44 135.834 2145.71 Q135.834 2136.96 138.89 2132.38 Q141.968 2127.77 147.779 2127.77 Z" fill="#4c4c4c" fill-rule="nonzero" fill-opacity="1" /><path clip-path="url(#clip980)" d="M94.5844 1826.92 L102.223 1826.92 L102.223 1800.56 L93.9131 1802.22 L93.9131 1797.96 L102.177 1796.3 L106.853 1796.3 L106.853 1826.92 L114.492 1826.92 L114.492 1830.86 L94.5844 1830.86 L94.5844 1826.92 Z" fill="#4c4c4c" fill-rule="nonzero" fill-opacity="1" /><path clip-path="url(#clip980)" d="M123.936 1824.98 L128.82 1824.98 L128.82 1830.86 L123.936 1830.86 L123.936 1824.98 Z" fill="#4c4c4c" fill-rule="nonzero" fill-opacity="1" /><path clip-path="url(#clip980)" d="M139.816 1826.92 L147.454 1826.92 L147.454 1800.56 L139.144 1802.22 L139.144 1797.96 L147.408 1796.3 L152.084 1796.3 L152.084 1826.92 L159.723 1826.92 L159.723 1830.86 L139.816 1830.86 L139.816 1826.92 Z" fill="#4c4c4c" fill-rule="nonzero" fill-opacity="1" /><path clip-path="url(#clip980)" d="M94.9548 1494.83 L102.594 1494.83 L102.594 1468.46 L94.2835 1470.13 L94.2835 1465.87 L102.547 1464.2 L107.223 1464.2 L107.223 1494.83 L114.862 1494.83 L114.862 1498.76 L94.9548 1498.76 L94.9548 1494.83 Z" fill="#4c4c4c" fill-rule="nonzero" fill-opacity="1" /><path clip-path="url(#clip980)" d="M124.306 1492.88 L129.191 1492.88 L129.191 1498.76 L124.306 1498.76 L124.306 1492.88 Z" fill="#4c4c4c" fill-rule="nonzero" fill-opacity="1" /><path clip-path="url(#clip980)" d="M143.404 1494.83 L159.723 1494.83 L159.723 1498.76 L137.779 1498.76 L137.779 1494.83 Q140.441 1492.07 145.024 1487.44 Q149.63 1482.79 150.811 1481.45 Q153.056 1478.92 153.936 1477.19 Q154.839 1475.43 154.839 1473.74 Q154.839 1470.98 152.894 1469.25 Q150.973 1467.51 147.871 1467.51 Q145.672 1467.51 143.218 1468.28 Q140.788 1469.04 138.01 1470.59 L138.01 1465.87 Q140.834 1464.73 143.288 1464.16 Q145.742 1463.58 147.779 1463.58 Q153.149 1463.58 156.343 1466.26 Q159.538 1468.95 159.538 1473.44 Q159.538 1475.57 158.728 1477.49 Q157.941 1479.39 155.834 1481.98 Q155.255 1482.65 152.154 1485.87 Q149.052 1489.06 143.404 1494.83 Z" fill="#4c4c4c" fill-rule="nonzero" fill-opacity="1" /><path clip-path="url(#clip980)" d="M94.0057 1162.73 L101.645 1162.73 L101.645 1136.36 L93.3344 1138.03 L93.3344 1133.77 L101.598 1132.1 L106.274 1132.1 L106.274 1162.73 L113.913 1162.73 L113.913 1166.66 L94.0057 1166.66 L94.0057 1162.73 Z" fill="#4c4c4c" fill-rule="nonzero" fill-opacity="1" /><path clip-path="url(#clip980)" d="M123.357 1160.79 L128.242 1160.79 L128.242 1166.66 L123.357 1166.66 L123.357 1160.79 Z" fill="#4c4c4c" fill-rule="nonzero" fill-opacity="1" /><path clip-path="url(#clip980)" d="M152.593 1148.03 Q155.95 1148.75 157.825 1151.02 Q159.723 1153.29 159.723 1156.62 Q159.723 1161.73 156.204 1164.54 Q152.686 1167.34 146.204 1167.34 Q144.029 1167.34 141.714 1166.9 Q139.422 1166.48 136.968 1165.62 L136.968 1161.11 Q138.913 1162.24 141.228 1162.82 Q143.542 1163.4 146.066 1163.4 Q150.464 1163.4 152.755 1161.66 Q155.07 1159.93 155.07 1156.62 Q155.07 1153.56 152.917 1151.85 Q150.788 1150.11 146.968 1150.11 L142.941 1150.11 L142.941 1146.27 L147.154 1146.27 Q150.603 1146.27 152.431 1144.91 Q154.26 1143.52 154.26 1140.92 Q154.26 1138.26 152.362 1136.85 Q150.487 1135.41 146.968 1135.41 Q145.047 1135.41 142.848 1135.83 Q140.649 1136.25 138.01 1137.13 L138.01 1132.96 Q140.672 1132.22 142.987 1131.85 Q145.325 1131.48 147.385 1131.48 Q152.709 1131.48 155.811 1133.91 Q158.913 1136.32 158.913 1140.44 Q158.913 1143.31 157.269 1145.3 Q155.626 1147.27 152.593 1148.03 Z" fill="#4c4c4c" fill-rule="nonzero" fill-opacity="1" /><path clip-path="url(#clip980)" d="M92.8715 830.633 L100.51 830.633 L100.51 804.267 L92.2002 805.934 L92.2002 801.675 L100.464 800.008 L105.14 800.008 L105.14 830.633 L112.779 830.633 L112.779 834.568 L92.8715 834.568 L92.8715 830.633 Z" fill="#4c4c4c" fill-rule="nonzero" fill-opacity="1" /><path clip-path="url(#clip980)" d="M122.223 828.688 L127.107 828.688 L127.107 834.568 L122.223 834.568 L122.223 828.688 Z" fill="#4c4c4c" fill-rule="nonzero" fill-opacity="1" /><path clip-path="url(#clip980)" d="M150.14 804.082 L138.334 822.531 L150.14 822.531 L150.14 804.082 M148.913 800.008 L154.792 800.008 L154.792 822.531 L159.723 822.531 L159.723 826.42 L154.792 826.42 L154.792 834.568 L150.14 834.568 L150.14 826.42 L134.538 826.42 L134.538 821.906 L148.913 800.008 Z" fill="#4c4c4c" fill-rule="nonzero" fill-opacity="1" /><path clip-path="url(#clip980)" d="M94.3529 498.536 L101.992 498.536 L101.992 472.171 L93.6816 473.837 L93.6816 469.578 L101.945 467.911 L106.621 467.911 L106.621 498.536 L114.26 498.536 L114.26 502.471 L94.3529 502.471 L94.3529 498.536 Z" fill="#4c4c4c" fill-rule="nonzero" fill-opacity="1" /><path clip-path="url(#clip980)" d="M123.705 496.592 L128.589 496.592 L128.589 502.471 L123.705 502.471 L123.705 496.592 Z" fill="#4c4c4c" fill-rule="nonzero" fill-opacity="1" /><path clip-path="url(#clip980)" d="M138.82 467.911 L157.177 467.911 L157.177 471.846 L143.103 471.846 L143.103 480.319 Q144.121 479.971 145.14 479.809 Q146.158 479.624 147.177 479.624 Q152.964 479.624 156.343 482.795 Q159.723 485.967 159.723 491.383 Q159.723 496.962 156.251 500.064 Q152.779 503.143 146.459 503.143 Q144.283 503.143 142.015 502.772 Q139.769 502.402 137.362 501.661 L137.362 496.962 Q139.445 498.096 141.667 498.652 Q143.89 499.207 146.367 499.207 Q150.371 499.207 152.709 497.101 Q155.047 494.995 155.047 491.383 Q155.047 487.772 152.709 485.666 Q150.371 483.559 146.367 483.559 Q144.492 483.559 142.617 483.976 Q140.765 484.393 138.82 485.272 L138.82 467.911 Z" fill="#4c4c4c" fill-rule="nonzero" fill-opacity="1" /><path clip-path="url(#clip980)" d="M93.1955 166.439 L100.834 166.439 L100.834 140.074 L92.5242 141.741 L92.5242 137.481 L100.788 135.815 L105.464 135.815 L105.464 166.439 L113.103 166.439 L113.103 170.375 L93.1955 170.375 L93.1955 166.439 Z" fill="#4c4c4c" fill-rule="nonzero" fill-opacity="1" /><path clip-path="url(#clip980)" d="M122.547 164.495 L127.431 164.495 L127.431 170.375 L122.547 170.375 L122.547 164.495 Z" fill="#4c4c4c" fill-rule="nonzero" fill-opacity="1" /><path clip-path="url(#clip980)" d="M148.195 151.231 Q145.047 151.231 143.195 153.384 Q141.367 155.537 141.367 159.287 Q141.367 163.014 143.195 165.189 Q145.047 167.342 148.195 167.342 Q151.343 167.342 153.172 165.189 Q155.024 163.014 155.024 159.287 Q155.024 155.537 153.172 153.384 Q151.343 151.231 148.195 151.231 M157.478 136.579 L157.478 140.838 Q155.718 140.004 153.913 139.565 Q152.13 139.125 150.371 139.125 Q145.742 139.125 143.288 142.25 Q140.857 145.375 140.51 151.694 Q141.876 149.68 143.936 148.615 Q145.996 147.528 148.473 147.528 Q153.681 147.528 156.691 150.699 Q159.723 153.847 159.723 159.287 Q159.723 164.611 156.575 167.828 Q153.427 171.046 148.195 171.046 Q142.2 171.046 139.029 166.463 Q135.857 161.856 135.857 153.129 Q135.857 144.935 139.746 140.074 Q143.635 135.19 150.186 135.19 Q151.945 135.19 153.728 135.537 Q155.533 135.884 157.478 136.579 Z" fill="#4c4c4c" fill-rule="nonzero" fill-opacity="1" /><path clip-path="url(#clip980)" d="M18.2962 1141.64 L35.6428 1154.53 L53.9442 1140.97 L53.9442 1147.88 L39.9396 1158.26 L53.9442 1168.63 L53.9442 1175.54 L35.2926 1161.69 L18.2962 1174.36 L18.2962 1167.45 L30.9958 1158 L18.2962 1148.55 L18.2962 1141.64 Z" fill="#000000" fill-rule="nonzero" fill-opacity="1" /><path clip-path="url(#clip980)" d="M1151.01 20.3876 L1151.01 25.4223 Q1148.75 24.2649 1146.32 23.6862 Q1143.89 23.1075 1141.29 23.1075 Q1137.32 23.1075 1135.33 24.3228 Q1133.36 25.5381 1133.36 27.9686 Q1133.36 29.8204 1134.78 30.891 Q1136.19 31.9327 1140.48 32.8876 L1142.3 33.2926 Q1147.97 34.5079 1150.34 36.7359 Q1152.75 38.935 1152.75 42.8991 Q1152.75 47.4129 1149.16 50.046 Q1145.6 52.6791 1139.35 52.6791 Q1136.74 52.6791 1133.91 52.1583 Q1131.1 51.6664 1127.98 50.6537 L1127.98 45.156 Q1130.93 46.6896 1133.79 47.4708 Q1136.66 48.2231 1139.46 48.2231 Q1143.23 48.2231 1145.25 46.95 Q1147.28 45.6479 1147.28 43.3042 Q1147.28 41.134 1145.8 39.9766 Q1144.35 38.8192 1139.41 37.7486 L1137.55 37.3146 Q1132.61 36.273 1130.41 34.1318 Q1128.21 31.9616 1128.21 28.2001 Q1128.21 23.6283 1131.45 21.1399 Q1134.69 18.6515 1140.65 18.6515 Q1143.6 18.6515 1146.21 19.0855 Q1148.81 19.5196 1151.01 20.3876 Z" fill="#000000" fill-rule="nonzero" fill-opacity="1" /><path clip-path="url(#clip980)" d="M1173.78 23.1654 Q1169.5 23.1654 1167.01 26.5218 Q1164.52 29.8494 1164.52 35.6653 Q1164.52 41.4813 1166.98 44.8377 Q1169.47 48.1653 1173.78 48.1653 Q1178.04 48.1653 1180.52 44.8088 Q1183.01 41.4523 1183.01 35.6653 Q1183.01 29.9072 1180.52 26.5508 Q1178.04 23.1654 1173.78 23.1654 M1173.78 18.6515 Q1180.73 18.6515 1184.69 23.1654 Q1188.65 27.6792 1188.65 35.6653 Q1188.65 43.6225 1184.69 48.1653 Q1180.73 52.6791 1173.78 52.6791 Q1166.81 52.6791 1162.84 48.1653 Q1158.91 43.6225 1158.91 35.6653 Q1158.91 27.6792 1162.84 23.1654 Q1166.81 18.6515 1173.78 18.6515 Z" fill="#000000" fill-rule="nonzero" fill-opacity="1" /><path clip-path="url(#clip980)" d="M1197.48 6.81709 L1202.8 6.81709 L1202.8 51.84 L1197.48 51.84 L1197.48 6.81709 Z" fill="#000000" fill-rule="nonzero" fill-opacity="1" /><path clip-path="url(#clip980)" d="M1213.39 39.0507 L1213.39 19.4328 L1218.72 19.4328 L1218.72 38.8482 Q1218.72 43.4488 1220.51 45.7636 Q1222.31 48.0495 1225.89 48.0495 Q1230.2 48.0495 1232.69 45.3007 Q1235.21 42.5519 1235.21 37.8065 L1235.21 19.4328 L1240.53 19.4328 L1240.53 51.84 L1235.21 51.84 L1235.21 46.8632 Q1233.27 49.8145 1230.7 51.2613 Q1228.15 52.6791 1224.77 52.6791 Q1219.18 52.6791 1216.29 49.2069 Q1213.39 45.7347 1213.39 39.0507 M1226.79 18.6515 L1226.79 18.6515 Z" fill="#000000" fill-rule="nonzero" fill-opacity="1" /><path clip-path="url(#clip980)" d="M1274.82 20.677 L1274.82 25.6538 Q1272.57 24.4096 1270.28 23.802 Q1268.02 23.1654 1265.71 23.1654 Q1260.53 23.1654 1257.66 26.464 Q1254.8 29.7336 1254.8 35.6653 Q1254.8 41.597 1257.66 44.8956 Q1260.53 48.1653 1265.71 48.1653 Q1268.02 48.1653 1270.28 47.5576 Q1272.57 46.921 1274.82 45.6768 L1274.82 50.5958 Q1272.59 51.6375 1270.19 52.1583 Q1267.82 52.6791 1265.13 52.6791 Q1257.81 52.6791 1253.5 48.0784 Q1249.19 43.4778 1249.19 35.6653 Q1249.19 27.7371 1253.53 23.1943 Q1257.9 18.6515 1265.48 18.6515 Q1267.94 18.6515 1270.28 19.1724 Q1272.62 19.6642 1274.82 20.677 M1267.3 51.84 Q1268.89 53.634 1269.67 55.1386 Q1270.45 56.6722 1270.45 58.061 Q1270.45 60.6362 1268.72 61.9383 Q1266.98 63.2693 1263.57 63.2693 Q1262.24 63.2693 1260.96 63.0957 Q1259.72 62.9221 1258.47 62.5749 L1258.47 58.7844 Q1259.46 59.2763 1260.53 59.4788 Q1261.6 59.7103 1262.96 59.7103 Q1264.67 59.7103 1265.53 59.0159 Q1266.4 58.3214 1266.4 56.9904 Q1266.4 56.1224 1265.77 54.8492 Q1265.16 53.605 1263.86 51.84 L1267.3 51.84 Z" fill="#000000" fill-rule="nonzero" fill-opacity="1" /><path clip-path="url(#clip980)" d="M1298.81 35.5496 Q1292.36 35.5496 1289.87 37.0253 Q1287.38 38.501 1287.38 42.06 Q1287.38 44.8956 1289.23 46.5738 Q1291.11 48.2231 1294.32 48.2231 Q1298.75 48.2231 1301.41 45.0981 Q1304.1 41.9442 1304.1 36.7359 L1304.1 35.5496 L1298.81 35.5496 M1309.43 33.3505 L1309.43 51.84 L1304.1 51.84 L1304.1 46.921 Q1302.28 49.8724 1299.56 51.2902 Q1296.84 52.6791 1292.91 52.6791 Q1287.93 52.6791 1284.98 49.9014 Q1282.06 47.0947 1282.06 42.4072 Q1282.06 36.9385 1285.7 34.1607 Q1289.38 31.3829 1296.64 31.3829 L1304.1 31.3829 L1304.1 30.8621 Q1304.1 27.1874 1301.67 25.1908 Q1299.27 23.1654 1294.9 23.1654 Q1292.13 23.1654 1289.49 23.8309 Q1286.86 24.4964 1284.43 25.8274 L1284.43 20.9085 Q1287.35 19.78 1290.1 19.2302 Q1292.85 18.6515 1295.45 18.6515 Q1302.48 18.6515 1305.96 22.2973 Q1309.43 25.9431 1309.43 33.3505 M1295.57 12.199 L1293.92 10.6076 Q1293.28 10.0289 1292.79 9.76847 Q1292.33 9.47912 1291.95 9.47912 Q1290.85 9.47912 1290.33 10.5497 Q1289.81 11.5914 1289.75 13.964 L1286.14 13.964 Q1286.19 10.0578 1287.67 7.94556 Q1289.15 5.80437 1291.78 5.80437 Q1292.88 5.80437 1293.8 6.20946 Q1294.73 6.61455 1295.8 7.5694 L1297.45 9.16083 Q1298.09 9.73953 1298.55 10.0289 Q1299.04 10.2893 1299.42 10.2893 Q1300.52 10.2893 1301.04 9.24764 Q1301.56 8.17704 1301.62 5.80437 L1305.23 5.80437 Q1305.18 9.7106 1303.7 11.8518 Q1302.22 13.964 1299.59 13.964 Q1298.49 13.964 1297.57 13.559 Q1296.64 13.1539 1295.57 12.199 Z" fill="#000000" fill-rule="nonzero" fill-opacity="1" /><path clip-path="url(#clip980)" d="M1332.95 23.1654 Q1328.67 23.1654 1326.18 26.5218 Q1323.69 29.8494 1323.69 35.6653 Q1323.69 41.4813 1326.15 44.8377 Q1328.64 48.1653 1332.95 48.1653 Q1337.21 48.1653 1339.7 44.8088 Q1342.18 41.4523 1342.18 35.6653 Q1342.18 29.9072 1339.7 26.5508 Q1337.21 23.1654 1332.95 23.1654 M1332.95 18.6515 Q1339.9 18.6515 1343.86 23.1654 Q1347.83 27.6792 1347.83 35.6653 Q1347.83 43.6225 1343.86 48.1653 Q1339.9 52.6791 1332.95 52.6791 Q1325.98 52.6791 1322.02 48.1653 Q1318.08 43.6225 1318.08 35.6653 Q1318.08 27.6792 1322.02 23.1654 Q1325.98 18.6515 1332.95 18.6515 Z" fill="#000000" fill-rule="nonzero" fill-opacity="1" /><path clip-path="url(#clip980)" d="M1396.81 24.3517 L1396.81 6.81709 L1402.14 6.81709 L1402.14 51.84 L1396.81 51.84 L1396.81 46.9789 Q1395.13 49.8724 1392.56 51.2902 Q1390.01 52.6791 1386.43 52.6791 Q1380.55 52.6791 1376.85 47.9916 Q1373.17 43.3042 1373.17 35.6653 Q1373.17 28.0265 1376.85 23.339 Q1380.55 18.6515 1386.43 18.6515 Q1390.01 18.6515 1392.56 20.0693 Q1395.13 21.4582 1396.81 24.3517 M1378.67 35.6653 Q1378.67 41.5391 1381.07 44.8956 Q1383.5 48.2231 1387.73 48.2231 Q1391.95 48.2231 1394.38 44.8956 Q1396.81 41.5391 1396.81 35.6653 Q1396.81 29.7915 1394.38 26.464 Q1391.95 23.1075 1387.73 23.1075 Q1383.5 23.1075 1381.07 26.464 Q1378.67 29.7915 1378.67 35.6653 Z" fill="#000000" fill-rule="nonzero" fill-opacity="1" /><path clip-path="url(#clip980)" d="M1427.83 35.5496 Q1421.38 35.5496 1418.89 37.0253 Q1416.4 38.501 1416.4 42.06 Q1416.4 44.8956 1418.25 46.5738 Q1420.13 48.2231 1423.35 48.2231 Q1427.77 48.2231 1430.44 45.0981 Q1433.13 41.9442 1433.13 36.7359 L1433.13 35.5496 L1427.83 35.5496 M1438.45 33.3505 L1438.45 51.84 L1433.13 51.84 L1433.13 46.921 Q1431.3 49.8724 1428.58 51.2902 Q1425.86 52.6791 1421.93 52.6791 Q1416.95 52.6791 1414 49.9014 Q1411.08 47.0947 1411.08 42.4072 Q1411.08 36.9385 1414.72 34.1607 Q1418.4 31.3829 1425.66 31.3829 L1433.13 31.3829 L1433.13 30.8621 Q1433.13 27.1874 1430.7 25.1908 Q1428.29 23.1654 1423.92 23.1654 Q1421.15 23.1654 1418.51 23.8309 Q1415.88 24.4964 1413.45 25.8274 L1413.45 20.9085 Q1416.37 19.78 1419.12 19.2302 Q1421.87 18.6515 1424.47 18.6515 Q1431.51 18.6515 1434.98 22.2973 Q1438.45 25.9431 1438.45 33.3505 Z" fill="#000000" fill-rule="nonzero" fill-opacity="1" /><path clip-path="url(#clip980)" d="M1495.97 34.3054 L1495.97 36.9095 L1471.49 36.9095 Q1471.84 42.4072 1474.79 45.3007 Q1477.77 48.1653 1483.07 48.1653 Q1486.14 48.1653 1489 47.4129 Q1491.89 46.6606 1494.73 45.156 L1494.73 50.1907 Q1491.86 51.406 1488.86 52.0425 Q1485.85 52.6791 1482.75 52.6791 Q1475 52.6791 1470.45 48.1653 Q1465.94 43.6514 1465.94 35.9547 Q1465.94 27.9975 1470.22 23.339 Q1474.53 18.6515 1481.82 18.6515 Q1488.36 18.6515 1492.15 22.876 Q1495.97 27.0716 1495.97 34.3054 M1490.65 32.7429 Q1490.59 28.3737 1488.19 25.7695 Q1485.82 23.1654 1481.88 23.1654 Q1477.43 23.1654 1474.73 25.6827 Q1472.07 28.2001 1471.67 32.7718 L1490.65 32.7429 Z" fill="#000000" fill-rule="nonzero" fill-opacity="1" /><path clip-path="url(#clip980)" d="M1507.89 35.6653 Q1507.89 41.5391 1510.3 44.8956 Q1512.73 48.2231 1516.95 48.2231 Q1521.18 48.2231 1523.61 44.8956 Q1526.04 41.5391 1526.04 35.6653 Q1526.04 29.7915 1523.61 26.464 Q1521.18 23.1075 1516.95 23.1075 Q1512.73 23.1075 1510.3 26.464 Q1507.89 29.7915 1507.89 35.6653 M1526.04 46.9789 Q1524.36 49.8724 1521.78 51.2902 Q1519.24 52.6791 1515.65 52.6791 Q1509.78 52.6791 1506.07 47.9916 Q1502.4 43.3042 1502.4 35.6653 Q1502.4 28.0265 1506.07 23.339 Q1509.78 18.6515 1515.65 18.6515 Q1519.24 18.6515 1521.78 20.0693 Q1524.36 21.4582 1526.04 24.3517 L1526.04 19.4328 L1531.36 19.4328 L1531.36 64.1663 L1526.04 64.1663 L1526.04 46.9789 Z" fill="#000000" fill-rule="nonzero" fill-opacity="1" /><path clip-path="url(#clip980)" d="M1541.78 39.0507 L1541.78 19.4328 L1547.1 19.4328 L1547.1 38.8482 Q1547.1 43.4488 1548.9 45.7636 Q1550.69 48.0495 1554.28 48.0495 Q1558.59 48.0495 1561.08 45.3007 Q1563.59 42.5519 1563.59 37.8065 L1563.59 19.4328 L1568.92 19.4328 L1568.92 51.84 L1563.59 51.84 L1563.59 46.8632 Q1561.66 49.8145 1559.08 51.2613 Q1556.53 52.6791 1553.15 52.6791 Q1547.56 52.6791 1544.67 49.2069 Q1541.78 45.7347 1541.78 39.0507 M1555.17 18.6515 L1555.17 18.6515 Z" fill="#000000" fill-rule="nonzero" fill-opacity="1" /><path clip-path="url(#clip980)" d="M1594.61 35.5496 Q1588.16 35.5496 1585.67 37.0253 Q1583.18 38.501 1583.18 42.06 Q1583.18 44.8956 1585.04 46.5738 Q1586.92 48.2231 1590.13 48.2231 Q1594.55 48.2231 1597.22 45.0981 Q1599.91 41.9442 1599.91 36.7359 L1599.91 35.5496 L1594.61 35.5496 M1605.23 33.3505 L1605.23 51.84 L1599.91 51.84 L1599.91 46.921 Q1598.08 49.8724 1595.36 51.2902 Q1592.65 52.6791 1588.71 52.6791 Q1583.73 52.6791 1580.78 49.9014 Q1577.86 47.0947 1577.86 42.4072 Q1577.86 36.9385 1581.51 34.1607 Q1585.18 31.3829 1592.44 31.3829 L1599.91 31.3829 L1599.91 30.8621 Q1599.91 27.1874 1597.48 25.1908 Q1595.08 23.1654 1590.71 23.1654 Q1587.93 23.1654 1585.3 23.8309 Q1582.66 24.4964 1580.23 25.8274 L1580.23 20.9085 Q1583.15 19.78 1585.9 19.2302 Q1588.65 18.6515 1591.26 18.6515 Q1598.29 18.6515 1601.76 22.2973 Q1605.23 25.9431 1605.23 33.3505 Z" fill="#000000" fill-rule="nonzero" fill-opacity="1" /><path clip-path="url(#clip980)" d="M1639.52 20.677 L1639.52 25.6538 Q1637.26 24.4096 1634.98 23.802 Q1632.72 23.1654 1630.41 23.1654 Q1625.23 23.1654 1622.36 26.464 Q1619.5 29.7336 1619.5 35.6653 Q1619.5 41.597 1622.36 44.8956 Q1625.23 48.1653 1630.41 48.1653 Q1632.72 48.1653 1634.98 47.5576 Q1637.26 46.921 1639.52 45.6768 L1639.52 50.5958 Q1637.29 51.6375 1634.89 52.1583 Q1632.52 52.6791 1629.83 52.6791 Q1622.51 52.6791 1618.19 48.0784 Q1613.88 43.4778 1613.88 35.6653 Q1613.88 27.7371 1618.22 23.1943 Q1622.59 18.6515 1630.17 18.6515 Q1632.63 18.6515 1634.98 19.1724 Q1637.32 19.6642 1639.52 20.677 M1632 51.84 Q1633.59 53.634 1634.37 55.1386 Q1635.15 56.6722 1635.15 58.061 Q1635.15 60.6362 1633.41 61.9383 Q1631.68 63.2693 1628.26 63.2693 Q1626.93 63.2693 1625.66 63.0957 Q1624.42 62.9221 1623.17 62.5749 L1623.17 58.7844 Q1624.16 59.2763 1625.23 59.4788 Q1626.3 59.7103 1627.66 59.7103 Q1629.36 59.7103 1630.23 59.0159 Q1631.1 58.3214 1631.1 56.9904 Q1631.1 56.1224 1630.46 54.8492 Q1629.86 53.605 1628.55 51.84 L1632 51.84 Z" fill="#000000" fill-rule="nonzero" fill-opacity="1" /><path clip-path="url(#clip980)" d="M1663.51 35.5496 Q1657.05 35.5496 1654.57 37.0253 Q1652.08 38.501 1652.08 42.06 Q1652.08 44.8956 1653.93 46.5738 Q1655.81 48.2231 1659.02 48.2231 Q1663.45 48.2231 1666.11 45.0981 Q1668.8 41.9442 1668.8 36.7359 L1668.8 35.5496 L1663.51 35.5496 M1674.13 33.3505 L1674.13 51.84 L1668.8 51.84 L1668.8 46.921 Q1666.98 49.8724 1664.26 51.2902 Q1661.54 52.6791 1657.6 52.6791 Q1652.63 52.6791 1649.68 49.9014 Q1646.75 47.0947 1646.75 42.4072 Q1646.75 36.9385 1650.4 34.1607 Q1654.07 31.3829 1661.34 31.3829 L1668.8 31.3829 L1668.8 30.8621 Q1668.8 27.1874 1666.37 25.1908 Q1663.97 23.1654 1659.6 23.1654 Q1656.82 23.1654 1654.19 23.8309 Q1651.56 24.4964 1649.13 25.8274 L1649.13 20.9085 Q1652.05 19.78 1654.8 19.2302 Q1657.55 18.6515 1660.15 18.6515 Q1667.18 18.6515 1670.65 22.2973 Q1674.13 25.9431 1674.13 33.3505 M1660.27 12.199 L1658.62 10.6076 Q1657.98 10.0289 1657.49 9.76847 Q1657.03 9.47912 1656.65 9.47912 Q1655.55 9.47912 1655.03 10.5497 Q1654.51 11.5914 1654.45 13.964 L1650.83 13.964 Q1650.89 10.0578 1652.37 7.94556 Q1653.84 5.80437 1656.48 5.80437 Q1657.58 5.80437 1658.5 6.20946 Q1659.43 6.61455 1660.5 7.5694 L1662.15 9.16083 Q1662.78 9.73953 1663.25 10.0289 Q1663.74 10.2893 1664.11 10.2893 Q1665.21 10.2893 1665.73 9.24764 Q1666.26 8.17704 1666.31 5.80437 L1669.93 5.80437 Q1669.87 9.7106 1668.4 11.8518 Q1666.92 13.964 1664.29 13.964 Q1663.19 13.964 1662.26 13.559 Q1661.34 13.1539 1660.27 12.199 Z" fill="#000000" fill-rule="nonzero" fill-opacity="1" /><path clip-path="url(#clip980)" d="M1697.65 23.1654 Q1693.37 23.1654 1690.88 26.5218 Q1688.39 29.8494 1688.39 35.6653 Q1688.39 41.4813 1690.85 44.8377 Q1693.34 48.1653 1697.65 48.1653 Q1701.9 48.1653 1704.39 44.8088 Q1706.88 41.4523 1706.88 35.6653 Q1706.88 29.9072 1704.39 26.5508 Q1701.9 23.1654 1697.65 23.1654 M1697.65 18.6515 Q1704.59 18.6515 1708.56 23.1654 Q1712.52 27.6792 1712.52 35.6653 Q1712.52 43.6225 1708.56 48.1653 Q1704.59 52.6791 1697.65 52.6791 Q1690.68 52.6791 1686.71 48.1653 Q1682.78 43.6225 1682.78 35.6653 Q1682.78 27.6792 1686.71 23.1654 Q1690.68 18.6515 1697.65 18.6515 Z" fill="#000000" fill-rule="nonzero" fill-opacity="1" /><path clip-path="url(#clip980)" d="M1740.18 6.81709 L1745.51 6.81709 L1745.51 51.84 L1740.18 51.84 L1740.18 6.81709 Z" fill="#000000" fill-rule="nonzero" fill-opacity="1" /><path clip-path="url(#clip980)" d="M1769.21 23.1654 Q1764.92 23.1654 1762.44 26.5218 Q1759.95 29.8494 1759.95 35.6653 Q1759.95 41.4813 1762.41 44.8377 Q1764.9 48.1653 1769.21 48.1653 Q1773.46 48.1653 1775.95 44.8088 Q1778.44 41.4523 1778.44 35.6653 Q1778.44 29.9072 1775.95 26.5508 Q1773.46 23.1654 1769.21 23.1654 M1769.21 18.6515 Q1776.15 18.6515 1780.12 23.1654 Q1784.08 27.6792 1784.08 35.6653 Q1784.08 43.6225 1780.12 48.1653 Q1776.15 52.6791 1769.21 52.6791 Q1762.23 52.6791 1758.27 48.1653 Q1754.33 43.6225 1754.33 35.6653 Q1754.33 27.6792 1758.27 23.1654 Q1762.23 18.6515 1769.21 18.6515 Z" fill="#000000" fill-rule="nonzero" fill-opacity="1" /><path clip-path="url(#clip980)" d="M1814.23 35.2602 Q1814.23 29.4732 1811.83 26.2904 Q1809.46 23.1075 1805.14 23.1075 Q1800.86 23.1075 1798.46 26.2904 Q1796.09 29.4732 1796.09 35.2602 Q1796.09 41.0183 1798.46 44.2012 Q1800.86 47.384 1805.14 47.384 Q1809.46 47.384 1811.83 44.2012 Q1814.23 41.0183 1814.23 35.2602 M1819.55 47.818 Q1819.55 56.0934 1815.88 60.1154 Q1812.2 64.1663 1804.62 64.1663 Q1801.82 64.1663 1799.33 63.7323 Q1796.84 63.3272 1794.5 62.4592 L1794.5 57.2798 Q1796.84 58.5529 1799.13 59.1606 Q1801.41 59.7682 1803.78 59.7682 Q1809.02 59.7682 1811.63 57.0194 Q1814.23 54.2995 1814.23 48.7729 L1814.23 46.1398 Q1812.58 49.0044 1810 50.4222 Q1807.43 51.84 1803.84 51.84 Q1797.88 51.84 1794.24 47.2972 Q1790.59 42.7544 1790.59 35.2602 Q1790.59 27.7371 1794.24 23.1943 Q1797.88 18.6515 1803.84 18.6515 Q1807.43 18.6515 1810 20.0693 Q1812.58 21.4872 1814.23 24.3517 L1814.23 19.4328 L1819.55 19.4328 L1819.55 47.818 Z" fill="#000000" fill-rule="nonzero" fill-opacity="1" /><path clip-path="url(#clip980)" d="M1837.2 4.44442 L1842.96 4.44442 L1833.53 15.324 L1829.1 15.324 L1837.2 4.44442 M1830.52 19.4328 L1835.84 19.4328 L1835.84 51.84 L1830.52 51.84 L1830.52 19.4328 M1833.18 18.6515 L1833.18 18.6515 Z" fill="#000000" fill-rule="nonzero" fill-opacity="1" /><path clip-path="url(#clip980)" d="M1867.64 20.3876 L1867.64 25.4223 Q1865.39 24.2649 1862.96 23.6862 Q1860.53 23.1075 1857.92 23.1075 Q1853.96 23.1075 1851.96 24.3228 Q1849.99 25.5381 1849.99 27.9686 Q1849.99 29.8204 1851.41 30.891 Q1852.83 31.9327 1857.11 32.8876 L1858.93 33.2926 Q1864.61 34.5079 1866.98 36.7359 Q1869.38 38.935 1869.38 42.8991 Q1869.38 47.4129 1865.79 50.046 Q1862.23 52.6791 1855.98 52.6791 Q1853.38 52.6791 1850.54 52.1583 Q1847.74 51.6664 1844.61 50.6537 L1844.61 45.156 Q1847.56 46.6896 1850.43 47.4708 Q1853.29 48.2231 1856.1 48.2231 Q1859.86 48.2231 1861.89 46.95 Q1863.91 45.6479 1863.91 43.3042 Q1863.91 41.134 1862.44 39.9766 Q1860.99 38.8192 1856.04 37.7486 L1854.19 37.3146 Q1849.24 36.273 1847.04 34.1318 Q1844.84 31.9616 1844.84 28.2001 Q1844.84 23.6283 1848.08 21.1399 Q1851.32 18.6515 1857.28 18.6515 Q1860.24 18.6515 1862.84 19.0855 Q1865.44 19.5196 1867.64 20.3876 Z" fill="#000000" fill-rule="nonzero" fill-opacity="1" /><path clip-path="url(#clip980)" d="M1883.12 10.2314 L1883.12 19.4328 L1894.09 19.4328 L1894.09 23.5705 L1883.12 23.5705 L1883.12 41.163 Q1883.12 45.1271 1884.19 46.2555 Q1885.29 47.384 1888.62 47.384 L1894.09 47.384 L1894.09 51.84 L1888.62 51.84 Q1882.46 51.84 1880.11 49.5541 Q1877.77 47.2393 1877.77 41.163 L1877.77 23.5705 L1873.86 23.5705 L1873.86 19.4328 L1877.77 19.4328 L1877.77 10.2314 L1883.12 10.2314 Z" fill="#000000" fill-rule="nonzero" fill-opacity="1" /><path clip-path="url(#clip980)" d="M1901.09 19.4328 L1906.42 19.4328 L1906.42 51.84 L1901.09 51.84 L1901.09 19.4328 M1901.09 6.81709 L1906.42 6.81709 L1906.42 13.559 L1901.09 13.559 L1901.09 6.81709 Z" fill="#000000" fill-rule="nonzero" fill-opacity="1" /><path clip-path="url(#clip980)" d="M1940.88 20.677 L1940.88 25.6538 Q1938.62 24.4096 1936.34 23.802 Q1934.08 23.1654 1931.76 23.1654 Q1926.58 23.1654 1923.72 26.464 Q1920.86 29.7336 1920.86 35.6653 Q1920.86 41.597 1923.72 44.8956 Q1926.58 48.1653 1931.76 48.1653 Q1934.08 48.1653 1936.34 47.5576 Q1938.62 46.921 1940.88 45.6768 L1940.88 50.5958 Q1938.65 51.6375 1936.25 52.1583 Q1933.88 52.6791 1931.18 52.6791 Q1923.86 52.6791 1919.55 48.0784 Q1915.24 43.4778 1915.24 35.6653 Q1915.24 27.7371 1919.58 23.1943 Q1923.95 18.6515 1931.53 18.6515 Q1933.99 18.6515 1936.34 19.1724 Q1938.68 19.6642 1940.88 20.677 Z" fill="#000000" fill-rule="nonzero" fill-opacity="1" /><path clip-path="url(#clip980)" d="M1964.87 35.5496 Q1958.41 35.5496 1955.92 37.0253 Q1953.44 38.501 1953.44 42.06 Q1953.44 44.8956 1955.29 46.5738 Q1957.17 48.2231 1960.38 48.2231 Q1964.81 48.2231 1967.47 45.0981 Q1970.16 41.9442 1970.16 36.7359 L1970.16 35.5496 L1964.87 35.5496 M1975.48 33.3505 L1975.48 51.84 L1970.16 51.84 L1970.16 46.921 Q1968.34 49.8724 1965.62 51.2902 Q1962.9 52.6791 1958.96 52.6791 Q1953.99 52.6791 1951.03 49.9014 Q1948.11 47.0947 1948.11 42.4072 Q1948.11 36.9385 1951.76 34.1607 Q1955.43 31.3829 1962.7 31.3829 L1970.16 31.3829 L1970.16 30.8621 Q1970.16 27.1874 1967.73 25.1908 Q1965.33 23.1654 1960.96 23.1654 Q1958.18 23.1654 1955.55 23.8309 Q1952.92 24.4964 1950.48 25.8274 L1950.48 20.9085 Q1953.41 19.78 1956.16 19.2302 Q1958.9 18.6515 1961.51 18.6515 Q1968.54 18.6515 1972.01 22.2973 Q1975.48 25.9431 1975.48 33.3505 Z" fill="#000000" fill-rule="nonzero" fill-opacity="1" /><path clip-path="url(#clip980)" d="M2020.02 35.5496 Q2013.56 35.5496 2011.07 37.0253 Q2008.59 38.501 2008.59 42.06 Q2008.59 44.8956 2010.44 46.5738 Q2012.32 48.2231 2015.53 48.2231 Q2019.96 48.2231 2022.62 45.0981 Q2025.31 41.9442 2025.31 36.7359 L2025.31 35.5496 L2020.02 35.5496 M2030.63 33.3505 L2030.63 51.84 L2025.31 51.84 L2025.31 46.921 Q2023.49 49.8724 2020.77 51.2902 Q2018.05 52.6791 2014.11 52.6791 Q2009.14 52.6791 2006.18 49.9014 Q2003.26 47.0947 2003.26 42.4072 Q2003.26 36.9385 2006.91 34.1607 Q2010.58 31.3829 2017.85 31.3829 L2025.31 31.3829 L2025.31 30.8621 Q2025.31 27.1874 2022.88 25.1908 Q2020.48 23.1654 2016.11 23.1654 Q2013.33 23.1654 2010.7 23.8309 Q2008.07 24.4964 2005.63 25.8274 L2005.63 20.9085 Q2008.56 19.78 2011.31 19.2302 Q2014.05 18.6515 2016.66 18.6515 Q2023.69 18.6515 2027.16 22.2973 Q2030.63 25.9431 2030.63 33.3505 Z" fill="#000000" fill-rule="nonzero" fill-opacity="1" /><path clip-path="url(#clip980)" d="M2041.6 6.81709 L2046.93 6.81709 L2046.93 51.84 L2041.6 51.84 L2041.6 6.81709 Z" fill="#000000" fill-rule="nonzero" fill-opacity="1" /><path clip-path="url(#clip980)" d="M2085.78 34.3054 L2085.78 36.9095 L2061.31 36.9095 Q2061.65 42.4072 2064.6 45.3007 Q2067.58 48.1653 2072.88 48.1653 Q2075.95 48.1653 2078.81 47.4129 Q2081.7 46.6606 2084.54 45.156 L2084.54 50.1907 Q2081.68 51.406 2078.67 52.0425 Q2075.66 52.6791 2072.56 52.6791 Q2064.81 52.6791 2060.26 48.1653 Q2055.75 43.6514 2055.75 35.9547 Q2055.75 27.9975 2060.03 23.339 Q2064.34 18.6515 2071.64 18.6515 Q2078.17 18.6515 2081.97 22.876 Q2085.78 27.0716 2085.78 34.3054 M2080.46 32.7429 Q2080.4 28.3737 2078 25.7695 Q2075.63 23.1654 2071.69 23.1654 Q2067.24 23.1654 2064.55 25.6827 Q2061.88 28.2001 2061.48 32.7718 L2080.46 32.7429 Z" fill="#000000" fill-rule="nonzero" fill-opacity="1" /><path clip-path="url(#clip980)" d="M2109.25 35.5496 Q2102.8 35.5496 2100.31 37.0253 Q2097.82 38.501 2097.82 42.06 Q2097.82 44.8956 2099.67 46.5738 Q2101.55 48.2231 2104.77 48.2231 Q2109.19 48.2231 2111.86 45.0981 Q2114.55 41.9442 2114.55 36.7359 L2114.55 35.5496 L2109.25 35.5496 M2119.87 33.3505 L2119.87 51.84 L2114.55 51.84 L2114.55 46.921 Q2112.72 49.8724 2110 51.2902 Q2107.28 52.6791 2103.35 52.6791 Q2098.37 52.6791 2095.42 49.9014 Q2092.5 47.0947 2092.5 42.4072 Q2092.5 36.9385 2096.14 34.1607 Q2099.82 31.3829 2107.08 31.3829 L2114.55 31.3829 L2114.55 30.8621 Q2114.55 27.1874 2112.12 25.1908 Q2109.71 23.1654 2105.34 23.1654 Q2102.57 23.1654 2099.93 23.8309 Q2097.3 24.4964 2094.87 25.8274 L2094.87 20.9085 Q2097.79 19.78 2100.54 19.2302 Q2103.29 18.6515 2105.89 18.6515 Q2112.93 18.6515 2116.4 22.2973 Q2119.87 25.9431 2119.87 33.3505 Z" fill="#000000" fill-rule="nonzero" fill-opacity="1" /><path clip-path="url(#clip980)" d="M2136.1 10.2314 L2136.1 19.4328 L2147.07 19.4328 L2147.07 23.5705 L2136.1 23.5705 L2136.1 41.163 Q2136.1 45.1271 2137.17 46.2555 Q2138.27 47.384 2141.6 47.384 L2147.07 47.384 L2147.07 51.84 L2141.6 51.84 Q2135.44 51.84 2133.09 49.5541 Q2130.75 47.2393 2130.75 41.163 L2130.75 23.5705 L2126.84 23.5705 L2126.84 19.4328 L2130.75 19.4328 L2130.75 10.2314 L2136.1 10.2314 Z" fill="#000000" fill-rule="nonzero" fill-opacity="1" /><path clip-path="url(#clip980)" d="M2166.63 23.1654 Q2162.35 23.1654 2159.86 26.5218 Q2157.37 29.8494 2157.37 35.6653 Q2157.37 41.4813 2159.83 44.8377 Q2162.32 48.1653 2166.63 48.1653 Q2170.88 48.1653 2173.37 44.8088 Q2175.86 41.4523 2175.86 35.6653 Q2175.86 29.9072 2173.37 26.5508 Q2170.88 23.1654 2166.63 23.1654 M2166.63 18.6515 Q2173.57 18.6515 2177.54 23.1654 Q2181.5 27.6792 2181.5 35.6653 Q2181.5 43.6225 2177.54 48.1653 Q2173.57 52.6791 2166.63 52.6791 Q2159.66 52.6791 2155.69 48.1653 Q2151.76 43.6225 2151.76 35.6653 Q2151.76 27.6792 2155.69 23.1654 Q2159.66 18.6515 2166.63 18.6515 M2170.65 4.44442 L2176.41 4.44442 L2166.98 15.324 L2162.55 15.324 L2170.65 4.44442 Z" fill="#000000" fill-rule="nonzero" fill-opacity="1" /><path clip-path="url(#clip980)" d="M2209.11 24.4096 Q2208.21 23.8888 2207.14 23.6573 Q2206.1 23.3969 2204.82 23.3969 Q2200.31 23.3969 2197.88 26.3482 Q2195.48 29.2707 2195.48 34.7683 L2195.48 51.84 L2190.12 51.84 L2190.12 19.4328 L2195.48 19.4328 L2195.48 24.4675 Q2197.16 21.5161 2199.85 20.0983 Q2202.54 18.6515 2206.39 18.6515 Q2206.94 18.6515 2207.6 18.7383 Q2208.27 18.7962 2209.08 18.9409 L2209.11 24.4096 Z" fill="#000000" fill-rule="nonzero" fill-opacity="1" /><path clip-path="url(#clip980)" d="M2214.69 19.4328 L2220.01 19.4328 L2220.01 51.84 L2214.69 51.84 L2214.69 19.4328 M2214.69 6.81709 L2220.01 6.81709 L2220.01 13.559 L2214.69 13.559 L2214.69 6.81709 Z" fill="#000000" fill-rule="nonzero" fill-opacity="1" /><path clip-path="url(#clip980)" d="M2245.88 35.5496 Q2239.43 35.5496 2236.94 37.0253 Q2234.45 38.501 2234.45 42.06 Q2234.45 44.8956 2236.3 46.5738 Q2238.19 48.2231 2241.4 48.2231 Q2245.82 48.2231 2248.49 45.0981 Q2251.18 41.9442 2251.18 36.7359 L2251.18 35.5496 L2245.88 35.5496 M2256.5 33.3505 L2256.5 51.84 L2251.18 51.84 L2251.18 46.921 Q2249.35 49.8724 2246.63 51.2902 Q2243.91 52.6791 2239.98 52.6791 Q2235 52.6791 2232.05 49.9014 Q2229.13 47.0947 2229.13 42.4072 Q2229.13 36.9385 2232.77 34.1607 Q2236.45 31.3829 2243.71 31.3829 L2251.18 31.3829 L2251.18 30.8621 Q2251.18 27.1874 2248.75 25.1908 Q2246.35 23.1654 2241.98 23.1654 Q2239.2 23.1654 2236.57 23.8309 Q2233.93 24.4964 2231.5 25.8274 L2231.5 20.9085 Q2234.42 19.78 2237.17 19.2302 Q2239.92 18.6515 2242.53 18.6515 Q2249.56 18.6515 2253.03 22.2973 Q2256.5 25.9431 2256.5 33.3505 Z" fill="#000000" fill-rule="nonzero" fill-opacity="1" /><polyline clip-path="url(#clip982)" style="stroke:#009af9; stroke-linecap:round; stroke-linejoin:round; stroke-width:4; stroke-opacity:1; fill:none" points="314.394,2145.67 319.905,2112.47 325.416,2079.49 330.928,2046.21 336.439,2012.89 341.951,1979.91 347.462,1946.52 352.973,1913.76 358.485,1881.12 363.996,1848.37 369.508,1816.14 375.019,1783.99 380.53,1752.28 386.042,1721.76 391.553,1691.55 397.064,1661.37 402.576,1631.93 408.087,1603.19 413.599,1574.15 419.11,1545.32 424.621,1516.98 430.133,1488.3 435.644,1460.35 441.155,1433.17 446.667,1406.51 452.178,1380.97 457.69,1354.22 463.201,1328.43 468.712,1303.14 474.224,1278.09 479.735,1252.55 485.247,1227.48 490.758,1202.53 496.269,1178.1 501.781,1153.48 507.292,1129.29 512.803,1104.85 518.315,1081.02 523.826,1058.53 529.338,1036.83 534.849,1016.77 540.36,996.512 545.872,977.78 551.383,959.913 556.895,943.171 562.406,925.359 567.917,907.555 573.429,890.158 578.94,873.672 584.451,857.702 589.963,842.827 595.474,828.445 600.986,815.226 606.497,801.001 612.008,786.979 617.52,773.529 623.031,760.942 628.543,747.959 634.054,736.549 639.565,726.657 645.077,716.411 650.588,705.621 656.099,694.413 661.611,682.677 667.122,671.365 672.634,659.579 678.145,647.783 683.656,636.223 689.168,624.962 694.679,615.406 700.19,605.563 705.702,596.491 711.213,587.666 716.725,577.625 722.236,566.685 727.747,556.374 733.259,544.798 738.77,533.11 744.282,520.844 749.793,509.337 755.304,498.819 760.816,488.251 766.327,478.417 771.838,468.021 777.35,459.636 782.861,451.742 788.373,442.956 793.884,433.628 799.395,424.335 804.907,416.044 810.418,407.187 815.93,398.051 821.441,388.952 826.952,380.734 832.464,372.667 837.975,364.72 843.486,356.685 848.998,348.844 854.509,341.576 860.021,334.663 865.532,328.624 871.043,323.9 876.555,318.428 882.066,311.808 887.578,305.066 893.089,298.592 898.6,291.753 904.112,284.857 909.623,278.193 915.134,271.661 920.646,265.379 926.157,259.141 931.669,253.077 937.18,247.393 942.691,241.748 948.203,236.247 953.714,230.883 959.225,225.728 964.737,220.789 970.248,216.422 975.76,212.711 981.271,210.254 986.782,207.918 992.294,204.451 997.805,200.879 1003.32,197.391 1008.83,194.109 1014.34,190.641 1019.85,187.47 1025.36,184.232 1030.87,182.183 1036.38,180.795 1041.9,178.929 1047.41,176.837 1052.92,174.859 1058.43,172.819 1063.94,172.182 1069.45,172.009 1074.96,172.527 1080.48,171.129 1085.99,170.837 1091.5,171.199 1097.01,171.868 1102.52,172.355 1108.03,172.902 1113.54,174.436 1119.06,177.195 1124.57,182.747 1130.08,187.945 1135.59,195.804 1141.1,203.334 1146.61,213.024 1152.12,224.137 1157.64,235.87 1163.15,246.04 1168.66,255.17 1174.17,266.46 1179.68,277.221 1185.19,288.524 1190.7,300.355 1196.21,312.091 1201.73,323.723 1207.24,336.234 1212.75,348.509 1218.26,360.22 1223.77,368.947 1229.28,376.407 1234.79,381.281 1240.31,385.827 1245.82,389.767 1251.33,392.44 1256.84,395.582 1262.35,400.619 1267.86,406.435 1273.37,412.509 1278.89,419.86 1284.4,425.165 1289.91,429.9 1295.42,434.581 1300.93,439.282 1306.44,443.853 1311.95,449.423 1317.47,453.4 1322.98,458.073 1328.49,463.191 1334,468.917 1339.51,473.074 1345.02,476.775 1350.53,481.478 1356.05,485.862 1361.56,489.006 1367.07,491.937 1372.58,496.469 1378.09,499.44 1383.6,501.943 1389.11,503.793 1394.62,505.394 1400.14,506.466 1405.65,507.746 1411.16,509.39 1416.67,509.033 1422.18,505.909 1427.69,503.704 1433.2,501.932 1438.72,499.254 1444.23,495.899 1449.74,493.2 1455.25,491.362 1460.76,491.171 1466.27,492.634 1471.78,494.598 1477.3,496.072 1482.81,499.94 1488.32,504.224 1493.83,506.485 1499.34,509.825 1504.85,514.57 1510.36,520.346 1515.88,527.505 1521.39,535.31 1526.9,542.825 1532.41,549.511 1537.92,554.797 1543.43,560.151 1548.94,567.022 1554.45,572.425 1559.97,577.317 1565.48,579.379 1570.99,581.543 1576.5,585.751 1582.01,588.687 1587.52,590.758 1593.03,593.035 1598.55,595.667 1604.06,597.739 1609.57,598.725 1615.08,599.6 1620.59,598.688 1626.1,596.013 1631.61,593.177 1637.13,592.246 1642.64,589.875 1648.15,587.049 1653.66,584.485 1659.17,581.697 1664.68,580.744 1670.19,580.172 1675.71,579.513 1681.22,581.096 1686.73,583.07 1692.24,585.934 1697.75,587.791 1703.26,591.448 1708.77,595.389 1714.28,599.047 1719.8,603.757 1725.31,608.316 1730.82,612.924 1736.33,617.102 1741.84,621.296 1747.35,625.648 1752.86,630.143 1758.38,635.311 1763.89,640.963 1769.4,647.038 1774.91,652.629 1780.42,657.95 1785.93,662.922 1791.44,667.885 1796.96,672.661 1802.47,677.656 1807.98,682.571 1813.49,687.664 1819,692.621 1824.51,697.429 1830.02,702.02 1835.54,706.417 1841.05,710.708 1846.56,714.984 1852.07,718.665 1857.58,722.463 1863.09,726.281 1868.6,729.734 1874.12,732.016 1879.63,734.615 1885.14,737.069 1890.65,739.921 1896.16,742.177 1901.67,743.409 1907.18,743.721 1912.69,742.232 1918.21,741.374 1923.72,740.107 1929.23,738.464 1934.74,738.501 1940.25,737.582 1945.76,738.028 1951.27,737.012 1956.79,736.442 1962.3,735.908 1967.81,734.823 1973.32,733.879 1978.83,732.899 1984.34,731.517 1989.85,728.45 1995.37,725.058 2000.88,721.447 2006.39,717.713 2011.9,714.131 2017.41,711.01 2022.92,708.809 2028.43,707.167 2033.95,705.403 2039.46,704.722 2044.97,701.935 2050.48,699.25 2055.99,699.086 2061.5,698.653 2067.01,697.652 2072.52,696.313 2078.04,695.751 2083.55,695.6 2089.06,695.088 2094.57,694.554 2100.08,693.802 2105.59,692.43 2111.1,689.62 2116.62,687.603 2122.13,685.812 2127.64,684.624 2133.15,685.546 2138.66,685.866 2144.17,686.095 2149.68,685.702 2155.2,685.342 2160.71,686.262 2166.22,686.821 2171.73,687.76 2177.24,689.261 2182.75,689.924 2188.26,691.081 2193.78,691.678 2199.29,693.032 2204.8,695.3 2210.31,696.927 2215.82,699.146 2221.33,700.667 2226.84,701.682 2232.35,703.325 2237.87,705.606 2243.38,708.312 2248.89,711.42 2254.4,714.687 2259.91,717.353 2265.42,719.527 2270.93,720.958 2276.45,722.679 2281.96,724.126 2287.47,725.425 2292.98,725.905 2298.49,726.249 2304,727.231 2309.51,728.679 2315.03,730.804 2320.54,733.445 2326.05,736.418 2331.56,739.388 2337.07,742.445 2342.58,745.097 2348.09,747.865 2353.61,750.254 2359.12,752.592 2364.63,754.705 2370.14,756.97 2375.65,758.979 2381.16,760.537 2386.67,762.33 2392.19,764.017 2397.7,765.354 2403.21,766.389 2408.72,767.686 2414.23,768.279 2419.74,769.137 2425.25,769.674 2430.76,769.164 2436.28,769.924 2441.79,770.885 2447.3,770.446 2452.81,770.942 2458.32,770.641 2463.83,768.699 2469.34,767.086 2474.86,766.551 2480.37,765.11 2485.88,763.927 2491.39,763.166 2496.9,762.619 2502.41,762.697 2507.92,762.536 2513.44,763.319 2518.95,763.922 2524.46,764.78 2529.97,765.726 2535.48,765.735 2540.99,766.544 2546.5,766.928 2552.02,767.559 2557.53,768.674 2563.04,769.171 2568.55,770.643 2574.06,771.866 2579.57,773.553 2585.08,775.367 2590.59,777.336 2596.11,779.203 2601.62,781.105 2607.13,782.254 2612.64,783.17 2618.15,784.742 2623.66,786.21 2629.17,787.733 2634.69,788.985 2640.2,790.175 2645.71,791.427 2651.22,792.26 2656.73,793.107 2662.24,793.952 2667.75,794.654 2673.27,794.893 2678.78,795.068 2684.29,794.322 2689.8,793.241 2695.31,792.03 2700.82,790.402 2706.33,790.363 2711.85,789.506 2717.36,789.126 2722.87,787.527 2728.38,786.563 2733.89,785.423 2739.4,783.825 2744.91,782.677 2750.42,782.46 2755.94,782.674 2761.45,782.495 2766.96,782.76 2772.47,783.514 2777.98,784.146 2783.49,783.623 2789,783.588 2794.52,783.371 2800.03,782.936 2805.54,783.466 2811.05,784.225 2816.56,785.24 2822.07,785.801 2827.58,786.172 2833.1,786.515 2838.61,786.575 2844.12,785.899 2849.63,785.977 2855.14,785.461 2860.65,782.863 2866.16,780.642 2871.68,778.139 2877.19,776.373 2882.7,774.281 2888.21,773.419 2893.72,773.104 2899.23,773.47 2904.74,773.483 2910.26,774.273 2915.77,774.696 2921.28,775.368 2926.79,775.418 2932.3,775.898 2937.81,777.196 2943.32,778.349 2948.83,779.2 2954.35,779.602 2959.86,780.743 2965.37,782.311 2970.88,784.073 2976.39,785.614 2981.9,787.173 2987.41,788.782 2992.93,790.058 2998.44,791.378 3003.95,792.193 3009.46,792.89 3014.97,793.079 3020.48,793.228 3025.99,793.692 3031.51,794.807 3037.02,795.51 3042.53,796.034 3048.04,795.942 3053.55,795.89 3059.06,795.896 3064.57,796.347 3070.09,796.624 "/>
</svg>
