<?xml version="1.0" encoding="utf-8"?>
<svg xmlns="http://www.w3.org/2000/svg" xmlns:xlink="http://www.w3.org/1999/xlink" width="800" height="600" viewBox="0 0 3200 2400">
<defs>
  <clipPath id="clip020">
    <rect x="0" y="0" width="3200" height="2400"/>
  </clipPath>
</defs>
<path clip-path="url(#clip020)" d="M0 2400 L3200 2400 L3200 0 L0 0  Z" fill="#ffffff" fill-rule="evenodd" fill-opacity="1"/>
<defs>
  <clipPath id="clip021">
    <rect x="640" y="0" width="2241" height="2241"/>
  </clipPath>
</defs>
<path clip-path="url(#clip020)" d="M231.746 2204.92 L3152.76 2204.92 L3152.76 111.592 L231.746 111.592  Z" fill="#eaeaea" fill-rule="evenodd" fill-opacity="1"/>
<defs>
  <clipPath id="clip022">
    <rect x="231" y="111" width="2922" height="2094"/>
  </clipPath>
</defs>
<polyline clip-path="url(#clip022)" style="stroke:#ffffff; stroke-linecap:round; stroke-linejoin:round; stroke-width:4; stroke-opacity:1; fill:none" points="314.416,2204.92 314.416,111.592 "/>
<polyline clip-path="url(#clip022)" style="stroke:#ffffff; stroke-linecap:round; stroke-linejoin:round; stroke-width:4; stroke-opacity:1; fill:none" points="865.55,2204.92 865.55,111.592 "/>
<polyline clip-path="url(#clip022)" style="stroke:#ffffff; stroke-linecap:round; stroke-linejoin:round; stroke-width:4; stroke-opacity:1; fill:none" points="1416.68,2204.92 1416.68,111.592 "/>
<polyline clip-path="url(#clip022)" style="stroke:#ffffff; stroke-linecap:round; stroke-linejoin:round; stroke-width:4; stroke-opacity:1; fill:none" points="1967.82,2204.92 1967.82,111.592 "/>
<polyline clip-path="url(#clip022)" style="stroke:#ffffff; stroke-linecap:round; stroke-linejoin:round; stroke-width:4; stroke-opacity:1; fill:none" points="2518.95,2204.92 2518.95,111.592 "/>
<polyline clip-path="url(#clip022)" style="stroke:#ffffff; stroke-linecap:round; stroke-linejoin:round; stroke-width:4; stroke-opacity:1; fill:none" points="3070.09,2204.92 3070.09,111.592 "/>
<polyline clip-path="url(#clip022)" style="stroke:#ffffff; stroke-linecap:round; stroke-linejoin:round; stroke-width:2; stroke-opacity:1; fill:none" points="589.983,2204.92 589.983,111.592 "/>
<polyline clip-path="url(#clip022)" style="stroke:#ffffff; stroke-linecap:round; stroke-linejoin:round; stroke-width:2; stroke-opacity:1; fill:none" points="1141.12,2204.92 1141.12,111.592 "/>
<polyline clip-path="url(#clip022)" style="stroke:#ffffff; stroke-linecap:round; stroke-linejoin:round; stroke-width:2; stroke-opacity:1; fill:none" points="1692.25,2204.92 1692.25,111.592 "/>
<polyline clip-path="url(#clip022)" style="stroke:#ffffff; stroke-linecap:round; stroke-linejoin:round; stroke-width:2; stroke-opacity:1; fill:none" points="2243.38,2204.92 2243.38,111.592 "/>
<polyline clip-path="url(#clip022)" style="stroke:#ffffff; stroke-linecap:round; stroke-linejoin:round; stroke-width:2; stroke-opacity:1; fill:none" points="2794.52,2204.92 2794.52,111.592 "/>
<polyline clip-path="url(#clip020)" style="stroke:#ffffff; stroke-linecap:round; stroke-linejoin:round; stroke-width:4; stroke-opacity:1; fill:none" points="231.746,2204.92 3152.76,2204.92 "/>
<polyline clip-path="url(#clip020)" style="stroke:#333333; stroke-linecap:round; stroke-linejoin:round; stroke-width:4; stroke-opacity:1; fill:none" points="314.416,2204.92 314.416,2223.82 "/>
<polyline clip-path="url(#clip020)" style="stroke:#333333; stroke-linecap:round; stroke-linejoin:round; stroke-width:4; stroke-opacity:1; fill:none" points="865.55,2204.92 865.55,2223.82 "/>
<polyline clip-path="url(#clip020)" style="stroke:#333333; stroke-linecap:round; stroke-linejoin:round; stroke-width:4; stroke-opacity:1; fill:none" points="1416.68,2204.92 1416.68,2223.82 "/>
<polyline clip-path="url(#clip020)" style="stroke:#333333; stroke-linecap:round; stroke-linejoin:round; stroke-width:4; stroke-opacity:1; fill:none" points="1967.82,2204.92 1967.82,2223.82 "/>
<polyline clip-path="url(#clip020)" style="stroke:#333333; stroke-linecap:round; stroke-linejoin:round; stroke-width:4; stroke-opacity:1; fill:none" points="2518.95,2204.92 2518.95,2223.82 "/>
<polyline clip-path="url(#clip020)" style="stroke:#333333; stroke-linecap:round; stroke-linejoin:round; stroke-width:4; stroke-opacity:1; fill:none" points="3070.09,2204.92 3070.09,2223.82 "/>
<polyline clip-path="url(#clip020)" style="stroke:#333333; stroke-linecap:round; stroke-linejoin:round; stroke-width:4; stroke-opacity:1; fill:none" points="589.983,2204.92 589.983,2214.37 "/>
<polyline clip-path="url(#clip020)" style="stroke:#333333; stroke-linecap:round; stroke-linejoin:round; stroke-width:4; stroke-opacity:1; fill:none" points="1141.12,2204.92 1141.12,2214.37 "/>
<polyline clip-path="url(#clip020)" style="stroke:#333333; stroke-linecap:round; stroke-linejoin:round; stroke-width:4; stroke-opacity:1; fill:none" points="1692.25,2204.92 1692.25,2214.37 "/>
<polyline clip-path="url(#clip020)" style="stroke:#333333; stroke-linecap:round; stroke-linejoin:round; stroke-width:4; stroke-opacity:1; fill:none" points="2243.38,2204.92 2243.38,2214.37 "/>
<polyline clip-path="url(#clip020)" style="stroke:#333333; stroke-linecap:round; stroke-linejoin:round; stroke-width:4; stroke-opacity:1; fill:none" points="2794.52,2204.92 2794.52,2214.37 "/>
<path clip-path="url(#clip020)" d="M314.416 2255.04 Q310.805 2255.04 308.976 2258.6 Q307.171 2262.14 307.171 2269.27 Q307.171 2276.38 308.976 2279.95 Q310.805 2283.49 314.416 2283.49 Q318.05 2283.49 319.856 2279.95 Q321.685 2276.38 321.685 2269.27 Q321.685 2262.14 319.856 2258.6 Q318.05 2255.04 314.416 2255.04 M314.416 2251.33 Q320.226 2251.33 323.282 2255.94 Q326.361 2260.52 326.361 2269.27 Q326.361 2278 323.282 2282.61 Q320.226 2287.19 314.416 2287.19 Q308.606 2287.19 305.527 2282.61 Q302.472 2278 302.472 2269.27 Q302.472 2260.52 305.527 2255.94 Q308.606 2251.33 314.416 2251.33 Z" fill="#4c4c4c" fill-rule="nonzero" fill-opacity="1" /><path clip-path="url(#clip020)" d="M855.932 2282.58 L863.571 2282.58 L863.571 2256.22 L855.261 2257.89 L855.261 2253.63 L863.525 2251.96 L868.201 2251.96 L868.201 2282.58 L875.839 2282.58 L875.839 2286.52 L855.932 2286.52 L855.932 2282.58 Z" fill="#4c4c4c" fill-rule="nonzero" fill-opacity="1" /><path clip-path="url(#clip020)" d="M1411.34 2282.58 L1427.66 2282.58 L1427.66 2286.52 L1405.71 2286.52 L1405.71 2282.58 Q1408.37 2279.83 1412.96 2275.2 Q1417.56 2270.55 1418.74 2269.21 Q1420.99 2266.68 1421.87 2264.95 Q1422.77 2263.19 1422.77 2261.5 Q1422.77 2258.74 1420.83 2257.01 Q1418.91 2255.27 1415.8 2255.27 Q1413.61 2255.27 1411.15 2256.03 Q1408.72 2256.8 1405.94 2258.35 L1405.94 2253.63 Q1408.77 2252.49 1411.22 2251.91 Q1413.67 2251.33 1415.71 2251.33 Q1421.08 2251.33 1424.28 2254.02 Q1427.47 2256.71 1427.47 2261.2 Q1427.47 2263.33 1426.66 2265.25 Q1425.87 2267.14 1423.77 2269.74 Q1423.19 2270.41 1420.09 2273.63 Q1416.98 2276.82 1411.34 2282.58 Z" fill="#4c4c4c" fill-rule="nonzero" fill-opacity="1" /><path clip-path="url(#clip020)" d="M1972.07 2267.89 Q1975.42 2268.6 1977.3 2270.87 Q1979.2 2273.14 1979.2 2276.47 Q1979.2 2281.59 1975.68 2284.39 Q1972.16 2287.19 1965.68 2287.19 Q1963.5 2287.19 1961.19 2286.75 Q1958.89 2286.33 1956.44 2285.48 L1956.44 2280.96 Q1958.39 2282.1 1960.7 2282.68 Q1963.01 2283.26 1965.54 2283.26 Q1969.94 2283.26 1972.23 2281.52 Q1974.54 2279.78 1974.54 2276.47 Q1974.54 2273.42 1972.39 2271.71 Q1970.26 2269.97 1966.44 2269.97 L1962.41 2269.97 L1962.41 2266.13 L1966.63 2266.13 Q1970.07 2266.13 1971.9 2264.76 Q1973.73 2263.37 1973.73 2260.78 Q1973.73 2258.12 1971.83 2256.71 Q1969.96 2255.27 1966.44 2255.27 Q1964.52 2255.27 1962.32 2255.69 Q1960.12 2256.1 1957.48 2256.98 L1957.48 2252.82 Q1960.14 2252.08 1962.46 2251.71 Q1964.8 2251.33 1966.86 2251.33 Q1972.18 2251.33 1975.28 2253.77 Q1978.39 2256.17 1978.39 2260.29 Q1978.39 2263.16 1976.74 2265.15 Q1975.1 2267.12 1972.07 2267.89 Z" fill="#4c4c4c" fill-rule="nonzero" fill-opacity="1" /><path clip-path="url(#clip020)" d="M2521.96 2256.03 L2510.16 2274.48 L2521.96 2274.48 L2521.96 2256.03 M2520.73 2251.96 L2526.61 2251.96 L2526.61 2274.48 L2531.54 2274.48 L2531.54 2278.37 L2526.61 2278.37 L2526.61 2286.52 L2521.96 2286.52 L2521.96 2278.37 L2506.36 2278.37 L2506.36 2273.86 L2520.73 2251.96 Z" fill="#4c4c4c" fill-rule="nonzero" fill-opacity="1" /><path clip-path="url(#clip020)" d="M3060.36 2251.96 L3078.72 2251.96 L3078.72 2255.9 L3064.65 2255.9 L3064.65 2264.37 Q3065.66 2264.02 3066.68 2263.86 Q3067.7 2263.67 3068.72 2263.67 Q3074.51 2263.67 3077.89 2266.84 Q3081.27 2270.02 3081.27 2275.43 Q3081.27 2281.01 3077.79 2284.11 Q3074.32 2287.19 3068 2287.19 Q3065.83 2287.19 3063.56 2286.82 Q3061.31 2286.45 3058.91 2285.71 L3058.91 2281.01 Q3060.99 2282.14 3063.21 2282.7 Q3065.43 2283.26 3067.91 2283.26 Q3071.91 2283.26 3074.25 2281.15 Q3076.59 2279.04 3076.59 2275.43 Q3076.59 2271.82 3074.25 2269.71 Q3071.91 2267.61 3067.91 2267.61 Q3066.03 2267.61 3064.16 2268.02 Q3062.31 2268.44 3060.36 2269.32 L3060.36 2251.96 Z" fill="#4c4c4c" fill-rule="nonzero" fill-opacity="1" /><path clip-path="url(#clip020)" d="M1691.31 2316.01 L1691.31 2326.14 L1703.38 2326.14 L1703.38 2330.69 L1691.31 2330.69 L1691.31 2350.04 Q1691.31 2354.4 1692.49 2355.64 Q1693.7 2356.88 1697.36 2356.88 L1703.38 2356.88 L1703.38 2361.78 L1697.36 2361.78 Q1690.58 2361.78 1688 2359.27 Q1685.42 2356.72 1685.42 2350.04 L1685.42 2330.69 L1681.13 2330.69 L1681.13 2326.14 L1685.42 2326.14 L1685.42 2316.01 L1691.31 2316.01 Z" fill="#000000" fill-rule="nonzero" fill-opacity="1" /><polyline clip-path="url(#clip022)" style="stroke:#ffffff; stroke-linecap:round; stroke-linejoin:round; stroke-width:4; stroke-opacity:1; fill:none" points="231.746,1830.28 3152.76,1830.28 "/>
<polyline clip-path="url(#clip022)" style="stroke:#ffffff; stroke-linecap:round; stroke-linejoin:round; stroke-width:4; stroke-opacity:1; fill:none" points="231.746,1367.29 3152.76,1367.29 "/>
<polyline clip-path="url(#clip022)" style="stroke:#ffffff; stroke-linecap:round; stroke-linejoin:round; stroke-width:4; stroke-opacity:1; fill:none" points="231.746,904.296 3152.76,904.296 "/>
<polyline clip-path="url(#clip022)" style="stroke:#ffffff; stroke-linecap:round; stroke-linejoin:round; stroke-width:4; stroke-opacity:1; fill:none" points="231.746,441.304 3152.76,441.304 "/>
<polyline clip-path="url(#clip022)" style="stroke:#ffffff; stroke-linecap:round; stroke-linejoin:round; stroke-width:2; stroke-opacity:1; fill:none" points="231.746,2061.78 3152.76,2061.78 "/>
<polyline clip-path="url(#clip022)" style="stroke:#ffffff; stroke-linecap:round; stroke-linejoin:round; stroke-width:2; stroke-opacity:1; fill:none" points="231.746,1598.78 3152.76,1598.78 "/>
<polyline clip-path="url(#clip022)" style="stroke:#ffffff; stroke-linecap:round; stroke-linejoin:round; stroke-width:2; stroke-opacity:1; fill:none" points="231.746,1135.79 3152.76,1135.79 "/>
<polyline clip-path="url(#clip022)" style="stroke:#ffffff; stroke-linecap:round; stroke-linejoin:round; stroke-width:2; stroke-opacity:1; fill:none" points="231.746,672.8 3152.76,672.8 "/>
<polyline clip-path="url(#clip022)" style="stroke:#ffffff; stroke-linecap:round; stroke-linejoin:round; stroke-width:2; stroke-opacity:1; fill:none" points="231.746,209.808 3152.76,209.808 "/>
<polyline clip-path="url(#clip020)" style="stroke:#ffffff; stroke-linecap:round; stroke-linejoin:round; stroke-width:4; stroke-opacity:1; fill:none" points="231.746,2204.92 231.746,111.592 "/>
<polyline clip-path="url(#clip020)" style="stroke:#333333; stroke-linecap:round; stroke-linejoin:round; stroke-width:4; stroke-opacity:1; fill:none" points="231.746,1830.28 212.848,1830.28 "/>
<polyline clip-path="url(#clip020)" style="stroke:#333333; stroke-linecap:round; stroke-linejoin:round; stroke-width:4; stroke-opacity:1; fill:none" points="231.746,1367.29 212.848,1367.29 "/>
<polyline clip-path="url(#clip020)" style="stroke:#333333; stroke-linecap:round; stroke-linejoin:round; stroke-width:4; stroke-opacity:1; fill:none" points="231.746,904.296 212.848,904.296 "/>
<polyline clip-path="url(#clip020)" style="stroke:#333333; stroke-linecap:round; stroke-linejoin:round; stroke-width:4; stroke-opacity:1; fill:none" points="231.746,441.304 212.848,441.304 "/>
<polyline clip-path="url(#clip020)" style="stroke:#333333; stroke-linecap:round; stroke-linejoin:round; stroke-width:4; stroke-opacity:1; fill:none" points="231.746,2061.78 222.297,2061.78 "/>
<polyline clip-path="url(#clip020)" style="stroke:#333333; stroke-linecap:round; stroke-linejoin:round; stroke-width:4; stroke-opacity:1; fill:none" points="231.746,1598.78 222.297,1598.78 "/>
<polyline clip-path="url(#clip020)" style="stroke:#333333; stroke-linecap:round; stroke-linejoin:round; stroke-width:4; stroke-opacity:1; fill:none" points="231.746,1135.79 222.297,1135.79 "/>
<polyline clip-path="url(#clip020)" style="stroke:#333333; stroke-linecap:round; stroke-linejoin:round; stroke-width:4; stroke-opacity:1; fill:none" points="231.746,672.8 222.297,672.8 "/>
<polyline clip-path="url(#clip020)" style="stroke:#333333; stroke-linecap:round; stroke-linejoin:round; stroke-width:4; stroke-opacity:1; fill:none" points="231.746,209.808 222.297,209.808 "/>
<path clip-path="url(#clip020)" d="M94.9779 1843.63 L102.617 1843.63 L102.617 1817.26 L94.3066 1818.93 L94.3066 1814.67 L102.57 1813 L107.246 1813 L107.246 1843.63 L114.885 1843.63 L114.885 1847.56 L94.9779 1847.56 L94.9779 1843.63 Z" fill="#4c4c4c" fill-rule="nonzero" fill-opacity="1" /><path clip-path="url(#clip020)" d="M124.33 1841.68 L129.214 1841.68 L129.214 1847.56 L124.33 1847.56 L124.33 1841.68 Z" fill="#4c4c4c" fill-rule="nonzero" fill-opacity="1" /><path clip-path="url(#clip020)" d="M143.427 1843.63 L159.746 1843.63 L159.746 1847.56 L137.802 1847.56 L137.802 1843.63 Q140.464 1840.87 145.047 1836.24 Q149.654 1831.59 150.834 1830.25 Q153.079 1827.72 153.959 1825.99 Q154.862 1824.23 154.862 1822.54 Q154.862 1819.78 152.917 1818.05 Q150.996 1816.31 147.894 1816.31 Q145.695 1816.31 143.242 1817.08 Q140.811 1817.84 138.033 1819.39 L138.033 1814.67 Q140.857 1813.53 143.311 1812.95 Q145.765 1812.38 147.802 1812.38 Q153.172 1812.38 156.366 1815.06 Q159.561 1817.75 159.561 1822.24 Q159.561 1824.37 158.751 1826.29 Q157.964 1828.19 155.857 1830.78 Q155.279 1831.45 152.177 1834.67 Q149.075 1837.86 143.427 1843.63 Z" fill="#4c4c4c" fill-rule="nonzero" fill-opacity="1" /><path clip-path="url(#clip020)" d="M94.3761 1380.63 L102.015 1380.63 L102.015 1354.27 L93.7048 1355.93 L93.7048 1351.68 L101.969 1350.01 L106.645 1350.01 L106.645 1380.63 L114.283 1380.63 L114.283 1384.57 L94.3761 1384.57 L94.3761 1380.63 Z" fill="#4c4c4c" fill-rule="nonzero" fill-opacity="1" /><path clip-path="url(#clip020)" d="M123.728 1378.69 L128.612 1378.69 L128.612 1384.57 L123.728 1384.57 L123.728 1378.69 Z" fill="#4c4c4c" fill-rule="nonzero" fill-opacity="1" /><path clip-path="url(#clip020)" d="M138.843 1350.01 L157.2 1350.01 L157.2 1353.94 L143.126 1353.94 L143.126 1362.42 Q144.144 1362.07 145.163 1361.91 Q146.181 1361.72 147.2 1361.72 Q152.987 1361.72 156.366 1364.89 Q159.746 1368.06 159.746 1373.48 Q159.746 1379.06 156.274 1382.16 Q152.802 1385.24 146.482 1385.24 Q144.306 1385.24 142.038 1384.87 Q139.792 1384.5 137.385 1383.76 L137.385 1379.06 Q139.468 1380.19 141.691 1380.75 Q143.913 1381.3 146.39 1381.3 Q150.394 1381.3 152.732 1379.2 Q155.07 1377.09 155.07 1373.48 Q155.07 1369.87 152.732 1367.76 Q150.394 1365.66 146.39 1365.66 Q144.515 1365.66 142.64 1366.07 Q140.788 1366.49 138.843 1367.37 L138.843 1350.01 Z" fill="#4c4c4c" fill-rule="nonzero" fill-opacity="1" /><path clip-path="url(#clip020)" d="M93.4733 917.641 L101.112 917.641 L101.112 891.276 L92.802 892.942 L92.802 888.683 L101.066 887.016 L105.742 887.016 L105.742 917.641 L113.381 917.641 L113.381 921.576 L93.4733 921.576 L93.4733 917.641 Z" fill="#4c4c4c" fill-rule="nonzero" fill-opacity="1" /><path clip-path="url(#clip020)" d="M122.825 915.697 L127.709 915.697 L127.709 921.576 L122.825 921.576 L122.825 915.697 Z" fill="#4c4c4c" fill-rule="nonzero" fill-opacity="1" /><path clip-path="url(#clip020)" d="M147.894 905.164 Q144.561 905.164 142.64 906.947 Q140.742 908.729 140.742 911.854 Q140.742 914.979 142.64 916.762 Q144.561 918.544 147.894 918.544 Q151.228 918.544 153.149 916.762 Q155.07 914.956 155.07 911.854 Q155.07 908.729 153.149 906.947 Q151.251 905.164 147.894 905.164 M143.218 903.174 Q140.209 902.433 138.519 900.373 Q136.853 898.313 136.853 895.35 Q136.853 891.206 139.792 888.799 Q142.755 886.391 147.894 886.391 Q153.056 886.391 155.996 888.799 Q158.936 891.206 158.936 895.35 Q158.936 898.313 157.246 900.373 Q155.579 902.433 152.593 903.174 Q155.973 903.961 157.848 906.252 Q159.746 908.544 159.746 911.854 Q159.746 916.877 156.667 919.563 Q153.612 922.248 147.894 922.248 Q142.177 922.248 139.098 919.563 Q136.043 916.877 136.043 911.854 Q136.043 908.544 137.941 906.252 Q139.839 903.961 143.218 903.174 M141.505 895.79 Q141.505 898.475 143.172 899.979 Q144.862 901.484 147.894 901.484 Q150.904 901.484 152.593 899.979 Q154.306 898.475 154.306 895.79 Q154.306 893.104 152.593 891.6 Q150.904 890.095 147.894 890.095 Q144.862 890.095 143.172 891.6 Q141.505 893.104 141.505 895.79 Z" fill="#4c4c4c" fill-rule="nonzero" fill-opacity="1" /><path clip-path="url(#clip020)" d="M97.8251 454.649 L114.144 454.649 L114.144 458.584 L92.2002 458.584 L92.2002 454.649 Q94.8622 451.894 99.4455 447.265 Q104.052 442.612 105.232 441.269 Q107.478 438.746 108.357 437.01 Q109.26 435.251 109.26 433.561 Q109.26 430.806 107.316 429.07 Q105.395 427.334 102.293 427.334 Q100.094 427.334 97.6399 428.098 Q95.2094 428.862 92.4316 430.413 L92.4316 425.691 Q95.2557 424.557 97.7094 423.978 Q100.163 423.399 102.2 423.399 Q107.57 423.399 110.765 426.084 Q113.959 428.769 113.959 433.26 Q113.959 435.39 113.149 437.311 Q112.362 439.209 110.256 441.802 Q109.677 442.473 106.575 445.691 Q103.473 448.885 97.8251 454.649 Z" fill="#4c4c4c" fill-rule="nonzero" fill-opacity="1" /><path clip-path="url(#clip020)" d="M123.959 452.705 L128.843 452.705 L128.843 458.584 L123.959 458.584 L123.959 452.705 Z" fill="#4c4c4c" fill-rule="nonzero" fill-opacity="1" /><path clip-path="url(#clip020)" d="M139.839 454.649 L147.478 454.649 L147.478 428.283 L139.167 429.95 L139.167 425.691 L147.431 424.024 L152.107 424.024 L152.107 454.649 L159.746 454.649 L159.746 458.584 L139.839 458.584 L139.839 454.649 Z" fill="#4c4c4c" fill-rule="nonzero" fill-opacity="1" /><path clip-path="url(#clip020)" d="M18.2962 1141.64 L35.6428 1154.53 L53.9442 1140.97 L53.9442 1147.88 L39.9396 1158.26 L53.9442 1168.63 L53.9442 1175.54 L35.2926 1161.69 L18.2962 1174.36 L18.2962 1167.45 L30.9958 1158 L18.2962 1148.55 L18.2962 1141.64 Z" fill="#000000" fill-rule="nonzero" fill-opacity="1" /><path clip-path="url(#clip020)" d="M635.182 20.3876 L635.182 25.4223 Q632.925 24.2649 630.495 23.6862 Q628.064 23.1075 625.46 23.1075 Q621.496 23.1075 619.499 24.3228 Q617.532 25.5381 617.532 27.9686 Q617.532 29.8204 618.949 30.891 Q620.367 31.9327 624.65 32.8876 L626.473 33.2926 Q632.144 34.5079 634.517 36.7359 Q636.918 38.935 636.918 42.8991 Q636.918 47.4129 633.33 50.046 Q629.771 52.6791 623.521 52.6791 Q620.917 52.6791 618.081 52.1583 Q615.275 51.6664 612.15 50.6537 L612.15 45.156 Q615.101 46.6896 617.966 47.4708 Q620.83 48.2231 623.637 48.2231 Q627.398 48.2231 629.424 46.95 Q631.449 45.6479 631.449 43.3042 Q631.449 41.134 629.974 39.9766 Q628.527 38.8192 623.579 37.7486 L621.727 37.3146 Q616.779 36.273 614.58 34.1318 Q612.381 31.9616 612.381 28.2001 Q612.381 23.6283 615.622 21.1399 Q618.863 18.6515 624.823 18.6515 Q627.775 18.6515 630.379 19.0855 Q632.983 19.5196 635.182 20.3876 Z" fill="#000000" fill-rule="nonzero" fill-opacity="1" /><path clip-path="url(#clip020)" d="M657.954 23.1654 Q653.671 23.1654 651.183 26.5218 Q648.695 29.8494 648.695 35.6653 Q648.695 41.4813 651.154 44.8377 Q653.643 48.1653 657.954 48.1653 Q662.207 48.1653 664.696 44.8088 Q667.184 41.4523 667.184 35.6653 Q667.184 29.9072 664.696 26.5508 Q662.207 23.1654 657.954 23.1654 M657.954 18.6515 Q664.898 18.6515 668.862 23.1654 Q672.826 27.6792 672.826 35.6653 Q672.826 43.6225 668.862 48.1653 Q664.898 52.6791 657.954 52.6791 Q650.981 52.6791 647.016 48.1653 Q643.081 43.6225 643.081 35.6653 Q643.081 27.6792 647.016 23.1654 Q650.981 18.6515 657.954 18.6515 Z" fill="#000000" fill-rule="nonzero" fill-opacity="1" /><path clip-path="url(#clip020)" d="M681.652 6.81709 L686.976 6.81709 L686.976 51.84 L681.652 51.84 L681.652 6.81709 Z" fill="#000000" fill-rule="nonzero" fill-opacity="1" /><path clip-path="url(#clip020)" d="M697.566 39.0507 L697.566 19.4328 L702.89 19.4328 L702.89 38.8482 Q702.89 43.4488 704.684 45.7636 Q706.478 48.0495 710.066 48.0495 Q714.377 48.0495 716.866 45.3007 Q719.383 42.5519 719.383 37.8065 L719.383 19.4328 L724.707 19.4328 L724.707 51.84 L719.383 51.84 L719.383 46.8632 Q717.444 49.8145 714.869 51.2613 Q712.323 52.6791 708.937 52.6791 Q703.353 52.6791 700.459 49.2069 Q697.566 45.7347 697.566 39.0507 M710.963 18.6515 L710.963 18.6515 Z" fill="#000000" fill-rule="nonzero" fill-opacity="1" /><path clip-path="url(#clip020)" d="M758.995 20.677 L758.995 25.6538 Q756.738 24.4096 754.452 23.802 Q752.195 23.1654 749.88 23.1654 Q744.701 23.1654 741.837 26.464 Q738.972 29.7336 738.972 35.6653 Q738.972 41.597 741.837 44.8956 Q744.701 48.1653 749.88 48.1653 Q752.195 48.1653 754.452 47.5576 Q756.738 46.921 758.995 45.6768 L758.995 50.5958 Q756.767 51.6375 754.365 52.1583 Q751.993 52.6791 749.302 52.6791 Q741.981 52.6791 737.67 48.0784 Q733.359 43.4778 733.359 35.6653 Q733.359 27.7371 737.699 23.1943 Q742.068 18.6515 749.649 18.6515 Q752.108 18.6515 754.452 19.1724 Q756.796 19.6642 758.995 20.677 M751.472 51.84 Q753.063 53.634 753.845 55.1386 Q754.626 56.6722 754.626 58.061 Q754.626 60.6362 752.89 61.9383 Q751.154 63.2693 747.739 63.2693 Q746.408 63.2693 745.135 63.0957 Q743.891 62.9221 742.647 62.5749 L742.647 58.7844 Q743.631 59.2763 744.701 59.4788 Q745.772 59.7103 747.132 59.7103 Q748.839 59.7103 749.707 59.0159 Q750.575 58.3214 750.575 56.9904 Q750.575 56.1224 749.938 54.8492 Q749.331 53.605 748.029 51.84 L751.472 51.84 Z" fill="#000000" fill-rule="nonzero" fill-opacity="1" /><path clip-path="url(#clip020)" d="M782.982 35.5496 Q776.53 35.5496 774.041 37.0253 Q771.553 38.501 771.553 42.06 Q771.553 44.8956 773.405 46.5738 Q775.285 48.2231 778.497 48.2231 Q782.924 48.2231 785.586 45.0981 Q788.277 41.9442 788.277 36.7359 L788.277 35.5496 L782.982 35.5496 M793.601 33.3505 L793.601 51.84 L788.277 51.84 L788.277 46.921 Q786.454 49.8724 783.734 51.2902 Q781.015 52.6791 777.079 52.6791 Q772.103 52.6791 769.151 49.9014 Q766.229 47.0947 766.229 42.4072 Q766.229 36.9385 769.875 34.1607 Q773.549 31.3829 780.812 31.3829 L788.277 31.3829 L788.277 30.8621 Q788.277 27.1874 785.847 25.1908 Q783.445 23.1654 779.076 23.1654 Q776.298 23.1654 773.665 23.8309 Q771.032 24.4964 768.601 25.8274 L768.601 20.9085 Q771.524 19.78 774.273 19.2302 Q777.022 18.6515 779.626 18.6515 Q786.657 18.6515 790.129 22.2973 Q793.601 25.9431 793.601 33.3505 M779.741 12.199 L778.092 10.6076 Q777.456 10.0289 776.964 9.76847 Q776.501 9.47912 776.125 9.47912 Q775.025 9.47912 774.504 10.5497 Q773.983 11.5914 773.925 13.964 L770.309 13.964 Q770.366 10.0578 771.842 7.94556 Q773.318 5.80437 775.951 5.80437 Q777.05 5.80437 777.976 6.20946 Q778.902 6.61455 779.973 7.5694 L781.622 9.16083 Q782.259 9.73953 782.722 10.0289 Q783.214 10.2893 783.59 10.2893 Q784.689 10.2893 785.21 9.24764 Q785.731 8.17704 785.789 5.80437 L789.406 5.80437 Q789.348 9.7106 787.872 11.8518 Q786.396 13.964 783.763 13.964 Q782.664 13.964 781.738 13.559 Q780.812 13.1539 779.741 12.199 Z" fill="#000000" fill-rule="nonzero" fill-opacity="1" /><path clip-path="url(#clip020)" d="M817.125 23.1654 Q812.843 23.1654 810.355 26.5218 Q807.866 29.8494 807.866 35.6653 Q807.866 41.4813 810.326 44.8377 Q812.814 48.1653 817.125 48.1653 Q821.379 48.1653 823.867 44.8088 Q826.356 41.4523 826.356 35.6653 Q826.356 29.9072 823.867 26.5508 Q821.379 23.1654 817.125 23.1654 M817.125 18.6515 Q824.07 18.6515 828.034 23.1654 Q831.998 27.6792 831.998 35.6653 Q831.998 43.6225 828.034 48.1653 Q824.07 52.6791 817.125 52.6791 Q810.152 52.6791 806.188 48.1653 Q802.253 43.6225 802.253 35.6653 Q802.253 27.6792 806.188 23.1654 Q810.152 18.6515 817.125 18.6515 Z" fill="#000000" fill-rule="nonzero" fill-opacity="1" /><path clip-path="url(#clip020)" d="M880.985 24.3517 L880.985 6.81709 L886.309 6.81709 L886.309 51.84 L880.985 51.84 L880.985 46.9789 Q879.307 49.8724 876.732 51.2902 Q874.185 52.6791 870.597 52.6791 Q864.724 52.6791 861.02 47.9916 Q857.345 43.3042 857.345 35.6653 Q857.345 28.0265 861.02 23.339 Q864.724 18.6515 870.597 18.6515 Q874.185 18.6515 876.732 20.0693 Q879.307 21.4582 880.985 24.3517 M862.843 35.6653 Q862.843 41.5391 865.244 44.8956 Q867.675 48.2231 871.899 48.2231 Q876.124 48.2231 878.555 44.8956 Q880.985 41.5391 880.985 35.6653 Q880.985 29.7915 878.555 26.464 Q876.124 23.1075 871.899 23.1075 Q867.675 23.1075 865.244 26.464 Q862.843 29.7915 862.843 35.6653 Z" fill="#000000" fill-rule="nonzero" fill-opacity="1" /><path clip-path="url(#clip020)" d="M912.003 35.5496 Q905.551 35.5496 903.063 37.0253 Q900.574 38.501 900.574 42.06 Q900.574 44.8956 902.426 46.5738 Q904.307 48.2231 907.519 48.2231 Q911.946 48.2231 914.608 45.0981 Q917.299 41.9442 917.299 36.7359 L917.299 35.5496 L912.003 35.5496 M922.623 33.3505 L922.623 51.84 L917.299 51.84 L917.299 46.921 Q915.476 49.8724 912.756 51.2902 Q910.036 52.6791 906.101 52.6791 Q901.124 52.6791 898.172 49.9014 Q895.25 47.0947 895.25 42.4072 Q895.25 36.9385 898.896 34.1607 Q902.571 31.3829 909.833 31.3829 L917.299 31.3829 L917.299 30.8621 Q917.299 27.1874 914.868 25.1908 Q912.466 23.1654 908.097 23.1654 Q905.319 23.1654 902.686 23.8309 Q900.053 24.4964 897.623 25.8274 L897.623 20.9085 Q900.545 19.78 903.294 19.2302 Q906.043 18.6515 908.647 18.6515 Q915.678 18.6515 919.15 22.2973 Q922.623 25.9431 922.623 33.3505 Z" fill="#000000" fill-rule="nonzero" fill-opacity="1" /><path clip-path="url(#clip020)" d="M980.145 34.3054 L980.145 36.9095 L955.666 36.9095 Q956.014 42.4072 958.965 45.3007 Q961.945 48.1653 967.24 48.1653 Q970.308 48.1653 973.172 47.4129 Q976.066 46.6606 978.901 45.156 L978.901 50.1907 Q976.037 51.406 973.027 52.0425 Q970.018 52.6791 966.922 52.6791 Q959.168 52.6791 954.625 48.1653 Q950.111 43.6514 950.111 35.9547 Q950.111 27.9975 954.393 23.339 Q958.705 18.6515 965.996 18.6515 Q972.536 18.6515 976.326 22.876 Q980.145 27.0716 980.145 34.3054 M974.821 32.7429 Q974.764 28.3737 972.362 25.7695 Q969.989 23.1654 966.054 23.1654 Q961.598 23.1654 958.907 25.6827 Q956.245 28.2001 955.84 32.7718 L974.821 32.7429 Z" fill="#000000" fill-rule="nonzero" fill-opacity="1" /><path clip-path="url(#clip020)" d="M992.067 35.6653 Q992.067 41.5391 994.468 44.8956 Q996.899 48.2231 1001.12 48.2231 Q1005.35 48.2231 1007.78 44.8956 Q1010.21 41.5391 1010.21 35.6653 Q1010.21 29.7915 1007.78 26.464 Q1005.35 23.1075 1001.12 23.1075 Q996.899 23.1075 994.468 26.464 Q992.067 29.7915 992.067 35.6653 M1010.21 46.9789 Q1008.53 49.8724 1005.96 51.2902 Q1003.41 52.6791 999.821 52.6791 Q993.947 52.6791 990.244 47.9916 Q986.569 43.3042 986.569 35.6653 Q986.569 28.0265 990.244 23.339 Q993.947 18.6515 999.821 18.6515 Q1003.41 18.6515 1005.96 20.0693 Q1008.53 21.4582 1010.21 24.3517 L1010.21 19.4328 L1015.53 19.4328 L1015.53 64.1663 L1010.21 64.1663 L1010.21 46.9789 Z" fill="#000000" fill-rule="nonzero" fill-opacity="1" /><path clip-path="url(#clip020)" d="M1025.95 39.0507 L1025.95 19.4328 L1031.27 19.4328 L1031.27 38.8482 Q1031.27 43.4488 1033.07 45.7636 Q1034.86 48.0495 1038.45 48.0495 Q1042.76 48.0495 1045.25 45.3007 Q1047.77 42.5519 1047.77 37.8065 L1047.77 19.4328 L1053.09 19.4328 L1053.09 51.84 L1047.77 51.84 L1047.77 46.8632 Q1045.83 49.8145 1043.25 51.2613 Q1040.71 52.6791 1037.32 52.6791 Q1031.74 52.6791 1028.84 49.2069 Q1025.95 45.7347 1025.95 39.0507 M1039.35 18.6515 L1039.35 18.6515 Z" fill="#000000" fill-rule="nonzero" fill-opacity="1" /><path clip-path="url(#clip020)" d="M1078.78 35.5496 Q1072.33 35.5496 1069.84 37.0253 Q1067.36 38.501 1067.36 42.06 Q1067.36 44.8956 1069.21 46.5738 Q1071.09 48.2231 1074.3 48.2231 Q1078.73 48.2231 1081.39 45.0981 Q1084.08 41.9442 1084.08 36.7359 L1084.08 35.5496 L1078.78 35.5496 M1089.4 33.3505 L1089.4 51.84 L1084.08 51.84 L1084.08 46.921 Q1082.26 49.8724 1079.54 51.2902 Q1076.82 52.6791 1072.88 52.6791 Q1067.91 52.6791 1064.95 49.9014 Q1062.03 47.0947 1062.03 42.4072 Q1062.03 36.9385 1065.68 34.1607 Q1069.35 31.3829 1076.61 31.3829 L1084.08 31.3829 L1084.08 30.8621 Q1084.08 27.1874 1081.65 25.1908 Q1079.25 23.1654 1074.88 23.1654 Q1072.1 23.1654 1069.47 23.8309 Q1066.83 24.4964 1064.4 25.8274 L1064.4 20.9085 Q1067.33 19.78 1070.08 19.2302 Q1072.82 18.6515 1075.43 18.6515 Q1082.46 18.6515 1085.93 22.2973 Q1089.4 25.9431 1089.4 33.3505 Z" fill="#000000" fill-rule="nonzero" fill-opacity="1" /><path clip-path="url(#clip020)" d="M1123.69 20.677 L1123.69 25.6538 Q1121.44 24.4096 1119.15 23.802 Q1116.89 23.1654 1114.58 23.1654 Q1109.4 23.1654 1106.53 26.464 Q1103.67 29.7336 1103.67 35.6653 Q1103.67 41.597 1106.53 44.8956 Q1109.4 48.1653 1114.58 48.1653 Q1116.89 48.1653 1119.15 47.5576 Q1121.44 46.921 1123.69 45.6768 L1123.69 50.5958 Q1121.46 51.6375 1119.06 52.1583 Q1116.69 52.6791 1114 52.6791 Q1106.68 52.6791 1102.37 48.0784 Q1098.06 43.4778 1098.06 35.6653 Q1098.06 27.7371 1102.4 23.1943 Q1106.77 18.6515 1114.35 18.6515 Q1116.81 18.6515 1119.15 19.1724 Q1121.49 19.6642 1123.69 20.677 M1116.17 51.84 Q1117.76 53.634 1118.54 55.1386 Q1119.32 56.6722 1119.32 58.061 Q1119.32 60.6362 1117.59 61.9383 Q1115.85 63.2693 1112.44 63.2693 Q1111.11 63.2693 1109.83 63.0957 Q1108.59 62.9221 1107.34 62.5749 L1107.34 58.7844 Q1108.33 59.2763 1109.4 59.4788 Q1110.47 59.7103 1111.83 59.7103 Q1113.54 59.7103 1114.4 59.0159 Q1115.27 58.3214 1115.27 56.9904 Q1115.27 56.1224 1114.64 54.8492 Q1114.03 53.605 1112.73 51.84 L1116.17 51.84 Z" fill="#000000" fill-rule="nonzero" fill-opacity="1" /><path clip-path="url(#clip020)" d="M1147.68 35.5496 Q1141.23 35.5496 1138.74 37.0253 Q1136.25 38.501 1136.25 42.06 Q1136.25 44.8956 1138.1 46.5738 Q1139.98 48.2231 1143.19 48.2231 Q1147.62 48.2231 1150.28 45.0981 Q1152.97 41.9442 1152.97 36.7359 L1152.97 35.5496 L1147.68 35.5496 M1158.3 33.3505 L1158.3 51.84 L1152.97 51.84 L1152.97 46.921 Q1151.15 49.8724 1148.43 51.2902 Q1145.71 52.6791 1141.78 52.6791 Q1136.8 52.6791 1133.85 49.9014 Q1130.93 47.0947 1130.93 42.4072 Q1130.93 36.9385 1134.57 34.1607 Q1138.25 31.3829 1145.51 31.3829 L1152.97 31.3829 L1152.97 30.8621 Q1152.97 27.1874 1150.54 25.1908 Q1148.14 23.1654 1143.77 23.1654 Q1141 23.1654 1138.36 23.8309 Q1135.73 24.4964 1133.3 25.8274 L1133.3 20.9085 Q1136.22 19.78 1138.97 19.2302 Q1141.72 18.6515 1144.32 18.6515 Q1151.35 18.6515 1154.83 22.2973 Q1158.3 25.9431 1158.3 33.3505 M1144.44 12.199 L1142.79 10.6076 Q1142.15 10.0289 1141.66 9.76847 Q1141.2 9.47912 1140.82 9.47912 Q1139.72 9.47912 1139.2 10.5497 Q1138.68 11.5914 1138.62 13.964 L1135.01 13.964 Q1135.06 10.0578 1136.54 7.94556 Q1138.01 5.80437 1140.65 5.80437 Q1141.75 5.80437 1142.67 6.20946 Q1143.6 6.61455 1144.67 7.5694 L1146.32 9.16083 Q1146.96 9.73953 1147.42 10.0289 Q1147.91 10.2893 1148.29 10.2893 Q1149.39 10.2893 1149.91 9.24764 Q1150.43 8.17704 1150.49 5.80437 L1154.1 5.80437 Q1154.04 9.7106 1152.57 11.8518 Q1151.09 13.964 1148.46 13.964 Q1147.36 13.964 1146.44 13.559 Q1145.51 13.1539 1144.44 12.199 Z" fill="#000000" fill-rule="nonzero" fill-opacity="1" /><path clip-path="url(#clip020)" d="M1181.82 23.1654 Q1177.54 23.1654 1175.05 26.5218 Q1172.56 29.8494 1172.56 35.6653 Q1172.56 41.4813 1175.02 44.8377 Q1177.51 48.1653 1181.82 48.1653 Q1186.08 48.1653 1188.56 44.8088 Q1191.05 41.4523 1191.05 35.6653 Q1191.05 29.9072 1188.56 26.5508 Q1186.08 23.1654 1181.82 23.1654 M1181.82 18.6515 Q1188.77 18.6515 1192.73 23.1654 Q1196.7 27.6792 1196.7 35.6653 Q1196.7 43.6225 1192.73 48.1653 Q1188.77 52.6791 1181.82 52.6791 Q1174.85 52.6791 1170.89 48.1653 Q1166.95 43.6225 1166.95 35.6653 Q1166.95 27.6792 1170.89 23.1654 Q1174.85 18.6515 1181.82 18.6515 Z" fill="#000000" fill-rule="nonzero" fill-opacity="1" /><path clip-path="url(#clip020)" d="M1245.68 24.3517 L1245.68 6.81709 L1251.01 6.81709 L1251.01 51.84 L1245.68 51.84 L1245.68 46.9789 Q1244 49.8724 1241.43 51.2902 Q1238.88 52.6791 1235.29 52.6791 Q1229.42 52.6791 1225.72 47.9916 Q1222.04 43.3042 1222.04 35.6653 Q1222.04 28.0265 1225.72 23.339 Q1229.42 18.6515 1235.29 18.6515 Q1238.88 18.6515 1241.43 20.0693 Q1244 21.4582 1245.68 24.3517 M1227.54 35.6653 Q1227.54 41.5391 1229.94 44.8956 Q1232.37 48.2231 1236.6 48.2231 Q1240.82 48.2231 1243.25 44.8956 Q1245.68 41.5391 1245.68 35.6653 Q1245.68 29.7915 1243.25 26.464 Q1240.82 23.1075 1236.6 23.1075 Q1232.37 23.1075 1229.94 26.464 Q1227.54 29.7915 1227.54 35.6653 Z" fill="#000000" fill-rule="nonzero" fill-opacity="1" /><path clip-path="url(#clip020)" d="M1261.97 19.4328 L1267.3 19.4328 L1267.3 51.84 L1261.97 51.84 L1261.97 19.4328 M1261.97 6.81709 L1267.3 6.81709 L1267.3 13.559 L1261.97 13.559 L1261.97 6.81709 Z" fill="#000000" fill-rule="nonzero" fill-opacity="1" /><path clip-path="url(#clip020)" d="M1294.84 6.81709 L1294.84 11.2442 L1289.75 11.2442 Q1286.89 11.2442 1285.76 12.4016 Q1284.66 13.559 1284.66 16.5682 L1284.66 19.4328 L1293.43 19.4328 L1293.43 23.5705 L1284.66 23.5705 L1284.66 51.84 L1279.3 51.84 L1279.3 23.5705 L1274.21 23.5705 L1274.21 19.4328 L1279.3 19.4328 L1279.3 17.1758 Q1279.3 11.765 1281.82 9.30551 Q1284.34 6.81709 1289.81 6.81709 L1294.84 6.81709 Z" fill="#000000" fill-rule="nonzero" fill-opacity="1" /><path clip-path="url(#clip020)" d="M1327.02 34.3054 L1327.02 36.9095 L1302.54 36.9095 Q1302.89 42.4072 1305.84 45.3007 Q1308.82 48.1653 1314.11 48.1653 Q1317.18 48.1653 1320.05 47.4129 Q1322.94 46.6606 1325.77 45.156 L1325.77 50.1907 Q1322.91 51.406 1319.9 52.0425 Q1316.89 52.6791 1313.8 52.6791 Q1306.04 52.6791 1301.5 48.1653 Q1296.98 43.6514 1296.98 35.9547 Q1296.98 27.9975 1301.27 23.339 Q1305.58 18.6515 1312.87 18.6515 Q1319.41 18.6515 1323.2 22.876 Q1327.02 27.0716 1327.02 34.3054 M1321.69 32.7429 Q1321.64 28.3737 1319.24 25.7695 Q1316.86 23.1654 1312.93 23.1654 Q1308.47 23.1654 1305.78 25.6827 Q1303.12 28.2001 1302.71 32.7718 L1321.69 32.7429 Z" fill="#000000" fill-rule="nonzero" fill-opacity="1" /><path clip-path="url(#clip020)" d="M1354.54 24.4096 Q1353.64 23.8888 1352.57 23.6573 Q1351.53 23.3969 1350.25 23.3969 Q1345.74 23.3969 1343.31 26.3482 Q1340.91 29.2707 1340.91 34.7683 L1340.91 51.84 L1335.55 51.84 L1335.55 19.4328 L1340.91 19.4328 L1340.91 24.4675 Q1342.59 21.5161 1345.28 20.0983 Q1347.97 18.6515 1351.82 18.6515 Q1352.37 18.6515 1353.03 18.7383 Q1353.7 18.7962 1354.51 18.9409 L1354.54 24.4096 Z" fill="#000000" fill-rule="nonzero" fill-opacity="1" /><path clip-path="url(#clip020)" d="M1386.54 34.3054 L1386.54 36.9095 L1362.06 36.9095 Q1362.41 42.4072 1365.36 45.3007 Q1368.34 48.1653 1373.63 48.1653 Q1376.7 48.1653 1379.56 47.4129 Q1382.46 46.6606 1385.29 45.156 L1385.29 50.1907 Q1382.43 51.406 1379.42 52.0425 Q1376.41 52.6791 1373.31 52.6791 Q1365.56 52.6791 1361.02 48.1653 Q1356.5 43.6514 1356.5 35.9547 Q1356.5 27.9975 1360.79 23.339 Q1365.1 18.6515 1372.39 18.6515 Q1378.93 18.6515 1382.72 22.876 Q1386.54 27.0716 1386.54 34.3054 M1381.21 32.7429 Q1381.16 28.3737 1378.75 25.7695 Q1376.38 23.1654 1372.45 23.1654 Q1367.99 23.1654 1365.3 25.6827 Q1362.64 28.2001 1362.23 32.7718 L1381.21 32.7429 Z" fill="#000000" fill-rule="nonzero" fill-opacity="1" /><path clip-path="url(#clip020)" d="M1422.21 32.2799 L1422.21 51.84 L1416.89 51.84 L1416.89 32.4535 Q1416.89 27.8529 1415.1 25.567 Q1413.3 23.2811 1409.71 23.2811 Q1405.4 23.2811 1402.92 26.03 Q1400.43 28.7788 1400.43 33.5241 L1400.43 51.84 L1395.07 51.84 L1395.07 19.4328 L1400.43 19.4328 L1400.43 24.4675 Q1402.34 21.545 1404.91 20.0983 Q1407.52 18.6515 1410.9 18.6515 Q1416.49 18.6515 1419.35 22.1237 Q1422.21 25.567 1422.21 32.2799 Z" fill="#000000" fill-rule="nonzero" fill-opacity="1" /><path clip-path="url(#clip020)" d="M1456.16 20.677 L1456.16 25.6538 Q1453.9 24.4096 1451.61 23.802 Q1449.36 23.1654 1447.04 23.1654 Q1441.86 23.1654 1439 26.464 Q1436.13 29.7336 1436.13 35.6653 Q1436.13 41.597 1439 44.8956 Q1441.86 48.1653 1447.04 48.1653 Q1449.36 48.1653 1451.61 47.5576 Q1453.9 46.921 1456.16 45.6768 L1456.16 50.5958 Q1453.93 51.6375 1451.53 52.1583 Q1449.15 52.6791 1446.46 52.6791 Q1439.14 52.6791 1434.83 48.0784 Q1430.52 43.4778 1430.52 35.6653 Q1430.52 27.7371 1434.86 23.1943 Q1439.23 18.6515 1446.81 18.6515 Q1449.27 18.6515 1451.61 19.1724 Q1453.96 19.6642 1456.16 20.677 Z" fill="#000000" fill-rule="nonzero" fill-opacity="1" /><path clip-path="url(#clip020)" d="M1465.41 19.4328 L1470.74 19.4328 L1470.74 51.84 L1465.41 51.84 L1465.41 19.4328 M1465.41 6.81709 L1470.74 6.81709 L1470.74 13.559 L1465.41 13.559 L1465.41 6.81709 Z" fill="#000000" fill-rule="nonzero" fill-opacity="1" /><path clip-path="url(#clip020)" d="M1496.61 35.5496 Q1490.15 35.5496 1487.67 37.0253 Q1485.18 38.501 1485.18 42.06 Q1485.18 44.8956 1487.03 46.5738 Q1488.91 48.2231 1492.12 48.2231 Q1496.55 48.2231 1499.21 45.0981 Q1501.9 41.9442 1501.9 36.7359 L1501.9 35.5496 L1496.61 35.5496 M1507.23 33.3505 L1507.23 51.84 L1501.9 51.84 L1501.9 46.921 Q1500.08 49.8724 1497.36 51.2902 Q1494.64 52.6791 1490.7 52.6791 Q1485.73 52.6791 1482.78 49.9014 Q1479.85 47.0947 1479.85 42.4072 Q1479.85 36.9385 1483.5 34.1607 Q1487.17 31.3829 1494.44 31.3829 L1501.9 31.3829 L1501.9 30.8621 Q1501.9 27.1874 1499.47 25.1908 Q1497.07 23.1654 1492.7 23.1654 Q1489.92 23.1654 1487.29 23.8309 Q1484.66 24.4964 1482.23 25.8274 L1482.23 20.9085 Q1485.15 19.78 1487.9 19.2302 Q1490.65 18.6515 1493.25 18.6515 Q1500.28 18.6515 1503.75 22.2973 Q1507.23 25.9431 1507.23 33.3505 Z" fill="#000000" fill-rule="nonzero" fill-opacity="1" /><path clip-path="url(#clip020)" d="M1518.19 6.81709 L1523.52 6.81709 L1523.52 51.84 L1518.19 51.84 L1518.19 6.81709 Z" fill="#000000" fill-rule="nonzero" fill-opacity="1" /><path clip-path="url(#clip020)" d="M1568.22 35.5496 Q1561.77 35.5496 1559.28 37.0253 Q1556.79 38.501 1556.79 42.06 Q1556.79 44.8956 1558.64 46.5738 Q1560.52 48.2231 1563.74 48.2231 Q1568.16 48.2231 1570.83 45.0981 Q1573.52 41.9442 1573.52 36.7359 L1573.52 35.5496 L1568.22 35.5496 M1578.84 33.3505 L1578.84 51.84 L1573.52 51.84 L1573.52 46.921 Q1571.69 49.8724 1568.97 51.2902 Q1566.25 52.6791 1562.32 52.6791 Q1557.34 52.6791 1554.39 49.9014 Q1551.47 47.0947 1551.47 42.4072 Q1551.47 36.9385 1555.11 34.1607 Q1558.79 31.3829 1566.05 31.3829 L1573.52 31.3829 L1573.52 30.8621 Q1573.52 27.1874 1571.09 25.1908 Q1568.68 23.1654 1564.31 23.1654 Q1561.54 23.1654 1558.9 23.8309 Q1556.27 24.4964 1553.84 25.8274 L1553.84 20.9085 Q1556.76 19.78 1559.51 19.2302 Q1562.26 18.6515 1564.86 18.6515 Q1571.9 18.6515 1575.37 22.2973 Q1578.84 25.9431 1578.84 33.3505 Z" fill="#000000" fill-rule="nonzero" fill-opacity="1" /><path clip-path="url(#clip020)" d="M1589.81 6.81709 L1595.13 6.81709 L1595.13 51.84 L1589.81 51.84 L1589.81 6.81709 Z" fill="#000000" fill-rule="nonzero" fill-opacity="1" /><path clip-path="url(#clip020)" d="M1633.99 34.3054 L1633.99 36.9095 L1609.51 36.9095 Q1609.86 42.4072 1612.81 45.3007 Q1615.79 48.1653 1621.09 48.1653 Q1624.15 48.1653 1627.02 47.4129 Q1629.91 46.6606 1632.75 45.156 L1632.75 50.1907 Q1629.88 51.406 1626.87 52.0425 Q1623.86 52.6791 1620.77 52.6791 Q1613.01 52.6791 1608.47 48.1653 Q1603.96 43.6514 1603.96 35.9547 Q1603.96 27.9975 1608.24 23.339 Q1612.55 18.6515 1619.84 18.6515 Q1626.38 18.6515 1630.17 22.876 Q1633.99 27.0716 1633.99 34.3054 M1628.67 32.7429 Q1628.61 28.3737 1626.21 25.7695 Q1623.83 23.1654 1619.9 23.1654 Q1615.44 23.1654 1612.75 25.6827 Q1610.09 28.2001 1609.68 32.7718 L1628.67 32.7429 Z" fill="#000000" fill-rule="nonzero" fill-opacity="1" /><path clip-path="url(#clip020)" d="M1657.46 35.5496 Q1651 35.5496 1648.52 37.0253 Q1646.03 38.501 1646.03 42.06 Q1646.03 44.8956 1647.88 46.5738 Q1649.76 48.2231 1652.97 48.2231 Q1657.4 48.2231 1660.06 45.0981 Q1662.75 41.9442 1662.75 36.7359 L1662.75 35.5496 L1657.46 35.5496 M1668.08 33.3505 L1668.08 51.84 L1662.75 51.84 L1662.75 46.921 Q1660.93 49.8724 1658.21 51.2902 Q1655.49 52.6791 1651.55 52.6791 Q1646.58 52.6791 1643.63 49.9014 Q1640.7 47.0947 1640.7 42.4072 Q1640.7 36.9385 1644.35 34.1607 Q1648.02 31.3829 1655.29 31.3829 L1662.75 31.3829 L1662.75 30.8621 Q1662.75 27.1874 1660.32 25.1908 Q1657.92 23.1654 1653.55 23.1654 Q1650.77 23.1654 1648.14 23.8309 Q1645.51 24.4964 1643.08 25.8274 L1643.08 20.9085 Q1646 19.78 1648.75 19.2302 Q1651.5 18.6515 1654.1 18.6515 Q1661.13 18.6515 1664.6 22.2973 Q1668.08 25.9431 1668.08 33.3505 Z" fill="#000000" fill-rule="nonzero" fill-opacity="1" /><path clip-path="url(#clip020)" d="M1684.31 10.2314 L1684.31 19.4328 L1695.27 19.4328 L1695.27 23.5705 L1684.31 23.5705 L1684.31 41.163 Q1684.31 45.1271 1685.38 46.2555 Q1686.48 47.384 1689.81 47.384 L1695.27 47.384 L1695.27 51.84 L1689.81 51.84 Q1683.64 51.84 1681.3 49.5541 Q1678.96 47.2393 1678.96 41.163 L1678.96 23.5705 L1675.05 23.5705 L1675.05 19.4328 L1678.96 19.4328 L1678.96 10.2314 L1684.31 10.2314 Z" fill="#000000" fill-rule="nonzero" fill-opacity="1" /><path clip-path="url(#clip020)" d="M1714.83 23.1654 Q1710.55 23.1654 1708.06 26.5218 Q1705.58 29.8494 1705.58 35.6653 Q1705.58 41.4813 1708.04 44.8377 Q1710.52 48.1653 1714.83 48.1653 Q1719.09 48.1653 1721.58 44.8088 Q1724.07 41.4523 1724.07 35.6653 Q1724.07 29.9072 1721.58 26.5508 Q1719.09 23.1654 1714.83 23.1654 M1714.83 18.6515 Q1721.78 18.6515 1725.74 23.1654 Q1729.71 27.6792 1729.71 35.6653 Q1729.71 43.6225 1725.74 48.1653 Q1721.78 52.6791 1714.83 52.6791 Q1707.86 52.6791 1703.9 48.1653 Q1699.96 43.6225 1699.96 35.6653 Q1699.96 27.6792 1703.9 23.1654 Q1707.86 18.6515 1714.83 18.6515 M1718.86 4.44442 L1724.61 4.44442 L1715.18 15.324 L1710.75 15.324 L1718.86 4.44442 Z" fill="#000000" fill-rule="nonzero" fill-opacity="1" /><path clip-path="url(#clip020)" d="M1757.31 24.4096 Q1756.41 23.8888 1755.34 23.6573 Q1754.3 23.3969 1753.03 23.3969 Q1748.52 23.3969 1746.08 26.3482 Q1743.68 29.2707 1743.68 34.7683 L1743.68 51.84 L1738.33 51.84 L1738.33 19.4328 L1743.68 19.4328 L1743.68 24.4675 Q1745.36 21.5161 1748.05 20.0983 Q1750.74 18.6515 1754.59 18.6515 Q1755.14 18.6515 1755.81 18.7383 Q1756.47 18.7962 1757.28 18.9409 L1757.31 24.4096 Z" fill="#000000" fill-rule="nonzero" fill-opacity="1" /><path clip-path="url(#clip020)" d="M1762.9 19.4328 L1768.22 19.4328 L1768.22 51.84 L1762.9 51.84 L1762.9 19.4328 M1762.9 6.81709 L1768.22 6.81709 L1768.22 13.559 L1762.9 13.559 L1762.9 6.81709 Z" fill="#000000" fill-rule="nonzero" fill-opacity="1" /><path clip-path="url(#clip020)" d="M1794.09 35.5496 Q1787.64 35.5496 1785.15 37.0253 Q1782.66 38.501 1782.66 42.06 Q1782.66 44.8956 1784.51 46.5738 Q1786.39 48.2231 1789.6 48.2231 Q1794.03 48.2231 1796.69 45.0981 Q1799.38 41.9442 1799.38 36.7359 L1799.38 35.5496 L1794.09 35.5496 M1804.71 33.3505 L1804.71 51.84 L1799.38 51.84 L1799.38 46.921 Q1797.56 49.8724 1794.84 51.2902 Q1792.12 52.6791 1788.19 52.6791 Q1783.21 52.6791 1780.26 49.9014 Q1777.33 47.0947 1777.33 42.4072 Q1777.33 36.9385 1780.98 34.1607 Q1784.66 31.3829 1791.92 31.3829 L1799.38 31.3829 L1799.38 30.8621 Q1799.38 27.1874 1796.95 25.1908 Q1794.55 23.1654 1790.18 23.1654 Q1787.4 23.1654 1784.77 23.8309 Q1782.14 24.4964 1779.71 25.8274 L1779.71 20.9085 Q1782.63 19.78 1785.38 19.2302 Q1788.13 18.6515 1790.73 18.6515 Q1797.76 18.6515 1801.23 22.2973 Q1804.71 25.9431 1804.71 33.3505 Z" fill="#000000" fill-rule="nonzero" fill-opacity="1" /><path clip-path="url(#clip020)" d="M1839.54 4.44442 L1847.7 15.2661 L1843.28 15.2661 L1833.84 4.44442 L1839.54 4.44442 Z" fill="#000000" fill-rule="nonzero" fill-opacity="1" /><path clip-path="url(#clip020)" d="M1863.59 39.0507 L1863.59 19.4328 L1868.91 19.4328 L1868.91 38.8482 Q1868.91 43.4488 1870.71 45.7636 Q1872.5 48.0495 1876.09 48.0495 Q1880.4 48.0495 1882.89 45.3007 Q1885.41 42.5519 1885.41 37.8065 L1885.41 19.4328 L1890.73 19.4328 L1890.73 51.84 L1885.41 51.84 L1885.41 46.8632 Q1883.47 49.8145 1880.89 51.2613 Q1878.35 52.6791 1874.96 52.6791 Q1869.38 52.6791 1866.48 49.2069 Q1863.59 45.7347 1863.59 39.0507 M1876.99 18.6515 L1876.99 18.6515 Z" fill="#000000" fill-rule="nonzero" fill-opacity="1" /><path clip-path="url(#clip020)" d="M1906.73 8.64 L1906.73 24.6989 L1901.81 24.6989 L1901.81 8.64 L1906.73 8.64 Z" fill="#000000" fill-rule="nonzero" fill-opacity="1" /><path clip-path="url(#clip020)" d="M1937.52 24.9304 L1974.61 24.9304 L1974.61 29.7915 L1937.52 29.7915 L1937.52 24.9304 M1937.52 36.7359 L1974.61 36.7359 L1974.61 41.6549 L1937.52 41.6549 L1937.52 36.7359 Z" fill="#000000" fill-rule="nonzero" fill-opacity="1" /><path clip-path="url(#clip020)" d="M2025.97 20.3876 L2025.97 25.4223 Q2023.72 24.2649 2021.29 23.6862 Q2018.86 23.1075 2016.25 23.1075 Q2012.29 23.1075 2010.29 24.3228 Q2008.32 25.5381 2008.32 27.9686 Q2008.32 29.8204 2009.74 30.891 Q2011.16 31.9327 2015.44 32.8876 L2017.26 33.2926 Q2022.93 34.5079 2025.31 36.7359 Q2027.71 38.935 2027.71 42.8991 Q2027.71 47.4129 2024.12 50.046 Q2020.56 52.6791 2014.31 52.6791 Q2011.71 52.6791 2008.87 52.1583 Q2006.07 51.6664 2002.94 50.6537 L2002.94 45.156 Q2005.89 46.6896 2008.76 47.4708 Q2011.62 48.2231 2014.43 48.2231 Q2018.19 48.2231 2020.22 46.95 Q2022.24 45.6479 2022.24 43.3042 Q2022.24 41.134 2020.76 39.9766 Q2019.32 38.8192 2014.37 37.7486 L2012.52 37.3146 Q2007.57 36.273 2005.37 34.1318 Q2003.17 31.9616 2003.17 28.2001 Q2003.17 23.6283 2006.41 21.1399 Q2009.65 18.6515 2015.61 18.6515 Q2018.57 18.6515 2021.17 19.0855 Q2023.77 19.5196 2025.97 20.3876 Z" fill="#000000" fill-rule="nonzero" fill-opacity="1" /><path clip-path="url(#clip020)" d="M2036.19 19.4328 L2041.51 19.4328 L2041.51 51.84 L2036.19 51.84 L2036.19 19.4328 M2036.19 6.81709 L2041.51 6.81709 L2041.51 13.559 L2036.19 13.559 L2036.19 6.81709 Z" fill="#000000" fill-rule="nonzero" fill-opacity="1" /><path clip-path="url(#clip020)" d="M2079.59 32.2799 L2079.59 51.84 L2074.27 51.84 L2074.27 32.4535 Q2074.27 27.8529 2072.47 25.567 Q2070.68 23.2811 2067.09 23.2811 Q2062.78 23.2811 2060.29 26.03 Q2057.8 28.7788 2057.8 33.5241 L2057.8 51.84 L2052.45 51.84 L2052.45 19.4328 L2057.8 19.4328 L2057.8 24.4675 Q2059.71 21.545 2062.29 20.0983 Q2064.89 18.6515 2068.28 18.6515 Q2073.86 18.6515 2076.73 22.1237 Q2079.59 25.567 2079.59 32.2799 Z" fill="#000000" fill-rule="nonzero" fill-opacity="1" /><path clip-path="url(#clip020)" d="M2103 6.87496 Q2099.12 13.53 2097.24 20.0404 Q2095.36 26.5508 2095.36 33.2348 Q2095.36 39.9188 2097.24 46.487 Q2099.15 53.0263 2103 59.6525 L2098.37 59.6525 Q2094.03 52.8527 2091.86 46.2845 Q2089.72 39.7162 2089.72 33.2348 Q2089.72 26.7823 2091.86 20.2429 Q2094 13.7036 2098.37 6.87496 L2103 6.87496 Z" fill="#000000" fill-rule="nonzero" fill-opacity="1" /><path clip-path="url(#clip020)" d="M2109.71 8.64 L2115.61 8.64 L2124.7 45.156 L2133.76 8.64 L2140.32 8.64 L2149.41 45.156 L2158.47 8.64 L2164.4 8.64 L2153.55 51.84 L2146.2 51.84 L2137.08 14.3402 L2127.88 51.84 L2120.53 51.84 L2109.71 8.64 Z" fill="#000000" fill-rule="nonzero" fill-opacity="1" /><path clip-path="url(#clip020)" d="M2171.08 6.87496 L2175.71 6.87496 Q2180.05 13.7036 2182.19 20.2429 Q2184.36 26.7823 2184.36 33.2348 Q2184.36 39.7162 2182.19 46.2845 Q2180.05 52.8527 2175.71 59.6525 L2171.08 59.6525 Q2174.93 53.0263 2176.81 46.487 Q2178.72 39.9188 2178.72 33.2348 Q2178.72 26.5508 2176.81 20.0404 Q2174.93 13.53 2171.08 6.87496 Z" fill="#000000" fill-rule="nonzero" fill-opacity="1" /><path clip-path="url(#clip020)" d="M2194.49 39.0507 L2194.49 19.4328 L2199.81 19.4328 L2199.81 38.8482 Q2199.81 43.4488 2201.61 45.7636 Q2203.4 48.0495 2206.99 48.0495 Q2211.3 48.0495 2213.79 45.3007 Q2216.31 42.5519 2216.31 37.8065 L2216.31 19.4328 L2221.63 19.4328 L2221.63 51.84 L2216.31 51.84 L2216.31 46.8632 Q2214.37 49.8145 2211.79 51.2613 Q2209.25 52.6791 2205.86 52.6791 Q2200.28 52.6791 2197.38 49.2069 Q2194.49 45.7347 2194.49 39.0507 M2207.89 18.6515 L2207.89 18.6515 Z" fill="#000000" fill-rule="nonzero" fill-opacity="1" /><path clip-path="url(#clip020)" d="M2237.63 4.44442 L2245.79 15.2661 L2241.37 15.2661 L2231.93 4.44442 L2237.63 4.44442 Z" fill="#000000" fill-rule="nonzero" fill-opacity="1" /><path clip-path="url(#clip020)" d="M2304.39 20.677 L2304.39 25.6538 Q2302.13 24.4096 2299.84 23.802 Q2297.59 23.1654 2295.27 23.1654 Q2290.09 23.1654 2287.23 26.464 Q2284.36 29.7336 2284.36 35.6653 Q2284.36 41.597 2287.23 44.8956 Q2290.09 48.1653 2295.27 48.1653 Q2297.59 48.1653 2299.84 47.5576 Q2302.13 46.921 2304.39 45.6768 L2304.39 50.5958 Q2302.16 51.6375 2299.76 52.1583 Q2297.38 52.6791 2294.69 52.6791 Q2287.37 52.6791 2283.06 48.0784 Q2278.75 43.4778 2278.75 35.6653 Q2278.75 27.7371 2283.09 23.1943 Q2287.46 18.6515 2295.04 18.6515 Q2297.5 18.6515 2299.84 19.1724 Q2302.19 19.6642 2304.39 20.677 Z" fill="#000000" fill-rule="nonzero" fill-opacity="1" /><path clip-path="url(#clip020)" d="M2326.2 23.1654 Q2321.92 23.1654 2319.43 26.5218 Q2316.94 29.8494 2316.94 35.6653 Q2316.94 41.4813 2319.4 44.8377 Q2321.89 48.1653 2326.2 48.1653 Q2330.46 48.1653 2332.94 44.8088 Q2335.43 41.4523 2335.43 35.6653 Q2335.43 29.9072 2332.94 26.5508 Q2330.46 23.1654 2326.2 23.1654 M2326.2 18.6515 Q2333.15 18.6515 2337.11 23.1654 Q2341.08 27.6792 2341.08 35.6653 Q2341.08 43.6225 2337.11 48.1653 Q2333.15 52.6791 2326.2 52.6791 Q2319.23 52.6791 2315.27 48.1653 Q2311.33 43.6225 2311.33 35.6653 Q2311.33 27.6792 2315.27 23.1654 Q2319.23 18.6515 2326.2 18.6515 Z" fill="#000000" fill-rule="nonzero" fill-opacity="1" /><path clip-path="url(#clip020)" d="M2375.13 25.6538 Q2377.13 22.0659 2379.91 20.3587 Q2382.68 18.6515 2386.45 18.6515 Q2391.51 18.6515 2394.26 22.2105 Q2397.01 25.7406 2397.01 32.2799 L2397.01 51.84 L2391.65 51.84 L2391.65 32.4535 Q2391.65 27.795 2390 25.5381 Q2388.36 23.2811 2384.97 23.2811 Q2380.83 23.2811 2378.43 26.03 Q2376.03 28.7788 2376.03 33.5241 L2376.03 51.84 L2370.68 51.84 L2370.68 32.4535 Q2370.68 27.7661 2369.03 25.5381 Q2367.38 23.2811 2363.93 23.2811 Q2359.85 23.2811 2357.45 26.0589 Q2355.05 28.8077 2355.05 33.5241 L2355.05 51.84 L2349.7 51.84 L2349.7 19.4328 L2355.05 19.4328 L2355.05 24.4675 Q2356.87 21.4872 2359.42 20.0693 Q2361.97 18.6515 2365.47 18.6515 Q2369 18.6515 2371.46 20.4455 Q2373.95 22.2395 2375.13 25.6538 Z" fill="#000000" fill-rule="nonzero" fill-opacity="1" /><path clip-path="url(#clip020)" d="M2431.5 4.44442 L2439.66 15.2661 L2435.23 15.2661 L2425.8 4.44442 L2431.5 4.44442 Z" fill="#000000" fill-rule="nonzero" fill-opacity="1" /><path clip-path="url(#clip020)" d="M2455.54 39.0507 L2455.54 19.4328 L2460.87 19.4328 L2460.87 38.8482 Q2460.87 43.4488 2462.66 45.7636 Q2464.45 48.0495 2468.04 48.0495 Q2472.35 48.0495 2474.84 45.3007 Q2477.36 42.5519 2477.36 37.8065 L2477.36 19.4328 L2482.68 19.4328 L2482.68 51.84 L2477.36 51.84 L2477.36 46.8632 Q2475.42 49.8145 2472.85 51.2613 Q2470.3 52.6791 2466.91 52.6791 Q2461.33 52.6791 2458.44 49.2069 Q2455.54 45.7347 2455.54 39.0507 M2468.94 18.6515 L2468.94 18.6515 Z" fill="#000000" fill-rule="nonzero" fill-opacity="1" /><path clip-path="url(#clip020)" d="M2506.44 6.87496 Q2502.56 13.53 2500.68 20.0404 Q2498.8 26.5508 2498.8 33.2348 Q2498.8 39.9188 2500.68 46.487 Q2502.59 53.0263 2506.44 59.6525 L2501.81 59.6525 Q2497.47 52.8527 2495.3 46.2845 Q2493.16 39.7162 2493.16 33.2348 Q2493.16 26.7823 2495.3 20.2429 Q2497.44 13.7036 2501.81 6.87496 L2506.44 6.87496 Z" fill="#000000" fill-rule="nonzero" fill-opacity="1" /><path clip-path="url(#clip020)" d="M2530.02 12.4884 Q2525.51 12.4884 2523.22 16.9444 Q2520.96 21.3714 2520.96 30.2834 Q2520.96 39.1665 2523.22 43.6225 Q2525.51 48.0495 2530.02 48.0495 Q2534.56 48.0495 2536.82 43.6225 Q2539.11 39.1665 2539.11 30.2834 Q2539.11 21.3714 2536.82 16.9444 Q2534.56 12.4884 2530.02 12.4884 M2530.02 7.85875 Q2537.28 7.85875 2541.1 13.6168 Q2544.95 19.346 2544.95 30.2834 Q2544.95 41.1919 2541.1 46.95 Q2537.28 52.6791 2530.02 52.6791 Q2522.76 52.6791 2518.91 46.95 Q2515.09 41.1919 2515.09 30.2834 Q2515.09 19.346 2518.91 13.6168 Q2522.76 7.85875 2530.02 7.85875 Z" fill="#000000" fill-rule="nonzero" fill-opacity="1" /><path clip-path="url(#clip020)" d="M2553.63 6.87496 L2558.26 6.87496 Q2562.6 13.7036 2564.74 20.2429 Q2566.91 26.7823 2566.91 33.2348 Q2566.91 39.7162 2564.74 46.2845 Q2562.6 52.8527 2558.26 59.6525 L2553.63 59.6525 Q2557.48 53.0263 2559.36 46.487 Q2561.27 39.9188 2561.27 33.2348 Q2561.27 26.5508 2559.36 20.0404 Q2557.48 13.53 2553.63 6.87496 Z" fill="#000000" fill-rule="nonzero" fill-opacity="1" /><path clip-path="url(#clip020)" d="M2597.12 24.9304 L2634.22 24.9304 L2634.22 29.7915 L2597.12 29.7915 L2597.12 24.9304 M2597.12 36.7359 L2634.22 36.7359 L2634.22 41.6549 L2597.12 41.6549 L2597.12 36.7359 Z" fill="#000000" fill-rule="nonzero" fill-opacity="1" /><path clip-path="url(#clip020)" d="M2666.68 46.921 L2676.23 46.921 L2676.23 13.964 L2665.84 16.0474 L2665.84 10.7233 L2676.17 8.64 L2682.02 8.64 L2682.02 46.921 L2691.57 46.921 L2691.57 51.84 L2666.68 51.84 L2666.68 46.921 Z" fill="#000000" fill-rule="nonzero" fill-opacity="1" /><path clip-path="url(#clip020)" d="M2703.37 44.4905 L2709.48 44.4905 L2709.48 51.84 L2703.37 51.84 L2703.37 44.4905 Z" fill="#000000" fill-rule="nonzero" fill-opacity="1" /><path clip-path="url(#clip020)" d="M2734.71 12.4884 Q2730.19 12.4884 2727.91 16.9444 Q2725.65 21.3714 2725.65 30.2834 Q2725.65 39.1665 2727.91 43.6225 Q2730.19 48.0495 2734.71 48.0495 Q2739.25 48.0495 2741.51 43.6225 Q2743.79 39.1665 2743.79 30.2834 Q2743.79 21.3714 2741.51 16.9444 Q2739.25 12.4884 2734.71 12.4884 M2734.71 7.85875 Q2741.97 7.85875 2745.79 13.6168 Q2749.64 19.346 2749.64 30.2834 Q2749.64 41.1919 2745.79 46.95 Q2741.97 52.6791 2734.71 52.6791 Q2727.45 52.6791 2723.6 46.95 Q2719.78 41.1919 2719.78 30.2834 Q2719.78 19.346 2723.6 13.6168 Q2727.45 7.85875 2734.71 7.85875 Z" fill="#000000" fill-rule="nonzero" fill-opacity="1" /><path clip-path="url(#clip020)" d="M2764.19 4.44442 L2772.35 15.2661 L2767.93 15.2661 L2758.49 4.44442 L2764.19 4.44442 Z" fill="#000000" fill-rule="nonzero" fill-opacity="1" /><polyline clip-path="url(#clip022)" style="stroke:#009af9; stroke-linecap:round; stroke-linejoin:round; stroke-width:4; stroke-opacity:1; fill:none" points="314.416,2138.94 319.928,2138.94 325.439,2140.67 330.95,2141 336.462,2143.77 341.973,2145.67 347.484,2145.54 352.996,2144.45 358.507,2143.98 364.018,2141.08 369.53,2139.29 375.041,2137.53 380.552,2135.62 386.064,2133.16 391.575,2131.81 397.086,2129.95 402.598,2128.17 408.109,2126.71 413.62,2125.12 419.132,2122.51 424.643,2120.65 430.154,2115.86 435.666,2113.26 441.177,2109.74 446.688,2103.89 452.2,2098.5 457.711,2092.06 463.222,2084.72 468.734,2078.45 474.245,2071.77 479.756,2065.53 485.268,2057.11 490.779,2049.48 496.29,2041.11 501.802,2034.3 507.313,2028.65 512.824,2021.86 518.336,2011.35 523.847,2001.55 529.358,1992.67 534.87,1981.6 540.381,1970.73 545.892,1959.61 551.404,1948.88 556.915,1940.47 562.426,1931.57 567.938,1923.82 573.449,1915.19 578.96,1907.53 584.472,1901.05 589.983,1892.31 595.494,1883.75 601.006,1874.98 606.517,1866.63 612.029,1858.82 617.54,1850.13 623.051,1839.96 628.563,1828.47 634.074,1815.78 639.585,1802.3 645.097,1789.43 650.608,1774.86 656.119,1759.56 661.631,1745.76 667.142,1731.73 672.653,1716.46 678.165,1701.31 683.676,1686.04 689.187,1668.3 694.699,1651.39 700.21,1634.62 705.721,1618.71 711.233,1603.73 716.744,1586.69 722.255,1569.59 727.767,1554.34 733.278,1535.46 738.789,1516.11 744.301,1496.42 749.812,1477.17 755.323,1461.25 760.835,1447.06 766.346,1430.79 771.857,1414.39 777.369,1398.62 782.88,1383.64 788.391,1366.6 793.903,1349.96 799.414,1336.38 804.925,1321.28 810.437,1306.71 815.948,1295.81 821.459,1286.66 826.971,1281.16 832.482,1275.59 837.993,1272.28 843.505,1267.59 849.016,1261.79 854.527,1259.06 860.039,1256.56 865.55,1251.05 871.061,1244.28 876.573,1239.24 882.084,1236.93 887.595,1232.25 893.107,1225.91 898.618,1217.98 904.129,1206.75 909.641,1199.18 915.152,1189.04 920.664,1183.63 926.175,1177.21 931.686,1166.48 937.198,1156.12 942.709,1145.32 948.22,1135.68 953.732,1129.24 959.243,1122.92 964.754,1117.99 970.266,1113.27 975.777,1109.86 981.288,1107.66 986.8,1106.86 992.311,1104.65 997.822,1103.8 1003.33,1102.82 1008.84,1098.62 1014.36,1096.31 1019.87,1098.18 1025.38,1099.02 1030.89,1100.31 1036.4,1102.37 1041.91,1106.86 1047.42,1111.21 1052.94,1114.77 1058.45,1116.29 1063.96,1121.25 1069.47,1124.85 1074.98,1128.17 1080.49,1131.67 1086,1131.53 1091.52,1124.72 1097.03,1124.72 1102.54,1126.66 1108.05,1129.63 1113.56,1135.26 1119.07,1140.7 1124.58,1147.71 1130.09,1153.34 1135.61,1161.84 1141.12,1170.44 1146.63,1181.46 1152.14,1194.56 1157.65,1210.26 1163.16,1225.44 1168.67,1240.51 1174.19,1253.54 1179.7,1265.69 1185.21,1276.37 1190.72,1283.15 1196.23,1286.41 1201.74,1290.7 1207.25,1292.65 1212.76,1292.85 1218.28,1291.78 1223.79,1286.85 1229.3,1281.27 1234.81,1276 1240.32,1269.8 1245.83,1262.11 1251.34,1257.04 1256.86,1248.66 1262.37,1244.18 1267.88,1241.66 1273.39,1239.45 1278.9,1240.13 1284.41,1241.16 1289.92,1238.05 1295.43,1234.03 1300.95,1229.54 1306.46,1223.04 1311.97,1217.43 1317.48,1214.89 1322.99,1210.91 1328.5,1208.31 1334.01,1207.68 1339.53,1205.13 1345.04,1199.54 1350.55,1190.76 1356.06,1184.59 1361.57,1179.88 1367.08,1172.59 1372.59,1165.67 1378.1,1159.37 1383.62,1150.67 1389.13,1141.12 1394.64,1131.23 1400.15,1123.1 1405.66,1116.09 1411.17,1109.32 1416.68,1104.44 1422.2,1099.26 1427.71,1097.69 1433.22,1097.41 1438.73,1101.21 1444.24,1110.72 1449.75,1121.27 1455.26,1132.19 1460.77,1140.38 1466.29,1143.66 1471.8,1147.64 1477.31,1152.98 1482.82,1159.51 1488.33,1165.49 1493.84,1170.07 1499.35,1172.3 1504.87,1178.58 1510.38,1182.68 1515.89,1186.38 1521.4,1192.35 1526.91,1196.64 1532.42,1202.06 1537.93,1204.67 1543.44,1205.41 1548.96,1208.36 1554.47,1209.59 1559.98,1211.95 1565.49,1212.75 1571,1210.51 1576.51,1207.47 1582.02,1200.51 1587.54,1191.78 1593.05,1184.14 1598.56,1177 1604.07,1166.41 1609.58,1155.29 1615.09,1147.13 1620.6,1139.57 1626.11,1127.34 1631.63,1115.35 1637.14,1103.64 1642.65,1092.38 1648.16,1081.91 1653.67,1073.23 1659.18,1063.21 1664.69,1055.7 1670.21,1044.41 1675.72,1032.78 1681.23,1024.22 1686.74,1012.58 1692.25,1001.51 1697.76,988.772 1703.27,978.788 1708.79,968.809 1714.3,956.314 1719.81,943.987 1725.32,933.619 1730.83,924.337 1736.34,916.826 1741.85,910.396 1747.36,901.247 1752.88,889.797 1758.39,877.222 1763.9,865.016 1769.41,851.863 1774.92,838.274 1780.43,822.026 1785.94,805.865 1791.46,792.482 1796.97,775.851 1802.48,766.538 1807.99,757.081 1813.5,748.899 1819.01,736.841 1824.52,723.468 1830.03,708.915 1835.55,687.32 1841.06,664.822 1846.57,640.318 1852.08,618.391 1857.59,598.265 1863.1,576.614 1868.61,557.269 1874.13,535.236 1879.64,515.989 1885.15,495.242 1890.66,471.064 1896.17,444.83 1901.68,421.8 1907.19,404.016 1912.7,388.24 1918.22,375.612 1923.73,359.361 1929.24,341.358 1934.75,321.713 1940.26,301.724 1945.77,283.649 1951.28,270.816 1956.8,255.508 1962.31,245.903 1967.82,236.744 1973.33,230.074 1978.84,221.578 1984.35,216.987 1989.86,213.662 1995.37,209.397 2000.89,204.973 2006.4,198.87 2011.91,188.943 2017.42,180.264 2022.93,173.078 2028.44,170.837 2033.95,171.685 2039.47,174.591 2044.98,177.043 2050.49,179.937 2056,185.381 2061.51,197.12 2067.02,214.757 2072.53,231.726 2078.04,243.354 2083.56,248.657 2089.07,253.44 2094.58,257.985 2100.09,263.173 2105.6,268.563 2111.11,269.276 2116.62,271.11 2122.14,277.948 2127.65,287.728 2133.16,299.698 2138.67,315.919 2144.18,331.965 2149.69,351.58 2155.2,372.683 2160.71,391.568 2166.23,409.85 2171.74,427.588 2177.25,441.719 2182.76,457.061 2188.27,471.437 2193.78,483.832 2199.29,498.323 2204.81,512.066 2210.32,525.657 2215.83,535.742 2221.34,547.885 2226.85,557.308 2232.36,563.488 2237.87,565.753 2243.38,570.115 2248.9,574.107 2254.41,575.249 2259.92,576.351 2265.43,574.819 2270.94,568.054 2276.45,563.039 2281.96,556.952 2287.48,553.966 2292.99,556.14 2298.5,561.942 2304.01,569.546 2309.52,581.182 2315.03,591.3 2320.54,597.182 2326.06,600.982 2331.57,608.995 2337.08,618.448 2342.59,631.433 2348.1,651.031 2353.61,667.858 2359.12,686.762 2364.63,707.995 2370.15,731.148 2375.66,752.931 2381.17,773.268 2386.68,792.937 2392.19,814.041 2397.7,838.322 2403.21,861.605 2408.73,885.379 2414.24,909.863 2419.75,933.951 2425.26,957.007 2430.77,976.653 2436.28,996.122 2441.79,1017.44 2447.3,1039.7 2452.82,1059.88 2458.33,1081.05 2463.84,1100.71 2469.35,1119.74 2474.86,1136.99 2480.37,1154.22 2485.88,1170.84 2491.4,1187.21 2496.91,1204.69 2502.42,1221.67 2507.93,1240.85 2513.44,1260.23 2518.95,1280.32 2524.46,1300.27 2529.97,1319.95 2535.49,1338.53 2541,1355.43 2546.51,1372.43 2552.02,1391.68 2557.53,1410.48 2563.04,1428.26 2568.55,1446.21 2574.07,1462.87 2579.58,1478.32 2585.09,1492.76 2590.6,1506.72 2596.11,1521.83 2601.62,1534.67 2607.13,1547.51 2612.64,1562.36 2618.16,1575.07 2623.67,1586.38 2629.18,1600.05 2634.69,1611.92 2640.2,1622.1 2645.71,1634.11 2651.22,1647.84 2656.74,1660.77 2662.25,1670.78 2667.76,1681.15 2673.27,1693.16 2678.78,1701.36 2684.29,1704.95 2689.8,1711.62 2695.31,1717.18 2700.83,1718.78 2706.34,1715.09 2711.85,1709.09 2717.36,1701.4 2722.87,1692.42 2728.38,1685.91 2733.89,1676.21 2739.41,1666.78 2744.92,1659.55 2750.43,1653.94 2755.94,1645.97 2761.45,1638.03 2766.96,1630.43 2772.47,1620.3 2777.98,1615.06 2783.5,1608.88 2789.01,1602.12 2794.52,1600.27 2800.03,1597.72 2805.54,1596.02 2811.05,1589.93 2816.56,1585.58 2822.08,1580.43 2827.59,1575.69 2833.1,1567.7 2838.61,1556.18 2844.12,1540.35 2849.63,1524.57 2855.14,1508.08 2860.65,1492.67 2866.17,1477.09 2871.68,1461.17 2877.19,1445.65 2882.7,1428.87 2888.21,1408.82 2893.72,1388.44 2899.23,1368.06 2904.75,1346.2 2910.26,1323.95 2915.77,1303.08 2921.28,1280.33 2926.79,1257.26 2932.3,1233.57 2937.81,1209.72 2943.33,1187.03 2948.84,1165.02 2954.35,1145.62 2959.86,1125.58 2965.37,1103.58 2970.88,1084.21 2976.39,1062.72 2981.9,1039 2987.42,1014.23 2992.93,988.654 2998.44,964.389 3003.95,939.494 3009.46,913.161 3014.97,886.357 3020.48,859.802 3026,833.049 3031.51,805.972 3037.02,777.921 3042.53,749.297 3048.04,720.157 3053.55,690.903 3059.06,661.314 3064.57,631.206 3070.09,602.428 "/>
</svg>
