<?xml version="1.0" encoding="utf-8"?>
<svg xmlns="http://www.w3.org/2000/svg" xmlns:xlink="http://www.w3.org/1999/xlink" width="600" height="400" viewBox="0 0 2400 1600">
<defs>
  <clipPath id="clip090">
    <rect x="0" y="0" width="2400" height="1600"/>
  </clipPath>
</defs>
<path clip-path="url(#clip090)" d="
M0 1600 L2400 1600 L2400 0 L0 0  Z
  " fill="#ffffff" fill-rule="evenodd" fill-opacity="1"/>
<defs>
  <clipPath id="clip091">
    <rect x="480" y="0" width="1681" height="1600"/>
  </clipPath>
</defs>
<path clip-path="url(#clip090)" d="
M202.227 1423.18 L2352.76 1423.18 L2352.76 106.192 L202.227 106.192  Z
  " fill="#eaeaea" fill-rule="evenodd" fill-opacity="1"/>
<defs>
  <clipPath id="clip092">
    <rect x="202" y="106" width="2152" height="1318"/>
  </clipPath>
</defs>
<polyline clip-path="url(#clip092)" style="stroke:#ffffff; stroke-linecap:butt; stroke-linejoin:round; stroke-width:4; stroke-opacity:1; fill:none" points="
  263.091,1423.18 263.091,106.192 
  "/>
<polyline clip-path="url(#clip092)" style="stroke:#ffffff; stroke-linecap:butt; stroke-linejoin:round; stroke-width:4; stroke-opacity:1; fill:none" points="
  770.292,1423.18 770.292,106.192 
  "/>
<polyline clip-path="url(#clip092)" style="stroke:#ffffff; stroke-linecap:butt; stroke-linejoin:round; stroke-width:4; stroke-opacity:1; fill:none" points="
  1277.49,1423.18 1277.49,106.192 
  "/>
<polyline clip-path="url(#clip092)" style="stroke:#ffffff; stroke-linecap:butt; stroke-linejoin:round; stroke-width:4; stroke-opacity:1; fill:none" points="
  1784.69,1423.18 1784.69,106.192 
  "/>
<polyline clip-path="url(#clip092)" style="stroke:#ffffff; stroke-linecap:butt; stroke-linejoin:round; stroke-width:4; stroke-opacity:1; fill:none" points="
  2291.89,1423.18 2291.89,106.192 
  "/>
<polyline clip-path="url(#clip092)" style="stroke:#ffffff; stroke-linecap:butt; stroke-linejoin:round; stroke-width:2; stroke-opacity:1; fill:none" points="
  516.692,1423.18 516.692,106.192 
  "/>
<polyline clip-path="url(#clip092)" style="stroke:#ffffff; stroke-linecap:butt; stroke-linejoin:round; stroke-width:2; stroke-opacity:1; fill:none" points="
  1023.89,1423.18 1023.89,106.192 
  "/>
<polyline clip-path="url(#clip092)" style="stroke:#ffffff; stroke-linecap:butt; stroke-linejoin:round; stroke-width:2; stroke-opacity:1; fill:none" points="
  1531.09,1423.18 1531.09,106.192 
  "/>
<polyline clip-path="url(#clip092)" style="stroke:#ffffff; stroke-linecap:butt; stroke-linejoin:round; stroke-width:2; stroke-opacity:1; fill:none" points="
  2038.29,1423.18 2038.29,106.192 
  "/>
<polyline clip-path="url(#clip090)" style="stroke:#ffffff; stroke-linecap:butt; stroke-linejoin:round; stroke-width:4; stroke-opacity:1; fill:none" points="
  202.227,1423.18 2352.76,1423.18 
  "/>
<polyline clip-path="url(#clip090)" style="stroke:#333333; stroke-linecap:butt; stroke-linejoin:round; stroke-width:4; stroke-opacity:1; fill:none" points="
  263.091,1423.18 263.091,1442.08 
  "/>
<polyline clip-path="url(#clip090)" style="stroke:#333333; stroke-linecap:butt; stroke-linejoin:round; stroke-width:4; stroke-opacity:1; fill:none" points="
  770.292,1423.18 770.292,1442.08 
  "/>
<polyline clip-path="url(#clip090)" style="stroke:#333333; stroke-linecap:butt; stroke-linejoin:round; stroke-width:4; stroke-opacity:1; fill:none" points="
  1277.49,1423.18 1277.49,1442.08 
  "/>
<polyline clip-path="url(#clip090)" style="stroke:#333333; stroke-linecap:butt; stroke-linejoin:round; stroke-width:4; stroke-opacity:1; fill:none" points="
  1784.69,1423.18 1784.69,1442.08 
  "/>
<polyline clip-path="url(#clip090)" style="stroke:#333333; stroke-linecap:butt; stroke-linejoin:round; stroke-width:4; stroke-opacity:1; fill:none" points="
  2291.89,1423.18 2291.89,1442.08 
  "/>
<polyline clip-path="url(#clip090)" style="stroke:#333333; stroke-linecap:butt; stroke-linejoin:round; stroke-width:4; stroke-opacity:1; fill:none" points="
  516.692,1423.18 516.692,1432.63 
  "/>
<polyline clip-path="url(#clip090)" style="stroke:#333333; stroke-linecap:butt; stroke-linejoin:round; stroke-width:4; stroke-opacity:1; fill:none" points="
  1023.89,1423.18 1023.89,1432.63 
  "/>
<polyline clip-path="url(#clip090)" style="stroke:#333333; stroke-linecap:butt; stroke-linejoin:round; stroke-width:4; stroke-opacity:1; fill:none" points="
  1531.09,1423.18 1531.09,1432.63 
  "/>
<polyline clip-path="url(#clip090)" style="stroke:#333333; stroke-linecap:butt; stroke-linejoin:round; stroke-width:4; stroke-opacity:1; fill:none" points="
  2038.29,1423.18 2038.29,1432.63 
  "/>
<path clip-path="url(#clip090)" d="M240.476 1463.7 Q236.865 1463.7 235.036 1467.26 Q233.231 1470.8 233.231 1477.93 Q233.231 1485.04 235.036 1488.61 Q236.865 1492.15 240.476 1492.15 Q244.11 1492.15 245.916 1488.61 Q247.744 1485.04 247.744 1477.93 Q247.744 1470.8 245.916 1467.26 Q244.11 1463.7 240.476 1463.7 M240.476 1459.99 Q246.286 1459.99 249.342 1464.6 Q252.42 1469.18 252.42 1477.93 Q252.42 1486.66 249.342 1491.27 Q246.286 1495.85 240.476 1495.85 Q234.666 1495.85 231.587 1491.27 Q228.531 1486.66 228.531 1477.93 Q228.531 1469.18 231.587 1464.6 Q234.666 1459.99 240.476 1459.99 Z" fill="#4c4c4c" fill-rule="evenodd" fill-opacity="1" /><path clip-path="url(#clip090)" d="M260.638 1489.3 L265.522 1489.3 L265.522 1495.18 L260.638 1495.18 L260.638 1489.3 Z" fill="#4c4c4c" fill-rule="evenodd" fill-opacity="1" /><path clip-path="url(#clip090)" d="M285.707 1463.7 Q282.096 1463.7 280.267 1467.26 Q278.462 1470.8 278.462 1477.93 Q278.462 1485.04 280.267 1488.61 Q282.096 1492.15 285.707 1492.15 Q289.341 1492.15 291.147 1488.61 Q292.976 1485.04 292.976 1477.93 Q292.976 1470.8 291.147 1467.26 Q289.341 1463.7 285.707 1463.7 M285.707 1459.99 Q291.517 1459.99 294.573 1464.6 Q297.651 1469.18 297.651 1477.93 Q297.651 1486.66 294.573 1491.27 Q291.517 1495.85 285.707 1495.85 Q279.897 1495.85 276.818 1491.27 Q273.763 1486.66 273.763 1477.93 Q273.763 1469.18 276.818 1464.6 Q279.897 1459.99 285.707 1459.99 Z" fill="#4c4c4c" fill-rule="evenodd" fill-opacity="1" /><path clip-path="url(#clip090)" d="M742.028 1491.24 L758.347 1491.24 L758.347 1495.18 L736.403 1495.18 L736.403 1491.24 Q739.065 1488.49 743.648 1483.86 Q748.255 1479.21 749.435 1477.87 Q751.681 1475.34 752.56 1473.61 Q753.463 1471.85 753.463 1470.16 Q753.463 1467.4 751.519 1465.67 Q749.597 1463.93 746.495 1463.93 Q744.296 1463.93 741.843 1464.69 Q739.412 1465.46 736.634 1467.01 L736.634 1462.29 Q739.458 1461.15 741.912 1460.57 Q744.366 1459.99 746.403 1459.99 Q751.773 1459.99 754.968 1462.68 Q758.162 1465.37 758.162 1469.86 Q758.162 1471.99 757.352 1473.91 Q756.565 1475.8 754.458 1478.4 Q753.88 1479.07 750.778 1482.29 Q747.676 1485.48 742.028 1491.24 Z" fill="#4c4c4c" fill-rule="evenodd" fill-opacity="1" /><path clip-path="url(#clip090)" d="M768.162 1489.3 L773.046 1489.3 L773.046 1495.18 L768.162 1495.18 L768.162 1489.3 Z" fill="#4c4c4c" fill-rule="evenodd" fill-opacity="1" /><path clip-path="url(#clip090)" d="M783.278 1460.62 L801.634 1460.62 L801.634 1464.56 L787.56 1464.56 L787.56 1473.03 Q788.579 1472.68 789.597 1472.52 Q790.616 1472.33 791.634 1472.33 Q797.421 1472.33 800.801 1475.5 Q804.18 1478.68 804.18 1484.09 Q804.18 1489.67 800.708 1492.77 Q797.236 1495.85 790.916 1495.85 Q788.741 1495.85 786.472 1495.48 Q784.227 1495.11 781.819 1494.37 L781.819 1489.67 Q783.903 1490.8 786.125 1491.36 Q788.347 1491.92 790.824 1491.92 Q794.828 1491.92 797.166 1489.81 Q799.504 1487.7 799.504 1484.09 Q799.504 1480.48 797.166 1478.37 Q794.828 1476.27 790.824 1476.27 Q788.949 1476.27 787.074 1476.68 Q785.222 1477.1 783.278 1477.98 L783.278 1460.62 Z" fill="#4c4c4c" fill-rule="evenodd" fill-opacity="1" /><path clip-path="url(#clip090)" d="M1244.66 1460.62 L1263.01 1460.62 L1263.01 1464.56 L1248.94 1464.56 L1248.94 1473.03 Q1249.96 1472.68 1250.98 1472.52 Q1251.99 1472.33 1253.01 1472.33 Q1258.8 1472.33 1262.18 1475.5 Q1265.56 1478.68 1265.56 1484.09 Q1265.56 1489.67 1262.09 1492.77 Q1258.61 1495.85 1252.3 1495.85 Q1250.12 1495.85 1247.85 1495.48 Q1245.61 1495.11 1243.2 1494.37 L1243.2 1489.67 Q1245.28 1490.8 1247.5 1491.36 Q1249.73 1491.92 1252.2 1491.92 Q1256.21 1491.92 1258.55 1489.81 Q1260.88 1487.7 1260.88 1484.09 Q1260.88 1480.48 1258.55 1478.37 Q1256.21 1476.27 1252.2 1476.27 Q1250.33 1476.27 1248.45 1476.68 Q1246.6 1477.1 1244.66 1477.98 L1244.66 1460.62 Z" fill="#4c4c4c" fill-rule="evenodd" fill-opacity="1" /><path clip-path="url(#clip090)" d="M1274.77 1489.3 L1279.66 1489.3 L1279.66 1495.18 L1274.77 1495.18 L1274.77 1489.3 Z" fill="#4c4c4c" fill-rule="evenodd" fill-opacity="1" /><path clip-path="url(#clip090)" d="M1299.84 1463.7 Q1296.23 1463.7 1294.4 1467.26 Q1292.6 1470.8 1292.6 1477.93 Q1292.6 1485.04 1294.4 1488.61 Q1296.23 1492.15 1299.84 1492.15 Q1303.48 1492.15 1305.28 1488.61 Q1307.11 1485.04 1307.11 1477.93 Q1307.11 1470.8 1305.28 1467.26 Q1303.48 1463.7 1299.84 1463.7 M1299.84 1459.99 Q1305.65 1459.99 1308.71 1464.6 Q1311.79 1469.18 1311.79 1477.93 Q1311.79 1486.66 1308.71 1491.27 Q1305.65 1495.85 1299.84 1495.85 Q1294.03 1495.85 1290.95 1491.27 Q1287.9 1486.66 1287.9 1477.93 Q1287.9 1469.18 1290.95 1464.6 Q1294.03 1459.99 1299.84 1459.99 Z" fill="#4c4c4c" fill-rule="evenodd" fill-opacity="1" /><path clip-path="url(#clip090)" d="M1751.01 1460.62 L1773.23 1460.62 L1773.23 1462.61 L1760.69 1495.18 L1755.8 1495.18 L1767.61 1464.56 L1751.01 1464.56 L1751.01 1460.62 Z" fill="#4c4c4c" fill-rule="evenodd" fill-opacity="1" /><path clip-path="url(#clip090)" d="M1782.35 1489.3 L1787.24 1489.3 L1787.24 1495.18 L1782.35 1495.18 L1782.35 1489.3 Z" fill="#4c4c4c" fill-rule="evenodd" fill-opacity="1" /><path clip-path="url(#clip090)" d="M1797.47 1460.62 L1815.83 1460.62 L1815.83 1464.56 L1801.75 1464.56 L1801.75 1473.03 Q1802.77 1472.68 1803.79 1472.52 Q1804.81 1472.33 1805.83 1472.33 Q1811.61 1472.33 1814.99 1475.5 Q1818.37 1478.68 1818.37 1484.09 Q1818.37 1489.67 1814.9 1492.77 Q1811.43 1495.85 1805.11 1495.85 Q1802.93 1495.85 1800.66 1495.48 Q1798.42 1495.11 1796.01 1494.37 L1796.01 1489.67 Q1798.09 1490.8 1800.32 1491.36 Q1802.54 1491.92 1805.02 1491.92 Q1809.02 1491.92 1811.36 1489.81 Q1813.7 1487.7 1813.7 1484.09 Q1813.7 1480.48 1811.36 1478.37 Q1809.02 1476.27 1805.02 1476.27 Q1803.14 1476.27 1801.27 1476.68 Q1799.41 1477.1 1797.47 1477.98 L1797.47 1460.62 Z" fill="#4c4c4c" fill-rule="evenodd" fill-opacity="1" /><path clip-path="url(#clip090)" d="M2243.96 1491.24 L2251.6 1491.24 L2251.6 1464.88 L2243.29 1466.55 L2243.29 1462.29 L2251.56 1460.62 L2256.23 1460.62 L2256.23 1491.24 L2263.87 1491.24 L2263.87 1495.18 L2243.96 1495.18 L2243.96 1491.24 Z" fill="#4c4c4c" fill-rule="evenodd" fill-opacity="1" /><path clip-path="url(#clip090)" d="M2283.32 1463.7 Q2279.7 1463.7 2277.88 1467.26 Q2276.07 1470.8 2276.07 1477.93 Q2276.07 1485.04 2277.88 1488.61 Q2279.7 1492.15 2283.32 1492.15 Q2286.95 1492.15 2288.76 1488.61 Q2290.58 1485.04 2290.58 1477.93 Q2290.58 1470.8 2288.76 1467.26 Q2286.95 1463.7 2283.32 1463.7 M2283.32 1459.99 Q2289.13 1459.99 2292.18 1464.6 Q2295.26 1469.18 2295.26 1477.93 Q2295.26 1486.66 2292.18 1491.27 Q2289.13 1495.85 2283.32 1495.85 Q2277.51 1495.85 2274.43 1491.27 Q2271.37 1486.66 2271.37 1477.93 Q2271.37 1469.18 2274.43 1464.6 Q2277.51 1459.99 2283.32 1459.99 Z" fill="#4c4c4c" fill-rule="evenodd" fill-opacity="1" /><path clip-path="url(#clip090)" d="M2303.48 1489.3 L2308.36 1489.3 L2308.36 1495.18 L2303.48 1495.18 L2303.48 1489.3 Z" fill="#4c4c4c" fill-rule="evenodd" fill-opacity="1" /><path clip-path="url(#clip090)" d="M2328.55 1463.7 Q2324.94 1463.7 2323.11 1467.26 Q2321.3 1470.8 2321.3 1477.93 Q2321.3 1485.04 2323.11 1488.61 Q2324.94 1492.15 2328.55 1492.15 Q2332.18 1492.15 2333.99 1488.61 Q2335.82 1485.04 2335.82 1477.93 Q2335.82 1470.8 2333.99 1467.26 Q2332.18 1463.7 2328.55 1463.7 M2328.55 1459.99 Q2334.36 1459.99 2337.41 1464.6 Q2340.49 1469.18 2340.49 1477.93 Q2340.49 1486.66 2337.41 1491.27 Q2334.36 1495.85 2328.55 1495.85 Q2322.74 1495.85 2319.66 1491.27 Q2316.6 1486.66 2316.6 1477.93 Q2316.6 1469.18 2319.66 1464.6 Q2322.74 1459.99 2328.55 1459.99 Z" fill="#4c4c4c" fill-rule="evenodd" fill-opacity="1" /><path clip-path="url(#clip090)" d="M1185.13 1522.27 L1185.13 1532.4 L1197.19 1532.4 L1197.19 1536.95 L1185.13 1536.95 L1185.13 1556.3 Q1185.13 1560.66 1186.3 1561.9 Q1187.51 1563.14 1191.17 1563.14 L1197.19 1563.14 L1197.19 1568.04 L1191.17 1568.04 Q1184.39 1568.04 1181.82 1565.53 Q1179.24 1562.98 1179.24 1556.3 L1179.24 1536.95 L1174.94 1536.95 L1174.94 1532.4 L1179.24 1532.4 L1179.24 1522.27 L1185.13 1522.27 Z" fill="#000000" fill-rule="evenodd" fill-opacity="1" /><path clip-path="url(#clip090)" d="M1235.38 1548.76 L1235.38 1551.62 L1208.46 1551.62 Q1208.84 1557.67 1212.08 1560.85 Q1215.36 1564 1221.19 1564 Q1224.56 1564 1227.71 1563.17 Q1230.89 1562.35 1234.01 1560.69 L1234.01 1566.23 Q1230.86 1567.57 1227.55 1568.27 Q1224.24 1568.97 1220.84 1568.97 Q1212.31 1568.97 1207.31 1564 Q1202.34 1559.04 1202.34 1550.57 Q1202.34 1541.82 1207.06 1536.69 Q1211.8 1531.54 1219.82 1531.54 Q1227.01 1531.54 1231.18 1536.18 Q1235.38 1540.8 1235.38 1548.76 M1229.53 1547.04 Q1229.46 1542.23 1226.82 1539.37 Q1224.21 1536.5 1219.88 1536.5 Q1214.98 1536.5 1212.02 1539.27 Q1209.09 1542.04 1208.65 1547.07 L1229.53 1547.04 Z" fill="#000000" fill-rule="evenodd" fill-opacity="1" /><path clip-path="url(#clip090)" d="M1272.75 1539.24 Q1274.95 1535.29 1278 1533.41 Q1281.06 1531.54 1285.19 1531.54 Q1290.76 1531.54 1293.79 1535.45 Q1296.81 1539.33 1296.81 1546.53 L1296.81 1568.04 L1290.92 1568.04 L1290.92 1546.72 Q1290.92 1541.59 1289.11 1539.11 Q1287.29 1536.63 1283.57 1536.63 Q1279.02 1536.63 1276.38 1539.65 Q1273.74 1542.68 1273.74 1547.9 L1273.74 1568.04 L1267.85 1568.04 L1267.85 1546.72 Q1267.85 1541.56 1266.03 1539.11 Q1264.22 1536.63 1260.43 1536.63 Q1255.94 1536.63 1253.3 1539.68 Q1250.66 1542.71 1250.66 1547.9 L1250.66 1568.04 L1244.77 1568.04 L1244.77 1532.4 L1250.66 1532.4 L1250.66 1537.93 Q1252.67 1534.66 1255.47 1533.1 Q1258.27 1531.54 1262.12 1531.54 Q1266 1531.54 1268.71 1533.51 Q1271.44 1535.48 1272.75 1539.24 Z" fill="#000000" fill-rule="evenodd" fill-opacity="1" /><path clip-path="url(#clip090)" d="M1314.16 1562.7 L1314.16 1581.6 L1308.27 1581.6 L1308.27 1532.4 L1314.16 1532.4 L1314.16 1537.81 Q1316 1534.62 1318.81 1533.1 Q1321.64 1531.54 1325.55 1531.54 Q1332.05 1531.54 1336.09 1536.69 Q1340.16 1541.85 1340.16 1550.25 Q1340.16 1558.65 1336.09 1563.81 Q1332.05 1568.97 1325.55 1568.97 Q1321.64 1568.97 1318.81 1567.44 Q1316 1565.88 1314.16 1562.7 M1334.08 1550.25 Q1334.08 1543.79 1331.41 1540.13 Q1328.77 1536.44 1324.12 1536.44 Q1319.47 1536.44 1316.8 1540.13 Q1314.16 1543.79 1314.16 1550.25 Q1314.16 1556.71 1316.8 1560.4 Q1319.47 1564.07 1324.12 1564.07 Q1328.77 1564.07 1331.41 1560.4 Q1334.08 1556.71 1334.08 1550.25 Z" fill="#000000" fill-rule="evenodd" fill-opacity="1" /><path clip-path="url(#clip090)" d="M1363.68 1536.5 Q1358.97 1536.5 1356.24 1540.19 Q1353.5 1543.85 1353.5 1550.25 Q1353.5 1556.65 1356.2 1560.34 Q1358.94 1564 1363.68 1564 Q1368.36 1564 1371.1 1560.31 Q1373.84 1556.62 1373.84 1550.25 Q1373.84 1543.92 1371.1 1540.23 Q1368.36 1536.5 1363.68 1536.5 M1363.68 1531.54 Q1371.32 1531.54 1375.68 1536.5 Q1380.04 1541.47 1380.04 1550.25 Q1380.04 1559 1375.68 1564 Q1371.32 1568.97 1363.68 1568.97 Q1356.01 1568.97 1351.65 1564 Q1347.32 1559 1347.32 1550.25 Q1347.32 1541.47 1351.65 1536.5 Q1356.01 1531.54 1363.68 1531.54 Z" fill="#000000" fill-rule="evenodd" fill-opacity="1" /><polyline clip-path="url(#clip092)" style="stroke:#ffffff; stroke-linecap:butt; stroke-linejoin:round; stroke-width:4; stroke-opacity:1; fill:none" points="
  202.227,1385.91 2352.76,1385.91 
  "/>
<polyline clip-path="url(#clip092)" style="stroke:#ffffff; stroke-linecap:butt; stroke-linejoin:round; stroke-width:4; stroke-opacity:1; fill:none" points="
  202.227,971.76 2352.76,971.76 
  "/>
<polyline clip-path="url(#clip092)" style="stroke:#ffffff; stroke-linecap:butt; stroke-linejoin:round; stroke-width:4; stroke-opacity:1; fill:none" points="
  202.227,557.612 2352.76,557.612 
  "/>
<polyline clip-path="url(#clip092)" style="stroke:#ffffff; stroke-linecap:butt; stroke-linejoin:round; stroke-width:4; stroke-opacity:1; fill:none" points="
  202.227,143.465 2352.76,143.465 
  "/>
<polyline clip-path="url(#clip092)" style="stroke:#ffffff; stroke-linecap:butt; stroke-linejoin:round; stroke-width:2; stroke-opacity:1; fill:none" points="
  202.227,1178.83 2352.76,1178.83 
  "/>
<polyline clip-path="url(#clip092)" style="stroke:#ffffff; stroke-linecap:butt; stroke-linejoin:round; stroke-width:2; stroke-opacity:1; fill:none" points="
  202.227,764.686 2352.76,764.686 
  "/>
<polyline clip-path="url(#clip092)" style="stroke:#ffffff; stroke-linecap:butt; stroke-linejoin:round; stroke-width:2; stroke-opacity:1; fill:none" points="
  202.227,350.539 2352.76,350.539 
  "/>
<polyline clip-path="url(#clip090)" style="stroke:#ffffff; stroke-linecap:butt; stroke-linejoin:round; stroke-width:4; stroke-opacity:1; fill:none" points="
  202.227,1423.18 202.227,106.192 
  "/>
<polyline clip-path="url(#clip090)" style="stroke:#333333; stroke-linecap:butt; stroke-linejoin:round; stroke-width:4; stroke-opacity:1; fill:none" points="
  202.227,1385.91 183.33,1385.91 
  "/>
<polyline clip-path="url(#clip090)" style="stroke:#333333; stroke-linecap:butt; stroke-linejoin:round; stroke-width:4; stroke-opacity:1; fill:none" points="
  202.227,971.76 183.33,971.76 
  "/>
<polyline clip-path="url(#clip090)" style="stroke:#333333; stroke-linecap:butt; stroke-linejoin:round; stroke-width:4; stroke-opacity:1; fill:none" points="
  202.227,557.612 183.33,557.612 
  "/>
<polyline clip-path="url(#clip090)" style="stroke:#333333; stroke-linecap:butt; stroke-linejoin:round; stroke-width:4; stroke-opacity:1; fill:none" points="
  202.227,143.465 183.33,143.465 
  "/>
<polyline clip-path="url(#clip090)" style="stroke:#333333; stroke-linecap:butt; stroke-linejoin:round; stroke-width:4; stroke-opacity:1; fill:none" points="
  202.227,1178.83 192.779,1178.83 
  "/>
<polyline clip-path="url(#clip090)" style="stroke:#333333; stroke-linecap:butt; stroke-linejoin:round; stroke-width:4; stroke-opacity:1; fill:none" points="
  202.227,764.686 192.779,764.686 
  "/>
<polyline clip-path="url(#clip090)" style="stroke:#333333; stroke-linecap:butt; stroke-linejoin:round; stroke-width:4; stroke-opacity:1; fill:none" points="
  202.227,350.539 192.779,350.539 
  "/>
<path clip-path="url(#clip090)" d="M136.283 1371.71 Q132.672 1371.71 130.843 1375.27 Q129.038 1378.81 129.038 1385.94 Q129.038 1393.05 130.843 1396.61 Q132.672 1400.15 136.283 1400.15 Q139.917 1400.15 141.723 1396.61 Q143.552 1393.05 143.552 1385.94 Q143.552 1378.81 141.723 1375.27 Q139.917 1371.71 136.283 1371.71 M136.283 1368 Q142.093 1368 145.149 1372.61 Q148.227 1377.19 148.227 1385.94 Q148.227 1394.67 145.149 1399.27 Q142.093 1403.86 136.283 1403.86 Q130.473 1403.86 127.394 1399.27 Q124.339 1394.67 124.339 1385.94 Q124.339 1377.19 127.394 1372.61 Q130.473 1368 136.283 1368 Z" fill="#4c4c4c" fill-rule="evenodd" fill-opacity="1" /><path clip-path="url(#clip090)" d="M127.325 954.48 L145.681 954.48 L145.681 958.415 L131.607 958.415 L131.607 966.887 Q132.626 966.54 133.644 966.378 Q134.663 966.192 135.681 966.192 Q141.468 966.192 144.848 969.364 Q148.227 972.535 148.227 977.952 Q148.227 983.53 144.755 986.632 Q141.283 989.711 134.964 989.711 Q132.788 989.711 130.519 989.34 Q128.274 988.97 125.866 988.229 L125.866 983.53 Q127.95 984.665 130.172 985.22 Q132.394 985.776 134.871 985.776 Q138.876 985.776 141.214 983.669 Q143.552 981.563 143.552 977.952 Q143.552 974.341 141.214 972.234 Q138.876 970.128 134.871 970.128 Q132.996 970.128 131.121 970.544 Q129.269 970.961 127.325 971.841 L127.325 954.48 Z" fill="#4c4c4c" fill-rule="evenodd" fill-opacity="1" /><path clip-path="url(#clip090)" d="M96.9315 570.957 L104.57 570.957 L104.57 544.592 L96.2602 546.258 L96.2602 541.999 L104.524 540.332 L109.2 540.332 L109.2 570.957 L116.839 570.957 L116.839 574.892 L96.9315 574.892 L96.9315 570.957 Z" fill="#4c4c4c" fill-rule="evenodd" fill-opacity="1" /><path clip-path="url(#clip090)" d="M136.283 543.411 Q132.672 543.411 130.843 546.976 Q129.038 550.518 129.038 557.647 Q129.038 564.754 130.843 568.318 Q132.672 571.86 136.283 571.86 Q139.917 571.86 141.723 568.318 Q143.552 564.754 143.552 557.647 Q143.552 550.518 141.723 546.976 Q139.917 543.411 136.283 543.411 M136.283 539.707 Q142.093 539.707 145.149 544.314 Q148.227 548.897 148.227 557.647 Q148.227 566.374 145.149 570.98 Q142.093 575.564 136.283 575.564 Q130.473 575.564 127.394 570.98 Q124.339 566.374 124.339 557.647 Q124.339 548.897 127.394 544.314 Q130.473 539.707 136.283 539.707 Z" fill="#4c4c4c" fill-rule="evenodd" fill-opacity="1" /><path clip-path="url(#clip090)" d="M97.9268 156.81 L105.566 156.81 L105.566 130.445 L97.2555 132.111 L97.2555 127.852 L105.519 126.185 L110.195 126.185 L110.195 156.81 L117.834 156.81 L117.834 160.745 L97.9268 160.745 L97.9268 156.81 Z" fill="#4c4c4c" fill-rule="evenodd" fill-opacity="1" /><path clip-path="url(#clip090)" d="M127.325 126.185 L145.681 126.185 L145.681 130.121 L131.607 130.121 L131.607 138.593 Q132.626 138.245 133.644 138.083 Q134.663 137.898 135.681 137.898 Q141.468 137.898 144.848 141.07 Q148.227 144.241 148.227 149.657 Q148.227 155.236 144.755 158.338 Q141.283 161.417 134.964 161.417 Q132.788 161.417 130.519 161.046 Q128.274 160.676 125.866 159.935 L125.866 155.236 Q127.95 156.37 130.172 156.926 Q132.394 157.481 134.871 157.481 Q138.876 157.481 141.214 155.375 Q143.552 153.269 143.552 149.657 Q143.552 146.046 141.214 143.94 Q138.876 141.833 134.871 141.833 Q132.996 141.833 131.121 142.25 Q129.269 142.667 127.325 143.546 L127.325 126.185 Z" fill="#4c4c4c" fill-rule="evenodd" fill-opacity="1" /><path clip-path="url(#clip090)" d="M42.4881 806.922 L64.0042 806.922 L64.0042 812.779 L42.679 812.779 Q37.6183 812.779 35.1038 814.752 Q32.5894 816.726 32.5894 820.672 Q32.5894 825.415 35.6131 828.152 Q38.6368 830.889 43.8567 830.889 L64.0042 830.889 L64.0042 836.778 L28.3562 836.778 L28.3562 830.889 L33.8944 830.889 Q30.6797 828.789 29.0883 825.956 Q27.4968 823.091 27.4968 819.367 Q27.4968 813.224 31.3163 810.073 Q35.1038 806.922 42.4881 806.922 Z" fill="#000000" fill-rule="evenodd" fill-opacity="1" /><path clip-path="url(#clip090)" d="M11.869 787.889 L11.869 781.555 L23.8365 791.931 L23.8365 796.801 L11.869 787.889 M28.3562 795.241 L28.3562 789.385 L64.0042 789.385 L64.0042 795.241 L28.3562 795.241 M27.4968 792.313 L27.4968 792.313 Z" fill="#000000" fill-rule="evenodd" fill-opacity="1" /><path clip-path="url(#clip090)" d="M28.3562 781.332 L28.3562 775.126 L58.275 763.986 L28.3562 752.846 L28.3562 746.639 L64.0042 760.007 L64.0042 767.964 L28.3562 781.332 Z" fill="#000000" fill-rule="evenodd" fill-opacity="1" /><path clip-path="url(#clip090)" d="M44.7161 708.063 L47.5806 708.063 L47.5806 734.99 Q53.6281 734.608 56.8109 731.362 Q59.9619 728.083 59.9619 722.259 Q59.9619 718.885 59.1344 715.734 Q58.3069 712.551 56.6518 709.432 L62.1899 709.432 Q63.5267 712.583 64.227 715.893 Q64.9272 719.203 64.9272 722.609 Q64.9272 731.139 59.9619 736.136 Q54.9967 741.101 46.5303 741.101 Q37.7774 741.101 32.6531 736.39 Q27.4968 731.648 27.4968 723.627 Q27.4968 716.434 32.1438 712.264 Q36.7589 708.063 44.7161 708.063 M42.9973 713.919 Q38.1912 713.983 35.3266 716.625 Q32.4621 719.235 32.4621 723.564 Q32.4621 728.465 35.2312 731.425 Q38.0002 734.353 43.0292 734.799 L42.9973 713.919 Z" fill="#000000" fill-rule="evenodd" fill-opacity="1" /><path clip-path="url(#clip090)" d="M14.479 698.451 L14.479 692.594 L64.0042 692.594 L64.0042 698.451 L14.479 698.451 Z" fill="#000000" fill-rule="evenodd" fill-opacity="1" /><path clip-path="url(#clip090)" d="M208.4 11.9675 L208.4 18.1307 Q205.449 15.3819 202.092 14.0219 Q198.765 12.662 195.003 12.662 Q187.596 12.662 183.661 17.2048 Q179.726 21.7186 179.726 30.2834 Q179.726 38.8192 183.661 43.362 Q187.596 47.8759 195.003 47.8759 Q198.765 47.8759 202.092 46.516 Q205.449 45.156 208.4 42.4072 L208.4 48.5125 Q205.333 50.5958 201.89 51.6375 Q198.475 52.6791 194.656 52.6791 Q184.847 52.6791 179.205 46.6896 Q173.562 40.6711 173.562 30.2834 Q173.562 19.8668 179.205 13.8772 Q184.847 7.85875 194.656 7.85875 Q198.533 7.85875 201.948 8.90042 Q205.391 9.91314 208.4 11.9675 Z" fill="#000000" fill-rule="evenodd" fill-opacity="1" /><path clip-path="url(#clip090)" d="M231.924 35.5496 Q225.472 35.5496 222.983 37.0253 Q220.495 38.501 220.495 42.06 Q220.495 44.8956 222.347 46.5738 Q224.228 48.2231 227.439 48.2231 Q231.867 48.2231 234.529 45.0981 Q237.219 41.9442 237.219 36.7359 L237.219 35.5496 L231.924 35.5496 M242.544 33.3505 L242.544 51.84 L237.219 51.84 L237.219 46.921 Q235.397 49.8724 232.677 51.2902 Q229.957 52.6791 226.022 52.6791 Q221.045 52.6791 218.093 49.9014 Q215.171 47.0947 215.171 42.4072 Q215.171 36.9385 218.817 34.1607 Q222.492 31.3829 229.754 31.3829 L237.219 31.3829 L237.219 30.8621 Q237.219 27.1874 234.789 25.1908 Q232.387 23.1654 228.018 23.1654 Q225.24 23.1654 222.607 23.8309 Q219.974 24.4964 217.544 25.8274 L217.544 20.9085 Q220.466 19.78 223.215 19.2302 Q225.964 18.6515 228.568 18.6515 Q235.599 18.6515 239.071 22.2973 Q242.544 25.9431 242.544 33.3505 Z" fill="#000000" fill-rule="evenodd" fill-opacity="1" /><path clip-path="url(#clip090)" d="M278.741 25.6538 Q280.738 22.0659 283.516 20.3587 Q286.293 18.6515 290.055 18.6515 Q295.118 18.6515 297.867 22.2105 Q300.616 25.7406 300.616 32.2799 L300.616 51.84 L295.263 51.84 L295.263 32.4535 Q295.263 27.795 293.614 25.5381 Q291.965 23.2811 288.579 23.2811 Q284.441 23.2811 282.04 26.03 Q279.638 28.7788 279.638 33.5241 L279.638 51.84 L274.285 51.84 L274.285 32.4535 Q274.285 27.7661 272.636 25.5381 Q270.987 23.2811 267.543 23.2811 Q263.464 23.2811 261.062 26.0589 Q258.66 28.8077 258.66 33.5241 L258.66 51.84 L253.307 51.84 L253.307 19.4328 L258.66 19.4328 L258.66 24.4675 Q260.483 21.4872 263.03 20.0693 Q265.576 18.6515 269.077 18.6515 Q272.607 18.6515 275.067 20.4455 Q277.555 22.2395 278.741 25.6538 Z" fill="#000000" fill-rule="evenodd" fill-opacity="1" /><path clip-path="url(#clip090)" d="M311.235 19.4328 L316.559 19.4328 L316.559 51.84 L311.235 51.84 L311.235 19.4328 M311.235 6.81709 L316.559 6.81709 L316.559 13.559 L311.235 13.559 L311.235 6.81709 Z" fill="#000000" fill-rule="evenodd" fill-opacity="1" /><path clip-path="url(#clip090)" d="M354.638 32.2799 L354.638 51.84 L349.314 51.84 L349.314 32.4535 Q349.314 27.8529 347.52 25.567 Q345.726 23.2811 342.138 23.2811 Q337.827 23.2811 335.338 26.03 Q332.85 28.7788 332.85 33.5241 L332.85 51.84 L327.497 51.84 L327.497 19.4328 L332.85 19.4328 L332.85 24.4675 Q334.759 21.545 337.335 20.0983 Q339.939 18.6515 343.324 18.6515 Q348.909 18.6515 351.773 22.1237 Q354.638 25.567 354.638 32.2799 Z" fill="#000000" fill-rule="evenodd" fill-opacity="1" /><path clip-path="url(#clip090)" d="M392.196 32.2799 L392.196 51.84 L386.871 51.84 L386.871 32.4535 Q386.871 27.8529 385.077 25.567 Q383.284 23.2811 379.696 23.2811 Q375.384 23.2811 372.896 26.03 Q370.407 28.7788 370.407 33.5241 L370.407 51.84 L365.054 51.84 L365.054 6.81709 L370.407 6.81709 L370.407 24.4675 Q372.317 21.545 374.892 20.0983 Q377.497 18.6515 380.882 18.6515 Q386.466 18.6515 389.331 22.1237 Q392.196 25.567 392.196 32.2799 Z" fill="#000000" fill-rule="evenodd" fill-opacity="1" /><path clip-path="url(#clip090)" d="M415.372 23.1654 Q411.09 23.1654 408.602 26.5218 Q406.113 29.8494 406.113 35.6653 Q406.113 41.4813 408.573 44.8377 Q411.061 48.1653 415.372 48.1653 Q419.626 48.1653 422.114 44.8088 Q424.603 41.4523 424.603 35.6653 Q424.603 29.9072 422.114 26.5508 Q419.626 23.1654 415.372 23.1654 M415.372 18.6515 Q422.317 18.6515 426.281 23.1654 Q430.245 27.6792 430.245 35.6653 Q430.245 43.6225 426.281 48.1653 Q422.317 52.6791 415.372 52.6791 Q408.399 52.6791 404.435 48.1653 Q400.5 43.6225 400.5 35.6653 Q400.5 27.6792 404.435 23.1654 Q408.399 18.6515 415.372 18.6515 Z" fill="#000000" fill-rule="evenodd" fill-opacity="1" /><path clip-path="url(#clip090)" d="M459.73 20.3876 L459.73 25.4223 Q457.473 24.2649 455.042 23.6862 Q452.612 23.1075 450.008 23.1075 Q446.044 23.1075 444.047 24.3228 Q442.079 25.5381 442.079 27.9686 Q442.079 29.8204 443.497 30.891 Q444.915 31.9327 449.198 32.8876 L451.02 33.2926 Q456.692 34.5079 459.064 36.7359 Q461.466 38.935 461.466 42.8991 Q461.466 47.4129 457.878 50.046 Q454.319 52.6791 448.069 52.6791 Q445.465 52.6791 442.629 52.1583 Q439.823 51.6664 436.698 50.6537 L436.698 45.156 Q439.649 46.6896 442.514 47.4708 Q445.378 48.2231 448.185 48.2231 Q451.946 48.2231 453.972 46.95 Q455.997 45.6479 455.997 43.3042 Q455.997 41.134 454.522 39.9766 Q453.075 38.8192 448.127 37.7486 L446.275 37.3146 Q441.327 36.273 439.128 34.1318 Q436.929 31.9616 436.929 28.2001 Q436.929 23.6283 440.17 21.1399 Q443.411 18.6515 449.371 18.6515 Q452.322 18.6515 454.927 19.0855 Q457.531 19.5196 459.73 20.3876 Z" fill="#000000" fill-rule="evenodd" fill-opacity="1" /><path clip-path="url(#clip090)" d="M503.509 35.5496 Q497.056 35.5496 494.568 37.0253 Q492.079 38.501 492.079 42.06 Q492.079 44.8956 493.931 46.5738 Q495.812 48.2231 499.024 48.2231 Q503.451 48.2231 506.113 45.0981 Q508.804 41.9442 508.804 36.7359 L508.804 35.5496 L503.509 35.5496 M514.128 33.3505 L514.128 51.84 L508.804 51.84 L508.804 46.921 Q506.981 49.8724 504.261 51.2902 Q501.541 52.6791 497.606 52.6791 Q492.629 52.6791 489.678 49.9014 Q486.755 47.0947 486.755 42.4072 Q486.755 36.9385 490.401 34.1607 Q494.076 31.3829 501.338 31.3829 L508.804 31.3829 L508.804 30.8621 Q508.804 27.1874 506.373 25.1908 Q503.972 23.1654 499.602 23.1654 Q496.825 23.1654 494.191 23.8309 Q491.558 24.4964 489.128 25.8274 L489.128 20.9085 Q492.05 19.78 494.799 19.2302 Q497.548 18.6515 500.152 18.6515 Q507.183 18.6515 510.656 22.2973 Q514.128 25.9431 514.128 33.3505 Z" fill="#000000" fill-rule="evenodd" fill-opacity="1" /><path clip-path="url(#clip090)" d="M550.325 25.6538 Q552.322 22.0659 555.1 20.3587 Q557.877 18.6515 561.639 18.6515 Q566.703 18.6515 569.452 22.2105 Q572.2 25.7406 572.2 32.2799 L572.2 51.84 L566.847 51.84 L566.847 32.4535 Q566.847 27.795 565.198 25.5381 Q563.549 23.2811 560.163 23.2811 Q556.026 23.2811 553.624 26.03 Q551.222 28.7788 551.222 33.5241 L551.222 51.84 L545.869 51.84 L545.869 32.4535 Q545.869 27.7661 544.22 25.5381 Q542.571 23.2811 539.128 23.2811 Q535.048 23.2811 532.646 26.0589 Q530.245 28.8077 530.245 33.5241 L530.245 51.84 L524.892 51.84 L524.892 19.4328 L530.245 19.4328 L530.245 24.4675 Q532.067 21.4872 534.614 20.0693 Q537.16 18.6515 540.661 18.6515 Q544.191 18.6515 546.651 20.4455 Q549.139 22.2395 550.325 25.6538 Z" fill="#000000" fill-rule="evenodd" fill-opacity="1" /><path clip-path="url(#clip090)" d="M595.377 23.1654 Q591.095 23.1654 588.606 26.5218 Q586.118 29.8494 586.118 35.6653 Q586.118 41.4813 588.578 44.8377 Q591.066 48.1653 595.377 48.1653 Q599.631 48.1653 602.119 44.8088 Q604.608 41.4523 604.608 35.6653 Q604.608 29.9072 602.119 26.5508 Q599.631 23.1654 595.377 23.1654 M595.377 18.6515 Q602.322 18.6515 606.286 23.1654 Q610.25 27.6792 610.25 35.6653 Q610.25 43.6225 606.286 48.1653 Q602.322 52.6791 595.377 52.6791 Q588.404 52.6791 584.44 48.1653 Q580.505 43.6225 580.505 35.6653 Q580.505 27.6792 584.44 23.1654 Q588.404 18.6515 595.377 18.6515 Z" fill="#000000" fill-rule="evenodd" fill-opacity="1" /><path clip-path="url(#clip090)" d="M639.735 20.3876 L639.735 25.4223 Q637.478 24.2649 635.047 23.6862 Q632.617 23.1075 630.013 23.1075 Q626.048 23.1075 624.052 24.3228 Q622.084 25.5381 622.084 27.9686 Q622.084 29.8204 623.502 30.891 Q624.92 31.9327 629.202 32.8876 L631.025 33.2926 Q636.697 34.5079 639.069 36.7359 Q641.471 38.935 641.471 42.8991 Q641.471 47.4129 637.883 50.046 Q634.324 52.6791 628.074 52.6791 Q625.47 52.6791 622.634 52.1583 Q619.827 51.6664 616.702 50.6537 L616.702 45.156 Q619.654 46.6896 622.518 47.4708 Q625.383 48.2231 628.19 48.2231 Q631.951 48.2231 633.977 46.95 Q636.002 45.6479 636.002 43.3042 Q636.002 41.134 634.526 39.9766 Q633.08 38.8192 628.132 37.7486 L626.28 37.3146 Q621.332 36.273 619.133 34.1318 Q616.934 31.9616 616.934 28.2001 Q616.934 23.6283 620.175 21.1399 Q623.415 18.6515 629.376 18.6515 Q632.327 18.6515 634.931 19.0855 Q637.536 19.5196 639.735 20.3876 Z" fill="#000000" fill-rule="evenodd" fill-opacity="1" /><path clip-path="url(#clip090)" d="M655.215 10.2314 L655.215 19.4328 L666.181 19.4328 L666.181 23.5705 L655.215 23.5705 L655.215 41.163 Q655.215 45.1271 656.286 46.2555 Q657.385 47.384 660.713 47.384 L666.181 47.384 L666.181 51.84 L660.713 51.84 Q654.549 51.84 652.206 49.5541 Q649.862 47.2393 649.862 41.163 L649.862 23.5705 L645.956 23.5705 L645.956 19.4328 L649.862 19.4328 L649.862 10.2314 L655.215 10.2314 Z" fill="#000000" fill-rule="evenodd" fill-opacity="1" /><path clip-path="url(#clip090)" d="M691.962 24.4096 Q691.065 23.8888 689.995 23.6573 Q688.953 23.3969 687.68 23.3969 Q683.166 23.3969 680.736 26.3482 Q678.334 29.2707 678.334 34.7683 L678.334 51.84 L672.981 51.84 L672.981 19.4328 L678.334 19.4328 L678.334 24.4675 Q680.012 21.5161 682.703 20.0983 Q685.394 18.6515 689.243 18.6515 Q689.792 18.6515 690.458 18.7383 Q691.123 18.7962 691.933 18.9409 L691.962 24.4096 Z" fill="#000000" fill-rule="evenodd" fill-opacity="1" /><path clip-path="url(#clip090)" d="M712.275 35.5496 Q705.822 35.5496 703.334 37.0253 Q700.845 38.501 700.845 42.06 Q700.845 44.8956 702.697 46.5738 Q704.578 48.2231 707.79 48.2231 Q712.217 48.2231 714.879 45.0981 Q717.57 41.9442 717.57 36.7359 L717.57 35.5496 L712.275 35.5496 M722.894 33.3505 L722.894 51.84 L717.57 51.84 L717.57 46.921 Q715.747 49.8724 713.027 51.2902 Q710.307 52.6791 706.372 52.6791 Q701.395 52.6791 698.444 49.9014 Q695.521 47.0947 695.521 42.4072 Q695.521 36.9385 699.167 34.1607 Q702.842 31.3829 710.105 31.3829 L717.57 31.3829 L717.57 30.8621 Q717.57 27.1874 715.139 25.1908 Q712.738 23.1654 708.369 23.1654 Q705.591 23.1654 702.958 23.8309 Q700.325 24.4964 697.894 25.8274 L697.894 20.9085 Q700.817 19.78 703.565 19.2302 Q706.314 18.6515 708.918 18.6515 Q715.95 18.6515 719.422 22.2973 Q722.894 25.9431 722.894 33.3505 Z" fill="#000000" fill-rule="evenodd" fill-opacity="1" /><path clip-path="url(#clip090)" d="M733.86 19.4328 L739.184 19.4328 L739.184 51.84 L733.86 51.84 L733.86 19.4328 M733.86 6.81709 L739.184 6.81709 L739.184 13.559 L733.86 13.559 L733.86 6.81709 Z" fill="#000000" fill-rule="evenodd" fill-opacity="1" /><path clip-path="url(#clip090)" d="M770.984 20.3876 L770.984 25.4223 Q768.727 24.2649 766.297 23.6862 Q763.866 23.1075 761.262 23.1075 Q757.298 23.1075 755.301 24.3228 Q753.334 25.5381 753.334 27.9686 Q753.334 29.8204 754.751 30.891 Q756.169 31.9327 760.452 32.8876 L762.275 33.2926 Q767.946 34.5079 770.318 36.7359 Q772.72 38.935 772.72 42.8991 Q772.72 47.4129 769.132 50.046 Q765.573 52.6791 759.323 52.6791 Q756.719 52.6791 753.883 52.1583 Q751.077 51.6664 747.952 50.6537 L747.952 45.156 Q750.903 46.6896 753.768 47.4708 Q756.632 48.2231 759.439 48.2231 Q763.2 48.2231 765.226 46.95 Q767.251 45.6479 767.251 43.3042 Q767.251 41.134 765.776 39.9766 Q764.329 38.8192 759.381 37.7486 L757.529 37.3146 Q752.581 36.273 750.382 34.1318 Q748.183 31.9616 748.183 28.2001 Q748.183 23.6283 751.424 21.1399 Q754.665 18.6515 760.625 18.6515 Q763.577 18.6515 766.181 19.0855 Q768.785 19.5196 770.984 20.3876 Z" fill="#000000" fill-rule="evenodd" fill-opacity="1" /><path clip-path="url(#clip090)" d="M821.36 24.3517 L821.36 6.81709 L826.684 6.81709 L826.684 51.84 L821.36 51.84 L821.36 46.9789 Q819.682 49.8724 817.106 51.2902 Q814.56 52.6791 810.972 52.6791 Q805.098 52.6791 801.395 47.9916 Q797.72 43.3042 797.72 35.6653 Q797.72 28.0265 801.395 23.339 Q805.098 18.6515 810.972 18.6515 Q814.56 18.6515 817.106 20.0693 Q819.682 21.4582 821.36 24.3517 M803.218 35.6653 Q803.218 41.5391 805.619 44.8956 Q808.05 48.2231 812.274 48.2231 Q816.499 48.2231 818.929 44.8956 Q821.36 41.5391 821.36 35.6653 Q821.36 29.7915 818.929 26.464 Q816.499 23.1075 812.274 23.1075 Q808.05 23.1075 805.619 26.464 Q803.218 29.7915 803.218 35.6653 Z" fill="#000000" fill-rule="evenodd" fill-opacity="1" /><path clip-path="url(#clip090)" d="M850.208 23.1654 Q845.926 23.1654 843.437 26.5218 Q840.949 29.8494 840.949 35.6653 Q840.949 41.4813 843.408 44.8377 Q845.897 48.1653 850.208 48.1653 Q854.462 48.1653 856.95 44.8088 Q859.438 41.4523 859.438 35.6653 Q859.438 29.9072 856.95 26.5508 Q854.462 23.1654 850.208 23.1654 M850.208 18.6515 Q857.153 18.6515 861.117 23.1654 Q865.081 27.6792 865.081 35.6653 Q865.081 43.6225 861.117 48.1653 Q857.153 52.6791 850.208 52.6791 Q843.235 52.6791 839.271 48.1653 Q835.335 43.6225 835.335 35.6653 Q835.335 27.6792 839.271 23.1654 Q843.235 18.6515 850.208 18.6515 Z" fill="#000000" fill-rule="evenodd" fill-opacity="1" /><path clip-path="url(#clip090)" d="M897.893 46.9789 L897.893 64.1663 L892.54 64.1663 L892.54 19.4328 L897.893 19.4328 L897.893 24.3517 Q899.571 21.4582 902.118 20.0693 Q904.693 18.6515 908.252 18.6515 Q914.155 18.6515 917.829 23.339 Q921.533 28.0265 921.533 35.6653 Q921.533 43.3042 917.829 47.9916 Q914.155 52.6791 908.252 52.6791 Q904.693 52.6791 902.118 51.2902 Q899.571 49.8724 897.893 46.9789 M916.006 35.6653 Q916.006 29.7915 913.576 26.464 Q911.174 23.1075 906.95 23.1075 Q902.725 23.1075 900.295 26.464 Q897.893 29.7915 897.893 35.6653 Q897.893 41.5391 900.295 44.8956 Q902.725 48.2231 906.95 48.2231 Q911.174 48.2231 913.576 44.8956 Q916.006 41.5391 916.006 35.6653 Z" fill="#000000" fill-rule="evenodd" fill-opacity="1" /><path clip-path="url(#clip090)" d="M949.137 24.4096 Q948.24 23.8888 947.169 23.6573 Q946.128 23.3969 944.855 23.3969 Q940.341 23.3969 937.91 26.3482 Q935.509 29.2707 935.509 34.7683 L935.509 51.84 L930.156 51.84 L930.156 19.4328 L935.509 19.4328 L935.509 24.4675 Q937.187 21.5161 939.878 20.0983 Q942.569 18.6515 946.417 18.6515 Q946.967 18.6515 947.632 18.7383 Q948.298 18.7962 949.108 18.9409 L949.137 24.4096 Z" fill="#000000" fill-rule="evenodd" fill-opacity="1" /><path clip-path="url(#clip090)" d="M965.977 23.1654 Q961.695 23.1654 959.206 26.5218 Q956.718 29.8494 956.718 35.6653 Q956.718 41.4813 959.177 44.8377 Q961.666 48.1653 965.977 48.1653 Q970.231 48.1653 972.719 44.8088 Q975.207 41.4523 975.207 35.6653 Q975.207 29.9072 972.719 26.5508 Q970.231 23.1654 965.977 23.1654 M965.977 18.6515 Q972.922 18.6515 976.886 23.1654 Q980.85 27.6792 980.85 35.6653 Q980.85 43.6225 976.886 48.1653 Q972.922 52.6791 965.977 52.6791 Q959.004 52.6791 955.04 48.1653 Q951.105 43.6225 951.105 35.6653 Q951.105 27.6792 955.04 23.1654 Q959.004 18.6515 965.977 18.6515 Z" fill="#000000" fill-rule="evenodd" fill-opacity="1" /><path clip-path="url(#clip090)" d="M1013 20.677 L1013 25.6538 Q1010.74 24.4096 1008.45 23.802 Q1006.2 23.1654 1003.88 23.1654 Q998.703 23.1654 995.838 26.464 Q992.974 29.7336 992.974 35.6653 Q992.974 41.597 995.838 44.8956 Q998.703 48.1653 1003.88 48.1653 Q1006.2 48.1653 1008.45 47.5576 Q1010.74 46.921 1013 45.6768 L1013 50.5958 Q1010.77 51.6375 1008.37 52.1583 Q1005.99 52.6791 1003.3 52.6791 Q995.983 52.6791 991.671 48.0784 Q987.36 43.4778 987.36 35.6653 Q987.36 27.7371 991.7 23.1943 Q996.07 18.6515 1003.65 18.6515 Q1006.11 18.6515 1008.45 19.1724 Q1010.8 19.6642 1013 20.677 Z" fill="#000000" fill-rule="evenodd" fill-opacity="1" /><path clip-path="url(#clip090)" d="M1049.98 34.3054 L1049.98 36.9095 L1025.5 36.9095 Q1025.84 42.4072 1028.8 45.3007 Q1031.78 48.1653 1037.07 48.1653 Q1040.14 48.1653 1043 47.4129 Q1045.9 46.6606 1048.73 45.156 L1048.73 50.1907 Q1045.87 51.406 1042.86 52.0425 Q1039.85 52.6791 1036.75 52.6791 Q1029 52.6791 1024.45 48.1653 Q1019.94 43.6514 1019.94 35.9547 Q1019.94 27.9975 1024.22 23.339 Q1028.53 18.6515 1035.83 18.6515 Q1042.37 18.6515 1046.16 22.876 Q1049.98 27.0716 1049.98 34.3054 M1044.65 32.7429 Q1044.59 28.3737 1042.19 25.7695 Q1039.82 23.1654 1035.88 23.1654 Q1031.43 23.1654 1028.74 25.6827 Q1026.08 28.2001 1025.67 32.7718 L1044.65 32.7429 Z" fill="#000000" fill-rule="evenodd" fill-opacity="1" /><path clip-path="url(#clip090)" d="M1079.37 20.3876 L1079.37 25.4223 Q1077.12 24.2649 1074.69 23.6862 Q1072.26 23.1075 1069.65 23.1075 Q1065.69 23.1075 1063.69 24.3228 Q1061.72 25.5381 1061.72 27.9686 Q1061.72 29.8204 1063.14 30.891 Q1064.56 31.9327 1068.84 32.8876 L1070.66 33.2926 Q1076.34 34.5079 1078.71 36.7359 Q1081.11 38.935 1081.11 42.8991 Q1081.11 47.4129 1077.52 50.046 Q1073.96 52.6791 1067.71 52.6791 Q1065.11 52.6791 1062.27 52.1583 Q1059.47 51.6664 1056.34 50.6537 L1056.34 45.156 Q1059.29 46.6896 1062.16 47.4708 Q1065.02 48.2231 1067.83 48.2231 Q1071.59 48.2231 1073.62 46.95 Q1075.64 45.6479 1075.64 43.3042 Q1075.64 41.134 1074.17 39.9766 Q1072.72 38.8192 1067.77 37.7486 L1065.92 37.3146 Q1060.97 36.273 1058.77 34.1318 Q1056.57 31.9616 1056.57 28.2001 Q1056.57 23.6283 1059.81 21.1399 Q1063.05 18.6515 1069.01 18.6515 Q1071.97 18.6515 1074.57 19.0855 Q1077.17 19.5196 1079.37 20.3876 Z" fill="#000000" fill-rule="evenodd" fill-opacity="1" /><path clip-path="url(#clip090)" d="M1110.25 20.3876 L1110.25 25.4223 Q1107.99 24.2649 1105.56 23.6862 Q1103.13 23.1075 1100.53 23.1075 Q1096.56 23.1075 1094.56 24.3228 Q1092.6 25.5381 1092.6 27.9686 Q1092.6 29.8204 1094.01 30.891 Q1095.43 31.9327 1099.71 32.8876 L1101.54 33.2926 Q1107.21 34.5079 1109.58 36.7359 Q1111.98 38.935 1111.98 42.8991 Q1111.98 47.4129 1108.4 50.046 Q1104.84 52.6791 1098.59 52.6791 Q1095.98 52.6791 1093.15 52.1583 Q1090.34 51.6664 1087.21 50.6537 L1087.21 45.156 Q1090.17 46.6896 1093.03 47.4708 Q1095.9 48.2231 1098.7 48.2231 Q1102.46 48.2231 1104.49 46.95 Q1106.51 45.6479 1106.51 43.3042 Q1106.51 41.134 1105.04 39.9766 Q1103.59 38.8192 1098.64 37.7486 L1096.79 37.3146 Q1091.84 36.273 1089.65 34.1318 Q1087.45 31.9616 1087.45 28.2001 Q1087.45 23.6283 1090.69 21.1399 Q1093.93 18.6515 1099.89 18.6515 Q1102.84 18.6515 1105.44 19.0855 Q1108.05 19.5196 1110.25 20.3876 Z" fill="#000000" fill-rule="evenodd" fill-opacity="1" /><path clip-path="url(#clip090)" d="M1133.02 23.1654 Q1128.74 23.1654 1126.25 26.5218 Q1123.76 29.8494 1123.76 35.6653 Q1123.76 41.4813 1126.22 44.8377 Q1128.71 48.1653 1133.02 48.1653 Q1137.27 48.1653 1139.76 44.8088 Q1142.25 41.4523 1142.25 35.6653 Q1142.25 29.9072 1139.76 26.5508 Q1137.27 23.1654 1133.02 23.1654 M1133.02 18.6515 Q1139.96 18.6515 1143.93 23.1654 Q1147.89 27.6792 1147.89 35.6653 Q1147.89 43.6225 1143.93 48.1653 Q1139.96 52.6791 1133.02 52.6791 Q1126.05 52.6791 1122.08 48.1653 Q1118.15 43.6225 1118.15 35.6653 Q1118.15 27.6792 1122.08 23.1654 Q1126.05 18.6515 1133.02 18.6515 Z" fill="#000000" fill-rule="evenodd" fill-opacity="1" /><path clip-path="url(#clip090)" d="M1196.88 24.3517 L1196.88 6.81709 L1202.2 6.81709 L1202.2 51.84 L1196.88 51.84 L1196.88 46.9789 Q1195.2 49.8724 1192.63 51.2902 Q1190.08 52.6791 1186.49 52.6791 Q1180.62 52.6791 1176.91 47.9916 Q1173.24 43.3042 1173.24 35.6653 Q1173.24 28.0265 1176.91 23.339 Q1180.62 18.6515 1186.49 18.6515 Q1190.08 18.6515 1192.63 20.0693 Q1195.2 21.4582 1196.88 24.3517 M1178.74 35.6653 Q1178.74 41.5391 1181.14 44.8956 Q1183.57 48.2231 1187.79 48.2231 Q1192.02 48.2231 1194.45 44.8956 Q1196.88 41.5391 1196.88 35.6653 Q1196.88 29.7915 1194.45 26.464 Q1192.02 23.1075 1187.79 23.1075 Q1183.57 23.1075 1181.14 26.464 Q1178.74 29.7915 1178.74 35.6653 Z" fill="#000000" fill-rule="evenodd" fill-opacity="1" /><path clip-path="url(#clip090)" d="M1240.89 34.3054 L1240.89 36.9095 L1216.41 36.9095 Q1216.76 42.4072 1219.71 45.3007 Q1222.69 48.1653 1227.98 48.1653 Q1231.05 48.1653 1233.92 47.4129 Q1236.81 46.6606 1239.64 45.156 L1239.64 50.1907 Q1236.78 51.406 1233.77 52.0425 Q1230.76 52.6791 1227.67 52.6791 Q1219.91 52.6791 1215.37 48.1653 Q1210.85 43.6514 1210.85 35.9547 Q1210.85 27.9975 1215.14 23.339 Q1219.45 18.6515 1226.74 18.6515 Q1233.28 18.6515 1237.07 22.876 Q1240.89 27.0716 1240.89 34.3054 M1235.56 32.7429 Q1235.51 28.3737 1233.11 25.7695 Q1230.73 23.1654 1226.8 23.1654 Q1222.34 23.1654 1219.65 25.6827 Q1216.99 28.2001 1216.58 32.7718 L1235.56 32.7429 Z" fill="#000000" fill-rule="evenodd" fill-opacity="1" /><path clip-path="url(#clip090)" d="M1287.24 24.4096 Q1286.35 23.8888 1285.28 23.6573 Q1284.23 23.3969 1282.96 23.3969 Q1278.45 23.3969 1276.02 26.3482 Q1273.61 29.2707 1273.61 34.7683 L1273.61 51.84 L1268.26 51.84 L1268.26 19.4328 L1273.61 19.4328 L1273.61 24.4675 Q1275.29 21.5161 1277.98 20.0983 Q1280.67 18.6515 1284.52 18.6515 Q1285.07 18.6515 1285.74 18.7383 Q1286.4 18.7962 1287.21 18.9409 L1287.24 24.4096 Z" fill="#000000" fill-rule="evenodd" fill-opacity="1" /><path clip-path="url(#clip090)" d="M1319.24 34.3054 L1319.24 36.9095 L1294.77 36.9095 Q1295.11 42.4072 1298.06 45.3007 Q1301.04 48.1653 1306.34 48.1653 Q1309.41 48.1653 1312.27 47.4129 Q1315.17 46.6606 1318 45.156 L1318 50.1907 Q1315.14 51.406 1312.13 52.0425 Q1309.12 52.6791 1306.02 52.6791 Q1298.27 52.6791 1293.72 48.1653 Q1289.21 43.6514 1289.21 35.9547 Q1289.21 27.9975 1293.49 23.339 Q1297.8 18.6515 1305.1 18.6515 Q1311.64 18.6515 1315.43 22.876 Q1319.24 27.0716 1319.24 34.3054 M1313.92 32.7429 Q1313.86 28.3737 1311.46 25.7695 Q1309.09 23.1654 1305.15 23.1654 Q1300.7 23.1654 1298.01 25.6827 Q1295.34 28.2001 1294.94 32.7718 L1313.92 32.7429 Z" fill="#000000" fill-rule="evenodd" fill-opacity="1" /><path clip-path="url(#clip090)" d="M1354.92 32.2799 L1354.92 51.84 L1349.6 51.84 L1349.6 32.4535 Q1349.6 27.8529 1347.8 25.567 Q1346.01 23.2811 1342.42 23.2811 Q1338.11 23.2811 1335.62 26.03 Q1333.13 28.7788 1333.13 33.5241 L1333.13 51.84 L1327.78 51.84 L1327.78 19.4328 L1333.13 19.4328 L1333.13 24.4675 Q1335.04 21.545 1337.62 20.0983 Q1340.22 18.6515 1343.61 18.6515 Q1349.19 18.6515 1352.06 22.1237 Q1354.92 25.567 1354.92 32.2799 Z" fill="#000000" fill-rule="evenodd" fill-opacity="1" /><path clip-path="url(#clip090)" d="M1378.1 23.1654 Q1373.82 23.1654 1371.33 26.5218 Q1368.84 29.8494 1368.84 35.6653 Q1368.84 41.4813 1371.3 44.8377 Q1373.79 48.1653 1378.1 48.1653 Q1382.35 48.1653 1384.84 44.8088 Q1387.33 41.4523 1387.33 35.6653 Q1387.33 29.9072 1384.84 26.5508 Q1382.35 23.1654 1378.1 23.1654 M1378.1 18.6515 Q1385.04 18.6515 1389.01 23.1654 Q1392.97 27.6792 1392.97 35.6653 Q1392.97 43.6225 1389.01 48.1653 Q1385.04 52.6791 1378.1 52.6791 Q1371.13 52.6791 1367.16 48.1653 Q1363.23 43.6225 1363.23 35.6653 Q1363.23 27.6792 1367.16 23.1654 Q1371.13 18.6515 1378.1 18.6515 Z" fill="#000000" fill-rule="evenodd" fill-opacity="1" /><path clip-path="url(#clip090)" d="M1397.98 19.4328 L1403.62 19.4328 L1413.75 46.6317 L1423.87 19.4328 L1429.52 19.4328 L1417.36 51.84 L1410.13 51.84 L1397.98 19.4328 Z" fill="#000000" fill-rule="evenodd" fill-opacity="1" /><path clip-path="url(#clip090)" d="M1451.59 35.5496 Q1445.14 35.5496 1442.65 37.0253 Q1440.16 38.501 1440.16 42.06 Q1440.16 44.8956 1442.02 46.5738 Q1443.9 48.2231 1447.11 48.2231 Q1451.54 48.2231 1454.2 45.0981 Q1456.89 41.9442 1456.89 36.7359 L1456.89 35.5496 L1451.59 35.5496 M1462.21 33.3505 L1462.21 51.84 L1456.89 51.84 L1456.89 46.921 Q1455.07 49.8724 1452.35 51.2902 Q1449.63 52.6791 1445.69 52.6791 Q1440.71 52.6791 1437.76 49.9014 Q1434.84 47.0947 1434.84 42.4072 Q1434.84 36.9385 1438.49 34.1607 Q1442.16 31.3829 1449.42 31.3829 L1456.89 31.3829 L1456.89 30.8621 Q1456.89 27.1874 1454.46 25.1908 Q1452.06 23.1654 1447.69 23.1654 Q1444.91 23.1654 1442.28 23.8309 Q1439.64 24.4964 1437.21 25.8274 L1437.21 20.9085 Q1440.14 19.78 1442.88 19.2302 Q1445.63 18.6515 1448.24 18.6515 Q1455.27 18.6515 1458.74 22.2973 Q1462.21 25.9431 1462.21 33.3505 Z" fill="#000000" fill-rule="evenodd" fill-opacity="1" /><path clip-path="url(#clip090)" d="M1496.5 20.677 L1496.5 25.6538 Q1494.24 24.4096 1491.96 23.802 Q1489.7 23.1654 1487.39 23.1654 Q1482.21 23.1654 1479.34 26.464 Q1476.48 29.7336 1476.48 35.6653 Q1476.48 41.597 1479.34 44.8956 Q1482.21 48.1653 1487.39 48.1653 Q1489.7 48.1653 1491.96 47.5576 Q1494.24 46.921 1496.5 45.6768 L1496.5 50.5958 Q1494.27 51.6375 1491.87 52.1583 Q1489.5 52.6791 1486.81 52.6791 Q1479.49 52.6791 1475.18 48.0784 Q1470.86 43.4778 1470.86 35.6653 Q1470.86 27.7371 1475.2 23.1943 Q1479.57 18.6515 1487.15 18.6515 Q1489.61 18.6515 1491.96 19.1724 Q1494.3 19.6642 1496.5 20.677 M1488.98 51.84 Q1490.57 53.634 1491.35 55.1386 Q1492.13 56.6722 1492.13 58.061 Q1492.13 60.6362 1490.4 61.9383 Q1488.66 63.2693 1485.25 63.2693 Q1483.91 63.2693 1482.64 63.0957 Q1481.4 62.9221 1480.15 62.5749 L1480.15 58.7844 Q1481.14 59.2763 1482.21 59.4788 Q1483.28 59.7103 1484.64 59.7103 Q1486.34 59.7103 1487.21 59.0159 Q1488.08 58.3214 1488.08 56.9904 Q1488.08 56.1224 1487.44 54.8492 Q1486.84 53.605 1485.53 51.84 L1488.98 51.84 Z" fill="#000000" fill-rule="evenodd" fill-opacity="1" /><path clip-path="url(#clip090)" d="M1520.49 35.5496 Q1514.04 35.5496 1511.55 37.0253 Q1509.06 38.501 1509.06 42.06 Q1509.06 44.8956 1510.91 46.5738 Q1512.79 48.2231 1516 48.2231 Q1520.43 48.2231 1523.09 45.0981 Q1525.78 41.9442 1525.78 36.7359 L1525.78 35.5496 L1520.49 35.5496 M1531.11 33.3505 L1531.11 51.84 L1525.78 51.84 L1525.78 46.921 Q1523.96 49.8724 1521.24 51.2902 Q1518.52 52.6791 1514.59 52.6791 Q1509.61 52.6791 1506.66 49.9014 Q1503.73 47.0947 1503.73 42.4072 Q1503.73 36.9385 1507.38 34.1607 Q1511.06 31.3829 1518.32 31.3829 L1525.78 31.3829 L1525.78 30.8621 Q1525.78 27.1874 1523.35 25.1908 Q1520.95 23.1654 1516.58 23.1654 Q1513.8 23.1654 1511.17 23.8309 Q1508.54 24.4964 1506.11 25.8274 L1506.11 20.9085 Q1509.03 19.78 1511.78 19.2302 Q1514.53 18.6515 1517.13 18.6515 Q1524.16 18.6515 1527.64 22.2973 Q1531.11 25.9431 1531.11 33.3505 M1517.25 12.199 L1515.6 10.6076 Q1514.96 10.0289 1514.47 9.76847 Q1514.01 9.47912 1513.63 9.47912 Q1512.53 9.47912 1512.01 10.5497 Q1511.49 11.5914 1511.43 13.964 L1507.81 13.964 Q1507.87 10.0578 1509.35 7.94556 Q1510.82 5.80437 1513.46 5.80437 Q1514.56 5.80437 1515.48 6.20946 Q1516.41 6.61455 1517.48 7.5694 L1519.13 9.16083 Q1519.76 9.73953 1520.23 10.0289 Q1520.72 10.2893 1521.1 10.2893 Q1522.2 10.2893 1522.72 9.24764 Q1523.24 8.17704 1523.29 5.80437 L1526.91 5.80437 Q1526.85 9.7106 1525.38 11.8518 Q1523.9 13.964 1521.27 13.964 Q1520.17 13.964 1519.24 13.559 Q1518.32 13.1539 1517.25 12.199 Z" fill="#000000" fill-rule="evenodd" fill-opacity="1" /><path clip-path="url(#clip090)" d="M1554.63 23.1654 Q1550.35 23.1654 1547.86 26.5218 Q1545.37 29.8494 1545.37 35.6653 Q1545.37 41.4813 1547.83 44.8377 Q1550.32 48.1653 1554.63 48.1653 Q1558.88 48.1653 1561.37 44.8088 Q1563.86 41.4523 1563.86 35.6653 Q1563.86 29.9072 1561.37 26.5508 Q1558.88 23.1654 1554.63 23.1654 M1554.63 18.6515 Q1561.58 18.6515 1565.54 23.1654 Q1569.5 27.6792 1569.5 35.6653 Q1569.5 43.6225 1565.54 48.1653 Q1561.58 52.6791 1554.63 52.6791 Q1547.66 52.6791 1543.69 48.1653 Q1539.76 43.6225 1539.76 35.6653 Q1539.76 27.6792 1543.69 23.1654 Q1547.66 18.6515 1554.63 18.6515 Z" fill="#000000" fill-rule="evenodd" fill-opacity="1" /><path clip-path="url(#clip090)" d="M1620.49 20.677 L1620.49 25.6538 Q1618.23 24.4096 1615.94 23.802 Q1613.69 23.1654 1611.37 23.1654 Q1606.19 23.1654 1603.33 26.464 Q1600.46 29.7336 1600.46 35.6653 Q1600.46 41.597 1603.33 44.8956 Q1606.19 48.1653 1611.37 48.1653 Q1613.69 48.1653 1615.94 47.5576 Q1618.23 46.921 1620.49 45.6768 L1620.49 50.5958 Q1618.26 51.6375 1615.86 52.1583 Q1613.49 52.6791 1610.79 52.6791 Q1603.47 52.6791 1599.16 48.0784 Q1594.85 43.4778 1594.85 35.6653 Q1594.85 27.7371 1599.19 23.1943 Q1603.56 18.6515 1611.14 18.6515 Q1613.6 18.6515 1615.94 19.1724 Q1618.29 19.6642 1620.49 20.677 Z" fill="#000000" fill-rule="evenodd" fill-opacity="1" /><path clip-path="url(#clip090)" d="M1642.3 23.1654 Q1638.02 23.1654 1635.53 26.5218 Q1633.05 29.8494 1633.05 35.6653 Q1633.05 41.4813 1635.5 44.8377 Q1637.99 48.1653 1642.3 48.1653 Q1646.56 48.1653 1649.05 44.8088 Q1651.53 41.4523 1651.53 35.6653 Q1651.53 29.9072 1649.05 26.5508 Q1646.56 23.1654 1642.3 23.1654 M1642.3 18.6515 Q1649.25 18.6515 1653.21 23.1654 Q1657.18 27.6792 1657.18 35.6653 Q1657.18 43.6225 1653.21 48.1653 Q1649.25 52.6791 1642.3 52.6791 Q1635.33 52.6791 1631.37 48.1653 Q1627.43 43.6225 1627.43 35.6653 Q1627.43 27.6792 1631.37 23.1654 Q1635.33 18.6515 1642.3 18.6515 Z" fill="#000000" fill-rule="evenodd" fill-opacity="1" /><path clip-path="url(#clip090)" d="M1691.23 25.6538 Q1693.23 22.0659 1696.01 20.3587 Q1698.79 18.6515 1702.55 18.6515 Q1707.61 18.6515 1710.36 22.2105 Q1713.11 25.7406 1713.11 32.2799 L1713.11 51.84 L1707.76 51.84 L1707.76 32.4535 Q1707.76 27.795 1706.11 25.5381 Q1704.46 23.2811 1701.07 23.2811 Q1696.93 23.2811 1694.53 26.03 Q1692.13 28.7788 1692.13 33.5241 L1692.13 51.84 L1686.78 51.84 L1686.78 32.4535 Q1686.78 27.7661 1685.13 25.5381 Q1683.48 23.2811 1680.04 23.2811 Q1675.96 23.2811 1673.55 26.0589 Q1671.15 28.8077 1671.15 33.5241 L1671.15 51.84 L1665.8 51.84 L1665.8 19.4328 L1671.15 19.4328 L1671.15 24.4675 Q1672.98 21.4872 1675.52 20.0693 Q1678.07 18.6515 1681.57 18.6515 Q1685.1 18.6515 1687.56 20.4455 Q1690.05 22.2395 1691.23 25.6538 Z" fill="#000000" fill-rule="evenodd" fill-opacity="1" /><path clip-path="url(#clip090)" d="M1763.22 20.3876 L1763.22 25.4223 Q1760.97 24.2649 1758.54 23.6862 Q1756.11 23.1075 1753.5 23.1075 Q1749.54 23.1075 1747.54 24.3228 Q1745.57 25.5381 1745.57 27.9686 Q1745.57 29.8204 1746.99 30.891 Q1748.41 31.9327 1752.69 32.8876 L1754.51 33.2926 Q1760.19 34.5079 1762.56 36.7359 Q1764.96 38.935 1764.96 42.8991 Q1764.96 47.4129 1761.37 50.046 Q1757.81 52.6791 1751.56 52.6791 Q1748.96 52.6791 1746.12 52.1583 Q1743.32 51.6664 1740.19 50.6537 L1740.19 45.156 Q1743.14 46.6896 1746.01 47.4708 Q1748.87 48.2231 1751.68 48.2231 Q1755.44 48.2231 1757.47 46.95 Q1759.49 45.6479 1759.49 43.3042 Q1759.49 41.134 1758.02 39.9766 Q1756.57 38.8192 1751.62 37.7486 L1749.77 37.3146 Q1744.82 36.273 1742.62 34.1318 Q1740.42 31.9616 1740.42 28.2001 Q1740.42 23.6283 1743.66 21.1399 Q1746.9 18.6515 1752.87 18.6515 Q1755.82 18.6515 1758.42 19.0855 Q1761.02 19.5196 1763.22 20.3876 Z" fill="#000000" fill-rule="evenodd" fill-opacity="1" /><path clip-path="url(#clip090)" d="M1788.17 35.5496 Q1781.71 35.5496 1779.23 37.0253 Q1776.74 38.501 1776.74 42.06 Q1776.74 44.8956 1778.59 46.5738 Q1780.47 48.2231 1783.68 48.2231 Q1788.11 48.2231 1790.77 45.0981 Q1793.46 41.9442 1793.46 36.7359 L1793.46 35.5496 L1788.17 35.5496 M1798.79 33.3505 L1798.79 51.84 L1793.46 51.84 L1793.46 46.921 Q1791.64 49.8724 1788.92 51.2902 Q1786.2 52.6791 1782.26 52.6791 Q1777.29 52.6791 1774.34 49.9014 Q1771.41 47.0947 1771.41 42.4072 Q1771.41 36.9385 1775.06 34.1607 Q1778.73 31.3829 1786 31.3829 L1793.46 31.3829 L1793.46 30.8621 Q1793.46 27.1874 1791.03 25.1908 Q1788.63 23.1654 1784.26 23.1654 Q1781.48 23.1654 1778.85 23.8309 Q1776.22 24.4964 1773.79 25.8274 L1773.79 20.9085 Q1776.71 19.78 1779.46 19.2302 Q1782.21 18.6515 1784.81 18.6515 Q1791.84 18.6515 1795.31 22.2973 Q1798.79 25.9431 1798.79 33.3505 Z" fill="#000000" fill-rule="evenodd" fill-opacity="1" /><path clip-path="url(#clip090)" d="M1809.75 6.81709 L1815.08 6.81709 L1815.08 51.84 L1809.75 51.84 L1809.75 6.81709 Z" fill="#000000" fill-rule="evenodd" fill-opacity="1" /><path clip-path="url(#clip090)" d="M1831.48 10.2314 L1831.48 19.4328 L1842.45 19.4328 L1842.45 23.5705 L1831.48 23.5705 L1831.48 41.163 Q1831.48 45.1271 1832.55 46.2555 Q1833.65 47.384 1836.98 47.384 L1842.45 47.384 L1842.45 51.84 L1836.98 51.84 Q1830.82 51.84 1828.47 49.5541 Q1826.13 47.2393 1826.13 41.163 L1826.13 23.5705 L1822.22 23.5705 L1822.22 19.4328 L1826.13 19.4328 L1826.13 10.2314 L1831.48 10.2314 Z" fill="#000000" fill-rule="evenodd" fill-opacity="1" /><path clip-path="url(#clip090)" d="M1862.01 23.1654 Q1857.73 23.1654 1855.24 26.5218 Q1852.75 29.8494 1852.75 35.6653 Q1852.75 41.4813 1855.21 44.8377 Q1857.7 48.1653 1862.01 48.1653 Q1866.26 48.1653 1868.75 44.8088 Q1871.24 41.4523 1871.24 35.6653 Q1871.24 29.9072 1868.75 26.5508 Q1866.26 23.1654 1862.01 23.1654 M1862.01 18.6515 Q1868.95 18.6515 1872.92 23.1654 Q1876.88 27.6792 1876.88 35.6653 Q1876.88 43.6225 1872.92 48.1653 Q1868.95 52.6791 1862.01 52.6791 Q1855.03 52.6791 1851.07 48.1653 Q1847.14 43.6225 1847.14 35.6653 Q1847.14 27.6792 1851.07 23.1654 Q1855.03 18.6515 1862.01 18.6515 Z" fill="#000000" fill-rule="evenodd" fill-opacity="1" /><path clip-path="url(#clip090)" d="M1906.37 20.3876 L1906.37 25.4223 Q1904.11 24.2649 1901.68 23.6862 Q1899.25 23.1075 1896.64 23.1075 Q1892.68 23.1075 1890.68 24.3228 Q1888.72 25.5381 1888.72 27.9686 Q1888.72 29.8204 1890.13 30.891 Q1891.55 31.9327 1895.83 32.8876 L1897.66 33.2926 Q1903.33 34.5079 1905.7 36.7359 Q1908.1 38.935 1908.1 42.8991 Q1908.1 47.4129 1904.51 50.046 Q1900.95 52.6791 1894.7 52.6791 Q1892.1 52.6791 1889.27 52.1583 Q1886.46 51.6664 1883.33 50.6537 L1883.33 45.156 Q1886.28 46.6896 1889.15 47.4708 Q1892.01 48.2231 1894.82 48.2231 Q1898.58 48.2231 1900.61 46.95 Q1902.63 45.6479 1902.63 43.3042 Q1902.63 41.134 1901.16 39.9766 Q1899.71 38.8192 1894.76 37.7486 L1892.91 37.3146 Q1887.96 36.273 1885.76 34.1318 Q1883.56 31.9616 1883.56 28.2001 Q1883.56 23.6283 1886.81 21.1399 Q1890.05 18.6515 1896.01 18.6515 Q1898.96 18.6515 1901.56 19.0855 Q1904.17 19.5196 1906.37 20.3876 Z" fill="#000000" fill-rule="evenodd" fill-opacity="1" /><path clip-path="url(#clip090)" d="M1961.54 10.0578 L1961.54 15.758 Q1958.22 14.1666 1955.27 13.3853 Q1952.31 12.6041 1949.57 12.6041 Q1944.79 12.6041 1942.19 14.4559 Q1939.61 16.3078 1939.61 19.7221 Q1939.61 22.5867 1941.32 24.0624 Q1943.06 25.5091 1947.86 26.4061 L1951.39 27.1295 Q1957.93 28.3737 1961.02 31.5276 Q1964.15 34.6526 1964.15 39.9188 Q1964.15 46.1977 1959.92 49.4384 Q1955.73 52.6791 1947.6 52.6791 Q1944.53 52.6791 1941.06 51.9847 Q1937.62 51.2902 1933.91 49.9303 L1933.91 43.9118 Q1937.47 45.9083 1940.89 46.921 Q1944.3 47.9338 1947.6 47.9338 Q1952.6 47.9338 1955.32 45.9662 Q1958.04 43.9986 1958.04 40.3528 Q1958.04 37.1699 1956.08 35.376 Q1954.14 33.582 1949.68 32.685 L1946.12 31.9906 Q1939.58 30.6885 1936.66 27.9107 Q1933.74 25.133 1933.74 20.1851 Q1933.74 14.4559 1937.76 11.1573 Q1941.81 7.85875 1948.9 7.85875 Q1951.94 7.85875 1955.09 8.40852 Q1958.25 8.95829 1961.54 10.0578 Z" fill="#000000" fill-rule="evenodd" fill-opacity="1" /><path clip-path="url(#clip090)" d="M1973.03 19.4328 L1978.36 19.4328 L1978.36 52.4187 Q1978.36 58.6108 1975.98 61.3886 Q1973.64 64.1663 1968.4 64.1663 L1966.38 64.1663 L1966.38 59.6525 L1967.79 59.6525 Q1970.83 59.6525 1971.93 58.2346 Q1973.03 56.8458 1973.03 52.4187 L1973.03 19.4328 M1973.03 6.81709 L1978.36 6.81709 L1978.36 13.559 L1973.03 13.559 L1973.03 6.81709 Z" fill="#000000" fill-rule="evenodd" fill-opacity="1" /><path clip-path="url(#clip090)" d="M2046.12 28.1711 L2046.12 33.3505 Q2043.08 35.6074 2040.48 36.6202 Q2037.9 37.604 2035.1 37.604 Q2031.91 37.604 2027.69 35.8968 Q2027.4 35.7811 2027.2 35.6943 Q2027.02 35.6364 2026.59 35.4628 Q2022.11 33.6977 2019.39 33.6977 Q2016.84 33.6977 2014.35 34.7973 Q2011.86 35.8968 2009.03 38.3273 L2009.03 33.148 Q2012.07 30.891 2014.64 29.9072 Q2017.24 28.8945 2020.05 28.8945 Q2023.23 28.8945 2027.49 30.6017 Q2027.81 30.7464 2027.95 30.8042 Q2028.12 30.8621 2028.56 31.0357 Q2033.04 32.8008 2035.76 32.8008 Q2038.25 32.8008 2040.68 31.7302 Q2043.14 30.6306 2046.12 28.1711 Z" fill="#000000" fill-rule="evenodd" fill-opacity="1" /><path clip-path="url(#clip090)" d="M2076.39 8.64 L2082.26 8.64 L2082.26 34.8841 Q2082.26 41.8285 2084.78 44.8956 Q2087.3 47.9338 2092.94 47.9338 Q2098.55 47.9338 2101.07 44.8956 Q2103.59 41.8285 2103.59 34.8841 L2103.59 8.64 L2109.46 8.64 L2109.46 35.6074 Q2109.46 44.0565 2105.27 48.3678 Q2101.1 52.6791 2092.94 52.6791 Q2084.75 52.6791 2080.55 48.3678 Q2076.39 44.0565 2076.39 35.6074 L2076.39 8.64 Z" fill="#000000" fill-rule="evenodd" fill-opacity="1" /><path clip-path="url(#clip090)" d="M2147.13 32.2799 L2147.13 51.84 L2141.81 51.84 L2141.81 32.4535 Q2141.81 27.8529 2140.02 25.567 Q2138.22 23.2811 2134.63 23.2811 Q2130.32 23.2811 2127.83 26.03 Q2125.35 28.7788 2125.35 33.5241 L2125.35 51.84 L2119.99 51.84 L2119.99 19.4328 L2125.35 19.4328 L2125.35 24.4675 Q2127.26 21.545 2129.83 20.0983 Q2132.44 18.6515 2135.82 18.6515 Q2141.4 18.6515 2144.27 22.1237 Q2147.13 25.567 2147.13 32.2799 Z" fill="#000000" fill-rule="evenodd" fill-opacity="1" /><path clip-path="url(#clip090)" d="M2157.75 19.4328 L2163.08 19.4328 L2163.08 51.84 L2157.75 51.84 L2157.75 19.4328 M2157.75 6.81709 L2163.08 6.81709 L2163.08 13.559 L2157.75 13.559 L2157.75 6.81709 Z" fill="#000000" fill-rule="evenodd" fill-opacity="1" /><path clip-path="url(#clip090)" d="M2190.62 6.81709 L2190.62 11.2442 L2185.53 11.2442 Q2182.67 11.2442 2181.54 12.4016 Q2180.44 13.559 2180.44 16.5682 L2180.44 19.4328 L2189.21 19.4328 L2189.21 23.5705 L2180.44 23.5705 L2180.44 51.84 L2175.09 51.84 L2175.09 23.5705 L2169.99 23.5705 L2169.99 19.4328 L2175.09 19.4328 L2175.09 17.1758 Q2175.09 11.765 2177.6 9.30551 Q2180.12 6.81709 2185.59 6.81709 L2190.62 6.81709 Z" fill="#000000" fill-rule="evenodd" fill-opacity="1" /><path clip-path="url(#clip090)" d="M2207.87 6.87496 Q2203.99 13.53 2202.11 20.0404 Q2200.23 26.5508 2200.23 33.2348 Q2200.23 39.9188 2202.11 46.487 Q2204.02 53.0263 2207.87 59.6525 L2203.24 59.6525 Q2198.9 52.8527 2196.73 46.2845 Q2194.59 39.7162 2194.59 33.2348 Q2194.59 26.7823 2196.73 20.2429 Q2198.87 13.7036 2203.24 6.87496 L2207.87 6.87496 Z" fill="#000000" fill-rule="evenodd" fill-opacity="1" /><path clip-path="url(#clip090)" d="M2231.45 12.4884 Q2226.94 12.4884 2224.65 16.9444 Q2222.39 21.3714 2222.39 30.2834 Q2222.39 39.1665 2224.65 43.6225 Q2226.94 48.0495 2231.45 48.0495 Q2235.99 48.0495 2238.25 43.6225 Q2240.54 39.1665 2240.54 30.2834 Q2240.54 21.3714 2238.25 16.9444 Q2235.99 12.4884 2231.45 12.4884 M2231.45 7.85875 Q2238.71 7.85875 2242.53 13.6168 Q2246.38 19.346 2246.38 30.2834 Q2246.38 41.1919 2242.53 46.95 Q2238.71 52.6791 2231.45 52.6791 Q2224.19 52.6791 2220.34 46.95 Q2216.52 41.1919 2216.52 30.2834 Q2216.52 19.346 2220.34 13.6168 Q2224.19 7.85875 2231.45 7.85875 Z" fill="#000000" fill-rule="evenodd" fill-opacity="1" /><path clip-path="url(#clip090)" d="M2256.65 44.4905 L2262.76 44.4905 L2262.76 51.84 L2256.65 51.84 L2256.65 44.4905 Z" fill="#000000" fill-rule="evenodd" fill-opacity="1" /><path clip-path="url(#clip090)" d="M2275.55 8.64 L2298.49 8.64 L2298.49 13.559 L2280.9 13.559 L2280.9 24.1492 Q2282.17 23.7152 2283.45 23.5126 Q2284.72 23.2811 2285.99 23.2811 Q2293.23 23.2811 2297.45 27.2452 Q2301.68 31.2093 2301.68 37.9801 Q2301.68 44.9535 2297.34 48.8308 Q2293 52.6791 2285.1 52.6791 Q2282.38 52.6791 2279.54 52.2162 Q2276.73 51.7532 2273.72 50.8273 L2273.72 44.9535 Q2276.33 46.3713 2279.11 47.0657 Q2281.88 47.7602 2284.98 47.7602 Q2289.99 47.7602 2292.91 45.1271 Q2295.83 42.494 2295.83 37.9801 Q2295.83 33.4663 2292.91 30.8332 Q2289.99 28.2001 2284.98 28.2001 Q2282.64 28.2001 2280.29 28.7209 Q2277.98 29.2417 2275.55 30.3413 L2275.55 8.64 Z" fill="#000000" fill-rule="evenodd" fill-opacity="1" /><path clip-path="url(#clip090)" d="M2313.8 44.4905 L2319.91 44.4905 L2319.91 49.4673 L2315.16 58.7265 L2311.43 58.7265 L2313.8 49.4673 L2313.8 44.4905 Z" fill="#000000" fill-rule="evenodd" fill-opacity="1" /><path clip-path="url(#clip090)" d="M2333.04 46.921 L2342.59 46.921 L2342.59 13.964 L2332.2 16.0474 L2332.2 10.7233 L2342.53 8.64 L2348.38 8.64 L2348.38 46.921 L2357.93 46.921 L2357.93 51.84 L2333.04 51.84 L2333.04 46.921 Z" fill="#000000" fill-rule="evenodd" fill-opacity="1" /><path clip-path="url(#clip090)" d="M2368.14 6.87496 L2372.77 6.87496 Q2377.11 13.7036 2379.25 20.2429 Q2381.42 26.7823 2381.42 33.2348 Q2381.42 39.7162 2379.25 46.2845 Q2377.11 52.8527 2372.77 59.6525 L2368.14 59.6525 Q2371.99 53.0263 2373.87 46.487 Q2375.78 39.9188 2375.78 33.2348 Q2375.78 26.5508 2373.87 20.0404 Q2371.99 13.53 2368.14 6.87496 Z" fill="#000000" fill-rule="evenodd" fill-opacity="1" /><polyline clip-path="url(#clip092)" style="stroke:#009af9; stroke-linecap:butt; stroke-linejoin:round; stroke-width:4; stroke-opacity:1; fill:none" points="
  263.091,1385.91 273.286,1385.91 283.481,1385.91 293.676,1385.91 303.871,1385.91 314.066,1385.91 
  324.261,1385.91 334.456,1385.91 344.651,1385.91 354.846,1385.91 365.041,1385.91 
  375.236,1385.91 385.431,1385.91 395.626,1385.91 405.821,1385.91 416.016,1385.91 
  426.211,1385.91 436.406,1385.91 446.601,1385.91 456.796,1385.91 466.991,1385.91 
  477.186,1385.91 487.381,1385.91 497.576,1385.91 507.771,1385.91 517.966,1385.91 
  528.161,1385.91 538.356,1385.91 548.551,1385.91 548.551,1303.08 558.746,1303.08 568.941,1303.08 
  579.136,1303.08 589.331,1303.08 599.526,1303.08 609.721,1303.08 619.916,1303.08 
  630.111,1303.08 640.306,1303.08 650.501,1303.08 660.696,1303.08 670.891,1303.08 
  681.086,1303.08 691.281,1303.08 701.475,1303.08 711.67,1303.08 721.865,1303.08 
  732.06,1303.08 742.255,1303.08 742.255,1220.25 752.45,1220.25 762.645,1220.25 772.84,1220.25 
  783.035,1220.25 793.23,1220.25 803.425,1220.25 813.62,1220.25 823.815,1220.25 
  834.01,1220.25 844.205,1220.25 854.4,1220.25 864.595,1220.25 874.79,1220.25 
  884.985,1220.25 895.18,1220.25 905.375,1220.25 915.57,1220.25 925.765,1220.25 
  935.96,1220.25 946.155,1220.25 956.35,1220.25 966.545,1220.25 976.74,1220.25 
  986.935,1220.25 997.13,1220.25 997.13,1137.42 1007.32,1137.42 1017.52,1137.42 1027.71,1137.42 
  1037.91,1137.42 1048.1,1137.42 1058.3,1137.42 1068.49,1137.42 1078.69,1137.42 
  1088.88,1137.42 1099.08,1137.42 1109.27,1137.42 1119.47,1137.42 1129.66,1137.42 
  1139.86,1137.42 1150.05,1137.42 1160.25,1137.42 1170.44,1137.42 1180.64,1137.42 
  1190.83,1137.42 1201.03,1137.42 1201.03,1054.59 1211.22,1054.59 1221.42,1054.59 1231.61,1054.59 
  1241.81,1054.59 1252,1054.59 1262.2,1054.59 1272.39,1054.59 1282.59,1054.59 
  1292.78,1054.59 1302.98,1054.59 1313.17,1054.59 1323.37,1054.59 1333.56,1054.59 
  1343.76,1054.59 1353.95,1054.59 1353.95,971.76 1364.15,971.76 1374.34,971.76 1384.54,971.76 
  1394.73,971.76 1404.93,971.76 1415.12,971.76 1425.32,971.76 1435.51,971.76 
  1445.71,971.76 1455.9,971.76 1466.1,971.76 1476.29,971.76 1486.49,971.76 
  1496.68,971.76 1506.88,971.76 1517.07,971.76 1527.27,971.76 1527.27,888.93 1537.46,888.93 
  1547.66,888.93 1557.85,888.93 1568.05,888.93 1578.24,888.93 1588.44,888.93 
  1598.63,888.93 1608.83,888.93 1619.02,888.93 1629.22,888.93 1639.41,888.93 
  1649.61,888.93 1659.8,888.93 1670,888.93 1680.19,888.93 1690.39,888.93 
  1700.58,888.93 1710.78,888.93 1710.78,806.101 1720.97,806.101 1731.17,806.101 1741.36,806.101 
  1751.56,806.101 1761.75,806.101 1771.95,806.101 1782.14,806.101 1792.34,806.101 
  1802.53,806.101 1812.73,806.101 1822.92,806.101 1833.12,806.101 1843.31,806.101 
  1853.51,806.101 1863.7,806.101 1873.9,806.101 1884.09,806.101 1894.29,806.101 
  1904.48,806.101 1914.68,806.101 1924.87,806.101 1935.07,806.101 1945.26,806.101 
  1955.46,806.101 1965.65,806.101 1975.85,806.101 1986.04,806.101 1986.04,723.271 1996.24,723.271 
  2006.43,723.271 2016.63,723.271 2026.82,723.271 2037.02,723.271 2047.21,723.271 
  2057.41,723.271 2067.6,723.271 2077.8,723.271 2087.99,723.271 2098.19,723.271 
  2108.38,723.271 2108.38,640.442 2118.58,640.442 2128.77,640.442 2138.97,640.442 2149.16,640.442 
  2159.36,640.442 2169.55,640.442 2179.75,640.442 2189.94,640.442 2200.14,640.442 
  2210.33,640.442 2220.53,640.442 2230.72,640.442 2240.92,640.442 2240.92,557.612 2251.11,557.612 
  2261.31,557.612 2271.5,557.612 2281.7,557.612 2291.89,557.612 
  "/>
<polyline clip-path="url(#clip092)" style="stroke:#e26f46; stroke-linecap:butt; stroke-linejoin:round; stroke-width:4; stroke-opacity:1; fill:none" points="
  263.091,1385.91 273.286,1385.91 283.481,1385.91 293.676,1385.91 303.871,1385.91 314.066,1385.91 
  324.261,1385.91 334.456,1385.91 344.651,1385.91 354.846,1385.91 365.041,1385.91 
  375.236,1385.91 385.431,1385.91 395.626,1385.91 405.821,1385.91 416.016,1385.91 
  426.211,1385.91 436.406,1385.91 446.601,1385.91 456.796,1385.91 466.991,1385.91 
  477.186,1385.91 487.381,1385.91 497.576,1385.91 507.771,1385.91 517.966,1385.91 
  528.161,1385.91 538.356,1385.91 548.551,1385.91 548.551,1303.08 558.746,1303.08 568.941,1303.08 
  579.136,1303.08 589.331,1303.08 599.526,1303.08 609.721,1303.08 619.916,1303.08 
  630.111,1303.08 640.306,1303.08 650.501,1303.08 660.696,1303.08 670.891,1303.08 
  681.086,1303.08 691.281,1303.08 701.475,1303.08 711.67,1303.08 721.865,1303.08 
  721.865,1220.25 732.06,1220.25 742.255,1220.25 752.45,1220.25 762.645,1220.25 772.84,1220.25 
  783.035,1220.25 793.23,1220.25 803.425,1220.25 813.62,1220.25 823.815,1220.25 
  834.01,1220.25 844.205,1220.25 854.4,1220.25 854.4,1137.42 864.595,1137.42 874.79,1137.42 
  884.985,1137.42 895.18,1137.42 905.375,1137.42 915.57,1137.42 925.765,1137.42 
  935.96,1137.42 946.155,1137.42 956.35,1137.42 966.545,1137.42 976.74,1137.42 
  986.935,1137.42 997.13,1137.42 1007.32,1137.42 1017.52,1137.42 1027.71,1137.42 
  1037.91,1137.42 1048.1,1137.42 1058.3,1137.42 1068.49,1137.42 1078.69,1137.42 
  1088.88,1137.42 1099.08,1137.42 1109.27,1137.42 1119.47,1137.42 1129.66,1137.42 
  1139.86,1137.42 1139.86,1054.59 1150.05,1054.59 1160.25,1054.59 1170.44,1054.59 1180.64,1054.59 
  1190.83,1054.59 1201.03,1054.59 1211.22,1054.59 1221.42,1054.59 1231.61,1054.59 
  1241.81,1054.59 1252,1054.59 1262.2,1054.59 1262.2,971.76 1272.39,971.76 1282.59,971.76 
  1292.78,971.76 1302.98,971.76 1313.17,971.76 1323.37,971.76 1333.56,971.76 
  1343.76,971.76 1353.95,971.76 1364.15,971.76 1374.34,971.76 1384.54,971.76 
  1394.73,971.76 1404.93,971.76 1404.93,888.93 1415.12,888.93 1425.32,888.93 1435.51,888.93 
  1445.71,888.93 1455.9,888.93 1466.1,888.93 1476.29,888.93 1486.49,888.93 
  1496.68,888.93 1506.88,888.93 1517.07,888.93 1527.27,888.93 1537.46,888.93 
  1547.66,888.93 1557.85,888.93 1568.05,888.93 1578.24,888.93 1588.44,888.93 
  1598.63,888.93 1608.83,888.93 1619.02,888.93 1629.22,888.93 1639.41,888.93 
  1649.61,888.93 1659.8,888.93 1670,888.93 1670,806.101 1680.19,806.101 1690.39,806.101 
  1700.58,806.101 1710.78,806.101 1720.97,806.101 1731.17,806.101 1741.36,806.101 
  1751.56,806.101 1761.75,806.101 1771.95,806.101 1782.14,806.101 1792.34,806.101 
  1802.53,806.101 1812.73,806.101 1822.92,806.101 1833.12,806.101 1843.31,806.101 
  1843.31,723.271 1853.51,723.271 1863.7,723.271 1873.9,723.271 1884.09,723.271 1894.29,723.271 
  1904.48,723.271 1914.68,723.271 1924.87,723.271 1935.07,723.271 1945.26,723.271 
  1955.46,723.271 1965.65,723.271 1975.85,723.271 1986.04,723.271 1996.24,723.271 
  2006.43,723.271 2016.63,723.271 2026.82,723.271 2037.02,723.271 2047.21,723.271 
  2057.41,723.271 2067.6,723.271 2077.8,723.271 2087.99,723.271 2098.19,723.271 
  2108.38,723.271 2108.38,640.442 2118.58,640.442 2128.77,640.442 2138.97,640.442 2149.16,640.442 
  2159.36,640.442 2169.55,640.442 2179.75,640.442 2189.94,640.442 2200.14,640.442 
  2210.33,640.442 2220.53,640.442 2230.72,640.442 2240.92,640.442 2251.11,640.442 
  2261.31,640.442 2271.5,640.442 2281.7,640.442 2291.89,640.442 
  "/>
<polyline clip-path="url(#clip092)" style="stroke:#3da44d; stroke-linecap:butt; stroke-linejoin:round; stroke-width:4; stroke-opacity:1; fill:none" points="
  263.091,1385.91 273.286,1385.91 283.481,1385.91 293.676,1385.91 303.871,1385.91 314.066,1385.91 
  324.261,1385.91 334.456,1385.91 344.651,1385.91 354.846,1385.91 365.041,1385.91 
  375.236,1385.91 385.431,1385.91 395.626,1385.91 405.821,1385.91 416.016,1385.91 
  426.211,1385.91 436.406,1385.91 446.601,1385.91 456.796,1385.91 466.991,1385.91 
  477.186,1385.91 487.381,1385.91 497.576,1385.91 497.576,1303.08 507.771,1303.08 517.966,1303.08 
  528.161,1303.08 538.356,1303.08 548.551,1303.08 558.746,1303.08 568.941,1303.08 
  579.136,1303.08 589.331,1303.08 599.526,1303.08 609.721,1303.08 619.916,1303.08 
  630.111,1303.08 640.306,1303.08 650.501,1303.08 660.696,1303.08 670.891,1303.08 
  681.086,1303.08 691.281,1303.08 701.475,1303.08 711.67,1303.08 721.865,1303.08 
  732.06,1303.08 742.255,1303.08 752.45,1303.08 762.645,1303.08 772.84,1303.08 
  783.035,1303.08 793.23,1303.08 803.425,1303.08 803.425,1220.25 813.62,1220.25 823.815,1220.25 
  834.01,1220.25 844.205,1220.25 854.4,1220.25 864.595,1220.25 874.79,1220.25 
  884.985,1220.25 895.18,1220.25 905.375,1220.25 915.57,1220.25 925.765,1220.25 
  935.96,1220.25 946.155,1220.25 956.35,1220.25 966.545,1220.25 976.74,1220.25 
  976.74,1137.42 986.935,1137.42 997.13,1137.42 1007.32,1137.42 1017.52,1137.42 1027.71,1137.42 
  1037.91,1137.42 1048.1,1137.42 1058.3,1137.42 1068.49,1137.42 1078.69,1137.42 
  1088.88,1137.42 1099.08,1137.42 1109.27,1137.42 1119.47,1137.42 1129.66,1137.42 
  1139.86,1137.42 1150.05,1137.42 1160.25,1137.42 1170.44,1137.42 1180.64,1137.42 
  1190.83,1137.42 1201.03,1137.42 1211.22,1137.42 1211.22,1054.59 1221.42,1054.59 1231.61,1054.59 
  1241.81,1054.59 1252,1054.59 1262.2,1054.59 1272.39,1054.59 1282.59,1054.59 
  1292.78,1054.59 1302.98,1054.59 1313.17,1054.59 1323.37,1054.59 1333.56,1054.59 
  1343.76,1054.59 1353.95,1054.59 1364.15,1054.59 1374.34,1054.59 1384.54,1054.59 
  1394.73,1054.59 1404.93,1054.59 1404.93,971.76 1415.12,971.76 1425.32,971.76 1435.51,971.76 
  1445.71,971.76 1455.9,971.76 1466.1,971.76 1476.29,971.76 1486.49,971.76 
  1496.68,971.76 1506.88,971.76 1517.07,971.76 1527.27,971.76 1537.46,971.76 
  1547.66,971.76 1557.85,971.76 1568.05,971.76 1578.24,971.76 1588.44,971.76 
  1598.63,971.76 1608.83,971.76 1619.02,971.76 1629.22,971.76 1629.22,888.93 1639.41,888.93 
  1649.61,888.93 1659.8,888.93 1670,888.93 1680.19,888.93 1690.39,888.93 
  1700.58,888.93 1710.78,888.93 1720.97,888.93 1731.17,888.93 1741.36,888.93 
  1751.56,888.93 1761.75,888.93 1771.95,888.93 1782.14,888.93 1792.34,888.93 
  1802.53,888.93 1812.73,888.93 1822.92,888.93 1822.92,806.101 1833.12,806.101 1843.31,806.101 
  1853.51,806.101 1863.7,806.101 1873.9,806.101 1884.09,806.101 1894.29,806.101 
  1904.48,806.101 1914.68,806.101 1924.87,806.101 1935.07,806.101 1945.26,806.101 
  1955.46,806.101 1965.65,806.101 1975.85,806.101 1986.04,806.101 1996.24,806.101 
  1996.24,723.271 2006.43,723.271 2016.63,723.271 2026.82,723.271 2037.02,723.271 2047.21,723.271 
  2057.41,723.271 2067.6,723.271 2077.8,723.271 2087.99,723.271 2098.19,723.271 
  2108.38,723.271 2118.58,723.271 2128.77,723.271 2138.97,723.271 2149.16,723.271 
  2159.36,723.271 2169.55,723.271 2179.75,723.271 2189.94,723.271 2200.14,723.271 
  2200.14,640.442 2210.33,640.442 2220.53,640.442 2230.72,640.442 2240.92,640.442 2251.11,640.442 
  2261.31,640.442 2271.5,640.442 2281.7,640.442 2291.89,640.442 
  "/>
<polyline clip-path="url(#clip092)" style="stroke:#c271d2; stroke-linecap:butt; stroke-linejoin:round; stroke-width:4; stroke-opacity:1; fill:none" points="
  263.091,1385.91 273.286,1385.91 283.481,1385.91 293.676,1385.91 303.871,1385.91 314.066,1385.91 
  324.261,1385.91 334.456,1385.91 344.651,1385.91 354.846,1385.91 365.041,1385.91 
  375.236,1385.91 385.431,1385.91 395.626,1385.91 405.821,1385.91 416.016,1385.91 
  426.211,1385.91 436.406,1385.91 446.601,1385.91 456.796,1385.91 466.991,1385.91 
  477.186,1385.91 487.381,1385.91 497.576,1385.91 507.771,1385.91 507.771,1303.08 517.966,1303.08 
  528.161,1303.08 538.356,1303.08 548.551,1303.08 558.746,1303.08 568.941,1303.08 
  579.136,1303.08 589.331,1303.08 599.526,1303.08 609.721,1303.08 619.916,1303.08 
  630.111,1303.08 640.306,1303.08 650.501,1303.08 660.696,1303.08 670.891,1303.08 
  681.086,1303.08 691.281,1303.08 701.475,1303.08 711.67,1303.08 721.865,1303.08 
  732.06,1303.08 742.255,1303.08 752.45,1303.08 762.645,1303.08 772.84,1303.08 
  772.84,1220.25 783.035,1220.25 793.23,1220.25 803.425,1220.25 813.62,1220.25 823.815,1220.25 
  834.01,1220.25 844.205,1220.25 854.4,1220.25 864.595,1220.25 874.79,1220.25 
  884.985,1220.25 895.18,1220.25 905.375,1220.25 915.57,1220.25 925.765,1220.25 
  935.96,1220.25 946.155,1220.25 956.35,1220.25 966.545,1220.25 976.74,1220.25 
  986.935,1220.25 997.13,1220.25 997.13,1137.42 1007.32,1137.42 1017.52,1137.42 1027.71,1137.42 
  1037.91,1137.42 1048.1,1137.42 1058.3,1137.42 1068.49,1137.42 1078.69,1137.42 
  1088.88,1137.42 1099.08,1137.42 1099.08,1054.59 1109.27,1054.59 1119.47,1054.59 1129.66,1054.59 
  1139.86,1054.59 1150.05,1054.59 1160.25,1054.59 1170.44,1054.59 1180.64,1054.59 
  1190.83,1054.59 1201.03,1054.59 1211.22,1054.59 1221.42,1054.59 1221.42,971.76 1231.61,971.76 
  1241.81,971.76 1252,971.76 1262.2,971.76 1272.39,971.76 1282.59,971.76 
  1292.78,971.76 1302.98,971.76 1313.17,971.76 1323.37,971.76 1333.56,971.76 
  1343.76,971.76 1353.95,971.76 1364.15,971.76 1374.34,971.76 1384.54,971.76 
  1394.73,971.76 1404.93,971.76 1415.12,971.76 1425.32,971.76 1435.51,971.76 
  1445.71,971.76 1455.9,971.76 1466.1,971.76 1476.29,971.76 1476.29,888.93 1486.49,888.93 
  1496.68,888.93 1506.88,888.93 1517.07,888.93 1527.27,888.93 1537.46,888.93 
  1547.66,888.93 1557.85,888.93 1568.05,888.93 1578.24,888.93 1588.44,888.93 
  1598.63,888.93 1608.83,888.93 1619.02,888.93 1629.22,888.93 1629.22,806.101 1639.41,806.101 
  1649.61,806.101 1659.8,806.101 1670,806.101 1680.19,806.101 1690.39,806.101 
  1700.58,806.101 1710.78,806.101 1720.97,806.101 1731.17,806.101 1741.36,806.101 
  1751.56,806.101 1751.56,723.271 1761.75,723.271 1771.95,723.271 1782.14,723.271 1792.34,723.271 
  1802.53,723.271 1812.73,723.271 1822.92,723.271 1833.12,723.271 1843.31,723.271 
  1853.51,723.271 1863.7,723.271 1873.9,723.271 1873.9,640.442 1884.09,640.442 1894.29,640.442 
  1904.48,640.442 1914.68,640.442 1924.87,640.442 1935.07,640.442 1945.26,640.442 
  1955.46,640.442 1965.65,640.442 1975.85,640.442 1986.04,640.442 1996.24,640.442 
  2006.43,640.442 2016.63,640.442 2026.82,640.442 2037.02,640.442 2047.21,640.442 
  2057.41,640.442 2057.41,557.612 2067.6,557.612 2077.8,557.612 2087.99,557.612 2098.19,557.612 
  2108.38,557.612 2118.58,557.612 2128.77,557.612 2138.97,557.612 2149.16,557.612 
  2159.36,557.612 2169.55,557.612 2179.75,557.612 2189.94,557.612 2200.14,557.612 
  2210.33,557.612 2210.33,474.783 2220.53,474.783 2230.72,474.783 2240.92,474.783 2251.11,474.783 
  2261.31,474.783 2271.5,474.783 2281.7,474.783 2291.89,474.783 
  "/>
<polyline clip-path="url(#clip092)" style="stroke:#ac8d18; stroke-linecap:butt; stroke-linejoin:round; stroke-width:4; stroke-opacity:1; fill:none" points="
  263.091,1385.91 273.286,1385.91 283.481,1385.91 293.676,1385.91 303.871,1385.91 314.066,1385.91 
  324.261,1385.91 334.456,1385.91 344.651,1385.91 354.846,1385.91 365.041,1385.91 
  375.236,1385.91 385.431,1385.91 395.626,1385.91 405.821,1385.91 416.016,1385.91 
  416.016,1303.08 426.211,1303.08 436.406,1303.08 446.601,1303.08 456.796,1303.08 466.991,1303.08 
  477.186,1303.08 487.381,1303.08 497.576,1303.08 507.771,1303.08 517.966,1303.08 
  528.161,1303.08 538.356,1303.08 548.551,1303.08 558.746,1303.08 568.941,1303.08 
  579.136,1303.08 589.331,1303.08 599.526,1303.08 609.721,1303.08 619.916,1303.08 
  630.111,1303.08 640.306,1303.08 650.501,1303.08 660.696,1303.08 670.891,1303.08 
  681.086,1303.08 681.086,1220.25 691.281,1220.25 701.475,1220.25 711.67,1220.25 721.865,1220.25 
  732.06,1220.25 742.255,1220.25 752.45,1220.25 762.645,1220.25 772.84,1220.25 
  783.035,1220.25 793.23,1220.25 803.425,1220.25 813.62,1220.25 823.815,1220.25 
  834.01,1220.25 844.205,1220.25 854.4,1220.25 864.595,1220.25 874.79,1220.25 
  884.985,1220.25 895.18,1220.25 905.375,1220.25 905.375,1137.42 915.57,1137.42 925.765,1137.42 
  935.96,1137.42 946.155,1137.42 956.35,1137.42 966.545,1137.42 976.74,1137.42 
  986.935,1137.42 997.13,1137.42 1007.32,1137.42 1017.52,1137.42 1027.71,1137.42 
  1037.91,1137.42 1048.1,1137.42 1058.3,1137.42 1068.49,1137.42 1078.69,1137.42 
  1088.88,1137.42 1088.88,1054.59 1099.08,1054.59 1109.27,1054.59 1119.47,1054.59 1129.66,1054.59 
  1139.86,1054.59 1150.05,1054.59 1160.25,1054.59 1170.44,1054.59 1180.64,1054.59 
  1190.83,1054.59 1201.03,1054.59 1211.22,1054.59 1221.42,1054.59 1231.61,1054.59 
  1241.81,1054.59 1252,1054.59 1262.2,1054.59 1272.39,1054.59 1282.59,1054.59 
  1292.78,1054.59 1302.98,1054.59 1313.17,1054.59 1313.17,971.76 1323.37,971.76 1333.56,971.76 
  1343.76,971.76 1353.95,971.76 1364.15,971.76 1374.34,971.76 1384.54,971.76 
  1394.73,971.76 1404.93,971.76 1415.12,971.76 1425.32,971.76 1435.51,971.76 
  1445.71,971.76 1455.9,971.76 1466.1,971.76 1476.29,971.76 1476.29,888.93 1486.49,888.93 
  1496.68,888.93 1506.88,888.93 1517.07,888.93 1527.27,888.93 1537.46,888.93 
  1547.66,888.93 1557.85,888.93 1568.05,888.93 1578.24,888.93 1588.44,888.93 
  1598.63,888.93 1608.83,888.93 1608.83,806.101 1619.02,806.101 1629.22,806.101 1639.41,806.101 
  1649.61,806.101 1659.8,806.101 1670,806.101 1680.19,806.101 1690.39,806.101 
  1700.58,806.101 1710.78,806.101 1720.97,806.101 1731.17,806.101 1741.36,806.101 
  1751.56,806.101 1761.75,806.101 1771.95,806.101 1782.14,806.101 1792.34,806.101 
  1802.53,806.101 1812.73,806.101 1822.92,806.101 1833.12,806.101 1843.31,806.101 
  1853.51,806.101 1863.7,806.101 1873.9,806.101 1884.09,806.101 1884.09,723.271 1894.29,723.271 
  1904.48,723.271 1914.68,723.271 1924.87,723.271 1935.07,723.271 1945.26,723.271 
  1955.46,723.271 1965.65,723.271 1975.85,723.271 1986.04,723.271 1996.24,723.271 
  2006.43,723.271 2016.63,723.271 2026.82,723.271 2037.02,723.271 2047.21,723.271 
  2057.41,723.271 2067.6,723.271 2077.8,723.271 2087.99,723.271 2098.19,723.271 
  2108.38,723.271 2118.58,723.271 2128.77,723.271 2138.97,723.271 2149.16,723.271 
  2159.36,723.271 2169.55,723.271 2169.55,640.442 2179.75,640.442 2189.94,640.442 2200.14,640.442 
  2210.33,640.442 2220.53,640.442 2230.72,640.442 2240.92,640.442 2251.11,640.442 
  2261.31,640.442 2271.5,640.442 2281.7,640.442 2291.89,640.442 2291.89,557.612 
  "/>
</svg>
