<?xml version="1.0" encoding="utf-8"?>
<svg xmlns="http://www.w3.org/2000/svg" xmlns:xlink="http://www.w3.org/1999/xlink" width="600" height="400" viewBox="0 0 2400 1600">
<defs>
  <clipPath id="clip560">
    <rect x="0" y="0" width="2400" height="1600"/>
  </clipPath>
</defs>
<path clip-path="url(#clip560)" d="
M0 1600 L2400 1600 L2400 0 L0 0  Z
  " fill="#ffffff" fill-rule="evenodd" fill-opacity="1"/>
<defs>
  <clipPath id="clip561">
    <rect x="480" y="0" width="1681" height="1600"/>
  </clipPath>
</defs>
<path clip-path="url(#clip560)" d="
M251.372 1410.9 L2352.76 1410.9 L2352.76 166.672 L251.372 166.672  Z
  " fill="#eaeaea" fill-rule="evenodd" fill-opacity="1"/>
<defs>
  <clipPath id="clip562">
    <rect x="251" y="166" width="2102" height="1245"/>
  </clipPath>
</defs>
<polyline clip-path="url(#clip562)" style="stroke:#ffffff; stroke-linecap:butt; stroke-linejoin:round; stroke-width:4; stroke-opacity:1; fill:none" points="
  838.418,1410.9 838.418,166.672 
  "/>
<polyline clip-path="url(#clip562)" style="stroke:#ffffff; stroke-linecap:butt; stroke-linejoin:round; stroke-width:4; stroke-opacity:1; fill:none" points="
  1493.27,1410.9 1493.27,166.672 
  "/>
<polyline clip-path="url(#clip562)" style="stroke:#ffffff; stroke-linecap:butt; stroke-linejoin:round; stroke-width:4; stroke-opacity:1; fill:none" points="
  2148.12,1410.9 2148.12,166.672 
  "/>
<polyline clip-path="url(#clip560)" style="stroke:#ffffff; stroke-linecap:butt; stroke-linejoin:round; stroke-width:4; stroke-opacity:1; fill:none" points="
  251.372,1410.9 2352.76,1410.9 
  "/>
<polyline clip-path="url(#clip560)" style="stroke:#333333; stroke-linecap:butt; stroke-linejoin:round; stroke-width:4; stroke-opacity:1; fill:none" points="
  838.418,1410.9 838.418,1429.79 
  "/>
<polyline clip-path="url(#clip560)" style="stroke:#333333; stroke-linecap:butt; stroke-linejoin:round; stroke-width:4; stroke-opacity:1; fill:none" points="
  1493.27,1410.9 1493.27,1429.79 
  "/>
<polyline clip-path="url(#clip560)" style="stroke:#333333; stroke-linecap:butt; stroke-linejoin:round; stroke-width:4; stroke-opacity:1; fill:none" points="
  2148.12,1410.9 2148.12,1429.79 
  "/>
<path clip-path="url(#clip560)" d="M770.065 1494.62 L777.703 1494.62 L777.703 1468.26 L769.393 1469.92 L769.393 1465.66 L777.657 1464 L782.333 1464 L782.333 1494.62 L789.972 1494.62 L789.972 1498.56 L770.065 1498.56 L770.065 1494.62 Z" fill="#4c4c4c" fill-rule="evenodd" fill-opacity="1" /><path clip-path="url(#clip560)" d="M809.416 1467.08 Q805.805 1467.08 803.976 1470.64 Q802.171 1474.18 802.171 1481.31 Q802.171 1488.42 803.976 1491.98 Q805.805 1495.52 809.416 1495.52 Q813.05 1495.52 814.856 1491.98 Q816.685 1488.42 816.685 1481.31 Q816.685 1474.18 814.856 1470.64 Q813.05 1467.08 809.416 1467.08 M809.416 1463.37 Q815.226 1463.37 818.282 1467.98 Q821.361 1472.56 821.361 1481.31 Q821.361 1490.04 818.282 1494.64 Q815.226 1499.23 809.416 1499.23 Q803.606 1499.23 800.527 1494.64 Q797.472 1490.04 797.472 1481.31 Q797.472 1472.56 800.527 1467.98 Q803.606 1463.37 809.416 1463.37 Z" fill="#4c4c4c" fill-rule="evenodd" fill-opacity="1" /><path clip-path="url(#clip560)" d="M821.361 1457.47 L845.472 1457.47 L845.472 1460.67 L821.361 1460.67 L821.361 1457.47 Z" fill="#4c4c4c" fill-rule="evenodd" fill-opacity="1" /><path clip-path="url(#clip560)" d="M856.945 1467.95 L870.204 1467.95 L870.204 1471.15 L852.375 1471.15 L852.375 1467.95 Q854.537 1465.71 858.261 1461.95 Q862.004 1458.17 862.963 1457.08 Q864.788 1455.03 865.502 1453.62 Q866.236 1452.19 866.236 1450.82 Q866.236 1448.58 864.656 1447.17 Q863.095 1445.76 860.575 1445.76 Q858.788 1445.76 856.794 1446.38 Q854.82 1447 852.563 1448.26 L852.563 1444.42 Q854.857 1443.5 856.851 1443.03 Q858.844 1442.56 860.5 1442.56 Q864.863 1442.56 867.458 1444.74 Q870.054 1446.92 870.054 1450.57 Q870.054 1452.3 869.396 1453.86 Q868.756 1455.4 867.045 1457.51 Q866.574 1458.06 864.054 1460.67 Q861.534 1463.27 856.945 1467.95 Z" fill="#4c4c4c" fill-rule="evenodd" fill-opacity="1" /><path clip-path="url(#clip560)" d="M878.179 1466.37 L882.147 1466.37 L882.147 1471.15 L878.179 1471.15 L878.179 1466.37 Z" fill="#4c4c4c" fill-rule="evenodd" fill-opacity="1" /><path clip-path="url(#clip560)" d="M890.46 1443.07 L905.375 1443.07 L905.375 1446.26 L893.94 1446.26 L893.94 1453.15 Q894.767 1452.87 895.595 1452.73 Q896.422 1452.58 897.25 1452.58 Q901.952 1452.58 904.698 1455.16 Q907.444 1457.74 907.444 1462.14 Q907.444 1466.67 904.623 1469.19 Q901.801 1471.69 896.667 1471.69 Q894.899 1471.69 893.056 1471.39 Q891.231 1471.09 889.275 1470.49 L889.275 1466.67 Q890.968 1467.59 892.774 1468.04 Q894.579 1468.49 896.592 1468.49 Q899.845 1468.49 901.745 1466.78 Q903.645 1465.07 903.645 1462.14 Q903.645 1459.2 901.745 1457.49 Q899.845 1455.78 896.592 1455.78 Q895.068 1455.78 893.545 1456.12 Q892.04 1456.46 890.46 1457.17 L890.46 1443.07 Z" fill="#4c4c4c" fill-rule="evenodd" fill-opacity="1" /><path clip-path="url(#clip560)" d="M1424.51 1494.62 L1432.15 1494.62 L1432.15 1468.26 L1423.84 1469.92 L1423.84 1465.66 L1432.11 1464 L1436.78 1464 L1436.78 1494.62 L1444.42 1494.62 L1444.42 1498.56 L1424.51 1498.56 L1424.51 1494.62 Z" fill="#4c4c4c" fill-rule="evenodd" fill-opacity="1" /><path clip-path="url(#clip560)" d="M1463.86 1467.08 Q1460.25 1467.08 1458.42 1470.64 Q1456.62 1474.18 1456.62 1481.31 Q1456.62 1488.42 1458.42 1491.98 Q1460.25 1495.52 1463.86 1495.52 Q1467.5 1495.52 1469.3 1491.98 Q1471.13 1488.42 1471.13 1481.31 Q1471.13 1474.18 1469.3 1470.64 Q1467.5 1467.08 1463.86 1467.08 M1463.86 1463.37 Q1469.67 1463.37 1472.73 1467.98 Q1475.81 1472.56 1475.81 1481.31 Q1475.81 1490.04 1472.73 1494.64 Q1469.67 1499.23 1463.86 1499.23 Q1458.05 1499.23 1454.98 1494.64 Q1451.92 1490.04 1451.92 1481.31 Q1451.92 1472.56 1454.98 1467.98 Q1458.05 1463.37 1463.86 1463.37 Z" fill="#4c4c4c" fill-rule="evenodd" fill-opacity="1" /><path clip-path="url(#clip560)" d="M1475.81 1457.47 L1499.92 1457.47 L1499.92 1460.67 L1475.81 1460.67 L1475.81 1457.47 Z" fill="#4c4c4c" fill-rule="evenodd" fill-opacity="1" /><path clip-path="url(#clip560)" d="M1511.39 1467.95 L1524.65 1467.95 L1524.65 1471.15 L1506.82 1471.15 L1506.82 1467.95 Q1508.99 1465.71 1512.71 1461.95 Q1516.45 1458.17 1517.41 1457.08 Q1519.24 1455.03 1519.95 1453.62 Q1520.68 1452.19 1520.68 1450.82 Q1520.68 1448.58 1519.1 1447.17 Q1517.54 1445.76 1515.02 1445.76 Q1513.24 1445.76 1511.24 1446.38 Q1509.27 1447 1507.01 1448.26 L1507.01 1444.42 Q1509.31 1443.5 1511.3 1443.03 Q1513.29 1442.56 1514.95 1442.56 Q1519.31 1442.56 1521.91 1444.74 Q1524.5 1446.92 1524.5 1450.57 Q1524.5 1452.3 1523.84 1453.86 Q1523.2 1455.4 1521.49 1457.51 Q1521.02 1458.06 1518.5 1460.67 Q1515.98 1463.27 1511.39 1467.95 Z" fill="#4c4c4c" fill-rule="evenodd" fill-opacity="1" /><path clip-path="url(#clip560)" d="M1532.63 1466.37 L1536.6 1466.37 L1536.6 1471.15 L1532.63 1471.15 L1532.63 1466.37 Z" fill="#4c4c4c" fill-rule="evenodd" fill-opacity="1" /><path clip-path="url(#clip560)" d="M1553 1445.57 Q1550.06 1445.57 1548.58 1448.46 Q1547.11 1451.34 1547.11 1457.13 Q1547.11 1462.91 1548.58 1465.8 Q1550.06 1468.68 1553 1468.68 Q1555.95 1468.68 1557.42 1465.8 Q1558.9 1462.91 1558.9 1457.13 Q1558.9 1451.34 1557.42 1448.46 Q1555.95 1445.57 1553 1445.57 M1553 1442.56 Q1557.72 1442.56 1560.2 1446.3 Q1562.7 1450.03 1562.7 1457.13 Q1562.7 1464.22 1560.2 1467.97 Q1557.72 1471.69 1553 1471.69 Q1548.27 1471.69 1545.77 1467.97 Q1543.29 1464.22 1543.29 1457.13 Q1543.29 1450.03 1545.77 1446.3 Q1548.27 1442.56 1553 1442.56 Z" fill="#4c4c4c" fill-rule="evenodd" fill-opacity="1" /><path clip-path="url(#clip560)" d="M2079.77 1494.62 L2087.41 1494.62 L2087.41 1468.26 L2079.1 1469.92 L2079.1 1465.66 L2087.36 1464 L2092.04 1464 L2092.04 1494.62 L2099.68 1494.62 L2099.68 1498.56 L2079.77 1498.56 L2079.77 1494.62 Z" fill="#4c4c4c" fill-rule="evenodd" fill-opacity="1" /><path clip-path="url(#clip560)" d="M2119.12 1467.08 Q2115.51 1467.08 2113.68 1470.64 Q2111.88 1474.18 2111.88 1481.31 Q2111.88 1488.42 2113.68 1491.98 Q2115.51 1495.52 2119.12 1495.52 Q2122.76 1495.52 2124.56 1491.98 Q2126.39 1488.42 2126.39 1481.31 Q2126.39 1474.18 2124.56 1470.64 Q2122.76 1467.08 2119.12 1467.08 M2119.12 1463.37 Q2124.93 1463.37 2127.99 1467.98 Q2131.07 1472.56 2131.07 1481.31 Q2131.07 1490.04 2127.99 1494.64 Q2124.93 1499.23 2119.12 1499.23 Q2113.31 1499.23 2110.23 1494.64 Q2107.18 1490.04 2107.18 1481.31 Q2107.18 1472.56 2110.23 1467.98 Q2113.31 1463.37 2119.12 1463.37 Z" fill="#4c4c4c" fill-rule="evenodd" fill-opacity="1" /><path clip-path="url(#clip560)" d="M2131.07 1457.47 L2155.18 1457.47 L2155.18 1460.67 L2131.07 1460.67 L2131.07 1457.47 Z" fill="#4c4c4c" fill-rule="evenodd" fill-opacity="1" /><path clip-path="url(#clip560)" d="M2164.04 1467.95 L2170.24 1467.95 L2170.24 1446.53 L2163.49 1447.88 L2163.49 1444.42 L2170.2 1443.07 L2174 1443.07 L2174 1467.95 L2180.21 1467.95 L2180.21 1471.15 L2164.04 1471.15 L2164.04 1467.95 Z" fill="#4c4c4c" fill-rule="evenodd" fill-opacity="1" /><path clip-path="url(#clip560)" d="M2187.88 1466.37 L2191.85 1466.37 L2191.85 1471.15 L2187.88 1471.15 L2187.88 1466.37 Z" fill="#4c4c4c" fill-rule="evenodd" fill-opacity="1" /><path clip-path="url(#clip560)" d="M2200.16 1443.07 L2215.08 1443.07 L2215.08 1446.26 L2203.64 1446.26 L2203.64 1453.15 Q2204.47 1452.87 2205.3 1452.73 Q2206.13 1452.58 2206.95 1452.58 Q2211.66 1452.58 2214.4 1455.16 Q2217.15 1457.74 2217.15 1462.14 Q2217.15 1466.67 2214.33 1469.19 Q2211.51 1471.69 2206.37 1471.69 Q2204.6 1471.69 2202.76 1471.39 Q2200.94 1471.09 2198.98 1470.49 L2198.98 1466.67 Q2200.67 1467.59 2202.48 1468.04 Q2204.28 1468.49 2206.3 1468.49 Q2209.55 1468.49 2211.45 1466.78 Q2213.35 1465.07 2213.35 1462.14 Q2213.35 1459.2 2211.45 1457.49 Q2209.55 1455.78 2206.3 1455.78 Q2204.77 1455.78 2203.25 1456.12 Q2201.74 1456.46 2200.16 1457.17 L2200.16 1443.07 Z" fill="#4c4c4c" fill-rule="evenodd" fill-opacity="1" /><path clip-path="url(#clip560)" d="M1289.79 1533 L1276.74 1568.84 L1302.88 1568.84 L1289.79 1533 M1268.02 1574.19 L1286.17 1526.67 L1293.45 1526.67 L1311.56 1574.19 L1268.02 1574.19 Z" fill="#000000" fill-rule="evenodd" fill-opacity="1" /><path clip-path="url(#clip560)" d="M1324.04 1528.42 L1324.04 1538.54 L1336.1 1538.54 L1336.1 1543.09 L1324.04 1543.09 L1324.04 1562.44 Q1324.04 1566.8 1325.22 1568.04 Q1326.43 1569.28 1330.09 1569.28 L1336.1 1569.28 L1336.1 1574.19 L1330.09 1574.19 Q1323.31 1574.19 1320.73 1571.67 Q1318.15 1569.12 1318.15 1562.44 L1318.15 1543.09 L1313.86 1543.09 L1313.86 1538.54 L1318.15 1538.54 L1318.15 1528.42 L1324.04 1528.42 Z" fill="#000000" fill-rule="evenodd" fill-opacity="1" /><polyline clip-path="url(#clip562)" style="stroke:#ffffff; stroke-linecap:butt; stroke-linejoin:round; stroke-width:4; stroke-opacity:1; fill:none" points="
  251.372,1178.33 2352.76,1178.33 
  "/>
<polyline clip-path="url(#clip562)" style="stroke:#ffffff; stroke-linecap:butt; stroke-linejoin:round; stroke-width:4; stroke-opacity:1; fill:none" points="
  251.372,838.727 2352.76,838.727 
  "/>
<polyline clip-path="url(#clip562)" style="stroke:#ffffff; stroke-linecap:butt; stroke-linejoin:round; stroke-width:4; stroke-opacity:1; fill:none" points="
  251.372,499.128 2352.76,499.128 
  "/>
<polyline clip-path="url(#clip562)" style="stroke:#ffffff; stroke-linecap:butt; stroke-linejoin:round; stroke-width:2; stroke-opacity:1; fill:none" points="
  251.372,1266.5 2352.76,1266.5 
  "/>
<polyline clip-path="url(#clip562)" style="stroke:#ffffff; stroke-linecap:butt; stroke-linejoin:round; stroke-width:2; stroke-opacity:1; fill:none" points="
  251.372,926.899 2352.76,926.899 
  "/>
<polyline clip-path="url(#clip562)" style="stroke:#ffffff; stroke-linecap:butt; stroke-linejoin:round; stroke-width:2; stroke-opacity:1; fill:none" points="
  251.372,587.301 2352.76,587.301 
  "/>
<polyline clip-path="url(#clip562)" style="stroke:#ffffff; stroke-linecap:butt; stroke-linejoin:round; stroke-width:2; stroke-opacity:1; fill:none" points="
  251.372,247.702 2352.76,247.702 
  "/>
<polyline clip-path="url(#clip560)" style="stroke:#ffffff; stroke-linecap:butt; stroke-linejoin:round; stroke-width:4; stroke-opacity:1; fill:none" points="
  251.372,1410.9 251.372,166.672 
  "/>
<polyline clip-path="url(#clip560)" style="stroke:#333333; stroke-linecap:butt; stroke-linejoin:round; stroke-width:4; stroke-opacity:1; fill:none" points="
  251.372,1178.33 232.475,1178.33 
  "/>
<polyline clip-path="url(#clip560)" style="stroke:#333333; stroke-linecap:butt; stroke-linejoin:round; stroke-width:4; stroke-opacity:1; fill:none" points="
  251.372,838.727 232.475,838.727 
  "/>
<polyline clip-path="url(#clip560)" style="stroke:#333333; stroke-linecap:butt; stroke-linejoin:round; stroke-width:4; stroke-opacity:1; fill:none" points="
  251.372,499.128 232.475,499.128 
  "/>
<polyline clip-path="url(#clip560)" style="stroke:#333333; stroke-linecap:butt; stroke-linejoin:round; stroke-width:4; stroke-opacity:1; fill:none" points="
  251.372,1266.5 241.923,1266.5 
  "/>
<polyline clip-path="url(#clip560)" style="stroke:#333333; stroke-linecap:butt; stroke-linejoin:round; stroke-width:4; stroke-opacity:1; fill:none" points="
  251.372,926.899 241.923,926.899 
  "/>
<polyline clip-path="url(#clip560)" style="stroke:#333333; stroke-linecap:butt; stroke-linejoin:round; stroke-width:4; stroke-opacity:1; fill:none" points="
  251.372,587.301 241.923,587.301 
  "/>
<polyline clip-path="url(#clip560)" style="stroke:#333333; stroke-linecap:butt; stroke-linejoin:round; stroke-width:4; stroke-opacity:1; fill:none" points="
  251.372,247.702 241.923,247.702 
  "/>
<path clip-path="url(#clip560)" d="M96.9315 1198.12 L104.57 1198.12 L104.57 1171.75 L96.2602 1173.42 L96.2602 1169.16 L104.524 1167.49 L109.2 1167.49 L109.2 1198.12 L116.839 1198.12 L116.839 1202.05 L96.9315 1202.05 L96.9315 1198.12 Z" fill="#4c4c4c" fill-rule="evenodd" fill-opacity="1" /><path clip-path="url(#clip560)" d="M136.283 1170.57 Q132.672 1170.57 130.843 1174.14 Q129.038 1177.68 129.038 1184.81 Q129.038 1191.91 130.843 1195.48 Q132.672 1199.02 136.283 1199.02 Q139.917 1199.02 141.723 1195.48 Q143.552 1191.91 143.552 1184.81 Q143.552 1177.68 141.723 1174.14 Q139.917 1170.57 136.283 1170.57 M136.283 1166.87 Q142.093 1166.87 145.149 1171.47 Q148.227 1176.06 148.227 1184.81 Q148.227 1193.53 145.149 1198.14 Q142.093 1202.72 136.283 1202.72 Q130.473 1202.72 127.394 1198.14 Q124.339 1193.53 124.339 1184.81 Q124.339 1176.06 127.394 1171.47 Q130.473 1166.87 136.283 1166.87 Z" fill="#4c4c4c" fill-rule="evenodd" fill-opacity="1" /><path clip-path="url(#clip560)" d="M148.227 1160.97 L172.339 1160.97 L172.339 1164.17 L148.227 1164.17 L148.227 1160.97 Z" fill="#4c4c4c" fill-rule="evenodd" fill-opacity="1" /><path clip-path="url(#clip560)" d="M181.197 1171.45 L187.404 1171.45 L187.404 1150.02 L180.652 1151.38 L180.652 1147.92 L187.366 1146.56 L191.166 1146.56 L191.166 1171.45 L197.372 1171.45 L197.372 1174.64 L181.197 1174.64 L181.197 1171.45 Z" fill="#4c4c4c" fill-rule="evenodd" fill-opacity="1" /><path clip-path="url(#clip560)" d="M126.667 858.519 L134.305 858.519 L134.305 832.154 L125.995 833.82 L125.995 829.561 L134.259 827.895 L138.935 827.895 L138.935 858.519 L146.574 858.519 L146.574 862.455 L126.667 862.455 L126.667 858.519 Z" fill="#4c4c4c" fill-rule="evenodd" fill-opacity="1" /><path clip-path="url(#clip560)" d="M166.018 830.973 Q162.407 830.973 160.578 834.538 Q158.773 838.08 158.773 845.209 Q158.773 852.316 160.578 855.88 Q162.407 859.422 166.018 859.422 Q169.652 859.422 171.458 855.88 Q173.287 852.316 173.287 845.209 Q173.287 838.08 171.458 834.538 Q169.652 830.973 166.018 830.973 M166.018 827.27 Q171.828 827.27 174.884 831.876 Q177.963 836.459 177.963 845.209 Q177.963 853.936 174.884 858.542 Q171.828 863.126 166.018 863.126 Q160.208 863.126 157.129 858.542 Q154.074 853.936 154.074 845.209 Q154.074 836.459 157.129 831.876 Q160.208 827.27 166.018 827.27 Z" fill="#4c4c4c" fill-rule="evenodd" fill-opacity="1" /><path clip-path="url(#clip560)" d="M187.667 809.466 Q184.733 809.466 183.248 812.362 Q181.781 815.24 181.781 821.032 Q181.781 826.806 183.248 829.703 Q184.733 832.58 187.667 832.58 Q190.62 832.58 192.087 829.703 Q193.573 826.806 193.573 821.032 Q193.573 815.24 192.087 812.362 Q190.62 809.466 187.667 809.466 M187.667 806.456 Q192.388 806.456 194.871 810.199 Q197.372 813.923 197.372 821.032 Q197.372 828.123 194.871 831.866 Q192.388 835.59 187.667 835.59 Q182.947 835.59 180.445 831.866 Q177.963 828.123 177.963 821.032 Q177.963 813.923 180.445 810.199 Q182.947 806.456 187.667 806.456 Z" fill="#4c4c4c" fill-rule="evenodd" fill-opacity="1" /><path clip-path="url(#clip560)" d="M129.356 518.921 L136.995 518.921 L136.995 492.555 L128.685 494.222 L128.685 489.963 L136.949 488.296 L141.624 488.296 L141.624 518.921 L149.263 518.921 L149.263 522.856 L129.356 522.856 L129.356 518.921 Z" fill="#4c4c4c" fill-rule="evenodd" fill-opacity="1" /><path clip-path="url(#clip560)" d="M168.708 491.375 Q165.097 491.375 163.268 494.939 Q161.462 498.481 161.462 505.611 Q161.462 512.717 163.268 516.282 Q165.097 519.824 168.708 519.824 Q172.342 519.824 174.147 516.282 Q175.976 512.717 175.976 505.611 Q175.976 498.481 174.147 494.939 Q172.342 491.375 168.708 491.375 M168.708 487.671 Q174.518 487.671 177.573 492.277 Q180.652 496.861 180.652 505.611 Q180.652 514.338 177.573 518.944 Q174.518 523.527 168.708 523.527 Q162.898 523.527 159.819 518.944 Q156.763 514.338 156.763 505.611 Q156.763 496.861 159.819 492.277 Q162.898 487.671 168.708 487.671 Z" fill="#4c4c4c" fill-rule="evenodd" fill-opacity="1" /><path clip-path="url(#clip560)" d="M181.197 492.248 L187.404 492.248 L187.404 470.826 L180.652 472.18 L180.652 468.72 L187.366 467.366 L191.166 467.366 L191.166 492.248 L197.372 492.248 L197.372 495.446 L181.197 495.446 L181.197 492.248 Z" fill="#4c4c4c" fill-rule="evenodd" fill-opacity="1" /><path clip-path="url(#clip560)" d="M44.7161 817.669 L47.5806 817.669 L47.5806 844.596 Q53.6281 844.214 56.8109 840.967 Q59.9619 837.689 59.9619 831.864 Q59.9619 828.49 59.1344 825.339 Q58.3069 822.157 56.6518 819.037 L62.1899 819.037 Q63.5267 822.188 64.227 825.499 Q64.9272 828.809 64.9272 832.214 Q64.9272 840.744 59.9619 845.742 Q54.9967 850.707 46.5303 850.707 Q37.7774 850.707 32.6531 845.996 Q27.4968 841.254 27.4968 833.233 Q27.4968 826.04 32.1438 821.87 Q36.7589 817.669 44.7161 817.669 M42.9973 823.525 Q38.1912 823.589 35.3266 826.231 Q32.4621 828.841 32.4621 833.169 Q32.4621 838.071 35.2312 841.031 Q38.0002 843.959 43.0292 844.405 L42.9973 823.525 Z" fill="#000000" fill-rule="evenodd" fill-opacity="1" /><path clip-path="url(#clip560)" d="M33.8307 787.4 Q33.2578 788.387 33.0032 789.564 Q32.7167 790.71 32.7167 792.11 Q32.7167 797.076 35.9632 799.749 Q39.1779 802.391 45.2253 802.391 L64.0042 802.391 L64.0042 808.279 L28.3562 808.279 L28.3562 802.391 L33.8944 802.391 Q30.6479 800.545 29.0883 797.585 Q27.4968 794.625 27.4968 790.392 Q27.4968 789.787 27.5923 789.055 Q27.656 788.323 27.8151 787.432 L33.8307 787.4 Z" fill="#000000" fill-rule="evenodd" fill-opacity="1" /><path clip-path="url(#clip560)" d="M33.8307 761.746 Q33.2578 762.733 33.0032 763.91 Q32.7167 765.056 32.7167 766.457 Q32.7167 771.422 35.9632 774.096 Q39.1779 776.737 45.2253 776.737 L64.0042 776.737 L64.0042 782.626 L28.3562 782.626 L28.3562 776.737 L33.8944 776.737 Q30.6479 774.891 29.0883 771.931 Q27.4968 768.971 27.4968 764.738 Q27.4968 764.133 27.5923 763.401 Q27.656 762.669 27.8151 761.778 L33.8307 761.746 Z" fill="#000000" fill-rule="evenodd" fill-opacity="1" /><path clip-path="url(#clip560)" d="M32.4621 743.222 Q32.4621 747.932 36.1542 750.67 Q39.8145 753.407 46.212 753.407 Q52.6095 753.407 56.3017 750.702 Q59.9619 747.964 59.9619 743.222 Q59.9619 738.543 56.2698 735.806 Q52.5777 733.069 46.212 733.069 Q39.8781 733.069 36.186 735.806 Q32.4621 738.543 32.4621 743.222 M27.4968 743.222 Q27.4968 735.583 32.4621 731.222 Q37.4273 726.862 46.212 726.862 Q54.9649 726.862 59.9619 731.222 Q64.9272 735.583 64.9272 743.222 Q64.9272 750.893 59.9619 755.253 Q54.9649 759.582 46.212 759.582 Q37.4273 759.582 32.4621 755.253 Q27.4968 750.893 27.4968 743.222 Z" fill="#000000" fill-rule="evenodd" fill-opacity="1" /><path clip-path="url(#clip560)" d="M975.173 28.512 L1007.95 28.512 L1007.95 34.4147 L982.187 34.4147 L982.187 49.7619 L1006.87 49.7619 L1006.87 55.6646 L982.187 55.6646 L982.187 74.4493 L1008.58 74.4493 L1008.58 80.352 L975.173 80.352 L975.173 28.512 Z" fill="#000000" fill-rule="evenodd" fill-opacity="1" /><path clip-path="url(#clip560)" d="M1042.36 47.4355 Q1041.28 46.8105 1040 46.5327 Q1038.75 46.2202 1037.22 46.2202 Q1031.81 46.2202 1028.89 49.7619 Q1026.01 53.2688 1026.01 59.866 L1026.01 80.352 L1019.58 80.352 L1019.58 41.4633 L1026.01 41.4633 L1026.01 47.505 Q1028.02 43.9633 1031.25 42.2619 Q1034.48 40.5258 1039.1 40.5258 Q1039.76 40.5258 1040.56 40.63 Q1041.35 40.6994 1042.33 40.873 L1042.36 47.4355 Z" fill="#000000" fill-rule="evenodd" fill-opacity="1" /><path clip-path="url(#clip560)" d="M1070.35 47.4355 Q1069.27 46.8105 1067.99 46.5327 Q1066.74 46.2202 1065.21 46.2202 Q1059.79 46.2202 1056.87 49.7619 Q1053.99 53.2688 1053.99 59.866 L1053.99 80.352 L1047.57 80.352 L1047.57 41.4633 L1053.99 41.4633 L1053.99 47.505 Q1056.01 43.9633 1059.24 42.2619 Q1062.46 40.5258 1067.08 40.5258 Q1067.74 40.5258 1068.54 40.63 Q1069.34 40.6994 1070.31 40.873 L1070.35 47.4355 Z" fill="#000000" fill-rule="evenodd" fill-opacity="1" /><path clip-path="url(#clip560)" d="M1090.55 45.9425 Q1085.42 45.9425 1082.43 49.9702 Q1079.44 53.9633 1079.44 60.9424 Q1079.44 67.9215 1082.4 71.9493 Q1085.38 75.9423 1090.55 75.9423 Q1095.66 75.9423 1098.64 71.9145 Q1101.63 67.8868 1101.63 60.9424 Q1101.63 54.0327 1098.64 50.0049 Q1095.66 45.9425 1090.55 45.9425 M1090.55 40.5258 Q1098.89 40.5258 1103.64 45.9425 Q1108.4 51.3591 1108.4 60.9424 Q1108.4 70.4909 1103.64 75.9423 Q1098.89 81.3589 1090.55 81.3589 Q1082.19 81.3589 1077.43 75.9423 Q1072.71 70.4909 1072.71 60.9424 Q1072.71 51.3591 1077.43 45.9425 Q1082.19 40.5258 1090.55 40.5258 Z" fill="#000000" fill-rule="evenodd" fill-opacity="1" /><path clip-path="url(#clip560)" d="M1161.28 26.3245 L1161.28 31.637 L1155.17 31.637 Q1151.73 31.637 1150.38 33.0259 Q1149.06 34.4147 1149.06 38.0258 L1149.06 41.4633 L1159.58 41.4633 L1159.58 46.4286 L1149.06 46.4286 L1149.06 80.352 L1142.64 80.352 L1142.64 46.4286 L1136.53 46.4286 L1136.53 41.4633 L1142.64 41.4633 L1142.64 38.755 Q1142.64 32.262 1145.66 29.3106 Q1148.68 26.3245 1155.24 26.3245 L1161.28 26.3245 Z" fill="#000000" fill-rule="evenodd" fill-opacity="1" /><path clip-path="url(#clip560)" d="M1181.7 45.9425 Q1176.56 45.9425 1173.58 49.9702 Q1170.59 53.9633 1170.59 60.9424 Q1170.59 67.9215 1173.54 71.9493 Q1176.53 75.9423 1181.7 75.9423 Q1186.8 75.9423 1189.79 71.9145 Q1192.78 67.8868 1192.78 60.9424 Q1192.78 54.0327 1189.79 50.0049 Q1186.8 45.9425 1181.7 45.9425 M1181.7 40.5258 Q1190.03 40.5258 1194.79 45.9425 Q1199.55 51.3591 1199.55 60.9424 Q1199.55 70.4909 1194.79 75.9423 Q1190.03 81.3589 1181.7 81.3589 Q1173.33 81.3589 1168.58 75.9423 Q1163.85 70.4909 1163.85 60.9424 Q1163.85 51.3591 1168.58 45.9425 Q1173.33 40.5258 1181.7 40.5258 Z" fill="#000000" fill-rule="evenodd" fill-opacity="1" /><path clip-path="url(#clip560)" d="M1232.67 47.4355 Q1231.6 46.8105 1230.31 46.5327 Q1229.06 46.2202 1227.53 46.2202 Q1222.12 46.2202 1219.2 49.7619 Q1216.32 53.2688 1216.32 59.866 L1216.32 80.352 L1209.89 80.352 L1209.89 41.4633 L1216.32 41.4633 L1216.32 47.505 Q1218.33 43.9633 1221.56 42.2619 Q1224.79 40.5258 1229.41 40.5258 Q1230.07 40.5258 1230.87 40.63 Q1231.67 40.6994 1232.64 40.873 L1232.67 47.4355 Z" fill="#000000" fill-rule="evenodd" fill-opacity="1" /><path clip-path="url(#clip560)" d="M1245.69 30.4217 L1245.69 41.4633 L1258.85 41.4633 L1258.85 46.4286 L1245.69 46.4286 L1245.69 67.5396 Q1245.69 72.2965 1246.98 73.6506 Q1248.3 75.0048 1252.29 75.0048 L1258.85 75.0048 L1258.85 80.352 L1252.29 80.352 Q1244.89 80.352 1242.08 77.609 Q1239.27 74.8312 1239.27 67.5396 L1239.27 46.4286 L1234.58 46.4286 L1234.58 41.4633 L1239.27 41.4633 L1239.27 30.4217 L1245.69 30.4217 Z" fill="#000000" fill-rule="evenodd" fill-opacity="1" /><path clip-path="url(#clip560)" d="M1300.52 59.3104 L1300.52 62.4354 L1271.14 62.4354 Q1271.56 69.0326 1275.1 72.5048 Q1278.68 75.9423 1285.03 75.9423 Q1288.71 75.9423 1292.15 75.0395 Q1295.62 74.1368 1299.03 72.3312 L1299.03 78.3728 Q1295.59 79.8312 1291.98 80.5951 Q1288.37 81.3589 1284.65 81.3589 Q1275.35 81.3589 1269.89 75.9423 Q1264.48 70.5257 1264.48 61.2896 Q1264.48 51.741 1269.62 46.1508 Q1274.79 40.5258 1283.54 40.5258 Q1291.39 40.5258 1295.94 45.5952 Q1300.52 50.6299 1300.52 59.3104 M1294.13 57.4355 Q1294.06 52.1924 1291.18 49.0674 Q1288.33 45.9425 1283.61 45.9425 Q1278.26 45.9425 1275.03 48.9633 Q1271.84 51.9841 1271.35 57.4702 L1294.13 57.4355 Z" fill="#000000" fill-rule="evenodd" fill-opacity="1" /><path clip-path="url(#clip560)" d="M1339.79 74.5187 L1339.79 95.1436 L1333.37 95.1436 L1333.37 41.4633 L1339.79 41.4633 L1339.79 47.3661 Q1341.8 43.8939 1344.86 42.2272 Q1347.95 40.5258 1352.22 40.5258 Q1359.3 40.5258 1363.71 46.1508 Q1368.16 51.7758 1368.16 60.9424 Q1368.16 70.109 1363.71 75.734 Q1359.3 81.3589 1352.22 81.3589 Q1347.95 81.3589 1344.86 79.6923 Q1341.8 77.9909 1339.79 74.5187 M1361.53 60.9424 Q1361.53 53.8938 1358.61 49.9008 Q1355.73 45.873 1350.66 45.873 Q1345.59 45.873 1342.67 49.9008 Q1339.79 53.8938 1339.79 60.9424 Q1339.79 67.991 1342.67 72.0187 Q1345.59 76.0117 1350.66 76.0117 Q1355.73 76.0117 1358.61 72.0187 Q1361.53 67.991 1361.53 60.9424 Z" fill="#000000" fill-rule="evenodd" fill-opacity="1" /><path clip-path="url(#clip560)" d="M1402.19 48.0605 L1446.7 48.0605 L1446.7 53.8938 L1402.19 53.8938 L1402.19 48.0605 M1402.19 62.2271 L1446.7 62.2271 L1446.7 68.1298 L1402.19 68.1298 L1402.19 62.2271 Z" fill="#000000" fill-rule="evenodd" fill-opacity="1" /><path clip-path="url(#clip560)" d="M1499.44 33.13 Q1494.02 33.13 1491.28 38.4772 Q1488.57 43.7897 1488.57 54.4841 Q1488.57 65.1437 1491.28 70.4909 Q1494.02 75.8034 1499.44 75.8034 Q1504.89 75.8034 1507.6 70.4909 Q1510.34 65.1437 1510.34 54.4841 Q1510.34 43.7897 1507.6 38.4772 Q1504.89 33.13 1499.44 33.13 M1499.44 27.5745 Q1508.16 27.5745 1512.74 34.4842 Q1517.36 41.3592 1517.36 54.4841 Q1517.36 67.5743 1512.74 74.484 Q1508.16 81.3589 1499.44 81.3589 Q1490.73 81.3589 1486.11 74.484 Q1481.52 67.5743 1481.52 54.4841 Q1481.52 41.3592 1486.11 34.4842 Q1490.73 27.5745 1499.44 27.5745 Z" fill="#000000" fill-rule="evenodd" fill-opacity="1" /><path clip-path="url(#clip560)" d="M1529.68 71.5326 L1537.01 71.5326 L1537.01 80.352 L1529.68 80.352 L1529.68 71.5326 Z" fill="#000000" fill-rule="evenodd" fill-opacity="1" /><path clip-path="url(#clip560)" d="M1552.5 79.2756 L1552.5 72.8868 Q1555.14 74.1368 1557.84 74.7965 Q1560.55 75.4562 1563.16 75.4562 Q1570.1 75.4562 1573.75 70.8034 Q1577.43 66.116 1577.95 56.6021 Q1575.93 59.5882 1572.84 61.1854 Q1569.75 62.7826 1566 62.7826 Q1558.23 62.7826 1553.68 58.0952 Q1549.16 53.373 1549.16 45.2133 Q1549.16 37.2272 1553.89 32.4009 Q1558.61 27.5745 1566.45 27.5745 Q1575.45 27.5745 1580.17 34.4842 Q1584.93 41.3592 1584.93 54.4841 Q1584.93 66.741 1579.09 74.0673 Q1573.3 81.3589 1563.47 81.3589 Q1560.83 81.3589 1558.12 80.8381 Q1555.41 80.3173 1552.5 79.2756 M1566.45 57.2966 Q1571.18 57.2966 1573.92 54.0674 Q1576.7 50.8383 1576.7 45.2133 Q1576.7 39.6231 1573.92 36.3939 Q1571.18 33.13 1566.45 33.13 Q1561.73 33.13 1558.96 36.3939 Q1556.21 39.6231 1556.21 45.2133 Q1556.21 50.8383 1558.96 54.0674 Q1561.73 57.2966 1566.45 57.2966 Z" fill="#000000" fill-rule="evenodd" fill-opacity="1" /><path clip-path="url(#clip560)" d="M1597.6 28.512 L1625.14 28.512 L1625.14 34.4147 L1604.02 34.4147 L1604.02 47.123 Q1605.55 46.6022 1607.08 46.3591 Q1608.61 46.0814 1610.14 46.0814 Q1618.82 46.0814 1623.89 50.8383 Q1628.95 55.5952 1628.95 63.7201 Q1628.95 72.0882 1623.75 76.7409 Q1618.54 81.3589 1609.06 81.3589 Q1605.8 81.3589 1602.39 80.8034 Q1599.02 80.2478 1595.41 79.1367 L1595.41 72.0882 Q1598.54 73.7895 1601.87 74.6229 Q1605.2 75.4562 1608.92 75.4562 Q1614.93 75.4562 1618.43 72.2965 Q1621.94 69.1368 1621.94 63.7201 Q1621.94 58.3035 1618.43 55.1438 Q1614.93 51.9841 1608.92 51.9841 Q1606.11 51.9841 1603.3 52.6091 Q1600.52 53.2341 1597.6 54.5535 L1597.6 28.512 Z" fill="#000000" fill-rule="evenodd" fill-opacity="1" /><path clip-path="url(#clip560)" d="M827.015 106.272 L837.466 106.272 L850.695 141.55 L863.993 106.272 L874.445 106.272 L874.445 158.112 L867.605 158.112 L867.605 112.591 L854.237 148.147 L847.188 148.147 L833.82 112.591 L833.82 158.112 L827.015 158.112 L827.015 106.272 Z" fill="#000000" fill-rule="evenodd" fill-opacity="1" /><path clip-path="url(#clip560)" d="M911.528 125.821 L956.042 125.821 L956.042 131.654 L911.528 131.654 L911.528 125.821 M911.528 139.987 L956.042 139.987 L956.042 145.89 L911.528 145.89 L911.528 139.987 Z" fill="#000000" fill-rule="evenodd" fill-opacity="1" /><path clip-path="url(#clip560)" d="M995 152.209 L1006.46 152.209 L1006.46 112.661 L993.993 115.161 L993.993 108.772 L1006.39 106.272 L1013.4 106.272 L1013.4 152.209 L1024.86 152.209 L1024.86 158.112 L995 158.112 L995 152.209 Z" fill="#000000" fill-rule="evenodd" fill-opacity="1" /><path clip-path="url(#clip560)" d="M1054.03 110.89 Q1048.61 110.89 1045.87 116.237 Q1043.16 121.55 1043.16 132.244 Q1043.16 142.904 1045.87 148.251 Q1048.61 153.563 1054.03 153.563 Q1059.48 153.563 1062.19 148.251 Q1064.93 142.904 1064.93 132.244 Q1064.93 121.55 1062.19 116.237 Q1059.48 110.89 1054.03 110.89 M1054.03 105.335 Q1062.74 105.335 1067.33 112.244 Q1071.94 119.119 1071.94 132.244 Q1071.94 145.334 1067.33 152.244 Q1062.74 159.119 1054.03 159.119 Q1045.31 159.119 1040.69 152.244 Q1036.11 145.334 1036.11 132.244 Q1036.11 119.119 1040.69 112.244 Q1045.31 105.335 1054.03 105.335 Z" fill="#000000" fill-rule="evenodd" fill-opacity="1" /><path clip-path="url(#clip560)" d="M1099.27 110.89 Q1093.85 110.89 1091.11 116.237 Q1088.4 121.55 1088.4 132.244 Q1088.4 142.904 1091.11 148.251 Q1093.85 153.563 1099.27 153.563 Q1104.72 153.563 1107.43 148.251 Q1110.17 142.904 1110.17 132.244 Q1110.17 121.55 1107.43 116.237 Q1104.72 110.89 1099.27 110.89 M1099.27 105.335 Q1107.99 105.335 1112.57 112.244 Q1117.19 119.119 1117.19 132.244 Q1117.19 145.334 1112.57 152.244 Q1107.99 159.119 1099.27 159.119 Q1090.55 159.119 1085.94 152.244 Q1081.35 145.334 1081.35 132.244 Q1081.35 119.119 1085.94 112.244 Q1090.55 105.335 1099.27 105.335 Z" fill="#000000" fill-rule="evenodd" fill-opacity="1" /><path clip-path="url(#clip560)" d="M1144.51 110.89 Q1139.1 110.89 1136.35 116.237 Q1133.64 121.55 1133.64 132.244 Q1133.64 142.904 1136.35 148.251 Q1139.1 153.563 1144.51 153.563 Q1149.96 153.563 1152.67 148.251 Q1155.42 142.904 1155.42 132.244 Q1155.42 121.55 1152.67 116.237 Q1149.96 110.89 1144.51 110.89 M1144.51 105.335 Q1153.23 105.335 1157.81 112.244 Q1162.43 119.119 1162.43 132.244 Q1162.43 145.334 1157.81 152.244 Q1153.23 159.119 1144.51 159.119 Q1135.8 159.119 1131.18 152.244 Q1126.6 145.334 1126.6 132.244 Q1126.6 119.119 1131.18 112.244 Q1135.8 105.335 1144.51 105.335 Z" fill="#000000" fill-rule="evenodd" fill-opacity="1" /><path clip-path="url(#clip560)" d="M1175.48 149.293 L1182.81 149.293 L1182.81 155.265 L1177.12 166.376 L1172.64 166.376 L1175.48 155.265 L1175.48 149.293 Z" fill="#000000" fill-rule="evenodd" fill-opacity="1" /><path clip-path="url(#clip560)" d="M1234.13 124.293 Q1228.85 124.293 1226.01 128.112 Q1223.02 132.105 1223.02 138.702 Q1223.02 145.682 1225.97 149.709 Q1228.96 153.702 1234.13 153.702 Q1239.23 153.702 1242.22 149.675 Q1245.21 145.647 1245.21 138.702 Q1245.21 132.348 1242.22 128.112 Q1239.48 124.293 1234.13 124.293 M1234.13 119.223 L1255.35 119.223 L1255.35 125.612 L1248.19 125.612 Q1251.98 131.029 1251.98 138.702 Q1251.98 148.251 1247.22 153.668 Q1242.46 159.119 1234.13 159.119 Q1225.76 159.119 1221.04 153.668 Q1216.28 148.251 1216.28 138.702 Q1216.28 129.084 1221.04 123.702 Q1224.96 119.223 1234.13 119.223 Z" fill="#000000" fill-rule="evenodd" fill-opacity="1" /><path clip-path="url(#clip560)" d="M1287.57 125.821 L1332.08 125.821 L1332.08 131.654 L1287.57 131.654 L1287.57 125.821 M1287.57 139.987 L1332.08 139.987 L1332.08 145.89 L1287.57 145.89 L1287.57 139.987 Z" fill="#000000" fill-rule="evenodd" fill-opacity="1" /><path clip-path="url(#clip560)" d="M1384.82 110.89 Q1379.41 110.89 1376.66 116.237 Q1373.96 121.55 1373.96 132.244 Q1373.96 142.904 1376.66 148.251 Q1379.41 153.563 1384.82 153.563 Q1390.28 153.563 1392.98 148.251 Q1395.73 142.904 1395.73 132.244 Q1395.73 121.55 1392.98 116.237 Q1390.28 110.89 1384.82 110.89 M1384.82 105.335 Q1393.54 105.335 1398.12 112.244 Q1402.74 119.119 1402.74 132.244 Q1402.74 145.334 1398.12 152.244 Q1393.54 159.119 1384.82 159.119 Q1376.11 159.119 1371.49 152.244 Q1366.91 145.334 1366.91 132.244 Q1366.91 119.119 1371.49 112.244 Q1376.11 105.335 1384.82 105.335 Z" fill="#000000" fill-rule="evenodd" fill-opacity="1" /><path clip-path="url(#clip560)" d="M1415.07 149.293 L1422.39 149.293 L1422.39 158.112 L1415.07 158.112 L1415.07 149.293 Z" fill="#000000" fill-rule="evenodd" fill-opacity="1" /><path clip-path="url(#clip560)" d="M1437.74 106.272 L1465.27 106.272 L1465.27 112.175 L1444.16 112.175 L1444.16 124.883 Q1445.69 124.362 1447.22 124.119 Q1448.75 123.841 1450.28 123.841 Q1458.96 123.841 1464.02 128.598 Q1469.09 133.355 1469.09 141.48 Q1469.09 149.848 1463.89 154.501 Q1458.68 159.119 1449.2 159.119 Q1445.93 159.119 1442.53 158.563 Q1439.16 158.008 1435.55 156.897 L1435.55 149.848 Q1438.68 151.55 1442.01 152.383 Q1445.34 153.216 1449.06 153.216 Q1455.07 153.216 1458.57 150.056 Q1462.08 146.897 1462.08 141.48 Q1462.08 136.064 1458.57 132.904 Q1455.07 129.744 1449.06 129.744 Q1446.25 129.744 1443.43 130.369 Q1440.66 130.994 1437.74 132.314 L1437.74 106.272 Z" fill="#000000" fill-rule="evenodd" fill-opacity="1" /><path clip-path="url(#clip560)" d="M1483.64 149.293 L1490.97 149.293 L1490.97 155.265 L1485.27 166.376 L1480.8 166.376 L1483.64 155.265 L1483.64 149.293 Z" fill="#000000" fill-rule="evenodd" fill-opacity="1" /><path clip-path="url(#clip560)" d="M1520.31 106.272 L1564.16 106.272 L1564.16 112.175 L1545.76 112.175 L1545.76 158.112 L1538.71 158.112 L1538.71 112.175 L1520.31 112.175 L1520.31 106.272 Z" fill="#000000" fill-rule="evenodd" fill-opacity="1" /><path clip-path="url(#clip560)" d="M1594.09 125.821 L1638.61 125.821 L1638.61 131.654 L1594.09 131.654 L1594.09 125.821 M1594.09 139.987 L1638.61 139.987 L1638.61 145.89 L1594.09 145.89 L1594.09 139.987 Z" fill="#000000" fill-rule="evenodd" fill-opacity="1" /><path clip-path="url(#clip560)" d="M1682.39 152.209 L1706.87 152.209 L1706.87 158.112 L1673.95 158.112 L1673.95 152.209 Q1677.95 148.077 1684.82 141.133 Q1691.73 134.154 1693.5 132.14 Q1696.87 128.355 1698.19 125.751 Q1699.54 123.112 1699.54 120.577 Q1699.54 116.446 1696.63 113.841 Q1693.75 111.237 1689.09 111.237 Q1685.79 111.237 1682.11 112.383 Q1678.47 113.529 1674.3 115.855 L1674.3 108.772 Q1678.54 107.071 1682.22 106.203 Q1685.9 105.335 1688.95 105.335 Q1697.01 105.335 1701.8 109.362 Q1706.59 113.39 1706.59 120.126 Q1706.59 123.321 1705.38 126.202 Q1704.2 129.05 1701.04 132.939 Q1700.17 133.945 1695.52 138.772 Q1690.86 143.563 1682.39 152.209 Z" fill="#000000" fill-rule="evenodd" fill-opacity="1" /><path clip-path="url(#clip560)" d="M1721.59 149.293 L1728.92 149.293 L1728.92 158.112 L1721.59 158.112 L1721.59 149.293 Z" fill="#000000" fill-rule="evenodd" fill-opacity="1" /><path clip-path="url(#clip560)" d="M1759.2 110.89 Q1753.78 110.89 1751.04 116.237 Q1748.33 121.55 1748.33 132.244 Q1748.33 142.904 1751.04 148.251 Q1753.78 153.563 1759.2 153.563 Q1764.65 153.563 1767.36 148.251 Q1770.1 142.904 1770.1 132.244 Q1770.1 121.55 1767.36 116.237 Q1764.65 110.89 1759.2 110.89 M1759.2 105.335 Q1767.91 105.335 1772.5 112.244 Q1777.11 119.119 1777.11 132.244 Q1777.11 145.334 1772.5 152.244 Q1767.91 159.119 1759.2 159.119 Q1750.48 159.119 1745.86 152.244 Q1741.28 145.334 1741.28 132.244 Q1741.28 119.119 1745.86 112.244 Q1750.48 105.335 1759.2 105.335 Z" fill="#000000" fill-rule="evenodd" fill-opacity="1" /><path clip-path="url(#clip562)" d="M2293.28 525.485 L2289.52 536.301 L2278.07 536.541 L2287.2 543.469 L2283.87 554.429 L2293.28 547.885 L2302.69 554.429 L2299.36 543.469 L2308.5 536.541 L2297.04 536.301 L2293.28 525.485 Z" fill="#009af9" fill-rule="evenodd" fill-opacity="1" stroke="#000000" stroke-opacity="1" stroke-width="0"/>
<path clip-path="url(#clip562)" d="M1893.25 621.04 L1889.49 631.856 L1878.03 632.096 L1887.17 639.024 L1883.84 649.984 L1893.25 643.44 L1902.66 649.984 L1899.33 639.024 L1908.46 632.096 L1897.01 631.856 L1893.25 621.04 Z" fill="#009af9" fill-rule="evenodd" fill-opacity="1" stroke="#000000" stroke-opacity="1" stroke-width="0"/>
<path clip-path="url(#clip562)" d="M1496.12 721.865 L1492.36 732.681 L1480.91 732.921 L1490.04 739.849 L1486.71 750.809 L1496.12 744.265 L1505.53 750.809 L1502.2 739.849 L1511.34 732.921 L1499.88 732.681 L1496.12 721.865 Z" fill="#009af9" fill-rule="evenodd" fill-opacity="1" stroke="#000000" stroke-opacity="1" stroke-width="0"/>
<path clip-path="url(#clip562)" d="M1100.43 809.706 L1096.67 820.522 L1085.22 820.762 L1094.35 827.69 L1091.03 838.65 L1100.43 832.106 L1109.84 838.65 L1106.51 827.69 L1115.65 820.762 L1104.19 820.522 L1100.43 809.706 Z" fill="#009af9" fill-rule="evenodd" fill-opacity="1" stroke="#000000" stroke-opacity="1" stroke-width="0"/>
<path clip-path="url(#clip562)" d="M705.461 908.973 L701.701 919.789 L690.245 920.029 L699.381 926.957 L696.053 937.917 L705.461 931.373 L714.869 937.917 L711.541 926.957 L720.677 920.029 L709.221 919.789 L705.461 908.973 Z" fill="#009af9" fill-rule="evenodd" fill-opacity="1" stroke="#000000" stroke-opacity="1" stroke-width="0"/>
<path clip-path="url(#clip562)" d="M310.845 1020.08 L307.085 1030.9 L295.629 1031.14 L304.765 1038.07 L301.437 1049.03 L310.845 1042.48 L320.253 1049.03 L316.925 1038.07 L326.061 1031.14 L314.605 1030.9 L310.845 1020.08 Z" fill="#009af9" fill-rule="evenodd" fill-opacity="1" stroke="#000000" stroke-opacity="1" stroke-width="0"/>
<path clip-path="url(#clip562)" d="M2293.28 497.048 L2289.52 507.864 L2278.07 508.104 L2287.2 515.032 L2283.87 525.992 L2293.28 519.448 L2302.69 525.992 L2299.36 515.032 L2308.5 508.104 L2297.04 507.864 L2293.28 497.048 Z" fill="#e26f46" fill-rule="evenodd" fill-opacity="1" stroke="#000000" stroke-opacity="1" stroke-width="0"/>
<path clip-path="url(#clip562)" d="M1893.25 652.301 L1889.49 663.117 L1878.03 663.357 L1887.17 670.285 L1883.84 681.245 L1893.25 674.701 L1902.66 681.245 L1899.33 670.285 L1908.46 663.357 L1897.01 663.117 L1893.25 652.301 Z" fill="#e26f46" fill-rule="evenodd" fill-opacity="1" stroke="#000000" stroke-opacity="1" stroke-width="0"/>
<path clip-path="url(#clip562)" d="M1496.12 654.923 L1492.36 665.739 L1480.91 665.979 L1490.04 672.907 L1486.71 683.867 L1496.12 677.323 L1505.53 683.867 L1502.2 672.907 L1511.34 665.979 L1499.88 665.739 L1496.12 654.923 Z" fill="#e26f46" fill-rule="evenodd" fill-opacity="1" stroke="#000000" stroke-opacity="1" stroke-width="0"/>
<path clip-path="url(#clip562)" d="M1100.43 840.769 L1096.67 851.585 L1085.22 851.825 L1094.35 858.753 L1091.03 869.713 L1100.43 863.169 L1109.84 869.713 L1106.51 858.753 L1115.65 851.825 L1104.19 851.585 L1100.43 840.769 Z" fill="#e26f46" fill-rule="evenodd" fill-opacity="1" stroke="#000000" stroke-opacity="1" stroke-width="0"/>
<path clip-path="url(#clip562)" d="M705.461 929.534 L701.701 940.35 L690.245 940.59 L699.381 947.518 L696.053 958.478 L705.461 951.934 L714.869 958.478 L711.541 947.518 L720.677 940.59 L709.221 940.35 L705.461 929.534 Z" fill="#e26f46" fill-rule="evenodd" fill-opacity="1" stroke="#000000" stroke-opacity="1" stroke-width="0"/>
<path clip-path="url(#clip562)" d="M310.845 997.372 L307.085 1008.19 L295.629 1008.43 L304.765 1015.36 L301.437 1026.32 L310.845 1019.77 L320.253 1026.32 L316.925 1015.36 L326.061 1008.43 L314.605 1008.19 L310.845 997.372 Z" fill="#e26f46" fill-rule="evenodd" fill-opacity="1" stroke="#000000" stroke-opacity="1" stroke-width="0"/>
<polyline clip-path="url(#clip562)" style="stroke:#3da44d; stroke-linecap:butt; stroke-linejoin:round; stroke-width:4; stroke-opacity:1; fill:none" stroke-dasharray="16, 10" points="
  2293.28,538.614 1893.25,637.374 1496.12,735.416 1100.43,833.102 705.461,930.612 310.845,1028.03 
  "/>
<path clip-path="url(#clip560)" d="
M321.418 415.506 L1144.81 415.506 L1144.81 208.146 L321.418 208.146  Z
  " fill="#eaeaea" fill-rule="evenodd" fill-opacity="1"/>
<polyline clip-path="url(#clip560)" style="stroke:#ffffff; stroke-linecap:butt; stroke-linejoin:round; stroke-width:4; stroke-opacity:1; fill:none" points="
  321.418,415.506 1144.81,415.506 1144.81,208.146 321.418,208.146 321.418,415.506 
  "/>
<path clip-path="url(#clip560)" d="M414.813 234.386 L408.797 251.692 L390.468 252.076 L405.085 263.161 L399.76 280.697 L414.813 270.226 L429.866 280.697 L424.541 263.161 L439.159 252.076 L420.829 251.692 L414.813 234.386 Z" fill="#009af9" fill-rule="evenodd" fill-opacity="1" stroke="#000000" stroke-opacity="1" stroke-width="0"/>
<path clip-path="url(#clip560)" d="M532.236 263.239 L532.236 265.322 L512.652 265.322 Q512.93 269.72 515.291 272.035 Q517.676 274.326 521.912 274.326 Q524.365 274.326 526.657 273.725 Q528.972 273.123 531.24 271.919 L531.24 275.947 Q528.949 276.919 526.541 277.428 Q524.134 277.938 521.657 277.938 Q515.453 277.938 511.819 274.326 Q508.208 270.715 508.208 264.558 Q508.208 258.192 511.634 254.465 Q515.083 250.715 520.916 250.715 Q526.148 250.715 529.18 254.095 Q532.236 257.452 532.236 263.239 M527.976 261.989 Q527.93 258.493 526.009 256.41 Q524.111 254.327 520.963 254.327 Q517.398 254.327 515.245 256.34 Q513.115 258.354 512.791 262.012 L527.976 261.989 Z" fill="#000000" fill-rule="evenodd" fill-opacity="1" /><path clip-path="url(#clip560)" d="M554.249 255.322 Q553.532 254.905 552.675 254.72 Q551.842 254.512 550.823 254.512 Q547.212 254.512 545.268 256.873 Q543.347 259.211 543.347 263.609 L543.347 277.266 L539.064 277.266 L539.064 251.34 L543.347 251.34 L543.347 255.368 Q544.689 253.007 546.842 251.873 Q548.995 250.715 552.073 250.715 Q552.513 250.715 553.046 250.785 Q553.578 250.831 554.226 250.947 L554.249 255.322 Z" fill="#000000" fill-rule="evenodd" fill-opacity="1" /><path clip-path="url(#clip560)" d="M572.907 255.322 Q572.189 254.905 571.333 254.72 Q570.499 254.512 569.481 254.512 Q565.87 254.512 563.925 256.873 Q562.004 259.211 562.004 263.609 L562.004 277.266 L557.722 277.266 L557.722 251.34 L562.004 251.34 L562.004 255.368 Q563.347 253.007 565.499 251.873 Q567.652 250.715 570.731 250.715 Q571.171 250.715 571.703 250.785 Q572.235 250.831 572.884 250.947 L572.907 255.322 Z" fill="#000000" fill-rule="evenodd" fill-opacity="1" /><path clip-path="url(#clip560)" d="M586.379 254.327 Q582.953 254.327 580.962 257.012 Q578.971 259.674 578.971 264.327 Q578.971 268.979 580.939 271.664 Q582.93 274.326 586.379 274.326 Q589.782 274.326 591.772 271.641 Q593.763 268.956 593.763 264.327 Q593.763 259.72 591.772 257.035 Q589.782 254.327 586.379 254.327 M586.379 250.715 Q591.934 250.715 595.106 254.327 Q598.277 257.938 598.277 264.327 Q598.277 270.692 595.106 274.326 Q591.934 277.938 586.379 277.938 Q580.8 277.938 577.629 274.326 Q574.481 270.692 574.481 264.327 Q574.481 257.938 577.629 254.327 Q580.8 250.715 586.379 250.715 Z" fill="#000000" fill-rule="evenodd" fill-opacity="1" /><path clip-path="url(#clip560)" d="M633.531 241.248 L633.531 244.79 L629.457 244.79 Q627.166 244.79 626.263 245.716 Q625.383 246.641 625.383 249.049 L625.383 251.34 L632.397 251.34 L632.397 254.651 L625.383 254.651 L625.383 277.266 L621.101 277.266 L621.101 254.651 L617.027 254.651 L617.027 251.34 L621.101 251.34 L621.101 249.535 Q621.101 245.206 623.115 243.239 Q625.129 241.248 629.504 241.248 L633.531 241.248 Z" fill="#000000" fill-rule="evenodd" fill-opacity="1" /><path clip-path="url(#clip560)" d="M647.142 254.327 Q643.716 254.327 641.726 257.012 Q639.735 259.674 639.735 264.327 Q639.735 268.979 641.703 271.664 Q643.693 274.326 647.142 274.326 Q650.545 274.326 652.536 271.641 Q654.527 268.956 654.527 264.327 Q654.527 259.72 652.536 257.035 Q650.545 254.327 647.142 254.327 M647.142 250.715 Q652.698 250.715 655.869 254.327 Q659.04 257.938 659.04 264.327 Q659.04 270.692 655.869 274.326 Q652.698 277.938 647.142 277.938 Q641.564 277.938 638.392 274.326 Q635.244 270.692 635.244 264.327 Q635.244 257.938 638.392 254.327 Q641.564 250.715 647.142 250.715 Z" fill="#000000" fill-rule="evenodd" fill-opacity="1" /><path clip-path="url(#clip560)" d="M681.124 255.322 Q680.406 254.905 679.55 254.72 Q678.716 254.512 677.698 254.512 Q674.087 254.512 672.142 256.873 Q670.221 259.211 670.221 263.609 L670.221 277.266 L665.939 277.266 L665.939 251.34 L670.221 251.34 L670.221 255.368 Q671.564 253.007 673.716 251.873 Q675.869 250.715 678.948 250.715 Q679.388 250.715 679.92 250.785 Q680.452 250.831 681.101 250.947 L681.124 255.322 Z" fill="#000000" fill-rule="evenodd" fill-opacity="1" /><path clip-path="url(#clip560)" d="M689.804 243.979 L689.804 251.34 L698.577 251.34 L698.577 254.651 L689.804 254.651 L689.804 268.725 Q689.804 271.896 690.661 272.799 Q691.54 273.701 694.202 273.701 L698.577 273.701 L698.577 277.266 L694.202 277.266 Q689.272 277.266 687.397 275.438 Q685.522 273.586 685.522 268.725 L685.522 254.651 L682.397 254.651 L682.397 251.34 L685.522 251.34 L685.522 243.979 L689.804 243.979 Z" fill="#000000" fill-rule="evenodd" fill-opacity="1" /><path clip-path="url(#clip560)" d="M726.355 263.239 L726.355 265.322 L706.772 265.322 Q707.049 269.72 709.411 272.035 Q711.795 274.326 716.031 274.326 Q718.485 274.326 720.776 273.725 Q723.091 273.123 725.36 271.919 L725.36 275.947 Q723.068 276.919 720.661 277.428 Q718.253 277.938 715.776 277.938 Q709.573 277.938 705.938 274.326 Q702.327 270.715 702.327 264.558 Q702.327 258.192 705.753 254.465 Q709.202 250.715 715.036 250.715 Q720.267 250.715 723.299 254.095 Q726.355 257.452 726.355 263.239 M722.096 261.989 Q722.049 258.493 720.128 256.41 Q718.23 254.327 715.082 254.327 Q711.517 254.327 709.364 256.34 Q707.235 258.354 706.911 262.012 L722.096 261.989 Z" fill="#000000" fill-rule="evenodd" fill-opacity="1" /><path clip-path="url(#clip560)" d="M749.827 273.331 L757.466 273.331 L757.466 246.966 L749.156 248.632 L749.156 244.373 L757.42 242.706 L762.095 242.706 L762.095 273.331 L769.734 273.331 L769.734 277.266 L749.827 277.266 L749.827 273.331 Z" fill="#000000" fill-rule="evenodd" fill-opacity="1" /><path clip-path="url(#clip560)" d="M789.179 245.785 Q785.568 245.785 783.739 249.35 Q781.933 252.891 781.933 260.021 Q781.933 267.127 783.739 270.692 Q785.568 274.234 789.179 274.234 Q792.813 274.234 794.618 270.692 Q796.447 267.127 796.447 260.021 Q796.447 252.891 794.618 249.35 Q792.813 245.785 789.179 245.785 M789.179 242.081 Q794.989 242.081 798.044 246.688 Q801.123 251.271 801.123 260.021 Q801.123 268.748 798.044 273.354 Q794.989 277.938 789.179 277.938 Q783.369 277.938 780.29 273.354 Q777.234 268.748 777.234 260.021 Q777.234 251.271 780.29 246.688 Q783.369 242.081 789.179 242.081 Z" fill="#000000" fill-rule="evenodd" fill-opacity="1" /><path clip-path="url(#clip560)" d="M819.341 245.785 Q815.729 245.785 813.901 249.35 Q812.095 252.891 812.095 260.021 Q812.095 267.127 813.901 270.692 Q815.729 274.234 819.341 274.234 Q822.975 274.234 824.78 270.692 Q826.609 267.127 826.609 260.021 Q826.609 252.891 824.78 249.35 Q822.975 245.785 819.341 245.785 M819.341 242.081 Q825.151 242.081 828.206 246.688 Q831.285 251.271 831.285 260.021 Q831.285 268.748 828.206 273.354 Q825.151 277.938 819.341 277.938 Q813.53 277.938 810.452 273.354 Q807.396 268.748 807.396 260.021 Q807.396 251.271 810.452 246.688 Q813.53 242.081 819.341 242.081 Z" fill="#000000" fill-rule="evenodd" fill-opacity="1" /><path clip-path="url(#clip560)" d="M849.502 245.785 Q845.891 245.785 844.063 249.35 Q842.257 252.891 842.257 260.021 Q842.257 267.127 844.063 270.692 Q845.891 274.234 849.502 274.234 Q853.137 274.234 854.942 270.692 Q856.771 267.127 856.771 260.021 Q856.771 252.891 854.942 249.35 Q853.137 245.785 849.502 245.785 M849.502 242.081 Q855.313 242.081 858.368 246.688 Q861.447 251.271 861.447 260.021 Q861.447 268.748 858.368 273.354 Q855.313 277.938 849.502 277.938 Q843.692 277.938 840.614 273.354 Q837.558 268.748 837.558 260.021 Q837.558 251.271 840.614 246.688 Q843.692 242.081 849.502 242.081 Z" fill="#000000" fill-rule="evenodd" fill-opacity="1" /><path clip-path="url(#clip560)" d="M895.914 264.234 Q890.752 264.234 888.761 265.414 Q886.771 266.595 886.771 269.442 Q886.771 271.711 888.252 273.053 Q889.757 274.373 892.326 274.373 Q895.868 274.373 897.998 271.873 Q900.15 269.35 900.15 265.183 L900.15 264.234 L895.914 264.234 M904.41 262.475 L904.41 277.266 L900.15 277.266 L900.15 273.331 Q898.692 275.692 896.516 276.826 Q894.34 277.938 891.192 277.938 Q887.211 277.938 884.849 275.715 Q882.512 273.47 882.512 269.72 Q882.512 265.345 885.428 263.123 Q888.368 260.901 894.178 260.901 L900.15 260.901 L900.15 260.484 Q900.15 257.544 898.206 255.947 Q896.285 254.327 892.789 254.327 Q890.567 254.327 888.461 254.859 Q886.354 255.391 884.41 256.456 L884.41 252.521 Q886.748 251.618 888.947 251.178 Q891.146 250.715 893.229 250.715 Q898.854 250.715 901.632 253.632 Q904.41 256.549 904.41 262.475 Z" fill="#000000" fill-rule="evenodd" fill-opacity="1" /><path clip-path="url(#clip560)" d="M933.368 256.317 Q934.965 253.447 937.187 252.081 Q939.409 250.715 942.419 250.715 Q946.47 250.715 948.669 253.563 Q950.868 256.387 950.868 261.618 L950.868 277.266 L946.585 277.266 L946.585 261.757 Q946.585 258.03 945.266 256.225 Q943.946 254.419 941.238 254.419 Q937.928 254.419 936.007 256.618 Q934.085 258.817 934.085 262.614 L934.085 277.266 L929.803 277.266 L929.803 261.757 Q929.803 258.007 928.483 256.225 Q927.164 254.419 924.409 254.419 Q921.146 254.419 919.224 256.641 Q917.303 258.84 917.303 262.614 L917.303 277.266 L913.021 277.266 L913.021 251.34 L917.303 251.34 L917.303 255.368 Q918.761 252.984 920.798 251.85 Q922.835 250.715 925.636 250.715 Q928.46 250.715 930.428 252.151 Q932.419 253.586 933.368 256.317 Z" fill="#000000" fill-rule="evenodd" fill-opacity="1" /><path clip-path="url(#clip560)" d="M969.409 254.327 Q965.983 254.327 963.993 257.012 Q962.002 259.674 962.002 264.327 Q962.002 268.979 963.969 271.664 Q965.96 274.326 969.409 274.326 Q972.812 274.326 974.803 271.641 Q976.793 268.956 976.793 264.327 Q976.793 259.72 974.803 257.035 Q972.812 254.327 969.409 254.327 M969.409 250.715 Q974.965 250.715 978.136 254.327 Q981.307 257.938 981.307 264.327 Q981.307 270.692 978.136 274.326 Q974.965 277.938 969.409 277.938 Q963.831 277.938 960.659 274.326 Q957.511 270.692 957.511 264.327 Q957.511 257.938 960.659 254.327 Q963.831 250.715 969.409 250.715 Z" fill="#000000" fill-rule="evenodd" fill-opacity="1" /><path clip-path="url(#clip560)" d="M1004.9 252.104 L1004.9 256.132 Q1003.09 255.206 1001.15 254.743 Q999.201 254.28 997.117 254.28 Q993.946 254.28 992.349 255.253 Q990.775 256.225 990.775 258.169 Q990.775 259.651 991.909 260.507 Q993.043 261.34 996.469 262.104 L997.928 262.428 Q1002.46 263.401 1004.36 265.183 Q1006.28 266.942 1006.28 270.114 Q1006.28 273.725 1003.41 275.831 Q1000.57 277.938 995.566 277.938 Q993.483 277.938 991.215 277.521 Q988.969 277.127 986.469 276.317 L986.469 271.919 Q988.83 273.146 991.122 273.771 Q993.414 274.373 995.659 274.373 Q998.668 274.373 1000.29 273.354 Q1001.91 272.313 1001.91 270.438 Q1001.91 268.702 1000.73 267.776 Q999.571 266.85 995.613 265.993 L994.131 265.646 Q990.173 264.813 988.414 263.1 Q986.654 261.364 986.654 258.354 Q986.654 254.697 989.247 252.706 Q991.84 250.715 996.608 250.715 Q998.969 250.715 1001.05 251.063 Q1003.14 251.41 1004.9 252.104 Z" fill="#000000" fill-rule="evenodd" fill-opacity="1" /><path clip-path="url(#clip560)" d="M1017.28 243.979 L1017.28 251.34 L1026.05 251.34 L1026.05 254.651 L1017.28 254.651 L1017.28 268.725 Q1017.28 271.896 1018.14 272.799 Q1019.02 273.701 1021.68 273.701 L1026.05 273.701 L1026.05 277.266 L1021.68 277.266 Q1016.75 277.266 1014.87 275.438 Q1013 273.586 1013 268.725 L1013 254.651 L1009.87 254.651 L1009.87 251.34 L1013 251.34 L1013 243.979 L1017.28 243.979 Z" fill="#000000" fill-rule="evenodd" fill-opacity="1" /><path clip-path="url(#clip560)" d="M1046.68 255.322 Q1045.96 254.905 1045.1 254.72 Q1044.27 254.512 1043.25 254.512 Q1039.64 254.512 1037.7 256.873 Q1035.77 259.211 1035.77 263.609 L1035.77 277.266 L1031.49 277.266 L1031.49 251.34 L1035.77 251.34 L1035.77 255.368 Q1037.12 253.007 1039.27 251.873 Q1041.42 250.715 1044.5 250.715 Q1044.94 250.715 1045.47 250.785 Q1046.01 250.831 1046.65 250.947 L1046.68 255.322 Z" fill="#000000" fill-rule="evenodd" fill-opacity="1" /><path clip-path="url(#clip560)" d="M1062.93 264.234 Q1057.77 264.234 1055.77 265.414 Q1053.78 266.595 1053.78 269.442 Q1053.78 271.711 1055.27 273.053 Q1056.77 274.373 1059.34 274.373 Q1062.88 274.373 1065.01 271.873 Q1067.16 269.35 1067.16 265.183 L1067.16 264.234 L1062.93 264.234 M1071.42 262.475 L1071.42 277.266 L1067.16 277.266 L1067.16 273.331 Q1065.7 275.692 1063.53 276.826 Q1061.35 277.938 1058.21 277.938 Q1054.22 277.938 1051.86 275.715 Q1049.52 273.47 1049.52 269.72 Q1049.52 265.345 1052.44 263.123 Q1055.38 260.901 1061.19 260.901 L1067.16 260.901 L1067.16 260.484 Q1067.16 257.544 1065.22 255.947 Q1063.3 254.327 1059.8 254.327 Q1057.58 254.327 1055.47 254.859 Q1053.37 255.391 1051.42 256.456 L1051.42 252.521 Q1053.76 251.618 1055.96 251.178 Q1058.16 250.715 1060.24 250.715 Q1065.87 250.715 1068.64 253.632 Q1071.42 256.549 1071.42 262.475 Z" fill="#000000" fill-rule="evenodd" fill-opacity="1" /><path clip-path="url(#clip560)" d="M1096.72 252.104 L1096.72 256.132 Q1094.92 255.206 1092.97 254.743 Q1091.03 254.28 1088.95 254.28 Q1085.77 254.28 1084.18 255.253 Q1082.6 256.225 1082.6 258.169 Q1082.6 259.651 1083.74 260.507 Q1084.87 261.34 1088.3 262.104 L1089.76 262.428 Q1094.29 263.401 1096.19 265.183 Q1098.11 266.942 1098.11 270.114 Q1098.11 273.725 1095.24 275.831 Q1092.39 277.938 1087.39 277.938 Q1085.31 277.938 1083.04 277.521 Q1080.8 277.127 1078.3 276.317 L1078.3 271.919 Q1080.66 273.146 1082.95 273.771 Q1085.24 274.373 1087.49 274.373 Q1090.5 274.373 1092.12 273.354 Q1093.74 272.313 1093.74 270.438 Q1093.74 268.702 1092.56 267.776 Q1091.4 266.85 1087.44 265.993 L1085.96 265.646 Q1082 264.813 1080.24 263.1 Q1078.48 261.364 1078.48 258.354 Q1078.48 254.697 1081.08 252.706 Q1083.67 250.715 1088.44 250.715 Q1090.8 250.715 1092.88 251.063 Q1094.96 251.41 1096.72 252.104 Z" fill="#000000" fill-rule="evenodd" fill-opacity="1" /><path clip-path="url(#clip560)" d="M414.813 286.226 L408.797 303.532 L390.468 303.916 L405.085 315.001 L399.76 332.537 L414.813 322.066 L429.866 332.537 L424.541 315.001 L439.159 303.916 L420.829 303.532 L414.813 286.226 Z" fill="#e26f46" fill-rule="evenodd" fill-opacity="1" stroke="#000000" stroke-opacity="1" stroke-width="0"/>
<path clip-path="url(#clip560)" d="M532.236 315.079 L532.236 317.162 L512.652 317.162 Q512.93 321.56 515.291 323.875 Q517.676 326.166 521.912 326.166 Q524.365 326.166 526.657 325.565 Q528.972 324.963 531.24 323.759 L531.24 327.787 Q528.949 328.759 526.541 329.268 Q524.134 329.778 521.657 329.778 Q515.453 329.778 511.819 326.166 Q508.208 322.555 508.208 316.398 Q508.208 310.032 511.634 306.305 Q515.083 302.555 520.916 302.555 Q526.148 302.555 529.18 305.935 Q532.236 309.292 532.236 315.079 M527.976 313.829 Q527.93 310.333 526.009 308.25 Q524.111 306.167 520.963 306.167 Q517.398 306.167 515.245 308.18 Q513.115 310.194 512.791 313.852 L527.976 313.829 Z" fill="#000000" fill-rule="evenodd" fill-opacity="1" /><path clip-path="url(#clip560)" d="M554.249 307.162 Q553.532 306.745 552.675 306.56 Q551.842 306.352 550.823 306.352 Q547.212 306.352 545.268 308.713 Q543.347 311.051 543.347 315.449 L543.347 329.106 L539.064 329.106 L539.064 303.18 L543.347 303.18 L543.347 307.208 Q544.689 304.847 546.842 303.713 Q548.995 302.555 552.073 302.555 Q552.513 302.555 553.046 302.625 Q553.578 302.671 554.226 302.787 L554.249 307.162 Z" fill="#000000" fill-rule="evenodd" fill-opacity="1" /><path clip-path="url(#clip560)" d="M572.907 307.162 Q572.189 306.745 571.333 306.56 Q570.499 306.352 569.481 306.352 Q565.87 306.352 563.925 308.713 Q562.004 311.051 562.004 315.449 L562.004 329.106 L557.722 329.106 L557.722 303.18 L562.004 303.18 L562.004 307.208 Q563.347 304.847 565.499 303.713 Q567.652 302.555 570.731 302.555 Q571.171 302.555 571.703 302.625 Q572.235 302.671 572.884 302.787 L572.907 307.162 Z" fill="#000000" fill-rule="evenodd" fill-opacity="1" /><path clip-path="url(#clip560)" d="M586.379 306.167 Q582.953 306.167 580.962 308.852 Q578.971 311.514 578.971 316.167 Q578.971 320.819 580.939 323.504 Q582.93 326.166 586.379 326.166 Q589.782 326.166 591.772 323.481 Q593.763 320.796 593.763 316.167 Q593.763 311.56 591.772 308.875 Q589.782 306.167 586.379 306.167 M586.379 302.555 Q591.934 302.555 595.106 306.167 Q598.277 309.778 598.277 316.167 Q598.277 322.532 595.106 326.166 Q591.934 329.778 586.379 329.778 Q580.8 329.778 577.629 326.166 Q574.481 322.532 574.481 316.167 Q574.481 309.778 577.629 306.167 Q580.8 302.555 586.379 302.555 Z" fill="#000000" fill-rule="evenodd" fill-opacity="1" /><path clip-path="url(#clip560)" d="M633.531 293.088 L633.531 296.63 L629.457 296.63 Q627.166 296.63 626.263 297.556 Q625.383 298.481 625.383 300.889 L625.383 303.18 L632.397 303.18 L632.397 306.491 L625.383 306.491 L625.383 329.106 L621.101 329.106 L621.101 306.491 L617.027 306.491 L617.027 303.18 L621.101 303.18 L621.101 301.375 Q621.101 297.046 623.115 295.079 Q625.129 293.088 629.504 293.088 L633.531 293.088 Z" fill="#000000" fill-rule="evenodd" fill-opacity="1" /><path clip-path="url(#clip560)" d="M647.142 306.167 Q643.716 306.167 641.726 308.852 Q639.735 311.514 639.735 316.167 Q639.735 320.819 641.703 323.504 Q643.693 326.166 647.142 326.166 Q650.545 326.166 652.536 323.481 Q654.527 320.796 654.527 316.167 Q654.527 311.56 652.536 308.875 Q650.545 306.167 647.142 306.167 M647.142 302.555 Q652.698 302.555 655.869 306.167 Q659.04 309.778 659.04 316.167 Q659.04 322.532 655.869 326.166 Q652.698 329.778 647.142 329.778 Q641.564 329.778 638.392 326.166 Q635.244 322.532 635.244 316.167 Q635.244 309.778 638.392 306.167 Q641.564 302.555 647.142 302.555 Z" fill="#000000" fill-rule="evenodd" fill-opacity="1" /><path clip-path="url(#clip560)" d="M681.124 307.162 Q680.406 306.745 679.55 306.56 Q678.716 306.352 677.698 306.352 Q674.087 306.352 672.142 308.713 Q670.221 311.051 670.221 315.449 L670.221 329.106 L665.939 329.106 L665.939 303.18 L670.221 303.18 L670.221 307.208 Q671.564 304.847 673.716 303.713 Q675.869 302.555 678.948 302.555 Q679.388 302.555 679.92 302.625 Q680.452 302.671 681.101 302.787 L681.124 307.162 Z" fill="#000000" fill-rule="evenodd" fill-opacity="1" /><path clip-path="url(#clip560)" d="M689.804 295.819 L689.804 303.18 L698.577 303.18 L698.577 306.491 L689.804 306.491 L689.804 320.565 Q689.804 323.736 690.661 324.639 Q691.54 325.541 694.202 325.541 L698.577 325.541 L698.577 329.106 L694.202 329.106 Q689.272 329.106 687.397 327.278 Q685.522 325.426 685.522 320.565 L685.522 306.491 L682.397 306.491 L682.397 303.18 L685.522 303.18 L685.522 295.819 L689.804 295.819 Z" fill="#000000" fill-rule="evenodd" fill-opacity="1" /><path clip-path="url(#clip560)" d="M726.355 315.079 L726.355 317.162 L706.772 317.162 Q707.049 321.56 709.411 323.875 Q711.795 326.166 716.031 326.166 Q718.485 326.166 720.776 325.565 Q723.091 324.963 725.36 323.759 L725.36 327.787 Q723.068 328.759 720.661 329.268 Q718.253 329.778 715.776 329.778 Q709.573 329.778 705.938 326.166 Q702.327 322.555 702.327 316.398 Q702.327 310.032 705.753 306.305 Q709.202 302.555 715.036 302.555 Q720.267 302.555 723.299 305.935 Q726.355 309.292 726.355 315.079 M722.096 313.829 Q722.049 310.333 720.128 308.25 Q718.23 306.167 715.082 306.167 Q711.517 306.167 709.364 308.18 Q707.235 310.194 706.911 313.852 L722.096 313.829 Z" fill="#000000" fill-rule="evenodd" fill-opacity="1" /><path clip-path="url(#clip560)" d="M749.827 325.171 L757.466 325.171 L757.466 298.806 L749.156 300.472 L749.156 296.213 L757.42 294.546 L762.095 294.546 L762.095 325.171 L769.734 325.171 L769.734 329.106 L749.827 329.106 L749.827 325.171 Z" fill="#000000" fill-rule="evenodd" fill-opacity="1" /><path clip-path="url(#clip560)" d="M789.179 297.625 Q785.568 297.625 783.739 301.19 Q781.933 304.731 781.933 311.861 Q781.933 318.967 783.739 322.532 Q785.568 326.074 789.179 326.074 Q792.813 326.074 794.618 322.532 Q796.447 318.967 796.447 311.861 Q796.447 304.731 794.618 301.19 Q792.813 297.625 789.179 297.625 M789.179 293.921 Q794.989 293.921 798.044 298.528 Q801.123 303.111 801.123 311.861 Q801.123 320.588 798.044 325.194 Q794.989 329.778 789.179 329.778 Q783.369 329.778 780.29 325.194 Q777.234 320.588 777.234 311.861 Q777.234 303.111 780.29 298.528 Q783.369 293.921 789.179 293.921 Z" fill="#000000" fill-rule="evenodd" fill-opacity="1" /><path clip-path="url(#clip560)" d="M835.59 316.074 Q830.428 316.074 828.438 317.254 Q826.447 318.435 826.447 321.282 Q826.447 323.551 827.928 324.893 Q829.433 326.213 832.003 326.213 Q835.544 326.213 837.674 323.713 Q839.827 321.19 839.827 317.023 L839.827 316.074 L835.59 316.074 M844.086 314.315 L844.086 329.106 L839.827 329.106 L839.827 325.171 Q838.368 327.532 836.192 328.666 Q834.016 329.778 830.868 329.778 Q826.887 329.778 824.526 327.555 Q822.188 325.31 822.188 321.56 Q822.188 317.185 825.104 314.963 Q828.044 312.741 833.854 312.741 L839.827 312.741 L839.827 312.324 Q839.827 309.384 837.882 307.787 Q835.961 306.167 832.465 306.167 Q830.243 306.167 828.137 306.699 Q826.03 307.231 824.086 308.296 L824.086 304.361 Q826.424 303.458 828.623 303.018 Q830.822 302.555 832.905 302.555 Q838.53 302.555 841.308 305.472 Q844.086 308.389 844.086 314.315 Z" fill="#000000" fill-rule="evenodd" fill-opacity="1" /><path clip-path="url(#clip560)" d="M873.044 308.157 Q874.641 305.287 876.863 303.921 Q879.086 302.555 882.095 302.555 Q886.146 302.555 888.345 305.403 Q890.544 308.227 890.544 313.458 L890.544 329.106 L886.261 329.106 L886.261 313.597 Q886.261 309.87 884.942 308.065 Q883.623 306.259 880.914 306.259 Q877.604 306.259 875.683 308.458 Q873.762 310.657 873.762 314.454 L873.762 329.106 L869.479 329.106 L869.479 313.597 Q869.479 309.847 868.16 308.065 Q866.84 306.259 864.086 306.259 Q860.822 306.259 858.901 308.481 Q856.979 310.68 856.979 314.454 L856.979 329.106 L852.697 329.106 L852.697 303.18 L856.979 303.18 L856.979 307.208 Q858.438 304.824 860.475 303.69 Q862.512 302.555 865.313 302.555 Q868.137 302.555 870.104 303.991 Q872.095 305.426 873.044 308.157 Z" fill="#000000" fill-rule="evenodd" fill-opacity="1" /><path clip-path="url(#clip560)" d="M909.085 306.167 Q905.66 306.167 903.669 308.852 Q901.678 311.514 901.678 316.167 Q901.678 320.819 903.646 323.504 Q905.636 326.166 909.085 326.166 Q912.488 326.166 914.479 323.481 Q916.47 320.796 916.47 316.167 Q916.47 311.56 914.479 308.875 Q912.488 306.167 909.085 306.167 M909.085 302.555 Q914.641 302.555 917.812 306.167 Q920.984 309.778 920.984 316.167 Q920.984 322.532 917.812 326.166 Q914.641 329.778 909.085 329.778 Q903.507 329.778 900.335 326.166 Q897.187 322.532 897.187 316.167 Q897.187 309.778 900.335 306.167 Q903.507 302.555 909.085 302.555 Z" fill="#000000" fill-rule="evenodd" fill-opacity="1" /><path clip-path="url(#clip560)" d="M944.571 303.944 L944.571 307.972 Q942.766 307.046 940.821 306.583 Q938.877 306.12 936.794 306.12 Q933.622 306.12 932.025 307.093 Q930.451 308.065 930.451 310.009 Q930.451 311.491 931.585 312.347 Q932.72 313.18 936.145 313.944 L937.604 314.268 Q942.141 315.241 944.039 317.023 Q945.96 318.782 945.96 321.954 Q945.96 325.565 943.09 327.671 Q940.243 329.778 935.243 329.778 Q933.159 329.778 930.891 329.361 Q928.646 328.967 926.146 328.157 L926.146 323.759 Q928.507 324.986 930.798 325.611 Q933.09 326.213 935.335 326.213 Q938.345 326.213 939.965 325.194 Q941.585 324.153 941.585 322.278 Q941.585 320.542 940.405 319.616 Q939.247 318.69 935.289 317.833 L933.808 317.486 Q929.849 316.653 928.09 314.94 Q926.331 313.204 926.331 310.194 Q926.331 306.537 928.923 304.546 Q931.516 302.555 936.284 302.555 Q938.645 302.555 940.729 302.903 Q942.812 303.25 944.571 303.944 Z" fill="#000000" fill-rule="evenodd" fill-opacity="1" /><path clip-path="url(#clip560)" d="M956.956 295.819 L956.956 303.18 L965.729 303.18 L965.729 306.491 L956.956 306.491 L956.956 320.565 Q956.956 323.736 957.812 324.639 Q958.692 325.541 961.354 325.541 L965.729 325.541 L965.729 329.106 L961.354 329.106 Q956.423 329.106 954.548 327.278 Q952.673 325.426 952.673 320.565 L952.673 306.491 L949.548 306.491 L949.548 303.18 L952.673 303.18 L952.673 295.819 L956.956 295.819 Z" fill="#000000" fill-rule="evenodd" fill-opacity="1" /><path clip-path="url(#clip560)" d="M986.354 307.162 Q985.636 306.745 984.779 306.56 Q983.946 306.352 982.928 306.352 Q979.317 306.352 977.372 308.713 Q975.451 311.051 975.451 315.449 L975.451 329.106 L971.168 329.106 L971.168 303.18 L975.451 303.18 L975.451 307.208 Q976.793 304.847 978.946 303.713 Q981.099 302.555 984.178 302.555 Q984.617 302.555 985.15 302.625 Q985.682 302.671 986.33 302.787 L986.354 307.162 Z" fill="#000000" fill-rule="evenodd" fill-opacity="1" /><path clip-path="url(#clip560)" d="M1002.6 316.074 Q997.441 316.074 995.451 317.254 Q993.46 318.435 993.46 321.282 Q993.46 323.551 994.941 324.893 Q996.446 326.213 999.016 326.213 Q1002.56 326.213 1004.69 323.713 Q1006.84 321.19 1006.84 317.023 L1006.84 316.074 L1002.6 316.074 M1011.1 314.315 L1011.1 329.106 L1006.84 329.106 L1006.84 325.171 Q1005.38 327.532 1003.21 328.666 Q1001.03 329.778 997.881 329.778 Q993.9 329.778 991.539 327.555 Q989.201 325.31 989.201 321.56 Q989.201 317.185 992.117 314.963 Q995.057 312.741 1000.87 312.741 L1006.84 312.741 L1006.84 312.324 Q1006.84 309.384 1004.9 307.787 Q1002.97 306.167 999.478 306.167 Q997.256 306.167 995.15 306.699 Q993.043 307.231 991.099 308.296 L991.099 304.361 Q993.437 303.458 995.636 303.018 Q997.835 302.555 999.918 302.555 Q1005.54 302.555 1008.32 305.472 Q1011.1 308.389 1011.1 314.315 Z" fill="#000000" fill-rule="evenodd" fill-opacity="1" /><path clip-path="url(#clip560)" d="M1036.4 303.944 L1036.4 307.972 Q1034.59 307.046 1032.65 306.583 Q1030.71 306.12 1028.62 306.12 Q1025.45 306.12 1023.85 307.093 Q1022.28 308.065 1022.28 310.009 Q1022.28 311.491 1023.41 312.347 Q1024.55 313.18 1027.97 313.944 L1029.43 314.268 Q1033.97 315.241 1035.87 317.023 Q1037.79 318.782 1037.79 321.954 Q1037.79 325.565 1034.92 327.671 Q1032.07 329.778 1027.07 329.778 Q1024.99 329.778 1022.72 329.361 Q1020.47 328.967 1017.97 328.157 L1017.97 323.759 Q1020.33 324.986 1022.63 325.611 Q1024.92 326.213 1027.16 326.213 Q1030.17 326.213 1031.79 325.194 Q1033.41 324.153 1033.41 322.278 Q1033.41 320.542 1032.23 319.616 Q1031.08 318.69 1027.12 317.833 L1025.64 317.486 Q1021.68 316.653 1019.92 314.94 Q1018.16 313.204 1018.16 310.194 Q1018.16 306.537 1020.75 304.546 Q1023.34 302.555 1028.11 302.555 Q1030.47 302.555 1032.56 302.903 Q1034.64 303.25 1036.4 303.944 Z" fill="#000000" fill-rule="evenodd" fill-opacity="1" /><polyline clip-path="url(#clip560)" style="stroke:#3da44d; stroke-linecap:butt; stroke-linejoin:round; stroke-width:4; stroke-opacity:1; fill:none" stroke-dasharray="16, 10" points="
  344.767,363.666 484.859,363.666 
  "/>
<path clip-path="url(#clip560)" d="M521.611 367.914 Q516.449 367.914 514.458 369.094 Q512.467 370.275 512.467 373.122 Q512.467 375.391 513.949 376.733 Q515.453 378.053 518.023 378.053 Q521.564 378.053 523.694 375.553 Q525.847 373.03 525.847 368.863 L525.847 367.914 L521.611 367.914 M530.106 366.155 L530.106 380.946 L525.847 380.946 L525.847 377.011 Q524.388 379.372 522.213 380.506 Q520.037 381.618 516.888 381.618 Q512.907 381.618 510.546 379.395 Q508.208 377.15 508.208 373.4 Q508.208 369.025 511.125 366.803 Q514.064 364.581 519.875 364.581 L525.847 364.581 L525.847 364.164 Q525.847 361.224 523.902 359.627 Q521.981 358.007 518.486 358.007 Q516.263 358.007 514.157 358.539 Q512.051 359.071 510.106 360.136 L510.106 356.201 Q512.444 355.298 514.643 354.858 Q516.842 354.395 518.925 354.395 Q524.55 354.395 527.328 357.312 Q530.106 360.229 530.106 366.155 Z" fill="#000000" fill-rule="evenodd" fill-opacity="1" /><path clip-path="url(#clip560)" d="M538.879 355.02 L543.138 355.02 L543.138 381.409 Q543.138 386.363 541.24 388.585 Q539.365 390.807 535.175 390.807 L533.555 390.807 L533.555 387.196 L534.689 387.196 Q537.12 387.196 537.999 386.062 Q538.879 384.951 538.879 381.409 L538.879 355.02 M538.879 344.928 L543.138 344.928 L543.138 350.321 L538.879 350.321 L538.879 344.928 Z" fill="#000000" fill-rule="evenodd" fill-opacity="1" /><path clip-path="url(#clip560)" d="M551.611 370.715 L551.611 355.02 L555.87 355.02 L555.87 370.553 Q555.87 374.233 557.305 376.085 Q558.74 377.914 561.61 377.914 Q565.06 377.914 567.05 375.715 Q569.064 373.516 569.064 369.719 L569.064 355.02 L573.323 355.02 L573.323 380.946 L569.064 380.946 L569.064 376.965 Q567.513 379.326 565.453 380.483 Q563.416 381.618 560.708 381.618 Q556.24 381.618 553.925 378.84 Q551.611 376.062 551.611 370.715 M562.328 354.395 L562.328 354.395 Z" fill="#000000" fill-rule="evenodd" fill-opacity="1" /><path clip-path="url(#clip560)" d="M598.624 355.784 L598.624 359.812 Q596.819 358.886 594.874 358.423 Q592.93 357.96 590.846 357.96 Q587.675 357.96 586.078 358.933 Q584.504 359.905 584.504 361.849 Q584.504 363.331 585.638 364.187 Q586.772 365.02 590.198 365.784 L591.657 366.108 Q596.194 367.081 598.092 368.863 Q600.013 370.622 600.013 373.794 Q600.013 377.405 597.143 379.511 Q594.295 381.618 589.295 381.618 Q587.212 381.618 584.944 381.201 Q582.698 380.807 580.198 379.997 L580.198 375.599 Q582.559 376.826 584.851 377.451 Q587.143 378.053 589.388 378.053 Q592.397 378.053 594.018 377.034 Q595.638 375.993 595.638 374.118 Q595.638 372.382 594.458 371.456 Q593.3 370.53 589.342 369.673 L587.86 369.326 Q583.902 368.493 582.143 366.78 Q580.384 365.044 580.384 362.034 Q580.384 358.377 582.976 356.386 Q585.569 354.395 590.337 354.395 Q592.698 354.395 594.782 354.743 Q596.865 355.09 598.624 355.784 Z" fill="#000000" fill-rule="evenodd" fill-opacity="1" /><path clip-path="url(#clip560)" d="M611.008 347.659 L611.008 355.02 L619.781 355.02 L619.781 358.331 L611.008 358.331 L611.008 372.405 Q611.008 375.576 611.865 376.479 Q612.744 377.381 615.406 377.381 L619.781 377.381 L619.781 380.946 L615.406 380.946 Q610.476 380.946 608.601 379.118 Q606.726 377.266 606.726 372.405 L606.726 358.331 L603.601 358.331 L603.601 355.02 L606.726 355.02 L606.726 347.659 L611.008 347.659 Z" fill="#000000" fill-rule="evenodd" fill-opacity="1" /><path clip-path="url(#clip560)" d="M647.559 366.919 L647.559 369.002 L627.976 369.002 Q628.254 373.4 630.615 375.715 Q632.999 378.006 637.235 378.006 Q639.689 378.006 641.98 377.405 Q644.295 376.803 646.564 375.599 L646.564 379.627 Q644.272 380.599 641.865 381.108 Q639.457 381.618 636.98 381.618 Q630.777 381.618 627.143 378.006 Q623.531 374.395 623.531 368.238 Q623.531 361.872 626.957 358.145 Q630.406 354.395 636.24 354.395 Q641.471 354.395 644.504 357.775 Q647.559 361.132 647.559 366.919 M643.3 365.669 Q643.254 362.173 641.332 360.09 Q639.434 358.007 636.286 358.007 Q632.721 358.007 630.568 360.02 Q628.439 362.034 628.115 365.692 L643.3 365.669 Z" fill="#000000" fill-rule="evenodd" fill-opacity="1" /><path clip-path="url(#clip560)" d="M669.619 344.928 L673.878 344.928 L673.878 380.946 L669.619 380.946 L669.619 344.928 Z" fill="#000000" fill-rule="evenodd" fill-opacity="1" /><path clip-path="url(#clip560)" d="M682.79 355.02 L687.05 355.02 L687.05 380.946 L682.79 380.946 L682.79 355.02 M682.79 344.928 L687.05 344.928 L687.05 350.321 L682.79 350.321 L682.79 344.928 Z" fill="#000000" fill-rule="evenodd" fill-opacity="1" /><path clip-path="url(#clip560)" d="M717.512 365.298 L717.512 380.946 L713.253 380.946 L713.253 365.437 Q713.253 361.757 711.818 359.928 Q710.383 358.099 707.512 358.099 Q704.063 358.099 702.073 360.298 Q700.082 362.497 700.082 366.294 L700.082 380.946 L695.8 380.946 L695.8 355.02 L700.082 355.02 L700.082 359.048 Q701.61 356.71 703.67 355.553 Q705.753 354.395 708.462 354.395 Q712.929 354.395 715.221 357.173 Q717.512 359.928 717.512 365.298 Z" fill="#000000" fill-rule="evenodd" fill-opacity="1" /><path clip-path="url(#clip560)" d="M748.184 366.919 L748.184 369.002 L728.6 369.002 Q728.878 373.4 731.239 375.715 Q733.623 378.006 737.86 378.006 Q740.313 378.006 742.605 377.405 Q744.92 376.803 747.188 375.599 L747.188 379.627 Q744.897 380.599 742.489 381.108 Q740.082 381.618 737.605 381.618 Q731.401 381.618 727.767 378.006 Q724.156 374.395 724.156 368.238 Q724.156 361.872 727.582 358.145 Q731.031 354.395 736.864 354.395 Q742.096 354.395 745.128 357.775 Q748.184 361.132 748.184 366.919 M743.924 365.669 Q743.878 362.173 741.957 360.09 Q740.059 358.007 736.91 358.007 Q733.346 358.007 731.193 360.02 Q729.063 362.034 728.739 365.692 L743.924 365.669 Z" fill="#000000" fill-rule="evenodd" fill-opacity="1" /><path clip-path="url(#clip560)" d="M766.957 367.914 Q761.795 367.914 759.804 369.094 Q757.813 370.275 757.813 373.122 Q757.813 375.391 759.295 376.733 Q760.799 378.053 763.369 378.053 Q766.91 378.053 769.04 375.553 Q771.193 373.03 771.193 368.863 L771.193 367.914 L766.957 367.914 M775.452 366.155 L775.452 380.946 L771.193 380.946 L771.193 377.011 Q769.734 379.372 767.558 380.506 Q765.383 381.618 762.234 381.618 Q758.253 381.618 755.892 379.395 Q753.554 377.15 753.554 373.4 Q753.554 369.025 756.471 366.803 Q759.41 364.581 765.22 364.581 L771.193 364.581 L771.193 364.164 Q771.193 361.224 769.248 359.627 Q767.327 358.007 763.832 358.007 Q761.609 358.007 759.503 358.539 Q757.396 359.071 755.452 360.136 L755.452 356.201 Q757.79 355.298 759.989 354.858 Q762.188 354.395 764.271 354.395 Q769.896 354.395 772.674 357.312 Q775.452 360.229 775.452 366.155 Z" fill="#000000" fill-rule="evenodd" fill-opacity="1" /><path clip-path="url(#clip560)" d="M799.248 359.002 Q798.53 358.585 797.674 358.4 Q796.841 358.192 795.822 358.192 Q792.211 358.192 790.267 360.553 Q788.345 362.891 788.345 367.289 L788.345 380.946 L784.063 380.946 L784.063 355.02 L788.345 355.02 L788.345 359.048 Q789.688 356.687 791.841 355.553 Q793.993 354.395 797.072 354.395 Q797.512 354.395 798.044 354.465 Q798.577 354.511 799.225 354.627 L799.248 359.002 Z" fill="#000000" fill-rule="evenodd" fill-opacity="1" /></svg>
