<?xml version="1.0" encoding="utf-8"?>
<svg xmlns="http://www.w3.org/2000/svg" xmlns:xlink="http://www.w3.org/1999/xlink" width="600" height="400" viewBox="0 0 2400 1600">
<defs>
  <clipPath id="clip680">
    <rect x="0" y="0" width="2400" height="1600"/>
  </clipPath>
</defs>
<path clip-path="url(#clip680)" d="
M0 1600 L2400 1600 L2400 0 L0 0  Z
  " fill="#ffffff" fill-rule="evenodd" fill-opacity="1"/>
<defs>
  <clipPath id="clip681">
    <rect x="480" y="0" width="1681" height="1600"/>
  </clipPath>
</defs>
<path clip-path="url(#clip680)" d="
M251.071 1410.9 L2352.76 1410.9 L2352.76 166.672 L251.071 166.672  Z
  " fill="#eaeaea" fill-rule="evenodd" fill-opacity="1"/>
<defs>
  <clipPath id="clip682">
    <rect x="251" y="166" width="2103" height="1245"/>
  </clipPath>
</defs>
<polyline clip-path="url(#clip682)" style="stroke:#ffffff; stroke-linecap:butt; stroke-linejoin:round; stroke-width:4; stroke-opacity:1; fill:none" points="
  838.202,1410.9 838.202,166.672 
  "/>
<polyline clip-path="url(#clip682)" style="stroke:#ffffff; stroke-linecap:butt; stroke-linejoin:round; stroke-width:4; stroke-opacity:1; fill:none" points="
  1493.15,1410.9 1493.15,166.672 
  "/>
<polyline clip-path="url(#clip682)" style="stroke:#ffffff; stroke-linecap:butt; stroke-linejoin:round; stroke-width:4; stroke-opacity:1; fill:none" points="
  2148.09,1410.9 2148.09,166.672 
  "/>
<polyline clip-path="url(#clip680)" style="stroke:#ffffff; stroke-linecap:butt; stroke-linejoin:round; stroke-width:4; stroke-opacity:1; fill:none" points="
  251.071,1410.9 2352.76,1410.9 
  "/>
<polyline clip-path="url(#clip680)" style="stroke:#333333; stroke-linecap:butt; stroke-linejoin:round; stroke-width:4; stroke-opacity:1; fill:none" points="
  838.202,1410.9 838.202,1429.79 
  "/>
<polyline clip-path="url(#clip680)" style="stroke:#333333; stroke-linecap:butt; stroke-linejoin:round; stroke-width:4; stroke-opacity:1; fill:none" points="
  1493.15,1410.9 1493.15,1429.79 
  "/>
<polyline clip-path="url(#clip680)" style="stroke:#333333; stroke-linecap:butt; stroke-linejoin:round; stroke-width:4; stroke-opacity:1; fill:none" points="
  2148.09,1410.9 2148.09,1429.79 
  "/>
<path clip-path="url(#clip680)" d="M769.848 1494.62 L777.487 1494.62 L777.487 1468.26 L769.176 1469.92 L769.176 1465.66 L777.44 1464 L782.116 1464 L782.116 1494.62 L789.755 1494.62 L789.755 1498.56 L769.848 1498.56 L769.848 1494.62 Z" fill="#4c4c4c" fill-rule="evenodd" fill-opacity="1" /><path clip-path="url(#clip680)" d="M809.199 1467.08 Q805.588 1467.08 803.76 1470.64 Q801.954 1474.18 801.954 1481.31 Q801.954 1488.42 803.76 1491.98 Q805.588 1495.52 809.199 1495.52 Q812.834 1495.52 814.639 1491.98 Q816.468 1488.42 816.468 1481.31 Q816.468 1474.18 814.639 1470.64 Q812.834 1467.08 809.199 1467.08 M809.199 1463.37 Q815.009 1463.37 818.065 1467.98 Q821.144 1472.56 821.144 1481.31 Q821.144 1490.04 818.065 1494.64 Q815.009 1499.23 809.199 1499.23 Q803.389 1499.23 800.31 1494.64 Q797.255 1490.04 797.255 1481.31 Q797.255 1472.56 800.31 1467.98 Q803.389 1463.37 809.199 1463.37 Z" fill="#4c4c4c" fill-rule="evenodd" fill-opacity="1" /><path clip-path="url(#clip680)" d="M821.144 1457.47 L845.255 1457.47 L845.255 1460.67 L821.144 1460.67 L821.144 1457.47 Z" fill="#4c4c4c" fill-rule="evenodd" fill-opacity="1" /><path clip-path="url(#clip680)" d="M856.728 1467.95 L869.987 1467.95 L869.987 1471.15 L852.158 1471.15 L852.158 1467.95 Q854.321 1465.71 858.045 1461.95 Q861.787 1458.17 862.747 1457.08 Q864.571 1455.03 865.286 1453.62 Q866.019 1452.19 866.019 1450.82 Q866.019 1448.58 864.439 1447.17 Q862.878 1445.76 860.358 1445.76 Q858.571 1445.76 856.578 1446.38 Q854.603 1447 852.346 1448.26 L852.346 1444.42 Q854.64 1443.5 856.634 1443.03 Q858.628 1442.56 860.283 1442.56 Q864.646 1442.56 867.242 1444.74 Q869.837 1446.92 869.837 1450.57 Q869.837 1452.3 869.179 1453.86 Q868.539 1455.4 866.828 1457.51 Q866.358 1458.06 863.837 1460.67 Q861.317 1463.27 856.728 1467.95 Z" fill="#4c4c4c" fill-rule="evenodd" fill-opacity="1" /><path clip-path="url(#clip680)" d="M877.962 1466.37 L881.93 1466.37 L881.93 1471.15 L877.962 1471.15 L877.962 1466.37 Z" fill="#4c4c4c" fill-rule="evenodd" fill-opacity="1" /><path clip-path="url(#clip680)" d="M890.243 1443.07 L905.158 1443.07 L905.158 1446.26 L893.723 1446.26 L893.723 1453.15 Q894.55 1452.87 895.378 1452.73 Q896.206 1452.58 897.033 1452.58 Q901.735 1452.58 904.481 1455.16 Q907.227 1457.74 907.227 1462.14 Q907.227 1466.67 904.406 1469.19 Q901.585 1471.69 896.45 1471.69 Q894.682 1471.69 892.839 1471.39 Q891.015 1471.09 889.059 1470.49 L889.059 1466.67 Q890.751 1467.59 892.557 1468.04 Q894.362 1468.49 896.375 1468.49 Q899.629 1468.49 901.528 1466.78 Q903.428 1465.07 903.428 1462.14 Q903.428 1459.2 901.528 1457.49 Q899.629 1455.78 896.375 1455.78 Q894.851 1455.78 893.328 1456.12 Q891.823 1456.46 890.243 1457.17 L890.243 1443.07 Z" fill="#4c4c4c" fill-rule="evenodd" fill-opacity="1" /><path clip-path="url(#clip680)" d="M1424.39 1494.62 L1432.03 1494.62 L1432.03 1468.26 L1423.72 1469.92 L1423.72 1465.66 L1431.98 1464 L1436.66 1464 L1436.66 1494.62 L1444.3 1494.62 L1444.3 1498.56 L1424.39 1498.56 L1424.39 1494.62 Z" fill="#4c4c4c" fill-rule="evenodd" fill-opacity="1" /><path clip-path="url(#clip680)" d="M1463.74 1467.08 Q1460.13 1467.08 1458.3 1470.64 Q1456.5 1474.18 1456.5 1481.31 Q1456.5 1488.42 1458.3 1491.98 Q1460.13 1495.52 1463.74 1495.52 Q1467.38 1495.52 1469.18 1491.98 Q1471.01 1488.42 1471.01 1481.31 Q1471.01 1474.18 1469.18 1470.64 Q1467.38 1467.08 1463.74 1467.08 M1463.74 1463.37 Q1469.55 1463.37 1472.61 1467.98 Q1475.69 1472.56 1475.69 1481.31 Q1475.69 1490.04 1472.61 1494.64 Q1469.55 1499.23 1463.74 1499.23 Q1457.93 1499.23 1454.85 1494.64 Q1451.8 1490.04 1451.8 1481.31 Q1451.8 1472.56 1454.85 1467.98 Q1457.93 1463.37 1463.74 1463.37 Z" fill="#4c4c4c" fill-rule="evenodd" fill-opacity="1" /><path clip-path="url(#clip680)" d="M1475.69 1457.47 L1499.8 1457.47 L1499.8 1460.67 L1475.69 1460.67 L1475.69 1457.47 Z" fill="#4c4c4c" fill-rule="evenodd" fill-opacity="1" /><path clip-path="url(#clip680)" d="M1511.27 1467.95 L1524.53 1467.95 L1524.53 1471.15 L1506.7 1471.15 L1506.7 1467.95 Q1508.86 1465.71 1512.59 1461.95 Q1516.33 1458.17 1517.29 1457.08 Q1519.11 1455.03 1519.83 1453.62 Q1520.56 1452.19 1520.56 1450.82 Q1520.56 1448.58 1518.98 1447.17 Q1517.42 1445.76 1514.9 1445.76 Q1513.11 1445.76 1511.12 1446.38 Q1509.14 1447 1506.89 1448.26 L1506.89 1444.42 Q1509.18 1443.5 1511.18 1443.03 Q1513.17 1442.56 1514.82 1442.56 Q1519.19 1442.56 1521.78 1444.74 Q1524.38 1446.92 1524.38 1450.57 Q1524.38 1452.3 1523.72 1453.86 Q1523.08 1455.4 1521.37 1457.51 Q1520.9 1458.06 1518.38 1460.67 Q1515.86 1463.27 1511.27 1467.95 Z" fill="#4c4c4c" fill-rule="evenodd" fill-opacity="1" /><path clip-path="url(#clip680)" d="M1532.5 1466.37 L1536.47 1466.37 L1536.47 1471.15 L1532.5 1471.15 L1532.5 1466.37 Z" fill="#4c4c4c" fill-rule="evenodd" fill-opacity="1" /><path clip-path="url(#clip680)" d="M1552.87 1445.57 Q1549.94 1445.57 1548.45 1448.46 Q1546.99 1451.34 1546.99 1457.13 Q1546.99 1462.91 1548.45 1465.8 Q1549.94 1468.68 1552.87 1468.68 Q1555.83 1468.68 1557.29 1465.8 Q1558.78 1462.91 1558.78 1457.13 Q1558.78 1451.34 1557.29 1448.46 Q1555.83 1445.57 1552.87 1445.57 M1552.87 1442.56 Q1557.59 1442.56 1560.08 1446.3 Q1562.58 1450.03 1562.58 1457.13 Q1562.58 1464.22 1560.08 1467.97 Q1557.59 1471.69 1552.87 1471.69 Q1548.15 1471.69 1545.65 1467.97 Q1543.17 1464.22 1543.17 1457.13 Q1543.17 1450.03 1545.65 1446.3 Q1548.15 1442.56 1552.87 1442.56 Z" fill="#4c4c4c" fill-rule="evenodd" fill-opacity="1" /><path clip-path="url(#clip680)" d="M2079.74 1494.62 L2087.38 1494.62 L2087.38 1468.26 L2079.07 1469.92 L2079.07 1465.66 L2087.33 1464 L2092.01 1464 L2092.01 1494.62 L2099.65 1494.62 L2099.65 1498.56 L2079.74 1498.56 L2079.74 1494.62 Z" fill="#4c4c4c" fill-rule="evenodd" fill-opacity="1" /><path clip-path="url(#clip680)" d="M2119.09 1467.08 Q2115.48 1467.08 2113.65 1470.64 Q2111.85 1474.18 2111.85 1481.31 Q2111.85 1488.42 2113.65 1491.98 Q2115.48 1495.52 2119.09 1495.52 Q2122.73 1495.52 2124.53 1491.98 Q2126.36 1488.42 2126.36 1481.31 Q2126.36 1474.18 2124.53 1470.64 Q2122.73 1467.08 2119.09 1467.08 M2119.09 1463.37 Q2124.9 1463.37 2127.96 1467.98 Q2131.04 1472.56 2131.04 1481.31 Q2131.04 1490.04 2127.96 1494.64 Q2124.9 1499.23 2119.09 1499.23 Q2113.28 1499.23 2110.2 1494.64 Q2107.15 1490.04 2107.15 1481.31 Q2107.15 1472.56 2110.2 1467.98 Q2113.28 1463.37 2119.09 1463.37 Z" fill="#4c4c4c" fill-rule="evenodd" fill-opacity="1" /><path clip-path="url(#clip680)" d="M2131.04 1457.47 L2155.15 1457.47 L2155.15 1460.67 L2131.04 1460.67 L2131.04 1457.47 Z" fill="#4c4c4c" fill-rule="evenodd" fill-opacity="1" /><path clip-path="url(#clip680)" d="M2164.01 1467.95 L2170.21 1467.95 L2170.21 1446.53 L2163.46 1447.88 L2163.46 1444.42 L2170.17 1443.07 L2173.97 1443.07 L2173.97 1467.95 L2180.18 1467.95 L2180.18 1471.15 L2164.01 1471.15 L2164.01 1467.95 Z" fill="#4c4c4c" fill-rule="evenodd" fill-opacity="1" /><path clip-path="url(#clip680)" d="M2187.85 1466.37 L2191.82 1466.37 L2191.82 1471.15 L2187.85 1471.15 L2187.85 1466.37 Z" fill="#4c4c4c" fill-rule="evenodd" fill-opacity="1" /><path clip-path="url(#clip680)" d="M2200.14 1443.07 L2215.05 1443.07 L2215.05 1446.26 L2203.62 1446.26 L2203.62 1453.15 Q2204.44 1452.87 2205.27 1452.73 Q2206.1 1452.58 2206.93 1452.58 Q2211.63 1452.58 2214.37 1455.16 Q2217.12 1457.74 2217.12 1462.14 Q2217.12 1466.67 2214.3 1469.19 Q2211.48 1471.69 2206.34 1471.69 Q2204.57 1471.69 2202.73 1471.39 Q2200.91 1471.09 2198.95 1470.49 L2198.95 1466.67 Q2200.64 1467.59 2202.45 1468.04 Q2204.25 1468.49 2206.27 1468.49 Q2209.52 1468.49 2211.42 1466.78 Q2213.32 1465.07 2213.32 1462.14 Q2213.32 1459.2 2211.42 1457.49 Q2209.52 1455.78 2206.27 1455.78 Q2204.74 1455.78 2203.22 1456.12 Q2201.72 1456.46 2200.14 1457.17 L2200.14 1443.07 Z" fill="#4c4c4c" fill-rule="evenodd" fill-opacity="1" /><path clip-path="url(#clip680)" d="M1289.64 1533 L1276.59 1568.84 L1302.73 1568.84 L1289.64 1533 M1267.87 1574.19 L1286.02 1526.67 L1293.3 1526.67 L1311.41 1574.19 L1267.87 1574.19 Z" fill="#000000" fill-rule="evenodd" fill-opacity="1" /><path clip-path="url(#clip680)" d="M1323.89 1528.42 L1323.89 1538.54 L1335.95 1538.54 L1335.95 1543.09 L1323.89 1543.09 L1323.89 1562.44 Q1323.89 1566.8 1325.07 1568.04 Q1326.28 1569.28 1329.94 1569.28 L1335.95 1569.28 L1335.95 1574.19 L1329.94 1574.19 Q1323.16 1574.19 1320.58 1571.67 Q1318 1569.12 1318 1562.44 L1318 1543.09 L1313.71 1543.09 L1313.71 1538.54 L1318 1538.54 L1318 1528.42 L1323.89 1528.42 Z" fill="#000000" fill-rule="evenodd" fill-opacity="1" /><polyline clip-path="url(#clip682)" style="stroke:#ffffff; stroke-linecap:butt; stroke-linejoin:round; stroke-width:4; stroke-opacity:1; fill:none" points="
  251.071,1341.1 2352.76,1341.1 
  "/>
<polyline clip-path="url(#clip682)" style="stroke:#ffffff; stroke-linecap:butt; stroke-linejoin:round; stroke-width:4; stroke-opacity:1; fill:none" points="
  251.071,722.141 2352.76,722.141 
  "/>
<polyline clip-path="url(#clip682)" style="stroke:#ffffff; stroke-linecap:butt; stroke-linejoin:round; stroke-width:2; stroke-opacity:1; fill:none" points="
  251.071,1341.1 2352.76,1341.1 
  "/>
<polyline clip-path="url(#clip682)" style="stroke:#ffffff; stroke-linecap:butt; stroke-linejoin:round; stroke-width:2; stroke-opacity:1; fill:none" points="
  251.071,1111.97 2352.76,1111.97 
  "/>
<polyline clip-path="url(#clip682)" style="stroke:#ffffff; stroke-linecap:butt; stroke-linejoin:round; stroke-width:2; stroke-opacity:1; fill:none" points="
  251.071,1111.97 2352.76,1111.97 
  "/>
<polyline clip-path="url(#clip682)" style="stroke:#ffffff; stroke-linecap:butt; stroke-linejoin:round; stroke-width:2; stroke-opacity:1; fill:none" points="
  251.071,1031.62 2352.76,1031.62 
  "/>
<polyline clip-path="url(#clip682)" style="stroke:#ffffff; stroke-linecap:butt; stroke-linejoin:round; stroke-width:2; stroke-opacity:1; fill:none" points="
  251.071,1031.62 2352.76,1031.62 
  "/>
<polyline clip-path="url(#clip682)" style="stroke:#ffffff; stroke-linecap:butt; stroke-linejoin:round; stroke-width:2; stroke-opacity:1; fill:none" points="
  251.071,802.493 2352.76,802.493 
  "/>
<polyline clip-path="url(#clip682)" style="stroke:#ffffff; stroke-linecap:butt; stroke-linejoin:round; stroke-width:2; stroke-opacity:1; fill:none" points="
  251.071,493.015 2352.76,493.015 
  "/>
<polyline clip-path="url(#clip682)" style="stroke:#ffffff; stroke-linecap:butt; stroke-linejoin:round; stroke-width:2; stroke-opacity:1; fill:none" points="
  251.071,412.663 2352.76,412.663 
  "/>
<polyline clip-path="url(#clip682)" style="stroke:#ffffff; stroke-linecap:butt; stroke-linejoin:round; stroke-width:2; stroke-opacity:1; fill:none" points="
  251.071,412.663 2352.76,412.663 
  "/>
<polyline clip-path="url(#clip682)" style="stroke:#ffffff; stroke-linecap:butt; stroke-linejoin:round; stroke-width:2; stroke-opacity:1; fill:none" points="
  251.071,183.537 2352.76,183.537 
  "/>
<polyline clip-path="url(#clip680)" style="stroke:#ffffff; stroke-linecap:butt; stroke-linejoin:round; stroke-width:4; stroke-opacity:1; fill:none" points="
  251.071,1410.9 251.071,166.672 
  "/>
<polyline clip-path="url(#clip680)" style="stroke:#333333; stroke-linecap:butt; stroke-linejoin:round; stroke-width:4; stroke-opacity:1; fill:none" points="
  251.071,1341.1 232.174,1341.1 
  "/>
<polyline clip-path="url(#clip680)" style="stroke:#333333; stroke-linecap:butt; stroke-linejoin:round; stroke-width:4; stroke-opacity:1; fill:none" points="
  251.071,722.141 232.174,722.141 
  "/>
<polyline clip-path="url(#clip680)" style="stroke:#333333; stroke-linecap:butt; stroke-linejoin:round; stroke-width:4; stroke-opacity:1; fill:none" points="
  251.071,1341.1 241.622,1341.1 
  "/>
<polyline clip-path="url(#clip680)" style="stroke:#333333; stroke-linecap:butt; stroke-linejoin:round; stroke-width:4; stroke-opacity:1; fill:none" points="
  251.071,1111.97 241.622,1111.97 
  "/>
<polyline clip-path="url(#clip680)" style="stroke:#333333; stroke-linecap:butt; stroke-linejoin:round; stroke-width:4; stroke-opacity:1; fill:none" points="
  251.071,1111.97 241.622,1111.97 
  "/>
<polyline clip-path="url(#clip680)" style="stroke:#333333; stroke-linecap:butt; stroke-linejoin:round; stroke-width:4; stroke-opacity:1; fill:none" points="
  251.071,1031.62 241.622,1031.62 
  "/>
<polyline clip-path="url(#clip680)" style="stroke:#333333; stroke-linecap:butt; stroke-linejoin:round; stroke-width:4; stroke-opacity:1; fill:none" points="
  251.071,1031.62 241.622,1031.62 
  "/>
<polyline clip-path="url(#clip680)" style="stroke:#333333; stroke-linecap:butt; stroke-linejoin:round; stroke-width:4; stroke-opacity:1; fill:none" points="
  251.071,802.493 241.622,802.493 
  "/>
<polyline clip-path="url(#clip680)" style="stroke:#333333; stroke-linecap:butt; stroke-linejoin:round; stroke-width:4; stroke-opacity:1; fill:none" points="
  251.071,493.015 241.622,493.015 
  "/>
<polyline clip-path="url(#clip680)" style="stroke:#333333; stroke-linecap:butt; stroke-linejoin:round; stroke-width:4; stroke-opacity:1; fill:none" points="
  251.071,412.663 241.622,412.663 
  "/>
<polyline clip-path="url(#clip680)" style="stroke:#333333; stroke-linecap:butt; stroke-linejoin:round; stroke-width:4; stroke-opacity:1; fill:none" points="
  251.071,412.663 241.622,412.663 
  "/>
<polyline clip-path="url(#clip680)" style="stroke:#333333; stroke-linecap:butt; stroke-linejoin:round; stroke-width:4; stroke-opacity:1; fill:none" points="
  251.071,183.537 241.622,183.537 
  "/>
<path clip-path="url(#clip680)" d="M96.9315 1360.89 L104.57 1360.89 L104.57 1334.52 L96.2602 1336.19 L96.2602 1331.93 L104.524 1330.26 L109.2 1330.26 L109.2 1360.89 L116.839 1360.89 L116.839 1364.82 L96.9315 1364.82 L96.9315 1360.89 Z" fill="#4c4c4c" fill-rule="evenodd" fill-opacity="1" /><path clip-path="url(#clip680)" d="M136.283 1333.34 Q132.672 1333.34 130.843 1336.91 Q129.038 1340.45 129.038 1347.58 Q129.038 1354.69 130.843 1358.25 Q132.672 1361.79 136.283 1361.79 Q139.917 1361.79 141.723 1358.25 Q143.552 1354.69 143.552 1347.58 Q143.552 1340.45 141.723 1336.91 Q139.917 1333.34 136.283 1333.34 M136.283 1329.64 Q142.093 1329.64 145.149 1334.25 Q148.227 1338.83 148.227 1347.58 Q148.227 1356.31 145.149 1360.91 Q142.093 1365.5 136.283 1365.5 Q130.473 1365.5 127.394 1360.91 Q124.339 1356.31 124.339 1347.58 Q124.339 1338.83 127.394 1334.25 Q130.473 1329.64 136.283 1329.64 Z" fill="#4c4c4c" fill-rule="evenodd" fill-opacity="1" /><path clip-path="url(#clip680)" d="M148.227 1323.74 L172.339 1323.74 L172.339 1326.94 L148.227 1326.94 L148.227 1323.74 Z" fill="#4c4c4c" fill-rule="evenodd" fill-opacity="1" /><path clip-path="url(#clip680)" d="M183.812 1334.22 L197.071 1334.22 L197.071 1337.41 L179.241 1337.41 L179.241 1334.22 Q181.404 1331.98 185.128 1328.22 Q188.871 1324.44 189.83 1323.35 Q191.655 1321.3 192.369 1319.89 Q193.103 1318.46 193.103 1317.08 Q193.103 1314.85 191.523 1313.43 Q189.962 1312.02 187.442 1312.02 Q185.655 1312.02 183.661 1312.64 Q181.686 1313.27 179.43 1314.53 L179.43 1310.69 Q181.724 1309.77 183.718 1309.3 Q185.711 1308.83 187.366 1308.83 Q191.73 1308.83 194.325 1311.01 Q196.921 1313.19 196.921 1316.84 Q196.921 1318.57 196.263 1320.13 Q195.623 1321.67 193.912 1323.78 Q193.441 1324.32 190.921 1326.94 Q188.401 1329.53 183.812 1334.22 Z" fill="#4c4c4c" fill-rule="evenodd" fill-opacity="1" /><path clip-path="url(#clip680)" d="M126.366 741.934 L134.004 741.934 L134.004 715.568 L125.694 717.235 L125.694 712.976 L133.958 711.309 L138.634 711.309 L138.634 741.934 L146.273 741.934 L146.273 745.869 L126.366 745.869 L126.366 741.934 Z" fill="#4c4c4c" fill-rule="evenodd" fill-opacity="1" /><path clip-path="url(#clip680)" d="M165.717 714.388 Q162.106 714.388 160.277 717.952 Q158.472 721.494 158.472 728.624 Q158.472 735.73 160.277 739.295 Q162.106 742.837 165.717 742.837 Q169.351 742.837 171.157 739.295 Q172.986 735.73 172.986 728.624 Q172.986 721.494 171.157 717.952 Q169.351 714.388 165.717 714.388 M165.717 710.684 Q171.527 710.684 174.583 715.29 Q177.662 719.874 177.662 728.624 Q177.662 737.35 174.583 741.957 Q171.527 746.54 165.717 746.54 Q159.907 746.54 156.828 741.957 Q153.773 737.35 153.773 728.624 Q153.773 719.874 156.828 715.29 Q159.907 710.684 165.717 710.684 Z" fill="#4c4c4c" fill-rule="evenodd" fill-opacity="1" /><path clip-path="url(#clip680)" d="M187.366 692.88 Q184.432 692.88 182.947 695.776 Q181.48 698.654 181.48 704.447 Q181.48 710.221 182.947 713.117 Q184.432 715.995 187.366 715.995 Q190.319 715.995 191.786 713.117 Q193.272 710.221 193.272 704.447 Q193.272 698.654 191.786 695.776 Q190.319 692.88 187.366 692.88 M187.366 689.871 Q192.087 689.871 194.57 693.613 Q197.071 697.337 197.071 704.447 Q197.071 711.537 194.57 715.28 Q192.087 719.004 187.366 719.004 Q182.646 719.004 180.144 715.28 Q177.662 711.537 177.662 704.447 Q177.662 697.337 180.144 693.613 Q182.646 689.871 187.366 689.871 Z" fill="#4c4c4c" fill-rule="evenodd" fill-opacity="1" /><path clip-path="url(#clip680)" d="M44.7161 817.669 L47.5806 817.669 L47.5806 844.596 Q53.6281 844.214 56.8109 840.967 Q59.9619 837.689 59.9619 831.864 Q59.9619 828.49 59.1344 825.339 Q58.3069 822.157 56.6518 819.037 L62.1899 819.037 Q63.5267 822.188 64.227 825.499 Q64.9272 828.809 64.9272 832.214 Q64.9272 840.744 59.9619 845.742 Q54.9967 850.707 46.5303 850.707 Q37.7774 850.707 32.6531 845.996 Q27.4968 841.254 27.4968 833.233 Q27.4968 826.04 32.1438 821.87 Q36.7589 817.669 44.7161 817.669 M42.9973 823.525 Q38.1912 823.589 35.3266 826.231 Q32.4621 828.841 32.4621 833.169 Q32.4621 838.071 35.2312 841.031 Q38.0002 843.959 43.0292 844.405 L42.9973 823.525 Z" fill="#000000" fill-rule="evenodd" fill-opacity="1" /><path clip-path="url(#clip680)" d="M33.8307 787.4 Q33.2578 788.387 33.0032 789.564 Q32.7167 790.71 32.7167 792.11 Q32.7167 797.076 35.9632 799.749 Q39.1779 802.391 45.2253 802.391 L64.0042 802.391 L64.0042 808.279 L28.3562 808.279 L28.3562 802.391 L33.8944 802.391 Q30.6479 800.545 29.0883 797.585 Q27.4968 794.625 27.4968 790.392 Q27.4968 789.787 27.5923 789.055 Q27.656 788.323 27.8151 787.432 L33.8307 787.4 Z" fill="#000000" fill-rule="evenodd" fill-opacity="1" /><path clip-path="url(#clip680)" d="M33.8307 761.746 Q33.2578 762.733 33.0032 763.91 Q32.7167 765.056 32.7167 766.457 Q32.7167 771.422 35.9632 774.096 Q39.1779 776.737 45.2253 776.737 L64.0042 776.737 L64.0042 782.626 L28.3562 782.626 L28.3562 776.737 L33.8944 776.737 Q30.6479 774.891 29.0883 771.931 Q27.4968 768.971 27.4968 764.738 Q27.4968 764.133 27.5923 763.401 Q27.656 762.669 27.8151 761.778 L33.8307 761.746 Z" fill="#000000" fill-rule="evenodd" fill-opacity="1" /><path clip-path="url(#clip680)" d="M32.4621 743.222 Q32.4621 747.932 36.1542 750.67 Q39.8145 753.407 46.212 753.407 Q52.6095 753.407 56.3017 750.702 Q59.9619 747.964 59.9619 743.222 Q59.9619 738.543 56.2698 735.806 Q52.5777 733.069 46.212 733.069 Q39.8781 733.069 36.186 735.806 Q32.4621 738.543 32.4621 743.222 M27.4968 743.222 Q27.4968 735.583 32.4621 731.222 Q37.4273 726.862 46.212 726.862 Q54.9649 726.862 59.9619 731.222 Q64.9272 735.583 64.9272 743.222 Q64.9272 750.893 59.9619 755.253 Q54.9649 759.582 46.212 759.582 Q37.4273 759.582 32.4621 755.253 Q27.4968 750.893 27.4968 743.222 Z" fill="#000000" fill-rule="evenodd" fill-opacity="1" /><path clip-path="url(#clip680)" d="M975.197 28.512 L1007.97 28.512 L1007.97 34.4147 L982.21 34.4147 L982.21 49.7619 L1006.9 49.7619 L1006.9 55.6646 L982.21 55.6646 L982.21 74.4493 L1008.6 74.4493 L1008.6 80.352 L975.197 80.352 L975.197 28.512 Z" fill="#000000" fill-rule="evenodd" fill-opacity="1" /><path clip-path="url(#clip680)" d="M1042.38 47.4355 Q1041.31 46.8105 1040.02 46.5327 Q1038.77 46.2202 1037.24 46.2202 Q1031.83 46.2202 1028.91 49.7619 Q1026.03 53.2688 1026.03 59.866 L1026.03 80.352 L1019.61 80.352 L1019.61 41.4633 L1026.03 41.4633 L1026.03 47.505 Q1028.04 43.9633 1031.27 42.2619 Q1034.5 40.5258 1039.12 40.5258 Q1039.78 40.5258 1040.58 40.63 Q1041.38 40.6994 1042.35 40.873 L1042.38 47.4355 Z" fill="#000000" fill-rule="evenodd" fill-opacity="1" /><path clip-path="url(#clip680)" d="M1070.37 47.4355 Q1069.29 46.8105 1068.01 46.5327 Q1066.76 46.2202 1065.23 46.2202 Q1059.81 46.2202 1056.9 49.7619 Q1054.02 53.2688 1054.02 59.866 L1054.02 80.352 L1047.59 80.352 L1047.59 41.4633 L1054.02 41.4633 L1054.02 47.505 Q1056.03 43.9633 1059.26 42.2619 Q1062.49 40.5258 1067.11 40.5258 Q1067.77 40.5258 1068.56 40.63 Q1069.36 40.6994 1070.33 40.873 L1070.37 47.4355 Z" fill="#000000" fill-rule="evenodd" fill-opacity="1" /><path clip-path="url(#clip680)" d="M1090.58 45.9425 Q1085.44 45.9425 1082.45 49.9702 Q1079.47 53.9633 1079.47 60.9424 Q1079.47 67.9215 1082.42 71.9493 Q1085.4 75.9423 1090.58 75.9423 Q1095.68 75.9423 1098.67 71.9145 Q1101.65 67.8868 1101.65 60.9424 Q1101.65 54.0327 1098.67 50.0049 Q1095.68 45.9425 1090.58 45.9425 M1090.58 40.5258 Q1098.91 40.5258 1103.67 45.9425 Q1108.43 51.3591 1108.43 60.9424 Q1108.43 70.4909 1103.67 75.9423 Q1098.91 81.3589 1090.58 81.3589 Q1082.21 81.3589 1077.45 75.9423 Q1072.73 70.4909 1072.73 60.9424 Q1072.73 51.3591 1077.45 45.9425 Q1082.21 40.5258 1090.58 40.5258 Z" fill="#000000" fill-rule="evenodd" fill-opacity="1" /><path clip-path="url(#clip680)" d="M1161.31 26.3245 L1161.31 31.637 L1155.2 31.637 Q1151.76 31.637 1150.4 33.0259 Q1149.08 34.4147 1149.08 38.0258 L1149.08 41.4633 L1159.61 41.4633 L1159.61 46.4286 L1149.08 46.4286 L1149.08 80.352 L1142.66 80.352 L1142.66 46.4286 L1136.55 46.4286 L1136.55 41.4633 L1142.66 41.4633 L1142.66 38.755 Q1142.66 32.262 1145.68 29.3106 Q1148.7 26.3245 1155.27 26.3245 L1161.31 26.3245 Z" fill="#000000" fill-rule="evenodd" fill-opacity="1" /><path clip-path="url(#clip680)" d="M1181.72 45.9425 Q1176.58 45.9425 1173.6 49.9702 Q1170.61 53.9633 1170.61 60.9424 Q1170.61 67.9215 1173.56 71.9493 Q1176.55 75.9423 1181.72 75.9423 Q1186.83 75.9423 1189.81 71.9145 Q1192.8 67.8868 1192.8 60.9424 Q1192.8 54.0327 1189.81 50.0049 Q1186.83 45.9425 1181.72 45.9425 M1181.72 40.5258 Q1190.06 40.5258 1194.81 45.9425 Q1199.57 51.3591 1199.57 60.9424 Q1199.57 70.4909 1194.81 75.9423 Q1190.06 81.3589 1181.72 81.3589 Q1173.36 81.3589 1168.6 75.9423 Q1163.88 70.4909 1163.88 60.9424 Q1163.88 51.3591 1168.6 45.9425 Q1173.36 40.5258 1181.72 40.5258 Z" fill="#000000" fill-rule="evenodd" fill-opacity="1" /><path clip-path="url(#clip680)" d="M1232.7 47.4355 Q1231.62 46.8105 1230.33 46.5327 Q1229.08 46.2202 1227.56 46.2202 Q1222.14 46.2202 1219.22 49.7619 Q1216.34 53.2688 1216.34 59.866 L1216.34 80.352 L1209.92 80.352 L1209.92 41.4633 L1216.34 41.4633 L1216.34 47.505 Q1218.35 43.9633 1221.58 42.2619 Q1224.81 40.5258 1229.43 40.5258 Q1230.09 40.5258 1230.89 40.63 Q1231.69 40.6994 1232.66 40.873 L1232.7 47.4355 Z" fill="#000000" fill-rule="evenodd" fill-opacity="1" /><path clip-path="url(#clip680)" d="M1245.72 30.4217 L1245.72 41.4633 L1258.88 41.4633 L1258.88 46.4286 L1245.72 46.4286 L1245.72 67.5396 Q1245.72 72.2965 1247 73.6506 Q1248.32 75.0048 1252.31 75.0048 L1258.88 75.0048 L1258.88 80.352 L1252.31 80.352 Q1244.92 80.352 1242.1 77.609 Q1239.29 74.8312 1239.29 67.5396 L1239.29 46.4286 L1234.6 46.4286 L1234.6 41.4633 L1239.29 41.4633 L1239.29 30.4217 L1245.72 30.4217 Z" fill="#000000" fill-rule="evenodd" fill-opacity="1" /><path clip-path="url(#clip680)" d="M1300.54 59.3104 L1300.54 62.4354 L1271.17 62.4354 Q1271.58 69.0326 1275.13 72.5048 Q1278.7 75.9423 1285.06 75.9423 Q1288.74 75.9423 1292.17 75.0395 Q1295.65 74.1368 1299.05 72.3312 L1299.05 78.3728 Q1295.61 79.8312 1292 80.5951 Q1288.39 81.3589 1284.67 81.3589 Q1275.37 81.3589 1269.92 75.9423 Q1264.5 70.5257 1264.5 61.2896 Q1264.5 51.741 1269.64 46.1508 Q1274.81 40.5258 1283.56 40.5258 Q1291.41 40.5258 1295.96 45.5952 Q1300.54 50.6299 1300.54 59.3104 M1294.15 57.4355 Q1294.08 52.1924 1291.2 49.0674 Q1288.35 45.9425 1283.63 45.9425 Q1278.29 45.9425 1275.06 48.9633 Q1271.86 51.9841 1271.38 57.4702 L1294.15 57.4355 Z" fill="#000000" fill-rule="evenodd" fill-opacity="1" /><path clip-path="url(#clip680)" d="M1339.81 74.5187 L1339.81 95.1436 L1333.39 95.1436 L1333.39 41.4633 L1339.81 41.4633 L1339.81 47.3661 Q1341.83 43.8939 1344.88 42.2272 Q1347.97 40.5258 1352.24 40.5258 Q1359.33 40.5258 1363.74 46.1508 Q1368.18 51.7758 1368.18 60.9424 Q1368.18 70.109 1363.74 75.734 Q1359.33 81.3589 1352.24 81.3589 Q1347.97 81.3589 1344.88 79.6923 Q1341.83 77.9909 1339.81 74.5187 M1361.55 60.9424 Q1361.55 53.8938 1358.63 49.9008 Q1355.75 45.873 1350.68 45.873 Q1345.61 45.873 1342.69 49.9008 Q1339.81 53.8938 1339.81 60.9424 Q1339.81 67.991 1342.69 72.0187 Q1345.61 76.0117 1350.68 76.0117 Q1355.75 76.0117 1358.63 72.0187 Q1361.55 67.991 1361.55 60.9424 Z" fill="#000000" fill-rule="evenodd" fill-opacity="1" /><path clip-path="url(#clip680)" d="M1402.21 48.0605 L1446.72 48.0605 L1446.72 53.8938 L1402.21 53.8938 L1402.21 48.0605 M1402.21 62.2271 L1446.72 62.2271 L1446.72 68.1298 L1402.21 68.1298 L1402.21 62.2271 Z" fill="#000000" fill-rule="evenodd" fill-opacity="1" /><path clip-path="url(#clip680)" d="M1485.68 74.4493 L1497.14 74.4493 L1497.14 34.9009 L1484.67 37.4008 L1484.67 31.012 L1497.07 28.512 L1504.08 28.512 L1504.08 74.4493 L1515.54 74.4493 L1515.54 80.352 L1485.68 80.352 L1485.68 74.4493 Z" fill="#000000" fill-rule="evenodd" fill-opacity="1" /><path clip-path="url(#clip680)" d="M1529.71 71.5326 L1537.03 71.5326 L1537.03 80.352 L1529.71 80.352 L1529.71 71.5326 Z" fill="#000000" fill-rule="evenodd" fill-opacity="1" /><path clip-path="url(#clip680)" d="M1558.35 74.4493 L1582.83 74.4493 L1582.83 80.352 L1549.92 80.352 L1549.92 74.4493 Q1553.91 70.3173 1560.78 63.3729 Q1567.69 56.3938 1569.46 54.3799 Q1572.83 50.5952 1574.15 47.9911 Q1575.51 45.3522 1575.51 42.8175 Q1575.51 38.6856 1572.59 36.0814 Q1569.71 33.4773 1565.05 33.4773 Q1561.76 33.4773 1558.08 34.6231 Q1554.43 35.7689 1550.26 38.0953 L1550.26 31.012 Q1554.5 29.3106 1558.18 28.4426 Q1561.86 27.5745 1564.92 27.5745 Q1572.97 27.5745 1577.76 31.6023 Q1582.55 35.63 1582.55 42.3661 Q1582.55 45.5605 1581.34 48.4424 Q1580.16 51.2897 1577 55.1785 Q1576.13 56.1855 1571.48 61.0118 Q1566.83 65.8035 1558.35 74.4493 Z" fill="#000000" fill-rule="evenodd" fill-opacity="1" /><path clip-path="url(#clip680)" d="M1598.77 74.4493 L1610.23 74.4493 L1610.23 34.9009 L1597.76 37.4008 L1597.76 31.012 L1610.16 28.512 L1617.17 28.512 L1617.17 74.4493 L1628.63 74.4493 L1628.63 80.352 L1598.77 80.352 L1598.77 74.4493 Z" fill="#000000" fill-rule="evenodd" fill-opacity="1" /><path clip-path="url(#clip680)" d="M849.485 106.272 L859.937 106.272 L873.166 141.55 L886.464 106.272 L896.916 106.272 L896.916 158.112 L890.076 158.112 L890.076 112.591 L876.708 148.147 L869.659 148.147 L856.291 112.591 L856.291 158.112 L849.485 158.112 L849.485 106.272 Z" fill="#000000" fill-rule="evenodd" fill-opacity="1" /><path clip-path="url(#clip680)" d="M933.999 125.821 L978.513 125.821 L978.513 131.654 L933.999 131.654 L933.999 125.821 M933.999 139.987 L978.513 139.987 L978.513 145.89 L933.999 145.89 L933.999 139.987 Z" fill="#000000" fill-rule="evenodd" fill-opacity="1" /><path clip-path="url(#clip680)" d="M1017.47 152.209 L1028.93 152.209 L1028.93 112.661 L1016.46 115.161 L1016.46 108.772 L1028.86 106.272 L1035.87 106.272 L1035.87 152.209 L1047.33 152.209 L1047.33 158.112 L1017.47 158.112 L1017.47 152.209 Z" fill="#000000" fill-rule="evenodd" fill-opacity="1" /><path clip-path="url(#clip680)" d="M1076.5 110.89 Q1071.08 110.89 1068.34 116.237 Q1065.63 121.55 1065.63 132.244 Q1065.63 142.904 1068.34 148.251 Q1071.08 153.563 1076.5 153.563 Q1081.95 153.563 1084.66 148.251 Q1087.4 142.904 1087.4 132.244 Q1087.4 121.55 1084.66 116.237 Q1081.95 110.89 1076.5 110.89 M1076.5 105.335 Q1085.21 105.335 1089.8 112.244 Q1094.41 119.119 1094.41 132.244 Q1094.41 145.334 1089.8 152.244 Q1085.21 159.119 1076.5 159.119 Q1067.78 159.119 1063.16 152.244 Q1058.58 145.334 1058.58 132.244 Q1058.58 119.119 1063.16 112.244 Q1067.78 105.335 1076.5 105.335 Z" fill="#000000" fill-rule="evenodd" fill-opacity="1" /><path clip-path="url(#clip680)" d="M1121.74 110.89 Q1116.32 110.89 1113.58 116.237 Q1110.87 121.55 1110.87 132.244 Q1110.87 142.904 1113.58 148.251 Q1116.32 153.563 1121.74 153.563 Q1127.19 153.563 1129.9 148.251 Q1132.64 142.904 1132.64 132.244 Q1132.64 121.55 1129.9 116.237 Q1127.19 110.89 1121.74 110.89 M1121.74 105.335 Q1130.46 105.335 1135.04 112.244 Q1139.66 119.119 1139.66 132.244 Q1139.66 145.334 1135.04 152.244 Q1130.46 159.119 1121.74 159.119 Q1113.03 159.119 1108.41 152.244 Q1103.82 145.334 1103.82 132.244 Q1103.82 119.119 1108.41 112.244 Q1113.03 105.335 1121.74 105.335 Z" fill="#000000" fill-rule="evenodd" fill-opacity="1" /><path clip-path="url(#clip680)" d="M1152.71 149.293 L1160.04 149.293 L1160.04 155.265 L1154.34 166.376 L1149.87 166.376 L1152.71 155.265 L1152.71 149.293 Z" fill="#000000" fill-rule="evenodd" fill-opacity="1" /><path clip-path="url(#clip680)" d="M1211.36 124.293 Q1206.08 124.293 1203.23 128.112 Q1200.25 132.105 1200.25 138.702 Q1200.25 145.682 1203.2 149.709 Q1206.18 153.702 1211.36 153.702 Q1216.46 153.702 1219.45 149.675 Q1222.43 145.647 1222.43 138.702 Q1222.43 132.348 1219.45 128.112 Q1216.71 124.293 1211.36 124.293 M1211.36 119.223 L1232.57 119.223 L1232.57 125.612 L1225.42 125.612 Q1229.21 131.029 1229.21 138.702 Q1229.21 148.251 1224.45 153.668 Q1219.69 159.119 1211.36 159.119 Q1202.99 159.119 1198.27 153.668 Q1193.51 148.251 1193.51 138.702 Q1193.51 129.084 1198.27 123.702 Q1202.19 119.223 1211.36 119.223 Z" fill="#000000" fill-rule="evenodd" fill-opacity="1" /><path clip-path="url(#clip680)" d="M1264.8 125.821 L1309.31 125.821 L1309.31 131.654 L1264.8 131.654 L1264.8 125.821 M1264.8 139.987 L1309.31 139.987 L1309.31 145.89 L1264.8 145.89 L1264.8 139.987 Z" fill="#000000" fill-rule="evenodd" fill-opacity="1" /><path clip-path="url(#clip680)" d="M1348.27 152.209 L1359.73 152.209 L1359.73 112.661 L1347.26 115.161 L1347.26 108.772 L1359.66 106.272 L1366.67 106.272 L1366.67 152.209 L1378.13 152.209 L1378.13 158.112 L1348.27 158.112 L1348.27 152.209 Z" fill="#000000" fill-rule="evenodd" fill-opacity="1" /><path clip-path="url(#clip680)" d="M1392.3 149.293 L1399.62 149.293 L1399.62 158.112 L1392.3 158.112 L1392.3 149.293 Z" fill="#000000" fill-rule="evenodd" fill-opacity="1" /><path clip-path="url(#clip680)" d="M1414.97 106.272 L1442.5 106.272 L1442.5 112.175 L1421.39 112.175 L1421.39 124.883 Q1422.92 124.362 1424.45 124.119 Q1425.98 123.841 1427.5 123.841 Q1436.18 123.841 1441.25 128.598 Q1446.32 133.355 1446.32 141.48 Q1446.32 149.848 1441.11 154.501 Q1435.91 159.119 1426.43 159.119 Q1423.16 159.119 1419.76 158.563 Q1416.39 158.008 1412.78 156.897 L1412.78 149.848 Q1415.91 151.55 1419.24 152.383 Q1422.57 153.216 1426.29 153.216 Q1432.29 153.216 1435.8 150.056 Q1439.31 146.897 1439.31 141.48 Q1439.31 136.064 1435.8 132.904 Q1432.29 129.744 1426.29 129.744 Q1423.48 129.744 1420.66 130.369 Q1417.89 130.994 1414.97 132.314 L1414.97 106.272 Z" fill="#000000" fill-rule="evenodd" fill-opacity="1" /><path clip-path="url(#clip680)" d="M1460.87 149.293 L1468.2 149.293 L1468.2 155.265 L1462.5 166.376 L1458.02 166.376 L1460.87 155.265 L1460.87 149.293 Z" fill="#000000" fill-rule="evenodd" fill-opacity="1" /><path clip-path="url(#clip680)" d="M1497.54 106.272 L1541.39 106.272 L1541.39 112.175 L1522.99 112.175 L1522.99 158.112 L1515.94 158.112 L1515.94 112.175 L1497.54 112.175 L1497.54 106.272 Z" fill="#000000" fill-rule="evenodd" fill-opacity="1" /><path clip-path="url(#clip680)" d="M1571.32 125.821 L1615.84 125.821 L1615.84 131.654 L1571.32 131.654 L1571.32 125.821 M1571.32 139.987 L1615.84 139.987 L1615.84 145.89 L1571.32 145.89 L1571.32 139.987 Z" fill="#000000" fill-rule="evenodd" fill-opacity="1" /><path clip-path="url(#clip680)" d="M1659.62 152.209 L1684.1 152.209 L1684.1 158.112 L1651.18 158.112 L1651.18 152.209 Q1655.18 148.077 1662.05 141.133 Q1668.96 134.154 1670.73 132.14 Q1674.1 128.355 1675.42 125.751 Q1676.77 123.112 1676.77 120.577 Q1676.77 116.446 1673.86 113.841 Q1670.97 111.237 1666.32 111.237 Q1663.02 111.237 1659.34 112.383 Q1655.7 113.529 1651.53 115.855 L1651.53 108.772 Q1655.77 107.071 1659.45 106.203 Q1663.13 105.335 1666.18 105.335 Q1674.24 105.335 1679.03 109.362 Q1683.82 113.39 1683.82 120.126 Q1683.82 123.321 1682.61 126.202 Q1681.43 129.05 1678.27 132.939 Q1677.4 133.945 1672.74 138.772 Q1668.09 143.563 1659.62 152.209 Z" fill="#000000" fill-rule="evenodd" fill-opacity="1" /><path clip-path="url(#clip680)" d="M1698.82 149.293 L1706.15 149.293 L1706.15 158.112 L1698.82 158.112 L1698.82 149.293 Z" fill="#000000" fill-rule="evenodd" fill-opacity="1" /><path clip-path="url(#clip680)" d="M1736.43 110.89 Q1731.01 110.89 1728.27 116.237 Q1725.56 121.55 1725.56 132.244 Q1725.56 142.904 1728.27 148.251 Q1731.01 153.563 1736.43 153.563 Q1741.88 153.563 1744.58 148.251 Q1747.33 142.904 1747.33 132.244 Q1747.33 121.55 1744.58 116.237 Q1741.88 110.89 1736.43 110.89 M1736.43 105.335 Q1745.14 105.335 1749.72 112.244 Q1754.34 119.119 1754.34 132.244 Q1754.34 145.334 1749.72 152.244 Q1745.14 159.119 1736.43 159.119 Q1727.71 159.119 1723.09 152.244 Q1718.51 145.334 1718.51 132.244 Q1718.51 119.119 1723.09 112.244 Q1727.71 105.335 1736.43 105.335 Z" fill="#000000" fill-rule="evenodd" fill-opacity="1" /><path clip-path="url(#clip682)" d="M2293.27 502.09 L2289.51 512.906 L2278.06 513.146 L2287.19 520.074 L2283.87 531.034 L2293.27 524.49 L2302.68 531.034 L2299.35 520.074 L2308.49 513.146 L2297.03 512.906 L2293.27 502.09 Z" fill="#009af9" fill-rule="evenodd" fill-opacity="1" stroke="#000000" stroke-opacity="1" stroke-width="0"/>
<path clip-path="url(#clip682)" d="M1893.18 495.364 L1889.42 506.18 L1877.97 506.42 L1887.1 513.348 L1883.77 524.308 L1893.18 517.764 L1902.59 524.308 L1899.26 513.348 L1908.4 506.42 L1896.94 506.18 L1893.18 495.364 Z" fill="#009af9" fill-rule="evenodd" fill-opacity="1" stroke="#000000" stroke-opacity="1" stroke-width="0"/>
<path clip-path="url(#clip682)" d="M1496 590.023 L1492.24 600.839 L1480.78 601.079 L1489.92 608.007 L1486.59 618.967 L1496 612.423 L1505.41 618.967 L1502.08 608.007 L1511.22 601.079 L1499.76 600.839 L1496 590.023 Z" fill="#009af9" fill-rule="evenodd" fill-opacity="1" stroke="#000000" stroke-opacity="1" stroke-width="0"/>
<path clip-path="url(#clip682)" d="M1100.25 640.201 L1096.49 651.017 L1085.04 651.257 L1094.17 658.185 L1090.85 669.145 L1100.25 662.601 L1109.66 669.145 L1106.33 658.185 L1115.47 651.257 L1104.01 651.017 L1100.25 640.201 Z" fill="#009af9" fill-rule="evenodd" fill-opacity="1" stroke="#000000" stroke-opacity="1" stroke-width="0"/>
<path clip-path="url(#clip682)" d="M705.226 886.973 L701.466 897.789 L690.01 898.029 L699.146 904.957 L695.818 915.917 L705.226 909.373 L714.634 915.917 L711.306 904.957 L720.442 898.029 L708.986 897.789 L705.226 886.973 Z" fill="#009af9" fill-rule="evenodd" fill-opacity="1" stroke="#000000" stroke-opacity="1" stroke-width="0"/>
<path clip-path="url(#clip682)" d="M310.553 1050.2 L306.793 1061.02 L295.337 1061.26 L304.473 1068.19 L301.145 1079.15 L310.553 1072.6 L319.961 1079.15 L316.633 1068.19 L325.769 1061.26 L314.313 1061.02 L310.553 1050.2 Z" fill="#009af9" fill-rule="evenodd" fill-opacity="1" stroke="#000000" stroke-opacity="1" stroke-width="0"/>
<path clip-path="url(#clip682)" d="M2293.27 709.085 L2289.51 719.901 L2278.06 720.141 L2287.19 727.069 L2283.87 738.029 L2293.27 731.485 L2302.68 738.029 L2299.35 727.069 L2308.49 720.141 L2297.03 719.901 L2293.27 709.085 Z" fill="#e26f46" fill-rule="evenodd" fill-opacity="1" stroke="#000000" stroke-opacity="1" stroke-width="0"/>
<path clip-path="url(#clip682)" d="M1893.18 978.105 L1889.42 988.921 L1877.97 989.161 L1887.1 996.089 L1883.77 1007.05 L1893.18 1000.51 L1902.59 1007.05 L1899.26 996.089 L1908.4 989.161 L1896.94 988.921 L1893.18 978.105 Z" fill="#e26f46" fill-rule="evenodd" fill-opacity="1" stroke="#000000" stroke-opacity="1" stroke-width="0"/>
<path clip-path="url(#clip682)" d="M1496 425.026 L1492.24 435.842 L1480.78 436.082 L1489.92 443.01 L1486.59 453.97 L1496 447.426 L1505.41 453.97 L1502.08 443.01 L1511.22 436.082 L1499.76 435.842 L1496 425.026 Z" fill="#e26f46" fill-rule="evenodd" fill-opacity="1" stroke="#000000" stroke-opacity="1" stroke-width="0"/>
<path clip-path="url(#clip682)" d="M1100.25 764.221 L1096.49 775.037 L1085.04 775.277 L1094.17 782.205 L1090.85 793.165 L1100.25 786.621 L1109.66 793.165 L1106.33 782.205 L1115.47 775.277 L1104.01 775.037 L1100.25 764.221 Z" fill="#e26f46" fill-rule="evenodd" fill-opacity="1" stroke="#000000" stroke-opacity="1" stroke-width="0"/>
<path clip-path="url(#clip682)" d="M705.226 991.41 L701.466 1002.23 L690.01 1002.47 L699.146 1009.39 L695.818 1020.35 L705.226 1013.81 L714.634 1020.35 L711.306 1009.39 L720.442 1002.47 L708.986 1002.23 L705.226 991.41 Z" fill="#e26f46" fill-rule="evenodd" fill-opacity="1" stroke="#000000" stroke-opacity="1" stroke-width="0"/>
<path clip-path="url(#clip682)" d="M310.553 918.174 L306.793 928.99 L295.337 929.23 L304.473 936.158 L301.145 947.118 L310.553 940.574 L319.961 947.118 L316.633 936.158 L325.769 929.23 L314.313 928.99 L310.553 918.174 Z" fill="#e26f46" fill-rule="evenodd" fill-opacity="1" stroke="#000000" stroke-opacity="1" stroke-width="0"/>
<polyline clip-path="url(#clip682)" style="stroke:#3da44d; stroke-linecap:butt; stroke-linejoin:round; stroke-width:4; stroke-opacity:1; fill:none" stroke-dasharray="16, 10" points="
  2293.27,426.38 1893.18,540.651 1496,654.091 1100.25,767.12 705.226,879.946 310.553,992.669 
  "/>
<path clip-path="url(#clip680)" d="
M321.127 415.506 L1114.39 415.506 L1114.39 208.146 L321.127 208.146  Z
  " fill="#eaeaea" fill-rule="evenodd" fill-opacity="1"/>
<polyline clip-path="url(#clip680)" style="stroke:#ffffff; stroke-linecap:butt; stroke-linejoin:round; stroke-width:4; stroke-opacity:1; fill:none" points="
  321.127,415.506 1114.39,415.506 1114.39,208.146 321.127,208.146 321.127,415.506 
  "/>
<path clip-path="url(#clip680)" d="M414.536 234.386 L408.52 251.692 L390.19 252.076 L404.808 263.161 L399.483 280.697 L414.536 270.226 L429.588 280.697 L424.264 263.161 L438.881 252.076 L420.552 251.692 L414.536 234.386 Z" fill="#009af9" fill-rule="evenodd" fill-opacity="1" stroke="#000000" stroke-opacity="1" stroke-width="0"/>
<path clip-path="url(#clip680)" d="M531.971 263.239 L531.971 265.322 L512.388 265.322 Q512.666 269.72 515.027 272.035 Q517.411 274.326 521.647 274.326 Q524.101 274.326 526.393 273.725 Q528.708 273.123 530.976 271.919 L530.976 275.947 Q528.684 276.919 526.277 277.428 Q523.87 277.938 521.393 277.938 Q515.189 277.938 511.555 274.326 Q507.944 270.715 507.944 264.558 Q507.944 258.192 511.37 254.465 Q514.819 250.715 520.652 250.715 Q525.884 250.715 528.916 254.095 Q531.971 257.452 531.971 263.239 M527.712 261.989 Q527.666 258.493 525.745 256.41 Q523.847 254.327 520.698 254.327 Q517.134 254.327 514.981 256.34 Q512.851 258.354 512.527 262.012 L527.712 261.989 Z" fill="#000000" fill-rule="evenodd" fill-opacity="1" /><path clip-path="url(#clip680)" d="M553.985 255.322 Q553.268 254.905 552.411 254.72 Q551.578 254.512 550.559 254.512 Q546.948 254.512 545.004 256.873 Q543.083 259.211 543.083 263.609 L543.083 277.266 L538.8 277.266 L538.8 251.34 L543.083 251.34 L543.083 255.368 Q544.425 253.007 546.578 251.873 Q548.731 250.715 551.809 250.715 Q552.249 250.715 552.782 250.785 Q553.314 250.831 553.962 250.947 L553.985 255.322 Z" fill="#000000" fill-rule="evenodd" fill-opacity="1" /><path clip-path="url(#clip680)" d="M572.643 255.322 Q571.925 254.905 571.068 254.72 Q570.235 254.512 569.217 254.512 Q565.606 254.512 563.661 256.873 Q561.74 259.211 561.74 263.609 L561.74 277.266 L557.457 277.266 L557.457 251.34 L561.74 251.34 L561.74 255.368 Q563.082 253.007 565.235 251.873 Q567.388 250.715 570.467 250.715 Q570.906 250.715 571.439 250.785 Q571.971 250.831 572.619 250.947 L572.643 255.322 Z" fill="#000000" fill-rule="evenodd" fill-opacity="1" /><path clip-path="url(#clip680)" d="M586.115 254.327 Q582.689 254.327 580.698 257.012 Q578.707 259.674 578.707 264.327 Q578.707 268.979 580.675 271.664 Q582.666 274.326 586.115 274.326 Q589.517 274.326 591.508 271.641 Q593.499 268.956 593.499 264.327 Q593.499 259.72 591.508 257.035 Q589.517 254.327 586.115 254.327 M586.115 250.715 Q591.67 250.715 594.842 254.327 Q598.013 257.938 598.013 264.327 Q598.013 270.692 594.842 274.326 Q591.67 277.938 586.115 277.938 Q580.536 277.938 577.365 274.326 Q574.217 270.692 574.217 264.327 Q574.217 257.938 577.365 254.327 Q580.536 250.715 586.115 250.715 Z" fill="#000000" fill-rule="evenodd" fill-opacity="1" /><path clip-path="url(#clip680)" d="M633.267 241.248 L633.267 244.79 L629.193 244.79 Q626.902 244.79 625.999 245.716 Q625.119 246.641 625.119 249.049 L625.119 251.34 L632.133 251.34 L632.133 254.651 L625.119 254.651 L625.119 277.266 L620.837 277.266 L620.837 254.651 L616.763 254.651 L616.763 251.34 L620.837 251.34 L620.837 249.535 Q620.837 245.206 622.851 243.239 Q624.864 241.248 629.239 241.248 L633.267 241.248 Z" fill="#000000" fill-rule="evenodd" fill-opacity="1" /><path clip-path="url(#clip680)" d="M646.878 254.327 Q643.452 254.327 641.462 257.012 Q639.471 259.674 639.471 264.327 Q639.471 268.979 641.438 271.664 Q643.429 274.326 646.878 274.326 Q650.281 274.326 652.272 271.641 Q654.262 268.956 654.262 264.327 Q654.262 259.72 652.272 257.035 Q650.281 254.327 646.878 254.327 M646.878 250.715 Q652.434 250.715 655.605 254.327 Q658.776 257.938 658.776 264.327 Q658.776 270.692 655.605 274.326 Q652.434 277.938 646.878 277.938 Q641.3 277.938 638.128 274.326 Q634.98 270.692 634.98 264.327 Q634.98 257.938 638.128 254.327 Q641.3 250.715 646.878 250.715 Z" fill="#000000" fill-rule="evenodd" fill-opacity="1" /><path clip-path="url(#clip680)" d="M680.86 255.322 Q680.142 254.905 679.285 254.72 Q678.452 254.512 677.434 254.512 Q673.823 254.512 671.878 256.873 Q669.957 259.211 669.957 263.609 L669.957 277.266 L665.674 277.266 L665.674 251.34 L669.957 251.34 L669.957 255.368 Q671.299 253.007 673.452 251.873 Q675.605 250.715 678.684 250.715 Q679.123 250.715 679.656 250.785 Q680.188 250.831 680.836 250.947 L680.86 255.322 Z" fill="#000000" fill-rule="evenodd" fill-opacity="1" /><path clip-path="url(#clip680)" d="M689.54 243.979 L689.54 251.34 L698.313 251.34 L698.313 254.651 L689.54 254.651 L689.54 268.725 Q689.54 271.896 690.397 272.799 Q691.276 273.701 693.938 273.701 L698.313 273.701 L698.313 277.266 L693.938 277.266 Q689.008 277.266 687.133 275.438 Q685.258 273.586 685.258 268.725 L685.258 254.651 L682.133 254.651 L682.133 251.34 L685.258 251.34 L685.258 243.979 L689.54 243.979 Z" fill="#000000" fill-rule="evenodd" fill-opacity="1" /><path clip-path="url(#clip680)" d="M726.091 263.239 L726.091 265.322 L706.508 265.322 Q706.785 269.72 709.146 272.035 Q711.531 274.326 715.767 274.326 Q718.22 274.326 720.512 273.725 Q722.827 273.123 725.095 271.919 L725.095 275.947 Q722.804 276.919 720.396 277.428 Q717.989 277.938 715.512 277.938 Q709.308 277.938 705.674 274.326 Q702.063 270.715 702.063 264.558 Q702.063 258.192 705.489 254.465 Q708.938 250.715 714.771 250.715 Q720.003 250.715 723.035 254.095 Q726.091 257.452 726.091 263.239 M721.832 261.989 Q721.785 258.493 719.864 256.41 Q717.966 254.327 714.818 254.327 Q711.253 254.327 709.1 256.34 Q706.971 258.354 706.646 262.012 L721.832 261.989 Z" fill="#000000" fill-rule="evenodd" fill-opacity="1" /><path clip-path="url(#clip680)" d="M749.563 273.331 L757.202 273.331 L757.202 246.966 L748.892 248.632 L748.892 244.373 L757.155 242.706 L761.831 242.706 L761.831 273.331 L769.47 273.331 L769.47 277.266 L749.563 277.266 L749.563 273.331 Z" fill="#000000" fill-rule="evenodd" fill-opacity="1" /><path clip-path="url(#clip680)" d="M788.915 245.785 Q785.303 245.785 783.475 249.35 Q781.669 252.891 781.669 260.021 Q781.669 267.127 783.475 270.692 Q785.303 274.234 788.915 274.234 Q792.549 274.234 794.354 270.692 Q796.183 267.127 796.183 260.021 Q796.183 252.891 794.354 249.35 Q792.549 245.785 788.915 245.785 M788.915 242.081 Q794.725 242.081 797.78 246.688 Q800.859 251.271 800.859 260.021 Q800.859 268.748 797.78 273.354 Q794.725 277.938 788.915 277.938 Q783.104 277.938 780.026 273.354 Q776.97 268.748 776.97 260.021 Q776.97 251.271 780.026 246.688 Q783.104 242.081 788.915 242.081 Z" fill="#000000" fill-rule="evenodd" fill-opacity="1" /><path clip-path="url(#clip680)" d="M819.076 245.785 Q815.465 245.785 813.637 249.35 Q811.831 252.891 811.831 260.021 Q811.831 267.127 813.637 270.692 Q815.465 274.234 819.076 274.234 Q822.711 274.234 824.516 270.692 Q826.345 267.127 826.345 260.021 Q826.345 252.891 824.516 249.35 Q822.711 245.785 819.076 245.785 M819.076 242.081 Q824.887 242.081 827.942 246.688 Q831.021 251.271 831.021 260.021 Q831.021 268.748 827.942 273.354 Q824.887 277.938 819.076 277.938 Q813.266 277.938 810.188 273.354 Q807.132 268.748 807.132 260.021 Q807.132 251.271 810.188 246.688 Q813.266 242.081 819.076 242.081 Z" fill="#000000" fill-rule="evenodd" fill-opacity="1" /><path clip-path="url(#clip680)" d="M865.488 264.234 Q860.326 264.234 858.335 265.414 Q856.345 266.595 856.345 269.442 Q856.345 271.711 857.826 273.053 Q859.331 274.373 861.9 274.373 Q865.442 274.373 867.572 271.873 Q869.724 269.35 869.724 265.183 L869.724 264.234 L865.488 264.234 M873.984 262.475 L873.984 277.266 L869.724 277.266 L869.724 273.331 Q868.266 275.692 866.09 276.826 Q863.914 277.938 860.766 277.938 Q856.785 277.938 854.423 275.715 Q852.085 273.47 852.085 269.72 Q852.085 265.345 855.002 263.123 Q857.942 260.901 863.752 260.901 L869.724 260.901 L869.724 260.484 Q869.724 257.544 867.78 255.947 Q865.859 254.327 862.363 254.327 Q860.141 254.327 858.035 254.859 Q855.928 255.391 853.984 256.456 L853.984 252.521 Q856.322 251.618 858.521 251.178 Q860.72 250.715 862.803 250.715 Q868.428 250.715 871.206 253.632 Q873.984 256.549 873.984 262.475 Z" fill="#000000" fill-rule="evenodd" fill-opacity="1" /><path clip-path="url(#clip680)" d="M902.942 256.317 Q904.539 253.447 906.761 252.081 Q908.983 250.715 911.993 250.715 Q916.043 250.715 918.243 253.563 Q920.442 256.387 920.442 261.618 L920.442 277.266 L916.159 277.266 L916.159 261.757 Q916.159 258.03 914.84 256.225 Q913.52 254.419 910.812 254.419 Q907.502 254.419 905.581 256.618 Q903.659 258.817 903.659 262.614 L903.659 277.266 L899.377 277.266 L899.377 261.757 Q899.377 258.007 898.057 256.225 Q896.738 254.419 893.983 254.419 Q890.72 254.419 888.798 256.641 Q886.877 258.84 886.877 262.614 L886.877 277.266 L882.595 277.266 L882.595 251.34 L886.877 251.34 L886.877 255.368 Q888.335 252.984 890.372 251.85 Q892.409 250.715 895.21 250.715 Q898.034 250.715 900.002 252.151 Q901.993 253.586 902.942 256.317 Z" fill="#000000" fill-rule="evenodd" fill-opacity="1" /><path clip-path="url(#clip680)" d="M938.983 254.327 Q935.557 254.327 933.567 257.012 Q931.576 259.674 931.576 264.327 Q931.576 268.979 933.543 271.664 Q935.534 274.326 938.983 274.326 Q942.386 274.326 944.377 271.641 Q946.367 268.956 946.367 264.327 Q946.367 259.72 944.377 257.035 Q942.386 254.327 938.983 254.327 M938.983 250.715 Q944.539 250.715 947.71 254.327 Q950.881 257.938 950.881 264.327 Q950.881 270.692 947.71 274.326 Q944.539 277.938 938.983 277.938 Q933.405 277.938 930.233 274.326 Q927.085 270.692 927.085 264.327 Q927.085 257.938 930.233 254.327 Q933.405 250.715 938.983 250.715 Z" fill="#000000" fill-rule="evenodd" fill-opacity="1" /><path clip-path="url(#clip680)" d="M974.469 252.104 L974.469 256.132 Q972.664 255.206 970.719 254.743 Q968.775 254.28 966.691 254.28 Q963.52 254.28 961.923 255.253 Q960.349 256.225 960.349 258.169 Q960.349 259.651 961.483 260.507 Q962.617 261.34 966.043 262.104 L967.502 262.428 Q972.039 263.401 973.937 265.183 Q975.858 266.942 975.858 270.114 Q975.858 273.725 972.988 275.831 Q970.14 277.938 965.14 277.938 Q963.057 277.938 960.789 277.521 Q958.543 277.127 956.043 276.317 L956.043 271.919 Q958.404 273.146 960.696 273.771 Q962.988 274.373 965.233 274.373 Q968.242 274.373 969.863 273.354 Q971.483 272.313 971.483 270.438 Q971.483 268.702 970.302 267.776 Q969.145 266.85 965.187 265.993 L963.705 265.646 Q959.747 264.813 957.988 263.1 Q956.228 261.364 956.228 258.354 Q956.228 254.697 958.821 252.706 Q961.414 250.715 966.182 250.715 Q968.543 250.715 970.627 251.063 Q972.71 251.41 974.469 252.104 Z" fill="#000000" fill-rule="evenodd" fill-opacity="1" /><path clip-path="url(#clip680)" d="M986.853 243.979 L986.853 251.34 L995.626 251.34 L995.626 254.651 L986.853 254.651 L986.853 268.725 Q986.853 271.896 987.71 272.799 Q988.589 273.701 991.251 273.701 L995.626 273.701 L995.626 277.266 L991.251 277.266 Q986.321 277.266 984.446 275.438 Q982.571 273.586 982.571 268.725 L982.571 254.651 L979.446 254.651 L979.446 251.34 L982.571 251.34 L982.571 243.979 L986.853 243.979 Z" fill="#000000" fill-rule="evenodd" fill-opacity="1" /><path clip-path="url(#clip680)" d="M1016.25 255.322 Q1015.53 254.905 1014.68 254.72 Q1013.84 254.512 1012.83 254.512 Q1009.21 254.512 1007.27 256.873 Q1005.35 259.211 1005.35 263.609 L1005.35 277.266 L1001.07 277.266 L1001.07 251.34 L1005.35 251.34 L1005.35 255.368 Q1006.69 253.007 1008.84 251.873 Q1011 250.715 1014.08 250.715 Q1014.52 250.715 1015.05 250.785 Q1015.58 250.831 1016.23 250.947 L1016.25 255.322 Z" fill="#000000" fill-rule="evenodd" fill-opacity="1" /><path clip-path="url(#clip680)" d="M1032.5 264.234 Q1027.34 264.234 1025.35 265.414 Q1023.36 266.595 1023.36 269.442 Q1023.36 271.711 1024.84 273.053 Q1026.34 274.373 1028.91 274.373 Q1032.45 274.373 1034.58 271.873 Q1036.74 269.35 1036.74 265.183 L1036.74 264.234 L1032.5 264.234 M1041 262.475 L1041 277.266 L1036.74 277.266 L1036.74 273.331 Q1035.28 275.692 1033.1 276.826 Q1030.93 277.938 1027.78 277.938 Q1023.8 277.938 1021.44 275.715 Q1019.1 273.47 1019.1 269.72 Q1019.1 265.345 1022.02 263.123 Q1024.95 260.901 1030.77 260.901 L1036.74 260.901 L1036.74 260.484 Q1036.74 257.544 1034.79 255.947 Q1032.87 254.327 1029.38 254.327 Q1027.15 254.327 1025.05 254.859 Q1022.94 255.391 1021 256.456 L1021 252.521 Q1023.33 251.618 1025.53 251.178 Q1027.73 250.715 1029.82 250.715 Q1035.44 250.715 1038.22 253.632 Q1041 256.549 1041 262.475 Z" fill="#000000" fill-rule="evenodd" fill-opacity="1" /><path clip-path="url(#clip680)" d="M1066.3 252.104 L1066.3 256.132 Q1064.49 255.206 1062.55 254.743 Q1060.6 254.28 1058.52 254.28 Q1055.35 254.28 1053.75 255.253 Q1052.18 256.225 1052.18 258.169 Q1052.18 259.651 1053.31 260.507 Q1054.45 261.34 1057.87 262.104 L1059.33 262.428 Q1063.87 263.401 1065.76 265.183 Q1067.69 266.942 1067.69 270.114 Q1067.69 273.725 1064.82 275.831 Q1061.97 277.938 1056.97 277.938 Q1054.89 277.938 1052.62 277.521 Q1050.37 277.127 1047.87 276.317 L1047.87 271.919 Q1050.23 273.146 1052.52 273.771 Q1054.82 274.373 1057.06 274.373 Q1060.07 274.373 1061.69 273.354 Q1063.31 272.313 1063.31 270.438 Q1063.31 268.702 1062.13 267.776 Q1060.97 266.85 1057.01 265.993 L1055.53 265.646 Q1051.58 264.813 1049.82 263.1 Q1048.06 261.364 1048.06 258.354 Q1048.06 254.697 1050.65 252.706 Q1053.24 250.715 1058.01 250.715 Q1060.37 250.715 1062.45 251.063 Q1064.54 251.41 1066.3 252.104 Z" fill="#000000" fill-rule="evenodd" fill-opacity="1" /><path clip-path="url(#clip680)" d="M414.536 286.226 L408.52 303.532 L390.19 303.916 L404.808 315.001 L399.483 332.537 L414.536 322.066 L429.588 332.537 L424.264 315.001 L438.881 303.916 L420.552 303.532 L414.536 286.226 Z" fill="#e26f46" fill-rule="evenodd" fill-opacity="1" stroke="#000000" stroke-opacity="1" stroke-width="0"/>
<path clip-path="url(#clip680)" d="M531.971 315.079 L531.971 317.162 L512.388 317.162 Q512.666 321.56 515.027 323.875 Q517.411 326.166 521.647 326.166 Q524.101 326.166 526.393 325.565 Q528.708 324.963 530.976 323.759 L530.976 327.787 Q528.684 328.759 526.277 329.268 Q523.87 329.778 521.393 329.778 Q515.189 329.778 511.555 326.166 Q507.944 322.555 507.944 316.398 Q507.944 310.032 511.37 306.305 Q514.819 302.555 520.652 302.555 Q525.884 302.555 528.916 305.935 Q531.971 309.292 531.971 315.079 M527.712 313.829 Q527.666 310.333 525.745 308.25 Q523.847 306.167 520.698 306.167 Q517.134 306.167 514.981 308.18 Q512.851 310.194 512.527 313.852 L527.712 313.829 Z" fill="#000000" fill-rule="evenodd" fill-opacity="1" /><path clip-path="url(#clip680)" d="M553.985 307.162 Q553.268 306.745 552.411 306.56 Q551.578 306.352 550.559 306.352 Q546.948 306.352 545.004 308.713 Q543.083 311.051 543.083 315.449 L543.083 329.106 L538.8 329.106 L538.8 303.18 L543.083 303.18 L543.083 307.208 Q544.425 304.847 546.578 303.713 Q548.731 302.555 551.809 302.555 Q552.249 302.555 552.782 302.625 Q553.314 302.671 553.962 302.787 L553.985 307.162 Z" fill="#000000" fill-rule="evenodd" fill-opacity="1" /><path clip-path="url(#clip680)" d="M572.643 307.162 Q571.925 306.745 571.068 306.56 Q570.235 306.352 569.217 306.352 Q565.606 306.352 563.661 308.713 Q561.74 311.051 561.74 315.449 L561.74 329.106 L557.457 329.106 L557.457 303.18 L561.74 303.18 L561.74 307.208 Q563.082 304.847 565.235 303.713 Q567.388 302.555 570.467 302.555 Q570.906 302.555 571.439 302.625 Q571.971 302.671 572.619 302.787 L572.643 307.162 Z" fill="#000000" fill-rule="evenodd" fill-opacity="1" /><path clip-path="url(#clip680)" d="M586.115 306.167 Q582.689 306.167 580.698 308.852 Q578.707 311.514 578.707 316.167 Q578.707 320.819 580.675 323.504 Q582.666 326.166 586.115 326.166 Q589.517 326.166 591.508 323.481 Q593.499 320.796 593.499 316.167 Q593.499 311.56 591.508 308.875 Q589.517 306.167 586.115 306.167 M586.115 302.555 Q591.67 302.555 594.842 306.167 Q598.013 309.778 598.013 316.167 Q598.013 322.532 594.842 326.166 Q591.67 329.778 586.115 329.778 Q580.536 329.778 577.365 326.166 Q574.217 322.532 574.217 316.167 Q574.217 309.778 577.365 306.167 Q580.536 302.555 586.115 302.555 Z" fill="#000000" fill-rule="evenodd" fill-opacity="1" /><path clip-path="url(#clip680)" d="M633.267 293.088 L633.267 296.63 L629.193 296.63 Q626.902 296.63 625.999 297.556 Q625.119 298.481 625.119 300.889 L625.119 303.18 L632.133 303.18 L632.133 306.491 L625.119 306.491 L625.119 329.106 L620.837 329.106 L620.837 306.491 L616.763 306.491 L616.763 303.18 L620.837 303.18 L620.837 301.375 Q620.837 297.046 622.851 295.079 Q624.864 293.088 629.239 293.088 L633.267 293.088 Z" fill="#000000" fill-rule="evenodd" fill-opacity="1" /><path clip-path="url(#clip680)" d="M646.878 306.167 Q643.452 306.167 641.462 308.852 Q639.471 311.514 639.471 316.167 Q639.471 320.819 641.438 323.504 Q643.429 326.166 646.878 326.166 Q650.281 326.166 652.272 323.481 Q654.262 320.796 654.262 316.167 Q654.262 311.56 652.272 308.875 Q650.281 306.167 646.878 306.167 M646.878 302.555 Q652.434 302.555 655.605 306.167 Q658.776 309.778 658.776 316.167 Q658.776 322.532 655.605 326.166 Q652.434 329.778 646.878 329.778 Q641.3 329.778 638.128 326.166 Q634.98 322.532 634.98 316.167 Q634.98 309.778 638.128 306.167 Q641.3 302.555 646.878 302.555 Z" fill="#000000" fill-rule="evenodd" fill-opacity="1" /><path clip-path="url(#clip680)" d="M680.86 307.162 Q680.142 306.745 679.285 306.56 Q678.452 306.352 677.434 306.352 Q673.823 306.352 671.878 308.713 Q669.957 311.051 669.957 315.449 L669.957 329.106 L665.674 329.106 L665.674 303.18 L669.957 303.18 L669.957 307.208 Q671.299 304.847 673.452 303.713 Q675.605 302.555 678.684 302.555 Q679.123 302.555 679.656 302.625 Q680.188 302.671 680.836 302.787 L680.86 307.162 Z" fill="#000000" fill-rule="evenodd" fill-opacity="1" /><path clip-path="url(#clip680)" d="M689.54 295.819 L689.54 303.18 L698.313 303.18 L698.313 306.491 L689.54 306.491 L689.54 320.565 Q689.54 323.736 690.397 324.639 Q691.276 325.541 693.938 325.541 L698.313 325.541 L698.313 329.106 L693.938 329.106 Q689.008 329.106 687.133 327.278 Q685.258 325.426 685.258 320.565 L685.258 306.491 L682.133 306.491 L682.133 303.18 L685.258 303.18 L685.258 295.819 L689.54 295.819 Z" fill="#000000" fill-rule="evenodd" fill-opacity="1" /><path clip-path="url(#clip680)" d="M726.091 315.079 L726.091 317.162 L706.508 317.162 Q706.785 321.56 709.146 323.875 Q711.531 326.166 715.767 326.166 Q718.22 326.166 720.512 325.565 Q722.827 324.963 725.095 323.759 L725.095 327.787 Q722.804 328.759 720.396 329.268 Q717.989 329.778 715.512 329.778 Q709.308 329.778 705.674 326.166 Q702.063 322.555 702.063 316.398 Q702.063 310.032 705.489 306.305 Q708.938 302.555 714.771 302.555 Q720.003 302.555 723.035 305.935 Q726.091 309.292 726.091 315.079 M721.832 313.829 Q721.785 310.333 719.864 308.25 Q717.966 306.167 714.818 306.167 Q711.253 306.167 709.1 308.18 Q706.971 310.194 706.646 313.852 L721.832 313.829 Z" fill="#000000" fill-rule="evenodd" fill-opacity="1" /><path clip-path="url(#clip680)" d="M749.563 325.171 L757.202 325.171 L757.202 298.806 L748.892 300.472 L748.892 296.213 L757.155 294.546 L761.831 294.546 L761.831 325.171 L769.47 325.171 L769.47 329.106 L749.563 329.106 L749.563 325.171 Z" fill="#000000" fill-rule="evenodd" fill-opacity="1" /><path clip-path="url(#clip680)" d="M805.164 316.074 Q800.002 316.074 798.012 317.254 Q796.021 318.435 796.021 321.282 Q796.021 323.551 797.502 324.893 Q799.007 326.213 801.577 326.213 Q805.118 326.213 807.248 323.713 Q809.401 321.19 809.401 317.023 L809.401 316.074 L805.164 316.074 M813.66 314.315 L813.66 329.106 L809.401 329.106 L809.401 325.171 Q807.942 327.532 805.766 328.666 Q803.59 329.778 800.442 329.778 Q796.461 329.778 794.1 327.555 Q791.762 325.31 791.762 321.56 Q791.762 317.185 794.678 314.963 Q797.618 312.741 803.428 312.741 L809.401 312.741 L809.401 312.324 Q809.401 309.384 807.456 307.787 Q805.535 306.167 802.039 306.167 Q799.817 306.167 797.711 306.699 Q795.604 307.231 793.66 308.296 L793.66 304.361 Q795.998 303.458 798.197 303.018 Q800.396 302.555 802.479 302.555 Q808.104 302.555 810.882 305.472 Q813.66 308.389 813.66 314.315 Z" fill="#000000" fill-rule="evenodd" fill-opacity="1" /><path clip-path="url(#clip680)" d="M842.618 308.157 Q844.215 305.287 846.437 303.921 Q848.66 302.555 851.669 302.555 Q855.72 302.555 857.919 305.403 Q860.118 308.227 860.118 313.458 L860.118 329.106 L855.835 329.106 L855.835 313.597 Q855.835 309.87 854.516 308.065 Q853.197 306.259 850.488 306.259 Q847.178 306.259 845.257 308.458 Q843.336 310.657 843.336 314.454 L843.336 329.106 L839.053 329.106 L839.053 313.597 Q839.053 309.847 837.734 308.065 Q836.414 306.259 833.66 306.259 Q830.396 306.259 828.475 308.481 Q826.553 310.68 826.553 314.454 L826.553 329.106 L822.271 329.106 L822.271 303.18 L826.553 303.18 L826.553 307.208 Q828.012 304.824 830.049 303.69 Q832.086 302.555 834.887 302.555 Q837.711 302.555 839.678 303.991 Q841.669 305.426 842.618 308.157 Z" fill="#000000" fill-rule="evenodd" fill-opacity="1" /><path clip-path="url(#clip680)" d="M878.659 306.167 Q875.234 306.167 873.243 308.852 Q871.252 311.514 871.252 316.167 Q871.252 320.819 873.22 323.504 Q875.21 326.166 878.659 326.166 Q882.062 326.166 884.053 323.481 Q886.044 320.796 886.044 316.167 Q886.044 311.56 884.053 308.875 Q882.062 306.167 878.659 306.167 M878.659 302.555 Q884.215 302.555 887.386 306.167 Q890.558 309.778 890.558 316.167 Q890.558 322.532 887.386 326.166 Q884.215 329.778 878.659 329.778 Q873.081 329.778 869.909 326.166 Q866.761 322.532 866.761 316.167 Q866.761 309.778 869.909 306.167 Q873.081 302.555 878.659 302.555 Z" fill="#000000" fill-rule="evenodd" fill-opacity="1" /><path clip-path="url(#clip680)" d="M914.145 303.944 L914.145 307.972 Q912.34 307.046 910.395 306.583 Q908.451 306.12 906.368 306.12 Q903.196 306.12 901.599 307.093 Q900.025 308.065 900.025 310.009 Q900.025 311.491 901.159 312.347 Q902.294 313.18 905.719 313.944 L907.178 314.268 Q911.715 315.241 913.613 317.023 Q915.534 318.782 915.534 321.954 Q915.534 325.565 912.664 327.671 Q909.817 329.778 904.817 329.778 Q902.733 329.778 900.465 329.361 Q898.22 328.967 895.72 328.157 L895.72 323.759 Q898.081 324.986 900.372 325.611 Q902.664 326.213 904.909 326.213 Q907.919 326.213 909.539 325.194 Q911.159 324.153 911.159 322.278 Q911.159 320.542 909.979 319.616 Q908.821 318.69 904.863 317.833 L903.382 317.486 Q899.423 316.653 897.664 314.94 Q895.905 313.204 895.905 310.194 Q895.905 306.537 898.497 304.546 Q901.09 302.555 905.858 302.555 Q908.219 302.555 910.303 302.903 Q912.386 303.25 914.145 303.944 Z" fill="#000000" fill-rule="evenodd" fill-opacity="1" /><path clip-path="url(#clip680)" d="M926.53 295.819 L926.53 303.18 L935.303 303.18 L935.303 306.491 L926.53 306.491 L926.53 320.565 Q926.53 323.736 927.386 324.639 Q928.266 325.541 930.928 325.541 L935.303 325.541 L935.303 329.106 L930.928 329.106 Q925.997 329.106 924.122 327.278 Q922.247 325.426 922.247 320.565 L922.247 306.491 L919.122 306.491 L919.122 303.18 L922.247 303.18 L922.247 295.819 L926.53 295.819 Z" fill="#000000" fill-rule="evenodd" fill-opacity="1" /><path clip-path="url(#clip680)" d="M955.928 307.162 Q955.21 306.745 954.353 306.56 Q953.52 306.352 952.502 306.352 Q948.891 306.352 946.946 308.713 Q945.025 311.051 945.025 315.449 L945.025 329.106 L940.742 329.106 L940.742 303.18 L945.025 303.18 L945.025 307.208 Q946.367 304.847 948.52 303.713 Q950.673 302.555 953.752 302.555 Q954.191 302.555 954.724 302.625 Q955.256 302.671 955.904 302.787 L955.928 307.162 Z" fill="#000000" fill-rule="evenodd" fill-opacity="1" /><path clip-path="url(#clip680)" d="M972.177 316.074 Q967.015 316.074 965.025 317.254 Q963.034 318.435 963.034 321.282 Q963.034 323.551 964.515 324.893 Q966.02 326.213 968.589 326.213 Q972.131 326.213 974.261 323.713 Q976.414 321.19 976.414 317.023 L976.414 316.074 L972.177 316.074 M980.673 314.315 L980.673 329.106 L976.414 329.106 L976.414 325.171 Q974.955 327.532 972.779 328.666 Q970.603 329.778 967.455 329.778 Q963.474 329.778 961.113 327.555 Q958.775 325.31 958.775 321.56 Q958.775 317.185 961.691 314.963 Q964.631 312.741 970.441 312.741 L976.414 312.741 L976.414 312.324 Q976.414 309.384 974.469 307.787 Q972.548 306.167 969.052 306.167 Q966.83 306.167 964.724 306.699 Q962.617 307.231 960.673 308.296 L960.673 304.361 Q963.011 303.458 965.21 303.018 Q967.409 302.555 969.492 302.555 Q975.117 302.555 977.895 305.472 Q980.673 308.389 980.673 314.315 Z" fill="#000000" fill-rule="evenodd" fill-opacity="1" /><path clip-path="url(#clip680)" d="M1005.97 303.944 L1005.97 307.972 Q1004.17 307.046 1002.22 306.583 Q1000.28 306.12 998.196 306.12 Q995.025 306.12 993.427 307.093 Q991.853 308.065 991.853 310.009 Q991.853 311.491 992.988 312.347 Q994.122 313.18 997.548 313.944 L999.006 314.268 Q1003.54 315.241 1005.44 317.023 Q1007.36 318.782 1007.36 321.954 Q1007.36 325.565 1004.49 327.671 Q1001.64 329.778 996.645 329.778 Q994.562 329.778 992.293 329.361 Q990.048 328.967 987.548 328.157 L987.548 323.759 Q989.909 324.986 992.2 325.611 Q994.492 326.213 996.737 326.213 Q999.747 326.213 1001.37 325.194 Q1002.99 324.153 1002.99 322.278 Q1002.99 320.542 1001.81 319.616 Q1000.65 318.69 996.691 317.833 L995.21 317.486 Q991.251 316.653 989.492 314.94 Q987.733 313.204 987.733 310.194 Q987.733 306.537 990.325 304.546 Q992.918 302.555 997.687 302.555 Q1000.05 302.555 1002.13 302.903 Q1004.21 303.25 1005.97 303.944 Z" fill="#000000" fill-rule="evenodd" fill-opacity="1" /><polyline clip-path="url(#clip680)" style="stroke:#3da44d; stroke-linecap:butt; stroke-linejoin:round; stroke-width:4; stroke-opacity:1; fill:none" stroke-dasharray="16, 10" points="
  344.479,363.666 484.592,363.666 
  "/>
<path clip-path="url(#clip680)" d="M521.347 367.914 Q516.185 367.914 514.194 369.094 Q512.203 370.275 512.203 373.122 Q512.203 375.391 513.685 376.733 Q515.189 378.053 517.759 378.053 Q521.3 378.053 523.43 375.553 Q525.583 373.03 525.583 368.863 L525.583 367.914 L521.347 367.914 M529.842 366.155 L529.842 380.946 L525.583 380.946 L525.583 377.011 Q524.124 379.372 521.948 380.506 Q519.772 381.618 516.624 381.618 Q512.643 381.618 510.282 379.395 Q507.944 377.15 507.944 373.4 Q507.944 369.025 510.86 366.803 Q513.8 364.581 519.61 364.581 L525.583 364.581 L525.583 364.164 Q525.583 361.224 523.638 359.627 Q521.717 358.007 518.222 358.007 Q515.999 358.007 513.893 358.539 Q511.786 359.071 509.842 360.136 L509.842 356.201 Q512.18 355.298 514.379 354.858 Q516.578 354.395 518.661 354.395 Q524.286 354.395 527.064 357.312 Q529.842 360.229 529.842 366.155 Z" fill="#000000" fill-rule="evenodd" fill-opacity="1" /><path clip-path="url(#clip680)" d="M538.615 355.02 L542.874 355.02 L542.874 381.409 Q542.874 386.363 540.976 388.585 Q539.101 390.807 534.911 390.807 L533.291 390.807 L533.291 387.196 L534.425 387.196 Q536.856 387.196 537.735 386.062 Q538.615 384.951 538.615 381.409 L538.615 355.02 M538.615 344.928 L542.874 344.928 L542.874 350.321 L538.615 350.321 L538.615 344.928 Z" fill="#000000" fill-rule="evenodd" fill-opacity="1" /><path clip-path="url(#clip680)" d="M551.346 370.715 L551.346 355.02 L555.606 355.02 L555.606 370.553 Q555.606 374.233 557.041 376.085 Q558.476 377.914 561.346 377.914 Q564.795 377.914 566.786 375.715 Q568.8 373.516 568.8 369.719 L568.8 355.02 L573.059 355.02 L573.059 380.946 L568.8 380.946 L568.8 376.965 Q567.249 379.326 565.189 380.483 Q563.152 381.618 560.444 381.618 Q555.976 381.618 553.661 378.84 Q551.346 376.062 551.346 370.715 M562.064 354.395 L562.064 354.395 Z" fill="#000000" fill-rule="evenodd" fill-opacity="1" /><path clip-path="url(#clip680)" d="M598.36 355.784 L598.36 359.812 Q596.554 358.886 594.61 358.423 Q592.666 357.96 590.582 357.96 Q587.411 357.96 585.814 358.933 Q584.24 359.905 584.24 361.849 Q584.24 363.331 585.374 364.187 Q586.508 365.02 589.934 365.784 L591.392 366.108 Q595.929 367.081 597.828 368.863 Q599.749 370.622 599.749 373.794 Q599.749 377.405 596.879 379.511 Q594.031 381.618 589.031 381.618 Q586.948 381.618 584.68 381.201 Q582.434 380.807 579.934 379.997 L579.934 375.599 Q582.295 376.826 584.587 377.451 Q586.879 378.053 589.124 378.053 Q592.133 378.053 593.754 377.034 Q595.374 375.993 595.374 374.118 Q595.374 372.382 594.193 371.456 Q593.036 370.53 589.078 369.673 L587.596 369.326 Q583.638 368.493 581.879 366.78 Q580.119 365.044 580.119 362.034 Q580.119 358.377 582.712 356.386 Q585.305 354.395 590.073 354.395 Q592.434 354.395 594.517 354.743 Q596.601 355.09 598.36 355.784 Z" fill="#000000" fill-rule="evenodd" fill-opacity="1" /><path clip-path="url(#clip680)" d="M610.744 347.659 L610.744 355.02 L619.517 355.02 L619.517 358.331 L610.744 358.331 L610.744 372.405 Q610.744 375.576 611.601 376.479 Q612.48 377.381 615.142 377.381 L619.517 377.381 L619.517 380.946 L615.142 380.946 Q610.212 380.946 608.337 379.118 Q606.462 377.266 606.462 372.405 L606.462 358.331 L603.337 358.331 L603.337 355.02 L606.462 355.02 L606.462 347.659 L610.744 347.659 Z" fill="#000000" fill-rule="evenodd" fill-opacity="1" /><path clip-path="url(#clip680)" d="M647.295 366.919 L647.295 369.002 L627.712 369.002 Q627.989 373.4 630.351 375.715 Q632.735 378.006 636.971 378.006 Q639.425 378.006 641.716 377.405 Q644.031 376.803 646.3 375.599 L646.3 379.627 Q644.008 380.599 641.601 381.108 Q639.193 381.618 636.716 381.618 Q630.513 381.618 626.878 378.006 Q623.267 374.395 623.267 368.238 Q623.267 361.872 626.693 358.145 Q630.142 354.395 635.976 354.395 Q641.207 354.395 644.239 357.775 Q647.295 361.132 647.295 366.919 M643.036 365.669 Q642.989 362.173 641.068 360.09 Q639.17 358.007 636.022 358.007 Q632.457 358.007 630.304 360.02 Q628.175 362.034 627.851 365.692 L643.036 365.669 Z" fill="#000000" fill-rule="evenodd" fill-opacity="1" /><path clip-path="url(#clip680)" d="M669.355 344.928 L673.614 344.928 L673.614 380.946 L669.355 380.946 L669.355 344.928 Z" fill="#000000" fill-rule="evenodd" fill-opacity="1" /><path clip-path="url(#clip680)" d="M682.526 355.02 L686.785 355.02 L686.785 380.946 L682.526 380.946 L682.526 355.02 M682.526 344.928 L686.785 344.928 L686.785 350.321 L682.526 350.321 L682.526 344.928 Z" fill="#000000" fill-rule="evenodd" fill-opacity="1" /><path clip-path="url(#clip680)" d="M717.248 365.298 L717.248 380.946 L712.989 380.946 L712.989 365.437 Q712.989 361.757 711.554 359.928 Q710.119 358.099 707.248 358.099 Q703.799 358.099 701.809 360.298 Q699.818 362.497 699.818 366.294 L699.818 380.946 L695.535 380.946 L695.535 355.02 L699.818 355.02 L699.818 359.048 Q701.346 356.71 703.406 355.553 Q705.489 354.395 708.197 354.395 Q712.665 354.395 714.957 357.173 Q717.248 359.928 717.248 365.298 Z" fill="#000000" fill-rule="evenodd" fill-opacity="1" /><path clip-path="url(#clip680)" d="M747.919 366.919 L747.919 369.002 L728.336 369.002 Q728.614 373.4 730.975 375.715 Q733.359 378.006 737.595 378.006 Q740.049 378.006 742.341 377.405 Q744.656 376.803 746.924 375.599 L746.924 379.627 Q744.632 380.599 742.225 381.108 Q739.818 381.618 737.341 381.618 Q731.137 381.618 727.503 378.006 Q723.892 374.395 723.892 368.238 Q723.892 361.872 727.318 358.145 Q730.767 354.395 736.6 354.395 Q741.831 354.395 744.864 357.775 Q747.919 361.132 747.919 366.919 M743.66 365.669 Q743.614 362.173 741.693 360.09 Q739.794 358.007 736.646 358.007 Q733.082 358.007 730.929 360.02 Q728.799 362.034 728.475 365.692 L743.66 365.669 Z" fill="#000000" fill-rule="evenodd" fill-opacity="1" /><path clip-path="url(#clip680)" d="M766.692 367.914 Q761.53 367.914 759.54 369.094 Q757.549 370.275 757.549 373.122 Q757.549 375.391 759.03 376.733 Q760.535 378.053 763.104 378.053 Q766.646 378.053 768.776 375.553 Q770.929 373.03 770.929 368.863 L770.929 367.914 L766.692 367.914 M775.188 366.155 L775.188 380.946 L770.929 380.946 L770.929 377.011 Q769.47 379.372 767.294 380.506 Q765.118 381.618 761.97 381.618 Q757.989 381.618 755.628 379.395 Q753.29 377.15 753.29 373.4 Q753.29 369.025 756.206 366.803 Q759.146 364.581 764.956 364.581 L770.929 364.581 L770.929 364.164 Q770.929 361.224 768.984 359.627 Q767.063 358.007 763.567 358.007 Q761.345 358.007 759.239 358.539 Q757.132 359.071 755.188 360.136 L755.188 356.201 Q757.526 355.298 759.725 354.858 Q761.924 354.395 764.007 354.395 Q769.632 354.395 772.41 357.312 Q775.188 360.229 775.188 366.155 Z" fill="#000000" fill-rule="evenodd" fill-opacity="1" /><path clip-path="url(#clip680)" d="M798.984 359.002 Q798.266 358.585 797.41 358.4 Q796.577 358.192 795.558 358.192 Q791.947 358.192 790.002 360.553 Q788.081 362.891 788.081 367.289 L788.081 380.946 L783.799 380.946 L783.799 355.02 L788.081 355.02 L788.081 359.048 Q789.424 356.687 791.577 355.553 Q793.729 354.395 796.808 354.395 Q797.248 354.395 797.78 354.465 Q798.313 354.511 798.961 354.627 L798.984 359.002 Z" fill="#000000" fill-rule="evenodd" fill-opacity="1" /></svg>
