<?xml version="1.0" encoding="utf-8"?>
<svg xmlns="http://www.w3.org/2000/svg" xmlns:xlink="http://www.w3.org/1999/xlink" width="600" height="400" viewBox="0 0 2400 1600">
<defs>
  <clipPath id="clip690">
    <rect x="0" y="0" width="2400" height="1600"/>
  </clipPath>
</defs>
<path clip-path="url(#clip690)" d="M0 1600 L2400 1600 L2400 0 L0 0  Z" fill="#ffffff" fill-rule="evenodd" fill-opacity="1"/>
<defs>
  <clipPath id="clip691">
    <rect x="480" y="0" width="1681" height="1600"/>
  </clipPath>
</defs>
<path clip-path="url(#clip690)" d="M221.637 1410.9 L2352.76 1410.9 L2352.76 166.672 L221.637 166.672  Z" fill="#eaeaea" fill-rule="evenodd" fill-opacity="1"/>
<defs>
  <clipPath id="clip692">
    <rect x="221" y="166" width="2132" height="1245"/>
  </clipPath>
</defs>
<polyline clip-path="url(#clip692)" style="stroke:#ffffff; stroke-linecap:round; stroke-linejoin:round; stroke-width:4; stroke-opacity:1; fill:none" points="816.99,1410.9 816.99,166.672 "/>
<polyline clip-path="url(#clip692)" style="stroke:#ffffff; stroke-linecap:round; stroke-linejoin:round; stroke-width:4; stroke-opacity:1; fill:none" points="1481.11,1410.9 1481.11,166.672 "/>
<polyline clip-path="url(#clip692)" style="stroke:#ffffff; stroke-linecap:round; stroke-linejoin:round; stroke-width:4; stroke-opacity:1; fill:none" points="2145.23,1410.9 2145.23,166.672 "/>
<polyline clip-path="url(#clip690)" style="stroke:#ffffff; stroke-linecap:round; stroke-linejoin:round; stroke-width:4; stroke-opacity:1; fill:none" points="221.637,1410.9 2352.76,1410.9 "/>
<polyline clip-path="url(#clip690)" style="stroke:#333333; stroke-linecap:round; stroke-linejoin:round; stroke-width:4; stroke-opacity:1; fill:none" points="816.99,1410.9 816.99,1429.79 "/>
<polyline clip-path="url(#clip690)" style="stroke:#333333; stroke-linecap:round; stroke-linejoin:round; stroke-width:4; stroke-opacity:1; fill:none" points="1481.11,1410.9 1481.11,1429.79 "/>
<polyline clip-path="url(#clip690)" style="stroke:#333333; stroke-linecap:round; stroke-linejoin:round; stroke-width:4; stroke-opacity:1; fill:none" points="2145.23,1410.9 2145.23,1429.79 "/>
<path clip-path="url(#clip690)" d="M748.636 1494.62 L756.275 1494.62 L756.275 1468.26 L747.965 1469.92 L747.965 1465.66 L756.229 1464 L760.905 1464 L760.905 1494.62 L768.544 1494.62 L768.544 1498.56 L748.636 1498.56 L748.636 1494.62 Z" fill="#4c4c4c" fill-rule="nonzero" fill-opacity="1" /><path clip-path="url(#clip690)" d="M787.988 1467.08 Q784.377 1467.08 782.548 1470.64 Q780.743 1474.18 780.743 1481.31 Q780.743 1488.42 782.548 1491.98 Q784.377 1495.52 787.988 1495.52 Q791.622 1495.52 793.428 1491.98 Q795.256 1488.42 795.256 1481.31 Q795.256 1474.18 793.428 1470.64 Q791.622 1467.08 787.988 1467.08 M787.988 1463.37 Q793.798 1463.37 796.854 1467.98 Q799.932 1472.56 799.932 1481.31 Q799.932 1490.04 796.854 1494.64 Q793.798 1499.23 787.988 1499.23 Q782.178 1499.23 779.099 1494.64 Q776.044 1490.04 776.044 1481.31 Q776.044 1472.56 779.099 1467.98 Q782.178 1463.37 787.988 1463.37 Z" fill="#4c4c4c" fill-rule="nonzero" fill-opacity="1" /><path clip-path="url(#clip690)" d="M799.932 1457.47 L824.044 1457.47 L824.044 1460.67 L799.932 1460.67 L799.932 1457.47 Z" fill="#4c4c4c" fill-rule="nonzero" fill-opacity="1" /><path clip-path="url(#clip690)" d="M835.517 1467.95 L848.776 1467.95 L848.776 1471.15 L830.946 1471.15 L830.946 1467.95 Q833.109 1465.71 836.833 1461.95 Q840.576 1458.17 841.535 1457.08 Q843.359 1455.03 844.074 1453.62 Q844.808 1452.19 844.808 1450.82 Q844.808 1448.58 843.228 1447.17 Q841.667 1445.76 839.147 1445.76 Q837.36 1445.76 835.366 1446.38 Q833.391 1447 831.134 1448.26 L831.134 1444.42 Q833.429 1443.5 835.423 1443.03 Q837.416 1442.56 839.071 1442.56 Q843.435 1442.56 846.03 1444.74 Q848.626 1446.92 848.626 1450.57 Q848.626 1452.3 847.967 1453.86 Q847.328 1455.4 845.616 1457.51 Q845.146 1458.06 842.626 1460.67 Q840.106 1463.27 835.517 1467.95 Z" fill="#4c4c4c" fill-rule="nonzero" fill-opacity="1" /><path clip-path="url(#clip690)" d="M856.751 1466.37 L860.719 1466.37 L860.719 1471.15 L856.751 1471.15 L856.751 1466.37 Z" fill="#4c4c4c" fill-rule="nonzero" fill-opacity="1" /><path clip-path="url(#clip690)" d="M869.032 1443.07 L883.947 1443.07 L883.947 1446.26 L872.512 1446.26 L872.512 1453.15 Q873.339 1452.87 874.167 1452.73 Q874.994 1452.58 875.822 1452.58 Q880.524 1452.58 883.27 1455.16 Q886.015 1457.74 886.015 1462.14 Q886.015 1466.67 883.194 1469.19 Q880.373 1471.69 875.239 1471.69 Q873.471 1471.69 871.628 1471.39 Q869.803 1471.09 867.847 1470.49 L867.847 1466.67 Q869.54 1467.59 871.345 1468.04 Q873.151 1468.49 875.163 1468.49 Q878.417 1468.49 880.317 1466.78 Q882.216 1465.07 882.216 1462.14 Q882.216 1459.2 880.317 1457.49 Q878.417 1455.78 875.163 1455.78 Q873.64 1455.78 872.117 1456.12 Q870.612 1456.46 869.032 1457.17 L869.032 1443.07 Z" fill="#4c4c4c" fill-rule="nonzero" fill-opacity="1" /><path clip-path="url(#clip690)" d="M1412.35 1494.62 L1419.99 1494.62 L1419.99 1468.26 L1411.68 1469.92 L1411.68 1465.66 L1419.94 1464 L1424.62 1464 L1424.62 1494.62 L1432.26 1494.62 L1432.26 1498.56 L1412.35 1498.56 L1412.35 1494.62 Z" fill="#4c4c4c" fill-rule="nonzero" fill-opacity="1" /><path clip-path="url(#clip690)" d="M1451.7 1467.08 Q1448.09 1467.08 1446.26 1470.64 Q1444.46 1474.18 1444.46 1481.31 Q1444.46 1488.42 1446.26 1491.98 Q1448.09 1495.52 1451.7 1495.52 Q1455.34 1495.52 1457.14 1491.98 Q1458.97 1488.42 1458.97 1481.31 Q1458.97 1474.18 1457.14 1470.64 Q1455.34 1467.08 1451.7 1467.08 M1451.7 1463.37 Q1457.51 1463.37 1460.57 1467.98 Q1463.65 1472.56 1463.65 1481.31 Q1463.65 1490.04 1460.57 1494.64 Q1457.51 1499.23 1451.7 1499.23 Q1445.89 1499.23 1442.81 1494.64 Q1439.76 1490.04 1439.76 1481.31 Q1439.76 1472.56 1442.81 1467.98 Q1445.89 1463.37 1451.7 1463.37 Z" fill="#4c4c4c" fill-rule="nonzero" fill-opacity="1" /><path clip-path="url(#clip690)" d="M1463.65 1457.47 L1487.76 1457.47 L1487.76 1460.67 L1463.65 1460.67 L1463.65 1457.47 Z" fill="#4c4c4c" fill-rule="nonzero" fill-opacity="1" /><path clip-path="url(#clip690)" d="M1499.23 1467.95 L1512.49 1467.95 L1512.49 1471.15 L1494.66 1471.15 L1494.66 1467.95 Q1496.82 1465.71 1500.55 1461.95 Q1504.29 1458.17 1505.25 1457.08 Q1507.07 1455.03 1507.79 1453.62 Q1508.52 1452.19 1508.52 1450.82 Q1508.52 1448.58 1506.94 1447.17 Q1505.38 1445.76 1502.86 1445.76 Q1501.07 1445.76 1499.08 1446.38 Q1497.11 1447 1494.85 1448.26 L1494.85 1444.42 Q1497.14 1443.5 1499.14 1443.03 Q1501.13 1442.56 1502.79 1442.56 Q1507.15 1442.56 1509.74 1444.74 Q1512.34 1446.92 1512.34 1450.57 Q1512.34 1452.3 1511.68 1453.86 Q1511.04 1455.4 1509.33 1457.51 Q1508.86 1458.06 1506.34 1460.67 Q1503.82 1463.27 1499.23 1467.95 Z" fill="#4c4c4c" fill-rule="nonzero" fill-opacity="1" /><path clip-path="url(#clip690)" d="M1520.46 1466.37 L1524.43 1466.37 L1524.43 1471.15 L1520.46 1471.15 L1520.46 1466.37 Z" fill="#4c4c4c" fill-rule="nonzero" fill-opacity="1" /><path clip-path="url(#clip690)" d="M1540.83 1445.57 Q1537.9 1445.57 1536.41 1448.46 Q1534.95 1451.34 1534.95 1457.13 Q1534.95 1462.91 1536.41 1465.8 Q1537.9 1468.68 1540.83 1468.68 Q1543.79 1468.68 1545.25 1465.8 Q1546.74 1462.91 1546.74 1457.13 Q1546.74 1451.34 1545.25 1448.46 Q1543.79 1445.57 1540.83 1445.57 M1540.83 1442.56 Q1545.55 1442.56 1548.04 1446.3 Q1550.54 1450.03 1550.54 1457.13 Q1550.54 1464.22 1548.04 1467.97 Q1545.55 1471.69 1540.83 1471.69 Q1536.11 1471.69 1533.61 1467.97 Q1531.13 1464.22 1531.13 1457.13 Q1531.13 1450.03 1533.61 1446.3 Q1536.11 1442.56 1540.83 1442.56 Z" fill="#4c4c4c" fill-rule="nonzero" fill-opacity="1" /><path clip-path="url(#clip690)" d="M2076.87 1494.62 L2084.51 1494.62 L2084.51 1468.26 L2076.2 1469.92 L2076.2 1465.66 L2084.47 1464 L2089.14 1464 L2089.14 1494.62 L2096.78 1494.62 L2096.78 1498.56 L2076.87 1498.56 L2076.87 1494.62 Z" fill="#4c4c4c" fill-rule="nonzero" fill-opacity="1" /><path clip-path="url(#clip690)" d="M2116.23 1467.08 Q2112.61 1467.08 2110.79 1470.64 Q2108.98 1474.18 2108.98 1481.31 Q2108.98 1488.42 2110.79 1491.98 Q2112.61 1495.52 2116.23 1495.52 Q2119.86 1495.52 2121.66 1491.98 Q2123.49 1488.42 2123.49 1481.31 Q2123.49 1474.18 2121.66 1470.64 Q2119.86 1467.08 2116.23 1467.08 M2116.23 1463.37 Q2122.04 1463.37 2125.09 1467.98 Q2128.17 1472.56 2128.17 1481.31 Q2128.17 1490.04 2125.09 1494.64 Q2122.04 1499.23 2116.23 1499.23 Q2110.42 1499.23 2107.34 1494.64 Q2104.28 1490.04 2104.28 1481.31 Q2104.28 1472.56 2107.34 1467.98 Q2110.42 1463.37 2116.23 1463.37 Z" fill="#4c4c4c" fill-rule="nonzero" fill-opacity="1" /><path clip-path="url(#clip690)" d="M2128.17 1457.47 L2152.28 1457.47 L2152.28 1460.67 L2128.17 1460.67 L2128.17 1457.47 Z" fill="#4c4c4c" fill-rule="nonzero" fill-opacity="1" /><path clip-path="url(#clip690)" d="M2161.14 1467.95 L2167.35 1467.95 L2167.35 1446.53 L2160.59 1447.88 L2160.59 1444.42 L2167.31 1443.07 L2171.11 1443.07 L2171.11 1467.95 L2177.31 1467.95 L2177.31 1471.15 L2161.14 1471.15 L2161.14 1467.95 Z" fill="#4c4c4c" fill-rule="nonzero" fill-opacity="1" /><path clip-path="url(#clip690)" d="M2184.99 1466.37 L2188.96 1466.37 L2188.96 1471.15 L2184.99 1471.15 L2184.99 1466.37 Z" fill="#4c4c4c" fill-rule="nonzero" fill-opacity="1" /><path clip-path="url(#clip690)" d="M2197.27 1443.07 L2212.18 1443.07 L2212.18 1446.26 L2200.75 1446.26 L2200.75 1453.15 Q2201.58 1452.87 2202.4 1452.73 Q2203.23 1452.58 2204.06 1452.58 Q2208.76 1452.58 2211.51 1455.16 Q2214.25 1457.74 2214.25 1462.14 Q2214.25 1466.67 2211.43 1469.19 Q2208.61 1471.69 2203.48 1471.69 Q2201.71 1471.69 2199.86 1471.39 Q2198.04 1471.09 2196.08 1470.49 L2196.08 1466.67 Q2197.78 1467.59 2199.58 1468.04 Q2201.39 1468.49 2203.4 1468.49 Q2206.65 1468.49 2208.55 1466.78 Q2210.45 1465.07 2210.45 1462.14 Q2210.45 1459.2 2208.55 1457.49 Q2206.65 1455.78 2203.4 1455.78 Q2201.88 1455.78 2200.35 1456.12 Q2198.85 1456.46 2197.27 1457.17 L2197.27 1443.07 Z" fill="#4c4c4c" fill-rule="nonzero" fill-opacity="1" /><path clip-path="url(#clip690)" d="M1274.93 1533 L1261.88 1568.84 L1288.01 1568.84 L1274.93 1533 M1253.16 1574.19 L1271.3 1526.67 L1278.59 1526.67 L1296.7 1574.19 L1253.16 1574.19 Z" fill="#000000" fill-rule="nonzero" fill-opacity="1" /><path clip-path="url(#clip690)" d="M1309.17 1528.42 L1309.17 1538.54 L1321.24 1538.54 L1321.24 1543.09 L1309.17 1543.09 L1309.17 1562.44 Q1309.17 1566.8 1310.35 1568.04 Q1311.56 1569.28 1315.22 1569.28 L1321.24 1569.28 L1321.24 1574.19 L1315.22 1574.19 Q1308.44 1574.19 1305.86 1571.67 Q1303.29 1569.12 1303.29 1562.44 L1303.29 1543.09 L1298.99 1543.09 L1298.99 1538.54 L1303.29 1538.54 L1303.29 1528.42 L1309.17 1528.42 Z" fill="#000000" fill-rule="nonzero" fill-opacity="1" /><polyline clip-path="url(#clip692)" style="stroke:#ffffff; stroke-linecap:round; stroke-linejoin:round; stroke-width:4; stroke-opacity:1; fill:none" points="221.637,877.504 2352.76,877.504 "/>
<polyline clip-path="url(#clip692)" style="stroke:#ffffff; stroke-linecap:round; stroke-linejoin:round; stroke-width:4; stroke-opacity:1; fill:none" points="221.637,197.809 2352.76,197.809 "/>
<polyline clip-path="url(#clip692)" style="stroke:#ffffff; stroke-linecap:round; stroke-linejoin:round; stroke-width:2; stroke-opacity:1; fill:none" points="221.637,965.742 2352.76,965.742 "/>
<polyline clip-path="url(#clip692)" style="stroke:#ffffff; stroke-linecap:round; stroke-linejoin:round; stroke-width:2; stroke-opacity:1; fill:none" points="221.637,877.504 2352.76,877.504 "/>
<polyline clip-path="url(#clip692)" style="stroke:#ffffff; stroke-linecap:round; stroke-linejoin:round; stroke-width:2; stroke-opacity:1; fill:none" points="221.637,877.504 2352.76,877.504 "/>
<polyline clip-path="url(#clip692)" style="stroke:#ffffff; stroke-linecap:round; stroke-linejoin:round; stroke-width:2; stroke-opacity:1; fill:none" points="221.637,625.894 2352.76,625.894 "/>
<polyline clip-path="url(#clip692)" style="stroke:#ffffff; stroke-linecap:round; stroke-linejoin:round; stroke-width:2; stroke-opacity:1; fill:none" points="221.637,625.894 2352.76,625.894 "/>
<polyline clip-path="url(#clip692)" style="stroke:#ffffff; stroke-linecap:round; stroke-linejoin:round; stroke-width:2; stroke-opacity:1; fill:none" points="221.637,537.657 2352.76,537.657 "/>
<polyline clip-path="url(#clip692)" style="stroke:#ffffff; stroke-linecap:round; stroke-linejoin:round; stroke-width:2; stroke-opacity:1; fill:none" points="221.637,537.657 2352.76,537.657 "/>
<polyline clip-path="url(#clip692)" style="stroke:#ffffff; stroke-linecap:round; stroke-linejoin:round; stroke-width:2; stroke-opacity:1; fill:none" points="221.637,286.046 2352.76,286.046 "/>
<polyline clip-path="url(#clip690)" style="stroke:#ffffff; stroke-linecap:round; stroke-linejoin:round; stroke-width:4; stroke-opacity:1; fill:none" points="221.637,1410.9 221.637,166.672 "/>
<polyline clip-path="url(#clip690)" style="stroke:#333333; stroke-linecap:round; stroke-linejoin:round; stroke-width:4; stroke-opacity:1; fill:none" points="221.637,877.504 202.739,877.504 "/>
<polyline clip-path="url(#clip690)" style="stroke:#333333; stroke-linecap:round; stroke-linejoin:round; stroke-width:4; stroke-opacity:1; fill:none" points="221.637,197.809 202.739,197.809 "/>
<polyline clip-path="url(#clip690)" style="stroke:#333333; stroke-linecap:round; stroke-linejoin:round; stroke-width:4; stroke-opacity:1; fill:none" points="221.637,965.742 212.188,965.742 "/>
<polyline clip-path="url(#clip690)" style="stroke:#333333; stroke-linecap:round; stroke-linejoin:round; stroke-width:4; stroke-opacity:1; fill:none" points="221.637,877.504 212.188,877.504 "/>
<polyline clip-path="url(#clip690)" style="stroke:#333333; stroke-linecap:round; stroke-linejoin:round; stroke-width:4; stroke-opacity:1; fill:none" points="221.637,877.504 212.188,877.504 "/>
<polyline clip-path="url(#clip690)" style="stroke:#333333; stroke-linecap:round; stroke-linejoin:round; stroke-width:4; stroke-opacity:1; fill:none" points="221.637,625.894 212.188,625.894 "/>
<polyline clip-path="url(#clip690)" style="stroke:#333333; stroke-linecap:round; stroke-linejoin:round; stroke-width:4; stroke-opacity:1; fill:none" points="221.637,625.894 212.188,625.894 "/>
<polyline clip-path="url(#clip690)" style="stroke:#333333; stroke-linecap:round; stroke-linejoin:round; stroke-width:4; stroke-opacity:1; fill:none" points="221.637,537.657 212.188,537.657 "/>
<polyline clip-path="url(#clip690)" style="stroke:#333333; stroke-linecap:round; stroke-linejoin:round; stroke-width:4; stroke-opacity:1; fill:none" points="221.637,537.657 212.188,537.657 "/>
<polyline clip-path="url(#clip690)" style="stroke:#333333; stroke-linecap:round; stroke-linejoin:round; stroke-width:4; stroke-opacity:1; fill:none" points="221.637,286.046 212.188,286.046 "/>
<path clip-path="url(#clip690)" d="M96.9315 897.297 L104.57 897.297 L104.57 870.931 L96.2602 872.598 L96.2602 868.339 L104.524 866.672 L109.2 866.672 L109.2 897.297 L116.839 897.297 L116.839 901.232 L96.9315 901.232 L96.9315 897.297 Z" fill="#4c4c4c" fill-rule="nonzero" fill-opacity="1" /><path clip-path="url(#clip690)" d="M136.283 869.751 Q132.672 869.751 130.843 873.316 Q129.038 876.857 129.038 883.987 Q129.038 891.093 130.843 894.658 Q132.672 898.2 136.283 898.2 Q139.917 898.2 141.723 894.658 Q143.552 891.093 143.552 883.987 Q143.552 876.857 141.723 873.316 Q139.917 869.751 136.283 869.751 M136.283 866.047 Q142.093 866.047 145.149 870.653 Q148.227 875.237 148.227 883.987 Q148.227 892.714 145.149 897.32 Q142.093 901.903 136.283 901.903 Q130.473 901.903 127.394 897.32 Q124.339 892.714 124.339 883.987 Q124.339 875.237 127.394 870.653 Q130.473 866.047 136.283 866.047 Z" fill="#4c4c4c" fill-rule="nonzero" fill-opacity="1" /><path clip-path="url(#clip690)" d="M157.932 848.243 Q154.998 848.243 153.512 851.139 Q152.045 854.017 152.045 859.81 Q152.045 865.584 153.512 868.48 Q154.998 871.358 157.932 871.358 Q160.885 871.358 162.352 868.48 Q163.838 865.584 163.838 859.81 Q163.838 854.017 162.352 851.139 Q160.885 848.243 157.932 848.243 M157.932 845.234 Q162.653 845.234 165.136 848.977 Q167.637 852.7 167.637 859.81 Q167.637 866.9 165.136 870.643 Q162.653 874.367 157.932 874.367 Q153.212 874.367 150.71 870.643 Q148.227 866.9 148.227 859.81 Q148.227 852.7 150.71 848.977 Q153.212 845.234 157.932 845.234 Z" fill="#4c4c4c" fill-rule="nonzero" fill-opacity="1" /><path clip-path="url(#clip690)" d="M98.5113 217.602 L106.15 217.602 L106.15 191.236 L97.84 192.903 L97.84 188.644 L106.104 186.977 L110.78 186.977 L110.78 217.602 L118.419 217.602 L118.419 221.537 L98.5113 221.537 L98.5113 217.602 Z" fill="#4c4c4c" fill-rule="nonzero" fill-opacity="1" /><path clip-path="url(#clip690)" d="M137.863 190.056 Q134.252 190.056 132.423 193.62 Q130.618 197.162 130.618 204.292 Q130.618 211.398 132.423 214.963 Q134.252 218.505 137.863 218.505 Q141.497 218.505 143.303 214.963 Q145.131 211.398 145.131 204.292 Q145.131 197.162 143.303 193.62 Q141.497 190.056 137.863 190.056 M137.863 186.352 Q143.673 186.352 146.729 190.958 Q149.807 195.542 149.807 204.292 Q149.807 213.019 146.729 217.625 Q143.673 222.208 137.863 222.208 Q132.053 222.208 128.974 217.625 Q125.919 213.019 125.919 204.292 Q125.919 195.542 128.974 190.958 Q132.053 186.352 137.863 186.352 Z" fill="#4c4c4c" fill-rule="nonzero" fill-opacity="1" /><path clip-path="url(#clip690)" d="M154.378 190.929 L167.637 190.929 L167.637 194.127 L149.807 194.127 L149.807 190.929 Q151.97 188.691 155.694 184.93 Q159.437 181.149 160.396 180.058 Q162.22 178.008 162.935 176.598 Q163.669 175.168 163.669 173.795 Q163.669 171.557 162.089 170.147 Q160.528 168.736 158.008 168.736 Q156.221 168.736 154.227 169.357 Q152.252 169.977 149.995 171.238 L149.995 167.401 Q152.29 166.479 154.284 166.009 Q156.277 165.539 157.932 165.539 Q162.296 165.539 164.891 167.72 Q167.487 169.902 167.487 173.551 Q167.487 175.281 166.828 176.842 Q166.189 178.384 164.477 180.491 Q164.007 181.036 161.487 183.651 Q158.967 186.246 154.378 190.929 Z" fill="#4c4c4c" fill-rule="nonzero" fill-opacity="1" /><path clip-path="url(#clip690)" d="M44.7161 817.669 L47.5806 817.669 L47.5806 844.596 Q53.6281 844.214 56.8109 840.967 Q59.9619 837.689 59.9619 831.864 Q59.9619 828.49 59.1344 825.339 Q58.3069 822.157 56.6518 819.037 L62.1899 819.037 Q63.5267 822.188 64.227 825.499 Q64.9272 828.809 64.9272 832.214 Q64.9272 840.744 59.9619 845.742 Q54.9967 850.707 46.5303 850.707 Q37.7774 850.707 32.6531 845.996 Q27.4968 841.254 27.4968 833.233 Q27.4968 826.04 32.1438 821.87 Q36.7589 817.669 44.7161 817.669 M42.9973 823.525 Q38.1912 823.589 35.3266 826.231 Q32.4621 828.841 32.4621 833.169 Q32.4621 838.071 35.2312 841.031 Q38.0002 843.959 43.0292 844.405 L42.9973 823.525 Z" fill="#000000" fill-rule="nonzero" fill-opacity="1" /><path clip-path="url(#clip690)" d="M33.8307 787.4 Q33.2578 788.387 33.0032 789.564 Q32.7167 790.71 32.7167 792.11 Q32.7167 797.076 35.9632 799.749 Q39.1779 802.391 45.2253 802.391 L64.0042 802.391 L64.0042 808.279 L28.3562 808.279 L28.3562 802.391 L33.8944 802.391 Q30.6479 800.545 29.0883 797.585 Q27.4968 794.625 27.4968 790.392 Q27.4968 789.787 27.5923 789.055 Q27.656 788.323 27.8151 787.432 L33.8307 787.4 Z" fill="#000000" fill-rule="nonzero" fill-opacity="1" /><path clip-path="url(#clip690)" d="M33.8307 761.746 Q33.2578 762.733 33.0032 763.91 Q32.7167 765.056 32.7167 766.457 Q32.7167 771.422 35.9632 774.096 Q39.1779 776.737 45.2253 776.737 L64.0042 776.737 L64.0042 782.626 L28.3562 782.626 L28.3562 776.737 L33.8944 776.737 Q30.6479 774.891 29.0883 771.931 Q27.4968 768.971 27.4968 764.738 Q27.4968 764.133 27.5923 763.401 Q27.656 762.669 27.8151 761.778 L33.8307 761.746 Z" fill="#000000" fill-rule="nonzero" fill-opacity="1" /><path clip-path="url(#clip690)" d="M32.4621 743.222 Q32.4621 747.932 36.1542 750.67 Q39.8145 753.407 46.212 753.407 Q52.6095 753.407 56.3017 750.702 Q59.9619 747.964 59.9619 743.222 Q59.9619 738.543 56.2698 735.806 Q52.5777 733.069 46.212 733.069 Q39.8781 733.069 36.186 735.806 Q32.4621 738.543 32.4621 743.222 M27.4968 743.222 Q27.4968 735.583 32.4621 731.222 Q37.4273 726.862 46.212 726.862 Q54.9649 726.862 59.9619 731.222 Q64.9272 735.583 64.9272 743.222 Q64.9272 750.893 59.9619 755.253 Q54.9649 759.582 46.212 759.582 Q37.4273 759.582 32.4621 755.253 Q27.4968 750.893 27.4968 743.222 Z" fill="#000000" fill-rule="nonzero" fill-opacity="1" /><path clip-path="url(#clip690)" d="M960.236 28.512 L993.014 28.512 L993.014 34.4147 L967.25 34.4147 L967.25 49.7619 L991.938 49.7619 L991.938 55.6646 L967.25 55.6646 L967.25 74.4493 L993.639 74.4493 L993.639 80.352 L960.236 80.352 L960.236 28.512 Z" fill="#000000" fill-rule="nonzero" fill-opacity="1" /><path clip-path="url(#clip690)" d="M1027.42 47.4355 Q1026.35 46.8105 1025.06 46.5327 Q1023.81 46.2202 1022.28 46.2202 Q1016.87 46.2202 1013.95 49.7619 Q1011.07 53.2688 1011.07 59.866 L1011.07 80.352 L1004.65 80.352 L1004.65 41.4633 L1011.07 41.4633 L1011.07 47.505 Q1013.08 43.9633 1016.31 42.2619 Q1019.54 40.5258 1024.16 40.5258 Q1024.82 40.5258 1025.62 40.63 Q1026.42 40.6994 1027.39 40.873 L1027.42 47.4355 Z" fill="#000000" fill-rule="nonzero" fill-opacity="1" /><path clip-path="url(#clip690)" d="M1055.41 47.4355 Q1054.33 46.8105 1053.05 46.5327 Q1051.8 46.2202 1050.27 46.2202 Q1044.85 46.2202 1041.94 49.7619 Q1039.06 53.2688 1039.06 59.866 L1039.06 80.352 L1032.63 80.352 L1032.63 41.4633 L1039.06 41.4633 L1039.06 47.505 Q1041.07 43.9633 1044.3 42.2619 Q1047.53 40.5258 1052.15 40.5258 Q1052.81 40.5258 1053.6 40.63 Q1054.4 40.6994 1055.37 40.873 L1055.41 47.4355 Z" fill="#000000" fill-rule="nonzero" fill-opacity="1" /><path clip-path="url(#clip690)" d="M1075.62 45.9425 Q1070.48 45.9425 1067.49 49.9702 Q1064.51 53.9633 1064.51 60.9424 Q1064.51 67.9215 1067.46 71.9493 Q1070.44 75.9423 1075.62 75.9423 Q1080.72 75.9423 1083.71 71.9145 Q1086.69 67.8868 1086.69 60.9424 Q1086.69 54.0327 1083.71 50.0049 Q1080.72 45.9425 1075.62 45.9425 M1075.62 40.5258 Q1083.95 40.5258 1088.71 45.9425 Q1093.46 51.3591 1093.46 60.9424 Q1093.46 70.4909 1088.71 75.9423 Q1083.95 81.3589 1075.62 81.3589 Q1067.25 81.3589 1062.49 75.9423 Q1057.77 70.4909 1057.77 60.9424 Q1057.77 51.3591 1062.49 45.9425 Q1067.25 40.5258 1075.62 40.5258 Z" fill="#000000" fill-rule="nonzero" fill-opacity="1" /><path clip-path="url(#clip690)" d="M1146.35 26.3245 L1146.35 31.637 L1140.24 31.637 Q1136.8 31.637 1135.44 33.0259 Q1134.12 34.4147 1134.12 38.0258 L1134.12 41.4633 L1144.65 41.4633 L1144.65 46.4286 L1134.12 46.4286 L1134.12 80.352 L1127.7 80.352 L1127.7 46.4286 L1121.59 46.4286 L1121.59 41.4633 L1127.7 41.4633 L1127.7 38.755 Q1127.7 32.262 1130.72 29.3106 Q1133.74 26.3245 1140.3 26.3245 L1146.35 26.3245 Z" fill="#000000" fill-rule="nonzero" fill-opacity="1" /><path clip-path="url(#clip690)" d="M1166.76 45.9425 Q1161.62 45.9425 1158.64 49.9702 Q1155.65 53.9633 1155.65 60.9424 Q1155.65 67.9215 1158.6 71.9493 Q1161.59 75.9423 1166.76 75.9423 Q1171.87 75.9423 1174.85 71.9145 Q1177.84 67.8868 1177.84 60.9424 Q1177.84 54.0327 1174.85 50.0049 Q1171.87 45.9425 1166.76 45.9425 M1166.76 40.5258 Q1175.1 40.5258 1179.85 45.9425 Q1184.61 51.3591 1184.61 60.9424 Q1184.61 70.4909 1179.85 75.9423 Q1175.1 81.3589 1166.76 81.3589 Q1158.4 81.3589 1153.64 75.9423 Q1148.92 70.4909 1148.92 60.9424 Q1148.92 51.3591 1153.64 45.9425 Q1158.4 40.5258 1166.76 40.5258 Z" fill="#000000" fill-rule="nonzero" fill-opacity="1" /><path clip-path="url(#clip690)" d="M1217.74 47.4355 Q1216.66 46.8105 1215.37 46.5327 Q1214.12 46.2202 1212.6 46.2202 Q1207.18 46.2202 1204.26 49.7619 Q1201.38 53.2688 1201.38 59.866 L1201.38 80.352 L1194.96 80.352 L1194.96 41.4633 L1201.38 41.4633 L1201.38 47.505 Q1203.39 43.9633 1206.62 42.2619 Q1209.85 40.5258 1214.47 40.5258 Q1215.13 40.5258 1215.93 40.63 Q1216.73 40.6994 1217.7 40.873 L1217.74 47.4355 Z" fill="#000000" fill-rule="nonzero" fill-opacity="1" /><path clip-path="url(#clip690)" d="M1230.76 30.4217 L1230.76 41.4633 L1243.92 41.4633 L1243.92 46.4286 L1230.76 46.4286 L1230.76 67.5396 Q1230.76 72.2965 1232.04 73.6506 Q1233.36 75.0048 1237.35 75.0048 L1243.92 75.0048 L1243.92 80.352 L1237.35 80.352 Q1229.96 80.352 1227.14 77.609 Q1224.33 74.8312 1224.33 67.5396 L1224.33 46.4286 L1219.64 46.4286 L1219.64 41.4633 L1224.33 41.4633 L1224.33 30.4217 L1230.76 30.4217 Z" fill="#000000" fill-rule="nonzero" fill-opacity="1" /><path clip-path="url(#clip690)" d="M1285.58 59.3104 L1285.58 62.4354 L1256.21 62.4354 Q1256.62 69.0326 1260.17 72.5048 Q1263.74 75.9423 1270.1 75.9423 Q1273.78 75.9423 1277.21 75.0395 Q1280.69 74.1368 1284.09 72.3312 L1284.09 78.3728 Q1280.65 79.8312 1277.04 80.5951 Q1273.43 81.3589 1269.71 81.3589 Q1260.41 81.3589 1254.96 75.9423 Q1249.54 70.5257 1249.54 61.2896 Q1249.54 51.741 1254.68 46.1508 Q1259.85 40.5258 1268.6 40.5258 Q1276.45 40.5258 1281 45.5952 Q1285.58 50.6299 1285.58 59.3104 M1279.19 57.4355 Q1279.12 52.1924 1276.24 49.0674 Q1273.39 45.9425 1268.67 45.9425 Q1263.33 45.9425 1260.1 48.9633 Q1256.9 51.9841 1256.42 57.4702 L1279.19 57.4355 Z" fill="#000000" fill-rule="nonzero" fill-opacity="1" /><path clip-path="url(#clip690)" d="M1324.85 74.5187 L1324.85 95.1436 L1318.43 95.1436 L1318.43 41.4633 L1324.85 41.4633 L1324.85 47.3661 Q1326.87 43.8939 1329.92 42.2272 Q1333.01 40.5258 1337.28 40.5258 Q1344.37 40.5258 1348.78 46.1508 Q1353.22 51.7758 1353.22 60.9424 Q1353.22 70.109 1348.78 75.734 Q1344.37 81.3589 1337.28 81.3589 Q1333.01 81.3589 1329.92 79.6923 Q1326.87 77.9909 1324.85 74.5187 M1346.59 60.9424 Q1346.59 53.8938 1343.67 49.9008 Q1340.79 45.873 1335.72 45.873 Q1330.65 45.873 1327.73 49.9008 Q1324.85 53.8938 1324.85 60.9424 Q1324.85 67.991 1327.73 72.0187 Q1330.65 76.0117 1335.72 76.0117 Q1340.79 76.0117 1343.67 72.0187 Q1346.59 67.991 1346.59 60.9424 Z" fill="#000000" fill-rule="nonzero" fill-opacity="1" /><path clip-path="url(#clip690)" d="M1387.25 48.0605 L1431.76 48.0605 L1431.76 53.8938 L1387.25 53.8938 L1387.25 48.0605 M1387.25 62.2271 L1431.76 62.2271 L1431.76 68.1298 L1387.25 68.1298 L1387.25 62.2271 Z" fill="#000000" fill-rule="nonzero" fill-opacity="1" /><path clip-path="url(#clip690)" d="M1484.5 33.13 Q1479.09 33.13 1476.34 38.4772 Q1473.64 43.7897 1473.64 54.4841 Q1473.64 65.1437 1476.34 70.4909 Q1479.09 75.8034 1484.5 75.8034 Q1489.96 75.8034 1492.66 70.4909 Q1495.41 65.1437 1495.41 54.4841 Q1495.41 43.7897 1492.66 38.4772 Q1489.96 33.13 1484.5 33.13 M1484.5 27.5745 Q1493.22 27.5745 1497.8 34.4842 Q1502.42 41.3592 1502.42 54.4841 Q1502.42 67.5743 1497.8 74.484 Q1493.22 81.3589 1484.5 81.3589 Q1475.79 81.3589 1471.17 74.484 Q1466.59 67.5743 1466.59 54.4841 Q1466.59 41.3592 1471.17 34.4842 Q1475.79 27.5745 1484.5 27.5745 Z" fill="#000000" fill-rule="nonzero" fill-opacity="1" /><path clip-path="url(#clip690)" d="M1514.75 71.5326 L1522.07 71.5326 L1522.07 80.352 L1514.75 80.352 L1514.75 71.5326 Z" fill="#000000" fill-rule="nonzero" fill-opacity="1" /><path clip-path="url(#clip690)" d="M1537.56 79.2756 L1537.56 72.8868 Q1540.2 74.1368 1542.91 74.7965 Q1545.62 75.4562 1548.22 75.4562 Q1555.16 75.4562 1558.81 70.8034 Q1562.49 66.116 1563.01 56.6021 Q1561 59.5882 1557.91 61.1854 Q1554.82 62.7826 1551.07 62.7826 Q1543.29 62.7826 1538.74 58.0952 Q1534.23 53.373 1534.23 45.2133 Q1534.23 37.2272 1538.95 32.4009 Q1543.67 27.5745 1551.52 27.5745 Q1560.51 27.5745 1565.23 34.4842 Q1569.99 41.3592 1569.99 54.4841 Q1569.99 66.741 1564.16 74.0673 Q1558.36 81.3589 1548.53 81.3589 Q1545.89 81.3589 1543.18 80.8381 Q1540.48 80.3173 1537.56 79.2756 M1551.52 57.2966 Q1556.24 57.2966 1558.98 54.0674 Q1561.76 50.8383 1561.76 45.2133 Q1561.76 39.6231 1558.98 36.3939 Q1556.24 33.13 1551.52 33.13 Q1546.8 33.13 1544.02 36.3939 Q1541.27 39.6231 1541.27 45.2133 Q1541.27 50.8383 1544.02 54.0674 Q1546.8 57.2966 1551.52 57.2966 Z" fill="#000000" fill-rule="nonzero" fill-opacity="1" /><path clip-path="url(#clip690)" d="M1580.82 28.512 L1614.16 28.512 L1614.16 31.4981 L1595.34 80.352 L1588.01 80.352 L1605.72 34.4147 L1580.82 34.4147 L1580.82 28.512 Z" fill="#000000" fill-rule="nonzero" fill-opacity="1" /><path clip-path="url(#clip690)" d="M465.135 106.272 L472.67 106.272 L485.551 125.543 L498.503 106.272 L506.037 106.272 L489.371 131.168 L507.149 158.112 L499.614 158.112 L485.031 136.064 L470.343 158.112 L462.774 158.112 L481.281 130.439 L465.135 106.272 Z" fill="#000000" fill-rule="nonzero" fill-opacity="1" /><path clip-path="url(#clip690)" d="M529.162 134.605 Q527.426 131.619 523.919 131.619 Q520.412 131.619 518.676 134.605 Q516.905 137.591 516.905 143.563 Q516.905 149.57 518.676 152.556 Q520.412 155.543 523.919 155.543 Q527.426 155.543 529.162 152.556 Q530.933 149.57 530.933 143.563 Q530.933 137.591 529.162 134.605 M523.919 128.529 Q529.51 128.529 532.461 132.383 Q535.412 136.237 535.412 143.563 Q535.412 150.925 532.461 154.779 Q529.51 158.633 523.919 158.633 Q518.294 158.633 515.343 154.779 Q512.392 150.925 512.392 143.563 Q512.392 136.237 515.343 132.383 Q518.294 128.529 523.919 128.529 Z" fill="#000000" fill-rule="nonzero" fill-opacity="1" /><path clip-path="url(#clip690)" d="M568.016 125.821 L612.53 125.821 L612.53 131.654 L568.016 131.654 L568.016 125.821 M568.016 139.987 L612.53 139.987 L612.53 145.89 L568.016 145.89 L568.016 139.987 Z" fill="#000000" fill-rule="nonzero" fill-opacity="1" /><path clip-path="url(#clip690)" d="M651.488 152.209 L662.946 152.209 L662.946 112.661 L650.481 115.161 L650.481 108.772 L662.877 106.272 L669.891 106.272 L669.891 152.209 L681.349 152.209 L681.349 158.112 L651.488 158.112 L651.488 152.209 Z" fill="#000000" fill-rule="nonzero" fill-opacity="1" /><path clip-path="url(#clip690)" d="M695.516 149.293 L702.842 149.293 L702.842 158.112 L695.516 158.112 L695.516 149.293 Z" fill="#000000" fill-rule="nonzero" fill-opacity="1" /><path clip-path="url(#clip690)" d="M733.12 110.89 Q727.703 110.89 724.96 116.237 Q722.252 121.55 722.252 132.244 Q722.252 142.904 724.96 148.251 Q727.703 153.563 733.12 153.563 Q738.571 153.563 741.279 148.251 Q744.022 142.904 744.022 132.244 Q744.022 121.55 741.279 116.237 Q738.571 110.89 733.12 110.89 M733.12 105.335 Q741.835 105.335 746.418 112.244 Q751.036 119.119 751.036 132.244 Q751.036 145.334 746.418 152.244 Q741.835 159.119 733.12 159.119 Q724.404 159.119 719.786 152.244 Q715.203 145.334 715.203 132.244 Q715.203 119.119 719.786 112.244 Q724.404 105.335 733.12 105.335 Z" fill="#000000" fill-rule="nonzero" fill-opacity="1" /><path clip-path="url(#clip690)" d="M764.092 149.293 L771.418 149.293 L771.418 155.265 L765.724 166.376 L761.244 166.376 L764.092 155.265 L764.092 149.293 Z" fill="#000000" fill-rule="nonzero" fill-opacity="1" /><path clip-path="url(#clip690)" d="M807.008 172.904 L807.008 119.223 L813.397 119.223 L813.397 143.39 Q813.397 148.425 815.793 150.994 Q818.189 153.563 822.876 153.563 Q828.015 153.563 830.584 150.647 Q833.189 147.73 833.189 141.897 L833.189 119.223 L839.577 119.223 L839.577 149.154 Q839.577 151.237 840.168 152.244 Q840.793 153.216 842.077 153.216 Q842.39 153.216 842.945 153.043 Q843.501 152.834 844.473 152.418 L844.473 157.556 Q843.05 158.355 841.765 158.737 Q840.515 159.119 839.3 159.119 Q836.904 159.119 835.48 157.765 Q834.057 156.411 833.536 153.633 Q831.8 156.376 829.265 157.765 Q826.765 159.119 823.362 159.119 Q819.821 159.119 817.321 157.765 Q814.855 156.411 813.397 153.702 L813.397 172.904 L807.008 172.904 Z" fill="#000000" fill-rule="nonzero" fill-opacity="1" /><path clip-path="url(#clip690)" d="M876.348 125.821 L920.862 125.821 L920.862 131.654 L876.348 131.654 L876.348 125.821 M876.348 139.987 L920.862 139.987 L920.862 145.89 L876.348 145.89 L876.348 139.987 Z" fill="#000000" fill-rule="nonzero" fill-opacity="1" /><path clip-path="url(#clip690)" d="M964.646 152.209 L989.125 152.209 L989.125 158.112 L956.209 158.112 L956.209 152.209 Q960.202 148.077 967.077 141.133 Q973.986 134.154 975.757 132.14 Q979.125 128.355 980.445 125.751 Q981.799 123.112 981.799 120.577 Q981.799 116.446 978.882 113.841 Q976 111.237 971.347 111.237 Q968.049 111.237 964.368 112.383 Q960.723 113.529 956.556 115.855 L956.556 108.772 Q960.792 107.071 964.473 106.203 Q968.153 105.335 971.209 105.335 Q979.264 105.335 984.056 109.362 Q988.847 113.39 988.847 120.126 Q988.847 123.321 987.632 126.202 Q986.452 129.05 983.292 132.939 Q982.424 133.945 977.771 138.772 Q973.118 143.563 964.646 152.209 Z" fill="#000000" fill-rule="nonzero" fill-opacity="1" /><path clip-path="url(#clip690)" d="M1003.85 149.293 L1011.17 149.293 L1011.17 158.112 L1003.85 158.112 L1003.85 149.293 Z" fill="#000000" fill-rule="nonzero" fill-opacity="1" /><path clip-path="url(#clip690)" d="M1041.45 110.89 Q1036.03 110.89 1033.29 116.237 Q1030.58 121.55 1030.58 132.244 Q1030.58 142.904 1033.29 148.251 Q1036.03 153.563 1041.45 153.563 Q1046.9 153.563 1049.61 148.251 Q1052.35 142.904 1052.35 132.244 Q1052.35 121.55 1049.61 116.237 Q1046.9 110.89 1041.45 110.89 M1041.45 105.335 Q1050.17 105.335 1054.75 112.244 Q1059.37 119.119 1059.37 132.244 Q1059.37 145.334 1054.75 152.244 Q1050.17 159.119 1041.45 159.119 Q1032.74 159.119 1028.12 152.244 Q1023.53 145.334 1023.53 132.244 Q1023.53 119.119 1028.12 112.244 Q1032.74 105.335 1041.45 105.335 Z" fill="#000000" fill-rule="nonzero" fill-opacity="1" /><path clip-path="url(#clip690)" d="M1072.42 149.293 L1079.75 149.293 L1079.75 155.265 L1074.06 166.376 L1069.58 166.376 L1072.42 155.265 L1072.42 149.293 Z" fill="#000000" fill-rule="nonzero" fill-opacity="1" /><path clip-path="url(#clip690)" d="M1131.07 124.293 Q1125.79 124.293 1122.94 128.112 Q1119.96 132.105 1119.96 138.702 Q1119.96 145.682 1122.91 149.709 Q1125.9 153.702 1131.07 153.702 Q1136.17 153.702 1139.16 149.675 Q1142.15 145.647 1142.15 138.702 Q1142.15 132.348 1139.16 128.112 Q1136.42 124.293 1131.07 124.293 M1131.07 119.223 L1152.28 119.223 L1152.28 125.612 L1145.13 125.612 Q1148.92 131.029 1148.92 138.702 Q1148.92 148.251 1144.16 153.668 Q1139.4 159.119 1131.07 159.119 Q1122.7 159.119 1117.98 153.668 Q1113.22 148.251 1113.22 138.702 Q1113.22 129.084 1117.98 123.702 Q1121.9 119.223 1131.07 119.223 Z" fill="#000000" fill-rule="nonzero" fill-opacity="1" /><path clip-path="url(#clip690)" d="M1184.51 125.821 L1229.02 125.821 L1229.02 131.654 L1184.51 131.654 L1184.51 125.821 M1184.51 139.987 L1229.02 139.987 L1229.02 145.89 L1184.51 145.89 L1184.51 139.987 Z" fill="#000000" fill-rule="nonzero" fill-opacity="1" /><path clip-path="url(#clip690)" d="M1267.98 152.209 L1279.44 152.209 L1279.44 112.661 L1266.97 115.161 L1266.97 108.772 L1279.37 106.272 L1286.38 106.272 L1286.38 152.209 L1297.84 152.209 L1297.84 158.112 L1267.98 158.112 L1267.98 152.209 Z" fill="#000000" fill-rule="nonzero" fill-opacity="1" /><path clip-path="url(#clip690)" d="M1312.01 149.293 L1319.33 149.293 L1319.33 158.112 L1312.01 158.112 L1312.01 149.293 Z" fill="#000000" fill-rule="nonzero" fill-opacity="1" /><path clip-path="url(#clip690)" d="M1334.68 106.272 L1362.21 106.272 L1362.21 112.175 L1341.1 112.175 L1341.1 124.883 Q1342.63 124.362 1344.16 124.119 Q1345.69 123.841 1347.21 123.841 Q1355.89 123.841 1360.96 128.598 Q1366.03 133.355 1366.03 141.48 Q1366.03 149.848 1360.82 154.501 Q1355.62 159.119 1346.14 159.119 Q1342.87 159.119 1339.47 158.563 Q1336.1 158.008 1332.49 156.897 L1332.49 149.848 Q1335.62 151.55 1338.95 152.383 Q1342.28 153.216 1346 153.216 Q1352.01 153.216 1355.51 150.056 Q1359.02 146.897 1359.02 141.48 Q1359.02 136.064 1355.51 132.904 Q1352.01 129.744 1346 129.744 Q1343.19 129.744 1340.37 130.369 Q1337.6 130.994 1334.68 132.314 L1334.68 106.272 Z" fill="#000000" fill-rule="nonzero" fill-opacity="1" /><path clip-path="url(#clip690)" d="M1380.58 149.293 L1387.91 149.293 L1387.91 155.265 L1382.21 166.376 L1377.73 166.376 L1380.58 155.265 L1380.58 149.293 Z" fill="#000000" fill-rule="nonzero" fill-opacity="1" /><path clip-path="url(#clip690)" d="M1417.25 106.272 L1461.1 106.272 L1461.1 112.175 L1442.7 112.175 L1442.7 158.112 L1435.65 158.112 L1435.65 112.175 L1417.25 112.175 L1417.25 106.272 Z" fill="#000000" fill-rule="nonzero" fill-opacity="1" /><path clip-path="url(#clip690)" d="M1491.03 125.821 L1535.55 125.821 L1535.55 131.654 L1491.03 131.654 L1491.03 125.821 M1491.03 139.987 L1535.55 139.987 L1535.55 145.89 L1491.03 145.89 L1491.03 139.987 Z" fill="#000000" fill-rule="nonzero" fill-opacity="1" /><path clip-path="url(#clip690)" d="M1579.33 152.209 L1603.81 152.209 L1603.81 158.112 L1570.89 158.112 L1570.89 152.209 Q1574.89 148.077 1581.76 141.133 Q1588.67 134.154 1590.44 132.14 Q1593.81 128.355 1595.13 125.751 Q1596.48 123.112 1596.48 120.577 Q1596.48 116.446 1593.57 113.841 Q1590.68 111.237 1586.03 111.237 Q1582.73 111.237 1579.05 112.383 Q1575.41 113.529 1571.24 115.855 L1571.24 108.772 Q1575.48 107.071 1579.16 106.203 Q1582.84 105.335 1585.89 105.335 Q1593.95 105.335 1598.74 109.362 Q1603.53 113.39 1603.53 120.126 Q1603.53 123.321 1602.32 126.202 Q1601.14 129.05 1597.98 132.939 Q1597.11 133.945 1592.46 138.772 Q1587.8 143.563 1579.33 152.209 Z" fill="#000000" fill-rule="nonzero" fill-opacity="1" /><path clip-path="url(#clip690)" d="M1618.53 149.293 L1625.86 149.293 L1625.86 158.112 L1618.53 158.112 L1618.53 149.293 Z" fill="#000000" fill-rule="nonzero" fill-opacity="1" /><path clip-path="url(#clip690)" d="M1656.14 110.89 Q1650.72 110.89 1647.98 116.237 Q1645.27 121.55 1645.27 132.244 Q1645.27 142.904 1647.98 148.251 Q1650.72 153.563 1656.14 153.563 Q1661.59 153.563 1664.3 148.251 Q1667.04 142.904 1667.04 132.244 Q1667.04 121.55 1664.3 116.237 Q1661.59 110.89 1656.14 110.89 M1656.14 105.335 Q1664.85 105.335 1669.43 112.244 Q1674.05 119.119 1674.05 132.244 Q1674.05 145.334 1669.43 152.244 Q1664.85 159.119 1656.14 159.119 Q1647.42 159.119 1642.8 152.244 Q1638.22 145.334 1638.22 132.244 Q1638.22 119.119 1642.8 112.244 Q1647.42 105.335 1656.14 105.335 Z" fill="#000000" fill-rule="nonzero" fill-opacity="1" /><path clip-path="url(#clip690)" d="M1687.11 149.293 L1694.43 149.293 L1694.43 155.265 L1688.74 166.376 L1684.26 166.376 L1687.11 155.265 L1687.11 149.293 Z" fill="#000000" fill-rule="nonzero" fill-opacity="1" /><path clip-path="url(#clip690)" d="M1730.96 106.272 L1741.41 106.272 L1754.64 141.55 L1767.94 106.272 L1778.39 106.272 L1778.39 158.112 L1771.55 158.112 L1771.55 112.591 L1758.18 148.147 L1751.13 148.147 L1737.77 112.591 L1737.77 158.112 L1730.96 158.112 L1730.96 106.272 Z" fill="#000000" fill-rule="nonzero" fill-opacity="1" /><path clip-path="url(#clip690)" d="M1815.47 125.821 L1859.99 125.821 L1859.99 131.654 L1815.47 131.654 L1815.47 125.821 M1815.47 139.987 L1859.99 139.987 L1859.99 145.89 L1815.47 145.89 L1815.47 139.987 Z" fill="#000000" fill-rule="nonzero" fill-opacity="1" /><path clip-path="url(#clip690)" d="M1903.77 152.209 L1928.25 152.209 L1928.25 158.112 L1895.34 158.112 L1895.34 152.209 Q1899.33 148.077 1906.2 141.133 Q1913.11 134.154 1914.88 132.14 Q1918.25 128.355 1919.57 125.751 Q1920.93 123.112 1920.93 120.577 Q1920.93 116.446 1918.01 113.841 Q1915.13 111.237 1910.47 111.237 Q1907.18 111.237 1903.5 112.383 Q1899.85 113.529 1895.68 115.855 L1895.68 108.772 Q1899.92 107.071 1903.6 106.203 Q1907.28 105.335 1910.34 105.335 Q1918.39 105.335 1923.18 109.362 Q1927.97 113.39 1927.97 120.126 Q1927.97 123.321 1926.76 126.202 Q1925.58 129.05 1922.42 132.939 Q1921.55 133.945 1916.9 138.772 Q1912.25 143.563 1903.77 152.209 Z" fill="#000000" fill-rule="nonzero" fill-opacity="1" /><path clip-path="url(#clip690)" d="M1957.97 110.89 Q1952.56 110.89 1949.81 116.237 Q1947.11 121.55 1947.11 132.244 Q1947.11 142.904 1949.81 148.251 Q1952.56 153.563 1957.97 153.563 Q1963.43 153.563 1966.13 148.251 Q1968.88 142.904 1968.88 132.244 Q1968.88 121.55 1966.13 116.237 Q1963.43 110.89 1957.97 110.89 M1957.97 105.335 Q1966.69 105.335 1971.27 112.244 Q1975.89 119.119 1975.89 132.244 Q1975.89 145.334 1971.27 152.244 Q1966.69 159.119 1957.97 159.119 Q1949.26 159.119 1944.64 152.244 Q1940.06 145.334 1940.06 132.244 Q1940.06 119.119 1944.64 112.244 Q1949.26 105.335 1957.97 105.335 Z" fill="#000000" fill-rule="nonzero" fill-opacity="1" /><path clip-path="url(#clip690)" d="M2003.22 110.89 Q1997.8 110.89 1995.06 116.237 Q1992.35 121.55 1992.35 132.244 Q1992.35 142.904 1995.06 148.251 Q1997.8 153.563 2003.22 153.563 Q2008.67 153.563 2011.38 148.251 Q2014.12 142.904 2014.12 132.244 Q2014.12 121.55 2011.38 116.237 Q2008.67 110.89 2003.22 110.89 M2003.22 105.335 Q2011.93 105.335 2016.52 112.244 Q2021.13 119.119 2021.13 132.244 Q2021.13 145.334 2016.52 152.244 Q2011.93 159.119 2003.22 159.119 Q1994.5 159.119 1989.88 152.244 Q1985.3 145.334 1985.3 132.244 Q1985.3 119.119 1989.88 112.244 Q1994.5 105.335 2003.22 105.335 Z" fill="#000000" fill-rule="nonzero" fill-opacity="1" /><path clip-path="url(#clip690)" d="M2048.46 110.89 Q2043.04 110.89 2040.3 116.237 Q2037.59 121.55 2037.59 132.244 Q2037.59 142.904 2040.3 148.251 Q2043.04 153.563 2048.46 153.563 Q2053.91 153.563 2056.62 148.251 Q2059.36 142.904 2059.36 132.244 Q2059.36 121.55 2056.62 116.237 Q2053.91 110.89 2048.46 110.89 M2048.46 105.335 Q2057.18 105.335 2061.76 112.244 Q2066.38 119.119 2066.38 132.244 Q2066.38 145.334 2061.76 152.244 Q2057.18 159.119 2048.46 159.119 Q2039.74 159.119 2035.13 152.244 Q2030.54 145.334 2030.54 132.244 Q2030.54 119.119 2035.13 112.244 Q2039.74 105.335 2048.46 105.335 Z" fill="#000000" fill-rule="nonzero" fill-opacity="1" /><path clip-path="url(#clip690)" d="M2093.7 110.89 Q2088.29 110.89 2085.54 116.237 Q2082.83 121.55 2082.83 132.244 Q2082.83 142.904 2085.54 148.251 Q2088.29 153.563 2093.7 153.563 Q2099.15 153.563 2101.86 148.251 Q2104.61 142.904 2104.61 132.244 Q2104.61 121.55 2101.86 116.237 Q2099.15 110.89 2093.7 110.89 M2093.7 105.335 Q2102.42 105.335 2107 112.244 Q2111.62 119.119 2111.62 132.244 Q2111.62 145.334 2107 152.244 Q2102.42 159.119 2093.7 159.119 Q2084.99 159.119 2080.37 152.244 Q2075.79 145.334 2075.79 132.244 Q2075.79 119.119 2080.37 112.244 Q2084.99 105.335 2093.7 105.335 Z" fill="#000000" fill-rule="nonzero" fill-opacity="1" /><path clip-path="url(#clip692)" d="M2292.44 525.734 L2288.68 536.55 L2277.23 536.79 L2286.36 543.718 L2283.03 554.678 L2292.44 548.134 L2301.85 554.678 L2298.52 543.718 L2307.66 536.79 L2296.2 536.55 L2292.44 525.734 Z" fill="#009af9" fill-rule="evenodd" fill-opacity="1" stroke="none"/>
<path clip-path="url(#clip692)" d="M1886.75 616.632 L1882.99 627.448 L1871.53 627.688 L1880.67 634.616 L1877.34 645.576 L1886.75 639.032 L1896.15 645.576 L1892.83 634.616 L1901.96 627.688 L1890.51 627.448 L1886.75 616.632 Z" fill="#009af9" fill-rule="evenodd" fill-opacity="1" stroke="none"/>
<path clip-path="url(#clip692)" d="M1484 715.83 L1480.24 726.646 L1468.78 726.886 L1477.92 733.814 L1474.59 744.774 L1484 738.23 L1493.41 744.774 L1490.08 733.814 L1499.22 726.886 L1487.76 726.646 L1484 715.83 Z" fill="#009af9" fill-rule="evenodd" fill-opacity="1" stroke="none"/>
<path clip-path="url(#clip692)" d="M1082.71 816.176 L1078.95 826.992 L1067.5 827.232 L1076.63 834.16 L1073.31 845.12 L1082.71 838.576 L1092.12 845.12 L1088.79 834.16 L1097.93 827.232 L1086.47 826.992 L1082.71 816.176 Z" fill="#009af9" fill-rule="evenodd" fill-opacity="1" stroke="none"/>
<path clip-path="url(#clip692)" d="M682.152 922.498 L678.392 933.314 L666.936 933.554 L676.072 940.482 L672.744 951.442 L682.152 944.898 L691.56 951.442 L688.232 940.482 L697.368 933.554 L685.912 933.314 L682.152 922.498 Z" fill="#009af9" fill-rule="evenodd" fill-opacity="1" stroke="none"/>
<path clip-path="url(#clip692)" d="M281.952 1019.84 L278.192 1030.65 L266.736 1030.89 L275.872 1037.82 L272.544 1048.78 L281.952 1042.24 L291.36 1048.78 L288.032 1037.82 L297.168 1030.89 L285.712 1030.65 L281.952 1019.84 Z" fill="#009af9" fill-rule="evenodd" fill-opacity="1" stroke="none"/>
<polyline clip-path="url(#clip692)" style="stroke:#e26f46; stroke-linecap:round; stroke-linejoin:round; stroke-width:4; stroke-opacity:1; fill:none" stroke-dasharray="16, 10" points="2292.44,535.639 1886.75,636.238 1484,736.106 1082.71,835.611 682.152,934.937 281.952,1034.17 "/>
<path clip-path="url(#clip690)" d="M292.674 363.666 L1125.85 363.666 L1125.85 208.146 L292.674 208.146  Z" fill="#eaeaea" fill-rule="evenodd" fill-opacity="1"/>
<polyline clip-path="url(#clip690)" style="stroke:#ffffff; stroke-linecap:round; stroke-linejoin:round; stroke-width:4; stroke-opacity:1; fill:none" points="292.674,363.666 1125.85,363.666 1125.85,208.146 292.674,208.146 292.674,363.666 "/>
<path clip-path="url(#clip690)" d="M387.391 234.386 L381.375 251.692 L363.045 252.076 L377.663 263.161 L372.338 280.697 L387.391 270.226 L402.444 280.697 L397.119 263.161 L411.736 252.076 L393.407 251.692 L387.391 234.386 Z" fill="#009af9" fill-rule="evenodd" fill-opacity="1" stroke="none"/>
<path clip-path="url(#clip690)" d="M506.135 263.239 L506.135 265.322 L486.552 265.322 Q486.829 269.72 489.19 272.035 Q491.575 274.326 495.811 274.326 Q498.264 274.326 500.556 273.725 Q502.871 273.123 505.139 271.919 L505.139 275.947 Q502.848 276.919 500.44 277.428 Q498.033 277.938 495.556 277.938 Q489.352 277.938 485.718 274.326 Q482.107 270.715 482.107 264.558 Q482.107 258.192 485.533 254.465 Q488.982 250.715 494.815 250.715 Q500.047 250.715 503.079 254.095 Q506.135 257.452 506.135 263.239 M501.876 261.989 Q501.829 258.493 499.908 256.41 Q498.01 254.327 494.862 254.327 Q491.297 254.327 489.144 256.34 Q487.015 258.354 486.69 262.012 L501.876 261.989 Z" fill="#000000" fill-rule="nonzero" fill-opacity="1" /><path clip-path="url(#clip690)" d="M528.149 255.322 Q527.431 254.905 526.575 254.72 Q525.741 254.512 524.723 254.512 Q521.112 254.512 519.167 256.873 Q517.246 259.211 517.246 263.609 L517.246 277.266 L512.963 277.266 L512.963 251.34 L517.246 251.34 L517.246 255.368 Q518.588 253.007 520.741 251.873 Q522.894 250.715 525.973 250.715 Q526.412 250.715 526.945 250.785 Q527.477 250.831 528.125 250.947 L528.149 255.322 Z" fill="#000000" fill-rule="nonzero" fill-opacity="1" /><path clip-path="url(#clip690)" d="M546.806 255.322 Q546.088 254.905 545.232 254.72 Q544.399 254.512 543.38 254.512 Q539.769 254.512 537.824 256.873 Q535.903 259.211 535.903 263.609 L535.903 277.266 L531.621 277.266 L531.621 251.34 L535.903 251.34 L535.903 255.368 Q537.246 253.007 539.399 251.873 Q541.551 250.715 544.63 250.715 Q545.07 250.715 545.602 250.785 Q546.135 250.831 546.783 250.947 L546.806 255.322 Z" fill="#000000" fill-rule="nonzero" fill-opacity="1" /><path clip-path="url(#clip690)" d="M560.278 254.327 Q556.852 254.327 554.861 257.012 Q552.871 259.674 552.871 264.327 Q552.871 268.979 554.838 271.664 Q556.829 274.326 560.278 274.326 Q563.681 274.326 565.672 271.641 Q567.662 268.956 567.662 264.327 Q567.662 259.72 565.672 257.035 Q563.681 254.327 560.278 254.327 M560.278 250.715 Q565.834 250.715 569.005 254.327 Q572.176 257.938 572.176 264.327 Q572.176 270.692 569.005 274.326 Q565.834 277.938 560.278 277.938 Q554.699 277.938 551.528 274.326 Q548.38 270.692 548.38 264.327 Q548.38 257.938 551.528 254.327 Q554.699 250.715 560.278 250.715 Z" fill="#000000" fill-rule="nonzero" fill-opacity="1" /><path clip-path="url(#clip690)" d="M607.431 241.248 L607.431 244.79 L603.357 244.79 Q601.065 244.79 600.162 245.716 Q599.282 246.641 599.282 249.049 L599.282 251.34 L606.296 251.34 L606.296 254.651 L599.282 254.651 L599.282 277.266 L595 277.266 L595 254.651 L590.926 254.651 L590.926 251.34 L595 251.34 L595 249.535 Q595 245.206 597.014 243.239 Q599.028 241.248 603.403 241.248 L607.431 241.248 Z" fill="#000000" fill-rule="nonzero" fill-opacity="1" /><path clip-path="url(#clip690)" d="M621.042 254.327 Q617.616 254.327 615.625 257.012 Q613.634 259.674 613.634 264.327 Q613.634 268.979 615.602 271.664 Q617.593 274.326 621.042 274.326 Q624.444 274.326 626.435 271.641 Q628.426 268.956 628.426 264.327 Q628.426 259.72 626.435 257.035 Q624.444 254.327 621.042 254.327 M621.042 250.715 Q626.597 250.715 629.768 254.327 Q632.94 257.938 632.94 264.327 Q632.94 270.692 629.768 274.326 Q626.597 277.938 621.042 277.938 Q615.463 277.938 612.292 274.326 Q609.144 270.692 609.144 264.327 Q609.144 257.938 612.292 254.327 Q615.463 250.715 621.042 250.715 Z" fill="#000000" fill-rule="nonzero" fill-opacity="1" /><path clip-path="url(#clip690)" d="M655.023 255.322 Q654.305 254.905 653.449 254.72 Q652.616 254.512 651.597 254.512 Q647.986 254.512 646.041 256.873 Q644.12 259.211 644.12 263.609 L644.12 277.266 L639.838 277.266 L639.838 251.34 L644.12 251.34 L644.12 255.368 Q645.463 253.007 647.616 251.873 Q649.768 250.715 652.847 250.715 Q653.287 250.715 653.819 250.785 Q654.352 250.831 655 250.947 L655.023 255.322 Z" fill="#000000" fill-rule="nonzero" fill-opacity="1" /><path clip-path="url(#clip690)" d="M663.703 243.979 L663.703 251.34 L672.477 251.34 L672.477 254.651 L663.703 254.651 L663.703 268.725 Q663.703 271.896 664.56 272.799 Q665.44 273.701 668.102 273.701 L672.477 273.701 L672.477 277.266 L668.102 277.266 Q663.171 277.266 661.296 275.438 Q659.421 273.586 659.421 268.725 L659.421 254.651 L656.296 254.651 L656.296 251.34 L659.421 251.34 L659.421 243.979 L663.703 243.979 Z" fill="#000000" fill-rule="nonzero" fill-opacity="1" /><path clip-path="url(#clip690)" d="M700.254 263.239 L700.254 265.322 L680.671 265.322 Q680.949 269.72 683.31 272.035 Q685.694 274.326 689.93 274.326 Q692.384 274.326 694.675 273.725 Q696.99 273.123 699.259 271.919 L699.259 275.947 Q696.967 276.919 694.56 277.428 Q692.152 277.938 689.675 277.938 Q683.472 277.938 679.838 274.326 Q676.226 270.715 676.226 264.558 Q676.226 258.192 679.652 254.465 Q683.101 250.715 688.935 250.715 Q694.166 250.715 697.199 254.095 Q700.254 257.452 700.254 263.239 M695.995 261.989 Q695.949 258.493 694.027 256.41 Q692.129 254.327 688.981 254.327 Q685.416 254.327 683.263 256.34 Q681.134 258.354 680.81 262.012 L695.995 261.989 Z" fill="#000000" fill-rule="nonzero" fill-opacity="1" /><path clip-path="url(#clip690)" d="M726.944 273.331 L743.263 273.331 L743.263 277.266 L721.319 277.266 L721.319 273.331 Q723.981 270.576 728.564 265.947 Q733.171 261.294 734.351 259.952 Q736.597 257.428 737.476 255.692 Q738.379 253.933 738.379 252.243 Q738.379 249.489 736.435 247.753 Q734.513 246.016 731.411 246.016 Q729.212 246.016 726.759 246.78 Q724.328 247.544 721.55 249.095 L721.55 244.373 Q724.374 243.239 726.828 242.66 Q729.282 242.081 731.319 242.081 Q736.689 242.081 739.884 244.766 Q743.078 247.452 743.078 251.942 Q743.078 254.072 742.268 255.993 Q741.481 257.891 739.374 260.484 Q738.796 261.155 735.694 264.373 Q732.592 267.567 726.944 273.331 Z" fill="#000000" fill-rule="nonzero" fill-opacity="1" /><path clip-path="url(#clip690)" d="M763.078 245.785 Q759.467 245.785 757.638 249.35 Q755.833 252.891 755.833 260.021 Q755.833 267.127 757.638 270.692 Q759.467 274.234 763.078 274.234 Q766.712 274.234 768.518 270.692 Q770.346 267.127 770.346 260.021 Q770.346 252.891 768.518 249.35 Q766.712 245.785 763.078 245.785 M763.078 242.081 Q768.888 242.081 771.944 246.688 Q775.022 251.271 775.022 260.021 Q775.022 268.748 771.944 273.354 Q768.888 277.938 763.078 277.938 Q757.268 277.938 754.189 273.354 Q751.134 268.748 751.134 260.021 Q751.134 251.271 754.189 246.688 Q757.268 242.081 763.078 242.081 Z" fill="#000000" fill-rule="nonzero" fill-opacity="1" /><path clip-path="url(#clip690)" d="M793.24 245.785 Q789.629 245.785 787.8 249.35 Q785.994 252.891 785.994 260.021 Q785.994 267.127 787.8 270.692 Q789.629 274.234 793.24 274.234 Q796.874 274.234 798.68 270.692 Q800.508 267.127 800.508 260.021 Q800.508 252.891 798.68 249.35 Q796.874 245.785 793.24 245.785 M793.24 242.081 Q799.05 242.081 802.105 246.688 Q805.184 251.271 805.184 260.021 Q805.184 268.748 802.105 273.354 Q799.05 277.938 793.24 277.938 Q787.43 277.938 784.351 273.354 Q781.295 268.748 781.295 260.021 Q781.295 251.271 784.351 246.688 Q787.43 242.081 793.24 242.081 Z" fill="#000000" fill-rule="nonzero" fill-opacity="1" /><path clip-path="url(#clip690)" d="M823.402 245.785 Q819.791 245.785 817.962 249.35 Q816.156 252.891 816.156 260.021 Q816.156 267.127 817.962 270.692 Q819.791 274.234 823.402 274.234 Q827.036 274.234 828.841 270.692 Q830.67 267.127 830.67 260.021 Q830.67 252.891 828.841 249.35 Q827.036 245.785 823.402 245.785 M823.402 242.081 Q829.212 242.081 832.267 246.688 Q835.346 251.271 835.346 260.021 Q835.346 268.748 832.267 273.354 Q829.212 277.938 823.402 277.938 Q817.591 277.938 814.513 273.354 Q811.457 268.748 811.457 260.021 Q811.457 251.271 814.513 246.688 Q817.591 242.081 823.402 242.081 Z" fill="#000000" fill-rule="nonzero" fill-opacity="1" /><path clip-path="url(#clip690)" d="M853.564 245.785 Q849.952 245.785 848.124 249.35 Q846.318 252.891 846.318 260.021 Q846.318 267.127 848.124 270.692 Q849.952 274.234 853.564 274.234 Q857.198 274.234 859.003 270.692 Q860.832 267.127 860.832 260.021 Q860.832 252.891 859.003 249.35 Q857.198 245.785 853.564 245.785 M853.564 242.081 Q859.374 242.081 862.429 246.688 Q865.508 251.271 865.508 260.021 Q865.508 268.748 862.429 273.354 Q859.374 277.938 853.564 277.938 Q847.753 277.938 844.675 273.354 Q841.619 268.748 841.619 260.021 Q841.619 251.271 844.675 246.688 Q847.753 242.081 853.564 242.081 Z" fill="#000000" fill-rule="nonzero" fill-opacity="1" /><path clip-path="url(#clip690)" d="M899.975 264.234 Q894.813 264.234 892.823 265.414 Q890.832 266.595 890.832 269.442 Q890.832 271.711 892.313 273.053 Q893.818 274.373 896.387 274.373 Q899.929 274.373 902.059 271.873 Q904.211 269.35 904.211 265.183 L904.211 264.234 L899.975 264.234 M908.471 262.475 L908.471 277.266 L904.211 277.266 L904.211 273.331 Q902.753 275.692 900.577 276.826 Q898.401 277.938 895.253 277.938 Q891.272 277.938 888.911 275.715 Q886.573 273.47 886.573 269.72 Q886.573 265.345 889.489 263.123 Q892.429 260.901 898.239 260.901 L904.211 260.901 L904.211 260.484 Q904.211 257.544 902.267 255.947 Q900.346 254.327 896.85 254.327 Q894.628 254.327 892.522 254.859 Q890.415 255.391 888.471 256.456 L888.471 252.521 Q890.809 251.618 893.008 251.178 Q895.207 250.715 897.29 250.715 Q902.915 250.715 905.693 253.632 Q908.471 256.549 908.471 262.475 Z" fill="#000000" fill-rule="nonzero" fill-opacity="1" /><path clip-path="url(#clip690)" d="M937.429 256.317 Q939.026 253.447 941.248 252.081 Q943.47 250.715 946.48 250.715 Q950.531 250.715 952.73 253.563 Q954.929 256.387 954.929 261.618 L954.929 277.266 L950.646 277.266 L950.646 261.757 Q950.646 258.03 949.327 256.225 Q948.007 254.419 945.299 254.419 Q941.989 254.419 940.068 256.618 Q938.146 258.817 938.146 262.614 L938.146 277.266 L933.864 277.266 L933.864 261.757 Q933.864 258.007 932.545 256.225 Q931.225 254.419 928.471 254.419 Q925.207 254.419 923.285 256.641 Q921.364 258.84 921.364 262.614 L921.364 277.266 L917.082 277.266 L917.082 251.34 L921.364 251.34 L921.364 255.368 Q922.822 252.984 924.859 251.85 Q926.896 250.715 929.697 250.715 Q932.521 250.715 934.489 252.151 Q936.48 253.586 937.429 256.317 Z" fill="#000000" fill-rule="nonzero" fill-opacity="1" /><path clip-path="url(#clip690)" d="M973.47 254.327 Q970.044 254.327 968.054 257.012 Q966.063 259.674 966.063 264.327 Q966.063 268.979 968.03 271.664 Q970.021 274.326 973.47 274.326 Q976.873 274.326 978.864 271.641 Q980.854 268.956 980.854 264.327 Q980.854 259.72 978.864 257.035 Q976.873 254.327 973.47 254.327 M973.47 250.715 Q979.026 250.715 982.197 254.327 Q985.368 257.938 985.368 264.327 Q985.368 270.692 982.197 274.326 Q979.026 277.938 973.47 277.938 Q967.892 277.938 964.72 274.326 Q961.572 270.692 961.572 264.327 Q961.572 257.938 964.72 254.327 Q967.892 250.715 973.47 250.715 Z" fill="#000000" fill-rule="nonzero" fill-opacity="1" /><path clip-path="url(#clip690)" d="M1008.96 252.104 L1008.96 256.132 Q1007.15 255.206 1005.21 254.743 Q1003.26 254.28 1001.18 254.28 Q998.007 254.28 996.41 255.253 Q994.836 256.225 994.836 258.169 Q994.836 259.651 995.97 260.507 Q997.104 261.34 1000.53 262.104 L1001.99 262.428 Q1006.53 263.401 1008.42 265.183 Q1010.35 266.942 1010.35 270.114 Q1010.35 273.725 1007.47 275.831 Q1004.63 277.938 999.628 277.938 Q997.544 277.938 995.276 277.521 Q993.03 277.127 990.53 276.317 L990.53 271.919 Q992.891 273.146 995.183 273.771 Q997.475 274.373 999.72 274.373 Q1002.73 274.373 1004.35 273.354 Q1005.97 272.313 1005.97 270.438 Q1005.97 268.702 1004.79 267.776 Q1003.63 266.85 999.674 265.993 L998.192 265.646 Q994.234 264.813 992.475 263.1 Q990.716 261.364 990.716 258.354 Q990.716 254.697 993.308 252.706 Q995.901 250.715 1000.67 250.715 Q1003.03 250.715 1005.11 251.063 Q1007.2 251.41 1008.96 252.104 Z" fill="#000000" fill-rule="nonzero" fill-opacity="1" /><path clip-path="url(#clip690)" d="M1021.34 243.979 L1021.34 251.34 L1030.11 251.34 L1030.11 254.651 L1021.34 254.651 L1021.34 268.725 Q1021.34 271.896 1022.2 272.799 Q1023.08 273.701 1025.74 273.701 L1030.11 273.701 L1030.11 277.266 L1025.74 277.266 Q1020.81 277.266 1018.93 275.438 Q1017.06 273.586 1017.06 268.725 L1017.06 254.651 L1013.93 254.651 L1013.93 251.34 L1017.06 251.34 L1017.06 243.979 L1021.34 243.979 Z" fill="#000000" fill-rule="nonzero" fill-opacity="1" /><path clip-path="url(#clip690)" d="M1050.74 255.322 Q1050.02 254.905 1049.16 254.72 Q1048.33 254.512 1047.31 254.512 Q1043.7 254.512 1041.76 256.873 Q1039.84 259.211 1039.84 263.609 L1039.84 277.266 L1035.55 277.266 L1035.55 251.34 L1039.84 251.34 L1039.84 255.368 Q1041.18 253.007 1043.33 251.873 Q1045.48 250.715 1048.56 250.715 Q1049 250.715 1049.53 250.785 Q1050.07 250.831 1050.72 250.947 L1050.74 255.322 Z" fill="#000000" fill-rule="nonzero" fill-opacity="1" /><path clip-path="url(#clip690)" d="M1066.99 264.234 Q1061.83 264.234 1059.84 265.414 Q1057.84 266.595 1057.84 269.442 Q1057.84 271.711 1059.33 273.053 Q1060.83 274.373 1063.4 274.373 Q1066.94 274.373 1069.07 271.873 Q1071.22 269.35 1071.22 265.183 L1071.22 264.234 L1066.99 264.234 M1075.48 262.475 L1075.48 277.266 L1071.22 277.266 L1071.22 273.331 Q1069.77 275.692 1067.59 276.826 Q1065.41 277.938 1062.27 277.938 Q1058.28 277.938 1055.92 275.715 Q1053.59 273.47 1053.59 269.72 Q1053.59 265.345 1056.5 263.123 Q1059.44 260.901 1065.25 260.901 L1071.22 260.901 L1071.22 260.484 Q1071.22 257.544 1069.28 255.947 Q1067.36 254.327 1063.86 254.327 Q1061.64 254.327 1059.53 254.859 Q1057.43 255.391 1055.48 256.456 L1055.48 252.521 Q1057.82 251.618 1060.02 251.178 Q1062.22 250.715 1064.3 250.715 Q1069.93 250.715 1072.71 253.632 Q1075.48 256.549 1075.48 262.475 Z" fill="#000000" fill-rule="nonzero" fill-opacity="1" /><path clip-path="url(#clip690)" d="M1100.78 252.104 L1100.78 256.132 Q1098.98 255.206 1097.03 254.743 Q1095.09 254.28 1093.01 254.28 Q1089.84 254.28 1088.24 255.253 Q1086.66 256.225 1086.66 258.169 Q1086.66 259.651 1087.8 260.507 Q1088.93 261.34 1092.36 262.104 L1093.82 262.428 Q1098.35 263.401 1100.25 265.183 Q1102.17 266.942 1102.17 270.114 Q1102.17 273.725 1099.3 275.831 Q1096.46 277.938 1091.46 277.938 Q1089.37 277.938 1087.1 277.521 Q1084.86 277.127 1082.36 276.317 L1082.36 271.919 Q1084.72 273.146 1087.01 273.771 Q1089.3 274.373 1091.55 274.373 Q1094.56 274.373 1096.18 273.354 Q1097.8 272.313 1097.8 270.438 Q1097.8 268.702 1096.62 267.776 Q1095.46 266.85 1091.5 265.993 L1090.02 265.646 Q1086.06 264.813 1084.3 263.1 Q1082.54 261.364 1082.54 258.354 Q1082.54 254.697 1085.14 252.706 Q1087.73 250.715 1092.5 250.715 Q1094.86 250.715 1096.94 251.063 Q1099.03 251.41 1100.78 252.104 Z" fill="#000000" fill-rule="nonzero" fill-opacity="1" /><polyline clip-path="url(#clip690)" style="stroke:#e26f46; stroke-linecap:round; stroke-linejoin:round; stroke-width:4; stroke-opacity:1; fill:none" stroke-dasharray="16, 10" points="316.353,311.826 458.428,311.826 "/>
<path clip-path="url(#clip690)" d="M495.51 316.074 Q490.348 316.074 488.357 317.254 Q486.366 318.435 486.366 321.282 Q486.366 323.551 487.848 324.893 Q489.352 326.213 491.922 326.213 Q495.464 326.213 497.593 323.713 Q499.746 321.19 499.746 317.023 L499.746 316.074 L495.51 316.074 M504.005 314.315 L504.005 329.106 L499.746 329.106 L499.746 325.171 Q498.288 327.532 496.112 328.666 Q493.936 329.778 490.788 329.778 Q486.806 329.778 484.445 327.555 Q482.107 325.31 482.107 321.56 Q482.107 317.185 485.024 314.963 Q487.964 312.741 493.774 312.741 L499.746 312.741 L499.746 312.324 Q499.746 309.384 497.802 307.787 Q495.88 306.167 492.385 306.167 Q490.163 306.167 488.056 306.699 Q485.95 307.231 484.005 308.296 L484.005 304.361 Q486.343 303.458 488.542 303.018 Q490.741 302.555 492.825 302.555 Q498.45 302.555 501.227 305.472 Q504.005 308.389 504.005 314.315 Z" fill="#000000" fill-rule="nonzero" fill-opacity="1" /><path clip-path="url(#clip690)" d="M512.778 303.18 L517.038 303.18 L517.038 329.569 Q517.038 334.523 515.139 336.745 Q513.264 338.967 509.075 338.967 L507.454 338.967 L507.454 335.356 L508.589 335.356 Q511.019 335.356 511.899 334.222 Q512.778 333.111 512.778 329.569 L512.778 303.18 M512.778 293.088 L517.038 293.088 L517.038 298.481 L512.778 298.481 L512.778 293.088 Z" fill="#000000" fill-rule="nonzero" fill-opacity="1" /><path clip-path="url(#clip690)" d="M525.51 318.875 L525.51 303.18 L529.769 303.18 L529.769 318.713 Q529.769 322.393 531.204 324.245 Q532.639 326.074 535.51 326.074 Q538.959 326.074 540.949 323.875 Q542.963 321.676 542.963 317.879 L542.963 303.18 L547.223 303.18 L547.223 329.106 L542.963 329.106 L542.963 325.125 Q541.412 327.486 539.352 328.643 Q537.315 329.778 534.607 329.778 Q530.139 329.778 527.825 327 Q525.51 324.222 525.51 318.875 M536.227 302.555 L536.227 302.555 Z" fill="#000000" fill-rule="nonzero" fill-opacity="1" /><path clip-path="url(#clip690)" d="M572.523 303.944 L572.523 307.972 Q570.718 307.046 568.773 306.583 Q566.829 306.12 564.746 306.12 Q561.574 306.12 559.977 307.093 Q558.403 308.065 558.403 310.009 Q558.403 311.491 559.537 312.347 Q560.672 313.18 564.097 313.944 L565.556 314.268 Q570.093 315.241 571.991 317.023 Q573.912 318.782 573.912 321.954 Q573.912 325.565 571.042 327.671 Q568.195 329.778 563.195 329.778 Q561.111 329.778 558.843 329.361 Q556.598 328.967 554.098 328.157 L554.098 323.759 Q556.459 324.986 558.75 325.611 Q561.042 326.213 563.287 326.213 Q566.297 326.213 567.917 325.194 Q569.537 324.153 569.537 322.278 Q569.537 320.542 568.357 319.616 Q567.199 318.69 563.241 317.833 L561.76 317.486 Q557.801 316.653 556.042 314.94 Q554.283 313.204 554.283 310.194 Q554.283 306.537 556.875 304.546 Q559.468 302.555 564.236 302.555 Q566.597 302.555 568.681 302.903 Q570.764 303.25 572.523 303.944 Z" fill="#000000" fill-rule="nonzero" fill-opacity="1" /><path clip-path="url(#clip690)" d="M584.908 295.819 L584.908 303.18 L593.681 303.18 L593.681 306.491 L584.908 306.491 L584.908 320.565 Q584.908 323.736 585.764 324.639 Q586.644 325.541 589.306 325.541 L593.681 325.541 L593.681 329.106 L589.306 329.106 Q584.375 329.106 582.5 327.278 Q580.625 325.426 580.625 320.565 L580.625 306.491 L577.5 306.491 L577.5 303.18 L580.625 303.18 L580.625 295.819 L584.908 295.819 Z" fill="#000000" fill-rule="nonzero" fill-opacity="1" /><path clip-path="url(#clip690)" d="M621.458 315.079 L621.458 317.162 L601.875 317.162 Q602.153 321.56 604.514 323.875 Q606.898 326.166 611.134 326.166 Q613.588 326.166 615.88 325.565 Q618.194 324.963 620.463 323.759 L620.463 327.787 Q618.171 328.759 615.764 329.268 Q613.356 329.778 610.88 329.778 Q604.676 329.778 601.042 326.166 Q597.431 322.555 597.431 316.398 Q597.431 310.032 600.857 306.305 Q604.306 302.555 610.139 302.555 Q615.37 302.555 618.403 305.935 Q621.458 309.292 621.458 315.079 M617.199 313.829 Q617.153 310.333 615.231 308.25 Q613.333 306.167 610.185 306.167 Q606.62 306.167 604.468 308.18 Q602.338 310.194 602.014 313.852 L617.199 313.829 Z" fill="#000000" fill-rule="nonzero" fill-opacity="1" /><path clip-path="url(#clip690)" d="M643.518 293.088 L647.778 293.088 L647.778 329.106 L643.518 329.106 L643.518 293.088 Z" fill="#000000" fill-rule="nonzero" fill-opacity="1" /><path clip-path="url(#clip690)" d="M656.69 303.18 L660.949 303.18 L660.949 329.106 L656.69 329.106 L656.69 303.18 M656.69 293.088 L660.949 293.088 L660.949 298.481 L656.69 298.481 L656.69 293.088 Z" fill="#000000" fill-rule="nonzero" fill-opacity="1" /><path clip-path="url(#clip690)" d="M691.412 313.458 L691.412 329.106 L687.152 329.106 L687.152 313.597 Q687.152 309.917 685.717 308.088 Q684.282 306.259 681.412 306.259 Q677.963 306.259 675.972 308.458 Q673.981 310.657 673.981 314.454 L673.981 329.106 L669.699 329.106 L669.699 303.18 L673.981 303.18 L673.981 307.208 Q675.509 304.87 677.569 303.713 Q679.652 302.555 682.361 302.555 Q686.828 302.555 689.12 305.333 Q691.412 308.088 691.412 313.458 Z" fill="#000000" fill-rule="nonzero" fill-opacity="1" /><path clip-path="url(#clip690)" d="M722.083 315.079 L722.083 317.162 L702.5 317.162 Q702.777 321.56 705.138 323.875 Q707.523 326.166 711.759 326.166 Q714.212 326.166 716.504 325.565 Q718.819 324.963 721.087 323.759 L721.087 327.787 Q718.796 328.759 716.388 329.268 Q713.981 329.778 711.504 329.778 Q705.3 329.778 701.666 326.166 Q698.055 322.555 698.055 316.398 Q698.055 310.032 701.481 306.305 Q704.93 302.555 710.763 302.555 Q715.995 302.555 719.027 305.935 Q722.083 309.292 722.083 315.079 M717.823 313.829 Q717.777 310.333 715.856 308.25 Q713.958 306.167 710.81 306.167 Q707.245 306.167 705.092 308.18 Q702.962 310.194 702.638 313.852 L717.823 313.829 Z" fill="#000000" fill-rule="nonzero" fill-opacity="1" /><path clip-path="url(#clip690)" d="M740.856 316.074 Q735.694 316.074 733.703 317.254 Q731.712 318.435 731.712 321.282 Q731.712 323.551 733.194 324.893 Q734.698 326.213 737.268 326.213 Q740.809 326.213 742.939 323.713 Q745.092 321.19 745.092 317.023 L745.092 316.074 L740.856 316.074 M749.351 314.315 L749.351 329.106 L745.092 329.106 L745.092 325.171 Q743.634 327.532 741.458 328.666 Q739.282 329.778 736.134 329.778 Q732.152 329.778 729.791 327.555 Q727.453 325.31 727.453 321.56 Q727.453 317.185 730.37 314.963 Q733.31 312.741 739.12 312.741 L745.092 312.741 L745.092 312.324 Q745.092 309.384 743.147 307.787 Q741.226 306.167 737.731 306.167 Q735.509 306.167 733.402 306.699 Q731.296 307.231 729.351 308.296 L729.351 304.361 Q731.689 303.458 733.888 303.018 Q736.087 302.555 738.171 302.555 Q743.796 302.555 746.573 305.472 Q749.351 308.389 749.351 314.315 Z" fill="#000000" fill-rule="nonzero" fill-opacity="1" /><path clip-path="url(#clip690)" d="M773.147 307.162 Q772.43 306.745 771.573 306.56 Q770.74 306.352 769.721 306.352 Q766.11 306.352 764.166 308.713 Q762.245 311.051 762.245 315.449 L762.245 329.106 L757.962 329.106 L757.962 303.18 L762.245 303.18 L762.245 307.208 Q763.587 304.847 765.74 303.713 Q767.893 302.555 770.971 302.555 Q771.411 302.555 771.944 302.625 Q772.476 302.671 773.124 302.787 L773.147 307.162 Z" fill="#000000" fill-rule="nonzero" fill-opacity="1" /></svg>
