<?xml version="1.0" encoding="utf-8"?>
<svg xmlns="http://www.w3.org/2000/svg" xmlns:xlink="http://www.w3.org/1999/xlink" width="600" height="400" viewBox="0 0 2400 1600">
<defs>
  <clipPath id="clip460">
    <rect x="0" y="0" width="2400" height="1600"/>
  </clipPath>
</defs>
<path clip-path="url(#clip460)" d="
M0 1600 L2400 1600 L2400 0 L0 0  Z
  " fill="#ffffff" fill-rule="evenodd" fill-opacity="1"/>
<defs>
  <clipPath id="clip461">
    <rect x="480" y="0" width="1681" height="1600"/>
  </clipPath>
</defs>
<path clip-path="url(#clip460)" d="
M221.637 1410.9 L2352.76 1410.9 L2352.76 166.672 L221.637 166.672  Z
  " fill="#eaeaea" fill-rule="evenodd" fill-opacity="1"/>
<defs>
  <clipPath id="clip462">
    <rect x="221" y="166" width="2132" height="1245"/>
  </clipPath>
</defs>
<polyline clip-path="url(#clip462)" style="stroke:#ffffff; stroke-linecap:butt; stroke-linejoin:round; stroke-width:4; stroke-opacity:1; fill:none" points="
  816.99,1410.9 816.99,166.672 
  "/>
<polyline clip-path="url(#clip462)" style="stroke:#ffffff; stroke-linecap:butt; stroke-linejoin:round; stroke-width:4; stroke-opacity:1; fill:none" points="
  1481.11,1410.9 1481.11,166.672 
  "/>
<polyline clip-path="url(#clip462)" style="stroke:#ffffff; stroke-linecap:butt; stroke-linejoin:round; stroke-width:4; stroke-opacity:1; fill:none" points="
  2145.23,1410.9 2145.23,166.672 
  "/>
<polyline clip-path="url(#clip460)" style="stroke:#ffffff; stroke-linecap:butt; stroke-linejoin:round; stroke-width:4; stroke-opacity:1; fill:none" points="
  221.637,1410.9 2352.76,1410.9 
  "/>
<polyline clip-path="url(#clip460)" style="stroke:#333333; stroke-linecap:butt; stroke-linejoin:round; stroke-width:4; stroke-opacity:1; fill:none" points="
  816.99,1410.9 816.99,1429.79 
  "/>
<polyline clip-path="url(#clip460)" style="stroke:#333333; stroke-linecap:butt; stroke-linejoin:round; stroke-width:4; stroke-opacity:1; fill:none" points="
  1481.11,1410.9 1481.11,1429.79 
  "/>
<polyline clip-path="url(#clip460)" style="stroke:#333333; stroke-linecap:butt; stroke-linejoin:round; stroke-width:4; stroke-opacity:1; fill:none" points="
  2145.23,1410.9 2145.23,1429.79 
  "/>
<path clip-path="url(#clip460)" d="M748.636 1494.62 L756.275 1494.62 L756.275 1468.26 L747.965 1469.92 L747.965 1465.66 L756.229 1464 L760.905 1464 L760.905 1494.62 L768.544 1494.62 L768.544 1498.56 L748.636 1498.56 L748.636 1494.62 Z" fill="#4c4c4c" fill-rule="evenodd" fill-opacity="1" /><path clip-path="url(#clip460)" d="M787.988 1467.08 Q784.377 1467.08 782.548 1470.64 Q780.743 1474.18 780.743 1481.31 Q780.743 1488.42 782.548 1491.98 Q784.377 1495.52 787.988 1495.52 Q791.622 1495.52 793.428 1491.98 Q795.256 1488.42 795.256 1481.31 Q795.256 1474.18 793.428 1470.64 Q791.622 1467.08 787.988 1467.08 M787.988 1463.37 Q793.798 1463.37 796.854 1467.98 Q799.932 1472.56 799.932 1481.31 Q799.932 1490.04 796.854 1494.64 Q793.798 1499.23 787.988 1499.23 Q782.178 1499.23 779.099 1494.64 Q776.044 1490.04 776.044 1481.31 Q776.044 1472.56 779.099 1467.98 Q782.178 1463.37 787.988 1463.37 Z" fill="#4c4c4c" fill-rule="evenodd" fill-opacity="1" /><path clip-path="url(#clip460)" d="M799.932 1457.47 L824.044 1457.47 L824.044 1460.67 L799.932 1460.67 L799.932 1457.47 Z" fill="#4c4c4c" fill-rule="evenodd" fill-opacity="1" /><path clip-path="url(#clip460)" d="M835.517 1467.95 L848.776 1467.95 L848.776 1471.15 L830.946 1471.15 L830.946 1467.95 Q833.109 1465.71 836.833 1461.95 Q840.576 1458.17 841.535 1457.08 Q843.359 1455.03 844.074 1453.62 Q844.808 1452.19 844.808 1450.82 Q844.808 1448.58 843.228 1447.17 Q841.667 1445.76 839.147 1445.76 Q837.36 1445.76 835.366 1446.38 Q833.391 1447 831.134 1448.26 L831.134 1444.42 Q833.429 1443.5 835.423 1443.03 Q837.416 1442.56 839.071 1442.56 Q843.435 1442.56 846.03 1444.74 Q848.626 1446.92 848.626 1450.57 Q848.626 1452.3 847.967 1453.86 Q847.328 1455.4 845.616 1457.51 Q845.146 1458.06 842.626 1460.67 Q840.106 1463.27 835.517 1467.95 Z" fill="#4c4c4c" fill-rule="evenodd" fill-opacity="1" /><path clip-path="url(#clip460)" d="M856.751 1466.37 L860.719 1466.37 L860.719 1471.15 L856.751 1471.15 L856.751 1466.37 Z" fill="#4c4c4c" fill-rule="evenodd" fill-opacity="1" /><path clip-path="url(#clip460)" d="M869.032 1443.07 L883.947 1443.07 L883.947 1446.26 L872.512 1446.26 L872.512 1453.15 Q873.339 1452.87 874.167 1452.73 Q874.994 1452.58 875.822 1452.58 Q880.524 1452.58 883.27 1455.16 Q886.015 1457.74 886.015 1462.14 Q886.015 1466.67 883.194 1469.19 Q880.373 1471.69 875.239 1471.69 Q873.471 1471.69 871.628 1471.39 Q869.803 1471.09 867.847 1470.49 L867.847 1466.67 Q869.54 1467.59 871.345 1468.04 Q873.151 1468.49 875.163 1468.49 Q878.417 1468.49 880.317 1466.78 Q882.216 1465.07 882.216 1462.14 Q882.216 1459.2 880.317 1457.49 Q878.417 1455.78 875.163 1455.78 Q873.64 1455.78 872.117 1456.12 Q870.612 1456.46 869.032 1457.17 L869.032 1443.07 Z" fill="#4c4c4c" fill-rule="evenodd" fill-opacity="1" /><path clip-path="url(#clip460)" d="M1412.35 1494.62 L1419.99 1494.62 L1419.99 1468.26 L1411.68 1469.92 L1411.68 1465.66 L1419.94 1464 L1424.62 1464 L1424.62 1494.62 L1432.26 1494.62 L1432.26 1498.56 L1412.35 1498.56 L1412.35 1494.62 Z" fill="#4c4c4c" fill-rule="evenodd" fill-opacity="1" /><path clip-path="url(#clip460)" d="M1451.7 1467.08 Q1448.09 1467.08 1446.26 1470.64 Q1444.46 1474.18 1444.46 1481.31 Q1444.46 1488.42 1446.26 1491.98 Q1448.09 1495.52 1451.7 1495.52 Q1455.34 1495.52 1457.14 1491.98 Q1458.97 1488.42 1458.97 1481.31 Q1458.97 1474.18 1457.14 1470.64 Q1455.34 1467.08 1451.7 1467.08 M1451.7 1463.37 Q1457.51 1463.37 1460.57 1467.98 Q1463.65 1472.56 1463.65 1481.31 Q1463.65 1490.04 1460.57 1494.64 Q1457.51 1499.23 1451.7 1499.23 Q1445.89 1499.23 1442.81 1494.64 Q1439.76 1490.04 1439.76 1481.31 Q1439.76 1472.56 1442.81 1467.98 Q1445.89 1463.37 1451.7 1463.37 Z" fill="#4c4c4c" fill-rule="evenodd" fill-opacity="1" /><path clip-path="url(#clip460)" d="M1463.65 1457.47 L1487.76 1457.47 L1487.76 1460.67 L1463.65 1460.67 L1463.65 1457.47 Z" fill="#4c4c4c" fill-rule="evenodd" fill-opacity="1" /><path clip-path="url(#clip460)" d="M1499.23 1467.95 L1512.49 1467.95 L1512.49 1471.15 L1494.66 1471.15 L1494.66 1467.95 Q1496.82 1465.71 1500.55 1461.95 Q1504.29 1458.17 1505.25 1457.08 Q1507.07 1455.03 1507.79 1453.62 Q1508.52 1452.19 1508.52 1450.82 Q1508.52 1448.58 1506.94 1447.17 Q1505.38 1445.76 1502.86 1445.76 Q1501.07 1445.76 1499.08 1446.38 Q1497.11 1447 1494.85 1448.26 L1494.85 1444.42 Q1497.14 1443.5 1499.14 1443.03 Q1501.13 1442.56 1502.79 1442.56 Q1507.15 1442.56 1509.74 1444.74 Q1512.34 1446.92 1512.34 1450.57 Q1512.34 1452.3 1511.68 1453.86 Q1511.04 1455.4 1509.33 1457.51 Q1508.86 1458.06 1506.34 1460.67 Q1503.82 1463.27 1499.23 1467.95 Z" fill="#4c4c4c" fill-rule="evenodd" fill-opacity="1" /><path clip-path="url(#clip460)" d="M1520.46 1466.37 L1524.43 1466.37 L1524.43 1471.15 L1520.46 1471.15 L1520.46 1466.37 Z" fill="#4c4c4c" fill-rule="evenodd" fill-opacity="1" /><path clip-path="url(#clip460)" d="M1540.83 1445.57 Q1537.9 1445.57 1536.41 1448.46 Q1534.95 1451.34 1534.95 1457.13 Q1534.95 1462.91 1536.41 1465.8 Q1537.9 1468.68 1540.83 1468.68 Q1543.79 1468.68 1545.25 1465.8 Q1546.74 1462.91 1546.74 1457.13 Q1546.74 1451.34 1545.25 1448.46 Q1543.79 1445.57 1540.83 1445.57 M1540.83 1442.56 Q1545.55 1442.56 1548.04 1446.3 Q1550.54 1450.03 1550.54 1457.13 Q1550.54 1464.22 1548.04 1467.97 Q1545.55 1471.69 1540.83 1471.69 Q1536.11 1471.69 1533.61 1467.97 Q1531.13 1464.22 1531.13 1457.13 Q1531.13 1450.03 1533.61 1446.3 Q1536.11 1442.56 1540.83 1442.56 Z" fill="#4c4c4c" fill-rule="evenodd" fill-opacity="1" /><path clip-path="url(#clip460)" d="M2076.87 1494.62 L2084.51 1494.62 L2084.51 1468.26 L2076.2 1469.92 L2076.2 1465.66 L2084.47 1464 L2089.14 1464 L2089.14 1494.62 L2096.78 1494.62 L2096.78 1498.56 L2076.87 1498.56 L2076.87 1494.62 Z" fill="#4c4c4c" fill-rule="evenodd" fill-opacity="1" /><path clip-path="url(#clip460)" d="M2116.23 1467.08 Q2112.61 1467.08 2110.79 1470.64 Q2108.98 1474.18 2108.98 1481.31 Q2108.98 1488.42 2110.79 1491.98 Q2112.61 1495.52 2116.23 1495.52 Q2119.86 1495.52 2121.66 1491.98 Q2123.49 1488.42 2123.49 1481.31 Q2123.49 1474.18 2121.66 1470.64 Q2119.86 1467.08 2116.23 1467.08 M2116.23 1463.37 Q2122.04 1463.37 2125.09 1467.98 Q2128.17 1472.56 2128.17 1481.31 Q2128.17 1490.04 2125.09 1494.64 Q2122.04 1499.23 2116.23 1499.23 Q2110.42 1499.23 2107.34 1494.64 Q2104.28 1490.04 2104.28 1481.31 Q2104.28 1472.56 2107.34 1467.98 Q2110.42 1463.37 2116.23 1463.37 Z" fill="#4c4c4c" fill-rule="evenodd" fill-opacity="1" /><path clip-path="url(#clip460)" d="M2128.17 1457.47 L2152.28 1457.47 L2152.28 1460.67 L2128.17 1460.67 L2128.17 1457.47 Z" fill="#4c4c4c" fill-rule="evenodd" fill-opacity="1" /><path clip-path="url(#clip460)" d="M2161.14 1467.95 L2167.35 1467.95 L2167.35 1446.53 L2160.59 1447.88 L2160.59 1444.42 L2167.31 1443.07 L2171.11 1443.07 L2171.11 1467.95 L2177.31 1467.95 L2177.31 1471.15 L2161.14 1471.15 L2161.14 1467.95 Z" fill="#4c4c4c" fill-rule="evenodd" fill-opacity="1" /><path clip-path="url(#clip460)" d="M2184.99 1466.37 L2188.96 1466.37 L2188.96 1471.15 L2184.99 1471.15 L2184.99 1466.37 Z" fill="#4c4c4c" fill-rule="evenodd" fill-opacity="1" /><path clip-path="url(#clip460)" d="M2197.27 1443.07 L2212.18 1443.07 L2212.18 1446.26 L2200.75 1446.26 L2200.75 1453.15 Q2201.58 1452.87 2202.4 1452.73 Q2203.23 1452.58 2204.06 1452.58 Q2208.76 1452.58 2211.51 1455.16 Q2214.25 1457.74 2214.25 1462.14 Q2214.25 1466.67 2211.43 1469.19 Q2208.61 1471.69 2203.48 1471.69 Q2201.71 1471.69 2199.86 1471.39 Q2198.04 1471.09 2196.08 1470.49 L2196.08 1466.67 Q2197.78 1467.59 2199.58 1468.04 Q2201.39 1468.49 2203.4 1468.49 Q2206.65 1468.49 2208.55 1466.78 Q2210.45 1465.07 2210.45 1462.14 Q2210.45 1459.2 2208.55 1457.49 Q2206.65 1455.78 2203.4 1455.78 Q2201.88 1455.78 2200.35 1456.12 Q2198.85 1456.46 2197.27 1457.17 L2197.27 1443.07 Z" fill="#4c4c4c" fill-rule="evenodd" fill-opacity="1" /><path clip-path="url(#clip460)" d="M1274.93 1533 L1261.88 1568.84 L1288.01 1568.84 L1274.93 1533 M1253.16 1574.19 L1271.3 1526.67 L1278.59 1526.67 L1296.7 1574.19 L1253.16 1574.19 Z" fill="#000000" fill-rule="evenodd" fill-opacity="1" /><path clip-path="url(#clip460)" d="M1309.17 1528.42 L1309.17 1538.54 L1321.24 1538.54 L1321.24 1543.09 L1309.17 1543.09 L1309.17 1562.44 Q1309.17 1566.8 1310.35 1568.04 Q1311.56 1569.28 1315.22 1569.28 L1321.24 1569.28 L1321.24 1574.19 L1315.22 1574.19 Q1308.44 1574.19 1305.86 1571.67 Q1303.29 1569.12 1303.29 1562.44 L1303.29 1543.09 L1298.99 1543.09 L1298.99 1538.54 L1303.29 1538.54 L1303.29 1528.42 L1309.17 1528.42 Z" fill="#000000" fill-rule="evenodd" fill-opacity="1" /><polyline clip-path="url(#clip462)" style="stroke:#ffffff; stroke-linecap:butt; stroke-linejoin:round; stroke-width:4; stroke-opacity:1; fill:none" points="
  221.637,886.715 2352.76,886.715 
  "/>
<polyline clip-path="url(#clip462)" style="stroke:#ffffff; stroke-linecap:butt; stroke-linejoin:round; stroke-width:4; stroke-opacity:1; fill:none" points="
  221.637,208.452 2352.76,208.452 
  "/>
<polyline clip-path="url(#clip462)" style="stroke:#ffffff; stroke-linecap:butt; stroke-linejoin:round; stroke-width:2; stroke-opacity:1; fill:none" points="
  221.637,974.766 2352.76,974.766 
  "/>
<polyline clip-path="url(#clip462)" style="stroke:#ffffff; stroke-linecap:butt; stroke-linejoin:round; stroke-width:2; stroke-opacity:1; fill:none" points="
  221.637,886.715 2352.76,886.715 
  "/>
<polyline clip-path="url(#clip462)" style="stroke:#ffffff; stroke-linecap:butt; stroke-linejoin:round; stroke-width:2; stroke-opacity:1; fill:none" points="
  221.637,886.715 2352.76,886.715 
  "/>
<polyline clip-path="url(#clip462)" style="stroke:#ffffff; stroke-linecap:butt; stroke-linejoin:round; stroke-width:2; stroke-opacity:1; fill:none" points="
  221.637,635.635 2352.76,635.635 
  "/>
<polyline clip-path="url(#clip462)" style="stroke:#ffffff; stroke-linecap:butt; stroke-linejoin:round; stroke-width:2; stroke-opacity:1; fill:none" points="
  221.637,635.635 2352.76,635.635 
  "/>
<polyline clip-path="url(#clip462)" style="stroke:#ffffff; stroke-linecap:butt; stroke-linejoin:round; stroke-width:2; stroke-opacity:1; fill:none" points="
  221.637,547.584 2352.76,547.584 
  "/>
<polyline clip-path="url(#clip462)" style="stroke:#ffffff; stroke-linecap:butt; stroke-linejoin:round; stroke-width:2; stroke-opacity:1; fill:none" points="
  221.637,547.584 2352.76,547.584 
  "/>
<polyline clip-path="url(#clip462)" style="stroke:#ffffff; stroke-linecap:butt; stroke-linejoin:round; stroke-width:2; stroke-opacity:1; fill:none" points="
  221.637,296.503 2352.76,296.503 
  "/>
<polyline clip-path="url(#clip460)" style="stroke:#ffffff; stroke-linecap:butt; stroke-linejoin:round; stroke-width:4; stroke-opacity:1; fill:none" points="
  221.637,1410.9 221.637,166.672 
  "/>
<polyline clip-path="url(#clip460)" style="stroke:#333333; stroke-linecap:butt; stroke-linejoin:round; stroke-width:4; stroke-opacity:1; fill:none" points="
  221.637,886.715 202.739,886.715 
  "/>
<polyline clip-path="url(#clip460)" style="stroke:#333333; stroke-linecap:butt; stroke-linejoin:round; stroke-width:4; stroke-opacity:1; fill:none" points="
  221.637,208.452 202.739,208.452 
  "/>
<polyline clip-path="url(#clip460)" style="stroke:#333333; stroke-linecap:butt; stroke-linejoin:round; stroke-width:4; stroke-opacity:1; fill:none" points="
  221.637,974.766 212.188,974.766 
  "/>
<polyline clip-path="url(#clip460)" style="stroke:#333333; stroke-linecap:butt; stroke-linejoin:round; stroke-width:4; stroke-opacity:1; fill:none" points="
  221.637,886.715 212.188,886.715 
  "/>
<polyline clip-path="url(#clip460)" style="stroke:#333333; stroke-linecap:butt; stroke-linejoin:round; stroke-width:4; stroke-opacity:1; fill:none" points="
  221.637,886.715 212.188,886.715 
  "/>
<polyline clip-path="url(#clip460)" style="stroke:#333333; stroke-linecap:butt; stroke-linejoin:round; stroke-width:4; stroke-opacity:1; fill:none" points="
  221.637,635.635 212.188,635.635 
  "/>
<polyline clip-path="url(#clip460)" style="stroke:#333333; stroke-linecap:butt; stroke-linejoin:round; stroke-width:4; stroke-opacity:1; fill:none" points="
  221.637,635.635 212.188,635.635 
  "/>
<polyline clip-path="url(#clip460)" style="stroke:#333333; stroke-linecap:butt; stroke-linejoin:round; stroke-width:4; stroke-opacity:1; fill:none" points="
  221.637,547.584 212.188,547.584 
  "/>
<polyline clip-path="url(#clip460)" style="stroke:#333333; stroke-linecap:butt; stroke-linejoin:round; stroke-width:4; stroke-opacity:1; fill:none" points="
  221.637,547.584 212.188,547.584 
  "/>
<polyline clip-path="url(#clip460)" style="stroke:#333333; stroke-linecap:butt; stroke-linejoin:round; stroke-width:4; stroke-opacity:1; fill:none" points="
  221.637,296.503 212.188,296.503 
  "/>
<path clip-path="url(#clip460)" d="M96.9315 906.508 L104.57 906.508 L104.57 880.142 L96.2602 881.809 L96.2602 877.549 L104.524 875.883 L109.2 875.883 L109.2 906.508 L116.839 906.508 L116.839 910.443 L96.9315 910.443 L96.9315 906.508 Z" fill="#4c4c4c" fill-rule="evenodd" fill-opacity="1" /><path clip-path="url(#clip460)" d="M136.283 878.961 Q132.672 878.961 130.843 882.526 Q129.038 886.068 129.038 893.197 Q129.038 900.304 130.843 903.869 Q132.672 907.41 136.283 907.41 Q139.917 907.41 141.723 903.869 Q143.552 900.304 143.552 893.197 Q143.552 886.068 141.723 882.526 Q139.917 878.961 136.283 878.961 M136.283 875.258 Q142.093 875.258 145.149 879.864 Q148.227 884.447 148.227 893.197 Q148.227 901.924 145.149 906.531 Q142.093 911.114 136.283 911.114 Q130.473 911.114 127.394 906.531 Q124.339 901.924 124.339 893.197 Q124.339 884.447 127.394 879.864 Q130.473 875.258 136.283 875.258 Z" fill="#4c4c4c" fill-rule="evenodd" fill-opacity="1" /><path clip-path="url(#clip460)" d="M157.932 857.454 Q154.998 857.454 153.512 860.35 Q152.045 863.228 152.045 869.021 Q152.045 874.795 153.512 877.691 Q154.998 880.569 157.932 880.569 Q160.885 880.569 162.352 877.691 Q163.838 874.795 163.838 869.021 Q163.838 863.228 162.352 860.35 Q160.885 857.454 157.932 857.454 M157.932 854.445 Q162.653 854.445 165.136 858.187 Q167.637 861.911 167.637 869.021 Q167.637 876.111 165.136 879.854 Q162.653 883.578 157.932 883.578 Q153.212 883.578 150.71 879.854 Q148.227 876.111 148.227 869.021 Q148.227 861.911 150.71 858.187 Q153.212 854.445 157.932 854.445 Z" fill="#4c4c4c" fill-rule="evenodd" fill-opacity="1" /><path clip-path="url(#clip460)" d="M98.5113 228.244 L106.15 228.244 L106.15 201.879 L97.84 203.545 L97.84 199.286 L106.104 197.62 L110.78 197.62 L110.78 228.244 L118.419 228.244 L118.419 232.18 L98.5113 232.18 L98.5113 228.244 Z" fill="#4c4c4c" fill-rule="evenodd" fill-opacity="1" /><path clip-path="url(#clip460)" d="M137.863 200.698 Q134.252 200.698 132.423 204.263 Q130.618 207.805 130.618 214.934 Q130.618 222.041 132.423 225.606 Q134.252 229.147 137.863 229.147 Q141.497 229.147 143.303 225.606 Q145.131 222.041 145.131 214.934 Q145.131 207.805 143.303 204.263 Q141.497 200.698 137.863 200.698 M137.863 196.995 Q143.673 196.995 146.729 201.601 Q149.807 206.184 149.807 214.934 Q149.807 223.661 146.729 228.268 Q143.673 232.851 137.863 232.851 Q132.053 232.851 128.974 228.268 Q125.919 223.661 125.919 214.934 Q125.919 206.184 128.974 201.601 Q132.053 196.995 137.863 196.995 Z" fill="#4c4c4c" fill-rule="evenodd" fill-opacity="1" /><path clip-path="url(#clip460)" d="M154.378 201.572 L167.637 201.572 L167.637 204.769 L149.807 204.769 L149.807 201.572 Q151.97 199.334 155.694 195.572 Q159.437 191.792 160.396 190.701 Q162.22 188.651 162.935 187.24 Q163.669 185.811 163.669 184.438 Q163.669 182.2 162.089 180.789 Q160.528 179.379 158.008 179.379 Q156.221 179.379 154.227 179.999 Q152.252 180.62 149.995 181.88 L149.995 178.043 Q152.29 177.122 154.284 176.652 Q156.277 176.181 157.932 176.181 Q162.296 176.181 164.891 178.363 Q167.487 180.545 167.487 184.193 Q167.487 185.924 166.828 187.485 Q166.189 189.027 164.477 191.134 Q164.007 191.679 161.487 194.293 Q158.967 196.889 154.378 201.572 Z" fill="#4c4c4c" fill-rule="evenodd" fill-opacity="1" /><path clip-path="url(#clip460)" d="M44.7161 817.669 L47.5806 817.669 L47.5806 844.596 Q53.6281 844.214 56.8109 840.967 Q59.9619 837.689 59.9619 831.864 Q59.9619 828.49 59.1344 825.339 Q58.3069 822.157 56.6518 819.037 L62.1899 819.037 Q63.5267 822.188 64.227 825.499 Q64.9272 828.809 64.9272 832.214 Q64.9272 840.744 59.9619 845.742 Q54.9967 850.707 46.5303 850.707 Q37.7774 850.707 32.6531 845.996 Q27.4968 841.254 27.4968 833.233 Q27.4968 826.04 32.1438 821.87 Q36.7589 817.669 44.7161 817.669 M42.9973 823.525 Q38.1912 823.589 35.3266 826.231 Q32.4621 828.841 32.4621 833.169 Q32.4621 838.071 35.2312 841.031 Q38.0002 843.959 43.0292 844.405 L42.9973 823.525 Z" fill="#000000" fill-rule="evenodd" fill-opacity="1" /><path clip-path="url(#clip460)" d="M33.8307 787.4 Q33.2578 788.387 33.0032 789.564 Q32.7167 790.71 32.7167 792.11 Q32.7167 797.076 35.9632 799.749 Q39.1779 802.391 45.2253 802.391 L64.0042 802.391 L64.0042 808.279 L28.3562 808.279 L28.3562 802.391 L33.8944 802.391 Q30.6479 800.545 29.0883 797.585 Q27.4968 794.625 27.4968 790.392 Q27.4968 789.787 27.5923 789.055 Q27.656 788.323 27.8151 787.432 L33.8307 787.4 Z" fill="#000000" fill-rule="evenodd" fill-opacity="1" /><path clip-path="url(#clip460)" d="M33.8307 761.746 Q33.2578 762.733 33.0032 763.91 Q32.7167 765.056 32.7167 766.457 Q32.7167 771.422 35.9632 774.096 Q39.1779 776.737 45.2253 776.737 L64.0042 776.737 L64.0042 782.626 L28.3562 782.626 L28.3562 776.737 L33.8944 776.737 Q30.6479 774.891 29.0883 771.931 Q27.4968 768.971 27.4968 764.738 Q27.4968 764.133 27.5923 763.401 Q27.656 762.669 27.8151 761.778 L33.8307 761.746 Z" fill="#000000" fill-rule="evenodd" fill-opacity="1" /><path clip-path="url(#clip460)" d="M32.4621 743.222 Q32.4621 747.932 36.1542 750.67 Q39.8145 753.407 46.212 753.407 Q52.6095 753.407 56.3017 750.702 Q59.9619 747.964 59.9619 743.222 Q59.9619 738.543 56.2698 735.806 Q52.5777 733.069 46.212 733.069 Q39.8781 733.069 36.186 735.806 Q32.4621 738.543 32.4621 743.222 M27.4968 743.222 Q27.4968 735.583 32.4621 731.222 Q37.4273 726.862 46.212 726.862 Q54.9649 726.862 59.9619 731.222 Q64.9272 735.583 64.9272 743.222 Q64.9272 750.893 59.9619 755.253 Q54.9649 759.582 46.212 759.582 Q37.4273 759.582 32.4621 755.253 Q27.4968 750.893 27.4968 743.222 Z" fill="#000000" fill-rule="evenodd" fill-opacity="1" /><path clip-path="url(#clip460)" d="M960.236 28.512 L993.014 28.512 L993.014 34.4147 L967.25 34.4147 L967.25 49.7619 L991.938 49.7619 L991.938 55.6646 L967.25 55.6646 L967.25 74.4493 L993.639 74.4493 L993.639 80.352 L960.236 80.352 L960.236 28.512 Z" fill="#000000" fill-rule="evenodd" fill-opacity="1" /><path clip-path="url(#clip460)" d="M1027.42 47.4355 Q1026.35 46.8105 1025.06 46.5327 Q1023.81 46.2202 1022.28 46.2202 Q1016.87 46.2202 1013.95 49.7619 Q1011.07 53.2688 1011.07 59.866 L1011.07 80.352 L1004.65 80.352 L1004.65 41.4633 L1011.07 41.4633 L1011.07 47.505 Q1013.08 43.9633 1016.31 42.2619 Q1019.54 40.5258 1024.16 40.5258 Q1024.82 40.5258 1025.62 40.63 Q1026.42 40.6994 1027.39 40.873 L1027.42 47.4355 Z" fill="#000000" fill-rule="evenodd" fill-opacity="1" /><path clip-path="url(#clip460)" d="M1055.41 47.4355 Q1054.33 46.8105 1053.05 46.5327 Q1051.8 46.2202 1050.27 46.2202 Q1044.85 46.2202 1041.94 49.7619 Q1039.06 53.2688 1039.06 59.866 L1039.06 80.352 L1032.63 80.352 L1032.63 41.4633 L1039.06 41.4633 L1039.06 47.505 Q1041.07 43.9633 1044.3 42.2619 Q1047.53 40.5258 1052.15 40.5258 Q1052.81 40.5258 1053.6 40.63 Q1054.4 40.6994 1055.37 40.873 L1055.41 47.4355 Z" fill="#000000" fill-rule="evenodd" fill-opacity="1" /><path clip-path="url(#clip460)" d="M1075.62 45.9425 Q1070.48 45.9425 1067.49 49.9702 Q1064.51 53.9633 1064.51 60.9424 Q1064.51 67.9215 1067.46 71.9493 Q1070.44 75.9423 1075.62 75.9423 Q1080.72 75.9423 1083.71 71.9145 Q1086.69 67.8868 1086.69 60.9424 Q1086.69 54.0327 1083.71 50.0049 Q1080.72 45.9425 1075.62 45.9425 M1075.62 40.5258 Q1083.95 40.5258 1088.71 45.9425 Q1093.46 51.3591 1093.46 60.9424 Q1093.46 70.4909 1088.71 75.9423 Q1083.95 81.3589 1075.62 81.3589 Q1067.25 81.3589 1062.49 75.9423 Q1057.77 70.4909 1057.77 60.9424 Q1057.77 51.3591 1062.49 45.9425 Q1067.25 40.5258 1075.62 40.5258 Z" fill="#000000" fill-rule="evenodd" fill-opacity="1" /><path clip-path="url(#clip460)" d="M1146.35 26.3245 L1146.35 31.637 L1140.24 31.637 Q1136.8 31.637 1135.44 33.0259 Q1134.12 34.4147 1134.12 38.0258 L1134.12 41.4633 L1144.65 41.4633 L1144.65 46.4286 L1134.12 46.4286 L1134.12 80.352 L1127.7 80.352 L1127.7 46.4286 L1121.59 46.4286 L1121.59 41.4633 L1127.7 41.4633 L1127.7 38.755 Q1127.7 32.262 1130.72 29.3106 Q1133.74 26.3245 1140.3 26.3245 L1146.35 26.3245 Z" fill="#000000" fill-rule="evenodd" fill-opacity="1" /><path clip-path="url(#clip460)" d="M1166.76 45.9425 Q1161.62 45.9425 1158.64 49.9702 Q1155.65 53.9633 1155.65 60.9424 Q1155.65 67.9215 1158.6 71.9493 Q1161.59 75.9423 1166.76 75.9423 Q1171.87 75.9423 1174.85 71.9145 Q1177.84 67.8868 1177.84 60.9424 Q1177.84 54.0327 1174.85 50.0049 Q1171.87 45.9425 1166.76 45.9425 M1166.76 40.5258 Q1175.1 40.5258 1179.85 45.9425 Q1184.61 51.3591 1184.61 60.9424 Q1184.61 70.4909 1179.85 75.9423 Q1175.1 81.3589 1166.76 81.3589 Q1158.4 81.3589 1153.64 75.9423 Q1148.92 70.4909 1148.92 60.9424 Q1148.92 51.3591 1153.64 45.9425 Q1158.4 40.5258 1166.76 40.5258 Z" fill="#000000" fill-rule="evenodd" fill-opacity="1" /><path clip-path="url(#clip460)" d="M1217.74 47.4355 Q1216.66 46.8105 1215.37 46.5327 Q1214.12 46.2202 1212.6 46.2202 Q1207.18 46.2202 1204.26 49.7619 Q1201.38 53.2688 1201.38 59.866 L1201.38 80.352 L1194.96 80.352 L1194.96 41.4633 L1201.38 41.4633 L1201.38 47.505 Q1203.39 43.9633 1206.62 42.2619 Q1209.85 40.5258 1214.47 40.5258 Q1215.13 40.5258 1215.93 40.63 Q1216.73 40.6994 1217.7 40.873 L1217.74 47.4355 Z" fill="#000000" fill-rule="evenodd" fill-opacity="1" /><path clip-path="url(#clip460)" d="M1230.76 30.4217 L1230.76 41.4633 L1243.92 41.4633 L1243.92 46.4286 L1230.76 46.4286 L1230.76 67.5396 Q1230.76 72.2965 1232.04 73.6506 Q1233.36 75.0048 1237.35 75.0048 L1243.92 75.0048 L1243.92 80.352 L1237.35 80.352 Q1229.96 80.352 1227.14 77.609 Q1224.33 74.8312 1224.33 67.5396 L1224.33 46.4286 L1219.64 46.4286 L1219.64 41.4633 L1224.33 41.4633 L1224.33 30.4217 L1230.76 30.4217 Z" fill="#000000" fill-rule="evenodd" fill-opacity="1" /><path clip-path="url(#clip460)" d="M1285.58 59.3104 L1285.58 62.4354 L1256.21 62.4354 Q1256.62 69.0326 1260.17 72.5048 Q1263.74 75.9423 1270.1 75.9423 Q1273.78 75.9423 1277.21 75.0395 Q1280.69 74.1368 1284.09 72.3312 L1284.09 78.3728 Q1280.65 79.8312 1277.04 80.5951 Q1273.43 81.3589 1269.71 81.3589 Q1260.41 81.3589 1254.96 75.9423 Q1249.54 70.5257 1249.54 61.2896 Q1249.54 51.741 1254.68 46.1508 Q1259.85 40.5258 1268.6 40.5258 Q1276.45 40.5258 1281 45.5952 Q1285.58 50.6299 1285.58 59.3104 M1279.19 57.4355 Q1279.12 52.1924 1276.24 49.0674 Q1273.39 45.9425 1268.67 45.9425 Q1263.33 45.9425 1260.1 48.9633 Q1256.9 51.9841 1256.42 57.4702 L1279.19 57.4355 Z" fill="#000000" fill-rule="evenodd" fill-opacity="1" /><path clip-path="url(#clip460)" d="M1324.85 74.5187 L1324.85 95.1436 L1318.43 95.1436 L1318.43 41.4633 L1324.85 41.4633 L1324.85 47.3661 Q1326.87 43.8939 1329.92 42.2272 Q1333.01 40.5258 1337.28 40.5258 Q1344.37 40.5258 1348.78 46.1508 Q1353.22 51.7758 1353.22 60.9424 Q1353.22 70.109 1348.78 75.734 Q1344.37 81.3589 1337.28 81.3589 Q1333.01 81.3589 1329.92 79.6923 Q1326.87 77.9909 1324.85 74.5187 M1346.59 60.9424 Q1346.59 53.8938 1343.67 49.9008 Q1340.79 45.873 1335.72 45.873 Q1330.65 45.873 1327.73 49.9008 Q1324.85 53.8938 1324.85 60.9424 Q1324.85 67.991 1327.73 72.0187 Q1330.65 76.0117 1335.72 76.0117 Q1340.79 76.0117 1343.67 72.0187 Q1346.59 67.991 1346.59 60.9424 Z" fill="#000000" fill-rule="evenodd" fill-opacity="1" /><path clip-path="url(#clip460)" d="M1387.25 48.0605 L1431.76 48.0605 L1431.76 53.8938 L1387.25 53.8938 L1387.25 48.0605 M1387.25 62.2271 L1431.76 62.2271 L1431.76 68.1298 L1387.25 68.1298 L1387.25 62.2271 Z" fill="#000000" fill-rule="evenodd" fill-opacity="1" /><path clip-path="url(#clip460)" d="M1484.5 33.13 Q1479.09 33.13 1476.34 38.4772 Q1473.64 43.7897 1473.64 54.4841 Q1473.64 65.1437 1476.34 70.4909 Q1479.09 75.8034 1484.5 75.8034 Q1489.96 75.8034 1492.66 70.4909 Q1495.41 65.1437 1495.41 54.4841 Q1495.41 43.7897 1492.66 38.4772 Q1489.96 33.13 1484.5 33.13 M1484.5 27.5745 Q1493.22 27.5745 1497.8 34.4842 Q1502.42 41.3592 1502.42 54.4841 Q1502.42 67.5743 1497.8 74.484 Q1493.22 81.3589 1484.5 81.3589 Q1475.79 81.3589 1471.17 74.484 Q1466.59 67.5743 1466.59 54.4841 Q1466.59 41.3592 1471.17 34.4842 Q1475.79 27.5745 1484.5 27.5745 Z" fill="#000000" fill-rule="evenodd" fill-opacity="1" /><path clip-path="url(#clip460)" d="M1514.75 71.5326 L1522.07 71.5326 L1522.07 80.352 L1514.75 80.352 L1514.75 71.5326 Z" fill="#000000" fill-rule="evenodd" fill-opacity="1" /><path clip-path="url(#clip460)" d="M1537.56 79.2756 L1537.56 72.8868 Q1540.2 74.1368 1542.91 74.7965 Q1545.62 75.4562 1548.22 75.4562 Q1555.16 75.4562 1558.81 70.8034 Q1562.49 66.116 1563.01 56.6021 Q1561 59.5882 1557.91 61.1854 Q1554.82 62.7826 1551.07 62.7826 Q1543.29 62.7826 1538.74 58.0952 Q1534.23 53.373 1534.23 45.2133 Q1534.23 37.2272 1538.95 32.4009 Q1543.67 27.5745 1551.52 27.5745 Q1560.51 27.5745 1565.23 34.4842 Q1569.99 41.3592 1569.99 54.4841 Q1569.99 66.741 1564.16 74.0673 Q1558.36 81.3589 1548.53 81.3589 Q1545.89 81.3589 1543.18 80.8381 Q1540.48 80.3173 1537.56 79.2756 M1551.52 57.2966 Q1556.24 57.2966 1558.98 54.0674 Q1561.76 50.8383 1561.76 45.2133 Q1561.76 39.6231 1558.98 36.3939 Q1556.24 33.13 1551.52 33.13 Q1546.8 33.13 1544.02 36.3939 Q1541.27 39.6231 1541.27 45.2133 Q1541.27 50.8383 1544.02 54.0674 Q1546.8 57.2966 1551.52 57.2966 Z" fill="#000000" fill-rule="evenodd" fill-opacity="1" /><path clip-path="url(#clip460)" d="M1580.82 28.512 L1614.16 28.512 L1614.16 31.4981 L1595.34 80.352 L1588.01 80.352 L1605.72 34.4147 L1580.82 34.4147 L1580.82 28.512 Z" fill="#000000" fill-rule="evenodd" fill-opacity="1" /><path clip-path="url(#clip460)" d="M789.526 106.272 L799.977 106.272 L813.206 141.55 L826.505 106.272 L836.956 106.272 L836.956 158.112 L830.116 158.112 L830.116 112.591 L816.748 148.147 L809.699 148.147 L796.331 112.591 L796.331 158.112 L789.526 158.112 L789.526 106.272 Z" fill="#000000" fill-rule="evenodd" fill-opacity="1" /><path clip-path="url(#clip460)" d="M874.039 125.821 L918.553 125.821 L918.553 131.654 L874.039 131.654 L874.039 125.821 M874.039 139.987 L918.553 139.987 L918.553 145.89 L874.039 145.89 L874.039 139.987 Z" fill="#000000" fill-rule="evenodd" fill-opacity="1" /><path clip-path="url(#clip460)" d="M962.337 152.209 L986.816 152.209 L986.816 158.112 L953.9 158.112 L953.9 152.209 Q957.893 148.077 964.768 141.133 Q971.677 134.154 973.448 132.14 Q976.816 128.355 978.136 125.751 Q979.49 123.112 979.49 120.577 Q979.49 116.446 976.573 113.841 Q973.691 111.237 969.038 111.237 Q965.74 111.237 962.059 112.383 Q958.414 113.529 954.247 115.855 L954.247 108.772 Q958.483 107.071 962.164 106.203 Q965.844 105.335 968.9 105.335 Q976.955 105.335 981.747 109.362 Q986.538 113.39 986.538 120.126 Q986.538 123.321 985.323 126.202 Q984.143 129.05 980.983 132.939 Q980.115 133.945 975.462 138.772 Q970.809 143.563 962.337 152.209 Z" fill="#000000" fill-rule="evenodd" fill-opacity="1" /><path clip-path="url(#clip460)" d="M1016.54 110.89 Q1011.12 110.89 1008.38 116.237 Q1005.67 121.55 1005.67 132.244 Q1005.67 142.904 1008.38 148.251 Q1011.12 153.563 1016.54 153.563 Q1021.99 153.563 1024.7 148.251 Q1027.44 142.904 1027.44 132.244 Q1027.44 121.55 1024.7 116.237 Q1021.99 110.89 1016.54 110.89 M1016.54 105.335 Q1025.25 105.335 1029.84 112.244 Q1034.45 119.119 1034.45 132.244 Q1034.45 145.334 1029.84 152.244 Q1025.25 159.119 1016.54 159.119 Q1007.82 159.119 1003.2 152.244 Q998.622 145.334 998.622 132.244 Q998.622 119.119 1003.2 112.244 Q1007.82 105.335 1016.54 105.335 Z" fill="#000000" fill-rule="evenodd" fill-opacity="1" /><path clip-path="url(#clip460)" d="M1061.78 110.89 Q1056.36 110.89 1053.62 116.237 Q1050.91 121.55 1050.91 132.244 Q1050.91 142.904 1053.62 148.251 Q1056.36 153.563 1061.78 153.563 Q1067.23 153.563 1069.94 148.251 Q1072.68 142.904 1072.68 132.244 Q1072.68 121.55 1069.94 116.237 Q1067.23 110.89 1061.78 110.89 M1061.78 105.335 Q1070.5 105.335 1075.08 112.244 Q1079.7 119.119 1079.7 132.244 Q1079.7 145.334 1075.08 152.244 Q1070.5 159.119 1061.78 159.119 Q1053.07 159.119 1048.45 152.244 Q1043.86 145.334 1043.86 132.244 Q1043.86 119.119 1048.45 112.244 Q1053.07 105.335 1061.78 105.335 Z" fill="#000000" fill-rule="evenodd" fill-opacity="1" /><path clip-path="url(#clip460)" d="M1107.02 110.89 Q1101.61 110.89 1098.86 116.237 Q1096.16 121.55 1096.16 132.244 Q1096.16 142.904 1098.86 148.251 Q1101.61 153.563 1107.02 153.563 Q1112.48 153.563 1115.18 148.251 Q1117.93 142.904 1117.93 132.244 Q1117.93 121.55 1115.18 116.237 Q1112.48 110.89 1107.02 110.89 M1107.02 105.335 Q1115.74 105.335 1120.32 112.244 Q1124.94 119.119 1124.94 132.244 Q1124.94 145.334 1120.32 152.244 Q1115.74 159.119 1107.02 159.119 Q1098.31 159.119 1093.69 152.244 Q1089.11 145.334 1089.11 132.244 Q1089.11 119.119 1093.69 112.244 Q1098.31 105.335 1107.02 105.335 Z" fill="#000000" fill-rule="evenodd" fill-opacity="1" /><path clip-path="url(#clip460)" d="M1152.27 110.89 Q1146.85 110.89 1144.11 116.237 Q1141.4 121.55 1141.4 132.244 Q1141.4 142.904 1144.11 148.251 Q1146.85 153.563 1152.27 153.563 Q1157.72 153.563 1160.43 148.251 Q1163.17 142.904 1163.17 132.244 Q1163.17 121.55 1160.43 116.237 Q1157.72 110.89 1152.27 110.89 M1152.27 105.335 Q1160.98 105.335 1165.57 112.244 Q1170.18 119.119 1170.18 132.244 Q1170.18 145.334 1165.57 152.244 Q1160.98 159.119 1152.27 159.119 Q1143.55 159.119 1138.93 152.244 Q1134.35 145.334 1134.35 132.244 Q1134.35 119.119 1138.93 112.244 Q1143.55 105.335 1152.27 105.335 Z" fill="#000000" fill-rule="evenodd" fill-opacity="1" /><path clip-path="url(#clip460)" d="M1183.24 149.293 L1190.57 149.293 L1190.57 155.265 L1184.87 166.376 L1180.39 166.376 L1183.24 155.265 L1183.24 149.293 Z" fill="#000000" fill-rule="evenodd" fill-opacity="1" /><path clip-path="url(#clip460)" d="M1241.88 124.293 Q1236.61 124.293 1233.76 128.112 Q1230.77 132.105 1230.77 138.702 Q1230.77 145.682 1233.72 149.709 Q1236.71 153.702 1241.88 153.702 Q1246.99 153.702 1249.97 149.675 Q1252.96 145.647 1252.96 138.702 Q1252.96 132.348 1249.97 128.112 Q1247.23 124.293 1241.88 124.293 M1241.88 119.223 L1263.1 119.223 L1263.1 125.612 L1255.95 125.612 Q1259.73 131.029 1259.73 138.702 Q1259.73 148.251 1254.97 153.668 Q1250.22 159.119 1241.88 159.119 Q1233.52 159.119 1228.79 153.668 Q1224.04 148.251 1224.04 138.702 Q1224.04 129.084 1228.79 123.702 Q1232.72 119.223 1241.88 119.223 Z" fill="#000000" fill-rule="evenodd" fill-opacity="1" /><path clip-path="url(#clip460)" d="M1295.32 125.821 L1339.84 125.821 L1339.84 131.654 L1295.32 131.654 L1295.32 125.821 M1295.32 139.987 L1339.84 139.987 L1339.84 145.89 L1295.32 145.89 L1295.32 139.987 Z" fill="#000000" fill-rule="evenodd" fill-opacity="1" /><path clip-path="url(#clip460)" d="M1378.79 152.209 L1390.25 152.209 L1390.25 112.661 L1377.79 115.161 L1377.79 108.772 L1390.18 106.272 L1397.2 106.272 L1397.2 152.209 L1408.65 152.209 L1408.65 158.112 L1378.79 158.112 L1378.79 152.209 Z" fill="#000000" fill-rule="evenodd" fill-opacity="1" /><path clip-path="url(#clip460)" d="M1422.82 149.293 L1430.15 149.293 L1430.15 158.112 L1422.82 158.112 L1422.82 149.293 Z" fill="#000000" fill-rule="evenodd" fill-opacity="1" /><path clip-path="url(#clip460)" d="M1445.49 106.272 L1473.03 106.272 L1473.03 112.175 L1451.92 112.175 L1451.92 124.883 Q1453.45 124.362 1454.97 124.119 Q1456.5 123.841 1458.03 123.841 Q1466.71 123.841 1471.78 128.598 Q1476.85 133.355 1476.85 141.48 Q1476.85 149.848 1471.64 154.501 Q1466.43 159.119 1456.95 159.119 Q1453.69 159.119 1450.29 158.563 Q1446.92 158.008 1443.31 156.897 L1443.31 149.848 Q1446.43 151.55 1449.77 152.383 Q1453.1 153.216 1456.81 153.216 Q1462.82 153.216 1466.33 150.056 Q1469.83 146.897 1469.83 141.48 Q1469.83 136.064 1466.33 132.904 Q1462.82 129.744 1456.81 129.744 Q1454 129.744 1451.19 130.369 Q1448.41 130.994 1445.49 132.314 L1445.49 106.272 Z" fill="#000000" fill-rule="evenodd" fill-opacity="1" /><path clip-path="url(#clip460)" d="M1491.4 149.293 L1498.72 149.293 L1498.72 155.265 L1493.03 166.376 L1488.55 166.376 L1491.4 155.265 L1491.4 149.293 Z" fill="#000000" fill-rule="evenodd" fill-opacity="1" /><path clip-path="url(#clip460)" d="M1528.06 106.272 L1571.92 106.272 L1571.92 112.175 L1553.51 112.175 L1553.51 158.112 L1546.47 158.112 L1546.47 112.175 L1528.06 112.175 L1528.06 106.272 Z" fill="#000000" fill-rule="evenodd" fill-opacity="1" /><path clip-path="url(#clip460)" d="M1601.85 125.821 L1646.36 125.821 L1646.36 131.654 L1601.85 131.654 L1601.85 125.821 M1601.85 139.987 L1646.36 139.987 L1646.36 145.89 L1601.85 145.89 L1601.85 139.987 Z" fill="#000000" fill-rule="evenodd" fill-opacity="1" /><path clip-path="url(#clip460)" d="M1690.15 152.209 L1714.62 152.209 L1714.62 158.112 L1681.71 158.112 L1681.71 152.209 Q1685.7 148.077 1692.58 141.133 Q1699.49 134.154 1701.26 132.14 Q1704.62 128.355 1705.94 125.751 Q1707.3 123.112 1707.3 120.577 Q1707.3 116.446 1704.38 113.841 Q1701.5 111.237 1696.85 111.237 Q1693.55 111.237 1689.87 112.383 Q1686.22 113.529 1682.06 115.855 L1682.06 108.772 Q1686.29 107.071 1689.97 106.203 Q1693.65 105.335 1696.71 105.335 Q1704.76 105.335 1709.56 109.362 Q1714.35 113.39 1714.35 120.126 Q1714.35 123.321 1713.13 126.202 Q1711.95 129.05 1708.79 132.939 Q1707.92 133.945 1703.27 138.772 Q1698.62 143.563 1690.15 152.209 Z" fill="#000000" fill-rule="evenodd" fill-opacity="1" /><path clip-path="url(#clip460)" d="M1729.35 149.293 L1736.67 149.293 L1736.67 158.112 L1729.35 158.112 L1729.35 149.293 Z" fill="#000000" fill-rule="evenodd" fill-opacity="1" /><path clip-path="url(#clip460)" d="M1766.95 110.89 Q1761.53 110.89 1758.79 116.237 Q1756.08 121.55 1756.08 132.244 Q1756.08 142.904 1758.79 148.251 Q1761.53 153.563 1766.95 153.563 Q1772.4 153.563 1775.11 148.251 Q1777.85 142.904 1777.85 132.244 Q1777.85 121.55 1775.11 116.237 Q1772.4 110.89 1766.95 110.89 M1766.95 105.335 Q1775.67 105.335 1780.25 112.244 Q1784.87 119.119 1784.87 132.244 Q1784.87 145.334 1780.25 152.244 Q1775.67 159.119 1766.95 159.119 Q1758.24 159.119 1753.62 152.244 Q1749.03 145.334 1749.03 132.244 Q1749.03 119.119 1753.62 112.244 Q1758.24 105.335 1766.95 105.335 Z" fill="#000000" fill-rule="evenodd" fill-opacity="1" /><path clip-path="url(#clip462)" d="M2292.44 525.018 L2288.68 535.834 L2277.23 536.074 L2286.36 543.002 L2283.03 553.962 L2292.44 547.418 L2301.85 553.962 L2298.52 543.002 L2307.66 536.074 L2296.2 535.834 L2292.44 525.018 Z" fill="#009af9" fill-rule="evenodd" fill-opacity="1" stroke="#000000" stroke-opacity="1" stroke-width="0"/>
<path clip-path="url(#clip462)" d="M1886.75 623.457 L1882.99 634.273 L1871.53 634.513 L1880.67 641.441 L1877.34 652.401 L1886.75 645.857 L1896.15 652.401 L1892.83 641.441 L1901.96 634.513 L1890.51 634.273 L1886.75 623.457 Z" fill="#009af9" fill-rule="evenodd" fill-opacity="1" stroke="#000000" stroke-opacity="1" stroke-width="0"/>
<path clip-path="url(#clip462)" d="M1484 726.179 L1480.24 736.995 L1468.78 737.235 L1477.92 744.163 L1474.59 755.123 L1484 748.579 L1493.41 755.123 L1490.08 744.163 L1499.22 737.235 L1487.76 736.995 L1484 726.179 Z" fill="#009af9" fill-rule="evenodd" fill-opacity="1" stroke="#000000" stroke-opacity="1" stroke-width="0"/>
<path clip-path="url(#clip462)" d="M1082.71 818.825 L1078.95 829.641 L1067.5 829.881 L1076.63 836.809 L1073.31 847.769 L1082.71 841.225 L1092.12 847.769 L1088.79 836.809 L1097.93 829.881 L1086.47 829.641 L1082.71 818.825 Z" fill="#009af9" fill-rule="evenodd" fill-opacity="1" stroke="#000000" stroke-opacity="1" stroke-width="0"/>
<path clip-path="url(#clip462)" d="M682.152 932.33 L678.392 943.146 L666.936 943.386 L676.072 950.314 L672.744 961.274 L682.152 954.73 L691.56 961.274 L688.232 950.314 L697.368 943.386 L685.912 943.146 L682.152 932.33 Z" fill="#009af9" fill-rule="evenodd" fill-opacity="1" stroke="#000000" stroke-opacity="1" stroke-width="0"/>
<path clip-path="url(#clip462)" d="M281.952 1020.55 L278.192 1031.37 L266.736 1031.61 L275.872 1038.54 L272.544 1049.5 L281.952 1042.95 L291.36 1049.5 L288.032 1038.54 L297.168 1031.61 L285.712 1031.37 L281.952 1020.55 Z" fill="#009af9" fill-rule="evenodd" fill-opacity="1" stroke="#000000" stroke-opacity="1" stroke-width="0"/>
<path clip-path="url(#clip462)" d="M2292.44 516.974 L2288.68 527.79 L2277.23 528.03 L2286.36 534.958 L2283.03 545.918 L2292.44 539.374 L2301.85 545.918 L2298.52 534.958 L2307.66 528.03 L2296.2 527.79 L2292.44 516.974 Z" fill="#e26f46" fill-rule="evenodd" fill-opacity="1" stroke="#000000" stroke-opacity="1" stroke-width="0"/>
<path clip-path="url(#clip462)" d="M1886.75 689.717 L1882.99 700.533 L1871.53 700.773 L1880.67 707.701 L1877.34 718.661 L1886.75 712.117 L1896.15 718.661 L1892.83 707.701 L1901.96 700.773 L1890.51 700.533 L1886.75 689.717 Z" fill="#e26f46" fill-rule="evenodd" fill-opacity="1" stroke="#000000" stroke-opacity="1" stroke-width="0"/>
<path clip-path="url(#clip462)" d="M1484 487.705 L1480.24 498.521 L1468.78 498.761 L1477.92 505.689 L1474.59 516.649 L1484 510.105 L1493.41 516.649 L1490.08 505.689 L1499.22 498.761 L1487.76 498.521 L1484 487.705 Z" fill="#e26f46" fill-rule="evenodd" fill-opacity="1" stroke="#000000" stroke-opacity="1" stroke-width="0"/>
<path clip-path="url(#clip462)" d="M1082.71 918.738 L1078.95 929.554 L1067.5 929.794 L1076.63 936.722 L1073.31 947.682 L1082.71 941.138 L1092.12 947.682 L1088.79 936.722 L1097.93 929.794 L1086.47 929.554 L1082.71 918.738 Z" fill="#e26f46" fill-rule="evenodd" fill-opacity="1" stroke="#000000" stroke-opacity="1" stroke-width="0"/>
<path clip-path="url(#clip462)" d="M682.152 753.197 L678.392 764.013 L666.936 764.253 L676.072 771.181 L672.744 782.141 L682.152 775.597 L691.56 782.141 L688.232 771.181 L697.368 764.253 L685.912 764.013 L682.152 753.197 Z" fill="#e26f46" fill-rule="evenodd" fill-opacity="1" stroke="#000000" stroke-opacity="1" stroke-width="0"/>
<path clip-path="url(#clip462)" d="M281.952 996.12 L278.192 1006.94 L266.736 1007.18 L275.872 1014.1 L272.544 1025.06 L281.952 1018.52 L291.36 1025.06 L288.032 1014.1 L297.168 1007.18 L285.712 1006.94 L281.952 996.12 Z" fill="#e26f46" fill-rule="evenodd" fill-opacity="1" stroke="#000000" stroke-opacity="1" stroke-width="0"/>
<polyline clip-path="url(#clip462)" style="stroke:#3da44d; stroke-linecap:butt; stroke-linejoin:round; stroke-width:4; stroke-opacity:1; fill:none" stroke-dasharray="16, 10" points="
  2292.44,539.963 1886.75,640.811 1484,740.926 1082.71,840.678 682.152,940.25 281.952,1039.73 
  "/>
<path clip-path="url(#clip460)" d="
M292.674 415.506 L1149.53 415.506 L1149.53 208.146 L292.674 208.146  Z
  " fill="#eaeaea" fill-rule="evenodd" fill-opacity="1"/>
<polyline clip-path="url(#clip460)" style="stroke:#ffffff; stroke-linecap:butt; stroke-linejoin:round; stroke-width:4; stroke-opacity:1; fill:none" points="
  292.674,415.506 1149.53,415.506 1149.53,208.146 292.674,208.146 292.674,415.506 
  "/>
<path clip-path="url(#clip460)" d="M387.391 234.386 L381.375 251.692 L363.045 252.076 L377.663 263.161 L372.338 280.697 L387.391 270.226 L402.444 280.697 L397.119 263.161 L411.736 252.076 L393.407 251.692 L387.391 234.386 Z" fill="#009af9" fill-rule="evenodd" fill-opacity="1" stroke="#000000" stroke-opacity="1" stroke-width="0"/>
<path clip-path="url(#clip460)" d="M506.135 263.239 L506.135 265.322 L486.552 265.322 Q486.829 269.72 489.19 272.035 Q491.575 274.326 495.811 274.326 Q498.264 274.326 500.556 273.725 Q502.871 273.123 505.139 271.919 L505.139 275.947 Q502.848 276.919 500.44 277.428 Q498.033 277.938 495.556 277.938 Q489.352 277.938 485.718 274.326 Q482.107 270.715 482.107 264.558 Q482.107 258.192 485.533 254.465 Q488.982 250.715 494.815 250.715 Q500.047 250.715 503.079 254.095 Q506.135 257.452 506.135 263.239 M501.876 261.989 Q501.829 258.493 499.908 256.41 Q498.01 254.327 494.862 254.327 Q491.297 254.327 489.144 256.34 Q487.015 258.354 486.69 262.012 L501.876 261.989 Z" fill="#000000" fill-rule="evenodd" fill-opacity="1" /><path clip-path="url(#clip460)" d="M528.149 255.322 Q527.431 254.905 526.575 254.72 Q525.741 254.512 524.723 254.512 Q521.112 254.512 519.167 256.873 Q517.246 259.211 517.246 263.609 L517.246 277.266 L512.963 277.266 L512.963 251.34 L517.246 251.34 L517.246 255.368 Q518.588 253.007 520.741 251.873 Q522.894 250.715 525.973 250.715 Q526.412 250.715 526.945 250.785 Q527.477 250.831 528.125 250.947 L528.149 255.322 Z" fill="#000000" fill-rule="evenodd" fill-opacity="1" /><path clip-path="url(#clip460)" d="M546.806 255.322 Q546.088 254.905 545.232 254.72 Q544.399 254.512 543.38 254.512 Q539.769 254.512 537.824 256.873 Q535.903 259.211 535.903 263.609 L535.903 277.266 L531.621 277.266 L531.621 251.34 L535.903 251.34 L535.903 255.368 Q537.246 253.007 539.399 251.873 Q541.551 250.715 544.63 250.715 Q545.07 250.715 545.602 250.785 Q546.135 250.831 546.783 250.947 L546.806 255.322 Z" fill="#000000" fill-rule="evenodd" fill-opacity="1" /><path clip-path="url(#clip460)" d="M560.278 254.327 Q556.852 254.327 554.861 257.012 Q552.871 259.674 552.871 264.327 Q552.871 268.979 554.838 271.664 Q556.829 274.326 560.278 274.326 Q563.681 274.326 565.672 271.641 Q567.662 268.956 567.662 264.327 Q567.662 259.72 565.672 257.035 Q563.681 254.327 560.278 254.327 M560.278 250.715 Q565.834 250.715 569.005 254.327 Q572.176 257.938 572.176 264.327 Q572.176 270.692 569.005 274.326 Q565.834 277.938 560.278 277.938 Q554.699 277.938 551.528 274.326 Q548.38 270.692 548.38 264.327 Q548.38 257.938 551.528 254.327 Q554.699 250.715 560.278 250.715 Z" fill="#000000" fill-rule="evenodd" fill-opacity="1" /><path clip-path="url(#clip460)" d="M607.431 241.248 L607.431 244.79 L603.357 244.79 Q601.065 244.79 600.162 245.716 Q599.282 246.641 599.282 249.049 L599.282 251.34 L606.296 251.34 L606.296 254.651 L599.282 254.651 L599.282 277.266 L595 277.266 L595 254.651 L590.926 254.651 L590.926 251.34 L595 251.34 L595 249.535 Q595 245.206 597.014 243.239 Q599.028 241.248 603.403 241.248 L607.431 241.248 Z" fill="#000000" fill-rule="evenodd" fill-opacity="1" /><path clip-path="url(#clip460)" d="M621.042 254.327 Q617.616 254.327 615.625 257.012 Q613.634 259.674 613.634 264.327 Q613.634 268.979 615.602 271.664 Q617.593 274.326 621.042 274.326 Q624.444 274.326 626.435 271.641 Q628.426 268.956 628.426 264.327 Q628.426 259.72 626.435 257.035 Q624.444 254.327 621.042 254.327 M621.042 250.715 Q626.597 250.715 629.768 254.327 Q632.94 257.938 632.94 264.327 Q632.94 270.692 629.768 274.326 Q626.597 277.938 621.042 277.938 Q615.463 277.938 612.292 274.326 Q609.144 270.692 609.144 264.327 Q609.144 257.938 612.292 254.327 Q615.463 250.715 621.042 250.715 Z" fill="#000000" fill-rule="evenodd" fill-opacity="1" /><path clip-path="url(#clip460)" d="M655.023 255.322 Q654.305 254.905 653.449 254.72 Q652.616 254.512 651.597 254.512 Q647.986 254.512 646.041 256.873 Q644.12 259.211 644.12 263.609 L644.12 277.266 L639.838 277.266 L639.838 251.34 L644.12 251.34 L644.12 255.368 Q645.463 253.007 647.616 251.873 Q649.768 250.715 652.847 250.715 Q653.287 250.715 653.819 250.785 Q654.352 250.831 655 250.947 L655.023 255.322 Z" fill="#000000" fill-rule="evenodd" fill-opacity="1" /><path clip-path="url(#clip460)" d="M663.703 243.979 L663.703 251.34 L672.477 251.34 L672.477 254.651 L663.703 254.651 L663.703 268.725 Q663.703 271.896 664.56 272.799 Q665.44 273.701 668.102 273.701 L672.477 273.701 L672.477 277.266 L668.102 277.266 Q663.171 277.266 661.296 275.438 Q659.421 273.586 659.421 268.725 L659.421 254.651 L656.296 254.651 L656.296 251.34 L659.421 251.34 L659.421 243.979 L663.703 243.979 Z" fill="#000000" fill-rule="evenodd" fill-opacity="1" /><path clip-path="url(#clip460)" d="M700.254 263.239 L700.254 265.322 L680.671 265.322 Q680.949 269.72 683.31 272.035 Q685.694 274.326 689.93 274.326 Q692.384 274.326 694.675 273.725 Q696.99 273.123 699.259 271.919 L699.259 275.947 Q696.967 276.919 694.56 277.428 Q692.152 277.938 689.675 277.938 Q683.472 277.938 679.838 274.326 Q676.226 270.715 676.226 264.558 Q676.226 258.192 679.652 254.465 Q683.101 250.715 688.935 250.715 Q694.166 250.715 697.199 254.095 Q700.254 257.452 700.254 263.239 M695.995 261.989 Q695.949 258.493 694.027 256.41 Q692.129 254.327 688.981 254.327 Q685.416 254.327 683.263 256.34 Q681.134 258.354 680.81 262.012 L695.995 261.989 Z" fill="#000000" fill-rule="evenodd" fill-opacity="1" /><path clip-path="url(#clip460)" d="M726.944 273.331 L743.263 273.331 L743.263 277.266 L721.319 277.266 L721.319 273.331 Q723.981 270.576 728.564 265.947 Q733.171 261.294 734.351 259.952 Q736.597 257.428 737.476 255.692 Q738.379 253.933 738.379 252.243 Q738.379 249.489 736.435 247.753 Q734.513 246.016 731.411 246.016 Q729.212 246.016 726.759 246.78 Q724.328 247.544 721.55 249.095 L721.55 244.373 Q724.374 243.239 726.828 242.66 Q729.282 242.081 731.319 242.081 Q736.689 242.081 739.884 244.766 Q743.078 247.452 743.078 251.942 Q743.078 254.072 742.268 255.993 Q741.481 257.891 739.374 260.484 Q738.796 261.155 735.694 264.373 Q732.592 267.567 726.944 273.331 Z" fill="#000000" fill-rule="evenodd" fill-opacity="1" /><path clip-path="url(#clip460)" d="M763.078 245.785 Q759.467 245.785 757.638 249.35 Q755.833 252.891 755.833 260.021 Q755.833 267.127 757.638 270.692 Q759.467 274.234 763.078 274.234 Q766.712 274.234 768.518 270.692 Q770.346 267.127 770.346 260.021 Q770.346 252.891 768.518 249.35 Q766.712 245.785 763.078 245.785 M763.078 242.081 Q768.888 242.081 771.944 246.688 Q775.022 251.271 775.022 260.021 Q775.022 268.748 771.944 273.354 Q768.888 277.938 763.078 277.938 Q757.268 277.938 754.189 273.354 Q751.134 268.748 751.134 260.021 Q751.134 251.271 754.189 246.688 Q757.268 242.081 763.078 242.081 Z" fill="#000000" fill-rule="evenodd" fill-opacity="1" /><path clip-path="url(#clip460)" d="M793.24 245.785 Q789.629 245.785 787.8 249.35 Q785.994 252.891 785.994 260.021 Q785.994 267.127 787.8 270.692 Q789.629 274.234 793.24 274.234 Q796.874 274.234 798.68 270.692 Q800.508 267.127 800.508 260.021 Q800.508 252.891 798.68 249.35 Q796.874 245.785 793.24 245.785 M793.24 242.081 Q799.05 242.081 802.105 246.688 Q805.184 251.271 805.184 260.021 Q805.184 268.748 802.105 273.354 Q799.05 277.938 793.24 277.938 Q787.43 277.938 784.351 273.354 Q781.295 268.748 781.295 260.021 Q781.295 251.271 784.351 246.688 Q787.43 242.081 793.24 242.081 Z" fill="#000000" fill-rule="evenodd" fill-opacity="1" /><path clip-path="url(#clip460)" d="M823.402 245.785 Q819.791 245.785 817.962 249.35 Q816.156 252.891 816.156 260.021 Q816.156 267.127 817.962 270.692 Q819.791 274.234 823.402 274.234 Q827.036 274.234 828.841 270.692 Q830.67 267.127 830.67 260.021 Q830.67 252.891 828.841 249.35 Q827.036 245.785 823.402 245.785 M823.402 242.081 Q829.212 242.081 832.267 246.688 Q835.346 251.271 835.346 260.021 Q835.346 268.748 832.267 273.354 Q829.212 277.938 823.402 277.938 Q817.591 277.938 814.513 273.354 Q811.457 268.748 811.457 260.021 Q811.457 251.271 814.513 246.688 Q817.591 242.081 823.402 242.081 Z" fill="#000000" fill-rule="evenodd" fill-opacity="1" /><path clip-path="url(#clip460)" d="M853.564 245.785 Q849.952 245.785 848.124 249.35 Q846.318 252.891 846.318 260.021 Q846.318 267.127 848.124 270.692 Q849.952 274.234 853.564 274.234 Q857.198 274.234 859.003 270.692 Q860.832 267.127 860.832 260.021 Q860.832 252.891 859.003 249.35 Q857.198 245.785 853.564 245.785 M853.564 242.081 Q859.374 242.081 862.429 246.688 Q865.508 251.271 865.508 260.021 Q865.508 268.748 862.429 273.354 Q859.374 277.938 853.564 277.938 Q847.753 277.938 844.675 273.354 Q841.619 268.748 841.619 260.021 Q841.619 251.271 844.675 246.688 Q847.753 242.081 853.564 242.081 Z" fill="#000000" fill-rule="evenodd" fill-opacity="1" /><path clip-path="url(#clip460)" d="M899.975 264.234 Q894.813 264.234 892.823 265.414 Q890.832 266.595 890.832 269.442 Q890.832 271.711 892.313 273.053 Q893.818 274.373 896.387 274.373 Q899.929 274.373 902.059 271.873 Q904.211 269.35 904.211 265.183 L904.211 264.234 L899.975 264.234 M908.471 262.475 L908.471 277.266 L904.211 277.266 L904.211 273.331 Q902.753 275.692 900.577 276.826 Q898.401 277.938 895.253 277.938 Q891.272 277.938 888.911 275.715 Q886.573 273.47 886.573 269.72 Q886.573 265.345 889.489 263.123 Q892.429 260.901 898.239 260.901 L904.211 260.901 L904.211 260.484 Q904.211 257.544 902.267 255.947 Q900.346 254.327 896.85 254.327 Q894.628 254.327 892.522 254.859 Q890.415 255.391 888.471 256.456 L888.471 252.521 Q890.809 251.618 893.008 251.178 Q895.207 250.715 897.29 250.715 Q902.915 250.715 905.693 253.632 Q908.471 256.549 908.471 262.475 Z" fill="#000000" fill-rule="evenodd" fill-opacity="1" /><path clip-path="url(#clip460)" d="M937.429 256.317 Q939.026 253.447 941.248 252.081 Q943.47 250.715 946.48 250.715 Q950.531 250.715 952.73 253.563 Q954.929 256.387 954.929 261.618 L954.929 277.266 L950.646 277.266 L950.646 261.757 Q950.646 258.03 949.327 256.225 Q948.007 254.419 945.299 254.419 Q941.989 254.419 940.068 256.618 Q938.146 258.817 938.146 262.614 L938.146 277.266 L933.864 277.266 L933.864 261.757 Q933.864 258.007 932.545 256.225 Q931.225 254.419 928.471 254.419 Q925.207 254.419 923.285 256.641 Q921.364 258.84 921.364 262.614 L921.364 277.266 L917.082 277.266 L917.082 251.34 L921.364 251.34 L921.364 255.368 Q922.822 252.984 924.859 251.85 Q926.896 250.715 929.697 250.715 Q932.521 250.715 934.489 252.151 Q936.48 253.586 937.429 256.317 Z" fill="#000000" fill-rule="evenodd" fill-opacity="1" /><path clip-path="url(#clip460)" d="M973.47 254.327 Q970.044 254.327 968.054 257.012 Q966.063 259.674 966.063 264.327 Q966.063 268.979 968.03 271.664 Q970.021 274.326 973.47 274.326 Q976.873 274.326 978.864 271.641 Q980.854 268.956 980.854 264.327 Q980.854 259.72 978.864 257.035 Q976.873 254.327 973.47 254.327 M973.47 250.715 Q979.026 250.715 982.197 254.327 Q985.368 257.938 985.368 264.327 Q985.368 270.692 982.197 274.326 Q979.026 277.938 973.47 277.938 Q967.892 277.938 964.72 274.326 Q961.572 270.692 961.572 264.327 Q961.572 257.938 964.72 254.327 Q967.892 250.715 973.47 250.715 Z" fill="#000000" fill-rule="evenodd" fill-opacity="1" /><path clip-path="url(#clip460)" d="M1008.96 252.104 L1008.96 256.132 Q1007.15 255.206 1005.21 254.743 Q1003.26 254.28 1001.18 254.28 Q998.007 254.28 996.41 255.253 Q994.836 256.225 994.836 258.169 Q994.836 259.651 995.97 260.507 Q997.104 261.34 1000.53 262.104 L1001.99 262.428 Q1006.53 263.401 1008.42 265.183 Q1010.35 266.942 1010.35 270.114 Q1010.35 273.725 1007.47 275.831 Q1004.63 277.938 999.628 277.938 Q997.544 277.938 995.276 277.521 Q993.03 277.127 990.53 276.317 L990.53 271.919 Q992.891 273.146 995.183 273.771 Q997.475 274.373 999.72 274.373 Q1002.73 274.373 1004.35 273.354 Q1005.97 272.313 1005.97 270.438 Q1005.97 268.702 1004.79 267.776 Q1003.63 266.85 999.674 265.993 L998.192 265.646 Q994.234 264.813 992.475 263.1 Q990.716 261.364 990.716 258.354 Q990.716 254.697 993.308 252.706 Q995.901 250.715 1000.67 250.715 Q1003.03 250.715 1005.11 251.063 Q1007.2 251.41 1008.96 252.104 Z" fill="#000000" fill-rule="evenodd" fill-opacity="1" /><path clip-path="url(#clip460)" d="M1021.34 243.979 L1021.34 251.34 L1030.11 251.34 L1030.11 254.651 L1021.34 254.651 L1021.34 268.725 Q1021.34 271.896 1022.2 272.799 Q1023.08 273.701 1025.74 273.701 L1030.11 273.701 L1030.11 277.266 L1025.74 277.266 Q1020.81 277.266 1018.93 275.438 Q1017.06 273.586 1017.06 268.725 L1017.06 254.651 L1013.93 254.651 L1013.93 251.34 L1017.06 251.34 L1017.06 243.979 L1021.34 243.979 Z" fill="#000000" fill-rule="evenodd" fill-opacity="1" /><path clip-path="url(#clip460)" d="M1050.74 255.322 Q1050.02 254.905 1049.16 254.72 Q1048.33 254.512 1047.31 254.512 Q1043.7 254.512 1041.76 256.873 Q1039.84 259.211 1039.84 263.609 L1039.84 277.266 L1035.55 277.266 L1035.55 251.34 L1039.84 251.34 L1039.84 255.368 Q1041.18 253.007 1043.33 251.873 Q1045.48 250.715 1048.56 250.715 Q1049 250.715 1049.53 250.785 Q1050.07 250.831 1050.72 250.947 L1050.74 255.322 Z" fill="#000000" fill-rule="evenodd" fill-opacity="1" /><path clip-path="url(#clip460)" d="M1066.99 264.234 Q1061.83 264.234 1059.84 265.414 Q1057.84 266.595 1057.84 269.442 Q1057.84 271.711 1059.33 273.053 Q1060.83 274.373 1063.4 274.373 Q1066.94 274.373 1069.07 271.873 Q1071.22 269.35 1071.22 265.183 L1071.22 264.234 L1066.99 264.234 M1075.48 262.475 L1075.48 277.266 L1071.22 277.266 L1071.22 273.331 Q1069.77 275.692 1067.59 276.826 Q1065.41 277.938 1062.27 277.938 Q1058.28 277.938 1055.92 275.715 Q1053.59 273.47 1053.59 269.72 Q1053.59 265.345 1056.5 263.123 Q1059.44 260.901 1065.25 260.901 L1071.22 260.901 L1071.22 260.484 Q1071.22 257.544 1069.28 255.947 Q1067.36 254.327 1063.86 254.327 Q1061.64 254.327 1059.53 254.859 Q1057.43 255.391 1055.48 256.456 L1055.48 252.521 Q1057.82 251.618 1060.02 251.178 Q1062.22 250.715 1064.3 250.715 Q1069.93 250.715 1072.71 253.632 Q1075.48 256.549 1075.48 262.475 Z" fill="#000000" fill-rule="evenodd" fill-opacity="1" /><path clip-path="url(#clip460)" d="M1100.78 252.104 L1100.78 256.132 Q1098.98 255.206 1097.03 254.743 Q1095.09 254.28 1093.01 254.28 Q1089.84 254.28 1088.24 255.253 Q1086.66 256.225 1086.66 258.169 Q1086.66 259.651 1087.8 260.507 Q1088.93 261.34 1092.36 262.104 L1093.82 262.428 Q1098.35 263.401 1100.25 265.183 Q1102.17 266.942 1102.17 270.114 Q1102.17 273.725 1099.3 275.831 Q1096.46 277.938 1091.46 277.938 Q1089.37 277.938 1087.1 277.521 Q1084.86 277.127 1082.36 276.317 L1082.36 271.919 Q1084.72 273.146 1087.01 273.771 Q1089.3 274.373 1091.55 274.373 Q1094.56 274.373 1096.18 273.354 Q1097.8 272.313 1097.8 270.438 Q1097.8 268.702 1096.62 267.776 Q1095.46 266.85 1091.5 265.993 L1090.02 265.646 Q1086.06 264.813 1084.3 263.1 Q1082.54 261.364 1082.54 258.354 Q1082.54 254.697 1085.14 252.706 Q1087.73 250.715 1092.5 250.715 Q1094.86 250.715 1096.94 251.063 Q1099.03 251.41 1100.78 252.104 Z" fill="#000000" fill-rule="evenodd" fill-opacity="1" /><path clip-path="url(#clip460)" d="M387.391 286.226 L381.375 303.532 L363.045 303.916 L377.663 315.001 L372.338 332.537 L387.391 322.066 L402.444 332.537 L397.119 315.001 L411.736 303.916 L393.407 303.532 L387.391 286.226 Z" fill="#e26f46" fill-rule="evenodd" fill-opacity="1" stroke="#000000" stroke-opacity="1" stroke-width="0"/>
<path clip-path="url(#clip460)" d="M506.135 315.079 L506.135 317.162 L486.552 317.162 Q486.829 321.56 489.19 323.875 Q491.575 326.166 495.811 326.166 Q498.264 326.166 500.556 325.565 Q502.871 324.963 505.139 323.759 L505.139 327.787 Q502.848 328.759 500.44 329.268 Q498.033 329.778 495.556 329.778 Q489.352 329.778 485.718 326.166 Q482.107 322.555 482.107 316.398 Q482.107 310.032 485.533 306.305 Q488.982 302.555 494.815 302.555 Q500.047 302.555 503.079 305.935 Q506.135 309.292 506.135 315.079 M501.876 313.829 Q501.829 310.333 499.908 308.25 Q498.01 306.167 494.862 306.167 Q491.297 306.167 489.144 308.18 Q487.015 310.194 486.69 313.852 L501.876 313.829 Z" fill="#000000" fill-rule="evenodd" fill-opacity="1" /><path clip-path="url(#clip460)" d="M528.149 307.162 Q527.431 306.745 526.575 306.56 Q525.741 306.352 524.723 306.352 Q521.112 306.352 519.167 308.713 Q517.246 311.051 517.246 315.449 L517.246 329.106 L512.963 329.106 L512.963 303.18 L517.246 303.18 L517.246 307.208 Q518.588 304.847 520.741 303.713 Q522.894 302.555 525.973 302.555 Q526.412 302.555 526.945 302.625 Q527.477 302.671 528.125 302.787 L528.149 307.162 Z" fill="#000000" fill-rule="evenodd" fill-opacity="1" /><path clip-path="url(#clip460)" d="M546.806 307.162 Q546.088 306.745 545.232 306.56 Q544.399 306.352 543.38 306.352 Q539.769 306.352 537.824 308.713 Q535.903 311.051 535.903 315.449 L535.903 329.106 L531.621 329.106 L531.621 303.18 L535.903 303.18 L535.903 307.208 Q537.246 304.847 539.399 303.713 Q541.551 302.555 544.63 302.555 Q545.07 302.555 545.602 302.625 Q546.135 302.671 546.783 302.787 L546.806 307.162 Z" fill="#000000" fill-rule="evenodd" fill-opacity="1" /><path clip-path="url(#clip460)" d="M560.278 306.167 Q556.852 306.167 554.861 308.852 Q552.871 311.514 552.871 316.167 Q552.871 320.819 554.838 323.504 Q556.829 326.166 560.278 326.166 Q563.681 326.166 565.672 323.481 Q567.662 320.796 567.662 316.167 Q567.662 311.56 565.672 308.875 Q563.681 306.167 560.278 306.167 M560.278 302.555 Q565.834 302.555 569.005 306.167 Q572.176 309.778 572.176 316.167 Q572.176 322.532 569.005 326.166 Q565.834 329.778 560.278 329.778 Q554.699 329.778 551.528 326.166 Q548.38 322.532 548.38 316.167 Q548.38 309.778 551.528 306.167 Q554.699 302.555 560.278 302.555 Z" fill="#000000" fill-rule="evenodd" fill-opacity="1" /><path clip-path="url(#clip460)" d="M607.431 293.088 L607.431 296.63 L603.357 296.63 Q601.065 296.63 600.162 297.556 Q599.282 298.481 599.282 300.889 L599.282 303.18 L606.296 303.18 L606.296 306.491 L599.282 306.491 L599.282 329.106 L595 329.106 L595 306.491 L590.926 306.491 L590.926 303.18 L595 303.18 L595 301.375 Q595 297.046 597.014 295.079 Q599.028 293.088 603.403 293.088 L607.431 293.088 Z" fill="#000000" fill-rule="evenodd" fill-opacity="1" /><path clip-path="url(#clip460)" d="M621.042 306.167 Q617.616 306.167 615.625 308.852 Q613.634 311.514 613.634 316.167 Q613.634 320.819 615.602 323.504 Q617.593 326.166 621.042 326.166 Q624.444 326.166 626.435 323.481 Q628.426 320.796 628.426 316.167 Q628.426 311.56 626.435 308.875 Q624.444 306.167 621.042 306.167 M621.042 302.555 Q626.597 302.555 629.768 306.167 Q632.94 309.778 632.94 316.167 Q632.94 322.532 629.768 326.166 Q626.597 329.778 621.042 329.778 Q615.463 329.778 612.292 326.166 Q609.144 322.532 609.144 316.167 Q609.144 309.778 612.292 306.167 Q615.463 302.555 621.042 302.555 Z" fill="#000000" fill-rule="evenodd" fill-opacity="1" /><path clip-path="url(#clip460)" d="M655.023 307.162 Q654.305 306.745 653.449 306.56 Q652.616 306.352 651.597 306.352 Q647.986 306.352 646.041 308.713 Q644.12 311.051 644.12 315.449 L644.12 329.106 L639.838 329.106 L639.838 303.18 L644.12 303.18 L644.12 307.208 Q645.463 304.847 647.616 303.713 Q649.768 302.555 652.847 302.555 Q653.287 302.555 653.819 302.625 Q654.352 302.671 655 302.787 L655.023 307.162 Z" fill="#000000" fill-rule="evenodd" fill-opacity="1" /><path clip-path="url(#clip460)" d="M663.703 295.819 L663.703 303.18 L672.477 303.18 L672.477 306.491 L663.703 306.491 L663.703 320.565 Q663.703 323.736 664.56 324.639 Q665.44 325.541 668.102 325.541 L672.477 325.541 L672.477 329.106 L668.102 329.106 Q663.171 329.106 661.296 327.278 Q659.421 325.426 659.421 320.565 L659.421 306.491 L656.296 306.491 L656.296 303.18 L659.421 303.18 L659.421 295.819 L663.703 295.819 Z" fill="#000000" fill-rule="evenodd" fill-opacity="1" /><path clip-path="url(#clip460)" d="M700.254 315.079 L700.254 317.162 L680.671 317.162 Q680.949 321.56 683.31 323.875 Q685.694 326.166 689.93 326.166 Q692.384 326.166 694.675 325.565 Q696.99 324.963 699.259 323.759 L699.259 327.787 Q696.967 328.759 694.56 329.268 Q692.152 329.778 689.675 329.778 Q683.472 329.778 679.838 326.166 Q676.226 322.555 676.226 316.398 Q676.226 310.032 679.652 306.305 Q683.101 302.555 688.935 302.555 Q694.166 302.555 697.199 305.935 Q700.254 309.292 700.254 315.079 M695.995 313.829 Q695.949 310.333 694.027 308.25 Q692.129 306.167 688.981 306.167 Q685.416 306.167 683.263 308.18 Q681.134 310.194 680.81 313.852 L695.995 313.829 Z" fill="#000000" fill-rule="evenodd" fill-opacity="1" /><path clip-path="url(#clip460)" d="M726.944 325.171 L743.263 325.171 L743.263 329.106 L721.319 329.106 L721.319 325.171 Q723.981 322.416 728.564 317.787 Q733.171 313.134 734.351 311.792 Q736.597 309.268 737.476 307.532 Q738.379 305.773 738.379 304.083 Q738.379 301.329 736.435 299.593 Q734.513 297.856 731.411 297.856 Q729.212 297.856 726.759 298.62 Q724.328 299.384 721.55 300.935 L721.55 296.213 Q724.374 295.079 726.828 294.5 Q729.282 293.921 731.319 293.921 Q736.689 293.921 739.884 296.606 Q743.078 299.292 743.078 303.782 Q743.078 305.912 742.268 307.833 Q741.481 309.731 739.374 312.324 Q738.796 312.995 735.694 316.213 Q732.592 319.407 726.944 325.171 Z" fill="#000000" fill-rule="evenodd" fill-opacity="1" /><path clip-path="url(#clip460)" d="M763.078 297.625 Q759.467 297.625 757.638 301.19 Q755.833 304.731 755.833 311.861 Q755.833 318.967 757.638 322.532 Q759.467 326.074 763.078 326.074 Q766.712 326.074 768.518 322.532 Q770.346 318.967 770.346 311.861 Q770.346 304.731 768.518 301.19 Q766.712 297.625 763.078 297.625 M763.078 293.921 Q768.888 293.921 771.944 298.528 Q775.022 303.111 775.022 311.861 Q775.022 320.588 771.944 325.194 Q768.888 329.778 763.078 329.778 Q757.268 329.778 754.189 325.194 Q751.134 320.588 751.134 311.861 Q751.134 303.111 754.189 298.528 Q757.268 293.921 763.078 293.921 Z" fill="#000000" fill-rule="evenodd" fill-opacity="1" /><path clip-path="url(#clip460)" d="M793.24 297.625 Q789.629 297.625 787.8 301.19 Q785.994 304.731 785.994 311.861 Q785.994 318.967 787.8 322.532 Q789.629 326.074 793.24 326.074 Q796.874 326.074 798.68 322.532 Q800.508 318.967 800.508 311.861 Q800.508 304.731 798.68 301.19 Q796.874 297.625 793.24 297.625 M793.24 293.921 Q799.05 293.921 802.105 298.528 Q805.184 303.111 805.184 311.861 Q805.184 320.588 802.105 325.194 Q799.05 329.778 793.24 329.778 Q787.43 329.778 784.351 325.194 Q781.295 320.588 781.295 311.861 Q781.295 303.111 784.351 298.528 Q787.43 293.921 793.24 293.921 Z" fill="#000000" fill-rule="evenodd" fill-opacity="1" /><path clip-path="url(#clip460)" d="M839.652 316.074 Q834.49 316.074 832.499 317.254 Q830.508 318.435 830.508 321.282 Q830.508 323.551 831.99 324.893 Q833.494 326.213 836.064 326.213 Q839.605 326.213 841.735 323.713 Q843.888 321.19 843.888 317.023 L843.888 316.074 L839.652 316.074 M848.147 314.315 L848.147 329.106 L843.888 329.106 L843.888 325.171 Q842.429 327.532 840.253 328.666 Q838.077 329.778 834.929 329.778 Q830.948 329.778 828.587 327.555 Q826.249 325.31 826.249 321.56 Q826.249 317.185 829.165 314.963 Q832.105 312.741 837.915 312.741 L843.888 312.741 L843.888 312.324 Q843.888 309.384 841.943 307.787 Q840.022 306.167 836.527 306.167 Q834.304 306.167 832.198 306.699 Q830.091 307.231 828.147 308.296 L828.147 304.361 Q830.485 303.458 832.684 303.018 Q834.883 302.555 836.966 302.555 Q842.591 302.555 845.369 305.472 Q848.147 308.389 848.147 314.315 Z" fill="#000000" fill-rule="evenodd" fill-opacity="1" /><path clip-path="url(#clip460)" d="M877.105 308.157 Q878.702 305.287 880.924 303.921 Q883.147 302.555 886.156 302.555 Q890.207 302.555 892.406 305.403 Q894.605 308.227 894.605 313.458 L894.605 329.106 L890.323 329.106 L890.323 313.597 Q890.323 309.87 889.003 308.065 Q887.684 306.259 884.975 306.259 Q881.665 306.259 879.744 308.458 Q877.823 310.657 877.823 314.454 L877.823 329.106 L873.54 329.106 L873.54 313.597 Q873.54 309.847 872.221 308.065 Q870.901 306.259 868.147 306.259 Q864.883 306.259 862.962 308.481 Q861.04 310.68 861.04 314.454 L861.04 329.106 L856.758 329.106 L856.758 303.18 L861.04 303.18 L861.04 307.208 Q862.499 304.824 864.536 303.69 Q866.573 302.555 869.374 302.555 Q872.198 302.555 874.165 303.991 Q876.156 305.426 877.105 308.157 Z" fill="#000000" fill-rule="evenodd" fill-opacity="1" /><path clip-path="url(#clip460)" d="M913.147 306.167 Q909.721 306.167 907.73 308.852 Q905.739 311.514 905.739 316.167 Q905.739 320.819 907.707 323.504 Q909.697 326.166 913.147 326.166 Q916.549 326.166 918.54 323.481 Q920.531 320.796 920.531 316.167 Q920.531 311.56 918.54 308.875 Q916.549 306.167 913.147 306.167 M913.147 302.555 Q918.702 302.555 921.873 306.167 Q925.045 309.778 925.045 316.167 Q925.045 322.532 921.873 326.166 Q918.702 329.778 913.147 329.778 Q907.568 329.778 904.397 326.166 Q901.248 322.532 901.248 316.167 Q901.248 309.778 904.397 306.167 Q907.568 302.555 913.147 302.555 Z" fill="#000000" fill-rule="evenodd" fill-opacity="1" /><path clip-path="url(#clip460)" d="M948.632 303.944 L948.632 307.972 Q946.827 307.046 944.882 306.583 Q942.938 306.12 940.855 306.12 Q937.683 306.12 936.086 307.093 Q934.512 308.065 934.512 310.009 Q934.512 311.491 935.646 312.347 Q936.781 313.18 940.207 313.944 L941.665 314.268 Q946.202 315.241 948.1 317.023 Q950.021 318.782 950.021 321.954 Q950.021 325.565 947.151 327.671 Q944.304 329.778 939.304 329.778 Q937.22 329.778 934.952 329.361 Q932.707 328.967 930.207 328.157 L930.207 323.759 Q932.568 324.986 934.859 325.611 Q937.151 326.213 939.396 326.213 Q942.406 326.213 944.026 325.194 Q945.646 324.153 945.646 322.278 Q945.646 320.542 944.466 319.616 Q943.308 318.69 939.35 317.833 L937.869 317.486 Q933.91 316.653 932.151 314.94 Q930.392 313.204 930.392 310.194 Q930.392 306.537 932.984 304.546 Q935.577 302.555 940.345 302.555 Q942.707 302.555 944.79 302.903 Q946.873 303.25 948.632 303.944 Z" fill="#000000" fill-rule="evenodd" fill-opacity="1" /><path clip-path="url(#clip460)" d="M961.017 295.819 L961.017 303.18 L969.79 303.18 L969.79 306.491 L961.017 306.491 L961.017 320.565 Q961.017 323.736 961.873 324.639 Q962.753 325.541 965.415 325.541 L969.79 325.541 L969.79 329.106 L965.415 329.106 Q960.484 329.106 958.609 327.278 Q956.734 325.426 956.734 320.565 L956.734 306.491 L953.609 306.491 L953.609 303.18 L956.734 303.18 L956.734 295.819 L961.017 295.819 Z" fill="#000000" fill-rule="evenodd" fill-opacity="1" /><path clip-path="url(#clip460)" d="M990.415 307.162 Q989.697 306.745 988.841 306.56 Q988.007 306.352 986.989 306.352 Q983.378 306.352 981.433 308.713 Q979.512 311.051 979.512 315.449 L979.512 329.106 L975.23 329.106 L975.23 303.18 L979.512 303.18 L979.512 307.208 Q980.854 304.847 983.007 303.713 Q985.16 302.555 988.239 302.555 Q988.679 302.555 989.211 302.625 Q989.743 302.671 990.391 302.787 L990.415 307.162 Z" fill="#000000" fill-rule="evenodd" fill-opacity="1" /><path clip-path="url(#clip460)" d="M1006.66 316.074 Q1001.5 316.074 999.512 317.254 Q997.521 318.435 997.521 321.282 Q997.521 323.551 999.003 324.893 Q1000.51 326.213 1003.08 326.213 Q1006.62 326.213 1008.75 323.713 Q1010.9 321.19 1010.9 317.023 L1010.9 316.074 L1006.66 316.074 M1015.16 314.315 L1015.16 329.106 L1010.9 329.106 L1010.9 325.171 Q1009.44 327.532 1007.27 328.666 Q1005.09 329.778 1001.94 329.778 Q997.961 329.778 995.6 327.555 Q993.262 325.31 993.262 321.56 Q993.262 317.185 996.178 314.963 Q999.118 312.741 1004.93 312.741 L1010.9 312.741 L1010.9 312.324 Q1010.9 309.384 1008.96 307.787 Q1007.03 306.167 1003.54 306.167 Q1001.32 306.167 999.211 306.699 Q997.104 307.231 995.16 308.296 L995.16 304.361 Q997.498 303.458 999.697 303.018 Q1001.9 302.555 1003.98 302.555 Q1009.6 302.555 1012.38 305.472 Q1015.16 308.389 1015.16 314.315 Z" fill="#000000" fill-rule="evenodd" fill-opacity="1" /><path clip-path="url(#clip460)" d="M1040.46 303.944 L1040.46 307.972 Q1038.66 307.046 1036.71 306.583 Q1034.77 306.12 1032.68 306.12 Q1029.51 306.12 1027.91 307.093 Q1026.34 308.065 1026.34 310.009 Q1026.34 311.491 1027.47 312.347 Q1028.61 313.18 1032.03 313.944 L1033.49 314.268 Q1038.03 315.241 1039.93 317.023 Q1041.85 318.782 1041.85 321.954 Q1041.85 325.565 1038.98 327.671 Q1036.13 329.778 1031.13 329.778 Q1029.05 329.778 1026.78 329.361 Q1024.53 328.967 1022.03 328.157 L1022.03 323.759 Q1024.4 324.986 1026.69 325.611 Q1028.98 326.213 1031.22 326.213 Q1034.23 326.213 1035.85 325.194 Q1037.47 324.153 1037.47 322.278 Q1037.47 320.542 1036.29 319.616 Q1035.14 318.69 1031.18 317.833 L1029.7 317.486 Q1025.74 316.653 1023.98 314.94 Q1022.22 313.204 1022.22 310.194 Q1022.22 306.537 1024.81 304.546 Q1027.41 302.555 1032.17 302.555 Q1034.53 302.555 1036.62 302.903 Q1038.7 303.25 1040.46 303.944 Z" fill="#000000" fill-rule="evenodd" fill-opacity="1" /><polyline clip-path="url(#clip460)" style="stroke:#3da44d; stroke-linecap:butt; stroke-linejoin:round; stroke-width:4; stroke-opacity:1; fill:none" stroke-dasharray="16, 10" points="
  316.353,363.666 458.428,363.666 
  "/>
<path clip-path="url(#clip460)" d="M495.51 367.914 Q490.348 367.914 488.357 369.094 Q486.366 370.275 486.366 373.122 Q486.366 375.391 487.848 376.733 Q489.352 378.053 491.922 378.053 Q495.464 378.053 497.593 375.553 Q499.746 373.03 499.746 368.863 L499.746 367.914 L495.51 367.914 M504.005 366.155 L504.005 380.946 L499.746 380.946 L499.746 377.011 Q498.288 379.372 496.112 380.506 Q493.936 381.618 490.788 381.618 Q486.806 381.618 484.445 379.395 Q482.107 377.15 482.107 373.4 Q482.107 369.025 485.024 366.803 Q487.964 364.581 493.774 364.581 L499.746 364.581 L499.746 364.164 Q499.746 361.224 497.802 359.627 Q495.88 358.007 492.385 358.007 Q490.163 358.007 488.056 358.539 Q485.95 359.071 484.005 360.136 L484.005 356.201 Q486.343 355.298 488.542 354.858 Q490.741 354.395 492.825 354.395 Q498.45 354.395 501.227 357.312 Q504.005 360.229 504.005 366.155 Z" fill="#000000" fill-rule="evenodd" fill-opacity="1" /><path clip-path="url(#clip460)" d="M512.778 355.02 L517.038 355.02 L517.038 381.409 Q517.038 386.363 515.139 388.585 Q513.264 390.807 509.075 390.807 L507.454 390.807 L507.454 387.196 L508.589 387.196 Q511.019 387.196 511.899 386.062 Q512.778 384.951 512.778 381.409 L512.778 355.02 M512.778 344.928 L517.038 344.928 L517.038 350.321 L512.778 350.321 L512.778 344.928 Z" fill="#000000" fill-rule="evenodd" fill-opacity="1" /><path clip-path="url(#clip460)" d="M525.51 370.715 L525.51 355.02 L529.769 355.02 L529.769 370.553 Q529.769 374.233 531.204 376.085 Q532.639 377.914 535.51 377.914 Q538.959 377.914 540.949 375.715 Q542.963 373.516 542.963 369.719 L542.963 355.02 L547.223 355.02 L547.223 380.946 L542.963 380.946 L542.963 376.965 Q541.412 379.326 539.352 380.483 Q537.315 381.618 534.607 381.618 Q530.139 381.618 527.825 378.84 Q525.51 376.062 525.51 370.715 M536.227 354.395 L536.227 354.395 Z" fill="#000000" fill-rule="evenodd" fill-opacity="1" /><path clip-path="url(#clip460)" d="M572.523 355.784 L572.523 359.812 Q570.718 358.886 568.773 358.423 Q566.829 357.96 564.746 357.96 Q561.574 357.96 559.977 358.933 Q558.403 359.905 558.403 361.849 Q558.403 363.331 559.537 364.187 Q560.672 365.02 564.097 365.784 L565.556 366.108 Q570.093 367.081 571.991 368.863 Q573.912 370.622 573.912 373.794 Q573.912 377.405 571.042 379.511 Q568.195 381.618 563.195 381.618 Q561.111 381.618 558.843 381.201 Q556.598 380.807 554.098 379.997 L554.098 375.599 Q556.459 376.826 558.75 377.451 Q561.042 378.053 563.287 378.053 Q566.297 378.053 567.917 377.034 Q569.537 375.993 569.537 374.118 Q569.537 372.382 568.357 371.456 Q567.199 370.53 563.241 369.673 L561.76 369.326 Q557.801 368.493 556.042 366.78 Q554.283 365.044 554.283 362.034 Q554.283 358.377 556.875 356.386 Q559.468 354.395 564.236 354.395 Q566.597 354.395 568.681 354.743 Q570.764 355.09 572.523 355.784 Z" fill="#000000" fill-rule="evenodd" fill-opacity="1" /><path clip-path="url(#clip460)" d="M584.908 347.659 L584.908 355.02 L593.681 355.02 L593.681 358.331 L584.908 358.331 L584.908 372.405 Q584.908 375.576 585.764 376.479 Q586.644 377.381 589.306 377.381 L593.681 377.381 L593.681 380.946 L589.306 380.946 Q584.375 380.946 582.5 379.118 Q580.625 377.266 580.625 372.405 L580.625 358.331 L577.5 358.331 L577.5 355.02 L580.625 355.02 L580.625 347.659 L584.908 347.659 Z" fill="#000000" fill-rule="evenodd" fill-opacity="1" /><path clip-path="url(#clip460)" d="M621.458 366.919 L621.458 369.002 L601.875 369.002 Q602.153 373.4 604.514 375.715 Q606.898 378.006 611.134 378.006 Q613.588 378.006 615.88 377.405 Q618.194 376.803 620.463 375.599 L620.463 379.627 Q618.171 380.599 615.764 381.108 Q613.356 381.618 610.88 381.618 Q604.676 381.618 601.042 378.006 Q597.431 374.395 597.431 368.238 Q597.431 361.872 600.857 358.145 Q604.306 354.395 610.139 354.395 Q615.37 354.395 618.403 357.775 Q621.458 361.132 621.458 366.919 M617.199 365.669 Q617.153 362.173 615.231 360.09 Q613.333 358.007 610.185 358.007 Q606.62 358.007 604.468 360.02 Q602.338 362.034 602.014 365.692 L617.199 365.669 Z" fill="#000000" fill-rule="evenodd" fill-opacity="1" /><path clip-path="url(#clip460)" d="M643.518 344.928 L647.778 344.928 L647.778 380.946 L643.518 380.946 L643.518 344.928 Z" fill="#000000" fill-rule="evenodd" fill-opacity="1" /><path clip-path="url(#clip460)" d="M656.69 355.02 L660.949 355.02 L660.949 380.946 L656.69 380.946 L656.69 355.02 M656.69 344.928 L660.949 344.928 L660.949 350.321 L656.69 350.321 L656.69 344.928 Z" fill="#000000" fill-rule="evenodd" fill-opacity="1" /><path clip-path="url(#clip460)" d="M691.412 365.298 L691.412 380.946 L687.152 380.946 L687.152 365.437 Q687.152 361.757 685.717 359.928 Q684.282 358.099 681.412 358.099 Q677.963 358.099 675.972 360.298 Q673.981 362.497 673.981 366.294 L673.981 380.946 L669.699 380.946 L669.699 355.02 L673.981 355.02 L673.981 359.048 Q675.509 356.71 677.569 355.553 Q679.652 354.395 682.361 354.395 Q686.828 354.395 689.12 357.173 Q691.412 359.928 691.412 365.298 Z" fill="#000000" fill-rule="evenodd" fill-opacity="1" /><path clip-path="url(#clip460)" d="M722.083 366.919 L722.083 369.002 L702.5 369.002 Q702.777 373.4 705.138 375.715 Q707.523 378.006 711.759 378.006 Q714.212 378.006 716.504 377.405 Q718.819 376.803 721.087 375.599 L721.087 379.627 Q718.796 380.599 716.388 381.108 Q713.981 381.618 711.504 381.618 Q705.3 381.618 701.666 378.006 Q698.055 374.395 698.055 368.238 Q698.055 361.872 701.481 358.145 Q704.93 354.395 710.763 354.395 Q715.995 354.395 719.027 357.775 Q722.083 361.132 722.083 366.919 M717.823 365.669 Q717.777 362.173 715.856 360.09 Q713.958 358.007 710.81 358.007 Q707.245 358.007 705.092 360.02 Q702.962 362.034 702.638 365.692 L717.823 365.669 Z" fill="#000000" fill-rule="evenodd" fill-opacity="1" /><path clip-path="url(#clip460)" d="M740.856 367.914 Q735.694 367.914 733.703 369.094 Q731.712 370.275 731.712 373.122 Q731.712 375.391 733.194 376.733 Q734.698 378.053 737.268 378.053 Q740.809 378.053 742.939 375.553 Q745.092 373.03 745.092 368.863 L745.092 367.914 L740.856 367.914 M749.351 366.155 L749.351 380.946 L745.092 380.946 L745.092 377.011 Q743.634 379.372 741.458 380.506 Q739.282 381.618 736.134 381.618 Q732.152 381.618 729.791 379.395 Q727.453 377.15 727.453 373.4 Q727.453 369.025 730.37 366.803 Q733.31 364.581 739.12 364.581 L745.092 364.581 L745.092 364.164 Q745.092 361.224 743.147 359.627 Q741.226 358.007 737.731 358.007 Q735.509 358.007 733.402 358.539 Q731.296 359.071 729.351 360.136 L729.351 356.201 Q731.689 355.298 733.888 354.858 Q736.087 354.395 738.171 354.395 Q743.796 354.395 746.573 357.312 Q749.351 360.229 749.351 366.155 Z" fill="#000000" fill-rule="evenodd" fill-opacity="1" /><path clip-path="url(#clip460)" d="M773.147 359.002 Q772.43 358.585 771.573 358.4 Q770.74 358.192 769.721 358.192 Q766.11 358.192 764.166 360.553 Q762.245 362.891 762.245 367.289 L762.245 380.946 L757.962 380.946 L757.962 355.02 L762.245 355.02 L762.245 359.048 Q763.587 356.687 765.74 355.553 Q767.893 354.395 770.971 354.395 Q771.411 354.395 771.944 354.465 Q772.476 354.511 773.124 354.627 L773.147 359.002 Z" fill="#000000" fill-rule="evenodd" fill-opacity="1" /></svg>
