<?xml version="1.0" encoding="utf-8"?>
<svg xmlns="http://www.w3.org/2000/svg" xmlns:xlink="http://www.w3.org/1999/xlink" width="600" height="400" viewBox="0 0 2400 1600">
<defs>
  <clipPath id="clip650">
    <rect x="0" y="0" width="2400" height="1600"/>
  </clipPath>
</defs>
<path clip-path="url(#clip650)" d="
M0 1600 L2400 1600 L2400 0 L0 0  Z
  " fill="#ffffff" fill-rule="evenodd" fill-opacity="1"/>
<defs>
  <clipPath id="clip651">
    <rect x="480" y="0" width="1681" height="1600"/>
  </clipPath>
</defs>
<path clip-path="url(#clip650)" d="
M221.637 1410.9 L2352.76 1410.9 L2352.76 166.672 L221.637 166.672  Z
  " fill="#eaeaea" fill-rule="evenodd" fill-opacity="1"/>
<defs>
  <clipPath id="clip652">
    <rect x="221" y="166" width="2132" height="1245"/>
  </clipPath>
</defs>
<polyline clip-path="url(#clip652)" style="stroke:#ffffff; stroke-linecap:butt; stroke-linejoin:round; stroke-width:4; stroke-opacity:1; fill:none" points="
  816.99,1410.9 816.99,166.672 
  "/>
<polyline clip-path="url(#clip652)" style="stroke:#ffffff; stroke-linecap:butt; stroke-linejoin:round; stroke-width:4; stroke-opacity:1; fill:none" points="
  1481.11,1410.9 1481.11,166.672 
  "/>
<polyline clip-path="url(#clip652)" style="stroke:#ffffff; stroke-linecap:butt; stroke-linejoin:round; stroke-width:4; stroke-opacity:1; fill:none" points="
  2145.23,1410.9 2145.23,166.672 
  "/>
<polyline clip-path="url(#clip650)" style="stroke:#ffffff; stroke-linecap:butt; stroke-linejoin:round; stroke-width:4; stroke-opacity:1; fill:none" points="
  221.637,1410.9 2352.76,1410.9 
  "/>
<polyline clip-path="url(#clip650)" style="stroke:#333333; stroke-linecap:butt; stroke-linejoin:round; stroke-width:4; stroke-opacity:1; fill:none" points="
  816.99,1410.9 816.99,1429.79 
  "/>
<polyline clip-path="url(#clip650)" style="stroke:#333333; stroke-linecap:butt; stroke-linejoin:round; stroke-width:4; stroke-opacity:1; fill:none" points="
  1481.11,1410.9 1481.11,1429.79 
  "/>
<polyline clip-path="url(#clip650)" style="stroke:#333333; stroke-linecap:butt; stroke-linejoin:round; stroke-width:4; stroke-opacity:1; fill:none" points="
  2145.23,1410.9 2145.23,1429.79 
  "/>
<path clip-path="url(#clip650)" d="M748.636 1494.62 L756.275 1494.62 L756.275 1468.26 L747.965 1469.92 L747.965 1465.66 L756.229 1464 L760.905 1464 L760.905 1494.62 L768.544 1494.62 L768.544 1498.56 L748.636 1498.56 L748.636 1494.62 Z" fill="#4c4c4c" fill-rule="evenodd" fill-opacity="1" /><path clip-path="url(#clip650)" d="M787.988 1467.08 Q784.377 1467.08 782.548 1470.64 Q780.743 1474.18 780.743 1481.31 Q780.743 1488.42 782.548 1491.98 Q784.377 1495.52 787.988 1495.52 Q791.622 1495.52 793.428 1491.98 Q795.256 1488.42 795.256 1481.31 Q795.256 1474.18 793.428 1470.64 Q791.622 1467.08 787.988 1467.08 M787.988 1463.37 Q793.798 1463.37 796.854 1467.98 Q799.932 1472.56 799.932 1481.31 Q799.932 1490.04 796.854 1494.64 Q793.798 1499.23 787.988 1499.23 Q782.178 1499.23 779.099 1494.64 Q776.044 1490.04 776.044 1481.31 Q776.044 1472.56 779.099 1467.98 Q782.178 1463.37 787.988 1463.37 Z" fill="#4c4c4c" fill-rule="evenodd" fill-opacity="1" /><path clip-path="url(#clip650)" d="M799.932 1457.47 L824.044 1457.47 L824.044 1460.67 L799.932 1460.67 L799.932 1457.47 Z" fill="#4c4c4c" fill-rule="evenodd" fill-opacity="1" /><path clip-path="url(#clip650)" d="M835.517 1467.95 L848.776 1467.95 L848.776 1471.15 L830.946 1471.15 L830.946 1467.95 Q833.109 1465.71 836.833 1461.95 Q840.576 1458.17 841.535 1457.08 Q843.359 1455.03 844.074 1453.62 Q844.808 1452.19 844.808 1450.82 Q844.808 1448.58 843.228 1447.17 Q841.667 1445.76 839.147 1445.76 Q837.36 1445.76 835.366 1446.38 Q833.391 1447 831.134 1448.26 L831.134 1444.42 Q833.429 1443.5 835.423 1443.03 Q837.416 1442.56 839.071 1442.56 Q843.435 1442.56 846.03 1444.74 Q848.626 1446.92 848.626 1450.57 Q848.626 1452.3 847.967 1453.86 Q847.328 1455.4 845.616 1457.51 Q845.146 1458.06 842.626 1460.67 Q840.106 1463.27 835.517 1467.95 Z" fill="#4c4c4c" fill-rule="evenodd" fill-opacity="1" /><path clip-path="url(#clip650)" d="M856.751 1466.37 L860.719 1466.37 L860.719 1471.15 L856.751 1471.15 L856.751 1466.37 Z" fill="#4c4c4c" fill-rule="evenodd" fill-opacity="1" /><path clip-path="url(#clip650)" d="M869.032 1443.07 L883.947 1443.07 L883.947 1446.26 L872.512 1446.26 L872.512 1453.15 Q873.339 1452.87 874.167 1452.73 Q874.994 1452.58 875.822 1452.58 Q880.524 1452.58 883.27 1455.16 Q886.015 1457.74 886.015 1462.14 Q886.015 1466.67 883.194 1469.19 Q880.373 1471.69 875.239 1471.69 Q873.471 1471.69 871.628 1471.39 Q869.803 1471.09 867.847 1470.49 L867.847 1466.67 Q869.54 1467.59 871.345 1468.04 Q873.151 1468.49 875.163 1468.49 Q878.417 1468.49 880.317 1466.78 Q882.216 1465.07 882.216 1462.14 Q882.216 1459.2 880.317 1457.49 Q878.417 1455.78 875.163 1455.78 Q873.64 1455.78 872.117 1456.12 Q870.612 1456.46 869.032 1457.17 L869.032 1443.07 Z" fill="#4c4c4c" fill-rule="evenodd" fill-opacity="1" /><path clip-path="url(#clip650)" d="M1412.35 1494.62 L1419.99 1494.62 L1419.99 1468.26 L1411.68 1469.92 L1411.68 1465.66 L1419.94 1464 L1424.62 1464 L1424.62 1494.62 L1432.26 1494.62 L1432.26 1498.56 L1412.35 1498.56 L1412.35 1494.62 Z" fill="#4c4c4c" fill-rule="evenodd" fill-opacity="1" /><path clip-path="url(#clip650)" d="M1451.7 1467.08 Q1448.09 1467.08 1446.26 1470.64 Q1444.46 1474.18 1444.46 1481.31 Q1444.46 1488.42 1446.26 1491.98 Q1448.09 1495.52 1451.7 1495.52 Q1455.34 1495.52 1457.14 1491.98 Q1458.97 1488.42 1458.97 1481.31 Q1458.97 1474.18 1457.14 1470.64 Q1455.34 1467.08 1451.7 1467.08 M1451.7 1463.37 Q1457.51 1463.37 1460.57 1467.98 Q1463.65 1472.56 1463.65 1481.31 Q1463.65 1490.04 1460.57 1494.64 Q1457.51 1499.23 1451.7 1499.23 Q1445.89 1499.23 1442.81 1494.64 Q1439.76 1490.04 1439.76 1481.31 Q1439.76 1472.56 1442.81 1467.98 Q1445.89 1463.37 1451.7 1463.37 Z" fill="#4c4c4c" fill-rule="evenodd" fill-opacity="1" /><path clip-path="url(#clip650)" d="M1463.65 1457.47 L1487.76 1457.47 L1487.76 1460.67 L1463.65 1460.67 L1463.65 1457.47 Z" fill="#4c4c4c" fill-rule="evenodd" fill-opacity="1" /><path clip-path="url(#clip650)" d="M1499.23 1467.95 L1512.49 1467.95 L1512.49 1471.15 L1494.66 1471.15 L1494.66 1467.95 Q1496.82 1465.71 1500.55 1461.95 Q1504.29 1458.17 1505.25 1457.08 Q1507.07 1455.03 1507.79 1453.62 Q1508.52 1452.19 1508.52 1450.82 Q1508.52 1448.58 1506.94 1447.17 Q1505.38 1445.76 1502.86 1445.76 Q1501.07 1445.76 1499.08 1446.38 Q1497.11 1447 1494.85 1448.26 L1494.85 1444.42 Q1497.14 1443.5 1499.14 1443.03 Q1501.13 1442.56 1502.79 1442.56 Q1507.15 1442.56 1509.74 1444.74 Q1512.34 1446.92 1512.34 1450.57 Q1512.34 1452.3 1511.68 1453.86 Q1511.04 1455.4 1509.33 1457.51 Q1508.86 1458.06 1506.34 1460.67 Q1503.82 1463.27 1499.23 1467.95 Z" fill="#4c4c4c" fill-rule="evenodd" fill-opacity="1" /><path clip-path="url(#clip650)" d="M1520.46 1466.37 L1524.43 1466.37 L1524.43 1471.15 L1520.46 1471.15 L1520.46 1466.37 Z" fill="#4c4c4c" fill-rule="evenodd" fill-opacity="1" /><path clip-path="url(#clip650)" d="M1540.83 1445.57 Q1537.9 1445.57 1536.41 1448.46 Q1534.95 1451.34 1534.95 1457.13 Q1534.95 1462.91 1536.41 1465.8 Q1537.9 1468.68 1540.83 1468.68 Q1543.79 1468.68 1545.25 1465.8 Q1546.74 1462.91 1546.74 1457.13 Q1546.74 1451.34 1545.25 1448.46 Q1543.79 1445.57 1540.83 1445.57 M1540.83 1442.56 Q1545.55 1442.56 1548.04 1446.3 Q1550.54 1450.03 1550.54 1457.13 Q1550.54 1464.22 1548.04 1467.97 Q1545.55 1471.69 1540.83 1471.69 Q1536.11 1471.69 1533.61 1467.97 Q1531.13 1464.22 1531.13 1457.13 Q1531.13 1450.03 1533.61 1446.3 Q1536.11 1442.56 1540.83 1442.56 Z" fill="#4c4c4c" fill-rule="evenodd" fill-opacity="1" /><path clip-path="url(#clip650)" d="M2076.87 1494.62 L2084.51 1494.62 L2084.51 1468.26 L2076.2 1469.92 L2076.2 1465.66 L2084.47 1464 L2089.14 1464 L2089.14 1494.62 L2096.78 1494.62 L2096.78 1498.56 L2076.87 1498.56 L2076.87 1494.62 Z" fill="#4c4c4c" fill-rule="evenodd" fill-opacity="1" /><path clip-path="url(#clip650)" d="M2116.23 1467.08 Q2112.61 1467.08 2110.79 1470.64 Q2108.98 1474.18 2108.98 1481.31 Q2108.98 1488.42 2110.79 1491.98 Q2112.61 1495.52 2116.23 1495.52 Q2119.86 1495.52 2121.66 1491.98 Q2123.49 1488.42 2123.49 1481.31 Q2123.49 1474.18 2121.66 1470.64 Q2119.86 1467.08 2116.23 1467.08 M2116.23 1463.37 Q2122.04 1463.37 2125.09 1467.98 Q2128.17 1472.56 2128.17 1481.31 Q2128.17 1490.04 2125.09 1494.64 Q2122.04 1499.23 2116.23 1499.23 Q2110.42 1499.23 2107.34 1494.64 Q2104.28 1490.04 2104.28 1481.31 Q2104.28 1472.56 2107.34 1467.98 Q2110.42 1463.37 2116.23 1463.37 Z" fill="#4c4c4c" fill-rule="evenodd" fill-opacity="1" /><path clip-path="url(#clip650)" d="M2128.17 1457.47 L2152.28 1457.47 L2152.28 1460.67 L2128.17 1460.67 L2128.17 1457.47 Z" fill="#4c4c4c" fill-rule="evenodd" fill-opacity="1" /><path clip-path="url(#clip650)" d="M2161.14 1467.95 L2167.35 1467.95 L2167.35 1446.53 L2160.59 1447.88 L2160.59 1444.42 L2167.31 1443.07 L2171.11 1443.07 L2171.11 1467.95 L2177.31 1467.95 L2177.31 1471.15 L2161.14 1471.15 L2161.14 1467.95 Z" fill="#4c4c4c" fill-rule="evenodd" fill-opacity="1" /><path clip-path="url(#clip650)" d="M2184.99 1466.37 L2188.96 1466.37 L2188.96 1471.15 L2184.99 1471.15 L2184.99 1466.37 Z" fill="#4c4c4c" fill-rule="evenodd" fill-opacity="1" /><path clip-path="url(#clip650)" d="M2197.27 1443.07 L2212.18 1443.07 L2212.18 1446.26 L2200.75 1446.26 L2200.75 1453.15 Q2201.58 1452.87 2202.4 1452.73 Q2203.23 1452.58 2204.06 1452.58 Q2208.76 1452.58 2211.51 1455.16 Q2214.25 1457.74 2214.25 1462.14 Q2214.25 1466.67 2211.43 1469.19 Q2208.61 1471.69 2203.48 1471.69 Q2201.71 1471.69 2199.86 1471.39 Q2198.04 1471.09 2196.08 1470.49 L2196.08 1466.67 Q2197.78 1467.59 2199.58 1468.04 Q2201.39 1468.49 2203.4 1468.49 Q2206.65 1468.49 2208.55 1466.78 Q2210.45 1465.07 2210.45 1462.14 Q2210.45 1459.2 2208.55 1457.49 Q2206.65 1455.78 2203.4 1455.78 Q2201.88 1455.78 2200.35 1456.12 Q2198.85 1456.46 2197.27 1457.17 L2197.27 1443.07 Z" fill="#4c4c4c" fill-rule="evenodd" fill-opacity="1" /><path clip-path="url(#clip650)" d="M1274.93 1533 L1261.88 1568.84 L1288.01 1568.84 L1274.93 1533 M1253.16 1574.19 L1271.3 1526.67 L1278.59 1526.67 L1296.7 1574.19 L1253.16 1574.19 Z" fill="#000000" fill-rule="evenodd" fill-opacity="1" /><path clip-path="url(#clip650)" d="M1309.17 1528.42 L1309.17 1538.54 L1321.24 1538.54 L1321.24 1543.09 L1309.17 1543.09 L1309.17 1562.44 Q1309.17 1566.8 1310.35 1568.04 Q1311.56 1569.28 1315.22 1569.28 L1321.24 1569.28 L1321.24 1574.19 L1315.22 1574.19 Q1308.44 1574.19 1305.86 1571.67 Q1303.29 1569.12 1303.29 1562.44 L1303.29 1543.09 L1298.99 1543.09 L1298.99 1538.54 L1303.29 1538.54 L1303.29 1528.42 L1309.17 1528.42 Z" fill="#000000" fill-rule="evenodd" fill-opacity="1" /><polyline clip-path="url(#clip652)" style="stroke:#ffffff; stroke-linecap:butt; stroke-linejoin:round; stroke-width:4; stroke-opacity:1; fill:none" points="
  221.637,941.87 2352.76,941.87 
  "/>
<polyline clip-path="url(#clip652)" style="stroke:#ffffff; stroke-linecap:butt; stroke-linejoin:round; stroke-width:4; stroke-opacity:1; fill:none" points="
  221.637,253.335 2352.76,253.335 
  "/>
<polyline clip-path="url(#clip652)" style="stroke:#ffffff; stroke-linecap:butt; stroke-linejoin:round; stroke-width:2; stroke-opacity:1; fill:none" points="
  221.637,1031.25 2352.76,1031.25 
  "/>
<polyline clip-path="url(#clip652)" style="stroke:#ffffff; stroke-linecap:butt; stroke-linejoin:round; stroke-width:2; stroke-opacity:1; fill:none" points="
  221.637,941.87 2352.76,941.87 
  "/>
<polyline clip-path="url(#clip652)" style="stroke:#ffffff; stroke-linecap:butt; stroke-linejoin:round; stroke-width:2; stroke-opacity:1; fill:none" points="
  221.637,941.87 2352.76,941.87 
  "/>
<polyline clip-path="url(#clip652)" style="stroke:#ffffff; stroke-linecap:butt; stroke-linejoin:round; stroke-width:2; stroke-opacity:1; fill:none" points="
  221.637,686.987 2352.76,686.987 
  "/>
<polyline clip-path="url(#clip652)" style="stroke:#ffffff; stroke-linecap:butt; stroke-linejoin:round; stroke-width:2; stroke-opacity:1; fill:none" points="
  221.637,686.987 2352.76,686.987 
  "/>
<polyline clip-path="url(#clip652)" style="stroke:#ffffff; stroke-linecap:butt; stroke-linejoin:round; stroke-width:2; stroke-opacity:1; fill:none" points="
  221.637,597.602 2352.76,597.602 
  "/>
<polyline clip-path="url(#clip652)" style="stroke:#ffffff; stroke-linecap:butt; stroke-linejoin:round; stroke-width:2; stroke-opacity:1; fill:none" points="
  221.637,597.602 2352.76,597.602 
  "/>
<polyline clip-path="url(#clip652)" style="stroke:#ffffff; stroke-linecap:butt; stroke-linejoin:round; stroke-width:2; stroke-opacity:1; fill:none" points="
  221.637,342.72 2352.76,342.72 
  "/>
<polyline clip-path="url(#clip650)" style="stroke:#ffffff; stroke-linecap:butt; stroke-linejoin:round; stroke-width:4; stroke-opacity:1; fill:none" points="
  221.637,1410.9 221.637,166.672 
  "/>
<polyline clip-path="url(#clip650)" style="stroke:#333333; stroke-linecap:butt; stroke-linejoin:round; stroke-width:4; stroke-opacity:1; fill:none" points="
  221.637,941.87 202.739,941.87 
  "/>
<polyline clip-path="url(#clip650)" style="stroke:#333333; stroke-linecap:butt; stroke-linejoin:round; stroke-width:4; stroke-opacity:1; fill:none" points="
  221.637,253.335 202.739,253.335 
  "/>
<polyline clip-path="url(#clip650)" style="stroke:#333333; stroke-linecap:butt; stroke-linejoin:round; stroke-width:4; stroke-opacity:1; fill:none" points="
  221.637,1031.25 212.188,1031.25 
  "/>
<polyline clip-path="url(#clip650)" style="stroke:#333333; stroke-linecap:butt; stroke-linejoin:round; stroke-width:4; stroke-opacity:1; fill:none" points="
  221.637,941.87 212.188,941.87 
  "/>
<polyline clip-path="url(#clip650)" style="stroke:#333333; stroke-linecap:butt; stroke-linejoin:round; stroke-width:4; stroke-opacity:1; fill:none" points="
  221.637,941.87 212.188,941.87 
  "/>
<polyline clip-path="url(#clip650)" style="stroke:#333333; stroke-linecap:butt; stroke-linejoin:round; stroke-width:4; stroke-opacity:1; fill:none" points="
  221.637,686.987 212.188,686.987 
  "/>
<polyline clip-path="url(#clip650)" style="stroke:#333333; stroke-linecap:butt; stroke-linejoin:round; stroke-width:4; stroke-opacity:1; fill:none" points="
  221.637,686.987 212.188,686.987 
  "/>
<polyline clip-path="url(#clip650)" style="stroke:#333333; stroke-linecap:butt; stroke-linejoin:round; stroke-width:4; stroke-opacity:1; fill:none" points="
  221.637,597.602 212.188,597.602 
  "/>
<polyline clip-path="url(#clip650)" style="stroke:#333333; stroke-linecap:butt; stroke-linejoin:round; stroke-width:4; stroke-opacity:1; fill:none" points="
  221.637,597.602 212.188,597.602 
  "/>
<polyline clip-path="url(#clip650)" style="stroke:#333333; stroke-linecap:butt; stroke-linejoin:round; stroke-width:4; stroke-opacity:1; fill:none" points="
  221.637,342.72 212.188,342.72 
  "/>
<path clip-path="url(#clip650)" d="M96.9315 961.662 L104.57 961.662 L104.57 935.297 L96.2602 936.963 L96.2602 932.704 L104.524 931.037 L109.2 931.037 L109.2 961.662 L116.839 961.662 L116.839 965.597 L96.9315 965.597 L96.9315 961.662 Z" fill="#4c4c4c" fill-rule="evenodd" fill-opacity="1" /><path clip-path="url(#clip650)" d="M136.283 934.116 Q132.672 934.116 130.843 937.681 Q129.038 941.223 129.038 948.352 Q129.038 955.459 130.843 959.023 Q132.672 962.565 136.283 962.565 Q139.917 962.565 141.723 959.023 Q143.552 955.459 143.552 948.352 Q143.552 941.223 141.723 937.681 Q139.917 934.116 136.283 934.116 M136.283 930.412 Q142.093 930.412 145.149 935.019 Q148.227 939.602 148.227 948.352 Q148.227 957.079 145.149 961.685 Q142.093 966.269 136.283 966.269 Q130.473 966.269 127.394 961.685 Q124.339 957.079 124.339 948.352 Q124.339 939.602 127.394 935.019 Q130.473 930.412 136.283 930.412 Z" fill="#4c4c4c" fill-rule="evenodd" fill-opacity="1" /><path clip-path="url(#clip650)" d="M157.932 912.608 Q154.998 912.608 153.512 915.505 Q152.045 918.382 152.045 924.175 Q152.045 929.949 153.512 932.846 Q154.998 935.723 157.932 935.723 Q160.885 935.723 162.352 932.846 Q163.838 929.949 163.838 924.175 Q163.838 918.382 162.352 915.505 Q160.885 912.608 157.932 912.608 M157.932 909.599 Q162.653 909.599 165.136 913.342 Q167.637 917.066 167.637 924.175 Q167.637 931.266 165.136 935.009 Q162.653 938.732 157.932 938.732 Q153.212 938.732 150.71 935.009 Q148.227 931.266 148.227 924.175 Q148.227 917.066 150.71 913.342 Q153.212 909.599 157.932 909.599 Z" fill="#4c4c4c" fill-rule="evenodd" fill-opacity="1" /><path clip-path="url(#clip650)" d="M98.5113 273.127 L106.15 273.127 L106.15 246.762 L97.84 248.428 L97.84 244.169 L106.104 242.502 L110.78 242.502 L110.78 273.127 L118.419 273.127 L118.419 277.062 L98.5113 277.062 L98.5113 273.127 Z" fill="#4c4c4c" fill-rule="evenodd" fill-opacity="1" /><path clip-path="url(#clip650)" d="M137.863 245.581 Q134.252 245.581 132.423 249.146 Q130.618 252.688 130.618 259.817 Q130.618 266.924 132.423 270.488 Q134.252 274.03 137.863 274.03 Q141.497 274.03 143.303 270.488 Q145.131 266.924 145.131 259.817 Q145.131 252.688 143.303 249.146 Q141.497 245.581 137.863 245.581 M137.863 241.877 Q143.673 241.877 146.729 246.484 Q149.807 251.067 149.807 259.817 Q149.807 268.544 146.729 273.15 Q143.673 277.734 137.863 277.734 Q132.053 277.734 128.974 273.15 Q125.919 268.544 125.919 259.817 Q125.919 251.067 128.974 246.484 Q132.053 241.877 137.863 241.877 Z" fill="#4c4c4c" fill-rule="evenodd" fill-opacity="1" /><path clip-path="url(#clip650)" d="M154.378 246.455 L167.637 246.455 L167.637 249.652 L149.807 249.652 L149.807 246.455 Q151.97 244.217 155.694 240.455 Q159.437 236.675 160.396 235.584 Q162.22 233.534 162.935 232.123 Q163.669 230.694 163.669 229.321 Q163.669 227.083 162.089 225.672 Q160.528 224.262 158.008 224.262 Q156.221 224.262 154.227 224.882 Q152.252 225.503 149.995 226.763 L149.995 222.926 Q152.29 222.005 154.284 221.534 Q156.277 221.064 157.932 221.064 Q162.296 221.064 164.891 223.246 Q167.487 225.428 167.487 229.076 Q167.487 230.807 166.828 232.368 Q166.189 233.91 164.477 236.016 Q164.007 236.562 161.487 239.176 Q158.967 241.772 154.378 246.455 Z" fill="#4c4c4c" fill-rule="evenodd" fill-opacity="1" /><path clip-path="url(#clip650)" d="M44.7161 817.669 L47.5806 817.669 L47.5806 844.596 Q53.6281 844.214 56.8109 840.967 Q59.9619 837.689 59.9619 831.864 Q59.9619 828.49 59.1344 825.339 Q58.3069 822.157 56.6518 819.037 L62.1899 819.037 Q63.5267 822.188 64.227 825.499 Q64.9272 828.809 64.9272 832.214 Q64.9272 840.744 59.9619 845.742 Q54.9967 850.707 46.5303 850.707 Q37.7774 850.707 32.6531 845.996 Q27.4968 841.254 27.4968 833.233 Q27.4968 826.04 32.1438 821.87 Q36.7589 817.669 44.7161 817.669 M42.9973 823.525 Q38.1912 823.589 35.3266 826.231 Q32.4621 828.841 32.4621 833.169 Q32.4621 838.071 35.2312 841.031 Q38.0002 843.959 43.0292 844.405 L42.9973 823.525 Z" fill="#000000" fill-rule="evenodd" fill-opacity="1" /><path clip-path="url(#clip650)" d="M33.8307 787.4 Q33.2578 788.387 33.0032 789.564 Q32.7167 790.71 32.7167 792.11 Q32.7167 797.076 35.9632 799.749 Q39.1779 802.391 45.2253 802.391 L64.0042 802.391 L64.0042 808.279 L28.3562 808.279 L28.3562 802.391 L33.8944 802.391 Q30.6479 800.545 29.0883 797.585 Q27.4968 794.625 27.4968 790.392 Q27.4968 789.787 27.5923 789.055 Q27.656 788.323 27.8151 787.432 L33.8307 787.4 Z" fill="#000000" fill-rule="evenodd" fill-opacity="1" /><path clip-path="url(#clip650)" d="M33.8307 761.746 Q33.2578 762.733 33.0032 763.91 Q32.7167 765.056 32.7167 766.457 Q32.7167 771.422 35.9632 774.096 Q39.1779 776.737 45.2253 776.737 L64.0042 776.737 L64.0042 782.626 L28.3562 782.626 L28.3562 776.737 L33.8944 776.737 Q30.6479 774.891 29.0883 771.931 Q27.4968 768.971 27.4968 764.738 Q27.4968 764.133 27.5923 763.401 Q27.656 762.669 27.8151 761.778 L33.8307 761.746 Z" fill="#000000" fill-rule="evenodd" fill-opacity="1" /><path clip-path="url(#clip650)" d="M32.4621 743.222 Q32.4621 747.932 36.1542 750.67 Q39.8145 753.407 46.212 753.407 Q52.6095 753.407 56.3017 750.702 Q59.9619 747.964 59.9619 743.222 Q59.9619 738.543 56.2698 735.806 Q52.5777 733.069 46.212 733.069 Q39.8781 733.069 36.186 735.806 Q32.4621 738.543 32.4621 743.222 M27.4968 743.222 Q27.4968 735.583 32.4621 731.222 Q37.4273 726.862 46.212 726.862 Q54.9649 726.862 59.9619 731.222 Q64.9272 735.583 64.9272 743.222 Q64.9272 750.893 59.9619 755.253 Q54.9649 759.582 46.212 759.582 Q37.4273 759.582 32.4621 755.253 Q27.4968 750.893 27.4968 743.222 Z" fill="#000000" fill-rule="evenodd" fill-opacity="1" /><path clip-path="url(#clip650)" d="M959.438 28.512 L992.215 28.512 L992.215 34.4147 L966.452 34.4147 L966.452 49.7619 L991.139 49.7619 L991.139 55.6646 L966.452 55.6646 L966.452 74.4493 L992.84 74.4493 L992.84 80.352 L959.438 80.352 L959.438 28.512 Z" fill="#000000" fill-rule="evenodd" fill-opacity="1" /><path clip-path="url(#clip650)" d="M1026.62 47.4355 Q1025.55 46.8105 1024.26 46.5327 Q1023.01 46.2202 1021.49 46.2202 Q1016.07 46.2202 1013.15 49.7619 Q1010.27 53.2688 1010.27 59.866 L1010.27 80.352 L1003.85 80.352 L1003.85 41.4633 L1010.27 41.4633 L1010.27 47.505 Q1012.28 43.9633 1015.51 42.2619 Q1018.74 40.5258 1023.36 40.5258 Q1024.02 40.5258 1024.82 40.63 Q1025.62 40.6994 1026.59 40.873 L1026.62 47.4355 Z" fill="#000000" fill-rule="evenodd" fill-opacity="1" /><path clip-path="url(#clip650)" d="M1054.61 47.4355 Q1053.53 46.8105 1052.25 46.5327 Q1051 46.2202 1049.47 46.2202 Q1044.06 46.2202 1041.14 49.7619 Q1038.26 53.2688 1038.26 59.866 L1038.26 80.352 L1031.83 80.352 L1031.83 41.4633 L1038.26 41.4633 L1038.26 47.505 Q1040.27 43.9633 1043.5 42.2619 Q1046.73 40.5258 1051.35 40.5258 Q1052.01 40.5258 1052.81 40.63 Q1053.6 40.6994 1054.58 40.873 L1054.61 47.4355 Z" fill="#000000" fill-rule="evenodd" fill-opacity="1" /><path clip-path="url(#clip650)" d="M1074.82 45.9425 Q1069.68 45.9425 1066.69 49.9702 Q1063.71 53.9633 1063.71 60.9424 Q1063.71 67.9215 1066.66 71.9493 Q1069.65 75.9423 1074.82 75.9423 Q1079.92 75.9423 1082.91 71.9145 Q1085.9 67.8868 1085.9 60.9424 Q1085.9 54.0327 1082.91 50.0049 Q1079.92 45.9425 1074.82 45.9425 M1074.82 40.5258 Q1083.15 40.5258 1087.91 45.9425 Q1092.67 51.3591 1092.67 60.9424 Q1092.67 70.4909 1087.91 75.9423 Q1083.15 81.3589 1074.82 81.3589 Q1066.45 81.3589 1061.69 75.9423 Q1056.97 70.4909 1056.97 60.9424 Q1056.97 51.3591 1061.69 45.9425 Q1066.45 40.5258 1074.82 40.5258 Z" fill="#000000" fill-rule="evenodd" fill-opacity="1" /><path clip-path="url(#clip650)" d="M1145.55 26.3245 L1145.55 31.637 L1139.44 31.637 Q1136 31.637 1134.65 33.0259 Q1133.33 34.4147 1133.33 38.0258 L1133.33 41.4633 L1143.85 41.4633 L1143.85 46.4286 L1133.33 46.4286 L1133.33 80.352 L1126.9 80.352 L1126.9 46.4286 L1120.79 46.4286 L1120.79 41.4633 L1126.9 41.4633 L1126.9 38.755 Q1126.9 32.262 1129.92 29.3106 Q1132.94 26.3245 1139.51 26.3245 L1145.55 26.3245 Z" fill="#000000" fill-rule="evenodd" fill-opacity="1" /><path clip-path="url(#clip650)" d="M1165.96 45.9425 Q1160.83 45.9425 1157.84 49.9702 Q1154.85 53.9633 1154.85 60.9424 Q1154.85 67.9215 1157.8 71.9493 Q1160.79 75.9423 1165.96 75.9423 Q1171.07 75.9423 1174.05 71.9145 Q1177.04 67.8868 1177.04 60.9424 Q1177.04 54.0327 1174.05 50.0049 Q1171.07 45.9425 1165.96 45.9425 M1165.96 40.5258 Q1174.3 40.5258 1179.05 45.9425 Q1183.81 51.3591 1183.81 60.9424 Q1183.81 70.4909 1179.05 75.9423 Q1174.3 81.3589 1165.96 81.3589 Q1157.6 81.3589 1152.84 75.9423 Q1148.12 70.4909 1148.12 60.9424 Q1148.12 51.3591 1152.84 45.9425 Q1157.6 40.5258 1165.96 40.5258 Z" fill="#000000" fill-rule="evenodd" fill-opacity="1" /><path clip-path="url(#clip650)" d="M1216.94 47.4355 Q1215.86 46.8105 1214.58 46.5327 Q1213.33 46.2202 1211.8 46.2202 Q1206.38 46.2202 1203.46 49.7619 Q1200.58 53.2688 1200.58 59.866 L1200.58 80.352 L1194.16 80.352 L1194.16 41.4633 L1200.58 41.4633 L1200.58 47.505 Q1202.6 43.9633 1205.83 42.2619 Q1209.05 40.5258 1213.67 40.5258 Q1214.33 40.5258 1215.13 40.63 Q1215.93 40.6994 1216.9 40.873 L1216.94 47.4355 Z" fill="#000000" fill-rule="evenodd" fill-opacity="1" /><path clip-path="url(#clip650)" d="M1229.96 30.4217 L1229.96 41.4633 L1243.12 41.4633 L1243.12 46.4286 L1229.96 46.4286 L1229.96 67.5396 Q1229.96 72.2965 1231.24 73.6506 Q1232.56 75.0048 1236.55 75.0048 L1243.12 75.0048 L1243.12 80.352 L1236.55 80.352 Q1229.16 80.352 1226.35 77.609 Q1223.53 74.8312 1223.53 67.5396 L1223.53 46.4286 L1218.85 46.4286 L1218.85 41.4633 L1223.53 41.4633 L1223.53 30.4217 L1229.96 30.4217 Z" fill="#000000" fill-rule="evenodd" fill-opacity="1" /><path clip-path="url(#clip650)" d="M1284.78 59.3104 L1284.78 62.4354 L1255.41 62.4354 Q1255.83 69.0326 1259.37 72.5048 Q1262.94 75.9423 1269.3 75.9423 Q1272.98 75.9423 1276.42 75.0395 Q1279.89 74.1368 1283.29 72.3312 L1283.29 78.3728 Q1279.85 79.8312 1276.24 80.5951 Q1272.63 81.3589 1268.92 81.3589 Q1259.61 81.3589 1254.16 75.9423 Q1248.74 70.5257 1248.74 61.2896 Q1248.74 51.741 1253.88 46.1508 Q1259.05 40.5258 1267.8 40.5258 Q1275.65 40.5258 1280.2 45.5952 Q1284.78 50.6299 1284.78 59.3104 M1278.39 57.4355 Q1278.33 52.1924 1275.44 49.0674 Q1272.6 45.9425 1267.87 45.9425 Q1262.53 45.9425 1259.3 48.9633 Q1256.1 51.9841 1255.62 57.4702 L1278.39 57.4355 Z" fill="#000000" fill-rule="evenodd" fill-opacity="1" /><path clip-path="url(#clip650)" d="M1324.05 74.5187 L1324.05 95.1436 L1317.63 95.1436 L1317.63 41.4633 L1324.05 41.4633 L1324.05 47.3661 Q1326.07 43.8939 1329.12 42.2272 Q1332.21 40.5258 1336.48 40.5258 Q1343.57 40.5258 1347.98 46.1508 Q1352.42 51.7758 1352.42 60.9424 Q1352.42 70.109 1347.98 75.734 Q1343.57 81.3589 1336.48 81.3589 Q1332.21 81.3589 1329.12 79.6923 Q1326.07 77.9909 1324.05 74.5187 M1345.79 60.9424 Q1345.79 53.8938 1342.87 49.9008 Q1339.99 45.873 1334.92 45.873 Q1329.85 45.873 1326.94 49.9008 Q1324.05 53.8938 1324.05 60.9424 Q1324.05 67.991 1326.94 72.0187 Q1329.85 76.0117 1334.92 76.0117 Q1339.99 76.0117 1342.87 72.0187 Q1345.79 67.991 1345.79 60.9424 Z" fill="#000000" fill-rule="evenodd" fill-opacity="1" /><path clip-path="url(#clip650)" d="M1386.45 48.0605 L1430.96 48.0605 L1430.96 53.8938 L1386.45 53.8938 L1386.45 48.0605 M1386.45 62.2271 L1430.96 62.2271 L1430.96 68.1298 L1386.45 68.1298 L1386.45 62.2271 Z" fill="#000000" fill-rule="evenodd" fill-opacity="1" /><path clip-path="url(#clip650)" d="M1483.71 33.13 Q1478.29 33.13 1475.55 38.4772 Q1472.84 43.7897 1472.84 54.4841 Q1472.84 65.1437 1475.55 70.4909 Q1478.29 75.8034 1483.71 75.8034 Q1489.16 75.8034 1491.87 70.4909 Q1494.61 65.1437 1494.61 54.4841 Q1494.61 43.7897 1491.87 38.4772 Q1489.16 33.13 1483.71 33.13 M1483.71 27.5745 Q1492.42 27.5745 1497 34.4842 Q1501.62 41.3592 1501.62 54.4841 Q1501.62 67.5743 1497 74.484 Q1492.42 81.3589 1483.71 81.3589 Q1474.99 81.3589 1470.37 74.484 Q1465.79 67.5743 1465.79 54.4841 Q1465.79 41.3592 1470.37 34.4842 Q1474.99 27.5745 1483.71 27.5745 Z" fill="#000000" fill-rule="evenodd" fill-opacity="1" /><path clip-path="url(#clip650)" d="M1513.95 71.5326 L1521.28 71.5326 L1521.28 80.352 L1513.95 80.352 L1513.95 71.5326 Z" fill="#000000" fill-rule="evenodd" fill-opacity="1" /><path clip-path="url(#clip650)" d="M1551.55 55.7341 Q1546.55 55.7341 1543.67 58.4077 Q1540.82 61.0813 1540.82 65.7687 Q1540.82 70.4562 1543.67 73.1298 Q1546.55 75.8034 1551.55 75.8034 Q1556.55 75.8034 1559.43 73.1298 Q1562.32 70.4215 1562.32 65.7687 Q1562.32 61.0813 1559.43 58.4077 Q1556.59 55.7341 1551.55 55.7341 M1544.54 52.748 Q1540.03 51.6369 1537.49 48.5466 Q1534.99 45.4564 1534.99 41.0119 Q1534.99 34.7967 1539.4 31.1856 Q1543.84 27.5745 1551.55 27.5745 Q1559.3 27.5745 1563.71 31.1856 Q1568.12 34.7967 1568.12 41.0119 Q1568.12 45.4564 1565.58 48.5466 Q1563.08 51.6369 1558.6 52.748 Q1563.67 53.9285 1566.48 57.366 Q1569.33 60.8035 1569.33 65.7687 Q1569.33 73.3034 1564.71 77.3312 Q1560.13 81.3589 1551.55 81.3589 Q1542.98 81.3589 1538.36 77.3312 Q1533.78 73.3034 1533.78 65.7687 Q1533.78 60.8035 1536.62 57.366 Q1539.47 53.9285 1544.54 52.748 M1541.97 41.6717 Q1541.97 45.6994 1544.47 47.9563 Q1547 50.2133 1551.55 50.2133 Q1556.07 50.2133 1558.6 47.9563 Q1561.17 45.6994 1561.17 41.6717 Q1561.17 37.6439 1558.6 35.387 Q1556.07 33.13 1551.55 33.13 Q1547 33.13 1544.47 35.387 Q1541.97 37.6439 1541.97 41.6717 Z" fill="#000000" fill-rule="evenodd" fill-opacity="1" /><path clip-path="url(#clip650)" d="M1597.66 51.6369 Q1592.94 51.6369 1590.16 54.866 Q1587.42 58.0952 1587.42 63.7201 Q1587.42 69.3104 1590.16 72.5743 Q1592.94 75.8034 1597.66 75.8034 Q1602.39 75.8034 1605.13 72.5743 Q1607.91 69.3104 1607.91 63.7201 Q1607.91 58.0952 1605.13 54.866 Q1602.39 51.6369 1597.66 51.6369 M1611.59 29.6578 L1611.59 36.0467 Q1608.95 34.7967 1606.24 34.137 Q1603.57 33.4773 1600.93 33.4773 Q1593.98 33.4773 1590.3 38.1647 Q1586.66 42.8522 1586.14 52.3313 Q1588.18 49.3105 1591.27 47.7133 Q1594.36 46.0814 1598.08 46.0814 Q1605.89 46.0814 1610.41 50.8383 Q1614.96 55.5605 1614.96 63.7201 Q1614.96 71.7062 1610.23 76.5326 Q1605.51 81.3589 1597.66 81.3589 Q1588.67 81.3589 1583.91 74.484 Q1579.16 67.5743 1579.16 54.4841 Q1579.16 42.1925 1584.99 34.9009 Q1590.82 27.5745 1600.65 27.5745 Q1603.29 27.5745 1605.96 28.0953 Q1608.67 28.6162 1611.59 29.6578 Z" fill="#000000" fill-rule="evenodd" fill-opacity="1" /><path clip-path="url(#clip650)" d="M812.147 106.272 L822.598 106.272 L835.827 141.55 L849.126 106.272 L859.577 106.272 L859.577 158.112 L852.737 158.112 L852.737 112.591 L839.369 148.147 L832.32 148.147 L818.952 112.591 L818.952 158.112 L812.147 158.112 L812.147 106.272 Z" fill="#000000" fill-rule="evenodd" fill-opacity="1" /><path clip-path="url(#clip650)" d="M896.66 125.821 L941.174 125.821 L941.174 131.654 L896.66 131.654 L896.66 125.821 M896.66 139.987 L941.174 139.987 L941.174 145.89 L896.66 145.89 L896.66 139.987 Z" fill="#000000" fill-rule="evenodd" fill-opacity="1" /><path clip-path="url(#clip650)" d="M980.132 152.209 L991.59 152.209 L991.59 112.661 L979.125 115.161 L979.125 108.772 L991.521 106.272 L998.535 106.272 L998.535 152.209 L1009.99 152.209 L1009.99 158.112 L980.132 158.112 L980.132 152.209 Z" fill="#000000" fill-rule="evenodd" fill-opacity="1" /><path clip-path="url(#clip650)" d="M1039.16 110.89 Q1033.74 110.89 1031 116.237 Q1028.29 121.55 1028.29 132.244 Q1028.29 142.904 1031 148.251 Q1033.74 153.563 1039.16 153.563 Q1044.61 153.563 1047.32 148.251 Q1050.06 142.904 1050.06 132.244 Q1050.06 121.55 1047.32 116.237 Q1044.61 110.89 1039.16 110.89 M1039.16 105.335 Q1047.87 105.335 1052.46 112.244 Q1057.08 119.119 1057.08 132.244 Q1057.08 145.334 1052.46 152.244 Q1047.87 159.119 1039.16 159.119 Q1030.44 159.119 1025.83 152.244 Q1021.24 145.334 1021.24 132.244 Q1021.24 119.119 1025.83 112.244 Q1030.44 105.335 1039.16 105.335 Z" fill="#000000" fill-rule="evenodd" fill-opacity="1" /><path clip-path="url(#clip650)" d="M1084.4 110.89 Q1078.99 110.89 1076.24 116.237 Q1073.53 121.55 1073.53 132.244 Q1073.53 142.904 1076.24 148.251 Q1078.99 153.563 1084.4 153.563 Q1089.85 153.563 1092.56 148.251 Q1095.31 142.904 1095.31 132.244 Q1095.31 121.55 1092.56 116.237 Q1089.85 110.89 1084.4 110.89 M1084.4 105.335 Q1093.12 105.335 1097.7 112.244 Q1102.32 119.119 1102.32 132.244 Q1102.32 145.334 1097.7 152.244 Q1093.12 159.119 1084.4 159.119 Q1075.69 159.119 1071.07 152.244 Q1066.49 145.334 1066.49 132.244 Q1066.49 119.119 1071.07 112.244 Q1075.69 105.335 1084.4 105.335 Z" fill="#000000" fill-rule="evenodd" fill-opacity="1" /><path clip-path="url(#clip650)" d="M1129.65 110.89 Q1124.23 110.89 1121.49 116.237 Q1118.78 121.55 1118.78 132.244 Q1118.78 142.904 1121.49 148.251 Q1124.23 153.563 1129.65 153.563 Q1135.1 153.563 1137.8 148.251 Q1140.55 142.904 1140.55 132.244 Q1140.55 121.55 1137.8 116.237 Q1135.1 110.89 1129.65 110.89 M1129.65 105.335 Q1138.36 105.335 1142.94 112.244 Q1147.56 119.119 1147.56 132.244 Q1147.56 145.334 1142.94 152.244 Q1138.36 159.119 1129.65 159.119 Q1120.93 159.119 1116.31 152.244 Q1111.73 145.334 1111.73 132.244 Q1111.73 119.119 1116.31 112.244 Q1120.93 105.335 1129.65 105.335 Z" fill="#000000" fill-rule="evenodd" fill-opacity="1" /><path clip-path="url(#clip650)" d="M1160.62 149.293 L1167.94 149.293 L1167.94 155.265 L1162.25 166.376 L1157.77 166.376 L1160.62 155.265 L1160.62 149.293 Z" fill="#000000" fill-rule="evenodd" fill-opacity="1" /><path clip-path="url(#clip650)" d="M1219.26 124.293 Q1213.99 124.293 1211.14 128.112 Q1208.15 132.105 1208.15 138.702 Q1208.15 145.682 1211.1 149.709 Q1214.09 153.702 1219.26 153.702 Q1224.37 153.702 1227.35 149.675 Q1230.34 145.647 1230.34 138.702 Q1230.34 132.348 1227.35 128.112 Q1224.61 124.293 1219.26 124.293 M1219.26 119.223 L1240.48 119.223 L1240.48 125.612 L1233.33 125.612 Q1237.11 131.029 1237.11 138.702 Q1237.11 148.251 1232.35 153.668 Q1227.6 159.119 1219.26 159.119 Q1210.89 159.119 1206.17 153.668 Q1201.42 148.251 1201.42 138.702 Q1201.42 129.084 1206.17 123.702 Q1210.1 119.223 1219.26 119.223 Z" fill="#000000" fill-rule="evenodd" fill-opacity="1" /><path clip-path="url(#clip650)" d="M1272.7 125.821 L1317.21 125.821 L1317.21 131.654 L1272.7 131.654 L1272.7 125.821 M1272.7 139.987 L1317.21 139.987 L1317.21 145.89 L1272.7 145.89 L1272.7 139.987 Z" fill="#000000" fill-rule="evenodd" fill-opacity="1" /><path clip-path="url(#clip650)" d="M1356.17 152.209 L1367.63 152.209 L1367.63 112.661 L1355.16 115.161 L1355.16 108.772 L1367.56 106.272 L1374.57 106.272 L1374.57 152.209 L1386.03 152.209 L1386.03 158.112 L1356.17 158.112 L1356.17 152.209 Z" fill="#000000" fill-rule="evenodd" fill-opacity="1" /><path clip-path="url(#clip650)" d="M1400.2 149.293 L1407.53 149.293 L1407.53 158.112 L1400.2 158.112 L1400.2 149.293 Z" fill="#000000" fill-rule="evenodd" fill-opacity="1" /><path clip-path="url(#clip650)" d="M1422.87 106.272 L1450.41 106.272 L1450.41 112.175 L1429.3 112.175 L1429.3 124.883 Q1430.82 124.362 1432.35 124.119 Q1433.88 123.841 1435.41 123.841 Q1444.09 123.841 1449.16 128.598 Q1454.23 133.355 1454.23 141.48 Q1454.23 149.848 1449.02 154.501 Q1443.81 159.119 1434.33 159.119 Q1431.07 159.119 1427.66 158.563 Q1424.3 158.008 1420.69 156.897 L1420.69 149.848 Q1423.81 151.55 1427.14 152.383 Q1430.48 153.216 1434.19 153.216 Q1440.2 153.216 1443.71 150.056 Q1447.21 146.897 1447.21 141.48 Q1447.21 136.064 1443.71 132.904 Q1440.2 129.744 1434.19 129.744 Q1431.38 129.744 1428.57 130.369 Q1425.79 130.994 1422.87 132.314 L1422.87 106.272 Z" fill="#000000" fill-rule="evenodd" fill-opacity="1" /><path clip-path="url(#clip650)" d="M1468.78 149.293 L1476.1 149.293 L1476.1 155.265 L1470.41 166.376 L1465.93 166.376 L1468.78 155.265 L1468.78 149.293 Z" fill="#000000" fill-rule="evenodd" fill-opacity="1" /><path clip-path="url(#clip650)" d="M1505.44 106.272 L1549.3 106.272 L1549.3 112.175 L1530.89 112.175 L1530.89 158.112 L1523.84 158.112 L1523.84 112.175 L1505.44 112.175 L1505.44 106.272 Z" fill="#000000" fill-rule="evenodd" fill-opacity="1" /><path clip-path="url(#clip650)" d="M1579.23 125.821 L1623.74 125.821 L1623.74 131.654 L1579.23 131.654 L1579.23 125.821 M1579.23 139.987 L1623.74 139.987 L1623.74 145.89 L1579.23 145.89 L1579.23 139.987 Z" fill="#000000" fill-rule="evenodd" fill-opacity="1" /><path clip-path="url(#clip650)" d="M1667.52 152.209 L1692 152.209 L1692 158.112 L1659.09 158.112 L1659.09 152.209 Q1663.08 148.077 1669.95 141.133 Q1676.86 134.154 1678.64 132.14 Q1682 128.355 1683.32 125.751 Q1684.68 123.112 1684.68 120.577 Q1684.68 116.446 1681.76 113.841 Q1678.88 111.237 1674.23 111.237 Q1670.93 111.237 1667.25 112.383 Q1663.6 113.529 1659.43 115.855 L1659.43 108.772 Q1663.67 107.071 1667.35 106.203 Q1671.03 105.335 1674.09 105.335 Q1682.14 105.335 1686.93 109.362 Q1691.73 113.39 1691.73 120.126 Q1691.73 123.321 1690.51 126.202 Q1689.33 129.05 1686.17 132.939 Q1685.3 133.945 1680.65 138.772 Q1676 143.563 1667.52 152.209 Z" fill="#000000" fill-rule="evenodd" fill-opacity="1" /><path clip-path="url(#clip650)" d="M1706.73 149.293 L1714.05 149.293 L1714.05 158.112 L1706.73 158.112 L1706.73 149.293 Z" fill="#000000" fill-rule="evenodd" fill-opacity="1" /><path clip-path="url(#clip650)" d="M1744.33 110.89 Q1738.91 110.89 1736.17 116.237 Q1733.46 121.55 1733.46 132.244 Q1733.46 142.904 1736.17 148.251 Q1738.91 153.563 1744.33 153.563 Q1749.78 153.563 1752.49 148.251 Q1755.23 142.904 1755.23 132.244 Q1755.23 121.55 1752.49 116.237 Q1749.78 110.89 1744.33 110.89 M1744.33 105.335 Q1753.04 105.335 1757.63 112.244 Q1762.25 119.119 1762.25 132.244 Q1762.25 145.334 1757.63 152.244 Q1753.04 159.119 1744.33 159.119 Q1735.61 159.119 1731 152.244 Q1726.41 145.334 1726.41 132.244 Q1726.41 119.119 1731 112.244 Q1735.61 105.335 1744.33 105.335 Z" fill="#000000" fill-rule="evenodd" fill-opacity="1" /><path clip-path="url(#clip652)" d="M2292.44 530.154 L2288.68 540.97 L2277.23 541.21 L2286.36 548.138 L2283.03 559.098 L2292.44 552.554 L2301.85 559.098 L2298.52 548.138 L2307.66 541.21 L2296.2 540.97 L2292.44 530.154 Z" fill="#009af9" fill-rule="evenodd" fill-opacity="1" stroke="#000000" stroke-opacity="1" stroke-width="0"/>
<path clip-path="url(#clip652)" d="M1886.75 698.955 L1882.99 709.771 L1871.53 710.011 L1880.67 716.939 L1877.34 727.899 L1886.75 721.355 L1896.15 727.899 L1892.83 716.939 L1901.96 710.011 L1890.51 709.771 L1886.75 698.955 Z" fill="#009af9" fill-rule="evenodd" fill-opacity="1" stroke="#000000" stroke-opacity="1" stroke-width="0"/>
<path clip-path="url(#clip652)" d="M1484 874.551 L1480.24 885.367 L1468.78 885.607 L1477.92 892.535 L1474.59 903.495 L1484 896.951 L1493.41 903.495 L1490.08 892.535 L1499.22 885.607 L1487.76 885.367 L1484 874.551 Z" fill="#009af9" fill-rule="evenodd" fill-opacity="1" stroke="#000000" stroke-opacity="1" stroke-width="0"/>
<path clip-path="url(#clip652)" d="M1082.71 833.551 L1078.95 844.367 L1067.5 844.607 L1076.63 851.535 L1073.31 862.495 L1082.71 855.951 L1092.12 862.495 L1088.79 851.535 L1097.93 844.607 L1086.47 844.367 L1082.71 833.551 Z" fill="#009af9" fill-rule="evenodd" fill-opacity="1" stroke="#000000" stroke-opacity="1" stroke-width="0"/>
<path clip-path="url(#clip652)" d="M682.152 943.378 L678.392 954.194 L666.936 954.434 L676.072 961.362 L672.744 972.322 L682.152 965.778 L691.56 972.322 L688.232 961.362 L697.368 954.434 L685.912 954.194 L682.152 943.378 Z" fill="#009af9" fill-rule="evenodd" fill-opacity="1" stroke="#000000" stroke-opacity="1" stroke-width="0"/>
<path clip-path="url(#clip652)" d="M281.952 1015.42 L278.192 1026.23 L266.736 1026.47 L275.872 1033.4 L272.544 1044.36 L281.952 1037.82 L291.36 1044.36 L288.032 1033.4 L297.168 1026.47 L285.712 1026.23 L281.952 1015.42 Z" fill="#009af9" fill-rule="evenodd" fill-opacity="1" stroke="#000000" stroke-opacity="1" stroke-width="0"/>
<path clip-path="url(#clip652)" d="M2292.44 827.492 L2288.68 838.308 L2277.23 838.548 L2286.36 845.476 L2283.03 856.436 L2292.44 849.892 L2301.85 856.436 L2298.52 845.476 L2307.66 838.548 L2296.2 838.308 L2292.44 827.492 Z" fill="#e26f46" fill-rule="evenodd" fill-opacity="1" stroke="#000000" stroke-opacity="1" stroke-width="0"/>
<path clip-path="url(#clip652)" d="M1886.75 893.576 L1882.99 904.392 L1871.53 904.632 L1880.67 911.56 L1877.34 922.52 L1886.75 915.976 L1896.15 922.52 L1892.83 911.56 L1901.96 904.632 L1890.51 904.392 L1886.75 893.576 Z" fill="#e26f46" fill-rule="evenodd" fill-opacity="1" stroke="#000000" stroke-opacity="1" stroke-width="0"/>
<path clip-path="url(#clip652)" d="M1484 913.051 L1480.24 923.867 L1468.78 924.107 L1477.92 931.035 L1474.59 941.995 L1484 935.451 L1493.41 941.995 L1490.08 931.035 L1499.22 924.107 L1487.76 923.867 L1484 913.051 Z" fill="#e26f46" fill-rule="evenodd" fill-opacity="1" stroke="#000000" stroke-opacity="1" stroke-width="0"/>
<path clip-path="url(#clip652)" d="M1082.71 937.134 L1078.95 947.95 L1067.5 948.19 L1076.63 955.118 L1073.31 966.078 L1082.71 959.534 L1092.12 966.078 L1088.79 955.118 L1097.93 948.19 L1086.47 947.95 L1082.71 937.134 Z" fill="#e26f46" fill-rule="evenodd" fill-opacity="1" stroke="#000000" stroke-opacity="1" stroke-width="0"/>
<path clip-path="url(#clip652)" d="M682.152 879.562 L678.392 890.378 L666.936 890.618 L676.072 897.546 L672.744 908.506 L682.152 901.962 L691.56 908.506 L688.232 897.546 L697.368 890.618 L685.912 890.378 L682.152 879.562 Z" fill="#e26f46" fill-rule="evenodd" fill-opacity="1" stroke="#000000" stroke-opacity="1" stroke-width="0"/>
<path clip-path="url(#clip652)" d="M281.952 1019.24 L278.192 1030.06 L266.736 1030.3 L275.872 1037.22 L272.544 1048.18 L281.952 1041.64 L291.36 1048.18 L288.032 1037.22 L297.168 1030.3 L285.712 1030.06 L281.952 1019.24 Z" fill="#e26f46" fill-rule="evenodd" fill-opacity="1" stroke="#000000" stroke-opacity="1" stroke-width="0"/>
<polyline clip-path="url(#clip652)" style="stroke:#3da44d; stroke-linecap:butt; stroke-linejoin:round; stroke-width:4; stroke-opacity:1; fill:none" stroke-dasharray="16, 10" points="
  2292.44,608.526 1886.75,698.519 1484,787.858 1082.71,876.873 682.152,965.727 281.952,1054.5 
  "/>
<path clip-path="url(#clip650)" d="
M292.674 415.506 L1119.37 415.506 L1119.37 208.146 L292.674 208.146  Z
  " fill="#eaeaea" fill-rule="evenodd" fill-opacity="1"/>
<polyline clip-path="url(#clip650)" style="stroke:#ffffff; stroke-linecap:butt; stroke-linejoin:round; stroke-width:4; stroke-opacity:1; fill:none" points="
  292.674,415.506 1119.37,415.506 1119.37,208.146 292.674,208.146 292.674,415.506 
  "/>
<path clip-path="url(#clip650)" d="M387.391 234.386 L381.375 251.692 L363.045 252.076 L377.663 263.161 L372.338 280.697 L387.391 270.226 L402.444 280.697 L397.119 263.161 L411.736 252.076 L393.407 251.692 L387.391 234.386 Z" fill="#009af9" fill-rule="evenodd" fill-opacity="1" stroke="#000000" stroke-opacity="1" stroke-width="0"/>
<path clip-path="url(#clip650)" d="M506.135 263.239 L506.135 265.322 L486.552 265.322 Q486.829 269.72 489.19 272.035 Q491.575 274.326 495.811 274.326 Q498.264 274.326 500.556 273.725 Q502.871 273.123 505.139 271.919 L505.139 275.947 Q502.848 276.919 500.44 277.428 Q498.033 277.938 495.556 277.938 Q489.352 277.938 485.718 274.326 Q482.107 270.715 482.107 264.558 Q482.107 258.192 485.533 254.465 Q488.982 250.715 494.815 250.715 Q500.047 250.715 503.079 254.095 Q506.135 257.452 506.135 263.239 M501.876 261.989 Q501.829 258.493 499.908 256.41 Q498.01 254.327 494.862 254.327 Q491.297 254.327 489.144 256.34 Q487.015 258.354 486.69 262.012 L501.876 261.989 Z" fill="#000000" fill-rule="evenodd" fill-opacity="1" /><path clip-path="url(#clip650)" d="M528.149 255.322 Q527.431 254.905 526.575 254.72 Q525.741 254.512 524.723 254.512 Q521.112 254.512 519.167 256.873 Q517.246 259.211 517.246 263.609 L517.246 277.266 L512.963 277.266 L512.963 251.34 L517.246 251.34 L517.246 255.368 Q518.588 253.007 520.741 251.873 Q522.894 250.715 525.973 250.715 Q526.412 250.715 526.945 250.785 Q527.477 250.831 528.125 250.947 L528.149 255.322 Z" fill="#000000" fill-rule="evenodd" fill-opacity="1" /><path clip-path="url(#clip650)" d="M546.806 255.322 Q546.088 254.905 545.232 254.72 Q544.399 254.512 543.38 254.512 Q539.769 254.512 537.824 256.873 Q535.903 259.211 535.903 263.609 L535.903 277.266 L531.621 277.266 L531.621 251.34 L535.903 251.34 L535.903 255.368 Q537.246 253.007 539.399 251.873 Q541.551 250.715 544.63 250.715 Q545.07 250.715 545.602 250.785 Q546.135 250.831 546.783 250.947 L546.806 255.322 Z" fill="#000000" fill-rule="evenodd" fill-opacity="1" /><path clip-path="url(#clip650)" d="M560.278 254.327 Q556.852 254.327 554.861 257.012 Q552.871 259.674 552.871 264.327 Q552.871 268.979 554.838 271.664 Q556.829 274.326 560.278 274.326 Q563.681 274.326 565.672 271.641 Q567.662 268.956 567.662 264.327 Q567.662 259.72 565.672 257.035 Q563.681 254.327 560.278 254.327 M560.278 250.715 Q565.834 250.715 569.005 254.327 Q572.176 257.938 572.176 264.327 Q572.176 270.692 569.005 274.326 Q565.834 277.938 560.278 277.938 Q554.699 277.938 551.528 274.326 Q548.38 270.692 548.38 264.327 Q548.38 257.938 551.528 254.327 Q554.699 250.715 560.278 250.715 Z" fill="#000000" fill-rule="evenodd" fill-opacity="1" /><path clip-path="url(#clip650)" d="M607.431 241.248 L607.431 244.79 L603.357 244.79 Q601.065 244.79 600.162 245.716 Q599.282 246.641 599.282 249.049 L599.282 251.34 L606.296 251.34 L606.296 254.651 L599.282 254.651 L599.282 277.266 L595 277.266 L595 254.651 L590.926 254.651 L590.926 251.34 L595 251.34 L595 249.535 Q595 245.206 597.014 243.239 Q599.028 241.248 603.403 241.248 L607.431 241.248 Z" fill="#000000" fill-rule="evenodd" fill-opacity="1" /><path clip-path="url(#clip650)" d="M621.042 254.327 Q617.616 254.327 615.625 257.012 Q613.634 259.674 613.634 264.327 Q613.634 268.979 615.602 271.664 Q617.593 274.326 621.042 274.326 Q624.444 274.326 626.435 271.641 Q628.426 268.956 628.426 264.327 Q628.426 259.72 626.435 257.035 Q624.444 254.327 621.042 254.327 M621.042 250.715 Q626.597 250.715 629.768 254.327 Q632.94 257.938 632.94 264.327 Q632.94 270.692 629.768 274.326 Q626.597 277.938 621.042 277.938 Q615.463 277.938 612.292 274.326 Q609.144 270.692 609.144 264.327 Q609.144 257.938 612.292 254.327 Q615.463 250.715 621.042 250.715 Z" fill="#000000" fill-rule="evenodd" fill-opacity="1" /><path clip-path="url(#clip650)" d="M655.023 255.322 Q654.305 254.905 653.449 254.72 Q652.616 254.512 651.597 254.512 Q647.986 254.512 646.041 256.873 Q644.12 259.211 644.12 263.609 L644.12 277.266 L639.838 277.266 L639.838 251.34 L644.12 251.34 L644.12 255.368 Q645.463 253.007 647.616 251.873 Q649.768 250.715 652.847 250.715 Q653.287 250.715 653.819 250.785 Q654.352 250.831 655 250.947 L655.023 255.322 Z" fill="#000000" fill-rule="evenodd" fill-opacity="1" /><path clip-path="url(#clip650)" d="M663.703 243.979 L663.703 251.34 L672.477 251.34 L672.477 254.651 L663.703 254.651 L663.703 268.725 Q663.703 271.896 664.56 272.799 Q665.44 273.701 668.102 273.701 L672.477 273.701 L672.477 277.266 L668.102 277.266 Q663.171 277.266 661.296 275.438 Q659.421 273.586 659.421 268.725 L659.421 254.651 L656.296 254.651 L656.296 251.34 L659.421 251.34 L659.421 243.979 L663.703 243.979 Z" fill="#000000" fill-rule="evenodd" fill-opacity="1" /><path clip-path="url(#clip650)" d="M700.254 263.239 L700.254 265.322 L680.671 265.322 Q680.949 269.72 683.31 272.035 Q685.694 274.326 689.93 274.326 Q692.384 274.326 694.675 273.725 Q696.99 273.123 699.259 271.919 L699.259 275.947 Q696.967 276.919 694.56 277.428 Q692.152 277.938 689.675 277.938 Q683.472 277.938 679.838 274.326 Q676.226 270.715 676.226 264.558 Q676.226 258.192 679.652 254.465 Q683.101 250.715 688.935 250.715 Q694.166 250.715 697.199 254.095 Q700.254 257.452 700.254 263.239 M695.995 261.989 Q695.949 258.493 694.027 256.41 Q692.129 254.327 688.981 254.327 Q685.416 254.327 683.263 256.34 Q681.134 258.354 680.81 262.012 L695.995 261.989 Z" fill="#000000" fill-rule="evenodd" fill-opacity="1" /><path clip-path="url(#clip650)" d="M723.726 273.331 L731.365 273.331 L731.365 246.966 L723.055 248.632 L723.055 244.373 L731.319 242.706 L735.995 242.706 L735.995 273.331 L743.634 273.331 L743.634 277.266 L723.726 277.266 L723.726 273.331 Z" fill="#000000" fill-rule="evenodd" fill-opacity="1" /><path clip-path="url(#clip650)" d="M763.078 245.785 Q759.467 245.785 757.638 249.35 Q755.833 252.891 755.833 260.021 Q755.833 267.127 757.638 270.692 Q759.467 274.234 763.078 274.234 Q766.712 274.234 768.518 270.692 Q770.346 267.127 770.346 260.021 Q770.346 252.891 768.518 249.35 Q766.712 245.785 763.078 245.785 M763.078 242.081 Q768.888 242.081 771.944 246.688 Q775.022 251.271 775.022 260.021 Q775.022 268.748 771.944 273.354 Q768.888 277.938 763.078 277.938 Q757.268 277.938 754.189 273.354 Q751.134 268.748 751.134 260.021 Q751.134 251.271 754.189 246.688 Q757.268 242.081 763.078 242.081 Z" fill="#000000" fill-rule="evenodd" fill-opacity="1" /><path clip-path="url(#clip650)" d="M793.24 245.785 Q789.629 245.785 787.8 249.35 Q785.994 252.891 785.994 260.021 Q785.994 267.127 787.8 270.692 Q789.629 274.234 793.24 274.234 Q796.874 274.234 798.68 270.692 Q800.508 267.127 800.508 260.021 Q800.508 252.891 798.68 249.35 Q796.874 245.785 793.24 245.785 M793.24 242.081 Q799.05 242.081 802.105 246.688 Q805.184 251.271 805.184 260.021 Q805.184 268.748 802.105 273.354 Q799.05 277.938 793.24 277.938 Q787.43 277.938 784.351 273.354 Q781.295 268.748 781.295 260.021 Q781.295 251.271 784.351 246.688 Q787.43 242.081 793.24 242.081 Z" fill="#000000" fill-rule="evenodd" fill-opacity="1" /><path clip-path="url(#clip650)" d="M823.402 245.785 Q819.791 245.785 817.962 249.35 Q816.156 252.891 816.156 260.021 Q816.156 267.127 817.962 270.692 Q819.791 274.234 823.402 274.234 Q827.036 274.234 828.841 270.692 Q830.67 267.127 830.67 260.021 Q830.67 252.891 828.841 249.35 Q827.036 245.785 823.402 245.785 M823.402 242.081 Q829.212 242.081 832.267 246.688 Q835.346 251.271 835.346 260.021 Q835.346 268.748 832.267 273.354 Q829.212 277.938 823.402 277.938 Q817.591 277.938 814.513 273.354 Q811.457 268.748 811.457 260.021 Q811.457 251.271 814.513 246.688 Q817.591 242.081 823.402 242.081 Z" fill="#000000" fill-rule="evenodd" fill-opacity="1" /><path clip-path="url(#clip650)" d="M869.813 264.234 Q864.651 264.234 862.661 265.414 Q860.67 266.595 860.67 269.442 Q860.67 271.711 862.151 273.053 Q863.656 274.373 866.225 274.373 Q869.767 274.373 871.897 271.873 Q874.05 269.35 874.05 265.183 L874.05 264.234 L869.813 264.234 M878.309 262.475 L878.309 277.266 L874.05 277.266 L874.05 273.331 Q872.591 275.692 870.415 276.826 Q868.239 277.938 865.091 277.938 Q861.11 277.938 858.749 275.715 Q856.411 273.47 856.411 269.72 Q856.411 265.345 859.327 263.123 Q862.267 260.901 868.077 260.901 L874.05 260.901 L874.05 260.484 Q874.05 257.544 872.105 255.947 Q870.184 254.327 866.688 254.327 Q864.466 254.327 862.36 254.859 Q860.253 255.391 858.309 256.456 L858.309 252.521 Q860.647 251.618 862.846 251.178 Q865.045 250.715 867.128 250.715 Q872.753 250.715 875.531 253.632 Q878.309 256.549 878.309 262.475 Z" fill="#000000" fill-rule="evenodd" fill-opacity="1" /><path clip-path="url(#clip650)" d="M907.267 256.317 Q908.864 253.447 911.086 252.081 Q913.309 250.715 916.318 250.715 Q920.369 250.715 922.568 253.563 Q924.767 256.387 924.767 261.618 L924.767 277.266 L920.484 277.266 L920.484 261.757 Q920.484 258.03 919.165 256.225 Q917.846 254.419 915.137 254.419 Q911.827 254.419 909.906 256.618 Q907.985 258.817 907.985 262.614 L907.985 277.266 L903.702 277.266 L903.702 261.757 Q903.702 258.007 902.383 256.225 Q901.063 254.419 898.309 254.419 Q895.045 254.419 893.123 256.641 Q891.202 258.84 891.202 262.614 L891.202 277.266 L886.92 277.266 L886.92 251.34 L891.202 251.34 L891.202 255.368 Q892.661 252.984 894.698 251.85 Q896.735 250.715 899.535 250.715 Q902.36 250.715 904.327 252.151 Q906.318 253.586 907.267 256.317 Z" fill="#000000" fill-rule="evenodd" fill-opacity="1" /><path clip-path="url(#clip650)" d="M943.308 254.327 Q939.882 254.327 937.892 257.012 Q935.901 259.674 935.901 264.327 Q935.901 268.979 937.869 271.664 Q939.859 274.326 943.308 274.326 Q946.711 274.326 948.702 271.641 Q950.693 268.956 950.693 264.327 Q950.693 259.72 948.702 257.035 Q946.711 254.327 943.308 254.327 M943.308 250.715 Q948.864 250.715 952.035 254.327 Q955.206 257.938 955.206 264.327 Q955.206 270.692 952.035 274.326 Q948.864 277.938 943.308 277.938 Q937.73 277.938 934.558 274.326 Q931.41 270.692 931.41 264.327 Q931.41 257.938 934.558 254.327 Q937.73 250.715 943.308 250.715 Z" fill="#000000" fill-rule="evenodd" fill-opacity="1" /><path clip-path="url(#clip650)" d="M978.794 252.104 L978.794 256.132 Q976.989 255.206 975.044 254.743 Q973.1 254.28 971.017 254.28 Q967.845 254.28 966.248 255.253 Q964.674 256.225 964.674 258.169 Q964.674 259.651 965.808 260.507 Q966.943 261.34 970.368 262.104 L971.827 262.428 Q976.364 263.401 978.262 265.183 Q980.183 266.942 980.183 270.114 Q980.183 273.725 977.313 275.831 Q974.466 277.938 969.466 277.938 Q967.382 277.938 965.114 277.521 Q962.868 277.127 960.368 276.317 L960.368 271.919 Q962.73 273.146 965.021 273.771 Q967.313 274.373 969.558 274.373 Q972.568 274.373 974.188 273.354 Q975.808 272.313 975.808 270.438 Q975.808 268.702 974.628 267.776 Q973.47 266.85 969.512 265.993 L968.03 265.646 Q964.072 264.813 962.313 263.1 Q960.554 261.364 960.554 258.354 Q960.554 254.697 963.146 252.706 Q965.739 250.715 970.507 250.715 Q972.868 250.715 974.952 251.063 Q977.035 251.41 978.794 252.104 Z" fill="#000000" fill-rule="evenodd" fill-opacity="1" /><path clip-path="url(#clip650)" d="M991.179 243.979 L991.179 251.34 L999.952 251.34 L999.952 254.651 L991.179 254.651 L991.179 268.725 Q991.179 271.896 992.035 272.799 Q992.915 273.701 995.577 273.701 L999.952 273.701 L999.952 277.266 L995.577 277.266 Q990.646 277.266 988.771 275.438 Q986.896 273.586 986.896 268.725 L986.896 254.651 L983.771 254.651 L983.771 251.34 L986.896 251.34 L986.896 243.979 L991.179 243.979 Z" fill="#000000" fill-rule="evenodd" fill-opacity="1" /><path clip-path="url(#clip650)" d="M1020.58 255.322 Q1019.86 254.905 1019 254.72 Q1018.17 254.512 1017.15 254.512 Q1013.54 254.512 1011.6 256.873 Q1009.67 259.211 1009.67 263.609 L1009.67 277.266 L1005.39 277.266 L1005.39 251.34 L1009.67 251.34 L1009.67 255.368 Q1011.02 253.007 1013.17 251.873 Q1015.32 250.715 1018.4 250.715 Q1018.84 250.715 1019.37 250.785 Q1019.91 250.831 1020.55 250.947 L1020.58 255.322 Z" fill="#000000" fill-rule="evenodd" fill-opacity="1" /><path clip-path="url(#clip650)" d="M1036.83 264.234 Q1031.66 264.234 1029.67 265.414 Q1027.68 266.595 1027.68 269.442 Q1027.68 271.711 1029.16 273.053 Q1030.67 274.373 1033.24 274.373 Q1036.78 274.373 1038.91 271.873 Q1041.06 269.35 1041.06 265.183 L1041.06 264.234 L1036.83 264.234 M1045.32 262.475 L1045.32 277.266 L1041.06 277.266 L1041.06 273.331 Q1039.6 275.692 1037.43 276.826 Q1035.25 277.938 1032.1 277.938 Q1028.12 277.938 1025.76 275.715 Q1023.42 273.47 1023.42 269.72 Q1023.42 265.345 1026.34 263.123 Q1029.28 260.901 1035.09 260.901 L1041.06 260.901 L1041.06 260.484 Q1041.06 257.544 1039.12 255.947 Q1037.2 254.327 1033.7 254.327 Q1031.48 254.327 1029.37 254.859 Q1027.27 255.391 1025.32 256.456 L1025.32 252.521 Q1027.66 251.618 1029.86 251.178 Q1032.06 250.715 1034.14 250.715 Q1039.77 250.715 1042.54 253.632 Q1045.32 256.549 1045.32 262.475 Z" fill="#000000" fill-rule="evenodd" fill-opacity="1" /><path clip-path="url(#clip650)" d="M1070.62 252.104 L1070.62 256.132 Q1068.82 255.206 1066.87 254.743 Q1064.93 254.28 1062.84 254.28 Q1059.67 254.28 1058.08 255.253 Q1056.5 256.225 1056.5 258.169 Q1056.5 259.651 1057.64 260.507 Q1058.77 261.34 1062.2 262.104 L1063.65 262.428 Q1068.19 263.401 1070.09 265.183 Q1072.01 266.942 1072.01 270.114 Q1072.01 273.725 1069.14 275.831 Q1066.29 277.938 1061.29 277.938 Q1059.21 277.938 1056.94 277.521 Q1054.7 277.127 1052.2 276.317 L1052.2 271.919 Q1054.56 273.146 1056.85 273.771 Q1059.14 274.373 1061.39 274.373 Q1064.4 274.373 1066.02 273.354 Q1067.64 272.313 1067.64 270.438 Q1067.64 268.702 1066.46 267.776 Q1065.3 266.85 1061.34 265.993 L1059.86 265.646 Q1055.9 264.813 1054.14 263.1 Q1052.38 261.364 1052.38 258.354 Q1052.38 254.697 1054.97 252.706 Q1057.57 250.715 1062.34 250.715 Q1064.7 250.715 1066.78 251.063 Q1068.86 251.41 1070.62 252.104 Z" fill="#000000" fill-rule="evenodd" fill-opacity="1" /><path clip-path="url(#clip650)" d="M387.391 286.226 L381.375 303.532 L363.045 303.916 L377.663 315.001 L372.338 332.537 L387.391 322.066 L402.444 332.537 L397.119 315.001 L411.736 303.916 L393.407 303.532 L387.391 286.226 Z" fill="#e26f46" fill-rule="evenodd" fill-opacity="1" stroke="#000000" stroke-opacity="1" stroke-width="0"/>
<path clip-path="url(#clip650)" d="M506.135 315.079 L506.135 317.162 L486.552 317.162 Q486.829 321.56 489.19 323.875 Q491.575 326.166 495.811 326.166 Q498.264 326.166 500.556 325.565 Q502.871 324.963 505.139 323.759 L505.139 327.787 Q502.848 328.759 500.44 329.268 Q498.033 329.778 495.556 329.778 Q489.352 329.778 485.718 326.166 Q482.107 322.555 482.107 316.398 Q482.107 310.032 485.533 306.305 Q488.982 302.555 494.815 302.555 Q500.047 302.555 503.079 305.935 Q506.135 309.292 506.135 315.079 M501.876 313.829 Q501.829 310.333 499.908 308.25 Q498.01 306.167 494.862 306.167 Q491.297 306.167 489.144 308.18 Q487.015 310.194 486.69 313.852 L501.876 313.829 Z" fill="#000000" fill-rule="evenodd" fill-opacity="1" /><path clip-path="url(#clip650)" d="M528.149 307.162 Q527.431 306.745 526.575 306.56 Q525.741 306.352 524.723 306.352 Q521.112 306.352 519.167 308.713 Q517.246 311.051 517.246 315.449 L517.246 329.106 L512.963 329.106 L512.963 303.18 L517.246 303.18 L517.246 307.208 Q518.588 304.847 520.741 303.713 Q522.894 302.555 525.973 302.555 Q526.412 302.555 526.945 302.625 Q527.477 302.671 528.125 302.787 L528.149 307.162 Z" fill="#000000" fill-rule="evenodd" fill-opacity="1" /><path clip-path="url(#clip650)" d="M546.806 307.162 Q546.088 306.745 545.232 306.56 Q544.399 306.352 543.38 306.352 Q539.769 306.352 537.824 308.713 Q535.903 311.051 535.903 315.449 L535.903 329.106 L531.621 329.106 L531.621 303.18 L535.903 303.18 L535.903 307.208 Q537.246 304.847 539.399 303.713 Q541.551 302.555 544.63 302.555 Q545.07 302.555 545.602 302.625 Q546.135 302.671 546.783 302.787 L546.806 307.162 Z" fill="#000000" fill-rule="evenodd" fill-opacity="1" /><path clip-path="url(#clip650)" d="M560.278 306.167 Q556.852 306.167 554.861 308.852 Q552.871 311.514 552.871 316.167 Q552.871 320.819 554.838 323.504 Q556.829 326.166 560.278 326.166 Q563.681 326.166 565.672 323.481 Q567.662 320.796 567.662 316.167 Q567.662 311.56 565.672 308.875 Q563.681 306.167 560.278 306.167 M560.278 302.555 Q565.834 302.555 569.005 306.167 Q572.176 309.778 572.176 316.167 Q572.176 322.532 569.005 326.166 Q565.834 329.778 560.278 329.778 Q554.699 329.778 551.528 326.166 Q548.38 322.532 548.38 316.167 Q548.38 309.778 551.528 306.167 Q554.699 302.555 560.278 302.555 Z" fill="#000000" fill-rule="evenodd" fill-opacity="1" /><path clip-path="url(#clip650)" d="M607.431 293.088 L607.431 296.63 L603.357 296.63 Q601.065 296.63 600.162 297.556 Q599.282 298.481 599.282 300.889 L599.282 303.18 L606.296 303.18 L606.296 306.491 L599.282 306.491 L599.282 329.106 L595 329.106 L595 306.491 L590.926 306.491 L590.926 303.18 L595 303.18 L595 301.375 Q595 297.046 597.014 295.079 Q599.028 293.088 603.403 293.088 L607.431 293.088 Z" fill="#000000" fill-rule="evenodd" fill-opacity="1" /><path clip-path="url(#clip650)" d="M621.042 306.167 Q617.616 306.167 615.625 308.852 Q613.634 311.514 613.634 316.167 Q613.634 320.819 615.602 323.504 Q617.593 326.166 621.042 326.166 Q624.444 326.166 626.435 323.481 Q628.426 320.796 628.426 316.167 Q628.426 311.56 626.435 308.875 Q624.444 306.167 621.042 306.167 M621.042 302.555 Q626.597 302.555 629.768 306.167 Q632.94 309.778 632.94 316.167 Q632.94 322.532 629.768 326.166 Q626.597 329.778 621.042 329.778 Q615.463 329.778 612.292 326.166 Q609.144 322.532 609.144 316.167 Q609.144 309.778 612.292 306.167 Q615.463 302.555 621.042 302.555 Z" fill="#000000" fill-rule="evenodd" fill-opacity="1" /><path clip-path="url(#clip650)" d="M655.023 307.162 Q654.305 306.745 653.449 306.56 Q652.616 306.352 651.597 306.352 Q647.986 306.352 646.041 308.713 Q644.12 311.051 644.12 315.449 L644.12 329.106 L639.838 329.106 L639.838 303.18 L644.12 303.18 L644.12 307.208 Q645.463 304.847 647.616 303.713 Q649.768 302.555 652.847 302.555 Q653.287 302.555 653.819 302.625 Q654.352 302.671 655 302.787 L655.023 307.162 Z" fill="#000000" fill-rule="evenodd" fill-opacity="1" /><path clip-path="url(#clip650)" d="M663.703 295.819 L663.703 303.18 L672.477 303.18 L672.477 306.491 L663.703 306.491 L663.703 320.565 Q663.703 323.736 664.56 324.639 Q665.44 325.541 668.102 325.541 L672.477 325.541 L672.477 329.106 L668.102 329.106 Q663.171 329.106 661.296 327.278 Q659.421 325.426 659.421 320.565 L659.421 306.491 L656.296 306.491 L656.296 303.18 L659.421 303.18 L659.421 295.819 L663.703 295.819 Z" fill="#000000" fill-rule="evenodd" fill-opacity="1" /><path clip-path="url(#clip650)" d="M700.254 315.079 L700.254 317.162 L680.671 317.162 Q680.949 321.56 683.31 323.875 Q685.694 326.166 689.93 326.166 Q692.384 326.166 694.675 325.565 Q696.99 324.963 699.259 323.759 L699.259 327.787 Q696.967 328.759 694.56 329.268 Q692.152 329.778 689.675 329.778 Q683.472 329.778 679.838 326.166 Q676.226 322.555 676.226 316.398 Q676.226 310.032 679.652 306.305 Q683.101 302.555 688.935 302.555 Q694.166 302.555 697.199 305.935 Q700.254 309.292 700.254 315.079 M695.995 313.829 Q695.949 310.333 694.027 308.25 Q692.129 306.167 688.981 306.167 Q685.416 306.167 683.263 308.18 Q681.134 310.194 680.81 313.852 L695.995 313.829 Z" fill="#000000" fill-rule="evenodd" fill-opacity="1" /><path clip-path="url(#clip650)" d="M723.726 325.171 L731.365 325.171 L731.365 298.806 L723.055 300.472 L723.055 296.213 L731.319 294.546 L735.995 294.546 L735.995 325.171 L743.634 325.171 L743.634 329.106 L723.726 329.106 L723.726 325.171 Z" fill="#000000" fill-rule="evenodd" fill-opacity="1" /><path clip-path="url(#clip650)" d="M763.078 297.625 Q759.467 297.625 757.638 301.19 Q755.833 304.731 755.833 311.861 Q755.833 318.967 757.638 322.532 Q759.467 326.074 763.078 326.074 Q766.712 326.074 768.518 322.532 Q770.346 318.967 770.346 311.861 Q770.346 304.731 768.518 301.19 Q766.712 297.625 763.078 297.625 M763.078 293.921 Q768.888 293.921 771.944 298.528 Q775.022 303.111 775.022 311.861 Q775.022 320.588 771.944 325.194 Q768.888 329.778 763.078 329.778 Q757.268 329.778 754.189 325.194 Q751.134 320.588 751.134 311.861 Q751.134 303.111 754.189 298.528 Q757.268 293.921 763.078 293.921 Z" fill="#000000" fill-rule="evenodd" fill-opacity="1" /><path clip-path="url(#clip650)" d="M809.49 316.074 Q804.328 316.074 802.337 317.254 Q800.346 318.435 800.346 321.282 Q800.346 323.551 801.828 324.893 Q803.332 326.213 805.902 326.213 Q809.443 326.213 811.573 323.713 Q813.726 321.19 813.726 317.023 L813.726 316.074 L809.49 316.074 M817.985 314.315 L817.985 329.106 L813.726 329.106 L813.726 325.171 Q812.267 327.532 810.092 328.666 Q807.916 329.778 804.767 329.778 Q800.786 329.778 798.425 327.555 Q796.087 325.31 796.087 321.56 Q796.087 317.185 799.004 314.963 Q801.943 312.741 807.754 312.741 L813.726 312.741 L813.726 312.324 Q813.726 309.384 811.781 307.787 Q809.86 306.167 806.365 306.167 Q804.142 306.167 802.036 306.699 Q799.93 307.231 797.985 308.296 L797.985 304.361 Q800.323 303.458 802.522 303.018 Q804.721 302.555 806.805 302.555 Q812.429 302.555 815.207 305.472 Q817.985 308.389 817.985 314.315 Z" fill="#000000" fill-rule="evenodd" fill-opacity="1" /><path clip-path="url(#clip650)" d="M846.943 308.157 Q848.54 305.287 850.763 303.921 Q852.985 302.555 855.994 302.555 Q860.045 302.555 862.244 305.403 Q864.443 308.227 864.443 313.458 L864.443 329.106 L860.161 329.106 L860.161 313.597 Q860.161 309.87 858.841 308.065 Q857.522 306.259 854.814 306.259 Q851.503 306.259 849.582 308.458 Q847.661 310.657 847.661 314.454 L847.661 329.106 L843.378 329.106 L843.378 313.597 Q843.378 309.847 842.059 308.065 Q840.74 306.259 837.985 306.259 Q834.721 306.259 832.8 308.481 Q830.878 310.68 830.878 314.454 L830.878 329.106 L826.596 329.106 L826.596 303.18 L830.878 303.18 L830.878 307.208 Q832.337 304.824 834.374 303.69 Q836.411 302.555 839.212 302.555 Q842.036 302.555 844.003 303.991 Q845.994 305.426 846.943 308.157 Z" fill="#000000" fill-rule="evenodd" fill-opacity="1" /><path clip-path="url(#clip650)" d="M882.985 306.167 Q879.559 306.167 877.568 308.852 Q875.577 311.514 875.577 316.167 Q875.577 320.819 877.545 323.504 Q879.536 326.166 882.985 326.166 Q886.387 326.166 888.378 323.481 Q890.369 320.796 890.369 316.167 Q890.369 311.56 888.378 308.875 Q886.387 306.167 882.985 306.167 M882.985 302.555 Q888.54 302.555 891.711 306.167 Q894.883 309.778 894.883 316.167 Q894.883 322.532 891.711 326.166 Q888.54 329.778 882.985 329.778 Q877.406 329.778 874.235 326.166 Q871.087 322.532 871.087 316.167 Q871.087 309.778 874.235 306.167 Q877.406 302.555 882.985 302.555 Z" fill="#000000" fill-rule="evenodd" fill-opacity="1" /><path clip-path="url(#clip650)" d="M918.471 303.944 L918.471 307.972 Q916.665 307.046 914.721 306.583 Q912.776 306.12 910.693 306.12 Q907.522 306.12 905.924 307.093 Q904.35 308.065 904.35 310.009 Q904.35 311.491 905.485 312.347 Q906.619 313.18 910.045 313.944 L911.503 314.268 Q916.04 315.241 917.938 317.023 Q919.859 318.782 919.859 321.954 Q919.859 325.565 916.989 327.671 Q914.142 329.778 909.142 329.778 Q907.059 329.778 904.79 329.361 Q902.545 328.967 900.045 328.157 L900.045 323.759 Q902.406 324.986 904.697 325.611 Q906.989 326.213 909.235 326.213 Q912.244 326.213 913.864 325.194 Q915.484 324.153 915.484 322.278 Q915.484 320.542 914.304 319.616 Q913.147 318.69 909.188 317.833 L907.707 317.486 Q903.748 316.653 901.989 314.94 Q900.23 313.204 900.23 310.194 Q900.23 306.537 902.823 304.546 Q905.415 302.555 910.184 302.555 Q912.545 302.555 914.628 302.903 Q916.711 303.25 918.471 303.944 Z" fill="#000000" fill-rule="evenodd" fill-opacity="1" /><path clip-path="url(#clip650)" d="M930.855 295.819 L930.855 303.18 L939.628 303.18 L939.628 306.491 L930.855 306.491 L930.855 320.565 Q930.855 323.736 931.711 324.639 Q932.591 325.541 935.253 325.541 L939.628 325.541 L939.628 329.106 L935.253 329.106 Q930.322 329.106 928.447 327.278 Q926.572 325.426 926.572 320.565 L926.572 306.491 L923.447 306.491 L923.447 303.18 L926.572 303.18 L926.572 295.819 L930.855 295.819 Z" fill="#000000" fill-rule="evenodd" fill-opacity="1" /><path clip-path="url(#clip650)" d="M960.253 307.162 Q959.535 306.745 958.679 306.56 Q957.845 306.352 956.827 306.352 Q953.216 306.352 951.271 308.713 Q949.35 311.051 949.35 315.449 L949.35 329.106 L945.068 329.106 L945.068 303.18 L949.35 303.18 L949.35 307.208 Q950.693 304.847 952.845 303.713 Q954.998 302.555 958.077 302.555 Q958.517 302.555 959.049 302.625 Q959.581 302.671 960.23 302.787 L960.253 307.162 Z" fill="#000000" fill-rule="evenodd" fill-opacity="1" /><path clip-path="url(#clip650)" d="M976.503 316.074 Q971.341 316.074 969.35 317.254 Q967.359 318.435 967.359 321.282 Q967.359 323.551 968.841 324.893 Q970.345 326.213 972.915 326.213 Q976.456 326.213 978.586 323.713 Q980.739 321.19 980.739 317.023 L980.739 316.074 L976.503 316.074 M984.998 314.315 L984.998 329.106 L980.739 329.106 L980.739 325.171 Q979.28 327.532 977.105 328.666 Q974.929 329.778 971.78 329.778 Q967.799 329.778 965.438 327.555 Q963.1 325.31 963.1 321.56 Q963.1 317.185 966.017 314.963 Q968.956 312.741 974.767 312.741 L980.739 312.741 L980.739 312.324 Q980.739 309.384 978.794 307.787 Q976.873 306.167 973.378 306.167 Q971.155 306.167 969.049 306.699 Q966.943 307.231 964.998 308.296 L964.998 304.361 Q967.336 303.458 969.535 303.018 Q971.734 302.555 973.817 302.555 Q979.442 302.555 982.22 305.472 Q984.998 308.389 984.998 314.315 Z" fill="#000000" fill-rule="evenodd" fill-opacity="1" /><path clip-path="url(#clip650)" d="M1010.3 303.944 L1010.3 307.972 Q1008.49 307.046 1006.55 306.583 Q1004.6 306.12 1002.52 306.12 Q999.35 306.12 997.753 307.093 Q996.178 308.065 996.178 310.009 Q996.178 311.491 997.313 312.347 Q998.447 313.18 1001.87 313.944 L1003.33 314.268 Q1007.87 315.241 1009.77 317.023 Q1011.69 318.782 1011.69 321.954 Q1011.69 325.565 1008.82 327.671 Q1005.97 329.778 1000.97 329.778 Q998.887 329.778 996.618 329.361 Q994.373 328.967 991.873 328.157 L991.873 323.759 Q994.234 324.986 996.526 325.611 Q998.817 326.213 1001.06 326.213 Q1004.07 326.213 1005.69 325.194 Q1007.31 324.153 1007.31 322.278 Q1007.31 320.542 1006.13 319.616 Q1004.97 318.69 1001.02 317.833 L999.535 317.486 Q995.577 316.653 993.817 314.94 Q992.058 313.204 992.058 310.194 Q992.058 306.537 994.651 304.546 Q997.243 302.555 1002.01 302.555 Q1004.37 302.555 1006.46 302.903 Q1008.54 303.25 1010.3 303.944 Z" fill="#000000" fill-rule="evenodd" fill-opacity="1" /><polyline clip-path="url(#clip650)" style="stroke:#3da44d; stroke-linecap:butt; stroke-linejoin:round; stroke-width:4; stroke-opacity:1; fill:none" stroke-dasharray="16, 10" points="
  316.353,363.666 458.428,363.666 
  "/>
<path clip-path="url(#clip650)" d="M495.51 367.914 Q490.348 367.914 488.357 369.094 Q486.366 370.275 486.366 373.122 Q486.366 375.391 487.848 376.733 Q489.352 378.053 491.922 378.053 Q495.464 378.053 497.593 375.553 Q499.746 373.03 499.746 368.863 L499.746 367.914 L495.51 367.914 M504.005 366.155 L504.005 380.946 L499.746 380.946 L499.746 377.011 Q498.288 379.372 496.112 380.506 Q493.936 381.618 490.788 381.618 Q486.806 381.618 484.445 379.395 Q482.107 377.15 482.107 373.4 Q482.107 369.025 485.024 366.803 Q487.964 364.581 493.774 364.581 L499.746 364.581 L499.746 364.164 Q499.746 361.224 497.802 359.627 Q495.88 358.007 492.385 358.007 Q490.163 358.007 488.056 358.539 Q485.95 359.071 484.005 360.136 L484.005 356.201 Q486.343 355.298 488.542 354.858 Q490.741 354.395 492.825 354.395 Q498.45 354.395 501.227 357.312 Q504.005 360.229 504.005 366.155 Z" fill="#000000" fill-rule="evenodd" fill-opacity="1" /><path clip-path="url(#clip650)" d="M512.778 355.02 L517.038 355.02 L517.038 381.409 Q517.038 386.363 515.139 388.585 Q513.264 390.807 509.075 390.807 L507.454 390.807 L507.454 387.196 L508.589 387.196 Q511.019 387.196 511.899 386.062 Q512.778 384.951 512.778 381.409 L512.778 355.02 M512.778 344.928 L517.038 344.928 L517.038 350.321 L512.778 350.321 L512.778 344.928 Z" fill="#000000" fill-rule="evenodd" fill-opacity="1" /><path clip-path="url(#clip650)" d="M525.51 370.715 L525.51 355.02 L529.769 355.02 L529.769 370.553 Q529.769 374.233 531.204 376.085 Q532.639 377.914 535.51 377.914 Q538.959 377.914 540.949 375.715 Q542.963 373.516 542.963 369.719 L542.963 355.02 L547.223 355.02 L547.223 380.946 L542.963 380.946 L542.963 376.965 Q541.412 379.326 539.352 380.483 Q537.315 381.618 534.607 381.618 Q530.139 381.618 527.825 378.84 Q525.51 376.062 525.51 370.715 M536.227 354.395 L536.227 354.395 Z" fill="#000000" fill-rule="evenodd" fill-opacity="1" /><path clip-path="url(#clip650)" d="M572.523 355.784 L572.523 359.812 Q570.718 358.886 568.773 358.423 Q566.829 357.96 564.746 357.96 Q561.574 357.96 559.977 358.933 Q558.403 359.905 558.403 361.849 Q558.403 363.331 559.537 364.187 Q560.672 365.02 564.097 365.784 L565.556 366.108 Q570.093 367.081 571.991 368.863 Q573.912 370.622 573.912 373.794 Q573.912 377.405 571.042 379.511 Q568.195 381.618 563.195 381.618 Q561.111 381.618 558.843 381.201 Q556.598 380.807 554.098 379.997 L554.098 375.599 Q556.459 376.826 558.75 377.451 Q561.042 378.053 563.287 378.053 Q566.297 378.053 567.917 377.034 Q569.537 375.993 569.537 374.118 Q569.537 372.382 568.357 371.456 Q567.199 370.53 563.241 369.673 L561.76 369.326 Q557.801 368.493 556.042 366.78 Q554.283 365.044 554.283 362.034 Q554.283 358.377 556.875 356.386 Q559.468 354.395 564.236 354.395 Q566.597 354.395 568.681 354.743 Q570.764 355.09 572.523 355.784 Z" fill="#000000" fill-rule="evenodd" fill-opacity="1" /><path clip-path="url(#clip650)" d="M584.908 347.659 L584.908 355.02 L593.681 355.02 L593.681 358.331 L584.908 358.331 L584.908 372.405 Q584.908 375.576 585.764 376.479 Q586.644 377.381 589.306 377.381 L593.681 377.381 L593.681 380.946 L589.306 380.946 Q584.375 380.946 582.5 379.118 Q580.625 377.266 580.625 372.405 L580.625 358.331 L577.5 358.331 L577.5 355.02 L580.625 355.02 L580.625 347.659 L584.908 347.659 Z" fill="#000000" fill-rule="evenodd" fill-opacity="1" /><path clip-path="url(#clip650)" d="M621.458 366.919 L621.458 369.002 L601.875 369.002 Q602.153 373.4 604.514 375.715 Q606.898 378.006 611.134 378.006 Q613.588 378.006 615.88 377.405 Q618.194 376.803 620.463 375.599 L620.463 379.627 Q618.171 380.599 615.764 381.108 Q613.356 381.618 610.88 381.618 Q604.676 381.618 601.042 378.006 Q597.431 374.395 597.431 368.238 Q597.431 361.872 600.857 358.145 Q604.306 354.395 610.139 354.395 Q615.37 354.395 618.403 357.775 Q621.458 361.132 621.458 366.919 M617.199 365.669 Q617.153 362.173 615.231 360.09 Q613.333 358.007 610.185 358.007 Q606.62 358.007 604.468 360.02 Q602.338 362.034 602.014 365.692 L617.199 365.669 Z" fill="#000000" fill-rule="evenodd" fill-opacity="1" /><path clip-path="url(#clip650)" d="M643.518 344.928 L647.778 344.928 L647.778 380.946 L643.518 380.946 L643.518 344.928 Z" fill="#000000" fill-rule="evenodd" fill-opacity="1" /><path clip-path="url(#clip650)" d="M656.69 355.02 L660.949 355.02 L660.949 380.946 L656.69 380.946 L656.69 355.02 M656.69 344.928 L660.949 344.928 L660.949 350.321 L656.69 350.321 L656.69 344.928 Z" fill="#000000" fill-rule="evenodd" fill-opacity="1" /><path clip-path="url(#clip650)" d="M691.412 365.298 L691.412 380.946 L687.152 380.946 L687.152 365.437 Q687.152 361.757 685.717 359.928 Q684.282 358.099 681.412 358.099 Q677.963 358.099 675.972 360.298 Q673.981 362.497 673.981 366.294 L673.981 380.946 L669.699 380.946 L669.699 355.02 L673.981 355.02 L673.981 359.048 Q675.509 356.71 677.569 355.553 Q679.652 354.395 682.361 354.395 Q686.828 354.395 689.12 357.173 Q691.412 359.928 691.412 365.298 Z" fill="#000000" fill-rule="evenodd" fill-opacity="1" /><path clip-path="url(#clip650)" d="M722.083 366.919 L722.083 369.002 L702.5 369.002 Q702.777 373.4 705.138 375.715 Q707.523 378.006 711.759 378.006 Q714.212 378.006 716.504 377.405 Q718.819 376.803 721.087 375.599 L721.087 379.627 Q718.796 380.599 716.388 381.108 Q713.981 381.618 711.504 381.618 Q705.3 381.618 701.666 378.006 Q698.055 374.395 698.055 368.238 Q698.055 361.872 701.481 358.145 Q704.93 354.395 710.763 354.395 Q715.995 354.395 719.027 357.775 Q722.083 361.132 722.083 366.919 M717.823 365.669 Q717.777 362.173 715.856 360.09 Q713.958 358.007 710.81 358.007 Q707.245 358.007 705.092 360.02 Q702.962 362.034 702.638 365.692 L717.823 365.669 Z" fill="#000000" fill-rule="evenodd" fill-opacity="1" /><path clip-path="url(#clip650)" d="M740.856 367.914 Q735.694 367.914 733.703 369.094 Q731.712 370.275 731.712 373.122 Q731.712 375.391 733.194 376.733 Q734.698 378.053 737.268 378.053 Q740.809 378.053 742.939 375.553 Q745.092 373.03 745.092 368.863 L745.092 367.914 L740.856 367.914 M749.351 366.155 L749.351 380.946 L745.092 380.946 L745.092 377.011 Q743.634 379.372 741.458 380.506 Q739.282 381.618 736.134 381.618 Q732.152 381.618 729.791 379.395 Q727.453 377.15 727.453 373.4 Q727.453 369.025 730.37 366.803 Q733.31 364.581 739.12 364.581 L745.092 364.581 L745.092 364.164 Q745.092 361.224 743.147 359.627 Q741.226 358.007 737.731 358.007 Q735.509 358.007 733.402 358.539 Q731.296 359.071 729.351 360.136 L729.351 356.201 Q731.689 355.298 733.888 354.858 Q736.087 354.395 738.171 354.395 Q743.796 354.395 746.573 357.312 Q749.351 360.229 749.351 366.155 Z" fill="#000000" fill-rule="evenodd" fill-opacity="1" /><path clip-path="url(#clip650)" d="M773.147 359.002 Q772.43 358.585 771.573 358.4 Q770.74 358.192 769.721 358.192 Q766.11 358.192 764.166 360.553 Q762.245 362.891 762.245 367.289 L762.245 380.946 L757.962 380.946 L757.962 355.02 L762.245 355.02 L762.245 359.048 Q763.587 356.687 765.74 355.553 Q767.893 354.395 770.971 354.395 Q771.411 354.395 771.944 354.465 Q772.476 354.511 773.124 354.627 L773.147 359.002 Z" fill="#000000" fill-rule="evenodd" fill-opacity="1" /></svg>
