<?xml version="1.0" encoding="utf-8"?>
<svg xmlns="http://www.w3.org/2000/svg" xmlns:xlink="http://www.w3.org/1999/xlink" width="600" height="400" viewBox="0 0 2400 1600">
<defs>
  <clipPath id="clip820">
    <rect x="0" y="0" width="2400" height="1600"/>
  </clipPath>
</defs>
<path clip-path="url(#clip820)" d="
M0 1600 L2400 1600 L2400 0 L0 0  Z
  " fill="#ffffff" fill-rule="evenodd" fill-opacity="1"/>
<defs>
  <clipPath id="clip821">
    <rect x="480" y="0" width="1681" height="1600"/>
  </clipPath>
</defs>
<path clip-path="url(#clip820)" d="
M221.637 1410.9 L2352.76 1410.9 L2352.76 166.672 L221.637 166.672  Z
  " fill="#eaeaea" fill-rule="evenodd" fill-opacity="1"/>
<defs>
  <clipPath id="clip822">
    <rect x="221" y="166" width="2132" height="1245"/>
  </clipPath>
</defs>
<polyline clip-path="url(#clip822)" style="stroke:#ffffff; stroke-linecap:butt; stroke-linejoin:round; stroke-width:4; stroke-opacity:1; fill:none" points="
  816.99,1410.9 816.99,166.672 
  "/>
<polyline clip-path="url(#clip822)" style="stroke:#ffffff; stroke-linecap:butt; stroke-linejoin:round; stroke-width:4; stroke-opacity:1; fill:none" points="
  1481.11,1410.9 1481.11,166.672 
  "/>
<polyline clip-path="url(#clip822)" style="stroke:#ffffff; stroke-linecap:butt; stroke-linejoin:round; stroke-width:4; stroke-opacity:1; fill:none" points="
  2145.23,1410.9 2145.23,166.672 
  "/>
<polyline clip-path="url(#clip820)" style="stroke:#ffffff; stroke-linecap:butt; stroke-linejoin:round; stroke-width:4; stroke-opacity:1; fill:none" points="
  221.637,1410.9 2352.76,1410.9 
  "/>
<polyline clip-path="url(#clip820)" style="stroke:#333333; stroke-linecap:butt; stroke-linejoin:round; stroke-width:4; stroke-opacity:1; fill:none" points="
  816.99,1410.9 816.99,1429.79 
  "/>
<polyline clip-path="url(#clip820)" style="stroke:#333333; stroke-linecap:butt; stroke-linejoin:round; stroke-width:4; stroke-opacity:1; fill:none" points="
  1481.11,1410.9 1481.11,1429.79 
  "/>
<polyline clip-path="url(#clip820)" style="stroke:#333333; stroke-linecap:butt; stroke-linejoin:round; stroke-width:4; stroke-opacity:1; fill:none" points="
  2145.23,1410.9 2145.23,1429.79 
  "/>
<path clip-path="url(#clip820)" d="M748.636 1494.62 L756.275 1494.62 L756.275 1468.26 L747.965 1469.92 L747.965 1465.66 L756.229 1464 L760.905 1464 L760.905 1494.62 L768.544 1494.62 L768.544 1498.56 L748.636 1498.56 L748.636 1494.62 Z" fill="#4c4c4c" fill-rule="evenodd" fill-opacity="1" /><path clip-path="url(#clip820)" d="M787.988 1467.08 Q784.377 1467.08 782.548 1470.64 Q780.743 1474.18 780.743 1481.31 Q780.743 1488.42 782.548 1491.98 Q784.377 1495.52 787.988 1495.52 Q791.622 1495.52 793.428 1491.98 Q795.256 1488.42 795.256 1481.31 Q795.256 1474.18 793.428 1470.64 Q791.622 1467.08 787.988 1467.08 M787.988 1463.37 Q793.798 1463.37 796.854 1467.98 Q799.932 1472.56 799.932 1481.31 Q799.932 1490.04 796.854 1494.64 Q793.798 1499.23 787.988 1499.23 Q782.178 1499.23 779.099 1494.64 Q776.044 1490.04 776.044 1481.31 Q776.044 1472.56 779.099 1467.98 Q782.178 1463.37 787.988 1463.37 Z" fill="#4c4c4c" fill-rule="evenodd" fill-opacity="1" /><path clip-path="url(#clip820)" d="M799.932 1457.47 L824.044 1457.47 L824.044 1460.67 L799.932 1460.67 L799.932 1457.47 Z" fill="#4c4c4c" fill-rule="evenodd" fill-opacity="1" /><path clip-path="url(#clip820)" d="M835.517 1467.95 L848.776 1467.95 L848.776 1471.15 L830.946 1471.15 L830.946 1467.95 Q833.109 1465.71 836.833 1461.95 Q840.576 1458.17 841.535 1457.08 Q843.359 1455.03 844.074 1453.62 Q844.808 1452.19 844.808 1450.82 Q844.808 1448.58 843.228 1447.17 Q841.667 1445.76 839.147 1445.76 Q837.36 1445.76 835.366 1446.38 Q833.391 1447 831.134 1448.26 L831.134 1444.42 Q833.429 1443.5 835.423 1443.03 Q837.416 1442.56 839.071 1442.56 Q843.435 1442.56 846.03 1444.74 Q848.626 1446.92 848.626 1450.57 Q848.626 1452.3 847.967 1453.86 Q847.328 1455.4 845.616 1457.51 Q845.146 1458.06 842.626 1460.67 Q840.106 1463.27 835.517 1467.95 Z" fill="#4c4c4c" fill-rule="evenodd" fill-opacity="1" /><path clip-path="url(#clip820)" d="M856.751 1466.37 L860.719 1466.37 L860.719 1471.15 L856.751 1471.15 L856.751 1466.37 Z" fill="#4c4c4c" fill-rule="evenodd" fill-opacity="1" /><path clip-path="url(#clip820)" d="M869.032 1443.07 L883.947 1443.07 L883.947 1446.26 L872.512 1446.26 L872.512 1453.15 Q873.339 1452.87 874.167 1452.73 Q874.994 1452.58 875.822 1452.58 Q880.524 1452.58 883.27 1455.16 Q886.015 1457.74 886.015 1462.14 Q886.015 1466.67 883.194 1469.19 Q880.373 1471.69 875.239 1471.69 Q873.471 1471.69 871.628 1471.39 Q869.803 1471.09 867.847 1470.49 L867.847 1466.67 Q869.54 1467.59 871.345 1468.04 Q873.151 1468.49 875.163 1468.49 Q878.417 1468.49 880.317 1466.78 Q882.216 1465.07 882.216 1462.14 Q882.216 1459.2 880.317 1457.49 Q878.417 1455.78 875.163 1455.78 Q873.64 1455.78 872.117 1456.12 Q870.612 1456.46 869.032 1457.17 L869.032 1443.07 Z" fill="#4c4c4c" fill-rule="evenodd" fill-opacity="1" /><path clip-path="url(#clip820)" d="M1412.35 1494.62 L1419.99 1494.62 L1419.99 1468.26 L1411.68 1469.92 L1411.68 1465.66 L1419.94 1464 L1424.62 1464 L1424.62 1494.62 L1432.26 1494.62 L1432.26 1498.56 L1412.35 1498.56 L1412.35 1494.62 Z" fill="#4c4c4c" fill-rule="evenodd" fill-opacity="1" /><path clip-path="url(#clip820)" d="M1451.7 1467.08 Q1448.09 1467.08 1446.26 1470.64 Q1444.46 1474.18 1444.46 1481.31 Q1444.46 1488.42 1446.26 1491.98 Q1448.09 1495.52 1451.7 1495.52 Q1455.34 1495.52 1457.14 1491.98 Q1458.97 1488.42 1458.97 1481.31 Q1458.97 1474.18 1457.14 1470.64 Q1455.34 1467.08 1451.7 1467.08 M1451.7 1463.37 Q1457.51 1463.37 1460.57 1467.98 Q1463.65 1472.56 1463.65 1481.31 Q1463.65 1490.04 1460.57 1494.64 Q1457.51 1499.23 1451.7 1499.23 Q1445.89 1499.23 1442.81 1494.64 Q1439.76 1490.04 1439.76 1481.31 Q1439.76 1472.56 1442.81 1467.98 Q1445.89 1463.37 1451.7 1463.37 Z" fill="#4c4c4c" fill-rule="evenodd" fill-opacity="1" /><path clip-path="url(#clip820)" d="M1463.65 1457.47 L1487.76 1457.47 L1487.76 1460.67 L1463.65 1460.67 L1463.65 1457.47 Z" fill="#4c4c4c" fill-rule="evenodd" fill-opacity="1" /><path clip-path="url(#clip820)" d="M1499.23 1467.95 L1512.49 1467.95 L1512.49 1471.15 L1494.66 1471.15 L1494.66 1467.95 Q1496.82 1465.71 1500.55 1461.95 Q1504.29 1458.17 1505.25 1457.08 Q1507.07 1455.03 1507.79 1453.62 Q1508.52 1452.19 1508.52 1450.82 Q1508.52 1448.58 1506.94 1447.17 Q1505.38 1445.76 1502.86 1445.76 Q1501.07 1445.76 1499.08 1446.38 Q1497.11 1447 1494.85 1448.26 L1494.85 1444.42 Q1497.14 1443.5 1499.14 1443.03 Q1501.13 1442.56 1502.79 1442.56 Q1507.15 1442.56 1509.74 1444.74 Q1512.34 1446.92 1512.34 1450.57 Q1512.34 1452.3 1511.68 1453.86 Q1511.04 1455.4 1509.33 1457.51 Q1508.86 1458.06 1506.34 1460.67 Q1503.82 1463.27 1499.23 1467.95 Z" fill="#4c4c4c" fill-rule="evenodd" fill-opacity="1" /><path clip-path="url(#clip820)" d="M1520.46 1466.37 L1524.43 1466.37 L1524.43 1471.15 L1520.46 1471.15 L1520.46 1466.37 Z" fill="#4c4c4c" fill-rule="evenodd" fill-opacity="1" /><path clip-path="url(#clip820)" d="M1540.83 1445.57 Q1537.9 1445.57 1536.41 1448.46 Q1534.95 1451.34 1534.95 1457.13 Q1534.95 1462.91 1536.41 1465.8 Q1537.9 1468.68 1540.83 1468.68 Q1543.79 1468.68 1545.25 1465.8 Q1546.74 1462.91 1546.74 1457.13 Q1546.74 1451.34 1545.25 1448.46 Q1543.79 1445.57 1540.83 1445.57 M1540.83 1442.56 Q1545.55 1442.56 1548.04 1446.3 Q1550.54 1450.03 1550.54 1457.13 Q1550.54 1464.22 1548.04 1467.97 Q1545.55 1471.69 1540.83 1471.69 Q1536.11 1471.69 1533.61 1467.97 Q1531.13 1464.22 1531.13 1457.13 Q1531.13 1450.03 1533.61 1446.3 Q1536.11 1442.56 1540.83 1442.56 Z" fill="#4c4c4c" fill-rule="evenodd" fill-opacity="1" /><path clip-path="url(#clip820)" d="M2076.87 1494.62 L2084.51 1494.62 L2084.51 1468.26 L2076.2 1469.92 L2076.2 1465.66 L2084.47 1464 L2089.14 1464 L2089.14 1494.62 L2096.78 1494.62 L2096.78 1498.56 L2076.87 1498.56 L2076.87 1494.62 Z" fill="#4c4c4c" fill-rule="evenodd" fill-opacity="1" /><path clip-path="url(#clip820)" d="M2116.23 1467.08 Q2112.61 1467.08 2110.79 1470.64 Q2108.98 1474.18 2108.98 1481.31 Q2108.98 1488.42 2110.79 1491.98 Q2112.61 1495.52 2116.23 1495.52 Q2119.86 1495.52 2121.66 1491.98 Q2123.49 1488.42 2123.49 1481.31 Q2123.49 1474.18 2121.66 1470.64 Q2119.86 1467.08 2116.23 1467.08 M2116.23 1463.37 Q2122.04 1463.37 2125.09 1467.98 Q2128.17 1472.56 2128.17 1481.31 Q2128.17 1490.04 2125.09 1494.64 Q2122.04 1499.23 2116.23 1499.23 Q2110.42 1499.23 2107.34 1494.64 Q2104.28 1490.04 2104.28 1481.31 Q2104.28 1472.56 2107.34 1467.98 Q2110.42 1463.37 2116.23 1463.37 Z" fill="#4c4c4c" fill-rule="evenodd" fill-opacity="1" /><path clip-path="url(#clip820)" d="M2128.17 1457.47 L2152.28 1457.47 L2152.28 1460.67 L2128.17 1460.67 L2128.17 1457.47 Z" fill="#4c4c4c" fill-rule="evenodd" fill-opacity="1" /><path clip-path="url(#clip820)" d="M2161.14 1467.95 L2167.35 1467.95 L2167.35 1446.53 L2160.59 1447.88 L2160.59 1444.42 L2167.31 1443.07 L2171.11 1443.07 L2171.11 1467.95 L2177.31 1467.95 L2177.31 1471.15 L2161.14 1471.15 L2161.14 1467.95 Z" fill="#4c4c4c" fill-rule="evenodd" fill-opacity="1" /><path clip-path="url(#clip820)" d="M2184.99 1466.37 L2188.96 1466.37 L2188.96 1471.15 L2184.99 1471.15 L2184.99 1466.37 Z" fill="#4c4c4c" fill-rule="evenodd" fill-opacity="1" /><path clip-path="url(#clip820)" d="M2197.27 1443.07 L2212.18 1443.07 L2212.18 1446.26 L2200.75 1446.26 L2200.75 1453.15 Q2201.58 1452.87 2202.4 1452.73 Q2203.23 1452.58 2204.06 1452.58 Q2208.76 1452.58 2211.51 1455.16 Q2214.25 1457.74 2214.25 1462.14 Q2214.25 1466.67 2211.43 1469.19 Q2208.61 1471.69 2203.48 1471.69 Q2201.71 1471.69 2199.86 1471.39 Q2198.04 1471.09 2196.08 1470.49 L2196.08 1466.67 Q2197.78 1467.59 2199.58 1468.04 Q2201.39 1468.49 2203.4 1468.49 Q2206.65 1468.49 2208.55 1466.78 Q2210.45 1465.07 2210.45 1462.14 Q2210.45 1459.2 2208.55 1457.49 Q2206.65 1455.78 2203.4 1455.78 Q2201.88 1455.78 2200.35 1456.12 Q2198.85 1456.46 2197.27 1457.17 L2197.27 1443.07 Z" fill="#4c4c4c" fill-rule="evenodd" fill-opacity="1" /><path clip-path="url(#clip820)" d="M1274.93 1533 L1261.88 1568.84 L1288.01 1568.84 L1274.93 1533 M1253.16 1574.19 L1271.3 1526.67 L1278.59 1526.67 L1296.7 1574.19 L1253.16 1574.19 Z" fill="#000000" fill-rule="evenodd" fill-opacity="1" /><path clip-path="url(#clip820)" d="M1309.17 1528.42 L1309.17 1538.54 L1321.24 1538.54 L1321.24 1543.09 L1309.17 1543.09 L1309.17 1562.44 Q1309.17 1566.8 1310.35 1568.04 Q1311.56 1569.28 1315.22 1569.28 L1321.24 1569.28 L1321.24 1574.19 L1315.22 1574.19 Q1308.44 1574.19 1305.86 1571.67 Q1303.29 1569.12 1303.29 1562.44 L1303.29 1543.09 L1298.99 1543.09 L1298.99 1538.54 L1303.29 1538.54 L1303.29 1528.42 L1309.17 1528.42 Z" fill="#000000" fill-rule="evenodd" fill-opacity="1" /><polyline clip-path="url(#clip822)" style="stroke:#ffffff; stroke-linecap:butt; stroke-linejoin:round; stroke-width:4; stroke-opacity:1; fill:none" points="
  221.637,1134.61 2352.76,1134.61 
  "/>
<polyline clip-path="url(#clip822)" style="stroke:#ffffff; stroke-linecap:butt; stroke-linejoin:round; stroke-width:4; stroke-opacity:1; fill:none" points="
  221.637,701.064 2352.76,701.064 
  "/>
<polyline clip-path="url(#clip822)" style="stroke:#ffffff; stroke-linecap:butt; stroke-linejoin:round; stroke-width:4; stroke-opacity:1; fill:none" points="
  221.637,267.521 2352.76,267.521 
  "/>
<polyline clip-path="url(#clip822)" style="stroke:#ffffff; stroke-linecap:butt; stroke-linejoin:round; stroke-width:2; stroke-opacity:1; fill:none" points="
  221.637,1247.17 2352.76,1247.17 
  "/>
<polyline clip-path="url(#clip822)" style="stroke:#ffffff; stroke-linecap:butt; stroke-linejoin:round; stroke-width:2; stroke-opacity:1; fill:none" points="
  221.637,813.627 2352.76,813.627 
  "/>
<polyline clip-path="url(#clip822)" style="stroke:#ffffff; stroke-linecap:butt; stroke-linejoin:round; stroke-width:2; stroke-opacity:1; fill:none" points="
  221.637,380.085 2352.76,380.085 
  "/>
<polyline clip-path="url(#clip820)" style="stroke:#ffffff; stroke-linecap:butt; stroke-linejoin:round; stroke-width:4; stroke-opacity:1; fill:none" points="
  221.637,1410.9 221.637,166.672 
  "/>
<polyline clip-path="url(#clip820)" style="stroke:#333333; stroke-linecap:butt; stroke-linejoin:round; stroke-width:4; stroke-opacity:1; fill:none" points="
  221.637,1134.61 202.739,1134.61 
  "/>
<polyline clip-path="url(#clip820)" style="stroke:#333333; stroke-linecap:butt; stroke-linejoin:round; stroke-width:4; stroke-opacity:1; fill:none" points="
  221.637,701.064 202.739,701.064 
  "/>
<polyline clip-path="url(#clip820)" style="stroke:#333333; stroke-linecap:butt; stroke-linejoin:round; stroke-width:4; stroke-opacity:1; fill:none" points="
  221.637,267.521 202.739,267.521 
  "/>
<polyline clip-path="url(#clip820)" style="stroke:#333333; stroke-linecap:butt; stroke-linejoin:round; stroke-width:4; stroke-opacity:1; fill:none" points="
  221.637,1247.17 212.188,1247.17 
  "/>
<polyline clip-path="url(#clip820)" style="stroke:#333333; stroke-linecap:butt; stroke-linejoin:round; stroke-width:4; stroke-opacity:1; fill:none" points="
  221.637,813.627 212.188,813.627 
  "/>
<polyline clip-path="url(#clip820)" style="stroke:#333333; stroke-linecap:butt; stroke-linejoin:round; stroke-width:4; stroke-opacity:1; fill:none" points="
  221.637,380.085 212.188,380.085 
  "/>
<path clip-path="url(#clip820)" d="M96.9315 1154.4 L104.57 1154.4 L104.57 1128.03 L96.2602 1129.7 L96.2602 1125.44 L104.524 1123.77 L109.2 1123.77 L109.2 1154.4 L116.839 1154.4 L116.839 1158.33 L96.9315 1158.33 L96.9315 1154.4 Z" fill="#4c4c4c" fill-rule="evenodd" fill-opacity="1" /><path clip-path="url(#clip820)" d="M136.283 1126.85 Q132.672 1126.85 130.843 1130.42 Q129.038 1133.96 129.038 1141.09 Q129.038 1148.19 130.843 1151.76 Q132.672 1155.3 136.283 1155.3 Q139.917 1155.3 141.723 1151.76 Q143.552 1148.19 143.552 1141.09 Q143.552 1133.96 141.723 1130.42 Q139.917 1126.85 136.283 1126.85 M136.283 1123.15 Q142.093 1123.15 145.149 1127.76 Q148.227 1132.34 148.227 1141.09 Q148.227 1149.82 145.149 1154.42 Q142.093 1159 136.283 1159 Q130.473 1159 127.394 1154.42 Q124.339 1149.82 124.339 1141.09 Q124.339 1132.34 127.394 1127.76 Q130.473 1123.15 136.283 1123.15 Z" fill="#4c4c4c" fill-rule="evenodd" fill-opacity="1" /><path clip-path="url(#clip820)" d="M157.932 1105.34 Q154.998 1105.34 153.512 1108.24 Q152.045 1111.12 152.045 1116.91 Q152.045 1122.69 153.512 1125.58 Q154.998 1128.46 157.932 1128.46 Q160.885 1128.46 162.352 1125.58 Q163.838 1122.69 163.838 1116.91 Q163.838 1111.12 162.352 1108.24 Q160.885 1105.34 157.932 1105.34 M157.932 1102.34 Q162.653 1102.34 165.136 1106.08 Q167.637 1109.8 167.637 1116.91 Q167.637 1124 165.136 1127.74 Q162.653 1131.47 157.932 1131.47 Q153.212 1131.47 150.71 1127.74 Q148.227 1124 148.227 1116.91 Q148.227 1109.8 150.71 1106.08 Q153.212 1102.34 157.932 1102.34 Z" fill="#4c4c4c" fill-rule="evenodd" fill-opacity="1" /><path clip-path="url(#clip820)" d="M99.621 720.856 L107.26 720.856 L107.26 694.49 L98.9497 696.157 L98.9497 691.898 L107.214 690.231 L111.889 690.231 L111.889 720.856 L119.528 720.856 L119.528 724.791 L99.621 724.791 L99.621 720.856 Z" fill="#4c4c4c" fill-rule="evenodd" fill-opacity="1" /><path clip-path="url(#clip820)" d="M138.973 693.31 Q135.362 693.31 133.533 696.875 Q131.727 700.416 131.727 707.546 Q131.727 714.652 133.533 718.217 Q135.362 721.759 138.973 721.759 Q142.607 721.759 144.412 718.217 Q146.241 714.652 146.241 707.546 Q146.241 700.416 144.412 696.875 Q142.607 693.31 138.973 693.31 M138.973 689.606 Q144.783 689.606 147.838 694.213 Q150.917 698.796 150.917 707.546 Q150.917 716.273 147.838 720.879 Q144.783 725.462 138.973 725.462 Q133.162 725.462 130.084 720.879 Q127.028 716.273 127.028 707.546 Q127.028 698.796 130.084 694.213 Q133.162 689.606 138.973 689.606 Z" fill="#4c4c4c" fill-rule="evenodd" fill-opacity="1" /><path clip-path="url(#clip820)" d="M151.462 694.183 L157.669 694.183 L157.669 672.761 L150.917 674.116 L150.917 670.655 L157.631 669.301 L161.431 669.301 L161.431 694.183 L167.637 694.183 L167.637 697.381 L151.462 697.381 L151.462 694.183 Z" fill="#4c4c4c" fill-rule="evenodd" fill-opacity="1" /><path clip-path="url(#clip820)" d="M98.5113 287.314 L106.15 287.314 L106.15 260.948 L97.84 262.615 L97.84 258.355 L106.104 256.689 L110.78 256.689 L110.78 287.314 L118.419 287.314 L118.419 291.249 L98.5113 291.249 L98.5113 287.314 Z" fill="#4c4c4c" fill-rule="evenodd" fill-opacity="1" /><path clip-path="url(#clip820)" d="M137.863 259.767 Q134.252 259.767 132.423 263.332 Q130.618 266.874 130.618 274.003 Q130.618 281.11 132.423 284.675 Q134.252 288.216 137.863 288.216 Q141.497 288.216 143.303 284.675 Q145.131 281.11 145.131 274.003 Q145.131 266.874 143.303 263.332 Q141.497 259.767 137.863 259.767 M137.863 256.064 Q143.673 256.064 146.729 260.67 Q149.807 265.253 149.807 274.003 Q149.807 282.73 146.729 287.337 Q143.673 291.92 137.863 291.92 Q132.053 291.92 128.974 287.337 Q125.919 282.73 125.919 274.003 Q125.919 265.253 128.974 260.67 Q132.053 256.064 137.863 256.064 Z" fill="#4c4c4c" fill-rule="evenodd" fill-opacity="1" /><path clip-path="url(#clip820)" d="M154.378 260.641 L167.637 260.641 L167.637 263.838 L149.807 263.838 L149.807 260.641 Q151.97 258.403 155.694 254.641 Q159.437 250.861 160.396 249.77 Q162.22 247.72 162.935 246.309 Q163.669 244.88 163.669 243.507 Q163.669 241.269 162.089 239.858 Q160.528 238.448 158.008 238.448 Q156.221 238.448 154.227 239.068 Q152.252 239.689 149.995 240.949 L149.995 237.112 Q152.29 236.191 154.284 235.721 Q156.277 235.251 157.932 235.251 Q162.296 235.251 164.891 237.432 Q167.487 239.614 167.487 243.263 Q167.487 244.993 166.828 246.554 Q166.189 248.096 164.477 250.203 Q164.007 250.748 161.487 253.362 Q158.967 255.958 154.378 260.641 Z" fill="#4c4c4c" fill-rule="evenodd" fill-opacity="1" /><path clip-path="url(#clip820)" d="M44.7161 817.669 L47.5806 817.669 L47.5806 844.596 Q53.6281 844.214 56.8109 840.967 Q59.9619 837.689 59.9619 831.864 Q59.9619 828.49 59.1344 825.339 Q58.3069 822.157 56.6518 819.037 L62.1899 819.037 Q63.5267 822.188 64.227 825.499 Q64.9272 828.809 64.9272 832.214 Q64.9272 840.744 59.9619 845.742 Q54.9967 850.707 46.5303 850.707 Q37.7774 850.707 32.6531 845.996 Q27.4968 841.254 27.4968 833.233 Q27.4968 826.04 32.1438 821.87 Q36.7589 817.669 44.7161 817.669 M42.9973 823.525 Q38.1912 823.589 35.3266 826.231 Q32.4621 828.841 32.4621 833.169 Q32.4621 838.071 35.2312 841.031 Q38.0002 843.959 43.0292 844.405 L42.9973 823.525 Z" fill="#000000" fill-rule="evenodd" fill-opacity="1" /><path clip-path="url(#clip820)" d="M33.8307 787.4 Q33.2578 788.387 33.0032 789.564 Q32.7167 790.71 32.7167 792.11 Q32.7167 797.076 35.9632 799.749 Q39.1779 802.391 45.2253 802.391 L64.0042 802.391 L64.0042 808.279 L28.3562 808.279 L28.3562 802.391 L33.8944 802.391 Q30.6479 800.545 29.0883 797.585 Q27.4968 794.625 27.4968 790.392 Q27.4968 789.787 27.5923 789.055 Q27.656 788.323 27.8151 787.432 L33.8307 787.4 Z" fill="#000000" fill-rule="evenodd" fill-opacity="1" /><path clip-path="url(#clip820)" d="M33.8307 761.746 Q33.2578 762.733 33.0032 763.91 Q32.7167 765.056 32.7167 766.457 Q32.7167 771.422 35.9632 774.096 Q39.1779 776.737 45.2253 776.737 L64.0042 776.737 L64.0042 782.626 L28.3562 782.626 L28.3562 776.737 L33.8944 776.737 Q30.6479 774.891 29.0883 771.931 Q27.4968 768.971 27.4968 764.738 Q27.4968 764.133 27.5923 763.401 Q27.656 762.669 27.8151 761.778 L33.8307 761.746 Z" fill="#000000" fill-rule="evenodd" fill-opacity="1" /><path clip-path="url(#clip820)" d="M32.4621 743.222 Q32.4621 747.932 36.1542 750.67 Q39.8145 753.407 46.212 753.407 Q52.6095 753.407 56.3017 750.702 Q59.9619 747.964 59.9619 743.222 Q59.9619 738.543 56.2698 735.806 Q52.5777 733.069 46.212 733.069 Q39.8781 733.069 36.186 735.806 Q32.4621 738.543 32.4621 743.222 M27.4968 743.222 Q27.4968 735.583 32.4621 731.222 Q37.4273 726.862 46.212 726.862 Q54.9649 726.862 59.9619 731.222 Q64.9272 735.583 64.9272 743.222 Q64.9272 750.893 59.9619 755.253 Q54.9649 759.582 46.212 759.582 Q37.4273 759.582 32.4621 755.253 Q27.4968 750.893 27.4968 743.222 Z" fill="#000000" fill-rule="evenodd" fill-opacity="1" /><path clip-path="url(#clip820)" d="M959.438 28.512 L992.215 28.512 L992.215 34.4147 L966.452 34.4147 L966.452 49.7619 L991.139 49.7619 L991.139 55.6646 L966.452 55.6646 L966.452 74.4493 L992.84 74.4493 L992.84 80.352 L959.438 80.352 L959.438 28.512 Z" fill="#000000" fill-rule="evenodd" fill-opacity="1" /><path clip-path="url(#clip820)" d="M1026.62 47.4355 Q1025.55 46.8105 1024.26 46.5327 Q1023.01 46.2202 1021.49 46.2202 Q1016.07 46.2202 1013.15 49.7619 Q1010.27 53.2688 1010.27 59.866 L1010.27 80.352 L1003.85 80.352 L1003.85 41.4633 L1010.27 41.4633 L1010.27 47.505 Q1012.28 43.9633 1015.51 42.2619 Q1018.74 40.5258 1023.36 40.5258 Q1024.02 40.5258 1024.82 40.63 Q1025.62 40.6994 1026.59 40.873 L1026.62 47.4355 Z" fill="#000000" fill-rule="evenodd" fill-opacity="1" /><path clip-path="url(#clip820)" d="M1054.61 47.4355 Q1053.53 46.8105 1052.25 46.5327 Q1051 46.2202 1049.47 46.2202 Q1044.06 46.2202 1041.14 49.7619 Q1038.26 53.2688 1038.26 59.866 L1038.26 80.352 L1031.83 80.352 L1031.83 41.4633 L1038.26 41.4633 L1038.26 47.505 Q1040.27 43.9633 1043.5 42.2619 Q1046.73 40.5258 1051.35 40.5258 Q1052.01 40.5258 1052.81 40.63 Q1053.6 40.6994 1054.58 40.873 L1054.61 47.4355 Z" fill="#000000" fill-rule="evenodd" fill-opacity="1" /><path clip-path="url(#clip820)" d="M1074.82 45.9425 Q1069.68 45.9425 1066.69 49.9702 Q1063.71 53.9633 1063.71 60.9424 Q1063.71 67.9215 1066.66 71.9493 Q1069.65 75.9423 1074.82 75.9423 Q1079.92 75.9423 1082.91 71.9145 Q1085.9 67.8868 1085.9 60.9424 Q1085.9 54.0327 1082.91 50.0049 Q1079.92 45.9425 1074.82 45.9425 M1074.82 40.5258 Q1083.15 40.5258 1087.91 45.9425 Q1092.67 51.3591 1092.67 60.9424 Q1092.67 70.4909 1087.91 75.9423 Q1083.15 81.3589 1074.82 81.3589 Q1066.45 81.3589 1061.69 75.9423 Q1056.97 70.4909 1056.97 60.9424 Q1056.97 51.3591 1061.69 45.9425 Q1066.45 40.5258 1074.82 40.5258 Z" fill="#000000" fill-rule="evenodd" fill-opacity="1" /><path clip-path="url(#clip820)" d="M1145.55 26.3245 L1145.55 31.637 L1139.44 31.637 Q1136 31.637 1134.65 33.0259 Q1133.33 34.4147 1133.33 38.0258 L1133.33 41.4633 L1143.85 41.4633 L1143.85 46.4286 L1133.33 46.4286 L1133.33 80.352 L1126.9 80.352 L1126.9 46.4286 L1120.79 46.4286 L1120.79 41.4633 L1126.9 41.4633 L1126.9 38.755 Q1126.9 32.262 1129.92 29.3106 Q1132.94 26.3245 1139.51 26.3245 L1145.55 26.3245 Z" fill="#000000" fill-rule="evenodd" fill-opacity="1" /><path clip-path="url(#clip820)" d="M1165.96 45.9425 Q1160.83 45.9425 1157.84 49.9702 Q1154.85 53.9633 1154.85 60.9424 Q1154.85 67.9215 1157.8 71.9493 Q1160.79 75.9423 1165.96 75.9423 Q1171.07 75.9423 1174.05 71.9145 Q1177.04 67.8868 1177.04 60.9424 Q1177.04 54.0327 1174.05 50.0049 Q1171.07 45.9425 1165.96 45.9425 M1165.96 40.5258 Q1174.3 40.5258 1179.05 45.9425 Q1183.81 51.3591 1183.81 60.9424 Q1183.81 70.4909 1179.05 75.9423 Q1174.3 81.3589 1165.96 81.3589 Q1157.6 81.3589 1152.84 75.9423 Q1148.12 70.4909 1148.12 60.9424 Q1148.12 51.3591 1152.84 45.9425 Q1157.6 40.5258 1165.96 40.5258 Z" fill="#000000" fill-rule="evenodd" fill-opacity="1" /><path clip-path="url(#clip820)" d="M1216.94 47.4355 Q1215.86 46.8105 1214.58 46.5327 Q1213.33 46.2202 1211.8 46.2202 Q1206.38 46.2202 1203.46 49.7619 Q1200.58 53.2688 1200.58 59.866 L1200.58 80.352 L1194.16 80.352 L1194.16 41.4633 L1200.58 41.4633 L1200.58 47.505 Q1202.6 43.9633 1205.83 42.2619 Q1209.05 40.5258 1213.67 40.5258 Q1214.33 40.5258 1215.13 40.63 Q1215.93 40.6994 1216.9 40.873 L1216.94 47.4355 Z" fill="#000000" fill-rule="evenodd" fill-opacity="1" /><path clip-path="url(#clip820)" d="M1229.96 30.4217 L1229.96 41.4633 L1243.12 41.4633 L1243.12 46.4286 L1229.96 46.4286 L1229.96 67.5396 Q1229.96 72.2965 1231.24 73.6506 Q1232.56 75.0048 1236.55 75.0048 L1243.12 75.0048 L1243.12 80.352 L1236.55 80.352 Q1229.16 80.352 1226.35 77.609 Q1223.53 74.8312 1223.53 67.5396 L1223.53 46.4286 L1218.85 46.4286 L1218.85 41.4633 L1223.53 41.4633 L1223.53 30.4217 L1229.96 30.4217 Z" fill="#000000" fill-rule="evenodd" fill-opacity="1" /><path clip-path="url(#clip820)" d="M1284.78 59.3104 L1284.78 62.4354 L1255.41 62.4354 Q1255.83 69.0326 1259.37 72.5048 Q1262.94 75.9423 1269.3 75.9423 Q1272.98 75.9423 1276.42 75.0395 Q1279.89 74.1368 1283.29 72.3312 L1283.29 78.3728 Q1279.85 79.8312 1276.24 80.5951 Q1272.63 81.3589 1268.92 81.3589 Q1259.61 81.3589 1254.16 75.9423 Q1248.74 70.5257 1248.74 61.2896 Q1248.74 51.741 1253.88 46.1508 Q1259.05 40.5258 1267.8 40.5258 Q1275.65 40.5258 1280.2 45.5952 Q1284.78 50.6299 1284.78 59.3104 M1278.39 57.4355 Q1278.33 52.1924 1275.44 49.0674 Q1272.6 45.9425 1267.87 45.9425 Q1262.53 45.9425 1259.3 48.9633 Q1256.1 51.9841 1255.62 57.4702 L1278.39 57.4355 Z" fill="#000000" fill-rule="evenodd" fill-opacity="1" /><path clip-path="url(#clip820)" d="M1324.05 74.5187 L1324.05 95.1436 L1317.63 95.1436 L1317.63 41.4633 L1324.05 41.4633 L1324.05 47.3661 Q1326.07 43.8939 1329.12 42.2272 Q1332.21 40.5258 1336.48 40.5258 Q1343.57 40.5258 1347.98 46.1508 Q1352.42 51.7758 1352.42 60.9424 Q1352.42 70.109 1347.98 75.734 Q1343.57 81.3589 1336.48 81.3589 Q1332.21 81.3589 1329.12 79.6923 Q1326.07 77.9909 1324.05 74.5187 M1345.79 60.9424 Q1345.79 53.8938 1342.87 49.9008 Q1339.99 45.873 1334.92 45.873 Q1329.85 45.873 1326.94 49.9008 Q1324.05 53.8938 1324.05 60.9424 Q1324.05 67.991 1326.94 72.0187 Q1329.85 76.0117 1334.92 76.0117 Q1339.99 76.0117 1342.87 72.0187 Q1345.79 67.991 1345.79 60.9424 Z" fill="#000000" fill-rule="evenodd" fill-opacity="1" /><path clip-path="url(#clip820)" d="M1386.45 48.0605 L1430.96 48.0605 L1430.96 53.8938 L1386.45 53.8938 L1386.45 48.0605 M1386.45 62.2271 L1430.96 62.2271 L1430.96 68.1298 L1386.45 68.1298 L1386.45 62.2271 Z" fill="#000000" fill-rule="evenodd" fill-opacity="1" /><path clip-path="url(#clip820)" d="M1483.71 33.13 Q1478.29 33.13 1475.55 38.4772 Q1472.84 43.7897 1472.84 54.4841 Q1472.84 65.1437 1475.55 70.4909 Q1478.29 75.8034 1483.71 75.8034 Q1489.16 75.8034 1491.87 70.4909 Q1494.61 65.1437 1494.61 54.4841 Q1494.61 43.7897 1491.87 38.4772 Q1489.16 33.13 1483.71 33.13 M1483.71 27.5745 Q1492.42 27.5745 1497 34.4842 Q1501.62 41.3592 1501.62 54.4841 Q1501.62 67.5743 1497 74.484 Q1492.42 81.3589 1483.71 81.3589 Q1474.99 81.3589 1470.37 74.484 Q1465.79 67.5743 1465.79 54.4841 Q1465.79 41.3592 1470.37 34.4842 Q1474.99 27.5745 1483.71 27.5745 Z" fill="#000000" fill-rule="evenodd" fill-opacity="1" /><path clip-path="url(#clip820)" d="M1513.95 71.5326 L1521.28 71.5326 L1521.28 80.352 L1513.95 80.352 L1513.95 71.5326 Z" fill="#000000" fill-rule="evenodd" fill-opacity="1" /><path clip-path="url(#clip820)" d="M1557.8 52.4008 Q1562.84 53.4771 1565.65 56.8799 Q1568.5 60.2827 1568.5 65.2826 Q1568.5 72.9562 1563.22 77.1576 Q1557.94 81.3589 1548.22 81.3589 Q1544.96 81.3589 1541.48 80.6992 Q1538.05 80.0742 1534.37 78.7895 L1534.37 72.0187 Q1537.28 73.7201 1540.75 74.5881 Q1544.23 75.4562 1548.01 75.4562 Q1554.61 75.4562 1558.05 72.852 Q1561.52 70.2479 1561.52 65.2826 Q1561.52 60.6993 1558.29 58.1299 Q1555.09 55.5257 1549.37 55.5257 L1543.32 55.5257 L1543.32 49.7619 L1549.64 49.7619 Q1554.82 49.7619 1557.56 47.7133 Q1560.3 45.63 1560.3 41.7411 Q1560.3 37.7481 1557.46 35.63 Q1554.64 33.4773 1549.37 33.4773 Q1546.48 33.4773 1543.18 34.1022 Q1539.89 34.7272 1535.93 36.0467 L1535.93 29.7967 Q1539.92 28.6856 1543.39 28.1301 Q1546.9 27.5745 1549.99 27.5745 Q1557.98 27.5745 1562.63 31.2203 Q1567.28 34.8314 1567.28 41.0119 Q1567.28 45.3175 1564.82 48.3036 Q1562.35 51.2549 1557.8 52.4008 Z" fill="#000000" fill-rule="evenodd" fill-opacity="1" /><path clip-path="url(#clip820)" d="M1597.66 51.6369 Q1592.94 51.6369 1590.16 54.866 Q1587.42 58.0952 1587.42 63.7201 Q1587.42 69.3104 1590.16 72.5743 Q1592.94 75.8034 1597.66 75.8034 Q1602.39 75.8034 1605.13 72.5743 Q1607.91 69.3104 1607.91 63.7201 Q1607.91 58.0952 1605.13 54.866 Q1602.39 51.6369 1597.66 51.6369 M1611.59 29.6578 L1611.59 36.0467 Q1608.95 34.7967 1606.24 34.137 Q1603.57 33.4773 1600.93 33.4773 Q1593.98 33.4773 1590.3 38.1647 Q1586.66 42.8522 1586.14 52.3313 Q1588.18 49.3105 1591.27 47.7133 Q1594.36 46.0814 1598.08 46.0814 Q1605.89 46.0814 1610.41 50.8383 Q1614.96 55.5605 1614.96 63.7201 Q1614.96 71.7062 1610.23 76.5326 Q1605.51 81.3589 1597.66 81.3589 Q1588.67 81.3589 1583.91 74.484 Q1579.16 67.5743 1579.16 54.4841 Q1579.16 42.1925 1584.99 34.9009 Q1590.82 27.5745 1600.65 27.5745 Q1603.29 27.5745 1605.96 28.0953 Q1608.67 28.6162 1611.59 29.6578 Z" fill="#000000" fill-rule="evenodd" fill-opacity="1" /><path clip-path="url(#clip820)" d="M834.768 106.272 L845.22 106.272 L858.449 141.55 L871.747 106.272 L882.199 106.272 L882.199 158.112 L875.358 158.112 L875.358 112.591 L861.99 148.147 L854.942 148.147 L841.574 112.591 L841.574 158.112 L834.768 158.112 L834.768 106.272 Z" fill="#000000" fill-rule="evenodd" fill-opacity="1" /><path clip-path="url(#clip820)" d="M919.282 125.821 L963.795 125.821 L963.795 131.654 L919.282 131.654 L919.282 125.821 M919.282 139.987 L963.795 139.987 L963.795 145.89 L919.282 145.89 L919.282 139.987 Z" fill="#000000" fill-rule="evenodd" fill-opacity="1" /><path clip-path="url(#clip820)" d="M1001.61 106.272 L1029.14 106.272 L1029.14 112.175 L1008.03 112.175 L1008.03 124.883 Q1009.56 124.362 1011.09 124.119 Q1012.61 123.841 1014.14 123.841 Q1022.82 123.841 1027.89 128.598 Q1032.96 133.355 1032.96 141.48 Q1032.96 149.848 1027.75 154.501 Q1022.55 159.119 1013.07 159.119 Q1009.8 159.119 1006.4 158.563 Q1003.03 158.008 999.42 156.897 L999.42 149.848 Q1002.55 151.55 1005.88 152.383 Q1009.21 153.216 1012.93 153.216 Q1018.93 153.216 1022.44 150.056 Q1025.95 146.897 1025.95 141.48 Q1025.95 136.064 1022.44 132.904 Q1018.93 129.744 1012.93 129.744 Q1010.11 129.744 1007.3 130.369 Q1004.52 130.994 1001.61 132.314 L1001.61 106.272 Z" fill="#000000" fill-rule="evenodd" fill-opacity="1" /><path clip-path="url(#clip820)" d="M1061.78 110.89 Q1056.36 110.89 1053.62 116.237 Q1050.91 121.55 1050.91 132.244 Q1050.91 142.904 1053.62 148.251 Q1056.36 153.563 1061.78 153.563 Q1067.23 153.563 1069.94 148.251 Q1072.68 142.904 1072.68 132.244 Q1072.68 121.55 1069.94 116.237 Q1067.23 110.89 1061.78 110.89 M1061.78 105.335 Q1070.5 105.335 1075.08 112.244 Q1079.7 119.119 1079.7 132.244 Q1079.7 145.334 1075.08 152.244 Q1070.5 159.119 1061.78 159.119 Q1053.07 159.119 1048.45 152.244 Q1043.86 145.334 1043.86 132.244 Q1043.86 119.119 1048.45 112.244 Q1053.07 105.335 1061.78 105.335 Z" fill="#000000" fill-rule="evenodd" fill-opacity="1" /><path clip-path="url(#clip820)" d="M1107.02 110.89 Q1101.61 110.89 1098.86 116.237 Q1096.16 121.55 1096.16 132.244 Q1096.16 142.904 1098.86 148.251 Q1101.61 153.563 1107.02 153.563 Q1112.48 153.563 1115.18 148.251 Q1117.93 142.904 1117.93 132.244 Q1117.93 121.55 1115.18 116.237 Q1112.48 110.89 1107.02 110.89 M1107.02 105.335 Q1115.74 105.335 1120.32 112.244 Q1124.94 119.119 1124.94 132.244 Q1124.94 145.334 1120.32 152.244 Q1115.74 159.119 1107.02 159.119 Q1098.31 159.119 1093.69 152.244 Q1089.11 145.334 1089.11 132.244 Q1089.11 119.119 1093.69 112.244 Q1098.31 105.335 1107.02 105.335 Z" fill="#000000" fill-rule="evenodd" fill-opacity="1" /><path clip-path="url(#clip820)" d="M1138 149.293 L1145.32 149.293 L1145.32 155.265 L1139.63 166.376 L1135.15 166.376 L1138 155.265 L1138 149.293 Z" fill="#000000" fill-rule="evenodd" fill-opacity="1" /><path clip-path="url(#clip820)" d="M1196.64 124.293 Q1191.36 124.293 1188.52 128.112 Q1185.53 132.105 1185.53 138.702 Q1185.53 145.682 1188.48 149.709 Q1191.47 153.702 1196.64 153.702 Q1201.75 153.702 1204.73 149.675 Q1207.72 145.647 1207.72 138.702 Q1207.72 132.348 1204.73 128.112 Q1201.99 124.293 1196.64 124.293 M1196.64 119.223 L1217.86 119.223 L1217.86 125.612 L1210.7 125.612 Q1214.49 131.029 1214.49 138.702 Q1214.49 148.251 1209.73 153.668 Q1204.97 159.119 1196.64 159.119 Q1188.27 159.119 1183.55 153.668 Q1178.79 148.251 1178.79 138.702 Q1178.79 129.084 1183.55 123.702 Q1187.47 119.223 1196.64 119.223 Z" fill="#000000" fill-rule="evenodd" fill-opacity="1" /><path clip-path="url(#clip820)" d="M1250.08 125.821 L1294.59 125.821 L1294.59 131.654 L1250.08 131.654 L1250.08 125.821 M1250.08 139.987 L1294.59 139.987 L1294.59 145.89 L1250.08 145.89 L1250.08 139.987 Z" fill="#000000" fill-rule="evenodd" fill-opacity="1" /><path clip-path="url(#clip820)" d="M1333.55 152.209 L1345.01 152.209 L1345.01 112.661 L1332.54 115.161 L1332.54 108.772 L1344.94 106.272 L1351.95 106.272 L1351.95 152.209 L1363.41 152.209 L1363.41 158.112 L1333.55 158.112 L1333.55 152.209 Z" fill="#000000" fill-rule="evenodd" fill-opacity="1" /><path clip-path="url(#clip820)" d="M1377.58 149.293 L1384.9 149.293 L1384.9 158.112 L1377.58 158.112 L1377.58 149.293 Z" fill="#000000" fill-rule="evenodd" fill-opacity="1" /><path clip-path="url(#clip820)" d="M1400.25 106.272 L1427.79 106.272 L1427.79 112.175 L1406.68 112.175 L1406.68 124.883 Q1408.2 124.362 1409.73 124.119 Q1411.26 123.841 1412.79 123.841 Q1421.47 123.841 1426.54 128.598 Q1431.61 133.355 1431.61 141.48 Q1431.61 149.848 1426.4 154.501 Q1421.19 159.119 1411.71 159.119 Q1408.45 159.119 1405.04 158.563 Q1401.68 158.008 1398.06 156.897 L1398.06 149.848 Q1401.19 151.55 1404.52 152.383 Q1407.86 153.216 1411.57 153.216 Q1417.58 153.216 1421.08 150.056 Q1424.59 146.897 1424.59 141.48 Q1424.59 136.064 1421.08 132.904 Q1417.58 129.744 1411.57 129.744 Q1408.76 129.744 1405.95 130.369 Q1403.17 130.994 1400.25 132.314 L1400.25 106.272 Z" fill="#000000" fill-rule="evenodd" fill-opacity="1" /><path clip-path="url(#clip820)" d="M1446.15 149.293 L1453.48 149.293 L1453.48 155.265 L1447.79 166.376 L1443.31 166.376 L1446.15 155.265 L1446.15 149.293 Z" fill="#000000" fill-rule="evenodd" fill-opacity="1" /><path clip-path="url(#clip820)" d="M1482.82 106.272 L1526.67 106.272 L1526.67 112.175 L1508.27 112.175 L1508.27 158.112 L1501.22 158.112 L1501.22 112.175 L1482.82 112.175 L1482.82 106.272 Z" fill="#000000" fill-rule="evenodd" fill-opacity="1" /><path clip-path="url(#clip820)" d="M1556.6 125.821 L1601.12 125.821 L1601.12 131.654 L1556.6 131.654 L1556.6 125.821 M1556.6 139.987 L1601.12 139.987 L1601.12 145.89 L1556.6 145.89 L1556.6 139.987 Z" fill="#000000" fill-rule="evenodd" fill-opacity="1" /><path clip-path="url(#clip820)" d="M1644.9 152.209 L1669.38 152.209 L1669.38 158.112 L1636.47 158.112 L1636.47 152.209 Q1640.46 148.077 1647.33 141.133 Q1654.24 134.154 1656.01 132.14 Q1659.38 128.355 1660.7 125.751 Q1662.06 123.112 1662.06 120.577 Q1662.06 116.446 1659.14 113.841 Q1656.26 111.237 1651.6 111.237 Q1648.31 111.237 1644.63 112.383 Q1640.98 113.529 1636.81 115.855 L1636.81 108.772 Q1641.05 107.071 1644.73 106.203 Q1648.41 105.335 1651.47 105.335 Q1659.52 105.335 1664.31 109.362 Q1669.1 113.39 1669.1 120.126 Q1669.1 123.321 1667.89 126.202 Q1666.71 129.05 1663.55 132.939 Q1662.68 133.945 1658.03 138.772 Q1653.38 143.563 1644.9 152.209 Z" fill="#000000" fill-rule="evenodd" fill-opacity="1" /><path clip-path="url(#clip820)" d="M1684.1 149.293 L1691.43 149.293 L1691.43 158.112 L1684.1 158.112 L1684.1 149.293 Z" fill="#000000" fill-rule="evenodd" fill-opacity="1" /><path clip-path="url(#clip820)" d="M1721.71 110.89 Q1716.29 110.89 1713.55 116.237 Q1710.84 121.55 1710.84 132.244 Q1710.84 142.904 1713.55 148.251 Q1716.29 153.563 1721.71 153.563 Q1727.16 153.563 1729.87 148.251 Q1732.61 142.904 1732.61 132.244 Q1732.61 121.55 1729.87 116.237 Q1727.16 110.89 1721.71 110.89 M1721.71 105.335 Q1730.42 105.335 1735.01 112.244 Q1739.62 119.119 1739.62 132.244 Q1739.62 145.334 1735.01 152.244 Q1730.42 159.119 1721.71 159.119 Q1712.99 159.119 1708.37 152.244 Q1703.79 145.334 1703.79 132.244 Q1703.79 119.119 1708.37 112.244 Q1712.99 105.335 1721.71 105.335 Z" fill="#000000" fill-rule="evenodd" fill-opacity="1" /><path clip-path="url(#clip822)" d="M2292.44 661.184 L2288.68 672 L2277.23 672.24 L2286.36 679.168 L2283.03 690.128 L2292.44 683.584 L2301.85 690.128 L2298.52 679.168 L2307.66 672.24 L2296.2 672 L2292.44 661.184 Z" fill="#009af9" fill-rule="evenodd" fill-opacity="1" stroke="#000000" stroke-opacity="1" stroke-width="0"/>
<path clip-path="url(#clip822)" d="M1886.75 626.424 L1882.99 637.24 L1871.53 637.48 L1880.67 644.408 L1877.34 655.368 L1886.75 648.824 L1896.15 655.368 L1892.83 644.408 L1901.96 637.48 L1890.51 637.24 L1886.75 626.424 Z" fill="#009af9" fill-rule="evenodd" fill-opacity="1" stroke="#000000" stroke-opacity="1" stroke-width="0"/>
<path clip-path="url(#clip822)" d="M1484 748.548 L1480.24 759.364 L1468.78 759.604 L1477.92 766.532 L1474.59 777.492 L1484 770.948 L1493.41 777.492 L1490.08 766.532 L1499.22 759.604 L1487.76 759.364 L1484 748.548 Z" fill="#009af9" fill-rule="evenodd" fill-opacity="1" stroke="#000000" stroke-opacity="1" stroke-width="0"/>
<path clip-path="url(#clip822)" d="M1082.71 619.429 L1078.95 630.245 L1067.5 630.485 L1076.63 637.413 L1073.31 648.373 L1082.71 641.829 L1092.12 648.373 L1088.79 637.413 L1097.93 630.485 L1086.47 630.245 L1082.71 619.429 Z" fill="#009af9" fill-rule="evenodd" fill-opacity="1" stroke="#000000" stroke-opacity="1" stroke-width="0"/>
<path clip-path="url(#clip822)" d="M682.152 775.409 L678.392 786.225 L666.936 786.465 L676.072 793.393 L672.744 804.353 L682.152 797.809 L691.56 804.353 L688.232 793.393 L697.368 786.465 L685.912 786.225 L682.152 775.409 Z" fill="#009af9" fill-rule="evenodd" fill-opacity="1" stroke="#000000" stroke-opacity="1" stroke-width="0"/>
<path clip-path="url(#clip822)" d="M281.952 926.14 L278.192 936.956 L266.736 937.196 L275.872 944.124 L272.544 955.084 L281.952 948.54 L291.36 955.084 L288.032 944.124 L297.168 937.196 L285.712 936.956 L281.952 926.14 Z" fill="#009af9" fill-rule="evenodd" fill-opacity="1" stroke="#000000" stroke-opacity="1" stroke-width="0"/>
<path clip-path="url(#clip822)" d="M2292.44 850.403 L2288.68 861.219 L2277.23 861.459 L2286.36 868.387 L2283.03 879.347 L2292.44 872.803 L2301.85 879.347 L2298.52 868.387 L2307.66 861.459 L2296.2 861.219 L2292.44 850.403 Z" fill="#e26f46" fill-rule="evenodd" fill-opacity="1" stroke="#000000" stroke-opacity="1" stroke-width="0"/>
<path clip-path="url(#clip822)" d="M1886.75 924.618 L1882.99 935.434 L1871.53 935.674 L1880.67 942.602 L1877.34 953.562 L1886.75 947.018 L1896.15 953.562 L1892.83 942.602 L1901.96 935.674 L1890.51 935.434 L1886.75 924.618 Z" fill="#e26f46" fill-rule="evenodd" fill-opacity="1" stroke="#000000" stroke-opacity="1" stroke-width="0"/>
<path clip-path="url(#clip822)" d="M1484 944.859 L1480.24 955.675 L1468.78 955.915 L1477.92 962.843 L1474.59 973.803 L1484 967.259 L1493.41 973.803 L1490.08 962.843 L1499.22 955.915 L1487.76 955.675 L1484 944.859 Z" fill="#e26f46" fill-rule="evenodd" fill-opacity="1" stroke="#000000" stroke-opacity="1" stroke-width="0"/>
<path clip-path="url(#clip822)" d="M1082.71 845.281 L1078.95 856.097 L1067.5 856.337 L1076.63 863.265 L1073.31 874.225 L1082.71 867.681 L1092.12 874.225 L1088.79 863.265 L1097.93 856.337 L1086.47 856.097 L1082.71 845.281 Z" fill="#e26f46" fill-rule="evenodd" fill-opacity="1" stroke="#000000" stroke-opacity="1" stroke-width="0"/>
<path clip-path="url(#clip822)" d="M682.152 1166.35 L678.392 1177.17 L666.936 1177.41 L676.072 1184.33 L672.744 1195.29 L682.152 1188.75 L691.56 1195.29 L688.232 1184.33 L697.368 1177.41 L685.912 1177.17 L682.152 1166.35 Z" fill="#e26f46" fill-rule="evenodd" fill-opacity="1" stroke="#000000" stroke-opacity="1" stroke-width="0"/>
<path clip-path="url(#clip822)" d="M281.952 1122.58 L278.192 1133.4 L266.736 1133.64 L275.872 1140.56 L272.544 1151.52 L281.952 1144.98 L291.36 1151.52 L288.032 1140.56 L297.168 1133.64 L285.712 1133.4 L281.952 1122.58 Z" fill="#e26f46" fill-rule="evenodd" fill-opacity="1" stroke="#000000" stroke-opacity="1" stroke-width="0"/>
<polyline clip-path="url(#clip822)" style="stroke:#3da44d; stroke-linecap:butt; stroke-linejoin:round; stroke-width:4; stroke-opacity:1; fill:none" stroke-dasharray="16, 10" points="
  2292.44,624.696 1886.75,672.01 1484,718.981 1082.71,765.781 682.152,812.496 281.952,859.17 
  "/>
<path clip-path="url(#clip820)" d="
M292.674 415.506 L1089.21 415.506 L1089.21 208.146 L292.674 208.146  Z
  " fill="#eaeaea" fill-rule="evenodd" fill-opacity="1"/>
<polyline clip-path="url(#clip820)" style="stroke:#ffffff; stroke-linecap:butt; stroke-linejoin:round; stroke-width:4; stroke-opacity:1; fill:none" points="
  292.674,415.506 1089.21,415.506 1089.21,208.146 292.674,208.146 292.674,415.506 
  "/>
<path clip-path="url(#clip820)" d="M387.391 234.386 L381.375 251.692 L363.045 252.076 L377.663 263.161 L372.338 280.697 L387.391 270.226 L402.444 280.697 L397.119 263.161 L411.736 252.076 L393.407 251.692 L387.391 234.386 Z" fill="#009af9" fill-rule="evenodd" fill-opacity="1" stroke="#000000" stroke-opacity="1" stroke-width="0"/>
<path clip-path="url(#clip820)" d="M506.135 263.239 L506.135 265.322 L486.552 265.322 Q486.829 269.72 489.19 272.035 Q491.575 274.326 495.811 274.326 Q498.264 274.326 500.556 273.725 Q502.871 273.123 505.139 271.919 L505.139 275.947 Q502.848 276.919 500.44 277.428 Q498.033 277.938 495.556 277.938 Q489.352 277.938 485.718 274.326 Q482.107 270.715 482.107 264.558 Q482.107 258.192 485.533 254.465 Q488.982 250.715 494.815 250.715 Q500.047 250.715 503.079 254.095 Q506.135 257.452 506.135 263.239 M501.876 261.989 Q501.829 258.493 499.908 256.41 Q498.01 254.327 494.862 254.327 Q491.297 254.327 489.144 256.34 Q487.015 258.354 486.69 262.012 L501.876 261.989 Z" fill="#000000" fill-rule="evenodd" fill-opacity="1" /><path clip-path="url(#clip820)" d="M528.149 255.322 Q527.431 254.905 526.575 254.72 Q525.741 254.512 524.723 254.512 Q521.112 254.512 519.167 256.873 Q517.246 259.211 517.246 263.609 L517.246 277.266 L512.963 277.266 L512.963 251.34 L517.246 251.34 L517.246 255.368 Q518.588 253.007 520.741 251.873 Q522.894 250.715 525.973 250.715 Q526.412 250.715 526.945 250.785 Q527.477 250.831 528.125 250.947 L528.149 255.322 Z" fill="#000000" fill-rule="evenodd" fill-opacity="1" /><path clip-path="url(#clip820)" d="M546.806 255.322 Q546.088 254.905 545.232 254.72 Q544.399 254.512 543.38 254.512 Q539.769 254.512 537.824 256.873 Q535.903 259.211 535.903 263.609 L535.903 277.266 L531.621 277.266 L531.621 251.34 L535.903 251.34 L535.903 255.368 Q537.246 253.007 539.399 251.873 Q541.551 250.715 544.63 250.715 Q545.07 250.715 545.602 250.785 Q546.135 250.831 546.783 250.947 L546.806 255.322 Z" fill="#000000" fill-rule="evenodd" fill-opacity="1" /><path clip-path="url(#clip820)" d="M560.278 254.327 Q556.852 254.327 554.861 257.012 Q552.871 259.674 552.871 264.327 Q552.871 268.979 554.838 271.664 Q556.829 274.326 560.278 274.326 Q563.681 274.326 565.672 271.641 Q567.662 268.956 567.662 264.327 Q567.662 259.72 565.672 257.035 Q563.681 254.327 560.278 254.327 M560.278 250.715 Q565.834 250.715 569.005 254.327 Q572.176 257.938 572.176 264.327 Q572.176 270.692 569.005 274.326 Q565.834 277.938 560.278 277.938 Q554.699 277.938 551.528 274.326 Q548.38 270.692 548.38 264.327 Q548.38 257.938 551.528 254.327 Q554.699 250.715 560.278 250.715 Z" fill="#000000" fill-rule="evenodd" fill-opacity="1" /><path clip-path="url(#clip820)" d="M607.431 241.248 L607.431 244.79 L603.357 244.79 Q601.065 244.79 600.162 245.716 Q599.282 246.641 599.282 249.049 L599.282 251.34 L606.296 251.34 L606.296 254.651 L599.282 254.651 L599.282 277.266 L595 277.266 L595 254.651 L590.926 254.651 L590.926 251.34 L595 251.34 L595 249.535 Q595 245.206 597.014 243.239 Q599.028 241.248 603.403 241.248 L607.431 241.248 Z" fill="#000000" fill-rule="evenodd" fill-opacity="1" /><path clip-path="url(#clip820)" d="M621.042 254.327 Q617.616 254.327 615.625 257.012 Q613.634 259.674 613.634 264.327 Q613.634 268.979 615.602 271.664 Q617.593 274.326 621.042 274.326 Q624.444 274.326 626.435 271.641 Q628.426 268.956 628.426 264.327 Q628.426 259.72 626.435 257.035 Q624.444 254.327 621.042 254.327 M621.042 250.715 Q626.597 250.715 629.768 254.327 Q632.94 257.938 632.94 264.327 Q632.94 270.692 629.768 274.326 Q626.597 277.938 621.042 277.938 Q615.463 277.938 612.292 274.326 Q609.144 270.692 609.144 264.327 Q609.144 257.938 612.292 254.327 Q615.463 250.715 621.042 250.715 Z" fill="#000000" fill-rule="evenodd" fill-opacity="1" /><path clip-path="url(#clip820)" d="M655.023 255.322 Q654.305 254.905 653.449 254.72 Q652.616 254.512 651.597 254.512 Q647.986 254.512 646.041 256.873 Q644.12 259.211 644.12 263.609 L644.12 277.266 L639.838 277.266 L639.838 251.34 L644.12 251.34 L644.12 255.368 Q645.463 253.007 647.616 251.873 Q649.768 250.715 652.847 250.715 Q653.287 250.715 653.819 250.785 Q654.352 250.831 655 250.947 L655.023 255.322 Z" fill="#000000" fill-rule="evenodd" fill-opacity="1" /><path clip-path="url(#clip820)" d="M663.703 243.979 L663.703 251.34 L672.477 251.34 L672.477 254.651 L663.703 254.651 L663.703 268.725 Q663.703 271.896 664.56 272.799 Q665.44 273.701 668.102 273.701 L672.477 273.701 L672.477 277.266 L668.102 277.266 Q663.171 277.266 661.296 275.438 Q659.421 273.586 659.421 268.725 L659.421 254.651 L656.296 254.651 L656.296 251.34 L659.421 251.34 L659.421 243.979 L663.703 243.979 Z" fill="#000000" fill-rule="evenodd" fill-opacity="1" /><path clip-path="url(#clip820)" d="M700.254 263.239 L700.254 265.322 L680.671 265.322 Q680.949 269.72 683.31 272.035 Q685.694 274.326 689.93 274.326 Q692.384 274.326 694.675 273.725 Q696.99 273.123 699.259 271.919 L699.259 275.947 Q696.967 276.919 694.56 277.428 Q692.152 277.938 689.675 277.938 Q683.472 277.938 679.838 274.326 Q676.226 270.715 676.226 264.558 Q676.226 258.192 679.652 254.465 Q683.101 250.715 688.935 250.715 Q694.166 250.715 697.199 254.095 Q700.254 257.452 700.254 263.239 M695.995 261.989 Q695.949 258.493 694.027 256.41 Q692.129 254.327 688.981 254.327 Q685.416 254.327 683.263 256.34 Q681.134 258.354 680.81 262.012 L695.995 261.989 Z" fill="#000000" fill-rule="evenodd" fill-opacity="1" /><path clip-path="url(#clip820)" d="M722.962 242.706 L741.319 242.706 L741.319 246.641 L727.245 246.641 L727.245 255.114 Q728.263 254.766 729.282 254.604 Q730.3 254.419 731.319 254.419 Q737.106 254.419 740.485 257.59 Q743.865 260.762 743.865 266.178 Q743.865 271.757 740.393 274.859 Q736.921 277.938 730.601 277.938 Q728.425 277.938 726.157 277.567 Q723.911 277.197 721.504 276.456 L721.504 271.757 Q723.587 272.891 725.81 273.447 Q728.032 274.002 730.509 274.002 Q734.513 274.002 736.851 271.896 Q739.189 269.789 739.189 266.178 Q739.189 262.567 736.851 260.461 Q734.513 258.354 730.509 258.354 Q728.634 258.354 726.759 258.771 Q724.907 259.188 722.962 260.067 L722.962 242.706 Z" fill="#000000" fill-rule="evenodd" fill-opacity="1" /><path clip-path="url(#clip820)" d="M763.078 245.785 Q759.467 245.785 757.638 249.35 Q755.833 252.891 755.833 260.021 Q755.833 267.127 757.638 270.692 Q759.467 274.234 763.078 274.234 Q766.712 274.234 768.518 270.692 Q770.346 267.127 770.346 260.021 Q770.346 252.891 768.518 249.35 Q766.712 245.785 763.078 245.785 M763.078 242.081 Q768.888 242.081 771.944 246.688 Q775.022 251.271 775.022 260.021 Q775.022 268.748 771.944 273.354 Q768.888 277.938 763.078 277.938 Q757.268 277.938 754.189 273.354 Q751.134 268.748 751.134 260.021 Q751.134 251.271 754.189 246.688 Q757.268 242.081 763.078 242.081 Z" fill="#000000" fill-rule="evenodd" fill-opacity="1" /><path clip-path="url(#clip820)" d="M793.24 245.785 Q789.629 245.785 787.8 249.35 Q785.994 252.891 785.994 260.021 Q785.994 267.127 787.8 270.692 Q789.629 274.234 793.24 274.234 Q796.874 274.234 798.68 270.692 Q800.508 267.127 800.508 260.021 Q800.508 252.891 798.68 249.35 Q796.874 245.785 793.24 245.785 M793.24 242.081 Q799.05 242.081 802.105 246.688 Q805.184 251.271 805.184 260.021 Q805.184 268.748 802.105 273.354 Q799.05 277.938 793.24 277.938 Q787.43 277.938 784.351 273.354 Q781.295 268.748 781.295 260.021 Q781.295 251.271 784.351 246.688 Q787.43 242.081 793.24 242.081 Z" fill="#000000" fill-rule="evenodd" fill-opacity="1" /><path clip-path="url(#clip820)" d="M839.652 264.234 Q834.49 264.234 832.499 265.414 Q830.508 266.595 830.508 269.442 Q830.508 271.711 831.99 273.053 Q833.494 274.373 836.064 274.373 Q839.605 274.373 841.735 271.873 Q843.888 269.35 843.888 265.183 L843.888 264.234 L839.652 264.234 M848.147 262.475 L848.147 277.266 L843.888 277.266 L843.888 273.331 Q842.429 275.692 840.253 276.826 Q838.077 277.938 834.929 277.938 Q830.948 277.938 828.587 275.715 Q826.249 273.47 826.249 269.72 Q826.249 265.345 829.165 263.123 Q832.105 260.901 837.915 260.901 L843.888 260.901 L843.888 260.484 Q843.888 257.544 841.943 255.947 Q840.022 254.327 836.527 254.327 Q834.304 254.327 832.198 254.859 Q830.091 255.391 828.147 256.456 L828.147 252.521 Q830.485 251.618 832.684 251.178 Q834.883 250.715 836.966 250.715 Q842.591 250.715 845.369 253.632 Q848.147 256.549 848.147 262.475 Z" fill="#000000" fill-rule="evenodd" fill-opacity="1" /><path clip-path="url(#clip820)" d="M877.105 256.317 Q878.702 253.447 880.924 252.081 Q883.147 250.715 886.156 250.715 Q890.207 250.715 892.406 253.563 Q894.605 256.387 894.605 261.618 L894.605 277.266 L890.323 277.266 L890.323 261.757 Q890.323 258.03 889.003 256.225 Q887.684 254.419 884.975 254.419 Q881.665 254.419 879.744 256.618 Q877.823 258.817 877.823 262.614 L877.823 277.266 L873.54 277.266 L873.54 261.757 Q873.54 258.007 872.221 256.225 Q870.901 254.419 868.147 254.419 Q864.883 254.419 862.962 256.641 Q861.04 258.84 861.04 262.614 L861.04 277.266 L856.758 277.266 L856.758 251.34 L861.04 251.34 L861.04 255.368 Q862.499 252.984 864.536 251.85 Q866.573 250.715 869.374 250.715 Q872.198 250.715 874.165 252.151 Q876.156 253.586 877.105 256.317 Z" fill="#000000" fill-rule="evenodd" fill-opacity="1" /><path clip-path="url(#clip820)" d="M913.147 254.327 Q909.721 254.327 907.73 257.012 Q905.739 259.674 905.739 264.327 Q905.739 268.979 907.707 271.664 Q909.697 274.326 913.147 274.326 Q916.549 274.326 918.54 271.641 Q920.531 268.956 920.531 264.327 Q920.531 259.72 918.54 257.035 Q916.549 254.327 913.147 254.327 M913.147 250.715 Q918.702 250.715 921.873 254.327 Q925.045 257.938 925.045 264.327 Q925.045 270.692 921.873 274.326 Q918.702 277.938 913.147 277.938 Q907.568 277.938 904.397 274.326 Q901.248 270.692 901.248 264.327 Q901.248 257.938 904.397 254.327 Q907.568 250.715 913.147 250.715 Z" fill="#000000" fill-rule="evenodd" fill-opacity="1" /><path clip-path="url(#clip820)" d="M948.632 252.104 L948.632 256.132 Q946.827 255.206 944.882 254.743 Q942.938 254.28 940.855 254.28 Q937.683 254.28 936.086 255.253 Q934.512 256.225 934.512 258.169 Q934.512 259.651 935.646 260.507 Q936.781 261.34 940.207 262.104 L941.665 262.428 Q946.202 263.401 948.1 265.183 Q950.021 266.942 950.021 270.114 Q950.021 273.725 947.151 275.831 Q944.304 277.938 939.304 277.938 Q937.22 277.938 934.952 277.521 Q932.707 277.127 930.207 276.317 L930.207 271.919 Q932.568 273.146 934.859 273.771 Q937.151 274.373 939.396 274.373 Q942.406 274.373 944.026 273.354 Q945.646 272.313 945.646 270.438 Q945.646 268.702 944.466 267.776 Q943.308 266.85 939.35 265.993 L937.869 265.646 Q933.91 264.813 932.151 263.1 Q930.392 261.364 930.392 258.354 Q930.392 254.697 932.984 252.706 Q935.577 250.715 940.345 250.715 Q942.707 250.715 944.79 251.063 Q946.873 251.41 948.632 252.104 Z" fill="#000000" fill-rule="evenodd" fill-opacity="1" /><path clip-path="url(#clip820)" d="M961.017 243.979 L961.017 251.34 L969.79 251.34 L969.79 254.651 L961.017 254.651 L961.017 268.725 Q961.017 271.896 961.873 272.799 Q962.753 273.701 965.415 273.701 L969.79 273.701 L969.79 277.266 L965.415 277.266 Q960.484 277.266 958.609 275.438 Q956.734 273.586 956.734 268.725 L956.734 254.651 L953.609 254.651 L953.609 251.34 L956.734 251.34 L956.734 243.979 L961.017 243.979 Z" fill="#000000" fill-rule="evenodd" fill-opacity="1" /><path clip-path="url(#clip820)" d="M990.415 255.322 Q989.697 254.905 988.841 254.72 Q988.007 254.512 986.989 254.512 Q983.378 254.512 981.433 256.873 Q979.512 259.211 979.512 263.609 L979.512 277.266 L975.23 277.266 L975.23 251.34 L979.512 251.34 L979.512 255.368 Q980.854 253.007 983.007 251.873 Q985.16 250.715 988.239 250.715 Q988.679 250.715 989.211 250.785 Q989.743 250.831 990.391 250.947 L990.415 255.322 Z" fill="#000000" fill-rule="evenodd" fill-opacity="1" /><path clip-path="url(#clip820)" d="M1006.66 264.234 Q1001.5 264.234 999.512 265.414 Q997.521 266.595 997.521 269.442 Q997.521 271.711 999.003 273.053 Q1000.51 274.373 1003.08 274.373 Q1006.62 274.373 1008.75 271.873 Q1010.9 269.35 1010.9 265.183 L1010.9 264.234 L1006.66 264.234 M1015.16 262.475 L1015.16 277.266 L1010.9 277.266 L1010.9 273.331 Q1009.44 275.692 1007.27 276.826 Q1005.09 277.938 1001.94 277.938 Q997.961 277.938 995.6 275.715 Q993.262 273.47 993.262 269.72 Q993.262 265.345 996.178 263.123 Q999.118 260.901 1004.93 260.901 L1010.9 260.901 L1010.9 260.484 Q1010.9 257.544 1008.96 255.947 Q1007.03 254.327 1003.54 254.327 Q1001.32 254.327 999.211 254.859 Q997.104 255.391 995.16 256.456 L995.16 252.521 Q997.498 251.618 999.697 251.178 Q1001.9 250.715 1003.98 250.715 Q1009.6 250.715 1012.38 253.632 Q1015.16 256.549 1015.16 262.475 Z" fill="#000000" fill-rule="evenodd" fill-opacity="1" /><path clip-path="url(#clip820)" d="M1040.46 252.104 L1040.46 256.132 Q1038.66 255.206 1036.71 254.743 Q1034.77 254.28 1032.68 254.28 Q1029.51 254.28 1027.91 255.253 Q1026.34 256.225 1026.34 258.169 Q1026.34 259.651 1027.47 260.507 Q1028.61 261.34 1032.03 262.104 L1033.49 262.428 Q1038.03 263.401 1039.93 265.183 Q1041.85 266.942 1041.85 270.114 Q1041.85 273.725 1038.98 275.831 Q1036.13 277.938 1031.13 277.938 Q1029.05 277.938 1026.78 277.521 Q1024.53 277.127 1022.03 276.317 L1022.03 271.919 Q1024.4 273.146 1026.69 273.771 Q1028.98 274.373 1031.22 274.373 Q1034.23 274.373 1035.85 273.354 Q1037.47 272.313 1037.47 270.438 Q1037.47 268.702 1036.29 267.776 Q1035.14 266.85 1031.18 265.993 L1029.7 265.646 Q1025.74 264.813 1023.98 263.1 Q1022.22 261.364 1022.22 258.354 Q1022.22 254.697 1024.81 252.706 Q1027.41 250.715 1032.17 250.715 Q1034.53 250.715 1036.62 251.063 Q1038.7 251.41 1040.46 252.104 Z" fill="#000000" fill-rule="evenodd" fill-opacity="1" /><path clip-path="url(#clip820)" d="M387.391 286.226 L381.375 303.532 L363.045 303.916 L377.663 315.001 L372.338 332.537 L387.391 322.066 L402.444 332.537 L397.119 315.001 L411.736 303.916 L393.407 303.532 L387.391 286.226 Z" fill="#e26f46" fill-rule="evenodd" fill-opacity="1" stroke="#000000" stroke-opacity="1" stroke-width="0"/>
<path clip-path="url(#clip820)" d="M506.135 315.079 L506.135 317.162 L486.552 317.162 Q486.829 321.56 489.19 323.875 Q491.575 326.166 495.811 326.166 Q498.264 326.166 500.556 325.565 Q502.871 324.963 505.139 323.759 L505.139 327.787 Q502.848 328.759 500.44 329.268 Q498.033 329.778 495.556 329.778 Q489.352 329.778 485.718 326.166 Q482.107 322.555 482.107 316.398 Q482.107 310.032 485.533 306.305 Q488.982 302.555 494.815 302.555 Q500.047 302.555 503.079 305.935 Q506.135 309.292 506.135 315.079 M501.876 313.829 Q501.829 310.333 499.908 308.25 Q498.01 306.167 494.862 306.167 Q491.297 306.167 489.144 308.18 Q487.015 310.194 486.69 313.852 L501.876 313.829 Z" fill="#000000" fill-rule="evenodd" fill-opacity="1" /><path clip-path="url(#clip820)" d="M528.149 307.162 Q527.431 306.745 526.575 306.56 Q525.741 306.352 524.723 306.352 Q521.112 306.352 519.167 308.713 Q517.246 311.051 517.246 315.449 L517.246 329.106 L512.963 329.106 L512.963 303.18 L517.246 303.18 L517.246 307.208 Q518.588 304.847 520.741 303.713 Q522.894 302.555 525.973 302.555 Q526.412 302.555 526.945 302.625 Q527.477 302.671 528.125 302.787 L528.149 307.162 Z" fill="#000000" fill-rule="evenodd" fill-opacity="1" /><path clip-path="url(#clip820)" d="M546.806 307.162 Q546.088 306.745 545.232 306.56 Q544.399 306.352 543.38 306.352 Q539.769 306.352 537.824 308.713 Q535.903 311.051 535.903 315.449 L535.903 329.106 L531.621 329.106 L531.621 303.18 L535.903 303.18 L535.903 307.208 Q537.246 304.847 539.399 303.713 Q541.551 302.555 544.63 302.555 Q545.07 302.555 545.602 302.625 Q546.135 302.671 546.783 302.787 L546.806 307.162 Z" fill="#000000" fill-rule="evenodd" fill-opacity="1" /><path clip-path="url(#clip820)" d="M560.278 306.167 Q556.852 306.167 554.861 308.852 Q552.871 311.514 552.871 316.167 Q552.871 320.819 554.838 323.504 Q556.829 326.166 560.278 326.166 Q563.681 326.166 565.672 323.481 Q567.662 320.796 567.662 316.167 Q567.662 311.56 565.672 308.875 Q563.681 306.167 560.278 306.167 M560.278 302.555 Q565.834 302.555 569.005 306.167 Q572.176 309.778 572.176 316.167 Q572.176 322.532 569.005 326.166 Q565.834 329.778 560.278 329.778 Q554.699 329.778 551.528 326.166 Q548.38 322.532 548.38 316.167 Q548.38 309.778 551.528 306.167 Q554.699 302.555 560.278 302.555 Z" fill="#000000" fill-rule="evenodd" fill-opacity="1" /><path clip-path="url(#clip820)" d="M607.431 293.088 L607.431 296.63 L603.357 296.63 Q601.065 296.63 600.162 297.556 Q599.282 298.481 599.282 300.889 L599.282 303.18 L606.296 303.18 L606.296 306.491 L599.282 306.491 L599.282 329.106 L595 329.106 L595 306.491 L590.926 306.491 L590.926 303.18 L595 303.18 L595 301.375 Q595 297.046 597.014 295.079 Q599.028 293.088 603.403 293.088 L607.431 293.088 Z" fill="#000000" fill-rule="evenodd" fill-opacity="1" /><path clip-path="url(#clip820)" d="M621.042 306.167 Q617.616 306.167 615.625 308.852 Q613.634 311.514 613.634 316.167 Q613.634 320.819 615.602 323.504 Q617.593 326.166 621.042 326.166 Q624.444 326.166 626.435 323.481 Q628.426 320.796 628.426 316.167 Q628.426 311.56 626.435 308.875 Q624.444 306.167 621.042 306.167 M621.042 302.555 Q626.597 302.555 629.768 306.167 Q632.94 309.778 632.94 316.167 Q632.94 322.532 629.768 326.166 Q626.597 329.778 621.042 329.778 Q615.463 329.778 612.292 326.166 Q609.144 322.532 609.144 316.167 Q609.144 309.778 612.292 306.167 Q615.463 302.555 621.042 302.555 Z" fill="#000000" fill-rule="evenodd" fill-opacity="1" /><path clip-path="url(#clip820)" d="M655.023 307.162 Q654.305 306.745 653.449 306.56 Q652.616 306.352 651.597 306.352 Q647.986 306.352 646.041 308.713 Q644.12 311.051 644.12 315.449 L644.12 329.106 L639.838 329.106 L639.838 303.18 L644.12 303.18 L644.12 307.208 Q645.463 304.847 647.616 303.713 Q649.768 302.555 652.847 302.555 Q653.287 302.555 653.819 302.625 Q654.352 302.671 655 302.787 L655.023 307.162 Z" fill="#000000" fill-rule="evenodd" fill-opacity="1" /><path clip-path="url(#clip820)" d="M663.703 295.819 L663.703 303.18 L672.477 303.18 L672.477 306.491 L663.703 306.491 L663.703 320.565 Q663.703 323.736 664.56 324.639 Q665.44 325.541 668.102 325.541 L672.477 325.541 L672.477 329.106 L668.102 329.106 Q663.171 329.106 661.296 327.278 Q659.421 325.426 659.421 320.565 L659.421 306.491 L656.296 306.491 L656.296 303.18 L659.421 303.18 L659.421 295.819 L663.703 295.819 Z" fill="#000000" fill-rule="evenodd" fill-opacity="1" /><path clip-path="url(#clip820)" d="M700.254 315.079 L700.254 317.162 L680.671 317.162 Q680.949 321.56 683.31 323.875 Q685.694 326.166 689.93 326.166 Q692.384 326.166 694.675 325.565 Q696.99 324.963 699.259 323.759 L699.259 327.787 Q696.967 328.759 694.56 329.268 Q692.152 329.778 689.675 329.778 Q683.472 329.778 679.838 326.166 Q676.226 322.555 676.226 316.398 Q676.226 310.032 679.652 306.305 Q683.101 302.555 688.935 302.555 Q694.166 302.555 697.199 305.935 Q700.254 309.292 700.254 315.079 M695.995 313.829 Q695.949 310.333 694.027 308.25 Q692.129 306.167 688.981 306.167 Q685.416 306.167 683.263 308.18 Q681.134 310.194 680.81 313.852 L695.995 313.829 Z" fill="#000000" fill-rule="evenodd" fill-opacity="1" /><path clip-path="url(#clip820)" d="M722.962 294.546 L741.319 294.546 L741.319 298.481 L727.245 298.481 L727.245 306.954 Q728.263 306.606 729.282 306.444 Q730.3 306.259 731.319 306.259 Q737.106 306.259 740.485 309.43 Q743.865 312.602 743.865 318.018 Q743.865 323.597 740.393 326.699 Q736.921 329.778 730.601 329.778 Q728.425 329.778 726.157 329.407 Q723.911 329.037 721.504 328.296 L721.504 323.597 Q723.587 324.731 725.81 325.287 Q728.032 325.842 730.509 325.842 Q734.513 325.842 736.851 323.736 Q739.189 321.629 739.189 318.018 Q739.189 314.407 736.851 312.301 Q734.513 310.194 730.509 310.194 Q728.634 310.194 726.759 310.611 Q724.907 311.028 722.962 311.907 L722.962 294.546 Z" fill="#000000" fill-rule="evenodd" fill-opacity="1" /><path clip-path="url(#clip820)" d="M779.328 316.074 Q774.166 316.074 772.175 317.254 Q770.184 318.435 770.184 321.282 Q770.184 323.551 771.666 324.893 Q773.17 326.213 775.74 326.213 Q779.282 326.213 781.411 323.713 Q783.564 321.19 783.564 317.023 L783.564 316.074 L779.328 316.074 M787.823 314.315 L787.823 329.106 L783.564 329.106 L783.564 325.171 Q782.106 327.532 779.93 328.666 Q777.754 329.778 774.606 329.778 Q770.624 329.778 768.263 327.555 Q765.925 325.31 765.925 321.56 Q765.925 317.185 768.842 314.963 Q771.782 312.741 777.592 312.741 L783.564 312.741 L783.564 312.324 Q783.564 309.384 781.619 307.787 Q779.698 306.167 776.203 306.167 Q773.981 306.167 771.874 306.699 Q769.768 307.231 767.823 308.296 L767.823 304.361 Q770.161 303.458 772.36 303.018 Q774.559 302.555 776.643 302.555 Q782.268 302.555 785.045 305.472 Q787.823 308.389 787.823 314.315 Z" fill="#000000" fill-rule="evenodd" fill-opacity="1" /><path clip-path="url(#clip820)" d="M816.781 308.157 Q818.379 305.287 820.601 303.921 Q822.823 302.555 825.832 302.555 Q829.883 302.555 832.082 305.403 Q834.281 308.227 834.281 313.458 L834.281 329.106 L829.999 329.106 L829.999 313.597 Q829.999 309.87 828.679 308.065 Q827.36 306.259 824.652 306.259 Q821.341 306.259 819.42 308.458 Q817.499 310.657 817.499 314.454 L817.499 329.106 L813.217 329.106 L813.217 313.597 Q813.217 309.847 811.897 308.065 Q810.578 306.259 807.823 306.259 Q804.559 306.259 802.638 308.481 Q800.717 310.68 800.717 314.454 L800.717 329.106 L796.434 329.106 L796.434 303.18 L800.717 303.18 L800.717 307.208 Q802.175 304.824 804.212 303.69 Q806.249 302.555 809.05 302.555 Q811.874 302.555 813.842 303.991 Q815.832 305.426 816.781 308.157 Z" fill="#000000" fill-rule="evenodd" fill-opacity="1" /><path clip-path="url(#clip820)" d="M852.823 306.167 Q849.397 306.167 847.406 308.852 Q845.415 311.514 845.415 316.167 Q845.415 320.819 847.383 323.504 Q849.374 326.166 852.823 326.166 Q856.226 326.166 858.216 323.481 Q860.207 320.796 860.207 316.167 Q860.207 311.56 858.216 308.875 Q856.226 306.167 852.823 306.167 M852.823 302.555 Q858.378 302.555 861.55 306.167 Q864.721 309.778 864.721 316.167 Q864.721 322.532 861.55 326.166 Q858.378 329.778 852.823 329.778 Q847.244 329.778 844.073 326.166 Q840.925 322.532 840.925 316.167 Q840.925 309.778 844.073 306.167 Q847.244 302.555 852.823 302.555 Z" fill="#000000" fill-rule="evenodd" fill-opacity="1" /><path clip-path="url(#clip820)" d="M888.309 303.944 L888.309 307.972 Q886.503 307.046 884.559 306.583 Q882.614 306.12 880.531 306.12 Q877.36 306.12 875.762 307.093 Q874.188 308.065 874.188 310.009 Q874.188 311.491 875.323 312.347 Q876.457 313.18 879.883 313.944 L881.341 314.268 Q885.878 315.241 887.776 317.023 Q889.698 318.782 889.698 321.954 Q889.698 325.565 886.827 327.671 Q883.98 329.778 878.98 329.778 Q876.897 329.778 874.628 329.361 Q872.383 328.967 869.883 328.157 L869.883 323.759 Q872.244 324.986 874.536 325.611 Q876.827 326.213 879.073 326.213 Q882.082 326.213 883.702 325.194 Q885.323 324.153 885.323 322.278 Q885.323 320.542 884.142 319.616 Q882.985 318.69 879.026 317.833 L877.545 317.486 Q873.587 316.653 871.827 314.94 Q870.068 313.204 870.068 310.194 Q870.068 306.537 872.661 304.546 Q875.253 302.555 880.022 302.555 Q882.383 302.555 884.466 302.903 Q886.549 303.25 888.309 303.944 Z" fill="#000000" fill-rule="evenodd" fill-opacity="1" /><path clip-path="url(#clip820)" d="M900.693 295.819 L900.693 303.18 L909.466 303.18 L909.466 306.491 L900.693 306.491 L900.693 320.565 Q900.693 323.736 901.549 324.639 Q902.429 325.541 905.091 325.541 L909.466 325.541 L909.466 329.106 L905.091 329.106 Q900.16 329.106 898.285 327.278 Q896.411 325.426 896.411 320.565 L896.411 306.491 L893.286 306.491 L893.286 303.18 L896.411 303.18 L896.411 295.819 L900.693 295.819 Z" fill="#000000" fill-rule="evenodd" fill-opacity="1" /><path clip-path="url(#clip820)" d="M930.091 307.162 Q929.373 306.745 928.517 306.56 Q927.683 306.352 926.665 306.352 Q923.054 306.352 921.109 308.713 Q919.188 311.051 919.188 315.449 L919.188 329.106 L914.906 329.106 L914.906 303.18 L919.188 303.18 L919.188 307.208 Q920.531 304.847 922.684 303.713 Q924.836 302.555 927.915 302.555 Q928.355 302.555 928.887 302.625 Q929.42 302.671 930.068 302.787 L930.091 307.162 Z" fill="#000000" fill-rule="evenodd" fill-opacity="1" /><path clip-path="url(#clip820)" d="M946.341 316.074 Q941.179 316.074 939.188 317.254 Q937.197 318.435 937.197 321.282 Q937.197 323.551 938.679 324.893 Q940.183 326.213 942.753 326.213 Q946.294 326.213 948.424 323.713 Q950.577 321.19 950.577 317.023 L950.577 316.074 L946.341 316.074 M954.836 314.315 L954.836 329.106 L950.577 329.106 L950.577 325.171 Q949.119 327.532 946.943 328.666 Q944.767 329.778 941.619 329.778 Q937.637 329.778 935.276 327.555 Q932.938 325.31 932.938 321.56 Q932.938 317.185 935.855 314.963 Q938.795 312.741 944.605 312.741 L950.577 312.741 L950.577 312.324 Q950.577 309.384 948.632 307.787 Q946.711 306.167 943.216 306.167 Q940.994 306.167 938.887 306.699 Q936.781 307.231 934.836 308.296 L934.836 304.361 Q937.174 303.458 939.373 303.018 Q941.572 302.555 943.656 302.555 Q949.281 302.555 952.058 305.472 Q954.836 308.389 954.836 314.315 Z" fill="#000000" fill-rule="evenodd" fill-opacity="1" /><path clip-path="url(#clip820)" d="M980.137 303.944 L980.137 307.972 Q978.331 307.046 976.387 306.583 Q974.442 306.12 972.359 306.12 Q969.188 306.12 967.591 307.093 Q966.017 308.065 966.017 310.009 Q966.017 311.491 967.151 312.347 Q968.285 313.18 971.711 313.944 L973.169 314.268 Q977.706 315.241 979.605 317.023 Q981.526 318.782 981.526 321.954 Q981.526 325.565 978.655 327.671 Q975.808 329.778 970.808 329.778 Q968.725 329.778 966.456 329.361 Q964.211 328.967 961.711 328.157 L961.711 323.759 Q964.072 324.986 966.364 325.611 Q968.655 326.213 970.901 326.213 Q973.91 326.213 975.53 325.194 Q977.151 324.153 977.151 322.278 Q977.151 320.542 975.97 319.616 Q974.813 318.69 970.855 317.833 L969.373 317.486 Q965.415 316.653 963.656 314.94 Q961.896 313.204 961.896 310.194 Q961.896 306.537 964.489 304.546 Q967.081 302.555 971.85 302.555 Q974.211 302.555 976.294 302.903 Q978.378 303.25 980.137 303.944 Z" fill="#000000" fill-rule="evenodd" fill-opacity="1" /><polyline clip-path="url(#clip820)" style="stroke:#3da44d; stroke-linecap:butt; stroke-linejoin:round; stroke-width:4; stroke-opacity:1; fill:none" stroke-dasharray="16, 10" points="
  316.353,363.666 458.428,363.666 
  "/>
<path clip-path="url(#clip820)" d="M495.51 367.914 Q490.348 367.914 488.357 369.094 Q486.366 370.275 486.366 373.122 Q486.366 375.391 487.848 376.733 Q489.352 378.053 491.922 378.053 Q495.464 378.053 497.593 375.553 Q499.746 373.03 499.746 368.863 L499.746 367.914 L495.51 367.914 M504.005 366.155 L504.005 380.946 L499.746 380.946 L499.746 377.011 Q498.288 379.372 496.112 380.506 Q493.936 381.618 490.788 381.618 Q486.806 381.618 484.445 379.395 Q482.107 377.15 482.107 373.4 Q482.107 369.025 485.024 366.803 Q487.964 364.581 493.774 364.581 L499.746 364.581 L499.746 364.164 Q499.746 361.224 497.802 359.627 Q495.88 358.007 492.385 358.007 Q490.163 358.007 488.056 358.539 Q485.95 359.071 484.005 360.136 L484.005 356.201 Q486.343 355.298 488.542 354.858 Q490.741 354.395 492.825 354.395 Q498.45 354.395 501.227 357.312 Q504.005 360.229 504.005 366.155 Z" fill="#000000" fill-rule="evenodd" fill-opacity="1" /><path clip-path="url(#clip820)" d="M512.778 355.02 L517.038 355.02 L517.038 381.409 Q517.038 386.363 515.139 388.585 Q513.264 390.807 509.075 390.807 L507.454 390.807 L507.454 387.196 L508.589 387.196 Q511.019 387.196 511.899 386.062 Q512.778 384.951 512.778 381.409 L512.778 355.02 M512.778 344.928 L517.038 344.928 L517.038 350.321 L512.778 350.321 L512.778 344.928 Z" fill="#000000" fill-rule="evenodd" fill-opacity="1" /><path clip-path="url(#clip820)" d="M525.51 370.715 L525.51 355.02 L529.769 355.02 L529.769 370.553 Q529.769 374.233 531.204 376.085 Q532.639 377.914 535.51 377.914 Q538.959 377.914 540.949 375.715 Q542.963 373.516 542.963 369.719 L542.963 355.02 L547.223 355.02 L547.223 380.946 L542.963 380.946 L542.963 376.965 Q541.412 379.326 539.352 380.483 Q537.315 381.618 534.607 381.618 Q530.139 381.618 527.825 378.84 Q525.51 376.062 525.51 370.715 M536.227 354.395 L536.227 354.395 Z" fill="#000000" fill-rule="evenodd" fill-opacity="1" /><path clip-path="url(#clip820)" d="M572.523 355.784 L572.523 359.812 Q570.718 358.886 568.773 358.423 Q566.829 357.96 564.746 357.96 Q561.574 357.96 559.977 358.933 Q558.403 359.905 558.403 361.849 Q558.403 363.331 559.537 364.187 Q560.672 365.02 564.097 365.784 L565.556 366.108 Q570.093 367.081 571.991 368.863 Q573.912 370.622 573.912 373.794 Q573.912 377.405 571.042 379.511 Q568.195 381.618 563.195 381.618 Q561.111 381.618 558.843 381.201 Q556.598 380.807 554.098 379.997 L554.098 375.599 Q556.459 376.826 558.75 377.451 Q561.042 378.053 563.287 378.053 Q566.297 378.053 567.917 377.034 Q569.537 375.993 569.537 374.118 Q569.537 372.382 568.357 371.456 Q567.199 370.53 563.241 369.673 L561.76 369.326 Q557.801 368.493 556.042 366.78 Q554.283 365.044 554.283 362.034 Q554.283 358.377 556.875 356.386 Q559.468 354.395 564.236 354.395 Q566.597 354.395 568.681 354.743 Q570.764 355.09 572.523 355.784 Z" fill="#000000" fill-rule="evenodd" fill-opacity="1" /><path clip-path="url(#clip820)" d="M584.908 347.659 L584.908 355.02 L593.681 355.02 L593.681 358.331 L584.908 358.331 L584.908 372.405 Q584.908 375.576 585.764 376.479 Q586.644 377.381 589.306 377.381 L593.681 377.381 L593.681 380.946 L589.306 380.946 Q584.375 380.946 582.5 379.118 Q580.625 377.266 580.625 372.405 L580.625 358.331 L577.5 358.331 L577.5 355.02 L580.625 355.02 L580.625 347.659 L584.908 347.659 Z" fill="#000000" fill-rule="evenodd" fill-opacity="1" /><path clip-path="url(#clip820)" d="M621.458 366.919 L621.458 369.002 L601.875 369.002 Q602.153 373.4 604.514 375.715 Q606.898 378.006 611.134 378.006 Q613.588 378.006 615.88 377.405 Q618.194 376.803 620.463 375.599 L620.463 379.627 Q618.171 380.599 615.764 381.108 Q613.356 381.618 610.88 381.618 Q604.676 381.618 601.042 378.006 Q597.431 374.395 597.431 368.238 Q597.431 361.872 600.857 358.145 Q604.306 354.395 610.139 354.395 Q615.37 354.395 618.403 357.775 Q621.458 361.132 621.458 366.919 M617.199 365.669 Q617.153 362.173 615.231 360.09 Q613.333 358.007 610.185 358.007 Q606.62 358.007 604.468 360.02 Q602.338 362.034 602.014 365.692 L617.199 365.669 Z" fill="#000000" fill-rule="evenodd" fill-opacity="1" /><path clip-path="url(#clip820)" d="M643.518 344.928 L647.778 344.928 L647.778 380.946 L643.518 380.946 L643.518 344.928 Z" fill="#000000" fill-rule="evenodd" fill-opacity="1" /><path clip-path="url(#clip820)" d="M656.69 355.02 L660.949 355.02 L660.949 380.946 L656.69 380.946 L656.69 355.02 M656.69 344.928 L660.949 344.928 L660.949 350.321 L656.69 350.321 L656.69 344.928 Z" fill="#000000" fill-rule="evenodd" fill-opacity="1" /><path clip-path="url(#clip820)" d="M691.412 365.298 L691.412 380.946 L687.152 380.946 L687.152 365.437 Q687.152 361.757 685.717 359.928 Q684.282 358.099 681.412 358.099 Q677.963 358.099 675.972 360.298 Q673.981 362.497 673.981 366.294 L673.981 380.946 L669.699 380.946 L669.699 355.02 L673.981 355.02 L673.981 359.048 Q675.509 356.71 677.569 355.553 Q679.652 354.395 682.361 354.395 Q686.828 354.395 689.12 357.173 Q691.412 359.928 691.412 365.298 Z" fill="#000000" fill-rule="evenodd" fill-opacity="1" /><path clip-path="url(#clip820)" d="M722.083 366.919 L722.083 369.002 L702.5 369.002 Q702.777 373.4 705.138 375.715 Q707.523 378.006 711.759 378.006 Q714.212 378.006 716.504 377.405 Q718.819 376.803 721.087 375.599 L721.087 379.627 Q718.796 380.599 716.388 381.108 Q713.981 381.618 711.504 381.618 Q705.3 381.618 701.666 378.006 Q698.055 374.395 698.055 368.238 Q698.055 361.872 701.481 358.145 Q704.93 354.395 710.763 354.395 Q715.995 354.395 719.027 357.775 Q722.083 361.132 722.083 366.919 M717.823 365.669 Q717.777 362.173 715.856 360.09 Q713.958 358.007 710.81 358.007 Q707.245 358.007 705.092 360.02 Q702.962 362.034 702.638 365.692 L717.823 365.669 Z" fill="#000000" fill-rule="evenodd" fill-opacity="1" /><path clip-path="url(#clip820)" d="M740.856 367.914 Q735.694 367.914 733.703 369.094 Q731.712 370.275 731.712 373.122 Q731.712 375.391 733.194 376.733 Q734.698 378.053 737.268 378.053 Q740.809 378.053 742.939 375.553 Q745.092 373.03 745.092 368.863 L745.092 367.914 L740.856 367.914 M749.351 366.155 L749.351 380.946 L745.092 380.946 L745.092 377.011 Q743.634 379.372 741.458 380.506 Q739.282 381.618 736.134 381.618 Q732.152 381.618 729.791 379.395 Q727.453 377.15 727.453 373.4 Q727.453 369.025 730.37 366.803 Q733.31 364.581 739.12 364.581 L745.092 364.581 L745.092 364.164 Q745.092 361.224 743.147 359.627 Q741.226 358.007 737.731 358.007 Q735.509 358.007 733.402 358.539 Q731.296 359.071 729.351 360.136 L729.351 356.201 Q731.689 355.298 733.888 354.858 Q736.087 354.395 738.171 354.395 Q743.796 354.395 746.573 357.312 Q749.351 360.229 749.351 366.155 Z" fill="#000000" fill-rule="evenodd" fill-opacity="1" /><path clip-path="url(#clip820)" d="M773.147 359.002 Q772.43 358.585 771.573 358.4 Q770.74 358.192 769.721 358.192 Q766.11 358.192 764.166 360.553 Q762.245 362.891 762.245 367.289 L762.245 380.946 L757.962 380.946 L757.962 355.02 L762.245 355.02 L762.245 359.048 Q763.587 356.687 765.74 355.553 Q767.893 354.395 770.971 354.395 Q771.411 354.395 771.944 354.465 Q772.476 354.511 773.124 354.627 L773.147 359.002 Z" fill="#000000" fill-rule="evenodd" fill-opacity="1" /></svg>
