<?xml version="1.0" encoding="utf-8"?>
<svg xmlns="http://www.w3.org/2000/svg" xmlns:xlink="http://www.w3.org/1999/xlink" width="600" height="400" viewBox="0 0 2400 1600">
<defs>
  <clipPath id="clip760">
    <rect x="0" y="0" width="2400" height="1600"/>
  </clipPath>
</defs>
<path clip-path="url(#clip760)" d="
M0 1600 L2400 1600 L2400 0 L0 0  Z
  " fill="#ffffff" fill-rule="evenodd" fill-opacity="1"/>
<defs>
  <clipPath id="clip761">
    <rect x="480" y="0" width="1681" height="1600"/>
  </clipPath>
</defs>
<path clip-path="url(#clip760)" d="
M244.451 1410.9 L2352.76 1410.9 L2352.76 166.672 L244.451 166.672  Z
  " fill="#eaeaea" fill-rule="evenodd" fill-opacity="1"/>
<defs>
  <clipPath id="clip762">
    <rect x="244" y="166" width="2109" height="1245"/>
  </clipPath>
</defs>
<polyline clip-path="url(#clip762)" style="stroke:#ffffff; stroke-linecap:butt; stroke-linejoin:round; stroke-width:4; stroke-opacity:1; fill:none" points="
  422.257,1410.9 422.257,166.672 
  "/>
<polyline clip-path="url(#clip762)" style="stroke:#ffffff; stroke-linecap:butt; stroke-linejoin:round; stroke-width:4; stroke-opacity:1; fill:none" points="
  1736.28,1410.9 1736.28,166.672 
  "/>
<polyline clip-path="url(#clip762)" style="stroke:#ffffff; stroke-linecap:butt; stroke-linejoin:round; stroke-width:2; stroke-opacity:1; fill:none" points="
  1395.11,1410.9 1395.11,166.672 
  "/>
<polyline clip-path="url(#clip760)" style="stroke:#ffffff; stroke-linecap:butt; stroke-linejoin:round; stroke-width:4; stroke-opacity:1; fill:none" points="
  244.451,1410.9 2352.76,1410.9 
  "/>
<polyline clip-path="url(#clip760)" style="stroke:#333333; stroke-linecap:butt; stroke-linejoin:round; stroke-width:4; stroke-opacity:1; fill:none" points="
  422.257,1410.9 422.257,1429.79 
  "/>
<polyline clip-path="url(#clip760)" style="stroke:#333333; stroke-linecap:butt; stroke-linejoin:round; stroke-width:4; stroke-opacity:1; fill:none" points="
  1736.28,1410.9 1736.28,1429.79 
  "/>
<polyline clip-path="url(#clip760)" style="stroke:#333333; stroke-linecap:butt; stroke-linejoin:round; stroke-width:4; stroke-opacity:1; fill:none" points="
  1395.11,1410.9 1395.11,1420.35 
  "/>
<path clip-path="url(#clip760)" d="M372.523 1494.62 L380.161 1494.62 L380.161 1468.26 L371.851 1469.92 L371.851 1465.66 L380.115 1464 L384.791 1464 L384.791 1494.62 L392.43 1494.62 L392.43 1498.56 L372.523 1498.56 L372.523 1494.62 Z" fill="#4c4c4c" fill-rule="evenodd" fill-opacity="1" /><path clip-path="url(#clip760)" d="M411.874 1467.08 Q408.263 1467.08 406.434 1470.64 Q404.629 1474.18 404.629 1481.31 Q404.629 1488.42 406.434 1491.98 Q408.263 1495.52 411.874 1495.52 Q415.509 1495.52 417.314 1491.98 Q419.143 1488.42 419.143 1481.31 Q419.143 1474.18 417.314 1470.64 Q415.509 1467.08 411.874 1467.08 M411.874 1463.37 Q417.684 1463.37 420.74 1467.98 Q423.819 1472.56 423.819 1481.31 Q423.819 1490.04 420.74 1494.64 Q417.684 1499.23 411.874 1499.23 Q406.064 1499.23 402.985 1494.64 Q399.93 1490.04 399.93 1481.31 Q399.93 1472.56 402.985 1467.98 Q406.064 1463.37 411.874 1463.37 Z" fill="#4c4c4c" fill-rule="evenodd" fill-opacity="1" /><path clip-path="url(#clip760)" d="M423.819 1457.47 L447.93 1457.47 L447.93 1460.67 L423.819 1460.67 L423.819 1457.47 Z" fill="#4c4c4c" fill-rule="evenodd" fill-opacity="1" /><path clip-path="url(#clip760)" d="M459.403 1467.95 L472.662 1467.95 L472.662 1471.15 L454.833 1471.15 L454.833 1467.95 Q456.996 1465.71 460.719 1461.95 Q464.462 1458.17 465.421 1457.08 Q467.246 1455.03 467.96 1453.62 Q468.694 1452.19 468.694 1450.82 Q468.694 1448.58 467.114 1447.17 Q465.553 1445.76 463.033 1445.76 Q461.246 1445.76 459.252 1446.38 Q457.278 1447 455.021 1448.26 L455.021 1444.42 Q457.315 1443.5 459.309 1443.03 Q461.303 1442.56 462.958 1442.56 Q467.321 1442.56 469.916 1444.74 Q472.512 1446.92 472.512 1450.57 Q472.512 1452.3 471.854 1453.86 Q471.214 1455.4 469.503 1457.51 Q469.033 1458.06 466.512 1460.67 Q463.992 1463.27 459.403 1467.95 Z" fill="#4c4c4c" fill-rule="evenodd" fill-opacity="1" /><path clip-path="url(#clip760)" d="M1686.39 1494.62 L1694.03 1494.62 L1694.03 1468.26 L1685.72 1469.92 L1685.72 1465.66 L1693.98 1464 L1698.66 1464 L1698.66 1494.62 L1706.3 1494.62 L1706.3 1498.56 L1686.39 1498.56 L1686.39 1494.62 Z" fill="#4c4c4c" fill-rule="evenodd" fill-opacity="1" /><path clip-path="url(#clip760)" d="M1725.74 1467.08 Q1722.13 1467.08 1720.3 1470.64 Q1718.5 1474.18 1718.5 1481.31 Q1718.5 1488.42 1720.3 1491.98 Q1722.13 1495.52 1725.74 1495.52 Q1729.38 1495.52 1731.18 1491.98 Q1733.01 1488.42 1733.01 1481.31 Q1733.01 1474.18 1731.18 1470.64 Q1729.38 1467.08 1725.74 1467.08 M1725.74 1463.37 Q1731.55 1463.37 1734.61 1467.98 Q1737.69 1472.56 1737.69 1481.31 Q1737.69 1490.04 1734.61 1494.64 Q1731.55 1499.23 1725.74 1499.23 Q1719.93 1499.23 1716.85 1494.64 Q1713.8 1490.04 1713.8 1481.31 Q1713.8 1472.56 1716.85 1467.98 Q1719.93 1463.37 1725.74 1463.37 Z" fill="#4c4c4c" fill-rule="evenodd" fill-opacity="1" /><path clip-path="url(#clip760)" d="M1737.69 1457.47 L1761.8 1457.47 L1761.8 1460.67 L1737.69 1460.67 L1737.69 1457.47 Z" fill="#4c4c4c" fill-rule="evenodd" fill-opacity="1" /><path clip-path="url(#clip760)" d="M1770.66 1467.95 L1776.86 1467.95 L1776.86 1446.53 L1770.11 1447.88 L1770.11 1444.42 L1776.83 1443.07 L1780.62 1443.07 L1780.62 1467.95 L1786.83 1467.95 L1786.83 1471.15 L1770.66 1471.15 L1770.66 1467.95 Z" fill="#4c4c4c" fill-rule="evenodd" fill-opacity="1" /><path clip-path="url(#clip760)" d="M1286.33 1533 L1273.28 1568.84 L1299.42 1568.84 L1286.33 1533 M1264.56 1574.19 L1282.71 1526.67 L1289.99 1526.67 L1308.1 1574.19 L1264.56 1574.19 Z" fill="#000000" fill-rule="evenodd" fill-opacity="1" /><path clip-path="url(#clip760)" d="M1320.58 1528.42 L1320.58 1538.54 L1332.64 1538.54 L1332.64 1543.09 L1320.58 1543.09 L1320.58 1562.44 Q1320.58 1566.8 1321.76 1568.04 Q1322.97 1569.28 1326.63 1569.28 L1332.64 1569.28 L1332.64 1574.19 L1326.63 1574.19 Q1319.85 1574.19 1317.27 1571.67 Q1314.69 1569.12 1314.69 1562.44 L1314.69 1543.09 L1310.4 1543.09 L1310.4 1538.54 L1314.69 1538.54 L1314.69 1528.42 L1320.58 1528.42 Z" fill="#000000" fill-rule="evenodd" fill-opacity="1" /><polyline clip-path="url(#clip762)" style="stroke:#ffffff; stroke-linecap:butt; stroke-linejoin:round; stroke-width:4; stroke-opacity:1; fill:none" points="
  244.451,1190.13 2352.76,1190.13 
  "/>
<polyline clip-path="url(#clip762)" style="stroke:#ffffff; stroke-linecap:butt; stroke-linejoin:round; stroke-width:4; stroke-opacity:1; fill:none" points="
  244.451,764.888 2352.76,764.888 
  "/>
<polyline clip-path="url(#clip762)" style="stroke:#ffffff; stroke-linecap:butt; stroke-linejoin:round; stroke-width:4; stroke-opacity:1; fill:none" points="
  244.451,339.648 2352.76,339.648 
  "/>
<polyline clip-path="url(#clip762)" style="stroke:#ffffff; stroke-linecap:butt; stroke-linejoin:round; stroke-width:2; stroke-opacity:1; fill:none" points="
  244.451,1300.54 2352.76,1300.54 
  "/>
<polyline clip-path="url(#clip762)" style="stroke:#ffffff; stroke-linecap:butt; stroke-linejoin:round; stroke-width:2; stroke-opacity:1; fill:none" points="
  244.451,875.296 2352.76,875.296 
  "/>
<polyline clip-path="url(#clip762)" style="stroke:#ffffff; stroke-linecap:butt; stroke-linejoin:round; stroke-width:2; stroke-opacity:1; fill:none" points="
  244.451,450.056 2352.76,450.056 
  "/>
<polyline clip-path="url(#clip760)" style="stroke:#ffffff; stroke-linecap:butt; stroke-linejoin:round; stroke-width:4; stroke-opacity:1; fill:none" points="
  244.451,1410.9 244.451,166.672 
  "/>
<polyline clip-path="url(#clip760)" style="stroke:#333333; stroke-linecap:butt; stroke-linejoin:round; stroke-width:4; stroke-opacity:1; fill:none" points="
  244.451,1190.13 225.553,1190.13 
  "/>
<polyline clip-path="url(#clip760)" style="stroke:#333333; stroke-linecap:butt; stroke-linejoin:round; stroke-width:4; stroke-opacity:1; fill:none" points="
  244.451,764.888 225.553,764.888 
  "/>
<polyline clip-path="url(#clip760)" style="stroke:#333333; stroke-linecap:butt; stroke-linejoin:round; stroke-width:4; stroke-opacity:1; fill:none" points="
  244.451,339.648 225.553,339.648 
  "/>
<polyline clip-path="url(#clip760)" style="stroke:#333333; stroke-linecap:butt; stroke-linejoin:round; stroke-width:4; stroke-opacity:1; fill:none" points="
  244.451,1300.54 235.002,1300.54 
  "/>
<polyline clip-path="url(#clip760)" style="stroke:#333333; stroke-linecap:butt; stroke-linejoin:round; stroke-width:4; stroke-opacity:1; fill:none" points="
  244.451,875.296 235.002,875.296 
  "/>
<polyline clip-path="url(#clip760)" style="stroke:#333333; stroke-linecap:butt; stroke-linejoin:round; stroke-width:4; stroke-opacity:1; fill:none" points="
  244.451,450.056 235.002,450.056 
  "/>
<path clip-path="url(#clip760)" d="M96.9315 1209.92 L104.57 1209.92 L104.57 1183.56 L96.2602 1185.22 L96.2602 1180.96 L104.524 1179.3 L109.2 1179.3 L109.2 1209.92 L116.839 1209.92 L116.839 1213.86 L96.9315 1213.86 L96.9315 1209.92 Z" fill="#4c4c4c" fill-rule="evenodd" fill-opacity="1" /><path clip-path="url(#clip760)" d="M136.283 1182.37 Q132.672 1182.37 130.843 1185.94 Q129.038 1189.48 129.038 1196.61 Q129.038 1203.72 130.843 1207.28 Q132.672 1210.82 136.283 1210.82 Q139.917 1210.82 141.723 1207.28 Q143.552 1203.72 143.552 1196.61 Q143.552 1189.48 141.723 1185.94 Q139.917 1182.37 136.283 1182.37 M136.283 1178.67 Q142.093 1178.67 145.149 1183.28 Q148.227 1187.86 148.227 1196.61 Q148.227 1205.34 145.149 1209.94 Q142.093 1214.53 136.283 1214.53 Q130.473 1214.53 127.394 1209.94 Q124.339 1205.34 124.339 1196.61 Q124.339 1187.86 127.394 1183.28 Q130.473 1178.67 136.283 1178.67 Z" fill="#4c4c4c" fill-rule="evenodd" fill-opacity="1" /><path clip-path="url(#clip760)" d="M148.773 1183.25 L154.979 1183.25 L154.979 1161.83 L148.227 1163.18 L148.227 1159.72 L154.942 1158.37 L158.741 1158.37 L158.741 1183.25 L164.948 1183.25 L164.948 1186.45 L148.773 1186.45 L148.773 1183.25 Z" fill="#4c4c4c" fill-rule="evenodd" fill-opacity="1" /><path clip-path="url(#clip760)" d="M180.746 1160.87 Q177.812 1160.87 176.326 1163.76 Q174.859 1166.64 174.859 1172.43 Q174.859 1178.21 176.326 1181.1 Q177.812 1183.98 180.746 1183.98 Q183.699 1183.98 185.166 1181.1 Q186.652 1178.21 186.652 1172.43 Q186.652 1166.64 185.166 1163.76 Q183.699 1160.87 180.746 1160.87 M180.746 1157.86 Q185.467 1157.86 187.949 1161.6 Q190.451 1165.32 190.451 1172.43 Q190.451 1179.52 187.949 1183.27 Q185.467 1186.99 180.746 1186.99 Q176.025 1186.99 173.524 1183.27 Q171.041 1179.52 171.041 1172.43 Q171.041 1165.32 173.524 1161.6 Q176.025 1157.86 180.746 1157.86 Z" fill="#4c4c4c" fill-rule="evenodd" fill-opacity="1" /><path clip-path="url(#clip760)" d="M97.9283 784.681 L105.567 784.681 L105.567 758.315 L97.257 759.982 L97.257 755.722 L105.521 754.056 L110.197 754.056 L110.197 784.681 L117.836 784.681 L117.836 788.616 L97.9283 788.616 L97.9283 784.681 Z" fill="#4c4c4c" fill-rule="evenodd" fill-opacity="1" /><path clip-path="url(#clip760)" d="M137.28 757.134 Q133.669 757.134 131.84 760.699 Q130.035 764.241 130.035 771.37 Q130.035 778.477 131.84 782.042 Q133.669 785.583 137.28 785.583 Q140.914 785.583 142.72 782.042 Q144.548 778.477 144.548 771.37 Q144.548 764.241 142.72 760.699 Q140.914 757.134 137.28 757.134 M137.28 753.431 Q143.09 753.431 146.146 758.037 Q149.224 762.62 149.224 771.37 Q149.224 780.097 146.146 784.704 Q143.09 789.287 137.28 789.287 Q131.47 789.287 128.391 784.704 Q125.336 780.097 125.336 771.37 Q125.336 762.62 128.391 758.037 Q131.47 753.431 137.28 753.431 Z" fill="#4c4c4c" fill-rule="evenodd" fill-opacity="1" /><path clip-path="url(#clip760)" d="M149.77 758.008 L155.976 758.008 L155.976 736.586 L149.224 737.94 L149.224 734.479 L155.939 733.125 L159.738 733.125 L159.738 758.008 L165.944 758.008 L165.944 761.205 L149.77 761.205 L149.77 758.008 Z" fill="#4c4c4c" fill-rule="evenodd" fill-opacity="1" /><path clip-path="url(#clip760)" d="M174.276 758.008 L180.483 758.008 L180.483 736.586 L173.731 737.94 L173.731 734.479 L180.445 733.125 L184.244 733.125 L184.244 758.008 L190.451 758.008 L190.451 761.205 L174.276 761.205 L174.276 758.008 Z" fill="#4c4c4c" fill-rule="evenodd" fill-opacity="1" /><path clip-path="url(#clip760)" d="M98.2292 359.44 L105.868 359.44 L105.868 333.075 L97.5579 334.741 L97.5579 330.482 L105.822 328.815 L110.498 328.815 L110.498 359.44 L118.136 359.44 L118.136 363.375 L98.2292 363.375 L98.2292 359.44 Z" fill="#4c4c4c" fill-rule="evenodd" fill-opacity="1" /><path clip-path="url(#clip760)" d="M137.581 331.894 Q133.97 331.894 132.141 335.459 Q130.335 339.001 130.335 346.13 Q130.335 353.237 132.141 356.801 Q133.97 360.343 137.581 360.343 Q141.215 360.343 143.021 356.801 Q144.849 353.237 144.849 346.13 Q144.849 339.001 143.021 335.459 Q141.215 331.894 137.581 331.894 M137.581 328.19 Q143.391 328.19 146.447 332.797 Q149.525 337.38 149.525 346.13 Q149.525 354.857 146.447 359.463 Q143.391 364.047 137.581 364.047 Q131.771 364.047 128.692 359.463 Q125.636 354.857 125.636 346.13 Q125.636 337.38 128.692 332.797 Q131.771 328.19 137.581 328.19 Z" fill="#4c4c4c" fill-rule="evenodd" fill-opacity="1" /><path clip-path="url(#clip760)" d="M150.071 332.768 L156.277 332.768 L156.277 311.346 L149.525 312.7 L149.525 309.239 L156.24 307.885 L160.039 307.885 L160.039 332.768 L166.245 332.768 L166.245 335.965 L150.071 335.965 L150.071 332.768 Z" fill="#4c4c4c" fill-rule="evenodd" fill-opacity="1" /><path clip-path="url(#clip760)" d="M177.191 332.768 L190.451 332.768 L190.451 335.965 L172.621 335.965 L172.621 332.768 Q174.784 330.53 178.508 326.768 Q182.251 322.988 183.21 321.897 Q185.034 319.847 185.749 318.436 Q186.482 317.007 186.482 315.634 Q186.482 313.396 184.903 311.985 Q183.342 310.574 180.821 310.574 Q179.035 310.574 177.041 311.195 Q175.066 311.816 172.809 313.076 L172.809 309.239 Q175.104 308.318 177.097 307.847 Q179.091 307.377 180.746 307.377 Q185.11 307.377 187.705 309.559 Q190.3 311.741 190.3 315.389 Q190.3 317.12 189.642 318.681 Q189.003 320.223 187.291 322.329 Q186.821 322.875 184.301 325.489 Q181.781 328.085 177.191 332.768 Z" fill="#4c4c4c" fill-rule="evenodd" fill-opacity="1" /><path clip-path="url(#clip760)" d="M44.7161 817.669 L47.5806 817.669 L47.5806 844.596 Q53.6281 844.214 56.8109 840.967 Q59.9619 837.689 59.9619 831.864 Q59.9619 828.49 59.1344 825.339 Q58.3069 822.157 56.6518 819.037 L62.1899 819.037 Q63.5267 822.188 64.227 825.499 Q64.9272 828.809 64.9272 832.214 Q64.9272 840.744 59.9619 845.742 Q54.9967 850.707 46.5303 850.707 Q37.7774 850.707 32.6531 845.996 Q27.4968 841.254 27.4968 833.233 Q27.4968 826.04 32.1438 821.87 Q36.7589 817.669 44.7161 817.669 M42.9973 823.525 Q38.1912 823.589 35.3266 826.231 Q32.4621 828.841 32.4621 833.169 Q32.4621 838.071 35.2312 841.031 Q38.0002 843.959 43.0292 844.405 L42.9973 823.525 Z" fill="#000000" fill-rule="evenodd" fill-opacity="1" /><path clip-path="url(#clip760)" d="M33.8307 787.4 Q33.2578 788.387 33.0032 789.564 Q32.7167 790.71 32.7167 792.11 Q32.7167 797.076 35.9632 799.749 Q39.1779 802.391 45.2253 802.391 L64.0042 802.391 L64.0042 808.279 L28.3562 808.279 L28.3562 802.391 L33.8944 802.391 Q30.6479 800.545 29.0883 797.585 Q27.4968 794.625 27.4968 790.392 Q27.4968 789.787 27.5923 789.055 Q27.656 788.323 27.8151 787.432 L33.8307 787.4 Z" fill="#000000" fill-rule="evenodd" fill-opacity="1" /><path clip-path="url(#clip760)" d="M33.8307 761.746 Q33.2578 762.733 33.0032 763.91 Q32.7167 765.056 32.7167 766.457 Q32.7167 771.422 35.9632 774.096 Q39.1779 776.737 45.2253 776.737 L64.0042 776.737 L64.0042 782.626 L28.3562 782.626 L28.3562 776.737 L33.8944 776.737 Q30.6479 774.891 29.0883 771.931 Q27.4968 768.971 27.4968 764.738 Q27.4968 764.133 27.5923 763.401 Q27.656 762.669 27.8151 761.778 L33.8307 761.746 Z" fill="#000000" fill-rule="evenodd" fill-opacity="1" /><path clip-path="url(#clip760)" d="M32.4621 743.222 Q32.4621 747.932 36.1542 750.67 Q39.8145 753.407 46.212 753.407 Q52.6095 753.407 56.3017 750.702 Q59.9619 747.964 59.9619 743.222 Q59.9619 738.543 56.2698 735.806 Q52.5777 733.069 46.212 733.069 Q39.8781 733.069 36.186 735.806 Q32.4621 738.543 32.4621 743.222 M27.4968 743.222 Q27.4968 735.583 32.4621 731.222 Q37.4273 726.862 46.212 726.862 Q54.9649 726.862 59.9619 731.222 Q64.9272 735.583 64.9272 743.222 Q64.9272 750.893 59.9619 755.253 Q54.9649 759.582 46.212 759.582 Q37.4273 759.582 32.4621 755.253 Q27.4968 750.893 27.4968 743.222 Z" fill="#000000" fill-rule="evenodd" fill-opacity="1" /><path clip-path="url(#clip760)" d="M994.334 28.512 L1027.11 28.512 L1027.11 34.4147 L1001.35 34.4147 L1001.35 49.7619 L1026.04 49.7619 L1026.04 55.6646 L1001.35 55.6646 L1001.35 74.4493 L1027.74 74.4493 L1027.74 80.352 L994.334 80.352 L994.334 28.512 Z" fill="#000000" fill-rule="evenodd" fill-opacity="1" /><path clip-path="url(#clip760)" d="M1061.52 47.4355 Q1060.44 46.8105 1059.16 46.5327 Q1057.91 46.2202 1056.38 46.2202 Q1050.97 46.2202 1048.05 49.7619 Q1045.17 53.2688 1045.17 59.866 L1045.17 80.352 L1038.74 80.352 L1038.74 41.4633 L1045.17 41.4633 L1045.17 47.505 Q1047.18 43.9633 1050.41 42.2619 Q1053.64 40.5258 1058.26 40.5258 Q1058.92 40.5258 1059.72 40.63 Q1060.51 40.6994 1061.49 40.873 L1061.52 47.4355 Z" fill="#000000" fill-rule="evenodd" fill-opacity="1" /><path clip-path="url(#clip760)" d="M1089.51 47.4355 Q1088.43 46.8105 1087.15 46.5327 Q1085.9 46.2202 1084.37 46.2202 Q1078.95 46.2202 1076.04 49.7619 Q1073.15 53.2688 1073.15 59.866 L1073.15 80.352 L1066.73 80.352 L1066.73 41.4633 L1073.15 41.4633 L1073.15 47.505 Q1075.17 43.9633 1078.4 42.2619 Q1081.63 40.5258 1086.24 40.5258 Q1086.9 40.5258 1087.7 40.63 Q1088.5 40.6994 1089.47 40.873 L1089.51 47.4355 Z" fill="#000000" fill-rule="evenodd" fill-opacity="1" /><path clip-path="url(#clip760)" d="M1109.72 45.9425 Q1104.58 45.9425 1101.59 49.9702 Q1098.6 53.9633 1098.6 60.9424 Q1098.6 67.9215 1101.56 71.9493 Q1104.54 75.9423 1109.72 75.9423 Q1114.82 75.9423 1117.81 71.9145 Q1120.79 67.8868 1120.79 60.9424 Q1120.79 54.0327 1117.81 50.0049 Q1114.82 45.9425 1109.72 45.9425 M1109.72 40.5258 Q1118.05 40.5258 1122.81 45.9425 Q1127.56 51.3591 1127.56 60.9424 Q1127.56 70.4909 1122.81 75.9423 Q1118.05 81.3589 1109.72 81.3589 Q1101.35 81.3589 1096.59 75.9423 Q1091.87 70.4909 1091.87 60.9424 Q1091.87 51.3591 1096.59 45.9425 Q1101.35 40.5258 1109.72 40.5258 Z" fill="#000000" fill-rule="evenodd" fill-opacity="1" /><path clip-path="url(#clip760)" d="M1180.44 26.3245 L1180.44 31.637 L1174.33 31.637 Q1170.9 31.637 1169.54 33.0259 Q1168.22 34.4147 1168.22 38.0258 L1168.22 41.4633 L1178.74 41.4633 L1178.74 46.4286 L1168.22 46.4286 L1168.22 80.352 L1161.8 80.352 L1161.8 46.4286 L1155.69 46.4286 L1155.69 41.4633 L1161.8 41.4633 L1161.8 38.755 Q1161.8 32.262 1164.82 29.3106 Q1167.84 26.3245 1174.4 26.3245 L1180.44 26.3245 Z" fill="#000000" fill-rule="evenodd" fill-opacity="1" /><path clip-path="url(#clip760)" d="M1200.86 45.9425 Q1195.72 45.9425 1192.74 49.9702 Q1189.75 53.9633 1189.75 60.9424 Q1189.75 67.9215 1192.7 71.9493 Q1195.69 75.9423 1200.86 75.9423 Q1205.97 75.9423 1208.95 71.9145 Q1211.94 67.8868 1211.94 60.9424 Q1211.94 54.0327 1208.95 50.0049 Q1205.97 45.9425 1200.86 45.9425 M1200.86 40.5258 Q1209.19 40.5258 1213.95 45.9425 Q1218.71 51.3591 1218.71 60.9424 Q1218.71 70.4909 1213.95 75.9423 Q1209.19 81.3589 1200.86 81.3589 Q1192.49 81.3589 1187.74 75.9423 Q1183.01 70.4909 1183.01 60.9424 Q1183.01 51.3591 1187.74 45.9425 Q1192.49 40.5258 1200.86 40.5258 Z" fill="#000000" fill-rule="evenodd" fill-opacity="1" /><path clip-path="url(#clip760)" d="M1251.83 47.4355 Q1250.76 46.8105 1249.47 46.5327 Q1248.22 46.2202 1246.69 46.2202 Q1241.28 46.2202 1238.36 49.7619 Q1235.48 53.2688 1235.48 59.866 L1235.48 80.352 L1229.06 80.352 L1229.06 41.4633 L1235.48 41.4633 L1235.48 47.505 Q1237.49 43.9633 1240.72 42.2619 Q1243.95 40.5258 1248.57 40.5258 Q1249.23 40.5258 1250.03 40.63 Q1250.83 40.6994 1251.8 40.873 L1251.83 47.4355 Z" fill="#000000" fill-rule="evenodd" fill-opacity="1" /><path clip-path="url(#clip760)" d="M1264.85 30.4217 L1264.85 41.4633 L1278.01 41.4633 L1278.01 46.4286 L1264.85 46.4286 L1264.85 67.5396 Q1264.85 72.2965 1266.14 73.6506 Q1267.46 75.0048 1271.45 75.0048 L1278.01 75.0048 L1278.01 80.352 L1271.45 80.352 Q1264.05 80.352 1261.24 77.609 Q1258.43 74.8312 1258.43 67.5396 L1258.43 46.4286 L1253.74 46.4286 L1253.74 41.4633 L1258.43 41.4633 L1258.43 30.4217 L1264.85 30.4217 Z" fill="#000000" fill-rule="evenodd" fill-opacity="1" /><path clip-path="url(#clip760)" d="M1319.68 59.3104 L1319.68 62.4354 L1290.3 62.4354 Q1290.72 69.0326 1294.26 72.5048 Q1297.84 75.9423 1304.19 75.9423 Q1307.87 75.9423 1311.31 75.0395 Q1314.78 74.1368 1318.19 72.3312 L1318.19 78.3728 Q1314.75 79.8312 1311.14 80.5951 Q1307.53 81.3589 1303.81 81.3589 Q1294.51 81.3589 1289.05 75.9423 Q1283.64 70.5257 1283.64 61.2896 Q1283.64 51.741 1288.78 46.1508 Q1293.95 40.5258 1302.7 40.5258 Q1310.55 40.5258 1315.1 45.5952 Q1319.68 50.6299 1319.68 59.3104 M1313.29 57.4355 Q1313.22 52.1924 1310.34 49.0674 Q1307.49 45.9425 1302.77 45.9425 Q1297.42 45.9425 1294.19 48.9633 Q1291 51.9841 1290.51 57.4702 L1313.29 57.4355 Z" fill="#000000" fill-rule="evenodd" fill-opacity="1" /><path clip-path="url(#clip760)" d="M1358.95 74.5187 L1358.95 95.1436 L1352.53 95.1436 L1352.53 41.4633 L1358.95 41.4633 L1358.95 47.3661 Q1360.96 43.8939 1364.02 42.2272 Q1367.11 40.5258 1371.38 40.5258 Q1378.46 40.5258 1382.87 46.1508 Q1387.32 51.7758 1387.32 60.9424 Q1387.32 70.109 1382.87 75.734 Q1378.46 81.3589 1371.38 81.3589 Q1367.11 81.3589 1364.02 79.6923 Q1360.96 77.9909 1358.95 74.5187 M1380.69 60.9424 Q1380.69 53.8938 1377.77 49.9008 Q1374.89 45.873 1369.82 45.873 Q1364.75 45.873 1361.83 49.9008 Q1358.95 53.8938 1358.95 60.9424 Q1358.95 67.991 1361.83 72.0187 Q1364.75 76.0117 1369.82 76.0117 Q1374.89 76.0117 1377.77 72.0187 Q1380.69 67.991 1380.69 60.9424 Z" fill="#000000" fill-rule="evenodd" fill-opacity="1" /><path clip-path="url(#clip760)" d="M1421.35 48.0605 L1465.86 48.0605 L1465.86 53.8938 L1421.35 53.8938 L1421.35 48.0605 M1421.35 62.2271 L1465.86 62.2271 L1465.86 68.1298 L1421.35 68.1298 L1421.35 62.2271 Z" fill="#000000" fill-rule="evenodd" fill-opacity="1" /><path clip-path="url(#clip760)" d="M1518.6 33.13 Q1513.19 33.13 1510.44 38.4772 Q1507.73 43.7897 1507.73 54.4841 Q1507.73 65.1437 1510.44 70.4909 Q1513.19 75.8034 1518.6 75.8034 Q1524.05 75.8034 1526.76 70.4909 Q1529.5 65.1437 1529.5 54.4841 Q1529.5 43.7897 1526.76 38.4772 Q1524.05 33.13 1518.6 33.13 M1518.6 27.5745 Q1527.32 27.5745 1531.9 34.4842 Q1536.52 41.3592 1536.52 54.4841 Q1536.52 67.5743 1531.9 74.484 Q1527.32 81.3589 1518.6 81.3589 Q1509.89 81.3589 1505.27 74.484 Q1500.69 67.5743 1500.69 54.4841 Q1500.69 41.3592 1505.27 34.4842 Q1509.89 27.5745 1518.6 27.5745 Z" fill="#000000" fill-rule="evenodd" fill-opacity="1" /><path clip-path="url(#clip760)" d="M1548.85 71.5326 L1556.17 71.5326 L1556.17 80.352 L1548.85 80.352 L1548.85 71.5326 Z" fill="#000000" fill-rule="evenodd" fill-opacity="1" /><path clip-path="url(#clip760)" d="M1571.52 28.512 L1599.05 28.512 L1599.05 34.4147 L1577.94 34.4147 L1577.94 47.123 Q1579.47 46.6022 1581 46.3591 Q1582.53 46.0814 1584.05 46.0814 Q1592.73 46.0814 1597.8 50.8383 Q1602.87 55.5952 1602.87 63.7201 Q1602.87 72.0882 1597.66 76.7409 Q1592.46 81.3589 1582.98 81.3589 Q1579.71 81.3589 1576.31 80.8034 Q1572.94 80.2478 1569.33 79.1367 L1569.33 72.0882 Q1572.46 73.7895 1575.79 74.6229 Q1579.12 75.4562 1582.84 75.4562 Q1588.84 75.4562 1592.35 72.2965 Q1595.86 69.1368 1595.86 63.7201 Q1595.86 58.3035 1592.35 55.1438 Q1588.84 51.9841 1582.84 51.9841 Q1580.03 51.9841 1577.21 52.6091 Q1574.44 53.2341 1571.52 54.5535 L1571.52 28.512 Z" fill="#000000" fill-rule="evenodd" fill-opacity="1" /><path clip-path="url(#clip760)" d="M778.311 106.272 L788.762 106.272 L801.991 141.55 L815.29 106.272 L825.741 106.272 L825.741 158.112 L818.901 158.112 L818.901 112.591 L805.533 148.147 L798.485 148.147 L785.117 112.591 L785.117 158.112 L778.311 158.112 L778.311 106.272 Z" fill="#000000" fill-rule="evenodd" fill-opacity="1" /><path clip-path="url(#clip760)" d="M862.824 125.821 L907.338 125.821 L907.338 131.654 L862.824 131.654 L862.824 125.821 M862.824 139.987 L907.338 139.987 L907.338 145.89 L862.824 145.89 L862.824 139.987 Z" fill="#000000" fill-rule="evenodd" fill-opacity="1" /><path clip-path="url(#clip760)" d="M946.296 152.209 L957.755 152.209 L957.755 112.661 L945.289 115.161 L945.289 108.772 L957.685 106.272 L964.699 106.272 L964.699 152.209 L976.157 152.209 L976.157 158.112 L946.296 158.112 L946.296 152.209 Z" fill="#000000" fill-rule="evenodd" fill-opacity="1" /><path clip-path="url(#clip760)" d="M1005.32 110.89 Q999.907 110.89 997.164 116.237 Q994.456 121.55 994.456 132.244 Q994.456 142.904 997.164 148.251 Q999.907 153.563 1005.32 153.563 Q1010.78 153.563 1013.48 148.251 Q1016.23 142.904 1016.23 132.244 Q1016.23 121.55 1013.48 116.237 Q1010.78 110.89 1005.32 110.89 M1005.32 105.335 Q1014.04 105.335 1018.62 112.244 Q1023.24 119.119 1023.24 132.244 Q1023.24 145.334 1018.62 152.244 Q1014.04 159.119 1005.32 159.119 Q996.609 159.119 991.99 152.244 Q987.407 145.334 987.407 132.244 Q987.407 119.119 991.99 112.244 Q996.609 105.335 1005.32 105.335 Z" fill="#000000" fill-rule="evenodd" fill-opacity="1" /><path clip-path="url(#clip760)" d="M1050.57 110.89 Q1045.15 110.89 1042.41 116.237 Q1039.7 121.55 1039.7 132.244 Q1039.7 142.904 1042.41 148.251 Q1045.15 153.563 1050.57 153.563 Q1056.02 153.563 1058.73 148.251 Q1061.47 142.904 1061.47 132.244 Q1061.47 121.55 1058.73 116.237 Q1056.02 110.89 1050.57 110.89 M1050.57 105.335 Q1059.28 105.335 1063.87 112.244 Q1068.48 119.119 1068.48 132.244 Q1068.48 145.334 1063.87 152.244 Q1059.28 159.119 1050.57 159.119 Q1041.85 159.119 1037.23 152.244 Q1032.65 145.334 1032.65 132.244 Q1032.65 119.119 1037.23 112.244 Q1041.85 105.335 1050.57 105.335 Z" fill="#000000" fill-rule="evenodd" fill-opacity="1" /><path clip-path="url(#clip760)" d="M1095.81 110.89 Q1090.39 110.89 1087.65 116.237 Q1084.94 121.55 1084.94 132.244 Q1084.94 142.904 1087.65 148.251 Q1090.39 153.563 1095.81 153.563 Q1101.26 153.563 1103.97 148.251 Q1106.71 142.904 1106.71 132.244 Q1106.71 121.55 1103.97 116.237 Q1101.26 110.89 1095.81 110.89 M1095.81 105.335 Q1104.52 105.335 1109.11 112.244 Q1113.73 119.119 1113.73 132.244 Q1113.73 145.334 1109.11 152.244 Q1104.52 159.119 1095.81 159.119 Q1087.09 159.119 1082.48 152.244 Q1077.89 145.334 1077.89 132.244 Q1077.89 119.119 1082.48 112.244 Q1087.09 105.335 1095.81 105.335 Z" fill="#000000" fill-rule="evenodd" fill-opacity="1" /><path clip-path="url(#clip760)" d="M1141.05 110.89 Q1135.64 110.89 1132.89 116.237 Q1130.18 121.55 1130.18 132.244 Q1130.18 142.904 1132.89 148.251 Q1135.64 153.563 1141.05 153.563 Q1146.5 153.563 1149.21 148.251 Q1151.95 142.904 1151.95 132.244 Q1151.95 121.55 1149.21 116.237 Q1146.5 110.89 1141.05 110.89 M1141.05 105.335 Q1149.77 105.335 1154.35 112.244 Q1158.97 119.119 1158.97 132.244 Q1158.97 145.334 1154.35 152.244 Q1149.77 159.119 1141.05 159.119 Q1132.34 159.119 1127.72 152.244 Q1123.14 145.334 1123.14 132.244 Q1123.14 119.119 1127.72 112.244 Q1132.34 105.335 1141.05 105.335 Z" fill="#000000" fill-rule="evenodd" fill-opacity="1" /><path clip-path="url(#clip760)" d="M1172.02 149.293 L1179.35 149.293 L1179.35 155.265 L1173.66 166.376 L1169.18 166.376 L1172.02 155.265 L1172.02 149.293 Z" fill="#000000" fill-rule="evenodd" fill-opacity="1" /><path clip-path="url(#clip760)" d="M1230.67 124.293 Q1225.39 124.293 1222.54 128.112 Q1219.56 132.105 1219.56 138.702 Q1219.56 145.682 1222.51 149.709 Q1225.5 153.702 1230.67 153.702 Q1235.77 153.702 1238.76 149.675 Q1241.75 145.647 1241.75 138.702 Q1241.75 132.348 1238.76 128.112 Q1236.02 124.293 1230.67 124.293 M1230.67 119.223 L1251.88 119.223 L1251.88 125.612 L1244.73 125.612 Q1248.52 131.029 1248.52 138.702 Q1248.52 148.251 1243.76 153.668 Q1239 159.119 1230.67 159.119 Q1222.3 159.119 1217.58 153.668 Q1212.82 148.251 1212.82 138.702 Q1212.82 129.084 1217.58 123.702 Q1221.5 119.223 1230.67 119.223 Z" fill="#000000" fill-rule="evenodd" fill-opacity="1" /><path clip-path="url(#clip760)" d="M1284.11 125.821 L1328.62 125.821 L1328.62 131.654 L1284.11 131.654 L1284.11 125.821 M1284.11 139.987 L1328.62 139.987 L1328.62 145.89 L1284.11 145.89 L1284.11 139.987 Z" fill="#000000" fill-rule="evenodd" fill-opacity="1" /><path clip-path="url(#clip760)" d="M1381.36 110.89 Q1375.95 110.89 1373.2 116.237 Q1370.5 121.55 1370.5 132.244 Q1370.5 142.904 1373.2 148.251 Q1375.95 153.563 1381.36 153.563 Q1386.81 153.563 1389.52 148.251 Q1392.27 142.904 1392.27 132.244 Q1392.27 121.55 1389.52 116.237 Q1386.81 110.89 1381.36 110.89 M1381.36 105.335 Q1390.08 105.335 1394.66 112.244 Q1399.28 119.119 1399.28 132.244 Q1399.28 145.334 1394.66 152.244 Q1390.08 159.119 1381.36 159.119 Q1372.65 159.119 1368.03 152.244 Q1363.45 145.334 1363.45 132.244 Q1363.45 119.119 1368.03 112.244 Q1372.65 105.335 1381.36 105.335 Z" fill="#000000" fill-rule="evenodd" fill-opacity="1" /><path clip-path="url(#clip760)" d="M1411.61 149.293 L1418.93 149.293 L1418.93 158.112 L1411.61 158.112 L1411.61 149.293 Z" fill="#000000" fill-rule="evenodd" fill-opacity="1" /><path clip-path="url(#clip760)" d="M1434.28 106.272 L1461.81 106.272 L1461.81 112.175 L1440.7 112.175 L1440.7 124.883 Q1442.23 124.362 1443.76 124.119 Q1445.29 123.841 1446.81 123.841 Q1455.49 123.841 1460.56 128.598 Q1465.63 133.355 1465.63 141.48 Q1465.63 149.848 1460.43 154.501 Q1455.22 159.119 1445.74 159.119 Q1442.47 159.119 1439.07 158.563 Q1435.7 158.008 1432.09 156.897 L1432.09 149.848 Q1435.22 151.55 1438.55 152.383 Q1441.88 153.216 1445.6 153.216 Q1451.61 153.216 1455.11 150.056 Q1458.62 146.897 1458.62 141.48 Q1458.62 136.064 1455.11 132.904 Q1451.61 129.744 1445.6 129.744 Q1442.79 129.744 1439.97 130.369 Q1437.2 130.994 1434.28 132.314 L1434.28 106.272 Z" fill="#000000" fill-rule="evenodd" fill-opacity="1" /><path clip-path="url(#clip760)" d="M1480.18 149.293 L1487.51 149.293 L1487.51 155.265 L1481.81 166.376 L1477.34 166.376 L1480.18 155.265 L1480.18 149.293 Z" fill="#000000" fill-rule="evenodd" fill-opacity="1" /><path clip-path="url(#clip760)" d="M1516.85 106.272 L1560.7 106.272 L1560.7 112.175 L1542.3 112.175 L1542.3 158.112 L1535.25 158.112 L1535.25 112.175 L1516.85 112.175 L1516.85 106.272 Z" fill="#000000" fill-rule="evenodd" fill-opacity="1" /><path clip-path="url(#clip760)" d="M1590.63 125.821 L1635.15 125.821 L1635.15 131.654 L1590.63 131.654 L1590.63 125.821 M1590.63 139.987 L1635.15 139.987 L1635.15 145.89 L1590.63 145.89 L1590.63 139.987 Z" fill="#000000" fill-rule="evenodd" fill-opacity="1" /><path clip-path="url(#clip760)" d="M1674.1 152.209 L1685.56 152.209 L1685.56 112.661 L1673.1 115.161 L1673.1 108.772 L1685.49 106.272 L1692.51 106.272 L1692.51 152.209 L1703.97 152.209 L1703.97 158.112 L1674.1 158.112 L1674.1 152.209 Z" fill="#000000" fill-rule="evenodd" fill-opacity="1" /><path clip-path="url(#clip760)" d="M1739.38 130.161 Q1744.42 131.237 1747.23 134.64 Q1750.08 138.043 1750.08 143.043 Q1750.08 150.716 1744.8 154.918 Q1739.52 159.119 1729.8 159.119 Q1726.54 159.119 1723.06 158.459 Q1719.63 157.834 1715.94 156.55 L1715.94 149.779 Q1718.86 151.48 1722.33 152.348 Q1725.81 153.216 1729.59 153.216 Q1736.19 153.216 1739.63 150.612 Q1743.1 148.008 1743.1 143.043 Q1743.1 138.459 1739.87 135.89 Q1736.67 133.286 1730.94 133.286 L1724.9 133.286 L1724.9 127.522 L1731.22 127.522 Q1736.4 127.522 1739.14 125.473 Q1741.88 123.39 1741.88 119.501 Q1741.88 115.508 1739.04 113.39 Q1736.22 111.237 1730.94 111.237 Q1728.06 111.237 1724.76 111.862 Q1721.47 112.487 1717.51 113.807 L1717.51 107.557 Q1721.5 106.446 1724.97 105.89 Q1728.48 105.335 1731.57 105.335 Q1739.56 105.335 1744.21 108.98 Q1748.86 112.591 1748.86 118.772 Q1748.86 123.077 1746.4 126.064 Q1743.93 129.015 1739.38 130.161 Z" fill="#000000" fill-rule="evenodd" fill-opacity="1" /><path clip-path="url(#clip760)" d="M1763.38 149.293 L1770.7 149.293 L1770.7 158.112 L1763.38 158.112 L1763.38 149.293 Z" fill="#000000" fill-rule="evenodd" fill-opacity="1" /><path clip-path="url(#clip760)" d="M1800.98 110.89 Q1795.56 110.89 1792.82 116.237 Q1790.11 121.55 1790.11 132.244 Q1790.11 142.904 1792.82 148.251 Q1795.56 153.563 1800.98 153.563 Q1806.43 153.563 1809.14 148.251 Q1811.88 142.904 1811.88 132.244 Q1811.88 121.55 1809.14 116.237 Q1806.43 110.89 1800.98 110.89 M1800.98 105.335 Q1809.69 105.335 1814.28 112.244 Q1818.9 119.119 1818.9 132.244 Q1818.9 145.334 1814.28 152.244 Q1809.69 159.119 1800.98 159.119 Q1792.26 159.119 1787.65 152.244 Q1783.06 145.334 1783.06 132.244 Q1783.06 119.119 1787.65 112.244 Q1792.26 105.335 1800.98 105.335 Z" fill="#000000" fill-rule="evenodd" fill-opacity="1" /><path clip-path="url(#clip762)" d="M2293.09 629.624 L2289.33 640.44 L2277.87 640.68 L2287.01 647.608 L2283.68 658.568 L2293.09 652.024 L2302.49 658.568 L2299.17 647.608 L2308.3 640.68 L2296.85 640.44 L2293.09 629.624 Z" fill="#009af9" fill-rule="evenodd" fill-opacity="1" stroke="#000000" stroke-opacity="1" stroke-width="0"/>
<path clip-path="url(#clip762)" d="M1891.73 611.126 L1887.97 621.942 L1876.52 622.182 L1885.65 629.11 L1882.33 640.07 L1891.73 633.526 L1901.14 640.07 L1897.81 629.11 L1906.95 622.182 L1895.49 621.942 L1891.73 611.126 Z" fill="#009af9" fill-rule="evenodd" fill-opacity="1" stroke="#000000" stroke-opacity="1" stroke-width="0"/>
<path clip-path="url(#clip762)" d="M1493.3 667.611 L1489.54 678.427 L1478.08 678.667 L1487.22 685.595 L1483.89 696.555 L1493.3 690.011 L1502.71 696.555 L1499.38 685.595 L1508.52 678.667 L1497.06 678.427 L1493.3 667.611 Z" fill="#009af9" fill-rule="evenodd" fill-opacity="1" stroke="#000000" stroke-opacity="1" stroke-width="0"/>
<path clip-path="url(#clip762)" d="M1096.31 727.869 L1092.55 738.685 L1081.09 738.925 L1090.23 745.853 L1086.9 756.813 L1096.31 750.269 L1105.72 756.813 L1102.39 745.853 L1111.53 738.925 L1100.07 738.685 L1096.31 727.869 Z" fill="#009af9" fill-rule="evenodd" fill-opacity="1" stroke="#000000" stroke-opacity="1" stroke-width="0"/>
<path clip-path="url(#clip762)" d="M700.036 832.127 L696.276 842.943 L684.82 843.183 L693.956 850.111 L690.628 861.071 L700.036 854.527 L709.444 861.071 L706.116 850.111 L715.252 843.183 L703.796 842.943 L700.036 832.127 Z" fill="#009af9" fill-rule="evenodd" fill-opacity="1" stroke="#000000" stroke-opacity="1" stroke-width="0"/>
<path clip-path="url(#clip762)" d="M304.12 934.442 L300.36 945.258 L288.904 945.498 L298.04 952.426 L294.712 963.386 L304.12 956.842 L313.528 963.386 L310.2 952.426 L319.336 945.498 L307.88 945.258 L304.12 934.442 Z" fill="#009af9" fill-rule="evenodd" fill-opacity="1" stroke="#000000" stroke-opacity="1" stroke-width="0"/>
<path clip-path="url(#clip762)" d="M2293.09 575.93 L2289.33 586.746 L2277.87 586.986 L2287.01 593.914 L2283.68 604.874 L2293.09 598.33 L2302.49 604.874 L2299.17 593.914 L2308.3 586.986 L2296.85 586.746 L2293.09 575.93 Z" fill="#e26f46" fill-rule="evenodd" fill-opacity="1" stroke="#000000" stroke-opacity="1" stroke-width="0"/>
<path clip-path="url(#clip762)" d="M1891.73 609.738 L1887.97 620.554 L1876.52 620.794 L1885.65 627.722 L1882.33 638.682 L1891.73 632.138 L1901.14 638.682 L1897.81 627.722 L1906.95 620.794 L1895.49 620.554 L1891.73 609.738 Z" fill="#e26f46" fill-rule="evenodd" fill-opacity="1" stroke="#000000" stroke-opacity="1" stroke-width="0"/>
<path clip-path="url(#clip762)" d="M1493.3 657.963 L1489.54 668.779 L1478.08 669.019 L1487.22 675.947 L1483.89 686.907 L1493.3 680.363 L1502.71 686.907 L1499.38 675.947 L1508.52 669.019 L1497.06 668.779 L1493.3 657.963 Z" fill="#e26f46" fill-rule="evenodd" fill-opacity="1" stroke="#000000" stroke-opacity="1" stroke-width="0"/>
<path clip-path="url(#clip762)" d="M1096.31 760.88 L1092.55 771.696 L1081.09 771.936 L1090.23 778.864 L1086.9 789.824 L1096.31 783.28 L1105.72 789.824 L1102.39 778.864 L1111.53 771.936 L1100.07 771.696 L1096.31 760.88 Z" fill="#e26f46" fill-rule="evenodd" fill-opacity="1" stroke="#000000" stroke-opacity="1" stroke-width="0"/>
<path clip-path="url(#clip762)" d="M700.036 769.873 L696.276 780.689 L684.82 780.929 L693.956 787.857 L690.628 798.817 L700.036 792.273 L709.444 798.817 L706.116 787.857 L715.252 780.929 L703.796 780.689 L700.036 769.873 Z" fill="#e26f46" fill-rule="evenodd" fill-opacity="1" stroke="#000000" stroke-opacity="1" stroke-width="0"/>
<path clip-path="url(#clip762)" d="M304.12 781.68 L300.36 792.496 L288.904 792.736 L298.04 799.664 L294.712 810.624 L304.12 804.08 L313.528 810.624 L310.2 799.664 L319.336 792.736 L307.88 792.496 L304.12 781.68 Z" fill="#e26f46" fill-rule="evenodd" fill-opacity="1" stroke="#000000" stroke-opacity="1" stroke-width="0"/>
<polyline clip-path="url(#clip762)" style="stroke:#3da44d; stroke-linecap:butt; stroke-linejoin:round; stroke-width:4; stroke-opacity:1; fill:none" stroke-dasharray="16, 10" points="
  2293.09,588.988 1891.73,653.747 1493.3,718.035 1096.31,782.09 700.036,846.029 304.12,909.911 
  "/>
<path clip-path="url(#clip760)" d="
M314.728 415.506 L1169.05 415.506 L1169.05 208.146 L314.728 208.146  Z
  " fill="#eaeaea" fill-rule="evenodd" fill-opacity="1"/>
<polyline clip-path="url(#clip760)" style="stroke:#ffffff; stroke-linecap:butt; stroke-linejoin:round; stroke-width:4; stroke-opacity:1; fill:none" points="
  314.728,415.506 1169.05,415.506 1169.05,208.146 314.728,208.146 314.728,415.506 
  "/>
<path clip-path="url(#clip760)" d="M408.43 234.386 L402.414 251.692 L384.085 252.076 L398.702 263.161 L393.377 280.697 L408.43 270.226 L423.483 280.697 L418.158 263.161 L432.776 252.076 L414.446 251.692 L408.43 234.386 Z" fill="#009af9" fill-rule="evenodd" fill-opacity="1" stroke="#000000" stroke-opacity="1" stroke-width="0"/>
<path clip-path="url(#clip760)" d="M526.16 263.239 L526.16 265.322 L506.577 265.322 Q506.855 269.72 509.216 272.035 Q511.6 274.326 515.836 274.326 Q518.29 274.326 520.582 273.725 Q522.896 273.123 525.165 271.919 L525.165 275.947 Q522.873 276.919 520.466 277.428 Q518.058 277.938 515.582 277.938 Q509.378 277.938 505.744 274.326 Q502.133 270.715 502.133 264.558 Q502.133 258.192 505.559 254.465 Q509.008 250.715 514.841 250.715 Q520.072 250.715 523.105 254.095 Q526.16 257.452 526.16 263.239 M521.901 261.989 Q521.855 258.493 519.933 256.41 Q518.035 254.327 514.887 254.327 Q511.322 254.327 509.17 256.34 Q507.04 258.354 506.716 262.012 L521.901 261.989 Z" fill="#000000" fill-rule="evenodd" fill-opacity="1" /><path clip-path="url(#clip760)" d="M548.174 255.322 Q547.456 254.905 546.6 254.72 Q545.767 254.512 544.748 254.512 Q541.137 254.512 539.193 256.873 Q537.271 259.211 537.271 263.609 L537.271 277.266 L532.989 277.266 L532.989 251.34 L537.271 251.34 L537.271 255.368 Q538.614 253.007 540.767 251.873 Q542.919 250.715 545.998 250.715 Q546.438 250.715 546.97 250.785 Q547.503 250.831 548.151 250.947 L548.174 255.322 Z" fill="#000000" fill-rule="evenodd" fill-opacity="1" /><path clip-path="url(#clip760)" d="M566.831 255.322 Q566.114 254.905 565.257 254.72 Q564.424 254.512 563.405 254.512 Q559.794 254.512 557.85 256.873 Q555.929 259.211 555.929 263.609 L555.929 277.266 L551.646 277.266 L551.646 251.34 L555.929 251.34 L555.929 255.368 Q557.271 253.007 559.424 251.873 Q561.577 250.715 564.655 250.715 Q565.095 250.715 565.628 250.785 Q566.16 250.831 566.808 250.947 L566.831 255.322 Z" fill="#000000" fill-rule="evenodd" fill-opacity="1" /><path clip-path="url(#clip760)" d="M580.304 254.327 Q576.878 254.327 574.887 257.012 Q572.896 259.674 572.896 264.327 Q572.896 268.979 574.864 271.664 Q576.854 274.326 580.304 274.326 Q583.706 274.326 585.697 271.641 Q587.688 268.956 587.688 264.327 Q587.688 259.72 585.697 257.035 Q583.706 254.327 580.304 254.327 M580.304 250.715 Q585.859 250.715 589.03 254.327 Q592.202 257.938 592.202 264.327 Q592.202 270.692 589.03 274.326 Q585.859 277.938 580.304 277.938 Q574.725 277.938 571.554 274.326 Q568.405 270.692 568.405 264.327 Q568.405 257.938 571.554 254.327 Q574.725 250.715 580.304 250.715 Z" fill="#000000" fill-rule="evenodd" fill-opacity="1" /><path clip-path="url(#clip760)" d="M627.456 241.248 L627.456 244.79 L623.382 244.79 Q621.09 244.79 620.188 245.716 Q619.308 246.641 619.308 249.049 L619.308 251.34 L626.322 251.34 L626.322 254.651 L619.308 254.651 L619.308 277.266 L615.026 277.266 L615.026 254.651 L610.951 254.651 L610.951 251.34 L615.026 251.34 L615.026 249.535 Q615.026 245.206 617.039 243.239 Q619.053 241.248 623.428 241.248 L627.456 241.248 Z" fill="#000000" fill-rule="evenodd" fill-opacity="1" /><path clip-path="url(#clip760)" d="M641.067 254.327 Q637.641 254.327 635.65 257.012 Q633.66 259.674 633.66 264.327 Q633.66 268.979 635.627 271.664 Q637.618 274.326 641.067 274.326 Q644.47 274.326 646.461 271.641 Q648.451 268.956 648.451 264.327 Q648.451 259.72 646.461 257.035 Q644.47 254.327 641.067 254.327 M641.067 250.715 Q646.623 250.715 649.794 254.327 Q652.965 257.938 652.965 264.327 Q652.965 270.692 649.794 274.326 Q646.623 277.938 641.067 277.938 Q635.488 277.938 632.317 274.326 Q629.169 270.692 629.169 264.327 Q629.169 257.938 632.317 254.327 Q635.488 250.715 641.067 250.715 Z" fill="#000000" fill-rule="evenodd" fill-opacity="1" /><path clip-path="url(#clip760)" d="M675.048 255.322 Q674.331 254.905 673.474 254.72 Q672.641 254.512 671.622 254.512 Q668.011 254.512 666.067 256.873 Q664.146 259.211 664.146 263.609 L664.146 277.266 L659.863 277.266 L659.863 251.34 L664.146 251.34 L664.146 255.368 Q665.488 253.007 667.641 251.873 Q669.794 250.715 672.872 250.715 Q673.312 250.715 673.845 250.785 Q674.377 250.831 675.025 250.947 L675.048 255.322 Z" fill="#000000" fill-rule="evenodd" fill-opacity="1" /><path clip-path="url(#clip760)" d="M683.729 243.979 L683.729 251.34 L692.502 251.34 L692.502 254.651 L683.729 254.651 L683.729 268.725 Q683.729 271.896 684.585 272.799 Q685.465 273.701 688.127 273.701 L692.502 273.701 L692.502 277.266 L688.127 277.266 Q683.196 277.266 681.321 275.438 Q679.447 273.586 679.447 268.725 L679.447 254.651 L676.322 254.651 L676.322 251.34 L679.447 251.34 L679.447 243.979 L683.729 243.979 Z" fill="#000000" fill-rule="evenodd" fill-opacity="1" /><path clip-path="url(#clip760)" d="M720.28 263.239 L720.28 265.322 L700.696 265.322 Q700.974 269.72 703.335 272.035 Q705.72 274.326 709.956 274.326 Q712.409 274.326 714.701 273.725 Q717.016 273.123 719.284 271.919 L719.284 275.947 Q716.993 276.919 714.585 277.428 Q712.178 277.938 709.701 277.938 Q703.497 277.938 699.863 274.326 Q696.252 270.715 696.252 264.558 Q696.252 258.192 699.678 254.465 Q703.127 250.715 708.96 250.715 Q714.192 250.715 717.224 254.095 Q720.28 257.452 720.28 263.239 M716.02 261.989 Q715.974 258.493 714.053 256.41 Q712.155 254.327 709.007 254.327 Q705.442 254.327 703.289 256.34 Q701.159 258.354 700.835 262.012 L716.02 261.989 Z" fill="#000000" fill-rule="evenodd" fill-opacity="1" /><path clip-path="url(#clip760)" d="M743.752 273.331 L751.391 273.331 L751.391 246.966 L743.08 248.632 L743.08 244.373 L751.344 242.706 L756.02 242.706 L756.02 273.331 L763.659 273.331 L763.659 277.266 L743.752 277.266 L743.752 273.331 Z" fill="#000000" fill-rule="evenodd" fill-opacity="1" /><path clip-path="url(#clip760)" d="M783.103 245.785 Q779.492 245.785 777.664 249.35 Q775.858 252.891 775.858 260.021 Q775.858 267.127 777.664 270.692 Q779.492 274.234 783.103 274.234 Q786.738 274.234 788.543 270.692 Q790.372 267.127 790.372 260.021 Q790.372 252.891 788.543 249.35 Q786.738 245.785 783.103 245.785 M783.103 242.081 Q788.914 242.081 791.969 246.688 Q795.048 251.271 795.048 260.021 Q795.048 268.748 791.969 273.354 Q788.914 277.938 783.103 277.938 Q777.293 277.938 774.215 273.354 Q771.159 268.748 771.159 260.021 Q771.159 251.271 774.215 246.688 Q777.293 242.081 783.103 242.081 Z" fill="#000000" fill-rule="evenodd" fill-opacity="1" /><path clip-path="url(#clip760)" d="M813.265 245.785 Q809.654 245.785 807.825 249.35 Q806.02 252.891 806.02 260.021 Q806.02 267.127 807.825 270.692 Q809.654 274.234 813.265 274.234 Q816.899 274.234 818.705 270.692 Q820.534 267.127 820.534 260.021 Q820.534 252.891 818.705 249.35 Q816.899 245.785 813.265 245.785 M813.265 242.081 Q819.075 242.081 822.131 246.688 Q825.21 251.271 825.21 260.021 Q825.21 268.748 822.131 273.354 Q819.075 277.938 813.265 277.938 Q807.455 277.938 804.376 273.354 Q801.321 268.748 801.321 260.021 Q801.321 251.271 804.376 246.688 Q807.455 242.081 813.265 242.081 Z" fill="#000000" fill-rule="evenodd" fill-opacity="1" /><path clip-path="url(#clip760)" d="M843.427 245.785 Q839.816 245.785 837.987 249.35 Q836.182 252.891 836.182 260.021 Q836.182 267.127 837.987 270.692 Q839.816 274.234 843.427 274.234 Q847.061 274.234 848.867 270.692 Q850.696 267.127 850.696 260.021 Q850.696 252.891 848.867 249.35 Q847.061 245.785 843.427 245.785 M843.427 242.081 Q849.237 242.081 852.293 246.688 Q855.371 251.271 855.371 260.021 Q855.371 268.748 852.293 273.354 Q849.237 277.938 843.427 277.938 Q837.617 277.938 834.538 273.354 Q831.483 268.748 831.483 260.021 Q831.483 251.271 834.538 246.688 Q837.617 242.081 843.427 242.081 Z" fill="#000000" fill-rule="evenodd" fill-opacity="1" /><path clip-path="url(#clip760)" d="M873.589 245.785 Q869.978 245.785 868.149 249.35 Q866.344 252.891 866.344 260.021 Q866.344 267.127 868.149 270.692 Q869.978 274.234 873.589 274.234 Q877.223 274.234 879.029 270.692 Q880.857 267.127 880.857 260.021 Q880.857 252.891 879.029 249.35 Q877.223 245.785 873.589 245.785 M873.589 242.081 Q879.399 242.081 882.455 246.688 Q885.533 251.271 885.533 260.021 Q885.533 268.748 882.455 273.354 Q879.399 277.938 873.589 277.938 Q867.779 277.938 864.7 273.354 Q861.645 268.748 861.645 260.021 Q861.645 251.271 864.7 246.688 Q867.779 242.081 873.589 242.081 Z" fill="#000000" fill-rule="evenodd" fill-opacity="1" /><path clip-path="url(#clip760)" d="M920.001 264.234 Q914.839 264.234 912.848 265.414 Q910.857 266.595 910.857 269.442 Q910.857 271.711 912.339 273.053 Q913.843 274.373 916.413 274.373 Q919.954 274.373 922.084 271.873 Q924.237 269.35 924.237 265.183 L924.237 264.234 L920.001 264.234 M928.496 262.475 L928.496 277.266 L924.237 277.266 L924.237 273.331 Q922.779 275.692 920.603 276.826 Q918.427 277.938 915.279 277.938 Q911.297 277.938 908.936 275.715 Q906.598 273.47 906.598 269.72 Q906.598 265.345 909.515 263.123 Q912.455 260.901 918.265 260.901 L924.237 260.901 L924.237 260.484 Q924.237 257.544 922.292 255.947 Q920.371 254.327 916.876 254.327 Q914.654 254.327 912.547 254.859 Q910.441 255.391 908.496 256.456 L908.496 252.521 Q910.834 251.618 913.033 251.178 Q915.232 250.715 917.316 250.715 Q922.941 250.715 925.718 253.632 Q928.496 256.549 928.496 262.475 Z" fill="#000000" fill-rule="evenodd" fill-opacity="1" /><path clip-path="url(#clip760)" d="M957.454 256.317 Q959.051 253.447 961.274 252.081 Q963.496 250.715 966.505 250.715 Q970.556 250.715 972.755 253.563 Q974.954 256.387 974.954 261.618 L974.954 277.266 L970.672 277.266 L970.672 261.757 Q970.672 258.03 969.352 256.225 Q968.033 254.419 965.325 254.419 Q962.014 254.419 960.093 256.618 Q958.172 258.817 958.172 262.614 L958.172 277.266 L953.889 277.266 L953.889 261.757 Q953.889 258.007 952.57 256.225 Q951.251 254.419 948.496 254.419 Q945.232 254.419 943.311 256.641 Q941.39 258.84 941.39 262.614 L941.39 277.266 L937.107 277.266 L937.107 251.34 L941.39 251.34 L941.39 255.368 Q942.848 252.984 944.885 251.85 Q946.922 250.715 949.723 250.715 Q952.547 250.715 954.514 252.151 Q956.505 253.586 957.454 256.317 Z" fill="#000000" fill-rule="evenodd" fill-opacity="1" /><path clip-path="url(#clip760)" d="M993.496 254.327 Q990.07 254.327 988.079 257.012 Q986.088 259.674 986.088 264.327 Q986.088 268.979 988.056 271.664 Q990.047 274.326 993.496 274.326 Q996.899 274.326 998.889 271.641 Q1000.88 268.956 1000.88 264.327 Q1000.88 259.72 998.889 257.035 Q996.899 254.327 993.496 254.327 M993.496 250.715 Q999.051 250.715 1002.22 254.327 Q1005.39 257.938 1005.39 264.327 Q1005.39 270.692 1002.22 274.326 Q999.051 277.938 993.496 277.938 Q987.917 277.938 984.746 274.326 Q981.598 270.692 981.598 264.327 Q981.598 257.938 984.746 254.327 Q987.917 250.715 993.496 250.715 Z" fill="#000000" fill-rule="evenodd" fill-opacity="1" /><path clip-path="url(#clip760)" d="M1028.98 252.104 L1028.98 256.132 Q1027.18 255.206 1025.23 254.743 Q1023.29 254.28 1021.2 254.28 Q1018.03 254.28 1016.44 255.253 Q1014.86 256.225 1014.86 258.169 Q1014.86 259.651 1016 260.507 Q1017.13 261.34 1020.56 262.104 L1022.01 262.428 Q1026.55 263.401 1028.45 265.183 Q1030.37 266.942 1030.37 270.114 Q1030.37 273.725 1027.5 275.831 Q1024.65 277.938 1019.65 277.938 Q1017.57 277.938 1015.3 277.521 Q1013.06 277.127 1010.56 276.317 L1010.56 271.919 Q1012.92 273.146 1015.21 273.771 Q1017.5 274.373 1019.75 274.373 Q1022.75 274.373 1024.38 273.354 Q1026 272.313 1026 270.438 Q1026 268.702 1024.82 267.776 Q1023.66 266.85 1019.7 265.993 L1018.22 265.646 Q1014.26 264.813 1012.5 263.1 Q1010.74 261.364 1010.74 258.354 Q1010.74 254.697 1013.33 252.706 Q1015.93 250.715 1020.69 250.715 Q1023.06 250.715 1025.14 251.063 Q1027.22 251.41 1028.98 252.104 Z" fill="#000000" fill-rule="evenodd" fill-opacity="1" /><path clip-path="url(#clip760)" d="M1041.37 243.979 L1041.37 251.34 L1050.14 251.34 L1050.14 254.651 L1041.37 254.651 L1041.37 268.725 Q1041.37 271.896 1042.22 272.799 Q1043.1 273.701 1045.76 273.701 L1050.14 273.701 L1050.14 277.266 L1045.76 277.266 Q1040.83 277.266 1038.96 275.438 Q1037.08 273.586 1037.08 268.725 L1037.08 254.651 L1033.96 254.651 L1033.96 251.34 L1037.08 251.34 L1037.08 243.979 L1041.37 243.979 Z" fill="#000000" fill-rule="evenodd" fill-opacity="1" /><path clip-path="url(#clip760)" d="M1070.76 255.322 Q1070.05 254.905 1069.19 254.72 Q1068.36 254.512 1067.34 254.512 Q1063.73 254.512 1061.78 256.873 Q1059.86 259.211 1059.86 263.609 L1059.86 277.266 L1055.58 277.266 L1055.58 251.34 L1059.86 251.34 L1059.86 255.368 Q1061.2 253.007 1063.36 251.873 Q1065.51 250.715 1068.59 250.715 Q1069.03 250.715 1069.56 250.785 Q1070.09 250.831 1070.74 250.947 L1070.76 255.322 Z" fill="#000000" fill-rule="evenodd" fill-opacity="1" /><path clip-path="url(#clip760)" d="M1087.01 264.234 Q1081.85 264.234 1079.86 265.414 Q1077.87 266.595 1077.87 269.442 Q1077.87 271.711 1079.35 273.053 Q1080.86 274.373 1083.43 274.373 Q1086.97 274.373 1089.1 271.873 Q1091.25 269.35 1091.25 265.183 L1091.25 264.234 L1087.01 264.234 M1095.51 262.475 L1095.51 277.266 L1091.25 277.266 L1091.25 273.331 Q1089.79 275.692 1087.62 276.826 Q1085.44 277.938 1082.29 277.938 Q1078.31 277.938 1075.95 275.715 Q1073.61 273.47 1073.61 269.72 Q1073.61 265.345 1076.53 263.123 Q1079.47 260.901 1085.28 260.901 L1091.25 260.901 L1091.25 260.484 Q1091.25 257.544 1089.31 255.947 Q1087.38 254.327 1083.89 254.327 Q1081.67 254.327 1079.56 254.859 Q1077.45 255.391 1075.51 256.456 L1075.51 252.521 Q1077.85 251.618 1080.05 251.178 Q1082.25 250.715 1084.33 250.715 Q1089.95 250.715 1092.73 253.632 Q1095.51 256.549 1095.51 262.475 Z" fill="#000000" fill-rule="evenodd" fill-opacity="1" /><path clip-path="url(#clip760)" d="M1120.81 252.104 L1120.81 256.132 Q1119 255.206 1117.06 254.743 Q1115.12 254.28 1113.03 254.28 Q1109.86 254.28 1108.26 255.253 Q1106.69 256.225 1106.69 258.169 Q1106.69 259.651 1107.82 260.507 Q1108.96 261.34 1112.38 262.104 L1113.84 262.428 Q1118.38 263.401 1120.28 265.183 Q1122.2 266.942 1122.2 270.114 Q1122.2 273.725 1119.33 275.831 Q1116.48 277.938 1111.48 277.938 Q1109.4 277.938 1107.13 277.521 Q1104.88 277.127 1102.38 276.317 L1102.38 271.919 Q1104.75 273.146 1107.04 273.771 Q1109.33 274.373 1111.57 274.373 Q1114.58 274.373 1116.2 273.354 Q1117.82 272.313 1117.82 270.438 Q1117.82 268.702 1116.64 267.776 Q1115.49 266.85 1111.53 265.993 L1110.05 265.646 Q1106.09 264.813 1104.33 263.1 Q1102.57 261.364 1102.57 258.354 Q1102.57 254.697 1105.16 252.706 Q1107.75 250.715 1112.52 250.715 Q1114.88 250.715 1116.97 251.063 Q1119.05 251.41 1120.81 252.104 Z" fill="#000000" fill-rule="evenodd" fill-opacity="1" /><path clip-path="url(#clip760)" d="M408.43 286.226 L402.414 303.532 L384.085 303.916 L398.702 315.001 L393.377 332.537 L408.43 322.066 L423.483 332.537 L418.158 315.001 L432.776 303.916 L414.446 303.532 L408.43 286.226 Z" fill="#e26f46" fill-rule="evenodd" fill-opacity="1" stroke="#000000" stroke-opacity="1" stroke-width="0"/>
<path clip-path="url(#clip760)" d="M526.16 315.079 L526.16 317.162 L506.577 317.162 Q506.855 321.56 509.216 323.875 Q511.6 326.166 515.836 326.166 Q518.29 326.166 520.582 325.565 Q522.896 324.963 525.165 323.759 L525.165 327.787 Q522.873 328.759 520.466 329.268 Q518.058 329.778 515.582 329.778 Q509.378 329.778 505.744 326.166 Q502.133 322.555 502.133 316.398 Q502.133 310.032 505.559 306.305 Q509.008 302.555 514.841 302.555 Q520.072 302.555 523.105 305.935 Q526.16 309.292 526.16 315.079 M521.901 313.829 Q521.855 310.333 519.933 308.25 Q518.035 306.167 514.887 306.167 Q511.322 306.167 509.17 308.18 Q507.04 310.194 506.716 313.852 L521.901 313.829 Z" fill="#000000" fill-rule="evenodd" fill-opacity="1" /><path clip-path="url(#clip760)" d="M548.174 307.162 Q547.456 306.745 546.6 306.56 Q545.767 306.352 544.748 306.352 Q541.137 306.352 539.193 308.713 Q537.271 311.051 537.271 315.449 L537.271 329.106 L532.989 329.106 L532.989 303.18 L537.271 303.18 L537.271 307.208 Q538.614 304.847 540.767 303.713 Q542.919 302.555 545.998 302.555 Q546.438 302.555 546.97 302.625 Q547.503 302.671 548.151 302.787 L548.174 307.162 Z" fill="#000000" fill-rule="evenodd" fill-opacity="1" /><path clip-path="url(#clip760)" d="M566.831 307.162 Q566.114 306.745 565.257 306.56 Q564.424 306.352 563.405 306.352 Q559.794 306.352 557.85 308.713 Q555.929 311.051 555.929 315.449 L555.929 329.106 L551.646 329.106 L551.646 303.18 L555.929 303.18 L555.929 307.208 Q557.271 304.847 559.424 303.713 Q561.577 302.555 564.655 302.555 Q565.095 302.555 565.628 302.625 Q566.16 302.671 566.808 302.787 L566.831 307.162 Z" fill="#000000" fill-rule="evenodd" fill-opacity="1" /><path clip-path="url(#clip760)" d="M580.304 306.167 Q576.878 306.167 574.887 308.852 Q572.896 311.514 572.896 316.167 Q572.896 320.819 574.864 323.504 Q576.854 326.166 580.304 326.166 Q583.706 326.166 585.697 323.481 Q587.688 320.796 587.688 316.167 Q587.688 311.56 585.697 308.875 Q583.706 306.167 580.304 306.167 M580.304 302.555 Q585.859 302.555 589.03 306.167 Q592.202 309.778 592.202 316.167 Q592.202 322.532 589.03 326.166 Q585.859 329.778 580.304 329.778 Q574.725 329.778 571.554 326.166 Q568.405 322.532 568.405 316.167 Q568.405 309.778 571.554 306.167 Q574.725 302.555 580.304 302.555 Z" fill="#000000" fill-rule="evenodd" fill-opacity="1" /><path clip-path="url(#clip760)" d="M627.456 293.088 L627.456 296.63 L623.382 296.63 Q621.09 296.63 620.188 297.556 Q619.308 298.481 619.308 300.889 L619.308 303.18 L626.322 303.18 L626.322 306.491 L619.308 306.491 L619.308 329.106 L615.026 329.106 L615.026 306.491 L610.951 306.491 L610.951 303.18 L615.026 303.18 L615.026 301.375 Q615.026 297.046 617.039 295.079 Q619.053 293.088 623.428 293.088 L627.456 293.088 Z" fill="#000000" fill-rule="evenodd" fill-opacity="1" /><path clip-path="url(#clip760)" d="M641.067 306.167 Q637.641 306.167 635.65 308.852 Q633.66 311.514 633.66 316.167 Q633.66 320.819 635.627 323.504 Q637.618 326.166 641.067 326.166 Q644.47 326.166 646.461 323.481 Q648.451 320.796 648.451 316.167 Q648.451 311.56 646.461 308.875 Q644.47 306.167 641.067 306.167 M641.067 302.555 Q646.623 302.555 649.794 306.167 Q652.965 309.778 652.965 316.167 Q652.965 322.532 649.794 326.166 Q646.623 329.778 641.067 329.778 Q635.488 329.778 632.317 326.166 Q629.169 322.532 629.169 316.167 Q629.169 309.778 632.317 306.167 Q635.488 302.555 641.067 302.555 Z" fill="#000000" fill-rule="evenodd" fill-opacity="1" /><path clip-path="url(#clip760)" d="M675.048 307.162 Q674.331 306.745 673.474 306.56 Q672.641 306.352 671.622 306.352 Q668.011 306.352 666.067 308.713 Q664.146 311.051 664.146 315.449 L664.146 329.106 L659.863 329.106 L659.863 303.18 L664.146 303.18 L664.146 307.208 Q665.488 304.847 667.641 303.713 Q669.794 302.555 672.872 302.555 Q673.312 302.555 673.845 302.625 Q674.377 302.671 675.025 302.787 L675.048 307.162 Z" fill="#000000" fill-rule="evenodd" fill-opacity="1" /><path clip-path="url(#clip760)" d="M683.729 295.819 L683.729 303.18 L692.502 303.18 L692.502 306.491 L683.729 306.491 L683.729 320.565 Q683.729 323.736 684.585 324.639 Q685.465 325.541 688.127 325.541 L692.502 325.541 L692.502 329.106 L688.127 329.106 Q683.196 329.106 681.321 327.278 Q679.447 325.426 679.447 320.565 L679.447 306.491 L676.322 306.491 L676.322 303.18 L679.447 303.18 L679.447 295.819 L683.729 295.819 Z" fill="#000000" fill-rule="evenodd" fill-opacity="1" /><path clip-path="url(#clip760)" d="M720.28 315.079 L720.28 317.162 L700.696 317.162 Q700.974 321.56 703.335 323.875 Q705.72 326.166 709.956 326.166 Q712.409 326.166 714.701 325.565 Q717.016 324.963 719.284 323.759 L719.284 327.787 Q716.993 328.759 714.585 329.268 Q712.178 329.778 709.701 329.778 Q703.497 329.778 699.863 326.166 Q696.252 322.555 696.252 316.398 Q696.252 310.032 699.678 306.305 Q703.127 302.555 708.96 302.555 Q714.192 302.555 717.224 305.935 Q720.28 309.292 720.28 315.079 M716.02 313.829 Q715.974 310.333 714.053 308.25 Q712.155 306.167 709.007 306.167 Q705.442 306.167 703.289 308.18 Q701.159 310.194 700.835 313.852 L716.02 313.829 Z" fill="#000000" fill-rule="evenodd" fill-opacity="1" /><path clip-path="url(#clip760)" d="M743.752 325.171 L751.391 325.171 L751.391 298.806 L743.08 300.472 L743.08 296.213 L751.344 294.546 L756.02 294.546 L756.02 325.171 L763.659 325.171 L763.659 329.106 L743.752 329.106 L743.752 325.171 Z" fill="#000000" fill-rule="evenodd" fill-opacity="1" /><path clip-path="url(#clip760)" d="M783.103 297.625 Q779.492 297.625 777.664 301.19 Q775.858 304.731 775.858 311.861 Q775.858 318.967 777.664 322.532 Q779.492 326.074 783.103 326.074 Q786.738 326.074 788.543 322.532 Q790.372 318.967 790.372 311.861 Q790.372 304.731 788.543 301.19 Q786.738 297.625 783.103 297.625 M783.103 293.921 Q788.914 293.921 791.969 298.528 Q795.048 303.111 795.048 311.861 Q795.048 320.588 791.969 325.194 Q788.914 329.778 783.103 329.778 Q777.293 329.778 774.215 325.194 Q771.159 320.588 771.159 311.861 Q771.159 303.111 774.215 298.528 Q777.293 293.921 783.103 293.921 Z" fill="#000000" fill-rule="evenodd" fill-opacity="1" /><path clip-path="url(#clip760)" d="M813.265 297.625 Q809.654 297.625 807.825 301.19 Q806.02 304.731 806.02 311.861 Q806.02 318.967 807.825 322.532 Q809.654 326.074 813.265 326.074 Q816.899 326.074 818.705 322.532 Q820.534 318.967 820.534 311.861 Q820.534 304.731 818.705 301.19 Q816.899 297.625 813.265 297.625 M813.265 293.921 Q819.075 293.921 822.131 298.528 Q825.21 303.111 825.21 311.861 Q825.21 320.588 822.131 325.194 Q819.075 329.778 813.265 329.778 Q807.455 329.778 804.376 325.194 Q801.321 320.588 801.321 311.861 Q801.321 303.111 804.376 298.528 Q807.455 293.921 813.265 293.921 Z" fill="#000000" fill-rule="evenodd" fill-opacity="1" /><path clip-path="url(#clip760)" d="M859.677 316.074 Q854.515 316.074 852.524 317.254 Q850.534 318.435 850.534 321.282 Q850.534 323.551 852.015 324.893 Q853.52 326.213 856.089 326.213 Q859.631 326.213 861.76 323.713 Q863.913 321.19 863.913 317.023 L863.913 316.074 L859.677 316.074 M868.172 314.315 L868.172 329.106 L863.913 329.106 L863.913 325.171 Q862.455 327.532 860.279 328.666 Q858.103 329.778 854.955 329.778 Q850.973 329.778 848.612 327.555 Q846.274 325.31 846.274 321.56 Q846.274 317.185 849.191 314.963 Q852.131 312.741 857.941 312.741 L863.913 312.741 L863.913 312.324 Q863.913 309.384 861.969 307.787 Q860.047 306.167 856.552 306.167 Q854.33 306.167 852.223 306.699 Q850.117 307.231 848.172 308.296 L848.172 304.361 Q850.51 303.458 852.709 303.018 Q854.909 302.555 856.992 302.555 Q862.617 302.555 865.395 305.472 Q868.172 308.389 868.172 314.315 Z" fill="#000000" fill-rule="evenodd" fill-opacity="1" /><path clip-path="url(#clip760)" d="M897.131 308.157 Q898.728 305.287 900.95 303.921 Q903.172 302.555 906.181 302.555 Q910.232 302.555 912.431 305.403 Q914.63 308.227 914.63 313.458 L914.63 329.106 L910.348 329.106 L910.348 313.597 Q910.348 309.87 909.029 308.065 Q907.709 306.259 905.001 306.259 Q901.691 306.259 899.769 308.458 Q897.848 310.657 897.848 314.454 L897.848 329.106 L893.566 329.106 L893.566 313.597 Q893.566 309.847 892.246 308.065 Q890.927 306.259 888.172 306.259 Q884.908 306.259 882.987 308.481 Q881.066 310.68 881.066 314.454 L881.066 329.106 L876.783 329.106 L876.783 303.18 L881.066 303.18 L881.066 307.208 Q882.524 304.824 884.561 303.69 Q886.598 302.555 889.399 302.555 Q892.223 302.555 894.191 303.991 Q896.181 305.426 897.131 308.157 Z" fill="#000000" fill-rule="evenodd" fill-opacity="1" /><path clip-path="url(#clip760)" d="M933.172 306.167 Q929.746 306.167 927.755 308.852 Q925.765 311.514 925.765 316.167 Q925.765 320.819 927.732 323.504 Q929.723 326.166 933.172 326.166 Q936.575 326.166 938.565 323.481 Q940.556 320.796 940.556 316.167 Q940.556 311.56 938.565 308.875 Q936.575 306.167 933.172 306.167 M933.172 302.555 Q938.728 302.555 941.899 306.167 Q945.07 309.778 945.07 316.167 Q945.07 322.532 941.899 326.166 Q938.728 329.778 933.172 329.778 Q927.593 329.778 924.422 326.166 Q921.274 322.532 921.274 316.167 Q921.274 309.778 924.422 306.167 Q927.593 302.555 933.172 302.555 Z" fill="#000000" fill-rule="evenodd" fill-opacity="1" /><path clip-path="url(#clip760)" d="M968.658 303.944 L968.658 307.972 Q966.852 307.046 964.908 306.583 Q962.963 306.12 960.88 306.12 Q957.709 306.12 956.112 307.093 Q954.538 308.065 954.538 310.009 Q954.538 311.491 955.672 312.347 Q956.806 313.18 960.232 313.944 L961.69 314.268 Q966.227 315.241 968.126 317.023 Q970.047 318.782 970.047 321.954 Q970.047 325.565 967.176 327.671 Q964.329 329.778 959.329 329.778 Q957.246 329.778 954.977 329.361 Q952.732 328.967 950.232 328.157 L950.232 323.759 Q952.593 324.986 954.885 325.611 Q957.176 326.213 959.422 326.213 Q962.431 326.213 964.051 325.194 Q965.672 324.153 965.672 322.278 Q965.672 320.542 964.491 319.616 Q963.334 318.69 959.376 317.833 L957.894 317.486 Q953.936 316.653 952.177 314.94 Q950.417 313.204 950.417 310.194 Q950.417 306.537 953.01 304.546 Q955.602 302.555 960.371 302.555 Q962.732 302.555 964.815 302.903 Q966.899 303.25 968.658 303.944 Z" fill="#000000" fill-rule="evenodd" fill-opacity="1" /><path clip-path="url(#clip760)" d="M981.042 295.819 L981.042 303.18 L989.815 303.18 L989.815 306.491 L981.042 306.491 L981.042 320.565 Q981.042 323.736 981.899 324.639 Q982.778 325.541 985.44 325.541 L989.815 325.541 L989.815 329.106 L985.44 329.106 Q980.51 329.106 978.635 327.278 Q976.76 325.426 976.76 320.565 L976.76 306.491 L973.635 306.491 L973.635 303.18 L976.76 303.18 L976.76 295.819 L981.042 295.819 Z" fill="#000000" fill-rule="evenodd" fill-opacity="1" /><path clip-path="url(#clip760)" d="M1010.44 307.162 Q1009.72 306.745 1008.87 306.56 Q1008.03 306.352 1007.01 306.352 Q1003.4 306.352 1001.46 308.713 Q999.537 311.051 999.537 315.449 L999.537 329.106 L995.255 329.106 L995.255 303.18 L999.537 303.18 L999.537 307.208 Q1000.88 304.847 1003.03 303.713 Q1005.19 302.555 1008.26 302.555 Q1008.7 302.555 1009.24 302.625 Q1009.77 302.671 1010.42 302.787 L1010.44 307.162 Z" fill="#000000" fill-rule="evenodd" fill-opacity="1" /><path clip-path="url(#clip760)" d="M1026.69 316.074 Q1021.53 316.074 1019.54 317.254 Q1017.55 318.435 1017.55 321.282 Q1017.55 323.551 1019.03 324.893 Q1020.53 326.213 1023.1 326.213 Q1026.64 326.213 1028.77 323.713 Q1030.93 321.19 1030.93 317.023 L1030.93 316.074 L1026.69 316.074 M1035.19 314.315 L1035.19 329.106 L1030.93 329.106 L1030.93 325.171 Q1029.47 327.532 1027.29 328.666 Q1025.12 329.778 1021.97 329.778 Q1017.99 329.778 1015.63 327.555 Q1013.29 325.31 1013.29 321.56 Q1013.29 317.185 1016.2 314.963 Q1019.14 312.741 1024.95 312.741 L1030.93 312.741 L1030.93 312.324 Q1030.93 309.384 1028.98 307.787 Q1027.06 306.167 1023.57 306.167 Q1021.34 306.167 1019.24 306.699 Q1017.13 307.231 1015.19 308.296 L1015.19 304.361 Q1017.52 303.458 1019.72 303.018 Q1021.92 302.555 1024 302.555 Q1029.63 302.555 1032.41 305.472 Q1035.19 308.389 1035.19 314.315 Z" fill="#000000" fill-rule="evenodd" fill-opacity="1" /><path clip-path="url(#clip760)" d="M1060.49 303.944 L1060.49 307.972 Q1058.68 307.046 1056.74 306.583 Q1054.79 306.12 1052.71 306.12 Q1049.54 306.12 1047.94 307.093 Q1046.37 308.065 1046.37 310.009 Q1046.37 311.491 1047.5 312.347 Q1048.63 313.18 1052.06 313.944 L1053.52 314.268 Q1058.06 315.241 1059.95 317.023 Q1061.88 318.782 1061.88 321.954 Q1061.88 325.565 1059 327.671 Q1056.16 329.778 1051.16 329.778 Q1049.07 329.778 1046.81 329.361 Q1044.56 328.967 1042.06 328.157 L1042.06 323.759 Q1044.42 324.986 1046.71 325.611 Q1049 326.213 1051.25 326.213 Q1054.26 326.213 1055.88 325.194 Q1057.5 324.153 1057.5 322.278 Q1057.5 320.542 1056.32 319.616 Q1055.16 318.69 1051.2 317.833 L1049.72 317.486 Q1045.76 316.653 1044 314.94 Q1042.25 313.204 1042.25 310.194 Q1042.25 306.537 1044.84 304.546 Q1047.43 302.555 1052.2 302.555 Q1054.56 302.555 1056.64 302.903 Q1058.73 303.25 1060.49 303.944 Z" fill="#000000" fill-rule="evenodd" fill-opacity="1" /><polyline clip-path="url(#clip760)" style="stroke:#3da44d; stroke-linecap:butt; stroke-linejoin:round; stroke-width:4; stroke-opacity:1; fill:none" stroke-dasharray="16, 10" points="
  338.153,363.666 478.707,363.666 
  "/>
<path clip-path="url(#clip760)" d="M515.535 367.914 Q510.373 367.914 508.383 369.094 Q506.392 370.275 506.392 373.122 Q506.392 375.391 507.873 376.733 Q509.378 378.053 511.947 378.053 Q515.489 378.053 517.619 375.553 Q519.771 373.03 519.771 368.863 L519.771 367.914 L515.535 367.914 M524.031 366.155 L524.031 380.946 L519.771 380.946 L519.771 377.011 Q518.313 379.372 516.137 380.506 Q513.961 381.618 510.813 381.618 Q506.832 381.618 504.471 379.395 Q502.133 377.15 502.133 373.4 Q502.133 369.025 505.049 366.803 Q507.989 364.581 513.799 364.581 L519.771 364.581 L519.771 364.164 Q519.771 361.224 517.827 359.627 Q515.906 358.007 512.41 358.007 Q510.188 358.007 508.082 358.539 Q505.975 359.071 504.031 360.136 L504.031 356.201 Q506.369 355.298 508.568 354.858 Q510.767 354.395 512.85 354.395 Q518.475 354.395 521.253 357.312 Q524.031 360.229 524.031 366.155 Z" fill="#000000" fill-rule="evenodd" fill-opacity="1" /><path clip-path="url(#clip760)" d="M532.804 355.02 L537.063 355.02 L537.063 381.409 Q537.063 386.363 535.165 388.585 Q533.29 390.807 529.1 390.807 L527.48 390.807 L527.48 387.196 L528.614 387.196 Q531.045 387.196 531.924 386.062 Q532.804 384.951 532.804 381.409 L532.804 355.02 M532.804 344.928 L537.063 344.928 L537.063 350.321 L532.804 350.321 L532.804 344.928 Z" fill="#000000" fill-rule="evenodd" fill-opacity="1" /><path clip-path="url(#clip760)" d="M545.535 370.715 L545.535 355.02 L549.794 355.02 L549.794 370.553 Q549.794 374.233 551.23 376.085 Q552.665 377.914 555.535 377.914 Q558.984 377.914 560.975 375.715 Q562.989 373.516 562.989 369.719 L562.989 355.02 L567.248 355.02 L567.248 380.946 L562.989 380.946 L562.989 376.965 Q561.438 379.326 559.378 380.483 Q557.341 381.618 554.632 381.618 Q550.165 381.618 547.85 378.84 Q545.535 376.062 545.535 370.715 M556.253 354.395 L556.253 354.395 Z" fill="#000000" fill-rule="evenodd" fill-opacity="1" /><path clip-path="url(#clip760)" d="M592.549 355.784 L592.549 359.812 Q590.743 358.886 588.799 358.423 Q586.854 357.96 584.771 357.96 Q581.6 357.96 580.003 358.933 Q578.429 359.905 578.429 361.849 Q578.429 363.331 579.563 364.187 Q580.697 365.02 584.123 365.784 L585.581 366.108 Q590.118 367.081 592.016 368.863 Q593.938 370.622 593.938 373.794 Q593.938 377.405 591.067 379.511 Q588.22 381.618 583.22 381.618 Q581.137 381.618 578.868 381.201 Q576.623 380.807 574.123 379.997 L574.123 375.599 Q576.484 376.826 578.776 377.451 Q581.067 378.053 583.313 378.053 Q586.322 378.053 587.942 377.034 Q589.563 375.993 589.563 374.118 Q589.563 372.382 588.382 371.456 Q587.225 370.53 583.266 369.673 L581.785 369.326 Q577.827 368.493 576.067 366.78 Q574.308 365.044 574.308 362.034 Q574.308 358.377 576.901 356.386 Q579.493 354.395 584.262 354.395 Q586.623 354.395 588.706 354.743 Q590.79 355.09 592.549 355.784 Z" fill="#000000" fill-rule="evenodd" fill-opacity="1" /><path clip-path="url(#clip760)" d="M604.933 347.659 L604.933 355.02 L613.706 355.02 L613.706 358.331 L604.933 358.331 L604.933 372.405 Q604.933 375.576 605.789 376.479 Q606.669 377.381 609.331 377.381 L613.706 377.381 L613.706 380.946 L609.331 380.946 Q604.401 380.946 602.526 379.118 Q600.651 377.266 600.651 372.405 L600.651 358.331 L597.526 358.331 L597.526 355.02 L600.651 355.02 L600.651 347.659 L604.933 347.659 Z" fill="#000000" fill-rule="evenodd" fill-opacity="1" /><path clip-path="url(#clip760)" d="M641.484 366.919 L641.484 369.002 L621.901 369.002 Q622.178 373.4 624.539 375.715 Q626.924 378.006 631.16 378.006 Q633.613 378.006 635.905 377.405 Q638.22 376.803 640.488 375.599 L640.488 379.627 Q638.197 380.599 635.789 381.108 Q633.382 381.618 630.905 381.618 Q624.701 381.618 621.067 378.006 Q617.456 374.395 617.456 368.238 Q617.456 361.872 620.882 358.145 Q624.331 354.395 630.164 354.395 Q635.396 354.395 638.428 357.775 Q641.484 361.132 641.484 366.919 M637.225 365.669 Q637.178 362.173 635.257 360.09 Q633.359 358.007 630.211 358.007 Q626.646 358.007 624.493 360.02 Q622.363 362.034 622.039 365.692 L637.225 365.669 Z" fill="#000000" fill-rule="evenodd" fill-opacity="1" /><path clip-path="url(#clip760)" d="M663.544 344.928 L667.803 344.928 L667.803 380.946 L663.544 380.946 L663.544 344.928 Z" fill="#000000" fill-rule="evenodd" fill-opacity="1" /><path clip-path="url(#clip760)" d="M676.715 355.02 L680.974 355.02 L680.974 380.946 L676.715 380.946 L676.715 355.02 M676.715 344.928 L680.974 344.928 L680.974 350.321 L676.715 350.321 L676.715 344.928 Z" fill="#000000" fill-rule="evenodd" fill-opacity="1" /><path clip-path="url(#clip760)" d="M711.437 365.298 L711.437 380.946 L707.178 380.946 L707.178 365.437 Q707.178 361.757 705.743 359.928 Q704.307 358.099 701.437 358.099 Q697.988 358.099 695.997 360.298 Q694.007 362.497 694.007 366.294 L694.007 380.946 L689.724 380.946 L689.724 355.02 L694.007 355.02 L694.007 359.048 Q695.534 356.71 697.595 355.553 Q699.678 354.395 702.386 354.395 Q706.854 354.395 709.145 357.173 Q711.437 359.928 711.437 365.298 Z" fill="#000000" fill-rule="evenodd" fill-opacity="1" /><path clip-path="url(#clip760)" d="M742.108 366.919 L742.108 369.002 L722.525 369.002 Q722.803 373.4 725.164 375.715 Q727.548 378.006 731.784 378.006 Q734.238 378.006 736.53 377.405 Q738.844 376.803 741.113 375.599 L741.113 379.627 Q738.821 380.599 736.414 381.108 Q734.006 381.618 731.53 381.618 Q725.326 381.618 721.692 378.006 Q718.081 374.395 718.081 368.238 Q718.081 361.872 721.506 358.145 Q724.956 354.395 730.789 354.395 Q736.02 354.395 739.053 357.775 Q742.108 361.132 742.108 366.919 M737.849 365.669 Q737.803 362.173 735.881 360.09 Q733.983 358.007 730.835 358.007 Q727.27 358.007 725.118 360.02 Q722.988 362.034 722.664 365.692 L737.849 365.669 Z" fill="#000000" fill-rule="evenodd" fill-opacity="1" /><path clip-path="url(#clip760)" d="M760.881 367.914 Q755.719 367.914 753.729 369.094 Q751.738 370.275 751.738 373.122 Q751.738 375.391 753.219 376.733 Q754.724 378.053 757.293 378.053 Q760.835 378.053 762.965 375.553 Q765.117 373.03 765.117 368.863 L765.117 367.914 L760.881 367.914 M769.377 366.155 L769.377 380.946 L765.117 380.946 L765.117 377.011 Q763.659 379.372 761.483 380.506 Q759.307 381.618 756.159 381.618 Q752.178 381.618 749.816 379.395 Q747.479 377.15 747.479 373.4 Q747.479 369.025 750.395 366.803 Q753.335 364.581 759.145 364.581 L765.117 364.581 L765.117 364.164 Q765.117 361.224 763.173 359.627 Q761.252 358.007 757.756 358.007 Q755.534 358.007 753.428 358.539 Q751.321 359.071 749.377 360.136 L749.377 356.201 Q751.715 355.298 753.914 354.858 Q756.113 354.395 758.196 354.395 Q763.821 354.395 766.599 357.312 Q769.377 360.229 769.377 366.155 Z" fill="#000000" fill-rule="evenodd" fill-opacity="1" /><path clip-path="url(#clip760)" d="M793.173 359.002 Q792.455 358.585 791.599 358.4 Q790.765 358.192 789.747 358.192 Q786.136 358.192 784.191 360.553 Q782.27 362.891 782.27 367.289 L782.27 380.946 L777.988 380.946 L777.988 355.02 L782.27 355.02 L782.27 359.048 Q783.613 356.687 785.765 355.553 Q787.918 354.395 790.997 354.395 Q791.437 354.395 791.969 354.465 Q792.501 354.511 793.15 354.627 L793.173 359.002 Z" fill="#000000" fill-rule="evenodd" fill-opacity="1" /></svg>
