<?xml version="1.0" encoding="utf-8"?>
<svg xmlns="http://www.w3.org/2000/svg" xmlns:xlink="http://www.w3.org/1999/xlink" width="600" height="400" viewBox="0 0 2400 1600">
<defs>
  <clipPath id="clip360">
    <rect x="0" y="0" width="2400" height="1600"/>
  </clipPath>
</defs>
<path clip-path="url(#clip360)" d="M0 1600 L2400 1600 L2400 0 L0 0  Z" fill="#ffffff" fill-rule="evenodd" fill-opacity="1"/>
<defs>
  <clipPath id="clip361">
    <rect x="480" y="0" width="1681" height="1600"/>
  </clipPath>
</defs>
<path clip-path="url(#clip360)" d="M193.936 1486.45 L2352.76 1486.45 L2352.76 106.192 L193.936 106.192  Z" fill="#eaeaea" fill-rule="evenodd" fill-opacity="1"/>
<defs>
  <clipPath id="clip362">
    <rect x="193" y="106" width="2160" height="1381"/>
  </clipPath>
</defs>
<polyline clip-path="url(#clip362)" style="stroke:#ffffff; stroke-linecap:round; stroke-linejoin:round; stroke-width:4; stroke-opacity:1; fill:none" points="255.035,1486.45 255.035,106.192 "/>
<polyline clip-path="url(#clip362)" style="stroke:#ffffff; stroke-linecap:round; stroke-linejoin:round; stroke-width:4; stroke-opacity:1; fill:none" points="764.19,1486.45 764.19,106.192 "/>
<polyline clip-path="url(#clip362)" style="stroke:#ffffff; stroke-linecap:round; stroke-linejoin:round; stroke-width:4; stroke-opacity:1; fill:none" points="1273.35,1486.45 1273.35,106.192 "/>
<polyline clip-path="url(#clip362)" style="stroke:#ffffff; stroke-linecap:round; stroke-linejoin:round; stroke-width:4; stroke-opacity:1; fill:none" points="1782.5,1486.45 1782.5,106.192 "/>
<polyline clip-path="url(#clip362)" style="stroke:#ffffff; stroke-linecap:round; stroke-linejoin:round; stroke-width:4; stroke-opacity:1; fill:none" points="2291.66,1486.45 2291.66,106.192 "/>
<polyline clip-path="url(#clip362)" style="stroke:#ffffff; stroke-linecap:round; stroke-linejoin:round; stroke-width:2; stroke-opacity:1; fill:none" points="509.612,1486.45 509.612,106.192 "/>
<polyline clip-path="url(#clip362)" style="stroke:#ffffff; stroke-linecap:round; stroke-linejoin:round; stroke-width:2; stroke-opacity:1; fill:none" points="1018.77,1486.45 1018.77,106.192 "/>
<polyline clip-path="url(#clip362)" style="stroke:#ffffff; stroke-linecap:round; stroke-linejoin:round; stroke-width:2; stroke-opacity:1; fill:none" points="1527.92,1486.45 1527.92,106.192 "/>
<polyline clip-path="url(#clip362)" style="stroke:#ffffff; stroke-linecap:round; stroke-linejoin:round; stroke-width:2; stroke-opacity:1; fill:none" points="2037.08,1486.45 2037.08,106.192 "/>
<polyline clip-path="url(#clip360)" style="stroke:#ffffff; stroke-linecap:round; stroke-linejoin:round; stroke-width:4; stroke-opacity:1; fill:none" points="193.936,1486.45 2352.76,1486.45 "/>
<polyline clip-path="url(#clip360)" style="stroke:#333333; stroke-linecap:round; stroke-linejoin:round; stroke-width:4; stroke-opacity:1; fill:none" points="255.035,1486.45 255.035,1505.35 "/>
<polyline clip-path="url(#clip360)" style="stroke:#333333; stroke-linecap:round; stroke-linejoin:round; stroke-width:4; stroke-opacity:1; fill:none" points="764.19,1486.45 764.19,1505.35 "/>
<polyline clip-path="url(#clip360)" style="stroke:#333333; stroke-linecap:round; stroke-linejoin:round; stroke-width:4; stroke-opacity:1; fill:none" points="1273.35,1486.45 1273.35,1505.35 "/>
<polyline clip-path="url(#clip360)" style="stroke:#333333; stroke-linecap:round; stroke-linejoin:round; stroke-width:4; stroke-opacity:1; fill:none" points="1782.5,1486.45 1782.5,1505.35 "/>
<polyline clip-path="url(#clip360)" style="stroke:#333333; stroke-linecap:round; stroke-linejoin:round; stroke-width:4; stroke-opacity:1; fill:none" points="2291.66,1486.45 2291.66,1505.35 "/>
<polyline clip-path="url(#clip360)" style="stroke:#333333; stroke-linecap:round; stroke-linejoin:round; stroke-width:4; stroke-opacity:1; fill:none" points="509.612,1486.45 509.612,1495.9 "/>
<polyline clip-path="url(#clip360)" style="stroke:#333333; stroke-linecap:round; stroke-linejoin:round; stroke-width:4; stroke-opacity:1; fill:none" points="1018.77,1486.45 1018.77,1495.9 "/>
<polyline clip-path="url(#clip360)" style="stroke:#333333; stroke-linecap:round; stroke-linejoin:round; stroke-width:4; stroke-opacity:1; fill:none" points="1527.92,1486.45 1527.92,1495.9 "/>
<polyline clip-path="url(#clip360)" style="stroke:#333333; stroke-linecap:round; stroke-linejoin:round; stroke-width:4; stroke-opacity:1; fill:none" points="2037.08,1486.45 2037.08,1495.9 "/>
<path clip-path="url(#clip360)" d="M232.419 1526.97 Q228.808 1526.97 226.979 1530.53 Q225.174 1534.07 225.174 1541.2 Q225.174 1548.31 226.979 1551.87 Q228.808 1555.42 232.419 1555.42 Q236.053 1555.42 237.859 1551.87 Q239.688 1548.31 239.688 1541.2 Q239.688 1534.07 237.859 1530.53 Q236.053 1526.97 232.419 1526.97 M232.419 1523.26 Q238.229 1523.26 241.285 1527.87 Q244.363 1532.45 244.363 1541.2 Q244.363 1549.93 241.285 1554.54 Q238.229 1559.12 232.419 1559.12 Q226.609 1559.12 223.53 1554.54 Q220.475 1549.93 220.475 1541.2 Q220.475 1532.45 223.53 1527.87 Q226.609 1523.26 232.419 1523.26 Z" fill="#4c4c4c" fill-rule="nonzero" fill-opacity="1" /><path clip-path="url(#clip360)" d="M252.581 1552.57 L257.465 1552.57 L257.465 1558.45 L252.581 1558.45 L252.581 1552.57 Z" fill="#4c4c4c" fill-rule="nonzero" fill-opacity="1" /><path clip-path="url(#clip360)" d="M277.65 1526.97 Q274.039 1526.97 272.211 1530.53 Q270.405 1534.07 270.405 1541.2 Q270.405 1548.31 272.211 1551.87 Q274.039 1555.42 277.65 1555.42 Q281.285 1555.42 283.09 1551.87 Q284.919 1548.31 284.919 1541.2 Q284.919 1534.07 283.09 1530.53 Q281.285 1526.97 277.65 1526.97 M277.65 1523.26 Q283.46 1523.26 286.516 1527.87 Q289.595 1532.45 289.595 1541.2 Q289.595 1549.93 286.516 1554.54 Q283.46 1559.12 277.65 1559.12 Q271.84 1559.12 268.761 1554.54 Q265.706 1549.93 265.706 1541.2 Q265.706 1532.45 268.761 1527.87 Q271.84 1523.26 277.65 1523.26 Z" fill="#4c4c4c" fill-rule="nonzero" fill-opacity="1" /><path clip-path="url(#clip360)" d="M735.927 1554.51 L752.246 1554.51 L752.246 1558.45 L730.302 1558.45 L730.302 1554.51 Q732.964 1551.76 737.547 1547.13 Q742.153 1542.48 743.334 1541.13 Q745.579 1538.61 746.459 1536.87 Q747.362 1535.11 747.362 1533.42 Q747.362 1530.67 745.417 1528.93 Q743.496 1527.2 740.394 1527.2 Q738.195 1527.2 735.741 1527.96 Q733.311 1528.73 730.533 1530.28 L730.533 1525.55 Q733.357 1524.42 735.811 1523.84 Q738.265 1523.26 740.302 1523.26 Q745.672 1523.26 748.866 1525.95 Q752.061 1528.63 752.061 1533.12 Q752.061 1535.25 751.251 1537.17 Q750.464 1539.07 748.357 1541.67 Q747.778 1542.34 744.677 1545.55 Q741.575 1548.75 735.927 1554.51 Z" fill="#4c4c4c" fill-rule="nonzero" fill-opacity="1" /><path clip-path="url(#clip360)" d="M762.061 1552.57 L766.945 1552.57 L766.945 1558.45 L762.061 1558.45 L762.061 1552.57 Z" fill="#4c4c4c" fill-rule="nonzero" fill-opacity="1" /><path clip-path="url(#clip360)" d="M777.176 1523.89 L795.533 1523.89 L795.533 1527.82 L781.459 1527.82 L781.459 1536.3 Q782.477 1535.95 783.496 1535.79 Q784.514 1535.6 785.533 1535.6 Q791.32 1535.6 794.699 1538.77 Q798.079 1541.94 798.079 1547.36 Q798.079 1552.94 794.607 1556.04 Q791.135 1559.12 784.815 1559.12 Q782.639 1559.12 780.371 1558.75 Q778.125 1558.38 775.718 1557.64 L775.718 1552.94 Q777.801 1554.07 780.024 1554.63 Q782.246 1555.18 784.723 1555.18 Q788.727 1555.18 791.065 1553.08 Q793.403 1550.97 793.403 1547.36 Q793.403 1543.75 791.065 1541.64 Q788.727 1539.54 784.723 1539.54 Q782.848 1539.54 780.973 1539.95 Q779.121 1540.37 777.176 1541.25 L777.176 1523.89 Z" fill="#4c4c4c" fill-rule="nonzero" fill-opacity="1" /><path clip-path="url(#clip360)" d="M1240.51 1523.89 L1258.87 1523.89 L1258.87 1527.82 L1244.79 1527.82 L1244.79 1536.3 Q1245.81 1535.95 1246.83 1535.79 Q1247.85 1535.6 1248.87 1535.6 Q1254.65 1535.6 1258.03 1538.77 Q1261.41 1541.94 1261.41 1547.36 Q1261.41 1552.94 1257.94 1556.04 Q1254.47 1559.12 1248.15 1559.12 Q1245.97 1559.12 1243.7 1558.75 Q1241.46 1558.38 1239.05 1557.64 L1239.05 1552.94 Q1241.14 1554.07 1243.36 1554.63 Q1245.58 1555.18 1248.06 1555.18 Q1252.06 1555.18 1254.4 1553.08 Q1256.74 1550.97 1256.74 1547.36 Q1256.74 1543.75 1254.4 1541.64 Q1252.06 1539.54 1248.06 1539.54 Q1246.18 1539.54 1244.31 1539.95 Q1242.45 1540.37 1240.51 1541.25 L1240.51 1523.89 Z" fill="#4c4c4c" fill-rule="nonzero" fill-opacity="1" /><path clip-path="url(#clip360)" d="M1270.63 1552.57 L1275.51 1552.57 L1275.51 1558.45 L1270.63 1558.45 L1270.63 1552.57 Z" fill="#4c4c4c" fill-rule="nonzero" fill-opacity="1" /><path clip-path="url(#clip360)" d="M1295.7 1526.97 Q1292.08 1526.97 1290.26 1530.53 Q1288.45 1534.07 1288.45 1541.2 Q1288.45 1548.31 1290.26 1551.87 Q1292.08 1555.42 1295.7 1555.42 Q1299.33 1555.42 1301.14 1551.87 Q1302.96 1548.31 1302.96 1541.2 Q1302.96 1534.07 1301.14 1530.53 Q1299.33 1526.97 1295.7 1526.97 M1295.7 1523.26 Q1301.51 1523.26 1304.56 1527.87 Q1307.64 1532.45 1307.64 1541.2 Q1307.64 1549.93 1304.56 1554.54 Q1301.51 1559.12 1295.7 1559.12 Q1289.89 1559.12 1286.81 1554.54 Q1283.75 1549.93 1283.75 1541.2 Q1283.75 1532.45 1286.81 1527.87 Q1289.89 1523.26 1295.7 1523.26 Z" fill="#4c4c4c" fill-rule="nonzero" fill-opacity="1" /><path clip-path="url(#clip360)" d="M1748.82 1523.89 L1771.04 1523.89 L1771.04 1525.88 L1758.5 1558.45 L1753.61 1558.45 L1765.42 1527.82 L1748.82 1527.82 L1748.82 1523.89 Z" fill="#4c4c4c" fill-rule="nonzero" fill-opacity="1" /><path clip-path="url(#clip360)" d="M1780.16 1552.57 L1785.05 1552.57 L1785.05 1558.45 L1780.16 1558.45 L1780.16 1552.57 Z" fill="#4c4c4c" fill-rule="nonzero" fill-opacity="1" /><path clip-path="url(#clip360)" d="M1795.28 1523.89 L1813.64 1523.89 L1813.64 1527.82 L1799.56 1527.82 L1799.56 1536.3 Q1800.58 1535.95 1801.6 1535.79 Q1802.62 1535.6 1803.64 1535.6 Q1809.42 1535.6 1812.8 1538.77 Q1816.18 1541.94 1816.18 1547.36 Q1816.18 1552.94 1812.71 1556.04 Q1809.24 1559.12 1802.92 1559.12 Q1800.74 1559.12 1798.47 1558.75 Q1796.23 1558.38 1793.82 1557.64 L1793.82 1552.94 Q1795.9 1554.07 1798.13 1554.63 Q1800.35 1555.18 1802.83 1555.18 Q1806.83 1555.18 1809.17 1553.08 Q1811.51 1550.97 1811.51 1547.36 Q1811.51 1543.75 1809.17 1541.64 Q1806.83 1539.54 1802.83 1539.54 Q1800.95 1539.54 1799.08 1539.95 Q1797.22 1540.37 1795.28 1541.25 L1795.28 1523.89 Z" fill="#4c4c4c" fill-rule="nonzero" fill-opacity="1" /><path clip-path="url(#clip360)" d="M2243.73 1554.51 L2251.37 1554.51 L2251.37 1528.15 L2243.06 1529.81 L2243.06 1525.55 L2251.32 1523.89 L2256 1523.89 L2256 1554.51 L2263.64 1554.51 L2263.64 1558.45 L2243.73 1558.45 L2243.73 1554.51 Z" fill="#4c4c4c" fill-rule="nonzero" fill-opacity="1" /><path clip-path="url(#clip360)" d="M2283.08 1526.97 Q2279.47 1526.97 2277.64 1530.53 Q2275.84 1534.07 2275.84 1541.2 Q2275.84 1548.31 2277.64 1551.87 Q2279.47 1555.42 2283.08 1555.42 Q2286.72 1555.42 2288.52 1551.87 Q2290.35 1548.31 2290.35 1541.2 Q2290.35 1534.07 2288.52 1530.53 Q2286.72 1526.97 2283.08 1526.97 M2283.08 1523.26 Q2288.89 1523.26 2291.95 1527.87 Q2295.03 1532.45 2295.03 1541.2 Q2295.03 1549.93 2291.95 1554.54 Q2288.89 1559.12 2283.08 1559.12 Q2277.27 1559.12 2274.19 1554.54 Q2271.14 1549.93 2271.14 1541.2 Q2271.14 1532.45 2274.19 1527.87 Q2277.27 1523.26 2283.08 1523.26 Z" fill="#4c4c4c" fill-rule="nonzero" fill-opacity="1" /><path clip-path="url(#clip360)" d="M2303.24 1552.57 L2308.13 1552.57 L2308.13 1558.45 L2303.24 1558.45 L2303.24 1552.57 Z" fill="#4c4c4c" fill-rule="nonzero" fill-opacity="1" /><path clip-path="url(#clip360)" d="M2328.31 1526.97 Q2324.7 1526.97 2322.87 1530.53 Q2321.07 1534.07 2321.07 1541.2 Q2321.07 1548.31 2322.87 1551.87 Q2324.7 1555.42 2328.31 1555.42 Q2331.95 1555.42 2333.75 1551.87 Q2335.58 1548.31 2335.58 1541.2 Q2335.58 1534.07 2333.75 1530.53 Q2331.95 1526.97 2328.31 1526.97 M2328.31 1523.26 Q2334.12 1523.26 2337.18 1527.87 Q2340.26 1532.45 2340.26 1541.2 Q2340.26 1549.93 2337.18 1554.54 Q2334.12 1559.12 2328.31 1559.12 Q2322.5 1559.12 2319.42 1554.54 Q2316.37 1549.93 2316.37 1541.2 Q2316.37 1532.45 2319.42 1527.87 Q2322.5 1523.26 2328.31 1523.26 Z" fill="#4c4c4c" fill-rule="nonzero" fill-opacity="1" /><polyline clip-path="url(#clip362)" style="stroke:#ffffff; stroke-linecap:round; stroke-linejoin:round; stroke-width:4; stroke-opacity:1; fill:none" points="193.936,1447.38 2352.76,1447.38 "/>
<polyline clip-path="url(#clip362)" style="stroke:#ffffff; stroke-linecap:round; stroke-linejoin:round; stroke-width:4; stroke-opacity:1; fill:none" points="193.936,1121.85 2352.76,1121.85 "/>
<polyline clip-path="url(#clip362)" style="stroke:#ffffff; stroke-linecap:round; stroke-linejoin:round; stroke-width:4; stroke-opacity:1; fill:none" points="193.936,796.319 2352.76,796.319 "/>
<polyline clip-path="url(#clip362)" style="stroke:#ffffff; stroke-linecap:round; stroke-linejoin:round; stroke-width:4; stroke-opacity:1; fill:none" points="193.936,470.787 2352.76,470.787 "/>
<polyline clip-path="url(#clip362)" style="stroke:#ffffff; stroke-linecap:round; stroke-linejoin:round; stroke-width:4; stroke-opacity:1; fill:none" points="193.936,145.254 2352.76,145.254 "/>
<polyline clip-path="url(#clip362)" style="stroke:#ffffff; stroke-linecap:round; stroke-linejoin:round; stroke-width:2; stroke-opacity:1; fill:none" points="193.936,1284.62 2352.76,1284.62 "/>
<polyline clip-path="url(#clip362)" style="stroke:#ffffff; stroke-linecap:round; stroke-linejoin:round; stroke-width:2; stroke-opacity:1; fill:none" points="193.936,959.085 2352.76,959.085 "/>
<polyline clip-path="url(#clip362)" style="stroke:#ffffff; stroke-linecap:round; stroke-linejoin:round; stroke-width:2; stroke-opacity:1; fill:none" points="193.936,633.553 2352.76,633.553 "/>
<polyline clip-path="url(#clip362)" style="stroke:#ffffff; stroke-linecap:round; stroke-linejoin:round; stroke-width:2; stroke-opacity:1; fill:none" points="193.936,308.021 2352.76,308.021 "/>
<polyline clip-path="url(#clip360)" style="stroke:#ffffff; stroke-linecap:round; stroke-linejoin:round; stroke-width:4; stroke-opacity:1; fill:none" points="193.936,1486.45 193.936,106.192 "/>
<polyline clip-path="url(#clip360)" style="stroke:#333333; stroke-linecap:round; stroke-linejoin:round; stroke-width:4; stroke-opacity:1; fill:none" points="193.936,1447.38 175.038,1447.38 "/>
<polyline clip-path="url(#clip360)" style="stroke:#333333; stroke-linecap:round; stroke-linejoin:round; stroke-width:4; stroke-opacity:1; fill:none" points="193.936,1121.85 175.038,1121.85 "/>
<polyline clip-path="url(#clip360)" style="stroke:#333333; stroke-linecap:round; stroke-linejoin:round; stroke-width:4; stroke-opacity:1; fill:none" points="193.936,796.319 175.038,796.319 "/>
<polyline clip-path="url(#clip360)" style="stroke:#333333; stroke-linecap:round; stroke-linejoin:round; stroke-width:4; stroke-opacity:1; fill:none" points="193.936,470.787 175.038,470.787 "/>
<polyline clip-path="url(#clip360)" style="stroke:#333333; stroke-linecap:round; stroke-linejoin:round; stroke-width:4; stroke-opacity:1; fill:none" points="193.936,145.254 175.038,145.254 "/>
<polyline clip-path="url(#clip360)" style="stroke:#333333; stroke-linecap:round; stroke-linejoin:round; stroke-width:4; stroke-opacity:1; fill:none" points="193.936,1284.62 184.487,1284.62 "/>
<polyline clip-path="url(#clip360)" style="stroke:#333333; stroke-linecap:round; stroke-linejoin:round; stroke-width:4; stroke-opacity:1; fill:none" points="193.936,959.085 184.487,959.085 "/>
<polyline clip-path="url(#clip360)" style="stroke:#333333; stroke-linecap:round; stroke-linejoin:round; stroke-width:4; stroke-opacity:1; fill:none" points="193.936,633.553 184.487,633.553 "/>
<polyline clip-path="url(#clip360)" style="stroke:#333333; stroke-linecap:round; stroke-linejoin:round; stroke-width:4; stroke-opacity:1; fill:none" points="193.936,308.021 184.487,308.021 "/>
<path clip-path="url(#clip360)" d="M32.9921 1447.84 L62.6679 1447.84 L62.6679 1451.77 L32.9921 1451.77 L32.9921 1447.84 Z" fill="#4c4c4c" fill-rule="nonzero" fill-opacity="1" /><path clip-path="url(#clip360)" d="M73.5706 1460.73 L81.2095 1460.73 L81.2095 1434.36 L72.8993 1436.03 L72.8993 1431.77 L81.1632 1430.1 L85.8391 1430.1 L85.8391 1460.73 L93.4779 1460.73 L93.4779 1464.66 L73.5706 1464.66 L73.5706 1460.73 Z" fill="#4c4c4c" fill-rule="nonzero" fill-opacity="1" /><path clip-path="url(#clip360)" d="M102.922 1458.78 L107.807 1458.78 L107.807 1464.66 L102.922 1464.66 L102.922 1458.78 Z" fill="#4c4c4c" fill-rule="nonzero" fill-opacity="1" /><path clip-path="url(#clip360)" d="M127.992 1433.18 Q124.381 1433.18 122.552 1436.75 Q120.746 1440.29 120.746 1447.42 Q120.746 1454.53 122.552 1458.09 Q124.381 1461.63 127.992 1461.63 Q131.626 1461.63 133.431 1458.09 Q135.26 1454.53 135.26 1447.42 Q135.26 1440.29 133.431 1436.75 Q131.626 1433.18 127.992 1433.18 M127.992 1429.48 Q133.802 1429.48 136.857 1434.09 Q139.936 1438.67 139.936 1447.42 Q139.936 1456.15 136.857 1460.75 Q133.802 1465.34 127.992 1465.34 Q122.181 1465.34 119.103 1460.75 Q116.047 1456.15 116.047 1447.42 Q116.047 1438.67 119.103 1434.09 Q122.181 1429.48 127.992 1429.48 Z" fill="#4c4c4c" fill-rule="nonzero" fill-opacity="1" /><path clip-path="url(#clip360)" d="M33.9875 1122.3 L63.6633 1122.3 L63.6633 1126.24 L33.9875 1126.24 L33.9875 1122.3 Z" fill="#4c4c4c" fill-rule="nonzero" fill-opacity="1" /><path clip-path="url(#clip360)" d="M83.7557 1107.65 Q80.1447 1107.65 78.316 1111.22 Q76.5104 1114.76 76.5104 1121.89 Q76.5104 1128.99 78.316 1132.56 Q80.1447 1136.1 83.7557 1136.1 Q87.39 1136.1 89.1955 1132.56 Q91.0242 1128.99 91.0242 1121.89 Q91.0242 1114.76 89.1955 1111.22 Q87.39 1107.65 83.7557 1107.65 M83.7557 1103.95 Q89.5659 1103.95 92.6214 1108.55 Q95.7001 1113.14 95.7001 1121.89 Q95.7001 1130.61 92.6214 1135.22 Q89.5659 1139.8 83.7557 1139.8 Q77.9456 1139.8 74.8669 1135.22 Q71.8114 1130.61 71.8114 1121.89 Q71.8114 1113.14 74.8669 1108.55 Q77.9456 1103.95 83.7557 1103.95 Z" fill="#4c4c4c" fill-rule="nonzero" fill-opacity="1" /><path clip-path="url(#clip360)" d="M103.918 1133.25 L108.802 1133.25 L108.802 1139.13 L103.918 1139.13 L103.918 1133.25 Z" fill="#4c4c4c" fill-rule="nonzero" fill-opacity="1" /><path clip-path="url(#clip360)" d="M119.033 1104.57 L137.39 1104.57 L137.39 1108.51 L123.316 1108.51 L123.316 1116.98 Q124.334 1116.63 125.353 1116.47 Q126.371 1116.28 127.39 1116.28 Q133.177 1116.28 136.556 1119.46 Q139.936 1122.63 139.936 1128.04 Q139.936 1133.62 136.464 1136.72 Q132.992 1139.8 126.672 1139.8 Q124.496 1139.8 122.228 1139.43 Q119.982 1139.06 117.575 1138.32 L117.575 1133.62 Q119.658 1134.76 121.881 1135.31 Q124.103 1135.87 126.58 1135.87 Q130.584 1135.87 132.922 1133.76 Q135.26 1131.65 135.26 1128.04 Q135.26 1124.43 132.922 1122.33 Q130.584 1120.22 126.58 1120.22 Q124.705 1120.22 122.83 1120.64 Q120.978 1121.05 119.033 1121.93 L119.033 1104.57 Z" fill="#4c4c4c" fill-rule="nonzero" fill-opacity="1" /><path clip-path="url(#clip360)" d="M82.7604 782.118 Q79.1493 782.118 77.3206 785.683 Q75.515 789.224 75.515 796.354 Q75.515 803.46 77.3206 807.025 Q79.1493 810.567 82.7604 810.567 Q86.3946 810.567 88.2002 807.025 Q90.0289 803.46 90.0289 796.354 Q90.0289 789.224 88.2002 785.683 Q86.3946 782.118 82.7604 782.118 M82.7604 778.414 Q88.5705 778.414 91.6261 783.021 Q94.7048 787.604 94.7048 796.354 Q94.7048 805.081 91.6261 809.687 Q88.5705 814.271 82.7604 814.271 Q76.9502 814.271 73.8715 809.687 Q70.816 805.081 70.816 796.354 Q70.816 787.604 73.8715 783.021 Q76.9502 778.414 82.7604 778.414 Z" fill="#4c4c4c" fill-rule="nonzero" fill-opacity="1" /><path clip-path="url(#clip360)" d="M102.922 807.72 L107.807 807.72 L107.807 813.599 L102.922 813.599 L102.922 807.72 Z" fill="#4c4c4c" fill-rule="nonzero" fill-opacity="1" /><path clip-path="url(#clip360)" d="M127.992 782.118 Q124.381 782.118 122.552 785.683 Q120.746 789.224 120.746 796.354 Q120.746 803.46 122.552 807.025 Q124.381 810.567 127.992 810.567 Q131.626 810.567 133.431 807.025 Q135.26 803.46 135.26 796.354 Q135.26 789.224 133.431 785.683 Q131.626 782.118 127.992 782.118 M127.992 778.414 Q133.802 778.414 136.857 783.021 Q139.936 787.604 139.936 796.354 Q139.936 805.081 136.857 809.687 Q133.802 814.271 127.992 814.271 Q122.181 814.271 119.103 809.687 Q116.047 805.081 116.047 796.354 Q116.047 787.604 119.103 783.021 Q122.181 778.414 127.992 778.414 Z" fill="#4c4c4c" fill-rule="nonzero" fill-opacity="1" /><path clip-path="url(#clip360)" d="M83.7557 456.585 Q80.1447 456.585 78.316 460.15 Q76.5104 463.692 76.5104 470.821 Q76.5104 477.928 78.316 481.493 Q80.1447 485.034 83.7557 485.034 Q87.39 485.034 89.1955 481.493 Q91.0242 477.928 91.0242 470.821 Q91.0242 463.692 89.1955 460.15 Q87.39 456.585 83.7557 456.585 M83.7557 452.882 Q89.5659 452.882 92.6214 457.488 Q95.7001 462.072 95.7001 470.821 Q95.7001 479.548 92.6214 484.155 Q89.5659 488.738 83.7557 488.738 Q77.9456 488.738 74.8669 484.155 Q71.8114 479.548 71.8114 470.821 Q71.8114 462.072 74.8669 457.488 Q77.9456 452.882 83.7557 452.882 Z" fill="#4c4c4c" fill-rule="nonzero" fill-opacity="1" /><path clip-path="url(#clip360)" d="M103.918 482.187 L108.802 482.187 L108.802 488.067 L103.918 488.067 L103.918 482.187 Z" fill="#4c4c4c" fill-rule="nonzero" fill-opacity="1" /><path clip-path="url(#clip360)" d="M119.033 453.507 L137.39 453.507 L137.39 457.442 L123.316 457.442 L123.316 465.914 Q124.334 465.567 125.353 465.405 Q126.371 465.22 127.39 465.22 Q133.177 465.22 136.556 468.391 Q139.936 471.562 139.936 476.979 Q139.936 482.558 136.464 485.659 Q132.992 488.738 126.672 488.738 Q124.496 488.738 122.228 488.368 Q119.982 487.997 117.575 487.257 L117.575 482.558 Q119.658 483.692 121.881 484.247 Q124.103 484.803 126.58 484.803 Q130.584 484.803 132.922 482.696 Q135.26 480.59 135.26 476.979 Q135.26 473.368 132.922 471.261 Q130.584 469.155 126.58 469.155 Q124.705 469.155 122.83 469.571 Q120.978 469.988 119.033 470.868 L119.033 453.507 Z" fill="#4c4c4c" fill-rule="nonzero" fill-opacity="1" /><path clip-path="url(#clip360)" d="M73.5706 158.599 L81.2095 158.599 L81.2095 132.234 L72.8993 133.9 L72.8993 129.641 L81.1632 127.974 L85.8391 127.974 L85.8391 158.599 L93.4779 158.599 L93.4779 162.534 L73.5706 162.534 L73.5706 158.599 Z" fill="#4c4c4c" fill-rule="nonzero" fill-opacity="1" /><path clip-path="url(#clip360)" d="M102.922 156.655 L107.807 156.655 L107.807 162.534 L102.922 162.534 L102.922 156.655 Z" fill="#4c4c4c" fill-rule="nonzero" fill-opacity="1" /><path clip-path="url(#clip360)" d="M127.992 131.053 Q124.381 131.053 122.552 134.618 Q120.746 138.159 120.746 145.289 Q120.746 152.395 122.552 155.96 Q124.381 159.502 127.992 159.502 Q131.626 159.502 133.431 155.96 Q135.26 152.395 135.26 145.289 Q135.26 138.159 133.431 134.618 Q131.626 131.053 127.992 131.053 M127.992 127.349 Q133.802 127.349 136.857 131.956 Q139.936 136.539 139.936 145.289 Q139.936 154.016 136.857 158.622 Q133.802 163.206 127.992 163.206 Q122.181 163.206 119.103 158.622 Q116.047 154.016 116.047 145.289 Q116.047 136.539 119.103 131.956 Q122.181 127.349 127.992 127.349 Z" fill="#4c4c4c" fill-rule="nonzero" fill-opacity="1" /><path clip-path="url(#clip360)" d="M378.648 13.2397 L378.648 19.4029 Q375.697 16.654 372.341 15.2941 Q369.013 13.9342 365.251 13.9342 Q357.844 13.9342 353.909 18.477 Q349.974 22.9908 349.974 31.5556 Q349.974 40.0914 353.909 44.6342 Q357.844 49.1481 365.251 49.1481 Q369.013 49.1481 372.341 47.7881 Q375.697 46.4282 378.648 43.6794 L378.648 49.7847 Q375.581 51.868 372.138 52.9096 Q368.724 53.9513 364.904 53.9513 Q355.095 53.9513 349.453 47.9618 Q343.811 41.9433 343.811 31.5556 Q343.811 21.139 349.453 15.1494 Q355.095 9.13094 364.904 9.13094 Q368.782 9.13094 372.196 10.1726 Q375.639 11.1853 378.648 13.2397 Z" fill="#000000" fill-rule="nonzero" fill-opacity="1" /><path clip-path="url(#clip360)" d="M402.173 36.8218 Q395.72 36.8218 393.232 38.2975 Q390.743 39.7731 390.743 43.3321 Q390.743 46.1678 392.595 47.846 Q394.476 49.4953 397.688 49.4953 Q402.115 49.4953 404.777 46.3703 Q407.468 43.2164 407.468 38.0081 L407.468 36.8218 L402.173 36.8218 M412.792 34.6227 L412.792 53.1122 L407.468 53.1122 L407.468 48.1932 Q405.645 51.1446 402.925 52.5624 Q400.205 53.9513 396.27 53.9513 Q391.293 53.9513 388.342 51.1735 Q385.419 48.3668 385.419 43.6794 Q385.419 38.2106 389.065 35.4329 Q392.74 32.6551 400.002 32.6551 L407.468 32.6551 L407.468 32.1343 Q407.468 28.4595 405.037 26.463 Q402.636 24.4376 398.266 24.4376 Q395.489 24.4376 392.856 25.1031 Q390.222 25.7686 387.792 27.0996 L387.792 22.1806 Q390.714 21.0522 393.463 20.5024 Q396.212 19.9237 398.816 19.9237 Q405.847 19.9237 409.32 23.5695 Q412.792 27.2153 412.792 34.6227 Z" fill="#000000" fill-rule="nonzero" fill-opacity="1" /><path clip-path="url(#clip360)" d="M448.989 26.926 Q450.986 23.338 453.764 21.6309 Q456.542 19.9237 460.303 19.9237 Q465.367 19.9237 468.116 23.4827 Q470.864 27.0128 470.864 33.5521 L470.864 53.1122 L465.511 53.1122 L465.511 33.7257 Q465.511 29.0672 463.862 26.8102 Q462.213 24.5533 458.827 24.5533 Q454.69 24.5533 452.288 27.3021 Q449.886 30.051 449.886 34.7963 L449.886 53.1122 L444.533 53.1122 L444.533 33.7257 Q444.533 29.0382 442.884 26.8102 Q441.235 24.5533 437.792 24.5533 Q433.712 24.5533 431.31 27.3311 Q428.909 30.0799 428.909 34.7963 L428.909 53.1122 L423.556 53.1122 L423.556 20.705 L428.909 20.705 L428.909 25.7396 Q430.731 22.7593 433.278 21.3415 Q435.824 19.9237 439.325 19.9237 Q442.855 19.9237 445.315 21.7177 Q447.803 23.5117 448.989 26.926 Z" fill="#000000" fill-rule="nonzero" fill-opacity="1" /><path clip-path="url(#clip360)" d="M481.483 20.705 L486.808 20.705 L486.808 53.1122 L481.483 53.1122 L481.483 20.705 M481.483 8.08928 L486.808 8.08928 L486.808 14.8311 L481.483 14.8311 L481.483 8.08928 Z" fill="#000000" fill-rule="nonzero" fill-opacity="1" /><path clip-path="url(#clip360)" d="M524.886 33.5521 L524.886 53.1122 L519.562 53.1122 L519.562 33.7257 Q519.562 29.125 517.768 26.8392 Q515.974 24.5533 512.386 24.5533 Q508.075 24.5533 505.586 27.3021 Q503.098 30.051 503.098 34.7963 L503.098 53.1122 L497.745 53.1122 L497.745 20.705 L503.098 20.705 L503.098 25.7396 Q505.008 22.8172 507.583 21.3705 Q510.187 19.9237 513.572 19.9237 Q519.157 19.9237 522.021 23.3959 Q524.886 26.8392 524.886 33.5521 Z" fill="#000000" fill-rule="nonzero" fill-opacity="1" /><path clip-path="url(#clip360)" d="M562.444 33.5521 L562.444 53.1122 L557.12 53.1122 L557.12 33.7257 Q557.12 29.125 555.326 26.8392 Q553.532 24.5533 549.944 24.5533 Q545.632 24.5533 543.144 27.3021 Q540.656 30.051 540.656 34.7963 L540.656 53.1122 L535.303 53.1122 L535.303 8.08928 L540.656 8.08928 L540.656 25.7396 Q542.565 22.8172 545.141 21.3705 Q547.745 19.9237 551.13 19.9237 Q556.715 19.9237 559.579 23.3959 Q562.444 26.8392 562.444 33.5521 Z" fill="#000000" fill-rule="nonzero" fill-opacity="1" /><path clip-path="url(#clip360)" d="M585.621 24.4376 Q581.338 24.4376 578.85 27.794 Q576.361 31.1216 576.361 36.9375 Q576.361 42.7534 578.821 46.1099 Q581.309 49.4374 585.621 49.4374 Q589.874 49.4374 592.363 46.081 Q594.851 42.7245 594.851 36.9375 Q594.851 31.1794 592.363 27.823 Q589.874 24.4376 585.621 24.4376 M585.621 19.9237 Q592.565 19.9237 596.529 24.4376 Q600.493 28.9514 600.493 36.9375 Q600.493 44.8946 596.529 49.4374 Q592.565 53.9513 585.621 53.9513 Q578.647 53.9513 574.683 49.4374 Q570.748 44.8946 570.748 36.9375 Q570.748 28.9514 574.683 24.4376 Q578.647 19.9237 585.621 19.9237 Z" fill="#000000" fill-rule="nonzero" fill-opacity="1" /><path clip-path="url(#clip360)" d="M629.978 21.6598 L629.978 26.6945 Q627.721 25.5371 625.291 24.9584 Q622.86 24.3797 620.256 24.3797 Q616.292 24.3797 614.295 25.595 Q612.328 26.8102 612.328 29.2408 Q612.328 31.0926 613.746 32.1632 Q615.163 33.2049 619.446 34.1597 L621.269 34.5648 Q626.94 35.7801 629.313 38.0081 Q631.714 40.2072 631.714 44.1713 Q631.714 48.6851 628.126 51.3182 Q624.567 53.9513 618.317 53.9513 Q615.713 53.9513 612.877 53.4305 Q610.071 52.9386 606.946 51.9259 L606.946 46.4282 Q609.897 47.9618 612.762 48.743 Q615.626 49.4953 618.433 49.4953 Q622.195 49.4953 624.22 48.2222 Q626.245 46.9201 626.245 44.5764 Q626.245 42.4062 624.77 41.2488 Q623.323 40.0914 618.375 39.0208 L616.523 38.5868 Q611.575 37.5451 609.376 35.4039 Q607.177 33.2338 607.177 29.4723 Q607.177 24.9005 610.418 22.4121 Q613.659 19.9237 619.619 19.9237 Q622.571 19.9237 625.175 20.3577 Q627.779 20.7918 629.978 21.6598 Z" fill="#000000" fill-rule="nonzero" fill-opacity="1" /><path clip-path="url(#clip360)" d="M673.757 36.8218 Q667.304 36.8218 664.816 38.2975 Q662.327 39.7731 662.327 43.3321 Q662.327 46.1678 664.179 47.846 Q666.06 49.4953 669.272 49.4953 Q673.699 49.4953 676.361 46.3703 Q679.052 43.2164 679.052 38.0081 L679.052 36.8218 L673.757 36.8218 M684.376 34.6227 L684.376 53.1122 L679.052 53.1122 L679.052 48.1932 Q677.229 51.1446 674.509 52.5624 Q671.789 53.9513 667.854 53.9513 Q662.877 53.9513 659.926 51.1735 Q657.003 48.3668 657.003 43.6794 Q657.003 38.2106 660.649 35.4329 Q664.324 32.6551 671.587 32.6551 L679.052 32.6551 L679.052 32.1343 Q679.052 28.4595 676.621 26.463 Q674.22 24.4376 669.851 24.4376 Q667.073 24.4376 664.44 25.1031 Q661.807 25.7686 659.376 27.0996 L659.376 22.1806 Q662.299 21.0522 665.047 20.5024 Q667.796 19.9237 670.4 19.9237 Q677.432 19.9237 680.904 23.5695 Q684.376 27.2153 684.376 34.6227 Z" fill="#000000" fill-rule="nonzero" fill-opacity="1" /><path clip-path="url(#clip360)" d="M720.574 26.926 Q722.57 23.338 725.348 21.6309 Q728.126 19.9237 731.887 19.9237 Q736.951 19.9237 739.7 23.4827 Q742.449 27.0128 742.449 33.5521 L742.449 53.1122 L737.096 53.1122 L737.096 33.7257 Q737.096 29.0672 735.446 26.8102 Q733.797 24.5533 730.412 24.5533 Q726.274 24.5533 723.872 27.3021 Q721.471 30.051 721.471 34.7963 L721.471 53.1122 L716.118 53.1122 L716.118 33.7257 Q716.118 29.0382 714.468 26.8102 Q712.819 24.5533 709.376 24.5533 Q705.296 24.5533 702.894 27.3311 Q700.493 30.0799 700.493 34.7963 L700.493 53.1122 L695.14 53.1122 L695.14 20.705 L700.493 20.705 L700.493 25.7396 Q702.316 22.7593 704.862 21.3415 Q707.408 19.9237 710.909 19.9237 Q714.439 19.9237 716.899 21.7177 Q719.387 23.5117 720.574 26.926 Z" fill="#000000" fill-rule="nonzero" fill-opacity="1" /><path clip-path="url(#clip360)" d="M765.625 24.4376 Q761.343 24.4376 758.855 27.794 Q756.366 31.1216 756.366 36.9375 Q756.366 42.7534 758.826 46.1099 Q761.314 49.4374 765.625 49.4374 Q769.879 49.4374 772.367 46.081 Q774.856 42.7245 774.856 36.9375 Q774.856 31.1794 772.367 27.823 Q769.879 24.4376 765.625 24.4376 M765.625 19.9237 Q772.57 19.9237 776.534 24.4376 Q780.498 28.9514 780.498 36.9375 Q780.498 44.8946 776.534 49.4374 Q772.57 53.9513 765.625 53.9513 Q758.652 53.9513 754.688 49.4374 Q750.753 44.8946 750.753 36.9375 Q750.753 28.9514 754.688 24.4376 Q758.652 19.9237 765.625 19.9237 Z" fill="#000000" fill-rule="nonzero" fill-opacity="1" /><path clip-path="url(#clip360)" d="M809.983 21.6598 L809.983 26.6945 Q807.726 25.5371 805.295 24.9584 Q802.865 24.3797 800.261 24.3797 Q796.297 24.3797 794.3 25.595 Q792.333 26.8102 792.333 29.2408 Q792.333 31.0926 793.75 32.1632 Q795.168 33.2049 799.451 34.1597 L801.273 34.5648 Q806.945 35.7801 809.317 38.0081 Q811.719 40.2072 811.719 44.1713 Q811.719 48.6851 808.131 51.3182 Q804.572 53.9513 798.322 53.9513 Q795.718 53.9513 792.882 53.4305 Q790.076 52.9386 786.951 51.9259 L786.951 46.4282 Q789.902 47.9618 792.767 48.743 Q795.631 49.4953 798.438 49.4953 Q802.199 49.4953 804.225 48.2222 Q806.25 46.9201 806.25 44.5764 Q806.25 42.4062 804.775 41.2488 Q803.328 40.0914 798.38 39.0208 L796.528 38.5868 Q791.58 37.5451 789.381 35.4039 Q787.182 33.2338 787.182 29.4723 Q787.182 24.9005 790.423 22.4121 Q793.664 19.9237 799.624 19.9237 Q802.576 19.9237 805.18 20.3577 Q807.784 20.7918 809.983 21.6598 Z" fill="#000000" fill-rule="nonzero" fill-opacity="1" /><path clip-path="url(#clip360)" d="M825.463 11.5036 L825.463 20.705 L836.43 20.705 L836.43 24.8427 L825.463 24.8427 L825.463 42.4352 Q825.463 46.3993 826.534 47.5277 Q827.633 48.6562 830.961 48.6562 L836.43 48.6562 L836.43 53.1122 L830.961 53.1122 Q824.798 53.1122 822.454 50.8263 Q820.11 48.5115 820.11 42.4352 L820.11 24.8427 L816.204 24.8427 L816.204 20.705 L820.11 20.705 L820.11 11.5036 L825.463 11.5036 Z" fill="#000000" fill-rule="nonzero" fill-opacity="1" /><path clip-path="url(#clip360)" d="M862.211 25.6818 Q861.314 25.1609 860.243 24.9295 Q859.201 24.6691 857.928 24.6691 Q853.414 24.6691 850.984 27.6204 Q848.582 30.5429 848.582 36.0405 L848.582 53.1122 L843.229 53.1122 L843.229 20.705 L848.582 20.705 L848.582 25.7396 Q850.26 22.7883 852.951 21.3705 Q855.642 19.9237 859.491 19.9237 Q860.04 19.9237 860.706 20.0105 Q861.372 20.0684 862.182 20.2131 L862.211 25.6818 Z" fill="#000000" fill-rule="nonzero" fill-opacity="1" /><path clip-path="url(#clip360)" d="M882.523 36.8218 Q876.071 36.8218 873.582 38.2975 Q871.094 39.7731 871.094 43.3321 Q871.094 46.1678 872.946 47.846 Q874.826 49.4953 878.038 49.4953 Q882.465 49.4953 885.127 46.3703 Q887.818 43.2164 887.818 38.0081 L887.818 36.8218 L882.523 36.8218 M893.142 34.6227 L893.142 53.1122 L887.818 53.1122 L887.818 48.1932 Q885.995 51.1446 883.275 52.5624 Q880.555 53.9513 876.62 53.9513 Q871.643 53.9513 868.692 51.1735 Q865.77 48.3668 865.77 43.6794 Q865.77 38.2106 869.415 35.4329 Q873.09 32.6551 880.353 32.6551 L887.818 32.6551 L887.818 32.1343 Q887.818 28.4595 885.388 26.463 Q882.986 24.4376 878.617 24.4376 Q875.839 24.4376 873.206 25.1031 Q870.573 25.7686 868.142 27.0996 L868.142 22.1806 Q871.065 21.0522 873.814 20.5024 Q876.562 19.9237 879.167 19.9237 Q886.198 19.9237 889.67 23.5695 Q893.142 27.2153 893.142 34.6227 Z" fill="#000000" fill-rule="nonzero" fill-opacity="1" /><path clip-path="url(#clip360)" d="M904.109 20.705 L909.433 20.705 L909.433 53.1122 L904.109 53.1122 L904.109 20.705 M904.109 8.08928 L909.433 8.08928 L909.433 14.8311 L904.109 14.8311 L904.109 8.08928 Z" fill="#000000" fill-rule="nonzero" fill-opacity="1" /><path clip-path="url(#clip360)" d="M941.232 21.6598 L941.232 26.6945 Q938.975 25.5371 936.545 24.9584 Q934.114 24.3797 931.51 24.3797 Q927.546 24.3797 925.549 25.595 Q923.582 26.8102 923.582 29.2408 Q923.582 31.0926 925 32.1632 Q926.417 33.2049 930.7 34.1597 L932.523 34.5648 Q938.194 35.7801 940.567 38.0081 Q942.968 40.2072 942.968 44.1713 Q942.968 48.6851 939.38 51.3182 Q935.821 53.9513 929.571 53.9513 Q926.967 53.9513 924.132 53.4305 Q921.325 52.9386 918.2 51.9259 L918.2 46.4282 Q921.151 47.9618 924.016 48.743 Q926.88 49.4953 929.687 49.4953 Q933.449 49.4953 935.474 48.2222 Q937.5 46.9201 937.5 44.5764 Q937.5 42.4062 936.024 41.2488 Q934.577 40.0914 929.629 39.0208 L927.777 38.5868 Q922.83 37.5451 920.63 35.4039 Q918.431 33.2338 918.431 29.4723 Q918.431 24.9005 921.672 22.4121 Q924.913 19.9237 930.873 19.9237 Q933.825 19.9237 936.429 20.3577 Q939.033 20.7918 941.232 21.6598 Z" fill="#000000" fill-rule="nonzero" fill-opacity="1" /><path clip-path="url(#clip360)" d="M991.608 25.6239 L991.608 8.08928 L996.932 8.08928 L996.932 53.1122 L991.608 53.1122 L991.608 48.2511 Q989.93 51.1446 987.355 52.5624 Q984.808 53.9513 981.22 53.9513 Q975.347 53.9513 971.643 49.2638 Q967.968 44.5764 967.968 36.9375 Q967.968 29.2987 971.643 24.6112 Q975.347 19.9237 981.22 19.9237 Q984.808 19.9237 987.355 21.3415 Q989.93 22.7304 991.608 25.6239 M973.466 36.9375 Q973.466 42.8113 975.867 46.1678 Q978.298 49.4953 982.522 49.4953 Q986.747 49.4953 989.178 46.1678 Q991.608 42.8113 991.608 36.9375 Q991.608 31.0637 989.178 27.7362 Q986.747 24.3797 982.522 24.3797 Q978.298 24.3797 975.867 27.7362 Q973.466 31.0637 973.466 36.9375 Z" fill="#000000" fill-rule="nonzero" fill-opacity="1" /><path clip-path="url(#clip360)" d="M1020.46 24.4376 Q1016.17 24.4376 1013.69 27.794 Q1011.2 31.1216 1011.2 36.9375 Q1011.2 42.7534 1013.66 46.1099 Q1016.14 49.4374 1020.46 49.4374 Q1024.71 49.4374 1027.2 46.081 Q1029.69 42.7245 1029.69 36.9375 Q1029.69 31.1794 1027.2 27.823 Q1024.71 24.4376 1020.46 24.4376 M1020.46 19.9237 Q1027.4 19.9237 1031.36 24.4376 Q1035.33 28.9514 1035.33 36.9375 Q1035.33 44.8946 1031.36 49.4374 Q1027.4 53.9513 1020.46 53.9513 Q1013.48 53.9513 1009.52 49.4374 Q1005.58 44.8946 1005.58 36.9375 Q1005.58 28.9514 1009.52 24.4376 Q1013.48 19.9237 1020.46 19.9237 Z" fill="#000000" fill-rule="nonzero" fill-opacity="1" /><path clip-path="url(#clip360)" d="M1068.14 48.2511 L1068.14 65.4385 L1062.79 65.4385 L1062.79 20.705 L1068.14 20.705 L1068.14 25.6239 Q1069.82 22.7304 1072.37 21.3415 Q1074.94 19.9237 1078.5 19.9237 Q1084.4 19.9237 1088.08 24.6112 Q1091.78 29.2987 1091.78 36.9375 Q1091.78 44.5764 1088.08 49.2638 Q1084.4 53.9513 1078.5 53.9513 Q1074.94 53.9513 1072.37 52.5624 Q1069.82 51.1446 1068.14 48.2511 M1086.25 36.9375 Q1086.25 31.0637 1083.82 27.7362 Q1081.42 24.3797 1077.2 24.3797 Q1072.97 24.3797 1070.54 27.7362 Q1068.14 31.0637 1068.14 36.9375 Q1068.14 42.8113 1070.54 46.1678 Q1072.97 49.4953 1077.2 49.4953 Q1081.42 49.4953 1083.82 46.1678 Q1086.25 42.8113 1086.25 36.9375 Z" fill="#000000" fill-rule="nonzero" fill-opacity="1" /><path clip-path="url(#clip360)" d="M1119.39 25.6818 Q1118.49 25.1609 1117.42 24.9295 Q1116.38 24.6691 1115.1 24.6691 Q1110.59 24.6691 1108.16 27.6204 Q1105.76 30.5429 1105.76 36.0405 L1105.76 53.1122 L1100.4 53.1122 L1100.4 20.705 L1105.76 20.705 L1105.76 25.7396 Q1107.44 22.7883 1110.13 21.3705 Q1112.82 19.9237 1116.67 19.9237 Q1117.22 19.9237 1117.88 20.0105 Q1118.55 20.0684 1119.36 20.2131 L1119.39 25.6818 Z" fill="#000000" fill-rule="nonzero" fill-opacity="1" /><path clip-path="url(#clip360)" d="M1136.23 24.4376 Q1131.94 24.4376 1129.45 27.794 Q1126.97 31.1216 1126.97 36.9375 Q1126.97 42.7534 1129.43 46.1099 Q1131.91 49.4374 1136.23 49.4374 Q1140.48 49.4374 1142.97 46.081 Q1145.46 42.7245 1145.46 36.9375 Q1145.46 31.1794 1142.97 27.823 Q1140.48 24.4376 1136.23 24.4376 M1136.23 19.9237 Q1143.17 19.9237 1147.13 24.4376 Q1151.1 28.9514 1151.1 36.9375 Q1151.1 44.8946 1147.13 49.4374 Q1143.17 53.9513 1136.23 53.9513 Q1129.25 53.9513 1125.29 49.4374 Q1121.35 44.8946 1121.35 36.9375 Q1121.35 28.9514 1125.29 24.4376 Q1129.25 19.9237 1136.23 19.9237 Z" fill="#000000" fill-rule="nonzero" fill-opacity="1" /><path clip-path="url(#clip360)" d="M1183.24 21.9492 L1183.24 26.926 Q1180.99 25.6818 1178.7 25.0741 Q1176.45 24.4376 1174.13 24.4376 Q1168.95 24.4376 1166.09 27.7362 Q1163.22 31.0058 1163.22 36.9375 Q1163.22 42.8692 1166.09 46.1678 Q1168.95 49.4374 1174.13 49.4374 Q1176.45 49.4374 1178.7 48.8298 Q1180.99 48.1932 1183.24 46.949 L1183.24 51.868 Q1181.02 52.9096 1178.62 53.4305 Q1176.24 53.9513 1173.55 53.9513 Q1166.23 53.9513 1161.92 49.3506 Q1157.61 44.75 1157.61 36.9375 Q1157.61 29.0093 1161.95 24.4665 Q1166.32 19.9237 1173.9 19.9237 Q1176.36 19.9237 1178.7 20.4445 Q1181.05 20.9364 1183.24 21.9492 Z" fill="#000000" fill-rule="nonzero" fill-opacity="1" /><path clip-path="url(#clip360)" d="M1220.22 35.5776 L1220.22 38.1817 L1195.74 38.1817 Q1196.09 43.6794 1199.04 46.5729 Q1202.02 49.4374 1207.32 49.4374 Q1210.39 49.4374 1213.25 48.6851 Q1216.14 47.9328 1218.98 46.4282 L1218.98 51.4629 Q1216.11 52.6782 1213.11 53.3147 Q1210.1 53.9513 1207 53.9513 Q1199.25 53.9513 1194.7 49.4374 Q1190.19 44.9236 1190.19 37.2269 Q1190.19 29.2697 1194.47 24.6112 Q1198.78 19.9237 1206.07 19.9237 Q1212.61 19.9237 1216.4 24.1482 Q1220.22 28.3438 1220.22 35.5776 M1214.9 34.0151 Q1214.84 29.6459 1212.44 27.0417 Q1210.07 24.4376 1206.13 24.4376 Q1201.68 24.4376 1198.99 26.9549 Q1196.32 29.4723 1195.92 34.044 L1214.9 34.0151 Z" fill="#000000" fill-rule="nonzero" fill-opacity="1" /><path clip-path="url(#clip360)" d="M1249.62 21.6598 L1249.62 26.6945 Q1247.36 25.5371 1244.93 24.9584 Q1242.5 24.3797 1239.9 24.3797 Q1235.94 24.3797 1233.94 25.595 Q1231.97 26.8102 1231.97 29.2408 Q1231.97 31.0926 1233.39 32.1632 Q1234.81 33.2049 1239.09 34.1597 L1240.91 34.5648 Q1246.58 35.7801 1248.96 38.0081 Q1251.36 40.2072 1251.36 44.1713 Q1251.36 48.6851 1247.77 51.3182 Q1244.21 53.9513 1237.96 53.9513 Q1235.36 53.9513 1232.52 53.4305 Q1229.71 52.9386 1226.59 51.9259 L1226.59 46.4282 Q1229.54 47.9618 1232.41 48.743 Q1235.27 49.4953 1238.08 49.4953 Q1241.84 49.4953 1243.86 48.2222 Q1245.89 46.9201 1245.89 44.5764 Q1245.89 42.4062 1244.41 41.2488 Q1242.97 40.0914 1238.02 39.0208 L1236.17 38.5868 Q1231.22 37.5451 1229.02 35.4039 Q1226.82 33.2338 1226.82 29.4723 Q1226.82 24.9005 1230.06 22.4121 Q1233.3 19.9237 1239.26 19.9237 Q1242.21 19.9237 1244.82 20.3577 Q1247.42 20.7918 1249.62 21.6598 Z" fill="#000000" fill-rule="nonzero" fill-opacity="1" /><path clip-path="url(#clip360)" d="M1280.5 21.6598 L1280.5 26.6945 Q1278.24 25.5371 1275.81 24.9584 Q1273.38 24.3797 1270.77 24.3797 Q1266.81 24.3797 1264.81 25.595 Q1262.85 26.8102 1262.85 29.2408 Q1262.85 31.0926 1264.26 32.1632 Q1265.68 33.2049 1269.96 34.1597 L1271.79 34.5648 Q1277.46 35.7801 1279.83 38.0081 Q1282.23 40.2072 1282.23 44.1713 Q1282.23 48.6851 1278.64 51.3182 Q1275.08 53.9513 1268.83 53.9513 Q1266.23 53.9513 1263.39 53.4305 Q1260.59 52.9386 1257.46 51.9259 L1257.46 46.4282 Q1260.41 47.9618 1263.28 48.743 Q1266.14 49.4953 1268.95 49.4953 Q1272.71 49.4953 1274.74 48.2222 Q1276.76 46.9201 1276.76 44.5764 Q1276.76 42.4062 1275.29 41.2488 Q1273.84 40.0914 1268.89 39.0208 L1267.04 38.5868 Q1262.09 37.5451 1259.89 35.4039 Q1257.69 33.2338 1257.69 29.4723 Q1257.69 24.9005 1260.94 22.4121 Q1264.18 19.9237 1270.14 19.9237 Q1273.09 19.9237 1275.69 20.3577 Q1278.3 20.7918 1280.5 21.6598 Z" fill="#000000" fill-rule="nonzero" fill-opacity="1" /><path clip-path="url(#clip360)" d="M1303.27 24.4376 Q1298.98 24.4376 1296.5 27.794 Q1294.01 31.1216 1294.01 36.9375 Q1294.01 42.7534 1296.47 46.1099 Q1298.96 49.4374 1303.27 49.4374 Q1307.52 49.4374 1310.01 46.081 Q1312.5 42.7245 1312.5 36.9375 Q1312.5 31.1794 1310.01 27.823 Q1307.52 24.4376 1303.27 24.4376 M1303.27 19.9237 Q1310.21 19.9237 1314.18 24.4376 Q1318.14 28.9514 1318.14 36.9375 Q1318.14 44.8946 1314.18 49.4374 Q1310.21 53.9513 1303.27 53.9513 Q1296.29 53.9513 1292.33 49.4374 Q1288.39 44.8946 1288.39 36.9375 Q1288.39 28.9514 1292.33 24.4376 Q1296.29 19.9237 1303.27 19.9237 Z" fill="#000000" fill-rule="nonzero" fill-opacity="1" /><path clip-path="url(#clip360)" d="M1389.64 12.8256 Q1389.64 13.3526 1389.43 13.6454 Q1389.26 13.9089 1389.05 13.9674 Q1388.85 13.9967 1388.32 14.026 Q1384.13 14.2309 1380.71 17.0709 Q1379.86 17.8029 1377.72 20.0865 Q1375.61 22.3702 1372.8 25.4151 Q1370.02 28.4601 1368.41 30.0996 L1376.14 48.6034 Q1376.46 49.3353 1376.58 49.6574 Q1376.73 49.9502 1377.02 50.3308 Q1377.34 50.7114 1377.58 50.8285 Q1377.84 50.9456 1378.4 51.092 Q1378.98 51.2091 1379.57 51.2384 Q1380.18 51.2384 1381.29 51.2677 Q1381.65 51.2677 1381.79 51.2969 Q1381.97 51.2969 1382.17 51.4726 Q1382.38 51.619 1382.38 51.9703 Q1382.38 52.4973 1382.14 52.7901 Q1381.94 53.0536 1381.73 53.0829 Q1381.56 53.1122 1381.24 53.1122 Q1380.47 53.1122 1377.9 53.0244 Q1375.32 52.9365 1374.59 52.9365 L1367.04 53.1122 Q1366.13 53.1122 1366.13 52.3802 Q1366.13 51.9996 1366.19 51.7947 Q1366.27 51.5605 1366.48 51.4726 Q1366.68 51.3555 1366.83 51.3262 Q1366.98 51.2969 1367.33 51.2677 Q1368.41 51.1506 1369.23 50.8285 Q1370.08 50.4772 1370.43 50.1258 Q1370.81 49.7745 1370.81 49.511 L1370.52 48.6619 L1364.46 34.345 L1359.04 40.2298 L1352.92 46.7003 Q1351.31 48.4277 1351.31 49.3939 Q1351.31 51.0042 1353.71 51.2677 Q1354.45 51.3262 1354.45 51.9118 Q1354.45 52.4681 1354.21 52.7609 Q1354.01 53.0244 1353.8 53.0829 Q1353.63 53.1122 1353.36 53.1122 Q1352.28 53.1122 1350 53.0244 Q1347.74 52.9365 1346.63 52.9365 Q1345.69 52.9365 1343.79 53.0244 Q1341.89 53.1122 1341.01 53.1122 Q1340.66 53.1122 1340.45 52.9365 Q1340.25 52.7609 1340.25 52.5852 L1340.22 52.4388 Q1340.22 52.0289 1340.28 51.7947 Q1340.36 51.5605 1340.6 51.4433 Q1340.86 51.3262 1340.98 51.3262 Q1341.1 51.2969 1341.53 51.2677 Q1344.02 51.1213 1346.13 50.1551 Q1348.27 49.1889 1350.35 46.9345 Q1350.52 46.7881 1350.73 46.6125 Q1350.96 46.4368 1351.14 46.2904 L1363.79 32.6761 L1356.7 15.9291 Q1356.38 15.1678 1356.09 14.8458 Q1355.79 14.4944 1354.89 14.2602 Q1353.98 14.026 1352.22 14.026 Q1351.72 14.026 1351.49 13.9967 Q1351.26 13.9674 1351.05 13.821 Q1350.85 13.6746 1350.85 13.3526 Q1350.85 12.7963 1351.05 12.5328 Q1351.28 12.24 1351.46 12.2107 Q1351.67 12.1522 1351.93 12.1522 Q1352.66 12.1522 1355.27 12.24 Q1357.87 12.3279 1358.63 12.3279 Q1359.89 12.3279 1362.41 12.24 Q1364.96 12.1522 1366.19 12.1522 Q1367.09 12.1522 1367.09 12.8841 Q1367.09 13.3526 1366.89 13.6161 Q1366.68 13.8796 1366.48 13.9381 Q1366.27 13.9967 1365.89 14.026 Q1364.75 14.1431 1363.87 14.5237 Q1363.02 14.875 1362.67 15.2264 Q1362.35 15.5484 1362.35 15.7534 L1362.64 16.5439 L1367.68 28.4601 L1377.4 18.0371 Q1378.54 16.7488 1378.54 15.8705 Q1378.54 14.2895 1376.14 14.026 Q1375.41 13.9089 1375.41 13.3526 Q1375.41 12.7963 1375.64 12.5328 Q1375.88 12.24 1376.05 12.2107 Q1376.26 12.1522 1376.55 12.1522 Q1377.63 12.1522 1379.86 12.24 Q1382.11 12.3279 1383.23 12.3279 Q1384.16 12.3279 1386.07 12.24 Q1387.97 12.1522 1388.85 12.1522 Q1389.2 12.1522 1389.4 12.3279 Q1389.61 12.4742 1389.61 12.6499 L1389.64 12.8256 Z" fill="#000000" fill-rule="nonzero" fill-opacity="1" /><path clip-path="url(#clip360)" d="M1408.45 51.099 Q1408.45 51.6728 1408.18 51.8163 Q1407.91 51.9393 1407.18 51.9393 L1403.24 51.9393 L1400.13 64.318 Q1399.88 65.4042 1399.88 66.3265 Q1399.88 67.3512 1400.19 67.8021 Q1400.51 68.253 1401.19 68.253 Q1402.52 68.253 1403.96 67.0438 Q1405.41 65.8346 1406.64 62.8834 Q1406.81 62.494 1406.89 62.412 Q1406.99 62.3096 1407.26 62.3096 Q1407.77 62.3096 1407.77 62.7194 Q1407.77 62.8629 1407.48 63.5187 Q1407.22 64.1746 1406.62 65.1378 Q1406.05 66.1011 1405.29 67.0028 Q1404.55 67.9046 1403.42 68.5604 Q1402.3 69.1958 1401.09 69.1958 Q1399.39 69.1958 1398.3 68.1095 Q1397.24 67.0233 1397.24 65.3223 Q1397.24 64.7689 1397.67 63.0064 Q1398.1 61.2233 1400.43 51.9393 L1396.72 51.9393 Q1396.21 51.9393 1396.01 51.9188 Q1395.82 51.8983 1395.68 51.7958 Q1395.55 51.6728 1395.55 51.4269 Q1395.55 51.0375 1395.72 50.8735 Q1395.88 50.6891 1396.09 50.6686 Q1396.31 50.6276 1396.83 50.6276 L1400.76 50.6276 L1402.4 43.9669 Q1402.56 43.311 1402.97 42.9421 Q1403.4 42.5527 1403.65 42.5117 Q1403.9 42.4502 1404.08 42.4502 Q1404.63 42.4502 1404.96 42.7577 Q1405.29 43.0446 1405.29 43.5775 Q1405.29 43.8644 1403.57 50.6276 L1407.26 50.6276 Q1407.73 50.6276 1407.91 50.6481 Q1408.12 50.6686 1408.28 50.7711 Q1408.45 50.8735 1408.45 51.099 Z" fill="#000000" fill-rule="nonzero" fill-opacity="1" /><path clip-path="url(#clip360)" d="M1431.36 44.0067 Q1431.42 43.2748 1432.56 43.2748 L1469.3 43.2748 Q1471.03 43.2748 1471.06 43.9482 Q1471.06 44.6801 1469.42 44.6508 L1432.97 44.6508 Q1431.36 44.6801 1431.36 44.0067 M1431.36 32.2955 Q1431.36 31.5635 1432.62 31.5928 L1469.24 31.5928 Q1471.03 31.5928 1471.06 32.2955 Q1471.06 32.9689 1469.54 32.9689 L1432.56 32.9689 Q1431.36 32.9689 1431.36 32.2955 Z" fill="#000000" fill-rule="nonzero" fill-opacity="1" /><path clip-path="url(#clip360)" d="M1501.32 52.3217 L1501.32 44.4166 Q1501.32 43.7432 1501.35 43.509 Q1501.38 43.2748 1501.56 43.0991 Q1501.73 42.9234 1502.08 42.9234 Q1502.49 42.9234 1502.64 43.0991 Q1502.81 43.2748 1502.93 43.9482 Q1503.84 48.0764 1505.77 50.2722 Q1507.73 52.4388 1511.28 52.4388 Q1514.64 52.4388 1516.34 50.9456 Q1518.04 49.4524 1518.04 46.9931 Q1518.04 42.6014 1511.8 41.4888 Q1508.2 40.7568 1506.71 40.2884 Q1505.22 39.7907 1503.9 38.7074 Q1501.32 36.5994 1501.32 33.613 Q1501.32 30.6266 1503.58 28.4308 Q1505.86 26.2349 1510.9 26.2349 Q1514.26 26.2349 1516.55 27.9331 Q1517.22 27.4061 1517.57 26.9669 Q1518.36 26.2349 1518.77 26.2349 Q1519.24 26.2349 1519.33 26.557 Q1519.42 26.8498 1519.42 27.6988 L1519.42 33.7301 Q1519.42 34.4035 1519.39 34.6377 Q1519.36 34.872 1519.18 35.0476 Q1519.01 35.194 1518.63 35.194 Q1517.95 35.194 1517.92 34.6377 Q1517.45 27.3768 1510.9 27.3768 Q1507.35 27.3768 1505.77 28.7528 Q1504.19 30.0996 1504.19 31.9442 Q1504.19 32.9689 1504.66 33.7594 Q1505.16 34.5206 1505.77 34.9891 Q1506.42 35.4282 1507.59 35.8674 Q1508.76 36.2773 1509.46 36.4237 Q1510.19 36.5701 1511.57 36.8629 Q1516.37 37.7705 1518.39 39.7321 Q1520.91 42.25 1520.91 45.4413 Q1520.91 48.984 1518.51 51.3848 Q1516.11 53.7856 1511.28 53.7856 Q1507.38 53.7856 1504.66 51.1798 Q1504.31 51.5312 1504.04 51.8532 Q1503.78 52.146 1503.66 52.2631 Q1503.58 52.3802 1503.55 52.4681 Q1503.52 52.5266 1503.46 52.5852 Q1502.26 53.7856 1501.97 53.7856 Q1501.5 53.7856 1501.41 53.4635 Q1501.32 53.1707 1501.32 52.3217 Z" fill="#000000" fill-rule="nonzero" fill-opacity="1" /><path clip-path="url(#clip360)" d="M1523.26 53.1122 L1523.26 51.2677 Q1526.45 51.2677 1527.18 50.8871 Q1527.91 50.4772 1527.91 48.5448 L1527.91 32.4126 Q1527.91 30.1875 1527.15 29.6605 Q1526.42 29.1335 1523.49 29.1335 L1523.49 27.2597 L1531.86 26.6155 L1531.86 48.6034 Q1531.86 50.3893 1532.51 50.8285 Q1533.15 51.2677 1536.08 51.2677 L1536.08 53.1122 Q1529.96 52.9365 1529.84 52.9365 Q1529.02 52.9365 1523.26 53.1122 M1525.77 16.1633 Q1525.77 14.9629 1526.68 13.9967 Q1527.62 13.0013 1528.94 13.0013 Q1530.25 13.0013 1531.19 13.9089 Q1532.13 14.7872 1532.13 16.1926 Q1532.13 17.5686 1531.19 18.4762 Q1530.25 19.3546 1528.94 19.3546 Q1527.56 19.3546 1526.65 18.3884 Q1525.77 17.4222 1525.77 16.1633 Z" fill="#000000" fill-rule="nonzero" fill-opacity="1" /><path clip-path="url(#clip360)" d="M1540.18 53.1122 L1540.18 51.2677 Q1543.37 51.2677 1544.1 50.8871 Q1544.83 50.4772 1544.83 48.5448 L1544.83 32.4712 Q1544.83 30.246 1544.04 29.6897 Q1543.28 29.1335 1540.18 29.1335 L1540.18 27.2597 L1548.61 26.6155 L1548.61 32.9103 Q1551.42 26.6155 1557.48 26.6155 Q1561.99 26.6155 1563.78 28.8407 Q1565.09 30.3339 1565.36 32.0027 Q1565.65 33.6716 1565.65 38.0047 L1565.65 49.4524 Q1565.71 50.7114 1566.67 51.0042 Q1567.64 51.2677 1570.33 51.2677 L1570.33 53.1122 Q1564.22 52.9365 1563.6 52.9365 Q1563.13 52.9365 1556.84 53.1122 L1556.84 51.2677 Q1560.03 51.2677 1560.76 50.8871 Q1561.52 50.4772 1561.52 48.5448 L1561.52 34.5792 Q1561.52 31.5343 1560.58 29.7483 Q1559.65 27.9331 1557.07 27.9331 Q1553.97 27.9331 1551.48 30.5388 Q1548.99 33.1446 1548.99 37.5363 L1548.99 48.5448 Q1548.99 50.4772 1549.72 50.8871 Q1550.48 51.2677 1553.65 51.2677 L1553.65 53.1122 Q1547.53 52.9365 1546.94 52.9365 Q1546.47 52.9365 1540.18 53.1122 Z" fill="#000000" fill-rule="nonzero" fill-opacity="1" /><path clip-path="url(#clip360)" d="M1580.25 38.1218 Q1580.25 27.9916 1584.03 19.823 Q1585.64 16.3975 1587.89 13.5283 Q1590.15 10.659 1591.64 9.40005 Q1593.13 8.14109 1593.54 8.14109 Q1594.13 8.14109 1594.16 8.72665 Q1594.16 9.01944 1593.37 9.75139 Q1583.71 19.5888 1583.74 38.1218 Q1583.74 56.7134 1593.13 66.1702 Q1594.16 67.1949 1594.16 67.517 Q1594.16 68.1026 1593.54 68.1026 Q1593.13 68.1026 1591.7 66.9022 Q1590.26 65.7018 1588.04 62.9496 Q1585.81 60.1975 1584.2 56.8305 Q1580.25 48.6619 1580.25 38.1218 Z" fill="#000000" fill-rule="nonzero" fill-opacity="1" /><path clip-path="url(#clip360)" d="M1642.42 12.8256 Q1642.42 14.026 1641.43 14.026 Q1639.67 14.0845 1638.47 14.4359 Q1637.27 14.7579 1636.57 15.4021 Q1635.89 16.0462 1635.51 16.7488 Q1635.16 17.4222 1634.93 18.447 L1629.6 39.7321 Q1628.08 45.7341 1623.16 50.0965 Q1618.24 54.4297 1612.65 54.4297 Q1609.46 54.4297 1606.79 53.1122 Q1604.16 51.7947 1602.52 49.1304 Q1600.88 46.4661 1600.88 42.9234 Q1600.88 41.2253 1601.32 39.4393 L1604.95 24.6246 L1606.29 19.3546 Q1607.29 15.4606 1607.29 15.1093 Q1607.29 14.553 1606.94 14.4066 Q1606.62 14.2309 1605.68 14.1431 L1603.4 14.026 Q1602.69 14.026 1602.4 13.9967 Q1602.14 13.9674 1601.93 13.821 Q1601.73 13.6746 1601.73 13.3526 Q1601.73 12.9427 1601.81 12.6792 Q1601.93 12.3864 1602.14 12.2986 Q1602.34 12.2107 1602.49 12.1815 Q1602.63 12.1522 1602.87 12.1522 L1610.6 12.3279 L1618.27 12.1522 Q1619.12 12.1522 1619.12 12.8256 Q1619.12 13.6746 1618.74 13.8503 Q1618.36 14.026 1617.07 14.026 Q1614.87 14.026 1613.88 14.3188 Q1612.91 14.5823 1612.62 15.0507 Q1612.35 15.4899 1612.03 16.7781 L1606.21 40.1127 Q1605.91 41.2839 1605.74 42.455 Q1605.59 43.5968 1605.59 44.1824 L1605.56 44.7679 Q1605.56 48.4863 1607.61 50.5357 Q1609.69 52.5852 1612.88 52.5852 Q1617.57 52.5852 1621.93 48.8669 Q1626.32 45.1486 1627.81 39.3222 L1633.2 17.92 Q1633.38 17.393 1633.38 16.661 Q1633.38 15.4899 1632.5 14.7872 Q1631.65 14.0553 1629.31 14.026 Q1628.22 14.026 1628.22 13.3526 Q1628.22 12.7963 1628.43 12.5328 Q1628.66 12.24 1628.84 12.2107 Q1629.04 12.1522 1629.31 12.1522 Q1630.3 12.1522 1632.41 12.24 Q1634.52 12.3279 1635.54 12.3279 Q1636.57 12.3279 1638.62 12.24 Q1640.67 12.1522 1641.66 12.1522 Q1642.01 12.1522 1642.19 12.3279 Q1642.39 12.4742 1642.42 12.6499 L1642.42 12.8256 Z" fill="#000000" fill-rule="nonzero" fill-opacity="1" /><path clip-path="url(#clip360)" d="M1659.43 38.8538 Q1658.06 38.8538 1658.06 38.1218 Q1658.06 37.3899 1659.49 37.3899 Q1659.67 37.3899 1659.96 37.4191 Q1660.28 37.4484 1660.34 37.4484 L1677.23 37.4484 L1677.23 20.4964 Q1677.23 20.4379 1677.2 20.1744 Q1677.17 19.8816 1677.17 19.7059 Q1677.17 18.2713 1677.88 18.2713 Q1678.61 18.2713 1678.61 19.7059 L1678.61 37.4484 L1695.53 37.4484 Q1695.59 37.4484 1695.88 37.4191 Q1696.18 37.3899 1696.35 37.3899 Q1697.73 37.3899 1697.73 38.1218 Q1697.76 38.8538 1696.29 38.8538 Q1696.12 38.8538 1695.85 38.8245 Q1695.59 38.7952 1695.53 38.7952 L1678.61 38.7952 L1678.61 56.5963 Q1678.61 57.9723 1677.88 57.9723 Q1677.17 57.9723 1677.17 56.5377 Q1677.17 56.3621 1677.2 56.0693 Q1677.23 55.8058 1677.23 55.7472 L1677.23 38.7952 L1660.34 38.7952 Q1660.28 38.7952 1659.93 38.8245 Q1659.61 38.8538 1659.43 38.8538 Z" fill="#000000" fill-rule="nonzero" fill-opacity="1" /><path clip-path="url(#clip360)" d="M1739.31 27.9331 Q1739.31 28.7528 1738.93 28.9578 Q1738.55 29.1335 1737.49 29.1335 L1731.87 29.1335 L1727.42 46.8174 Q1727.07 48.3691 1727.07 49.6867 Q1727.07 51.1506 1727.51 51.7947 Q1727.98 52.4388 1728.94 52.4388 Q1730.85 52.4388 1732.89 50.7114 Q1734.97 48.984 1736.73 44.7679 Q1736.96 44.2117 1737.08 44.0945 Q1737.23 43.9482 1737.61 43.9482 Q1738.34 43.9482 1738.34 44.5337 Q1738.34 44.7387 1737.93 45.6756 Q1737.55 46.6125 1736.7 47.9885 Q1735.88 49.3646 1734.8 50.6528 Q1733.74 51.9411 1732.13 52.878 Q1730.52 53.7856 1728.8 53.7856 Q1726.37 53.7856 1724.81 52.2338 Q1723.29 50.6821 1723.29 48.252 Q1723.29 47.4615 1723.91 44.9436 Q1724.52 42.3964 1727.86 29.1335 L1722.56 29.1335 Q1721.83 29.1335 1721.53 29.1042 Q1721.27 29.0749 1721.07 28.9285 Q1720.89 28.7528 1720.89 28.4015 Q1720.89 27.8452 1721.12 27.611 Q1721.36 27.3475 1721.65 27.3182 Q1721.97 27.2597 1722.71 27.2597 L1728.33 27.2597 L1730.67 17.7443 Q1730.9 16.8074 1731.49 16.2804 Q1732.1 15.7241 1732.46 15.6656 Q1732.81 15.5777 1733.07 15.5777 Q1733.86 15.5777 1734.33 16.0169 Q1734.8 16.4268 1734.8 17.188 Q1734.8 17.5979 1732.34 27.2597 L1737.61 27.2597 Q1738.28 27.2597 1738.55 27.2889 Q1738.84 27.3182 1739.07 27.4646 Q1739.31 27.611 1739.31 27.9331 Z" fill="#000000" fill-rule="nonzero" fill-opacity="1" /><path clip-path="url(#clip360)" d="M1744 67.517 Q1744 67.2242 1744.76 66.4923 Q1754.42 56.6548 1754.42 38.1218 Q1754.42 19.5303 1745.14 10.132 Q1744 9.04871 1744 8.72665 Q1744 8.14109 1744.59 8.14109 Q1745 8.14109 1746.43 9.34149 Q1747.89 10.5419 1750.09 13.294 Q1752.32 16.0462 1753.96 19.4131 Q1757.91 27.5817 1757.91 38.1218 Q1757.91 48.252 1754.13 56.4206 Q1752.52 59.8461 1750.27 62.7154 Q1748.01 65.5846 1746.52 66.8436 Q1745.03 68.1026 1744.59 68.1026 Q1744 68.1026 1744 67.517 Z" fill="#000000" fill-rule="nonzero" fill-opacity="1" /><path clip-path="url(#clip360)" d="M1767.88 52.146 Q1767.03 51.1798 1767.03 49.9209 Q1767.03 48.6619 1767.85 47.725 Q1768.7 46.7588 1770.22 46.7588 Q1772 46.7588 1773.03 48.4863 Q1774.05 50.1844 1774.05 53.0536 Q1774.05 56.1571 1772.79 59.0264 Q1771.54 61.9249 1770.31 63.301 Q1769.08 64.677 1768.58 64.677 Q1767.99 64.677 1767.99 64.0329 Q1767.99 63.7987 1768.4 63.3595 Q1772.71 58.7336 1772.74 53.0536 Q1772.74 52.146 1772.62 52.146 L1772.47 52.2631 Q1771.45 53.1122 1770.22 53.1122 Q1768.72 53.1122 1767.88 52.146 Z" fill="#000000" fill-rule="nonzero" fill-opacity="1" /><path clip-path="url(#clip360)" d="M1842.45 12.8256 Q1842.45 14.026 1841.45 14.026 Q1839.69 14.0845 1838.49 14.4359 Q1837.29 14.7579 1836.59 15.4021 Q1835.92 16.0462 1835.54 16.7488 Q1835.18 17.4222 1834.95 18.447 L1829.62 39.7321 Q1828.1 45.7341 1823.18 50.0965 Q1818.26 54.4297 1812.67 54.4297 Q1809.48 54.4297 1806.81 53.1122 Q1804.18 51.7947 1802.54 49.1304 Q1800.9 46.4661 1800.9 42.9234 Q1800.9 41.2253 1801.34 39.4393 L1804.97 24.6246 L1806.32 19.3546 Q1807.31 15.4606 1807.31 15.1093 Q1807.31 14.553 1806.96 14.4066 Q1806.64 14.2309 1805.7 14.1431 L1803.42 14.026 Q1802.71 14.026 1802.42 13.9967 Q1802.16 13.9674 1801.95 13.821 Q1801.75 13.6746 1801.75 13.3526 Q1801.75 12.9427 1801.84 12.6792 Q1801.95 12.3864 1802.16 12.2986 Q1802.36 12.2107 1802.51 12.1815 Q1802.66 12.1522 1802.89 12.1522 L1810.62 12.3279 L1818.29 12.1522 Q1819.14 12.1522 1819.14 12.8256 Q1819.14 13.6746 1818.76 13.8503 Q1818.38 14.026 1817.09 14.026 Q1814.89 14.026 1813.9 14.3188 Q1812.93 14.5823 1812.64 15.0507 Q1812.38 15.4899 1812.05 16.7781 L1806.23 40.1127 Q1805.94 41.2839 1805.76 42.455 Q1805.61 43.5968 1805.61 44.1824 L1805.58 44.7679 Q1805.58 48.4863 1807.63 50.5357 Q1809.71 52.5852 1812.9 52.5852 Q1817.59 52.5852 1821.95 48.8669 Q1826.34 45.1486 1827.84 39.3222 L1833.22 17.92 Q1833.4 17.393 1833.4 16.661 Q1833.4 15.4899 1832.52 14.7872 Q1831.67 14.0553 1829.33 14.026 Q1828.25 14.026 1828.25 13.3526 Q1828.25 12.7963 1828.45 12.5328 Q1828.68 12.24 1828.86 12.2107 Q1829.07 12.1522 1829.33 12.1522 Q1830.32 12.1522 1832.43 12.24 Q1834.54 12.3279 1835.56 12.3279 Q1836.59 12.3279 1838.64 12.24 Q1840.69 12.1522 1841.68 12.1522 Q1842.04 12.1522 1842.21 12.3279 Q1842.42 12.4742 1842.45 12.6499 L1842.45 12.8256 Z" fill="#000000" fill-rule="nonzero" fill-opacity="1" /><path clip-path="url(#clip360)" d="M1897.69 31.8856 Q1897.52 37.302 1895.91 40.3177 Q1894.3 43.304 1890.58 44.5337 Q1889 44.9436 1887.88 44.9436 Q1883.14 44.9436 1876.85 39.2637 Q1875.59 38.1511 1874.77 37.4777 Q1873.95 36.8043 1872.72 36.0138 Q1871.52 35.194 1870.38 34.8134 Q1869.23 34.4035 1868.09 34.4035 Q1866.95 34.4035 1866.22 34.6963 Q1862.94 35.7796 1861.27 38.034 Q1859.63 40.2591 1859.51 44.358 Q1859.51 44.6508 1859.28 44.8851 Q1859.05 45.09 1858.78 45.09 Q1858.49 45.09 1858.28 44.8851 Q1858.08 44.6801 1858.08 44.358 Q1858.25 38.9416 1859.86 35.9552 Q1861.5 32.9396 1865.25 31.7099 Q1866.75 31.3 1867.92 31.3 Q1872.63 31.3 1878.92 36.98 Q1880.18 38.0925 1881 38.7659 Q1881.82 39.4393 1883.02 40.2591 Q1884.25 41.0496 1885.4 41.4595 Q1886.54 41.8401 1887.68 41.8401 Q1888.76 41.8401 1889.61 41.5474 Q1892.83 40.4641 1894.47 38.2389 Q1896.14 35.9845 1896.26 31.8856 Q1896.26 31.5928 1896.49 31.3879 Q1896.73 31.1536 1896.99 31.1536 Q1897.28 31.1536 1897.49 31.3586 Q1897.69 31.5635 1897.69 31.8856 Z" fill="#000000" fill-rule="nonzero" fill-opacity="1" /><path clip-path="url(#clip360)" d="M1920.62 14.026 L1920.62 12.1522 Q1922.73 12.3279 1929.49 12.3279 Q1936.2 12.3279 1938.31 12.1522 L1938.31 14.026 L1936.87 14.026 Q1933.62 14.026 1932.86 14.5823 Q1932.13 15.1093 1932.13 16.8367 L1932.13 39.6736 Q1932.13 43.6847 1933.24 46.4661 Q1934.35 49.2182 1936.08 50.4479 Q1937.81 51.6776 1939.21 52.146 Q1940.65 52.5852 1942.03 52.5852 Q1946.59 52.5852 1950.05 48.9547 Q1953.53 45.3242 1953.53 39.2637 L1953.53 18.447 Q1953.53 17.5393 1953.41 17.0123 Q1953.3 16.4853 1952.77 15.6656 Q1952.27 14.8458 1950.9 14.4359 Q1949.52 14.026 1947.35 14.026 L1947.35 12.1522 Q1953.82 12.3279 1954.5 12.3279 Q1955.08 12.3279 1961.55 12.1522 L1961.55 14.026 Q1959.39 14.026 1958.01 14.4066 Q1956.63 14.7872 1956.14 15.6363 Q1955.64 16.4853 1955.49 17.1002 Q1955.38 17.6857 1955.38 18.6812 L1955.38 37.8876 Q1955.38 40.8154 1955.2 42.0158 Q1954.41 47.2273 1950.69 50.8285 Q1947 54.4297 1941.91 54.4297 Q1935.73 54.4297 1931.25 50.0965 Q1926.8 45.7341 1926.8 39.4393 L1926.8 16.8367 Q1926.8 15.1093 1926.04 14.5823 Q1925.28 14.026 1922.06 14.026 L1920.62 14.026 Z" fill="#000000" fill-rule="nonzero" fill-opacity="1" /><path clip-path="url(#clip360)" d="M1968.49 53.1122 L1968.49 51.2677 Q1971.68 51.2677 1972.41 50.8871 Q1973.14 50.4772 1973.14 48.5448 L1973.14 32.4712 Q1973.14 30.246 1972.35 29.6897 Q1971.59 29.1335 1968.49 29.1335 L1968.49 27.2597 L1976.92 26.6155 L1976.92 32.9103 Q1979.73 26.6155 1985.79 26.6155 Q1990.3 26.6155 1992.08 28.8407 Q1993.4 30.3339 1993.67 32.0027 Q1993.96 33.6716 1993.96 38.0047 L1993.96 49.4524 Q1994.02 50.7114 1994.98 51.0042 Q1995.95 51.2677 1998.64 51.2677 L1998.64 53.1122 Q1992.52 52.9365 1991.91 52.9365 Q1991.44 52.9365 1985.15 53.1122 L1985.15 51.2677 Q1988.34 51.2677 1989.07 50.8871 Q1989.83 50.4772 1989.83 48.5448 L1989.83 34.5792 Q1989.83 31.5343 1988.89 29.7483 Q1987.96 27.9331 1985.38 27.9331 Q1982.28 27.9331 1979.79 30.5388 Q1977.3 33.1446 1977.3 37.5363 L1977.3 48.5448 Q1977.3 50.4772 1978.03 50.8871 Q1978.79 51.2677 1981.95 51.2677 L1981.95 53.1122 Q1975.83 52.9365 1975.25 52.9365 Q1974.78 52.9365 1968.49 53.1122 Z" fill="#000000" fill-rule="nonzero" fill-opacity="1" /><path clip-path="url(#clip360)" d="M2001.67 53.1122 L2001.67 51.2677 Q2004.86 51.2677 2005.59 50.8871 Q2006.32 50.4772 2006.32 48.5448 L2006.32 32.4126 Q2006.32 30.1875 2005.56 29.6605 Q2004.83 29.1335 2001.9 29.1335 L2001.9 27.2597 L2010.28 26.6155 L2010.28 48.6034 Q2010.28 50.3893 2010.92 50.8285 Q2011.57 51.2677 2014.49 51.2677 L2014.49 53.1122 Q2008.37 52.9365 2008.26 52.9365 Q2007.44 52.9365 2001.67 53.1122 M2004.19 16.1633 Q2004.19 14.9629 2005.09 13.9967 Q2006.03 13.0013 2007.35 13.0013 Q2008.67 13.0013 2009.6 13.9089 Q2010.54 14.7872 2010.54 16.1926 Q2010.54 17.5686 2009.6 18.4762 Q2008.67 19.3546 2007.35 19.3546 Q2005.97 19.3546 2005.07 18.3884 Q2004.19 17.4222 2004.19 16.1633 Z" fill="#000000" fill-rule="nonzero" fill-opacity="1" /><path clip-path="url(#clip360)" d="M2019.79 29.1335 L2019.79 27.2597 L2024.51 27.2597 L2024.51 20.3793 Q2024.51 15.9291 2027.37 13.3819 Q2030.27 10.8347 2033.82 10.8347 Q2036.16 10.8347 2037.68 12.0936 Q2039.2 13.3526 2039.2 15.0507 Q2039.2 16.1926 2038.5 16.9538 Q2037.83 17.6857 2036.57 17.6857 Q2035.37 17.6857 2034.67 16.9245 Q2033.99 16.1633 2033.99 15.1093 Q2033.99 13.1769 2035.78 12.5914 Q2034.87 12.1815 2033.82 12.1522 Q2031.65 12.1522 2029.95 14.3773 Q2028.28 16.6025 2028.28 20.3208 L2028.28 27.2597 L2035.31 27.2597 L2035.31 29.1335 L2028.49 29.1335 L2028.49 48.4277 Q2028.49 50.1551 2029.19 50.7114 Q2029.92 51.2677 2033.03 51.2677 L2034.28 51.2677 L2034.28 53.1122 Q2031.88 52.9365 2026.67 52.9365 Q2025.94 52.9365 2024.8 52.9658 Q2023.69 52.9951 2022.16 53.0536 Q2020.67 53.1122 2019.85 53.1122 L2019.85 51.2677 Q2023.04 51.2677 2023.77 50.8871 Q2024.51 50.4772 2024.51 48.5448 L2024.51 29.1335 L2019.79 29.1335 Z" fill="#000000" fill-rule="nonzero" fill-opacity="1" /><path clip-path="url(#clip360)" d="M2037.89 38.1218 Q2037.89 27.9916 2041.66 19.823 Q2043.27 16.3975 2045.53 13.5283 Q2047.78 10.659 2049.28 9.40005 Q2050.77 8.14109 2051.18 8.14109 Q2051.77 8.14109 2051.79 8.72665 Q2051.79 9.01944 2051 9.75139 Q2041.34 19.5888 2041.37 38.1218 Q2041.37 56.7134 2050.77 66.1702 Q2051.79 67.1949 2051.79 67.517 Q2051.79 68.1026 2051.18 68.1026 Q2050.77 68.1026 2049.34 66.9022 Q2047.9 65.7018 2045.68 62.9496 Q2043.45 60.1975 2041.84 56.8305 Q2037.89 48.6619 2037.89 38.1218 Z" fill="#000000" fill-rule="nonzero" fill-opacity="1" /><path clip-path="url(#clip360)" d="M2057.55 33.9351 Q2057.55 25.1224 2059.78 20.3208 Q2062.88 13.1769 2070.2 13.1769 Q2071.75 13.1769 2073.36 13.6161 Q2075 14.026 2077.05 15.6363 Q2079.13 17.2466 2080.39 19.8816 Q2082.79 24.976 2082.79 33.9351 Q2082.79 42.6892 2080.57 47.4615 Q2077.32 54.4297 2070.14 54.4297 Q2067.45 54.4297 2064.7 53.0536 Q2061.97 51.6776 2060.25 48.3691 Q2057.55 43.4212 2057.55 33.9351 M2062.53 33.2031 Q2062.53 42.25 2063.17 45.8512 Q2063.91 49.7452 2065.9 51.4433 Q2067.92 53.1122 2070.14 53.1122 Q2072.54 53.1122 2074.53 51.3262 Q2076.55 49.511 2077.17 45.617 Q2077.84 41.7816 2077.81 33.2031 Q2077.81 24.8589 2077.23 21.5212 Q2076.44 17.6272 2074.33 16.0754 Q2072.25 14.4944 2070.14 14.4944 Q2069.35 14.4944 2068.5 14.7287 Q2067.68 14.9629 2066.48 15.6363 Q2065.28 16.3097 2064.35 17.9785 Q2063.44 19.6474 2063 22.1653 Q2062.53 25.4151 2062.53 33.2031 Z" fill="#000000" fill-rule="nonzero" fill-opacity="1" /><path clip-path="url(#clip360)" d="M2088.1 52.146 Q2087.25 51.1798 2087.25 49.9209 Q2087.25 48.6619 2088.07 47.725 Q2088.92 46.7588 2090.44 46.7588 Q2092.23 46.7588 2093.25 48.4863 Q2094.27 50.1844 2094.27 53.0536 Q2094.27 56.1571 2093.02 59.0264 Q2091.76 61.9249 2090.53 63.301 Q2089.3 64.677 2088.8 64.677 Q2088.21 64.677 2088.21 64.0329 Q2088.21 63.7987 2088.62 63.3595 Q2092.93 58.7336 2092.96 53.0536 Q2092.96 52.146 2092.84 52.146 L2092.69 52.2631 Q2091.67 53.1122 2090.44 53.1122 Q2088.95 53.1122 2088.1 52.146 Z" fill="#000000" fill-rule="nonzero" fill-opacity="1" /><path clip-path="url(#clip360)" d="M2113.2 53.1122 Q2113.2 52.0289 2113.29 51.7068 Q2113.4 51.3848 2113.87 50.8871 L2125.38 38.0633 Q2131.67 30.978 2131.67 24.8003 Q2131.67 20.7892 2129.56 17.92 Q2127.49 15.0507 2123.65 15.0507 Q2121.02 15.0507 2118.79 16.661 Q2116.57 18.2713 2115.54 21.1406 Q2115.72 21.082 2116.33 21.082 Q2117.82 21.082 2118.64 22.0189 Q2119.49 22.9558 2119.49 24.2147 Q2119.49 25.825 2118.44 26.6155 Q2117.41 27.3768 2116.39 27.3768 Q2115.98 27.3768 2115.42 27.2889 Q2114.9 27.2011 2114.05 26.3813 Q2113.2 25.5323 2113.2 24.0391 Q2113.2 19.8523 2116.36 16.5146 Q2119.55 13.1769 2124.41 13.1769 Q2129.92 13.1769 2133.52 16.4561 Q2137.15 19.7059 2137.15 24.8003 Q2137.15 26.5863 2136.59 28.2258 Q2136.06 29.8361 2135.33 31.0951 Q2134.63 32.354 2132.7 34.3742 Q2130.77 36.3944 2129.21 37.829 Q2127.66 39.2637 2124.18 42.3086 L2117.82 48.4863 L2128.63 48.4863 Q2133.9 48.4863 2134.31 48.0178 Q2134.89 47.1687 2135.63 42.6892 L2137.15 42.6892 L2135.45 53.1122 L2113.2 53.1122 Z" fill="#000000" fill-rule="nonzero" fill-opacity="1" /><path clip-path="url(#clip360)" d="M2174.32 28.6943 Q2174.32 30.7438 2171.39 30.7438 L2164.54 30.7438 Q2163.48 35.6039 2163.48 40.2884 Q2163.48 45.8805 2165.21 50.1844 Q2165.56 51.0334 2165.56 51.5019 Q2165.56 52.3802 2164.77 53.0829 Q2164.01 53.7856 2163.1 53.7856 Q2162.34 53.7856 2161.84 53.2 Q2161.37 52.6145 2160.96 50.7699 Q2160.47 48.6034 2160.47 46.2026 Q2160.47 43.3333 2160.94 40.5812 Q2161.4 37.7998 2162.98 30.7438 L2156.22 30.7438 L2152.85 44.0067 Q2151.65 48.4863 2151.24 49.8623 Q2150.98 50.6821 2150.89 50.9456 Q2150.8 51.2091 2150.54 51.8532 Q2150.31 52.4681 2150.13 52.7023 Q2149.96 52.9072 2149.66 53.2293 Q2149.37 53.5806 2149.02 53.6685 Q2148.67 53.7856 2148.23 53.7856 Q2147.55 53.7856 2147.03 53.3464 Q2146.5 52.9365 2146.5 52.146 Q2146.5 51.619 2146.97 50.7114 Q2152.53 38.7074 2154.64 30.7438 L2151.24 30.7438 Q2146.56 30.7438 2143.63 35.3697 Q2143.16 35.9845 2142.9 36.0431 Q2142.78 36.0724 2142.67 36.0724 Q2142.34 36.0724 2142.14 35.926 Q2141.96 35.7796 2141.96 35.6332 L2141.93 35.4868 Q2141.93 35.3111 2142.37 34.5206 Q2142.84 33.7008 2143.72 32.4419 Q2144.63 31.1829 2145.59 30.0996 Q2146.53 29.1042 2147.44 28.4893 Q2148.37 27.8452 2149.25 27.611 Q2150.13 27.3768 2150.63 27.3182 Q2151.13 27.2597 2151.83 27.2597 L2171.91 27.2597 Q2172.68 27.2597 2173.09 27.3182 Q2173.5 27.3475 2173.91 27.6988 Q2174.32 28.0209 2174.32 28.6943 Z" fill="#000000" fill-rule="nonzero" fill-opacity="1" /><path clip-path="url(#clip360)" d="M2179.86 67.517 Q2179.86 67.2242 2180.62 66.4923 Q2190.28 56.6548 2190.28 38.1218 Q2190.28 19.5303 2181 10.132 Q2179.86 9.04871 2179.86 8.72665 Q2179.86 8.14109 2180.44 8.14109 Q2180.85 8.14109 2182.29 9.34149 Q2183.75 10.5419 2185.95 13.294 Q2188.17 16.0462 2189.81 19.4131 Q2193.76 27.5817 2193.76 38.1218 Q2193.76 48.252 2189.99 56.4206 Q2188.38 59.8461 2186.12 62.7154 Q2183.87 65.5846 2182.37 66.8436 Q2180.88 68.1026 2180.44 68.1026 Q2179.86 68.1026 2179.86 67.517 Z" fill="#000000" fill-rule="nonzero" fill-opacity="1" /><polyline clip-path="url(#clip362)" style="stroke:#009af9; stroke-linecap:round; stroke-linejoin:round; stroke-width:4; stroke-opacity:1; fill:none" points="255.035,1157.86 295.767,1043.09 336.5,918.471 377.232,788.986 417.964,659.794 458.697,536.045 499.429,422.671 540.162,324.195 580.894,244.54 621.627,186.883 662.359,153.522 703.092,145.787 743.824,163.987 784.557,207.397 825.289,274.284 866.021,361.984 906.754,466.999 947.486,585.143 988.219,711.706 1028.95,841.643 1069.68,969.772 1110.42,1090.99 1151.15,1200.45 1191.88,1293.81 1232.61,1367.33 1273.35,1418.09 1314.08,1444.06 1354.81,1444.2 1395.54,1418.52 1436.28,1368.03 1477.01,1294.75 1517.74,1201.6 1558.47,1092.29 1599.21,971.184 1639.94,843.105 1680.67,713.16 1721.4,586.53 1762.14,468.264 1802.87,363.077 1843.6,275.162 1884.33,208.023 1925.07,164.338 1965.8,145.848 2006.53,153.291 2047.26,186.368 2087.99,243.763 2128.73,323.186 2169.46,421.472 2210.19,534.702 2250.92,658.361 2291.66,787.521 "/>
<polyline clip-path="url(#clip362)" style="stroke:#e26f46; stroke-linecap:round; stroke-linejoin:round; stroke-width:4; stroke-opacity:1; fill:none" points="255.035,569.991 295.767,695.782 336.5,825.582 377.232,954.214 417.964,1076.55 458.697,1187.72 499.429,1283.28 540.162,1359.43 580.894,1413.13 621.627,1442.24 662.359,1445.59 703.092,1423.07 743.824,1375.56 784.557,1304.95 825.289,1214.07 866.021,1106.53 906.754,986.626 947.486,859.135 988.219,729.14 1028.95,601.823 1069.68,482.259 1110.42,375.217 1151.15,284.962 1191.88,215.094 1232.61,168.397 1273.35,146.734 1314.08,150.967 1354.81,180.929 1395.54,235.424 1436.28,312.28 1477.01,408.434 1517.74,520.051 1558.47,642.682 1599.21,771.439 1639.94,901.187 1680.67,1026.75 1721.4,1143.13 1762.14,1245.69 1802.87,1330.33 1843.6,1393.68 1884.33,1433.21 1925.07,1447.36 1965.8,1435.55 2006.53,1398.25 2047.26,1336.96 2087.99,1254.12 2128.73,1153.02 2169.46,1037.7 2210.19,912.762 2250.92,783.18 2291.66,654.121 "/>
<polyline clip-path="url(#clip362)" style="stroke:#3da44d; stroke-linecap:round; stroke-linejoin:round; stroke-width:4; stroke-opacity:1; fill:none" points="255.035,1447.14 295.767,1437.69 336.5,1402.66 377.232,1343.46 417.964,1262.45 458.697,1162.85 499.429,1048.64 540.162,924.377 580.894,795.005 621.627,665.685 662.359,541.573 703.092,427.616 743.824,328.359 784.557,247.758 825.289,189.026 866.021,154.505 906.754,145.572 947.486,162.581 988.219,204.856 1028.95,270.71 1069.68,357.519 1110.42,461.821 1151.15,579.459 1191.88,705.742 1232.61,835.637 1273.35,963.963 1314.08,1085.61 1354.81,1195.72 1395.54,1289.9 1436.28,1364.41 1477.01,1416.28 1517.74,1443.42 1558.47,1444.77 1599.21,1420.27 1639.94,1370.89 1680.67,1298.6 1721.4,1206.29 1762.14,1097.64 1802.87,976.975 1843.6,849.106 1884.33,719.133 1925.07,592.237 1965.8,473.477 2006.53,367.588 2047.26,278.791 2087.99,210.627 2128.73,165.812 2169.46,146.133 2210.19,152.375 2250.92,184.29 2291.66,240.603 "/>
<polyline clip-path="url(#clip362)" style="stroke:#c271d2; stroke-linecap:round; stroke-linejoin:round; stroke-width:4; stroke-opacity:1; fill:none" points="255.035,845.701 295.767,973.69 336.5,1094.61 377.232,1203.64 417.964,1296.42 458.697,1369.27 499.429,1419.28 540.162,1444.46 580.894,1443.79 621.627,1417.31 662.359,1366.08 703.092,1292.13 743.824,1198.41 784.557,1088.66 825.289,967.262 866.021,839.046 906.754,709.126 947.486,582.683 988.219,464.756 1028.95,360.048 1069.68,272.733 1110.42,206.292 1151.15,163.373 1191.88,145.687 1232.61,153.94 1273.35,187.803 1314.08,245.926 1354.81,325.991 1395.54,424.806 1436.28,538.433 1477.01,662.34 1517.74,791.589 1558.47,921.027 1599.21,1045.49 1639.94,1160.02 1680.67,1260.06 1721.4,1341.6 1762.14,1401.41 1802.87,1437.09 1843.6,1447.23 1884.33,1431.42 1925.07,1390.28 1965.8,1325.47 2006.53,1239.57 2047.26,1135.99 2087.99,1018.87 2128.73,892.878 2169.46,763.037 2210.19,634.523 2250.92,512.459 2291.66,401.712 "/>
<polyline clip-path="url(#clip362)" style="stroke:#ac8d18; stroke-linecap:round; stroke-linejoin:round; stroke-width:4; stroke-opacity:1; fill:none" points="255.035,145.445 295.767,161.547 336.5,202.955 377.232,268.019 417.964,354.145 458.697,457.898 499.429,575.144 540.162,701.207 580.894,831.062 621.627,959.532 662.359,1081.49 703.092,1192.09 743.824,1286.9 784.557,1362.16 825.289,1414.86 866.021,1442.9 906.754,1445.16 947.486,1421.56 988.219,1373.03 1028.95,1301.51 1069.68,1209.84 1110.42,1101.7 1151.15,981.372 1191.88,853.672 1232.61,723.685 1273.35,596.593 1314.08,477.464 1354.81,371.047 1395.54,281.584 1436.28,212.642 1477.01,166.97 1517.74,146.387 1558.47,151.715 1599.21,182.742 1639.94,238.23 1680.67,315.967 1721.4,412.854 1762.14,525.029 1802.87,648.02 1843.6,776.922 1884.33,906.598 1925.07,1031.88 1965.8,1147.77 2006.53,1249.64 2047.26,1333.45 2087.99,1395.84 2128.73,1434.33 2169.46,1447.38 2210.19,1434.48 2250.92,1396.14 2291.66,1333.88 "/>
<polyline clip-path="url(#clip362)" style="stroke:#00a9ad; stroke-linecap:round; stroke-linejoin:round; stroke-width:4; stroke-opacity:1; fill:none" points="255.035,234.161 295.767,310.615 336.5,406.433 377.232,517.794 417.964,640.259 458.697,768.946 499.429,898.724 540.162,1024.42 580.894,1141.02 621.627,1243.88 662.359,1328.9 703.092,1392.68 743.824,1432.69 784.557,1447.33 825.289,1436.02 866.021,1399.2 906.754,1338.35 947.486,1255.89 988.219,1155.1 1028.95,1040.02 1069.68,915.216 1110.42,785.674 1151.15,656.557 1191.88,533.012 1232.61,419.964 1273.35,321.92 1314.08,242.789 1354.81,185.725 1395.54,153.004 1436.28,145.93 1477.01,164.784 1517.74,208.817 1558.47,276.27 1599.21,364.457 1639.94,469.861 1680.67,588.279 1721.4,714.992 1762.14,844.946 1802.87,972.962 1843.6,1093.94 1884.33,1203.04 1925.07,1295.94 1965.8,1368.91 2006.53,1419.06 2047.26,1444.38 2087.99,1443.87 2128.73,1417.54 2169.46,1366.44 2210.19,1292.62 2250.92,1199 2291.66,1089.34 "/>
<polyline clip-path="url(#clip362)" style="stroke:#ed5d92; stroke-linecap:round; stroke-linejoin:round; stroke-width:4; stroke-opacity:1; fill:none" points="255.035,509.258 295.767,631.075 336.5,759.481 377.232,889.354 417.964,1015.52 458.697,1132.94 499.429,1236.95 540.162,1323.39 580.894,1388.82 621.627,1430.62 662.359,1447.14 703.092,1437.71 743.824,1402.71 784.557,1343.54 825.289,1262.55 866.021,1162.97 906.754,1048.78 947.486,924.52 988.219,795.151 1028.95,665.827 1069.68,541.707 1110.42,427.736 1151.15,328.46 1191.88,247.836 1232.61,189.079 1273.35,154.53 1314.08,145.567 1354.81,162.548 1395.54,204.795 1436.28,270.624 1477.01,357.411 1517.74,461.696 1558.47,579.322 1599.21,705.598 1639.94,835.491 1680.67,963.823 1721.4,1085.48 1762.14,1195.6 1802.87,1289.81 1843.6,1364.34 1884.33,1416.23 1925.07,1443.41 1965.8,1444.78 2006.53,1420.31 2047.26,1370.96 2087.99,1298.7 2128.73,1206.41 2169.46,1097.77 2210.19,977.114 2250.92,849.251 2291.66,719.278 "/>
<polyline clip-path="url(#clip362)" style="stroke:#c68125; stroke-linecap:round; stroke-linejoin:round; stroke-width:4; stroke-opacity:1; fill:none" points="255.035,1277.74 295.767,1181.06 336.5,1069.05 377.232,946.158 417.964,817.296 458.697,687.599 499.429,562.236 540.162,446.204 580.894,344.131 621.627,260.085 662.359,197.418 703.092,158.626 743.824,145.257 784.557,157.844 825.289,195.885 866.021,257.864 906.754,341.309 947.486,442.893 988.219,558.568 1028.95,683.721 1069.68,813.363 1110.42,942.326 1151.15,1065.47 1191.88,1177.88 1232.61,1275.08 1273.35,1353.19 1314.08,1409.11 1354.81,1440.59 1395.54,1446.39 1436.28,1426.27 1477.01,1381.04 1517.74,1312.49 1558.47,1223.37 1599.21,1117.22 1639.94,998.284 1680.67,871.292 1721.4,741.312 1762.14,613.524 1802.87,493.024 1843.6,384.615 1884.33,292.62 1925.07,220.705 1965.8,171.739 2006.53,147.672 2047.26,149.465 2087.99,177.046 2128.73,229.315 2169.46,304.19 2210.19,398.683 2250.92,509.03 2291.66,630.829 "/>
<polyline clip-path="url(#clip362)" style="stroke:#00a98d; stroke-linecap:round; stroke-linejoin:round; stroke-width:4; stroke-opacity:1; fill:none" points="255.035,1116.8 295.767,1223.01 336.5,1312.2 377.232,1380.82 417.964,1426.15 458.697,1446.36 499.429,1440.66 540.162,1409.27 580.894,1353.44 621.627,1275.41 662.359,1178.27 703.092,1065.91 743.824,942.796 784.557,813.845 825.289,684.196 866.021,559.017 906.754,443.298 947.486,341.654 988.219,258.135 1028.95,196.072 1069.68,157.939 1110.42,145.256 1151.15,158.529 1191.88,197.229 1232.61,259.812 1273.35,343.785 1314.08,445.798 1354.81,561.786 1395.54,687.124 1436.28,816.815 1477.01,945.689 1517.74,1068.61 1558.47,1180.67 1599.21,1277.41 1639.94,1354.97 1680.67,1410.26 1721.4,1441.08 1762.14,1446.19 1802.87,1425.39 1843.6,1379.51 1884.33,1310.38 1925.07,1220.76 1965.8,1114.22 2006.53,994.999 2047.26,867.862 2087.99,737.872 2128.73,610.213 2169.46,489.973 2210.19,381.946 2250.92,290.439 2291.66,219.1 "/>
<polyline clip-path="url(#clip362)" style="stroke:#8e971d; stroke-linecap:round; stroke-linejoin:round; stroke-width:4; stroke-opacity:1; fill:none" points="255.035,193.179 295.767,253.909 336.5,336.264 377.232,436.959 417.964,551.981 458.697,676.743 499.429,806.273 540.162,935.407 580.894,1058.99 621.627,1172.11 662.359,1270.25 703.092,1349.49 743.824,1406.67 784.557,1439.53 825.289,1446.74 866.021,1428.02 906.754,1384.12 947.486,1316.78 988.219,1228.7 1028.95,1123.38 1069.68,1005.01 1110.42,878.332 1151.15,748.381 1191.88,620.341 1232.61,499.317 1273.35,390.133 1314.08,297.143 1354.81,224.053 1395.54,173.778 1436.28,148.321 1477.01,148.698 1517.74,174.894 1558.47,225.864 1599.21,299.576 1639.94,393.092 1680.67,502.683 1721.4,623.981 1762.14,752.149 1802.87,882.078 1843.6,1008.59 1884.33,1126.64 1925.07,1231.51 1965.8,1319.04 2006.53,1385.73 2047.26,1428.93 2087.99,1446.9 2128.73,1438.93 2169.46,1405.35 2210.19,1347.48 2250.92,1267.65 2291.66,1169.02 "/>
</svg>
