<?xml version="1.0" encoding="utf-8"?>
<svg xmlns="http://www.w3.org/2000/svg" xmlns:xlink="http://www.w3.org/1999/xlink" width="600" height="400" viewBox="0 0 2400 1600">
<defs>
  <clipPath id="clip660">
    <rect x="0" y="0" width="2400" height="1600"/>
  </clipPath>
</defs>
<path clip-path="url(#clip660)" d="M0 1600 L2400 1600 L2400 0 L0 0  Z" fill="#ffffff" fill-rule="evenodd" fill-opacity="1"/>
<defs>
  <clipPath id="clip661">
    <rect x="480" y="0" width="1681" height="1600"/>
  </clipPath>
</defs>
<path clip-path="url(#clip660)" d="M148.057 1486.45 L2352.76 1486.45 L2352.76 106.192 L148.057 106.192  Z" fill="#eaeaea" fill-rule="evenodd" fill-opacity="1"/>
<defs>
  <clipPath id="clip662">
    <rect x="148" y="106" width="2206" height="1381"/>
  </clipPath>
</defs>
<polyline clip-path="url(#clip662)" style="stroke:#ffffff; stroke-linecap:round; stroke-linejoin:round; stroke-width:4; stroke-opacity:1; fill:none" points="210.454,1486.45 210.454,106.192 "/>
<polyline clip-path="url(#clip662)" style="stroke:#ffffff; stroke-linecap:round; stroke-linejoin:round; stroke-width:4; stroke-opacity:1; fill:none" points="717.748,1486.45 717.748,106.192 "/>
<polyline clip-path="url(#clip662)" style="stroke:#ffffff; stroke-linecap:round; stroke-linejoin:round; stroke-width:4; stroke-opacity:1; fill:none" points="1225.04,1486.45 1225.04,106.192 "/>
<polyline clip-path="url(#clip662)" style="stroke:#ffffff; stroke-linecap:round; stroke-linejoin:round; stroke-width:4; stroke-opacity:1; fill:none" points="1732.34,1486.45 1732.34,106.192 "/>
<polyline clip-path="url(#clip662)" style="stroke:#ffffff; stroke-linecap:round; stroke-linejoin:round; stroke-width:4; stroke-opacity:1; fill:none" points="2239.63,1486.45 2239.63,106.192 "/>
<polyline clip-path="url(#clip662)" style="stroke:#ffffff; stroke-linecap:round; stroke-linejoin:round; stroke-width:2; stroke-opacity:1; fill:none" points="464.101,1486.45 464.101,106.192 "/>
<polyline clip-path="url(#clip662)" style="stroke:#ffffff; stroke-linecap:round; stroke-linejoin:round; stroke-width:2; stroke-opacity:1; fill:none" points="971.395,1486.45 971.395,106.192 "/>
<polyline clip-path="url(#clip662)" style="stroke:#ffffff; stroke-linecap:round; stroke-linejoin:round; stroke-width:2; stroke-opacity:1; fill:none" points="1478.69,1486.45 1478.69,106.192 "/>
<polyline clip-path="url(#clip662)" style="stroke:#ffffff; stroke-linecap:round; stroke-linejoin:round; stroke-width:2; stroke-opacity:1; fill:none" points="1985.98,1486.45 1985.98,106.192 "/>
<polyline clip-path="url(#clip660)" style="stroke:#ffffff; stroke-linecap:round; stroke-linejoin:round; stroke-width:4; stroke-opacity:1; fill:none" points="148.057,1486.45 2352.76,1486.45 "/>
<polyline clip-path="url(#clip660)" style="stroke:#333333; stroke-linecap:round; stroke-linejoin:round; stroke-width:4; stroke-opacity:1; fill:none" points="210.454,1486.45 210.454,1505.35 "/>
<polyline clip-path="url(#clip660)" style="stroke:#333333; stroke-linecap:round; stroke-linejoin:round; stroke-width:4; stroke-opacity:1; fill:none" points="717.748,1486.45 717.748,1505.35 "/>
<polyline clip-path="url(#clip660)" style="stroke:#333333; stroke-linecap:round; stroke-linejoin:round; stroke-width:4; stroke-opacity:1; fill:none" points="1225.04,1486.45 1225.04,1505.35 "/>
<polyline clip-path="url(#clip660)" style="stroke:#333333; stroke-linecap:round; stroke-linejoin:round; stroke-width:4; stroke-opacity:1; fill:none" points="1732.34,1486.45 1732.34,1505.35 "/>
<polyline clip-path="url(#clip660)" style="stroke:#333333; stroke-linecap:round; stroke-linejoin:round; stroke-width:4; stroke-opacity:1; fill:none" points="2239.63,1486.45 2239.63,1505.35 "/>
<polyline clip-path="url(#clip660)" style="stroke:#333333; stroke-linecap:round; stroke-linejoin:round; stroke-width:4; stroke-opacity:1; fill:none" points="464.101,1486.45 464.101,1495.9 "/>
<polyline clip-path="url(#clip660)" style="stroke:#333333; stroke-linecap:round; stroke-linejoin:round; stroke-width:4; stroke-opacity:1; fill:none" points="971.395,1486.45 971.395,1495.9 "/>
<polyline clip-path="url(#clip660)" style="stroke:#333333; stroke-linecap:round; stroke-linejoin:round; stroke-width:4; stroke-opacity:1; fill:none" points="1478.69,1486.45 1478.69,1495.9 "/>
<polyline clip-path="url(#clip660)" style="stroke:#333333; stroke-linecap:round; stroke-linejoin:round; stroke-width:4; stroke-opacity:1; fill:none" points="1985.98,1486.45 1985.98,1495.9 "/>
<path clip-path="url(#clip660)" d="M210.454 1526.97 Q206.843 1526.97 205.014 1530.53 Q203.208 1534.07 203.208 1541.2 Q203.208 1548.31 205.014 1551.87 Q206.843 1555.42 210.454 1555.42 Q214.088 1555.42 215.894 1551.87 Q217.722 1548.31 217.722 1541.2 Q217.722 1534.07 215.894 1530.53 Q214.088 1526.97 210.454 1526.97 M210.454 1523.26 Q216.264 1523.26 219.319 1527.87 Q222.398 1532.45 222.398 1541.2 Q222.398 1549.93 219.319 1554.54 Q216.264 1559.12 210.454 1559.12 Q204.644 1559.12 201.565 1554.54 Q198.509 1549.93 198.509 1541.2 Q198.509 1532.45 201.565 1527.87 Q204.644 1523.26 210.454 1523.26 Z" fill="#4c4c4c" fill-rule="nonzero" fill-opacity="1" /><path clip-path="url(#clip660)" d="M692.435 1554.51 L700.074 1554.51 L700.074 1528.15 L691.764 1529.81 L691.764 1525.55 L700.028 1523.89 L704.704 1523.89 L704.704 1554.51 L712.343 1554.51 L712.343 1558.45 L692.435 1558.45 L692.435 1554.51 Z" fill="#4c4c4c" fill-rule="nonzero" fill-opacity="1" /><path clip-path="url(#clip660)" d="M731.787 1526.97 Q728.176 1526.97 726.347 1530.53 Q724.542 1534.07 724.542 1541.2 Q724.542 1548.31 726.347 1551.87 Q728.176 1555.42 731.787 1555.42 Q735.421 1555.42 737.227 1551.87 Q739.055 1548.31 739.055 1541.2 Q739.055 1534.07 737.227 1530.53 Q735.421 1526.97 731.787 1526.97 M731.787 1523.26 Q737.597 1523.26 740.653 1527.87 Q743.731 1532.45 743.731 1541.2 Q743.731 1549.93 740.653 1554.54 Q737.597 1559.12 731.787 1559.12 Q725.977 1559.12 722.898 1554.54 Q719.843 1549.93 719.843 1541.2 Q719.843 1532.45 722.898 1527.87 Q725.977 1523.26 731.787 1523.26 Z" fill="#4c4c4c" fill-rule="nonzero" fill-opacity="1" /><path clip-path="url(#clip660)" d="M1203.81 1554.51 L1220.13 1554.51 L1220.13 1558.45 L1198.19 1558.45 L1198.19 1554.51 Q1200.85 1551.76 1205.44 1547.13 Q1210.04 1542.48 1211.22 1541.13 Q1213.47 1538.61 1214.35 1536.87 Q1215.25 1535.11 1215.25 1533.42 Q1215.25 1530.67 1213.31 1528.93 Q1211.38 1527.2 1208.28 1527.2 Q1206.08 1527.2 1203.63 1527.96 Q1201.2 1528.73 1198.42 1530.28 L1198.42 1525.55 Q1201.25 1524.42 1203.7 1523.84 Q1206.15 1523.26 1208.19 1523.26 Q1213.56 1523.26 1216.75 1525.95 Q1219.95 1528.63 1219.95 1533.12 Q1219.95 1535.25 1219.14 1537.17 Q1218.35 1539.07 1216.25 1541.67 Q1215.67 1542.34 1212.56 1545.55 Q1209.46 1548.75 1203.81 1554.51 Z" fill="#4c4c4c" fill-rule="nonzero" fill-opacity="1" /><path clip-path="url(#clip660)" d="M1239.95 1526.97 Q1236.34 1526.97 1234.51 1530.53 Q1232.7 1534.07 1232.7 1541.2 Q1232.7 1548.31 1234.51 1551.87 Q1236.34 1555.42 1239.95 1555.42 Q1243.58 1555.42 1245.39 1551.87 Q1247.22 1548.31 1247.22 1541.2 Q1247.22 1534.07 1245.39 1530.53 Q1243.58 1526.97 1239.95 1526.97 M1239.95 1523.26 Q1245.76 1523.26 1248.81 1527.87 Q1251.89 1532.45 1251.89 1541.2 Q1251.89 1549.93 1248.81 1554.54 Q1245.76 1559.12 1239.95 1559.12 Q1234.14 1559.12 1231.06 1554.54 Q1228 1549.93 1228 1541.2 Q1228 1532.45 1231.06 1527.87 Q1234.14 1523.26 1239.95 1523.26 Z" fill="#4c4c4c" fill-rule="nonzero" fill-opacity="1" /><path clip-path="url(#clip660)" d="M1721.18 1539.81 Q1724.53 1540.53 1726.41 1542.8 Q1728.31 1545.07 1728.31 1548.4 Q1728.31 1553.52 1724.79 1556.32 Q1721.27 1559.12 1714.79 1559.12 Q1712.61 1559.12 1710.3 1558.68 Q1708.01 1558.26 1705.55 1557.41 L1705.55 1552.89 Q1707.5 1554.03 1709.81 1554.61 Q1712.13 1555.18 1714.65 1555.18 Q1719.05 1555.18 1721.34 1553.45 Q1723.65 1551.71 1723.65 1548.4 Q1723.65 1545.35 1721.5 1543.63 Q1719.37 1541.9 1715.55 1541.9 L1711.53 1541.9 L1711.53 1538.05 L1715.74 1538.05 Q1719.19 1538.05 1721.02 1536.69 Q1722.84 1535.3 1722.84 1532.71 Q1722.84 1530.05 1720.95 1528.63 Q1719.07 1527.2 1715.55 1527.2 Q1713.63 1527.2 1711.43 1527.61 Q1709.23 1528.03 1706.59 1528.91 L1706.59 1524.74 Q1709.26 1524 1711.57 1523.63 Q1713.91 1523.26 1715.97 1523.26 Q1721.29 1523.26 1724.4 1525.69 Q1727.5 1528.1 1727.5 1532.22 Q1727.5 1535.09 1725.85 1537.08 Q1724.21 1539.05 1721.18 1539.81 Z" fill="#4c4c4c" fill-rule="nonzero" fill-opacity="1" /><path clip-path="url(#clip660)" d="M1747.17 1526.97 Q1743.56 1526.97 1741.73 1530.53 Q1739.93 1534.07 1739.93 1541.2 Q1739.93 1548.31 1741.73 1551.87 Q1743.56 1555.42 1747.17 1555.42 Q1750.81 1555.42 1752.61 1551.87 Q1754.44 1548.31 1754.44 1541.2 Q1754.44 1534.07 1752.61 1530.53 Q1750.81 1526.97 1747.17 1526.97 M1747.17 1523.26 Q1752.98 1523.26 1756.04 1527.87 Q1759.12 1532.45 1759.12 1541.2 Q1759.12 1549.93 1756.04 1554.54 Q1752.98 1559.12 1747.17 1559.12 Q1741.36 1559.12 1738.28 1554.54 Q1735.23 1549.93 1735.23 1541.2 Q1735.23 1532.45 1738.28 1527.87 Q1741.36 1523.26 1747.17 1523.26 Z" fill="#4c4c4c" fill-rule="nonzero" fill-opacity="1" /><path clip-path="url(#clip660)" d="M2227.8 1527.96 L2216 1546.41 L2227.8 1546.41 L2227.8 1527.96 M2226.57 1523.89 L2232.45 1523.89 L2232.45 1546.41 L2237.38 1546.41 L2237.38 1550.3 L2232.45 1550.3 L2232.45 1558.45 L2227.8 1558.45 L2227.8 1550.3 L2212.2 1550.3 L2212.2 1545.79 L2226.57 1523.89 Z" fill="#4c4c4c" fill-rule="nonzero" fill-opacity="1" /><path clip-path="url(#clip660)" d="M2255.12 1526.97 Q2251.5 1526.97 2249.68 1530.53 Q2247.87 1534.07 2247.87 1541.2 Q2247.87 1548.31 2249.68 1551.87 Q2251.5 1555.42 2255.12 1555.42 Q2258.75 1555.42 2260.56 1551.87 Q2262.38 1548.31 2262.38 1541.2 Q2262.38 1534.07 2260.56 1530.53 Q2258.75 1526.97 2255.12 1526.97 M2255.12 1523.26 Q2260.93 1523.26 2263.98 1527.87 Q2267.06 1532.45 2267.06 1541.2 Q2267.06 1549.93 2263.98 1554.54 Q2260.93 1559.12 2255.12 1559.12 Q2249.31 1559.12 2246.23 1554.54 Q2243.17 1549.93 2243.17 1541.2 Q2243.17 1532.45 2246.23 1527.87 Q2249.31 1523.26 2255.12 1523.26 Z" fill="#4c4c4c" fill-rule="nonzero" fill-opacity="1" /><polyline clip-path="url(#clip662)" style="stroke:#ffffff; stroke-linecap:round; stroke-linejoin:round; stroke-width:4; stroke-opacity:1; fill:none" points="148.057,1447.38 2352.76,1447.38 "/>
<polyline clip-path="url(#clip662)" style="stroke:#ffffff; stroke-linecap:round; stroke-linejoin:round; stroke-width:4; stroke-opacity:1; fill:none" points="148.057,1230.36 2352.76,1230.36 "/>
<polyline clip-path="url(#clip662)" style="stroke:#ffffff; stroke-linecap:round; stroke-linejoin:round; stroke-width:4; stroke-opacity:1; fill:none" points="148.057,1013.34 2352.76,1013.34 "/>
<polyline clip-path="url(#clip662)" style="stroke:#ffffff; stroke-linecap:round; stroke-linejoin:round; stroke-width:4; stroke-opacity:1; fill:none" points="148.057,796.32 2352.76,796.32 "/>
<polyline clip-path="url(#clip662)" style="stroke:#ffffff; stroke-linecap:round; stroke-linejoin:round; stroke-width:4; stroke-opacity:1; fill:none" points="148.057,579.299 2352.76,579.299 "/>
<polyline clip-path="url(#clip662)" style="stroke:#ffffff; stroke-linecap:round; stroke-linejoin:round; stroke-width:4; stroke-opacity:1; fill:none" points="148.057,362.277 2352.76,362.277 "/>
<polyline clip-path="url(#clip662)" style="stroke:#ffffff; stroke-linecap:round; stroke-linejoin:round; stroke-width:4; stroke-opacity:1; fill:none" points="148.057,145.256 2352.76,145.256 "/>
<polyline clip-path="url(#clip662)" style="stroke:#ffffff; stroke-linecap:round; stroke-linejoin:round; stroke-width:2; stroke-opacity:1; fill:none" points="148.057,1338.87 2352.76,1338.87 "/>
<polyline clip-path="url(#clip662)" style="stroke:#ffffff; stroke-linecap:round; stroke-linejoin:round; stroke-width:2; stroke-opacity:1; fill:none" points="148.057,1121.85 2352.76,1121.85 "/>
<polyline clip-path="url(#clip662)" style="stroke:#ffffff; stroke-linecap:round; stroke-linejoin:round; stroke-width:2; stroke-opacity:1; fill:none" points="148.057,904.831 2352.76,904.831 "/>
<polyline clip-path="url(#clip662)" style="stroke:#ffffff; stroke-linecap:round; stroke-linejoin:round; stroke-width:2; stroke-opacity:1; fill:none" points="148.057,687.809 2352.76,687.809 "/>
<polyline clip-path="url(#clip662)" style="stroke:#ffffff; stroke-linecap:round; stroke-linejoin:round; stroke-width:2; stroke-opacity:1; fill:none" points="148.057,470.788 2352.76,470.788 "/>
<polyline clip-path="url(#clip662)" style="stroke:#ffffff; stroke-linecap:round; stroke-linejoin:round; stroke-width:2; stroke-opacity:1; fill:none" points="148.057,253.767 2352.76,253.767 "/>
<polyline clip-path="url(#clip660)" style="stroke:#ffffff; stroke-linecap:round; stroke-linejoin:round; stroke-width:4; stroke-opacity:1; fill:none" points="148.057,1486.45 148.057,106.192 "/>
<polyline clip-path="url(#clip660)" style="stroke:#333333; stroke-linecap:round; stroke-linejoin:round; stroke-width:4; stroke-opacity:1; fill:none" points="148.057,1447.38 129.159,1447.38 "/>
<polyline clip-path="url(#clip660)" style="stroke:#333333; stroke-linecap:round; stroke-linejoin:round; stroke-width:4; stroke-opacity:1; fill:none" points="148.057,1230.36 129.159,1230.36 "/>
<polyline clip-path="url(#clip660)" style="stroke:#333333; stroke-linecap:round; stroke-linejoin:round; stroke-width:4; stroke-opacity:1; fill:none" points="148.057,1013.34 129.159,1013.34 "/>
<polyline clip-path="url(#clip660)" style="stroke:#333333; stroke-linecap:round; stroke-linejoin:round; stroke-width:4; stroke-opacity:1; fill:none" points="148.057,796.32 129.159,796.32 "/>
<polyline clip-path="url(#clip660)" style="stroke:#333333; stroke-linecap:round; stroke-linejoin:round; stroke-width:4; stroke-opacity:1; fill:none" points="148.057,579.299 129.159,579.299 "/>
<polyline clip-path="url(#clip660)" style="stroke:#333333; stroke-linecap:round; stroke-linejoin:round; stroke-width:4; stroke-opacity:1; fill:none" points="148.057,362.277 129.159,362.277 "/>
<polyline clip-path="url(#clip660)" style="stroke:#333333; stroke-linecap:round; stroke-linejoin:round; stroke-width:4; stroke-opacity:1; fill:none" points="148.057,145.256 129.159,145.256 "/>
<polyline clip-path="url(#clip660)" style="stroke:#333333; stroke-linecap:round; stroke-linejoin:round; stroke-width:4; stroke-opacity:1; fill:none" points="148.057,1338.87 138.608,1338.87 "/>
<polyline clip-path="url(#clip660)" style="stroke:#333333; stroke-linecap:round; stroke-linejoin:round; stroke-width:4; stroke-opacity:1; fill:none" points="148.057,1121.85 138.608,1121.85 "/>
<polyline clip-path="url(#clip660)" style="stroke:#333333; stroke-linecap:round; stroke-linejoin:round; stroke-width:4; stroke-opacity:1; fill:none" points="148.057,904.831 138.608,904.831 "/>
<polyline clip-path="url(#clip660)" style="stroke:#333333; stroke-linecap:round; stroke-linejoin:round; stroke-width:4; stroke-opacity:1; fill:none" points="148.057,687.809 138.608,687.809 "/>
<polyline clip-path="url(#clip660)" style="stroke:#333333; stroke-linecap:round; stroke-linejoin:round; stroke-width:4; stroke-opacity:1; fill:none" points="148.057,470.788 138.608,470.788 "/>
<polyline clip-path="url(#clip660)" style="stroke:#333333; stroke-linecap:round; stroke-linejoin:round; stroke-width:4; stroke-opacity:1; fill:none" points="148.057,253.767 138.608,253.767 "/>
<path clip-path="url(#clip660)" d="M32.9921 1447.84 L62.6679 1447.84 L62.6679 1451.77 L32.9921 1451.77 L32.9921 1447.84 Z" fill="#4c4c4c" fill-rule="nonzero" fill-opacity="1" /><path clip-path="url(#clip660)" d="M86.927 1446.03 Q90.2835 1446.75 92.1585 1449.02 Q94.0566 1451.28 94.0566 1454.62 Q94.0566 1459.73 90.5381 1462.53 Q87.0196 1465.34 80.5382 1465.34 Q78.3623 1465.34 76.0475 1464.9 Q73.7558 1464.48 71.3021 1463.62 L71.3021 1459.11 Q73.2465 1460.24 75.5613 1460.82 Q77.8761 1461.4 80.3993 1461.4 Q84.7974 1461.4 87.0891 1459.66 Q89.4039 1457.93 89.4039 1454.62 Q89.4039 1451.56 87.2511 1449.85 Q85.1215 1448.11 81.3021 1448.11 L77.2743 1448.11 L77.2743 1444.27 L81.4872 1444.27 Q84.9363 1444.27 86.765 1442.9 Q88.5937 1441.52 88.5937 1438.92 Q88.5937 1436.26 86.6955 1434.85 Q84.8206 1433.41 81.3021 1433.41 Q79.3808 1433.41 77.1817 1433.83 Q74.9826 1434.25 72.3438 1435.13 L72.3438 1430.96 Q75.0058 1430.22 77.3206 1429.85 Q79.6585 1429.48 81.7187 1429.48 Q87.0428 1429.48 90.1446 1431.91 Q93.2464 1434.32 93.2464 1438.44 Q93.2464 1441.31 91.6029 1443.3 Q89.9594 1445.27 86.927 1446.03 Z" fill="#4c4c4c" fill-rule="nonzero" fill-opacity="1" /><path clip-path="url(#clip660)" d="M33.9412 1230.81 L63.617 1230.81 L63.617 1234.75 L33.9412 1234.75 L33.9412 1230.81 Z" fill="#4c4c4c" fill-rule="nonzero" fill-opacity="1" /><path clip-path="url(#clip660)" d="M77.7373 1243.71 L94.0566 1243.71 L94.0566 1247.64 L72.1123 1247.64 L72.1123 1243.71 Q74.7743 1240.95 79.3576 1236.32 Q83.9641 1231.67 85.1446 1230.33 Q87.39 1227.8 88.2696 1226.07 Q89.1724 1224.31 89.1724 1222.62 Q89.1724 1219.87 87.2279 1218.13 Q85.3067 1216.39 82.2048 1216.39 Q80.0058 1216.39 77.5521 1217.16 Q75.1215 1217.92 72.3438 1219.47 L72.3438 1214.75 Q75.1678 1213.62 77.6215 1213.04 Q80.0752 1212.46 82.1122 1212.46 Q87.4826 1212.46 90.677 1215.14 Q93.8714 1217.83 93.8714 1222.32 Q93.8714 1224.45 93.0612 1226.37 Q92.2742 1228.27 90.1677 1230.86 Q89.589 1231.53 86.4872 1234.75 Q83.3854 1237.94 77.7373 1243.71 Z" fill="#4c4c4c" fill-rule="nonzero" fill-opacity="1" /><path clip-path="url(#clip660)" d="M33.5708 1013.79 L63.2466 1013.79 L63.2466 1017.73 L33.5708 1017.73 L33.5708 1013.79 Z" fill="#4c4c4c" fill-rule="nonzero" fill-opacity="1" /><path clip-path="url(#clip660)" d="M74.1493 1026.69 L81.7882 1026.69 L81.7882 1000.32 L73.478 1001.99 L73.478 997.728 L81.7419 996.061 L86.4178 996.061 L86.4178 1026.69 L94.0566 1026.69 L94.0566 1030.62 L74.1493 1030.62 L74.1493 1026.69 Z" fill="#4c4c4c" fill-rule="nonzero" fill-opacity="1" /><path clip-path="url(#clip660)" d="M82.1122 782.119 Q78.5011 782.119 76.6724 785.683 Q74.8669 789.225 74.8669 796.355 Q74.8669 803.461 76.6724 807.026 Q78.5011 810.568 82.1122 810.568 Q85.7465 810.568 87.552 807.026 Q89.3807 803.461 89.3807 796.355 Q89.3807 789.225 87.552 785.683 Q85.7465 782.119 82.1122 782.119 M82.1122 778.415 Q87.9224 778.415 90.9779 783.021 Q94.0566 787.605 94.0566 796.355 Q94.0566 805.082 90.9779 809.688 Q87.9224 814.271 82.1122 814.271 Q76.3021 814.271 73.2234 809.688 Q70.1679 805.082 70.1679 796.355 Q70.1679 787.605 73.2234 783.021 Q76.3021 778.415 82.1122 778.415 Z" fill="#4c4c4c" fill-rule="nonzero" fill-opacity="1" /><path clip-path="url(#clip660)" d="M74.1493 592.643 L81.7882 592.643 L81.7882 566.278 L73.478 567.945 L73.478 563.685 L81.7419 562.019 L86.4178 562.019 L86.4178 592.643 L94.0566 592.643 L94.0566 596.579 L74.1493 596.579 L74.1493 592.643 Z" fill="#4c4c4c" fill-rule="nonzero" fill-opacity="1" /><path clip-path="url(#clip660)" d="M77.7373 375.622 L94.0566 375.622 L94.0566 379.557 L72.1123 379.557 L72.1123 375.622 Q74.7743 372.868 79.3576 368.238 Q83.9641 363.585 85.1446 362.243 Q87.39 359.719 88.2696 357.983 Q89.1724 356.224 89.1724 354.534 Q89.1724 351.78 87.2279 350.044 Q85.3067 348.307 82.2048 348.307 Q80.0058 348.307 77.5521 349.071 Q75.1215 349.835 72.3438 351.386 L72.3438 346.664 Q75.1678 345.53 77.6215 344.951 Q80.0752 344.372 82.1122 344.372 Q87.4826 344.372 90.677 347.057 Q93.8714 349.743 93.8714 354.233 Q93.8714 356.363 93.0612 358.284 Q92.2742 360.182 90.1677 362.775 Q89.589 363.446 86.4872 366.664 Q83.3854 369.858 77.7373 375.622 Z" fill="#4c4c4c" fill-rule="nonzero" fill-opacity="1" /><path clip-path="url(#clip660)" d="M86.927 143.902 Q90.2835 144.619 92.1585 146.888 Q94.0566 149.156 94.0566 152.49 Q94.0566 157.605 90.5381 160.406 Q87.0196 163.207 80.5382 163.207 Q78.3623 163.207 76.0475 162.767 Q73.7558 162.351 71.3021 161.494 L71.3021 156.98 Q73.2465 158.115 75.5613 158.693 Q77.8761 159.272 80.3993 159.272 Q84.7974 159.272 87.0891 157.536 Q89.4039 155.8 89.4039 152.49 Q89.4039 149.434 87.2511 147.721 Q85.1215 145.985 81.3021 145.985 L77.2743 145.985 L77.2743 142.143 L81.4872 142.143 Q84.9363 142.143 86.765 140.777 Q88.5937 139.388 88.5937 136.795 Q88.5937 134.133 86.6955 132.721 Q84.8206 131.286 81.3021 131.286 Q79.3808 131.286 77.1817 131.703 Q74.9826 132.119 72.3438 132.999 L72.3438 128.832 Q75.0058 128.092 77.3206 127.721 Q79.6585 127.351 81.7187 127.351 Q87.0428 127.351 90.1446 129.782 Q93.2464 132.189 93.2464 136.309 Q93.2464 139.18 91.6029 141.17 Q89.9594 143.138 86.927 143.902 Z" fill="#4c4c4c" fill-rule="nonzero" fill-opacity="1" /><path clip-path="url(#clip660)" d="M331.415 11.9675 L331.415 18.1307 Q328.464 15.3819 325.107 14.0219 Q321.78 12.662 318.018 12.662 Q310.611 12.662 306.676 17.2048 Q302.741 21.7186 302.741 30.2834 Q302.741 38.8192 306.676 43.362 Q310.611 47.8759 318.018 47.8759 Q321.78 47.8759 325.107 46.516 Q328.464 45.156 331.415 42.4072 L331.415 48.5125 Q328.348 50.5958 324.905 51.6375 Q321.491 52.6791 317.671 52.6791 Q307.862 52.6791 302.22 46.6896 Q296.577 40.6711 296.577 30.2834 Q296.577 19.8668 302.22 13.8772 Q307.862 7.85875 317.671 7.85875 Q321.548 7.85875 324.963 8.90042 Q328.406 9.91314 331.415 11.9675 Z" fill="#000000" fill-rule="nonzero" fill-opacity="1" /><path clip-path="url(#clip660)" d="M354.939 35.5496 Q348.487 35.5496 345.998 37.0253 Q343.51 38.501 343.51 42.06 Q343.51 44.8956 345.362 46.5738 Q347.243 48.2231 350.454 48.2231 Q354.882 48.2231 357.544 45.0981 Q360.235 41.9442 360.235 36.7359 L360.235 35.5496 L354.939 35.5496 M365.559 33.3505 L365.559 51.84 L360.235 51.84 L360.235 46.921 Q358.412 49.8724 355.692 51.2902 Q352.972 52.6791 349.037 52.6791 Q344.06 52.6791 341.108 49.9014 Q338.186 47.0947 338.186 42.4072 Q338.186 36.9385 341.832 34.1607 Q345.507 31.3829 352.769 31.3829 L360.235 31.3829 L360.235 30.8621 Q360.235 27.1874 357.804 25.1908 Q355.402 23.1654 351.033 23.1654 Q348.255 23.1654 345.622 23.8309 Q342.989 24.4964 340.559 25.8274 L340.559 20.9085 Q343.481 19.78 346.23 19.2302 Q348.979 18.6515 351.583 18.6515 Q358.614 18.6515 362.086 22.2973 Q365.559 25.9431 365.559 33.3505 Z" fill="#000000" fill-rule="nonzero" fill-opacity="1" /><path clip-path="url(#clip660)" d="M401.756 25.6538 Q403.753 22.0659 406.531 20.3587 Q409.308 18.6515 413.07 18.6515 Q418.134 18.6515 420.882 22.2105 Q423.631 25.7406 423.631 32.2799 L423.631 51.84 L418.278 51.84 L418.278 32.4535 Q418.278 27.795 416.629 25.5381 Q414.98 23.2811 411.594 23.2811 Q407.456 23.2811 405.055 26.03 Q402.653 28.7788 402.653 33.5241 L402.653 51.84 L397.3 51.84 L397.3 32.4535 Q397.3 27.7661 395.651 25.5381 Q394.002 23.2811 390.558 23.2811 Q386.479 23.2811 384.077 26.0589 Q381.675 28.8077 381.675 33.5241 L381.675 51.84 L376.322 51.84 L376.322 19.4328 L381.675 19.4328 L381.675 24.4675 Q383.498 21.4872 386.045 20.0693 Q388.591 18.6515 392.092 18.6515 Q395.622 18.6515 398.082 20.4455 Q400.57 22.2395 401.756 25.6538 Z" fill="#000000" fill-rule="nonzero" fill-opacity="1" /><path clip-path="url(#clip660)" d="M434.25 19.4328 L439.574 19.4328 L439.574 51.84 L434.25 51.84 L434.25 19.4328 M434.25 6.81709 L439.574 6.81709 L439.574 13.559 L434.25 13.559 L434.25 6.81709 Z" fill="#000000" fill-rule="nonzero" fill-opacity="1" /><path clip-path="url(#clip660)" d="M477.653 32.2799 L477.653 51.84 L472.329 51.84 L472.329 32.4535 Q472.329 27.8529 470.535 25.567 Q468.741 23.2811 465.153 23.2811 Q460.842 23.2811 458.353 26.03 Q455.865 28.7788 455.865 33.5241 L455.865 51.84 L450.512 51.84 L450.512 19.4328 L455.865 19.4328 L455.865 24.4675 Q457.775 21.545 460.35 20.0983 Q462.954 18.6515 466.339 18.6515 Q471.924 18.6515 474.788 22.1237 Q477.653 25.567 477.653 32.2799 Z" fill="#000000" fill-rule="nonzero" fill-opacity="1" /><path clip-path="url(#clip660)" d="M515.211 32.2799 L515.211 51.84 L509.887 51.84 L509.887 32.4535 Q509.887 27.8529 508.093 25.567 Q506.299 23.2811 502.711 23.2811 Q498.399 23.2811 495.911 26.03 Q493.422 28.7788 493.422 33.5241 L493.422 51.84 L488.069 51.84 L488.069 6.81709 L493.422 6.81709 L493.422 24.4675 Q495.332 21.545 497.907 20.0983 Q500.512 18.6515 503.897 18.6515 Q509.481 18.6515 512.346 22.1237 Q515.211 25.567 515.211 32.2799 Z" fill="#000000" fill-rule="nonzero" fill-opacity="1" /><path clip-path="url(#clip660)" d="M538.388 23.1654 Q534.105 23.1654 531.617 26.5218 Q529.128 29.8494 529.128 35.6653 Q529.128 41.4813 531.588 44.8377 Q534.076 48.1653 538.388 48.1653 Q542.641 48.1653 545.129 44.8088 Q547.618 41.4523 547.618 35.6653 Q547.618 29.9072 545.129 26.5508 Q542.641 23.1654 538.388 23.1654 M538.388 18.6515 Q545.332 18.6515 549.296 23.1654 Q553.26 27.6792 553.26 35.6653 Q553.26 43.6225 549.296 48.1653 Q545.332 52.6791 538.388 52.6791 Q531.414 52.6791 527.45 48.1653 Q523.515 43.6225 523.515 35.6653 Q523.515 27.6792 527.45 23.1654 Q531.414 18.6515 538.388 18.6515 Z" fill="#000000" fill-rule="nonzero" fill-opacity="1" /><path clip-path="url(#clip660)" d="M582.745 20.3876 L582.745 25.4223 Q580.488 24.2649 578.057 23.6862 Q575.627 23.1075 573.023 23.1075 Q569.059 23.1075 567.062 24.3228 Q565.095 25.5381 565.095 27.9686 Q565.095 29.8204 566.512 30.891 Q567.93 31.9327 572.213 32.8876 L574.035 33.2926 Q579.707 34.5079 582.079 36.7359 Q584.481 38.935 584.481 42.8991 Q584.481 47.4129 580.893 50.046 Q577.334 52.6791 571.084 52.6791 Q568.48 52.6791 565.644 52.1583 Q562.838 51.6664 559.713 50.6537 L559.713 45.156 Q562.664 46.6896 565.529 47.4708 Q568.393 48.2231 571.2 48.2231 Q574.961 48.2231 576.987 46.95 Q579.012 45.6479 579.012 43.3042 Q579.012 41.134 577.537 39.9766 Q576.09 38.8192 571.142 37.7486 L569.29 37.3146 Q564.342 36.273 562.143 34.1318 Q559.944 31.9616 559.944 28.2001 Q559.944 23.6283 563.185 21.1399 Q566.426 18.6515 572.386 18.6515 Q575.338 18.6515 577.942 19.0855 Q580.546 19.5196 582.745 20.3876 Z" fill="#000000" fill-rule="nonzero" fill-opacity="1" /><path clip-path="url(#clip660)" d="M626.524 35.5496 Q620.071 35.5496 617.583 37.0253 Q615.094 38.501 615.094 42.06 Q615.094 44.8956 616.946 46.5738 Q618.827 48.2231 622.039 48.2231 Q626.466 48.2231 629.128 45.0981 Q631.819 41.9442 631.819 36.7359 L631.819 35.5496 L626.524 35.5496 M637.143 33.3505 L637.143 51.84 L631.819 51.84 L631.819 46.921 Q629.996 49.8724 627.276 51.2902 Q624.556 52.6791 620.621 52.6791 Q615.644 52.6791 612.693 49.9014 Q609.77 47.0947 609.77 42.4072 Q609.77 36.9385 613.416 34.1607 Q617.091 31.3829 624.353 31.3829 L631.819 31.3829 L631.819 30.8621 Q631.819 27.1874 629.388 25.1908 Q626.987 23.1654 622.617 23.1654 Q619.84 23.1654 617.207 23.8309 Q614.573 24.4964 612.143 25.8274 L612.143 20.9085 Q615.065 19.78 617.814 19.2302 Q620.563 18.6515 623.167 18.6515 Q630.198 18.6515 633.671 22.2973 Q637.143 25.9431 637.143 33.3505 Z" fill="#000000" fill-rule="nonzero" fill-opacity="1" /><path clip-path="url(#clip660)" d="M673.34 25.6538 Q675.337 22.0659 678.115 20.3587 Q680.893 18.6515 684.654 18.6515 Q689.718 18.6515 692.467 22.2105 Q695.215 25.7406 695.215 32.2799 L695.215 51.84 L689.862 51.84 L689.862 32.4535 Q689.862 27.795 688.213 25.5381 Q686.564 23.2811 683.178 23.2811 Q679.041 23.2811 676.639 26.03 Q674.237 28.7788 674.237 33.5241 L674.237 51.84 L668.884 51.84 L668.884 32.4535 Q668.884 27.7661 667.235 25.5381 Q665.586 23.2811 662.143 23.2811 Q658.063 23.2811 655.661 26.0589 Q653.26 28.8077 653.26 33.5241 L653.26 51.84 L647.907 51.84 L647.907 19.4328 L653.26 19.4328 L653.26 24.4675 Q655.082 21.4872 657.629 20.0693 Q660.175 18.6515 663.676 18.6515 Q667.206 18.6515 669.666 20.4455 Q672.154 22.2395 673.34 25.6538 Z" fill="#000000" fill-rule="nonzero" fill-opacity="1" /><path clip-path="url(#clip660)" d="M718.392 23.1654 Q714.11 23.1654 711.622 26.5218 Q709.133 29.8494 709.133 35.6653 Q709.133 41.4813 711.593 44.8377 Q714.081 48.1653 718.392 48.1653 Q722.646 48.1653 725.134 44.8088 Q727.623 41.4523 727.623 35.6653 Q727.623 29.9072 725.134 26.5508 Q722.646 23.1654 718.392 23.1654 M718.392 18.6515 Q725.337 18.6515 729.301 23.1654 Q733.265 27.6792 733.265 35.6653 Q733.265 43.6225 729.301 48.1653 Q725.337 52.6791 718.392 52.6791 Q711.419 52.6791 707.455 48.1653 Q703.52 43.6225 703.52 35.6653 Q703.52 27.6792 707.455 23.1654 Q711.419 18.6515 718.392 18.6515 Z" fill="#000000" fill-rule="nonzero" fill-opacity="1" /><path clip-path="url(#clip660)" d="M762.75 20.3876 L762.75 25.4223 Q760.493 24.2649 758.062 23.6862 Q755.632 23.1075 753.028 23.1075 Q749.063 23.1075 747.067 24.3228 Q745.099 25.5381 745.099 27.9686 Q745.099 29.8204 746.517 30.891 Q747.935 31.9327 752.217 32.8876 L754.04 33.2926 Q759.712 34.5079 762.084 36.7359 Q764.486 38.935 764.486 42.8991 Q764.486 47.4129 760.898 50.046 Q757.339 52.6791 751.089 52.6791 Q748.485 52.6791 745.649 52.1583 Q742.842 51.6664 739.717 50.6537 L739.717 45.156 Q742.669 46.6896 745.533 47.4708 Q748.398 48.2231 751.205 48.2231 Q754.966 48.2231 756.992 46.95 Q759.017 45.6479 759.017 43.3042 Q759.017 41.134 757.541 39.9766 Q756.095 38.8192 751.147 37.7486 L749.295 37.3146 Q744.347 36.273 742.148 34.1318 Q739.949 31.9616 739.949 28.2001 Q739.949 23.6283 743.19 21.1399 Q746.43 18.6515 752.391 18.6515 Q755.342 18.6515 757.947 19.0855 Q760.551 19.5196 762.75 20.3876 Z" fill="#000000" fill-rule="nonzero" fill-opacity="1" /><path clip-path="url(#clip660)" d="M778.23 10.2314 L778.23 19.4328 L789.196 19.4328 L789.196 23.5705 L778.23 23.5705 L778.23 41.163 Q778.23 45.1271 779.301 46.2555 Q780.4 47.384 783.728 47.384 L789.196 47.384 L789.196 51.84 L783.728 51.84 Q777.564 51.84 775.221 49.5541 Q772.877 47.2393 772.877 41.163 L772.877 23.5705 L768.971 23.5705 L768.971 19.4328 L772.877 19.4328 L772.877 10.2314 L778.23 10.2314 Z" fill="#000000" fill-rule="nonzero" fill-opacity="1" /><path clip-path="url(#clip660)" d="M814.977 24.4096 Q814.08 23.8888 813.01 23.6573 Q811.968 23.3969 810.695 23.3969 Q806.181 23.3969 803.751 26.3482 Q801.349 29.2707 801.349 34.7683 L801.349 51.84 L795.996 51.84 L795.996 19.4328 L801.349 19.4328 L801.349 24.4675 Q803.027 21.5161 805.718 20.0983 Q808.409 18.6515 812.258 18.6515 Q812.807 18.6515 813.473 18.7383 Q814.138 18.7962 814.949 18.9409 L814.977 24.4096 Z" fill="#000000" fill-rule="nonzero" fill-opacity="1" /><path clip-path="url(#clip660)" d="M835.29 35.5496 Q828.837 35.5496 826.349 37.0253 Q823.861 38.501 823.861 42.06 Q823.861 44.8956 825.712 46.5738 Q827.593 48.2231 830.805 48.2231 Q835.232 48.2231 837.894 45.0981 Q840.585 41.9442 840.585 36.7359 L840.585 35.5496 L835.29 35.5496 M845.909 33.3505 L845.909 51.84 L840.585 51.84 L840.585 46.921 Q838.762 49.8724 836.042 51.2902 Q833.322 52.6791 829.387 52.6791 Q824.41 52.6791 821.459 49.9014 Q818.536 47.0947 818.536 42.4072 Q818.536 36.9385 822.182 34.1607 Q825.857 31.3829 833.12 31.3829 L840.585 31.3829 L840.585 30.8621 Q840.585 27.1874 838.154 25.1908 Q835.753 23.1654 831.384 23.1654 Q828.606 23.1654 825.973 23.8309 Q823.34 24.4964 820.909 25.8274 L820.909 20.9085 Q823.832 19.78 826.58 19.2302 Q829.329 18.6515 831.933 18.6515 Q838.965 18.6515 842.437 22.2973 Q845.909 25.9431 845.909 33.3505 Z" fill="#000000" fill-rule="nonzero" fill-opacity="1" /><path clip-path="url(#clip660)" d="M856.875 19.4328 L862.199 19.4328 L862.199 51.84 L856.875 51.84 L856.875 19.4328 M856.875 6.81709 L862.199 6.81709 L862.199 13.559 L856.875 13.559 L856.875 6.81709 Z" fill="#000000" fill-rule="nonzero" fill-opacity="1" /><path clip-path="url(#clip660)" d="M893.999 20.3876 L893.999 25.4223 Q891.742 24.2649 889.312 23.6862 Q886.881 23.1075 884.277 23.1075 Q880.313 23.1075 878.316 24.3228 Q876.349 25.5381 876.349 27.9686 Q876.349 29.8204 877.766 30.891 Q879.184 31.9327 883.467 32.8876 L885.29 33.2926 Q890.961 34.5079 893.334 36.7359 Q895.735 38.935 895.735 42.8991 Q895.735 47.4129 892.147 50.046 Q888.588 52.6791 882.338 52.6791 Q879.734 52.6791 876.898 52.1583 Q874.092 51.6664 870.967 50.6537 L870.967 45.156 Q873.918 46.6896 876.783 47.4708 Q879.647 48.2231 882.454 48.2231 Q886.216 48.2231 888.241 46.95 Q890.266 45.6479 890.266 43.3042 Q890.266 41.134 888.791 39.9766 Q887.344 38.8192 882.396 37.7486 L880.544 37.3146 Q875.596 36.273 873.397 34.1318 Q871.198 31.9616 871.198 28.2001 Q871.198 23.6283 874.439 21.1399 Q877.68 18.6515 883.64 18.6515 Q886.592 18.6515 889.196 19.0855 Q891.8 19.5196 893.999 20.3876 Z" fill="#000000" fill-rule="nonzero" fill-opacity="1" /><path clip-path="url(#clip660)" d="M944.375 24.3517 L944.375 6.81709 L949.699 6.81709 L949.699 51.84 L944.375 51.84 L944.375 46.9789 Q942.697 49.8724 940.121 51.2902 Q937.575 52.6791 933.987 52.6791 Q928.113 52.6791 924.41 47.9916 Q920.735 43.3042 920.735 35.6653 Q920.735 28.0265 924.41 23.339 Q928.113 18.6515 933.987 18.6515 Q937.575 18.6515 940.121 20.0693 Q942.697 21.4582 944.375 24.3517 M926.233 35.6653 Q926.233 41.5391 928.634 44.8956 Q931.065 48.2231 935.289 48.2231 Q939.514 48.2231 941.944 44.8956 Q944.375 41.5391 944.375 35.6653 Q944.375 29.7915 941.944 26.464 Q939.514 23.1075 935.289 23.1075 Q931.065 23.1075 928.634 26.464 Q926.233 29.7915 926.233 35.6653 Z" fill="#000000" fill-rule="nonzero" fill-opacity="1" /><path clip-path="url(#clip660)" d="M988.385 34.3054 L988.385 36.9095 L963.906 36.9095 Q964.253 42.4072 967.205 45.3007 Q970.185 48.1653 975.48 48.1653 Q978.547 48.1653 981.412 47.4129 Q984.305 46.6606 987.141 45.156 L987.141 50.1907 Q984.276 51.406 981.267 52.0425 Q978.258 52.6791 975.162 52.6791 Q967.407 52.6791 962.864 48.1653 Q958.351 43.6514 958.351 35.9547 Q958.351 27.9975 962.633 23.339 Q966.944 18.6515 974.236 18.6515 Q980.775 18.6515 984.566 22.876 Q988.385 27.0716 988.385 34.3054 M983.061 32.7429 Q983.003 28.3737 980.602 25.7695 Q978.229 23.1654 974.294 23.1654 Q969.838 23.1654 967.147 25.6827 Q964.485 28.2001 964.08 32.7718 L983.061 32.7429 Z" fill="#000000" fill-rule="nonzero" fill-opacity="1" /><path clip-path="url(#clip660)" d="M1015.41 39.0507 L1015.41 19.4328 L1020.73 19.4328 L1020.73 38.8482 Q1020.73 43.4488 1022.53 45.7636 Q1024.32 48.0495 1027.91 48.0495 Q1032.22 48.0495 1034.71 45.3007 Q1037.23 42.5519 1037.23 37.8065 L1037.23 19.4328 L1042.55 19.4328 L1042.55 51.84 L1037.23 51.84 L1037.23 46.8632 Q1035.29 49.8145 1032.71 51.2613 Q1030.17 52.6791 1026.78 52.6791 Q1021.2 52.6791 1018.3 49.2069 Q1015.41 45.7347 1015.41 39.0507 M1028.81 18.6515 L1028.81 18.6515 Z" fill="#000000" fill-rule="nonzero" fill-opacity="1" /><path clip-path="url(#clip660)" d="M1078.75 25.6538 Q1080.75 22.0659 1083.52 20.3587 Q1086.3 18.6515 1090.06 18.6515 Q1095.13 18.6515 1097.88 22.2105 Q1100.62 25.7406 1100.62 32.2799 L1100.62 51.84 L1095.27 51.84 L1095.27 32.4535 Q1095.27 27.795 1093.62 25.5381 Q1091.97 23.2811 1088.59 23.2811 Q1084.45 23.2811 1082.05 26.03 Q1079.65 28.7788 1079.65 33.5241 L1079.65 51.84 L1074.29 51.84 L1074.29 32.4535 Q1074.29 27.7661 1072.64 25.5381 Q1070.99 23.2811 1067.55 23.2811 Q1063.47 23.2811 1061.07 26.0589 Q1058.67 28.8077 1058.67 33.5241 L1058.67 51.84 L1053.32 51.84 L1053.32 19.4328 L1058.67 19.4328 L1058.67 24.4675 Q1060.49 21.4872 1063.04 20.0693 Q1065.58 18.6515 1069.08 18.6515 Q1072.61 18.6515 1075.07 20.4455 Q1077.56 22.2395 1078.75 25.6538 Z" fill="#000000" fill-rule="nonzero" fill-opacity="1" /><path clip-path="url(#clip660)" d="M1135.23 46.9789 L1135.23 64.1663 L1129.88 64.1663 L1129.88 19.4328 L1135.23 19.4328 L1135.23 24.3517 Q1136.91 21.4582 1139.45 20.0693 Q1142.03 18.6515 1145.59 18.6515 Q1151.49 18.6515 1155.17 23.339 Q1158.87 28.0265 1158.87 35.6653 Q1158.87 43.3042 1155.17 47.9916 Q1151.49 52.6791 1145.59 52.6791 Q1142.03 52.6791 1139.45 51.2902 Q1136.91 49.8724 1135.23 46.9789 M1153.34 35.6653 Q1153.34 29.7915 1150.91 26.464 Q1148.51 23.1075 1144.29 23.1075 Q1140.06 23.1075 1137.63 26.464 Q1135.23 29.7915 1135.23 35.6653 Q1135.23 41.5391 1137.63 44.8956 Q1140.06 48.2231 1144.29 48.2231 Q1148.51 48.2231 1150.91 44.8956 Q1153.34 41.5391 1153.34 35.6653 Z" fill="#000000" fill-rule="nonzero" fill-opacity="1" /><path clip-path="url(#clip660)" d="M1186.47 24.4096 Q1185.58 23.8888 1184.51 23.6573 Q1183.47 23.3969 1182.19 23.3969 Q1177.68 23.3969 1175.25 26.3482 Q1172.85 29.2707 1172.85 34.7683 L1172.85 51.84 L1167.49 51.84 L1167.49 19.4328 L1172.85 19.4328 L1172.85 24.4675 Q1174.52 21.5161 1177.22 20.0983 Q1179.91 18.6515 1183.75 18.6515 Q1184.3 18.6515 1184.97 18.7383 Q1185.64 18.7962 1186.45 18.9409 L1186.47 24.4096 Z" fill="#000000" fill-rule="nonzero" fill-opacity="1" /><path clip-path="url(#clip660)" d="M1203.31 23.1654 Q1199.03 23.1654 1196.54 26.5218 Q1194.06 29.8494 1194.06 35.6653 Q1194.06 41.4813 1196.51 44.8377 Q1199 48.1653 1203.31 48.1653 Q1207.57 48.1653 1210.06 44.8088 Q1212.54 41.4523 1212.54 35.6653 Q1212.54 29.9072 1210.06 26.5508 Q1207.57 23.1654 1203.31 23.1654 M1203.31 18.6515 Q1210.26 18.6515 1214.22 23.1654 Q1218.19 27.6792 1218.19 35.6653 Q1218.19 43.6225 1214.22 48.1653 Q1210.26 52.6791 1203.31 52.6791 Q1196.34 52.6791 1192.38 48.1653 Q1188.44 43.6225 1188.44 35.6653 Q1188.44 27.6792 1192.38 23.1654 Q1196.34 18.6515 1203.31 18.6515 Z" fill="#000000" fill-rule="nonzero" fill-opacity="1" /><path clip-path="url(#clip660)" d="M1250.33 20.677 L1250.33 25.6538 Q1248.08 24.4096 1245.79 23.802 Q1243.53 23.1654 1241.22 23.1654 Q1236.04 23.1654 1233.18 26.464 Q1230.31 29.7336 1230.31 35.6653 Q1230.31 41.597 1233.18 44.8956 Q1236.04 48.1653 1241.22 48.1653 Q1243.53 48.1653 1245.79 47.5576 Q1248.08 46.921 1250.33 45.6768 L1250.33 50.5958 Q1248.11 51.6375 1245.7 52.1583 Q1243.33 52.6791 1240.64 52.6791 Q1233.32 52.6791 1229.01 48.0784 Q1224.7 43.4778 1224.7 35.6653 Q1224.7 27.7371 1229.04 23.1943 Q1233.41 18.6515 1240.99 18.6515 Q1243.45 18.6515 1245.79 19.1724 Q1248.13 19.6642 1250.33 20.677 Z" fill="#000000" fill-rule="nonzero" fill-opacity="1" /><path clip-path="url(#clip660)" d="M1287.31 34.3054 L1287.31 36.9095 L1262.83 36.9095 Q1263.18 42.4072 1266.13 45.3007 Q1269.11 48.1653 1274.41 48.1653 Q1277.47 48.1653 1280.34 47.4129 Q1283.23 46.6606 1286.07 45.156 L1286.07 50.1907 Q1283.2 51.406 1280.19 52.0425 Q1277.19 52.6791 1274.09 52.6791 Q1266.33 52.6791 1261.79 48.1653 Q1257.28 43.6514 1257.28 35.9547 Q1257.28 27.9975 1261.56 23.339 Q1265.87 18.6515 1273.16 18.6515 Q1279.7 18.6515 1283.49 22.876 Q1287.31 27.0716 1287.31 34.3054 M1281.99 32.7429 Q1281.93 28.3737 1279.53 25.7695 Q1277.16 23.1654 1273.22 23.1654 Q1268.77 23.1654 1266.07 25.6827 Q1263.41 28.2001 1263.01 32.7718 L1281.99 32.7429 Z" fill="#000000" fill-rule="nonzero" fill-opacity="1" /><path clip-path="url(#clip660)" d="M1316.71 20.3876 L1316.71 25.4223 Q1314.45 24.2649 1312.02 23.6862 Q1309.59 23.1075 1306.99 23.1075 Q1303.02 23.1075 1301.03 24.3228 Q1299.06 25.5381 1299.06 27.9686 Q1299.06 29.8204 1300.48 30.891 Q1301.9 31.9327 1306.18 32.8876 L1308 33.2926 Q1313.67 34.5079 1316.05 36.7359 Q1318.45 38.935 1318.45 42.8991 Q1318.45 47.4129 1314.86 50.046 Q1311.3 52.6791 1305.05 52.6791 Q1302.45 52.6791 1299.61 52.1583 Q1296.8 51.6664 1293.68 50.6537 L1293.68 45.156 Q1296.63 46.6896 1299.49 47.4708 Q1302.36 48.2231 1305.17 48.2231 Q1308.93 48.2231 1310.95 46.95 Q1312.98 45.6479 1312.98 43.3042 Q1312.98 41.134 1311.5 39.9766 Q1310.06 38.8192 1305.11 37.7486 L1303.26 37.3146 Q1298.31 36.273 1296.11 34.1318 Q1293.91 31.9616 1293.91 28.2001 Q1293.91 23.6283 1297.15 21.1399 Q1300.39 18.6515 1306.35 18.6515 Q1309.3 18.6515 1311.91 19.0855 Q1314.51 19.5196 1316.71 20.3876 Z" fill="#000000" fill-rule="nonzero" fill-opacity="1" /><path clip-path="url(#clip660)" d="M1347.58 20.3876 L1347.58 25.4223 Q1345.33 24.2649 1342.9 23.6862 Q1340.47 23.1075 1337.86 23.1075 Q1333.9 23.1075 1331.9 24.3228 Q1329.93 25.5381 1329.93 27.9686 Q1329.93 29.8204 1331.35 30.891 Q1332.77 31.9327 1337.05 32.8876 L1338.88 33.2926 Q1344.55 34.5079 1346.92 36.7359 Q1349.32 38.935 1349.32 42.8991 Q1349.32 47.4129 1345.73 50.046 Q1342.17 52.6791 1335.92 52.6791 Q1333.32 52.6791 1330.48 52.1583 Q1327.68 51.6664 1324.55 50.6537 L1324.55 45.156 Q1327.5 46.6896 1330.37 47.4708 Q1333.23 48.2231 1336.04 48.2231 Q1339.8 48.2231 1341.83 46.95 Q1343.85 45.6479 1343.85 43.3042 Q1343.85 41.134 1342.38 39.9766 Q1340.93 38.8192 1335.98 37.7486 L1334.13 37.3146 Q1329.18 36.273 1326.98 34.1318 Q1324.78 31.9616 1324.78 28.2001 Q1324.78 23.6283 1328.02 21.1399 Q1331.27 18.6515 1337.23 18.6515 Q1340.18 18.6515 1342.78 19.0855 Q1345.39 19.5196 1347.58 20.3876 Z" fill="#000000" fill-rule="nonzero" fill-opacity="1" /><path clip-path="url(#clip660)" d="M1370.36 23.1654 Q1366.07 23.1654 1363.59 26.5218 Q1361.1 29.8494 1361.1 35.6653 Q1361.1 41.4813 1363.56 44.8377 Q1366.05 48.1653 1370.36 48.1653 Q1374.61 48.1653 1377.1 44.8088 Q1379.59 41.4523 1379.59 35.6653 Q1379.59 29.9072 1377.1 26.5508 Q1374.61 23.1654 1370.36 23.1654 M1370.36 18.6515 Q1377.3 18.6515 1381.26 23.1654 Q1385.23 27.6792 1385.23 35.6653 Q1385.23 43.6225 1381.26 48.1653 Q1377.3 52.6791 1370.36 52.6791 Q1363.38 52.6791 1359.42 48.1653 Q1355.48 43.6225 1355.48 35.6653 Q1355.48 27.6792 1359.42 23.1654 Q1363.38 18.6515 1370.36 18.6515 Z" fill="#000000" fill-rule="nonzero" fill-opacity="1" /><path clip-path="url(#clip660)" d="M1436.21 20.677 L1436.21 25.6538 Q1433.96 24.4096 1431.67 23.802 Q1429.41 23.1654 1427.1 23.1654 Q1421.92 23.1654 1419.05 26.464 Q1416.19 29.7336 1416.19 35.6653 Q1416.19 41.597 1419.05 44.8956 Q1421.92 48.1653 1427.1 48.1653 Q1429.41 48.1653 1431.67 47.5576 Q1433.96 46.921 1436.21 45.6768 L1436.21 50.5958 Q1433.98 51.6375 1431.58 52.1583 Q1429.21 52.6791 1426.52 52.6791 Q1419.2 52.6791 1414.89 48.0784 Q1410.58 43.4778 1410.58 35.6653 Q1410.58 27.7371 1414.92 23.1943 Q1419.29 18.6515 1426.87 18.6515 Q1429.33 18.6515 1431.67 19.1724 Q1434.01 19.6642 1436.21 20.677 Z" fill="#000000" fill-rule="nonzero" fill-opacity="1" /><path clip-path="url(#clip660)" d="M1458.03 23.1654 Q1453.75 23.1654 1451.26 26.5218 Q1448.77 29.8494 1448.77 35.6653 Q1448.77 41.4813 1451.23 44.8377 Q1453.72 48.1653 1458.03 48.1653 Q1462.28 48.1653 1464.77 44.8088 Q1467.26 41.4523 1467.26 35.6653 Q1467.26 29.9072 1464.77 26.5508 Q1462.28 23.1654 1458.03 23.1654 M1458.03 18.6515 Q1464.97 18.6515 1468.94 23.1654 Q1472.9 27.6792 1472.9 35.6653 Q1472.9 43.6225 1468.94 48.1653 Q1464.97 52.6791 1458.03 52.6791 Q1451.06 52.6791 1447.09 48.1653 Q1443.16 43.6225 1443.16 35.6653 Q1443.16 27.6792 1447.09 23.1654 Q1451.06 18.6515 1458.03 18.6515 Z" fill="#000000" fill-rule="nonzero" fill-opacity="1" /><path clip-path="url(#clip660)" d="M1508.67 32.2799 L1508.67 51.84 L1503.34 51.84 L1503.34 32.4535 Q1503.34 27.8529 1501.55 25.567 Q1499.75 23.2811 1496.17 23.2811 Q1491.85 23.2811 1489.37 26.03 Q1486.88 28.7788 1486.88 33.5241 L1486.88 51.84 L1481.52 51.84 L1481.52 19.4328 L1486.88 19.4328 L1486.88 24.4675 Q1488.79 21.545 1491.36 20.0983 Q1493.97 18.6515 1497.35 18.6515 Q1502.94 18.6515 1505.8 22.1237 Q1508.67 25.567 1508.67 32.2799 Z" fill="#000000" fill-rule="nonzero" fill-opacity="1" /><path clip-path="url(#clip660)" d="M1539.94 20.3876 L1539.94 25.4223 Q1537.69 24.2649 1535.26 23.6862 Q1532.83 23.1075 1530.22 23.1075 Q1526.26 23.1075 1524.26 24.3228 Q1522.29 25.5381 1522.29 27.9686 Q1522.29 29.8204 1523.71 30.891 Q1525.13 31.9327 1529.41 32.8876 L1531.24 33.2926 Q1536.91 34.5079 1539.28 36.7359 Q1541.68 38.935 1541.68 42.8991 Q1541.68 47.4129 1538.09 50.046 Q1534.53 52.6791 1528.28 52.6791 Q1525.68 52.6791 1522.84 52.1583 Q1520.04 51.6664 1516.91 50.6537 L1516.91 45.156 Q1519.86 46.6896 1522.73 47.4708 Q1525.59 48.2231 1528.4 48.2231 Q1532.16 48.2231 1534.19 46.95 Q1536.21 45.6479 1536.21 43.3042 Q1536.21 41.134 1534.74 39.9766 Q1533.29 38.8192 1528.34 37.7486 L1526.49 37.3146 Q1521.54 36.273 1519.34 34.1318 Q1517.14 31.9616 1517.14 28.2001 Q1517.14 23.6283 1520.38 21.1399 Q1523.63 18.6515 1529.59 18.6515 Q1532.54 18.6515 1535.14 19.0855 Q1537.75 19.5196 1539.94 20.3876 Z" fill="#000000" fill-rule="nonzero" fill-opacity="1" /><path clip-path="url(#clip660)" d="M1555.42 10.2314 L1555.42 19.4328 L1566.39 19.4328 L1566.39 23.5705 L1555.42 23.5705 L1555.42 41.163 Q1555.42 45.1271 1556.5 46.2555 Q1557.6 47.384 1560.92 47.384 L1566.39 47.384 L1566.39 51.84 L1560.92 51.84 Q1554.76 51.84 1552.42 49.5541 Q1550.07 47.2393 1550.07 41.163 L1550.07 23.5705 L1546.17 23.5705 L1546.17 19.4328 L1550.07 19.4328 L1550.07 10.2314 L1555.42 10.2314 Z" fill="#000000" fill-rule="nonzero" fill-opacity="1" /><path clip-path="url(#clip660)" d="M1588.12 35.5496 Q1581.67 35.5496 1579.18 37.0253 Q1576.69 38.501 1576.69 42.06 Q1576.69 44.8956 1578.54 46.5738 Q1580.42 48.2231 1583.64 48.2231 Q1588.06 48.2231 1590.73 45.0981 Q1593.42 41.9442 1593.42 36.7359 L1593.42 35.5496 L1588.12 35.5496 M1598.74 33.3505 L1598.74 51.84 L1593.42 51.84 L1593.42 46.921 Q1591.59 49.8724 1588.87 51.2902 Q1586.15 52.6791 1582.22 52.6791 Q1577.24 52.6791 1574.29 49.9014 Q1571.37 47.0947 1571.37 42.4072 Q1571.37 36.9385 1575.01 34.1607 Q1578.69 31.3829 1585.95 31.3829 L1593.42 31.3829 L1593.42 30.8621 Q1593.42 27.1874 1590.99 25.1908 Q1588.58 23.1654 1584.22 23.1654 Q1581.44 23.1654 1578.8 23.8309 Q1576.17 24.4964 1573.74 25.8274 L1573.74 20.9085 Q1576.66 19.78 1579.41 19.2302 Q1582.16 18.6515 1584.77 18.6515 Q1591.8 18.6515 1595.27 22.2973 Q1598.74 25.9431 1598.74 33.3505 Z" fill="#000000" fill-rule="nonzero" fill-opacity="1" /><path clip-path="url(#clip660)" d="M1636.65 32.2799 L1636.65 51.84 L1631.32 51.84 L1631.32 32.4535 Q1631.32 27.8529 1629.53 25.567 Q1627.73 23.2811 1624.15 23.2811 Q1619.83 23.2811 1617.35 26.03 Q1614.86 28.7788 1614.86 33.5241 L1614.86 51.84 L1609.5 51.84 L1609.5 19.4328 L1614.86 19.4328 L1614.86 24.4675 Q1616.77 21.545 1619.34 20.0983 Q1621.95 18.6515 1625.33 18.6515 Q1630.92 18.6515 1633.78 22.1237 Q1636.65 25.567 1636.65 32.2799 Z" fill="#000000" fill-rule="nonzero" fill-opacity="1" /><path clip-path="url(#clip660)" d="M1652.53 10.2314 L1652.53 19.4328 L1663.5 19.4328 L1663.5 23.5705 L1652.53 23.5705 L1652.53 41.163 Q1652.53 45.1271 1653.6 46.2555 Q1654.7 47.384 1658.03 47.384 L1663.5 47.384 L1663.5 51.84 L1658.03 51.84 Q1651.87 51.84 1649.52 49.5541 Q1647.18 47.2393 1647.18 41.163 L1647.18 23.5705 L1643.27 23.5705 L1643.27 19.4328 L1647.18 19.4328 L1647.18 10.2314 L1652.53 10.2314 Z" fill="#000000" fill-rule="nonzero" fill-opacity="1" /><path clip-path="url(#clip660)" d="M1698.22 34.3054 L1698.22 36.9095 L1673.74 36.9095 Q1674.09 42.4072 1677.04 45.3007 Q1680.02 48.1653 1685.31 48.1653 Q1688.38 48.1653 1691.25 47.4129 Q1694.14 46.6606 1696.98 45.156 L1696.98 50.1907 Q1694.11 51.406 1691.1 52.0425 Q1688.09 52.6791 1685 52.6791 Q1677.24 52.6791 1672.7 48.1653 Q1668.18 43.6514 1668.18 35.9547 Q1668.18 27.9975 1672.47 23.339 Q1676.78 18.6515 1684.07 18.6515 Q1690.61 18.6515 1694.4 22.876 Q1698.22 27.0716 1698.22 34.3054 M1692.9 32.7429 Q1692.84 28.3737 1690.44 25.7695 Q1688.06 23.1654 1684.13 23.1654 Q1679.67 23.1654 1676.98 25.6827 Q1674.32 28.2001 1673.91 32.7718 L1692.9 32.7429 Z" fill="#000000" fill-rule="nonzero" fill-opacity="1" /><path clip-path="url(#clip660)" d="M1723.94 8.64 L1730.22 8.64 L1740.96 24.6989 L1751.75 8.64 L1758.03 8.64 L1744.14 29.3864 L1758.95 51.84 L1752.67 51.84 L1740.52 33.4663 L1728.28 51.84 L1721.97 51.84 L1737.4 28.7788 L1723.94 8.64 Z" fill="#000000" fill-rule="nonzero" fill-opacity="1" /><path clip-path="url(#clip660)" d="M1791.01 61.6779 L1791.01 65.8156 L1760.23 65.8156 L1760.23 61.6779 L1791.01 61.6779 Z" fill="#000000" fill-rule="nonzero" fill-opacity="1" /><path clip-path="url(#clip660)" d="M1801.29 10.2314 L1801.29 19.4328 L1812.25 19.4328 L1812.25 23.5705 L1801.29 23.5705 L1801.29 41.163 Q1801.29 45.1271 1802.36 46.2555 Q1803.46 47.384 1806.78 47.384 L1812.25 47.384 L1812.25 51.84 L1806.78 51.84 Q1800.62 51.84 1798.28 49.5541 Q1795.93 47.2393 1795.93 41.163 L1795.93 23.5705 L1792.03 23.5705 L1792.03 19.4328 L1795.93 19.4328 L1795.93 10.2314 L1801.29 10.2314 Z" fill="#000000" fill-rule="nonzero" fill-opacity="1" /><path clip-path="url(#clip660)" d="M1838.79 24.9304 L1875.88 24.9304 L1875.88 29.7915 L1838.79 29.7915 L1838.79 24.9304 M1838.79 36.7359 L1875.88 36.7359 L1875.88 41.6549 L1838.79 41.6549 L1838.79 36.7359 Z" fill="#000000" fill-rule="nonzero" fill-opacity="1" /><path clip-path="url(#clip660)" d="M1900.88 8.64 L1907.16 8.64 L1919.14 26.4061 L1931.03 8.64 L1937.31 8.64 L1922.03 31.2672 L1922.03 51.84 L1916.16 51.84 L1916.16 31.2672 L1900.88 8.64 Z" fill="#000000" fill-rule="nonzero" fill-opacity="1" /><path clip-path="url(#clip660)" d="M1999.4 28.1711 L1999.4 33.3505 Q1996.37 35.6074 1993.76 36.6202 Q1991.19 37.604 1988.38 37.604 Q1985.2 37.604 1980.97 35.8968 Q1980.68 35.7811 1980.48 35.6943 Q1980.31 35.6364 1979.87 35.4628 Q1975.39 33.6977 1972.67 33.6977 Q1970.12 33.6977 1967.63 34.7973 Q1965.14 35.8968 1962.31 38.3273 L1962.31 33.148 Q1965.35 30.891 1967.92 29.9072 Q1970.53 28.8945 1973.33 28.8945 Q1976.52 28.8945 1980.77 30.6017 Q1981.09 30.7464 1981.23 30.8042 Q1981.41 30.8621 1981.84 31.0357 Q1986.33 32.8008 1989.05 32.8008 Q1991.53 32.8008 1993.96 31.7302 Q1996.42 30.6306 1999.4 28.1711 Z" fill="#000000" fill-rule="nonzero" fill-opacity="1" /><path clip-path="url(#clip660)" d="M2030.34 8.64 L2038.21 8.64 L2057.36 44.7799 L2057.36 8.64 L2063.03 8.64 L2063.03 51.84 L2055.16 51.84 L2036.01 15.7001 L2036.01 51.84 L2030.34 51.84 L2030.34 8.64 Z" fill="#000000" fill-rule="nonzero" fill-opacity="1" /><path clip-path="url(#clip660)" d="M2087.22 6.87496 Q2083.34 13.53 2081.46 20.0404 Q2079.58 26.5508 2079.58 33.2348 Q2079.58 39.9188 2081.46 46.487 Q2083.37 53.0263 2087.22 59.6525 L2082.59 59.6525 Q2078.25 52.8527 2076.08 46.2845 Q2073.94 39.7162 2073.94 33.2348 Q2073.94 26.7823 2076.08 20.2429 Q2078.22 13.7036 2082.59 6.87496 L2087.22 6.87496 Z" fill="#000000" fill-rule="nonzero" fill-opacity="1" /><path clip-path="url(#clip660)" d="M2110.8 12.4884 Q2106.29 12.4884 2104 16.9444 Q2101.75 21.3714 2101.75 30.2834 Q2101.75 39.1665 2104 43.6225 Q2106.29 48.0495 2110.8 48.0495 Q2115.35 48.0495 2117.6 43.6225 Q2119.89 39.1665 2119.89 30.2834 Q2119.89 21.3714 2117.6 16.9444 Q2115.35 12.4884 2110.8 12.4884 M2110.8 7.85875 Q2118.07 7.85875 2121.89 13.6168 Q2125.73 19.346 2125.73 30.2834 Q2125.73 41.1919 2121.89 46.95 Q2118.07 52.6791 2110.8 52.6791 Q2103.54 52.6791 2099.69 46.95 Q2095.87 41.1919 2095.87 30.2834 Q2095.87 19.346 2099.69 13.6168 Q2103.54 7.85875 2110.8 7.85875 Z" fill="#000000" fill-rule="nonzero" fill-opacity="1" /><path clip-path="url(#clip660)" d="M2136.61 44.4905 L2142.72 44.4905 L2142.72 49.4673 L2137.97 58.7265 L2134.24 58.7265 L2136.61 49.4673 L2136.61 44.4905 Z" fill="#000000" fill-rule="nonzero" fill-opacity="1" /><path clip-path="url(#clip660)" d="M2155.86 46.921 L2165.4 46.921 L2165.4 13.964 L2155.02 16.0474 L2155.02 10.7233 L2165.35 8.64 L2171.19 8.64 L2171.19 46.921 L2180.74 46.921 L2180.74 51.84 L2155.86 51.84 L2155.86 46.921 Z" fill="#000000" fill-rule="nonzero" fill-opacity="1" /><path clip-path="url(#clip660)" d="M2190.95 6.87496 L2195.58 6.87496 Q2199.92 13.7036 2202.06 20.2429 Q2204.24 26.7823 2204.24 33.2348 Q2204.24 39.7162 2202.06 46.2845 Q2199.92 52.8527 2195.58 59.6525 L2190.95 59.6525 Q2194.8 53.0263 2196.68 46.487 Q2198.59 39.9188 2198.59 33.2348 Q2198.59 26.5508 2196.68 20.0404 Q2194.8 13.53 2190.95 6.87496 Z" fill="#000000" fill-rule="nonzero" fill-opacity="1" /><polyline clip-path="url(#clip662)" style="stroke:#009af9; stroke-linecap:round; stroke-linejoin:round; stroke-width:4; stroke-opacity:1; fill:none" points="261.183,620.904 311.913,620.904 362.642,620.904 413.371,620.904 464.101,620.904 514.83,620.904 565.559,620.904 616.289,620.904 667.018,620.904 717.748,620.904 768.477,620.904 819.206,620.904 869.936,620.904 920.665,620.904 971.395,620.904 1022.12,620.904 1072.85,620.904 1123.58,620.904 1174.31,620.904 1225.04,620.904 1275.77,620.904 1326.5,620.904 1377.23,620.904 1427.96,620.904 1478.69,620.904 1529.42,620.904 1580.15,620.904 1630.88,620.904 1681.61,620.904 1732.34,620.904 1783.06,620.904 1833.79,620.904 1884.52,620.904 1935.25,620.904 1985.98,620.904 2036.71,620.904 2087.44,620.904 2138.17,620.904 2188.9,620.904 2239.63,620.904 "/>
<polyline clip-path="url(#clip662)" style="stroke:#e26f46; stroke-linecap:round; stroke-linejoin:round; stroke-width:4; stroke-opacity:1; fill:none" points="261.183,1039.83 311.913,1039.83 362.642,1039.83 413.371,1039.83 464.101,1039.83 514.83,1039.83 565.559,1039.83 616.289,1039.83 667.018,1039.83 717.748,1039.83 768.477,1039.83 819.206,1039.83 869.936,1039.83 920.665,1039.83 971.395,1039.83 1022.12,1039.83 1072.85,1039.83 1123.58,1039.83 1174.31,1039.83 1225.04,1039.83 1275.77,1039.83 1326.5,1039.83 1377.23,1039.83 1427.96,1039.83 1478.69,1039.83 1529.42,1039.83 1580.15,1039.83 1630.88,1039.83 1681.61,1039.83 1732.34,1039.83 1783.06,1039.83 1833.79,1039.83 1884.52,1039.83 1935.25,1039.83 1985.98,1039.83 2036.71,1039.83 2087.44,1039.83 2138.17,1039.83 2188.9,1039.83 2239.63,1039.83 "/>
<polyline clip-path="url(#clip662)" style="stroke:#3da44d; stroke-linecap:round; stroke-linejoin:round; stroke-width:4; stroke-opacity:1; fill:none" points="261.183,1036.05 311.913,1036.05 362.642,1036.05 413.371,1036.05 464.101,1036.05 514.83,1036.05 565.559,1036.05 616.289,1036.05 667.018,1036.05 717.748,1036.05 768.477,1036.05 819.206,1036.05 869.936,1036.05 920.665,1036.05 971.395,1036.05 1022.12,1036.05 1072.85,1036.05 1123.58,1036.05 1174.31,1036.05 1225.04,1036.05 1275.77,1036.05 1326.5,1036.05 1377.23,1036.05 1427.96,1036.05 1478.69,1036.05 1529.42,1036.05 1580.15,1036.05 1630.88,1036.05 1681.61,1036.05 1732.34,1036.05 1783.06,1036.05 1833.79,1036.05 1884.52,1036.05 1935.25,1036.05 1985.98,1036.05 2036.71,1036.05 2087.44,1036.05 2138.17,1036.05 2188.9,1036.05 2239.63,1036.05 "/>
<polyline clip-path="url(#clip662)" style="stroke:#c271d2; stroke-linecap:round; stroke-linejoin:round; stroke-width:4; stroke-opacity:1; fill:none" points="261.183,886.816 311.913,886.816 362.642,886.816 413.371,886.816 464.101,886.816 514.83,886.816 565.559,886.816 616.289,886.816 667.018,886.816 717.748,886.816 768.477,886.816 819.206,886.816 869.936,886.816 920.665,886.816 971.395,886.816 1022.12,886.816 1072.85,886.816 1123.58,886.816 1174.31,886.816 1225.04,886.816 1275.77,886.816 1326.5,886.816 1377.23,886.816 1427.96,886.816 1478.69,886.816 1529.42,886.816 1580.15,886.816 1630.88,886.816 1681.61,886.816 1732.34,886.816 1783.06,886.816 1833.79,886.816 1884.52,886.816 1935.25,886.816 1985.98,886.816 2036.71,886.816 2087.44,886.816 2138.17,886.816 2188.9,886.816 2239.63,886.816 "/>
<polyline clip-path="url(#clip662)" style="stroke:#ac8d18; stroke-linecap:round; stroke-linejoin:round; stroke-width:4; stroke-opacity:1; fill:none" points="261.183,733.907 311.913,733.907 362.642,733.907 413.371,733.907 464.101,733.907 514.83,733.907 565.559,733.907 616.289,733.907 667.018,733.907 717.748,733.907 768.477,733.907 819.206,733.907 869.936,733.907 920.665,733.907 971.395,733.907 1022.12,733.907 1072.85,733.907 1123.58,733.907 1174.31,733.907 1225.04,733.907 1275.77,733.907 1326.5,733.907 1377.23,733.907 1427.96,733.907 1478.69,733.907 1529.42,733.907 1580.15,733.907 1630.88,733.907 1681.61,733.907 1732.34,733.907 1783.06,733.907 1833.79,733.907 1884.52,733.907 1935.25,733.907 1985.98,733.907 2036.71,733.907 2087.44,733.907 2138.17,733.907 2188.9,733.907 2239.63,733.907 "/>
<polyline clip-path="url(#clip662)" style="stroke:#00a9ad; stroke-linecap:round; stroke-linejoin:round; stroke-width:4; stroke-opacity:1; fill:none" points="261.183,746.444 311.913,746.444 362.642,746.444 413.371,746.444 464.101,746.444 514.83,746.444 565.559,746.444 616.289,746.444 667.018,746.444 717.748,746.444 768.477,746.444 819.206,746.444 869.936,746.444 920.665,746.444 971.395,746.444 1022.12,746.444 1072.85,746.444 1123.58,746.444 1174.31,746.444 1225.04,746.444 1275.77,746.444 1326.5,746.444 1377.23,746.444 1427.96,746.444 1478.69,746.444 1529.42,746.444 1580.15,746.444 1630.88,746.444 1681.61,746.444 1732.34,746.444 1783.06,746.444 1833.79,746.444 1884.52,746.444 1935.25,746.444 1985.98,746.444 2036.71,746.444 2087.44,746.444 2138.17,746.444 2188.9,746.444 2239.63,746.444 "/>
<polyline clip-path="url(#clip662)" style="stroke:#ed5d92; stroke-linecap:round; stroke-linejoin:round; stroke-width:4; stroke-opacity:1; fill:none" points="261.183,887.853 311.913,887.853 362.642,887.853 413.371,887.853 464.101,887.853 514.83,887.853 565.559,887.853 616.289,887.853 667.018,887.853 717.748,887.853 768.477,887.853 819.206,887.853 869.936,887.853 920.665,887.853 971.395,887.853 1022.12,887.853 1072.85,887.853 1123.58,887.853 1174.31,887.853 1225.04,887.853 1275.77,887.853 1326.5,887.853 1377.23,887.853 1427.96,887.853 1478.69,887.853 1529.42,887.853 1580.15,887.853 1630.88,887.853 1681.61,887.853 1732.34,887.853 1783.06,887.853 1833.79,887.853 1884.52,887.853 1935.25,887.853 1985.98,887.853 2036.71,887.853 2087.44,887.853 2138.17,887.853 2188.9,887.853 2239.63,887.853 "/>
<polyline clip-path="url(#clip662)" style="stroke:#c68125; stroke-linecap:round; stroke-linejoin:round; stroke-width:4; stroke-opacity:1; fill:none" points="261.183,1090.51 311.913,1090.51 362.642,1090.51 413.371,1090.51 464.101,1090.51 514.83,1090.51 565.559,1090.51 616.289,1090.51 667.018,1090.51 717.748,1090.51 768.477,1090.51 819.206,1090.51 869.936,1090.51 920.665,1090.51 971.395,1090.51 1022.12,1090.51 1072.85,1090.51 1123.58,1090.51 1174.31,1090.51 1225.04,1090.51 1275.77,1090.51 1326.5,1090.51 1377.23,1090.51 1427.96,1090.51 1478.69,1090.51 1529.42,1090.51 1580.15,1090.51 1630.88,1090.51 1681.61,1090.51 1732.34,1090.51 1783.06,1090.51 1833.79,1090.51 1884.52,1090.51 1935.25,1090.51 1985.98,1090.51 2036.71,1090.51 2087.44,1090.51 2138.17,1090.51 2188.9,1090.51 2239.63,1090.51 "/>
<polyline clip-path="url(#clip662)" style="stroke:#00a98d; stroke-linecap:round; stroke-linejoin:round; stroke-width:4; stroke-opacity:1; fill:none" points="261.183,781.246 311.913,781.246 362.642,781.246 413.371,781.246 464.101,781.246 514.83,781.246 565.559,781.246 616.289,781.246 667.018,781.246 717.748,781.246 768.477,781.246 819.206,781.246 869.936,781.246 920.665,781.246 971.395,781.246 1022.12,781.246 1072.85,781.246 1123.58,781.246 1174.31,781.246 1225.04,781.246 1275.77,781.246 1326.5,781.246 1377.23,781.246 1427.96,781.246 1478.69,781.246 1529.42,781.246 1580.15,781.246 1630.88,781.246 1681.61,781.246 1732.34,781.246 1783.06,781.246 1833.79,781.246 1884.52,781.246 1935.25,781.246 1985.98,781.246 2036.71,781.246 2087.44,781.246 2138.17,781.246 2188.9,781.246 2239.63,781.246 "/>
<polyline clip-path="url(#clip662)" style="stroke:#8e971d; stroke-linecap:round; stroke-linejoin:round; stroke-width:4; stroke-opacity:1; fill:none" points="261.183,821.782 311.913,821.782 362.642,821.782 413.371,821.782 464.101,821.782 514.83,821.782 565.559,821.782 616.289,821.782 667.018,821.782 717.748,821.782 768.477,821.782 819.206,821.782 869.936,821.782 920.665,821.782 971.395,821.782 1022.12,821.782 1072.85,821.782 1123.58,821.782 1174.31,821.782 1225.04,821.782 1275.77,821.782 1326.5,821.782 1377.23,821.782 1427.96,821.782 1478.69,821.782 1529.42,821.782 1580.15,821.782 1630.88,821.782 1681.61,821.782 1732.34,821.782 1783.06,821.782 1833.79,821.782 1884.52,821.782 1935.25,821.782 1985.98,821.782 2036.71,821.782 2087.44,821.782 2138.17,821.782 2188.9,821.782 2239.63,821.782 "/>
<polyline clip-path="url(#clip662)" style="stroke:#00a8cb; stroke-linecap:round; stroke-linejoin:round; stroke-width:4; stroke-opacity:1; fill:none" points="261.183,531.71 311.913,531.71 362.642,531.71 413.371,531.71 464.101,531.71 514.83,531.71 565.559,531.71 616.289,531.71 667.018,531.71 717.748,531.71 768.477,531.71 819.206,531.71 869.936,531.71 920.665,531.71 971.395,531.71 1022.12,531.71 1072.85,531.71 1123.58,531.71 1174.31,531.71 1225.04,531.71 1275.77,531.71 1326.5,531.71 1377.23,531.71 1427.96,531.71 1478.69,531.71 1529.42,531.71 1580.15,531.71 1630.88,531.71 1681.61,531.71 1732.34,531.71 1783.06,531.71 1833.79,531.71 1884.52,531.71 1935.25,531.71 1985.98,531.71 2036.71,531.71 2087.44,531.71 2138.17,531.71 2188.9,531.71 2239.63,531.71 "/>
<polyline clip-path="url(#clip662)" style="stroke:#9b7fe8; stroke-linecap:round; stroke-linejoin:round; stroke-width:4; stroke-opacity:1; fill:none" points="261.183,732.751 311.913,732.751 362.642,732.751 413.371,732.751 464.101,732.751 514.83,732.751 565.559,732.751 616.289,732.751 667.018,732.751 717.748,732.751 768.477,732.751 819.206,732.751 869.936,732.751 920.665,732.751 971.395,732.751 1022.12,732.751 1072.85,732.751 1123.58,732.751 1174.31,732.751 1225.04,732.751 1275.77,732.751 1326.5,732.751 1377.23,732.751 1427.96,732.751 1478.69,732.751 1529.42,732.751 1580.15,732.751 1630.88,732.751 1681.61,732.751 1732.34,732.751 1783.06,732.751 1833.79,732.751 1884.52,732.751 1935.25,732.751 1985.98,732.751 2036.71,732.751 2087.44,732.751 2138.17,732.751 2188.9,732.751 2239.63,732.751 "/>
<polyline clip-path="url(#clip662)" style="stroke:#608cf6; stroke-linecap:round; stroke-linejoin:round; stroke-width:4; stroke-opacity:1; fill:none" points="261.183,803.08 311.913,803.08 362.642,803.08 413.371,803.08 464.101,803.08 514.83,803.08 565.559,803.08 616.289,803.08 667.018,803.08 717.748,803.08 768.477,803.08 819.206,803.08 869.936,803.08 920.665,803.08 971.395,803.08 1022.12,803.08 1072.85,803.08 1123.58,803.08 1174.31,803.08 1225.04,803.08 1275.77,803.08 1326.5,803.08 1377.23,803.08 1427.96,803.08 1478.69,803.08 1529.42,803.08 1580.15,803.08 1630.88,803.08 1681.61,803.08 1732.34,803.08 1783.06,803.08 1833.79,803.08 1884.52,803.08 1935.25,803.08 1985.98,803.08 2036.71,803.08 2087.44,803.08 2138.17,803.08 2188.9,803.08 2239.63,803.08 "/>
<polyline clip-path="url(#clip662)" style="stroke:#f05f73; stroke-linecap:round; stroke-linejoin:round; stroke-width:4; stroke-opacity:1; fill:none" points="261.183,727.777 311.913,727.777 362.642,727.777 413.371,727.777 464.101,727.777 514.83,727.777 565.559,727.777 616.289,727.777 667.018,727.777 717.748,727.777 768.477,727.777 819.206,727.777 869.936,727.777 920.665,727.777 971.395,727.777 1022.12,727.777 1072.85,727.777 1123.58,727.777 1174.31,727.777 1225.04,727.777 1275.77,727.777 1326.5,727.777 1377.23,727.777 1427.96,727.777 1478.69,727.777 1529.42,727.777 1580.15,727.777 1630.88,727.777 1681.61,727.777 1732.34,727.777 1783.06,727.777 1833.79,727.777 1884.52,727.777 1935.25,727.777 1985.98,727.777 2036.71,727.777 2087.44,727.777 2138.17,727.777 2188.9,727.777 2239.63,727.777 "/>
<polyline clip-path="url(#clip662)" style="stroke:#dd64b5; stroke-linecap:round; stroke-linejoin:round; stroke-width:4; stroke-opacity:1; fill:none" points="261.183,1265.6 311.913,1265.6 362.642,1265.6 413.371,1265.6 464.101,1265.6 514.83,1265.6 565.559,1265.6 616.289,1265.6 667.018,1265.6 717.748,1265.6 768.477,1265.6 819.206,1265.6 869.936,1265.6 920.665,1265.6 971.395,1265.6 1022.12,1265.6 1072.85,1265.6 1123.58,1265.6 1174.31,1265.6 1225.04,1265.6 1275.77,1265.6 1326.5,1265.6 1377.23,1265.6 1427.96,1265.6 1478.69,1265.6 1529.42,1265.6 1580.15,1265.6 1630.88,1265.6 1681.61,1265.6 1732.34,1265.6 1783.06,1265.6 1833.79,1265.6 1884.52,1265.6 1935.25,1265.6 1985.98,1265.6 2036.71,1265.6 2087.44,1265.6 2138.17,1265.6 2188.9,1265.6 2239.63,1265.6 "/>
<polyline clip-path="url(#clip662)" style="stroke:#6b9e32; stroke-linecap:round; stroke-linejoin:round; stroke-width:4; stroke-opacity:1; fill:none" points="261.183,989.486 311.913,989.486 362.642,989.486 413.371,989.486 464.101,989.486 514.83,989.486 565.559,989.486 616.289,989.486 667.018,989.486 717.748,989.486 768.477,989.486 819.206,989.486 869.936,989.486 920.665,989.486 971.395,989.486 1022.12,989.486 1072.85,989.486 1123.58,989.486 1174.31,989.486 1225.04,989.486 1275.77,989.486 1326.5,989.486 1377.23,989.486 1427.96,989.486 1478.69,989.486 1529.42,989.486 1580.15,989.486 1630.88,989.486 1681.61,989.486 1732.34,989.486 1783.06,989.486 1833.79,989.486 1884.52,989.486 1935.25,989.486 1985.98,989.486 2036.71,989.486 2087.44,989.486 2138.17,989.486 2188.9,989.486 2239.63,989.486 "/>
<polyline clip-path="url(#clip662)" style="stroke:#009af9; stroke-linecap:round; stroke-linejoin:round; stroke-width:4; stroke-opacity:1; fill:none" points="261.183,1032.49 311.913,1032.49 362.642,1032.49 413.371,1032.49 464.101,1032.49 514.83,1032.49 565.559,1032.49 616.289,1032.49 667.018,1032.49 717.748,1032.49 768.477,1032.49 819.206,1032.49 869.936,1032.49 920.665,1032.49 971.395,1032.49 1022.12,1032.49 1072.85,1032.49 1123.58,1032.49 1174.31,1032.49 1225.04,1032.49 1275.77,1032.49 1326.5,1032.49 1377.23,1032.49 1427.96,1032.49 1478.69,1032.49 1529.42,1032.49 1580.15,1032.49 1630.88,1032.49 1681.61,1032.49 1732.34,1032.49 1783.06,1032.49 1833.79,1032.49 1884.52,1032.49 1935.25,1032.49 1985.98,1032.49 2036.71,1032.49 2087.44,1032.49 2138.17,1032.49 2188.9,1032.49 2239.63,1032.49 "/>
<polyline clip-path="url(#clip662)" style="stroke:#e26f46; stroke-linecap:round; stroke-linejoin:round; stroke-width:4; stroke-opacity:1; fill:none" points="261.183,643.589 311.913,643.589 362.642,643.589 413.371,643.589 464.101,643.589 514.83,643.589 565.559,643.589 616.289,643.589 667.018,643.589 717.748,643.589 768.477,643.589 819.206,643.589 869.936,643.589 920.665,643.589 971.395,643.589 1022.12,643.589 1072.85,643.589 1123.58,643.589 1174.31,643.589 1225.04,643.589 1275.77,643.589 1326.5,643.589 1377.23,643.589 1427.96,643.589 1478.69,643.589 1529.42,643.589 1580.15,643.589 1630.88,643.589 1681.61,643.589 1732.34,643.589 1783.06,643.589 1833.79,643.589 1884.52,643.589 1935.25,643.589 1985.98,643.589 2036.71,643.589 2087.44,643.589 2138.17,643.589 2188.9,643.589 2239.63,643.589 "/>
<polyline clip-path="url(#clip662)" style="stroke:#3da44d; stroke-linecap:round; stroke-linejoin:round; stroke-width:4; stroke-opacity:1; fill:none" points="261.183,765.215 311.913,765.215 362.642,765.215 413.371,765.215 464.101,765.215 514.83,765.215 565.559,765.215 616.289,765.215 667.018,765.215 717.748,765.215 768.477,765.215 819.206,765.215 869.936,765.215 920.665,765.215 971.395,765.215 1022.12,765.215 1072.85,765.215 1123.58,765.215 1174.31,765.215 1225.04,765.215 1275.77,765.215 1326.5,765.215 1377.23,765.215 1427.96,765.215 1478.69,765.215 1529.42,765.215 1580.15,765.215 1630.88,765.215 1681.61,765.215 1732.34,765.215 1783.06,765.215 1833.79,765.215 1884.52,765.215 1935.25,765.215 1985.98,765.215 2036.71,765.215 2087.44,765.215 2138.17,765.215 2188.9,765.215 2239.63,765.215 "/>
<polyline clip-path="url(#clip662)" style="stroke:#c271d2; stroke-linecap:round; stroke-linejoin:round; stroke-width:4; stroke-opacity:1; fill:none" points="261.183,764.119 311.913,764.119 362.642,764.119 413.371,764.119 464.101,764.119 514.83,764.119 565.559,764.119 616.289,764.119 667.018,764.119 717.748,764.119 768.477,764.119 819.206,764.119 869.936,764.119 920.665,764.119 971.395,764.119 1022.12,764.119 1072.85,764.119 1123.58,764.119 1174.31,764.119 1225.04,764.119 1275.77,764.119 1326.5,764.119 1377.23,764.119 1427.96,764.119 1478.69,764.119 1529.42,764.119 1580.15,764.119 1630.88,764.119 1681.61,764.119 1732.34,764.119 1783.06,764.119 1833.79,764.119 1884.52,764.119 1935.25,764.119 1985.98,764.119 2036.71,764.119 2087.44,764.119 2138.17,764.119 2188.9,764.119 2239.63,764.119 "/>
</svg>
