<?xml version="1.0" encoding="utf-8"?>
<svg xmlns="http://www.w3.org/2000/svg" xmlns:xlink="http://www.w3.org/1999/xlink" width="600" height="400" viewBox="0 0 2400 1600">
<defs>
  <clipPath id="clip040">
    <rect x="0" y="0" width="2400" height="1600"/>
  </clipPath>
</defs>
<path clip-path="url(#clip040)" d="M0 1600 L2400 1600 L2400 0 L0 0  Z" fill="#ffffff" fill-rule="evenodd" fill-opacity="1"/>
<defs>
  <clipPath id="clip041">
    <rect x="480" y="0" width="1681" height="1600"/>
  </clipPath>
</defs>
<path clip-path="url(#clip040)" d="M156.598 1486.45 L2352.76 1486.45 L2352.76 106.192 L156.598 106.192  Z" fill="#eaeaea" fill-rule="evenodd" fill-opacity="1"/>
<defs>
  <clipPath id="clip042">
    <rect x="156" y="106" width="2197" height="1381"/>
  </clipPath>
</defs>
<polyline clip-path="url(#clip042)" style="stroke:#ffffff; stroke-linecap:round; stroke-linejoin:round; stroke-width:4; stroke-opacity:1; fill:none" points="168.803,1486.45 168.803,106.192 "/>
<polyline clip-path="url(#clip042)" style="stroke:#ffffff; stroke-linecap:round; stroke-linejoin:round; stroke-width:4; stroke-opacity:1; fill:none" points="711.74,1486.45 711.74,106.192 "/>
<polyline clip-path="url(#clip042)" style="stroke:#ffffff; stroke-linecap:round; stroke-linejoin:round; stroke-width:4; stroke-opacity:1; fill:none" points="1254.68,1486.45 1254.68,106.192 "/>
<polyline clip-path="url(#clip042)" style="stroke:#ffffff; stroke-linecap:round; stroke-linejoin:round; stroke-width:4; stroke-opacity:1; fill:none" points="1797.61,1486.45 1797.61,106.192 "/>
<polyline clip-path="url(#clip042)" style="stroke:#ffffff; stroke-linecap:round; stroke-linejoin:round; stroke-width:4; stroke-opacity:1; fill:none" points="2340.55,1486.45 2340.55,106.192 "/>
<polyline clip-path="url(#clip042)" style="stroke:#ffffff; stroke-linecap:round; stroke-linejoin:round; stroke-width:2; stroke-opacity:1; fill:none" points="440.272,1486.45 440.272,106.192 "/>
<polyline clip-path="url(#clip042)" style="stroke:#ffffff; stroke-linecap:round; stroke-linejoin:round; stroke-width:2; stroke-opacity:1; fill:none" points="983.209,1486.45 983.209,106.192 "/>
<polyline clip-path="url(#clip042)" style="stroke:#ffffff; stroke-linecap:round; stroke-linejoin:round; stroke-width:2; stroke-opacity:1; fill:none" points="1526.15,1486.45 1526.15,106.192 "/>
<polyline clip-path="url(#clip042)" style="stroke:#ffffff; stroke-linecap:round; stroke-linejoin:round; stroke-width:2; stroke-opacity:1; fill:none" points="2069.08,1486.45 2069.08,106.192 "/>
<polyline clip-path="url(#clip040)" style="stroke:#ffffff; stroke-linecap:round; stroke-linejoin:round; stroke-width:4; stroke-opacity:1; fill:none" points="156.598,1486.45 2352.76,1486.45 "/>
<polyline clip-path="url(#clip040)" style="stroke:#333333; stroke-linecap:round; stroke-linejoin:round; stroke-width:4; stroke-opacity:1; fill:none" points="168.803,1486.45 168.803,1505.35 "/>
<polyline clip-path="url(#clip040)" style="stroke:#333333; stroke-linecap:round; stroke-linejoin:round; stroke-width:4; stroke-opacity:1; fill:none" points="711.74,1486.45 711.74,1505.35 "/>
<polyline clip-path="url(#clip040)" style="stroke:#333333; stroke-linecap:round; stroke-linejoin:round; stroke-width:4; stroke-opacity:1; fill:none" points="1254.68,1486.45 1254.68,1505.35 "/>
<polyline clip-path="url(#clip040)" style="stroke:#333333; stroke-linecap:round; stroke-linejoin:round; stroke-width:4; stroke-opacity:1; fill:none" points="1797.61,1486.45 1797.61,1505.35 "/>
<polyline clip-path="url(#clip040)" style="stroke:#333333; stroke-linecap:round; stroke-linejoin:round; stroke-width:4; stroke-opacity:1; fill:none" points="2340.55,1486.45 2340.55,1505.35 "/>
<polyline clip-path="url(#clip040)" style="stroke:#333333; stroke-linecap:round; stroke-linejoin:round; stroke-width:4; stroke-opacity:1; fill:none" points="440.272,1486.45 440.272,1495.9 "/>
<polyline clip-path="url(#clip040)" style="stroke:#333333; stroke-linecap:round; stroke-linejoin:round; stroke-width:4; stroke-opacity:1; fill:none" points="983.209,1486.45 983.209,1495.9 "/>
<polyline clip-path="url(#clip040)" style="stroke:#333333; stroke-linecap:round; stroke-linejoin:round; stroke-width:4; stroke-opacity:1; fill:none" points="1526.15,1486.45 1526.15,1495.9 "/>
<polyline clip-path="url(#clip040)" style="stroke:#333333; stroke-linecap:round; stroke-linejoin:round; stroke-width:4; stroke-opacity:1; fill:none" points="2069.08,1486.45 2069.08,1495.9 "/>
<path clip-path="url(#clip040)" d="M115.829 1541.62 L145.505 1541.62 L145.505 1545.55 L115.829 1545.55 L115.829 1541.62 Z" fill="#4c4c4c" fill-rule="nonzero" fill-opacity="1" /><path clip-path="url(#clip040)" d="M165.597 1526.97 Q161.986 1526.97 160.158 1530.53 Q158.352 1534.07 158.352 1541.2 Q158.352 1548.31 160.158 1551.87 Q161.986 1555.42 165.597 1555.42 Q169.232 1555.42 171.037 1551.87 Q172.866 1548.31 172.866 1541.2 Q172.866 1534.07 171.037 1530.53 Q169.232 1526.97 165.597 1526.97 M165.597 1523.26 Q171.408 1523.26 174.463 1527.87 Q177.542 1532.45 177.542 1541.2 Q177.542 1549.93 174.463 1554.54 Q171.408 1559.12 165.597 1559.12 Q159.787 1559.12 156.709 1554.54 Q153.653 1549.93 153.653 1541.2 Q153.653 1532.45 156.709 1527.87 Q159.787 1523.26 165.597 1523.26 Z" fill="#4c4c4c" fill-rule="nonzero" fill-opacity="1" /><path clip-path="url(#clip040)" d="M185.759 1552.57 L190.644 1552.57 L190.644 1558.45 L185.759 1558.45 L185.759 1552.57 Z" fill="#4c4c4c" fill-rule="nonzero" fill-opacity="1" /><path clip-path="url(#clip040)" d="M200.875 1523.89 L219.231 1523.89 L219.231 1527.82 L205.157 1527.82 L205.157 1536.3 Q206.176 1535.95 207.194 1535.79 Q208.213 1535.6 209.231 1535.6 Q215.018 1535.6 218.398 1538.77 Q221.778 1541.94 221.778 1547.36 Q221.778 1552.94 218.306 1556.04 Q214.833 1559.12 208.514 1559.12 Q206.338 1559.12 204.069 1558.75 Q201.824 1558.38 199.417 1557.64 L199.417 1552.94 Q201.5 1554.07 203.722 1554.63 Q205.944 1555.18 208.421 1555.18 Q212.426 1555.18 214.764 1553.08 Q217.102 1550.97 217.102 1547.36 Q217.102 1543.75 214.764 1541.64 Q212.426 1539.54 208.421 1539.54 Q206.546 1539.54 204.671 1539.95 Q202.819 1540.37 200.875 1541.25 L200.875 1523.89 Z" fill="#4c4c4c" fill-rule="nonzero" fill-opacity="1" /><path clip-path="url(#clip040)" d="M689.125 1526.97 Q685.514 1526.97 683.685 1530.53 Q681.879 1534.07 681.879 1541.2 Q681.879 1548.31 683.685 1551.87 Q685.514 1555.42 689.125 1555.42 Q692.759 1555.42 694.564 1551.87 Q696.393 1548.31 696.393 1541.2 Q696.393 1534.07 694.564 1530.53 Q692.759 1526.97 689.125 1526.97 M689.125 1523.26 Q694.935 1523.26 697.99 1527.87 Q701.069 1532.45 701.069 1541.2 Q701.069 1549.93 697.99 1554.54 Q694.935 1559.12 689.125 1559.12 Q683.314 1559.12 680.236 1554.54 Q677.18 1549.93 677.18 1541.2 Q677.18 1532.45 680.236 1527.87 Q683.314 1523.26 689.125 1523.26 Z" fill="#4c4c4c" fill-rule="nonzero" fill-opacity="1" /><path clip-path="url(#clip040)" d="M709.287 1552.57 L714.171 1552.57 L714.171 1558.45 L709.287 1558.45 L709.287 1552.57 Z" fill="#4c4c4c" fill-rule="nonzero" fill-opacity="1" /><path clip-path="url(#clip040)" d="M734.356 1526.97 Q730.745 1526.97 728.916 1530.53 Q727.111 1534.07 727.111 1541.2 Q727.111 1548.31 728.916 1551.87 Q730.745 1555.42 734.356 1555.42 Q737.99 1555.42 739.796 1551.87 Q741.624 1548.31 741.624 1541.2 Q741.624 1534.07 739.796 1530.53 Q737.99 1526.97 734.356 1526.97 M734.356 1523.26 Q740.166 1523.26 743.222 1527.87 Q746.3 1532.45 746.3 1541.2 Q746.3 1549.93 743.222 1554.54 Q740.166 1559.12 734.356 1559.12 Q728.546 1559.12 725.467 1554.54 Q722.412 1549.93 722.412 1541.2 Q722.412 1532.45 725.467 1527.87 Q728.546 1523.26 734.356 1523.26 Z" fill="#4c4c4c" fill-rule="nonzero" fill-opacity="1" /><path clip-path="url(#clip040)" d="M1232.56 1526.97 Q1228.95 1526.97 1227.12 1530.53 Q1225.31 1534.07 1225.31 1541.2 Q1225.31 1548.31 1227.12 1551.87 Q1228.95 1555.42 1232.56 1555.42 Q1236.19 1555.42 1238 1551.87 Q1239.83 1548.31 1239.83 1541.2 Q1239.83 1534.07 1238 1530.53 Q1236.19 1526.97 1232.56 1526.97 M1232.56 1523.26 Q1238.37 1523.26 1241.42 1527.87 Q1244.5 1532.45 1244.5 1541.2 Q1244.5 1549.93 1241.42 1554.54 Q1238.37 1559.12 1232.56 1559.12 Q1226.75 1559.12 1223.67 1554.54 Q1220.61 1549.93 1220.61 1541.2 Q1220.61 1532.45 1223.67 1527.87 Q1226.75 1523.26 1232.56 1523.26 Z" fill="#4c4c4c" fill-rule="nonzero" fill-opacity="1" /><path clip-path="url(#clip040)" d="M1252.72 1552.57 L1257.61 1552.57 L1257.61 1558.45 L1252.72 1558.45 L1252.72 1552.57 Z" fill="#4c4c4c" fill-rule="nonzero" fill-opacity="1" /><path clip-path="url(#clip040)" d="M1267.84 1523.89 L1286.19 1523.89 L1286.19 1527.82 L1272.12 1527.82 L1272.12 1536.3 Q1273.14 1535.95 1274.16 1535.79 Q1275.17 1535.6 1276.19 1535.6 Q1281.98 1535.6 1285.36 1538.77 Q1288.74 1541.94 1288.74 1547.36 Q1288.74 1552.94 1285.27 1556.04 Q1281.79 1559.12 1275.48 1559.12 Q1273.3 1559.12 1271.03 1558.75 Q1268.79 1558.38 1266.38 1557.64 L1266.38 1552.94 Q1268.46 1554.07 1270.68 1554.63 Q1272.91 1555.18 1275.38 1555.18 Q1279.39 1555.18 1281.73 1553.08 Q1284.06 1550.97 1284.06 1547.36 Q1284.06 1543.75 1281.73 1541.64 Q1279.39 1539.54 1275.38 1539.54 Q1273.51 1539.54 1271.63 1539.95 Q1269.78 1540.37 1267.84 1541.25 L1267.84 1523.89 Z" fill="#4c4c4c" fill-rule="nonzero" fill-opacity="1" /><path clip-path="url(#clip040)" d="M1764.77 1554.51 L1772.41 1554.51 L1772.41 1528.15 L1764.1 1529.81 L1764.1 1525.55 L1772.36 1523.89 L1777.04 1523.89 L1777.04 1554.51 L1784.67 1554.51 L1784.67 1558.45 L1764.77 1558.45 L1764.77 1554.51 Z" fill="#4c4c4c" fill-rule="nonzero" fill-opacity="1" /><path clip-path="url(#clip040)" d="M1794.12 1552.57 L1799 1552.57 L1799 1558.45 L1794.12 1558.45 L1794.12 1552.57 Z" fill="#4c4c4c" fill-rule="nonzero" fill-opacity="1" /><path clip-path="url(#clip040)" d="M1819.19 1526.97 Q1815.58 1526.97 1813.75 1530.53 Q1811.94 1534.07 1811.94 1541.2 Q1811.94 1548.31 1813.75 1551.87 Q1815.58 1555.42 1819.19 1555.42 Q1822.82 1555.42 1824.63 1551.87 Q1826.46 1548.31 1826.46 1541.2 Q1826.46 1534.07 1824.63 1530.53 Q1822.82 1526.97 1819.19 1526.97 M1819.19 1523.26 Q1825 1523.26 1828.05 1527.87 Q1831.13 1532.45 1831.13 1541.2 Q1831.13 1549.93 1828.05 1554.54 Q1825 1559.12 1819.19 1559.12 Q1813.38 1559.12 1810.3 1554.54 Q1807.24 1549.93 1807.24 1541.2 Q1807.24 1532.45 1810.3 1527.87 Q1813.38 1523.26 1819.19 1523.26 Z" fill="#4c4c4c" fill-rule="nonzero" fill-opacity="1" /><path clip-path="url(#clip040)" d="M2308.2 1554.51 L2315.84 1554.51 L2315.84 1528.15 L2307.53 1529.81 L2307.53 1525.55 L2315.79 1523.89 L2320.47 1523.89 L2320.47 1554.51 L2328.11 1554.51 L2328.11 1558.45 L2308.2 1558.45 L2308.2 1554.51 Z" fill="#4c4c4c" fill-rule="nonzero" fill-opacity="1" /><path clip-path="url(#clip040)" d="M2337.55 1552.57 L2342.44 1552.57 L2342.44 1558.45 L2337.55 1558.45 L2337.55 1552.57 Z" fill="#4c4c4c" fill-rule="nonzero" fill-opacity="1" /><path clip-path="url(#clip040)" d="M2352.67 1523.89 L2371.03 1523.89 L2371.03 1527.82 L2356.95 1527.82 L2356.95 1536.3 Q2357.97 1535.95 2358.99 1535.79 Q2360.01 1535.6 2361.03 1535.6 Q2366.81 1535.6 2370.19 1538.77 Q2373.57 1541.94 2373.57 1547.36 Q2373.57 1552.94 2370.1 1556.04 Q2366.63 1559.12 2360.31 1559.12 Q2358.13 1559.12 2355.86 1558.75 Q2353.62 1558.38 2351.21 1557.64 L2351.21 1552.94 Q2353.29 1554.07 2355.52 1554.63 Q2357.74 1555.18 2360.21 1555.18 Q2364.22 1555.18 2366.56 1553.08 Q2368.9 1550.97 2368.9 1547.36 Q2368.9 1543.75 2366.56 1541.64 Q2364.22 1539.54 2360.21 1539.54 Q2358.34 1539.54 2356.46 1539.95 Q2354.61 1540.37 2352.67 1541.25 L2352.67 1523.89 Z" fill="#4c4c4c" fill-rule="nonzero" fill-opacity="1" /><polyline clip-path="url(#clip042)" style="stroke:#ffffff; stroke-linecap:round; stroke-linejoin:round; stroke-width:4; stroke-opacity:1; fill:none" points="156.598,1486.45 2352.76,1486.45 "/>
<polyline clip-path="url(#clip042)" style="stroke:#ffffff; stroke-linecap:round; stroke-linejoin:round; stroke-width:4; stroke-opacity:1; fill:none" points="156.598,1210.4 2352.76,1210.4 "/>
<polyline clip-path="url(#clip042)" style="stroke:#ffffff; stroke-linecap:round; stroke-linejoin:round; stroke-width:4; stroke-opacity:1; fill:none" points="156.598,934.346 2352.76,934.346 "/>
<polyline clip-path="url(#clip042)" style="stroke:#ffffff; stroke-linecap:round; stroke-linejoin:round; stroke-width:4; stroke-opacity:1; fill:none" points="156.598,658.294 2352.76,658.294 "/>
<polyline clip-path="url(#clip042)" style="stroke:#ffffff; stroke-linecap:round; stroke-linejoin:round; stroke-width:4; stroke-opacity:1; fill:none" points="156.598,382.243 2352.76,382.243 "/>
<polyline clip-path="url(#clip042)" style="stroke:#ffffff; stroke-linecap:round; stroke-linejoin:round; stroke-width:4; stroke-opacity:1; fill:none" points="156.598,106.192 2352.76,106.192 "/>
<polyline clip-path="url(#clip042)" style="stroke:#ffffff; stroke-linecap:round; stroke-linejoin:round; stroke-width:2; stroke-opacity:1; fill:none" points="156.598,1348.42 2352.76,1348.42 "/>
<polyline clip-path="url(#clip042)" style="stroke:#ffffff; stroke-linecap:round; stroke-linejoin:round; stroke-width:2; stroke-opacity:1; fill:none" points="156.598,1072.37 2352.76,1072.37 "/>
<polyline clip-path="url(#clip042)" style="stroke:#ffffff; stroke-linecap:round; stroke-linejoin:round; stroke-width:2; stroke-opacity:1; fill:none" points="156.598,796.32 2352.76,796.32 "/>
<polyline clip-path="url(#clip042)" style="stroke:#ffffff; stroke-linecap:round; stroke-linejoin:round; stroke-width:2; stroke-opacity:1; fill:none" points="156.598,520.269 2352.76,520.269 "/>
<polyline clip-path="url(#clip042)" style="stroke:#ffffff; stroke-linecap:round; stroke-linejoin:round; stroke-width:2; stroke-opacity:1; fill:none" points="156.598,244.218 2352.76,244.218 "/>
<polyline clip-path="url(#clip040)" style="stroke:#ffffff; stroke-linecap:round; stroke-linejoin:round; stroke-width:4; stroke-opacity:1; fill:none" points="156.598,1486.45 156.598,106.192 "/>
<polyline clip-path="url(#clip040)" style="stroke:#333333; stroke-linecap:round; stroke-linejoin:round; stroke-width:4; stroke-opacity:1; fill:none" points="156.598,1486.45 137.701,1486.45 "/>
<polyline clip-path="url(#clip040)" style="stroke:#333333; stroke-linecap:round; stroke-linejoin:round; stroke-width:4; stroke-opacity:1; fill:none" points="156.598,1210.4 137.701,1210.4 "/>
<polyline clip-path="url(#clip040)" style="stroke:#333333; stroke-linecap:round; stroke-linejoin:round; stroke-width:4; stroke-opacity:1; fill:none" points="156.598,934.346 137.701,934.346 "/>
<polyline clip-path="url(#clip040)" style="stroke:#333333; stroke-linecap:round; stroke-linejoin:round; stroke-width:4; stroke-opacity:1; fill:none" points="156.598,658.294 137.701,658.294 "/>
<polyline clip-path="url(#clip040)" style="stroke:#333333; stroke-linecap:round; stroke-linejoin:round; stroke-width:4; stroke-opacity:1; fill:none" points="156.598,382.243 137.701,382.243 "/>
<polyline clip-path="url(#clip040)" style="stroke:#333333; stroke-linecap:round; stroke-linejoin:round; stroke-width:4; stroke-opacity:1; fill:none" points="156.598,106.192 137.701,106.192 "/>
<polyline clip-path="url(#clip040)" style="stroke:#333333; stroke-linecap:round; stroke-linejoin:round; stroke-width:4; stroke-opacity:1; fill:none" points="156.598,1348.42 147.149,1348.42 "/>
<polyline clip-path="url(#clip040)" style="stroke:#333333; stroke-linecap:round; stroke-linejoin:round; stroke-width:4; stroke-opacity:1; fill:none" points="156.598,1072.37 147.149,1072.37 "/>
<polyline clip-path="url(#clip040)" style="stroke:#333333; stroke-linecap:round; stroke-linejoin:round; stroke-width:4; stroke-opacity:1; fill:none" points="156.598,796.32 147.149,796.32 "/>
<polyline clip-path="url(#clip040)" style="stroke:#333333; stroke-linecap:round; stroke-linejoin:round; stroke-width:4; stroke-opacity:1; fill:none" points="156.598,520.269 147.149,520.269 "/>
<polyline clip-path="url(#clip040)" style="stroke:#333333; stroke-linecap:round; stroke-linejoin:round; stroke-width:4; stroke-opacity:1; fill:none" points="156.598,244.218 147.149,244.218 "/>
<path clip-path="url(#clip040)" d="M45.4226 1472.25 Q41.8115 1472.25 39.9828 1475.81 Q38.1773 1479.35 38.1773 1486.48 Q38.1773 1493.59 39.9828 1497.15 Q41.8115 1500.7 45.4226 1500.7 Q49.0569 1500.7 50.8624 1497.15 Q52.6911 1493.59 52.6911 1486.48 Q52.6911 1479.35 50.8624 1475.81 Q49.0569 1472.25 45.4226 1472.25 M45.4226 1468.54 Q51.2328 1468.54 54.2883 1473.15 Q57.367 1477.73 57.367 1486.48 Q57.367 1495.21 54.2883 1499.82 Q51.2328 1504.4 45.4226 1504.4 Q39.6125 1504.4 36.5338 1499.82 Q33.4782 1495.21 33.4782 1486.48 Q33.4782 1477.73 36.5338 1473.15 Q39.6125 1468.54 45.4226 1468.54 Z" fill="#4c4c4c" fill-rule="nonzero" fill-opacity="1" /><path clip-path="url(#clip040)" d="M65.5845 1497.85 L70.4688 1497.85 L70.4688 1503.73 L65.5845 1503.73 L65.5845 1497.85 Z" fill="#4c4c4c" fill-rule="nonzero" fill-opacity="1" /><path clip-path="url(#clip040)" d="M90.6539 1472.25 Q87.0428 1472.25 85.2141 1475.81 Q83.4085 1479.35 83.4085 1486.48 Q83.4085 1493.59 85.2141 1497.15 Q87.0428 1500.7 90.6539 1500.7 Q94.2881 1500.7 96.0936 1497.15 Q97.9223 1493.59 97.9223 1486.48 Q97.9223 1479.35 96.0936 1475.81 Q94.2881 1472.25 90.6539 1472.25 M90.6539 1468.54 Q96.464 1468.54 99.5195 1473.15 Q102.598 1477.73 102.598 1486.48 Q102.598 1495.21 99.5195 1499.82 Q96.464 1504.4 90.6539 1504.4 Q84.8437 1504.4 81.765 1499.82 Q78.7095 1495.21 78.7095 1486.48 Q78.7095 1477.73 81.765 1473.15 Q84.8437 1468.54 90.6539 1468.54 Z" fill="#4c4c4c" fill-rule="nonzero" fill-opacity="1" /><path clip-path="url(#clip040)" d="M47.0198 1196.2 Q43.4087 1196.2 41.58 1199.76 Q39.7745 1203.3 39.7745 1210.43 Q39.7745 1217.54 41.58 1221.1 Q43.4087 1224.64 47.0198 1224.64 Q50.6541 1224.64 52.4596 1221.1 Q54.2883 1217.54 54.2883 1210.43 Q54.2883 1203.3 52.4596 1199.76 Q50.6541 1196.2 47.0198 1196.2 M47.0198 1192.49 Q52.83 1192.49 55.8855 1197.1 Q58.9642 1201.68 58.9642 1210.43 Q58.9642 1219.16 55.8855 1223.76 Q52.83 1228.35 47.0198 1228.35 Q41.2097 1228.35 38.131 1223.76 Q35.0754 1219.16 35.0754 1210.43 Q35.0754 1201.68 38.131 1197.1 Q41.2097 1192.49 47.0198 1192.49 Z" fill="#4c4c4c" fill-rule="nonzero" fill-opacity="1" /><path clip-path="url(#clip040)" d="M67.1818 1221.8 L72.066 1221.8 L72.066 1227.68 L67.1818 1227.68 L67.1818 1221.8 Z" fill="#4c4c4c" fill-rule="nonzero" fill-opacity="1" /><path clip-path="url(#clip040)" d="M86.2789 1223.74 L102.598 1223.74 L102.598 1227.68 L80.6539 1227.68 L80.6539 1223.74 Q83.3159 1220.99 87.8992 1216.36 Q92.5057 1211.7 93.6862 1210.36 Q95.9316 1207.84 96.8112 1206.1 Q97.714 1204.34 97.714 1202.65 Q97.714 1199.9 95.7696 1198.16 Q93.8483 1196.43 90.7464 1196.43 Q88.5474 1196.43 86.0937 1197.19 Q83.6632 1197.95 80.8854 1199.51 L80.8854 1194.78 Q83.7094 1193.65 86.1631 1193.07 Q88.6168 1192.49 90.6539 1192.49 Q96.0242 1192.49 99.2186 1195.18 Q102.413 1197.86 102.413 1202.35 Q102.413 1204.48 101.603 1206.4 Q100.816 1208.3 98.7094 1210.89 Q98.1307 1211.57 95.0288 1214.78 Q91.927 1217.98 86.2789 1223.74 Z" fill="#4c4c4c" fill-rule="nonzero" fill-opacity="1" /><path clip-path="url(#clip040)" d="M44.9365 920.144 Q41.3254 920.144 39.4967 923.709 Q37.6912 927.251 37.6912 934.38 Q37.6912 941.487 39.4967 945.052 Q41.3254 948.593 44.9365 948.593 Q48.5707 948.593 50.3763 945.052 Q52.205 941.487 52.205 934.38 Q52.205 927.251 50.3763 923.709 Q48.5707 920.144 44.9365 920.144 M44.9365 916.441 Q50.7467 916.441 53.8022 921.047 Q56.8809 925.63 56.8809 934.38 Q56.8809 943.107 53.8022 947.714 Q50.7467 952.297 44.9365 952.297 Q39.1264 952.297 36.0477 947.714 Q32.9921 943.107 32.9921 934.38 Q32.9921 925.63 36.0477 921.047 Q39.1264 916.441 44.9365 916.441 Z" fill="#4c4c4c" fill-rule="nonzero" fill-opacity="1" /><path clip-path="url(#clip040)" d="M65.0984 945.746 L69.9827 945.746 L69.9827 951.626 L65.0984 951.626 L65.0984 945.746 Z" fill="#4c4c4c" fill-rule="nonzero" fill-opacity="1" /><path clip-path="url(#clip040)" d="M93.015 921.14 L81.2095 939.589 L93.015 939.589 L93.015 921.14 M91.7881 917.066 L97.6677 917.066 L97.6677 939.589 L102.598 939.589 L102.598 943.477 L97.6677 943.477 L97.6677 951.626 L93.015 951.626 L93.015 943.477 L77.4132 943.477 L77.4132 938.964 L91.7881 917.066 Z" fill="#4c4c4c" fill-rule="nonzero" fill-opacity="1" /><path clip-path="url(#clip040)" d="M45.2606 644.093 Q41.6495 644.093 39.8208 647.658 Q38.0152 651.2 38.0152 658.329 Q38.0152 665.436 39.8208 669 Q41.6495 672.542 45.2606 672.542 Q48.8948 672.542 50.7004 669 Q52.5291 665.436 52.5291 658.329 Q52.5291 651.2 50.7004 647.658 Q48.8948 644.093 45.2606 644.093 M45.2606 640.389 Q51.0707 640.389 54.1263 644.996 Q57.205 649.579 57.205 658.329 Q57.205 667.056 54.1263 671.662 Q51.0707 676.246 45.2606 676.246 Q39.4504 676.246 36.3717 671.662 Q33.3162 667.056 33.3162 658.329 Q33.3162 649.579 36.3717 644.996 Q39.4504 640.389 45.2606 640.389 Z" fill="#4c4c4c" fill-rule="nonzero" fill-opacity="1" /><path clip-path="url(#clip040)" d="M65.4225 669.695 L70.3067 669.695 L70.3067 675.574 L65.4225 675.574 L65.4225 669.695 Z" fill="#4c4c4c" fill-rule="nonzero" fill-opacity="1" /><path clip-path="url(#clip040)" d="M91.0705 656.431 Q87.9224 656.431 86.0705 658.584 Q84.2419 660.737 84.2419 664.487 Q84.2419 668.213 86.0705 670.389 Q87.9224 672.542 91.0705 672.542 Q94.2186 672.542 96.0473 670.389 Q97.8992 668.213 97.8992 664.487 Q97.8992 660.737 96.0473 658.584 Q94.2186 656.431 91.0705 656.431 M100.353 641.778 L100.353 646.038 Q98.5936 645.204 96.7881 644.764 Q95.0057 644.325 93.2464 644.325 Q88.6168 644.325 86.1631 647.45 Q83.7326 650.575 83.3854 656.894 Q84.7511 654.88 86.8113 653.815 Q88.8715 652.727 91.3483 652.727 Q96.5566 652.727 99.5658 655.899 Q102.598 659.047 102.598 664.487 Q102.598 669.811 99.4501 673.028 Q96.302 676.246 91.0705 676.246 Q85.0752 676.246 81.9039 671.662 Q78.7326 667.056 78.7326 658.329 Q78.7326 650.135 82.6215 645.274 Q86.5104 640.389 93.0612 640.389 Q94.8205 640.389 96.6029 640.737 Q98.4084 641.084 100.353 641.778 Z" fill="#4c4c4c" fill-rule="nonzero" fill-opacity="1" /><path clip-path="url(#clip040)" d="M45.5152 368.042 Q41.9041 368.042 40.0754 371.607 Q38.2699 375.148 38.2699 382.278 Q38.2699 389.384 40.0754 392.949 Q41.9041 396.491 45.5152 396.491 Q49.1494 396.491 50.955 392.949 Q52.7837 389.384 52.7837 382.278 Q52.7837 375.148 50.955 371.607 Q49.1494 368.042 45.5152 368.042 M45.5152 364.338 Q51.3254 364.338 54.3809 368.945 Q57.4596 373.528 57.4596 382.278 Q57.4596 391.005 54.3809 395.611 Q51.3254 400.195 45.5152 400.195 Q39.7051 400.195 36.6264 395.611 Q33.5708 391.005 33.5708 382.278 Q33.5708 373.528 36.6264 368.945 Q39.7051 364.338 45.5152 364.338 Z" fill="#4c4c4c" fill-rule="nonzero" fill-opacity="1" /><path clip-path="url(#clip040)" d="M65.6771 393.644 L70.5614 393.644 L70.5614 399.523 L65.6771 399.523 L65.6771 393.644 Z" fill="#4c4c4c" fill-rule="nonzero" fill-opacity="1" /><path clip-path="url(#clip040)" d="M90.7464 383.111 Q87.4131 383.111 85.4918 384.894 Q83.5937 386.676 83.5937 389.801 Q83.5937 392.926 85.4918 394.708 Q87.4131 396.491 90.7464 396.491 Q94.0798 396.491 96.001 394.708 Q97.9223 392.903 97.9223 389.801 Q97.9223 386.676 96.001 384.894 Q94.1029 383.111 90.7464 383.111 M86.0705 381.121 Q83.0613 380.38 81.3715 378.32 Q79.7048 376.26 79.7048 373.297 Q79.7048 369.153 82.6446 366.746 Q85.6076 364.338 90.7464 364.338 Q95.9085 364.338 98.8483 366.746 Q101.788 369.153 101.788 373.297 Q101.788 376.26 100.098 378.32 Q98.4316 380.38 95.4455 381.121 Q98.8251 381.908 100.7 384.199 Q102.598 386.491 102.598 389.801 Q102.598 394.824 99.5195 397.509 Q96.464 400.195 90.7464 400.195 Q85.0289 400.195 81.9502 397.509 Q78.8947 394.824 78.8947 389.801 Q78.8947 386.491 80.7928 384.199 Q82.6909 381.908 86.0705 381.121 M84.3576 373.736 Q84.3576 376.422 86.0242 377.926 Q87.7141 379.431 90.7464 379.431 Q93.7557 379.431 95.4455 377.926 Q97.1584 376.422 97.1584 373.736 Q97.1584 371.051 95.4455 369.547 Q93.7557 368.042 90.7464 368.042 Q87.7141 368.042 86.0242 369.547 Q84.3576 371.051 84.3576 373.736 Z" fill="#4c4c4c" fill-rule="nonzero" fill-opacity="1" /><path clip-path="url(#clip040)" d="M36.2328 119.537 L43.8717 119.537 L43.8717 93.1714 L35.5616 94.838 L35.5616 90.5788 L43.8254 88.9121 L48.5013 88.9121 L48.5013 119.537 L56.1402 119.537 L56.1402 123.472 L36.2328 123.472 L36.2328 119.537 Z" fill="#4c4c4c" fill-rule="nonzero" fill-opacity="1" /><path clip-path="url(#clip040)" d="M65.5845 117.593 L70.4688 117.593 L70.4688 123.472 L65.5845 123.472 L65.5845 117.593 Z" fill="#4c4c4c" fill-rule="nonzero" fill-opacity="1" /><path clip-path="url(#clip040)" d="M90.6539 91.9908 Q87.0428 91.9908 85.2141 95.5556 Q83.4085 99.0973 83.4085 106.227 Q83.4085 113.333 85.2141 116.898 Q87.0428 120.44 90.6539 120.44 Q94.2881 120.44 96.0936 116.898 Q97.9223 113.333 97.9223 106.227 Q97.9223 99.0973 96.0936 95.5556 Q94.2881 91.9908 90.6539 91.9908 M90.6539 88.2871 Q96.464 88.2871 99.5195 92.8936 Q102.598 97.4769 102.598 106.227 Q102.598 114.954 99.5195 119.56 Q96.464 124.143 90.6539 124.143 Q84.8437 124.143 81.765 119.56 Q78.7095 114.954 78.7095 106.227 Q78.7095 97.4769 81.765 92.8936 Q84.8437 88.2871 90.6539 88.2871 Z" fill="#4c4c4c" fill-rule="nonzero" fill-opacity="1" /><path clip-path="url(#clip040)" d="M375.356 8.64 L400.182 8.64 L400.182 13.559 L381.201 13.559 L381.201 26.2904 L398.33 26.2904 L398.33 31.2093 L381.201 31.2093 L381.201 51.84 L375.356 51.84 L375.356 8.64 Z" fill="#000000" fill-rule="nonzero" fill-opacity="1" /><path clip-path="url(#clip040)" d="M405.419 39.0507 L405.419 19.4328 L410.744 19.4328 L410.744 38.8482 Q410.744 43.4488 412.537 45.7636 Q414.331 48.0495 417.919 48.0495 Q422.231 48.0495 424.719 45.3007 Q427.236 42.5519 427.236 37.8065 L427.236 19.4328 L432.561 19.4328 L432.561 51.84 L427.236 51.84 L427.236 46.8632 Q425.298 49.8145 422.723 51.2613 Q420.176 52.6791 416.791 52.6791 Q411.206 52.6791 408.313 49.2069 Q405.419 45.7347 405.419 39.0507 M418.816 18.6515 L418.816 18.6515 Z" fill="#000000" fill-rule="nonzero" fill-opacity="1" /><path clip-path="url(#clip040)" d="M470.465 32.2799 L470.465 51.84 L465.141 51.84 L465.141 32.4535 Q465.141 27.8529 463.347 25.567 Q461.553 23.2811 457.965 23.2811 Q453.654 23.2811 451.166 26.03 Q448.677 28.7788 448.677 33.5241 L448.677 51.84 L443.324 51.84 L443.324 19.4328 L448.677 19.4328 L448.677 24.4675 Q450.587 21.545 453.162 20.0983 Q455.766 18.6515 459.152 18.6515 Q464.736 18.6515 467.601 22.1237 Q470.465 25.567 470.465 32.2799 Z" fill="#000000" fill-rule="nonzero" fill-opacity="1" /><path clip-path="url(#clip040)" d="M504.406 20.677 L504.406 25.6538 Q502.149 24.4096 499.863 23.802 Q497.606 23.1654 495.292 23.1654 Q490.112 23.1654 487.248 26.464 Q484.383 29.7336 484.383 35.6653 Q484.383 41.597 487.248 44.8956 Q490.112 48.1653 495.292 48.1653 Q497.606 48.1653 499.863 47.5576 Q502.149 46.921 504.406 45.6768 L504.406 50.5958 Q502.178 51.6375 499.777 52.1583 Q497.404 52.6791 494.713 52.6791 Q487.392 52.6791 483.081 48.0784 Q478.77 43.4778 478.77 35.6653 Q478.77 27.7371 483.11 23.1943 Q487.479 18.6515 495.06 18.6515 Q497.52 18.6515 499.863 19.1724 Q502.207 19.6642 504.406 20.677 M496.883 51.84 Q498.475 53.634 499.256 55.1386 Q500.037 56.6722 500.037 58.061 Q500.037 60.6362 498.301 61.9383 Q496.565 63.2693 493.15 63.2693 Q491.819 63.2693 490.546 63.0957 Q489.302 62.9221 488.058 62.5749 L488.058 58.7844 Q489.042 59.2763 490.112 59.4788 Q491.183 59.7103 492.543 59.7103 Q494.25 59.7103 495.118 59.0159 Q495.986 58.3214 495.986 56.9904 Q495.986 56.1224 495.35 54.8492 Q494.742 53.605 493.44 51.84 L496.883 51.84 Z" fill="#000000" fill-rule="nonzero" fill-opacity="1" /><path clip-path="url(#clip040)" d="M528.393 35.5496 Q521.941 35.5496 519.452 37.0253 Q516.964 38.501 516.964 42.06 Q516.964 44.8956 518.816 46.5738 Q520.697 48.2231 523.908 48.2231 Q528.335 48.2231 530.997 45.0981 Q533.688 41.9442 533.688 36.7359 L533.688 35.5496 L528.393 35.5496 M539.013 33.3505 L539.013 51.84 L533.688 51.84 L533.688 46.921 Q531.866 49.8724 529.146 51.2902 Q526.426 52.6791 522.491 52.6791 Q517.514 52.6791 514.562 49.9014 Q511.64 47.0947 511.64 42.4072 Q511.64 36.9385 515.286 34.1607 Q518.961 31.3829 526.223 31.3829 L533.688 31.3829 L533.688 30.8621 Q533.688 27.1874 531.258 25.1908 Q528.856 23.1654 524.487 23.1654 Q521.709 23.1654 519.076 23.8309 Q516.443 24.4964 514.013 25.8274 L514.013 20.9085 Q516.935 19.78 519.684 19.2302 Q522.433 18.6515 525.037 18.6515 Q532.068 18.6515 535.54 22.2973 Q539.013 25.9431 539.013 33.3505 M525.153 12.199 L523.503 10.6076 Q522.867 10.0289 522.375 9.76847 Q521.912 9.47912 521.536 9.47912 Q520.436 9.47912 519.915 10.5497 Q519.395 11.5914 519.337 13.964 L515.72 13.964 Q515.778 10.0578 517.253 7.94556 Q518.729 5.80437 521.362 5.80437 Q522.462 5.80437 523.388 6.20946 Q524.314 6.61455 525.384 7.5694 L527.033 9.16083 Q527.67 9.73953 528.133 10.0289 Q528.625 10.2893 529.001 10.2893 Q530.101 10.2893 530.621 9.24764 Q531.142 8.17704 531.2 5.80437 L534.817 5.80437 Q534.759 9.7106 533.283 11.8518 Q531.808 13.964 529.175 13.964 Q528.075 13.964 527.149 13.559 Q526.223 13.1539 525.153 12.199 Z" fill="#000000" fill-rule="nonzero" fill-opacity="1" /><path clip-path="url(#clip040)" d="M562.537 23.1654 Q558.254 23.1654 555.766 26.5218 Q553.277 29.8494 553.277 35.6653 Q553.277 41.4813 555.737 44.8377 Q558.225 48.1653 562.537 48.1653 Q566.79 48.1653 569.279 44.8088 Q571.767 41.4523 571.767 35.6653 Q571.767 29.9072 569.279 26.5508 Q566.79 23.1654 562.537 23.1654 M562.537 18.6515 Q569.481 18.6515 573.445 23.1654 Q577.409 27.6792 577.409 35.6653 Q577.409 43.6225 573.445 48.1653 Q569.481 52.6791 562.537 52.6791 Q555.563 52.6791 551.599 48.1653 Q547.664 43.6225 547.664 35.6653 Q547.664 27.6792 551.599 23.1654 Q555.563 18.6515 562.537 18.6515 Z" fill="#000000" fill-rule="nonzero" fill-opacity="1" /><path clip-path="url(#clip040)" d="M630.303 25.6538 Q632.299 22.0659 635.077 20.3587 Q637.855 18.6515 641.616 18.6515 Q646.68 18.6515 649.429 22.2105 Q652.177 25.7406 652.177 32.2799 L652.177 51.84 L646.824 51.84 L646.824 32.4535 Q646.824 27.795 645.175 25.5381 Q643.526 23.2811 640.14 23.2811 Q636.003 23.2811 633.601 26.03 Q631.2 28.7788 631.2 33.5241 L631.2 51.84 L625.847 51.84 L625.847 32.4535 Q625.847 27.7661 624.197 25.5381 Q622.548 23.2811 619.105 23.2811 Q615.025 23.2811 612.623 26.0589 Q610.222 28.8077 610.222 33.5241 L610.222 51.84 L604.869 51.84 L604.869 19.4328 L610.222 19.4328 L610.222 24.4675 Q612.045 21.4872 614.591 20.0693 Q617.137 18.6515 620.638 18.6515 Q624.168 18.6515 626.628 20.4455 Q629.116 22.2395 630.303 25.6538 Z" fill="#000000" fill-rule="nonzero" fill-opacity="1" /><path clip-path="url(#clip040)" d="M677.524 35.5496 Q671.072 35.5496 668.584 37.0253 Q666.095 38.501 666.095 42.06 Q666.095 44.8956 667.947 46.5738 Q669.828 48.2231 673.04 48.2231 Q677.467 48.2231 680.129 45.0981 Q682.82 41.9442 682.82 36.7359 L682.82 35.5496 L677.524 35.5496 M688.144 33.3505 L688.144 51.84 L682.82 51.84 L682.82 46.921 Q680.997 49.8724 678.277 51.2902 Q675.557 52.6791 671.622 52.6791 Q666.645 52.6791 663.694 49.9014 Q660.771 47.0947 660.771 42.4072 Q660.771 36.9385 664.417 34.1607 Q668.092 31.3829 675.354 31.3829 L682.82 31.3829 L682.82 30.8621 Q682.82 27.1874 680.389 25.1908 Q677.987 23.1654 673.618 23.1654 Q670.84 23.1654 668.207 23.8309 Q665.574 24.4964 663.144 25.8274 L663.144 20.9085 Q666.066 19.78 668.815 19.2302 Q671.564 18.6515 674.168 18.6515 Q681.199 18.6515 684.671 22.2973 Q688.144 25.9431 688.144 33.3505 Z" fill="#000000" fill-rule="nonzero" fill-opacity="1" /><path clip-path="url(#clip040)" d="M719.77 20.3876 L719.77 25.4223 Q717.513 24.2649 715.082 23.6862 Q712.652 23.1075 710.047 23.1075 Q706.083 23.1075 704.087 24.3228 Q702.119 25.5381 702.119 27.9686 Q702.119 29.8204 703.537 30.891 Q704.955 31.9327 709.237 32.8876 L711.06 33.2926 Q716.731 34.5079 719.104 36.7359 Q721.506 38.935 721.506 42.8991 Q721.506 47.4129 717.918 50.046 Q714.359 52.6791 708.109 52.6791 Q705.505 52.6791 702.669 52.1583 Q699.862 51.6664 696.737 50.6537 L696.737 45.156 Q699.689 46.6896 702.553 47.4708 Q705.418 48.2231 708.225 48.2231 Q711.986 48.2231 714.012 46.95 Q716.037 45.6479 716.037 43.3042 Q716.037 41.134 714.561 39.9766 Q713.115 38.8192 708.167 37.7486 L706.315 37.3146 Q701.367 36.273 699.168 34.1318 Q696.969 31.9616 696.969 28.2001 Q696.969 23.6283 700.21 21.1399 Q703.45 18.6515 709.411 18.6515 Q712.362 18.6515 714.966 19.0855 Q717.571 19.5196 719.77 20.3876 Z" fill="#000000" fill-rule="nonzero" fill-opacity="1" /><path clip-path="url(#clip040)" d="M750.643 20.3876 L750.643 25.4223 Q748.386 24.2649 745.956 23.6862 Q743.525 23.1075 740.921 23.1075 Q736.957 23.1075 734.961 24.3228 Q732.993 25.5381 732.993 27.9686 Q732.993 29.8204 734.411 30.891 Q735.829 31.9327 740.111 32.8876 L741.934 33.2926 Q747.605 34.5079 749.978 36.7359 Q752.379 38.935 752.379 42.8991 Q752.379 47.4129 748.791 50.046 Q745.232 52.6791 738.982 52.6791 Q736.378 52.6791 733.543 52.1583 Q730.736 51.6664 727.611 50.6537 L727.611 45.156 Q730.562 46.6896 733.427 47.4708 Q736.292 48.2231 739.098 48.2231 Q742.86 48.2231 744.885 46.95 Q746.911 45.6479 746.911 43.3042 Q746.911 41.134 745.435 39.9766 Q743.988 38.8192 739.04 37.7486 L737.189 37.3146 Q732.241 36.273 730.042 34.1318 Q727.843 31.9616 727.843 28.2001 Q727.843 23.6283 731.083 21.1399 Q734.324 18.6515 740.285 18.6515 Q743.236 18.6515 745.84 19.0855 Q748.444 19.5196 750.643 20.3876 Z" fill="#000000" fill-rule="nonzero" fill-opacity="1" /><path clip-path="url(#clip040)" d="M775.585 35.5496 Q769.133 35.5496 766.644 37.0253 Q764.156 38.501 764.156 42.06 Q764.156 44.8956 766.008 46.5738 Q767.889 48.2231 771.1 48.2231 Q775.527 48.2231 778.189 45.0981 Q780.88 41.9442 780.88 36.7359 L780.88 35.5496 L775.585 35.5496 M786.204 33.3505 L786.204 51.84 L780.88 51.84 L780.88 46.921 Q779.058 49.8724 776.338 51.2902 Q773.618 52.6791 769.683 52.6791 Q764.706 52.6791 761.754 49.9014 Q758.832 47.0947 758.832 42.4072 Q758.832 36.9385 762.478 34.1607 Q766.152 31.3829 773.415 31.3829 L780.88 31.3829 L780.88 30.8621 Q780.88 27.1874 778.45 25.1908 Q776.048 23.1654 771.679 23.1654 Q768.901 23.1654 766.268 23.8309 Q763.635 24.4964 761.205 25.8274 L761.205 20.9085 Q764.127 19.78 766.876 19.2302 Q769.625 18.6515 772.229 18.6515 Q779.26 18.6515 782.732 22.2973 Q786.204 25.9431 786.204 33.3505 Z" fill="#000000" fill-rule="nonzero" fill-opacity="1" /><path clip-path="url(#clip040)" d="M837.333 24.3517 L837.333 6.81709 L842.657 6.81709 L842.657 51.84 L837.333 51.84 L837.333 46.9789 Q835.654 49.8724 833.079 51.2902 Q830.533 52.6791 826.945 52.6791 Q821.071 52.6791 817.367 47.9916 Q813.693 43.3042 813.693 35.6653 Q813.693 28.0265 817.367 23.339 Q821.071 18.6515 826.945 18.6515 Q830.533 18.6515 833.079 20.0693 Q835.654 21.4582 837.333 24.3517 M819.19 35.6653 Q819.19 41.5391 821.592 44.8956 Q824.023 48.2231 828.247 48.2231 Q832.472 48.2231 834.902 44.8956 Q837.333 41.5391 837.333 35.6653 Q837.333 29.7915 834.902 26.464 Q832.472 23.1075 828.247 23.1075 Q824.023 23.1075 821.592 26.464 Q819.19 29.7915 819.19 35.6653 Z" fill="#000000" fill-rule="nonzero" fill-opacity="1" /><path clip-path="url(#clip040)" d="M881.343 34.3054 L881.343 36.9095 L856.864 36.9095 Q857.211 42.4072 860.162 45.3007 Q863.143 48.1653 868.438 48.1653 Q871.505 48.1653 874.37 47.4129 Q877.263 46.6606 880.099 45.156 L880.099 50.1907 Q877.234 51.406 874.225 52.0425 Q871.216 52.6791 868.12 52.6791 Q860.365 52.6791 855.822 48.1653 Q851.308 43.6514 851.308 35.9547 Q851.308 27.9975 855.591 23.339 Q859.902 18.6515 867.194 18.6515 Q873.733 18.6515 877.523 22.876 Q881.343 27.0716 881.343 34.3054 M876.019 32.7429 Q875.961 28.3737 873.559 25.7695 Q871.187 23.1654 867.251 23.1654 Q862.795 23.1654 860.105 25.6827 Q857.443 28.2001 857.037 32.7718 L876.019 32.7429 Z" fill="#000000" fill-rule="nonzero" fill-opacity="1" /><path clip-path="url(#clip040)" d="M914.068 46.9789 L914.068 64.1663 L908.715 64.1663 L908.715 19.4328 L914.068 19.4328 L914.068 24.3517 Q915.747 21.4582 918.293 20.0693 Q920.868 18.6515 924.427 18.6515 Q930.33 18.6515 934.005 23.339 Q937.708 28.0265 937.708 35.6653 Q937.708 43.3042 934.005 47.9916 Q930.33 52.6791 924.427 52.6791 Q920.868 52.6791 918.293 51.2902 Q915.747 49.8724 914.068 46.9789 M932.182 35.6653 Q932.182 29.7915 929.751 26.464 Q927.35 23.1075 923.125 23.1075 Q918.901 23.1075 916.47 26.464 Q914.068 29.7915 914.068 35.6653 Q914.068 41.5391 916.47 44.8956 Q918.901 48.2231 923.125 48.2231 Q927.35 48.2231 929.751 44.8956 Q932.182 41.5391 932.182 35.6653 Z" fill="#000000" fill-rule="nonzero" fill-opacity="1" /><path clip-path="url(#clip040)" d="M965.312 24.4096 Q964.415 23.8888 963.345 23.6573 Q962.303 23.3969 961.03 23.3969 Q956.516 23.3969 954.086 26.3482 Q951.684 29.2707 951.684 34.7683 L951.684 51.84 L946.331 51.84 L946.331 19.4328 L951.684 19.4328 L951.684 24.4675 Q953.362 21.5161 956.053 20.0983 Q958.744 18.6515 962.592 18.6515 Q963.142 18.6515 963.808 18.7383 Q964.473 18.7962 965.283 18.9409 L965.312 24.4096 Z" fill="#000000" fill-rule="nonzero" fill-opacity="1" /><path clip-path="url(#clip040)" d="M982.152 23.1654 Q977.87 23.1654 975.382 26.5218 Q972.893 29.8494 972.893 35.6653 Q972.893 41.4813 975.353 44.8377 Q977.841 48.1653 982.152 48.1653 Q986.406 48.1653 988.894 44.8088 Q991.383 41.4523 991.383 35.6653 Q991.383 29.9072 988.894 26.5508 Q986.406 23.1654 982.152 23.1654 M982.152 18.6515 Q989.097 18.6515 993.061 23.1654 Q997.025 27.6792 997.025 35.6653 Q997.025 43.6225 993.061 48.1653 Q989.097 52.6791 982.152 52.6791 Q975.179 52.6791 971.215 48.1653 Q967.28 43.6225 967.28 35.6653 Q967.28 27.6792 971.215 23.1654 Q975.179 18.6515 982.152 18.6515 Z" fill="#000000" fill-rule="nonzero" fill-opacity="1" /><path clip-path="url(#clip040)" d="M1029.11 35.6653 Q1029.11 29.7915 1026.68 26.464 Q1024.28 23.1075 1020.06 23.1075 Q1015.83 23.1075 1013.4 26.464 Q1011 29.7915 1011 35.6653 Q1011 41.5391 1013.4 44.8956 Q1015.83 48.2231 1020.06 48.2231 Q1024.28 48.2231 1026.68 44.8956 Q1029.11 41.5391 1029.11 35.6653 M1011 24.3517 Q1012.68 21.4582 1015.23 20.0693 Q1017.8 18.6515 1021.36 18.6515 Q1027.26 18.6515 1030.94 23.339 Q1034.64 28.0265 1034.64 35.6653 Q1034.64 43.3042 1030.94 47.9916 Q1027.26 52.6791 1021.36 52.6791 Q1017.8 52.6791 1015.23 51.2902 Q1012.68 49.8724 1011 46.9789 L1011 51.84 L1005.65 51.84 L1005.65 6.81709 L1011 6.81709 L1011 24.3517 Z" fill="#000000" fill-rule="nonzero" fill-opacity="1" /><path clip-path="url(#clip040)" d="M1058.19 35.5496 Q1051.74 35.5496 1049.25 37.0253 Q1046.76 38.501 1046.76 42.06 Q1046.76 44.8956 1048.62 46.5738 Q1050.5 48.2231 1053.71 48.2231 Q1058.14 48.2231 1060.8 45.0981 Q1063.49 41.9442 1063.49 36.7359 L1063.49 35.5496 L1058.19 35.5496 M1068.81 33.3505 L1068.81 51.84 L1063.49 51.84 L1063.49 46.921 Q1061.67 49.8724 1058.95 51.2902 Q1056.23 52.6791 1052.29 52.6791 Q1047.31 52.6791 1044.36 49.9014 Q1041.44 47.0947 1041.44 42.4072 Q1041.44 36.9385 1045.09 34.1607 Q1048.76 31.3829 1056.02 31.3829 L1063.49 31.3829 L1063.49 30.8621 Q1063.49 27.1874 1061.06 25.1908 Q1058.66 23.1654 1054.29 23.1654 Q1051.51 23.1654 1048.88 23.8309 Q1046.24 24.4964 1043.81 25.8274 L1043.81 20.9085 Q1046.74 19.78 1049.48 19.2302 Q1052.23 18.6515 1054.84 18.6515 Q1061.87 18.6515 1065.34 22.2973 Q1068.81 25.9431 1068.81 33.3505 Z" fill="#000000" fill-rule="nonzero" fill-opacity="1" /><path clip-path="url(#clip040)" d="M1103.04 35.6653 Q1103.04 29.7915 1100.61 26.464 Q1098.21 23.1075 1093.99 23.1075 Q1089.76 23.1075 1087.33 26.464 Q1084.93 29.7915 1084.93 35.6653 Q1084.93 41.5391 1087.33 44.8956 Q1089.76 48.2231 1093.99 48.2231 Q1098.21 48.2231 1100.61 44.8956 Q1103.04 41.5391 1103.04 35.6653 M1084.93 24.3517 Q1086.61 21.4582 1089.15 20.0693 Q1091.73 18.6515 1095.29 18.6515 Q1101.19 18.6515 1104.87 23.339 Q1108.57 28.0265 1108.57 35.6653 Q1108.57 43.3042 1104.87 47.9916 Q1101.19 52.6791 1095.29 52.6791 Q1091.73 52.6791 1089.15 51.2902 Q1086.61 49.8724 1084.93 46.9789 L1084.93 51.84 L1079.58 51.84 L1079.58 6.81709 L1084.93 6.81709 L1084.93 24.3517 Z" fill="#000000" fill-rule="nonzero" fill-opacity="1" /><path clip-path="url(#clip040)" d="M1117.39 19.4328 L1122.72 19.4328 L1122.72 51.84 L1117.39 51.84 L1117.39 19.4328 M1117.39 6.81709 L1122.72 6.81709 L1122.72 13.559 L1117.39 13.559 L1117.39 6.81709 Z" fill="#000000" fill-rule="nonzero" fill-opacity="1" /><path clip-path="url(#clip040)" d="M1133.86 6.81709 L1139.18 6.81709 L1139.18 51.84 L1133.86 51.84 L1133.86 6.81709 Z" fill="#000000" fill-rule="nonzero" fill-opacity="1" /><path clip-path="url(#clip040)" d="M1150.32 19.4328 L1155.65 19.4328 L1155.65 51.84 L1150.32 51.84 L1150.32 19.4328 M1150.32 6.81709 L1155.65 6.81709 L1155.65 13.559 L1150.32 13.559 L1150.32 6.81709 Z" fill="#000000" fill-rule="nonzero" fill-opacity="1" /><path clip-path="url(#clip040)" d="M1188.11 24.3517 L1188.11 6.81709 L1193.44 6.81709 L1193.44 51.84 L1188.11 51.84 L1188.11 46.9789 Q1186.43 49.8724 1183.86 51.2902 Q1181.31 52.6791 1177.72 52.6791 Q1171.85 52.6791 1168.15 47.9916 Q1164.47 43.3042 1164.47 35.6653 Q1164.47 28.0265 1168.15 23.339 Q1171.85 18.6515 1177.72 18.6515 Q1181.31 18.6515 1183.86 20.0693 Q1186.43 21.4582 1188.11 24.3517 M1169.97 35.6653 Q1169.97 41.5391 1172.37 44.8956 Q1174.8 48.2231 1179.03 48.2231 Q1183.25 48.2231 1185.68 44.8956 Q1188.11 41.5391 1188.11 35.6653 Q1188.11 29.7915 1185.68 26.464 Q1183.25 23.1075 1179.03 23.1075 Q1174.8 23.1075 1172.37 26.464 Q1169.97 29.7915 1169.97 35.6653 Z" fill="#000000" fill-rule="nonzero" fill-opacity="1" /><path clip-path="url(#clip040)" d="M1219.13 35.5496 Q1212.68 35.5496 1210.19 37.0253 Q1207.7 38.501 1207.7 42.06 Q1207.7 44.8956 1209.55 46.5738 Q1211.43 48.2231 1214.65 48.2231 Q1219.07 48.2231 1221.73 45.0981 Q1224.43 41.9442 1224.43 36.7359 L1224.43 35.5496 L1219.13 35.5496 M1229.75 33.3505 L1229.75 51.84 L1224.43 51.84 L1224.43 46.921 Q1222.6 49.8724 1219.88 51.2902 Q1217.16 52.6791 1213.23 52.6791 Q1208.25 52.6791 1205.3 49.9014 Q1202.38 47.0947 1202.38 42.4072 Q1202.38 36.9385 1206.02 34.1607 Q1209.7 31.3829 1216.96 31.3829 L1224.43 31.3829 L1224.43 30.8621 Q1224.43 27.1874 1221.99 25.1908 Q1219.59 23.1654 1215.22 23.1654 Q1212.45 23.1654 1209.81 23.8309 Q1207.18 24.4964 1204.75 25.8274 L1204.75 20.9085 Q1207.67 19.78 1210.42 19.2302 Q1213.17 18.6515 1215.77 18.6515 Q1222.81 18.6515 1226.28 22.2973 Q1229.75 25.9431 1229.75 33.3505 Z" fill="#000000" fill-rule="nonzero" fill-opacity="1" /><path clip-path="url(#clip040)" d="M1262.04 24.3517 L1262.04 6.81709 L1267.37 6.81709 L1267.37 51.84 L1262.04 51.84 L1262.04 46.9789 Q1260.36 49.8724 1257.79 51.2902 Q1255.24 52.6791 1251.65 52.6791 Q1245.78 52.6791 1242.08 47.9916 Q1238.4 43.3042 1238.4 35.6653 Q1238.4 28.0265 1242.08 23.339 Q1245.78 18.6515 1251.65 18.6515 Q1255.24 18.6515 1257.79 20.0693 Q1260.36 21.4582 1262.04 24.3517 M1243.9 35.6653 Q1243.9 41.5391 1246.3 44.8956 Q1248.73 48.2231 1252.96 48.2231 Q1257.18 48.2231 1259.61 44.8956 Q1262.04 41.5391 1262.04 35.6653 Q1262.04 29.7915 1259.61 26.464 Q1257.18 23.1075 1252.96 23.1075 Q1248.73 23.1075 1246.3 26.464 Q1243.9 29.7915 1243.9 35.6653 Z" fill="#000000" fill-rule="nonzero" fill-opacity="1" /><path clip-path="url(#clip040)" d="M1306.05 34.3054 L1306.05 36.9095 L1281.57 36.9095 Q1281.92 42.4072 1284.87 45.3007 Q1287.85 48.1653 1293.15 48.1653 Q1296.21 48.1653 1299.08 47.4129 Q1301.97 46.6606 1304.81 45.156 L1304.81 50.1907 Q1301.94 51.406 1298.93 52.0425 Q1295.92 52.6791 1292.83 52.6791 Q1285.07 52.6791 1280.53 48.1653 Q1276.02 43.6514 1276.02 35.9547 Q1276.02 27.9975 1280.3 23.339 Q1284.61 18.6515 1291.9 18.6515 Q1298.44 18.6515 1302.23 22.876 Q1306.05 27.0716 1306.05 34.3054 M1300.73 32.7429 Q1300.67 28.3737 1298.27 25.7695 Q1295.9 23.1654 1291.96 23.1654 Q1287.5 23.1654 1284.81 25.6827 Q1282.15 28.2001 1281.75 32.7718 L1300.73 32.7429 Z" fill="#000000" fill-rule="nonzero" fill-opacity="1" /><path clip-path="url(#clip040)" d="M1354.95 24.3517 L1354.95 6.81709 L1360.28 6.81709 L1360.28 51.84 L1354.95 51.84 L1354.95 46.9789 Q1353.27 49.8724 1350.7 51.2902 Q1348.15 52.6791 1344.56 52.6791 Q1338.69 52.6791 1334.99 47.9916 Q1331.31 43.3042 1331.31 35.6653 Q1331.31 28.0265 1334.99 23.339 Q1338.69 18.6515 1344.56 18.6515 Q1348.15 18.6515 1350.7 20.0693 Q1353.27 21.4582 1354.95 24.3517 M1336.81 35.6653 Q1336.81 41.5391 1339.21 44.8956 Q1341.64 48.2231 1345.87 48.2231 Q1350.09 48.2231 1352.52 44.8956 Q1354.95 41.5391 1354.95 35.6653 Q1354.95 29.7915 1352.52 26.464 Q1350.09 23.1075 1345.87 23.1075 Q1341.64 23.1075 1339.21 26.464 Q1336.81 29.7915 1336.81 35.6653 Z" fill="#000000" fill-rule="nonzero" fill-opacity="1" /><path clip-path="url(#clip040)" d="M1385.97 35.5496 Q1379.52 35.5496 1377.03 37.0253 Q1374.54 38.501 1374.54 42.06 Q1374.54 44.8956 1376.39 46.5738 Q1378.27 48.2231 1381.48 48.2231 Q1385.91 48.2231 1388.57 45.0981 Q1391.26 41.9442 1391.26 36.7359 L1391.26 35.5496 L1385.97 35.5496 M1396.59 33.3505 L1396.59 51.84 L1391.26 51.84 L1391.26 46.921 Q1389.44 49.8724 1386.72 51.2902 Q1384 52.6791 1380.07 52.6791 Q1375.09 52.6791 1372.14 49.9014 Q1369.22 47.0947 1369.22 42.4072 Q1369.22 36.9385 1372.86 34.1607 Q1376.54 31.3829 1383.8 31.3829 L1391.26 31.3829 L1391.26 30.8621 Q1391.26 27.1874 1388.83 25.1908 Q1386.43 23.1654 1382.06 23.1654 Q1379.29 23.1654 1376.65 23.8309 Q1374.02 24.4964 1371.59 25.8274 L1371.59 20.9085 Q1374.51 19.78 1377.26 19.2302 Q1380.01 18.6515 1382.61 18.6515 Q1389.64 18.6515 1393.12 22.2973 Q1396.59 25.9431 1396.59 33.3505 Z" fill="#000000" fill-rule="nonzero" fill-opacity="1" /><path clip-path="url(#clip040)" d="M1447.72 24.3517 L1447.72 6.81709 L1453.04 6.81709 L1453.04 51.84 L1447.72 51.84 L1447.72 46.9789 Q1446.04 49.8724 1443.46 51.2902 Q1440.92 52.6791 1437.33 52.6791 Q1431.46 52.6791 1427.75 47.9916 Q1424.08 43.3042 1424.08 35.6653 Q1424.08 28.0265 1427.75 23.339 Q1431.46 18.6515 1437.33 18.6515 Q1440.92 18.6515 1443.46 20.0693 Q1446.04 21.4582 1447.72 24.3517 M1429.57 35.6653 Q1429.57 41.5391 1431.98 44.8956 Q1434.41 48.2231 1438.63 48.2231 Q1442.86 48.2231 1445.29 44.8956 Q1447.72 41.5391 1447.72 35.6653 Q1447.72 29.7915 1445.29 26.464 Q1442.86 23.1075 1438.63 23.1075 Q1434.41 23.1075 1431.98 26.464 Q1429.57 29.7915 1429.57 35.6653 Z" fill="#000000" fill-rule="nonzero" fill-opacity="1" /><path clip-path="url(#clip040)" d="M1464.01 19.4328 L1469.33 19.4328 L1469.33 51.84 L1464.01 51.84 L1464.01 19.4328 M1464.01 6.81709 L1469.33 6.81709 L1469.33 13.559 L1464.01 13.559 L1464.01 6.81709 Z" fill="#000000" fill-rule="nonzero" fill-opacity="1" /><path clip-path="url(#clip040)" d="M1501.13 20.3876 L1501.13 25.4223 Q1498.87 24.2649 1496.44 23.6862 Q1494.01 23.1075 1491.41 23.1075 Q1487.44 23.1075 1485.45 24.3228 Q1483.48 25.5381 1483.48 27.9686 Q1483.48 29.8204 1484.9 30.891 Q1486.32 31.9327 1490.6 32.8876 L1492.42 33.2926 Q1498.09 34.5079 1500.47 36.7359 Q1502.87 38.935 1502.87 42.8991 Q1502.87 47.4129 1499.28 50.046 Q1495.72 52.6791 1489.47 52.6791 Q1486.87 52.6791 1484.03 52.1583 Q1481.22 51.6664 1478.1 50.6537 L1478.1 45.156 Q1481.05 46.6896 1483.91 47.4708 Q1486.78 48.2231 1489.59 48.2231 Q1493.35 48.2231 1495.37 46.95 Q1497.4 45.6479 1497.4 43.3042 Q1497.4 41.134 1495.92 39.9766 Q1494.48 38.8192 1489.53 37.7486 L1487.68 37.3146 Q1482.73 36.273 1480.53 34.1318 Q1478.33 31.9616 1478.33 28.2001 Q1478.33 23.6283 1481.57 21.1399 Q1484.81 18.6515 1490.77 18.6515 Q1493.72 18.6515 1496.33 19.0855 Q1498.93 19.5196 1501.13 20.3876 Z" fill="#000000" fill-rule="nonzero" fill-opacity="1" /><path clip-path="url(#clip040)" d="M1516.61 10.2314 L1516.61 19.4328 L1527.58 19.4328 L1527.58 23.5705 L1516.61 23.5705 L1516.61 41.163 Q1516.61 45.1271 1517.68 46.2555 Q1518.78 47.384 1522.11 47.384 L1527.58 47.384 L1527.58 51.84 L1522.11 51.84 Q1515.95 51.84 1513.6 49.5541 Q1511.26 47.2393 1511.26 41.163 L1511.26 23.5705 L1507.35 23.5705 L1507.35 19.4328 L1511.26 19.4328 L1511.26 10.2314 L1516.61 10.2314 Z" fill="#000000" fill-rule="nonzero" fill-opacity="1" /><path clip-path="url(#clip040)" d="M1553.36 24.4096 Q1552.46 23.8888 1551.39 23.6573 Q1550.35 23.3969 1549.08 23.3969 Q1544.56 23.3969 1542.13 26.3482 Q1539.73 29.2707 1539.73 34.7683 L1539.73 51.84 L1534.38 51.84 L1534.38 19.4328 L1539.73 19.4328 L1539.73 24.4675 Q1541.41 21.5161 1544.1 20.0983 Q1546.79 18.6515 1550.64 18.6515 Q1551.19 18.6515 1551.85 18.7383 Q1552.52 18.7962 1553.33 18.9409 L1553.36 24.4096 Z" fill="#000000" fill-rule="nonzero" fill-opacity="1" /><path clip-path="url(#clip040)" d="M1558.94 19.4328 L1564.27 19.4328 L1564.27 51.84 L1558.94 51.84 L1558.94 19.4328 M1558.94 6.81709 L1564.27 6.81709 L1564.27 13.559 L1558.94 13.559 L1558.94 6.81709 Z" fill="#000000" fill-rule="nonzero" fill-opacity="1" /><path clip-path="url(#clip040)" d="M1598.67 35.6653 Q1598.67 29.7915 1596.24 26.464 Q1593.84 23.1075 1589.61 23.1075 Q1585.39 23.1075 1582.96 26.464 Q1580.56 29.7915 1580.56 35.6653 Q1580.56 41.5391 1582.96 44.8956 Q1585.39 48.2231 1589.61 48.2231 Q1593.84 48.2231 1596.24 44.8956 Q1598.67 41.5391 1598.67 35.6653 M1580.56 24.3517 Q1582.24 21.4582 1584.78 20.0693 Q1587.36 18.6515 1590.92 18.6515 Q1596.82 18.6515 1600.49 23.339 Q1604.2 28.0265 1604.2 35.6653 Q1604.2 43.3042 1600.49 47.9916 Q1596.82 52.6791 1590.92 52.6791 Q1587.36 52.6791 1584.78 51.2902 Q1582.24 49.8724 1580.56 46.9789 L1580.56 51.84 L1575.2 51.84 L1575.2 6.81709 L1580.56 6.81709 L1580.56 24.3517 Z" fill="#000000" fill-rule="nonzero" fill-opacity="1" /><path clip-path="url(#clip040)" d="M1612.47 39.0507 L1612.47 19.4328 L1617.8 19.4328 L1617.8 38.8482 Q1617.8 43.4488 1619.59 45.7636 Q1621.39 48.0495 1624.97 48.0495 Q1629.28 48.0495 1631.77 45.3007 Q1634.29 42.5519 1634.29 37.8065 L1634.29 19.4328 L1639.61 19.4328 L1639.61 51.84 L1634.29 51.84 L1634.29 46.8632 Q1632.35 49.8145 1629.78 51.2613 Q1627.23 52.6791 1623.84 52.6791 Q1618.26 52.6791 1615.37 49.2069 Q1612.47 45.7347 1612.47 39.0507 M1625.87 18.6515 L1625.87 18.6515 Z" fill="#000000" fill-rule="nonzero" fill-opacity="1" /><path clip-path="url(#clip040)" d="M1650.58 19.4328 L1655.9 19.4328 L1655.9 51.84 L1650.58 51.84 L1650.58 19.4328 M1650.58 6.81709 L1655.9 6.81709 L1655.9 13.559 L1650.58 13.559 L1650.58 6.81709 Z" fill="#000000" fill-rule="nonzero" fill-opacity="1" /><path clip-path="url(#clip040)" d="M1690.37 20.677 L1690.37 25.6538 Q1688.11 24.4096 1685.82 23.802 Q1683.57 23.1654 1681.25 23.1654 Q1676.07 23.1654 1673.21 26.464 Q1670.34 29.7336 1670.34 35.6653 Q1670.34 41.597 1673.21 44.8956 Q1676.07 48.1653 1681.25 48.1653 Q1683.57 48.1653 1685.82 47.5576 Q1688.11 46.921 1690.37 45.6768 L1690.37 50.5958 Q1688.14 51.6375 1685.74 52.1583 Q1683.36 52.6791 1680.67 52.6791 Q1673.35 52.6791 1669.04 48.0784 Q1664.73 43.4778 1664.73 35.6653 Q1664.73 27.7371 1669.07 23.1943 Q1673.44 18.6515 1681.02 18.6515 Q1683.48 18.6515 1685.82 19.1724 Q1688.17 19.6642 1690.37 20.677 M1682.84 51.84 Q1684.43 53.634 1685.22 55.1386 Q1686 56.6722 1686 58.061 Q1686 60.6362 1684.26 61.9383 Q1682.52 63.2693 1679.11 63.2693 Q1677.78 63.2693 1676.51 63.0957 Q1675.26 62.9221 1674.02 62.5749 L1674.02 58.7844 Q1675 59.2763 1676.07 59.4788 Q1677.14 59.7103 1678.5 59.7103 Q1680.21 59.7103 1681.08 59.0159 Q1681.95 58.3214 1681.95 56.9904 Q1681.95 56.1224 1681.31 54.8492 Q1680.7 53.605 1679.4 51.84 L1682.84 51.84 Z" fill="#000000" fill-rule="nonzero" fill-opacity="1" /><path clip-path="url(#clip040)" d="M1714.35 35.5496 Q1707.9 35.5496 1705.41 37.0253 Q1702.92 38.501 1702.92 42.06 Q1702.92 44.8956 1704.78 46.5738 Q1706.66 48.2231 1709.87 48.2231 Q1714.3 48.2231 1716.96 45.0981 Q1719.65 41.9442 1719.65 36.7359 L1719.65 35.5496 L1714.35 35.5496 M1724.97 33.3505 L1724.97 51.84 L1719.65 51.84 L1719.65 46.921 Q1717.83 49.8724 1715.11 51.2902 Q1712.39 52.6791 1708.45 52.6791 Q1703.47 52.6791 1700.52 49.9014 Q1697.6 47.0947 1697.6 42.4072 Q1697.6 36.9385 1701.25 34.1607 Q1704.92 31.3829 1712.18 31.3829 L1719.65 31.3829 L1719.65 30.8621 Q1719.65 27.1874 1717.22 25.1908 Q1714.82 23.1654 1710.45 23.1654 Q1707.67 23.1654 1705.04 23.8309 Q1702.4 24.4964 1699.97 25.8274 L1699.97 20.9085 Q1702.9 19.78 1705.64 19.2302 Q1708.39 18.6515 1711 18.6515 Q1718.03 18.6515 1721.5 22.2973 Q1724.97 25.9431 1724.97 33.3505 M1711.11 12.199 L1709.46 10.6076 Q1708.83 10.0289 1708.33 9.76847 Q1707.87 9.47912 1707.5 9.47912 Q1706.4 9.47912 1705.88 10.5497 Q1705.35 11.5914 1705.3 13.964 L1701.68 13.964 Q1701.74 10.0578 1703.21 7.94556 Q1704.69 5.80437 1707.32 5.80437 Q1708.42 5.80437 1709.35 6.20946 Q1710.27 6.61455 1711.34 7.5694 L1712.99 9.16083 Q1713.63 9.73953 1714.09 10.0289 Q1714.58 10.2893 1714.96 10.2893 Q1716.06 10.2893 1716.58 9.24764 Q1717.1 8.17704 1717.16 5.80437 L1720.78 5.80437 Q1720.72 9.7106 1719.24 11.8518 Q1717.77 13.964 1715.13 13.964 Q1714.04 13.964 1713.11 13.559 Q1712.18 13.1539 1711.11 12.199 Z" fill="#000000" fill-rule="nonzero" fill-opacity="1" /><path clip-path="url(#clip040)" d="M1748.5 23.1654 Q1744.21 23.1654 1741.73 26.5218 Q1739.24 29.8494 1739.24 35.6653 Q1739.24 41.4813 1741.7 44.8377 Q1744.19 48.1653 1748.5 48.1653 Q1752.75 48.1653 1755.24 44.8088 Q1757.73 41.4523 1757.73 35.6653 Q1757.73 29.9072 1755.24 26.5508 Q1752.75 23.1654 1748.5 23.1654 M1748.5 18.6515 Q1755.44 18.6515 1759.41 23.1654 Q1763.37 27.6792 1763.37 35.6653 Q1763.37 43.6225 1759.41 48.1653 Q1755.44 52.6791 1748.5 52.6791 Q1741.52 52.6791 1737.56 48.1653 Q1733.62 43.6225 1733.62 35.6653 Q1733.62 27.6792 1737.56 23.1654 Q1741.52 18.6515 1748.5 18.6515 Z" fill="#000000" fill-rule="nonzero" fill-opacity="1" /><path clip-path="url(#clip040)" d="M1812.36 24.3517 L1812.36 6.81709 L1817.68 6.81709 L1817.68 51.84 L1812.36 51.84 L1812.36 46.9789 Q1810.68 49.8724 1808.1 51.2902 Q1805.56 52.6791 1801.97 52.6791 Q1796.09 52.6791 1792.39 47.9916 Q1788.72 43.3042 1788.72 35.6653 Q1788.72 28.0265 1792.39 23.339 Q1796.09 18.6515 1801.97 18.6515 Q1805.56 18.6515 1808.1 20.0693 Q1810.68 21.4582 1812.36 24.3517 M1794.21 35.6653 Q1794.21 41.5391 1796.62 44.8956 Q1799.05 48.2231 1803.27 48.2231 Q1807.5 48.2231 1809.93 44.8956 Q1812.36 41.5391 1812.36 35.6653 Q1812.36 29.7915 1809.93 26.464 Q1807.5 23.1075 1803.27 23.1075 Q1799.05 23.1075 1796.62 26.464 Q1794.21 29.7915 1794.21 35.6653 Z" fill="#000000" fill-rule="nonzero" fill-opacity="1" /><path clip-path="url(#clip040)" d="M1856.37 34.3054 L1856.37 36.9095 L1831.89 36.9095 Q1832.23 42.4072 1835.19 45.3007 Q1838.17 48.1653 1843.46 48.1653 Q1846.53 48.1653 1849.39 47.4129 Q1852.29 46.6606 1855.12 45.156 L1855.12 50.1907 Q1852.26 51.406 1849.25 52.0425 Q1846.24 52.6791 1843.14 52.6791 Q1835.39 52.6791 1830.85 48.1653 Q1826.33 43.6514 1826.33 35.9547 Q1826.33 27.9975 1830.61 23.339 Q1834.93 18.6515 1842.22 18.6515 Q1848.76 18.6515 1852.55 22.876 Q1856.37 27.0716 1856.37 34.3054 M1851.04 32.7429 Q1850.98 28.3737 1848.58 25.7695 Q1846.21 23.1654 1842.28 23.1654 Q1837.82 23.1654 1835.13 25.6827 Q1832.47 28.2001 1832.06 32.7718 L1851.04 32.7429 Z" fill="#000000" fill-rule="nonzero" fill-opacity="1" /><path clip-path="url(#clip040)" d="M1890.02 31.2093 L1890.02 47.0368 L1899.39 47.0368 Q1904.11 47.0368 1906.37 45.0981 Q1908.65 43.1306 1908.65 39.1086 Q1908.65 35.0577 1906.37 33.148 Q1904.11 31.2093 1899.39 31.2093 L1890.02 31.2093 M1890.02 13.4432 L1890.02 26.464 L1898.67 26.464 Q1902.95 26.464 1905.04 24.8726 Q1907.15 23.2522 1907.15 19.9536 Q1907.15 16.6839 1905.04 15.0636 Q1902.95 13.4432 1898.67 13.4432 L1890.02 13.4432 M1884.17 8.64 L1899.1 8.64 Q1905.79 8.64 1909.4 11.4178 Q1913.02 14.1955 1913.02 19.317 Q1913.02 23.2811 1911.17 25.6249 Q1909.32 27.9686 1905.73 28.5473 Q1910.04 29.4732 1912.41 32.4246 Q1914.82 35.347 1914.82 39.7452 Q1914.82 45.5322 1910.88 48.6861 Q1906.94 51.84 1899.68 51.84 L1884.17 51.84 L1884.17 8.64 Z" fill="#000000" fill-rule="nonzero" fill-opacity="1" /><path clip-path="url(#clip040)" d="M1952.32 34.3054 L1952.32 36.9095 L1927.84 36.9095 Q1928.18 42.4072 1931.13 45.3007 Q1934.11 48.1653 1939.41 48.1653 Q1942.48 48.1653 1945.34 47.4129 Q1948.24 46.6606 1951.07 45.156 L1951.07 50.1907 Q1948.21 51.406 1945.2 52.0425 Q1942.19 52.6791 1939.09 52.6791 Q1931.34 52.6791 1926.79 48.1653 Q1922.28 43.6514 1922.28 35.9547 Q1922.28 27.9975 1926.56 23.339 Q1930.87 18.6515 1938.17 18.6515 Q1944.71 18.6515 1948.5 22.876 Q1952.32 27.0716 1952.32 34.3054 M1946.99 32.7429 Q1946.93 28.3737 1944.53 25.7695 Q1942.16 23.1654 1938.22 23.1654 Q1933.77 23.1654 1931.08 25.6827 Q1928.41 28.2001 1928.01 32.7718 L1946.99 32.7429 Z" fill="#000000" fill-rule="nonzero" fill-opacity="1" /><path clip-path="url(#clip040)" d="M1979.83 24.4096 Q1978.94 23.8888 1977.86 23.6573 Q1976.82 23.3969 1975.55 23.3969 Q1971.04 23.3969 1968.61 26.3482 Q1966.2 29.2707 1966.2 34.7683 L1966.2 51.84 L1960.85 51.84 L1960.85 19.4328 L1966.2 19.4328 L1966.2 24.4675 Q1967.88 21.5161 1970.57 20.0983 Q1973.26 18.6515 1977.11 18.6515 Q1977.66 18.6515 1978.33 18.7383 Q1978.99 18.7962 1979.8 18.9409 L1979.83 24.4096 Z" fill="#000000" fill-rule="nonzero" fill-opacity="1" /><path clip-path="url(#clip040)" d="M2011.31 32.2799 L2011.31 51.84 L2005.99 51.84 L2005.99 32.4535 Q2005.99 27.8529 2004.2 25.567 Q2002.4 23.2811 1998.81 23.2811 Q1994.5 23.2811 1992.01 26.03 Q1989.53 28.7788 1989.53 33.5241 L1989.53 51.84 L1984.17 51.84 L1984.17 19.4328 L1989.53 19.4328 L1989.53 24.4675 Q1991.44 21.545 1994.01 20.0983 Q1996.61 18.6515 2000 18.6515 Q2005.58 18.6515 2008.45 22.1237 Q2011.31 25.567 2011.31 32.2799 Z" fill="#000000" fill-rule="nonzero" fill-opacity="1" /><path clip-path="url(#clip040)" d="M2034.49 23.1654 Q2030.21 23.1654 2027.72 26.5218 Q2025.23 29.8494 2025.23 35.6653 Q2025.23 41.4813 2027.69 44.8377 Q2030.18 48.1653 2034.49 48.1653 Q2038.74 48.1653 2041.23 44.8088 Q2043.72 41.4523 2043.72 35.6653 Q2043.72 29.9072 2041.23 26.5508 Q2038.74 23.1654 2034.49 23.1654 M2034.49 18.6515 Q2041.44 18.6515 2045.4 23.1654 Q2049.36 27.6792 2049.36 35.6653 Q2049.36 43.6225 2045.4 48.1653 Q2041.44 52.6791 2034.49 52.6791 Q2027.52 52.6791 2023.55 48.1653 Q2019.62 43.6225 2019.62 35.6653 Q2019.62 27.6792 2023.55 23.1654 Q2027.52 18.6515 2034.49 18.6515 Z" fill="#000000" fill-rule="nonzero" fill-opacity="1" /><path clip-path="url(#clip040)" d="M2057.64 39.0507 L2057.64 19.4328 L2062.96 19.4328 L2062.96 38.8482 Q2062.96 43.4488 2064.76 45.7636 Q2066.55 48.0495 2070.14 48.0495 Q2074.45 48.0495 2076.94 45.3007 Q2079.46 42.5519 2079.46 37.8065 L2079.46 19.4328 L2084.78 19.4328 L2084.78 51.84 L2079.46 51.84 L2079.46 46.8632 Q2077.52 49.8145 2074.94 51.2613 Q2072.4 52.6791 2069.01 52.6791 Q2063.43 52.6791 2060.53 49.2069 Q2057.64 45.7347 2057.64 39.0507 M2071.04 18.6515 L2071.04 18.6515 Z" fill="#000000" fill-rule="nonzero" fill-opacity="1" /><path clip-path="url(#clip040)" d="M2095.75 6.81709 L2101.07 6.81709 L2101.07 51.84 L2095.75 51.84 L2095.75 6.81709 Z" fill="#000000" fill-rule="nonzero" fill-opacity="1" /><path clip-path="url(#clip040)" d="M2112.21 6.81709 L2117.53 6.81709 L2117.53 51.84 L2112.21 51.84 L2112.21 6.81709 Z" fill="#000000" fill-rule="nonzero" fill-opacity="1" /><path clip-path="url(#clip040)" d="M2128.67 19.4328 L2134 19.4328 L2134 51.84 L2128.67 51.84 L2128.67 19.4328 M2128.67 6.81709 L2134 6.81709 L2134 13.559 L2128.67 13.559 L2128.67 6.81709 Z" fill="#000000" fill-rule="nonzero" fill-opacity="1" /><path clip-path="url(#clip042)" d="M277.391 796.32 L277.391 1486.45 L1146.09 1486.45 L1146.09 796.32 L277.391 796.32 L277.391 796.32  Z" fill="#009af9" fill-rule="evenodd" fill-opacity="1"/>
<polyline clip-path="url(#clip042)" style="stroke:#000000; stroke-linecap:round; stroke-linejoin:round; stroke-width:4; stroke-opacity:1; fill:none" points="277.391,796.32 277.391,1486.45 1146.09,1486.45 1146.09,796.32 277.391,796.32 "/>
<path clip-path="url(#clip042)" d="M1363.26 796.32 L1363.26 1486.45 L2231.96 1486.45 L2231.96 796.32 L1363.26 796.32 L1363.26 796.32  Z" fill="#009af9" fill-rule="evenodd" fill-opacity="1"/>
<polyline clip-path="url(#clip042)" style="stroke:#000000; stroke-linecap:round; stroke-linejoin:round; stroke-width:4; stroke-opacity:1; fill:none" points="1363.26,796.32 1363.26,1486.45 2231.96,1486.45 2231.96,796.32 1363.26,796.32 "/>
<circle clip-path="url(#clip042)" style="fill:#009af9; stroke:none; fill-opacity:0" cx="711.74" cy="796.32" r="2"/>
<circle clip-path="url(#clip042)" style="fill:#009af9; stroke:none; fill-opacity:0" cx="1797.61" cy="796.32" r="2"/>
</svg>
