<?xml version="1.0" encoding="utf-8"?>
<svg xmlns="http://www.w3.org/2000/svg" xmlns:xlink="http://www.w3.org/1999/xlink" width="600" height="400" viewBox="0 0 2400 1600">
<defs>
  <clipPath id="clip610">
    <rect x="0" y="0" width="2400" height="1600"/>
  </clipPath>
</defs>
<path clip-path="url(#clip610)" d="M0 1600 L2400 1600 L2400 0 L0 0  Z" fill="#ffffff" fill-rule="evenodd" fill-opacity="1"/>
<defs>
  <clipPath id="clip611">
    <rect x="480" y="0" width="1681" height="1600"/>
  </clipPath>
</defs>
<path clip-path="url(#clip610)" d="M156.598 1486.45 L2352.76 1486.45 L2352.76 106.192 L156.598 106.192  Z" fill="#eaeaea" fill-rule="evenodd" fill-opacity="1"/>
<defs>
  <clipPath id="clip612">
    <rect x="156" y="106" width="2197" height="1381"/>
  </clipPath>
</defs>
<polyline clip-path="url(#clip612)" style="stroke:#ffffff; stroke-linecap:round; stroke-linejoin:round; stroke-width:4; stroke-opacity:1; fill:none" points="168.803,1486.45 168.803,106.192 "/>
<polyline clip-path="url(#clip612)" style="stroke:#ffffff; stroke-linecap:round; stroke-linejoin:round; stroke-width:4; stroke-opacity:1; fill:none" points="711.74,1486.45 711.74,106.192 "/>
<polyline clip-path="url(#clip612)" style="stroke:#ffffff; stroke-linecap:round; stroke-linejoin:round; stroke-width:4; stroke-opacity:1; fill:none" points="1254.68,1486.45 1254.68,106.192 "/>
<polyline clip-path="url(#clip612)" style="stroke:#ffffff; stroke-linecap:round; stroke-linejoin:round; stroke-width:4; stroke-opacity:1; fill:none" points="1797.61,1486.45 1797.61,106.192 "/>
<polyline clip-path="url(#clip612)" style="stroke:#ffffff; stroke-linecap:round; stroke-linejoin:round; stroke-width:4; stroke-opacity:1; fill:none" points="2340.55,1486.45 2340.55,106.192 "/>
<polyline clip-path="url(#clip612)" style="stroke:#ffffff; stroke-linecap:round; stroke-linejoin:round; stroke-width:2; stroke-opacity:1; fill:none" points="440.272,1486.45 440.272,106.192 "/>
<polyline clip-path="url(#clip612)" style="stroke:#ffffff; stroke-linecap:round; stroke-linejoin:round; stroke-width:2; stroke-opacity:1; fill:none" points="983.209,1486.45 983.209,106.192 "/>
<polyline clip-path="url(#clip612)" style="stroke:#ffffff; stroke-linecap:round; stroke-linejoin:round; stroke-width:2; stroke-opacity:1; fill:none" points="1526.15,1486.45 1526.15,106.192 "/>
<polyline clip-path="url(#clip612)" style="stroke:#ffffff; stroke-linecap:round; stroke-linejoin:round; stroke-width:2; stroke-opacity:1; fill:none" points="2069.08,1486.45 2069.08,106.192 "/>
<polyline clip-path="url(#clip610)" style="stroke:#ffffff; stroke-linecap:round; stroke-linejoin:round; stroke-width:4; stroke-opacity:1; fill:none" points="156.598,1486.45 2352.76,1486.45 "/>
<polyline clip-path="url(#clip610)" style="stroke:#333333; stroke-linecap:round; stroke-linejoin:round; stroke-width:4; stroke-opacity:1; fill:none" points="168.803,1486.45 168.803,1505.35 "/>
<polyline clip-path="url(#clip610)" style="stroke:#333333; stroke-linecap:round; stroke-linejoin:round; stroke-width:4; stroke-opacity:1; fill:none" points="711.74,1486.45 711.74,1505.35 "/>
<polyline clip-path="url(#clip610)" style="stroke:#333333; stroke-linecap:round; stroke-linejoin:round; stroke-width:4; stroke-opacity:1; fill:none" points="1254.68,1486.45 1254.68,1505.35 "/>
<polyline clip-path="url(#clip610)" style="stroke:#333333; stroke-linecap:round; stroke-linejoin:round; stroke-width:4; stroke-opacity:1; fill:none" points="1797.61,1486.45 1797.61,1505.35 "/>
<polyline clip-path="url(#clip610)" style="stroke:#333333; stroke-linecap:round; stroke-linejoin:round; stroke-width:4; stroke-opacity:1; fill:none" points="2340.55,1486.45 2340.55,1505.35 "/>
<polyline clip-path="url(#clip610)" style="stroke:#333333; stroke-linecap:round; stroke-linejoin:round; stroke-width:4; stroke-opacity:1; fill:none" points="440.272,1486.45 440.272,1495.9 "/>
<polyline clip-path="url(#clip610)" style="stroke:#333333; stroke-linecap:round; stroke-linejoin:round; stroke-width:4; stroke-opacity:1; fill:none" points="983.209,1486.45 983.209,1495.9 "/>
<polyline clip-path="url(#clip610)" style="stroke:#333333; stroke-linecap:round; stroke-linejoin:round; stroke-width:4; stroke-opacity:1; fill:none" points="1526.15,1486.45 1526.15,1495.9 "/>
<polyline clip-path="url(#clip610)" style="stroke:#333333; stroke-linecap:round; stroke-linejoin:round; stroke-width:4; stroke-opacity:1; fill:none" points="2069.08,1486.45 2069.08,1495.9 "/>
<path clip-path="url(#clip610)" d="M115.829 1541.62 L145.505 1541.62 L145.505 1545.55 L115.829 1545.55 L115.829 1541.62 Z" fill="#4c4c4c" fill-rule="nonzero" fill-opacity="1" /><path clip-path="url(#clip610)" d="M165.597 1526.97 Q161.986 1526.97 160.158 1530.53 Q158.352 1534.07 158.352 1541.2 Q158.352 1548.31 160.158 1551.87 Q161.986 1555.42 165.597 1555.42 Q169.232 1555.42 171.037 1551.87 Q172.866 1548.31 172.866 1541.2 Q172.866 1534.07 171.037 1530.53 Q169.232 1526.97 165.597 1526.97 M165.597 1523.26 Q171.408 1523.26 174.463 1527.87 Q177.542 1532.45 177.542 1541.2 Q177.542 1549.93 174.463 1554.54 Q171.408 1559.12 165.597 1559.12 Q159.787 1559.12 156.709 1554.54 Q153.653 1549.93 153.653 1541.2 Q153.653 1532.45 156.709 1527.87 Q159.787 1523.26 165.597 1523.26 Z" fill="#4c4c4c" fill-rule="nonzero" fill-opacity="1" /><path clip-path="url(#clip610)" d="M185.759 1552.57 L190.644 1552.57 L190.644 1558.45 L185.759 1558.45 L185.759 1552.57 Z" fill="#4c4c4c" fill-rule="nonzero" fill-opacity="1" /><path clip-path="url(#clip610)" d="M200.875 1523.89 L219.231 1523.89 L219.231 1527.82 L205.157 1527.82 L205.157 1536.3 Q206.176 1535.95 207.194 1535.79 Q208.213 1535.6 209.231 1535.6 Q215.018 1535.6 218.398 1538.77 Q221.778 1541.94 221.778 1547.36 Q221.778 1552.94 218.306 1556.04 Q214.833 1559.12 208.514 1559.12 Q206.338 1559.12 204.069 1558.75 Q201.824 1558.38 199.417 1557.64 L199.417 1552.94 Q201.5 1554.07 203.722 1554.63 Q205.944 1555.18 208.421 1555.18 Q212.426 1555.18 214.764 1553.08 Q217.102 1550.97 217.102 1547.36 Q217.102 1543.75 214.764 1541.64 Q212.426 1539.54 208.421 1539.54 Q206.546 1539.54 204.671 1539.95 Q202.819 1540.37 200.875 1541.25 L200.875 1523.89 Z" fill="#4c4c4c" fill-rule="nonzero" fill-opacity="1" /><path clip-path="url(#clip610)" d="M689.125 1526.97 Q685.514 1526.97 683.685 1530.53 Q681.879 1534.07 681.879 1541.2 Q681.879 1548.31 683.685 1551.87 Q685.514 1555.42 689.125 1555.42 Q692.759 1555.42 694.564 1551.87 Q696.393 1548.31 696.393 1541.2 Q696.393 1534.07 694.564 1530.53 Q692.759 1526.97 689.125 1526.97 M689.125 1523.26 Q694.935 1523.26 697.99 1527.87 Q701.069 1532.45 701.069 1541.2 Q701.069 1549.93 697.99 1554.54 Q694.935 1559.12 689.125 1559.12 Q683.314 1559.12 680.236 1554.54 Q677.18 1549.93 677.18 1541.2 Q677.18 1532.45 680.236 1527.87 Q683.314 1523.26 689.125 1523.26 Z" fill="#4c4c4c" fill-rule="nonzero" fill-opacity="1" /><path clip-path="url(#clip610)" d="M709.287 1552.57 L714.171 1552.57 L714.171 1558.45 L709.287 1558.45 L709.287 1552.57 Z" fill="#4c4c4c" fill-rule="nonzero" fill-opacity="1" /><path clip-path="url(#clip610)" d="M734.356 1526.97 Q730.745 1526.97 728.916 1530.53 Q727.111 1534.07 727.111 1541.2 Q727.111 1548.31 728.916 1551.87 Q730.745 1555.42 734.356 1555.42 Q737.99 1555.42 739.796 1551.87 Q741.624 1548.31 741.624 1541.2 Q741.624 1534.07 739.796 1530.53 Q737.99 1526.97 734.356 1526.97 M734.356 1523.26 Q740.166 1523.26 743.222 1527.87 Q746.3 1532.45 746.3 1541.2 Q746.3 1549.93 743.222 1554.54 Q740.166 1559.12 734.356 1559.12 Q728.546 1559.12 725.467 1554.54 Q722.412 1549.93 722.412 1541.2 Q722.412 1532.45 725.467 1527.87 Q728.546 1523.26 734.356 1523.26 Z" fill="#4c4c4c" fill-rule="nonzero" fill-opacity="1" /><path clip-path="url(#clip610)" d="M1232.56 1526.97 Q1228.95 1526.97 1227.12 1530.53 Q1225.31 1534.07 1225.31 1541.2 Q1225.31 1548.31 1227.12 1551.87 Q1228.95 1555.42 1232.56 1555.42 Q1236.19 1555.42 1238 1551.87 Q1239.83 1548.31 1239.83 1541.2 Q1239.83 1534.07 1238 1530.53 Q1236.19 1526.97 1232.56 1526.97 M1232.56 1523.26 Q1238.37 1523.26 1241.42 1527.87 Q1244.5 1532.45 1244.5 1541.2 Q1244.5 1549.93 1241.42 1554.54 Q1238.37 1559.12 1232.56 1559.12 Q1226.75 1559.12 1223.67 1554.54 Q1220.61 1549.93 1220.61 1541.2 Q1220.61 1532.45 1223.67 1527.87 Q1226.75 1523.26 1232.56 1523.26 Z" fill="#4c4c4c" fill-rule="nonzero" fill-opacity="1" /><path clip-path="url(#clip610)" d="M1252.72 1552.57 L1257.61 1552.57 L1257.61 1558.45 L1252.72 1558.45 L1252.72 1552.57 Z" fill="#4c4c4c" fill-rule="nonzero" fill-opacity="1" /><path clip-path="url(#clip610)" d="M1267.84 1523.89 L1286.19 1523.89 L1286.19 1527.82 L1272.12 1527.82 L1272.12 1536.3 Q1273.14 1535.95 1274.16 1535.79 Q1275.17 1535.6 1276.19 1535.6 Q1281.98 1535.6 1285.36 1538.77 Q1288.74 1541.94 1288.74 1547.36 Q1288.74 1552.94 1285.27 1556.04 Q1281.79 1559.12 1275.48 1559.12 Q1273.3 1559.12 1271.03 1558.75 Q1268.79 1558.38 1266.38 1557.64 L1266.38 1552.94 Q1268.46 1554.07 1270.68 1554.63 Q1272.91 1555.18 1275.38 1555.18 Q1279.39 1555.18 1281.73 1553.08 Q1284.06 1550.97 1284.06 1547.36 Q1284.06 1543.75 1281.73 1541.64 Q1279.39 1539.54 1275.38 1539.54 Q1273.51 1539.54 1271.63 1539.95 Q1269.78 1540.37 1267.84 1541.25 L1267.84 1523.89 Z" fill="#4c4c4c" fill-rule="nonzero" fill-opacity="1" /><path clip-path="url(#clip610)" d="M1764.77 1554.51 L1772.41 1554.51 L1772.41 1528.15 L1764.1 1529.81 L1764.1 1525.55 L1772.36 1523.89 L1777.04 1523.89 L1777.04 1554.51 L1784.67 1554.51 L1784.67 1558.45 L1764.77 1558.45 L1764.77 1554.51 Z" fill="#4c4c4c" fill-rule="nonzero" fill-opacity="1" /><path clip-path="url(#clip610)" d="M1794.12 1552.57 L1799 1552.57 L1799 1558.45 L1794.12 1558.45 L1794.12 1552.57 Z" fill="#4c4c4c" fill-rule="nonzero" fill-opacity="1" /><path clip-path="url(#clip610)" d="M1819.19 1526.97 Q1815.58 1526.97 1813.75 1530.53 Q1811.94 1534.07 1811.94 1541.2 Q1811.94 1548.31 1813.75 1551.87 Q1815.58 1555.42 1819.19 1555.42 Q1822.82 1555.42 1824.63 1551.87 Q1826.46 1548.31 1826.46 1541.2 Q1826.46 1534.07 1824.63 1530.53 Q1822.82 1526.97 1819.19 1526.97 M1819.19 1523.26 Q1825 1523.26 1828.05 1527.87 Q1831.13 1532.45 1831.13 1541.2 Q1831.13 1549.93 1828.05 1554.54 Q1825 1559.12 1819.19 1559.12 Q1813.38 1559.12 1810.3 1554.54 Q1807.24 1549.93 1807.24 1541.2 Q1807.24 1532.45 1810.3 1527.87 Q1813.38 1523.26 1819.19 1523.26 Z" fill="#4c4c4c" fill-rule="nonzero" fill-opacity="1" /><path clip-path="url(#clip610)" d="M2308.2 1554.51 L2315.84 1554.51 L2315.84 1528.15 L2307.53 1529.81 L2307.53 1525.55 L2315.79 1523.89 L2320.47 1523.89 L2320.47 1554.51 L2328.11 1554.51 L2328.11 1558.45 L2308.2 1558.45 L2308.2 1554.51 Z" fill="#4c4c4c" fill-rule="nonzero" fill-opacity="1" /><path clip-path="url(#clip610)" d="M2337.55 1552.57 L2342.44 1552.57 L2342.44 1558.45 L2337.55 1558.45 L2337.55 1552.57 Z" fill="#4c4c4c" fill-rule="nonzero" fill-opacity="1" /><path clip-path="url(#clip610)" d="M2352.67 1523.89 L2371.03 1523.89 L2371.03 1527.82 L2356.95 1527.82 L2356.95 1536.3 Q2357.97 1535.95 2358.99 1535.79 Q2360.01 1535.6 2361.03 1535.6 Q2366.81 1535.6 2370.19 1538.77 Q2373.57 1541.94 2373.57 1547.36 Q2373.57 1552.94 2370.1 1556.04 Q2366.63 1559.12 2360.31 1559.12 Q2358.13 1559.12 2355.86 1558.75 Q2353.62 1558.38 2351.21 1557.64 L2351.21 1552.94 Q2353.29 1554.07 2355.52 1554.63 Q2357.74 1555.18 2360.21 1555.18 Q2364.22 1555.18 2366.56 1553.08 Q2368.9 1550.97 2368.9 1547.36 Q2368.9 1543.75 2366.56 1541.64 Q2364.22 1539.54 2360.21 1539.54 Q2358.34 1539.54 2356.46 1539.95 Q2354.61 1540.37 2352.67 1541.25 L2352.67 1523.89 Z" fill="#4c4c4c" fill-rule="nonzero" fill-opacity="1" /><polyline clip-path="url(#clip612)" style="stroke:#ffffff; stroke-linecap:round; stroke-linejoin:round; stroke-width:4; stroke-opacity:1; fill:none" points="156.598,1486.45 2352.76,1486.45 "/>
<polyline clip-path="url(#clip612)" style="stroke:#ffffff; stroke-linecap:round; stroke-linejoin:round; stroke-width:4; stroke-opacity:1; fill:none" points="156.598,1210.4 2352.76,1210.4 "/>
<polyline clip-path="url(#clip612)" style="stroke:#ffffff; stroke-linecap:round; stroke-linejoin:round; stroke-width:4; stroke-opacity:1; fill:none" points="156.598,934.346 2352.76,934.346 "/>
<polyline clip-path="url(#clip612)" style="stroke:#ffffff; stroke-linecap:round; stroke-linejoin:round; stroke-width:4; stroke-opacity:1; fill:none" points="156.598,658.294 2352.76,658.294 "/>
<polyline clip-path="url(#clip612)" style="stroke:#ffffff; stroke-linecap:round; stroke-linejoin:round; stroke-width:4; stroke-opacity:1; fill:none" points="156.598,382.243 2352.76,382.243 "/>
<polyline clip-path="url(#clip612)" style="stroke:#ffffff; stroke-linecap:round; stroke-linejoin:round; stroke-width:4; stroke-opacity:1; fill:none" points="156.598,106.192 2352.76,106.192 "/>
<polyline clip-path="url(#clip612)" style="stroke:#ffffff; stroke-linecap:round; stroke-linejoin:round; stroke-width:2; stroke-opacity:1; fill:none" points="156.598,1348.42 2352.76,1348.42 "/>
<polyline clip-path="url(#clip612)" style="stroke:#ffffff; stroke-linecap:round; stroke-linejoin:round; stroke-width:2; stroke-opacity:1; fill:none" points="156.598,1072.37 2352.76,1072.37 "/>
<polyline clip-path="url(#clip612)" style="stroke:#ffffff; stroke-linecap:round; stroke-linejoin:round; stroke-width:2; stroke-opacity:1; fill:none" points="156.598,796.32 2352.76,796.32 "/>
<polyline clip-path="url(#clip612)" style="stroke:#ffffff; stroke-linecap:round; stroke-linejoin:round; stroke-width:2; stroke-opacity:1; fill:none" points="156.598,520.269 2352.76,520.269 "/>
<polyline clip-path="url(#clip612)" style="stroke:#ffffff; stroke-linecap:round; stroke-linejoin:round; stroke-width:2; stroke-opacity:1; fill:none" points="156.598,244.218 2352.76,244.218 "/>
<polyline clip-path="url(#clip610)" style="stroke:#ffffff; stroke-linecap:round; stroke-linejoin:round; stroke-width:4; stroke-opacity:1; fill:none" points="156.598,1486.45 156.598,106.192 "/>
<polyline clip-path="url(#clip610)" style="stroke:#333333; stroke-linecap:round; stroke-linejoin:round; stroke-width:4; stroke-opacity:1; fill:none" points="156.598,1486.45 137.701,1486.45 "/>
<polyline clip-path="url(#clip610)" style="stroke:#333333; stroke-linecap:round; stroke-linejoin:round; stroke-width:4; stroke-opacity:1; fill:none" points="156.598,1210.4 137.701,1210.4 "/>
<polyline clip-path="url(#clip610)" style="stroke:#333333; stroke-linecap:round; stroke-linejoin:round; stroke-width:4; stroke-opacity:1; fill:none" points="156.598,934.346 137.701,934.346 "/>
<polyline clip-path="url(#clip610)" style="stroke:#333333; stroke-linecap:round; stroke-linejoin:round; stroke-width:4; stroke-opacity:1; fill:none" points="156.598,658.294 137.701,658.294 "/>
<polyline clip-path="url(#clip610)" style="stroke:#333333; stroke-linecap:round; stroke-linejoin:round; stroke-width:4; stroke-opacity:1; fill:none" points="156.598,382.243 137.701,382.243 "/>
<polyline clip-path="url(#clip610)" style="stroke:#333333; stroke-linecap:round; stroke-linejoin:round; stroke-width:4; stroke-opacity:1; fill:none" points="156.598,106.192 137.701,106.192 "/>
<polyline clip-path="url(#clip610)" style="stroke:#333333; stroke-linecap:round; stroke-linejoin:round; stroke-width:4; stroke-opacity:1; fill:none" points="156.598,1348.42 147.149,1348.42 "/>
<polyline clip-path="url(#clip610)" style="stroke:#333333; stroke-linecap:round; stroke-linejoin:round; stroke-width:4; stroke-opacity:1; fill:none" points="156.598,1072.37 147.149,1072.37 "/>
<polyline clip-path="url(#clip610)" style="stroke:#333333; stroke-linecap:round; stroke-linejoin:round; stroke-width:4; stroke-opacity:1; fill:none" points="156.598,796.32 147.149,796.32 "/>
<polyline clip-path="url(#clip610)" style="stroke:#333333; stroke-linecap:round; stroke-linejoin:round; stroke-width:4; stroke-opacity:1; fill:none" points="156.598,520.269 147.149,520.269 "/>
<polyline clip-path="url(#clip610)" style="stroke:#333333; stroke-linecap:round; stroke-linejoin:round; stroke-width:4; stroke-opacity:1; fill:none" points="156.598,244.218 147.149,244.218 "/>
<path clip-path="url(#clip610)" d="M45.4226 1472.25 Q41.8115 1472.25 39.9828 1475.81 Q38.1773 1479.35 38.1773 1486.48 Q38.1773 1493.59 39.9828 1497.15 Q41.8115 1500.7 45.4226 1500.7 Q49.0569 1500.7 50.8624 1497.15 Q52.6911 1493.59 52.6911 1486.48 Q52.6911 1479.35 50.8624 1475.81 Q49.0569 1472.25 45.4226 1472.25 M45.4226 1468.54 Q51.2328 1468.54 54.2883 1473.15 Q57.367 1477.73 57.367 1486.48 Q57.367 1495.21 54.2883 1499.82 Q51.2328 1504.4 45.4226 1504.4 Q39.6125 1504.4 36.5338 1499.82 Q33.4782 1495.21 33.4782 1486.48 Q33.4782 1477.73 36.5338 1473.15 Q39.6125 1468.54 45.4226 1468.54 Z" fill="#4c4c4c" fill-rule="nonzero" fill-opacity="1" /><path clip-path="url(#clip610)" d="M65.5845 1497.85 L70.4688 1497.85 L70.4688 1503.73 L65.5845 1503.73 L65.5845 1497.85 Z" fill="#4c4c4c" fill-rule="nonzero" fill-opacity="1" /><path clip-path="url(#clip610)" d="M90.6539 1472.25 Q87.0428 1472.25 85.2141 1475.81 Q83.4085 1479.35 83.4085 1486.48 Q83.4085 1493.59 85.2141 1497.15 Q87.0428 1500.7 90.6539 1500.7 Q94.2881 1500.7 96.0936 1497.15 Q97.9223 1493.59 97.9223 1486.48 Q97.9223 1479.35 96.0936 1475.81 Q94.2881 1472.25 90.6539 1472.25 M90.6539 1468.54 Q96.464 1468.54 99.5195 1473.15 Q102.598 1477.73 102.598 1486.48 Q102.598 1495.21 99.5195 1499.82 Q96.464 1504.4 90.6539 1504.4 Q84.8437 1504.4 81.765 1499.82 Q78.7095 1495.21 78.7095 1486.48 Q78.7095 1477.73 81.765 1473.15 Q84.8437 1468.54 90.6539 1468.54 Z" fill="#4c4c4c" fill-rule="nonzero" fill-opacity="1" /><path clip-path="url(#clip610)" d="M47.0198 1196.2 Q43.4087 1196.2 41.58 1199.76 Q39.7745 1203.3 39.7745 1210.43 Q39.7745 1217.54 41.58 1221.1 Q43.4087 1224.64 47.0198 1224.64 Q50.6541 1224.64 52.4596 1221.1 Q54.2883 1217.54 54.2883 1210.43 Q54.2883 1203.3 52.4596 1199.76 Q50.6541 1196.2 47.0198 1196.2 M47.0198 1192.49 Q52.83 1192.49 55.8855 1197.1 Q58.9642 1201.68 58.9642 1210.43 Q58.9642 1219.16 55.8855 1223.76 Q52.83 1228.35 47.0198 1228.35 Q41.2097 1228.35 38.131 1223.76 Q35.0754 1219.16 35.0754 1210.43 Q35.0754 1201.68 38.131 1197.1 Q41.2097 1192.49 47.0198 1192.49 Z" fill="#4c4c4c" fill-rule="nonzero" fill-opacity="1" /><path clip-path="url(#clip610)" d="M67.1818 1221.8 L72.066 1221.8 L72.066 1227.68 L67.1818 1227.68 L67.1818 1221.8 Z" fill="#4c4c4c" fill-rule="nonzero" fill-opacity="1" /><path clip-path="url(#clip610)" d="M86.2789 1223.74 L102.598 1223.74 L102.598 1227.68 L80.6539 1227.68 L80.6539 1223.74 Q83.3159 1220.99 87.8992 1216.36 Q92.5057 1211.7 93.6862 1210.36 Q95.9316 1207.84 96.8112 1206.1 Q97.714 1204.34 97.714 1202.65 Q97.714 1199.9 95.7696 1198.16 Q93.8483 1196.43 90.7464 1196.43 Q88.5474 1196.43 86.0937 1197.19 Q83.6632 1197.95 80.8854 1199.51 L80.8854 1194.78 Q83.7094 1193.65 86.1631 1193.07 Q88.6168 1192.49 90.6539 1192.49 Q96.0242 1192.49 99.2186 1195.18 Q102.413 1197.86 102.413 1202.35 Q102.413 1204.48 101.603 1206.4 Q100.816 1208.3 98.7094 1210.89 Q98.1307 1211.57 95.0288 1214.78 Q91.927 1217.98 86.2789 1223.74 Z" fill="#4c4c4c" fill-rule="nonzero" fill-opacity="1" /><path clip-path="url(#clip610)" d="M44.9365 920.144 Q41.3254 920.144 39.4967 923.709 Q37.6912 927.251 37.6912 934.38 Q37.6912 941.487 39.4967 945.052 Q41.3254 948.593 44.9365 948.593 Q48.5707 948.593 50.3763 945.052 Q52.205 941.487 52.205 934.38 Q52.205 927.251 50.3763 923.709 Q48.5707 920.144 44.9365 920.144 M44.9365 916.441 Q50.7467 916.441 53.8022 921.047 Q56.8809 925.63 56.8809 934.38 Q56.8809 943.107 53.8022 947.714 Q50.7467 952.297 44.9365 952.297 Q39.1264 952.297 36.0477 947.714 Q32.9921 943.107 32.9921 934.38 Q32.9921 925.63 36.0477 921.047 Q39.1264 916.441 44.9365 916.441 Z" fill="#4c4c4c" fill-rule="nonzero" fill-opacity="1" /><path clip-path="url(#clip610)" d="M65.0984 945.746 L69.9827 945.746 L69.9827 951.626 L65.0984 951.626 L65.0984 945.746 Z" fill="#4c4c4c" fill-rule="nonzero" fill-opacity="1" /><path clip-path="url(#clip610)" d="M93.015 921.14 L81.2095 939.589 L93.015 939.589 L93.015 921.14 M91.7881 917.066 L97.6677 917.066 L97.6677 939.589 L102.598 939.589 L102.598 943.477 L97.6677 943.477 L97.6677 951.626 L93.015 951.626 L93.015 943.477 L77.4132 943.477 L77.4132 938.964 L91.7881 917.066 Z" fill="#4c4c4c" fill-rule="nonzero" fill-opacity="1" /><path clip-path="url(#clip610)" d="M45.2606 644.093 Q41.6495 644.093 39.8208 647.658 Q38.0152 651.2 38.0152 658.329 Q38.0152 665.436 39.8208 669 Q41.6495 672.542 45.2606 672.542 Q48.8948 672.542 50.7004 669 Q52.5291 665.436 52.5291 658.329 Q52.5291 651.2 50.7004 647.658 Q48.8948 644.093 45.2606 644.093 M45.2606 640.389 Q51.0707 640.389 54.1263 644.996 Q57.205 649.579 57.205 658.329 Q57.205 667.056 54.1263 671.662 Q51.0707 676.246 45.2606 676.246 Q39.4504 676.246 36.3717 671.662 Q33.3162 667.056 33.3162 658.329 Q33.3162 649.579 36.3717 644.996 Q39.4504 640.389 45.2606 640.389 Z" fill="#4c4c4c" fill-rule="nonzero" fill-opacity="1" /><path clip-path="url(#clip610)" d="M65.4225 669.695 L70.3067 669.695 L70.3067 675.574 L65.4225 675.574 L65.4225 669.695 Z" fill="#4c4c4c" fill-rule="nonzero" fill-opacity="1" /><path clip-path="url(#clip610)" d="M91.0705 656.431 Q87.9224 656.431 86.0705 658.584 Q84.2419 660.737 84.2419 664.487 Q84.2419 668.213 86.0705 670.389 Q87.9224 672.542 91.0705 672.542 Q94.2186 672.542 96.0473 670.389 Q97.8992 668.213 97.8992 664.487 Q97.8992 660.737 96.0473 658.584 Q94.2186 656.431 91.0705 656.431 M100.353 641.778 L100.353 646.038 Q98.5936 645.204 96.7881 644.764 Q95.0057 644.325 93.2464 644.325 Q88.6168 644.325 86.1631 647.45 Q83.7326 650.575 83.3854 656.894 Q84.7511 654.88 86.8113 653.815 Q88.8715 652.727 91.3483 652.727 Q96.5566 652.727 99.5658 655.899 Q102.598 659.047 102.598 664.487 Q102.598 669.811 99.4501 673.028 Q96.302 676.246 91.0705 676.246 Q85.0752 676.246 81.9039 671.662 Q78.7326 667.056 78.7326 658.329 Q78.7326 650.135 82.6215 645.274 Q86.5104 640.389 93.0612 640.389 Q94.8205 640.389 96.6029 640.737 Q98.4084 641.084 100.353 641.778 Z" fill="#4c4c4c" fill-rule="nonzero" fill-opacity="1" /><path clip-path="url(#clip610)" d="M45.5152 368.042 Q41.9041 368.042 40.0754 371.607 Q38.2699 375.148 38.2699 382.278 Q38.2699 389.384 40.0754 392.949 Q41.9041 396.491 45.5152 396.491 Q49.1494 396.491 50.955 392.949 Q52.7837 389.384 52.7837 382.278 Q52.7837 375.148 50.955 371.607 Q49.1494 368.042 45.5152 368.042 M45.5152 364.338 Q51.3254 364.338 54.3809 368.945 Q57.4596 373.528 57.4596 382.278 Q57.4596 391.005 54.3809 395.611 Q51.3254 400.195 45.5152 400.195 Q39.7051 400.195 36.6264 395.611 Q33.5708 391.005 33.5708 382.278 Q33.5708 373.528 36.6264 368.945 Q39.7051 364.338 45.5152 364.338 Z" fill="#4c4c4c" fill-rule="nonzero" fill-opacity="1" /><path clip-path="url(#clip610)" d="M65.6771 393.644 L70.5614 393.644 L70.5614 399.523 L65.6771 399.523 L65.6771 393.644 Z" fill="#4c4c4c" fill-rule="nonzero" fill-opacity="1" /><path clip-path="url(#clip610)" d="M90.7464 383.111 Q87.4131 383.111 85.4918 384.894 Q83.5937 386.676 83.5937 389.801 Q83.5937 392.926 85.4918 394.708 Q87.4131 396.491 90.7464 396.491 Q94.0798 396.491 96.001 394.708 Q97.9223 392.903 97.9223 389.801 Q97.9223 386.676 96.001 384.894 Q94.1029 383.111 90.7464 383.111 M86.0705 381.121 Q83.0613 380.38 81.3715 378.32 Q79.7048 376.26 79.7048 373.297 Q79.7048 369.153 82.6446 366.746 Q85.6076 364.338 90.7464 364.338 Q95.9085 364.338 98.8483 366.746 Q101.788 369.153 101.788 373.297 Q101.788 376.26 100.098 378.32 Q98.4316 380.38 95.4455 381.121 Q98.8251 381.908 100.7 384.199 Q102.598 386.491 102.598 389.801 Q102.598 394.824 99.5195 397.509 Q96.464 400.195 90.7464 400.195 Q85.0289 400.195 81.9502 397.509 Q78.8947 394.824 78.8947 389.801 Q78.8947 386.491 80.7928 384.199 Q82.6909 381.908 86.0705 381.121 M84.3576 373.736 Q84.3576 376.422 86.0242 377.926 Q87.7141 379.431 90.7464 379.431 Q93.7557 379.431 95.4455 377.926 Q97.1584 376.422 97.1584 373.736 Q97.1584 371.051 95.4455 369.547 Q93.7557 368.042 90.7464 368.042 Q87.7141 368.042 86.0242 369.547 Q84.3576 371.051 84.3576 373.736 Z" fill="#4c4c4c" fill-rule="nonzero" fill-opacity="1" /><path clip-path="url(#clip610)" d="M36.2328 119.537 L43.8717 119.537 L43.8717 93.1714 L35.5616 94.838 L35.5616 90.5788 L43.8254 88.9121 L48.5013 88.9121 L48.5013 119.537 L56.1402 119.537 L56.1402 123.472 L36.2328 123.472 L36.2328 119.537 Z" fill="#4c4c4c" fill-rule="nonzero" fill-opacity="1" /><path clip-path="url(#clip610)" d="M65.5845 117.593 L70.4688 117.593 L70.4688 123.472 L65.5845 123.472 L65.5845 117.593 Z" fill="#4c4c4c" fill-rule="nonzero" fill-opacity="1" /><path clip-path="url(#clip610)" d="M90.6539 91.9908 Q87.0428 91.9908 85.2141 95.5556 Q83.4085 99.0973 83.4085 106.227 Q83.4085 113.333 85.2141 116.898 Q87.0428 120.44 90.6539 120.44 Q94.2881 120.44 96.0936 116.898 Q97.9223 113.333 97.9223 106.227 Q97.9223 99.0973 96.0936 95.5556 Q94.2881 91.9908 90.6539 91.9908 M90.6539 88.2871 Q96.464 88.2871 99.5195 92.8936 Q102.598 97.4769 102.598 106.227 Q102.598 114.954 99.5195 119.56 Q96.464 124.143 90.6539 124.143 Q84.8437 124.143 81.765 119.56 Q78.7095 114.954 78.7095 106.227 Q78.7095 97.4769 81.765 92.8936 Q84.8437 88.2871 90.6539 88.2871 Z" fill="#4c4c4c" fill-rule="nonzero" fill-opacity="1" /><path clip-path="url(#clip610)" d="M612.377 8.64 L637.204 8.64 L637.204 13.559 L618.222 13.559 L618.222 26.2904 L635.352 26.2904 L635.352 31.2093 L618.222 31.2093 L618.222 51.84 L612.377 51.84 L612.377 8.64 Z" fill="#000000" fill-rule="nonzero" fill-opacity="1" /><path clip-path="url(#clip610)" d="M642.441 39.0507 L642.441 19.4328 L647.765 19.4328 L647.765 38.8482 Q647.765 43.4488 649.559 45.7636 Q651.353 48.0495 654.941 48.0495 Q659.252 48.0495 661.74 45.3007 Q664.258 42.5519 664.258 37.8065 L664.258 19.4328 L669.582 19.4328 L669.582 51.84 L664.258 51.84 L664.258 46.8632 Q662.319 49.8145 659.744 51.2613 Q657.198 52.6791 653.812 52.6791 Q648.228 52.6791 645.334 49.2069 Q642.441 45.7347 642.441 39.0507 M655.838 18.6515 L655.838 18.6515 Z" fill="#000000" fill-rule="nonzero" fill-opacity="1" /><path clip-path="url(#clip610)" d="M707.487 32.2799 L707.487 51.84 L702.163 51.84 L702.163 32.4535 Q702.163 27.8529 700.369 25.567 Q698.575 23.2811 694.987 23.2811 Q690.675 23.2811 688.187 26.03 Q685.699 28.7788 685.699 33.5241 L685.699 51.84 L680.346 51.84 L680.346 19.4328 L685.699 19.4328 L685.699 24.4675 Q687.608 21.545 690.184 20.0983 Q692.788 18.6515 696.173 18.6515 Q701.758 18.6515 704.622 22.1237 Q707.487 25.567 707.487 32.2799 Z" fill="#000000" fill-rule="nonzero" fill-opacity="1" /><path clip-path="url(#clip610)" d="M741.428 20.677 L741.428 25.6538 Q739.171 24.4096 736.885 23.802 Q734.628 23.1654 732.313 23.1654 Q727.134 23.1654 724.269 26.464 Q721.404 29.7336 721.404 35.6653 Q721.404 41.597 724.269 44.8956 Q727.134 48.1653 732.313 48.1653 Q734.628 48.1653 736.885 47.5576 Q739.171 46.921 741.428 45.6768 L741.428 50.5958 Q739.2 51.6375 736.798 52.1583 Q734.425 52.6791 731.734 52.6791 Q724.414 52.6791 720.102 48.0784 Q715.791 43.4778 715.791 35.6653 Q715.791 27.7371 720.131 23.1943 Q724.501 18.6515 732.081 18.6515 Q734.541 18.6515 736.885 19.1724 Q739.228 19.6642 741.428 20.677 M733.904 51.84 Q735.496 53.634 736.277 55.1386 Q737.058 56.6722 737.058 58.061 Q737.058 60.6362 735.322 61.9383 Q733.586 63.2693 730.172 63.2693 Q728.841 63.2693 727.568 63.0957 Q726.323 62.9221 725.079 62.5749 L725.079 58.7844 Q726.063 59.2763 727.134 59.4788 Q728.204 59.7103 729.564 59.7103 Q731.271 59.7103 732.139 59.0159 Q733.007 58.3214 733.007 56.9904 Q733.007 56.1224 732.371 54.8492 Q731.763 53.605 730.461 51.84 L733.904 51.84 Z" fill="#000000" fill-rule="nonzero" fill-opacity="1" /><path clip-path="url(#clip610)" d="M765.415 35.5496 Q758.962 35.5496 756.474 37.0253 Q753.985 38.501 753.985 42.06 Q753.985 44.8956 755.837 46.5738 Q757.718 48.2231 760.93 48.2231 Q765.357 48.2231 768.019 45.0981 Q770.71 41.9442 770.71 36.7359 L770.71 35.5496 L765.415 35.5496 M776.034 33.3505 L776.034 51.84 L770.71 51.84 L770.71 46.921 Q768.887 49.8724 766.167 51.2902 Q763.447 52.6791 759.512 52.6791 Q754.535 52.6791 751.584 49.9014 Q748.661 47.0947 748.661 42.4072 Q748.661 36.9385 752.307 34.1607 Q755.982 31.3829 763.245 31.3829 L770.71 31.3829 L770.71 30.8621 Q770.71 27.1874 768.279 25.1908 Q765.878 23.1654 761.508 23.1654 Q758.731 23.1654 756.098 23.8309 Q753.464 24.4964 751.034 25.8274 L751.034 20.9085 Q753.956 19.78 756.705 19.2302 Q759.454 18.6515 762.058 18.6515 Q769.089 18.6515 772.562 22.2973 Q776.034 25.9431 776.034 33.3505 M762.174 12.199 L760.525 10.6076 Q759.888 10.0289 759.396 9.76847 Q758.933 9.47912 758.557 9.47912 Q757.458 9.47912 756.937 10.5497 Q756.416 11.5914 756.358 13.964 L752.741 13.964 Q752.799 10.0578 754.275 7.94556 Q755.75 5.80437 758.383 5.80437 Q759.483 5.80437 760.409 6.20946 Q761.335 6.61455 762.405 7.5694 L764.055 9.16083 Q764.691 9.73953 765.154 10.0289 Q765.646 10.2893 766.022 10.2893 Q767.122 10.2893 767.643 9.24764 Q768.163 8.17704 768.221 5.80437 L771.838 5.80437 Q771.78 9.7106 770.305 11.8518 Q768.829 13.964 766.196 13.964 Q765.096 13.964 764.17 13.559 Q763.245 13.1539 762.174 12.199 Z" fill="#000000" fill-rule="nonzero" fill-opacity="1" /><path clip-path="url(#clip610)" d="M799.558 23.1654 Q795.276 23.1654 792.787 26.5218 Q790.299 29.8494 790.299 35.6653 Q790.299 41.4813 792.758 44.8377 Q795.247 48.1653 799.558 48.1653 Q803.811 48.1653 806.3 44.8088 Q808.788 41.4523 808.788 35.6653 Q808.788 29.9072 806.3 26.5508 Q803.811 23.1654 799.558 23.1654 M799.558 18.6515 Q806.502 18.6515 810.466 23.1654 Q814.431 27.6792 814.431 35.6653 Q814.431 43.6225 810.466 48.1653 Q806.502 52.6791 799.558 52.6791 Q792.585 52.6791 788.621 48.1653 Q784.685 43.6225 784.685 35.6653 Q784.685 27.6792 788.621 23.1654 Q792.585 18.6515 799.558 18.6515 Z" fill="#000000" fill-rule="nonzero" fill-opacity="1" /><path clip-path="url(#clip610)" d="M863.418 24.3517 L863.418 6.81709 L868.742 6.81709 L868.742 51.84 L863.418 51.84 L863.418 46.9789 Q861.739 49.8724 859.164 51.2902 Q856.618 52.6791 853.03 52.6791 Q847.156 52.6791 843.452 47.9916 Q839.778 43.3042 839.778 35.6653 Q839.778 28.0265 843.452 23.339 Q847.156 18.6515 853.03 18.6515 Q856.618 18.6515 859.164 20.0693 Q861.739 21.4582 863.418 24.3517 M845.275 35.6653 Q845.275 41.5391 847.677 44.8956 Q850.107 48.2231 854.332 48.2231 Q858.557 48.2231 860.987 44.8956 Q863.418 41.5391 863.418 35.6653 Q863.418 29.7915 860.987 26.464 Q858.557 23.1075 854.332 23.1075 Q850.107 23.1075 847.677 26.464 Q845.275 29.7915 845.275 35.6653 Z" fill="#000000" fill-rule="nonzero" fill-opacity="1" /><path clip-path="url(#clip610)" d="M879.708 19.4328 L885.032 19.4328 L885.032 51.84 L879.708 51.84 L879.708 19.4328 M879.708 6.81709 L885.032 6.81709 L885.032 13.559 L879.708 13.559 L879.708 6.81709 Z" fill="#000000" fill-rule="nonzero" fill-opacity="1" /><path clip-path="url(#clip610)" d="M916.832 20.3876 L916.832 25.4223 Q914.575 24.2649 912.144 23.6862 Q909.714 23.1075 907.109 23.1075 Q903.145 23.1075 901.149 24.3228 Q899.181 25.5381 899.181 27.9686 Q899.181 29.8204 900.599 30.891 Q902.017 31.9327 906.299 32.8876 L908.122 33.2926 Q913.793 34.5079 916.166 36.7359 Q918.568 38.935 918.568 42.8991 Q918.568 47.4129 914.98 50.046 Q911.421 52.6791 905.171 52.6791 Q902.567 52.6791 899.731 52.1583 Q896.924 51.6664 893.799 50.6537 L893.799 45.156 Q896.751 46.6896 899.615 47.4708 Q902.48 48.2231 905.287 48.2231 Q909.048 48.2231 911.074 46.95 Q913.099 45.6479 913.099 43.3042 Q913.099 41.134 911.623 39.9766 Q910.177 38.8192 905.229 37.7486 L903.377 37.3146 Q898.429 36.273 896.23 34.1318 Q894.031 31.9616 894.031 28.2001 Q894.031 23.6283 897.272 21.1399 Q900.512 18.6515 906.473 18.6515 Q909.424 18.6515 912.028 19.0855 Q914.633 19.5196 916.832 20.3876 Z" fill="#000000" fill-rule="nonzero" fill-opacity="1" /><path clip-path="url(#clip610)" d="M932.312 10.2314 L932.312 19.4328 L943.278 19.4328 L943.278 23.5705 L932.312 23.5705 L932.312 41.163 Q932.312 45.1271 933.382 46.2555 Q934.482 47.384 937.81 47.384 L943.278 47.384 L943.278 51.84 L937.81 51.84 Q931.646 51.84 929.303 49.5541 Q926.959 47.2393 926.959 41.163 L926.959 23.5705 L923.053 23.5705 L923.053 19.4328 L926.959 19.4328 L926.959 10.2314 L932.312 10.2314 Z" fill="#000000" fill-rule="nonzero" fill-opacity="1" /><path clip-path="url(#clip610)" d="M969.059 24.4096 Q968.162 23.8888 967.092 23.6573 Q966.05 23.3969 964.777 23.3969 Q960.263 23.3969 957.833 26.3482 Q955.431 29.2707 955.431 34.7683 L955.431 51.84 L950.078 51.84 L950.078 19.4328 L955.431 19.4328 L955.431 24.4675 Q957.109 21.5161 959.8 20.0983 Q962.491 18.6515 966.339 18.6515 Q966.889 18.6515 967.555 18.7383 Q968.22 18.7962 969.03 18.9409 L969.059 24.4096 Z" fill="#000000" fill-rule="nonzero" fill-opacity="1" /><path clip-path="url(#clip610)" d="M974.644 19.4328 L979.968 19.4328 L979.968 51.84 L974.644 51.84 L974.644 19.4328 M974.644 6.81709 L979.968 6.81709 L979.968 13.559 L974.644 13.559 L974.644 6.81709 Z" fill="#000000" fill-rule="nonzero" fill-opacity="1" /><path clip-path="url(#clip610)" d="M1014.37 35.6653 Q1014.37 29.7915 1011.94 26.464 Q1009.54 23.1075 1005.31 23.1075 Q1001.09 23.1075 998.66 26.464 Q996.258 29.7915 996.258 35.6653 Q996.258 41.5391 998.66 44.8956 Q1001.09 48.2231 1005.31 48.2231 Q1009.54 48.2231 1011.94 44.8956 Q1014.37 41.5391 1014.37 35.6653 M996.258 24.3517 Q997.937 21.4582 1000.48 20.0693 Q1003.06 18.6515 1006.62 18.6515 Q1012.52 18.6515 1016.19 23.339 Q1019.9 28.0265 1019.9 35.6653 Q1019.9 43.3042 1016.19 47.9916 Q1012.52 52.6791 1006.62 52.6791 Q1003.06 52.6791 1000.48 51.2902 Q997.937 49.8724 996.258 46.9789 L996.258 51.84 L990.905 51.84 L990.905 6.81709 L996.258 6.81709 L996.258 24.3517 Z" fill="#000000" fill-rule="nonzero" fill-opacity="1" /><path clip-path="url(#clip610)" d="M1028.17 39.0507 L1028.17 19.4328 L1033.5 19.4328 L1033.5 38.8482 Q1033.5 43.4488 1035.29 45.7636 Q1037.09 48.0495 1040.67 48.0495 Q1044.98 48.0495 1047.47 45.3007 Q1049.99 42.5519 1049.99 37.8065 L1049.99 19.4328 L1055.31 19.4328 L1055.31 51.84 L1049.99 51.84 L1049.99 46.8632 Q1048.05 49.8145 1045.48 51.2613 Q1042.93 52.6791 1039.55 52.6791 Q1033.96 52.6791 1031.07 49.2069 Q1028.17 45.7347 1028.17 39.0507 M1041.57 18.6515 L1041.57 18.6515 Z" fill="#000000" fill-rule="nonzero" fill-opacity="1" /><path clip-path="url(#clip610)" d="M1066.28 19.4328 L1071.61 19.4328 L1071.61 51.84 L1066.28 51.84 L1066.28 19.4328 M1066.28 6.81709 L1071.61 6.81709 L1071.61 13.559 L1066.28 13.559 L1066.28 6.81709 Z" fill="#000000" fill-rule="nonzero" fill-opacity="1" /><path clip-path="url(#clip610)" d="M1106.07 20.677 L1106.07 25.6538 Q1103.81 24.4096 1101.52 23.802 Q1099.27 23.1654 1096.95 23.1654 Q1091.77 23.1654 1088.91 26.464 Q1086.04 29.7336 1086.04 35.6653 Q1086.04 41.597 1088.91 44.8956 Q1091.77 48.1653 1096.95 48.1653 Q1099.27 48.1653 1101.52 47.5576 Q1103.81 46.921 1106.07 45.6768 L1106.07 50.5958 Q1103.84 51.6375 1101.44 52.1583 Q1099.06 52.6791 1096.37 52.6791 Q1089.05 52.6791 1084.74 48.0784 Q1080.43 43.4778 1080.43 35.6653 Q1080.43 27.7371 1084.77 23.1943 Q1089.14 18.6515 1096.72 18.6515 Q1099.18 18.6515 1101.52 19.1724 Q1103.87 19.6642 1106.07 20.677 M1098.54 51.84 Q1100.14 53.634 1100.92 55.1386 Q1101.7 56.6722 1101.7 58.061 Q1101.7 60.6362 1099.96 61.9383 Q1098.23 63.2693 1094.81 63.2693 Q1093.48 63.2693 1092.21 63.0957 Q1090.96 62.9221 1089.72 62.5749 L1089.72 58.7844 Q1090.7 59.2763 1091.77 59.4788 Q1092.84 59.7103 1094.2 59.7103 Q1095.91 59.7103 1096.78 59.0159 Q1097.65 58.3214 1097.65 56.9904 Q1097.65 56.1224 1097.01 54.8492 Q1096.4 53.605 1095.1 51.84 L1098.54 51.84 Z" fill="#000000" fill-rule="nonzero" fill-opacity="1" /><path clip-path="url(#clip610)" d="M1130.05 35.5496 Q1123.6 35.5496 1121.11 37.0253 Q1118.62 38.501 1118.62 42.06 Q1118.62 44.8956 1120.48 46.5738 Q1122.36 48.2231 1125.57 48.2231 Q1130 48.2231 1132.66 45.0981 Q1135.35 41.9442 1135.35 36.7359 L1135.35 35.5496 L1130.05 35.5496 M1140.67 33.3505 L1140.67 51.84 L1135.35 51.84 L1135.35 46.921 Q1133.53 49.8724 1130.81 51.2902 Q1128.09 52.6791 1124.15 52.6791 Q1119.17 52.6791 1116.22 49.9014 Q1113.3 47.0947 1113.3 42.4072 Q1113.3 36.9385 1116.95 34.1607 Q1120.62 31.3829 1127.88 31.3829 L1135.35 31.3829 L1135.35 30.8621 Q1135.35 27.1874 1132.92 25.1908 Q1130.52 23.1654 1126.15 23.1654 Q1123.37 23.1654 1120.74 23.8309 Q1118.1 24.4964 1115.67 25.8274 L1115.67 20.9085 Q1118.6 19.78 1121.34 19.2302 Q1124.09 18.6515 1126.7 18.6515 Q1133.73 18.6515 1137.2 22.2973 Q1140.67 25.9431 1140.67 33.3505 M1126.81 12.199 L1125.16 10.6076 Q1124.53 10.0289 1124.04 9.76847 Q1123.57 9.47912 1123.2 9.47912 Q1122.1 9.47912 1121.58 10.5497 Q1121.06 11.5914 1121 13.964 L1117.38 13.964 Q1117.44 10.0578 1118.91 7.94556 Q1120.39 5.80437 1123.02 5.80437 Q1124.12 5.80437 1125.05 6.20946 Q1125.97 6.61455 1127.04 7.5694 L1128.69 9.16083 Q1129.33 9.73953 1129.79 10.0289 Q1130.29 10.2893 1130.66 10.2893 Q1131.76 10.2893 1132.28 9.24764 Q1132.8 8.17704 1132.86 5.80437 L1136.48 5.80437 Q1136.42 9.7106 1134.94 11.8518 Q1133.47 13.964 1130.84 13.964 Q1129.74 13.964 1128.81 13.559 Q1127.88 13.1539 1126.81 12.199 Z" fill="#000000" fill-rule="nonzero" fill-opacity="1" /><path clip-path="url(#clip610)" d="M1164.2 23.1654 Q1159.91 23.1654 1157.43 26.5218 Q1154.94 29.8494 1154.94 35.6653 Q1154.94 41.4813 1157.4 44.8377 Q1159.89 48.1653 1164.2 48.1653 Q1168.45 48.1653 1170.94 44.8088 Q1173.43 41.4523 1173.43 35.6653 Q1173.43 29.9072 1170.94 26.5508 Q1168.45 23.1654 1164.2 23.1654 M1164.2 18.6515 Q1171.14 18.6515 1175.11 23.1654 Q1179.07 27.6792 1179.07 35.6653 Q1179.07 43.6225 1175.11 48.1653 Q1171.14 52.6791 1164.2 52.6791 Q1157.22 52.6791 1153.26 48.1653 Q1149.32 43.6225 1149.32 35.6653 Q1149.32 27.6792 1153.26 23.1654 Q1157.22 18.6515 1164.2 18.6515 Z" fill="#000000" fill-rule="nonzero" fill-opacity="1" /><path clip-path="url(#clip610)" d="M1221.46 35.5496 Q1215.01 35.5496 1212.52 37.0253 Q1210.03 38.501 1210.03 42.06 Q1210.03 44.8956 1211.88 46.5738 Q1213.76 48.2231 1216.97 48.2231 Q1221.4 48.2231 1224.06 45.0981 Q1226.75 41.9442 1226.75 36.7359 L1226.75 35.5496 L1221.46 35.5496 M1232.08 33.3505 L1232.08 51.84 L1226.75 51.84 L1226.75 46.921 Q1224.93 49.8724 1222.21 51.2902 Q1219.49 52.6791 1215.56 52.6791 Q1210.58 52.6791 1207.63 49.9014 Q1204.71 47.0947 1204.71 42.4072 Q1204.71 36.9385 1208.35 34.1607 Q1212.03 31.3829 1219.29 31.3829 L1226.75 31.3829 L1226.75 30.8621 Q1226.75 27.1874 1224.32 25.1908 Q1221.92 23.1654 1217.55 23.1654 Q1214.78 23.1654 1212.14 23.8309 Q1209.51 24.4964 1207.08 25.8274 L1207.08 20.9085 Q1210 19.78 1212.75 19.2302 Q1215.5 18.6515 1218.1 18.6515 Q1225.13 18.6515 1228.61 22.2973 Q1232.08 25.9431 1232.08 33.3505 Z" fill="#000000" fill-rule="nonzero" fill-opacity="1" /><path clip-path="url(#clip610)" d="M1266.37 20.677 L1266.37 25.6538 Q1264.11 24.4096 1261.82 23.802 Q1259.57 23.1654 1257.25 23.1654 Q1252.07 23.1654 1249.21 26.464 Q1246.34 29.7336 1246.34 35.6653 Q1246.34 41.597 1249.21 44.8956 Q1252.07 48.1653 1257.25 48.1653 Q1259.57 48.1653 1261.82 47.5576 Q1264.11 46.921 1266.37 45.6768 L1266.37 50.5958 Q1264.14 51.6375 1261.74 52.1583 Q1259.36 52.6791 1256.67 52.6791 Q1249.35 52.6791 1245.04 48.0784 Q1240.73 43.4778 1240.73 35.6653 Q1240.73 27.7371 1245.07 23.1943 Q1249.44 18.6515 1257.02 18.6515 Q1259.48 18.6515 1261.82 19.1724 Q1264.17 19.6642 1266.37 20.677 Z" fill="#000000" fill-rule="nonzero" fill-opacity="1" /><path clip-path="url(#clip610)" d="M1275.08 39.0507 L1275.08 19.4328 L1280.4 19.4328 L1280.4 38.8482 Q1280.4 43.4488 1282.19 45.7636 Q1283.99 48.0495 1287.58 48.0495 Q1291.89 48.0495 1294.38 45.3007 Q1296.89 42.5519 1296.89 37.8065 L1296.89 19.4328 L1302.22 19.4328 L1302.22 51.84 L1296.89 51.84 L1296.89 46.8632 Q1294.95 49.8145 1292.38 51.2613 Q1289.83 52.6791 1286.45 52.6791 Q1280.86 52.6791 1277.97 49.2069 Q1275.08 45.7347 1275.08 39.0507 M1288.47 18.6515 L1288.47 18.6515 Z" fill="#000000" fill-rule="nonzero" fill-opacity="1" /><path clip-path="url(#clip610)" d="M1338.42 25.6538 Q1340.41 22.0659 1343.19 20.3587 Q1345.97 18.6515 1349.73 18.6515 Q1354.79 18.6515 1357.54 22.2105 Q1360.29 25.7406 1360.29 32.2799 L1360.29 51.84 L1354.94 51.84 L1354.94 32.4535 Q1354.94 27.795 1353.29 25.5381 Q1351.64 23.2811 1348.25 23.2811 Q1344.12 23.2811 1341.71 26.03 Q1339.31 28.7788 1339.31 33.5241 L1339.31 51.84 L1333.96 51.84 L1333.96 32.4535 Q1333.96 27.7661 1332.31 25.5381 Q1330.66 23.2811 1327.22 23.2811 Q1323.14 23.2811 1320.74 26.0589 Q1318.33 28.8077 1318.33 33.5241 L1318.33 51.84 L1312.98 51.84 L1312.98 19.4328 L1318.33 19.4328 L1318.33 24.4675 Q1320.16 21.4872 1322.7 20.0693 Q1325.25 18.6515 1328.75 18.6515 Q1332.28 18.6515 1334.74 20.4455 Q1337.23 22.2395 1338.42 25.6538 Z" fill="#000000" fill-rule="nonzero" fill-opacity="1" /><path clip-path="url(#clip610)" d="M1370.36 39.0507 L1370.36 19.4328 L1375.68 19.4328 L1375.68 38.8482 Q1375.68 43.4488 1377.48 45.7636 Q1379.27 48.0495 1382.86 48.0495 Q1387.17 48.0495 1389.66 45.3007 Q1392.18 42.5519 1392.18 37.8065 L1392.18 19.4328 L1397.5 19.4328 L1397.5 51.84 L1392.18 51.84 L1392.18 46.8632 Q1390.24 49.8145 1387.66 51.2613 Q1385.12 52.6791 1381.73 52.6791 Q1376.15 52.6791 1373.25 49.2069 Q1370.36 45.7347 1370.36 39.0507 M1383.76 18.6515 L1383.76 18.6515 Z" fill="#000000" fill-rule="nonzero" fill-opacity="1" /><path clip-path="url(#clip610)" d="M1408.47 6.81709 L1413.79 6.81709 L1413.79 51.84 L1408.47 51.84 L1408.47 6.81709 Z" fill="#000000" fill-rule="nonzero" fill-opacity="1" /><path clip-path="url(#clip610)" d="M1439.66 35.5496 Q1433.21 35.5496 1430.72 37.0253 Q1428.23 38.501 1428.23 42.06 Q1428.23 44.8956 1430.08 46.5738 Q1431.96 48.2231 1435.17 48.2231 Q1439.6 48.2231 1442.26 45.0981 Q1444.95 41.9442 1444.95 36.7359 L1444.95 35.5496 L1439.66 35.5496 M1450.28 33.3505 L1450.28 51.84 L1444.95 51.84 L1444.95 46.921 Q1443.13 49.8724 1440.41 51.2902 Q1437.69 52.6791 1433.76 52.6791 Q1428.78 52.6791 1425.83 49.9014 Q1422.91 47.0947 1422.91 42.4072 Q1422.91 36.9385 1426.55 34.1607 Q1430.23 31.3829 1437.49 31.3829 L1444.95 31.3829 L1444.95 30.8621 Q1444.95 27.1874 1442.52 25.1908 Q1440.12 23.1654 1435.75 23.1654 Q1432.97 23.1654 1430.34 23.8309 Q1427.71 24.4964 1425.28 25.8274 L1425.28 20.9085 Q1428.2 19.78 1430.95 19.2302 Q1433.7 18.6515 1436.3 18.6515 Q1443.33 18.6515 1446.81 22.2973 Q1450.28 25.9431 1450.28 33.3505 Z" fill="#000000" fill-rule="nonzero" fill-opacity="1" /><path clip-path="url(#clip610)" d="M1482.57 24.3517 L1482.57 6.81709 L1487.89 6.81709 L1487.89 51.84 L1482.57 51.84 L1482.57 46.9789 Q1480.89 49.8724 1478.32 51.2902 Q1475.77 52.6791 1472.18 52.6791 Q1466.31 52.6791 1462.6 47.9916 Q1458.93 43.3042 1458.93 35.6653 Q1458.93 28.0265 1462.6 23.339 Q1466.31 18.6515 1472.18 18.6515 Q1475.77 18.6515 1478.32 20.0693 Q1480.89 21.4582 1482.57 24.3517 M1464.43 35.6653 Q1464.43 41.5391 1466.83 44.8956 Q1469.26 48.2231 1473.48 48.2231 Q1477.71 48.2231 1480.14 44.8956 Q1482.57 41.5391 1482.57 35.6653 Q1482.57 29.7915 1480.14 26.464 Q1477.71 23.1075 1473.48 23.1075 Q1469.26 23.1075 1466.83 26.464 Q1464.43 29.7915 1464.43 35.6653 Z" fill="#000000" fill-rule="nonzero" fill-opacity="1" /><path clip-path="url(#clip610)" d="M1513.59 35.5496 Q1507.14 35.5496 1504.65 37.0253 Q1502.16 38.501 1502.16 42.06 Q1502.16 44.8956 1504.01 46.5738 Q1505.89 48.2231 1509.1 48.2231 Q1513.53 48.2231 1516.19 45.0981 Q1518.88 41.9442 1518.88 36.7359 L1518.88 35.5496 L1513.59 35.5496 M1524.21 33.3505 L1524.21 51.84 L1518.88 51.84 L1518.88 46.921 Q1517.06 49.8724 1514.34 51.2902 Q1511.62 52.6791 1507.68 52.6791 Q1502.71 52.6791 1499.76 49.9014 Q1496.83 47.0947 1496.83 42.4072 Q1496.83 36.9385 1500.48 34.1607 Q1504.15 31.3829 1511.42 31.3829 L1518.88 31.3829 L1518.88 30.8621 Q1518.88 27.1874 1516.45 25.1908 Q1514.05 23.1654 1509.68 23.1654 Q1506.9 23.1654 1504.27 23.8309 Q1501.64 24.4964 1499.21 25.8274 L1499.21 20.9085 Q1502.13 19.78 1504.88 19.2302 Q1507.63 18.6515 1510.23 18.6515 Q1517.26 18.6515 1520.73 22.2973 Q1524.21 25.9431 1524.21 33.3505 Z" fill="#000000" fill-rule="nonzero" fill-opacity="1" /><path clip-path="url(#clip610)" d="M1575.34 24.3517 L1575.34 6.81709 L1580.66 6.81709 L1580.66 51.84 L1575.34 51.84 L1575.34 46.9789 Q1573.66 49.8724 1571.08 51.2902 Q1568.54 52.6791 1564.95 52.6791 Q1559.07 52.6791 1555.37 47.9916 Q1551.7 43.3042 1551.7 35.6653 Q1551.7 28.0265 1555.37 23.339 Q1559.07 18.6515 1564.95 18.6515 Q1568.54 18.6515 1571.08 20.0693 Q1573.66 21.4582 1575.34 24.3517 M1557.19 35.6653 Q1557.19 41.5391 1559.59 44.8956 Q1562.02 48.2231 1566.25 48.2231 Q1570.47 48.2231 1572.9 44.8956 Q1575.34 41.5391 1575.34 35.6653 Q1575.34 29.7915 1572.9 26.464 Q1570.47 23.1075 1566.25 23.1075 Q1562.02 23.1075 1559.59 26.464 Q1557.19 29.7915 1557.19 35.6653 Z" fill="#000000" fill-rule="nonzero" fill-opacity="1" /><path clip-path="url(#clip610)" d="M1619.35 34.3054 L1619.35 36.9095 L1594.87 36.9095 Q1595.21 42.4072 1598.16 45.3007 Q1601.15 48.1653 1606.44 48.1653 Q1609.51 48.1653 1612.37 47.4129 Q1615.27 46.6606 1618.1 45.156 L1618.1 50.1907 Q1615.24 51.406 1612.23 52.0425 Q1609.22 52.6791 1606.12 52.6791 Q1598.37 52.6791 1593.82 48.1653 Q1589.31 43.6514 1589.31 35.9547 Q1589.31 27.9975 1593.59 23.339 Q1597.9 18.6515 1605.2 18.6515 Q1611.74 18.6515 1615.53 22.876 Q1619.35 27.0716 1619.35 34.3054 M1614.02 32.7429 Q1613.96 28.3737 1611.56 25.7695 Q1609.19 23.1654 1605.25 23.1654 Q1600.8 23.1654 1598.11 25.6827 Q1595.44 28.2001 1595.04 32.7718 L1614.02 32.7429 Z" fill="#000000" fill-rule="nonzero" fill-opacity="1" /><path clip-path="url(#clip610)" d="M1653 31.2093 L1653 47.0368 L1662.37 47.0368 Q1667.09 47.0368 1669.34 45.0981 Q1671.63 43.1306 1671.63 39.1086 Q1671.63 35.0577 1669.34 33.148 Q1667.09 31.2093 1662.37 31.2093 L1653 31.2093 M1653 13.4432 L1653 26.464 L1661.65 26.464 Q1665.93 26.464 1668.01 24.8726 Q1670.13 23.2522 1670.13 19.9536 Q1670.13 16.6839 1668.01 15.0636 Q1665.93 13.4432 1661.65 13.4432 L1653 13.4432 M1647.15 8.64 L1662.08 8.64 Q1668.77 8.64 1672.38 11.4178 Q1676 14.1955 1676 19.317 Q1676 23.2811 1674.15 25.6249 Q1672.3 27.9686 1668.71 28.5473 Q1673.02 29.4732 1675.39 32.4246 Q1677.79 35.347 1677.79 39.7452 Q1677.79 45.5322 1673.86 48.6861 Q1669.92 51.84 1662.66 51.84 L1647.15 51.84 L1647.15 8.64 Z" fill="#000000" fill-rule="nonzero" fill-opacity="1" /><path clip-path="url(#clip610)" d="M1715.29 34.3054 L1715.29 36.9095 L1690.81 36.9095 Q1691.16 42.4072 1694.11 45.3007 Q1697.09 48.1653 1702.39 48.1653 Q1705.46 48.1653 1708.32 47.4129 Q1711.21 46.6606 1714.05 45.156 L1714.05 50.1907 Q1711.19 51.406 1708.18 52.0425 Q1705.17 52.6791 1702.07 52.6791 Q1694.32 52.6791 1689.77 48.1653 Q1685.26 43.6514 1685.26 35.9547 Q1685.26 27.9975 1689.54 23.339 Q1693.85 18.6515 1701.14 18.6515 Q1707.68 18.6515 1711.47 22.876 Q1715.29 27.0716 1715.29 34.3054 M1709.97 32.7429 Q1709.91 28.3737 1707.51 25.7695 Q1705.14 23.1654 1701.2 23.1654 Q1696.75 23.1654 1694.06 25.6827 Q1691.39 28.2001 1690.99 32.7718 L1709.97 32.7429 Z" fill="#000000" fill-rule="nonzero" fill-opacity="1" /><path clip-path="url(#clip610)" d="M1742.81 24.4096 Q1741.91 23.8888 1740.84 23.6573 Q1739.8 23.3969 1738.53 23.3969 Q1734.01 23.3969 1731.58 26.3482 Q1729.18 29.2707 1729.18 34.7683 L1729.18 51.84 L1723.83 51.84 L1723.83 19.4328 L1729.18 19.4328 L1729.18 24.4675 Q1730.86 21.5161 1733.55 20.0983 Q1736.24 18.6515 1740.09 18.6515 Q1740.64 18.6515 1741.31 18.7383 Q1741.97 18.7962 1742.78 18.9409 L1742.81 24.4096 Z" fill="#000000" fill-rule="nonzero" fill-opacity="1" /><path clip-path="url(#clip610)" d="M1774.29 32.2799 L1774.29 51.84 L1768.97 51.84 L1768.97 32.4535 Q1768.97 27.8529 1767.17 25.567 Q1765.38 23.2811 1761.79 23.2811 Q1757.48 23.2811 1754.99 26.03 Q1752.5 28.7788 1752.5 33.5241 L1752.5 51.84 L1747.15 51.84 L1747.15 19.4328 L1752.5 19.4328 L1752.5 24.4675 Q1754.41 21.545 1756.99 20.0983 Q1759.59 18.6515 1762.98 18.6515 Q1768.56 18.6515 1771.43 22.1237 Q1774.29 25.567 1774.29 32.2799 Z" fill="#000000" fill-rule="nonzero" fill-opacity="1" /><path clip-path="url(#clip610)" d="M1797.47 23.1654 Q1793.19 23.1654 1790.7 26.5218 Q1788.21 29.8494 1788.21 35.6653 Q1788.21 41.4813 1790.67 44.8377 Q1793.16 48.1653 1797.47 48.1653 Q1801.72 48.1653 1804.21 44.8088 Q1806.7 41.4523 1806.7 35.6653 Q1806.7 29.9072 1804.21 26.5508 Q1801.72 23.1654 1797.47 23.1654 M1797.47 18.6515 Q1804.41 18.6515 1808.38 23.1654 Q1812.34 27.6792 1812.34 35.6653 Q1812.34 43.6225 1808.38 48.1653 Q1804.41 52.6791 1797.47 52.6791 Q1790.5 52.6791 1786.53 48.1653 Q1782.6 43.6225 1782.6 35.6653 Q1782.6 27.6792 1786.53 23.1654 Q1790.5 18.6515 1797.47 18.6515 Z" fill="#000000" fill-rule="nonzero" fill-opacity="1" /><path clip-path="url(#clip610)" d="M1820.62 39.0507 L1820.62 19.4328 L1825.94 19.4328 L1825.94 38.8482 Q1825.94 43.4488 1827.74 45.7636 Q1829.53 48.0495 1833.12 48.0495 Q1837.43 48.0495 1839.92 45.3007 Q1842.43 42.5519 1842.43 37.8065 L1842.43 19.4328 L1847.76 19.4328 L1847.76 51.84 L1842.43 51.84 L1842.43 46.8632 Q1840.5 49.8145 1837.92 51.2613 Q1835.37 52.6791 1831.99 52.6791 Q1826.4 52.6791 1823.51 49.2069 Q1820.62 45.7347 1820.62 39.0507 M1834.01 18.6515 L1834.01 18.6515 Z" fill="#000000" fill-rule="nonzero" fill-opacity="1" /><path clip-path="url(#clip610)" d="M1858.72 6.81709 L1864.05 6.81709 L1864.05 51.84 L1858.72 51.84 L1858.72 6.81709 Z" fill="#000000" fill-rule="nonzero" fill-opacity="1" /><path clip-path="url(#clip610)" d="M1875.19 6.81709 L1880.51 6.81709 L1880.51 51.84 L1875.19 51.84 L1875.19 6.81709 Z" fill="#000000" fill-rule="nonzero" fill-opacity="1" /><path clip-path="url(#clip610)" d="M1891.65 19.4328 L1896.98 19.4328 L1896.98 51.84 L1891.65 51.84 L1891.65 19.4328 M1891.65 6.81709 L1896.98 6.81709 L1896.98 13.559 L1891.65 13.559 L1891.65 6.81709 Z" fill="#000000" fill-rule="nonzero" fill-opacity="1" /><path clip-path="url(#clip612)" d="M277.391 796.32 L277.391 1486.45 L1146.09 1486.45 L1146.09 796.32 L277.391 796.32 L277.391 796.32  Z" fill="#009af9" fill-rule="evenodd" fill-opacity="1"/>
<polyline clip-path="url(#clip612)" style="stroke:#000000; stroke-linecap:round; stroke-linejoin:round; stroke-width:4; stroke-opacity:1; fill:none" points="277.391,796.32 277.391,1486.45 1146.09,1486.45 1146.09,796.32 277.391,796.32 "/>
<path clip-path="url(#clip612)" d="M1363.26 106.192 L1363.26 1486.45 L2231.96 1486.45 L2231.96 106.192 L1363.26 106.192 L1363.26 106.192  Z" fill="#009af9" fill-rule="evenodd" fill-opacity="1"/>
<polyline clip-path="url(#clip612)" style="stroke:#000000; stroke-linecap:round; stroke-linejoin:round; stroke-width:4; stroke-opacity:1; fill:none" points="1363.26,106.192 1363.26,1486.45 2231.96,1486.45 2231.96,106.192 1363.26,106.192 "/>
<circle clip-path="url(#clip612)" style="fill:#009af9; stroke:none; fill-opacity:0" cx="711.74" cy="796.32" r="2"/>
<circle clip-path="url(#clip612)" style="fill:#009af9; stroke:none; fill-opacity:0" cx="1797.61" cy="106.192" r="2"/>
</svg>
