<?xml version="1.0" encoding="utf-8"?>
<svg xmlns="http://www.w3.org/2000/svg" xmlns:xlink="http://www.w3.org/1999/xlink" width="600" height="400" viewBox="0 0 2400 1600">
<defs>
  <clipPath id="clip470">
    <rect x="0" y="0" width="2400" height="1600"/>
  </clipPath>
</defs>
<path clip-path="url(#clip470)" d="
M0 1600 L2400 1600 L2400 0 L0 0  Z
  " fill="#ffffff" fill-rule="evenodd" fill-opacity="1"/>
<defs>
  <clipPath id="clip471">
    <rect x="480" y="0" width="1681" height="1600"/>
  </clipPath>
</defs>
<path clip-path="url(#clip470)" d="
M186.274 1486.45 L2352.76 1486.45 L2352.76 149.392 L186.274 149.392  Z
  " fill="#eaeaea" fill-rule="evenodd" fill-opacity="1"/>
<defs>
  <clipPath id="clip472">
    <rect x="186" y="149" width="2167" height="1338"/>
  </clipPath>
</defs>
<polyline clip-path="url(#clip472)" style="stroke:#ffffff; stroke-linecap:butt; stroke-linejoin:round; stroke-width:4; stroke-opacity:1; fill:none" points="
  247.005,1486.45 247.005,149.392 
  "/>
<polyline clip-path="url(#clip472)" style="stroke:#ffffff; stroke-linecap:butt; stroke-linejoin:round; stroke-width:4; stroke-opacity:1; fill:none" points="
  733.915,1486.45 733.915,149.392 
  "/>
<polyline clip-path="url(#clip472)" style="stroke:#ffffff; stroke-linecap:butt; stroke-linejoin:round; stroke-width:4; stroke-opacity:1; fill:none" points="
  1220.82,1486.45 1220.82,149.392 
  "/>
<polyline clip-path="url(#clip472)" style="stroke:#ffffff; stroke-linecap:butt; stroke-linejoin:round; stroke-width:4; stroke-opacity:1; fill:none" points="
  1707.73,1486.45 1707.73,149.392 
  "/>
<polyline clip-path="url(#clip472)" style="stroke:#ffffff; stroke-linecap:butt; stroke-linejoin:round; stroke-width:4; stroke-opacity:1; fill:none" points="
  2194.64,1486.45 2194.64,149.392 
  "/>
<polyline clip-path="url(#clip472)" style="stroke:#ffffff; stroke-linecap:butt; stroke-linejoin:round; stroke-width:2; stroke-opacity:1; fill:none" points="
  490.46,1486.45 490.46,149.392 
  "/>
<polyline clip-path="url(#clip472)" style="stroke:#ffffff; stroke-linecap:butt; stroke-linejoin:round; stroke-width:2; stroke-opacity:1; fill:none" points="
  977.369,1486.45 977.369,149.392 
  "/>
<polyline clip-path="url(#clip472)" style="stroke:#ffffff; stroke-linecap:butt; stroke-linejoin:round; stroke-width:2; stroke-opacity:1; fill:none" points="
  1464.28,1486.45 1464.28,149.392 
  "/>
<polyline clip-path="url(#clip472)" style="stroke:#ffffff; stroke-linecap:butt; stroke-linejoin:round; stroke-width:2; stroke-opacity:1; fill:none" points="
  1951.19,1486.45 1951.19,149.392 
  "/>
<polyline clip-path="url(#clip470)" style="stroke:#ffffff; stroke-linecap:butt; stroke-linejoin:round; stroke-width:4; stroke-opacity:1; fill:none" points="
  186.274,1486.45 2352.76,1486.45 
  "/>
<polyline clip-path="url(#clip470)" style="stroke:#333333; stroke-linecap:butt; stroke-linejoin:round; stroke-width:4; stroke-opacity:1; fill:none" points="
  247.005,1486.45 247.005,1505.35 
  "/>
<polyline clip-path="url(#clip470)" style="stroke:#333333; stroke-linecap:butt; stroke-linejoin:round; stroke-width:4; stroke-opacity:1; fill:none" points="
  733.915,1486.45 733.915,1505.35 
  "/>
<polyline clip-path="url(#clip470)" style="stroke:#333333; stroke-linecap:butt; stroke-linejoin:round; stroke-width:4; stroke-opacity:1; fill:none" points="
  1220.82,1486.45 1220.82,1505.35 
  "/>
<polyline clip-path="url(#clip470)" style="stroke:#333333; stroke-linecap:butt; stroke-linejoin:round; stroke-width:4; stroke-opacity:1; fill:none" points="
  1707.73,1486.45 1707.73,1505.35 
  "/>
<polyline clip-path="url(#clip470)" style="stroke:#333333; stroke-linecap:butt; stroke-linejoin:round; stroke-width:4; stroke-opacity:1; fill:none" points="
  2194.64,1486.45 2194.64,1505.35 
  "/>
<polyline clip-path="url(#clip470)" style="stroke:#333333; stroke-linecap:butt; stroke-linejoin:round; stroke-width:4; stroke-opacity:1; fill:none" points="
  490.46,1486.45 490.46,1495.9 
  "/>
<polyline clip-path="url(#clip470)" style="stroke:#333333; stroke-linecap:butt; stroke-linejoin:round; stroke-width:4; stroke-opacity:1; fill:none" points="
  977.369,1486.45 977.369,1495.9 
  "/>
<polyline clip-path="url(#clip470)" style="stroke:#333333; stroke-linecap:butt; stroke-linejoin:round; stroke-width:4; stroke-opacity:1; fill:none" points="
  1464.28,1486.45 1464.28,1495.9 
  "/>
<polyline clip-path="url(#clip470)" style="stroke:#333333; stroke-linecap:butt; stroke-linejoin:round; stroke-width:4; stroke-opacity:1; fill:none" points="
  1951.19,1486.45 1951.19,1495.9 
  "/>
<path clip-path="url(#clip470)" d="M247.005 1526.97 Q243.394 1526.97 241.565 1530.53 Q239.76 1534.07 239.76 1541.2 Q239.76 1548.31 241.565 1551.87 Q243.394 1555.42 247.005 1555.42 Q250.639 1555.42 252.445 1551.87 Q254.274 1548.31 254.274 1541.2 Q254.274 1534.07 252.445 1530.53 Q250.639 1526.97 247.005 1526.97 M247.005 1523.26 Q252.815 1523.26 255.871 1527.87 Q258.95 1532.45 258.95 1541.2 Q258.95 1549.93 255.871 1554.54 Q252.815 1559.12 247.005 1559.12 Q241.195 1559.12 238.116 1554.54 Q235.061 1549.93 235.061 1541.2 Q235.061 1532.45 238.116 1527.87 Q241.195 1523.26 247.005 1523.26 Z" fill="#4c4c4c" fill-rule="evenodd" fill-opacity="1" /><path clip-path="url(#clip470)" d="M724.192 1523.89 L742.549 1523.89 L742.549 1527.82 L728.475 1527.82 L728.475 1536.3 Q729.493 1535.95 730.512 1535.79 Q731.53 1535.6 732.549 1535.6 Q738.336 1535.6 741.716 1538.77 Q745.095 1541.94 745.095 1547.36 Q745.095 1552.94 741.623 1556.04 Q738.151 1559.12 731.831 1559.12 Q729.655 1559.12 727.387 1558.75 Q725.142 1558.38 722.734 1557.64 L722.734 1552.94 Q724.817 1554.07 727.04 1554.63 Q729.262 1555.18 731.739 1555.18 Q735.743 1555.18 738.081 1553.08 Q740.419 1550.97 740.419 1547.36 Q740.419 1543.75 738.081 1541.64 Q735.743 1539.54 731.739 1539.54 Q729.864 1539.54 727.989 1539.95 Q726.137 1540.37 724.192 1541.25 L724.192 1523.89 Z" fill="#4c4c4c" fill-rule="evenodd" fill-opacity="1" /><path clip-path="url(#clip470)" d="M1195.51 1554.51 L1203.15 1554.51 L1203.15 1528.15 L1194.84 1529.81 L1194.84 1525.55 L1203.1 1523.89 L1207.78 1523.89 L1207.78 1554.51 L1215.42 1554.51 L1215.42 1558.45 L1195.51 1558.45 L1195.51 1554.51 Z" fill="#4c4c4c" fill-rule="evenodd" fill-opacity="1" /><path clip-path="url(#clip470)" d="M1234.86 1526.97 Q1231.25 1526.97 1229.42 1530.53 Q1227.62 1534.07 1227.62 1541.2 Q1227.62 1548.31 1229.42 1551.87 Q1231.25 1555.42 1234.86 1555.42 Q1238.5 1555.42 1240.3 1551.87 Q1242.13 1548.31 1242.13 1541.2 Q1242.13 1534.07 1240.3 1530.53 Q1238.5 1526.97 1234.86 1526.97 M1234.86 1523.26 Q1240.67 1523.26 1243.73 1527.87 Q1246.81 1532.45 1246.81 1541.2 Q1246.81 1549.93 1243.73 1554.54 Q1240.67 1559.12 1234.86 1559.12 Q1229.05 1559.12 1225.97 1554.54 Q1222.92 1549.93 1222.92 1541.2 Q1222.92 1532.45 1225.97 1527.87 Q1229.05 1523.26 1234.86 1523.26 Z" fill="#4c4c4c" fill-rule="evenodd" fill-opacity="1" /><path clip-path="url(#clip470)" d="M1682.92 1554.51 L1690.56 1554.51 L1690.56 1528.15 L1682.25 1529.81 L1682.25 1525.55 L1690.51 1523.89 L1695.19 1523.89 L1695.19 1554.51 L1702.83 1554.51 L1702.83 1558.45 L1682.92 1558.45 L1682.92 1554.51 Z" fill="#4c4c4c" fill-rule="evenodd" fill-opacity="1" /><path clip-path="url(#clip470)" d="M1712.32 1523.89 L1730.67 1523.89 L1730.67 1527.82 L1716.6 1527.82 L1716.6 1536.3 Q1717.62 1535.95 1718.64 1535.79 Q1719.65 1535.6 1720.67 1535.6 Q1726.46 1535.6 1729.84 1538.77 Q1733.22 1541.94 1733.22 1547.36 Q1733.22 1552.94 1729.75 1556.04 Q1726.27 1559.12 1719.96 1559.12 Q1717.78 1559.12 1715.51 1558.75 Q1713.27 1558.38 1710.86 1557.64 L1710.86 1552.94 Q1712.94 1554.07 1715.16 1554.63 Q1717.39 1555.18 1719.86 1555.18 Q1723.87 1555.18 1726.21 1553.08 Q1728.54 1550.97 1728.54 1547.36 Q1728.54 1543.75 1726.21 1541.64 Q1723.87 1539.54 1719.86 1539.54 Q1717.99 1539.54 1716.11 1539.95 Q1714.26 1540.37 1712.32 1541.25 L1712.32 1523.89 Z" fill="#4c4c4c" fill-rule="evenodd" fill-opacity="1" /><path clip-path="url(#clip470)" d="M2173.42 1554.51 L2189.74 1554.51 L2189.74 1558.45 L2167.79 1558.45 L2167.79 1554.51 Q2170.45 1551.76 2175.04 1547.13 Q2179.64 1542.48 2180.82 1541.13 Q2183.07 1538.61 2183.95 1536.87 Q2184.85 1535.11 2184.85 1533.42 Q2184.85 1530.67 2182.91 1528.93 Q2180.99 1527.2 2177.88 1527.2 Q2175.68 1527.2 2173.23 1527.96 Q2170.8 1528.73 2168.02 1530.28 L2168.02 1525.55 Q2170.85 1524.42 2173.3 1523.84 Q2175.75 1523.26 2177.79 1523.26 Q2183.16 1523.26 2186.36 1525.95 Q2189.55 1528.63 2189.55 1533.12 Q2189.55 1535.25 2188.74 1537.17 Q2187.95 1539.07 2185.85 1541.67 Q2185.27 1542.34 2182.17 1545.55 Q2179.06 1548.75 2173.42 1554.51 Z" fill="#4c4c4c" fill-rule="evenodd" fill-opacity="1" /><path clip-path="url(#clip470)" d="M2209.55 1526.97 Q2205.94 1526.97 2204.11 1530.53 Q2202.3 1534.07 2202.3 1541.2 Q2202.3 1548.31 2204.11 1551.87 Q2205.94 1555.42 2209.55 1555.42 Q2213.18 1555.42 2214.99 1551.87 Q2216.82 1548.31 2216.82 1541.2 Q2216.82 1534.07 2214.99 1530.53 Q2213.18 1526.97 2209.55 1526.97 M2209.55 1523.26 Q2215.36 1523.26 2218.42 1527.87 Q2221.49 1532.45 2221.49 1541.2 Q2221.49 1549.93 2218.42 1554.54 Q2215.36 1559.12 2209.55 1559.12 Q2203.74 1559.12 2200.66 1554.54 Q2197.61 1549.93 2197.61 1541.2 Q2197.61 1532.45 2200.66 1527.87 Q2203.74 1523.26 2209.55 1523.26 Z" fill="#4c4c4c" fill-rule="evenodd" fill-opacity="1" /><polyline clip-path="url(#clip472)" style="stroke:#ffffff; stroke-linecap:butt; stroke-linejoin:round; stroke-width:4; stroke-opacity:1; fill:none" points="
  186.274,1448.61 2352.76,1448.61 
  "/>
<polyline clip-path="url(#clip472)" style="stroke:#ffffff; stroke-linecap:butt; stroke-linejoin:round; stroke-width:4; stroke-opacity:1; fill:none" points="
  186.274,1132.26 2352.76,1132.26 
  "/>
<polyline clip-path="url(#clip472)" style="stroke:#ffffff; stroke-linecap:butt; stroke-linejoin:round; stroke-width:4; stroke-opacity:1; fill:none" points="
  186.274,815.914 2352.76,815.914 
  "/>
<polyline clip-path="url(#clip472)" style="stroke:#ffffff; stroke-linecap:butt; stroke-linejoin:round; stroke-width:4; stroke-opacity:1; fill:none" points="
  186.274,499.567 2352.76,499.567 
  "/>
<polyline clip-path="url(#clip472)" style="stroke:#ffffff; stroke-linecap:butt; stroke-linejoin:round; stroke-width:4; stroke-opacity:1; fill:none" points="
  186.274,183.221 2352.76,183.221 
  "/>
<polyline clip-path="url(#clip472)" style="stroke:#ffffff; stroke-linecap:butt; stroke-linejoin:round; stroke-width:2; stroke-opacity:1; fill:none" points="
  186.274,1290.43 2352.76,1290.43 
  "/>
<polyline clip-path="url(#clip472)" style="stroke:#ffffff; stroke-linecap:butt; stroke-linejoin:round; stroke-width:2; stroke-opacity:1; fill:none" points="
  186.274,974.087 2352.76,974.087 
  "/>
<polyline clip-path="url(#clip472)" style="stroke:#ffffff; stroke-linecap:butt; stroke-linejoin:round; stroke-width:2; stroke-opacity:1; fill:none" points="
  186.274,657.74 2352.76,657.74 
  "/>
<polyline clip-path="url(#clip472)" style="stroke:#ffffff; stroke-linecap:butt; stroke-linejoin:round; stroke-width:2; stroke-opacity:1; fill:none" points="
  186.274,341.394 2352.76,341.394 
  "/>
<polyline clip-path="url(#clip470)" style="stroke:#ffffff; stroke-linecap:butt; stroke-linejoin:round; stroke-width:4; stroke-opacity:1; fill:none" points="
  186.274,1486.45 186.274,149.392 
  "/>
<polyline clip-path="url(#clip470)" style="stroke:#333333; stroke-linecap:butt; stroke-linejoin:round; stroke-width:4; stroke-opacity:1; fill:none" points="
  186.274,1448.61 167.376,1448.61 
  "/>
<polyline clip-path="url(#clip470)" style="stroke:#333333; stroke-linecap:butt; stroke-linejoin:round; stroke-width:4; stroke-opacity:1; fill:none" points="
  186.274,1132.26 167.376,1132.26 
  "/>
<polyline clip-path="url(#clip470)" style="stroke:#333333; stroke-linecap:butt; stroke-linejoin:round; stroke-width:4; stroke-opacity:1; fill:none" points="
  186.274,815.914 167.376,815.914 
  "/>
<polyline clip-path="url(#clip470)" style="stroke:#333333; stroke-linecap:butt; stroke-linejoin:round; stroke-width:4; stroke-opacity:1; fill:none" points="
  186.274,499.567 167.376,499.567 
  "/>
<polyline clip-path="url(#clip470)" style="stroke:#333333; stroke-linecap:butt; stroke-linejoin:round; stroke-width:4; stroke-opacity:1; fill:none" points="
  186.274,183.221 167.376,183.221 
  "/>
<polyline clip-path="url(#clip470)" style="stroke:#333333; stroke-linecap:butt; stroke-linejoin:round; stroke-width:4; stroke-opacity:1; fill:none" points="
  186.274,1290.43 176.825,1290.43 
  "/>
<polyline clip-path="url(#clip470)" style="stroke:#333333; stroke-linecap:butt; stroke-linejoin:round; stroke-width:4; stroke-opacity:1; fill:none" points="
  186.274,974.087 176.825,974.087 
  "/>
<polyline clip-path="url(#clip470)" style="stroke:#333333; stroke-linecap:butt; stroke-linejoin:round; stroke-width:4; stroke-opacity:1; fill:none" points="
  186.274,657.74 176.825,657.74 
  "/>
<polyline clip-path="url(#clip470)" style="stroke:#333333; stroke-linecap:butt; stroke-linejoin:round; stroke-width:4; stroke-opacity:1; fill:none" points="
  186.274,341.394 176.825,341.394 
  "/>
<path clip-path="url(#clip470)" d="M44.9365 1434.41 Q41.3254 1434.41 39.4967 1437.97 Q37.6912 1441.51 37.6912 1448.64 Q37.6912 1455.75 39.4967 1459.31 Q41.3254 1462.85 44.9365 1462.85 Q48.5707 1462.85 50.3763 1459.31 Q52.205 1455.75 52.205 1448.64 Q52.205 1441.51 50.3763 1437.97 Q48.5707 1434.41 44.9365 1434.41 M44.9365 1430.7 Q50.7467 1430.7 53.8022 1435.31 Q56.8809 1439.89 56.8809 1448.64 Q56.8809 1457.37 53.8022 1461.97 Q50.7467 1466.56 44.9365 1466.56 Q39.1264 1466.56 36.0477 1461.97 Q32.9921 1457.37 32.9921 1448.64 Q32.9921 1439.89 36.0477 1435.31 Q39.1264 1430.7 44.9365 1430.7 Z" fill="#4c4c4c" fill-rule="evenodd" fill-opacity="1" /><path clip-path="url(#clip470)" d="M65.0984 1460.01 L69.9827 1460.01 L69.9827 1465.89 L65.0984 1465.89 L65.0984 1460.01 Z" fill="#4c4c4c" fill-rule="evenodd" fill-opacity="1" /><path clip-path="url(#clip470)" d="M90.1677 1434.41 Q86.5567 1434.41 84.728 1437.97 Q82.9224 1441.51 82.9224 1448.64 Q82.9224 1455.75 84.728 1459.31 Q86.5567 1462.85 90.1677 1462.85 Q93.802 1462.85 95.6075 1459.31 Q97.4362 1455.75 97.4362 1448.64 Q97.4362 1441.51 95.6075 1437.97 Q93.802 1434.41 90.1677 1434.41 M90.1677 1430.7 Q95.9779 1430.7 99.0334 1435.31 Q102.112 1439.89 102.112 1448.64 Q102.112 1457.37 99.0334 1461.97 Q95.9779 1466.56 90.1677 1466.56 Q84.3576 1466.56 81.2789 1461.97 Q78.2234 1457.37 78.2234 1448.64 Q78.2234 1439.89 81.2789 1435.31 Q84.3576 1430.7 90.1677 1430.7 Z" fill="#4c4c4c" fill-rule="evenodd" fill-opacity="1" /><path clip-path="url(#clip470)" d="M120.33 1434.41 Q116.719 1434.41 114.89 1437.97 Q113.084 1441.51 113.084 1448.64 Q113.084 1455.75 114.89 1459.31 Q116.719 1462.85 120.33 1462.85 Q123.964 1462.85 125.769 1459.31 Q127.598 1455.75 127.598 1448.64 Q127.598 1441.51 125.769 1437.97 Q123.964 1434.41 120.33 1434.41 M120.33 1430.7 Q126.14 1430.7 129.195 1435.31 Q132.274 1439.89 132.274 1448.64 Q132.274 1457.37 129.195 1461.97 Q126.14 1466.56 120.33 1466.56 Q114.519 1466.56 111.441 1461.97 Q108.385 1457.37 108.385 1448.64 Q108.385 1439.89 111.441 1435.31 Q114.519 1430.7 120.33 1430.7 Z" fill="#4c4c4c" fill-rule="evenodd" fill-opacity="1" /><path clip-path="url(#clip470)" d="M45.9319 1118.06 Q42.3208 1118.06 40.4921 1121.62 Q38.6865 1125.17 38.6865 1132.29 Q38.6865 1139.4 40.4921 1142.97 Q42.3208 1146.51 45.9319 1146.51 Q49.5661 1146.51 51.3717 1142.97 Q53.2004 1139.4 53.2004 1132.29 Q53.2004 1125.17 51.3717 1121.62 Q49.5661 1118.06 45.9319 1118.06 M45.9319 1114.36 Q51.742 1114.36 54.7976 1118.96 Q57.8763 1123.54 57.8763 1132.29 Q57.8763 1141.02 54.7976 1145.63 Q51.742 1150.21 45.9319 1150.21 Q40.1217 1150.21 37.043 1145.63 Q33.9875 1141.02 33.9875 1132.29 Q33.9875 1123.54 37.043 1118.96 Q40.1217 1114.36 45.9319 1114.36 Z" fill="#4c4c4c" fill-rule="evenodd" fill-opacity="1" /><path clip-path="url(#clip470)" d="M66.0938 1143.66 L70.978 1143.66 L70.978 1149.54 L66.0938 1149.54 L66.0938 1143.66 Z" fill="#4c4c4c" fill-rule="evenodd" fill-opacity="1" /><path clip-path="url(#clip470)" d="M85.1909 1145.6 L101.51 1145.6 L101.51 1149.54 L79.566 1149.54 L79.566 1145.6 Q82.228 1142.85 86.8113 1138.22 Q91.4177 1133.57 92.5983 1132.23 Q94.8436 1129.7 95.7233 1127.97 Q96.626 1126.21 96.626 1124.52 Q96.626 1121.76 94.6816 1120.03 Q92.7603 1118.29 89.6585 1118.29 Q87.4594 1118.29 85.0057 1119.05 Q82.5752 1119.82 79.7974 1121.37 L79.7974 1116.65 Q82.6215 1115.51 85.0752 1114.93 Q87.5289 1114.36 89.5659 1114.36 Q94.9362 1114.36 98.1307 1117.04 Q101.325 1119.73 101.325 1124.22 Q101.325 1126.35 100.515 1128.27 Q99.7279 1130.17 97.6214 1132.76 Q97.0427 1133.43 93.9409 1136.65 Q90.839 1139.84 85.1909 1145.6 Z" fill="#4c4c4c" fill-rule="evenodd" fill-opacity="1" /><path clip-path="url(#clip470)" d="M111.371 1114.98 L129.728 1114.98 L129.728 1118.92 L115.654 1118.92 L115.654 1127.39 Q116.672 1127.04 117.691 1126.88 Q118.709 1126.69 119.728 1126.69 Q125.515 1126.69 128.894 1129.86 Q132.274 1133.04 132.274 1138.45 Q132.274 1144.03 128.802 1147.13 Q125.33 1150.21 119.01 1150.21 Q116.834 1150.21 114.566 1149.84 Q112.32 1149.47 109.913 1148.73 L109.913 1144.03 Q111.996 1145.17 114.219 1145.72 Q116.441 1146.28 118.918 1146.28 Q122.922 1146.28 125.26 1144.17 Q127.598 1142.06 127.598 1138.45 Q127.598 1134.84 125.26 1132.73 Q122.922 1130.63 118.918 1130.63 Q117.043 1130.63 115.168 1131.04 Q113.316 1131.46 111.371 1132.34 L111.371 1114.98 Z" fill="#4c4c4c" fill-rule="evenodd" fill-opacity="1" /><path clip-path="url(#clip470)" d="M44.9365 801.712 Q41.3254 801.712 39.4967 805.277 Q37.6912 808.819 37.6912 815.948 Q37.6912 823.055 39.4967 826.62 Q41.3254 830.161 44.9365 830.161 Q48.5707 830.161 50.3763 826.62 Q52.205 823.055 52.205 815.948 Q52.205 808.819 50.3763 805.277 Q48.5707 801.712 44.9365 801.712 M44.9365 798.009 Q50.7467 798.009 53.8022 802.615 Q56.8809 807.198 56.8809 815.948 Q56.8809 824.675 53.8022 829.282 Q50.7467 833.865 44.9365 833.865 Q39.1264 833.865 36.0477 829.282 Q32.9921 824.675 32.9921 815.948 Q32.9921 807.198 36.0477 802.615 Q39.1264 798.009 44.9365 798.009 Z" fill="#4c4c4c" fill-rule="evenodd" fill-opacity="1" /><path clip-path="url(#clip470)" d="M65.0984 827.314 L69.9827 827.314 L69.9827 833.194 L65.0984 833.194 L65.0984 827.314 Z" fill="#4c4c4c" fill-rule="evenodd" fill-opacity="1" /><path clip-path="url(#clip470)" d="M80.2141 798.634 L98.5705 798.634 L98.5705 802.569 L84.4965 802.569 L84.4965 811.041 Q85.515 810.694 86.5335 810.532 Q87.552 810.346 88.5705 810.346 Q94.3575 810.346 97.7371 813.518 Q101.117 816.689 101.117 822.106 Q101.117 827.684 97.6446 830.786 Q94.1724 833.865 87.8529 833.865 Q85.677 833.865 83.4085 833.495 Q81.1632 833.124 78.7558 832.383 L78.7558 827.684 Q80.8391 828.819 83.0613 829.374 Q85.2835 829.93 87.7604 829.93 Q91.765 829.93 94.1029 827.823 Q96.4409 825.717 96.4409 822.106 Q96.4409 818.495 94.1029 816.388 Q91.765 814.282 87.7604 814.282 Q85.8854 814.282 84.0104 814.698 Q82.1585 815.115 80.2141 815.995 L80.2141 798.634 Z" fill="#4c4c4c" fill-rule="evenodd" fill-opacity="1" /><path clip-path="url(#clip470)" d="M120.33 801.712 Q116.719 801.712 114.89 805.277 Q113.084 808.819 113.084 815.948 Q113.084 823.055 114.89 826.62 Q116.719 830.161 120.33 830.161 Q123.964 830.161 125.769 826.62 Q127.598 823.055 127.598 815.948 Q127.598 808.819 125.769 805.277 Q123.964 801.712 120.33 801.712 M120.33 798.009 Q126.14 798.009 129.195 802.615 Q132.274 807.198 132.274 815.948 Q132.274 824.675 129.195 829.282 Q126.14 833.865 120.33 833.865 Q114.519 833.865 111.441 829.282 Q108.385 824.675 108.385 815.948 Q108.385 807.198 111.441 802.615 Q114.519 798.009 120.33 798.009 Z" fill="#4c4c4c" fill-rule="evenodd" fill-opacity="1" /><path clip-path="url(#clip470)" d="M45.9319 485.366 Q42.3208 485.366 40.4921 488.931 Q38.6865 492.472 38.6865 499.602 Q38.6865 506.708 40.4921 510.273 Q42.3208 513.815 45.9319 513.815 Q49.5661 513.815 51.3717 510.273 Q53.2004 506.708 53.2004 499.602 Q53.2004 492.472 51.3717 488.931 Q49.5661 485.366 45.9319 485.366 M45.9319 481.662 Q51.742 481.662 54.7976 486.269 Q57.8763 490.852 57.8763 499.602 Q57.8763 508.329 54.7976 512.935 Q51.742 517.518 45.9319 517.518 Q40.1217 517.518 37.043 512.935 Q33.9875 508.329 33.9875 499.602 Q33.9875 490.852 37.043 486.269 Q40.1217 481.662 45.9319 481.662 Z" fill="#4c4c4c" fill-rule="evenodd" fill-opacity="1" /><path clip-path="url(#clip470)" d="M66.0938 510.967 L70.978 510.967 L70.978 516.847 L66.0938 516.847 L66.0938 510.967 Z" fill="#4c4c4c" fill-rule="evenodd" fill-opacity="1" /><path clip-path="url(#clip470)" d="M79.9826 482.287 L102.205 482.287 L102.205 484.278 L89.6585 516.847 L84.7743 516.847 L96.5797 486.222 L79.9826 486.222 L79.9826 482.287 Z" fill="#4c4c4c" fill-rule="evenodd" fill-opacity="1" /><path clip-path="url(#clip470)" d="M111.371 482.287 L129.728 482.287 L129.728 486.222 L115.654 486.222 L115.654 494.694 Q116.672 494.347 117.691 494.185 Q118.709 494 119.728 494 Q125.515 494 128.894 497.171 Q132.274 500.343 132.274 505.759 Q132.274 511.338 128.802 514.44 Q125.33 517.518 119.01 517.518 Q116.834 517.518 114.566 517.148 Q112.32 516.778 109.913 516.037 L109.913 511.338 Q111.996 512.472 114.219 513.028 Q116.441 513.583 118.918 513.583 Q122.922 513.583 125.26 511.477 Q127.598 509.37 127.598 505.759 Q127.598 502.148 125.26 500.042 Q122.922 497.935 118.918 497.935 Q117.043 497.935 115.168 498.352 Q113.316 498.768 111.371 499.648 L111.371 482.287 Z" fill="#4c4c4c" fill-rule="evenodd" fill-opacity="1" /><path clip-path="url(#clip470)" d="M35.7467 196.565 L43.3856 196.565 L43.3856 170.2 L35.0754 171.866 L35.0754 167.607 L43.3393 165.941 L48.0152 165.941 L48.0152 196.565 L55.654 196.565 L55.654 200.501 L35.7467 200.501 L35.7467 196.565 Z" fill="#4c4c4c" fill-rule="evenodd" fill-opacity="1" /><path clip-path="url(#clip470)" d="M65.0984 194.621 L69.9827 194.621 L69.9827 200.501 L65.0984 200.501 L65.0984 194.621 Z" fill="#4c4c4c" fill-rule="evenodd" fill-opacity="1" /><path clip-path="url(#clip470)" d="M90.1677 169.019 Q86.5567 169.019 84.728 172.584 Q82.9224 176.126 82.9224 183.255 Q82.9224 190.362 84.728 193.926 Q86.5567 197.468 90.1677 197.468 Q93.802 197.468 95.6075 193.926 Q97.4362 190.362 97.4362 183.255 Q97.4362 176.126 95.6075 172.584 Q93.802 169.019 90.1677 169.019 M90.1677 165.316 Q95.9779 165.316 99.0334 169.922 Q102.112 174.505 102.112 183.255 Q102.112 191.982 99.0334 196.589 Q95.9779 201.172 90.1677 201.172 Q84.3576 201.172 81.2789 196.589 Q78.2234 191.982 78.2234 183.255 Q78.2234 174.505 81.2789 169.922 Q84.3576 165.316 90.1677 165.316 Z" fill="#4c4c4c" fill-rule="evenodd" fill-opacity="1" /><path clip-path="url(#clip470)" d="M120.33 169.019 Q116.719 169.019 114.89 172.584 Q113.084 176.126 113.084 183.255 Q113.084 190.362 114.89 193.926 Q116.719 197.468 120.33 197.468 Q123.964 197.468 125.769 193.926 Q127.598 190.362 127.598 183.255 Q127.598 176.126 125.769 172.584 Q123.964 169.019 120.33 169.019 M120.33 165.316 Q126.14 165.316 129.195 169.922 Q132.274 174.505 132.274 183.255 Q132.274 191.982 129.195 196.589 Q126.14 201.172 120.33 201.172 Q114.519 201.172 111.441 196.589 Q108.385 191.982 108.385 183.255 Q108.385 174.505 111.441 169.922 Q114.519 165.316 120.33 165.316 Z" fill="#4c4c4c" fill-rule="evenodd" fill-opacity="1" /><path clip-path="url(#clip470)" d="M436.244 19.44 L461.07 19.44 L461.07 24.359 L442.089 24.359 L442.089 37.0904 L459.218 37.0904 L459.218 42.0093 L442.089 42.0093 L442.089 62.64 L436.244 62.64 L436.244 19.44 Z" fill="#000000" fill-rule="evenodd" fill-opacity="1" /><path clip-path="url(#clip470)" d="M466.307 49.8507 L466.307 30.2328 L471.631 30.2328 L471.631 49.6482 Q471.631 54.2488 473.425 56.5636 Q475.219 58.8495 478.807 58.8495 Q483.119 58.8495 485.607 56.1007 Q488.124 53.3519 488.124 48.6065 L488.124 30.2328 L493.449 30.2328 L493.449 62.64 L488.124 62.64 L488.124 57.6632 Q486.186 60.6145 483.611 62.0613 Q481.064 63.4791 477.679 63.4791 Q472.094 63.4791 469.201 60.0069 Q466.307 56.5347 466.307 49.8507 M479.704 29.4515 L479.704 29.4515 Z" fill="#000000" fill-rule="evenodd" fill-opacity="1" /><path clip-path="url(#clip470)" d="M531.353 43.0799 L531.353 62.64 L526.029 62.64 L526.029 43.2535 Q526.029 38.6529 524.235 36.367 Q522.441 34.0811 518.853 34.0811 Q514.542 34.0811 512.054 36.83 Q509.565 39.5788 509.565 44.3241 L509.565 62.64 L504.212 62.64 L504.212 30.2328 L509.565 30.2328 L509.565 35.2675 Q511.475 32.345 514.05 30.8983 Q516.654 29.4515 520.04 29.4515 Q525.624 29.4515 528.489 32.9237 Q531.353 36.367 531.353 43.0799 Z" fill="#000000" fill-rule="evenodd" fill-opacity="1" /><path clip-path="url(#clip470)" d="M565.294 31.477 L565.294 36.4538 Q563.037 35.2096 560.751 34.602 Q558.494 33.9654 556.18 33.9654 Q551 33.9654 548.136 37.264 Q545.271 40.5336 545.271 46.4653 Q545.271 52.397 548.136 55.6956 Q551 58.9653 556.18 58.9653 Q558.494 58.9653 560.751 58.3576 Q563.037 57.721 565.294 56.4768 L565.294 61.3958 Q563.066 62.4375 560.665 62.9583 Q558.292 63.4791 555.601 63.4791 Q548.28 63.4791 543.969 58.8784 Q539.658 54.2778 539.658 46.4653 Q539.658 38.5371 543.998 33.9943 Q548.367 29.4515 555.948 29.4515 Q558.408 29.4515 560.751 29.9724 Q563.095 30.4642 565.294 31.477 M557.771 62.64 Q559.363 64.434 560.144 65.9386 Q560.925 67.4722 560.925 68.861 Q560.925 71.4362 559.189 72.7383 Q557.453 74.0693 554.038 74.0693 Q552.707 74.0693 551.434 73.8957 Q550.19 73.7221 548.946 73.3749 L548.946 69.5844 Q549.93 70.0763 551 70.2788 Q552.071 70.5103 553.431 70.5103 Q555.138 70.5103 556.006 69.8159 Q556.874 69.1214 556.874 67.7904 Q556.874 66.9224 556.238 65.6492 Q555.63 64.405 554.328 62.64 L557.771 62.64 Z" fill="#000000" fill-rule="evenodd" fill-opacity="1" /><path clip-path="url(#clip470)" d="M589.281 46.3496 Q582.829 46.3496 580.34 47.8253 Q577.852 49.301 577.852 52.86 Q577.852 55.6956 579.704 57.3738 Q581.585 59.0231 584.796 59.0231 Q589.223 59.0231 591.885 55.8981 Q594.576 52.7442 594.576 47.5359 L594.576 46.3496 L589.281 46.3496 M599.9 44.1505 L599.9 62.64 L594.576 62.64 L594.576 57.721 Q592.754 60.6724 590.034 62.0902 Q587.314 63.4791 583.379 63.4791 Q578.402 63.4791 575.45 60.7014 Q572.528 57.8947 572.528 53.2072 Q572.528 47.7385 576.174 44.9607 Q579.849 42.1829 587.111 42.1829 L594.576 42.1829 L594.576 41.6621 Q594.576 37.9874 592.146 35.9908 Q589.744 33.9654 585.375 33.9654 Q582.597 33.9654 579.964 34.6309 Q577.331 35.2964 574.901 36.6274 L574.901 31.7085 Q577.823 30.58 580.572 30.0302 Q583.321 29.4515 585.925 29.4515 Q592.956 29.4515 596.428 33.0973 Q599.9 36.7431 599.9 44.1505 M586.041 22.999 L584.391 21.4076 Q583.755 20.8289 583.263 20.5685 Q582.8 20.2791 582.424 20.2791 Q581.324 20.2791 580.803 21.3497 Q580.283 22.3914 580.225 24.764 L576.608 24.764 Q576.666 20.8578 578.141 18.7456 Q579.617 16.6044 582.25 16.6044 Q583.35 16.6044 584.276 17.0095 Q585.201 17.4145 586.272 18.3694 L587.921 19.9608 Q588.558 20.5395 589.021 20.8289 Q589.513 21.0893 589.889 21.0893 Q590.988 21.0893 591.509 20.0476 Q592.03 18.977 592.088 16.6044 L595.705 16.6044 Q595.647 20.5106 594.171 22.6518 Q592.696 24.764 590.063 24.764 Q588.963 24.764 588.037 24.359 Q587.111 23.9539 586.041 22.999 Z" fill="#000000" fill-rule="evenodd" fill-opacity="1" /><path clip-path="url(#clip470)" d="M623.425 33.9654 Q619.142 33.9654 616.654 37.3218 Q614.165 40.6494 614.165 46.4653 Q614.165 52.2813 616.625 55.6377 Q619.113 58.9653 623.425 58.9653 Q627.678 58.9653 630.167 55.6088 Q632.655 52.2523 632.655 46.4653 Q632.655 40.7072 630.167 37.3508 Q627.678 33.9654 623.425 33.9654 M623.425 29.4515 Q630.369 29.4515 634.333 33.9654 Q638.297 38.4792 638.297 46.4653 Q638.297 54.4225 634.333 58.9653 Q630.369 63.4791 623.425 63.4791 Q616.451 63.4791 612.487 58.9653 Q608.552 54.4225 608.552 46.4653 Q608.552 38.4792 612.487 33.9654 Q616.451 29.4515 623.425 29.4515 Z" fill="#000000" fill-rule="evenodd" fill-opacity="1" /><path clip-path="url(#clip470)" d="M687.284 35.1517 L687.284 17.6171 L692.608 17.6171 L692.608 62.64 L687.284 62.64 L687.284 57.7789 Q685.606 60.6724 683.031 62.0902 Q680.485 63.4791 676.897 63.4791 Q671.023 63.4791 667.319 58.7916 Q663.644 54.1042 663.644 46.4653 Q663.644 38.8265 667.319 34.139 Q671.023 29.4515 676.897 29.4515 Q680.485 29.4515 683.031 30.8693 Q685.606 32.2582 687.284 35.1517 M669.142 46.4653 Q669.142 52.3391 671.544 55.6956 Q673.974 59.0231 678.199 59.0231 Q682.423 59.0231 684.854 55.6956 Q687.284 52.3391 687.284 46.4653 Q687.284 40.5915 684.854 37.264 Q682.423 33.9075 678.199 33.9075 Q673.974 33.9075 671.544 37.264 Q669.142 40.5915 669.142 46.4653 Z" fill="#000000" fill-rule="evenodd" fill-opacity="1" /><path clip-path="url(#clip470)" d="M703.575 30.2328 L708.899 30.2328 L708.899 62.64 L703.575 62.64 L703.575 30.2328 M703.575 17.6171 L708.899 17.6171 L708.899 24.359 L703.575 24.359 L703.575 17.6171 Z" fill="#000000" fill-rule="evenodd" fill-opacity="1" /><path clip-path="url(#clip470)" d="M740.698 31.1876 L740.698 36.2223 Q738.441 35.0649 736.011 34.4862 Q733.58 33.9075 730.976 33.9075 Q727.012 33.9075 725.016 35.1228 Q723.048 36.3381 723.048 38.7686 Q723.048 40.6204 724.466 41.691 Q725.884 42.7327 730.166 43.6876 L731.989 44.0926 Q737.66 45.3079 740.033 47.5359 Q742.434 49.735 742.434 53.6991 Q742.434 58.2129 738.847 60.846 Q735.287 63.4791 729.038 63.4791 Q726.433 63.4791 723.598 62.9583 Q720.791 62.4664 717.666 61.4537 L717.666 55.956 Q720.617 57.4896 723.482 58.2708 Q726.347 59.0231 729.153 59.0231 Q732.915 59.0231 734.94 57.75 Q736.966 56.4479 736.966 54.1042 Q736.966 51.934 735.49 50.7766 Q734.043 49.6192 729.095 48.5486 L727.244 48.1146 Q722.296 47.073 720.097 44.9318 Q717.898 42.7616 717.898 39.0001 Q717.898 34.4283 721.138 31.9399 Q724.379 29.4515 730.34 29.4515 Q733.291 29.4515 735.895 29.8855 Q738.499 30.3196 740.698 31.1876 Z" fill="#000000" fill-rule="evenodd" fill-opacity="1" /><path clip-path="url(#clip470)" d="M756.179 21.0314 L756.179 30.2328 L767.145 30.2328 L767.145 34.3705 L756.179 34.3705 L756.179 51.963 Q756.179 55.9271 757.249 57.0555 Q758.349 58.184 761.676 58.184 L767.145 58.184 L767.145 62.64 L761.676 62.64 Q755.513 62.64 753.169 60.3541 Q750.826 58.0393 750.826 51.963 L750.826 34.3705 L746.919 34.3705 L746.919 30.2328 L750.826 30.2328 L750.826 21.0314 L756.179 21.0314 Z" fill="#000000" fill-rule="evenodd" fill-opacity="1" /><path clip-path="url(#clip470)" d="M792.926 35.2096 Q792.029 34.6888 790.958 34.4573 Q789.917 34.1969 788.644 34.1969 Q784.13 34.1969 781.699 37.1482 Q779.298 40.0707 779.298 45.5683 L779.298 62.64 L773.945 62.64 L773.945 30.2328 L779.298 30.2328 L779.298 35.2675 Q780.976 32.3161 783.667 30.8983 Q786.358 29.4515 790.206 29.4515 Q790.756 29.4515 791.421 29.5383 Q792.087 29.5962 792.897 29.7409 L792.926 35.2096 Z" fill="#000000" fill-rule="evenodd" fill-opacity="1" /><path clip-path="url(#clip470)" d="M798.511 30.2328 L803.835 30.2328 L803.835 62.64 L798.511 62.64 L798.511 30.2328 M798.511 17.6171 L803.835 17.6171 L803.835 24.359 L798.511 24.359 L798.511 17.6171 Z" fill="#000000" fill-rule="evenodd" fill-opacity="1" /><path clip-path="url(#clip470)" d="M838.238 46.4653 Q838.238 40.5915 835.808 37.264 Q833.406 33.9075 829.182 33.9075 Q824.957 33.9075 822.527 37.264 Q820.125 40.5915 820.125 46.4653 Q820.125 52.3391 822.527 55.6956 Q824.957 59.0231 829.182 59.0231 Q833.406 59.0231 835.808 55.6956 Q838.238 52.3391 838.238 46.4653 M820.125 35.1517 Q821.803 32.2582 824.35 30.8693 Q826.925 29.4515 830.484 29.4515 Q836.386 29.4515 840.061 34.139 Q843.765 38.8265 843.765 46.4653 Q843.765 54.1042 840.061 58.7916 Q836.386 63.4791 830.484 63.4791 Q826.925 63.4791 824.35 62.0902 Q821.803 60.6724 820.125 57.7789 L820.125 62.64 L814.772 62.64 L814.772 17.6171 L820.125 17.6171 L820.125 35.1517 Z" fill="#000000" fill-rule="evenodd" fill-opacity="1" /><path clip-path="url(#clip470)" d="M852.04 49.8507 L852.04 30.2328 L857.364 30.2328 L857.364 49.6482 Q857.364 54.2488 859.158 56.5636 Q860.952 58.8495 864.54 58.8495 Q868.852 58.8495 871.34 56.1007 Q873.857 53.3519 873.857 48.6065 L873.857 30.2328 L879.181 30.2328 L879.181 62.64 L873.857 62.64 L873.857 57.6632 Q871.919 60.6145 869.343 62.0613 Q866.797 63.4791 863.412 63.4791 Q857.827 63.4791 854.934 60.0069 Q852.04 56.5347 852.04 49.8507 M865.437 29.4515 L865.437 29.4515 Z" fill="#000000" fill-rule="evenodd" fill-opacity="1" /><path clip-path="url(#clip470)" d="M890.148 30.2328 L895.472 30.2328 L895.472 62.64 L890.148 62.64 L890.148 30.2328 M890.148 17.6171 L895.472 17.6171 L895.472 24.359 L890.148 24.359 L890.148 17.6171 Z" fill="#000000" fill-rule="evenodd" fill-opacity="1" /><path clip-path="url(#clip470)" d="M929.933 31.477 L929.933 36.4538 Q927.677 35.2096 925.391 34.602 Q923.134 33.9654 920.819 33.9654 Q915.64 33.9654 912.775 37.264 Q909.91 40.5336 909.91 46.4653 Q909.91 52.397 912.775 55.6956 Q915.64 58.9653 920.819 58.9653 Q923.134 58.9653 925.391 58.3576 Q927.677 57.721 929.933 56.4768 L929.933 61.3958 Q927.705 62.4375 925.304 62.9583 Q922.931 63.4791 920.24 63.4791 Q912.92 63.4791 908.608 58.8784 Q904.297 54.2778 904.297 46.4653 Q904.297 38.5371 908.637 33.9943 Q913.006 29.4515 920.587 29.4515 Q923.047 29.4515 925.391 29.9724 Q927.734 30.4642 929.933 31.477 M922.41 62.64 Q924.002 64.434 924.783 65.9386 Q925.564 67.4722 925.564 68.861 Q925.564 71.4362 923.828 72.7383 Q922.092 74.0693 918.678 74.0693 Q917.347 74.0693 916.074 73.8957 Q914.829 73.7221 913.585 73.3749 L913.585 69.5844 Q914.569 70.0763 915.64 70.2788 Q916.71 70.5103 918.07 70.5103 Q919.777 70.5103 920.645 69.8159 Q921.513 69.1214 921.513 67.7904 Q921.513 66.9224 920.877 65.6492 Q920.269 64.405 918.967 62.64 L922.41 62.64 Z" fill="#000000" fill-rule="evenodd" fill-opacity="1" /><path clip-path="url(#clip470)" d="M953.921 46.3496 Q947.468 46.3496 944.98 47.8253 Q942.491 49.301 942.491 52.86 Q942.491 55.6956 944.343 57.3738 Q946.224 59.0231 949.436 59.0231 Q953.863 59.0231 956.525 55.8981 Q959.216 52.7442 959.216 47.5359 L959.216 46.3496 L953.921 46.3496 M964.54 44.1505 L964.54 62.64 L959.216 62.64 L959.216 57.721 Q957.393 60.6724 954.673 62.0902 Q951.953 63.4791 948.018 63.4791 Q943.041 63.4791 940.09 60.7014 Q937.167 57.8947 937.167 53.2072 Q937.167 47.7385 940.813 44.9607 Q944.488 42.1829 951.75 42.1829 L959.216 42.1829 L959.216 41.6621 Q959.216 37.9874 956.785 35.9908 Q954.384 33.9654 950.014 33.9654 Q947.237 33.9654 944.604 34.6309 Q941.97 35.2964 939.54 36.6274 L939.54 31.7085 Q942.462 30.58 945.211 30.0302 Q947.96 29.4515 950.564 29.4515 Q957.595 29.4515 961.068 33.0973 Q964.54 36.7431 964.54 44.1505 M950.68 22.999 L949.031 21.4076 Q948.394 20.8289 947.902 20.5685 Q947.439 20.2791 947.063 20.2791 Q945.963 20.2791 945.443 21.3497 Q944.922 22.3914 944.864 24.764 L941.247 24.764 Q941.305 20.8578 942.781 18.7456 Q944.256 16.6044 946.889 16.6044 Q947.989 16.6044 948.915 17.0095 Q949.841 17.4145 950.911 18.3694 L952.561 19.9608 Q953.197 20.5395 953.66 20.8289 Q954.152 21.0893 954.528 21.0893 Q955.628 21.0893 956.149 20.0476 Q956.669 18.977 956.727 16.6044 L960.344 16.6044 Q960.286 20.5106 958.811 22.6518 Q957.335 24.764 954.702 24.764 Q953.602 24.764 952.676 24.359 Q951.75 23.9539 950.68 22.999 Z" fill="#000000" fill-rule="evenodd" fill-opacity="1" /><path clip-path="url(#clip470)" d="M988.064 33.9654 Q983.782 33.9654 981.293 37.3218 Q978.805 40.6494 978.805 46.4653 Q978.805 52.2813 981.264 55.6377 Q983.753 58.9653 988.064 58.9653 Q992.317 58.9653 994.806 55.6088 Q997.294 52.2523 997.294 46.4653 Q997.294 40.7072 994.806 37.3508 Q992.317 33.9654 988.064 33.9654 M988.064 29.4515 Q995.008 29.4515 998.972 33.9654 Q1002.94 38.4792 1002.94 46.4653 Q1002.94 54.4225 998.972 58.9653 Q995.008 63.4791 988.064 63.4791 Q981.091 63.4791 977.126 58.9653 Q973.191 54.4225 973.191 46.4653 Q973.191 38.4792 977.126 33.9654 Q981.091 29.4515 988.064 29.4515 Z" fill="#000000" fill-rule="evenodd" fill-opacity="1" /><path clip-path="url(#clip470)" d="M1045.33 46.3496 Q1038.87 46.3496 1036.39 47.8253 Q1033.9 49.301 1033.9 52.86 Q1033.9 55.6956 1035.75 57.3738 Q1037.63 59.0231 1040.84 59.0231 Q1045.27 59.0231 1047.93 55.8981 Q1050.62 52.7442 1050.62 47.5359 L1050.62 46.3496 L1045.33 46.3496 M1055.95 44.1505 L1055.95 62.64 L1050.62 62.64 L1050.62 57.721 Q1048.8 60.6724 1046.08 62.0902 Q1043.36 63.4791 1039.42 63.4791 Q1034.45 63.4791 1031.5 60.7014 Q1028.57 57.8947 1028.57 53.2072 Q1028.57 47.7385 1032.22 44.9607 Q1035.89 42.1829 1043.16 42.1829 L1050.62 42.1829 L1050.62 41.6621 Q1050.62 37.9874 1048.19 35.9908 Q1045.79 33.9654 1041.42 33.9654 Q1038.64 33.9654 1036.01 34.6309 Q1033.38 35.2964 1030.95 36.6274 L1030.95 31.7085 Q1033.87 30.58 1036.62 30.0302 Q1039.37 29.4515 1041.97 29.4515 Q1049 29.4515 1052.47 33.0973 Q1055.95 36.7431 1055.95 44.1505 Z" fill="#000000" fill-rule="evenodd" fill-opacity="1" /><path clip-path="url(#clip470)" d="M1090.23 31.477 L1090.23 36.4538 Q1087.98 35.2096 1085.69 34.602 Q1083.43 33.9654 1081.12 33.9654 Q1075.94 33.9654 1073.08 37.264 Q1070.21 40.5336 1070.21 46.4653 Q1070.21 52.397 1073.08 55.6956 Q1075.94 58.9653 1081.12 58.9653 Q1083.43 58.9653 1085.69 58.3576 Q1087.98 57.721 1090.23 56.4768 L1090.23 61.3958 Q1088.01 62.4375 1085.6 62.9583 Q1083.23 63.4791 1080.54 63.4791 Q1073.22 63.4791 1068.91 58.8784 Q1064.6 54.2778 1064.6 46.4653 Q1064.6 38.5371 1068.94 33.9943 Q1073.31 29.4515 1080.89 29.4515 Q1083.35 29.4515 1085.69 29.9724 Q1088.03 30.4642 1090.23 31.477 Z" fill="#000000" fill-rule="evenodd" fill-opacity="1" /><path clip-path="url(#clip470)" d="M1098.94 49.8507 L1098.94 30.2328 L1104.27 30.2328 L1104.27 49.6482 Q1104.27 54.2488 1106.06 56.5636 Q1107.85 58.8495 1111.44 58.8495 Q1115.75 58.8495 1118.24 56.1007 Q1120.76 53.3519 1120.76 48.6065 L1120.76 30.2328 L1126.08 30.2328 L1126.08 62.64 L1120.76 62.64 L1120.76 57.6632 Q1118.82 60.6145 1116.25 62.0613 Q1113.7 63.4791 1110.31 63.4791 Q1104.73 63.4791 1101.84 60.0069 Q1098.94 56.5347 1098.94 49.8507 M1112.34 29.4515 L1112.34 29.4515 Z" fill="#000000" fill-rule="evenodd" fill-opacity="1" /><path clip-path="url(#clip470)" d="M1162.28 36.4538 Q1164.28 32.8659 1167.06 31.1587 Q1169.83 29.4515 1173.6 29.4515 Q1178.66 29.4515 1181.41 33.0105 Q1184.16 36.5406 1184.16 43.0799 L1184.16 62.64 L1178.8 62.64 L1178.8 43.2535 Q1178.8 38.595 1177.15 36.3381 Q1175.51 34.0811 1172.12 34.0811 Q1167.98 34.0811 1165.58 36.83 Q1163.18 39.5788 1163.18 44.3241 L1163.18 62.64 L1157.83 62.64 L1157.83 43.2535 Q1157.83 38.5661 1156.18 36.3381 Q1154.53 34.0811 1151.08 34.0811 Q1147 34.0811 1144.6 36.8589 Q1142.2 39.6077 1142.2 44.3241 L1142.2 62.64 L1136.85 62.64 L1136.85 30.2328 L1142.2 30.2328 L1142.2 35.2675 Q1144.02 32.2872 1146.57 30.8693 Q1149.12 29.4515 1152.62 29.4515 Q1156.15 29.4515 1158.61 31.2455 Q1161.1 33.0395 1162.28 36.4538 Z" fill="#000000" fill-rule="evenodd" fill-opacity="1" /><path clip-path="url(#clip470)" d="M1194.23 49.8507 L1194.23 30.2328 L1199.55 30.2328 L1199.55 49.6482 Q1199.55 54.2488 1201.34 56.5636 Q1203.14 58.8495 1206.73 58.8495 Q1211.04 58.8495 1213.53 56.1007 Q1216.04 53.3519 1216.04 48.6065 L1216.04 30.2328 L1221.37 30.2328 L1221.37 62.64 L1216.04 62.64 L1216.04 57.6632 Q1214.1 60.6145 1211.53 62.0613 Q1208.98 63.4791 1205.6 63.4791 Q1200.01 63.4791 1197.12 60.0069 Q1194.23 56.5347 1194.23 49.8507 M1207.62 29.4515 L1207.62 29.4515 Z" fill="#000000" fill-rule="evenodd" fill-opacity="1" /><path clip-path="url(#clip470)" d="M1232.33 17.6171 L1237.66 17.6171 L1237.66 62.64 L1232.33 62.64 L1232.33 17.6171 Z" fill="#000000" fill-rule="evenodd" fill-opacity="1" /><path clip-path="url(#clip470)" d="M1263.53 46.3496 Q1257.07 46.3496 1254.58 47.8253 Q1252.1 49.301 1252.1 52.86 Q1252.1 55.6956 1253.95 57.3738 Q1255.83 59.0231 1259.04 59.0231 Q1263.47 59.0231 1266.13 55.8981 Q1268.82 52.7442 1268.82 47.5359 L1268.82 46.3496 L1263.53 46.3496 M1274.14 44.1505 L1274.14 62.64 L1268.82 62.64 L1268.82 57.721 Q1267 60.6724 1264.28 62.0902 Q1261.56 63.4791 1257.62 63.4791 Q1252.65 63.4791 1249.69 60.7014 Q1246.77 57.8947 1246.77 53.2072 Q1246.77 47.7385 1250.42 44.9607 Q1254.09 42.1829 1261.36 42.1829 L1268.82 42.1829 L1268.82 41.6621 Q1268.82 37.9874 1266.39 35.9908 Q1263.99 33.9654 1259.62 33.9654 Q1256.84 33.9654 1254.21 34.6309 Q1251.58 35.2964 1249.14 36.6274 L1249.14 31.7085 Q1252.07 30.58 1254.82 30.0302 Q1257.56 29.4515 1260.17 29.4515 Q1267.2 29.4515 1270.67 33.0973 Q1274.14 36.7431 1274.14 44.1505 Z" fill="#000000" fill-rule="evenodd" fill-opacity="1" /><path clip-path="url(#clip470)" d="M1306.44 35.1517 L1306.44 17.6171 L1311.76 17.6171 L1311.76 62.64 L1306.44 62.64 L1306.44 57.7789 Q1304.76 60.6724 1302.18 62.0902 Q1299.64 63.4791 1296.05 63.4791 Q1290.17 63.4791 1286.47 58.7916 Q1282.8 54.1042 1282.8 46.4653 Q1282.8 38.8265 1286.47 34.139 Q1290.17 29.4515 1296.05 29.4515 Q1299.64 29.4515 1302.18 30.8693 Q1304.76 32.2582 1306.44 35.1517 M1288.29 46.4653 Q1288.29 52.3391 1290.7 55.6956 Q1293.13 59.0231 1297.35 59.0231 Q1301.57 59.0231 1304.01 55.6956 Q1306.44 52.3391 1306.44 46.4653 Q1306.44 40.5915 1304.01 37.264 Q1301.57 33.9075 1297.35 33.9075 Q1293.13 33.9075 1290.7 37.264 Q1288.29 40.5915 1288.29 46.4653 Z" fill="#000000" fill-rule="evenodd" fill-opacity="1" /><path clip-path="url(#clip470)" d="M1337.45 46.3496 Q1331 46.3496 1328.51 47.8253 Q1326.03 49.301 1326.03 52.86 Q1326.03 55.6956 1327.88 57.3738 Q1329.76 59.0231 1332.97 59.0231 Q1337.4 59.0231 1340.06 55.8981 Q1342.75 52.7442 1342.75 47.5359 L1342.75 46.3496 L1337.45 46.3496 M1348.07 44.1505 L1348.07 62.64 L1342.75 62.64 L1342.75 57.721 Q1340.93 60.6724 1338.21 62.0902 Q1335.49 63.4791 1331.55 63.4791 Q1326.57 63.4791 1323.62 60.7014 Q1320.7 57.8947 1320.7 53.2072 Q1320.7 47.7385 1324.35 44.9607 Q1328.02 42.1829 1335.28 42.1829 L1342.75 42.1829 L1342.75 41.6621 Q1342.75 37.9874 1340.32 35.9908 Q1337.92 33.9654 1333.55 33.9654 Q1330.77 33.9654 1328.14 34.6309 Q1325.5 35.2964 1323.07 36.6274 L1323.07 31.7085 Q1326 30.58 1328.74 30.0302 Q1331.49 29.4515 1334.1 29.4515 Q1341.13 29.4515 1344.6 33.0973 Q1348.07 36.7431 1348.07 44.1505 Z" fill="#000000" fill-rule="evenodd" fill-opacity="1" /><path clip-path="url(#clip470)" d="M1399.2 35.1517 L1399.2 17.6171 L1404.53 17.6171 L1404.53 62.64 L1399.2 62.64 L1399.2 57.7789 Q1397.52 60.6724 1394.95 62.0902 Q1392.4 63.4791 1388.81 63.4791 Q1382.94 63.4791 1379.24 58.7916 Q1375.56 54.1042 1375.56 46.4653 Q1375.56 38.8265 1379.24 34.139 Q1382.94 29.4515 1388.81 29.4515 Q1392.4 29.4515 1394.95 30.8693 Q1397.52 32.2582 1399.2 35.1517 M1381.06 46.4653 Q1381.06 52.3391 1383.46 55.6956 Q1385.89 59.0231 1390.12 59.0231 Q1394.34 59.0231 1396.77 55.6956 Q1399.2 52.3391 1399.2 46.4653 Q1399.2 40.5915 1396.77 37.264 Q1394.34 33.9075 1390.12 33.9075 Q1385.89 33.9075 1383.46 37.264 Q1381.06 40.5915 1381.06 46.4653 Z" fill="#000000" fill-rule="evenodd" fill-opacity="1" /><path clip-path="url(#clip470)" d="M1430.22 46.3496 Q1423.77 46.3496 1421.28 47.8253 Q1418.79 49.301 1418.79 52.86 Q1418.79 55.6956 1420.64 57.3738 Q1422.52 59.0231 1425.74 59.0231 Q1430.16 59.0231 1432.82 55.8981 Q1435.52 52.7442 1435.52 47.5359 L1435.52 46.3496 L1430.22 46.3496 M1440.84 44.1505 L1440.84 62.64 L1435.52 62.64 L1435.52 57.721 Q1433.69 60.6724 1430.97 62.0902 Q1428.25 63.4791 1424.32 63.4791 Q1419.34 63.4791 1416.39 60.7014 Q1413.47 57.8947 1413.47 53.2072 Q1413.47 47.7385 1417.11 44.9607 Q1420.79 42.1829 1428.05 42.1829 L1435.52 42.1829 L1435.52 41.6621 Q1435.52 37.9874 1433.08 35.9908 Q1430.68 33.9654 1426.31 33.9654 Q1423.54 33.9654 1420.9 34.6309 Q1418.27 35.2964 1415.84 36.6274 L1415.84 31.7085 Q1418.76 30.58 1421.51 30.0302 Q1424.26 29.4515 1426.86 29.4515 Q1433.89 29.4515 1437.37 33.0973 Q1440.84 36.7431 1440.84 44.1505 Z" fill="#000000" fill-rule="evenodd" fill-opacity="1" /><path clip-path="url(#clip470)" d="M1491.97 46.0602 Q1491.97 40.2732 1489.57 37.0904 Q1487.19 33.9075 1482.88 33.9075 Q1478.6 33.9075 1476.2 37.0904 Q1473.83 40.2732 1473.83 46.0602 Q1473.83 51.8183 1476.2 55.0012 Q1478.6 58.184 1482.88 58.184 Q1487.19 58.184 1489.57 55.0012 Q1491.97 51.8183 1491.97 46.0602 M1497.29 58.618 Q1497.29 66.8934 1493.62 70.9154 Q1489.94 74.9663 1482.36 74.9663 Q1479.55 74.9663 1477.07 74.5323 Q1474.58 74.1272 1472.23 73.2592 L1472.23 68.0798 Q1474.58 69.3529 1476.86 69.9606 Q1479.15 70.5682 1481.52 70.5682 Q1486.76 70.5682 1489.36 67.8194 Q1491.97 65.0995 1491.97 59.5729 L1491.97 56.9398 Q1490.32 59.8044 1487.74 61.2222 Q1485.17 62.64 1481.58 62.64 Q1475.62 62.64 1471.97 58.0972 Q1468.33 53.5544 1468.33 46.0602 Q1468.33 38.5371 1471.97 33.9943 Q1475.62 29.4515 1481.58 29.4515 Q1485.17 29.4515 1487.74 30.8693 Q1490.32 32.2872 1491.97 35.1517 L1491.97 30.2328 L1497.29 30.2328 L1497.29 58.618 Z" fill="#000000" fill-rule="evenodd" fill-opacity="1" /><path clip-path="url(#clip470)" d="M1535.98 45.1054 L1535.98 47.7095 L1511.5 47.7095 Q1511.85 53.2072 1514.8 56.1007 Q1517.78 58.9653 1523.07 58.9653 Q1526.14 58.9653 1529 58.2129 Q1531.9 57.4606 1534.73 55.956 L1534.73 60.9907 Q1531.87 62.206 1528.86 62.8425 Q1525.85 63.4791 1522.75 63.4791 Q1515 63.4791 1510.46 58.9653 Q1505.94 54.4514 1505.94 46.7547 Q1505.94 38.7975 1510.23 34.139 Q1514.54 29.4515 1521.83 29.4515 Q1528.37 29.4515 1532.16 33.676 Q1535.98 37.8716 1535.98 45.1054 M1530.65 43.5429 Q1530.6 39.1737 1528.19 36.5695 Q1525.82 33.9654 1521.89 33.9654 Q1517.43 33.9654 1514.74 36.4827 Q1512.08 39.0001 1511.67 43.5718 L1530.65 43.5429 Z" fill="#000000" fill-rule="evenodd" fill-opacity="1" /><path clip-path="url(#clip470)" d="M1557.27 33.9654 Q1552.99 33.9654 1550.5 37.3218 Q1548.01 40.6494 1548.01 46.4653 Q1548.01 52.2813 1550.47 55.6377 Q1552.96 58.9653 1557.27 58.9653 Q1561.53 58.9653 1564.02 55.6088 Q1566.5 52.2523 1566.5 46.4653 Q1566.5 40.7072 1564.02 37.3508 Q1561.53 33.9654 1557.27 33.9654 M1557.27 29.4515 Q1564.22 29.4515 1568.18 33.9654 Q1572.15 38.4792 1572.15 46.4653 Q1572.15 54.4225 1568.18 58.9653 Q1564.22 63.4791 1557.27 63.4791 Q1550.3 63.4791 1546.34 58.9653 Q1542.4 54.4225 1542.4 46.4653 Q1542.4 38.4792 1546.34 33.9654 Q1550.3 29.4515 1557.27 29.4515 Z" fill="#000000" fill-rule="evenodd" fill-opacity="1" /><path clip-path="url(#clip470)" d="M1606.2 36.4538 Q1608.2 32.8659 1610.98 31.1587 Q1613.76 29.4515 1617.52 29.4515 Q1622.58 29.4515 1625.33 33.0105 Q1628.08 36.5406 1628.08 43.0799 L1628.08 62.64 L1622.72 62.64 L1622.72 43.2535 Q1622.72 38.595 1621.08 36.3381 Q1619.43 34.0811 1616.04 34.0811 Q1611.9 34.0811 1609.5 36.83 Q1607.1 39.5788 1607.1 44.3241 L1607.1 62.64 L1601.75 62.64 L1601.75 43.2535 Q1601.75 38.5661 1600.1 36.3381 Q1598.45 34.0811 1595.01 34.0811 Q1590.93 34.0811 1588.52 36.8589 Q1586.12 39.6077 1586.12 44.3241 L1586.12 62.64 L1580.77 62.64 L1580.77 30.2328 L1586.12 30.2328 L1586.12 35.2675 Q1587.94 32.2872 1590.49 30.8693 Q1593.04 29.4515 1596.54 29.4515 Q1600.07 29.4515 1602.53 31.2455 Q1605.02 33.0395 1606.2 36.4538 Z" fill="#000000" fill-rule="evenodd" fill-opacity="1" /><path clip-path="url(#clip470)" d="M1666.42 45.1054 L1666.42 47.7095 L1641.94 47.7095 Q1642.28 53.2072 1645.24 56.1007 Q1648.22 58.9653 1653.51 58.9653 Q1656.58 58.9653 1659.44 58.2129 Q1662.34 57.4606 1665.17 55.956 L1665.17 60.9907 Q1662.31 62.206 1659.3 62.8425 Q1656.29 63.4791 1653.19 63.4791 Q1645.44 63.4791 1640.9 58.9653 Q1636.38 54.4514 1636.38 46.7547 Q1636.38 38.7975 1640.66 34.139 Q1644.98 29.4515 1652.27 29.4515 Q1658.81 29.4515 1662.6 33.676 Q1666.42 37.8716 1666.42 45.1054 M1661.09 43.5429 Q1661.03 39.1737 1658.63 36.5695 Q1656.26 33.9654 1652.33 33.9654 Q1647.87 33.9654 1645.18 36.4827 Q1642.52 39.0001 1642.11 43.5718 L1661.09 43.5429 M1655.97 15.2444 L1661.73 15.2444 L1652.3 26.124 L1647.87 26.124 L1655.97 15.2444 Z" fill="#000000" fill-rule="evenodd" fill-opacity="1" /><path clip-path="url(#clip470)" d="M1680.42 21.0314 L1680.42 30.2328 L1691.39 30.2328 L1691.39 34.3705 L1680.42 34.3705 L1680.42 51.963 Q1680.42 55.9271 1681.49 57.0555 Q1682.59 58.184 1685.92 58.184 L1691.39 58.184 L1691.39 62.64 L1685.92 62.64 Q1679.76 62.64 1677.41 60.3541 Q1675.07 58.0393 1675.07 51.963 L1675.07 34.3705 L1671.16 34.3705 L1671.16 30.2328 L1675.07 30.2328 L1675.07 21.0314 L1680.42 21.0314 Z" fill="#000000" fill-rule="evenodd" fill-opacity="1" /><path clip-path="url(#clip470)" d="M1717.17 35.2096 Q1716.27 34.6888 1715.2 34.4573 Q1714.16 34.1969 1712.89 34.1969 Q1708.37 34.1969 1705.94 37.1482 Q1703.54 40.0707 1703.54 45.5683 L1703.54 62.64 L1698.19 62.64 L1698.19 30.2328 L1703.54 30.2328 L1703.54 35.2675 Q1705.22 32.3161 1707.91 30.8983 Q1710.6 29.4515 1714.45 29.4515 Q1715 29.4515 1715.66 29.5383 Q1716.33 29.5962 1717.14 29.7409 L1717.17 35.2096 Z" fill="#000000" fill-rule="evenodd" fill-opacity="1" /><path clip-path="url(#clip470)" d="M1722.75 30.2328 L1728.08 30.2328 L1728.08 62.64 L1722.75 62.64 L1722.75 30.2328 M1722.75 17.6171 L1728.08 17.6171 L1728.08 24.359 L1722.75 24.359 L1722.75 17.6171 Z" fill="#000000" fill-rule="evenodd" fill-opacity="1" /><path clip-path="url(#clip470)" d="M1762.54 31.477 L1762.54 36.4538 Q1760.28 35.2096 1758 34.602 Q1755.74 33.9654 1753.42 33.9654 Q1748.25 33.9654 1745.38 37.264 Q1742.52 40.5336 1742.52 46.4653 Q1742.52 52.397 1745.38 55.6956 Q1748.25 58.9653 1753.42 58.9653 Q1755.74 58.9653 1758 58.3576 Q1760.28 57.721 1762.54 56.4768 L1762.54 61.3958 Q1760.31 62.4375 1757.91 62.9583 Q1755.54 63.4791 1752.85 63.4791 Q1745.53 63.4791 1741.21 58.8784 Q1736.9 54.2778 1736.9 46.4653 Q1736.9 38.5371 1741.24 33.9943 Q1745.61 29.4515 1753.19 29.4515 Q1755.65 29.4515 1758 29.9724 Q1760.34 30.4642 1762.54 31.477 Z" fill="#000000" fill-rule="evenodd" fill-opacity="1" /><path clip-path="url(#clip470)" d="M1786.53 46.3496 Q1780.07 46.3496 1777.59 47.8253 Q1775.1 49.301 1775.1 52.86 Q1775.1 55.6956 1776.95 57.3738 Q1778.83 59.0231 1782.04 59.0231 Q1786.47 59.0231 1789.13 55.8981 Q1791.82 52.7442 1791.82 47.5359 L1791.82 46.3496 L1786.53 46.3496 M1797.15 44.1505 L1797.15 62.64 L1791.82 62.64 L1791.82 57.721 Q1790 60.6724 1787.28 62.0902 Q1784.56 63.4791 1780.62 63.4791 Q1775.65 63.4791 1772.7 60.7014 Q1769.77 57.8947 1769.77 53.2072 Q1769.77 47.7385 1773.42 44.9607 Q1777.09 42.1829 1784.36 42.1829 L1791.82 42.1829 L1791.82 41.6621 Q1791.82 37.9874 1789.39 35.9908 Q1786.99 33.9654 1782.62 33.9654 Q1779.84 33.9654 1777.21 34.6309 Q1774.58 35.2964 1772.15 36.6274 L1772.15 31.7085 Q1775.07 30.58 1777.82 30.0302 Q1780.57 29.4515 1783.17 29.4515 Q1790.2 29.4515 1793.67 33.0973 Q1797.15 36.7431 1797.15 44.1505 Z" fill="#000000" fill-rule="evenodd" fill-opacity="1" /><path clip-path="url(#clip470)" d="M1839.74 17.675 Q1835.86 24.33 1833.98 30.8404 Q1832.1 37.3508 1832.1 44.0348 Q1832.1 50.7188 1833.98 57.287 Q1835.89 63.8263 1839.74 70.4525 L1835.11 70.4525 Q1830.77 63.6527 1828.6 57.0845 Q1826.46 50.5162 1826.46 44.0348 Q1826.46 37.5823 1828.6 31.0429 Q1830.74 24.5036 1835.11 17.675 L1839.74 17.675 Z" fill="#000000" fill-rule="evenodd" fill-opacity="1" /><path clip-path="url(#clip470)" d="M1855.22 57.7789 L1855.22 74.9663 L1849.86 74.9663 L1849.86 30.2328 L1855.22 30.2328 L1855.22 35.1517 Q1856.9 32.2582 1859.44 30.8693 Q1862.02 29.4515 1865.58 29.4515 Q1871.48 29.4515 1875.15 34.139 Q1878.86 38.8265 1878.86 46.4653 Q1878.86 54.1042 1875.15 58.7916 Q1871.48 63.4791 1865.58 63.4791 Q1862.02 63.4791 1859.44 62.0902 Q1856.9 60.6724 1855.22 57.7789 M1873.33 46.4653 Q1873.33 40.5915 1870.9 37.264 Q1868.5 33.9075 1864.27 33.9075 Q1860.05 33.9075 1857.62 37.264 Q1855.22 40.5915 1855.22 46.4653 Q1855.22 52.3391 1857.62 55.6956 Q1860.05 59.0231 1864.27 59.0231 Q1868.5 59.0231 1870.9 55.6956 Q1873.33 52.3391 1873.33 46.4653 Z" fill="#000000" fill-rule="evenodd" fill-opacity="1" /><path clip-path="url(#clip470)" d="M1907.21 35.7304 L1944.31 35.7304 L1944.31 40.5915 L1907.21 40.5915 L1907.21 35.7304 M1907.21 47.5359 L1944.31 47.5359 L1944.31 52.4549 L1907.21 52.4549 L1907.21 47.5359 Z" fill="#000000" fill-rule="evenodd" fill-opacity="1" /><path clip-path="url(#clip470)" d="M1976.77 57.721 L1986.32 57.721 L1986.32 24.764 L1975.93 26.8474 L1975.93 21.5233 L1986.26 19.44 L1992.11 19.44 L1992.11 57.721 L2001.66 57.721 L2001.66 62.64 L1976.77 62.64 L1976.77 57.721 Z" fill="#000000" fill-rule="evenodd" fill-opacity="1" /><path clip-path="url(#clip470)" d="M2022.17 19.44 L2027.09 19.44 L2012.05 68.1377 L2007.13 68.1377 L2022.17 19.44 Z" fill="#000000" fill-rule="evenodd" fill-opacity="1" /><path clip-path="url(#clip470)" d="M2042.14 19.44 L2047.06 19.44 L2032.01 68.1377 L2027.09 68.1377 L2042.14 19.44 Z" fill="#000000" fill-rule="evenodd" fill-opacity="1" /><path clip-path="url(#clip470)" d="M2069.45 24.5326 L2054.7 47.5938 L2069.45 47.5938 L2069.45 24.5326 M2067.92 19.44 L2075.27 19.44 L2075.27 47.5938 L2081.43 47.5938 L2081.43 52.4549 L2075.27 52.4549 L2075.27 62.64 L2069.45 62.64 L2069.45 52.4549 L2049.95 52.4549 L2049.95 46.8125 L2067.92 19.44 Z" fill="#000000" fill-rule="evenodd" fill-opacity="1" /><path clip-path="url(#clip470)" d="M2089.5 17.675 L2094.13 17.675 Q2098.47 24.5036 2100.62 31.0429 Q2102.79 37.5823 2102.79 44.0348 Q2102.79 50.5162 2100.62 57.0845 Q2098.47 63.6527 2094.13 70.4525 L2089.5 70.4525 Q2093.35 63.8263 2095.23 57.287 Q2097.14 50.7188 2097.14 44.0348 Q2097.14 37.3508 2095.23 30.8404 Q2093.35 24.33 2089.5 17.675 Z" fill="#000000" fill-rule="evenodd" fill-opacity="1" /><path clip-path="url(#clip470)" d="M721.355 96.277 L721.355 101.254 Q719.098 100.01 716.812 99.402 Q714.556 98.7654 712.241 98.7654 Q707.061 98.7654 704.197 102.064 Q701.332 105.334 701.332 111.265 Q701.332 117.197 704.197 120.496 Q707.061 123.765 712.241 123.765 Q714.556 123.765 716.812 123.158 Q719.098 122.521 721.355 121.277 L721.355 126.196 Q719.127 127.237 716.726 127.758 Q714.353 128.279 711.662 128.279 Q704.341 128.279 700.03 123.678 Q695.719 119.078 695.719 111.265 Q695.719 103.337 700.059 98.7943 Q704.428 94.2515 712.009 94.2515 Q714.469 94.2515 716.812 94.7724 Q719.156 95.2642 721.355 96.277 Z" fill="#000000" fill-rule="evenodd" fill-opacity="1" /><path clip-path="url(#clip470)" d="M757.553 107.88 L757.553 127.44 L752.229 127.44 L752.229 108.054 Q752.229 103.453 750.435 101.167 Q748.641 98.8811 745.053 98.8811 Q740.742 98.8811 738.253 101.63 Q735.765 104.379 735.765 109.124 L735.765 127.44 L730.412 127.44 L730.412 82.4171 L735.765 82.4171 L735.765 100.067 Q737.675 97.145 740.25 95.6983 Q742.854 94.2515 746.239 94.2515 Q751.824 94.2515 754.688 97.7237 Q757.553 101.167 757.553 107.88 Z" fill="#000000" fill-rule="evenodd" fill-opacity="1" /><path clip-path="url(#clip470)" d="M782.9 111.15 Q776.448 111.15 773.959 112.625 Q771.471 114.101 771.471 117.66 Q771.471 120.496 773.323 122.174 Q775.203 123.823 778.415 123.823 Q782.842 123.823 785.504 120.698 Q788.195 117.544 788.195 112.336 L788.195 111.15 L782.9 111.15 M793.519 108.951 L793.519 127.44 L788.195 127.44 L788.195 122.521 Q786.372 125.472 783.652 126.89 Q780.933 128.279 776.997 128.279 Q772.021 128.279 769.069 125.501 Q766.147 122.695 766.147 118.007 Q766.147 112.538 769.793 109.761 Q773.467 106.983 780.73 106.983 L788.195 106.983 L788.195 106.462 Q788.195 102.787 785.765 100.791 Q783.363 98.7654 778.994 98.7654 Q776.216 98.7654 773.583 99.4309 Q770.95 100.096 768.519 101.427 L768.519 96.5085 Q771.442 95.38 774.191 94.8302 Q776.939 94.2515 779.544 94.2515 Q786.575 94.2515 790.047 97.8973 Q793.519 101.543 793.519 108.951 Z" fill="#000000" fill-rule="evenodd" fill-opacity="1" /><path clip-path="url(#clip470)" d="M831.424 107.88 L831.424 127.44 L826.1 127.44 L826.1 108.054 Q826.1 103.453 824.306 101.167 Q822.512 98.8811 818.924 98.8811 Q814.613 98.8811 812.124 101.63 Q809.636 104.379 809.636 109.124 L809.636 127.44 L804.283 127.44 L804.283 95.0328 L809.636 95.0328 L809.636 100.067 Q811.546 97.145 814.121 95.6983 Q816.725 94.2515 820.111 94.2515 Q825.695 94.2515 828.56 97.7237 Q831.424 101.167 831.424 107.88 Z" fill="#000000" fill-rule="evenodd" fill-opacity="1" /><path clip-path="url(#clip470)" d="M865.365 96.277 L865.365 101.254 Q863.108 100.01 860.822 99.402 Q858.565 98.7654 856.25 98.7654 Q851.071 98.7654 848.206 102.064 Q845.342 105.334 845.342 111.265 Q845.342 117.197 848.206 120.496 Q851.071 123.765 856.25 123.765 Q858.565 123.765 860.822 123.158 Q863.108 122.521 865.365 121.277 L865.365 126.196 Q863.137 127.237 860.735 127.758 Q858.363 128.279 855.672 128.279 Q848.351 128.279 844.04 123.678 Q839.728 119.078 839.728 111.265 Q839.728 103.337 844.069 98.7943 Q848.438 94.2515 856.019 94.2515 Q858.478 94.2515 860.822 94.7724 Q863.166 95.2642 865.365 96.277 Z" fill="#000000" fill-rule="evenodd" fill-opacity="1" /><path clip-path="url(#clip470)" d="M902.344 109.905 L902.344 112.51 L877.865 112.51 Q878.212 118.007 881.163 120.901 Q884.144 123.765 889.439 123.765 Q892.506 123.765 895.371 123.013 Q898.264 122.261 901.1 120.756 L901.1 125.791 Q898.235 127.006 895.226 127.643 Q892.217 128.279 889.121 128.279 Q881.366 128.279 876.823 123.765 Q872.309 119.251 872.309 111.555 Q872.309 103.598 876.592 98.939 Q880.903 94.2515 888.195 94.2515 Q894.734 94.2515 898.524 98.476 Q902.344 102.672 902.344 109.905 M897.02 108.343 Q896.962 103.974 894.56 101.37 Q892.188 98.7654 888.253 98.7654 Q883.797 98.7654 881.106 101.283 Q878.444 103.8 878.038 108.372 L897.02 108.343 Z" fill="#000000" fill-rule="evenodd" fill-opacity="1" /><path clip-path="url(#clip470)" d="M951.244 99.9517 L951.244 82.4171 L956.568 82.4171 L956.568 127.44 L951.244 127.44 L951.244 122.579 Q949.566 125.472 946.991 126.89 Q944.444 128.279 940.856 128.279 Q934.983 128.279 931.279 123.592 Q927.604 118.904 927.604 111.265 Q927.604 103.626 931.279 98.939 Q934.983 94.2515 940.856 94.2515 Q944.444 94.2515 946.991 95.6693 Q949.566 97.0582 951.244 99.9517 M933.102 111.265 Q933.102 117.139 935.503 120.496 Q937.934 123.823 942.158 123.823 Q946.383 123.823 948.814 120.496 Q951.244 117.139 951.244 111.265 Q951.244 105.392 948.814 102.064 Q946.383 98.7075 942.158 98.7075 Q937.934 98.7075 935.503 102.064 Q933.102 105.392 933.102 111.265 Z" fill="#000000" fill-rule="evenodd" fill-opacity="1" /><path clip-path="url(#clip470)" d="M995.254 109.905 L995.254 112.51 L970.775 112.51 Q971.122 118.007 974.074 120.901 Q977.054 123.765 982.349 123.765 Q985.416 123.765 988.281 123.013 Q991.174 122.261 994.01 120.756 L994.01 125.791 Q991.145 127.006 988.136 127.643 Q985.127 128.279 982.031 128.279 Q974.276 128.279 969.734 123.765 Q965.22 119.251 965.22 111.555 Q965.22 103.598 969.502 98.939 Q973.813 94.2515 981.105 94.2515 Q987.644 94.2515 991.435 98.476 Q995.254 102.672 995.254 109.905 M989.93 108.343 Q989.872 103.974 987.471 101.37 Q985.098 98.7654 981.163 98.7654 Q976.707 98.7654 974.016 101.283 Q971.354 103.8 970.949 108.372 L989.93 108.343 Z" fill="#000000" fill-rule="evenodd" fill-opacity="1" /><path clip-path="url(#clip470)" d="M1043.49 95.9876 L1043.49 101.022 Q1041.23 99.8649 1038.8 99.2862 Q1036.37 98.7075 1033.77 98.7075 Q1029.8 98.7075 1027.81 99.9228 Q1025.84 101.138 1025.84 103.569 Q1025.84 105.42 1027.26 106.491 Q1028.67 107.533 1032.96 108.488 L1034.78 108.893 Q1040.45 110.108 1042.82 112.336 Q1045.23 114.535 1045.23 118.499 Q1045.23 123.013 1041.64 125.646 Q1038.08 128.279 1031.83 128.279 Q1029.22 128.279 1026.39 127.758 Q1023.58 127.266 1020.46 126.254 L1020.46 120.756 Q1023.41 122.29 1026.27 123.071 Q1029.14 123.823 1031.94 123.823 Q1035.71 123.823 1037.73 122.55 Q1039.76 121.248 1039.76 118.904 Q1039.76 116.734 1038.28 115.577 Q1036.83 114.419 1031.89 113.349 L1030.03 112.915 Q1025.09 111.873 1022.89 109.732 Q1020.69 107.562 1020.69 103.8 Q1020.69 99.2283 1023.93 96.7399 Q1027.17 94.2515 1033.13 94.2515 Q1036.08 94.2515 1038.69 94.6855 Q1041.29 95.1196 1043.49 95.9876 Z" fill="#000000" fill-rule="evenodd" fill-opacity="1" /><path clip-path="url(#clip470)" d="M1053.15 114.651 L1053.15 95.0328 L1058.48 95.0328 L1058.48 114.448 Q1058.48 119.049 1060.27 121.364 Q1062.07 123.65 1065.65 123.65 Q1069.96 123.65 1072.45 120.901 Q1074.97 118.152 1074.97 113.407 L1074.97 95.0328 L1080.29 95.0328 L1080.29 127.44 L1074.97 127.44 L1074.97 122.463 Q1073.03 125.415 1070.46 126.861 Q1067.91 128.279 1064.52 128.279 Q1058.94 128.279 1056.05 124.807 Q1053.15 121.335 1053.15 114.651 M1066.55 94.2515 L1066.55 94.2515 Z" fill="#000000" fill-rule="evenodd" fill-opacity="1" /><path clip-path="url(#clip470)" d="M1114.58 96.277 L1114.58 101.254 Q1112.33 100.01 1110.04 99.402 Q1107.78 98.7654 1105.47 98.7654 Q1100.29 98.7654 1097.42 102.064 Q1094.56 105.334 1094.56 111.265 Q1094.56 117.197 1097.42 120.496 Q1100.29 123.765 1105.47 123.765 Q1107.78 123.765 1110.04 123.158 Q1112.33 122.521 1114.58 121.277 L1114.58 126.196 Q1112.35 127.237 1109.95 127.758 Q1107.58 128.279 1104.89 128.279 Q1097.57 128.279 1093.26 123.678 Q1088.95 119.078 1088.95 111.265 Q1088.95 103.337 1093.29 98.7943 Q1097.66 94.2515 1105.24 94.2515 Q1107.7 94.2515 1110.04 94.7724 Q1112.38 95.2642 1114.58 96.277 Z" fill="#000000" fill-rule="evenodd" fill-opacity="1" /><path clip-path="url(#clip470)" d="M1151.56 109.905 L1151.56 112.51 L1127.08 112.51 Q1127.43 118.007 1130.38 120.901 Q1133.36 123.765 1138.66 123.765 Q1141.72 123.765 1144.59 123.013 Q1147.48 122.261 1150.32 120.756 L1150.32 125.791 Q1147.45 127.006 1144.44 127.643 Q1141.43 128.279 1138.34 128.279 Q1130.58 128.279 1126.04 123.765 Q1121.53 119.251 1121.53 111.555 Q1121.53 103.598 1125.81 98.939 Q1130.12 94.2515 1137.41 94.2515 Q1143.95 94.2515 1147.74 98.476 Q1151.56 102.672 1151.56 109.905 M1146.24 108.343 Q1146.18 103.974 1143.78 101.37 Q1141.41 98.7654 1137.47 98.7654 Q1133.01 98.7654 1130.32 101.283 Q1127.66 103.8 1127.26 108.372 L1146.24 108.343 Z" fill="#000000" fill-rule="evenodd" fill-opacity="1" /><path clip-path="url(#clip470)" d="M1180.96 95.9876 L1180.96 101.022 Q1178.7 99.8649 1176.27 99.2862 Q1173.84 98.7075 1171.24 98.7075 Q1167.27 98.7075 1165.28 99.9228 Q1163.31 101.138 1163.31 103.569 Q1163.31 105.42 1164.73 106.491 Q1166.14 107.533 1170.43 108.488 L1172.25 108.893 Q1177.92 110.108 1180.29 112.336 Q1182.7 114.535 1182.7 118.499 Q1182.7 123.013 1179.11 125.646 Q1175.55 128.279 1169.3 128.279 Q1166.69 128.279 1163.86 127.758 Q1161.05 127.266 1157.93 126.254 L1157.93 120.756 Q1160.88 122.29 1163.74 123.071 Q1166.61 123.823 1169.41 123.823 Q1173.18 123.823 1175.2 122.55 Q1177.23 121.248 1177.23 118.904 Q1177.23 116.734 1175.75 115.577 Q1174.3 114.419 1169.36 113.349 L1167.5 112.915 Q1162.56 111.873 1160.36 109.732 Q1158.16 107.562 1158.16 103.8 Q1158.16 99.2283 1161.4 96.7399 Q1164.64 94.2515 1170.6 94.2515 Q1173.55 94.2515 1176.16 94.6855 Q1178.76 95.1196 1180.96 95.9876 Z" fill="#000000" fill-rule="evenodd" fill-opacity="1" /><path clip-path="url(#clip470)" d="M1211.83 95.9876 L1211.83 101.022 Q1209.58 99.8649 1207.15 99.2862 Q1204.71 98.7075 1202.11 98.7075 Q1198.15 98.7075 1196.15 99.9228 Q1194.18 101.138 1194.18 103.569 Q1194.18 105.42 1195.6 106.491 Q1197.02 107.533 1201.3 108.488 L1203.12 108.893 Q1208.79 110.108 1211.17 112.336 Q1213.57 114.535 1213.57 118.499 Q1213.57 123.013 1209.98 125.646 Q1206.42 128.279 1200.17 128.279 Q1197.57 128.279 1194.73 127.758 Q1191.93 127.266 1188.8 126.254 L1188.8 120.756 Q1191.75 122.29 1194.62 123.071 Q1197.48 123.823 1200.29 123.823 Q1204.05 123.823 1206.07 122.55 Q1208.1 121.248 1208.1 118.904 Q1208.1 116.734 1206.62 115.577 Q1205.18 114.419 1200.23 113.349 L1198.38 112.915 Q1193.43 111.873 1191.23 109.732 Q1189.03 107.562 1189.03 103.8 Q1189.03 99.2283 1192.27 96.7399 Q1195.51 94.2515 1201.47 94.2515 Q1204.43 94.2515 1207.03 94.6855 Q1209.63 95.1196 1211.83 95.9876 Z" fill="#000000" fill-rule="evenodd" fill-opacity="1" /><path clip-path="url(#clip470)" d="M1234.6 98.7654 Q1230.32 98.7654 1227.83 102.122 Q1225.35 105.449 1225.35 111.265 Q1225.35 117.081 1227.81 120.438 Q1230.29 123.765 1234.6 123.765 Q1238.86 123.765 1241.35 120.409 Q1243.84 117.052 1243.84 111.265 Q1243.84 105.507 1241.35 102.151 Q1238.86 98.7654 1234.6 98.7654 M1234.6 94.2515 Q1241.55 94.2515 1245.51 98.7654 Q1249.48 103.279 1249.48 111.265 Q1249.48 119.222 1245.51 123.765 Q1241.55 128.279 1234.6 128.279 Q1227.63 128.279 1223.67 123.765 Q1219.73 119.222 1219.73 111.265 Q1219.73 103.279 1223.67 98.7654 Q1227.63 94.2515 1234.6 94.2515 Z" fill="#000000" fill-rule="evenodd" fill-opacity="1" /><path clip-path="url(#clip470)" d="M1291.87 111.15 Q1285.41 111.15 1282.93 112.625 Q1280.44 114.101 1280.44 117.66 Q1280.44 120.496 1282.29 122.174 Q1284.17 123.823 1287.38 123.823 Q1291.81 123.823 1294.47 120.698 Q1297.16 117.544 1297.16 112.336 L1297.16 111.15 L1291.87 111.15 M1302.49 108.951 L1302.49 127.44 L1297.16 127.44 L1297.16 122.521 Q1295.34 125.472 1292.62 126.89 Q1289.9 128.279 1285.96 128.279 Q1280.99 128.279 1278.04 125.501 Q1275.11 122.695 1275.11 118.007 Q1275.11 112.538 1278.76 109.761 Q1282.43 106.983 1289.7 106.983 L1297.16 106.983 L1297.16 106.462 Q1297.16 102.787 1294.73 100.791 Q1292.33 98.7654 1287.96 98.7654 Q1285.18 98.7654 1282.55 99.4309 Q1279.92 100.096 1277.49 101.427 L1277.49 96.5085 Q1280.41 95.38 1283.16 94.8302 Q1285.91 94.2515 1288.51 94.2515 Q1295.54 94.2515 1299.01 97.8973 Q1302.49 101.543 1302.49 108.951 Z" fill="#000000" fill-rule="evenodd" fill-opacity="1" /><path clip-path="url(#clip470)" d="M1318.72 85.8314 L1318.72 95.0328 L1329.69 95.0328 L1329.69 99.1705 L1318.72 99.1705 L1318.72 116.763 Q1318.72 120.727 1319.79 121.856 Q1320.89 122.984 1324.22 122.984 L1329.69 122.984 L1329.69 127.44 L1324.22 127.44 Q1318.05 127.44 1315.71 125.154 Q1313.37 122.839 1313.37 116.763 L1313.37 99.1705 L1309.46 99.1705 L1309.46 95.0328 L1313.37 95.0328 L1313.37 85.8314 L1318.72 85.8314 Z" fill="#000000" fill-rule="evenodd" fill-opacity="1" /><path clip-path="url(#clip470)" d="M1364.41 109.905 L1364.41 112.51 L1339.93 112.51 Q1340.28 118.007 1343.23 120.901 Q1346.21 123.765 1351.5 123.765 Q1354.57 123.765 1357.43 123.013 Q1360.33 122.261 1363.16 120.756 L1363.16 125.791 Q1360.3 127.006 1357.29 127.643 Q1354.28 128.279 1351.18 128.279 Q1343.43 128.279 1338.89 123.765 Q1334.37 119.251 1334.37 111.555 Q1334.37 103.598 1338.66 98.939 Q1342.97 94.2515 1350.26 94.2515 Q1356.8 94.2515 1360.59 98.476 Q1364.41 102.672 1364.41 109.905 M1359.08 108.343 Q1359.03 103.974 1356.62 101.37 Q1354.25 98.7654 1350.32 98.7654 Q1345.86 98.7654 1343.17 101.283 Q1340.51 103.8 1340.1 108.372 L1359.08 108.343 M1353.96 80.0444 L1359.72 80.0444 L1350.29 90.924 L1345.86 90.924 L1353.96 80.0444 Z" fill="#000000" fill-rule="evenodd" fill-opacity="1" /><path clip-path="url(#clip470)" d="M1404.54 98.7654 Q1400.26 98.7654 1397.77 102.122 Q1395.28 105.449 1395.28 111.265 Q1395.28 117.081 1397.74 120.438 Q1400.23 123.765 1404.54 123.765 Q1408.79 123.765 1411.28 120.409 Q1413.77 117.052 1413.77 111.265 Q1413.77 105.507 1411.28 102.151 Q1408.79 98.7654 1404.54 98.7654 M1404.54 94.2515 Q1411.48 94.2515 1415.45 98.7654 Q1419.41 103.279 1419.41 111.265 Q1419.41 119.222 1415.45 123.765 Q1411.48 128.279 1404.54 128.279 Q1397.57 128.279 1393.6 123.765 Q1389.67 119.222 1389.67 111.265 Q1389.67 103.279 1393.6 98.7654 Q1397.57 94.2515 1404.54 94.2515 Z" fill="#000000" fill-rule="evenodd" fill-opacity="1" /><path clip-path="url(#clip470)" d="M1447.07 82.4171 L1452.4 82.4171 L1452.4 127.44 L1447.07 127.44 L1447.07 82.4171 Z" fill="#000000" fill-rule="evenodd" fill-opacity="1" /><path clip-path="url(#clip470)" d="M1478.27 111.15 Q1471.81 111.15 1469.33 112.625 Q1466.84 114.101 1466.84 117.66 Q1466.84 120.496 1468.69 122.174 Q1470.57 123.823 1473.78 123.823 Q1478.21 123.823 1480.87 120.698 Q1483.56 117.544 1483.56 112.336 L1483.56 111.15 L1478.27 111.15 M1488.89 108.951 L1488.89 127.44 L1483.56 127.44 L1483.56 122.521 Q1481.74 125.472 1479.02 126.89 Q1476.3 128.279 1472.36 128.279 Q1467.39 128.279 1464.44 125.501 Q1461.51 122.695 1461.51 118.007 Q1461.51 112.538 1465.16 109.761 Q1468.83 106.983 1476.1 106.983 L1483.56 106.983 L1483.56 106.462 Q1483.56 102.787 1481.13 100.791 Q1478.73 98.7654 1474.36 98.7654 Q1471.58 98.7654 1468.95 99.4309 Q1466.32 100.096 1463.89 101.427 L1463.89 96.5085 Q1466.81 95.38 1469.56 94.8302 Q1472.31 94.2515 1474.91 94.2515 Q1481.94 94.2515 1485.41 97.8973 Q1488.89 101.543 1488.89 108.951 Z" fill="#000000" fill-rule="evenodd" fill-opacity="1" /><path clip-path="url(#clip470)" d="M1526.79 107.88 L1526.79 127.44 L1521.47 127.44 L1521.47 108.054 Q1521.47 103.453 1519.67 101.167 Q1517.88 98.8811 1514.29 98.8811 Q1509.98 98.8811 1507.49 101.63 Q1505 104.379 1505 109.124 L1505 127.44 L1499.65 127.44 L1499.65 95.0328 L1505 95.0328 L1505 100.067 Q1506.91 97.145 1509.49 95.6983 Q1512.09 94.2515 1515.48 94.2515 Q1521.06 94.2515 1523.93 97.7237 Q1526.79 101.167 1526.79 107.88 Z" fill="#000000" fill-rule="evenodd" fill-opacity="1" /><path clip-path="url(#clip470)" d="M1560.73 96.277 L1560.73 101.254 Q1558.47 100.01 1556.19 99.402 Q1553.93 98.7654 1551.62 98.7654 Q1546.44 98.7654 1543.57 102.064 Q1540.71 105.334 1540.71 111.265 Q1540.71 117.197 1543.57 120.496 Q1546.44 123.765 1551.62 123.765 Q1553.93 123.765 1556.19 123.158 Q1558.47 122.521 1560.73 121.277 L1560.73 126.196 Q1558.5 127.237 1556.1 127.758 Q1553.73 128.279 1551.04 128.279 Q1543.72 128.279 1539.41 123.678 Q1535.1 119.078 1535.1 111.265 Q1535.1 103.337 1539.44 98.7943 Q1543.8 94.2515 1551.39 94.2515 Q1553.85 94.2515 1556.19 94.7724 Q1558.53 95.2642 1560.73 96.277 M1553.21 127.44 Q1554.8 129.234 1555.58 130.739 Q1556.36 132.272 1556.36 133.661 Q1556.36 136.236 1554.63 137.538 Q1552.89 138.869 1549.48 138.869 Q1548.14 138.869 1546.87 138.696 Q1545.63 138.522 1544.38 138.175 L1544.38 134.384 Q1545.37 134.876 1546.44 135.079 Q1547.51 135.31 1548.87 135.31 Q1550.58 135.31 1551.44 134.616 Q1552.31 133.921 1552.31 132.59 Q1552.31 131.722 1551.67 130.449 Q1551.07 129.205 1549.77 127.44 L1553.21 127.44 Z" fill="#000000" fill-rule="evenodd" fill-opacity="1" /><path clip-path="url(#clip470)" d="M1584.72 111.15 Q1578.27 111.15 1575.78 112.625 Q1573.29 114.101 1573.29 117.66 Q1573.29 120.496 1575.14 122.174 Q1577.02 123.823 1580.23 123.823 Q1584.66 123.823 1587.32 120.698 Q1590.01 117.544 1590.01 112.336 L1590.01 111.15 L1584.72 111.15 M1595.34 108.951 L1595.34 127.44 L1590.01 127.44 L1590.01 122.521 Q1588.19 125.472 1585.47 126.89 Q1582.75 128.279 1578.82 128.279 Q1573.84 128.279 1570.89 125.501 Q1567.97 122.695 1567.97 118.007 Q1567.97 112.538 1571.61 109.761 Q1575.29 106.983 1582.55 106.983 L1590.01 106.983 L1590.01 106.462 Q1590.01 102.787 1587.58 100.791 Q1585.18 98.7654 1580.81 98.7654 Q1578.03 98.7654 1575.4 99.4309 Q1572.77 100.096 1570.34 101.427 L1570.34 96.5085 Q1573.26 95.38 1576.01 94.8302 Q1578.76 94.2515 1581.36 94.2515 Q1588.39 94.2515 1591.87 97.8973 Q1595.34 101.543 1595.34 108.951 Z" fill="#000000" fill-rule="evenodd" fill-opacity="1" /><path clip-path="url(#clip470)" d="M1631.54 101.254 Q1633.53 97.6659 1636.31 95.9587 Q1639.09 94.2515 1642.85 94.2515 Q1647.91 94.2515 1650.66 97.8105 Q1653.41 101.341 1653.41 107.88 L1653.41 127.44 L1648.06 127.44 L1648.06 108.054 Q1648.06 103.395 1646.41 101.138 Q1644.76 98.8811 1641.37 98.8811 Q1637.24 98.8811 1634.83 101.63 Q1632.43 104.379 1632.43 109.124 L1632.43 127.44 L1627.08 127.44 L1627.08 108.054 Q1627.08 103.366 1625.43 101.138 Q1623.78 98.8811 1620.34 98.8811 Q1616.26 98.8811 1613.86 101.659 Q1611.45 104.408 1611.45 109.124 L1611.45 127.44 L1606.1 127.44 L1606.1 95.0328 L1611.45 95.0328 L1611.45 100.067 Q1613.28 97.0872 1615.82 95.6693 Q1618.37 94.2515 1621.87 94.2515 Q1625.4 94.2515 1627.86 96.0455 Q1630.35 97.8395 1631.54 101.254 Z" fill="#000000" fill-rule="evenodd" fill-opacity="1" /><path clip-path="url(#clip470)" d="M1691.75 109.905 L1691.75 112.51 L1667.27 112.51 Q1667.62 118.007 1670.57 120.901 Q1673.55 123.765 1678.84 123.765 Q1681.91 123.765 1684.78 123.013 Q1687.67 122.261 1690.51 120.756 L1690.51 125.791 Q1687.64 127.006 1684.63 127.643 Q1681.62 128.279 1678.53 128.279 Q1670.77 128.279 1666.23 123.765 Q1661.71 119.251 1661.71 111.555 Q1661.71 103.598 1666 98.939 Q1670.31 94.2515 1677.6 94.2515 Q1684.14 94.2515 1687.93 98.476 Q1691.75 102.672 1691.75 109.905 M1686.43 108.343 Q1686.37 103.974 1683.97 101.37 Q1681.59 98.7654 1677.66 98.7654 Q1673.2 98.7654 1670.51 101.283 Q1667.85 103.8 1667.44 108.372 L1686.43 108.343 Z" fill="#000000" fill-rule="evenodd" fill-opacity="1" /><path clip-path="url(#clip470)" d="M1727.43 107.88 L1727.43 127.44 L1722.1 127.44 L1722.1 108.054 Q1722.1 103.453 1720.31 101.167 Q1718.51 98.8811 1714.93 98.8811 Q1710.62 98.8811 1708.13 101.63 Q1705.64 104.379 1705.64 109.124 L1705.64 127.44 L1700.29 127.44 L1700.29 95.0328 L1705.64 95.0328 L1705.64 100.067 Q1707.55 97.145 1710.12 95.6983 Q1712.73 94.2515 1716.11 94.2515 Q1721.7 94.2515 1724.56 97.7237 Q1727.43 101.167 1727.43 107.88 Z" fill="#000000" fill-rule="evenodd" fill-opacity="1" /><path clip-path="url(#clip470)" d="M1743.31 85.8314 L1743.31 95.0328 L1754.28 95.0328 L1754.28 99.1705 L1743.31 99.1705 L1743.31 116.763 Q1743.31 120.727 1744.38 121.856 Q1745.48 122.984 1748.81 122.984 L1754.28 122.984 L1754.28 127.44 L1748.81 127.44 Q1742.65 127.44 1740.3 125.154 Q1737.96 122.839 1737.96 116.763 L1737.96 99.1705 L1734.05 99.1705 L1734.05 95.0328 L1737.96 95.0328 L1737.96 85.8314 L1743.31 85.8314 Z" fill="#000000" fill-rule="evenodd" fill-opacity="1" /><path clip-path="url(#clip470)" d="M1773.84 98.7654 Q1769.56 98.7654 1767.07 102.122 Q1764.58 105.449 1764.58 111.265 Q1764.58 117.081 1767.04 120.438 Q1769.53 123.765 1773.84 123.765 Q1778.09 123.765 1780.58 120.409 Q1783.07 117.052 1783.07 111.265 Q1783.07 105.507 1780.58 102.151 Q1778.09 98.7654 1773.84 98.7654 M1773.84 94.2515 Q1780.78 94.2515 1784.75 98.7654 Q1788.71 103.279 1788.71 111.265 Q1788.71 119.222 1784.75 123.765 Q1780.78 128.279 1773.84 128.279 Q1766.86 128.279 1762.9 123.765 Q1758.97 119.222 1758.97 111.265 Q1758.97 103.279 1762.9 98.7654 Q1766.86 94.2515 1773.84 94.2515 Z" fill="#000000" fill-rule="evenodd" fill-opacity="1" /><path clip-path="url(#clip470)" d="M1843.31 107.88 L1843.31 127.44 L1837.99 127.44 L1837.99 108.054 Q1837.99 103.453 1836.19 101.167 Q1834.4 98.8811 1830.81 98.8811 Q1826.5 98.8811 1824.01 101.63 Q1821.52 104.379 1821.52 109.124 L1821.52 127.44 L1816.17 127.44 L1816.17 95.0328 L1821.52 95.0328 L1821.52 100.067 Q1823.43 97.145 1826.01 95.6983 Q1828.61 94.2515 1832 94.2515 Q1837.58 94.2515 1840.45 97.7237 Q1843.31 101.167 1843.31 107.88 Z" fill="#000000" fill-rule="evenodd" fill-opacity="1" /><path clip-path="url(#clip472)" d="
M305.434 1132.26 L305.434 1448.61 L383.34 1448.61 L383.34 1132.26 L305.434 1132.26 L305.434 1132.26  Z
  " fill="#009af9" fill-rule="evenodd" fill-opacity="1"/>
<polyline clip-path="url(#clip472)" style="stroke:#000000; stroke-linecap:butt; stroke-linejoin:round; stroke-width:4; stroke-opacity:1; fill:none" points="
  305.434,1132.26 305.434,1448.61 383.34,1448.61 383.34,1132.26 305.434,1132.26 
  "/>
<path clip-path="url(#clip472)" d="
M402.816 895 L402.816 1448.61 L480.722 1448.61 L480.722 895 L402.816 895 L402.816 895  Z
  " fill="#009af9" fill-rule="evenodd" fill-opacity="1"/>
<polyline clip-path="url(#clip472)" style="stroke:#000000; stroke-linecap:butt; stroke-linejoin:round; stroke-width:4; stroke-opacity:1; fill:none" points="
  402.816,895 402.816,1448.61 480.722,1448.61 480.722,895 402.816,895 
  "/>
<path clip-path="url(#clip472)" d="
M500.198 717.055 L500.198 1448.61 L578.104 1448.61 L578.104 717.055 L500.198 717.055 L500.198 717.055  Z
  " fill="#009af9" fill-rule="evenodd" fill-opacity="1"/>
<polyline clip-path="url(#clip472)" style="stroke:#000000; stroke-linecap:butt; stroke-linejoin:round; stroke-width:4; stroke-opacity:1; fill:none" points="
  500.198,717.055 500.198,1448.61 578.104,1448.61 578.104,717.055 500.198,717.055 
  "/>
<path clip-path="url(#clip472)" d="
M597.58 583.597 L597.58 1448.61 L675.485 1448.61 L675.485 583.597 L597.58 583.597 L597.58 583.597  Z
  " fill="#009af9" fill-rule="evenodd" fill-opacity="1"/>
<polyline clip-path="url(#clip472)" style="stroke:#000000; stroke-linecap:butt; stroke-linejoin:round; stroke-width:4; stroke-opacity:1; fill:none" points="
  597.58,583.597 597.58,1448.61 675.485,1448.61 675.485,583.597 597.58,583.597 
  "/>
<path clip-path="url(#clip472)" d="
M694.962 483.503 L694.962 1448.61 L772.867 1448.61 L772.867 483.503 L694.962 483.503 L694.962 483.503  Z
  " fill="#009af9" fill-rule="evenodd" fill-opacity="1"/>
<polyline clip-path="url(#clip472)" style="stroke:#000000; stroke-linecap:butt; stroke-linejoin:round; stroke-width:4; stroke-opacity:1; fill:none" points="
  694.962,483.503 694.962,1448.61 772.867,1448.61 772.867,483.503 694.962,483.503 
  "/>
<path clip-path="url(#clip472)" d="
M792.344 408.432 L792.344 1448.61 L870.249 1448.61 L870.249 408.432 L792.344 408.432 L792.344 408.432  Z
  " fill="#009af9" fill-rule="evenodd" fill-opacity="1"/>
<polyline clip-path="url(#clip472)" style="stroke:#000000; stroke-linecap:butt; stroke-linejoin:round; stroke-width:4; stroke-opacity:1; fill:none" points="
  792.344,408.432 792.344,1448.61 870.249,1448.61 870.249,408.432 792.344,408.432 
  "/>
<path clip-path="url(#clip472)" d="
M889.726 352.129 L889.726 1448.61 L967.631 1448.61 L967.631 352.129 L889.726 352.129 L889.726 352.129  Z
  " fill="#009af9" fill-rule="evenodd" fill-opacity="1"/>
<polyline clip-path="url(#clip472)" style="stroke:#000000; stroke-linecap:butt; stroke-linejoin:round; stroke-width:4; stroke-opacity:1; fill:none" points="
  889.726,352.129 889.726,1448.61 967.631,1448.61 967.631,352.129 889.726,352.129 
  "/>
<path clip-path="url(#clip472)" d="
M987.108 309.902 L987.108 1448.61 L1065.01 1448.61 L1065.01 309.902 L987.108 309.902 L987.108 309.902  Z
  " fill="#009af9" fill-rule="evenodd" fill-opacity="1"/>
<polyline clip-path="url(#clip472)" style="stroke:#000000; stroke-linecap:butt; stroke-linejoin:round; stroke-width:4; stroke-opacity:1; fill:none" points="
  987.108,309.902 987.108,1448.61 1065.01,1448.61 1065.01,309.902 987.108,309.902 
  "/>
<path clip-path="url(#clip472)" d="
M1084.49 278.232 L1084.49 1448.61 L1162.39 1448.61 L1162.39 278.232 L1084.49 278.232 L1084.49 278.232  Z
  " fill="#009af9" fill-rule="evenodd" fill-opacity="1"/>
<polyline clip-path="url(#clip472)" style="stroke:#000000; stroke-linecap:butt; stroke-linejoin:round; stroke-width:4; stroke-opacity:1; fill:none" points="
  1084.49,278.232 1084.49,1448.61 1162.39,1448.61 1162.39,278.232 1084.49,278.232 
  "/>
<path clip-path="url(#clip472)" d="
M1181.87 254.479 L1181.87 1448.61 L1259.78 1448.61 L1259.78 254.479 L1181.87 254.479 L1181.87 254.479  Z
  " fill="#009af9" fill-rule="evenodd" fill-opacity="1"/>
<polyline clip-path="url(#clip472)" style="stroke:#000000; stroke-linecap:butt; stroke-linejoin:round; stroke-width:4; stroke-opacity:1; fill:none" points="
  1181.87,254.479 1181.87,1448.61 1259.78,1448.61 1259.78,254.479 1181.87,254.479 
  "/>
<path clip-path="url(#clip472)" d="
M1279.25 236.664 L1279.25 1448.61 L1357.16 1448.61 L1357.16 236.664 L1279.25 236.664 L1279.25 236.664  Z
  " fill="#009af9" fill-rule="evenodd" fill-opacity="1"/>
<polyline clip-path="url(#clip472)" style="stroke:#000000; stroke-linecap:butt; stroke-linejoin:round; stroke-width:4; stroke-opacity:1; fill:none" points="
  1279.25,236.664 1279.25,1448.61 1357.16,1448.61 1357.16,236.664 1279.25,236.664 
  "/>
<path clip-path="url(#clip472)" d="
M1376.64 223.303 L1376.64 1448.61 L1454.54 1448.61 L1454.54 223.303 L1376.64 223.303 L1376.64 223.303  Z
  " fill="#009af9" fill-rule="evenodd" fill-opacity="1"/>
<polyline clip-path="url(#clip472)" style="stroke:#000000; stroke-linecap:butt; stroke-linejoin:round; stroke-width:4; stroke-opacity:1; fill:none" points="
  1376.64,223.303 1376.64,1448.61 1454.54,1448.61 1454.54,223.303 1376.64,223.303 
  "/>
<path clip-path="url(#clip472)" d="
M1474.02 213.283 L1474.02 1448.61 L1551.92 1448.61 L1551.92 213.283 L1474.02 213.283 L1474.02 213.283  Z
  " fill="#009af9" fill-rule="evenodd" fill-opacity="1"/>
<polyline clip-path="url(#clip472)" style="stroke:#000000; stroke-linecap:butt; stroke-linejoin:round; stroke-width:4; stroke-opacity:1; fill:none" points="
  1474.02,213.283 1474.02,1448.61 1551.92,1448.61 1551.92,213.283 1474.02,213.283 
  "/>
<path clip-path="url(#clip472)" d="
M1571.4 205.767 L1571.4 1448.61 L1649.3 1448.61 L1649.3 205.767 L1571.4 205.767 L1571.4 205.767  Z
  " fill="#009af9" fill-rule="evenodd" fill-opacity="1"/>
<polyline clip-path="url(#clip472)" style="stroke:#000000; stroke-linecap:butt; stroke-linejoin:round; stroke-width:4; stroke-opacity:1; fill:none" points="
  1571.4,205.767 1571.4,1448.61 1649.3,1448.61 1649.3,205.767 1571.4,205.767 
  "/>
<path clip-path="url(#clip472)" d="
M1668.78 200.13 L1668.78 1448.61 L1746.69 1448.61 L1746.69 200.13 L1668.78 200.13 L1668.78 200.13  Z
  " fill="#009af9" fill-rule="evenodd" fill-opacity="1"/>
<polyline clip-path="url(#clip472)" style="stroke:#000000; stroke-linecap:butt; stroke-linejoin:round; stroke-width:4; stroke-opacity:1; fill:none" points="
  1668.78,200.13 1668.78,1448.61 1746.69,1448.61 1746.69,200.13 1668.78,200.13 
  "/>
<path clip-path="url(#clip472)" d="
M1766.16 195.903 L1766.16 1448.61 L1844.07 1448.61 L1844.07 195.903 L1766.16 195.903 L1766.16 195.903  Z
  " fill="#009af9" fill-rule="evenodd" fill-opacity="1"/>
<polyline clip-path="url(#clip472)" style="stroke:#000000; stroke-linecap:butt; stroke-linejoin:round; stroke-width:4; stroke-opacity:1; fill:none" points="
  1766.16,195.903 1766.16,1448.61 1844.07,1448.61 1844.07,195.903 1766.16,195.903 
  "/>
<path clip-path="url(#clip472)" d="
M1863.54 192.732 L1863.54 1448.61 L1941.45 1448.61 L1941.45 192.732 L1863.54 192.732 L1863.54 192.732  Z
  " fill="#009af9" fill-rule="evenodd" fill-opacity="1"/>
<polyline clip-path="url(#clip472)" style="stroke:#000000; stroke-linecap:butt; stroke-linejoin:round; stroke-width:4; stroke-opacity:1; fill:none" points="
  1863.54,192.732 1863.54,1448.61 1941.45,1448.61 1941.45,192.732 1863.54,192.732 
  "/>
<path clip-path="url(#clip472)" d="
M1960.93 190.354 L1960.93 1448.61 L2038.83 1448.61 L2038.83 190.354 L1960.93 190.354 L1960.93 190.354  Z
  " fill="#009af9" fill-rule="evenodd" fill-opacity="1"/>
<polyline clip-path="url(#clip472)" style="stroke:#000000; stroke-linecap:butt; stroke-linejoin:round; stroke-width:4; stroke-opacity:1; fill:none" points="
  1960.93,190.354 1960.93,1448.61 2038.83,1448.61 2038.83,190.354 1960.93,190.354 
  "/>
<path clip-path="url(#clip472)" d="
M2058.31 188.571 L2058.31 1448.61 L2136.21 1448.61 L2136.21 188.571 L2058.31 188.571 L2058.31 188.571  Z
  " fill="#009af9" fill-rule="evenodd" fill-opacity="1"/>
<polyline clip-path="url(#clip472)" style="stroke:#000000; stroke-linecap:butt; stroke-linejoin:round; stroke-width:4; stroke-opacity:1; fill:none" points="
  2058.31,188.571 2058.31,1448.61 2136.21,1448.61 2136.21,188.571 2058.31,188.571 
  "/>
<path clip-path="url(#clip472)" d="
M2155.69 187.233 L2155.69 1448.61 L2233.6 1448.61 L2233.6 187.233 L2155.69 187.233 L2155.69 187.233  Z
  " fill="#009af9" fill-rule="evenodd" fill-opacity="1"/>
<polyline clip-path="url(#clip472)" style="stroke:#000000; stroke-linecap:butt; stroke-linejoin:round; stroke-width:4; stroke-opacity:1; fill:none" points="
  2155.69,187.233 2155.69,1448.61 2233.6,1448.61 2233.6,187.233 2155.69,187.233 
  "/>
<circle clip-path="url(#clip472)" style="fill:#009af9; stroke:none; fill-opacity:0" cx="344.387" cy="1132.26" r="2"/>
<circle clip-path="url(#clip472)" style="fill:#009af9; stroke:none; fill-opacity:0" cx="441.769" cy="895" r="2"/>
<circle clip-path="url(#clip472)" style="fill:#009af9; stroke:none; fill-opacity:0" cx="539.151" cy="717.055" r="2"/>
<circle clip-path="url(#clip472)" style="fill:#009af9; stroke:none; fill-opacity:0" cx="636.533" cy="583.597" r="2"/>
<circle clip-path="url(#clip472)" style="fill:#009af9; stroke:none; fill-opacity:0" cx="733.915" cy="483.503" r="2"/>
<circle clip-path="url(#clip472)" style="fill:#009af9; stroke:none; fill-opacity:0" cx="831.297" cy="408.432" r="2"/>
<circle clip-path="url(#clip472)" style="fill:#009af9; stroke:none; fill-opacity:0" cx="928.678" cy="352.129" r="2"/>
<circle clip-path="url(#clip472)" style="fill:#009af9; stroke:none; fill-opacity:0" cx="1026.06" cy="309.902" r="2"/>
<circle clip-path="url(#clip472)" style="fill:#009af9; stroke:none; fill-opacity:0" cx="1123.44" cy="278.232" r="2"/>
<circle clip-path="url(#clip472)" style="fill:#009af9; stroke:none; fill-opacity:0" cx="1220.82" cy="254.479" r="2"/>
<circle clip-path="url(#clip472)" style="fill:#009af9; stroke:none; fill-opacity:0" cx="1318.21" cy="236.664" r="2"/>
<circle clip-path="url(#clip472)" style="fill:#009af9; stroke:none; fill-opacity:0" cx="1415.59" cy="223.303" r="2"/>
<circle clip-path="url(#clip472)" style="fill:#009af9; stroke:none; fill-opacity:0" cx="1512.97" cy="213.283" r="2"/>
<circle clip-path="url(#clip472)" style="fill:#009af9; stroke:none; fill-opacity:0" cx="1610.35" cy="205.767" r="2"/>
<circle clip-path="url(#clip472)" style="fill:#009af9; stroke:none; fill-opacity:0" cx="1707.73" cy="200.13" r="2"/>
<circle clip-path="url(#clip472)" style="fill:#009af9; stroke:none; fill-opacity:0" cx="1805.12" cy="195.903" r="2"/>
<circle clip-path="url(#clip472)" style="fill:#009af9; stroke:none; fill-opacity:0" cx="1902.5" cy="192.732" r="2"/>
<circle clip-path="url(#clip472)" style="fill:#009af9; stroke:none; fill-opacity:0" cx="1999.88" cy="190.354" r="2"/>
<circle clip-path="url(#clip472)" style="fill:#009af9; stroke:none; fill-opacity:0" cx="2097.26" cy="188.571" r="2"/>
<circle clip-path="url(#clip472)" style="fill:#009af9; stroke:none; fill-opacity:0" cx="2194.64" cy="187.233" r="2"/>
</svg>
