<?xml version="1.0" encoding="utf-8"?>
<svg xmlns="http://www.w3.org/2000/svg" xmlns:xlink="http://www.w3.org/1999/xlink" width="600" height="400" viewBox="0 0 2400 1600">
<defs>
  <clipPath id="clip010">
    <rect x="0" y="0" width="2400" height="1600"/>
  </clipPath>
</defs>
<path clip-path="url(#clip010)" d="
M0 1600 L2400 1600 L2400 0 L0 0  Z
  " fill="#ffffff" fill-rule="evenodd" fill-opacity="1"/>
<defs>
  <clipPath id="clip011">
    <rect x="480" y="0" width="1681" height="1600"/>
  </clipPath>
</defs>
<defs>
  <clipPath id="clip012">
    <rect x="186" y="106" width="2167" height="1381"/>
  </clipPath>
</defs>
<path clip-path="url(#clip010)" d="
M193.936 1457.74 L2352.76 1457.74 L2352.76 106.192 L193.936 106.192  Z
  " fill="#eaeaea" fill-rule="evenodd" fill-opacity="1"/>
<defs>
  <clipPath id="clip013">
    <rect x="193" y="106" width="2160" height="1353"/>
  </clipPath>
</defs>
<polyline clip-path="url(#clip013)" style="stroke:#ffffff; stroke-linecap:butt; stroke-linejoin:round; stroke-width:4; stroke-opacity:1; fill:none" points="
  347.608,1457.74 347.608,106.192 
  "/>
<polyline clip-path="url(#clip013)" style="stroke:#ffffff; stroke-linecap:butt; stroke-linejoin:round; stroke-width:4; stroke-opacity:1; fill:none" points="
  810.477,1457.74 810.477,106.192 
  "/>
<polyline clip-path="url(#clip013)" style="stroke:#ffffff; stroke-linecap:butt; stroke-linejoin:round; stroke-width:4; stroke-opacity:1; fill:none" points="
  1273.35,1457.74 1273.35,106.192 
  "/>
<polyline clip-path="url(#clip013)" style="stroke:#ffffff; stroke-linecap:butt; stroke-linejoin:round; stroke-width:4; stroke-opacity:1; fill:none" points="
  1736.21,1457.74 1736.21,106.192 
  "/>
<polyline clip-path="url(#clip013)" style="stroke:#ffffff; stroke-linecap:butt; stroke-linejoin:round; stroke-width:4; stroke-opacity:1; fill:none" points="
  2199.08,1457.74 2199.08,106.192 
  "/>
<polyline clip-path="url(#clip013)" style="stroke:#ffffff; stroke-linecap:butt; stroke-linejoin:round; stroke-width:2; stroke-opacity:1; fill:none" points="
  579.043,1457.74 579.043,106.192 
  "/>
<polyline clip-path="url(#clip013)" style="stroke:#ffffff; stroke-linecap:butt; stroke-linejoin:round; stroke-width:2; stroke-opacity:1; fill:none" points="
  1041.91,1457.74 1041.91,106.192 
  "/>
<polyline clip-path="url(#clip013)" style="stroke:#ffffff; stroke-linecap:butt; stroke-linejoin:round; stroke-width:2; stroke-opacity:1; fill:none" points="
  1504.78,1457.74 1504.78,106.192 
  "/>
<polyline clip-path="url(#clip013)" style="stroke:#ffffff; stroke-linecap:butt; stroke-linejoin:round; stroke-width:2; stroke-opacity:1; fill:none" points="
  1967.65,1457.74 1967.65,106.192 
  "/>
<polyline clip-path="url(#clip010)" style="stroke:#ffffff; stroke-linecap:butt; stroke-linejoin:round; stroke-width:4; stroke-opacity:1; fill:none" points="
  193.936,1457.74 2352.76,1457.74 
  "/>
<polyline clip-path="url(#clip010)" style="stroke:#333333; stroke-linecap:butt; stroke-linejoin:round; stroke-width:4; stroke-opacity:1; fill:none" points="
  347.608,1457.74 347.608,1476.64 
  "/>
<polyline clip-path="url(#clip010)" style="stroke:#333333; stroke-linecap:butt; stroke-linejoin:round; stroke-width:4; stroke-opacity:1; fill:none" points="
  810.477,1457.74 810.477,1476.64 
  "/>
<polyline clip-path="url(#clip010)" style="stroke:#333333; stroke-linecap:butt; stroke-linejoin:round; stroke-width:4; stroke-opacity:1; fill:none" points="
  1273.35,1457.74 1273.35,1476.64 
  "/>
<polyline clip-path="url(#clip010)" style="stroke:#333333; stroke-linecap:butt; stroke-linejoin:round; stroke-width:4; stroke-opacity:1; fill:none" points="
  1736.21,1457.74 1736.21,1476.64 
  "/>
<polyline clip-path="url(#clip010)" style="stroke:#333333; stroke-linecap:butt; stroke-linejoin:round; stroke-width:4; stroke-opacity:1; fill:none" points="
  2199.08,1457.74 2199.08,1476.64 
  "/>
<polyline clip-path="url(#clip010)" style="stroke:#333333; stroke-linecap:butt; stroke-linejoin:round; stroke-width:4; stroke-opacity:1; fill:none" points="
  579.043,1457.74 579.043,1467.19 
  "/>
<polyline clip-path="url(#clip010)" style="stroke:#333333; stroke-linecap:butt; stroke-linejoin:round; stroke-width:4; stroke-opacity:1; fill:none" points="
  1041.91,1457.74 1041.91,1467.19 
  "/>
<polyline clip-path="url(#clip010)" style="stroke:#333333; stroke-linecap:butt; stroke-linejoin:round; stroke-width:4; stroke-opacity:1; fill:none" points="
  1504.78,1457.74 1504.78,1467.19 
  "/>
<polyline clip-path="url(#clip010)" style="stroke:#333333; stroke-linecap:butt; stroke-linejoin:round; stroke-width:4; stroke-opacity:1; fill:none" points="
  1967.65,1457.74 1967.65,1467.19 
  "/>
<path clip-path="url(#clip010)" d="M1281.82 1531.26 Q1281.82 1532.17 1281.4 1532.39 Q1280.98 1532.59 1279.82 1532.59 L1273.64 1532.59 L1268.74 1552.04 Q1268.35 1553.74 1268.35 1555.19 Q1268.35 1556.8 1268.84 1557.51 Q1269.35 1558.22 1270.42 1558.22 Q1272.51 1558.22 1274.76 1556.32 Q1277.05 1554.42 1278.98 1549.78 Q1279.24 1549.17 1279.37 1549.04 Q1279.53 1548.88 1279.95 1548.88 Q1280.75 1548.88 1280.75 1549.53 Q1280.75 1549.75 1280.3 1550.78 Q1279.88 1551.81 1278.95 1553.33 Q1278.05 1554.84 1276.86 1556.26 Q1275.7 1557.67 1273.93 1558.7 Q1272.16 1559.7 1270.26 1559.7 Q1267.58 1559.7 1265.88 1558 Q1264.2 1556.29 1264.2 1553.62 Q1264.2 1552.75 1264.88 1549.98 Q1265.55 1547.17 1269.22 1532.59 L1263.4 1532.59 Q1262.59 1532.59 1262.27 1532.55 Q1261.98 1532.52 1261.75 1532.36 Q1261.56 1532.17 1261.56 1531.78 Q1261.56 1531.17 1261.82 1530.91 Q1262.07 1530.62 1262.4 1530.59 Q1262.75 1530.52 1263.56 1530.52 L1269.74 1530.52 L1272.32 1520.06 Q1272.57 1519.03 1273.22 1518.45 Q1273.89 1517.84 1274.28 1517.77 Q1274.67 1517.67 1274.96 1517.67 Q1275.83 1517.67 1276.34 1518.16 Q1276.86 1518.61 1276.86 1519.45 Q1276.86 1519.9 1274.15 1530.52 L1279.95 1530.52 Q1280.69 1530.52 1280.98 1530.56 Q1281.3 1530.59 1281.56 1530.75 Q1281.82 1530.91 1281.82 1531.26 Z" fill="#000000" fill-rule="evenodd" fill-opacity="1" /><polyline clip-path="url(#clip013)" style="stroke:#ffffff; stroke-linecap:butt; stroke-linejoin:round; stroke-width:4; stroke-opacity:1; fill:none" points="
  193.936,1419.49 2352.76,1419.49 
  "/>
<polyline clip-path="url(#clip013)" style="stroke:#ffffff; stroke-linecap:butt; stroke-linejoin:round; stroke-width:4; stroke-opacity:1; fill:none" points="
  193.936,1100.73 2352.76,1100.73 
  "/>
<polyline clip-path="url(#clip013)" style="stroke:#ffffff; stroke-linecap:butt; stroke-linejoin:round; stroke-width:4; stroke-opacity:1; fill:none" points="
  193.936,781.966 2352.76,781.966 
  "/>
<polyline clip-path="url(#clip013)" style="stroke:#ffffff; stroke-linecap:butt; stroke-linejoin:round; stroke-width:4; stroke-opacity:1; fill:none" points="
  193.936,463.205 2352.76,463.205 
  "/>
<polyline clip-path="url(#clip013)" style="stroke:#ffffff; stroke-linecap:butt; stroke-linejoin:round; stroke-width:4; stroke-opacity:1; fill:none" points="
  193.936,144.443 2352.76,144.443 
  "/>
<polyline clip-path="url(#clip013)" style="stroke:#ffffff; stroke-linecap:butt; stroke-linejoin:round; stroke-width:2; stroke-opacity:1; fill:none" points="
  193.936,1260.11 2352.76,1260.11 
  "/>
<polyline clip-path="url(#clip013)" style="stroke:#ffffff; stroke-linecap:butt; stroke-linejoin:round; stroke-width:2; stroke-opacity:1; fill:none" points="
  193.936,941.347 2352.76,941.347 
  "/>
<polyline clip-path="url(#clip013)" style="stroke:#ffffff; stroke-linecap:butt; stroke-linejoin:round; stroke-width:2; stroke-opacity:1; fill:none" points="
  193.936,622.585 2352.76,622.585 
  "/>
<polyline clip-path="url(#clip013)" style="stroke:#ffffff; stroke-linecap:butt; stroke-linejoin:round; stroke-width:2; stroke-opacity:1; fill:none" points="
  193.936,303.824 2352.76,303.824 
  "/>
<path clip-path="url(#clip010)" d="M32.9921 1419.94 L62.6679 1419.94 L62.6679 1423.88 L32.9921 1423.88 L32.9921 1419.94 Z" fill="#4c4c4c" fill-rule="evenodd" fill-opacity="1" /><path clip-path="url(#clip010)" d="M73.5706 1432.83 L81.2095 1432.83 L81.2095 1406.47 L72.8993 1408.13 L72.8993 1403.88 L81.1632 1402.21 L85.8391 1402.21 L85.8391 1432.83 L93.4779 1432.83 L93.4779 1436.77 L73.5706 1436.77 L73.5706 1432.83 Z" fill="#4c4c4c" fill-rule="evenodd" fill-opacity="1" /><path clip-path="url(#clip010)" d="M102.922 1430.89 L107.807 1430.89 L107.807 1436.77 L102.922 1436.77 L102.922 1430.89 Z" fill="#4c4c4c" fill-rule="evenodd" fill-opacity="1" /><path clip-path="url(#clip010)" d="M127.992 1405.29 Q124.381 1405.29 122.552 1408.85 Q120.746 1412.39 120.746 1419.52 Q120.746 1426.63 122.552 1430.19 Q124.381 1433.74 127.992 1433.74 Q131.626 1433.74 133.431 1430.19 Q135.26 1426.63 135.26 1419.52 Q135.26 1412.39 133.431 1408.85 Q131.626 1405.29 127.992 1405.29 M127.992 1401.58 Q133.802 1401.58 136.857 1406.19 Q139.936 1410.77 139.936 1419.52 Q139.936 1428.25 136.857 1432.86 Q133.802 1437.44 127.992 1437.44 Q122.181 1437.44 119.103 1432.86 Q116.047 1428.25 116.047 1419.52 Q116.047 1410.77 119.103 1406.19 Q122.181 1401.58 127.992 1401.58 Z" fill="#4c4c4c" fill-rule="evenodd" fill-opacity="1" /><path clip-path="url(#clip010)" d="M33.9875 1101.18 L63.6633 1101.18 L63.6633 1105.11 L33.9875 1105.11 L33.9875 1101.18 Z" fill="#4c4c4c" fill-rule="evenodd" fill-opacity="1" /><path clip-path="url(#clip010)" d="M83.7557 1086.53 Q80.1447 1086.53 78.316 1090.09 Q76.5104 1093.63 76.5104 1100.76 Q76.5104 1107.87 78.316 1111.43 Q80.1447 1114.97 83.7557 1114.97 Q87.39 1114.97 89.1955 1111.43 Q91.0242 1107.87 91.0242 1100.76 Q91.0242 1093.63 89.1955 1090.09 Q87.39 1086.53 83.7557 1086.53 M83.7557 1082.82 Q89.5659 1082.82 92.6214 1087.43 Q95.7001 1092.01 95.7001 1100.76 Q95.7001 1109.49 92.6214 1114.1 Q89.5659 1118.68 83.7557 1118.68 Q77.9456 1118.68 74.8669 1114.1 Q71.8114 1109.49 71.8114 1100.76 Q71.8114 1092.01 74.8669 1087.43 Q77.9456 1082.82 83.7557 1082.82 Z" fill="#4c4c4c" fill-rule="evenodd" fill-opacity="1" /><path clip-path="url(#clip010)" d="M103.918 1112.13 L108.802 1112.13 L108.802 1118.01 L103.918 1118.01 L103.918 1112.13 Z" fill="#4c4c4c" fill-rule="evenodd" fill-opacity="1" /><path clip-path="url(#clip010)" d="M119.033 1083.45 L137.39 1083.45 L137.39 1087.38 L123.316 1087.38 L123.316 1095.85 Q124.334 1095.51 125.353 1095.35 Q126.371 1095.16 127.39 1095.16 Q133.177 1095.16 136.556 1098.33 Q139.936 1101.5 139.936 1106.92 Q139.936 1112.5 136.464 1115.6 Q132.992 1118.68 126.672 1118.68 Q124.496 1118.68 122.228 1118.31 Q119.982 1117.94 117.575 1117.2 L117.575 1112.5 Q119.658 1113.63 121.881 1114.19 Q124.103 1114.74 126.58 1114.74 Q130.584 1114.74 132.922 1112.64 Q135.26 1110.53 135.26 1106.92 Q135.26 1103.31 132.922 1101.2 Q130.584 1099.1 126.58 1099.1 Q124.705 1099.1 122.83 1099.51 Q120.978 1099.93 119.033 1100.81 L119.033 1083.45 Z" fill="#4c4c4c" fill-rule="evenodd" fill-opacity="1" /><path clip-path="url(#clip010)" d="M82.7604 767.765 Q79.1493 767.765 77.3206 771.329 Q75.515 774.871 75.515 782.001 Q75.515 789.107 77.3206 792.672 Q79.1493 796.214 82.7604 796.214 Q86.3946 796.214 88.2002 792.672 Q90.0289 789.107 90.0289 782.001 Q90.0289 774.871 88.2002 771.329 Q86.3946 767.765 82.7604 767.765 M82.7604 764.061 Q88.5705 764.061 91.6261 768.667 Q94.7048 773.251 94.7048 782.001 Q94.7048 790.728 91.6261 795.334 Q88.5705 799.917 82.7604 799.917 Q76.9502 799.917 73.8715 795.334 Q70.816 790.728 70.816 782.001 Q70.816 773.251 73.8715 768.667 Q76.9502 764.061 82.7604 764.061 Z" fill="#4c4c4c" fill-rule="evenodd" fill-opacity="1" /><path clip-path="url(#clip010)" d="M102.922 793.366 L107.807 793.366 L107.807 799.246 L102.922 799.246 L102.922 793.366 Z" fill="#4c4c4c" fill-rule="evenodd" fill-opacity="1" /><path clip-path="url(#clip010)" d="M127.992 767.765 Q124.381 767.765 122.552 771.329 Q120.746 774.871 120.746 782.001 Q120.746 789.107 122.552 792.672 Q124.381 796.214 127.992 796.214 Q131.626 796.214 133.431 792.672 Q135.26 789.107 135.26 782.001 Q135.26 774.871 133.431 771.329 Q131.626 767.765 127.992 767.765 M127.992 764.061 Q133.802 764.061 136.857 768.667 Q139.936 773.251 139.936 782.001 Q139.936 790.728 136.857 795.334 Q133.802 799.917 127.992 799.917 Q122.181 799.917 119.103 795.334 Q116.047 790.728 116.047 782.001 Q116.047 773.251 119.103 768.667 Q122.181 764.061 127.992 764.061 Z" fill="#4c4c4c" fill-rule="evenodd" fill-opacity="1" /><path clip-path="url(#clip010)" d="M83.7557 449.003 Q80.1447 449.003 78.316 452.568 Q76.5104 456.11 76.5104 463.239 Q76.5104 470.346 78.316 473.911 Q80.1447 477.452 83.7557 477.452 Q87.39 477.452 89.1955 473.911 Q91.0242 470.346 91.0242 463.239 Q91.0242 456.11 89.1955 452.568 Q87.39 449.003 83.7557 449.003 M83.7557 445.3 Q89.5659 445.3 92.6214 449.906 Q95.7001 454.489 95.7001 463.239 Q95.7001 471.966 92.6214 476.573 Q89.5659 481.156 83.7557 481.156 Q77.9456 481.156 74.8669 476.573 Q71.8114 471.966 71.8114 463.239 Q71.8114 454.489 74.8669 449.906 Q77.9456 445.3 83.7557 445.3 Z" fill="#4c4c4c" fill-rule="evenodd" fill-opacity="1" /><path clip-path="url(#clip010)" d="M103.918 474.605 L108.802 474.605 L108.802 480.485 L103.918 480.485 L103.918 474.605 Z" fill="#4c4c4c" fill-rule="evenodd" fill-opacity="1" /><path clip-path="url(#clip010)" d="M119.033 445.925 L137.39 445.925 L137.39 449.86 L123.316 449.86 L123.316 458.332 Q124.334 457.985 125.353 457.823 Q126.371 457.638 127.39 457.638 Q133.177 457.638 136.556 460.809 Q139.936 463.98 139.936 469.397 Q139.936 474.976 136.464 478.077 Q132.992 481.156 126.672 481.156 Q124.496 481.156 122.228 480.786 Q119.982 480.415 117.575 479.675 L117.575 474.976 Q119.658 476.11 121.881 476.665 Q124.103 477.221 126.58 477.221 Q130.584 477.221 132.922 475.114 Q135.26 473.008 135.26 469.397 Q135.26 465.786 132.922 463.679 Q130.584 461.573 126.58 461.573 Q124.705 461.573 122.83 461.989 Q120.978 462.406 119.033 463.286 L119.033 445.925 Z" fill="#4c4c4c" fill-rule="evenodd" fill-opacity="1" /><path clip-path="url(#clip010)" d="M73.5706 157.788 L81.2095 157.788 L81.2095 131.423 L72.8993 133.089 L72.8993 128.83 L81.1632 127.163 L85.8391 127.163 L85.8391 157.788 L93.4779 157.788 L93.4779 161.723 L73.5706 161.723 L73.5706 157.788 Z" fill="#4c4c4c" fill-rule="evenodd" fill-opacity="1" /><path clip-path="url(#clip010)" d="M102.922 155.844 L107.807 155.844 L107.807 161.723 L102.922 161.723 L102.922 155.844 Z" fill="#4c4c4c" fill-rule="evenodd" fill-opacity="1" /><path clip-path="url(#clip010)" d="M127.992 130.242 Q124.381 130.242 122.552 133.807 Q120.746 137.349 120.746 144.478 Q120.746 151.585 122.552 155.149 Q124.381 158.691 127.992 158.691 Q131.626 158.691 133.431 155.149 Q135.26 151.585 135.26 144.478 Q135.26 137.349 133.431 133.807 Q131.626 130.242 127.992 130.242 M127.992 126.538 Q133.802 126.538 136.857 131.145 Q139.936 135.728 139.936 144.478 Q139.936 153.205 136.857 157.811 Q133.802 162.395 127.992 162.395 Q122.181 162.395 119.103 157.811 Q116.047 153.205 116.047 144.478 Q116.047 135.728 119.103 131.145 Q122.181 126.538 127.992 126.538 Z" fill="#4c4c4c" fill-rule="evenodd" fill-opacity="1" /><path clip-path="url(#clip010)" d="M723.957 8.64 L732.666 8.64 L743.69 38.038 L754.772 8.64 L763.482 8.64 L763.482 51.84 L757.782 51.84 L757.782 13.9062 L746.642 43.5356 L740.768 43.5356 L729.628 13.9062 L729.628 51.84 L723.957 51.84 L723.957 8.64 Z" fill="#000000" fill-rule="evenodd" fill-opacity="1" /><path clip-path="url(#clip010)" d="M789.581 35.5496 Q783.129 35.5496 780.64 37.0253 Q778.152 38.501 778.152 42.06 Q778.152 44.8956 780.004 46.5738 Q781.884 48.2231 785.096 48.2231 Q789.523 48.2231 792.185 45.0981 Q794.876 41.9442 794.876 36.7359 L794.876 35.5496 L789.581 35.5496 M800.2 33.3505 L800.2 51.84 L794.876 51.84 L794.876 46.921 Q793.053 49.8724 790.333 51.2902 Q787.614 52.6791 783.678 52.6791 Q778.702 52.6791 775.75 49.9014 Q772.828 47.0947 772.828 42.4072 Q772.828 36.9385 776.474 34.1607 Q780.148 31.3829 787.411 31.3829 L794.876 31.3829 L794.876 30.8621 Q794.876 27.1874 792.446 25.1908 Q790.044 23.1654 785.675 23.1654 Q782.897 23.1654 780.264 23.8309 Q777.631 24.4964 775.2 25.8274 L775.2 20.9085 Q778.123 19.78 780.872 19.2302 Q783.621 18.6515 786.225 18.6515 Q793.256 18.6515 796.728 22.2973 Q800.2 25.9431 800.2 33.3505 Z" fill="#000000" fill-rule="evenodd" fill-opacity="1" /><path clip-path="url(#clip010)" d="M811.167 6.81709 L816.491 6.81709 L816.491 51.84 L811.167 51.84 L811.167 6.81709 Z" fill="#000000" fill-rule="evenodd" fill-opacity="1" /><path clip-path="url(#clip010)" d="M854.569 32.2799 L854.569 51.84 L849.245 51.84 L849.245 32.4535 Q849.245 27.8529 847.451 25.567 Q845.657 23.2811 842.069 23.2811 Q837.758 23.2811 835.27 26.03 Q832.781 28.7788 832.781 33.5241 L832.781 51.84 L827.428 51.84 L827.428 6.81709 L832.781 6.81709 L832.781 24.4675 Q834.691 21.545 837.266 20.0983 Q839.87 18.6515 843.256 18.6515 Q848.84 18.6515 851.705 22.1237 Q854.569 25.567 854.569 32.2799 Z" fill="#000000" fill-rule="evenodd" fill-opacity="1" /><path clip-path="url(#clip010)" d="M879.916 35.5496 Q873.464 35.5496 870.975 37.0253 Q868.487 38.501 868.487 42.06 Q868.487 44.8956 870.339 46.5738 Q872.22 48.2231 875.431 48.2231 Q879.858 48.2231 882.52 45.0981 Q885.211 41.9442 885.211 36.7359 L885.211 35.5496 L879.916 35.5496 M890.536 33.3505 L890.536 51.84 L885.211 51.84 L885.211 46.921 Q883.389 49.8724 880.669 51.2902 Q877.949 52.6791 874.014 52.6791 Q869.037 52.6791 866.085 49.9014 Q863.163 47.0947 863.163 42.4072 Q863.163 36.9385 866.809 34.1607 Q870.484 31.3829 877.746 31.3829 L885.211 31.3829 L885.211 30.8621 Q885.211 27.1874 882.781 25.1908 Q880.379 23.1654 876.01 23.1654 Q873.232 23.1654 870.599 23.8309 Q867.966 24.4964 865.536 25.8274 L865.536 20.9085 Q868.458 19.78 871.207 19.2302 Q873.956 18.6515 876.56 18.6515 Q883.591 18.6515 887.063 22.2973 Q890.536 25.9431 890.536 33.3505 Z" fill="#000000" fill-rule="evenodd" fill-opacity="1" /><path clip-path="url(#clip010)" d="M922.161 20.3876 L922.161 25.4223 Q919.905 24.2649 917.474 23.6862 Q915.043 23.1075 912.439 23.1075 Q908.475 23.1075 906.479 24.3228 Q904.511 25.5381 904.511 27.9686 Q904.511 29.8204 905.929 30.891 Q907.347 31.9327 911.629 32.8876 L913.452 33.2926 Q919.123 34.5079 921.496 36.7359 Q923.898 38.935 923.898 42.8991 Q923.898 47.4129 920.31 50.046 Q916.751 52.6791 910.501 52.6791 Q907.897 52.6791 905.061 52.1583 Q902.254 51.6664 899.129 50.6537 L899.129 45.156 Q902.081 46.6896 904.945 47.4708 Q907.81 48.2231 910.616 48.2231 Q914.378 48.2231 916.403 46.95 Q918.429 45.6479 918.429 43.3042 Q918.429 41.134 916.953 39.9766 Q915.506 38.8192 910.559 37.7486 L908.707 37.3146 Q903.759 36.273 901.56 34.1318 Q899.361 31.9616 899.361 28.2001 Q899.361 23.6283 902.601 21.1399 Q905.842 18.6515 911.803 18.6515 Q914.754 18.6515 917.358 19.0855 Q919.962 19.5196 922.161 20.3876 Z" fill="#000000" fill-rule="evenodd" fill-opacity="1" /><path clip-path="url(#clip010)" d="M967.618 6.81709 L967.618 11.2442 L962.526 11.2442 Q959.661 11.2442 958.533 12.4016 Q957.433 13.559 957.433 16.5682 L957.433 19.4328 L966.201 19.4328 L966.201 23.5705 L957.433 23.5705 L957.433 51.84 L952.08 51.84 L952.08 23.5705 L946.988 23.5705 L946.988 19.4328 L952.08 19.4328 L952.08 17.1758 Q952.08 11.765 954.598 9.30551 Q957.115 6.81709 962.584 6.81709 L967.618 6.81709 Z" fill="#000000" fill-rule="evenodd" fill-opacity="1" /><path clip-path="url(#clip010)" d="M984.632 23.1654 Q980.35 23.1654 977.861 26.5218 Q975.373 29.8494 975.373 35.6653 Q975.373 41.4813 977.832 44.8377 Q980.321 48.1653 984.632 48.1653 Q988.886 48.1653 991.374 44.8088 Q993.862 41.4523 993.862 35.6653 Q993.862 29.9072 991.374 26.5508 Q988.886 23.1654 984.632 23.1654 M984.632 18.6515 Q991.577 18.6515 995.541 23.1654 Q999.505 27.6792 999.505 35.6653 Q999.505 43.6225 995.541 48.1653 Q991.577 52.6791 984.632 52.6791 Q977.659 52.6791 973.695 48.1653 Q969.76 43.6225 969.76 35.6653 Q969.76 27.6792 973.695 23.1654 Q977.659 18.6515 984.632 18.6515 Z" fill="#000000" fill-rule="evenodd" fill-opacity="1" /><path clip-path="url(#clip010)" d="M1027.11 24.4096 Q1026.21 23.8888 1025.14 23.6573 Q1024.1 23.3969 1022.83 23.3969 Q1018.31 23.3969 1015.88 26.3482 Q1013.48 29.2707 1013.48 34.7683 L1013.48 51.84 L1008.13 51.84 L1008.13 19.4328 L1013.48 19.4328 L1013.48 24.4675 Q1015.16 21.5161 1017.85 20.0983 Q1020.54 18.6515 1024.39 18.6515 Q1024.94 18.6515 1025.6 18.7383 Q1026.27 18.7962 1027.08 18.9409 L1027.11 24.4096 Z" fill="#000000" fill-rule="evenodd" fill-opacity="1" /><path clip-path="url(#clip010)" d="M1056.88 25.6538 Q1058.88 22.0659 1061.66 20.3587 Q1064.44 18.6515 1068.2 18.6515 Q1073.26 18.6515 1076.01 22.2105 Q1078.76 25.7406 1078.76 32.2799 L1078.76 51.84 L1073.4 51.84 L1073.4 32.4535 Q1073.4 27.795 1071.76 25.5381 Q1070.11 23.2811 1066.72 23.2811 Q1062.58 23.2811 1060.18 26.03 Q1057.78 28.7788 1057.78 33.5241 L1057.78 51.84 L1052.43 51.84 L1052.43 32.4535 Q1052.43 27.7661 1050.78 25.5381 Q1049.13 23.2811 1045.69 23.2811 Q1041.61 23.2811 1039.2 26.0589 Q1036.8 28.8077 1036.8 33.5241 L1036.8 51.84 L1031.45 51.84 L1031.45 19.4328 L1036.8 19.4328 L1036.8 24.4675 Q1038.62 21.4872 1041.17 20.0693 Q1043.72 18.6515 1047.22 18.6515 Q1050.75 18.6515 1053.21 20.4455 Q1055.7 22.2395 1056.88 25.6538 Z" fill="#000000" fill-rule="evenodd" fill-opacity="1" /><path clip-path="url(#clip010)" d="M1104.1 35.5496 Q1097.65 35.5496 1095.16 37.0253 Q1092.68 38.501 1092.68 42.06 Q1092.68 44.8956 1094.53 46.5738 Q1096.41 48.2231 1099.62 48.2231 Q1104.05 48.2231 1106.71 45.0981 Q1109.4 41.9442 1109.4 36.7359 L1109.4 35.5496 L1104.1 35.5496 M1114.72 33.3505 L1114.72 51.84 L1109.4 51.84 L1109.4 46.921 Q1107.58 49.8724 1104.86 51.2902 Q1102.14 52.6791 1098.2 52.6791 Q1093.23 52.6791 1090.27 49.9014 Q1087.35 47.0947 1087.35 42.4072 Q1087.35 36.9385 1091 34.1607 Q1094.67 31.3829 1101.93 31.3829 L1109.4 31.3829 L1109.4 30.8621 Q1109.4 27.1874 1106.97 25.1908 Q1104.57 23.1654 1100.2 23.1654 Q1097.42 23.1654 1094.79 23.8309 Q1092.15 24.4964 1089.72 25.8274 L1089.72 20.9085 Q1092.65 19.78 1095.4 19.2302 Q1098.14 18.6515 1100.75 18.6515 Q1107.78 18.6515 1111.25 22.2973 Q1114.72 25.9431 1114.72 33.3505 Z" fill="#000000" fill-rule="evenodd" fill-opacity="1" /><path clip-path="url(#clip010)" d="M1147.02 24.3517 L1147.02 6.81709 L1152.34 6.81709 L1152.34 51.84 L1147.02 51.84 L1147.02 46.9789 Q1145.34 49.8724 1142.76 51.2902 Q1140.22 52.6791 1136.63 52.6791 Q1130.75 52.6791 1127.05 47.9916 Q1123.38 43.3042 1123.38 35.6653 Q1123.38 28.0265 1127.05 23.339 Q1130.75 18.6515 1136.63 18.6515 Q1140.22 18.6515 1142.76 20.0693 Q1145.34 21.4582 1147.02 24.3517 M1128.87 35.6653 Q1128.87 41.5391 1131.27 44.8956 Q1133.71 48.2231 1137.93 48.2231 Q1142.15 48.2231 1144.59 44.8956 Q1147.02 41.5391 1147.02 35.6653 Q1147.02 29.7915 1144.59 26.464 Q1142.15 23.1075 1137.93 23.1075 Q1133.71 23.1075 1131.27 26.464 Q1128.87 29.7915 1128.87 35.6653 Z" fill="#000000" fill-rule="evenodd" fill-opacity="1" /><path clip-path="url(#clip010)" d="M1178.03 35.5496 Q1171.58 35.5496 1169.09 37.0253 Q1166.6 38.501 1166.6 42.06 Q1166.6 44.8956 1168.46 46.5738 Q1170.34 48.2231 1173.55 48.2231 Q1177.98 48.2231 1180.64 45.0981 Q1183.33 41.9442 1183.33 36.7359 L1183.33 35.5496 L1178.03 35.5496 M1188.65 33.3505 L1188.65 51.84 L1183.33 51.84 L1183.33 46.921 Q1181.51 49.8724 1178.79 51.2902 Q1176.07 52.6791 1172.13 52.6791 Q1167.15 52.6791 1164.2 49.9014 Q1161.28 47.0947 1161.28 42.4072 Q1161.28 36.9385 1164.93 34.1607 Q1168.6 31.3829 1175.86 31.3829 L1183.33 31.3829 L1183.33 30.8621 Q1183.33 27.1874 1180.9 25.1908 Q1178.5 23.1654 1174.13 23.1654 Q1171.35 23.1654 1168.72 23.8309 Q1166.08 24.4964 1163.65 25.8274 L1163.65 20.9085 Q1166.58 19.78 1169.32 19.2302 Q1172.07 18.6515 1174.68 18.6515 Q1181.71 18.6515 1185.18 22.2973 Q1188.65 25.9431 1188.65 33.3505 Z" fill="#000000" fill-rule="evenodd" fill-opacity="1" /><path clip-path="url(#clip010)" d="M1220.28 20.3876 L1220.28 25.4223 Q1218.02 24.2649 1215.59 23.6862 Q1213.16 23.1075 1210.56 23.1075 Q1206.59 23.1075 1204.6 24.3228 Q1202.63 25.5381 1202.63 27.9686 Q1202.63 29.8204 1204.05 30.891 Q1205.46 31.9327 1209.75 32.8876 L1211.57 33.2926 Q1217.24 34.5079 1219.61 36.7359 Q1222.02 38.935 1222.02 42.8991 Q1222.02 47.4129 1218.43 50.046 Q1214.87 52.6791 1208.62 52.6791 Q1206.01 52.6791 1203.18 52.1583 Q1200.37 51.6664 1197.25 50.6537 L1197.25 45.156 Q1200.2 46.6896 1203.06 47.4708 Q1205.93 48.2231 1208.73 48.2231 Q1212.5 48.2231 1214.52 46.95 Q1216.55 45.6479 1216.55 43.3042 Q1216.55 41.134 1215.07 39.9766 Q1213.62 38.8192 1208.68 37.7486 L1206.82 37.3146 Q1201.88 36.273 1199.68 34.1318 Q1197.48 31.9616 1197.48 28.2001 Q1197.48 23.6283 1200.72 21.1399 Q1203.96 18.6515 1209.92 18.6515 Q1212.87 18.6515 1215.48 19.0855 Q1218.08 19.5196 1220.28 20.3876 Z" fill="#000000" fill-rule="evenodd" fill-opacity="1" /><path clip-path="url(#clip010)" d="M1254.48 46.9789 L1254.48 64.1663 L1249.13 64.1663 L1249.13 19.4328 L1254.48 19.4328 L1254.48 24.3517 Q1256.16 21.4582 1258.7 20.0693 Q1261.28 18.6515 1264.84 18.6515 Q1270.74 18.6515 1274.42 23.339 Q1278.12 28.0265 1278.12 35.6653 Q1278.12 43.3042 1274.42 47.9916 Q1270.74 52.6791 1264.84 52.6791 Q1261.28 52.6791 1258.7 51.2902 Q1256.16 49.8724 1254.48 46.9789 M1272.59 35.6653 Q1272.59 29.7915 1270.16 26.464 Q1267.76 23.1075 1263.54 23.1075 Q1259.31 23.1075 1256.88 26.464 Q1254.48 29.7915 1254.48 35.6653 Q1254.48 41.5391 1256.88 44.8956 Q1259.31 48.2231 1263.54 48.2231 Q1267.76 48.2231 1270.16 44.8956 Q1272.59 41.5391 1272.59 35.6653 Z" fill="#000000" fill-rule="evenodd" fill-opacity="1" /><path clip-path="url(#clip010)" d="M1299.5 23.1654 Q1295.22 23.1654 1292.73 26.5218 Q1290.24 29.8494 1290.24 35.6653 Q1290.24 41.4813 1292.7 44.8377 Q1295.19 48.1653 1299.5 48.1653 Q1303.76 48.1653 1306.25 44.8088 Q1308.73 41.4523 1308.73 35.6653 Q1308.73 29.9072 1306.25 26.5508 Q1303.76 23.1654 1299.5 23.1654 M1299.5 18.6515 Q1306.45 18.6515 1310.41 23.1654 Q1314.38 27.6792 1314.38 35.6653 Q1314.38 43.6225 1310.41 48.1653 Q1306.45 52.6791 1299.5 52.6791 Q1292.53 52.6791 1288.57 48.1653 Q1284.63 43.6225 1284.63 35.6653 Q1284.63 27.6792 1288.57 23.1654 Q1292.53 18.6515 1299.5 18.6515 Z" fill="#000000" fill-rule="evenodd" fill-opacity="1" /><path clip-path="url(#clip010)" d="M1341.98 24.4096 Q1341.08 23.8888 1340.01 23.6573 Q1338.97 23.3969 1337.7 23.3969 Q1333.18 23.3969 1330.75 26.3482 Q1328.35 29.2707 1328.35 34.7683 L1328.35 51.84 L1323 51.84 L1323 19.4328 L1328.35 19.4328 L1328.35 24.4675 Q1330.03 21.5161 1332.72 20.0983 Q1335.41 18.6515 1339.26 18.6515 Q1339.81 18.6515 1340.48 18.7383 Q1341.14 18.7962 1341.95 18.9409 L1341.98 24.4096 Z" fill="#000000" fill-rule="evenodd" fill-opacity="1" /><path clip-path="url(#clip010)" d="M1371.55 46.9789 L1371.55 64.1663 L1366.2 64.1663 L1366.2 19.4328 L1371.55 19.4328 L1371.55 24.3517 Q1373.23 21.4582 1375.78 20.0693 Q1378.35 18.6515 1381.91 18.6515 Q1387.81 18.6515 1391.49 23.339 Q1395.19 28.0265 1395.19 35.6653 Q1395.19 43.3042 1391.49 47.9916 Q1387.81 52.6791 1381.91 52.6791 Q1378.35 52.6791 1375.78 51.2902 Q1373.23 49.8724 1371.55 46.9789 M1389.66 35.6653 Q1389.66 29.7915 1387.23 26.464 Q1384.83 23.1075 1380.61 23.1075 Q1376.38 23.1075 1373.95 26.464 Q1371.55 29.7915 1371.55 35.6653 Q1371.55 41.5391 1373.95 44.8956 Q1376.38 48.2231 1380.61 48.2231 Q1384.83 48.2231 1387.23 44.8956 Q1389.66 41.5391 1389.66 35.6653 Z" fill="#000000" fill-rule="evenodd" fill-opacity="1" /><path clip-path="url(#clip010)" d="M1416.57 23.1654 Q1412.29 23.1654 1409.8 26.5218 Q1407.32 29.8494 1407.32 35.6653 Q1407.32 41.4813 1409.77 44.8377 Q1412.26 48.1653 1416.57 48.1653 Q1420.83 48.1653 1423.32 44.8088 Q1425.8 41.4523 1425.8 35.6653 Q1425.8 29.9072 1423.32 26.5508 Q1420.83 23.1654 1416.57 23.1654 M1416.57 18.6515 Q1423.52 18.6515 1427.48 23.1654 Q1431.45 27.6792 1431.45 35.6653 Q1431.45 43.6225 1427.48 48.1653 Q1423.52 52.6791 1416.57 52.6791 Q1409.6 52.6791 1405.64 48.1653 Q1401.7 43.6225 1401.7 35.6653 Q1401.7 27.6792 1405.64 23.1654 Q1409.6 18.6515 1416.57 18.6515 Z" fill="#000000" fill-rule="evenodd" fill-opacity="1" /><path clip-path="url(#clip010)" d="M1467.21 32.2799 L1467.21 51.84 L1461.89 51.84 L1461.89 32.4535 Q1461.89 27.8529 1460.09 25.567 Q1458.3 23.2811 1454.71 23.2811 Q1450.4 23.2811 1447.91 26.03 Q1445.42 28.7788 1445.42 33.5241 L1445.42 51.84 L1440.07 51.84 L1440.07 19.4328 L1445.42 19.4328 L1445.42 24.4675 Q1447.33 21.545 1449.91 20.0983 Q1452.51 18.6515 1455.9 18.6515 Q1461.48 18.6515 1464.35 22.1237 Q1467.21 25.567 1467.21 32.2799 Z" fill="#000000" fill-rule="evenodd" fill-opacity="1" /><path clip-path="url(#clip010)" d="M1483.1 10.2314 L1483.1 19.4328 L1494.06 19.4328 L1494.06 23.5705 L1483.1 23.5705 L1483.1 41.163 Q1483.1 45.1271 1484.17 46.2555 Q1485.27 47.384 1488.59 47.384 L1494.06 47.384 L1494.06 51.84 L1488.59 51.84 Q1482.43 51.84 1480.09 49.5541 Q1477.74 47.2393 1477.74 41.163 L1477.74 23.5705 L1473.84 23.5705 L1473.84 19.4328 L1477.74 19.4328 L1477.74 10.2314 L1483.1 10.2314 Z" fill="#000000" fill-rule="evenodd" fill-opacity="1" /><path clip-path="url(#clip010)" d="M1513.62 23.1654 Q1509.34 23.1654 1506.85 26.5218 Q1504.36 29.8494 1504.36 35.6653 Q1504.36 41.4813 1506.82 44.8377 Q1509.31 48.1653 1513.62 48.1653 Q1517.88 48.1653 1520.36 44.8088 Q1522.85 41.4523 1522.85 35.6653 Q1522.85 29.9072 1520.36 26.5508 Q1517.88 23.1654 1513.62 23.1654 M1513.62 18.6515 Q1520.57 18.6515 1524.53 23.1654 Q1528.5 27.6792 1528.5 35.6653 Q1528.5 43.6225 1524.53 48.1653 Q1520.57 52.6791 1513.62 52.6791 Q1506.65 52.6791 1502.69 48.1653 Q1498.75 43.6225 1498.75 35.6653 Q1498.75 27.6792 1502.69 23.1654 Q1506.65 18.6515 1513.62 18.6515 Z" fill="#000000" fill-rule="evenodd" fill-opacity="1" /><path clip-path="url(#clip010)" d="M1557.98 20.3876 L1557.98 25.4223 Q1555.72 24.2649 1553.29 23.6862 Q1550.86 23.1075 1548.26 23.1075 Q1544.29 23.1075 1542.3 24.3228 Q1540.33 25.5381 1540.33 27.9686 Q1540.33 29.8204 1541.75 30.891 Q1543.17 31.9327 1547.45 32.8876 L1549.27 33.2926 Q1554.94 34.5079 1557.31 36.7359 Q1559.72 38.935 1559.72 42.8991 Q1559.72 47.4129 1556.13 50.046 Q1552.57 52.6791 1546.32 52.6791 Q1543.71 52.6791 1540.88 52.1583 Q1538.07 51.6664 1534.95 50.6537 L1534.95 45.156 Q1537.9 46.6896 1540.76 47.4708 Q1543.63 48.2231 1546.43 48.2231 Q1550.2 48.2231 1552.22 46.95 Q1554.25 45.6479 1554.25 43.3042 Q1554.25 41.134 1552.77 39.9766 Q1551.32 38.8192 1546.38 37.7486 L1544.53 37.3146 Q1539.58 36.273 1537.38 34.1318 Q1535.18 31.9616 1535.18 28.2001 Q1535.18 23.6283 1538.42 21.1399 Q1541.66 18.6515 1547.62 18.6515 Q1550.57 18.6515 1553.18 19.0855 Q1555.78 19.5196 1557.98 20.3876 Z" fill="#000000" fill-rule="evenodd" fill-opacity="1" /><path clip-path="url(#clip010)" d="M1608.36 24.3517 L1608.36 6.81709 L1613.68 6.81709 L1613.68 51.84 L1608.36 51.84 L1608.36 46.9789 Q1606.68 49.8724 1604.1 51.2902 Q1601.56 52.6791 1597.97 52.6791 Q1592.09 52.6791 1588.39 47.9916 Q1584.72 43.3042 1584.72 35.6653 Q1584.72 28.0265 1588.39 23.339 Q1592.09 18.6515 1597.97 18.6515 Q1601.56 18.6515 1604.1 20.0693 Q1606.68 21.4582 1608.36 24.3517 M1590.21 35.6653 Q1590.21 41.5391 1592.62 44.8956 Q1595.05 48.2231 1599.27 48.2231 Q1603.49 48.2231 1605.93 44.8956 Q1608.36 41.5391 1608.36 35.6653 Q1608.36 29.7915 1605.93 26.464 Q1603.49 23.1075 1599.27 23.1075 Q1595.05 23.1075 1592.62 26.464 Q1590.21 29.7915 1590.21 35.6653 Z" fill="#000000" fill-rule="evenodd" fill-opacity="1" /><path clip-path="url(#clip010)" d="M1624.65 19.4328 L1629.97 19.4328 L1629.97 51.84 L1624.65 51.84 L1624.65 19.4328 M1624.65 6.81709 L1629.97 6.81709 L1629.97 13.559 L1624.65 13.559 L1624.65 6.81709 Z" fill="#000000" fill-rule="evenodd" fill-opacity="1" /><path clip-path="url(#clip010)" d="M1655.84 35.5496 Q1649.39 35.5496 1646.9 37.0253 Q1644.41 38.501 1644.41 42.06 Q1644.41 44.8956 1646.26 46.5738 Q1648.14 48.2231 1651.35 48.2231 Q1655.78 48.2231 1658.44 45.0981 Q1661.13 41.9442 1661.13 36.7359 L1661.13 35.5496 L1655.84 35.5496 M1666.46 33.3505 L1666.46 51.84 L1661.13 51.84 L1661.13 46.921 Q1659.31 49.8724 1656.59 51.2902 Q1653.87 52.6791 1649.94 52.6791 Q1644.96 52.6791 1642.01 49.9014 Q1639.08 47.0947 1639.08 42.4072 Q1639.08 36.9385 1642.73 34.1607 Q1646.41 31.3829 1653.67 31.3829 L1661.13 31.3829 L1661.13 30.8621 Q1661.13 27.1874 1658.7 25.1908 Q1656.3 23.1654 1651.93 23.1654 Q1649.15 23.1654 1646.52 23.8309 Q1643.89 24.4964 1641.46 25.8274 L1641.46 20.9085 Q1644.38 19.78 1647.13 19.2302 Q1649.88 18.6515 1652.48 18.6515 Q1659.51 18.6515 1662.99 22.2973 Q1666.46 25.9431 1666.46 33.3505 M1656.74 4.44442 L1662.49 4.44442 L1653.06 15.324 L1648.63 15.324 L1656.74 4.44442 Z" fill="#000000" fill-rule="evenodd" fill-opacity="1" /><path clip-path="url(#clip010)" d="M1698.75 24.3517 L1698.75 6.81709 L1704.07 6.81709 L1704.07 51.84 L1698.75 51.84 L1698.75 46.9789 Q1697.07 49.8724 1694.5 51.2902 Q1691.95 52.6791 1688.36 52.6791 Q1682.49 52.6791 1678.78 47.9916 Q1675.11 43.3042 1675.11 35.6653 Q1675.11 28.0265 1678.78 23.339 Q1682.49 18.6515 1688.36 18.6515 Q1691.95 18.6515 1694.5 20.0693 Q1697.07 21.4582 1698.75 24.3517 M1680.61 35.6653 Q1680.61 41.5391 1683.01 44.8956 Q1685.44 48.2231 1689.66 48.2231 Q1693.89 48.2231 1696.32 44.8956 Q1698.75 41.5391 1698.75 35.6653 Q1698.75 29.7915 1696.32 26.464 Q1693.89 23.1075 1689.66 23.1075 Q1685.44 23.1075 1683.01 26.464 Q1680.61 29.7915 1680.61 35.6653 Z" fill="#000000" fill-rule="evenodd" fill-opacity="1" /><path clip-path="url(#clip010)" d="M1715.04 19.4328 L1720.36 19.4328 L1720.36 51.84 L1715.04 51.84 L1715.04 19.4328 M1715.04 6.81709 L1720.36 6.81709 L1720.36 13.559 L1715.04 13.559 L1715.04 6.81709 Z" fill="#000000" fill-rule="evenodd" fill-opacity="1" /><path clip-path="url(#clip010)" d="M1754.82 20.677 L1754.82 25.6538 Q1752.57 24.4096 1750.28 23.802 Q1748.03 23.1654 1745.71 23.1654 Q1740.53 23.1654 1737.67 26.464 Q1734.8 29.7336 1734.8 35.6653 Q1734.8 41.597 1737.67 44.8956 Q1740.53 48.1653 1745.71 48.1653 Q1748.03 48.1653 1750.28 47.5576 Q1752.57 46.921 1754.82 45.6768 L1754.82 50.5958 Q1752.6 51.6375 1750.2 52.1583 Q1747.82 52.6791 1745.13 52.6791 Q1737.81 52.6791 1733.5 48.0784 Q1729.19 43.4778 1729.19 35.6653 Q1729.19 27.7371 1733.53 23.1943 Q1737.9 18.6515 1745.48 18.6515 Q1747.94 18.6515 1750.28 19.1724 Q1752.63 19.6642 1754.82 20.677 Z" fill="#000000" fill-rule="evenodd" fill-opacity="1" /><path clip-path="url(#clip010)" d="M1776.64 23.1654 Q1772.36 23.1654 1769.87 26.5218 Q1767.38 29.8494 1767.38 35.6653 Q1767.38 41.4813 1769.84 44.8377 Q1772.33 48.1653 1776.64 48.1653 Q1780.9 48.1653 1783.38 44.8088 Q1785.87 41.4523 1785.87 35.6653 Q1785.87 29.9072 1783.38 26.5508 Q1780.9 23.1654 1776.64 23.1654 M1776.64 18.6515 Q1783.59 18.6515 1787.55 23.1654 Q1791.51 27.6792 1791.51 35.6653 Q1791.51 43.6225 1787.55 48.1653 Q1783.59 52.6791 1776.64 52.6791 Q1769.67 52.6791 1765.7 48.1653 Q1761.77 43.6225 1761.77 35.6653 Q1761.77 27.6792 1765.7 23.1654 Q1769.67 18.6515 1776.64 18.6515 Z" fill="#000000" fill-rule="evenodd" fill-opacity="1" /><path clip-path="url(#clip010)" d="M1821 20.3876 L1821 25.4223 Q1818.74 24.2649 1816.31 23.6862 Q1813.88 23.1075 1811.28 23.1075 Q1807.31 23.1075 1805.32 24.3228 Q1803.35 25.5381 1803.35 27.9686 Q1803.35 29.8204 1804.77 30.891 Q1806.18 31.9327 1810.47 32.8876 L1812.29 33.2926 Q1817.96 34.5079 1820.33 36.7359 Q1822.74 38.935 1822.74 42.8991 Q1822.74 47.4129 1819.15 50.046 Q1815.59 52.6791 1809.34 52.6791 Q1806.73 52.6791 1803.9 52.1583 Q1801.09 51.6664 1797.97 50.6537 L1797.97 45.156 Q1800.92 46.6896 1803.78 47.4708 Q1806.65 48.2231 1809.45 48.2231 Q1813.22 48.2231 1815.24 46.95 Q1817.27 45.6479 1817.27 43.3042 Q1817.27 41.134 1815.79 39.9766 Q1814.34 38.8192 1809.4 37.7486 L1807.54 37.3146 Q1802.6 36.273 1800.4 34.1318 Q1798.2 31.9616 1798.2 28.2001 Q1798.2 23.6283 1801.44 21.1399 Q1804.68 18.6515 1810.64 18.6515 Q1813.59 18.6515 1816.2 19.0855 Q1818.8 19.5196 1821 20.3876 Z" fill="#000000" fill-rule="evenodd" fill-opacity="1" /><circle clip-path="url(#clip013)" cx="347.608" cy="781.966" r="14" fill="#009af9" fill-rule="evenodd" fill-opacity="1" stroke="#000000" stroke-opacity="1" stroke-width="0"/>
<circle clip-path="url(#clip013)" cx="810.477" cy="781.966" r="14" fill="#009af9" fill-rule="evenodd" fill-opacity="1" stroke="#000000" stroke-opacity="1" stroke-width="0"/>
<circle clip-path="url(#clip013)" cx="1273.35" cy="781.966" r="14" fill="#009af9" fill-rule="evenodd" fill-opacity="1" stroke="#000000" stroke-opacity="1" stroke-width="0"/>
<circle clip-path="url(#clip013)" cx="1736.21" cy="781.966" r="14" fill="#009af9" fill-rule="evenodd" fill-opacity="1" stroke="#000000" stroke-opacity="1" stroke-width="0"/>
<circle clip-path="url(#clip013)" cx="2199.08" cy="781.966" r="14" fill="#009af9" fill-rule="evenodd" fill-opacity="1" stroke="#000000" stroke-opacity="1" stroke-width="0"/>
<circle clip-path="url(#clip013)" cx="347.608" cy="781.966" r="21" fill="#e26f46" fill-rule="evenodd" fill-opacity="1" stroke="#000000" stroke-opacity="1" stroke-width="0"/>
<circle clip-path="url(#clip013)" cx="2199.08" cy="781.966" r="21" fill="#e26f46" fill-rule="evenodd" fill-opacity="1" stroke="#000000" stroke-opacity="1" stroke-width="0"/>
<path clip-path="url(#clip010)" d="M278.69 883.598 Q278.69 875.494 281.711 868.959 Q283 866.218 284.803 863.923 Q286.607 861.628 287.801 860.62 Q288.996 859.613 289.324 859.613 Q289.792 859.613 289.816 860.082 Q289.816 860.316 289.183 860.901 Q281.454 868.771 281.477 883.598 Q281.477 898.471 288.996 906.036 Q289.816 906.856 289.816 907.114 Q289.816 907.582 289.324 907.582 Q288.996 907.582 287.848 906.622 Q286.7 905.662 284.92 903.46 Q283.14 901.258 281.852 898.565 Q278.69 892.03 278.69 883.598 Z" fill="#000000" fill-rule="evenodd" fill-opacity="1" /><path clip-path="url(#clip010)" d="M315.938 877.414 Q315.938 878.749 315.118 879.546 Q314.322 880.342 313.315 880.342 Q312.425 880.342 311.956 879.827 Q311.488 879.311 311.488 878.656 Q311.488 878.375 311.605 878.023 Q311.722 877.648 311.98 877.203 Q312.261 876.758 312.846 876.431 Q313.432 876.103 314.228 876.056 Q314.064 875.892 314.017 875.868 Q313.666 875.587 313.01 875.494 Q312.917 875.447 312.589 875.447 Q310.973 875.447 309.333 876.641 Q307.717 877.812 305.726 880.038 Q303.22 882.637 301.604 883.598 Q308.701 884.535 308.701 888.634 Q308.701 889.313 308.513 890.133 Q308.138 891.679 308.138 892.803 Q308.138 895.051 309.661 895.051 Q311.137 895.051 312.073 893.552 Q313.034 892.053 313.83 889.125 Q313.947 888.587 314.064 888.423 Q314.181 888.259 314.509 888.259 Q315.095 888.259 315.095 888.727 Q314.556 891.468 313.362 893.576 Q311.839 896.129 309.567 896.129 Q307.67 896.129 306.405 894.817 Q305.164 893.482 305.164 891.374 Q305.164 890.859 305.351 889.688 Q305.492 889.219 305.492 888.68 Q305.492 887.58 304.883 886.76 Q304.274 885.917 303.29 885.495 Q302.306 885.073 301.486 884.886 Q300.69 884.675 299.917 884.605 Q297.575 894.513 297.247 895.122 Q297.036 895.543 296.568 895.824 Q296.099 896.129 295.607 896.129 Q295.139 896.129 294.671 895.801 Q294.226 895.496 294.226 894.77 Q294.226 894.396 294.413 893.716 L301.369 866.078 L301.51 865.141 Q301.51 864.86 301.393 864.719 Q301.299 864.555 300.737 864.438 Q300.198 864.321 299.121 864.321 Q298.676 864.321 298.465 864.298 Q298.278 864.274 298.114 864.157 Q297.95 864.017 297.95 863.736 Q297.95 863.337 298.114 863.127 Q298.301 862.892 298.442 862.845 Q298.582 862.799 298.863 862.775 Q299.261 862.752 300.596 862.635 Q301.931 862.494 303.079 862.4 Q304.227 862.307 304.719 862.307 Q305 862.307 305.14 862.447 Q305.304 862.564 305.328 862.705 L305.351 862.822 L300.362 883.059 Q302.423 882.239 305.679 878.609 Q309.45 874.393 312.682 874.393 Q314.205 874.393 315.071 875.33 Q315.938 876.243 315.938 877.414 Z" fill="#000000" fill-rule="evenodd" fill-opacity="1" /><path clip-path="url(#clip010)" d="M363.945 882.919 Q364.226 883.2 364.226 883.598 Q364.226 883.996 363.945 884.277 Q363.664 884.558 363.265 884.558 L333.238 884.558 Q332.84 884.558 332.559 884.277 Q332.278 883.996 332.278 883.598 Q332.278 883.2 332.559 882.919 Q332.84 882.637 333.238 882.637 L363.265 882.637 Q363.664 882.637 363.945 882.919 Z" fill="#000000" fill-rule="evenodd" fill-opacity="1" /><path clip-path="url(#clip010)" d="M382.529 868.209 L382.529 866.71 Q388.291 866.71 391.266 863.642 Q392.086 863.642 392.226 863.829 Q392.367 864.017 392.367 864.883 L392.367 891.796 Q392.367 893.224 393.069 893.669 Q393.772 894.114 396.84 894.114 L398.363 894.114 L398.363 895.59 Q396.676 895.45 390.587 895.45 Q384.497 895.45 382.834 895.59 L382.834 894.114 L384.356 894.114 Q387.378 894.114 388.104 893.693 Q388.83 893.248 388.83 891.796 L388.83 866.944 Q386.324 868.209 382.529 868.209 Z" fill="#000000" fill-rule="evenodd" fill-opacity="1" /><path clip-path="url(#clip010)" d="M405.511 907.114 Q405.511 906.88 406.12 906.294 Q413.85 898.424 413.85 883.598 Q413.85 868.725 406.425 861.206 Q405.511 860.339 405.511 860.082 Q405.511 859.613 405.98 859.613 Q406.308 859.613 407.455 860.574 Q408.626 861.534 410.383 863.736 Q412.163 865.937 413.475 868.631 Q416.637 875.166 416.637 883.598 Q416.637 891.702 413.615 898.237 Q412.327 900.977 410.524 903.273 Q408.72 905.568 407.526 906.575 Q406.331 907.582 405.98 907.582 Q405.511 907.582 405.511 907.114 Z" fill="#000000" fill-rule="evenodd" fill-opacity="1" /><path clip-path="url(#clip010)" d="
M278.69 920.265 L421.647 920.265 L421.647 917.705 L278.69 917.705  Z
  " fill="#000000" fill-rule="evenodd" fill-opacity="1"/>
<path clip-path="url(#clip010)" d="M323.69 972.8 Q323.69 971.933 323.76 971.676 Q323.854 971.418 324.229 971.02 L333.434 960.761 Q338.47 955.093 338.47 950.15 Q338.47 946.942 336.783 944.646 Q335.12 942.351 332.052 942.351 Q329.944 942.351 328.164 943.639 Q326.384 944.927 325.564 947.223 Q325.704 947.176 326.196 947.176 Q327.391 947.176 328.047 947.925 Q328.726 948.675 328.726 949.682 Q328.726 950.97 327.883 951.603 Q327.063 952.212 326.243 952.212 Q325.915 952.212 325.47 952.141 Q325.048 952.071 324.369 951.415 Q323.69 950.736 323.69 949.541 Q323.69 946.192 326.22 943.522 Q328.773 940.852 332.661 940.852 Q337.064 940.852 339.945 943.475 Q342.85 946.075 342.85 950.15 Q342.85 951.579 342.405 952.891 Q341.983 954.179 341.397 955.186 Q340.835 956.193 339.289 957.81 Q337.743 959.426 336.502 960.573 Q335.261 961.721 332.473 964.157 L327.391 969.099 L336.034 969.099 Q340.25 969.099 340.578 968.724 Q341.046 968.045 341.632 964.462 L342.85 964.462 L341.491 972.8 L323.69 972.8 Z" fill="#000000" fill-rule="evenodd" fill-opacity="1" /><path clip-path="url(#clip010)" d="M365.978 940.39 Q365.978 940.521 365.83 941.03 Q365.683 941.538 365.322 942.325 Q364.978 943.112 364.502 943.833 Q364.027 944.538 363.24 945.063 Q362.469 945.571 361.584 945.571 Q360.403 945.571 359.616 944.784 Q358.829 943.997 358.829 942.817 Q358.829 942.161 359.174 941.259 Q361.354 935.439 361.354 933.438 Q361.354 931.094 359.534 931.094 Q358.633 931.094 357.78 931.438 Q356.944 931.766 356.37 932.225 Q355.796 932.684 355.272 933.324 Q354.763 933.947 354.501 934.373 Q354.255 934.783 354.058 935.193 L353.632 936.865 Q353.534 937.324 353.058 939.111 L352.32 942.145 Q351.796 944.407 351.681 944.62 Q351.517 945.079 351.156 945.325 Q350.796 945.571 350.435 945.571 Q350.025 945.571 349.746 945.325 Q349.467 945.079 349.467 944.653 Q349.467 944.587 349.517 944.342 Q349.566 944.096 349.648 943.751 Q349.73 943.407 349.763 943.21 L351.714 935.455 Q352.074 934.045 352.156 933.602 Q352.255 933.143 352.255 932.635 Q352.255 931.094 351.205 931.094 Q350.353 931.094 349.795 932.11 Q349.238 933.127 348.762 935.094 Q348.615 935.635 348.517 935.75 Q348.435 935.865 348.189 935.865 Q347.779 935.849 347.779 935.521 Q347.779 935.439 347.91 934.898 Q348.041 934.357 348.287 933.586 Q348.549 932.799 348.795 932.274 Q349.008 931.881 349.123 931.7 Q349.254 931.504 349.566 931.127 Q349.894 930.733 350.32 930.553 Q350.763 930.356 351.304 930.356 Q352.517 930.356 353.402 931.143 Q354.288 931.914 354.403 933.274 Q356.583 930.356 359.633 930.356 Q361.436 930.356 362.469 931.307 Q363.502 932.258 363.502 933.947 Q363.502 934.34 363.42 934.848 Q363.355 935.34 363.191 935.963 Q363.043 936.586 362.912 937.062 Q362.781 937.537 362.518 938.308 Q362.256 939.062 362.141 939.39 Q362.027 939.718 361.748 940.489 Q361.486 941.243 361.453 941.325 Q360.846 942.85 360.846 943.719 Q360.846 944.292 361.026 944.555 Q361.223 944.817 361.65 944.817 Q362.797 944.817 363.65 943.686 Q364.519 942.538 365.076 940.669 Q365.207 940.259 365.273 940.161 Q365.355 940.062 365.584 940.062 Q365.978 940.062 365.978 940.39 Z" fill="#000000" fill-rule="evenodd" fill-opacity="1" /><path clip-path="url(#clip010)" d="M741.559 883.598 Q741.559 875.494 744.58 868.959 Q745.868 866.218 747.672 863.923 Q749.476 861.628 750.67 860.62 Q751.865 859.613 752.193 859.613 Q752.661 859.613 752.684 860.082 Q752.684 860.316 752.052 860.901 Q744.323 868.771 744.346 883.598 Q744.346 898.471 751.865 906.036 Q752.684 906.856 752.684 907.114 Q752.684 907.582 752.193 907.582 Q751.865 907.582 750.717 906.622 Q749.569 905.662 747.789 903.46 Q746.009 901.258 744.721 898.565 Q741.559 892.03 741.559 883.598 Z" fill="#000000" fill-rule="evenodd" fill-opacity="1" /><path clip-path="url(#clip010)" d="M778.807 877.414 Q778.807 878.749 777.987 879.546 Q777.191 880.342 776.184 880.342 Q775.294 880.342 774.825 879.827 Q774.357 879.311 774.357 878.656 Q774.357 878.375 774.474 878.023 Q774.591 877.648 774.848 877.203 Q775.13 876.758 775.715 876.431 Q776.301 876.103 777.097 876.056 Q776.933 875.892 776.886 875.868 Q776.535 875.587 775.879 875.494 Q775.785 875.447 775.457 875.447 Q773.841 875.447 772.202 876.641 Q770.586 877.812 768.595 880.038 Q766.088 882.637 764.472 883.598 Q771.569 884.535 771.569 888.634 Q771.569 889.313 771.382 890.133 Q771.007 891.679 771.007 892.803 Q771.007 895.051 772.53 895.051 Q774.005 895.051 774.942 893.552 Q775.902 892.053 776.699 889.125 Q776.816 888.587 776.933 888.423 Q777.05 888.259 777.378 888.259 Q777.964 888.259 777.964 888.727 Q777.425 891.468 776.23 893.576 Q774.708 896.129 772.436 896.129 Q770.539 896.129 769.274 894.817 Q768.033 893.482 768.033 891.374 Q768.033 890.859 768.22 889.688 Q768.36 889.219 768.36 888.68 Q768.36 887.58 767.751 886.76 Q767.143 885.917 766.159 885.495 Q765.175 885.073 764.355 884.886 Q763.559 884.675 762.786 884.605 Q760.444 894.513 760.116 895.122 Q759.905 895.543 759.437 895.824 Q758.968 896.129 758.476 896.129 Q758.008 896.129 757.539 895.801 Q757.094 895.496 757.094 894.77 Q757.094 894.396 757.282 893.716 L764.238 866.078 L764.379 865.141 Q764.379 864.86 764.262 864.719 Q764.168 864.555 763.606 864.438 Q763.067 864.321 761.99 864.321 Q761.545 864.321 761.334 864.298 Q761.146 864.274 760.982 864.157 Q760.818 864.017 760.818 863.736 Q760.818 863.337 760.982 863.127 Q761.17 862.892 761.31 862.845 Q761.451 862.799 761.732 862.775 Q762.13 862.752 763.465 862.635 Q764.8 862.494 765.948 862.4 Q767.096 862.307 767.588 862.307 Q767.869 862.307 768.009 862.447 Q768.173 862.564 768.197 862.705 L768.22 862.822 L763.231 883.059 Q765.292 882.239 768.548 878.609 Q772.319 874.393 775.551 874.393 Q777.074 874.393 777.94 875.33 Q778.807 876.243 778.807 877.414 Z" fill="#000000" fill-rule="evenodd" fill-opacity="1" /><path clip-path="url(#clip010)" d="M826.813 882.919 Q827.095 883.2 827.095 883.598 Q827.095 883.996 826.813 884.277 Q826.532 884.558 826.134 884.558 L796.107 884.558 Q795.708 884.558 795.427 884.277 Q795.146 883.996 795.146 883.598 Q795.146 883.2 795.427 882.919 Q795.708 882.637 796.107 882.637 L826.134 882.637 Q826.532 882.637 826.813 882.919 Z" fill="#000000" fill-rule="evenodd" fill-opacity="1" /><path clip-path="url(#clip010)" d="M845.398 868.209 L845.398 866.71 Q851.16 866.71 854.135 863.642 Q854.954 863.642 855.095 863.829 Q855.235 864.017 855.235 864.883 L855.235 891.796 Q855.235 893.224 855.938 893.669 Q856.641 894.114 859.709 894.114 L861.232 894.114 L861.232 895.59 Q859.545 895.45 853.455 895.45 Q847.365 895.45 845.702 895.59 L845.702 894.114 L847.225 894.114 Q850.246 894.114 850.973 893.693 Q851.699 893.248 851.699 891.796 L851.699 866.944 Q849.192 868.209 845.398 868.209 Z" fill="#000000" fill-rule="evenodd" fill-opacity="1" /><path clip-path="url(#clip010)" d="M868.38 907.114 Q868.38 906.88 868.989 906.294 Q876.718 898.424 876.718 883.598 Q876.718 868.725 869.293 861.206 Q868.38 860.339 868.38 860.082 Q868.38 859.613 868.848 859.613 Q869.176 859.613 870.324 860.574 Q871.495 861.534 873.252 863.736 Q875.032 865.937 876.344 868.631 Q879.506 875.166 879.506 883.598 Q879.506 891.702 876.484 898.237 Q875.196 900.977 873.392 903.273 Q871.589 905.568 870.394 906.575 Q869.2 907.582 868.848 907.582 Q868.38 907.582 868.38 907.114 Z" fill="#000000" fill-rule="evenodd" fill-opacity="1" /><path clip-path="url(#clip010)" d="
M741.559 920.265 L884.516 920.265 L884.516 917.705 L741.559 917.705  Z
  " fill="#000000" fill-rule="evenodd" fill-opacity="1"/>
<path clip-path="url(#clip010)" d="M786.559 972.8 Q786.559 971.933 786.629 971.676 Q786.723 971.418 787.097 971.02 L796.302 960.761 Q801.338 955.093 801.338 950.15 Q801.338 946.942 799.652 944.646 Q797.989 942.351 794.921 942.351 Q792.813 942.351 791.032 943.639 Q789.252 944.927 788.433 947.223 Q788.573 947.176 789.065 947.176 Q790.259 947.176 790.915 947.925 Q791.595 948.675 791.595 949.682 Q791.595 950.97 790.751 951.603 Q789.932 952.212 789.112 952.212 Q788.784 952.212 788.339 952.141 Q787.917 952.071 787.238 951.415 Q786.559 950.736 786.559 949.541 Q786.559 946.192 789.088 943.522 Q791.641 940.852 795.53 940.852 Q799.933 940.852 802.814 943.475 Q805.718 946.075 805.718 950.15 Q805.718 951.579 805.273 952.891 Q804.852 954.179 804.266 955.186 Q803.704 956.193 802.158 957.81 Q800.612 959.426 799.371 960.573 Q798.129 961.721 795.342 964.157 L790.259 969.099 L798.902 969.099 Q803.118 969.099 803.446 968.724 Q803.915 968.045 804.5 964.462 L805.718 964.462 L804.36 972.8 L786.559 972.8 Z" fill="#000000" fill-rule="evenodd" fill-opacity="1" /><path clip-path="url(#clip010)" d="M828.847 940.39 Q828.847 940.521 828.699 941.03 Q828.552 941.538 828.191 942.325 Q827.847 943.112 827.371 943.833 Q826.896 944.538 826.109 945.063 Q825.338 945.571 824.453 945.571 Q823.272 945.571 822.485 944.784 Q821.698 943.997 821.698 942.817 Q821.698 942.161 822.043 941.259 Q824.223 935.439 824.223 933.438 Q824.223 931.094 822.403 931.094 Q821.501 931.094 820.649 931.438 Q819.813 931.766 819.239 932.225 Q818.665 932.684 818.14 933.324 Q817.632 933.947 817.37 934.373 Q817.124 934.783 816.927 935.193 L816.501 936.865 Q816.402 937.324 815.927 939.111 L815.189 942.145 Q814.664 944.407 814.55 944.62 Q814.386 945.079 814.025 945.325 Q813.664 945.571 813.304 945.571 Q812.894 945.571 812.615 945.325 Q812.336 945.079 812.336 944.653 Q812.336 944.587 812.385 944.342 Q812.435 944.096 812.517 943.751 Q812.599 943.407 812.631 943.21 L814.582 935.455 Q814.943 934.045 815.025 933.602 Q815.124 933.143 815.124 932.635 Q815.124 931.094 814.074 931.094 Q813.222 931.094 812.664 932.11 Q812.107 933.127 811.631 935.094 Q811.484 935.635 811.385 935.75 Q811.303 935.865 811.057 935.865 Q810.647 935.849 810.647 935.521 Q810.647 935.439 810.779 934.898 Q810.91 934.357 811.156 933.586 Q811.418 932.799 811.664 932.274 Q811.877 931.881 811.992 931.7 Q812.123 931.504 812.435 931.127 Q812.763 930.733 813.189 930.553 Q813.632 930.356 814.173 930.356 Q815.386 930.356 816.271 931.143 Q817.157 931.914 817.271 933.274 Q819.452 930.356 822.502 930.356 Q824.305 930.356 825.338 931.307 Q826.371 932.258 826.371 933.947 Q826.371 934.34 826.289 934.848 Q826.223 935.34 826.059 935.963 Q825.912 936.586 825.781 937.062 Q825.65 937.537 825.387 938.308 Q825.125 939.062 825.01 939.39 Q824.895 939.718 824.617 940.489 Q824.354 941.243 824.322 941.325 Q823.715 942.85 823.715 943.719 Q823.715 944.292 823.895 944.555 Q824.092 944.817 824.518 944.817 Q825.666 944.817 826.519 943.686 Q827.388 942.538 827.945 940.669 Q828.076 940.259 828.142 940.161 Q828.224 940.062 828.453 940.062 Q828.847 940.062 828.847 940.39 Z" fill="#000000" fill-rule="evenodd" fill-opacity="1" /><path clip-path="url(#clip010)" d="M1284.45 881.75 Q1284.45 883.085 1283.63 883.882 Q1282.83 884.678 1281.82 884.678 Q1280.93 884.678 1280.47 884.163 Q1280 883.647 1280 882.992 Q1280 882.711 1280.11 882.359 Q1280.23 881.984 1280.49 881.539 Q1280.77 881.094 1281.36 880.766 Q1281.94 880.439 1282.74 880.392 Q1282.57 880.228 1282.53 880.204 Q1282.18 879.923 1281.52 879.83 Q1281.43 879.783 1281.1 879.783 Q1279.48 879.783 1277.84 880.977 Q1276.23 882.148 1274.23 884.373 Q1271.73 886.973 1270.11 887.934 Q1277.21 888.871 1277.21 892.97 Q1277.21 893.649 1277.02 894.469 Q1276.65 896.014 1276.65 897.139 Q1276.65 899.387 1278.17 899.387 Q1279.65 899.387 1280.58 897.888 Q1281.54 896.389 1282.34 893.461 Q1282.46 892.923 1282.57 892.759 Q1282.69 892.595 1283.02 892.595 Q1283.6 892.595 1283.6 893.063 Q1283.07 895.804 1281.87 897.912 Q1280.35 900.465 1278.08 900.465 Q1276.18 900.465 1274.91 899.153 Q1273.67 897.818 1273.67 895.71 Q1273.67 895.195 1273.86 894.024 Q1274 893.555 1274 893.016 Q1274 891.916 1273.39 891.096 Q1272.78 890.253 1271.8 889.831 Q1270.82 889.409 1270 889.222 Q1269.2 889.011 1268.43 888.941 Q1266.08 898.849 1265.76 899.458 Q1265.55 899.879 1265.08 900.16 Q1264.61 900.465 1264.12 900.465 Q1263.65 900.465 1263.18 900.137 Q1262.73 899.832 1262.73 899.106 Q1262.73 898.731 1262.92 898.052 L1269.88 870.414 L1270.02 869.477 Q1270.02 869.196 1269.9 869.055 Q1269.81 868.891 1269.25 868.774 Q1268.71 868.657 1267.63 868.657 Q1267.18 868.657 1266.97 868.634 Q1266.79 868.61 1266.62 868.493 Q1266.46 868.353 1266.46 868.071 Q1266.46 867.673 1266.62 867.462 Q1266.81 867.228 1266.95 867.181 Q1267.09 867.135 1267.37 867.111 Q1267.77 867.088 1269.11 866.971 Q1270.44 866.83 1271.59 866.736 Q1272.74 866.643 1273.23 866.643 Q1273.51 866.643 1273.65 866.783 Q1273.81 866.9 1273.84 867.041 L1273.86 867.158 L1268.87 887.395 Q1270.93 886.575 1274.19 882.945 Q1277.96 878.729 1281.19 878.729 Q1282.71 878.729 1283.58 879.666 Q1284.45 880.579 1284.45 881.75 Z" fill="#000000" fill-rule="evenodd" fill-opacity="1" /><path clip-path="url(#clip010)" d="
M1249.73 913.257 L1302.08 913.257 L1302.08 910.697 L1249.73 910.697  Z
  " fill="#000000" fill-rule="evenodd" fill-opacity="1"/>
<path clip-path="url(#clip010)" d="M1249.73 965.792 Q1249.73 964.925 1249.8 964.668 Q1249.9 964.41 1250.27 964.012 L1259.48 953.753 Q1264.51 948.085 1264.51 943.143 Q1264.51 939.934 1262.83 937.638 Q1261.16 935.343 1258.1 935.343 Q1255.99 935.343 1254.21 936.631 Q1252.43 937.919 1251.61 940.215 Q1251.75 940.168 1252.24 940.168 Q1253.44 940.168 1254.09 940.917 Q1254.77 941.667 1254.77 942.674 Q1254.77 943.962 1253.93 944.595 Q1253.11 945.204 1252.29 945.204 Q1251.96 945.204 1251.51 945.133 Q1251.09 945.063 1250.41 944.407 Q1249.73 943.728 1249.73 942.534 Q1249.73 939.184 1252.26 936.514 Q1254.82 933.844 1258.71 933.844 Q1263.11 933.844 1265.99 936.467 Q1268.89 939.067 1268.89 943.143 Q1268.89 944.571 1268.45 945.883 Q1268.03 947.171 1267.44 948.178 Q1266.88 949.186 1265.33 950.802 Q1263.79 952.418 1262.55 953.566 Q1261.31 954.713 1258.52 957.149 L1253.44 962.091 L1262.08 962.091 Q1266.29 962.091 1266.62 961.717 Q1267.09 961.037 1267.68 957.454 L1268.89 957.454 L1267.54 965.792 L1249.73 965.792 Z" fill="#000000" fill-rule="evenodd" fill-opacity="1" /><path clip-path="url(#clip010)" d="M1292.02 933.382 Q1292.02 933.514 1291.87 934.022 Q1291.73 934.53 1291.37 935.317 Q1291.02 936.104 1290.55 936.825 Q1290.07 937.53 1289.28 938.055 Q1288.51 938.563 1287.63 938.563 Q1286.45 938.563 1285.66 937.776 Q1284.87 936.989 1284.87 935.809 Q1284.87 935.153 1285.22 934.251 Q1287.4 928.431 1287.4 926.431 Q1287.4 924.086 1285.58 924.086 Q1284.68 924.086 1283.82 924.43 Q1282.99 924.758 1282.41 925.217 Q1281.84 925.676 1281.32 926.316 Q1280.81 926.939 1280.55 927.365 Q1280.3 927.775 1280.1 928.185 L1279.68 929.857 Q1279.58 930.316 1279.1 932.104 L1278.36 935.137 Q1277.84 937.399 1277.73 937.612 Q1277.56 938.072 1277.2 938.317 Q1276.84 938.563 1276.48 938.563 Q1276.07 938.563 1275.79 938.317 Q1275.51 938.072 1275.51 937.645 Q1275.51 937.58 1275.56 937.334 Q1275.61 937.088 1275.69 936.743 Q1275.77 936.399 1275.81 936.202 L1277.76 928.447 Q1278.12 927.037 1278.2 926.595 Q1278.3 926.135 1278.3 925.627 Q1278.3 924.086 1277.25 924.086 Q1276.4 924.086 1275.84 925.103 Q1275.28 926.119 1274.81 928.087 Q1274.66 928.628 1274.56 928.742 Q1274.48 928.857 1274.23 928.857 Q1273.82 928.841 1273.82 928.513 Q1273.82 928.431 1273.95 927.89 Q1274.09 927.349 1274.33 926.578 Q1274.59 925.791 1274.84 925.266 Q1275.05 924.873 1275.17 924.693 Q1275.3 924.496 1275.61 924.119 Q1275.94 923.725 1276.36 923.545 Q1276.81 923.348 1277.35 923.348 Q1278.56 923.348 1279.45 924.135 Q1280.33 924.906 1280.45 926.267 Q1282.63 923.348 1285.68 923.348 Q1287.48 923.348 1288.51 924.299 Q1289.55 925.25 1289.55 926.939 Q1289.55 927.332 1289.46 927.841 Q1289.4 928.332 1289.24 928.956 Q1289.09 929.579 1288.96 930.054 Q1288.83 930.53 1288.56 931.3 Q1288.3 932.054 1288.19 932.382 Q1288.07 932.71 1287.79 933.481 Q1287.53 934.235 1287.5 934.317 Q1286.89 935.842 1286.89 936.711 Q1286.89 937.285 1287.07 937.547 Q1287.27 937.809 1287.69 937.809 Q1288.84 937.809 1289.69 936.678 Q1290.56 935.53 1291.12 933.661 Q1291.25 933.251 1291.32 933.153 Q1291.4 933.054 1291.63 933.054 Q1292.02 933.054 1292.02 933.382 Z" fill="#000000" fill-rule="evenodd" fill-opacity="1" /><path clip-path="url(#clip010)" d="M1667.3 883.598 Q1667.3 875.494 1670.32 868.959 Q1671.61 866.218 1673.41 863.923 Q1675.21 861.628 1676.41 860.62 Q1677.6 859.613 1677.93 859.613 Q1678.4 859.613 1678.42 860.082 Q1678.42 860.316 1677.79 860.901 Q1670.06 868.771 1670.08 883.598 Q1670.08 898.471 1677.6 906.036 Q1678.42 906.856 1678.42 907.114 Q1678.42 907.582 1677.93 907.582 Q1677.6 907.582 1676.45 906.622 Q1675.31 905.662 1673.53 903.46 Q1671.75 901.258 1670.46 898.565 Q1667.3 892.03 1667.3 883.598 Z" fill="#000000" fill-rule="evenodd" fill-opacity="1" /><path clip-path="url(#clip010)" d="M1704.54 877.414 Q1704.54 878.749 1703.72 879.546 Q1702.93 880.342 1701.92 880.342 Q1701.03 880.342 1700.56 879.827 Q1700.09 879.311 1700.09 878.656 Q1700.09 878.375 1700.21 878.023 Q1700.33 877.648 1700.59 877.203 Q1700.87 876.758 1701.45 876.431 Q1702.04 876.103 1702.83 876.056 Q1702.67 875.892 1702.62 875.868 Q1702.27 875.587 1701.62 875.494 Q1701.52 875.447 1701.19 875.447 Q1699.58 875.447 1697.94 876.641 Q1696.32 877.812 1694.33 880.038 Q1691.83 882.637 1690.21 883.598 Q1697.31 884.535 1697.31 888.634 Q1697.31 889.313 1697.12 890.133 Q1696.74 891.679 1696.74 892.803 Q1696.74 895.051 1698.27 895.051 Q1699.74 895.051 1700.68 893.552 Q1701.64 892.053 1702.44 889.125 Q1702.55 888.587 1702.67 888.423 Q1702.79 888.259 1703.12 888.259 Q1703.7 888.259 1703.7 888.727 Q1703.16 891.468 1701.97 893.576 Q1700.45 896.129 1698.17 896.129 Q1696.28 896.129 1695.01 894.817 Q1693.77 893.482 1693.77 891.374 Q1693.77 890.859 1693.96 889.688 Q1694.1 889.219 1694.1 888.68 Q1694.1 887.58 1693.49 886.76 Q1692.88 885.917 1691.9 885.495 Q1690.91 885.073 1690.09 884.886 Q1689.3 884.675 1688.52 884.605 Q1686.18 894.513 1685.85 895.122 Q1685.64 895.543 1685.17 895.824 Q1684.71 896.129 1684.21 896.129 Q1683.75 896.129 1683.28 895.801 Q1682.83 895.496 1682.83 894.77 Q1682.83 894.396 1683.02 893.716 L1689.98 866.078 L1690.12 865.141 Q1690.12 864.86 1690 864.719 Q1689.91 864.555 1689.34 864.438 Q1688.8 864.321 1687.73 864.321 Q1687.28 864.321 1687.07 864.298 Q1686.88 864.274 1686.72 864.157 Q1686.56 864.017 1686.56 863.736 Q1686.56 863.337 1686.72 863.127 Q1686.91 862.892 1687.05 862.845 Q1687.19 862.799 1687.47 862.775 Q1687.87 862.752 1689.2 862.635 Q1690.54 862.494 1691.69 862.4 Q1692.83 862.307 1693.33 862.307 Q1693.61 862.307 1693.75 862.447 Q1693.91 862.564 1693.93 862.705 L1693.96 862.822 L1688.97 883.059 Q1691.03 882.239 1694.29 878.609 Q1698.06 874.393 1701.29 874.393 Q1702.81 874.393 1703.68 875.33 Q1704.54 876.243 1704.54 877.414 Z" fill="#000000" fill-rule="evenodd" fill-opacity="1" /><path clip-path="url(#clip010)" d="M1721.98 884.183 Q1720.88 884.183 1720.88 883.598 Q1720.88 883.012 1722.03 883.012 Q1722.17 883.012 1722.41 883.036 Q1722.66 883.059 1722.71 883.059 L1736.23 883.059 L1736.23 869.497 Q1736.23 869.451 1736.2 869.24 Q1736.18 869.006 1736.18 868.865 Q1736.18 867.717 1736.74 867.717 Q1737.33 867.717 1737.33 868.865 L1737.33 883.059 L1750.86 883.059 Q1750.91 883.059 1751.15 883.036 Q1751.38 883.012 1751.52 883.012 Q1752.62 883.012 1752.62 883.598 Q1752.64 884.183 1751.47 884.183 Q1751.33 884.183 1751.12 884.16 Q1750.91 884.136 1750.86 884.136 L1737.33 884.136 L1737.33 898.377 Q1737.33 899.478 1736.74 899.478 Q1736.18 899.478 1736.18 898.33 Q1736.18 898.19 1736.2 897.956 Q1736.23 897.745 1736.23 897.698 L1736.23 884.136 L1722.71 884.136 Q1722.66 884.136 1722.38 884.16 Q1722.13 884.183 1721.98 884.183 Z" fill="#000000" fill-rule="evenodd" fill-opacity="1" /><path clip-path="url(#clip010)" d="M1771.14 868.209 L1771.14 866.71 Q1776.9 866.71 1779.87 863.642 Q1780.69 863.642 1780.83 863.829 Q1780.97 864.017 1780.97 864.883 L1780.97 891.796 Q1780.97 893.224 1781.68 893.669 Q1782.38 894.114 1785.45 894.114 L1786.97 894.114 L1786.97 895.59 Q1785.28 895.45 1779.19 895.45 Q1773.1 895.45 1771.44 895.59 L1771.44 894.114 L1772.96 894.114 Q1775.98 894.114 1776.71 893.693 Q1777.44 893.248 1777.44 891.796 L1777.44 866.944 Q1774.93 868.209 1771.14 868.209 Z" fill="#000000" fill-rule="evenodd" fill-opacity="1" /><path clip-path="url(#clip010)" d="M1794.12 907.114 Q1794.12 906.88 1794.73 906.294 Q1802.46 898.424 1802.46 883.598 Q1802.46 868.725 1795.03 861.206 Q1794.12 860.339 1794.12 860.082 Q1794.12 859.613 1794.59 859.613 Q1794.91 859.613 1796.06 860.574 Q1797.23 861.534 1798.99 863.736 Q1800.77 865.937 1802.08 868.631 Q1805.24 875.166 1805.24 883.598 Q1805.24 891.702 1802.22 898.237 Q1800.93 900.977 1799.13 903.273 Q1797.33 905.568 1796.13 906.575 Q1794.94 907.582 1794.59 907.582 Q1794.12 907.582 1794.12 907.114 Z" fill="#000000" fill-rule="evenodd" fill-opacity="1" /><path clip-path="url(#clip010)" d="
M1667.3 920.265 L1810.25 920.265 L1810.25 917.705 L1667.3 917.705  Z
  " fill="#000000" fill-rule="evenodd" fill-opacity="1"/>
<path clip-path="url(#clip010)" d="M1712.3 972.8 Q1712.3 971.933 1712.37 971.676 Q1712.46 971.418 1712.83 971.02 L1722.04 960.761 Q1727.08 955.093 1727.08 950.15 Q1727.08 946.942 1725.39 944.646 Q1723.73 942.351 1720.66 942.351 Q1718.55 942.351 1716.77 943.639 Q1714.99 944.927 1714.17 947.223 Q1714.31 947.176 1714.8 947.176 Q1716 947.176 1716.65 947.925 Q1717.33 948.675 1717.33 949.682 Q1717.33 950.97 1716.49 951.603 Q1715.67 952.212 1714.85 952.212 Q1714.52 952.212 1714.08 952.141 Q1713.65 952.071 1712.98 951.415 Q1712.3 950.736 1712.3 949.541 Q1712.3 946.192 1714.83 943.522 Q1717.38 940.852 1721.27 940.852 Q1725.67 940.852 1728.55 943.475 Q1731.46 946.075 1731.46 950.15 Q1731.46 951.579 1731.01 952.891 Q1730.59 954.179 1730 955.186 Q1729.44 956.193 1727.9 957.81 Q1726.35 959.426 1725.11 960.573 Q1723.87 961.721 1721.08 964.157 L1716 969.099 L1724.64 969.099 Q1728.86 969.099 1729.18 968.724 Q1729.65 968.045 1730.24 964.462 L1731.46 964.462 L1730.1 972.8 L1712.3 972.8 Z" fill="#000000" fill-rule="evenodd" fill-opacity="1" /><path clip-path="url(#clip010)" d="M1754.58 940.39 Q1754.58 940.521 1754.44 941.03 Q1754.29 941.538 1753.93 942.325 Q1753.58 943.112 1753.11 943.833 Q1752.63 944.538 1751.85 945.063 Q1751.08 945.571 1750.19 945.571 Q1749.01 945.571 1748.22 944.784 Q1747.44 943.997 1747.44 942.817 Q1747.44 942.161 1747.78 941.259 Q1749.96 935.439 1749.96 933.438 Q1749.96 931.094 1748.14 931.094 Q1747.24 931.094 1746.39 931.438 Q1745.55 931.766 1744.98 932.225 Q1744.4 932.684 1743.88 933.324 Q1743.37 933.947 1743.11 934.373 Q1742.86 934.783 1742.66 935.193 L1742.24 936.865 Q1742.14 937.324 1741.66 939.111 L1740.93 942.145 Q1740.4 944.407 1740.29 944.62 Q1740.12 945.079 1739.76 945.325 Q1739.4 945.571 1739.04 945.571 Q1738.63 945.571 1738.35 945.325 Q1738.07 945.079 1738.07 944.653 Q1738.07 944.587 1738.12 944.342 Q1738.17 944.096 1738.25 943.751 Q1738.34 943.407 1738.37 943.21 L1740.32 935.455 Q1740.68 934.045 1740.76 933.602 Q1740.86 933.143 1740.86 932.635 Q1740.86 931.094 1739.81 931.094 Q1738.96 931.094 1738.4 932.11 Q1737.84 933.127 1737.37 935.094 Q1737.22 935.635 1737.12 935.75 Q1737.04 935.865 1736.79 935.865 Q1736.39 935.849 1736.39 935.521 Q1736.39 935.439 1736.52 934.898 Q1736.65 934.357 1736.89 933.586 Q1737.16 932.799 1737.4 932.274 Q1737.61 931.881 1737.73 931.7 Q1737.86 931.504 1738.17 931.127 Q1738.5 930.733 1738.93 930.553 Q1739.37 930.356 1739.91 930.356 Q1741.12 930.356 1742.01 931.143 Q1742.89 931.914 1743.01 933.274 Q1745.19 930.356 1748.24 930.356 Q1750.04 930.356 1751.08 931.307 Q1752.11 932.258 1752.11 933.947 Q1752.11 934.34 1752.03 934.848 Q1751.96 935.34 1751.8 935.963 Q1751.65 936.586 1751.52 937.062 Q1751.39 937.537 1751.12 938.308 Q1750.86 939.062 1750.75 939.39 Q1750.63 939.718 1750.35 940.489 Q1750.09 941.243 1750.06 941.325 Q1749.45 942.85 1749.45 943.719 Q1749.45 944.292 1749.63 944.555 Q1749.83 944.817 1750.26 944.817 Q1751.4 944.817 1752.26 943.686 Q1753.13 942.538 1753.68 940.669 Q1753.81 940.259 1753.88 940.161 Q1753.96 940.062 1754.19 940.062 Q1754.58 940.062 1754.58 940.39 Z" fill="#000000" fill-rule="evenodd" fill-opacity="1" /><path clip-path="url(#clip010)" d="M2129.21 883.598 Q2129.21 875.494 2132.23 868.959 Q2133.51 866.218 2135.32 863.923 Q2137.12 861.628 2138.32 860.62 Q2139.51 859.613 2139.84 859.613 Q2140.31 859.613 2140.33 860.082 Q2140.33 860.316 2139.7 860.901 Q2131.97 868.771 2131.99 883.598 Q2131.99 898.471 2139.51 906.036 Q2140.33 906.856 2140.33 907.114 Q2140.33 907.582 2139.84 907.582 Q2139.51 907.582 2138.36 906.622 Q2137.22 905.662 2135.44 903.46 Q2133.66 901.258 2132.37 898.565 Q2129.21 892.03 2129.21 883.598 Z" fill="#000000" fill-rule="evenodd" fill-opacity="1" /><path clip-path="url(#clip010)" d="M2166.45 877.414 Q2166.45 878.749 2165.63 879.546 Q2164.84 880.342 2163.83 880.342 Q2162.94 880.342 2162.47 879.827 Q2162 879.311 2162 878.656 Q2162 878.375 2162.12 878.023 Q2162.24 877.648 2162.49 877.203 Q2162.78 876.758 2163.36 876.431 Q2163.95 876.103 2164.74 876.056 Q2164.58 875.892 2164.53 875.868 Q2164.18 875.587 2163.53 875.494 Q2163.43 875.447 2163.1 875.447 Q2161.49 875.447 2159.85 876.641 Q2158.23 877.812 2156.24 880.038 Q2153.73 882.637 2152.12 883.598 Q2159.22 884.535 2159.22 888.634 Q2159.22 889.313 2159.03 890.133 Q2158.65 891.679 2158.65 892.803 Q2158.65 895.051 2160.18 895.051 Q2161.65 895.051 2162.59 893.552 Q2163.55 892.053 2164.35 889.125 Q2164.46 888.587 2164.58 888.423 Q2164.7 888.259 2165.02 888.259 Q2165.61 888.259 2165.61 888.727 Q2165.07 891.468 2163.88 893.576 Q2162.35 896.129 2160.08 896.129 Q2158.19 896.129 2156.92 894.817 Q2155.68 893.482 2155.68 891.374 Q2155.68 890.859 2155.87 889.688 Q2156.01 889.219 2156.01 888.68 Q2156.01 887.58 2155.4 886.76 Q2154.79 885.917 2153.81 885.495 Q2152.82 885.073 2152 884.886 Q2151.21 884.675 2150.43 884.605 Q2148.09 894.513 2147.76 895.122 Q2147.55 895.543 2147.08 895.824 Q2146.61 896.129 2146.12 896.129 Q2145.65 896.129 2145.19 895.801 Q2144.74 895.496 2144.74 894.77 Q2144.74 894.396 2144.93 893.716 L2151.88 866.078 L2152.02 865.141 Q2152.02 864.86 2151.91 864.719 Q2151.81 864.555 2151.25 864.438 Q2150.71 864.321 2149.64 864.321 Q2149.19 864.321 2148.98 864.298 Q2148.79 864.274 2148.63 864.157 Q2148.46 864.017 2148.46 863.736 Q2148.46 863.337 2148.63 863.127 Q2148.82 862.892 2148.96 862.845 Q2149.1 862.799 2149.38 862.775 Q2149.78 862.752 2151.11 862.635 Q2152.45 862.494 2153.59 862.4 Q2154.74 862.307 2155.23 862.307 Q2155.51 862.307 2155.66 862.447 Q2155.82 862.564 2155.84 862.705 L2155.87 862.822 L2150.88 883.059 Q2152.94 882.239 2156.19 878.609 Q2159.97 874.393 2163.2 874.393 Q2164.72 874.393 2165.59 875.33 Q2166.45 876.243 2166.45 877.414 Z" fill="#000000" fill-rule="evenodd" fill-opacity="1" /><path clip-path="url(#clip010)" d="M2183.89 884.183 Q2182.79 884.183 2182.79 883.598 Q2182.79 883.012 2183.94 883.012 Q2184.08 883.012 2184.32 883.036 Q2184.57 883.059 2184.62 883.059 L2198.13 883.059 L2198.13 869.497 Q2198.13 869.451 2198.11 869.24 Q2198.09 869.006 2198.09 868.865 Q2198.09 867.717 2198.65 867.717 Q2199.24 867.717 2199.24 868.865 L2199.24 883.059 L2212.77 883.059 Q2212.82 883.059 2213.05 883.036 Q2213.29 883.012 2213.43 883.012 Q2214.53 883.012 2214.53 883.598 Q2214.55 884.183 2213.38 884.183 Q2213.24 884.183 2213.03 884.16 Q2212.82 884.136 2212.77 884.136 L2199.24 884.136 L2199.24 898.377 Q2199.24 899.478 2198.65 899.478 Q2198.09 899.478 2198.09 898.33 Q2198.09 898.19 2198.11 897.956 Q2198.13 897.745 2198.13 897.698 L2198.13 884.136 L2184.62 884.136 Q2184.57 884.136 2184.29 884.16 Q2184.03 884.183 2183.89 884.183 Z" fill="#000000" fill-rule="evenodd" fill-opacity="1" /><path clip-path="url(#clip010)" d="M2233.04 895.59 Q2233.04 894.723 2233.11 894.466 Q2233.21 894.208 2233.58 893.81 L2242.79 883.551 Q2247.82 877.883 2247.82 872.941 Q2247.82 869.732 2246.14 867.436 Q2244.47 865.141 2241.41 865.141 Q2239.3 865.141 2237.52 866.429 Q2235.74 867.717 2234.92 870.013 Q2235.06 869.966 2235.55 869.966 Q2236.75 869.966 2237.4 870.715 Q2238.08 871.465 2238.08 872.472 Q2238.08 873.76 2237.24 874.393 Q2236.42 875.002 2235.6 875.002 Q2235.27 875.002 2234.82 874.931 Q2234.4 874.861 2233.72 874.205 Q2233.04 873.526 2233.04 872.332 Q2233.04 868.982 2235.57 866.312 Q2238.13 863.642 2242.02 863.642 Q2246.42 863.642 2249.3 866.265 Q2252.2 868.865 2252.2 872.941 Q2252.2 874.369 2251.76 875.681 Q2251.34 876.969 2250.75 877.976 Q2250.19 878.984 2248.64 880.6 Q2247.1 882.216 2245.86 883.364 Q2244.61 884.511 2241.83 886.947 L2236.75 891.889 L2245.39 891.889 Q2249.6 891.889 2249.93 891.515 Q2250.4 890.835 2250.99 887.252 L2252.2 887.252 L2250.85 895.59 L2233.04 895.59 Z" fill="#000000" fill-rule="evenodd" fill-opacity="1" /><path clip-path="url(#clip010)" d="M2257.95 907.114 Q2257.95 906.88 2258.56 906.294 Q2266.28 898.424 2266.28 883.598 Q2266.28 868.725 2258.86 861.206 Q2257.95 860.339 2257.95 860.082 Q2257.95 859.613 2258.41 859.613 Q2258.74 859.613 2259.89 860.574 Q2261.06 861.534 2262.82 863.736 Q2264.6 865.937 2265.91 868.631 Q2269.07 875.166 2269.07 883.598 Q2269.07 891.702 2266.05 898.237 Q2264.76 900.977 2262.96 903.273 Q2261.16 905.568 2259.96 906.575 Q2258.77 907.582 2258.41 907.582 Q2257.95 907.582 2257.95 907.114 Z" fill="#000000" fill-rule="evenodd" fill-opacity="1" /><path clip-path="url(#clip010)" d="
M2129.21 920.265 L2274.08 920.265 L2274.08 917.705 L2129.21 917.705  Z
  " fill="#000000" fill-rule="evenodd" fill-opacity="1"/>
<path clip-path="url(#clip010)" d="M2175.21 972.8 Q2175.21 971.933 2175.28 971.676 Q2175.37 971.418 2175.74 971.02 L2184.95 960.761 Q2189.98 955.093 2189.98 950.15 Q2189.98 946.942 2188.3 944.646 Q2186.64 942.351 2183.57 942.351 Q2181.46 942.351 2179.68 943.639 Q2177.9 944.927 2177.08 947.223 Q2177.22 947.176 2177.71 947.176 Q2178.91 947.176 2179.56 947.925 Q2180.24 948.675 2180.24 949.682 Q2180.24 950.97 2179.4 951.603 Q2178.58 952.212 2177.76 952.212 Q2177.43 952.212 2176.99 952.141 Q2176.56 952.071 2175.88 951.415 Q2175.21 950.736 2175.21 949.541 Q2175.21 946.192 2177.73 943.522 Q2180.29 940.852 2184.18 940.852 Q2188.58 940.852 2191.46 943.475 Q2194.36 946.075 2194.36 950.15 Q2194.36 951.579 2193.92 952.891 Q2193.5 954.179 2192.91 955.186 Q2192.35 956.193 2190.8 957.81 Q2189.26 959.426 2188.02 960.573 Q2186.78 961.721 2183.99 964.157 L2178.91 969.099 L2187.55 969.099 Q2191.76 969.099 2192.09 968.724 Q2192.56 968.045 2193.15 964.462 L2194.36 964.462 L2193.01 972.8 L2175.21 972.8 Z" fill="#000000" fill-rule="evenodd" fill-opacity="1" /><path clip-path="url(#clip010)" d="M2217.49 940.39 Q2217.49 940.521 2217.35 941.03 Q2217.2 941.538 2216.84 942.325 Q2216.49 943.112 2216.02 943.833 Q2215.54 944.538 2214.75 945.063 Q2213.98 945.571 2213.1 945.571 Q2211.92 945.571 2211.13 944.784 Q2210.34 943.997 2210.34 942.817 Q2210.34 942.161 2210.69 941.259 Q2212.87 935.439 2212.87 933.438 Q2212.87 931.094 2211.05 931.094 Q2210.15 931.094 2209.3 931.438 Q2208.46 931.766 2207.89 932.225 Q2207.31 932.684 2206.79 933.324 Q2206.28 933.947 2206.02 934.373 Q2205.77 934.783 2205.57 935.193 L2205.15 936.865 Q2205.05 937.324 2204.57 939.111 L2203.84 942.145 Q2203.31 944.407 2203.2 944.62 Q2203.03 945.079 2202.67 945.325 Q2202.31 945.571 2201.95 945.571 Q2201.54 945.571 2201.26 945.325 Q2200.98 945.079 2200.98 944.653 Q2200.98 944.587 2201.03 944.342 Q2201.08 944.096 2201.16 943.751 Q2201.24 943.407 2201.28 943.21 L2203.23 935.455 Q2203.59 934.045 2203.67 933.602 Q2203.77 933.143 2203.77 932.635 Q2203.77 931.094 2202.72 931.094 Q2201.87 931.094 2201.31 932.11 Q2200.75 933.127 2200.28 935.094 Q2200.13 935.635 2200.03 935.75 Q2199.95 935.865 2199.7 935.865 Q2199.29 935.849 2199.29 935.521 Q2199.29 935.439 2199.42 934.898 Q2199.56 934.357 2199.8 933.586 Q2200.06 932.799 2200.31 932.274 Q2200.52 931.881 2200.64 931.7 Q2200.77 931.504 2201.08 931.127 Q2201.41 930.733 2201.84 930.553 Q2202.28 930.356 2202.82 930.356 Q2204.03 930.356 2204.92 931.143 Q2205.8 931.914 2205.92 933.274 Q2208.1 930.356 2211.15 930.356 Q2212.95 930.356 2213.98 931.307 Q2215.02 932.258 2215.02 933.947 Q2215.02 934.34 2214.94 934.848 Q2214.87 935.34 2214.71 935.963 Q2214.56 936.586 2214.43 937.062 Q2214.3 937.537 2214.03 938.308 Q2213.77 939.062 2213.66 939.39 Q2213.54 939.718 2213.26 940.489 Q2213 941.243 2212.97 941.325 Q2212.36 942.85 2212.36 943.719 Q2212.36 944.292 2212.54 944.555 Q2212.74 944.817 2213.16 944.817 Q2214.31 944.817 2215.16 943.686 Q2216.03 942.538 2216.59 940.669 Q2216.72 940.259 2216.79 940.161 Q2216.87 940.062 2217.1 940.062 Q2217.49 940.062 2217.49 940.39 Z" fill="#000000" fill-rule="evenodd" fill-opacity="1" /><path clip-path="url(#clip010)" d="M242.842 611.854 Q242.842 610.987 242.912 610.73 Q243.006 610.472 243.38 610.074 L252.585 599.815 Q257.621 594.147 257.621 589.204 Q257.621 585.996 255.935 583.7 Q254.272 581.405 251.203 581.405 Q249.095 581.405 247.315 582.693 Q245.535 583.981 244.715 586.277 Q244.856 586.23 245.348 586.23 Q246.542 586.23 247.198 586.979 Q247.877 587.729 247.877 588.736 Q247.877 590.024 247.034 590.657 Q246.214 591.266 245.395 591.266 Q245.067 591.266 244.622 591.195 Q244.2 591.125 243.521 590.469 Q242.842 589.79 242.842 588.595 Q242.842 585.246 245.371 582.576 Q247.924 579.906 251.812 579.906 Q256.216 579.906 259.097 582.529 Q262.001 585.129 262.001 589.204 Q262.001 590.633 261.556 591.945 Q261.135 593.233 260.549 594.24 Q259.987 595.247 258.441 596.864 Q256.895 598.48 255.654 599.627 Q254.412 600.775 251.625 603.211 L246.542 608.153 L255.185 608.153 Q259.401 608.153 259.729 607.778 Q260.198 607.099 260.783 603.516 L262.001 603.516 L260.643 611.854 L242.842 611.854 Z" fill="#000000" fill-rule="evenodd" fill-opacity="1" /><path clip-path="url(#clip010)" d="M289.097 577.988 Q289.294 578.184 289.294 578.463 Q289.294 578.742 289.097 578.939 Q288.901 579.135 288.622 579.135 L267.603 579.135 Q267.324 579.135 267.127 578.939 Q266.93 578.742 266.93 578.463 Q266.93 578.184 267.127 577.988 Q267.324 577.791 267.603 577.791 L288.622 577.791 Q288.901 577.791 289.097 577.988 Z" fill="#000000" fill-rule="evenodd" fill-opacity="1" /><path clip-path="url(#clip010)" d="M292.793 586.858 Q292.793 586.251 292.843 586.071 Q292.908 585.89 293.17 585.612 L299.614 578.43 Q303.139 574.463 303.139 571.003 Q303.139 568.757 301.959 567.15 Q300.794 565.543 298.647 565.543 Q297.171 565.543 295.925 566.445 Q294.679 567.347 294.105 568.954 Q294.203 568.921 294.548 568.921 Q295.384 568.921 295.843 569.446 Q296.318 569.97 296.318 570.675 Q296.318 571.577 295.728 572.02 Q295.154 572.446 294.58 572.446 Q294.351 572.446 294.039 572.397 Q293.744 572.348 293.269 571.889 Q292.793 571.413 292.793 570.577 Q292.793 568.232 294.564 566.363 Q296.351 564.494 299.073 564.494 Q302.155 564.494 304.172 566.33 Q306.205 568.15 306.205 571.003 Q306.205 572.003 305.893 572.921 Q305.598 573.823 305.188 574.528 Q304.795 575.233 303.713 576.365 Q302.631 577.496 301.762 578.299 Q300.893 579.103 298.942 580.808 L295.384 584.267 L301.434 584.267 Q304.385 584.267 304.615 584.005 Q304.943 583.529 305.352 581.021 L306.205 581.021 L305.254 586.858 L292.793 586.858 Z" fill="#000000" fill-rule="evenodd" fill-opacity="1" /><path clip-path="url(#clip010)" d="M314.538 599.862 Q314.538 591.757 317.56 585.223 Q318.848 582.482 320.652 580.187 Q322.455 577.891 323.65 576.884 Q324.844 575.877 325.172 575.877 Q325.641 575.877 325.664 576.345 Q325.664 576.58 325.032 577.165 Q317.302 585.035 317.326 599.862 Q317.326 614.735 324.844 622.3 Q325.664 623.12 325.664 623.378 Q325.664 623.846 325.172 623.846 Q324.844 623.846 323.696 622.886 Q322.549 621.926 320.769 619.724 Q318.989 617.522 317.7 614.829 Q314.538 608.294 314.538 599.862 Z" fill="#000000" fill-rule="evenodd" fill-opacity="1" /><path clip-path="url(#clip010)" d="M351.786 593.678 Q351.786 595.013 350.967 595.81 Q350.17 596.606 349.163 596.606 Q348.273 596.606 347.805 596.091 Q347.336 595.575 347.336 594.919 Q347.336 594.638 347.453 594.287 Q347.57 593.912 347.828 593.467 Q348.109 593.022 348.695 592.694 Q349.28 592.366 350.077 592.32 Q349.913 592.156 349.866 592.132 Q349.514 591.851 348.859 591.757 Q348.765 591.711 348.437 591.711 Q346.821 591.711 345.181 592.905 Q343.565 594.076 341.574 596.301 Q339.068 598.901 337.452 599.862 Q344.549 600.799 344.549 604.897 Q344.549 605.577 344.362 606.396 Q343.987 607.942 343.987 609.067 Q343.987 611.315 345.509 611.315 Q346.985 611.315 347.922 609.816 Q348.882 608.317 349.678 605.389 Q349.796 604.851 349.913 604.687 Q350.03 604.523 350.358 604.523 Q350.943 604.523 350.943 604.991 Q350.405 607.732 349.21 609.84 Q347.688 612.393 345.416 612.393 Q343.518 612.393 342.254 611.081 Q341.012 609.746 341.012 607.638 Q341.012 607.123 341.2 605.951 Q341.34 605.483 341.34 604.944 Q341.34 603.843 340.731 603.024 Q340.122 602.18 339.138 601.759 Q338.155 601.337 337.335 601.15 Q336.538 600.939 335.765 600.869 Q333.423 610.776 333.095 611.385 Q332.885 611.807 332.416 612.088 Q331.948 612.393 331.456 612.393 Q330.987 612.393 330.519 612.065 Q330.074 611.76 330.074 611.034 Q330.074 610.659 330.261 609.98 L337.218 582.342 L337.358 581.405 Q337.358 581.124 337.241 580.983 Q337.147 580.819 336.585 580.702 Q336.047 580.585 334.969 580.585 Q334.524 580.585 334.313 580.562 Q334.126 580.538 333.962 580.421 Q333.798 580.28 333.798 579.999 Q333.798 579.601 333.962 579.39 Q334.149 579.156 334.29 579.109 Q334.43 579.062 334.711 579.039 Q335.11 579.016 336.445 578.899 Q337.78 578.758 338.928 578.664 Q340.075 578.571 340.567 578.571 Q340.848 578.571 340.989 578.711 Q341.153 578.828 341.176 578.969 L341.2 579.086 L336.211 599.323 Q338.272 598.503 341.527 594.873 Q345.298 590.657 348.531 590.657 Q350.053 590.657 350.92 591.594 Q351.786 592.507 351.786 593.678 Z" fill="#000000" fill-rule="evenodd" fill-opacity="1" /><path clip-path="url(#clip010)" d="M399.793 599.182 Q400.074 599.463 400.074 599.862 Q400.074 600.26 399.793 600.541 Q399.512 600.822 399.114 600.822 L369.086 600.822 Q368.688 600.822 368.407 600.541 Q368.126 600.26 368.126 599.862 Q368.126 599.463 368.407 599.182 Q368.688 598.901 369.086 598.901 L399.114 598.901 Q399.512 598.901 399.793 599.182 Z" fill="#000000" fill-rule="evenodd" fill-opacity="1" /><path clip-path="url(#clip010)" d="M418.378 584.473 L418.378 582.974 Q424.139 582.974 427.114 579.906 Q427.934 579.906 428.074 580.093 Q428.215 580.28 428.215 581.147 L428.215 608.059 Q428.215 609.488 428.918 609.933 Q429.62 610.378 432.689 610.378 L434.211 610.378 L434.211 611.854 Q432.525 611.713 426.435 611.713 Q420.345 611.713 418.682 611.854 L418.682 610.378 L420.205 610.378 Q423.226 610.378 423.952 609.957 Q424.678 609.512 424.678 608.059 L424.678 583.208 Q422.172 584.473 418.378 584.473 Z" fill="#000000" fill-rule="evenodd" fill-opacity="1" /><path clip-path="url(#clip010)" d="M441.36 623.378 Q441.36 623.144 441.969 622.558 Q449.698 614.688 449.698 599.862 Q449.698 584.988 442.273 577.47 Q441.36 576.603 441.36 576.345 Q441.36 575.877 441.828 575.877 Q442.156 575.877 443.304 576.837 Q444.475 577.798 446.231 579.999 Q448.012 582.201 449.323 584.895 Q452.485 591.43 452.485 599.862 Q452.485 607.966 449.464 614.501 Q448.176 617.241 446.372 619.536 Q444.568 621.832 443.374 622.839 Q442.179 623.846 441.828 623.846 Q441.36 623.846 441.36 623.378 Z" fill="#000000" fill-rule="evenodd" fill-opacity="1" /><path clip-path="url(#clip010)" d="
M242.842 636.529 L457.495 636.529 L457.495 633.969 L242.842 633.969  Z
  " fill="#000000" fill-rule="evenodd" fill-opacity="1"/>
<path clip-path="url(#clip010)" d="M292.842 694.285 Q292.842 693.419 292.912 693.161 Q293.006 692.903 293.38 692.505 L302.585 682.246 Q307.621 676.578 307.621 671.636 Q307.621 668.427 305.935 666.132 Q304.272 663.836 301.203 663.836 Q299.095 663.836 297.315 665.124 Q295.535 666.413 294.715 668.708 Q294.856 668.661 295.348 668.661 Q296.542 668.661 297.198 669.411 Q297.877 670.16 297.877 671.167 Q297.877 672.456 297.034 673.088 Q296.214 673.697 295.395 673.697 Q295.067 673.697 294.622 673.627 Q294.2 673.556 293.521 672.901 Q292.842 672.221 292.842 671.027 Q292.842 667.677 295.371 665.007 Q297.924 662.337 301.812 662.337 Q306.216 662.337 309.097 664.96 Q312.001 667.56 312.001 671.636 Q312.001 673.065 311.556 674.376 Q311.135 675.664 310.549 676.672 Q309.987 677.679 308.441 679.295 Q306.895 680.911 305.654 682.059 Q304.412 683.207 301.625 685.642 L296.542 690.585 L305.185 690.585 Q309.401 690.585 309.729 690.21 Q310.198 689.531 310.783 685.947 L312.001 685.947 L310.643 694.285 L292.842 694.285 Z" fill="#000000" fill-rule="evenodd" fill-opacity="1" /><path clip-path="url(#clip010)" d="M335.13 664.113 Q335.13 664.245 334.982 664.753 Q334.835 665.261 334.474 666.048 Q334.13 666.835 333.654 667.557 Q333.179 668.262 332.392 668.786 Q331.621 669.294 330.736 669.294 Q329.555 669.294 328.768 668.507 Q327.981 667.72 327.981 666.54 Q327.981 665.884 328.325 664.982 Q330.506 659.162 330.506 657.162 Q330.506 654.817 328.686 654.817 Q327.784 654.817 326.932 655.161 Q326.096 655.489 325.522 655.948 Q324.948 656.407 324.423 657.047 Q323.915 657.67 323.653 658.096 Q323.407 658.506 323.21 658.916 L322.784 660.588 Q322.685 661.047 322.21 662.835 L321.472 665.868 Q320.947 668.13 320.833 668.344 Q320.669 668.803 320.308 669.049 Q319.947 669.294 319.587 669.294 Q319.177 669.294 318.898 669.049 Q318.619 668.803 318.619 668.376 Q318.619 668.311 318.668 668.065 Q318.718 667.819 318.8 667.475 Q318.881 667.13 318.914 666.933 L320.865 659.178 Q321.226 657.768 321.308 657.326 Q321.406 656.867 321.406 656.358 Q321.406 654.817 320.357 654.817 Q319.505 654.817 318.947 655.834 Q318.39 656.85 317.914 658.818 Q317.767 659.359 317.668 659.473 Q317.586 659.588 317.34 659.588 Q316.93 659.572 316.93 659.244 Q316.93 659.162 317.062 658.621 Q317.193 658.08 317.439 657.309 Q317.701 656.522 317.947 655.998 Q318.16 655.604 318.275 655.424 Q318.406 655.227 318.718 654.85 Q319.045 654.456 319.472 654.276 Q319.914 654.079 320.455 654.079 Q321.669 654.079 322.554 654.866 Q323.439 655.637 323.554 656.998 Q325.735 654.079 328.784 654.079 Q330.588 654.079 331.621 655.03 Q332.654 655.981 332.654 657.67 Q332.654 658.063 332.572 658.572 Q332.506 659.064 332.342 659.687 Q332.195 660.31 332.064 660.785 Q331.932 661.261 331.67 662.031 Q331.408 662.785 331.293 663.113 Q331.178 663.441 330.9 664.212 Q330.637 664.966 330.604 665.048 Q329.998 666.573 329.998 667.442 Q329.998 668.016 330.178 668.278 Q330.375 668.54 330.801 668.54 Q331.949 668.54 332.801 667.409 Q333.67 666.261 334.228 664.392 Q334.359 663.982 334.425 663.884 Q334.507 663.785 334.736 663.785 Q335.13 663.785 335.13 664.113 Z" fill="#000000" fill-rule="evenodd" fill-opacity="1" /><path clip-path="url(#clip010)" d="M368.348 660.047 Q368.544 660.244 368.544 660.523 Q368.544 660.801 368.348 660.998 Q368.151 661.195 367.872 661.195 L346.853 661.195 Q346.574 661.195 346.377 660.998 Q346.181 660.801 346.181 660.523 Q346.181 660.244 346.377 660.047 Q346.574 659.851 346.853 659.851 L367.872 659.851 Q368.151 659.851 368.348 660.047 Z" fill="#000000" fill-rule="evenodd" fill-opacity="1" /><path clip-path="url(#clip010)" d="M381.357 668.917 Q381.357 668.311 381.406 668.13 Q381.472 667.95 381.734 667.671 L388.178 660.49 Q391.703 656.522 391.703 653.063 Q391.703 650.816 390.522 649.21 Q389.358 647.603 387.21 647.603 Q385.735 647.603 384.488 648.505 Q383.242 649.406 382.669 651.013 Q382.767 650.98 383.111 650.98 Q383.947 650.98 384.407 651.505 Q384.882 652.03 384.882 652.735 Q384.882 653.637 384.292 654.079 Q383.718 654.506 383.144 654.506 Q382.914 654.506 382.603 654.456 Q382.308 654.407 381.832 653.948 Q381.357 653.473 381.357 652.636 Q381.357 650.292 383.128 648.423 Q384.915 646.554 387.636 646.554 Q390.719 646.554 392.736 648.39 Q394.769 650.21 394.769 653.063 Q394.769 654.063 394.457 654.981 Q394.162 655.883 393.752 656.588 Q393.359 657.293 392.276 658.424 Q391.194 659.555 390.325 660.359 Q389.456 661.162 387.505 662.867 L383.947 666.327 L389.997 666.327 Q392.949 666.327 393.178 666.065 Q393.506 665.589 393.916 663.08 L394.769 663.08 L393.818 668.917 L381.357 668.917 Z" fill="#000000" fill-rule="evenodd" fill-opacity="1" /><path clip-path="url(#clip010)" d="M2051 611.854 Q2051 610.987 2051.07 610.73 Q2051.17 610.472 2051.54 610.074 L2060.75 599.815 Q2065.78 594.147 2065.78 589.204 Q2065.78 585.996 2064.1 583.7 Q2062.43 581.405 2059.36 581.405 Q2057.26 581.405 2055.48 582.693 Q2053.7 583.981 2052.88 586.277 Q2053.02 586.23 2053.51 586.23 Q2054.7 586.23 2055.36 586.979 Q2056.04 587.729 2056.04 588.736 Q2056.04 590.024 2055.2 590.657 Q2054.38 591.266 2053.56 591.266 Q2053.23 591.266 2052.78 591.195 Q2052.36 591.125 2051.68 590.469 Q2051 589.79 2051 588.595 Q2051 585.246 2053.53 582.576 Q2056.09 579.906 2059.97 579.906 Q2064.38 579.906 2067.26 582.529 Q2070.16 585.129 2070.16 589.204 Q2070.16 590.633 2069.72 591.945 Q2069.3 593.233 2068.71 594.24 Q2068.15 595.247 2066.6 596.864 Q2065.06 598.48 2063.81 599.627 Q2062.57 600.775 2059.79 603.211 L2054.7 608.153 L2063.35 608.153 Q2067.56 608.153 2067.89 607.778 Q2068.36 607.099 2068.94 603.516 L2070.16 603.516 L2068.8 611.854 L2051 611.854 Z" fill="#000000" fill-rule="evenodd" fill-opacity="1" /><path clip-path="url(#clip010)" d="M2097.26 577.988 Q2097.46 578.184 2097.46 578.463 Q2097.46 578.742 2097.26 578.939 Q2097.06 579.135 2096.78 579.135 L2075.76 579.135 Q2075.48 579.135 2075.29 578.939 Q2075.09 578.742 2075.09 578.463 Q2075.09 578.184 2075.29 577.988 Q2075.48 577.791 2075.76 577.791 L2096.78 577.791 Q2097.06 577.791 2097.26 577.988 Z" fill="#000000" fill-rule="evenodd" fill-opacity="1" /><path clip-path="url(#clip010)" d="M2100.95 586.858 Q2100.95 586.251 2101 586.071 Q2101.07 585.89 2101.33 585.612 L2107.77 578.43 Q2111.3 574.463 2111.3 571.003 Q2111.3 568.757 2110.12 567.15 Q2108.96 565.543 2106.81 565.543 Q2105.33 565.543 2104.09 566.445 Q2102.84 567.347 2102.27 568.954 Q2102.36 568.921 2102.71 568.921 Q2103.54 568.921 2104 569.446 Q2104.48 569.97 2104.48 570.675 Q2104.48 571.577 2103.89 572.02 Q2103.32 572.446 2102.74 572.446 Q2102.51 572.446 2102.2 572.397 Q2101.91 572.348 2101.43 571.889 Q2100.95 571.413 2100.95 570.577 Q2100.95 568.232 2102.73 566.363 Q2104.51 564.494 2107.23 564.494 Q2110.32 564.494 2112.33 566.33 Q2114.37 568.15 2114.37 571.003 Q2114.37 572.003 2114.05 572.921 Q2113.76 573.823 2113.35 574.528 Q2112.96 575.233 2111.87 576.365 Q2110.79 577.496 2109.92 578.299 Q2109.05 579.103 2107.1 580.808 L2103.54 584.267 L2109.59 584.267 Q2112.55 584.267 2112.78 584.005 Q2113.1 583.529 2113.51 581.021 L2114.37 581.021 L2113.42 586.858 L2100.95 586.858 Z" fill="#000000" fill-rule="evenodd" fill-opacity="1" /><path clip-path="url(#clip010)" d="M2122.7 599.862 Q2122.7 591.757 2125.72 585.223 Q2127.01 582.482 2128.81 580.187 Q2130.62 577.891 2131.81 576.884 Q2133.01 575.877 2133.33 575.877 Q2133.8 575.877 2133.82 576.345 Q2133.82 576.58 2133.19 577.165 Q2125.46 585.035 2125.49 599.862 Q2125.49 614.735 2133.01 622.3 Q2133.82 623.12 2133.82 623.378 Q2133.82 623.846 2133.33 623.846 Q2133.01 623.846 2131.86 622.886 Q2130.71 621.926 2128.93 619.724 Q2127.15 617.522 2125.86 614.829 Q2122.7 608.294 2122.7 599.862 Z" fill="#000000" fill-rule="evenodd" fill-opacity="1" /><path clip-path="url(#clip010)" d="M2159.95 593.678 Q2159.95 595.013 2159.13 595.81 Q2158.33 596.606 2157.32 596.606 Q2156.43 596.606 2155.97 596.091 Q2155.5 595.575 2155.5 594.919 Q2155.5 594.638 2155.61 594.287 Q2155.73 593.912 2155.99 593.467 Q2156.27 593.022 2156.86 592.694 Q2157.44 592.366 2158.24 592.32 Q2158.07 592.156 2158.03 592.132 Q2157.68 591.851 2157.02 591.757 Q2156.93 591.711 2156.6 591.711 Q2154.98 591.711 2153.34 592.905 Q2151.73 594.076 2149.74 596.301 Q2147.23 598.901 2145.61 599.862 Q2152.71 600.799 2152.71 604.897 Q2152.71 605.577 2152.52 606.396 Q2152.15 607.942 2152.15 609.067 Q2152.15 611.315 2153.67 611.315 Q2155.15 611.315 2156.08 609.816 Q2157.04 608.317 2157.84 605.389 Q2157.96 604.851 2158.07 604.687 Q2158.19 604.523 2158.52 604.523 Q2159.1 604.523 2159.1 604.991 Q2158.57 607.732 2157.37 609.84 Q2155.85 612.393 2153.58 612.393 Q2151.68 612.393 2150.41 611.081 Q2149.17 609.746 2149.17 607.638 Q2149.17 607.123 2149.36 605.951 Q2149.5 605.483 2149.5 604.944 Q2149.5 603.843 2148.89 603.024 Q2148.28 602.18 2147.3 601.759 Q2146.32 601.337 2145.5 601.15 Q2144.7 600.939 2143.93 600.869 Q2141.58 610.776 2141.26 611.385 Q2141.05 611.807 2140.58 612.088 Q2140.11 612.393 2139.62 612.393 Q2139.15 612.393 2138.68 612.065 Q2138.23 611.76 2138.23 611.034 Q2138.23 610.659 2138.42 609.98 L2145.38 582.342 L2145.52 581.405 Q2145.52 581.124 2145.4 580.983 Q2145.31 580.819 2144.75 580.702 Q2144.21 580.585 2143.13 580.585 Q2142.69 580.585 2142.47 580.562 Q2142.29 580.538 2142.12 580.421 Q2141.96 580.28 2141.96 579.999 Q2141.96 579.601 2142.12 579.39 Q2142.31 579.156 2142.45 579.109 Q2142.59 579.062 2142.87 579.039 Q2143.27 579.016 2144.61 578.899 Q2145.94 578.758 2147.09 578.664 Q2148.24 578.571 2148.73 578.571 Q2149.01 578.571 2149.15 578.711 Q2149.31 578.828 2149.34 578.969 L2149.36 579.086 L2144.37 599.323 Q2146.43 598.503 2149.69 594.873 Q2153.46 590.657 2156.69 590.657 Q2158.21 590.657 2159.08 591.594 Q2159.95 592.507 2159.95 593.678 Z" fill="#000000" fill-rule="evenodd" fill-opacity="1" /><path clip-path="url(#clip010)" d="M2207.95 599.182 Q2208.24 599.463 2208.24 599.862 Q2208.24 600.26 2207.95 600.541 Q2207.67 600.822 2207.27 600.822 L2177.25 600.822 Q2176.85 600.822 2176.57 600.541 Q2176.29 600.26 2176.29 599.862 Q2176.29 599.463 2176.57 599.182 Q2176.85 598.901 2177.25 598.901 L2207.27 598.901 Q2207.67 598.901 2207.95 599.182 Z" fill="#000000" fill-rule="evenodd" fill-opacity="1" /><path clip-path="url(#clip010)" d="M2226.54 584.473 L2226.54 582.974 Q2232.3 582.974 2235.28 579.906 Q2236.09 579.906 2236.24 580.093 Q2236.38 580.28 2236.38 581.147 L2236.38 608.059 Q2236.38 609.488 2237.08 609.933 Q2237.78 610.378 2240.85 610.378 L2242.37 610.378 L2242.37 611.854 Q2240.69 611.713 2234.6 611.713 Q2228.51 611.713 2226.84 611.854 L2226.84 610.378 L2228.37 610.378 Q2231.39 610.378 2232.11 609.957 Q2232.84 609.512 2232.84 608.059 L2232.84 583.208 Q2230.33 584.473 2226.54 584.473 Z" fill="#000000" fill-rule="evenodd" fill-opacity="1" /><path clip-path="url(#clip010)" d="M2249.52 623.378 Q2249.52 623.144 2250.13 622.558 Q2257.86 614.688 2257.86 599.862 Q2257.86 584.988 2250.43 577.47 Q2249.52 576.603 2249.52 576.345 Q2249.52 575.877 2249.99 575.877 Q2250.32 575.877 2251.46 576.837 Q2252.64 577.798 2254.39 579.999 Q2256.17 582.201 2257.48 584.895 Q2260.65 591.43 2260.65 599.862 Q2260.65 607.966 2257.62 614.501 Q2256.34 617.241 2254.53 619.536 Q2252.73 621.832 2251.53 622.839 Q2250.34 623.846 2249.99 623.846 Q2249.52 623.846 2249.52 623.378 Z" fill="#000000" fill-rule="evenodd" fill-opacity="1" /><path clip-path="url(#clip010)" d="M2282.34 600.447 Q2281.24 600.447 2281.24 599.862 Q2281.24 599.276 2282.39 599.276 Q2282.53 599.276 2282.76 599.299 Q2283.02 599.323 2283.07 599.323 L2296.58 599.323 L2296.58 585.761 Q2296.58 585.714 2296.56 585.504 Q2296.54 585.269 2296.54 585.129 Q2296.54 583.981 2297.1 583.981 Q2297.68 583.981 2297.68 585.129 L2297.68 599.323 L2311.22 599.323 Q2311.27 599.323 2311.5 599.299 Q2311.74 599.276 2311.88 599.276 Q2312.98 599.276 2312.98 599.862 Q2313 600.447 2311.83 600.447 Q2311.69 600.447 2311.48 600.424 Q2311.27 600.4 2311.22 600.4 L2297.68 600.4 L2297.68 614.641 Q2297.68 615.742 2297.1 615.742 Q2296.54 615.742 2296.54 614.594 Q2296.54 614.454 2296.56 614.22 Q2296.58 614.009 2296.58 613.962 L2296.58 600.4 L2283.07 600.4 Q2283.02 600.4 2282.74 600.424 Q2282.48 600.447 2282.34 600.447 Z" fill="#000000" fill-rule="evenodd" fill-opacity="1" /><path clip-path="url(#clip010)" d="M2331.49 584.473 L2331.49 582.974 Q2337.25 582.974 2340.23 579.906 Q2341.05 579.906 2341.19 580.093 Q2341.33 580.28 2341.33 581.147 L2341.33 608.059 Q2341.33 609.488 2342.03 609.933 Q2342.74 610.378 2345.8 610.378 L2347.33 610.378 L2347.33 611.854 Q2345.64 611.713 2339.55 611.713 Q2333.46 611.713 2331.8 611.854 L2331.8 610.378 L2333.32 610.378 Q2336.34 610.378 2337.07 609.957 Q2337.79 609.512 2337.79 608.059 L2337.79 583.208 Q2335.29 584.473 2331.49 584.473 Z" fill="#000000" fill-rule="evenodd" fill-opacity="1" /><path clip-path="url(#clip010)" d="
M2051 636.529 L2352.28 636.529 L2352.28 633.969 L2051 633.969  Z
  " fill="#000000" fill-rule="evenodd" fill-opacity="1"/>
<path clip-path="url(#clip010)" d="M2144 694.285 Q2144 693.419 2144.07 693.161 Q2144.17 692.903 2144.54 692.505 L2153.75 682.246 Q2158.78 676.578 2158.78 671.636 Q2158.78 668.427 2157.1 666.132 Q2155.43 663.836 2152.36 663.836 Q2150.26 663.836 2148.48 665.124 Q2146.7 666.413 2145.88 668.708 Q2146.02 668.661 2146.51 668.661 Q2147.7 668.661 2148.36 669.411 Q2149.04 670.16 2149.04 671.167 Q2149.04 672.456 2148.2 673.088 Q2147.38 673.697 2146.56 673.697 Q2146.23 673.697 2145.78 673.627 Q2145.36 673.556 2144.68 672.901 Q2144 672.221 2144 671.027 Q2144 667.677 2146.53 665.007 Q2149.09 662.337 2152.97 662.337 Q2157.38 662.337 2160.26 664.96 Q2163.16 667.56 2163.16 671.636 Q2163.16 673.065 2162.72 674.376 Q2162.3 675.664 2161.71 676.672 Q2161.15 677.679 2159.6 679.295 Q2158.06 680.911 2156.81 682.059 Q2155.57 683.207 2152.79 685.642 L2147.7 690.585 L2156.35 690.585 Q2160.56 690.585 2160.89 690.21 Q2161.36 689.531 2161.94 685.947 L2163.16 685.947 L2161.8 694.285 L2144 694.285 Z" fill="#000000" fill-rule="evenodd" fill-opacity="1" /><path clip-path="url(#clip010)" d="M2186.29 664.113 Q2186.29 664.245 2186.14 664.753 Q2186 665.261 2185.63 666.048 Q2185.29 666.835 2184.81 667.557 Q2184.34 668.262 2183.55 668.786 Q2182.78 669.294 2181.9 669.294 Q2180.72 669.294 2179.93 668.507 Q2179.14 667.72 2179.14 666.54 Q2179.14 665.884 2179.49 664.982 Q2181.67 659.162 2181.67 657.162 Q2181.67 654.817 2179.85 654.817 Q2178.95 654.817 2178.09 655.161 Q2177.26 655.489 2176.68 655.948 Q2176.11 656.407 2175.58 657.047 Q2175.08 657.67 2174.81 658.096 Q2174.57 658.506 2174.37 658.916 L2173.94 660.588 Q2173.85 661.047 2173.37 662.835 L2172.63 665.868 Q2172.11 668.13 2171.99 668.344 Q2171.83 668.803 2171.47 669.049 Q2171.11 669.294 2170.75 669.294 Q2170.34 669.294 2170.06 669.049 Q2169.78 668.803 2169.78 668.376 Q2169.78 668.311 2169.83 668.065 Q2169.88 667.819 2169.96 667.475 Q2170.04 667.13 2170.08 666.933 L2172.03 659.178 Q2172.39 657.768 2172.47 657.326 Q2172.57 656.867 2172.57 656.358 Q2172.57 654.817 2171.52 654.817 Q2170.67 654.817 2170.11 655.834 Q2169.55 656.85 2169.08 658.818 Q2168.93 659.359 2168.83 659.473 Q2168.75 659.588 2168.5 659.588 Q2168.09 659.572 2168.09 659.244 Q2168.09 659.162 2168.22 658.621 Q2168.35 658.08 2168.6 657.309 Q2168.86 656.522 2169.11 655.998 Q2169.32 655.604 2169.44 655.424 Q2169.57 655.227 2169.88 654.85 Q2170.21 654.456 2170.63 654.276 Q2171.08 654.079 2171.62 654.079 Q2172.83 654.079 2173.72 654.866 Q2174.6 655.637 2174.72 656.998 Q2176.9 654.079 2179.95 654.079 Q2181.75 654.079 2182.78 655.03 Q2183.81 655.981 2183.81 657.67 Q2183.81 658.063 2183.73 658.572 Q2183.67 659.064 2183.5 659.687 Q2183.36 660.31 2183.22 660.785 Q2183.09 661.261 2182.83 662.031 Q2182.57 662.785 2182.45 663.113 Q2182.34 663.441 2182.06 664.212 Q2181.8 664.966 2181.77 665.048 Q2181.16 666.573 2181.16 667.442 Q2181.16 668.016 2181.34 668.278 Q2181.54 668.54 2181.96 668.54 Q2183.11 668.54 2183.96 667.409 Q2184.83 666.261 2185.39 664.392 Q2185.52 663.982 2185.59 663.884 Q2185.67 663.785 2185.9 663.785 Q2186.29 663.785 2186.29 664.113 Z" fill="#000000" fill-rule="evenodd" fill-opacity="1" /><path clip-path="url(#clip010)" d="M2219.51 660.047 Q2219.71 660.244 2219.71 660.523 Q2219.71 660.801 2219.51 660.998 Q2219.31 661.195 2219.03 661.195 L2198.01 661.195 Q2197.74 661.195 2197.54 660.998 Q2197.34 660.801 2197.34 660.523 Q2197.34 660.244 2197.54 660.047 Q2197.74 659.851 2198.01 659.851 L2219.03 659.851 Q2219.31 659.851 2219.51 660.047 Z" fill="#000000" fill-rule="evenodd" fill-opacity="1" /><path clip-path="url(#clip010)" d="M2232.52 668.917 Q2232.52 668.311 2232.57 668.13 Q2232.63 667.95 2232.89 667.671 L2239.34 660.49 Q2242.86 656.522 2242.86 653.063 Q2242.86 650.816 2241.68 649.21 Q2240.52 647.603 2238.37 647.603 Q2236.9 647.603 2235.65 648.505 Q2234.4 649.406 2233.83 651.013 Q2233.93 650.98 2234.27 650.98 Q2235.11 650.98 2235.57 651.505 Q2236.04 652.03 2236.04 652.735 Q2236.04 653.637 2235.45 654.079 Q2234.88 654.506 2234.3 654.506 Q2234.08 654.506 2233.76 654.456 Q2233.47 654.407 2232.99 653.948 Q2232.52 653.473 2232.52 652.636 Q2232.52 650.292 2234.29 648.423 Q2236.08 646.554 2238.8 646.554 Q2241.88 646.554 2243.9 648.39 Q2245.93 650.21 2245.93 653.063 Q2245.93 654.063 2245.62 654.981 Q2245.32 655.883 2244.91 656.588 Q2244.52 657.293 2243.44 658.424 Q2242.36 659.555 2241.49 660.359 Q2240.62 661.162 2238.67 662.867 L2235.11 666.327 L2241.16 666.327 Q2244.11 666.327 2244.34 666.065 Q2244.67 665.589 2245.08 663.08 L2245.93 663.08 L2244.98 668.917 L2232.52 668.917 Z" fill="#000000" fill-rule="evenodd" fill-opacity="1" /></svg>
