<?xml version="1.0" encoding="utf-8"?>
<svg xmlns="http://www.w3.org/2000/svg" xmlns:xlink="http://www.w3.org/1999/xlink" width="600" height="400" viewBox="0 0 2400 1600">
<defs>
  <clipPath id="clip510">
    <rect x="0" y="0" width="2400" height="1600"/>
  </clipPath>
</defs>
<path clip-path="url(#clip510)" d="
M0 1600 L2400 1600 L2400 0 L0 0  Z
  " fill="#ffffff" fill-rule="evenodd" fill-opacity="1"/>
<defs>
  <clipPath id="clip511">
    <rect x="480" y="0" width="1681" height="1600"/>
  </clipPath>
</defs>
<defs>
  <clipPath id="clip512">
    <rect x="193" y="106" width="2160" height="1353"/>
  </clipPath>
</defs>
<path clip-path="url(#clip510)" d="
M193.936 1457.74 L2352.76 1457.74 L2352.76 106.192 L193.936 106.192  Z
  " fill="#eaeaea" fill-rule="evenodd" fill-opacity="1"/>
<polyline clip-path="url(#clip512)" style="stroke:#ffffff; stroke-linecap:butt; stroke-linejoin:round; stroke-width:4; stroke-opacity:1; fill:none" points="
  347.608,1457.74 347.608,106.192 
  "/>
<polyline clip-path="url(#clip512)" style="stroke:#ffffff; stroke-linecap:butt; stroke-linejoin:round; stroke-width:4; stroke-opacity:1; fill:none" points="
  810.477,1457.74 810.477,106.192 
  "/>
<polyline clip-path="url(#clip512)" style="stroke:#ffffff; stroke-linecap:butt; stroke-linejoin:round; stroke-width:4; stroke-opacity:1; fill:none" points="
  1273.35,1457.74 1273.35,106.192 
  "/>
<polyline clip-path="url(#clip512)" style="stroke:#ffffff; stroke-linecap:butt; stroke-linejoin:round; stroke-width:4; stroke-opacity:1; fill:none" points="
  1736.21,1457.74 1736.21,106.192 
  "/>
<polyline clip-path="url(#clip512)" style="stroke:#ffffff; stroke-linecap:butt; stroke-linejoin:round; stroke-width:4; stroke-opacity:1; fill:none" points="
  2199.08,1457.74 2199.08,106.192 
  "/>
<polyline clip-path="url(#clip512)" style="stroke:#ffffff; stroke-linecap:butt; stroke-linejoin:round; stroke-width:2; stroke-opacity:1; fill:none" points="
  579.043,1457.74 579.043,106.192 
  "/>
<polyline clip-path="url(#clip512)" style="stroke:#ffffff; stroke-linecap:butt; stroke-linejoin:round; stroke-width:2; stroke-opacity:1; fill:none" points="
  1041.91,1457.74 1041.91,106.192 
  "/>
<polyline clip-path="url(#clip512)" style="stroke:#ffffff; stroke-linecap:butt; stroke-linejoin:round; stroke-width:2; stroke-opacity:1; fill:none" points="
  1504.78,1457.74 1504.78,106.192 
  "/>
<polyline clip-path="url(#clip512)" style="stroke:#ffffff; stroke-linecap:butt; stroke-linejoin:round; stroke-width:2; stroke-opacity:1; fill:none" points="
  1967.65,1457.74 1967.65,106.192 
  "/>
<polyline clip-path="url(#clip510)" style="stroke:#ffffff; stroke-linecap:butt; stroke-linejoin:round; stroke-width:4; stroke-opacity:1; fill:none" points="
  193.936,1457.74 2352.76,1457.74 
  "/>
<polyline clip-path="url(#clip510)" style="stroke:#333333; stroke-linecap:butt; stroke-linejoin:round; stroke-width:4; stroke-opacity:1; fill:none" points="
  347.608,1457.74 347.608,1476.64 
  "/>
<polyline clip-path="url(#clip510)" style="stroke:#333333; stroke-linecap:butt; stroke-linejoin:round; stroke-width:4; stroke-opacity:1; fill:none" points="
  810.477,1457.74 810.477,1476.64 
  "/>
<polyline clip-path="url(#clip510)" style="stroke:#333333; stroke-linecap:butt; stroke-linejoin:round; stroke-width:4; stroke-opacity:1; fill:none" points="
  1273.35,1457.74 1273.35,1476.64 
  "/>
<polyline clip-path="url(#clip510)" style="stroke:#333333; stroke-linecap:butt; stroke-linejoin:round; stroke-width:4; stroke-opacity:1; fill:none" points="
  1736.21,1457.74 1736.21,1476.64 
  "/>
<polyline clip-path="url(#clip510)" style="stroke:#333333; stroke-linecap:butt; stroke-linejoin:round; stroke-width:4; stroke-opacity:1; fill:none" points="
  2199.08,1457.74 2199.08,1476.64 
  "/>
<polyline clip-path="url(#clip510)" style="stroke:#333333; stroke-linecap:butt; stroke-linejoin:round; stroke-width:4; stroke-opacity:1; fill:none" points="
  579.043,1457.74 579.043,1467.19 
  "/>
<polyline clip-path="url(#clip510)" style="stroke:#333333; stroke-linecap:butt; stroke-linejoin:round; stroke-width:4; stroke-opacity:1; fill:none" points="
  1041.91,1457.74 1041.91,1467.19 
  "/>
<polyline clip-path="url(#clip510)" style="stroke:#333333; stroke-linecap:butt; stroke-linejoin:round; stroke-width:4; stroke-opacity:1; fill:none" points="
  1504.78,1457.74 1504.78,1467.19 
  "/>
<polyline clip-path="url(#clip510)" style="stroke:#333333; stroke-linecap:butt; stroke-linejoin:round; stroke-width:4; stroke-opacity:1; fill:none" points="
  1967.65,1457.74 1967.65,1467.19 
  "/>
<path clip-path="url(#clip510)" d="M1281.82 1531.26 Q1281.82 1532.17 1281.4 1532.39 Q1280.98 1532.59 1279.82 1532.59 L1273.64 1532.59 L1268.74 1552.04 Q1268.35 1553.74 1268.35 1555.19 Q1268.35 1556.8 1268.84 1557.51 Q1269.35 1558.22 1270.42 1558.22 Q1272.51 1558.22 1274.76 1556.32 Q1277.05 1554.42 1278.98 1549.78 Q1279.24 1549.17 1279.37 1549.04 Q1279.53 1548.88 1279.95 1548.88 Q1280.75 1548.88 1280.75 1549.53 Q1280.75 1549.75 1280.3 1550.78 Q1279.88 1551.81 1278.95 1553.33 Q1278.05 1554.84 1276.86 1556.26 Q1275.7 1557.67 1273.93 1558.7 Q1272.16 1559.7 1270.26 1559.7 Q1267.58 1559.7 1265.88 1558 Q1264.2 1556.29 1264.2 1553.62 Q1264.2 1552.75 1264.88 1549.98 Q1265.55 1547.17 1269.22 1532.59 L1263.4 1532.59 Q1262.59 1532.59 1262.27 1532.55 Q1261.98 1532.52 1261.75 1532.36 Q1261.56 1532.17 1261.56 1531.78 Q1261.56 1531.17 1261.82 1530.91 Q1262.07 1530.62 1262.4 1530.59 Q1262.75 1530.52 1263.56 1530.52 L1269.74 1530.52 L1272.32 1520.06 Q1272.57 1519.03 1273.22 1518.45 Q1273.89 1517.84 1274.28 1517.77 Q1274.67 1517.67 1274.96 1517.67 Q1275.83 1517.67 1276.34 1518.16 Q1276.86 1518.61 1276.86 1519.45 Q1276.86 1519.9 1274.15 1530.52 L1279.95 1530.52 Q1280.69 1530.52 1280.98 1530.56 Q1281.3 1530.59 1281.56 1530.75 Q1281.82 1530.91 1281.82 1531.26 Z" fill="#000000" fill-rule="evenodd" fill-opacity="1" /><polyline clip-path="url(#clip512)" style="stroke:#ffffff; stroke-linecap:butt; stroke-linejoin:round; stroke-width:4; stroke-opacity:1; fill:none" points="
  193.936,1419.49 2352.76,1419.49 
  "/>
<polyline clip-path="url(#clip512)" style="stroke:#ffffff; stroke-linecap:butt; stroke-linejoin:round; stroke-width:4; stroke-opacity:1; fill:none" points="
  193.936,1100.73 2352.76,1100.73 
  "/>
<polyline clip-path="url(#clip512)" style="stroke:#ffffff; stroke-linecap:butt; stroke-linejoin:round; stroke-width:4; stroke-opacity:1; fill:none" points="
  193.936,781.966 2352.76,781.966 
  "/>
<polyline clip-path="url(#clip512)" style="stroke:#ffffff; stroke-linecap:butt; stroke-linejoin:round; stroke-width:4; stroke-opacity:1; fill:none" points="
  193.936,463.205 2352.76,463.205 
  "/>
<polyline clip-path="url(#clip512)" style="stroke:#ffffff; stroke-linecap:butt; stroke-linejoin:round; stroke-width:4; stroke-opacity:1; fill:none" points="
  193.936,144.443 2352.76,144.443 
  "/>
<polyline clip-path="url(#clip512)" style="stroke:#ffffff; stroke-linecap:butt; stroke-linejoin:round; stroke-width:2; stroke-opacity:1; fill:none" points="
  193.936,1260.11 2352.76,1260.11 
  "/>
<polyline clip-path="url(#clip512)" style="stroke:#ffffff; stroke-linecap:butt; stroke-linejoin:round; stroke-width:2; stroke-opacity:1; fill:none" points="
  193.936,941.347 2352.76,941.347 
  "/>
<polyline clip-path="url(#clip512)" style="stroke:#ffffff; stroke-linecap:butt; stroke-linejoin:round; stroke-width:2; stroke-opacity:1; fill:none" points="
  193.936,622.585 2352.76,622.585 
  "/>
<polyline clip-path="url(#clip512)" style="stroke:#ffffff; stroke-linecap:butt; stroke-linejoin:round; stroke-width:2; stroke-opacity:1; fill:none" points="
  193.936,303.824 2352.76,303.824 
  "/>
<path clip-path="url(#clip510)" d="M32.9921 1419.94 L62.6679 1419.94 L62.6679 1423.88 L32.9921 1423.88 L32.9921 1419.94 Z" fill="#4c4c4c" fill-rule="evenodd" fill-opacity="1" /><path clip-path="url(#clip510)" d="M73.5706 1432.83 L81.2095 1432.83 L81.2095 1406.47 L72.8993 1408.13 L72.8993 1403.88 L81.1632 1402.21 L85.8391 1402.21 L85.8391 1432.83 L93.4779 1432.83 L93.4779 1436.77 L73.5706 1436.77 L73.5706 1432.83 Z" fill="#4c4c4c" fill-rule="evenodd" fill-opacity="1" /><path clip-path="url(#clip510)" d="M102.922 1430.89 L107.807 1430.89 L107.807 1436.77 L102.922 1436.77 L102.922 1430.89 Z" fill="#4c4c4c" fill-rule="evenodd" fill-opacity="1" /><path clip-path="url(#clip510)" d="M127.992 1405.29 Q124.381 1405.29 122.552 1408.85 Q120.746 1412.39 120.746 1419.52 Q120.746 1426.63 122.552 1430.19 Q124.381 1433.74 127.992 1433.74 Q131.626 1433.74 133.431 1430.19 Q135.26 1426.63 135.26 1419.52 Q135.26 1412.39 133.431 1408.85 Q131.626 1405.29 127.992 1405.29 M127.992 1401.58 Q133.802 1401.58 136.857 1406.19 Q139.936 1410.77 139.936 1419.52 Q139.936 1428.25 136.857 1432.86 Q133.802 1437.44 127.992 1437.44 Q122.181 1437.44 119.103 1432.86 Q116.047 1428.25 116.047 1419.52 Q116.047 1410.77 119.103 1406.19 Q122.181 1401.58 127.992 1401.58 Z" fill="#4c4c4c" fill-rule="evenodd" fill-opacity="1" /><path clip-path="url(#clip510)" d="M33.9875 1101.18 L63.6633 1101.18 L63.6633 1105.11 L33.9875 1105.11 L33.9875 1101.18 Z" fill="#4c4c4c" fill-rule="evenodd" fill-opacity="1" /><path clip-path="url(#clip510)" d="M83.7557 1086.53 Q80.1447 1086.53 78.316 1090.09 Q76.5104 1093.63 76.5104 1100.76 Q76.5104 1107.87 78.316 1111.43 Q80.1447 1114.97 83.7557 1114.97 Q87.39 1114.97 89.1955 1111.43 Q91.0242 1107.87 91.0242 1100.76 Q91.0242 1093.63 89.1955 1090.09 Q87.39 1086.53 83.7557 1086.53 M83.7557 1082.82 Q89.5659 1082.82 92.6214 1087.43 Q95.7001 1092.01 95.7001 1100.76 Q95.7001 1109.49 92.6214 1114.1 Q89.5659 1118.68 83.7557 1118.68 Q77.9456 1118.68 74.8669 1114.1 Q71.8114 1109.49 71.8114 1100.76 Q71.8114 1092.01 74.8669 1087.43 Q77.9456 1082.82 83.7557 1082.82 Z" fill="#4c4c4c" fill-rule="evenodd" fill-opacity="1" /><path clip-path="url(#clip510)" d="M103.918 1112.13 L108.802 1112.13 L108.802 1118.01 L103.918 1118.01 L103.918 1112.13 Z" fill="#4c4c4c" fill-rule="evenodd" fill-opacity="1" /><path clip-path="url(#clip510)" d="M119.033 1083.45 L137.39 1083.45 L137.39 1087.38 L123.316 1087.38 L123.316 1095.85 Q124.334 1095.51 125.353 1095.35 Q126.371 1095.16 127.39 1095.16 Q133.177 1095.16 136.556 1098.33 Q139.936 1101.5 139.936 1106.92 Q139.936 1112.5 136.464 1115.6 Q132.992 1118.68 126.672 1118.68 Q124.496 1118.68 122.228 1118.31 Q119.982 1117.94 117.575 1117.2 L117.575 1112.5 Q119.658 1113.63 121.881 1114.19 Q124.103 1114.74 126.58 1114.74 Q130.584 1114.74 132.922 1112.64 Q135.26 1110.53 135.26 1106.92 Q135.26 1103.31 132.922 1101.2 Q130.584 1099.1 126.58 1099.1 Q124.705 1099.1 122.83 1099.51 Q120.978 1099.93 119.033 1100.81 L119.033 1083.45 Z" fill="#4c4c4c" fill-rule="evenodd" fill-opacity="1" /><path clip-path="url(#clip510)" d="M82.7604 767.765 Q79.1493 767.765 77.3206 771.329 Q75.515 774.871 75.515 782.001 Q75.515 789.107 77.3206 792.672 Q79.1493 796.214 82.7604 796.214 Q86.3946 796.214 88.2002 792.672 Q90.0289 789.107 90.0289 782.001 Q90.0289 774.871 88.2002 771.329 Q86.3946 767.765 82.7604 767.765 M82.7604 764.061 Q88.5705 764.061 91.6261 768.667 Q94.7048 773.251 94.7048 782.001 Q94.7048 790.728 91.6261 795.334 Q88.5705 799.917 82.7604 799.917 Q76.9502 799.917 73.8715 795.334 Q70.816 790.728 70.816 782.001 Q70.816 773.251 73.8715 768.667 Q76.9502 764.061 82.7604 764.061 Z" fill="#4c4c4c" fill-rule="evenodd" fill-opacity="1" /><path clip-path="url(#clip510)" d="M102.922 793.366 L107.807 793.366 L107.807 799.246 L102.922 799.246 L102.922 793.366 Z" fill="#4c4c4c" fill-rule="evenodd" fill-opacity="1" /><path clip-path="url(#clip510)" d="M127.992 767.765 Q124.381 767.765 122.552 771.329 Q120.746 774.871 120.746 782.001 Q120.746 789.107 122.552 792.672 Q124.381 796.214 127.992 796.214 Q131.626 796.214 133.431 792.672 Q135.26 789.107 135.26 782.001 Q135.26 774.871 133.431 771.329 Q131.626 767.765 127.992 767.765 M127.992 764.061 Q133.802 764.061 136.857 768.667 Q139.936 773.251 139.936 782.001 Q139.936 790.728 136.857 795.334 Q133.802 799.917 127.992 799.917 Q122.181 799.917 119.103 795.334 Q116.047 790.728 116.047 782.001 Q116.047 773.251 119.103 768.667 Q122.181 764.061 127.992 764.061 Z" fill="#4c4c4c" fill-rule="evenodd" fill-opacity="1" /><path clip-path="url(#clip510)" d="M83.7557 449.003 Q80.1447 449.003 78.316 452.568 Q76.5104 456.11 76.5104 463.239 Q76.5104 470.346 78.316 473.911 Q80.1447 477.452 83.7557 477.452 Q87.39 477.452 89.1955 473.911 Q91.0242 470.346 91.0242 463.239 Q91.0242 456.11 89.1955 452.568 Q87.39 449.003 83.7557 449.003 M83.7557 445.3 Q89.5659 445.3 92.6214 449.906 Q95.7001 454.489 95.7001 463.239 Q95.7001 471.966 92.6214 476.573 Q89.5659 481.156 83.7557 481.156 Q77.9456 481.156 74.8669 476.573 Q71.8114 471.966 71.8114 463.239 Q71.8114 454.489 74.8669 449.906 Q77.9456 445.3 83.7557 445.3 Z" fill="#4c4c4c" fill-rule="evenodd" fill-opacity="1" /><path clip-path="url(#clip510)" d="M103.918 474.605 L108.802 474.605 L108.802 480.485 L103.918 480.485 L103.918 474.605 Z" fill="#4c4c4c" fill-rule="evenodd" fill-opacity="1" /><path clip-path="url(#clip510)" d="M119.033 445.925 L137.39 445.925 L137.39 449.86 L123.316 449.86 L123.316 458.332 Q124.334 457.985 125.353 457.823 Q126.371 457.638 127.39 457.638 Q133.177 457.638 136.556 460.809 Q139.936 463.98 139.936 469.397 Q139.936 474.976 136.464 478.077 Q132.992 481.156 126.672 481.156 Q124.496 481.156 122.228 480.786 Q119.982 480.415 117.575 479.675 L117.575 474.976 Q119.658 476.11 121.881 476.665 Q124.103 477.221 126.58 477.221 Q130.584 477.221 132.922 475.114 Q135.26 473.008 135.26 469.397 Q135.26 465.786 132.922 463.679 Q130.584 461.573 126.58 461.573 Q124.705 461.573 122.83 461.989 Q120.978 462.406 119.033 463.286 L119.033 445.925 Z" fill="#4c4c4c" fill-rule="evenodd" fill-opacity="1" /><path clip-path="url(#clip510)" d="M73.5706 157.788 L81.2095 157.788 L81.2095 131.423 L72.8993 133.089 L72.8993 128.83 L81.1632 127.163 L85.8391 127.163 L85.8391 157.788 L93.4779 157.788 L93.4779 161.723 L73.5706 161.723 L73.5706 157.788 Z" fill="#4c4c4c" fill-rule="evenodd" fill-opacity="1" /><path clip-path="url(#clip510)" d="M102.922 155.844 L107.807 155.844 L107.807 161.723 L102.922 161.723 L102.922 155.844 Z" fill="#4c4c4c" fill-rule="evenodd" fill-opacity="1" /><path clip-path="url(#clip510)" d="M127.992 130.242 Q124.381 130.242 122.552 133.807 Q120.746 137.349 120.746 144.478 Q120.746 151.585 122.552 155.149 Q124.381 158.691 127.992 158.691 Q131.626 158.691 133.431 155.149 Q135.26 151.585 135.26 144.478 Q135.26 137.349 133.431 133.807 Q131.626 130.242 127.992 130.242 M127.992 126.538 Q133.802 126.538 136.857 131.145 Q139.936 135.728 139.936 144.478 Q139.936 153.205 136.857 157.811 Q133.802 162.395 127.992 162.395 Q122.181 162.395 119.103 157.811 Q116.047 153.205 116.047 144.478 Q116.047 135.728 119.103 131.145 Q122.181 126.538 127.992 126.538 Z" fill="#4c4c4c" fill-rule="evenodd" fill-opacity="1" /><path clip-path="url(#clip510)" d="M1093.08 8.64 L1098.93 8.64 L1098.93 51.84 L1093.08 51.84 L1093.08 8.64 Z" fill="#000000" fill-rule="evenodd" fill-opacity="1" /><path clip-path="url(#clip510)" d="M1137.26 32.2799 L1137.26 51.84 L1131.94 51.84 L1131.94 32.4535 Q1131.94 27.8529 1130.15 25.567 Q1128.35 23.2811 1124.76 23.2811 Q1120.45 23.2811 1117.96 26.03 Q1115.48 28.7788 1115.48 33.5241 L1115.48 51.84 L1110.12 51.84 L1110.12 19.4328 L1115.48 19.4328 L1115.48 24.4675 Q1117.39 21.545 1119.96 20.0983 Q1122.57 18.6515 1125.95 18.6515 Q1131.54 18.6515 1134.4 22.1237 Q1137.26 25.567 1137.26 32.2799 Z" fill="#000000" fill-rule="evenodd" fill-opacity="1" /><path clip-path="url(#clip510)" d="M1171.21 20.677 L1171.21 25.6538 Q1168.95 24.4096 1166.66 23.802 Q1164.41 23.1654 1162.09 23.1654 Q1156.91 23.1654 1154.05 26.464 Q1151.18 29.7336 1151.18 35.6653 Q1151.18 41.597 1154.05 44.8956 Q1156.91 48.1653 1162.09 48.1653 Q1164.41 48.1653 1166.66 47.5576 Q1168.95 46.921 1171.21 45.6768 L1171.21 50.5958 Q1168.98 51.6375 1166.58 52.1583 Q1164.2 52.6791 1161.51 52.6791 Q1154.19 52.6791 1149.88 48.0784 Q1145.57 43.4778 1145.57 35.6653 Q1145.57 27.7371 1149.91 23.1943 Q1154.28 18.6515 1161.86 18.6515 Q1164.32 18.6515 1166.66 19.1724 Q1169.01 19.6642 1171.21 20.677 Z" fill="#000000" fill-rule="evenodd" fill-opacity="1" /><path clip-path="url(#clip510)" d="M1199.24 24.4096 Q1198.35 23.8888 1197.28 23.6573 Q1196.23 23.3969 1194.96 23.3969 Q1190.45 23.3969 1188.02 26.3482 Q1185.61 29.2707 1185.61 34.7683 L1185.61 51.84 L1180.26 51.84 L1180.26 19.4328 L1185.61 19.4328 L1185.61 24.4675 Q1187.29 21.5161 1189.98 20.0983 Q1192.68 18.6515 1196.52 18.6515 Q1197.07 18.6515 1197.74 18.7383 Q1198.4 18.7962 1199.21 18.9409 L1199.24 24.4096 Z" fill="#000000" fill-rule="evenodd" fill-opacity="1" /><path clip-path="url(#clip510)" d="M1231.25 34.3054 L1231.25 36.9095 L1206.77 36.9095 Q1207.11 42.4072 1210.07 45.3007 Q1213.05 48.1653 1218.34 48.1653 Q1221.41 48.1653 1224.27 47.4129 Q1227.17 46.6606 1230 45.156 L1230 50.1907 Q1227.14 51.406 1224.13 52.0425 Q1221.12 52.6791 1218.02 52.6791 Q1210.27 52.6791 1205.72 48.1653 Q1201.21 43.6514 1201.21 35.9547 Q1201.21 27.9975 1205.49 23.339 Q1209.8 18.6515 1217.1 18.6515 Q1223.64 18.6515 1227.43 22.876 Q1231.25 27.0716 1231.25 34.3054 M1225.92 32.7429 Q1225.86 28.3737 1223.46 25.7695 Q1221.09 23.1654 1217.15 23.1654 Q1212.7 23.1654 1210.01 25.6827 Q1207.35 28.2001 1206.94 32.7718 L1225.92 32.7429 Z" fill="#000000" fill-rule="evenodd" fill-opacity="1" /><path clip-path="url(#clip510)" d="M1265.22 25.6538 Q1267.21 22.0659 1269.99 20.3587 Q1272.77 18.6515 1276.53 18.6515 Q1281.59 18.6515 1284.34 22.2105 Q1287.09 25.7406 1287.09 32.2799 L1287.09 51.84 L1281.74 51.84 L1281.74 32.4535 Q1281.74 27.795 1280.09 25.5381 Q1278.44 23.2811 1275.05 23.2811 Q1270.92 23.2811 1268.51 26.03 Q1266.11 28.7788 1266.11 33.5241 L1266.11 51.84 L1260.76 51.84 L1260.76 32.4535 Q1260.76 27.7661 1259.11 25.5381 Q1257.46 23.2811 1254.02 23.2811 Q1249.94 23.2811 1247.54 26.0589 Q1245.13 28.8077 1245.13 33.5241 L1245.13 51.84 L1239.78 51.84 L1239.78 19.4328 L1245.13 19.4328 L1245.13 24.4675 Q1246.96 21.4872 1249.5 20.0693 Q1252.05 18.6515 1255.55 18.6515 Q1259.08 18.6515 1261.54 20.4455 Q1264.03 22.2395 1265.22 25.6538 Z" fill="#000000" fill-rule="evenodd" fill-opacity="1" /><path clip-path="url(#clip510)" d="M1325.43 34.3054 L1325.43 36.9095 L1300.95 36.9095 Q1301.3 42.4072 1304.25 45.3007 Q1307.23 48.1653 1312.52 48.1653 Q1315.59 48.1653 1318.46 47.4129 Q1321.35 46.6606 1324.18 45.156 L1324.18 50.1907 Q1321.32 51.406 1318.31 52.0425 Q1315.3 52.6791 1312.21 52.6791 Q1304.45 52.6791 1299.91 48.1653 Q1295.39 43.6514 1295.39 35.9547 Q1295.39 27.9975 1299.68 23.339 Q1303.99 18.6515 1311.28 18.6515 Q1317.82 18.6515 1321.61 22.876 Q1325.43 27.0716 1325.43 34.3054 M1320.1 32.7429 Q1320.05 28.3737 1317.65 25.7695 Q1315.27 23.1654 1311.34 23.1654 Q1306.88 23.1654 1304.19 25.6827 Q1301.53 28.2001 1301.12 32.7718 L1320.1 32.7429 Z" fill="#000000" fill-rule="evenodd" fill-opacity="1" /><path clip-path="url(#clip510)" d="M1361.11 32.2799 L1361.11 51.84 L1355.78 51.84 L1355.78 32.4535 Q1355.78 27.8529 1353.99 25.567 Q1352.19 23.2811 1348.61 23.2811 Q1344.29 23.2811 1341.81 26.03 Q1339.32 28.7788 1339.32 33.5241 L1339.32 51.84 L1333.96 51.84 L1333.96 19.4328 L1339.32 19.4328 L1339.32 24.4675 Q1341.23 21.545 1343.8 20.0983 Q1346.41 18.6515 1349.79 18.6515 Q1355.38 18.6515 1358.24 22.1237 Q1361.11 25.567 1361.11 32.2799 Z" fill="#000000" fill-rule="evenodd" fill-opacity="1" /><path clip-path="url(#clip510)" d="M1376.99 10.2314 L1376.99 19.4328 L1387.96 19.4328 L1387.96 23.5705 L1376.99 23.5705 L1376.99 41.163 Q1376.99 45.1271 1378.06 46.2555 Q1379.16 47.384 1382.49 47.384 L1387.96 47.384 L1387.96 51.84 L1382.49 51.84 Q1376.33 51.84 1373.98 49.5541 Q1371.64 47.2393 1371.64 41.163 L1371.64 23.5705 L1367.73 23.5705 L1367.73 19.4328 L1371.64 19.4328 L1371.64 10.2314 L1376.99 10.2314 Z" fill="#000000" fill-rule="evenodd" fill-opacity="1" /><path clip-path="url(#clip510)" d="M1407.52 23.1654 Q1403.24 23.1654 1400.75 26.5218 Q1398.26 29.8494 1398.26 35.6653 Q1398.26 41.4813 1400.72 44.8377 Q1403.21 48.1653 1407.52 48.1653 Q1411.77 48.1653 1414.26 44.8088 Q1416.75 41.4523 1416.75 35.6653 Q1416.75 29.9072 1414.26 26.5508 Q1411.77 23.1654 1407.52 23.1654 M1407.52 18.6515 Q1414.46 18.6515 1418.43 23.1654 Q1422.39 27.6792 1422.39 35.6653 Q1422.39 43.6225 1418.43 48.1653 Q1414.46 52.6791 1407.52 52.6791 Q1400.54 52.6791 1396.58 48.1653 Q1392.65 43.6225 1392.65 35.6653 Q1392.65 27.6792 1396.58 23.1654 Q1400.54 18.6515 1407.52 18.6515 Z" fill="#000000" fill-rule="evenodd" fill-opacity="1" /><path clip-path="url(#clip510)" d="M1451.88 20.3876 L1451.88 25.4223 Q1449.62 24.2649 1447.19 23.6862 Q1444.76 23.1075 1442.15 23.1075 Q1438.19 23.1075 1436.19 24.3228 Q1434.22 25.5381 1434.22 27.9686 Q1434.22 29.8204 1435.64 30.891 Q1437.06 31.9327 1441.34 32.8876 L1443.17 33.2926 Q1448.84 34.5079 1451.21 36.7359 Q1453.61 38.935 1453.61 42.8991 Q1453.61 47.4129 1450.02 50.046 Q1446.46 52.6791 1440.21 52.6791 Q1437.61 52.6791 1434.77 52.1583 Q1431.97 51.6664 1428.84 50.6537 L1428.84 45.156 Q1431.79 46.6896 1434.66 47.4708 Q1437.52 48.2231 1440.33 48.2231 Q1444.09 48.2231 1446.12 46.95 Q1448.14 45.6479 1448.14 43.3042 Q1448.14 41.134 1446.67 39.9766 Q1445.22 38.8192 1440.27 37.7486 L1438.42 37.3146 Q1433.47 36.273 1431.27 34.1318 Q1429.07 31.9616 1429.07 28.2001 Q1429.07 23.6283 1432.32 21.1399 Q1435.56 18.6515 1441.52 18.6515 Q1444.47 18.6515 1447.07 19.0855 Q1449.68 19.5196 1451.88 20.3876 Z" fill="#000000" fill-rule="evenodd" fill-opacity="1" /><circle clip-path="url(#clip512)" cx="347.608" cy="781.966" r="14" fill="#009af9" fill-rule="evenodd" fill-opacity="1" stroke="#000000" stroke-opacity="1" stroke-width="0"/>
<circle clip-path="url(#clip512)" cx="810.477" cy="781.966" r="14" fill="#009af9" fill-rule="evenodd" fill-opacity="1" stroke="#000000" stroke-opacity="1" stroke-width="0"/>
<circle clip-path="url(#clip512)" cx="1273.35" cy="781.966" r="14" fill="#009af9" fill-rule="evenodd" fill-opacity="1" stroke="#000000" stroke-opacity="1" stroke-width="0"/>
<circle clip-path="url(#clip512)" cx="1736.21" cy="781.966" r="14" fill="#009af9" fill-rule="evenodd" fill-opacity="1" stroke="#000000" stroke-opacity="1" stroke-width="0"/>
<circle clip-path="url(#clip512)" cx="2199.08" cy="781.966" r="14" fill="#009af9" fill-rule="evenodd" fill-opacity="1" stroke="#000000" stroke-opacity="1" stroke-width="0"/>
<circle clip-path="url(#clip512)" cx="347.608" cy="781.966" r="21" fill="#e26f46" fill-rule="evenodd" fill-opacity="1" stroke="#000000" stroke-opacity="1" stroke-width="0"/>
<circle clip-path="url(#clip512)" cx="2199.08" cy="781.966" r="21" fill="#e26f46" fill-rule="evenodd" fill-opacity="1" stroke="#000000" stroke-opacity="1" stroke-width="0"/>
<circle clip-path="url(#clip512)" cx="477.212" cy="781.966" r="14" fill="#000000" fill-rule="evenodd" fill-opacity="1" stroke="none"/>
<polyline clip-path="url(#clip512)" style="stroke:#000000; stroke-linecap:butt; stroke-linejoin:round; stroke-width:4; stroke-opacity:1; fill:none" points="
  847.507,742.33 867.97,721.339 888.434,701.516 908.898,683.243 929.361,666.871 949.825,652.715 970.289,641.049 990.752,632.097 1011.22,626.032 1031.68,622.97 
  1052.14,622.97 1072.61,626.032 1093.07,632.097 1113.53,641.049 1134,652.715 1154.46,666.871 1174.93,683.243 1195.39,701.516 1215.85,721.339 1236.32,742.33 
  
  "/>
<polyline clip-path="url(#clip512)" style="stroke:#000000; stroke-linecap:butt; stroke-linejoin:round; stroke-width:4; stroke-opacity:1; fill:none" points="
  1310.38,742.33 1330.84,721.339 1351.3,701.516 1371.77,683.243 1392.23,666.871 1412.69,652.715 1433.16,641.049 1453.62,632.097 1474.08,626.032 1494.55,622.97 
  1515.01,622.97 1535.48,626.032 1555.94,632.097 1576.4,641.049 1596.87,652.715 1617.33,666.871 1637.79,683.243 1658.26,701.516 1678.72,721.339 1699.19,742.33 
  
  "/>
<polyline clip-path="url(#clip512)" style="stroke:#000000; stroke-linecap:butt; stroke-linejoin:round; stroke-width:4; stroke-opacity:1; fill:none" points="
  1773.24,742.33 1793.71,721.339 1814.17,701.516 1834.64,683.243 1855.1,666.871 1875.56,652.715 1896.03,641.049 1916.49,632.097 1936.95,626.032 1957.42,622.97 
  1977.88,622.97 1998.34,626.032 2018.81,632.097 2039.27,641.049 2059.74,652.715 2080.2,666.871 2100.66,683.243 2121.13,701.516 2141.59,721.339 2162.05,742.33 
  
  "/>
<polyline clip-path="url(#clip512)" style="stroke:#000000; stroke-linecap:butt; stroke-linejoin:round; stroke-width:4; stroke-opacity:1; fill:none" points="
  514.241,792.868 543.042,800.502 571.843,806.777 600.643,811.235 629.444,813.549 658.245,813.549 687.046,811.235 715.846,806.777 744.647,800.502 773.448,792.868 
  
  "/>
<polyline clip-path="url(#clip512)" style="stroke:#000000; stroke-linecap:butt; stroke-linejoin:round; stroke-width:4; stroke-opacity:1; fill:none" points="
  514.241,800.531 539.14,812.816 564.039,824.803 588.939,836.377 613.838,847.426 638.737,857.844 663.636,867.53 688.535,876.39 713.434,884.34 738.334,891.302 
  763.233,897.209 788.132,902.005 813.031,905.643 837.93,908.088 862.829,909.317 887.728,909.317 912.628,908.088 937.527,905.643 962.426,902.005 987.325,897.209 
  1012.22,891.302 1037.12,884.34 1062.02,876.39 1086.92,867.53 1111.82,857.844 1136.72,847.426 1161.62,836.377 1186.52,824.803 1211.42,812.816 1236.32,800.531 
  
  "/>
<polyline clip-path="url(#clip512)" style="stroke:#000000; stroke-linecap:butt; stroke-linejoin:round; stroke-width:4; stroke-opacity:1; fill:none" points="
  514.241,808.436 538.424,825.615 562.606,842.635 586.789,859.435 610.971,875.952 635.154,892.127 659.336,907.901 683.519,923.217 707.701,938.018 731.884,952.252 
  756.066,965.865 780.249,978.809 804.432,991.037 828.614,1002.5 852.797,1013.17 876.979,1022.99 901.162,1031.93 925.344,1039.97 949.527,1047.07 973.709,1053.2 
  997.892,1058.34 1022.07,1062.48 1046.26,1065.59 1070.44,1067.68 1094.62,1068.72 1118.8,1068.72 1142.99,1067.68 1167.17,1065.59 1191.35,1062.48 1215.53,1058.34 
  1239.72,1053.2 1263.9,1047.07 1288.08,1039.97 1312.26,1031.93 1336.45,1022.99 1360.63,1013.17 1384.81,1002.5 1408.99,991.037 1433.18,978.809 1457.36,965.865 
  1481.54,952.252 1505.72,938.018 1529.91,923.217 1554.09,907.901 1578.27,892.127 1602.46,875.952 1626.64,859.435 1650.82,842.635 1675,825.615 1699.19,808.436 
  
  "/>
<polyline clip-path="url(#clip512)" style="stroke:#000000; stroke-linecap:butt; stroke-linejoin:round; stroke-width:4; stroke-opacity:1; fill:none" points="
  514.241,816.397 538.123,838.529 562.004,860.554 585.885,882.43 609.767,904.115 633.648,925.568 657.529,946.748 681.411,967.616 705.292,988.131 729.173,1008.25 
  753.055,1027.95 776.936,1047.18 800.817,1065.9 824.699,1084.09 848.58,1101.7 872.461,1118.7 896.343,1135.07 920.224,1150.76 944.105,1165.76 967.987,1180.02 
  991.868,1193.53 1015.75,1206.26 1039.63,1218.19 1063.51,1229.28 1087.39,1239.53 1111.27,1248.91 1135.16,1257.4 1159.04,1264.99 1182.92,1271.67 1206.8,1277.41 
  1230.68,1282.21 1254.56,1286.06 1278.44,1288.96 1302.33,1290.9 1326.21,1291.86 1350.09,1291.86 1373.97,1290.9 1397.85,1288.96 1421.73,1286.06 1445.61,1282.21 
  1469.49,1277.41 1493.38,1271.67 1517.26,1264.99 1541.14,1257.4 1565.02,1248.91 1588.9,1239.53 1612.78,1229.28 1636.66,1218.19 1660.55,1206.26 1684.43,1193.53 
  1708.31,1180.02 1732.19,1165.76 1756.07,1150.76 1779.95,1135.07 1803.83,1118.7 1827.72,1101.7 1851.6,1084.09 1875.48,1065.9 1899.36,1047.18 1923.24,1027.95 
  1947.12,1008.25 1971,988.131 1994.88,967.616 2018.77,946.748 2042.65,925.568 2066.53,904.115 2090.41,882.43 2114.29,860.554 2138.17,838.529 2162.05,816.397 
  
  "/>
<path clip-path="url(#clip510)" d="M278.69 883.598 Q278.69 875.494 281.711 868.959 Q283 866.218 284.803 863.923 Q286.607 861.628 287.801 860.62 Q288.996 859.613 289.324 859.613 Q289.792 859.613 289.816 860.082 Q289.816 860.316 289.183 860.901 Q281.454 868.771 281.477 883.598 Q281.477 898.471 288.996 906.036 Q289.816 906.856 289.816 907.114 Q289.816 907.582 289.324 907.582 Q288.996 907.582 287.848 906.622 Q286.7 905.662 284.92 903.46 Q283.14 901.258 281.852 898.565 Q278.69 892.03 278.69 883.598 Z" fill="#000000" fill-rule="evenodd" fill-opacity="1" /><path clip-path="url(#clip510)" d="M315.938 877.414 Q315.938 878.749 315.118 879.546 Q314.322 880.342 313.315 880.342 Q312.425 880.342 311.956 879.827 Q311.488 879.311 311.488 878.656 Q311.488 878.375 311.605 878.023 Q311.722 877.648 311.98 877.203 Q312.261 876.758 312.846 876.431 Q313.432 876.103 314.228 876.056 Q314.064 875.892 314.017 875.868 Q313.666 875.587 313.01 875.494 Q312.917 875.447 312.589 875.447 Q310.973 875.447 309.333 876.641 Q307.717 877.812 305.726 880.038 Q303.22 882.637 301.604 883.598 Q308.701 884.535 308.701 888.634 Q308.701 889.313 308.513 890.133 Q308.138 891.679 308.138 892.803 Q308.138 895.051 309.661 895.051 Q311.137 895.051 312.073 893.552 Q313.034 892.053 313.83 889.125 Q313.947 888.587 314.064 888.423 Q314.181 888.259 314.509 888.259 Q315.095 888.259 315.095 888.727 Q314.556 891.468 313.362 893.576 Q311.839 896.129 309.567 896.129 Q307.67 896.129 306.405 894.817 Q305.164 893.482 305.164 891.374 Q305.164 890.859 305.351 889.688 Q305.492 889.219 305.492 888.68 Q305.492 887.58 304.883 886.76 Q304.274 885.917 303.29 885.495 Q302.306 885.073 301.486 884.886 Q300.69 884.675 299.917 884.605 Q297.575 894.513 297.247 895.122 Q297.036 895.543 296.568 895.824 Q296.099 896.129 295.607 896.129 Q295.139 896.129 294.671 895.801 Q294.226 895.496 294.226 894.77 Q294.226 894.396 294.413 893.716 L301.369 866.078 L301.51 865.141 Q301.51 864.86 301.393 864.719 Q301.299 864.555 300.737 864.438 Q300.198 864.321 299.121 864.321 Q298.676 864.321 298.465 864.298 Q298.278 864.274 298.114 864.157 Q297.95 864.017 297.95 863.736 Q297.95 863.337 298.114 863.127 Q298.301 862.892 298.442 862.845 Q298.582 862.799 298.863 862.775 Q299.261 862.752 300.596 862.635 Q301.931 862.494 303.079 862.4 Q304.227 862.307 304.719 862.307 Q305 862.307 305.14 862.447 Q305.304 862.564 305.328 862.705 L305.351 862.822 L300.362 883.059 Q302.423 882.239 305.679 878.609 Q309.45 874.393 312.682 874.393 Q314.205 874.393 315.071 875.33 Q315.938 876.243 315.938 877.414 Z" fill="#000000" fill-rule="evenodd" fill-opacity="1" /><path clip-path="url(#clip510)" d="M363.945 882.919 Q364.226 883.2 364.226 883.598 Q364.226 883.996 363.945 884.277 Q363.664 884.558 363.265 884.558 L333.238 884.558 Q332.84 884.558 332.559 884.277 Q332.278 883.996 332.278 883.598 Q332.278 883.2 332.559 882.919 Q332.84 882.637 333.238 882.637 L363.265 882.637 Q363.664 882.637 363.945 882.919 Z" fill="#000000" fill-rule="evenodd" fill-opacity="1" /><path clip-path="url(#clip510)" d="M382.529 868.209 L382.529 866.71 Q388.291 866.71 391.266 863.642 Q392.086 863.642 392.226 863.829 Q392.367 864.017 392.367 864.883 L392.367 891.796 Q392.367 893.224 393.069 893.669 Q393.772 894.114 396.84 894.114 L398.363 894.114 L398.363 895.59 Q396.676 895.45 390.587 895.45 Q384.497 895.45 382.834 895.59 L382.834 894.114 L384.356 894.114 Q387.378 894.114 388.104 893.693 Q388.83 893.248 388.83 891.796 L388.83 866.944 Q386.324 868.209 382.529 868.209 Z" fill="#000000" fill-rule="evenodd" fill-opacity="1" /><path clip-path="url(#clip510)" d="M405.511 907.114 Q405.511 906.88 406.12 906.294 Q413.85 898.424 413.85 883.598 Q413.85 868.725 406.425 861.206 Q405.511 860.339 405.511 860.082 Q405.511 859.613 405.98 859.613 Q406.308 859.613 407.455 860.574 Q408.626 861.534 410.383 863.736 Q412.163 865.937 413.475 868.631 Q416.637 875.166 416.637 883.598 Q416.637 891.702 413.615 898.237 Q412.327 900.977 410.524 903.273 Q408.72 905.568 407.526 906.575 Q406.331 907.582 405.98 907.582 Q405.511 907.582 405.511 907.114 Z" fill="#000000" fill-rule="evenodd" fill-opacity="1" /><path clip-path="url(#clip510)" d="
M278.69 920.265 L421.647 920.265 L421.647 917.705 L278.69 917.705  Z
  " fill="#000000" fill-rule="evenodd" fill-opacity="1"/>
<path clip-path="url(#clip510)" d="M323.69 972.8 Q323.69 971.933 323.76 971.676 Q323.854 971.418 324.229 971.02 L333.434 960.761 Q338.47 955.093 338.47 950.15 Q338.47 946.942 336.783 944.646 Q335.12 942.351 332.052 942.351 Q329.944 942.351 328.164 943.639 Q326.384 944.927 325.564 947.223 Q325.704 947.176 326.196 947.176 Q327.391 947.176 328.047 947.925 Q328.726 948.675 328.726 949.682 Q328.726 950.97 327.883 951.603 Q327.063 952.212 326.243 952.212 Q325.915 952.212 325.47 952.141 Q325.048 952.071 324.369 951.415 Q323.69 950.736 323.69 949.541 Q323.69 946.192 326.22 943.522 Q328.773 940.852 332.661 940.852 Q337.064 940.852 339.945 943.475 Q342.85 946.075 342.85 950.15 Q342.85 951.579 342.405 952.891 Q341.983 954.179 341.397 955.186 Q340.835 956.193 339.289 957.81 Q337.743 959.426 336.502 960.573 Q335.261 961.721 332.473 964.157 L327.391 969.099 L336.034 969.099 Q340.25 969.099 340.578 968.724 Q341.046 968.045 341.632 964.462 L342.85 964.462 L341.491 972.8 L323.69 972.8 Z" fill="#000000" fill-rule="evenodd" fill-opacity="1" /><path clip-path="url(#clip510)" d="M365.978 940.39 Q365.978 940.521 365.83 941.03 Q365.683 941.538 365.322 942.325 Q364.978 943.112 364.502 943.833 Q364.027 944.538 363.24 945.063 Q362.469 945.571 361.584 945.571 Q360.403 945.571 359.616 944.784 Q358.829 943.997 358.829 942.817 Q358.829 942.161 359.174 941.259 Q361.354 935.439 361.354 933.438 Q361.354 931.094 359.534 931.094 Q358.633 931.094 357.78 931.438 Q356.944 931.766 356.37 932.225 Q355.796 932.684 355.272 933.324 Q354.763 933.947 354.501 934.373 Q354.255 934.783 354.058 935.193 L353.632 936.865 Q353.534 937.324 353.058 939.111 L352.32 942.145 Q351.796 944.407 351.681 944.62 Q351.517 945.079 351.156 945.325 Q350.796 945.571 350.435 945.571 Q350.025 945.571 349.746 945.325 Q349.467 945.079 349.467 944.653 Q349.467 944.587 349.517 944.342 Q349.566 944.096 349.648 943.751 Q349.73 943.407 349.763 943.21 L351.714 935.455 Q352.074 934.045 352.156 933.602 Q352.255 933.143 352.255 932.635 Q352.255 931.094 351.205 931.094 Q350.353 931.094 349.795 932.11 Q349.238 933.127 348.762 935.094 Q348.615 935.635 348.517 935.75 Q348.435 935.865 348.189 935.865 Q347.779 935.849 347.779 935.521 Q347.779 935.439 347.91 934.898 Q348.041 934.357 348.287 933.586 Q348.549 932.799 348.795 932.274 Q349.008 931.881 349.123 931.7 Q349.254 931.504 349.566 931.127 Q349.894 930.733 350.32 930.553 Q350.763 930.356 351.304 930.356 Q352.517 930.356 353.402 931.143 Q354.288 931.914 354.403 933.274 Q356.583 930.356 359.633 930.356 Q361.436 930.356 362.469 931.307 Q363.502 932.258 363.502 933.947 Q363.502 934.34 363.42 934.848 Q363.355 935.34 363.191 935.963 Q363.043 936.586 362.912 937.062 Q362.781 937.537 362.518 938.308 Q362.256 939.062 362.141 939.39 Q362.027 939.718 361.748 940.489 Q361.486 941.243 361.453 941.325 Q360.846 942.85 360.846 943.719 Q360.846 944.292 361.026 944.555 Q361.223 944.817 361.65 944.817 Q362.797 944.817 363.65 943.686 Q364.519 942.538 365.076 940.669 Q365.207 940.259 365.273 940.161 Q365.355 940.062 365.584 940.062 Q365.978 940.062 365.978 940.39 Z" fill="#000000" fill-rule="evenodd" fill-opacity="1" /><path clip-path="url(#clip510)" d="M2129.21 883.598 Q2129.21 875.494 2132.23 868.959 Q2133.51 866.218 2135.32 863.923 Q2137.12 861.628 2138.32 860.62 Q2139.51 859.613 2139.84 859.613 Q2140.31 859.613 2140.33 860.082 Q2140.33 860.316 2139.7 860.901 Q2131.97 868.771 2131.99 883.598 Q2131.99 898.471 2139.51 906.036 Q2140.33 906.856 2140.33 907.114 Q2140.33 907.582 2139.84 907.582 Q2139.51 907.582 2138.36 906.622 Q2137.22 905.662 2135.44 903.46 Q2133.66 901.258 2132.37 898.565 Q2129.21 892.03 2129.21 883.598 Z" fill="#000000" fill-rule="evenodd" fill-opacity="1" /><path clip-path="url(#clip510)" d="M2166.45 877.414 Q2166.45 878.749 2165.63 879.546 Q2164.84 880.342 2163.83 880.342 Q2162.94 880.342 2162.47 879.827 Q2162 879.311 2162 878.656 Q2162 878.375 2162.12 878.023 Q2162.24 877.648 2162.49 877.203 Q2162.78 876.758 2163.36 876.431 Q2163.95 876.103 2164.74 876.056 Q2164.58 875.892 2164.53 875.868 Q2164.18 875.587 2163.53 875.494 Q2163.43 875.447 2163.1 875.447 Q2161.49 875.447 2159.85 876.641 Q2158.23 877.812 2156.24 880.038 Q2153.73 882.637 2152.12 883.598 Q2159.22 884.535 2159.22 888.634 Q2159.22 889.313 2159.03 890.133 Q2158.65 891.679 2158.65 892.803 Q2158.65 895.051 2160.18 895.051 Q2161.65 895.051 2162.59 893.552 Q2163.55 892.053 2164.35 889.125 Q2164.46 888.587 2164.58 888.423 Q2164.7 888.259 2165.02 888.259 Q2165.61 888.259 2165.61 888.727 Q2165.07 891.468 2163.88 893.576 Q2162.35 896.129 2160.08 896.129 Q2158.19 896.129 2156.92 894.817 Q2155.68 893.482 2155.68 891.374 Q2155.68 890.859 2155.87 889.688 Q2156.01 889.219 2156.01 888.68 Q2156.01 887.58 2155.4 886.76 Q2154.79 885.917 2153.81 885.495 Q2152.82 885.073 2152 884.886 Q2151.21 884.675 2150.43 884.605 Q2148.09 894.513 2147.76 895.122 Q2147.55 895.543 2147.08 895.824 Q2146.61 896.129 2146.12 896.129 Q2145.65 896.129 2145.19 895.801 Q2144.74 895.496 2144.74 894.77 Q2144.74 894.396 2144.93 893.716 L2151.88 866.078 L2152.02 865.141 Q2152.02 864.86 2151.91 864.719 Q2151.81 864.555 2151.25 864.438 Q2150.71 864.321 2149.64 864.321 Q2149.19 864.321 2148.98 864.298 Q2148.79 864.274 2148.63 864.157 Q2148.46 864.017 2148.46 863.736 Q2148.46 863.337 2148.63 863.127 Q2148.82 862.892 2148.96 862.845 Q2149.1 862.799 2149.38 862.775 Q2149.78 862.752 2151.11 862.635 Q2152.45 862.494 2153.59 862.4 Q2154.74 862.307 2155.23 862.307 Q2155.51 862.307 2155.66 862.447 Q2155.82 862.564 2155.84 862.705 L2155.87 862.822 L2150.88 883.059 Q2152.94 882.239 2156.19 878.609 Q2159.97 874.393 2163.2 874.393 Q2164.72 874.393 2165.59 875.33 Q2166.45 876.243 2166.45 877.414 Z" fill="#000000" fill-rule="evenodd" fill-opacity="1" /><path clip-path="url(#clip510)" d="M2183.89 884.183 Q2182.79 884.183 2182.79 883.598 Q2182.79 883.012 2183.94 883.012 Q2184.08 883.012 2184.32 883.036 Q2184.57 883.059 2184.62 883.059 L2198.13 883.059 L2198.13 869.497 Q2198.13 869.451 2198.11 869.24 Q2198.09 869.006 2198.09 868.865 Q2198.09 867.717 2198.65 867.717 Q2199.24 867.717 2199.24 868.865 L2199.24 883.059 L2212.77 883.059 Q2212.82 883.059 2213.05 883.036 Q2213.29 883.012 2213.43 883.012 Q2214.53 883.012 2214.53 883.598 Q2214.55 884.183 2213.38 884.183 Q2213.24 884.183 2213.03 884.16 Q2212.82 884.136 2212.77 884.136 L2199.24 884.136 L2199.24 898.377 Q2199.24 899.478 2198.65 899.478 Q2198.09 899.478 2198.09 898.33 Q2198.09 898.19 2198.11 897.956 Q2198.13 897.745 2198.13 897.698 L2198.13 884.136 L2184.62 884.136 Q2184.57 884.136 2184.29 884.16 Q2184.03 884.183 2183.89 884.183 Z" fill="#000000" fill-rule="evenodd" fill-opacity="1" /><path clip-path="url(#clip510)" d="M2233.04 895.59 Q2233.04 894.723 2233.11 894.466 Q2233.21 894.208 2233.58 893.81 L2242.79 883.551 Q2247.82 877.883 2247.82 872.941 Q2247.82 869.732 2246.14 867.436 Q2244.47 865.141 2241.41 865.141 Q2239.3 865.141 2237.52 866.429 Q2235.74 867.717 2234.92 870.013 Q2235.06 869.966 2235.55 869.966 Q2236.75 869.966 2237.4 870.715 Q2238.08 871.465 2238.08 872.472 Q2238.08 873.76 2237.24 874.393 Q2236.42 875.002 2235.6 875.002 Q2235.27 875.002 2234.82 874.931 Q2234.4 874.861 2233.72 874.205 Q2233.04 873.526 2233.04 872.332 Q2233.04 868.982 2235.57 866.312 Q2238.13 863.642 2242.02 863.642 Q2246.42 863.642 2249.3 866.265 Q2252.2 868.865 2252.2 872.941 Q2252.2 874.369 2251.76 875.681 Q2251.34 876.969 2250.75 877.976 Q2250.19 878.984 2248.64 880.6 Q2247.1 882.216 2245.86 883.364 Q2244.61 884.511 2241.83 886.947 L2236.75 891.889 L2245.39 891.889 Q2249.6 891.889 2249.93 891.515 Q2250.4 890.835 2250.99 887.252 L2252.2 887.252 L2250.85 895.59 L2233.04 895.59 Z" fill="#000000" fill-rule="evenodd" fill-opacity="1" /><path clip-path="url(#clip510)" d="M2257.95 907.114 Q2257.95 906.88 2258.56 906.294 Q2266.28 898.424 2266.28 883.598 Q2266.28 868.725 2258.86 861.206 Q2257.95 860.339 2257.95 860.082 Q2257.95 859.613 2258.41 859.613 Q2258.74 859.613 2259.89 860.574 Q2261.06 861.534 2262.82 863.736 Q2264.6 865.937 2265.91 868.631 Q2269.07 875.166 2269.07 883.598 Q2269.07 891.702 2266.05 898.237 Q2264.76 900.977 2262.96 903.273 Q2261.16 905.568 2259.96 906.575 Q2258.77 907.582 2258.41 907.582 Q2257.95 907.582 2257.95 907.114 Z" fill="#000000" fill-rule="evenodd" fill-opacity="1" /><path clip-path="url(#clip510)" d="
M2129.21 920.265 L2274.08 920.265 L2274.08 917.705 L2129.21 917.705  Z
  " fill="#000000" fill-rule="evenodd" fill-opacity="1"/>
<path clip-path="url(#clip510)" d="M2175.21 972.8 Q2175.21 971.933 2175.28 971.676 Q2175.37 971.418 2175.74 971.02 L2184.95 960.761 Q2189.98 955.093 2189.98 950.15 Q2189.98 946.942 2188.3 944.646 Q2186.64 942.351 2183.57 942.351 Q2181.46 942.351 2179.68 943.639 Q2177.9 944.927 2177.08 947.223 Q2177.22 947.176 2177.71 947.176 Q2178.91 947.176 2179.56 947.925 Q2180.24 948.675 2180.24 949.682 Q2180.24 950.97 2179.4 951.603 Q2178.58 952.212 2177.76 952.212 Q2177.43 952.212 2176.99 952.141 Q2176.56 952.071 2175.88 951.415 Q2175.21 950.736 2175.21 949.541 Q2175.21 946.192 2177.73 943.522 Q2180.29 940.852 2184.18 940.852 Q2188.58 940.852 2191.46 943.475 Q2194.36 946.075 2194.36 950.15 Q2194.36 951.579 2193.92 952.891 Q2193.5 954.179 2192.91 955.186 Q2192.35 956.193 2190.8 957.81 Q2189.26 959.426 2188.02 960.573 Q2186.78 961.721 2183.99 964.157 L2178.91 969.099 L2187.55 969.099 Q2191.76 969.099 2192.09 968.724 Q2192.56 968.045 2193.15 964.462 L2194.36 964.462 L2193.01 972.8 L2175.21 972.8 Z" fill="#000000" fill-rule="evenodd" fill-opacity="1" /><path clip-path="url(#clip510)" d="M2217.49 940.39 Q2217.49 940.521 2217.35 941.03 Q2217.2 941.538 2216.84 942.325 Q2216.49 943.112 2216.02 943.833 Q2215.54 944.538 2214.75 945.063 Q2213.98 945.571 2213.1 945.571 Q2211.92 945.571 2211.13 944.784 Q2210.34 943.997 2210.34 942.817 Q2210.34 942.161 2210.69 941.259 Q2212.87 935.439 2212.87 933.438 Q2212.87 931.094 2211.05 931.094 Q2210.15 931.094 2209.3 931.438 Q2208.46 931.766 2207.89 932.225 Q2207.31 932.684 2206.79 933.324 Q2206.28 933.947 2206.02 934.373 Q2205.77 934.783 2205.57 935.193 L2205.15 936.865 Q2205.05 937.324 2204.57 939.111 L2203.84 942.145 Q2203.31 944.407 2203.2 944.62 Q2203.03 945.079 2202.67 945.325 Q2202.31 945.571 2201.95 945.571 Q2201.54 945.571 2201.26 945.325 Q2200.98 945.079 2200.98 944.653 Q2200.98 944.587 2201.03 944.342 Q2201.08 944.096 2201.16 943.751 Q2201.24 943.407 2201.28 943.21 L2203.23 935.455 Q2203.59 934.045 2203.67 933.602 Q2203.77 933.143 2203.77 932.635 Q2203.77 931.094 2202.72 931.094 Q2201.87 931.094 2201.31 932.11 Q2200.75 933.127 2200.28 935.094 Q2200.13 935.635 2200.03 935.75 Q2199.95 935.865 2199.7 935.865 Q2199.29 935.849 2199.29 935.521 Q2199.29 935.439 2199.42 934.898 Q2199.56 934.357 2199.8 933.586 Q2200.06 932.799 2200.31 932.274 Q2200.52 931.881 2200.64 931.7 Q2200.77 931.504 2201.08 931.127 Q2201.41 930.733 2201.84 930.553 Q2202.28 930.356 2202.82 930.356 Q2204.03 930.356 2204.92 931.143 Q2205.8 931.914 2205.92 933.274 Q2208.1 930.356 2211.15 930.356 Q2212.95 930.356 2213.98 931.307 Q2215.02 932.258 2215.02 933.947 Q2215.02 934.34 2214.94 934.848 Q2214.87 935.34 2214.71 935.963 Q2214.56 936.586 2214.43 937.062 Q2214.3 937.537 2214.03 938.308 Q2213.77 939.062 2213.66 939.39 Q2213.54 939.718 2213.26 940.489 Q2213 941.243 2212.97 941.325 Q2212.36 942.85 2212.36 943.719 Q2212.36 944.292 2212.54 944.555 Q2212.74 944.817 2213.16 944.817 Q2214.31 944.817 2215.16 943.686 Q2216.03 942.538 2216.59 940.669 Q2216.72 940.259 2216.79 940.161 Q2216.87 940.062 2217.1 940.062 Q2217.49 940.062 2217.49 940.39 Z" fill="#000000" fill-rule="evenodd" fill-opacity="1" /><path clip-path="url(#clip510)" d="M620.659 699.823 Q620.659 700.478 620.354 700.642 Q620.05 700.783 619.207 700.783 L614.71 700.783 L611.149 714.93 Q610.868 716.171 610.868 717.225 Q610.868 718.397 611.22 718.912 Q611.594 719.427 612.367 719.427 Q613.89 719.427 615.529 718.045 Q617.192 716.663 618.598 713.291 Q618.785 712.845 618.879 712.752 Q618.996 712.635 619.3 712.635 Q619.886 712.635 619.886 713.103 Q619.886 713.267 619.558 714.017 Q619.253 714.766 618.574 715.867 Q617.918 716.968 617.052 717.998 Q616.209 719.029 614.92 719.779 Q613.632 720.505 612.25 720.505 Q610.306 720.505 609.065 719.263 Q607.847 718.022 607.847 716.078 Q607.847 715.445 608.339 713.431 Q608.83 711.393 611.501 700.783 L607.261 700.783 Q606.676 700.783 606.441 700.76 Q606.231 700.736 606.067 700.619 Q605.926 700.478 605.926 700.197 Q605.926 699.752 606.113 699.565 Q606.301 699.354 606.535 699.331 Q606.793 699.284 607.378 699.284 L611.875 699.284 L613.749 691.672 Q613.937 690.922 614.405 690.5 Q614.897 690.055 615.178 690.009 Q615.459 689.938 615.67 689.938 Q616.302 689.938 616.677 690.29 Q617.052 690.618 617.052 691.227 Q617.052 691.554 615.084 699.284 L619.3 699.284 Q619.839 699.284 620.05 699.307 Q620.284 699.331 620.471 699.448 Q620.659 699.565 620.659 699.823 Z" fill="#000000" fill-rule="evenodd" fill-opacity="1" /><path clip-path="url(#clip510)" d="M625.624 723.047 Q625.624 718.112 626.87 715.423 Q628.608 711.422 632.707 711.422 Q633.576 711.422 634.478 711.668 Q635.396 711.898 636.544 712.8 Q637.708 713.701 638.413 715.177 Q639.757 718.03 639.757 723.047 Q639.757 727.949 638.511 730.622 Q636.691 734.524 632.674 734.524 Q631.166 734.524 629.625 733.753 Q628.1 732.983 627.133 731.13 Q625.624 728.359 625.624 723.047 M628.411 722.637 Q628.411 727.703 628.772 729.72 Q629.182 731.901 630.297 732.852 Q631.428 733.786 632.674 733.786 Q634.019 733.786 635.134 732.786 Q636.265 731.77 636.609 729.589 Q636.986 727.441 636.97 722.637 Q636.97 717.964 636.642 716.095 Q636.199 713.915 635.019 713.046 Q633.855 712.16 632.674 712.16 Q632.232 712.16 631.756 712.291 Q631.297 712.423 630.625 712.8 Q629.953 713.177 629.428 714.111 Q628.92 715.046 628.674 716.456 Q628.411 718.276 628.411 722.637 Z" fill="#000000" fill-rule="evenodd" fill-opacity="1" /></svg>
