<?xml version="1.0" encoding="utf-8"?>
<svg xmlns="http://www.w3.org/2000/svg" xmlns:xlink="http://www.w3.org/1999/xlink" width="800" height="600" viewBox="0 0 3200 2400">
<defs>
  <clipPath id="clip310">
    <rect x="0" y="0" width="3200" height="2400"/>
  </clipPath>
</defs>
<path clip-path="url(#clip310)" d="M0 2400 L3200 2400 L3200 0 L0 0  Z" fill="#ffffff" fill-rule="evenodd" fill-opacity="1"/>
<defs>
  <clipPath id="clip311">
    <rect x="640" y="0" width="2241" height="2241"/>
  </clipPath>
</defs>
<path clip-path="url(#clip310)" d="M233.806 2204.92 L3152.76 2204.92 L3152.76 121.312 L233.806 121.312  Z" fill="#eaeaea" fill-rule="evenodd" fill-opacity="1"/>
<defs>
  <clipPath id="clip312">
    <rect x="233" y="121" width="2920" height="2085"/>
  </clipPath>
</defs>
<polyline clip-path="url(#clip312)" style="stroke:#ffffff; stroke-linecap:round; stroke-linejoin:round; stroke-width:2; stroke-opacity:1; fill:none" points="591.791,2204.92 591.791,121.312 "/>
<polyline clip-path="url(#clip312)" style="stroke:#ffffff; stroke-linecap:round; stroke-linejoin:round; stroke-width:2; stroke-opacity:1; fill:none" points="1142.54,2204.92 1142.54,121.312 "/>
<polyline clip-path="url(#clip312)" style="stroke:#ffffff; stroke-linecap:round; stroke-linejoin:round; stroke-width:2; stroke-opacity:1; fill:none" points="1693.28,2204.92 1693.28,121.312 "/>
<polyline clip-path="url(#clip312)" style="stroke:#ffffff; stroke-linecap:round; stroke-linejoin:round; stroke-width:2; stroke-opacity:1; fill:none" points="2244.03,2204.92 2244.03,121.312 "/>
<polyline clip-path="url(#clip312)" style="stroke:#ffffff; stroke-linecap:round; stroke-linejoin:round; stroke-width:2; stroke-opacity:1; fill:none" points="2794.77,2204.92 2794.77,121.312 "/>
<polyline clip-path="url(#clip312)" style="stroke:#ffffff; stroke-linecap:round; stroke-linejoin:round; stroke-width:2; stroke-opacity:1; fill:none" points="233.806,2009.12 3152.76,2009.12 "/>
<polyline clip-path="url(#clip312)" style="stroke:#ffffff; stroke-linecap:round; stroke-linejoin:round; stroke-width:2; stroke-opacity:1; fill:none" points="233.806,1710.9 3152.76,1710.9 "/>
<polyline clip-path="url(#clip312)" style="stroke:#ffffff; stroke-linecap:round; stroke-linejoin:round; stroke-width:2; stroke-opacity:1; fill:none" points="233.806,1412.68 3152.76,1412.68 "/>
<polyline clip-path="url(#clip312)" style="stroke:#ffffff; stroke-linecap:round; stroke-linejoin:round; stroke-width:2; stroke-opacity:1; fill:none" points="233.806,1114.46 3152.76,1114.46 "/>
<polyline clip-path="url(#clip312)" style="stroke:#ffffff; stroke-linecap:round; stroke-linejoin:round; stroke-width:2; stroke-opacity:1; fill:none" points="233.806,816.236 3152.76,816.236 "/>
<polyline clip-path="url(#clip312)" style="stroke:#ffffff; stroke-linecap:round; stroke-linejoin:round; stroke-width:2; stroke-opacity:1; fill:none" points="233.806,518.015 3152.76,518.015 "/>
<polyline clip-path="url(#clip312)" style="stroke:#ffffff; stroke-linecap:round; stroke-linejoin:round; stroke-width:2; stroke-opacity:1; fill:none" points="233.806,219.795 3152.76,219.795 "/>
<polyline clip-path="url(#clip312)" style="stroke:#ffffff; stroke-linecap:round; stroke-linejoin:round; stroke-width:4; stroke-opacity:1; fill:none" points="316.418,2204.92 316.418,121.312 "/>
<polyline clip-path="url(#clip312)" style="stroke:#ffffff; stroke-linecap:round; stroke-linejoin:round; stroke-width:4; stroke-opacity:1; fill:none" points="867.163,2204.92 867.163,121.312 "/>
<polyline clip-path="url(#clip312)" style="stroke:#ffffff; stroke-linecap:round; stroke-linejoin:round; stroke-width:4; stroke-opacity:1; fill:none" points="1417.91,2204.92 1417.91,121.312 "/>
<polyline clip-path="url(#clip312)" style="stroke:#ffffff; stroke-linecap:round; stroke-linejoin:round; stroke-width:4; stroke-opacity:1; fill:none" points="1968.65,2204.92 1968.65,121.312 "/>
<polyline clip-path="url(#clip312)" style="stroke:#ffffff; stroke-linecap:round; stroke-linejoin:round; stroke-width:4; stroke-opacity:1; fill:none" points="2519.4,2204.92 2519.4,121.312 "/>
<polyline clip-path="url(#clip312)" style="stroke:#ffffff; stroke-linecap:round; stroke-linejoin:round; stroke-width:4; stroke-opacity:1; fill:none" points="3070.14,2204.92 3070.14,121.312 "/>
<polyline clip-path="url(#clip312)" style="stroke:#ffffff; stroke-linecap:round; stroke-linejoin:round; stroke-width:4; stroke-opacity:1; fill:none" points="233.806,2158.23 3152.76,2158.23 "/>
<polyline clip-path="url(#clip312)" style="stroke:#ffffff; stroke-linecap:round; stroke-linejoin:round; stroke-width:4; stroke-opacity:1; fill:none" points="233.806,1860.01 3152.76,1860.01 "/>
<polyline clip-path="url(#clip312)" style="stroke:#ffffff; stroke-linecap:round; stroke-linejoin:round; stroke-width:4; stroke-opacity:1; fill:none" points="233.806,1561.79 3152.76,1561.79 "/>
<polyline clip-path="url(#clip312)" style="stroke:#ffffff; stroke-linecap:round; stroke-linejoin:round; stroke-width:4; stroke-opacity:1; fill:none" points="233.806,1263.57 3152.76,1263.57 "/>
<polyline clip-path="url(#clip312)" style="stroke:#ffffff; stroke-linecap:round; stroke-linejoin:round; stroke-width:4; stroke-opacity:1; fill:none" points="233.806,965.346 3152.76,965.346 "/>
<polyline clip-path="url(#clip312)" style="stroke:#ffffff; stroke-linecap:round; stroke-linejoin:round; stroke-width:4; stroke-opacity:1; fill:none" points="233.806,667.125 3152.76,667.125 "/>
<polyline clip-path="url(#clip312)" style="stroke:#ffffff; stroke-linecap:round; stroke-linejoin:round; stroke-width:4; stroke-opacity:1; fill:none" points="233.806,368.905 3152.76,368.905 "/>
<polyline clip-path="url(#clip310)" style="stroke:#ffffff; stroke-linecap:round; stroke-linejoin:round; stroke-width:4; stroke-opacity:1; fill:none" points="233.806,2204.92 3152.76,2204.92 "/>
<polyline clip-path="url(#clip310)" style="stroke:#333333; stroke-linecap:round; stroke-linejoin:round; stroke-width:4; stroke-opacity:1; fill:none" points="316.418,2204.92 316.418,2223.82 "/>
<polyline clip-path="url(#clip310)" style="stroke:#333333; stroke-linecap:round; stroke-linejoin:round; stroke-width:4; stroke-opacity:1; fill:none" points="867.163,2204.92 867.163,2223.82 "/>
<polyline clip-path="url(#clip310)" style="stroke:#333333; stroke-linecap:round; stroke-linejoin:round; stroke-width:4; stroke-opacity:1; fill:none" points="1417.91,2204.92 1417.91,2223.82 "/>
<polyline clip-path="url(#clip310)" style="stroke:#333333; stroke-linecap:round; stroke-linejoin:round; stroke-width:4; stroke-opacity:1; fill:none" points="1968.65,2204.92 1968.65,2223.82 "/>
<polyline clip-path="url(#clip310)" style="stroke:#333333; stroke-linecap:round; stroke-linejoin:round; stroke-width:4; stroke-opacity:1; fill:none" points="2519.4,2204.92 2519.4,2223.82 "/>
<polyline clip-path="url(#clip310)" style="stroke:#333333; stroke-linecap:round; stroke-linejoin:round; stroke-width:4; stroke-opacity:1; fill:none" points="3070.14,2204.92 3070.14,2223.82 "/>
<polyline clip-path="url(#clip310)" style="stroke:#333333; stroke-linecap:round; stroke-linejoin:round; stroke-width:4; stroke-opacity:1; fill:none" points="591.791,2204.92 591.791,2214.37 "/>
<polyline clip-path="url(#clip310)" style="stroke:#333333; stroke-linecap:round; stroke-linejoin:round; stroke-width:4; stroke-opacity:1; fill:none" points="1142.54,2204.92 1142.54,2214.37 "/>
<polyline clip-path="url(#clip310)" style="stroke:#333333; stroke-linecap:round; stroke-linejoin:round; stroke-width:4; stroke-opacity:1; fill:none" points="1693.28,2204.92 1693.28,2214.37 "/>
<polyline clip-path="url(#clip310)" style="stroke:#333333; stroke-linecap:round; stroke-linejoin:round; stroke-width:4; stroke-opacity:1; fill:none" points="2244.03,2204.92 2244.03,2214.37 "/>
<polyline clip-path="url(#clip310)" style="stroke:#333333; stroke-linecap:round; stroke-linejoin:round; stroke-width:4; stroke-opacity:1; fill:none" points="2794.77,2204.92 2794.77,2214.37 "/>
<path clip-path="url(#clip310)" d="M316.418 2255.04 Q312.807 2255.04 310.978 2258.6 Q309.173 2262.14 309.173 2269.27 Q309.173 2276.38 310.978 2279.95 Q312.807 2283.49 316.418 2283.49 Q320.052 2283.49 321.858 2279.95 Q323.687 2276.38 323.687 2269.27 Q323.687 2262.14 321.858 2258.6 Q320.052 2255.04 316.418 2255.04 M316.418 2251.33 Q322.228 2251.33 325.284 2255.94 Q328.362 2260.52 328.362 2269.27 Q328.362 2278 325.284 2282.61 Q322.228 2287.19 316.418 2287.19 Q310.608 2287.19 307.529 2282.61 Q304.474 2278 304.474 2269.27 Q304.474 2260.52 307.529 2255.94 Q310.608 2251.33 316.418 2251.33 Z" fill="#4c4c4c" fill-rule="nonzero" fill-opacity="1" /><path clip-path="url(#clip310)" d="M857.545 2282.58 L865.184 2282.58 L865.184 2256.22 L856.874 2257.89 L856.874 2253.63 L865.138 2251.96 L869.814 2251.96 L869.814 2282.58 L877.453 2282.58 L877.453 2286.52 L857.545 2286.52 L857.545 2282.58 Z" fill="#4c4c4c" fill-rule="nonzero" fill-opacity="1" /><path clip-path="url(#clip310)" d="M1412.56 2282.58 L1428.88 2282.58 L1428.88 2286.52 L1406.94 2286.52 L1406.94 2282.58 Q1409.6 2279.83 1414.18 2275.2 Q1418.79 2270.55 1419.97 2269.21 Q1422.21 2266.68 1423.09 2264.95 Q1424 2263.19 1424 2261.5 Q1424 2258.74 1422.05 2257.01 Q1420.13 2255.27 1417.03 2255.27 Q1414.83 2255.27 1412.38 2256.03 Q1409.95 2256.8 1407.17 2258.35 L1407.17 2253.63 Q1409.99 2252.49 1412.45 2251.91 Q1414.9 2251.33 1416.94 2251.33 Q1422.31 2251.33 1425.5 2254.02 Q1428.7 2256.71 1428.7 2261.2 Q1428.7 2263.33 1427.89 2265.25 Q1427.1 2267.14 1424.99 2269.74 Q1424.41 2270.41 1421.31 2273.63 Q1418.21 2276.82 1412.56 2282.58 Z" fill="#4c4c4c" fill-rule="nonzero" fill-opacity="1" /><path clip-path="url(#clip310)" d="M1972.9 2267.89 Q1976.26 2268.6 1978.13 2270.87 Q1980.03 2273.14 1980.03 2276.47 Q1980.03 2281.59 1976.51 2284.39 Q1972.99 2287.19 1966.51 2287.19 Q1964.34 2287.19 1962.02 2286.75 Q1959.73 2286.33 1957.28 2285.48 L1957.28 2280.96 Q1959.22 2282.1 1961.54 2282.68 Q1963.85 2283.26 1966.37 2283.26 Q1970.77 2283.26 1973.06 2281.52 Q1975.38 2279.78 1975.38 2276.47 Q1975.38 2273.42 1973.23 2271.71 Q1971.1 2269.97 1967.28 2269.97 L1963.25 2269.97 L1963.25 2266.13 L1967.46 2266.13 Q1970.91 2266.13 1972.74 2264.76 Q1974.57 2263.37 1974.57 2260.78 Q1974.57 2258.12 1972.67 2256.71 Q1970.79 2255.27 1967.28 2255.27 Q1965.36 2255.27 1963.16 2255.69 Q1960.96 2256.1 1958.32 2256.98 L1958.32 2252.82 Q1960.98 2252.08 1963.29 2251.71 Q1965.63 2251.33 1967.69 2251.33 Q1973.02 2251.33 1976.12 2253.77 Q1979.22 2256.17 1979.22 2260.29 Q1979.22 2263.16 1977.58 2265.15 Q1975.93 2267.12 1972.9 2267.89 Z" fill="#4c4c4c" fill-rule="nonzero" fill-opacity="1" /><path clip-path="url(#clip310)" d="M2522.41 2256.03 L2510.6 2274.48 L2522.41 2274.48 L2522.41 2256.03 M2521.18 2251.96 L2527.06 2251.96 L2527.06 2274.48 L2531.99 2274.48 L2531.99 2278.37 L2527.06 2278.37 L2527.06 2286.52 L2522.41 2286.52 L2522.41 2278.37 L2506.81 2278.37 L2506.81 2273.86 L2521.18 2251.96 Z" fill="#4c4c4c" fill-rule="nonzero" fill-opacity="1" /><path clip-path="url(#clip310)" d="M3060.42 2251.96 L3078.78 2251.96 L3078.78 2255.9 L3064.7 2255.9 L3064.7 2264.37 Q3065.72 2264.02 3066.74 2263.86 Q3067.76 2263.67 3068.78 2263.67 Q3074.57 2263.67 3077.95 2266.84 Q3081.32 2270.02 3081.32 2275.43 Q3081.32 2281.01 3077.85 2284.11 Q3074.38 2287.19 3068.06 2287.19 Q3065.88 2287.19 3063.62 2286.82 Q3061.37 2286.45 3058.96 2285.71 L3058.96 2281.01 Q3061.05 2282.14 3063.27 2282.7 Q3065.49 2283.26 3067.97 2283.26 Q3071.97 2283.26 3074.31 2281.15 Q3076.65 2279.04 3076.65 2275.43 Q3076.65 2271.82 3074.31 2269.71 Q3071.97 2267.61 3067.97 2267.61 Q3066.09 2267.61 3064.22 2268.02 Q3062.37 2268.44 3060.42 2269.32 L3060.42 2251.96 Z" fill="#4c4c4c" fill-rule="nonzero" fill-opacity="1" /><path clip-path="url(#clip310)" d="M1692.34 2316.01 L1692.34 2326.14 L1704.41 2326.14 L1704.41 2330.69 L1692.34 2330.69 L1692.34 2350.04 Q1692.34 2354.4 1693.52 2355.64 Q1694.73 2356.88 1698.39 2356.88 L1704.41 2356.88 L1704.41 2361.78 L1698.39 2361.78 Q1691.61 2361.78 1689.03 2359.27 Q1686.45 2356.72 1686.45 2350.04 L1686.45 2330.69 L1682.16 2330.69 L1682.16 2326.14 L1686.45 2326.14 L1686.45 2316.01 L1692.34 2316.01 Z" fill="#000000" fill-rule="nonzero" fill-opacity="1" /><polyline clip-path="url(#clip310)" style="stroke:#ffffff; stroke-linecap:round; stroke-linejoin:round; stroke-width:4; stroke-opacity:1; fill:none" points="233.806,2204.92 233.806,121.312 "/>
<polyline clip-path="url(#clip310)" style="stroke:#333333; stroke-linecap:round; stroke-linejoin:round; stroke-width:4; stroke-opacity:1; fill:none" points="233.806,2158.23 214.909,2158.23 "/>
<polyline clip-path="url(#clip310)" style="stroke:#333333; stroke-linecap:round; stroke-linejoin:round; stroke-width:4; stroke-opacity:1; fill:none" points="233.806,1860.01 214.909,1860.01 "/>
<polyline clip-path="url(#clip310)" style="stroke:#333333; stroke-linecap:round; stroke-linejoin:round; stroke-width:4; stroke-opacity:1; fill:none" points="233.806,1561.79 214.909,1561.79 "/>
<polyline clip-path="url(#clip310)" style="stroke:#333333; stroke-linecap:round; stroke-linejoin:round; stroke-width:4; stroke-opacity:1; fill:none" points="233.806,1263.57 214.909,1263.57 "/>
<polyline clip-path="url(#clip310)" style="stroke:#333333; stroke-linecap:round; stroke-linejoin:round; stroke-width:4; stroke-opacity:1; fill:none" points="233.806,965.346 214.909,965.346 "/>
<polyline clip-path="url(#clip310)" style="stroke:#333333; stroke-linecap:round; stroke-linejoin:round; stroke-width:4; stroke-opacity:1; fill:none" points="233.806,667.125 214.909,667.125 "/>
<polyline clip-path="url(#clip310)" style="stroke:#333333; stroke-linecap:round; stroke-linejoin:round; stroke-width:4; stroke-opacity:1; fill:none" points="233.806,368.905 214.909,368.905 "/>
<polyline clip-path="url(#clip310)" style="stroke:#333333; stroke-linecap:round; stroke-linejoin:round; stroke-width:4; stroke-opacity:1; fill:none" points="233.806,2009.12 224.357,2009.12 "/>
<polyline clip-path="url(#clip310)" style="stroke:#333333; stroke-linecap:round; stroke-linejoin:round; stroke-width:4; stroke-opacity:1; fill:none" points="233.806,1710.9 224.357,1710.9 "/>
<polyline clip-path="url(#clip310)" style="stroke:#333333; stroke-linecap:round; stroke-linejoin:round; stroke-width:4; stroke-opacity:1; fill:none" points="233.806,1412.68 224.357,1412.68 "/>
<polyline clip-path="url(#clip310)" style="stroke:#333333; stroke-linecap:round; stroke-linejoin:round; stroke-width:4; stroke-opacity:1; fill:none" points="233.806,1114.46 224.357,1114.46 "/>
<polyline clip-path="url(#clip310)" style="stroke:#333333; stroke-linecap:round; stroke-linejoin:round; stroke-width:4; stroke-opacity:1; fill:none" points="233.806,816.236 224.357,816.236 "/>
<polyline clip-path="url(#clip310)" style="stroke:#333333; stroke-linecap:round; stroke-linejoin:round; stroke-width:4; stroke-opacity:1; fill:none" points="233.806,518.015 224.357,518.015 "/>
<polyline clip-path="url(#clip310)" style="stroke:#333333; stroke-linecap:round; stroke-linejoin:round; stroke-width:4; stroke-opacity:1; fill:none" points="233.806,219.795 224.357,219.795 "/>
<path clip-path="url(#clip310)" d="M106.228 2144.03 Q102.617 2144.03 100.788 2147.59 Q98.9825 2151.13 98.9825 2158.26 Q98.9825 2165.37 100.788 2168.93 Q102.617 2172.47 106.228 2172.47 Q109.862 2172.47 111.668 2168.93 Q113.496 2165.37 113.496 2158.26 Q113.496 2151.13 111.668 2147.59 Q109.862 2144.03 106.228 2144.03 M106.228 2140.32 Q112.038 2140.32 115.094 2144.93 Q118.172 2149.51 118.172 2158.26 Q118.172 2166.99 115.094 2171.59 Q112.038 2176.18 106.228 2176.18 Q100.418 2176.18 97.339 2171.59 Q94.2835 2166.99 94.2835 2158.26 Q94.2835 2149.51 97.339 2144.93 Q100.418 2140.32 106.228 2140.32 Z" fill="#4c4c4c" fill-rule="nonzero" fill-opacity="1" /><path clip-path="url(#clip310)" d="M126.39 2169.63 L131.274 2169.63 L131.274 2175.51 L126.39 2175.51 L126.39 2169.63 Z" fill="#4c4c4c" fill-rule="nonzero" fill-opacity="1" /><path clip-path="url(#clip310)" d="M145.487 2171.57 L161.806 2171.57 L161.806 2175.51 L139.862 2175.51 L139.862 2171.57 Q142.524 2168.82 147.107 2164.19 Q151.714 2159.53 152.894 2158.19 Q155.14 2155.67 156.019 2153.93 Q156.922 2152.17 156.922 2150.48 Q156.922 2147.73 154.978 2145.99 Q153.056 2144.26 149.954 2144.26 Q147.755 2144.26 145.302 2145.02 Q142.871 2145.78 140.093 2147.34 L140.093 2142.61 Q142.917 2141.48 145.371 2140.9 Q147.825 2140.32 149.862 2140.32 Q155.232 2140.32 158.427 2143.01 Q161.621 2145.69 161.621 2150.18 Q161.621 2152.31 160.811 2154.23 Q160.024 2156.13 157.917 2158.72 Q157.339 2159.4 154.237 2162.61 Q151.135 2165.81 145.487 2171.57 Z" fill="#4c4c4c" fill-rule="nonzero" fill-opacity="1" /><path clip-path="url(#clip310)" d="M104.145 1845.8 Q100.533 1845.8 98.7048 1849.37 Q96.8992 1852.91 96.8992 1860.04 Q96.8992 1867.15 98.7048 1870.71 Q100.533 1874.25 104.145 1874.25 Q107.779 1874.25 109.584 1870.71 Q111.413 1867.15 111.413 1860.04 Q111.413 1852.91 109.584 1849.37 Q107.779 1845.8 104.145 1845.8 M104.145 1842.1 Q109.955 1842.1 113.01 1846.71 Q116.089 1851.29 116.089 1860.04 Q116.089 1868.77 113.01 1873.37 Q109.955 1877.96 104.145 1877.96 Q98.3344 1877.96 95.2557 1873.37 Q92.2002 1868.77 92.2002 1860.04 Q92.2002 1851.29 95.2557 1846.71 Q98.3344 1842.1 104.145 1842.1 Z" fill="#4c4c4c" fill-rule="nonzero" fill-opacity="1" /><path clip-path="url(#clip310)" d="M124.306 1871.41 L129.191 1871.41 L129.191 1877.29 L124.306 1877.29 L124.306 1871.41 Z" fill="#4c4c4c" fill-rule="nonzero" fill-opacity="1" /><path clip-path="url(#clip310)" d="M152.223 1846.8 L140.417 1865.25 L152.223 1865.25 L152.223 1846.8 M150.996 1842.73 L156.876 1842.73 L156.876 1865.25 L161.806 1865.25 L161.806 1869.14 L156.876 1869.14 L156.876 1877.29 L152.223 1877.29 L152.223 1869.14 L136.621 1869.14 L136.621 1864.62 L150.996 1842.73 Z" fill="#4c4c4c" fill-rule="nonzero" fill-opacity="1" /><path clip-path="url(#clip310)" d="M104.469 1547.58 Q100.858 1547.58 99.0288 1551.15 Q97.2233 1554.69 97.2233 1561.82 Q97.2233 1568.93 99.0288 1572.49 Q100.858 1576.03 104.469 1576.03 Q108.103 1576.03 109.908 1572.49 Q111.737 1568.93 111.737 1561.82 Q111.737 1554.69 109.908 1551.15 Q108.103 1547.58 104.469 1547.58 M104.469 1543.88 Q110.279 1543.88 113.334 1548.49 Q116.413 1553.07 116.413 1561.82 Q116.413 1570.55 113.334 1575.15 Q110.279 1579.74 104.469 1579.74 Q98.6585 1579.74 95.5798 1575.15 Q92.5242 1570.55 92.5242 1561.82 Q92.5242 1553.07 95.5798 1548.49 Q98.6585 1543.88 104.469 1543.88 Z" fill="#4c4c4c" fill-rule="nonzero" fill-opacity="1" /><path clip-path="url(#clip310)" d="M124.631 1573.19 L129.515 1573.19 L129.515 1579.07 L124.631 1579.07 L124.631 1573.19 Z" fill="#4c4c4c" fill-rule="nonzero" fill-opacity="1" /><path clip-path="url(#clip310)" d="M150.279 1559.92 Q147.13 1559.92 145.279 1562.08 Q143.45 1564.23 143.45 1567.98 Q143.45 1571.7 145.279 1573.88 Q147.13 1576.03 150.279 1576.03 Q153.427 1576.03 155.255 1573.88 Q157.107 1571.7 157.107 1567.98 Q157.107 1564.23 155.255 1562.08 Q153.427 1559.92 150.279 1559.92 M159.561 1545.27 L159.561 1549.53 Q157.802 1548.7 155.996 1548.26 Q154.214 1547.82 152.454 1547.82 Q147.825 1547.82 145.371 1550.94 Q142.941 1554.07 142.593 1560.39 Q143.959 1558.37 146.019 1557.31 Q148.079 1556.22 150.556 1556.22 Q155.765 1556.22 158.774 1559.39 Q161.806 1562.54 161.806 1567.98 Q161.806 1573.3 158.658 1576.52 Q155.51 1579.74 150.279 1579.74 Q144.283 1579.74 141.112 1575.15 Q137.941 1570.55 137.941 1561.82 Q137.941 1553.63 141.83 1548.77 Q145.718 1543.88 152.269 1543.88 Q154.029 1543.88 155.811 1544.23 Q157.616 1544.58 159.561 1545.27 Z" fill="#4c4c4c" fill-rule="nonzero" fill-opacity="1" /><path clip-path="url(#clip310)" d="M104.723 1249.36 Q101.112 1249.36 99.2835 1252.93 Q97.4779 1256.47 97.4779 1263.6 Q97.4779 1270.71 99.2835 1274.27 Q101.112 1277.81 104.723 1277.81 Q108.357 1277.81 110.163 1274.27 Q111.992 1270.71 111.992 1263.6 Q111.992 1256.47 110.163 1252.93 Q108.357 1249.36 104.723 1249.36 M104.723 1245.66 Q110.533 1245.66 113.589 1250.27 Q116.668 1254.85 116.668 1263.6 Q116.668 1272.33 113.589 1276.93 Q110.533 1281.52 104.723 1281.52 Q98.9131 1281.52 95.8344 1276.93 Q92.7789 1272.33 92.7789 1263.6 Q92.7789 1254.85 95.8344 1250.27 Q98.9131 1245.66 104.723 1245.66 Z" fill="#4c4c4c" fill-rule="nonzero" fill-opacity="1" /><path clip-path="url(#clip310)" d="M124.885 1274.97 L129.769 1274.97 L129.769 1280.85 L124.885 1280.85 L124.885 1274.97 Z" fill="#4c4c4c" fill-rule="nonzero" fill-opacity="1" /><path clip-path="url(#clip310)" d="M149.954 1264.43 Q146.621 1264.43 144.7 1266.22 Q142.802 1268 142.802 1271.12 Q142.802 1274.25 144.7 1276.03 Q146.621 1277.81 149.954 1277.81 Q153.288 1277.81 155.209 1276.03 Q157.13 1274.23 157.13 1271.12 Q157.13 1268 155.209 1266.22 Q153.311 1264.43 149.954 1264.43 M145.279 1262.44 Q142.269 1261.7 140.58 1259.64 Q138.913 1257.58 138.913 1254.62 Q138.913 1250.48 141.853 1248.07 Q144.816 1245.66 149.954 1245.66 Q155.116 1245.66 158.056 1248.07 Q160.996 1250.48 160.996 1254.62 Q160.996 1257.58 159.306 1259.64 Q157.64 1261.7 154.654 1262.44 Q158.033 1263.23 159.908 1265.52 Q161.806 1267.81 161.806 1271.12 Q161.806 1276.15 158.728 1278.83 Q155.672 1281.52 149.954 1281.52 Q144.237 1281.52 141.158 1278.83 Q138.103 1276.15 138.103 1271.12 Q138.103 1267.81 140.001 1265.52 Q141.899 1263.23 145.279 1262.44 M143.566 1255.06 Q143.566 1257.74 145.232 1259.25 Q146.922 1260.75 149.954 1260.75 Q152.964 1260.75 154.654 1259.25 Q156.366 1257.74 156.366 1255.06 Q156.366 1252.37 154.654 1250.87 Q152.964 1249.36 149.954 1249.36 Q146.922 1249.36 145.232 1250.87 Q143.566 1252.37 143.566 1255.06 Z" fill="#4c4c4c" fill-rule="nonzero" fill-opacity="1" /><path clip-path="url(#clip310)" d="M95.4409 978.69 L103.08 978.69 L103.08 952.325 L94.7696 953.992 L94.7696 949.732 L103.033 948.066 L107.709 948.066 L107.709 978.69 L115.348 978.69 L115.348 982.626 L95.4409 982.626 L95.4409 978.69 Z" fill="#4c4c4c" fill-rule="nonzero" fill-opacity="1" /><path clip-path="url(#clip310)" d="M124.793 976.746 L129.677 976.746 L129.677 982.626 L124.793 982.626 L124.793 976.746 Z" fill="#4c4c4c" fill-rule="nonzero" fill-opacity="1" /><path clip-path="url(#clip310)" d="M149.862 951.144 Q146.251 951.144 144.422 954.709 Q142.617 958.251 142.617 965.38 Q142.617 972.487 144.422 976.052 Q146.251 979.593 149.862 979.593 Q153.496 979.593 155.302 976.052 Q157.13 972.487 157.13 965.38 Q157.13 958.251 155.302 954.709 Q153.496 951.144 149.862 951.144 M149.862 947.441 Q155.672 947.441 158.728 952.047 Q161.806 956.63 161.806 965.38 Q161.806 974.107 158.728 978.714 Q155.672 983.297 149.862 983.297 Q144.052 983.297 140.973 978.714 Q137.918 974.107 137.918 965.38 Q137.918 956.63 140.973 952.047 Q144.052 947.441 149.862 947.441 Z" fill="#4c4c4c" fill-rule="nonzero" fill-opacity="1" /><path clip-path="url(#clip310)" d="M97.0381 680.47 L104.677 680.47 L104.677 654.105 L96.3668 655.771 L96.3668 651.512 L104.631 649.845 L109.307 649.845 L109.307 680.47 L116.945 680.47 L116.945 684.405 L97.0381 684.405 L97.0381 680.47 Z" fill="#4c4c4c" fill-rule="nonzero" fill-opacity="1" /><path clip-path="url(#clip310)" d="M126.39 678.526 L131.274 678.526 L131.274 684.405 L126.39 684.405 L126.39 678.526 Z" fill="#4c4c4c" fill-rule="nonzero" fill-opacity="1" /><path clip-path="url(#clip310)" d="M145.487 680.47 L161.806 680.47 L161.806 684.405 L139.862 684.405 L139.862 680.47 Q142.524 677.716 147.107 673.086 Q151.714 668.433 152.894 667.091 Q155.14 664.568 156.019 662.832 Q156.922 661.072 156.922 659.382 Q156.922 656.628 154.978 654.892 Q153.056 653.156 149.954 653.156 Q147.755 653.156 145.302 653.92 Q142.871 654.683 140.093 656.234 L140.093 651.512 Q142.917 650.378 145.371 649.799 Q147.825 649.22 149.862 649.22 Q155.232 649.22 158.427 651.906 Q161.621 654.591 161.621 659.082 Q161.621 661.211 160.811 663.132 Q160.024 665.031 157.917 667.623 Q157.339 668.294 154.237 671.512 Q151.135 674.706 145.487 680.47 Z" fill="#4c4c4c" fill-rule="nonzero" fill-opacity="1" /><path clip-path="url(#clip310)" d="M94.9548 382.25 L102.594 382.25 L102.594 355.885 L94.2835 357.551 L94.2835 353.292 L102.547 351.625 L107.223 351.625 L107.223 382.25 L114.862 382.25 L114.862 386.185 L94.9548 386.185 L94.9548 382.25 Z" fill="#4c4c4c" fill-rule="nonzero" fill-opacity="1" /><path clip-path="url(#clip310)" d="M124.306 380.306 L129.191 380.306 L129.191 386.185 L124.306 386.185 L124.306 380.306 Z" fill="#4c4c4c" fill-rule="nonzero" fill-opacity="1" /><path clip-path="url(#clip310)" d="M152.223 355.699 L140.417 374.148 L152.223 374.148 L152.223 355.699 M150.996 351.625 L156.876 351.625 L156.876 374.148 L161.806 374.148 L161.806 378.037 L156.876 378.037 L156.876 386.185 L152.223 386.185 L152.223 378.037 L136.621 378.037 L136.621 373.523 L150.996 351.625 Z" fill="#4c4c4c" fill-rule="nonzero" fill-opacity="1" /><path clip-path="url(#clip310)" d="M48.597 1321.32 L67.5031 1321.32 L67.5031 1327.21 L18.2962 1327.21 L18.2962 1321.32 L23.7071 1321.32 Q20.5242 1319.47 18.9964 1316.67 Q17.4368 1313.84 17.4368 1309.93 Q17.4368 1303.43 22.5931 1299.39 Q27.7493 1295.32 36.152 1295.32 Q44.5547 1295.32 49.711 1299.39 Q54.8672 1303.43 54.8672 1309.93 Q54.8672 1313.84 53.3394 1316.67 Q51.7798 1319.47 48.597 1321.32 M36.152 1301.4 Q29.6908 1301.4 26.0305 1304.07 Q22.3384 1306.71 22.3384 1311.36 Q22.3384 1316 26.0305 1318.68 Q29.6908 1321.32 36.152 1321.32 Q42.6132 1321.32 46.3053 1318.68 Q49.9656 1316 49.9656 1311.36 Q49.9656 1306.71 46.3053 1304.07 Q42.6132 1301.4 36.152 1301.4 Z" fill="#000000" fill-rule="nonzero" fill-opacity="1" /><path clip-path="url(#clip310)" d="M22.4021 1271.79 Q22.4021 1276.51 26.0942 1279.24 Q29.7545 1281.98 36.152 1281.98 Q42.5495 1281.98 46.2417 1279.27 Q49.9019 1276.54 49.9019 1271.79 Q49.9019 1267.12 46.2098 1264.38 Q42.5177 1261.64 36.152 1261.64 Q29.8181 1261.64 26.126 1264.38 Q22.4021 1267.12 22.4021 1271.79 M17.4368 1271.79 Q17.4368 1264.16 22.4021 1259.8 Q27.3673 1255.43 36.152 1255.43 Q44.9049 1255.43 49.9019 1259.8 Q54.8672 1264.16 54.8672 1271.79 Q54.8672 1279.47 49.9019 1283.83 Q44.9049 1288.15 36.152 1288.15 Q27.3673 1288.15 22.4021 1283.83 Q17.4368 1279.47 17.4368 1271.79 Z" fill="#000000" fill-rule="nonzero" fill-opacity="1" /><path clip-path="url(#clip310)" d="M48.597 1240.06 L67.5031 1240.06 L67.5031 1245.95 L18.2962 1245.95 L18.2962 1240.06 L23.7071 1240.06 Q20.5242 1238.22 18.9964 1235.41 Q17.4368 1232.58 17.4368 1228.67 Q17.4368 1222.17 22.5931 1218.13 Q27.7493 1214.06 36.152 1214.06 Q44.5547 1214.06 49.711 1218.13 Q54.8672 1222.17 54.8672 1228.67 Q54.8672 1232.58 53.3394 1235.41 Q51.7798 1238.22 48.597 1240.06 M36.152 1220.14 Q29.6908 1220.14 26.0305 1222.81 Q22.3384 1225.45 22.3384 1230.1 Q22.3384 1234.75 26.0305 1237.42 Q29.6908 1240.06 36.152 1240.06 Q42.6132 1240.06 46.3053 1237.42 Q49.9656 1234.75 49.9656 1230.1 Q49.9656 1225.45 46.3053 1222.81 Q42.6132 1220.14 36.152 1220.14 Z" fill="#000000" fill-rule="nonzero" fill-opacity="1" /><path clip-path="url(#clip310)" d="M39.8759 1204.95 L18.2962 1204.95 L18.2962 1199.1 L39.6531 1199.1 Q44.7139 1199.1 47.2602 1197.12 Q49.7746 1195.15 49.7746 1191.2 Q49.7746 1186.46 46.7509 1183.72 Q43.7272 1180.96 38.5073 1180.96 L18.2962 1180.96 L18.2962 1175.1 L53.9442 1175.1 L53.9442 1180.96 L48.4696 1180.96 Q51.7162 1183.09 53.3076 1185.92 Q54.8672 1188.72 54.8672 1192.45 Q54.8672 1198.59 51.0478 1201.77 Q47.2283 1204.95 39.8759 1204.95 M17.4368 1190.22 L17.4368 1190.22 Z" fill="#000000" fill-rule="nonzero" fill-opacity="1" /><path clip-path="url(#clip310)" d="M4.41896 1163.04 L4.41896 1157.18 L53.9442 1157.18 L53.9442 1163.04 L4.41896 1163.04 Z" fill="#000000" fill-rule="nonzero" fill-opacity="1" /><path clip-path="url(#clip310)" d="M36.0247 1128.73 Q36.0247 1135.82 37.6479 1138.56 Q39.2712 1141.3 43.1861 1141.3 Q46.3053 1141.3 48.1514 1139.26 Q49.9656 1137.19 49.9656 1133.66 Q49.9656 1128.79 46.5281 1125.86 Q43.0588 1122.9 37.3297 1122.9 L36.0247 1122.9 L36.0247 1128.73 M33.6057 1117.04 L53.9442 1117.04 L53.9442 1122.9 L48.5333 1122.9 Q51.7798 1124.91 53.3394 1127.9 Q54.8672 1130.89 54.8672 1135.22 Q54.8672 1140.69 51.8116 1143.94 Q48.7243 1147.15 43.5681 1147.15 Q37.5525 1147.15 34.4969 1143.14 Q31.4414 1139.1 31.4414 1131.11 L31.4414 1122.9 L30.8685 1122.9 Q26.8262 1122.9 24.6301 1125.57 Q22.4021 1128.22 22.4021 1133.02 Q22.4021 1136.08 23.1341 1138.97 Q23.8662 1141.87 25.3303 1144.54 L19.9195 1144.54 Q18.6781 1141.33 18.0734 1138.31 Q17.4368 1135.28 17.4368 1132.42 Q17.4368 1124.68 21.4472 1120.86 Q25.4576 1117.04 33.6057 1117.04 Z" fill="#000000" fill-rule="nonzero" fill-opacity="1" /><path clip-path="url(#clip310)" d="M19.6648 1079.33 L25.1393 1079.33 Q23.7707 1081.81 23.1023 1084.32 Q22.4021 1086.81 22.4021 1089.35 Q22.4021 1095.05 26.0305 1098.2 Q29.6272 1101.35 36.152 1101.35 Q42.6769 1101.35 46.3053 1098.2 Q49.9019 1095.05 49.9019 1089.35 Q49.9019 1086.81 49.2335 1084.32 Q48.5333 1081.81 47.1647 1079.33 L52.5755 1079.33 Q53.7214 1081.78 54.2943 1084.42 Q54.8672 1087.03 54.8672 1089.99 Q54.8672 1098.04 49.8064 1102.78 Q44.7457 1107.53 36.152 1107.53 Q27.431 1107.53 22.4339 1102.75 Q17.4368 1097.95 17.4368 1089.61 Q17.4368 1086.9 18.0097 1084.32 Q18.5508 1081.75 19.6648 1079.33 M53.9442 1087.6 Q55.9175 1085.85 57.5726 1084.99 Q59.2595 1084.13 60.7873 1084.13 Q63.62 1084.13 65.0523 1086.04 Q66.5164 1087.95 66.5164 1091.71 Q66.5164 1093.17 66.3255 1094.57 Q66.1345 1095.94 65.7525 1097.31 L61.583 1097.31 Q62.1241 1096.23 62.3469 1095.05 Q62.6015 1093.87 62.6015 1092.38 Q62.6015 1090.5 61.8376 1089.54 Q61.0737 1088.59 59.6096 1088.59 Q58.6548 1088.59 57.2543 1089.29 Q55.8857 1089.96 53.9442 1091.39 L53.9442 1087.6 Z" fill="#000000" fill-rule="nonzero" fill-opacity="1" /><path clip-path="url(#clip310)" d="M36.0247 1052.94 Q36.0247 1060.04 37.6479 1062.78 Q39.2712 1065.51 43.1861 1065.51 Q46.3053 1065.51 48.1514 1063.48 Q49.9656 1061.41 49.9656 1057.87 Q49.9656 1053.01 46.5281 1050.08 Q43.0588 1047.12 37.3297 1047.12 L36.0247 1047.12 L36.0247 1052.94 M33.6057 1041.26 L53.9442 1041.26 L53.9442 1047.12 L48.5333 1047.12 Q51.7798 1049.12 53.3394 1052.11 Q54.8672 1055.11 54.8672 1059.43 Q54.8672 1064.91 51.8116 1068.16 Q48.7243 1071.37 43.5681 1071.37 Q37.5525 1071.37 34.4969 1067.36 Q31.4414 1063.32 31.4414 1055.33 L31.4414 1047.12 L30.8685 1047.12 Q26.8262 1047.12 24.6301 1049.79 Q22.4021 1052.43 22.4021 1057.24 Q22.4021 1060.29 23.1341 1063.19 Q23.8662 1066.09 25.3303 1068.76 L19.9195 1068.76 Q18.6781 1065.55 18.0734 1062.52 Q17.4368 1059.5 17.4368 1056.63 Q17.4368 1048.9 21.4472 1045.08 Q25.4576 1041.26 33.6057 1041.26 M10.3391 1056.51 L8.5885 1058.32 Q7.95193 1059.02 7.66547 1059.56 Q7.34718 1060.07 7.34718 1060.48 Q7.34718 1061.69 8.52484 1062.27 Q9.67067 1062.84 12.2806 1062.9 L12.2806 1066.88 Q7.98376 1066.82 5.66027 1065.2 Q3.30496 1063.57 3.30496 1060.68 Q3.30496 1059.47 3.75056 1058.45 Q4.19616 1057.43 5.2465 1056.25 L6.99707 1054.44 Q7.63364 1053.74 7.95193 1053.23 Q8.23838 1052.69 8.23838 1052.27 Q8.23838 1051.06 7.09256 1050.49 Q5.9149 1049.92 3.30496 1049.85 L3.30496 1045.88 Q7.60181 1045.94 9.95712 1047.56 Q12.2806 1049.19 12.2806 1052.08 Q12.2806 1053.29 11.835 1054.31 Q11.3894 1055.33 10.3391 1056.51 Z" fill="#000000" fill-rule="nonzero" fill-opacity="1" /><path clip-path="url(#clip310)" d="M22.4021 1015.38 Q22.4021 1020.09 26.0942 1022.83 Q29.7545 1025.57 36.152 1025.57 Q42.5495 1025.57 46.2417 1022.86 Q49.9019 1020.13 49.9019 1015.38 Q49.9019 1010.71 46.2098 1007.97 Q42.5177 1005.23 36.152 1005.23 Q29.8181 1005.23 26.126 1007.97 Q22.4021 1010.71 22.4021 1015.38 M17.4368 1015.38 Q17.4368 1007.74 22.4021 1003.38 Q27.3673 999.024 36.152 999.024 Q44.9049 999.024 49.9019 1003.38 Q54.8672 1007.74 54.8672 1015.38 Q54.8672 1023.05 49.9019 1027.42 Q44.9049 1031.74 36.152 1031.74 Q27.3673 1031.74 22.4021 1027.42 Q17.4368 1023.05 17.4368 1015.38 Z" fill="#000000" fill-rule="nonzero" fill-opacity="1" /><path clip-path="url(#clip310)" d="M972.365 23.3193 L979.136 23.3193 L991.288 55.958 L1003.44 23.3193 L1010.21 23.3193 L995.629 62.208 L986.948 62.208 L972.365 23.3193 Z" fill="#000000" fill-rule="nonzero" fill-opacity="1" /><path clip-path="url(#clip310)" d="M1036.7 42.6595 Q1028.96 42.6595 1025.98 44.4303 Q1022.99 46.2011 1022.99 50.472 Q1022.99 53.8747 1025.21 55.8886 Q1027.47 57.8677 1031.32 57.8677 Q1036.64 57.8677 1039.83 54.1178 Q1043.06 50.3331 1043.06 44.0831 L1043.06 42.6595 L1036.7 42.6595 M1049.45 40.0206 L1049.45 62.208 L1043.06 62.208 L1043.06 56.3053 Q1040.87 59.8469 1037.61 61.5483 Q1034.34 63.2149 1029.62 63.2149 Q1023.65 63.2149 1020.11 59.8816 Q1016.6 56.5136 1016.6 50.8886 Q1016.6 44.3262 1020.98 40.9928 Q1025.39 37.6595 1034.1 37.6595 L1043.06 37.6595 L1043.06 37.0345 Q1043.06 32.6248 1040.14 30.229 Q1037.26 27.7985 1032.02 27.7985 Q1028.68 27.7985 1025.52 28.5971 Q1022.36 29.3957 1019.45 30.9929 L1019.45 25.0901 Q1022.95 23.736 1026.25 23.0763 Q1029.55 22.3818 1032.68 22.3818 Q1041.11 22.3818 1045.28 26.7568 Q1049.45 31.1318 1049.45 40.0206 Z" fill="#000000" fill-rule="nonzero" fill-opacity="1" /><path clip-path="url(#clip310)" d="M1062.61 8.18051 L1069 8.18051 L1069 62.208 L1062.61 62.208 L1062.61 8.18051 Z" fill="#000000" fill-rule="nonzero" fill-opacity="1" /><path clip-path="url(#clip310)" d="M1097.43 27.7985 Q1092.29 27.7985 1089.31 31.8262 Q1086.32 35.8193 1086.32 42.7984 Q1086.32 49.7775 1089.27 53.8053 Q1092.26 57.7983 1097.43 57.7983 Q1102.54 57.7983 1105.52 53.7705 Q1108.51 49.7428 1108.51 42.7984 Q1108.51 35.8887 1105.52 31.8609 Q1102.54 27.7985 1097.43 27.7985 M1097.43 22.3818 Q1105.77 22.3818 1110.52 27.7985 Q1115.28 33.2151 1115.28 42.7984 Q1115.28 52.3469 1110.52 57.7983 Q1105.77 63.2149 1097.43 63.2149 Q1089.07 63.2149 1084.31 57.7983 Q1079.59 52.3469 1079.59 42.7984 Q1079.59 33.2151 1084.31 27.7985 Q1089.07 22.3818 1097.43 22.3818 Z" fill="#000000" fill-rule="nonzero" fill-opacity="1" /><path clip-path="url(#clip310)" d="M1148.41 29.2915 Q1147.33 28.6665 1146.04 28.3887 Q1144.79 28.0762 1143.27 28.0762 Q1137.85 28.0762 1134.93 31.6179 Q1132.05 35.1248 1132.05 41.722 L1132.05 62.208 L1125.63 62.208 L1125.63 23.3193 L1132.05 23.3193 L1132.05 29.361 Q1134.07 25.8193 1137.29 24.1179 Q1140.52 22.3818 1145.14 22.3818 Q1145.8 22.3818 1146.6 22.486 Q1147.4 22.5554 1148.37 22.729 L1148.41 29.2915 Z" fill="#000000" fill-rule="nonzero" fill-opacity="1" /><path clip-path="url(#clip310)" d="M1210.97 41.1664 L1210.97 44.2914 L1181.6 44.2914 Q1182.02 50.8886 1185.56 54.3608 Q1189.13 57.7983 1195.49 57.7983 Q1199.17 57.7983 1202.61 56.8955 Q1206.08 55.9928 1209.48 54.1872 L1209.48 60.2288 Q1206.04 61.6872 1202.43 62.4511 Q1198.82 63.2149 1195.11 63.2149 Q1185.8 63.2149 1180.35 57.7983 Q1174.93 52.3817 1174.93 43.1456 Q1174.93 33.597 1180.07 28.0068 Q1185.25 22.3818 1194 22.3818 Q1201.84 22.3818 1206.39 27.4512 Q1210.97 32.4859 1210.97 41.1664 M1204.59 39.2915 Q1204.52 34.0484 1201.63 30.9234 Q1198.79 27.7985 1194.07 27.7985 Q1188.72 27.7985 1185.49 30.8193 Q1182.29 33.8401 1181.81 39.3262 L1204.59 39.2915 Z" fill="#000000" fill-rule="nonzero" fill-opacity="1" /><path clip-path="url(#clip310)" d="M1246.25 24.4651 L1246.25 30.5068 Q1243.54 29.1179 1240.63 28.4235 Q1237.71 27.729 1234.59 27.729 Q1229.83 27.729 1227.43 29.1873 Q1225.07 30.6457 1225.07 33.5623 Q1225.07 35.7845 1226.77 37.0692 Q1228.47 38.3192 1233.61 39.4651 L1235.8 39.9512 Q1242.61 41.4095 1245.45 44.0831 Q1248.34 46.722 1248.34 51.4789 Q1248.34 56.8955 1244.03 60.0552 Q1239.76 63.2149 1232.26 63.2149 Q1229.13 63.2149 1225.73 62.5899 Q1222.36 61.9997 1218.61 60.7844 L1218.61 54.1872 Q1222.16 56.0275 1225.59 56.965 Q1229.03 57.8677 1232.4 57.8677 Q1236.91 57.8677 1239.34 56.34 Q1241.77 54.7775 1241.77 51.965 Q1241.77 49.3608 1240 47.972 Q1238.27 46.5831 1232.33 45.2984 L1230.11 44.7775 Q1224.17 43.5275 1221.53 40.9581 Q1218.89 38.354 1218.89 33.8401 Q1218.89 28.354 1222.78 25.3679 Q1226.67 22.3818 1233.82 22.3818 Q1237.36 22.3818 1240.49 22.9027 Q1243.61 23.4235 1246.25 24.4651 Z" fill="#000000" fill-rule="nonzero" fill-opacity="1" /><path clip-path="url(#clip310)" d="M1264.69 56.3747 L1264.69 76.9996 L1258.27 76.9996 L1258.27 23.3193 L1264.69 23.3193 L1264.69 29.2221 Q1266.7 25.7499 1269.76 24.0832 Q1272.85 22.3818 1277.12 22.3818 Q1284.2 22.3818 1288.61 28.0068 Q1293.06 33.6318 1293.06 42.7984 Q1293.06 51.965 1288.61 57.59 Q1284.2 63.2149 1277.12 63.2149 Q1272.85 63.2149 1269.76 61.5483 Q1266.7 59.8469 1264.69 56.3747 M1286.43 42.7984 Q1286.43 35.7498 1283.51 31.7568 Q1280.63 27.729 1275.56 27.729 Q1270.49 27.729 1267.57 31.7568 Q1264.69 35.7498 1264.69 42.7984 Q1264.69 49.847 1267.57 53.8747 Q1270.49 57.8677 1275.56 57.8677 Q1280.63 57.8677 1283.51 53.8747 Q1286.43 49.847 1286.43 42.7984 Z" fill="#000000" fill-rule="nonzero" fill-opacity="1" /><path clip-path="url(#clip310)" d="M1336.91 41.1664 L1336.91 44.2914 L1307.54 44.2914 Q1307.95 50.8886 1311.49 54.3608 Q1315.07 57.7983 1321.43 57.7983 Q1325.11 57.7983 1328.54 56.8955 Q1332.02 55.9928 1335.42 54.1872 L1335.42 60.2288 Q1331.98 61.6872 1328.37 62.4511 Q1324.76 63.2149 1321.04 63.2149 Q1311.74 63.2149 1306.29 57.7983 Q1300.87 52.3817 1300.87 43.1456 Q1300.87 33.597 1306.01 28.0068 Q1311.18 22.3818 1319.93 22.3818 Q1327.78 22.3818 1332.33 27.4512 Q1336.91 32.4859 1336.91 41.1664 M1330.52 39.2915 Q1330.45 34.0484 1327.57 30.9234 Q1324.72 27.7985 1320 27.7985 Q1314.65 27.7985 1311.43 30.8193 Q1308.23 33.8401 1307.74 39.3262 L1330.52 39.2915 Z" fill="#000000" fill-rule="nonzero" fill-opacity="1" /><path clip-path="url(#clip310)" d="M1369.93 29.2915 Q1368.86 28.6665 1367.57 28.3887 Q1366.32 28.0762 1364.79 28.0762 Q1359.38 28.0762 1356.46 31.6179 Q1353.58 35.1248 1353.58 41.722 L1353.58 62.208 L1347.15 62.208 L1347.15 23.3193 L1353.58 23.3193 L1353.58 29.361 Q1355.59 25.8193 1358.82 24.1179 Q1362.05 22.3818 1366.67 22.3818 Q1367.33 22.3818 1368.13 22.486 Q1368.93 22.5554 1369.9 22.729 L1369.93 29.2915 Z" fill="#000000" fill-rule="nonzero" fill-opacity="1" /><path clip-path="url(#clip310)" d="M1394.31 42.6595 Q1386.56 42.6595 1383.58 44.4303 Q1380.59 46.2011 1380.59 50.472 Q1380.59 53.8747 1382.81 55.8886 Q1385.07 57.8677 1388.93 57.8677 Q1394.24 57.8677 1397.43 54.1178 Q1400.66 50.3331 1400.66 44.0831 L1400.66 42.6595 L1394.31 42.6595 M1407.05 40.0206 L1407.05 62.208 L1400.66 62.208 L1400.66 56.3053 Q1398.47 59.8469 1395.21 61.5483 Q1391.95 63.2149 1387.22 63.2149 Q1381.25 63.2149 1377.71 59.8816 Q1374.2 56.5136 1374.2 50.8886 Q1374.2 44.3262 1378.58 40.9928 Q1382.99 37.6595 1391.7 37.6595 L1400.66 37.6595 L1400.66 37.0345 Q1400.66 32.6248 1397.74 30.229 Q1394.86 27.7985 1389.62 27.7985 Q1386.29 27.7985 1383.13 28.5971 Q1379.97 29.3957 1377.05 30.9929 L1377.05 25.0901 Q1380.56 23.736 1383.86 23.0763 Q1387.15 22.3818 1390.28 22.3818 Q1398.72 22.3818 1402.88 26.7568 Q1407.05 31.1318 1407.05 40.0206 Z" fill="#000000" fill-rule="nonzero" fill-opacity="1" /><path clip-path="url(#clip310)" d="M1445.8 29.2221 L1445.8 8.18051 L1452.19 8.18051 L1452.19 62.208 L1445.8 62.208 L1445.8 56.3747 Q1443.79 59.8469 1440.7 61.5483 Q1437.64 63.2149 1433.33 63.2149 Q1426.29 63.2149 1421.84 57.59 Q1417.43 51.965 1417.43 42.7984 Q1417.43 33.6318 1421.84 28.0068 Q1426.29 22.3818 1433.33 22.3818 Q1437.64 22.3818 1440.7 24.0832 Q1443.79 25.7499 1445.8 29.2221 M1424.03 42.7984 Q1424.03 49.847 1426.91 53.8747 Q1429.83 57.8677 1434.9 57.8677 Q1439.97 57.8677 1442.88 53.8747 Q1445.8 49.847 1445.8 42.7984 Q1445.8 35.7498 1442.88 31.7568 Q1439.97 27.729 1434.9 27.729 Q1429.83 27.729 1426.91 31.7568 Q1424.03 35.7498 1424.03 42.7984 Z" fill="#000000" fill-rule="nonzero" fill-opacity="1" /><path clip-path="url(#clip310)" d="M1480.42 27.7985 Q1475.28 27.7985 1472.29 31.8262 Q1469.31 35.8193 1469.31 42.7984 Q1469.31 49.7775 1472.26 53.8053 Q1475.24 57.7983 1480.42 57.7983 Q1485.52 57.7983 1488.51 53.7705 Q1491.49 49.7428 1491.49 42.7984 Q1491.49 35.8887 1488.51 31.8609 Q1485.52 27.7985 1480.42 27.7985 M1480.42 22.3818 Q1488.75 22.3818 1493.51 27.7985 Q1498.26 33.2151 1498.26 42.7984 Q1498.26 52.3469 1493.51 57.7983 Q1488.75 63.2149 1480.42 63.2149 Q1472.05 63.2149 1467.29 57.7983 Q1462.57 52.3469 1462.57 42.7984 Q1462.57 33.2151 1467.29 27.7985 Q1472.05 22.3818 1480.42 22.3818 Z" fill="#000000" fill-rule="nonzero" fill-opacity="1" /><path clip-path="url(#clip310)" d="M1564.72 41.1664 L1564.72 44.2914 L1535.35 44.2914 Q1535.76 50.8886 1539.31 54.3608 Q1542.88 57.7983 1549.24 57.7983 Q1552.92 57.7983 1556.35 56.8955 Q1559.83 55.9928 1563.23 54.1872 L1563.23 60.2288 Q1559.79 61.6872 1556.18 62.4511 Q1552.57 63.2149 1548.85 63.2149 Q1539.55 63.2149 1534.1 57.7983 Q1528.68 52.3817 1528.68 43.1456 Q1528.68 33.597 1533.82 28.0068 Q1538.99 22.3818 1547.74 22.3818 Q1555.59 22.3818 1560.14 27.4512 Q1564.72 32.4859 1564.72 41.1664 M1558.33 39.2915 Q1558.26 34.0484 1555.38 30.9234 Q1552.54 27.7985 1547.81 27.7985 Q1542.47 27.7985 1539.24 30.8193 Q1536.04 33.8401 1535.56 39.3262 L1558.33 39.2915 Z" fill="#000000" fill-rule="nonzero" fill-opacity="1" /><path clip-path="url(#clip310)" d="M1597.81 23.3193 L1604.2 23.3193 L1604.2 62.208 L1597.81 62.208 L1597.81 23.3193 M1597.81 8.18051 L1604.2 8.18051 L1604.2 16.2707 L1597.81 16.2707 L1597.81 8.18051 Z" fill="#000000" fill-rule="nonzero" fill-opacity="1" /><path clip-path="url(#clip310)" d="M1649.9 38.7359 L1649.9 62.208 L1643.51 62.208 L1643.51 38.9442 Q1643.51 33.4234 1641.35 30.6804 Q1639.2 27.9374 1634.9 27.9374 Q1629.72 27.9374 1626.74 31.2359 Q1623.75 34.5345 1623.75 40.229 L1623.75 62.208 L1617.33 62.208 L1617.33 23.3193 L1623.75 23.3193 L1623.75 29.361 Q1626.04 25.854 1629.13 24.1179 Q1632.26 22.3818 1636.32 22.3818 Q1643.02 22.3818 1646.46 26.5485 Q1649.9 30.6804 1649.9 38.7359 Z" fill="#000000" fill-rule="nonzero" fill-opacity="1" /><path clip-path="url(#clip310)" d="M1668.96 12.2777 L1668.96 23.3193 L1682.12 23.3193 L1682.12 28.2846 L1668.96 28.2846 L1668.96 49.3956 Q1668.96 54.1525 1670.24 55.5066 Q1671.56 56.8608 1675.56 56.8608 L1682.12 56.8608 L1682.12 62.208 L1675.56 62.208 Q1668.16 62.208 1665.35 59.465 Q1662.53 56.6872 1662.53 49.3956 L1662.53 28.2846 L1657.85 28.2846 L1657.85 23.3193 L1662.53 23.3193 L1662.53 12.2777 L1668.96 12.2777 Z" fill="#000000" fill-rule="nonzero" fill-opacity="1" /><path clip-path="url(#clip310)" d="M1723.78 41.1664 L1723.78 44.2914 L1694.41 44.2914 Q1694.83 50.8886 1698.37 54.3608 Q1701.94 57.7983 1708.3 57.7983 Q1711.98 57.7983 1715.42 56.8955 Q1718.89 55.9928 1722.29 54.1872 L1722.29 60.2288 Q1718.85 61.6872 1715.24 62.4511 Q1711.63 63.2149 1707.92 63.2149 Q1698.61 63.2149 1693.16 57.7983 Q1687.74 52.3817 1687.74 43.1456 Q1687.74 33.597 1692.88 28.0068 Q1698.06 22.3818 1706.81 22.3818 Q1714.65 22.3818 1719.2 27.4512 Q1723.78 32.4859 1723.78 41.1664 M1717.4 39.2915 Q1717.33 34.0484 1714.44 30.9234 Q1711.6 27.7985 1706.87 27.7985 Q1701.53 27.7985 1698.3 30.8193 Q1695.1 33.8401 1694.62 39.3262 L1717.4 39.2915 Z" fill="#000000" fill-rule="nonzero" fill-opacity="1" /><path clip-path="url(#clip310)" d="M1756.81 29.2915 Q1755.73 28.6665 1754.44 28.3887 Q1753.19 28.0762 1751.67 28.0762 Q1746.25 28.0762 1743.33 31.6179 Q1740.45 35.1248 1740.45 41.722 L1740.45 62.208 L1734.03 62.208 L1734.03 23.3193 L1740.45 23.3193 L1740.45 29.361 Q1742.46 25.8193 1745.69 24.1179 Q1748.92 22.3818 1753.54 22.3818 Q1754.2 22.3818 1755 22.486 Q1755.8 22.5554 1756.77 22.729 L1756.81 29.2915 Z" fill="#000000" fill-rule="nonzero" fill-opacity="1" /><path clip-path="url(#clip310)" d="M1758.92 23.3193 L1765.69 23.3193 L1777.85 55.958 L1790 23.3193 L1796.77 23.3193 L1782.19 62.208 L1773.51 62.208 L1758.92 23.3193 Z" fill="#000000" fill-rule="nonzero" fill-opacity="1" /><path clip-path="url(#clip310)" d="M1823.26 42.6595 Q1815.52 42.6595 1812.53 44.4303 Q1809.55 46.2011 1809.55 50.472 Q1809.55 53.8747 1811.77 55.8886 Q1814.03 57.8677 1817.88 57.8677 Q1823.19 57.8677 1826.39 54.1178 Q1829.62 50.3331 1829.62 44.0831 L1829.62 42.6595 L1823.26 42.6595 M1836.01 40.0206 L1836.01 62.208 L1829.62 62.208 L1829.62 56.3053 Q1827.43 59.8469 1824.17 61.5483 Q1820.9 63.2149 1816.18 63.2149 Q1810.21 63.2149 1806.67 59.8816 Q1803.16 56.5136 1803.16 50.8886 Q1803.16 44.3262 1807.53 40.9928 Q1811.94 37.6595 1820.66 37.6595 L1829.62 37.6595 L1829.62 37.0345 Q1829.62 32.6248 1826.7 30.229 Q1823.82 27.7985 1818.58 27.7985 Q1815.24 27.7985 1812.08 28.5971 Q1808.92 29.3957 1806.01 30.9929 L1806.01 25.0901 Q1809.51 23.736 1812.81 23.0763 Q1816.11 22.3818 1819.24 22.3818 Q1827.67 22.3818 1831.84 26.7568 Q1836.01 31.1318 1836.01 40.0206 Z" fill="#000000" fill-rule="nonzero" fill-opacity="1" /><path clip-path="url(#clip310)" d="M1849.17 8.18051 L1855.55 8.18051 L1855.55 62.208 L1849.17 62.208 L1849.17 8.18051 Z" fill="#000000" fill-rule="nonzero" fill-opacity="1" /><path clip-path="url(#clip310)" d="M1883.99 27.7985 Q1878.85 27.7985 1875.87 31.8262 Q1872.88 35.8193 1872.88 42.7984 Q1872.88 49.7775 1875.83 53.8053 Q1878.82 57.7983 1883.99 57.7983 Q1889.1 57.7983 1892.08 53.7705 Q1895.07 49.7428 1895.07 42.7984 Q1895.07 35.8887 1892.08 31.8609 Q1889.1 27.7985 1883.99 27.7985 M1883.99 22.3818 Q1892.33 22.3818 1897.08 27.7985 Q1901.84 33.2151 1901.84 42.7984 Q1901.84 52.3469 1897.08 57.7983 Q1892.33 63.2149 1883.99 63.2149 Q1875.62 63.2149 1870.87 57.7983 Q1866.14 52.3469 1866.14 42.7984 Q1866.14 33.2151 1870.87 27.7985 Q1875.62 22.3818 1883.99 22.3818 Z" fill="#000000" fill-rule="nonzero" fill-opacity="1" /><path clip-path="url(#clip310)" d="M1937.22 24.4651 L1937.22 30.5068 Q1934.51 29.1179 1931.6 28.4235 Q1928.68 27.729 1925.55 27.729 Q1920.8 27.729 1918.4 29.1873 Q1916.04 30.6457 1916.04 33.5623 Q1916.04 35.7845 1917.74 37.0692 Q1919.44 38.3192 1924.58 39.4651 L1926.77 39.9512 Q1933.57 41.4095 1936.42 44.0831 Q1939.3 46.722 1939.3 51.4789 Q1939.3 56.8955 1935 60.0552 Q1930.73 63.2149 1923.23 63.2149 Q1920.1 63.2149 1916.7 62.5899 Q1913.33 61.9997 1909.58 60.7844 L1909.58 54.1872 Q1913.12 56.0275 1916.56 56.965 Q1920 57.8677 1923.37 57.8677 Q1927.88 57.8677 1930.31 56.34 Q1932.74 54.7775 1932.74 51.965 Q1932.74 49.3608 1930.97 47.972 Q1929.23 46.5831 1923.3 45.2984 L1921.08 44.7775 Q1915.14 43.5275 1912.5 40.9581 Q1909.86 38.354 1909.86 33.8401 Q1909.86 28.354 1913.75 25.3679 Q1917.64 22.3818 1924.79 22.3818 Q1928.33 22.3818 1931.46 22.9027 Q1934.58 23.4235 1937.22 24.4651 Z" fill="#000000" fill-rule="nonzero" fill-opacity="1" /><path clip-path="url(#clip310)" d="M1997.67 29.2221 L1997.67 8.18051 L2004.06 8.18051 L2004.06 62.208 L1997.67 62.208 L1997.67 56.3747 Q1995.66 59.8469 1992.57 61.5483 Q1989.51 63.2149 1985.21 63.2149 Q1978.16 63.2149 1973.71 57.59 Q1969.3 51.965 1969.3 42.7984 Q1969.3 33.6318 1973.71 28.0068 Q1978.16 22.3818 1985.21 22.3818 Q1989.51 22.3818 1992.57 24.0832 Q1995.66 25.7499 1997.67 29.2221 M1975.9 42.7984 Q1975.9 49.847 1978.78 53.8747 Q1981.7 57.8677 1986.77 57.8677 Q1991.84 57.8677 1994.76 53.8747 Q1997.67 49.847 1997.67 42.7984 Q1997.67 35.7498 1994.76 31.7568 Q1991.84 27.729 1986.77 27.729 Q1981.7 27.729 1978.78 31.7568 Q1975.9 35.7498 1975.9 42.7984 Z" fill="#000000" fill-rule="nonzero" fill-opacity="1" /><path clip-path="url(#clip310)" d="M2050.48 41.1664 L2050.48 44.2914 L2021.11 44.2914 Q2021.53 50.8886 2025.07 54.3608 Q2028.64 57.7983 2035 57.7983 Q2038.68 57.7983 2042.12 56.8955 Q2045.59 55.9928 2048.99 54.1872 L2048.99 60.2288 Q2045.55 61.6872 2041.94 62.4511 Q2038.33 63.2149 2034.62 63.2149 Q2025.31 63.2149 2019.86 57.7983 Q2014.44 52.3817 2014.44 43.1456 Q2014.44 33.597 2019.58 28.0068 Q2024.76 22.3818 2033.5 22.3818 Q2041.35 22.3818 2045.9 27.4512 Q2050.48 32.4859 2050.48 41.1664 M2044.1 39.2915 Q2044.03 34.0484 2041.14 30.9234 Q2038.3 27.7985 2033.57 27.7985 Q2028.23 27.7985 2025 30.8193 Q2021.8 33.8401 2021.32 39.3262 L2044.1 39.2915 Z" fill="#000000" fill-rule="nonzero" fill-opacity="1" /><path clip-path="url(#clip310)" d="M2111.56 24.8124 L2111.56 30.7846 Q2108.85 29.2915 2106.11 28.5623 Q2103.4 27.7985 2100.62 27.7985 Q2094.41 27.7985 2090.97 31.7568 Q2087.53 35.6804 2087.53 42.7984 Q2087.53 49.9164 2090.97 53.8747 Q2094.41 57.7983 2100.62 57.7983 Q2103.4 57.7983 2106.11 57.0691 Q2108.85 56.3053 2111.56 54.8122 L2111.56 60.715 Q2108.89 61.9649 2106 62.5899 Q2103.16 63.2149 2099.93 63.2149 Q2091.14 63.2149 2085.97 57.6941 Q2080.8 52.1733 2080.8 42.7984 Q2080.8 33.2845 2086 27.8332 Q2091.25 22.3818 2100.34 22.3818 Q2103.3 22.3818 2106.11 23.0068 Q2108.92 23.5971 2111.56 24.8124 Z" fill="#000000" fill-rule="nonzero" fill-opacity="1" /><path clip-path="url(#clip310)" d="M2137.74 27.7985 Q2132.6 27.7985 2129.62 31.8262 Q2126.63 35.8193 2126.63 42.7984 Q2126.63 49.7775 2129.58 53.8053 Q2132.57 57.7983 2137.74 57.7983 Q2142.84 57.7983 2145.83 53.7705 Q2148.82 49.7428 2148.82 42.7984 Q2148.82 35.8887 2145.83 31.8609 Q2142.84 27.7985 2137.74 27.7985 M2137.74 22.3818 Q2146.07 22.3818 2150.83 27.7985 Q2155.59 33.2151 2155.59 42.7984 Q2155.59 52.3469 2150.83 57.7983 Q2146.07 63.2149 2137.74 63.2149 Q2129.37 63.2149 2124.62 57.7983 Q2119.89 52.3469 2119.89 42.7984 Q2119.89 33.2151 2124.62 27.7985 Q2129.37 22.3818 2137.74 22.3818 Z" fill="#000000" fill-rule="nonzero" fill-opacity="1" /><path clip-path="url(#clip310)" d="M2198.5 38.7359 L2198.5 62.208 L2192.12 62.208 L2192.12 38.9442 Q2192.12 33.4234 2189.96 30.6804 Q2187.81 27.9374 2183.5 27.9374 Q2178.33 27.9374 2175.34 31.2359 Q2172.36 34.5345 2172.36 40.229 L2172.36 62.208 L2165.93 62.208 L2165.93 23.3193 L2172.36 23.3193 L2172.36 29.361 Q2174.65 25.854 2177.74 24.1179 Q2180.87 22.3818 2184.93 22.3818 Q2191.63 22.3818 2195.07 26.5485 Q2198.5 30.6804 2198.5 38.7359 Z" fill="#000000" fill-rule="nonzero" fill-opacity="1" /><path clip-path="url(#clip310)" d="M2230.93 8.18051 L2230.93 13.493 L2224.82 13.493 Q2221.39 13.493 2220.03 14.8819 Q2218.71 16.2707 2218.71 19.8818 L2218.71 23.3193 L2229.23 23.3193 L2229.23 28.2846 L2218.71 28.2846 L2218.71 62.208 L2212.29 62.208 L2212.29 28.2846 L2206.18 28.2846 L2206.18 23.3193 L2212.29 23.3193 L2212.29 20.611 Q2212.29 14.118 2215.31 11.1666 Q2218.33 8.18051 2224.89 8.18051 L2230.93 8.18051 Z" fill="#000000" fill-rule="nonzero" fill-opacity="1" /><path clip-path="url(#clip310)" d="M2236.28 23.3193 L2242.67 23.3193 L2242.67 62.208 L2236.28 62.208 L2236.28 23.3193 M2236.28 8.18051 L2242.67 8.18051 L2242.67 16.2707 L2236.28 16.2707 L2236.28 8.18051 Z" fill="#000000" fill-rule="nonzero" fill-opacity="1" /><path clip-path="url(#clip310)" d="M2273.71 42.6595 Q2265.97 42.6595 2262.98 44.4303 Q2260 46.2011 2260 50.472 Q2260 53.8747 2262.22 55.8886 Q2264.48 57.8677 2268.33 57.8677 Q2273.64 57.8677 2276.84 54.1178 Q2280.07 50.3331 2280.07 44.0831 L2280.07 42.6595 L2273.71 42.6595 M2286.45 40.0206 L2286.45 62.208 L2280.07 62.208 L2280.07 56.3053 Q2277.88 59.8469 2274.61 61.5483 Q2271.35 63.2149 2266.63 63.2149 Q2260.66 63.2149 2257.11 59.8816 Q2253.61 56.5136 2253.61 50.8886 Q2253.61 44.3262 2257.98 40.9928 Q2262.39 37.6595 2271.11 37.6595 L2280.07 37.6595 L2280.07 37.0345 Q2280.07 32.6248 2277.15 30.229 Q2274.27 27.7985 2269.02 27.7985 Q2265.69 27.7985 2262.53 28.5971 Q2259.37 29.3957 2256.46 30.9929 L2256.46 25.0901 Q2259.96 23.736 2263.26 23.0763 Q2266.56 22.3818 2269.68 22.3818 Q2278.12 22.3818 2282.29 26.7568 Q2286.45 31.1318 2286.45 40.0206 Z" fill="#000000" fill-rule="nonzero" fill-opacity="1" /><path clip-path="url(#clip310)" d="M2331.94 38.7359 L2331.94 62.208 L2325.55 62.208 L2325.55 38.9442 Q2325.55 33.4234 2323.4 30.6804 Q2321.25 27.9374 2316.94 27.9374 Q2311.77 27.9374 2308.78 31.2359 Q2305.8 34.5345 2305.8 40.229 L2305.8 62.208 L2299.37 62.208 L2299.37 23.3193 L2305.8 23.3193 L2305.8 29.361 Q2308.09 25.854 2311.18 24.1179 Q2314.3 22.3818 2318.36 22.3818 Q2325.07 22.3818 2328.5 26.5485 Q2331.94 30.6804 2331.94 38.7359 Z" fill="#000000" fill-rule="nonzero" fill-opacity="1" /><path clip-path="url(#clip310)" d="M2372.67 24.8124 L2372.67 30.7846 Q2369.96 29.2915 2367.22 28.5623 Q2364.51 27.7985 2361.73 27.7985 Q2355.52 27.7985 2352.08 31.7568 Q2348.64 35.6804 2348.64 42.7984 Q2348.64 49.9164 2352.08 53.8747 Q2355.52 57.7983 2361.73 57.7983 Q2364.51 57.7983 2367.22 57.0691 Q2369.96 56.3053 2372.67 54.8122 L2372.67 60.715 Q2370 61.9649 2367.11 62.5899 Q2364.27 63.2149 2361.04 63.2149 Q2352.25 63.2149 2347.08 57.6941 Q2341.91 52.1733 2341.91 42.7984 Q2341.91 33.2845 2347.11 27.8332 Q2352.36 22.3818 2361.45 22.3818 Q2364.41 22.3818 2367.22 23.0068 Q2370.03 23.5971 2372.67 24.8124 M2363.64 62.208 Q2365.55 64.3608 2366.49 66.1663 Q2367.43 68.0066 2367.43 69.6732 Q2367.43 72.7635 2365.34 74.326 Q2363.26 75.9232 2359.16 75.9232 Q2357.57 75.9232 2356.04 75.7149 Q2354.54 75.5065 2353.05 75.0899 L2353.05 70.5413 Q2354.23 71.1316 2355.52 71.3746 Q2356.8 71.6524 2358.43 71.6524 Q2360.48 71.6524 2361.52 70.8191 Q2362.57 69.9857 2362.57 68.3885 Q2362.57 67.3469 2361.8 65.8191 Q2361.07 64.326 2359.51 62.208 L2363.64 62.208 Z" fill="#000000" fill-rule="nonzero" fill-opacity="1" /><path clip-path="url(#clip310)" d="M2401.45 42.6595 Q2393.71 42.6595 2390.73 44.4303 Q2387.74 46.2011 2387.74 50.472 Q2387.74 53.8747 2389.96 55.8886 Q2392.22 57.8677 2396.07 57.8677 Q2401.38 57.8677 2404.58 54.1178 Q2407.81 50.3331 2407.81 44.0831 L2407.81 42.6595 L2401.45 42.6595 M2414.2 40.0206 L2414.2 62.208 L2407.81 62.208 L2407.81 56.3053 Q2405.62 59.8469 2402.36 61.5483 Q2399.09 63.2149 2394.37 63.2149 Q2388.4 63.2149 2384.86 59.8816 Q2381.35 56.5136 2381.35 50.8886 Q2381.35 44.3262 2385.73 40.9928 Q2390.13 37.6595 2398.85 37.6595 L2407.81 37.6595 L2407.81 37.0345 Q2407.81 32.6248 2404.89 30.229 Q2402.01 27.7985 2396.77 27.7985 Q2393.43 27.7985 2390.27 28.5971 Q2387.11 29.3957 2384.2 30.9929 L2384.2 25.0901 Q2387.7 23.736 2391 23.0763 Q2394.3 22.3818 2397.43 22.3818 Q2405.86 22.3818 2410.03 26.7568 Q2414.2 31.1318 2414.2 40.0206 Z" fill="#000000" fill-rule="nonzero" fill-opacity="1" /><path clip-path="url(#clip312)" d="M316.418 2145.95 L330.256 2125.18 L344.094 2103.27 L357.932 2080.2 L371.769 2055.94 L385.607 2030.47 L399.445 2003.77 L413.283 1975.84 L427.121 1946.68 L440.958 1916.31 L454.796 1884.99 L468.634 1852.5 L482.472 1818.89 L496.31 1784.22 L510.148 1748.51 L523.985 1711.81 L537.823 1674.19 L551.661 1635.56 L565.499 1595.89 L579.337 1555.51 L593.174 1514.52 L607.012 1473.02 L620.85 1431.12 L634.688 1388.93 L648.526 1346.57 L662.364 1304.19 L676.201 1262.12 L690.039 1220.27 L703.877 1178.75 L717.715 1137.93 L731.553 1097.68 L745.39 1058.1 L759.228 1019.37 L773.066 981.488 L786.904 944.923 L800.742 909.355 L814.58 874.046 L828.417 839.397 L842.255 805.927 L856.093 773.75 L869.931 743.178 L883.769 713.401 L897.606 685.407 L911.444 659.029 L925.282 633.168 L939.12 609.427 L952.958 586.772 L966.796 564.093 L980.633 543.255 L994.471 523.836 L1008.31 505.471 L1022.15 488.131 L1035.98 471.966 L1049.82 456.816 L1063.66 442.373 L1077.5 428.089 L1091.34 414.735 L1105.17 402.256 L1119.01 390.926 L1132.85 380.888 L1146.69 373.03 L1160.53 364.977 L1174.36 357.109 L1188.2 349.561 L1202.04 342.83 L1215.88 336.674 L1229.71 330.934 L1243.55 325.581 L1257.39 320.643 L1271.23 316.226 L1285.07 312.115 L1298.9 308.063 L1312.74 304.271 L1326.58 300.897 L1340.42 297.698 L1354.25 294.352 L1368.09 291.144 L1381.93 288.148 L1395.77 285.47 L1409.61 283.183 L1423.44 281.059 L1437.28 279.106 L1451.12 277.316 L1464.96 275.66 L1478.79 273.973 L1492.63 272.524 L1506.47 271.29 L1520.31 270.313 L1534.15 269.231 L1547.98 268.194 L1561.82 267.232 L1575.66 266.336 L1589.5 265.499 L1603.34 264.713 L1617.17 263.85 L1631.01 263.011 L1644.85 262.265 L1658.69 261.635 L1672.52 261.051 L1686.36 260.512 L1700.2 260.013 L1714.04 259.553 L1727.88 259.127 L1741.71 258.733 L1755.55 258.369 L1769.39 258.031 L1783.23 257.716 L1797.06 257.423 L1810.9 257.158 L1824.74 256.909 L1838.58 256.675 L1852.42 256.458 L1866.25 256.255 L1880.09 256.067 L1893.93 255.892 L1907.77 255.731 L1921.61 255.583 L1935.44 255.446 L1949.28 255.321 L1963.12 255.217 L1976.96 255.132 L1990.79 255.054 L2004.63 254.983 L2018.47 254.916 L2032.31 254.853 L2046.15 254.794 L2059.98 254.739 L2073.82 254.688 L2087.66 254.639 L2101.5 254.594 L2115.33 254.55 L2129.17 254.509 L2143.01 254.47 L2156.85 254.434 L2170.69 254.4 L2184.52 254.369 L2198.36 254.341 L2212.2 254.314 L2226.04 254.29 L2239.87 254.268 L2253.71 254.248 L2267.55 254.23 L2281.39 254.214 L2295.23 254.199 L2309.06 254.186 L2322.9 254.174 L2336.74 254.163 L2350.58 254.152 L2364.42 254.143 L2378.25 254.134 L2392.09 254.125 L2405.93 254.117 L2419.77 254.109 L2433.6 254.102 L2447.44 254.095 L2461.28 254.088 L2475.12 254.081 L2488.96 254.074 L2502.79 254.067 L2516.63 254.061 L2530.47 254.055 L2544.31 254.05 L2558.14 254.045 L2571.98 254.04 L2585.82 254.036 L2599.66 254.033 L2613.5 254.03 L2627.33 254.027 L2641.17 254.025 L2655.01 254.023 L2668.85 254.022 L2682.69 254.021 L2696.52 254.02 L2710.36 254.02 L2724.2 254.019 L2738.04 254.019 L2751.87 254.019 L2765.71 254.019 L2779.55 254.019 L2793.39 254.019 L2807.23 254.019 L2821.06 254.018 L2834.9 254.018 L2848.74 254.018 L2862.58 254.018 L2876.41 254.017 L2890.25 254.017 L2904.09 254.017 L2917.93 254.016 L2931.77 254.015 L2945.6 254.014 L2959.44 254.013 L2973.28 254.012 L2987.12 254.011 L3000.96 254.011 L3014.79 254.01 L3028.63 254.009 L3042.47 254.009 L3056.31 254.008 L3070.14 254.007 L3070.14 180.282 L3056.31 180.283 L3042.47 180.283 L3028.63 180.284 L3014.79 180.285 L3000.96 180.286 L2987.12 180.287 L2973.28 180.288 L2959.44 180.289 L2945.6 180.29 L2931.77 180.291 L2917.93 180.292 L2904.09 180.294 L2890.25 180.295 L2876.41 180.297 L2862.58 180.297 L2848.74 180.297 L2834.9 180.297 L2821.06 180.296 L2807.23 180.295 L2793.39 180.294 L2779.55 180.293 L2765.71 180.292 L2751.87 180.292 L2738.04 180.291 L2724.2 180.291 L2710.36 180.292 L2696.52 180.292 L2682.69 180.293 L2668.85 180.295 L2655.01 180.297 L2641.17 180.3 L2627.33 180.303 L2613.5 180.307 L2599.66 180.311 L2585.82 180.316 L2571.98 180.321 L2558.14 180.327 L2544.31 180.333 L2530.47 180.34 L2516.63 180.348 L2502.79 180.355 L2488.96 180.364 L2475.12 180.372 L2461.28 180.381 L2447.44 180.389 L2433.6 180.398 L2419.77 180.406 L2405.93 180.414 L2392.09 180.422 L2378.25 180.43 L2364.42 180.439 L2350.58 180.448 L2336.74 180.459 L2322.9 180.471 L2309.06 180.484 L2295.23 180.499 L2281.39 180.516 L2267.55 180.535 L2253.71 180.556 L2239.87 180.58 L2226.04 180.605 L2212.2 180.634 L2198.36 180.665 L2184.52 180.699 L2170.69 180.735 L2156.85 180.775 L2143.01 180.817 L2129.17 180.862 L2115.33 180.91 L2101.5 180.961 L2087.66 181.014 L2073.82 181.068 L2059.98 181.125 L2046.15 181.185 L2032.31 181.249 L2018.47 181.317 L2004.63 181.392 L1990.79 181.474 L1976.96 181.564 L1963.12 181.662 L1949.28 181.77 L1935.44 181.888 L1921.61 182.017 L1907.77 182.157 L1893.93 182.31 L1880.09 182.476 L1866.25 182.655 L1852.42 182.849 L1838.58 183.057 L1824.74 183.281 L1810.9 183.52 L1797.06 183.775 L1783.23 184.047 L1769.39 184.337 L1755.55 184.648 L1741.71 184.982 L1727.88 185.343 L1714.04 185.724 L1700.2 186.124 L1686.36 186.557 L1672.52 187.026 L1658.69 187.533 L1644.85 188.081 L1631.01 188.673 L1617.17 189.306 L1603.34 189.976 L1589.5 190.697 L1575.66 191.47 L1561.82 192.298 L1547.98 193.308 L1534.15 194.506 L1520.31 195.756 L1506.47 197.08 L1492.63 198.359 L1478.79 199.74 L1464.96 201.232 L1451.12 202.845 L1437.28 204.588 L1423.44 206.471 L1409.61 208.544 L1395.77 210.968 L1381.93 213.578 L1368.09 216.387 L1354.25 219.398 L1340.42 222.528 L1326.58 225.555 L1312.74 228.823 L1298.9 232.915 L1285.07 237.263 L1271.23 241.919 L1257.39 246.832 L1243.55 251.515 L1229.71 256.607 L1215.88 261.909 L1202.04 267.307 L1188.2 273.046 L1174.36 279.188 L1160.53 285.764 L1146.69 293.602 L1132.85 301.926 L1119.01 310.633 L1105.17 319.228 L1091.34 328.696 L1077.5 338.128 L1063.66 348.506 L1049.82 359.386 L1035.98 370.984 L1022.15 383.908 L1008.31 397.037 L994.471 410.98 L980.633 425.791 L966.796 441.739 L952.958 458.779 L939.12 476.854 L925.282 495.987 L911.444 516.359 L897.606 538.34 L883.769 561.392 L869.931 584.725 L856.093 609.1 L842.255 634.605 L828.417 661.901 L814.58 690.356 L800.742 719.538 L786.904 749.7 L773.066 781.028 L759.228 813.556 L745.39 846.98 L731.553 881.738 L717.715 917.825 L703.877 955.259 L690.039 994.028 L676.201 1033.23 L662.364 1072.49 L648.526 1112.92 L634.688 1154.21 L620.85 1196.23 L607.012 1238.3 L593.174 1280.63 L579.337 1323.08 L565.499 1365.56 L551.661 1407.96 L537.823 1450.3 L523.985 1492.41 L510.148 1533.85 L496.31 1574.26 L482.472 1613.86 L468.634 1652.91 L454.796 1691.34 L440.958 1728.87 L427.121 1765.35 L413.283 1800.75 L399.445 1835.03 L385.607 1868.15 L371.769 1900.13 L357.932 1930.93 L344.094 1960.53 L330.256 1988.93 L316.418 2016.25  Z" fill="#009af9" fill-rule="evenodd" fill-opacity="0.2"/>
<polyline clip-path="url(#clip312)" style="stroke:#009af9; stroke-linecap:round; stroke-linejoin:round; stroke-width:12; stroke-opacity:1; fill:none" points="316.418,2078.21 330.256,2053.97 344.094,2028.53 357.932,2001.89 371.769,1974.04 385.607,1944.93 399.445,1914.48 413.283,1882.81 427.121,1849.95 440.958,1815.93 454.796,1780.84 468.634,1744.66 482.472,1707.42 496.31,1669.23 510.148,1630.47 523.985,1591.03 537.823,1550.93 551.661,1510.28 565.499,1469.08 579.337,1427.45 593.174,1385.61 607.012,1343.27 620.85,1300.79 634.688,1258.75 648.526,1217.02 662.364,1175.08 676.201,1133.94 690.039,1093.35 703.877,1053.43 717.715,1014.26 731.553,975.927 745.39,938.514 759.228,902.12 773.066,866.278 786.904,831.56 800.742,799.436 814.58,767.101 828.417,736.717 842.255,707.505 856.093,679.9 869.931,653.247 883.769,627.801 897.606,603.049 911.444,581.28 925.282,560.62 939.12,537.935 952.958,518.3 966.796,500.171 980.633,481.85 994.471,465.362 1008.31,449.952 1022.15,434.318 1035.98,420.612 1049.82,407.365 1063.66,395.554 1077.5,385.188 1091.34,374.266 1105.17,364.643 1119.01,355.008 1132.85,346.563 1146.69,338.285 1160.53,330.233 1174.36,323.142 1188.2,316.226 1202.04,309.731 1215.88,303.362 1229.71,297.513 1243.55,291.933 1257.39,286.921 1271.23,282.595 1285.07,278.169 1298.9,274.49 1312.74,270.676 1326.58,267.103 1340.42,264.045 1354.25,260.758 1368.09,257.723 1381.93,255.225 1395.77,252.554 1409.61,250.341 1423.44,248.011 1437.28,245.916 1451.12,244.035 1464.96,242.06 1478.79,240.415 1492.63,239.048 1506.47,237.83 1520.31,236.715 1534.15,235.692 1547.98,234.612 1561.82,233.722 1575.66,232.866 1589.5,232.054 1603.34,231.343 1617.17,230.675 1631.01,229.989 1644.85,229.351 1658.69,228.749 1672.52,228.154 1686.36,227.641 1700.2,227.168 1714.04,226.743 1727.88,226.372 1741.71,226.029 1755.55,225.71 1769.39,225.415 1783.23,225.139 1797.06,224.881 1810.9,224.639 1824.74,224.411 1838.58,224.199 1852.42,224 1866.25,223.816 1880.09,223.645 1893.93,223.5 1907.77,223.365 1921.61,223.239 1935.44,223.123 1949.28,223.016 1963.12,222.917 1976.96,222.827 1990.79,222.743 2004.63,222.667 2018.47,222.597 2032.31,222.533 2046.15,222.475 2059.98,222.421 2073.82,222.371 2087.66,222.325 2101.5,222.281 2115.33,222.24 2129.17,222.202 2143.01,222.164 2156.85,222.125 2170.69,222.088 2184.52,222.054 2198.36,222.021 2212.2,221.99 2226.04,221.961 2239.87,221.935 2253.71,221.91 2267.55,221.887 2281.39,221.866 2295.23,221.847 2309.06,221.83 2322.9,221.814 2336.74,221.8 2350.58,221.787 2364.42,221.776 2378.25,221.765 2392.09,221.756 2405.93,221.747 2419.77,221.739 2433.6,221.731 2447.44,221.724 2461.28,221.717 2475.12,221.71 2488.96,221.704 2502.79,221.699 2516.63,221.693 2530.47,221.688 2544.31,221.683 2558.14,221.678 2571.98,221.673 2585.82,221.669 2599.66,221.664 2613.5,221.659 2627.33,221.655 2641.17,221.652 2655.01,221.648 2668.85,221.645 2682.69,221.643 2696.52,221.64 2710.36,221.638 2724.2,221.637 2738.04,221.636 2751.87,221.635 2765.71,221.634 2779.55,221.634 2793.39,221.633 2807.23,221.633 2821.06,221.633 2834.9,221.633 2848.74,221.633 2862.58,221.633 2876.41,221.632 2890.25,221.632 2904.09,221.631 2917.93,221.631 2931.77,221.631 2945.6,221.631 2959.44,221.63 2973.28,221.63 2987.12,221.63 3000.96,221.63 3014.79,221.63 3028.63,221.63 3042.47,221.63 3056.31,221.629 3070.14,221.629 "/>
<path clip-path="url(#clip312)" d="M316.418 2129.12 L330.256 2107.49 L344.094 2084.7 L357.932 2060.74 L371.769 2035.56 L385.607 2009.16 L399.445 1981.54 L413.283 1952.69 L427.121 1922.63 L440.958 1891.36 L454.796 1858.89 L468.634 1825.41 L482.472 1790.85 L496.31 1755.24 L510.148 1718.63 L523.985 1681.06 L537.823 1642.63 L551.661 1603.28 L565.499 1563.04 L579.337 1522.66 L593.174 1481.4 L607.012 1439.57 L620.85 1397.45 L634.688 1355.16 L648.526 1312.8 L662.364 1270.39 L676.201 1228.16 L690.039 1186.07 L703.877 1144.85 L717.715 1104.01 L731.553 1063.81 L745.39 1024.55 L759.228 986.474 L773.066 949.449 L786.904 913.148 L800.742 877.504 L814.58 842.822 L828.417 810.569 L842.255 778.279 L856.093 746.945 L869.931 717.646 L883.769 689.519 L897.606 662.087 L911.444 636.511 L925.282 611.403 L939.12 587.322 L952.958 565.05 L966.796 543.655 L980.633 524.077 L994.471 505.055 L1008.31 487.333 L1022.15 470.904 L1035.98 455.242 L1049.82 440.139 L1063.66 426.151 L1077.5 413.782 L1091.34 402.818 L1105.17 391.01 L1119.01 380.09 L1132.85 370.607 L1146.69 361.742 L1160.53 353.529 L1174.36 345.323 L1188.2 337.494 L1202.04 330.101 L1215.88 323.796 L1229.71 317.876 L1243.55 312.396 L1257.39 307.921 L1271.23 303.21 L1285.07 298.488 L1298.9 294.33 L1312.74 290.809 L1326.58 287.769 L1340.42 284.838 L1354.25 281.675 L1368.09 279.092 L1381.93 276.993 L1395.77 274.505 L1409.61 272.127 L1423.44 269.901 L1437.28 268.166 L1451.12 266.564 L1464.96 265.079 L1478.79 263.528 L1492.63 262.088 L1506.47 260.729 L1520.31 259.467 L1534.15 258.411 L1547.98 257.414 L1561.82 256.373 L1575.66 255.38 L1589.5 254.53 L1603.34 253.731 L1617.17 252.977 L1631.01 252.268 L1644.85 251.608 L1658.69 251.011 L1672.52 250.467 L1686.36 249.963 L1700.2 249.498 L1714.04 249.057 L1727.88 248.612 L1741.71 248.199 L1755.55 247.816 L1769.39 247.459 L1783.23 247.146 L1797.06 246.901 L1810.9 246.676 L1824.74 246.464 L1838.58 246.265 L1852.42 246.078 L1866.25 245.903 L1880.09 245.741 L1893.93 245.589 L1907.77 245.449 L1921.61 245.32 L1935.44 245.201 L1949.28 245.092 L1963.12 244.991 L1976.96 244.899 L1990.79 244.816 L2004.63 244.73 L2018.47 244.652 L2032.31 244.581 L2046.15 244.516 L2059.98 244.455 L2073.82 244.399 L2087.66 244.348 L2101.5 244.298 L2115.33 244.252 L2129.17 244.206 L2143.01 244.161 L2156.85 244.118 L2170.69 244.078 L2184.52 244.04 L2198.36 244.004 L2212.2 243.971 L2226.04 243.94 L2239.87 243.912 L2253.71 243.886 L2267.55 243.862 L2281.39 243.84 L2295.23 243.821 L2309.06 243.803 L2322.9 243.788 L2336.74 243.773 L2350.58 243.761 L2364.42 243.75 L2378.25 243.74 L2392.09 243.731 L2405.93 243.723 L2419.77 243.715 L2433.6 243.708 L2447.44 243.701 L2461.28 243.694 L2475.12 243.686 L2488.96 243.679 L2502.79 243.671 L2516.63 243.664 L2530.47 243.656 L2544.31 243.649 L2558.14 243.643 L2571.98 243.636 L2585.82 243.63 L2599.66 243.625 L2613.5 243.619 L2627.33 243.615 L2641.17 243.611 L2655.01 243.607 L2668.85 243.604 L2682.69 243.601 L2696.52 243.599 L2710.36 243.597 L2724.2 243.596 L2738.04 243.595 L2751.87 243.595 L2765.71 243.595 L2779.55 243.595 L2793.39 243.596 L2807.23 243.596 L2821.06 243.597 L2834.9 243.598 L2848.74 243.6 L2862.58 243.601 L2876.41 243.601 L2890.25 243.602 L2904.09 243.602 L2917.93 243.602 L2931.77 243.602 L2945.6 243.601 L2959.44 243.6 L2973.28 243.599 L2987.12 243.597 L3000.96 243.596 L3014.79 243.595 L3028.63 243.594 L3042.47 243.593 L3056.31 243.593 L3070.14 243.592 L3070.14 198.424 L3056.31 198.425 L3042.47 198.425 L3028.63 198.426 L3014.79 198.426 L3000.96 198.427 L2987.12 198.427 L2973.28 198.428 L2959.44 198.429 L2945.6 198.43 L2931.77 198.431 L2917.93 198.432 L2904.09 198.433 L2890.25 198.434 L2876.41 198.435 L2862.58 198.436 L2848.74 198.436 L2834.9 198.436 L2821.06 198.436 L2807.23 198.435 L2793.39 198.435 L2779.55 198.434 L2765.71 198.434 L2751.87 198.434 L2738.04 198.434 L2724.2 198.434 L2710.36 198.434 L2696.52 198.435 L2682.69 198.437 L2668.85 198.438 L2655.01 198.441 L2641.17 198.443 L2627.33 198.446 L2613.5 198.45 L2599.66 198.454 L2585.82 198.458 L2571.98 198.463 L2558.14 198.468 L2544.31 198.474 L2530.47 198.48 L2516.63 198.486 L2502.79 198.493 L2488.96 198.5 L2475.12 198.508 L2461.28 198.515 L2447.44 198.523 L2433.6 198.532 L2419.77 198.54 L2405.93 198.548 L2392.09 198.556 L2378.25 198.564 L2364.42 198.573 L2350.58 198.582 L2336.74 198.593 L2322.9 198.605 L2309.06 198.618 L2295.23 198.633 L2281.39 198.65 L2267.55 198.668 L2253.71 198.689 L2239.87 198.711 L2226.04 198.736 L2212.2 198.764 L2198.36 198.793 L2184.52 198.825 L2170.69 198.859 L2156.85 198.896 L2143.01 198.936 L2129.17 198.978 L2115.33 199.023 L2101.5 199.071 L2087.66 199.122 L2073.82 199.176 L2059.98 199.231 L2046.15 199.29 L2032.31 199.352 L2018.47 199.42 L2004.63 199.493 L1990.79 199.573 L1976.96 199.661 L1963.12 199.756 L1949.28 199.86 L1935.44 199.974 L1921.61 200.098 L1907.77 200.233 L1893.93 200.38 L1880.09 200.538 L1866.25 200.709 L1852.42 200.893 L1838.58 201.091 L1824.74 201.304 L1810.9 201.532 L1797.06 201.777 L1783.23 202.038 L1769.39 202.317 L1755.55 202.617 L1741.71 202.939 L1727.88 203.287 L1714.04 203.663 L1700.2 204.07 L1686.36 204.511 L1672.52 205.008 L1658.69 205.564 L1644.85 206.165 L1631.01 206.813 L1617.17 207.51 L1603.34 208.267 L1589.5 209.22 L1575.66 210.246 L1561.82 211.311 L1547.98 212.131 L1534.15 213.015 L1520.31 213.967 L1506.47 215 L1492.63 216.333 L1478.79 217.744 L1464.96 219.107 L1451.12 220.671 L1437.28 222.435 L1423.44 224.331 L1409.61 226.318 L1395.77 228.429 L1381.93 230.724 L1368.09 233.295 L1354.25 236.109 L1340.42 239.038 L1326.58 242.008 L1312.74 245.169 L1298.9 248.933 L1285.07 252.762 L1271.23 256.878 L1257.39 261.303 L1243.55 266.138 L1229.71 271.537 L1215.88 277.518 L1202.04 282.866 L1188.2 289.101 L1174.36 295.81 L1160.53 302.99 L1146.69 310.65 L1132.85 318.596 L1119.01 327.061 L1105.17 336.081 L1091.34 345.053 L1077.5 354.825 L1063.66 365.57 L1049.82 377.267 L1035.98 389.882 L1022.15 402.541 L1008.31 416.927 L994.471 431.989 L980.633 446.925 L966.796 462.675 L952.958 479.75 L939.12 497.927 L925.282 516.615 L911.444 536.596 L897.606 557.949 L883.769 580.415 L869.931 605.092 L856.093 630.474 L842.255 657.145 L828.417 684.416 L814.58 712.61 L800.742 742.014 L786.904 772.803 L773.066 804.616 L759.228 837.239 L745.39 871.644 L731.553 907.101 L717.715 943.292 L703.877 980.679 L690.039 1018.66 L676.201 1057.66 L662.364 1097.11 L648.526 1137.08 L634.688 1177.85 L620.85 1220.11 L607.012 1262.22 L593.174 1304.28 L579.337 1346.29 L565.499 1387.62 L551.661 1428.85 L537.823 1470.12 L523.985 1511.65 L510.148 1552.69 L496.31 1592.57 L482.472 1631.71 L468.634 1670.42 L454.796 1708.48 L440.958 1745.63 L427.121 1781.54 L413.283 1816.93 L399.445 1850.9 L385.607 1883.71 L371.769 1915.32 L357.932 1945.69 L344.094 1974.73 L330.256 2002.56 L316.418 2029.43  Z" fill="#e26f46" fill-rule="evenodd" fill-opacity="0.2"/>
<polyline clip-path="url(#clip312)" style="stroke:#e26f46; stroke-linecap:round; stroke-linejoin:round; stroke-width:12; stroke-opacity:1; fill:none" points="316.418,2078.21 330.256,2053.97 344.094,2028.53 357.932,2001.89 371.769,1974.04 385.607,1944.93 399.445,1914.48 413.283,1882.81 427.121,1849.95 440.958,1815.93 454.796,1780.84 468.634,1744.66 482.472,1707.42 496.31,1669.23 510.148,1630.47 523.985,1591.03 537.823,1550.93 551.661,1510.28 565.499,1469.08 579.337,1427.45 593.174,1385.61 607.012,1343.27 620.85,1300.79 634.688,1258.75 648.526,1217.02 662.364,1175.08 676.201,1133.94 690.039,1093.35 703.877,1053.43 717.715,1014.26 731.553,975.927 745.39,938.514 759.228,902.12 773.066,866.278 786.904,831.56 800.742,799.436 814.58,767.101 828.417,736.717 842.255,707.505 856.093,679.9 869.931,653.247 883.769,627.801 897.606,603.049 911.444,581.28 925.282,560.62 939.12,537.935 952.958,518.3 966.796,500.171 980.633,481.85 994.471,465.362 1008.31,449.952 1022.15,434.318 1035.98,420.612 1049.82,407.365 1063.66,395.554 1077.5,385.188 1091.34,374.266 1105.17,364.643 1119.01,355.008 1132.85,346.563 1146.69,338.285 1160.53,330.233 1174.36,323.142 1188.2,316.226 1202.04,309.731 1215.88,303.362 1229.71,297.513 1243.55,291.933 1257.39,286.921 1271.23,282.595 1285.07,278.169 1298.9,274.49 1312.74,270.676 1326.58,267.103 1340.42,264.045 1354.25,260.758 1368.09,257.723 1381.93,255.225 1395.77,252.554 1409.61,250.341 1423.44,248.011 1437.28,245.916 1451.12,244.035 1464.96,242.06 1478.79,240.415 1492.63,239.048 1506.47,237.83 1520.31,236.715 1534.15,235.692 1547.98,234.612 1561.82,233.722 1575.66,232.866 1589.5,232.054 1603.34,231.343 1617.17,230.675 1631.01,229.989 1644.85,229.351 1658.69,228.749 1672.52,228.154 1686.36,227.641 1700.2,227.168 1714.04,226.743 1727.88,226.372 1741.71,226.029 1755.55,225.71 1769.39,225.415 1783.23,225.139 1797.06,224.881 1810.9,224.639 1824.74,224.411 1838.58,224.199 1852.42,224 1866.25,223.816 1880.09,223.645 1893.93,223.5 1907.77,223.365 1921.61,223.239 1935.44,223.123 1949.28,223.016 1963.12,222.917 1976.96,222.827 1990.79,222.743 2004.63,222.667 2018.47,222.597 2032.31,222.533 2046.15,222.475 2059.98,222.421 2073.82,222.371 2087.66,222.325 2101.5,222.281 2115.33,222.24 2129.17,222.202 2143.01,222.164 2156.85,222.125 2170.69,222.088 2184.52,222.054 2198.36,222.021 2212.2,221.99 2226.04,221.961 2239.87,221.935 2253.71,221.91 2267.55,221.887 2281.39,221.866 2295.23,221.847 2309.06,221.83 2322.9,221.814 2336.74,221.8 2350.58,221.787 2364.42,221.776 2378.25,221.765 2392.09,221.756 2405.93,221.747 2419.77,221.739 2433.6,221.731 2447.44,221.724 2461.28,221.717 2475.12,221.71 2488.96,221.704 2502.79,221.699 2516.63,221.693 2530.47,221.688 2544.31,221.683 2558.14,221.678 2571.98,221.673 2585.82,221.669 2599.66,221.664 2613.5,221.659 2627.33,221.655 2641.17,221.652 2655.01,221.648 2668.85,221.645 2682.69,221.643 2696.52,221.64 2710.36,221.638 2724.2,221.637 2738.04,221.636 2751.87,221.635 2765.71,221.634 2779.55,221.634 2793.39,221.633 2807.23,221.633 2821.06,221.633 2834.9,221.633 2848.74,221.633 2862.58,221.633 2876.41,221.632 2890.25,221.632 2904.09,221.631 2917.93,221.631 2931.77,221.631 2945.6,221.631 2959.44,221.63 2973.28,221.63 2987.12,221.63 3000.96,221.63 3014.79,221.63 3028.63,221.63 3042.47,221.63 3056.31,221.629 3070.14,221.629 "/>
<path clip-path="url(#clip310)" d="M2663.79 2135.47 L3055.46 2135.47 L3055.46 1979.95 L2663.79 1979.95  Z" fill="#eaeaea" fill-rule="evenodd" fill-opacity="1"/>
<polyline clip-path="url(#clip310)" style="stroke:#ffffff; stroke-linecap:round; stroke-linejoin:round; stroke-width:4; stroke-opacity:1; fill:none" points="2663.79,2135.47 3055.46,2135.47 3055.46,1979.95 2663.79,1979.95 2663.79,2135.47 "/>
<polyline clip-path="url(#clip310)" style="stroke:#009af9; stroke-linecap:round; stroke-linejoin:round; stroke-width:12; stroke-opacity:1; fill:none" points="2696.23,2031.79 2890.82,2031.79 "/>
<path clip-path="url(#clip310)" d="M2925.48 2048.35 L2925.48 2044.09 Q2927.24 2044.92 2929.04 2045.36 Q2930.85 2045.8 2932.59 2045.8 Q2937.22 2045.8 2939.65 2042.7 Q2942.1 2039.58 2942.45 2033.23 Q2941.1 2035.22 2939.04 2036.29 Q2936.98 2037.35 2934.48 2037.35 Q2929.3 2037.35 2926.27 2034.23 Q2923.26 2031.08 2923.26 2025.64 Q2923.26 2020.32 2926.4 2017.1 Q2929.55 2013.88 2934.78 2013.88 Q2940.78 2013.88 2943.93 2018.49 Q2947.1 2023.07 2947.1 2031.82 Q2947.1 2039.99 2943.21 2044.88 Q2939.34 2049.74 2932.79 2049.74 Q2931.03 2049.74 2929.23 2049.39 Q2927.42 2049.04 2925.48 2048.35 M2934.78 2033.7 Q2937.93 2033.7 2939.76 2031.54 Q2941.61 2029.39 2941.61 2025.64 Q2941.61 2021.91 2939.76 2019.76 Q2937.93 2017.58 2934.78 2017.58 Q2931.64 2017.58 2929.78 2019.76 Q2927.96 2021.91 2927.96 2025.64 Q2927.96 2029.39 2929.78 2031.54 Q2931.64 2033.7 2934.78 2033.7 Z" fill="#000000" fill-rule="nonzero" fill-opacity="1" /><path clip-path="url(#clip310)" d="M2955.55 2014.51 L2973.9 2014.51 L2973.9 2018.44 L2959.83 2018.44 L2959.83 2026.91 Q2960.85 2026.57 2961.87 2026.4 Q2962.89 2026.22 2963.9 2026.22 Q2969.69 2026.22 2973.07 2029.39 Q2976.45 2032.56 2976.45 2037.98 Q2976.45 2043.56 2972.98 2046.66 Q2969.51 2049.74 2963.19 2049.74 Q2961.01 2049.74 2958.74 2049.37 Q2956.5 2049 2954.09 2048.26 L2954.09 2043.56 Q2956.17 2044.69 2958.4 2045.25 Q2960.62 2045.8 2963.09 2045.8 Q2967.1 2045.8 2969.44 2043.7 Q2971.78 2041.59 2971.78 2037.98 Q2971.78 2034.37 2969.44 2032.26 Q2967.1 2030.15 2963.09 2030.15 Q2961.22 2030.15 2959.34 2030.57 Q2957.49 2030.99 2955.55 2031.87 L2955.55 2014.51 Z" fill="#000000" fill-rule="nonzero" fill-opacity="1" /><path clip-path="url(#clip310)" d="M3015.06 2033.86 Q3013.05 2033.86 3011.89 2035.57 Q3010.76 2037.28 3010.76 2040.34 Q3010.76 2043.35 3011.89 2045.08 Q3013.05 2046.8 3015.06 2046.8 Q3017.03 2046.8 3018.16 2045.08 Q3019.32 2043.35 3019.32 2040.34 Q3019.32 2037.31 3018.16 2035.59 Q3017.03 2033.86 3015.06 2033.86 M3015.06 2030.92 Q3018.72 2030.92 3020.87 2033.46 Q3023.02 2036.01 3023.02 2040.34 Q3023.02 2044.67 3020.85 2047.21 Q3018.7 2049.74 3015.06 2049.74 Q3011.36 2049.74 3009.21 2047.21 Q3007.05 2044.67 3007.05 2040.34 Q3007.05 2035.99 3009.21 2033.46 Q3011.38 2030.92 3015.06 2030.92 M2991.17 2016.82 Q2989.18 2016.82 2988.02 2018.56 Q2986.89 2020.27 2986.89 2023.28 Q2986.89 2026.33 2988.02 2028.05 Q2989.16 2029.76 2991.17 2029.76 Q2993.19 2029.76 2994.32 2028.05 Q2995.48 2026.33 2995.48 2023.28 Q2995.48 2020.29 2994.32 2018.56 Q2993.16 2016.82 2991.17 2016.82 M3012.08 2013.88 L3015.78 2013.88 L2994.16 2049.74 L2990.46 2049.74 L3012.08 2013.88 M2991.17 2013.88 Q2994.83 2013.88 2997.01 2016.43 Q2999.18 2018.95 2999.18 2023.28 Q2999.18 2027.65 2997.01 2030.18 Q2994.85 2032.7 2991.17 2032.7 Q2987.49 2032.7 2985.34 2030.18 Q2983.21 2027.63 2983.21 2023.28 Q2983.21 2018.97 2985.36 2016.43 Q2987.52 2013.88 2991.17 2013.88 Z" fill="#000000" fill-rule="nonzero" fill-opacity="1" /><polyline clip-path="url(#clip310)" style="stroke:#e26f46; stroke-linecap:round; stroke-linejoin:round; stroke-width:12; stroke-opacity:1; fill:none" points="2696.23,2083.63 2890.82,2083.63 "/>
<path clip-path="url(#clip310)" d="M2935.59 2081.76 Q2932.45 2081.76 2930.59 2083.92 Q2928.77 2086.07 2928.77 2089.82 Q2928.77 2093.55 2930.59 2095.72 Q2932.45 2097.87 2935.59 2097.87 Q2938.74 2097.87 2940.57 2095.72 Q2942.42 2093.55 2942.42 2089.82 Q2942.42 2086.07 2940.57 2083.92 Q2938.74 2081.76 2935.59 2081.76 M2944.88 2067.11 L2944.88 2071.37 Q2943.12 2070.54 2941.31 2070.1 Q2939.53 2069.66 2937.77 2069.66 Q2933.14 2069.66 2930.69 2072.78 Q2928.26 2075.91 2927.91 2082.23 Q2929.28 2080.21 2931.34 2079.15 Q2933.4 2078.06 2935.87 2078.06 Q2941.08 2078.06 2944.09 2081.23 Q2947.12 2084.38 2947.12 2089.82 Q2947.12 2095.14 2943.97 2098.36 Q2940.83 2101.58 2935.59 2101.58 Q2929.6 2101.58 2926.43 2096.99 Q2923.26 2092.39 2923.26 2083.66 Q2923.26 2075.47 2927.15 2070.61 Q2931.03 2065.72 2937.59 2065.72 Q2939.34 2065.72 2941.13 2066.07 Q2942.93 2066.42 2944.88 2067.11 Z" fill="#000000" fill-rule="nonzero" fill-opacity="1" /><path clip-path="url(#clip310)" d="M2965.18 2084.49 Q2961.84 2084.49 2959.92 2086.28 Q2958.03 2088.06 2958.03 2091.18 Q2958.03 2094.31 2959.92 2096.09 Q2961.84 2097.87 2965.18 2097.87 Q2968.51 2097.87 2970.43 2096.09 Q2972.35 2094.29 2972.35 2091.18 Q2972.35 2088.06 2970.43 2086.28 Q2968.53 2084.49 2965.18 2084.49 M2960.5 2082.5 Q2957.49 2081.76 2955.8 2079.7 Q2954.14 2077.64 2954.14 2074.68 Q2954.14 2070.54 2957.08 2068.13 Q2960.04 2065.72 2965.18 2065.72 Q2970.34 2065.72 2973.28 2068.13 Q2976.22 2070.54 2976.22 2074.68 Q2976.22 2077.64 2974.53 2079.7 Q2972.86 2081.76 2969.88 2082.5 Q2973.26 2083.29 2975.13 2085.58 Q2977.03 2087.87 2977.03 2091.18 Q2977.03 2096.21 2973.95 2098.89 Q2970.9 2101.58 2965.18 2101.58 Q2959.46 2101.58 2956.38 2098.89 Q2953.33 2096.21 2953.33 2091.18 Q2953.33 2087.87 2955.22 2085.58 Q2957.12 2083.29 2960.5 2082.5 M2958.79 2075.12 Q2958.79 2077.8 2960.46 2079.31 Q2962.15 2080.81 2965.18 2080.81 Q2968.19 2080.81 2969.88 2079.31 Q2971.59 2077.8 2971.59 2075.12 Q2971.59 2072.43 2969.88 2070.93 Q2968.19 2069.42 2965.18 2069.42 Q2962.15 2069.42 2960.46 2070.93 Q2958.79 2072.43 2958.79 2075.12 Z" fill="#000000" fill-rule="nonzero" fill-opacity="1" /><path clip-path="url(#clip310)" d="M3014.74 2085.7 Q3012.72 2085.7 3011.57 2087.41 Q3010.43 2089.12 3010.43 2092.18 Q3010.43 2095.19 3011.57 2096.92 Q3012.72 2098.64 3014.74 2098.64 Q3016.71 2098.64 3017.84 2096.92 Q3019 2095.19 3019 2092.18 Q3019 2089.15 3017.84 2087.43 Q3016.71 2085.7 3014.74 2085.7 M3014.74 2082.76 Q3018.4 2082.76 3020.55 2085.3 Q3022.7 2087.85 3022.7 2092.18 Q3022.7 2096.51 3020.52 2099.05 Q3018.37 2101.58 3014.74 2101.58 Q3011.03 2101.58 3008.88 2099.05 Q3006.73 2096.51 3006.73 2092.18 Q3006.73 2087.83 3008.88 2085.3 Q3011.06 2082.76 3014.74 2082.76 M2990.85 2068.66 Q2988.86 2068.66 2987.7 2070.4 Q2986.57 2072.11 2986.57 2075.12 Q2986.57 2078.17 2987.7 2079.89 Q2988.84 2081.6 2990.85 2081.6 Q2992.86 2081.6 2994 2079.89 Q2995.15 2078.17 2995.15 2075.12 Q2995.15 2072.13 2994 2070.4 Q2992.84 2068.66 2990.85 2068.66 M3011.75 2065.72 L3015.46 2065.72 L2993.84 2101.58 L2990.13 2101.58 L3011.75 2065.72 M2990.85 2065.72 Q2994.51 2065.72 2996.68 2068.27 Q2998.86 2070.79 2998.86 2075.12 Q2998.86 2079.49 2996.68 2082.02 Q2994.53 2084.54 2990.85 2084.54 Q2987.17 2084.54 2985.02 2082.02 Q2982.89 2079.47 2982.89 2075.12 Q2982.89 2070.81 2985.04 2068.27 Q2987.19 2065.72 2990.85 2065.72 Z" fill="#000000" fill-rule="nonzero" fill-opacity="1" /></svg>
