<?xml version="1.0" encoding="utf-8"?>
<svg xmlns="http://www.w3.org/2000/svg" xmlns:xlink="http://www.w3.org/1999/xlink" width="800" height="600" viewBox="0 0 3200 2400">
<defs>
  <clipPath id="clip080">
    <rect x="0" y="0" width="3200" height="2400"/>
  </clipPath>
</defs>
<path clip-path="url(#clip080)" d="M0 2400 L3200 2400 L3200 0 L0 0  Z" fill="#ffffff" fill-rule="evenodd" fill-opacity="1"/>
<defs>
  <clipPath id="clip081">
    <rect x="640" y="0" width="2241" height="2241"/>
  </clipPath>
</defs>
<path clip-path="url(#clip080)" d="M233.806 2204.92 L3152.76 2204.92 L3152.76 121.312 L233.806 121.312  Z" fill="#eaeaea" fill-rule="evenodd" fill-opacity="1"/>
<defs>
  <clipPath id="clip082">
    <rect x="233" y="121" width="2920" height="2085"/>
  </clipPath>
</defs>
<polyline clip-path="url(#clip082)" style="stroke:#ffffff; stroke-linecap:round; stroke-linejoin:round; stroke-width:2; stroke-opacity:1; fill:none" points="591.791,2204.92 591.791,121.312 "/>
<polyline clip-path="url(#clip082)" style="stroke:#ffffff; stroke-linecap:round; stroke-linejoin:round; stroke-width:2; stroke-opacity:1; fill:none" points="1142.54,2204.92 1142.54,121.312 "/>
<polyline clip-path="url(#clip082)" style="stroke:#ffffff; stroke-linecap:round; stroke-linejoin:round; stroke-width:2; stroke-opacity:1; fill:none" points="1693.28,2204.92 1693.28,121.312 "/>
<polyline clip-path="url(#clip082)" style="stroke:#ffffff; stroke-linecap:round; stroke-linejoin:round; stroke-width:2; stroke-opacity:1; fill:none" points="2244.03,2204.92 2244.03,121.312 "/>
<polyline clip-path="url(#clip082)" style="stroke:#ffffff; stroke-linecap:round; stroke-linejoin:round; stroke-width:2; stroke-opacity:1; fill:none" points="2794.77,2204.92 2794.77,121.312 "/>
<polyline clip-path="url(#clip082)" style="stroke:#ffffff; stroke-linecap:round; stroke-linejoin:round; stroke-width:2; stroke-opacity:1; fill:none" points="233.806,2002.68 3152.76,2002.68 "/>
<polyline clip-path="url(#clip082)" style="stroke:#ffffff; stroke-linecap:round; stroke-linejoin:round; stroke-width:2; stroke-opacity:1; fill:none" points="233.806,1705.94 3152.76,1705.94 "/>
<polyline clip-path="url(#clip082)" style="stroke:#ffffff; stroke-linecap:round; stroke-linejoin:round; stroke-width:2; stroke-opacity:1; fill:none" points="233.806,1409.21 3152.76,1409.21 "/>
<polyline clip-path="url(#clip082)" style="stroke:#ffffff; stroke-linecap:round; stroke-linejoin:round; stroke-width:2; stroke-opacity:1; fill:none" points="233.806,1112.47 3152.76,1112.47 "/>
<polyline clip-path="url(#clip082)" style="stroke:#ffffff; stroke-linecap:round; stroke-linejoin:round; stroke-width:2; stroke-opacity:1; fill:none" points="233.806,815.735 3152.76,815.735 "/>
<polyline clip-path="url(#clip082)" style="stroke:#ffffff; stroke-linecap:round; stroke-linejoin:round; stroke-width:2; stroke-opacity:1; fill:none" points="233.806,518.999 3152.76,518.999 "/>
<polyline clip-path="url(#clip082)" style="stroke:#ffffff; stroke-linecap:round; stroke-linejoin:round; stroke-width:2; stroke-opacity:1; fill:none" points="233.806,222.264 3152.76,222.264 "/>
<polyline clip-path="url(#clip082)" style="stroke:#ffffff; stroke-linecap:round; stroke-linejoin:round; stroke-width:4; stroke-opacity:1; fill:none" points="316.418,2204.92 316.418,121.312 "/>
<polyline clip-path="url(#clip082)" style="stroke:#ffffff; stroke-linecap:round; stroke-linejoin:round; stroke-width:4; stroke-opacity:1; fill:none" points="867.163,2204.92 867.163,121.312 "/>
<polyline clip-path="url(#clip082)" style="stroke:#ffffff; stroke-linecap:round; stroke-linejoin:round; stroke-width:4; stroke-opacity:1; fill:none" points="1417.91,2204.92 1417.91,121.312 "/>
<polyline clip-path="url(#clip082)" style="stroke:#ffffff; stroke-linecap:round; stroke-linejoin:round; stroke-width:4; stroke-opacity:1; fill:none" points="1968.65,2204.92 1968.65,121.312 "/>
<polyline clip-path="url(#clip082)" style="stroke:#ffffff; stroke-linecap:round; stroke-linejoin:round; stroke-width:4; stroke-opacity:1; fill:none" points="2519.4,2204.92 2519.4,121.312 "/>
<polyline clip-path="url(#clip082)" style="stroke:#ffffff; stroke-linecap:round; stroke-linejoin:round; stroke-width:4; stroke-opacity:1; fill:none" points="3070.14,2204.92 3070.14,121.312 "/>
<polyline clip-path="url(#clip082)" style="stroke:#ffffff; stroke-linecap:round; stroke-linejoin:round; stroke-width:4; stroke-opacity:1; fill:none" points="233.806,2151.04 3152.76,2151.04 "/>
<polyline clip-path="url(#clip082)" style="stroke:#ffffff; stroke-linecap:round; stroke-linejoin:round; stroke-width:4; stroke-opacity:1; fill:none" points="233.806,1854.31 3152.76,1854.31 "/>
<polyline clip-path="url(#clip082)" style="stroke:#ffffff; stroke-linecap:round; stroke-linejoin:round; stroke-width:4; stroke-opacity:1; fill:none" points="233.806,1557.57 3152.76,1557.57 "/>
<polyline clip-path="url(#clip082)" style="stroke:#ffffff; stroke-linecap:round; stroke-linejoin:round; stroke-width:4; stroke-opacity:1; fill:none" points="233.806,1260.84 3152.76,1260.84 "/>
<polyline clip-path="url(#clip082)" style="stroke:#ffffff; stroke-linecap:round; stroke-linejoin:round; stroke-width:4; stroke-opacity:1; fill:none" points="233.806,964.103 3152.76,964.103 "/>
<polyline clip-path="url(#clip082)" style="stroke:#ffffff; stroke-linecap:round; stroke-linejoin:round; stroke-width:4; stroke-opacity:1; fill:none" points="233.806,667.367 3152.76,667.367 "/>
<polyline clip-path="url(#clip082)" style="stroke:#ffffff; stroke-linecap:round; stroke-linejoin:round; stroke-width:4; stroke-opacity:1; fill:none" points="233.806,370.632 3152.76,370.632 "/>
<polyline clip-path="url(#clip080)" style="stroke:#ffffff; stroke-linecap:round; stroke-linejoin:round; stroke-width:4; stroke-opacity:1; fill:none" points="233.806,2204.92 3152.76,2204.92 "/>
<polyline clip-path="url(#clip080)" style="stroke:#333333; stroke-linecap:round; stroke-linejoin:round; stroke-width:4; stroke-opacity:1; fill:none" points="316.418,2204.92 316.418,2223.82 "/>
<polyline clip-path="url(#clip080)" style="stroke:#333333; stroke-linecap:round; stroke-linejoin:round; stroke-width:4; stroke-opacity:1; fill:none" points="867.163,2204.92 867.163,2223.82 "/>
<polyline clip-path="url(#clip080)" style="stroke:#333333; stroke-linecap:round; stroke-linejoin:round; stroke-width:4; stroke-opacity:1; fill:none" points="1417.91,2204.92 1417.91,2223.82 "/>
<polyline clip-path="url(#clip080)" style="stroke:#333333; stroke-linecap:round; stroke-linejoin:round; stroke-width:4; stroke-opacity:1; fill:none" points="1968.65,2204.92 1968.65,2223.82 "/>
<polyline clip-path="url(#clip080)" style="stroke:#333333; stroke-linecap:round; stroke-linejoin:round; stroke-width:4; stroke-opacity:1; fill:none" points="2519.4,2204.92 2519.4,2223.82 "/>
<polyline clip-path="url(#clip080)" style="stroke:#333333; stroke-linecap:round; stroke-linejoin:round; stroke-width:4; stroke-opacity:1; fill:none" points="3070.14,2204.92 3070.14,2223.82 "/>
<polyline clip-path="url(#clip080)" style="stroke:#333333; stroke-linecap:round; stroke-linejoin:round; stroke-width:4; stroke-opacity:1; fill:none" points="591.791,2204.92 591.791,2214.37 "/>
<polyline clip-path="url(#clip080)" style="stroke:#333333; stroke-linecap:round; stroke-linejoin:round; stroke-width:4; stroke-opacity:1; fill:none" points="1142.54,2204.92 1142.54,2214.37 "/>
<polyline clip-path="url(#clip080)" style="stroke:#333333; stroke-linecap:round; stroke-linejoin:round; stroke-width:4; stroke-opacity:1; fill:none" points="1693.28,2204.92 1693.28,2214.37 "/>
<polyline clip-path="url(#clip080)" style="stroke:#333333; stroke-linecap:round; stroke-linejoin:round; stroke-width:4; stroke-opacity:1; fill:none" points="2244.03,2204.92 2244.03,2214.37 "/>
<polyline clip-path="url(#clip080)" style="stroke:#333333; stroke-linecap:round; stroke-linejoin:round; stroke-width:4; stroke-opacity:1; fill:none" points="2794.77,2204.92 2794.77,2214.37 "/>
<path clip-path="url(#clip080)" d="M316.418 2255.04 Q312.807 2255.04 310.978 2258.6 Q309.173 2262.14 309.173 2269.27 Q309.173 2276.38 310.978 2279.95 Q312.807 2283.49 316.418 2283.49 Q320.052 2283.49 321.858 2279.95 Q323.687 2276.38 323.687 2269.27 Q323.687 2262.14 321.858 2258.6 Q320.052 2255.04 316.418 2255.04 M316.418 2251.33 Q322.228 2251.33 325.284 2255.94 Q328.362 2260.52 328.362 2269.27 Q328.362 2278 325.284 2282.61 Q322.228 2287.19 316.418 2287.19 Q310.608 2287.19 307.529 2282.61 Q304.474 2278 304.474 2269.27 Q304.474 2260.52 307.529 2255.94 Q310.608 2251.33 316.418 2251.33 Z" fill="#4c4c4c" fill-rule="nonzero" fill-opacity="1" /><path clip-path="url(#clip080)" d="M857.545 2282.58 L865.184 2282.58 L865.184 2256.22 L856.874 2257.89 L856.874 2253.63 L865.138 2251.96 L869.814 2251.96 L869.814 2282.58 L877.453 2282.58 L877.453 2286.52 L857.545 2286.52 L857.545 2282.58 Z" fill="#4c4c4c" fill-rule="nonzero" fill-opacity="1" /><path clip-path="url(#clip080)" d="M1412.56 2282.58 L1428.88 2282.58 L1428.88 2286.52 L1406.94 2286.52 L1406.94 2282.58 Q1409.6 2279.83 1414.18 2275.2 Q1418.79 2270.55 1419.97 2269.21 Q1422.21 2266.68 1423.09 2264.95 Q1424 2263.19 1424 2261.5 Q1424 2258.74 1422.05 2257.01 Q1420.13 2255.27 1417.03 2255.27 Q1414.83 2255.27 1412.38 2256.03 Q1409.95 2256.8 1407.17 2258.35 L1407.17 2253.63 Q1409.99 2252.49 1412.45 2251.91 Q1414.9 2251.33 1416.94 2251.33 Q1422.31 2251.33 1425.5 2254.02 Q1428.7 2256.71 1428.7 2261.2 Q1428.7 2263.33 1427.89 2265.25 Q1427.1 2267.14 1424.99 2269.74 Q1424.41 2270.41 1421.31 2273.63 Q1418.21 2276.82 1412.56 2282.58 Z" fill="#4c4c4c" fill-rule="nonzero" fill-opacity="1" /><path clip-path="url(#clip080)" d="M1972.9 2267.89 Q1976.26 2268.6 1978.13 2270.87 Q1980.03 2273.14 1980.03 2276.47 Q1980.03 2281.59 1976.51 2284.39 Q1972.99 2287.19 1966.51 2287.19 Q1964.34 2287.19 1962.02 2286.75 Q1959.73 2286.33 1957.28 2285.48 L1957.28 2280.96 Q1959.22 2282.1 1961.54 2282.68 Q1963.85 2283.26 1966.37 2283.26 Q1970.77 2283.26 1973.06 2281.52 Q1975.38 2279.78 1975.38 2276.47 Q1975.38 2273.42 1973.23 2271.71 Q1971.1 2269.97 1967.28 2269.97 L1963.25 2269.97 L1963.25 2266.13 L1967.46 2266.13 Q1970.91 2266.13 1972.74 2264.76 Q1974.57 2263.37 1974.57 2260.78 Q1974.57 2258.12 1972.67 2256.71 Q1970.79 2255.27 1967.28 2255.27 Q1965.36 2255.27 1963.16 2255.69 Q1960.96 2256.1 1958.32 2256.98 L1958.32 2252.82 Q1960.98 2252.08 1963.29 2251.71 Q1965.63 2251.33 1967.69 2251.33 Q1973.02 2251.33 1976.12 2253.77 Q1979.22 2256.17 1979.22 2260.29 Q1979.22 2263.16 1977.58 2265.15 Q1975.93 2267.12 1972.9 2267.89 Z" fill="#4c4c4c" fill-rule="nonzero" fill-opacity="1" /><path clip-path="url(#clip080)" d="M2522.41 2256.03 L2510.6 2274.48 L2522.41 2274.48 L2522.41 2256.03 M2521.18 2251.96 L2527.06 2251.96 L2527.06 2274.48 L2531.99 2274.48 L2531.99 2278.37 L2527.06 2278.37 L2527.06 2286.52 L2522.41 2286.52 L2522.41 2278.37 L2506.81 2278.37 L2506.81 2273.86 L2521.18 2251.96 Z" fill="#4c4c4c" fill-rule="nonzero" fill-opacity="1" /><path clip-path="url(#clip080)" d="M3060.42 2251.96 L3078.78 2251.96 L3078.78 2255.9 L3064.7 2255.9 L3064.7 2264.37 Q3065.72 2264.02 3066.74 2263.86 Q3067.76 2263.67 3068.78 2263.67 Q3074.57 2263.67 3077.95 2266.84 Q3081.32 2270.02 3081.32 2275.43 Q3081.32 2281.01 3077.85 2284.11 Q3074.38 2287.19 3068.06 2287.19 Q3065.88 2287.19 3063.62 2286.82 Q3061.37 2286.45 3058.96 2285.71 L3058.96 2281.01 Q3061.05 2282.14 3063.27 2282.7 Q3065.49 2283.26 3067.97 2283.26 Q3071.97 2283.26 3074.31 2281.15 Q3076.65 2279.04 3076.65 2275.43 Q3076.65 2271.82 3074.31 2269.71 Q3071.97 2267.61 3067.97 2267.61 Q3066.09 2267.61 3064.22 2268.02 Q3062.37 2268.44 3060.42 2269.32 L3060.42 2251.96 Z" fill="#4c4c4c" fill-rule="nonzero" fill-opacity="1" /><path clip-path="url(#clip080)" d="M1692.34 2316.01 L1692.34 2326.14 L1704.41 2326.14 L1704.41 2330.69 L1692.34 2330.69 L1692.34 2350.04 Q1692.34 2354.4 1693.52 2355.64 Q1694.73 2356.88 1698.39 2356.88 L1704.41 2356.88 L1704.41 2361.78 L1698.39 2361.78 Q1691.61 2361.78 1689.03 2359.27 Q1686.45 2356.72 1686.45 2350.04 L1686.45 2330.69 L1682.16 2330.69 L1682.16 2326.14 L1686.45 2326.14 L1686.45 2316.01 L1692.34 2316.01 Z" fill="#000000" fill-rule="nonzero" fill-opacity="1" /><polyline clip-path="url(#clip080)" style="stroke:#ffffff; stroke-linecap:round; stroke-linejoin:round; stroke-width:4; stroke-opacity:1; fill:none" points="233.806,2204.92 233.806,121.312 "/>
<polyline clip-path="url(#clip080)" style="stroke:#333333; stroke-linecap:round; stroke-linejoin:round; stroke-width:4; stroke-opacity:1; fill:none" points="233.806,2151.04 214.909,2151.04 "/>
<polyline clip-path="url(#clip080)" style="stroke:#333333; stroke-linecap:round; stroke-linejoin:round; stroke-width:4; stroke-opacity:1; fill:none" points="233.806,1854.31 214.909,1854.31 "/>
<polyline clip-path="url(#clip080)" style="stroke:#333333; stroke-linecap:round; stroke-linejoin:round; stroke-width:4; stroke-opacity:1; fill:none" points="233.806,1557.57 214.909,1557.57 "/>
<polyline clip-path="url(#clip080)" style="stroke:#333333; stroke-linecap:round; stroke-linejoin:round; stroke-width:4; stroke-opacity:1; fill:none" points="233.806,1260.84 214.909,1260.84 "/>
<polyline clip-path="url(#clip080)" style="stroke:#333333; stroke-linecap:round; stroke-linejoin:round; stroke-width:4; stroke-opacity:1; fill:none" points="233.806,964.103 214.909,964.103 "/>
<polyline clip-path="url(#clip080)" style="stroke:#333333; stroke-linecap:round; stroke-linejoin:round; stroke-width:4; stroke-opacity:1; fill:none" points="233.806,667.367 214.909,667.367 "/>
<polyline clip-path="url(#clip080)" style="stroke:#333333; stroke-linecap:round; stroke-linejoin:round; stroke-width:4; stroke-opacity:1; fill:none" points="233.806,370.632 214.909,370.632 "/>
<polyline clip-path="url(#clip080)" style="stroke:#333333; stroke-linecap:round; stroke-linejoin:round; stroke-width:4; stroke-opacity:1; fill:none" points="233.806,2002.68 224.357,2002.68 "/>
<polyline clip-path="url(#clip080)" style="stroke:#333333; stroke-linecap:round; stroke-linejoin:round; stroke-width:4; stroke-opacity:1; fill:none" points="233.806,1705.94 224.357,1705.94 "/>
<polyline clip-path="url(#clip080)" style="stroke:#333333; stroke-linecap:round; stroke-linejoin:round; stroke-width:4; stroke-opacity:1; fill:none" points="233.806,1409.21 224.357,1409.21 "/>
<polyline clip-path="url(#clip080)" style="stroke:#333333; stroke-linecap:round; stroke-linejoin:round; stroke-width:4; stroke-opacity:1; fill:none" points="233.806,1112.47 224.357,1112.47 "/>
<polyline clip-path="url(#clip080)" style="stroke:#333333; stroke-linecap:round; stroke-linejoin:round; stroke-width:4; stroke-opacity:1; fill:none" points="233.806,815.735 224.357,815.735 "/>
<polyline clip-path="url(#clip080)" style="stroke:#333333; stroke-linecap:round; stroke-linejoin:round; stroke-width:4; stroke-opacity:1; fill:none" points="233.806,518.999 224.357,518.999 "/>
<polyline clip-path="url(#clip080)" style="stroke:#333333; stroke-linecap:round; stroke-linejoin:round; stroke-width:4; stroke-opacity:1; fill:none" points="233.806,222.264 224.357,222.264 "/>
<path clip-path="url(#clip080)" d="M106.228 2136.84 Q102.617 2136.84 100.788 2140.41 Q98.9825 2143.95 98.9825 2151.08 Q98.9825 2158.19 100.788 2161.75 Q102.617 2165.29 106.228 2165.29 Q109.862 2165.29 111.668 2161.75 Q113.496 2158.19 113.496 2151.08 Q113.496 2143.95 111.668 2140.41 Q109.862 2136.84 106.228 2136.84 M106.228 2133.14 Q112.038 2133.14 115.094 2137.75 Q118.172 2142.33 118.172 2151.08 Q118.172 2159.81 115.094 2164.41 Q112.038 2169 106.228 2169 Q100.418 2169 97.339 2164.41 Q94.2835 2159.81 94.2835 2151.08 Q94.2835 2142.33 97.339 2137.75 Q100.418 2133.14 106.228 2133.14 Z" fill="#4c4c4c" fill-rule="nonzero" fill-opacity="1" /><path clip-path="url(#clip080)" d="M126.39 2162.45 L131.274 2162.45 L131.274 2168.32 L126.39 2168.32 L126.39 2162.45 Z" fill="#4c4c4c" fill-rule="nonzero" fill-opacity="1" /><path clip-path="url(#clip080)" d="M145.487 2164.39 L161.806 2164.39 L161.806 2168.32 L139.862 2168.32 L139.862 2164.39 Q142.524 2161.63 147.107 2157.01 Q151.714 2152.35 152.894 2151.01 Q155.14 2148.49 156.019 2146.75 Q156.922 2144.99 156.922 2143.3 Q156.922 2140.55 154.978 2138.81 Q153.056 2137.07 149.954 2137.07 Q147.755 2137.07 145.302 2137.84 Q142.871 2138.6 140.093 2140.15 L140.093 2135.43 Q142.917 2134.3 145.371 2133.72 Q147.825 2133.14 149.862 2133.14 Q155.232 2133.14 158.427 2135.82 Q161.621 2138.51 161.621 2143 Q161.621 2145.13 160.811 2147.05 Q160.024 2148.95 157.917 2151.54 Q157.339 2152.21 154.237 2155.43 Q151.135 2158.63 145.487 2164.39 Z" fill="#4c4c4c" fill-rule="nonzero" fill-opacity="1" /><path clip-path="url(#clip080)" d="M104.145 1840.11 Q100.533 1840.11 98.7048 1843.67 Q96.8992 1847.21 96.8992 1854.34 Q96.8992 1861.45 98.7048 1865.02 Q100.533 1868.56 104.145 1868.56 Q107.779 1868.56 109.584 1865.02 Q111.413 1861.45 111.413 1854.34 Q111.413 1847.21 109.584 1843.67 Q107.779 1840.11 104.145 1840.11 M104.145 1836.4 Q109.955 1836.4 113.01 1841.01 Q116.089 1845.59 116.089 1854.34 Q116.089 1863.07 113.01 1867.68 Q109.955 1872.26 104.145 1872.26 Q98.3344 1872.26 95.2557 1867.68 Q92.2002 1863.07 92.2002 1854.34 Q92.2002 1845.59 95.2557 1841.01 Q98.3344 1836.4 104.145 1836.4 Z" fill="#4c4c4c" fill-rule="nonzero" fill-opacity="1" /><path clip-path="url(#clip080)" d="M124.306 1865.71 L129.191 1865.71 L129.191 1871.59 L124.306 1871.59 L124.306 1865.71 Z" fill="#4c4c4c" fill-rule="nonzero" fill-opacity="1" /><path clip-path="url(#clip080)" d="M152.223 1841.1 L140.417 1859.55 L152.223 1859.55 L152.223 1841.1 M150.996 1837.03 L156.876 1837.03 L156.876 1859.55 L161.806 1859.55 L161.806 1863.44 L156.876 1863.44 L156.876 1871.59 L152.223 1871.59 L152.223 1863.44 L136.621 1863.44 L136.621 1858.93 L150.996 1837.03 Z" fill="#4c4c4c" fill-rule="nonzero" fill-opacity="1" /><path clip-path="url(#clip080)" d="M104.469 1543.37 Q100.858 1543.37 99.0288 1546.94 Q97.2233 1550.48 97.2233 1557.61 Q97.2233 1564.71 99.0288 1568.28 Q100.858 1571.82 104.469 1571.82 Q108.103 1571.82 109.908 1568.28 Q111.737 1564.71 111.737 1557.61 Q111.737 1550.48 109.908 1546.94 Q108.103 1543.37 104.469 1543.37 M104.469 1539.67 Q110.279 1539.67 113.334 1544.28 Q116.413 1548.86 116.413 1557.61 Q116.413 1566.34 113.334 1570.94 Q110.279 1575.52 104.469 1575.52 Q98.6585 1575.52 95.5798 1570.94 Q92.5242 1566.34 92.5242 1557.61 Q92.5242 1548.86 95.5798 1544.28 Q98.6585 1539.67 104.469 1539.67 Z" fill="#4c4c4c" fill-rule="nonzero" fill-opacity="1" /><path clip-path="url(#clip080)" d="M124.631 1568.97 L129.515 1568.97 L129.515 1574.85 L124.631 1574.85 L124.631 1568.97 Z" fill="#4c4c4c" fill-rule="nonzero" fill-opacity="1" /><path clip-path="url(#clip080)" d="M150.279 1555.71 Q147.13 1555.71 145.279 1557.86 Q143.45 1560.02 143.45 1563.77 Q143.45 1567.49 145.279 1569.67 Q147.13 1571.82 150.279 1571.82 Q153.427 1571.82 155.255 1569.67 Q157.107 1567.49 157.107 1563.77 Q157.107 1560.02 155.255 1557.86 Q153.427 1555.71 150.279 1555.71 M159.561 1541.06 L159.561 1545.32 Q157.802 1544.48 155.996 1544.04 Q154.214 1543.6 152.454 1543.6 Q147.825 1543.6 145.371 1546.73 Q142.941 1549.85 142.593 1556.17 Q143.959 1554.16 146.019 1553.09 Q148.079 1552.01 150.556 1552.01 Q155.765 1552.01 158.774 1555.18 Q161.806 1558.33 161.806 1563.77 Q161.806 1569.09 158.658 1572.31 Q155.51 1575.52 150.279 1575.52 Q144.283 1575.52 141.112 1570.94 Q137.941 1566.34 137.941 1557.61 Q137.941 1549.41 141.83 1544.55 Q145.718 1539.67 152.269 1539.67 Q154.029 1539.67 155.811 1540.02 Q157.616 1540.36 159.561 1541.06 Z" fill="#4c4c4c" fill-rule="nonzero" fill-opacity="1" /><path clip-path="url(#clip080)" d="M104.723 1246.64 Q101.112 1246.64 99.2835 1250.2 Q97.4779 1253.74 97.4779 1260.87 Q97.4779 1267.98 99.2835 1271.54 Q101.112 1275.09 104.723 1275.09 Q108.357 1275.09 110.163 1271.54 Q111.992 1267.98 111.992 1260.87 Q111.992 1253.74 110.163 1250.2 Q108.357 1246.64 104.723 1246.64 M104.723 1242.93 Q110.533 1242.93 113.589 1247.54 Q116.668 1252.12 116.668 1260.87 Q116.668 1269.6 113.589 1274.21 Q110.533 1278.79 104.723 1278.79 Q98.9131 1278.79 95.8344 1274.21 Q92.7789 1269.6 92.7789 1260.87 Q92.7789 1252.12 95.8344 1247.54 Q98.9131 1242.93 104.723 1242.93 Z" fill="#4c4c4c" fill-rule="nonzero" fill-opacity="1" /><path clip-path="url(#clip080)" d="M124.885 1272.24 L129.769 1272.24 L129.769 1278.12 L124.885 1278.12 L124.885 1272.24 Z" fill="#4c4c4c" fill-rule="nonzero" fill-opacity="1" /><path clip-path="url(#clip080)" d="M149.954 1261.71 Q146.621 1261.71 144.7 1263.49 Q142.802 1265.27 142.802 1268.4 Q142.802 1271.52 144.7 1273.3 Q146.621 1275.09 149.954 1275.09 Q153.288 1275.09 155.209 1273.3 Q157.13 1271.5 157.13 1268.4 Q157.13 1265.27 155.209 1263.49 Q153.311 1261.71 149.954 1261.71 M145.279 1259.72 Q142.269 1258.97 140.58 1256.91 Q138.913 1254.85 138.913 1251.89 Q138.913 1247.75 141.853 1245.34 Q144.816 1242.93 149.954 1242.93 Q155.116 1242.93 158.056 1245.34 Q160.996 1247.75 160.996 1251.89 Q160.996 1254.85 159.306 1256.91 Q157.64 1258.97 154.654 1259.72 Q158.033 1260.5 159.908 1262.79 Q161.806 1265.09 161.806 1268.4 Q161.806 1273.42 158.728 1276.1 Q155.672 1278.79 149.954 1278.79 Q144.237 1278.79 141.158 1276.1 Q138.103 1273.42 138.103 1268.4 Q138.103 1265.09 140.001 1262.79 Q141.899 1260.5 145.279 1259.72 M143.566 1252.33 Q143.566 1255.02 145.232 1256.52 Q146.922 1258.03 149.954 1258.03 Q152.964 1258.03 154.654 1256.52 Q156.366 1255.02 156.366 1252.33 Q156.366 1249.65 154.654 1248.14 Q152.964 1246.64 149.954 1246.64 Q146.922 1246.64 145.232 1248.14 Q143.566 1249.65 143.566 1252.33 Z" fill="#4c4c4c" fill-rule="nonzero" fill-opacity="1" /><path clip-path="url(#clip080)" d="M95.4409 977.447 L103.08 977.447 L103.08 951.082 L94.7696 952.748 L94.7696 948.489 L103.033 946.823 L107.709 946.823 L107.709 977.447 L115.348 977.447 L115.348 981.383 L95.4409 981.383 L95.4409 977.447 Z" fill="#4c4c4c" fill-rule="nonzero" fill-opacity="1" /><path clip-path="url(#clip080)" d="M124.793 975.503 L129.677 975.503 L129.677 981.383 L124.793 981.383 L124.793 975.503 Z" fill="#4c4c4c" fill-rule="nonzero" fill-opacity="1" /><path clip-path="url(#clip080)" d="M149.862 949.901 Q146.251 949.901 144.422 953.466 Q142.617 957.008 142.617 964.137 Q142.617 971.244 144.422 974.809 Q146.251 978.35 149.862 978.35 Q153.496 978.35 155.302 974.809 Q157.13 971.244 157.13 964.137 Q157.13 957.008 155.302 953.466 Q153.496 949.901 149.862 949.901 M149.862 946.198 Q155.672 946.198 158.728 950.804 Q161.806 955.387 161.806 964.137 Q161.806 972.864 158.728 977.471 Q155.672 982.054 149.862 982.054 Q144.052 982.054 140.973 977.471 Q137.918 972.864 137.918 964.137 Q137.918 955.387 140.973 950.804 Q144.052 946.198 149.862 946.198 Z" fill="#4c4c4c" fill-rule="nonzero" fill-opacity="1" /><path clip-path="url(#clip080)" d="M97.0381 680.712 L104.677 680.712 L104.677 654.346 L96.3668 656.013 L96.3668 651.754 L104.631 650.087 L109.307 650.087 L109.307 680.712 L116.945 680.712 L116.945 684.647 L97.0381 684.647 L97.0381 680.712 Z" fill="#4c4c4c" fill-rule="nonzero" fill-opacity="1" /><path clip-path="url(#clip080)" d="M126.39 678.767 L131.274 678.767 L131.274 684.647 L126.39 684.647 L126.39 678.767 Z" fill="#4c4c4c" fill-rule="nonzero" fill-opacity="1" /><path clip-path="url(#clip080)" d="M145.487 680.712 L161.806 680.712 L161.806 684.647 L139.862 684.647 L139.862 680.712 Q142.524 677.957 147.107 673.328 Q151.714 668.675 152.894 667.332 Q155.14 664.809 156.019 663.073 Q156.922 661.314 156.922 659.624 Q156.922 656.869 154.978 655.133 Q153.056 653.397 149.954 653.397 Q147.755 653.397 145.302 654.161 Q142.871 654.925 140.093 656.476 L140.093 651.754 Q142.917 650.619 145.371 650.041 Q147.825 649.462 149.862 649.462 Q155.232 649.462 158.427 652.147 Q161.621 654.832 161.621 659.323 Q161.621 661.453 160.811 663.374 Q160.024 665.272 157.917 667.865 Q157.339 668.536 154.237 671.754 Q151.135 674.948 145.487 680.712 Z" fill="#4c4c4c" fill-rule="nonzero" fill-opacity="1" /><path clip-path="url(#clip080)" d="M94.9548 383.976 L102.594 383.976 L102.594 357.611 L94.2835 359.277 L94.2835 355.018 L102.547 353.352 L107.223 353.352 L107.223 383.976 L114.862 383.976 L114.862 387.912 L94.9548 387.912 L94.9548 383.976 Z" fill="#4c4c4c" fill-rule="nonzero" fill-opacity="1" /><path clip-path="url(#clip080)" d="M124.306 382.032 L129.191 382.032 L129.191 387.912 L124.306 387.912 L124.306 382.032 Z" fill="#4c4c4c" fill-rule="nonzero" fill-opacity="1" /><path clip-path="url(#clip080)" d="M152.223 357.426 L140.417 375.875 L152.223 375.875 L152.223 357.426 M150.996 353.352 L156.876 353.352 L156.876 375.875 L161.806 375.875 L161.806 379.763 L156.876 379.763 L156.876 387.912 L152.223 387.912 L152.223 379.763 L136.621 379.763 L136.621 375.25 L150.996 353.352 Z" fill="#4c4c4c" fill-rule="nonzero" fill-opacity="1" /><path clip-path="url(#clip080)" d="M48.597 1321.32 L67.5031 1321.32 L67.5031 1327.21 L18.2962 1327.21 L18.2962 1321.32 L23.7071 1321.32 Q20.5242 1319.47 18.9964 1316.67 Q17.4368 1313.84 17.4368 1309.93 Q17.4368 1303.43 22.5931 1299.39 Q27.7493 1295.32 36.152 1295.32 Q44.5547 1295.32 49.711 1299.39 Q54.8672 1303.43 54.8672 1309.93 Q54.8672 1313.84 53.3394 1316.67 Q51.7798 1319.47 48.597 1321.32 M36.152 1301.4 Q29.6908 1301.4 26.0305 1304.07 Q22.3384 1306.71 22.3384 1311.36 Q22.3384 1316 26.0305 1318.68 Q29.6908 1321.32 36.152 1321.32 Q42.6132 1321.32 46.3053 1318.68 Q49.9656 1316 49.9656 1311.36 Q49.9656 1306.71 46.3053 1304.07 Q42.6132 1301.4 36.152 1301.4 Z" fill="#000000" fill-rule="nonzero" fill-opacity="1" /><path clip-path="url(#clip080)" d="M22.4021 1271.79 Q22.4021 1276.51 26.0942 1279.24 Q29.7545 1281.98 36.152 1281.98 Q42.5495 1281.98 46.2417 1279.27 Q49.9019 1276.54 49.9019 1271.79 Q49.9019 1267.12 46.2098 1264.38 Q42.5177 1261.64 36.152 1261.64 Q29.8181 1261.64 26.126 1264.38 Q22.4021 1267.12 22.4021 1271.79 M17.4368 1271.79 Q17.4368 1264.16 22.4021 1259.8 Q27.3673 1255.43 36.152 1255.43 Q44.9049 1255.43 49.9019 1259.8 Q54.8672 1264.16 54.8672 1271.79 Q54.8672 1279.47 49.9019 1283.83 Q44.9049 1288.15 36.152 1288.15 Q27.3673 1288.15 22.4021 1283.83 Q17.4368 1279.47 17.4368 1271.79 Z" fill="#000000" fill-rule="nonzero" fill-opacity="1" /><path clip-path="url(#clip080)" d="M48.597 1240.06 L67.5031 1240.06 L67.5031 1245.95 L18.2962 1245.95 L18.2962 1240.06 L23.7071 1240.06 Q20.5242 1238.22 18.9964 1235.41 Q17.4368 1232.58 17.4368 1228.67 Q17.4368 1222.17 22.5931 1218.13 Q27.7493 1214.06 36.152 1214.06 Q44.5547 1214.06 49.711 1218.13 Q54.8672 1222.17 54.8672 1228.67 Q54.8672 1232.58 53.3394 1235.41 Q51.7798 1238.22 48.597 1240.06 M36.152 1220.14 Q29.6908 1220.14 26.0305 1222.81 Q22.3384 1225.45 22.3384 1230.1 Q22.3384 1234.75 26.0305 1237.42 Q29.6908 1240.06 36.152 1240.06 Q42.6132 1240.06 46.3053 1237.42 Q49.9656 1234.75 49.9656 1230.1 Q49.9656 1225.45 46.3053 1222.81 Q42.6132 1220.14 36.152 1220.14 Z" fill="#000000" fill-rule="nonzero" fill-opacity="1" /><path clip-path="url(#clip080)" d="M39.8759 1204.95 L18.2962 1204.95 L18.2962 1199.1 L39.6531 1199.1 Q44.7139 1199.1 47.2602 1197.12 Q49.7746 1195.15 49.7746 1191.2 Q49.7746 1186.46 46.7509 1183.72 Q43.7272 1180.96 38.5073 1180.96 L18.2962 1180.96 L18.2962 1175.1 L53.9442 1175.1 L53.9442 1180.96 L48.4696 1180.96 Q51.7162 1183.09 53.3076 1185.92 Q54.8672 1188.72 54.8672 1192.45 Q54.8672 1198.59 51.0478 1201.77 Q47.2283 1204.95 39.8759 1204.95 M17.4368 1190.22 L17.4368 1190.22 Z" fill="#000000" fill-rule="nonzero" fill-opacity="1" /><path clip-path="url(#clip080)" d="M4.41896 1163.04 L4.41896 1157.18 L53.9442 1157.18 L53.9442 1163.04 L4.41896 1163.04 Z" fill="#000000" fill-rule="nonzero" fill-opacity="1" /><path clip-path="url(#clip080)" d="M36.0247 1128.73 Q36.0247 1135.82 37.6479 1138.56 Q39.2712 1141.3 43.1861 1141.3 Q46.3053 1141.3 48.1514 1139.26 Q49.9656 1137.19 49.9656 1133.66 Q49.9656 1128.79 46.5281 1125.86 Q43.0588 1122.9 37.3297 1122.9 L36.0247 1122.9 L36.0247 1128.73 M33.6057 1117.04 L53.9442 1117.04 L53.9442 1122.9 L48.5333 1122.9 Q51.7798 1124.91 53.3394 1127.9 Q54.8672 1130.89 54.8672 1135.22 Q54.8672 1140.69 51.8116 1143.94 Q48.7243 1147.15 43.5681 1147.15 Q37.5525 1147.15 34.4969 1143.14 Q31.4414 1139.1 31.4414 1131.11 L31.4414 1122.9 L30.8685 1122.9 Q26.8262 1122.9 24.6301 1125.57 Q22.4021 1128.22 22.4021 1133.02 Q22.4021 1136.08 23.1341 1138.97 Q23.8662 1141.87 25.3303 1144.54 L19.9195 1144.54 Q18.6781 1141.33 18.0734 1138.31 Q17.4368 1135.28 17.4368 1132.42 Q17.4368 1124.68 21.4472 1120.86 Q25.4576 1117.04 33.6057 1117.04 Z" fill="#000000" fill-rule="nonzero" fill-opacity="1" /><path clip-path="url(#clip080)" d="M19.6648 1079.33 L25.1393 1079.33 Q23.7707 1081.81 23.1023 1084.32 Q22.4021 1086.81 22.4021 1089.35 Q22.4021 1095.05 26.0305 1098.2 Q29.6272 1101.35 36.152 1101.35 Q42.6769 1101.35 46.3053 1098.2 Q49.9019 1095.05 49.9019 1089.35 Q49.9019 1086.81 49.2335 1084.32 Q48.5333 1081.81 47.1647 1079.33 L52.5755 1079.33 Q53.7214 1081.78 54.2943 1084.42 Q54.8672 1087.03 54.8672 1089.99 Q54.8672 1098.04 49.8064 1102.78 Q44.7457 1107.53 36.152 1107.53 Q27.431 1107.53 22.4339 1102.75 Q17.4368 1097.95 17.4368 1089.61 Q17.4368 1086.9 18.0097 1084.32 Q18.5508 1081.75 19.6648 1079.33 M53.9442 1087.6 Q55.9175 1085.85 57.5726 1084.99 Q59.2595 1084.13 60.7873 1084.13 Q63.62 1084.13 65.0523 1086.04 Q66.5164 1087.95 66.5164 1091.71 Q66.5164 1093.17 66.3255 1094.57 Q66.1345 1095.94 65.7525 1097.31 L61.583 1097.31 Q62.1241 1096.23 62.3469 1095.05 Q62.6015 1093.87 62.6015 1092.38 Q62.6015 1090.5 61.8376 1089.54 Q61.0737 1088.59 59.6096 1088.59 Q58.6548 1088.59 57.2543 1089.29 Q55.8857 1089.96 53.9442 1091.39 L53.9442 1087.6 Z" fill="#000000" fill-rule="nonzero" fill-opacity="1" /><path clip-path="url(#clip080)" d="M36.0247 1052.94 Q36.0247 1060.04 37.6479 1062.78 Q39.2712 1065.51 43.1861 1065.51 Q46.3053 1065.51 48.1514 1063.48 Q49.9656 1061.41 49.9656 1057.87 Q49.9656 1053.01 46.5281 1050.08 Q43.0588 1047.12 37.3297 1047.12 L36.0247 1047.12 L36.0247 1052.94 M33.6057 1041.26 L53.9442 1041.26 L53.9442 1047.12 L48.5333 1047.12 Q51.7798 1049.12 53.3394 1052.11 Q54.8672 1055.11 54.8672 1059.43 Q54.8672 1064.91 51.8116 1068.16 Q48.7243 1071.37 43.5681 1071.37 Q37.5525 1071.37 34.4969 1067.36 Q31.4414 1063.32 31.4414 1055.33 L31.4414 1047.12 L30.8685 1047.12 Q26.8262 1047.12 24.6301 1049.79 Q22.4021 1052.43 22.4021 1057.24 Q22.4021 1060.29 23.1341 1063.19 Q23.8662 1066.09 25.3303 1068.76 L19.9195 1068.76 Q18.6781 1065.55 18.0734 1062.52 Q17.4368 1059.5 17.4368 1056.63 Q17.4368 1048.9 21.4472 1045.08 Q25.4576 1041.26 33.6057 1041.26 M10.3391 1056.51 L8.5885 1058.32 Q7.95193 1059.02 7.66547 1059.56 Q7.34718 1060.07 7.34718 1060.48 Q7.34718 1061.69 8.52484 1062.27 Q9.67067 1062.84 12.2806 1062.9 L12.2806 1066.88 Q7.98376 1066.82 5.66027 1065.2 Q3.30496 1063.57 3.30496 1060.68 Q3.30496 1059.47 3.75056 1058.45 Q4.19616 1057.43 5.2465 1056.25 L6.99707 1054.44 Q7.63364 1053.74 7.95193 1053.23 Q8.23838 1052.69 8.23838 1052.27 Q8.23838 1051.06 7.09256 1050.49 Q5.9149 1049.92 3.30496 1049.85 L3.30496 1045.88 Q7.60181 1045.94 9.95712 1047.56 Q12.2806 1049.19 12.2806 1052.08 Q12.2806 1053.29 11.835 1054.31 Q11.3894 1055.33 10.3391 1056.51 Z" fill="#000000" fill-rule="nonzero" fill-opacity="1" /><path clip-path="url(#clip080)" d="M22.4021 1015.38 Q22.4021 1020.09 26.0942 1022.83 Q29.7545 1025.57 36.152 1025.57 Q42.5495 1025.57 46.2417 1022.86 Q49.9019 1020.13 49.9019 1015.38 Q49.9019 1010.71 46.2098 1007.97 Q42.5177 1005.23 36.152 1005.23 Q29.8181 1005.23 26.126 1007.97 Q22.4021 1010.71 22.4021 1015.38 M17.4368 1015.38 Q17.4368 1007.74 22.4021 1003.38 Q27.3673 999.024 36.152 999.024 Q44.9049 999.024 49.9019 1003.38 Q54.8672 1007.74 54.8672 1015.38 Q54.8672 1023.05 49.9019 1027.42 Q44.9049 1031.74 36.152 1031.74 Q27.3673 1031.74 22.4021 1027.42 Q17.4368 1023.05 17.4368 1015.38 Z" fill="#000000" fill-rule="nonzero" fill-opacity="1" /><path clip-path="url(#clip080)" d="M972.365 23.3193 L979.136 23.3193 L991.288 55.958 L1003.44 23.3193 L1010.21 23.3193 L995.629 62.208 L986.948 62.208 L972.365 23.3193 Z" fill="#000000" fill-rule="nonzero" fill-opacity="1" /><path clip-path="url(#clip080)" d="M1036.7 42.6595 Q1028.96 42.6595 1025.98 44.4303 Q1022.99 46.2011 1022.99 50.472 Q1022.99 53.8747 1025.21 55.8886 Q1027.47 57.8677 1031.32 57.8677 Q1036.64 57.8677 1039.83 54.1178 Q1043.06 50.3331 1043.06 44.0831 L1043.06 42.6595 L1036.7 42.6595 M1049.45 40.0206 L1049.45 62.208 L1043.06 62.208 L1043.06 56.3053 Q1040.87 59.8469 1037.61 61.5483 Q1034.34 63.2149 1029.62 63.2149 Q1023.65 63.2149 1020.11 59.8816 Q1016.6 56.5136 1016.6 50.8886 Q1016.6 44.3262 1020.98 40.9928 Q1025.39 37.6595 1034.1 37.6595 L1043.06 37.6595 L1043.06 37.0345 Q1043.06 32.6248 1040.14 30.229 Q1037.26 27.7985 1032.02 27.7985 Q1028.68 27.7985 1025.52 28.5971 Q1022.36 29.3957 1019.45 30.9929 L1019.45 25.0901 Q1022.95 23.736 1026.25 23.0763 Q1029.55 22.3818 1032.68 22.3818 Q1041.11 22.3818 1045.28 26.7568 Q1049.45 31.1318 1049.45 40.0206 Z" fill="#000000" fill-rule="nonzero" fill-opacity="1" /><path clip-path="url(#clip080)" d="M1062.61 8.18051 L1069 8.18051 L1069 62.208 L1062.61 62.208 L1062.61 8.18051 Z" fill="#000000" fill-rule="nonzero" fill-opacity="1" /><path clip-path="url(#clip080)" d="M1097.43 27.7985 Q1092.29 27.7985 1089.31 31.8262 Q1086.32 35.8193 1086.32 42.7984 Q1086.32 49.7775 1089.27 53.8053 Q1092.26 57.7983 1097.43 57.7983 Q1102.54 57.7983 1105.52 53.7705 Q1108.51 49.7428 1108.51 42.7984 Q1108.51 35.8887 1105.52 31.8609 Q1102.54 27.7985 1097.43 27.7985 M1097.43 22.3818 Q1105.77 22.3818 1110.52 27.7985 Q1115.28 33.2151 1115.28 42.7984 Q1115.28 52.3469 1110.52 57.7983 Q1105.77 63.2149 1097.43 63.2149 Q1089.07 63.2149 1084.31 57.7983 Q1079.59 52.3469 1079.59 42.7984 Q1079.59 33.2151 1084.31 27.7985 Q1089.07 22.3818 1097.43 22.3818 Z" fill="#000000" fill-rule="nonzero" fill-opacity="1" /><path clip-path="url(#clip080)" d="M1148.41 29.2915 Q1147.33 28.6665 1146.04 28.3887 Q1144.79 28.0762 1143.27 28.0762 Q1137.85 28.0762 1134.93 31.6179 Q1132.05 35.1248 1132.05 41.722 L1132.05 62.208 L1125.63 62.208 L1125.63 23.3193 L1132.05 23.3193 L1132.05 29.361 Q1134.07 25.8193 1137.29 24.1179 Q1140.52 22.3818 1145.14 22.3818 Q1145.8 22.3818 1146.6 22.486 Q1147.4 22.5554 1148.37 22.729 L1148.41 29.2915 Z" fill="#000000" fill-rule="nonzero" fill-opacity="1" /><path clip-path="url(#clip080)" d="M1210.97 41.1664 L1210.97 44.2914 L1181.6 44.2914 Q1182.02 50.8886 1185.56 54.3608 Q1189.13 57.7983 1195.49 57.7983 Q1199.17 57.7983 1202.61 56.8955 Q1206.08 55.9928 1209.48 54.1872 L1209.48 60.2288 Q1206.04 61.6872 1202.43 62.4511 Q1198.82 63.2149 1195.11 63.2149 Q1185.8 63.2149 1180.35 57.7983 Q1174.93 52.3817 1174.93 43.1456 Q1174.93 33.597 1180.07 28.0068 Q1185.25 22.3818 1194 22.3818 Q1201.84 22.3818 1206.39 27.4512 Q1210.97 32.4859 1210.97 41.1664 M1204.59 39.2915 Q1204.52 34.0484 1201.63 30.9234 Q1198.79 27.7985 1194.07 27.7985 Q1188.72 27.7985 1185.49 30.8193 Q1182.29 33.8401 1181.81 39.3262 L1204.59 39.2915 Z" fill="#000000" fill-rule="nonzero" fill-opacity="1" /><path clip-path="url(#clip080)" d="M1246.25 24.4651 L1246.25 30.5068 Q1243.54 29.1179 1240.63 28.4235 Q1237.71 27.729 1234.59 27.729 Q1229.83 27.729 1227.43 29.1873 Q1225.07 30.6457 1225.07 33.5623 Q1225.07 35.7845 1226.77 37.0692 Q1228.47 38.3192 1233.61 39.4651 L1235.8 39.9512 Q1242.61 41.4095 1245.45 44.0831 Q1248.34 46.722 1248.34 51.4789 Q1248.34 56.8955 1244.03 60.0552 Q1239.76 63.2149 1232.26 63.2149 Q1229.13 63.2149 1225.73 62.5899 Q1222.36 61.9997 1218.61 60.7844 L1218.61 54.1872 Q1222.16 56.0275 1225.59 56.965 Q1229.03 57.8677 1232.4 57.8677 Q1236.91 57.8677 1239.34 56.34 Q1241.77 54.7775 1241.77 51.965 Q1241.77 49.3608 1240 47.972 Q1238.27 46.5831 1232.33 45.2984 L1230.11 44.7775 Q1224.17 43.5275 1221.53 40.9581 Q1218.89 38.354 1218.89 33.8401 Q1218.89 28.354 1222.78 25.3679 Q1226.67 22.3818 1233.82 22.3818 Q1237.36 22.3818 1240.49 22.9027 Q1243.61 23.4235 1246.25 24.4651 Z" fill="#000000" fill-rule="nonzero" fill-opacity="1" /><path clip-path="url(#clip080)" d="M1264.69 56.3747 L1264.69 76.9996 L1258.27 76.9996 L1258.27 23.3193 L1264.69 23.3193 L1264.69 29.2221 Q1266.7 25.7499 1269.76 24.0832 Q1272.85 22.3818 1277.12 22.3818 Q1284.2 22.3818 1288.61 28.0068 Q1293.06 33.6318 1293.06 42.7984 Q1293.06 51.965 1288.61 57.59 Q1284.2 63.2149 1277.12 63.2149 Q1272.85 63.2149 1269.76 61.5483 Q1266.7 59.8469 1264.69 56.3747 M1286.43 42.7984 Q1286.43 35.7498 1283.51 31.7568 Q1280.63 27.729 1275.56 27.729 Q1270.49 27.729 1267.57 31.7568 Q1264.69 35.7498 1264.69 42.7984 Q1264.69 49.847 1267.57 53.8747 Q1270.49 57.8677 1275.56 57.8677 Q1280.63 57.8677 1283.51 53.8747 Q1286.43 49.847 1286.43 42.7984 Z" fill="#000000" fill-rule="nonzero" fill-opacity="1" /><path clip-path="url(#clip080)" d="M1336.91 41.1664 L1336.91 44.2914 L1307.54 44.2914 Q1307.95 50.8886 1311.49 54.3608 Q1315.07 57.7983 1321.43 57.7983 Q1325.11 57.7983 1328.54 56.8955 Q1332.02 55.9928 1335.42 54.1872 L1335.42 60.2288 Q1331.98 61.6872 1328.37 62.4511 Q1324.76 63.2149 1321.04 63.2149 Q1311.74 63.2149 1306.29 57.7983 Q1300.87 52.3817 1300.87 43.1456 Q1300.87 33.597 1306.01 28.0068 Q1311.18 22.3818 1319.93 22.3818 Q1327.78 22.3818 1332.33 27.4512 Q1336.91 32.4859 1336.91 41.1664 M1330.52 39.2915 Q1330.45 34.0484 1327.57 30.9234 Q1324.72 27.7985 1320 27.7985 Q1314.65 27.7985 1311.43 30.8193 Q1308.23 33.8401 1307.74 39.3262 L1330.52 39.2915 Z" fill="#000000" fill-rule="nonzero" fill-opacity="1" /><path clip-path="url(#clip080)" d="M1369.93 29.2915 Q1368.86 28.6665 1367.57 28.3887 Q1366.32 28.0762 1364.79 28.0762 Q1359.38 28.0762 1356.46 31.6179 Q1353.58 35.1248 1353.58 41.722 L1353.58 62.208 L1347.15 62.208 L1347.15 23.3193 L1353.58 23.3193 L1353.58 29.361 Q1355.59 25.8193 1358.82 24.1179 Q1362.05 22.3818 1366.67 22.3818 Q1367.33 22.3818 1368.13 22.486 Q1368.93 22.5554 1369.9 22.729 L1369.93 29.2915 Z" fill="#000000" fill-rule="nonzero" fill-opacity="1" /><path clip-path="url(#clip080)" d="M1394.31 42.6595 Q1386.56 42.6595 1383.58 44.4303 Q1380.59 46.2011 1380.59 50.472 Q1380.59 53.8747 1382.81 55.8886 Q1385.07 57.8677 1388.93 57.8677 Q1394.24 57.8677 1397.43 54.1178 Q1400.66 50.3331 1400.66 44.0831 L1400.66 42.6595 L1394.31 42.6595 M1407.05 40.0206 L1407.05 62.208 L1400.66 62.208 L1400.66 56.3053 Q1398.47 59.8469 1395.21 61.5483 Q1391.95 63.2149 1387.22 63.2149 Q1381.25 63.2149 1377.71 59.8816 Q1374.2 56.5136 1374.2 50.8886 Q1374.2 44.3262 1378.58 40.9928 Q1382.99 37.6595 1391.7 37.6595 L1400.66 37.6595 L1400.66 37.0345 Q1400.66 32.6248 1397.74 30.229 Q1394.86 27.7985 1389.62 27.7985 Q1386.29 27.7985 1383.13 28.5971 Q1379.97 29.3957 1377.05 30.9929 L1377.05 25.0901 Q1380.56 23.736 1383.86 23.0763 Q1387.15 22.3818 1390.28 22.3818 Q1398.72 22.3818 1402.88 26.7568 Q1407.05 31.1318 1407.05 40.0206 Z" fill="#000000" fill-rule="nonzero" fill-opacity="1" /><path clip-path="url(#clip080)" d="M1445.8 29.2221 L1445.8 8.18051 L1452.19 8.18051 L1452.19 62.208 L1445.8 62.208 L1445.8 56.3747 Q1443.79 59.8469 1440.7 61.5483 Q1437.64 63.2149 1433.33 63.2149 Q1426.29 63.2149 1421.84 57.59 Q1417.43 51.965 1417.43 42.7984 Q1417.43 33.6318 1421.84 28.0068 Q1426.29 22.3818 1433.33 22.3818 Q1437.64 22.3818 1440.7 24.0832 Q1443.79 25.7499 1445.8 29.2221 M1424.03 42.7984 Q1424.03 49.847 1426.91 53.8747 Q1429.83 57.8677 1434.9 57.8677 Q1439.97 57.8677 1442.88 53.8747 Q1445.8 49.847 1445.8 42.7984 Q1445.8 35.7498 1442.88 31.7568 Q1439.97 27.729 1434.9 27.729 Q1429.83 27.729 1426.91 31.7568 Q1424.03 35.7498 1424.03 42.7984 Z" fill="#000000" fill-rule="nonzero" fill-opacity="1" /><path clip-path="url(#clip080)" d="M1480.42 27.7985 Q1475.28 27.7985 1472.29 31.8262 Q1469.31 35.8193 1469.31 42.7984 Q1469.31 49.7775 1472.26 53.8053 Q1475.24 57.7983 1480.42 57.7983 Q1485.52 57.7983 1488.51 53.7705 Q1491.49 49.7428 1491.49 42.7984 Q1491.49 35.8887 1488.51 31.8609 Q1485.52 27.7985 1480.42 27.7985 M1480.42 22.3818 Q1488.75 22.3818 1493.51 27.7985 Q1498.26 33.2151 1498.26 42.7984 Q1498.26 52.3469 1493.51 57.7983 Q1488.75 63.2149 1480.42 63.2149 Q1472.05 63.2149 1467.29 57.7983 Q1462.57 52.3469 1462.57 42.7984 Q1462.57 33.2151 1467.29 27.7985 Q1472.05 22.3818 1480.42 22.3818 Z" fill="#000000" fill-rule="nonzero" fill-opacity="1" /><path clip-path="url(#clip080)" d="M1564.72 41.1664 L1564.72 44.2914 L1535.35 44.2914 Q1535.76 50.8886 1539.31 54.3608 Q1542.88 57.7983 1549.24 57.7983 Q1552.92 57.7983 1556.35 56.8955 Q1559.83 55.9928 1563.23 54.1872 L1563.23 60.2288 Q1559.79 61.6872 1556.18 62.4511 Q1552.57 63.2149 1548.85 63.2149 Q1539.55 63.2149 1534.1 57.7983 Q1528.68 52.3817 1528.68 43.1456 Q1528.68 33.597 1533.82 28.0068 Q1538.99 22.3818 1547.74 22.3818 Q1555.59 22.3818 1560.14 27.4512 Q1564.72 32.4859 1564.72 41.1664 M1558.33 39.2915 Q1558.26 34.0484 1555.38 30.9234 Q1552.54 27.7985 1547.81 27.7985 Q1542.47 27.7985 1539.24 30.8193 Q1536.04 33.8401 1535.56 39.3262 L1558.33 39.2915 Z" fill="#000000" fill-rule="nonzero" fill-opacity="1" /><path clip-path="url(#clip080)" d="M1597.81 23.3193 L1604.2 23.3193 L1604.2 62.208 L1597.81 62.208 L1597.81 23.3193 M1597.81 8.18051 L1604.2 8.18051 L1604.2 16.2707 L1597.81 16.2707 L1597.81 8.18051 Z" fill="#000000" fill-rule="nonzero" fill-opacity="1" /><path clip-path="url(#clip080)" d="M1649.9 38.7359 L1649.9 62.208 L1643.51 62.208 L1643.51 38.9442 Q1643.51 33.4234 1641.35 30.6804 Q1639.2 27.9374 1634.9 27.9374 Q1629.72 27.9374 1626.74 31.2359 Q1623.75 34.5345 1623.75 40.229 L1623.75 62.208 L1617.33 62.208 L1617.33 23.3193 L1623.75 23.3193 L1623.75 29.361 Q1626.04 25.854 1629.13 24.1179 Q1632.26 22.3818 1636.32 22.3818 Q1643.02 22.3818 1646.46 26.5485 Q1649.9 30.6804 1649.9 38.7359 Z" fill="#000000" fill-rule="nonzero" fill-opacity="1" /><path clip-path="url(#clip080)" d="M1668.96 12.2777 L1668.96 23.3193 L1682.12 23.3193 L1682.12 28.2846 L1668.96 28.2846 L1668.96 49.3956 Q1668.96 54.1525 1670.24 55.5066 Q1671.56 56.8608 1675.56 56.8608 L1682.12 56.8608 L1682.12 62.208 L1675.56 62.208 Q1668.16 62.208 1665.35 59.465 Q1662.53 56.6872 1662.53 49.3956 L1662.53 28.2846 L1657.85 28.2846 L1657.85 23.3193 L1662.53 23.3193 L1662.53 12.2777 L1668.96 12.2777 Z" fill="#000000" fill-rule="nonzero" fill-opacity="1" /><path clip-path="url(#clip080)" d="M1723.78 41.1664 L1723.78 44.2914 L1694.41 44.2914 Q1694.83 50.8886 1698.37 54.3608 Q1701.94 57.7983 1708.3 57.7983 Q1711.98 57.7983 1715.42 56.8955 Q1718.89 55.9928 1722.29 54.1872 L1722.29 60.2288 Q1718.85 61.6872 1715.24 62.4511 Q1711.63 63.2149 1707.92 63.2149 Q1698.61 63.2149 1693.16 57.7983 Q1687.74 52.3817 1687.74 43.1456 Q1687.74 33.597 1692.88 28.0068 Q1698.06 22.3818 1706.81 22.3818 Q1714.65 22.3818 1719.2 27.4512 Q1723.78 32.4859 1723.78 41.1664 M1717.4 39.2915 Q1717.33 34.0484 1714.44 30.9234 Q1711.6 27.7985 1706.87 27.7985 Q1701.53 27.7985 1698.3 30.8193 Q1695.1 33.8401 1694.62 39.3262 L1717.4 39.2915 Z" fill="#000000" fill-rule="nonzero" fill-opacity="1" /><path clip-path="url(#clip080)" d="M1756.81 29.2915 Q1755.73 28.6665 1754.44 28.3887 Q1753.19 28.0762 1751.67 28.0762 Q1746.25 28.0762 1743.33 31.6179 Q1740.45 35.1248 1740.45 41.722 L1740.45 62.208 L1734.03 62.208 L1734.03 23.3193 L1740.45 23.3193 L1740.45 29.361 Q1742.46 25.8193 1745.69 24.1179 Q1748.92 22.3818 1753.54 22.3818 Q1754.2 22.3818 1755 22.486 Q1755.8 22.5554 1756.77 22.729 L1756.81 29.2915 Z" fill="#000000" fill-rule="nonzero" fill-opacity="1" /><path clip-path="url(#clip080)" d="M1758.92 23.3193 L1765.69 23.3193 L1777.85 55.958 L1790 23.3193 L1796.77 23.3193 L1782.19 62.208 L1773.51 62.208 L1758.92 23.3193 Z" fill="#000000" fill-rule="nonzero" fill-opacity="1" /><path clip-path="url(#clip080)" d="M1823.26 42.6595 Q1815.52 42.6595 1812.53 44.4303 Q1809.55 46.2011 1809.55 50.472 Q1809.55 53.8747 1811.77 55.8886 Q1814.03 57.8677 1817.88 57.8677 Q1823.19 57.8677 1826.39 54.1178 Q1829.62 50.3331 1829.62 44.0831 L1829.62 42.6595 L1823.26 42.6595 M1836.01 40.0206 L1836.01 62.208 L1829.62 62.208 L1829.62 56.3053 Q1827.43 59.8469 1824.17 61.5483 Q1820.9 63.2149 1816.18 63.2149 Q1810.21 63.2149 1806.67 59.8816 Q1803.16 56.5136 1803.16 50.8886 Q1803.16 44.3262 1807.53 40.9928 Q1811.94 37.6595 1820.66 37.6595 L1829.62 37.6595 L1829.62 37.0345 Q1829.62 32.6248 1826.7 30.229 Q1823.82 27.7985 1818.58 27.7985 Q1815.24 27.7985 1812.08 28.5971 Q1808.92 29.3957 1806.01 30.9929 L1806.01 25.0901 Q1809.51 23.736 1812.81 23.0763 Q1816.11 22.3818 1819.24 22.3818 Q1827.67 22.3818 1831.84 26.7568 Q1836.01 31.1318 1836.01 40.0206 Z" fill="#000000" fill-rule="nonzero" fill-opacity="1" /><path clip-path="url(#clip080)" d="M1849.17 8.18051 L1855.55 8.18051 L1855.55 62.208 L1849.17 62.208 L1849.17 8.18051 Z" fill="#000000" fill-rule="nonzero" fill-opacity="1" /><path clip-path="url(#clip080)" d="M1883.99 27.7985 Q1878.85 27.7985 1875.87 31.8262 Q1872.88 35.8193 1872.88 42.7984 Q1872.88 49.7775 1875.83 53.8053 Q1878.82 57.7983 1883.99 57.7983 Q1889.1 57.7983 1892.08 53.7705 Q1895.07 49.7428 1895.07 42.7984 Q1895.07 35.8887 1892.08 31.8609 Q1889.1 27.7985 1883.99 27.7985 M1883.99 22.3818 Q1892.33 22.3818 1897.08 27.7985 Q1901.84 33.2151 1901.84 42.7984 Q1901.84 52.3469 1897.08 57.7983 Q1892.33 63.2149 1883.99 63.2149 Q1875.62 63.2149 1870.87 57.7983 Q1866.14 52.3469 1866.14 42.7984 Q1866.14 33.2151 1870.87 27.7985 Q1875.62 22.3818 1883.99 22.3818 Z" fill="#000000" fill-rule="nonzero" fill-opacity="1" /><path clip-path="url(#clip080)" d="M1937.22 24.4651 L1937.22 30.5068 Q1934.51 29.1179 1931.6 28.4235 Q1928.68 27.729 1925.55 27.729 Q1920.8 27.729 1918.4 29.1873 Q1916.04 30.6457 1916.04 33.5623 Q1916.04 35.7845 1917.74 37.0692 Q1919.44 38.3192 1924.58 39.4651 L1926.77 39.9512 Q1933.57 41.4095 1936.42 44.0831 Q1939.3 46.722 1939.3 51.4789 Q1939.3 56.8955 1935 60.0552 Q1930.73 63.2149 1923.23 63.2149 Q1920.1 63.2149 1916.7 62.5899 Q1913.33 61.9997 1909.58 60.7844 L1909.58 54.1872 Q1913.12 56.0275 1916.56 56.965 Q1920 57.8677 1923.37 57.8677 Q1927.88 57.8677 1930.31 56.34 Q1932.74 54.7775 1932.74 51.965 Q1932.74 49.3608 1930.97 47.972 Q1929.23 46.5831 1923.3 45.2984 L1921.08 44.7775 Q1915.14 43.5275 1912.5 40.9581 Q1909.86 38.354 1909.86 33.8401 Q1909.86 28.354 1913.75 25.3679 Q1917.64 22.3818 1924.79 22.3818 Q1928.33 22.3818 1931.46 22.9027 Q1934.58 23.4235 1937.22 24.4651 Z" fill="#000000" fill-rule="nonzero" fill-opacity="1" /><path clip-path="url(#clip080)" d="M1997.67 29.2221 L1997.67 8.18051 L2004.06 8.18051 L2004.06 62.208 L1997.67 62.208 L1997.67 56.3747 Q1995.66 59.8469 1992.57 61.5483 Q1989.51 63.2149 1985.21 63.2149 Q1978.16 63.2149 1973.71 57.59 Q1969.3 51.965 1969.3 42.7984 Q1969.3 33.6318 1973.71 28.0068 Q1978.16 22.3818 1985.21 22.3818 Q1989.51 22.3818 1992.57 24.0832 Q1995.66 25.7499 1997.67 29.2221 M1975.9 42.7984 Q1975.9 49.847 1978.78 53.8747 Q1981.7 57.8677 1986.77 57.8677 Q1991.84 57.8677 1994.76 53.8747 Q1997.67 49.847 1997.67 42.7984 Q1997.67 35.7498 1994.76 31.7568 Q1991.84 27.729 1986.77 27.729 Q1981.7 27.729 1978.78 31.7568 Q1975.9 35.7498 1975.9 42.7984 Z" fill="#000000" fill-rule="nonzero" fill-opacity="1" /><path clip-path="url(#clip080)" d="M2050.48 41.1664 L2050.48 44.2914 L2021.11 44.2914 Q2021.53 50.8886 2025.07 54.3608 Q2028.64 57.7983 2035 57.7983 Q2038.68 57.7983 2042.12 56.8955 Q2045.59 55.9928 2048.99 54.1872 L2048.99 60.2288 Q2045.55 61.6872 2041.94 62.4511 Q2038.33 63.2149 2034.62 63.2149 Q2025.31 63.2149 2019.86 57.7983 Q2014.44 52.3817 2014.44 43.1456 Q2014.44 33.597 2019.58 28.0068 Q2024.76 22.3818 2033.5 22.3818 Q2041.35 22.3818 2045.9 27.4512 Q2050.48 32.4859 2050.48 41.1664 M2044.1 39.2915 Q2044.03 34.0484 2041.14 30.9234 Q2038.3 27.7985 2033.57 27.7985 Q2028.23 27.7985 2025 30.8193 Q2021.8 33.8401 2021.32 39.3262 L2044.1 39.2915 Z" fill="#000000" fill-rule="nonzero" fill-opacity="1" /><path clip-path="url(#clip080)" d="M2111.56 24.8124 L2111.56 30.7846 Q2108.85 29.2915 2106.11 28.5623 Q2103.4 27.7985 2100.62 27.7985 Q2094.41 27.7985 2090.97 31.7568 Q2087.53 35.6804 2087.53 42.7984 Q2087.53 49.9164 2090.97 53.8747 Q2094.41 57.7983 2100.62 57.7983 Q2103.4 57.7983 2106.11 57.0691 Q2108.85 56.3053 2111.56 54.8122 L2111.56 60.715 Q2108.89 61.9649 2106 62.5899 Q2103.16 63.2149 2099.93 63.2149 Q2091.14 63.2149 2085.97 57.6941 Q2080.8 52.1733 2080.8 42.7984 Q2080.8 33.2845 2086 27.8332 Q2091.25 22.3818 2100.34 22.3818 Q2103.3 22.3818 2106.11 23.0068 Q2108.92 23.5971 2111.56 24.8124 Z" fill="#000000" fill-rule="nonzero" fill-opacity="1" /><path clip-path="url(#clip080)" d="M2137.74 27.7985 Q2132.6 27.7985 2129.62 31.8262 Q2126.63 35.8193 2126.63 42.7984 Q2126.63 49.7775 2129.58 53.8053 Q2132.57 57.7983 2137.74 57.7983 Q2142.84 57.7983 2145.83 53.7705 Q2148.82 49.7428 2148.82 42.7984 Q2148.82 35.8887 2145.83 31.8609 Q2142.84 27.7985 2137.74 27.7985 M2137.74 22.3818 Q2146.07 22.3818 2150.83 27.7985 Q2155.59 33.2151 2155.59 42.7984 Q2155.59 52.3469 2150.83 57.7983 Q2146.07 63.2149 2137.74 63.2149 Q2129.37 63.2149 2124.62 57.7983 Q2119.89 52.3469 2119.89 42.7984 Q2119.89 33.2151 2124.62 27.7985 Q2129.37 22.3818 2137.74 22.3818 Z" fill="#000000" fill-rule="nonzero" fill-opacity="1" /><path clip-path="url(#clip080)" d="M2198.5 38.7359 L2198.5 62.208 L2192.12 62.208 L2192.12 38.9442 Q2192.12 33.4234 2189.96 30.6804 Q2187.81 27.9374 2183.5 27.9374 Q2178.33 27.9374 2175.34 31.2359 Q2172.36 34.5345 2172.36 40.229 L2172.36 62.208 L2165.93 62.208 L2165.93 23.3193 L2172.36 23.3193 L2172.36 29.361 Q2174.65 25.854 2177.74 24.1179 Q2180.87 22.3818 2184.93 22.3818 Q2191.63 22.3818 2195.07 26.5485 Q2198.5 30.6804 2198.5 38.7359 Z" fill="#000000" fill-rule="nonzero" fill-opacity="1" /><path clip-path="url(#clip080)" d="M2230.93 8.18051 L2230.93 13.493 L2224.82 13.493 Q2221.39 13.493 2220.03 14.8819 Q2218.71 16.2707 2218.71 19.8818 L2218.71 23.3193 L2229.23 23.3193 L2229.23 28.2846 L2218.71 28.2846 L2218.71 62.208 L2212.29 62.208 L2212.29 28.2846 L2206.18 28.2846 L2206.18 23.3193 L2212.29 23.3193 L2212.29 20.611 Q2212.29 14.118 2215.31 11.1666 Q2218.33 8.18051 2224.89 8.18051 L2230.93 8.18051 Z" fill="#000000" fill-rule="nonzero" fill-opacity="1" /><path clip-path="url(#clip080)" d="M2236.28 23.3193 L2242.67 23.3193 L2242.67 62.208 L2236.28 62.208 L2236.28 23.3193 M2236.28 8.18051 L2242.67 8.18051 L2242.67 16.2707 L2236.28 16.2707 L2236.28 8.18051 Z" fill="#000000" fill-rule="nonzero" fill-opacity="1" /><path clip-path="url(#clip080)" d="M2273.71 42.6595 Q2265.97 42.6595 2262.98 44.4303 Q2260 46.2011 2260 50.472 Q2260 53.8747 2262.22 55.8886 Q2264.48 57.8677 2268.33 57.8677 Q2273.64 57.8677 2276.84 54.1178 Q2280.07 50.3331 2280.07 44.0831 L2280.07 42.6595 L2273.71 42.6595 M2286.45 40.0206 L2286.45 62.208 L2280.07 62.208 L2280.07 56.3053 Q2277.88 59.8469 2274.61 61.5483 Q2271.35 63.2149 2266.63 63.2149 Q2260.66 63.2149 2257.11 59.8816 Q2253.61 56.5136 2253.61 50.8886 Q2253.61 44.3262 2257.98 40.9928 Q2262.39 37.6595 2271.11 37.6595 L2280.07 37.6595 L2280.07 37.0345 Q2280.07 32.6248 2277.15 30.229 Q2274.27 27.7985 2269.02 27.7985 Q2265.69 27.7985 2262.53 28.5971 Q2259.37 29.3957 2256.46 30.9929 L2256.46 25.0901 Q2259.96 23.736 2263.26 23.0763 Q2266.56 22.3818 2269.68 22.3818 Q2278.12 22.3818 2282.29 26.7568 Q2286.45 31.1318 2286.45 40.0206 Z" fill="#000000" fill-rule="nonzero" fill-opacity="1" /><path clip-path="url(#clip080)" d="M2331.94 38.7359 L2331.94 62.208 L2325.55 62.208 L2325.55 38.9442 Q2325.55 33.4234 2323.4 30.6804 Q2321.25 27.9374 2316.94 27.9374 Q2311.77 27.9374 2308.78 31.2359 Q2305.8 34.5345 2305.8 40.229 L2305.8 62.208 L2299.37 62.208 L2299.37 23.3193 L2305.8 23.3193 L2305.8 29.361 Q2308.09 25.854 2311.18 24.1179 Q2314.3 22.3818 2318.36 22.3818 Q2325.07 22.3818 2328.5 26.5485 Q2331.94 30.6804 2331.94 38.7359 Z" fill="#000000" fill-rule="nonzero" fill-opacity="1" /><path clip-path="url(#clip080)" d="M2372.67 24.8124 L2372.67 30.7846 Q2369.96 29.2915 2367.22 28.5623 Q2364.51 27.7985 2361.73 27.7985 Q2355.52 27.7985 2352.08 31.7568 Q2348.64 35.6804 2348.64 42.7984 Q2348.64 49.9164 2352.08 53.8747 Q2355.52 57.7983 2361.73 57.7983 Q2364.51 57.7983 2367.22 57.0691 Q2369.96 56.3053 2372.67 54.8122 L2372.67 60.715 Q2370 61.9649 2367.11 62.5899 Q2364.27 63.2149 2361.04 63.2149 Q2352.25 63.2149 2347.08 57.6941 Q2341.91 52.1733 2341.91 42.7984 Q2341.91 33.2845 2347.11 27.8332 Q2352.36 22.3818 2361.45 22.3818 Q2364.41 22.3818 2367.22 23.0068 Q2370.03 23.5971 2372.67 24.8124 M2363.64 62.208 Q2365.55 64.3608 2366.49 66.1663 Q2367.43 68.0066 2367.43 69.6732 Q2367.43 72.7635 2365.34 74.326 Q2363.26 75.9232 2359.16 75.9232 Q2357.57 75.9232 2356.04 75.7149 Q2354.54 75.5065 2353.05 75.0899 L2353.05 70.5413 Q2354.23 71.1316 2355.52 71.3746 Q2356.8 71.6524 2358.43 71.6524 Q2360.48 71.6524 2361.52 70.8191 Q2362.57 69.9857 2362.57 68.3885 Q2362.57 67.3469 2361.8 65.8191 Q2361.07 64.326 2359.51 62.208 L2363.64 62.208 Z" fill="#000000" fill-rule="nonzero" fill-opacity="1" /><path clip-path="url(#clip080)" d="M2401.45 42.6595 Q2393.71 42.6595 2390.73 44.4303 Q2387.74 46.2011 2387.74 50.472 Q2387.74 53.8747 2389.96 55.8886 Q2392.22 57.8677 2396.07 57.8677 Q2401.38 57.8677 2404.58 54.1178 Q2407.81 50.3331 2407.81 44.0831 L2407.81 42.6595 L2401.45 42.6595 M2414.2 40.0206 L2414.2 62.208 L2407.81 62.208 L2407.81 56.3053 Q2405.62 59.8469 2402.36 61.5483 Q2399.09 63.2149 2394.37 63.2149 Q2388.4 63.2149 2384.86 59.8816 Q2381.35 56.5136 2381.35 50.8886 Q2381.35 44.3262 2385.73 40.9928 Q2390.13 37.6595 2398.85 37.6595 L2407.81 37.6595 L2407.81 37.0345 Q2407.81 32.6248 2404.89 30.229 Q2402.01 27.7985 2396.77 27.7985 Q2393.43 27.7985 2390.27 28.5971 Q2387.11 29.3957 2384.2 30.9929 L2384.2 25.0901 Q2387.7 23.736 2391 23.0763 Q2394.3 22.3818 2397.43 22.3818 Q2405.86 22.3818 2410.03 26.7568 Q2414.2 31.1318 2414.2 40.0206 Z" fill="#000000" fill-rule="nonzero" fill-opacity="1" /><path clip-path="url(#clip082)" d="M316.418 2145.95 L330.256 2125.85 L344.094 2104.64 L357.932 2082.33 L371.769 2058.87 L385.607 2034.26 L399.445 2008.46 L413.283 1981.22 L427.121 1952.83 L440.958 1923.24 L454.796 1892.49 L468.634 1860.5 L482.472 1827.24 L496.31 1792.84 L510.148 1757.46 L523.985 1720.87 L537.823 1683.39 L551.661 1644.84 L565.499 1605.3 L579.337 1565.23 L593.174 1524.58 L607.012 1483.64 L620.85 1442.34 L634.688 1401.06 L648.526 1359.44 L662.364 1317.75 L676.201 1276.48 L690.039 1235.42 L703.877 1194.44 L717.715 1153.49 L731.553 1113.06 L745.39 1073.29 L759.228 1034.83 L773.066 996.466 L786.904 958.92 L800.742 922.385 L814.58 887.037 L828.417 852.766 L842.255 819.609 L856.093 787.609 L869.931 756.672 L883.769 726.853 L897.606 698.432 L911.444 671.327 L925.282 645.43 L939.12 620.729 L952.958 597.146 L966.796 574.61 L980.633 553.107 L994.471 532.614 L1008.31 513.065 L1022.15 494.545 L1035.98 477.155 L1049.82 461.426 L1063.66 446.838 L1077.5 433.169 L1091.34 421.51 L1105.17 409.664 L1119.01 398.222 L1132.85 387.643 L1146.69 378.927 L1160.53 370.633 L1174.36 363.126 L1188.2 356.18 L1202.04 348.989 L1215.88 341.989 L1229.71 335.412 L1243.55 329.205 L1257.39 323.511 L1271.23 319.362 L1285.07 315.55 L1298.9 311.351 L1312.74 307.248 L1326.58 303.429 L1340.42 299.872 L1354.25 296.476 L1368.09 293.302 L1381.93 290.633 L1395.77 288.359 L1409.61 286.132 L1423.44 284.065 L1437.28 282.256 L1451.12 280.593 L1464.96 279.054 L1478.79 277.63 L1492.63 276.312 L1506.47 275.094 L1520.31 273.883 L1534.15 272.677 L1547.98 271.555 L1561.82 270.506 L1575.66 269.526 L1589.5 268.672 L1603.34 267.965 L1617.17 267.307 L1631.01 266.695 L1644.85 266.126 L1658.69 265.598 L1672.52 265.109 L1686.36 264.655 L1700.2 264.236 L1714.04 263.848 L1727.88 263.49 L1741.71 263.158 L1755.55 262.852 L1769.39 262.568 L1783.23 262.304 L1797.06 262.059 L1810.9 261.831 L1824.74 261.619 L1838.58 261.421 L1852.42 261.238 L1866.25 261.067 L1880.09 260.909 L1893.93 260.763 L1907.77 260.627 L1921.61 260.501 L1935.44 260.384 L1949.28 260.275 L1963.12 260.176 L1976.96 260.084 L1990.79 259.999 L2004.63 259.922 L2018.47 259.851 L2032.31 259.786 L2046.15 259.725 L2059.98 259.67 L2073.82 259.618 L2087.66 259.569 L2101.5 259.524 L2115.33 259.481 L2129.17 259.442 L2143.01 259.405 L2156.85 259.371 L2170.69 259.339 L2184.52 259.309 L2198.36 259.281 L2212.2 259.253 L2226.04 259.228 L2239.87 259.204 L2253.71 259.182 L2267.55 259.162 L2281.39 259.143 L2295.23 259.126 L2309.06 259.11 L2322.9 259.096 L2336.74 259.083 L2350.58 259.072 L2364.42 259.061 L2378.25 259.052 L2392.09 259.043 L2405.93 259.036 L2419.77 259.028 L2433.6 259.021 L2447.44 259.015 L2461.28 259.009 L2475.12 259.003 L2488.96 258.998 L2502.79 258.993 L2516.63 258.989 L2530.47 258.984 L2544.31 258.98 L2558.14 258.976 L2571.98 258.973 L2585.82 258.969 L2599.66 258.964 L2613.5 258.961 L2627.33 258.957 L2641.17 258.954 L2655.01 258.95 L2668.85 258.948 L2682.69 258.945 L2696.52 258.943 L2710.36 258.941 L2724.2 258.94 L2738.04 258.938 L2751.87 258.937 L2765.71 258.937 L2779.55 258.936 L2793.39 258.935 L2807.23 258.935 L2821.06 258.935 L2834.9 258.935 L2848.74 258.935 L2862.58 258.934 L2876.41 258.934 L2890.25 258.933 L2904.09 258.933 L2917.93 258.933 L2931.77 258.932 L2945.6 258.932 L2959.44 258.932 L2973.28 258.932 L2987.12 258.932 L3000.96 258.932 L3014.79 258.932 L3028.63 258.932 L3042.47 258.932 L3056.31 258.932 L3070.14 258.931 L3070.14 180.282 L3056.31 180.283 L3042.47 180.283 L3028.63 180.284 L3014.79 180.285 L3000.96 180.286 L2987.12 180.286 L2973.28 180.287 L2959.44 180.288 L2945.6 180.289 L2931.77 180.291 L2917.93 180.292 L2904.09 180.293 L2890.25 180.295 L2876.41 180.296 L2862.58 180.298 L2848.74 180.299 L2834.9 180.3 L2821.06 180.301 L2807.23 180.301 L2793.39 180.301 L2779.55 180.3 L2765.71 180.3 L2751.87 180.299 L2738.04 180.298 L2724.2 180.298 L2710.36 180.297 L2696.52 180.298 L2682.69 180.298 L2668.85 180.299 L2655.01 180.3 L2641.17 180.302 L2627.33 180.305 L2613.5 180.308 L2599.66 180.311 L2585.82 180.316 L2571.98 180.321 L2558.14 180.326 L2544.31 180.333 L2530.47 180.339 L2516.63 180.347 L2502.79 180.355 L2488.96 180.364 L2475.12 180.373 L2461.28 180.383 L2447.44 180.393 L2433.6 180.403 L2419.77 180.414 L2405.93 180.424 L2392.09 180.435 L2378.25 180.445 L2364.42 180.455 L2350.58 180.465 L2336.74 180.477 L2322.9 180.489 L2309.06 180.503 L2295.23 180.518 L2281.39 180.535 L2267.55 180.555 L2253.71 180.576 L2239.87 180.6 L2226.04 180.626 L2212.2 180.656 L2198.36 180.688 L2184.52 180.723 L2170.69 180.761 L2156.85 180.803 L2143.01 180.848 L2129.17 180.896 L2115.33 180.948 L2101.5 181.003 L2087.66 181.062 L2073.82 181.124 L2059.98 181.188 L2046.15 181.254 L2032.31 181.324 L2018.47 181.398 L2004.63 181.478 L1990.79 181.565 L1976.96 181.66 L1963.12 181.764 L1949.28 181.877 L1935.44 182.002 L1921.61 182.138 L1907.77 182.287 L1893.93 182.449 L1880.09 182.625 L1866.25 182.817 L1852.42 183.024 L1838.58 183.248 L1824.74 183.489 L1810.9 183.748 L1797.06 184.025 L1783.23 184.321 L1769.39 184.665 L1755.55 185.035 L1741.71 185.433 L1727.88 185.863 L1714.04 186.327 L1700.2 186.828 L1686.36 187.37 L1672.52 187.957 L1658.69 188.59 L1644.85 189.274 L1631.01 190.013 L1617.17 190.716 L1603.34 191.459 L1589.5 192.257 L1575.66 193.109 L1561.82 194.021 L1547.98 195.001 L1534.15 196.057 L1520.31 197.197 L1506.47 198.42 L1492.63 199.723 L1478.79 201.315 L1464.96 202.918 L1451.12 204.56 L1437.28 206.518 L1423.44 208.83 L1409.61 211.307 L1395.77 213.863 L1381.93 216.306 L1368.09 218.682 L1354.25 221.334 L1340.42 224.656 L1326.58 227.847 L1312.74 231.315 L1298.9 235.269 L1285.07 239.259 L1271.23 243.677 L1257.39 248.372 L1243.55 253.135 L1229.71 258.194 L1215.88 263.504 L1202.04 269.273 L1188.2 275.316 L1174.36 281.997 L1160.53 289.201 L1146.69 296.841 L1132.85 304.818 L1119.01 313.337 L1105.17 322.159 L1091.34 331.491 L1077.5 341.436 L1063.66 352.037 L1049.82 364.021 L1035.98 376.119 L1022.15 389.143 L1008.31 403.623 L994.471 418.88 L980.633 434.431 L966.796 450.583 L952.958 467.382 L939.12 485.165 L925.282 503.915 L911.444 524.068 L897.606 545.479 L883.769 567.864 L869.931 591.458 L856.093 615.996 L842.255 641.859 L828.417 668.919 L814.58 697.203 L800.742 726.522 L786.904 757.092 L773.066 788.386 L759.228 821.085 L745.39 855.971 L731.553 891.338 L717.715 927.201 L703.877 963.901 L690.039 1001.76 L676.201 1040.73 L662.364 1080.47 L648.526 1120.87 L634.688 1161.83 L620.85 1203.08 L607.012 1244.61 L593.174 1286.39 L579.337 1328.27 L565.499 1370.41 L551.661 1412.22 L537.823 1453.59 L523.985 1494.85 L510.148 1535.67 L496.31 1575.93 L482.472 1615.54 L468.634 1654.41 L454.796 1692.45 L440.958 1729.57 L427.121 1765.62 L413.283 1800.64 L399.445 1834.59 L385.607 1867.41 L371.769 1899.07 L357.932 1929.55 L344.094 1958.83 L330.256 1986.91 L316.418 2013.78  Z" fill="#009af9" fill-rule="evenodd" fill-opacity="0.2"/>
<polyline clip-path="url(#clip082)" style="stroke:#009af9; stroke-linecap:round; stroke-linejoin:round; stroke-width:12; stroke-opacity:1; fill:none" points="316.418,2080.06 330.256,2056.36 344.094,2031.48 357.932,2005.4 371.769,1978.11 385.607,1949.62 399.445,1919.87 413.283,1888.88 427.121,1856.65 440.958,1823.25 454.796,1788.71 468.634,1753.17 482.472,1716.7 496.31,1679.28 510.148,1640.98 523.985,1601.89 537.823,1562.07 551.661,1521.65 565.499,1480.72 579.337,1439.4 593.174,1397.54 607.012,1355.47 620.85,1313.33 634.688,1271.23 648.526,1229.55 662.364,1188.49 676.201,1147.29 690.039,1106.17 703.877,1065.82 717.715,1027.25 731.553,989.508 745.39,952.657 759.228,916.729 773.066,881.401 786.904,847.269 800.742,813.163 814.58,780.267 828.417,749.248 842.255,719.464 856.093,691.04 869.931,663.61 883.769,636.493 897.606,610.482 911.444,586.31 925.282,564.692 939.12,543.597 952.958,523.138 966.796,504.018 980.633,485.866 994.471,468.929 1008.31,453.91 1022.15,438.94 1035.98,424.521 1049.82,411.894 1063.66,399.169 1077.5,387.398 1091.34,375.558 1105.17,365.041 1119.01,354.891 1132.85,345.861 1146.69,337.072 1160.53,328.939 1174.36,321.34 1188.2,314.621 1202.04,307.495 1215.88,301.305 1229.71,295.994 1243.55,290.869 1257.39,285.332 1271.23,280.646 1285.07,276.003 1298.9,271.77 1312.74,267.862 1326.58,264.417 1340.42,261.304 1354.25,258.421 1368.09,255.893 1381.93,253.517 1395.77,251.119 1409.61,248.932 1423.44,246.959 1437.28,244.908 1451.12,242.967 1464.96,241.131 1478.79,239.61 1492.63,238.189 1506.47,237.006 1520.31,235.913 1534.15,234.894 1547.98,233.841 1561.82,232.861 1575.66,231.945 1589.5,231.094 1603.34,230.306 1617.17,229.573 1631.01,228.878 1644.85,228.226 1658.69,227.621 1672.52,227.062 1686.36,226.545 1700.2,226.067 1714.04,225.624 1727.88,225.215 1741.71,224.836 1755.55,224.485 1769.39,224.159 1783.23,223.856 1797.06,223.572 1810.9,223.307 1824.74,223.058 1838.58,222.825 1852.42,222.608 1866.25,222.387 1880.09,222.217 1893.93,222.046 1907.77,221.886 1921.61,221.739 1935.44,221.605 1949.28,221.482 1963.12,221.369 1976.96,221.267 1990.79,221.174 2004.63,221.089 2018.47,221.011 2032.31,220.94 2046.15,220.874 2059.98,220.813 2073.82,220.757 2087.66,220.709 2101.5,220.663 2115.33,220.62 2129.17,220.58 2143.01,220.543 2156.85,220.507 2170.69,220.473 2184.52,220.441 2198.36,220.411 2212.2,220.383 2226.04,220.357 2239.87,220.333 2253.71,220.311 2267.55,220.291 2281.39,220.272 2295.23,220.256 2309.06,220.241 2322.9,220.227 2336.74,220.215 2350.58,220.204 2364.42,220.195 2378.25,220.186 2392.09,220.178 2405.93,220.171 2419.77,220.164 2433.6,220.157 2447.44,220.151 2461.28,220.145 2475.12,220.139 2488.96,220.133 2502.79,220.128 2516.63,220.123 2530.47,220.118 2544.31,220.113 2558.14,220.108 2571.98,220.103 2585.82,220.098 2599.66,220.094 2613.5,220.09 2627.33,220.086 2641.17,220.082 2655.01,220.079 2668.85,220.077 2682.69,220.074 2696.52,220.072 2710.36,220.071 2724.2,220.07 2738.04,220.069 2751.87,220.068 2765.71,220.068 2779.55,220.068 2793.39,220.068 2807.23,220.068 2821.06,220.068 2834.9,220.068 2848.74,220.068 2862.58,220.068 2876.41,220.068 2890.25,220.068 2904.09,220.067 2917.93,220.067 2931.77,220.067 2945.6,220.067 2959.44,220.067 2973.28,220.067 2987.12,220.067 3000.96,220.067 3014.79,220.066 3028.63,220.066 3042.47,220.065 3056.31,220.064 3070.14,220.063 "/>
<path clip-path="url(#clip082)" d="M316.418 2131.76 L330.256 2110.99 L344.094 2089.08 L357.932 2065.75 L371.769 2041.22 L385.607 2015.49 L399.445 1988.42 L413.283 1959.9 L427.121 1930.11 L440.958 1899.49 L454.796 1867.71 L468.634 1834.76 L482.472 1800.68 L496.31 1765.52 L510.148 1729.31 L523.985 1692.09 L537.823 1653.82 L551.661 1614.71 L565.499 1574.97 L579.337 1534.79 L593.174 1494.07 L607.012 1452.93 L620.85 1411.47 L634.688 1369.81 L648.526 1328.03 L662.364 1285.71 L676.201 1243.72 L690.039 1202.48 L703.877 1161.26 L717.715 1120.51 L731.553 1080.49 L745.39 1041.62 L759.228 1003.54 L773.066 966.3 L786.904 930.002 L800.742 894.717 L814.58 860.022 L828.417 825.924 L842.255 794.103 L856.093 761.153 L869.931 730.564 L883.769 700.947 L897.606 672.219 L911.444 645.692 L925.282 620.354 L939.12 595.595 L952.958 573.044 L966.796 552.453 L980.633 532.665 L994.471 512.827 L1008.31 494.172 L1022.15 476.876 L1035.98 462.461 L1049.82 446.941 L1063.66 432.497 L1077.5 420.549 L1091.34 407.632 L1105.17 396.095 L1119.01 385.351 L1132.85 374.904 L1146.69 365.6 L1160.53 357.383 L1174.36 349.045 L1188.2 341.439 L1202.04 333.981 L1215.88 327.091 L1229.71 321.22 L1243.55 316.143 L1257.39 310.503 L1271.23 305.426 L1285.07 300.879 L1298.9 296.373 L1312.74 292.502 L1326.58 289.106 L1340.42 285.581 L1354.25 282.237 L1368.09 279.06 L1381.93 276.052 L1395.77 273.628 L1409.61 271.54 L1423.44 269.669 L1437.28 267.432 L1451.12 265.578 L1464.96 263.755 L1478.79 262.068 L1492.63 260.506 L1506.47 259.059 L1520.31 257.873 L1534.15 256.979 L1547.98 256.15 L1561.82 255.38 L1575.66 254.609 L1589.5 253.885 L1603.34 253.21 L1617.17 252.582 L1631.01 251.996 L1644.85 251.451 L1658.69 250.755 L1672.52 250.098 L1686.36 249.487 L1700.2 248.919 L1714.04 248.393 L1727.88 247.905 L1741.71 247.453 L1755.55 247.035 L1769.39 246.682 L1783.23 246.428 L1797.06 246.193 L1810.9 245.975 L1824.74 245.772 L1838.58 245.581 L1852.42 245.4 L1866.25 245.23 L1880.09 245.068 L1893.93 244.915 L1907.77 244.772 L1921.61 244.64 L1935.44 244.518 L1949.28 244.405 L1963.12 244.3 L1976.96 244.204 L1990.79 244.116 L2004.63 244.034 L2018.47 243.959 L2032.31 243.89 L2046.15 243.827 L2059.98 243.769 L2073.82 243.716 L2087.66 243.667 L2101.5 243.622 L2115.33 243.58 L2129.17 243.54 L2143.01 243.501 L2156.85 243.464 L2170.69 243.429 L2184.52 243.395 L2198.36 243.364 L2212.2 243.335 L2226.04 243.308 L2239.87 243.283 L2253.71 243.259 L2267.55 243.238 L2281.39 243.218 L2295.23 243.2 L2309.06 243.184 L2322.9 243.168 L2336.74 243.155 L2350.58 243.143 L2364.42 243.132 L2378.25 243.122 L2392.09 243.114 L2405.93 243.106 L2419.77 243.099 L2433.6 243.093 L2447.44 243.088 L2461.28 243.083 L2475.12 243.078 L2488.96 243.074 L2502.79 243.069 L2516.63 243.064 L2530.47 243.058 L2544.31 243.053 L2558.14 243.047 L2571.98 243.042 L2585.82 243.038 L2599.66 243.033 L2613.5 243.029 L2627.33 243.025 L2641.17 243.021 L2655.01 243.018 L2668.85 243.015 L2682.69 243.012 L2696.52 243.009 L2710.36 243.007 L2724.2 243.005 L2738.04 243.003 L2751.87 243.002 L2765.71 243 L2779.55 243 L2793.39 242.999 L2807.23 242.999 L2821.06 242.999 L2834.9 242.999 L2848.74 242.999 L2862.58 243 L2876.41 243.001 L2890.25 243.001 L2904.09 243.002 L2917.93 243.003 L2931.77 243.003 L2945.6 243.003 L2959.44 243.003 L2973.28 243.003 L2987.12 243.002 L3000.96 243.001 L3014.79 243 L3028.63 242.999 L3042.47 242.999 L3056.31 242.998 L3070.14 242.997 L3070.14 195.72 L3056.31 195.72 L3042.47 195.721 L3028.63 195.722 L3014.79 195.723 L3000.96 195.723 L2987.12 195.724 L2973.28 195.725 L2959.44 195.726 L2945.6 195.728 L2931.77 195.729 L2917.93 195.73 L2904.09 195.731 L2890.25 195.732 L2876.41 195.733 L2862.58 195.733 L2848.74 195.733 L2834.9 195.733 L2821.06 195.733 L2807.23 195.732 L2793.39 195.731 L2779.55 195.73 L2765.71 195.73 L2751.87 195.729 L2738.04 195.729 L2724.2 195.729 L2710.36 195.729 L2696.52 195.73 L2682.69 195.731 L2668.85 195.733 L2655.01 195.735 L2641.17 195.738 L2627.33 195.741 L2613.5 195.745 L2599.66 195.749 L2585.82 195.754 L2571.98 195.759 L2558.14 195.765 L2544.31 195.772 L2530.47 195.778 L2516.63 195.786 L2502.79 195.793 L2488.96 195.801 L2475.12 195.809 L2461.28 195.817 L2447.44 195.826 L2433.6 195.834 L2419.77 195.842 L2405.93 195.85 L2392.09 195.858 L2378.25 195.866 L2364.42 195.875 L2350.58 195.884 L2336.74 195.895 L2322.9 195.907 L2309.06 195.92 L2295.23 195.935 L2281.39 195.952 L2267.55 195.971 L2253.71 195.993 L2239.87 196.016 L2226.04 196.042 L2212.2 196.07 L2198.36 196.101 L2184.52 196.134 L2170.69 196.171 L2156.85 196.21 L2143.01 196.251 L2129.17 196.296 L2115.33 196.343 L2101.5 196.393 L2087.66 196.446 L2073.82 196.5 L2059.98 196.556 L2046.15 196.615 L2032.31 196.679 L2018.47 196.749 L2004.63 196.825 L1990.79 196.908 L1976.96 196.999 L1963.12 197.099 L1949.28 197.209 L1935.44 197.319 L1921.61 197.435 L1907.77 197.562 L1893.93 197.7 L1880.09 197.85 L1866.25 198.014 L1852.42 198.191 L1838.58 198.383 L1824.74 198.59 L1810.9 198.814 L1797.06 199.054 L1783.23 199.312 L1769.39 199.589 L1755.55 199.885 L1741.71 200.2 L1727.88 200.532 L1714.04 200.897 L1700.2 201.293 L1686.36 201.681 L1672.52 202.104 L1658.69 202.701 L1644.85 203.36 L1631.01 204.049 L1617.17 204.732 L1603.34 205.47 L1589.5 206.3 L1575.66 207.201 L1561.82 208.166 L1547.98 209.198 L1534.15 210.418 L1520.31 211.542 L1506.47 212.751 L1492.63 214.058 L1478.79 215.609 L1464.96 217.348 L1451.12 219.232 L1437.28 220.973 L1423.44 222.788 L1409.61 224.747 L1395.77 226.869 L1381.93 229.083 L1368.09 231.559 L1354.25 234.299 L1340.42 237.014 L1326.58 240.171 L1312.74 243.77 L1298.9 247.413 L1285.07 251.465 L1271.23 256 L1257.39 260.492 L1243.55 265.296 L1229.71 270.367 L1215.88 276.07 L1202.04 282.399 L1188.2 288.525 L1174.36 294.969 L1160.53 301.707 L1146.69 309.221 L1132.85 318.041 L1119.01 326.342 L1105.17 335.144 L1091.34 344.426 L1077.5 354.771 L1063.66 365.669 L1049.82 377.159 L1035.98 389.227 L1022.15 401.666 L1008.31 416.156 L994.471 431.065 L980.633 446.939 L966.796 463.798 L952.958 480.857 L939.12 498.531 L925.282 518.413 L911.444 539.075 L897.606 561.439 L883.769 584.266 L869.931 608.715 L856.093 634.367 L842.255 661.04 L828.417 688.255 L814.58 717.23 L800.742 747.76 L786.904 779.453 L773.066 811.645 L759.228 843.679 L745.39 876.003 L731.553 910.939 L717.715 948.456 L703.877 985.499 L690.039 1024.31 L676.201 1064.17 L662.364 1104.73 L648.526 1145.2 L634.688 1186.55 L620.85 1228.57 L607.012 1270.07 L593.174 1311.6 L579.337 1353.2 L565.499 1394.77 L551.661 1435.93 L537.823 1477.04 L523.985 1517.88 L510.148 1558.15 L496.31 1598.13 L482.472 1637.29 L468.634 1675.64 L454.796 1713.13 L440.958 1749.94 L427.121 1785.9 L413.283 1820.35 L399.445 1853.55 L385.607 1885.63 L371.769 1916.57 L357.932 1946.36 L344.094 1975.11 L330.256 2002.64 L316.418 2028.95  Z" fill="#e26f46" fill-rule="evenodd" fill-opacity="0.2"/>
<polyline clip-path="url(#clip082)" style="stroke:#e26f46; stroke-linecap:round; stroke-linejoin:round; stroke-width:12; stroke-opacity:1; fill:none" points="316.418,2080.06 330.256,2056.36 344.094,2031.48 357.932,2005.4 371.769,1978.11 385.607,1949.62 399.445,1919.87 413.283,1888.88 427.121,1856.65 440.958,1823.25 454.796,1788.71 468.634,1753.17 482.472,1716.7 496.31,1679.28 510.148,1640.98 523.985,1601.89 537.823,1562.07 551.661,1521.65 565.499,1480.72 579.337,1439.4 593.174,1397.54 607.012,1355.47 620.85,1313.33 634.688,1271.23 648.526,1229.55 662.364,1188.49 676.201,1147.29 690.039,1106.17 703.877,1065.82 717.715,1027.25 731.553,989.508 745.39,952.657 759.228,916.729 773.066,881.401 786.904,847.269 800.742,813.163 814.58,780.267 828.417,749.248 842.255,719.464 856.093,691.04 869.931,663.61 883.769,636.493 897.606,610.482 911.444,586.31 925.282,564.692 939.12,543.597 952.958,523.138 966.796,504.018 980.633,485.866 994.471,468.929 1008.31,453.91 1022.15,438.94 1035.98,424.521 1049.82,411.894 1063.66,399.169 1077.5,387.398 1091.34,375.558 1105.17,365.041 1119.01,354.891 1132.85,345.861 1146.69,337.072 1160.53,328.939 1174.36,321.34 1188.2,314.621 1202.04,307.495 1215.88,301.305 1229.71,295.994 1243.55,290.869 1257.39,285.332 1271.23,280.646 1285.07,276.003 1298.9,271.77 1312.74,267.862 1326.58,264.417 1340.42,261.304 1354.25,258.421 1368.09,255.893 1381.93,253.517 1395.77,251.119 1409.61,248.932 1423.44,246.959 1437.28,244.908 1451.12,242.967 1464.96,241.131 1478.79,239.61 1492.63,238.189 1506.47,237.006 1520.31,235.913 1534.15,234.894 1547.98,233.841 1561.82,232.861 1575.66,231.945 1589.5,231.094 1603.34,230.306 1617.17,229.573 1631.01,228.878 1644.85,228.226 1658.69,227.621 1672.52,227.062 1686.36,226.545 1700.2,226.067 1714.04,225.624 1727.88,225.215 1741.71,224.836 1755.55,224.485 1769.39,224.159 1783.23,223.856 1797.06,223.572 1810.9,223.307 1824.74,223.058 1838.58,222.825 1852.42,222.608 1866.25,222.387 1880.09,222.217 1893.93,222.046 1907.77,221.886 1921.61,221.739 1935.44,221.605 1949.28,221.482 1963.12,221.369 1976.96,221.267 1990.79,221.174 2004.63,221.089 2018.47,221.011 2032.31,220.94 2046.15,220.874 2059.98,220.813 2073.82,220.757 2087.66,220.709 2101.5,220.663 2115.33,220.62 2129.17,220.58 2143.01,220.543 2156.85,220.507 2170.69,220.473 2184.52,220.441 2198.36,220.411 2212.2,220.383 2226.04,220.357 2239.87,220.333 2253.71,220.311 2267.55,220.291 2281.39,220.272 2295.23,220.256 2309.06,220.241 2322.9,220.227 2336.74,220.215 2350.58,220.204 2364.42,220.195 2378.25,220.186 2392.09,220.178 2405.93,220.171 2419.77,220.164 2433.6,220.157 2447.44,220.151 2461.28,220.145 2475.12,220.139 2488.96,220.133 2502.79,220.128 2516.63,220.123 2530.47,220.118 2544.31,220.113 2558.14,220.108 2571.98,220.103 2585.82,220.098 2599.66,220.094 2613.5,220.09 2627.33,220.086 2641.17,220.082 2655.01,220.079 2668.85,220.077 2682.69,220.074 2696.52,220.072 2710.36,220.071 2724.2,220.07 2738.04,220.069 2751.87,220.068 2765.71,220.068 2779.55,220.068 2793.39,220.068 2807.23,220.068 2821.06,220.068 2834.9,220.068 2848.74,220.068 2862.58,220.068 2876.41,220.068 2890.25,220.068 2904.09,220.067 2917.93,220.067 2931.77,220.067 2945.6,220.067 2959.44,220.067 2973.28,220.067 2987.12,220.067 3000.96,220.067 3014.79,220.066 3028.63,220.066 3042.47,220.065 3056.31,220.064 3070.14,220.063 "/>
<path clip-path="url(#clip080)" d="M2663.79 2135.47 L3055.46 2135.47 L3055.46 1979.95 L2663.79 1979.95  Z" fill="#eaeaea" fill-rule="evenodd" fill-opacity="1"/>
<polyline clip-path="url(#clip080)" style="stroke:#ffffff; stroke-linecap:round; stroke-linejoin:round; stroke-width:4; stroke-opacity:1; fill:none" points="2663.79,2135.47 3055.46,2135.47 3055.46,1979.95 2663.79,1979.95 2663.79,2135.47 "/>
<polyline clip-path="url(#clip080)" style="stroke:#009af9; stroke-linecap:round; stroke-linejoin:round; stroke-width:12; stroke-opacity:1; fill:none" points="2696.23,2031.79 2890.82,2031.79 "/>
<path clip-path="url(#clip080)" d="M2925.48 2048.35 L2925.48 2044.09 Q2927.24 2044.92 2929.04 2045.36 Q2930.85 2045.8 2932.59 2045.8 Q2937.22 2045.8 2939.65 2042.7 Q2942.1 2039.58 2942.45 2033.23 Q2941.1 2035.22 2939.04 2036.29 Q2936.98 2037.35 2934.48 2037.35 Q2929.3 2037.35 2926.27 2034.23 Q2923.26 2031.08 2923.26 2025.64 Q2923.26 2020.32 2926.4 2017.1 Q2929.55 2013.88 2934.78 2013.88 Q2940.78 2013.88 2943.93 2018.49 Q2947.1 2023.07 2947.1 2031.82 Q2947.1 2039.99 2943.21 2044.88 Q2939.34 2049.74 2932.79 2049.74 Q2931.03 2049.74 2929.23 2049.39 Q2927.42 2049.04 2925.48 2048.35 M2934.78 2033.7 Q2937.93 2033.7 2939.76 2031.54 Q2941.61 2029.39 2941.61 2025.64 Q2941.61 2021.91 2939.76 2019.76 Q2937.93 2017.58 2934.78 2017.58 Q2931.64 2017.58 2929.78 2019.76 Q2927.96 2021.91 2927.96 2025.64 Q2927.96 2029.39 2929.78 2031.54 Q2931.64 2033.7 2934.78 2033.7 Z" fill="#000000" fill-rule="nonzero" fill-opacity="1" /><path clip-path="url(#clip080)" d="M2955.55 2014.51 L2973.9 2014.51 L2973.9 2018.44 L2959.83 2018.44 L2959.83 2026.91 Q2960.85 2026.57 2961.87 2026.4 Q2962.89 2026.22 2963.9 2026.22 Q2969.69 2026.22 2973.07 2029.39 Q2976.45 2032.56 2976.45 2037.98 Q2976.45 2043.56 2972.98 2046.66 Q2969.51 2049.74 2963.19 2049.74 Q2961.01 2049.74 2958.74 2049.37 Q2956.5 2049 2954.09 2048.26 L2954.09 2043.56 Q2956.17 2044.69 2958.4 2045.25 Q2960.62 2045.8 2963.09 2045.8 Q2967.1 2045.8 2969.44 2043.7 Q2971.78 2041.59 2971.78 2037.98 Q2971.78 2034.37 2969.44 2032.26 Q2967.1 2030.15 2963.09 2030.15 Q2961.22 2030.15 2959.34 2030.57 Q2957.49 2030.99 2955.55 2031.87 L2955.55 2014.51 Z" fill="#000000" fill-rule="nonzero" fill-opacity="1" /><path clip-path="url(#clip080)" d="M3015.06 2033.86 Q3013.05 2033.86 3011.89 2035.57 Q3010.76 2037.28 3010.76 2040.34 Q3010.76 2043.35 3011.89 2045.08 Q3013.05 2046.8 3015.06 2046.8 Q3017.03 2046.8 3018.16 2045.08 Q3019.32 2043.35 3019.32 2040.34 Q3019.32 2037.31 3018.16 2035.59 Q3017.03 2033.86 3015.06 2033.86 M3015.06 2030.92 Q3018.72 2030.92 3020.87 2033.46 Q3023.02 2036.01 3023.02 2040.34 Q3023.02 2044.67 3020.85 2047.21 Q3018.7 2049.74 3015.06 2049.74 Q3011.36 2049.74 3009.21 2047.21 Q3007.05 2044.67 3007.05 2040.34 Q3007.05 2035.99 3009.21 2033.46 Q3011.38 2030.92 3015.06 2030.92 M2991.17 2016.82 Q2989.18 2016.82 2988.02 2018.56 Q2986.89 2020.27 2986.89 2023.28 Q2986.89 2026.33 2988.02 2028.05 Q2989.16 2029.76 2991.17 2029.76 Q2993.19 2029.76 2994.32 2028.05 Q2995.48 2026.33 2995.48 2023.28 Q2995.48 2020.29 2994.32 2018.56 Q2993.16 2016.82 2991.17 2016.82 M3012.08 2013.88 L3015.78 2013.88 L2994.16 2049.74 L2990.46 2049.74 L3012.08 2013.88 M2991.17 2013.88 Q2994.83 2013.88 2997.01 2016.43 Q2999.18 2018.95 2999.18 2023.28 Q2999.18 2027.65 2997.01 2030.18 Q2994.85 2032.7 2991.17 2032.7 Q2987.49 2032.7 2985.34 2030.18 Q2983.21 2027.63 2983.21 2023.28 Q2983.21 2018.97 2985.36 2016.43 Q2987.52 2013.88 2991.17 2013.88 Z" fill="#000000" fill-rule="nonzero" fill-opacity="1" /><polyline clip-path="url(#clip080)" style="stroke:#e26f46; stroke-linecap:round; stroke-linejoin:round; stroke-width:12; stroke-opacity:1; fill:none" points="2696.23,2083.63 2890.82,2083.63 "/>
<path clip-path="url(#clip080)" d="M2935.59 2081.76 Q2932.45 2081.76 2930.59 2083.92 Q2928.77 2086.07 2928.77 2089.82 Q2928.77 2093.55 2930.59 2095.72 Q2932.45 2097.87 2935.59 2097.87 Q2938.74 2097.87 2940.57 2095.72 Q2942.42 2093.55 2942.42 2089.82 Q2942.42 2086.07 2940.57 2083.92 Q2938.74 2081.76 2935.59 2081.76 M2944.88 2067.11 L2944.88 2071.37 Q2943.12 2070.54 2941.31 2070.1 Q2939.53 2069.66 2937.77 2069.66 Q2933.14 2069.66 2930.69 2072.78 Q2928.26 2075.91 2927.91 2082.23 Q2929.28 2080.21 2931.34 2079.15 Q2933.4 2078.06 2935.87 2078.06 Q2941.08 2078.06 2944.09 2081.23 Q2947.12 2084.38 2947.12 2089.82 Q2947.12 2095.14 2943.97 2098.36 Q2940.83 2101.58 2935.59 2101.58 Q2929.6 2101.58 2926.43 2096.99 Q2923.26 2092.39 2923.26 2083.66 Q2923.26 2075.47 2927.15 2070.61 Q2931.03 2065.72 2937.59 2065.72 Q2939.34 2065.72 2941.13 2066.07 Q2942.93 2066.42 2944.88 2067.11 Z" fill="#000000" fill-rule="nonzero" fill-opacity="1" /><path clip-path="url(#clip080)" d="M2965.18 2084.49 Q2961.84 2084.49 2959.92 2086.28 Q2958.03 2088.06 2958.03 2091.18 Q2958.03 2094.31 2959.92 2096.09 Q2961.84 2097.87 2965.18 2097.87 Q2968.51 2097.87 2970.43 2096.09 Q2972.35 2094.29 2972.35 2091.18 Q2972.35 2088.06 2970.43 2086.28 Q2968.53 2084.49 2965.18 2084.49 M2960.5 2082.5 Q2957.49 2081.76 2955.8 2079.7 Q2954.14 2077.64 2954.14 2074.68 Q2954.14 2070.54 2957.08 2068.13 Q2960.04 2065.72 2965.18 2065.72 Q2970.34 2065.72 2973.28 2068.13 Q2976.22 2070.54 2976.22 2074.68 Q2976.22 2077.64 2974.53 2079.7 Q2972.86 2081.76 2969.88 2082.5 Q2973.26 2083.29 2975.13 2085.58 Q2977.03 2087.87 2977.03 2091.18 Q2977.03 2096.21 2973.95 2098.89 Q2970.9 2101.58 2965.18 2101.58 Q2959.46 2101.58 2956.38 2098.89 Q2953.33 2096.21 2953.33 2091.18 Q2953.33 2087.87 2955.22 2085.58 Q2957.12 2083.29 2960.5 2082.5 M2958.79 2075.12 Q2958.79 2077.8 2960.46 2079.31 Q2962.15 2080.81 2965.18 2080.81 Q2968.19 2080.81 2969.88 2079.31 Q2971.59 2077.8 2971.59 2075.12 Q2971.59 2072.43 2969.88 2070.93 Q2968.19 2069.42 2965.18 2069.42 Q2962.15 2069.42 2960.46 2070.93 Q2958.79 2072.43 2958.79 2075.12 Z" fill="#000000" fill-rule="nonzero" fill-opacity="1" /><path clip-path="url(#clip080)" d="M3014.74 2085.7 Q3012.72 2085.7 3011.57 2087.41 Q3010.43 2089.12 3010.43 2092.18 Q3010.43 2095.19 3011.57 2096.92 Q3012.72 2098.64 3014.74 2098.64 Q3016.71 2098.64 3017.84 2096.92 Q3019 2095.19 3019 2092.18 Q3019 2089.15 3017.84 2087.43 Q3016.71 2085.7 3014.74 2085.7 M3014.74 2082.76 Q3018.4 2082.76 3020.55 2085.3 Q3022.7 2087.85 3022.7 2092.18 Q3022.7 2096.51 3020.52 2099.05 Q3018.37 2101.58 3014.74 2101.58 Q3011.03 2101.58 3008.88 2099.05 Q3006.73 2096.51 3006.73 2092.18 Q3006.73 2087.83 3008.88 2085.3 Q3011.06 2082.76 3014.74 2082.76 M2990.85 2068.66 Q2988.86 2068.66 2987.7 2070.4 Q2986.57 2072.11 2986.57 2075.12 Q2986.57 2078.17 2987.7 2079.89 Q2988.84 2081.6 2990.85 2081.6 Q2992.86 2081.6 2994 2079.89 Q2995.15 2078.17 2995.15 2075.12 Q2995.15 2072.13 2994 2070.4 Q2992.84 2068.66 2990.85 2068.66 M3011.75 2065.72 L3015.46 2065.72 L2993.84 2101.58 L2990.13 2101.58 L3011.75 2065.72 M2990.85 2065.72 Q2994.51 2065.72 2996.68 2068.27 Q2998.86 2070.79 2998.86 2075.12 Q2998.86 2079.49 2996.68 2082.02 Q2994.53 2084.54 2990.85 2084.54 Q2987.17 2084.54 2985.02 2082.02 Q2982.89 2079.47 2982.89 2075.12 Q2982.89 2070.81 2985.04 2068.27 Q2987.19 2065.72 2990.85 2065.72 Z" fill="#000000" fill-rule="nonzero" fill-opacity="1" /></svg>
