<?xml version="1.0" encoding="utf-8"?>
<svg xmlns="http://www.w3.org/2000/svg" xmlns:xlink="http://www.w3.org/1999/xlink" width="800" height="600" viewBox="0 0 3200 2400">
<defs>
  <clipPath id="clip620">
    <rect x="0" y="0" width="3200" height="2400"/>
  </clipPath>
</defs>
<path clip-path="url(#clip620)" d="M0 2400 L3200 2400 L3200 0 L0 0  Z" fill="#ffffff" fill-rule="evenodd" fill-opacity="1"/>
<defs>
  <clipPath id="clip621">
    <rect x="640" y="0" width="2241" height="2241"/>
  </clipPath>
</defs>
<path clip-path="url(#clip620)" d="M233.806 2204.92 L3152.76 2204.92 L3152.76 121.312 L233.806 121.312  Z" fill="#eaeaea" fill-rule="evenodd" fill-opacity="1"/>
<defs>
  <clipPath id="clip622">
    <rect x="233" y="121" width="2920" height="2085"/>
  </clipPath>
</defs>
<polyline clip-path="url(#clip622)" style="stroke:#ffffff; stroke-linecap:round; stroke-linejoin:round; stroke-width:2; stroke-opacity:1; fill:none" points="591.791,2204.92 591.791,121.312 "/>
<polyline clip-path="url(#clip622)" style="stroke:#ffffff; stroke-linecap:round; stroke-linejoin:round; stroke-width:2; stroke-opacity:1; fill:none" points="1142.54,2204.92 1142.54,121.312 "/>
<polyline clip-path="url(#clip622)" style="stroke:#ffffff; stroke-linecap:round; stroke-linejoin:round; stroke-width:2; stroke-opacity:1; fill:none" points="1693.28,2204.92 1693.28,121.312 "/>
<polyline clip-path="url(#clip622)" style="stroke:#ffffff; stroke-linecap:round; stroke-linejoin:round; stroke-width:2; stroke-opacity:1; fill:none" points="2244.03,2204.92 2244.03,121.312 "/>
<polyline clip-path="url(#clip622)" style="stroke:#ffffff; stroke-linecap:round; stroke-linejoin:round; stroke-width:2; stroke-opacity:1; fill:none" points="2794.77,2204.92 2794.77,121.312 "/>
<polyline clip-path="url(#clip622)" style="stroke:#ffffff; stroke-linecap:round; stroke-linejoin:round; stroke-width:2; stroke-opacity:1; fill:none" points="233.806,2002.7 3152.76,2002.7 "/>
<polyline clip-path="url(#clip622)" style="stroke:#ffffff; stroke-linecap:round; stroke-linejoin:round; stroke-width:2; stroke-opacity:1; fill:none" points="233.806,1705.75 3152.76,1705.75 "/>
<polyline clip-path="url(#clip622)" style="stroke:#ffffff; stroke-linecap:round; stroke-linejoin:round; stroke-width:2; stroke-opacity:1; fill:none" points="233.806,1408.8 3152.76,1408.8 "/>
<polyline clip-path="url(#clip622)" style="stroke:#ffffff; stroke-linecap:round; stroke-linejoin:round; stroke-width:2; stroke-opacity:1; fill:none" points="233.806,1111.85 3152.76,1111.85 "/>
<polyline clip-path="url(#clip622)" style="stroke:#ffffff; stroke-linecap:round; stroke-linejoin:round; stroke-width:2; stroke-opacity:1; fill:none" points="233.806,814.905 3152.76,814.905 "/>
<polyline clip-path="url(#clip622)" style="stroke:#ffffff; stroke-linecap:round; stroke-linejoin:round; stroke-width:2; stroke-opacity:1; fill:none" points="233.806,517.955 3152.76,517.955 "/>
<polyline clip-path="url(#clip622)" style="stroke:#ffffff; stroke-linecap:round; stroke-linejoin:round; stroke-width:2; stroke-opacity:1; fill:none" points="233.806,221.005 3152.76,221.005 "/>
<polyline clip-path="url(#clip622)" style="stroke:#ffffff; stroke-linecap:round; stroke-linejoin:round; stroke-width:4; stroke-opacity:1; fill:none" points="316.418,2204.92 316.418,121.312 "/>
<polyline clip-path="url(#clip622)" style="stroke:#ffffff; stroke-linecap:round; stroke-linejoin:round; stroke-width:4; stroke-opacity:1; fill:none" points="867.163,2204.92 867.163,121.312 "/>
<polyline clip-path="url(#clip622)" style="stroke:#ffffff; stroke-linecap:round; stroke-linejoin:round; stroke-width:4; stroke-opacity:1; fill:none" points="1417.91,2204.92 1417.91,121.312 "/>
<polyline clip-path="url(#clip622)" style="stroke:#ffffff; stroke-linecap:round; stroke-linejoin:round; stroke-width:4; stroke-opacity:1; fill:none" points="1968.65,2204.92 1968.65,121.312 "/>
<polyline clip-path="url(#clip622)" style="stroke:#ffffff; stroke-linecap:round; stroke-linejoin:round; stroke-width:4; stroke-opacity:1; fill:none" points="2519.4,2204.92 2519.4,121.312 "/>
<polyline clip-path="url(#clip622)" style="stroke:#ffffff; stroke-linecap:round; stroke-linejoin:round; stroke-width:4; stroke-opacity:1; fill:none" points="3070.14,2204.92 3070.14,121.312 "/>
<polyline clip-path="url(#clip622)" style="stroke:#ffffff; stroke-linecap:round; stroke-linejoin:round; stroke-width:4; stroke-opacity:1; fill:none" points="233.806,2151.18 3152.76,2151.18 "/>
<polyline clip-path="url(#clip622)" style="stroke:#ffffff; stroke-linecap:round; stroke-linejoin:round; stroke-width:4; stroke-opacity:1; fill:none" points="233.806,1854.23 3152.76,1854.23 "/>
<polyline clip-path="url(#clip622)" style="stroke:#ffffff; stroke-linecap:round; stroke-linejoin:round; stroke-width:4; stroke-opacity:1; fill:none" points="233.806,1557.28 3152.76,1557.28 "/>
<polyline clip-path="url(#clip622)" style="stroke:#ffffff; stroke-linecap:round; stroke-linejoin:round; stroke-width:4; stroke-opacity:1; fill:none" points="233.806,1260.33 3152.76,1260.33 "/>
<polyline clip-path="url(#clip622)" style="stroke:#ffffff; stroke-linecap:round; stroke-linejoin:round; stroke-width:4; stroke-opacity:1; fill:none" points="233.806,963.38 3152.76,963.38 "/>
<polyline clip-path="url(#clip622)" style="stroke:#ffffff; stroke-linecap:round; stroke-linejoin:round; stroke-width:4; stroke-opacity:1; fill:none" points="233.806,666.43 3152.76,666.43 "/>
<polyline clip-path="url(#clip622)" style="stroke:#ffffff; stroke-linecap:round; stroke-linejoin:round; stroke-width:4; stroke-opacity:1; fill:none" points="233.806,369.48 3152.76,369.48 "/>
<polyline clip-path="url(#clip620)" style="stroke:#ffffff; stroke-linecap:round; stroke-linejoin:round; stroke-width:4; stroke-opacity:1; fill:none" points="233.806,2204.92 3152.76,2204.92 "/>
<polyline clip-path="url(#clip620)" style="stroke:#333333; stroke-linecap:round; stroke-linejoin:round; stroke-width:4; stroke-opacity:1; fill:none" points="316.418,2204.92 316.418,2223.82 "/>
<polyline clip-path="url(#clip620)" style="stroke:#333333; stroke-linecap:round; stroke-linejoin:round; stroke-width:4; stroke-opacity:1; fill:none" points="867.163,2204.92 867.163,2223.82 "/>
<polyline clip-path="url(#clip620)" style="stroke:#333333; stroke-linecap:round; stroke-linejoin:round; stroke-width:4; stroke-opacity:1; fill:none" points="1417.91,2204.92 1417.91,2223.82 "/>
<polyline clip-path="url(#clip620)" style="stroke:#333333; stroke-linecap:round; stroke-linejoin:round; stroke-width:4; stroke-opacity:1; fill:none" points="1968.65,2204.92 1968.65,2223.82 "/>
<polyline clip-path="url(#clip620)" style="stroke:#333333; stroke-linecap:round; stroke-linejoin:round; stroke-width:4; stroke-opacity:1; fill:none" points="2519.4,2204.92 2519.4,2223.82 "/>
<polyline clip-path="url(#clip620)" style="stroke:#333333; stroke-linecap:round; stroke-linejoin:round; stroke-width:4; stroke-opacity:1; fill:none" points="3070.14,2204.92 3070.14,2223.82 "/>
<polyline clip-path="url(#clip620)" style="stroke:#333333; stroke-linecap:round; stroke-linejoin:round; stroke-width:4; stroke-opacity:1; fill:none" points="591.791,2204.92 591.791,2214.37 "/>
<polyline clip-path="url(#clip620)" style="stroke:#333333; stroke-linecap:round; stroke-linejoin:round; stroke-width:4; stroke-opacity:1; fill:none" points="1142.54,2204.92 1142.54,2214.37 "/>
<polyline clip-path="url(#clip620)" style="stroke:#333333; stroke-linecap:round; stroke-linejoin:round; stroke-width:4; stroke-opacity:1; fill:none" points="1693.28,2204.92 1693.28,2214.37 "/>
<polyline clip-path="url(#clip620)" style="stroke:#333333; stroke-linecap:round; stroke-linejoin:round; stroke-width:4; stroke-opacity:1; fill:none" points="2244.03,2204.92 2244.03,2214.37 "/>
<polyline clip-path="url(#clip620)" style="stroke:#333333; stroke-linecap:round; stroke-linejoin:round; stroke-width:4; stroke-opacity:1; fill:none" points="2794.77,2204.92 2794.77,2214.37 "/>
<path clip-path="url(#clip620)" d="M316.418 2255.04 Q312.807 2255.04 310.978 2258.6 Q309.173 2262.14 309.173 2269.27 Q309.173 2276.38 310.978 2279.95 Q312.807 2283.49 316.418 2283.49 Q320.052 2283.49 321.858 2279.95 Q323.687 2276.38 323.687 2269.27 Q323.687 2262.14 321.858 2258.6 Q320.052 2255.04 316.418 2255.04 M316.418 2251.33 Q322.228 2251.33 325.284 2255.94 Q328.362 2260.52 328.362 2269.27 Q328.362 2278 325.284 2282.61 Q322.228 2287.19 316.418 2287.19 Q310.608 2287.19 307.529 2282.61 Q304.474 2278 304.474 2269.27 Q304.474 2260.52 307.529 2255.94 Q310.608 2251.33 316.418 2251.33 Z" fill="#4c4c4c" fill-rule="nonzero" fill-opacity="1" /><path clip-path="url(#clip620)" d="M857.545 2282.58 L865.184 2282.58 L865.184 2256.22 L856.874 2257.89 L856.874 2253.63 L865.138 2251.96 L869.814 2251.96 L869.814 2282.58 L877.453 2282.58 L877.453 2286.52 L857.545 2286.52 L857.545 2282.58 Z" fill="#4c4c4c" fill-rule="nonzero" fill-opacity="1" /><path clip-path="url(#clip620)" d="M1412.56 2282.58 L1428.88 2282.58 L1428.88 2286.52 L1406.94 2286.52 L1406.94 2282.58 Q1409.6 2279.83 1414.18 2275.2 Q1418.79 2270.55 1419.97 2269.21 Q1422.21 2266.68 1423.09 2264.95 Q1424 2263.19 1424 2261.5 Q1424 2258.74 1422.05 2257.01 Q1420.13 2255.27 1417.03 2255.27 Q1414.83 2255.27 1412.38 2256.03 Q1409.95 2256.8 1407.17 2258.35 L1407.17 2253.63 Q1409.99 2252.49 1412.45 2251.91 Q1414.9 2251.33 1416.94 2251.33 Q1422.31 2251.33 1425.5 2254.02 Q1428.7 2256.71 1428.7 2261.2 Q1428.7 2263.33 1427.89 2265.25 Q1427.1 2267.14 1424.99 2269.74 Q1424.41 2270.41 1421.31 2273.63 Q1418.21 2276.82 1412.56 2282.58 Z" fill="#4c4c4c" fill-rule="nonzero" fill-opacity="1" /><path clip-path="url(#clip620)" d="M1972.9 2267.89 Q1976.26 2268.6 1978.13 2270.87 Q1980.03 2273.14 1980.03 2276.47 Q1980.03 2281.59 1976.51 2284.39 Q1972.99 2287.19 1966.51 2287.19 Q1964.34 2287.19 1962.02 2286.75 Q1959.73 2286.33 1957.28 2285.48 L1957.28 2280.96 Q1959.22 2282.1 1961.54 2282.68 Q1963.85 2283.26 1966.37 2283.26 Q1970.77 2283.26 1973.06 2281.52 Q1975.38 2279.78 1975.38 2276.47 Q1975.38 2273.42 1973.23 2271.71 Q1971.1 2269.97 1967.28 2269.97 L1963.25 2269.97 L1963.25 2266.13 L1967.46 2266.13 Q1970.91 2266.13 1972.74 2264.76 Q1974.57 2263.37 1974.57 2260.78 Q1974.57 2258.12 1972.67 2256.71 Q1970.79 2255.27 1967.28 2255.27 Q1965.36 2255.27 1963.16 2255.69 Q1960.96 2256.1 1958.32 2256.98 L1958.32 2252.82 Q1960.98 2252.08 1963.29 2251.71 Q1965.63 2251.33 1967.69 2251.33 Q1973.02 2251.33 1976.12 2253.77 Q1979.22 2256.17 1979.22 2260.29 Q1979.22 2263.16 1977.58 2265.15 Q1975.93 2267.12 1972.9 2267.89 Z" fill="#4c4c4c" fill-rule="nonzero" fill-opacity="1" /><path clip-path="url(#clip620)" d="M2522.41 2256.03 L2510.6 2274.48 L2522.41 2274.48 L2522.41 2256.03 M2521.18 2251.96 L2527.06 2251.96 L2527.06 2274.48 L2531.99 2274.48 L2531.99 2278.37 L2527.06 2278.37 L2527.06 2286.52 L2522.41 2286.52 L2522.41 2278.37 L2506.81 2278.37 L2506.81 2273.86 L2521.18 2251.96 Z" fill="#4c4c4c" fill-rule="nonzero" fill-opacity="1" /><path clip-path="url(#clip620)" d="M3060.42 2251.96 L3078.78 2251.96 L3078.78 2255.9 L3064.7 2255.9 L3064.7 2264.37 Q3065.72 2264.02 3066.74 2263.86 Q3067.76 2263.67 3068.78 2263.67 Q3074.57 2263.67 3077.95 2266.84 Q3081.32 2270.02 3081.32 2275.43 Q3081.32 2281.01 3077.85 2284.11 Q3074.38 2287.19 3068.06 2287.19 Q3065.88 2287.19 3063.62 2286.82 Q3061.37 2286.45 3058.96 2285.71 L3058.96 2281.01 Q3061.05 2282.14 3063.27 2282.7 Q3065.49 2283.26 3067.97 2283.26 Q3071.97 2283.26 3074.31 2281.15 Q3076.65 2279.04 3076.65 2275.43 Q3076.65 2271.82 3074.31 2269.71 Q3071.97 2267.61 3067.97 2267.61 Q3066.09 2267.61 3064.22 2268.02 Q3062.37 2268.44 3060.42 2269.32 L3060.42 2251.96 Z" fill="#4c4c4c" fill-rule="nonzero" fill-opacity="1" /><path clip-path="url(#clip620)" d="M1692.34 2316.01 L1692.34 2326.14 L1704.41 2326.14 L1704.41 2330.69 L1692.34 2330.69 L1692.34 2350.04 Q1692.34 2354.4 1693.52 2355.64 Q1694.73 2356.88 1698.39 2356.88 L1704.41 2356.88 L1704.41 2361.78 L1698.39 2361.78 Q1691.61 2361.78 1689.03 2359.27 Q1686.45 2356.72 1686.45 2350.04 L1686.45 2330.69 L1682.16 2330.69 L1682.16 2326.14 L1686.45 2326.14 L1686.45 2316.01 L1692.34 2316.01 Z" fill="#000000" fill-rule="nonzero" fill-opacity="1" /><polyline clip-path="url(#clip620)" style="stroke:#ffffff; stroke-linecap:round; stroke-linejoin:round; stroke-width:4; stroke-opacity:1; fill:none" points="233.806,2204.92 233.806,121.312 "/>
<polyline clip-path="url(#clip620)" style="stroke:#333333; stroke-linecap:round; stroke-linejoin:round; stroke-width:4; stroke-opacity:1; fill:none" points="233.806,2151.18 214.909,2151.18 "/>
<polyline clip-path="url(#clip620)" style="stroke:#333333; stroke-linecap:round; stroke-linejoin:round; stroke-width:4; stroke-opacity:1; fill:none" points="233.806,1854.23 214.909,1854.23 "/>
<polyline clip-path="url(#clip620)" style="stroke:#333333; stroke-linecap:round; stroke-linejoin:round; stroke-width:4; stroke-opacity:1; fill:none" points="233.806,1557.28 214.909,1557.28 "/>
<polyline clip-path="url(#clip620)" style="stroke:#333333; stroke-linecap:round; stroke-linejoin:round; stroke-width:4; stroke-opacity:1; fill:none" points="233.806,1260.33 214.909,1260.33 "/>
<polyline clip-path="url(#clip620)" style="stroke:#333333; stroke-linecap:round; stroke-linejoin:round; stroke-width:4; stroke-opacity:1; fill:none" points="233.806,963.38 214.909,963.38 "/>
<polyline clip-path="url(#clip620)" style="stroke:#333333; stroke-linecap:round; stroke-linejoin:round; stroke-width:4; stroke-opacity:1; fill:none" points="233.806,666.43 214.909,666.43 "/>
<polyline clip-path="url(#clip620)" style="stroke:#333333; stroke-linecap:round; stroke-linejoin:round; stroke-width:4; stroke-opacity:1; fill:none" points="233.806,369.48 214.909,369.48 "/>
<polyline clip-path="url(#clip620)" style="stroke:#333333; stroke-linecap:round; stroke-linejoin:round; stroke-width:4; stroke-opacity:1; fill:none" points="233.806,2002.7 224.357,2002.7 "/>
<polyline clip-path="url(#clip620)" style="stroke:#333333; stroke-linecap:round; stroke-linejoin:round; stroke-width:4; stroke-opacity:1; fill:none" points="233.806,1705.75 224.357,1705.75 "/>
<polyline clip-path="url(#clip620)" style="stroke:#333333; stroke-linecap:round; stroke-linejoin:round; stroke-width:4; stroke-opacity:1; fill:none" points="233.806,1408.8 224.357,1408.8 "/>
<polyline clip-path="url(#clip620)" style="stroke:#333333; stroke-linecap:round; stroke-linejoin:round; stroke-width:4; stroke-opacity:1; fill:none" points="233.806,1111.85 224.357,1111.85 "/>
<polyline clip-path="url(#clip620)" style="stroke:#333333; stroke-linecap:round; stroke-linejoin:round; stroke-width:4; stroke-opacity:1; fill:none" points="233.806,814.905 224.357,814.905 "/>
<polyline clip-path="url(#clip620)" style="stroke:#333333; stroke-linecap:round; stroke-linejoin:round; stroke-width:4; stroke-opacity:1; fill:none" points="233.806,517.955 224.357,517.955 "/>
<polyline clip-path="url(#clip620)" style="stroke:#333333; stroke-linecap:round; stroke-linejoin:round; stroke-width:4; stroke-opacity:1; fill:none" points="233.806,221.005 224.357,221.005 "/>
<path clip-path="url(#clip620)" d="M106.228 2136.98 Q102.617 2136.98 100.788 2140.54 Q98.9825 2144.08 98.9825 2151.21 Q98.9825 2158.32 100.788 2161.89 Q102.617 2165.43 106.228 2165.43 Q109.862 2165.43 111.668 2161.89 Q113.496 2158.32 113.496 2151.21 Q113.496 2144.08 111.668 2140.54 Q109.862 2136.98 106.228 2136.98 M106.228 2133.27 Q112.038 2133.27 115.094 2137.88 Q118.172 2142.46 118.172 2151.21 Q118.172 2159.94 115.094 2164.55 Q112.038 2169.13 106.228 2169.13 Q100.418 2169.13 97.339 2164.55 Q94.2835 2159.94 94.2835 2151.21 Q94.2835 2142.46 97.339 2137.88 Q100.418 2133.27 106.228 2133.27 Z" fill="#4c4c4c" fill-rule="nonzero" fill-opacity="1" /><path clip-path="url(#clip620)" d="M126.39 2162.58 L131.274 2162.58 L131.274 2168.46 L126.39 2168.46 L126.39 2162.58 Z" fill="#4c4c4c" fill-rule="nonzero" fill-opacity="1" /><path clip-path="url(#clip620)" d="M145.487 2164.52 L161.806 2164.52 L161.806 2168.46 L139.862 2168.46 L139.862 2164.52 Q142.524 2161.77 147.107 2157.14 Q151.714 2152.49 152.894 2151.14 Q155.14 2148.62 156.019 2146.89 Q156.922 2145.13 156.922 2143.44 Q156.922 2140.68 154.978 2138.95 Q153.056 2137.21 149.954 2137.21 Q147.755 2137.21 145.302 2137.97 Q142.871 2138.74 140.093 2140.29 L140.093 2135.57 Q142.917 2134.43 145.371 2133.85 Q147.825 2133.27 149.862 2133.27 Q155.232 2133.27 158.427 2135.96 Q161.621 2138.64 161.621 2143.14 Q161.621 2145.27 160.811 2147.19 Q160.024 2149.08 157.917 2151.68 Q157.339 2152.35 154.237 2155.57 Q151.135 2158.76 145.487 2164.52 Z" fill="#4c4c4c" fill-rule="nonzero" fill-opacity="1" /><path clip-path="url(#clip620)" d="M104.145 1840.03 Q100.533 1840.03 98.7048 1843.59 Q96.8992 1847.13 96.8992 1854.26 Q96.8992 1861.37 98.7048 1864.94 Q100.533 1868.48 104.145 1868.48 Q107.779 1868.48 109.584 1864.94 Q111.413 1861.37 111.413 1854.26 Q111.413 1847.13 109.584 1843.59 Q107.779 1840.03 104.145 1840.03 M104.145 1836.32 Q109.955 1836.32 113.01 1840.93 Q116.089 1845.51 116.089 1854.26 Q116.089 1862.99 113.01 1867.6 Q109.955 1872.18 104.145 1872.18 Q98.3344 1872.18 95.2557 1867.6 Q92.2002 1862.99 92.2002 1854.26 Q92.2002 1845.51 95.2557 1840.93 Q98.3344 1836.32 104.145 1836.32 Z" fill="#4c4c4c" fill-rule="nonzero" fill-opacity="1" /><path clip-path="url(#clip620)" d="M124.306 1865.63 L129.191 1865.63 L129.191 1871.51 L124.306 1871.51 L124.306 1865.63 Z" fill="#4c4c4c" fill-rule="nonzero" fill-opacity="1" /><path clip-path="url(#clip620)" d="M152.223 1841.02 L140.417 1859.47 L152.223 1859.47 L152.223 1841.02 M150.996 1836.95 L156.876 1836.95 L156.876 1859.47 L161.806 1859.47 L161.806 1863.36 L156.876 1863.36 L156.876 1871.51 L152.223 1871.51 L152.223 1863.36 L136.621 1863.36 L136.621 1858.85 L150.996 1836.95 Z" fill="#4c4c4c" fill-rule="nonzero" fill-opacity="1" /><path clip-path="url(#clip620)" d="M104.469 1543.08 Q100.858 1543.08 99.0288 1546.64 Q97.2233 1550.18 97.2233 1557.31 Q97.2233 1564.42 99.0288 1567.99 Q100.858 1571.53 104.469 1571.53 Q108.103 1571.53 109.908 1567.99 Q111.737 1564.42 111.737 1557.31 Q111.737 1550.18 109.908 1546.64 Q108.103 1543.08 104.469 1543.08 M104.469 1539.37 Q110.279 1539.37 113.334 1543.98 Q116.413 1548.56 116.413 1557.31 Q116.413 1566.04 113.334 1570.65 Q110.279 1575.23 104.469 1575.23 Q98.6585 1575.23 95.5798 1570.65 Q92.5242 1566.04 92.5242 1557.31 Q92.5242 1548.56 95.5798 1543.98 Q98.6585 1539.37 104.469 1539.37 Z" fill="#4c4c4c" fill-rule="nonzero" fill-opacity="1" /><path clip-path="url(#clip620)" d="M124.631 1568.68 L129.515 1568.68 L129.515 1574.56 L124.631 1574.56 L124.631 1568.68 Z" fill="#4c4c4c" fill-rule="nonzero" fill-opacity="1" /><path clip-path="url(#clip620)" d="M150.279 1555.42 Q147.13 1555.42 145.279 1557.57 Q143.45 1559.72 143.45 1563.47 Q143.45 1567.2 145.279 1569.37 Q147.13 1571.53 150.279 1571.53 Q153.427 1571.53 155.255 1569.37 Q157.107 1567.2 157.107 1563.47 Q157.107 1559.72 155.255 1557.57 Q153.427 1555.42 150.279 1555.42 M159.561 1540.76 L159.561 1545.02 Q157.802 1544.19 155.996 1543.75 Q154.214 1543.31 152.454 1543.31 Q147.825 1543.31 145.371 1546.43 Q142.941 1549.56 142.593 1555.88 Q143.959 1553.87 146.019 1552.8 Q148.079 1551.71 150.556 1551.71 Q155.765 1551.71 158.774 1554.88 Q161.806 1558.03 161.806 1563.47 Q161.806 1568.8 158.658 1572.01 Q155.51 1575.23 150.279 1575.23 Q144.283 1575.23 141.112 1570.65 Q137.941 1566.04 137.941 1557.31 Q137.941 1549.12 141.83 1544.26 Q145.718 1539.37 152.269 1539.37 Q154.029 1539.37 155.811 1539.72 Q157.616 1540.07 159.561 1540.76 Z" fill="#4c4c4c" fill-rule="nonzero" fill-opacity="1" /><path clip-path="url(#clip620)" d="M104.723 1246.13 Q101.112 1246.13 99.2835 1249.69 Q97.4779 1253.23 97.4779 1260.36 Q97.4779 1267.47 99.2835 1271.04 Q101.112 1274.58 104.723 1274.58 Q108.357 1274.58 110.163 1271.04 Q111.992 1267.47 111.992 1260.36 Q111.992 1253.23 110.163 1249.69 Q108.357 1246.13 104.723 1246.13 M104.723 1242.42 Q110.533 1242.42 113.589 1247.03 Q116.668 1251.61 116.668 1260.36 Q116.668 1269.09 113.589 1273.7 Q110.533 1278.28 104.723 1278.28 Q98.9131 1278.28 95.8344 1273.7 Q92.7789 1269.09 92.7789 1260.36 Q92.7789 1251.61 95.8344 1247.03 Q98.9131 1242.42 104.723 1242.42 Z" fill="#4c4c4c" fill-rule="nonzero" fill-opacity="1" /><path clip-path="url(#clip620)" d="M124.885 1271.73 L129.769 1271.73 L129.769 1277.61 L124.885 1277.61 L124.885 1271.73 Z" fill="#4c4c4c" fill-rule="nonzero" fill-opacity="1" /><path clip-path="url(#clip620)" d="M149.954 1261.2 Q146.621 1261.2 144.7 1262.98 Q142.802 1264.76 142.802 1267.89 Q142.802 1271.01 144.7 1272.79 Q146.621 1274.58 149.954 1274.58 Q153.288 1274.58 155.209 1272.79 Q157.13 1270.99 157.13 1267.89 Q157.13 1264.76 155.209 1262.98 Q153.311 1261.2 149.954 1261.2 M145.279 1259.21 Q142.269 1258.47 140.58 1256.41 Q138.913 1254.35 138.913 1251.38 Q138.913 1247.24 141.853 1244.83 Q144.816 1242.42 149.954 1242.42 Q155.116 1242.42 158.056 1244.83 Q160.996 1247.24 160.996 1251.38 Q160.996 1254.35 159.306 1256.41 Q157.64 1258.47 154.654 1259.21 Q158.033 1259.99 159.908 1262.29 Q161.806 1264.58 161.806 1267.89 Q161.806 1272.91 158.728 1275.6 Q155.672 1278.28 149.954 1278.28 Q144.237 1278.28 141.158 1275.6 Q138.103 1272.91 138.103 1267.89 Q138.103 1264.58 140.001 1262.29 Q141.899 1259.99 145.279 1259.21 M143.566 1251.82 Q143.566 1254.51 145.232 1256.01 Q146.922 1257.52 149.954 1257.52 Q152.964 1257.52 154.654 1256.01 Q156.366 1254.51 156.366 1251.82 Q156.366 1249.14 154.654 1247.63 Q152.964 1246.13 149.954 1246.13 Q146.922 1246.13 145.232 1247.63 Q143.566 1249.14 143.566 1251.82 Z" fill="#4c4c4c" fill-rule="nonzero" fill-opacity="1" /><path clip-path="url(#clip620)" d="M95.4409 976.724 L103.08 976.724 L103.08 950.359 L94.7696 952.025 L94.7696 947.766 L103.033 946.1 L107.709 946.1 L107.709 976.724 L115.348 976.724 L115.348 980.66 L95.4409 980.66 L95.4409 976.724 Z" fill="#4c4c4c" fill-rule="nonzero" fill-opacity="1" /><path clip-path="url(#clip620)" d="M124.793 974.78 L129.677 974.78 L129.677 980.66 L124.793 980.66 L124.793 974.78 Z" fill="#4c4c4c" fill-rule="nonzero" fill-opacity="1" /><path clip-path="url(#clip620)" d="M149.862 949.178 Q146.251 949.178 144.422 952.743 Q142.617 956.285 142.617 963.414 Q142.617 970.521 144.422 974.085 Q146.251 977.627 149.862 977.627 Q153.496 977.627 155.302 974.085 Q157.13 970.521 157.13 963.414 Q157.13 956.285 155.302 952.743 Q153.496 949.178 149.862 949.178 M149.862 945.475 Q155.672 945.475 158.728 950.081 Q161.806 954.664 161.806 963.414 Q161.806 972.141 158.728 976.748 Q155.672 981.331 149.862 981.331 Q144.052 981.331 140.973 976.748 Q137.918 972.141 137.918 963.414 Q137.918 954.664 140.973 950.081 Q144.052 945.475 149.862 945.475 Z" fill="#4c4c4c" fill-rule="nonzero" fill-opacity="1" /><path clip-path="url(#clip620)" d="M97.0381 679.774 L104.677 679.774 L104.677 653.409 L96.3668 655.075 L96.3668 650.816 L104.631 649.15 L109.307 649.15 L109.307 679.774 L116.945 679.774 L116.945 683.71 L97.0381 683.71 L97.0381 679.774 Z" fill="#4c4c4c" fill-rule="nonzero" fill-opacity="1" /><path clip-path="url(#clip620)" d="M126.39 677.83 L131.274 677.83 L131.274 683.71 L126.39 683.71 L126.39 677.83 Z" fill="#4c4c4c" fill-rule="nonzero" fill-opacity="1" /><path clip-path="url(#clip620)" d="M145.487 679.774 L161.806 679.774 L161.806 683.71 L139.862 683.71 L139.862 679.774 Q142.524 677.02 147.107 672.39 Q151.714 667.737 152.894 666.395 Q155.14 663.872 156.019 662.136 Q156.922 660.376 156.922 658.687 Q156.922 655.932 154.978 654.196 Q153.056 652.46 149.954 652.46 Q147.755 652.46 145.302 653.224 Q142.871 653.987 140.093 655.538 L140.093 650.816 Q142.917 649.682 145.371 649.103 Q147.825 648.525 149.862 648.525 Q155.232 648.525 158.427 651.21 Q161.621 653.895 161.621 658.386 Q161.621 660.515 160.811 662.436 Q160.024 664.335 157.917 666.927 Q157.339 667.599 154.237 670.816 Q151.135 674.011 145.487 679.774 Z" fill="#4c4c4c" fill-rule="nonzero" fill-opacity="1" /><path clip-path="url(#clip620)" d="M94.9548 382.824 L102.594 382.824 L102.594 356.459 L94.2835 358.125 L94.2835 353.866 L102.547 352.2 L107.223 352.2 L107.223 382.824 L114.862 382.824 L114.862 386.76 L94.9548 386.76 L94.9548 382.824 Z" fill="#4c4c4c" fill-rule="nonzero" fill-opacity="1" /><path clip-path="url(#clip620)" d="M124.306 380.88 L129.191 380.88 L129.191 386.76 L124.306 386.76 L124.306 380.88 Z" fill="#4c4c4c" fill-rule="nonzero" fill-opacity="1" /><path clip-path="url(#clip620)" d="M152.223 356.274 L140.417 374.723 L152.223 374.723 L152.223 356.274 M150.996 352.2 L156.876 352.2 L156.876 374.723 L161.806 374.723 L161.806 378.611 L156.876 378.611 L156.876 386.76 L152.223 386.76 L152.223 378.611 L136.621 378.611 L136.621 374.098 L150.996 352.2 Z" fill="#4c4c4c" fill-rule="nonzero" fill-opacity="1" /><path clip-path="url(#clip620)" d="M48.597 1321.32 L67.5031 1321.32 L67.5031 1327.21 L18.2962 1327.21 L18.2962 1321.32 L23.7071 1321.32 Q20.5242 1319.47 18.9964 1316.67 Q17.4368 1313.84 17.4368 1309.93 Q17.4368 1303.43 22.5931 1299.39 Q27.7493 1295.32 36.152 1295.32 Q44.5547 1295.32 49.711 1299.39 Q54.8672 1303.43 54.8672 1309.93 Q54.8672 1313.84 53.3394 1316.67 Q51.7798 1319.47 48.597 1321.32 M36.152 1301.4 Q29.6908 1301.4 26.0305 1304.07 Q22.3384 1306.71 22.3384 1311.36 Q22.3384 1316 26.0305 1318.68 Q29.6908 1321.32 36.152 1321.32 Q42.6132 1321.32 46.3053 1318.68 Q49.9656 1316 49.9656 1311.36 Q49.9656 1306.71 46.3053 1304.07 Q42.6132 1301.4 36.152 1301.4 Z" fill="#000000" fill-rule="nonzero" fill-opacity="1" /><path clip-path="url(#clip620)" d="M22.4021 1271.79 Q22.4021 1276.51 26.0942 1279.24 Q29.7545 1281.98 36.152 1281.98 Q42.5495 1281.98 46.2417 1279.27 Q49.9019 1276.54 49.9019 1271.79 Q49.9019 1267.12 46.2098 1264.38 Q42.5177 1261.64 36.152 1261.64 Q29.8181 1261.64 26.126 1264.38 Q22.4021 1267.12 22.4021 1271.79 M17.4368 1271.79 Q17.4368 1264.16 22.4021 1259.8 Q27.3673 1255.43 36.152 1255.43 Q44.9049 1255.43 49.9019 1259.8 Q54.8672 1264.16 54.8672 1271.79 Q54.8672 1279.47 49.9019 1283.83 Q44.9049 1288.15 36.152 1288.15 Q27.3673 1288.15 22.4021 1283.83 Q17.4368 1279.47 17.4368 1271.79 Z" fill="#000000" fill-rule="nonzero" fill-opacity="1" /><path clip-path="url(#clip620)" d="M48.597 1240.06 L67.5031 1240.06 L67.5031 1245.95 L18.2962 1245.95 L18.2962 1240.06 L23.7071 1240.06 Q20.5242 1238.22 18.9964 1235.41 Q17.4368 1232.58 17.4368 1228.67 Q17.4368 1222.17 22.5931 1218.13 Q27.7493 1214.06 36.152 1214.06 Q44.5547 1214.06 49.711 1218.13 Q54.8672 1222.17 54.8672 1228.67 Q54.8672 1232.58 53.3394 1235.41 Q51.7798 1238.22 48.597 1240.06 M36.152 1220.14 Q29.6908 1220.14 26.0305 1222.81 Q22.3384 1225.45 22.3384 1230.1 Q22.3384 1234.75 26.0305 1237.42 Q29.6908 1240.06 36.152 1240.06 Q42.6132 1240.06 46.3053 1237.42 Q49.9656 1234.75 49.9656 1230.1 Q49.9656 1225.45 46.3053 1222.81 Q42.6132 1220.14 36.152 1220.14 Z" fill="#000000" fill-rule="nonzero" fill-opacity="1" /><path clip-path="url(#clip620)" d="M39.8759 1204.95 L18.2962 1204.95 L18.2962 1199.1 L39.6531 1199.1 Q44.7139 1199.1 47.2602 1197.12 Q49.7746 1195.15 49.7746 1191.2 Q49.7746 1186.46 46.7509 1183.72 Q43.7272 1180.96 38.5073 1180.96 L18.2962 1180.96 L18.2962 1175.1 L53.9442 1175.1 L53.9442 1180.96 L48.4696 1180.96 Q51.7162 1183.09 53.3076 1185.92 Q54.8672 1188.72 54.8672 1192.45 Q54.8672 1198.59 51.0478 1201.77 Q47.2283 1204.95 39.8759 1204.95 M17.4368 1190.22 L17.4368 1190.22 Z" fill="#000000" fill-rule="nonzero" fill-opacity="1" /><path clip-path="url(#clip620)" d="M4.41896 1163.04 L4.41896 1157.18 L53.9442 1157.18 L53.9442 1163.04 L4.41896 1163.04 Z" fill="#000000" fill-rule="nonzero" fill-opacity="1" /><path clip-path="url(#clip620)" d="M36.0247 1128.73 Q36.0247 1135.82 37.6479 1138.56 Q39.2712 1141.3 43.1861 1141.3 Q46.3053 1141.3 48.1514 1139.26 Q49.9656 1137.19 49.9656 1133.66 Q49.9656 1128.79 46.5281 1125.86 Q43.0588 1122.9 37.3297 1122.9 L36.0247 1122.9 L36.0247 1128.73 M33.6057 1117.04 L53.9442 1117.04 L53.9442 1122.9 L48.5333 1122.9 Q51.7798 1124.91 53.3394 1127.9 Q54.8672 1130.89 54.8672 1135.22 Q54.8672 1140.69 51.8116 1143.94 Q48.7243 1147.15 43.5681 1147.15 Q37.5525 1147.15 34.4969 1143.14 Q31.4414 1139.1 31.4414 1131.11 L31.4414 1122.9 L30.8685 1122.9 Q26.8262 1122.9 24.6301 1125.57 Q22.4021 1128.22 22.4021 1133.02 Q22.4021 1136.08 23.1341 1138.97 Q23.8662 1141.87 25.3303 1144.54 L19.9195 1144.54 Q18.6781 1141.33 18.0734 1138.31 Q17.4368 1135.28 17.4368 1132.42 Q17.4368 1124.68 21.4472 1120.86 Q25.4576 1117.04 33.6057 1117.04 Z" fill="#000000" fill-rule="nonzero" fill-opacity="1" /><path clip-path="url(#clip620)" d="M19.6648 1079.33 L25.1393 1079.33 Q23.7707 1081.81 23.1023 1084.32 Q22.4021 1086.81 22.4021 1089.35 Q22.4021 1095.05 26.0305 1098.2 Q29.6272 1101.35 36.152 1101.35 Q42.6769 1101.35 46.3053 1098.2 Q49.9019 1095.05 49.9019 1089.35 Q49.9019 1086.81 49.2335 1084.32 Q48.5333 1081.81 47.1647 1079.33 L52.5755 1079.33 Q53.7214 1081.78 54.2943 1084.42 Q54.8672 1087.03 54.8672 1089.99 Q54.8672 1098.04 49.8064 1102.78 Q44.7457 1107.53 36.152 1107.53 Q27.431 1107.53 22.4339 1102.75 Q17.4368 1097.95 17.4368 1089.61 Q17.4368 1086.9 18.0097 1084.32 Q18.5508 1081.75 19.6648 1079.33 M53.9442 1087.6 Q55.9175 1085.85 57.5726 1084.99 Q59.2595 1084.13 60.7873 1084.13 Q63.62 1084.13 65.0523 1086.04 Q66.5164 1087.95 66.5164 1091.71 Q66.5164 1093.17 66.3255 1094.57 Q66.1345 1095.94 65.7525 1097.31 L61.583 1097.31 Q62.1241 1096.23 62.3469 1095.05 Q62.6015 1093.87 62.6015 1092.38 Q62.6015 1090.5 61.8376 1089.54 Q61.0737 1088.59 59.6096 1088.59 Q58.6548 1088.59 57.2543 1089.29 Q55.8857 1089.96 53.9442 1091.39 L53.9442 1087.6 Z" fill="#000000" fill-rule="nonzero" fill-opacity="1" /><path clip-path="url(#clip620)" d="M36.0247 1052.94 Q36.0247 1060.04 37.6479 1062.78 Q39.2712 1065.51 43.1861 1065.51 Q46.3053 1065.51 48.1514 1063.48 Q49.9656 1061.41 49.9656 1057.87 Q49.9656 1053.01 46.5281 1050.08 Q43.0588 1047.12 37.3297 1047.12 L36.0247 1047.12 L36.0247 1052.94 M33.6057 1041.26 L53.9442 1041.26 L53.9442 1047.12 L48.5333 1047.12 Q51.7798 1049.12 53.3394 1052.11 Q54.8672 1055.11 54.8672 1059.43 Q54.8672 1064.91 51.8116 1068.16 Q48.7243 1071.37 43.5681 1071.37 Q37.5525 1071.37 34.4969 1067.36 Q31.4414 1063.32 31.4414 1055.33 L31.4414 1047.12 L30.8685 1047.12 Q26.8262 1047.12 24.6301 1049.79 Q22.4021 1052.43 22.4021 1057.24 Q22.4021 1060.29 23.1341 1063.19 Q23.8662 1066.09 25.3303 1068.76 L19.9195 1068.76 Q18.6781 1065.55 18.0734 1062.52 Q17.4368 1059.5 17.4368 1056.63 Q17.4368 1048.9 21.4472 1045.08 Q25.4576 1041.26 33.6057 1041.26 M10.3391 1056.51 L8.5885 1058.32 Q7.95193 1059.02 7.66547 1059.56 Q7.34718 1060.07 7.34718 1060.48 Q7.34718 1061.69 8.52484 1062.27 Q9.67067 1062.84 12.2806 1062.9 L12.2806 1066.88 Q7.98376 1066.82 5.66027 1065.2 Q3.30496 1063.57 3.30496 1060.68 Q3.30496 1059.47 3.75056 1058.45 Q4.19616 1057.43 5.2465 1056.25 L6.99707 1054.44 Q7.63364 1053.74 7.95193 1053.23 Q8.23838 1052.69 8.23838 1052.27 Q8.23838 1051.06 7.09256 1050.49 Q5.9149 1049.92 3.30496 1049.85 L3.30496 1045.88 Q7.60181 1045.94 9.95712 1047.56 Q12.2806 1049.19 12.2806 1052.08 Q12.2806 1053.29 11.835 1054.31 Q11.3894 1055.33 10.3391 1056.51 Z" fill="#000000" fill-rule="nonzero" fill-opacity="1" /><path clip-path="url(#clip620)" d="M22.4021 1015.38 Q22.4021 1020.09 26.0942 1022.83 Q29.7545 1025.57 36.152 1025.57 Q42.5495 1025.57 46.2417 1022.86 Q49.9019 1020.13 49.9019 1015.38 Q49.9019 1010.71 46.2098 1007.97 Q42.5177 1005.23 36.152 1005.23 Q29.8181 1005.23 26.126 1007.97 Q22.4021 1010.71 22.4021 1015.38 M17.4368 1015.38 Q17.4368 1007.74 22.4021 1003.38 Q27.3673 999.024 36.152 999.024 Q44.9049 999.024 49.9019 1003.38 Q54.8672 1007.74 54.8672 1015.38 Q54.8672 1023.05 49.9019 1027.42 Q44.9049 1031.74 36.152 1031.74 Q27.3673 1031.74 22.4021 1027.42 Q17.4368 1023.05 17.4368 1015.38 Z" fill="#000000" fill-rule="nonzero" fill-opacity="1" /><path clip-path="url(#clip620)" d="M972.365 23.3193 L979.136 23.3193 L991.288 55.958 L1003.44 23.3193 L1010.21 23.3193 L995.629 62.208 L986.948 62.208 L972.365 23.3193 Z" fill="#000000" fill-rule="nonzero" fill-opacity="1" /><path clip-path="url(#clip620)" d="M1036.7 42.6595 Q1028.96 42.6595 1025.98 44.4303 Q1022.99 46.2011 1022.99 50.472 Q1022.99 53.8747 1025.21 55.8886 Q1027.47 57.8677 1031.32 57.8677 Q1036.64 57.8677 1039.83 54.1178 Q1043.06 50.3331 1043.06 44.0831 L1043.06 42.6595 L1036.7 42.6595 M1049.45 40.0206 L1049.45 62.208 L1043.06 62.208 L1043.06 56.3053 Q1040.87 59.8469 1037.61 61.5483 Q1034.34 63.2149 1029.62 63.2149 Q1023.65 63.2149 1020.11 59.8816 Q1016.6 56.5136 1016.6 50.8886 Q1016.6 44.3262 1020.98 40.9928 Q1025.39 37.6595 1034.1 37.6595 L1043.06 37.6595 L1043.06 37.0345 Q1043.06 32.6248 1040.14 30.229 Q1037.26 27.7985 1032.02 27.7985 Q1028.68 27.7985 1025.52 28.5971 Q1022.36 29.3957 1019.45 30.9929 L1019.45 25.0901 Q1022.95 23.736 1026.25 23.0763 Q1029.55 22.3818 1032.68 22.3818 Q1041.11 22.3818 1045.28 26.7568 Q1049.45 31.1318 1049.45 40.0206 Z" fill="#000000" fill-rule="nonzero" fill-opacity="1" /><path clip-path="url(#clip620)" d="M1062.61 8.18051 L1069 8.18051 L1069 62.208 L1062.61 62.208 L1062.61 8.18051 Z" fill="#000000" fill-rule="nonzero" fill-opacity="1" /><path clip-path="url(#clip620)" d="M1097.43 27.7985 Q1092.29 27.7985 1089.31 31.8262 Q1086.32 35.8193 1086.32 42.7984 Q1086.32 49.7775 1089.27 53.8053 Q1092.26 57.7983 1097.43 57.7983 Q1102.54 57.7983 1105.52 53.7705 Q1108.51 49.7428 1108.51 42.7984 Q1108.51 35.8887 1105.52 31.8609 Q1102.54 27.7985 1097.43 27.7985 M1097.43 22.3818 Q1105.77 22.3818 1110.52 27.7985 Q1115.28 33.2151 1115.28 42.7984 Q1115.28 52.3469 1110.52 57.7983 Q1105.77 63.2149 1097.43 63.2149 Q1089.07 63.2149 1084.31 57.7983 Q1079.59 52.3469 1079.59 42.7984 Q1079.59 33.2151 1084.31 27.7985 Q1089.07 22.3818 1097.43 22.3818 Z" fill="#000000" fill-rule="nonzero" fill-opacity="1" /><path clip-path="url(#clip620)" d="M1148.41 29.2915 Q1147.33 28.6665 1146.04 28.3887 Q1144.79 28.0762 1143.27 28.0762 Q1137.85 28.0762 1134.93 31.6179 Q1132.05 35.1248 1132.05 41.722 L1132.05 62.208 L1125.63 62.208 L1125.63 23.3193 L1132.05 23.3193 L1132.05 29.361 Q1134.07 25.8193 1137.29 24.1179 Q1140.52 22.3818 1145.14 22.3818 Q1145.8 22.3818 1146.6 22.486 Q1147.4 22.5554 1148.37 22.729 L1148.41 29.2915 Z" fill="#000000" fill-rule="nonzero" fill-opacity="1" /><path clip-path="url(#clip620)" d="M1210.97 41.1664 L1210.97 44.2914 L1181.6 44.2914 Q1182.02 50.8886 1185.56 54.3608 Q1189.13 57.7983 1195.49 57.7983 Q1199.17 57.7983 1202.61 56.8955 Q1206.08 55.9928 1209.48 54.1872 L1209.48 60.2288 Q1206.04 61.6872 1202.43 62.4511 Q1198.82 63.2149 1195.11 63.2149 Q1185.8 63.2149 1180.35 57.7983 Q1174.93 52.3817 1174.93 43.1456 Q1174.93 33.597 1180.07 28.0068 Q1185.25 22.3818 1194 22.3818 Q1201.84 22.3818 1206.39 27.4512 Q1210.97 32.4859 1210.97 41.1664 M1204.59 39.2915 Q1204.52 34.0484 1201.63 30.9234 Q1198.79 27.7985 1194.07 27.7985 Q1188.72 27.7985 1185.49 30.8193 Q1182.29 33.8401 1181.81 39.3262 L1204.59 39.2915 Z" fill="#000000" fill-rule="nonzero" fill-opacity="1" /><path clip-path="url(#clip620)" d="M1246.25 24.4651 L1246.25 30.5068 Q1243.54 29.1179 1240.63 28.4235 Q1237.71 27.729 1234.59 27.729 Q1229.83 27.729 1227.43 29.1873 Q1225.07 30.6457 1225.07 33.5623 Q1225.07 35.7845 1226.77 37.0692 Q1228.47 38.3192 1233.61 39.4651 L1235.8 39.9512 Q1242.61 41.4095 1245.45 44.0831 Q1248.34 46.722 1248.34 51.4789 Q1248.34 56.8955 1244.03 60.0552 Q1239.76 63.2149 1232.26 63.2149 Q1229.13 63.2149 1225.73 62.5899 Q1222.36 61.9997 1218.61 60.7844 L1218.61 54.1872 Q1222.16 56.0275 1225.59 56.965 Q1229.03 57.8677 1232.4 57.8677 Q1236.91 57.8677 1239.34 56.34 Q1241.77 54.7775 1241.77 51.965 Q1241.77 49.3608 1240 47.972 Q1238.27 46.5831 1232.33 45.2984 L1230.11 44.7775 Q1224.17 43.5275 1221.53 40.9581 Q1218.89 38.354 1218.89 33.8401 Q1218.89 28.354 1222.78 25.3679 Q1226.67 22.3818 1233.82 22.3818 Q1237.36 22.3818 1240.49 22.9027 Q1243.61 23.4235 1246.25 24.4651 Z" fill="#000000" fill-rule="nonzero" fill-opacity="1" /><path clip-path="url(#clip620)" d="M1264.69 56.3747 L1264.69 76.9996 L1258.27 76.9996 L1258.27 23.3193 L1264.69 23.3193 L1264.69 29.2221 Q1266.7 25.7499 1269.76 24.0832 Q1272.85 22.3818 1277.12 22.3818 Q1284.2 22.3818 1288.61 28.0068 Q1293.06 33.6318 1293.06 42.7984 Q1293.06 51.965 1288.61 57.59 Q1284.2 63.2149 1277.12 63.2149 Q1272.85 63.2149 1269.76 61.5483 Q1266.7 59.8469 1264.69 56.3747 M1286.43 42.7984 Q1286.43 35.7498 1283.51 31.7568 Q1280.63 27.729 1275.56 27.729 Q1270.49 27.729 1267.57 31.7568 Q1264.69 35.7498 1264.69 42.7984 Q1264.69 49.847 1267.57 53.8747 Q1270.49 57.8677 1275.56 57.8677 Q1280.63 57.8677 1283.51 53.8747 Q1286.43 49.847 1286.43 42.7984 Z" fill="#000000" fill-rule="nonzero" fill-opacity="1" /><path clip-path="url(#clip620)" d="M1336.91 41.1664 L1336.91 44.2914 L1307.54 44.2914 Q1307.95 50.8886 1311.49 54.3608 Q1315.07 57.7983 1321.43 57.7983 Q1325.11 57.7983 1328.54 56.8955 Q1332.02 55.9928 1335.42 54.1872 L1335.42 60.2288 Q1331.98 61.6872 1328.37 62.4511 Q1324.76 63.2149 1321.04 63.2149 Q1311.74 63.2149 1306.29 57.7983 Q1300.87 52.3817 1300.87 43.1456 Q1300.87 33.597 1306.01 28.0068 Q1311.18 22.3818 1319.93 22.3818 Q1327.78 22.3818 1332.33 27.4512 Q1336.91 32.4859 1336.91 41.1664 M1330.52 39.2915 Q1330.45 34.0484 1327.57 30.9234 Q1324.72 27.7985 1320 27.7985 Q1314.65 27.7985 1311.43 30.8193 Q1308.23 33.8401 1307.74 39.3262 L1330.52 39.2915 Z" fill="#000000" fill-rule="nonzero" fill-opacity="1" /><path clip-path="url(#clip620)" d="M1369.93 29.2915 Q1368.86 28.6665 1367.57 28.3887 Q1366.32 28.0762 1364.79 28.0762 Q1359.38 28.0762 1356.46 31.6179 Q1353.58 35.1248 1353.58 41.722 L1353.58 62.208 L1347.15 62.208 L1347.15 23.3193 L1353.58 23.3193 L1353.58 29.361 Q1355.59 25.8193 1358.82 24.1179 Q1362.05 22.3818 1366.67 22.3818 Q1367.33 22.3818 1368.13 22.486 Q1368.93 22.5554 1369.9 22.729 L1369.93 29.2915 Z" fill="#000000" fill-rule="nonzero" fill-opacity="1" /><path clip-path="url(#clip620)" d="M1394.31 42.6595 Q1386.56 42.6595 1383.58 44.4303 Q1380.59 46.2011 1380.59 50.472 Q1380.59 53.8747 1382.81 55.8886 Q1385.07 57.8677 1388.93 57.8677 Q1394.24 57.8677 1397.43 54.1178 Q1400.66 50.3331 1400.66 44.0831 L1400.66 42.6595 L1394.31 42.6595 M1407.05 40.0206 L1407.05 62.208 L1400.66 62.208 L1400.66 56.3053 Q1398.47 59.8469 1395.21 61.5483 Q1391.95 63.2149 1387.22 63.2149 Q1381.25 63.2149 1377.71 59.8816 Q1374.2 56.5136 1374.2 50.8886 Q1374.2 44.3262 1378.58 40.9928 Q1382.99 37.6595 1391.7 37.6595 L1400.66 37.6595 L1400.66 37.0345 Q1400.66 32.6248 1397.74 30.229 Q1394.86 27.7985 1389.62 27.7985 Q1386.29 27.7985 1383.13 28.5971 Q1379.97 29.3957 1377.05 30.9929 L1377.05 25.0901 Q1380.56 23.736 1383.86 23.0763 Q1387.15 22.3818 1390.28 22.3818 Q1398.72 22.3818 1402.88 26.7568 Q1407.05 31.1318 1407.05 40.0206 Z" fill="#000000" fill-rule="nonzero" fill-opacity="1" /><path clip-path="url(#clip620)" d="M1445.8 29.2221 L1445.8 8.18051 L1452.19 8.18051 L1452.19 62.208 L1445.8 62.208 L1445.8 56.3747 Q1443.79 59.8469 1440.7 61.5483 Q1437.64 63.2149 1433.33 63.2149 Q1426.29 63.2149 1421.84 57.59 Q1417.43 51.965 1417.43 42.7984 Q1417.43 33.6318 1421.84 28.0068 Q1426.29 22.3818 1433.33 22.3818 Q1437.64 22.3818 1440.7 24.0832 Q1443.79 25.7499 1445.8 29.2221 M1424.03 42.7984 Q1424.03 49.847 1426.91 53.8747 Q1429.83 57.8677 1434.9 57.8677 Q1439.97 57.8677 1442.88 53.8747 Q1445.8 49.847 1445.8 42.7984 Q1445.8 35.7498 1442.88 31.7568 Q1439.97 27.729 1434.9 27.729 Q1429.83 27.729 1426.91 31.7568 Q1424.03 35.7498 1424.03 42.7984 Z" fill="#000000" fill-rule="nonzero" fill-opacity="1" /><path clip-path="url(#clip620)" d="M1480.42 27.7985 Q1475.28 27.7985 1472.29 31.8262 Q1469.31 35.8193 1469.31 42.7984 Q1469.31 49.7775 1472.26 53.8053 Q1475.24 57.7983 1480.42 57.7983 Q1485.52 57.7983 1488.51 53.7705 Q1491.49 49.7428 1491.49 42.7984 Q1491.49 35.8887 1488.51 31.8609 Q1485.52 27.7985 1480.42 27.7985 M1480.42 22.3818 Q1488.75 22.3818 1493.51 27.7985 Q1498.26 33.2151 1498.26 42.7984 Q1498.26 52.3469 1493.51 57.7983 Q1488.75 63.2149 1480.42 63.2149 Q1472.05 63.2149 1467.29 57.7983 Q1462.57 52.3469 1462.57 42.7984 Q1462.57 33.2151 1467.29 27.7985 Q1472.05 22.3818 1480.42 22.3818 Z" fill="#000000" fill-rule="nonzero" fill-opacity="1" /><path clip-path="url(#clip620)" d="M1564.72 41.1664 L1564.72 44.2914 L1535.35 44.2914 Q1535.76 50.8886 1539.31 54.3608 Q1542.88 57.7983 1549.24 57.7983 Q1552.92 57.7983 1556.35 56.8955 Q1559.83 55.9928 1563.23 54.1872 L1563.23 60.2288 Q1559.79 61.6872 1556.18 62.4511 Q1552.57 63.2149 1548.85 63.2149 Q1539.55 63.2149 1534.1 57.7983 Q1528.68 52.3817 1528.68 43.1456 Q1528.68 33.597 1533.82 28.0068 Q1538.99 22.3818 1547.74 22.3818 Q1555.59 22.3818 1560.14 27.4512 Q1564.72 32.4859 1564.72 41.1664 M1558.33 39.2915 Q1558.26 34.0484 1555.38 30.9234 Q1552.54 27.7985 1547.81 27.7985 Q1542.47 27.7985 1539.24 30.8193 Q1536.04 33.8401 1535.56 39.3262 L1558.33 39.2915 Z" fill="#000000" fill-rule="nonzero" fill-opacity="1" /><path clip-path="url(#clip620)" d="M1597.81 23.3193 L1604.2 23.3193 L1604.2 62.208 L1597.81 62.208 L1597.81 23.3193 M1597.81 8.18051 L1604.2 8.18051 L1604.2 16.2707 L1597.81 16.2707 L1597.81 8.18051 Z" fill="#000000" fill-rule="nonzero" fill-opacity="1" /><path clip-path="url(#clip620)" d="M1649.9 38.7359 L1649.9 62.208 L1643.51 62.208 L1643.51 38.9442 Q1643.51 33.4234 1641.35 30.6804 Q1639.2 27.9374 1634.9 27.9374 Q1629.72 27.9374 1626.74 31.2359 Q1623.75 34.5345 1623.75 40.229 L1623.75 62.208 L1617.33 62.208 L1617.33 23.3193 L1623.75 23.3193 L1623.75 29.361 Q1626.04 25.854 1629.13 24.1179 Q1632.26 22.3818 1636.32 22.3818 Q1643.02 22.3818 1646.46 26.5485 Q1649.9 30.6804 1649.9 38.7359 Z" fill="#000000" fill-rule="nonzero" fill-opacity="1" /><path clip-path="url(#clip620)" d="M1668.96 12.2777 L1668.96 23.3193 L1682.12 23.3193 L1682.12 28.2846 L1668.96 28.2846 L1668.96 49.3956 Q1668.96 54.1525 1670.24 55.5066 Q1671.56 56.8608 1675.56 56.8608 L1682.12 56.8608 L1682.12 62.208 L1675.56 62.208 Q1668.16 62.208 1665.35 59.465 Q1662.53 56.6872 1662.53 49.3956 L1662.53 28.2846 L1657.85 28.2846 L1657.85 23.3193 L1662.53 23.3193 L1662.53 12.2777 L1668.96 12.2777 Z" fill="#000000" fill-rule="nonzero" fill-opacity="1" /><path clip-path="url(#clip620)" d="M1723.78 41.1664 L1723.78 44.2914 L1694.41 44.2914 Q1694.83 50.8886 1698.37 54.3608 Q1701.94 57.7983 1708.3 57.7983 Q1711.98 57.7983 1715.42 56.8955 Q1718.89 55.9928 1722.29 54.1872 L1722.29 60.2288 Q1718.85 61.6872 1715.24 62.4511 Q1711.63 63.2149 1707.92 63.2149 Q1698.61 63.2149 1693.16 57.7983 Q1687.74 52.3817 1687.74 43.1456 Q1687.74 33.597 1692.88 28.0068 Q1698.06 22.3818 1706.81 22.3818 Q1714.65 22.3818 1719.2 27.4512 Q1723.78 32.4859 1723.78 41.1664 M1717.4 39.2915 Q1717.33 34.0484 1714.44 30.9234 Q1711.6 27.7985 1706.87 27.7985 Q1701.53 27.7985 1698.3 30.8193 Q1695.1 33.8401 1694.62 39.3262 L1717.4 39.2915 Z" fill="#000000" fill-rule="nonzero" fill-opacity="1" /><path clip-path="url(#clip620)" d="M1756.81 29.2915 Q1755.73 28.6665 1754.44 28.3887 Q1753.19 28.0762 1751.67 28.0762 Q1746.25 28.0762 1743.33 31.6179 Q1740.45 35.1248 1740.45 41.722 L1740.45 62.208 L1734.03 62.208 L1734.03 23.3193 L1740.45 23.3193 L1740.45 29.361 Q1742.46 25.8193 1745.69 24.1179 Q1748.92 22.3818 1753.54 22.3818 Q1754.2 22.3818 1755 22.486 Q1755.8 22.5554 1756.77 22.729 L1756.81 29.2915 Z" fill="#000000" fill-rule="nonzero" fill-opacity="1" /><path clip-path="url(#clip620)" d="M1758.92 23.3193 L1765.69 23.3193 L1777.85 55.958 L1790 23.3193 L1796.77 23.3193 L1782.19 62.208 L1773.51 62.208 L1758.92 23.3193 Z" fill="#000000" fill-rule="nonzero" fill-opacity="1" /><path clip-path="url(#clip620)" d="M1823.26 42.6595 Q1815.52 42.6595 1812.53 44.4303 Q1809.55 46.2011 1809.55 50.472 Q1809.55 53.8747 1811.77 55.8886 Q1814.03 57.8677 1817.88 57.8677 Q1823.19 57.8677 1826.39 54.1178 Q1829.62 50.3331 1829.62 44.0831 L1829.62 42.6595 L1823.26 42.6595 M1836.01 40.0206 L1836.01 62.208 L1829.62 62.208 L1829.62 56.3053 Q1827.43 59.8469 1824.17 61.5483 Q1820.9 63.2149 1816.18 63.2149 Q1810.21 63.2149 1806.67 59.8816 Q1803.16 56.5136 1803.16 50.8886 Q1803.16 44.3262 1807.53 40.9928 Q1811.94 37.6595 1820.66 37.6595 L1829.62 37.6595 L1829.62 37.0345 Q1829.62 32.6248 1826.7 30.229 Q1823.82 27.7985 1818.58 27.7985 Q1815.24 27.7985 1812.08 28.5971 Q1808.92 29.3957 1806.01 30.9929 L1806.01 25.0901 Q1809.51 23.736 1812.81 23.0763 Q1816.11 22.3818 1819.24 22.3818 Q1827.67 22.3818 1831.84 26.7568 Q1836.01 31.1318 1836.01 40.0206 Z" fill="#000000" fill-rule="nonzero" fill-opacity="1" /><path clip-path="url(#clip620)" d="M1849.17 8.18051 L1855.55 8.18051 L1855.55 62.208 L1849.17 62.208 L1849.17 8.18051 Z" fill="#000000" fill-rule="nonzero" fill-opacity="1" /><path clip-path="url(#clip620)" d="M1883.99 27.7985 Q1878.85 27.7985 1875.87 31.8262 Q1872.88 35.8193 1872.88 42.7984 Q1872.88 49.7775 1875.83 53.8053 Q1878.82 57.7983 1883.99 57.7983 Q1889.1 57.7983 1892.08 53.7705 Q1895.07 49.7428 1895.07 42.7984 Q1895.07 35.8887 1892.08 31.8609 Q1889.1 27.7985 1883.99 27.7985 M1883.99 22.3818 Q1892.33 22.3818 1897.08 27.7985 Q1901.84 33.2151 1901.84 42.7984 Q1901.84 52.3469 1897.08 57.7983 Q1892.33 63.2149 1883.99 63.2149 Q1875.62 63.2149 1870.87 57.7983 Q1866.14 52.3469 1866.14 42.7984 Q1866.14 33.2151 1870.87 27.7985 Q1875.62 22.3818 1883.99 22.3818 Z" fill="#000000" fill-rule="nonzero" fill-opacity="1" /><path clip-path="url(#clip620)" d="M1937.22 24.4651 L1937.22 30.5068 Q1934.51 29.1179 1931.6 28.4235 Q1928.68 27.729 1925.55 27.729 Q1920.8 27.729 1918.4 29.1873 Q1916.04 30.6457 1916.04 33.5623 Q1916.04 35.7845 1917.74 37.0692 Q1919.44 38.3192 1924.58 39.4651 L1926.77 39.9512 Q1933.57 41.4095 1936.42 44.0831 Q1939.3 46.722 1939.3 51.4789 Q1939.3 56.8955 1935 60.0552 Q1930.73 63.2149 1923.23 63.2149 Q1920.1 63.2149 1916.7 62.5899 Q1913.33 61.9997 1909.58 60.7844 L1909.58 54.1872 Q1913.12 56.0275 1916.56 56.965 Q1920 57.8677 1923.37 57.8677 Q1927.88 57.8677 1930.31 56.34 Q1932.74 54.7775 1932.74 51.965 Q1932.74 49.3608 1930.97 47.972 Q1929.23 46.5831 1923.3 45.2984 L1921.08 44.7775 Q1915.14 43.5275 1912.5 40.9581 Q1909.86 38.354 1909.86 33.8401 Q1909.86 28.354 1913.75 25.3679 Q1917.64 22.3818 1924.79 22.3818 Q1928.33 22.3818 1931.46 22.9027 Q1934.58 23.4235 1937.22 24.4651 Z" fill="#000000" fill-rule="nonzero" fill-opacity="1" /><path clip-path="url(#clip620)" d="M1997.67 29.2221 L1997.67 8.18051 L2004.06 8.18051 L2004.06 62.208 L1997.67 62.208 L1997.67 56.3747 Q1995.66 59.8469 1992.57 61.5483 Q1989.51 63.2149 1985.21 63.2149 Q1978.16 63.2149 1973.71 57.59 Q1969.3 51.965 1969.3 42.7984 Q1969.3 33.6318 1973.71 28.0068 Q1978.16 22.3818 1985.21 22.3818 Q1989.51 22.3818 1992.57 24.0832 Q1995.66 25.7499 1997.67 29.2221 M1975.9 42.7984 Q1975.9 49.847 1978.78 53.8747 Q1981.7 57.8677 1986.77 57.8677 Q1991.84 57.8677 1994.76 53.8747 Q1997.67 49.847 1997.67 42.7984 Q1997.67 35.7498 1994.76 31.7568 Q1991.84 27.729 1986.77 27.729 Q1981.7 27.729 1978.78 31.7568 Q1975.9 35.7498 1975.9 42.7984 Z" fill="#000000" fill-rule="nonzero" fill-opacity="1" /><path clip-path="url(#clip620)" d="M2050.48 41.1664 L2050.48 44.2914 L2021.11 44.2914 Q2021.53 50.8886 2025.07 54.3608 Q2028.64 57.7983 2035 57.7983 Q2038.68 57.7983 2042.12 56.8955 Q2045.59 55.9928 2048.99 54.1872 L2048.99 60.2288 Q2045.55 61.6872 2041.94 62.4511 Q2038.33 63.2149 2034.62 63.2149 Q2025.31 63.2149 2019.86 57.7983 Q2014.44 52.3817 2014.44 43.1456 Q2014.44 33.597 2019.58 28.0068 Q2024.76 22.3818 2033.5 22.3818 Q2041.35 22.3818 2045.9 27.4512 Q2050.48 32.4859 2050.48 41.1664 M2044.1 39.2915 Q2044.03 34.0484 2041.14 30.9234 Q2038.3 27.7985 2033.57 27.7985 Q2028.23 27.7985 2025 30.8193 Q2021.8 33.8401 2021.32 39.3262 L2044.1 39.2915 Z" fill="#000000" fill-rule="nonzero" fill-opacity="1" /><path clip-path="url(#clip620)" d="M2111.56 24.8124 L2111.56 30.7846 Q2108.85 29.2915 2106.11 28.5623 Q2103.4 27.7985 2100.62 27.7985 Q2094.41 27.7985 2090.97 31.7568 Q2087.53 35.6804 2087.53 42.7984 Q2087.53 49.9164 2090.97 53.8747 Q2094.41 57.7983 2100.62 57.7983 Q2103.4 57.7983 2106.11 57.0691 Q2108.85 56.3053 2111.56 54.8122 L2111.56 60.715 Q2108.89 61.9649 2106 62.5899 Q2103.16 63.2149 2099.93 63.2149 Q2091.14 63.2149 2085.97 57.6941 Q2080.8 52.1733 2080.8 42.7984 Q2080.8 33.2845 2086 27.8332 Q2091.25 22.3818 2100.34 22.3818 Q2103.3 22.3818 2106.11 23.0068 Q2108.92 23.5971 2111.56 24.8124 Z" fill="#000000" fill-rule="nonzero" fill-opacity="1" /><path clip-path="url(#clip620)" d="M2137.74 27.7985 Q2132.6 27.7985 2129.62 31.8262 Q2126.63 35.8193 2126.63 42.7984 Q2126.63 49.7775 2129.58 53.8053 Q2132.57 57.7983 2137.74 57.7983 Q2142.84 57.7983 2145.83 53.7705 Q2148.82 49.7428 2148.82 42.7984 Q2148.82 35.8887 2145.83 31.8609 Q2142.84 27.7985 2137.74 27.7985 M2137.74 22.3818 Q2146.07 22.3818 2150.83 27.7985 Q2155.59 33.2151 2155.59 42.7984 Q2155.59 52.3469 2150.83 57.7983 Q2146.07 63.2149 2137.74 63.2149 Q2129.37 63.2149 2124.62 57.7983 Q2119.89 52.3469 2119.89 42.7984 Q2119.89 33.2151 2124.62 27.7985 Q2129.37 22.3818 2137.74 22.3818 Z" fill="#000000" fill-rule="nonzero" fill-opacity="1" /><path clip-path="url(#clip620)" d="M2198.5 38.7359 L2198.5 62.208 L2192.12 62.208 L2192.12 38.9442 Q2192.12 33.4234 2189.96 30.6804 Q2187.81 27.9374 2183.5 27.9374 Q2178.33 27.9374 2175.34 31.2359 Q2172.36 34.5345 2172.36 40.229 L2172.36 62.208 L2165.93 62.208 L2165.93 23.3193 L2172.36 23.3193 L2172.36 29.361 Q2174.65 25.854 2177.74 24.1179 Q2180.87 22.3818 2184.93 22.3818 Q2191.63 22.3818 2195.07 26.5485 Q2198.5 30.6804 2198.5 38.7359 Z" fill="#000000" fill-rule="nonzero" fill-opacity="1" /><path clip-path="url(#clip620)" d="M2230.93 8.18051 L2230.93 13.493 L2224.82 13.493 Q2221.39 13.493 2220.03 14.8819 Q2218.71 16.2707 2218.71 19.8818 L2218.71 23.3193 L2229.23 23.3193 L2229.23 28.2846 L2218.71 28.2846 L2218.71 62.208 L2212.29 62.208 L2212.29 28.2846 L2206.18 28.2846 L2206.18 23.3193 L2212.29 23.3193 L2212.29 20.611 Q2212.29 14.118 2215.31 11.1666 Q2218.33 8.18051 2224.89 8.18051 L2230.93 8.18051 Z" fill="#000000" fill-rule="nonzero" fill-opacity="1" /><path clip-path="url(#clip620)" d="M2236.28 23.3193 L2242.67 23.3193 L2242.67 62.208 L2236.28 62.208 L2236.28 23.3193 M2236.28 8.18051 L2242.67 8.18051 L2242.67 16.2707 L2236.28 16.2707 L2236.28 8.18051 Z" fill="#000000" fill-rule="nonzero" fill-opacity="1" /><path clip-path="url(#clip620)" d="M2273.71 42.6595 Q2265.97 42.6595 2262.98 44.4303 Q2260 46.2011 2260 50.472 Q2260 53.8747 2262.22 55.8886 Q2264.48 57.8677 2268.33 57.8677 Q2273.64 57.8677 2276.84 54.1178 Q2280.07 50.3331 2280.07 44.0831 L2280.07 42.6595 L2273.71 42.6595 M2286.45 40.0206 L2286.45 62.208 L2280.07 62.208 L2280.07 56.3053 Q2277.88 59.8469 2274.61 61.5483 Q2271.35 63.2149 2266.63 63.2149 Q2260.66 63.2149 2257.11 59.8816 Q2253.61 56.5136 2253.61 50.8886 Q2253.61 44.3262 2257.98 40.9928 Q2262.39 37.6595 2271.11 37.6595 L2280.07 37.6595 L2280.07 37.0345 Q2280.07 32.6248 2277.15 30.229 Q2274.27 27.7985 2269.02 27.7985 Q2265.69 27.7985 2262.53 28.5971 Q2259.37 29.3957 2256.46 30.9929 L2256.46 25.0901 Q2259.96 23.736 2263.26 23.0763 Q2266.56 22.3818 2269.68 22.3818 Q2278.12 22.3818 2282.29 26.7568 Q2286.45 31.1318 2286.45 40.0206 Z" fill="#000000" fill-rule="nonzero" fill-opacity="1" /><path clip-path="url(#clip620)" d="M2331.94 38.7359 L2331.94 62.208 L2325.55 62.208 L2325.55 38.9442 Q2325.55 33.4234 2323.4 30.6804 Q2321.25 27.9374 2316.94 27.9374 Q2311.77 27.9374 2308.78 31.2359 Q2305.8 34.5345 2305.8 40.229 L2305.8 62.208 L2299.37 62.208 L2299.37 23.3193 L2305.8 23.3193 L2305.8 29.361 Q2308.09 25.854 2311.18 24.1179 Q2314.3 22.3818 2318.36 22.3818 Q2325.07 22.3818 2328.5 26.5485 Q2331.94 30.6804 2331.94 38.7359 Z" fill="#000000" fill-rule="nonzero" fill-opacity="1" /><path clip-path="url(#clip620)" d="M2372.67 24.8124 L2372.67 30.7846 Q2369.96 29.2915 2367.22 28.5623 Q2364.51 27.7985 2361.73 27.7985 Q2355.52 27.7985 2352.08 31.7568 Q2348.64 35.6804 2348.64 42.7984 Q2348.64 49.9164 2352.08 53.8747 Q2355.52 57.7983 2361.73 57.7983 Q2364.51 57.7983 2367.22 57.0691 Q2369.96 56.3053 2372.67 54.8122 L2372.67 60.715 Q2370 61.9649 2367.11 62.5899 Q2364.27 63.2149 2361.04 63.2149 Q2352.25 63.2149 2347.08 57.6941 Q2341.91 52.1733 2341.91 42.7984 Q2341.91 33.2845 2347.11 27.8332 Q2352.36 22.3818 2361.45 22.3818 Q2364.41 22.3818 2367.22 23.0068 Q2370.03 23.5971 2372.67 24.8124 M2363.64 62.208 Q2365.55 64.3608 2366.49 66.1663 Q2367.43 68.0066 2367.43 69.6732 Q2367.43 72.7635 2365.34 74.326 Q2363.26 75.9232 2359.16 75.9232 Q2357.57 75.9232 2356.04 75.7149 Q2354.54 75.5065 2353.05 75.0899 L2353.05 70.5413 Q2354.23 71.1316 2355.52 71.3746 Q2356.8 71.6524 2358.43 71.6524 Q2360.48 71.6524 2361.52 70.8191 Q2362.57 69.9857 2362.57 68.3885 Q2362.57 67.3469 2361.8 65.8191 Q2361.07 64.326 2359.51 62.208 L2363.64 62.208 Z" fill="#000000" fill-rule="nonzero" fill-opacity="1" /><path clip-path="url(#clip620)" d="M2401.45 42.6595 Q2393.71 42.6595 2390.73 44.4303 Q2387.74 46.2011 2387.74 50.472 Q2387.74 53.8747 2389.96 55.8886 Q2392.22 57.8677 2396.07 57.8677 Q2401.38 57.8677 2404.58 54.1178 Q2407.81 50.3331 2407.81 44.0831 L2407.81 42.6595 L2401.45 42.6595 M2414.2 40.0206 L2414.2 62.208 L2407.81 62.208 L2407.81 56.3053 Q2405.62 59.8469 2402.36 61.5483 Q2399.09 63.2149 2394.37 63.2149 Q2388.4 63.2149 2384.86 59.8816 Q2381.35 56.5136 2381.35 50.8886 Q2381.35 44.3262 2385.73 40.9928 Q2390.13 37.6595 2398.85 37.6595 L2407.81 37.6595 L2407.81 37.0345 Q2407.81 32.6248 2404.89 30.229 Q2402.01 27.7985 2396.77 27.7985 Q2393.43 27.7985 2390.27 28.5971 Q2387.11 29.3957 2384.2 30.9929 L2384.2 25.0901 Q2387.7 23.736 2391 23.0763 Q2394.3 22.3818 2397.43 22.3818 Q2405.86 22.3818 2410.03 26.7568 Q2414.2 31.1318 2414.2 40.0206 Z" fill="#000000" fill-rule="nonzero" fill-opacity="1" /><path clip-path="url(#clip622)" d="M316.418 2145.95 L330.256 2125.84 L344.094 2104.6 L357.932 2082.22 L371.769 2058.65 L385.607 2033.91 L399.445 2007.99 L413.283 1980.83 L427.121 1952.36 L440.958 1922.65 L454.796 1891.72 L468.634 1859.61 L482.472 1826.34 L496.31 1791.94 L510.148 1756.45 L523.985 1719.94 L537.823 1682.46 L551.661 1644.09 L565.499 1604.91 L579.337 1565.01 L593.174 1524.48 L607.012 1483.44 L620.85 1441.95 L634.688 1400.17 L648.526 1358.29 L662.364 1316.65 L676.201 1275.13 L690.039 1233.66 L703.877 1192.5 L717.715 1151.67 L731.553 1111.23 L745.39 1071.25 L759.228 1032.03 L773.066 993.748 L786.904 955.904 L800.742 919.187 L814.58 883.959 L828.417 849.998 L842.255 817.011 L856.093 785.036 L869.931 754.233 L883.769 724.859 L897.606 697.324 L911.444 670.329 L925.282 644.198 L939.12 619.61 L952.958 596.283 L966.796 573.998 L980.633 552.471 L994.471 532.029 L1008.31 512.682 L1022.15 494.384 L1035.98 477.112 L1049.82 460.84 L1063.66 446.252 L1077.5 432.766 L1091.34 420.309 L1105.17 408.866 L1119.01 397.83 L1132.85 387.28 L1146.69 377.773 L1160.53 370.12 L1174.36 362.819 L1188.2 355.165 L1202.04 347.982 L1215.88 341.453 L1229.71 334.744 L1243.55 328.42 L1257.39 322.691 L1271.23 317.429 L1285.07 312.618 L1298.9 308.148 L1312.74 303.988 L1326.58 300.17 L1340.42 296.727 L1354.25 293.615 L1368.09 290.716 L1381.93 288.095 L1395.77 285.66 L1409.61 283.212 L1423.44 281.044 L1437.28 279.047 L1451.12 277.243 L1464.96 275.465 L1478.79 273.748 L1492.63 272.18 L1506.47 270.791 L1520.31 269.71 L1534.15 268.727 L1547.98 267.814 L1561.82 266.813 L1575.66 265.798 L1589.5 264.929 L1603.34 264.085 L1617.17 263.242 L1631.01 262.5 L1644.85 261.839 L1658.69 261.226 L1672.52 260.657 L1686.36 260.13 L1700.2 259.642 L1714.04 259.191 L1727.88 258.773 L1741.71 258.387 L1755.55 258.03 L1769.39 257.7 L1783.23 257.394 L1797.06 257.109 L1810.9 256.844 L1824.74 256.597 L1838.58 256.365 L1852.42 256.149 L1866.25 255.946 L1880.09 255.757 L1893.93 255.58 L1907.77 255.416 L1921.61 255.264 L1935.44 255.123 L1949.28 254.994 L1963.12 254.876 L1976.96 254.768 L1990.79 254.669 L2004.63 254.579 L2018.47 254.498 L2032.31 254.424 L2046.15 254.356 L2059.98 254.295 L2073.82 254.239 L2087.66 254.186 L2101.5 254.137 L2115.33 254.091 L2129.17 254.046 L2143.01 254.004 L2156.85 253.963 L2170.69 253.923 L2184.52 253.885 L2198.36 253.85 L2212.2 253.816 L2226.04 253.785 L2239.87 253.757 L2253.71 253.73 L2267.55 253.706 L2281.39 253.684 L2295.23 253.664 L2309.06 253.645 L2322.9 253.629 L2336.74 253.614 L2350.58 253.601 L2364.42 253.589 L2378.25 253.579 L2392.09 253.569 L2405.93 253.561 L2419.77 253.553 L2433.6 253.545 L2447.44 253.538 L2461.28 253.531 L2475.12 253.524 L2488.96 253.517 L2502.79 253.51 L2516.63 253.503 L2530.47 253.496 L2544.31 253.489 L2558.14 253.482 L2571.98 253.476 L2585.82 253.47 L2599.66 253.464 L2613.5 253.459 L2627.33 253.454 L2641.17 253.45 L2655.01 253.446 L2668.85 253.443 L2682.69 253.44 L2696.52 253.437 L2710.36 253.435 L2724.2 253.434 L2738.04 253.433 L2751.87 253.432 L2765.71 253.432 L2779.55 253.432 L2793.39 253.432 L2807.23 253.433 L2821.06 253.434 L2834.9 253.435 L2848.74 253.436 L2862.58 253.437 L2876.41 253.438 L2890.25 253.438 L2904.09 253.439 L2917.93 253.439 L2931.77 253.439 L2945.6 253.439 L2959.44 253.438 L2973.28 253.438 L2987.12 253.437 L3000.96 253.436 L3014.79 253.434 L3028.63 253.433 L3042.47 253.432 L3056.31 253.432 L3070.14 253.431 L3070.14 180.282 L3056.31 180.283 L3042.47 180.284 L3028.63 180.285 L3014.79 180.286 L3000.96 180.287 L2987.12 180.288 L2973.28 180.288 L2959.44 180.289 L2945.6 180.29 L2931.77 180.29 L2917.93 180.29 L2904.09 180.29 L2890.25 180.29 L2876.41 180.289 L2862.58 180.288 L2848.74 180.288 L2834.9 180.287 L2821.06 180.286 L2807.23 180.285 L2793.39 180.284 L2779.55 180.284 L2765.71 180.283 L2751.87 180.284 L2738.04 180.284 L2724.2 180.285 L2710.36 180.286 L2696.52 180.288 L2682.69 180.29 L2668.85 180.292 L2655.01 180.295 L2641.17 180.299 L2627.33 180.303 L2613.5 180.307 L2599.66 180.312 L2585.82 180.317 L2571.98 180.322 L2558.14 180.328 L2544.31 180.334 L2530.47 180.341 L2516.63 180.347 L2502.79 180.354 L2488.96 180.36 L2475.12 180.367 L2461.28 180.373 L2447.44 180.379 L2433.6 180.385 L2419.77 180.391 L2405.93 180.397 L2392.09 180.404 L2378.25 180.411 L2364.42 180.42 L2350.58 180.429 L2336.74 180.439 L2322.9 180.452 L2309.06 180.465 L2295.23 180.48 L2281.39 180.497 L2267.55 180.516 L2253.71 180.537 L2239.87 180.56 L2226.04 180.586 L2212.2 180.613 L2198.36 180.643 L2184.52 180.674 L2170.69 180.709 L2156.85 180.745 L2143.01 180.783 L2129.17 180.823 L2115.33 180.865 L2101.5 180.908 L2087.66 180.953 L2073.82 180.999 L2059.98 181.049 L2046.15 181.103 L2032.31 181.162 L2018.47 181.226 L2004.63 181.296 L1990.79 181.373 L1976.96 181.458 L1963.12 181.552 L1949.28 181.654 L1935.44 181.765 L1921.61 181.887 L1907.77 182.019 L1893.93 182.163 L1880.09 182.317 L1866.25 182.484 L1852.42 182.663 L1838.58 182.855 L1824.74 183.059 L1810.9 183.277 L1797.06 183.509 L1783.23 183.756 L1769.39 184.022 L1755.55 184.308 L1741.71 184.616 L1727.88 184.95 L1714.04 185.311 L1700.2 185.7 L1686.36 186.121 L1672.52 186.576 L1658.69 187.069 L1644.85 187.602 L1631.01 188.177 L1617.17 188.897 L1603.34 189.673 L1589.5 190.498 L1575.66 191.381 L1561.82 192.323 L1547.98 193.331 L1534.15 194.412 L1520.31 195.575 L1506.47 196.829 L1492.63 198.184 L1478.79 199.648 L1464.96 201.098 L1451.12 202.582 L1437.28 204.183 L1423.44 205.969 L1409.61 207.958 L1395.77 210.106 L1381.93 212.421 L1368.09 214.865 L1354.25 217.943 L1340.42 221.24 L1326.58 224.408 L1312.74 227.674 L1298.9 231.022 L1285.07 234.545 L1271.23 238.336 L1257.39 242.413 L1243.55 247.068 L1229.71 252.09 L1215.88 257.483 L1202.04 263.261 L1188.2 269.474 L1174.36 276.766 L1160.53 284.491 L1146.69 292.733 L1132.85 301.535 L1119.01 310.869 L1105.17 320.075 L1091.34 329.923 L1077.5 340.549 L1063.66 351.942 L1049.82 363.919 L1035.98 377.149 L1022.15 389.982 L1008.31 404.003 L994.471 419.316 L980.633 434.974 L966.796 451.397 L952.958 468.786 L939.12 486.939 L925.282 506.476 L911.444 526.531 L897.606 547.569 L883.769 570.091 L869.931 593.176 L856.093 617.648 L842.255 642.865 L828.417 669.246 L814.58 698.266 L800.742 727.209 L786.904 757.362 L773.066 788.67 L759.228 821.135 L745.39 854.787 L731.553 890.146 L717.715 926.134 L703.877 962.71 L690.039 1000.89 L676.201 1039.87 L662.364 1079.45 L648.526 1120 L634.688 1160.93 L620.85 1202.08 L607.012 1243.95 L593.174 1286.18 L579.337 1328.34 L565.499 1370.42 L551.661 1412.18 L537.823 1453.42 L523.985 1494.57 L510.148 1535.32 L496.31 1575.53 L482.472 1615.11 L468.634 1653.95 L454.796 1691.98 L440.958 1729.1 L427.121 1765.26 L413.283 1800.39 L399.445 1834.43 L385.607 1867.35 L371.769 1899.1 L357.932 1929.68 L344.094 1959.05 L330.256 1987.21 L316.418 2014.15  Z" fill="#009af9" fill-rule="evenodd" fill-opacity="0.2"/>
<polyline clip-path="url(#clip622)" style="stroke:#009af9; stroke-linecap:round; stroke-linejoin:round; stroke-width:12; stroke-opacity:1; fill:none" points="316.418,2088.24 330.256,2064.89 344.094,2040.35 357.932,2014.61 371.769,1987.66 385.607,1959.5 399.445,1930.19 413.283,1899.68 427.121,1867.99 440.958,1835.14 454.796,1801.16 468.634,1766.1 482.472,1730.01 496.31,1692.95 510.148,1654.98 523.985,1616.16 537.823,1576.58 551.661,1536.22 565.499,1495.16 579.337,1453.63 593.174,1411.48 607.012,1369.02 620.85,1326.41 634.688,1283.77 648.526,1241.23 662.364,1198.9 676.201,1157.07 690.039,1116.2 703.877,1076.45 717.715,1037.62 731.553,999.085 745.39,960.728 759.228,923.793 773.066,887.942 786.904,853.242 800.742,820.249 814.58,788.154 828.417,756.852 842.255,726.746 856.093,697.395 869.931,669.45 883.769,644.103 897.606,619.895 911.444,596.619 925.282,573.543 939.12,551.616 952.958,531.26 966.796,511.609 980.633,493.303 994.471,475.261 1008.31,459.447 1022.15,444.969 1035.98,429.658 1049.82,414.925 1063.66,401.192 1077.5,389.063 1091.34,377.869 1105.17,367.276 1119.01,358.35 1132.85,349.858 1146.69,341.426 1160.53,333.353 1174.36,326.079 1188.2,319.192 1202.04,312.49 1215.88,306.237 1229.71,299.939 1243.55,294.371 1257.39,289.403 1271.23,285.123 1285.07,280.421 1298.9,276.341 1312.74,272.347 1326.58,269.279 1340.42,266.123 1354.25,262.955 1368.09,260.276 1381.93,257.487 1395.77,254.97 1409.61,252.778 1423.44,250.474 1437.28,248.385 1451.12,246.598 1464.96,245.109 1478.79,243.485 1492.63,241.81 1506.47,240.323 1520.31,239.243 1534.15,238.275 1547.98,237.186 1561.82,236.294 1575.66,235.424 1589.5,234.552 1603.34,233.821 1617.17,233.139 1631.01,232.5 1644.85,231.793 1658.69,231.137 1672.52,230.53 1686.36,229.969 1700.2,229.449 1714.04,228.97 1727.88,228.557 1741.71,228.174 1755.55,227.821 1769.39,227.493 1783.23,227.189 1797.06,226.906 1810.9,226.642 1824.74,226.394 1838.58,226.161 1852.42,225.943 1866.25,225.739 1880.09,225.55 1893.93,225.373 1907.77,225.21 1921.61,225.06 1935.44,224.922 1949.28,224.795 1963.12,224.679 1976.96,224.573 1990.79,224.477 2004.63,224.389 2018.47,224.309 2032.31,224.237 2046.15,224.171 2059.98,224.11 2073.82,224.054 2087.66,224.001 2101.5,223.951 2115.33,223.902 2129.17,223.854 2143.01,223.807 2156.85,223.764 2170.69,223.722 2184.52,223.684 2198.36,223.648 2212.2,223.615 2226.04,223.584 2239.87,223.555 2253.71,223.529 2267.55,223.506 2281.39,223.484 2295.23,223.465 2309.06,223.447 2322.9,223.432 2336.74,223.418 2350.58,223.406 2364.42,223.395 2378.25,223.385 2392.09,223.376 2405.93,223.368 2419.77,223.36 2433.6,223.353 2447.44,223.346 2461.28,223.338 2475.12,223.33 2488.96,223.322 2502.79,223.314 2516.63,223.306 2530.47,223.298 2544.31,223.291 2558.14,223.284 2571.98,223.278 2585.82,223.272 2599.66,223.266 2613.5,223.261 2627.33,223.257 2641.17,223.253 2655.01,223.249 2668.85,223.246 2682.69,223.244 2696.52,223.242 2710.36,223.24 2724.2,223.239 2738.04,223.239 2751.87,223.239 2765.71,223.239 2779.55,223.239 2793.39,223.24 2807.23,223.241 2821.06,223.242 2834.9,223.243 2848.74,223.244 2862.58,223.245 2876.41,223.246 2890.25,223.247 2904.09,223.247 2917.93,223.246 2931.77,223.245 2945.6,223.243 2959.44,223.242 2973.28,223.241 2987.12,223.24 3000.96,223.239 3014.79,223.238 3028.63,223.237 3042.47,223.236 3056.31,223.235 3070.14,223.234 "/>
<path clip-path="url(#clip622)" d="M316.418 2133.13 L330.256 2112.18 L344.094 2090.11 L357.932 2066.72 L371.769 2042.12 L385.607 2016.29 L399.445 1989.23 L413.283 1960.93 L427.121 1931.59 L440.958 1901.08 L454.796 1869.37 L468.634 1836.9 L482.472 1803.31 L496.31 1768.62 L510.148 1732.54 L523.985 1695.03 L537.823 1656.52 L551.661 1617.05 L565.499 1577.14 L579.337 1536.75 L593.174 1495.79 L607.012 1454.37 L620.85 1412.61 L634.688 1370.61 L648.526 1328.5 L662.364 1286.4 L676.201 1245.22 L690.039 1204.79 L703.877 1163.92 L717.715 1122.96 L731.553 1082.57 L745.39 1042.86 L759.228 1003.91 L773.066 965.814 L786.904 928.89 L800.742 892.646 L814.58 857.361 L828.417 823.123 L842.255 790.189 L856.093 759.262 L869.931 729.873 L883.769 701.396 L897.606 673.549 L911.444 647.128 L925.282 622.114 L939.12 598.197 L952.958 575.844 L966.796 554.67 L980.633 533.831 L994.471 514.529 L1008.31 496.113 L1022.15 478.288 L1035.98 461.527 L1049.82 446.171 L1063.66 431.12 L1077.5 419.309 L1091.34 407.041 L1105.17 394.681 L1119.01 383.869 L1132.85 374.114 L1146.69 364.38 L1160.53 355.174 L1174.36 346.654 L1188.2 339.248 L1202.04 331.836 L1215.88 325.692 L1229.71 319.737 L1243.55 313.879 L1257.39 308.605 L1271.23 303.61 L1285.07 298.686 L1298.9 293.768 L1312.74 289.605 L1326.58 286.458 L1340.42 283.362 L1354.25 280.654 L1368.09 278.059 L1381.93 275.551 L1395.77 273.371 L1409.61 271.315 L1423.44 269.322 L1437.28 267.609 L1451.12 266.018 L1464.96 264.544 L1478.79 263.12 L1492.63 261.726 L1506.47 260.385 L1520.31 259.167 L1534.15 258.197 L1547.98 257.347 L1561.82 256.486 L1575.66 255.612 L1589.5 254.772 L1603.34 253.982 L1617.17 253.238 L1631.01 252.526 L1644.85 251.864 L1658.69 251.251 L1672.52 250.682 L1686.36 250.156 L1700.2 249.67 L1714.04 249.219 L1727.88 248.803 L1741.71 248.419 L1755.55 248.036 L1769.39 247.734 L1783.23 247.448 L1797.06 247.174 L1810.9 246.919 L1824.74 246.68 L1838.58 246.456 L1852.42 246.245 L1866.25 246.047 L1880.09 245.858 L1893.93 245.694 L1907.77 245.555 L1921.61 245.427 L1935.44 245.298 L1949.28 245.17 L1963.12 245.052 L1976.96 244.945 L1990.79 244.846 L2004.63 244.756 L2018.47 244.672 L2032.31 244.592 L2046.15 244.516 L2059.98 244.444 L2073.82 244.375 L2087.66 244.321 L2101.5 244.271 L2115.33 244.223 L2129.17 244.176 L2143.01 244.131 L2156.85 244.087 L2170.69 244.045 L2184.52 244.004 L2198.36 243.964 L2212.2 243.926 L2226.04 243.891 L2239.87 243.86 L2253.71 243.831 L2267.55 243.805 L2281.39 243.782 L2295.23 243.76 L2309.06 243.741 L2322.9 243.724 L2336.74 243.709 L2350.58 243.695 L2364.42 243.682 L2378.25 243.67 L2392.09 243.659 L2405.93 243.649 L2419.77 243.638 L2433.6 243.627 L2447.44 243.617 L2461.28 243.606 L2475.12 243.596 L2488.96 243.586 L2502.79 243.576 L2516.63 243.567 L2530.47 243.559 L2544.31 243.551 L2558.14 243.543 L2571.98 243.536 L2585.82 243.53 L2599.66 243.525 L2613.5 243.52 L2627.33 243.516 L2641.17 243.512 L2655.01 243.509 L2668.85 243.507 L2682.69 243.505 L2696.52 243.504 L2710.36 243.503 L2724.2 243.502 L2738.04 243.502 L2751.87 243.503 L2765.71 243.503 L2779.55 243.504 L2793.39 243.504 L2807.23 243.505 L2821.06 243.505 L2834.9 243.505 L2848.74 243.505 L2862.58 243.504 L2876.41 243.503 L2890.25 243.502 L2904.09 243.5 L2917.93 243.499 L2931.77 243.498 L2945.6 243.497 L2959.44 243.495 L2973.28 243.494 L2987.12 243.493 L3000.96 243.492 L3014.79 243.491 L3028.63 243.49 L3042.47 243.489 L3056.31 243.489 L3070.14 243.488 L3070.14 197.555 L3056.31 197.556 L3042.47 197.557 L3028.63 197.558 L3014.79 197.558 L3000.96 197.558 L2987.12 197.558 L2973.28 197.557 L2959.44 197.557 L2945.6 197.556 L2931.77 197.555 L2917.93 197.554 L2904.09 197.554 L2890.25 197.553 L2876.41 197.553 L2862.58 197.552 L2848.74 197.552 L2834.9 197.552 L2821.06 197.552 L2807.23 197.552 L2793.39 197.553 L2779.55 197.553 L2765.71 197.554 L2751.87 197.556 L2738.04 197.557 L2724.2 197.559 L2710.36 197.562 L2696.52 197.564 L2682.69 197.567 L2668.85 197.571 L2655.01 197.574 L2641.17 197.578 L2627.33 197.582 L2613.5 197.587 L2599.66 197.591 L2585.82 197.596 L2571.98 197.601 L2558.14 197.606 L2544.31 197.61 L2530.47 197.614 L2516.63 197.618 L2502.79 197.621 L2488.96 197.625 L2475.12 197.629 L2461.28 197.633 L2447.44 197.638 L2433.6 197.643 L2419.77 197.649 L2405.93 197.655 L2392.09 197.663 L2378.25 197.671 L2364.42 197.681 L2350.58 197.692 L2336.74 197.704 L2322.9 197.718 L2309.06 197.733 L2295.23 197.75 L2281.39 197.769 L2267.55 197.789 L2253.71 197.811 L2239.87 197.835 L2226.04 197.86 L2212.2 197.887 L2198.36 197.916 L2184.52 197.946 L2170.69 197.977 L2156.85 198.01 L2143.01 198.044 L2129.17 198.079 L2115.33 198.117 L2101.5 198.158 L2087.66 198.202 L2073.82 198.249 L2059.98 198.301 L2046.15 198.357 L2032.31 198.419 L2018.47 198.487 L2004.63 198.561 L1990.79 198.642 L1976.96 198.734 L1963.12 198.845 L1949.28 198.967 L1935.44 199.1 L1921.61 199.245 L1907.77 199.403 L1893.93 199.58 L1880.09 199.777 L1866.25 199.99 L1852.42 200.218 L1838.58 200.464 L1824.74 200.727 L1810.9 201.008 L1797.06 201.309 L1783.23 201.652 L1769.39 202.025 L1755.55 202.412 L1741.71 202.736 L1727.88 203.127 L1714.04 203.568 L1700.2 204.045 L1686.36 204.512 L1672.52 205.004 L1658.69 205.536 L1644.85 206.111 L1631.01 206.733 L1617.17 207.421 L1603.34 208.174 L1589.5 208.984 L1575.66 209.873 L1561.82 210.922 L1547.98 212.044 L1534.15 213.242 L1520.31 214.524 L1506.47 215.903 L1492.63 217.388 L1478.79 218.992 L1464.96 220.724 L1451.12 222.35 L1437.28 223.874 L1423.44 225.526 L1409.61 227.316 L1395.77 229.418 L1381.93 232.012 L1368.09 235.078 L1354.25 237.822 L1340.42 240.701 L1326.58 243.963 L1312.74 247.492 L1298.9 251.352 L1285.07 254.955 L1271.23 259.162 L1257.39 264.077 L1243.55 268.395 L1229.71 273.832 L1215.88 279.356 L1202.04 284.876 L1188.2 291.308 L1174.36 298.134 L1160.53 305.643 L1146.69 313.599 L1132.85 321.569 L1119.01 329.684 L1105.17 339.134 L1091.34 349.727 L1077.5 359.807 L1063.66 370.505 L1049.82 381.47 L1035.98 392.614 L1022.15 405.044 L1008.31 418.269 L994.471 432.429 L980.633 448.973 L966.796 466.891 L952.958 484.983 L939.12 503.226 L925.282 522.808 L911.444 543.166 L897.606 565.264 L883.769 589.15 L869.931 612.557 L856.093 638.12 L842.255 665.636 L828.417 692.007 L814.58 720.908 L800.742 751.198 L786.904 782.145 L773.066 813.91 L759.228 847.305 L745.39 881.762 L731.553 917.19 L717.715 953.444 L703.877 990.059 L690.039 1028.12 L676.201 1067.51 L662.364 1107.38 L648.526 1147.99 L634.688 1188.94 L620.85 1230.95 L607.012 1272.64 L593.174 1314.63 L579.337 1356.73 L565.499 1398.76 L551.661 1440.63 L537.823 1482.2 L523.985 1523.34 L510.148 1563.98 L496.31 1604.16 L482.472 1643.71 L468.634 1682.13 L454.796 1719.22 L440.958 1755.66 L427.121 1791.27 L413.283 1825.81 L399.445 1859.21 L385.607 1891.29 L371.769 1922.25 L357.932 1952.01 L344.094 1980.54 L330.256 2007.85 L316.418 2033.94  Z" fill="#e26f46" fill-rule="evenodd" fill-opacity="0.2"/>
<polyline clip-path="url(#clip622)" style="stroke:#e26f46; stroke-linecap:round; stroke-linejoin:round; stroke-width:12; stroke-opacity:1; fill:none" points="316.418,2088.24 330.256,2064.89 344.094,2040.35 357.932,2014.61 371.769,1987.66 385.607,1959.5 399.445,1930.19 413.283,1899.68 427.121,1867.99 440.958,1835.14 454.796,1801.16 468.634,1766.1 482.472,1730.01 496.31,1692.95 510.148,1654.98 523.985,1616.16 537.823,1576.58 551.661,1536.22 565.499,1495.16 579.337,1453.63 593.174,1411.48 607.012,1369.02 620.85,1326.41 634.688,1283.77 648.526,1241.23 662.364,1198.9 676.201,1157.07 690.039,1116.2 703.877,1076.45 717.715,1037.62 731.553,999.085 745.39,960.728 759.228,923.793 773.066,887.942 786.904,853.242 800.742,820.249 814.58,788.154 828.417,756.852 842.255,726.746 856.093,697.395 869.931,669.45 883.769,644.103 897.606,619.895 911.444,596.619 925.282,573.543 939.12,551.616 952.958,531.26 966.796,511.609 980.633,493.303 994.471,475.261 1008.31,459.447 1022.15,444.969 1035.98,429.658 1049.82,414.925 1063.66,401.192 1077.5,389.063 1091.34,377.869 1105.17,367.276 1119.01,358.35 1132.85,349.858 1146.69,341.426 1160.53,333.353 1174.36,326.079 1188.2,319.192 1202.04,312.49 1215.88,306.237 1229.71,299.939 1243.55,294.371 1257.39,289.403 1271.23,285.123 1285.07,280.421 1298.9,276.341 1312.74,272.347 1326.58,269.279 1340.42,266.123 1354.25,262.955 1368.09,260.276 1381.93,257.487 1395.77,254.97 1409.61,252.778 1423.44,250.474 1437.28,248.385 1451.12,246.598 1464.96,245.109 1478.79,243.485 1492.63,241.81 1506.47,240.323 1520.31,239.243 1534.15,238.275 1547.98,237.186 1561.82,236.294 1575.66,235.424 1589.5,234.552 1603.34,233.821 1617.17,233.139 1631.01,232.5 1644.85,231.793 1658.69,231.137 1672.52,230.53 1686.36,229.969 1700.2,229.449 1714.04,228.97 1727.88,228.557 1741.71,228.174 1755.55,227.821 1769.39,227.493 1783.23,227.189 1797.06,226.906 1810.9,226.642 1824.74,226.394 1838.58,226.161 1852.42,225.943 1866.25,225.739 1880.09,225.55 1893.93,225.373 1907.77,225.21 1921.61,225.06 1935.44,224.922 1949.28,224.795 1963.12,224.679 1976.96,224.573 1990.79,224.477 2004.63,224.389 2018.47,224.309 2032.31,224.237 2046.15,224.171 2059.98,224.11 2073.82,224.054 2087.66,224.001 2101.5,223.951 2115.33,223.902 2129.17,223.854 2143.01,223.807 2156.85,223.764 2170.69,223.722 2184.52,223.684 2198.36,223.648 2212.2,223.615 2226.04,223.584 2239.87,223.555 2253.71,223.529 2267.55,223.506 2281.39,223.484 2295.23,223.465 2309.06,223.447 2322.9,223.432 2336.74,223.418 2350.58,223.406 2364.42,223.395 2378.25,223.385 2392.09,223.376 2405.93,223.368 2419.77,223.36 2433.6,223.353 2447.44,223.346 2461.28,223.338 2475.12,223.33 2488.96,223.322 2502.79,223.314 2516.63,223.306 2530.47,223.298 2544.31,223.291 2558.14,223.284 2571.98,223.278 2585.82,223.272 2599.66,223.266 2613.5,223.261 2627.33,223.257 2641.17,223.253 2655.01,223.249 2668.85,223.246 2682.69,223.244 2696.52,223.242 2710.36,223.24 2724.2,223.239 2738.04,223.239 2751.87,223.239 2765.71,223.239 2779.55,223.239 2793.39,223.24 2807.23,223.241 2821.06,223.242 2834.9,223.243 2848.74,223.244 2862.58,223.245 2876.41,223.246 2890.25,223.247 2904.09,223.247 2917.93,223.246 2931.77,223.245 2945.6,223.243 2959.44,223.242 2973.28,223.241 2987.12,223.24 3000.96,223.239 3014.79,223.238 3028.63,223.237 3042.47,223.236 3056.31,223.235 3070.14,223.234 "/>
<path clip-path="url(#clip620)" d="M2663.79 2135.47 L3055.46 2135.47 L3055.46 1979.95 L2663.79 1979.95  Z" fill="#eaeaea" fill-rule="evenodd" fill-opacity="1"/>
<polyline clip-path="url(#clip620)" style="stroke:#ffffff; stroke-linecap:round; stroke-linejoin:round; stroke-width:4; stroke-opacity:1; fill:none" points="2663.79,2135.47 3055.46,2135.47 3055.46,1979.95 2663.79,1979.95 2663.79,2135.47 "/>
<polyline clip-path="url(#clip620)" style="stroke:#009af9; stroke-linecap:round; stroke-linejoin:round; stroke-width:12; stroke-opacity:1; fill:none" points="2696.23,2031.79 2890.82,2031.79 "/>
<path clip-path="url(#clip620)" d="M2925.48 2048.35 L2925.48 2044.09 Q2927.24 2044.92 2929.04 2045.36 Q2930.85 2045.8 2932.59 2045.8 Q2937.22 2045.8 2939.65 2042.7 Q2942.1 2039.58 2942.45 2033.23 Q2941.1 2035.22 2939.04 2036.29 Q2936.98 2037.35 2934.48 2037.35 Q2929.3 2037.35 2926.27 2034.23 Q2923.26 2031.08 2923.26 2025.64 Q2923.26 2020.32 2926.4 2017.1 Q2929.55 2013.88 2934.78 2013.88 Q2940.78 2013.88 2943.93 2018.49 Q2947.1 2023.07 2947.1 2031.82 Q2947.1 2039.99 2943.21 2044.88 Q2939.34 2049.74 2932.79 2049.74 Q2931.03 2049.74 2929.23 2049.39 Q2927.42 2049.04 2925.48 2048.35 M2934.78 2033.7 Q2937.93 2033.7 2939.76 2031.54 Q2941.61 2029.39 2941.61 2025.64 Q2941.61 2021.91 2939.76 2019.76 Q2937.93 2017.58 2934.78 2017.58 Q2931.64 2017.58 2929.78 2019.76 Q2927.96 2021.91 2927.96 2025.64 Q2927.96 2029.39 2929.78 2031.54 Q2931.64 2033.7 2934.78 2033.7 Z" fill="#000000" fill-rule="nonzero" fill-opacity="1" /><path clip-path="url(#clip620)" d="M2955.55 2014.51 L2973.9 2014.51 L2973.9 2018.44 L2959.83 2018.44 L2959.83 2026.91 Q2960.85 2026.57 2961.87 2026.4 Q2962.89 2026.22 2963.9 2026.22 Q2969.69 2026.22 2973.07 2029.39 Q2976.45 2032.56 2976.45 2037.98 Q2976.45 2043.56 2972.98 2046.66 Q2969.51 2049.74 2963.19 2049.74 Q2961.01 2049.74 2958.74 2049.37 Q2956.5 2049 2954.09 2048.26 L2954.09 2043.56 Q2956.17 2044.69 2958.4 2045.25 Q2960.62 2045.8 2963.09 2045.8 Q2967.1 2045.8 2969.44 2043.7 Q2971.78 2041.59 2971.78 2037.98 Q2971.78 2034.37 2969.44 2032.26 Q2967.1 2030.15 2963.09 2030.15 Q2961.22 2030.15 2959.34 2030.57 Q2957.49 2030.99 2955.55 2031.87 L2955.55 2014.51 Z" fill="#000000" fill-rule="nonzero" fill-opacity="1" /><path clip-path="url(#clip620)" d="M3015.06 2033.86 Q3013.05 2033.86 3011.89 2035.57 Q3010.76 2037.28 3010.76 2040.34 Q3010.76 2043.35 3011.89 2045.08 Q3013.05 2046.8 3015.06 2046.8 Q3017.03 2046.8 3018.16 2045.08 Q3019.32 2043.35 3019.32 2040.34 Q3019.32 2037.31 3018.16 2035.59 Q3017.03 2033.86 3015.06 2033.86 M3015.06 2030.92 Q3018.72 2030.92 3020.87 2033.46 Q3023.02 2036.01 3023.02 2040.34 Q3023.02 2044.67 3020.85 2047.21 Q3018.7 2049.74 3015.06 2049.74 Q3011.36 2049.74 3009.21 2047.21 Q3007.05 2044.67 3007.05 2040.34 Q3007.05 2035.99 3009.21 2033.46 Q3011.38 2030.92 3015.06 2030.92 M2991.17 2016.82 Q2989.18 2016.82 2988.02 2018.56 Q2986.89 2020.27 2986.89 2023.28 Q2986.89 2026.33 2988.02 2028.05 Q2989.16 2029.76 2991.17 2029.76 Q2993.19 2029.76 2994.32 2028.05 Q2995.48 2026.33 2995.48 2023.28 Q2995.48 2020.29 2994.32 2018.56 Q2993.16 2016.82 2991.17 2016.82 M3012.08 2013.88 L3015.78 2013.88 L2994.16 2049.74 L2990.46 2049.74 L3012.08 2013.88 M2991.17 2013.88 Q2994.83 2013.88 2997.01 2016.43 Q2999.18 2018.95 2999.18 2023.28 Q2999.18 2027.65 2997.01 2030.18 Q2994.85 2032.7 2991.17 2032.7 Q2987.49 2032.7 2985.34 2030.18 Q2983.21 2027.63 2983.21 2023.28 Q2983.21 2018.97 2985.36 2016.43 Q2987.52 2013.88 2991.17 2013.88 Z" fill="#000000" fill-rule="nonzero" fill-opacity="1" /><polyline clip-path="url(#clip620)" style="stroke:#e26f46; stroke-linecap:round; stroke-linejoin:round; stroke-width:12; stroke-opacity:1; fill:none" points="2696.23,2083.63 2890.82,2083.63 "/>
<path clip-path="url(#clip620)" d="M2935.59 2081.76 Q2932.45 2081.76 2930.59 2083.92 Q2928.77 2086.07 2928.77 2089.82 Q2928.77 2093.55 2930.59 2095.72 Q2932.45 2097.87 2935.59 2097.87 Q2938.74 2097.87 2940.57 2095.72 Q2942.42 2093.55 2942.42 2089.82 Q2942.42 2086.07 2940.57 2083.92 Q2938.74 2081.76 2935.59 2081.76 M2944.88 2067.11 L2944.88 2071.37 Q2943.12 2070.54 2941.31 2070.1 Q2939.53 2069.66 2937.77 2069.66 Q2933.14 2069.66 2930.69 2072.78 Q2928.26 2075.91 2927.91 2082.23 Q2929.28 2080.21 2931.34 2079.15 Q2933.4 2078.06 2935.87 2078.06 Q2941.08 2078.06 2944.09 2081.23 Q2947.12 2084.38 2947.12 2089.82 Q2947.12 2095.14 2943.97 2098.36 Q2940.83 2101.58 2935.59 2101.58 Q2929.6 2101.58 2926.43 2096.99 Q2923.26 2092.39 2923.26 2083.66 Q2923.26 2075.47 2927.15 2070.61 Q2931.03 2065.72 2937.59 2065.72 Q2939.34 2065.72 2941.13 2066.07 Q2942.93 2066.42 2944.88 2067.11 Z" fill="#000000" fill-rule="nonzero" fill-opacity="1" /><path clip-path="url(#clip620)" d="M2965.18 2084.49 Q2961.84 2084.49 2959.92 2086.28 Q2958.03 2088.06 2958.03 2091.18 Q2958.03 2094.31 2959.92 2096.09 Q2961.84 2097.87 2965.18 2097.87 Q2968.51 2097.87 2970.43 2096.09 Q2972.35 2094.29 2972.35 2091.18 Q2972.35 2088.06 2970.43 2086.28 Q2968.53 2084.49 2965.18 2084.49 M2960.5 2082.5 Q2957.49 2081.76 2955.8 2079.7 Q2954.14 2077.64 2954.14 2074.68 Q2954.14 2070.54 2957.08 2068.13 Q2960.04 2065.72 2965.18 2065.72 Q2970.34 2065.72 2973.28 2068.13 Q2976.22 2070.54 2976.22 2074.68 Q2976.22 2077.64 2974.53 2079.7 Q2972.86 2081.76 2969.88 2082.5 Q2973.26 2083.29 2975.13 2085.58 Q2977.03 2087.87 2977.03 2091.18 Q2977.03 2096.21 2973.95 2098.89 Q2970.9 2101.58 2965.18 2101.58 Q2959.46 2101.58 2956.38 2098.89 Q2953.33 2096.21 2953.33 2091.18 Q2953.33 2087.87 2955.22 2085.58 Q2957.12 2083.29 2960.5 2082.5 M2958.79 2075.12 Q2958.79 2077.8 2960.46 2079.31 Q2962.15 2080.81 2965.18 2080.81 Q2968.19 2080.81 2969.88 2079.31 Q2971.59 2077.8 2971.59 2075.12 Q2971.59 2072.43 2969.88 2070.93 Q2968.19 2069.42 2965.18 2069.42 Q2962.15 2069.42 2960.46 2070.93 Q2958.79 2072.43 2958.79 2075.12 Z" fill="#000000" fill-rule="nonzero" fill-opacity="1" /><path clip-path="url(#clip620)" d="M3014.74 2085.7 Q3012.72 2085.7 3011.57 2087.41 Q3010.43 2089.12 3010.43 2092.18 Q3010.43 2095.19 3011.57 2096.92 Q3012.72 2098.64 3014.74 2098.64 Q3016.71 2098.64 3017.84 2096.92 Q3019 2095.19 3019 2092.18 Q3019 2089.15 3017.84 2087.43 Q3016.71 2085.7 3014.74 2085.7 M3014.74 2082.76 Q3018.4 2082.76 3020.55 2085.3 Q3022.7 2087.85 3022.7 2092.18 Q3022.7 2096.51 3020.52 2099.05 Q3018.37 2101.58 3014.74 2101.58 Q3011.03 2101.58 3008.88 2099.05 Q3006.73 2096.51 3006.73 2092.18 Q3006.73 2087.83 3008.88 2085.3 Q3011.06 2082.76 3014.74 2082.76 M2990.85 2068.66 Q2988.86 2068.66 2987.7 2070.4 Q2986.57 2072.11 2986.57 2075.12 Q2986.57 2078.17 2987.7 2079.89 Q2988.84 2081.6 2990.85 2081.6 Q2992.86 2081.6 2994 2079.89 Q2995.15 2078.17 2995.15 2075.12 Q2995.15 2072.13 2994 2070.4 Q2992.84 2068.66 2990.85 2068.66 M3011.75 2065.72 L3015.46 2065.72 L2993.84 2101.58 L2990.13 2101.58 L3011.75 2065.72 M2990.85 2065.72 Q2994.51 2065.72 2996.68 2068.27 Q2998.86 2070.79 2998.86 2075.12 Q2998.86 2079.49 2996.68 2082.02 Q2994.53 2084.54 2990.85 2084.54 Q2987.17 2084.54 2985.02 2082.02 Q2982.89 2079.47 2982.89 2075.12 Q2982.89 2070.81 2985.04 2068.27 Q2987.19 2065.72 2990.85 2065.72 Z" fill="#000000" fill-rule="nonzero" fill-opacity="1" /></svg>
