<?xml version="1.0" encoding="utf-8"?>
<svg xmlns="http://www.w3.org/2000/svg" xmlns:xlink="http://www.w3.org/1999/xlink" width="800" height="600" viewBox="0 0 3200 2400">
<defs>
  <clipPath id="clip750">
    <rect x="0" y="0" width="3200" height="2400"/>
  </clipPath>
</defs>
<path clip-path="url(#clip750)" d="M0 2400 L3200 2400 L3200 0 L0 0  Z" fill="#ffffff" fill-rule="evenodd" fill-opacity="1"/>
<defs>
  <clipPath id="clip751">
    <rect x="640" y="0" width="2241" height="2241"/>
  </clipPath>
</defs>
<path clip-path="url(#clip750)" d="M233.806 2204.92 L3152.76 2204.92 L3152.76 121.312 L233.806 121.312  Z" fill="#eaeaea" fill-rule="evenodd" fill-opacity="1"/>
<defs>
  <clipPath id="clip752">
    <rect x="233" y="121" width="2920" height="2085"/>
  </clipPath>
</defs>
<polyline clip-path="url(#clip752)" style="stroke:#ffffff; stroke-linecap:round; stroke-linejoin:round; stroke-width:4; stroke-opacity:1; fill:none" points="316.418,2204.92 316.418,121.312 "/>
<polyline clip-path="url(#clip752)" style="stroke:#ffffff; stroke-linecap:round; stroke-linejoin:round; stroke-width:4; stroke-opacity:1; fill:none" points="867.163,2204.92 867.163,121.312 "/>
<polyline clip-path="url(#clip752)" style="stroke:#ffffff; stroke-linecap:round; stroke-linejoin:round; stroke-width:4; stroke-opacity:1; fill:none" points="1417.91,2204.92 1417.91,121.312 "/>
<polyline clip-path="url(#clip752)" style="stroke:#ffffff; stroke-linecap:round; stroke-linejoin:round; stroke-width:4; stroke-opacity:1; fill:none" points="1968.65,2204.92 1968.65,121.312 "/>
<polyline clip-path="url(#clip752)" style="stroke:#ffffff; stroke-linecap:round; stroke-linejoin:round; stroke-width:4; stroke-opacity:1; fill:none" points="2519.4,2204.92 2519.4,121.312 "/>
<polyline clip-path="url(#clip752)" style="stroke:#ffffff; stroke-linecap:round; stroke-linejoin:round; stroke-width:4; stroke-opacity:1; fill:none" points="3070.14,2204.92 3070.14,121.312 "/>
<polyline clip-path="url(#clip752)" style="stroke:#ffffff; stroke-linecap:round; stroke-linejoin:round; stroke-width:2; stroke-opacity:1; fill:none" points="591.791,2204.92 591.791,121.312 "/>
<polyline clip-path="url(#clip752)" style="stroke:#ffffff; stroke-linecap:round; stroke-linejoin:round; stroke-width:2; stroke-opacity:1; fill:none" points="1142.54,2204.92 1142.54,121.312 "/>
<polyline clip-path="url(#clip752)" style="stroke:#ffffff; stroke-linecap:round; stroke-linejoin:round; stroke-width:2; stroke-opacity:1; fill:none" points="1693.28,2204.92 1693.28,121.312 "/>
<polyline clip-path="url(#clip752)" style="stroke:#ffffff; stroke-linecap:round; stroke-linejoin:round; stroke-width:2; stroke-opacity:1; fill:none" points="2244.03,2204.92 2244.03,121.312 "/>
<polyline clip-path="url(#clip752)" style="stroke:#ffffff; stroke-linecap:round; stroke-linejoin:round; stroke-width:2; stroke-opacity:1; fill:none" points="2794.77,2204.92 2794.77,121.312 "/>
<polyline clip-path="url(#clip750)" style="stroke:#ffffff; stroke-linecap:round; stroke-linejoin:round; stroke-width:4; stroke-opacity:1; fill:none" points="233.806,2204.92 3152.76,2204.92 "/>
<polyline clip-path="url(#clip750)" style="stroke:#333333; stroke-linecap:round; stroke-linejoin:round; stroke-width:4; stroke-opacity:1; fill:none" points="316.418,2204.92 316.418,2223.82 "/>
<polyline clip-path="url(#clip750)" style="stroke:#333333; stroke-linecap:round; stroke-linejoin:round; stroke-width:4; stroke-opacity:1; fill:none" points="867.163,2204.92 867.163,2223.82 "/>
<polyline clip-path="url(#clip750)" style="stroke:#333333; stroke-linecap:round; stroke-linejoin:round; stroke-width:4; stroke-opacity:1; fill:none" points="1417.91,2204.92 1417.91,2223.82 "/>
<polyline clip-path="url(#clip750)" style="stroke:#333333; stroke-linecap:round; stroke-linejoin:round; stroke-width:4; stroke-opacity:1; fill:none" points="1968.65,2204.92 1968.65,2223.82 "/>
<polyline clip-path="url(#clip750)" style="stroke:#333333; stroke-linecap:round; stroke-linejoin:round; stroke-width:4; stroke-opacity:1; fill:none" points="2519.4,2204.92 2519.4,2223.82 "/>
<polyline clip-path="url(#clip750)" style="stroke:#333333; stroke-linecap:round; stroke-linejoin:round; stroke-width:4; stroke-opacity:1; fill:none" points="3070.14,2204.92 3070.14,2223.82 "/>
<polyline clip-path="url(#clip750)" style="stroke:#333333; stroke-linecap:round; stroke-linejoin:round; stroke-width:4; stroke-opacity:1; fill:none" points="591.791,2204.92 591.791,2214.37 "/>
<polyline clip-path="url(#clip750)" style="stroke:#333333; stroke-linecap:round; stroke-linejoin:round; stroke-width:4; stroke-opacity:1; fill:none" points="1142.54,2204.92 1142.54,2214.37 "/>
<polyline clip-path="url(#clip750)" style="stroke:#333333; stroke-linecap:round; stroke-linejoin:round; stroke-width:4; stroke-opacity:1; fill:none" points="1693.28,2204.92 1693.28,2214.37 "/>
<polyline clip-path="url(#clip750)" style="stroke:#333333; stroke-linecap:round; stroke-linejoin:round; stroke-width:4; stroke-opacity:1; fill:none" points="2244.03,2204.92 2244.03,2214.37 "/>
<polyline clip-path="url(#clip750)" style="stroke:#333333; stroke-linecap:round; stroke-linejoin:round; stroke-width:4; stroke-opacity:1; fill:none" points="2794.77,2204.92 2794.77,2214.37 "/>
<path clip-path="url(#clip750)" d="M316.418 2255.04 Q312.807 2255.04 310.978 2258.6 Q309.173 2262.14 309.173 2269.27 Q309.173 2276.38 310.978 2279.95 Q312.807 2283.49 316.418 2283.49 Q320.052 2283.49 321.858 2279.95 Q323.687 2276.38 323.687 2269.27 Q323.687 2262.14 321.858 2258.6 Q320.052 2255.04 316.418 2255.04 M316.418 2251.33 Q322.228 2251.33 325.284 2255.94 Q328.362 2260.52 328.362 2269.27 Q328.362 2278 325.284 2282.61 Q322.228 2287.19 316.418 2287.19 Q310.608 2287.19 307.529 2282.61 Q304.474 2278 304.474 2269.27 Q304.474 2260.52 307.529 2255.94 Q310.608 2251.33 316.418 2251.33 Z" fill="#4c4c4c" fill-rule="nonzero" fill-opacity="1" /><path clip-path="url(#clip750)" d="M857.545 2282.58 L865.184 2282.58 L865.184 2256.22 L856.874 2257.89 L856.874 2253.63 L865.138 2251.96 L869.814 2251.96 L869.814 2282.58 L877.453 2282.58 L877.453 2286.52 L857.545 2286.52 L857.545 2282.58 Z" fill="#4c4c4c" fill-rule="nonzero" fill-opacity="1" /><path clip-path="url(#clip750)" d="M1412.56 2282.58 L1428.88 2282.58 L1428.88 2286.52 L1406.94 2286.52 L1406.94 2282.58 Q1409.6 2279.83 1414.18 2275.2 Q1418.79 2270.55 1419.97 2269.21 Q1422.21 2266.68 1423.09 2264.95 Q1424 2263.19 1424 2261.5 Q1424 2258.74 1422.05 2257.01 Q1420.13 2255.27 1417.03 2255.27 Q1414.83 2255.27 1412.38 2256.03 Q1409.95 2256.8 1407.17 2258.35 L1407.17 2253.63 Q1409.99 2252.49 1412.45 2251.91 Q1414.9 2251.33 1416.94 2251.33 Q1422.31 2251.33 1425.5 2254.02 Q1428.7 2256.71 1428.7 2261.2 Q1428.7 2263.33 1427.89 2265.25 Q1427.1 2267.14 1424.99 2269.74 Q1424.41 2270.41 1421.31 2273.63 Q1418.21 2276.82 1412.56 2282.58 Z" fill="#4c4c4c" fill-rule="nonzero" fill-opacity="1" /><path clip-path="url(#clip750)" d="M1972.9 2267.89 Q1976.26 2268.6 1978.13 2270.87 Q1980.03 2273.14 1980.03 2276.47 Q1980.03 2281.59 1976.51 2284.39 Q1972.99 2287.19 1966.51 2287.19 Q1964.34 2287.19 1962.02 2286.75 Q1959.73 2286.33 1957.28 2285.48 L1957.28 2280.96 Q1959.22 2282.1 1961.54 2282.68 Q1963.85 2283.26 1966.37 2283.26 Q1970.77 2283.26 1973.06 2281.52 Q1975.38 2279.78 1975.38 2276.47 Q1975.38 2273.42 1973.23 2271.71 Q1971.1 2269.97 1967.28 2269.97 L1963.25 2269.97 L1963.25 2266.13 L1967.46 2266.13 Q1970.91 2266.13 1972.74 2264.76 Q1974.57 2263.37 1974.57 2260.78 Q1974.57 2258.12 1972.67 2256.71 Q1970.79 2255.27 1967.28 2255.27 Q1965.36 2255.27 1963.16 2255.69 Q1960.96 2256.1 1958.32 2256.98 L1958.32 2252.82 Q1960.98 2252.08 1963.29 2251.71 Q1965.63 2251.33 1967.69 2251.33 Q1973.02 2251.33 1976.12 2253.77 Q1979.22 2256.17 1979.22 2260.29 Q1979.22 2263.16 1977.58 2265.15 Q1975.93 2267.12 1972.9 2267.89 Z" fill="#4c4c4c" fill-rule="nonzero" fill-opacity="1" /><path clip-path="url(#clip750)" d="M2522.41 2256.03 L2510.6 2274.48 L2522.41 2274.48 L2522.41 2256.03 M2521.18 2251.96 L2527.06 2251.96 L2527.06 2274.48 L2531.99 2274.48 L2531.99 2278.37 L2527.06 2278.37 L2527.06 2286.52 L2522.41 2286.52 L2522.41 2278.37 L2506.81 2278.37 L2506.81 2273.86 L2521.18 2251.96 Z" fill="#4c4c4c" fill-rule="nonzero" fill-opacity="1" /><path clip-path="url(#clip750)" d="M3060.42 2251.96 L3078.78 2251.96 L3078.78 2255.9 L3064.7 2255.9 L3064.7 2264.37 Q3065.72 2264.02 3066.74 2263.86 Q3067.76 2263.67 3068.78 2263.67 Q3074.57 2263.67 3077.95 2266.84 Q3081.32 2270.02 3081.32 2275.43 Q3081.32 2281.01 3077.85 2284.11 Q3074.38 2287.19 3068.06 2287.19 Q3065.88 2287.19 3063.62 2286.82 Q3061.37 2286.45 3058.96 2285.71 L3058.96 2281.01 Q3061.05 2282.14 3063.27 2282.7 Q3065.49 2283.26 3067.97 2283.26 Q3071.97 2283.26 3074.31 2281.15 Q3076.65 2279.04 3076.65 2275.43 Q3076.65 2271.82 3074.31 2269.71 Q3071.97 2267.61 3067.97 2267.61 Q3066.09 2267.61 3064.22 2268.02 Q3062.37 2268.44 3060.42 2269.32 L3060.42 2251.96 Z" fill="#4c4c4c" fill-rule="nonzero" fill-opacity="1" /><path clip-path="url(#clip750)" d="M1692.34 2316.01 L1692.34 2326.14 L1704.41 2326.14 L1704.41 2330.69 L1692.34 2330.69 L1692.34 2350.04 Q1692.34 2354.4 1693.52 2355.64 Q1694.73 2356.88 1698.39 2356.88 L1704.41 2356.88 L1704.41 2361.78 L1698.39 2361.78 Q1691.61 2361.78 1689.03 2359.27 Q1686.45 2356.72 1686.45 2350.04 L1686.45 2330.69 L1682.16 2330.69 L1682.16 2326.14 L1686.45 2326.14 L1686.45 2316.01 L1692.34 2316.01 Z" fill="#000000" fill-rule="nonzero" fill-opacity="1" /><polyline clip-path="url(#clip752)" style="stroke:#ffffff; stroke-linecap:round; stroke-linejoin:round; stroke-width:4; stroke-opacity:1; fill:none" points="233.806,2155.23 3152.76,2155.23 "/>
<polyline clip-path="url(#clip752)" style="stroke:#ffffff; stroke-linecap:round; stroke-linejoin:round; stroke-width:4; stroke-opacity:1; fill:none" points="233.806,1857.97 3152.76,1857.97 "/>
<polyline clip-path="url(#clip752)" style="stroke:#ffffff; stroke-linecap:round; stroke-linejoin:round; stroke-width:4; stroke-opacity:1; fill:none" points="233.806,1560.7 3152.76,1560.7 "/>
<polyline clip-path="url(#clip752)" style="stroke:#ffffff; stroke-linecap:round; stroke-linejoin:round; stroke-width:4; stroke-opacity:1; fill:none" points="233.806,1263.43 3152.76,1263.43 "/>
<polyline clip-path="url(#clip752)" style="stroke:#ffffff; stroke-linecap:round; stroke-linejoin:round; stroke-width:4; stroke-opacity:1; fill:none" points="233.806,966.166 3152.76,966.166 "/>
<polyline clip-path="url(#clip752)" style="stroke:#ffffff; stroke-linecap:round; stroke-linejoin:round; stroke-width:4; stroke-opacity:1; fill:none" points="233.806,668.898 3152.76,668.898 "/>
<polyline clip-path="url(#clip752)" style="stroke:#ffffff; stroke-linecap:round; stroke-linejoin:round; stroke-width:4; stroke-opacity:1; fill:none" points="233.806,371.631 3152.76,371.631 "/>
<polyline clip-path="url(#clip752)" style="stroke:#ffffff; stroke-linecap:round; stroke-linejoin:round; stroke-width:2; stroke-opacity:1; fill:none" points="233.806,2006.6 3152.76,2006.6 "/>
<polyline clip-path="url(#clip752)" style="stroke:#ffffff; stroke-linecap:round; stroke-linejoin:round; stroke-width:2; stroke-opacity:1; fill:none" points="233.806,1709.33 3152.76,1709.33 "/>
<polyline clip-path="url(#clip752)" style="stroke:#ffffff; stroke-linecap:round; stroke-linejoin:round; stroke-width:2; stroke-opacity:1; fill:none" points="233.806,1412.07 3152.76,1412.07 "/>
<polyline clip-path="url(#clip752)" style="stroke:#ffffff; stroke-linecap:round; stroke-linejoin:round; stroke-width:2; stroke-opacity:1; fill:none" points="233.806,1114.8 3152.76,1114.8 "/>
<polyline clip-path="url(#clip752)" style="stroke:#ffffff; stroke-linecap:round; stroke-linejoin:round; stroke-width:2; stroke-opacity:1; fill:none" points="233.806,817.532 3152.76,817.532 "/>
<polyline clip-path="url(#clip752)" style="stroke:#ffffff; stroke-linecap:round; stroke-linejoin:round; stroke-width:2; stroke-opacity:1; fill:none" points="233.806,520.265 3152.76,520.265 "/>
<polyline clip-path="url(#clip752)" style="stroke:#ffffff; stroke-linecap:round; stroke-linejoin:round; stroke-width:2; stroke-opacity:1; fill:none" points="233.806,222.998 3152.76,222.998 "/>
<polyline clip-path="url(#clip750)" style="stroke:#ffffff; stroke-linecap:round; stroke-linejoin:round; stroke-width:4; stroke-opacity:1; fill:none" points="233.806,2204.92 233.806,121.312 "/>
<polyline clip-path="url(#clip750)" style="stroke:#333333; stroke-linecap:round; stroke-linejoin:round; stroke-width:4; stroke-opacity:1; fill:none" points="233.806,2155.23 214.909,2155.23 "/>
<polyline clip-path="url(#clip750)" style="stroke:#333333; stroke-linecap:round; stroke-linejoin:round; stroke-width:4; stroke-opacity:1; fill:none" points="233.806,1857.97 214.909,1857.97 "/>
<polyline clip-path="url(#clip750)" style="stroke:#333333; stroke-linecap:round; stroke-linejoin:round; stroke-width:4; stroke-opacity:1; fill:none" points="233.806,1560.7 214.909,1560.7 "/>
<polyline clip-path="url(#clip750)" style="stroke:#333333; stroke-linecap:round; stroke-linejoin:round; stroke-width:4; stroke-opacity:1; fill:none" points="233.806,1263.43 214.909,1263.43 "/>
<polyline clip-path="url(#clip750)" style="stroke:#333333; stroke-linecap:round; stroke-linejoin:round; stroke-width:4; stroke-opacity:1; fill:none" points="233.806,966.166 214.909,966.166 "/>
<polyline clip-path="url(#clip750)" style="stroke:#333333; stroke-linecap:round; stroke-linejoin:round; stroke-width:4; stroke-opacity:1; fill:none" points="233.806,668.898 214.909,668.898 "/>
<polyline clip-path="url(#clip750)" style="stroke:#333333; stroke-linecap:round; stroke-linejoin:round; stroke-width:4; stroke-opacity:1; fill:none" points="233.806,371.631 214.909,371.631 "/>
<polyline clip-path="url(#clip750)" style="stroke:#333333; stroke-linecap:round; stroke-linejoin:round; stroke-width:4; stroke-opacity:1; fill:none" points="233.806,2006.6 224.357,2006.6 "/>
<polyline clip-path="url(#clip750)" style="stroke:#333333; stroke-linecap:round; stroke-linejoin:round; stroke-width:4; stroke-opacity:1; fill:none" points="233.806,1709.33 224.357,1709.33 "/>
<polyline clip-path="url(#clip750)" style="stroke:#333333; stroke-linecap:round; stroke-linejoin:round; stroke-width:4; stroke-opacity:1; fill:none" points="233.806,1412.07 224.357,1412.07 "/>
<polyline clip-path="url(#clip750)" style="stroke:#333333; stroke-linecap:round; stroke-linejoin:round; stroke-width:4; stroke-opacity:1; fill:none" points="233.806,1114.8 224.357,1114.8 "/>
<polyline clip-path="url(#clip750)" style="stroke:#333333; stroke-linecap:round; stroke-linejoin:round; stroke-width:4; stroke-opacity:1; fill:none" points="233.806,817.532 224.357,817.532 "/>
<polyline clip-path="url(#clip750)" style="stroke:#333333; stroke-linecap:round; stroke-linejoin:round; stroke-width:4; stroke-opacity:1; fill:none" points="233.806,520.265 224.357,520.265 "/>
<polyline clip-path="url(#clip750)" style="stroke:#333333; stroke-linecap:round; stroke-linejoin:round; stroke-width:4; stroke-opacity:1; fill:none" points="233.806,222.998 224.357,222.998 "/>
<path clip-path="url(#clip750)" d="M106.228 2141.03 Q102.617 2141.03 100.788 2144.6 Q98.9825 2148.14 98.9825 2155.27 Q98.9825 2162.38 100.788 2165.94 Q102.617 2169.48 106.228 2169.48 Q109.862 2169.48 111.668 2165.94 Q113.496 2162.38 113.496 2155.27 Q113.496 2148.14 111.668 2144.6 Q109.862 2141.03 106.228 2141.03 M106.228 2137.33 Q112.038 2137.33 115.094 2141.94 Q118.172 2146.52 118.172 2155.27 Q118.172 2164 115.094 2168.6 Q112.038 2173.19 106.228 2173.19 Q100.418 2173.19 97.339 2168.6 Q94.2835 2164 94.2835 2155.27 Q94.2835 2146.52 97.339 2141.94 Q100.418 2137.33 106.228 2137.33 Z" fill="#4c4c4c" fill-rule="nonzero" fill-opacity="1" /><path clip-path="url(#clip750)" d="M126.39 2166.63 L131.274 2166.63 L131.274 2172.51 L126.39 2172.51 L126.39 2166.63 Z" fill="#4c4c4c" fill-rule="nonzero" fill-opacity="1" /><path clip-path="url(#clip750)" d="M145.487 2168.58 L161.806 2168.58 L161.806 2172.51 L139.862 2172.51 L139.862 2168.58 Q142.524 2165.82 147.107 2161.19 Q151.714 2156.54 152.894 2155.2 Q155.14 2152.68 156.019 2150.94 Q156.922 2149.18 156.922 2147.49 Q156.922 2144.74 154.978 2143 Q153.056 2141.26 149.954 2141.26 Q147.755 2141.26 145.302 2142.03 Q142.871 2142.79 140.093 2144.34 L140.093 2139.62 Q142.917 2138.49 145.371 2137.91 Q147.825 2137.33 149.862 2137.33 Q155.232 2137.33 158.427 2140.01 Q161.621 2142.7 161.621 2147.19 Q161.621 2149.32 160.811 2151.24 Q160.024 2153.14 157.917 2155.73 Q157.339 2156.4 154.237 2159.62 Q151.135 2162.82 145.487 2168.58 Z" fill="#4c4c4c" fill-rule="nonzero" fill-opacity="1" /><path clip-path="url(#clip750)" d="M104.145 1843.77 Q100.533 1843.77 98.7048 1847.33 Q96.8992 1850.87 96.8992 1858 Q96.8992 1865.11 98.7048 1868.67 Q100.533 1872.21 104.145 1872.21 Q107.779 1872.21 109.584 1868.67 Q111.413 1865.11 111.413 1858 Q111.413 1850.87 109.584 1847.33 Q107.779 1843.77 104.145 1843.77 M104.145 1840.06 Q109.955 1840.06 113.01 1844.67 Q116.089 1849.25 116.089 1858 Q116.089 1866.73 113.01 1871.33 Q109.955 1875.92 104.145 1875.92 Q98.3344 1875.92 95.2557 1871.33 Q92.2002 1866.73 92.2002 1858 Q92.2002 1849.25 95.2557 1844.67 Q98.3344 1840.06 104.145 1840.06 Z" fill="#4c4c4c" fill-rule="nonzero" fill-opacity="1" /><path clip-path="url(#clip750)" d="M124.306 1869.37 L129.191 1869.37 L129.191 1875.25 L124.306 1875.25 L124.306 1869.37 Z" fill="#4c4c4c" fill-rule="nonzero" fill-opacity="1" /><path clip-path="url(#clip750)" d="M152.223 1844.76 L140.417 1863.21 L152.223 1863.21 L152.223 1844.76 M150.996 1840.69 L156.876 1840.69 L156.876 1863.21 L161.806 1863.21 L161.806 1867.1 L156.876 1867.1 L156.876 1875.25 L152.223 1875.25 L152.223 1867.1 L136.621 1867.1 L136.621 1862.59 L150.996 1840.69 Z" fill="#4c4c4c" fill-rule="nonzero" fill-opacity="1" /><path clip-path="url(#clip750)" d="M104.469 1546.5 Q100.858 1546.5 99.0288 1550.06 Q97.2233 1553.6 97.2233 1560.73 Q97.2233 1567.84 99.0288 1571.41 Q100.858 1574.95 104.469 1574.95 Q108.103 1574.95 109.908 1571.41 Q111.737 1567.84 111.737 1560.73 Q111.737 1553.6 109.908 1550.06 Q108.103 1546.5 104.469 1546.5 M104.469 1542.79 Q110.279 1542.79 113.334 1547.4 Q116.413 1551.98 116.413 1560.73 Q116.413 1569.46 113.334 1574.07 Q110.279 1578.65 104.469 1578.65 Q98.6585 1578.65 95.5798 1574.07 Q92.5242 1569.46 92.5242 1560.73 Q92.5242 1551.98 95.5798 1547.4 Q98.6585 1542.79 104.469 1542.79 Z" fill="#4c4c4c" fill-rule="nonzero" fill-opacity="1" /><path clip-path="url(#clip750)" d="M124.631 1572.1 L129.515 1572.1 L129.515 1577.98 L124.631 1577.98 L124.631 1572.1 Z" fill="#4c4c4c" fill-rule="nonzero" fill-opacity="1" /><path clip-path="url(#clip750)" d="M150.279 1558.84 Q147.13 1558.84 145.279 1560.99 Q143.45 1563.14 143.45 1566.89 Q143.45 1570.62 145.279 1572.79 Q147.13 1574.95 150.279 1574.95 Q153.427 1574.95 155.255 1572.79 Q157.107 1570.62 157.107 1566.89 Q157.107 1563.14 155.255 1560.99 Q153.427 1558.84 150.279 1558.84 M159.561 1544.18 L159.561 1548.44 Q157.802 1547.61 155.996 1547.17 Q154.214 1546.73 152.454 1546.73 Q147.825 1546.73 145.371 1549.85 Q142.941 1552.98 142.593 1559.3 Q143.959 1557.29 146.019 1556.22 Q148.079 1555.13 150.556 1555.13 Q155.765 1555.13 158.774 1558.3 Q161.806 1561.45 161.806 1566.89 Q161.806 1572.22 158.658 1575.43 Q155.51 1578.65 150.279 1578.65 Q144.283 1578.65 141.112 1574.07 Q137.941 1569.46 137.941 1560.73 Q137.941 1552.54 141.83 1547.68 Q145.718 1542.79 152.269 1542.79 Q154.029 1542.79 155.811 1543.14 Q157.616 1543.49 159.561 1544.18 Z" fill="#4c4c4c" fill-rule="nonzero" fill-opacity="1" /><path clip-path="url(#clip750)" d="M104.723 1249.23 Q101.112 1249.23 99.2835 1252.8 Q97.4779 1256.34 97.4779 1263.47 Q97.4779 1270.57 99.2835 1274.14 Q101.112 1277.68 104.723 1277.68 Q108.357 1277.68 110.163 1274.14 Q111.992 1270.57 111.992 1263.47 Q111.992 1256.34 110.163 1252.8 Q108.357 1249.23 104.723 1249.23 M104.723 1245.53 Q110.533 1245.53 113.589 1250.13 Q116.668 1254.72 116.668 1263.47 Q116.668 1272.19 113.589 1276.8 Q110.533 1281.38 104.723 1281.38 Q98.9131 1281.38 95.8344 1276.8 Q92.7789 1272.19 92.7789 1263.47 Q92.7789 1254.72 95.8344 1250.13 Q98.9131 1245.53 104.723 1245.53 Z" fill="#4c4c4c" fill-rule="nonzero" fill-opacity="1" /><path clip-path="url(#clip750)" d="M124.885 1274.83 L129.769 1274.83 L129.769 1280.71 L124.885 1280.71 L124.885 1274.83 Z" fill="#4c4c4c" fill-rule="nonzero" fill-opacity="1" /><path clip-path="url(#clip750)" d="M149.954 1264.3 Q146.621 1264.3 144.7 1266.08 Q142.802 1267.87 142.802 1270.99 Q142.802 1274.12 144.7 1275.9 Q146.621 1277.68 149.954 1277.68 Q153.288 1277.68 155.209 1275.9 Q157.13 1274.09 157.13 1270.99 Q157.13 1267.87 155.209 1266.08 Q153.311 1264.3 149.954 1264.3 M145.279 1262.31 Q142.269 1261.57 140.58 1259.51 Q138.913 1257.45 138.913 1254.49 Q138.913 1250.34 141.853 1247.94 Q144.816 1245.53 149.954 1245.53 Q155.116 1245.53 158.056 1247.94 Q160.996 1250.34 160.996 1254.49 Q160.996 1257.45 159.306 1259.51 Q157.64 1261.57 154.654 1262.31 Q158.033 1263.1 159.908 1265.39 Q161.806 1267.68 161.806 1270.99 Q161.806 1276.01 158.728 1278.7 Q155.672 1281.38 149.954 1281.38 Q144.237 1281.38 141.158 1278.7 Q138.103 1276.01 138.103 1270.99 Q138.103 1267.68 140.001 1265.39 Q141.899 1263.1 145.279 1262.31 M143.566 1254.93 Q143.566 1257.61 145.232 1259.12 Q146.922 1260.62 149.954 1260.62 Q152.964 1260.62 154.654 1259.12 Q156.366 1257.61 156.366 1254.93 Q156.366 1252.24 154.654 1250.74 Q152.964 1249.23 149.954 1249.23 Q146.922 1249.23 145.232 1250.74 Q143.566 1252.24 143.566 1254.93 Z" fill="#4c4c4c" fill-rule="nonzero" fill-opacity="1" /><path clip-path="url(#clip750)" d="M95.4409 979.51 L103.08 979.51 L103.08 953.145 L94.7696 954.811 L94.7696 950.552 L103.033 948.886 L107.709 948.886 L107.709 979.51 L115.348 979.51 L115.348 983.446 L95.4409 983.446 L95.4409 979.51 Z" fill="#4c4c4c" fill-rule="nonzero" fill-opacity="1" /><path clip-path="url(#clip750)" d="M124.793 977.566 L129.677 977.566 L129.677 983.446 L124.793 983.446 L124.793 977.566 Z" fill="#4c4c4c" fill-rule="nonzero" fill-opacity="1" /><path clip-path="url(#clip750)" d="M149.862 951.964 Q146.251 951.964 144.422 955.529 Q142.617 959.071 142.617 966.2 Q142.617 973.307 144.422 976.871 Q146.251 980.413 149.862 980.413 Q153.496 980.413 155.302 976.871 Q157.13 973.307 157.13 966.2 Q157.13 959.071 155.302 955.529 Q153.496 951.964 149.862 951.964 M149.862 948.261 Q155.672 948.261 158.728 952.867 Q161.806 957.45 161.806 966.2 Q161.806 974.927 158.728 979.533 Q155.672 984.117 149.862 984.117 Q144.052 984.117 140.973 979.533 Q137.918 974.927 137.918 966.2 Q137.918 957.45 140.973 952.867 Q144.052 948.261 149.862 948.261 Z" fill="#4c4c4c" fill-rule="nonzero" fill-opacity="1" /><path clip-path="url(#clip750)" d="M97.0381 682.243 L104.677 682.243 L104.677 655.878 L96.3668 657.544 L96.3668 653.285 L104.631 651.618 L109.307 651.618 L109.307 682.243 L116.945 682.243 L116.945 686.178 L97.0381 686.178 L97.0381 682.243 Z" fill="#4c4c4c" fill-rule="nonzero" fill-opacity="1" /><path clip-path="url(#clip750)" d="M126.39 680.299 L131.274 680.299 L131.274 686.178 L126.39 686.178 L126.39 680.299 Z" fill="#4c4c4c" fill-rule="nonzero" fill-opacity="1" /><path clip-path="url(#clip750)" d="M145.487 682.243 L161.806 682.243 L161.806 686.178 L139.862 686.178 L139.862 682.243 Q142.524 679.489 147.107 674.859 Q151.714 670.206 152.894 668.864 Q155.14 666.34 156.019 664.604 Q156.922 662.845 156.922 661.155 Q156.922 658.401 154.978 656.665 Q153.056 654.929 149.954 654.929 Q147.755 654.929 145.302 655.692 Q142.871 656.456 140.093 658.007 L140.093 653.285 Q142.917 652.151 145.371 651.572 Q147.825 650.993 149.862 650.993 Q155.232 650.993 158.427 653.679 Q161.621 656.364 161.621 660.854 Q161.621 662.984 160.811 664.905 Q160.024 666.803 157.917 669.396 Q157.339 670.067 154.237 673.285 Q151.135 676.479 145.487 682.243 Z" fill="#4c4c4c" fill-rule="nonzero" fill-opacity="1" /><path clip-path="url(#clip750)" d="M94.9548 384.976 L102.594 384.976 L102.594 358.61 L94.2835 360.277 L94.2835 356.018 L102.547 354.351 L107.223 354.351 L107.223 384.976 L114.862 384.976 L114.862 388.911 L94.9548 388.911 L94.9548 384.976 Z" fill="#4c4c4c" fill-rule="nonzero" fill-opacity="1" /><path clip-path="url(#clip750)" d="M124.306 383.032 L129.191 383.032 L129.191 388.911 L124.306 388.911 L124.306 383.032 Z" fill="#4c4c4c" fill-rule="nonzero" fill-opacity="1" /><path clip-path="url(#clip750)" d="M152.223 358.425 L140.417 376.874 L152.223 376.874 L152.223 358.425 M150.996 354.351 L156.876 354.351 L156.876 376.874 L161.806 376.874 L161.806 380.763 L156.876 380.763 L156.876 388.911 L152.223 388.911 L152.223 380.763 L136.621 380.763 L136.621 376.249 L150.996 354.351 Z" fill="#4c4c4c" fill-rule="nonzero" fill-opacity="1" /><path clip-path="url(#clip750)" d="M48.597 1321.32 L67.5031 1321.32 L67.5031 1327.21 L18.2962 1327.21 L18.2962 1321.32 L23.7071 1321.32 Q20.5242 1319.47 18.9964 1316.67 Q17.4368 1313.84 17.4368 1309.93 Q17.4368 1303.43 22.5931 1299.39 Q27.7493 1295.32 36.152 1295.32 Q44.5547 1295.32 49.711 1299.39 Q54.8672 1303.43 54.8672 1309.93 Q54.8672 1313.84 53.3394 1316.67 Q51.7798 1319.47 48.597 1321.32 M36.152 1301.4 Q29.6908 1301.4 26.0305 1304.07 Q22.3384 1306.71 22.3384 1311.36 Q22.3384 1316 26.0305 1318.68 Q29.6908 1321.32 36.152 1321.32 Q42.6132 1321.32 46.3053 1318.68 Q49.9656 1316 49.9656 1311.36 Q49.9656 1306.71 46.3053 1304.07 Q42.6132 1301.4 36.152 1301.4 Z" fill="#000000" fill-rule="nonzero" fill-opacity="1" /><path clip-path="url(#clip750)" d="M22.4021 1271.79 Q22.4021 1276.51 26.0942 1279.24 Q29.7545 1281.98 36.152 1281.98 Q42.5495 1281.98 46.2417 1279.27 Q49.9019 1276.54 49.9019 1271.79 Q49.9019 1267.12 46.2098 1264.38 Q42.5177 1261.64 36.152 1261.64 Q29.8181 1261.64 26.126 1264.38 Q22.4021 1267.12 22.4021 1271.79 M17.4368 1271.79 Q17.4368 1264.16 22.4021 1259.8 Q27.3673 1255.43 36.152 1255.43 Q44.9049 1255.43 49.9019 1259.8 Q54.8672 1264.16 54.8672 1271.79 Q54.8672 1279.47 49.9019 1283.83 Q44.9049 1288.15 36.152 1288.15 Q27.3673 1288.15 22.4021 1283.83 Q17.4368 1279.47 17.4368 1271.79 Z" fill="#000000" fill-rule="nonzero" fill-opacity="1" /><path clip-path="url(#clip750)" d="M48.597 1240.06 L67.5031 1240.06 L67.5031 1245.95 L18.2962 1245.95 L18.2962 1240.06 L23.7071 1240.06 Q20.5242 1238.22 18.9964 1235.41 Q17.4368 1232.58 17.4368 1228.67 Q17.4368 1222.17 22.5931 1218.13 Q27.7493 1214.06 36.152 1214.06 Q44.5547 1214.06 49.711 1218.13 Q54.8672 1222.17 54.8672 1228.67 Q54.8672 1232.58 53.3394 1235.41 Q51.7798 1238.22 48.597 1240.06 M36.152 1220.14 Q29.6908 1220.14 26.0305 1222.81 Q22.3384 1225.45 22.3384 1230.1 Q22.3384 1234.75 26.0305 1237.42 Q29.6908 1240.06 36.152 1240.06 Q42.6132 1240.06 46.3053 1237.42 Q49.9656 1234.75 49.9656 1230.1 Q49.9656 1225.45 46.3053 1222.81 Q42.6132 1220.14 36.152 1220.14 Z" fill="#000000" fill-rule="nonzero" fill-opacity="1" /><path clip-path="url(#clip750)" d="M39.8759 1204.95 L18.2962 1204.95 L18.2962 1199.1 L39.6531 1199.1 Q44.7139 1199.1 47.2602 1197.12 Q49.7746 1195.15 49.7746 1191.2 Q49.7746 1186.46 46.7509 1183.72 Q43.7272 1180.96 38.5073 1180.96 L18.2962 1180.96 L18.2962 1175.1 L53.9442 1175.1 L53.9442 1180.96 L48.4696 1180.96 Q51.7162 1183.09 53.3076 1185.92 Q54.8672 1188.72 54.8672 1192.45 Q54.8672 1198.59 51.0478 1201.77 Q47.2283 1204.95 39.8759 1204.95 M17.4368 1190.22 L17.4368 1190.22 Z" fill="#000000" fill-rule="nonzero" fill-opacity="1" /><path clip-path="url(#clip750)" d="M4.41896 1163.04 L4.41896 1157.18 L53.9442 1157.18 L53.9442 1163.04 L4.41896 1163.04 Z" fill="#000000" fill-rule="nonzero" fill-opacity="1" /><path clip-path="url(#clip750)" d="M36.0247 1128.73 Q36.0247 1135.82 37.6479 1138.56 Q39.2712 1141.3 43.1861 1141.3 Q46.3053 1141.3 48.1514 1139.26 Q49.9656 1137.19 49.9656 1133.66 Q49.9656 1128.79 46.5281 1125.86 Q43.0588 1122.9 37.3297 1122.9 L36.0247 1122.9 L36.0247 1128.73 M33.6057 1117.04 L53.9442 1117.04 L53.9442 1122.9 L48.5333 1122.9 Q51.7798 1124.91 53.3394 1127.9 Q54.8672 1130.89 54.8672 1135.22 Q54.8672 1140.69 51.8116 1143.94 Q48.7243 1147.15 43.5681 1147.15 Q37.5525 1147.15 34.4969 1143.14 Q31.4414 1139.1 31.4414 1131.11 L31.4414 1122.9 L30.8685 1122.9 Q26.8262 1122.9 24.6301 1125.57 Q22.4021 1128.22 22.4021 1133.02 Q22.4021 1136.08 23.1341 1138.97 Q23.8662 1141.87 25.3303 1144.54 L19.9195 1144.54 Q18.6781 1141.33 18.0734 1138.31 Q17.4368 1135.28 17.4368 1132.42 Q17.4368 1124.68 21.4472 1120.86 Q25.4576 1117.04 33.6057 1117.04 Z" fill="#000000" fill-rule="nonzero" fill-opacity="1" /><path clip-path="url(#clip750)" d="M19.6648 1079.33 L25.1393 1079.33 Q23.7707 1081.81 23.1023 1084.32 Q22.4021 1086.81 22.4021 1089.35 Q22.4021 1095.05 26.0305 1098.2 Q29.6272 1101.35 36.152 1101.35 Q42.6769 1101.35 46.3053 1098.2 Q49.9019 1095.05 49.9019 1089.35 Q49.9019 1086.81 49.2335 1084.32 Q48.5333 1081.81 47.1647 1079.33 L52.5755 1079.33 Q53.7214 1081.78 54.2943 1084.42 Q54.8672 1087.03 54.8672 1089.99 Q54.8672 1098.04 49.8064 1102.78 Q44.7457 1107.53 36.152 1107.53 Q27.431 1107.53 22.4339 1102.75 Q17.4368 1097.95 17.4368 1089.61 Q17.4368 1086.9 18.0097 1084.32 Q18.5508 1081.75 19.6648 1079.33 M53.9442 1087.6 Q55.9175 1085.85 57.5726 1084.99 Q59.2595 1084.13 60.7873 1084.13 Q63.62 1084.13 65.0523 1086.04 Q66.5164 1087.95 66.5164 1091.71 Q66.5164 1093.17 66.3255 1094.57 Q66.1345 1095.94 65.7525 1097.31 L61.583 1097.31 Q62.1241 1096.23 62.3469 1095.05 Q62.6015 1093.87 62.6015 1092.38 Q62.6015 1090.5 61.8376 1089.54 Q61.0737 1088.59 59.6096 1088.59 Q58.6548 1088.59 57.2543 1089.29 Q55.8857 1089.96 53.9442 1091.39 L53.9442 1087.6 Z" fill="#000000" fill-rule="nonzero" fill-opacity="1" /><path clip-path="url(#clip750)" d="M36.0247 1052.94 Q36.0247 1060.04 37.6479 1062.78 Q39.2712 1065.51 43.1861 1065.51 Q46.3053 1065.51 48.1514 1063.48 Q49.9656 1061.41 49.9656 1057.87 Q49.9656 1053.01 46.5281 1050.08 Q43.0588 1047.12 37.3297 1047.12 L36.0247 1047.12 L36.0247 1052.94 M33.6057 1041.26 L53.9442 1041.26 L53.9442 1047.12 L48.5333 1047.12 Q51.7798 1049.12 53.3394 1052.11 Q54.8672 1055.11 54.8672 1059.43 Q54.8672 1064.91 51.8116 1068.16 Q48.7243 1071.37 43.5681 1071.37 Q37.5525 1071.37 34.4969 1067.36 Q31.4414 1063.32 31.4414 1055.33 L31.4414 1047.12 L30.8685 1047.12 Q26.8262 1047.12 24.6301 1049.79 Q22.4021 1052.43 22.4021 1057.24 Q22.4021 1060.29 23.1341 1063.19 Q23.8662 1066.09 25.3303 1068.76 L19.9195 1068.76 Q18.6781 1065.55 18.0734 1062.52 Q17.4368 1059.5 17.4368 1056.63 Q17.4368 1048.9 21.4472 1045.08 Q25.4576 1041.26 33.6057 1041.26 M10.3391 1056.51 L8.5885 1058.32 Q7.95193 1059.02 7.66547 1059.56 Q7.34718 1060.07 7.34718 1060.48 Q7.34718 1061.69 8.52484 1062.27 Q9.67067 1062.84 12.2806 1062.9 L12.2806 1066.88 Q7.98376 1066.82 5.66027 1065.2 Q3.30496 1063.57 3.30496 1060.68 Q3.30496 1059.47 3.75056 1058.45 Q4.19616 1057.43 5.2465 1056.25 L6.99707 1054.44 Q7.63364 1053.74 7.95193 1053.23 Q8.23838 1052.69 8.23838 1052.27 Q8.23838 1051.06 7.09256 1050.49 Q5.9149 1049.92 3.30496 1049.85 L3.30496 1045.88 Q7.60181 1045.94 9.95712 1047.56 Q12.2806 1049.19 12.2806 1052.08 Q12.2806 1053.29 11.835 1054.31 Q11.3894 1055.33 10.3391 1056.51 Z" fill="#000000" fill-rule="nonzero" fill-opacity="1" /><path clip-path="url(#clip750)" d="M22.4021 1015.38 Q22.4021 1020.09 26.0942 1022.83 Q29.7545 1025.57 36.152 1025.57 Q42.5495 1025.57 46.2417 1022.86 Q49.9019 1020.13 49.9019 1015.38 Q49.9019 1010.71 46.2098 1007.97 Q42.5177 1005.23 36.152 1005.23 Q29.8181 1005.23 26.126 1007.97 Q22.4021 1010.71 22.4021 1015.38 M17.4368 1015.38 Q17.4368 1007.74 22.4021 1003.38 Q27.3673 999.024 36.152 999.024 Q44.9049 999.024 49.9019 1003.38 Q54.8672 1007.74 54.8672 1015.38 Q54.8672 1023.05 49.9019 1027.42 Q44.9049 1031.74 36.152 1031.74 Q27.3673 1031.74 22.4021 1027.42 Q17.4368 1023.05 17.4368 1015.38 Z" fill="#000000" fill-rule="nonzero" fill-opacity="1" /><path clip-path="url(#clip750)" d="M972.365 23.3193 L979.136 23.3193 L991.288 55.958 L1003.44 23.3193 L1010.21 23.3193 L995.629 62.208 L986.948 62.208 L972.365 23.3193 Z" fill="#000000" fill-rule="nonzero" fill-opacity="1" /><path clip-path="url(#clip750)" d="M1036.7 42.6595 Q1028.96 42.6595 1025.98 44.4303 Q1022.99 46.2011 1022.99 50.472 Q1022.99 53.8747 1025.21 55.8886 Q1027.47 57.8677 1031.32 57.8677 Q1036.64 57.8677 1039.83 54.1178 Q1043.06 50.3331 1043.06 44.0831 L1043.06 42.6595 L1036.7 42.6595 M1049.45 40.0206 L1049.45 62.208 L1043.06 62.208 L1043.06 56.3053 Q1040.87 59.8469 1037.61 61.5483 Q1034.34 63.2149 1029.62 63.2149 Q1023.65 63.2149 1020.11 59.8816 Q1016.6 56.5136 1016.6 50.8886 Q1016.6 44.3262 1020.98 40.9928 Q1025.39 37.6595 1034.1 37.6595 L1043.06 37.6595 L1043.06 37.0345 Q1043.06 32.6248 1040.14 30.229 Q1037.26 27.7985 1032.02 27.7985 Q1028.68 27.7985 1025.52 28.5971 Q1022.36 29.3957 1019.45 30.9929 L1019.45 25.0901 Q1022.95 23.736 1026.25 23.0763 Q1029.55 22.3818 1032.68 22.3818 Q1041.11 22.3818 1045.28 26.7568 Q1049.45 31.1318 1049.45 40.0206 Z" fill="#000000" fill-rule="nonzero" fill-opacity="1" /><path clip-path="url(#clip750)" d="M1062.61 8.18051 L1069 8.18051 L1069 62.208 L1062.61 62.208 L1062.61 8.18051 Z" fill="#000000" fill-rule="nonzero" fill-opacity="1" /><path clip-path="url(#clip750)" d="M1097.43 27.7985 Q1092.29 27.7985 1089.31 31.8262 Q1086.32 35.8193 1086.32 42.7984 Q1086.32 49.7775 1089.27 53.8053 Q1092.26 57.7983 1097.43 57.7983 Q1102.54 57.7983 1105.52 53.7705 Q1108.51 49.7428 1108.51 42.7984 Q1108.51 35.8887 1105.52 31.8609 Q1102.54 27.7985 1097.43 27.7985 M1097.43 22.3818 Q1105.77 22.3818 1110.52 27.7985 Q1115.28 33.2151 1115.28 42.7984 Q1115.28 52.3469 1110.52 57.7983 Q1105.77 63.2149 1097.43 63.2149 Q1089.07 63.2149 1084.31 57.7983 Q1079.59 52.3469 1079.59 42.7984 Q1079.59 33.2151 1084.31 27.7985 Q1089.07 22.3818 1097.43 22.3818 Z" fill="#000000" fill-rule="nonzero" fill-opacity="1" /><path clip-path="url(#clip750)" d="M1148.41 29.2915 Q1147.33 28.6665 1146.04 28.3887 Q1144.79 28.0762 1143.27 28.0762 Q1137.85 28.0762 1134.93 31.6179 Q1132.05 35.1248 1132.05 41.722 L1132.05 62.208 L1125.63 62.208 L1125.63 23.3193 L1132.05 23.3193 L1132.05 29.361 Q1134.07 25.8193 1137.29 24.1179 Q1140.52 22.3818 1145.14 22.3818 Q1145.8 22.3818 1146.6 22.486 Q1147.4 22.5554 1148.37 22.729 L1148.41 29.2915 Z" fill="#000000" fill-rule="nonzero" fill-opacity="1" /><path clip-path="url(#clip750)" d="M1210.97 41.1664 L1210.97 44.2914 L1181.6 44.2914 Q1182.02 50.8886 1185.56 54.3608 Q1189.13 57.7983 1195.49 57.7983 Q1199.17 57.7983 1202.61 56.8955 Q1206.08 55.9928 1209.48 54.1872 L1209.48 60.2288 Q1206.04 61.6872 1202.43 62.4511 Q1198.82 63.2149 1195.11 63.2149 Q1185.8 63.2149 1180.35 57.7983 Q1174.93 52.3817 1174.93 43.1456 Q1174.93 33.597 1180.07 28.0068 Q1185.25 22.3818 1194 22.3818 Q1201.84 22.3818 1206.39 27.4512 Q1210.97 32.4859 1210.97 41.1664 M1204.59 39.2915 Q1204.52 34.0484 1201.63 30.9234 Q1198.79 27.7985 1194.07 27.7985 Q1188.72 27.7985 1185.49 30.8193 Q1182.29 33.8401 1181.81 39.3262 L1204.59 39.2915 Z" fill="#000000" fill-rule="nonzero" fill-opacity="1" /><path clip-path="url(#clip750)" d="M1246.25 24.4651 L1246.25 30.5068 Q1243.54 29.1179 1240.63 28.4235 Q1237.71 27.729 1234.59 27.729 Q1229.83 27.729 1227.43 29.1873 Q1225.07 30.6457 1225.07 33.5623 Q1225.07 35.7845 1226.77 37.0692 Q1228.47 38.3192 1233.61 39.4651 L1235.8 39.9512 Q1242.61 41.4095 1245.45 44.0831 Q1248.34 46.722 1248.34 51.4789 Q1248.34 56.8955 1244.03 60.0552 Q1239.76 63.2149 1232.26 63.2149 Q1229.13 63.2149 1225.73 62.5899 Q1222.36 61.9997 1218.61 60.7844 L1218.61 54.1872 Q1222.16 56.0275 1225.59 56.965 Q1229.03 57.8677 1232.4 57.8677 Q1236.91 57.8677 1239.34 56.34 Q1241.77 54.7775 1241.77 51.965 Q1241.77 49.3608 1240 47.972 Q1238.27 46.5831 1232.33 45.2984 L1230.11 44.7775 Q1224.17 43.5275 1221.53 40.9581 Q1218.89 38.354 1218.89 33.8401 Q1218.89 28.354 1222.78 25.3679 Q1226.67 22.3818 1233.82 22.3818 Q1237.36 22.3818 1240.49 22.9027 Q1243.61 23.4235 1246.25 24.4651 Z" fill="#000000" fill-rule="nonzero" fill-opacity="1" /><path clip-path="url(#clip750)" d="M1264.69 56.3747 L1264.69 76.9996 L1258.27 76.9996 L1258.27 23.3193 L1264.69 23.3193 L1264.69 29.2221 Q1266.7 25.7499 1269.76 24.0832 Q1272.85 22.3818 1277.12 22.3818 Q1284.2 22.3818 1288.61 28.0068 Q1293.06 33.6318 1293.06 42.7984 Q1293.06 51.965 1288.61 57.59 Q1284.2 63.2149 1277.12 63.2149 Q1272.85 63.2149 1269.76 61.5483 Q1266.7 59.8469 1264.69 56.3747 M1286.43 42.7984 Q1286.43 35.7498 1283.51 31.7568 Q1280.63 27.729 1275.56 27.729 Q1270.49 27.729 1267.57 31.7568 Q1264.69 35.7498 1264.69 42.7984 Q1264.69 49.847 1267.57 53.8747 Q1270.49 57.8677 1275.56 57.8677 Q1280.63 57.8677 1283.51 53.8747 Q1286.43 49.847 1286.43 42.7984 Z" fill="#000000" fill-rule="nonzero" fill-opacity="1" /><path clip-path="url(#clip750)" d="M1336.91 41.1664 L1336.91 44.2914 L1307.54 44.2914 Q1307.95 50.8886 1311.49 54.3608 Q1315.07 57.7983 1321.43 57.7983 Q1325.11 57.7983 1328.54 56.8955 Q1332.02 55.9928 1335.42 54.1872 L1335.42 60.2288 Q1331.98 61.6872 1328.37 62.4511 Q1324.76 63.2149 1321.04 63.2149 Q1311.74 63.2149 1306.29 57.7983 Q1300.87 52.3817 1300.87 43.1456 Q1300.87 33.597 1306.01 28.0068 Q1311.18 22.3818 1319.93 22.3818 Q1327.78 22.3818 1332.33 27.4512 Q1336.91 32.4859 1336.91 41.1664 M1330.52 39.2915 Q1330.45 34.0484 1327.57 30.9234 Q1324.72 27.7985 1320 27.7985 Q1314.65 27.7985 1311.43 30.8193 Q1308.23 33.8401 1307.74 39.3262 L1330.52 39.2915 Z" fill="#000000" fill-rule="nonzero" fill-opacity="1" /><path clip-path="url(#clip750)" d="M1369.93 29.2915 Q1368.86 28.6665 1367.57 28.3887 Q1366.32 28.0762 1364.79 28.0762 Q1359.38 28.0762 1356.46 31.6179 Q1353.58 35.1248 1353.58 41.722 L1353.58 62.208 L1347.15 62.208 L1347.15 23.3193 L1353.58 23.3193 L1353.58 29.361 Q1355.59 25.8193 1358.82 24.1179 Q1362.05 22.3818 1366.67 22.3818 Q1367.33 22.3818 1368.13 22.486 Q1368.93 22.5554 1369.9 22.729 L1369.93 29.2915 Z" fill="#000000" fill-rule="nonzero" fill-opacity="1" /><path clip-path="url(#clip750)" d="M1394.31 42.6595 Q1386.56 42.6595 1383.58 44.4303 Q1380.59 46.2011 1380.59 50.472 Q1380.59 53.8747 1382.81 55.8886 Q1385.07 57.8677 1388.93 57.8677 Q1394.24 57.8677 1397.43 54.1178 Q1400.66 50.3331 1400.66 44.0831 L1400.66 42.6595 L1394.31 42.6595 M1407.05 40.0206 L1407.05 62.208 L1400.66 62.208 L1400.66 56.3053 Q1398.47 59.8469 1395.21 61.5483 Q1391.95 63.2149 1387.22 63.2149 Q1381.25 63.2149 1377.71 59.8816 Q1374.2 56.5136 1374.2 50.8886 Q1374.2 44.3262 1378.58 40.9928 Q1382.99 37.6595 1391.7 37.6595 L1400.66 37.6595 L1400.66 37.0345 Q1400.66 32.6248 1397.74 30.229 Q1394.86 27.7985 1389.62 27.7985 Q1386.29 27.7985 1383.13 28.5971 Q1379.97 29.3957 1377.05 30.9929 L1377.05 25.0901 Q1380.56 23.736 1383.86 23.0763 Q1387.15 22.3818 1390.28 22.3818 Q1398.72 22.3818 1402.88 26.7568 Q1407.05 31.1318 1407.05 40.0206 Z" fill="#000000" fill-rule="nonzero" fill-opacity="1" /><path clip-path="url(#clip750)" d="M1445.8 29.2221 L1445.8 8.18051 L1452.19 8.18051 L1452.19 62.208 L1445.8 62.208 L1445.8 56.3747 Q1443.79 59.8469 1440.7 61.5483 Q1437.64 63.2149 1433.33 63.2149 Q1426.29 63.2149 1421.84 57.59 Q1417.43 51.965 1417.43 42.7984 Q1417.43 33.6318 1421.84 28.0068 Q1426.29 22.3818 1433.33 22.3818 Q1437.64 22.3818 1440.7 24.0832 Q1443.79 25.7499 1445.8 29.2221 M1424.03 42.7984 Q1424.03 49.847 1426.91 53.8747 Q1429.83 57.8677 1434.9 57.8677 Q1439.97 57.8677 1442.88 53.8747 Q1445.8 49.847 1445.8 42.7984 Q1445.8 35.7498 1442.88 31.7568 Q1439.97 27.729 1434.9 27.729 Q1429.83 27.729 1426.91 31.7568 Q1424.03 35.7498 1424.03 42.7984 Z" fill="#000000" fill-rule="nonzero" fill-opacity="1" /><path clip-path="url(#clip750)" d="M1480.42 27.7985 Q1475.28 27.7985 1472.29 31.8262 Q1469.31 35.8193 1469.31 42.7984 Q1469.31 49.7775 1472.26 53.8053 Q1475.24 57.7983 1480.42 57.7983 Q1485.52 57.7983 1488.51 53.7705 Q1491.49 49.7428 1491.49 42.7984 Q1491.49 35.8887 1488.51 31.8609 Q1485.52 27.7985 1480.42 27.7985 M1480.42 22.3818 Q1488.75 22.3818 1493.51 27.7985 Q1498.26 33.2151 1498.26 42.7984 Q1498.26 52.3469 1493.51 57.7983 Q1488.75 63.2149 1480.42 63.2149 Q1472.05 63.2149 1467.29 57.7983 Q1462.57 52.3469 1462.57 42.7984 Q1462.57 33.2151 1467.29 27.7985 Q1472.05 22.3818 1480.42 22.3818 Z" fill="#000000" fill-rule="nonzero" fill-opacity="1" /><path clip-path="url(#clip750)" d="M1564.72 41.1664 L1564.72 44.2914 L1535.35 44.2914 Q1535.76 50.8886 1539.31 54.3608 Q1542.88 57.7983 1549.24 57.7983 Q1552.92 57.7983 1556.35 56.8955 Q1559.83 55.9928 1563.23 54.1872 L1563.23 60.2288 Q1559.79 61.6872 1556.18 62.4511 Q1552.57 63.2149 1548.85 63.2149 Q1539.55 63.2149 1534.1 57.7983 Q1528.68 52.3817 1528.68 43.1456 Q1528.68 33.597 1533.82 28.0068 Q1538.99 22.3818 1547.74 22.3818 Q1555.59 22.3818 1560.14 27.4512 Q1564.72 32.4859 1564.72 41.1664 M1558.33 39.2915 Q1558.26 34.0484 1555.38 30.9234 Q1552.54 27.7985 1547.81 27.7985 Q1542.47 27.7985 1539.24 30.8193 Q1536.04 33.8401 1535.56 39.3262 L1558.33 39.2915 Z" fill="#000000" fill-rule="nonzero" fill-opacity="1" /><path clip-path="url(#clip750)" d="M1597.81 23.3193 L1604.2 23.3193 L1604.2 62.208 L1597.81 62.208 L1597.81 23.3193 M1597.81 8.18051 L1604.2 8.18051 L1604.2 16.2707 L1597.81 16.2707 L1597.81 8.18051 Z" fill="#000000" fill-rule="nonzero" fill-opacity="1" /><path clip-path="url(#clip750)" d="M1649.9 38.7359 L1649.9 62.208 L1643.51 62.208 L1643.51 38.9442 Q1643.51 33.4234 1641.35 30.6804 Q1639.2 27.9374 1634.9 27.9374 Q1629.72 27.9374 1626.74 31.2359 Q1623.75 34.5345 1623.75 40.229 L1623.75 62.208 L1617.33 62.208 L1617.33 23.3193 L1623.75 23.3193 L1623.75 29.361 Q1626.04 25.854 1629.13 24.1179 Q1632.26 22.3818 1636.32 22.3818 Q1643.02 22.3818 1646.46 26.5485 Q1649.9 30.6804 1649.9 38.7359 Z" fill="#000000" fill-rule="nonzero" fill-opacity="1" /><path clip-path="url(#clip750)" d="M1668.96 12.2777 L1668.96 23.3193 L1682.12 23.3193 L1682.12 28.2846 L1668.96 28.2846 L1668.96 49.3956 Q1668.96 54.1525 1670.24 55.5066 Q1671.56 56.8608 1675.56 56.8608 L1682.12 56.8608 L1682.12 62.208 L1675.56 62.208 Q1668.16 62.208 1665.35 59.465 Q1662.53 56.6872 1662.53 49.3956 L1662.53 28.2846 L1657.85 28.2846 L1657.85 23.3193 L1662.53 23.3193 L1662.53 12.2777 L1668.96 12.2777 Z" fill="#000000" fill-rule="nonzero" fill-opacity="1" /><path clip-path="url(#clip750)" d="M1723.78 41.1664 L1723.78 44.2914 L1694.41 44.2914 Q1694.83 50.8886 1698.37 54.3608 Q1701.94 57.7983 1708.3 57.7983 Q1711.98 57.7983 1715.42 56.8955 Q1718.89 55.9928 1722.29 54.1872 L1722.29 60.2288 Q1718.85 61.6872 1715.24 62.4511 Q1711.63 63.2149 1707.92 63.2149 Q1698.61 63.2149 1693.16 57.7983 Q1687.74 52.3817 1687.74 43.1456 Q1687.74 33.597 1692.88 28.0068 Q1698.06 22.3818 1706.81 22.3818 Q1714.65 22.3818 1719.2 27.4512 Q1723.78 32.4859 1723.78 41.1664 M1717.4 39.2915 Q1717.33 34.0484 1714.44 30.9234 Q1711.6 27.7985 1706.87 27.7985 Q1701.53 27.7985 1698.3 30.8193 Q1695.1 33.8401 1694.62 39.3262 L1717.4 39.2915 Z" fill="#000000" fill-rule="nonzero" fill-opacity="1" /><path clip-path="url(#clip750)" d="M1756.81 29.2915 Q1755.73 28.6665 1754.44 28.3887 Q1753.19 28.0762 1751.67 28.0762 Q1746.25 28.0762 1743.33 31.6179 Q1740.45 35.1248 1740.45 41.722 L1740.45 62.208 L1734.03 62.208 L1734.03 23.3193 L1740.45 23.3193 L1740.45 29.361 Q1742.46 25.8193 1745.69 24.1179 Q1748.92 22.3818 1753.54 22.3818 Q1754.2 22.3818 1755 22.486 Q1755.8 22.5554 1756.77 22.729 L1756.81 29.2915 Z" fill="#000000" fill-rule="nonzero" fill-opacity="1" /><path clip-path="url(#clip750)" d="M1758.92 23.3193 L1765.69 23.3193 L1777.85 55.958 L1790 23.3193 L1796.77 23.3193 L1782.19 62.208 L1773.51 62.208 L1758.92 23.3193 Z" fill="#000000" fill-rule="nonzero" fill-opacity="1" /><path clip-path="url(#clip750)" d="M1823.26 42.6595 Q1815.52 42.6595 1812.53 44.4303 Q1809.55 46.2011 1809.55 50.472 Q1809.55 53.8747 1811.77 55.8886 Q1814.03 57.8677 1817.88 57.8677 Q1823.19 57.8677 1826.39 54.1178 Q1829.62 50.3331 1829.62 44.0831 L1829.62 42.6595 L1823.26 42.6595 M1836.01 40.0206 L1836.01 62.208 L1829.62 62.208 L1829.62 56.3053 Q1827.43 59.8469 1824.17 61.5483 Q1820.9 63.2149 1816.18 63.2149 Q1810.21 63.2149 1806.67 59.8816 Q1803.16 56.5136 1803.16 50.8886 Q1803.16 44.3262 1807.53 40.9928 Q1811.94 37.6595 1820.66 37.6595 L1829.62 37.6595 L1829.62 37.0345 Q1829.62 32.6248 1826.7 30.229 Q1823.82 27.7985 1818.58 27.7985 Q1815.24 27.7985 1812.08 28.5971 Q1808.92 29.3957 1806.01 30.9929 L1806.01 25.0901 Q1809.51 23.736 1812.81 23.0763 Q1816.11 22.3818 1819.24 22.3818 Q1827.67 22.3818 1831.84 26.7568 Q1836.01 31.1318 1836.01 40.0206 Z" fill="#000000" fill-rule="nonzero" fill-opacity="1" /><path clip-path="url(#clip750)" d="M1849.17 8.18051 L1855.55 8.18051 L1855.55 62.208 L1849.17 62.208 L1849.17 8.18051 Z" fill="#000000" fill-rule="nonzero" fill-opacity="1" /><path clip-path="url(#clip750)" d="M1883.99 27.7985 Q1878.85 27.7985 1875.87 31.8262 Q1872.88 35.8193 1872.88 42.7984 Q1872.88 49.7775 1875.83 53.8053 Q1878.82 57.7983 1883.99 57.7983 Q1889.1 57.7983 1892.08 53.7705 Q1895.07 49.7428 1895.07 42.7984 Q1895.07 35.8887 1892.08 31.8609 Q1889.1 27.7985 1883.99 27.7985 M1883.99 22.3818 Q1892.33 22.3818 1897.08 27.7985 Q1901.84 33.2151 1901.84 42.7984 Q1901.84 52.3469 1897.08 57.7983 Q1892.33 63.2149 1883.99 63.2149 Q1875.62 63.2149 1870.87 57.7983 Q1866.14 52.3469 1866.14 42.7984 Q1866.14 33.2151 1870.87 27.7985 Q1875.62 22.3818 1883.99 22.3818 Z" fill="#000000" fill-rule="nonzero" fill-opacity="1" /><path clip-path="url(#clip750)" d="M1937.22 24.4651 L1937.22 30.5068 Q1934.51 29.1179 1931.6 28.4235 Q1928.68 27.729 1925.55 27.729 Q1920.8 27.729 1918.4 29.1873 Q1916.04 30.6457 1916.04 33.5623 Q1916.04 35.7845 1917.74 37.0692 Q1919.44 38.3192 1924.58 39.4651 L1926.77 39.9512 Q1933.57 41.4095 1936.42 44.0831 Q1939.3 46.722 1939.3 51.4789 Q1939.3 56.8955 1935 60.0552 Q1930.73 63.2149 1923.23 63.2149 Q1920.1 63.2149 1916.7 62.5899 Q1913.33 61.9997 1909.58 60.7844 L1909.58 54.1872 Q1913.12 56.0275 1916.56 56.965 Q1920 57.8677 1923.37 57.8677 Q1927.88 57.8677 1930.31 56.34 Q1932.74 54.7775 1932.74 51.965 Q1932.74 49.3608 1930.97 47.972 Q1929.23 46.5831 1923.3 45.2984 L1921.08 44.7775 Q1915.14 43.5275 1912.5 40.9581 Q1909.86 38.354 1909.86 33.8401 Q1909.86 28.354 1913.75 25.3679 Q1917.64 22.3818 1924.79 22.3818 Q1928.33 22.3818 1931.46 22.9027 Q1934.58 23.4235 1937.22 24.4651 Z" fill="#000000" fill-rule="nonzero" fill-opacity="1" /><path clip-path="url(#clip750)" d="M1997.67 29.2221 L1997.67 8.18051 L2004.06 8.18051 L2004.06 62.208 L1997.67 62.208 L1997.67 56.3747 Q1995.66 59.8469 1992.57 61.5483 Q1989.51 63.2149 1985.21 63.2149 Q1978.16 63.2149 1973.71 57.59 Q1969.3 51.965 1969.3 42.7984 Q1969.3 33.6318 1973.71 28.0068 Q1978.16 22.3818 1985.21 22.3818 Q1989.51 22.3818 1992.57 24.0832 Q1995.66 25.7499 1997.67 29.2221 M1975.9 42.7984 Q1975.9 49.847 1978.78 53.8747 Q1981.7 57.8677 1986.77 57.8677 Q1991.84 57.8677 1994.76 53.8747 Q1997.67 49.847 1997.67 42.7984 Q1997.67 35.7498 1994.76 31.7568 Q1991.84 27.729 1986.77 27.729 Q1981.7 27.729 1978.78 31.7568 Q1975.9 35.7498 1975.9 42.7984 Z" fill="#000000" fill-rule="nonzero" fill-opacity="1" /><path clip-path="url(#clip750)" d="M2050.48 41.1664 L2050.48 44.2914 L2021.11 44.2914 Q2021.53 50.8886 2025.07 54.3608 Q2028.64 57.7983 2035 57.7983 Q2038.68 57.7983 2042.12 56.8955 Q2045.59 55.9928 2048.99 54.1872 L2048.99 60.2288 Q2045.55 61.6872 2041.94 62.4511 Q2038.33 63.2149 2034.62 63.2149 Q2025.31 63.2149 2019.86 57.7983 Q2014.44 52.3817 2014.44 43.1456 Q2014.44 33.597 2019.58 28.0068 Q2024.76 22.3818 2033.5 22.3818 Q2041.35 22.3818 2045.9 27.4512 Q2050.48 32.4859 2050.48 41.1664 M2044.1 39.2915 Q2044.03 34.0484 2041.14 30.9234 Q2038.3 27.7985 2033.57 27.7985 Q2028.23 27.7985 2025 30.8193 Q2021.8 33.8401 2021.32 39.3262 L2044.1 39.2915 Z" fill="#000000" fill-rule="nonzero" fill-opacity="1" /><path clip-path="url(#clip750)" d="M2111.56 24.8124 L2111.56 30.7846 Q2108.85 29.2915 2106.11 28.5623 Q2103.4 27.7985 2100.62 27.7985 Q2094.41 27.7985 2090.97 31.7568 Q2087.53 35.6804 2087.53 42.7984 Q2087.53 49.9164 2090.97 53.8747 Q2094.41 57.7983 2100.62 57.7983 Q2103.4 57.7983 2106.11 57.0691 Q2108.85 56.3053 2111.56 54.8122 L2111.56 60.715 Q2108.89 61.9649 2106 62.5899 Q2103.16 63.2149 2099.93 63.2149 Q2091.14 63.2149 2085.97 57.6941 Q2080.8 52.1733 2080.8 42.7984 Q2080.8 33.2845 2086 27.8332 Q2091.25 22.3818 2100.34 22.3818 Q2103.3 22.3818 2106.11 23.0068 Q2108.92 23.5971 2111.56 24.8124 Z" fill="#000000" fill-rule="nonzero" fill-opacity="1" /><path clip-path="url(#clip750)" d="M2137.74 27.7985 Q2132.6 27.7985 2129.62 31.8262 Q2126.63 35.8193 2126.63 42.7984 Q2126.63 49.7775 2129.58 53.8053 Q2132.57 57.7983 2137.74 57.7983 Q2142.84 57.7983 2145.83 53.7705 Q2148.82 49.7428 2148.82 42.7984 Q2148.82 35.8887 2145.83 31.8609 Q2142.84 27.7985 2137.74 27.7985 M2137.74 22.3818 Q2146.07 22.3818 2150.83 27.7985 Q2155.59 33.2151 2155.59 42.7984 Q2155.59 52.3469 2150.83 57.7983 Q2146.07 63.2149 2137.74 63.2149 Q2129.37 63.2149 2124.62 57.7983 Q2119.89 52.3469 2119.89 42.7984 Q2119.89 33.2151 2124.62 27.7985 Q2129.37 22.3818 2137.74 22.3818 Z" fill="#000000" fill-rule="nonzero" fill-opacity="1" /><path clip-path="url(#clip750)" d="M2198.5 38.7359 L2198.5 62.208 L2192.12 62.208 L2192.12 38.9442 Q2192.12 33.4234 2189.96 30.6804 Q2187.81 27.9374 2183.5 27.9374 Q2178.33 27.9374 2175.34 31.2359 Q2172.36 34.5345 2172.36 40.229 L2172.36 62.208 L2165.93 62.208 L2165.93 23.3193 L2172.36 23.3193 L2172.36 29.361 Q2174.65 25.854 2177.74 24.1179 Q2180.87 22.3818 2184.93 22.3818 Q2191.63 22.3818 2195.07 26.5485 Q2198.5 30.6804 2198.5 38.7359 Z" fill="#000000" fill-rule="nonzero" fill-opacity="1" /><path clip-path="url(#clip750)" d="M2230.93 8.18051 L2230.93 13.493 L2224.82 13.493 Q2221.39 13.493 2220.03 14.8819 Q2218.71 16.2707 2218.71 19.8818 L2218.71 23.3193 L2229.23 23.3193 L2229.23 28.2846 L2218.71 28.2846 L2218.71 62.208 L2212.29 62.208 L2212.29 28.2846 L2206.18 28.2846 L2206.18 23.3193 L2212.29 23.3193 L2212.29 20.611 Q2212.29 14.118 2215.31 11.1666 Q2218.33 8.18051 2224.89 8.18051 L2230.93 8.18051 Z" fill="#000000" fill-rule="nonzero" fill-opacity="1" /><path clip-path="url(#clip750)" d="M2236.28 23.3193 L2242.67 23.3193 L2242.67 62.208 L2236.28 62.208 L2236.28 23.3193 M2236.28 8.18051 L2242.67 8.18051 L2242.67 16.2707 L2236.28 16.2707 L2236.28 8.18051 Z" fill="#000000" fill-rule="nonzero" fill-opacity="1" /><path clip-path="url(#clip750)" d="M2273.71 42.6595 Q2265.97 42.6595 2262.98 44.4303 Q2260 46.2011 2260 50.472 Q2260 53.8747 2262.22 55.8886 Q2264.48 57.8677 2268.33 57.8677 Q2273.64 57.8677 2276.84 54.1178 Q2280.07 50.3331 2280.07 44.0831 L2280.07 42.6595 L2273.71 42.6595 M2286.45 40.0206 L2286.45 62.208 L2280.07 62.208 L2280.07 56.3053 Q2277.88 59.8469 2274.61 61.5483 Q2271.35 63.2149 2266.63 63.2149 Q2260.66 63.2149 2257.11 59.8816 Q2253.61 56.5136 2253.61 50.8886 Q2253.61 44.3262 2257.98 40.9928 Q2262.39 37.6595 2271.11 37.6595 L2280.07 37.6595 L2280.07 37.0345 Q2280.07 32.6248 2277.15 30.229 Q2274.27 27.7985 2269.02 27.7985 Q2265.69 27.7985 2262.53 28.5971 Q2259.37 29.3957 2256.46 30.9929 L2256.46 25.0901 Q2259.96 23.736 2263.26 23.0763 Q2266.56 22.3818 2269.68 22.3818 Q2278.12 22.3818 2282.29 26.7568 Q2286.45 31.1318 2286.45 40.0206 Z" fill="#000000" fill-rule="nonzero" fill-opacity="1" /><path clip-path="url(#clip750)" d="M2331.94 38.7359 L2331.94 62.208 L2325.55 62.208 L2325.55 38.9442 Q2325.55 33.4234 2323.4 30.6804 Q2321.25 27.9374 2316.94 27.9374 Q2311.77 27.9374 2308.78 31.2359 Q2305.8 34.5345 2305.8 40.229 L2305.8 62.208 L2299.37 62.208 L2299.37 23.3193 L2305.8 23.3193 L2305.8 29.361 Q2308.09 25.854 2311.18 24.1179 Q2314.3 22.3818 2318.36 22.3818 Q2325.07 22.3818 2328.5 26.5485 Q2331.94 30.6804 2331.94 38.7359 Z" fill="#000000" fill-rule="nonzero" fill-opacity="1" /><path clip-path="url(#clip750)" d="M2372.67 24.8124 L2372.67 30.7846 Q2369.96 29.2915 2367.22 28.5623 Q2364.51 27.7985 2361.73 27.7985 Q2355.52 27.7985 2352.08 31.7568 Q2348.64 35.6804 2348.64 42.7984 Q2348.64 49.9164 2352.08 53.8747 Q2355.52 57.7983 2361.73 57.7983 Q2364.51 57.7983 2367.22 57.0691 Q2369.96 56.3053 2372.67 54.8122 L2372.67 60.715 Q2370 61.9649 2367.11 62.5899 Q2364.27 63.2149 2361.04 63.2149 Q2352.25 63.2149 2347.08 57.6941 Q2341.91 52.1733 2341.91 42.7984 Q2341.91 33.2845 2347.11 27.8332 Q2352.36 22.3818 2361.45 22.3818 Q2364.41 22.3818 2367.22 23.0068 Q2370.03 23.5971 2372.67 24.8124 M2363.64 62.208 Q2365.55 64.3608 2366.49 66.1663 Q2367.43 68.0066 2367.43 69.6732 Q2367.43 72.7635 2365.34 74.326 Q2363.26 75.9232 2359.16 75.9232 Q2357.57 75.9232 2356.04 75.7149 Q2354.54 75.5065 2353.05 75.0899 L2353.05 70.5413 Q2354.23 71.1316 2355.52 71.3746 Q2356.8 71.6524 2358.43 71.6524 Q2360.48 71.6524 2361.52 70.8191 Q2362.57 69.9857 2362.57 68.3885 Q2362.57 67.3469 2361.8 65.8191 Q2361.07 64.326 2359.51 62.208 L2363.64 62.208 Z" fill="#000000" fill-rule="nonzero" fill-opacity="1" /><path clip-path="url(#clip750)" d="M2401.45 42.6595 Q2393.71 42.6595 2390.73 44.4303 Q2387.74 46.2011 2387.74 50.472 Q2387.74 53.8747 2389.96 55.8886 Q2392.22 57.8677 2396.07 57.8677 Q2401.38 57.8677 2404.58 54.1178 Q2407.81 50.3331 2407.81 44.0831 L2407.81 42.6595 L2401.45 42.6595 M2414.2 40.0206 L2414.2 62.208 L2407.81 62.208 L2407.81 56.3053 Q2405.62 59.8469 2402.36 61.5483 Q2399.09 63.2149 2394.37 63.2149 Q2388.4 63.2149 2384.86 59.8816 Q2381.35 56.5136 2381.35 50.8886 Q2381.35 44.3262 2385.73 40.9928 Q2390.13 37.6595 2398.85 37.6595 L2407.81 37.6595 L2407.81 37.0345 Q2407.81 32.6248 2404.89 30.229 Q2402.01 27.7985 2396.77 27.7985 Q2393.43 27.7985 2390.27 28.5971 Q2387.11 29.3957 2384.2 30.9929 L2384.2 25.0901 Q2387.7 23.736 2391 23.0763 Q2394.3 22.3818 2397.43 22.3818 Q2405.86 22.3818 2410.03 26.7568 Q2414.2 31.1318 2414.2 40.0206 Z" fill="#000000" fill-rule="nonzero" fill-opacity="1" /><path clip-path="url(#clip752)" d="M316.418 2145.95 L330.256 2125.56 L344.094 2103.93 L357.932 2081.08 L371.769 2057.06 L385.607 2031.85 L399.445 2005.43 L413.283 1977.88 L427.121 1949.11 L440.958 1919.13 L454.796 1887.94 L468.634 1855.57 L482.472 1822.05 L496.31 1787.42 L510.148 1751.65 L523.985 1714.85 L537.823 1677.1 L551.661 1638.47 L565.499 1599.12 L579.337 1559.16 L593.174 1518.86 L607.012 1478.09 L620.85 1436.96 L634.688 1395.58 L648.526 1354.1 L662.364 1312.69 L676.201 1271.27 L690.039 1229.65 L703.877 1188.31 L717.715 1147.96 L731.553 1108 L745.39 1068.59 L759.228 1029.91 L773.066 992.048 L786.904 955.109 L800.742 919.139 L814.58 883.769 L828.417 850.201 L842.255 817.372 L856.093 786.84 L869.931 756.955 L883.769 727.811 L897.606 699.897 L911.444 673.38 L925.282 648.416 L939.12 624.434 L952.958 601.292 L966.796 579.266 L980.633 558.339 L994.471 538.49 L1008.31 519.867 L1022.15 502.609 L1035.98 485.655 L1049.82 469.951 L1063.66 455.678 L1077.5 442.314 L1091.34 429.786 L1105.17 418.052 L1119.01 406.978 L1132.85 396.243 L1146.69 386.592 L1160.53 377.49 L1174.36 369.613 L1188.2 361.619 L1202.04 354.109 L1215.88 347.098 L1229.71 341.045 L1243.55 335.321 L1257.39 329.942 L1271.23 325.106 L1285.07 320.817 L1298.9 316.335 L1312.74 312.216 L1326.58 308.04 L1340.42 304.067 L1354.25 300.42 L1368.09 297.062 L1381.93 293.969 L1395.77 291.224 L1409.61 289.035 L1423.44 287.039 L1437.28 285.408 L1451.12 283.714 L1464.96 281.998 L1478.79 280.41 L1492.63 278.975 L1506.47 277.651 L1520.31 276.423 L1534.15 275.25 L1547.98 274.016 L1561.82 272.86 L1575.66 271.778 L1589.5 270.771 L1603.34 269.835 L1617.17 268.966 L1631.01 268.16 L1644.85 267.413 L1658.69 266.728 L1672.52 266.145 L1686.36 265.607 L1700.2 265.109 L1714.04 264.649 L1727.88 264.223 L1741.71 263.829 L1755.55 263.463 L1769.39 263.123 L1783.23 262.805 L1797.06 262.507 L1810.9 262.227 L1824.74 261.966 L1838.58 261.722 L1852.42 261.495 L1866.25 261.286 L1880.09 261.095 L1893.93 260.919 L1907.77 260.757 L1921.61 260.608 L1935.44 260.471 L1949.28 260.346 L1963.12 260.232 L1976.96 260.127 L1990.79 260.032 L2004.63 259.944 L2018.47 259.864 L2032.31 259.791 L2046.15 259.729 L2059.98 259.67 L2073.82 259.615 L2087.66 259.562 L2101.5 259.51 L2115.33 259.461 L2129.17 259.414 L2143.01 259.37 L2156.85 259.329 L2170.69 259.291 L2184.52 259.255 L2198.36 259.222 L2212.2 259.192 L2226.04 259.165 L2239.87 259.14 L2253.71 259.117 L2267.55 259.096 L2281.39 259.078 L2295.23 259.061 L2309.06 259.047 L2322.9 259.034 L2336.74 259.022 L2350.58 259.012 L2364.42 259.003 L2378.25 258.994 L2392.09 258.986 L2405.93 258.979 L2419.77 258.971 L2433.6 258.963 L2447.44 258.955 L2461.28 258.946 L2475.12 258.938 L2488.96 258.93 L2502.79 258.922 L2516.63 258.914 L2530.47 258.907 L2544.31 258.9 L2558.14 258.894 L2571.98 258.888 L2585.82 258.883 L2599.66 258.878 L2613.5 258.874 L2627.33 258.87 L2641.17 258.867 L2655.01 258.865 L2668.85 258.863 L2682.69 258.861 L2696.52 258.86 L2710.36 258.859 L2724.2 258.859 L2738.04 258.859 L2751.87 258.859 L2765.71 258.86 L2779.55 258.861 L2793.39 258.861 L2807.23 258.862 L2821.06 258.863 L2834.9 258.864 L2848.74 258.864 L2862.58 258.864 L2876.41 258.863 L2890.25 258.862 L2904.09 258.861 L2917.93 258.86 L2931.77 258.858 L2945.6 258.857 L2959.44 258.856 L2973.28 258.855 L2987.12 258.854 L3000.96 258.853 L3014.79 258.852 L3028.63 258.852 L3042.47 258.851 L3056.31 258.85 L3070.14 258.85 L3070.14 180.282 L3056.31 180.283 L3042.47 180.284 L3028.63 180.285 L3014.79 180.286 L3000.96 180.287 L2987.12 180.287 L2973.28 180.288 L2959.44 180.288 L2945.6 180.288 L2931.77 180.288 L2917.93 180.288 L2904.09 180.288 L2890.25 180.287 L2876.41 180.287 L2862.58 180.286 L2848.74 180.285 L2834.9 180.284 L2821.06 180.283 L2807.23 180.283 L2793.39 180.283 L2779.55 180.283 L2765.71 180.283 L2751.87 180.283 L2738.04 180.284 L2724.2 180.286 L2710.36 180.288 L2696.52 180.29 L2682.69 180.292 L2668.85 180.295 L2655.01 180.299 L2641.17 180.303 L2627.33 180.307 L2613.5 180.312 L2599.66 180.317 L2585.82 180.322 L2571.98 180.328 L2558.14 180.333 L2544.31 180.34 L2530.47 180.346 L2516.63 180.351 L2502.79 180.357 L2488.96 180.363 L2475.12 180.368 L2461.28 180.374 L2447.44 180.379 L2433.6 180.385 L2419.77 180.391 L2405.93 180.398 L2392.09 180.405 L2378.25 180.413 L2364.42 180.423 L2350.58 180.434 L2336.74 180.446 L2322.9 180.46 L2309.06 180.475 L2295.23 180.493 L2281.39 180.512 L2267.55 180.533 L2253.71 180.558 L2239.87 180.586 L2226.04 180.616 L2212.2 180.649 L2198.36 180.685 L2184.52 180.724 L2170.69 180.766 L2156.85 180.812 L2143.01 180.861 L2129.17 180.913 L2115.33 180.968 L2101.5 181.025 L2087.66 181.085 L2073.82 181.149 L2059.98 181.215 L2046.15 181.285 L2032.31 181.361 L2018.47 181.442 L2004.63 181.53 L1990.79 181.626 L1976.96 181.731 L1963.12 181.847 L1949.28 181.974 L1935.44 182.112 L1921.61 182.263 L1907.77 182.428 L1893.93 182.607 L1880.09 182.801 L1866.25 183.011 L1852.42 183.238 L1838.58 183.481 L1824.74 183.741 L1810.9 184.02 L1797.06 184.318 L1783.23 184.637 L1769.39 184.978 L1755.55 185.345 L1741.71 185.739 L1727.88 186.164 L1714.04 186.624 L1700.2 187.12 L1686.36 187.657 L1672.52 188.256 L1658.69 188.914 L1644.85 189.623 L1631.01 190.386 L1617.17 191.203 L1603.34 192.076 L1589.5 193.011 L1575.66 194.01 L1561.82 195.082 L1547.98 196.236 L1534.15 197.481 L1520.31 198.829 L1506.47 200.287 L1492.63 201.866 L1478.79 203.576 L1464.96 205.425 L1451.12 207.41 L1437.28 209.504 L1423.44 211.459 L1409.61 213.535 L1395.77 215.815 L1381.93 218.583 L1368.09 221.547 L1354.25 224.331 L1340.42 227.614 L1326.58 231.615 L1312.74 235.184 L1298.9 238.807 L1285.07 242.316 L1271.23 246.085 L1257.39 250.133 L1243.55 254.481 L1229.71 259.15 L1215.88 264.554 L1202.04 270.563 L1188.2 277.432 L1174.36 284.391 L1160.53 291.048 L1146.69 298.75 L1132.85 306.487 L1119.01 314.383 L1105.17 322.9 L1091.34 332.01 L1077.5 341.727 L1063.66 352.73 L1049.82 364.571 L1035.98 376.876 L1022.15 390.449 L1008.31 403.606 L994.471 417.544 L980.633 432.006 L966.796 448.685 L952.958 465.78 L939.12 484.287 L925.282 503.583 L911.444 523.659 L897.606 544.719 L883.769 567.003 L869.931 589.826 L856.093 613.593 L842.255 638.536 L828.417 665.385 L814.58 693.85 L800.742 722.483 L786.904 752.21 L773.066 783.711 L759.228 816.298 L745.39 850.036 L731.553 884.889 L717.715 920.939 L703.877 958.233 L690.039 996.471 L676.201 1035.58 L662.364 1075.47 L648.526 1116 L634.688 1156.73 L620.85 1197.59 L607.012 1238.64 L593.174 1279.99 L579.337 1321.59 L565.499 1363.71 L551.661 1405.73 L537.823 1447.53 L523.985 1489.02 L510.148 1530.29 L496.31 1571.08 L482.472 1611.22 L468.634 1650.6 L454.796 1689.02 L440.958 1726.4 L427.121 1762.8 L413.283 1798.16 L399.445 1832.44 L385.607 1865.57 L371.769 1897.52 L357.932 1928.28 L344.094 1957.84 L330.256 1986.18 L316.418 2013.32  Z" fill="#009af9" fill-rule="evenodd" fill-opacity="0.2"/>
<polyline clip-path="url(#clip752)" style="stroke:#009af9; stroke-linecap:round; stroke-linejoin:round; stroke-width:12; stroke-opacity:1; fill:none" points="316.418,2091.25 330.256,2067.85 344.094,2043.28 357.932,2017.55 371.769,1990.6 385.607,1962.43 399.445,1933.05 413.283,1902.45 427.121,1870.7 440.958,1837.85 454.796,1803.88 468.634,1768.83 482.472,1732.76 496.31,1695.68 510.148,1657.61 523.985,1618.67 537.823,1578.78 551.661,1538.5 565.499,1497.76 579.337,1456.42 593.174,1414.83 607.012,1373.02 620.85,1331.12 634.688,1288.84 648.526,1246.59 662.364,1204.5 676.201,1162.76 690.039,1121.46 703.877,1081.43 717.715,1041.52 731.553,1002.55 745.39,964.411 759.228,927.382 773.066,892.074 786.904,857.417 800.742,824.693 814.58,791.835 828.417,759.734 842.255,729.242 856.093,700.018 869.931,671.895 883.769,645.456 897.606,620.908 911.444,597.496 925.282,574.336 939.12,552.538 952.958,531.713 966.796,511.829 980.633,493.009 994.471,476.023 1008.31,460.384 1022.15,445.228 1035.98,429.52 1049.82,415.058 1063.66,401.729 1077.5,389.621 1091.34,377.725 1105.17,367.692 1119.01,358.617 1132.85,348.602 1146.69,340.488 1160.53,331.972 1174.36,324.022 1188.2,317.615 1202.04,311.691 1215.88,305.498 1229.71,299.675 1243.55,294.726 1257.39,289.746 1271.23,285.201 1285.07,281.096 1298.9,276.703 1312.74,272.893 1326.58,269.677 1340.42,266.912 1354.25,264.172 1368.09,261.035 1381.93,258.168 1395.77,255.315 1409.61,252.817 1423.44,250.597 1437.28,248.722 1451.12,246.9 1464.96,245.065 1478.79,243.363 1492.63,241.919 1506.47,240.638 1520.31,239.453 1534.15,238.431 1547.98,237.404 1561.82,236.441 1575.66,235.369 1589.5,234.371 1603.34,233.444 1617.17,232.583 1631.01,231.786 1644.85,231.171 1658.69,230.629 1672.52,230.061 1686.36,229.61 1700.2,229.241 1714.04,228.9 1727.88,228.573 1741.71,228.203 1755.55,227.86 1769.39,227.524 1783.23,227.16 1797.06,226.82 1810.9,226.503 1824.74,226.205 1838.58,225.926 1852.42,225.687 1866.25,225.478 1880.09,225.284 1893.93,225.105 1907.77,224.938 1921.61,224.785 1935.44,224.644 1949.28,224.515 1963.12,224.397 1976.96,224.289 1990.79,224.18 2004.63,224.08 2018.47,223.987 2032.31,223.902 2046.15,223.823 2059.98,223.749 2073.82,223.679 2087.66,223.611 2101.5,223.547 2115.33,223.485 2129.17,223.427 2143.01,223.373 2156.85,223.322 2170.69,223.274 2184.52,223.23 2198.36,223.19 2212.2,223.152 2226.04,223.118 2239.87,223.087 2253.71,223.059 2267.55,223.033 2281.39,223.01 2295.23,222.99 2309.06,222.971 2322.9,222.954 2336.74,222.939 2350.58,222.925 2364.42,222.912 2378.25,222.9 2392.09,222.889 2405.93,222.878 2419.77,222.866 2433.6,222.855 2447.44,222.844 2461.28,222.833 2475.12,222.823 2488.96,222.813 2502.79,222.803 2516.63,222.794 2530.47,222.785 2544.31,222.777 2558.14,222.77 2571.98,222.764 2585.82,222.758 2599.66,222.753 2613.5,222.748 2627.33,222.744 2641.17,222.741 2655.01,222.738 2668.85,222.736 2682.69,222.735 2696.52,222.734 2710.36,222.733 2724.2,222.733 2738.04,222.734 2751.87,222.734 2765.71,222.734 2779.55,222.735 2793.39,222.736 2807.23,222.736 2821.06,222.736 2834.9,222.735 2848.74,222.735 2862.58,222.734 2876.41,222.733 2890.25,222.731 2904.09,222.729 2917.93,222.728 2931.77,222.726 2945.6,222.725 2959.44,222.724 2973.28,222.723 2987.12,222.722 3000.96,222.721 3014.79,222.72 3028.63,222.719 3042.47,222.718 3056.31,222.718 3070.14,222.717 "/>
<path clip-path="url(#clip752)" d="M316.418 2137.39 L330.256 2116.5 L344.094 2094.45 L357.932 2071.23 L371.769 2046.84 L385.607 2021.24 L399.445 1994.43 L413.283 1966.4 L427.121 1937.16 L440.958 1906.91 L454.796 1875.5 L468.634 1842.88 L482.472 1809.01 L496.31 1774.04 L510.148 1738.02 L523.985 1701.08 L537.823 1663.18 L551.661 1624.63 L565.499 1585.37 L579.337 1545.45 L593.174 1504.97 L607.012 1464.04 L620.85 1422.29 L634.688 1380.24 L648.526 1338.73 L662.364 1296.64 L676.201 1254.3 L690.039 1212.13 L703.877 1170.39 L717.715 1129.78 L731.553 1089.56 L745.39 1049.62 L759.228 1010.38 L773.066 972.863 L786.904 935.554 L800.742 900.144 L814.58 864.927 L828.417 830.47 L842.255 798.154 L856.093 767.186 L869.931 737.542 L883.769 709.314 L897.606 681.785 L911.444 655.695 L925.282 631.142 L939.12 607.746 L952.958 584.405 L966.796 562.638 L980.633 541.532 L994.471 521.514 L1008.31 503.121 L1022.15 486.395 L1035.98 470.51 L1049.82 454.997 L1063.66 441.088 L1077.5 427.946 L1091.34 416.098 L1105.17 404.956 L1119.01 394.002 L1132.85 384.114 L1146.69 374.38 L1160.53 365.176 L1174.36 356.527 L1188.2 348.701 L1202.04 341.694 L1215.88 334.719 L1229.71 328.986 L1243.55 322.923 L1257.39 318.605 L1271.23 314.004 L1285.07 308.751 L1298.9 304.614 L1312.74 300.33 L1326.58 296.549 L1340.42 292.849 L1354.25 289.503 L1368.09 286.169 L1381.93 283.142 L1395.77 280.355 L1409.61 278.189 L1423.44 276.041 L1437.28 273.881 L1451.12 271.877 L1464.96 270.251 L1478.79 268.845 L1492.63 267.548 L1506.47 266.17 L1520.31 264.993 L1534.15 263.948 L1547.98 262.982 L1561.82 262.076 L1575.66 261.217 L1589.5 260.476 L1603.34 259.852 L1617.17 259.245 L1631.01 258.567 L1644.85 257.841 L1658.69 257.121 L1672.52 256.568 L1686.36 256.008 L1700.2 255.478 L1714.04 254.964 L1727.88 254.486 L1741.71 254.062 L1755.55 253.73 L1769.39 253.395 L1783.23 253.073 L1797.06 252.772 L1810.9 252.49 L1824.74 252.226 L1838.58 251.978 L1852.42 251.746 L1866.25 251.53 L1880.09 251.329 L1893.93 251.143 L1907.77 250.971 L1921.61 250.812 L1935.44 250.667 L1949.28 250.533 L1963.12 250.411 L1976.96 250.3 L1990.79 250.198 L2004.63 250.106 L2018.47 250.021 L2032.31 249.944 L2046.15 249.873 L2059.98 249.808 L2073.82 249.746 L2087.66 249.688 L2101.5 249.632 L2115.33 249.577 L2129.17 249.525 L2143.01 249.475 L2156.85 249.428 L2170.69 249.384 L2184.52 249.343 L2198.36 249.305 L2212.2 249.27 L2226.04 249.238 L2239.87 249.208 L2253.71 249.181 L2267.55 249.156 L2281.39 249.134 L2295.23 249.114 L2309.06 249.096 L2322.9 249.08 L2336.74 249.066 L2350.58 249.053 L2364.42 249.041 L2378.25 249.031 L2392.09 249.021 L2405.93 249.012 L2419.77 249.003 L2433.6 248.995 L2447.44 248.986 L2461.28 248.977 L2475.12 248.967 L2488.96 248.958 L2502.79 248.95 L2516.63 248.941 L2530.47 248.933 L2544.31 248.925 L2558.14 248.918 L2571.98 248.911 L2585.82 248.905 L2599.66 248.899 L2613.5 248.894 L2627.33 248.89 L2641.17 248.886 L2655.01 248.883 L2668.85 248.88 L2682.69 248.878 L2696.52 248.877 L2710.36 248.876 L2724.2 248.875 L2738.04 248.875 L2751.87 248.875 L2765.71 248.875 L2779.55 248.876 L2793.39 248.877 L2807.23 248.878 L2821.06 248.879 L2834.9 248.88 L2848.74 248.88 L2862.58 248.88 L2876.41 248.88 L2890.25 248.879 L2904.09 248.878 L2917.93 248.876 L2931.77 248.875 L2945.6 248.873 L2959.44 248.872 L2973.28 248.871 L2987.12 248.87 L3000.96 248.869 L3014.79 248.868 L3028.63 248.867 L3042.47 248.866 L3056.31 248.865 L3070.14 248.864 L3070.14 198.993 L3056.31 198.994 L3042.47 198.994 L3028.63 198.995 L3014.79 198.996 L3000.96 198.997 L2987.12 198.998 L2973.28 198.999 L2959.44 199 L2945.6 199.001 L2931.77 199.002 L2917.93 199.004 L2904.09 199.005 L2890.25 199.006 L2876.41 199.006 L2862.58 199.006 L2848.74 199.005 L2834.9 199.005 L2821.06 199.004 L2807.23 199.003 L2793.39 199.002 L2779.55 199.001 L2765.71 199 L2751.87 199 L2738.04 199 L2724.2 199 L2710.36 199.001 L2696.52 199.002 L2682.69 199.004 L2668.85 199.006 L2655.01 199.009 L2641.17 199.012 L2627.33 199.016 L2613.5 199.02 L2599.66 199.025 L2585.82 199.03 L2571.98 199.036 L2558.14 199.043 L2544.31 199.05 L2530.47 199.057 L2516.63 199.065 L2502.79 199.073 L2488.96 199.081 L2475.12 199.09 L2461.28 199.099 L2447.44 199.107 L2433.6 199.115 L2419.77 199.123 L2405.93 199.131 L2392.09 199.14 L2378.25 199.149 L2364.42 199.159 L2350.58 199.17 L2336.74 199.183 L2322.9 199.197 L2309.06 199.212 L2295.23 199.23 L2281.39 199.249 L2267.55 199.27 L2253.71 199.294 L2239.87 199.32 L2226.04 199.349 L2212.2 199.38 L2198.36 199.414 L2184.52 199.451 L2170.69 199.49 L2156.85 199.532 L2143.01 199.577 L2129.17 199.625 L2115.33 199.675 L2101.5 199.727 L2087.66 199.78 L2073.82 199.835 L2059.98 199.894 L2046.15 199.957 L2032.31 200.024 L2018.47 200.098 L2004.63 200.18 L1990.79 200.269 L1976.96 200.366 L1963.12 200.474 L1949.28 200.594 L1935.44 200.73 L1921.61 200.879 L1907.77 201.041 L1893.93 201.218 L1880.09 201.409 L1866.25 201.617 L1852.42 201.841 L1838.58 202.074 L1824.74 202.311 L1810.9 202.566 L1797.06 202.837 L1783.23 203.128 L1769.39 203.438 L1755.55 203.771 L1741.71 204.13 L1727.88 204.517 L1714.04 204.946 L1700.2 205.413 L1686.36 205.89 L1672.52 206.407 L1658.69 206.992 L1644.85 207.594 L1631.01 208.251 L1617.17 208.967 L1603.34 209.739 L1589.5 210.57 L1575.66 211.463 L1561.82 212.399 L1547.98 213.394 L1534.15 214.458 L1520.31 215.602 L1506.47 216.834 L1492.63 218.174 L1478.79 219.773 L1464.96 221.364 L1451.12 223.229 L1437.28 225.414 L1423.44 227.632 L1409.61 229.717 L1395.77 232.301 L1381.93 235.106 L1368.09 237.487 L1354.25 240.139 L1340.42 243.527 L1326.58 246.322 L1312.74 249.934 L1298.9 253.721 L1285.07 257.797 L1271.23 261.648 L1257.39 266.032 L1243.55 270.93 L1229.71 275.844 L1215.88 281.345 L1202.04 287.731 L1188.2 294.535 L1174.36 301.214 L1160.53 308.831 L1146.69 316.261 L1132.85 323.646 L1119.01 332.749 L1105.17 341.608 L1091.34 351.768 L1077.5 362.354 L1063.66 373.239 L1049.82 385.23 L1035.98 397.514 L1022.15 411.147 L1008.31 424.921 L994.471 439.511 L980.633 454.316 L966.796 471.11 L952.958 489.669 L939.12 508.818 L925.282 528.18 L911.444 548.79 L897.606 569.935 L883.769 592.399 L869.931 617.067 L856.093 642.275 L842.255 669.157 L828.417 697.102 L814.58 724.813 L800.742 753.612 L786.904 784.028 L773.066 816.945 L759.228 850.946 L745.39 884.643 L731.553 920.245 L717.715 955.84 L703.877 992.081 L690.039 1030.3 L676.201 1069.52 L662.364 1109.28 L648.526 1149.61 L634.688 1190.41 L620.85 1231.52 L607.012 1272.86 L593.174 1314.27 L579.337 1355.79 L565.499 1398.1 L551.661 1440.31 L537.823 1482.17 L523.985 1523.3 L510.148 1563.82 L496.31 1603.65 L482.472 1642.78 L468.634 1681.11 L454.796 1718.66 L440.958 1755.43 L427.121 1790.96 L413.283 1825.31 L399.445 1858.56 L385.607 1890.73 L371.769 1921.92 L357.932 1951.95 L344.094 1980.76 L330.256 2008.35 L316.418 2034.71  Z" fill="#e26f46" fill-rule="evenodd" fill-opacity="0.2"/>
<polyline clip-path="url(#clip752)" style="stroke:#e26f46; stroke-linecap:round; stroke-linejoin:round; stroke-width:12; stroke-opacity:1; fill:none" points="316.418,2091.25 330.256,2067.85 344.094,2043.28 357.932,2017.55 371.769,1990.6 385.607,1962.43 399.445,1933.05 413.283,1902.45 427.121,1870.7 440.958,1837.85 454.796,1803.88 468.634,1768.83 482.472,1732.76 496.31,1695.68 510.148,1657.61 523.985,1618.67 537.823,1578.78 551.661,1538.5 565.499,1497.76 579.337,1456.42 593.174,1414.83 607.012,1373.02 620.85,1331.12 634.688,1288.84 648.526,1246.59 662.364,1204.5 676.201,1162.76 690.039,1121.46 703.877,1081.43 717.715,1041.52 731.553,1002.55 745.39,964.411 759.228,927.382 773.066,892.074 786.904,857.417 800.742,824.693 814.58,791.835 828.417,759.734 842.255,729.242 856.093,700.018 869.931,671.895 883.769,645.456 897.606,620.908 911.444,597.496 925.282,574.336 939.12,552.538 952.958,531.713 966.796,511.829 980.633,493.009 994.471,476.023 1008.31,460.384 1022.15,445.228 1035.98,429.52 1049.82,415.058 1063.66,401.729 1077.5,389.621 1091.34,377.725 1105.17,367.692 1119.01,358.617 1132.85,348.602 1146.69,340.488 1160.53,331.972 1174.36,324.022 1188.2,317.615 1202.04,311.691 1215.88,305.498 1229.71,299.675 1243.55,294.726 1257.39,289.746 1271.23,285.201 1285.07,281.096 1298.9,276.703 1312.74,272.893 1326.58,269.677 1340.42,266.912 1354.25,264.172 1368.09,261.035 1381.93,258.168 1395.77,255.315 1409.61,252.817 1423.44,250.597 1437.28,248.722 1451.12,246.9 1464.96,245.065 1478.79,243.363 1492.63,241.919 1506.47,240.638 1520.31,239.453 1534.15,238.431 1547.98,237.404 1561.82,236.441 1575.66,235.369 1589.5,234.371 1603.34,233.444 1617.17,232.583 1631.01,231.786 1644.85,231.171 1658.69,230.629 1672.52,230.061 1686.36,229.61 1700.2,229.241 1714.04,228.9 1727.88,228.573 1741.71,228.203 1755.55,227.86 1769.39,227.524 1783.23,227.16 1797.06,226.82 1810.9,226.503 1824.74,226.205 1838.58,225.926 1852.42,225.687 1866.25,225.478 1880.09,225.284 1893.93,225.105 1907.77,224.938 1921.61,224.785 1935.44,224.644 1949.28,224.515 1963.12,224.397 1976.96,224.289 1990.79,224.18 2004.63,224.08 2018.47,223.987 2032.31,223.902 2046.15,223.823 2059.98,223.749 2073.82,223.679 2087.66,223.611 2101.5,223.547 2115.33,223.485 2129.17,223.427 2143.01,223.373 2156.85,223.322 2170.69,223.274 2184.52,223.23 2198.36,223.19 2212.2,223.152 2226.04,223.118 2239.87,223.087 2253.71,223.059 2267.55,223.033 2281.39,223.01 2295.23,222.99 2309.06,222.971 2322.9,222.954 2336.74,222.939 2350.58,222.925 2364.42,222.912 2378.25,222.9 2392.09,222.889 2405.93,222.878 2419.77,222.866 2433.6,222.855 2447.44,222.844 2461.28,222.833 2475.12,222.823 2488.96,222.813 2502.79,222.803 2516.63,222.794 2530.47,222.785 2544.31,222.777 2558.14,222.77 2571.98,222.764 2585.82,222.758 2599.66,222.753 2613.5,222.748 2627.33,222.744 2641.17,222.741 2655.01,222.738 2668.85,222.736 2682.69,222.735 2696.52,222.734 2710.36,222.733 2724.2,222.733 2738.04,222.734 2751.87,222.734 2765.71,222.734 2779.55,222.735 2793.39,222.736 2807.23,222.736 2821.06,222.736 2834.9,222.735 2848.74,222.735 2862.58,222.734 2876.41,222.733 2890.25,222.731 2904.09,222.729 2917.93,222.728 2931.77,222.726 2945.6,222.725 2959.44,222.724 2973.28,222.723 2987.12,222.722 3000.96,222.721 3014.79,222.72 3028.63,222.719 3042.47,222.718 3056.31,222.718 3070.14,222.717 "/>
<path clip-path="url(#clip750)" d="M2663.79 2135.47 L3055.46 2135.47 L3055.46 1979.95 L2663.79 1979.95  Z" fill="#eaeaea" fill-rule="evenodd" fill-opacity="1"/>
<polyline clip-path="url(#clip750)" style="stroke:#ffffff; stroke-linecap:round; stroke-linejoin:round; stroke-width:4; stroke-opacity:1; fill:none" points="2663.79,2135.47 3055.46,2135.47 3055.46,1979.95 2663.79,1979.95 2663.79,2135.47 "/>
<polyline clip-path="url(#clip750)" style="stroke:#009af9; stroke-linecap:round; stroke-linejoin:round; stroke-width:12; stroke-opacity:1; fill:none" points="2696.23,2031.79 2890.82,2031.79 "/>
<path clip-path="url(#clip750)" d="M2925.48 2048.35 L2925.48 2044.09 Q2927.24 2044.92 2929.04 2045.36 Q2930.85 2045.8 2932.59 2045.8 Q2937.22 2045.8 2939.65 2042.7 Q2942.1 2039.58 2942.45 2033.23 Q2941.1 2035.22 2939.04 2036.29 Q2936.98 2037.35 2934.48 2037.35 Q2929.3 2037.35 2926.27 2034.23 Q2923.26 2031.08 2923.26 2025.64 Q2923.26 2020.32 2926.4 2017.1 Q2929.55 2013.88 2934.78 2013.88 Q2940.78 2013.88 2943.93 2018.49 Q2947.1 2023.07 2947.1 2031.82 Q2947.1 2039.99 2943.21 2044.88 Q2939.34 2049.74 2932.79 2049.74 Q2931.03 2049.74 2929.23 2049.39 Q2927.42 2049.04 2925.48 2048.35 M2934.78 2033.7 Q2937.93 2033.7 2939.76 2031.54 Q2941.61 2029.39 2941.61 2025.64 Q2941.61 2021.91 2939.76 2019.76 Q2937.93 2017.58 2934.78 2017.58 Q2931.64 2017.58 2929.78 2019.76 Q2927.96 2021.91 2927.96 2025.64 Q2927.96 2029.39 2929.78 2031.54 Q2931.64 2033.7 2934.78 2033.7 Z" fill="#000000" fill-rule="nonzero" fill-opacity="1" /><path clip-path="url(#clip750)" d="M2955.55 2014.51 L2973.9 2014.51 L2973.9 2018.44 L2959.83 2018.44 L2959.83 2026.91 Q2960.85 2026.57 2961.87 2026.4 Q2962.89 2026.22 2963.9 2026.22 Q2969.69 2026.22 2973.07 2029.39 Q2976.45 2032.56 2976.45 2037.98 Q2976.45 2043.56 2972.98 2046.66 Q2969.51 2049.74 2963.19 2049.74 Q2961.01 2049.74 2958.74 2049.37 Q2956.5 2049 2954.09 2048.26 L2954.09 2043.56 Q2956.17 2044.69 2958.4 2045.25 Q2960.62 2045.8 2963.09 2045.8 Q2967.1 2045.8 2969.44 2043.7 Q2971.78 2041.59 2971.78 2037.98 Q2971.78 2034.37 2969.44 2032.26 Q2967.1 2030.15 2963.09 2030.15 Q2961.22 2030.15 2959.34 2030.57 Q2957.49 2030.99 2955.55 2031.87 L2955.55 2014.51 Z" fill="#000000" fill-rule="nonzero" fill-opacity="1" /><path clip-path="url(#clip750)" d="M3015.06 2033.86 Q3013.05 2033.86 3011.89 2035.57 Q3010.76 2037.28 3010.76 2040.34 Q3010.76 2043.35 3011.89 2045.08 Q3013.05 2046.8 3015.06 2046.8 Q3017.03 2046.8 3018.16 2045.08 Q3019.32 2043.35 3019.32 2040.34 Q3019.32 2037.31 3018.16 2035.59 Q3017.03 2033.86 3015.06 2033.86 M3015.06 2030.92 Q3018.72 2030.92 3020.87 2033.46 Q3023.02 2036.01 3023.02 2040.34 Q3023.02 2044.67 3020.85 2047.21 Q3018.7 2049.74 3015.06 2049.74 Q3011.36 2049.74 3009.21 2047.21 Q3007.05 2044.67 3007.05 2040.34 Q3007.05 2035.99 3009.21 2033.46 Q3011.38 2030.92 3015.06 2030.92 M2991.17 2016.82 Q2989.18 2016.82 2988.02 2018.56 Q2986.89 2020.27 2986.89 2023.28 Q2986.89 2026.33 2988.02 2028.05 Q2989.16 2029.76 2991.17 2029.76 Q2993.19 2029.76 2994.32 2028.05 Q2995.48 2026.33 2995.48 2023.28 Q2995.48 2020.29 2994.32 2018.56 Q2993.16 2016.82 2991.17 2016.82 M3012.08 2013.88 L3015.78 2013.88 L2994.16 2049.74 L2990.46 2049.74 L3012.08 2013.88 M2991.17 2013.88 Q2994.83 2013.88 2997.01 2016.43 Q2999.18 2018.95 2999.18 2023.28 Q2999.18 2027.65 2997.01 2030.18 Q2994.85 2032.7 2991.17 2032.7 Q2987.49 2032.7 2985.34 2030.18 Q2983.21 2027.63 2983.21 2023.28 Q2983.21 2018.97 2985.36 2016.43 Q2987.52 2013.88 2991.17 2013.88 Z" fill="#000000" fill-rule="nonzero" fill-opacity="1" /><polyline clip-path="url(#clip750)" style="stroke:#e26f46; stroke-linecap:round; stroke-linejoin:round; stroke-width:12; stroke-opacity:1; fill:none" points="2696.23,2083.63 2890.82,2083.63 "/>
<path clip-path="url(#clip750)" d="M2935.59 2081.76 Q2932.45 2081.76 2930.59 2083.92 Q2928.77 2086.07 2928.77 2089.82 Q2928.77 2093.55 2930.59 2095.72 Q2932.45 2097.87 2935.59 2097.87 Q2938.74 2097.87 2940.57 2095.72 Q2942.42 2093.55 2942.42 2089.82 Q2942.42 2086.07 2940.57 2083.92 Q2938.74 2081.76 2935.59 2081.76 M2944.88 2067.11 L2944.88 2071.37 Q2943.12 2070.54 2941.31 2070.1 Q2939.53 2069.66 2937.77 2069.66 Q2933.14 2069.66 2930.69 2072.78 Q2928.26 2075.91 2927.91 2082.23 Q2929.28 2080.21 2931.34 2079.15 Q2933.4 2078.06 2935.87 2078.06 Q2941.08 2078.06 2944.09 2081.23 Q2947.12 2084.38 2947.12 2089.82 Q2947.12 2095.14 2943.97 2098.36 Q2940.83 2101.58 2935.59 2101.58 Q2929.6 2101.58 2926.43 2096.99 Q2923.26 2092.39 2923.26 2083.66 Q2923.26 2075.47 2927.15 2070.61 Q2931.03 2065.72 2937.59 2065.72 Q2939.34 2065.72 2941.13 2066.07 Q2942.93 2066.42 2944.88 2067.11 Z" fill="#000000" fill-rule="nonzero" fill-opacity="1" /><path clip-path="url(#clip750)" d="M2965.18 2084.49 Q2961.84 2084.49 2959.92 2086.28 Q2958.03 2088.06 2958.03 2091.18 Q2958.03 2094.31 2959.92 2096.09 Q2961.84 2097.87 2965.18 2097.87 Q2968.51 2097.87 2970.43 2096.09 Q2972.35 2094.29 2972.35 2091.18 Q2972.35 2088.06 2970.43 2086.28 Q2968.53 2084.49 2965.18 2084.49 M2960.5 2082.5 Q2957.49 2081.76 2955.8 2079.7 Q2954.14 2077.64 2954.14 2074.68 Q2954.14 2070.54 2957.08 2068.13 Q2960.04 2065.72 2965.18 2065.72 Q2970.34 2065.72 2973.28 2068.13 Q2976.22 2070.54 2976.22 2074.68 Q2976.22 2077.64 2974.53 2079.7 Q2972.86 2081.76 2969.88 2082.5 Q2973.26 2083.29 2975.13 2085.58 Q2977.03 2087.87 2977.03 2091.18 Q2977.03 2096.21 2973.95 2098.89 Q2970.9 2101.58 2965.18 2101.58 Q2959.46 2101.58 2956.38 2098.89 Q2953.33 2096.21 2953.33 2091.18 Q2953.33 2087.87 2955.22 2085.58 Q2957.12 2083.29 2960.5 2082.5 M2958.79 2075.12 Q2958.79 2077.8 2960.46 2079.31 Q2962.15 2080.81 2965.18 2080.81 Q2968.19 2080.81 2969.88 2079.31 Q2971.59 2077.8 2971.59 2075.12 Q2971.59 2072.43 2969.88 2070.93 Q2968.19 2069.42 2965.18 2069.42 Q2962.15 2069.42 2960.46 2070.93 Q2958.79 2072.43 2958.79 2075.12 Z" fill="#000000" fill-rule="nonzero" fill-opacity="1" /><path clip-path="url(#clip750)" d="M3014.74 2085.7 Q3012.72 2085.7 3011.57 2087.41 Q3010.43 2089.12 3010.43 2092.18 Q3010.43 2095.19 3011.57 2096.92 Q3012.72 2098.64 3014.74 2098.64 Q3016.71 2098.64 3017.84 2096.92 Q3019 2095.19 3019 2092.18 Q3019 2089.15 3017.84 2087.43 Q3016.71 2085.7 3014.74 2085.7 M3014.74 2082.76 Q3018.4 2082.76 3020.55 2085.3 Q3022.7 2087.85 3022.7 2092.18 Q3022.7 2096.51 3020.52 2099.05 Q3018.37 2101.58 3014.74 2101.58 Q3011.03 2101.58 3008.88 2099.05 Q3006.73 2096.51 3006.73 2092.18 Q3006.73 2087.83 3008.88 2085.3 Q3011.06 2082.76 3014.74 2082.76 M2990.85 2068.66 Q2988.86 2068.66 2987.7 2070.4 Q2986.57 2072.11 2986.57 2075.12 Q2986.57 2078.17 2987.7 2079.89 Q2988.84 2081.6 2990.85 2081.6 Q2992.86 2081.6 2994 2079.89 Q2995.15 2078.17 2995.15 2075.12 Q2995.15 2072.13 2994 2070.4 Q2992.84 2068.66 2990.85 2068.66 M3011.75 2065.72 L3015.46 2065.72 L2993.84 2101.58 L2990.13 2101.58 L3011.75 2065.72 M2990.85 2065.72 Q2994.51 2065.72 2996.68 2068.27 Q2998.86 2070.79 2998.86 2075.12 Q2998.86 2079.49 2996.68 2082.02 Q2994.53 2084.54 2990.85 2084.54 Q2987.17 2084.54 2985.02 2082.02 Q2982.89 2079.47 2982.89 2075.12 Q2982.89 2070.81 2985.04 2068.27 Q2987.19 2065.72 2990.85 2065.72 Z" fill="#000000" fill-rule="nonzero" fill-opacity="1" /></svg>
