<?xml version="1.0" encoding="utf-8"?>
<svg xmlns="http://www.w3.org/2000/svg" xmlns:xlink="http://www.w3.org/1999/xlink" width="800" height="600" viewBox="0 0 3200 2400">
<defs>
  <clipPath id="clip450">
    <rect x="0" y="0" width="3200" height="2400"/>
  </clipPath>
</defs>
<path clip-path="url(#clip450)" d="M0 2400 L3200 2400 L3200 0 L0 0  Z" fill="#ffffff" fill-rule="evenodd" fill-opacity="1"/>
<defs>
  <clipPath id="clip451">
    <rect x="640" y="0" width="2241" height="2241"/>
  </clipPath>
</defs>
<path clip-path="url(#clip450)" d="M233.806 2204.92 L3152.76 2204.92 L3152.76 121.312 L233.806 121.312  Z" fill="#eaeaea" fill-rule="evenodd" fill-opacity="1"/>
<defs>
  <clipPath id="clip452">
    <rect x="233" y="121" width="2920" height="2085"/>
  </clipPath>
</defs>
<polyline clip-path="url(#clip452)" style="stroke:#ffffff; stroke-linecap:round; stroke-linejoin:round; stroke-width:2; stroke-opacity:1; fill:none" points="591.791,2204.92 591.791,121.312 "/>
<polyline clip-path="url(#clip452)" style="stroke:#ffffff; stroke-linecap:round; stroke-linejoin:round; stroke-width:2; stroke-opacity:1; fill:none" points="1142.54,2204.92 1142.54,121.312 "/>
<polyline clip-path="url(#clip452)" style="stroke:#ffffff; stroke-linecap:round; stroke-linejoin:round; stroke-width:2; stroke-opacity:1; fill:none" points="1693.28,2204.92 1693.28,121.312 "/>
<polyline clip-path="url(#clip452)" style="stroke:#ffffff; stroke-linecap:round; stroke-linejoin:round; stroke-width:2; stroke-opacity:1; fill:none" points="2244.03,2204.92 2244.03,121.312 "/>
<polyline clip-path="url(#clip452)" style="stroke:#ffffff; stroke-linecap:round; stroke-linejoin:round; stroke-width:2; stroke-opacity:1; fill:none" points="2794.77,2204.92 2794.77,121.312 "/>
<polyline clip-path="url(#clip452)" style="stroke:#ffffff; stroke-linecap:round; stroke-linejoin:round; stroke-width:2; stroke-opacity:1; fill:none" points="233.806,2007.02 3152.76,2007.02 "/>
<polyline clip-path="url(#clip452)" style="stroke:#ffffff; stroke-linecap:round; stroke-linejoin:round; stroke-width:2; stroke-opacity:1; fill:none" points="233.806,1709.15 3152.76,1709.15 "/>
<polyline clip-path="url(#clip452)" style="stroke:#ffffff; stroke-linecap:round; stroke-linejoin:round; stroke-width:2; stroke-opacity:1; fill:none" points="233.806,1411.27 3152.76,1411.27 "/>
<polyline clip-path="url(#clip452)" style="stroke:#ffffff; stroke-linecap:round; stroke-linejoin:round; stroke-width:2; stroke-opacity:1; fill:none" points="233.806,1113.39 3152.76,1113.39 "/>
<polyline clip-path="url(#clip452)" style="stroke:#ffffff; stroke-linecap:round; stroke-linejoin:round; stroke-width:2; stroke-opacity:1; fill:none" points="233.806,815.514 3152.76,815.514 "/>
<polyline clip-path="url(#clip452)" style="stroke:#ffffff; stroke-linecap:round; stroke-linejoin:round; stroke-width:2; stroke-opacity:1; fill:none" points="233.806,517.636 3152.76,517.636 "/>
<polyline clip-path="url(#clip452)" style="stroke:#ffffff; stroke-linecap:round; stroke-linejoin:round; stroke-width:2; stroke-opacity:1; fill:none" points="233.806,219.759 3152.76,219.759 "/>
<polyline clip-path="url(#clip452)" style="stroke:#ffffff; stroke-linecap:round; stroke-linejoin:round; stroke-width:4; stroke-opacity:1; fill:none" points="316.418,2204.92 316.418,121.312 "/>
<polyline clip-path="url(#clip452)" style="stroke:#ffffff; stroke-linecap:round; stroke-linejoin:round; stroke-width:4; stroke-opacity:1; fill:none" points="867.163,2204.92 867.163,121.312 "/>
<polyline clip-path="url(#clip452)" style="stroke:#ffffff; stroke-linecap:round; stroke-linejoin:round; stroke-width:4; stroke-opacity:1; fill:none" points="1417.91,2204.92 1417.91,121.312 "/>
<polyline clip-path="url(#clip452)" style="stroke:#ffffff; stroke-linecap:round; stroke-linejoin:round; stroke-width:4; stroke-opacity:1; fill:none" points="1968.65,2204.92 1968.65,121.312 "/>
<polyline clip-path="url(#clip452)" style="stroke:#ffffff; stroke-linecap:round; stroke-linejoin:round; stroke-width:4; stroke-opacity:1; fill:none" points="2519.4,2204.92 2519.4,121.312 "/>
<polyline clip-path="url(#clip452)" style="stroke:#ffffff; stroke-linecap:round; stroke-linejoin:round; stroke-width:4; stroke-opacity:1; fill:none" points="3070.14,2204.92 3070.14,121.312 "/>
<polyline clip-path="url(#clip452)" style="stroke:#ffffff; stroke-linecap:round; stroke-linejoin:round; stroke-width:4; stroke-opacity:1; fill:none" points="233.806,2155.96 3152.76,2155.96 "/>
<polyline clip-path="url(#clip452)" style="stroke:#ffffff; stroke-linecap:round; stroke-linejoin:round; stroke-width:4; stroke-opacity:1; fill:none" points="233.806,1858.09 3152.76,1858.09 "/>
<polyline clip-path="url(#clip452)" style="stroke:#ffffff; stroke-linecap:round; stroke-linejoin:round; stroke-width:4; stroke-opacity:1; fill:none" points="233.806,1560.21 3152.76,1560.21 "/>
<polyline clip-path="url(#clip452)" style="stroke:#ffffff; stroke-linecap:round; stroke-linejoin:round; stroke-width:4; stroke-opacity:1; fill:none" points="233.806,1262.33 3152.76,1262.33 "/>
<polyline clip-path="url(#clip452)" style="stroke:#ffffff; stroke-linecap:round; stroke-linejoin:round; stroke-width:4; stroke-opacity:1; fill:none" points="233.806,964.453 3152.76,964.453 "/>
<polyline clip-path="url(#clip452)" style="stroke:#ffffff; stroke-linecap:round; stroke-linejoin:round; stroke-width:4; stroke-opacity:1; fill:none" points="233.806,666.575 3152.76,666.575 "/>
<polyline clip-path="url(#clip452)" style="stroke:#ffffff; stroke-linecap:round; stroke-linejoin:round; stroke-width:4; stroke-opacity:1; fill:none" points="233.806,368.697 3152.76,368.697 "/>
<polyline clip-path="url(#clip450)" style="stroke:#ffffff; stroke-linecap:round; stroke-linejoin:round; stroke-width:4; stroke-opacity:1; fill:none" points="233.806,2204.92 3152.76,2204.92 "/>
<polyline clip-path="url(#clip450)" style="stroke:#333333; stroke-linecap:round; stroke-linejoin:round; stroke-width:4; stroke-opacity:1; fill:none" points="316.418,2204.92 316.418,2223.82 "/>
<polyline clip-path="url(#clip450)" style="stroke:#333333; stroke-linecap:round; stroke-linejoin:round; stroke-width:4; stroke-opacity:1; fill:none" points="867.163,2204.92 867.163,2223.82 "/>
<polyline clip-path="url(#clip450)" style="stroke:#333333; stroke-linecap:round; stroke-linejoin:round; stroke-width:4; stroke-opacity:1; fill:none" points="1417.91,2204.92 1417.91,2223.82 "/>
<polyline clip-path="url(#clip450)" style="stroke:#333333; stroke-linecap:round; stroke-linejoin:round; stroke-width:4; stroke-opacity:1; fill:none" points="1968.65,2204.92 1968.65,2223.82 "/>
<polyline clip-path="url(#clip450)" style="stroke:#333333; stroke-linecap:round; stroke-linejoin:round; stroke-width:4; stroke-opacity:1; fill:none" points="2519.4,2204.92 2519.4,2223.82 "/>
<polyline clip-path="url(#clip450)" style="stroke:#333333; stroke-linecap:round; stroke-linejoin:round; stroke-width:4; stroke-opacity:1; fill:none" points="3070.14,2204.92 3070.14,2223.82 "/>
<polyline clip-path="url(#clip450)" style="stroke:#333333; stroke-linecap:round; stroke-linejoin:round; stroke-width:4; stroke-opacity:1; fill:none" points="591.791,2204.92 591.791,2214.37 "/>
<polyline clip-path="url(#clip450)" style="stroke:#333333; stroke-linecap:round; stroke-linejoin:round; stroke-width:4; stroke-opacity:1; fill:none" points="1142.54,2204.92 1142.54,2214.37 "/>
<polyline clip-path="url(#clip450)" style="stroke:#333333; stroke-linecap:round; stroke-linejoin:round; stroke-width:4; stroke-opacity:1; fill:none" points="1693.28,2204.92 1693.28,2214.37 "/>
<polyline clip-path="url(#clip450)" style="stroke:#333333; stroke-linecap:round; stroke-linejoin:round; stroke-width:4; stroke-opacity:1; fill:none" points="2244.03,2204.92 2244.03,2214.37 "/>
<polyline clip-path="url(#clip450)" style="stroke:#333333; stroke-linecap:round; stroke-linejoin:round; stroke-width:4; stroke-opacity:1; fill:none" points="2794.77,2204.92 2794.77,2214.37 "/>
<path clip-path="url(#clip450)" d="M316.418 2255.04 Q312.807 2255.04 310.978 2258.6 Q309.173 2262.14 309.173 2269.27 Q309.173 2276.38 310.978 2279.95 Q312.807 2283.49 316.418 2283.49 Q320.052 2283.49 321.858 2279.95 Q323.687 2276.38 323.687 2269.27 Q323.687 2262.14 321.858 2258.6 Q320.052 2255.04 316.418 2255.04 M316.418 2251.33 Q322.228 2251.33 325.284 2255.94 Q328.362 2260.52 328.362 2269.27 Q328.362 2278 325.284 2282.61 Q322.228 2287.19 316.418 2287.19 Q310.608 2287.19 307.529 2282.61 Q304.474 2278 304.474 2269.27 Q304.474 2260.52 307.529 2255.94 Q310.608 2251.33 316.418 2251.33 Z" fill="#4c4c4c" fill-rule="nonzero" fill-opacity="1" /><path clip-path="url(#clip450)" d="M857.545 2282.58 L865.184 2282.58 L865.184 2256.22 L856.874 2257.89 L856.874 2253.63 L865.138 2251.96 L869.814 2251.96 L869.814 2282.58 L877.453 2282.58 L877.453 2286.52 L857.545 2286.52 L857.545 2282.58 Z" fill="#4c4c4c" fill-rule="nonzero" fill-opacity="1" /><path clip-path="url(#clip450)" d="M1412.56 2282.58 L1428.88 2282.58 L1428.88 2286.52 L1406.94 2286.52 L1406.94 2282.58 Q1409.6 2279.83 1414.18 2275.2 Q1418.79 2270.55 1419.97 2269.21 Q1422.21 2266.68 1423.09 2264.95 Q1424 2263.19 1424 2261.5 Q1424 2258.74 1422.05 2257.01 Q1420.13 2255.27 1417.03 2255.27 Q1414.83 2255.27 1412.38 2256.03 Q1409.95 2256.8 1407.17 2258.35 L1407.17 2253.63 Q1409.99 2252.49 1412.45 2251.91 Q1414.9 2251.33 1416.94 2251.33 Q1422.31 2251.33 1425.5 2254.02 Q1428.7 2256.71 1428.7 2261.2 Q1428.7 2263.33 1427.89 2265.25 Q1427.1 2267.14 1424.99 2269.74 Q1424.41 2270.41 1421.31 2273.63 Q1418.21 2276.82 1412.56 2282.58 Z" fill="#4c4c4c" fill-rule="nonzero" fill-opacity="1" /><path clip-path="url(#clip450)" d="M1972.9 2267.89 Q1976.26 2268.6 1978.13 2270.87 Q1980.03 2273.14 1980.03 2276.47 Q1980.03 2281.59 1976.51 2284.39 Q1972.99 2287.19 1966.51 2287.19 Q1964.34 2287.19 1962.02 2286.75 Q1959.73 2286.33 1957.28 2285.48 L1957.28 2280.96 Q1959.22 2282.1 1961.54 2282.68 Q1963.85 2283.26 1966.37 2283.26 Q1970.77 2283.26 1973.06 2281.52 Q1975.38 2279.78 1975.38 2276.47 Q1975.38 2273.42 1973.23 2271.71 Q1971.1 2269.97 1967.28 2269.97 L1963.25 2269.97 L1963.25 2266.13 L1967.46 2266.13 Q1970.91 2266.13 1972.74 2264.76 Q1974.57 2263.37 1974.57 2260.78 Q1974.57 2258.12 1972.67 2256.71 Q1970.79 2255.27 1967.28 2255.27 Q1965.36 2255.27 1963.16 2255.69 Q1960.96 2256.1 1958.32 2256.98 L1958.32 2252.82 Q1960.98 2252.08 1963.29 2251.71 Q1965.63 2251.33 1967.69 2251.33 Q1973.02 2251.33 1976.12 2253.77 Q1979.22 2256.17 1979.22 2260.29 Q1979.22 2263.16 1977.58 2265.15 Q1975.93 2267.12 1972.9 2267.89 Z" fill="#4c4c4c" fill-rule="nonzero" fill-opacity="1" /><path clip-path="url(#clip450)" d="M2522.41 2256.03 L2510.6 2274.48 L2522.41 2274.48 L2522.41 2256.03 M2521.18 2251.96 L2527.06 2251.96 L2527.06 2274.48 L2531.99 2274.48 L2531.99 2278.37 L2527.06 2278.37 L2527.06 2286.52 L2522.41 2286.52 L2522.41 2278.37 L2506.81 2278.37 L2506.81 2273.86 L2521.18 2251.96 Z" fill="#4c4c4c" fill-rule="nonzero" fill-opacity="1" /><path clip-path="url(#clip450)" d="M3060.42 2251.96 L3078.78 2251.96 L3078.78 2255.9 L3064.7 2255.9 L3064.7 2264.37 Q3065.72 2264.02 3066.74 2263.86 Q3067.76 2263.67 3068.78 2263.67 Q3074.57 2263.67 3077.95 2266.84 Q3081.32 2270.02 3081.32 2275.43 Q3081.32 2281.01 3077.85 2284.11 Q3074.38 2287.19 3068.06 2287.19 Q3065.88 2287.19 3063.62 2286.82 Q3061.37 2286.45 3058.96 2285.71 L3058.96 2281.01 Q3061.05 2282.14 3063.27 2282.7 Q3065.49 2283.26 3067.97 2283.26 Q3071.97 2283.26 3074.31 2281.15 Q3076.65 2279.04 3076.65 2275.43 Q3076.65 2271.82 3074.31 2269.71 Q3071.97 2267.61 3067.97 2267.61 Q3066.09 2267.61 3064.22 2268.02 Q3062.37 2268.44 3060.42 2269.32 L3060.42 2251.96 Z" fill="#4c4c4c" fill-rule="nonzero" fill-opacity="1" /><path clip-path="url(#clip450)" d="M1692.34 2316.01 L1692.34 2326.14 L1704.41 2326.14 L1704.41 2330.69 L1692.34 2330.69 L1692.34 2350.04 Q1692.34 2354.4 1693.52 2355.64 Q1694.73 2356.88 1698.39 2356.88 L1704.41 2356.88 L1704.41 2361.78 L1698.39 2361.78 Q1691.61 2361.78 1689.03 2359.27 Q1686.45 2356.72 1686.45 2350.04 L1686.45 2330.69 L1682.16 2330.69 L1682.16 2326.14 L1686.45 2326.14 L1686.45 2316.01 L1692.34 2316.01 Z" fill="#000000" fill-rule="nonzero" fill-opacity="1" /><polyline clip-path="url(#clip450)" style="stroke:#ffffff; stroke-linecap:round; stroke-linejoin:round; stroke-width:4; stroke-opacity:1; fill:none" points="233.806,2204.92 233.806,121.312 "/>
<polyline clip-path="url(#clip450)" style="stroke:#333333; stroke-linecap:round; stroke-linejoin:round; stroke-width:4; stroke-opacity:1; fill:none" points="233.806,2155.96 214.909,2155.96 "/>
<polyline clip-path="url(#clip450)" style="stroke:#333333; stroke-linecap:round; stroke-linejoin:round; stroke-width:4; stroke-opacity:1; fill:none" points="233.806,1858.09 214.909,1858.09 "/>
<polyline clip-path="url(#clip450)" style="stroke:#333333; stroke-linecap:round; stroke-linejoin:round; stroke-width:4; stroke-opacity:1; fill:none" points="233.806,1560.21 214.909,1560.21 "/>
<polyline clip-path="url(#clip450)" style="stroke:#333333; stroke-linecap:round; stroke-linejoin:round; stroke-width:4; stroke-opacity:1; fill:none" points="233.806,1262.33 214.909,1262.33 "/>
<polyline clip-path="url(#clip450)" style="stroke:#333333; stroke-linecap:round; stroke-linejoin:round; stroke-width:4; stroke-opacity:1; fill:none" points="233.806,964.453 214.909,964.453 "/>
<polyline clip-path="url(#clip450)" style="stroke:#333333; stroke-linecap:round; stroke-linejoin:round; stroke-width:4; stroke-opacity:1; fill:none" points="233.806,666.575 214.909,666.575 "/>
<polyline clip-path="url(#clip450)" style="stroke:#333333; stroke-linecap:round; stroke-linejoin:round; stroke-width:4; stroke-opacity:1; fill:none" points="233.806,368.697 214.909,368.697 "/>
<polyline clip-path="url(#clip450)" style="stroke:#333333; stroke-linecap:round; stroke-linejoin:round; stroke-width:4; stroke-opacity:1; fill:none" points="233.806,2007.02 224.357,2007.02 "/>
<polyline clip-path="url(#clip450)" style="stroke:#333333; stroke-linecap:round; stroke-linejoin:round; stroke-width:4; stroke-opacity:1; fill:none" points="233.806,1709.15 224.357,1709.15 "/>
<polyline clip-path="url(#clip450)" style="stroke:#333333; stroke-linecap:round; stroke-linejoin:round; stroke-width:4; stroke-opacity:1; fill:none" points="233.806,1411.27 224.357,1411.27 "/>
<polyline clip-path="url(#clip450)" style="stroke:#333333; stroke-linecap:round; stroke-linejoin:round; stroke-width:4; stroke-opacity:1; fill:none" points="233.806,1113.39 224.357,1113.39 "/>
<polyline clip-path="url(#clip450)" style="stroke:#333333; stroke-linecap:round; stroke-linejoin:round; stroke-width:4; stroke-opacity:1; fill:none" points="233.806,815.514 224.357,815.514 "/>
<polyline clip-path="url(#clip450)" style="stroke:#333333; stroke-linecap:round; stroke-linejoin:round; stroke-width:4; stroke-opacity:1; fill:none" points="233.806,517.636 224.357,517.636 "/>
<polyline clip-path="url(#clip450)" style="stroke:#333333; stroke-linecap:round; stroke-linejoin:round; stroke-width:4; stroke-opacity:1; fill:none" points="233.806,219.759 224.357,219.759 "/>
<path clip-path="url(#clip450)" d="M106.228 2141.76 Q102.617 2141.76 100.788 2145.33 Q98.9825 2148.87 98.9825 2156 Q98.9825 2163.1 100.788 2166.67 Q102.617 2170.21 106.228 2170.21 Q109.862 2170.21 111.668 2166.67 Q113.496 2163.1 113.496 2156 Q113.496 2148.87 111.668 2145.33 Q109.862 2141.76 106.228 2141.76 M106.228 2138.06 Q112.038 2138.06 115.094 2142.67 Q118.172 2147.25 118.172 2156 Q118.172 2164.73 115.094 2169.33 Q112.038 2173.91 106.228 2173.91 Q100.418 2173.91 97.339 2169.33 Q94.2835 2164.73 94.2835 2156 Q94.2835 2147.25 97.339 2142.67 Q100.418 2138.06 106.228 2138.06 Z" fill="#4c4c4c" fill-rule="nonzero" fill-opacity="1" /><path clip-path="url(#clip450)" d="M126.39 2167.36 L131.274 2167.36 L131.274 2173.24 L126.39 2173.24 L126.39 2167.36 Z" fill="#4c4c4c" fill-rule="nonzero" fill-opacity="1" /><path clip-path="url(#clip450)" d="M145.487 2169.31 L161.806 2169.31 L161.806 2173.24 L139.862 2173.24 L139.862 2169.31 Q142.524 2166.55 147.107 2161.92 Q151.714 2157.27 152.894 2155.93 Q155.14 2153.41 156.019 2151.67 Q156.922 2149.91 156.922 2148.22 Q156.922 2145.47 154.978 2143.73 Q153.056 2141.99 149.954 2141.99 Q147.755 2141.99 145.302 2142.76 Q142.871 2143.52 140.093 2145.07 L140.093 2140.35 Q142.917 2139.22 145.371 2138.64 Q147.825 2138.06 149.862 2138.06 Q155.232 2138.06 158.427 2140.74 Q161.621 2143.43 161.621 2147.92 Q161.621 2150.05 160.811 2151.97 Q160.024 2153.87 157.917 2156.46 Q157.339 2157.13 154.237 2160.35 Q151.135 2163.54 145.487 2169.31 Z" fill="#4c4c4c" fill-rule="nonzero" fill-opacity="1" /><path clip-path="url(#clip450)" d="M104.145 1843.88 Q100.533 1843.88 98.7048 1847.45 Q96.8992 1850.99 96.8992 1858.12 Q96.8992 1865.23 98.7048 1868.79 Q100.533 1872.33 104.145 1872.33 Q107.779 1872.33 109.584 1868.79 Q111.413 1865.23 111.413 1858.12 Q111.413 1850.99 109.584 1847.45 Q107.779 1843.88 104.145 1843.88 M104.145 1840.18 Q109.955 1840.18 113.01 1844.79 Q116.089 1849.37 116.089 1858.12 Q116.089 1866.85 113.01 1871.45 Q109.955 1876.04 104.145 1876.04 Q98.3344 1876.04 95.2557 1871.45 Q92.2002 1866.85 92.2002 1858.12 Q92.2002 1849.37 95.2557 1844.79 Q98.3344 1840.18 104.145 1840.18 Z" fill="#4c4c4c" fill-rule="nonzero" fill-opacity="1" /><path clip-path="url(#clip450)" d="M124.306 1869.49 L129.191 1869.49 L129.191 1875.37 L124.306 1875.37 L124.306 1869.49 Z" fill="#4c4c4c" fill-rule="nonzero" fill-opacity="1" /><path clip-path="url(#clip450)" d="M152.223 1844.88 L140.417 1863.33 L152.223 1863.33 L152.223 1844.88 M150.996 1840.81 L156.876 1840.81 L156.876 1863.33 L161.806 1863.33 L161.806 1867.22 L156.876 1867.22 L156.876 1875.37 L152.223 1875.37 L152.223 1867.22 L136.621 1867.22 L136.621 1862.7 L150.996 1840.81 Z" fill="#4c4c4c" fill-rule="nonzero" fill-opacity="1" /><path clip-path="url(#clip450)" d="M104.469 1546.01 Q100.858 1546.01 99.0288 1549.57 Q97.2233 1553.11 97.2233 1560.24 Q97.2233 1567.35 99.0288 1570.91 Q100.858 1574.46 104.469 1574.46 Q108.103 1574.46 109.908 1570.91 Q111.737 1567.35 111.737 1560.24 Q111.737 1553.11 109.908 1549.57 Q108.103 1546.01 104.469 1546.01 M104.469 1542.3 Q110.279 1542.3 113.334 1546.91 Q116.413 1551.49 116.413 1560.24 Q116.413 1568.97 113.334 1573.58 Q110.279 1578.16 104.469 1578.16 Q98.6585 1578.16 95.5798 1573.58 Q92.5242 1568.97 92.5242 1560.24 Q92.5242 1551.49 95.5798 1546.91 Q98.6585 1542.3 104.469 1542.3 Z" fill="#4c4c4c" fill-rule="nonzero" fill-opacity="1" /><path clip-path="url(#clip450)" d="M124.631 1571.61 L129.515 1571.61 L129.515 1577.49 L124.631 1577.49 L124.631 1571.61 Z" fill="#4c4c4c" fill-rule="nonzero" fill-opacity="1" /><path clip-path="url(#clip450)" d="M150.279 1558.34 Q147.13 1558.34 145.279 1560.5 Q143.45 1562.65 143.45 1566.4 Q143.45 1570.13 145.279 1572.3 Q147.13 1574.46 150.279 1574.46 Q153.427 1574.46 155.255 1572.3 Q157.107 1570.13 157.107 1566.4 Q157.107 1562.65 155.255 1560.5 Q153.427 1558.34 150.279 1558.34 M159.561 1543.69 L159.561 1547.95 Q157.802 1547.12 155.996 1546.68 Q154.214 1546.24 152.454 1546.24 Q147.825 1546.24 145.371 1549.36 Q142.941 1552.49 142.593 1558.81 Q143.959 1556.79 146.019 1555.73 Q148.079 1554.64 150.556 1554.64 Q155.765 1554.64 158.774 1557.81 Q161.806 1560.96 161.806 1566.4 Q161.806 1571.72 158.658 1574.94 Q155.51 1578.16 150.279 1578.16 Q144.283 1578.16 141.112 1573.58 Q137.941 1568.97 137.941 1560.24 Q137.941 1552.05 141.83 1547.19 Q145.718 1542.3 152.269 1542.3 Q154.029 1542.3 155.811 1542.65 Q157.616 1543 159.561 1543.69 Z" fill="#4c4c4c" fill-rule="nonzero" fill-opacity="1" /><path clip-path="url(#clip450)" d="M104.723 1248.13 Q101.112 1248.13 99.2835 1251.69 Q97.4779 1255.24 97.4779 1262.37 Q97.4779 1269.47 99.2835 1273.04 Q101.112 1276.58 104.723 1276.58 Q108.357 1276.58 110.163 1273.04 Q111.992 1269.47 111.992 1262.37 Q111.992 1255.24 110.163 1251.69 Q108.357 1248.13 104.723 1248.13 M104.723 1244.43 Q110.533 1244.43 113.589 1249.03 Q116.668 1253.62 116.668 1262.37 Q116.668 1271.09 113.589 1275.7 Q110.533 1280.28 104.723 1280.28 Q98.9131 1280.28 95.8344 1275.7 Q92.7789 1271.09 92.7789 1262.37 Q92.7789 1253.62 95.8344 1249.03 Q98.9131 1244.43 104.723 1244.43 Z" fill="#4c4c4c" fill-rule="nonzero" fill-opacity="1" /><path clip-path="url(#clip450)" d="M124.885 1273.73 L129.769 1273.73 L129.769 1279.61 L124.885 1279.61 L124.885 1273.73 Z" fill="#4c4c4c" fill-rule="nonzero" fill-opacity="1" /><path clip-path="url(#clip450)" d="M149.954 1263.2 Q146.621 1263.2 144.7 1264.98 Q142.802 1266.76 142.802 1269.89 Q142.802 1273.01 144.7 1274.8 Q146.621 1276.58 149.954 1276.58 Q153.288 1276.58 155.209 1274.8 Q157.13 1272.99 157.13 1269.89 Q157.13 1266.76 155.209 1264.98 Q153.311 1263.2 149.954 1263.2 M145.279 1261.21 Q142.269 1260.47 140.58 1258.41 Q138.913 1256.35 138.913 1253.38 Q138.913 1249.24 141.853 1246.83 Q144.816 1244.43 149.954 1244.43 Q155.116 1244.43 158.056 1246.83 Q160.996 1249.24 160.996 1253.38 Q160.996 1256.35 159.306 1258.41 Q157.64 1260.47 154.654 1261.21 Q158.033 1261.99 159.908 1264.29 Q161.806 1266.58 161.806 1269.89 Q161.806 1274.91 158.728 1277.6 Q155.672 1280.28 149.954 1280.28 Q144.237 1280.28 141.158 1277.6 Q138.103 1274.91 138.103 1269.89 Q138.103 1266.58 140.001 1264.29 Q141.899 1261.99 145.279 1261.21 M143.566 1253.82 Q143.566 1256.51 145.232 1258.01 Q146.922 1259.52 149.954 1259.52 Q152.964 1259.52 154.654 1258.01 Q156.366 1256.51 156.366 1253.82 Q156.366 1251.14 154.654 1249.63 Q152.964 1248.13 149.954 1248.13 Q146.922 1248.13 145.232 1249.63 Q143.566 1251.14 143.566 1253.82 Z" fill="#4c4c4c" fill-rule="nonzero" fill-opacity="1" /><path clip-path="url(#clip450)" d="M95.4409 977.798 L103.08 977.798 L103.08 951.432 L94.7696 953.099 L94.7696 948.84 L103.033 947.173 L107.709 947.173 L107.709 977.798 L115.348 977.798 L115.348 981.733 L95.4409 981.733 L95.4409 977.798 Z" fill="#4c4c4c" fill-rule="nonzero" fill-opacity="1" /><path clip-path="url(#clip450)" d="M124.793 975.853 L129.677 975.853 L129.677 981.733 L124.793 981.733 L124.793 975.853 Z" fill="#4c4c4c" fill-rule="nonzero" fill-opacity="1" /><path clip-path="url(#clip450)" d="M149.862 950.252 Q146.251 950.252 144.422 953.816 Q142.617 957.358 142.617 964.488 Q142.617 971.594 144.422 975.159 Q146.251 978.7 149.862 978.7 Q153.496 978.7 155.302 975.159 Q157.13 971.594 157.13 964.488 Q157.13 957.358 155.302 953.816 Q153.496 950.252 149.862 950.252 M149.862 946.548 Q155.672 946.548 158.728 951.154 Q161.806 955.738 161.806 964.488 Q161.806 973.214 158.728 977.821 Q155.672 982.404 149.862 982.404 Q144.052 982.404 140.973 977.821 Q137.918 973.214 137.918 964.488 Q137.918 955.738 140.973 951.154 Q144.052 946.548 149.862 946.548 Z" fill="#4c4c4c" fill-rule="nonzero" fill-opacity="1" /><path clip-path="url(#clip450)" d="M97.0381 679.92 L104.677 679.92 L104.677 653.554 L96.3668 655.221 L96.3668 650.962 L104.631 649.295 L109.307 649.295 L109.307 679.92 L116.945 679.92 L116.945 683.855 L97.0381 683.855 L97.0381 679.92 Z" fill="#4c4c4c" fill-rule="nonzero" fill-opacity="1" /><path clip-path="url(#clip450)" d="M126.39 677.976 L131.274 677.976 L131.274 683.855 L126.39 683.855 L126.39 677.976 Z" fill="#4c4c4c" fill-rule="nonzero" fill-opacity="1" /><path clip-path="url(#clip450)" d="M145.487 679.92 L161.806 679.92 L161.806 683.855 L139.862 683.855 L139.862 679.92 Q142.524 677.165 147.107 672.536 Q151.714 667.883 152.894 666.54 Q155.14 664.017 156.019 662.281 Q156.922 660.522 156.922 658.832 Q156.922 656.078 154.978 654.341 Q153.056 652.605 149.954 652.605 Q147.755 652.605 145.302 653.369 Q142.871 654.133 140.093 655.684 L140.093 650.962 Q142.917 649.828 145.371 649.249 Q147.825 648.67 149.862 648.67 Q155.232 648.67 158.427 651.355 Q161.621 654.041 161.621 658.531 Q161.621 660.661 160.811 662.582 Q160.024 664.48 157.917 667.073 Q157.339 667.744 154.237 670.962 Q151.135 674.156 145.487 679.92 Z" fill="#4c4c4c" fill-rule="nonzero" fill-opacity="1" /><path clip-path="url(#clip450)" d="M94.9548 382.042 L102.594 382.042 L102.594 355.677 L94.2835 357.343 L94.2835 353.084 L102.547 351.417 L107.223 351.417 L107.223 382.042 L114.862 382.042 L114.862 385.977 L94.9548 385.977 L94.9548 382.042 Z" fill="#4c4c4c" fill-rule="nonzero" fill-opacity="1" /><path clip-path="url(#clip450)" d="M124.306 380.098 L129.191 380.098 L129.191 385.977 L124.306 385.977 L124.306 380.098 Z" fill="#4c4c4c" fill-rule="nonzero" fill-opacity="1" /><path clip-path="url(#clip450)" d="M152.223 355.492 L140.417 373.941 L152.223 373.941 L152.223 355.492 M150.996 351.417 L156.876 351.417 L156.876 373.941 L161.806 373.941 L161.806 377.829 L156.876 377.829 L156.876 385.977 L152.223 385.977 L152.223 377.829 L136.621 377.829 L136.621 373.316 L150.996 351.417 Z" fill="#4c4c4c" fill-rule="nonzero" fill-opacity="1" /><path clip-path="url(#clip450)" d="M48.597 1321.32 L67.5031 1321.32 L67.5031 1327.21 L18.2962 1327.21 L18.2962 1321.32 L23.7071 1321.32 Q20.5242 1319.47 18.9964 1316.67 Q17.4368 1313.84 17.4368 1309.93 Q17.4368 1303.43 22.5931 1299.39 Q27.7493 1295.32 36.152 1295.32 Q44.5547 1295.32 49.711 1299.39 Q54.8672 1303.43 54.8672 1309.93 Q54.8672 1313.84 53.3394 1316.67 Q51.7798 1319.47 48.597 1321.32 M36.152 1301.4 Q29.6908 1301.4 26.0305 1304.07 Q22.3384 1306.71 22.3384 1311.36 Q22.3384 1316 26.0305 1318.68 Q29.6908 1321.32 36.152 1321.32 Q42.6132 1321.32 46.3053 1318.68 Q49.9656 1316 49.9656 1311.36 Q49.9656 1306.71 46.3053 1304.07 Q42.6132 1301.4 36.152 1301.4 Z" fill="#000000" fill-rule="nonzero" fill-opacity="1" /><path clip-path="url(#clip450)" d="M22.4021 1271.79 Q22.4021 1276.51 26.0942 1279.24 Q29.7545 1281.98 36.152 1281.98 Q42.5495 1281.98 46.2417 1279.27 Q49.9019 1276.54 49.9019 1271.79 Q49.9019 1267.12 46.2098 1264.38 Q42.5177 1261.64 36.152 1261.64 Q29.8181 1261.64 26.126 1264.38 Q22.4021 1267.12 22.4021 1271.79 M17.4368 1271.79 Q17.4368 1264.16 22.4021 1259.8 Q27.3673 1255.43 36.152 1255.43 Q44.9049 1255.43 49.9019 1259.8 Q54.8672 1264.16 54.8672 1271.79 Q54.8672 1279.47 49.9019 1283.83 Q44.9049 1288.15 36.152 1288.15 Q27.3673 1288.15 22.4021 1283.83 Q17.4368 1279.47 17.4368 1271.79 Z" fill="#000000" fill-rule="nonzero" fill-opacity="1" /><path clip-path="url(#clip450)" d="M48.597 1240.06 L67.5031 1240.06 L67.5031 1245.95 L18.2962 1245.95 L18.2962 1240.06 L23.7071 1240.06 Q20.5242 1238.22 18.9964 1235.41 Q17.4368 1232.58 17.4368 1228.67 Q17.4368 1222.17 22.5931 1218.13 Q27.7493 1214.06 36.152 1214.06 Q44.5547 1214.06 49.711 1218.13 Q54.8672 1222.17 54.8672 1228.67 Q54.8672 1232.58 53.3394 1235.41 Q51.7798 1238.22 48.597 1240.06 M36.152 1220.14 Q29.6908 1220.14 26.0305 1222.81 Q22.3384 1225.45 22.3384 1230.1 Q22.3384 1234.75 26.0305 1237.42 Q29.6908 1240.06 36.152 1240.06 Q42.6132 1240.06 46.3053 1237.42 Q49.9656 1234.75 49.9656 1230.1 Q49.9656 1225.45 46.3053 1222.81 Q42.6132 1220.14 36.152 1220.14 Z" fill="#000000" fill-rule="nonzero" fill-opacity="1" /><path clip-path="url(#clip450)" d="M39.8759 1204.95 L18.2962 1204.95 L18.2962 1199.1 L39.6531 1199.1 Q44.7139 1199.1 47.2602 1197.12 Q49.7746 1195.15 49.7746 1191.2 Q49.7746 1186.46 46.7509 1183.72 Q43.7272 1180.96 38.5073 1180.96 L18.2962 1180.96 L18.2962 1175.1 L53.9442 1175.1 L53.9442 1180.96 L48.4696 1180.96 Q51.7162 1183.09 53.3076 1185.92 Q54.8672 1188.72 54.8672 1192.45 Q54.8672 1198.59 51.0478 1201.77 Q47.2283 1204.95 39.8759 1204.95 M17.4368 1190.22 L17.4368 1190.22 Z" fill="#000000" fill-rule="nonzero" fill-opacity="1" /><path clip-path="url(#clip450)" d="M4.41896 1163.04 L4.41896 1157.18 L53.9442 1157.18 L53.9442 1163.04 L4.41896 1163.04 Z" fill="#000000" fill-rule="nonzero" fill-opacity="1" /><path clip-path="url(#clip450)" d="M36.0247 1128.73 Q36.0247 1135.82 37.6479 1138.56 Q39.2712 1141.3 43.1861 1141.3 Q46.3053 1141.3 48.1514 1139.26 Q49.9656 1137.19 49.9656 1133.66 Q49.9656 1128.79 46.5281 1125.86 Q43.0588 1122.9 37.3297 1122.9 L36.0247 1122.9 L36.0247 1128.73 M33.6057 1117.04 L53.9442 1117.04 L53.9442 1122.9 L48.5333 1122.9 Q51.7798 1124.91 53.3394 1127.9 Q54.8672 1130.89 54.8672 1135.22 Q54.8672 1140.69 51.8116 1143.94 Q48.7243 1147.15 43.5681 1147.15 Q37.5525 1147.15 34.4969 1143.14 Q31.4414 1139.1 31.4414 1131.11 L31.4414 1122.9 L30.8685 1122.9 Q26.8262 1122.9 24.6301 1125.57 Q22.4021 1128.22 22.4021 1133.02 Q22.4021 1136.08 23.1341 1138.97 Q23.8662 1141.87 25.3303 1144.54 L19.9195 1144.54 Q18.6781 1141.33 18.0734 1138.31 Q17.4368 1135.28 17.4368 1132.42 Q17.4368 1124.68 21.4472 1120.86 Q25.4576 1117.04 33.6057 1117.04 Z" fill="#000000" fill-rule="nonzero" fill-opacity="1" /><path clip-path="url(#clip450)" d="M19.6648 1079.33 L25.1393 1079.33 Q23.7707 1081.81 23.1023 1084.32 Q22.4021 1086.81 22.4021 1089.35 Q22.4021 1095.05 26.0305 1098.2 Q29.6272 1101.35 36.152 1101.35 Q42.6769 1101.35 46.3053 1098.2 Q49.9019 1095.05 49.9019 1089.35 Q49.9019 1086.81 49.2335 1084.32 Q48.5333 1081.81 47.1647 1079.33 L52.5755 1079.33 Q53.7214 1081.78 54.2943 1084.42 Q54.8672 1087.03 54.8672 1089.99 Q54.8672 1098.04 49.8064 1102.78 Q44.7457 1107.53 36.152 1107.53 Q27.431 1107.53 22.4339 1102.75 Q17.4368 1097.95 17.4368 1089.61 Q17.4368 1086.9 18.0097 1084.32 Q18.5508 1081.75 19.6648 1079.33 M53.9442 1087.6 Q55.9175 1085.85 57.5726 1084.99 Q59.2595 1084.13 60.7873 1084.13 Q63.62 1084.13 65.0523 1086.04 Q66.5164 1087.95 66.5164 1091.71 Q66.5164 1093.17 66.3255 1094.57 Q66.1345 1095.94 65.7525 1097.31 L61.583 1097.31 Q62.1241 1096.23 62.3469 1095.05 Q62.6015 1093.87 62.6015 1092.38 Q62.6015 1090.5 61.8376 1089.54 Q61.0737 1088.59 59.6096 1088.59 Q58.6548 1088.59 57.2543 1089.29 Q55.8857 1089.96 53.9442 1091.39 L53.9442 1087.6 Z" fill="#000000" fill-rule="nonzero" fill-opacity="1" /><path clip-path="url(#clip450)" d="M36.0247 1052.94 Q36.0247 1060.04 37.6479 1062.78 Q39.2712 1065.51 43.1861 1065.51 Q46.3053 1065.51 48.1514 1063.48 Q49.9656 1061.41 49.9656 1057.87 Q49.9656 1053.01 46.5281 1050.08 Q43.0588 1047.12 37.3297 1047.12 L36.0247 1047.12 L36.0247 1052.94 M33.6057 1041.26 L53.9442 1041.26 L53.9442 1047.12 L48.5333 1047.12 Q51.7798 1049.12 53.3394 1052.11 Q54.8672 1055.11 54.8672 1059.43 Q54.8672 1064.91 51.8116 1068.16 Q48.7243 1071.37 43.5681 1071.37 Q37.5525 1071.37 34.4969 1067.36 Q31.4414 1063.32 31.4414 1055.33 L31.4414 1047.12 L30.8685 1047.12 Q26.8262 1047.12 24.6301 1049.79 Q22.4021 1052.43 22.4021 1057.24 Q22.4021 1060.29 23.1341 1063.19 Q23.8662 1066.09 25.3303 1068.76 L19.9195 1068.76 Q18.6781 1065.55 18.0734 1062.52 Q17.4368 1059.5 17.4368 1056.63 Q17.4368 1048.9 21.4472 1045.08 Q25.4576 1041.26 33.6057 1041.26 M10.3391 1056.51 L8.5885 1058.32 Q7.95193 1059.02 7.66547 1059.56 Q7.34718 1060.07 7.34718 1060.48 Q7.34718 1061.69 8.52484 1062.27 Q9.67067 1062.84 12.2806 1062.9 L12.2806 1066.88 Q7.98376 1066.82 5.66027 1065.2 Q3.30496 1063.57 3.30496 1060.68 Q3.30496 1059.47 3.75056 1058.45 Q4.19616 1057.43 5.2465 1056.25 L6.99707 1054.44 Q7.63364 1053.74 7.95193 1053.23 Q8.23838 1052.69 8.23838 1052.27 Q8.23838 1051.06 7.09256 1050.49 Q5.9149 1049.92 3.30496 1049.85 L3.30496 1045.88 Q7.60181 1045.94 9.95712 1047.56 Q12.2806 1049.19 12.2806 1052.08 Q12.2806 1053.29 11.835 1054.31 Q11.3894 1055.33 10.3391 1056.51 Z" fill="#000000" fill-rule="nonzero" fill-opacity="1" /><path clip-path="url(#clip450)" d="M22.4021 1015.38 Q22.4021 1020.09 26.0942 1022.83 Q29.7545 1025.57 36.152 1025.57 Q42.5495 1025.57 46.2417 1022.86 Q49.9019 1020.13 49.9019 1015.38 Q49.9019 1010.71 46.2098 1007.97 Q42.5177 1005.23 36.152 1005.23 Q29.8181 1005.23 26.126 1007.97 Q22.4021 1010.71 22.4021 1015.38 M17.4368 1015.38 Q17.4368 1007.74 22.4021 1003.38 Q27.3673 999.024 36.152 999.024 Q44.9049 999.024 49.9019 1003.38 Q54.8672 1007.74 54.8672 1015.38 Q54.8672 1023.05 49.9019 1027.42 Q44.9049 1031.74 36.152 1031.74 Q27.3673 1031.74 22.4021 1027.42 Q17.4368 1023.05 17.4368 1015.38 Z" fill="#000000" fill-rule="nonzero" fill-opacity="1" /><path clip-path="url(#clip450)" d="M972.365 23.3193 L979.136 23.3193 L991.288 55.958 L1003.44 23.3193 L1010.21 23.3193 L995.629 62.208 L986.948 62.208 L972.365 23.3193 Z" fill="#000000" fill-rule="nonzero" fill-opacity="1" /><path clip-path="url(#clip450)" d="M1036.7 42.6595 Q1028.96 42.6595 1025.98 44.4303 Q1022.99 46.2011 1022.99 50.472 Q1022.99 53.8747 1025.21 55.8886 Q1027.47 57.8677 1031.32 57.8677 Q1036.64 57.8677 1039.83 54.1178 Q1043.06 50.3331 1043.06 44.0831 L1043.06 42.6595 L1036.7 42.6595 M1049.45 40.0206 L1049.45 62.208 L1043.06 62.208 L1043.06 56.3053 Q1040.87 59.8469 1037.61 61.5483 Q1034.34 63.2149 1029.62 63.2149 Q1023.65 63.2149 1020.11 59.8816 Q1016.6 56.5136 1016.6 50.8886 Q1016.6 44.3262 1020.98 40.9928 Q1025.39 37.6595 1034.1 37.6595 L1043.06 37.6595 L1043.06 37.0345 Q1043.06 32.6248 1040.14 30.229 Q1037.26 27.7985 1032.02 27.7985 Q1028.68 27.7985 1025.52 28.5971 Q1022.36 29.3957 1019.45 30.9929 L1019.45 25.0901 Q1022.95 23.736 1026.25 23.0763 Q1029.55 22.3818 1032.68 22.3818 Q1041.11 22.3818 1045.28 26.7568 Q1049.45 31.1318 1049.45 40.0206 Z" fill="#000000" fill-rule="nonzero" fill-opacity="1" /><path clip-path="url(#clip450)" d="M1062.61 8.18051 L1069 8.18051 L1069 62.208 L1062.61 62.208 L1062.61 8.18051 Z" fill="#000000" fill-rule="nonzero" fill-opacity="1" /><path clip-path="url(#clip450)" d="M1097.43 27.7985 Q1092.29 27.7985 1089.31 31.8262 Q1086.32 35.8193 1086.32 42.7984 Q1086.32 49.7775 1089.27 53.8053 Q1092.26 57.7983 1097.43 57.7983 Q1102.54 57.7983 1105.52 53.7705 Q1108.51 49.7428 1108.51 42.7984 Q1108.51 35.8887 1105.52 31.8609 Q1102.54 27.7985 1097.43 27.7985 M1097.43 22.3818 Q1105.77 22.3818 1110.52 27.7985 Q1115.28 33.2151 1115.28 42.7984 Q1115.28 52.3469 1110.52 57.7983 Q1105.77 63.2149 1097.43 63.2149 Q1089.07 63.2149 1084.31 57.7983 Q1079.59 52.3469 1079.59 42.7984 Q1079.59 33.2151 1084.31 27.7985 Q1089.07 22.3818 1097.43 22.3818 Z" fill="#000000" fill-rule="nonzero" fill-opacity="1" /><path clip-path="url(#clip450)" d="M1148.41 29.2915 Q1147.33 28.6665 1146.04 28.3887 Q1144.79 28.0762 1143.27 28.0762 Q1137.85 28.0762 1134.93 31.6179 Q1132.05 35.1248 1132.05 41.722 L1132.05 62.208 L1125.63 62.208 L1125.63 23.3193 L1132.05 23.3193 L1132.05 29.361 Q1134.07 25.8193 1137.29 24.1179 Q1140.52 22.3818 1145.14 22.3818 Q1145.8 22.3818 1146.6 22.486 Q1147.4 22.5554 1148.37 22.729 L1148.41 29.2915 Z" fill="#000000" fill-rule="nonzero" fill-opacity="1" /><path clip-path="url(#clip450)" d="M1210.97 41.1664 L1210.97 44.2914 L1181.6 44.2914 Q1182.02 50.8886 1185.56 54.3608 Q1189.13 57.7983 1195.49 57.7983 Q1199.17 57.7983 1202.61 56.8955 Q1206.08 55.9928 1209.48 54.1872 L1209.48 60.2288 Q1206.04 61.6872 1202.43 62.4511 Q1198.82 63.2149 1195.11 63.2149 Q1185.8 63.2149 1180.35 57.7983 Q1174.93 52.3817 1174.93 43.1456 Q1174.93 33.597 1180.07 28.0068 Q1185.25 22.3818 1194 22.3818 Q1201.84 22.3818 1206.39 27.4512 Q1210.97 32.4859 1210.97 41.1664 M1204.59 39.2915 Q1204.52 34.0484 1201.63 30.9234 Q1198.79 27.7985 1194.07 27.7985 Q1188.72 27.7985 1185.49 30.8193 Q1182.29 33.8401 1181.81 39.3262 L1204.59 39.2915 Z" fill="#000000" fill-rule="nonzero" fill-opacity="1" /><path clip-path="url(#clip450)" d="M1246.25 24.4651 L1246.25 30.5068 Q1243.54 29.1179 1240.63 28.4235 Q1237.71 27.729 1234.59 27.729 Q1229.83 27.729 1227.43 29.1873 Q1225.07 30.6457 1225.07 33.5623 Q1225.07 35.7845 1226.77 37.0692 Q1228.47 38.3192 1233.61 39.4651 L1235.8 39.9512 Q1242.61 41.4095 1245.45 44.0831 Q1248.34 46.722 1248.34 51.4789 Q1248.34 56.8955 1244.03 60.0552 Q1239.76 63.2149 1232.26 63.2149 Q1229.13 63.2149 1225.73 62.5899 Q1222.36 61.9997 1218.61 60.7844 L1218.61 54.1872 Q1222.16 56.0275 1225.59 56.965 Q1229.03 57.8677 1232.4 57.8677 Q1236.91 57.8677 1239.34 56.34 Q1241.77 54.7775 1241.77 51.965 Q1241.77 49.3608 1240 47.972 Q1238.27 46.5831 1232.33 45.2984 L1230.11 44.7775 Q1224.17 43.5275 1221.53 40.9581 Q1218.89 38.354 1218.89 33.8401 Q1218.89 28.354 1222.78 25.3679 Q1226.67 22.3818 1233.82 22.3818 Q1237.36 22.3818 1240.49 22.9027 Q1243.61 23.4235 1246.25 24.4651 Z" fill="#000000" fill-rule="nonzero" fill-opacity="1" /><path clip-path="url(#clip450)" d="M1264.69 56.3747 L1264.69 76.9996 L1258.27 76.9996 L1258.27 23.3193 L1264.69 23.3193 L1264.69 29.2221 Q1266.7 25.7499 1269.76 24.0832 Q1272.85 22.3818 1277.12 22.3818 Q1284.2 22.3818 1288.61 28.0068 Q1293.06 33.6318 1293.06 42.7984 Q1293.06 51.965 1288.61 57.59 Q1284.2 63.2149 1277.12 63.2149 Q1272.85 63.2149 1269.76 61.5483 Q1266.7 59.8469 1264.69 56.3747 M1286.43 42.7984 Q1286.43 35.7498 1283.51 31.7568 Q1280.63 27.729 1275.56 27.729 Q1270.49 27.729 1267.57 31.7568 Q1264.69 35.7498 1264.69 42.7984 Q1264.69 49.847 1267.57 53.8747 Q1270.49 57.8677 1275.56 57.8677 Q1280.63 57.8677 1283.51 53.8747 Q1286.43 49.847 1286.43 42.7984 Z" fill="#000000" fill-rule="nonzero" fill-opacity="1" /><path clip-path="url(#clip450)" d="M1336.91 41.1664 L1336.91 44.2914 L1307.54 44.2914 Q1307.95 50.8886 1311.49 54.3608 Q1315.07 57.7983 1321.43 57.7983 Q1325.11 57.7983 1328.54 56.8955 Q1332.02 55.9928 1335.42 54.1872 L1335.42 60.2288 Q1331.98 61.6872 1328.37 62.4511 Q1324.76 63.2149 1321.04 63.2149 Q1311.74 63.2149 1306.29 57.7983 Q1300.87 52.3817 1300.87 43.1456 Q1300.87 33.597 1306.01 28.0068 Q1311.18 22.3818 1319.93 22.3818 Q1327.78 22.3818 1332.33 27.4512 Q1336.91 32.4859 1336.91 41.1664 M1330.52 39.2915 Q1330.45 34.0484 1327.57 30.9234 Q1324.72 27.7985 1320 27.7985 Q1314.65 27.7985 1311.43 30.8193 Q1308.23 33.8401 1307.74 39.3262 L1330.52 39.2915 Z" fill="#000000" fill-rule="nonzero" fill-opacity="1" /><path clip-path="url(#clip450)" d="M1369.93 29.2915 Q1368.86 28.6665 1367.57 28.3887 Q1366.32 28.0762 1364.79 28.0762 Q1359.38 28.0762 1356.46 31.6179 Q1353.58 35.1248 1353.58 41.722 L1353.58 62.208 L1347.15 62.208 L1347.15 23.3193 L1353.58 23.3193 L1353.58 29.361 Q1355.59 25.8193 1358.82 24.1179 Q1362.05 22.3818 1366.67 22.3818 Q1367.33 22.3818 1368.13 22.486 Q1368.93 22.5554 1369.9 22.729 L1369.93 29.2915 Z" fill="#000000" fill-rule="nonzero" fill-opacity="1" /><path clip-path="url(#clip450)" d="M1394.31 42.6595 Q1386.56 42.6595 1383.58 44.4303 Q1380.59 46.2011 1380.59 50.472 Q1380.59 53.8747 1382.81 55.8886 Q1385.07 57.8677 1388.93 57.8677 Q1394.24 57.8677 1397.43 54.1178 Q1400.66 50.3331 1400.66 44.0831 L1400.66 42.6595 L1394.31 42.6595 M1407.05 40.0206 L1407.05 62.208 L1400.66 62.208 L1400.66 56.3053 Q1398.47 59.8469 1395.21 61.5483 Q1391.95 63.2149 1387.22 63.2149 Q1381.25 63.2149 1377.71 59.8816 Q1374.2 56.5136 1374.2 50.8886 Q1374.2 44.3262 1378.58 40.9928 Q1382.99 37.6595 1391.7 37.6595 L1400.66 37.6595 L1400.66 37.0345 Q1400.66 32.6248 1397.74 30.229 Q1394.86 27.7985 1389.62 27.7985 Q1386.29 27.7985 1383.13 28.5971 Q1379.97 29.3957 1377.05 30.9929 L1377.05 25.0901 Q1380.56 23.736 1383.86 23.0763 Q1387.15 22.3818 1390.28 22.3818 Q1398.72 22.3818 1402.88 26.7568 Q1407.05 31.1318 1407.05 40.0206 Z" fill="#000000" fill-rule="nonzero" fill-opacity="1" /><path clip-path="url(#clip450)" d="M1445.8 29.2221 L1445.8 8.18051 L1452.19 8.18051 L1452.19 62.208 L1445.8 62.208 L1445.8 56.3747 Q1443.79 59.8469 1440.7 61.5483 Q1437.64 63.2149 1433.33 63.2149 Q1426.29 63.2149 1421.84 57.59 Q1417.43 51.965 1417.43 42.7984 Q1417.43 33.6318 1421.84 28.0068 Q1426.29 22.3818 1433.33 22.3818 Q1437.64 22.3818 1440.7 24.0832 Q1443.79 25.7499 1445.8 29.2221 M1424.03 42.7984 Q1424.03 49.847 1426.91 53.8747 Q1429.83 57.8677 1434.9 57.8677 Q1439.97 57.8677 1442.88 53.8747 Q1445.8 49.847 1445.8 42.7984 Q1445.8 35.7498 1442.88 31.7568 Q1439.97 27.729 1434.9 27.729 Q1429.83 27.729 1426.91 31.7568 Q1424.03 35.7498 1424.03 42.7984 Z" fill="#000000" fill-rule="nonzero" fill-opacity="1" /><path clip-path="url(#clip450)" d="M1480.42 27.7985 Q1475.28 27.7985 1472.29 31.8262 Q1469.31 35.8193 1469.31 42.7984 Q1469.31 49.7775 1472.26 53.8053 Q1475.24 57.7983 1480.42 57.7983 Q1485.52 57.7983 1488.51 53.7705 Q1491.49 49.7428 1491.49 42.7984 Q1491.49 35.8887 1488.51 31.8609 Q1485.52 27.7985 1480.42 27.7985 M1480.42 22.3818 Q1488.75 22.3818 1493.51 27.7985 Q1498.26 33.2151 1498.26 42.7984 Q1498.26 52.3469 1493.51 57.7983 Q1488.75 63.2149 1480.42 63.2149 Q1472.05 63.2149 1467.29 57.7983 Q1462.57 52.3469 1462.57 42.7984 Q1462.57 33.2151 1467.29 27.7985 Q1472.05 22.3818 1480.42 22.3818 Z" fill="#000000" fill-rule="nonzero" fill-opacity="1" /><path clip-path="url(#clip450)" d="M1564.72 41.1664 L1564.72 44.2914 L1535.35 44.2914 Q1535.76 50.8886 1539.31 54.3608 Q1542.88 57.7983 1549.24 57.7983 Q1552.92 57.7983 1556.35 56.8955 Q1559.83 55.9928 1563.23 54.1872 L1563.23 60.2288 Q1559.79 61.6872 1556.18 62.4511 Q1552.57 63.2149 1548.85 63.2149 Q1539.55 63.2149 1534.1 57.7983 Q1528.68 52.3817 1528.68 43.1456 Q1528.68 33.597 1533.82 28.0068 Q1538.99 22.3818 1547.74 22.3818 Q1555.59 22.3818 1560.14 27.4512 Q1564.72 32.4859 1564.72 41.1664 M1558.33 39.2915 Q1558.26 34.0484 1555.38 30.9234 Q1552.54 27.7985 1547.81 27.7985 Q1542.47 27.7985 1539.24 30.8193 Q1536.04 33.8401 1535.56 39.3262 L1558.33 39.2915 Z" fill="#000000" fill-rule="nonzero" fill-opacity="1" /><path clip-path="url(#clip450)" d="M1597.81 23.3193 L1604.2 23.3193 L1604.2 62.208 L1597.81 62.208 L1597.81 23.3193 M1597.81 8.18051 L1604.2 8.18051 L1604.2 16.2707 L1597.81 16.2707 L1597.81 8.18051 Z" fill="#000000" fill-rule="nonzero" fill-opacity="1" /><path clip-path="url(#clip450)" d="M1649.9 38.7359 L1649.9 62.208 L1643.51 62.208 L1643.51 38.9442 Q1643.51 33.4234 1641.35 30.6804 Q1639.2 27.9374 1634.9 27.9374 Q1629.72 27.9374 1626.74 31.2359 Q1623.75 34.5345 1623.75 40.229 L1623.75 62.208 L1617.33 62.208 L1617.33 23.3193 L1623.75 23.3193 L1623.75 29.361 Q1626.04 25.854 1629.13 24.1179 Q1632.26 22.3818 1636.32 22.3818 Q1643.02 22.3818 1646.46 26.5485 Q1649.9 30.6804 1649.9 38.7359 Z" fill="#000000" fill-rule="nonzero" fill-opacity="1" /><path clip-path="url(#clip450)" d="M1668.96 12.2777 L1668.96 23.3193 L1682.12 23.3193 L1682.12 28.2846 L1668.96 28.2846 L1668.96 49.3956 Q1668.96 54.1525 1670.24 55.5066 Q1671.56 56.8608 1675.56 56.8608 L1682.12 56.8608 L1682.12 62.208 L1675.56 62.208 Q1668.16 62.208 1665.35 59.465 Q1662.53 56.6872 1662.53 49.3956 L1662.53 28.2846 L1657.85 28.2846 L1657.85 23.3193 L1662.53 23.3193 L1662.53 12.2777 L1668.96 12.2777 Z" fill="#000000" fill-rule="nonzero" fill-opacity="1" /><path clip-path="url(#clip450)" d="M1723.78 41.1664 L1723.78 44.2914 L1694.41 44.2914 Q1694.83 50.8886 1698.37 54.3608 Q1701.94 57.7983 1708.3 57.7983 Q1711.98 57.7983 1715.42 56.8955 Q1718.89 55.9928 1722.29 54.1872 L1722.29 60.2288 Q1718.85 61.6872 1715.24 62.4511 Q1711.63 63.2149 1707.92 63.2149 Q1698.61 63.2149 1693.16 57.7983 Q1687.74 52.3817 1687.74 43.1456 Q1687.74 33.597 1692.88 28.0068 Q1698.06 22.3818 1706.81 22.3818 Q1714.65 22.3818 1719.2 27.4512 Q1723.78 32.4859 1723.78 41.1664 M1717.4 39.2915 Q1717.33 34.0484 1714.44 30.9234 Q1711.6 27.7985 1706.87 27.7985 Q1701.53 27.7985 1698.3 30.8193 Q1695.1 33.8401 1694.62 39.3262 L1717.4 39.2915 Z" fill="#000000" fill-rule="nonzero" fill-opacity="1" /><path clip-path="url(#clip450)" d="M1756.81 29.2915 Q1755.73 28.6665 1754.44 28.3887 Q1753.19 28.0762 1751.67 28.0762 Q1746.25 28.0762 1743.33 31.6179 Q1740.45 35.1248 1740.45 41.722 L1740.45 62.208 L1734.03 62.208 L1734.03 23.3193 L1740.45 23.3193 L1740.45 29.361 Q1742.46 25.8193 1745.69 24.1179 Q1748.92 22.3818 1753.54 22.3818 Q1754.2 22.3818 1755 22.486 Q1755.8 22.5554 1756.77 22.729 L1756.81 29.2915 Z" fill="#000000" fill-rule="nonzero" fill-opacity="1" /><path clip-path="url(#clip450)" d="M1758.92 23.3193 L1765.69 23.3193 L1777.85 55.958 L1790 23.3193 L1796.77 23.3193 L1782.19 62.208 L1773.51 62.208 L1758.92 23.3193 Z" fill="#000000" fill-rule="nonzero" fill-opacity="1" /><path clip-path="url(#clip450)" d="M1823.26 42.6595 Q1815.52 42.6595 1812.53 44.4303 Q1809.55 46.2011 1809.55 50.472 Q1809.55 53.8747 1811.77 55.8886 Q1814.03 57.8677 1817.88 57.8677 Q1823.19 57.8677 1826.39 54.1178 Q1829.62 50.3331 1829.62 44.0831 L1829.62 42.6595 L1823.26 42.6595 M1836.01 40.0206 L1836.01 62.208 L1829.62 62.208 L1829.62 56.3053 Q1827.43 59.8469 1824.17 61.5483 Q1820.9 63.2149 1816.18 63.2149 Q1810.21 63.2149 1806.67 59.8816 Q1803.16 56.5136 1803.16 50.8886 Q1803.16 44.3262 1807.53 40.9928 Q1811.94 37.6595 1820.66 37.6595 L1829.62 37.6595 L1829.62 37.0345 Q1829.62 32.6248 1826.7 30.229 Q1823.82 27.7985 1818.58 27.7985 Q1815.24 27.7985 1812.08 28.5971 Q1808.92 29.3957 1806.01 30.9929 L1806.01 25.0901 Q1809.51 23.736 1812.81 23.0763 Q1816.11 22.3818 1819.24 22.3818 Q1827.67 22.3818 1831.84 26.7568 Q1836.01 31.1318 1836.01 40.0206 Z" fill="#000000" fill-rule="nonzero" fill-opacity="1" /><path clip-path="url(#clip450)" d="M1849.17 8.18051 L1855.55 8.18051 L1855.55 62.208 L1849.17 62.208 L1849.17 8.18051 Z" fill="#000000" fill-rule="nonzero" fill-opacity="1" /><path clip-path="url(#clip450)" d="M1883.99 27.7985 Q1878.85 27.7985 1875.87 31.8262 Q1872.88 35.8193 1872.88 42.7984 Q1872.88 49.7775 1875.83 53.8053 Q1878.82 57.7983 1883.99 57.7983 Q1889.1 57.7983 1892.08 53.7705 Q1895.07 49.7428 1895.07 42.7984 Q1895.07 35.8887 1892.08 31.8609 Q1889.1 27.7985 1883.99 27.7985 M1883.99 22.3818 Q1892.33 22.3818 1897.08 27.7985 Q1901.84 33.2151 1901.84 42.7984 Q1901.84 52.3469 1897.08 57.7983 Q1892.33 63.2149 1883.99 63.2149 Q1875.62 63.2149 1870.87 57.7983 Q1866.14 52.3469 1866.14 42.7984 Q1866.14 33.2151 1870.87 27.7985 Q1875.62 22.3818 1883.99 22.3818 Z" fill="#000000" fill-rule="nonzero" fill-opacity="1" /><path clip-path="url(#clip450)" d="M1937.22 24.4651 L1937.22 30.5068 Q1934.51 29.1179 1931.6 28.4235 Q1928.68 27.729 1925.55 27.729 Q1920.8 27.729 1918.4 29.1873 Q1916.04 30.6457 1916.04 33.5623 Q1916.04 35.7845 1917.74 37.0692 Q1919.44 38.3192 1924.58 39.4651 L1926.77 39.9512 Q1933.57 41.4095 1936.42 44.0831 Q1939.3 46.722 1939.3 51.4789 Q1939.3 56.8955 1935 60.0552 Q1930.73 63.2149 1923.23 63.2149 Q1920.1 63.2149 1916.7 62.5899 Q1913.33 61.9997 1909.58 60.7844 L1909.58 54.1872 Q1913.12 56.0275 1916.56 56.965 Q1920 57.8677 1923.37 57.8677 Q1927.88 57.8677 1930.31 56.34 Q1932.74 54.7775 1932.74 51.965 Q1932.74 49.3608 1930.97 47.972 Q1929.23 46.5831 1923.3 45.2984 L1921.08 44.7775 Q1915.14 43.5275 1912.5 40.9581 Q1909.86 38.354 1909.86 33.8401 Q1909.86 28.354 1913.75 25.3679 Q1917.64 22.3818 1924.79 22.3818 Q1928.33 22.3818 1931.46 22.9027 Q1934.58 23.4235 1937.22 24.4651 Z" fill="#000000" fill-rule="nonzero" fill-opacity="1" /><path clip-path="url(#clip450)" d="M1997.67 29.2221 L1997.67 8.18051 L2004.06 8.18051 L2004.06 62.208 L1997.67 62.208 L1997.67 56.3747 Q1995.66 59.8469 1992.57 61.5483 Q1989.51 63.2149 1985.21 63.2149 Q1978.16 63.2149 1973.71 57.59 Q1969.3 51.965 1969.3 42.7984 Q1969.3 33.6318 1973.71 28.0068 Q1978.16 22.3818 1985.21 22.3818 Q1989.51 22.3818 1992.57 24.0832 Q1995.66 25.7499 1997.67 29.2221 M1975.9 42.7984 Q1975.9 49.847 1978.78 53.8747 Q1981.7 57.8677 1986.77 57.8677 Q1991.84 57.8677 1994.76 53.8747 Q1997.67 49.847 1997.67 42.7984 Q1997.67 35.7498 1994.76 31.7568 Q1991.84 27.729 1986.77 27.729 Q1981.7 27.729 1978.78 31.7568 Q1975.9 35.7498 1975.9 42.7984 Z" fill="#000000" fill-rule="nonzero" fill-opacity="1" /><path clip-path="url(#clip450)" d="M2050.48 41.1664 L2050.48 44.2914 L2021.11 44.2914 Q2021.53 50.8886 2025.07 54.3608 Q2028.64 57.7983 2035 57.7983 Q2038.68 57.7983 2042.12 56.8955 Q2045.59 55.9928 2048.99 54.1872 L2048.99 60.2288 Q2045.55 61.6872 2041.94 62.4511 Q2038.33 63.2149 2034.62 63.2149 Q2025.31 63.2149 2019.86 57.7983 Q2014.44 52.3817 2014.44 43.1456 Q2014.44 33.597 2019.58 28.0068 Q2024.76 22.3818 2033.5 22.3818 Q2041.35 22.3818 2045.9 27.4512 Q2050.48 32.4859 2050.48 41.1664 M2044.1 39.2915 Q2044.03 34.0484 2041.14 30.9234 Q2038.3 27.7985 2033.57 27.7985 Q2028.23 27.7985 2025 30.8193 Q2021.8 33.8401 2021.32 39.3262 L2044.1 39.2915 Z" fill="#000000" fill-rule="nonzero" fill-opacity="1" /><path clip-path="url(#clip450)" d="M2111.56 24.8124 L2111.56 30.7846 Q2108.85 29.2915 2106.11 28.5623 Q2103.4 27.7985 2100.62 27.7985 Q2094.41 27.7985 2090.97 31.7568 Q2087.53 35.6804 2087.53 42.7984 Q2087.53 49.9164 2090.97 53.8747 Q2094.41 57.7983 2100.62 57.7983 Q2103.4 57.7983 2106.11 57.0691 Q2108.85 56.3053 2111.56 54.8122 L2111.56 60.715 Q2108.89 61.9649 2106 62.5899 Q2103.16 63.2149 2099.93 63.2149 Q2091.14 63.2149 2085.97 57.6941 Q2080.8 52.1733 2080.8 42.7984 Q2080.8 33.2845 2086 27.8332 Q2091.25 22.3818 2100.34 22.3818 Q2103.3 22.3818 2106.11 23.0068 Q2108.92 23.5971 2111.56 24.8124 Z" fill="#000000" fill-rule="nonzero" fill-opacity="1" /><path clip-path="url(#clip450)" d="M2137.74 27.7985 Q2132.6 27.7985 2129.62 31.8262 Q2126.63 35.8193 2126.63 42.7984 Q2126.63 49.7775 2129.58 53.8053 Q2132.57 57.7983 2137.74 57.7983 Q2142.84 57.7983 2145.83 53.7705 Q2148.82 49.7428 2148.82 42.7984 Q2148.82 35.8887 2145.83 31.8609 Q2142.84 27.7985 2137.74 27.7985 M2137.74 22.3818 Q2146.07 22.3818 2150.83 27.7985 Q2155.59 33.2151 2155.59 42.7984 Q2155.59 52.3469 2150.83 57.7983 Q2146.07 63.2149 2137.74 63.2149 Q2129.37 63.2149 2124.62 57.7983 Q2119.89 52.3469 2119.89 42.7984 Q2119.89 33.2151 2124.62 27.7985 Q2129.37 22.3818 2137.74 22.3818 Z" fill="#000000" fill-rule="nonzero" fill-opacity="1" /><path clip-path="url(#clip450)" d="M2198.5 38.7359 L2198.5 62.208 L2192.12 62.208 L2192.12 38.9442 Q2192.12 33.4234 2189.96 30.6804 Q2187.81 27.9374 2183.5 27.9374 Q2178.33 27.9374 2175.34 31.2359 Q2172.36 34.5345 2172.36 40.229 L2172.36 62.208 L2165.93 62.208 L2165.93 23.3193 L2172.36 23.3193 L2172.36 29.361 Q2174.65 25.854 2177.74 24.1179 Q2180.87 22.3818 2184.93 22.3818 Q2191.63 22.3818 2195.07 26.5485 Q2198.5 30.6804 2198.5 38.7359 Z" fill="#000000" fill-rule="nonzero" fill-opacity="1" /><path clip-path="url(#clip450)" d="M2230.93 8.18051 L2230.93 13.493 L2224.82 13.493 Q2221.39 13.493 2220.03 14.8819 Q2218.71 16.2707 2218.71 19.8818 L2218.71 23.3193 L2229.23 23.3193 L2229.23 28.2846 L2218.71 28.2846 L2218.71 62.208 L2212.29 62.208 L2212.29 28.2846 L2206.18 28.2846 L2206.18 23.3193 L2212.29 23.3193 L2212.29 20.611 Q2212.29 14.118 2215.31 11.1666 Q2218.33 8.18051 2224.89 8.18051 L2230.93 8.18051 Z" fill="#000000" fill-rule="nonzero" fill-opacity="1" /><path clip-path="url(#clip450)" d="M2236.28 23.3193 L2242.67 23.3193 L2242.67 62.208 L2236.28 62.208 L2236.28 23.3193 M2236.28 8.18051 L2242.67 8.18051 L2242.67 16.2707 L2236.28 16.2707 L2236.28 8.18051 Z" fill="#000000" fill-rule="nonzero" fill-opacity="1" /><path clip-path="url(#clip450)" d="M2273.71 42.6595 Q2265.97 42.6595 2262.98 44.4303 Q2260 46.2011 2260 50.472 Q2260 53.8747 2262.22 55.8886 Q2264.48 57.8677 2268.33 57.8677 Q2273.64 57.8677 2276.84 54.1178 Q2280.07 50.3331 2280.07 44.0831 L2280.07 42.6595 L2273.71 42.6595 M2286.45 40.0206 L2286.45 62.208 L2280.07 62.208 L2280.07 56.3053 Q2277.88 59.8469 2274.61 61.5483 Q2271.35 63.2149 2266.63 63.2149 Q2260.66 63.2149 2257.11 59.8816 Q2253.61 56.5136 2253.61 50.8886 Q2253.61 44.3262 2257.98 40.9928 Q2262.39 37.6595 2271.11 37.6595 L2280.07 37.6595 L2280.07 37.0345 Q2280.07 32.6248 2277.15 30.229 Q2274.27 27.7985 2269.02 27.7985 Q2265.69 27.7985 2262.53 28.5971 Q2259.37 29.3957 2256.46 30.9929 L2256.46 25.0901 Q2259.96 23.736 2263.26 23.0763 Q2266.56 22.3818 2269.68 22.3818 Q2278.12 22.3818 2282.29 26.7568 Q2286.45 31.1318 2286.45 40.0206 Z" fill="#000000" fill-rule="nonzero" fill-opacity="1" /><path clip-path="url(#clip450)" d="M2331.94 38.7359 L2331.94 62.208 L2325.55 62.208 L2325.55 38.9442 Q2325.55 33.4234 2323.4 30.6804 Q2321.25 27.9374 2316.94 27.9374 Q2311.77 27.9374 2308.78 31.2359 Q2305.8 34.5345 2305.8 40.229 L2305.8 62.208 L2299.37 62.208 L2299.37 23.3193 L2305.8 23.3193 L2305.8 29.361 Q2308.09 25.854 2311.18 24.1179 Q2314.3 22.3818 2318.36 22.3818 Q2325.07 22.3818 2328.5 26.5485 Q2331.94 30.6804 2331.94 38.7359 Z" fill="#000000" fill-rule="nonzero" fill-opacity="1" /><path clip-path="url(#clip450)" d="M2372.67 24.8124 L2372.67 30.7846 Q2369.96 29.2915 2367.22 28.5623 Q2364.51 27.7985 2361.73 27.7985 Q2355.52 27.7985 2352.08 31.7568 Q2348.64 35.6804 2348.64 42.7984 Q2348.64 49.9164 2352.08 53.8747 Q2355.52 57.7983 2361.73 57.7983 Q2364.51 57.7983 2367.22 57.0691 Q2369.96 56.3053 2372.67 54.8122 L2372.67 60.715 Q2370 61.9649 2367.11 62.5899 Q2364.27 63.2149 2361.04 63.2149 Q2352.25 63.2149 2347.08 57.6941 Q2341.91 52.1733 2341.91 42.7984 Q2341.91 33.2845 2347.11 27.8332 Q2352.36 22.3818 2361.45 22.3818 Q2364.41 22.3818 2367.22 23.0068 Q2370.03 23.5971 2372.67 24.8124 M2363.64 62.208 Q2365.55 64.3608 2366.49 66.1663 Q2367.43 68.0066 2367.43 69.6732 Q2367.43 72.7635 2365.34 74.326 Q2363.26 75.9232 2359.16 75.9232 Q2357.57 75.9232 2356.04 75.7149 Q2354.54 75.5065 2353.05 75.0899 L2353.05 70.5413 Q2354.23 71.1316 2355.52 71.3746 Q2356.8 71.6524 2358.43 71.6524 Q2360.48 71.6524 2361.52 70.8191 Q2362.57 69.9857 2362.57 68.3885 Q2362.57 67.3469 2361.8 65.8191 Q2361.07 64.326 2359.51 62.208 L2363.64 62.208 Z" fill="#000000" fill-rule="nonzero" fill-opacity="1" /><path clip-path="url(#clip450)" d="M2401.45 42.6595 Q2393.71 42.6595 2390.73 44.4303 Q2387.74 46.2011 2387.74 50.472 Q2387.74 53.8747 2389.96 55.8886 Q2392.22 57.8677 2396.07 57.8677 Q2401.38 57.8677 2404.58 54.1178 Q2407.81 50.3331 2407.81 44.0831 L2407.81 42.6595 L2401.45 42.6595 M2414.2 40.0206 L2414.2 62.208 L2407.81 62.208 L2407.81 56.3053 Q2405.62 59.8469 2402.36 61.5483 Q2399.09 63.2149 2394.37 63.2149 Q2388.4 63.2149 2384.86 59.8816 Q2381.35 56.5136 2381.35 50.8886 Q2381.35 44.3262 2385.73 40.9928 Q2390.13 37.6595 2398.85 37.6595 L2407.81 37.6595 L2407.81 37.0345 Q2407.81 32.6248 2404.89 30.229 Q2402.01 27.7985 2396.77 27.7985 Q2393.43 27.7985 2390.27 28.5971 Q2387.11 29.3957 2384.2 30.9929 L2384.2 25.0901 Q2387.7 23.736 2391 23.0763 Q2394.3 22.3818 2397.43 22.3818 Q2405.86 22.3818 2410.03 26.7568 Q2414.2 31.1318 2414.2 40.0206 Z" fill="#000000" fill-rule="nonzero" fill-opacity="1" /><path clip-path="url(#clip452)" d="M316.418 2145.95 L330.256 2125.35 L344.094 2103.64 L357.932 2080.87 L371.769 2056.92 L385.607 2031.78 L399.445 2005.44 L413.283 1977.89 L427.121 1949.11 L440.958 1919.13 L454.796 1887.94 L468.634 1855.57 L482.472 1822.05 L496.31 1787.41 L510.148 1751.7 L523.985 1714.97 L537.823 1677.31 L551.661 1638.6 L565.499 1599.04 L579.337 1558.75 L593.174 1517.85 L607.012 1476.43 L620.85 1434.6 L634.688 1392.57 L648.526 1350.67 L662.364 1308.73 L676.201 1266.31 L690.039 1223.69 L703.877 1181.55 L717.715 1140.21 L731.553 1099.57 L745.39 1059.57 L759.228 1020.64 L773.066 982.28 L786.904 945.784 L800.742 910.309 L814.58 875.884 L828.417 842.571 L842.255 810.038 L856.093 778.204 L869.931 747.568 L883.769 718.152 L897.606 690.026 L911.444 663.484 L925.282 638.791 L939.12 615.13 L952.958 592.13 L966.796 570.359 L980.633 549.645 L994.471 529.627 L1008.31 511.388 L1022.15 495.751 L1035.98 478.646 L1049.82 462.898 L1063.66 449.109 L1077.5 435.351 L1091.34 423.025 L1105.17 411.843 L1119.01 400.943 L1132.85 390.457 L1146.69 380.356 L1160.53 370.937 L1174.36 362.913 L1188.2 355.128 L1202.04 347.913 L1215.88 341.962 L1229.71 336.419 L1243.55 330.583 L1257.39 325.155 L1271.23 320.186 L1285.07 315.694 L1298.9 311.579 L1312.74 307.765 L1326.58 304.218 L1340.42 300.993 L1354.25 298.304 L1368.09 295.829 L1381.93 293.521 L1395.77 291.315 L1409.61 289.108 L1423.44 287.069 L1437.28 285.05 L1451.12 283.103 L1464.96 281.302 L1478.79 279.636 L1492.63 278.096 L1506.47 276.679 L1520.31 275.386 L1534.15 274.195 L1547.98 273.165 L1561.82 272.202 L1575.66 271.301 L1589.5 270.554 L1603.34 269.858 L1617.17 269.211 L1631.01 268.61 L1644.85 268.054 L1658.69 267.549 L1672.52 267.082 L1686.36 266.64 L1700.2 266.131 L1714.04 265.66 L1727.88 265.225 L1741.71 264.831 L1755.55 264.466 L1769.39 264.127 L1783.23 263.811 L1797.06 263.515 L1810.9 263.237 L1824.74 262.977 L1838.58 262.733 L1852.42 262.507 L1866.25 262.296 L1880.09 262.101 L1893.93 261.92 L1907.77 261.754 L1921.61 261.601 L1935.44 261.46 L1949.28 261.331 L1963.12 261.214 L1976.96 261.107 L1990.79 261.009 L2004.63 260.919 L2018.47 260.837 L2032.31 260.762 L2046.15 260.692 L2059.98 260.626 L2073.82 260.564 L2087.66 260.504 L2101.5 260.446 L2115.33 260.39 L2129.17 260.338 L2143.01 260.289 L2156.85 260.243 L2170.69 260.2 L2184.52 260.161 L2198.36 260.124 L2212.2 260.09 L2226.04 260.06 L2239.87 260.032 L2253.71 260.006 L2267.55 259.983 L2281.39 259.963 L2295.23 259.944 L2309.06 259.928 L2322.9 259.913 L2336.74 259.9 L2350.58 259.888 L2364.42 259.877 L2378.25 259.867 L2392.09 259.857 L2405.93 259.848 L2419.77 259.839 L2433.6 259.829 L2447.44 259.819 L2461.28 259.809 L2475.12 259.8 L2488.96 259.791 L2502.79 259.782 L2516.63 259.774 L2530.47 259.766 L2544.31 259.758 L2558.14 259.752 L2571.98 259.746 L2585.82 259.74 L2599.66 259.735 L2613.5 259.731 L2627.33 259.727 L2641.17 259.724 L2655.01 259.721 L2668.85 259.719 L2682.69 259.717 L2696.52 259.716 L2710.36 259.716 L2724.2 259.716 L2738.04 259.716 L2751.87 259.716 L2765.71 259.717 L2779.55 259.717 L2793.39 259.718 L2807.23 259.719 L2821.06 259.719 L2834.9 259.72 L2848.74 259.72 L2862.58 259.719 L2876.41 259.718 L2890.25 259.716 L2904.09 259.715 L2917.93 259.713 L2931.77 259.712 L2945.6 259.711 L2959.44 259.71 L2973.28 259.709 L2987.12 259.708 L3000.96 259.707 L3014.79 259.706 L3028.63 259.705 L3042.47 259.704 L3056.31 259.704 L3070.14 259.703 L3070.14 180.282 L3056.31 180.283 L3042.47 180.284 L3028.63 180.285 L3014.79 180.286 L3000.96 180.287 L2987.12 180.288 L2973.28 180.289 L2959.44 180.29 L2945.6 180.291 L2931.77 180.291 L2917.93 180.292 L2904.09 180.292 L2890.25 180.293 L2876.41 180.294 L2862.58 180.294 L2848.74 180.295 L2834.9 180.295 L2821.06 180.296 L2807.23 180.296 L2793.39 180.296 L2779.55 180.296 L2765.71 180.296 L2751.87 180.296 L2738.04 180.296 L2724.2 180.297 L2710.36 180.298 L2696.52 180.3 L2682.69 180.302 L2668.85 180.304 L2655.01 180.307 L2641.17 180.311 L2627.33 180.315 L2613.5 180.32 L2599.66 180.325 L2585.82 180.331 L2571.98 180.337 L2558.14 180.344 L2544.31 180.352 L2530.47 180.36 L2516.63 180.368 L2502.79 180.376 L2488.96 180.384 L2475.12 180.392 L2461.28 180.4 L2447.44 180.408 L2433.6 180.417 L2419.77 180.426 L2405.93 180.436 L2392.09 180.446 L2378.25 180.457 L2364.42 180.469 L2350.58 180.482 L2336.74 180.497 L2322.9 180.513 L2309.06 180.531 L2295.23 180.551 L2281.39 180.573 L2267.55 180.598 L2253.71 180.626 L2239.87 180.656 L2226.04 180.689 L2212.2 180.725 L2198.36 180.764 L2184.52 180.806 L2170.69 180.851 L2156.85 180.899 L2143.01 180.95 L2129.17 181.004 L2115.33 181.061 L2101.5 181.122 L2087.66 181.187 L2073.82 181.255 L2059.98 181.328 L2046.15 181.405 L2032.31 181.487 L2018.47 181.576 L2004.63 181.673 L1990.79 181.779 L1976.96 181.895 L1963.12 182.002 L1949.28 182.114 L1935.44 182.236 L1921.61 182.369 L1907.77 182.514 L1893.93 182.671 L1880.09 182.843 L1866.25 183.03 L1852.42 183.233 L1838.58 183.453 L1824.74 183.69 L1810.9 183.946 L1797.06 184.222 L1783.23 184.518 L1769.39 184.835 L1755.55 185.176 L1741.71 185.543 L1727.88 185.937 L1714.04 186.356 L1700.2 186.799 L1686.36 187.276 L1672.52 187.79 L1658.69 188.344 L1644.85 188.942 L1631.01 189.589 L1617.17 190.274 L1603.34 190.926 L1589.5 191.629 L1575.66 192.385 L1561.82 193.177 L1547.98 194.029 L1534.15 194.949 L1520.31 195.941 L1506.47 197.011 L1492.63 198.164 L1478.79 199.557 L1464.96 201.106 L1451.12 202.708 L1437.28 204.214 L1423.44 205.835 L1409.61 207.742 L1395.77 209.988 L1381.93 212.541 L1368.09 215.027 L1354.25 217.866 L1340.42 220.973 L1326.58 223.969 L1312.74 226.935 L1298.9 230.286 L1285.07 234.38 L1271.23 238.753 L1257.39 243.069 L1243.55 247.965 L1229.71 253.605 L1215.88 259.59 L1202.04 265.125 L1188.2 271.044 L1174.36 277.386 L1160.53 284.177 L1146.69 291.446 L1132.85 299.227 L1119.01 307.279 L1105.17 315.84 L1091.34 324.986 L1077.5 335.313 L1063.66 346.482 L1049.82 358.109 L1035.98 369.642 L1022.15 382.665 L1008.31 396.685 L994.471 411.073 L980.633 426.364 L966.796 443.101 L952.958 460.876 L939.12 479.702 L925.282 499.59 L911.444 520.149 L897.606 541.908 L883.769 564.863 L869.931 588.644 L856.093 613.373 L842.255 638.903 L828.417 665.558 L814.58 693.178 L800.742 722.363 L786.904 753.232 L773.066 784.819 L759.228 817.595 L745.39 851.25 L731.553 885.965 L717.715 921.749 L703.877 958.548 L690.039 996.28 L676.201 1035.19 L662.364 1075.27 L648.526 1115.74 L634.688 1157.15 L620.85 1199.02 L607.012 1241.24 L593.174 1283.71 L579.337 1326.29 L565.499 1368.51 L551.661 1410.18 L537.823 1451.55 L523.985 1492.62 L510.148 1533.24 L496.31 1573.5 L482.472 1613.44 L468.634 1652.56 L454.796 1690.95 L440.958 1728.67 L427.121 1765.37 L413.283 1800.99 L399.445 1835.47 L385.607 1868.79 L371.769 1900.91 L357.932 1931.72 L344.094 1961.24 L330.256 1989.54 L316.418 2016.62  Z" fill="#009af9" fill-rule="evenodd" fill-opacity="0.2"/>
<polyline clip-path="url(#clip452)" style="stroke:#009af9; stroke-linecap:round; stroke-linejoin:round; stroke-width:12; stroke-opacity:1; fill:none" points="316.418,2087.62 330.256,2063.89 344.094,2038.96 357.932,2012.81 371.769,1985.43 385.607,1957.06 399.445,1927.38 413.283,1896.39 427.121,1864.25 440.958,1831.15 454.796,1796.88 468.634,1761.45 482.472,1725.01 496.31,1687.6 510.148,1649.3 523.985,1610.1 537.823,1570.04 551.661,1529.34 565.499,1488.11 579.337,1446.47 593.174,1404.72 607.012,1362.78 620.85,1320.78 634.688,1278.9 648.526,1237.46 662.364,1196.43 676.201,1155.82 690.039,1115.74 703.877,1076.04 717.715,1036.77 731.553,998.537 745.39,961.947 759.228,926.049 773.066,889.473 786.904,853.614 800.742,819.536 814.58,786.028 828.417,755.316 842.255,725.63 856.093,696.672 869.931,668.465 883.769,641.332 897.606,615.887 911.444,591.485 925.282,568.56 939.12,547.108 952.958,526.904 966.796,507.038 980.633,488.682 994.471,470.668 1008.31,455.072 1022.15,438.944 1035.98,423.743 1049.82,410.93 1063.66,399.368 1077.5,388.283 1091.34,376.702 1105.17,365.897 1119.01,355.751 1132.85,346.83 1146.69,338.826 1160.53,331.275 1174.36,323.787 1188.2,317.393 1202.04,310.545 1215.88,304.02 1229.71,298.476 1243.55,292.779 1257.39,287.437 1271.23,282.889 1285.07,278.784 1298.9,274.626 1312.74,270.779 1326.58,267.357 1340.42,264.006 1354.25,260.775 1368.09,257.748 1381.93,254.773 1395.77,252.06 1409.61,249.839 1423.44,247.759 1437.28,245.824 1451.12,243.973 1464.96,242.322 1478.79,240.657 1492.63,239.11 1506.47,237.683 1520.31,236.341 1534.15,235.029 1547.98,233.877 1561.82,232.803 1575.66,231.832 1589.5,231.012 1603.34,230.33 1617.17,229.738 1631.01,229.187 1644.85,228.597 1658.69,227.932 1672.52,227.317 1686.36,226.748 1700.2,226.263 1714.04,225.846 1727.88,225.424 1741.71,224.995 1755.55,224.625 1769.39,224.336 1783.23,224.066 1797.06,223.807 1810.9,223.545 1824.74,223.3 1838.58,223.071 1852.42,222.856 1866.25,222.656 1880.09,222.469 1893.93,222.296 1907.77,222.137 1921.61,221.989 1935.44,221.853 1949.28,221.729 1963.12,221.615 1976.96,221.511 1990.79,221.416 2004.63,221.33 2018.47,221.251 2032.31,221.18 2046.15,221.114 2059.98,221.053 2073.82,220.996 2087.66,220.942 2101.5,220.89 2115.33,220.841 2129.17,220.794 2143.01,220.749 2156.85,220.706 2170.69,220.665 2184.52,220.628 2198.36,220.592 2212.2,220.56 2226.04,220.53 2239.87,220.502 2253.71,220.477 2267.55,220.454 2281.39,220.433 2295.23,220.414 2309.06,220.395 2322.9,220.379 2336.74,220.364 2350.58,220.351 2364.42,220.339 2378.25,220.328 2392.09,220.319 2405.93,220.31 2419.77,220.302 2433.6,220.295 2447.44,220.288 2461.28,220.28 2475.12,220.273 2488.96,220.265 2502.79,220.257 2516.63,220.249 2530.47,220.241 2544.31,220.234 2558.14,220.227 2571.98,220.22 2585.82,220.214 2599.66,220.208 2613.5,220.203 2627.33,220.198 2641.17,220.193 2655.01,220.189 2668.85,220.186 2682.69,220.183 2696.52,220.181 2710.36,220.179 2724.2,220.178 2738.04,220.177 2751.87,220.177 2765.71,220.177 2779.55,220.177 2793.39,220.178 2807.23,220.179 2821.06,220.18 2834.9,220.181 2848.74,220.182 2862.58,220.183 2876.41,220.184 2890.25,220.185 2904.09,220.185 2917.93,220.185 2931.77,220.185 2945.6,220.184 2959.44,220.182 2973.28,220.181 2987.12,220.18 3000.96,220.179 3014.79,220.178 3028.63,220.177 3042.47,220.176 3056.31,220.175 3070.14,220.174 "/>
<path clip-path="url(#clip452)" d="M316.418 2134.93 L330.256 2113.68 L344.094 2091.28 L357.932 2067.66 L371.769 2042.91 L385.607 2017.02 L399.445 1989.87 L413.283 1961.46 L427.121 1931.81 L440.958 1900.92 L454.796 1868.84 L468.634 1835.6 L482.472 1801.29 L496.31 1765.88 L510.148 1729.44 L523.985 1692.02 L537.823 1653.93 L551.661 1615.19 L565.499 1575.73 L579.337 1535.66 L593.174 1495.1 L607.012 1454.71 L620.85 1413.85 L634.688 1372.03 L648.526 1330.03 L662.364 1287.82 L676.201 1245.68 L690.039 1203.82 L703.877 1162.32 L717.715 1121.31 L731.553 1080.71 L745.39 1040.76 L759.228 1002.03 L773.066 964.577 L786.904 928.617 L800.742 893.63 L814.58 858.624 L828.417 824.128 L842.255 790.538 L856.093 757.591 L869.931 725.928 L883.769 696.857 L897.606 669.386 L911.444 643.44 L925.282 619.393 L939.12 595.558 L952.958 573.891 L966.796 552.083 L980.633 531.357 L994.471 512.117 L1008.31 494.051 L1022.15 477.042 L1035.98 461.437 L1049.82 446.601 L1063.66 432.772 L1077.5 419.842 L1091.34 407.661 L1105.17 396.263 L1119.01 385.625 L1132.85 375.654 L1146.69 366.373 L1160.53 357.624 L1174.36 349.38 L1188.2 341.78 L1202.04 334.393 L1215.88 327.481 L1229.71 321.125 L1243.55 315.616 L1257.39 310.26 L1271.23 305.724 L1285.07 301.562 L1298.9 297.217 L1312.74 292.945 L1326.58 289.237 L1340.42 286.06 L1354.25 283.54 L1368.09 280.832 L1381.93 278.333 L1395.77 275.687 L1409.61 273.242 L1423.44 271.292 L1437.28 269.559 L1451.12 267.678 L1464.96 265.908 L1478.79 264.472 L1492.63 263.263 L1506.47 262.134 L1520.31 261.088 L1534.15 260.113 L1547.98 259.046 L1561.82 257.902 L1575.66 256.852 L1589.5 255.943 L1603.34 255.031 L1617.17 254.186 L1631.01 253.425 L1644.85 252.71 L1658.69 252.047 L1672.52 251.435 L1686.36 250.869 L1700.2 250.346 L1714.04 249.862 L1727.88 249.414 L1741.71 248.999 L1755.55 248.614 L1769.39 248.32 L1783.23 248.058 L1797.06 247.813 L1810.9 247.584 L1824.74 247.366 L1838.58 247.158 L1852.42 246.963 L1866.25 246.781 L1880.09 246.611 L1893.93 246.453 L1907.77 246.306 L1921.61 246.171 L1935.44 246.047 L1949.28 245.933 L1963.12 245.829 L1976.96 245.735 L1990.79 245.649 L2004.63 245.57 L2018.47 245.5 L2032.31 245.435 L2046.15 245.376 L2059.98 245.323 L2073.82 245.273 L2087.66 245.227 L2101.5 245.183 L2115.33 245.141 L2129.17 245.101 L2143.01 245.061 L2156.85 245.022 L2170.69 244.986 L2184.52 244.951 L2198.36 244.919 L2212.2 244.889 L2226.04 244.861 L2239.87 244.835 L2253.71 244.811 L2267.55 244.789 L2281.39 244.769 L2295.23 244.752 L2309.06 244.735 L2322.9 244.721 L2336.74 244.708 L2350.58 244.696 L2364.42 244.686 L2378.25 244.677 L2392.09 244.668 L2405.93 244.661 L2419.77 244.654 L2433.6 244.647 L2447.44 244.641 L2461.28 244.635 L2475.12 244.629 L2488.96 244.623 L2502.79 244.616 L2516.63 244.61 L2530.47 244.603 L2544.31 244.597 L2558.14 244.591 L2571.98 244.585 L2585.82 244.579 L2599.66 244.574 L2613.5 244.569 L2627.33 244.565 L2641.17 244.561 L2655.01 244.557 L2668.85 244.554 L2682.69 244.551 L2696.52 244.549 L2710.36 244.547 L2724.2 244.546 L2738.04 244.545 L2751.87 244.544 L2765.71 244.544 L2779.55 244.544 L2793.39 244.544 L2807.23 244.545 L2821.06 244.545 L2834.9 244.546 L2848.74 244.547 L2862.58 244.548 L2876.41 244.549 L2890.25 244.55 L2904.09 244.55 L2917.93 244.551 L2931.77 244.552 L2945.6 244.552 L2959.44 244.552 L2973.28 244.552 L2987.12 244.551 L3000.96 244.549 L3014.79 244.548 L3028.63 244.547 L3042.47 244.546 L3056.31 244.545 L3070.14 244.544 L3070.14 193.79 L3056.31 193.79 L3042.47 193.791 L3028.63 193.791 L3014.79 193.791 L3000.96 193.792 L2987.12 193.793 L2973.28 193.793 L2959.44 193.794 L2945.6 193.795 L2931.77 193.796 L2917.93 193.798 L2904.09 193.799 L2890.25 193.8 L2876.41 193.802 L2862.58 193.804 L2848.74 193.806 L2834.9 193.807 L2821.06 193.808 L2807.23 193.809 L2793.39 193.809 L2779.55 193.809 L2765.71 193.809 L2751.87 193.81 L2738.04 193.813 L2724.2 193.815 L2710.36 193.818 L2696.52 193.821 L2682.69 193.825 L2668.85 193.828 L2655.01 193.832 L2641.17 193.836 L2627.33 193.839 L2613.5 193.842 L2599.66 193.845 L2585.82 193.848 L2571.98 193.851 L2558.14 193.854 L2544.31 193.858 L2530.47 193.863 L2516.63 193.868 L2502.79 193.874 L2488.96 193.883 L2475.12 193.893 L2461.28 193.903 L2447.44 193.914 L2433.6 193.926 L2419.77 193.931 L2405.93 193.94 L2392.09 193.954 L2378.25 193.968 L2364.42 193.984 L2350.58 193.996 L2336.74 194.01 L2322.9 194.024 L2309.06 194.04 L2295.23 194.058 L2281.39 194.078 L2267.55 194.1 L2253.71 194.124 L2239.87 194.151 L2226.04 194.181 L2212.2 194.214 L2198.36 194.249 L2184.52 194.288 L2170.69 194.33 L2156.85 194.376 L2143.01 194.422 L2129.17 194.469 L2115.33 194.521 L2101.5 194.578 L2087.66 194.641 L2073.82 194.71 L2059.98 194.785 L2046.15 194.863 L2032.31 194.94 L2018.47 195.022 L2004.63 195.111 L1990.79 195.208 L1976.96 195.313 L1963.12 195.429 L1949.28 195.555 L1935.44 195.693 L1921.61 195.844 L1907.77 196.009 L1893.93 196.188 L1880.09 196.382 L1866.25 196.595 L1852.42 196.826 L1838.58 197.049 L1824.74 197.257 L1810.9 197.485 L1797.06 197.732 L1783.23 197.995 L1769.39 198.276 L1755.55 198.579 L1741.71 198.904 L1727.88 199.256 L1714.04 199.636 L1700.2 200.128 L1686.36 200.684 L1672.52 201.285 L1658.69 201.933 L1644.85 202.632 L1631.01 203.208 L1617.17 203.781 L1603.34 204.397 L1589.5 205.058 L1575.66 205.765 L1561.82 206.524 L1547.98 207.34 L1534.15 208.218 L1520.31 209.166 L1506.47 210.247 L1492.63 211.535 L1478.79 212.926 L1464.96 214.364 L1451.12 215.992 L1437.28 217.701 L1423.44 219.683 L1409.61 221.755 L1395.77 223.946 L1381.93 226.356 L1368.09 229.177 L1354.25 232.402 L1340.42 235.291 L1326.58 238.529 L1312.74 242.138 L1298.9 245.552 L1285.07 249.78 L1271.23 254.322 L1257.39 259.201 L1243.55 264.439 L1229.71 269.878 L1215.88 276.089 L1202.04 282.093 L1188.2 288.146 L1174.36 294.887 L1160.53 302.396 L1146.69 310.045 L1132.85 318.579 L1119.01 326.819 L1105.17 336.152 L1091.34 345.822 L1077.5 356.575 L1063.66 367.496 L1049.82 378.967 L1035.98 391.265 L1022.15 404.506 L1008.31 418.526 L994.471 433.166 L980.633 449.076 L966.796 465.71 L952.958 483.37 L939.12 501.894 L925.282 521.562 L911.444 542.331 L897.606 564.185 L883.769 586.774 L869.931 611.664 L856.093 636.897 L842.255 663.601 L828.417 691.04 L814.58 720.468 L800.742 751.339 L786.904 782.841 L773.066 815.556 L759.228 848.659 L745.39 882.032 L731.553 917.847 L717.715 953.527 L703.877 990.206 L690.039 1028.6 L676.201 1067.62 L662.364 1106.09 L648.526 1145.98 L634.688 1187.79 L620.85 1229.85 L607.012 1272.12 L593.174 1314.56 L579.337 1357.23 L565.499 1399.81 L551.661 1442.03 L537.823 1483.4 L523.985 1524.36 L510.148 1565.09 L496.31 1605.47 L482.472 1645.17 L468.634 1684.07 L454.796 1721.45 L440.958 1757.93 L427.121 1793.82 L413.283 1828.61 L399.445 1862.31 L385.607 1894.8 L371.769 1926.08 L357.932 1956.12 L344.094 1984.55 L330.256 2011.78 L316.418 2037.8  Z" fill="#e26f46" fill-rule="evenodd" fill-opacity="0.2"/>
<polyline clip-path="url(#clip452)" style="stroke:#e26f46; stroke-linecap:round; stroke-linejoin:round; stroke-width:12; stroke-opacity:1; fill:none" points="316.418,2087.62 330.256,2063.89 344.094,2038.96 357.932,2012.81 371.769,1985.43 385.607,1957.06 399.445,1927.38 413.283,1896.39 427.121,1864.25 440.958,1831.15 454.796,1796.88 468.634,1761.45 482.472,1725.01 496.31,1687.6 510.148,1649.3 523.985,1610.1 537.823,1570.04 551.661,1529.34 565.499,1488.11 579.337,1446.47 593.174,1404.72 607.012,1362.78 620.85,1320.78 634.688,1278.9 648.526,1237.46 662.364,1196.43 676.201,1155.82 690.039,1115.74 703.877,1076.04 717.715,1036.77 731.553,998.537 745.39,961.947 759.228,926.049 773.066,889.473 786.904,853.614 800.742,819.536 814.58,786.028 828.417,755.316 842.255,725.63 856.093,696.672 869.931,668.465 883.769,641.332 897.606,615.887 911.444,591.485 925.282,568.56 939.12,547.108 952.958,526.904 966.796,507.038 980.633,488.682 994.471,470.668 1008.31,455.072 1022.15,438.944 1035.98,423.743 1049.82,410.93 1063.66,399.368 1077.5,388.283 1091.34,376.702 1105.17,365.897 1119.01,355.751 1132.85,346.83 1146.69,338.826 1160.53,331.275 1174.36,323.787 1188.2,317.393 1202.04,310.545 1215.88,304.02 1229.71,298.476 1243.55,292.779 1257.39,287.437 1271.23,282.889 1285.07,278.784 1298.9,274.626 1312.74,270.779 1326.58,267.357 1340.42,264.006 1354.25,260.775 1368.09,257.748 1381.93,254.773 1395.77,252.06 1409.61,249.839 1423.44,247.759 1437.28,245.824 1451.12,243.973 1464.96,242.322 1478.79,240.657 1492.63,239.11 1506.47,237.683 1520.31,236.341 1534.15,235.029 1547.98,233.877 1561.82,232.803 1575.66,231.832 1589.5,231.012 1603.34,230.33 1617.17,229.738 1631.01,229.187 1644.85,228.597 1658.69,227.932 1672.52,227.317 1686.36,226.748 1700.2,226.263 1714.04,225.846 1727.88,225.424 1741.71,224.995 1755.55,224.625 1769.39,224.336 1783.23,224.066 1797.06,223.807 1810.9,223.545 1824.74,223.3 1838.58,223.071 1852.42,222.856 1866.25,222.656 1880.09,222.469 1893.93,222.296 1907.77,222.137 1921.61,221.989 1935.44,221.853 1949.28,221.729 1963.12,221.615 1976.96,221.511 1990.79,221.416 2004.63,221.33 2018.47,221.251 2032.31,221.18 2046.15,221.114 2059.98,221.053 2073.82,220.996 2087.66,220.942 2101.5,220.89 2115.33,220.841 2129.17,220.794 2143.01,220.749 2156.85,220.706 2170.69,220.665 2184.52,220.628 2198.36,220.592 2212.2,220.56 2226.04,220.53 2239.87,220.502 2253.71,220.477 2267.55,220.454 2281.39,220.433 2295.23,220.414 2309.06,220.395 2322.9,220.379 2336.74,220.364 2350.58,220.351 2364.42,220.339 2378.25,220.328 2392.09,220.319 2405.93,220.31 2419.77,220.302 2433.6,220.295 2447.44,220.288 2461.28,220.28 2475.12,220.273 2488.96,220.265 2502.79,220.257 2516.63,220.249 2530.47,220.241 2544.31,220.234 2558.14,220.227 2571.98,220.22 2585.82,220.214 2599.66,220.208 2613.5,220.203 2627.33,220.198 2641.17,220.193 2655.01,220.189 2668.85,220.186 2682.69,220.183 2696.52,220.181 2710.36,220.179 2724.2,220.178 2738.04,220.177 2751.87,220.177 2765.71,220.177 2779.55,220.177 2793.39,220.178 2807.23,220.179 2821.06,220.18 2834.9,220.181 2848.74,220.182 2862.58,220.183 2876.41,220.184 2890.25,220.185 2904.09,220.185 2917.93,220.185 2931.77,220.185 2945.6,220.184 2959.44,220.182 2973.28,220.181 2987.12,220.18 3000.96,220.179 3014.79,220.178 3028.63,220.177 3042.47,220.176 3056.31,220.175 3070.14,220.174 "/>
<path clip-path="url(#clip450)" d="M2663.79 2135.47 L3055.46 2135.47 L3055.46 1979.95 L2663.79 1979.95  Z" fill="#eaeaea" fill-rule="evenodd" fill-opacity="1"/>
<polyline clip-path="url(#clip450)" style="stroke:#ffffff; stroke-linecap:round; stroke-linejoin:round; stroke-width:4; stroke-opacity:1; fill:none" points="2663.79,2135.47 3055.46,2135.47 3055.46,1979.95 2663.79,1979.95 2663.79,2135.47 "/>
<polyline clip-path="url(#clip450)" style="stroke:#009af9; stroke-linecap:round; stroke-linejoin:round; stroke-width:12; stroke-opacity:1; fill:none" points="2696.23,2031.79 2890.82,2031.79 "/>
<path clip-path="url(#clip450)" d="M2925.48 2048.35 L2925.48 2044.09 Q2927.24 2044.92 2929.04 2045.36 Q2930.85 2045.8 2932.59 2045.8 Q2937.22 2045.8 2939.65 2042.7 Q2942.1 2039.58 2942.45 2033.23 Q2941.1 2035.22 2939.04 2036.29 Q2936.98 2037.35 2934.48 2037.35 Q2929.3 2037.35 2926.27 2034.23 Q2923.26 2031.08 2923.26 2025.64 Q2923.26 2020.32 2926.4 2017.1 Q2929.55 2013.88 2934.78 2013.88 Q2940.78 2013.88 2943.93 2018.49 Q2947.1 2023.07 2947.1 2031.82 Q2947.1 2039.99 2943.21 2044.88 Q2939.34 2049.74 2932.79 2049.74 Q2931.03 2049.74 2929.23 2049.39 Q2927.42 2049.04 2925.48 2048.35 M2934.78 2033.7 Q2937.93 2033.7 2939.76 2031.54 Q2941.61 2029.39 2941.61 2025.64 Q2941.61 2021.91 2939.76 2019.76 Q2937.93 2017.58 2934.78 2017.58 Q2931.64 2017.58 2929.78 2019.76 Q2927.96 2021.91 2927.96 2025.64 Q2927.96 2029.39 2929.78 2031.54 Q2931.64 2033.7 2934.78 2033.7 Z" fill="#000000" fill-rule="nonzero" fill-opacity="1" /><path clip-path="url(#clip450)" d="M2955.55 2014.51 L2973.9 2014.51 L2973.9 2018.44 L2959.83 2018.44 L2959.83 2026.91 Q2960.85 2026.57 2961.87 2026.4 Q2962.89 2026.22 2963.9 2026.22 Q2969.69 2026.22 2973.07 2029.39 Q2976.45 2032.56 2976.45 2037.98 Q2976.45 2043.56 2972.98 2046.66 Q2969.51 2049.74 2963.19 2049.74 Q2961.01 2049.74 2958.74 2049.37 Q2956.5 2049 2954.09 2048.26 L2954.09 2043.56 Q2956.17 2044.69 2958.4 2045.25 Q2960.62 2045.8 2963.09 2045.8 Q2967.1 2045.8 2969.44 2043.7 Q2971.78 2041.59 2971.78 2037.98 Q2971.78 2034.37 2969.44 2032.26 Q2967.1 2030.15 2963.09 2030.15 Q2961.22 2030.15 2959.34 2030.57 Q2957.49 2030.99 2955.55 2031.87 L2955.55 2014.51 Z" fill="#000000" fill-rule="nonzero" fill-opacity="1" /><path clip-path="url(#clip450)" d="M3015.06 2033.86 Q3013.05 2033.86 3011.89 2035.57 Q3010.76 2037.28 3010.76 2040.34 Q3010.76 2043.35 3011.89 2045.08 Q3013.05 2046.8 3015.06 2046.8 Q3017.03 2046.8 3018.16 2045.08 Q3019.32 2043.35 3019.32 2040.34 Q3019.32 2037.31 3018.16 2035.59 Q3017.03 2033.86 3015.06 2033.86 M3015.06 2030.92 Q3018.72 2030.92 3020.87 2033.46 Q3023.02 2036.01 3023.02 2040.34 Q3023.02 2044.67 3020.85 2047.21 Q3018.7 2049.74 3015.06 2049.74 Q3011.36 2049.74 3009.21 2047.21 Q3007.05 2044.67 3007.05 2040.34 Q3007.05 2035.99 3009.21 2033.46 Q3011.38 2030.92 3015.06 2030.92 M2991.17 2016.82 Q2989.18 2016.82 2988.02 2018.56 Q2986.89 2020.27 2986.89 2023.28 Q2986.89 2026.33 2988.02 2028.05 Q2989.16 2029.76 2991.17 2029.76 Q2993.19 2029.76 2994.32 2028.05 Q2995.48 2026.33 2995.48 2023.28 Q2995.48 2020.29 2994.32 2018.56 Q2993.16 2016.82 2991.17 2016.82 M3012.08 2013.88 L3015.78 2013.88 L2994.16 2049.74 L2990.46 2049.74 L3012.08 2013.88 M2991.17 2013.88 Q2994.83 2013.88 2997.01 2016.43 Q2999.18 2018.95 2999.18 2023.28 Q2999.18 2027.65 2997.01 2030.18 Q2994.85 2032.7 2991.17 2032.7 Q2987.49 2032.7 2985.34 2030.18 Q2983.21 2027.63 2983.21 2023.28 Q2983.21 2018.97 2985.36 2016.43 Q2987.52 2013.88 2991.17 2013.88 Z" fill="#000000" fill-rule="nonzero" fill-opacity="1" /><polyline clip-path="url(#clip450)" style="stroke:#e26f46; stroke-linecap:round; stroke-linejoin:round; stroke-width:12; stroke-opacity:1; fill:none" points="2696.23,2083.63 2890.82,2083.63 "/>
<path clip-path="url(#clip450)" d="M2935.59 2081.76 Q2932.45 2081.76 2930.59 2083.92 Q2928.77 2086.07 2928.77 2089.82 Q2928.77 2093.55 2930.59 2095.72 Q2932.45 2097.87 2935.59 2097.87 Q2938.74 2097.87 2940.57 2095.72 Q2942.42 2093.55 2942.42 2089.82 Q2942.42 2086.07 2940.57 2083.92 Q2938.74 2081.76 2935.59 2081.76 M2944.88 2067.11 L2944.88 2071.37 Q2943.12 2070.54 2941.31 2070.1 Q2939.53 2069.66 2937.77 2069.66 Q2933.14 2069.66 2930.69 2072.78 Q2928.26 2075.91 2927.91 2082.23 Q2929.28 2080.21 2931.34 2079.15 Q2933.4 2078.06 2935.87 2078.06 Q2941.08 2078.06 2944.09 2081.23 Q2947.12 2084.38 2947.12 2089.82 Q2947.12 2095.14 2943.97 2098.36 Q2940.83 2101.58 2935.59 2101.58 Q2929.6 2101.58 2926.43 2096.99 Q2923.26 2092.39 2923.26 2083.66 Q2923.26 2075.47 2927.15 2070.61 Q2931.03 2065.72 2937.59 2065.72 Q2939.34 2065.72 2941.13 2066.07 Q2942.93 2066.42 2944.88 2067.11 Z" fill="#000000" fill-rule="nonzero" fill-opacity="1" /><path clip-path="url(#clip450)" d="M2965.18 2084.49 Q2961.84 2084.49 2959.92 2086.28 Q2958.03 2088.06 2958.03 2091.18 Q2958.03 2094.31 2959.92 2096.09 Q2961.84 2097.87 2965.18 2097.87 Q2968.51 2097.87 2970.43 2096.09 Q2972.35 2094.29 2972.35 2091.18 Q2972.35 2088.06 2970.43 2086.28 Q2968.53 2084.49 2965.18 2084.49 M2960.5 2082.5 Q2957.49 2081.76 2955.8 2079.7 Q2954.14 2077.64 2954.14 2074.68 Q2954.14 2070.54 2957.08 2068.13 Q2960.04 2065.72 2965.18 2065.72 Q2970.34 2065.72 2973.28 2068.13 Q2976.22 2070.54 2976.22 2074.68 Q2976.22 2077.64 2974.53 2079.7 Q2972.86 2081.76 2969.88 2082.5 Q2973.26 2083.29 2975.13 2085.58 Q2977.03 2087.87 2977.03 2091.18 Q2977.03 2096.21 2973.95 2098.89 Q2970.9 2101.58 2965.18 2101.58 Q2959.46 2101.58 2956.38 2098.89 Q2953.33 2096.21 2953.33 2091.18 Q2953.33 2087.87 2955.22 2085.58 Q2957.12 2083.29 2960.5 2082.5 M2958.79 2075.12 Q2958.79 2077.8 2960.46 2079.31 Q2962.15 2080.81 2965.18 2080.81 Q2968.19 2080.81 2969.88 2079.31 Q2971.59 2077.8 2971.59 2075.12 Q2971.59 2072.43 2969.88 2070.93 Q2968.19 2069.42 2965.18 2069.42 Q2962.15 2069.42 2960.46 2070.93 Q2958.79 2072.43 2958.79 2075.12 Z" fill="#000000" fill-rule="nonzero" fill-opacity="1" /><path clip-path="url(#clip450)" d="M3014.74 2085.7 Q3012.72 2085.7 3011.57 2087.41 Q3010.43 2089.12 3010.43 2092.18 Q3010.43 2095.19 3011.57 2096.92 Q3012.72 2098.64 3014.74 2098.64 Q3016.71 2098.64 3017.84 2096.92 Q3019 2095.19 3019 2092.18 Q3019 2089.15 3017.84 2087.43 Q3016.71 2085.7 3014.74 2085.7 M3014.74 2082.76 Q3018.4 2082.76 3020.55 2085.3 Q3022.7 2087.85 3022.7 2092.18 Q3022.7 2096.51 3020.52 2099.05 Q3018.37 2101.58 3014.74 2101.58 Q3011.03 2101.58 3008.88 2099.05 Q3006.73 2096.51 3006.73 2092.18 Q3006.73 2087.83 3008.88 2085.3 Q3011.06 2082.76 3014.74 2082.76 M2990.85 2068.66 Q2988.86 2068.66 2987.7 2070.4 Q2986.57 2072.11 2986.57 2075.12 Q2986.57 2078.17 2987.7 2079.89 Q2988.84 2081.6 2990.85 2081.6 Q2992.86 2081.6 2994 2079.89 Q2995.15 2078.17 2995.15 2075.12 Q2995.15 2072.13 2994 2070.4 Q2992.84 2068.66 2990.85 2068.66 M3011.75 2065.72 L3015.46 2065.72 L2993.84 2101.58 L2990.13 2101.58 L3011.75 2065.72 M2990.85 2065.72 Q2994.51 2065.72 2996.68 2068.27 Q2998.86 2070.79 2998.86 2075.12 Q2998.86 2079.49 2996.68 2082.02 Q2994.53 2084.54 2990.85 2084.54 Q2987.17 2084.54 2985.02 2082.02 Q2982.89 2079.47 2982.89 2075.12 Q2982.89 2070.81 2985.04 2068.27 Q2987.19 2065.72 2990.85 2065.72 Z" fill="#000000" fill-rule="nonzero" fill-opacity="1" /></svg>
