<?xml version="1.0" encoding="utf-8"?>
<svg xmlns="http://www.w3.org/2000/svg" xmlns:xlink="http://www.w3.org/1999/xlink" width="800" height="600" viewBox="0 0 3200 2400">
<defs>
  <clipPath id="clip940">
    <rect x="0" y="0" width="3200" height="2400"/>
  </clipPath>
</defs>
<path clip-path="url(#clip940)" d="M0 2400 L3200 2400 L3200 0 L0 0  Z" fill="#ffffff" fill-rule="evenodd" fill-opacity="1"/>
<defs>
  <clipPath id="clip941">
    <rect x="640" y="0" width="2241" height="2241"/>
  </clipPath>
</defs>
<path clip-path="url(#clip940)" d="M233.806 2204.92 L3152.76 2204.92 L3152.76 121.312 L233.806 121.312  Z" fill="#eaeaea" fill-rule="evenodd" fill-opacity="1"/>
<defs>
  <clipPath id="clip942">
    <rect x="233" y="121" width="2920" height="2085"/>
  </clipPath>
</defs>
<polyline clip-path="url(#clip942)" style="stroke:#ffffff; stroke-linecap:round; stroke-linejoin:round; stroke-width:2; stroke-opacity:1; fill:none" points="591.791,2204.92 591.791,121.312 "/>
<polyline clip-path="url(#clip942)" style="stroke:#ffffff; stroke-linecap:round; stroke-linejoin:round; stroke-width:2; stroke-opacity:1; fill:none" points="1142.54,2204.92 1142.54,121.312 "/>
<polyline clip-path="url(#clip942)" style="stroke:#ffffff; stroke-linecap:round; stroke-linejoin:round; stroke-width:2; stroke-opacity:1; fill:none" points="1693.28,2204.92 1693.28,121.312 "/>
<polyline clip-path="url(#clip942)" style="stroke:#ffffff; stroke-linecap:round; stroke-linejoin:round; stroke-width:2; stroke-opacity:1; fill:none" points="2244.03,2204.92 2244.03,121.312 "/>
<polyline clip-path="url(#clip942)" style="stroke:#ffffff; stroke-linecap:round; stroke-linejoin:round; stroke-width:2; stroke-opacity:1; fill:none" points="2794.77,2204.92 2794.77,121.312 "/>
<polyline clip-path="url(#clip942)" style="stroke:#ffffff; stroke-linecap:round; stroke-linejoin:round; stroke-width:2; stroke-opacity:1; fill:none" points="233.806,2005.55 3152.76,2005.55 "/>
<polyline clip-path="url(#clip942)" style="stroke:#ffffff; stroke-linecap:round; stroke-linejoin:round; stroke-width:2; stroke-opacity:1; fill:none" points="233.806,1708.08 3152.76,1708.08 "/>
<polyline clip-path="url(#clip942)" style="stroke:#ffffff; stroke-linecap:round; stroke-linejoin:round; stroke-width:2; stroke-opacity:1; fill:none" points="233.806,1410.61 3152.76,1410.61 "/>
<polyline clip-path="url(#clip942)" style="stroke:#ffffff; stroke-linecap:round; stroke-linejoin:round; stroke-width:2; stroke-opacity:1; fill:none" points="233.806,1113.14 3152.76,1113.14 "/>
<polyline clip-path="url(#clip942)" style="stroke:#ffffff; stroke-linecap:round; stroke-linejoin:round; stroke-width:2; stroke-opacity:1; fill:none" points="233.806,815.677 3152.76,815.677 "/>
<polyline clip-path="url(#clip942)" style="stroke:#ffffff; stroke-linecap:round; stroke-linejoin:round; stroke-width:2; stroke-opacity:1; fill:none" points="233.806,518.209 3152.76,518.209 "/>
<polyline clip-path="url(#clip942)" style="stroke:#ffffff; stroke-linecap:round; stroke-linejoin:round; stroke-width:2; stroke-opacity:1; fill:none" points="233.806,220.741 3152.76,220.741 "/>
<polyline clip-path="url(#clip942)" style="stroke:#ffffff; stroke-linecap:round; stroke-linejoin:round; stroke-width:4; stroke-opacity:1; fill:none" points="316.418,2204.92 316.418,121.312 "/>
<polyline clip-path="url(#clip942)" style="stroke:#ffffff; stroke-linecap:round; stroke-linejoin:round; stroke-width:4; stroke-opacity:1; fill:none" points="867.163,2204.92 867.163,121.312 "/>
<polyline clip-path="url(#clip942)" style="stroke:#ffffff; stroke-linecap:round; stroke-linejoin:round; stroke-width:4; stroke-opacity:1; fill:none" points="1417.91,2204.92 1417.91,121.312 "/>
<polyline clip-path="url(#clip942)" style="stroke:#ffffff; stroke-linecap:round; stroke-linejoin:round; stroke-width:4; stroke-opacity:1; fill:none" points="1968.65,2204.92 1968.65,121.312 "/>
<polyline clip-path="url(#clip942)" style="stroke:#ffffff; stroke-linecap:round; stroke-linejoin:round; stroke-width:4; stroke-opacity:1; fill:none" points="2519.4,2204.92 2519.4,121.312 "/>
<polyline clip-path="url(#clip942)" style="stroke:#ffffff; stroke-linecap:round; stroke-linejoin:round; stroke-width:4; stroke-opacity:1; fill:none" points="3070.14,2204.92 3070.14,121.312 "/>
<polyline clip-path="url(#clip942)" style="stroke:#ffffff; stroke-linecap:round; stroke-linejoin:round; stroke-width:4; stroke-opacity:1; fill:none" points="233.806,2154.28 3152.76,2154.28 "/>
<polyline clip-path="url(#clip942)" style="stroke:#ffffff; stroke-linecap:round; stroke-linejoin:round; stroke-width:4; stroke-opacity:1; fill:none" points="233.806,1856.81 3152.76,1856.81 "/>
<polyline clip-path="url(#clip942)" style="stroke:#ffffff; stroke-linecap:round; stroke-linejoin:round; stroke-width:4; stroke-opacity:1; fill:none" points="233.806,1559.35 3152.76,1559.35 "/>
<polyline clip-path="url(#clip942)" style="stroke:#ffffff; stroke-linecap:round; stroke-linejoin:round; stroke-width:4; stroke-opacity:1; fill:none" points="233.806,1261.88 3152.76,1261.88 "/>
<polyline clip-path="url(#clip942)" style="stroke:#ffffff; stroke-linecap:round; stroke-linejoin:round; stroke-width:4; stroke-opacity:1; fill:none" points="233.806,964.411 3152.76,964.411 "/>
<polyline clip-path="url(#clip942)" style="stroke:#ffffff; stroke-linecap:round; stroke-linejoin:round; stroke-width:4; stroke-opacity:1; fill:none" points="233.806,666.943 3152.76,666.943 "/>
<polyline clip-path="url(#clip942)" style="stroke:#ffffff; stroke-linecap:round; stroke-linejoin:round; stroke-width:4; stroke-opacity:1; fill:none" points="233.806,369.475 3152.76,369.475 "/>
<polyline clip-path="url(#clip940)" style="stroke:#ffffff; stroke-linecap:round; stroke-linejoin:round; stroke-width:4; stroke-opacity:1; fill:none" points="233.806,2204.92 3152.76,2204.92 "/>
<polyline clip-path="url(#clip940)" style="stroke:#333333; stroke-linecap:round; stroke-linejoin:round; stroke-width:4; stroke-opacity:1; fill:none" points="316.418,2204.92 316.418,2223.82 "/>
<polyline clip-path="url(#clip940)" style="stroke:#333333; stroke-linecap:round; stroke-linejoin:round; stroke-width:4; stroke-opacity:1; fill:none" points="867.163,2204.92 867.163,2223.82 "/>
<polyline clip-path="url(#clip940)" style="stroke:#333333; stroke-linecap:round; stroke-linejoin:round; stroke-width:4; stroke-opacity:1; fill:none" points="1417.91,2204.92 1417.91,2223.82 "/>
<polyline clip-path="url(#clip940)" style="stroke:#333333; stroke-linecap:round; stroke-linejoin:round; stroke-width:4; stroke-opacity:1; fill:none" points="1968.65,2204.92 1968.65,2223.82 "/>
<polyline clip-path="url(#clip940)" style="stroke:#333333; stroke-linecap:round; stroke-linejoin:round; stroke-width:4; stroke-opacity:1; fill:none" points="2519.4,2204.92 2519.4,2223.82 "/>
<polyline clip-path="url(#clip940)" style="stroke:#333333; stroke-linecap:round; stroke-linejoin:round; stroke-width:4; stroke-opacity:1; fill:none" points="3070.14,2204.92 3070.14,2223.82 "/>
<polyline clip-path="url(#clip940)" style="stroke:#333333; stroke-linecap:round; stroke-linejoin:round; stroke-width:4; stroke-opacity:1; fill:none" points="591.791,2204.92 591.791,2214.37 "/>
<polyline clip-path="url(#clip940)" style="stroke:#333333; stroke-linecap:round; stroke-linejoin:round; stroke-width:4; stroke-opacity:1; fill:none" points="1142.54,2204.92 1142.54,2214.37 "/>
<polyline clip-path="url(#clip940)" style="stroke:#333333; stroke-linecap:round; stroke-linejoin:round; stroke-width:4; stroke-opacity:1; fill:none" points="1693.28,2204.92 1693.28,2214.37 "/>
<polyline clip-path="url(#clip940)" style="stroke:#333333; stroke-linecap:round; stroke-linejoin:round; stroke-width:4; stroke-opacity:1; fill:none" points="2244.03,2204.92 2244.03,2214.37 "/>
<polyline clip-path="url(#clip940)" style="stroke:#333333; stroke-linecap:round; stroke-linejoin:round; stroke-width:4; stroke-opacity:1; fill:none" points="2794.77,2204.92 2794.77,2214.37 "/>
<path clip-path="url(#clip940)" d="M316.418 2255.04 Q312.807 2255.04 310.978 2258.6 Q309.173 2262.14 309.173 2269.27 Q309.173 2276.38 310.978 2279.95 Q312.807 2283.49 316.418 2283.49 Q320.052 2283.49 321.858 2279.95 Q323.687 2276.38 323.687 2269.27 Q323.687 2262.14 321.858 2258.6 Q320.052 2255.04 316.418 2255.04 M316.418 2251.33 Q322.228 2251.33 325.284 2255.94 Q328.362 2260.52 328.362 2269.27 Q328.362 2278 325.284 2282.61 Q322.228 2287.19 316.418 2287.19 Q310.608 2287.19 307.529 2282.61 Q304.474 2278 304.474 2269.27 Q304.474 2260.52 307.529 2255.94 Q310.608 2251.33 316.418 2251.33 Z" fill="#4c4c4c" fill-rule="nonzero" fill-opacity="1" /><path clip-path="url(#clip940)" d="M857.545 2282.58 L865.184 2282.58 L865.184 2256.22 L856.874 2257.89 L856.874 2253.63 L865.138 2251.96 L869.814 2251.96 L869.814 2282.58 L877.453 2282.58 L877.453 2286.52 L857.545 2286.52 L857.545 2282.58 Z" fill="#4c4c4c" fill-rule="nonzero" fill-opacity="1" /><path clip-path="url(#clip940)" d="M1412.56 2282.58 L1428.88 2282.58 L1428.88 2286.52 L1406.94 2286.52 L1406.94 2282.58 Q1409.6 2279.83 1414.18 2275.2 Q1418.79 2270.55 1419.97 2269.21 Q1422.21 2266.68 1423.09 2264.95 Q1424 2263.19 1424 2261.5 Q1424 2258.74 1422.05 2257.01 Q1420.13 2255.27 1417.03 2255.27 Q1414.83 2255.27 1412.38 2256.03 Q1409.95 2256.8 1407.17 2258.35 L1407.17 2253.63 Q1409.99 2252.49 1412.45 2251.91 Q1414.9 2251.33 1416.94 2251.33 Q1422.31 2251.33 1425.5 2254.02 Q1428.7 2256.71 1428.7 2261.2 Q1428.7 2263.33 1427.89 2265.25 Q1427.1 2267.14 1424.99 2269.74 Q1424.41 2270.41 1421.31 2273.63 Q1418.21 2276.82 1412.56 2282.58 Z" fill="#4c4c4c" fill-rule="nonzero" fill-opacity="1" /><path clip-path="url(#clip940)" d="M1972.9 2267.89 Q1976.26 2268.6 1978.13 2270.87 Q1980.03 2273.14 1980.03 2276.47 Q1980.03 2281.59 1976.51 2284.39 Q1972.99 2287.19 1966.51 2287.19 Q1964.34 2287.19 1962.02 2286.75 Q1959.73 2286.33 1957.28 2285.48 L1957.28 2280.96 Q1959.22 2282.1 1961.54 2282.68 Q1963.85 2283.26 1966.37 2283.26 Q1970.77 2283.26 1973.06 2281.52 Q1975.38 2279.78 1975.38 2276.47 Q1975.38 2273.42 1973.23 2271.71 Q1971.1 2269.97 1967.28 2269.97 L1963.25 2269.97 L1963.25 2266.13 L1967.46 2266.13 Q1970.91 2266.13 1972.74 2264.76 Q1974.57 2263.37 1974.57 2260.78 Q1974.57 2258.12 1972.67 2256.71 Q1970.79 2255.27 1967.28 2255.27 Q1965.36 2255.27 1963.16 2255.69 Q1960.96 2256.1 1958.32 2256.98 L1958.32 2252.82 Q1960.98 2252.08 1963.29 2251.71 Q1965.63 2251.33 1967.69 2251.33 Q1973.02 2251.33 1976.12 2253.77 Q1979.22 2256.17 1979.22 2260.29 Q1979.22 2263.16 1977.58 2265.15 Q1975.93 2267.12 1972.9 2267.89 Z" fill="#4c4c4c" fill-rule="nonzero" fill-opacity="1" /><path clip-path="url(#clip940)" d="M2522.41 2256.03 L2510.6 2274.48 L2522.41 2274.48 L2522.41 2256.03 M2521.18 2251.96 L2527.06 2251.96 L2527.06 2274.48 L2531.99 2274.48 L2531.99 2278.37 L2527.06 2278.37 L2527.06 2286.52 L2522.41 2286.52 L2522.41 2278.37 L2506.81 2278.37 L2506.81 2273.86 L2521.18 2251.96 Z" fill="#4c4c4c" fill-rule="nonzero" fill-opacity="1" /><path clip-path="url(#clip940)" d="M3060.42 2251.96 L3078.78 2251.96 L3078.78 2255.9 L3064.7 2255.9 L3064.7 2264.37 Q3065.72 2264.02 3066.74 2263.86 Q3067.76 2263.67 3068.78 2263.67 Q3074.57 2263.67 3077.95 2266.84 Q3081.32 2270.02 3081.32 2275.43 Q3081.32 2281.01 3077.85 2284.11 Q3074.38 2287.19 3068.06 2287.19 Q3065.88 2287.19 3063.62 2286.82 Q3061.37 2286.45 3058.96 2285.71 L3058.96 2281.01 Q3061.05 2282.14 3063.27 2282.7 Q3065.49 2283.26 3067.97 2283.26 Q3071.97 2283.26 3074.31 2281.15 Q3076.65 2279.04 3076.65 2275.43 Q3076.65 2271.82 3074.31 2269.71 Q3071.97 2267.61 3067.97 2267.61 Q3066.09 2267.61 3064.22 2268.02 Q3062.37 2268.44 3060.42 2269.32 L3060.42 2251.96 Z" fill="#4c4c4c" fill-rule="nonzero" fill-opacity="1" /><path clip-path="url(#clip940)" d="M1692.34 2316.01 L1692.34 2326.14 L1704.41 2326.14 L1704.41 2330.69 L1692.34 2330.69 L1692.34 2350.04 Q1692.34 2354.4 1693.52 2355.64 Q1694.73 2356.88 1698.39 2356.88 L1704.41 2356.88 L1704.41 2361.78 L1698.39 2361.78 Q1691.61 2361.78 1689.03 2359.27 Q1686.45 2356.72 1686.45 2350.04 L1686.45 2330.69 L1682.16 2330.69 L1682.16 2326.14 L1686.45 2326.14 L1686.45 2316.01 L1692.34 2316.01 Z" fill="#000000" fill-rule="nonzero" fill-opacity="1" /><polyline clip-path="url(#clip940)" style="stroke:#ffffff; stroke-linecap:round; stroke-linejoin:round; stroke-width:4; stroke-opacity:1; fill:none" points="233.806,2204.92 233.806,121.312 "/>
<polyline clip-path="url(#clip940)" style="stroke:#333333; stroke-linecap:round; stroke-linejoin:round; stroke-width:4; stroke-opacity:1; fill:none" points="233.806,2154.28 214.909,2154.28 "/>
<polyline clip-path="url(#clip940)" style="stroke:#333333; stroke-linecap:round; stroke-linejoin:round; stroke-width:4; stroke-opacity:1; fill:none" points="233.806,1856.81 214.909,1856.81 "/>
<polyline clip-path="url(#clip940)" style="stroke:#333333; stroke-linecap:round; stroke-linejoin:round; stroke-width:4; stroke-opacity:1; fill:none" points="233.806,1559.35 214.909,1559.35 "/>
<polyline clip-path="url(#clip940)" style="stroke:#333333; stroke-linecap:round; stroke-linejoin:round; stroke-width:4; stroke-opacity:1; fill:none" points="233.806,1261.88 214.909,1261.88 "/>
<polyline clip-path="url(#clip940)" style="stroke:#333333; stroke-linecap:round; stroke-linejoin:round; stroke-width:4; stroke-opacity:1; fill:none" points="233.806,964.411 214.909,964.411 "/>
<polyline clip-path="url(#clip940)" style="stroke:#333333; stroke-linecap:round; stroke-linejoin:round; stroke-width:4; stroke-opacity:1; fill:none" points="233.806,666.943 214.909,666.943 "/>
<polyline clip-path="url(#clip940)" style="stroke:#333333; stroke-linecap:round; stroke-linejoin:round; stroke-width:4; stroke-opacity:1; fill:none" points="233.806,369.475 214.909,369.475 "/>
<polyline clip-path="url(#clip940)" style="stroke:#333333; stroke-linecap:round; stroke-linejoin:round; stroke-width:4; stroke-opacity:1; fill:none" points="233.806,2005.55 224.357,2005.55 "/>
<polyline clip-path="url(#clip940)" style="stroke:#333333; stroke-linecap:round; stroke-linejoin:round; stroke-width:4; stroke-opacity:1; fill:none" points="233.806,1708.08 224.357,1708.08 "/>
<polyline clip-path="url(#clip940)" style="stroke:#333333; stroke-linecap:round; stroke-linejoin:round; stroke-width:4; stroke-opacity:1; fill:none" points="233.806,1410.61 224.357,1410.61 "/>
<polyline clip-path="url(#clip940)" style="stroke:#333333; stroke-linecap:round; stroke-linejoin:round; stroke-width:4; stroke-opacity:1; fill:none" points="233.806,1113.14 224.357,1113.14 "/>
<polyline clip-path="url(#clip940)" style="stroke:#333333; stroke-linecap:round; stroke-linejoin:round; stroke-width:4; stroke-opacity:1; fill:none" points="233.806,815.677 224.357,815.677 "/>
<polyline clip-path="url(#clip940)" style="stroke:#333333; stroke-linecap:round; stroke-linejoin:round; stroke-width:4; stroke-opacity:1; fill:none" points="233.806,518.209 224.357,518.209 "/>
<polyline clip-path="url(#clip940)" style="stroke:#333333; stroke-linecap:round; stroke-linejoin:round; stroke-width:4; stroke-opacity:1; fill:none" points="233.806,220.741 224.357,220.741 "/>
<path clip-path="url(#clip940)" d="M106.228 2140.08 Q102.617 2140.08 100.788 2143.65 Q98.9825 2147.19 98.9825 2154.32 Q98.9825 2161.42 100.788 2164.99 Q102.617 2168.53 106.228 2168.53 Q109.862 2168.53 111.668 2164.99 Q113.496 2161.42 113.496 2154.32 Q113.496 2147.19 111.668 2143.65 Q109.862 2140.08 106.228 2140.08 M106.228 2136.38 Q112.038 2136.38 115.094 2140.98 Q118.172 2145.57 118.172 2154.32 Q118.172 2163.04 115.094 2167.65 Q112.038 2172.23 106.228 2172.23 Q100.418 2172.23 97.339 2167.65 Q94.2835 2163.04 94.2835 2154.32 Q94.2835 2145.57 97.339 2140.98 Q100.418 2136.38 106.228 2136.38 Z" fill="#4c4c4c" fill-rule="nonzero" fill-opacity="1" /><path clip-path="url(#clip940)" d="M126.39 2165.68 L131.274 2165.68 L131.274 2171.56 L126.39 2171.56 L126.39 2165.68 Z" fill="#4c4c4c" fill-rule="nonzero" fill-opacity="1" /><path clip-path="url(#clip940)" d="M145.487 2167.63 L161.806 2167.63 L161.806 2171.56 L139.862 2171.56 L139.862 2167.63 Q142.524 2164.87 147.107 2160.24 Q151.714 2155.59 152.894 2154.25 Q155.14 2151.72 156.019 2149.99 Q156.922 2148.23 156.922 2146.54 Q156.922 2143.78 154.978 2142.05 Q153.056 2140.31 149.954 2140.31 Q147.755 2140.31 145.302 2141.08 Q142.871 2141.84 140.093 2143.39 L140.093 2138.67 Q142.917 2137.53 145.371 2136.96 Q147.825 2136.38 149.862 2136.38 Q155.232 2136.38 158.427 2139.06 Q161.621 2141.75 161.621 2146.24 Q161.621 2148.37 160.811 2150.29 Q160.024 2152.19 157.917 2154.78 Q157.339 2155.45 154.237 2158.67 Q151.135 2161.86 145.487 2167.63 Z" fill="#4c4c4c" fill-rule="nonzero" fill-opacity="1" /><path clip-path="url(#clip940)" d="M104.145 1842.61 Q100.533 1842.61 98.7048 1846.18 Q96.8992 1849.72 96.8992 1856.85 Q96.8992 1863.95 98.7048 1867.52 Q100.533 1871.06 104.145 1871.06 Q107.779 1871.06 109.584 1867.52 Q111.413 1863.95 111.413 1856.85 Q111.413 1849.72 109.584 1846.18 Q107.779 1842.61 104.145 1842.61 M104.145 1838.91 Q109.955 1838.91 113.01 1843.52 Q116.089 1848.1 116.089 1856.85 Q116.089 1865.58 113.01 1870.18 Q109.955 1874.77 104.145 1874.77 Q98.3344 1874.77 95.2557 1870.18 Q92.2002 1865.58 92.2002 1856.85 Q92.2002 1848.1 95.2557 1843.52 Q98.3344 1838.91 104.145 1838.91 Z" fill="#4c4c4c" fill-rule="nonzero" fill-opacity="1" /><path clip-path="url(#clip940)" d="M124.306 1868.21 L129.191 1868.21 L129.191 1874.09 L124.306 1874.09 L124.306 1868.21 Z" fill="#4c4c4c" fill-rule="nonzero" fill-opacity="1" /><path clip-path="url(#clip940)" d="M152.223 1843.61 L140.417 1862.06 L152.223 1862.06 L152.223 1843.61 M150.996 1839.53 L156.876 1839.53 L156.876 1862.06 L161.806 1862.06 L161.806 1865.95 L156.876 1865.95 L156.876 1874.09 L152.223 1874.09 L152.223 1865.95 L136.621 1865.95 L136.621 1861.43 L150.996 1839.53 Z" fill="#4c4c4c" fill-rule="nonzero" fill-opacity="1" /><path clip-path="url(#clip940)" d="M104.469 1545.14 Q100.858 1545.14 99.0288 1548.71 Q97.2233 1552.25 97.2233 1559.38 Q97.2233 1566.49 99.0288 1570.05 Q100.858 1573.59 104.469 1573.59 Q108.103 1573.59 109.908 1570.05 Q111.737 1566.49 111.737 1559.38 Q111.737 1552.25 109.908 1548.71 Q108.103 1545.14 104.469 1545.14 M104.469 1541.44 Q110.279 1541.44 113.334 1546.05 Q116.413 1550.63 116.413 1559.38 Q116.413 1568.11 113.334 1572.71 Q110.279 1577.3 104.469 1577.3 Q98.6585 1577.3 95.5798 1572.71 Q92.5242 1568.11 92.5242 1559.38 Q92.5242 1550.63 95.5798 1546.05 Q98.6585 1541.44 104.469 1541.44 Z" fill="#4c4c4c" fill-rule="nonzero" fill-opacity="1" /><path clip-path="url(#clip940)" d="M124.631 1570.75 L129.515 1570.75 L129.515 1576.63 L124.631 1576.63 L124.631 1570.75 Z" fill="#4c4c4c" fill-rule="nonzero" fill-opacity="1" /><path clip-path="url(#clip940)" d="M150.279 1557.48 Q147.13 1557.48 145.279 1559.64 Q143.45 1561.79 143.45 1565.54 Q143.45 1569.26 145.279 1571.44 Q147.13 1573.59 150.279 1573.59 Q153.427 1573.59 155.255 1571.44 Q157.107 1569.26 157.107 1565.54 Q157.107 1561.79 155.255 1559.64 Q153.427 1557.48 150.279 1557.48 M159.561 1542.83 L159.561 1547.09 Q157.802 1546.26 155.996 1545.82 Q154.214 1545.38 152.454 1545.38 Q147.825 1545.38 145.371 1548.5 Q142.941 1551.63 142.593 1557.95 Q143.959 1555.93 146.019 1554.87 Q148.079 1553.78 150.556 1553.78 Q155.765 1553.78 158.774 1556.95 Q161.806 1560.1 161.806 1565.54 Q161.806 1570.86 158.658 1574.08 Q155.51 1577.3 150.279 1577.3 Q144.283 1577.3 141.112 1572.71 Q137.941 1568.11 137.941 1559.38 Q137.941 1551.19 141.83 1546.33 Q145.718 1541.44 152.269 1541.44 Q154.029 1541.44 155.811 1541.79 Q157.616 1542.14 159.561 1542.83 Z" fill="#4c4c4c" fill-rule="nonzero" fill-opacity="1" /><path clip-path="url(#clip940)" d="M104.723 1247.68 Q101.112 1247.68 99.2835 1251.24 Q97.4779 1254.78 97.4779 1261.91 Q97.4779 1269.02 99.2835 1272.58 Q101.112 1276.13 104.723 1276.13 Q108.357 1276.13 110.163 1272.58 Q111.992 1269.02 111.992 1261.91 Q111.992 1254.78 110.163 1251.24 Q108.357 1247.68 104.723 1247.68 M104.723 1243.97 Q110.533 1243.97 113.589 1248.58 Q116.668 1253.16 116.668 1261.91 Q116.668 1270.64 113.589 1275.25 Q110.533 1279.83 104.723 1279.83 Q98.9131 1279.83 95.8344 1275.25 Q92.7789 1270.64 92.7789 1261.91 Q92.7789 1253.16 95.8344 1248.58 Q98.9131 1243.97 104.723 1243.97 Z" fill="#4c4c4c" fill-rule="nonzero" fill-opacity="1" /><path clip-path="url(#clip940)" d="M124.885 1273.28 L129.769 1273.28 L129.769 1279.16 L124.885 1279.16 L124.885 1273.28 Z" fill="#4c4c4c" fill-rule="nonzero" fill-opacity="1" /><path clip-path="url(#clip940)" d="M149.954 1262.75 Q146.621 1262.75 144.7 1264.53 Q142.802 1266.31 142.802 1269.44 Q142.802 1272.56 144.7 1274.34 Q146.621 1276.13 149.954 1276.13 Q153.288 1276.13 155.209 1274.34 Q157.13 1272.54 157.13 1269.44 Q157.13 1266.31 155.209 1264.53 Q153.311 1262.75 149.954 1262.75 M145.279 1260.76 Q142.269 1260.01 140.58 1257.95 Q138.913 1255.89 138.913 1252.93 Q138.913 1248.79 141.853 1246.38 Q144.816 1243.97 149.954 1243.97 Q155.116 1243.97 158.056 1246.38 Q160.996 1248.79 160.996 1252.93 Q160.996 1255.89 159.306 1257.95 Q157.64 1260.01 154.654 1260.76 Q158.033 1261.54 159.908 1263.83 Q161.806 1266.13 161.806 1269.44 Q161.806 1274.46 158.728 1277.14 Q155.672 1279.83 149.954 1279.83 Q144.237 1279.83 141.158 1277.14 Q138.103 1274.46 138.103 1269.44 Q138.103 1266.13 140.001 1263.83 Q141.899 1261.54 145.279 1260.76 M143.566 1253.37 Q143.566 1256.06 145.232 1257.56 Q146.922 1259.07 149.954 1259.07 Q152.964 1259.07 154.654 1257.56 Q156.366 1256.06 156.366 1253.37 Q156.366 1250.69 154.654 1249.18 Q152.964 1247.68 149.954 1247.68 Q146.922 1247.68 145.232 1249.18 Q143.566 1250.69 143.566 1253.37 Z" fill="#4c4c4c" fill-rule="nonzero" fill-opacity="1" /><path clip-path="url(#clip940)" d="M95.4409 977.755 L103.08 977.755 L103.08 951.39 L94.7696 953.056 L94.7696 948.797 L103.033 947.131 L107.709 947.131 L107.709 977.755 L115.348 977.755 L115.348 981.691 L95.4409 981.691 L95.4409 977.755 Z" fill="#4c4c4c" fill-rule="nonzero" fill-opacity="1" /><path clip-path="url(#clip940)" d="M124.793 975.811 L129.677 975.811 L129.677 981.691 L124.793 981.691 L124.793 975.811 Z" fill="#4c4c4c" fill-rule="nonzero" fill-opacity="1" /><path clip-path="url(#clip940)" d="M149.862 950.209 Q146.251 950.209 144.422 953.774 Q142.617 957.316 142.617 964.445 Q142.617 971.552 144.422 975.117 Q146.251 978.658 149.862 978.658 Q153.496 978.658 155.302 975.117 Q157.13 971.552 157.13 964.445 Q157.13 957.316 155.302 953.774 Q153.496 950.209 149.862 950.209 M149.862 946.506 Q155.672 946.506 158.728 951.112 Q161.806 955.695 161.806 964.445 Q161.806 973.172 158.728 977.779 Q155.672 982.362 149.862 982.362 Q144.052 982.362 140.973 977.779 Q137.918 973.172 137.918 964.445 Q137.918 955.695 140.973 951.112 Q144.052 946.506 149.862 946.506 Z" fill="#4c4c4c" fill-rule="nonzero" fill-opacity="1" /><path clip-path="url(#clip940)" d="M97.0381 680.288 L104.677 680.288 L104.677 653.922 L96.3668 655.589 L96.3668 651.329 L104.631 649.663 L109.307 649.663 L109.307 680.288 L116.945 680.288 L116.945 684.223 L97.0381 684.223 L97.0381 680.288 Z" fill="#4c4c4c" fill-rule="nonzero" fill-opacity="1" /><path clip-path="url(#clip940)" d="M126.39 678.343 L131.274 678.343 L131.274 684.223 L126.39 684.223 L126.39 678.343 Z" fill="#4c4c4c" fill-rule="nonzero" fill-opacity="1" /><path clip-path="url(#clip940)" d="M145.487 680.288 L161.806 680.288 L161.806 684.223 L139.862 684.223 L139.862 680.288 Q142.524 677.533 147.107 672.903 Q151.714 668.251 152.894 666.908 Q155.14 664.385 156.019 662.649 Q156.922 660.89 156.922 659.2 Q156.922 656.445 154.978 654.709 Q153.056 652.973 149.954 652.973 Q147.755 652.973 145.302 653.737 Q142.871 654.501 140.093 656.052 L140.093 651.329 Q142.917 650.195 145.371 649.617 Q147.825 649.038 149.862 649.038 Q155.232 649.038 158.427 651.723 Q161.621 654.408 161.621 658.899 Q161.621 661.028 160.811 662.95 Q160.024 664.848 157.917 667.44 Q157.339 668.112 154.237 671.329 Q151.135 674.524 145.487 680.288 Z" fill="#4c4c4c" fill-rule="nonzero" fill-opacity="1" /><path clip-path="url(#clip940)" d="M94.9548 382.82 L102.594 382.82 L102.594 356.454 L94.2835 358.121 L94.2835 353.862 L102.547 352.195 L107.223 352.195 L107.223 382.82 L114.862 382.82 L114.862 386.755 L94.9548 386.755 L94.9548 382.82 Z" fill="#4c4c4c" fill-rule="nonzero" fill-opacity="1" /><path clip-path="url(#clip940)" d="M124.306 380.875 L129.191 380.875 L129.191 386.755 L124.306 386.755 L124.306 380.875 Z" fill="#4c4c4c" fill-rule="nonzero" fill-opacity="1" /><path clip-path="url(#clip940)" d="M152.223 356.269 L140.417 374.718 L152.223 374.718 L152.223 356.269 M150.996 352.195 L156.876 352.195 L156.876 374.718 L161.806 374.718 L161.806 378.607 L156.876 378.607 L156.876 386.755 L152.223 386.755 L152.223 378.607 L136.621 378.607 L136.621 374.093 L150.996 352.195 Z" fill="#4c4c4c" fill-rule="nonzero" fill-opacity="1" /><path clip-path="url(#clip940)" d="M48.597 1321.32 L67.5031 1321.32 L67.5031 1327.21 L18.2962 1327.21 L18.2962 1321.32 L23.7071 1321.32 Q20.5242 1319.47 18.9964 1316.67 Q17.4368 1313.84 17.4368 1309.93 Q17.4368 1303.43 22.5931 1299.39 Q27.7493 1295.32 36.152 1295.32 Q44.5547 1295.32 49.711 1299.39 Q54.8672 1303.43 54.8672 1309.93 Q54.8672 1313.84 53.3394 1316.67 Q51.7798 1319.47 48.597 1321.32 M36.152 1301.4 Q29.6908 1301.4 26.0305 1304.07 Q22.3384 1306.71 22.3384 1311.36 Q22.3384 1316 26.0305 1318.68 Q29.6908 1321.32 36.152 1321.32 Q42.6132 1321.32 46.3053 1318.68 Q49.9656 1316 49.9656 1311.36 Q49.9656 1306.71 46.3053 1304.07 Q42.6132 1301.4 36.152 1301.4 Z" fill="#000000" fill-rule="nonzero" fill-opacity="1" /><path clip-path="url(#clip940)" d="M22.4021 1271.79 Q22.4021 1276.51 26.0942 1279.24 Q29.7545 1281.98 36.152 1281.98 Q42.5495 1281.98 46.2417 1279.27 Q49.9019 1276.54 49.9019 1271.79 Q49.9019 1267.12 46.2098 1264.38 Q42.5177 1261.64 36.152 1261.64 Q29.8181 1261.64 26.126 1264.38 Q22.4021 1267.12 22.4021 1271.79 M17.4368 1271.79 Q17.4368 1264.16 22.4021 1259.8 Q27.3673 1255.43 36.152 1255.43 Q44.9049 1255.43 49.9019 1259.8 Q54.8672 1264.16 54.8672 1271.79 Q54.8672 1279.47 49.9019 1283.83 Q44.9049 1288.15 36.152 1288.15 Q27.3673 1288.15 22.4021 1283.83 Q17.4368 1279.47 17.4368 1271.79 Z" fill="#000000" fill-rule="nonzero" fill-opacity="1" /><path clip-path="url(#clip940)" d="M48.597 1240.06 L67.5031 1240.06 L67.5031 1245.95 L18.2962 1245.95 L18.2962 1240.06 L23.7071 1240.06 Q20.5242 1238.22 18.9964 1235.41 Q17.4368 1232.58 17.4368 1228.67 Q17.4368 1222.17 22.5931 1218.13 Q27.7493 1214.06 36.152 1214.06 Q44.5547 1214.06 49.711 1218.13 Q54.8672 1222.17 54.8672 1228.67 Q54.8672 1232.58 53.3394 1235.41 Q51.7798 1238.22 48.597 1240.06 M36.152 1220.14 Q29.6908 1220.14 26.0305 1222.81 Q22.3384 1225.45 22.3384 1230.1 Q22.3384 1234.75 26.0305 1237.42 Q29.6908 1240.06 36.152 1240.06 Q42.6132 1240.06 46.3053 1237.42 Q49.9656 1234.75 49.9656 1230.1 Q49.9656 1225.45 46.3053 1222.81 Q42.6132 1220.14 36.152 1220.14 Z" fill="#000000" fill-rule="nonzero" fill-opacity="1" /><path clip-path="url(#clip940)" d="M39.8759 1204.95 L18.2962 1204.95 L18.2962 1199.1 L39.6531 1199.1 Q44.7139 1199.1 47.2602 1197.12 Q49.7746 1195.15 49.7746 1191.2 Q49.7746 1186.46 46.7509 1183.72 Q43.7272 1180.96 38.5073 1180.96 L18.2962 1180.96 L18.2962 1175.1 L53.9442 1175.1 L53.9442 1180.96 L48.4696 1180.96 Q51.7162 1183.09 53.3076 1185.92 Q54.8672 1188.72 54.8672 1192.45 Q54.8672 1198.59 51.0478 1201.77 Q47.2283 1204.95 39.8759 1204.95 M17.4368 1190.22 L17.4368 1190.22 Z" fill="#000000" fill-rule="nonzero" fill-opacity="1" /><path clip-path="url(#clip940)" d="M4.41896 1163.04 L4.41896 1157.18 L53.9442 1157.18 L53.9442 1163.04 L4.41896 1163.04 Z" fill="#000000" fill-rule="nonzero" fill-opacity="1" /><path clip-path="url(#clip940)" d="M36.0247 1128.73 Q36.0247 1135.82 37.6479 1138.56 Q39.2712 1141.3 43.1861 1141.3 Q46.3053 1141.3 48.1514 1139.26 Q49.9656 1137.19 49.9656 1133.66 Q49.9656 1128.79 46.5281 1125.86 Q43.0588 1122.9 37.3297 1122.9 L36.0247 1122.9 L36.0247 1128.73 M33.6057 1117.04 L53.9442 1117.04 L53.9442 1122.9 L48.5333 1122.9 Q51.7798 1124.91 53.3394 1127.9 Q54.8672 1130.89 54.8672 1135.22 Q54.8672 1140.69 51.8116 1143.94 Q48.7243 1147.15 43.5681 1147.15 Q37.5525 1147.15 34.4969 1143.14 Q31.4414 1139.1 31.4414 1131.11 L31.4414 1122.9 L30.8685 1122.9 Q26.8262 1122.9 24.6301 1125.57 Q22.4021 1128.22 22.4021 1133.02 Q22.4021 1136.08 23.1341 1138.97 Q23.8662 1141.87 25.3303 1144.54 L19.9195 1144.54 Q18.6781 1141.33 18.0734 1138.31 Q17.4368 1135.28 17.4368 1132.42 Q17.4368 1124.68 21.4472 1120.86 Q25.4576 1117.04 33.6057 1117.04 Z" fill="#000000" fill-rule="nonzero" fill-opacity="1" /><path clip-path="url(#clip940)" d="M19.6648 1079.33 L25.1393 1079.33 Q23.7707 1081.81 23.1023 1084.32 Q22.4021 1086.81 22.4021 1089.35 Q22.4021 1095.05 26.0305 1098.2 Q29.6272 1101.35 36.152 1101.35 Q42.6769 1101.35 46.3053 1098.2 Q49.9019 1095.05 49.9019 1089.35 Q49.9019 1086.81 49.2335 1084.32 Q48.5333 1081.81 47.1647 1079.33 L52.5755 1079.33 Q53.7214 1081.78 54.2943 1084.42 Q54.8672 1087.03 54.8672 1089.99 Q54.8672 1098.04 49.8064 1102.78 Q44.7457 1107.53 36.152 1107.53 Q27.431 1107.53 22.4339 1102.75 Q17.4368 1097.95 17.4368 1089.61 Q17.4368 1086.9 18.0097 1084.32 Q18.5508 1081.75 19.6648 1079.33 M53.9442 1087.6 Q55.9175 1085.85 57.5726 1084.99 Q59.2595 1084.13 60.7873 1084.13 Q63.62 1084.13 65.0523 1086.04 Q66.5164 1087.95 66.5164 1091.71 Q66.5164 1093.17 66.3255 1094.57 Q66.1345 1095.94 65.7525 1097.31 L61.583 1097.31 Q62.1241 1096.23 62.3469 1095.05 Q62.6015 1093.87 62.6015 1092.38 Q62.6015 1090.5 61.8376 1089.54 Q61.0737 1088.59 59.6096 1088.59 Q58.6548 1088.59 57.2543 1089.29 Q55.8857 1089.96 53.9442 1091.39 L53.9442 1087.6 Z" fill="#000000" fill-rule="nonzero" fill-opacity="1" /><path clip-path="url(#clip940)" d="M36.0247 1052.94 Q36.0247 1060.04 37.6479 1062.78 Q39.2712 1065.51 43.1861 1065.51 Q46.3053 1065.51 48.1514 1063.48 Q49.9656 1061.41 49.9656 1057.87 Q49.9656 1053.01 46.5281 1050.08 Q43.0588 1047.12 37.3297 1047.12 L36.0247 1047.12 L36.0247 1052.94 M33.6057 1041.26 L53.9442 1041.26 L53.9442 1047.12 L48.5333 1047.12 Q51.7798 1049.12 53.3394 1052.11 Q54.8672 1055.11 54.8672 1059.43 Q54.8672 1064.91 51.8116 1068.16 Q48.7243 1071.37 43.5681 1071.37 Q37.5525 1071.37 34.4969 1067.36 Q31.4414 1063.32 31.4414 1055.33 L31.4414 1047.12 L30.8685 1047.12 Q26.8262 1047.12 24.6301 1049.79 Q22.4021 1052.43 22.4021 1057.24 Q22.4021 1060.29 23.1341 1063.19 Q23.8662 1066.09 25.3303 1068.76 L19.9195 1068.76 Q18.6781 1065.55 18.0734 1062.52 Q17.4368 1059.5 17.4368 1056.63 Q17.4368 1048.9 21.4472 1045.08 Q25.4576 1041.26 33.6057 1041.26 M10.3391 1056.51 L8.5885 1058.32 Q7.95193 1059.02 7.66547 1059.56 Q7.34718 1060.07 7.34718 1060.48 Q7.34718 1061.69 8.52484 1062.27 Q9.67067 1062.84 12.2806 1062.9 L12.2806 1066.88 Q7.98376 1066.82 5.66027 1065.2 Q3.30496 1063.57 3.30496 1060.68 Q3.30496 1059.47 3.75056 1058.45 Q4.19616 1057.43 5.2465 1056.25 L6.99707 1054.44 Q7.63364 1053.74 7.95193 1053.23 Q8.23838 1052.69 8.23838 1052.27 Q8.23838 1051.06 7.09256 1050.49 Q5.9149 1049.92 3.30496 1049.85 L3.30496 1045.88 Q7.60181 1045.94 9.95712 1047.56 Q12.2806 1049.19 12.2806 1052.08 Q12.2806 1053.29 11.835 1054.31 Q11.3894 1055.33 10.3391 1056.51 Z" fill="#000000" fill-rule="nonzero" fill-opacity="1" /><path clip-path="url(#clip940)" d="M22.4021 1015.38 Q22.4021 1020.09 26.0942 1022.83 Q29.7545 1025.57 36.152 1025.57 Q42.5495 1025.57 46.2417 1022.86 Q49.9019 1020.13 49.9019 1015.38 Q49.9019 1010.71 46.2098 1007.97 Q42.5177 1005.23 36.152 1005.23 Q29.8181 1005.23 26.126 1007.97 Q22.4021 1010.71 22.4021 1015.38 M17.4368 1015.38 Q17.4368 1007.74 22.4021 1003.38 Q27.3673 999.024 36.152 999.024 Q44.9049 999.024 49.9019 1003.38 Q54.8672 1007.74 54.8672 1015.38 Q54.8672 1023.05 49.9019 1027.42 Q44.9049 1031.74 36.152 1031.74 Q27.3673 1031.74 22.4021 1027.42 Q17.4368 1023.05 17.4368 1015.38 Z" fill="#000000" fill-rule="nonzero" fill-opacity="1" /><path clip-path="url(#clip940)" d="M972.365 23.3193 L979.136 23.3193 L991.288 55.958 L1003.44 23.3193 L1010.21 23.3193 L995.629 62.208 L986.948 62.208 L972.365 23.3193 Z" fill="#000000" fill-rule="nonzero" fill-opacity="1" /><path clip-path="url(#clip940)" d="M1036.7 42.6595 Q1028.96 42.6595 1025.98 44.4303 Q1022.99 46.2011 1022.99 50.472 Q1022.99 53.8747 1025.21 55.8886 Q1027.47 57.8677 1031.32 57.8677 Q1036.64 57.8677 1039.83 54.1178 Q1043.06 50.3331 1043.06 44.0831 L1043.06 42.6595 L1036.7 42.6595 M1049.45 40.0206 L1049.45 62.208 L1043.06 62.208 L1043.06 56.3053 Q1040.87 59.8469 1037.61 61.5483 Q1034.34 63.2149 1029.62 63.2149 Q1023.65 63.2149 1020.11 59.8816 Q1016.6 56.5136 1016.6 50.8886 Q1016.6 44.3262 1020.98 40.9928 Q1025.39 37.6595 1034.1 37.6595 L1043.06 37.6595 L1043.06 37.0345 Q1043.06 32.6248 1040.14 30.229 Q1037.26 27.7985 1032.02 27.7985 Q1028.68 27.7985 1025.52 28.5971 Q1022.36 29.3957 1019.45 30.9929 L1019.45 25.0901 Q1022.95 23.736 1026.25 23.0763 Q1029.55 22.3818 1032.68 22.3818 Q1041.11 22.3818 1045.28 26.7568 Q1049.45 31.1318 1049.45 40.0206 Z" fill="#000000" fill-rule="nonzero" fill-opacity="1" /><path clip-path="url(#clip940)" d="M1062.61 8.18051 L1069 8.18051 L1069 62.208 L1062.61 62.208 L1062.61 8.18051 Z" fill="#000000" fill-rule="nonzero" fill-opacity="1" /><path clip-path="url(#clip940)" d="M1097.43 27.7985 Q1092.29 27.7985 1089.31 31.8262 Q1086.32 35.8193 1086.32 42.7984 Q1086.32 49.7775 1089.27 53.8053 Q1092.26 57.7983 1097.43 57.7983 Q1102.54 57.7983 1105.52 53.7705 Q1108.51 49.7428 1108.51 42.7984 Q1108.51 35.8887 1105.52 31.8609 Q1102.54 27.7985 1097.43 27.7985 M1097.43 22.3818 Q1105.77 22.3818 1110.52 27.7985 Q1115.28 33.2151 1115.28 42.7984 Q1115.28 52.3469 1110.52 57.7983 Q1105.77 63.2149 1097.43 63.2149 Q1089.07 63.2149 1084.31 57.7983 Q1079.59 52.3469 1079.59 42.7984 Q1079.59 33.2151 1084.31 27.7985 Q1089.07 22.3818 1097.43 22.3818 Z" fill="#000000" fill-rule="nonzero" fill-opacity="1" /><path clip-path="url(#clip940)" d="M1148.41 29.2915 Q1147.33 28.6665 1146.04 28.3887 Q1144.79 28.0762 1143.27 28.0762 Q1137.85 28.0762 1134.93 31.6179 Q1132.05 35.1248 1132.05 41.722 L1132.05 62.208 L1125.63 62.208 L1125.63 23.3193 L1132.05 23.3193 L1132.05 29.361 Q1134.07 25.8193 1137.29 24.1179 Q1140.52 22.3818 1145.14 22.3818 Q1145.8 22.3818 1146.6 22.486 Q1147.4 22.5554 1148.37 22.729 L1148.41 29.2915 Z" fill="#000000" fill-rule="nonzero" fill-opacity="1" /><path clip-path="url(#clip940)" d="M1210.97 41.1664 L1210.97 44.2914 L1181.6 44.2914 Q1182.02 50.8886 1185.56 54.3608 Q1189.13 57.7983 1195.49 57.7983 Q1199.17 57.7983 1202.61 56.8955 Q1206.08 55.9928 1209.48 54.1872 L1209.48 60.2288 Q1206.04 61.6872 1202.43 62.4511 Q1198.82 63.2149 1195.11 63.2149 Q1185.8 63.2149 1180.35 57.7983 Q1174.93 52.3817 1174.93 43.1456 Q1174.93 33.597 1180.07 28.0068 Q1185.25 22.3818 1194 22.3818 Q1201.84 22.3818 1206.39 27.4512 Q1210.97 32.4859 1210.97 41.1664 M1204.59 39.2915 Q1204.52 34.0484 1201.63 30.9234 Q1198.79 27.7985 1194.07 27.7985 Q1188.72 27.7985 1185.49 30.8193 Q1182.29 33.8401 1181.81 39.3262 L1204.59 39.2915 Z" fill="#000000" fill-rule="nonzero" fill-opacity="1" /><path clip-path="url(#clip940)" d="M1246.25 24.4651 L1246.25 30.5068 Q1243.54 29.1179 1240.63 28.4235 Q1237.71 27.729 1234.59 27.729 Q1229.83 27.729 1227.43 29.1873 Q1225.07 30.6457 1225.07 33.5623 Q1225.07 35.7845 1226.77 37.0692 Q1228.47 38.3192 1233.61 39.4651 L1235.8 39.9512 Q1242.61 41.4095 1245.45 44.0831 Q1248.34 46.722 1248.34 51.4789 Q1248.34 56.8955 1244.03 60.0552 Q1239.76 63.2149 1232.26 63.2149 Q1229.13 63.2149 1225.73 62.5899 Q1222.36 61.9997 1218.61 60.7844 L1218.61 54.1872 Q1222.16 56.0275 1225.59 56.965 Q1229.03 57.8677 1232.4 57.8677 Q1236.91 57.8677 1239.34 56.34 Q1241.77 54.7775 1241.77 51.965 Q1241.77 49.3608 1240 47.972 Q1238.27 46.5831 1232.33 45.2984 L1230.11 44.7775 Q1224.17 43.5275 1221.53 40.9581 Q1218.89 38.354 1218.89 33.8401 Q1218.89 28.354 1222.78 25.3679 Q1226.67 22.3818 1233.82 22.3818 Q1237.36 22.3818 1240.49 22.9027 Q1243.61 23.4235 1246.25 24.4651 Z" fill="#000000" fill-rule="nonzero" fill-opacity="1" /><path clip-path="url(#clip940)" d="M1264.69 56.3747 L1264.69 76.9996 L1258.27 76.9996 L1258.27 23.3193 L1264.69 23.3193 L1264.69 29.2221 Q1266.7 25.7499 1269.76 24.0832 Q1272.85 22.3818 1277.12 22.3818 Q1284.2 22.3818 1288.61 28.0068 Q1293.06 33.6318 1293.06 42.7984 Q1293.06 51.965 1288.61 57.59 Q1284.2 63.2149 1277.12 63.2149 Q1272.85 63.2149 1269.76 61.5483 Q1266.7 59.8469 1264.69 56.3747 M1286.43 42.7984 Q1286.43 35.7498 1283.51 31.7568 Q1280.63 27.729 1275.56 27.729 Q1270.49 27.729 1267.57 31.7568 Q1264.69 35.7498 1264.69 42.7984 Q1264.69 49.847 1267.57 53.8747 Q1270.49 57.8677 1275.56 57.8677 Q1280.63 57.8677 1283.51 53.8747 Q1286.43 49.847 1286.43 42.7984 Z" fill="#000000" fill-rule="nonzero" fill-opacity="1" /><path clip-path="url(#clip940)" d="M1336.91 41.1664 L1336.91 44.2914 L1307.54 44.2914 Q1307.95 50.8886 1311.49 54.3608 Q1315.07 57.7983 1321.43 57.7983 Q1325.11 57.7983 1328.54 56.8955 Q1332.02 55.9928 1335.42 54.1872 L1335.42 60.2288 Q1331.98 61.6872 1328.37 62.4511 Q1324.76 63.2149 1321.04 63.2149 Q1311.74 63.2149 1306.29 57.7983 Q1300.87 52.3817 1300.87 43.1456 Q1300.87 33.597 1306.01 28.0068 Q1311.18 22.3818 1319.93 22.3818 Q1327.78 22.3818 1332.33 27.4512 Q1336.91 32.4859 1336.91 41.1664 M1330.52 39.2915 Q1330.45 34.0484 1327.57 30.9234 Q1324.72 27.7985 1320 27.7985 Q1314.65 27.7985 1311.43 30.8193 Q1308.23 33.8401 1307.74 39.3262 L1330.52 39.2915 Z" fill="#000000" fill-rule="nonzero" fill-opacity="1" /><path clip-path="url(#clip940)" d="M1369.93 29.2915 Q1368.86 28.6665 1367.57 28.3887 Q1366.32 28.0762 1364.79 28.0762 Q1359.38 28.0762 1356.46 31.6179 Q1353.58 35.1248 1353.58 41.722 L1353.58 62.208 L1347.15 62.208 L1347.15 23.3193 L1353.58 23.3193 L1353.58 29.361 Q1355.59 25.8193 1358.82 24.1179 Q1362.05 22.3818 1366.67 22.3818 Q1367.33 22.3818 1368.13 22.486 Q1368.93 22.5554 1369.9 22.729 L1369.93 29.2915 Z" fill="#000000" fill-rule="nonzero" fill-opacity="1" /><path clip-path="url(#clip940)" d="M1394.31 42.6595 Q1386.56 42.6595 1383.58 44.4303 Q1380.59 46.2011 1380.59 50.472 Q1380.59 53.8747 1382.81 55.8886 Q1385.07 57.8677 1388.93 57.8677 Q1394.24 57.8677 1397.43 54.1178 Q1400.66 50.3331 1400.66 44.0831 L1400.66 42.6595 L1394.31 42.6595 M1407.05 40.0206 L1407.05 62.208 L1400.66 62.208 L1400.66 56.3053 Q1398.47 59.8469 1395.21 61.5483 Q1391.95 63.2149 1387.22 63.2149 Q1381.25 63.2149 1377.71 59.8816 Q1374.2 56.5136 1374.2 50.8886 Q1374.2 44.3262 1378.58 40.9928 Q1382.99 37.6595 1391.7 37.6595 L1400.66 37.6595 L1400.66 37.0345 Q1400.66 32.6248 1397.74 30.229 Q1394.86 27.7985 1389.62 27.7985 Q1386.29 27.7985 1383.13 28.5971 Q1379.97 29.3957 1377.05 30.9929 L1377.05 25.0901 Q1380.56 23.736 1383.86 23.0763 Q1387.15 22.3818 1390.28 22.3818 Q1398.72 22.3818 1402.88 26.7568 Q1407.05 31.1318 1407.05 40.0206 Z" fill="#000000" fill-rule="nonzero" fill-opacity="1" /><path clip-path="url(#clip940)" d="M1445.8 29.2221 L1445.8 8.18051 L1452.19 8.18051 L1452.19 62.208 L1445.8 62.208 L1445.8 56.3747 Q1443.79 59.8469 1440.7 61.5483 Q1437.64 63.2149 1433.33 63.2149 Q1426.29 63.2149 1421.84 57.59 Q1417.43 51.965 1417.43 42.7984 Q1417.43 33.6318 1421.84 28.0068 Q1426.29 22.3818 1433.33 22.3818 Q1437.64 22.3818 1440.7 24.0832 Q1443.79 25.7499 1445.8 29.2221 M1424.03 42.7984 Q1424.03 49.847 1426.91 53.8747 Q1429.83 57.8677 1434.9 57.8677 Q1439.97 57.8677 1442.88 53.8747 Q1445.8 49.847 1445.8 42.7984 Q1445.8 35.7498 1442.88 31.7568 Q1439.97 27.729 1434.9 27.729 Q1429.83 27.729 1426.91 31.7568 Q1424.03 35.7498 1424.03 42.7984 Z" fill="#000000" fill-rule="nonzero" fill-opacity="1" /><path clip-path="url(#clip940)" d="M1480.42 27.7985 Q1475.28 27.7985 1472.29 31.8262 Q1469.31 35.8193 1469.31 42.7984 Q1469.31 49.7775 1472.26 53.8053 Q1475.24 57.7983 1480.42 57.7983 Q1485.52 57.7983 1488.51 53.7705 Q1491.49 49.7428 1491.49 42.7984 Q1491.49 35.8887 1488.51 31.8609 Q1485.52 27.7985 1480.42 27.7985 M1480.42 22.3818 Q1488.75 22.3818 1493.51 27.7985 Q1498.26 33.2151 1498.26 42.7984 Q1498.26 52.3469 1493.51 57.7983 Q1488.75 63.2149 1480.42 63.2149 Q1472.05 63.2149 1467.29 57.7983 Q1462.57 52.3469 1462.57 42.7984 Q1462.57 33.2151 1467.29 27.7985 Q1472.05 22.3818 1480.42 22.3818 Z" fill="#000000" fill-rule="nonzero" fill-opacity="1" /><path clip-path="url(#clip940)" d="M1564.72 41.1664 L1564.72 44.2914 L1535.35 44.2914 Q1535.76 50.8886 1539.31 54.3608 Q1542.88 57.7983 1549.24 57.7983 Q1552.92 57.7983 1556.35 56.8955 Q1559.83 55.9928 1563.23 54.1872 L1563.23 60.2288 Q1559.79 61.6872 1556.18 62.4511 Q1552.57 63.2149 1548.85 63.2149 Q1539.55 63.2149 1534.1 57.7983 Q1528.68 52.3817 1528.68 43.1456 Q1528.68 33.597 1533.82 28.0068 Q1538.99 22.3818 1547.74 22.3818 Q1555.59 22.3818 1560.14 27.4512 Q1564.72 32.4859 1564.72 41.1664 M1558.33 39.2915 Q1558.26 34.0484 1555.38 30.9234 Q1552.54 27.7985 1547.81 27.7985 Q1542.47 27.7985 1539.24 30.8193 Q1536.04 33.8401 1535.56 39.3262 L1558.33 39.2915 Z" fill="#000000" fill-rule="nonzero" fill-opacity="1" /><path clip-path="url(#clip940)" d="M1597.81 23.3193 L1604.2 23.3193 L1604.2 62.208 L1597.81 62.208 L1597.81 23.3193 M1597.81 8.18051 L1604.2 8.18051 L1604.2 16.2707 L1597.81 16.2707 L1597.81 8.18051 Z" fill="#000000" fill-rule="nonzero" fill-opacity="1" /><path clip-path="url(#clip940)" d="M1649.9 38.7359 L1649.9 62.208 L1643.51 62.208 L1643.51 38.9442 Q1643.51 33.4234 1641.35 30.6804 Q1639.2 27.9374 1634.9 27.9374 Q1629.72 27.9374 1626.74 31.2359 Q1623.75 34.5345 1623.75 40.229 L1623.75 62.208 L1617.33 62.208 L1617.33 23.3193 L1623.75 23.3193 L1623.75 29.361 Q1626.04 25.854 1629.13 24.1179 Q1632.26 22.3818 1636.32 22.3818 Q1643.02 22.3818 1646.46 26.5485 Q1649.9 30.6804 1649.9 38.7359 Z" fill="#000000" fill-rule="nonzero" fill-opacity="1" /><path clip-path="url(#clip940)" d="M1668.96 12.2777 L1668.96 23.3193 L1682.12 23.3193 L1682.12 28.2846 L1668.96 28.2846 L1668.96 49.3956 Q1668.96 54.1525 1670.24 55.5066 Q1671.56 56.8608 1675.56 56.8608 L1682.12 56.8608 L1682.12 62.208 L1675.56 62.208 Q1668.16 62.208 1665.35 59.465 Q1662.53 56.6872 1662.53 49.3956 L1662.53 28.2846 L1657.85 28.2846 L1657.85 23.3193 L1662.53 23.3193 L1662.53 12.2777 L1668.96 12.2777 Z" fill="#000000" fill-rule="nonzero" fill-opacity="1" /><path clip-path="url(#clip940)" d="M1723.78 41.1664 L1723.78 44.2914 L1694.41 44.2914 Q1694.83 50.8886 1698.37 54.3608 Q1701.94 57.7983 1708.3 57.7983 Q1711.98 57.7983 1715.42 56.8955 Q1718.89 55.9928 1722.29 54.1872 L1722.29 60.2288 Q1718.85 61.6872 1715.24 62.4511 Q1711.63 63.2149 1707.92 63.2149 Q1698.61 63.2149 1693.16 57.7983 Q1687.74 52.3817 1687.74 43.1456 Q1687.74 33.597 1692.88 28.0068 Q1698.06 22.3818 1706.81 22.3818 Q1714.65 22.3818 1719.2 27.4512 Q1723.78 32.4859 1723.78 41.1664 M1717.4 39.2915 Q1717.33 34.0484 1714.44 30.9234 Q1711.6 27.7985 1706.87 27.7985 Q1701.53 27.7985 1698.3 30.8193 Q1695.1 33.8401 1694.62 39.3262 L1717.4 39.2915 Z" fill="#000000" fill-rule="nonzero" fill-opacity="1" /><path clip-path="url(#clip940)" d="M1756.81 29.2915 Q1755.73 28.6665 1754.44 28.3887 Q1753.19 28.0762 1751.67 28.0762 Q1746.25 28.0762 1743.33 31.6179 Q1740.45 35.1248 1740.45 41.722 L1740.45 62.208 L1734.03 62.208 L1734.03 23.3193 L1740.45 23.3193 L1740.45 29.361 Q1742.46 25.8193 1745.69 24.1179 Q1748.92 22.3818 1753.54 22.3818 Q1754.2 22.3818 1755 22.486 Q1755.8 22.5554 1756.77 22.729 L1756.81 29.2915 Z" fill="#000000" fill-rule="nonzero" fill-opacity="1" /><path clip-path="url(#clip940)" d="M1758.92 23.3193 L1765.69 23.3193 L1777.85 55.958 L1790 23.3193 L1796.77 23.3193 L1782.19 62.208 L1773.51 62.208 L1758.92 23.3193 Z" fill="#000000" fill-rule="nonzero" fill-opacity="1" /><path clip-path="url(#clip940)" d="M1823.26 42.6595 Q1815.52 42.6595 1812.53 44.4303 Q1809.55 46.2011 1809.55 50.472 Q1809.55 53.8747 1811.77 55.8886 Q1814.03 57.8677 1817.88 57.8677 Q1823.19 57.8677 1826.39 54.1178 Q1829.62 50.3331 1829.62 44.0831 L1829.62 42.6595 L1823.26 42.6595 M1836.01 40.0206 L1836.01 62.208 L1829.62 62.208 L1829.62 56.3053 Q1827.43 59.8469 1824.17 61.5483 Q1820.9 63.2149 1816.18 63.2149 Q1810.21 63.2149 1806.67 59.8816 Q1803.16 56.5136 1803.16 50.8886 Q1803.16 44.3262 1807.53 40.9928 Q1811.94 37.6595 1820.66 37.6595 L1829.62 37.6595 L1829.62 37.0345 Q1829.62 32.6248 1826.7 30.229 Q1823.82 27.7985 1818.58 27.7985 Q1815.24 27.7985 1812.08 28.5971 Q1808.92 29.3957 1806.01 30.9929 L1806.01 25.0901 Q1809.51 23.736 1812.81 23.0763 Q1816.11 22.3818 1819.24 22.3818 Q1827.67 22.3818 1831.84 26.7568 Q1836.01 31.1318 1836.01 40.0206 Z" fill="#000000" fill-rule="nonzero" fill-opacity="1" /><path clip-path="url(#clip940)" d="M1849.17 8.18051 L1855.55 8.18051 L1855.55 62.208 L1849.17 62.208 L1849.17 8.18051 Z" fill="#000000" fill-rule="nonzero" fill-opacity="1" /><path clip-path="url(#clip940)" d="M1883.99 27.7985 Q1878.85 27.7985 1875.87 31.8262 Q1872.88 35.8193 1872.88 42.7984 Q1872.88 49.7775 1875.83 53.8053 Q1878.82 57.7983 1883.99 57.7983 Q1889.1 57.7983 1892.08 53.7705 Q1895.07 49.7428 1895.07 42.7984 Q1895.07 35.8887 1892.08 31.8609 Q1889.1 27.7985 1883.99 27.7985 M1883.99 22.3818 Q1892.33 22.3818 1897.08 27.7985 Q1901.84 33.2151 1901.84 42.7984 Q1901.84 52.3469 1897.08 57.7983 Q1892.33 63.2149 1883.99 63.2149 Q1875.62 63.2149 1870.87 57.7983 Q1866.14 52.3469 1866.14 42.7984 Q1866.14 33.2151 1870.87 27.7985 Q1875.62 22.3818 1883.99 22.3818 Z" fill="#000000" fill-rule="nonzero" fill-opacity="1" /><path clip-path="url(#clip940)" d="M1937.22 24.4651 L1937.22 30.5068 Q1934.51 29.1179 1931.6 28.4235 Q1928.68 27.729 1925.55 27.729 Q1920.8 27.729 1918.4 29.1873 Q1916.04 30.6457 1916.04 33.5623 Q1916.04 35.7845 1917.74 37.0692 Q1919.44 38.3192 1924.58 39.4651 L1926.77 39.9512 Q1933.57 41.4095 1936.42 44.0831 Q1939.3 46.722 1939.3 51.4789 Q1939.3 56.8955 1935 60.0552 Q1930.73 63.2149 1923.23 63.2149 Q1920.1 63.2149 1916.7 62.5899 Q1913.33 61.9997 1909.58 60.7844 L1909.58 54.1872 Q1913.12 56.0275 1916.56 56.965 Q1920 57.8677 1923.37 57.8677 Q1927.88 57.8677 1930.31 56.34 Q1932.74 54.7775 1932.74 51.965 Q1932.74 49.3608 1930.97 47.972 Q1929.23 46.5831 1923.3 45.2984 L1921.08 44.7775 Q1915.14 43.5275 1912.5 40.9581 Q1909.86 38.354 1909.86 33.8401 Q1909.86 28.354 1913.75 25.3679 Q1917.64 22.3818 1924.79 22.3818 Q1928.33 22.3818 1931.46 22.9027 Q1934.58 23.4235 1937.22 24.4651 Z" fill="#000000" fill-rule="nonzero" fill-opacity="1" /><path clip-path="url(#clip940)" d="M1997.67 29.2221 L1997.67 8.18051 L2004.06 8.18051 L2004.06 62.208 L1997.67 62.208 L1997.67 56.3747 Q1995.66 59.8469 1992.57 61.5483 Q1989.51 63.2149 1985.21 63.2149 Q1978.16 63.2149 1973.71 57.59 Q1969.3 51.965 1969.3 42.7984 Q1969.3 33.6318 1973.71 28.0068 Q1978.16 22.3818 1985.21 22.3818 Q1989.51 22.3818 1992.57 24.0832 Q1995.66 25.7499 1997.67 29.2221 M1975.9 42.7984 Q1975.9 49.847 1978.78 53.8747 Q1981.7 57.8677 1986.77 57.8677 Q1991.84 57.8677 1994.76 53.8747 Q1997.67 49.847 1997.67 42.7984 Q1997.67 35.7498 1994.76 31.7568 Q1991.84 27.729 1986.77 27.729 Q1981.7 27.729 1978.78 31.7568 Q1975.9 35.7498 1975.9 42.7984 Z" fill="#000000" fill-rule="nonzero" fill-opacity="1" /><path clip-path="url(#clip940)" d="M2050.48 41.1664 L2050.48 44.2914 L2021.11 44.2914 Q2021.53 50.8886 2025.07 54.3608 Q2028.64 57.7983 2035 57.7983 Q2038.68 57.7983 2042.12 56.8955 Q2045.59 55.9928 2048.99 54.1872 L2048.99 60.2288 Q2045.55 61.6872 2041.94 62.4511 Q2038.33 63.2149 2034.62 63.2149 Q2025.31 63.2149 2019.86 57.7983 Q2014.44 52.3817 2014.44 43.1456 Q2014.44 33.597 2019.58 28.0068 Q2024.76 22.3818 2033.5 22.3818 Q2041.35 22.3818 2045.9 27.4512 Q2050.48 32.4859 2050.48 41.1664 M2044.1 39.2915 Q2044.03 34.0484 2041.14 30.9234 Q2038.3 27.7985 2033.57 27.7985 Q2028.23 27.7985 2025 30.8193 Q2021.8 33.8401 2021.32 39.3262 L2044.1 39.2915 Z" fill="#000000" fill-rule="nonzero" fill-opacity="1" /><path clip-path="url(#clip940)" d="M2111.56 24.8124 L2111.56 30.7846 Q2108.85 29.2915 2106.11 28.5623 Q2103.4 27.7985 2100.62 27.7985 Q2094.41 27.7985 2090.97 31.7568 Q2087.53 35.6804 2087.53 42.7984 Q2087.53 49.9164 2090.97 53.8747 Q2094.41 57.7983 2100.62 57.7983 Q2103.4 57.7983 2106.11 57.0691 Q2108.85 56.3053 2111.56 54.8122 L2111.56 60.715 Q2108.89 61.9649 2106 62.5899 Q2103.16 63.2149 2099.93 63.2149 Q2091.14 63.2149 2085.97 57.6941 Q2080.8 52.1733 2080.8 42.7984 Q2080.8 33.2845 2086 27.8332 Q2091.25 22.3818 2100.34 22.3818 Q2103.3 22.3818 2106.11 23.0068 Q2108.92 23.5971 2111.56 24.8124 Z" fill="#000000" fill-rule="nonzero" fill-opacity="1" /><path clip-path="url(#clip940)" d="M2137.74 27.7985 Q2132.6 27.7985 2129.62 31.8262 Q2126.63 35.8193 2126.63 42.7984 Q2126.63 49.7775 2129.58 53.8053 Q2132.57 57.7983 2137.74 57.7983 Q2142.84 57.7983 2145.83 53.7705 Q2148.82 49.7428 2148.82 42.7984 Q2148.82 35.8887 2145.83 31.8609 Q2142.84 27.7985 2137.74 27.7985 M2137.74 22.3818 Q2146.07 22.3818 2150.83 27.7985 Q2155.59 33.2151 2155.59 42.7984 Q2155.59 52.3469 2150.83 57.7983 Q2146.07 63.2149 2137.74 63.2149 Q2129.37 63.2149 2124.62 57.7983 Q2119.89 52.3469 2119.89 42.7984 Q2119.89 33.2151 2124.62 27.7985 Q2129.37 22.3818 2137.74 22.3818 Z" fill="#000000" fill-rule="nonzero" fill-opacity="1" /><path clip-path="url(#clip940)" d="M2198.5 38.7359 L2198.5 62.208 L2192.12 62.208 L2192.12 38.9442 Q2192.12 33.4234 2189.96 30.6804 Q2187.81 27.9374 2183.5 27.9374 Q2178.33 27.9374 2175.34 31.2359 Q2172.36 34.5345 2172.36 40.229 L2172.36 62.208 L2165.93 62.208 L2165.93 23.3193 L2172.36 23.3193 L2172.36 29.361 Q2174.65 25.854 2177.74 24.1179 Q2180.87 22.3818 2184.93 22.3818 Q2191.63 22.3818 2195.07 26.5485 Q2198.5 30.6804 2198.5 38.7359 Z" fill="#000000" fill-rule="nonzero" fill-opacity="1" /><path clip-path="url(#clip940)" d="M2230.93 8.18051 L2230.93 13.493 L2224.82 13.493 Q2221.39 13.493 2220.03 14.8819 Q2218.71 16.2707 2218.71 19.8818 L2218.71 23.3193 L2229.23 23.3193 L2229.23 28.2846 L2218.71 28.2846 L2218.71 62.208 L2212.29 62.208 L2212.29 28.2846 L2206.18 28.2846 L2206.18 23.3193 L2212.29 23.3193 L2212.29 20.611 Q2212.29 14.118 2215.31 11.1666 Q2218.33 8.18051 2224.89 8.18051 L2230.93 8.18051 Z" fill="#000000" fill-rule="nonzero" fill-opacity="1" /><path clip-path="url(#clip940)" d="M2236.28 23.3193 L2242.67 23.3193 L2242.67 62.208 L2236.28 62.208 L2236.28 23.3193 M2236.28 8.18051 L2242.67 8.18051 L2242.67 16.2707 L2236.28 16.2707 L2236.28 8.18051 Z" fill="#000000" fill-rule="nonzero" fill-opacity="1" /><path clip-path="url(#clip940)" d="M2273.71 42.6595 Q2265.97 42.6595 2262.98 44.4303 Q2260 46.2011 2260 50.472 Q2260 53.8747 2262.22 55.8886 Q2264.48 57.8677 2268.33 57.8677 Q2273.64 57.8677 2276.84 54.1178 Q2280.07 50.3331 2280.07 44.0831 L2280.07 42.6595 L2273.71 42.6595 M2286.45 40.0206 L2286.45 62.208 L2280.07 62.208 L2280.07 56.3053 Q2277.88 59.8469 2274.61 61.5483 Q2271.35 63.2149 2266.63 63.2149 Q2260.66 63.2149 2257.11 59.8816 Q2253.61 56.5136 2253.61 50.8886 Q2253.61 44.3262 2257.98 40.9928 Q2262.39 37.6595 2271.11 37.6595 L2280.07 37.6595 L2280.07 37.0345 Q2280.07 32.6248 2277.15 30.229 Q2274.27 27.7985 2269.02 27.7985 Q2265.69 27.7985 2262.53 28.5971 Q2259.37 29.3957 2256.46 30.9929 L2256.46 25.0901 Q2259.96 23.736 2263.26 23.0763 Q2266.56 22.3818 2269.68 22.3818 Q2278.12 22.3818 2282.29 26.7568 Q2286.45 31.1318 2286.45 40.0206 Z" fill="#000000" fill-rule="nonzero" fill-opacity="1" /><path clip-path="url(#clip940)" d="M2331.94 38.7359 L2331.94 62.208 L2325.55 62.208 L2325.55 38.9442 Q2325.55 33.4234 2323.4 30.6804 Q2321.25 27.9374 2316.94 27.9374 Q2311.77 27.9374 2308.78 31.2359 Q2305.8 34.5345 2305.8 40.229 L2305.8 62.208 L2299.37 62.208 L2299.37 23.3193 L2305.8 23.3193 L2305.8 29.361 Q2308.09 25.854 2311.18 24.1179 Q2314.3 22.3818 2318.36 22.3818 Q2325.07 22.3818 2328.5 26.5485 Q2331.94 30.6804 2331.94 38.7359 Z" fill="#000000" fill-rule="nonzero" fill-opacity="1" /><path clip-path="url(#clip940)" d="M2372.67 24.8124 L2372.67 30.7846 Q2369.96 29.2915 2367.22 28.5623 Q2364.51 27.7985 2361.73 27.7985 Q2355.52 27.7985 2352.08 31.7568 Q2348.64 35.6804 2348.64 42.7984 Q2348.64 49.9164 2352.08 53.8747 Q2355.52 57.7983 2361.73 57.7983 Q2364.51 57.7983 2367.22 57.0691 Q2369.96 56.3053 2372.67 54.8122 L2372.67 60.715 Q2370 61.9649 2367.11 62.5899 Q2364.27 63.2149 2361.04 63.2149 Q2352.25 63.2149 2347.08 57.6941 Q2341.91 52.1733 2341.91 42.7984 Q2341.91 33.2845 2347.11 27.8332 Q2352.36 22.3818 2361.45 22.3818 Q2364.41 22.3818 2367.22 23.0068 Q2370.03 23.5971 2372.67 24.8124 M2363.64 62.208 Q2365.55 64.3608 2366.49 66.1663 Q2367.43 68.0066 2367.43 69.6732 Q2367.43 72.7635 2365.34 74.326 Q2363.26 75.9232 2359.16 75.9232 Q2357.57 75.9232 2356.04 75.7149 Q2354.54 75.5065 2353.05 75.0899 L2353.05 70.5413 Q2354.23 71.1316 2355.52 71.3746 Q2356.8 71.6524 2358.43 71.6524 Q2360.48 71.6524 2361.52 70.8191 Q2362.57 69.9857 2362.57 68.3885 Q2362.57 67.3469 2361.8 65.8191 Q2361.07 64.326 2359.51 62.208 L2363.64 62.208 Z" fill="#000000" fill-rule="nonzero" fill-opacity="1" /><path clip-path="url(#clip940)" d="M2401.45 42.6595 Q2393.71 42.6595 2390.73 44.4303 Q2387.74 46.2011 2387.74 50.472 Q2387.74 53.8747 2389.96 55.8886 Q2392.22 57.8677 2396.07 57.8677 Q2401.38 57.8677 2404.58 54.1178 Q2407.81 50.3331 2407.81 44.0831 L2407.81 42.6595 L2401.45 42.6595 M2414.2 40.0206 L2414.2 62.208 L2407.81 62.208 L2407.81 56.3053 Q2405.62 59.8469 2402.36 61.5483 Q2399.09 63.2149 2394.37 63.2149 Q2388.4 63.2149 2384.86 59.8816 Q2381.35 56.5136 2381.35 50.8886 Q2381.35 44.3262 2385.73 40.9928 Q2390.13 37.6595 2398.85 37.6595 L2407.81 37.6595 L2407.81 37.0345 Q2407.81 32.6248 2404.89 30.229 Q2402.01 27.7985 2396.77 27.7985 Q2393.43 27.7985 2390.27 28.5971 Q2387.11 29.3957 2384.2 30.9929 L2384.2 25.0901 Q2387.7 23.736 2391 23.0763 Q2394.3 22.3818 2397.43 22.3818 Q2405.86 22.3818 2410.03 26.7568 Q2414.2 31.1318 2414.2 40.0206 Z" fill="#000000" fill-rule="nonzero" fill-opacity="1" /><path clip-path="url(#clip942)" d="M316.418 2145.95 L330.256 2125.6 L344.094 2104.13 L357.932 2081.54 L371.769 2057.79 L385.607 2032.86 L399.445 2006.75 L413.283 1979.44 L427.121 1950.92 L440.958 1921.05 L454.796 1889.9 L468.634 1857.56 L482.472 1824.05 L496.31 1789.42 L510.148 1753.7 L523.985 1717 L537.823 1679.34 L551.661 1640.85 L565.499 1601.71 L579.337 1561.87 L593.174 1521.43 L607.012 1480.49 L620.85 1439.16 L634.688 1397.47 L648.526 1355.43 L662.364 1313.32 L676.201 1271.28 L690.039 1229.41 L703.877 1187.84 L717.715 1146.67 L731.553 1106.27 L745.39 1066.81 L759.228 1028.18 L773.066 990.239 L786.904 952.683 L800.742 916.285 L814.58 880.981 L828.417 846.651 L842.255 813.416 L856.093 781.573 L869.931 751.215 L883.769 722.583 L897.606 695.219 L911.444 668.422 L925.282 642.772 L939.12 618.407 L952.958 594.334 L966.796 572.428 L980.633 551.772 L994.471 531.17 L1008.31 511.795 L1022.15 494.125 L1035.98 477.474 L1049.82 462.114 L1063.66 448.209 L1077.5 435.165 L1091.34 422.942 L1105.17 411.497 L1119.01 400.81 L1132.85 390.812 L1146.69 381.45 L1160.53 372.545 L1174.36 363.996 L1188.2 356.802 L1202.04 349.784 L1215.88 343.583 L1229.71 337.439 L1243.55 332.314 L1257.39 327.518 L1271.23 323.054 L1285.07 318.522 L1298.9 314.015 L1312.74 309.735 L1326.58 305.75 L1340.42 302.157 L1354.25 299.149 L1368.09 296.346 L1381.93 293.731 L1395.77 291.291 L1409.61 289.054 L1423.44 286.982 L1437.28 285.056 L1451.12 283.267 L1464.96 281.609 L1478.79 279.987 L1492.63 278.506 L1506.47 277.201 L1520.31 275.944 L1534.15 274.773 L1547.98 273.7 L1561.82 272.546 L1575.66 271.5 L1589.5 270.594 L1603.34 269.768 L1617.17 269.065 L1631.01 268.411 L1644.85 267.806 L1658.69 267.245 L1672.52 266.694 L1686.36 266.169 L1700.2 265.684 L1714.04 265.235 L1727.88 264.82 L1741.71 264.437 L1755.55 264.081 L1769.39 263.75 L1783.23 263.442 L1797.06 263.154 L1810.9 262.883 L1824.74 262.63 L1838.58 262.392 L1852.42 262.171 L1866.25 261.965 L1880.09 261.774 L1893.93 261.598 L1907.77 261.434 L1921.61 261.284 L1935.44 261.147 L1949.28 261.02 L1963.12 260.905 L1976.96 260.8 L1990.79 260.703 L2004.63 260.615 L2018.47 260.535 L2032.31 260.461 L2046.15 260.393 L2059.98 260.329 L2073.82 260.269 L2087.66 260.211 L2101.5 260.155 L2115.33 260.1 L2129.17 260.049 L2143.01 260.001 L2156.85 259.956 L2170.69 259.914 L2184.52 259.875 L2198.36 259.839 L2212.2 259.806 L2226.04 259.775 L2239.87 259.748 L2253.71 259.722 L2267.55 259.699 L2281.39 259.679 L2295.23 259.66 L2309.06 259.644 L2322.9 259.629 L2336.74 259.616 L2350.58 259.604 L2364.42 259.594 L2378.25 259.584 L2392.09 259.575 L2405.93 259.566 L2419.77 259.557 L2433.6 259.548 L2447.44 259.539 L2461.28 259.53 L2475.12 259.52 L2488.96 259.511 L2502.79 259.503 L2516.63 259.495 L2530.47 259.487 L2544.31 259.48 L2558.14 259.473 L2571.98 259.466 L2585.82 259.461 L2599.66 259.456 L2613.5 259.451 L2627.33 259.447 L2641.17 259.444 L2655.01 259.441 L2668.85 259.439 L2682.69 259.437 L2696.52 259.436 L2710.36 259.435 L2724.2 259.435 L2738.04 259.435 L2751.87 259.435 L2765.71 259.435 L2779.55 259.436 L2793.39 259.437 L2807.23 259.438 L2821.06 259.438 L2834.9 259.439 L2848.74 259.439 L2862.58 259.439 L2876.41 259.438 L2890.25 259.437 L2904.09 259.436 L2917.93 259.434 L2931.77 259.433 L2945.6 259.432 L2959.44 259.43 L2973.28 259.429 L2987.12 259.428 L3000.96 259.427 L3014.79 259.426 L3028.63 259.426 L3042.47 259.425 L3056.31 259.424 L3070.14 259.423 L3070.14 180.282 L3056.31 180.283 L3042.47 180.283 L3028.63 180.284 L3014.79 180.285 L3000.96 180.286 L2987.12 180.286 L2973.28 180.287 L2959.44 180.288 L2945.6 180.289 L2931.77 180.291 L2917.93 180.292 L2904.09 180.293 L2890.25 180.295 L2876.41 180.296 L2862.58 180.297 L2848.74 180.297 L2834.9 180.297 L2821.06 180.296 L2807.23 180.296 L2793.39 180.295 L2779.55 180.294 L2765.71 180.293 L2751.87 180.293 L2738.04 180.292 L2724.2 180.292 L2710.36 180.292 L2696.52 180.292 L2682.69 180.293 L2668.85 180.295 L2655.01 180.296 L2641.17 180.299 L2627.33 180.302 L2613.5 180.305 L2599.66 180.309 L2585.82 180.313 L2571.98 180.318 L2558.14 180.324 L2544.31 180.33 L2530.47 180.337 L2516.63 180.344 L2502.79 180.351 L2488.96 180.359 L2475.12 180.367 L2461.28 180.375 L2447.44 180.384 L2433.6 180.393 L2419.77 180.401 L2405.93 180.409 L2392.09 180.417 L2378.25 180.424 L2364.42 180.433 L2350.58 180.441 L2336.74 180.451 L2322.9 180.462 L2309.06 180.474 L2295.23 180.488 L2281.39 180.504 L2267.55 180.522 L2253.71 180.541 L2239.87 180.563 L2226.04 180.587 L2212.2 180.614 L2198.36 180.644 L2184.52 180.676 L2170.69 180.711 L2156.85 180.748 L2143.01 180.789 L2129.17 180.832 L2115.33 180.878 L2101.5 180.927 L2087.66 180.978 L2073.82 181.032 L2059.98 181.087 L2046.15 181.145 L2032.31 181.207 L2018.47 181.273 L2004.63 181.345 L1990.79 181.423 L1976.96 181.508 L1963.12 181.602 L1949.28 181.704 L1935.44 181.816 L1921.61 181.939 L1907.77 182.073 L1893.93 182.218 L1880.09 182.376 L1866.25 182.548 L1852.42 182.733 L1838.58 182.932 L1824.74 183.146 L1810.9 183.376 L1797.06 183.621 L1783.23 183.883 L1769.39 184.161 L1755.55 184.459 L1741.71 184.779 L1727.88 185.125 L1714.04 185.498 L1700.2 185.902 L1686.36 186.339 L1672.52 186.813 L1658.69 187.327 L1644.85 187.882 L1631.01 188.52 L1617.17 189.24 L1603.34 190.015 L1589.5 190.851 L1575.66 191.75 L1561.82 192.701 L1547.98 193.673 L1534.15 194.708 L1520.31 195.821 L1506.47 197.021 L1492.63 198.317 L1478.79 199.718 L1464.96 201.234 L1451.12 202.872 L1437.28 204.642 L1423.44 206.496 L1409.61 208.423 L1395.77 210.321 L1381.93 212.365 L1368.09 214.567 L1354.25 216.934 L1340.42 219.829 L1326.58 223.33 L1312.74 226.435 L1298.9 229.629 L1285.07 233.362 L1271.23 237.418 L1257.39 242.02 L1243.55 247.052 L1229.71 252.455 L1215.88 258.24 L1202.04 264.447 L1188.2 271.101 L1174.36 277.54 L1160.53 284.35 L1146.69 291.313 L1132.85 298.454 L1119.01 306.301 L1105.17 315.062 L1091.34 324.53 L1077.5 334.729 L1063.66 345.25 L1049.82 356.115 L1035.98 367.96 L1022.15 381.464 L1008.31 394.856 L994.471 409.622 L980.633 424.746 L966.796 441.238 L952.958 459.189 L939.12 478.107 L925.282 498.115 L911.444 519.724 L897.606 542.047 L883.769 565.407 L869.931 589.968 L856.093 614.924 L842.255 640.097 L828.417 666.362 L814.58 694.466 L800.742 723.992 L786.904 753.904 L773.066 785.019 L759.228 817.316 L745.39 850.768 L731.553 885.337 L717.715 920.616 L703.877 957.254 L690.039 995.345 L676.201 1034.28 L662.364 1073.83 L648.526 1113.78 L634.688 1154.41 L620.85 1195.67 L607.012 1236.86 L593.174 1278.61 L579.337 1320.52 L565.499 1362.49 L551.661 1404.36 L537.823 1445.79 L523.985 1487.33 L510.148 1528.26 L496.31 1568.96 L482.472 1608.89 L468.634 1647.94 L454.796 1686.27 L440.958 1724.16 L427.121 1760.97 L413.283 1796.36 L399.445 1830.62 L385.607 1863.77 L371.769 1895.76 L357.932 1926.56 L344.094 1956.15 L330.256 1984.7 L316.418 2012.03  Z" fill="#009af9" fill-rule="evenodd" fill-opacity="0.2"/>
<polyline clip-path="url(#clip942)" style="stroke:#009af9; stroke-linecap:round; stroke-linejoin:round; stroke-width:12; stroke-opacity:1; fill:none" points="316.418,2082.43 330.256,2058.52 344.094,2033.36 357.932,2006.98 371.769,1979.36 385.607,1950.5 399.445,1920.41 413.283,1889.09 427.121,1856.56 440.958,1822.84 454.796,1787.98 468.634,1752.36 482.472,1715.79 496.31,1678.28 510.148,1639.97 523.985,1600.89 537.823,1561.13 551.661,1520.81 565.499,1480.23 579.337,1438.71 593.174,1396.83 607.012,1354.9 620.85,1313.16 634.688,1271.5 648.526,1230.06 662.364,1188.93 676.201,1148.25 690.039,1108.34 703.877,1068.6 717.715,1029.84 731.553,991.895 745.39,954.896 759.228,918.783 773.066,883.742 786.904,849.488 800.742,816.256 814.58,784.39 828.417,753.996 842.255,724.104 856.093,694.629 869.931,667.594 883.769,641.052 897.606,615.812 911.444,592.356 925.282,569.334 939.12,547.319 952.958,526.713 966.796,507.694 980.633,489.875 994.471,472.998 1008.31,455.481 1022.15,440.383 1035.98,425.576 1049.82,411.444 1063.66,399.268 1077.5,388.219 1091.34,376.331 1105.17,366.808 1119.01,357.284 1132.85,348.663 1146.69,340.639 1160.53,333.106 1174.36,326.138 1188.2,318.587 1202.04,312.547 1215.88,306.193 1229.71,300.49 1243.55,295.478 1257.39,290.713 1271.23,286.46 1285.07,282.09 1298.9,277.704 1312.74,273.548 1326.58,269.902 1340.42,266.79 1354.25,263.937 1368.09,261.418 1381.93,258.952 1395.77,255.938 1409.61,253.108 1423.44,251.123 1437.28,249.259 1451.12,247.459 1464.96,246.047 1478.79,244.578 1492.63,243.106 1506.47,241.599 1520.31,240.278 1534.15,239.187 1547.98,238.169 1561.82,237.153 1575.66,236.124 1589.5,235.173 1603.34,234.316 1617.17,233.609 1631.01,232.968 1644.85,232.374 1658.69,231.82 1672.52,231.236 1686.36,230.696 1700.2,230.198 1714.04,229.737 1727.88,229.31 1741.71,228.915 1755.55,228.548 1769.39,228.21 1783.23,227.914 1797.06,227.631 1810.9,227.365 1824.74,227.117 1838.58,226.884 1852.42,226.666 1866.25,226.463 1880.09,226.275 1893.93,226.1 1907.77,225.939 1921.61,225.79 1935.44,225.654 1949.28,225.529 1963.12,225.415 1976.96,225.311 1990.79,225.216 2004.63,225.13 2018.47,225.052 2032.31,224.98 2046.15,224.914 2059.98,224.852 2073.82,224.795 2087.66,224.741 2101.5,224.688 2115.33,224.638 2129.17,224.589 2143.01,224.542 2156.85,224.498 2170.69,224.457 2184.52,224.419 2198.36,224.384 2212.2,224.351 2226.04,224.321 2239.87,224.293 2253.71,224.268 2267.55,224.246 2281.39,224.225 2295.23,224.206 2309.06,224.19 2322.9,224.175 2336.74,224.162 2350.58,224.15 2364.42,224.14 2378.25,224.13 2392.09,224.121 2405.93,224.113 2419.77,224.105 2433.6,224.097 2447.44,224.088 2461.28,224.08 2475.12,224.071 2488.96,224.063 2502.79,224.055 2516.63,224.047 2530.47,224.039 2544.31,224.032 2558.14,224.025 2571.98,224.019 2585.82,224.013 2599.66,224.008 2613.5,224.003 2627.33,223.999 2641.17,223.996 2655.01,223.993 2668.85,223.99 2682.69,223.988 2696.52,223.987 2710.36,223.986 2724.2,223.985 2738.04,223.985 2751.87,223.985 2765.71,223.986 2779.55,223.986 2793.39,223.987 2807.23,223.988 2821.06,223.989 2834.9,223.99 2848.74,223.991 2862.58,223.991 2876.41,223.991 2890.25,223.991 2904.09,223.99 2917.93,223.989 2931.77,223.988 2945.6,223.986 2959.44,223.985 2973.28,223.984 2987.12,223.983 3000.96,223.982 3014.79,223.981 3028.63,223.98 3042.47,223.979 3056.31,223.978 3070.14,223.978 "/>
<path clip-path="url(#clip942)" d="M316.418 2124.27 L330.256 2102.71 L344.094 2080.04 L357.932 2056.29 L371.769 2031.38 L385.607 2005.3 L399.445 1977.95 L413.283 1949.39 L427.121 1919.62 L440.958 1888.74 L454.796 1856.71 L468.634 1823.55 L482.472 1789.31 L496.31 1754.02 L510.148 1717.75 L523.985 1680.52 L537.823 1642.38 L551.661 1603.25 L565.499 1563.41 L579.337 1523.22 L593.174 1482.59 L607.012 1441.49 L620.85 1400.01 L634.688 1358.19 L648.526 1316.07 L662.364 1273.91 L676.201 1232.03 L690.039 1190.44 L703.877 1149.26 L717.715 1108.59 L731.553 1068.78 L745.39 1029.7 L759.228 991.016 L773.066 953.62 L786.904 918.097 L800.742 882.774 L814.58 848.499 L828.417 815.168 L842.255 781.971 L856.093 751.436 L869.931 721.589 L883.769 693.015 L897.606 665.184 L911.444 638.951 L925.282 615.26 L939.12 592.107 L952.958 569.803 L966.796 549.548 L980.633 530.622 L994.471 512.386 L1008.31 493.351 L1022.15 476.397 L1035.98 460.529 L1049.82 445.532 L1063.66 430.955 L1077.5 418.47 L1091.34 407.02 L1105.17 396.283 L1119.01 385.698 L1132.85 376.268 L1146.69 366.919 L1160.53 358.859 L1174.36 351.179 L1188.2 344.072 L1202.04 337.342 L1215.88 330.835 L1229.71 324.285 L1243.55 318.274 L1257.39 312.384 L1271.23 308.172 L1285.07 303.845 L1298.9 299.404 L1312.74 295.464 L1326.58 292.098 L1340.42 289.506 L1354.25 286.89 L1368.09 284.005 L1381.93 281.267 L1395.77 278.608 L1409.61 276.133 L1423.44 273.956 L1437.28 271.96 L1451.12 270.122 L1464.96 268.432 L1478.79 266.832 L1492.63 265.547 L1506.47 264.371 L1520.31 263.266 L1534.15 262.353 L1547.98 261.474 L1561.82 260.579 L1575.66 259.653 L1589.5 258.788 L1603.34 257.984 L1617.17 257.327 L1631.01 256.766 L1644.85 256.244 L1658.69 255.76 L1672.52 255.31 L1686.36 254.894 L1700.2 254.51 L1714.04 254.138 L1727.88 253.787 L1741.71 253.463 L1755.55 253.165 L1769.39 252.889 L1783.23 252.634 L1797.06 252.371 L1810.9 252.079 L1824.74 251.852 L1838.58 251.677 L1852.42 251.511 L1866.25 251.355 L1880.09 251.208 L1893.93 251.071 L1907.77 250.94 L1921.61 250.815 L1935.44 250.7 L1949.28 250.593 L1963.12 250.495 L1976.96 250.404 L1990.79 250.304 L2004.63 250.212 L2018.47 250.128 L2032.31 250.052 L2046.15 249.983 L2059.98 249.921 L2073.82 249.861 L2087.66 249.808 L2101.5 249.759 L2115.33 249.715 L2129.17 249.674 L2143.01 249.636 L2156.85 249.6 L2170.69 249.565 L2184.52 249.524 L2198.36 249.482 L2212.2 249.444 L2226.04 249.408 L2239.87 249.374 L2253.71 249.343 L2267.55 249.315 L2281.39 249.288 L2295.23 249.265 L2309.06 249.243 L2322.9 249.224 L2336.74 249.206 L2350.58 249.19 L2364.42 249.176 L2378.25 249.164 L2392.09 249.152 L2405.93 249.142 L2419.77 249.133 L2433.6 249.124 L2447.44 249.116 L2461.28 249.108 L2475.12 249.1 L2488.96 249.091 L2502.79 249.083 L2516.63 249.075 L2530.47 249.067 L2544.31 249.059 L2558.14 249.051 L2571.98 249.044 L2585.82 249.037 L2599.66 249.031 L2613.5 249.025 L2627.33 249.019 L2641.17 249.014 L2655.01 249.01 L2668.85 249.006 L2682.69 249.003 L2696.52 249 L2710.36 248.997 L2724.2 248.996 L2738.04 248.994 L2751.87 248.994 L2765.71 248.993 L2779.55 248.993 L2793.39 248.993 L2807.23 248.994 L2821.06 248.995 L2834.9 248.996 L2848.74 248.997 L2862.58 248.998 L2876.41 248.999 L2890.25 248.999 L2904.09 249 L2917.93 249 L2931.77 248.999 L2945.6 248.998 L2959.44 248.997 L2973.28 248.996 L2987.12 248.995 L3000.96 248.994 L3014.79 248.993 L3028.63 248.992 L3042.47 248.991 L3056.31 248.99 L3070.14 248.99 L3070.14 199.734 L3056.31 199.735 L3042.47 199.735 L3028.63 199.736 L3014.79 199.737 L3000.96 199.738 L2987.12 199.739 L2973.28 199.74 L2959.44 199.741 L2945.6 199.742 L2931.77 199.744 L2917.93 199.745 L2904.09 199.746 L2890.25 199.747 L2876.41 199.749 L2862.58 199.75 L2848.74 199.752 L2834.9 199.753 L2821.06 199.754 L2807.23 199.754 L2793.39 199.754 L2779.55 199.754 L2765.71 199.753 L2751.87 199.753 L2738.04 199.752 L2724.2 199.752 L2710.36 199.752 L2696.52 199.753 L2682.69 199.754 L2668.85 199.755 L2655.01 199.757 L2641.17 199.76 L2627.33 199.763 L2613.5 199.767 L2599.66 199.771 L2585.82 199.776 L2571.98 199.782 L2558.14 199.789 L2544.31 199.796 L2530.47 199.804 L2516.63 199.813 L2502.79 199.822 L2488.96 199.832 L2475.12 199.842 L2461.28 199.853 L2447.44 199.864 L2433.6 199.876 L2419.77 199.888 L2405.93 199.9 L2392.09 199.912 L2378.25 199.924 L2364.42 199.937 L2350.58 199.95 L2336.74 199.964 L2322.9 199.98 L2309.06 199.997 L2295.23 200.016 L2281.39 200.037 L2267.55 200.061 L2253.71 200.087 L2239.87 200.116 L2226.04 200.148 L2212.2 200.182 L2198.36 200.22 L2184.52 200.262 L2170.69 200.306 L2156.85 200.355 L2143.01 200.407 L2129.17 200.462 L2115.33 200.521 L2101.5 200.584 L2087.66 200.65 L2073.82 200.721 L2059.98 200.794 L2046.15 200.871 L2032.31 200.953 L2018.47 201.041 L2004.63 201.136 L1990.79 201.239 L1976.96 201.352 L1963.12 201.475 L1949.28 201.61 L1935.44 201.757 L1921.61 201.918 L1907.77 202.094 L1893.93 202.284 L1880.09 202.491 L1866.25 202.714 L1852.42 202.955 L1838.58 203.215 L1824.74 203.494 L1810.9 203.793 L1797.06 204.113 L1783.23 204.456 L1769.39 204.836 L1755.55 205.224 L1741.71 205.617 L1727.88 206.058 L1714.04 206.467 L1700.2 206.93 L1686.36 207.431 L1672.52 207.972 L1658.69 208.556 L1644.85 209.186 L1631.01 209.864 L1617.17 210.561 L1603.34 211.209 L1589.5 211.916 L1575.66 212.681 L1561.82 213.578 L1547.98 214.362 L1534.15 215.208 L1520.31 216.14 L1506.47 217.17 L1492.63 218.281 L1478.79 219.718 L1464.96 221.438 L1451.12 223.324 L1437.28 225.38 L1423.44 227.098 L1409.61 228.949 L1395.77 231.343 L1381.93 233.937 L1368.09 236.182 L1354.25 238.624 L1340.42 241.474 L1326.58 245.223 L1312.74 248.524 L1298.9 252.196 L1285.07 256.004 L1271.23 260.015 L1257.39 264.335 L1243.55 269.086 L1229.71 274.287 L1215.88 279.631 L1202.04 285.606 L1188.2 292.381 L1174.36 299.268 L1160.53 305.956 L1146.69 313.53 L1132.85 321.618 L1119.01 330.055 L1105.17 338.359 L1091.34 347.263 L1077.5 356.546 L1063.66 366.609 L1049.82 377.894 L1035.98 389.52 L1022.15 402.172 L1008.31 415.998 L994.471 430.872 L980.633 446.196 L966.796 463.57 L952.958 480.748 L939.12 498.618 L925.282 518.229 L911.444 539.444 L897.606 561.696 L883.769 584.223 L869.931 608.095 L856.093 631.971 L842.255 658.027 L828.417 684.87 L814.58 713.147 L800.742 744.668 L786.904 774.905 L773.066 806.368 L759.228 839.458 L745.39 874.61 L731.553 910.335 L717.715 945.749 L703.877 982.432 L690.039 1019.69 L676.201 1057.76 L662.364 1097.31 L648.526 1137.23 L634.688 1177.88 L620.85 1219.36 L607.012 1260.62 L593.174 1302.13 L579.337 1343.9 L565.499 1385.97 L551.661 1427.9 L537.823 1469.51 L523.985 1510.51 L510.148 1551.05 L496.31 1591.35 L482.472 1631.02 L468.634 1669.88 L454.796 1707.59 L440.958 1744.11 L427.121 1779.69 L413.283 1814.24 L399.445 1847.74 L385.607 1880.48 L371.769 1912.06 L357.932 1942.51 L344.094 1971.79 L330.256 1999.81 L316.418 2026.59  Z" fill="#e26f46" fill-rule="evenodd" fill-opacity="0.2"/>
<polyline clip-path="url(#clip942)" style="stroke:#e26f46; stroke-linecap:round; stroke-linejoin:round; stroke-width:12; stroke-opacity:1; fill:none" points="316.418,2082.43 330.256,2058.52 344.094,2033.36 357.932,2006.98 371.769,1979.36 385.607,1950.5 399.445,1920.41 413.283,1889.09 427.121,1856.56 440.958,1822.84 454.796,1787.98 468.634,1752.36 482.472,1715.79 496.31,1678.28 510.148,1639.97 523.985,1600.89 537.823,1561.13 551.661,1520.81 565.499,1480.23 579.337,1438.71 593.174,1396.83 607.012,1354.9 620.85,1313.16 634.688,1271.5 648.526,1230.06 662.364,1188.93 676.201,1148.25 690.039,1108.34 703.877,1068.6 717.715,1029.84 731.553,991.895 745.39,954.896 759.228,918.783 773.066,883.742 786.904,849.488 800.742,816.256 814.58,784.39 828.417,753.996 842.255,724.104 856.093,694.629 869.931,667.594 883.769,641.052 897.606,615.812 911.444,592.356 925.282,569.334 939.12,547.319 952.958,526.713 966.796,507.694 980.633,489.875 994.471,472.998 1008.31,455.481 1022.15,440.383 1035.98,425.576 1049.82,411.444 1063.66,399.268 1077.5,388.219 1091.34,376.331 1105.17,366.808 1119.01,357.284 1132.85,348.663 1146.69,340.639 1160.53,333.106 1174.36,326.138 1188.2,318.587 1202.04,312.547 1215.88,306.193 1229.71,300.49 1243.55,295.478 1257.39,290.713 1271.23,286.46 1285.07,282.09 1298.9,277.704 1312.74,273.548 1326.58,269.902 1340.42,266.79 1354.25,263.937 1368.09,261.418 1381.93,258.952 1395.77,255.938 1409.61,253.108 1423.44,251.123 1437.28,249.259 1451.12,247.459 1464.96,246.047 1478.79,244.578 1492.63,243.106 1506.47,241.599 1520.31,240.278 1534.15,239.187 1547.98,238.169 1561.82,237.153 1575.66,236.124 1589.5,235.173 1603.34,234.316 1617.17,233.609 1631.01,232.968 1644.85,232.374 1658.69,231.82 1672.52,231.236 1686.36,230.696 1700.2,230.198 1714.04,229.737 1727.88,229.31 1741.71,228.915 1755.55,228.548 1769.39,228.21 1783.23,227.914 1797.06,227.631 1810.9,227.365 1824.74,227.117 1838.58,226.884 1852.42,226.666 1866.25,226.463 1880.09,226.275 1893.93,226.1 1907.77,225.939 1921.61,225.79 1935.44,225.654 1949.28,225.529 1963.12,225.415 1976.96,225.311 1990.79,225.216 2004.63,225.13 2018.47,225.052 2032.31,224.98 2046.15,224.914 2059.98,224.852 2073.82,224.795 2087.66,224.741 2101.5,224.688 2115.33,224.638 2129.17,224.589 2143.01,224.542 2156.85,224.498 2170.69,224.457 2184.52,224.419 2198.36,224.384 2212.2,224.351 2226.04,224.321 2239.87,224.293 2253.71,224.268 2267.55,224.246 2281.39,224.225 2295.23,224.206 2309.06,224.19 2322.9,224.175 2336.74,224.162 2350.58,224.15 2364.42,224.14 2378.25,224.13 2392.09,224.121 2405.93,224.113 2419.77,224.105 2433.6,224.097 2447.44,224.088 2461.28,224.08 2475.12,224.071 2488.96,224.063 2502.79,224.055 2516.63,224.047 2530.47,224.039 2544.31,224.032 2558.14,224.025 2571.98,224.019 2585.82,224.013 2599.66,224.008 2613.5,224.003 2627.33,223.999 2641.17,223.996 2655.01,223.993 2668.85,223.99 2682.69,223.988 2696.52,223.987 2710.36,223.986 2724.2,223.985 2738.04,223.985 2751.87,223.985 2765.71,223.986 2779.55,223.986 2793.39,223.987 2807.23,223.988 2821.06,223.989 2834.9,223.99 2848.74,223.991 2862.58,223.991 2876.41,223.991 2890.25,223.991 2904.09,223.99 2917.93,223.989 2931.77,223.988 2945.6,223.986 2959.44,223.985 2973.28,223.984 2987.12,223.983 3000.96,223.982 3014.79,223.981 3028.63,223.98 3042.47,223.979 3056.31,223.978 3070.14,223.978 "/>
<path clip-path="url(#clip940)" d="M2663.79 2135.47 L3055.46 2135.47 L3055.46 1979.95 L2663.79 1979.95  Z" fill="#eaeaea" fill-rule="evenodd" fill-opacity="1"/>
<polyline clip-path="url(#clip940)" style="stroke:#ffffff; stroke-linecap:round; stroke-linejoin:round; stroke-width:4; stroke-opacity:1; fill:none" points="2663.79,2135.47 3055.46,2135.47 3055.46,1979.95 2663.79,1979.95 2663.79,2135.47 "/>
<polyline clip-path="url(#clip940)" style="stroke:#009af9; stroke-linecap:round; stroke-linejoin:round; stroke-width:12; stroke-opacity:1; fill:none" points="2696.23,2031.79 2890.82,2031.79 "/>
<path clip-path="url(#clip940)" d="M2925.48 2048.35 L2925.48 2044.09 Q2927.24 2044.92 2929.04 2045.36 Q2930.85 2045.8 2932.59 2045.8 Q2937.22 2045.8 2939.65 2042.7 Q2942.1 2039.58 2942.45 2033.23 Q2941.1 2035.22 2939.04 2036.29 Q2936.98 2037.35 2934.48 2037.35 Q2929.3 2037.35 2926.27 2034.23 Q2923.26 2031.08 2923.26 2025.64 Q2923.26 2020.32 2926.4 2017.1 Q2929.55 2013.88 2934.78 2013.88 Q2940.78 2013.88 2943.93 2018.49 Q2947.1 2023.07 2947.1 2031.82 Q2947.1 2039.99 2943.21 2044.88 Q2939.34 2049.74 2932.79 2049.74 Q2931.03 2049.74 2929.23 2049.39 Q2927.42 2049.04 2925.48 2048.35 M2934.78 2033.7 Q2937.93 2033.7 2939.76 2031.54 Q2941.61 2029.39 2941.61 2025.64 Q2941.61 2021.91 2939.76 2019.76 Q2937.93 2017.58 2934.78 2017.58 Q2931.64 2017.58 2929.78 2019.76 Q2927.96 2021.91 2927.96 2025.64 Q2927.96 2029.39 2929.78 2031.54 Q2931.64 2033.7 2934.78 2033.7 Z" fill="#000000" fill-rule="nonzero" fill-opacity="1" /><path clip-path="url(#clip940)" d="M2955.55 2014.51 L2973.9 2014.51 L2973.9 2018.44 L2959.83 2018.44 L2959.83 2026.91 Q2960.85 2026.57 2961.87 2026.4 Q2962.89 2026.22 2963.9 2026.22 Q2969.69 2026.22 2973.07 2029.39 Q2976.45 2032.56 2976.45 2037.98 Q2976.45 2043.56 2972.98 2046.66 Q2969.51 2049.74 2963.19 2049.74 Q2961.01 2049.74 2958.74 2049.37 Q2956.5 2049 2954.09 2048.26 L2954.09 2043.56 Q2956.17 2044.69 2958.4 2045.25 Q2960.62 2045.8 2963.09 2045.8 Q2967.1 2045.8 2969.44 2043.7 Q2971.78 2041.59 2971.78 2037.98 Q2971.78 2034.37 2969.44 2032.26 Q2967.1 2030.15 2963.09 2030.15 Q2961.22 2030.15 2959.34 2030.57 Q2957.49 2030.99 2955.55 2031.87 L2955.55 2014.51 Z" fill="#000000" fill-rule="nonzero" fill-opacity="1" /><path clip-path="url(#clip940)" d="M3015.06 2033.86 Q3013.05 2033.86 3011.89 2035.57 Q3010.76 2037.28 3010.76 2040.34 Q3010.76 2043.35 3011.89 2045.08 Q3013.05 2046.8 3015.06 2046.8 Q3017.03 2046.8 3018.16 2045.08 Q3019.32 2043.35 3019.32 2040.34 Q3019.32 2037.31 3018.16 2035.59 Q3017.03 2033.86 3015.06 2033.86 M3015.06 2030.92 Q3018.72 2030.92 3020.87 2033.46 Q3023.02 2036.01 3023.02 2040.34 Q3023.02 2044.67 3020.85 2047.21 Q3018.7 2049.74 3015.06 2049.74 Q3011.36 2049.74 3009.21 2047.21 Q3007.05 2044.67 3007.05 2040.34 Q3007.05 2035.99 3009.21 2033.46 Q3011.38 2030.92 3015.06 2030.92 M2991.17 2016.82 Q2989.18 2016.82 2988.02 2018.56 Q2986.89 2020.27 2986.89 2023.28 Q2986.89 2026.33 2988.02 2028.05 Q2989.16 2029.76 2991.17 2029.76 Q2993.19 2029.76 2994.32 2028.05 Q2995.48 2026.33 2995.48 2023.28 Q2995.48 2020.29 2994.32 2018.56 Q2993.16 2016.82 2991.17 2016.82 M3012.08 2013.88 L3015.78 2013.88 L2994.16 2049.74 L2990.46 2049.74 L3012.08 2013.88 M2991.17 2013.88 Q2994.83 2013.88 2997.01 2016.43 Q2999.18 2018.95 2999.18 2023.28 Q2999.18 2027.65 2997.01 2030.18 Q2994.85 2032.7 2991.17 2032.7 Q2987.49 2032.7 2985.34 2030.18 Q2983.21 2027.63 2983.21 2023.28 Q2983.21 2018.97 2985.36 2016.43 Q2987.52 2013.88 2991.17 2013.88 Z" fill="#000000" fill-rule="nonzero" fill-opacity="1" /><polyline clip-path="url(#clip940)" style="stroke:#e26f46; stroke-linecap:round; stroke-linejoin:round; stroke-width:12; stroke-opacity:1; fill:none" points="2696.23,2083.63 2890.82,2083.63 "/>
<path clip-path="url(#clip940)" d="M2935.59 2081.76 Q2932.45 2081.76 2930.59 2083.92 Q2928.77 2086.07 2928.77 2089.82 Q2928.77 2093.55 2930.59 2095.72 Q2932.45 2097.87 2935.59 2097.87 Q2938.74 2097.87 2940.57 2095.72 Q2942.42 2093.55 2942.42 2089.82 Q2942.42 2086.07 2940.57 2083.92 Q2938.74 2081.76 2935.59 2081.76 M2944.88 2067.11 L2944.88 2071.37 Q2943.12 2070.54 2941.31 2070.1 Q2939.53 2069.66 2937.77 2069.66 Q2933.14 2069.66 2930.69 2072.78 Q2928.26 2075.91 2927.91 2082.23 Q2929.28 2080.21 2931.34 2079.15 Q2933.4 2078.06 2935.87 2078.06 Q2941.08 2078.06 2944.09 2081.23 Q2947.12 2084.38 2947.12 2089.82 Q2947.12 2095.14 2943.97 2098.36 Q2940.83 2101.58 2935.59 2101.58 Q2929.6 2101.58 2926.43 2096.99 Q2923.26 2092.39 2923.26 2083.66 Q2923.26 2075.47 2927.15 2070.61 Q2931.03 2065.72 2937.59 2065.72 Q2939.34 2065.72 2941.13 2066.07 Q2942.93 2066.42 2944.88 2067.11 Z" fill="#000000" fill-rule="nonzero" fill-opacity="1" /><path clip-path="url(#clip940)" d="M2965.18 2084.49 Q2961.84 2084.49 2959.92 2086.28 Q2958.03 2088.06 2958.03 2091.18 Q2958.03 2094.31 2959.92 2096.09 Q2961.84 2097.87 2965.18 2097.87 Q2968.51 2097.87 2970.43 2096.09 Q2972.35 2094.29 2972.35 2091.18 Q2972.35 2088.06 2970.43 2086.28 Q2968.53 2084.49 2965.18 2084.49 M2960.5 2082.5 Q2957.49 2081.76 2955.8 2079.7 Q2954.14 2077.64 2954.14 2074.68 Q2954.14 2070.54 2957.08 2068.13 Q2960.04 2065.72 2965.18 2065.72 Q2970.34 2065.72 2973.28 2068.13 Q2976.22 2070.54 2976.22 2074.68 Q2976.22 2077.64 2974.53 2079.7 Q2972.86 2081.76 2969.88 2082.5 Q2973.26 2083.29 2975.13 2085.58 Q2977.03 2087.87 2977.03 2091.18 Q2977.03 2096.21 2973.95 2098.89 Q2970.9 2101.58 2965.18 2101.58 Q2959.46 2101.58 2956.38 2098.89 Q2953.33 2096.21 2953.33 2091.18 Q2953.33 2087.87 2955.22 2085.58 Q2957.12 2083.29 2960.5 2082.5 M2958.79 2075.12 Q2958.79 2077.8 2960.46 2079.31 Q2962.15 2080.81 2965.18 2080.81 Q2968.19 2080.81 2969.88 2079.31 Q2971.59 2077.8 2971.59 2075.12 Q2971.59 2072.43 2969.88 2070.93 Q2968.19 2069.42 2965.18 2069.42 Q2962.15 2069.42 2960.46 2070.93 Q2958.79 2072.43 2958.79 2075.12 Z" fill="#000000" fill-rule="nonzero" fill-opacity="1" /><path clip-path="url(#clip940)" d="M3014.74 2085.7 Q3012.72 2085.7 3011.57 2087.41 Q3010.43 2089.12 3010.43 2092.18 Q3010.43 2095.19 3011.57 2096.92 Q3012.72 2098.64 3014.74 2098.64 Q3016.71 2098.64 3017.84 2096.92 Q3019 2095.19 3019 2092.18 Q3019 2089.15 3017.84 2087.43 Q3016.71 2085.7 3014.74 2085.7 M3014.74 2082.76 Q3018.4 2082.76 3020.55 2085.3 Q3022.7 2087.85 3022.7 2092.18 Q3022.7 2096.51 3020.52 2099.05 Q3018.37 2101.58 3014.74 2101.58 Q3011.03 2101.58 3008.88 2099.05 Q3006.73 2096.51 3006.73 2092.18 Q3006.73 2087.83 3008.88 2085.3 Q3011.06 2082.76 3014.74 2082.76 M2990.85 2068.66 Q2988.86 2068.66 2987.7 2070.4 Q2986.57 2072.11 2986.57 2075.12 Q2986.57 2078.17 2987.7 2079.89 Q2988.84 2081.6 2990.85 2081.6 Q2992.86 2081.6 2994 2079.89 Q2995.15 2078.17 2995.15 2075.12 Q2995.15 2072.13 2994 2070.4 Q2992.84 2068.66 2990.85 2068.66 M3011.75 2065.72 L3015.46 2065.72 L2993.84 2101.58 L2990.13 2101.58 L3011.75 2065.72 M2990.85 2065.72 Q2994.51 2065.72 2996.68 2068.27 Q2998.86 2070.79 2998.86 2075.12 Q2998.86 2079.49 2996.68 2082.02 Q2994.53 2084.54 2990.85 2084.54 Q2987.17 2084.54 2985.02 2082.02 Q2982.89 2079.47 2982.89 2075.12 Q2982.89 2070.81 2985.04 2068.27 Q2987.19 2065.72 2990.85 2065.72 Z" fill="#000000" fill-rule="nonzero" fill-opacity="1" /></svg>
