<?xml version="1.0" encoding="utf-8"?>
<svg xmlns="http://www.w3.org/2000/svg" xmlns:xlink="http://www.w3.org/1999/xlink" width="800" height="600" viewBox="0 0 3200 2400">
<defs>
  <clipPath id="clip410">
    <rect x="0" y="0" width="3200" height="2400"/>
  </clipPath>
</defs>
<path clip-path="url(#clip410)" d="M0 2400 L3200 2400 L3200 0 L0 0  Z" fill="#ffffff" fill-rule="evenodd" fill-opacity="1"/>
<defs>
  <clipPath id="clip411">
    <rect x="640" y="0" width="2241" height="2241"/>
  </clipPath>
</defs>
<path clip-path="url(#clip410)" d="M233.806 2204.92 L3152.76 2204.92 L3152.76 121.312 L233.806 121.312  Z" fill="#eaeaea" fill-rule="evenodd" fill-opacity="1"/>
<defs>
  <clipPath id="clip412">
    <rect x="233" y="121" width="2920" height="2085"/>
  </clipPath>
</defs>
<polyline clip-path="url(#clip412)" style="stroke:#ffffff; stroke-linecap:round; stroke-linejoin:round; stroke-width:4; stroke-opacity:1; fill:none" points="316.418,2204.92 316.418,121.312 "/>
<polyline clip-path="url(#clip412)" style="stroke:#ffffff; stroke-linecap:round; stroke-linejoin:round; stroke-width:4; stroke-opacity:1; fill:none" points="867.163,2204.92 867.163,121.312 "/>
<polyline clip-path="url(#clip412)" style="stroke:#ffffff; stroke-linecap:round; stroke-linejoin:round; stroke-width:4; stroke-opacity:1; fill:none" points="1417.91,2204.92 1417.91,121.312 "/>
<polyline clip-path="url(#clip412)" style="stroke:#ffffff; stroke-linecap:round; stroke-linejoin:round; stroke-width:4; stroke-opacity:1; fill:none" points="1968.65,2204.92 1968.65,121.312 "/>
<polyline clip-path="url(#clip412)" style="stroke:#ffffff; stroke-linecap:round; stroke-linejoin:round; stroke-width:4; stroke-opacity:1; fill:none" points="2519.4,2204.92 2519.4,121.312 "/>
<polyline clip-path="url(#clip412)" style="stroke:#ffffff; stroke-linecap:round; stroke-linejoin:round; stroke-width:4; stroke-opacity:1; fill:none" points="3070.14,2204.92 3070.14,121.312 "/>
<polyline clip-path="url(#clip412)" style="stroke:#ffffff; stroke-linecap:round; stroke-linejoin:round; stroke-width:2; stroke-opacity:1; fill:none" points="591.791,2204.92 591.791,121.312 "/>
<polyline clip-path="url(#clip412)" style="stroke:#ffffff; stroke-linecap:round; stroke-linejoin:round; stroke-width:2; stroke-opacity:1; fill:none" points="1142.54,2204.92 1142.54,121.312 "/>
<polyline clip-path="url(#clip412)" style="stroke:#ffffff; stroke-linecap:round; stroke-linejoin:round; stroke-width:2; stroke-opacity:1; fill:none" points="1693.28,2204.92 1693.28,121.312 "/>
<polyline clip-path="url(#clip412)" style="stroke:#ffffff; stroke-linecap:round; stroke-linejoin:round; stroke-width:2; stroke-opacity:1; fill:none" points="2244.03,2204.92 2244.03,121.312 "/>
<polyline clip-path="url(#clip412)" style="stroke:#ffffff; stroke-linecap:round; stroke-linejoin:round; stroke-width:2; stroke-opacity:1; fill:none" points="2794.77,2204.92 2794.77,121.312 "/>
<polyline clip-path="url(#clip410)" style="stroke:#ffffff; stroke-linecap:round; stroke-linejoin:round; stroke-width:4; stroke-opacity:1; fill:none" points="233.806,2204.92 3152.76,2204.92 "/>
<polyline clip-path="url(#clip410)" style="stroke:#333333; stroke-linecap:round; stroke-linejoin:round; stroke-width:4; stroke-opacity:1; fill:none" points="316.418,2204.92 316.418,2223.82 "/>
<polyline clip-path="url(#clip410)" style="stroke:#333333; stroke-linecap:round; stroke-linejoin:round; stroke-width:4; stroke-opacity:1; fill:none" points="867.163,2204.92 867.163,2223.82 "/>
<polyline clip-path="url(#clip410)" style="stroke:#333333; stroke-linecap:round; stroke-linejoin:round; stroke-width:4; stroke-opacity:1; fill:none" points="1417.91,2204.92 1417.91,2223.82 "/>
<polyline clip-path="url(#clip410)" style="stroke:#333333; stroke-linecap:round; stroke-linejoin:round; stroke-width:4; stroke-opacity:1; fill:none" points="1968.65,2204.92 1968.65,2223.82 "/>
<polyline clip-path="url(#clip410)" style="stroke:#333333; stroke-linecap:round; stroke-linejoin:round; stroke-width:4; stroke-opacity:1; fill:none" points="2519.4,2204.92 2519.4,2223.82 "/>
<polyline clip-path="url(#clip410)" style="stroke:#333333; stroke-linecap:round; stroke-linejoin:round; stroke-width:4; stroke-opacity:1; fill:none" points="3070.14,2204.92 3070.14,2223.82 "/>
<polyline clip-path="url(#clip410)" style="stroke:#333333; stroke-linecap:round; stroke-linejoin:round; stroke-width:4; stroke-opacity:1; fill:none" points="591.791,2204.92 591.791,2214.37 "/>
<polyline clip-path="url(#clip410)" style="stroke:#333333; stroke-linecap:round; stroke-linejoin:round; stroke-width:4; stroke-opacity:1; fill:none" points="1142.54,2204.92 1142.54,2214.37 "/>
<polyline clip-path="url(#clip410)" style="stroke:#333333; stroke-linecap:round; stroke-linejoin:round; stroke-width:4; stroke-opacity:1; fill:none" points="1693.28,2204.92 1693.28,2214.37 "/>
<polyline clip-path="url(#clip410)" style="stroke:#333333; stroke-linecap:round; stroke-linejoin:round; stroke-width:4; stroke-opacity:1; fill:none" points="2244.03,2204.92 2244.03,2214.37 "/>
<polyline clip-path="url(#clip410)" style="stroke:#333333; stroke-linecap:round; stroke-linejoin:round; stroke-width:4; stroke-opacity:1; fill:none" points="2794.77,2204.92 2794.77,2214.37 "/>
<path clip-path="url(#clip410)" d="M316.418 2255.04 Q312.807 2255.04 310.978 2258.6 Q309.173 2262.14 309.173 2269.27 Q309.173 2276.38 310.978 2279.95 Q312.807 2283.49 316.418 2283.49 Q320.052 2283.49 321.858 2279.95 Q323.687 2276.38 323.687 2269.27 Q323.687 2262.14 321.858 2258.6 Q320.052 2255.04 316.418 2255.04 M316.418 2251.33 Q322.228 2251.33 325.284 2255.94 Q328.362 2260.52 328.362 2269.27 Q328.362 2278 325.284 2282.61 Q322.228 2287.19 316.418 2287.19 Q310.608 2287.19 307.529 2282.61 Q304.474 2278 304.474 2269.27 Q304.474 2260.52 307.529 2255.94 Q310.608 2251.33 316.418 2251.33 Z" fill="#4c4c4c" fill-rule="nonzero" fill-opacity="1" /><path clip-path="url(#clip410)" d="M857.545 2282.58 L865.184 2282.58 L865.184 2256.22 L856.874 2257.89 L856.874 2253.63 L865.138 2251.96 L869.814 2251.96 L869.814 2282.58 L877.453 2282.58 L877.453 2286.52 L857.545 2286.52 L857.545 2282.58 Z" fill="#4c4c4c" fill-rule="nonzero" fill-opacity="1" /><path clip-path="url(#clip410)" d="M1412.56 2282.58 L1428.88 2282.58 L1428.88 2286.52 L1406.94 2286.52 L1406.94 2282.58 Q1409.6 2279.83 1414.18 2275.2 Q1418.79 2270.55 1419.97 2269.21 Q1422.21 2266.68 1423.09 2264.95 Q1424 2263.19 1424 2261.5 Q1424 2258.74 1422.05 2257.01 Q1420.13 2255.27 1417.03 2255.27 Q1414.83 2255.27 1412.38 2256.03 Q1409.95 2256.8 1407.17 2258.35 L1407.17 2253.63 Q1409.99 2252.49 1412.45 2251.91 Q1414.9 2251.33 1416.94 2251.33 Q1422.31 2251.33 1425.5 2254.02 Q1428.7 2256.71 1428.7 2261.2 Q1428.7 2263.33 1427.89 2265.25 Q1427.1 2267.14 1424.99 2269.74 Q1424.41 2270.41 1421.31 2273.63 Q1418.21 2276.82 1412.56 2282.58 Z" fill="#4c4c4c" fill-rule="nonzero" fill-opacity="1" /><path clip-path="url(#clip410)" d="M1972.9 2267.89 Q1976.26 2268.6 1978.13 2270.87 Q1980.03 2273.14 1980.03 2276.47 Q1980.03 2281.59 1976.51 2284.39 Q1972.99 2287.19 1966.51 2287.19 Q1964.34 2287.19 1962.02 2286.75 Q1959.73 2286.33 1957.28 2285.48 L1957.28 2280.96 Q1959.22 2282.1 1961.54 2282.68 Q1963.85 2283.26 1966.37 2283.26 Q1970.77 2283.26 1973.06 2281.52 Q1975.38 2279.78 1975.38 2276.47 Q1975.38 2273.42 1973.23 2271.71 Q1971.1 2269.97 1967.28 2269.97 L1963.25 2269.97 L1963.25 2266.13 L1967.46 2266.13 Q1970.91 2266.13 1972.74 2264.76 Q1974.57 2263.37 1974.57 2260.78 Q1974.57 2258.12 1972.67 2256.71 Q1970.79 2255.27 1967.28 2255.27 Q1965.36 2255.27 1963.16 2255.69 Q1960.96 2256.1 1958.32 2256.98 L1958.32 2252.82 Q1960.98 2252.08 1963.29 2251.71 Q1965.63 2251.33 1967.69 2251.33 Q1973.02 2251.33 1976.12 2253.77 Q1979.22 2256.17 1979.22 2260.29 Q1979.22 2263.16 1977.58 2265.15 Q1975.93 2267.12 1972.9 2267.89 Z" fill="#4c4c4c" fill-rule="nonzero" fill-opacity="1" /><path clip-path="url(#clip410)" d="M2522.41 2256.03 L2510.6 2274.48 L2522.41 2274.48 L2522.41 2256.03 M2521.18 2251.96 L2527.06 2251.96 L2527.06 2274.48 L2531.99 2274.48 L2531.99 2278.37 L2527.06 2278.37 L2527.06 2286.52 L2522.41 2286.52 L2522.41 2278.37 L2506.81 2278.37 L2506.81 2273.86 L2521.18 2251.96 Z" fill="#4c4c4c" fill-rule="nonzero" fill-opacity="1" /><path clip-path="url(#clip410)" d="M3060.42 2251.96 L3078.78 2251.96 L3078.78 2255.9 L3064.7 2255.9 L3064.7 2264.37 Q3065.72 2264.02 3066.74 2263.86 Q3067.76 2263.67 3068.78 2263.67 Q3074.57 2263.67 3077.95 2266.84 Q3081.32 2270.02 3081.32 2275.43 Q3081.32 2281.01 3077.85 2284.11 Q3074.38 2287.19 3068.06 2287.19 Q3065.88 2287.19 3063.62 2286.82 Q3061.37 2286.45 3058.96 2285.71 L3058.96 2281.01 Q3061.05 2282.14 3063.27 2282.7 Q3065.49 2283.26 3067.97 2283.26 Q3071.97 2283.26 3074.31 2281.15 Q3076.65 2279.04 3076.65 2275.43 Q3076.65 2271.82 3074.31 2269.71 Q3071.97 2267.61 3067.97 2267.61 Q3066.09 2267.61 3064.22 2268.02 Q3062.37 2268.44 3060.42 2269.32 L3060.42 2251.96 Z" fill="#4c4c4c" fill-rule="nonzero" fill-opacity="1" /><path clip-path="url(#clip410)" d="M1692.34 2316.01 L1692.34 2326.14 L1704.41 2326.14 L1704.41 2330.69 L1692.34 2330.69 L1692.34 2350.04 Q1692.34 2354.4 1693.52 2355.64 Q1694.73 2356.88 1698.39 2356.88 L1704.41 2356.88 L1704.41 2361.78 L1698.39 2361.78 Q1691.61 2361.78 1689.03 2359.27 Q1686.45 2356.72 1686.45 2350.04 L1686.45 2330.69 L1682.16 2330.69 L1682.16 2326.14 L1686.45 2326.14 L1686.45 2316.01 L1692.34 2316.01 Z" fill="#000000" fill-rule="nonzero" fill-opacity="1" /><polyline clip-path="url(#clip412)" style="stroke:#ffffff; stroke-linecap:round; stroke-linejoin:round; stroke-width:4; stroke-opacity:1; fill:none" points="233.806,2154.2 3152.76,2154.2 "/>
<polyline clip-path="url(#clip412)" style="stroke:#ffffff; stroke-linecap:round; stroke-linejoin:round; stroke-width:4; stroke-opacity:1; fill:none" points="233.806,1855.93 3152.76,1855.93 "/>
<polyline clip-path="url(#clip412)" style="stroke:#ffffff; stroke-linecap:round; stroke-linejoin:round; stroke-width:4; stroke-opacity:1; fill:none" points="233.806,1557.66 3152.76,1557.66 "/>
<polyline clip-path="url(#clip412)" style="stroke:#ffffff; stroke-linecap:round; stroke-linejoin:round; stroke-width:4; stroke-opacity:1; fill:none" points="233.806,1259.39 3152.76,1259.39 "/>
<polyline clip-path="url(#clip412)" style="stroke:#ffffff; stroke-linecap:round; stroke-linejoin:round; stroke-width:4; stroke-opacity:1; fill:none" points="233.806,961.125 3152.76,961.125 "/>
<polyline clip-path="url(#clip412)" style="stroke:#ffffff; stroke-linecap:round; stroke-linejoin:round; stroke-width:4; stroke-opacity:1; fill:none" points="233.806,662.857 3152.76,662.857 "/>
<polyline clip-path="url(#clip412)" style="stroke:#ffffff; stroke-linecap:round; stroke-linejoin:round; stroke-width:4; stroke-opacity:1; fill:none" points="233.806,364.588 3152.76,364.588 "/>
<polyline clip-path="url(#clip412)" style="stroke:#ffffff; stroke-linecap:round; stroke-linejoin:round; stroke-width:2; stroke-opacity:1; fill:none" points="233.806,2005.07 3152.76,2005.07 "/>
<polyline clip-path="url(#clip412)" style="stroke:#ffffff; stroke-linecap:round; stroke-linejoin:round; stroke-width:2; stroke-opacity:1; fill:none" points="233.806,1706.8 3152.76,1706.8 "/>
<polyline clip-path="url(#clip412)" style="stroke:#ffffff; stroke-linecap:round; stroke-linejoin:round; stroke-width:2; stroke-opacity:1; fill:none" points="233.806,1408.53 3152.76,1408.53 "/>
<polyline clip-path="url(#clip412)" style="stroke:#ffffff; stroke-linecap:round; stroke-linejoin:round; stroke-width:2; stroke-opacity:1; fill:none" points="233.806,1110.26 3152.76,1110.26 "/>
<polyline clip-path="url(#clip412)" style="stroke:#ffffff; stroke-linecap:round; stroke-linejoin:round; stroke-width:2; stroke-opacity:1; fill:none" points="233.806,811.991 3152.76,811.991 "/>
<polyline clip-path="url(#clip412)" style="stroke:#ffffff; stroke-linecap:round; stroke-linejoin:round; stroke-width:2; stroke-opacity:1; fill:none" points="233.806,513.722 3152.76,513.722 "/>
<polyline clip-path="url(#clip412)" style="stroke:#ffffff; stroke-linecap:round; stroke-linejoin:round; stroke-width:2; stroke-opacity:1; fill:none" points="233.806,215.453 3152.76,215.453 "/>
<polyline clip-path="url(#clip410)" style="stroke:#ffffff; stroke-linecap:round; stroke-linejoin:round; stroke-width:4; stroke-opacity:1; fill:none" points="233.806,2204.92 233.806,121.312 "/>
<polyline clip-path="url(#clip410)" style="stroke:#333333; stroke-linecap:round; stroke-linejoin:round; stroke-width:4; stroke-opacity:1; fill:none" points="233.806,2154.2 214.909,2154.2 "/>
<polyline clip-path="url(#clip410)" style="stroke:#333333; stroke-linecap:round; stroke-linejoin:round; stroke-width:4; stroke-opacity:1; fill:none" points="233.806,1855.93 214.909,1855.93 "/>
<polyline clip-path="url(#clip410)" style="stroke:#333333; stroke-linecap:round; stroke-linejoin:round; stroke-width:4; stroke-opacity:1; fill:none" points="233.806,1557.66 214.909,1557.66 "/>
<polyline clip-path="url(#clip410)" style="stroke:#333333; stroke-linecap:round; stroke-linejoin:round; stroke-width:4; stroke-opacity:1; fill:none" points="233.806,1259.39 214.909,1259.39 "/>
<polyline clip-path="url(#clip410)" style="stroke:#333333; stroke-linecap:round; stroke-linejoin:round; stroke-width:4; stroke-opacity:1; fill:none" points="233.806,961.125 214.909,961.125 "/>
<polyline clip-path="url(#clip410)" style="stroke:#333333; stroke-linecap:round; stroke-linejoin:round; stroke-width:4; stroke-opacity:1; fill:none" points="233.806,662.857 214.909,662.857 "/>
<polyline clip-path="url(#clip410)" style="stroke:#333333; stroke-linecap:round; stroke-linejoin:round; stroke-width:4; stroke-opacity:1; fill:none" points="233.806,364.588 214.909,364.588 "/>
<polyline clip-path="url(#clip410)" style="stroke:#333333; stroke-linecap:round; stroke-linejoin:round; stroke-width:4; stroke-opacity:1; fill:none" points="233.806,2005.07 224.357,2005.07 "/>
<polyline clip-path="url(#clip410)" style="stroke:#333333; stroke-linecap:round; stroke-linejoin:round; stroke-width:4; stroke-opacity:1; fill:none" points="233.806,1706.8 224.357,1706.8 "/>
<polyline clip-path="url(#clip410)" style="stroke:#333333; stroke-linecap:round; stroke-linejoin:round; stroke-width:4; stroke-opacity:1; fill:none" points="233.806,1408.53 224.357,1408.53 "/>
<polyline clip-path="url(#clip410)" style="stroke:#333333; stroke-linecap:round; stroke-linejoin:round; stroke-width:4; stroke-opacity:1; fill:none" points="233.806,1110.26 224.357,1110.26 "/>
<polyline clip-path="url(#clip410)" style="stroke:#333333; stroke-linecap:round; stroke-linejoin:round; stroke-width:4; stroke-opacity:1; fill:none" points="233.806,811.991 224.357,811.991 "/>
<polyline clip-path="url(#clip410)" style="stroke:#333333; stroke-linecap:round; stroke-linejoin:round; stroke-width:4; stroke-opacity:1; fill:none" points="233.806,513.722 224.357,513.722 "/>
<polyline clip-path="url(#clip410)" style="stroke:#333333; stroke-linecap:round; stroke-linejoin:round; stroke-width:4; stroke-opacity:1; fill:none" points="233.806,215.453 224.357,215.453 "/>
<path clip-path="url(#clip410)" d="M106.228 2140 Q102.617 2140 100.788 2143.56 Q98.9825 2147.11 98.9825 2154.24 Q98.9825 2161.34 100.788 2164.91 Q102.617 2168.45 106.228 2168.45 Q109.862 2168.45 111.668 2164.91 Q113.496 2161.34 113.496 2154.24 Q113.496 2147.11 111.668 2143.56 Q109.862 2140 106.228 2140 M106.228 2136.3 Q112.038 2136.3 115.094 2140.9 Q118.172 2145.49 118.172 2154.24 Q118.172 2162.96 115.094 2167.57 Q112.038 2172.15 106.228 2172.15 Q100.418 2172.15 97.339 2167.57 Q94.2835 2162.96 94.2835 2154.24 Q94.2835 2145.49 97.339 2140.9 Q100.418 2136.3 106.228 2136.3 Z" fill="#4c4c4c" fill-rule="nonzero" fill-opacity="1" /><path clip-path="url(#clip410)" d="M126.39 2165.6 L131.274 2165.6 L131.274 2171.48 L126.39 2171.48 L126.39 2165.6 Z" fill="#4c4c4c" fill-rule="nonzero" fill-opacity="1" /><path clip-path="url(#clip410)" d="M145.487 2167.55 L161.806 2167.55 L161.806 2171.48 L139.862 2171.48 L139.862 2167.55 Q142.524 2164.79 147.107 2160.16 Q151.714 2155.51 152.894 2154.17 Q155.14 2151.64 156.019 2149.91 Q156.922 2148.15 156.922 2146.46 Q156.922 2143.7 154.978 2141.97 Q153.056 2140.23 149.954 2140.23 Q147.755 2140.23 145.302 2140.99 Q142.871 2141.76 140.093 2143.31 L140.093 2138.59 Q142.917 2137.45 145.371 2136.87 Q147.825 2136.3 149.862 2136.3 Q155.232 2136.3 158.427 2138.98 Q161.621 2141.67 161.621 2146.16 Q161.621 2148.29 160.811 2150.21 Q160.024 2152.11 157.917 2154.7 Q157.339 2155.37 154.237 2158.59 Q151.135 2161.78 145.487 2167.55 Z" fill="#4c4c4c" fill-rule="nonzero" fill-opacity="1" /><path clip-path="url(#clip410)" d="M104.145 1841.73 Q100.533 1841.73 98.7048 1845.3 Q96.8992 1848.84 96.8992 1855.97 Q96.8992 1863.07 98.7048 1866.64 Q100.533 1870.18 104.145 1870.18 Q107.779 1870.18 109.584 1866.64 Q111.413 1863.07 111.413 1855.97 Q111.413 1848.84 109.584 1845.3 Q107.779 1841.73 104.145 1841.73 M104.145 1838.03 Q109.955 1838.03 113.01 1842.63 Q116.089 1847.22 116.089 1855.97 Q116.089 1864.69 113.01 1869.3 Q109.955 1873.88 104.145 1873.88 Q98.3344 1873.88 95.2557 1869.3 Q92.2002 1864.69 92.2002 1855.97 Q92.2002 1847.22 95.2557 1842.63 Q98.3344 1838.03 104.145 1838.03 Z" fill="#4c4c4c" fill-rule="nonzero" fill-opacity="1" /><path clip-path="url(#clip410)" d="M124.306 1867.33 L129.191 1867.33 L129.191 1873.21 L124.306 1873.21 L124.306 1867.33 Z" fill="#4c4c4c" fill-rule="nonzero" fill-opacity="1" /><path clip-path="url(#clip410)" d="M152.223 1842.73 L140.417 1861.17 L152.223 1861.17 L152.223 1842.73 M150.996 1838.65 L156.876 1838.65 L156.876 1861.17 L161.806 1861.17 L161.806 1865.06 L156.876 1865.06 L156.876 1873.21 L152.223 1873.21 L152.223 1865.06 L136.621 1865.06 L136.621 1860.55 L150.996 1838.65 Z" fill="#4c4c4c" fill-rule="nonzero" fill-opacity="1" /><path clip-path="url(#clip410)" d="M104.469 1543.46 Q100.858 1543.46 99.0288 1547.03 Q97.2233 1550.57 97.2233 1557.7 Q97.2233 1564.8 99.0288 1568.37 Q100.858 1571.91 104.469 1571.91 Q108.103 1571.91 109.908 1568.37 Q111.737 1564.8 111.737 1557.7 Q111.737 1550.57 109.908 1547.03 Q108.103 1543.46 104.469 1543.46 M104.469 1539.76 Q110.279 1539.76 113.334 1544.36 Q116.413 1548.95 116.413 1557.7 Q116.413 1566.42 113.334 1571.03 Q110.279 1575.61 104.469 1575.61 Q98.6585 1575.61 95.5798 1571.03 Q92.5242 1566.42 92.5242 1557.7 Q92.5242 1548.95 95.5798 1544.36 Q98.6585 1539.76 104.469 1539.76 Z" fill="#4c4c4c" fill-rule="nonzero" fill-opacity="1" /><path clip-path="url(#clip410)" d="M124.631 1569.06 L129.515 1569.06 L129.515 1574.94 L124.631 1574.94 L124.631 1569.06 Z" fill="#4c4c4c" fill-rule="nonzero" fill-opacity="1" /><path clip-path="url(#clip410)" d="M150.279 1555.8 Q147.13 1555.8 145.279 1557.95 Q143.45 1560.11 143.45 1563.86 Q143.45 1567.58 145.279 1569.76 Q147.13 1571.91 150.279 1571.91 Q153.427 1571.91 155.255 1569.76 Q157.107 1567.58 157.107 1563.86 Q157.107 1560.11 155.255 1557.95 Q153.427 1555.8 150.279 1555.8 M159.561 1541.15 L159.561 1545.41 Q157.802 1544.57 155.996 1544.13 Q154.214 1543.69 152.454 1543.69 Q147.825 1543.69 145.371 1546.82 Q142.941 1549.94 142.593 1556.26 Q143.959 1554.25 146.019 1553.18 Q148.079 1552.1 150.556 1552.1 Q155.765 1552.1 158.774 1555.27 Q161.806 1558.42 161.806 1563.86 Q161.806 1569.18 158.658 1572.4 Q155.51 1575.61 150.279 1575.61 Q144.283 1575.61 141.112 1571.03 Q137.941 1566.42 137.941 1557.7 Q137.941 1549.5 141.83 1544.64 Q145.718 1539.76 152.269 1539.76 Q154.029 1539.76 155.811 1540.11 Q157.616 1540.45 159.561 1541.15 Z" fill="#4c4c4c" fill-rule="nonzero" fill-opacity="1" /><path clip-path="url(#clip410)" d="M104.723 1245.19 Q101.112 1245.19 99.2835 1248.76 Q97.4779 1252.3 97.4779 1259.43 Q97.4779 1266.54 99.2835 1270.1 Q101.112 1273.64 104.723 1273.64 Q108.357 1273.64 110.163 1270.1 Q111.992 1266.54 111.992 1259.43 Q111.992 1252.3 110.163 1248.76 Q108.357 1245.19 104.723 1245.19 M104.723 1241.49 Q110.533 1241.49 113.589 1246.1 Q116.668 1250.68 116.668 1259.43 Q116.668 1268.16 113.589 1272.76 Q110.533 1277.35 104.723 1277.35 Q98.9131 1277.35 95.8344 1272.76 Q92.7789 1268.16 92.7789 1259.43 Q92.7789 1250.68 95.8344 1246.1 Q98.9131 1241.49 104.723 1241.49 Z" fill="#4c4c4c" fill-rule="nonzero" fill-opacity="1" /><path clip-path="url(#clip410)" d="M124.885 1270.79 L129.769 1270.79 L129.769 1276.67 L124.885 1276.67 L124.885 1270.79 Z" fill="#4c4c4c" fill-rule="nonzero" fill-opacity="1" /><path clip-path="url(#clip410)" d="M149.954 1260.26 Q146.621 1260.26 144.7 1262.04 Q142.802 1263.83 142.802 1266.95 Q142.802 1270.08 144.7 1271.86 Q146.621 1273.64 149.954 1273.64 Q153.288 1273.64 155.209 1271.86 Q157.13 1270.05 157.13 1266.95 Q157.13 1263.83 155.209 1262.04 Q153.311 1260.26 149.954 1260.26 M145.279 1258.27 Q142.269 1257.53 140.58 1255.47 Q138.913 1253.41 138.913 1250.45 Q138.913 1246.3 141.853 1243.9 Q144.816 1241.49 149.954 1241.49 Q155.116 1241.49 158.056 1243.9 Q160.996 1246.3 160.996 1250.45 Q160.996 1253.41 159.306 1255.47 Q157.64 1257.53 154.654 1258.27 Q158.033 1259.06 159.908 1261.35 Q161.806 1263.64 161.806 1266.95 Q161.806 1271.98 158.728 1274.66 Q155.672 1277.35 149.954 1277.35 Q144.237 1277.35 141.158 1274.66 Q138.103 1271.98 138.103 1266.95 Q138.103 1263.64 140.001 1261.35 Q141.899 1259.06 145.279 1258.27 M143.566 1250.89 Q143.566 1253.57 145.232 1255.08 Q146.922 1256.58 149.954 1256.58 Q152.964 1256.58 154.654 1255.08 Q156.366 1253.57 156.366 1250.89 Q156.366 1248.2 154.654 1246.7 Q152.964 1245.19 149.954 1245.19 Q146.922 1245.19 145.232 1246.7 Q143.566 1248.2 143.566 1250.89 Z" fill="#4c4c4c" fill-rule="nonzero" fill-opacity="1" /><path clip-path="url(#clip410)" d="M95.4409 974.47 L103.08 974.47 L103.08 948.105 L94.7696 949.771 L94.7696 945.512 L103.033 943.845 L107.709 943.845 L107.709 974.47 L115.348 974.47 L115.348 978.405 L95.4409 978.405 L95.4409 974.47 Z" fill="#4c4c4c" fill-rule="nonzero" fill-opacity="1" /><path clip-path="url(#clip410)" d="M124.793 972.526 L129.677 972.526 L129.677 978.405 L124.793 978.405 L124.793 972.526 Z" fill="#4c4c4c" fill-rule="nonzero" fill-opacity="1" /><path clip-path="url(#clip410)" d="M149.862 946.924 Q146.251 946.924 144.422 950.489 Q142.617 954.03 142.617 961.16 Q142.617 968.267 144.422 971.831 Q146.251 975.373 149.862 975.373 Q153.496 975.373 155.302 971.831 Q157.13 968.267 157.13 961.16 Q157.13 954.03 155.302 950.489 Q153.496 946.924 149.862 946.924 M149.862 943.22 Q155.672 943.22 158.728 947.827 Q161.806 952.41 161.806 961.16 Q161.806 969.887 158.728 974.493 Q155.672 979.077 149.862 979.077 Q144.052 979.077 140.973 974.493 Q137.918 969.887 137.918 961.16 Q137.918 952.41 140.973 947.827 Q144.052 943.22 149.862 943.22 Z" fill="#4c4c4c" fill-rule="nonzero" fill-opacity="1" /><path clip-path="url(#clip410)" d="M97.0381 676.201 L104.677 676.201 L104.677 649.836 L96.3668 651.502 L96.3668 647.243 L104.631 645.577 L109.307 645.577 L109.307 676.201 L116.945 676.201 L116.945 680.137 L97.0381 680.137 L97.0381 676.201 Z" fill="#4c4c4c" fill-rule="nonzero" fill-opacity="1" /><path clip-path="url(#clip410)" d="M126.39 674.257 L131.274 674.257 L131.274 680.137 L126.39 680.137 L126.39 674.257 Z" fill="#4c4c4c" fill-rule="nonzero" fill-opacity="1" /><path clip-path="url(#clip410)" d="M145.487 676.201 L161.806 676.201 L161.806 680.137 L139.862 680.137 L139.862 676.201 Q142.524 673.447 147.107 668.817 Q151.714 664.164 152.894 662.822 Q155.14 660.299 156.019 658.563 Q156.922 656.803 156.922 655.114 Q156.922 652.359 154.978 650.623 Q153.056 648.887 149.954 648.887 Q147.755 648.887 145.302 649.651 Q142.871 650.414 140.093 651.965 L140.093 647.243 Q142.917 646.109 145.371 645.53 Q147.825 644.952 149.862 644.952 Q155.232 644.952 158.427 647.637 Q161.621 650.322 161.621 654.813 Q161.621 656.942 160.811 658.864 Q160.024 660.762 157.917 663.354 Q157.339 664.026 154.237 667.243 Q151.135 670.438 145.487 676.201 Z" fill="#4c4c4c" fill-rule="nonzero" fill-opacity="1" /><path clip-path="url(#clip410)" d="M94.9548 377.933 L102.594 377.933 L102.594 351.567 L94.2835 353.234 L94.2835 348.974 L102.547 347.308 L107.223 347.308 L107.223 377.933 L114.862 377.933 L114.862 381.868 L94.9548 381.868 L94.9548 377.933 Z" fill="#4c4c4c" fill-rule="nonzero" fill-opacity="1" /><path clip-path="url(#clip410)" d="M124.306 375.988 L129.191 375.988 L129.191 381.868 L124.306 381.868 L124.306 375.988 Z" fill="#4c4c4c" fill-rule="nonzero" fill-opacity="1" /><path clip-path="url(#clip410)" d="M152.223 351.382 L140.417 369.831 L152.223 369.831 L152.223 351.382 M150.996 347.308 L156.876 347.308 L156.876 369.831 L161.806 369.831 L161.806 373.72 L156.876 373.72 L156.876 381.868 L152.223 381.868 L152.223 373.72 L136.621 373.72 L136.621 369.206 L150.996 347.308 Z" fill="#4c4c4c" fill-rule="nonzero" fill-opacity="1" /><path clip-path="url(#clip410)" d="M48.597 1321.32 L67.5031 1321.32 L67.5031 1327.21 L18.2962 1327.21 L18.2962 1321.32 L23.7071 1321.32 Q20.5242 1319.47 18.9964 1316.67 Q17.4368 1313.84 17.4368 1309.93 Q17.4368 1303.43 22.5931 1299.39 Q27.7493 1295.32 36.152 1295.32 Q44.5547 1295.32 49.711 1299.39 Q54.8672 1303.43 54.8672 1309.93 Q54.8672 1313.84 53.3394 1316.67 Q51.7798 1319.47 48.597 1321.32 M36.152 1301.4 Q29.6908 1301.4 26.0305 1304.07 Q22.3384 1306.71 22.3384 1311.36 Q22.3384 1316 26.0305 1318.68 Q29.6908 1321.32 36.152 1321.32 Q42.6132 1321.32 46.3053 1318.68 Q49.9656 1316 49.9656 1311.36 Q49.9656 1306.71 46.3053 1304.07 Q42.6132 1301.4 36.152 1301.4 Z" fill="#000000" fill-rule="nonzero" fill-opacity="1" /><path clip-path="url(#clip410)" d="M22.4021 1271.79 Q22.4021 1276.51 26.0942 1279.24 Q29.7545 1281.98 36.152 1281.98 Q42.5495 1281.98 46.2417 1279.27 Q49.9019 1276.54 49.9019 1271.79 Q49.9019 1267.12 46.2098 1264.38 Q42.5177 1261.64 36.152 1261.64 Q29.8181 1261.64 26.126 1264.38 Q22.4021 1267.12 22.4021 1271.79 M17.4368 1271.79 Q17.4368 1264.16 22.4021 1259.8 Q27.3673 1255.43 36.152 1255.43 Q44.9049 1255.43 49.9019 1259.8 Q54.8672 1264.16 54.8672 1271.79 Q54.8672 1279.47 49.9019 1283.83 Q44.9049 1288.15 36.152 1288.15 Q27.3673 1288.15 22.4021 1283.83 Q17.4368 1279.47 17.4368 1271.79 Z" fill="#000000" fill-rule="nonzero" fill-opacity="1" /><path clip-path="url(#clip410)" d="M48.597 1240.06 L67.5031 1240.06 L67.5031 1245.95 L18.2962 1245.95 L18.2962 1240.06 L23.7071 1240.06 Q20.5242 1238.22 18.9964 1235.41 Q17.4368 1232.58 17.4368 1228.67 Q17.4368 1222.17 22.5931 1218.13 Q27.7493 1214.06 36.152 1214.06 Q44.5547 1214.06 49.711 1218.13 Q54.8672 1222.17 54.8672 1228.67 Q54.8672 1232.58 53.3394 1235.41 Q51.7798 1238.22 48.597 1240.06 M36.152 1220.14 Q29.6908 1220.14 26.0305 1222.81 Q22.3384 1225.45 22.3384 1230.1 Q22.3384 1234.75 26.0305 1237.42 Q29.6908 1240.06 36.152 1240.06 Q42.6132 1240.06 46.3053 1237.42 Q49.9656 1234.75 49.9656 1230.1 Q49.9656 1225.45 46.3053 1222.81 Q42.6132 1220.14 36.152 1220.14 Z" fill="#000000" fill-rule="nonzero" fill-opacity="1" /><path clip-path="url(#clip410)" d="M39.8759 1204.95 L18.2962 1204.95 L18.2962 1199.1 L39.6531 1199.1 Q44.7139 1199.1 47.2602 1197.12 Q49.7746 1195.15 49.7746 1191.2 Q49.7746 1186.46 46.7509 1183.72 Q43.7272 1180.96 38.5073 1180.96 L18.2962 1180.96 L18.2962 1175.1 L53.9442 1175.1 L53.9442 1180.96 L48.4696 1180.96 Q51.7162 1183.09 53.3076 1185.92 Q54.8672 1188.72 54.8672 1192.45 Q54.8672 1198.59 51.0478 1201.77 Q47.2283 1204.95 39.8759 1204.95 M17.4368 1190.22 L17.4368 1190.22 Z" fill="#000000" fill-rule="nonzero" fill-opacity="1" /><path clip-path="url(#clip410)" d="M4.41896 1163.04 L4.41896 1157.18 L53.9442 1157.18 L53.9442 1163.04 L4.41896 1163.04 Z" fill="#000000" fill-rule="nonzero" fill-opacity="1" /><path clip-path="url(#clip410)" d="M36.0247 1128.73 Q36.0247 1135.82 37.6479 1138.56 Q39.2712 1141.3 43.1861 1141.3 Q46.3053 1141.3 48.1514 1139.26 Q49.9656 1137.19 49.9656 1133.66 Q49.9656 1128.79 46.5281 1125.86 Q43.0588 1122.9 37.3297 1122.9 L36.0247 1122.9 L36.0247 1128.73 M33.6057 1117.04 L53.9442 1117.04 L53.9442 1122.9 L48.5333 1122.9 Q51.7798 1124.91 53.3394 1127.9 Q54.8672 1130.89 54.8672 1135.22 Q54.8672 1140.69 51.8116 1143.94 Q48.7243 1147.15 43.5681 1147.15 Q37.5525 1147.15 34.4969 1143.14 Q31.4414 1139.1 31.4414 1131.11 L31.4414 1122.9 L30.8685 1122.9 Q26.8262 1122.9 24.6301 1125.57 Q22.4021 1128.22 22.4021 1133.02 Q22.4021 1136.08 23.1341 1138.97 Q23.8662 1141.87 25.3303 1144.54 L19.9195 1144.54 Q18.6781 1141.33 18.0734 1138.31 Q17.4368 1135.28 17.4368 1132.42 Q17.4368 1124.68 21.4472 1120.86 Q25.4576 1117.04 33.6057 1117.04 Z" fill="#000000" fill-rule="nonzero" fill-opacity="1" /><path clip-path="url(#clip410)" d="M19.6648 1079.33 L25.1393 1079.33 Q23.7707 1081.81 23.1023 1084.32 Q22.4021 1086.81 22.4021 1089.35 Q22.4021 1095.05 26.0305 1098.2 Q29.6272 1101.35 36.152 1101.35 Q42.6769 1101.35 46.3053 1098.2 Q49.9019 1095.05 49.9019 1089.35 Q49.9019 1086.81 49.2335 1084.32 Q48.5333 1081.81 47.1647 1079.33 L52.5755 1079.33 Q53.7214 1081.78 54.2943 1084.42 Q54.8672 1087.03 54.8672 1089.99 Q54.8672 1098.04 49.8064 1102.78 Q44.7457 1107.53 36.152 1107.53 Q27.431 1107.53 22.4339 1102.75 Q17.4368 1097.95 17.4368 1089.61 Q17.4368 1086.9 18.0097 1084.32 Q18.5508 1081.75 19.6648 1079.33 M53.9442 1087.6 Q55.9175 1085.85 57.5726 1084.99 Q59.2595 1084.13 60.7873 1084.13 Q63.62 1084.13 65.0523 1086.04 Q66.5164 1087.95 66.5164 1091.71 Q66.5164 1093.17 66.3255 1094.57 Q66.1345 1095.94 65.7525 1097.31 L61.583 1097.31 Q62.1241 1096.23 62.3469 1095.05 Q62.6015 1093.87 62.6015 1092.38 Q62.6015 1090.5 61.8376 1089.54 Q61.0737 1088.59 59.6096 1088.59 Q58.6548 1088.59 57.2543 1089.29 Q55.8857 1089.96 53.9442 1091.39 L53.9442 1087.6 Z" fill="#000000" fill-rule="nonzero" fill-opacity="1" /><path clip-path="url(#clip410)" d="M36.0247 1052.94 Q36.0247 1060.04 37.6479 1062.78 Q39.2712 1065.51 43.1861 1065.51 Q46.3053 1065.51 48.1514 1063.48 Q49.9656 1061.41 49.9656 1057.87 Q49.9656 1053.01 46.5281 1050.08 Q43.0588 1047.12 37.3297 1047.12 L36.0247 1047.12 L36.0247 1052.94 M33.6057 1041.26 L53.9442 1041.26 L53.9442 1047.12 L48.5333 1047.12 Q51.7798 1049.12 53.3394 1052.11 Q54.8672 1055.11 54.8672 1059.43 Q54.8672 1064.91 51.8116 1068.16 Q48.7243 1071.37 43.5681 1071.37 Q37.5525 1071.37 34.4969 1067.36 Q31.4414 1063.32 31.4414 1055.33 L31.4414 1047.12 L30.8685 1047.12 Q26.8262 1047.12 24.6301 1049.79 Q22.4021 1052.43 22.4021 1057.24 Q22.4021 1060.29 23.1341 1063.19 Q23.8662 1066.09 25.3303 1068.76 L19.9195 1068.76 Q18.6781 1065.55 18.0734 1062.52 Q17.4368 1059.5 17.4368 1056.63 Q17.4368 1048.9 21.4472 1045.08 Q25.4576 1041.26 33.6057 1041.26 M10.3391 1056.51 L8.5885 1058.32 Q7.95193 1059.02 7.66547 1059.56 Q7.34718 1060.07 7.34718 1060.48 Q7.34718 1061.69 8.52484 1062.27 Q9.67067 1062.84 12.2806 1062.9 L12.2806 1066.88 Q7.98376 1066.82 5.66027 1065.2 Q3.30496 1063.57 3.30496 1060.68 Q3.30496 1059.47 3.75056 1058.45 Q4.19616 1057.43 5.2465 1056.25 L6.99707 1054.44 Q7.63364 1053.74 7.95193 1053.23 Q8.23838 1052.69 8.23838 1052.27 Q8.23838 1051.06 7.09256 1050.49 Q5.9149 1049.92 3.30496 1049.85 L3.30496 1045.88 Q7.60181 1045.94 9.95712 1047.56 Q12.2806 1049.19 12.2806 1052.08 Q12.2806 1053.29 11.835 1054.31 Q11.3894 1055.33 10.3391 1056.51 Z" fill="#000000" fill-rule="nonzero" fill-opacity="1" /><path clip-path="url(#clip410)" d="M22.4021 1015.38 Q22.4021 1020.09 26.0942 1022.83 Q29.7545 1025.57 36.152 1025.57 Q42.5495 1025.57 46.2417 1022.86 Q49.9019 1020.13 49.9019 1015.38 Q49.9019 1010.71 46.2098 1007.97 Q42.5177 1005.23 36.152 1005.23 Q29.8181 1005.23 26.126 1007.97 Q22.4021 1010.71 22.4021 1015.38 M17.4368 1015.38 Q17.4368 1007.74 22.4021 1003.38 Q27.3673 999.024 36.152 999.024 Q44.9049 999.024 49.9019 1003.38 Q54.8672 1007.74 54.8672 1015.38 Q54.8672 1023.05 49.9019 1027.42 Q44.9049 1031.74 36.152 1031.74 Q27.3673 1031.74 22.4021 1027.42 Q17.4368 1023.05 17.4368 1015.38 Z" fill="#000000" fill-rule="nonzero" fill-opacity="1" /><path clip-path="url(#clip410)" d="M972.365 23.3193 L979.136 23.3193 L991.288 55.958 L1003.44 23.3193 L1010.21 23.3193 L995.629 62.208 L986.948 62.208 L972.365 23.3193 Z" fill="#000000" fill-rule="nonzero" fill-opacity="1" /><path clip-path="url(#clip410)" d="M1036.7 42.6595 Q1028.96 42.6595 1025.98 44.4303 Q1022.99 46.2011 1022.99 50.472 Q1022.99 53.8747 1025.21 55.8886 Q1027.47 57.8677 1031.32 57.8677 Q1036.64 57.8677 1039.83 54.1178 Q1043.06 50.3331 1043.06 44.0831 L1043.06 42.6595 L1036.7 42.6595 M1049.45 40.0206 L1049.45 62.208 L1043.06 62.208 L1043.06 56.3053 Q1040.87 59.8469 1037.61 61.5483 Q1034.34 63.2149 1029.62 63.2149 Q1023.65 63.2149 1020.11 59.8816 Q1016.6 56.5136 1016.6 50.8886 Q1016.6 44.3262 1020.98 40.9928 Q1025.39 37.6595 1034.1 37.6595 L1043.06 37.6595 L1043.06 37.0345 Q1043.06 32.6248 1040.14 30.229 Q1037.26 27.7985 1032.02 27.7985 Q1028.68 27.7985 1025.52 28.5971 Q1022.36 29.3957 1019.45 30.9929 L1019.45 25.0901 Q1022.95 23.736 1026.25 23.0763 Q1029.55 22.3818 1032.68 22.3818 Q1041.11 22.3818 1045.28 26.7568 Q1049.45 31.1318 1049.45 40.0206 Z" fill="#000000" fill-rule="nonzero" fill-opacity="1" /><path clip-path="url(#clip410)" d="M1062.61 8.18051 L1069 8.18051 L1069 62.208 L1062.61 62.208 L1062.61 8.18051 Z" fill="#000000" fill-rule="nonzero" fill-opacity="1" /><path clip-path="url(#clip410)" d="M1097.43 27.7985 Q1092.29 27.7985 1089.31 31.8262 Q1086.32 35.8193 1086.32 42.7984 Q1086.32 49.7775 1089.27 53.8053 Q1092.26 57.7983 1097.43 57.7983 Q1102.54 57.7983 1105.52 53.7705 Q1108.51 49.7428 1108.51 42.7984 Q1108.51 35.8887 1105.52 31.8609 Q1102.54 27.7985 1097.43 27.7985 M1097.43 22.3818 Q1105.77 22.3818 1110.52 27.7985 Q1115.28 33.2151 1115.28 42.7984 Q1115.28 52.3469 1110.52 57.7983 Q1105.77 63.2149 1097.43 63.2149 Q1089.07 63.2149 1084.31 57.7983 Q1079.59 52.3469 1079.59 42.7984 Q1079.59 33.2151 1084.31 27.7985 Q1089.07 22.3818 1097.43 22.3818 Z" fill="#000000" fill-rule="nonzero" fill-opacity="1" /><path clip-path="url(#clip410)" d="M1148.41 29.2915 Q1147.33 28.6665 1146.04 28.3887 Q1144.79 28.0762 1143.27 28.0762 Q1137.85 28.0762 1134.93 31.6179 Q1132.05 35.1248 1132.05 41.722 L1132.05 62.208 L1125.63 62.208 L1125.63 23.3193 L1132.05 23.3193 L1132.05 29.361 Q1134.07 25.8193 1137.29 24.1179 Q1140.52 22.3818 1145.14 22.3818 Q1145.8 22.3818 1146.6 22.486 Q1147.4 22.5554 1148.37 22.729 L1148.41 29.2915 Z" fill="#000000" fill-rule="nonzero" fill-opacity="1" /><path clip-path="url(#clip410)" d="M1210.97 41.1664 L1210.97 44.2914 L1181.6 44.2914 Q1182.02 50.8886 1185.56 54.3608 Q1189.13 57.7983 1195.49 57.7983 Q1199.17 57.7983 1202.61 56.8955 Q1206.08 55.9928 1209.48 54.1872 L1209.48 60.2288 Q1206.04 61.6872 1202.43 62.4511 Q1198.82 63.2149 1195.11 63.2149 Q1185.8 63.2149 1180.35 57.7983 Q1174.93 52.3817 1174.93 43.1456 Q1174.93 33.597 1180.07 28.0068 Q1185.25 22.3818 1194 22.3818 Q1201.84 22.3818 1206.39 27.4512 Q1210.97 32.4859 1210.97 41.1664 M1204.59 39.2915 Q1204.52 34.0484 1201.63 30.9234 Q1198.79 27.7985 1194.07 27.7985 Q1188.72 27.7985 1185.49 30.8193 Q1182.29 33.8401 1181.81 39.3262 L1204.59 39.2915 Z" fill="#000000" fill-rule="nonzero" fill-opacity="1" /><path clip-path="url(#clip410)" d="M1246.25 24.4651 L1246.25 30.5068 Q1243.54 29.1179 1240.63 28.4235 Q1237.71 27.729 1234.59 27.729 Q1229.83 27.729 1227.43 29.1873 Q1225.07 30.6457 1225.07 33.5623 Q1225.07 35.7845 1226.77 37.0692 Q1228.47 38.3192 1233.61 39.4651 L1235.8 39.9512 Q1242.61 41.4095 1245.45 44.0831 Q1248.34 46.722 1248.34 51.4789 Q1248.34 56.8955 1244.03 60.0552 Q1239.76 63.2149 1232.26 63.2149 Q1229.13 63.2149 1225.73 62.5899 Q1222.36 61.9997 1218.61 60.7844 L1218.61 54.1872 Q1222.16 56.0275 1225.59 56.965 Q1229.03 57.8677 1232.4 57.8677 Q1236.91 57.8677 1239.34 56.34 Q1241.77 54.7775 1241.77 51.965 Q1241.77 49.3608 1240 47.972 Q1238.27 46.5831 1232.33 45.2984 L1230.11 44.7775 Q1224.17 43.5275 1221.53 40.9581 Q1218.89 38.354 1218.89 33.8401 Q1218.89 28.354 1222.78 25.3679 Q1226.67 22.3818 1233.82 22.3818 Q1237.36 22.3818 1240.49 22.9027 Q1243.61 23.4235 1246.25 24.4651 Z" fill="#000000" fill-rule="nonzero" fill-opacity="1" /><path clip-path="url(#clip410)" d="M1264.69 56.3747 L1264.69 76.9996 L1258.27 76.9996 L1258.27 23.3193 L1264.69 23.3193 L1264.69 29.2221 Q1266.7 25.7499 1269.76 24.0832 Q1272.85 22.3818 1277.12 22.3818 Q1284.2 22.3818 1288.61 28.0068 Q1293.06 33.6318 1293.06 42.7984 Q1293.06 51.965 1288.61 57.59 Q1284.2 63.2149 1277.12 63.2149 Q1272.85 63.2149 1269.76 61.5483 Q1266.7 59.8469 1264.69 56.3747 M1286.43 42.7984 Q1286.43 35.7498 1283.51 31.7568 Q1280.63 27.729 1275.56 27.729 Q1270.49 27.729 1267.57 31.7568 Q1264.69 35.7498 1264.69 42.7984 Q1264.69 49.847 1267.57 53.8747 Q1270.49 57.8677 1275.56 57.8677 Q1280.63 57.8677 1283.51 53.8747 Q1286.43 49.847 1286.43 42.7984 Z" fill="#000000" fill-rule="nonzero" fill-opacity="1" /><path clip-path="url(#clip410)" d="M1336.91 41.1664 L1336.91 44.2914 L1307.54 44.2914 Q1307.95 50.8886 1311.49 54.3608 Q1315.07 57.7983 1321.43 57.7983 Q1325.11 57.7983 1328.54 56.8955 Q1332.02 55.9928 1335.42 54.1872 L1335.42 60.2288 Q1331.98 61.6872 1328.37 62.4511 Q1324.76 63.2149 1321.04 63.2149 Q1311.74 63.2149 1306.29 57.7983 Q1300.87 52.3817 1300.87 43.1456 Q1300.87 33.597 1306.01 28.0068 Q1311.18 22.3818 1319.93 22.3818 Q1327.78 22.3818 1332.33 27.4512 Q1336.91 32.4859 1336.91 41.1664 M1330.52 39.2915 Q1330.45 34.0484 1327.57 30.9234 Q1324.72 27.7985 1320 27.7985 Q1314.65 27.7985 1311.43 30.8193 Q1308.23 33.8401 1307.74 39.3262 L1330.52 39.2915 Z" fill="#000000" fill-rule="nonzero" fill-opacity="1" /><path clip-path="url(#clip410)" d="M1369.93 29.2915 Q1368.86 28.6665 1367.57 28.3887 Q1366.32 28.0762 1364.79 28.0762 Q1359.38 28.0762 1356.46 31.6179 Q1353.58 35.1248 1353.58 41.722 L1353.58 62.208 L1347.15 62.208 L1347.15 23.3193 L1353.58 23.3193 L1353.58 29.361 Q1355.59 25.8193 1358.82 24.1179 Q1362.05 22.3818 1366.67 22.3818 Q1367.33 22.3818 1368.13 22.486 Q1368.93 22.5554 1369.9 22.729 L1369.93 29.2915 Z" fill="#000000" fill-rule="nonzero" fill-opacity="1" /><path clip-path="url(#clip410)" d="M1394.31 42.6595 Q1386.56 42.6595 1383.58 44.4303 Q1380.59 46.2011 1380.59 50.472 Q1380.59 53.8747 1382.81 55.8886 Q1385.07 57.8677 1388.93 57.8677 Q1394.24 57.8677 1397.43 54.1178 Q1400.66 50.3331 1400.66 44.0831 L1400.66 42.6595 L1394.31 42.6595 M1407.05 40.0206 L1407.05 62.208 L1400.66 62.208 L1400.66 56.3053 Q1398.47 59.8469 1395.21 61.5483 Q1391.95 63.2149 1387.22 63.2149 Q1381.25 63.2149 1377.71 59.8816 Q1374.2 56.5136 1374.2 50.8886 Q1374.2 44.3262 1378.58 40.9928 Q1382.99 37.6595 1391.7 37.6595 L1400.66 37.6595 L1400.66 37.0345 Q1400.66 32.6248 1397.74 30.229 Q1394.86 27.7985 1389.62 27.7985 Q1386.29 27.7985 1383.13 28.5971 Q1379.97 29.3957 1377.05 30.9929 L1377.05 25.0901 Q1380.56 23.736 1383.86 23.0763 Q1387.15 22.3818 1390.28 22.3818 Q1398.72 22.3818 1402.88 26.7568 Q1407.05 31.1318 1407.05 40.0206 Z" fill="#000000" fill-rule="nonzero" fill-opacity="1" /><path clip-path="url(#clip410)" d="M1445.8 29.2221 L1445.8 8.18051 L1452.19 8.18051 L1452.19 62.208 L1445.8 62.208 L1445.8 56.3747 Q1443.79 59.8469 1440.7 61.5483 Q1437.64 63.2149 1433.33 63.2149 Q1426.29 63.2149 1421.84 57.59 Q1417.43 51.965 1417.43 42.7984 Q1417.43 33.6318 1421.84 28.0068 Q1426.29 22.3818 1433.33 22.3818 Q1437.64 22.3818 1440.7 24.0832 Q1443.79 25.7499 1445.8 29.2221 M1424.03 42.7984 Q1424.03 49.847 1426.91 53.8747 Q1429.83 57.8677 1434.9 57.8677 Q1439.97 57.8677 1442.88 53.8747 Q1445.8 49.847 1445.8 42.7984 Q1445.8 35.7498 1442.88 31.7568 Q1439.97 27.729 1434.9 27.729 Q1429.83 27.729 1426.91 31.7568 Q1424.03 35.7498 1424.03 42.7984 Z" fill="#000000" fill-rule="nonzero" fill-opacity="1" /><path clip-path="url(#clip410)" d="M1480.42 27.7985 Q1475.28 27.7985 1472.29 31.8262 Q1469.31 35.8193 1469.31 42.7984 Q1469.31 49.7775 1472.26 53.8053 Q1475.24 57.7983 1480.42 57.7983 Q1485.52 57.7983 1488.51 53.7705 Q1491.49 49.7428 1491.49 42.7984 Q1491.49 35.8887 1488.51 31.8609 Q1485.52 27.7985 1480.42 27.7985 M1480.42 22.3818 Q1488.75 22.3818 1493.51 27.7985 Q1498.26 33.2151 1498.26 42.7984 Q1498.26 52.3469 1493.51 57.7983 Q1488.75 63.2149 1480.42 63.2149 Q1472.05 63.2149 1467.29 57.7983 Q1462.57 52.3469 1462.57 42.7984 Q1462.57 33.2151 1467.29 27.7985 Q1472.05 22.3818 1480.42 22.3818 Z" fill="#000000" fill-rule="nonzero" fill-opacity="1" /><path clip-path="url(#clip410)" d="M1564.72 41.1664 L1564.72 44.2914 L1535.35 44.2914 Q1535.76 50.8886 1539.31 54.3608 Q1542.88 57.7983 1549.24 57.7983 Q1552.92 57.7983 1556.35 56.8955 Q1559.83 55.9928 1563.23 54.1872 L1563.23 60.2288 Q1559.79 61.6872 1556.18 62.4511 Q1552.57 63.2149 1548.85 63.2149 Q1539.55 63.2149 1534.1 57.7983 Q1528.68 52.3817 1528.68 43.1456 Q1528.68 33.597 1533.82 28.0068 Q1538.99 22.3818 1547.74 22.3818 Q1555.59 22.3818 1560.14 27.4512 Q1564.72 32.4859 1564.72 41.1664 M1558.33 39.2915 Q1558.26 34.0484 1555.38 30.9234 Q1552.54 27.7985 1547.81 27.7985 Q1542.47 27.7985 1539.24 30.8193 Q1536.04 33.8401 1535.56 39.3262 L1558.33 39.2915 Z" fill="#000000" fill-rule="nonzero" fill-opacity="1" /><path clip-path="url(#clip410)" d="M1597.81 23.3193 L1604.2 23.3193 L1604.2 62.208 L1597.81 62.208 L1597.81 23.3193 M1597.81 8.18051 L1604.2 8.18051 L1604.2 16.2707 L1597.81 16.2707 L1597.81 8.18051 Z" fill="#000000" fill-rule="nonzero" fill-opacity="1" /><path clip-path="url(#clip410)" d="M1649.9 38.7359 L1649.9 62.208 L1643.51 62.208 L1643.51 38.9442 Q1643.51 33.4234 1641.35 30.6804 Q1639.2 27.9374 1634.9 27.9374 Q1629.72 27.9374 1626.74 31.2359 Q1623.75 34.5345 1623.75 40.229 L1623.75 62.208 L1617.33 62.208 L1617.33 23.3193 L1623.75 23.3193 L1623.75 29.361 Q1626.04 25.854 1629.13 24.1179 Q1632.26 22.3818 1636.32 22.3818 Q1643.02 22.3818 1646.46 26.5485 Q1649.9 30.6804 1649.9 38.7359 Z" fill="#000000" fill-rule="nonzero" fill-opacity="1" /><path clip-path="url(#clip410)" d="M1668.96 12.2777 L1668.96 23.3193 L1682.12 23.3193 L1682.12 28.2846 L1668.96 28.2846 L1668.96 49.3956 Q1668.96 54.1525 1670.24 55.5066 Q1671.56 56.8608 1675.56 56.8608 L1682.12 56.8608 L1682.12 62.208 L1675.56 62.208 Q1668.16 62.208 1665.35 59.465 Q1662.53 56.6872 1662.53 49.3956 L1662.53 28.2846 L1657.85 28.2846 L1657.85 23.3193 L1662.53 23.3193 L1662.53 12.2777 L1668.96 12.2777 Z" fill="#000000" fill-rule="nonzero" fill-opacity="1" /><path clip-path="url(#clip410)" d="M1723.78 41.1664 L1723.78 44.2914 L1694.41 44.2914 Q1694.83 50.8886 1698.37 54.3608 Q1701.94 57.7983 1708.3 57.7983 Q1711.98 57.7983 1715.42 56.8955 Q1718.89 55.9928 1722.29 54.1872 L1722.29 60.2288 Q1718.85 61.6872 1715.24 62.4511 Q1711.63 63.2149 1707.92 63.2149 Q1698.61 63.2149 1693.16 57.7983 Q1687.74 52.3817 1687.74 43.1456 Q1687.74 33.597 1692.88 28.0068 Q1698.06 22.3818 1706.81 22.3818 Q1714.65 22.3818 1719.2 27.4512 Q1723.78 32.4859 1723.78 41.1664 M1717.4 39.2915 Q1717.33 34.0484 1714.44 30.9234 Q1711.6 27.7985 1706.87 27.7985 Q1701.53 27.7985 1698.3 30.8193 Q1695.1 33.8401 1694.62 39.3262 L1717.4 39.2915 Z" fill="#000000" fill-rule="nonzero" fill-opacity="1" /><path clip-path="url(#clip410)" d="M1756.81 29.2915 Q1755.73 28.6665 1754.44 28.3887 Q1753.19 28.0762 1751.67 28.0762 Q1746.25 28.0762 1743.33 31.6179 Q1740.45 35.1248 1740.45 41.722 L1740.45 62.208 L1734.03 62.208 L1734.03 23.3193 L1740.45 23.3193 L1740.45 29.361 Q1742.46 25.8193 1745.69 24.1179 Q1748.92 22.3818 1753.54 22.3818 Q1754.2 22.3818 1755 22.486 Q1755.8 22.5554 1756.77 22.729 L1756.81 29.2915 Z" fill="#000000" fill-rule="nonzero" fill-opacity="1" /><path clip-path="url(#clip410)" d="M1758.92 23.3193 L1765.69 23.3193 L1777.85 55.958 L1790 23.3193 L1796.77 23.3193 L1782.19 62.208 L1773.51 62.208 L1758.92 23.3193 Z" fill="#000000" fill-rule="nonzero" fill-opacity="1" /><path clip-path="url(#clip410)" d="M1823.26 42.6595 Q1815.52 42.6595 1812.53 44.4303 Q1809.55 46.2011 1809.55 50.472 Q1809.55 53.8747 1811.77 55.8886 Q1814.03 57.8677 1817.88 57.8677 Q1823.19 57.8677 1826.39 54.1178 Q1829.62 50.3331 1829.62 44.0831 L1829.62 42.6595 L1823.26 42.6595 M1836.01 40.0206 L1836.01 62.208 L1829.62 62.208 L1829.62 56.3053 Q1827.43 59.8469 1824.17 61.5483 Q1820.9 63.2149 1816.18 63.2149 Q1810.21 63.2149 1806.67 59.8816 Q1803.16 56.5136 1803.16 50.8886 Q1803.16 44.3262 1807.53 40.9928 Q1811.94 37.6595 1820.66 37.6595 L1829.62 37.6595 L1829.62 37.0345 Q1829.62 32.6248 1826.7 30.229 Q1823.82 27.7985 1818.58 27.7985 Q1815.24 27.7985 1812.08 28.5971 Q1808.92 29.3957 1806.01 30.9929 L1806.01 25.0901 Q1809.51 23.736 1812.81 23.0763 Q1816.11 22.3818 1819.24 22.3818 Q1827.67 22.3818 1831.84 26.7568 Q1836.01 31.1318 1836.01 40.0206 Z" fill="#000000" fill-rule="nonzero" fill-opacity="1" /><path clip-path="url(#clip410)" d="M1849.17 8.18051 L1855.55 8.18051 L1855.55 62.208 L1849.17 62.208 L1849.17 8.18051 Z" fill="#000000" fill-rule="nonzero" fill-opacity="1" /><path clip-path="url(#clip410)" d="M1883.99 27.7985 Q1878.85 27.7985 1875.87 31.8262 Q1872.88 35.8193 1872.88 42.7984 Q1872.88 49.7775 1875.83 53.8053 Q1878.82 57.7983 1883.99 57.7983 Q1889.1 57.7983 1892.08 53.7705 Q1895.07 49.7428 1895.07 42.7984 Q1895.07 35.8887 1892.08 31.8609 Q1889.1 27.7985 1883.99 27.7985 M1883.99 22.3818 Q1892.33 22.3818 1897.08 27.7985 Q1901.84 33.2151 1901.84 42.7984 Q1901.84 52.3469 1897.08 57.7983 Q1892.33 63.2149 1883.99 63.2149 Q1875.62 63.2149 1870.87 57.7983 Q1866.14 52.3469 1866.14 42.7984 Q1866.14 33.2151 1870.87 27.7985 Q1875.62 22.3818 1883.99 22.3818 Z" fill="#000000" fill-rule="nonzero" fill-opacity="1" /><path clip-path="url(#clip410)" d="M1937.22 24.4651 L1937.22 30.5068 Q1934.51 29.1179 1931.6 28.4235 Q1928.68 27.729 1925.55 27.729 Q1920.8 27.729 1918.4 29.1873 Q1916.04 30.6457 1916.04 33.5623 Q1916.04 35.7845 1917.74 37.0692 Q1919.44 38.3192 1924.58 39.4651 L1926.77 39.9512 Q1933.57 41.4095 1936.42 44.0831 Q1939.3 46.722 1939.3 51.4789 Q1939.3 56.8955 1935 60.0552 Q1930.73 63.2149 1923.23 63.2149 Q1920.1 63.2149 1916.7 62.5899 Q1913.33 61.9997 1909.58 60.7844 L1909.58 54.1872 Q1913.12 56.0275 1916.56 56.965 Q1920 57.8677 1923.37 57.8677 Q1927.88 57.8677 1930.31 56.34 Q1932.74 54.7775 1932.74 51.965 Q1932.74 49.3608 1930.97 47.972 Q1929.23 46.5831 1923.3 45.2984 L1921.08 44.7775 Q1915.14 43.5275 1912.5 40.9581 Q1909.86 38.354 1909.86 33.8401 Q1909.86 28.354 1913.75 25.3679 Q1917.64 22.3818 1924.79 22.3818 Q1928.33 22.3818 1931.46 22.9027 Q1934.58 23.4235 1937.22 24.4651 Z" fill="#000000" fill-rule="nonzero" fill-opacity="1" /><path clip-path="url(#clip410)" d="M1997.67 29.2221 L1997.67 8.18051 L2004.06 8.18051 L2004.06 62.208 L1997.67 62.208 L1997.67 56.3747 Q1995.66 59.8469 1992.57 61.5483 Q1989.51 63.2149 1985.21 63.2149 Q1978.16 63.2149 1973.71 57.59 Q1969.3 51.965 1969.3 42.7984 Q1969.3 33.6318 1973.71 28.0068 Q1978.16 22.3818 1985.21 22.3818 Q1989.51 22.3818 1992.57 24.0832 Q1995.66 25.7499 1997.67 29.2221 M1975.9 42.7984 Q1975.9 49.847 1978.78 53.8747 Q1981.7 57.8677 1986.77 57.8677 Q1991.84 57.8677 1994.76 53.8747 Q1997.67 49.847 1997.67 42.7984 Q1997.67 35.7498 1994.76 31.7568 Q1991.84 27.729 1986.77 27.729 Q1981.7 27.729 1978.78 31.7568 Q1975.9 35.7498 1975.9 42.7984 Z" fill="#000000" fill-rule="nonzero" fill-opacity="1" /><path clip-path="url(#clip410)" d="M2050.48 41.1664 L2050.48 44.2914 L2021.11 44.2914 Q2021.53 50.8886 2025.07 54.3608 Q2028.64 57.7983 2035 57.7983 Q2038.68 57.7983 2042.12 56.8955 Q2045.59 55.9928 2048.99 54.1872 L2048.99 60.2288 Q2045.55 61.6872 2041.94 62.4511 Q2038.33 63.2149 2034.62 63.2149 Q2025.31 63.2149 2019.86 57.7983 Q2014.44 52.3817 2014.44 43.1456 Q2014.44 33.597 2019.58 28.0068 Q2024.76 22.3818 2033.5 22.3818 Q2041.35 22.3818 2045.9 27.4512 Q2050.48 32.4859 2050.48 41.1664 M2044.1 39.2915 Q2044.03 34.0484 2041.14 30.9234 Q2038.3 27.7985 2033.57 27.7985 Q2028.23 27.7985 2025 30.8193 Q2021.8 33.8401 2021.32 39.3262 L2044.1 39.2915 Z" fill="#000000" fill-rule="nonzero" fill-opacity="1" /><path clip-path="url(#clip410)" d="M2111.56 24.8124 L2111.56 30.7846 Q2108.85 29.2915 2106.11 28.5623 Q2103.4 27.7985 2100.62 27.7985 Q2094.41 27.7985 2090.97 31.7568 Q2087.53 35.6804 2087.53 42.7984 Q2087.53 49.9164 2090.97 53.8747 Q2094.41 57.7983 2100.62 57.7983 Q2103.4 57.7983 2106.11 57.0691 Q2108.85 56.3053 2111.56 54.8122 L2111.56 60.715 Q2108.89 61.9649 2106 62.5899 Q2103.16 63.2149 2099.93 63.2149 Q2091.14 63.2149 2085.97 57.6941 Q2080.8 52.1733 2080.8 42.7984 Q2080.8 33.2845 2086 27.8332 Q2091.25 22.3818 2100.34 22.3818 Q2103.3 22.3818 2106.11 23.0068 Q2108.92 23.5971 2111.56 24.8124 Z" fill="#000000" fill-rule="nonzero" fill-opacity="1" /><path clip-path="url(#clip410)" d="M2137.74 27.7985 Q2132.6 27.7985 2129.62 31.8262 Q2126.63 35.8193 2126.63 42.7984 Q2126.63 49.7775 2129.58 53.8053 Q2132.57 57.7983 2137.74 57.7983 Q2142.84 57.7983 2145.83 53.7705 Q2148.82 49.7428 2148.82 42.7984 Q2148.82 35.8887 2145.83 31.8609 Q2142.84 27.7985 2137.74 27.7985 M2137.74 22.3818 Q2146.07 22.3818 2150.83 27.7985 Q2155.59 33.2151 2155.59 42.7984 Q2155.59 52.3469 2150.83 57.7983 Q2146.07 63.2149 2137.74 63.2149 Q2129.37 63.2149 2124.62 57.7983 Q2119.89 52.3469 2119.89 42.7984 Q2119.89 33.2151 2124.62 27.7985 Q2129.37 22.3818 2137.74 22.3818 Z" fill="#000000" fill-rule="nonzero" fill-opacity="1" /><path clip-path="url(#clip410)" d="M2198.5 38.7359 L2198.5 62.208 L2192.12 62.208 L2192.12 38.9442 Q2192.12 33.4234 2189.96 30.6804 Q2187.81 27.9374 2183.5 27.9374 Q2178.33 27.9374 2175.34 31.2359 Q2172.36 34.5345 2172.36 40.229 L2172.36 62.208 L2165.93 62.208 L2165.93 23.3193 L2172.36 23.3193 L2172.36 29.361 Q2174.65 25.854 2177.74 24.1179 Q2180.87 22.3818 2184.93 22.3818 Q2191.63 22.3818 2195.07 26.5485 Q2198.5 30.6804 2198.5 38.7359 Z" fill="#000000" fill-rule="nonzero" fill-opacity="1" /><path clip-path="url(#clip410)" d="M2230.93 8.18051 L2230.93 13.493 L2224.82 13.493 Q2221.39 13.493 2220.03 14.8819 Q2218.71 16.2707 2218.71 19.8818 L2218.71 23.3193 L2229.23 23.3193 L2229.23 28.2846 L2218.71 28.2846 L2218.71 62.208 L2212.29 62.208 L2212.29 28.2846 L2206.18 28.2846 L2206.18 23.3193 L2212.29 23.3193 L2212.29 20.611 Q2212.29 14.118 2215.31 11.1666 Q2218.33 8.18051 2224.89 8.18051 L2230.93 8.18051 Z" fill="#000000" fill-rule="nonzero" fill-opacity="1" /><path clip-path="url(#clip410)" d="M2236.28 23.3193 L2242.67 23.3193 L2242.67 62.208 L2236.28 62.208 L2236.28 23.3193 M2236.28 8.18051 L2242.67 8.18051 L2242.67 16.2707 L2236.28 16.2707 L2236.28 8.18051 Z" fill="#000000" fill-rule="nonzero" fill-opacity="1" /><path clip-path="url(#clip410)" d="M2273.71 42.6595 Q2265.97 42.6595 2262.98 44.4303 Q2260 46.2011 2260 50.472 Q2260 53.8747 2262.22 55.8886 Q2264.48 57.8677 2268.33 57.8677 Q2273.64 57.8677 2276.84 54.1178 Q2280.07 50.3331 2280.07 44.0831 L2280.07 42.6595 L2273.71 42.6595 M2286.45 40.0206 L2286.45 62.208 L2280.07 62.208 L2280.07 56.3053 Q2277.88 59.8469 2274.61 61.5483 Q2271.35 63.2149 2266.63 63.2149 Q2260.66 63.2149 2257.11 59.8816 Q2253.61 56.5136 2253.61 50.8886 Q2253.61 44.3262 2257.98 40.9928 Q2262.39 37.6595 2271.11 37.6595 L2280.07 37.6595 L2280.07 37.0345 Q2280.07 32.6248 2277.15 30.229 Q2274.27 27.7985 2269.02 27.7985 Q2265.69 27.7985 2262.53 28.5971 Q2259.37 29.3957 2256.46 30.9929 L2256.46 25.0901 Q2259.96 23.736 2263.26 23.0763 Q2266.56 22.3818 2269.68 22.3818 Q2278.12 22.3818 2282.29 26.7568 Q2286.45 31.1318 2286.45 40.0206 Z" fill="#000000" fill-rule="nonzero" fill-opacity="1" /><path clip-path="url(#clip410)" d="M2331.94 38.7359 L2331.94 62.208 L2325.55 62.208 L2325.55 38.9442 Q2325.55 33.4234 2323.4 30.6804 Q2321.25 27.9374 2316.94 27.9374 Q2311.77 27.9374 2308.78 31.2359 Q2305.8 34.5345 2305.8 40.229 L2305.8 62.208 L2299.37 62.208 L2299.37 23.3193 L2305.8 23.3193 L2305.8 29.361 Q2308.09 25.854 2311.18 24.1179 Q2314.3 22.3818 2318.36 22.3818 Q2325.07 22.3818 2328.5 26.5485 Q2331.94 30.6804 2331.94 38.7359 Z" fill="#000000" fill-rule="nonzero" fill-opacity="1" /><path clip-path="url(#clip410)" d="M2372.67 24.8124 L2372.67 30.7846 Q2369.96 29.2915 2367.22 28.5623 Q2364.51 27.7985 2361.73 27.7985 Q2355.52 27.7985 2352.08 31.7568 Q2348.64 35.6804 2348.64 42.7984 Q2348.64 49.9164 2352.08 53.8747 Q2355.52 57.7983 2361.73 57.7983 Q2364.51 57.7983 2367.22 57.0691 Q2369.96 56.3053 2372.67 54.8122 L2372.67 60.715 Q2370 61.9649 2367.11 62.5899 Q2364.27 63.2149 2361.04 63.2149 Q2352.25 63.2149 2347.08 57.6941 Q2341.91 52.1733 2341.91 42.7984 Q2341.91 33.2845 2347.11 27.8332 Q2352.36 22.3818 2361.45 22.3818 Q2364.41 22.3818 2367.22 23.0068 Q2370.03 23.5971 2372.67 24.8124 M2363.64 62.208 Q2365.55 64.3608 2366.49 66.1663 Q2367.43 68.0066 2367.43 69.6732 Q2367.43 72.7635 2365.34 74.326 Q2363.26 75.9232 2359.16 75.9232 Q2357.57 75.9232 2356.04 75.7149 Q2354.54 75.5065 2353.05 75.0899 L2353.05 70.5413 Q2354.23 71.1316 2355.52 71.3746 Q2356.8 71.6524 2358.43 71.6524 Q2360.48 71.6524 2361.52 70.8191 Q2362.57 69.9857 2362.57 68.3885 Q2362.57 67.3469 2361.8 65.8191 Q2361.07 64.326 2359.51 62.208 L2363.64 62.208 Z" fill="#000000" fill-rule="nonzero" fill-opacity="1" /><path clip-path="url(#clip410)" d="M2401.45 42.6595 Q2393.71 42.6595 2390.73 44.4303 Q2387.74 46.2011 2387.74 50.472 Q2387.74 53.8747 2389.96 55.8886 Q2392.22 57.8677 2396.07 57.8677 Q2401.38 57.8677 2404.58 54.1178 Q2407.81 50.3331 2407.81 44.0831 L2407.81 42.6595 L2401.45 42.6595 M2414.2 40.0206 L2414.2 62.208 L2407.81 62.208 L2407.81 56.3053 Q2405.62 59.8469 2402.36 61.5483 Q2399.09 63.2149 2394.37 63.2149 Q2388.4 63.2149 2384.86 59.8816 Q2381.35 56.5136 2381.35 50.8886 Q2381.35 44.3262 2385.73 40.9928 Q2390.13 37.6595 2398.85 37.6595 L2407.81 37.6595 L2407.81 37.0345 Q2407.81 32.6248 2404.89 30.229 Q2402.01 27.7985 2396.77 27.7985 Q2393.43 27.7985 2390.27 28.5971 Q2387.11 29.3957 2384.2 30.9929 L2384.2 25.0901 Q2387.7 23.736 2391 23.0763 Q2394.3 22.3818 2397.43 22.3818 Q2405.86 22.3818 2410.03 26.7568 Q2414.2 31.1318 2414.2 40.0206 Z" fill="#000000" fill-rule="nonzero" fill-opacity="1" /><path clip-path="url(#clip412)" d="M316.418 2145.95 L330.256 2125.4 L344.094 2103.81 L357.932 2081.09 L371.769 2057.2 L385.607 2032.13 L399.445 2005.87 L413.283 1978.41 L427.121 1949.66 L440.958 1919.56 L454.796 1888.25 L468.634 1855.74 L482.472 1822.06 L496.31 1787.25 L510.148 1751.34 L523.985 1714.4 L537.823 1676.49 L551.661 1637.68 L565.499 1598.06 L579.337 1557.72 L593.174 1516.75 L607.012 1475.26 L620.85 1433.36 L634.688 1391.17 L648.526 1349.22 L662.364 1307.06 L676.201 1264.67 L690.039 1222.46 L703.877 1180.55 L717.715 1139.03 L731.553 1097.72 L745.39 1057.27 L759.228 1018.1 L773.066 979.958 L786.904 942.744 L800.742 906.872 L814.58 872.091 L828.417 838.33 L842.255 804.887 L856.093 773.051 L869.931 742.806 L883.769 713.535 L897.606 685.376 L911.444 659.005 L925.282 633.861 L939.12 609.382 L952.958 585.45 L966.796 562.608 L980.633 541.408 L994.471 521.112 L1008.31 501.559 L1022.15 483.056 L1035.98 465.568 L1049.82 450.358 L1063.66 437.117 L1077.5 424.036 L1091.34 411.15 L1105.17 399.578 L1119.01 389.323 L1132.85 379.78 L1146.69 370.64 L1160.53 361.669 L1174.36 352.98 L1188.2 346.05 L1202.04 339.604 L1215.88 332.653 L1229.71 326.609 L1243.55 321.542 L1257.39 316.465 L1271.23 311.257 L1285.07 306.975 L1298.9 302.672 L1312.74 298.353 L1326.58 294.33 L1340.42 290.815 L1354.25 287.736 L1368.09 285.11 L1381.93 282.884 L1395.77 280.813 L1409.61 278.889 L1423.44 277.102 L1437.28 275.445 L1451.12 273.928 L1464.96 272.487 L1478.79 270.971 L1492.63 269.583 L1506.47 268.306 L1520.31 266.952 L1534.15 265.664 L1547.98 264.485 L1561.82 263.387 L1575.66 262.362 L1589.5 261.398 L1603.34 260.493 L1617.17 259.65 L1631.01 258.801 L1644.85 257.994 L1658.69 257.265 L1672.52 256.675 L1686.36 256.127 L1700.2 255.617 L1714.04 255.149 L1727.88 254.723 L1741.71 254.326 L1755.55 253.956 L1769.39 253.613 L1783.23 253.296 L1797.06 253.014 L1810.9 252.78 L1824.74 252.563 L1838.58 252.361 L1852.42 252.175 L1866.25 252.002 L1880.09 251.844 L1893.93 251.697 L1907.77 251.563 L1921.61 251.439 L1935.44 251.307 L1949.28 251.185 L1963.12 251.074 L1976.96 250.972 L1990.79 250.879 L2004.63 250.795 L2018.47 250.718 L2032.31 250.647 L2046.15 250.582 L2059.98 250.521 L2073.82 250.464 L2087.66 250.41 L2101.5 250.357 L2115.33 250.306 L2129.17 250.257 L2143.01 250.211 L2156.85 250.167 L2170.69 250.127 L2184.52 250.09 L2198.36 250.055 L2212.2 250.023 L2226.04 249.994 L2239.87 249.967 L2253.71 249.942 L2267.55 249.92 L2281.39 249.9 L2295.23 249.883 L2309.06 249.866 L2322.9 249.852 L2336.74 249.839 L2350.58 249.828 L2364.42 249.817 L2378.25 249.807 L2392.09 249.798 L2405.93 249.79 L2419.77 249.781 L2433.6 249.772 L2447.44 249.763 L2461.28 249.754 L2475.12 249.746 L2488.96 249.737 L2502.79 249.729 L2516.63 249.721 L2530.47 249.713 L2544.31 249.706 L2558.14 249.7 L2571.98 249.694 L2585.82 249.688 L2599.66 249.683 L2613.5 249.679 L2627.33 249.675 L2641.17 249.672 L2655.01 249.669 L2668.85 249.667 L2682.69 249.666 L2696.52 249.665 L2710.36 249.664 L2724.2 249.664 L2738.04 249.664 L2751.87 249.664 L2765.71 249.665 L2779.55 249.666 L2793.39 249.667 L2807.23 249.668 L2821.06 249.668 L2834.9 249.669 L2848.74 249.669 L2862.58 249.669 L2876.41 249.669 L2890.25 249.668 L2904.09 249.666 L2917.93 249.665 L2931.77 249.664 L2945.6 249.662 L2959.44 249.661 L2973.28 249.66 L2987.12 249.659 L3000.96 249.658 L3014.79 249.657 L3028.63 249.656 L3042.47 249.656 L3056.31 249.655 L3070.14 249.654 L3070.14 180.282 L3056.31 180.283 L3042.47 180.284 L3028.63 180.284 L3014.79 180.285 L3000.96 180.286 L2987.12 180.287 L2973.28 180.288 L2959.44 180.289 L2945.6 180.291 L2931.77 180.292 L2917.93 180.293 L2904.09 180.295 L2890.25 180.296 L2876.41 180.298 L2862.58 180.299 L2848.74 180.3 L2834.9 180.301 L2821.06 180.301 L2807.23 180.301 L2793.39 180.3 L2779.55 180.299 L2765.71 180.299 L2751.87 180.298 L2738.04 180.298 L2724.2 180.298 L2710.36 180.298 L2696.52 180.298 L2682.69 180.299 L2668.85 180.301 L2655.01 180.303 L2641.17 180.305 L2627.33 180.308 L2613.5 180.312 L2599.66 180.317 L2585.82 180.322 L2571.98 180.328 L2558.14 180.334 L2544.31 180.342 L2530.47 180.349 L2516.63 180.358 L2502.79 180.367 L2488.96 180.377 L2475.12 180.387 L2461.28 180.397 L2447.44 180.408 L2433.6 180.419 L2419.77 180.43 L2405.93 180.441 L2392.09 180.452 L2378.25 180.463 L2364.42 180.474 L2350.58 180.487 L2336.74 180.5 L2322.9 180.515 L2309.06 180.531 L2295.23 180.55 L2281.39 180.57 L2267.55 180.593 L2253.71 180.618 L2239.87 180.646 L2226.04 180.676 L2212.2 180.71 L2198.36 180.746 L2184.52 180.786 L2170.69 180.83 L2156.85 180.876 L2143.01 180.927 L2129.17 180.98 L2115.33 181.038 L2101.5 181.099 L2087.66 181.162 L2073.82 181.228 L2059.98 181.297 L2046.15 181.369 L2032.31 181.446 L2018.47 181.529 L2004.63 181.619 L1990.79 181.717 L1976.96 181.825 L1963.12 181.942 L1949.28 182.071 L1935.44 182.213 L1921.61 182.367 L1907.77 182.535 L1893.93 182.718 L1880.09 182.917 L1866.25 183.132 L1852.42 183.364 L1838.58 183.609 L1824.74 183.838 L1810.9 184.082 L1797.06 184.342 L1783.23 184.619 L1769.39 184.916 L1755.55 185.208 L1741.71 185.517 L1727.88 185.852 L1714.04 186.214 L1700.2 186.606 L1686.36 187.032 L1672.52 187.493 L1658.69 187.993 L1644.85 188.534 L1631.01 189.118 L1617.17 189.748 L1603.34 190.427 L1589.5 191.157 L1575.66 191.942 L1561.82 192.784 L1547.98 193.684 L1534.15 194.648 L1520.31 195.686 L1506.47 196.803 L1492.63 198.009 L1478.79 199.312 L1464.96 200.719 L1451.12 202.239 L1437.28 203.881 L1423.44 205.677 L1409.61 207.615 L1395.77 209.674 L1381.93 211.766 L1368.09 214.061 L1354.25 216.567 L1340.42 219.252 L1326.58 222.132 L1312.74 225.227 L1298.9 228.554 L1285.07 232.132 L1271.23 235.98 L1257.39 240.118 L1243.55 244.538 L1229.71 249.285 L1215.88 254.73 L1202.04 260.883 L1188.2 266.851 L1174.36 273.321 L1160.53 280.14 L1146.69 287.436 L1132.85 295.592 L1119.01 304.039 L1105.17 312.867 L1091.34 322.136 L1077.5 332.077 L1063.66 342.636 L1049.82 353.938 L1035.98 366.024 L1022.15 378.622 L1008.31 392.029 L994.471 407.277 L980.633 422.419 L966.796 438.486 L952.958 455.229 L939.12 473.096 L925.282 492.207 L911.444 512.485 L897.606 534.556 L883.769 557.685 L869.931 580.77 L856.093 605.25 L842.255 631.063 L828.417 658.604 L814.58 686.453 L800.742 715.687 L786.904 746.1 L773.066 777.162 L759.228 809.838 L745.39 844.947 L731.553 880.497 L717.715 916.983 L703.877 953.776 L690.039 991.264 L676.201 1029.64 L662.364 1068.78 L648.526 1108.99 L634.688 1149.75 L620.85 1190.76 L607.012 1232.74 L593.174 1275.16 L579.337 1317.69 L565.499 1359.89 L551.661 1401.85 L537.823 1443.58 L523.985 1485.07 L510.148 1526.15 L496.31 1566.69 L482.472 1606.6 L468.634 1645.79 L454.796 1684.34 L440.958 1722.11 L427.121 1758.85 L413.283 1794.78 L399.445 1829.58 L385.607 1863.22 L371.769 1895.65 L357.932 1926.85 L344.094 1956.8 L330.256 1985.43 L316.418 2012.75  Z" fill="#009af9" fill-rule="evenodd" fill-opacity="0.2"/>
<polyline clip-path="url(#clip412)" style="stroke:#009af9; stroke-linecap:round; stroke-linejoin:round; stroke-width:12; stroke-opacity:1; fill:none" points="316.418,2074.76 330.256,2050.44 344.094,2024.92 357.932,1998.22 371.769,1970.47 385.607,1941.51 399.445,1911.35 413.283,1880 427.121,1847.49 440.958,1813.83 454.796,1779.07 468.634,1743.09 482.472,1705.95 496.31,1667.85 510.148,1628.88 523.985,1589.1 537.823,1548.61 551.661,1507.51 565.499,1465.91 579.337,1423.93 593.174,1382 607.012,1340.02 620.85,1298.51 634.688,1256.74 648.526,1214.32 662.364,1172.12 676.201,1130.35 690.039,1089.62 703.877,1049.31 717.715,1010.72 731.553,972.389 745.39,934.948 759.228,899.169 773.066,863.837 786.904,829.726 800.742,796.908 814.58,765.455 828.417,734.895 842.255,705.442 856.093,677.096 869.931,649.798 883.769,624.725 897.606,599.594 911.444,576.984 925.282,554.762 939.12,533.102 952.958,513.901 966.796,494.964 980.633,476.645 994.471,460.319 1008.31,444.868 1022.15,429.765 1035.98,415.52 1049.82,402.951 1063.66,390.852 1077.5,378.801 1091.34,368.483 1105.17,358.458 1119.01,349.05 1132.85,340.056 1146.69,331.574 1160.53,324.152 1174.36,316.984 1188.2,310.22 1202.04,303.482 1215.88,297.216 1229.71,291.604 1243.55,286.351 1257.39,281.046 1271.23,276.362 1285.07,271.879 1298.9,267.643 1312.74,263.89 1326.58,260.763 1340.42,257.788 1354.25,254.488 1368.09,251.811 1381.93,249.709 1395.77,247.106 1409.61,244.596 1423.44,242.536 1437.28,240.623 1451.12,238.658 1464.96,237.061 1478.79,235.503 1492.63,233.87 1506.47,232.485 1520.31,231.337 1534.15,230.14 1547.98,229.01 1561.82,228.083 1575.66,227.281 1589.5,226.479 1603.34,225.609 1617.17,224.804 1631.01,224.057 1644.85,223.418 1658.69,222.799 1672.52,222.174 1686.36,221.595 1700.2,221.075 1714.04,220.627 1727.88,220.214 1741.71,219.831 1755.55,219.477 1769.39,219.148 1783.23,218.844 1797.06,218.558 1810.9,218.274 1824.74,218.036 1838.58,217.82 1852.42,217.619 1866.25,217.431 1880.09,217.257 1893.93,217.096 1907.77,216.933 1921.61,216.776 1935.44,216.632 1949.28,216.5 1963.12,216.382 1976.96,216.285 1990.79,216.197 2004.63,216.116 2018.47,216.042 2032.31,215.975 2046.15,215.912 2059.98,215.854 2073.82,215.8 2087.66,215.748 2101.5,215.699 2115.33,215.653 2129.17,215.609 2143.01,215.567 2156.85,215.528 2170.69,215.49 2184.52,215.455 2198.36,215.423 2212.2,215.392 2226.04,215.365 2239.87,215.339 2253.71,215.315 2267.55,215.294 2281.39,215.275 2295.23,215.257 2309.06,215.241 2322.9,215.227 2336.74,215.215 2350.58,215.204 2364.42,215.194 2378.25,215.184 2392.09,215.176 2405.93,215.168 2419.77,215.161 2433.6,215.153 2447.44,215.146 2461.28,215.14 2475.12,215.133 2488.96,215.127 2502.79,215.12 2516.63,215.114 2530.47,215.108 2544.31,215.101 2558.14,215.096 2571.98,215.09 2585.82,215.085 2599.66,215.08 2613.5,215.076 2627.33,215.072 2641.17,215.068 2655.01,215.065 2668.85,215.063 2682.69,215.061 2696.52,215.059 2710.36,215.058 2724.2,215.057 2738.04,215.056 2751.87,215.056 2765.71,215.056 2779.55,215.056 2793.39,215.056 2807.23,215.056 2821.06,215.057 2834.9,215.057 2848.74,215.057 2862.58,215.057 2876.41,215.057 2890.25,215.056 2904.09,215.056 2917.93,215.056 2931.77,215.055 2945.6,215.055 2959.44,215.055 2973.28,215.054 2987.12,215.054 3000.96,215.053 3014.79,215.052 3028.63,215.051 3042.47,215.05 3056.31,215.05 3070.14,215.049 "/>
<path clip-path="url(#clip412)" d="M316.418 2127.83 L330.256 2106.3 L344.094 2083.62 L357.932 2059.76 L371.769 2034.71 L385.607 2008.44 L399.445 1980.94 L413.283 1952.19 L427.121 1922.21 L440.958 1891 L454.796 1858.59 L468.634 1825.02 L482.472 1790.3 L496.31 1754.5 L510.148 1717.65 L523.985 1679.84 L537.823 1641.12 L551.661 1601.59 L565.499 1561.38 L579.337 1520.84 L593.174 1479.8 L607.012 1438.25 L620.85 1395.93 L634.688 1353.4 L648.526 1311.24 L662.364 1269.8 L676.201 1228.6 L690.039 1187.67 L703.877 1146.4 L717.715 1105.25 L731.553 1064.69 L745.39 1024.83 L759.228 985.754 L773.066 947.566 L786.904 910.361 L800.742 874.32 L814.58 840.56 L828.417 807.471 L842.255 775.528 L856.093 744.759 L869.931 714.921 L883.769 686.284 L897.606 658.862 L911.444 632.651 L925.282 608.605 L939.12 584.542 L952.958 561.588 L966.796 539.61 L980.633 519.466 L994.471 500.842 L1008.31 483.109 L1022.15 466.383 L1035.98 450.552 L1049.82 434.848 L1063.66 420.427 L1077.5 406.804 L1091.34 395.583 L1105.17 384.668 L1119.01 374.57 L1132.85 363.895 L1146.69 354.793 L1160.53 346.16 L1174.36 338.205 L1188.2 330.589 L1202.04 323.935 L1215.88 317.613 L1229.71 312.089 L1243.55 306.211 L1257.39 301.62 L1271.23 297.08 L1285.07 292.342 L1298.9 288.921 L1312.74 285.179 L1326.58 281.76 L1340.42 278.727 L1354.25 276.218 L1368.09 273.009 L1381.93 269.986 L1395.77 267.204 L1409.61 264.806 L1423.44 262.687 L1437.28 260.703 L1451.12 258.989 L1464.96 257.491 L1478.79 256.008 L1492.63 254.374 L1506.47 253.079 L1520.31 251.893 L1534.15 250.811 L1547.98 249.854 L1561.82 248.761 L1575.66 247.691 L1589.5 246.691 L1603.34 245.993 L1617.17 245.338 L1631.01 244.671 L1644.85 244.054 L1658.69 243.482 L1672.52 242.954 L1686.36 242.465 L1700.2 242.013 L1714.04 241.595 L1727.88 241.209 L1741.71 240.85 L1755.55 240.558 L1769.39 240.307 L1783.23 240.075 L1797.06 239.86 L1810.9 239.66 L1824.74 239.473 L1838.58 239.298 L1852.42 239.133 L1866.25 238.978 L1880.09 238.834 L1893.93 238.7 L1907.77 238.575 L1921.61 238.46 L1935.44 238.354 L1949.28 238.256 L1963.12 238.166 L1976.96 238.083 L1990.79 238.007 L2004.63 237.938 L2018.47 237.874 L2032.31 237.816 L2046.15 237.762 L2059.98 237.712 L2073.82 237.666 L2087.66 237.624 L2101.5 237.585 L2115.33 237.548 L2129.17 237.513 L2143.01 237.479 L2156.85 237.446 L2170.69 237.415 L2184.52 237.386 L2198.36 237.358 L2212.2 237.332 L2226.04 237.308 L2239.87 237.286 L2253.71 237.265 L2267.55 237.247 L2281.39 237.229 L2295.23 237.214 L2309.06 237.2 L2322.9 237.187 L2336.74 237.176 L2350.58 237.166 L2364.42 237.157 L2378.25 237.149 L2392.09 237.142 L2405.93 237.136 L2419.77 237.131 L2433.6 237.126 L2447.44 237.121 L2461.28 237.117 L2475.12 237.113 L2488.96 237.109 L2502.79 237.105 L2516.63 237.1 L2530.47 237.095 L2544.31 237.09 L2558.14 237.085 L2571.98 237.08 L2585.82 237.075 L2599.66 237.071 L2613.5 237.067 L2627.33 237.063 L2641.17 237.06 L2655.01 237.056 L2668.85 237.053 L2682.69 237.051 L2696.52 237.049 L2710.36 237.047 L2724.2 237.045 L2738.04 237.044 L2751.87 237.043 L2765.71 237.043 L2779.55 237.042 L2793.39 237.042 L2807.23 237.042 L2821.06 237.042 L2834.9 237.042 L2848.74 237.043 L2862.58 237.043 L2876.41 237.044 L2890.25 237.044 L2904.09 237.045 L2917.93 237.046 L2931.77 237.046 L2945.6 237.047 L2959.44 237.047 L2973.28 237.047 L2987.12 237.047 L3000.96 237.046 L3014.79 237.045 L3028.63 237.044 L3042.47 237.043 L3056.31 237.042 L3070.14 237.042 L3070.14 191.079 L3056.31 191.08 L3042.47 191.081 L3028.63 191.082 L3014.79 191.082 L3000.96 191.082 L2987.12 191.081 L2973.28 191.08 L2959.44 191.079 L2945.6 191.078 L2931.77 191.077 L2917.93 191.075 L2904.09 191.074 L2890.25 191.073 L2876.41 191.071 L2862.58 191.071 L2848.74 191.07 L2834.9 191.069 L2821.06 191.069 L2807.23 191.069 L2793.39 191.07 L2779.55 191.071 L2765.71 191.072 L2751.87 191.074 L2738.04 191.077 L2724.2 191.079 L2710.36 191.082 L2696.52 191.086 L2682.69 191.09 L2668.85 191.094 L2655.01 191.099 L2641.17 191.104 L2627.33 191.109 L2613.5 191.114 L2599.66 191.12 L2585.82 191.126 L2571.98 191.132 L2558.14 191.137 L2544.31 191.143 L2530.47 191.148 L2516.63 191.153 L2502.79 191.158 L2488.96 191.164 L2475.12 191.17 L2461.28 191.176 L2447.44 191.182 L2433.6 191.19 L2419.77 191.198 L2405.93 191.207 L2392.09 191.218 L2378.25 191.229 L2364.42 191.242 L2350.58 191.257 L2336.74 191.273 L2322.9 191.291 L2309.06 191.31 L2295.23 191.332 L2281.39 191.355 L2267.55 191.379 L2253.71 191.406 L2239.87 191.435 L2226.04 191.465 L2212.2 191.498 L2198.36 191.531 L2184.52 191.564 L2170.69 191.597 L2156.85 191.631 L2143.01 191.667 L2129.17 191.706 L2115.33 191.748 L2101.5 191.793 L2087.66 191.843 L2073.82 191.898 L2059.98 191.959 L2046.15 192.026 L2032.31 192.101 L2018.47 192.184 L2004.63 192.275 L1990.79 192.374 L1976.96 192.483 L1963.12 192.602 L1949.28 192.731 L1935.44 192.87 L1921.61 193.019 L1907.77 193.18 L1893.93 193.351 L1880.09 193.534 L1866.25 193.728 L1852.42 193.935 L1838.58 194.157 L1824.74 194.397 L1810.9 194.654 L1797.06 194.939 L1783.23 195.19 L1769.39 195.463 L1755.55 195.759 L1741.71 196.079 L1727.88 196.425 L1714.04 196.799 L1700.2 197.203 L1686.36 197.637 L1672.52 198.104 L1658.69 198.605 L1644.85 199.141 L1631.01 199.716 L1617.17 200.334 L1603.34 201.106 L1589.5 202.097 L1575.66 202.946 L1561.82 203.921 L1547.98 204.964 L1534.15 206.082 L1520.31 207.239 L1506.47 208.267 L1492.63 209.377 L1478.79 210.641 L1464.96 212.014 L1451.12 213.572 L1437.28 215.56 L1423.44 217.706 L1409.61 219.851 L1395.77 222.017 L1381.93 224.836 L1368.09 228.055 L1354.25 230.801 L1340.42 233.743 L1326.58 237.153 L1312.74 240.652 L1298.9 244.419 L1285.07 248.664 L1271.23 252.778 L1257.39 257.953 L1243.55 262.657 L1229.71 268.302 L1215.88 274.098 L1202.04 279.594 L1188.2 285.754 L1174.36 292.943 L1160.53 299.724 L1146.69 306.803 L1132.85 314.54 L1119.01 323.016 L1105.17 331.915 L1091.34 341.393 L1077.5 351.558 L1063.66 362.23 L1049.82 372.958 L1035.98 385.745 L1022.15 399.138 L1008.31 412.294 L994.471 427.093 L980.633 442.562 L966.796 459.802 L952.958 477.885 L939.12 496.237 L925.282 514.714 L911.444 534.421 L897.606 555.25 L883.769 579.214 L869.931 603.371 L856.093 628.124 L842.255 654.199 L828.417 681.723 L814.58 709.451 L800.742 739.583 L786.904 771.052 L773.066 803.189 L759.228 836.725 L745.39 870.273 L731.553 904.842 L717.715 942.24 L703.877 980.534 L690.039 1019.12 L676.201 1058 L662.364 1097.76 L648.526 1138.89 L634.688 1179.58 L620.85 1221.52 L607.012 1263.46 L593.174 1305.53 L579.337 1347.7 L565.499 1389.86 L551.661 1431.85 L537.823 1473.51 L523.985 1514.79 L510.148 1555.34 L496.31 1595.39 L482.472 1634.78 L468.634 1673.38 L454.796 1711.14 L440.958 1748.06 L427.121 1784.06 L413.283 1819.05 L399.445 1852.68 L385.607 1885.15 L371.769 1916.44 L357.932 1946.45 L344.094 1975.23 L330.256 2002.8 L316.418 2029.17  Z" fill="#e26f46" fill-rule="evenodd" fill-opacity="0.2"/>
<polyline clip-path="url(#clip412)" style="stroke:#e26f46; stroke-linecap:round; stroke-linejoin:round; stroke-width:12; stroke-opacity:1; fill:none" points="316.418,2074.76 330.256,2050.44 344.094,2024.92 357.932,1998.22 371.769,1970.47 385.607,1941.51 399.445,1911.35 413.283,1880 427.121,1847.49 440.958,1813.83 454.796,1779.07 468.634,1743.09 482.472,1705.95 496.31,1667.85 510.148,1628.88 523.985,1589.1 537.823,1548.61 551.661,1507.51 565.499,1465.91 579.337,1423.93 593.174,1382 607.012,1340.02 620.85,1298.51 634.688,1256.74 648.526,1214.32 662.364,1172.12 676.201,1130.35 690.039,1089.62 703.877,1049.31 717.715,1010.72 731.553,972.389 745.39,934.948 759.228,899.169 773.066,863.837 786.904,829.726 800.742,796.908 814.58,765.455 828.417,734.895 842.255,705.442 856.093,677.096 869.931,649.798 883.769,624.725 897.606,599.594 911.444,576.984 925.282,554.762 939.12,533.102 952.958,513.901 966.796,494.964 980.633,476.645 994.471,460.319 1008.31,444.868 1022.15,429.765 1035.98,415.52 1049.82,402.951 1063.66,390.852 1077.5,378.801 1091.34,368.483 1105.17,358.458 1119.01,349.05 1132.85,340.056 1146.69,331.574 1160.53,324.152 1174.36,316.984 1188.2,310.22 1202.04,303.482 1215.88,297.216 1229.71,291.604 1243.55,286.351 1257.39,281.046 1271.23,276.362 1285.07,271.879 1298.9,267.643 1312.74,263.89 1326.58,260.763 1340.42,257.788 1354.25,254.488 1368.09,251.811 1381.93,249.709 1395.77,247.106 1409.61,244.596 1423.44,242.536 1437.28,240.623 1451.12,238.658 1464.96,237.061 1478.79,235.503 1492.63,233.87 1506.47,232.485 1520.31,231.337 1534.15,230.14 1547.98,229.01 1561.82,228.083 1575.66,227.281 1589.5,226.479 1603.34,225.609 1617.17,224.804 1631.01,224.057 1644.85,223.418 1658.69,222.799 1672.52,222.174 1686.36,221.595 1700.2,221.075 1714.04,220.627 1727.88,220.214 1741.71,219.831 1755.55,219.477 1769.39,219.148 1783.23,218.844 1797.06,218.558 1810.9,218.274 1824.74,218.036 1838.58,217.82 1852.42,217.619 1866.25,217.431 1880.09,217.257 1893.93,217.096 1907.77,216.933 1921.61,216.776 1935.44,216.632 1949.28,216.5 1963.12,216.382 1976.96,216.285 1990.79,216.197 2004.63,216.116 2018.47,216.042 2032.31,215.975 2046.15,215.912 2059.98,215.854 2073.82,215.8 2087.66,215.748 2101.5,215.699 2115.33,215.653 2129.17,215.609 2143.01,215.567 2156.85,215.528 2170.69,215.49 2184.52,215.455 2198.36,215.423 2212.2,215.392 2226.04,215.365 2239.87,215.339 2253.71,215.315 2267.55,215.294 2281.39,215.275 2295.23,215.257 2309.06,215.241 2322.9,215.227 2336.74,215.215 2350.58,215.204 2364.42,215.194 2378.25,215.184 2392.09,215.176 2405.93,215.168 2419.77,215.161 2433.6,215.153 2447.44,215.146 2461.28,215.14 2475.12,215.133 2488.96,215.127 2502.79,215.12 2516.63,215.114 2530.47,215.108 2544.31,215.101 2558.14,215.096 2571.98,215.09 2585.82,215.085 2599.66,215.08 2613.5,215.076 2627.33,215.072 2641.17,215.068 2655.01,215.065 2668.85,215.063 2682.69,215.061 2696.52,215.059 2710.36,215.058 2724.2,215.057 2738.04,215.056 2751.87,215.056 2765.71,215.056 2779.55,215.056 2793.39,215.056 2807.23,215.056 2821.06,215.057 2834.9,215.057 2848.74,215.057 2862.58,215.057 2876.41,215.057 2890.25,215.056 2904.09,215.056 2917.93,215.056 2931.77,215.055 2945.6,215.055 2959.44,215.055 2973.28,215.054 2987.12,215.054 3000.96,215.053 3014.79,215.052 3028.63,215.051 3042.47,215.05 3056.31,215.05 3070.14,215.049 "/>
<path clip-path="url(#clip410)" d="M2663.79 2135.47 L3055.46 2135.47 L3055.46 1979.95 L2663.79 1979.95  Z" fill="#eaeaea" fill-rule="evenodd" fill-opacity="1"/>
<polyline clip-path="url(#clip410)" style="stroke:#ffffff; stroke-linecap:round; stroke-linejoin:round; stroke-width:4; stroke-opacity:1; fill:none" points="2663.79,2135.47 3055.46,2135.47 3055.46,1979.95 2663.79,1979.95 2663.79,2135.47 "/>
<polyline clip-path="url(#clip410)" style="stroke:#009af9; stroke-linecap:round; stroke-linejoin:round; stroke-width:12; stroke-opacity:1; fill:none" points="2696.23,2031.79 2890.82,2031.79 "/>
<path clip-path="url(#clip410)" d="M2925.48 2048.35 L2925.48 2044.09 Q2927.24 2044.92 2929.04 2045.36 Q2930.85 2045.8 2932.59 2045.8 Q2937.22 2045.8 2939.65 2042.7 Q2942.1 2039.58 2942.45 2033.23 Q2941.1 2035.22 2939.04 2036.29 Q2936.98 2037.35 2934.48 2037.35 Q2929.3 2037.35 2926.27 2034.23 Q2923.26 2031.08 2923.26 2025.64 Q2923.26 2020.32 2926.4 2017.1 Q2929.55 2013.88 2934.78 2013.88 Q2940.78 2013.88 2943.93 2018.49 Q2947.1 2023.07 2947.1 2031.82 Q2947.1 2039.99 2943.21 2044.88 Q2939.34 2049.74 2932.79 2049.74 Q2931.03 2049.74 2929.23 2049.39 Q2927.42 2049.04 2925.48 2048.35 M2934.78 2033.7 Q2937.93 2033.7 2939.76 2031.54 Q2941.61 2029.39 2941.61 2025.64 Q2941.61 2021.91 2939.76 2019.76 Q2937.93 2017.58 2934.78 2017.58 Q2931.64 2017.58 2929.78 2019.76 Q2927.96 2021.91 2927.96 2025.64 Q2927.96 2029.39 2929.78 2031.54 Q2931.64 2033.7 2934.78 2033.7 Z" fill="#000000" fill-rule="nonzero" fill-opacity="1" /><path clip-path="url(#clip410)" d="M2955.55 2014.51 L2973.9 2014.51 L2973.9 2018.44 L2959.83 2018.44 L2959.83 2026.91 Q2960.85 2026.57 2961.87 2026.4 Q2962.89 2026.22 2963.9 2026.22 Q2969.69 2026.22 2973.07 2029.39 Q2976.45 2032.56 2976.45 2037.98 Q2976.45 2043.56 2972.98 2046.66 Q2969.51 2049.74 2963.19 2049.74 Q2961.01 2049.74 2958.74 2049.37 Q2956.5 2049 2954.09 2048.26 L2954.09 2043.56 Q2956.17 2044.69 2958.4 2045.25 Q2960.62 2045.8 2963.09 2045.8 Q2967.1 2045.8 2969.44 2043.7 Q2971.78 2041.59 2971.78 2037.98 Q2971.78 2034.37 2969.44 2032.26 Q2967.1 2030.15 2963.09 2030.15 Q2961.22 2030.15 2959.34 2030.57 Q2957.49 2030.99 2955.55 2031.87 L2955.55 2014.51 Z" fill="#000000" fill-rule="nonzero" fill-opacity="1" /><path clip-path="url(#clip410)" d="M3015.06 2033.86 Q3013.05 2033.86 3011.89 2035.57 Q3010.76 2037.28 3010.76 2040.34 Q3010.76 2043.35 3011.89 2045.08 Q3013.05 2046.8 3015.06 2046.8 Q3017.03 2046.8 3018.16 2045.08 Q3019.32 2043.35 3019.32 2040.34 Q3019.32 2037.31 3018.16 2035.59 Q3017.03 2033.86 3015.06 2033.86 M3015.06 2030.92 Q3018.72 2030.92 3020.87 2033.46 Q3023.02 2036.01 3023.02 2040.34 Q3023.02 2044.67 3020.85 2047.21 Q3018.7 2049.74 3015.06 2049.74 Q3011.36 2049.74 3009.21 2047.21 Q3007.05 2044.67 3007.05 2040.34 Q3007.05 2035.99 3009.21 2033.46 Q3011.38 2030.92 3015.06 2030.92 M2991.17 2016.82 Q2989.18 2016.82 2988.02 2018.56 Q2986.89 2020.27 2986.89 2023.28 Q2986.89 2026.33 2988.02 2028.05 Q2989.16 2029.76 2991.17 2029.76 Q2993.19 2029.76 2994.32 2028.05 Q2995.48 2026.33 2995.48 2023.28 Q2995.48 2020.29 2994.32 2018.56 Q2993.16 2016.82 2991.17 2016.82 M3012.08 2013.88 L3015.78 2013.88 L2994.16 2049.74 L2990.46 2049.74 L3012.08 2013.88 M2991.17 2013.88 Q2994.83 2013.88 2997.01 2016.43 Q2999.18 2018.95 2999.18 2023.28 Q2999.18 2027.65 2997.01 2030.18 Q2994.85 2032.7 2991.17 2032.7 Q2987.49 2032.7 2985.34 2030.18 Q2983.21 2027.63 2983.21 2023.28 Q2983.21 2018.97 2985.36 2016.43 Q2987.52 2013.88 2991.17 2013.88 Z" fill="#000000" fill-rule="nonzero" fill-opacity="1" /><polyline clip-path="url(#clip410)" style="stroke:#e26f46; stroke-linecap:round; stroke-linejoin:round; stroke-width:12; stroke-opacity:1; fill:none" points="2696.23,2083.63 2890.82,2083.63 "/>
<path clip-path="url(#clip410)" d="M2935.59 2081.76 Q2932.45 2081.76 2930.59 2083.92 Q2928.77 2086.07 2928.77 2089.82 Q2928.77 2093.55 2930.59 2095.72 Q2932.45 2097.87 2935.59 2097.87 Q2938.74 2097.87 2940.57 2095.72 Q2942.42 2093.55 2942.42 2089.82 Q2942.42 2086.07 2940.57 2083.92 Q2938.74 2081.76 2935.59 2081.76 M2944.88 2067.11 L2944.88 2071.37 Q2943.12 2070.54 2941.31 2070.1 Q2939.53 2069.66 2937.77 2069.66 Q2933.14 2069.66 2930.69 2072.78 Q2928.26 2075.91 2927.91 2082.23 Q2929.28 2080.21 2931.34 2079.15 Q2933.4 2078.06 2935.87 2078.06 Q2941.08 2078.06 2944.09 2081.23 Q2947.12 2084.38 2947.12 2089.82 Q2947.12 2095.14 2943.97 2098.36 Q2940.83 2101.58 2935.59 2101.58 Q2929.6 2101.58 2926.43 2096.99 Q2923.26 2092.39 2923.26 2083.66 Q2923.26 2075.47 2927.15 2070.61 Q2931.03 2065.72 2937.59 2065.72 Q2939.34 2065.72 2941.13 2066.07 Q2942.93 2066.42 2944.88 2067.11 Z" fill="#000000" fill-rule="nonzero" fill-opacity="1" /><path clip-path="url(#clip410)" d="M2965.18 2084.49 Q2961.84 2084.49 2959.92 2086.28 Q2958.03 2088.06 2958.03 2091.18 Q2958.03 2094.31 2959.92 2096.09 Q2961.84 2097.87 2965.18 2097.87 Q2968.51 2097.87 2970.43 2096.09 Q2972.35 2094.29 2972.35 2091.18 Q2972.35 2088.06 2970.43 2086.28 Q2968.53 2084.49 2965.18 2084.49 M2960.5 2082.5 Q2957.49 2081.76 2955.8 2079.7 Q2954.14 2077.64 2954.14 2074.68 Q2954.14 2070.54 2957.08 2068.13 Q2960.04 2065.72 2965.18 2065.72 Q2970.34 2065.72 2973.28 2068.13 Q2976.22 2070.54 2976.22 2074.68 Q2976.22 2077.64 2974.53 2079.7 Q2972.86 2081.76 2969.88 2082.5 Q2973.26 2083.29 2975.13 2085.58 Q2977.03 2087.87 2977.03 2091.18 Q2977.03 2096.21 2973.95 2098.89 Q2970.9 2101.58 2965.18 2101.58 Q2959.46 2101.58 2956.38 2098.89 Q2953.33 2096.21 2953.33 2091.18 Q2953.33 2087.87 2955.22 2085.58 Q2957.12 2083.29 2960.5 2082.5 M2958.79 2075.12 Q2958.79 2077.8 2960.46 2079.31 Q2962.15 2080.81 2965.18 2080.81 Q2968.19 2080.81 2969.88 2079.31 Q2971.59 2077.8 2971.59 2075.12 Q2971.59 2072.43 2969.88 2070.93 Q2968.19 2069.42 2965.18 2069.42 Q2962.15 2069.42 2960.46 2070.93 Q2958.79 2072.43 2958.79 2075.12 Z" fill="#000000" fill-rule="nonzero" fill-opacity="1" /><path clip-path="url(#clip410)" d="M3014.74 2085.7 Q3012.72 2085.7 3011.57 2087.41 Q3010.43 2089.12 3010.43 2092.18 Q3010.43 2095.19 3011.57 2096.92 Q3012.72 2098.64 3014.74 2098.64 Q3016.71 2098.64 3017.84 2096.92 Q3019 2095.19 3019 2092.18 Q3019 2089.15 3017.84 2087.43 Q3016.71 2085.7 3014.74 2085.7 M3014.74 2082.76 Q3018.4 2082.76 3020.55 2085.3 Q3022.7 2087.85 3022.7 2092.18 Q3022.7 2096.51 3020.52 2099.05 Q3018.37 2101.58 3014.74 2101.58 Q3011.03 2101.58 3008.88 2099.05 Q3006.73 2096.51 3006.73 2092.18 Q3006.73 2087.83 3008.88 2085.3 Q3011.06 2082.76 3014.74 2082.76 M2990.85 2068.66 Q2988.86 2068.66 2987.7 2070.4 Q2986.57 2072.11 2986.57 2075.12 Q2986.57 2078.17 2987.7 2079.89 Q2988.84 2081.6 2990.85 2081.6 Q2992.86 2081.6 2994 2079.89 Q2995.15 2078.17 2995.15 2075.12 Q2995.15 2072.13 2994 2070.4 Q2992.84 2068.66 2990.85 2068.66 M3011.75 2065.72 L3015.46 2065.72 L2993.84 2101.58 L2990.13 2101.58 L3011.75 2065.72 M2990.85 2065.72 Q2994.51 2065.72 2996.68 2068.27 Q2998.86 2070.79 2998.86 2075.12 Q2998.86 2079.49 2996.68 2082.02 Q2994.53 2084.54 2990.85 2084.54 Q2987.17 2084.54 2985.02 2082.02 Q2982.89 2079.47 2982.89 2075.12 Q2982.89 2070.81 2985.04 2068.27 Q2987.19 2065.72 2990.85 2065.72 Z" fill="#000000" fill-rule="nonzero" fill-opacity="1" /></svg>
