<?xml version="1.0" encoding="utf-8"?>
<svg xmlns="http://www.w3.org/2000/svg" xmlns:xlink="http://www.w3.org/1999/xlink" width="800" height="600" viewBox="0 0 3200 2400">
<defs>
  <clipPath id="clip850">
    <rect x="0" y="0" width="3200" height="2400"/>
  </clipPath>
</defs>
<path clip-path="url(#clip850)" d="M0 2400 L3200 2400 L3200 0 L0 0  Z" fill="#ffffff" fill-rule="evenodd" fill-opacity="1"/>
<defs>
  <clipPath id="clip851">
    <rect x="640" y="0" width="2241" height="2241"/>
  </clipPath>
</defs>
<path clip-path="url(#clip850)" d="M233.806 2204.92 L3152.76 2204.92 L3152.76 121.312 L233.806 121.312  Z" fill="#eaeaea" fill-rule="evenodd" fill-opacity="1"/>
<defs>
  <clipPath id="clip852">
    <rect x="233" y="121" width="2920" height="2085"/>
  </clipPath>
</defs>
<polyline clip-path="url(#clip852)" style="stroke:#ffffff; stroke-linecap:round; stroke-linejoin:round; stroke-width:2; stroke-opacity:1; fill:none" points="591.791,2204.92 591.791,121.312 "/>
<polyline clip-path="url(#clip852)" style="stroke:#ffffff; stroke-linecap:round; stroke-linejoin:round; stroke-width:2; stroke-opacity:1; fill:none" points="1142.54,2204.92 1142.54,121.312 "/>
<polyline clip-path="url(#clip852)" style="stroke:#ffffff; stroke-linecap:round; stroke-linejoin:round; stroke-width:2; stroke-opacity:1; fill:none" points="1693.28,2204.92 1693.28,121.312 "/>
<polyline clip-path="url(#clip852)" style="stroke:#ffffff; stroke-linecap:round; stroke-linejoin:round; stroke-width:2; stroke-opacity:1; fill:none" points="2244.03,2204.92 2244.03,121.312 "/>
<polyline clip-path="url(#clip852)" style="stroke:#ffffff; stroke-linecap:round; stroke-linejoin:round; stroke-width:2; stroke-opacity:1; fill:none" points="2794.77,2204.92 2794.77,121.312 "/>
<polyline clip-path="url(#clip852)" style="stroke:#ffffff; stroke-linecap:round; stroke-linejoin:round; stroke-width:2; stroke-opacity:1; fill:none" points="233.806,2005.25 3152.76,2005.25 "/>
<polyline clip-path="url(#clip852)" style="stroke:#ffffff; stroke-linecap:round; stroke-linejoin:round; stroke-width:2; stroke-opacity:1; fill:none" points="233.806,1706.85 3152.76,1706.85 "/>
<polyline clip-path="url(#clip852)" style="stroke:#ffffff; stroke-linecap:round; stroke-linejoin:round; stroke-width:2; stroke-opacity:1; fill:none" points="233.806,1408.45 3152.76,1408.45 "/>
<polyline clip-path="url(#clip852)" style="stroke:#ffffff; stroke-linecap:round; stroke-linejoin:round; stroke-width:2; stroke-opacity:1; fill:none" points="233.806,1110.06 3152.76,1110.06 "/>
<polyline clip-path="url(#clip852)" style="stroke:#ffffff; stroke-linecap:round; stroke-linejoin:round; stroke-width:2; stroke-opacity:1; fill:none" points="233.806,811.658 3152.76,811.658 "/>
<polyline clip-path="url(#clip852)" style="stroke:#ffffff; stroke-linecap:round; stroke-linejoin:round; stroke-width:2; stroke-opacity:1; fill:none" points="233.806,513.261 3152.76,513.261 "/>
<polyline clip-path="url(#clip852)" style="stroke:#ffffff; stroke-linecap:round; stroke-linejoin:round; stroke-width:2; stroke-opacity:1; fill:none" points="233.806,214.863 3152.76,214.863 "/>
<polyline clip-path="url(#clip852)" style="stroke:#ffffff; stroke-linecap:round; stroke-linejoin:round; stroke-width:4; stroke-opacity:1; fill:none" points="316.418,2204.92 316.418,121.312 "/>
<polyline clip-path="url(#clip852)" style="stroke:#ffffff; stroke-linecap:round; stroke-linejoin:round; stroke-width:4; stroke-opacity:1; fill:none" points="867.163,2204.92 867.163,121.312 "/>
<polyline clip-path="url(#clip852)" style="stroke:#ffffff; stroke-linecap:round; stroke-linejoin:round; stroke-width:4; stroke-opacity:1; fill:none" points="1417.91,2204.92 1417.91,121.312 "/>
<polyline clip-path="url(#clip852)" style="stroke:#ffffff; stroke-linecap:round; stroke-linejoin:round; stroke-width:4; stroke-opacity:1; fill:none" points="1968.65,2204.92 1968.65,121.312 "/>
<polyline clip-path="url(#clip852)" style="stroke:#ffffff; stroke-linecap:round; stroke-linejoin:round; stroke-width:4; stroke-opacity:1; fill:none" points="2519.4,2204.92 2519.4,121.312 "/>
<polyline clip-path="url(#clip852)" style="stroke:#ffffff; stroke-linecap:round; stroke-linejoin:round; stroke-width:4; stroke-opacity:1; fill:none" points="3070.14,2204.92 3070.14,121.312 "/>
<polyline clip-path="url(#clip852)" style="stroke:#ffffff; stroke-linecap:round; stroke-linejoin:round; stroke-width:4; stroke-opacity:1; fill:none" points="233.806,2154.45 3152.76,2154.45 "/>
<polyline clip-path="url(#clip852)" style="stroke:#ffffff; stroke-linecap:round; stroke-linejoin:round; stroke-width:4; stroke-opacity:1; fill:none" points="233.806,1856.05 3152.76,1856.05 "/>
<polyline clip-path="url(#clip852)" style="stroke:#ffffff; stroke-linecap:round; stroke-linejoin:round; stroke-width:4; stroke-opacity:1; fill:none" points="233.806,1557.65 3152.76,1557.65 "/>
<polyline clip-path="url(#clip852)" style="stroke:#ffffff; stroke-linecap:round; stroke-linejoin:round; stroke-width:4; stroke-opacity:1; fill:none" points="233.806,1259.25 3152.76,1259.25 "/>
<polyline clip-path="url(#clip852)" style="stroke:#ffffff; stroke-linecap:round; stroke-linejoin:round; stroke-width:4; stroke-opacity:1; fill:none" points="233.806,960.857 3152.76,960.857 "/>
<polyline clip-path="url(#clip852)" style="stroke:#ffffff; stroke-linecap:round; stroke-linejoin:round; stroke-width:4; stroke-opacity:1; fill:none" points="233.806,662.46 3152.76,662.46 "/>
<polyline clip-path="url(#clip852)" style="stroke:#ffffff; stroke-linecap:round; stroke-linejoin:round; stroke-width:4; stroke-opacity:1; fill:none" points="233.806,364.062 3152.76,364.062 "/>
<polyline clip-path="url(#clip850)" style="stroke:#ffffff; stroke-linecap:round; stroke-linejoin:round; stroke-width:4; stroke-opacity:1; fill:none" points="233.806,2204.92 3152.76,2204.92 "/>
<polyline clip-path="url(#clip850)" style="stroke:#333333; stroke-linecap:round; stroke-linejoin:round; stroke-width:4; stroke-opacity:1; fill:none" points="316.418,2204.92 316.418,2223.82 "/>
<polyline clip-path="url(#clip850)" style="stroke:#333333; stroke-linecap:round; stroke-linejoin:round; stroke-width:4; stroke-opacity:1; fill:none" points="867.163,2204.92 867.163,2223.82 "/>
<polyline clip-path="url(#clip850)" style="stroke:#333333; stroke-linecap:round; stroke-linejoin:round; stroke-width:4; stroke-opacity:1; fill:none" points="1417.91,2204.92 1417.91,2223.82 "/>
<polyline clip-path="url(#clip850)" style="stroke:#333333; stroke-linecap:round; stroke-linejoin:round; stroke-width:4; stroke-opacity:1; fill:none" points="1968.65,2204.92 1968.65,2223.82 "/>
<polyline clip-path="url(#clip850)" style="stroke:#333333; stroke-linecap:round; stroke-linejoin:round; stroke-width:4; stroke-opacity:1; fill:none" points="2519.4,2204.92 2519.4,2223.82 "/>
<polyline clip-path="url(#clip850)" style="stroke:#333333; stroke-linecap:round; stroke-linejoin:round; stroke-width:4; stroke-opacity:1; fill:none" points="3070.14,2204.92 3070.14,2223.82 "/>
<polyline clip-path="url(#clip850)" style="stroke:#333333; stroke-linecap:round; stroke-linejoin:round; stroke-width:4; stroke-opacity:1; fill:none" points="591.791,2204.92 591.791,2214.37 "/>
<polyline clip-path="url(#clip850)" style="stroke:#333333; stroke-linecap:round; stroke-linejoin:round; stroke-width:4; stroke-opacity:1; fill:none" points="1142.54,2204.92 1142.54,2214.37 "/>
<polyline clip-path="url(#clip850)" style="stroke:#333333; stroke-linecap:round; stroke-linejoin:round; stroke-width:4; stroke-opacity:1; fill:none" points="1693.28,2204.92 1693.28,2214.37 "/>
<polyline clip-path="url(#clip850)" style="stroke:#333333; stroke-linecap:round; stroke-linejoin:round; stroke-width:4; stroke-opacity:1; fill:none" points="2244.03,2204.92 2244.03,2214.37 "/>
<polyline clip-path="url(#clip850)" style="stroke:#333333; stroke-linecap:round; stroke-linejoin:round; stroke-width:4; stroke-opacity:1; fill:none" points="2794.77,2204.92 2794.77,2214.37 "/>
<path clip-path="url(#clip850)" d="M316.418 2255.04 Q312.807 2255.04 310.978 2258.6 Q309.173 2262.14 309.173 2269.27 Q309.173 2276.38 310.978 2279.95 Q312.807 2283.49 316.418 2283.49 Q320.052 2283.49 321.858 2279.95 Q323.687 2276.38 323.687 2269.27 Q323.687 2262.14 321.858 2258.6 Q320.052 2255.04 316.418 2255.04 M316.418 2251.33 Q322.228 2251.33 325.284 2255.94 Q328.362 2260.52 328.362 2269.27 Q328.362 2278 325.284 2282.61 Q322.228 2287.19 316.418 2287.19 Q310.608 2287.19 307.529 2282.61 Q304.474 2278 304.474 2269.27 Q304.474 2260.52 307.529 2255.94 Q310.608 2251.33 316.418 2251.33 Z" fill="#4c4c4c" fill-rule="nonzero" fill-opacity="1" /><path clip-path="url(#clip850)" d="M857.545 2282.58 L865.184 2282.58 L865.184 2256.22 L856.874 2257.89 L856.874 2253.63 L865.138 2251.96 L869.814 2251.96 L869.814 2282.58 L877.453 2282.58 L877.453 2286.52 L857.545 2286.52 L857.545 2282.58 Z" fill="#4c4c4c" fill-rule="nonzero" fill-opacity="1" /><path clip-path="url(#clip850)" d="M1412.56 2282.58 L1428.88 2282.58 L1428.88 2286.52 L1406.94 2286.52 L1406.94 2282.58 Q1409.6 2279.83 1414.18 2275.2 Q1418.79 2270.55 1419.97 2269.21 Q1422.21 2266.68 1423.09 2264.95 Q1424 2263.19 1424 2261.5 Q1424 2258.74 1422.05 2257.01 Q1420.13 2255.27 1417.03 2255.27 Q1414.83 2255.27 1412.38 2256.03 Q1409.95 2256.8 1407.17 2258.35 L1407.17 2253.63 Q1409.99 2252.49 1412.45 2251.91 Q1414.9 2251.33 1416.94 2251.33 Q1422.31 2251.33 1425.5 2254.02 Q1428.7 2256.71 1428.7 2261.2 Q1428.7 2263.33 1427.89 2265.25 Q1427.1 2267.14 1424.99 2269.74 Q1424.41 2270.41 1421.31 2273.63 Q1418.21 2276.82 1412.56 2282.58 Z" fill="#4c4c4c" fill-rule="nonzero" fill-opacity="1" /><path clip-path="url(#clip850)" d="M1972.9 2267.89 Q1976.26 2268.6 1978.13 2270.87 Q1980.03 2273.14 1980.03 2276.47 Q1980.03 2281.59 1976.51 2284.39 Q1972.99 2287.19 1966.51 2287.19 Q1964.34 2287.19 1962.02 2286.75 Q1959.73 2286.33 1957.28 2285.48 L1957.28 2280.96 Q1959.22 2282.1 1961.54 2282.68 Q1963.85 2283.26 1966.37 2283.26 Q1970.77 2283.26 1973.06 2281.52 Q1975.38 2279.78 1975.38 2276.47 Q1975.38 2273.42 1973.23 2271.71 Q1971.1 2269.97 1967.28 2269.97 L1963.25 2269.97 L1963.25 2266.13 L1967.46 2266.13 Q1970.91 2266.13 1972.74 2264.76 Q1974.57 2263.37 1974.57 2260.78 Q1974.57 2258.12 1972.67 2256.71 Q1970.79 2255.27 1967.28 2255.27 Q1965.36 2255.27 1963.16 2255.69 Q1960.96 2256.1 1958.32 2256.98 L1958.32 2252.82 Q1960.98 2252.08 1963.29 2251.71 Q1965.63 2251.33 1967.69 2251.33 Q1973.02 2251.33 1976.12 2253.77 Q1979.22 2256.17 1979.22 2260.29 Q1979.22 2263.16 1977.58 2265.15 Q1975.93 2267.12 1972.9 2267.89 Z" fill="#4c4c4c" fill-rule="nonzero" fill-opacity="1" /><path clip-path="url(#clip850)" d="M2522.41 2256.03 L2510.6 2274.48 L2522.41 2274.48 L2522.41 2256.03 M2521.18 2251.96 L2527.06 2251.96 L2527.06 2274.48 L2531.99 2274.48 L2531.99 2278.37 L2527.06 2278.37 L2527.06 2286.52 L2522.41 2286.52 L2522.41 2278.37 L2506.81 2278.37 L2506.81 2273.86 L2521.18 2251.96 Z" fill="#4c4c4c" fill-rule="nonzero" fill-opacity="1" /><path clip-path="url(#clip850)" d="M3060.42 2251.96 L3078.78 2251.96 L3078.78 2255.9 L3064.7 2255.9 L3064.7 2264.37 Q3065.72 2264.02 3066.74 2263.86 Q3067.76 2263.67 3068.78 2263.67 Q3074.57 2263.67 3077.95 2266.84 Q3081.32 2270.02 3081.32 2275.43 Q3081.32 2281.01 3077.85 2284.11 Q3074.38 2287.19 3068.06 2287.19 Q3065.88 2287.19 3063.62 2286.82 Q3061.37 2286.45 3058.96 2285.71 L3058.96 2281.01 Q3061.05 2282.14 3063.27 2282.7 Q3065.49 2283.26 3067.97 2283.26 Q3071.97 2283.26 3074.31 2281.15 Q3076.65 2279.04 3076.65 2275.43 Q3076.65 2271.82 3074.31 2269.71 Q3071.97 2267.61 3067.97 2267.61 Q3066.09 2267.61 3064.22 2268.02 Q3062.37 2268.44 3060.42 2269.32 L3060.42 2251.96 Z" fill="#4c4c4c" fill-rule="nonzero" fill-opacity="1" /><path clip-path="url(#clip850)" d="M1692.34 2316.01 L1692.34 2326.14 L1704.41 2326.14 L1704.41 2330.69 L1692.34 2330.69 L1692.34 2350.04 Q1692.34 2354.4 1693.52 2355.64 Q1694.73 2356.88 1698.39 2356.88 L1704.41 2356.88 L1704.41 2361.78 L1698.39 2361.78 Q1691.61 2361.78 1689.03 2359.27 Q1686.45 2356.72 1686.45 2350.04 L1686.45 2330.69 L1682.16 2330.69 L1682.16 2326.14 L1686.45 2326.14 L1686.45 2316.01 L1692.34 2316.01 Z" fill="#000000" fill-rule="nonzero" fill-opacity="1" /><polyline clip-path="url(#clip850)" style="stroke:#ffffff; stroke-linecap:round; stroke-linejoin:round; stroke-width:4; stroke-opacity:1; fill:none" points="233.806,2204.92 233.806,121.312 "/>
<polyline clip-path="url(#clip850)" style="stroke:#333333; stroke-linecap:round; stroke-linejoin:round; stroke-width:4; stroke-opacity:1; fill:none" points="233.806,2154.45 214.909,2154.45 "/>
<polyline clip-path="url(#clip850)" style="stroke:#333333; stroke-linecap:round; stroke-linejoin:round; stroke-width:4; stroke-opacity:1; fill:none" points="233.806,1856.05 214.909,1856.05 "/>
<polyline clip-path="url(#clip850)" style="stroke:#333333; stroke-linecap:round; stroke-linejoin:round; stroke-width:4; stroke-opacity:1; fill:none" points="233.806,1557.65 214.909,1557.65 "/>
<polyline clip-path="url(#clip850)" style="stroke:#333333; stroke-linecap:round; stroke-linejoin:round; stroke-width:4; stroke-opacity:1; fill:none" points="233.806,1259.25 214.909,1259.25 "/>
<polyline clip-path="url(#clip850)" style="stroke:#333333; stroke-linecap:round; stroke-linejoin:round; stroke-width:4; stroke-opacity:1; fill:none" points="233.806,960.857 214.909,960.857 "/>
<polyline clip-path="url(#clip850)" style="stroke:#333333; stroke-linecap:round; stroke-linejoin:round; stroke-width:4; stroke-opacity:1; fill:none" points="233.806,662.46 214.909,662.46 "/>
<polyline clip-path="url(#clip850)" style="stroke:#333333; stroke-linecap:round; stroke-linejoin:round; stroke-width:4; stroke-opacity:1; fill:none" points="233.806,364.062 214.909,364.062 "/>
<polyline clip-path="url(#clip850)" style="stroke:#333333; stroke-linecap:round; stroke-linejoin:round; stroke-width:4; stroke-opacity:1; fill:none" points="233.806,2005.25 224.357,2005.25 "/>
<polyline clip-path="url(#clip850)" style="stroke:#333333; stroke-linecap:round; stroke-linejoin:round; stroke-width:4; stroke-opacity:1; fill:none" points="233.806,1706.85 224.357,1706.85 "/>
<polyline clip-path="url(#clip850)" style="stroke:#333333; stroke-linecap:round; stroke-linejoin:round; stroke-width:4; stroke-opacity:1; fill:none" points="233.806,1408.45 224.357,1408.45 "/>
<polyline clip-path="url(#clip850)" style="stroke:#333333; stroke-linecap:round; stroke-linejoin:round; stroke-width:4; stroke-opacity:1; fill:none" points="233.806,1110.06 224.357,1110.06 "/>
<polyline clip-path="url(#clip850)" style="stroke:#333333; stroke-linecap:round; stroke-linejoin:round; stroke-width:4; stroke-opacity:1; fill:none" points="233.806,811.658 224.357,811.658 "/>
<polyline clip-path="url(#clip850)" style="stroke:#333333; stroke-linecap:round; stroke-linejoin:round; stroke-width:4; stroke-opacity:1; fill:none" points="233.806,513.261 224.357,513.261 "/>
<polyline clip-path="url(#clip850)" style="stroke:#333333; stroke-linecap:round; stroke-linejoin:round; stroke-width:4; stroke-opacity:1; fill:none" points="233.806,214.863 224.357,214.863 "/>
<path clip-path="url(#clip850)" d="M106.228 2140.25 Q102.617 2140.25 100.788 2143.81 Q98.9825 2147.35 98.9825 2154.48 Q98.9825 2161.59 100.788 2165.15 Q102.617 2168.69 106.228 2168.69 Q109.862 2168.69 111.668 2165.15 Q113.496 2161.59 113.496 2154.48 Q113.496 2147.35 111.668 2143.81 Q109.862 2140.25 106.228 2140.25 M106.228 2136.54 Q112.038 2136.54 115.094 2141.15 Q118.172 2145.73 118.172 2154.48 Q118.172 2163.21 115.094 2167.82 Q112.038 2172.4 106.228 2172.4 Q100.418 2172.4 97.339 2167.82 Q94.2835 2163.21 94.2835 2154.48 Q94.2835 2145.73 97.339 2141.15 Q100.418 2136.54 106.228 2136.54 Z" fill="#4c4c4c" fill-rule="nonzero" fill-opacity="1" /><path clip-path="url(#clip850)" d="M126.39 2165.85 L131.274 2165.85 L131.274 2171.73 L126.39 2171.73 L126.39 2165.85 Z" fill="#4c4c4c" fill-rule="nonzero" fill-opacity="1" /><path clip-path="url(#clip850)" d="M145.487 2167.79 L161.806 2167.79 L161.806 2171.73 L139.862 2171.73 L139.862 2167.79 Q142.524 2165.04 147.107 2160.41 Q151.714 2155.75 152.894 2154.41 Q155.14 2151.89 156.019 2150.15 Q156.922 2148.39 156.922 2146.7 Q156.922 2143.95 154.978 2142.21 Q153.056 2140.48 149.954 2140.48 Q147.755 2140.48 145.302 2141.24 Q142.871 2142.01 140.093 2143.56 L140.093 2138.83 Q142.917 2137.7 145.371 2137.12 Q147.825 2136.54 149.862 2136.54 Q155.232 2136.54 158.427 2139.23 Q161.621 2141.91 161.621 2146.4 Q161.621 2148.53 160.811 2150.45 Q160.024 2152.35 157.917 2154.94 Q157.339 2155.62 154.237 2158.83 Q151.135 2162.03 145.487 2167.79 Z" fill="#4c4c4c" fill-rule="nonzero" fill-opacity="1" /><path clip-path="url(#clip850)" d="M104.145 1841.85 Q100.533 1841.85 98.7048 1845.41 Q96.8992 1848.95 96.8992 1856.08 Q96.8992 1863.19 98.7048 1866.76 Q100.533 1870.3 104.145 1870.3 Q107.779 1870.3 109.584 1866.76 Q111.413 1863.19 111.413 1856.08 Q111.413 1848.95 109.584 1845.41 Q107.779 1841.85 104.145 1841.85 M104.145 1838.14 Q109.955 1838.14 113.01 1842.75 Q116.089 1847.33 116.089 1856.08 Q116.089 1864.81 113.01 1869.42 Q109.955 1874 104.145 1874 Q98.3344 1874 95.2557 1869.42 Q92.2002 1864.81 92.2002 1856.08 Q92.2002 1847.33 95.2557 1842.75 Q98.3344 1838.14 104.145 1838.14 Z" fill="#4c4c4c" fill-rule="nonzero" fill-opacity="1" /><path clip-path="url(#clip850)" d="M124.306 1867.45 L129.191 1867.45 L129.191 1873.33 L124.306 1873.33 L124.306 1867.45 Z" fill="#4c4c4c" fill-rule="nonzero" fill-opacity="1" /><path clip-path="url(#clip850)" d="M152.223 1842.84 L140.417 1861.29 L152.223 1861.29 L152.223 1842.84 M150.996 1838.77 L156.876 1838.77 L156.876 1861.29 L161.806 1861.29 L161.806 1865.18 L156.876 1865.18 L156.876 1873.33 L152.223 1873.33 L152.223 1865.18 L136.621 1865.18 L136.621 1860.67 L150.996 1838.77 Z" fill="#4c4c4c" fill-rule="nonzero" fill-opacity="1" /><path clip-path="url(#clip850)" d="M104.469 1543.45 Q100.858 1543.45 99.0288 1547.02 Q97.2233 1550.56 97.2233 1557.69 Q97.2233 1564.79 99.0288 1568.36 Q100.858 1571.9 104.469 1571.9 Q108.103 1571.9 109.908 1568.36 Q111.737 1564.79 111.737 1557.69 Q111.737 1550.56 109.908 1547.02 Q108.103 1543.45 104.469 1543.45 M104.469 1539.75 Q110.279 1539.75 113.334 1544.35 Q116.413 1548.94 116.413 1557.69 Q116.413 1566.41 113.334 1571.02 Q110.279 1575.6 104.469 1575.6 Q98.6585 1575.6 95.5798 1571.02 Q92.5242 1566.41 92.5242 1557.69 Q92.5242 1548.94 95.5798 1544.35 Q98.6585 1539.75 104.469 1539.75 Z" fill="#4c4c4c" fill-rule="nonzero" fill-opacity="1" /><path clip-path="url(#clip850)" d="M124.631 1569.05 L129.515 1569.05 L129.515 1574.93 L124.631 1574.93 L124.631 1569.05 Z" fill="#4c4c4c" fill-rule="nonzero" fill-opacity="1" /><path clip-path="url(#clip850)" d="M150.279 1555.79 Q147.13 1555.79 145.279 1557.94 Q143.45 1560.09 143.45 1563.84 Q143.45 1567.57 145.279 1569.75 Q147.13 1571.9 150.279 1571.9 Q153.427 1571.9 155.255 1569.75 Q157.107 1567.57 157.107 1563.84 Q157.107 1560.09 155.255 1557.94 Q153.427 1555.79 150.279 1555.79 M159.561 1541.14 L159.561 1545.4 Q157.802 1544.56 155.996 1544.12 Q154.214 1543.68 152.454 1543.68 Q147.825 1543.68 145.371 1546.81 Q142.941 1549.93 142.593 1556.25 Q143.959 1554.24 146.019 1553.17 Q148.079 1552.09 150.556 1552.09 Q155.765 1552.09 158.774 1555.26 Q161.806 1558.4 161.806 1563.84 Q161.806 1569.17 158.658 1572.39 Q155.51 1575.6 150.279 1575.6 Q144.283 1575.6 141.112 1571.02 Q137.941 1566.41 137.941 1557.69 Q137.941 1549.49 141.83 1544.63 Q145.718 1539.75 152.269 1539.75 Q154.029 1539.75 155.811 1540.09 Q157.616 1540.44 159.561 1541.14 Z" fill="#4c4c4c" fill-rule="nonzero" fill-opacity="1" /><path clip-path="url(#clip850)" d="M104.723 1245.05 Q101.112 1245.05 99.2835 1248.62 Q97.4779 1252.16 97.4779 1259.29 Q97.4779 1266.4 99.2835 1269.96 Q101.112 1273.5 104.723 1273.5 Q108.357 1273.5 110.163 1269.96 Q111.992 1266.4 111.992 1259.29 Q111.992 1252.16 110.163 1248.62 Q108.357 1245.05 104.723 1245.05 M104.723 1241.35 Q110.533 1241.35 113.589 1245.96 Q116.668 1250.54 116.668 1259.29 Q116.668 1268.02 113.589 1272.62 Q110.533 1277.21 104.723 1277.21 Q98.9131 1277.21 95.8344 1272.62 Q92.7789 1268.02 92.7789 1259.29 Q92.7789 1250.54 95.8344 1245.96 Q98.9131 1241.35 104.723 1241.35 Z" fill="#4c4c4c" fill-rule="nonzero" fill-opacity="1" /><path clip-path="url(#clip850)" d="M124.885 1270.66 L129.769 1270.66 L129.769 1276.53 L124.885 1276.53 L124.885 1270.66 Z" fill="#4c4c4c" fill-rule="nonzero" fill-opacity="1" /><path clip-path="url(#clip850)" d="M149.954 1260.12 Q146.621 1260.12 144.7 1261.91 Q142.802 1263.69 142.802 1266.81 Q142.802 1269.94 144.7 1271.72 Q146.621 1273.5 149.954 1273.5 Q153.288 1273.5 155.209 1271.72 Q157.13 1269.91 157.13 1266.81 Q157.13 1263.69 155.209 1261.91 Q153.311 1260.12 149.954 1260.12 M145.279 1258.13 Q142.269 1257.39 140.58 1255.33 Q138.913 1253.27 138.913 1250.31 Q138.913 1246.16 141.853 1243.76 Q144.816 1241.35 149.954 1241.35 Q155.116 1241.35 158.056 1243.76 Q160.996 1246.16 160.996 1250.31 Q160.996 1253.27 159.306 1255.33 Q157.64 1257.39 154.654 1258.13 Q158.033 1258.92 159.908 1261.21 Q161.806 1263.5 161.806 1266.81 Q161.806 1271.84 158.728 1274.52 Q155.672 1277.21 149.954 1277.21 Q144.237 1277.21 141.158 1274.52 Q138.103 1271.84 138.103 1266.81 Q138.103 1263.5 140.001 1261.21 Q141.899 1258.92 145.279 1258.13 M143.566 1250.75 Q143.566 1253.43 145.232 1254.94 Q146.922 1256.44 149.954 1256.44 Q152.964 1256.44 154.654 1254.94 Q156.366 1253.43 156.366 1250.75 Q156.366 1248.06 154.654 1246.56 Q152.964 1245.05 149.954 1245.05 Q146.922 1245.05 145.232 1246.56 Q143.566 1248.06 143.566 1250.75 Z" fill="#4c4c4c" fill-rule="nonzero" fill-opacity="1" /><path clip-path="url(#clip850)" d="M95.4409 974.202 L103.08 974.202 L103.08 947.836 L94.7696 949.503 L94.7696 945.244 L103.033 943.577 L107.709 943.577 L107.709 974.202 L115.348 974.202 L115.348 978.137 L95.4409 978.137 L95.4409 974.202 Z" fill="#4c4c4c" fill-rule="nonzero" fill-opacity="1" /><path clip-path="url(#clip850)" d="M124.793 972.258 L129.677 972.258 L129.677 978.137 L124.793 978.137 L124.793 972.258 Z" fill="#4c4c4c" fill-rule="nonzero" fill-opacity="1" /><path clip-path="url(#clip850)" d="M149.862 946.656 Q146.251 946.656 144.422 950.221 Q142.617 953.762 142.617 960.892 Q142.617 967.998 144.422 971.563 Q146.251 975.105 149.862 975.105 Q153.496 975.105 155.302 971.563 Q157.13 967.998 157.13 960.892 Q157.13 953.762 155.302 950.221 Q153.496 946.656 149.862 946.656 M149.862 942.952 Q155.672 942.952 158.728 947.559 Q161.806 952.142 161.806 960.892 Q161.806 969.619 158.728 974.225 Q155.672 978.808 149.862 978.808 Q144.052 978.808 140.973 974.225 Q137.918 969.619 137.918 960.892 Q137.918 952.142 140.973 947.559 Q144.052 942.952 149.862 942.952 Z" fill="#4c4c4c" fill-rule="nonzero" fill-opacity="1" /><path clip-path="url(#clip850)" d="M97.0381 675.804 L104.677 675.804 L104.677 649.439 L96.3668 651.106 L96.3668 646.846 L104.631 645.18 L109.307 645.18 L109.307 675.804 L116.945 675.804 L116.945 679.74 L97.0381 679.74 L97.0381 675.804 Z" fill="#4c4c4c" fill-rule="nonzero" fill-opacity="1" /><path clip-path="url(#clip850)" d="M126.39 673.86 L131.274 673.86 L131.274 679.74 L126.39 679.74 L126.39 673.86 Z" fill="#4c4c4c" fill-rule="nonzero" fill-opacity="1" /><path clip-path="url(#clip850)" d="M145.487 675.804 L161.806 675.804 L161.806 679.74 L139.862 679.74 L139.862 675.804 Q142.524 673.05 147.107 668.42 Q151.714 663.767 152.894 662.425 Q155.14 659.902 156.019 658.166 Q156.922 656.406 156.922 654.717 Q156.922 651.962 154.978 650.226 Q153.056 648.49 149.954 648.49 Q147.755 648.49 145.302 649.254 Q142.871 650.018 140.093 651.568 L140.093 646.846 Q142.917 645.712 145.371 645.133 Q147.825 644.555 149.862 644.555 Q155.232 644.555 158.427 647.24 Q161.621 649.925 161.621 654.416 Q161.621 656.545 160.811 658.467 Q160.024 660.365 157.917 662.957 Q157.339 663.629 154.237 666.846 Q151.135 670.041 145.487 675.804 Z" fill="#4c4c4c" fill-rule="nonzero" fill-opacity="1" /><path clip-path="url(#clip850)" d="M94.9548 377.407 L102.594 377.407 L102.594 351.041 L94.2835 352.708 L94.2835 348.449 L102.547 346.782 L107.223 346.782 L107.223 377.407 L114.862 377.407 L114.862 381.342 L94.9548 381.342 L94.9548 377.407 Z" fill="#4c4c4c" fill-rule="nonzero" fill-opacity="1" /><path clip-path="url(#clip850)" d="M124.306 375.463 L129.191 375.463 L129.191 381.342 L124.306 381.342 L124.306 375.463 Z" fill="#4c4c4c" fill-rule="nonzero" fill-opacity="1" /><path clip-path="url(#clip850)" d="M152.223 350.856 L140.417 369.305 L152.223 369.305 L152.223 350.856 M150.996 346.782 L156.876 346.782 L156.876 369.305 L161.806 369.305 L161.806 373.194 L156.876 373.194 L156.876 381.342 L152.223 381.342 L152.223 373.194 L136.621 373.194 L136.621 368.68 L150.996 346.782 Z" fill="#4c4c4c" fill-rule="nonzero" fill-opacity="1" /><path clip-path="url(#clip850)" d="M48.597 1321.32 L67.5031 1321.32 L67.5031 1327.21 L18.2962 1327.21 L18.2962 1321.32 L23.7071 1321.32 Q20.5242 1319.47 18.9964 1316.67 Q17.4368 1313.84 17.4368 1309.93 Q17.4368 1303.43 22.5931 1299.39 Q27.7493 1295.32 36.152 1295.32 Q44.5547 1295.32 49.711 1299.39 Q54.8672 1303.43 54.8672 1309.93 Q54.8672 1313.84 53.3394 1316.67 Q51.7798 1319.47 48.597 1321.32 M36.152 1301.4 Q29.6908 1301.4 26.0305 1304.07 Q22.3384 1306.71 22.3384 1311.36 Q22.3384 1316 26.0305 1318.68 Q29.6908 1321.32 36.152 1321.32 Q42.6132 1321.32 46.3053 1318.68 Q49.9656 1316 49.9656 1311.36 Q49.9656 1306.71 46.3053 1304.07 Q42.6132 1301.4 36.152 1301.4 Z" fill="#000000" fill-rule="nonzero" fill-opacity="1" /><path clip-path="url(#clip850)" d="M22.4021 1271.79 Q22.4021 1276.51 26.0942 1279.24 Q29.7545 1281.98 36.152 1281.98 Q42.5495 1281.98 46.2417 1279.27 Q49.9019 1276.54 49.9019 1271.79 Q49.9019 1267.12 46.2098 1264.38 Q42.5177 1261.64 36.152 1261.64 Q29.8181 1261.64 26.126 1264.38 Q22.4021 1267.12 22.4021 1271.79 M17.4368 1271.79 Q17.4368 1264.16 22.4021 1259.8 Q27.3673 1255.43 36.152 1255.43 Q44.9049 1255.43 49.9019 1259.8 Q54.8672 1264.16 54.8672 1271.79 Q54.8672 1279.47 49.9019 1283.83 Q44.9049 1288.15 36.152 1288.15 Q27.3673 1288.15 22.4021 1283.83 Q17.4368 1279.47 17.4368 1271.79 Z" fill="#000000" fill-rule="nonzero" fill-opacity="1" /><path clip-path="url(#clip850)" d="M48.597 1240.06 L67.5031 1240.06 L67.5031 1245.95 L18.2962 1245.95 L18.2962 1240.06 L23.7071 1240.06 Q20.5242 1238.22 18.9964 1235.41 Q17.4368 1232.58 17.4368 1228.67 Q17.4368 1222.17 22.5931 1218.13 Q27.7493 1214.06 36.152 1214.06 Q44.5547 1214.06 49.711 1218.13 Q54.8672 1222.17 54.8672 1228.67 Q54.8672 1232.58 53.3394 1235.41 Q51.7798 1238.22 48.597 1240.06 M36.152 1220.14 Q29.6908 1220.14 26.0305 1222.81 Q22.3384 1225.45 22.3384 1230.1 Q22.3384 1234.75 26.0305 1237.42 Q29.6908 1240.06 36.152 1240.06 Q42.6132 1240.06 46.3053 1237.42 Q49.9656 1234.75 49.9656 1230.1 Q49.9656 1225.45 46.3053 1222.81 Q42.6132 1220.14 36.152 1220.14 Z" fill="#000000" fill-rule="nonzero" fill-opacity="1" /><path clip-path="url(#clip850)" d="M39.8759 1204.95 L18.2962 1204.95 L18.2962 1199.1 L39.6531 1199.1 Q44.7139 1199.1 47.2602 1197.12 Q49.7746 1195.15 49.7746 1191.2 Q49.7746 1186.46 46.7509 1183.72 Q43.7272 1180.96 38.5073 1180.96 L18.2962 1180.96 L18.2962 1175.1 L53.9442 1175.1 L53.9442 1180.96 L48.4696 1180.96 Q51.7162 1183.09 53.3076 1185.92 Q54.8672 1188.72 54.8672 1192.45 Q54.8672 1198.59 51.0478 1201.77 Q47.2283 1204.95 39.8759 1204.95 M17.4368 1190.22 L17.4368 1190.22 Z" fill="#000000" fill-rule="nonzero" fill-opacity="1" /><path clip-path="url(#clip850)" d="M4.41896 1163.04 L4.41896 1157.18 L53.9442 1157.18 L53.9442 1163.04 L4.41896 1163.04 Z" fill="#000000" fill-rule="nonzero" fill-opacity="1" /><path clip-path="url(#clip850)" d="M36.0247 1128.73 Q36.0247 1135.82 37.6479 1138.56 Q39.2712 1141.3 43.1861 1141.3 Q46.3053 1141.3 48.1514 1139.26 Q49.9656 1137.19 49.9656 1133.66 Q49.9656 1128.79 46.5281 1125.86 Q43.0588 1122.9 37.3297 1122.9 L36.0247 1122.9 L36.0247 1128.73 M33.6057 1117.04 L53.9442 1117.04 L53.9442 1122.9 L48.5333 1122.9 Q51.7798 1124.91 53.3394 1127.9 Q54.8672 1130.89 54.8672 1135.22 Q54.8672 1140.69 51.8116 1143.94 Q48.7243 1147.15 43.5681 1147.15 Q37.5525 1147.15 34.4969 1143.14 Q31.4414 1139.1 31.4414 1131.11 L31.4414 1122.9 L30.8685 1122.9 Q26.8262 1122.9 24.6301 1125.57 Q22.4021 1128.22 22.4021 1133.02 Q22.4021 1136.08 23.1341 1138.97 Q23.8662 1141.87 25.3303 1144.54 L19.9195 1144.54 Q18.6781 1141.33 18.0734 1138.31 Q17.4368 1135.28 17.4368 1132.42 Q17.4368 1124.68 21.4472 1120.86 Q25.4576 1117.04 33.6057 1117.04 Z" fill="#000000" fill-rule="nonzero" fill-opacity="1" /><path clip-path="url(#clip850)" d="M19.6648 1079.33 L25.1393 1079.33 Q23.7707 1081.81 23.1023 1084.32 Q22.4021 1086.81 22.4021 1089.35 Q22.4021 1095.05 26.0305 1098.2 Q29.6272 1101.35 36.152 1101.35 Q42.6769 1101.35 46.3053 1098.2 Q49.9019 1095.05 49.9019 1089.35 Q49.9019 1086.81 49.2335 1084.32 Q48.5333 1081.81 47.1647 1079.33 L52.5755 1079.33 Q53.7214 1081.78 54.2943 1084.42 Q54.8672 1087.03 54.8672 1089.99 Q54.8672 1098.04 49.8064 1102.78 Q44.7457 1107.53 36.152 1107.53 Q27.431 1107.53 22.4339 1102.75 Q17.4368 1097.95 17.4368 1089.61 Q17.4368 1086.9 18.0097 1084.32 Q18.5508 1081.75 19.6648 1079.33 M53.9442 1087.6 Q55.9175 1085.85 57.5726 1084.99 Q59.2595 1084.13 60.7873 1084.13 Q63.62 1084.13 65.0523 1086.04 Q66.5164 1087.95 66.5164 1091.71 Q66.5164 1093.17 66.3255 1094.57 Q66.1345 1095.94 65.7525 1097.31 L61.583 1097.31 Q62.1241 1096.23 62.3469 1095.05 Q62.6015 1093.87 62.6015 1092.38 Q62.6015 1090.5 61.8376 1089.54 Q61.0737 1088.59 59.6096 1088.59 Q58.6548 1088.59 57.2543 1089.29 Q55.8857 1089.96 53.9442 1091.39 L53.9442 1087.6 Z" fill="#000000" fill-rule="nonzero" fill-opacity="1" /><path clip-path="url(#clip850)" d="M36.0247 1052.94 Q36.0247 1060.04 37.6479 1062.78 Q39.2712 1065.51 43.1861 1065.51 Q46.3053 1065.51 48.1514 1063.48 Q49.9656 1061.41 49.9656 1057.87 Q49.9656 1053.01 46.5281 1050.08 Q43.0588 1047.12 37.3297 1047.12 L36.0247 1047.12 L36.0247 1052.94 M33.6057 1041.26 L53.9442 1041.26 L53.9442 1047.12 L48.5333 1047.12 Q51.7798 1049.12 53.3394 1052.11 Q54.8672 1055.11 54.8672 1059.43 Q54.8672 1064.91 51.8116 1068.16 Q48.7243 1071.37 43.5681 1071.37 Q37.5525 1071.37 34.4969 1067.36 Q31.4414 1063.32 31.4414 1055.33 L31.4414 1047.12 L30.8685 1047.12 Q26.8262 1047.12 24.6301 1049.79 Q22.4021 1052.43 22.4021 1057.24 Q22.4021 1060.29 23.1341 1063.19 Q23.8662 1066.09 25.3303 1068.76 L19.9195 1068.76 Q18.6781 1065.55 18.0734 1062.52 Q17.4368 1059.5 17.4368 1056.63 Q17.4368 1048.9 21.4472 1045.08 Q25.4576 1041.26 33.6057 1041.26 M10.3391 1056.51 L8.5885 1058.32 Q7.95193 1059.02 7.66547 1059.56 Q7.34718 1060.07 7.34718 1060.48 Q7.34718 1061.69 8.52484 1062.27 Q9.67067 1062.84 12.2806 1062.9 L12.2806 1066.88 Q7.98376 1066.82 5.66027 1065.2 Q3.30496 1063.57 3.30496 1060.68 Q3.30496 1059.47 3.75056 1058.45 Q4.19616 1057.43 5.2465 1056.25 L6.99707 1054.44 Q7.63364 1053.74 7.95193 1053.23 Q8.23838 1052.69 8.23838 1052.27 Q8.23838 1051.06 7.09256 1050.49 Q5.9149 1049.92 3.30496 1049.85 L3.30496 1045.88 Q7.60181 1045.94 9.95712 1047.56 Q12.2806 1049.19 12.2806 1052.08 Q12.2806 1053.29 11.835 1054.31 Q11.3894 1055.33 10.3391 1056.51 Z" fill="#000000" fill-rule="nonzero" fill-opacity="1" /><path clip-path="url(#clip850)" d="M22.4021 1015.38 Q22.4021 1020.09 26.0942 1022.83 Q29.7545 1025.57 36.152 1025.57 Q42.5495 1025.57 46.2417 1022.86 Q49.9019 1020.13 49.9019 1015.38 Q49.9019 1010.71 46.2098 1007.97 Q42.5177 1005.23 36.152 1005.23 Q29.8181 1005.23 26.126 1007.97 Q22.4021 1010.71 22.4021 1015.38 M17.4368 1015.38 Q17.4368 1007.74 22.4021 1003.38 Q27.3673 999.024 36.152 999.024 Q44.9049 999.024 49.9019 1003.38 Q54.8672 1007.74 54.8672 1015.38 Q54.8672 1023.05 49.9019 1027.42 Q44.9049 1031.74 36.152 1031.74 Q27.3673 1031.74 22.4021 1027.42 Q17.4368 1023.05 17.4368 1015.38 Z" fill="#000000" fill-rule="nonzero" fill-opacity="1" /><path clip-path="url(#clip850)" d="M972.365 23.3193 L979.136 23.3193 L991.288 55.958 L1003.44 23.3193 L1010.21 23.3193 L995.629 62.208 L986.948 62.208 L972.365 23.3193 Z" fill="#000000" fill-rule="nonzero" fill-opacity="1" /><path clip-path="url(#clip850)" d="M1036.7 42.6595 Q1028.96 42.6595 1025.98 44.4303 Q1022.99 46.2011 1022.99 50.472 Q1022.99 53.8747 1025.21 55.8886 Q1027.47 57.8677 1031.32 57.8677 Q1036.64 57.8677 1039.83 54.1178 Q1043.06 50.3331 1043.06 44.0831 L1043.06 42.6595 L1036.7 42.6595 M1049.45 40.0206 L1049.45 62.208 L1043.06 62.208 L1043.06 56.3053 Q1040.87 59.8469 1037.61 61.5483 Q1034.34 63.2149 1029.62 63.2149 Q1023.65 63.2149 1020.11 59.8816 Q1016.6 56.5136 1016.6 50.8886 Q1016.6 44.3262 1020.98 40.9928 Q1025.39 37.6595 1034.1 37.6595 L1043.06 37.6595 L1043.06 37.0345 Q1043.06 32.6248 1040.14 30.229 Q1037.26 27.7985 1032.02 27.7985 Q1028.68 27.7985 1025.52 28.5971 Q1022.36 29.3957 1019.45 30.9929 L1019.45 25.0901 Q1022.95 23.736 1026.25 23.0763 Q1029.55 22.3818 1032.68 22.3818 Q1041.11 22.3818 1045.28 26.7568 Q1049.45 31.1318 1049.45 40.0206 Z" fill="#000000" fill-rule="nonzero" fill-opacity="1" /><path clip-path="url(#clip850)" d="M1062.61 8.18051 L1069 8.18051 L1069 62.208 L1062.61 62.208 L1062.61 8.18051 Z" fill="#000000" fill-rule="nonzero" fill-opacity="1" /><path clip-path="url(#clip850)" d="M1097.43 27.7985 Q1092.29 27.7985 1089.31 31.8262 Q1086.32 35.8193 1086.32 42.7984 Q1086.32 49.7775 1089.27 53.8053 Q1092.26 57.7983 1097.43 57.7983 Q1102.54 57.7983 1105.52 53.7705 Q1108.51 49.7428 1108.51 42.7984 Q1108.51 35.8887 1105.52 31.8609 Q1102.54 27.7985 1097.43 27.7985 M1097.43 22.3818 Q1105.77 22.3818 1110.52 27.7985 Q1115.28 33.2151 1115.28 42.7984 Q1115.28 52.3469 1110.52 57.7983 Q1105.77 63.2149 1097.43 63.2149 Q1089.07 63.2149 1084.31 57.7983 Q1079.59 52.3469 1079.59 42.7984 Q1079.59 33.2151 1084.31 27.7985 Q1089.07 22.3818 1097.43 22.3818 Z" fill="#000000" fill-rule="nonzero" fill-opacity="1" /><path clip-path="url(#clip850)" d="M1148.41 29.2915 Q1147.33 28.6665 1146.04 28.3887 Q1144.79 28.0762 1143.27 28.0762 Q1137.85 28.0762 1134.93 31.6179 Q1132.05 35.1248 1132.05 41.722 L1132.05 62.208 L1125.63 62.208 L1125.63 23.3193 L1132.05 23.3193 L1132.05 29.361 Q1134.07 25.8193 1137.29 24.1179 Q1140.52 22.3818 1145.14 22.3818 Q1145.8 22.3818 1146.6 22.486 Q1147.4 22.5554 1148.37 22.729 L1148.41 29.2915 Z" fill="#000000" fill-rule="nonzero" fill-opacity="1" /><path clip-path="url(#clip850)" d="M1210.97 41.1664 L1210.97 44.2914 L1181.6 44.2914 Q1182.02 50.8886 1185.56 54.3608 Q1189.13 57.7983 1195.49 57.7983 Q1199.17 57.7983 1202.61 56.8955 Q1206.08 55.9928 1209.48 54.1872 L1209.48 60.2288 Q1206.04 61.6872 1202.43 62.4511 Q1198.82 63.2149 1195.11 63.2149 Q1185.8 63.2149 1180.35 57.7983 Q1174.93 52.3817 1174.93 43.1456 Q1174.93 33.597 1180.07 28.0068 Q1185.25 22.3818 1194 22.3818 Q1201.84 22.3818 1206.39 27.4512 Q1210.97 32.4859 1210.97 41.1664 M1204.59 39.2915 Q1204.52 34.0484 1201.63 30.9234 Q1198.79 27.7985 1194.07 27.7985 Q1188.72 27.7985 1185.49 30.8193 Q1182.29 33.8401 1181.81 39.3262 L1204.59 39.2915 Z" fill="#000000" fill-rule="nonzero" fill-opacity="1" /><path clip-path="url(#clip850)" d="M1246.25 24.4651 L1246.25 30.5068 Q1243.54 29.1179 1240.63 28.4235 Q1237.71 27.729 1234.59 27.729 Q1229.83 27.729 1227.43 29.1873 Q1225.07 30.6457 1225.07 33.5623 Q1225.07 35.7845 1226.77 37.0692 Q1228.47 38.3192 1233.61 39.4651 L1235.8 39.9512 Q1242.61 41.4095 1245.45 44.0831 Q1248.34 46.722 1248.34 51.4789 Q1248.34 56.8955 1244.03 60.0552 Q1239.76 63.2149 1232.26 63.2149 Q1229.13 63.2149 1225.73 62.5899 Q1222.36 61.9997 1218.61 60.7844 L1218.61 54.1872 Q1222.16 56.0275 1225.59 56.965 Q1229.03 57.8677 1232.4 57.8677 Q1236.91 57.8677 1239.34 56.34 Q1241.77 54.7775 1241.77 51.965 Q1241.77 49.3608 1240 47.972 Q1238.27 46.5831 1232.33 45.2984 L1230.11 44.7775 Q1224.17 43.5275 1221.53 40.9581 Q1218.89 38.354 1218.89 33.8401 Q1218.89 28.354 1222.78 25.3679 Q1226.67 22.3818 1233.82 22.3818 Q1237.36 22.3818 1240.49 22.9027 Q1243.61 23.4235 1246.25 24.4651 Z" fill="#000000" fill-rule="nonzero" fill-opacity="1" /><path clip-path="url(#clip850)" d="M1264.69 56.3747 L1264.69 76.9996 L1258.27 76.9996 L1258.27 23.3193 L1264.69 23.3193 L1264.69 29.2221 Q1266.7 25.7499 1269.76 24.0832 Q1272.85 22.3818 1277.12 22.3818 Q1284.2 22.3818 1288.61 28.0068 Q1293.06 33.6318 1293.06 42.7984 Q1293.06 51.965 1288.61 57.59 Q1284.2 63.2149 1277.12 63.2149 Q1272.85 63.2149 1269.76 61.5483 Q1266.7 59.8469 1264.69 56.3747 M1286.43 42.7984 Q1286.43 35.7498 1283.51 31.7568 Q1280.63 27.729 1275.56 27.729 Q1270.49 27.729 1267.57 31.7568 Q1264.69 35.7498 1264.69 42.7984 Q1264.69 49.847 1267.57 53.8747 Q1270.49 57.8677 1275.56 57.8677 Q1280.63 57.8677 1283.51 53.8747 Q1286.43 49.847 1286.43 42.7984 Z" fill="#000000" fill-rule="nonzero" fill-opacity="1" /><path clip-path="url(#clip850)" d="M1336.91 41.1664 L1336.91 44.2914 L1307.54 44.2914 Q1307.95 50.8886 1311.49 54.3608 Q1315.07 57.7983 1321.43 57.7983 Q1325.11 57.7983 1328.54 56.8955 Q1332.02 55.9928 1335.42 54.1872 L1335.42 60.2288 Q1331.98 61.6872 1328.37 62.4511 Q1324.76 63.2149 1321.04 63.2149 Q1311.74 63.2149 1306.29 57.7983 Q1300.87 52.3817 1300.87 43.1456 Q1300.87 33.597 1306.01 28.0068 Q1311.18 22.3818 1319.93 22.3818 Q1327.78 22.3818 1332.33 27.4512 Q1336.91 32.4859 1336.91 41.1664 M1330.52 39.2915 Q1330.45 34.0484 1327.57 30.9234 Q1324.72 27.7985 1320 27.7985 Q1314.65 27.7985 1311.43 30.8193 Q1308.23 33.8401 1307.74 39.3262 L1330.52 39.2915 Z" fill="#000000" fill-rule="nonzero" fill-opacity="1" /><path clip-path="url(#clip850)" d="M1369.93 29.2915 Q1368.86 28.6665 1367.57 28.3887 Q1366.32 28.0762 1364.79 28.0762 Q1359.38 28.0762 1356.46 31.6179 Q1353.58 35.1248 1353.58 41.722 L1353.58 62.208 L1347.15 62.208 L1347.15 23.3193 L1353.58 23.3193 L1353.58 29.361 Q1355.59 25.8193 1358.82 24.1179 Q1362.05 22.3818 1366.67 22.3818 Q1367.33 22.3818 1368.13 22.486 Q1368.93 22.5554 1369.9 22.729 L1369.93 29.2915 Z" fill="#000000" fill-rule="nonzero" fill-opacity="1" /><path clip-path="url(#clip850)" d="M1394.31 42.6595 Q1386.56 42.6595 1383.58 44.4303 Q1380.59 46.2011 1380.59 50.472 Q1380.59 53.8747 1382.81 55.8886 Q1385.07 57.8677 1388.93 57.8677 Q1394.24 57.8677 1397.43 54.1178 Q1400.66 50.3331 1400.66 44.0831 L1400.66 42.6595 L1394.31 42.6595 M1407.05 40.0206 L1407.05 62.208 L1400.66 62.208 L1400.66 56.3053 Q1398.47 59.8469 1395.21 61.5483 Q1391.95 63.2149 1387.22 63.2149 Q1381.25 63.2149 1377.71 59.8816 Q1374.2 56.5136 1374.2 50.8886 Q1374.2 44.3262 1378.58 40.9928 Q1382.99 37.6595 1391.7 37.6595 L1400.66 37.6595 L1400.66 37.0345 Q1400.66 32.6248 1397.74 30.229 Q1394.86 27.7985 1389.62 27.7985 Q1386.29 27.7985 1383.13 28.5971 Q1379.97 29.3957 1377.05 30.9929 L1377.05 25.0901 Q1380.56 23.736 1383.86 23.0763 Q1387.15 22.3818 1390.28 22.3818 Q1398.72 22.3818 1402.88 26.7568 Q1407.05 31.1318 1407.05 40.0206 Z" fill="#000000" fill-rule="nonzero" fill-opacity="1" /><path clip-path="url(#clip850)" d="M1445.8 29.2221 L1445.8 8.18051 L1452.19 8.18051 L1452.19 62.208 L1445.8 62.208 L1445.8 56.3747 Q1443.79 59.8469 1440.7 61.5483 Q1437.64 63.2149 1433.33 63.2149 Q1426.29 63.2149 1421.84 57.59 Q1417.43 51.965 1417.43 42.7984 Q1417.43 33.6318 1421.84 28.0068 Q1426.29 22.3818 1433.33 22.3818 Q1437.64 22.3818 1440.7 24.0832 Q1443.79 25.7499 1445.8 29.2221 M1424.03 42.7984 Q1424.03 49.847 1426.91 53.8747 Q1429.83 57.8677 1434.9 57.8677 Q1439.97 57.8677 1442.88 53.8747 Q1445.8 49.847 1445.8 42.7984 Q1445.8 35.7498 1442.88 31.7568 Q1439.97 27.729 1434.9 27.729 Q1429.83 27.729 1426.91 31.7568 Q1424.03 35.7498 1424.03 42.7984 Z" fill="#000000" fill-rule="nonzero" fill-opacity="1" /><path clip-path="url(#clip850)" d="M1480.42 27.7985 Q1475.28 27.7985 1472.29 31.8262 Q1469.31 35.8193 1469.31 42.7984 Q1469.31 49.7775 1472.26 53.8053 Q1475.24 57.7983 1480.42 57.7983 Q1485.52 57.7983 1488.51 53.7705 Q1491.49 49.7428 1491.49 42.7984 Q1491.49 35.8887 1488.51 31.8609 Q1485.52 27.7985 1480.42 27.7985 M1480.42 22.3818 Q1488.75 22.3818 1493.51 27.7985 Q1498.26 33.2151 1498.26 42.7984 Q1498.26 52.3469 1493.51 57.7983 Q1488.75 63.2149 1480.42 63.2149 Q1472.05 63.2149 1467.29 57.7983 Q1462.57 52.3469 1462.57 42.7984 Q1462.57 33.2151 1467.29 27.7985 Q1472.05 22.3818 1480.42 22.3818 Z" fill="#000000" fill-rule="nonzero" fill-opacity="1" /><path clip-path="url(#clip850)" d="M1564.72 41.1664 L1564.72 44.2914 L1535.35 44.2914 Q1535.76 50.8886 1539.31 54.3608 Q1542.88 57.7983 1549.24 57.7983 Q1552.92 57.7983 1556.35 56.8955 Q1559.83 55.9928 1563.23 54.1872 L1563.23 60.2288 Q1559.79 61.6872 1556.18 62.4511 Q1552.57 63.2149 1548.85 63.2149 Q1539.55 63.2149 1534.1 57.7983 Q1528.68 52.3817 1528.68 43.1456 Q1528.68 33.597 1533.82 28.0068 Q1538.99 22.3818 1547.74 22.3818 Q1555.59 22.3818 1560.14 27.4512 Q1564.72 32.4859 1564.72 41.1664 M1558.33 39.2915 Q1558.26 34.0484 1555.38 30.9234 Q1552.54 27.7985 1547.81 27.7985 Q1542.47 27.7985 1539.24 30.8193 Q1536.04 33.8401 1535.56 39.3262 L1558.33 39.2915 Z" fill="#000000" fill-rule="nonzero" fill-opacity="1" /><path clip-path="url(#clip850)" d="M1597.81 23.3193 L1604.2 23.3193 L1604.2 62.208 L1597.81 62.208 L1597.81 23.3193 M1597.81 8.18051 L1604.2 8.18051 L1604.2 16.2707 L1597.81 16.2707 L1597.81 8.18051 Z" fill="#000000" fill-rule="nonzero" fill-opacity="1" /><path clip-path="url(#clip850)" d="M1649.9 38.7359 L1649.9 62.208 L1643.51 62.208 L1643.51 38.9442 Q1643.51 33.4234 1641.35 30.6804 Q1639.2 27.9374 1634.9 27.9374 Q1629.72 27.9374 1626.74 31.2359 Q1623.75 34.5345 1623.75 40.229 L1623.75 62.208 L1617.33 62.208 L1617.33 23.3193 L1623.75 23.3193 L1623.75 29.361 Q1626.04 25.854 1629.13 24.1179 Q1632.26 22.3818 1636.32 22.3818 Q1643.02 22.3818 1646.46 26.5485 Q1649.9 30.6804 1649.9 38.7359 Z" fill="#000000" fill-rule="nonzero" fill-opacity="1" /><path clip-path="url(#clip850)" d="M1668.96 12.2777 L1668.96 23.3193 L1682.12 23.3193 L1682.12 28.2846 L1668.96 28.2846 L1668.96 49.3956 Q1668.96 54.1525 1670.24 55.5066 Q1671.56 56.8608 1675.56 56.8608 L1682.12 56.8608 L1682.12 62.208 L1675.56 62.208 Q1668.16 62.208 1665.35 59.465 Q1662.53 56.6872 1662.53 49.3956 L1662.53 28.2846 L1657.85 28.2846 L1657.85 23.3193 L1662.53 23.3193 L1662.53 12.2777 L1668.96 12.2777 Z" fill="#000000" fill-rule="nonzero" fill-opacity="1" /><path clip-path="url(#clip850)" d="M1723.78 41.1664 L1723.78 44.2914 L1694.41 44.2914 Q1694.83 50.8886 1698.37 54.3608 Q1701.94 57.7983 1708.3 57.7983 Q1711.98 57.7983 1715.42 56.8955 Q1718.89 55.9928 1722.29 54.1872 L1722.29 60.2288 Q1718.85 61.6872 1715.24 62.4511 Q1711.63 63.2149 1707.92 63.2149 Q1698.61 63.2149 1693.16 57.7983 Q1687.74 52.3817 1687.74 43.1456 Q1687.74 33.597 1692.88 28.0068 Q1698.06 22.3818 1706.81 22.3818 Q1714.65 22.3818 1719.2 27.4512 Q1723.78 32.4859 1723.78 41.1664 M1717.4 39.2915 Q1717.33 34.0484 1714.44 30.9234 Q1711.6 27.7985 1706.87 27.7985 Q1701.53 27.7985 1698.3 30.8193 Q1695.1 33.8401 1694.62 39.3262 L1717.4 39.2915 Z" fill="#000000" fill-rule="nonzero" fill-opacity="1" /><path clip-path="url(#clip850)" d="M1756.81 29.2915 Q1755.73 28.6665 1754.44 28.3887 Q1753.19 28.0762 1751.67 28.0762 Q1746.25 28.0762 1743.33 31.6179 Q1740.45 35.1248 1740.45 41.722 L1740.45 62.208 L1734.03 62.208 L1734.03 23.3193 L1740.45 23.3193 L1740.45 29.361 Q1742.46 25.8193 1745.69 24.1179 Q1748.92 22.3818 1753.54 22.3818 Q1754.2 22.3818 1755 22.486 Q1755.8 22.5554 1756.77 22.729 L1756.81 29.2915 Z" fill="#000000" fill-rule="nonzero" fill-opacity="1" /><path clip-path="url(#clip850)" d="M1758.92 23.3193 L1765.69 23.3193 L1777.85 55.958 L1790 23.3193 L1796.77 23.3193 L1782.19 62.208 L1773.51 62.208 L1758.92 23.3193 Z" fill="#000000" fill-rule="nonzero" fill-opacity="1" /><path clip-path="url(#clip850)" d="M1823.26 42.6595 Q1815.52 42.6595 1812.53 44.4303 Q1809.55 46.2011 1809.55 50.472 Q1809.55 53.8747 1811.77 55.8886 Q1814.03 57.8677 1817.88 57.8677 Q1823.19 57.8677 1826.39 54.1178 Q1829.62 50.3331 1829.62 44.0831 L1829.62 42.6595 L1823.26 42.6595 M1836.01 40.0206 L1836.01 62.208 L1829.62 62.208 L1829.62 56.3053 Q1827.43 59.8469 1824.17 61.5483 Q1820.9 63.2149 1816.18 63.2149 Q1810.21 63.2149 1806.67 59.8816 Q1803.16 56.5136 1803.16 50.8886 Q1803.16 44.3262 1807.53 40.9928 Q1811.94 37.6595 1820.66 37.6595 L1829.62 37.6595 L1829.62 37.0345 Q1829.62 32.6248 1826.7 30.229 Q1823.82 27.7985 1818.58 27.7985 Q1815.24 27.7985 1812.08 28.5971 Q1808.92 29.3957 1806.01 30.9929 L1806.01 25.0901 Q1809.51 23.736 1812.81 23.0763 Q1816.11 22.3818 1819.24 22.3818 Q1827.67 22.3818 1831.84 26.7568 Q1836.01 31.1318 1836.01 40.0206 Z" fill="#000000" fill-rule="nonzero" fill-opacity="1" /><path clip-path="url(#clip850)" d="M1849.17 8.18051 L1855.55 8.18051 L1855.55 62.208 L1849.17 62.208 L1849.17 8.18051 Z" fill="#000000" fill-rule="nonzero" fill-opacity="1" /><path clip-path="url(#clip850)" d="M1883.99 27.7985 Q1878.85 27.7985 1875.87 31.8262 Q1872.88 35.8193 1872.88 42.7984 Q1872.88 49.7775 1875.83 53.8053 Q1878.82 57.7983 1883.99 57.7983 Q1889.1 57.7983 1892.08 53.7705 Q1895.07 49.7428 1895.07 42.7984 Q1895.07 35.8887 1892.08 31.8609 Q1889.1 27.7985 1883.99 27.7985 M1883.99 22.3818 Q1892.33 22.3818 1897.08 27.7985 Q1901.84 33.2151 1901.84 42.7984 Q1901.84 52.3469 1897.08 57.7983 Q1892.33 63.2149 1883.99 63.2149 Q1875.62 63.2149 1870.87 57.7983 Q1866.14 52.3469 1866.14 42.7984 Q1866.14 33.2151 1870.87 27.7985 Q1875.62 22.3818 1883.99 22.3818 Z" fill="#000000" fill-rule="nonzero" fill-opacity="1" /><path clip-path="url(#clip850)" d="M1937.22 24.4651 L1937.22 30.5068 Q1934.51 29.1179 1931.6 28.4235 Q1928.68 27.729 1925.55 27.729 Q1920.8 27.729 1918.4 29.1873 Q1916.04 30.6457 1916.04 33.5623 Q1916.04 35.7845 1917.74 37.0692 Q1919.44 38.3192 1924.58 39.4651 L1926.77 39.9512 Q1933.57 41.4095 1936.42 44.0831 Q1939.3 46.722 1939.3 51.4789 Q1939.3 56.8955 1935 60.0552 Q1930.73 63.2149 1923.23 63.2149 Q1920.1 63.2149 1916.7 62.5899 Q1913.33 61.9997 1909.58 60.7844 L1909.58 54.1872 Q1913.12 56.0275 1916.56 56.965 Q1920 57.8677 1923.37 57.8677 Q1927.88 57.8677 1930.31 56.34 Q1932.74 54.7775 1932.74 51.965 Q1932.74 49.3608 1930.97 47.972 Q1929.23 46.5831 1923.3 45.2984 L1921.08 44.7775 Q1915.14 43.5275 1912.5 40.9581 Q1909.86 38.354 1909.86 33.8401 Q1909.86 28.354 1913.75 25.3679 Q1917.64 22.3818 1924.79 22.3818 Q1928.33 22.3818 1931.46 22.9027 Q1934.58 23.4235 1937.22 24.4651 Z" fill="#000000" fill-rule="nonzero" fill-opacity="1" /><path clip-path="url(#clip850)" d="M1997.67 29.2221 L1997.67 8.18051 L2004.06 8.18051 L2004.06 62.208 L1997.67 62.208 L1997.67 56.3747 Q1995.66 59.8469 1992.57 61.5483 Q1989.51 63.2149 1985.21 63.2149 Q1978.16 63.2149 1973.71 57.59 Q1969.3 51.965 1969.3 42.7984 Q1969.3 33.6318 1973.71 28.0068 Q1978.16 22.3818 1985.21 22.3818 Q1989.51 22.3818 1992.57 24.0832 Q1995.66 25.7499 1997.67 29.2221 M1975.9 42.7984 Q1975.9 49.847 1978.78 53.8747 Q1981.7 57.8677 1986.77 57.8677 Q1991.84 57.8677 1994.76 53.8747 Q1997.67 49.847 1997.67 42.7984 Q1997.67 35.7498 1994.76 31.7568 Q1991.84 27.729 1986.77 27.729 Q1981.7 27.729 1978.78 31.7568 Q1975.9 35.7498 1975.9 42.7984 Z" fill="#000000" fill-rule="nonzero" fill-opacity="1" /><path clip-path="url(#clip850)" d="M2050.48 41.1664 L2050.48 44.2914 L2021.11 44.2914 Q2021.53 50.8886 2025.07 54.3608 Q2028.64 57.7983 2035 57.7983 Q2038.68 57.7983 2042.12 56.8955 Q2045.59 55.9928 2048.99 54.1872 L2048.99 60.2288 Q2045.55 61.6872 2041.94 62.4511 Q2038.33 63.2149 2034.62 63.2149 Q2025.31 63.2149 2019.86 57.7983 Q2014.44 52.3817 2014.44 43.1456 Q2014.44 33.597 2019.58 28.0068 Q2024.76 22.3818 2033.5 22.3818 Q2041.35 22.3818 2045.9 27.4512 Q2050.48 32.4859 2050.48 41.1664 M2044.1 39.2915 Q2044.03 34.0484 2041.14 30.9234 Q2038.3 27.7985 2033.57 27.7985 Q2028.23 27.7985 2025 30.8193 Q2021.8 33.8401 2021.32 39.3262 L2044.1 39.2915 Z" fill="#000000" fill-rule="nonzero" fill-opacity="1" /><path clip-path="url(#clip850)" d="M2111.56 24.8124 L2111.56 30.7846 Q2108.85 29.2915 2106.11 28.5623 Q2103.4 27.7985 2100.62 27.7985 Q2094.41 27.7985 2090.97 31.7568 Q2087.53 35.6804 2087.53 42.7984 Q2087.53 49.9164 2090.97 53.8747 Q2094.41 57.7983 2100.62 57.7983 Q2103.4 57.7983 2106.11 57.0691 Q2108.85 56.3053 2111.56 54.8122 L2111.56 60.715 Q2108.89 61.9649 2106 62.5899 Q2103.16 63.2149 2099.93 63.2149 Q2091.14 63.2149 2085.97 57.6941 Q2080.8 52.1733 2080.8 42.7984 Q2080.8 33.2845 2086 27.8332 Q2091.25 22.3818 2100.34 22.3818 Q2103.3 22.3818 2106.11 23.0068 Q2108.92 23.5971 2111.56 24.8124 Z" fill="#000000" fill-rule="nonzero" fill-opacity="1" /><path clip-path="url(#clip850)" d="M2137.74 27.7985 Q2132.6 27.7985 2129.62 31.8262 Q2126.63 35.8193 2126.63 42.7984 Q2126.63 49.7775 2129.58 53.8053 Q2132.57 57.7983 2137.74 57.7983 Q2142.84 57.7983 2145.83 53.7705 Q2148.82 49.7428 2148.82 42.7984 Q2148.82 35.8887 2145.83 31.8609 Q2142.84 27.7985 2137.74 27.7985 M2137.74 22.3818 Q2146.07 22.3818 2150.83 27.7985 Q2155.59 33.2151 2155.59 42.7984 Q2155.59 52.3469 2150.83 57.7983 Q2146.07 63.2149 2137.74 63.2149 Q2129.37 63.2149 2124.62 57.7983 Q2119.89 52.3469 2119.89 42.7984 Q2119.89 33.2151 2124.62 27.7985 Q2129.37 22.3818 2137.74 22.3818 Z" fill="#000000" fill-rule="nonzero" fill-opacity="1" /><path clip-path="url(#clip850)" d="M2198.5 38.7359 L2198.5 62.208 L2192.12 62.208 L2192.12 38.9442 Q2192.12 33.4234 2189.96 30.6804 Q2187.81 27.9374 2183.5 27.9374 Q2178.33 27.9374 2175.34 31.2359 Q2172.36 34.5345 2172.36 40.229 L2172.36 62.208 L2165.93 62.208 L2165.93 23.3193 L2172.36 23.3193 L2172.36 29.361 Q2174.65 25.854 2177.74 24.1179 Q2180.87 22.3818 2184.93 22.3818 Q2191.63 22.3818 2195.07 26.5485 Q2198.5 30.6804 2198.5 38.7359 Z" fill="#000000" fill-rule="nonzero" fill-opacity="1" /><path clip-path="url(#clip850)" d="M2230.93 8.18051 L2230.93 13.493 L2224.82 13.493 Q2221.39 13.493 2220.03 14.8819 Q2218.71 16.2707 2218.71 19.8818 L2218.71 23.3193 L2229.23 23.3193 L2229.23 28.2846 L2218.71 28.2846 L2218.71 62.208 L2212.29 62.208 L2212.29 28.2846 L2206.18 28.2846 L2206.18 23.3193 L2212.29 23.3193 L2212.29 20.611 Q2212.29 14.118 2215.31 11.1666 Q2218.33 8.18051 2224.89 8.18051 L2230.93 8.18051 Z" fill="#000000" fill-rule="nonzero" fill-opacity="1" /><path clip-path="url(#clip850)" d="M2236.28 23.3193 L2242.67 23.3193 L2242.67 62.208 L2236.28 62.208 L2236.28 23.3193 M2236.28 8.18051 L2242.67 8.18051 L2242.67 16.2707 L2236.28 16.2707 L2236.28 8.18051 Z" fill="#000000" fill-rule="nonzero" fill-opacity="1" /><path clip-path="url(#clip850)" d="M2273.71 42.6595 Q2265.97 42.6595 2262.98 44.4303 Q2260 46.2011 2260 50.472 Q2260 53.8747 2262.22 55.8886 Q2264.48 57.8677 2268.33 57.8677 Q2273.64 57.8677 2276.84 54.1178 Q2280.07 50.3331 2280.07 44.0831 L2280.07 42.6595 L2273.71 42.6595 M2286.45 40.0206 L2286.45 62.208 L2280.07 62.208 L2280.07 56.3053 Q2277.88 59.8469 2274.61 61.5483 Q2271.35 63.2149 2266.63 63.2149 Q2260.66 63.2149 2257.11 59.8816 Q2253.61 56.5136 2253.61 50.8886 Q2253.61 44.3262 2257.98 40.9928 Q2262.39 37.6595 2271.11 37.6595 L2280.07 37.6595 L2280.07 37.0345 Q2280.07 32.6248 2277.15 30.229 Q2274.27 27.7985 2269.02 27.7985 Q2265.69 27.7985 2262.53 28.5971 Q2259.37 29.3957 2256.46 30.9929 L2256.46 25.0901 Q2259.96 23.736 2263.26 23.0763 Q2266.56 22.3818 2269.68 22.3818 Q2278.12 22.3818 2282.29 26.7568 Q2286.45 31.1318 2286.45 40.0206 Z" fill="#000000" fill-rule="nonzero" fill-opacity="1" /><path clip-path="url(#clip850)" d="M2331.94 38.7359 L2331.94 62.208 L2325.55 62.208 L2325.55 38.9442 Q2325.55 33.4234 2323.4 30.6804 Q2321.25 27.9374 2316.94 27.9374 Q2311.77 27.9374 2308.78 31.2359 Q2305.8 34.5345 2305.8 40.229 L2305.8 62.208 L2299.37 62.208 L2299.37 23.3193 L2305.8 23.3193 L2305.8 29.361 Q2308.09 25.854 2311.18 24.1179 Q2314.3 22.3818 2318.36 22.3818 Q2325.07 22.3818 2328.5 26.5485 Q2331.94 30.6804 2331.94 38.7359 Z" fill="#000000" fill-rule="nonzero" fill-opacity="1" /><path clip-path="url(#clip850)" d="M2372.67 24.8124 L2372.67 30.7846 Q2369.96 29.2915 2367.22 28.5623 Q2364.51 27.7985 2361.73 27.7985 Q2355.52 27.7985 2352.08 31.7568 Q2348.64 35.6804 2348.64 42.7984 Q2348.64 49.9164 2352.08 53.8747 Q2355.52 57.7983 2361.73 57.7983 Q2364.51 57.7983 2367.22 57.0691 Q2369.96 56.3053 2372.67 54.8122 L2372.67 60.715 Q2370 61.9649 2367.11 62.5899 Q2364.27 63.2149 2361.04 63.2149 Q2352.25 63.2149 2347.08 57.6941 Q2341.91 52.1733 2341.91 42.7984 Q2341.91 33.2845 2347.11 27.8332 Q2352.36 22.3818 2361.45 22.3818 Q2364.41 22.3818 2367.22 23.0068 Q2370.03 23.5971 2372.67 24.8124 M2363.64 62.208 Q2365.55 64.3608 2366.49 66.1663 Q2367.43 68.0066 2367.43 69.6732 Q2367.43 72.7635 2365.34 74.326 Q2363.26 75.9232 2359.16 75.9232 Q2357.57 75.9232 2356.04 75.7149 Q2354.54 75.5065 2353.05 75.0899 L2353.05 70.5413 Q2354.23 71.1316 2355.52 71.3746 Q2356.8 71.6524 2358.43 71.6524 Q2360.48 71.6524 2361.52 70.8191 Q2362.57 69.9857 2362.57 68.3885 Q2362.57 67.3469 2361.8 65.8191 Q2361.07 64.326 2359.51 62.208 L2363.64 62.208 Z" fill="#000000" fill-rule="nonzero" fill-opacity="1" /><path clip-path="url(#clip850)" d="M2401.45 42.6595 Q2393.71 42.6595 2390.73 44.4303 Q2387.74 46.2011 2387.74 50.472 Q2387.74 53.8747 2389.96 55.8886 Q2392.22 57.8677 2396.07 57.8677 Q2401.38 57.8677 2404.58 54.1178 Q2407.81 50.3331 2407.81 44.0831 L2407.81 42.6595 L2401.45 42.6595 M2414.2 40.0206 L2414.2 62.208 L2407.81 62.208 L2407.81 56.3053 Q2405.62 59.8469 2402.36 61.5483 Q2399.09 63.2149 2394.37 63.2149 Q2388.4 63.2149 2384.86 59.8816 Q2381.35 56.5136 2381.35 50.8886 Q2381.35 44.3262 2385.73 40.9928 Q2390.13 37.6595 2398.85 37.6595 L2407.81 37.6595 L2407.81 37.0345 Q2407.81 32.6248 2404.89 30.229 Q2402.01 27.7985 2396.77 27.7985 Q2393.43 27.7985 2390.27 28.5971 Q2387.11 29.3957 2384.2 30.9929 L2384.2 25.0901 Q2387.7 23.736 2391 23.0763 Q2394.3 22.3818 2397.43 22.3818 Q2405.86 22.3818 2410.03 26.7568 Q2414.2 31.1318 2414.2 40.0206 Z" fill="#000000" fill-rule="nonzero" fill-opacity="1" /><path clip-path="url(#clip852)" d="M316.418 2145.95 L330.256 2125.5 L344.094 2103.93 L357.932 2081.23 L371.769 2057.36 L385.607 2032.3 L399.445 2006.05 L413.283 1978.6 L427.121 1949.94 L440.958 1919.93 L454.796 1888.71 L468.634 1856.31 L482.472 1822.76 L496.31 1788.14 L510.148 1752.46 L523.985 1715.81 L537.823 1678.33 L551.661 1639.99 L565.499 1600.93 L579.337 1561.23 L593.174 1520.35 L607.012 1478.65 L620.85 1436.52 L634.688 1394.16 L648.526 1352.21 L662.364 1311.02 L676.201 1270.26 L690.039 1229.75 L703.877 1189.61 L717.715 1149.13 L731.553 1108.97 L745.39 1068.93 L759.228 1029.24 L773.066 990.924 L786.904 953.608 L800.742 917.255 L814.58 881.819 L828.417 846.909 L842.255 813.849 L856.093 782.168 L869.931 751.855 L883.769 722.766 L897.606 695.215 L911.444 668.479 L925.282 642.739 L939.12 618.277 L952.958 594.98 L966.796 573.094 L980.633 552.546 L994.471 533.076 L1008.31 514.659 L1022.15 496.693 L1035.98 479.701 L1049.82 464.319 L1063.66 450.304 L1077.5 436.752 L1091.34 423.662 L1105.17 412.33 L1119.01 401.241 L1132.85 390.411 L1146.69 380.307 L1160.53 370.922 L1174.36 362.66 L1188.2 355.939 L1202.04 350.399 L1215.88 344.573 L1229.71 337.927 L1243.55 331.653 L1257.39 325.715 L1271.23 320.168 L1285.07 314.999 L1298.9 310.282 L1312.74 306.128 L1326.58 302.27 L1340.42 298.865 L1354.25 295.551 L1368.09 292.418 L1381.93 289.457 L1395.77 286.701 L1409.61 284.138 L1423.44 281.759 L1437.28 279.728 L1451.12 277.916 L1464.96 276.239 L1478.79 274.689 L1492.63 273.255 L1506.47 271.937 L1520.31 270.731 L1534.15 269.613 L1547.98 268.575 L1561.82 267.606 L1575.66 266.7 L1589.5 265.853 L1603.34 265.06 L1617.17 264.324 L1631.01 263.639 L1644.85 263.005 L1658.69 262.417 L1672.52 261.873 L1686.36 261.37 L1700.2 260.885 L1714.04 260.422 L1727.88 259.994 L1741.71 259.599 L1755.55 259.251 L1769.39 258.938 L1783.23 258.648 L1797.06 258.377 L1810.9 258.124 L1824.74 257.887 L1838.58 257.665 L1852.42 257.458 L1866.25 257.264 L1880.09 257.083 L1893.93 256.916 L1907.77 256.761 L1921.61 256.618 L1935.44 256.486 L1949.28 256.365 L1963.12 256.254 L1976.96 256.154 L1990.79 256.061 L2004.63 255.978 L2018.47 255.901 L2032.31 255.831 L2046.15 255.767 L2059.98 255.708 L2073.82 255.653 L2087.66 255.601 L2101.5 255.552 L2115.33 255.505 L2129.17 255.46 L2143.01 255.416 L2156.85 255.374 L2170.69 255.335 L2184.52 255.298 L2198.36 255.264 L2212.2 255.232 L2226.04 255.203 L2239.87 255.176 L2253.71 255.152 L2267.55 255.129 L2281.39 255.109 L2295.23 255.091 L2309.06 255.075 L2322.9 255.06 L2336.74 255.047 L2350.58 255.036 L2364.42 255.025 L2378.25 255.016 L2392.09 255.008 L2405.93 255 L2419.77 254.992 L2433.6 254.985 L2447.44 254.977 L2461.28 254.97 L2475.12 254.963 L2488.96 254.955 L2502.79 254.947 L2516.63 254.94 L2530.47 254.933 L2544.31 254.926 L2558.14 254.919 L2571.98 254.913 L2585.82 254.908 L2599.66 254.902 L2613.5 254.898 L2627.33 254.893 L2641.17 254.89 L2655.01 254.886 L2668.85 254.883 L2682.69 254.881 L2696.52 254.879 L2710.36 254.878 L2724.2 254.877 L2738.04 254.877 L2751.87 254.876 L2765.71 254.877 L2779.55 254.877 L2793.39 254.878 L2807.23 254.879 L2821.06 254.879 L2834.9 254.88 L2848.74 254.881 L2862.58 254.882 L2876.41 254.882 L2890.25 254.882 L2904.09 254.882 L2917.93 254.882 L2931.77 254.881 L2945.6 254.88 L2959.44 254.879 L2973.28 254.878 L2987.12 254.876 L3000.96 254.875 L3014.79 254.875 L3028.63 254.874 L3042.47 254.873 L3056.31 254.872 L3070.14 254.871 L3070.14 180.288 L3056.31 180.289 L3042.47 180.29 L3028.63 180.29 L3014.79 180.291 L3000.96 180.291 L2987.12 180.291 L2973.28 180.29 L2959.44 180.29 L2945.6 180.289 L2931.77 180.288 L2917.93 180.287 L2904.09 180.286 L2890.25 180.285 L2876.41 180.284 L2862.58 180.283 L2848.74 180.283 L2834.9 180.282 L2821.06 180.282 L2807.23 180.282 L2793.39 180.283 L2779.55 180.284 L2765.71 180.285 L2751.87 180.286 L2738.04 180.288 L2724.2 180.29 L2710.36 180.292 L2696.52 180.295 L2682.69 180.298 L2668.85 180.302 L2655.01 180.305 L2641.17 180.309 L2627.33 180.313 L2613.5 180.318 L2599.66 180.322 L2585.82 180.327 L2571.98 180.332 L2558.14 180.336 L2544.31 180.34 L2530.47 180.344 L2516.63 180.348 L2502.79 180.351 L2488.96 180.354 L2475.12 180.357 L2461.28 180.36 L2447.44 180.363 L2433.6 180.367 L2419.77 180.372 L2405.93 180.377 L2392.09 180.384 L2378.25 180.391 L2364.42 180.4 L2350.58 180.41 L2336.74 180.422 L2322.9 180.438 L2309.06 180.454 L2295.23 180.473 L2281.39 180.493 L2267.55 180.516 L2253.71 180.541 L2239.87 180.568 L2226.04 180.597 L2212.2 180.628 L2198.36 180.662 L2184.52 180.698 L2170.69 180.737 L2156.85 180.777 L2143.01 180.82 L2129.17 180.866 L2115.33 180.914 L2101.5 180.966 L2087.66 181.021 L2073.82 181.078 L2059.98 181.139 L2046.15 181.205 L2032.31 181.277 L2018.47 181.355 L2004.63 181.44 L1990.79 181.533 L1976.96 181.635 L1963.12 181.747 L1949.28 181.869 L1935.44 182.001 L1921.61 182.145 L1907.77 182.301 L1893.93 182.469 L1880.09 182.65 L1866.25 182.844 L1852.42 183.052 L1838.58 183.274 L1824.74 183.512 L1810.9 183.768 L1797.06 184.041 L1783.23 184.336 L1769.39 184.652 L1755.55 184.995 L1741.71 185.364 L1727.88 185.765 L1714.04 186.198 L1700.2 186.667 L1686.36 187.172 L1672.52 187.704 L1658.69 188.278 L1644.85 188.897 L1631.01 189.563 L1617.17 190.181 L1603.34 190.838 L1589.5 191.544 L1575.66 192.302 L1561.82 193.119 L1547.98 193.997 L1534.15 194.941 L1520.31 195.958 L1506.47 197.055 L1492.63 198.238 L1478.79 199.517 L1464.96 200.897 L1451.12 202.387 L1437.28 203.995 L1423.44 205.728 L1409.61 207.594 L1395.77 209.601 L1381.93 211.758 L1368.09 214.544 L1354.25 217.538 L1340.42 220.244 L1326.58 223.352 L1312.74 226.633 L1298.9 230.171 L1285.07 234.278 L1271.23 239.43 L1257.39 244.961 L1243.55 250.555 L1229.71 255.306 L1215.88 260.18 L1202.04 265.302 L1188.2 270.791 L1174.36 276.67 L1160.53 282.965 L1146.69 289.71 L1132.85 296.937 L1119.01 305.112 L1105.17 313.767 L1091.34 322.61 L1077.5 332.355 L1063.66 343.558 L1049.82 354.814 L1035.98 366.547 L1022.15 380.01 L1008.31 393.314 L994.471 407.257 L980.633 422.376 L966.796 438.529 L952.958 455.666 L939.12 473.708 L925.282 492.283 L911.444 511.962 L897.606 532.763 L883.769 554.698 L869.931 577.792 L856.093 602.067 L842.255 627.54 L828.417 654.226 L814.58 682.094 L800.742 711.187 L786.904 741.649 L773.066 774.358 L759.228 807.442 L745.39 841.436 L731.553 876.473 L717.715 912.561 L703.877 949.574 L690.039 987.475 L676.201 1026.26 L662.364 1065.92 L648.526 1106.49 L634.688 1147.65 L620.85 1189.46 L607.012 1231.64 L593.174 1273.83 L579.337 1315.83 L565.499 1358.37 L551.661 1400.94 L537.823 1443.28 L523.985 1485.16 L510.148 1526.45 L496.31 1567.14 L482.472 1607.35 L468.634 1646.96 L454.796 1685.72 L440.958 1723.51 L427.121 1760.35 L413.283 1795.88 L399.445 1830.28 L385.607 1863.71 L371.769 1896.01 L357.932 1927.1 L344.094 1956.94 L330.256 1985.57 L316.418 2012.97  Z" fill="#009af9" fill-rule="evenodd" fill-opacity="0.2"/>
<polyline clip-path="url(#clip852)" style="stroke:#009af9; stroke-linecap:round; stroke-linejoin:round; stroke-width:12; stroke-opacity:1; fill:none" points="316.418,2082.69 330.256,2058.72 344.094,2033.63 357.932,2007.35 371.769,1979.85 385.607,1951.12 399.445,1921.16 413.283,1890 427.121,1857.58 440.958,1823.78 454.796,1789.02 468.634,1753.31 482.472,1716.57 496.31,1678.89 510.148,1640.31 523.985,1600.96 537.823,1560.79 551.661,1519.65 565.499,1477.97 579.337,1435.88 593.174,1393.54 607.012,1351.15 620.85,1308.76 634.688,1266.65 648.526,1224.77 662.364,1182.64 676.201,1141.77 690.039,1101.47 703.877,1061.5 717.715,1022.29 731.553,983.987 745.39,946.58 759.228,909.764 773.066,874.741 786.904,840.499 800.742,807.156 814.58,775.281 828.417,745.263 842.255,715.978 856.093,687.543 869.931,660.228 883.769,634.258 897.606,609.737 911.444,586.742 925.282,564.168 939.12,542.804 952.958,522.363 966.796,503.902 980.633,485.302 994.471,467.199 1008.31,451.013 1022.15,435.539 1035.98,420.102 1049.82,406.074 1063.66,393.748 1077.5,381.318 1091.34,370.557 1105.17,360.575 1119.01,350.918 1132.85,342.291 1146.69,333.625 1160.53,325.102 1174.36,316.995 1188.2,310.03 1202.04,304.063 1215.88,297.316 1229.71,291.184 1243.55,285.531 1257.39,280.636 1271.23,275.918 1285.07,271.621 1298.9,267.78 1312.74,264.009 1326.58,260.261 1340.42,257.127 1354.25,253.931 1368.09,251.344 1381.93,248.59 1395.77,245.91 1409.61,243.421 1423.44,241.434 1437.28,239.616 1451.12,237.932 1464.96,236.375 1478.79,234.934 1492.63,233.6 1506.47,232.366 1520.31,231.119 1534.15,230.037 1547.98,229.107 1561.82,228.304 1575.66,227.464 1589.5,226.586 1603.34,225.625 1617.17,224.816 1631.01,224.116 1644.85,223.438 1658.69,222.777 1672.52,222.165 1686.36,221.641 1700.2,221.191 1714.04,220.776 1727.88,220.393 1741.71,220.038 1755.55,219.709 1769.39,219.404 1783.23,219.119 1797.06,218.853 1810.9,218.617 1824.74,218.383 1838.58,218.148 1852.42,217.943 1866.25,217.753 1880.09,217.576 1893.93,217.413 1907.77,217.263 1921.61,217.124 1935.44,216.997 1949.28,216.881 1963.12,216.775 1976.96,216.678 1990.79,216.59 2004.63,216.509 2018.47,216.435 2032.31,216.367 2046.15,216.304 2059.98,216.245 2073.82,216.19 2087.66,216.136 2101.5,216.084 2115.33,216.034 2129.17,215.987 2143.01,215.943 2156.85,215.901 2170.69,215.862 2184.52,215.826 2198.36,215.793 2212.2,215.762 2226.04,215.734 2239.87,215.709 2253.71,215.686 2267.55,215.665 2281.39,215.646 2295.23,215.629 2309.06,215.614 2322.9,215.601 2336.74,215.59 2350.58,215.579 2364.42,215.57 2378.25,215.561 2392.09,215.553 2405.93,215.546 2419.77,215.538 2433.6,215.53 2447.44,215.522 2461.28,215.513 2475.12,215.504 2488.96,215.496 2502.79,215.488 2516.63,215.481 2530.47,215.473 2544.31,215.467 2558.14,215.46 2571.98,215.454 2585.82,215.449 2599.66,215.444 2613.5,215.44 2627.33,215.436 2641.17,215.433 2655.01,215.43 2668.85,215.428 2682.69,215.427 2696.52,215.425 2710.36,215.425 2724.2,215.424 2738.04,215.424 2751.87,215.425 2765.71,215.425 2779.55,215.426 2793.39,215.427 2807.23,215.428 2821.06,215.429 2834.9,215.429 2848.74,215.43 2862.58,215.43 2876.41,215.43 2890.25,215.429 2904.09,215.427 2917.93,215.426 2931.77,215.424 2945.6,215.423 2959.44,215.422 2973.28,215.421 2987.12,215.42 3000.96,215.419 3014.79,215.418 3028.63,215.418 3042.47,215.417 3056.31,215.416 3070.14,215.416 "/>
<path clip-path="url(#clip852)" d="M316.418 2128.96 L330.256 2107.6 L344.094 2085.1 L357.932 2061.45 L371.769 2036.59 L385.607 2010.52 L399.445 1983.23 L413.283 1954.74 L427.121 1924.94 L440.958 1893.86 L454.796 1861.59 L468.634 1828.14 L482.472 1793.56 L496.31 1757.89 L510.148 1721.18 L523.985 1683.5 L537.823 1644.91 L551.661 1605.51 L565.499 1565.38 L579.337 1524.72 L593.174 1483.72 L607.012 1442.34 L620.85 1400.67 L634.688 1358.79 L648.526 1316.85 L662.364 1274.98 L676.201 1233.32 L690.039 1191.96 L703.877 1151.03 L717.715 1109.8 L731.553 1068.69 L745.39 1028.61 L759.228 990.464 L773.066 953.221 L786.904 916.425 L800.742 880.361 L814.58 845.639 L828.417 812.453 L842.255 780.342 L856.093 749.97 L869.931 720.928 L883.769 692.473 L897.606 666.121 L911.444 640.828 L925.282 616.216 L939.12 592.556 L952.958 568.902 L966.796 546.735 L980.633 526.323 L994.471 507.538 L1008.31 489.729 L1022.15 472.485 L1035.98 456.817 L1049.82 441.086 L1063.66 427.059 L1077.5 414 L1091.34 401.78 L1105.17 391.021 L1119.01 379.286 L1132.85 369.654 L1146.69 360.812 L1160.53 351.958 L1174.36 344.139 L1188.2 336.884 L1202.04 329.517 L1215.88 323.196 L1229.71 317.359 L1243.55 311.89 L1257.39 306.843 L1271.23 302.06 L1285.07 297.685 L1298.9 293.63 L1312.74 289.752 L1326.58 286.142 L1340.42 282.736 L1354.25 279.492 L1368.09 276.566 L1381.93 273.59 L1395.77 271.207 L1409.61 268.947 L1423.44 266.748 L1437.28 264.702 L1451.12 262.792 L1464.96 261.084 L1478.79 259.444 L1492.63 257.941 L1506.47 256.554 L1520.31 255.274 L1534.15 254.142 L1547.98 253.078 L1561.82 252.091 L1575.66 251.172 L1589.5 250.294 L1603.34 249.443 L1617.17 248.643 L1631.01 247.897 L1644.85 247.216 L1658.69 246.701 L1672.52 246.192 L1686.36 245.653 L1700.2 245.13 L1714.04 244.721 L1727.88 244.354 L1741.71 244.015 L1755.55 243.697 L1769.39 243.394 L1783.23 243.06 L1797.06 242.743 L1810.9 242.446 L1824.74 242.168 L1838.58 241.909 L1852.42 241.669 L1866.25 241.446 L1880.09 241.239 L1893.93 241.049 L1907.77 240.874 L1921.61 240.751 L1935.44 240.642 L1949.28 240.541 L1963.12 240.449 L1976.96 240.364 L1990.79 240.286 L2004.63 240.214 L2018.47 240.149 L2032.31 240.09 L2046.15 240.035 L2059.98 239.986 L2073.82 239.94 L2087.66 239.897 L2101.5 239.858 L2115.33 239.82 L2129.17 239.785 L2143.01 239.75 L2156.85 239.717 L2170.69 239.684 L2184.52 239.654 L2198.36 239.625 L2212.2 239.599 L2226.04 239.574 L2239.87 239.55 L2253.71 239.529 L2267.55 239.509 L2281.39 239.491 L2295.23 239.475 L2309.06 239.461 L2322.9 239.448 L2336.74 239.436 L2350.58 239.426 L2364.42 239.417 L2378.25 239.409 L2392.09 239.403 L2405.93 239.397 L2419.77 239.392 L2433.6 239.387 L2447.44 239.383 L2461.28 239.379 L2475.12 239.375 L2488.96 239.371 L2502.79 239.367 L2516.63 239.362 L2530.47 239.357 L2544.31 239.352 L2558.14 239.346 L2571.98 239.341 L2585.82 239.336 L2599.66 239.332 L2613.5 239.327 L2627.33 239.323 L2641.17 239.319 L2655.01 239.315 L2668.85 239.312 L2682.69 239.309 L2696.52 239.307 L2710.36 239.305 L2724.2 239.303 L2738.04 239.301 L2751.87 239.3 L2765.71 239.3 L2779.55 239.299 L2793.39 239.299 L2807.23 239.299 L2821.06 239.299 L2834.9 239.3 L2848.74 239.301 L2862.58 239.302 L2876.41 239.302 L2890.25 239.303 L2904.09 239.304 L2917.93 239.305 L2931.77 239.305 L2945.6 239.306 L2959.44 239.306 L2973.28 239.306 L2987.12 239.305 L3000.96 239.305 L3014.79 239.304 L3028.63 239.303 L3042.47 239.302 L3056.31 239.301 L3070.14 239.3 L3070.14 194.558 L3056.31 194.559 L3042.47 194.56 L3028.63 194.561 L3014.79 194.561 L3000.96 194.562 L2987.12 194.563 L2973.28 194.564 L2959.44 194.566 L2945.6 194.567 L2931.77 194.568 L2917.93 194.568 L2904.09 194.569 L2890.25 194.569 L2876.41 194.568 L2862.58 194.567 L2848.74 194.567 L2834.9 194.566 L2821.06 194.565 L2807.23 194.564 L2793.39 194.563 L2779.55 194.563 L2765.71 194.563 L2751.87 194.563 L2738.04 194.563 L2724.2 194.564 L2710.36 194.565 L2696.52 194.567 L2682.69 194.569 L2668.85 194.572 L2655.01 194.575 L2641.17 194.578 L2627.33 194.582 L2613.5 194.587 L2599.66 194.592 L2585.82 194.597 L2571.98 194.603 L2558.14 194.609 L2544.31 194.615 L2530.47 194.622 L2516.63 194.629 L2502.79 194.636 L2488.96 194.643 L2475.12 194.65 L2461.28 194.657 L2447.44 194.663 L2433.6 194.669 L2419.77 194.675 L2405.93 194.682 L2392.09 194.689 L2378.25 194.696 L2364.42 194.705 L2350.58 194.715 L2336.74 194.726 L2322.9 194.738 L2309.06 194.753 L2295.23 194.769 L2281.39 194.787 L2267.55 194.807 L2253.71 194.829 L2239.87 194.853 L2226.04 194.88 L2212.2 194.909 L2198.36 194.942 L2184.52 194.978 L2170.69 195.017 L2156.85 195.058 L2143.01 195.102 L2129.17 195.149 L2115.33 195.199 L2101.5 195.251 L2087.66 195.305 L2073.82 195.36 L2059.98 195.419 L2046.15 195.481 L2032.31 195.548 L2018.47 195.621 L2004.63 195.7 L1990.79 195.787 L1976.96 195.882 L1963.12 195.986 L1949.28 196.1 L1935.44 196.225 L1921.61 196.361 L1907.77 196.509 L1893.93 196.669 L1880.09 196.843 L1866.25 197.031 L1852.42 197.198 L1838.58 197.369 L1824.74 197.551 L1810.9 197.746 L1797.06 197.954 L1783.23 198.179 L1769.39 198.436 L1755.55 198.725 L1741.71 199.037 L1727.88 199.383 L1714.04 199.767 L1700.2 200.214 L1686.36 200.712 L1672.52 201.25 L1658.69 201.832 L1644.85 202.458 L1631.01 203.068 L1617.17 203.674 L1603.34 204.358 L1589.5 205.224 L1575.66 206.155 L1561.82 207.089 L1547.98 208.01 L1534.15 208.997 L1520.31 210 L1506.47 211.041 L1492.63 212.167 L1478.79 213.409 L1464.96 214.897 L1451.12 216.341 L1437.28 218.153 L1423.44 220.226 L1409.61 222.297 L1395.77 224.398 L1381.93 226.963 L1368.09 229.699 L1354.25 232.557 L1340.42 235.62 L1326.58 238.69 L1312.74 241.876 L1298.9 245.277 L1285.07 248.667 L1271.23 253.252 L1257.39 257.461 L1243.55 261.775 L1229.71 266.435 L1215.88 271.491 L1202.04 277.022 L1188.2 283.358 L1174.36 289.738 L1160.53 297.407 L1146.69 305.095 L1132.85 313.146 L1119.01 321.207 L1105.17 329.816 L1091.34 339.99 L1077.5 350.659 L1063.66 361.64 L1049.82 373.622 L1035.98 385.461 L1022.15 399.294 L1008.31 413.342 L994.471 427.858 L980.633 443.239 L966.796 459.492 L952.958 477.401 L939.12 495.039 L925.282 514.578 L911.444 536.421 L897.606 558.145 L883.769 580.785 L869.931 604.724 L856.093 629.841 L842.255 656.163 L828.417 683.706 L814.58 712.475 L800.742 742.466 L786.904 773.769 L773.066 805.198 L759.228 839.567 L745.39 874.39 L731.553 909.434 L717.715 945.136 L703.877 983.416 L690.039 1022.58 L676.201 1062.54 L662.364 1103.07 L648.526 1143.18 L634.688 1183.82 L620.85 1225.19 L607.012 1267.24 L593.174 1309.46 L579.337 1351.78 L565.499 1394.12 L551.661 1436.27 L537.823 1477.91 L523.985 1518.97 L510.148 1559.57 L496.31 1599.49 L482.472 1638.5 L468.634 1677.17 L454.796 1715.1 L440.958 1752.08 L427.121 1788.03 L413.283 1822.88 L399.445 1856.59 L385.607 1889.11 L371.769 1920.42 L357.932 1950.51 L344.094 1979.25 L330.256 2006.71 L316.418 2032.96  Z" fill="#e26f46" fill-rule="evenodd" fill-opacity="0.2"/>
<polyline clip-path="url(#clip852)" style="stroke:#e26f46; stroke-linecap:round; stroke-linejoin:round; stroke-width:12; stroke-opacity:1; fill:none" points="316.418,2082.69 330.256,2058.72 344.094,2033.63 357.932,2007.35 371.769,1979.85 385.607,1951.12 399.445,1921.16 413.283,1890 427.121,1857.58 440.958,1823.78 454.796,1789.02 468.634,1753.31 482.472,1716.57 496.31,1678.89 510.148,1640.31 523.985,1600.96 537.823,1560.79 551.661,1519.65 565.499,1477.97 579.337,1435.88 593.174,1393.54 607.012,1351.15 620.85,1308.76 634.688,1266.65 648.526,1224.77 662.364,1182.64 676.201,1141.77 690.039,1101.47 703.877,1061.5 717.715,1022.29 731.553,983.987 745.39,946.58 759.228,909.764 773.066,874.741 786.904,840.499 800.742,807.156 814.58,775.281 828.417,745.263 842.255,715.978 856.093,687.543 869.931,660.228 883.769,634.258 897.606,609.737 911.444,586.742 925.282,564.168 939.12,542.804 952.958,522.363 966.796,503.902 980.633,485.302 994.471,467.199 1008.31,451.013 1022.15,435.539 1035.98,420.102 1049.82,406.074 1063.66,393.748 1077.5,381.318 1091.34,370.557 1105.17,360.575 1119.01,350.918 1132.85,342.291 1146.69,333.625 1160.53,325.102 1174.36,316.995 1188.2,310.03 1202.04,304.063 1215.88,297.316 1229.71,291.184 1243.55,285.531 1257.39,280.636 1271.23,275.918 1285.07,271.621 1298.9,267.78 1312.74,264.009 1326.58,260.261 1340.42,257.127 1354.25,253.931 1368.09,251.344 1381.93,248.59 1395.77,245.91 1409.61,243.421 1423.44,241.434 1437.28,239.616 1451.12,237.932 1464.96,236.375 1478.79,234.934 1492.63,233.6 1506.47,232.366 1520.31,231.119 1534.15,230.037 1547.98,229.107 1561.82,228.304 1575.66,227.464 1589.5,226.586 1603.34,225.625 1617.17,224.816 1631.01,224.116 1644.85,223.438 1658.69,222.777 1672.52,222.165 1686.36,221.641 1700.2,221.191 1714.04,220.776 1727.88,220.393 1741.71,220.038 1755.55,219.709 1769.39,219.404 1783.23,219.119 1797.06,218.853 1810.9,218.617 1824.74,218.383 1838.58,218.148 1852.42,217.943 1866.25,217.753 1880.09,217.576 1893.93,217.413 1907.77,217.263 1921.61,217.124 1935.44,216.997 1949.28,216.881 1963.12,216.775 1976.96,216.678 1990.79,216.59 2004.63,216.509 2018.47,216.435 2032.31,216.367 2046.15,216.304 2059.98,216.245 2073.82,216.19 2087.66,216.136 2101.5,216.084 2115.33,216.034 2129.17,215.987 2143.01,215.943 2156.85,215.901 2170.69,215.862 2184.52,215.826 2198.36,215.793 2212.2,215.762 2226.04,215.734 2239.87,215.709 2253.71,215.686 2267.55,215.665 2281.39,215.646 2295.23,215.629 2309.06,215.614 2322.9,215.601 2336.74,215.59 2350.58,215.579 2364.42,215.57 2378.25,215.561 2392.09,215.553 2405.93,215.546 2419.77,215.538 2433.6,215.53 2447.44,215.522 2461.28,215.513 2475.12,215.504 2488.96,215.496 2502.79,215.488 2516.63,215.481 2530.47,215.473 2544.31,215.467 2558.14,215.46 2571.98,215.454 2585.82,215.449 2599.66,215.444 2613.5,215.44 2627.33,215.436 2641.17,215.433 2655.01,215.43 2668.85,215.428 2682.69,215.427 2696.52,215.425 2710.36,215.425 2724.2,215.424 2738.04,215.424 2751.87,215.425 2765.71,215.425 2779.55,215.426 2793.39,215.427 2807.23,215.428 2821.06,215.429 2834.9,215.429 2848.74,215.43 2862.58,215.43 2876.41,215.43 2890.25,215.429 2904.09,215.427 2917.93,215.426 2931.77,215.424 2945.6,215.423 2959.44,215.422 2973.28,215.421 2987.12,215.42 3000.96,215.419 3014.79,215.418 3028.63,215.418 3042.47,215.417 3056.31,215.416 3070.14,215.416 "/>
<path clip-path="url(#clip850)" d="M2663.79 2135.47 L3055.46 2135.47 L3055.46 1979.95 L2663.79 1979.95  Z" fill="#eaeaea" fill-rule="evenodd" fill-opacity="1"/>
<polyline clip-path="url(#clip850)" style="stroke:#ffffff; stroke-linecap:round; stroke-linejoin:round; stroke-width:4; stroke-opacity:1; fill:none" points="2663.79,2135.47 3055.46,2135.47 3055.46,1979.95 2663.79,1979.95 2663.79,2135.47 "/>
<polyline clip-path="url(#clip850)" style="stroke:#009af9; stroke-linecap:round; stroke-linejoin:round; stroke-width:12; stroke-opacity:1; fill:none" points="2696.23,2031.79 2890.82,2031.79 "/>
<path clip-path="url(#clip850)" d="M2925.48 2048.35 L2925.48 2044.09 Q2927.24 2044.92 2929.04 2045.36 Q2930.85 2045.8 2932.59 2045.8 Q2937.22 2045.8 2939.65 2042.7 Q2942.1 2039.58 2942.45 2033.23 Q2941.1 2035.22 2939.04 2036.29 Q2936.98 2037.35 2934.48 2037.35 Q2929.3 2037.35 2926.27 2034.23 Q2923.26 2031.08 2923.26 2025.64 Q2923.26 2020.32 2926.4 2017.1 Q2929.55 2013.88 2934.78 2013.88 Q2940.78 2013.88 2943.93 2018.49 Q2947.1 2023.07 2947.1 2031.82 Q2947.1 2039.99 2943.21 2044.88 Q2939.34 2049.74 2932.79 2049.74 Q2931.03 2049.74 2929.23 2049.39 Q2927.42 2049.04 2925.48 2048.35 M2934.78 2033.7 Q2937.93 2033.7 2939.76 2031.54 Q2941.61 2029.39 2941.61 2025.64 Q2941.61 2021.91 2939.76 2019.76 Q2937.93 2017.58 2934.78 2017.58 Q2931.64 2017.58 2929.78 2019.76 Q2927.96 2021.91 2927.96 2025.64 Q2927.96 2029.39 2929.78 2031.54 Q2931.64 2033.7 2934.78 2033.7 Z" fill="#000000" fill-rule="nonzero" fill-opacity="1" /><path clip-path="url(#clip850)" d="M2955.55 2014.51 L2973.9 2014.51 L2973.9 2018.44 L2959.83 2018.44 L2959.83 2026.91 Q2960.85 2026.57 2961.87 2026.4 Q2962.89 2026.22 2963.9 2026.22 Q2969.69 2026.22 2973.07 2029.39 Q2976.45 2032.56 2976.45 2037.98 Q2976.45 2043.56 2972.98 2046.66 Q2969.51 2049.74 2963.19 2049.74 Q2961.01 2049.74 2958.74 2049.37 Q2956.5 2049 2954.09 2048.26 L2954.09 2043.56 Q2956.17 2044.69 2958.4 2045.25 Q2960.62 2045.8 2963.09 2045.8 Q2967.1 2045.8 2969.44 2043.7 Q2971.78 2041.59 2971.78 2037.98 Q2971.78 2034.37 2969.44 2032.26 Q2967.1 2030.15 2963.09 2030.15 Q2961.22 2030.15 2959.34 2030.57 Q2957.49 2030.99 2955.55 2031.87 L2955.55 2014.51 Z" fill="#000000" fill-rule="nonzero" fill-opacity="1" /><path clip-path="url(#clip850)" d="M3015.06 2033.86 Q3013.05 2033.86 3011.89 2035.57 Q3010.76 2037.28 3010.76 2040.34 Q3010.76 2043.35 3011.89 2045.08 Q3013.05 2046.8 3015.06 2046.8 Q3017.03 2046.8 3018.16 2045.08 Q3019.32 2043.35 3019.32 2040.34 Q3019.32 2037.31 3018.16 2035.59 Q3017.03 2033.86 3015.06 2033.86 M3015.06 2030.92 Q3018.72 2030.92 3020.87 2033.46 Q3023.02 2036.01 3023.02 2040.34 Q3023.02 2044.67 3020.85 2047.21 Q3018.7 2049.74 3015.06 2049.74 Q3011.36 2049.74 3009.21 2047.21 Q3007.05 2044.67 3007.05 2040.34 Q3007.05 2035.99 3009.21 2033.46 Q3011.38 2030.92 3015.06 2030.92 M2991.17 2016.82 Q2989.18 2016.82 2988.02 2018.56 Q2986.89 2020.27 2986.89 2023.28 Q2986.89 2026.33 2988.02 2028.05 Q2989.16 2029.76 2991.17 2029.76 Q2993.19 2029.76 2994.32 2028.05 Q2995.48 2026.33 2995.48 2023.28 Q2995.48 2020.29 2994.32 2018.56 Q2993.16 2016.82 2991.17 2016.82 M3012.08 2013.88 L3015.78 2013.88 L2994.16 2049.74 L2990.46 2049.74 L3012.08 2013.88 M2991.17 2013.88 Q2994.83 2013.88 2997.01 2016.43 Q2999.18 2018.95 2999.18 2023.28 Q2999.18 2027.65 2997.01 2030.18 Q2994.85 2032.7 2991.17 2032.7 Q2987.49 2032.7 2985.34 2030.18 Q2983.21 2027.63 2983.21 2023.28 Q2983.21 2018.97 2985.36 2016.43 Q2987.52 2013.88 2991.17 2013.88 Z" fill="#000000" fill-rule="nonzero" fill-opacity="1" /><polyline clip-path="url(#clip850)" style="stroke:#e26f46; stroke-linecap:round; stroke-linejoin:round; stroke-width:12; stroke-opacity:1; fill:none" points="2696.23,2083.63 2890.82,2083.63 "/>
<path clip-path="url(#clip850)" d="M2935.59 2081.76 Q2932.45 2081.76 2930.59 2083.92 Q2928.77 2086.07 2928.77 2089.82 Q2928.77 2093.55 2930.59 2095.72 Q2932.45 2097.87 2935.59 2097.87 Q2938.74 2097.87 2940.57 2095.72 Q2942.42 2093.55 2942.42 2089.82 Q2942.42 2086.07 2940.57 2083.92 Q2938.74 2081.76 2935.59 2081.76 M2944.88 2067.11 L2944.88 2071.37 Q2943.12 2070.54 2941.31 2070.1 Q2939.53 2069.66 2937.77 2069.66 Q2933.14 2069.66 2930.69 2072.78 Q2928.26 2075.91 2927.91 2082.23 Q2929.28 2080.21 2931.34 2079.15 Q2933.4 2078.06 2935.87 2078.06 Q2941.08 2078.06 2944.09 2081.23 Q2947.12 2084.38 2947.12 2089.82 Q2947.12 2095.14 2943.97 2098.36 Q2940.83 2101.58 2935.59 2101.58 Q2929.6 2101.58 2926.43 2096.99 Q2923.26 2092.39 2923.26 2083.66 Q2923.26 2075.47 2927.15 2070.61 Q2931.03 2065.72 2937.59 2065.72 Q2939.34 2065.72 2941.13 2066.07 Q2942.93 2066.42 2944.88 2067.11 Z" fill="#000000" fill-rule="nonzero" fill-opacity="1" /><path clip-path="url(#clip850)" d="M2965.18 2084.49 Q2961.84 2084.49 2959.92 2086.28 Q2958.03 2088.06 2958.03 2091.18 Q2958.03 2094.31 2959.92 2096.09 Q2961.84 2097.87 2965.18 2097.87 Q2968.51 2097.87 2970.43 2096.09 Q2972.35 2094.29 2972.35 2091.18 Q2972.35 2088.06 2970.43 2086.28 Q2968.53 2084.49 2965.18 2084.49 M2960.5 2082.5 Q2957.49 2081.76 2955.8 2079.7 Q2954.14 2077.64 2954.14 2074.68 Q2954.14 2070.54 2957.08 2068.13 Q2960.04 2065.72 2965.18 2065.72 Q2970.34 2065.72 2973.28 2068.13 Q2976.22 2070.54 2976.22 2074.68 Q2976.22 2077.64 2974.53 2079.7 Q2972.86 2081.76 2969.88 2082.5 Q2973.26 2083.29 2975.13 2085.58 Q2977.03 2087.87 2977.03 2091.18 Q2977.03 2096.21 2973.95 2098.89 Q2970.9 2101.58 2965.18 2101.58 Q2959.46 2101.58 2956.38 2098.89 Q2953.33 2096.21 2953.33 2091.18 Q2953.33 2087.87 2955.22 2085.58 Q2957.12 2083.29 2960.5 2082.5 M2958.79 2075.12 Q2958.79 2077.8 2960.46 2079.31 Q2962.15 2080.81 2965.18 2080.81 Q2968.19 2080.81 2969.88 2079.31 Q2971.59 2077.8 2971.59 2075.12 Q2971.59 2072.43 2969.88 2070.93 Q2968.19 2069.42 2965.18 2069.42 Q2962.15 2069.42 2960.46 2070.93 Q2958.79 2072.43 2958.79 2075.12 Z" fill="#000000" fill-rule="nonzero" fill-opacity="1" /><path clip-path="url(#clip850)" d="M3014.74 2085.7 Q3012.72 2085.7 3011.57 2087.41 Q3010.43 2089.12 3010.43 2092.18 Q3010.43 2095.19 3011.57 2096.92 Q3012.72 2098.64 3014.74 2098.64 Q3016.71 2098.64 3017.84 2096.92 Q3019 2095.19 3019 2092.18 Q3019 2089.15 3017.84 2087.43 Q3016.71 2085.7 3014.74 2085.7 M3014.74 2082.76 Q3018.4 2082.76 3020.55 2085.3 Q3022.7 2087.85 3022.7 2092.18 Q3022.7 2096.51 3020.52 2099.05 Q3018.37 2101.58 3014.74 2101.58 Q3011.03 2101.58 3008.88 2099.05 Q3006.73 2096.51 3006.73 2092.18 Q3006.73 2087.83 3008.88 2085.3 Q3011.06 2082.76 3014.74 2082.76 M2990.85 2068.66 Q2988.86 2068.66 2987.7 2070.4 Q2986.57 2072.11 2986.57 2075.12 Q2986.57 2078.17 2987.7 2079.89 Q2988.84 2081.6 2990.85 2081.6 Q2992.86 2081.6 2994 2079.89 Q2995.15 2078.17 2995.15 2075.12 Q2995.15 2072.13 2994 2070.4 Q2992.84 2068.66 2990.85 2068.66 M3011.75 2065.72 L3015.46 2065.72 L2993.84 2101.58 L2990.13 2101.58 L3011.75 2065.72 M2990.85 2065.72 Q2994.51 2065.72 2996.68 2068.27 Q2998.86 2070.79 2998.86 2075.12 Q2998.86 2079.49 2996.68 2082.02 Q2994.53 2084.54 2990.85 2084.54 Q2987.17 2084.54 2985.02 2082.02 Q2982.89 2079.47 2982.89 2075.12 Q2982.89 2070.81 2985.04 2068.27 Q2987.19 2065.72 2990.85 2065.72 Z" fill="#000000" fill-rule="nonzero" fill-opacity="1" /></svg>
