<?xml version="1.0" encoding="utf-8"?>
<svg xmlns="http://www.w3.org/2000/svg" xmlns:xlink="http://www.w3.org/1999/xlink" width="800" height="600" viewBox="0 0 3200 2400">
<defs>
  <clipPath id="clip340">
    <rect x="0" y="0" width="3200" height="2400"/>
  </clipPath>
</defs>
<path clip-path="url(#clip340)" d="M0 2400 L3200 2400 L3200 0 L0 0  Z" fill="#ffffff" fill-rule="evenodd" fill-opacity="1"/>
<defs>
  <clipPath id="clip341">
    <rect x="640" y="0" width="2241" height="2241"/>
  </clipPath>
</defs>
<path clip-path="url(#clip340)" d="M233.806 2204.92 L3152.76 2204.92 L3152.76 121.312 L233.806 121.312  Z" fill="#eaeaea" fill-rule="evenodd" fill-opacity="1"/>
<defs>
  <clipPath id="clip342">
    <rect x="233" y="121" width="2920" height="2085"/>
  </clipPath>
</defs>
<polyline clip-path="url(#clip342)" style="stroke:#ffffff; stroke-linecap:round; stroke-linejoin:round; stroke-width:2; stroke-opacity:1; fill:none" points="591.791,2204.92 591.791,121.312 "/>
<polyline clip-path="url(#clip342)" style="stroke:#ffffff; stroke-linecap:round; stroke-linejoin:round; stroke-width:2; stroke-opacity:1; fill:none" points="1142.54,2204.92 1142.54,121.312 "/>
<polyline clip-path="url(#clip342)" style="stroke:#ffffff; stroke-linecap:round; stroke-linejoin:round; stroke-width:2; stroke-opacity:1; fill:none" points="1693.28,2204.92 1693.28,121.312 "/>
<polyline clip-path="url(#clip342)" style="stroke:#ffffff; stroke-linecap:round; stroke-linejoin:round; stroke-width:2; stroke-opacity:1; fill:none" points="2244.03,2204.92 2244.03,121.312 "/>
<polyline clip-path="url(#clip342)" style="stroke:#ffffff; stroke-linecap:round; stroke-linejoin:round; stroke-width:2; stroke-opacity:1; fill:none" points="2794.77,2204.92 2794.77,121.312 "/>
<polyline clip-path="url(#clip342)" style="stroke:#ffffff; stroke-linecap:round; stroke-linejoin:round; stroke-width:2; stroke-opacity:1; fill:none" points="233.806,2002.15 3152.76,2002.15 "/>
<polyline clip-path="url(#clip342)" style="stroke:#ffffff; stroke-linecap:round; stroke-linejoin:round; stroke-width:2; stroke-opacity:1; fill:none" points="233.806,1705.01 3152.76,1705.01 "/>
<polyline clip-path="url(#clip342)" style="stroke:#ffffff; stroke-linecap:round; stroke-linejoin:round; stroke-width:2; stroke-opacity:1; fill:none" points="233.806,1407.86 3152.76,1407.86 "/>
<polyline clip-path="url(#clip342)" style="stroke:#ffffff; stroke-linecap:round; stroke-linejoin:round; stroke-width:2; stroke-opacity:1; fill:none" points="233.806,1110.72 3152.76,1110.72 "/>
<polyline clip-path="url(#clip342)" style="stroke:#ffffff; stroke-linecap:round; stroke-linejoin:round; stroke-width:2; stroke-opacity:1; fill:none" points="233.806,813.578 3152.76,813.578 "/>
<polyline clip-path="url(#clip342)" style="stroke:#ffffff; stroke-linecap:round; stroke-linejoin:round; stroke-width:2; stroke-opacity:1; fill:none" points="233.806,516.435 3152.76,516.435 "/>
<polyline clip-path="url(#clip342)" style="stroke:#ffffff; stroke-linecap:round; stroke-linejoin:round; stroke-width:2; stroke-opacity:1; fill:none" points="233.806,219.293 3152.76,219.293 "/>
<polyline clip-path="url(#clip342)" style="stroke:#ffffff; stroke-linecap:round; stroke-linejoin:round; stroke-width:4; stroke-opacity:1; fill:none" points="316.418,2204.92 316.418,121.312 "/>
<polyline clip-path="url(#clip342)" style="stroke:#ffffff; stroke-linecap:round; stroke-linejoin:round; stroke-width:4; stroke-opacity:1; fill:none" points="867.163,2204.92 867.163,121.312 "/>
<polyline clip-path="url(#clip342)" style="stroke:#ffffff; stroke-linecap:round; stroke-linejoin:round; stroke-width:4; stroke-opacity:1; fill:none" points="1417.91,2204.92 1417.91,121.312 "/>
<polyline clip-path="url(#clip342)" style="stroke:#ffffff; stroke-linecap:round; stroke-linejoin:round; stroke-width:4; stroke-opacity:1; fill:none" points="1968.65,2204.92 1968.65,121.312 "/>
<polyline clip-path="url(#clip342)" style="stroke:#ffffff; stroke-linecap:round; stroke-linejoin:round; stroke-width:4; stroke-opacity:1; fill:none" points="2519.4,2204.92 2519.4,121.312 "/>
<polyline clip-path="url(#clip342)" style="stroke:#ffffff; stroke-linecap:round; stroke-linejoin:round; stroke-width:4; stroke-opacity:1; fill:none" points="3070.14,2204.92 3070.14,121.312 "/>
<polyline clip-path="url(#clip342)" style="stroke:#ffffff; stroke-linecap:round; stroke-linejoin:round; stroke-width:4; stroke-opacity:1; fill:none" points="233.806,2150.72 3152.76,2150.72 "/>
<polyline clip-path="url(#clip342)" style="stroke:#ffffff; stroke-linecap:round; stroke-linejoin:round; stroke-width:4; stroke-opacity:1; fill:none" points="233.806,1853.58 3152.76,1853.58 "/>
<polyline clip-path="url(#clip342)" style="stroke:#ffffff; stroke-linecap:round; stroke-linejoin:round; stroke-width:4; stroke-opacity:1; fill:none" points="233.806,1556.43 3152.76,1556.43 "/>
<polyline clip-path="url(#clip342)" style="stroke:#ffffff; stroke-linecap:round; stroke-linejoin:round; stroke-width:4; stroke-opacity:1; fill:none" points="233.806,1259.29 3152.76,1259.29 "/>
<polyline clip-path="url(#clip342)" style="stroke:#ffffff; stroke-linecap:round; stroke-linejoin:round; stroke-width:4; stroke-opacity:1; fill:none" points="233.806,962.149 3152.76,962.149 "/>
<polyline clip-path="url(#clip342)" style="stroke:#ffffff; stroke-linecap:round; stroke-linejoin:round; stroke-width:4; stroke-opacity:1; fill:none" points="233.806,665.007 3152.76,665.007 "/>
<polyline clip-path="url(#clip342)" style="stroke:#ffffff; stroke-linecap:round; stroke-linejoin:round; stroke-width:4; stroke-opacity:1; fill:none" points="233.806,367.864 3152.76,367.864 "/>
<polyline clip-path="url(#clip340)" style="stroke:#ffffff; stroke-linecap:round; stroke-linejoin:round; stroke-width:4; stroke-opacity:1; fill:none" points="233.806,2204.92 3152.76,2204.92 "/>
<polyline clip-path="url(#clip340)" style="stroke:#333333; stroke-linecap:round; stroke-linejoin:round; stroke-width:4; stroke-opacity:1; fill:none" points="316.418,2204.92 316.418,2223.82 "/>
<polyline clip-path="url(#clip340)" style="stroke:#333333; stroke-linecap:round; stroke-linejoin:round; stroke-width:4; stroke-opacity:1; fill:none" points="867.163,2204.92 867.163,2223.82 "/>
<polyline clip-path="url(#clip340)" style="stroke:#333333; stroke-linecap:round; stroke-linejoin:round; stroke-width:4; stroke-opacity:1; fill:none" points="1417.91,2204.92 1417.91,2223.82 "/>
<polyline clip-path="url(#clip340)" style="stroke:#333333; stroke-linecap:round; stroke-linejoin:round; stroke-width:4; stroke-opacity:1; fill:none" points="1968.65,2204.92 1968.65,2223.82 "/>
<polyline clip-path="url(#clip340)" style="stroke:#333333; stroke-linecap:round; stroke-linejoin:round; stroke-width:4; stroke-opacity:1; fill:none" points="2519.4,2204.92 2519.4,2223.82 "/>
<polyline clip-path="url(#clip340)" style="stroke:#333333; stroke-linecap:round; stroke-linejoin:round; stroke-width:4; stroke-opacity:1; fill:none" points="3070.14,2204.92 3070.14,2223.82 "/>
<polyline clip-path="url(#clip340)" style="stroke:#333333; stroke-linecap:round; stroke-linejoin:round; stroke-width:4; stroke-opacity:1; fill:none" points="591.791,2204.92 591.791,2214.37 "/>
<polyline clip-path="url(#clip340)" style="stroke:#333333; stroke-linecap:round; stroke-linejoin:round; stroke-width:4; stroke-opacity:1; fill:none" points="1142.54,2204.92 1142.54,2214.37 "/>
<polyline clip-path="url(#clip340)" style="stroke:#333333; stroke-linecap:round; stroke-linejoin:round; stroke-width:4; stroke-opacity:1; fill:none" points="1693.28,2204.92 1693.28,2214.37 "/>
<polyline clip-path="url(#clip340)" style="stroke:#333333; stroke-linecap:round; stroke-linejoin:round; stroke-width:4; stroke-opacity:1; fill:none" points="2244.03,2204.92 2244.03,2214.37 "/>
<polyline clip-path="url(#clip340)" style="stroke:#333333; stroke-linecap:round; stroke-linejoin:round; stroke-width:4; stroke-opacity:1; fill:none" points="2794.77,2204.92 2794.77,2214.37 "/>
<path clip-path="url(#clip340)" d="M316.418 2255.04 Q312.807 2255.04 310.978 2258.6 Q309.173 2262.14 309.173 2269.27 Q309.173 2276.38 310.978 2279.95 Q312.807 2283.49 316.418 2283.49 Q320.052 2283.49 321.858 2279.95 Q323.687 2276.38 323.687 2269.27 Q323.687 2262.14 321.858 2258.6 Q320.052 2255.04 316.418 2255.04 M316.418 2251.33 Q322.228 2251.33 325.284 2255.94 Q328.362 2260.52 328.362 2269.27 Q328.362 2278 325.284 2282.61 Q322.228 2287.19 316.418 2287.19 Q310.608 2287.19 307.529 2282.61 Q304.474 2278 304.474 2269.27 Q304.474 2260.52 307.529 2255.94 Q310.608 2251.33 316.418 2251.33 Z" fill="#4c4c4c" fill-rule="nonzero" fill-opacity="1" /><path clip-path="url(#clip340)" d="M857.545 2282.58 L865.184 2282.58 L865.184 2256.22 L856.874 2257.89 L856.874 2253.63 L865.138 2251.96 L869.814 2251.96 L869.814 2282.58 L877.453 2282.58 L877.453 2286.52 L857.545 2286.52 L857.545 2282.58 Z" fill="#4c4c4c" fill-rule="nonzero" fill-opacity="1" /><path clip-path="url(#clip340)" d="M1412.56 2282.58 L1428.88 2282.58 L1428.88 2286.52 L1406.94 2286.52 L1406.94 2282.58 Q1409.6 2279.83 1414.18 2275.2 Q1418.79 2270.55 1419.97 2269.21 Q1422.21 2266.68 1423.09 2264.95 Q1424 2263.19 1424 2261.5 Q1424 2258.74 1422.05 2257.01 Q1420.13 2255.27 1417.03 2255.27 Q1414.83 2255.27 1412.38 2256.03 Q1409.95 2256.8 1407.17 2258.35 L1407.17 2253.63 Q1409.99 2252.49 1412.45 2251.91 Q1414.9 2251.33 1416.94 2251.33 Q1422.31 2251.33 1425.5 2254.02 Q1428.7 2256.71 1428.7 2261.2 Q1428.7 2263.33 1427.89 2265.25 Q1427.1 2267.14 1424.99 2269.74 Q1424.41 2270.41 1421.31 2273.63 Q1418.21 2276.82 1412.56 2282.58 Z" fill="#4c4c4c" fill-rule="nonzero" fill-opacity="1" /><path clip-path="url(#clip340)" d="M1972.9 2267.89 Q1976.26 2268.6 1978.13 2270.87 Q1980.03 2273.14 1980.03 2276.47 Q1980.03 2281.59 1976.51 2284.39 Q1972.99 2287.19 1966.51 2287.19 Q1964.34 2287.19 1962.02 2286.75 Q1959.73 2286.33 1957.28 2285.48 L1957.28 2280.96 Q1959.22 2282.1 1961.54 2282.68 Q1963.85 2283.26 1966.37 2283.26 Q1970.77 2283.26 1973.06 2281.52 Q1975.38 2279.78 1975.38 2276.47 Q1975.38 2273.42 1973.23 2271.71 Q1971.1 2269.97 1967.28 2269.97 L1963.25 2269.97 L1963.25 2266.13 L1967.46 2266.13 Q1970.91 2266.13 1972.74 2264.76 Q1974.57 2263.37 1974.57 2260.78 Q1974.57 2258.12 1972.67 2256.71 Q1970.79 2255.27 1967.28 2255.27 Q1965.36 2255.27 1963.16 2255.69 Q1960.96 2256.1 1958.32 2256.98 L1958.32 2252.82 Q1960.98 2252.08 1963.29 2251.71 Q1965.63 2251.33 1967.69 2251.33 Q1973.02 2251.33 1976.12 2253.77 Q1979.22 2256.17 1979.22 2260.29 Q1979.22 2263.16 1977.58 2265.15 Q1975.93 2267.12 1972.9 2267.89 Z" fill="#4c4c4c" fill-rule="nonzero" fill-opacity="1" /><path clip-path="url(#clip340)" d="M2522.41 2256.03 L2510.6 2274.48 L2522.41 2274.48 L2522.41 2256.03 M2521.18 2251.96 L2527.06 2251.96 L2527.06 2274.48 L2531.99 2274.48 L2531.99 2278.37 L2527.06 2278.37 L2527.06 2286.52 L2522.41 2286.52 L2522.41 2278.37 L2506.81 2278.37 L2506.81 2273.86 L2521.18 2251.96 Z" fill="#4c4c4c" fill-rule="nonzero" fill-opacity="1" /><path clip-path="url(#clip340)" d="M3060.42 2251.96 L3078.78 2251.96 L3078.78 2255.9 L3064.7 2255.9 L3064.7 2264.37 Q3065.72 2264.02 3066.74 2263.86 Q3067.76 2263.67 3068.78 2263.67 Q3074.57 2263.67 3077.95 2266.84 Q3081.32 2270.02 3081.32 2275.43 Q3081.32 2281.01 3077.85 2284.11 Q3074.38 2287.19 3068.06 2287.19 Q3065.88 2287.19 3063.62 2286.82 Q3061.37 2286.45 3058.96 2285.71 L3058.96 2281.01 Q3061.05 2282.14 3063.27 2282.7 Q3065.49 2283.26 3067.97 2283.26 Q3071.97 2283.26 3074.31 2281.15 Q3076.65 2279.04 3076.65 2275.43 Q3076.65 2271.82 3074.31 2269.71 Q3071.97 2267.61 3067.97 2267.61 Q3066.09 2267.61 3064.22 2268.02 Q3062.37 2268.44 3060.42 2269.32 L3060.42 2251.96 Z" fill="#4c4c4c" fill-rule="nonzero" fill-opacity="1" /><path clip-path="url(#clip340)" d="M1692.34 2316.01 L1692.34 2326.14 L1704.41 2326.14 L1704.41 2330.69 L1692.34 2330.69 L1692.34 2350.04 Q1692.34 2354.4 1693.52 2355.64 Q1694.73 2356.88 1698.39 2356.88 L1704.41 2356.88 L1704.41 2361.78 L1698.39 2361.78 Q1691.61 2361.78 1689.03 2359.27 Q1686.45 2356.72 1686.45 2350.04 L1686.45 2330.69 L1682.16 2330.69 L1682.16 2326.14 L1686.45 2326.14 L1686.45 2316.01 L1692.34 2316.01 Z" fill="#000000" fill-rule="nonzero" fill-opacity="1" /><polyline clip-path="url(#clip340)" style="stroke:#ffffff; stroke-linecap:round; stroke-linejoin:round; stroke-width:4; stroke-opacity:1; fill:none" points="233.806,2204.92 233.806,121.312 "/>
<polyline clip-path="url(#clip340)" style="stroke:#333333; stroke-linecap:round; stroke-linejoin:round; stroke-width:4; stroke-opacity:1; fill:none" points="233.806,2150.72 214.909,2150.72 "/>
<polyline clip-path="url(#clip340)" style="stroke:#333333; stroke-linecap:round; stroke-linejoin:round; stroke-width:4; stroke-opacity:1; fill:none" points="233.806,1853.58 214.909,1853.58 "/>
<polyline clip-path="url(#clip340)" style="stroke:#333333; stroke-linecap:round; stroke-linejoin:round; stroke-width:4; stroke-opacity:1; fill:none" points="233.806,1556.43 214.909,1556.43 "/>
<polyline clip-path="url(#clip340)" style="stroke:#333333; stroke-linecap:round; stroke-linejoin:round; stroke-width:4; stroke-opacity:1; fill:none" points="233.806,1259.29 214.909,1259.29 "/>
<polyline clip-path="url(#clip340)" style="stroke:#333333; stroke-linecap:round; stroke-linejoin:round; stroke-width:4; stroke-opacity:1; fill:none" points="233.806,962.149 214.909,962.149 "/>
<polyline clip-path="url(#clip340)" style="stroke:#333333; stroke-linecap:round; stroke-linejoin:round; stroke-width:4; stroke-opacity:1; fill:none" points="233.806,665.007 214.909,665.007 "/>
<polyline clip-path="url(#clip340)" style="stroke:#333333; stroke-linecap:round; stroke-linejoin:round; stroke-width:4; stroke-opacity:1; fill:none" points="233.806,367.864 214.909,367.864 "/>
<polyline clip-path="url(#clip340)" style="stroke:#333333; stroke-linecap:round; stroke-linejoin:round; stroke-width:4; stroke-opacity:1; fill:none" points="233.806,2002.15 224.357,2002.15 "/>
<polyline clip-path="url(#clip340)" style="stroke:#333333; stroke-linecap:round; stroke-linejoin:round; stroke-width:4; stroke-opacity:1; fill:none" points="233.806,1705.01 224.357,1705.01 "/>
<polyline clip-path="url(#clip340)" style="stroke:#333333; stroke-linecap:round; stroke-linejoin:round; stroke-width:4; stroke-opacity:1; fill:none" points="233.806,1407.86 224.357,1407.86 "/>
<polyline clip-path="url(#clip340)" style="stroke:#333333; stroke-linecap:round; stroke-linejoin:round; stroke-width:4; stroke-opacity:1; fill:none" points="233.806,1110.72 224.357,1110.72 "/>
<polyline clip-path="url(#clip340)" style="stroke:#333333; stroke-linecap:round; stroke-linejoin:round; stroke-width:4; stroke-opacity:1; fill:none" points="233.806,813.578 224.357,813.578 "/>
<polyline clip-path="url(#clip340)" style="stroke:#333333; stroke-linecap:round; stroke-linejoin:round; stroke-width:4; stroke-opacity:1; fill:none" points="233.806,516.435 224.357,516.435 "/>
<polyline clip-path="url(#clip340)" style="stroke:#333333; stroke-linecap:round; stroke-linejoin:round; stroke-width:4; stroke-opacity:1; fill:none" points="233.806,219.293 224.357,219.293 "/>
<path clip-path="url(#clip340)" d="M106.228 2136.52 Q102.617 2136.52 100.788 2140.08 Q98.9825 2143.63 98.9825 2150.75 Q98.9825 2157.86 100.788 2161.43 Q102.617 2164.97 106.228 2164.97 Q109.862 2164.97 111.668 2161.43 Q113.496 2157.86 113.496 2150.75 Q113.496 2143.63 111.668 2140.08 Q109.862 2136.52 106.228 2136.52 M106.228 2132.82 Q112.038 2132.82 115.094 2137.42 Q118.172 2142 118.172 2150.75 Q118.172 2159.48 115.094 2164.09 Q112.038 2168.67 106.228 2168.67 Q100.418 2168.67 97.339 2164.09 Q94.2835 2159.48 94.2835 2150.75 Q94.2835 2142 97.339 2137.42 Q100.418 2132.82 106.228 2132.82 Z" fill="#4c4c4c" fill-rule="nonzero" fill-opacity="1" /><path clip-path="url(#clip340)" d="M126.39 2162.12 L131.274 2162.12 L131.274 2168 L126.39 2168 L126.39 2162.12 Z" fill="#4c4c4c" fill-rule="nonzero" fill-opacity="1" /><path clip-path="url(#clip340)" d="M145.487 2164.07 L161.806 2164.07 L161.806 2168 L139.862 2168 L139.862 2164.07 Q142.524 2161.31 147.107 2156.68 Q151.714 2152.03 152.894 2150.69 Q155.14 2148.16 156.019 2146.43 Q156.922 2144.67 156.922 2142.98 Q156.922 2140.22 154.978 2138.49 Q153.056 2136.75 149.954 2136.75 Q147.755 2136.75 145.302 2137.51 Q142.871 2138.28 140.093 2139.83 L140.093 2135.11 Q142.917 2133.97 145.371 2133.39 Q147.825 2132.82 149.862 2132.82 Q155.232 2132.82 158.427 2135.5 Q161.621 2138.19 161.621 2142.68 Q161.621 2144.81 160.811 2146.73 Q160.024 2148.63 157.917 2151.22 Q157.339 2151.89 154.237 2155.11 Q151.135 2158.3 145.487 2164.07 Z" fill="#4c4c4c" fill-rule="nonzero" fill-opacity="1" /><path clip-path="url(#clip340)" d="M104.145 1839.38 Q100.533 1839.38 98.7048 1842.94 Q96.8992 1846.48 96.8992 1853.61 Q96.8992 1860.72 98.7048 1864.28 Q100.533 1867.83 104.145 1867.83 Q107.779 1867.83 109.584 1864.28 Q111.413 1860.72 111.413 1853.61 Q111.413 1846.48 109.584 1842.94 Q107.779 1839.38 104.145 1839.38 M104.145 1835.67 Q109.955 1835.67 113.01 1840.28 Q116.089 1844.86 116.089 1853.61 Q116.089 1862.34 113.01 1866.95 Q109.955 1871.53 104.145 1871.53 Q98.3344 1871.53 95.2557 1866.95 Q92.2002 1862.34 92.2002 1853.61 Q92.2002 1844.86 95.2557 1840.28 Q98.3344 1835.67 104.145 1835.67 Z" fill="#4c4c4c" fill-rule="nonzero" fill-opacity="1" /><path clip-path="url(#clip340)" d="M124.306 1864.98 L129.191 1864.98 L129.191 1870.86 L124.306 1870.86 L124.306 1864.98 Z" fill="#4c4c4c" fill-rule="nonzero" fill-opacity="1" /><path clip-path="url(#clip340)" d="M152.223 1840.37 L140.417 1858.82 L152.223 1858.82 L152.223 1840.37 M150.996 1836.3 L156.876 1836.3 L156.876 1858.82 L161.806 1858.82 L161.806 1862.71 L156.876 1862.71 L156.876 1870.86 L152.223 1870.86 L152.223 1862.71 L136.621 1862.71 L136.621 1858.2 L150.996 1836.3 Z" fill="#4c4c4c" fill-rule="nonzero" fill-opacity="1" /><path clip-path="url(#clip340)" d="M104.469 1542.23 Q100.858 1542.23 99.0288 1545.8 Q97.2233 1549.34 97.2233 1556.47 Q97.2233 1563.58 99.0288 1567.14 Q100.858 1570.68 104.469 1570.68 Q108.103 1570.68 109.908 1567.14 Q111.737 1563.58 111.737 1556.47 Q111.737 1549.34 109.908 1545.8 Q108.103 1542.23 104.469 1542.23 M104.469 1538.53 Q110.279 1538.53 113.334 1543.14 Q116.413 1547.72 116.413 1556.47 Q116.413 1565.2 113.334 1569.8 Q110.279 1574.39 104.469 1574.39 Q98.6585 1574.39 95.5798 1569.8 Q92.5242 1565.2 92.5242 1556.47 Q92.5242 1547.72 95.5798 1543.14 Q98.6585 1538.53 104.469 1538.53 Z" fill="#4c4c4c" fill-rule="nonzero" fill-opacity="1" /><path clip-path="url(#clip340)" d="M124.631 1567.84 L129.515 1567.84 L129.515 1573.71 L124.631 1573.71 L124.631 1567.84 Z" fill="#4c4c4c" fill-rule="nonzero" fill-opacity="1" /><path clip-path="url(#clip340)" d="M150.279 1554.57 Q147.13 1554.57 145.279 1556.72 Q143.45 1558.88 143.45 1562.63 Q143.45 1566.35 145.279 1568.53 Q147.13 1570.68 150.279 1570.68 Q153.427 1570.68 155.255 1568.53 Q157.107 1566.35 157.107 1562.63 Q157.107 1558.88 155.255 1556.72 Q153.427 1554.57 150.279 1554.57 M159.561 1539.92 L159.561 1544.18 Q157.802 1543.34 155.996 1542.9 Q154.214 1542.46 152.454 1542.46 Q147.825 1542.46 145.371 1545.59 Q142.941 1548.71 142.593 1555.03 Q143.959 1553.02 146.019 1551.96 Q148.079 1550.87 150.556 1550.87 Q155.765 1550.87 158.774 1554.04 Q161.806 1557.19 161.806 1562.63 Q161.806 1567.95 158.658 1571.17 Q155.51 1574.39 150.279 1574.39 Q144.283 1574.39 141.112 1569.8 Q137.941 1565.2 137.941 1556.47 Q137.941 1548.28 141.83 1543.41 Q145.718 1538.53 152.269 1538.53 Q154.029 1538.53 155.811 1538.88 Q157.616 1539.22 159.561 1539.92 Z" fill="#4c4c4c" fill-rule="nonzero" fill-opacity="1" /><path clip-path="url(#clip340)" d="M104.723 1245.09 Q101.112 1245.09 99.2835 1248.66 Q97.4779 1252.2 97.4779 1259.33 Q97.4779 1266.43 99.2835 1270 Q101.112 1273.54 104.723 1273.54 Q108.357 1273.54 110.163 1270 Q111.992 1266.43 111.992 1259.33 Q111.992 1252.2 110.163 1248.66 Q108.357 1245.09 104.723 1245.09 M104.723 1241.39 Q110.533 1241.39 113.589 1245.99 Q116.668 1250.58 116.668 1259.33 Q116.668 1268.05 113.589 1272.66 Q110.533 1277.24 104.723 1277.24 Q98.9131 1277.24 95.8344 1272.66 Q92.7789 1268.05 92.7789 1259.33 Q92.7789 1250.58 95.8344 1245.99 Q98.9131 1241.39 104.723 1241.39 Z" fill="#4c4c4c" fill-rule="nonzero" fill-opacity="1" /><path clip-path="url(#clip340)" d="M124.885 1270.69 L129.769 1270.69 L129.769 1276.57 L124.885 1276.57 L124.885 1270.69 Z" fill="#4c4c4c" fill-rule="nonzero" fill-opacity="1" /><path clip-path="url(#clip340)" d="M149.954 1260.16 Q146.621 1260.16 144.7 1261.94 Q142.802 1263.72 142.802 1266.85 Q142.802 1269.97 144.7 1271.76 Q146.621 1273.54 149.954 1273.54 Q153.288 1273.54 155.209 1271.76 Q157.13 1269.95 157.13 1266.85 Q157.13 1263.72 155.209 1261.94 Q153.311 1260.16 149.954 1260.16 M145.279 1258.17 Q142.269 1257.43 140.58 1255.37 Q138.913 1253.31 138.913 1250.35 Q138.913 1246.2 141.853 1243.79 Q144.816 1241.39 149.954 1241.39 Q155.116 1241.39 158.056 1243.79 Q160.996 1246.2 160.996 1250.35 Q160.996 1253.31 159.306 1255.37 Q157.64 1257.43 154.654 1258.17 Q158.033 1258.96 159.908 1261.25 Q161.806 1263.54 161.806 1266.85 Q161.806 1271.87 158.728 1274.56 Q155.672 1277.24 149.954 1277.24 Q144.237 1277.24 141.158 1274.56 Q138.103 1271.87 138.103 1266.85 Q138.103 1263.54 140.001 1261.25 Q141.899 1258.96 145.279 1258.17 M143.566 1250.79 Q143.566 1253.47 145.232 1254.97 Q146.922 1256.48 149.954 1256.48 Q152.964 1256.48 154.654 1254.97 Q156.366 1253.47 156.366 1250.79 Q156.366 1248.1 154.654 1246.6 Q152.964 1245.09 149.954 1245.09 Q146.922 1245.09 145.232 1246.6 Q143.566 1248.1 143.566 1250.79 Z" fill="#4c4c4c" fill-rule="nonzero" fill-opacity="1" /><path clip-path="url(#clip340)" d="M95.4409 975.494 L103.08 975.494 L103.08 949.129 L94.7696 950.795 L94.7696 946.536 L103.033 944.869 L107.709 944.869 L107.709 975.494 L115.348 975.494 L115.348 979.429 L95.4409 979.429 L95.4409 975.494 Z" fill="#4c4c4c" fill-rule="nonzero" fill-opacity="1" /><path clip-path="url(#clip340)" d="M124.793 973.55 L129.677 973.55 L129.677 979.429 L124.793 979.429 L124.793 973.55 Z" fill="#4c4c4c" fill-rule="nonzero" fill-opacity="1" /><path clip-path="url(#clip340)" d="M149.862 947.948 Q146.251 947.948 144.422 951.513 Q142.617 955.054 142.617 962.184 Q142.617 969.29 144.422 972.855 Q146.251 976.397 149.862 976.397 Q153.496 976.397 155.302 972.855 Q157.13 969.29 157.13 962.184 Q157.13 955.054 155.302 951.513 Q153.496 947.948 149.862 947.948 M149.862 944.244 Q155.672 944.244 158.728 948.851 Q161.806 953.434 161.806 962.184 Q161.806 970.911 158.728 975.517 Q155.672 980.101 149.862 980.101 Q144.052 980.101 140.973 975.517 Q137.918 970.911 137.918 962.184 Q137.918 953.434 140.973 948.851 Q144.052 944.244 149.862 944.244 Z" fill="#4c4c4c" fill-rule="nonzero" fill-opacity="1" /><path clip-path="url(#clip340)" d="M97.0381 678.351 L104.677 678.351 L104.677 651.986 L96.3668 653.652 L96.3668 649.393 L104.631 647.727 L109.307 647.727 L109.307 678.351 L116.945 678.351 L116.945 682.287 L97.0381 682.287 L97.0381 678.351 Z" fill="#4c4c4c" fill-rule="nonzero" fill-opacity="1" /><path clip-path="url(#clip340)" d="M126.39 676.407 L131.274 676.407 L131.274 682.287 L126.39 682.287 L126.39 676.407 Z" fill="#4c4c4c" fill-rule="nonzero" fill-opacity="1" /><path clip-path="url(#clip340)" d="M145.487 678.351 L161.806 678.351 L161.806 682.287 L139.862 682.287 L139.862 678.351 Q142.524 675.597 147.107 670.967 Q151.714 666.314 152.894 664.972 Q155.14 662.449 156.019 660.713 Q156.922 658.953 156.922 657.264 Q156.922 654.509 154.978 652.773 Q153.056 651.037 149.954 651.037 Q147.755 651.037 145.302 651.801 Q142.871 652.565 140.093 654.115 L140.093 649.393 Q142.917 648.259 145.371 647.68 Q147.825 647.102 149.862 647.102 Q155.232 647.102 158.427 649.787 Q161.621 652.472 161.621 656.963 Q161.621 659.092 160.811 661.014 Q160.024 662.912 157.917 665.504 Q157.339 666.176 154.237 669.393 Q151.135 672.588 145.487 678.351 Z" fill="#4c4c4c" fill-rule="nonzero" fill-opacity="1" /><path clip-path="url(#clip340)" d="M94.9548 381.209 L102.594 381.209 L102.594 354.843 L94.2835 356.51 L94.2835 352.251 L102.547 350.584 L107.223 350.584 L107.223 381.209 L114.862 381.209 L114.862 385.144 L94.9548 385.144 L94.9548 381.209 Z" fill="#4c4c4c" fill-rule="nonzero" fill-opacity="1" /><path clip-path="url(#clip340)" d="M124.306 379.264 L129.191 379.264 L129.191 385.144 L124.306 385.144 L124.306 379.264 Z" fill="#4c4c4c" fill-rule="nonzero" fill-opacity="1" /><path clip-path="url(#clip340)" d="M152.223 354.658 L140.417 373.107 L152.223 373.107 L152.223 354.658 M150.996 350.584 L156.876 350.584 L156.876 373.107 L161.806 373.107 L161.806 376.996 L156.876 376.996 L156.876 385.144 L152.223 385.144 L152.223 376.996 L136.621 376.996 L136.621 372.482 L150.996 350.584 Z" fill="#4c4c4c" fill-rule="nonzero" fill-opacity="1" /><path clip-path="url(#clip340)" d="M48.597 1321.32 L67.5031 1321.32 L67.5031 1327.21 L18.2962 1327.21 L18.2962 1321.32 L23.7071 1321.32 Q20.5242 1319.47 18.9964 1316.67 Q17.4368 1313.84 17.4368 1309.93 Q17.4368 1303.43 22.5931 1299.39 Q27.7493 1295.32 36.152 1295.32 Q44.5547 1295.32 49.711 1299.39 Q54.8672 1303.43 54.8672 1309.93 Q54.8672 1313.84 53.3394 1316.67 Q51.7798 1319.47 48.597 1321.32 M36.152 1301.4 Q29.6908 1301.4 26.0305 1304.07 Q22.3384 1306.71 22.3384 1311.36 Q22.3384 1316 26.0305 1318.68 Q29.6908 1321.32 36.152 1321.32 Q42.6132 1321.32 46.3053 1318.68 Q49.9656 1316 49.9656 1311.36 Q49.9656 1306.71 46.3053 1304.07 Q42.6132 1301.4 36.152 1301.4 Z" fill="#000000" fill-rule="nonzero" fill-opacity="1" /><path clip-path="url(#clip340)" d="M22.4021 1271.79 Q22.4021 1276.51 26.0942 1279.24 Q29.7545 1281.98 36.152 1281.98 Q42.5495 1281.98 46.2417 1279.27 Q49.9019 1276.54 49.9019 1271.79 Q49.9019 1267.12 46.2098 1264.38 Q42.5177 1261.64 36.152 1261.64 Q29.8181 1261.64 26.126 1264.38 Q22.4021 1267.12 22.4021 1271.79 M17.4368 1271.79 Q17.4368 1264.16 22.4021 1259.8 Q27.3673 1255.43 36.152 1255.43 Q44.9049 1255.43 49.9019 1259.8 Q54.8672 1264.16 54.8672 1271.79 Q54.8672 1279.47 49.9019 1283.83 Q44.9049 1288.15 36.152 1288.15 Q27.3673 1288.15 22.4021 1283.83 Q17.4368 1279.47 17.4368 1271.79 Z" fill="#000000" fill-rule="nonzero" fill-opacity="1" /><path clip-path="url(#clip340)" d="M48.597 1240.06 L67.5031 1240.06 L67.5031 1245.95 L18.2962 1245.95 L18.2962 1240.06 L23.7071 1240.06 Q20.5242 1238.22 18.9964 1235.41 Q17.4368 1232.58 17.4368 1228.67 Q17.4368 1222.17 22.5931 1218.13 Q27.7493 1214.06 36.152 1214.06 Q44.5547 1214.06 49.711 1218.13 Q54.8672 1222.17 54.8672 1228.67 Q54.8672 1232.58 53.3394 1235.41 Q51.7798 1238.22 48.597 1240.06 M36.152 1220.14 Q29.6908 1220.14 26.0305 1222.81 Q22.3384 1225.45 22.3384 1230.1 Q22.3384 1234.75 26.0305 1237.42 Q29.6908 1240.06 36.152 1240.06 Q42.6132 1240.06 46.3053 1237.42 Q49.9656 1234.75 49.9656 1230.1 Q49.9656 1225.45 46.3053 1222.81 Q42.6132 1220.14 36.152 1220.14 Z" fill="#000000" fill-rule="nonzero" fill-opacity="1" /><path clip-path="url(#clip340)" d="M39.8759 1204.95 L18.2962 1204.95 L18.2962 1199.1 L39.6531 1199.1 Q44.7139 1199.1 47.2602 1197.12 Q49.7746 1195.15 49.7746 1191.2 Q49.7746 1186.46 46.7509 1183.72 Q43.7272 1180.96 38.5073 1180.96 L18.2962 1180.96 L18.2962 1175.1 L53.9442 1175.1 L53.9442 1180.96 L48.4696 1180.96 Q51.7162 1183.09 53.3076 1185.92 Q54.8672 1188.72 54.8672 1192.45 Q54.8672 1198.59 51.0478 1201.77 Q47.2283 1204.95 39.8759 1204.95 M17.4368 1190.22 L17.4368 1190.22 Z" fill="#000000" fill-rule="nonzero" fill-opacity="1" /><path clip-path="url(#clip340)" d="M4.41896 1163.04 L4.41896 1157.18 L53.9442 1157.18 L53.9442 1163.04 L4.41896 1163.04 Z" fill="#000000" fill-rule="nonzero" fill-opacity="1" /><path clip-path="url(#clip340)" d="M36.0247 1128.73 Q36.0247 1135.82 37.6479 1138.56 Q39.2712 1141.3 43.1861 1141.3 Q46.3053 1141.3 48.1514 1139.26 Q49.9656 1137.19 49.9656 1133.66 Q49.9656 1128.79 46.5281 1125.86 Q43.0588 1122.9 37.3297 1122.9 L36.0247 1122.9 L36.0247 1128.73 M33.6057 1117.04 L53.9442 1117.04 L53.9442 1122.9 L48.5333 1122.9 Q51.7798 1124.91 53.3394 1127.9 Q54.8672 1130.89 54.8672 1135.22 Q54.8672 1140.69 51.8116 1143.94 Q48.7243 1147.15 43.5681 1147.15 Q37.5525 1147.15 34.4969 1143.14 Q31.4414 1139.1 31.4414 1131.11 L31.4414 1122.9 L30.8685 1122.9 Q26.8262 1122.9 24.6301 1125.57 Q22.4021 1128.22 22.4021 1133.02 Q22.4021 1136.08 23.1341 1138.97 Q23.8662 1141.87 25.3303 1144.54 L19.9195 1144.54 Q18.6781 1141.33 18.0734 1138.31 Q17.4368 1135.28 17.4368 1132.42 Q17.4368 1124.68 21.4472 1120.86 Q25.4576 1117.04 33.6057 1117.04 Z" fill="#000000" fill-rule="nonzero" fill-opacity="1" /><path clip-path="url(#clip340)" d="M19.6648 1079.33 L25.1393 1079.33 Q23.7707 1081.81 23.1023 1084.32 Q22.4021 1086.81 22.4021 1089.35 Q22.4021 1095.05 26.0305 1098.2 Q29.6272 1101.35 36.152 1101.35 Q42.6769 1101.35 46.3053 1098.2 Q49.9019 1095.05 49.9019 1089.35 Q49.9019 1086.81 49.2335 1084.32 Q48.5333 1081.81 47.1647 1079.33 L52.5755 1079.33 Q53.7214 1081.78 54.2943 1084.42 Q54.8672 1087.03 54.8672 1089.99 Q54.8672 1098.04 49.8064 1102.78 Q44.7457 1107.53 36.152 1107.53 Q27.431 1107.53 22.4339 1102.75 Q17.4368 1097.95 17.4368 1089.61 Q17.4368 1086.9 18.0097 1084.32 Q18.5508 1081.75 19.6648 1079.33 M53.9442 1087.6 Q55.9175 1085.85 57.5726 1084.99 Q59.2595 1084.13 60.7873 1084.13 Q63.62 1084.13 65.0523 1086.04 Q66.5164 1087.95 66.5164 1091.71 Q66.5164 1093.17 66.3255 1094.57 Q66.1345 1095.94 65.7525 1097.31 L61.583 1097.31 Q62.1241 1096.23 62.3469 1095.05 Q62.6015 1093.87 62.6015 1092.38 Q62.6015 1090.5 61.8376 1089.54 Q61.0737 1088.59 59.6096 1088.59 Q58.6548 1088.59 57.2543 1089.29 Q55.8857 1089.96 53.9442 1091.39 L53.9442 1087.6 Z" fill="#000000" fill-rule="nonzero" fill-opacity="1" /><path clip-path="url(#clip340)" d="M36.0247 1052.94 Q36.0247 1060.04 37.6479 1062.78 Q39.2712 1065.51 43.1861 1065.51 Q46.3053 1065.51 48.1514 1063.48 Q49.9656 1061.41 49.9656 1057.87 Q49.9656 1053.01 46.5281 1050.08 Q43.0588 1047.12 37.3297 1047.12 L36.0247 1047.12 L36.0247 1052.94 M33.6057 1041.26 L53.9442 1041.26 L53.9442 1047.12 L48.5333 1047.12 Q51.7798 1049.12 53.3394 1052.11 Q54.8672 1055.11 54.8672 1059.43 Q54.8672 1064.91 51.8116 1068.16 Q48.7243 1071.37 43.5681 1071.37 Q37.5525 1071.37 34.4969 1067.36 Q31.4414 1063.32 31.4414 1055.33 L31.4414 1047.12 L30.8685 1047.12 Q26.8262 1047.12 24.6301 1049.79 Q22.4021 1052.43 22.4021 1057.24 Q22.4021 1060.29 23.1341 1063.19 Q23.8662 1066.09 25.3303 1068.76 L19.9195 1068.76 Q18.6781 1065.55 18.0734 1062.52 Q17.4368 1059.5 17.4368 1056.63 Q17.4368 1048.9 21.4472 1045.08 Q25.4576 1041.26 33.6057 1041.26 M10.3391 1056.51 L8.5885 1058.32 Q7.95193 1059.02 7.66547 1059.56 Q7.34718 1060.07 7.34718 1060.48 Q7.34718 1061.69 8.52484 1062.27 Q9.67067 1062.84 12.2806 1062.9 L12.2806 1066.88 Q7.98376 1066.82 5.66027 1065.2 Q3.30496 1063.57 3.30496 1060.68 Q3.30496 1059.47 3.75056 1058.45 Q4.19616 1057.43 5.2465 1056.25 L6.99707 1054.44 Q7.63364 1053.74 7.95193 1053.23 Q8.23838 1052.69 8.23838 1052.27 Q8.23838 1051.06 7.09256 1050.49 Q5.9149 1049.92 3.30496 1049.85 L3.30496 1045.88 Q7.60181 1045.94 9.95712 1047.56 Q12.2806 1049.19 12.2806 1052.08 Q12.2806 1053.29 11.835 1054.31 Q11.3894 1055.33 10.3391 1056.51 Z" fill="#000000" fill-rule="nonzero" fill-opacity="1" /><path clip-path="url(#clip340)" d="M22.4021 1015.38 Q22.4021 1020.09 26.0942 1022.83 Q29.7545 1025.57 36.152 1025.57 Q42.5495 1025.57 46.2417 1022.86 Q49.9019 1020.13 49.9019 1015.38 Q49.9019 1010.71 46.2098 1007.97 Q42.5177 1005.23 36.152 1005.23 Q29.8181 1005.23 26.126 1007.97 Q22.4021 1010.71 22.4021 1015.38 M17.4368 1015.38 Q17.4368 1007.74 22.4021 1003.38 Q27.3673 999.024 36.152 999.024 Q44.9049 999.024 49.9019 1003.38 Q54.8672 1007.74 54.8672 1015.38 Q54.8672 1023.05 49.9019 1027.42 Q44.9049 1031.74 36.152 1031.74 Q27.3673 1031.74 22.4021 1027.42 Q17.4368 1023.05 17.4368 1015.38 Z" fill="#000000" fill-rule="nonzero" fill-opacity="1" /><path clip-path="url(#clip340)" d="M972.365 23.3193 L979.136 23.3193 L991.288 55.958 L1003.44 23.3193 L1010.21 23.3193 L995.629 62.208 L986.948 62.208 L972.365 23.3193 Z" fill="#000000" fill-rule="nonzero" fill-opacity="1" /><path clip-path="url(#clip340)" d="M1036.7 42.6595 Q1028.96 42.6595 1025.98 44.4303 Q1022.99 46.2011 1022.99 50.472 Q1022.99 53.8747 1025.21 55.8886 Q1027.47 57.8677 1031.32 57.8677 Q1036.64 57.8677 1039.83 54.1178 Q1043.06 50.3331 1043.06 44.0831 L1043.06 42.6595 L1036.7 42.6595 M1049.45 40.0206 L1049.45 62.208 L1043.06 62.208 L1043.06 56.3053 Q1040.87 59.8469 1037.61 61.5483 Q1034.34 63.2149 1029.62 63.2149 Q1023.65 63.2149 1020.11 59.8816 Q1016.6 56.5136 1016.6 50.8886 Q1016.6 44.3262 1020.98 40.9928 Q1025.39 37.6595 1034.1 37.6595 L1043.06 37.6595 L1043.06 37.0345 Q1043.06 32.6248 1040.14 30.229 Q1037.26 27.7985 1032.02 27.7985 Q1028.68 27.7985 1025.52 28.5971 Q1022.36 29.3957 1019.45 30.9929 L1019.45 25.0901 Q1022.95 23.736 1026.25 23.0763 Q1029.55 22.3818 1032.68 22.3818 Q1041.11 22.3818 1045.28 26.7568 Q1049.45 31.1318 1049.45 40.0206 Z" fill="#000000" fill-rule="nonzero" fill-opacity="1" /><path clip-path="url(#clip340)" d="M1062.61 8.18051 L1069 8.18051 L1069 62.208 L1062.61 62.208 L1062.61 8.18051 Z" fill="#000000" fill-rule="nonzero" fill-opacity="1" /><path clip-path="url(#clip340)" d="M1097.43 27.7985 Q1092.29 27.7985 1089.31 31.8262 Q1086.32 35.8193 1086.32 42.7984 Q1086.32 49.7775 1089.27 53.8053 Q1092.26 57.7983 1097.43 57.7983 Q1102.54 57.7983 1105.52 53.7705 Q1108.51 49.7428 1108.51 42.7984 Q1108.51 35.8887 1105.52 31.8609 Q1102.54 27.7985 1097.43 27.7985 M1097.43 22.3818 Q1105.77 22.3818 1110.52 27.7985 Q1115.28 33.2151 1115.28 42.7984 Q1115.28 52.3469 1110.52 57.7983 Q1105.77 63.2149 1097.43 63.2149 Q1089.07 63.2149 1084.31 57.7983 Q1079.59 52.3469 1079.59 42.7984 Q1079.59 33.2151 1084.31 27.7985 Q1089.07 22.3818 1097.43 22.3818 Z" fill="#000000" fill-rule="nonzero" fill-opacity="1" /><path clip-path="url(#clip340)" d="M1148.41 29.2915 Q1147.33 28.6665 1146.04 28.3887 Q1144.79 28.0762 1143.27 28.0762 Q1137.85 28.0762 1134.93 31.6179 Q1132.05 35.1248 1132.05 41.722 L1132.05 62.208 L1125.63 62.208 L1125.63 23.3193 L1132.05 23.3193 L1132.05 29.361 Q1134.07 25.8193 1137.29 24.1179 Q1140.52 22.3818 1145.14 22.3818 Q1145.8 22.3818 1146.6 22.486 Q1147.4 22.5554 1148.37 22.729 L1148.41 29.2915 Z" fill="#000000" fill-rule="nonzero" fill-opacity="1" /><path clip-path="url(#clip340)" d="M1210.97 41.1664 L1210.97 44.2914 L1181.6 44.2914 Q1182.02 50.8886 1185.56 54.3608 Q1189.13 57.7983 1195.49 57.7983 Q1199.17 57.7983 1202.61 56.8955 Q1206.08 55.9928 1209.48 54.1872 L1209.48 60.2288 Q1206.04 61.6872 1202.43 62.4511 Q1198.82 63.2149 1195.11 63.2149 Q1185.8 63.2149 1180.35 57.7983 Q1174.93 52.3817 1174.93 43.1456 Q1174.93 33.597 1180.07 28.0068 Q1185.25 22.3818 1194 22.3818 Q1201.84 22.3818 1206.39 27.4512 Q1210.97 32.4859 1210.97 41.1664 M1204.59 39.2915 Q1204.52 34.0484 1201.63 30.9234 Q1198.79 27.7985 1194.07 27.7985 Q1188.72 27.7985 1185.49 30.8193 Q1182.29 33.8401 1181.81 39.3262 L1204.59 39.2915 Z" fill="#000000" fill-rule="nonzero" fill-opacity="1" /><path clip-path="url(#clip340)" d="M1246.25 24.4651 L1246.25 30.5068 Q1243.54 29.1179 1240.63 28.4235 Q1237.71 27.729 1234.59 27.729 Q1229.83 27.729 1227.43 29.1873 Q1225.07 30.6457 1225.07 33.5623 Q1225.07 35.7845 1226.77 37.0692 Q1228.47 38.3192 1233.61 39.4651 L1235.8 39.9512 Q1242.61 41.4095 1245.45 44.0831 Q1248.34 46.722 1248.34 51.4789 Q1248.34 56.8955 1244.03 60.0552 Q1239.76 63.2149 1232.26 63.2149 Q1229.13 63.2149 1225.73 62.5899 Q1222.36 61.9997 1218.61 60.7844 L1218.61 54.1872 Q1222.16 56.0275 1225.59 56.965 Q1229.03 57.8677 1232.4 57.8677 Q1236.91 57.8677 1239.34 56.34 Q1241.77 54.7775 1241.77 51.965 Q1241.77 49.3608 1240 47.972 Q1238.27 46.5831 1232.33 45.2984 L1230.11 44.7775 Q1224.17 43.5275 1221.53 40.9581 Q1218.89 38.354 1218.89 33.8401 Q1218.89 28.354 1222.78 25.3679 Q1226.67 22.3818 1233.82 22.3818 Q1237.36 22.3818 1240.49 22.9027 Q1243.61 23.4235 1246.25 24.4651 Z" fill="#000000" fill-rule="nonzero" fill-opacity="1" /><path clip-path="url(#clip340)" d="M1264.69 56.3747 L1264.69 76.9996 L1258.27 76.9996 L1258.27 23.3193 L1264.69 23.3193 L1264.69 29.2221 Q1266.7 25.7499 1269.76 24.0832 Q1272.85 22.3818 1277.12 22.3818 Q1284.2 22.3818 1288.61 28.0068 Q1293.06 33.6318 1293.06 42.7984 Q1293.06 51.965 1288.61 57.59 Q1284.2 63.2149 1277.12 63.2149 Q1272.85 63.2149 1269.76 61.5483 Q1266.7 59.8469 1264.69 56.3747 M1286.43 42.7984 Q1286.43 35.7498 1283.51 31.7568 Q1280.63 27.729 1275.56 27.729 Q1270.49 27.729 1267.57 31.7568 Q1264.69 35.7498 1264.69 42.7984 Q1264.69 49.847 1267.57 53.8747 Q1270.49 57.8677 1275.56 57.8677 Q1280.63 57.8677 1283.51 53.8747 Q1286.43 49.847 1286.43 42.7984 Z" fill="#000000" fill-rule="nonzero" fill-opacity="1" /><path clip-path="url(#clip340)" d="M1336.91 41.1664 L1336.91 44.2914 L1307.54 44.2914 Q1307.95 50.8886 1311.49 54.3608 Q1315.07 57.7983 1321.43 57.7983 Q1325.11 57.7983 1328.54 56.8955 Q1332.02 55.9928 1335.42 54.1872 L1335.42 60.2288 Q1331.98 61.6872 1328.37 62.4511 Q1324.76 63.2149 1321.04 63.2149 Q1311.74 63.2149 1306.29 57.7983 Q1300.87 52.3817 1300.87 43.1456 Q1300.87 33.597 1306.01 28.0068 Q1311.18 22.3818 1319.93 22.3818 Q1327.78 22.3818 1332.33 27.4512 Q1336.91 32.4859 1336.91 41.1664 M1330.52 39.2915 Q1330.45 34.0484 1327.57 30.9234 Q1324.72 27.7985 1320 27.7985 Q1314.65 27.7985 1311.43 30.8193 Q1308.23 33.8401 1307.74 39.3262 L1330.52 39.2915 Z" fill="#000000" fill-rule="nonzero" fill-opacity="1" /><path clip-path="url(#clip340)" d="M1369.93 29.2915 Q1368.86 28.6665 1367.57 28.3887 Q1366.32 28.0762 1364.79 28.0762 Q1359.38 28.0762 1356.46 31.6179 Q1353.58 35.1248 1353.58 41.722 L1353.58 62.208 L1347.15 62.208 L1347.15 23.3193 L1353.58 23.3193 L1353.58 29.361 Q1355.59 25.8193 1358.82 24.1179 Q1362.05 22.3818 1366.67 22.3818 Q1367.33 22.3818 1368.13 22.486 Q1368.93 22.5554 1369.9 22.729 L1369.93 29.2915 Z" fill="#000000" fill-rule="nonzero" fill-opacity="1" /><path clip-path="url(#clip340)" d="M1394.31 42.6595 Q1386.56 42.6595 1383.58 44.4303 Q1380.59 46.2011 1380.59 50.472 Q1380.59 53.8747 1382.81 55.8886 Q1385.07 57.8677 1388.93 57.8677 Q1394.24 57.8677 1397.43 54.1178 Q1400.66 50.3331 1400.66 44.0831 L1400.66 42.6595 L1394.31 42.6595 M1407.05 40.0206 L1407.05 62.208 L1400.66 62.208 L1400.66 56.3053 Q1398.47 59.8469 1395.21 61.5483 Q1391.95 63.2149 1387.22 63.2149 Q1381.25 63.2149 1377.71 59.8816 Q1374.2 56.5136 1374.2 50.8886 Q1374.2 44.3262 1378.58 40.9928 Q1382.99 37.6595 1391.7 37.6595 L1400.66 37.6595 L1400.66 37.0345 Q1400.66 32.6248 1397.74 30.229 Q1394.86 27.7985 1389.62 27.7985 Q1386.29 27.7985 1383.13 28.5971 Q1379.97 29.3957 1377.05 30.9929 L1377.05 25.0901 Q1380.56 23.736 1383.86 23.0763 Q1387.15 22.3818 1390.28 22.3818 Q1398.72 22.3818 1402.88 26.7568 Q1407.05 31.1318 1407.05 40.0206 Z" fill="#000000" fill-rule="nonzero" fill-opacity="1" /><path clip-path="url(#clip340)" d="M1445.8 29.2221 L1445.8 8.18051 L1452.19 8.18051 L1452.19 62.208 L1445.8 62.208 L1445.8 56.3747 Q1443.79 59.8469 1440.7 61.5483 Q1437.64 63.2149 1433.33 63.2149 Q1426.29 63.2149 1421.84 57.59 Q1417.43 51.965 1417.43 42.7984 Q1417.43 33.6318 1421.84 28.0068 Q1426.29 22.3818 1433.33 22.3818 Q1437.64 22.3818 1440.7 24.0832 Q1443.79 25.7499 1445.8 29.2221 M1424.03 42.7984 Q1424.03 49.847 1426.91 53.8747 Q1429.83 57.8677 1434.9 57.8677 Q1439.97 57.8677 1442.88 53.8747 Q1445.8 49.847 1445.8 42.7984 Q1445.8 35.7498 1442.88 31.7568 Q1439.97 27.729 1434.9 27.729 Q1429.83 27.729 1426.91 31.7568 Q1424.03 35.7498 1424.03 42.7984 Z" fill="#000000" fill-rule="nonzero" fill-opacity="1" /><path clip-path="url(#clip340)" d="M1480.42 27.7985 Q1475.28 27.7985 1472.29 31.8262 Q1469.31 35.8193 1469.31 42.7984 Q1469.31 49.7775 1472.26 53.8053 Q1475.24 57.7983 1480.42 57.7983 Q1485.52 57.7983 1488.51 53.7705 Q1491.49 49.7428 1491.49 42.7984 Q1491.49 35.8887 1488.51 31.8609 Q1485.52 27.7985 1480.42 27.7985 M1480.42 22.3818 Q1488.75 22.3818 1493.51 27.7985 Q1498.26 33.2151 1498.26 42.7984 Q1498.26 52.3469 1493.51 57.7983 Q1488.75 63.2149 1480.42 63.2149 Q1472.05 63.2149 1467.29 57.7983 Q1462.57 52.3469 1462.57 42.7984 Q1462.57 33.2151 1467.29 27.7985 Q1472.05 22.3818 1480.42 22.3818 Z" fill="#000000" fill-rule="nonzero" fill-opacity="1" /><path clip-path="url(#clip340)" d="M1564.72 41.1664 L1564.72 44.2914 L1535.35 44.2914 Q1535.76 50.8886 1539.31 54.3608 Q1542.88 57.7983 1549.24 57.7983 Q1552.92 57.7983 1556.35 56.8955 Q1559.83 55.9928 1563.23 54.1872 L1563.23 60.2288 Q1559.79 61.6872 1556.18 62.4511 Q1552.57 63.2149 1548.85 63.2149 Q1539.55 63.2149 1534.1 57.7983 Q1528.68 52.3817 1528.68 43.1456 Q1528.68 33.597 1533.82 28.0068 Q1538.99 22.3818 1547.74 22.3818 Q1555.59 22.3818 1560.14 27.4512 Q1564.72 32.4859 1564.72 41.1664 M1558.33 39.2915 Q1558.26 34.0484 1555.38 30.9234 Q1552.54 27.7985 1547.81 27.7985 Q1542.47 27.7985 1539.24 30.8193 Q1536.04 33.8401 1535.56 39.3262 L1558.33 39.2915 Z" fill="#000000" fill-rule="nonzero" fill-opacity="1" /><path clip-path="url(#clip340)" d="M1597.81 23.3193 L1604.2 23.3193 L1604.2 62.208 L1597.81 62.208 L1597.81 23.3193 M1597.81 8.18051 L1604.2 8.18051 L1604.2 16.2707 L1597.81 16.2707 L1597.81 8.18051 Z" fill="#000000" fill-rule="nonzero" fill-opacity="1" /><path clip-path="url(#clip340)" d="M1649.9 38.7359 L1649.9 62.208 L1643.51 62.208 L1643.51 38.9442 Q1643.51 33.4234 1641.35 30.6804 Q1639.2 27.9374 1634.9 27.9374 Q1629.72 27.9374 1626.74 31.2359 Q1623.75 34.5345 1623.75 40.229 L1623.75 62.208 L1617.33 62.208 L1617.33 23.3193 L1623.75 23.3193 L1623.75 29.361 Q1626.04 25.854 1629.13 24.1179 Q1632.26 22.3818 1636.32 22.3818 Q1643.02 22.3818 1646.46 26.5485 Q1649.9 30.6804 1649.9 38.7359 Z" fill="#000000" fill-rule="nonzero" fill-opacity="1" /><path clip-path="url(#clip340)" d="M1668.96 12.2777 L1668.96 23.3193 L1682.12 23.3193 L1682.12 28.2846 L1668.96 28.2846 L1668.96 49.3956 Q1668.96 54.1525 1670.24 55.5066 Q1671.56 56.8608 1675.56 56.8608 L1682.12 56.8608 L1682.12 62.208 L1675.56 62.208 Q1668.16 62.208 1665.35 59.465 Q1662.53 56.6872 1662.53 49.3956 L1662.53 28.2846 L1657.85 28.2846 L1657.85 23.3193 L1662.53 23.3193 L1662.53 12.2777 L1668.96 12.2777 Z" fill="#000000" fill-rule="nonzero" fill-opacity="1" /><path clip-path="url(#clip340)" d="M1723.78 41.1664 L1723.78 44.2914 L1694.41 44.2914 Q1694.83 50.8886 1698.37 54.3608 Q1701.94 57.7983 1708.3 57.7983 Q1711.98 57.7983 1715.42 56.8955 Q1718.89 55.9928 1722.29 54.1872 L1722.29 60.2288 Q1718.85 61.6872 1715.24 62.4511 Q1711.63 63.2149 1707.92 63.2149 Q1698.61 63.2149 1693.16 57.7983 Q1687.74 52.3817 1687.74 43.1456 Q1687.74 33.597 1692.88 28.0068 Q1698.06 22.3818 1706.81 22.3818 Q1714.65 22.3818 1719.2 27.4512 Q1723.78 32.4859 1723.78 41.1664 M1717.4 39.2915 Q1717.33 34.0484 1714.44 30.9234 Q1711.6 27.7985 1706.87 27.7985 Q1701.53 27.7985 1698.3 30.8193 Q1695.1 33.8401 1694.62 39.3262 L1717.4 39.2915 Z" fill="#000000" fill-rule="nonzero" fill-opacity="1" /><path clip-path="url(#clip340)" d="M1756.81 29.2915 Q1755.73 28.6665 1754.44 28.3887 Q1753.19 28.0762 1751.67 28.0762 Q1746.25 28.0762 1743.33 31.6179 Q1740.45 35.1248 1740.45 41.722 L1740.45 62.208 L1734.03 62.208 L1734.03 23.3193 L1740.45 23.3193 L1740.45 29.361 Q1742.46 25.8193 1745.69 24.1179 Q1748.92 22.3818 1753.54 22.3818 Q1754.2 22.3818 1755 22.486 Q1755.8 22.5554 1756.77 22.729 L1756.81 29.2915 Z" fill="#000000" fill-rule="nonzero" fill-opacity="1" /><path clip-path="url(#clip340)" d="M1758.92 23.3193 L1765.69 23.3193 L1777.85 55.958 L1790 23.3193 L1796.77 23.3193 L1782.19 62.208 L1773.51 62.208 L1758.92 23.3193 Z" fill="#000000" fill-rule="nonzero" fill-opacity="1" /><path clip-path="url(#clip340)" d="M1823.26 42.6595 Q1815.52 42.6595 1812.53 44.4303 Q1809.55 46.2011 1809.55 50.472 Q1809.55 53.8747 1811.77 55.8886 Q1814.03 57.8677 1817.88 57.8677 Q1823.19 57.8677 1826.39 54.1178 Q1829.62 50.3331 1829.62 44.0831 L1829.62 42.6595 L1823.26 42.6595 M1836.01 40.0206 L1836.01 62.208 L1829.62 62.208 L1829.62 56.3053 Q1827.43 59.8469 1824.17 61.5483 Q1820.9 63.2149 1816.18 63.2149 Q1810.21 63.2149 1806.67 59.8816 Q1803.16 56.5136 1803.16 50.8886 Q1803.16 44.3262 1807.53 40.9928 Q1811.94 37.6595 1820.66 37.6595 L1829.62 37.6595 L1829.62 37.0345 Q1829.62 32.6248 1826.7 30.229 Q1823.82 27.7985 1818.58 27.7985 Q1815.24 27.7985 1812.08 28.5971 Q1808.92 29.3957 1806.01 30.9929 L1806.01 25.0901 Q1809.51 23.736 1812.81 23.0763 Q1816.11 22.3818 1819.24 22.3818 Q1827.67 22.3818 1831.84 26.7568 Q1836.01 31.1318 1836.01 40.0206 Z" fill="#000000" fill-rule="nonzero" fill-opacity="1" /><path clip-path="url(#clip340)" d="M1849.17 8.18051 L1855.55 8.18051 L1855.55 62.208 L1849.17 62.208 L1849.17 8.18051 Z" fill="#000000" fill-rule="nonzero" fill-opacity="1" /><path clip-path="url(#clip340)" d="M1883.99 27.7985 Q1878.85 27.7985 1875.87 31.8262 Q1872.88 35.8193 1872.88 42.7984 Q1872.88 49.7775 1875.83 53.8053 Q1878.82 57.7983 1883.99 57.7983 Q1889.1 57.7983 1892.08 53.7705 Q1895.07 49.7428 1895.07 42.7984 Q1895.07 35.8887 1892.08 31.8609 Q1889.1 27.7985 1883.99 27.7985 M1883.99 22.3818 Q1892.33 22.3818 1897.08 27.7985 Q1901.84 33.2151 1901.84 42.7984 Q1901.84 52.3469 1897.08 57.7983 Q1892.33 63.2149 1883.99 63.2149 Q1875.62 63.2149 1870.87 57.7983 Q1866.14 52.3469 1866.14 42.7984 Q1866.14 33.2151 1870.87 27.7985 Q1875.62 22.3818 1883.99 22.3818 Z" fill="#000000" fill-rule="nonzero" fill-opacity="1" /><path clip-path="url(#clip340)" d="M1937.22 24.4651 L1937.22 30.5068 Q1934.51 29.1179 1931.6 28.4235 Q1928.68 27.729 1925.55 27.729 Q1920.8 27.729 1918.4 29.1873 Q1916.04 30.6457 1916.04 33.5623 Q1916.04 35.7845 1917.74 37.0692 Q1919.44 38.3192 1924.58 39.4651 L1926.77 39.9512 Q1933.57 41.4095 1936.42 44.0831 Q1939.3 46.722 1939.3 51.4789 Q1939.3 56.8955 1935 60.0552 Q1930.73 63.2149 1923.23 63.2149 Q1920.1 63.2149 1916.7 62.5899 Q1913.33 61.9997 1909.58 60.7844 L1909.58 54.1872 Q1913.12 56.0275 1916.56 56.965 Q1920 57.8677 1923.37 57.8677 Q1927.88 57.8677 1930.31 56.34 Q1932.74 54.7775 1932.74 51.965 Q1932.74 49.3608 1930.97 47.972 Q1929.23 46.5831 1923.3 45.2984 L1921.08 44.7775 Q1915.14 43.5275 1912.5 40.9581 Q1909.86 38.354 1909.86 33.8401 Q1909.86 28.354 1913.75 25.3679 Q1917.64 22.3818 1924.79 22.3818 Q1928.33 22.3818 1931.46 22.9027 Q1934.58 23.4235 1937.22 24.4651 Z" fill="#000000" fill-rule="nonzero" fill-opacity="1" /><path clip-path="url(#clip340)" d="M1997.67 29.2221 L1997.67 8.18051 L2004.06 8.18051 L2004.06 62.208 L1997.67 62.208 L1997.67 56.3747 Q1995.66 59.8469 1992.57 61.5483 Q1989.51 63.2149 1985.21 63.2149 Q1978.16 63.2149 1973.71 57.59 Q1969.3 51.965 1969.3 42.7984 Q1969.3 33.6318 1973.71 28.0068 Q1978.16 22.3818 1985.21 22.3818 Q1989.51 22.3818 1992.57 24.0832 Q1995.66 25.7499 1997.67 29.2221 M1975.9 42.7984 Q1975.9 49.847 1978.78 53.8747 Q1981.7 57.8677 1986.77 57.8677 Q1991.84 57.8677 1994.76 53.8747 Q1997.67 49.847 1997.67 42.7984 Q1997.67 35.7498 1994.76 31.7568 Q1991.84 27.729 1986.77 27.729 Q1981.7 27.729 1978.78 31.7568 Q1975.9 35.7498 1975.9 42.7984 Z" fill="#000000" fill-rule="nonzero" fill-opacity="1" /><path clip-path="url(#clip340)" d="M2050.48 41.1664 L2050.48 44.2914 L2021.11 44.2914 Q2021.53 50.8886 2025.07 54.3608 Q2028.64 57.7983 2035 57.7983 Q2038.68 57.7983 2042.12 56.8955 Q2045.59 55.9928 2048.99 54.1872 L2048.99 60.2288 Q2045.55 61.6872 2041.94 62.4511 Q2038.33 63.2149 2034.62 63.2149 Q2025.31 63.2149 2019.86 57.7983 Q2014.44 52.3817 2014.44 43.1456 Q2014.44 33.597 2019.58 28.0068 Q2024.76 22.3818 2033.5 22.3818 Q2041.35 22.3818 2045.9 27.4512 Q2050.48 32.4859 2050.48 41.1664 M2044.1 39.2915 Q2044.03 34.0484 2041.14 30.9234 Q2038.3 27.7985 2033.57 27.7985 Q2028.23 27.7985 2025 30.8193 Q2021.8 33.8401 2021.32 39.3262 L2044.1 39.2915 Z" fill="#000000" fill-rule="nonzero" fill-opacity="1" /><path clip-path="url(#clip340)" d="M2111.56 24.8124 L2111.56 30.7846 Q2108.85 29.2915 2106.11 28.5623 Q2103.4 27.7985 2100.62 27.7985 Q2094.41 27.7985 2090.97 31.7568 Q2087.53 35.6804 2087.53 42.7984 Q2087.53 49.9164 2090.97 53.8747 Q2094.41 57.7983 2100.62 57.7983 Q2103.4 57.7983 2106.11 57.0691 Q2108.85 56.3053 2111.56 54.8122 L2111.56 60.715 Q2108.89 61.9649 2106 62.5899 Q2103.16 63.2149 2099.93 63.2149 Q2091.14 63.2149 2085.97 57.6941 Q2080.8 52.1733 2080.8 42.7984 Q2080.8 33.2845 2086 27.8332 Q2091.25 22.3818 2100.34 22.3818 Q2103.3 22.3818 2106.11 23.0068 Q2108.92 23.5971 2111.56 24.8124 Z" fill="#000000" fill-rule="nonzero" fill-opacity="1" /><path clip-path="url(#clip340)" d="M2137.74 27.7985 Q2132.6 27.7985 2129.62 31.8262 Q2126.63 35.8193 2126.63 42.7984 Q2126.63 49.7775 2129.58 53.8053 Q2132.57 57.7983 2137.74 57.7983 Q2142.84 57.7983 2145.83 53.7705 Q2148.82 49.7428 2148.82 42.7984 Q2148.82 35.8887 2145.83 31.8609 Q2142.84 27.7985 2137.74 27.7985 M2137.74 22.3818 Q2146.07 22.3818 2150.83 27.7985 Q2155.59 33.2151 2155.59 42.7984 Q2155.59 52.3469 2150.83 57.7983 Q2146.07 63.2149 2137.74 63.2149 Q2129.37 63.2149 2124.62 57.7983 Q2119.89 52.3469 2119.89 42.7984 Q2119.89 33.2151 2124.62 27.7985 Q2129.37 22.3818 2137.74 22.3818 Z" fill="#000000" fill-rule="nonzero" fill-opacity="1" /><path clip-path="url(#clip340)" d="M2198.5 38.7359 L2198.5 62.208 L2192.12 62.208 L2192.12 38.9442 Q2192.12 33.4234 2189.96 30.6804 Q2187.81 27.9374 2183.5 27.9374 Q2178.33 27.9374 2175.34 31.2359 Q2172.36 34.5345 2172.36 40.229 L2172.36 62.208 L2165.93 62.208 L2165.93 23.3193 L2172.36 23.3193 L2172.36 29.361 Q2174.65 25.854 2177.74 24.1179 Q2180.87 22.3818 2184.93 22.3818 Q2191.63 22.3818 2195.07 26.5485 Q2198.5 30.6804 2198.5 38.7359 Z" fill="#000000" fill-rule="nonzero" fill-opacity="1" /><path clip-path="url(#clip340)" d="M2230.93 8.18051 L2230.93 13.493 L2224.82 13.493 Q2221.39 13.493 2220.03 14.8819 Q2218.71 16.2707 2218.71 19.8818 L2218.71 23.3193 L2229.23 23.3193 L2229.23 28.2846 L2218.71 28.2846 L2218.71 62.208 L2212.29 62.208 L2212.29 28.2846 L2206.18 28.2846 L2206.18 23.3193 L2212.29 23.3193 L2212.29 20.611 Q2212.29 14.118 2215.31 11.1666 Q2218.33 8.18051 2224.89 8.18051 L2230.93 8.18051 Z" fill="#000000" fill-rule="nonzero" fill-opacity="1" /><path clip-path="url(#clip340)" d="M2236.28 23.3193 L2242.67 23.3193 L2242.67 62.208 L2236.28 62.208 L2236.28 23.3193 M2236.28 8.18051 L2242.67 8.18051 L2242.67 16.2707 L2236.28 16.2707 L2236.28 8.18051 Z" fill="#000000" fill-rule="nonzero" fill-opacity="1" /><path clip-path="url(#clip340)" d="M2273.71 42.6595 Q2265.97 42.6595 2262.98 44.4303 Q2260 46.2011 2260 50.472 Q2260 53.8747 2262.22 55.8886 Q2264.48 57.8677 2268.33 57.8677 Q2273.64 57.8677 2276.84 54.1178 Q2280.07 50.3331 2280.07 44.0831 L2280.07 42.6595 L2273.71 42.6595 M2286.45 40.0206 L2286.45 62.208 L2280.07 62.208 L2280.07 56.3053 Q2277.88 59.8469 2274.61 61.5483 Q2271.35 63.2149 2266.63 63.2149 Q2260.66 63.2149 2257.11 59.8816 Q2253.61 56.5136 2253.61 50.8886 Q2253.61 44.3262 2257.98 40.9928 Q2262.39 37.6595 2271.11 37.6595 L2280.07 37.6595 L2280.07 37.0345 Q2280.07 32.6248 2277.15 30.229 Q2274.27 27.7985 2269.02 27.7985 Q2265.69 27.7985 2262.53 28.5971 Q2259.37 29.3957 2256.46 30.9929 L2256.46 25.0901 Q2259.96 23.736 2263.26 23.0763 Q2266.56 22.3818 2269.68 22.3818 Q2278.12 22.3818 2282.29 26.7568 Q2286.45 31.1318 2286.45 40.0206 Z" fill="#000000" fill-rule="nonzero" fill-opacity="1" /><path clip-path="url(#clip340)" d="M2331.94 38.7359 L2331.94 62.208 L2325.55 62.208 L2325.55 38.9442 Q2325.55 33.4234 2323.4 30.6804 Q2321.25 27.9374 2316.94 27.9374 Q2311.77 27.9374 2308.78 31.2359 Q2305.8 34.5345 2305.8 40.229 L2305.8 62.208 L2299.37 62.208 L2299.37 23.3193 L2305.8 23.3193 L2305.8 29.361 Q2308.09 25.854 2311.18 24.1179 Q2314.3 22.3818 2318.36 22.3818 Q2325.07 22.3818 2328.5 26.5485 Q2331.94 30.6804 2331.94 38.7359 Z" fill="#000000" fill-rule="nonzero" fill-opacity="1" /><path clip-path="url(#clip340)" d="M2372.67 24.8124 L2372.67 30.7846 Q2369.96 29.2915 2367.22 28.5623 Q2364.51 27.7985 2361.73 27.7985 Q2355.52 27.7985 2352.08 31.7568 Q2348.64 35.6804 2348.64 42.7984 Q2348.64 49.9164 2352.08 53.8747 Q2355.52 57.7983 2361.73 57.7983 Q2364.51 57.7983 2367.22 57.0691 Q2369.96 56.3053 2372.67 54.8122 L2372.67 60.715 Q2370 61.9649 2367.11 62.5899 Q2364.27 63.2149 2361.04 63.2149 Q2352.25 63.2149 2347.08 57.6941 Q2341.91 52.1733 2341.91 42.7984 Q2341.91 33.2845 2347.11 27.8332 Q2352.36 22.3818 2361.45 22.3818 Q2364.41 22.3818 2367.22 23.0068 Q2370.03 23.5971 2372.67 24.8124 M2363.64 62.208 Q2365.55 64.3608 2366.49 66.1663 Q2367.43 68.0066 2367.43 69.6732 Q2367.43 72.7635 2365.34 74.326 Q2363.26 75.9232 2359.16 75.9232 Q2357.57 75.9232 2356.04 75.7149 Q2354.54 75.5065 2353.05 75.0899 L2353.05 70.5413 Q2354.23 71.1316 2355.52 71.3746 Q2356.8 71.6524 2358.43 71.6524 Q2360.48 71.6524 2361.52 70.8191 Q2362.57 69.9857 2362.57 68.3885 Q2362.57 67.3469 2361.8 65.8191 Q2361.07 64.326 2359.51 62.208 L2363.64 62.208 Z" fill="#000000" fill-rule="nonzero" fill-opacity="1" /><path clip-path="url(#clip340)" d="M2401.45 42.6595 Q2393.71 42.6595 2390.73 44.4303 Q2387.74 46.2011 2387.74 50.472 Q2387.74 53.8747 2389.96 55.8886 Q2392.22 57.8677 2396.07 57.8677 Q2401.38 57.8677 2404.58 54.1178 Q2407.81 50.3331 2407.81 44.0831 L2407.81 42.6595 L2401.45 42.6595 M2414.2 40.0206 L2414.2 62.208 L2407.81 62.208 L2407.81 56.3053 Q2405.62 59.8469 2402.36 61.5483 Q2399.09 63.2149 2394.37 63.2149 Q2388.4 63.2149 2384.86 59.8816 Q2381.35 56.5136 2381.35 50.8886 Q2381.35 44.3262 2385.73 40.9928 Q2390.13 37.6595 2398.85 37.6595 L2407.81 37.6595 L2407.81 37.0345 Q2407.81 32.6248 2404.89 30.229 Q2402.01 27.7985 2396.77 27.7985 Q2393.43 27.7985 2390.27 28.5971 Q2387.11 29.3957 2384.2 30.9929 L2384.2 25.0901 Q2387.7 23.736 2391 23.0763 Q2394.3 22.3818 2397.43 22.3818 Q2405.86 22.3818 2410.03 26.7568 Q2414.2 31.1318 2414.2 40.0206 Z" fill="#000000" fill-rule="nonzero" fill-opacity="1" /><path clip-path="url(#clip342)" d="M316.418 2145.95 L330.256 2125.72 L344.094 2104.37 L357.932 2081.89 L371.769 2058.23 L385.607 2033.38 L399.445 2007.33 L413.283 1980.07 L427.121 1951.58 L440.958 1921.88 L454.796 1890.98 L468.634 1858.88 L482.472 1825.62 L496.31 1791.22 L510.148 1755.58 L523.985 1718.89 L537.823 1681.22 L551.661 1642.64 L565.499 1603.25 L579.337 1563.14 L593.174 1522.74 L607.012 1481.88 L620.85 1440.37 L634.688 1398.19 L648.526 1355.83 L662.364 1313.25 L676.201 1270.46 L690.039 1227.8 L703.877 1185.83 L717.715 1144.6 L731.553 1104.84 L745.39 1065.29 L759.228 1026.93 L773.066 989.357 L786.904 952.19 L800.742 915.997 L814.58 880.247 L828.417 845.557 L842.255 812.34 L856.093 780.323 L869.931 749.052 L883.769 718.956 L897.606 690.116 L911.444 662.953 L925.282 637.592 L939.12 613.169 L952.958 589.971 L966.796 567.97 L980.633 547.507 L994.471 527.919 L1008.31 509.095 L1022.15 491.112 L1035.98 474.268 L1049.82 458.556 L1063.66 443.47 L1077.5 429.858 L1091.34 416.95 L1105.17 405.321 L1119.01 393.944 L1132.85 383.528 L1146.69 374.183 L1160.53 365.514 L1174.36 357.573 L1188.2 350.623 L1202.04 344.045 L1215.88 337.912 L1229.71 331.825 L1243.55 326.355 L1257.39 321.268 L1271.23 316.892 L1285.07 313.059 L1298.9 309.481 L1312.74 305.98 L1326.58 302.62 L1340.42 298.889 L1354.25 295.295 L1368.09 291.945 L1381.93 288.826 L1395.77 285.923 L1409.61 283.218 L1423.44 280.7 L1437.28 278.479 L1451.12 276.473 L1464.96 274.709 L1478.79 273.109 L1492.63 271.628 L1506.47 270.256 L1520.31 268.984 L1534.15 267.802 L1547.98 266.775 L1561.82 265.933 L1575.66 265.151 L1589.5 264.448 L1603.34 263.81 L1617.17 263.149 L1631.01 262.465 L1644.85 261.841 L1658.69 261.32 L1672.52 260.848 L1686.36 260.411 L1700.2 260.007 L1714.04 259.634 L1727.88 259.29 L1741.71 258.973 L1755.55 258.681 L1769.39 258.411 L1783.23 258.161 L1797.06 257.929 L1810.9 257.67 L1824.74 257.412 L1838.58 257.17 L1852.42 256.943 L1866.25 256.732 L1880.09 256.536 L1893.93 256.354 L1907.77 256.186 L1921.61 256.03 L1935.44 255.888 L1949.28 255.757 L1963.12 255.637 L1976.96 255.528 L1990.79 255.428 L2004.63 255.337 L2018.47 255.254 L2032.31 255.178 L2046.15 255.109 L2059.98 255.044 L2073.82 254.984 L2087.66 254.927 L2101.5 254.872 L2115.33 254.818 L2129.17 254.767 L2143.01 254.718 L2156.85 254.673 L2170.69 254.63 L2184.52 254.59 L2198.36 254.553 L2212.2 254.519 L2226.04 254.487 L2239.87 254.458 L2253.71 254.432 L2267.55 254.408 L2281.39 254.387 L2295.23 254.367 L2309.06 254.35 L2322.9 254.334 L2336.74 254.32 L2350.58 254.308 L2364.42 254.297 L2378.25 254.287 L2392.09 254.278 L2405.93 254.269 L2419.77 254.261 L2433.6 254.253 L2447.44 254.245 L2461.28 254.236 L2475.12 254.228 L2488.96 254.219 L2502.79 254.211 L2516.63 254.203 L2530.47 254.196 L2544.31 254.188 L2558.14 254.182 L2571.98 254.175 L2585.82 254.169 L2599.66 254.164 L2613.5 254.159 L2627.33 254.155 L2641.17 254.151 L2655.01 254.148 L2668.85 254.145 L2682.69 254.143 L2696.52 254.141 L2710.36 254.14 L2724.2 254.139 L2738.04 254.139 L2751.87 254.139 L2765.71 254.139 L2779.55 254.14 L2793.39 254.14 L2807.23 254.141 L2821.06 254.142 L2834.9 254.143 L2848.74 254.143 L2862.58 254.143 L2876.41 254.143 L2890.25 254.143 L2904.09 254.142 L2917.93 254.141 L2931.77 254.14 L2945.6 254.139 L2959.44 254.138 L2973.28 254.136 L2987.12 254.135 L3000.96 254.134 L3014.79 254.134 L3028.63 254.133 L3042.47 254.132 L3056.31 254.131 L3070.14 254.13 L3070.14 180.282 L3056.31 180.283 L3042.47 180.283 L3028.63 180.284 L3014.79 180.285 L3000.96 180.286 L2987.12 180.287 L2973.28 180.288 L2959.44 180.289 L2945.6 180.29 L2931.77 180.291 L2917.93 180.292 L2904.09 180.294 L2890.25 180.295 L2876.41 180.296 L2862.58 180.297 L2848.74 180.297 L2834.9 180.297 L2821.06 180.297 L2807.23 180.296 L2793.39 180.296 L2779.55 180.295 L2765.71 180.294 L2751.87 180.294 L2738.04 180.293 L2724.2 180.293 L2710.36 180.293 L2696.52 180.294 L2682.69 180.295 L2668.85 180.296 L2655.01 180.298 L2641.17 180.301 L2627.33 180.304 L2613.5 180.307 L2599.66 180.312 L2585.82 180.316 L2571.98 180.322 L2558.14 180.328 L2544.31 180.334 L2530.47 180.341 L2516.63 180.348 L2502.79 180.356 L2488.96 180.365 L2475.12 180.373 L2461.28 180.382 L2447.44 180.391 L2433.6 180.4 L2419.77 180.409 L2405.93 180.418 L2392.09 180.426 L2378.25 180.435 L2364.42 180.444 L2350.58 180.454 L2336.74 180.465 L2322.9 180.477 L2309.06 180.491 L2295.23 180.506 L2281.39 180.523 L2267.55 180.543 L2253.71 180.564 L2239.87 180.588 L2226.04 180.614 L2212.2 180.644 L2198.36 180.675 L2184.52 180.71 L2170.69 180.747 L2156.85 180.788 L2143.01 180.831 L2129.17 180.877 L2115.33 180.927 L2101.5 180.979 L2087.66 181.034 L2073.82 181.091 L2059.98 181.15 L2046.15 181.212 L2032.31 181.278 L2018.47 181.349 L2004.63 181.427 L1990.79 181.511 L1976.96 181.603 L1963.12 181.704 L1949.28 181.815 L1935.44 181.936 L1921.61 182.069 L1907.77 182.233 L1893.93 182.42 L1880.09 182.621 L1866.25 182.836 L1852.42 183.067 L1838.58 183.316 L1824.74 183.583 L1810.9 183.871 L1797.06 184.181 L1783.23 184.514 L1769.39 184.873 L1755.55 185.26 L1741.71 185.678 L1727.88 186.129 L1714.04 186.612 L1700.2 187.132 L1686.36 187.694 L1672.52 188.3 L1658.69 188.874 L1644.85 189.459 L1631.01 190.068 L1617.17 190.723 L1603.34 191.428 L1589.5 192.189 L1575.66 192.958 L1561.82 193.727 L1547.98 194.558 L1534.15 195.454 L1520.31 196.424 L1506.47 197.472 L1492.63 198.606 L1478.79 199.961 L1464.96 201.668 L1451.12 203.482 L1437.28 205.186 L1423.44 207.054 L1409.61 209.059 L1395.77 211.221 L1381.93 213.378 L1368.09 215.571 L1354.25 217.925 L1340.42 220.453 L1326.58 223.176 L1312.74 226.419 L1298.9 229.896 L1285.07 233.56 L1271.23 237.501 L1257.39 241.62 L1243.55 245.839 L1229.71 250.503 L1215.88 255.514 L1202.04 260.894 L1188.2 266.732 L1174.36 273.523 L1160.53 280.773 L1146.69 288.32 L1132.85 296.176 L1119.01 304.633 L1105.17 313.554 L1091.34 322.978 L1077.5 332.839 L1063.66 343.376 L1049.82 354.625 L1035.98 367.216 L1022.15 380.282 L1008.31 393.799 L994.471 408.722 L980.633 424.974 L966.796 440.685 L952.958 457.917 L939.12 476.041 L925.282 494.602 L911.444 514.978 L897.606 536.636 L883.769 559.136 L869.931 582.824 L856.093 607.786 L842.255 633.956 L828.417 661.35 L814.58 689.976 L800.742 719.439 L786.904 750.121 L773.066 781.935 L759.228 814.228 L745.39 848.154 L731.553 883.204 L717.715 919.099 L703.877 955.738 L690.039 993.8 L676.201 1032.9 L662.364 1072.32 L648.526 1112.26 L634.688 1152.93 L620.85 1194.3 L607.012 1235.98 L593.174 1278.22 L579.337 1319.57 L565.499 1361.21 L551.661 1403.07 L537.823 1445.12 L523.985 1486.28 L510.148 1527.02 L496.31 1567.41 L482.472 1607.57 L468.634 1646.97 L454.796 1685.44 L440.958 1722.65 L427.121 1758.87 L413.283 1794.07 L399.445 1828.19 L385.607 1861.2 L371.769 1893.06 L357.932 1923.92 L344.094 1953.59 L330.256 1982.03 L316.418 2009.26  Z" fill="#009af9" fill-rule="evenodd" fill-opacity="0.2"/>
<polyline clip-path="url(#clip342)" style="stroke:#009af9; stroke-linecap:round; stroke-linejoin:round; stroke-width:12; stroke-opacity:1; fill:none" points="316.418,2086.03 330.256,2062.54 344.094,2037.88 357.932,2012.03 371.769,1984.96 385.607,1956.66 399.445,1927.14 413.283,1896.41 427.121,1864.47 440.958,1831.36 454.796,1797.1 468.634,1761.74 482.472,1725.34 496.31,1687.94 510.148,1649.69 523.985,1610.66 537.823,1570.89 551.661,1530.47 565.499,1489.42 579.337,1447.8 593.174,1405.84 607.012,1363.3 620.85,1320.57 634.688,1277.83 648.526,1235.5 662.364,1193.71 676.201,1152.7 690.039,1112.19 703.877,1072.16 717.715,1033.02 731.553,994.284 745.39,955.897 759.228,918.377 773.066,882.356 786.904,847.508 800.742,813.577 814.58,780.63 828.417,749.5 842.255,720.757 856.093,692.384 869.931,665.38 883.769,639.621 897.606,615.072 911.444,592.092 925.282,568.284 939.12,545.986 952.958,525.493 966.796,506.132 980.633,486.632 994.471,468.369 1008.31,452.823 1022.15,437.583 1035.98,422.909 1049.82,409.636 1063.66,397.117 1077.5,384.795 1091.34,373.145 1105.17,362.577 1119.01,353.28 1132.85,343.793 1146.69,335.036 1160.53,327.456 1174.36,320.13 1188.2,313.465 1202.04,306.682 1215.88,300.709 1229.71,295.577 1243.55,290.312 1257.39,285.365 1271.23,280.803 1285.07,276.808 1298.9,272.786 1312.74,268.772 1326.58,264.914 1340.42,261.707 1354.25,258.536 1368.09,255.397 1381.93,252.859 1395.77,250.577 1409.61,247.917 1423.44,245.602 1437.28,243.673 1451.12,241.708 1464.96,239.826 1478.79,238.235 1492.63,236.673 1506.47,235.199 1520.31,233.835 1534.15,232.764 1547.98,231.78 1561.82,230.861 1575.66,229.974 1589.5,229.079 1603.34,228.19 1617.17,227.285 1631.01,226.532 1644.85,225.974 1658.69,225.424 1672.52,224.897 1686.36,224.407 1700.2,223.94 1714.04,223.549 1727.88,223.189 1741.71,222.855 1755.55,222.547 1769.39,222.262 1783.23,221.998 1797.06,221.736 1810.9,221.446 1824.74,221.207 1838.58,221.008 1852.42,220.823 1866.25,220.651 1880.09,220.492 1893.93,220.344 1907.77,220.207 1921.61,220.078 1935.44,219.958 1949.28,219.847 1963.12,219.744 1976.96,219.649 1990.79,219.562 2004.63,219.482 2018.47,219.408 2032.31,219.34 2046.15,219.277 2059.98,219.219 2073.82,219.165 2087.66,219.114 2101.5,219.062 2115.33,219.007 2129.17,218.955 2143.01,218.907 2156.85,218.862 2170.69,218.82 2184.52,218.781 2198.36,218.746 2212.2,218.713 2226.04,218.683 2239.87,218.656 2253.71,218.632 2267.55,218.61 2281.39,218.59 2295.23,218.572 2309.06,218.556 2322.9,218.542 2336.74,218.529 2350.58,218.518 2364.42,218.507 2378.25,218.497 2392.09,218.487 2405.93,218.477 2419.77,218.467 2433.6,218.457 2447.44,218.447 2461.28,218.437 2475.12,218.428 2488.96,218.418 2502.79,218.41 2516.63,218.402 2530.47,218.394 2544.31,218.387 2558.14,218.38 2571.98,218.375 2585.82,218.369 2599.66,218.365 2613.5,218.361 2627.33,218.357 2641.17,218.355 2655.01,218.353 2668.85,218.351 2682.69,218.35 2696.52,218.349 2710.36,218.349 2724.2,218.349 2738.04,218.349 2751.87,218.349 2765.71,218.35 2779.55,218.351 2793.39,218.351 2807.23,218.352 2821.06,218.352 2834.9,218.352 2848.74,218.351 2862.58,218.35 2876.41,218.349 2890.25,218.347 2904.09,218.346 2917.93,218.344 2931.77,218.343 2945.6,218.342 2959.44,218.341 2973.28,218.34 2987.12,218.339 3000.96,218.338 3014.79,218.337 3028.63,218.336 3042.47,218.336 3056.31,218.335 3070.14,218.334 "/>
<path clip-path="url(#clip342)" d="M316.418 2132.33 L330.256 2111.32 L344.094 2089.17 L357.932 2065.85 L371.769 2041.32 L385.607 2015.59 L399.445 1988.64 L413.283 1960.46 L427.121 1931.05 L440.958 1900.43 L454.796 1868.6 L468.634 1835.59 L482.472 1801.43 L496.31 1766.19 L510.148 1729.98 L523.985 1692.77 L537.823 1654.64 L551.661 1615.5 L565.499 1575.58 L579.337 1534.98 L593.174 1493.94 L607.012 1452.45 L620.85 1410.62 L634.688 1368.56 L648.526 1326.38 L662.364 1284.42 L676.201 1243.27 L690.039 1201.95 L703.877 1160.66 L717.715 1119.7 L731.553 1079.3 L745.39 1039.2 L759.228 999.859 L773.066 961.363 L786.904 925.236 L800.742 889.92 L814.58 854.449 L828.417 820.624 L842.255 787.898 L856.093 756.794 L869.931 726.825 L883.769 697.417 L897.606 668.364 L911.444 641.47 L925.282 615.883 L939.12 591.611 L952.958 568.683 L966.796 546.72 L980.633 525.617 L994.471 506.381 L1008.31 488.314 L1022.15 470.621 L1035.98 453.896 L1049.82 438.514 L1063.66 425.913 L1077.5 414.019 L1091.34 402.698 L1105.17 390.842 L1119.01 379.17 L1132.85 369.481 L1146.69 360.269 L1160.53 352.191 L1174.36 343.611 L1188.2 335.699 L1202.04 328.316 L1215.88 321.946 L1229.71 316.199 L1243.55 310.683 L1257.39 305.215 L1271.23 299.831 L1285.07 294.953 L1298.9 291.02 L1312.74 287.503 L1326.58 284.149 L1340.42 281.036 L1354.25 278.263 L1368.09 275.633 L1381.93 273.232 L1395.77 270.94 L1409.61 268.899 L1423.44 266.909 L1437.28 264.632 L1451.12 262.519 L1464.96 260.651 L1478.79 259.11 L1492.63 257.908 L1506.47 256.678 L1520.31 255.544 L1534.15 254.538 L1547.98 253.597 L1561.82 252.741 L1575.66 251.954 L1589.5 251.201 L1603.34 250.383 L1617.17 249.662 L1631.01 249.111 L1644.85 248.598 L1658.69 248.123 L1672.52 247.683 L1686.36 247.241 L1700.2 246.766 L1714.04 246.333 L1727.88 245.944 L1741.71 245.585 L1755.55 245.253 L1769.39 244.946 L1783.23 244.661 L1797.06 244.396 L1810.9 244.15 L1824.74 243.918 L1838.58 243.701 L1852.42 243.483 L1866.25 243.279 L1880.09 243.106 L1893.93 242.959 L1907.77 242.82 L1921.61 242.688 L1935.44 242.565 L1949.28 242.45 L1963.12 242.354 L1976.96 242.268 L1990.79 242.19 L2004.63 242.117 L2018.47 242.051 L2032.31 241.985 L2046.15 241.909 L2059.98 241.839 L2073.82 241.771 L2087.66 241.707 L2101.5 241.656 L2115.33 241.616 L2129.17 241.579 L2143.01 241.545 L2156.85 241.514 L2170.69 241.486 L2184.52 241.459 L2198.36 241.434 L2212.2 241.41 L2226.04 241.386 L2239.87 241.364 L2253.71 241.342 L2267.55 241.321 L2281.39 241.302 L2295.23 241.284 L2309.06 241.267 L2322.9 241.251 L2336.74 241.237 L2350.58 241.224 L2364.42 241.212 L2378.25 241.201 L2392.09 241.191 L2405.93 241.182 L2419.77 241.174 L2433.6 241.166 L2447.44 241.16 L2461.28 241.155 L2475.12 241.15 L2488.96 241.146 L2502.79 241.142 L2516.63 241.14 L2530.47 241.137 L2544.31 241.135 L2558.14 241.133 L2571.98 241.131 L2585.82 241.129 L2599.66 241.126 L2613.5 241.123 L2627.33 241.12 L2641.17 241.117 L2655.01 241.113 L2668.85 241.11 L2682.69 241.108 L2696.52 241.105 L2710.36 241.103 L2724.2 241.1 L2738.04 241.098 L2751.87 241.097 L2765.71 241.095 L2779.55 241.093 L2793.39 241.092 L2807.23 241.091 L2821.06 241.09 L2834.9 241.089 L2848.74 241.088 L2862.58 241.088 L2876.41 241.087 L2890.25 241.087 L2904.09 241.086 L2917.93 241.086 L2931.77 241.086 L2945.6 241.086 L2959.44 241.086 L2973.28 241.086 L2987.12 241.087 L3000.96 241.087 L3014.79 241.087 L3028.63 241.087 L3042.47 241.087 L3056.31 241.086 L3070.14 241.086 L3070.14 191.188 L3056.31 191.189 L3042.47 191.19 L3028.63 191.191 L3014.79 191.192 L3000.96 191.193 L2987.12 191.195 L2973.28 191.196 L2959.44 191.197 L2945.6 191.197 L2931.77 191.197 L2917.93 191.197 L2904.09 191.196 L2890.25 191.195 L2876.41 191.195 L2862.58 191.194 L2848.74 191.193 L2834.9 191.193 L2821.06 191.192 L2807.23 191.192 L2793.39 191.192 L2779.55 191.192 L2765.71 191.192 L2751.87 191.193 L2738.04 191.194 L2724.2 191.196 L2710.36 191.198 L2696.52 191.2 L2682.69 191.203 L2668.85 191.207 L2655.01 191.211 L2641.17 191.216 L2627.33 191.221 L2613.5 191.226 L2599.66 191.232 L2585.82 191.239 L2571.98 191.245 L2558.14 191.253 L2544.31 191.26 L2530.47 191.268 L2516.63 191.276 L2502.79 191.283 L2488.96 191.291 L2475.12 191.298 L2461.28 191.306 L2447.44 191.314 L2433.6 191.322 L2419.77 191.331 L2405.93 191.341 L2392.09 191.352 L2378.25 191.364 L2364.42 191.377 L2350.58 191.392 L2336.74 191.408 L2322.9 191.427 L2309.06 191.447 L2295.23 191.469 L2281.39 191.494 L2267.55 191.52 L2253.71 191.55 L2239.87 191.581 L2226.04 191.616 L2212.2 191.652 L2198.36 191.692 L2184.52 191.734 L2170.69 191.779 L2156.85 191.826 L2143.01 191.874 L2129.17 191.923 L2115.33 191.975 L2101.5 192.031 L2087.66 192.091 L2073.82 192.156 L2059.98 192.227 L2046.15 192.304 L2032.31 192.388 L2018.47 192.48 L2004.63 192.582 L1990.79 192.692 L1976.96 192.814 L1963.12 192.946 L1949.28 193.09 L1935.44 193.247 L1921.61 193.416 L1907.77 193.599 L1893.93 193.796 L1880.09 194.007 L1866.25 194.233 L1852.42 194.475 L1838.58 194.732 L1824.74 195.008 L1810.9 195.305 L1797.06 195.624 L1783.23 195.957 L1769.39 196.23 L1755.55 196.524 L1741.71 196.843 L1727.88 197.188 L1714.04 197.561 L1700.2 198.03 L1686.36 198.555 L1672.52 199.123 L1658.69 199.724 L1644.85 200.3 L1631.01 200.945 L1617.17 201.739 L1603.34 202.626 L1589.5 203.495 L1575.66 204.456 L1561.82 205.48 L1547.98 206.525 L1534.15 207.784 L1520.31 208.986 L1506.47 210.385 L1492.63 211.685 L1478.79 213.253 L1464.96 215.149 L1451.12 217.027 L1437.28 218.745 L1423.44 220.678 L1409.61 222.892 L1395.77 225.266 L1381.93 227.484 L1368.09 229.692 L1354.25 232.222 L1340.42 235.747 L1326.58 238.68 L1312.74 241.811 L1298.9 245.792 L1285.07 250.189 L1271.23 254.292 L1257.39 258.934 L1243.55 264.785 L1229.71 269.778 L1215.88 275.876 L1202.04 281.223 L1188.2 286.961 L1174.36 293.369 L1160.53 300.673 L1146.69 309.504 L1132.85 317.509 L1119.01 325.391 L1105.17 333.955 L1091.34 343.82 L1077.5 354.649 L1063.66 365.516 L1049.82 376.302 L1035.98 388.66 L1022.15 401.543 L1008.31 415.347 L994.471 429.664 L980.633 444.918 L966.796 460.512 L952.958 477.552 L939.12 495.434 L925.282 514.804 L911.444 535.306 L897.606 556.356 L883.769 579.427 L869.931 603.335 L856.093 627.069 L842.255 652.691 L828.417 680.255 L814.58 708.517 L800.742 737.536 L786.904 767.184 L773.066 798.772 L759.228 831.055 L745.39 865.138 L731.553 900.332 L717.715 936.568 L703.877 973.787 L690.039 1012.49 L676.201 1051.14 L662.364 1090.77 L648.526 1131.08 L634.688 1171.88 L620.85 1213.15 L607.012 1254.74 L593.174 1296.71 L579.337 1338.93 L565.499 1381.25 L551.661 1423.18 L537.823 1464.31 L523.985 1505.82 L510.148 1546.81 L496.31 1587.19 L482.472 1626.74 L468.634 1665.5 L454.796 1703.32 L440.958 1740.19 L427.121 1776.06 L413.283 1810.86 L399.445 1844.53 L385.607 1876.97 L371.769 1908.24 L357.932 1938.42 L344.094 1967.5 L330.256 1995.24 L316.418 2021.74  Z" fill="#e26f46" fill-rule="evenodd" fill-opacity="0.2"/>
<polyline clip-path="url(#clip342)" style="stroke:#e26f46; stroke-linecap:round; stroke-linejoin:round; stroke-width:12; stroke-opacity:1; fill:none" points="316.418,2086.03 330.256,2062.54 344.094,2037.88 357.932,2012.03 371.769,1984.96 385.607,1956.66 399.445,1927.14 413.283,1896.41 427.121,1864.47 440.958,1831.36 454.796,1797.1 468.634,1761.74 482.472,1725.34 496.31,1687.94 510.148,1649.69 523.985,1610.66 537.823,1570.89 551.661,1530.47 565.499,1489.42 579.337,1447.8 593.174,1405.84 607.012,1363.3 620.85,1320.57 634.688,1277.83 648.526,1235.5 662.364,1193.71 676.201,1152.7 690.039,1112.19 703.877,1072.16 717.715,1033.02 731.553,994.284 745.39,955.897 759.228,918.377 773.066,882.356 786.904,847.508 800.742,813.577 814.58,780.63 828.417,749.5 842.255,720.757 856.093,692.384 869.931,665.38 883.769,639.621 897.606,615.072 911.444,592.092 925.282,568.284 939.12,545.986 952.958,525.493 966.796,506.132 980.633,486.632 994.471,468.369 1008.31,452.823 1022.15,437.583 1035.98,422.909 1049.82,409.636 1063.66,397.117 1077.5,384.795 1091.34,373.145 1105.17,362.577 1119.01,353.28 1132.85,343.793 1146.69,335.036 1160.53,327.456 1174.36,320.13 1188.2,313.465 1202.04,306.682 1215.88,300.709 1229.71,295.577 1243.55,290.312 1257.39,285.365 1271.23,280.803 1285.07,276.808 1298.9,272.786 1312.74,268.772 1326.58,264.914 1340.42,261.707 1354.25,258.536 1368.09,255.397 1381.93,252.859 1395.77,250.577 1409.61,247.917 1423.44,245.602 1437.28,243.673 1451.12,241.708 1464.96,239.826 1478.79,238.235 1492.63,236.673 1506.47,235.199 1520.31,233.835 1534.15,232.764 1547.98,231.78 1561.82,230.861 1575.66,229.974 1589.5,229.079 1603.34,228.19 1617.17,227.285 1631.01,226.532 1644.85,225.974 1658.69,225.424 1672.52,224.897 1686.36,224.407 1700.2,223.94 1714.04,223.549 1727.88,223.189 1741.71,222.855 1755.55,222.547 1769.39,222.262 1783.23,221.998 1797.06,221.736 1810.9,221.446 1824.74,221.207 1838.58,221.008 1852.42,220.823 1866.25,220.651 1880.09,220.492 1893.93,220.344 1907.77,220.207 1921.61,220.078 1935.44,219.958 1949.28,219.847 1963.12,219.744 1976.96,219.649 1990.79,219.562 2004.63,219.482 2018.47,219.408 2032.31,219.34 2046.15,219.277 2059.98,219.219 2073.82,219.165 2087.66,219.114 2101.5,219.062 2115.33,219.007 2129.17,218.955 2143.01,218.907 2156.85,218.862 2170.69,218.82 2184.52,218.781 2198.36,218.746 2212.2,218.713 2226.04,218.683 2239.87,218.656 2253.71,218.632 2267.55,218.61 2281.39,218.59 2295.23,218.572 2309.06,218.556 2322.9,218.542 2336.74,218.529 2350.58,218.518 2364.42,218.507 2378.25,218.497 2392.09,218.487 2405.93,218.477 2419.77,218.467 2433.6,218.457 2447.44,218.447 2461.28,218.437 2475.12,218.428 2488.96,218.418 2502.79,218.41 2516.63,218.402 2530.47,218.394 2544.31,218.387 2558.14,218.38 2571.98,218.375 2585.82,218.369 2599.66,218.365 2613.5,218.361 2627.33,218.357 2641.17,218.355 2655.01,218.353 2668.85,218.351 2682.69,218.35 2696.52,218.349 2710.36,218.349 2724.2,218.349 2738.04,218.349 2751.87,218.349 2765.71,218.35 2779.55,218.351 2793.39,218.351 2807.23,218.352 2821.06,218.352 2834.9,218.352 2848.74,218.351 2862.58,218.35 2876.41,218.349 2890.25,218.347 2904.09,218.346 2917.93,218.344 2931.77,218.343 2945.6,218.342 2959.44,218.341 2973.28,218.34 2987.12,218.339 3000.96,218.338 3014.79,218.337 3028.63,218.336 3042.47,218.336 3056.31,218.335 3070.14,218.334 "/>
<path clip-path="url(#clip340)" d="M2663.79 2135.47 L3055.46 2135.47 L3055.46 1979.95 L2663.79 1979.95  Z" fill="#eaeaea" fill-rule="evenodd" fill-opacity="1"/>
<polyline clip-path="url(#clip340)" style="stroke:#ffffff; stroke-linecap:round; stroke-linejoin:round; stroke-width:4; stroke-opacity:1; fill:none" points="2663.79,2135.47 3055.46,2135.47 3055.46,1979.95 2663.79,1979.95 2663.79,2135.47 "/>
<polyline clip-path="url(#clip340)" style="stroke:#009af9; stroke-linecap:round; stroke-linejoin:round; stroke-width:12; stroke-opacity:1; fill:none" points="2696.23,2031.79 2890.82,2031.79 "/>
<path clip-path="url(#clip340)" d="M2925.48 2048.35 L2925.48 2044.09 Q2927.24 2044.92 2929.04 2045.36 Q2930.85 2045.8 2932.59 2045.8 Q2937.22 2045.8 2939.65 2042.7 Q2942.1 2039.58 2942.45 2033.23 Q2941.1 2035.22 2939.04 2036.29 Q2936.98 2037.35 2934.48 2037.35 Q2929.3 2037.35 2926.27 2034.23 Q2923.26 2031.08 2923.26 2025.64 Q2923.26 2020.32 2926.4 2017.1 Q2929.55 2013.88 2934.78 2013.88 Q2940.78 2013.88 2943.93 2018.49 Q2947.1 2023.07 2947.1 2031.82 Q2947.1 2039.99 2943.21 2044.88 Q2939.34 2049.74 2932.79 2049.74 Q2931.03 2049.74 2929.23 2049.39 Q2927.42 2049.04 2925.48 2048.35 M2934.78 2033.7 Q2937.93 2033.7 2939.76 2031.54 Q2941.61 2029.39 2941.61 2025.64 Q2941.61 2021.91 2939.76 2019.76 Q2937.93 2017.58 2934.78 2017.58 Q2931.64 2017.58 2929.78 2019.76 Q2927.96 2021.91 2927.96 2025.64 Q2927.96 2029.39 2929.78 2031.54 Q2931.64 2033.7 2934.78 2033.7 Z" fill="#000000" fill-rule="nonzero" fill-opacity="1" /><path clip-path="url(#clip340)" d="M2955.55 2014.51 L2973.9 2014.51 L2973.9 2018.44 L2959.83 2018.44 L2959.83 2026.91 Q2960.85 2026.57 2961.87 2026.4 Q2962.89 2026.22 2963.9 2026.22 Q2969.69 2026.22 2973.07 2029.39 Q2976.45 2032.56 2976.45 2037.98 Q2976.45 2043.56 2972.98 2046.66 Q2969.51 2049.74 2963.19 2049.74 Q2961.01 2049.74 2958.74 2049.37 Q2956.5 2049 2954.09 2048.26 L2954.09 2043.56 Q2956.17 2044.69 2958.4 2045.25 Q2960.62 2045.8 2963.09 2045.8 Q2967.1 2045.8 2969.44 2043.7 Q2971.78 2041.59 2971.78 2037.98 Q2971.78 2034.37 2969.44 2032.26 Q2967.1 2030.15 2963.09 2030.15 Q2961.22 2030.15 2959.34 2030.57 Q2957.49 2030.99 2955.55 2031.87 L2955.55 2014.51 Z" fill="#000000" fill-rule="nonzero" fill-opacity="1" /><path clip-path="url(#clip340)" d="M3015.06 2033.86 Q3013.05 2033.86 3011.89 2035.57 Q3010.76 2037.28 3010.76 2040.34 Q3010.76 2043.35 3011.89 2045.08 Q3013.05 2046.8 3015.06 2046.8 Q3017.03 2046.8 3018.16 2045.08 Q3019.32 2043.35 3019.32 2040.34 Q3019.32 2037.31 3018.16 2035.59 Q3017.03 2033.86 3015.06 2033.86 M3015.06 2030.92 Q3018.72 2030.92 3020.87 2033.46 Q3023.02 2036.01 3023.02 2040.34 Q3023.02 2044.67 3020.85 2047.21 Q3018.7 2049.74 3015.06 2049.74 Q3011.36 2049.74 3009.21 2047.21 Q3007.05 2044.67 3007.05 2040.34 Q3007.05 2035.99 3009.21 2033.46 Q3011.38 2030.92 3015.06 2030.92 M2991.17 2016.82 Q2989.18 2016.82 2988.02 2018.56 Q2986.89 2020.27 2986.89 2023.28 Q2986.89 2026.33 2988.02 2028.05 Q2989.16 2029.76 2991.17 2029.76 Q2993.19 2029.76 2994.32 2028.05 Q2995.48 2026.33 2995.48 2023.28 Q2995.48 2020.29 2994.32 2018.56 Q2993.16 2016.82 2991.17 2016.82 M3012.08 2013.88 L3015.78 2013.88 L2994.16 2049.74 L2990.46 2049.74 L3012.08 2013.88 M2991.17 2013.88 Q2994.83 2013.88 2997.01 2016.43 Q2999.18 2018.95 2999.18 2023.28 Q2999.18 2027.65 2997.01 2030.18 Q2994.85 2032.7 2991.17 2032.7 Q2987.49 2032.7 2985.34 2030.18 Q2983.21 2027.63 2983.21 2023.28 Q2983.21 2018.97 2985.36 2016.43 Q2987.52 2013.88 2991.17 2013.88 Z" fill="#000000" fill-rule="nonzero" fill-opacity="1" /><polyline clip-path="url(#clip340)" style="stroke:#e26f46; stroke-linecap:round; stroke-linejoin:round; stroke-width:12; stroke-opacity:1; fill:none" points="2696.23,2083.63 2890.82,2083.63 "/>
<path clip-path="url(#clip340)" d="M2935.59 2081.76 Q2932.45 2081.76 2930.59 2083.92 Q2928.77 2086.07 2928.77 2089.82 Q2928.77 2093.55 2930.59 2095.72 Q2932.45 2097.87 2935.59 2097.87 Q2938.74 2097.87 2940.57 2095.72 Q2942.42 2093.55 2942.42 2089.82 Q2942.42 2086.07 2940.57 2083.92 Q2938.74 2081.76 2935.59 2081.76 M2944.88 2067.11 L2944.88 2071.37 Q2943.12 2070.54 2941.31 2070.1 Q2939.53 2069.66 2937.77 2069.66 Q2933.14 2069.66 2930.69 2072.78 Q2928.26 2075.91 2927.91 2082.23 Q2929.28 2080.21 2931.34 2079.15 Q2933.4 2078.06 2935.87 2078.06 Q2941.08 2078.06 2944.09 2081.23 Q2947.12 2084.38 2947.12 2089.82 Q2947.12 2095.14 2943.97 2098.36 Q2940.83 2101.58 2935.59 2101.58 Q2929.6 2101.58 2926.43 2096.99 Q2923.26 2092.39 2923.26 2083.66 Q2923.26 2075.47 2927.15 2070.61 Q2931.03 2065.72 2937.59 2065.72 Q2939.34 2065.72 2941.13 2066.07 Q2942.93 2066.42 2944.88 2067.11 Z" fill="#000000" fill-rule="nonzero" fill-opacity="1" /><path clip-path="url(#clip340)" d="M2965.18 2084.49 Q2961.84 2084.49 2959.92 2086.28 Q2958.03 2088.06 2958.03 2091.18 Q2958.03 2094.31 2959.92 2096.09 Q2961.84 2097.87 2965.18 2097.87 Q2968.51 2097.87 2970.43 2096.09 Q2972.35 2094.29 2972.35 2091.18 Q2972.35 2088.06 2970.43 2086.28 Q2968.53 2084.49 2965.18 2084.49 M2960.5 2082.5 Q2957.49 2081.76 2955.8 2079.7 Q2954.14 2077.64 2954.14 2074.68 Q2954.14 2070.54 2957.08 2068.13 Q2960.04 2065.72 2965.18 2065.72 Q2970.34 2065.72 2973.28 2068.13 Q2976.22 2070.54 2976.22 2074.68 Q2976.22 2077.64 2974.53 2079.7 Q2972.86 2081.76 2969.88 2082.5 Q2973.26 2083.29 2975.13 2085.58 Q2977.03 2087.87 2977.03 2091.18 Q2977.03 2096.21 2973.95 2098.89 Q2970.9 2101.58 2965.18 2101.58 Q2959.46 2101.58 2956.38 2098.89 Q2953.33 2096.21 2953.33 2091.18 Q2953.33 2087.87 2955.22 2085.58 Q2957.12 2083.29 2960.5 2082.5 M2958.79 2075.12 Q2958.79 2077.8 2960.46 2079.31 Q2962.15 2080.81 2965.18 2080.81 Q2968.19 2080.81 2969.88 2079.31 Q2971.59 2077.8 2971.59 2075.12 Q2971.59 2072.43 2969.88 2070.93 Q2968.19 2069.42 2965.18 2069.42 Q2962.15 2069.42 2960.46 2070.93 Q2958.79 2072.43 2958.79 2075.12 Z" fill="#000000" fill-rule="nonzero" fill-opacity="1" /><path clip-path="url(#clip340)" d="M3014.74 2085.7 Q3012.72 2085.7 3011.57 2087.41 Q3010.43 2089.12 3010.43 2092.18 Q3010.43 2095.19 3011.57 2096.92 Q3012.72 2098.64 3014.74 2098.64 Q3016.71 2098.64 3017.84 2096.92 Q3019 2095.19 3019 2092.18 Q3019 2089.15 3017.84 2087.43 Q3016.71 2085.7 3014.74 2085.7 M3014.74 2082.76 Q3018.4 2082.76 3020.55 2085.3 Q3022.7 2087.85 3022.7 2092.18 Q3022.7 2096.51 3020.52 2099.05 Q3018.37 2101.58 3014.74 2101.58 Q3011.03 2101.58 3008.88 2099.05 Q3006.73 2096.51 3006.73 2092.18 Q3006.73 2087.83 3008.88 2085.3 Q3011.06 2082.76 3014.74 2082.76 M2990.85 2068.66 Q2988.86 2068.66 2987.7 2070.4 Q2986.57 2072.11 2986.57 2075.12 Q2986.57 2078.17 2987.7 2079.89 Q2988.84 2081.6 2990.85 2081.6 Q2992.86 2081.6 2994 2079.89 Q2995.15 2078.17 2995.15 2075.12 Q2995.15 2072.13 2994 2070.4 Q2992.84 2068.66 2990.85 2068.66 M3011.75 2065.72 L3015.46 2065.72 L2993.84 2101.58 L2990.13 2101.58 L3011.75 2065.72 M2990.85 2065.72 Q2994.51 2065.72 2996.68 2068.27 Q2998.86 2070.79 2998.86 2075.12 Q2998.86 2079.49 2996.68 2082.02 Q2994.53 2084.54 2990.85 2084.54 Q2987.17 2084.54 2985.02 2082.02 Q2982.89 2079.47 2982.89 2075.12 Q2982.89 2070.81 2985.04 2068.27 Q2987.19 2065.72 2990.85 2065.72 Z" fill="#000000" fill-rule="nonzero" fill-opacity="1" /></svg>
