<?xml version="1.0" encoding="utf-8"?>
<svg xmlns="http://www.w3.org/2000/svg" xmlns:xlink="http://www.w3.org/1999/xlink" width="800" height="600" viewBox="0 0 3200 2400">
<defs>
  <clipPath id="clip250">
    <rect x="0" y="0" width="3200" height="2400"/>
  </clipPath>
</defs>
<path clip-path="url(#clip250)" d="M0 2400 L3200 2400 L3200 0 L0 0  Z" fill="#ffffff" fill-rule="evenodd" fill-opacity="1"/>
<defs>
  <clipPath id="clip251">
    <rect x="640" y="0" width="2241" height="2241"/>
  </clipPath>
</defs>
<path clip-path="url(#clip250)" d="M233.806 2204.92 L3152.76 2204.92 L3152.76 121.312 L233.806 121.312  Z" fill="#eaeaea" fill-rule="evenodd" fill-opacity="1"/>
<defs>
  <clipPath id="clip252">
    <rect x="233" y="121" width="2920" height="2085"/>
  </clipPath>
</defs>
<polyline clip-path="url(#clip252)" style="stroke:#ffffff; stroke-linecap:round; stroke-linejoin:round; stroke-width:2; stroke-opacity:1; fill:none" points="591.791,2204.92 591.791,121.312 "/>
<polyline clip-path="url(#clip252)" style="stroke:#ffffff; stroke-linecap:round; stroke-linejoin:round; stroke-width:2; stroke-opacity:1; fill:none" points="1142.54,2204.92 1142.54,121.312 "/>
<polyline clip-path="url(#clip252)" style="stroke:#ffffff; stroke-linecap:round; stroke-linejoin:round; stroke-width:2; stroke-opacity:1; fill:none" points="1693.28,2204.92 1693.28,121.312 "/>
<polyline clip-path="url(#clip252)" style="stroke:#ffffff; stroke-linecap:round; stroke-linejoin:round; stroke-width:2; stroke-opacity:1; fill:none" points="2244.03,2204.92 2244.03,121.312 "/>
<polyline clip-path="url(#clip252)" style="stroke:#ffffff; stroke-linecap:round; stroke-linejoin:round; stroke-width:2; stroke-opacity:1; fill:none" points="2794.77,2204.92 2794.77,121.312 "/>
<polyline clip-path="url(#clip252)" style="stroke:#ffffff; stroke-linecap:round; stroke-linejoin:round; stroke-width:2; stroke-opacity:1; fill:none" points="233.806,2004.02 3152.76,2004.02 "/>
<polyline clip-path="url(#clip252)" style="stroke:#ffffff; stroke-linecap:round; stroke-linejoin:round; stroke-width:2; stroke-opacity:1; fill:none" points="233.806,1706.46 3152.76,1706.46 "/>
<polyline clip-path="url(#clip252)" style="stroke:#ffffff; stroke-linecap:round; stroke-linejoin:round; stroke-width:2; stroke-opacity:1; fill:none" points="233.806,1408.91 3152.76,1408.91 "/>
<polyline clip-path="url(#clip252)" style="stroke:#ffffff; stroke-linecap:round; stroke-linejoin:round; stroke-width:2; stroke-opacity:1; fill:none" points="233.806,1111.35 3152.76,1111.35 "/>
<polyline clip-path="url(#clip252)" style="stroke:#ffffff; stroke-linecap:round; stroke-linejoin:round; stroke-width:2; stroke-opacity:1; fill:none" points="233.806,813.799 3152.76,813.799 "/>
<polyline clip-path="url(#clip252)" style="stroke:#ffffff; stroke-linecap:round; stroke-linejoin:round; stroke-width:2; stroke-opacity:1; fill:none" points="233.806,516.245 3152.76,516.245 "/>
<polyline clip-path="url(#clip252)" style="stroke:#ffffff; stroke-linecap:round; stroke-linejoin:round; stroke-width:2; stroke-opacity:1; fill:none" points="233.806,218.69 3152.76,218.69 "/>
<polyline clip-path="url(#clip252)" style="stroke:#ffffff; stroke-linecap:round; stroke-linejoin:round; stroke-width:4; stroke-opacity:1; fill:none" points="316.418,2204.92 316.418,121.312 "/>
<polyline clip-path="url(#clip252)" style="stroke:#ffffff; stroke-linecap:round; stroke-linejoin:round; stroke-width:4; stroke-opacity:1; fill:none" points="867.163,2204.92 867.163,121.312 "/>
<polyline clip-path="url(#clip252)" style="stroke:#ffffff; stroke-linecap:round; stroke-linejoin:round; stroke-width:4; stroke-opacity:1; fill:none" points="1417.91,2204.92 1417.91,121.312 "/>
<polyline clip-path="url(#clip252)" style="stroke:#ffffff; stroke-linecap:round; stroke-linejoin:round; stroke-width:4; stroke-opacity:1; fill:none" points="1968.65,2204.92 1968.65,121.312 "/>
<polyline clip-path="url(#clip252)" style="stroke:#ffffff; stroke-linecap:round; stroke-linejoin:round; stroke-width:4; stroke-opacity:1; fill:none" points="2519.4,2204.92 2519.4,121.312 "/>
<polyline clip-path="url(#clip252)" style="stroke:#ffffff; stroke-linecap:round; stroke-linejoin:round; stroke-width:4; stroke-opacity:1; fill:none" points="3070.14,2204.92 3070.14,121.312 "/>
<polyline clip-path="url(#clip252)" style="stroke:#ffffff; stroke-linecap:round; stroke-linejoin:round; stroke-width:4; stroke-opacity:1; fill:none" points="233.806,2152.8 3152.76,2152.8 "/>
<polyline clip-path="url(#clip252)" style="stroke:#ffffff; stroke-linecap:round; stroke-linejoin:round; stroke-width:4; stroke-opacity:1; fill:none" points="233.806,1855.24 3152.76,1855.24 "/>
<polyline clip-path="url(#clip252)" style="stroke:#ffffff; stroke-linecap:round; stroke-linejoin:round; stroke-width:4; stroke-opacity:1; fill:none" points="233.806,1557.69 3152.76,1557.69 "/>
<polyline clip-path="url(#clip252)" style="stroke:#ffffff; stroke-linecap:round; stroke-linejoin:round; stroke-width:4; stroke-opacity:1; fill:none" points="233.806,1260.13 3152.76,1260.13 "/>
<polyline clip-path="url(#clip252)" style="stroke:#ffffff; stroke-linecap:round; stroke-linejoin:round; stroke-width:4; stroke-opacity:1; fill:none" points="233.806,962.577 3152.76,962.577 "/>
<polyline clip-path="url(#clip252)" style="stroke:#ffffff; stroke-linecap:round; stroke-linejoin:round; stroke-width:4; stroke-opacity:1; fill:none" points="233.806,665.022 3152.76,665.022 "/>
<polyline clip-path="url(#clip252)" style="stroke:#ffffff; stroke-linecap:round; stroke-linejoin:round; stroke-width:4; stroke-opacity:1; fill:none" points="233.806,367.467 3152.76,367.467 "/>
<polyline clip-path="url(#clip250)" style="stroke:#ffffff; stroke-linecap:round; stroke-linejoin:round; stroke-width:4; stroke-opacity:1; fill:none" points="233.806,2204.92 3152.76,2204.92 "/>
<polyline clip-path="url(#clip250)" style="stroke:#333333; stroke-linecap:round; stroke-linejoin:round; stroke-width:4; stroke-opacity:1; fill:none" points="316.418,2204.92 316.418,2223.82 "/>
<polyline clip-path="url(#clip250)" style="stroke:#333333; stroke-linecap:round; stroke-linejoin:round; stroke-width:4; stroke-opacity:1; fill:none" points="867.163,2204.92 867.163,2223.82 "/>
<polyline clip-path="url(#clip250)" style="stroke:#333333; stroke-linecap:round; stroke-linejoin:round; stroke-width:4; stroke-opacity:1; fill:none" points="1417.91,2204.92 1417.91,2223.82 "/>
<polyline clip-path="url(#clip250)" style="stroke:#333333; stroke-linecap:round; stroke-linejoin:round; stroke-width:4; stroke-opacity:1; fill:none" points="1968.65,2204.92 1968.65,2223.82 "/>
<polyline clip-path="url(#clip250)" style="stroke:#333333; stroke-linecap:round; stroke-linejoin:round; stroke-width:4; stroke-opacity:1; fill:none" points="2519.4,2204.92 2519.4,2223.82 "/>
<polyline clip-path="url(#clip250)" style="stroke:#333333; stroke-linecap:round; stroke-linejoin:round; stroke-width:4; stroke-opacity:1; fill:none" points="3070.14,2204.92 3070.14,2223.82 "/>
<polyline clip-path="url(#clip250)" style="stroke:#333333; stroke-linecap:round; stroke-linejoin:round; stroke-width:4; stroke-opacity:1; fill:none" points="591.791,2204.92 591.791,2214.37 "/>
<polyline clip-path="url(#clip250)" style="stroke:#333333; stroke-linecap:round; stroke-linejoin:round; stroke-width:4; stroke-opacity:1; fill:none" points="1142.54,2204.92 1142.54,2214.37 "/>
<polyline clip-path="url(#clip250)" style="stroke:#333333; stroke-linecap:round; stroke-linejoin:round; stroke-width:4; stroke-opacity:1; fill:none" points="1693.28,2204.92 1693.28,2214.37 "/>
<polyline clip-path="url(#clip250)" style="stroke:#333333; stroke-linecap:round; stroke-linejoin:round; stroke-width:4; stroke-opacity:1; fill:none" points="2244.03,2204.92 2244.03,2214.37 "/>
<polyline clip-path="url(#clip250)" style="stroke:#333333; stroke-linecap:round; stroke-linejoin:round; stroke-width:4; stroke-opacity:1; fill:none" points="2794.77,2204.92 2794.77,2214.37 "/>
<path clip-path="url(#clip250)" d="M316.418 2255.04 Q312.807 2255.04 310.978 2258.6 Q309.173 2262.14 309.173 2269.27 Q309.173 2276.38 310.978 2279.95 Q312.807 2283.49 316.418 2283.49 Q320.052 2283.49 321.858 2279.95 Q323.687 2276.38 323.687 2269.27 Q323.687 2262.14 321.858 2258.6 Q320.052 2255.04 316.418 2255.04 M316.418 2251.33 Q322.228 2251.33 325.284 2255.94 Q328.362 2260.52 328.362 2269.27 Q328.362 2278 325.284 2282.61 Q322.228 2287.19 316.418 2287.19 Q310.608 2287.19 307.529 2282.61 Q304.474 2278 304.474 2269.27 Q304.474 2260.52 307.529 2255.94 Q310.608 2251.33 316.418 2251.33 Z" fill="#4c4c4c" fill-rule="nonzero" fill-opacity="1" /><path clip-path="url(#clip250)" d="M857.545 2282.58 L865.184 2282.58 L865.184 2256.22 L856.874 2257.89 L856.874 2253.63 L865.138 2251.96 L869.814 2251.96 L869.814 2282.58 L877.453 2282.58 L877.453 2286.52 L857.545 2286.52 L857.545 2282.58 Z" fill="#4c4c4c" fill-rule="nonzero" fill-opacity="1" /><path clip-path="url(#clip250)" d="M1412.56 2282.58 L1428.88 2282.58 L1428.88 2286.52 L1406.94 2286.52 L1406.94 2282.58 Q1409.6 2279.83 1414.18 2275.2 Q1418.79 2270.55 1419.97 2269.21 Q1422.21 2266.68 1423.09 2264.95 Q1424 2263.19 1424 2261.5 Q1424 2258.74 1422.05 2257.01 Q1420.13 2255.27 1417.03 2255.27 Q1414.83 2255.27 1412.38 2256.03 Q1409.95 2256.8 1407.17 2258.35 L1407.17 2253.63 Q1409.99 2252.49 1412.45 2251.91 Q1414.9 2251.33 1416.94 2251.33 Q1422.31 2251.33 1425.5 2254.02 Q1428.7 2256.71 1428.7 2261.2 Q1428.7 2263.33 1427.89 2265.25 Q1427.1 2267.14 1424.99 2269.74 Q1424.41 2270.41 1421.31 2273.63 Q1418.21 2276.82 1412.56 2282.58 Z" fill="#4c4c4c" fill-rule="nonzero" fill-opacity="1" /><path clip-path="url(#clip250)" d="M1972.9 2267.89 Q1976.26 2268.6 1978.13 2270.87 Q1980.03 2273.14 1980.03 2276.47 Q1980.03 2281.59 1976.51 2284.39 Q1972.99 2287.19 1966.51 2287.19 Q1964.34 2287.19 1962.02 2286.75 Q1959.73 2286.33 1957.28 2285.48 L1957.28 2280.96 Q1959.22 2282.1 1961.54 2282.68 Q1963.85 2283.26 1966.37 2283.26 Q1970.77 2283.26 1973.06 2281.52 Q1975.38 2279.78 1975.38 2276.47 Q1975.38 2273.42 1973.23 2271.71 Q1971.1 2269.97 1967.28 2269.97 L1963.25 2269.97 L1963.25 2266.13 L1967.46 2266.13 Q1970.91 2266.13 1972.74 2264.76 Q1974.57 2263.37 1974.57 2260.78 Q1974.57 2258.12 1972.67 2256.71 Q1970.79 2255.27 1967.28 2255.27 Q1965.36 2255.27 1963.16 2255.69 Q1960.96 2256.1 1958.32 2256.98 L1958.32 2252.82 Q1960.98 2252.08 1963.29 2251.71 Q1965.63 2251.33 1967.69 2251.33 Q1973.02 2251.33 1976.12 2253.77 Q1979.22 2256.17 1979.22 2260.29 Q1979.22 2263.16 1977.58 2265.15 Q1975.93 2267.12 1972.9 2267.89 Z" fill="#4c4c4c" fill-rule="nonzero" fill-opacity="1" /><path clip-path="url(#clip250)" d="M2522.41 2256.03 L2510.6 2274.48 L2522.41 2274.48 L2522.41 2256.03 M2521.18 2251.96 L2527.06 2251.96 L2527.06 2274.48 L2531.99 2274.48 L2531.99 2278.37 L2527.06 2278.37 L2527.06 2286.52 L2522.41 2286.52 L2522.41 2278.37 L2506.81 2278.37 L2506.81 2273.86 L2521.18 2251.96 Z" fill="#4c4c4c" fill-rule="nonzero" fill-opacity="1" /><path clip-path="url(#clip250)" d="M3060.42 2251.96 L3078.78 2251.96 L3078.78 2255.9 L3064.7 2255.9 L3064.7 2264.37 Q3065.72 2264.02 3066.74 2263.86 Q3067.76 2263.67 3068.78 2263.67 Q3074.57 2263.67 3077.95 2266.84 Q3081.32 2270.02 3081.32 2275.43 Q3081.32 2281.01 3077.85 2284.11 Q3074.38 2287.19 3068.06 2287.19 Q3065.88 2287.19 3063.62 2286.82 Q3061.37 2286.45 3058.96 2285.71 L3058.96 2281.01 Q3061.05 2282.14 3063.27 2282.7 Q3065.49 2283.26 3067.97 2283.26 Q3071.97 2283.26 3074.31 2281.15 Q3076.65 2279.04 3076.65 2275.43 Q3076.65 2271.82 3074.31 2269.71 Q3071.97 2267.61 3067.97 2267.61 Q3066.09 2267.61 3064.22 2268.02 Q3062.37 2268.44 3060.42 2269.32 L3060.42 2251.96 Z" fill="#4c4c4c" fill-rule="nonzero" fill-opacity="1" /><path clip-path="url(#clip250)" d="M1692.34 2316.01 L1692.34 2326.14 L1704.41 2326.14 L1704.41 2330.69 L1692.34 2330.69 L1692.34 2350.04 Q1692.34 2354.4 1693.52 2355.64 Q1694.73 2356.88 1698.39 2356.88 L1704.41 2356.88 L1704.41 2361.78 L1698.39 2361.78 Q1691.61 2361.78 1689.03 2359.27 Q1686.45 2356.72 1686.45 2350.04 L1686.45 2330.69 L1682.16 2330.69 L1682.16 2326.14 L1686.45 2326.14 L1686.45 2316.01 L1692.34 2316.01 Z" fill="#000000" fill-rule="nonzero" fill-opacity="1" /><polyline clip-path="url(#clip250)" style="stroke:#ffffff; stroke-linecap:round; stroke-linejoin:round; stroke-width:4; stroke-opacity:1; fill:none" points="233.806,2204.92 233.806,121.312 "/>
<polyline clip-path="url(#clip250)" style="stroke:#333333; stroke-linecap:round; stroke-linejoin:round; stroke-width:4; stroke-opacity:1; fill:none" points="233.806,2152.8 214.909,2152.8 "/>
<polyline clip-path="url(#clip250)" style="stroke:#333333; stroke-linecap:round; stroke-linejoin:round; stroke-width:4; stroke-opacity:1; fill:none" points="233.806,1855.24 214.909,1855.24 "/>
<polyline clip-path="url(#clip250)" style="stroke:#333333; stroke-linecap:round; stroke-linejoin:round; stroke-width:4; stroke-opacity:1; fill:none" points="233.806,1557.69 214.909,1557.69 "/>
<polyline clip-path="url(#clip250)" style="stroke:#333333; stroke-linecap:round; stroke-linejoin:round; stroke-width:4; stroke-opacity:1; fill:none" points="233.806,1260.13 214.909,1260.13 "/>
<polyline clip-path="url(#clip250)" style="stroke:#333333; stroke-linecap:round; stroke-linejoin:round; stroke-width:4; stroke-opacity:1; fill:none" points="233.806,962.577 214.909,962.577 "/>
<polyline clip-path="url(#clip250)" style="stroke:#333333; stroke-linecap:round; stroke-linejoin:round; stroke-width:4; stroke-opacity:1; fill:none" points="233.806,665.022 214.909,665.022 "/>
<polyline clip-path="url(#clip250)" style="stroke:#333333; stroke-linecap:round; stroke-linejoin:round; stroke-width:4; stroke-opacity:1; fill:none" points="233.806,367.467 214.909,367.467 "/>
<polyline clip-path="url(#clip250)" style="stroke:#333333; stroke-linecap:round; stroke-linejoin:round; stroke-width:4; stroke-opacity:1; fill:none" points="233.806,2004.02 224.357,2004.02 "/>
<polyline clip-path="url(#clip250)" style="stroke:#333333; stroke-linecap:round; stroke-linejoin:round; stroke-width:4; stroke-opacity:1; fill:none" points="233.806,1706.46 224.357,1706.46 "/>
<polyline clip-path="url(#clip250)" style="stroke:#333333; stroke-linecap:round; stroke-linejoin:round; stroke-width:4; stroke-opacity:1; fill:none" points="233.806,1408.91 224.357,1408.91 "/>
<polyline clip-path="url(#clip250)" style="stroke:#333333; stroke-linecap:round; stroke-linejoin:round; stroke-width:4; stroke-opacity:1; fill:none" points="233.806,1111.35 224.357,1111.35 "/>
<polyline clip-path="url(#clip250)" style="stroke:#333333; stroke-linecap:round; stroke-linejoin:round; stroke-width:4; stroke-opacity:1; fill:none" points="233.806,813.799 224.357,813.799 "/>
<polyline clip-path="url(#clip250)" style="stroke:#333333; stroke-linecap:round; stroke-linejoin:round; stroke-width:4; stroke-opacity:1; fill:none" points="233.806,516.245 224.357,516.245 "/>
<polyline clip-path="url(#clip250)" style="stroke:#333333; stroke-linecap:round; stroke-linejoin:round; stroke-width:4; stroke-opacity:1; fill:none" points="233.806,218.69 224.357,218.69 "/>
<path clip-path="url(#clip250)" d="M106.228 2138.59 Q102.617 2138.59 100.788 2142.16 Q98.9825 2145.7 98.9825 2152.83 Q98.9825 2159.94 100.788 2163.5 Q102.617 2167.04 106.228 2167.04 Q109.862 2167.04 111.668 2163.5 Q113.496 2159.94 113.496 2152.83 Q113.496 2145.7 111.668 2142.16 Q109.862 2138.59 106.228 2138.59 M106.228 2134.89 Q112.038 2134.89 115.094 2139.5 Q118.172 2144.08 118.172 2152.83 Q118.172 2161.56 115.094 2166.16 Q112.038 2170.75 106.228 2170.75 Q100.418 2170.75 97.339 2166.16 Q94.2835 2161.56 94.2835 2152.83 Q94.2835 2144.08 97.339 2139.5 Q100.418 2134.89 106.228 2134.89 Z" fill="#4c4c4c" fill-rule="nonzero" fill-opacity="1" /><path clip-path="url(#clip250)" d="M126.39 2164.2 L131.274 2164.2 L131.274 2170.08 L126.39 2170.08 L126.39 2164.2 Z" fill="#4c4c4c" fill-rule="nonzero" fill-opacity="1" /><path clip-path="url(#clip250)" d="M145.487 2166.14 L161.806 2166.14 L161.806 2170.08 L139.862 2170.08 L139.862 2166.14 Q142.524 2163.39 147.107 2158.76 Q151.714 2154.1 152.894 2152.76 Q155.14 2150.24 156.019 2148.5 Q156.922 2146.74 156.922 2145.05 Q156.922 2142.3 154.978 2140.56 Q153.056 2138.83 149.954 2138.83 Q147.755 2138.83 145.302 2139.59 Q142.871 2140.35 140.093 2141.9 L140.093 2137.18 Q142.917 2136.05 145.371 2135.47 Q147.825 2134.89 149.862 2134.89 Q155.232 2134.89 158.427 2137.58 Q161.621 2140.26 161.621 2144.75 Q161.621 2146.88 160.811 2148.8 Q160.024 2150.7 157.917 2153.29 Q157.339 2153.96 154.237 2157.18 Q151.135 2160.38 145.487 2166.14 Z" fill="#4c4c4c" fill-rule="nonzero" fill-opacity="1" /><path clip-path="url(#clip250)" d="M104.145 1841.04 Q100.533 1841.04 98.7048 1844.6 Q96.8992 1848.15 96.8992 1855.28 Q96.8992 1862.38 98.7048 1865.95 Q100.533 1869.49 104.145 1869.49 Q107.779 1869.49 109.584 1865.95 Q111.413 1862.38 111.413 1855.28 Q111.413 1848.15 109.584 1844.6 Q107.779 1841.04 104.145 1841.04 M104.145 1837.34 Q109.955 1837.34 113.01 1841.94 Q116.089 1846.53 116.089 1855.28 Q116.089 1864 113.01 1868.61 Q109.955 1873.19 104.145 1873.19 Q98.3344 1873.19 95.2557 1868.61 Q92.2002 1864 92.2002 1855.28 Q92.2002 1846.53 95.2557 1841.94 Q98.3344 1837.34 104.145 1837.34 Z" fill="#4c4c4c" fill-rule="nonzero" fill-opacity="1" /><path clip-path="url(#clip250)" d="M124.306 1866.64 L129.191 1866.64 L129.191 1872.52 L124.306 1872.52 L124.306 1866.64 Z" fill="#4c4c4c" fill-rule="nonzero" fill-opacity="1" /><path clip-path="url(#clip250)" d="M152.223 1842.03 L140.417 1860.48 L152.223 1860.48 L152.223 1842.03 M150.996 1837.96 L156.876 1837.96 L156.876 1860.48 L161.806 1860.48 L161.806 1864.37 L156.876 1864.37 L156.876 1872.52 L152.223 1872.52 L152.223 1864.37 L136.621 1864.37 L136.621 1859.86 L150.996 1837.96 Z" fill="#4c4c4c" fill-rule="nonzero" fill-opacity="1" /><path clip-path="url(#clip250)" d="M104.469 1543.48 Q100.858 1543.48 99.0288 1547.05 Q97.2233 1550.59 97.2233 1557.72 Q97.2233 1564.83 99.0288 1568.39 Q100.858 1571.93 104.469 1571.93 Q108.103 1571.93 109.908 1568.39 Q111.737 1564.83 111.737 1557.72 Q111.737 1550.59 109.908 1547.05 Q108.103 1543.48 104.469 1543.48 M104.469 1539.78 Q110.279 1539.78 113.334 1544.39 Q116.413 1548.97 116.413 1557.72 Q116.413 1566.45 113.334 1571.05 Q110.279 1575.64 104.469 1575.64 Q98.6585 1575.64 95.5798 1571.05 Q92.5242 1566.45 92.5242 1557.72 Q92.5242 1548.97 95.5798 1544.39 Q98.6585 1539.78 104.469 1539.78 Z" fill="#4c4c4c" fill-rule="nonzero" fill-opacity="1" /><path clip-path="url(#clip250)" d="M124.631 1569.09 L129.515 1569.09 L129.515 1574.97 L124.631 1574.97 L124.631 1569.09 Z" fill="#4c4c4c" fill-rule="nonzero" fill-opacity="1" /><path clip-path="url(#clip250)" d="M150.279 1555.82 Q147.13 1555.82 145.279 1557.98 Q143.45 1560.13 143.45 1563.88 Q143.45 1567.6 145.279 1569.78 Q147.13 1571.93 150.279 1571.93 Q153.427 1571.93 155.255 1569.78 Q157.107 1567.6 157.107 1563.88 Q157.107 1560.13 155.255 1557.98 Q153.427 1555.82 150.279 1555.82 M159.561 1541.17 L159.561 1545.43 Q157.802 1544.6 155.996 1544.16 Q154.214 1543.72 152.454 1543.72 Q147.825 1543.72 145.371 1546.84 Q142.941 1549.97 142.593 1556.29 Q143.959 1554.27 146.019 1553.21 Q148.079 1552.12 150.556 1552.12 Q155.765 1552.12 158.774 1555.29 Q161.806 1558.44 161.806 1563.88 Q161.806 1569.2 158.658 1572.42 Q155.51 1575.64 150.279 1575.64 Q144.283 1575.64 141.112 1571.05 Q137.941 1566.45 137.941 1557.72 Q137.941 1549.53 141.83 1544.67 Q145.718 1539.78 152.269 1539.78 Q154.029 1539.78 155.811 1540.13 Q157.616 1540.48 159.561 1541.17 Z" fill="#4c4c4c" fill-rule="nonzero" fill-opacity="1" /><path clip-path="url(#clip250)" d="M104.723 1245.93 Q101.112 1245.93 99.2835 1249.49 Q97.4779 1253.04 97.4779 1260.17 Q97.4779 1267.27 99.2835 1270.84 Q101.112 1274.38 104.723 1274.38 Q108.357 1274.38 110.163 1270.84 Q111.992 1267.27 111.992 1260.17 Q111.992 1253.04 110.163 1249.49 Q108.357 1245.93 104.723 1245.93 M104.723 1242.23 Q110.533 1242.23 113.589 1246.83 Q116.668 1251.42 116.668 1260.17 Q116.668 1268.89 113.589 1273.5 Q110.533 1278.08 104.723 1278.08 Q98.9131 1278.08 95.8344 1273.5 Q92.7789 1268.89 92.7789 1260.17 Q92.7789 1251.42 95.8344 1246.83 Q98.9131 1242.23 104.723 1242.23 Z" fill="#4c4c4c" fill-rule="nonzero" fill-opacity="1" /><path clip-path="url(#clip250)" d="M124.885 1271.53 L129.769 1271.53 L129.769 1277.41 L124.885 1277.41 L124.885 1271.53 Z" fill="#4c4c4c" fill-rule="nonzero" fill-opacity="1" /><path clip-path="url(#clip250)" d="M149.954 1261 Q146.621 1261 144.7 1262.78 Q142.802 1264.56 142.802 1267.69 Q142.802 1270.81 144.7 1272.6 Q146.621 1274.38 149.954 1274.38 Q153.288 1274.38 155.209 1272.6 Q157.13 1270.79 157.13 1267.69 Q157.13 1264.56 155.209 1262.78 Q153.311 1261 149.954 1261 M145.279 1259.01 Q142.269 1258.27 140.58 1256.21 Q138.913 1254.15 138.913 1251.18 Q138.913 1247.04 141.853 1244.63 Q144.816 1242.23 149.954 1242.23 Q155.116 1242.23 158.056 1244.63 Q160.996 1247.04 160.996 1251.18 Q160.996 1254.15 159.306 1256.21 Q157.64 1258.27 154.654 1259.01 Q158.033 1259.8 159.908 1262.09 Q161.806 1264.38 161.806 1267.69 Q161.806 1272.71 158.728 1275.4 Q155.672 1278.08 149.954 1278.08 Q144.237 1278.08 141.158 1275.4 Q138.103 1272.71 138.103 1267.69 Q138.103 1264.38 140.001 1262.09 Q141.899 1259.8 145.279 1259.01 M143.566 1251.62 Q143.566 1254.31 145.232 1255.81 Q146.922 1257.32 149.954 1257.32 Q152.964 1257.32 154.654 1255.81 Q156.366 1254.31 156.366 1251.62 Q156.366 1248.94 154.654 1247.43 Q152.964 1245.93 149.954 1245.93 Q146.922 1245.93 145.232 1247.43 Q143.566 1248.94 143.566 1251.62 Z" fill="#4c4c4c" fill-rule="nonzero" fill-opacity="1" /><path clip-path="url(#clip250)" d="M95.4409 975.922 L103.08 975.922 L103.08 949.556 L94.7696 951.223 L94.7696 946.963 L103.033 945.297 L107.709 945.297 L107.709 975.922 L115.348 975.922 L115.348 979.857 L95.4409 979.857 L95.4409 975.922 Z" fill="#4c4c4c" fill-rule="nonzero" fill-opacity="1" /><path clip-path="url(#clip250)" d="M124.793 973.977 L129.677 973.977 L129.677 979.857 L124.793 979.857 L124.793 973.977 Z" fill="#4c4c4c" fill-rule="nonzero" fill-opacity="1" /><path clip-path="url(#clip250)" d="M149.862 948.375 Q146.251 948.375 144.422 951.94 Q142.617 955.482 142.617 962.611 Q142.617 969.718 144.422 973.283 Q146.251 976.824 149.862 976.824 Q153.496 976.824 155.302 973.283 Q157.13 969.718 157.13 962.611 Q157.13 955.482 155.302 951.94 Q153.496 948.375 149.862 948.375 M149.862 944.672 Q155.672 944.672 158.728 949.278 Q161.806 953.861 161.806 962.611 Q161.806 971.338 158.728 975.945 Q155.672 980.528 149.862 980.528 Q144.052 980.528 140.973 975.945 Q137.918 971.338 137.918 962.611 Q137.918 953.861 140.973 949.278 Q144.052 944.672 149.862 944.672 Z" fill="#4c4c4c" fill-rule="nonzero" fill-opacity="1" /><path clip-path="url(#clip250)" d="M97.0381 678.367 L104.677 678.367 L104.677 652.001 L96.3668 653.668 L96.3668 649.409 L104.631 647.742 L109.307 647.742 L109.307 678.367 L116.945 678.367 L116.945 682.302 L97.0381 682.302 L97.0381 678.367 Z" fill="#4c4c4c" fill-rule="nonzero" fill-opacity="1" /><path clip-path="url(#clip250)" d="M126.39 676.422 L131.274 676.422 L131.274 682.302 L126.39 682.302 L126.39 676.422 Z" fill="#4c4c4c" fill-rule="nonzero" fill-opacity="1" /><path clip-path="url(#clip250)" d="M145.487 678.367 L161.806 678.367 L161.806 682.302 L139.862 682.302 L139.862 678.367 Q142.524 675.612 147.107 670.983 Q151.714 666.33 152.894 664.987 Q155.14 662.464 156.019 660.728 Q156.922 658.969 156.922 657.279 Q156.922 654.524 154.978 652.788 Q153.056 651.052 149.954 651.052 Q147.755 651.052 145.302 651.816 Q142.871 652.58 140.093 654.131 L140.093 649.409 Q142.917 648.274 145.371 647.696 Q147.825 647.117 149.862 647.117 Q155.232 647.117 158.427 649.802 Q161.621 652.487 161.621 656.978 Q161.621 659.108 160.811 661.029 Q160.024 662.927 157.917 665.52 Q157.339 666.191 154.237 669.409 Q151.135 672.603 145.487 678.367 Z" fill="#4c4c4c" fill-rule="nonzero" fill-opacity="1" /><path clip-path="url(#clip250)" d="M94.9548 380.812 L102.594 380.812 L102.594 354.447 L94.2835 356.113 L94.2835 351.854 L102.547 350.187 L107.223 350.187 L107.223 380.812 L114.862 380.812 L114.862 384.747 L94.9548 384.747 L94.9548 380.812 Z" fill="#4c4c4c" fill-rule="nonzero" fill-opacity="1" /><path clip-path="url(#clip250)" d="M124.306 378.868 L129.191 378.868 L129.191 384.747 L124.306 384.747 L124.306 378.868 Z" fill="#4c4c4c" fill-rule="nonzero" fill-opacity="1" /><path clip-path="url(#clip250)" d="M152.223 354.261 L140.417 372.71 L152.223 372.71 L152.223 354.261 M150.996 350.187 L156.876 350.187 L156.876 372.71 L161.806 372.71 L161.806 376.599 L156.876 376.599 L156.876 384.747 L152.223 384.747 L152.223 376.599 L136.621 376.599 L136.621 372.085 L150.996 350.187 Z" fill="#4c4c4c" fill-rule="nonzero" fill-opacity="1" /><path clip-path="url(#clip250)" d="M48.597 1321.32 L67.5031 1321.32 L67.5031 1327.21 L18.2962 1327.21 L18.2962 1321.32 L23.7071 1321.32 Q20.5242 1319.47 18.9964 1316.67 Q17.4368 1313.84 17.4368 1309.93 Q17.4368 1303.43 22.5931 1299.39 Q27.7493 1295.32 36.152 1295.32 Q44.5547 1295.32 49.711 1299.39 Q54.8672 1303.43 54.8672 1309.93 Q54.8672 1313.84 53.3394 1316.67 Q51.7798 1319.47 48.597 1321.32 M36.152 1301.4 Q29.6908 1301.4 26.0305 1304.07 Q22.3384 1306.71 22.3384 1311.36 Q22.3384 1316 26.0305 1318.68 Q29.6908 1321.32 36.152 1321.32 Q42.6132 1321.32 46.3053 1318.68 Q49.9656 1316 49.9656 1311.36 Q49.9656 1306.71 46.3053 1304.07 Q42.6132 1301.4 36.152 1301.4 Z" fill="#000000" fill-rule="nonzero" fill-opacity="1" /><path clip-path="url(#clip250)" d="M22.4021 1271.79 Q22.4021 1276.51 26.0942 1279.24 Q29.7545 1281.98 36.152 1281.98 Q42.5495 1281.98 46.2417 1279.27 Q49.9019 1276.54 49.9019 1271.79 Q49.9019 1267.12 46.2098 1264.38 Q42.5177 1261.64 36.152 1261.64 Q29.8181 1261.64 26.126 1264.38 Q22.4021 1267.12 22.4021 1271.79 M17.4368 1271.79 Q17.4368 1264.16 22.4021 1259.8 Q27.3673 1255.43 36.152 1255.43 Q44.9049 1255.43 49.9019 1259.8 Q54.8672 1264.16 54.8672 1271.79 Q54.8672 1279.47 49.9019 1283.83 Q44.9049 1288.15 36.152 1288.15 Q27.3673 1288.15 22.4021 1283.83 Q17.4368 1279.47 17.4368 1271.79 Z" fill="#000000" fill-rule="nonzero" fill-opacity="1" /><path clip-path="url(#clip250)" d="M48.597 1240.06 L67.5031 1240.06 L67.5031 1245.95 L18.2962 1245.95 L18.2962 1240.06 L23.7071 1240.06 Q20.5242 1238.22 18.9964 1235.41 Q17.4368 1232.58 17.4368 1228.67 Q17.4368 1222.17 22.5931 1218.13 Q27.7493 1214.06 36.152 1214.06 Q44.5547 1214.06 49.711 1218.13 Q54.8672 1222.17 54.8672 1228.67 Q54.8672 1232.58 53.3394 1235.41 Q51.7798 1238.22 48.597 1240.06 M36.152 1220.14 Q29.6908 1220.14 26.0305 1222.81 Q22.3384 1225.45 22.3384 1230.1 Q22.3384 1234.75 26.0305 1237.42 Q29.6908 1240.06 36.152 1240.06 Q42.6132 1240.06 46.3053 1237.42 Q49.9656 1234.75 49.9656 1230.1 Q49.9656 1225.45 46.3053 1222.81 Q42.6132 1220.14 36.152 1220.14 Z" fill="#000000" fill-rule="nonzero" fill-opacity="1" /><path clip-path="url(#clip250)" d="M39.8759 1204.95 L18.2962 1204.95 L18.2962 1199.1 L39.6531 1199.1 Q44.7139 1199.1 47.2602 1197.12 Q49.7746 1195.15 49.7746 1191.2 Q49.7746 1186.46 46.7509 1183.72 Q43.7272 1180.96 38.5073 1180.96 L18.2962 1180.96 L18.2962 1175.1 L53.9442 1175.1 L53.9442 1180.96 L48.4696 1180.96 Q51.7162 1183.09 53.3076 1185.92 Q54.8672 1188.72 54.8672 1192.45 Q54.8672 1198.59 51.0478 1201.77 Q47.2283 1204.95 39.8759 1204.95 M17.4368 1190.22 L17.4368 1190.22 Z" fill="#000000" fill-rule="nonzero" fill-opacity="1" /><path clip-path="url(#clip250)" d="M4.41896 1163.04 L4.41896 1157.18 L53.9442 1157.18 L53.9442 1163.04 L4.41896 1163.04 Z" fill="#000000" fill-rule="nonzero" fill-opacity="1" /><path clip-path="url(#clip250)" d="M36.0247 1128.73 Q36.0247 1135.82 37.6479 1138.56 Q39.2712 1141.3 43.1861 1141.3 Q46.3053 1141.3 48.1514 1139.26 Q49.9656 1137.19 49.9656 1133.66 Q49.9656 1128.79 46.5281 1125.86 Q43.0588 1122.9 37.3297 1122.9 L36.0247 1122.9 L36.0247 1128.73 M33.6057 1117.04 L53.9442 1117.04 L53.9442 1122.9 L48.5333 1122.9 Q51.7798 1124.91 53.3394 1127.9 Q54.8672 1130.89 54.8672 1135.22 Q54.8672 1140.69 51.8116 1143.94 Q48.7243 1147.15 43.5681 1147.15 Q37.5525 1147.15 34.4969 1143.14 Q31.4414 1139.1 31.4414 1131.11 L31.4414 1122.9 L30.8685 1122.9 Q26.8262 1122.9 24.6301 1125.57 Q22.4021 1128.22 22.4021 1133.02 Q22.4021 1136.08 23.1341 1138.97 Q23.8662 1141.87 25.3303 1144.54 L19.9195 1144.54 Q18.6781 1141.33 18.0734 1138.31 Q17.4368 1135.28 17.4368 1132.42 Q17.4368 1124.68 21.4472 1120.86 Q25.4576 1117.04 33.6057 1117.04 Z" fill="#000000" fill-rule="nonzero" fill-opacity="1" /><path clip-path="url(#clip250)" d="M19.6648 1079.33 L25.1393 1079.33 Q23.7707 1081.81 23.1023 1084.32 Q22.4021 1086.81 22.4021 1089.35 Q22.4021 1095.05 26.0305 1098.2 Q29.6272 1101.35 36.152 1101.35 Q42.6769 1101.35 46.3053 1098.2 Q49.9019 1095.05 49.9019 1089.35 Q49.9019 1086.81 49.2335 1084.32 Q48.5333 1081.81 47.1647 1079.33 L52.5755 1079.33 Q53.7214 1081.78 54.2943 1084.42 Q54.8672 1087.03 54.8672 1089.99 Q54.8672 1098.04 49.8064 1102.78 Q44.7457 1107.53 36.152 1107.53 Q27.431 1107.53 22.4339 1102.75 Q17.4368 1097.95 17.4368 1089.61 Q17.4368 1086.9 18.0097 1084.32 Q18.5508 1081.75 19.6648 1079.33 M53.9442 1087.6 Q55.9175 1085.85 57.5726 1084.99 Q59.2595 1084.13 60.7873 1084.13 Q63.62 1084.13 65.0523 1086.04 Q66.5164 1087.95 66.5164 1091.71 Q66.5164 1093.17 66.3255 1094.57 Q66.1345 1095.94 65.7525 1097.31 L61.583 1097.31 Q62.1241 1096.23 62.3469 1095.05 Q62.6015 1093.87 62.6015 1092.38 Q62.6015 1090.5 61.8376 1089.54 Q61.0737 1088.59 59.6096 1088.59 Q58.6548 1088.59 57.2543 1089.29 Q55.8857 1089.96 53.9442 1091.39 L53.9442 1087.6 Z" fill="#000000" fill-rule="nonzero" fill-opacity="1" /><path clip-path="url(#clip250)" d="M36.0247 1052.94 Q36.0247 1060.04 37.6479 1062.78 Q39.2712 1065.51 43.1861 1065.51 Q46.3053 1065.51 48.1514 1063.48 Q49.9656 1061.41 49.9656 1057.87 Q49.9656 1053.01 46.5281 1050.08 Q43.0588 1047.12 37.3297 1047.12 L36.0247 1047.12 L36.0247 1052.94 M33.6057 1041.26 L53.9442 1041.26 L53.9442 1047.12 L48.5333 1047.12 Q51.7798 1049.12 53.3394 1052.11 Q54.8672 1055.11 54.8672 1059.43 Q54.8672 1064.91 51.8116 1068.16 Q48.7243 1071.37 43.5681 1071.37 Q37.5525 1071.37 34.4969 1067.36 Q31.4414 1063.32 31.4414 1055.33 L31.4414 1047.12 L30.8685 1047.12 Q26.8262 1047.12 24.6301 1049.79 Q22.4021 1052.43 22.4021 1057.24 Q22.4021 1060.29 23.1341 1063.19 Q23.8662 1066.09 25.3303 1068.76 L19.9195 1068.76 Q18.6781 1065.55 18.0734 1062.52 Q17.4368 1059.5 17.4368 1056.63 Q17.4368 1048.9 21.4472 1045.08 Q25.4576 1041.26 33.6057 1041.26 M10.3391 1056.51 L8.5885 1058.32 Q7.95193 1059.02 7.66547 1059.56 Q7.34718 1060.07 7.34718 1060.48 Q7.34718 1061.69 8.52484 1062.27 Q9.67067 1062.84 12.2806 1062.9 L12.2806 1066.88 Q7.98376 1066.82 5.66027 1065.2 Q3.30496 1063.57 3.30496 1060.68 Q3.30496 1059.47 3.75056 1058.45 Q4.19616 1057.43 5.2465 1056.25 L6.99707 1054.44 Q7.63364 1053.74 7.95193 1053.23 Q8.23838 1052.69 8.23838 1052.27 Q8.23838 1051.06 7.09256 1050.49 Q5.9149 1049.92 3.30496 1049.85 L3.30496 1045.88 Q7.60181 1045.94 9.95712 1047.56 Q12.2806 1049.19 12.2806 1052.08 Q12.2806 1053.29 11.835 1054.31 Q11.3894 1055.33 10.3391 1056.51 Z" fill="#000000" fill-rule="nonzero" fill-opacity="1" /><path clip-path="url(#clip250)" d="M22.4021 1015.38 Q22.4021 1020.09 26.0942 1022.83 Q29.7545 1025.57 36.152 1025.57 Q42.5495 1025.57 46.2417 1022.86 Q49.9019 1020.13 49.9019 1015.38 Q49.9019 1010.71 46.2098 1007.97 Q42.5177 1005.23 36.152 1005.23 Q29.8181 1005.23 26.126 1007.97 Q22.4021 1010.71 22.4021 1015.38 M17.4368 1015.38 Q17.4368 1007.74 22.4021 1003.38 Q27.3673 999.024 36.152 999.024 Q44.9049 999.024 49.9019 1003.38 Q54.8672 1007.74 54.8672 1015.38 Q54.8672 1023.05 49.9019 1027.42 Q44.9049 1031.74 36.152 1031.74 Q27.3673 1031.74 22.4021 1027.42 Q17.4368 1023.05 17.4368 1015.38 Z" fill="#000000" fill-rule="nonzero" fill-opacity="1" /><path clip-path="url(#clip250)" d="M972.365 23.3193 L979.136 23.3193 L991.288 55.958 L1003.44 23.3193 L1010.21 23.3193 L995.629 62.208 L986.948 62.208 L972.365 23.3193 Z" fill="#000000" fill-rule="nonzero" fill-opacity="1" /><path clip-path="url(#clip250)" d="M1036.7 42.6595 Q1028.96 42.6595 1025.98 44.4303 Q1022.99 46.2011 1022.99 50.472 Q1022.99 53.8747 1025.21 55.8886 Q1027.47 57.8677 1031.32 57.8677 Q1036.64 57.8677 1039.83 54.1178 Q1043.06 50.3331 1043.06 44.0831 L1043.06 42.6595 L1036.7 42.6595 M1049.45 40.0206 L1049.45 62.208 L1043.06 62.208 L1043.06 56.3053 Q1040.87 59.8469 1037.61 61.5483 Q1034.34 63.2149 1029.62 63.2149 Q1023.65 63.2149 1020.11 59.8816 Q1016.6 56.5136 1016.6 50.8886 Q1016.6 44.3262 1020.98 40.9928 Q1025.39 37.6595 1034.1 37.6595 L1043.06 37.6595 L1043.06 37.0345 Q1043.06 32.6248 1040.14 30.229 Q1037.26 27.7985 1032.02 27.7985 Q1028.68 27.7985 1025.52 28.5971 Q1022.36 29.3957 1019.45 30.9929 L1019.45 25.0901 Q1022.95 23.736 1026.25 23.0763 Q1029.55 22.3818 1032.68 22.3818 Q1041.11 22.3818 1045.28 26.7568 Q1049.45 31.1318 1049.45 40.0206 Z" fill="#000000" fill-rule="nonzero" fill-opacity="1" /><path clip-path="url(#clip250)" d="M1062.61 8.18051 L1069 8.18051 L1069 62.208 L1062.61 62.208 L1062.61 8.18051 Z" fill="#000000" fill-rule="nonzero" fill-opacity="1" /><path clip-path="url(#clip250)" d="M1097.43 27.7985 Q1092.29 27.7985 1089.31 31.8262 Q1086.32 35.8193 1086.32 42.7984 Q1086.32 49.7775 1089.27 53.8053 Q1092.26 57.7983 1097.43 57.7983 Q1102.54 57.7983 1105.52 53.7705 Q1108.51 49.7428 1108.51 42.7984 Q1108.51 35.8887 1105.52 31.8609 Q1102.54 27.7985 1097.43 27.7985 M1097.43 22.3818 Q1105.77 22.3818 1110.52 27.7985 Q1115.28 33.2151 1115.28 42.7984 Q1115.28 52.3469 1110.52 57.7983 Q1105.77 63.2149 1097.43 63.2149 Q1089.07 63.2149 1084.31 57.7983 Q1079.59 52.3469 1079.59 42.7984 Q1079.59 33.2151 1084.31 27.7985 Q1089.07 22.3818 1097.43 22.3818 Z" fill="#000000" fill-rule="nonzero" fill-opacity="1" /><path clip-path="url(#clip250)" d="M1148.41 29.2915 Q1147.33 28.6665 1146.04 28.3887 Q1144.79 28.0762 1143.27 28.0762 Q1137.85 28.0762 1134.93 31.6179 Q1132.05 35.1248 1132.05 41.722 L1132.05 62.208 L1125.63 62.208 L1125.63 23.3193 L1132.05 23.3193 L1132.05 29.361 Q1134.07 25.8193 1137.29 24.1179 Q1140.52 22.3818 1145.14 22.3818 Q1145.8 22.3818 1146.6 22.486 Q1147.4 22.5554 1148.37 22.729 L1148.41 29.2915 Z" fill="#000000" fill-rule="nonzero" fill-opacity="1" /><path clip-path="url(#clip250)" d="M1210.97 41.1664 L1210.97 44.2914 L1181.6 44.2914 Q1182.02 50.8886 1185.56 54.3608 Q1189.13 57.7983 1195.49 57.7983 Q1199.17 57.7983 1202.61 56.8955 Q1206.08 55.9928 1209.48 54.1872 L1209.48 60.2288 Q1206.04 61.6872 1202.43 62.4511 Q1198.82 63.2149 1195.11 63.2149 Q1185.8 63.2149 1180.35 57.7983 Q1174.93 52.3817 1174.93 43.1456 Q1174.93 33.597 1180.07 28.0068 Q1185.25 22.3818 1194 22.3818 Q1201.84 22.3818 1206.39 27.4512 Q1210.97 32.4859 1210.97 41.1664 M1204.59 39.2915 Q1204.52 34.0484 1201.63 30.9234 Q1198.79 27.7985 1194.07 27.7985 Q1188.72 27.7985 1185.49 30.8193 Q1182.29 33.8401 1181.81 39.3262 L1204.59 39.2915 Z" fill="#000000" fill-rule="nonzero" fill-opacity="1" /><path clip-path="url(#clip250)" d="M1246.25 24.4651 L1246.25 30.5068 Q1243.54 29.1179 1240.63 28.4235 Q1237.71 27.729 1234.59 27.729 Q1229.83 27.729 1227.43 29.1873 Q1225.07 30.6457 1225.07 33.5623 Q1225.07 35.7845 1226.77 37.0692 Q1228.47 38.3192 1233.61 39.4651 L1235.8 39.9512 Q1242.61 41.4095 1245.45 44.0831 Q1248.34 46.722 1248.34 51.4789 Q1248.34 56.8955 1244.03 60.0552 Q1239.76 63.2149 1232.26 63.2149 Q1229.13 63.2149 1225.73 62.5899 Q1222.36 61.9997 1218.61 60.7844 L1218.61 54.1872 Q1222.16 56.0275 1225.59 56.965 Q1229.03 57.8677 1232.4 57.8677 Q1236.91 57.8677 1239.34 56.34 Q1241.77 54.7775 1241.77 51.965 Q1241.77 49.3608 1240 47.972 Q1238.27 46.5831 1232.33 45.2984 L1230.11 44.7775 Q1224.17 43.5275 1221.53 40.9581 Q1218.89 38.354 1218.89 33.8401 Q1218.89 28.354 1222.78 25.3679 Q1226.67 22.3818 1233.82 22.3818 Q1237.36 22.3818 1240.49 22.9027 Q1243.61 23.4235 1246.25 24.4651 Z" fill="#000000" fill-rule="nonzero" fill-opacity="1" /><path clip-path="url(#clip250)" d="M1264.69 56.3747 L1264.69 76.9996 L1258.27 76.9996 L1258.27 23.3193 L1264.69 23.3193 L1264.69 29.2221 Q1266.7 25.7499 1269.76 24.0832 Q1272.85 22.3818 1277.12 22.3818 Q1284.2 22.3818 1288.61 28.0068 Q1293.06 33.6318 1293.06 42.7984 Q1293.06 51.965 1288.61 57.59 Q1284.2 63.2149 1277.12 63.2149 Q1272.85 63.2149 1269.76 61.5483 Q1266.7 59.8469 1264.69 56.3747 M1286.43 42.7984 Q1286.43 35.7498 1283.51 31.7568 Q1280.63 27.729 1275.56 27.729 Q1270.49 27.729 1267.57 31.7568 Q1264.69 35.7498 1264.69 42.7984 Q1264.69 49.847 1267.57 53.8747 Q1270.49 57.8677 1275.56 57.8677 Q1280.63 57.8677 1283.51 53.8747 Q1286.43 49.847 1286.43 42.7984 Z" fill="#000000" fill-rule="nonzero" fill-opacity="1" /><path clip-path="url(#clip250)" d="M1336.91 41.1664 L1336.91 44.2914 L1307.54 44.2914 Q1307.95 50.8886 1311.49 54.3608 Q1315.07 57.7983 1321.43 57.7983 Q1325.11 57.7983 1328.54 56.8955 Q1332.02 55.9928 1335.42 54.1872 L1335.42 60.2288 Q1331.98 61.6872 1328.37 62.4511 Q1324.76 63.2149 1321.04 63.2149 Q1311.74 63.2149 1306.29 57.7983 Q1300.87 52.3817 1300.87 43.1456 Q1300.87 33.597 1306.01 28.0068 Q1311.18 22.3818 1319.93 22.3818 Q1327.78 22.3818 1332.33 27.4512 Q1336.91 32.4859 1336.91 41.1664 M1330.52 39.2915 Q1330.45 34.0484 1327.57 30.9234 Q1324.72 27.7985 1320 27.7985 Q1314.65 27.7985 1311.43 30.8193 Q1308.23 33.8401 1307.74 39.3262 L1330.52 39.2915 Z" fill="#000000" fill-rule="nonzero" fill-opacity="1" /><path clip-path="url(#clip250)" d="M1369.93 29.2915 Q1368.86 28.6665 1367.57 28.3887 Q1366.32 28.0762 1364.79 28.0762 Q1359.38 28.0762 1356.46 31.6179 Q1353.58 35.1248 1353.58 41.722 L1353.58 62.208 L1347.15 62.208 L1347.15 23.3193 L1353.58 23.3193 L1353.58 29.361 Q1355.59 25.8193 1358.82 24.1179 Q1362.05 22.3818 1366.67 22.3818 Q1367.33 22.3818 1368.13 22.486 Q1368.93 22.5554 1369.9 22.729 L1369.93 29.2915 Z" fill="#000000" fill-rule="nonzero" fill-opacity="1" /><path clip-path="url(#clip250)" d="M1394.31 42.6595 Q1386.56 42.6595 1383.58 44.4303 Q1380.59 46.2011 1380.59 50.472 Q1380.59 53.8747 1382.81 55.8886 Q1385.07 57.8677 1388.93 57.8677 Q1394.24 57.8677 1397.43 54.1178 Q1400.66 50.3331 1400.66 44.0831 L1400.66 42.6595 L1394.31 42.6595 M1407.05 40.0206 L1407.05 62.208 L1400.66 62.208 L1400.66 56.3053 Q1398.47 59.8469 1395.21 61.5483 Q1391.95 63.2149 1387.22 63.2149 Q1381.25 63.2149 1377.71 59.8816 Q1374.2 56.5136 1374.2 50.8886 Q1374.2 44.3262 1378.58 40.9928 Q1382.99 37.6595 1391.7 37.6595 L1400.66 37.6595 L1400.66 37.0345 Q1400.66 32.6248 1397.74 30.229 Q1394.86 27.7985 1389.62 27.7985 Q1386.29 27.7985 1383.13 28.5971 Q1379.97 29.3957 1377.05 30.9929 L1377.05 25.0901 Q1380.56 23.736 1383.86 23.0763 Q1387.15 22.3818 1390.28 22.3818 Q1398.72 22.3818 1402.88 26.7568 Q1407.05 31.1318 1407.05 40.0206 Z" fill="#000000" fill-rule="nonzero" fill-opacity="1" /><path clip-path="url(#clip250)" d="M1445.8 29.2221 L1445.8 8.18051 L1452.19 8.18051 L1452.19 62.208 L1445.8 62.208 L1445.8 56.3747 Q1443.79 59.8469 1440.7 61.5483 Q1437.64 63.2149 1433.33 63.2149 Q1426.29 63.2149 1421.84 57.59 Q1417.43 51.965 1417.43 42.7984 Q1417.43 33.6318 1421.84 28.0068 Q1426.29 22.3818 1433.33 22.3818 Q1437.64 22.3818 1440.7 24.0832 Q1443.79 25.7499 1445.8 29.2221 M1424.03 42.7984 Q1424.03 49.847 1426.91 53.8747 Q1429.83 57.8677 1434.9 57.8677 Q1439.97 57.8677 1442.88 53.8747 Q1445.8 49.847 1445.8 42.7984 Q1445.8 35.7498 1442.88 31.7568 Q1439.97 27.729 1434.9 27.729 Q1429.83 27.729 1426.91 31.7568 Q1424.03 35.7498 1424.03 42.7984 Z" fill="#000000" fill-rule="nonzero" fill-opacity="1" /><path clip-path="url(#clip250)" d="M1480.42 27.7985 Q1475.28 27.7985 1472.29 31.8262 Q1469.31 35.8193 1469.31 42.7984 Q1469.31 49.7775 1472.26 53.8053 Q1475.24 57.7983 1480.42 57.7983 Q1485.52 57.7983 1488.51 53.7705 Q1491.49 49.7428 1491.49 42.7984 Q1491.49 35.8887 1488.51 31.8609 Q1485.52 27.7985 1480.42 27.7985 M1480.42 22.3818 Q1488.75 22.3818 1493.51 27.7985 Q1498.26 33.2151 1498.26 42.7984 Q1498.26 52.3469 1493.51 57.7983 Q1488.75 63.2149 1480.42 63.2149 Q1472.05 63.2149 1467.29 57.7983 Q1462.57 52.3469 1462.57 42.7984 Q1462.57 33.2151 1467.29 27.7985 Q1472.05 22.3818 1480.42 22.3818 Z" fill="#000000" fill-rule="nonzero" fill-opacity="1" /><path clip-path="url(#clip250)" d="M1564.72 41.1664 L1564.72 44.2914 L1535.35 44.2914 Q1535.76 50.8886 1539.31 54.3608 Q1542.88 57.7983 1549.24 57.7983 Q1552.92 57.7983 1556.35 56.8955 Q1559.83 55.9928 1563.23 54.1872 L1563.23 60.2288 Q1559.79 61.6872 1556.18 62.4511 Q1552.57 63.2149 1548.85 63.2149 Q1539.55 63.2149 1534.1 57.7983 Q1528.68 52.3817 1528.68 43.1456 Q1528.68 33.597 1533.82 28.0068 Q1538.99 22.3818 1547.74 22.3818 Q1555.59 22.3818 1560.14 27.4512 Q1564.72 32.4859 1564.72 41.1664 M1558.33 39.2915 Q1558.26 34.0484 1555.38 30.9234 Q1552.54 27.7985 1547.81 27.7985 Q1542.47 27.7985 1539.24 30.8193 Q1536.04 33.8401 1535.56 39.3262 L1558.33 39.2915 Z" fill="#000000" fill-rule="nonzero" fill-opacity="1" /><path clip-path="url(#clip250)" d="M1597.81 23.3193 L1604.2 23.3193 L1604.2 62.208 L1597.81 62.208 L1597.81 23.3193 M1597.81 8.18051 L1604.2 8.18051 L1604.2 16.2707 L1597.81 16.2707 L1597.81 8.18051 Z" fill="#000000" fill-rule="nonzero" fill-opacity="1" /><path clip-path="url(#clip250)" d="M1649.9 38.7359 L1649.9 62.208 L1643.51 62.208 L1643.51 38.9442 Q1643.51 33.4234 1641.35 30.6804 Q1639.2 27.9374 1634.9 27.9374 Q1629.72 27.9374 1626.74 31.2359 Q1623.75 34.5345 1623.75 40.229 L1623.75 62.208 L1617.33 62.208 L1617.33 23.3193 L1623.75 23.3193 L1623.75 29.361 Q1626.04 25.854 1629.13 24.1179 Q1632.26 22.3818 1636.32 22.3818 Q1643.02 22.3818 1646.46 26.5485 Q1649.9 30.6804 1649.9 38.7359 Z" fill="#000000" fill-rule="nonzero" fill-opacity="1" /><path clip-path="url(#clip250)" d="M1668.96 12.2777 L1668.96 23.3193 L1682.12 23.3193 L1682.12 28.2846 L1668.96 28.2846 L1668.96 49.3956 Q1668.96 54.1525 1670.24 55.5066 Q1671.56 56.8608 1675.56 56.8608 L1682.12 56.8608 L1682.12 62.208 L1675.56 62.208 Q1668.16 62.208 1665.35 59.465 Q1662.53 56.6872 1662.53 49.3956 L1662.53 28.2846 L1657.85 28.2846 L1657.85 23.3193 L1662.53 23.3193 L1662.53 12.2777 L1668.96 12.2777 Z" fill="#000000" fill-rule="nonzero" fill-opacity="1" /><path clip-path="url(#clip250)" d="M1723.78 41.1664 L1723.78 44.2914 L1694.41 44.2914 Q1694.83 50.8886 1698.37 54.3608 Q1701.94 57.7983 1708.3 57.7983 Q1711.98 57.7983 1715.42 56.8955 Q1718.89 55.9928 1722.29 54.1872 L1722.29 60.2288 Q1718.85 61.6872 1715.24 62.4511 Q1711.63 63.2149 1707.92 63.2149 Q1698.61 63.2149 1693.16 57.7983 Q1687.74 52.3817 1687.74 43.1456 Q1687.74 33.597 1692.88 28.0068 Q1698.06 22.3818 1706.81 22.3818 Q1714.65 22.3818 1719.2 27.4512 Q1723.78 32.4859 1723.78 41.1664 M1717.4 39.2915 Q1717.33 34.0484 1714.44 30.9234 Q1711.6 27.7985 1706.87 27.7985 Q1701.53 27.7985 1698.3 30.8193 Q1695.1 33.8401 1694.62 39.3262 L1717.4 39.2915 Z" fill="#000000" fill-rule="nonzero" fill-opacity="1" /><path clip-path="url(#clip250)" d="M1756.81 29.2915 Q1755.73 28.6665 1754.44 28.3887 Q1753.19 28.0762 1751.67 28.0762 Q1746.25 28.0762 1743.33 31.6179 Q1740.45 35.1248 1740.45 41.722 L1740.45 62.208 L1734.03 62.208 L1734.03 23.3193 L1740.45 23.3193 L1740.45 29.361 Q1742.46 25.8193 1745.69 24.1179 Q1748.92 22.3818 1753.54 22.3818 Q1754.2 22.3818 1755 22.486 Q1755.8 22.5554 1756.77 22.729 L1756.81 29.2915 Z" fill="#000000" fill-rule="nonzero" fill-opacity="1" /><path clip-path="url(#clip250)" d="M1758.92 23.3193 L1765.69 23.3193 L1777.85 55.958 L1790 23.3193 L1796.77 23.3193 L1782.19 62.208 L1773.51 62.208 L1758.92 23.3193 Z" fill="#000000" fill-rule="nonzero" fill-opacity="1" /><path clip-path="url(#clip250)" d="M1823.26 42.6595 Q1815.52 42.6595 1812.53 44.4303 Q1809.55 46.2011 1809.55 50.472 Q1809.55 53.8747 1811.77 55.8886 Q1814.03 57.8677 1817.88 57.8677 Q1823.19 57.8677 1826.39 54.1178 Q1829.62 50.3331 1829.62 44.0831 L1829.62 42.6595 L1823.26 42.6595 M1836.01 40.0206 L1836.01 62.208 L1829.62 62.208 L1829.62 56.3053 Q1827.43 59.8469 1824.17 61.5483 Q1820.9 63.2149 1816.18 63.2149 Q1810.21 63.2149 1806.67 59.8816 Q1803.16 56.5136 1803.16 50.8886 Q1803.16 44.3262 1807.53 40.9928 Q1811.94 37.6595 1820.66 37.6595 L1829.62 37.6595 L1829.62 37.0345 Q1829.62 32.6248 1826.7 30.229 Q1823.82 27.7985 1818.58 27.7985 Q1815.24 27.7985 1812.08 28.5971 Q1808.92 29.3957 1806.01 30.9929 L1806.01 25.0901 Q1809.51 23.736 1812.81 23.0763 Q1816.11 22.3818 1819.24 22.3818 Q1827.67 22.3818 1831.84 26.7568 Q1836.01 31.1318 1836.01 40.0206 Z" fill="#000000" fill-rule="nonzero" fill-opacity="1" /><path clip-path="url(#clip250)" d="M1849.17 8.18051 L1855.55 8.18051 L1855.55 62.208 L1849.17 62.208 L1849.17 8.18051 Z" fill="#000000" fill-rule="nonzero" fill-opacity="1" /><path clip-path="url(#clip250)" d="M1883.99 27.7985 Q1878.85 27.7985 1875.87 31.8262 Q1872.88 35.8193 1872.88 42.7984 Q1872.88 49.7775 1875.83 53.8053 Q1878.82 57.7983 1883.99 57.7983 Q1889.1 57.7983 1892.08 53.7705 Q1895.07 49.7428 1895.07 42.7984 Q1895.07 35.8887 1892.08 31.8609 Q1889.1 27.7985 1883.99 27.7985 M1883.99 22.3818 Q1892.33 22.3818 1897.08 27.7985 Q1901.84 33.2151 1901.84 42.7984 Q1901.84 52.3469 1897.08 57.7983 Q1892.33 63.2149 1883.99 63.2149 Q1875.62 63.2149 1870.87 57.7983 Q1866.14 52.3469 1866.14 42.7984 Q1866.14 33.2151 1870.87 27.7985 Q1875.62 22.3818 1883.99 22.3818 Z" fill="#000000" fill-rule="nonzero" fill-opacity="1" /><path clip-path="url(#clip250)" d="M1937.22 24.4651 L1937.22 30.5068 Q1934.51 29.1179 1931.6 28.4235 Q1928.68 27.729 1925.55 27.729 Q1920.8 27.729 1918.4 29.1873 Q1916.04 30.6457 1916.04 33.5623 Q1916.04 35.7845 1917.74 37.0692 Q1919.44 38.3192 1924.58 39.4651 L1926.77 39.9512 Q1933.57 41.4095 1936.42 44.0831 Q1939.3 46.722 1939.3 51.4789 Q1939.3 56.8955 1935 60.0552 Q1930.73 63.2149 1923.23 63.2149 Q1920.1 63.2149 1916.7 62.5899 Q1913.33 61.9997 1909.58 60.7844 L1909.58 54.1872 Q1913.12 56.0275 1916.56 56.965 Q1920 57.8677 1923.37 57.8677 Q1927.88 57.8677 1930.31 56.34 Q1932.74 54.7775 1932.74 51.965 Q1932.74 49.3608 1930.97 47.972 Q1929.23 46.5831 1923.3 45.2984 L1921.08 44.7775 Q1915.14 43.5275 1912.5 40.9581 Q1909.86 38.354 1909.86 33.8401 Q1909.86 28.354 1913.75 25.3679 Q1917.64 22.3818 1924.79 22.3818 Q1928.33 22.3818 1931.46 22.9027 Q1934.58 23.4235 1937.22 24.4651 Z" fill="#000000" fill-rule="nonzero" fill-opacity="1" /><path clip-path="url(#clip250)" d="M1997.67 29.2221 L1997.67 8.18051 L2004.06 8.18051 L2004.06 62.208 L1997.67 62.208 L1997.67 56.3747 Q1995.66 59.8469 1992.57 61.5483 Q1989.51 63.2149 1985.21 63.2149 Q1978.16 63.2149 1973.71 57.59 Q1969.3 51.965 1969.3 42.7984 Q1969.3 33.6318 1973.71 28.0068 Q1978.16 22.3818 1985.21 22.3818 Q1989.51 22.3818 1992.57 24.0832 Q1995.66 25.7499 1997.67 29.2221 M1975.9 42.7984 Q1975.9 49.847 1978.78 53.8747 Q1981.7 57.8677 1986.77 57.8677 Q1991.84 57.8677 1994.76 53.8747 Q1997.67 49.847 1997.67 42.7984 Q1997.67 35.7498 1994.76 31.7568 Q1991.84 27.729 1986.77 27.729 Q1981.7 27.729 1978.78 31.7568 Q1975.9 35.7498 1975.9 42.7984 Z" fill="#000000" fill-rule="nonzero" fill-opacity="1" /><path clip-path="url(#clip250)" d="M2050.48 41.1664 L2050.48 44.2914 L2021.11 44.2914 Q2021.53 50.8886 2025.07 54.3608 Q2028.64 57.7983 2035 57.7983 Q2038.68 57.7983 2042.12 56.8955 Q2045.59 55.9928 2048.99 54.1872 L2048.99 60.2288 Q2045.55 61.6872 2041.94 62.4511 Q2038.33 63.2149 2034.62 63.2149 Q2025.31 63.2149 2019.86 57.7983 Q2014.44 52.3817 2014.44 43.1456 Q2014.44 33.597 2019.58 28.0068 Q2024.76 22.3818 2033.5 22.3818 Q2041.35 22.3818 2045.9 27.4512 Q2050.48 32.4859 2050.48 41.1664 M2044.1 39.2915 Q2044.03 34.0484 2041.14 30.9234 Q2038.3 27.7985 2033.57 27.7985 Q2028.23 27.7985 2025 30.8193 Q2021.8 33.8401 2021.32 39.3262 L2044.1 39.2915 Z" fill="#000000" fill-rule="nonzero" fill-opacity="1" /><path clip-path="url(#clip250)" d="M2111.56 24.8124 L2111.56 30.7846 Q2108.85 29.2915 2106.11 28.5623 Q2103.4 27.7985 2100.62 27.7985 Q2094.41 27.7985 2090.97 31.7568 Q2087.53 35.6804 2087.53 42.7984 Q2087.53 49.9164 2090.97 53.8747 Q2094.41 57.7983 2100.62 57.7983 Q2103.4 57.7983 2106.11 57.0691 Q2108.85 56.3053 2111.56 54.8122 L2111.56 60.715 Q2108.89 61.9649 2106 62.5899 Q2103.16 63.2149 2099.93 63.2149 Q2091.14 63.2149 2085.97 57.6941 Q2080.8 52.1733 2080.8 42.7984 Q2080.8 33.2845 2086 27.8332 Q2091.25 22.3818 2100.34 22.3818 Q2103.3 22.3818 2106.11 23.0068 Q2108.92 23.5971 2111.56 24.8124 Z" fill="#000000" fill-rule="nonzero" fill-opacity="1" /><path clip-path="url(#clip250)" d="M2137.74 27.7985 Q2132.6 27.7985 2129.62 31.8262 Q2126.63 35.8193 2126.63 42.7984 Q2126.63 49.7775 2129.58 53.8053 Q2132.57 57.7983 2137.74 57.7983 Q2142.84 57.7983 2145.83 53.7705 Q2148.82 49.7428 2148.82 42.7984 Q2148.82 35.8887 2145.83 31.8609 Q2142.84 27.7985 2137.74 27.7985 M2137.74 22.3818 Q2146.07 22.3818 2150.83 27.7985 Q2155.59 33.2151 2155.59 42.7984 Q2155.59 52.3469 2150.83 57.7983 Q2146.07 63.2149 2137.74 63.2149 Q2129.37 63.2149 2124.62 57.7983 Q2119.89 52.3469 2119.89 42.7984 Q2119.89 33.2151 2124.62 27.7985 Q2129.37 22.3818 2137.74 22.3818 Z" fill="#000000" fill-rule="nonzero" fill-opacity="1" /><path clip-path="url(#clip250)" d="M2198.5 38.7359 L2198.5 62.208 L2192.12 62.208 L2192.12 38.9442 Q2192.12 33.4234 2189.96 30.6804 Q2187.81 27.9374 2183.5 27.9374 Q2178.33 27.9374 2175.34 31.2359 Q2172.36 34.5345 2172.36 40.229 L2172.36 62.208 L2165.93 62.208 L2165.93 23.3193 L2172.36 23.3193 L2172.36 29.361 Q2174.65 25.854 2177.74 24.1179 Q2180.87 22.3818 2184.93 22.3818 Q2191.63 22.3818 2195.07 26.5485 Q2198.5 30.6804 2198.5 38.7359 Z" fill="#000000" fill-rule="nonzero" fill-opacity="1" /><path clip-path="url(#clip250)" d="M2230.93 8.18051 L2230.93 13.493 L2224.82 13.493 Q2221.39 13.493 2220.03 14.8819 Q2218.71 16.2707 2218.71 19.8818 L2218.71 23.3193 L2229.23 23.3193 L2229.23 28.2846 L2218.71 28.2846 L2218.71 62.208 L2212.29 62.208 L2212.29 28.2846 L2206.18 28.2846 L2206.18 23.3193 L2212.29 23.3193 L2212.29 20.611 Q2212.29 14.118 2215.31 11.1666 Q2218.33 8.18051 2224.89 8.18051 L2230.93 8.18051 Z" fill="#000000" fill-rule="nonzero" fill-opacity="1" /><path clip-path="url(#clip250)" d="M2236.28 23.3193 L2242.67 23.3193 L2242.67 62.208 L2236.28 62.208 L2236.28 23.3193 M2236.28 8.18051 L2242.67 8.18051 L2242.67 16.2707 L2236.28 16.2707 L2236.28 8.18051 Z" fill="#000000" fill-rule="nonzero" fill-opacity="1" /><path clip-path="url(#clip250)" d="M2273.71 42.6595 Q2265.97 42.6595 2262.98 44.4303 Q2260 46.2011 2260 50.472 Q2260 53.8747 2262.22 55.8886 Q2264.48 57.8677 2268.33 57.8677 Q2273.64 57.8677 2276.84 54.1178 Q2280.07 50.3331 2280.07 44.0831 L2280.07 42.6595 L2273.71 42.6595 M2286.45 40.0206 L2286.45 62.208 L2280.07 62.208 L2280.07 56.3053 Q2277.88 59.8469 2274.61 61.5483 Q2271.35 63.2149 2266.63 63.2149 Q2260.66 63.2149 2257.11 59.8816 Q2253.61 56.5136 2253.61 50.8886 Q2253.61 44.3262 2257.98 40.9928 Q2262.39 37.6595 2271.11 37.6595 L2280.07 37.6595 L2280.07 37.0345 Q2280.07 32.6248 2277.15 30.229 Q2274.27 27.7985 2269.02 27.7985 Q2265.69 27.7985 2262.53 28.5971 Q2259.37 29.3957 2256.46 30.9929 L2256.46 25.0901 Q2259.96 23.736 2263.26 23.0763 Q2266.56 22.3818 2269.68 22.3818 Q2278.12 22.3818 2282.29 26.7568 Q2286.45 31.1318 2286.45 40.0206 Z" fill="#000000" fill-rule="nonzero" fill-opacity="1" /><path clip-path="url(#clip250)" d="M2331.94 38.7359 L2331.94 62.208 L2325.55 62.208 L2325.55 38.9442 Q2325.55 33.4234 2323.4 30.6804 Q2321.25 27.9374 2316.94 27.9374 Q2311.77 27.9374 2308.78 31.2359 Q2305.8 34.5345 2305.8 40.229 L2305.8 62.208 L2299.37 62.208 L2299.37 23.3193 L2305.8 23.3193 L2305.8 29.361 Q2308.09 25.854 2311.18 24.1179 Q2314.3 22.3818 2318.36 22.3818 Q2325.07 22.3818 2328.5 26.5485 Q2331.94 30.6804 2331.94 38.7359 Z" fill="#000000" fill-rule="nonzero" fill-opacity="1" /><path clip-path="url(#clip250)" d="M2372.67 24.8124 L2372.67 30.7846 Q2369.96 29.2915 2367.22 28.5623 Q2364.51 27.7985 2361.73 27.7985 Q2355.52 27.7985 2352.08 31.7568 Q2348.64 35.6804 2348.64 42.7984 Q2348.64 49.9164 2352.08 53.8747 Q2355.52 57.7983 2361.73 57.7983 Q2364.51 57.7983 2367.22 57.0691 Q2369.96 56.3053 2372.67 54.8122 L2372.67 60.715 Q2370 61.9649 2367.11 62.5899 Q2364.27 63.2149 2361.04 63.2149 Q2352.25 63.2149 2347.08 57.6941 Q2341.91 52.1733 2341.91 42.7984 Q2341.91 33.2845 2347.11 27.8332 Q2352.36 22.3818 2361.45 22.3818 Q2364.41 22.3818 2367.22 23.0068 Q2370.03 23.5971 2372.67 24.8124 M2363.64 62.208 Q2365.55 64.3608 2366.49 66.1663 Q2367.43 68.0066 2367.43 69.6732 Q2367.43 72.7635 2365.34 74.326 Q2363.26 75.9232 2359.16 75.9232 Q2357.57 75.9232 2356.04 75.7149 Q2354.54 75.5065 2353.05 75.0899 L2353.05 70.5413 Q2354.23 71.1316 2355.52 71.3746 Q2356.8 71.6524 2358.43 71.6524 Q2360.48 71.6524 2361.52 70.8191 Q2362.57 69.9857 2362.57 68.3885 Q2362.57 67.3469 2361.8 65.8191 Q2361.07 64.326 2359.51 62.208 L2363.64 62.208 Z" fill="#000000" fill-rule="nonzero" fill-opacity="1" /><path clip-path="url(#clip250)" d="M2401.45 42.6595 Q2393.71 42.6595 2390.73 44.4303 Q2387.74 46.2011 2387.74 50.472 Q2387.74 53.8747 2389.96 55.8886 Q2392.22 57.8677 2396.07 57.8677 Q2401.38 57.8677 2404.58 54.1178 Q2407.81 50.3331 2407.81 44.0831 L2407.81 42.6595 L2401.45 42.6595 M2414.2 40.0206 L2414.2 62.208 L2407.81 62.208 L2407.81 56.3053 Q2405.62 59.8469 2402.36 61.5483 Q2399.09 63.2149 2394.37 63.2149 Q2388.4 63.2149 2384.86 59.8816 Q2381.35 56.5136 2381.35 50.8886 Q2381.35 44.3262 2385.73 40.9928 Q2390.13 37.6595 2398.85 37.6595 L2407.81 37.6595 L2407.81 37.0345 Q2407.81 32.6248 2404.89 30.229 Q2402.01 27.7985 2396.77 27.7985 Q2393.43 27.7985 2390.27 28.5971 Q2387.11 29.3957 2384.2 30.9929 L2384.2 25.0901 Q2387.7 23.736 2391 23.0763 Q2394.3 22.3818 2397.43 22.3818 Q2405.86 22.3818 2410.03 26.7568 Q2414.2 31.1318 2414.2 40.0206 Z" fill="#000000" fill-rule="nonzero" fill-opacity="1" /><path clip-path="url(#clip252)" d="M316.418 2145.95 L330.256 2125.5 L344.094 2103.92 L357.932 2081.18 L371.769 2057.25 L385.607 2032.12 L399.445 2005.88 L413.283 1978.48 L427.121 1949.86 L440.958 1920.03 L454.796 1889 L468.634 1856.78 L482.472 1823.4 L496.31 1788.9 L510.148 1753.33 L523.985 1716.74 L537.823 1679.22 L551.661 1640.81 L565.499 1601.63 L579.337 1562.03 L593.174 1521.84 L607.012 1481.18 L620.85 1439.81 L634.688 1398.41 L648.526 1357.36 L662.364 1315.87 L676.201 1274.49 L690.039 1233.33 L703.877 1192.36 L717.715 1151.58 L731.553 1111.35 L745.39 1071.73 L759.228 1032.73 L773.066 994.36 L786.904 956.758 L800.742 920.037 L814.58 884.318 L828.417 849.668 L842.255 816.128 L856.093 783.728 L869.931 752.495 L883.769 722.45 L897.606 693.607 L911.444 665.983 L925.282 640.25 L939.12 615.294 L952.958 591.819 L966.796 569.57 L980.633 548.547 L994.471 529.038 L1008.31 511.047 L1022.15 494.454 L1035.98 478.554 L1049.82 462.876 L1063.66 448.97 L1077.5 435.445 L1091.34 422.625 L1105.17 410.754 L1119.01 400.378 L1132.85 389.952 L1146.69 379.734 L1160.53 370.53 L1174.36 362.966 L1188.2 356.275 L1202.04 350.381 L1215.88 344.606 L1229.71 337.959 L1243.55 331.523 L1257.39 325.761 L1271.23 320.694 L1285.07 316.307 L1298.9 312.223 L1312.74 308.423 L1326.58 304.906 L1340.42 301.63 L1354.25 298.55 L1368.09 295.556 L1381.93 292.762 L1395.77 290.244 L1409.61 288.115 L1423.44 286.154 L1437.28 284.267 L1451.12 282.409 L1464.96 280.69 L1478.79 279.032 L1492.63 277.502 L1506.47 276.098 L1520.31 274.803 L1534.15 273.605 L1547.98 272.496 L1561.82 271.464 L1575.66 270.463 L1589.5 269.578 L1603.34 268.749 L1617.17 267.976 L1631.01 267.255 L1644.85 266.585 L1658.69 265.973 L1672.52 265.413 L1686.36 264.894 L1700.2 264.413 L1714.04 263.967 L1727.88 263.555 L1741.71 263.171 L1755.55 262.776 L1769.39 262.41 L1783.23 262.071 L1797.06 261.756 L1810.9 261.462 L1824.74 261.188 L1838.58 260.932 L1852.42 260.692 L1866.25 260.468 L1880.09 260.258 L1893.93 260.064 L1907.77 259.883 L1921.61 259.716 L1935.44 259.562 L1949.28 259.422 L1963.12 259.3 L1976.96 259.189 L1990.79 259.088 L2004.63 258.995 L2018.47 258.911 L2032.31 258.834 L2046.15 258.764 L2059.98 258.699 L2073.82 258.638 L2087.66 258.581 L2101.5 258.528 L2115.33 258.477 L2129.17 258.429 L2143.01 258.383 L2156.85 258.339 L2170.69 258.297 L2184.52 258.257 L2198.36 258.221 L2212.2 258.186 L2226.04 258.154 L2239.87 258.125 L2253.71 258.098 L2267.55 258.073 L2281.39 258.051 L2295.23 258.03 L2309.06 258.012 L2322.9 257.995 L2336.74 257.98 L2350.58 257.966 L2364.42 257.954 L2378.25 257.942 L2392.09 257.932 L2405.93 257.922 L2419.77 257.912 L2433.6 257.903 L2447.44 257.895 L2461.28 257.886 L2475.12 257.878 L2488.96 257.871 L2502.79 257.863 L2516.63 257.855 L2530.47 257.848 L2544.31 257.841 L2558.14 257.834 L2571.98 257.828 L2585.82 257.822 L2599.66 257.816 L2613.5 257.811 L2627.33 257.807 L2641.17 257.803 L2655.01 257.8 L2668.85 257.797 L2682.69 257.795 L2696.52 257.793 L2710.36 257.792 L2724.2 257.791 L2738.04 257.79 L2751.87 257.79 L2765.71 257.79 L2779.55 257.79 L2793.39 257.79 L2807.23 257.791 L2821.06 257.791 L2834.9 257.792 L2848.74 257.792 L2862.58 257.792 L2876.41 257.792 L2890.25 257.792 L2904.09 257.792 L2917.93 257.791 L2931.77 257.791 L2945.6 257.791 L2959.44 257.79 L2973.28 257.789 L2987.12 257.788 L3000.96 257.787 L3014.79 257.786 L3028.63 257.785 L3042.47 257.784 L3056.31 257.783 L3070.14 257.782 L3070.14 180.282 L3056.31 180.283 L3042.47 180.284 L3028.63 180.285 L3014.79 180.286 L3000.96 180.287 L2987.12 180.288 L2973.28 180.289 L2959.44 180.289 L2945.6 180.29 L2931.77 180.29 L2917.93 180.291 L2904.09 180.291 L2890.25 180.291 L2876.41 180.291 L2862.58 180.292 L2848.74 180.292 L2834.9 180.293 L2821.06 180.293 L2807.23 180.292 L2793.39 180.292 L2779.55 180.292 L2765.71 180.292 L2751.87 180.292 L2738.04 180.292 L2724.2 180.293 L2710.36 180.294 L2696.52 180.295 L2682.69 180.297 L2668.85 180.299 L2655.01 180.302 L2641.17 180.305 L2627.33 180.309 L2613.5 180.313 L2599.66 180.318 L2585.82 180.324 L2571.98 180.33 L2558.14 180.336 L2544.31 180.343 L2530.47 180.351 L2516.63 180.358 L2502.79 180.366 L2488.96 180.375 L2475.12 180.383 L2461.28 180.392 L2447.44 180.401 L2433.6 180.41 L2419.77 180.42 L2405.93 180.43 L2392.09 180.441 L2378.25 180.452 L2364.42 180.464 L2350.58 180.477 L2336.74 180.491 L2322.9 180.506 L2309.06 180.523 L2295.23 180.542 L2281.39 180.563 L2267.55 180.586 L2253.71 180.612 L2239.87 180.64 L2226.04 180.67 L2212.2 180.703 L2198.36 180.739 L2184.52 180.778 L2170.69 180.819 L2156.85 180.864 L2143.01 180.91 L2129.17 180.958 L2115.33 181.01 L2101.5 181.064 L2087.66 181.122 L2073.82 181.184 L2059.98 181.25 L2046.15 181.32 L2032.31 181.395 L2018.47 181.477 L2004.63 181.566 L1990.79 181.663 L1976.96 181.77 L1963.12 181.886 L1949.28 182.014 L1935.44 182.153 L1921.61 182.305 L1907.77 182.469 L1893.93 182.648 L1880.09 182.841 L1866.25 183.048 L1852.42 183.272 L1838.58 183.511 L1824.74 183.767 L1810.9 184.042 L1797.06 184.336 L1783.23 184.652 L1769.39 184.99 L1755.55 185.354 L1741.71 185.746 L1727.88 186.169 L1714.04 186.626 L1700.2 187.119 L1686.36 187.653 L1672.52 188.188 L1658.69 188.764 L1644.85 189.384 L1631.01 190.052 L1617.17 190.772 L1603.34 191.548 L1589.5 192.385 L1575.66 193.268 L1561.82 194.209 L1547.98 195.325 L1534.15 196.576 L1520.31 197.914 L1506.47 199.318 L1492.63 200.792 L1478.79 202.363 L1464.96 203.993 L1451.12 205.708 L1437.28 207.506 L1423.44 209.758 L1409.61 211.931 L1395.77 214.045 L1381.93 216.273 L1368.09 218.659 L1354.25 221.331 L1340.42 224.2 L1326.58 227.276 L1312.74 230.578 L1298.9 234.124 L1285.07 237.935 L1271.23 242.033 L1257.39 246.438 L1243.55 251.665 L1229.71 257.646 L1215.88 263.917 L1202.04 270.154 L1188.2 276.432 L1174.36 283.16 L1160.53 290.364 L1146.69 298.064 L1132.85 306.289 L1119.01 315.081 L1105.17 324.448 L1091.34 334.046 L1077.5 344.277 L1063.66 354.369 L1049.82 365.058 L1035.98 377.554 L1022.15 390.054 L1008.31 404.625 L994.471 419.83 L980.633 434.803 L966.796 450.727 L952.958 467.621 L939.12 485.343 L925.282 503.802 L911.444 523.329 L897.606 544.019 L883.769 566.784 L869.931 590.264 L856.093 614.327 L842.255 640.052 L828.417 667.4 L814.58 695.094 L800.742 723.998 L786.904 754.576 L773.066 786.801 L759.228 819.718 L745.39 853.386 L731.553 888.163 L717.715 923.994 L703.877 961.316 L690.039 999.58 L676.201 1038.42 L662.364 1077.25 L648.526 1116.71 L634.688 1157.26 L620.85 1198.73 L607.012 1240.21 L593.174 1281.8 L579.337 1323.55 L565.499 1365.3 L551.661 1406.97 L537.823 1448.33 L523.985 1489.27 L510.148 1529.82 L496.31 1570.16 L482.472 1609.9 L468.634 1648.91 L454.796 1687.1 L440.958 1724.48 L427.121 1760.75 L413.283 1795.99 L399.445 1830.16 L385.607 1863.2 L371.769 1895.1 L357.932 1925.81 L344.094 1955.33 L330.256 1983.72 L316.418 2010.92  Z" fill="#009af9" fill-rule="evenodd" fill-opacity="0.2"/>
<polyline clip-path="url(#clip252)" style="stroke:#009af9; stroke-linecap:round; stroke-linejoin:round; stroke-width:12; stroke-opacity:1; fill:none" points="316.418,2080.43 330.256,2056.58 344.094,2031.54 357.932,2005.29 371.769,1977.82 385.607,1949.14 399.445,1919.24 413.283,1888.13 427.121,1855.84 440.958,1822.17 454.796,1787.28 468.634,1751.28 482.472,1714.26 496.31,1676.63 510.148,1638.13 523.985,1598.83 537.823,1558.83 551.661,1518.33 565.499,1477.52 579.337,1436.44 593.174,1394.75 607.012,1352.71 620.85,1310.51 634.688,1268.21 648.526,1226.13 662.364,1184.51 676.201,1143.31 690.039,1102.64 703.877,1062.35 717.715,1023.77 731.553,985.11 745.39,946.717 759.228,909.285 773.066,872.816 786.904,838.161 800.742,804.167 814.58,771.432 828.417,740.689 842.255,711.135 856.093,682.775 869.931,655.674 883.769,629.506 897.606,604.864 911.444,582.823 925.282,560.002 939.12,539.305 952.958,519.868 966.796,501.691 980.633,483.28 994.471,466.488 1008.31,450.632 1022.15,434.727 1035.98,420.59 1049.82,406.808 1063.66,394.241 1077.5,382.349 1091.34,371.649 1105.17,361.489 1119.01,352.08 1132.85,342.797 1146.69,334.404 1160.53,326.358 1174.36,318.576 1188.2,311.481 1202.04,305.166 1215.88,298.966 1229.71,293.431 1243.55,287.432 1257.39,282.826 1271.23,278.088 1285.07,273.543 1298.9,269.675 1312.74,265.66 1326.58,262.371 1340.42,259.188 1354.25,255.943 1368.09,252.809 1381.93,250.237 1395.77,247.777 1409.61,245.735 1423.44,243.869 1437.28,242.05 1451.12,240.338 1464.96,238.822 1478.79,237.099 1492.63,235.549 1506.47,234.279 1520.31,233.182 1534.15,232.147 1547.98,231.111 1561.82,230.22 1575.66,229.231 1589.5,228.267 1603.34,227.371 1617.17,226.577 1631.01,225.855 1644.85,225.186 1658.69,224.568 1672.52,224.063 1686.36,223.594 1700.2,223.16 1714.04,222.759 1727.88,222.387 1741.71,222.044 1755.55,221.727 1769.39,221.434 1783.23,221.163 1797.06,220.912 1810.9,220.678 1824.74,220.461 1838.58,220.259 1852.42,220.071 1866.25,219.897 1880.09,219.735 1893.93,219.584 1907.77,219.443 1921.61,219.311 1935.44,219.189 1949.28,219.076 1963.12,218.972 1976.96,218.866 1990.79,218.759 2004.63,218.662 2018.47,218.574 2032.31,218.493 2046.15,218.419 2059.98,218.35 2073.82,218.287 2087.66,218.227 2101.5,218.169 2115.33,218.114 2129.17,218.06 2143.01,218.009 2156.85,217.961 2170.69,217.915 2184.52,217.873 2198.36,217.834 2212.2,217.798 2226.04,217.764 2239.87,217.733 2253.71,217.705 2267.55,217.679 2281.39,217.656 2295.23,217.635 2309.06,217.616 2322.9,217.599 2336.74,217.584 2350.58,217.57 2364.42,217.558 2378.25,217.547 2392.09,217.536 2405.93,217.527 2419.77,217.517 2433.6,217.508 2447.44,217.499 2461.28,217.489 2475.12,217.48 2488.96,217.471 2502.79,217.462 2516.63,217.453 2530.47,217.445 2544.31,217.438 2558.14,217.431 2571.98,217.425 2585.82,217.419 2599.66,217.414 2613.5,217.409 2627.33,217.404 2641.17,217.4 2655.01,217.396 2668.85,217.393 2682.69,217.391 2696.52,217.389 2710.36,217.387 2724.2,217.386 2738.04,217.385 2751.87,217.386 2765.71,217.386 2779.55,217.387 2793.39,217.388 2807.23,217.389 2821.06,217.39 2834.9,217.39 2848.74,217.391 2862.58,217.391 2876.41,217.391 2890.25,217.391 2904.09,217.39 2917.93,217.389 2931.77,217.389 2945.6,217.388 2959.44,217.387 2973.28,217.386 2987.12,217.385 3000.96,217.384 3014.79,217.383 3028.63,217.382 3042.47,217.381 3056.31,217.38 3070.14,217.38 "/>
<path clip-path="url(#clip252)" d="M316.418 2128.14 L330.256 2106.74 L344.094 2084.19 L357.932 2060.46 L371.769 2035.53 L385.607 2009.4 L399.445 1982.03 L413.283 1953.44 L427.121 1923.62 L440.958 1892.58 L454.796 1860.4 L468.634 1827.26 L482.472 1793 L496.31 1757.68 L510.148 1721.26 L523.985 1683.72 L537.823 1645.21 L551.661 1605.83 L565.499 1565.72 L579.337 1524.82 L593.174 1483.71 L607.012 1442.04 L620.85 1400.38 L634.688 1358.56 L648.526 1316.56 L662.364 1274.62 L676.201 1232.8 L690.039 1191.21 L703.877 1150.02 L717.715 1108.87 L731.553 1068.17 L745.39 1028.83 L759.228 990.732 L773.066 953.195 L786.904 916.504 L800.742 881.29 L814.58 846.636 L828.417 814.44 L842.255 782.092 L856.093 751.201 L869.931 720.978 L883.769 692.571 L897.606 665.502 L911.444 639.239 L925.282 613.082 L939.12 589.093 L952.958 568.142 L966.796 545.895 L980.633 524.995 L994.471 506.635 L1008.31 489.942 L1022.15 472.342 L1035.98 457.433 L1049.82 443.041 L1063.66 428.554 L1077.5 417.342 L1091.34 404.964 L1105.17 393.916 L1119.01 383.129 L1132.85 373.185 L1146.69 363.186 L1160.53 354.018 L1174.36 346.137 L1188.2 338.74 L1202.04 332.385 L1215.88 326.599 L1229.71 320.817 L1243.55 314.839 L1257.39 309.407 L1271.23 305.297 L1285.07 300.513 L1298.9 295.891 L1312.74 291.734 L1326.58 287.978 L1340.42 284.389 L1354.25 281.195 L1368.09 278.571 L1381.93 275.735 L1395.77 273.288 L1409.61 271.505 L1423.44 269.346 L1437.28 267.421 L1451.12 265.831 L1464.96 264.433 L1478.79 263.134 L1492.63 261.929 L1506.47 260.805 L1520.31 259.712 L1534.15 258.422 L1547.98 257.164 L1561.82 255.972 L1575.66 255.131 L1589.5 254.331 L1603.34 253.652 L1617.17 252.989 L1631.01 252.305 L1644.85 251.648 L1658.69 251.038 L1672.52 250.472 L1686.36 249.948 L1700.2 249.463 L1714.04 249.014 L1727.88 248.598 L1741.71 248.213 L1755.55 247.857 L1769.39 247.525 L1783.23 247.218 L1797.06 246.931 L1810.9 246.724 L1824.74 246.535 L1838.58 246.358 L1852.42 246.191 L1866.25 246.023 L1880.09 245.866 L1893.93 245.719 L1907.77 245.583 L1921.61 245.457 L1935.44 245.34 L1949.28 245.232 L1963.12 245.133 L1976.96 245.043 L1990.79 244.959 L2004.63 244.883 L2018.47 244.814 L2032.31 244.75 L2046.15 244.691 L2059.98 244.638 L2073.82 244.588 L2087.66 244.542 L2101.5 244.499 L2115.33 244.459 L2129.17 244.421 L2143.01 244.385 L2156.85 244.35 L2170.69 244.316 L2184.52 244.285 L2198.36 244.255 L2212.2 244.227 L2226.04 244.2 L2239.87 244.176 L2253.71 244.154 L2267.55 244.133 L2281.39 244.114 L2295.23 244.097 L2309.06 244.082 L2322.9 244.068 L2336.74 244.055 L2350.58 244.044 L2364.42 244.035 L2378.25 244.026 L2392.09 244.018 L2405.93 244.011 L2419.77 244.005 L2433.6 244 L2447.44 243.995 L2461.28 243.99 L2475.12 243.986 L2488.96 243.981 L2502.79 243.977 L2516.63 243.972 L2530.47 243.967 L2544.31 243.962 L2558.14 243.957 L2571.98 243.952 L2585.82 243.947 L2599.66 243.942 L2613.5 243.937 L2627.33 243.933 L2641.17 243.929 L2655.01 243.926 L2668.85 243.923 L2682.69 243.92 L2696.52 243.918 L2710.36 243.915 L2724.2 243.914 L2738.04 243.912 L2751.87 243.911 L2765.71 243.91 L2779.55 243.91 L2793.39 243.909 L2807.23 243.909 L2821.06 243.909 L2834.9 243.909 L2848.74 243.91 L2862.58 243.91 L2876.41 243.91 L2890.25 243.911 L2904.09 243.912 L2917.93 243.912 L2931.77 243.913 L2945.6 243.913 L2959.44 243.914 L2973.28 243.914 L2987.12 243.914 L3000.96 243.913 L3014.79 243.912 L3028.63 243.911 L3042.47 243.91 L3056.31 243.91 L3070.14 243.909 L3070.14 197.054 L3056.31 197.055 L3042.47 197.056 L3028.63 197.057 L3014.79 197.057 L3000.96 197.058 L2987.12 197.059 L2973.28 197.06 L2959.44 197.062 L2945.6 197.063 L2931.77 197.064 L2917.93 197.064 L2904.09 197.065 L2890.25 197.065 L2876.41 197.064 L2862.58 197.064 L2848.74 197.063 L2834.9 197.063 L2821.06 197.062 L2807.23 197.062 L2793.39 197.061 L2779.55 197.061 L2765.71 197.06 L2751.87 197.06 L2738.04 197.061 L2724.2 197.062 L2710.36 197.063 L2696.52 197.064 L2682.69 197.066 L2668.85 197.068 L2655.01 197.071 L2641.17 197.075 L2627.33 197.079 L2613.5 197.083 L2599.66 197.088 L2585.82 197.093 L2571.98 197.099 L2558.14 197.105 L2544.31 197.111 L2530.47 197.118 L2516.63 197.125 L2502.79 197.132 L2488.96 197.14 L2475.12 197.147 L2461.28 197.154 L2447.44 197.161 L2433.6 197.167 L2419.77 197.178 L2405.93 197.188 L2392.09 197.198 L2378.25 197.209 L2364.42 197.219 L2350.58 197.231 L2336.74 197.243 L2322.9 197.257 L2309.06 197.272 L2295.23 197.288 L2281.39 197.307 L2267.55 197.328 L2253.71 197.351 L2239.87 197.377 L2226.04 197.405 L2212.2 197.436 L2198.36 197.47 L2184.52 197.508 L2170.69 197.548 L2156.85 197.591 L2143.01 197.638 L2129.17 197.688 L2115.33 197.742 L2101.5 197.799 L2087.66 197.859 L2073.82 197.922 L2059.98 197.987 L2046.15 198.055 L2032.31 198.127 L2018.47 198.205 L2004.63 198.289 L1990.79 198.38 L1976.96 198.479 L1963.12 198.589 L1949.28 198.708 L1935.44 198.839 L1921.61 198.982 L1907.77 199.139 L1893.93 199.309 L1880.09 199.494 L1866.25 199.694 L1852.42 199.91 L1838.58 200.143 L1824.74 200.393 L1810.9 200.662 L1797.06 200.948 L1783.23 201.254 L1769.39 201.581 L1755.55 201.931 L1741.71 202.308 L1727.88 202.714 L1714.04 203.152 L1700.2 203.626 L1686.36 204.139 L1672.52 204.693 L1658.69 205.293 L1644.85 205.942 L1631.01 206.642 L1617.17 207.414 L1603.34 208.251 L1589.5 209.152 L1575.66 210.121 L1561.82 211.162 L1547.98 212.274 L1534.15 213.432 L1520.31 214.61 L1506.47 215.879 L1492.63 217.249 L1478.79 218.631 L1464.96 220.113 L1451.12 221.718 L1437.28 223.613 L1423.44 225.682 L1409.61 227.797 L1395.77 230.332 L1381.93 232.885 L1368.09 235.581 L1354.25 238.511 L1340.42 241.521 L1326.58 244.788 L1312.74 247.906 L1298.9 251.627 L1285.07 255.003 L1271.23 258.841 L1257.39 262.902 L1243.55 267.484 L1229.71 273.131 L1215.88 278.092 L1202.04 283.423 L1188.2 289.485 L1174.36 295.487 L1160.53 302.253 L1146.69 309.55 L1132.85 318.076 L1119.01 326.385 L1105.17 335.26 L1091.34 344.562 L1077.5 354.923 L1063.66 365.76 L1049.82 377.308 L1035.98 390.085 L1022.15 403.245 L1008.31 416.984 L994.471 431.662 L980.633 447.222 L966.796 463.783 L952.958 481.801 L939.12 500.26 L925.282 520.547 L911.444 541.356 L897.606 562.965 L883.769 585.04 L869.931 609.077 L856.093 634.198 L842.255 660.459 L828.417 686.555 L814.58 714.919 L800.742 744.542 L786.904 774.797 L773.066 806.365 L759.228 839.842 L745.39 875.081 L731.553 910.576 L717.715 947.054 L703.877 983.504 L690.039 1022.56 L676.201 1060.49 L662.364 1099.87 L648.526 1139.93 L634.688 1180.18 L620.85 1221.06 L607.012 1262.32 L593.174 1303.8 L579.337 1345.4 L565.499 1387.55 L551.661 1429.61 L537.823 1471.4 L523.985 1512.85 L510.148 1553.85 L496.31 1594.22 L482.472 1633.88 L468.634 1672.73 L454.796 1710.65 L440.958 1747.43 L427.121 1783.19 L413.283 1817.89 L399.445 1851.47 L385.607 1883.89 L371.769 1915.14 L357.932 1945.18 L344.094 1974.11 L330.256 2001.95 L316.418 2028.55  Z" fill="#e26f46" fill-rule="evenodd" fill-opacity="0.2"/>
<polyline clip-path="url(#clip252)" style="stroke:#e26f46; stroke-linecap:round; stroke-linejoin:round; stroke-width:12; stroke-opacity:1; fill:none" points="316.418,2080.43 330.256,2056.58 344.094,2031.54 357.932,2005.29 371.769,1977.82 385.607,1949.14 399.445,1919.24 413.283,1888.13 427.121,1855.84 440.958,1822.17 454.796,1787.28 468.634,1751.28 482.472,1714.26 496.31,1676.63 510.148,1638.13 523.985,1598.83 537.823,1558.83 551.661,1518.33 565.499,1477.52 579.337,1436.44 593.174,1394.75 607.012,1352.71 620.85,1310.51 634.688,1268.21 648.526,1226.13 662.364,1184.51 676.201,1143.31 690.039,1102.64 703.877,1062.35 717.715,1023.77 731.553,985.11 745.39,946.717 759.228,909.285 773.066,872.816 786.904,838.161 800.742,804.167 814.58,771.432 828.417,740.689 842.255,711.135 856.093,682.775 869.931,655.674 883.769,629.506 897.606,604.864 911.444,582.823 925.282,560.002 939.12,539.305 952.958,519.868 966.796,501.691 980.633,483.28 994.471,466.488 1008.31,450.632 1022.15,434.727 1035.98,420.59 1049.82,406.808 1063.66,394.241 1077.5,382.349 1091.34,371.649 1105.17,361.489 1119.01,352.08 1132.85,342.797 1146.69,334.404 1160.53,326.358 1174.36,318.576 1188.2,311.481 1202.04,305.166 1215.88,298.966 1229.71,293.431 1243.55,287.432 1257.39,282.826 1271.23,278.088 1285.07,273.543 1298.9,269.675 1312.74,265.66 1326.58,262.371 1340.42,259.188 1354.25,255.943 1368.09,252.809 1381.93,250.237 1395.77,247.777 1409.61,245.735 1423.44,243.869 1437.28,242.05 1451.12,240.338 1464.96,238.822 1478.79,237.099 1492.63,235.549 1506.47,234.279 1520.31,233.182 1534.15,232.147 1547.98,231.111 1561.82,230.22 1575.66,229.231 1589.5,228.267 1603.34,227.371 1617.17,226.577 1631.01,225.855 1644.85,225.186 1658.69,224.568 1672.52,224.063 1686.36,223.594 1700.2,223.16 1714.04,222.759 1727.88,222.387 1741.71,222.044 1755.55,221.727 1769.39,221.434 1783.23,221.163 1797.06,220.912 1810.9,220.678 1824.74,220.461 1838.58,220.259 1852.42,220.071 1866.25,219.897 1880.09,219.735 1893.93,219.584 1907.77,219.443 1921.61,219.311 1935.44,219.189 1949.28,219.076 1963.12,218.972 1976.96,218.866 1990.79,218.759 2004.63,218.662 2018.47,218.574 2032.31,218.493 2046.15,218.419 2059.98,218.35 2073.82,218.287 2087.66,218.227 2101.5,218.169 2115.33,218.114 2129.17,218.06 2143.01,218.009 2156.85,217.961 2170.69,217.915 2184.52,217.873 2198.36,217.834 2212.2,217.798 2226.04,217.764 2239.87,217.733 2253.71,217.705 2267.55,217.679 2281.39,217.656 2295.23,217.635 2309.06,217.616 2322.9,217.599 2336.74,217.584 2350.58,217.57 2364.42,217.558 2378.25,217.547 2392.09,217.536 2405.93,217.527 2419.77,217.517 2433.6,217.508 2447.44,217.499 2461.28,217.489 2475.12,217.48 2488.96,217.471 2502.79,217.462 2516.63,217.453 2530.47,217.445 2544.31,217.438 2558.14,217.431 2571.98,217.425 2585.82,217.419 2599.66,217.414 2613.5,217.409 2627.33,217.404 2641.17,217.4 2655.01,217.396 2668.85,217.393 2682.69,217.391 2696.52,217.389 2710.36,217.387 2724.2,217.386 2738.04,217.385 2751.87,217.386 2765.71,217.386 2779.55,217.387 2793.39,217.388 2807.23,217.389 2821.06,217.39 2834.9,217.39 2848.74,217.391 2862.58,217.391 2876.41,217.391 2890.25,217.391 2904.09,217.39 2917.93,217.389 2931.77,217.389 2945.6,217.388 2959.44,217.387 2973.28,217.386 2987.12,217.385 3000.96,217.384 3014.79,217.383 3028.63,217.382 3042.47,217.381 3056.31,217.38 3070.14,217.38 "/>
<path clip-path="url(#clip250)" d="M2663.79 2135.47 L3055.46 2135.47 L3055.46 1979.95 L2663.79 1979.95  Z" fill="#eaeaea" fill-rule="evenodd" fill-opacity="1"/>
<polyline clip-path="url(#clip250)" style="stroke:#ffffff; stroke-linecap:round; stroke-linejoin:round; stroke-width:4; stroke-opacity:1; fill:none" points="2663.79,2135.47 3055.46,2135.47 3055.46,1979.95 2663.79,1979.95 2663.79,2135.47 "/>
<polyline clip-path="url(#clip250)" style="stroke:#009af9; stroke-linecap:round; stroke-linejoin:round; stroke-width:12; stroke-opacity:1; fill:none" points="2696.23,2031.79 2890.82,2031.79 "/>
<path clip-path="url(#clip250)" d="M2925.48 2048.35 L2925.48 2044.09 Q2927.24 2044.92 2929.04 2045.36 Q2930.85 2045.8 2932.59 2045.8 Q2937.22 2045.8 2939.65 2042.7 Q2942.1 2039.58 2942.45 2033.23 Q2941.1 2035.22 2939.04 2036.29 Q2936.98 2037.35 2934.48 2037.35 Q2929.3 2037.35 2926.27 2034.23 Q2923.26 2031.08 2923.26 2025.64 Q2923.26 2020.32 2926.4 2017.1 Q2929.55 2013.88 2934.78 2013.88 Q2940.78 2013.88 2943.93 2018.49 Q2947.1 2023.07 2947.1 2031.82 Q2947.1 2039.99 2943.21 2044.88 Q2939.34 2049.74 2932.79 2049.74 Q2931.03 2049.74 2929.23 2049.39 Q2927.42 2049.04 2925.48 2048.35 M2934.78 2033.7 Q2937.93 2033.7 2939.76 2031.54 Q2941.61 2029.39 2941.61 2025.64 Q2941.61 2021.91 2939.76 2019.76 Q2937.93 2017.58 2934.78 2017.58 Q2931.64 2017.58 2929.78 2019.76 Q2927.96 2021.91 2927.96 2025.64 Q2927.96 2029.39 2929.78 2031.54 Q2931.64 2033.7 2934.78 2033.7 Z" fill="#000000" fill-rule="nonzero" fill-opacity="1" /><path clip-path="url(#clip250)" d="M2955.55 2014.51 L2973.9 2014.51 L2973.9 2018.44 L2959.83 2018.44 L2959.83 2026.91 Q2960.85 2026.57 2961.87 2026.4 Q2962.89 2026.22 2963.9 2026.22 Q2969.69 2026.22 2973.07 2029.39 Q2976.45 2032.56 2976.45 2037.98 Q2976.45 2043.56 2972.98 2046.66 Q2969.51 2049.74 2963.19 2049.74 Q2961.01 2049.74 2958.74 2049.37 Q2956.5 2049 2954.09 2048.26 L2954.09 2043.56 Q2956.17 2044.69 2958.4 2045.25 Q2960.62 2045.8 2963.09 2045.8 Q2967.1 2045.8 2969.44 2043.7 Q2971.78 2041.59 2971.78 2037.98 Q2971.78 2034.37 2969.44 2032.26 Q2967.1 2030.15 2963.09 2030.15 Q2961.22 2030.15 2959.34 2030.57 Q2957.49 2030.99 2955.55 2031.87 L2955.55 2014.51 Z" fill="#000000" fill-rule="nonzero" fill-opacity="1" /><path clip-path="url(#clip250)" d="M3015.06 2033.86 Q3013.05 2033.86 3011.89 2035.57 Q3010.76 2037.28 3010.76 2040.34 Q3010.76 2043.35 3011.89 2045.08 Q3013.05 2046.8 3015.06 2046.8 Q3017.03 2046.8 3018.16 2045.08 Q3019.32 2043.35 3019.32 2040.34 Q3019.32 2037.31 3018.16 2035.59 Q3017.03 2033.86 3015.06 2033.86 M3015.06 2030.92 Q3018.72 2030.92 3020.87 2033.46 Q3023.02 2036.01 3023.02 2040.34 Q3023.02 2044.67 3020.85 2047.21 Q3018.7 2049.74 3015.06 2049.74 Q3011.36 2049.74 3009.21 2047.21 Q3007.05 2044.67 3007.05 2040.34 Q3007.05 2035.99 3009.21 2033.46 Q3011.38 2030.92 3015.06 2030.92 M2991.17 2016.82 Q2989.18 2016.82 2988.02 2018.56 Q2986.89 2020.27 2986.89 2023.28 Q2986.89 2026.33 2988.02 2028.05 Q2989.16 2029.76 2991.17 2029.76 Q2993.19 2029.76 2994.32 2028.05 Q2995.48 2026.33 2995.48 2023.28 Q2995.48 2020.29 2994.32 2018.56 Q2993.16 2016.82 2991.17 2016.82 M3012.08 2013.88 L3015.78 2013.88 L2994.16 2049.74 L2990.46 2049.74 L3012.08 2013.88 M2991.17 2013.88 Q2994.83 2013.88 2997.01 2016.43 Q2999.18 2018.95 2999.18 2023.28 Q2999.18 2027.65 2997.01 2030.18 Q2994.85 2032.7 2991.17 2032.7 Q2987.49 2032.7 2985.34 2030.18 Q2983.21 2027.63 2983.21 2023.28 Q2983.21 2018.97 2985.36 2016.43 Q2987.52 2013.88 2991.17 2013.88 Z" fill="#000000" fill-rule="nonzero" fill-opacity="1" /><polyline clip-path="url(#clip250)" style="stroke:#e26f46; stroke-linecap:round; stroke-linejoin:round; stroke-width:12; stroke-opacity:1; fill:none" points="2696.23,2083.63 2890.82,2083.63 "/>
<path clip-path="url(#clip250)" d="M2935.59 2081.76 Q2932.45 2081.76 2930.59 2083.92 Q2928.77 2086.07 2928.77 2089.82 Q2928.77 2093.55 2930.59 2095.72 Q2932.45 2097.87 2935.59 2097.87 Q2938.74 2097.87 2940.57 2095.72 Q2942.42 2093.55 2942.42 2089.82 Q2942.42 2086.07 2940.57 2083.92 Q2938.74 2081.76 2935.59 2081.76 M2944.88 2067.11 L2944.88 2071.37 Q2943.12 2070.54 2941.31 2070.1 Q2939.53 2069.66 2937.77 2069.66 Q2933.14 2069.66 2930.69 2072.78 Q2928.26 2075.91 2927.91 2082.23 Q2929.28 2080.21 2931.34 2079.15 Q2933.4 2078.06 2935.87 2078.06 Q2941.08 2078.06 2944.09 2081.23 Q2947.12 2084.38 2947.12 2089.82 Q2947.12 2095.14 2943.97 2098.36 Q2940.83 2101.58 2935.59 2101.58 Q2929.6 2101.58 2926.43 2096.99 Q2923.26 2092.39 2923.26 2083.66 Q2923.26 2075.47 2927.15 2070.61 Q2931.03 2065.72 2937.59 2065.72 Q2939.34 2065.72 2941.13 2066.07 Q2942.93 2066.42 2944.88 2067.11 Z" fill="#000000" fill-rule="nonzero" fill-opacity="1" /><path clip-path="url(#clip250)" d="M2965.18 2084.49 Q2961.84 2084.49 2959.92 2086.28 Q2958.03 2088.06 2958.03 2091.18 Q2958.03 2094.31 2959.92 2096.09 Q2961.84 2097.87 2965.18 2097.87 Q2968.51 2097.87 2970.43 2096.09 Q2972.35 2094.29 2972.35 2091.18 Q2972.35 2088.06 2970.43 2086.28 Q2968.53 2084.49 2965.18 2084.49 M2960.5 2082.5 Q2957.49 2081.76 2955.8 2079.7 Q2954.14 2077.64 2954.14 2074.68 Q2954.14 2070.54 2957.08 2068.13 Q2960.04 2065.72 2965.18 2065.72 Q2970.34 2065.72 2973.28 2068.13 Q2976.22 2070.54 2976.22 2074.68 Q2976.22 2077.64 2974.53 2079.7 Q2972.86 2081.76 2969.88 2082.5 Q2973.26 2083.29 2975.13 2085.58 Q2977.03 2087.87 2977.03 2091.18 Q2977.03 2096.21 2973.95 2098.89 Q2970.9 2101.58 2965.18 2101.58 Q2959.46 2101.58 2956.38 2098.89 Q2953.33 2096.21 2953.33 2091.18 Q2953.33 2087.87 2955.22 2085.58 Q2957.12 2083.29 2960.5 2082.5 M2958.79 2075.12 Q2958.79 2077.8 2960.46 2079.31 Q2962.15 2080.81 2965.18 2080.81 Q2968.19 2080.81 2969.88 2079.31 Q2971.59 2077.8 2971.59 2075.12 Q2971.59 2072.43 2969.88 2070.93 Q2968.19 2069.42 2965.18 2069.42 Q2962.15 2069.42 2960.46 2070.93 Q2958.79 2072.43 2958.79 2075.12 Z" fill="#000000" fill-rule="nonzero" fill-opacity="1" /><path clip-path="url(#clip250)" d="M3014.74 2085.7 Q3012.72 2085.7 3011.57 2087.41 Q3010.43 2089.12 3010.43 2092.18 Q3010.43 2095.19 3011.57 2096.92 Q3012.72 2098.64 3014.74 2098.64 Q3016.71 2098.64 3017.84 2096.92 Q3019 2095.19 3019 2092.18 Q3019 2089.15 3017.84 2087.43 Q3016.71 2085.7 3014.74 2085.7 M3014.74 2082.76 Q3018.4 2082.76 3020.55 2085.3 Q3022.7 2087.85 3022.7 2092.18 Q3022.7 2096.51 3020.52 2099.05 Q3018.37 2101.58 3014.74 2101.58 Q3011.03 2101.58 3008.88 2099.05 Q3006.73 2096.51 3006.73 2092.18 Q3006.73 2087.83 3008.88 2085.3 Q3011.06 2082.76 3014.74 2082.76 M2990.85 2068.66 Q2988.86 2068.66 2987.7 2070.4 Q2986.57 2072.11 2986.57 2075.12 Q2986.57 2078.17 2987.7 2079.89 Q2988.84 2081.6 2990.85 2081.6 Q2992.86 2081.6 2994 2079.89 Q2995.15 2078.17 2995.15 2075.12 Q2995.15 2072.13 2994 2070.4 Q2992.84 2068.66 2990.85 2068.66 M3011.75 2065.72 L3015.46 2065.72 L2993.84 2101.58 L2990.13 2101.58 L3011.75 2065.72 M2990.85 2065.72 Q2994.51 2065.72 2996.68 2068.27 Q2998.86 2070.79 2998.86 2075.12 Q2998.86 2079.49 2996.68 2082.02 Q2994.53 2084.54 2990.85 2084.54 Q2987.17 2084.54 2985.02 2082.02 Q2982.89 2079.47 2982.89 2075.12 Q2982.89 2070.81 2985.04 2068.27 Q2987.19 2065.72 2990.85 2065.72 Z" fill="#000000" fill-rule="nonzero" fill-opacity="1" /></svg>
