<?xml version="1.0" encoding="utf-8"?>
<svg xmlns="http://www.w3.org/2000/svg" xmlns:xlink="http://www.w3.org/1999/xlink" width="800" height="600" viewBox="0 0 3200 2400">
<defs>
  <clipPath id="clip210">
    <rect x="0" y="0" width="3200" height="2400"/>
  </clipPath>
</defs>
<path clip-path="url(#clip210)" d="M0 2400 L3200 2400 L3200 0 L0 0  Z" fill="#ffffff" fill-rule="evenodd" fill-opacity="1"/>
<defs>
  <clipPath id="clip211">
    <rect x="232" y="111" width="2921" height="2094"/>
  </clipPath>
</defs>
<path clip-path="url(#clip210)" d="M231.723 2204.92 L3152.76 2204.92 L3152.76 111.592 L231.723 111.592  Z" fill="#eaeaea" fill-rule="evenodd" fill-opacity="1"/>
<defs>
  <clipPath id="clip212">
    <rect x="231" y="111" width="2922" height="2094"/>
  </clipPath>
</defs>
<polyline clip-path="url(#clip212)" style="stroke:#ffffff; stroke-linecap:round; stroke-linejoin:round; stroke-width:2; stroke-opacity:1; fill:none" points="589.963,2204.92 589.963,111.592 "/>
<polyline clip-path="url(#clip212)" style="stroke:#ffffff; stroke-linecap:round; stroke-linejoin:round; stroke-width:2; stroke-opacity:1; fill:none" points="1141.1,2204.92 1141.1,111.592 "/>
<polyline clip-path="url(#clip212)" style="stroke:#ffffff; stroke-linecap:round; stroke-linejoin:round; stroke-width:2; stroke-opacity:1; fill:none" points="1692.24,2204.92 1692.24,111.592 "/>
<polyline clip-path="url(#clip212)" style="stroke:#ffffff; stroke-linecap:round; stroke-linejoin:round; stroke-width:2; stroke-opacity:1; fill:none" points="2243.38,2204.92 2243.38,111.592 "/>
<polyline clip-path="url(#clip212)" style="stroke:#ffffff; stroke-linecap:round; stroke-linejoin:round; stroke-width:2; stroke-opacity:1; fill:none" points="2794.52,2204.92 2794.52,111.592 "/>
<polyline clip-path="url(#clip212)" style="stroke:#ffffff; stroke-linecap:round; stroke-linejoin:round; stroke-width:2; stroke-opacity:1; fill:none" points="231.723,1968.18 3152.76,1968.18 "/>
<polyline clip-path="url(#clip212)" style="stroke:#ffffff; stroke-linecap:round; stroke-linejoin:round; stroke-width:2; stroke-opacity:1; fill:none" points="231.723,1613.19 3152.76,1613.19 "/>
<polyline clip-path="url(#clip212)" style="stroke:#ffffff; stroke-linecap:round; stroke-linejoin:round; stroke-width:2; stroke-opacity:1; fill:none" points="231.723,1258.21 3152.76,1258.21 "/>
<polyline clip-path="url(#clip212)" style="stroke:#ffffff; stroke-linecap:round; stroke-linejoin:round; stroke-width:2; stroke-opacity:1; fill:none" points="231.723,903.22 3152.76,903.22 "/>
<polyline clip-path="url(#clip212)" style="stroke:#ffffff; stroke-linecap:round; stroke-linejoin:round; stroke-width:2; stroke-opacity:1; fill:none" points="231.723,548.233 3152.76,548.233 "/>
<polyline clip-path="url(#clip212)" style="stroke:#ffffff; stroke-linecap:round; stroke-linejoin:round; stroke-width:2; stroke-opacity:1; fill:none" points="231.723,193.246 3152.76,193.246 "/>
<polyline clip-path="url(#clip212)" style="stroke:#ffffff; stroke-linecap:round; stroke-linejoin:round; stroke-width:4; stroke-opacity:1; fill:none" points="314.394,2204.92 314.394,111.592 "/>
<polyline clip-path="url(#clip212)" style="stroke:#ffffff; stroke-linecap:round; stroke-linejoin:round; stroke-width:4; stroke-opacity:1; fill:none" points="865.532,2204.92 865.532,111.592 "/>
<polyline clip-path="url(#clip212)" style="stroke:#ffffff; stroke-linecap:round; stroke-linejoin:round; stroke-width:4; stroke-opacity:1; fill:none" points="1416.67,2204.92 1416.67,111.592 "/>
<polyline clip-path="url(#clip212)" style="stroke:#ffffff; stroke-linecap:round; stroke-linejoin:round; stroke-width:4; stroke-opacity:1; fill:none" points="1967.81,2204.92 1967.81,111.592 "/>
<polyline clip-path="url(#clip212)" style="stroke:#ffffff; stroke-linecap:round; stroke-linejoin:round; stroke-width:4; stroke-opacity:1; fill:none" points="2518.95,2204.92 2518.95,111.592 "/>
<polyline clip-path="url(#clip212)" style="stroke:#ffffff; stroke-linecap:round; stroke-linejoin:round; stroke-width:4; stroke-opacity:1; fill:none" points="3070.09,2204.92 3070.09,111.592 "/>
<polyline clip-path="url(#clip212)" style="stroke:#ffffff; stroke-linecap:round; stroke-linejoin:round; stroke-width:4; stroke-opacity:1; fill:none" points="231.723,2145.67 3152.76,2145.67 "/>
<polyline clip-path="url(#clip212)" style="stroke:#ffffff; stroke-linecap:round; stroke-linejoin:round; stroke-width:4; stroke-opacity:1; fill:none" points="231.723,1790.69 3152.76,1790.69 "/>
<polyline clip-path="url(#clip212)" style="stroke:#ffffff; stroke-linecap:round; stroke-linejoin:round; stroke-width:4; stroke-opacity:1; fill:none" points="231.723,1435.7 3152.76,1435.7 "/>
<polyline clip-path="url(#clip212)" style="stroke:#ffffff; stroke-linecap:round; stroke-linejoin:round; stroke-width:4; stroke-opacity:1; fill:none" points="231.723,1080.71 3152.76,1080.71 "/>
<polyline clip-path="url(#clip212)" style="stroke:#ffffff; stroke-linecap:round; stroke-linejoin:round; stroke-width:4; stroke-opacity:1; fill:none" points="231.723,725.727 3152.76,725.727 "/>
<polyline clip-path="url(#clip212)" style="stroke:#ffffff; stroke-linecap:round; stroke-linejoin:round; stroke-width:4; stroke-opacity:1; fill:none" points="231.723,370.74 3152.76,370.74 "/>
<polyline clip-path="url(#clip210)" style="stroke:#ffffff; stroke-linecap:round; stroke-linejoin:round; stroke-width:4; stroke-opacity:1; fill:none" points="231.723,2204.92 3152.76,2204.92 "/>
<polyline clip-path="url(#clip210)" style="stroke:#333333; stroke-linecap:round; stroke-linejoin:round; stroke-width:4; stroke-opacity:1; fill:none" points="314.394,2204.92 314.394,2223.82 "/>
<polyline clip-path="url(#clip210)" style="stroke:#333333; stroke-linecap:round; stroke-linejoin:round; stroke-width:4; stroke-opacity:1; fill:none" points="865.532,2204.92 865.532,2223.82 "/>
<polyline clip-path="url(#clip210)" style="stroke:#333333; stroke-linecap:round; stroke-linejoin:round; stroke-width:4; stroke-opacity:1; fill:none" points="1416.67,2204.92 1416.67,2223.82 "/>
<polyline clip-path="url(#clip210)" style="stroke:#333333; stroke-linecap:round; stroke-linejoin:round; stroke-width:4; stroke-opacity:1; fill:none" points="1967.81,2204.92 1967.81,2223.82 "/>
<polyline clip-path="url(#clip210)" style="stroke:#333333; stroke-linecap:round; stroke-linejoin:round; stroke-width:4; stroke-opacity:1; fill:none" points="2518.95,2204.92 2518.95,2223.82 "/>
<polyline clip-path="url(#clip210)" style="stroke:#333333; stroke-linecap:round; stroke-linejoin:round; stroke-width:4; stroke-opacity:1; fill:none" points="3070.09,2204.92 3070.09,2223.82 "/>
<polyline clip-path="url(#clip210)" style="stroke:#333333; stroke-linecap:round; stroke-linejoin:round; stroke-width:4; stroke-opacity:1; fill:none" points="589.963,2204.92 589.963,2214.37 "/>
<polyline clip-path="url(#clip210)" style="stroke:#333333; stroke-linecap:round; stroke-linejoin:round; stroke-width:4; stroke-opacity:1; fill:none" points="1141.1,2204.92 1141.1,2214.37 "/>
<polyline clip-path="url(#clip210)" style="stroke:#333333; stroke-linecap:round; stroke-linejoin:round; stroke-width:4; stroke-opacity:1; fill:none" points="1692.24,2204.92 1692.24,2214.37 "/>
<polyline clip-path="url(#clip210)" style="stroke:#333333; stroke-linecap:round; stroke-linejoin:round; stroke-width:4; stroke-opacity:1; fill:none" points="2243.38,2204.92 2243.38,2214.37 "/>
<polyline clip-path="url(#clip210)" style="stroke:#333333; stroke-linecap:round; stroke-linejoin:round; stroke-width:4; stroke-opacity:1; fill:none" points="2794.52,2204.92 2794.52,2214.37 "/>
<path clip-path="url(#clip210)" d="M314.394 2255.04 Q310.783 2255.04 308.954 2258.6 Q307.148 2262.14 307.148 2269.27 Q307.148 2276.38 308.954 2279.95 Q310.783 2283.49 314.394 2283.49 Q318.028 2283.49 319.833 2279.95 Q321.662 2276.38 321.662 2269.27 Q321.662 2262.14 319.833 2258.6 Q318.028 2255.04 314.394 2255.04 M314.394 2251.33 Q320.204 2251.33 323.259 2255.94 Q326.338 2260.52 326.338 2269.27 Q326.338 2278 323.259 2282.61 Q320.204 2287.19 314.394 2287.19 Q308.584 2287.19 305.505 2282.61 Q302.449 2278 302.449 2269.27 Q302.449 2260.52 305.505 2255.94 Q308.584 2251.33 314.394 2251.33 Z" fill="#4c4c4c" fill-rule="nonzero" fill-opacity="1" /><path clip-path="url(#clip210)" d="M855.914 2282.58 L863.553 2282.58 L863.553 2256.22 L855.243 2257.89 L855.243 2253.63 L863.507 2251.96 L868.182 2251.96 L868.182 2282.58 L875.821 2282.58 L875.821 2286.52 L855.914 2286.52 L855.914 2282.58 Z" fill="#4c4c4c" fill-rule="nonzero" fill-opacity="1" /><path clip-path="url(#clip210)" d="M1411.32 2282.58 L1427.64 2282.58 L1427.64 2286.52 L1405.7 2286.52 L1405.7 2282.58 Q1408.36 2279.83 1412.94 2275.2 Q1417.55 2270.55 1418.73 2269.21 Q1420.98 2266.68 1421.86 2264.95 Q1422.76 2263.19 1422.76 2261.5 Q1422.76 2258.74 1420.81 2257.01 Q1418.89 2255.27 1415.79 2255.27 Q1413.59 2255.27 1411.14 2256.03 Q1408.71 2256.8 1405.93 2258.35 L1405.93 2253.63 Q1408.75 2252.49 1411.21 2251.91 Q1413.66 2251.33 1415.7 2251.33 Q1421.07 2251.33 1424.26 2254.02 Q1427.46 2256.71 1427.46 2261.2 Q1427.46 2263.33 1426.65 2265.25 Q1425.86 2267.14 1423.75 2269.74 Q1423.17 2270.41 1420.07 2273.63 Q1416.97 2276.82 1411.32 2282.58 Z" fill="#4c4c4c" fill-rule="nonzero" fill-opacity="1" /><path clip-path="url(#clip210)" d="M1972.06 2267.89 Q1975.41 2268.6 1977.29 2270.87 Q1979.19 2273.14 1979.19 2276.47 Q1979.19 2281.59 1975.67 2284.39 Q1972.15 2287.19 1965.67 2287.19 Q1963.49 2287.19 1961.18 2286.75 Q1958.89 2286.33 1956.43 2285.48 L1956.43 2280.96 Q1958.38 2282.1 1960.69 2282.68 Q1963.01 2283.26 1965.53 2283.26 Q1969.93 2283.26 1972.22 2281.52 Q1974.53 2279.78 1974.53 2276.47 Q1974.53 2273.42 1972.38 2271.71 Q1970.25 2269.97 1966.43 2269.97 L1962.4 2269.97 L1962.4 2266.13 L1966.62 2266.13 Q1970.07 2266.13 1971.89 2264.76 Q1973.72 2263.37 1973.72 2260.78 Q1973.72 2258.12 1971.82 2256.71 Q1969.95 2255.27 1966.43 2255.27 Q1964.51 2255.27 1962.31 2255.69 Q1960.11 2256.1 1957.47 2256.98 L1957.47 2252.82 Q1960.14 2252.08 1962.45 2251.71 Q1964.79 2251.33 1966.85 2251.33 Q1972.17 2251.33 1975.27 2253.77 Q1978.38 2256.17 1978.38 2260.29 Q1978.38 2263.16 1976.73 2265.15 Q1975.09 2267.12 1972.06 2267.89 Z" fill="#4c4c4c" fill-rule="nonzero" fill-opacity="1" /><path clip-path="url(#clip210)" d="M2521.96 2256.03 L2510.15 2274.48 L2521.96 2274.48 L2521.96 2256.03 M2520.73 2251.96 L2526.61 2251.96 L2526.61 2274.48 L2531.54 2274.48 L2531.54 2278.37 L2526.61 2278.37 L2526.61 2286.52 L2521.96 2286.52 L2521.96 2278.37 L2506.35 2278.37 L2506.35 2273.86 L2520.73 2251.96 Z" fill="#4c4c4c" fill-rule="nonzero" fill-opacity="1" /><path clip-path="url(#clip210)" d="M3060.36 2251.96 L3078.72 2251.96 L3078.72 2255.9 L3064.65 2255.9 L3064.65 2264.37 Q3065.66 2264.02 3066.68 2263.86 Q3067.7 2263.67 3068.72 2263.67 Q3074.51 2263.67 3077.89 2266.84 Q3081.27 2270.02 3081.27 2275.43 Q3081.27 2281.01 3077.79 2284.11 Q3074.32 2287.19 3068 2287.19 Q3065.83 2287.19 3063.56 2286.82 Q3061.31 2286.45 3058.9 2285.71 L3058.9 2281.01 Q3060.99 2282.14 3063.21 2282.7 Q3065.43 2283.26 3067.91 2283.26 Q3071.91 2283.26 3074.25 2281.15 Q3076.59 2279.04 3076.59 2275.43 Q3076.59 2271.82 3074.25 2269.71 Q3071.91 2267.61 3067.91 2267.61 Q3066.03 2267.61 3064.16 2268.02 Q3062.31 2268.44 3060.36 2269.32 L3060.36 2251.96 Z" fill="#4c4c4c" fill-rule="nonzero" fill-opacity="1" /><path clip-path="url(#clip210)" d="M1691.3 2316.01 L1691.3 2326.14 L1703.36 2326.14 L1703.36 2330.69 L1691.3 2330.69 L1691.3 2350.04 Q1691.3 2354.4 1692.48 2355.64 Q1693.69 2356.88 1697.35 2356.88 L1703.36 2356.88 L1703.36 2361.78 L1697.35 2361.78 Q1690.57 2361.78 1687.99 2359.27 Q1685.41 2356.72 1685.41 2350.04 L1685.41 2330.69 L1681.12 2330.69 L1681.12 2326.14 L1685.41 2326.14 L1685.41 2316.01 L1691.3 2316.01 Z" fill="#000000" fill-rule="nonzero" fill-opacity="1" /><polyline clip-path="url(#clip210)" style="stroke:#ffffff; stroke-linecap:round; stroke-linejoin:round; stroke-width:4; stroke-opacity:1; fill:none" points="231.723,2204.92 231.723,111.592 "/>
<polyline clip-path="url(#clip210)" style="stroke:#333333; stroke-linecap:round; stroke-linejoin:round; stroke-width:4; stroke-opacity:1; fill:none" points="231.723,2145.67 212.825,2145.67 "/>
<polyline clip-path="url(#clip210)" style="stroke:#333333; stroke-linecap:round; stroke-linejoin:round; stroke-width:4; stroke-opacity:1; fill:none" points="231.723,1790.69 212.825,1790.69 "/>
<polyline clip-path="url(#clip210)" style="stroke:#333333; stroke-linecap:round; stroke-linejoin:round; stroke-width:4; stroke-opacity:1; fill:none" points="231.723,1435.7 212.825,1435.7 "/>
<polyline clip-path="url(#clip210)" style="stroke:#333333; stroke-linecap:round; stroke-linejoin:round; stroke-width:4; stroke-opacity:1; fill:none" points="231.723,1080.71 212.825,1080.71 "/>
<polyline clip-path="url(#clip210)" style="stroke:#333333; stroke-linecap:round; stroke-linejoin:round; stroke-width:4; stroke-opacity:1; fill:none" points="231.723,725.727 212.825,725.727 "/>
<polyline clip-path="url(#clip210)" style="stroke:#333333; stroke-linecap:round; stroke-linejoin:round; stroke-width:4; stroke-opacity:1; fill:none" points="231.723,370.74 212.825,370.74 "/>
<polyline clip-path="url(#clip210)" style="stroke:#333333; stroke-linecap:round; stroke-linejoin:round; stroke-width:4; stroke-opacity:1; fill:none" points="231.723,1968.18 222.274,1968.18 "/>
<polyline clip-path="url(#clip210)" style="stroke:#333333; stroke-linecap:round; stroke-linejoin:round; stroke-width:4; stroke-opacity:1; fill:none" points="231.723,1613.19 222.274,1613.19 "/>
<polyline clip-path="url(#clip210)" style="stroke:#333333; stroke-linecap:round; stroke-linejoin:round; stroke-width:4; stroke-opacity:1; fill:none" points="231.723,1258.21 222.274,1258.21 "/>
<polyline clip-path="url(#clip210)" style="stroke:#333333; stroke-linecap:round; stroke-linejoin:round; stroke-width:4; stroke-opacity:1; fill:none" points="231.723,903.22 222.274,903.22 "/>
<polyline clip-path="url(#clip210)" style="stroke:#333333; stroke-linecap:round; stroke-linejoin:round; stroke-width:4; stroke-opacity:1; fill:none" points="231.723,548.233 222.274,548.233 "/>
<polyline clip-path="url(#clip210)" style="stroke:#333333; stroke-linecap:round; stroke-linejoin:round; stroke-width:4; stroke-opacity:1; fill:none" points="231.723,193.246 222.274,193.246 "/>
<path clip-path="url(#clip210)" d="M93.3576 2159.02 L100.996 2159.02 L100.996 2132.65 L92.6863 2134.32 L92.6863 2130.06 L100.95 2128.39 L105.626 2128.39 L105.626 2159.02 L113.265 2159.02 L113.265 2162.95 L93.3576 2162.95 L93.3576 2159.02 Z" fill="#4c4c4c" fill-rule="nonzero" fill-opacity="1" /><path clip-path="url(#clip210)" d="M122.709 2157.08 L127.593 2157.08 L127.593 2162.95 L122.709 2162.95 L122.709 2157.08 Z" fill="#4c4c4c" fill-rule="nonzero" fill-opacity="1" /><path clip-path="url(#clip210)" d="M147.779 2131.47 Q144.167 2131.47 142.339 2135.04 Q140.533 2138.58 140.533 2145.71 Q140.533 2152.82 142.339 2156.38 Q144.167 2159.92 147.779 2159.92 Q151.413 2159.92 153.218 2156.38 Q155.047 2152.82 155.047 2145.71 Q155.047 2138.58 153.218 2135.04 Q151.413 2131.47 147.779 2131.47 M147.779 2127.77 Q153.589 2127.77 156.644 2132.38 Q159.723 2136.96 159.723 2145.71 Q159.723 2154.44 156.644 2159.04 Q153.589 2163.63 147.779 2163.63 Q141.968 2163.63 138.89 2159.04 Q135.834 2154.44 135.834 2145.71 Q135.834 2136.96 138.89 2132.38 Q141.968 2127.77 147.779 2127.77 Z" fill="#4c4c4c" fill-rule="nonzero" fill-opacity="1" /><path clip-path="url(#clip210)" d="M94.5844 1804.03 L102.223 1804.03 L102.223 1777.67 L93.9131 1779.33 L93.9131 1775.07 L102.177 1773.41 L106.853 1773.41 L106.853 1804.03 L114.492 1804.03 L114.492 1807.97 L94.5844 1807.97 L94.5844 1804.03 Z" fill="#4c4c4c" fill-rule="nonzero" fill-opacity="1" /><path clip-path="url(#clip210)" d="M123.936 1802.09 L128.82 1802.09 L128.82 1807.97 L123.936 1807.97 L123.936 1802.09 Z" fill="#4c4c4c" fill-rule="nonzero" fill-opacity="1" /><path clip-path="url(#clip210)" d="M139.816 1804.03 L147.454 1804.03 L147.454 1777.67 L139.144 1779.33 L139.144 1775.07 L147.408 1773.41 L152.084 1773.41 L152.084 1804.03 L159.723 1804.03 L159.723 1807.97 L139.816 1807.97 L139.816 1804.03 Z" fill="#4c4c4c" fill-rule="nonzero" fill-opacity="1" /><path clip-path="url(#clip210)" d="M94.9548 1449.05 L102.594 1449.05 L102.594 1422.68 L94.2835 1424.35 L94.2835 1420.09 L102.547 1418.42 L107.223 1418.42 L107.223 1449.05 L114.862 1449.05 L114.862 1452.98 L94.9548 1452.98 L94.9548 1449.05 Z" fill="#4c4c4c" fill-rule="nonzero" fill-opacity="1" /><path clip-path="url(#clip210)" d="M124.306 1447.1 L129.191 1447.1 L129.191 1452.98 L124.306 1452.98 L124.306 1447.1 Z" fill="#4c4c4c" fill-rule="nonzero" fill-opacity="1" /><path clip-path="url(#clip210)" d="M143.404 1449.05 L159.723 1449.05 L159.723 1452.98 L137.779 1452.98 L137.779 1449.05 Q140.441 1446.29 145.024 1441.66 Q149.63 1437.01 150.811 1435.67 Q153.056 1433.14 153.936 1431.41 Q154.839 1429.65 154.839 1427.96 Q154.839 1425.2 152.894 1423.47 Q150.973 1421.73 147.871 1421.73 Q145.672 1421.73 143.218 1422.49 Q140.788 1423.26 138.01 1424.81 L138.01 1420.09 Q140.834 1418.95 143.288 1418.37 Q145.742 1417.8 147.779 1417.8 Q153.149 1417.8 156.343 1420.48 Q159.538 1423.17 159.538 1427.66 Q159.538 1429.79 158.728 1431.71 Q157.941 1433.61 155.834 1436.2 Q155.255 1436.87 152.154 1440.09 Q149.052 1443.28 143.404 1449.05 Z" fill="#4c4c4c" fill-rule="nonzero" fill-opacity="1" /><path clip-path="url(#clip210)" d="M94.0057 1094.06 L101.645 1094.06 L101.645 1067.69 L93.3344 1069.36 L93.3344 1065.1 L101.598 1063.43 L106.274 1063.43 L106.274 1094.06 L113.913 1094.06 L113.913 1097.99 L94.0057 1097.99 L94.0057 1094.06 Z" fill="#4c4c4c" fill-rule="nonzero" fill-opacity="1" /><path clip-path="url(#clip210)" d="M123.357 1092.11 L128.242 1092.11 L128.242 1097.99 L123.357 1097.99 L123.357 1092.11 Z" fill="#4c4c4c" fill-rule="nonzero" fill-opacity="1" /><path clip-path="url(#clip210)" d="M152.593 1079.36 Q155.95 1080.08 157.825 1082.35 Q159.723 1084.61 159.723 1087.95 Q159.723 1093.06 156.204 1095.86 Q152.686 1098.66 146.204 1098.66 Q144.029 1098.66 141.714 1098.23 Q139.422 1097.81 136.968 1096.95 L136.968 1092.44 Q138.913 1093.57 141.228 1094.15 Q143.542 1094.73 146.066 1094.73 Q150.464 1094.73 152.755 1092.99 Q155.07 1091.26 155.07 1087.95 Q155.07 1084.89 152.917 1083.18 Q150.788 1081.44 146.968 1081.44 L142.941 1081.44 L142.941 1077.6 L147.154 1077.6 Q150.603 1077.6 152.431 1076.23 Q154.26 1074.85 154.26 1072.25 Q154.26 1069.59 152.362 1068.18 Q150.487 1066.74 146.968 1066.74 Q145.047 1066.74 142.848 1067.16 Q140.649 1067.58 138.01 1068.46 L138.01 1064.29 Q140.672 1063.55 142.987 1063.18 Q145.325 1062.81 147.385 1062.81 Q152.709 1062.81 155.811 1065.24 Q158.913 1067.65 158.913 1071.77 Q158.913 1074.64 157.269 1076.63 Q155.626 1078.6 152.593 1079.36 Z" fill="#4c4c4c" fill-rule="nonzero" fill-opacity="1" /><path clip-path="url(#clip210)" d="M92.8715 739.072 L100.51 739.072 L100.51 712.706 L92.2002 714.373 L92.2002 710.113 L100.464 708.447 L105.14 708.447 L105.14 739.072 L112.779 739.072 L112.779 743.007 L92.8715 743.007 L92.8715 739.072 Z" fill="#4c4c4c" fill-rule="nonzero" fill-opacity="1" /><path clip-path="url(#clip210)" d="M122.223 737.127 L127.107 737.127 L127.107 743.007 L122.223 743.007 L122.223 737.127 Z" fill="#4c4c4c" fill-rule="nonzero" fill-opacity="1" /><path clip-path="url(#clip210)" d="M150.14 712.521 L138.334 730.97 L150.14 730.97 L150.14 712.521 M148.913 708.447 L154.792 708.447 L154.792 730.97 L159.723 730.97 L159.723 734.859 L154.792 734.859 L154.792 743.007 L150.14 743.007 L150.14 734.859 L134.538 734.859 L134.538 730.345 L148.913 708.447 Z" fill="#4c4c4c" fill-rule="nonzero" fill-opacity="1" /><path clip-path="url(#clip210)" d="M94.3529 384.084 L101.992 384.084 L101.992 357.719 L93.6816 359.386 L93.6816 355.126 L101.945 353.46 L106.621 353.46 L106.621 384.084 L114.26 384.084 L114.26 388.02 L94.3529 388.02 L94.3529 384.084 Z" fill="#4c4c4c" fill-rule="nonzero" fill-opacity="1" /><path clip-path="url(#clip210)" d="M123.705 382.14 L128.589 382.14 L128.589 388.02 L123.705 388.02 L123.705 382.14 Z" fill="#4c4c4c" fill-rule="nonzero" fill-opacity="1" /><path clip-path="url(#clip210)" d="M138.82 353.46 L157.177 353.46 L157.177 357.395 L143.103 357.395 L143.103 365.867 Q144.121 365.52 145.14 365.358 Q146.158 365.173 147.177 365.173 Q152.964 365.173 156.343 368.344 Q159.723 371.515 159.723 376.932 Q159.723 382.51 156.251 385.612 Q152.779 388.691 146.459 388.691 Q144.283 388.691 142.015 388.321 Q139.769 387.95 137.362 387.209 L137.362 382.51 Q139.445 383.645 141.667 384.2 Q143.89 384.756 146.367 384.756 Q150.371 384.756 152.709 382.649 Q155.047 380.543 155.047 376.932 Q155.047 373.321 152.709 371.214 Q150.371 369.108 146.367 369.108 Q144.492 369.108 142.617 369.524 Q140.765 369.941 138.82 370.821 L138.82 353.46 Z" fill="#4c4c4c" fill-rule="nonzero" fill-opacity="1" /><path clip-path="url(#clip210)" d="M18.2962 1141.64 L35.6428 1154.53 L53.9442 1140.97 L53.9442 1147.88 L39.9396 1158.26 L53.9442 1168.63 L53.9442 1175.54 L35.2926 1161.69 L18.2962 1174.36 L18.2962 1167.45 L30.9958 1158 L18.2962 1148.55 L18.2962 1141.64 Z" fill="#000000" fill-rule="nonzero" fill-opacity="1" /><path clip-path="url(#clip210)" d="M1151.01 20.3876 L1151.01 25.4223 Q1148.75 24.2649 1146.32 23.6862 Q1143.89 23.1075 1141.29 23.1075 Q1137.32 23.1075 1135.33 24.3228 Q1133.36 25.5381 1133.36 27.9686 Q1133.36 29.8204 1134.78 30.891 Q1136.19 31.9327 1140.48 32.8876 L1142.3 33.2926 Q1147.97 34.5079 1150.34 36.7359 Q1152.75 38.935 1152.75 42.8991 Q1152.75 47.4129 1149.16 50.046 Q1145.6 52.6791 1139.35 52.6791 Q1136.74 52.6791 1133.91 52.1583 Q1131.1 51.6664 1127.98 50.6537 L1127.98 45.156 Q1130.93 46.6896 1133.79 47.4708 Q1136.66 48.2231 1139.46 48.2231 Q1143.23 48.2231 1145.25 46.95 Q1147.28 45.6479 1147.28 43.3042 Q1147.28 41.134 1145.8 39.9766 Q1144.35 38.8192 1139.41 37.7486 L1137.55 37.3146 Q1132.61 36.273 1130.41 34.1318 Q1128.21 31.9616 1128.21 28.2001 Q1128.21 23.6283 1131.45 21.1399 Q1134.69 18.6515 1140.65 18.6515 Q1143.6 18.6515 1146.21 19.0855 Q1148.81 19.5196 1151.01 20.3876 Z" fill="#000000" fill-rule="nonzero" fill-opacity="1" /><path clip-path="url(#clip210)" d="M1173.78 23.1654 Q1169.5 23.1654 1167.01 26.5218 Q1164.52 29.8494 1164.52 35.6653 Q1164.52 41.4813 1166.98 44.8377 Q1169.47 48.1653 1173.78 48.1653 Q1178.04 48.1653 1180.52 44.8088 Q1183.01 41.4523 1183.01 35.6653 Q1183.01 29.9072 1180.52 26.5508 Q1178.04 23.1654 1173.78 23.1654 M1173.78 18.6515 Q1180.73 18.6515 1184.69 23.1654 Q1188.65 27.6792 1188.65 35.6653 Q1188.65 43.6225 1184.69 48.1653 Q1180.73 52.6791 1173.78 52.6791 Q1166.81 52.6791 1162.84 48.1653 Q1158.91 43.6225 1158.91 35.6653 Q1158.91 27.6792 1162.84 23.1654 Q1166.81 18.6515 1173.78 18.6515 Z" fill="#000000" fill-rule="nonzero" fill-opacity="1" /><path clip-path="url(#clip210)" d="M1197.48 6.81709 L1202.8 6.81709 L1202.8 51.84 L1197.48 51.84 L1197.48 6.81709 Z" fill="#000000" fill-rule="nonzero" fill-opacity="1" /><path clip-path="url(#clip210)" d="M1213.39 39.0507 L1213.39 19.4328 L1218.72 19.4328 L1218.72 38.8482 Q1218.72 43.4488 1220.51 45.7636 Q1222.31 48.0495 1225.89 48.0495 Q1230.2 48.0495 1232.69 45.3007 Q1235.21 42.5519 1235.21 37.8065 L1235.21 19.4328 L1240.53 19.4328 L1240.53 51.84 L1235.21 51.84 L1235.21 46.8632 Q1233.27 49.8145 1230.7 51.2613 Q1228.15 52.6791 1224.77 52.6791 Q1219.18 52.6791 1216.29 49.2069 Q1213.39 45.7347 1213.39 39.0507 M1226.79 18.6515 L1226.79 18.6515 Z" fill="#000000" fill-rule="nonzero" fill-opacity="1" /><path clip-path="url(#clip210)" d="M1274.82 20.677 L1274.82 25.6538 Q1272.57 24.4096 1270.28 23.802 Q1268.02 23.1654 1265.71 23.1654 Q1260.53 23.1654 1257.66 26.464 Q1254.8 29.7336 1254.8 35.6653 Q1254.8 41.597 1257.66 44.8956 Q1260.53 48.1653 1265.71 48.1653 Q1268.02 48.1653 1270.28 47.5576 Q1272.57 46.921 1274.82 45.6768 L1274.82 50.5958 Q1272.59 51.6375 1270.19 52.1583 Q1267.82 52.6791 1265.13 52.6791 Q1257.81 52.6791 1253.5 48.0784 Q1249.19 43.4778 1249.19 35.6653 Q1249.19 27.7371 1253.53 23.1943 Q1257.9 18.6515 1265.48 18.6515 Q1267.94 18.6515 1270.28 19.1724 Q1272.62 19.6642 1274.82 20.677 M1267.3 51.84 Q1268.89 53.634 1269.67 55.1386 Q1270.45 56.6722 1270.45 58.061 Q1270.45 60.6362 1268.72 61.9383 Q1266.98 63.2693 1263.57 63.2693 Q1262.24 63.2693 1260.96 63.0957 Q1259.72 62.9221 1258.47 62.5749 L1258.47 58.7844 Q1259.46 59.2763 1260.53 59.4788 Q1261.6 59.7103 1262.96 59.7103 Q1264.67 59.7103 1265.53 59.0159 Q1266.4 58.3214 1266.4 56.9904 Q1266.4 56.1224 1265.77 54.8492 Q1265.16 53.605 1263.86 51.84 L1267.3 51.84 Z" fill="#000000" fill-rule="nonzero" fill-opacity="1" /><path clip-path="url(#clip210)" d="M1298.81 35.5496 Q1292.36 35.5496 1289.87 37.0253 Q1287.38 38.501 1287.38 42.06 Q1287.38 44.8956 1289.23 46.5738 Q1291.11 48.2231 1294.32 48.2231 Q1298.75 48.2231 1301.41 45.0981 Q1304.1 41.9442 1304.1 36.7359 L1304.1 35.5496 L1298.81 35.5496 M1309.43 33.3505 L1309.43 51.84 L1304.1 51.84 L1304.1 46.921 Q1302.28 49.8724 1299.56 51.2902 Q1296.84 52.6791 1292.91 52.6791 Q1287.93 52.6791 1284.98 49.9014 Q1282.06 47.0947 1282.06 42.4072 Q1282.06 36.9385 1285.7 34.1607 Q1289.38 31.3829 1296.64 31.3829 L1304.1 31.3829 L1304.1 30.8621 Q1304.1 27.1874 1301.67 25.1908 Q1299.27 23.1654 1294.9 23.1654 Q1292.13 23.1654 1289.49 23.8309 Q1286.86 24.4964 1284.43 25.8274 L1284.43 20.9085 Q1287.35 19.78 1290.1 19.2302 Q1292.85 18.6515 1295.45 18.6515 Q1302.48 18.6515 1305.96 22.2973 Q1309.43 25.9431 1309.43 33.3505 M1295.57 12.199 L1293.92 10.6076 Q1293.28 10.0289 1292.79 9.76847 Q1292.33 9.47912 1291.95 9.47912 Q1290.85 9.47912 1290.33 10.5497 Q1289.81 11.5914 1289.75 13.964 L1286.14 13.964 Q1286.19 10.0578 1287.67 7.94556 Q1289.15 5.80437 1291.78 5.80437 Q1292.88 5.80437 1293.8 6.20946 Q1294.73 6.61455 1295.8 7.5694 L1297.45 9.16083 Q1298.09 9.73953 1298.55 10.0289 Q1299.04 10.2893 1299.42 10.2893 Q1300.52 10.2893 1301.04 9.24764 Q1301.56 8.17704 1301.62 5.80437 L1305.23 5.80437 Q1305.18 9.7106 1303.7 11.8518 Q1302.22 13.964 1299.59 13.964 Q1298.49 13.964 1297.57 13.559 Q1296.64 13.1539 1295.57 12.199 Z" fill="#000000" fill-rule="nonzero" fill-opacity="1" /><path clip-path="url(#clip210)" d="M1332.95 23.1654 Q1328.67 23.1654 1326.18 26.5218 Q1323.69 29.8494 1323.69 35.6653 Q1323.69 41.4813 1326.15 44.8377 Q1328.64 48.1653 1332.95 48.1653 Q1337.21 48.1653 1339.7 44.8088 Q1342.18 41.4523 1342.18 35.6653 Q1342.18 29.9072 1339.7 26.5508 Q1337.21 23.1654 1332.95 23.1654 M1332.95 18.6515 Q1339.9 18.6515 1343.86 23.1654 Q1347.83 27.6792 1347.83 35.6653 Q1347.83 43.6225 1343.86 48.1653 Q1339.9 52.6791 1332.95 52.6791 Q1325.98 52.6791 1322.02 48.1653 Q1318.08 43.6225 1318.08 35.6653 Q1318.08 27.6792 1322.02 23.1654 Q1325.98 18.6515 1332.95 18.6515 Z" fill="#000000" fill-rule="nonzero" fill-opacity="1" /><path clip-path="url(#clip210)" d="M1396.81 24.3517 L1396.81 6.81709 L1402.14 6.81709 L1402.14 51.84 L1396.81 51.84 L1396.81 46.9789 Q1395.13 49.8724 1392.56 51.2902 Q1390.01 52.6791 1386.43 52.6791 Q1380.55 52.6791 1376.85 47.9916 Q1373.17 43.3042 1373.17 35.6653 Q1373.17 28.0265 1376.85 23.339 Q1380.55 18.6515 1386.43 18.6515 Q1390.01 18.6515 1392.56 20.0693 Q1395.13 21.4582 1396.81 24.3517 M1378.67 35.6653 Q1378.67 41.5391 1381.07 44.8956 Q1383.5 48.2231 1387.73 48.2231 Q1391.95 48.2231 1394.38 44.8956 Q1396.81 41.5391 1396.81 35.6653 Q1396.81 29.7915 1394.38 26.464 Q1391.95 23.1075 1387.73 23.1075 Q1383.5 23.1075 1381.07 26.464 Q1378.67 29.7915 1378.67 35.6653 Z" fill="#000000" fill-rule="nonzero" fill-opacity="1" /><path clip-path="url(#clip210)" d="M1427.83 35.5496 Q1421.38 35.5496 1418.89 37.0253 Q1416.4 38.501 1416.4 42.06 Q1416.4 44.8956 1418.25 46.5738 Q1420.13 48.2231 1423.35 48.2231 Q1427.77 48.2231 1430.44 45.0981 Q1433.13 41.9442 1433.13 36.7359 L1433.13 35.5496 L1427.83 35.5496 M1438.45 33.3505 L1438.45 51.84 L1433.13 51.84 L1433.13 46.921 Q1431.3 49.8724 1428.58 51.2902 Q1425.86 52.6791 1421.93 52.6791 Q1416.95 52.6791 1414 49.9014 Q1411.08 47.0947 1411.08 42.4072 Q1411.08 36.9385 1414.72 34.1607 Q1418.4 31.3829 1425.66 31.3829 L1433.13 31.3829 L1433.13 30.8621 Q1433.13 27.1874 1430.7 25.1908 Q1428.29 23.1654 1423.92 23.1654 Q1421.15 23.1654 1418.51 23.8309 Q1415.88 24.4964 1413.45 25.8274 L1413.45 20.9085 Q1416.37 19.78 1419.12 19.2302 Q1421.87 18.6515 1424.47 18.6515 Q1431.51 18.6515 1434.98 22.2973 Q1438.45 25.9431 1438.45 33.3505 Z" fill="#000000" fill-rule="nonzero" fill-opacity="1" /><path clip-path="url(#clip210)" d="M1495.97 34.3054 L1495.97 36.9095 L1471.49 36.9095 Q1471.84 42.4072 1474.79 45.3007 Q1477.77 48.1653 1483.07 48.1653 Q1486.14 48.1653 1489 47.4129 Q1491.89 46.6606 1494.73 45.156 L1494.73 50.1907 Q1491.86 51.406 1488.86 52.0425 Q1485.85 52.6791 1482.75 52.6791 Q1475 52.6791 1470.45 48.1653 Q1465.94 43.6514 1465.94 35.9547 Q1465.94 27.9975 1470.22 23.339 Q1474.53 18.6515 1481.82 18.6515 Q1488.36 18.6515 1492.15 22.876 Q1495.97 27.0716 1495.97 34.3054 M1490.65 32.7429 Q1490.59 28.3737 1488.19 25.7695 Q1485.82 23.1654 1481.88 23.1654 Q1477.43 23.1654 1474.73 25.6827 Q1472.07 28.2001 1471.67 32.7718 L1490.65 32.7429 Z" fill="#000000" fill-rule="nonzero" fill-opacity="1" /><path clip-path="url(#clip210)" d="M1507.89 35.6653 Q1507.89 41.5391 1510.3 44.8956 Q1512.73 48.2231 1516.95 48.2231 Q1521.18 48.2231 1523.61 44.8956 Q1526.04 41.5391 1526.04 35.6653 Q1526.04 29.7915 1523.61 26.464 Q1521.18 23.1075 1516.95 23.1075 Q1512.73 23.1075 1510.3 26.464 Q1507.89 29.7915 1507.89 35.6653 M1526.04 46.9789 Q1524.36 49.8724 1521.78 51.2902 Q1519.24 52.6791 1515.65 52.6791 Q1509.78 52.6791 1506.07 47.9916 Q1502.4 43.3042 1502.4 35.6653 Q1502.4 28.0265 1506.07 23.339 Q1509.78 18.6515 1515.65 18.6515 Q1519.24 18.6515 1521.78 20.0693 Q1524.36 21.4582 1526.04 24.3517 L1526.04 19.4328 L1531.36 19.4328 L1531.36 64.1663 L1526.04 64.1663 L1526.04 46.9789 Z" fill="#000000" fill-rule="nonzero" fill-opacity="1" /><path clip-path="url(#clip210)" d="M1541.78 39.0507 L1541.78 19.4328 L1547.1 19.4328 L1547.1 38.8482 Q1547.1 43.4488 1548.9 45.7636 Q1550.69 48.0495 1554.28 48.0495 Q1558.59 48.0495 1561.08 45.3007 Q1563.59 42.5519 1563.59 37.8065 L1563.59 19.4328 L1568.92 19.4328 L1568.92 51.84 L1563.59 51.84 L1563.59 46.8632 Q1561.66 49.8145 1559.08 51.2613 Q1556.53 52.6791 1553.15 52.6791 Q1547.56 52.6791 1544.67 49.2069 Q1541.78 45.7347 1541.78 39.0507 M1555.17 18.6515 L1555.17 18.6515 Z" fill="#000000" fill-rule="nonzero" fill-opacity="1" /><path clip-path="url(#clip210)" d="M1594.61 35.5496 Q1588.16 35.5496 1585.67 37.0253 Q1583.18 38.501 1583.18 42.06 Q1583.18 44.8956 1585.04 46.5738 Q1586.92 48.2231 1590.13 48.2231 Q1594.55 48.2231 1597.22 45.0981 Q1599.91 41.9442 1599.91 36.7359 L1599.91 35.5496 L1594.61 35.5496 M1605.23 33.3505 L1605.23 51.84 L1599.91 51.84 L1599.91 46.921 Q1598.08 49.8724 1595.36 51.2902 Q1592.65 52.6791 1588.71 52.6791 Q1583.73 52.6791 1580.78 49.9014 Q1577.86 47.0947 1577.86 42.4072 Q1577.86 36.9385 1581.51 34.1607 Q1585.18 31.3829 1592.44 31.3829 L1599.91 31.3829 L1599.91 30.8621 Q1599.91 27.1874 1597.48 25.1908 Q1595.08 23.1654 1590.71 23.1654 Q1587.93 23.1654 1585.3 23.8309 Q1582.66 24.4964 1580.23 25.8274 L1580.23 20.9085 Q1583.15 19.78 1585.9 19.2302 Q1588.65 18.6515 1591.26 18.6515 Q1598.29 18.6515 1601.76 22.2973 Q1605.23 25.9431 1605.23 33.3505 Z" fill="#000000" fill-rule="nonzero" fill-opacity="1" /><path clip-path="url(#clip210)" d="M1639.52 20.677 L1639.52 25.6538 Q1637.26 24.4096 1634.98 23.802 Q1632.72 23.1654 1630.41 23.1654 Q1625.23 23.1654 1622.36 26.464 Q1619.5 29.7336 1619.5 35.6653 Q1619.5 41.597 1622.36 44.8956 Q1625.23 48.1653 1630.41 48.1653 Q1632.72 48.1653 1634.98 47.5576 Q1637.26 46.921 1639.52 45.6768 L1639.52 50.5958 Q1637.29 51.6375 1634.89 52.1583 Q1632.52 52.6791 1629.83 52.6791 Q1622.51 52.6791 1618.19 48.0784 Q1613.88 43.4778 1613.88 35.6653 Q1613.88 27.7371 1618.22 23.1943 Q1622.59 18.6515 1630.17 18.6515 Q1632.63 18.6515 1634.98 19.1724 Q1637.32 19.6642 1639.52 20.677 M1632 51.84 Q1633.59 53.634 1634.37 55.1386 Q1635.15 56.6722 1635.15 58.061 Q1635.15 60.6362 1633.41 61.9383 Q1631.68 63.2693 1628.26 63.2693 Q1626.93 63.2693 1625.66 63.0957 Q1624.42 62.9221 1623.17 62.5749 L1623.17 58.7844 Q1624.16 59.2763 1625.23 59.4788 Q1626.3 59.7103 1627.66 59.7103 Q1629.36 59.7103 1630.23 59.0159 Q1631.1 58.3214 1631.1 56.9904 Q1631.1 56.1224 1630.46 54.8492 Q1629.86 53.605 1628.55 51.84 L1632 51.84 Z" fill="#000000" fill-rule="nonzero" fill-opacity="1" /><path clip-path="url(#clip210)" d="M1663.51 35.5496 Q1657.05 35.5496 1654.57 37.0253 Q1652.08 38.501 1652.08 42.06 Q1652.08 44.8956 1653.93 46.5738 Q1655.81 48.2231 1659.02 48.2231 Q1663.45 48.2231 1666.11 45.0981 Q1668.8 41.9442 1668.8 36.7359 L1668.8 35.5496 L1663.51 35.5496 M1674.13 33.3505 L1674.13 51.84 L1668.8 51.84 L1668.8 46.921 Q1666.98 49.8724 1664.26 51.2902 Q1661.54 52.6791 1657.6 52.6791 Q1652.63 52.6791 1649.68 49.9014 Q1646.75 47.0947 1646.75 42.4072 Q1646.75 36.9385 1650.4 34.1607 Q1654.07 31.3829 1661.34 31.3829 L1668.8 31.3829 L1668.8 30.8621 Q1668.8 27.1874 1666.37 25.1908 Q1663.97 23.1654 1659.6 23.1654 Q1656.82 23.1654 1654.19 23.8309 Q1651.56 24.4964 1649.13 25.8274 L1649.13 20.9085 Q1652.05 19.78 1654.8 19.2302 Q1657.55 18.6515 1660.15 18.6515 Q1667.18 18.6515 1670.65 22.2973 Q1674.13 25.9431 1674.13 33.3505 M1660.27 12.199 L1658.62 10.6076 Q1657.98 10.0289 1657.49 9.76847 Q1657.03 9.47912 1656.65 9.47912 Q1655.55 9.47912 1655.03 10.5497 Q1654.51 11.5914 1654.45 13.964 L1650.83 13.964 Q1650.89 10.0578 1652.37 7.94556 Q1653.84 5.80437 1656.48 5.80437 Q1657.58 5.80437 1658.5 6.20946 Q1659.43 6.61455 1660.5 7.5694 L1662.15 9.16083 Q1662.78 9.73953 1663.25 10.0289 Q1663.74 10.2893 1664.11 10.2893 Q1665.21 10.2893 1665.73 9.24764 Q1666.26 8.17704 1666.31 5.80437 L1669.93 5.80437 Q1669.87 9.7106 1668.4 11.8518 Q1666.92 13.964 1664.29 13.964 Q1663.19 13.964 1662.26 13.559 Q1661.34 13.1539 1660.27 12.199 Z" fill="#000000" fill-rule="nonzero" fill-opacity="1" /><path clip-path="url(#clip210)" d="M1697.65 23.1654 Q1693.37 23.1654 1690.88 26.5218 Q1688.39 29.8494 1688.39 35.6653 Q1688.39 41.4813 1690.85 44.8377 Q1693.34 48.1653 1697.65 48.1653 Q1701.9 48.1653 1704.39 44.8088 Q1706.88 41.4523 1706.88 35.6653 Q1706.88 29.9072 1704.39 26.5508 Q1701.9 23.1654 1697.65 23.1654 M1697.65 18.6515 Q1704.59 18.6515 1708.56 23.1654 Q1712.52 27.6792 1712.52 35.6653 Q1712.52 43.6225 1708.56 48.1653 Q1704.59 52.6791 1697.65 52.6791 Q1690.68 52.6791 1686.71 48.1653 Q1682.78 43.6225 1682.78 35.6653 Q1682.78 27.6792 1686.71 23.1654 Q1690.68 18.6515 1697.65 18.6515 Z" fill="#000000" fill-rule="nonzero" fill-opacity="1" /><path clip-path="url(#clip210)" d="M1740.18 6.81709 L1745.51 6.81709 L1745.51 51.84 L1740.18 51.84 L1740.18 6.81709 Z" fill="#000000" fill-rule="nonzero" fill-opacity="1" /><path clip-path="url(#clip210)" d="M1769.21 23.1654 Q1764.92 23.1654 1762.44 26.5218 Q1759.95 29.8494 1759.95 35.6653 Q1759.95 41.4813 1762.41 44.8377 Q1764.9 48.1653 1769.21 48.1653 Q1773.46 48.1653 1775.95 44.8088 Q1778.44 41.4523 1778.44 35.6653 Q1778.44 29.9072 1775.95 26.5508 Q1773.46 23.1654 1769.21 23.1654 M1769.21 18.6515 Q1776.15 18.6515 1780.12 23.1654 Q1784.08 27.6792 1784.08 35.6653 Q1784.08 43.6225 1780.12 48.1653 Q1776.15 52.6791 1769.21 52.6791 Q1762.23 52.6791 1758.27 48.1653 Q1754.33 43.6225 1754.33 35.6653 Q1754.33 27.6792 1758.27 23.1654 Q1762.23 18.6515 1769.21 18.6515 Z" fill="#000000" fill-rule="nonzero" fill-opacity="1" /><path clip-path="url(#clip210)" d="M1814.23 35.2602 Q1814.23 29.4732 1811.83 26.2904 Q1809.46 23.1075 1805.14 23.1075 Q1800.86 23.1075 1798.46 26.2904 Q1796.09 29.4732 1796.09 35.2602 Q1796.09 41.0183 1798.46 44.2012 Q1800.86 47.384 1805.14 47.384 Q1809.46 47.384 1811.83 44.2012 Q1814.23 41.0183 1814.23 35.2602 M1819.55 47.818 Q1819.55 56.0934 1815.88 60.1154 Q1812.2 64.1663 1804.62 64.1663 Q1801.82 64.1663 1799.33 63.7323 Q1796.84 63.3272 1794.5 62.4592 L1794.5 57.2798 Q1796.84 58.5529 1799.13 59.1606 Q1801.41 59.7682 1803.78 59.7682 Q1809.02 59.7682 1811.63 57.0194 Q1814.23 54.2995 1814.23 48.7729 L1814.23 46.1398 Q1812.58 49.0044 1810 50.4222 Q1807.43 51.84 1803.84 51.84 Q1797.88 51.84 1794.24 47.2972 Q1790.59 42.7544 1790.59 35.2602 Q1790.59 27.7371 1794.24 23.1943 Q1797.88 18.6515 1803.84 18.6515 Q1807.43 18.6515 1810 20.0693 Q1812.58 21.4872 1814.23 24.3517 L1814.23 19.4328 L1819.55 19.4328 L1819.55 47.818 Z" fill="#000000" fill-rule="nonzero" fill-opacity="1" /><path clip-path="url(#clip210)" d="M1837.2 4.44442 L1842.96 4.44442 L1833.53 15.324 L1829.1 15.324 L1837.2 4.44442 M1830.52 19.4328 L1835.84 19.4328 L1835.84 51.84 L1830.52 51.84 L1830.52 19.4328 M1833.18 18.6515 L1833.18 18.6515 Z" fill="#000000" fill-rule="nonzero" fill-opacity="1" /><path clip-path="url(#clip210)" d="M1867.64 20.3876 L1867.64 25.4223 Q1865.39 24.2649 1862.96 23.6862 Q1860.53 23.1075 1857.92 23.1075 Q1853.96 23.1075 1851.96 24.3228 Q1849.99 25.5381 1849.99 27.9686 Q1849.99 29.8204 1851.41 30.891 Q1852.83 31.9327 1857.11 32.8876 L1858.93 33.2926 Q1864.61 34.5079 1866.98 36.7359 Q1869.38 38.935 1869.38 42.8991 Q1869.38 47.4129 1865.79 50.046 Q1862.23 52.6791 1855.98 52.6791 Q1853.38 52.6791 1850.54 52.1583 Q1847.74 51.6664 1844.61 50.6537 L1844.61 45.156 Q1847.56 46.6896 1850.43 47.4708 Q1853.29 48.2231 1856.1 48.2231 Q1859.86 48.2231 1861.89 46.95 Q1863.91 45.6479 1863.91 43.3042 Q1863.91 41.134 1862.44 39.9766 Q1860.99 38.8192 1856.04 37.7486 L1854.19 37.3146 Q1849.24 36.273 1847.04 34.1318 Q1844.84 31.9616 1844.84 28.2001 Q1844.84 23.6283 1848.08 21.1399 Q1851.32 18.6515 1857.28 18.6515 Q1860.24 18.6515 1862.84 19.0855 Q1865.44 19.5196 1867.64 20.3876 Z" fill="#000000" fill-rule="nonzero" fill-opacity="1" /><path clip-path="url(#clip210)" d="M1883.12 10.2314 L1883.12 19.4328 L1894.09 19.4328 L1894.09 23.5705 L1883.12 23.5705 L1883.12 41.163 Q1883.12 45.1271 1884.19 46.2555 Q1885.29 47.384 1888.62 47.384 L1894.09 47.384 L1894.09 51.84 L1888.62 51.84 Q1882.46 51.84 1880.11 49.5541 Q1877.77 47.2393 1877.77 41.163 L1877.77 23.5705 L1873.86 23.5705 L1873.86 19.4328 L1877.77 19.4328 L1877.77 10.2314 L1883.12 10.2314 Z" fill="#000000" fill-rule="nonzero" fill-opacity="1" /><path clip-path="url(#clip210)" d="M1901.09 19.4328 L1906.42 19.4328 L1906.42 51.84 L1901.09 51.84 L1901.09 19.4328 M1901.09 6.81709 L1906.42 6.81709 L1906.42 13.559 L1901.09 13.559 L1901.09 6.81709 Z" fill="#000000" fill-rule="nonzero" fill-opacity="1" /><path clip-path="url(#clip210)" d="M1940.88 20.677 L1940.88 25.6538 Q1938.62 24.4096 1936.34 23.802 Q1934.08 23.1654 1931.76 23.1654 Q1926.58 23.1654 1923.72 26.464 Q1920.86 29.7336 1920.86 35.6653 Q1920.86 41.597 1923.72 44.8956 Q1926.58 48.1653 1931.76 48.1653 Q1934.08 48.1653 1936.34 47.5576 Q1938.62 46.921 1940.88 45.6768 L1940.88 50.5958 Q1938.65 51.6375 1936.25 52.1583 Q1933.88 52.6791 1931.18 52.6791 Q1923.86 52.6791 1919.55 48.0784 Q1915.24 43.4778 1915.24 35.6653 Q1915.24 27.7371 1919.58 23.1943 Q1923.95 18.6515 1931.53 18.6515 Q1933.99 18.6515 1936.34 19.1724 Q1938.68 19.6642 1940.88 20.677 Z" fill="#000000" fill-rule="nonzero" fill-opacity="1" /><path clip-path="url(#clip210)" d="M1964.87 35.5496 Q1958.41 35.5496 1955.92 37.0253 Q1953.44 38.501 1953.44 42.06 Q1953.44 44.8956 1955.29 46.5738 Q1957.17 48.2231 1960.38 48.2231 Q1964.81 48.2231 1967.47 45.0981 Q1970.16 41.9442 1970.16 36.7359 L1970.16 35.5496 L1964.87 35.5496 M1975.48 33.3505 L1975.48 51.84 L1970.16 51.84 L1970.16 46.921 Q1968.34 49.8724 1965.62 51.2902 Q1962.9 52.6791 1958.96 52.6791 Q1953.99 52.6791 1951.03 49.9014 Q1948.11 47.0947 1948.11 42.4072 Q1948.11 36.9385 1951.76 34.1607 Q1955.43 31.3829 1962.7 31.3829 L1970.16 31.3829 L1970.16 30.8621 Q1970.16 27.1874 1967.73 25.1908 Q1965.33 23.1654 1960.96 23.1654 Q1958.18 23.1654 1955.55 23.8309 Q1952.92 24.4964 1950.48 25.8274 L1950.48 20.9085 Q1953.41 19.78 1956.16 19.2302 Q1958.9 18.6515 1961.51 18.6515 Q1968.54 18.6515 1972.01 22.2973 Q1975.48 25.9431 1975.48 33.3505 Z" fill="#000000" fill-rule="nonzero" fill-opacity="1" /><path clip-path="url(#clip210)" d="M2020.02 35.5496 Q2013.56 35.5496 2011.07 37.0253 Q2008.59 38.501 2008.59 42.06 Q2008.59 44.8956 2010.44 46.5738 Q2012.32 48.2231 2015.53 48.2231 Q2019.96 48.2231 2022.62 45.0981 Q2025.31 41.9442 2025.31 36.7359 L2025.31 35.5496 L2020.02 35.5496 M2030.63 33.3505 L2030.63 51.84 L2025.31 51.84 L2025.31 46.921 Q2023.49 49.8724 2020.77 51.2902 Q2018.05 52.6791 2014.11 52.6791 Q2009.14 52.6791 2006.18 49.9014 Q2003.26 47.0947 2003.26 42.4072 Q2003.26 36.9385 2006.91 34.1607 Q2010.58 31.3829 2017.85 31.3829 L2025.31 31.3829 L2025.31 30.8621 Q2025.31 27.1874 2022.88 25.1908 Q2020.48 23.1654 2016.11 23.1654 Q2013.33 23.1654 2010.7 23.8309 Q2008.07 24.4964 2005.63 25.8274 L2005.63 20.9085 Q2008.56 19.78 2011.31 19.2302 Q2014.05 18.6515 2016.66 18.6515 Q2023.69 18.6515 2027.16 22.2973 Q2030.63 25.9431 2030.63 33.3505 Z" fill="#000000" fill-rule="nonzero" fill-opacity="1" /><path clip-path="url(#clip210)" d="M2041.6 6.81709 L2046.93 6.81709 L2046.93 51.84 L2041.6 51.84 L2041.6 6.81709 Z" fill="#000000" fill-rule="nonzero" fill-opacity="1" /><path clip-path="url(#clip210)" d="M2085.78 34.3054 L2085.78 36.9095 L2061.31 36.9095 Q2061.65 42.4072 2064.6 45.3007 Q2067.58 48.1653 2072.88 48.1653 Q2075.95 48.1653 2078.81 47.4129 Q2081.7 46.6606 2084.54 45.156 L2084.54 50.1907 Q2081.68 51.406 2078.67 52.0425 Q2075.66 52.6791 2072.56 52.6791 Q2064.81 52.6791 2060.26 48.1653 Q2055.75 43.6514 2055.75 35.9547 Q2055.75 27.9975 2060.03 23.339 Q2064.34 18.6515 2071.64 18.6515 Q2078.17 18.6515 2081.97 22.876 Q2085.78 27.0716 2085.78 34.3054 M2080.46 32.7429 Q2080.4 28.3737 2078 25.7695 Q2075.63 23.1654 2071.69 23.1654 Q2067.24 23.1654 2064.55 25.6827 Q2061.88 28.2001 2061.48 32.7718 L2080.46 32.7429 Z" fill="#000000" fill-rule="nonzero" fill-opacity="1" /><path clip-path="url(#clip210)" d="M2109.25 35.5496 Q2102.8 35.5496 2100.31 37.0253 Q2097.82 38.501 2097.82 42.06 Q2097.82 44.8956 2099.67 46.5738 Q2101.55 48.2231 2104.77 48.2231 Q2109.19 48.2231 2111.86 45.0981 Q2114.55 41.9442 2114.55 36.7359 L2114.55 35.5496 L2109.25 35.5496 M2119.87 33.3505 L2119.87 51.84 L2114.55 51.84 L2114.55 46.921 Q2112.72 49.8724 2110 51.2902 Q2107.28 52.6791 2103.35 52.6791 Q2098.37 52.6791 2095.42 49.9014 Q2092.5 47.0947 2092.5 42.4072 Q2092.5 36.9385 2096.14 34.1607 Q2099.82 31.3829 2107.08 31.3829 L2114.55 31.3829 L2114.55 30.8621 Q2114.55 27.1874 2112.12 25.1908 Q2109.71 23.1654 2105.34 23.1654 Q2102.57 23.1654 2099.93 23.8309 Q2097.3 24.4964 2094.87 25.8274 L2094.87 20.9085 Q2097.79 19.78 2100.54 19.2302 Q2103.29 18.6515 2105.89 18.6515 Q2112.93 18.6515 2116.4 22.2973 Q2119.87 25.9431 2119.87 33.3505 Z" fill="#000000" fill-rule="nonzero" fill-opacity="1" /><path clip-path="url(#clip210)" d="M2136.1 10.2314 L2136.1 19.4328 L2147.07 19.4328 L2147.07 23.5705 L2136.1 23.5705 L2136.1 41.163 Q2136.1 45.1271 2137.17 46.2555 Q2138.27 47.384 2141.6 47.384 L2147.07 47.384 L2147.07 51.84 L2141.6 51.84 Q2135.44 51.84 2133.09 49.5541 Q2130.75 47.2393 2130.75 41.163 L2130.75 23.5705 L2126.84 23.5705 L2126.84 19.4328 L2130.75 19.4328 L2130.75 10.2314 L2136.1 10.2314 Z" fill="#000000" fill-rule="nonzero" fill-opacity="1" /><path clip-path="url(#clip210)" d="M2166.63 23.1654 Q2162.35 23.1654 2159.86 26.5218 Q2157.37 29.8494 2157.37 35.6653 Q2157.37 41.4813 2159.83 44.8377 Q2162.32 48.1653 2166.63 48.1653 Q2170.88 48.1653 2173.37 44.8088 Q2175.86 41.4523 2175.86 35.6653 Q2175.86 29.9072 2173.37 26.5508 Q2170.88 23.1654 2166.63 23.1654 M2166.63 18.6515 Q2173.57 18.6515 2177.54 23.1654 Q2181.5 27.6792 2181.5 35.6653 Q2181.5 43.6225 2177.54 48.1653 Q2173.57 52.6791 2166.63 52.6791 Q2159.66 52.6791 2155.69 48.1653 Q2151.76 43.6225 2151.76 35.6653 Q2151.76 27.6792 2155.69 23.1654 Q2159.66 18.6515 2166.63 18.6515 M2170.65 4.44442 L2176.41 4.44442 L2166.98 15.324 L2162.55 15.324 L2170.65 4.44442 Z" fill="#000000" fill-rule="nonzero" fill-opacity="1" /><path clip-path="url(#clip210)" d="M2209.11 24.4096 Q2208.21 23.8888 2207.14 23.6573 Q2206.1 23.3969 2204.82 23.3969 Q2200.31 23.3969 2197.88 26.3482 Q2195.48 29.2707 2195.48 34.7683 L2195.48 51.84 L2190.12 51.84 L2190.12 19.4328 L2195.48 19.4328 L2195.48 24.4675 Q2197.16 21.5161 2199.85 20.0983 Q2202.54 18.6515 2206.39 18.6515 Q2206.94 18.6515 2207.6 18.7383 Q2208.27 18.7962 2209.08 18.9409 L2209.11 24.4096 Z" fill="#000000" fill-rule="nonzero" fill-opacity="1" /><path clip-path="url(#clip210)" d="M2214.69 19.4328 L2220.01 19.4328 L2220.01 51.84 L2214.69 51.84 L2214.69 19.4328 M2214.69 6.81709 L2220.01 6.81709 L2220.01 13.559 L2214.69 13.559 L2214.69 6.81709 Z" fill="#000000" fill-rule="nonzero" fill-opacity="1" /><path clip-path="url(#clip210)" d="M2245.88 35.5496 Q2239.43 35.5496 2236.94 37.0253 Q2234.45 38.501 2234.45 42.06 Q2234.45 44.8956 2236.3 46.5738 Q2238.19 48.2231 2241.4 48.2231 Q2245.82 48.2231 2248.49 45.0981 Q2251.18 41.9442 2251.18 36.7359 L2251.18 35.5496 L2245.88 35.5496 M2256.5 33.3505 L2256.5 51.84 L2251.18 51.84 L2251.18 46.921 Q2249.35 49.8724 2246.63 51.2902 Q2243.91 52.6791 2239.98 52.6791 Q2235 52.6791 2232.05 49.9014 Q2229.13 47.0947 2229.13 42.4072 Q2229.13 36.9385 2232.77 34.1607 Q2236.45 31.3829 2243.71 31.3829 L2251.18 31.3829 L2251.18 30.8621 Q2251.18 27.1874 2248.75 25.1908 Q2246.35 23.1654 2241.98 23.1654 Q2239.2 23.1654 2236.57 23.8309 Q2233.93 24.4964 2231.5 25.8274 L2231.5 20.9085 Q2234.42 19.78 2237.17 19.2302 Q2239.92 18.6515 2242.53 18.6515 Q2249.56 18.6515 2253.03 22.2973 Q2256.5 25.9431 2256.5 33.3505 Z" fill="#000000" fill-rule="nonzero" fill-opacity="1" /><polyline clip-path="url(#clip212)" style="stroke:#009af9; stroke-linecap:round; stroke-linejoin:round; stroke-width:4; stroke-opacity:1; fill:none" points="314.394,2145.67 319.905,2110.18 325.416,2074.53 330.928,2039.65 336.439,2005.89 341.951,1973.1 347.462,1940.2 352.973,1908.55 358.485,1877.26 363.996,1846.27 369.508,1815.72 375.019,1785.81 380.53,1757.57 386.042,1729.65 391.553,1701.52 397.064,1673.29 402.576,1643.7 408.087,1614.35 413.599,1585.04 419.11,1557.16 424.621,1529.38 430.133,1502.37 435.644,1476.4 441.155,1451.56 446.667,1426.46 452.178,1401.69 457.69,1376.92 463.201,1353.63 468.712,1330.53 474.224,1307.03 479.735,1283.66 485.247,1261.58 490.758,1239.43 496.269,1217.69 501.781,1196.76 507.292,1175.51 512.803,1156.9 518.315,1140.35 523.826,1125.13 529.338,1111.76 534.849,1097.37 540.36,1082.18 545.872,1068.29 551.383,1055.72 556.895,1044.04 562.406,1032.89 567.917,1022.54 573.429,1012.3 578.94,1002.2 584.451,992.443 589.963,982.974 595.474,973.73 600.986,963.396 606.497,951.81 612.008,941.486 617.52,931.853 623.031,922.459 628.543,912.741 634.054,903.266 639.565,893.778 645.077,885.23 650.588,877.896 656.099,871.342 661.611,864.486 667.122,857.955 672.634,852.055 678.145,846.818 683.656,841.258 689.168,837.006 694.679,832.926 700.19,828.527 705.702,823.881 711.213,820.302 716.725,817.392 722.236,815.313 727.747,813.433 733.259,811.454 738.77,809.436 744.282,807.4 749.793,805.284 755.304,803.103 760.816,801.061 766.327,798.941 771.838,795.766 777.35,792.416 782.861,789.545 788.373,786.682 793.884,783.098 799.395,779.664 804.907,775.472 810.418,770.086 815.93,766.276 821.441,763.022 826.952,758.876 832.464,755.206 837.975,752.112 843.486,749.796 848.998,748.193 854.509,745.857 860.021,743.795 865.532,742.54 871.043,741.12 876.555,738.86 882.066,734.907 887.578,730.379 893.089,724.421 898.6,717.875 904.112,710.936 909.623,706.234 915.134,702.54 920.646,697.491 926.157,691.705 931.669,685.983 937.18,680.286 942.691,673.273 948.203,667.116 953.714,661.069 959.225,654.976 964.737,649.065 970.248,642.21 975.76,635.628 981.271,629.14 986.782,622.466 992.294,615.854 997.805,609.914 1003.32,603.286 1008.83,595.931 1014.34,587.685 1019.85,580.755 1025.36,574.424 1030.87,570.112 1036.38,566.404 1041.9,563.15 1047.41,558.578 1052.92,555.463 1058.43,554.654 1063.94,554.301 1069.45,553.544 1074.96,554.85 1080.48,554.654 1085.99,554.168 1091.5,551.437 1097.01,546.848 1102.52,543.775 1108.03,543.039 1113.54,543.202 1119.06,543.167 1124.57,542.172 1130.08,541.298 1135.59,541.284 1141.1,540.974 1146.61,540.574 1152.12,539.179 1157.64,538.163 1163.15,537.007 1168.66,537.586 1174.17,539.063 1179.68,540.531 1185.19,540.795 1190.7,540.209 1196.21,538.793 1201.73,538.688 1207.24,537.906 1212.75,536.238 1218.26,533.793 1223.77,530.572 1229.28,529.518 1234.79,526.89 1240.31,523.129 1245.82,517.965 1251.33,512.074 1256.84,508.087 1262.35,503.483 1267.86,499.015 1273.37,495.435 1278.89,490.556 1284.4,486.163 1289.91,482.647 1295.42,478.99 1300.93,475.889 1306.44,472.574 1311.95,467.858 1317.47,461.353 1322.98,454.266 1328.49,446.84 1334,440.596 1339.51,433.566 1345.02,425.728 1350.53,419.929 1356.05,414.477 1361.56,409.662 1367.07,407.581 1372.58,407.147 1378.09,404.355 1383.6,399.927 1389.11,396.484 1394.62,392.54 1400.14,389.445 1405.65,386.911 1411.16,386.005 1416.67,385.727 1422.18,384.555 1427.69,382.336 1433.2,380.026 1438.72,377.842 1444.23,373.617 1449.74,367.945 1455.25,363.325 1460.76,359.946 1466.27,358.469 1471.78,355.208 1477.3,353.427 1482.81,350.08 1488.32,348.716 1493.83,349.858 1499.34,349.936 1504.85,350.253 1510.36,351.837 1515.88,351.904 1521.39,351.275 1526.9,351.231 1532.41,349.664 1537.92,350.535 1543.43,350.257 1548.94,349.023 1554.45,346.584 1559.97,345.069 1565.48,342.721 1570.99,340.316 1576.5,336.122 1582.01,330.76 1587.52,326.798 1593.03,322.862 1598.55,319.388 1604.06,317.687 1609.57,316.249 1615.08,314.459 1620.59,312.669 1626.1,311.021 1631.61,308.395 1637.13,306.41 1642.64,305.389 1648.15,305.769 1653.66,306.088 1659.17,307.769 1664.68,309.131 1670.19,310.245 1675.71,311.539 1681.22,313.742 1686.73,317.005 1692.24,319.799 1697.75,322.078 1703.26,325.872 1708.77,328.237 1714.28,329.784 1719.8,331.666 1725.31,331.985 1730.82,331.038 1736.33,332.06 1741.84,332.091 1747.35,333.616 1752.86,333.66 1758.38,332.862 1763.89,330.705 1769.4,328.324 1774.91,326.934 1780.42,325.606 1785.93,322.875 1791.44,318.951 1796.96,313.143 1802.47,307.015 1807.98,300.218 1813.49,295.533 1819,292.07 1824.51,290.061 1830.02,288.513 1835.54,289.586 1841.05,290.42 1846.56,291.097 1852.07,292.49 1857.58,293.112 1863.09,294.056 1868.6,295.123 1874.12,295.905 1879.63,296.149 1885.14,297.666 1890.65,296.25 1896.16,295.901 1901.67,295.873 1907.18,296.239 1912.69,296.246 1918.21,296.26 1923.72,297.176 1929.23,297.673 1934.74,299.428 1940.25,302.542 1945.76,304.573 1951.27,306.305 1956.79,306.783 1962.3,307.177 1967.81,307.774 1973.32,306.517 1978.83,304.462 1984.34,301.391 1989.85,299.363 1995.37,298.937 2000.88,296.865 2006.39,294.719 2011.9,293.492 2017.41,292.788 2022.92,289.713 2028.43,287.738 2033.95,284.438 2039.46,282.843 2044.97,283.185 2050.48,283.828 2055.99,284.326 2061.5,285.135 2067.01,283.576 2072.52,282.399 2078.04,280.201 2083.55,278.334 2089.06,275.663 2094.57,271.858 2100.08,269.567 2105.59,266.949 2111.1,265.569 2116.62,264.392 2122.13,263.281 2127.64,263.164 2133.15,262.752 2138.66,261.762 2144.17,260.694 2149.68,261.054 2155.2,260.631 2160.71,258.625 2166.22,258.437 2171.73,257.651 2177.24,258.648 2182.75,256.574 2188.26,254.391 2193.78,251.098 2199.29,246.965 2204.8,241.97 2210.31,236.922 2215.82,233.091 2221.33,229.806 2226.84,225.598 2232.35,222.354 2237.87,219.996 2243.38,219.395 2248.89,218.166 2254.4,217.407 2259.91,218.746 2265.42,218.095 2270.93,218.07 2276.45,217.934 2281.96,218.386 2287.47,219.105 2292.98,217.663 2298.49,213.887 2304,209.845 2309.51,205.484 2315.03,200.835 2320.54,196.648 2326.05,192.807 2331.56,189.17 2337.07,184.583 2342.58,180.074 2348.09,177.197 2353.61,174.755 2359.12,173.246 2364.63,171.861 2370.14,171.429 2375.65,170.971 2381.16,171.252 2386.67,170.908 2392.19,171.053 2397.7,170.837 2403.21,171.384 2408.72,173.032 2414.23,173.279 2419.74,172.5 2425.25,172.58 2430.76,173.735 2436.28,174.659 2441.79,175.724 2447.3,177.05 2452.81,178.754 2458.32,181.173 2463.83,184.149 2469.34,187.336 2474.86,191.185 2480.37,195.352 2485.88,201.501 2491.39,207.497 2496.9,212.081 2502.41,215.349 2507.92,219.02 2513.44,222.333 2518.95,225.266 2524.46,225.14 2529.97,224.691 2535.48,224.504 2540.99,225.543 2546.5,227.181 2552.02,229.589 2557.53,232.258 2563.04,235.597 2568.55,240.073 2574.06,244.509 2579.57,250.44 2585.08,254.611 2590.59,254.6 2596.11,255.304 2601.62,257.829 2607.13,258.132 2612.64,260.46 2618.15,261.941 2623.66,263.67 2629.17,264.583 2634.69,264.616 2640.2,264.967 2645.71,264.631 2651.22,265.189 2656.73,265.803 2662.24,264.498 2667.75,263.24 2673.27,261.658 2678.78,261.64 2684.29,261.786 2689.8,261.57 2695.31,261.752 2700.82,259.376 2706.33,257.351 2711.85,256.768 2717.36,256.565 2722.87,255.987 2728.38,256.937 2733.89,258.549 2739.4,260.777 2744.91,260.046 2750.42,258.533 2755.94,257.048 2761.45,254.71 2766.96,252.34 2772.47,251.842 2777.98,251.662 2783.49,253.018 2789,254.455 2794.52,254.408 2800.03,253.495 2805.54,252.378 2811.05,251.827 2816.56,249.787 2822.07,247.852 2827.58,247.072 2833.1,246.347 2838.61,244.755 2844.12,243.432 2849.63,243.353 2855.14,243.69 2860.65,243.916 2866.16,245.135 2871.68,246.39 2877.19,248.026 2882.7,249.477 2888.21,251.498 2893.72,253.365 2899.23,256.177 2904.74,258.142 2910.26,262.291 2915.77,267.574 2921.28,271.738 2926.79,278.979 2932.3,285.434 2937.81,291.617 2943.32,299.405 2948.83,305.558 2954.35,313.466 2959.86,321.941 2965.37,329.674 2970.88,337.522 2976.39,345.213 2981.9,351.403 2987.41,357.799 2992.93,364.161 2998.44,369.921 3003.95,374.111 3009.46,377.84 3014.97,381.051 3020.48,382.484 3025.99,383.076 3031.51,383.31 3037.02,382.394 3042.53,380.974 3048.04,378.795 3053.55,376.876 3059.06,374.935 3064.57,372.927 3070.09,373.179 "/>
</svg>
