<?xml version="1.0" encoding="utf-8"?>
<svg xmlns="http://www.w3.org/2000/svg" xmlns:xlink="http://www.w3.org/1999/xlink" width="800" height="600" viewBox="0 0 3200 2400">
<defs>
  <clipPath id="clip700">
    <rect x="0" y="0" width="3200" height="2400"/>
  </clipPath>
</defs>
<path clip-path="url(#clip700)" d="M0 2400 L3200 2400 L3200 0 L0 0  Z" fill="#ffffff" fill-rule="evenodd" fill-opacity="1"/>
<defs>
  <clipPath id="clip701">
    <rect x="640" y="0" width="2241" height="2241"/>
  </clipPath>
</defs>
<path clip-path="url(#clip700)" d="M215.172 2204.92 L3152.76 2204.92 L3152.76 111.592 L215.172 111.592  Z" fill="#eaeaea" fill-rule="evenodd" fill-opacity="1"/>
<defs>
  <clipPath id="clip702">
    <rect x="215" y="111" width="2939" height="2094"/>
  </clipPath>
</defs>
<polyline clip-path="url(#clip702)" style="stroke:#ffffff; stroke-linecap:round; stroke-linejoin:round; stroke-width:2; stroke-opacity:1; fill:none" points="575.442,2204.92 575.442,111.592 "/>
<polyline clip-path="url(#clip702)" style="stroke:#ffffff; stroke-linecap:round; stroke-linejoin:round; stroke-width:2; stroke-opacity:1; fill:none" points="1129.7,2204.92 1129.7,111.592 "/>
<polyline clip-path="url(#clip702)" style="stroke:#ffffff; stroke-linecap:round; stroke-linejoin:round; stroke-width:2; stroke-opacity:1; fill:none" points="1683.96,2204.92 1683.96,111.592 "/>
<polyline clip-path="url(#clip702)" style="stroke:#ffffff; stroke-linecap:round; stroke-linejoin:round; stroke-width:2; stroke-opacity:1; fill:none" points="2238.23,2204.92 2238.23,111.592 "/>
<polyline clip-path="url(#clip702)" style="stroke:#ffffff; stroke-linecap:round; stroke-linejoin:round; stroke-width:2; stroke-opacity:1; fill:none" points="2792.49,2204.92 2792.49,111.592 "/>
<polyline clip-path="url(#clip702)" style="stroke:#ffffff; stroke-linecap:round; stroke-linejoin:round; stroke-width:2; stroke-opacity:1; fill:none" points="215.172,2084.49 3152.76,2084.49 "/>
<polyline clip-path="url(#clip702)" style="stroke:#ffffff; stroke-linecap:round; stroke-linejoin:round; stroke-width:2; stroke-opacity:1; fill:none" points="215.172,1723.34 3152.76,1723.34 "/>
<polyline clip-path="url(#clip702)" style="stroke:#ffffff; stroke-linecap:round; stroke-linejoin:round; stroke-width:2; stroke-opacity:1; fill:none" points="215.172,1362.19 3152.76,1362.19 "/>
<polyline clip-path="url(#clip702)" style="stroke:#ffffff; stroke-linecap:round; stroke-linejoin:round; stroke-width:2; stroke-opacity:1; fill:none" points="215.172,1001.04 3152.76,1001.04 "/>
<polyline clip-path="url(#clip702)" style="stroke:#ffffff; stroke-linecap:round; stroke-linejoin:round; stroke-width:2; stroke-opacity:1; fill:none" points="215.172,639.89 3152.76,639.89 "/>
<polyline clip-path="url(#clip702)" style="stroke:#ffffff; stroke-linecap:round; stroke-linejoin:round; stroke-width:2; stroke-opacity:1; fill:none" points="215.172,278.74 3152.76,278.74 "/>
<polyline clip-path="url(#clip702)" style="stroke:#ffffff; stroke-linecap:round; stroke-linejoin:round; stroke-width:4; stroke-opacity:1; fill:none" points="298.311,2204.92 298.311,111.592 "/>
<polyline clip-path="url(#clip702)" style="stroke:#ffffff; stroke-linecap:round; stroke-linejoin:round; stroke-width:4; stroke-opacity:1; fill:none" points="852.572,2204.92 852.572,111.592 "/>
<polyline clip-path="url(#clip702)" style="stroke:#ffffff; stroke-linecap:round; stroke-linejoin:round; stroke-width:4; stroke-opacity:1; fill:none" points="1406.83,2204.92 1406.83,111.592 "/>
<polyline clip-path="url(#clip702)" style="stroke:#ffffff; stroke-linecap:round; stroke-linejoin:round; stroke-width:4; stroke-opacity:1; fill:none" points="1961.09,2204.92 1961.09,111.592 "/>
<polyline clip-path="url(#clip702)" style="stroke:#ffffff; stroke-linecap:round; stroke-linejoin:round; stroke-width:4; stroke-opacity:1; fill:none" points="2515.36,2204.92 2515.36,111.592 "/>
<polyline clip-path="url(#clip702)" style="stroke:#ffffff; stroke-linecap:round; stroke-linejoin:round; stroke-width:4; stroke-opacity:1; fill:none" points="3069.62,2204.92 3069.62,111.592 "/>
<polyline clip-path="url(#clip702)" style="stroke:#ffffff; stroke-linecap:round; stroke-linejoin:round; stroke-width:4; stroke-opacity:1; fill:none" points="215.172,1903.91 3152.76,1903.91 "/>
<polyline clip-path="url(#clip702)" style="stroke:#ffffff; stroke-linecap:round; stroke-linejoin:round; stroke-width:4; stroke-opacity:1; fill:none" points="215.172,1542.76 3152.76,1542.76 "/>
<polyline clip-path="url(#clip702)" style="stroke:#ffffff; stroke-linecap:round; stroke-linejoin:round; stroke-width:4; stroke-opacity:1; fill:none" points="215.172,1181.61 3152.76,1181.61 "/>
<polyline clip-path="url(#clip702)" style="stroke:#ffffff; stroke-linecap:round; stroke-linejoin:round; stroke-width:4; stroke-opacity:1; fill:none" points="215.172,820.465 3152.76,820.465 "/>
<polyline clip-path="url(#clip702)" style="stroke:#ffffff; stroke-linecap:round; stroke-linejoin:round; stroke-width:4; stroke-opacity:1; fill:none" points="215.172,459.315 3152.76,459.315 "/>
<polyline clip-path="url(#clip700)" style="stroke:#ffffff; stroke-linecap:round; stroke-linejoin:round; stroke-width:4; stroke-opacity:1; fill:none" points="215.172,2204.92 3152.76,2204.92 "/>
<polyline clip-path="url(#clip700)" style="stroke:#333333; stroke-linecap:round; stroke-linejoin:round; stroke-width:4; stroke-opacity:1; fill:none" points="298.311,2204.92 298.311,2223.82 "/>
<polyline clip-path="url(#clip700)" style="stroke:#333333; stroke-linecap:round; stroke-linejoin:round; stroke-width:4; stroke-opacity:1; fill:none" points="852.572,2204.92 852.572,2223.82 "/>
<polyline clip-path="url(#clip700)" style="stroke:#333333; stroke-linecap:round; stroke-linejoin:round; stroke-width:4; stroke-opacity:1; fill:none" points="1406.83,2204.92 1406.83,2223.82 "/>
<polyline clip-path="url(#clip700)" style="stroke:#333333; stroke-linecap:round; stroke-linejoin:round; stroke-width:4; stroke-opacity:1; fill:none" points="1961.09,2204.92 1961.09,2223.82 "/>
<polyline clip-path="url(#clip700)" style="stroke:#333333; stroke-linecap:round; stroke-linejoin:round; stroke-width:4; stroke-opacity:1; fill:none" points="2515.36,2204.92 2515.36,2223.82 "/>
<polyline clip-path="url(#clip700)" style="stroke:#333333; stroke-linecap:round; stroke-linejoin:round; stroke-width:4; stroke-opacity:1; fill:none" points="3069.62,2204.92 3069.62,2223.82 "/>
<polyline clip-path="url(#clip700)" style="stroke:#333333; stroke-linecap:round; stroke-linejoin:round; stroke-width:4; stroke-opacity:1; fill:none" points="575.442,2204.92 575.442,2214.37 "/>
<polyline clip-path="url(#clip700)" style="stroke:#333333; stroke-linecap:round; stroke-linejoin:round; stroke-width:4; stroke-opacity:1; fill:none" points="1129.7,2204.92 1129.7,2214.37 "/>
<polyline clip-path="url(#clip700)" style="stroke:#333333; stroke-linecap:round; stroke-linejoin:round; stroke-width:4; stroke-opacity:1; fill:none" points="1683.96,2204.92 1683.96,2214.37 "/>
<polyline clip-path="url(#clip700)" style="stroke:#333333; stroke-linecap:round; stroke-linejoin:round; stroke-width:4; stroke-opacity:1; fill:none" points="2238.23,2204.92 2238.23,2214.37 "/>
<polyline clip-path="url(#clip700)" style="stroke:#333333; stroke-linecap:round; stroke-linejoin:round; stroke-width:4; stroke-opacity:1; fill:none" points="2792.49,2204.92 2792.49,2214.37 "/>
<path clip-path="url(#clip700)" d="M298.311 2255.04 Q294.7 2255.04 292.871 2258.6 Q291.066 2262.14 291.066 2269.27 Q291.066 2276.38 292.871 2279.95 Q294.7 2283.49 298.311 2283.49 Q301.946 2283.49 303.751 2279.95 Q305.58 2276.38 305.58 2269.27 Q305.58 2262.14 303.751 2258.6 Q301.946 2255.04 298.311 2255.04 M298.311 2251.33 Q304.121 2251.33 307.177 2255.94 Q310.256 2260.52 310.256 2269.27 Q310.256 2278 307.177 2282.61 Q304.121 2287.19 298.311 2287.19 Q292.501 2287.19 289.422 2282.61 Q286.367 2278 286.367 2269.27 Q286.367 2260.52 289.422 2255.94 Q292.501 2251.33 298.311 2251.33 Z" fill="#4c4c4c" fill-rule="nonzero" fill-opacity="1" /><path clip-path="url(#clip700)" d="M842.954 2282.58 L850.593 2282.58 L850.593 2256.22 L842.283 2257.89 L842.283 2253.63 L850.547 2251.96 L855.223 2251.96 L855.223 2282.58 L862.862 2282.58 L862.862 2286.52 L842.954 2286.52 L842.954 2282.58 Z" fill="#4c4c4c" fill-rule="nonzero" fill-opacity="1" /><path clip-path="url(#clip700)" d="M1401.49 2282.58 L1417.81 2282.58 L1417.81 2286.52 L1395.86 2286.52 L1395.86 2282.58 Q1398.52 2279.83 1403.11 2275.2 Q1407.71 2270.55 1408.89 2269.21 Q1411.14 2266.68 1412.02 2264.95 Q1412.92 2263.19 1412.92 2261.5 Q1412.92 2258.74 1410.98 2257.01 Q1409.06 2255.27 1405.95 2255.27 Q1403.75 2255.27 1401.3 2256.03 Q1398.87 2256.8 1396.09 2258.35 L1396.09 2253.63 Q1398.92 2252.49 1401.37 2251.91 Q1403.82 2251.33 1405.86 2251.33 Q1411.23 2251.33 1414.43 2254.02 Q1417.62 2256.71 1417.62 2261.2 Q1417.62 2263.33 1416.81 2265.25 Q1416.02 2267.14 1413.92 2269.74 Q1413.34 2270.41 1410.24 2273.63 Q1407.13 2276.82 1401.49 2282.58 Z" fill="#4c4c4c" fill-rule="nonzero" fill-opacity="1" /><path clip-path="url(#clip700)" d="M1965.34 2267.89 Q1968.7 2268.6 1970.57 2270.87 Q1972.47 2273.14 1972.47 2276.47 Q1972.47 2281.59 1968.95 2284.39 Q1965.43 2287.19 1958.95 2287.19 Q1956.78 2287.19 1954.46 2286.75 Q1952.17 2286.33 1949.72 2285.48 L1949.72 2280.96 Q1951.66 2282.1 1953.98 2282.68 Q1956.29 2283.26 1958.81 2283.26 Q1963.21 2283.26 1965.5 2281.52 Q1967.82 2279.78 1967.82 2276.47 Q1967.82 2273.42 1965.67 2271.71 Q1963.54 2269.97 1959.72 2269.97 L1955.69 2269.97 L1955.69 2266.13 L1959.9 2266.13 Q1963.35 2266.13 1965.18 2264.76 Q1967.01 2263.37 1967.01 2260.78 Q1967.01 2258.12 1965.11 2256.71 Q1963.24 2255.27 1959.72 2255.27 Q1957.8 2255.27 1955.6 2255.69 Q1953.4 2256.1 1950.76 2256.98 L1950.76 2252.82 Q1953.42 2252.08 1955.74 2251.71 Q1958.07 2251.33 1960.13 2251.33 Q1965.46 2251.33 1968.56 2253.77 Q1971.66 2256.17 1971.66 2260.29 Q1971.66 2263.16 1970.02 2265.15 Q1968.37 2267.12 1965.34 2267.89 Z" fill="#4c4c4c" fill-rule="nonzero" fill-opacity="1" /><path clip-path="url(#clip700)" d="M2518.36 2256.03 L2506.56 2274.48 L2518.36 2274.48 L2518.36 2256.03 M2517.14 2251.96 L2523.02 2251.96 L2523.02 2274.48 L2527.95 2274.48 L2527.95 2278.37 L2523.02 2278.37 L2523.02 2286.52 L2518.36 2286.52 L2518.36 2278.37 L2502.76 2278.37 L2502.76 2273.86 L2517.14 2251.96 Z" fill="#4c4c4c" fill-rule="nonzero" fill-opacity="1" /><path clip-path="url(#clip700)" d="M3059.89 2251.96 L3078.25 2251.96 L3078.25 2255.9 L3064.18 2255.9 L3064.18 2264.37 Q3065.2 2264.02 3066.21 2263.86 Q3067.23 2263.67 3068.25 2263.67 Q3074.04 2263.67 3077.42 2266.84 Q3080.8 2270.02 3080.8 2275.43 Q3080.8 2281.01 3077.33 2284.11 Q3073.85 2287.19 3067.53 2287.19 Q3065.36 2287.19 3063.09 2286.82 Q3060.84 2286.45 3058.44 2285.71 L3058.44 2281.01 Q3060.52 2282.14 3062.74 2282.7 Q3064.96 2283.26 3067.44 2283.26 Q3071.45 2283.26 3073.78 2281.15 Q3076.12 2279.04 3076.12 2275.43 Q3076.12 2271.82 3073.78 2269.71 Q3071.45 2267.61 3067.44 2267.61 Q3065.57 2267.61 3063.69 2268.02 Q3061.84 2268.44 3059.89 2269.32 L3059.89 2251.96 Z" fill="#4c4c4c" fill-rule="nonzero" fill-opacity="1" /><path clip-path="url(#clip700)" d="M1683.03 2316.01 L1683.03 2326.14 L1695.09 2326.14 L1695.09 2330.69 L1683.03 2330.69 L1683.03 2350.04 Q1683.03 2354.4 1684.2 2355.64 Q1685.41 2356.88 1689.07 2356.88 L1695.09 2356.88 L1695.09 2361.78 L1689.07 2361.78 Q1682.29 2361.78 1679.71 2359.27 Q1677.14 2356.72 1677.14 2350.04 L1677.14 2330.69 L1672.84 2330.69 L1672.84 2326.14 L1677.14 2326.14 L1677.14 2316.01 L1683.03 2316.01 Z" fill="#000000" fill-rule="nonzero" fill-opacity="1" /><polyline clip-path="url(#clip700)" style="stroke:#ffffff; stroke-linecap:round; stroke-linejoin:round; stroke-width:4; stroke-opacity:1; fill:none" points="215.172,2204.92 215.172,111.592 "/>
<polyline clip-path="url(#clip700)" style="stroke:#333333; stroke-linecap:round; stroke-linejoin:round; stroke-width:4; stroke-opacity:1; fill:none" points="215.172,1903.91 196.274,1903.91 "/>
<polyline clip-path="url(#clip700)" style="stroke:#333333; stroke-linecap:round; stroke-linejoin:round; stroke-width:4; stroke-opacity:1; fill:none" points="215.172,1542.76 196.274,1542.76 "/>
<polyline clip-path="url(#clip700)" style="stroke:#333333; stroke-linecap:round; stroke-linejoin:round; stroke-width:4; stroke-opacity:1; fill:none" points="215.172,1181.61 196.274,1181.61 "/>
<polyline clip-path="url(#clip700)" style="stroke:#333333; stroke-linecap:round; stroke-linejoin:round; stroke-width:4; stroke-opacity:1; fill:none" points="215.172,820.465 196.274,820.465 "/>
<polyline clip-path="url(#clip700)" style="stroke:#333333; stroke-linecap:round; stroke-linejoin:round; stroke-width:4; stroke-opacity:1; fill:none" points="215.172,459.315 196.274,459.315 "/>
<polyline clip-path="url(#clip700)" style="stroke:#333333; stroke-linecap:round; stroke-linejoin:round; stroke-width:4; stroke-opacity:1; fill:none" points="215.172,2084.49 205.723,2084.49 "/>
<polyline clip-path="url(#clip700)" style="stroke:#333333; stroke-linecap:round; stroke-linejoin:round; stroke-width:4; stroke-opacity:1; fill:none" points="215.172,1723.34 205.723,1723.34 "/>
<polyline clip-path="url(#clip700)" style="stroke:#333333; stroke-linecap:round; stroke-linejoin:round; stroke-width:4; stroke-opacity:1; fill:none" points="215.172,1362.19 205.723,1362.19 "/>
<polyline clip-path="url(#clip700)" style="stroke:#333333; stroke-linecap:round; stroke-linejoin:round; stroke-width:4; stroke-opacity:1; fill:none" points="215.172,1001.04 205.723,1001.04 "/>
<polyline clip-path="url(#clip700)" style="stroke:#333333; stroke-linecap:round; stroke-linejoin:round; stroke-width:4; stroke-opacity:1; fill:none" points="215.172,639.89 205.723,639.89 "/>
<polyline clip-path="url(#clip700)" style="stroke:#333333; stroke-linecap:round; stroke-linejoin:round; stroke-width:4; stroke-opacity:1; fill:none" points="215.172,278.74 205.723,278.74 "/>
<path clip-path="url(#clip700)" d="M136.043 1902.56 Q139.399 1903.28 141.274 1905.55 Q143.172 1907.82 143.172 1911.15 Q143.172 1916.26 139.654 1919.06 Q136.135 1921.87 129.654 1921.87 Q127.478 1921.87 125.163 1921.43 Q122.871 1921.01 120.418 1920.15 L120.418 1915.64 Q122.362 1916.77 124.677 1917.35 Q126.992 1917.93 129.515 1917.93 Q133.913 1917.93 136.205 1916.19 Q138.519 1914.46 138.519 1911.15 Q138.519 1908.09 136.367 1906.38 Q134.237 1904.64 130.418 1904.64 L126.39 1904.64 L126.39 1900.8 L130.603 1900.8 Q134.052 1900.8 135.88 1899.44 Q137.709 1898.05 137.709 1895.45 Q137.709 1892.79 135.811 1891.38 Q133.936 1889.94 130.418 1889.94 Q128.496 1889.94 126.297 1890.36 Q124.098 1890.78 121.459 1891.66 L121.459 1887.49 Q124.121 1886.75 126.436 1886.38 Q128.774 1886.01 130.834 1886.01 Q136.158 1886.01 139.26 1888.44 Q142.362 1890.85 142.362 1894.97 Q142.362 1897.84 140.718 1899.83 Q139.075 1901.8 136.043 1902.56 Z" fill="#4c4c4c" fill-rule="nonzero" fill-opacity="1" /><path clip-path="url(#clip700)" d="M131.644 1540.9 Q128.496 1540.9 126.644 1543.05 Q124.816 1545.21 124.816 1548.96 Q124.816 1552.68 126.644 1554.86 Q128.496 1557.01 131.644 1557.01 Q134.793 1557.01 136.621 1554.86 Q138.473 1552.68 138.473 1548.96 Q138.473 1545.21 136.621 1543.05 Q134.793 1540.9 131.644 1540.9 M140.927 1526.25 L140.927 1530.51 Q139.167 1529.67 137.362 1529.23 Q135.58 1528.79 133.82 1528.79 Q129.191 1528.79 126.737 1531.92 Q124.306 1535.04 123.959 1541.36 Q125.325 1539.35 127.385 1538.29 Q129.445 1537.2 131.922 1537.2 Q137.13 1537.2 140.14 1540.37 Q143.172 1543.52 143.172 1548.96 Q143.172 1554.28 140.024 1557.5 Q136.876 1560.72 131.644 1560.72 Q125.649 1560.72 122.478 1556.13 Q119.306 1551.53 119.306 1542.8 Q119.306 1534.61 123.195 1529.74 Q127.084 1524.86 133.635 1524.86 Q135.394 1524.86 137.177 1525.21 Q138.982 1525.55 140.927 1526.25 Z" fill="#4c4c4c" fill-rule="nonzero" fill-opacity="1" /><path clip-path="url(#clip700)" d="M121.552 1198.18 L121.552 1193.92 Q123.311 1194.75 125.117 1195.19 Q126.922 1195.63 128.658 1195.63 Q133.288 1195.63 135.718 1192.53 Q138.172 1189.4 138.519 1183.06 Q137.177 1185.05 135.117 1186.12 Q133.056 1187.18 130.556 1187.18 Q125.371 1187.18 122.339 1184.06 Q119.33 1180.91 119.33 1175.47 Q119.33 1170.15 122.478 1166.93 Q125.626 1163.71 130.857 1163.71 Q136.853 1163.71 140.001 1168.32 Q143.172 1172.9 143.172 1181.65 Q143.172 1189.82 139.283 1194.71 Q135.418 1199.57 128.867 1199.57 Q127.107 1199.57 125.302 1199.22 Q123.496 1198.87 121.552 1198.18 M130.857 1183.52 Q134.005 1183.52 135.834 1181.37 Q137.686 1179.22 137.686 1175.47 Q137.686 1171.74 135.834 1169.59 Q134.005 1167.41 130.857 1167.41 Q127.709 1167.41 125.857 1169.59 Q124.029 1171.74 124.029 1175.47 Q124.029 1179.22 125.857 1181.37 Q127.709 1183.52 130.857 1183.52 Z" fill="#4c4c4c" fill-rule="nonzero" fill-opacity="1" /><path clip-path="url(#clip700)" d="M93.4733 833.81 L101.112 833.81 L101.112 807.444 L92.802 809.111 L92.802 804.852 L101.066 803.185 L105.742 803.185 L105.742 833.81 L113.381 833.81 L113.381 837.745 L93.4733 837.745 L93.4733 833.81 Z" fill="#4c4c4c" fill-rule="nonzero" fill-opacity="1" /><path clip-path="url(#clip700)" d="M126.853 833.81 L143.172 833.81 L143.172 837.745 L121.228 837.745 L121.228 833.81 Q123.89 831.055 128.473 826.426 Q133.08 821.773 134.26 820.43 Q136.505 817.907 137.385 816.171 Q138.288 814.412 138.288 812.722 Q138.288 809.967 136.343 808.231 Q134.422 806.495 131.32 806.495 Q129.121 806.495 126.668 807.259 Q124.237 808.023 121.459 809.574 L121.459 804.852 Q124.283 803.717 126.737 803.139 Q129.191 802.56 131.228 802.56 Q136.598 802.56 139.792 805.245 Q142.987 807.93 142.987 812.421 Q142.987 814.551 142.177 816.472 Q141.39 818.37 139.283 820.963 Q138.705 821.634 135.603 824.852 Q132.501 828.046 126.853 833.81 Z" fill="#4c4c4c" fill-rule="nonzero" fill-opacity="1" /><path clip-path="url(#clip700)" d="M92.8715 472.66 L100.51 472.66 L100.51 446.294 L92.2002 447.961 L92.2002 443.702 L100.464 442.035 L105.14 442.035 L105.14 472.66 L112.779 472.66 L112.779 476.595 L92.8715 476.595 L92.8715 472.66 Z" fill="#4c4c4c" fill-rule="nonzero" fill-opacity="1" /><path clip-path="url(#clip700)" d="M122.269 442.035 L140.626 442.035 L140.626 445.97 L126.552 445.97 L126.552 454.442 Q127.57 454.095 128.589 453.933 Q129.607 453.748 130.626 453.748 Q136.413 453.748 139.792 456.919 Q143.172 460.091 143.172 465.507 Q143.172 471.086 139.7 474.188 Q136.228 477.266 129.908 477.266 Q127.732 477.266 125.464 476.896 Q123.219 476.526 120.811 475.785 L120.811 471.086 Q122.894 472.22 125.117 472.776 Q127.339 473.331 129.816 473.331 Q133.82 473.331 136.158 471.225 Q138.496 469.118 138.496 465.507 Q138.496 461.896 136.158 459.79 Q133.82 457.683 129.816 457.683 Q127.941 457.683 126.066 458.1 Q124.214 458.517 122.269 459.396 L122.269 442.035 Z" fill="#4c4c4c" fill-rule="nonzero" fill-opacity="1" /><path clip-path="url(#clip700)" d="M18.2962 1141.64 L35.6428 1154.53 L53.9442 1140.97 L53.9442 1147.88 L39.9396 1158.26 L53.9442 1168.63 L53.9442 1175.54 L35.2926 1161.69 L18.2962 1174.36 L18.2962 1167.45 L30.9958 1158 L18.2962 1148.55 L18.2962 1141.64 Z" fill="#000000" fill-rule="nonzero" fill-opacity="1" /><path clip-path="url(#clip700)" d="M626.895 20.3876 L626.895 25.4223 Q624.638 24.2649 622.208 23.6862 Q619.777 23.1075 617.173 23.1075 Q613.209 23.1075 611.212 24.3228 Q609.245 25.5381 609.245 27.9686 Q609.245 29.8204 610.662 30.891 Q612.08 31.9327 616.363 32.8876 L618.186 33.2926 Q623.857 34.5079 626.23 36.7359 Q628.631 38.935 628.631 42.8991 Q628.631 47.4129 625.043 50.046 Q621.484 52.6791 615.234 52.6791 Q612.63 52.6791 609.794 52.1583 Q606.988 51.6664 603.863 50.6537 L603.863 45.156 Q606.814 46.6896 609.679 47.4708 Q612.543 48.2231 615.35 48.2231 Q619.111 48.2231 621.137 46.95 Q623.162 45.6479 623.162 43.3042 Q623.162 41.134 621.687 39.9766 Q620.24 38.8192 615.292 37.7486 L613.44 37.3146 Q608.492 36.273 606.293 34.1318 Q604.094 31.9616 604.094 28.2001 Q604.094 23.6283 607.335 21.1399 Q610.576 18.6515 616.536 18.6515 Q619.488 18.6515 622.092 19.0855 Q624.696 19.5196 626.895 20.3876 Z" fill="#000000" fill-rule="nonzero" fill-opacity="1" /><path clip-path="url(#clip700)" d="M649.667 23.1654 Q645.385 23.1654 642.896 26.5218 Q640.408 29.8494 640.408 35.6653 Q640.408 41.4813 642.867 44.8377 Q645.356 48.1653 649.667 48.1653 Q653.92 48.1653 656.409 44.8088 Q658.897 41.4523 658.897 35.6653 Q658.897 29.9072 656.409 26.5508 Q653.92 23.1654 649.667 23.1654 M649.667 18.6515 Q656.611 18.6515 660.575 23.1654 Q664.539 27.6792 664.539 35.6653 Q664.539 43.6225 660.575 48.1653 Q656.611 52.6791 649.667 52.6791 Q642.694 52.6791 638.729 48.1653 Q634.794 43.6225 634.794 35.6653 Q634.794 27.6792 638.729 23.1654 Q642.694 18.6515 649.667 18.6515 Z" fill="#000000" fill-rule="nonzero" fill-opacity="1" /><path clip-path="url(#clip700)" d="M673.365 6.81709 L678.689 6.81709 L678.689 51.84 L673.365 51.84 L673.365 6.81709 Z" fill="#000000" fill-rule="nonzero" fill-opacity="1" /><path clip-path="url(#clip700)" d="M689.279 39.0507 L689.279 19.4328 L694.603 19.4328 L694.603 38.8482 Q694.603 43.4488 696.397 45.7636 Q698.191 48.0495 701.779 48.0495 Q706.09 48.0495 708.579 45.3007 Q711.096 42.5519 711.096 37.8065 L711.096 19.4328 L716.42 19.4328 L716.42 51.84 L711.096 51.84 L711.096 46.8632 Q709.157 49.8145 706.582 51.2613 Q704.036 52.6791 700.65 52.6791 Q695.066 52.6791 692.172 49.2069 Q689.279 45.7347 689.279 39.0507 M702.676 18.6515 L702.676 18.6515 Z" fill="#000000" fill-rule="nonzero" fill-opacity="1" /><path clip-path="url(#clip700)" d="M750.708 20.677 L750.708 25.6538 Q748.451 24.4096 746.165 23.802 Q743.908 23.1654 741.593 23.1654 Q736.414 23.1654 733.55 26.464 Q730.685 29.7336 730.685 35.6653 Q730.685 41.597 733.55 44.8956 Q736.414 48.1653 741.593 48.1653 Q743.908 48.1653 746.165 47.5576 Q748.451 46.921 750.708 45.6768 L750.708 50.5958 Q748.48 51.6375 746.078 52.1583 Q743.706 52.6791 741.015 52.6791 Q733.694 52.6791 729.383 48.0784 Q725.072 43.4778 725.072 35.6653 Q725.072 27.7371 729.412 23.1943 Q733.781 18.6515 741.362 18.6515 Q743.821 18.6515 746.165 19.1724 Q748.509 19.6642 750.708 20.677 M743.185 51.84 Q744.776 53.634 745.558 55.1386 Q746.339 56.6722 746.339 58.061 Q746.339 60.6362 744.603 61.9383 Q742.867 63.2693 739.452 63.2693 Q738.121 63.2693 736.848 63.0957 Q735.604 62.9221 734.36 62.5749 L734.36 58.7844 Q735.344 59.2763 736.414 59.4788 Q737.485 59.7103 738.845 59.7103 Q740.552 59.7103 741.42 59.0159 Q742.288 58.3214 742.288 56.9904 Q742.288 56.1224 741.651 54.8492 Q741.044 53.605 739.742 51.84 L743.185 51.84 Z" fill="#000000" fill-rule="nonzero" fill-opacity="1" /><path clip-path="url(#clip700)" d="M774.695 35.5496 Q768.243 35.5496 765.754 37.0253 Q763.266 38.501 763.266 42.06 Q763.266 44.8956 765.118 46.5738 Q766.998 48.2231 770.21 48.2231 Q774.637 48.2231 777.299 45.0981 Q779.99 41.9442 779.99 36.7359 L779.99 35.5496 L774.695 35.5496 M785.314 33.3505 L785.314 51.84 L779.99 51.84 L779.99 46.921 Q778.167 49.8724 775.447 51.2902 Q772.728 52.6791 768.792 52.6791 Q763.816 52.6791 760.864 49.9014 Q757.942 47.0947 757.942 42.4072 Q757.942 36.9385 761.588 34.1607 Q765.262 31.3829 772.525 31.3829 L779.99 31.3829 L779.99 30.8621 Q779.99 27.1874 777.56 25.1908 Q775.158 23.1654 770.789 23.1654 Q768.011 23.1654 765.378 23.8309 Q762.745 24.4964 760.314 25.8274 L760.314 20.9085 Q763.237 19.78 765.986 19.2302 Q768.735 18.6515 771.339 18.6515 Q778.37 18.6515 781.842 22.2973 Q785.314 25.9431 785.314 33.3505 M771.454 12.199 L769.805 10.6076 Q769.169 10.0289 768.677 9.76847 Q768.214 9.47912 767.838 9.47912 Q766.738 9.47912 766.217 10.5497 Q765.696 11.5914 765.638 13.964 L762.022 13.964 Q762.079 10.0578 763.555 7.94556 Q765.031 5.80437 767.664 5.80437 Q768.763 5.80437 769.689 6.20946 Q770.615 6.61455 771.686 7.5694 L773.335 9.16083 Q773.972 9.73953 774.435 10.0289 Q774.927 10.2893 775.303 10.2893 Q776.402 10.2893 776.923 9.24764 Q777.444 8.17704 777.502 5.80437 L781.119 5.80437 Q781.061 9.7106 779.585 11.8518 Q778.109 13.964 775.476 13.964 Q774.377 13.964 773.451 13.559 Q772.525 13.1539 771.454 12.199 Z" fill="#000000" fill-rule="nonzero" fill-opacity="1" /><path clip-path="url(#clip700)" d="M808.838 23.1654 Q804.556 23.1654 802.068 26.5218 Q799.579 29.8494 799.579 35.6653 Q799.579 41.4813 802.039 44.8377 Q804.527 48.1653 808.838 48.1653 Q813.092 48.1653 815.58 44.8088 Q818.069 41.4523 818.069 35.6653 Q818.069 29.9072 815.58 26.5508 Q813.092 23.1654 808.838 23.1654 M808.838 18.6515 Q815.783 18.6515 819.747 23.1654 Q823.711 27.6792 823.711 35.6653 Q823.711 43.6225 819.747 48.1653 Q815.783 52.6791 808.838 52.6791 Q801.865 52.6791 797.901 48.1653 Q793.966 43.6225 793.966 35.6653 Q793.966 27.6792 797.901 23.1654 Q801.865 18.6515 808.838 18.6515 Z" fill="#000000" fill-rule="nonzero" fill-opacity="1" /><path clip-path="url(#clip700)" d="M872.698 24.3517 L872.698 6.81709 L878.022 6.81709 L878.022 51.84 L872.698 51.84 L872.698 46.9789 Q871.02 49.8724 868.445 51.2902 Q865.898 52.6791 862.31 52.6791 Q856.437 52.6791 852.733 47.9916 Q849.058 43.3042 849.058 35.6653 Q849.058 28.0265 852.733 23.339 Q856.437 18.6515 862.31 18.6515 Q865.898 18.6515 868.445 20.0693 Q871.02 21.4582 872.698 24.3517 M854.556 35.6653 Q854.556 41.5391 856.957 44.8956 Q859.388 48.2231 863.612 48.2231 Q867.837 48.2231 870.268 44.8956 Q872.698 41.5391 872.698 35.6653 Q872.698 29.7915 870.268 26.464 Q867.837 23.1075 863.612 23.1075 Q859.388 23.1075 856.957 26.464 Q854.556 29.7915 854.556 35.6653 Z" fill="#000000" fill-rule="nonzero" fill-opacity="1" /><path clip-path="url(#clip700)" d="M903.716 35.5496 Q897.264 35.5496 894.776 37.0253 Q892.287 38.501 892.287 42.06 Q892.287 44.8956 894.139 46.5738 Q896.02 48.2231 899.232 48.2231 Q903.659 48.2231 906.321 45.0981 Q909.012 41.9442 909.012 36.7359 L909.012 35.5496 L903.716 35.5496 M914.336 33.3505 L914.336 51.84 L909.012 51.84 L909.012 46.921 Q907.189 49.8724 904.469 51.2902 Q901.749 52.6791 897.814 52.6791 Q892.837 52.6791 889.886 49.9014 Q886.963 47.0947 886.963 42.4072 Q886.963 36.9385 890.609 34.1607 Q894.284 31.3829 901.546 31.3829 L909.012 31.3829 L909.012 30.8621 Q909.012 27.1874 906.581 25.1908 Q904.179 23.1654 899.81 23.1654 Q897.032 23.1654 894.399 23.8309 Q891.766 24.4964 889.336 25.8274 L889.336 20.9085 Q892.258 19.78 895.007 19.2302 Q897.756 18.6515 900.36 18.6515 Q907.391 18.6515 910.863 22.2973 Q914.336 25.9431 914.336 33.3505 Z" fill="#000000" fill-rule="nonzero" fill-opacity="1" /><path clip-path="url(#clip700)" d="M971.858 34.3054 L971.858 36.9095 L947.379 36.9095 Q947.727 42.4072 950.678 45.3007 Q953.658 48.1653 958.953 48.1653 Q962.021 48.1653 964.885 47.4129 Q967.779 46.6606 970.614 45.156 L970.614 50.1907 Q967.75 51.406 964.74 52.0425 Q961.731 52.6791 958.635 52.6791 Q950.881 52.6791 946.338 48.1653 Q941.824 43.6514 941.824 35.9547 Q941.824 27.9975 946.106 23.339 Q950.418 18.6515 957.709 18.6515 Q964.249 18.6515 968.039 22.876 Q971.858 27.0716 971.858 34.3054 M966.534 32.7429 Q966.477 28.3737 964.075 25.7695 Q961.702 23.1654 957.767 23.1654 Q953.311 23.1654 950.62 25.6827 Q947.958 28.2001 947.553 32.7718 L966.534 32.7429 Z" fill="#000000" fill-rule="nonzero" fill-opacity="1" /><path clip-path="url(#clip700)" d="M983.78 35.6653 Q983.78 41.5391 986.181 44.8956 Q988.612 48.2231 992.836 48.2231 Q997.061 48.2231 999.491 44.8956 Q1001.92 41.5391 1001.92 35.6653 Q1001.92 29.7915 999.491 26.464 Q997.061 23.1075 992.836 23.1075 Q988.612 23.1075 986.181 26.464 Q983.78 29.7915 983.78 35.6653 M1001.92 46.9789 Q1000.24 49.8724 997.668 51.2902 Q995.122 52.6791 991.534 52.6791 Q985.66 52.6791 981.957 47.9916 Q978.282 43.3042 978.282 35.6653 Q978.282 28.0265 981.957 23.339 Q985.66 18.6515 991.534 18.6515 Q995.122 18.6515 997.668 20.0693 Q1000.24 21.4582 1001.92 24.3517 L1001.92 19.4328 L1007.25 19.4328 L1007.25 64.1663 L1001.92 64.1663 L1001.92 46.9789 Z" fill="#000000" fill-rule="nonzero" fill-opacity="1" /><path clip-path="url(#clip700)" d="M1017.66 39.0507 L1017.66 19.4328 L1022.99 19.4328 L1022.99 38.8482 Q1022.99 43.4488 1024.78 45.7636 Q1026.57 48.0495 1030.16 48.0495 Q1034.47 48.0495 1036.96 45.3007 Q1039.48 42.5519 1039.48 37.8065 L1039.48 19.4328 L1044.8 19.4328 L1044.8 51.84 L1039.48 51.84 L1039.48 46.8632 Q1037.54 49.8145 1034.97 51.2613 Q1032.42 52.6791 1029.03 52.6791 Q1023.45 52.6791 1020.56 49.2069 Q1017.66 45.7347 1017.66 39.0507 M1031.06 18.6515 L1031.06 18.6515 Z" fill="#000000" fill-rule="nonzero" fill-opacity="1" /><path clip-path="url(#clip700)" d="M1070.5 35.5496 Q1064.05 35.5496 1061.56 37.0253 Q1059.07 38.501 1059.07 42.06 Q1059.07 44.8956 1060.92 46.5738 Q1062.8 48.2231 1066.01 48.2231 Q1070.44 48.2231 1073.1 45.0981 Q1075.79 41.9442 1075.79 36.7359 L1075.79 35.5496 L1070.5 35.5496 M1081.12 33.3505 L1081.12 51.84 L1075.79 51.84 L1075.79 46.921 Q1073.97 49.8724 1071.25 51.2902 Q1068.53 52.6791 1064.6 52.6791 Q1059.62 52.6791 1056.67 49.9014 Q1053.74 47.0947 1053.74 42.4072 Q1053.74 36.9385 1057.39 34.1607 Q1061.07 31.3829 1068.33 31.3829 L1075.79 31.3829 L1075.79 30.8621 Q1075.79 27.1874 1073.36 25.1908 Q1070.96 23.1654 1066.59 23.1654 Q1063.81 23.1654 1061.18 23.8309 Q1058.55 24.4964 1056.12 25.8274 L1056.12 20.9085 Q1059.04 19.78 1061.79 19.2302 Q1064.54 18.6515 1067.14 18.6515 Q1074.17 18.6515 1077.64 22.2973 Q1081.12 25.9431 1081.12 33.3505 Z" fill="#000000" fill-rule="nonzero" fill-opacity="1" /><path clip-path="url(#clip700)" d="M1115.41 20.677 L1115.41 25.6538 Q1113.15 24.4096 1110.86 23.802 Q1108.61 23.1654 1106.29 23.1654 Q1101.11 23.1654 1098.25 26.464 Q1095.38 29.7336 1095.38 35.6653 Q1095.38 41.597 1098.25 44.8956 Q1101.11 48.1653 1106.29 48.1653 Q1108.61 48.1653 1110.86 47.5576 Q1113.15 46.921 1115.41 45.6768 L1115.41 50.5958 Q1113.18 51.6375 1110.78 52.1583 Q1108.4 52.6791 1105.71 52.6791 Q1098.39 52.6791 1094.08 48.0784 Q1089.77 43.4778 1089.77 35.6653 Q1089.77 27.7371 1094.11 23.1943 Q1098.48 18.6515 1106.06 18.6515 Q1108.52 18.6515 1110.86 19.1724 Q1113.21 19.6642 1115.41 20.677 M1107.88 51.84 Q1109.47 53.634 1110.25 55.1386 Q1111.04 56.6722 1111.04 58.061 Q1111.04 60.6362 1109.3 61.9383 Q1107.56 63.2693 1104.15 63.2693 Q1102.82 63.2693 1101.55 63.0957 Q1100.3 62.9221 1099.06 62.5749 L1099.06 58.7844 Q1100.04 59.2763 1101.11 59.4788 Q1102.18 59.7103 1103.54 59.7103 Q1105.25 59.7103 1106.12 59.0159 Q1106.99 58.3214 1106.99 56.9904 Q1106.99 56.1224 1106.35 54.8492 Q1105.74 53.605 1104.44 51.84 L1107.88 51.84 Z" fill="#000000" fill-rule="nonzero" fill-opacity="1" /><path clip-path="url(#clip700)" d="M1139.39 35.5496 Q1132.94 35.5496 1130.45 37.0253 Q1127.96 38.501 1127.96 42.06 Q1127.96 44.8956 1129.81 46.5738 Q1131.7 48.2231 1134.91 48.2231 Q1139.33 48.2231 1142 45.0981 Q1144.69 41.9442 1144.69 36.7359 L1144.69 35.5496 L1139.39 35.5496 M1150.01 33.3505 L1150.01 51.84 L1144.69 51.84 L1144.69 46.921 Q1142.86 49.8724 1140.14 51.2902 Q1137.42 52.6791 1133.49 52.6791 Q1128.51 52.6791 1125.56 49.9014 Q1122.64 47.0947 1122.64 42.4072 Q1122.64 36.9385 1126.28 34.1607 Q1129.96 31.3829 1137.22 31.3829 L1144.69 31.3829 L1144.69 30.8621 Q1144.69 27.1874 1142.26 25.1908 Q1139.86 23.1654 1135.49 23.1654 Q1132.71 23.1654 1130.08 23.8309 Q1127.44 24.4964 1125.01 25.8274 L1125.01 20.9085 Q1127.93 19.78 1130.68 19.2302 Q1133.43 18.6515 1136.04 18.6515 Q1143.07 18.6515 1146.54 22.2973 Q1150.01 25.9431 1150.01 33.3505 M1136.15 12.199 L1134.5 10.6076 Q1133.87 10.0289 1133.37 9.76847 Q1132.91 9.47912 1132.53 9.47912 Q1131.44 9.47912 1130.91 10.5497 Q1130.39 11.5914 1130.34 13.964 L1126.72 13.964 Q1126.78 10.0578 1128.25 7.94556 Q1129.73 5.80437 1132.36 5.80437 Q1133.46 5.80437 1134.39 6.20946 Q1135.31 6.61455 1136.38 7.5694 L1138.03 9.16083 Q1138.67 9.73953 1139.13 10.0289 Q1139.62 10.2893 1140 10.2893 Q1141.1 10.2893 1141.62 9.24764 Q1142.14 8.17704 1142.2 5.80437 L1145.82 5.80437 Q1145.76 9.7106 1144.28 11.8518 Q1142.81 13.964 1140.17 13.964 Q1139.07 13.964 1138.15 13.559 Q1137.22 13.1539 1136.15 12.199 Z" fill="#000000" fill-rule="nonzero" fill-opacity="1" /><path clip-path="url(#clip700)" d="M1173.54 23.1654 Q1169.25 23.1654 1166.76 26.5218 Q1164.28 29.8494 1164.28 35.6653 Q1164.28 41.4813 1166.74 44.8377 Q1169.22 48.1653 1173.54 48.1653 Q1177.79 48.1653 1180.28 44.8088 Q1182.77 41.4523 1182.77 35.6653 Q1182.77 29.9072 1180.28 26.5508 Q1177.79 23.1654 1173.54 23.1654 M1173.54 18.6515 Q1180.48 18.6515 1184.44 23.1654 Q1188.41 27.6792 1188.41 35.6653 Q1188.41 43.6225 1184.44 48.1653 Q1180.48 52.6791 1173.54 52.6791 Q1166.56 52.6791 1162.6 48.1653 Q1158.66 43.6225 1158.66 35.6653 Q1158.66 27.6792 1162.6 23.1654 Q1166.56 18.6515 1173.54 18.6515 Z" fill="#000000" fill-rule="nonzero" fill-opacity="1" /><path clip-path="url(#clip700)" d="M1237.4 24.3517 L1237.4 6.81709 L1242.72 6.81709 L1242.72 51.84 L1237.4 51.84 L1237.4 46.9789 Q1235.72 49.8724 1233.14 51.2902 Q1230.6 52.6791 1227.01 52.6791 Q1221.13 52.6791 1217.43 47.9916 Q1213.76 43.3042 1213.76 35.6653 Q1213.76 28.0265 1217.43 23.339 Q1221.13 18.6515 1227.01 18.6515 Q1230.6 18.6515 1233.14 20.0693 Q1235.72 21.4582 1237.4 24.3517 M1219.25 35.6653 Q1219.25 41.5391 1221.65 44.8956 Q1224.09 48.2231 1228.31 48.2231 Q1232.53 48.2231 1234.96 44.8956 Q1237.4 41.5391 1237.4 35.6653 Q1237.4 29.7915 1234.96 26.464 Q1232.53 23.1075 1228.31 23.1075 Q1224.09 23.1075 1221.65 26.464 Q1219.25 29.7915 1219.25 35.6653 Z" fill="#000000" fill-rule="nonzero" fill-opacity="1" /><path clip-path="url(#clip700)" d="M1253.69 19.4328 L1259.01 19.4328 L1259.01 51.84 L1253.69 51.84 L1253.69 19.4328 M1253.69 6.81709 L1259.01 6.81709 L1259.01 13.559 L1253.69 13.559 L1253.69 6.81709 Z" fill="#000000" fill-rule="nonzero" fill-opacity="1" /><path clip-path="url(#clip700)" d="M1286.56 6.81709 L1286.56 11.2442 L1281.46 11.2442 Q1278.6 11.2442 1277.47 12.4016 Q1276.37 13.559 1276.37 16.5682 L1276.37 19.4328 L1285.14 19.4328 L1285.14 23.5705 L1276.37 23.5705 L1276.37 51.84 L1271.02 51.84 L1271.02 23.5705 L1265.93 23.5705 L1265.93 19.4328 L1271.02 19.4328 L1271.02 17.1758 Q1271.02 11.765 1273.54 9.30551 Q1276.05 6.81709 1281.52 6.81709 L1286.56 6.81709 Z" fill="#000000" fill-rule="nonzero" fill-opacity="1" /><path clip-path="url(#clip700)" d="M1318.73 34.3054 L1318.73 36.9095 L1294.25 36.9095 Q1294.6 42.4072 1297.55 45.3007 Q1300.53 48.1653 1305.83 48.1653 Q1308.89 48.1653 1311.76 47.4129 Q1314.65 46.6606 1317.49 45.156 L1317.49 50.1907 Q1314.62 51.406 1311.61 52.0425 Q1308.6 52.6791 1305.51 52.6791 Q1297.75 52.6791 1293.21 48.1653 Q1288.7 43.6514 1288.7 35.9547 Q1288.7 27.9975 1292.98 23.339 Q1297.29 18.6515 1304.58 18.6515 Q1311.12 18.6515 1314.91 22.876 Q1318.73 27.0716 1318.73 34.3054 M1313.41 32.7429 Q1313.35 28.3737 1310.95 25.7695 Q1308.58 23.1654 1304.64 23.1654 Q1300.18 23.1654 1297.49 25.6827 Q1294.83 28.2001 1294.43 32.7718 L1313.41 32.7429 Z" fill="#000000" fill-rule="nonzero" fill-opacity="1" /><path clip-path="url(#clip700)" d="M1346.25 24.4096 Q1345.35 23.8888 1344.28 23.6573 Q1343.24 23.3969 1341.97 23.3969 Q1337.45 23.3969 1335.02 26.3482 Q1332.62 29.2707 1332.62 34.7683 L1332.62 51.84 L1327.27 51.84 L1327.27 19.4328 L1332.62 19.4328 L1332.62 24.4675 Q1334.3 21.5161 1336.99 20.0983 Q1339.68 18.6515 1343.53 18.6515 Q1344.08 18.6515 1344.74 18.7383 Q1345.41 18.7962 1346.22 18.9409 L1346.25 24.4096 Z" fill="#000000" fill-rule="nonzero" fill-opacity="1" /><path clip-path="url(#clip700)" d="M1378.25 34.3054 L1378.25 36.9095 L1353.77 36.9095 Q1354.12 42.4072 1357.07 45.3007 Q1360.05 48.1653 1365.35 48.1653 Q1368.41 48.1653 1371.28 47.4129 Q1374.17 46.6606 1377.01 45.156 L1377.01 50.1907 Q1374.14 51.406 1371.13 52.0425 Q1368.12 52.6791 1365.03 52.6791 Q1357.27 52.6791 1352.73 48.1653 Q1348.22 43.6514 1348.22 35.9547 Q1348.22 27.9975 1352.5 23.339 Q1356.81 18.6515 1364.1 18.6515 Q1370.64 18.6515 1374.43 22.876 Q1378.25 27.0716 1378.25 34.3054 M1372.93 32.7429 Q1372.87 28.3737 1370.47 25.7695 Q1368.09 23.1654 1364.16 23.1654 Q1359.7 23.1654 1357.01 25.6827 Q1354.35 28.2001 1353.95 32.7718 L1372.93 32.7429 Z" fill="#000000" fill-rule="nonzero" fill-opacity="1" /><path clip-path="url(#clip700)" d="M1413.93 32.2799 L1413.93 51.84 L1408.6 51.84 L1408.6 32.4535 Q1408.6 27.8529 1406.81 25.567 Q1405.02 23.2811 1401.43 23.2811 Q1397.12 23.2811 1394.63 26.03 Q1392.14 28.7788 1392.14 33.5241 L1392.14 51.84 L1386.79 51.84 L1386.79 19.4328 L1392.14 19.4328 L1392.14 24.4675 Q1394.05 21.545 1396.62 20.0983 Q1399.23 18.6515 1402.61 18.6515 Q1408.2 18.6515 1411.06 22.1237 Q1413.93 25.567 1413.93 32.2799 Z" fill="#000000" fill-rule="nonzero" fill-opacity="1" /><path clip-path="url(#clip700)" d="M1447.87 20.677 L1447.87 25.6538 Q1445.61 24.4096 1443.33 23.802 Q1441.07 23.1654 1438.75 23.1654 Q1433.57 23.1654 1430.71 26.464 Q1427.85 29.7336 1427.85 35.6653 Q1427.85 41.597 1430.71 44.8956 Q1433.57 48.1653 1438.75 48.1653 Q1441.07 48.1653 1443.33 47.5576 Q1445.61 46.921 1447.87 45.6768 L1447.87 50.5958 Q1445.64 51.6375 1443.24 52.1583 Q1440.87 52.6791 1438.18 52.6791 Q1430.85 52.6791 1426.54 48.0784 Q1422.23 43.4778 1422.23 35.6653 Q1422.23 27.7371 1426.57 23.1943 Q1430.94 18.6515 1438.52 18.6515 Q1440.98 18.6515 1443.33 19.1724 Q1445.67 19.6642 1447.87 20.677 Z" fill="#000000" fill-rule="nonzero" fill-opacity="1" /><path clip-path="url(#clip700)" d="M1457.13 19.4328 L1462.45 19.4328 L1462.45 51.84 L1457.13 51.84 L1457.13 19.4328 M1457.13 6.81709 L1462.45 6.81709 L1462.45 13.559 L1457.13 13.559 L1457.13 6.81709 Z" fill="#000000" fill-rule="nonzero" fill-opacity="1" /><path clip-path="url(#clip700)" d="M1488.32 35.5496 Q1481.87 35.5496 1479.38 37.0253 Q1476.89 38.501 1476.89 42.06 Q1476.89 44.8956 1478.74 46.5738 Q1480.62 48.2231 1483.83 48.2231 Q1488.26 48.2231 1490.92 45.0981 Q1493.61 41.9442 1493.61 36.7359 L1493.61 35.5496 L1488.32 35.5496 M1498.94 33.3505 L1498.94 51.84 L1493.61 51.84 L1493.61 46.921 Q1491.79 49.8724 1489.07 51.2902 Q1486.35 52.6791 1482.42 52.6791 Q1477.44 52.6791 1474.49 49.9014 Q1471.57 47.0947 1471.57 42.4072 Q1471.57 36.9385 1475.21 34.1607 Q1478.89 31.3829 1486.15 31.3829 L1493.61 31.3829 L1493.61 30.8621 Q1493.61 27.1874 1491.18 25.1908 Q1488.78 23.1654 1484.41 23.1654 Q1481.64 23.1654 1479 23.8309 Q1476.37 24.4964 1473.94 25.8274 L1473.94 20.9085 Q1476.86 19.78 1479.61 19.2302 Q1482.36 18.6515 1484.96 18.6515 Q1491.99 18.6515 1495.47 22.2973 Q1498.94 25.9431 1498.94 33.3505 Z" fill="#000000" fill-rule="nonzero" fill-opacity="1" /><path clip-path="url(#clip700)" d="M1509.91 6.81709 L1515.23 6.81709 L1515.23 51.84 L1509.91 51.84 L1509.91 6.81709 Z" fill="#000000" fill-rule="nonzero" fill-opacity="1" /><path clip-path="url(#clip700)" d="M1559.93 35.5496 Q1553.48 35.5496 1550.99 37.0253 Q1548.5 38.501 1548.5 42.06 Q1548.5 44.8956 1550.36 46.5738 Q1552.24 48.2231 1555.45 48.2231 Q1559.88 48.2231 1562.54 45.0981 Q1565.23 41.9442 1565.23 36.7359 L1565.23 35.5496 L1559.93 35.5496 M1570.55 33.3505 L1570.55 51.84 L1565.23 51.84 L1565.23 46.921 Q1563.41 49.8724 1560.69 51.2902 Q1557.97 52.6791 1554.03 52.6791 Q1549.05 52.6791 1546.1 49.9014 Q1543.18 47.0947 1543.18 42.4072 Q1543.18 36.9385 1546.83 34.1607 Q1550.5 31.3829 1557.76 31.3829 L1565.23 31.3829 L1565.23 30.8621 Q1565.23 27.1874 1562.8 25.1908 Q1560.4 23.1654 1556.03 23.1654 Q1553.25 23.1654 1550.62 23.8309 Q1547.98 24.4964 1545.55 25.8274 L1545.55 20.9085 Q1548.48 19.78 1551.22 19.2302 Q1553.97 18.6515 1556.58 18.6515 Q1563.61 18.6515 1567.08 22.2973 Q1570.55 25.9431 1570.55 33.3505 Z" fill="#000000" fill-rule="nonzero" fill-opacity="1" /><path clip-path="url(#clip700)" d="M1581.52 6.81709 L1586.84 6.81709 L1586.84 51.84 L1581.52 51.84 L1581.52 6.81709 Z" fill="#000000" fill-rule="nonzero" fill-opacity="1" /><path clip-path="url(#clip700)" d="M1625.7 34.3054 L1625.7 36.9095 L1601.22 36.9095 Q1601.57 42.4072 1604.52 45.3007 Q1607.5 48.1653 1612.8 48.1653 Q1615.87 48.1653 1618.73 47.4129 Q1621.62 46.6606 1624.46 45.156 L1624.46 50.1907 Q1621.59 51.406 1618.59 52.0425 Q1615.58 52.6791 1612.48 52.6791 Q1604.73 52.6791 1600.18 48.1653 Q1595.67 43.6514 1595.67 35.9547 Q1595.67 27.9975 1599.95 23.339 Q1604.26 18.6515 1611.55 18.6515 Q1618.09 18.6515 1621.88 22.876 Q1625.7 27.0716 1625.7 34.3054 M1620.38 32.7429 Q1620.32 28.3737 1617.92 25.7695 Q1615.55 23.1654 1611.61 23.1654 Q1607.16 23.1654 1604.47 25.6827 Q1601.8 28.2001 1601.4 32.7718 L1620.38 32.7429 Z" fill="#000000" fill-rule="nonzero" fill-opacity="1" /><path clip-path="url(#clip700)" d="M1649.17 35.5496 Q1642.72 35.5496 1640.23 37.0253 Q1637.74 38.501 1637.74 42.06 Q1637.74 44.8956 1639.59 46.5738 Q1641.47 48.2231 1644.68 48.2231 Q1649.11 48.2231 1651.77 45.0981 Q1654.46 41.9442 1654.46 36.7359 L1654.46 35.5496 L1649.17 35.5496 M1659.79 33.3505 L1659.79 51.84 L1654.46 51.84 L1654.46 46.921 Q1652.64 49.8724 1649.92 51.2902 Q1647.2 52.6791 1643.27 52.6791 Q1638.29 52.6791 1635.34 49.9014 Q1632.42 47.0947 1632.42 42.4072 Q1632.42 36.9385 1636.06 34.1607 Q1639.74 31.3829 1647 31.3829 L1654.46 31.3829 L1654.46 30.8621 Q1654.46 27.1874 1652.03 25.1908 Q1649.63 23.1654 1645.26 23.1654 Q1642.49 23.1654 1639.85 23.8309 Q1637.22 24.4964 1634.79 25.8274 L1634.79 20.9085 Q1637.71 19.78 1640.46 19.2302 Q1643.21 18.6515 1645.81 18.6515 Q1652.84 18.6515 1656.32 22.2973 Q1659.79 25.9431 1659.79 33.3505 Z" fill="#000000" fill-rule="nonzero" fill-opacity="1" /><path clip-path="url(#clip700)" d="M1676.02 10.2314 L1676.02 19.4328 L1686.99 19.4328 L1686.99 23.5705 L1676.02 23.5705 L1676.02 41.163 Q1676.02 45.1271 1677.09 46.2555 Q1678.19 47.384 1681.52 47.384 L1686.99 47.384 L1686.99 51.84 L1681.52 51.84 Q1675.36 51.84 1673.01 49.5541 Q1670.67 47.2393 1670.67 41.163 L1670.67 23.5705 L1666.76 23.5705 L1666.76 19.4328 L1670.67 19.4328 L1670.67 10.2314 L1676.02 10.2314 Z" fill="#000000" fill-rule="nonzero" fill-opacity="1" /><path clip-path="url(#clip700)" d="M1706.55 23.1654 Q1702.27 23.1654 1699.78 26.5218 Q1697.29 29.8494 1697.29 35.6653 Q1697.29 41.4813 1699.75 44.8377 Q1702.24 48.1653 1706.55 48.1653 Q1710.8 48.1653 1713.29 44.8088 Q1715.78 41.4523 1715.78 35.6653 Q1715.78 29.9072 1713.29 26.5508 Q1710.8 23.1654 1706.55 23.1654 M1706.55 18.6515 Q1713.49 18.6515 1717.46 23.1654 Q1721.42 27.6792 1721.42 35.6653 Q1721.42 43.6225 1717.46 48.1653 Q1713.49 52.6791 1706.55 52.6791 Q1699.57 52.6791 1695.61 48.1653 Q1691.68 43.6225 1691.68 35.6653 Q1691.68 27.6792 1695.61 23.1654 Q1699.57 18.6515 1706.55 18.6515 M1710.57 4.44442 L1716.33 4.44442 L1706.9 15.324 L1702.47 15.324 L1710.57 4.44442 Z" fill="#000000" fill-rule="nonzero" fill-opacity="1" /><path clip-path="url(#clip700)" d="M1749.02 24.4096 Q1748.13 23.8888 1747.06 23.6573 Q1746.02 23.3969 1744.74 23.3969 Q1740.23 23.3969 1737.8 26.3482 Q1735.4 29.2707 1735.4 34.7683 L1735.4 51.84 L1730.04 51.84 L1730.04 19.4328 L1735.4 19.4328 L1735.4 24.4675 Q1737.07 21.5161 1739.77 20.0983 Q1742.46 18.6515 1746.3 18.6515 Q1746.85 18.6515 1747.52 18.7383 Q1748.19 18.7962 1749 18.9409 L1749.02 24.4096 Z" fill="#000000" fill-rule="nonzero" fill-opacity="1" /><path clip-path="url(#clip700)" d="M1754.61 19.4328 L1759.93 19.4328 L1759.93 51.84 L1754.61 51.84 L1754.61 19.4328 M1754.61 6.81709 L1759.93 6.81709 L1759.93 13.559 L1754.61 13.559 L1754.61 6.81709 Z" fill="#000000" fill-rule="nonzero" fill-opacity="1" /><path clip-path="url(#clip700)" d="M1785.8 35.5496 Q1779.35 35.5496 1776.86 37.0253 Q1774.37 38.501 1774.37 42.06 Q1774.37 44.8956 1776.22 46.5738 Q1778.1 48.2231 1781.32 48.2231 Q1785.74 48.2231 1788.4 45.0981 Q1791.1 41.9442 1791.1 36.7359 L1791.1 35.5496 L1785.8 35.5496 M1796.42 33.3505 L1796.42 51.84 L1791.1 51.84 L1791.1 46.921 Q1789.27 49.8724 1786.55 51.2902 Q1783.83 52.6791 1779.9 52.6791 Q1774.92 52.6791 1771.97 49.9014 Q1769.05 47.0947 1769.05 42.4072 Q1769.05 36.9385 1772.69 34.1607 Q1776.37 31.3829 1783.63 31.3829 L1791.1 31.3829 L1791.1 30.8621 Q1791.1 27.1874 1788.67 25.1908 Q1786.26 23.1654 1781.89 23.1654 Q1779.12 23.1654 1776.48 23.8309 Q1773.85 24.4964 1771.42 25.8274 L1771.42 20.9085 Q1774.34 19.78 1777.09 19.2302 Q1779.84 18.6515 1782.44 18.6515 Q1789.48 18.6515 1792.95 22.2973 Q1796.42 25.9431 1796.42 33.3505 Z" fill="#000000" fill-rule="nonzero" fill-opacity="1" /><path clip-path="url(#clip700)" d="M1831.26 4.44442 L1839.42 15.2661 L1834.99 15.2661 L1825.56 4.44442 L1831.26 4.44442 Z" fill="#000000" fill-rule="nonzero" fill-opacity="1" /><path clip-path="url(#clip700)" d="M1855.3 39.0507 L1855.3 19.4328 L1860.63 19.4328 L1860.63 38.8482 Q1860.63 43.4488 1862.42 45.7636 Q1864.21 48.0495 1867.8 48.0495 Q1872.11 48.0495 1874.6 45.3007 Q1877.12 42.5519 1877.12 37.8065 L1877.12 19.4328 L1882.44 19.4328 L1882.44 51.84 L1877.12 51.84 L1877.12 46.8632 Q1875.18 49.8145 1872.61 51.2613 Q1870.06 52.6791 1866.67 52.6791 Q1861.09 52.6791 1858.2 49.2069 Q1855.3 45.7347 1855.3 39.0507 M1868.7 18.6515 L1868.7 18.6515 Z" fill="#000000" fill-rule="nonzero" fill-opacity="1" /><path clip-path="url(#clip700)" d="M1898.44 8.64 L1898.44 24.6989 L1893.53 24.6989 L1893.53 8.64 L1898.44 8.64 Z" fill="#000000" fill-rule="nonzero" fill-opacity="1" /><path clip-path="url(#clip700)" d="M1929.23 24.9304 L1966.33 24.9304 L1966.33 29.7915 L1929.23 29.7915 L1929.23 24.9304 M1929.23 36.7359 L1966.33 36.7359 L1966.33 41.6549 L1929.23 41.6549 L1929.23 36.7359 Z" fill="#000000" fill-rule="nonzero" fill-opacity="1" /><path clip-path="url(#clip700)" d="M2017.69 20.3876 L2017.69 25.4223 Q2015.43 24.2649 2013 23.6862 Q2010.57 23.1075 2007.96 23.1075 Q2004 23.1075 2002 24.3228 Q2000.04 25.5381 2000.04 27.9686 Q2000.04 29.8204 2001.45 30.891 Q2002.87 31.9327 2007.15 32.8876 L2008.98 33.2926 Q2014.65 34.5079 2017.02 36.7359 Q2019.42 38.935 2019.42 42.8991 Q2019.42 47.4129 2015.83 50.046 Q2012.28 52.6791 2006.03 52.6791 Q2003.42 52.6791 2000.59 52.1583 Q1997.78 51.6664 1994.65 50.6537 L1994.65 45.156 Q1997.61 46.6896 2000.47 47.4708 Q2003.33 48.2231 2006.14 48.2231 Q2009.9 48.2231 2011.93 46.95 Q2013.95 45.6479 2013.95 43.3042 Q2013.95 41.134 2012.48 39.9766 Q2011.03 38.8192 2006.08 37.7486 L2004.23 37.3146 Q1999.28 36.273 1997.08 34.1318 Q1994.89 31.9616 1994.89 28.2001 Q1994.89 23.6283 1998.13 21.1399 Q2001.37 18.6515 2007.33 18.6515 Q2010.28 18.6515 2012.88 19.0855 Q2015.49 19.5196 2017.69 20.3876 Z" fill="#000000" fill-rule="nonzero" fill-opacity="1" /><path clip-path="url(#clip700)" d="M2027.9 19.4328 L2033.22 19.4328 L2033.22 51.84 L2027.9 51.84 L2027.9 19.4328 M2027.9 6.81709 L2033.22 6.81709 L2033.22 13.559 L2027.9 13.559 L2027.9 6.81709 Z" fill="#000000" fill-rule="nonzero" fill-opacity="1" /><path clip-path="url(#clip700)" d="M2071.3 32.2799 L2071.3 51.84 L2065.98 51.84 L2065.98 32.4535 Q2065.98 27.8529 2064.18 25.567 Q2062.39 23.2811 2058.8 23.2811 Q2054.49 23.2811 2052 26.03 Q2049.51 28.7788 2049.51 33.5241 L2049.51 51.84 L2044.16 51.84 L2044.16 19.4328 L2049.51 19.4328 L2049.51 24.4675 Q2051.42 21.545 2054 20.0983 Q2056.6 18.6515 2059.99 18.6515 Q2065.57 18.6515 2068.44 22.1237 Q2071.3 25.567 2071.3 32.2799 Z" fill="#000000" fill-rule="nonzero" fill-opacity="1" /><path clip-path="url(#clip700)" d="M2094.71 6.87496 Q2090.83 13.53 2088.95 20.0404 Q2087.07 26.5508 2087.07 33.2348 Q2087.07 39.9188 2088.95 46.487 Q2090.86 53.0263 2094.71 59.6525 L2090.08 59.6525 Q2085.74 52.8527 2083.57 46.2845 Q2081.43 39.7162 2081.43 33.2348 Q2081.43 26.7823 2083.57 20.2429 Q2085.71 13.7036 2090.08 6.87496 L2094.71 6.87496 Z" fill="#000000" fill-rule="nonzero" fill-opacity="1" /><path clip-path="url(#clip700)" d="M2101.42 8.64 L2107.33 8.64 L2116.41 45.156 L2125.47 8.64 L2132.04 8.64 L2141.12 45.156 L2150.18 8.64 L2156.11 8.64 L2145.26 51.84 L2137.91 51.84 L2128.8 14.3402 L2119.6 51.84 L2112.25 51.84 L2101.42 8.64 Z" fill="#000000" fill-rule="nonzero" fill-opacity="1" /><path clip-path="url(#clip700)" d="M2162.8 6.87496 L2167.42 6.87496 Q2171.77 13.7036 2173.91 20.2429 Q2176.08 26.7823 2176.08 33.2348 Q2176.08 39.7162 2173.91 46.2845 Q2171.77 52.8527 2167.42 59.6525 L2162.8 59.6525 Q2166.64 53.0263 2168.52 46.487 Q2170.43 39.9188 2170.43 33.2348 Q2170.43 26.5508 2168.52 20.0404 Q2166.64 13.53 2162.8 6.87496 Z" fill="#000000" fill-rule="nonzero" fill-opacity="1" /><path clip-path="url(#clip700)" d="M2186.2 39.0507 L2186.2 19.4328 L2191.53 19.4328 L2191.53 38.8482 Q2191.53 43.4488 2193.32 45.7636 Q2195.12 48.0495 2198.7 48.0495 Q2203.02 48.0495 2205.5 45.3007 Q2208.02 42.5519 2208.02 37.8065 L2208.02 19.4328 L2213.34 19.4328 L2213.34 51.84 L2208.02 51.84 L2208.02 46.8632 Q2206.08 49.8145 2203.51 51.2613 Q2200.96 52.6791 2197.58 52.6791 Q2191.99 52.6791 2189.1 49.2069 Q2186.2 45.7347 2186.2 39.0507 M2199.6 18.6515 L2199.6 18.6515 Z" fill="#000000" fill-rule="nonzero" fill-opacity="1" /><path clip-path="url(#clip700)" d="M2229.35 4.44442 L2237.51 15.2661 L2233.08 15.2661 L2223.65 4.44442 L2229.35 4.44442 Z" fill="#000000" fill-rule="nonzero" fill-opacity="1" /><path clip-path="url(#clip700)" d="M2296.1 20.677 L2296.1 25.6538 Q2293.84 24.4096 2291.56 23.802 Q2289.3 23.1654 2286.98 23.1654 Q2281.81 23.1654 2278.94 26.464 Q2276.08 29.7336 2276.08 35.6653 Q2276.08 41.597 2278.94 44.8956 Q2281.81 48.1653 2286.98 48.1653 Q2289.3 48.1653 2291.56 47.5576 Q2293.84 46.921 2296.1 45.6768 L2296.1 50.5958 Q2293.87 51.6375 2291.47 52.1583 Q2289.1 52.6791 2286.41 52.6791 Q2279.09 52.6791 2274.77 48.0784 Q2270.46 43.4778 2270.46 35.6653 Q2270.46 27.7371 2274.8 23.1943 Q2279.17 18.6515 2286.75 18.6515 Q2289.21 18.6515 2291.56 19.1724 Q2293.9 19.6642 2296.1 20.677 Z" fill="#000000" fill-rule="nonzero" fill-opacity="1" /><path clip-path="url(#clip700)" d="M2317.92 23.1654 Q2313.63 23.1654 2311.15 26.5218 Q2308.66 29.8494 2308.66 35.6653 Q2308.66 41.4813 2311.12 44.8377 Q2313.6 48.1653 2317.92 48.1653 Q2322.17 48.1653 2324.66 44.8088 Q2327.15 41.4523 2327.15 35.6653 Q2327.15 29.9072 2324.66 26.5508 Q2322.17 23.1654 2317.92 23.1654 M2317.92 18.6515 Q2324.86 18.6515 2328.82 23.1654 Q2332.79 27.6792 2332.79 35.6653 Q2332.79 43.6225 2328.82 48.1653 Q2324.86 52.6791 2317.92 52.6791 Q2310.94 52.6791 2306.98 48.1653 Q2303.04 43.6225 2303.04 35.6653 Q2303.04 27.6792 2306.98 23.1654 Q2310.94 18.6515 2317.92 18.6515 Z" fill="#000000" fill-rule="nonzero" fill-opacity="1" /><path clip-path="url(#clip700)" d="M2366.85 25.6538 Q2368.84 22.0659 2371.62 20.3587 Q2374.4 18.6515 2378.16 18.6515 Q2383.22 18.6515 2385.97 22.2105 Q2388.72 25.7406 2388.72 32.2799 L2388.72 51.84 L2383.37 51.84 L2383.37 32.4535 Q2383.37 27.795 2381.72 25.5381 Q2380.07 23.2811 2376.68 23.2811 Q2372.55 23.2811 2370.14 26.03 Q2367.74 28.7788 2367.74 33.5241 L2367.74 51.84 L2362.39 51.84 L2362.39 32.4535 Q2362.39 27.7661 2360.74 25.5381 Q2359.09 23.2811 2355.65 23.2811 Q2351.57 23.2811 2349.17 26.0589 Q2346.76 28.8077 2346.76 33.5241 L2346.76 51.84 L2341.41 51.84 L2341.41 19.4328 L2346.76 19.4328 L2346.76 24.4675 Q2348.59 21.4872 2351.13 20.0693 Q2353.68 18.6515 2357.18 18.6515 Q2360.71 18.6515 2363.17 20.4455 Q2365.66 22.2395 2366.85 25.6538 Z" fill="#000000" fill-rule="nonzero" fill-opacity="1" /><path clip-path="url(#clip700)" d="M2423.21 4.44442 L2431.37 15.2661 L2426.94 15.2661 L2417.51 4.44442 L2423.21 4.44442 Z" fill="#000000" fill-rule="nonzero" fill-opacity="1" /><path clip-path="url(#clip700)" d="M2447.26 39.0507 L2447.26 19.4328 L2452.58 19.4328 L2452.58 38.8482 Q2452.58 43.4488 2454.37 45.7636 Q2456.17 48.0495 2459.76 48.0495 Q2464.07 48.0495 2466.56 45.3007 Q2469.07 42.5519 2469.07 37.8065 L2469.07 19.4328 L2474.4 19.4328 L2474.4 51.84 L2469.07 51.84 L2469.07 46.8632 Q2467.13 49.8145 2464.56 51.2613 Q2462.01 52.6791 2458.63 52.6791 Q2453.04 52.6791 2450.15 49.2069 Q2447.26 45.7347 2447.26 39.0507 M2460.65 18.6515 L2460.65 18.6515 Z" fill="#000000" fill-rule="nonzero" fill-opacity="1" /><path clip-path="url(#clip700)" d="M2498.15 6.87496 Q2494.28 13.53 2492.39 20.0404 Q2490.51 26.5508 2490.51 33.2348 Q2490.51 39.9188 2492.39 46.487 Q2494.3 53.0263 2498.15 59.6525 L2493.52 59.6525 Q2489.18 52.8527 2487.01 46.2845 Q2484.87 39.7162 2484.87 33.2348 Q2484.87 26.7823 2487.01 20.2429 Q2489.15 13.7036 2493.52 6.87496 L2498.15 6.87496 Z" fill="#000000" fill-rule="nonzero" fill-opacity="1" /><path clip-path="url(#clip700)" d="M2521.73 12.4884 Q2517.22 12.4884 2514.93 16.9444 Q2512.68 21.3714 2512.68 30.2834 Q2512.68 39.1665 2514.93 43.6225 Q2517.22 48.0495 2521.73 48.0495 Q2526.28 48.0495 2528.53 43.6225 Q2530.82 39.1665 2530.82 30.2834 Q2530.82 21.3714 2528.53 16.9444 Q2526.28 12.4884 2521.73 12.4884 M2521.73 7.85875 Q2529 7.85875 2532.82 13.6168 Q2536.66 19.346 2536.66 30.2834 Q2536.66 41.1919 2532.82 46.95 Q2529 52.6791 2521.73 52.6791 Q2514.47 52.6791 2510.62 46.95 Q2506.8 41.1919 2506.8 30.2834 Q2506.8 19.346 2510.62 13.6168 Q2514.47 7.85875 2521.73 7.85875 Z" fill="#000000" fill-rule="nonzero" fill-opacity="1" /><path clip-path="url(#clip700)" d="M2545.35 6.87496 L2549.97 6.87496 Q2554.32 13.7036 2556.46 20.2429 Q2558.63 26.7823 2558.63 33.2348 Q2558.63 39.7162 2556.46 46.2845 Q2554.32 52.8527 2549.97 59.6525 L2545.35 59.6525 Q2549.19 53.0263 2551.07 46.487 Q2552.98 39.9188 2552.98 33.2348 Q2552.98 26.5508 2551.07 20.0404 Q2549.19 13.53 2545.35 6.87496 Z" fill="#000000" fill-rule="nonzero" fill-opacity="1" /><path clip-path="url(#clip700)" d="M2588.83 24.9304 L2625.93 24.9304 L2625.93 29.7915 L2588.83 29.7915 L2588.83 24.9304 M2588.83 36.7359 L2625.93 36.7359 L2625.93 41.6549 L2588.83 41.6549 L2588.83 36.7359 Z" fill="#000000" fill-rule="nonzero" fill-opacity="1" /><path clip-path="url(#clip700)" d="M2658.39 46.921 L2667.94 46.921 L2667.94 13.964 L2657.56 16.0474 L2657.56 10.7233 L2667.89 8.64 L2673.73 8.64 L2673.73 46.921 L2683.28 46.921 L2683.28 51.84 L2658.39 51.84 L2658.39 46.921 Z" fill="#000000" fill-rule="nonzero" fill-opacity="1" /><path clip-path="url(#clip700)" d="M2695.08 44.4905 L2701.19 44.4905 L2701.19 51.84 L2695.08 51.84 L2695.08 44.4905 Z" fill="#000000" fill-rule="nonzero" fill-opacity="1" /><path clip-path="url(#clip700)" d="M2726.42 12.4884 Q2721.91 12.4884 2719.62 16.9444 Q2717.36 21.3714 2717.36 30.2834 Q2717.36 39.1665 2719.62 43.6225 Q2721.91 48.0495 2726.42 48.0495 Q2730.96 48.0495 2733.22 43.6225 Q2735.51 39.1665 2735.51 30.2834 Q2735.51 21.3714 2733.22 16.9444 Q2730.96 12.4884 2726.42 12.4884 M2726.42 7.85875 Q2733.68 7.85875 2737.5 13.6168 Q2741.35 19.346 2741.35 30.2834 Q2741.35 41.1919 2737.5 46.95 Q2733.68 52.6791 2726.42 52.6791 Q2719.16 52.6791 2715.31 46.95 Q2711.49 41.1919 2711.49 30.2834 Q2711.49 19.346 2715.31 13.6168 Q2719.16 7.85875 2726.42 7.85875 Z" fill="#000000" fill-rule="nonzero" fill-opacity="1" /><path clip-path="url(#clip700)" d="M2755.91 4.44442 L2764.07 15.2661 L2759.64 15.2661 L2750.21 4.44442 L2755.91 4.44442 Z" fill="#000000" fill-rule="nonzero" fill-opacity="1" /><polyline clip-path="url(#clip702)" style="stroke:#009af9; stroke-linecap:round; stroke-linejoin:round; stroke-width:4; stroke-opacity:1; fill:none" points="298.311,2144.68 303.854,2144.68 309.396,2144.83 314.939,2145.09 320.482,2145.4 326.024,2145.52 331.567,2145.67 337.11,2145.64 342.652,2145.47 348.195,2145.36 353.737,2145.5 359.28,2145.35 364.823,2145.18 370.365,2145.15 375.908,2145.09 381.45,2145.04 386.993,2144.91 392.536,2144.61 398.078,2144.21 403.621,2143.77 409.163,2143.29 414.706,2142.86 420.249,2142.38 425.791,2141.88 431.334,2141.18 436.877,2140.44 442.419,2139.9 447.962,2139.3 453.504,2138.54 459.047,2137.82 464.59,2137.01 470.132,2136.31 475.675,2135.8 481.217,2135.26 486.76,2134.61 492.303,2133.97 497.845,2133.36 503.388,2132.75 508.93,2132.13 514.473,2131.45 520.016,2130.7 525.558,2129.89 531.101,2129.17 536.644,2128.42 542.186,2127.85 547.729,2127.28 553.271,2126.83 558.814,2126.21 564.357,2125.71 569.899,2125.01 575.442,2124.23 580.984,2123.25 586.527,2122.21 592.07,2121.15 597.612,2120.22 603.155,2119.27 608.697,2118.28 614.24,2117.34 619.783,2116.43 625.325,2115.55 630.868,2114.61 636.411,2113.41 641.953,2112.24 647.496,2111.07 653.038,2109.99 658.581,2108.8 664.124,2107.69 669.666,2106.38 675.209,2105.22 680.751,2103.97 686.294,2102.6 691.837,2101.39 697.379,2100.06 702.922,2098.59 708.464,2097.04 714.007,2095.46 719.55,2093.93 725.092,2092.35 730.635,2090.83 736.178,2089.33 741.72,2087.73 747.263,2086.1 752.805,2084.47 758.348,2082.79 763.891,2081.2 769.433,2079.53 774.976,2077.73 780.518,2075.92 786.061,2074.06 791.604,2072.23 797.146,2070.4 802.689,2068.55 808.231,2066.81 813.774,2065.27 819.317,2063.87 824.859,2062.47 830.402,2060.92 835.945,2059.66 841.487,2058.12 847.03,2056.66 852.572,2055.02 858.115,2053.18 863.658,2051.21 869.2,2049.28 874.743,2047.38 880.285,2045.51 885.828,2043.63 891.371,2041.78 896.913,2040.13 902.456,2038.26 907.998,2036.34 913.541,2034.27 919.084,2032.33 924.626,2030.39 930.169,2028.48 935.712,2026.49 941.254,2024.46 946.797,2022.31 952.339,2020.28 957.882,2018.38 963.425,2016.15 968.967,2013.84 974.51,2011.42 980.052,2009.11 985.595,2006.7 991.138,2004.26 996.68,2001.91 1002.22,1999.52 1007.77,1997.18 1013.31,1995.04 1018.85,1993.03 1024.39,1990.86 1029.94,1988.74 1035.48,1986.57 1041.02,1984.36 1046.56,1981.95 1052.11,1979.5 1057.65,1977.14 1063.19,1974.75 1068.73,1972.29 1074.28,1969.91 1079.82,1967.41 1085.36,1964.87 1090.9,1962.38 1096.45,1959.97 1101.99,1957.84 1107.53,1955.72 1113.08,1953.93 1118.62,1952.33 1124.16,1950.72 1129.7,1949.4 1135.25,1948.3 1140.79,1947.13 1146.33,1945.59 1151.87,1943.85 1157.42,1941.8 1162.96,1940.12 1168.5,1938.68 1174.04,1937.44 1179.59,1936.32 1185.13,1935.06 1190.67,1933.97 1196.21,1932.94 1201.76,1931.78 1207.3,1930.51 1212.84,1929.02 1218.38,1927.69 1223.93,1926.14 1229.47,1924.18 1235.01,1922.32 1240.56,1920.51 1246.1,1918.75 1251.64,1916.38 1257.18,1913.94 1262.73,1911.86 1268.27,1910.21 1273.81,1908.74 1279.35,1907.82 1284.9,1906.22 1290.44,1904.59 1295.98,1903.41 1301.52,1901.89 1307.07,1900.24 1312.61,1898.49 1318.15,1895.86 1323.69,1892.94 1329.24,1890.26 1334.78,1887.48 1340.32,1885 1345.86,1882.14 1351.41,1879.43 1356.95,1877 1362.49,1874.83 1368.04,1872.28 1373.58,1869.2 1379.12,1866.52 1384.66,1864.7 1390.21,1862.58 1395.75,1860.96 1401.29,1858.8 1406.83,1856.21 1412.38,1854.32 1417.92,1852.58 1423.46,1851.08 1429,1848.97 1434.55,1846.7 1440.09,1844.53 1445.63,1842.89 1451.17,1841.36 1456.72,1840.38 1462.26,1840.18 1467.8,1839.29 1473.34,1838.6 1478.89,1837.45 1484.43,1836.75 1489.97,1835.89 1495.52,1835.29 1501.06,1834.67 1506.6,1833.94 1512.14,1832.95 1517.69,1832.07 1523.23,1831.11 1528.77,1830.52 1534.31,1829.77 1539.86,1828.73 1545.4,1828.09 1550.94,1827.34 1556.48,1826.62 1562.03,1827.34 1567.57,1827.6 1573.11,1827.7 1578.65,1827.87 1584.2,1827.92 1589.74,1827.96 1595.28,1828.07 1600.82,1827.84 1606.37,1827.56 1611.91,1827.78 1617.45,1827.74 1623,1827.32 1628.54,1826.92 1634.08,1826.21 1639.62,1825.5 1645.17,1824.59 1650.71,1823.5 1656.25,1823.32 1661.79,1823.02 1667.34,1822.02 1672.88,1820.56 1678.42,1819.17 1683.96,1817.34 1689.51,1815.97 1695.05,1814.09 1700.59,1812.14 1706.13,1809.89 1711.68,1807.42 1717.22,1804.74 1722.76,1802.4 1728.3,1800.16 1733.85,1798.12 1739.39,1795.41 1744.93,1792.55 1750.48,1789.21 1756.02,1785.63 1761.56,1782.17 1767.1,1778.95 1772.65,1775.94 1778.19,1773.08 1783.73,1770.7 1789.27,1767.82 1794.82,1764.87 1800.36,1761.52 1805.9,1758.83 1811.44,1755.84 1816.99,1753.19 1822.53,1750.54 1828.07,1747.53 1833.61,1744.32 1839.16,1741.53 1844.7,1738.84 1850.24,1735.43 1855.78,1731.58 1861.33,1727.4 1866.87,1722.95 1872.41,1718.52 1877.96,1714.17 1883.5,1709.73 1889.04,1705.45 1894.58,1701.01 1900.13,1696.19 1905.67,1691.42 1911.21,1686.9 1916.75,1682.91 1922.3,1679.08 1927.84,1676.06 1933.38,1673.33 1938.92,1670.86 1944.47,1668.41 1950.01,1665.8 1955.55,1663.56 1961.09,1661.5 1966.64,1659.58 1972.18,1657.14 1977.72,1654.41 1983.26,1651.88 1988.81,1649.14 1994.35,1646.01 1999.89,1642.63 2005.44,1639.02 2010.98,1635.81 2016.52,1632.34 2022.06,1627.76 2027.61,1623.31 2033.15,1618.66 2038.69,1614.49 2044.23,1610.14 2049.78,1606.3 2055.32,1602.84 2060.86,1599.76 2066.4,1596.92 2071.95,1593.82 2077.49,1590.84 2083.03,1586.91 2088.57,1583.23 2094.12,1579.04 2099.66,1574.74 2105.2,1571.69 2110.75,1568.72 2116.29,1566.42 2121.83,1564.65 2127.37,1561.75 2132.92,1558.25 2138.46,1554.58 2144,1550.53 2149.54,1547.17 2155.09,1543.38 2160.63,1539.3 2166.17,1534.71 2171.71,1529.91 2177.26,1524.93 2182.8,1519.95 2188.34,1514.86 2193.88,1509.12 2199.43,1502.45 2204.97,1495.95 2210.51,1489.93 2216.05,1483.91 2221.6,1477.43 2227.14,1470.58 2232.68,1464.33 2238.23,1458.01 2243.77,1452.39 2249.31,1446.89 2254.85,1440.72 2260.4,1434.47 2265.94,1428.43 2271.48,1422.71 2277.02,1416.52 2282.57,1410.7 2288.11,1404.07 2293.65,1398.57 2299.19,1393.36 2304.74,1387.58 2310.28,1382.79 2315.82,1378.71 2321.36,1373.81 2326.91,1368.97 2332.45,1362.76 2337.99,1357.02 2343.53,1351.08 2349.08,1344.7 2354.62,1338.41 2360.16,1331.87 2365.71,1325.06 2371.25,1316.93 2376.79,1308.8 2382.33,1300.26 2387.88,1292.29 2393.42,1284.32 2398.96,1276.76 2404.5,1269.59 2410.05,1262.12 2415.59,1253.61 2421.13,1244.73 2426.67,1235.38 2432.22,1227.03 2437.76,1218.75 2443.3,1209.9 2448.84,1200.28 2454.39,1190.56 2459.93,1181.15 2465.47,1170.83 2471.01,1160.16 2476.56,1149.41 2482.1,1139.27 2487.64,1129.1 2493.19,1119.38 2498.73,1109.89 2504.27,1099.53 2509.81,1088.59 2515.36,1078.16 2520.9,1068.23 2526.44,1059.36 2531.98,1051.79 2537.53,1045.23 2543.07,1038.66 2548.61,1031.5 2554.15,1025.09 2559.7,1021.08 2565.24,1015.95 2570.78,1010.28 2576.32,1003.79 2581.87,995.534 2587.41,987.755 2592.95,980.614 2598.49,973.446 2604.04,968.83 2609.58,963.666 2615.12,960.495 2620.67,957.799 2626.21,952.195 2631.75,945.84 2637.29,938.787 2642.84,931.654 2648.38,924.387 2653.92,916.494 2659.46,909.481 2665.01,901.325 2670.55,893.314 2676.09,886.693 2681.63,878.751 2687.18,868.344 2692.72,857.68 2698.26,847.009 2703.8,836.709 2709.35,827.35 2714.89,818.256 2720.43,807.909 2725.97,796.473 2731.52,785.314 2737.06,774.214 2742.6,764.951 2748.15,757.514 2753.69,752.121 2759.23,746.1 2764.77,739.716 2770.32,735.252 2775.86,730.3 2781.4,723.932 2786.94,715.175 2792.49,705.009 2798.03,694.629 2803.57,684.909 2809.11,674.111 2814.66,662.767 2820.2,653.502 2825.74,641.91 2831.28,632.155 2836.83,620.219 2842.37,607.638 2847.91,595.473 2853.45,585.066 2859,575.731 2864.54,567.103 2870.08,558.162 2875.63,552.576 2881.17,547.149 2886.71,541.909 2892.25,536.492 2897.8,534.164 2903.34,527.886 2908.88,524.737 2914.42,522.427 2919.97,519.523 2925.51,516.663 2931.05,511.711 2936.59,504.093 2942.14,494.628 2947.68,485.513 2953.22,475.002 2958.76,463.674 2964.31,451.761 2969.85,436.602 2975.39,420.307 2980.93,404.184 2986.48,388.405 2992.02,372.826 2997.56,355.96 3003.11,338.788 3008.65,321.846 3014.19,306.655 3019.73,291.053 3025.28,276.164 3030.82,262.907 3036.36,249.938 3041.9,237.019 3047.45,225.424 3052.99,213.376 3058.53,199.959 3064.07,185.335 3069.62,170.837 "/>
</svg>
