<?xml version="1.0" encoding="utf-8"?>
<svg xmlns="http://www.w3.org/2000/svg" xmlns:xlink="http://www.w3.org/1999/xlink" width="800" height="600" viewBox="0 0 3200 2400">
<defs>
  <clipPath id="clip730">
    <rect x="0" y="0" width="3200" height="2400"/>
  </clipPath>
</defs>
<path clip-path="url(#clip730)" d="M0 2400 L3200 2400 L3200 0 L0 0  Z" fill="#ffffff" fill-rule="evenodd" fill-opacity="1"/>
<defs>
  <clipPath id="clip731">
    <rect x="640" y="0" width="2241" height="2241"/>
  </clipPath>
</defs>
<path clip-path="url(#clip730)" d="M231.723 2204.92 L3152.76 2204.92 L3152.76 111.592 L231.723 111.592  Z" fill="#eaeaea" fill-rule="evenodd" fill-opacity="1"/>
<defs>
  <clipPath id="clip732">
    <rect x="231" y="111" width="2922" height="2094"/>
  </clipPath>
</defs>
<polyline clip-path="url(#clip732)" style="stroke:#ffffff; stroke-linecap:round; stroke-linejoin:round; stroke-width:2; stroke-opacity:1; fill:none" points="589.963,2204.92 589.963,111.592 "/>
<polyline clip-path="url(#clip732)" style="stroke:#ffffff; stroke-linecap:round; stroke-linejoin:round; stroke-width:2; stroke-opacity:1; fill:none" points="1141.1,2204.92 1141.1,111.592 "/>
<polyline clip-path="url(#clip732)" style="stroke:#ffffff; stroke-linecap:round; stroke-linejoin:round; stroke-width:2; stroke-opacity:1; fill:none" points="1692.24,2204.92 1692.24,111.592 "/>
<polyline clip-path="url(#clip732)" style="stroke:#ffffff; stroke-linecap:round; stroke-linejoin:round; stroke-width:2; stroke-opacity:1; fill:none" points="2243.38,2204.92 2243.38,111.592 "/>
<polyline clip-path="url(#clip732)" style="stroke:#ffffff; stroke-linecap:round; stroke-linejoin:round; stroke-width:2; stroke-opacity:1; fill:none" points="2794.52,2204.92 2794.52,111.592 "/>
<polyline clip-path="url(#clip732)" style="stroke:#ffffff; stroke-linecap:round; stroke-linejoin:round; stroke-width:2; stroke-opacity:1; fill:none" points="231.723,1984.89 3152.76,1984.89 "/>
<polyline clip-path="url(#clip732)" style="stroke:#ffffff; stroke-linecap:round; stroke-linejoin:round; stroke-width:2; stroke-opacity:1; fill:none" points="231.723,1663.32 3152.76,1663.32 "/>
<polyline clip-path="url(#clip732)" style="stroke:#ffffff; stroke-linecap:round; stroke-linejoin:round; stroke-width:2; stroke-opacity:1; fill:none" points="231.723,1341.75 3152.76,1341.75 "/>
<polyline clip-path="url(#clip732)" style="stroke:#ffffff; stroke-linecap:round; stroke-linejoin:round; stroke-width:2; stroke-opacity:1; fill:none" points="231.723,1020.18 3152.76,1020.18 "/>
<polyline clip-path="url(#clip732)" style="stroke:#ffffff; stroke-linecap:round; stroke-linejoin:round; stroke-width:2; stroke-opacity:1; fill:none" points="231.723,698.613 3152.76,698.613 "/>
<polyline clip-path="url(#clip732)" style="stroke:#ffffff; stroke-linecap:round; stroke-linejoin:round; stroke-width:2; stroke-opacity:1; fill:none" points="231.723,377.043 3152.76,377.043 "/>
<polyline clip-path="url(#clip732)" style="stroke:#ffffff; stroke-linecap:round; stroke-linejoin:round; stroke-width:4; stroke-opacity:1; fill:none" points="314.394,2204.92 314.394,111.592 "/>
<polyline clip-path="url(#clip732)" style="stroke:#ffffff; stroke-linecap:round; stroke-linejoin:round; stroke-width:4; stroke-opacity:1; fill:none" points="865.532,2204.92 865.532,111.592 "/>
<polyline clip-path="url(#clip732)" style="stroke:#ffffff; stroke-linecap:round; stroke-linejoin:round; stroke-width:4; stroke-opacity:1; fill:none" points="1416.67,2204.92 1416.67,111.592 "/>
<polyline clip-path="url(#clip732)" style="stroke:#ffffff; stroke-linecap:round; stroke-linejoin:round; stroke-width:4; stroke-opacity:1; fill:none" points="1967.81,2204.92 1967.81,111.592 "/>
<polyline clip-path="url(#clip732)" style="stroke:#ffffff; stroke-linecap:round; stroke-linejoin:round; stroke-width:4; stroke-opacity:1; fill:none" points="2518.95,2204.92 2518.95,111.592 "/>
<polyline clip-path="url(#clip732)" style="stroke:#ffffff; stroke-linecap:round; stroke-linejoin:round; stroke-width:4; stroke-opacity:1; fill:none" points="3070.09,2204.92 3070.09,111.592 "/>
<polyline clip-path="url(#clip732)" style="stroke:#ffffff; stroke-linecap:round; stroke-linejoin:round; stroke-width:4; stroke-opacity:1; fill:none" points="231.723,2145.67 3152.76,2145.67 "/>
<polyline clip-path="url(#clip732)" style="stroke:#ffffff; stroke-linecap:round; stroke-linejoin:round; stroke-width:4; stroke-opacity:1; fill:none" points="231.723,1824.11 3152.76,1824.11 "/>
<polyline clip-path="url(#clip732)" style="stroke:#ffffff; stroke-linecap:round; stroke-linejoin:round; stroke-width:4; stroke-opacity:1; fill:none" points="231.723,1502.54 3152.76,1502.54 "/>
<polyline clip-path="url(#clip732)" style="stroke:#ffffff; stroke-linecap:round; stroke-linejoin:round; stroke-width:4; stroke-opacity:1; fill:none" points="231.723,1180.97 3152.76,1180.97 "/>
<polyline clip-path="url(#clip732)" style="stroke:#ffffff; stroke-linecap:round; stroke-linejoin:round; stroke-width:4; stroke-opacity:1; fill:none" points="231.723,859.397 3152.76,859.397 "/>
<polyline clip-path="url(#clip732)" style="stroke:#ffffff; stroke-linecap:round; stroke-linejoin:round; stroke-width:4; stroke-opacity:1; fill:none" points="231.723,537.828 3152.76,537.828 "/>
<polyline clip-path="url(#clip732)" style="stroke:#ffffff; stroke-linecap:round; stroke-linejoin:round; stroke-width:4; stroke-opacity:1; fill:none" points="231.723,216.259 3152.76,216.259 "/>
<polyline clip-path="url(#clip730)" style="stroke:#ffffff; stroke-linecap:round; stroke-linejoin:round; stroke-width:4; stroke-opacity:1; fill:none" points="231.723,2204.92 3152.76,2204.92 "/>
<polyline clip-path="url(#clip730)" style="stroke:#333333; stroke-linecap:round; stroke-linejoin:round; stroke-width:4; stroke-opacity:1; fill:none" points="314.394,2204.92 314.394,2223.82 "/>
<polyline clip-path="url(#clip730)" style="stroke:#333333; stroke-linecap:round; stroke-linejoin:round; stroke-width:4; stroke-opacity:1; fill:none" points="865.532,2204.92 865.532,2223.82 "/>
<polyline clip-path="url(#clip730)" style="stroke:#333333; stroke-linecap:round; stroke-linejoin:round; stroke-width:4; stroke-opacity:1; fill:none" points="1416.67,2204.92 1416.67,2223.82 "/>
<polyline clip-path="url(#clip730)" style="stroke:#333333; stroke-linecap:round; stroke-linejoin:round; stroke-width:4; stroke-opacity:1; fill:none" points="1967.81,2204.92 1967.81,2223.82 "/>
<polyline clip-path="url(#clip730)" style="stroke:#333333; stroke-linecap:round; stroke-linejoin:round; stroke-width:4; stroke-opacity:1; fill:none" points="2518.95,2204.92 2518.95,2223.82 "/>
<polyline clip-path="url(#clip730)" style="stroke:#333333; stroke-linecap:round; stroke-linejoin:round; stroke-width:4; stroke-opacity:1; fill:none" points="3070.09,2204.92 3070.09,2223.82 "/>
<polyline clip-path="url(#clip730)" style="stroke:#333333; stroke-linecap:round; stroke-linejoin:round; stroke-width:4; stroke-opacity:1; fill:none" points="589.963,2204.92 589.963,2214.37 "/>
<polyline clip-path="url(#clip730)" style="stroke:#333333; stroke-linecap:round; stroke-linejoin:round; stroke-width:4; stroke-opacity:1; fill:none" points="1141.1,2204.92 1141.1,2214.37 "/>
<polyline clip-path="url(#clip730)" style="stroke:#333333; stroke-linecap:round; stroke-linejoin:round; stroke-width:4; stroke-opacity:1; fill:none" points="1692.24,2204.92 1692.24,2214.37 "/>
<polyline clip-path="url(#clip730)" style="stroke:#333333; stroke-linecap:round; stroke-linejoin:round; stroke-width:4; stroke-opacity:1; fill:none" points="2243.38,2204.92 2243.38,2214.37 "/>
<polyline clip-path="url(#clip730)" style="stroke:#333333; stroke-linecap:round; stroke-linejoin:round; stroke-width:4; stroke-opacity:1; fill:none" points="2794.52,2204.92 2794.52,2214.37 "/>
<path clip-path="url(#clip730)" d="M314.394 2255.04 Q310.783 2255.04 308.954 2258.6 Q307.148 2262.14 307.148 2269.27 Q307.148 2276.38 308.954 2279.95 Q310.783 2283.49 314.394 2283.49 Q318.028 2283.49 319.833 2279.95 Q321.662 2276.38 321.662 2269.27 Q321.662 2262.14 319.833 2258.6 Q318.028 2255.04 314.394 2255.04 M314.394 2251.33 Q320.204 2251.33 323.259 2255.94 Q326.338 2260.52 326.338 2269.27 Q326.338 2278 323.259 2282.61 Q320.204 2287.19 314.394 2287.19 Q308.584 2287.19 305.505 2282.61 Q302.449 2278 302.449 2269.27 Q302.449 2260.52 305.505 2255.94 Q308.584 2251.33 314.394 2251.33 Z" fill="#4c4c4c" fill-rule="nonzero" fill-opacity="1" /><path clip-path="url(#clip730)" d="M855.914 2282.58 L863.553 2282.58 L863.553 2256.22 L855.243 2257.89 L855.243 2253.63 L863.507 2251.96 L868.182 2251.96 L868.182 2282.58 L875.821 2282.58 L875.821 2286.52 L855.914 2286.52 L855.914 2282.58 Z" fill="#4c4c4c" fill-rule="nonzero" fill-opacity="1" /><path clip-path="url(#clip730)" d="M1411.32 2282.58 L1427.64 2282.58 L1427.64 2286.52 L1405.7 2286.52 L1405.7 2282.58 Q1408.36 2279.83 1412.94 2275.2 Q1417.55 2270.55 1418.73 2269.21 Q1420.98 2266.68 1421.86 2264.95 Q1422.76 2263.19 1422.76 2261.5 Q1422.76 2258.74 1420.81 2257.01 Q1418.89 2255.27 1415.79 2255.27 Q1413.59 2255.27 1411.14 2256.03 Q1408.71 2256.8 1405.93 2258.35 L1405.93 2253.63 Q1408.75 2252.49 1411.21 2251.91 Q1413.66 2251.33 1415.7 2251.33 Q1421.07 2251.33 1424.26 2254.02 Q1427.46 2256.71 1427.46 2261.2 Q1427.46 2263.33 1426.65 2265.25 Q1425.86 2267.14 1423.75 2269.74 Q1423.17 2270.41 1420.07 2273.63 Q1416.97 2276.82 1411.32 2282.58 Z" fill="#4c4c4c" fill-rule="nonzero" fill-opacity="1" /><path clip-path="url(#clip730)" d="M1972.06 2267.89 Q1975.41 2268.6 1977.29 2270.87 Q1979.19 2273.14 1979.19 2276.47 Q1979.19 2281.59 1975.67 2284.39 Q1972.15 2287.19 1965.67 2287.19 Q1963.49 2287.19 1961.18 2286.75 Q1958.89 2286.33 1956.43 2285.48 L1956.43 2280.96 Q1958.38 2282.1 1960.69 2282.68 Q1963.01 2283.26 1965.53 2283.26 Q1969.93 2283.26 1972.22 2281.52 Q1974.53 2279.78 1974.53 2276.47 Q1974.53 2273.42 1972.38 2271.71 Q1970.25 2269.97 1966.43 2269.97 L1962.4 2269.97 L1962.4 2266.13 L1966.62 2266.13 Q1970.07 2266.13 1971.89 2264.76 Q1973.72 2263.37 1973.72 2260.78 Q1973.72 2258.12 1971.82 2256.71 Q1969.95 2255.27 1966.43 2255.27 Q1964.51 2255.27 1962.31 2255.69 Q1960.11 2256.1 1957.47 2256.98 L1957.47 2252.82 Q1960.14 2252.08 1962.45 2251.71 Q1964.79 2251.33 1966.85 2251.33 Q1972.17 2251.33 1975.27 2253.77 Q1978.38 2256.17 1978.38 2260.29 Q1978.38 2263.16 1976.73 2265.15 Q1975.09 2267.12 1972.06 2267.89 Z" fill="#4c4c4c" fill-rule="nonzero" fill-opacity="1" /><path clip-path="url(#clip730)" d="M2521.96 2256.03 L2510.15 2274.48 L2521.96 2274.48 L2521.96 2256.03 M2520.73 2251.96 L2526.61 2251.96 L2526.61 2274.48 L2531.54 2274.48 L2531.54 2278.37 L2526.61 2278.37 L2526.61 2286.52 L2521.96 2286.52 L2521.96 2278.37 L2506.35 2278.37 L2506.35 2273.86 L2520.73 2251.96 Z" fill="#4c4c4c" fill-rule="nonzero" fill-opacity="1" /><path clip-path="url(#clip730)" d="M3060.36 2251.96 L3078.72 2251.96 L3078.72 2255.9 L3064.65 2255.9 L3064.65 2264.37 Q3065.66 2264.02 3066.68 2263.86 Q3067.7 2263.67 3068.72 2263.67 Q3074.51 2263.67 3077.89 2266.84 Q3081.27 2270.02 3081.27 2275.43 Q3081.27 2281.01 3077.79 2284.11 Q3074.32 2287.19 3068 2287.19 Q3065.83 2287.19 3063.56 2286.82 Q3061.31 2286.45 3058.9 2285.71 L3058.9 2281.01 Q3060.99 2282.14 3063.21 2282.7 Q3065.43 2283.26 3067.91 2283.26 Q3071.91 2283.26 3074.25 2281.15 Q3076.59 2279.04 3076.59 2275.43 Q3076.59 2271.82 3074.25 2269.71 Q3071.91 2267.61 3067.91 2267.61 Q3066.03 2267.61 3064.16 2268.02 Q3062.31 2268.44 3060.36 2269.32 L3060.36 2251.96 Z" fill="#4c4c4c" fill-rule="nonzero" fill-opacity="1" /><path clip-path="url(#clip730)" d="M1691.3 2316.01 L1691.3 2326.14 L1703.36 2326.14 L1703.36 2330.69 L1691.3 2330.69 L1691.3 2350.04 Q1691.3 2354.4 1692.48 2355.64 Q1693.69 2356.88 1697.35 2356.88 L1703.36 2356.88 L1703.36 2361.78 L1697.35 2361.78 Q1690.57 2361.78 1687.99 2359.27 Q1685.41 2356.72 1685.41 2350.04 L1685.41 2330.69 L1681.12 2330.69 L1681.12 2326.14 L1685.41 2326.14 L1685.41 2316.01 L1691.3 2316.01 Z" fill="#000000" fill-rule="nonzero" fill-opacity="1" /><polyline clip-path="url(#clip730)" style="stroke:#ffffff; stroke-linecap:round; stroke-linejoin:round; stroke-width:4; stroke-opacity:1; fill:none" points="231.723,2204.92 231.723,111.592 "/>
<polyline clip-path="url(#clip730)" style="stroke:#333333; stroke-linecap:round; stroke-linejoin:round; stroke-width:4; stroke-opacity:1; fill:none" points="231.723,2145.67 212.825,2145.67 "/>
<polyline clip-path="url(#clip730)" style="stroke:#333333; stroke-linecap:round; stroke-linejoin:round; stroke-width:4; stroke-opacity:1; fill:none" points="231.723,1824.11 212.825,1824.11 "/>
<polyline clip-path="url(#clip730)" style="stroke:#333333; stroke-linecap:round; stroke-linejoin:round; stroke-width:4; stroke-opacity:1; fill:none" points="231.723,1502.54 212.825,1502.54 "/>
<polyline clip-path="url(#clip730)" style="stroke:#333333; stroke-linecap:round; stroke-linejoin:round; stroke-width:4; stroke-opacity:1; fill:none" points="231.723,1180.97 212.825,1180.97 "/>
<polyline clip-path="url(#clip730)" style="stroke:#333333; stroke-linecap:round; stroke-linejoin:round; stroke-width:4; stroke-opacity:1; fill:none" points="231.723,859.397 212.825,859.397 "/>
<polyline clip-path="url(#clip730)" style="stroke:#333333; stroke-linecap:round; stroke-linejoin:round; stroke-width:4; stroke-opacity:1; fill:none" points="231.723,537.828 212.825,537.828 "/>
<polyline clip-path="url(#clip730)" style="stroke:#333333; stroke-linecap:round; stroke-linejoin:round; stroke-width:4; stroke-opacity:1; fill:none" points="231.723,216.259 212.825,216.259 "/>
<polyline clip-path="url(#clip730)" style="stroke:#333333; stroke-linecap:round; stroke-linejoin:round; stroke-width:4; stroke-opacity:1; fill:none" points="231.723,1984.89 222.274,1984.89 "/>
<polyline clip-path="url(#clip730)" style="stroke:#333333; stroke-linecap:round; stroke-linejoin:round; stroke-width:4; stroke-opacity:1; fill:none" points="231.723,1663.32 222.274,1663.32 "/>
<polyline clip-path="url(#clip730)" style="stroke:#333333; stroke-linecap:round; stroke-linejoin:round; stroke-width:4; stroke-opacity:1; fill:none" points="231.723,1341.75 222.274,1341.75 "/>
<polyline clip-path="url(#clip730)" style="stroke:#333333; stroke-linecap:round; stroke-linejoin:round; stroke-width:4; stroke-opacity:1; fill:none" points="231.723,1020.18 222.274,1020.18 "/>
<polyline clip-path="url(#clip730)" style="stroke:#333333; stroke-linecap:round; stroke-linejoin:round; stroke-width:4; stroke-opacity:1; fill:none" points="231.723,698.613 222.274,698.613 "/>
<polyline clip-path="url(#clip730)" style="stroke:#333333; stroke-linecap:round; stroke-linejoin:round; stroke-width:4; stroke-opacity:1; fill:none" points="231.723,377.043 222.274,377.043 "/>
<path clip-path="url(#clip730)" d="M93.3576 2159.02 L100.996 2159.02 L100.996 2132.65 L92.6863 2134.32 L92.6863 2130.06 L100.95 2128.39 L105.626 2128.39 L105.626 2159.02 L113.265 2159.02 L113.265 2162.95 L93.3576 2162.95 L93.3576 2159.02 Z" fill="#4c4c4c" fill-rule="nonzero" fill-opacity="1" /><path clip-path="url(#clip730)" d="M122.709 2157.08 L127.593 2157.08 L127.593 2162.95 L122.709 2162.95 L122.709 2157.08 Z" fill="#4c4c4c" fill-rule="nonzero" fill-opacity="1" /><path clip-path="url(#clip730)" d="M147.779 2131.47 Q144.167 2131.47 142.339 2135.04 Q140.533 2138.58 140.533 2145.71 Q140.533 2152.82 142.339 2156.38 Q144.167 2159.92 147.779 2159.92 Q151.413 2159.92 153.218 2156.38 Q155.047 2152.82 155.047 2145.71 Q155.047 2138.58 153.218 2135.04 Q151.413 2131.47 147.779 2131.47 M147.779 2127.77 Q153.589 2127.77 156.644 2132.38 Q159.723 2136.96 159.723 2145.71 Q159.723 2154.44 156.644 2159.04 Q153.589 2163.63 147.779 2163.63 Q141.968 2163.63 138.89 2159.04 Q135.834 2154.44 135.834 2145.71 Q135.834 2136.96 138.89 2132.38 Q141.968 2127.77 147.779 2127.77 Z" fill="#4c4c4c" fill-rule="nonzero" fill-opacity="1" /><path clip-path="url(#clip730)" d="M94.5844 1837.45 L102.223 1837.45 L102.223 1811.08 L93.9131 1812.75 L93.9131 1808.49 L102.177 1806.83 L106.853 1806.83 L106.853 1837.45 L114.492 1837.45 L114.492 1841.39 L94.5844 1841.39 L94.5844 1837.45 Z" fill="#4c4c4c" fill-rule="nonzero" fill-opacity="1" /><path clip-path="url(#clip730)" d="M123.936 1835.51 L128.82 1835.51 L128.82 1841.39 L123.936 1841.39 L123.936 1835.51 Z" fill="#4c4c4c" fill-rule="nonzero" fill-opacity="1" /><path clip-path="url(#clip730)" d="M139.816 1837.45 L147.454 1837.45 L147.454 1811.08 L139.144 1812.75 L139.144 1808.49 L147.408 1806.83 L152.084 1806.83 L152.084 1837.45 L159.723 1837.45 L159.723 1841.39 L139.816 1841.39 L139.816 1837.45 Z" fill="#4c4c4c" fill-rule="nonzero" fill-opacity="1" /><path clip-path="url(#clip730)" d="M94.9548 1515.88 L102.594 1515.88 L102.594 1489.52 L94.2835 1491.18 L94.2835 1486.92 L102.547 1485.26 L107.223 1485.26 L107.223 1515.88 L114.862 1515.88 L114.862 1519.82 L94.9548 1519.82 L94.9548 1515.88 Z" fill="#4c4c4c" fill-rule="nonzero" fill-opacity="1" /><path clip-path="url(#clip730)" d="M124.306 1513.94 L129.191 1513.94 L129.191 1519.82 L124.306 1519.82 L124.306 1513.94 Z" fill="#4c4c4c" fill-rule="nonzero" fill-opacity="1" /><path clip-path="url(#clip730)" d="M143.404 1515.88 L159.723 1515.88 L159.723 1519.82 L137.779 1519.82 L137.779 1515.88 Q140.441 1513.13 145.024 1508.5 Q149.63 1503.84 150.811 1502.5 Q153.056 1499.98 153.936 1498.24 Q154.839 1496.48 154.839 1494.79 Q154.839 1492.04 152.894 1490.3 Q150.973 1488.57 147.871 1488.57 Q145.672 1488.57 143.218 1489.33 Q140.788 1490.09 138.01 1491.64 L138.01 1486.92 Q140.834 1485.79 143.288 1485.21 Q145.742 1484.63 147.779 1484.63 Q153.149 1484.63 156.343 1487.32 Q159.538 1490 159.538 1494.49 Q159.538 1496.62 158.728 1498.54 Q157.941 1500.44 155.834 1503.03 Q155.255 1503.7 152.154 1506.92 Q149.052 1510.12 143.404 1515.88 Z" fill="#4c4c4c" fill-rule="nonzero" fill-opacity="1" /><path clip-path="url(#clip730)" d="M94.0057 1194.31 L101.645 1194.31 L101.645 1167.95 L93.3344 1169.61 L93.3344 1165.35 L101.598 1163.69 L106.274 1163.69 L106.274 1194.31 L113.913 1194.31 L113.913 1198.25 L94.0057 1198.25 L94.0057 1194.31 Z" fill="#4c4c4c" fill-rule="nonzero" fill-opacity="1" /><path clip-path="url(#clip730)" d="M123.357 1192.37 L128.242 1192.37 L128.242 1198.25 L123.357 1198.25 L123.357 1192.37 Z" fill="#4c4c4c" fill-rule="nonzero" fill-opacity="1" /><path clip-path="url(#clip730)" d="M152.593 1179.61 Q155.95 1180.33 157.825 1182.6 Q159.723 1184.87 159.723 1188.2 Q159.723 1193.32 156.204 1196.12 Q152.686 1198.92 146.204 1198.92 Q144.029 1198.92 141.714 1198.48 Q139.422 1198.06 136.968 1197.2 L136.968 1192.69 Q138.913 1193.83 141.228 1194.4 Q143.542 1194.98 146.066 1194.98 Q150.464 1194.98 152.755 1193.25 Q155.07 1191.51 155.07 1188.2 Q155.07 1185.14 152.917 1183.43 Q150.788 1181.7 146.968 1181.7 L142.941 1181.7 L142.941 1177.85 L147.154 1177.85 Q150.603 1177.85 152.431 1176.49 Q154.26 1175.1 154.26 1172.51 Q154.26 1169.84 152.362 1168.43 Q150.487 1167 146.968 1167 Q145.047 1167 142.848 1167.41 Q140.649 1167.83 138.01 1168.71 L138.01 1164.54 Q140.672 1163.8 142.987 1163.43 Q145.325 1163.06 147.385 1163.06 Q152.709 1163.06 155.811 1165.49 Q158.913 1167.9 158.913 1172.02 Q158.913 1174.89 157.269 1176.88 Q155.626 1178.85 152.593 1179.61 Z" fill="#4c4c4c" fill-rule="nonzero" fill-opacity="1" /><path clip-path="url(#clip730)" d="M92.8715 872.742 L100.51 872.742 L100.51 846.377 L92.2002 848.043 L92.2002 843.784 L100.464 842.117 L105.14 842.117 L105.14 872.742 L112.779 872.742 L112.779 876.677 L92.8715 876.677 L92.8715 872.742 Z" fill="#4c4c4c" fill-rule="nonzero" fill-opacity="1" /><path clip-path="url(#clip730)" d="M122.223 870.798 L127.107 870.798 L127.107 876.677 L122.223 876.677 L122.223 870.798 Z" fill="#4c4c4c" fill-rule="nonzero" fill-opacity="1" /><path clip-path="url(#clip730)" d="M150.14 846.191 L138.334 864.64 L150.14 864.64 L150.14 846.191 M148.913 842.117 L154.792 842.117 L154.792 864.64 L159.723 864.64 L159.723 868.529 L154.792 868.529 L154.792 876.677 L150.14 876.677 L150.14 868.529 L134.538 868.529 L134.538 864.015 L148.913 842.117 Z" fill="#4c4c4c" fill-rule="nonzero" fill-opacity="1" /><path clip-path="url(#clip730)" d="M94.3529 551.173 L101.992 551.173 L101.992 524.807 L93.6816 526.474 L93.6816 522.215 L101.945 520.548 L106.621 520.548 L106.621 551.173 L114.26 551.173 L114.26 555.108 L94.3529 555.108 L94.3529 551.173 Z" fill="#4c4c4c" fill-rule="nonzero" fill-opacity="1" /><path clip-path="url(#clip730)" d="M123.705 549.228 L128.589 549.228 L128.589 555.108 L123.705 555.108 L123.705 549.228 Z" fill="#4c4c4c" fill-rule="nonzero" fill-opacity="1" /><path clip-path="url(#clip730)" d="M138.82 520.548 L157.177 520.548 L157.177 524.483 L143.103 524.483 L143.103 532.955 Q144.121 532.608 145.14 532.446 Q146.158 532.261 147.177 532.261 Q152.964 532.261 156.343 535.432 Q159.723 538.603 159.723 544.02 Q159.723 549.599 156.251 552.701 Q152.779 555.779 146.459 555.779 Q144.283 555.779 142.015 555.409 Q139.769 555.038 137.362 554.298 L137.362 549.599 Q139.445 550.733 141.667 551.289 Q143.89 551.844 146.367 551.844 Q150.371 551.844 152.709 549.738 Q155.047 547.631 155.047 544.02 Q155.047 540.409 152.709 538.302 Q150.371 536.196 146.367 536.196 Q144.492 536.196 142.617 536.613 Q140.765 537.029 138.82 537.909 L138.82 520.548 Z" fill="#4c4c4c" fill-rule="nonzero" fill-opacity="1" /><path clip-path="url(#clip730)" d="M93.1955 229.603 L100.834 229.603 L100.834 203.238 L92.5242 204.904 L92.5242 200.645 L100.788 198.979 L105.464 198.979 L105.464 229.603 L113.103 229.603 L113.103 233.539 L93.1955 233.539 L93.1955 229.603 Z" fill="#4c4c4c" fill-rule="nonzero" fill-opacity="1" /><path clip-path="url(#clip730)" d="M122.547 227.659 L127.431 227.659 L127.431 233.539 L122.547 233.539 L122.547 227.659 Z" fill="#4c4c4c" fill-rule="nonzero" fill-opacity="1" /><path clip-path="url(#clip730)" d="M148.195 214.395 Q145.047 214.395 143.195 216.548 Q141.367 218.701 141.367 222.451 Q141.367 226.177 143.195 228.353 Q145.047 230.506 148.195 230.506 Q151.343 230.506 153.172 228.353 Q155.024 226.177 155.024 222.451 Q155.024 218.701 153.172 216.548 Q151.343 214.395 148.195 214.395 M157.478 199.742 L157.478 204.002 Q155.718 203.168 153.913 202.729 Q152.13 202.289 150.371 202.289 Q145.742 202.289 143.288 205.414 Q140.857 208.539 140.51 214.858 Q141.876 212.844 143.936 211.779 Q145.996 210.691 148.473 210.691 Q153.681 210.691 156.691 213.863 Q159.723 217.011 159.723 222.451 Q159.723 227.775 156.575 230.992 Q153.427 234.21 148.195 234.21 Q142.2 234.21 139.029 229.627 Q135.857 225.02 135.857 216.293 Q135.857 208.099 139.746 203.238 Q143.635 198.354 150.186 198.354 Q151.945 198.354 153.728 198.701 Q155.533 199.048 157.478 199.742 Z" fill="#4c4c4c" fill-rule="nonzero" fill-opacity="1" /><path clip-path="url(#clip730)" d="M18.2962 1141.64 L35.6428 1154.53 L53.9442 1140.97 L53.9442 1147.88 L39.9396 1158.26 L53.9442 1168.63 L53.9442 1175.54 L35.2926 1161.69 L18.2962 1174.36 L18.2962 1167.45 L30.9958 1158 L18.2962 1148.55 L18.2962 1141.64 Z" fill="#000000" fill-rule="nonzero" fill-opacity="1" /><path clip-path="url(#clip730)" d="M1151.01 20.3876 L1151.01 25.4223 Q1148.75 24.2649 1146.32 23.6862 Q1143.89 23.1075 1141.29 23.1075 Q1137.32 23.1075 1135.33 24.3228 Q1133.36 25.5381 1133.36 27.9686 Q1133.36 29.8204 1134.78 30.891 Q1136.19 31.9327 1140.48 32.8876 L1142.3 33.2926 Q1147.97 34.5079 1150.34 36.7359 Q1152.75 38.935 1152.75 42.8991 Q1152.75 47.4129 1149.16 50.046 Q1145.6 52.6791 1139.35 52.6791 Q1136.74 52.6791 1133.91 52.1583 Q1131.1 51.6664 1127.98 50.6537 L1127.98 45.156 Q1130.93 46.6896 1133.79 47.4708 Q1136.66 48.2231 1139.46 48.2231 Q1143.23 48.2231 1145.25 46.95 Q1147.28 45.6479 1147.28 43.3042 Q1147.28 41.134 1145.8 39.9766 Q1144.35 38.8192 1139.41 37.7486 L1137.55 37.3146 Q1132.61 36.273 1130.41 34.1318 Q1128.21 31.9616 1128.21 28.2001 Q1128.21 23.6283 1131.45 21.1399 Q1134.69 18.6515 1140.65 18.6515 Q1143.6 18.6515 1146.21 19.0855 Q1148.81 19.5196 1151.01 20.3876 Z" fill="#000000" fill-rule="nonzero" fill-opacity="1" /><path clip-path="url(#clip730)" d="M1173.78 23.1654 Q1169.5 23.1654 1167.01 26.5218 Q1164.52 29.8494 1164.52 35.6653 Q1164.52 41.4813 1166.98 44.8377 Q1169.47 48.1653 1173.78 48.1653 Q1178.04 48.1653 1180.52 44.8088 Q1183.01 41.4523 1183.01 35.6653 Q1183.01 29.9072 1180.52 26.5508 Q1178.04 23.1654 1173.78 23.1654 M1173.78 18.6515 Q1180.73 18.6515 1184.69 23.1654 Q1188.65 27.6792 1188.65 35.6653 Q1188.65 43.6225 1184.69 48.1653 Q1180.73 52.6791 1173.78 52.6791 Q1166.81 52.6791 1162.84 48.1653 Q1158.91 43.6225 1158.91 35.6653 Q1158.91 27.6792 1162.84 23.1654 Q1166.81 18.6515 1173.78 18.6515 Z" fill="#000000" fill-rule="nonzero" fill-opacity="1" /><path clip-path="url(#clip730)" d="M1197.48 6.81709 L1202.8 6.81709 L1202.8 51.84 L1197.48 51.84 L1197.48 6.81709 Z" fill="#000000" fill-rule="nonzero" fill-opacity="1" /><path clip-path="url(#clip730)" d="M1213.39 39.0507 L1213.39 19.4328 L1218.72 19.4328 L1218.72 38.8482 Q1218.72 43.4488 1220.51 45.7636 Q1222.31 48.0495 1225.89 48.0495 Q1230.2 48.0495 1232.69 45.3007 Q1235.21 42.5519 1235.21 37.8065 L1235.21 19.4328 L1240.53 19.4328 L1240.53 51.84 L1235.21 51.84 L1235.21 46.8632 Q1233.27 49.8145 1230.7 51.2613 Q1228.15 52.6791 1224.77 52.6791 Q1219.18 52.6791 1216.29 49.2069 Q1213.39 45.7347 1213.39 39.0507 M1226.79 18.6515 L1226.79 18.6515 Z" fill="#000000" fill-rule="nonzero" fill-opacity="1" /><path clip-path="url(#clip730)" d="M1274.82 20.677 L1274.82 25.6538 Q1272.57 24.4096 1270.28 23.802 Q1268.02 23.1654 1265.71 23.1654 Q1260.53 23.1654 1257.66 26.464 Q1254.8 29.7336 1254.8 35.6653 Q1254.8 41.597 1257.66 44.8956 Q1260.53 48.1653 1265.71 48.1653 Q1268.02 48.1653 1270.28 47.5576 Q1272.57 46.921 1274.82 45.6768 L1274.82 50.5958 Q1272.59 51.6375 1270.19 52.1583 Q1267.82 52.6791 1265.13 52.6791 Q1257.81 52.6791 1253.5 48.0784 Q1249.19 43.4778 1249.19 35.6653 Q1249.19 27.7371 1253.53 23.1943 Q1257.9 18.6515 1265.48 18.6515 Q1267.94 18.6515 1270.28 19.1724 Q1272.62 19.6642 1274.82 20.677 M1267.3 51.84 Q1268.89 53.634 1269.67 55.1386 Q1270.45 56.6722 1270.45 58.061 Q1270.45 60.6362 1268.72 61.9383 Q1266.98 63.2693 1263.57 63.2693 Q1262.24 63.2693 1260.96 63.0957 Q1259.72 62.9221 1258.47 62.5749 L1258.47 58.7844 Q1259.46 59.2763 1260.53 59.4788 Q1261.6 59.7103 1262.96 59.7103 Q1264.67 59.7103 1265.53 59.0159 Q1266.4 58.3214 1266.4 56.9904 Q1266.4 56.1224 1265.77 54.8492 Q1265.16 53.605 1263.86 51.84 L1267.3 51.84 Z" fill="#000000" fill-rule="nonzero" fill-opacity="1" /><path clip-path="url(#clip730)" d="M1298.81 35.5496 Q1292.36 35.5496 1289.87 37.0253 Q1287.38 38.501 1287.38 42.06 Q1287.38 44.8956 1289.23 46.5738 Q1291.11 48.2231 1294.32 48.2231 Q1298.75 48.2231 1301.41 45.0981 Q1304.1 41.9442 1304.1 36.7359 L1304.1 35.5496 L1298.81 35.5496 M1309.43 33.3505 L1309.43 51.84 L1304.1 51.84 L1304.1 46.921 Q1302.28 49.8724 1299.56 51.2902 Q1296.84 52.6791 1292.91 52.6791 Q1287.93 52.6791 1284.98 49.9014 Q1282.06 47.0947 1282.06 42.4072 Q1282.06 36.9385 1285.7 34.1607 Q1289.38 31.3829 1296.64 31.3829 L1304.1 31.3829 L1304.1 30.8621 Q1304.1 27.1874 1301.67 25.1908 Q1299.27 23.1654 1294.9 23.1654 Q1292.13 23.1654 1289.49 23.8309 Q1286.86 24.4964 1284.43 25.8274 L1284.43 20.9085 Q1287.35 19.78 1290.1 19.2302 Q1292.85 18.6515 1295.45 18.6515 Q1302.48 18.6515 1305.96 22.2973 Q1309.43 25.9431 1309.43 33.3505 M1295.57 12.199 L1293.92 10.6076 Q1293.28 10.0289 1292.79 9.76847 Q1292.33 9.47912 1291.95 9.47912 Q1290.85 9.47912 1290.33 10.5497 Q1289.81 11.5914 1289.75 13.964 L1286.14 13.964 Q1286.19 10.0578 1287.67 7.94556 Q1289.15 5.80437 1291.78 5.80437 Q1292.88 5.80437 1293.8 6.20946 Q1294.73 6.61455 1295.8 7.5694 L1297.45 9.16083 Q1298.09 9.73953 1298.55 10.0289 Q1299.04 10.2893 1299.42 10.2893 Q1300.52 10.2893 1301.04 9.24764 Q1301.56 8.17704 1301.62 5.80437 L1305.23 5.80437 Q1305.18 9.7106 1303.7 11.8518 Q1302.22 13.964 1299.59 13.964 Q1298.49 13.964 1297.57 13.559 Q1296.64 13.1539 1295.57 12.199 Z" fill="#000000" fill-rule="nonzero" fill-opacity="1" /><path clip-path="url(#clip730)" d="M1332.95 23.1654 Q1328.67 23.1654 1326.18 26.5218 Q1323.69 29.8494 1323.69 35.6653 Q1323.69 41.4813 1326.15 44.8377 Q1328.64 48.1653 1332.95 48.1653 Q1337.21 48.1653 1339.7 44.8088 Q1342.18 41.4523 1342.18 35.6653 Q1342.18 29.9072 1339.7 26.5508 Q1337.21 23.1654 1332.95 23.1654 M1332.95 18.6515 Q1339.9 18.6515 1343.86 23.1654 Q1347.83 27.6792 1347.83 35.6653 Q1347.83 43.6225 1343.86 48.1653 Q1339.9 52.6791 1332.95 52.6791 Q1325.98 52.6791 1322.02 48.1653 Q1318.08 43.6225 1318.08 35.6653 Q1318.08 27.6792 1322.02 23.1654 Q1325.98 18.6515 1332.95 18.6515 Z" fill="#000000" fill-rule="nonzero" fill-opacity="1" /><path clip-path="url(#clip730)" d="M1396.81 24.3517 L1396.81 6.81709 L1402.14 6.81709 L1402.14 51.84 L1396.81 51.84 L1396.81 46.9789 Q1395.13 49.8724 1392.56 51.2902 Q1390.01 52.6791 1386.43 52.6791 Q1380.55 52.6791 1376.85 47.9916 Q1373.17 43.3042 1373.17 35.6653 Q1373.17 28.0265 1376.85 23.339 Q1380.55 18.6515 1386.43 18.6515 Q1390.01 18.6515 1392.56 20.0693 Q1395.13 21.4582 1396.81 24.3517 M1378.67 35.6653 Q1378.67 41.5391 1381.07 44.8956 Q1383.5 48.2231 1387.73 48.2231 Q1391.95 48.2231 1394.38 44.8956 Q1396.81 41.5391 1396.81 35.6653 Q1396.81 29.7915 1394.38 26.464 Q1391.95 23.1075 1387.73 23.1075 Q1383.5 23.1075 1381.07 26.464 Q1378.67 29.7915 1378.67 35.6653 Z" fill="#000000" fill-rule="nonzero" fill-opacity="1" /><path clip-path="url(#clip730)" d="M1427.83 35.5496 Q1421.38 35.5496 1418.89 37.0253 Q1416.4 38.501 1416.4 42.06 Q1416.4 44.8956 1418.25 46.5738 Q1420.13 48.2231 1423.35 48.2231 Q1427.77 48.2231 1430.44 45.0981 Q1433.13 41.9442 1433.13 36.7359 L1433.13 35.5496 L1427.83 35.5496 M1438.45 33.3505 L1438.45 51.84 L1433.13 51.84 L1433.13 46.921 Q1431.3 49.8724 1428.58 51.2902 Q1425.86 52.6791 1421.93 52.6791 Q1416.95 52.6791 1414 49.9014 Q1411.08 47.0947 1411.08 42.4072 Q1411.08 36.9385 1414.72 34.1607 Q1418.4 31.3829 1425.66 31.3829 L1433.13 31.3829 L1433.13 30.8621 Q1433.13 27.1874 1430.7 25.1908 Q1428.29 23.1654 1423.92 23.1654 Q1421.15 23.1654 1418.51 23.8309 Q1415.88 24.4964 1413.45 25.8274 L1413.45 20.9085 Q1416.37 19.78 1419.12 19.2302 Q1421.87 18.6515 1424.47 18.6515 Q1431.51 18.6515 1434.98 22.2973 Q1438.45 25.9431 1438.45 33.3505 Z" fill="#000000" fill-rule="nonzero" fill-opacity="1" /><path clip-path="url(#clip730)" d="M1495.97 34.3054 L1495.97 36.9095 L1471.49 36.9095 Q1471.84 42.4072 1474.79 45.3007 Q1477.77 48.1653 1483.07 48.1653 Q1486.14 48.1653 1489 47.4129 Q1491.89 46.6606 1494.73 45.156 L1494.73 50.1907 Q1491.86 51.406 1488.86 52.0425 Q1485.85 52.6791 1482.75 52.6791 Q1475 52.6791 1470.45 48.1653 Q1465.94 43.6514 1465.94 35.9547 Q1465.94 27.9975 1470.22 23.339 Q1474.53 18.6515 1481.82 18.6515 Q1488.36 18.6515 1492.15 22.876 Q1495.97 27.0716 1495.97 34.3054 M1490.65 32.7429 Q1490.59 28.3737 1488.19 25.7695 Q1485.82 23.1654 1481.88 23.1654 Q1477.43 23.1654 1474.73 25.6827 Q1472.07 28.2001 1471.67 32.7718 L1490.65 32.7429 Z" fill="#000000" fill-rule="nonzero" fill-opacity="1" /><path clip-path="url(#clip730)" d="M1507.89 35.6653 Q1507.89 41.5391 1510.3 44.8956 Q1512.73 48.2231 1516.95 48.2231 Q1521.18 48.2231 1523.61 44.8956 Q1526.04 41.5391 1526.04 35.6653 Q1526.04 29.7915 1523.61 26.464 Q1521.18 23.1075 1516.95 23.1075 Q1512.73 23.1075 1510.3 26.464 Q1507.89 29.7915 1507.89 35.6653 M1526.04 46.9789 Q1524.36 49.8724 1521.78 51.2902 Q1519.24 52.6791 1515.65 52.6791 Q1509.78 52.6791 1506.07 47.9916 Q1502.4 43.3042 1502.4 35.6653 Q1502.4 28.0265 1506.07 23.339 Q1509.78 18.6515 1515.65 18.6515 Q1519.24 18.6515 1521.78 20.0693 Q1524.36 21.4582 1526.04 24.3517 L1526.04 19.4328 L1531.36 19.4328 L1531.36 64.1663 L1526.04 64.1663 L1526.04 46.9789 Z" fill="#000000" fill-rule="nonzero" fill-opacity="1" /><path clip-path="url(#clip730)" d="M1541.78 39.0507 L1541.78 19.4328 L1547.1 19.4328 L1547.1 38.8482 Q1547.1 43.4488 1548.9 45.7636 Q1550.69 48.0495 1554.28 48.0495 Q1558.59 48.0495 1561.08 45.3007 Q1563.59 42.5519 1563.59 37.8065 L1563.59 19.4328 L1568.92 19.4328 L1568.92 51.84 L1563.59 51.84 L1563.59 46.8632 Q1561.66 49.8145 1559.08 51.2613 Q1556.53 52.6791 1553.15 52.6791 Q1547.56 52.6791 1544.67 49.2069 Q1541.78 45.7347 1541.78 39.0507 M1555.17 18.6515 L1555.17 18.6515 Z" fill="#000000" fill-rule="nonzero" fill-opacity="1" /><path clip-path="url(#clip730)" d="M1594.61 35.5496 Q1588.16 35.5496 1585.67 37.0253 Q1583.18 38.501 1583.18 42.06 Q1583.18 44.8956 1585.04 46.5738 Q1586.92 48.2231 1590.13 48.2231 Q1594.55 48.2231 1597.22 45.0981 Q1599.91 41.9442 1599.91 36.7359 L1599.91 35.5496 L1594.61 35.5496 M1605.23 33.3505 L1605.23 51.84 L1599.91 51.84 L1599.91 46.921 Q1598.08 49.8724 1595.36 51.2902 Q1592.65 52.6791 1588.71 52.6791 Q1583.73 52.6791 1580.78 49.9014 Q1577.86 47.0947 1577.86 42.4072 Q1577.86 36.9385 1581.51 34.1607 Q1585.18 31.3829 1592.44 31.3829 L1599.91 31.3829 L1599.91 30.8621 Q1599.91 27.1874 1597.48 25.1908 Q1595.08 23.1654 1590.71 23.1654 Q1587.93 23.1654 1585.3 23.8309 Q1582.66 24.4964 1580.23 25.8274 L1580.23 20.9085 Q1583.15 19.78 1585.9 19.2302 Q1588.65 18.6515 1591.26 18.6515 Q1598.29 18.6515 1601.76 22.2973 Q1605.23 25.9431 1605.23 33.3505 Z" fill="#000000" fill-rule="nonzero" fill-opacity="1" /><path clip-path="url(#clip730)" d="M1639.52 20.677 L1639.52 25.6538 Q1637.26 24.4096 1634.98 23.802 Q1632.72 23.1654 1630.41 23.1654 Q1625.23 23.1654 1622.36 26.464 Q1619.5 29.7336 1619.5 35.6653 Q1619.5 41.597 1622.36 44.8956 Q1625.23 48.1653 1630.41 48.1653 Q1632.72 48.1653 1634.98 47.5576 Q1637.26 46.921 1639.52 45.6768 L1639.52 50.5958 Q1637.29 51.6375 1634.89 52.1583 Q1632.52 52.6791 1629.83 52.6791 Q1622.51 52.6791 1618.19 48.0784 Q1613.88 43.4778 1613.88 35.6653 Q1613.88 27.7371 1618.22 23.1943 Q1622.59 18.6515 1630.17 18.6515 Q1632.63 18.6515 1634.98 19.1724 Q1637.32 19.6642 1639.52 20.677 M1632 51.84 Q1633.59 53.634 1634.37 55.1386 Q1635.15 56.6722 1635.15 58.061 Q1635.15 60.6362 1633.41 61.9383 Q1631.68 63.2693 1628.26 63.2693 Q1626.93 63.2693 1625.66 63.0957 Q1624.42 62.9221 1623.17 62.5749 L1623.17 58.7844 Q1624.16 59.2763 1625.23 59.4788 Q1626.3 59.7103 1627.66 59.7103 Q1629.36 59.7103 1630.23 59.0159 Q1631.1 58.3214 1631.1 56.9904 Q1631.1 56.1224 1630.46 54.8492 Q1629.86 53.605 1628.55 51.84 L1632 51.84 Z" fill="#000000" fill-rule="nonzero" fill-opacity="1" /><path clip-path="url(#clip730)" d="M1663.51 35.5496 Q1657.05 35.5496 1654.57 37.0253 Q1652.08 38.501 1652.08 42.06 Q1652.08 44.8956 1653.93 46.5738 Q1655.81 48.2231 1659.02 48.2231 Q1663.45 48.2231 1666.11 45.0981 Q1668.8 41.9442 1668.8 36.7359 L1668.8 35.5496 L1663.51 35.5496 M1674.13 33.3505 L1674.13 51.84 L1668.8 51.84 L1668.8 46.921 Q1666.98 49.8724 1664.26 51.2902 Q1661.54 52.6791 1657.6 52.6791 Q1652.63 52.6791 1649.68 49.9014 Q1646.75 47.0947 1646.75 42.4072 Q1646.75 36.9385 1650.4 34.1607 Q1654.07 31.3829 1661.34 31.3829 L1668.8 31.3829 L1668.8 30.8621 Q1668.8 27.1874 1666.37 25.1908 Q1663.97 23.1654 1659.6 23.1654 Q1656.82 23.1654 1654.19 23.8309 Q1651.56 24.4964 1649.13 25.8274 L1649.13 20.9085 Q1652.05 19.78 1654.8 19.2302 Q1657.55 18.6515 1660.15 18.6515 Q1667.18 18.6515 1670.65 22.2973 Q1674.13 25.9431 1674.13 33.3505 M1660.27 12.199 L1658.62 10.6076 Q1657.98 10.0289 1657.49 9.76847 Q1657.03 9.47912 1656.65 9.47912 Q1655.55 9.47912 1655.03 10.5497 Q1654.51 11.5914 1654.45 13.964 L1650.83 13.964 Q1650.89 10.0578 1652.37 7.94556 Q1653.84 5.80437 1656.48 5.80437 Q1657.58 5.80437 1658.5 6.20946 Q1659.43 6.61455 1660.5 7.5694 L1662.15 9.16083 Q1662.78 9.73953 1663.25 10.0289 Q1663.74 10.2893 1664.11 10.2893 Q1665.21 10.2893 1665.73 9.24764 Q1666.26 8.17704 1666.31 5.80437 L1669.93 5.80437 Q1669.87 9.7106 1668.4 11.8518 Q1666.92 13.964 1664.29 13.964 Q1663.19 13.964 1662.26 13.559 Q1661.34 13.1539 1660.27 12.199 Z" fill="#000000" fill-rule="nonzero" fill-opacity="1" /><path clip-path="url(#clip730)" d="M1697.65 23.1654 Q1693.37 23.1654 1690.88 26.5218 Q1688.39 29.8494 1688.39 35.6653 Q1688.39 41.4813 1690.85 44.8377 Q1693.34 48.1653 1697.65 48.1653 Q1701.9 48.1653 1704.39 44.8088 Q1706.88 41.4523 1706.88 35.6653 Q1706.88 29.9072 1704.39 26.5508 Q1701.9 23.1654 1697.65 23.1654 M1697.65 18.6515 Q1704.59 18.6515 1708.56 23.1654 Q1712.52 27.6792 1712.52 35.6653 Q1712.52 43.6225 1708.56 48.1653 Q1704.59 52.6791 1697.65 52.6791 Q1690.68 52.6791 1686.71 48.1653 Q1682.78 43.6225 1682.78 35.6653 Q1682.78 27.6792 1686.71 23.1654 Q1690.68 18.6515 1697.65 18.6515 Z" fill="#000000" fill-rule="nonzero" fill-opacity="1" /><path clip-path="url(#clip730)" d="M1740.18 6.81709 L1745.51 6.81709 L1745.51 51.84 L1740.18 51.84 L1740.18 6.81709 Z" fill="#000000" fill-rule="nonzero" fill-opacity="1" /><path clip-path="url(#clip730)" d="M1769.21 23.1654 Q1764.92 23.1654 1762.44 26.5218 Q1759.95 29.8494 1759.95 35.6653 Q1759.95 41.4813 1762.41 44.8377 Q1764.9 48.1653 1769.21 48.1653 Q1773.46 48.1653 1775.95 44.8088 Q1778.44 41.4523 1778.44 35.6653 Q1778.44 29.9072 1775.95 26.5508 Q1773.46 23.1654 1769.21 23.1654 M1769.21 18.6515 Q1776.15 18.6515 1780.12 23.1654 Q1784.08 27.6792 1784.08 35.6653 Q1784.08 43.6225 1780.12 48.1653 Q1776.15 52.6791 1769.21 52.6791 Q1762.23 52.6791 1758.27 48.1653 Q1754.33 43.6225 1754.33 35.6653 Q1754.33 27.6792 1758.27 23.1654 Q1762.23 18.6515 1769.21 18.6515 Z" fill="#000000" fill-rule="nonzero" fill-opacity="1" /><path clip-path="url(#clip730)" d="M1814.23 35.2602 Q1814.23 29.4732 1811.83 26.2904 Q1809.46 23.1075 1805.14 23.1075 Q1800.86 23.1075 1798.46 26.2904 Q1796.09 29.4732 1796.09 35.2602 Q1796.09 41.0183 1798.46 44.2012 Q1800.86 47.384 1805.14 47.384 Q1809.46 47.384 1811.83 44.2012 Q1814.23 41.0183 1814.23 35.2602 M1819.55 47.818 Q1819.55 56.0934 1815.88 60.1154 Q1812.2 64.1663 1804.62 64.1663 Q1801.82 64.1663 1799.33 63.7323 Q1796.84 63.3272 1794.5 62.4592 L1794.5 57.2798 Q1796.84 58.5529 1799.13 59.1606 Q1801.41 59.7682 1803.78 59.7682 Q1809.02 59.7682 1811.63 57.0194 Q1814.23 54.2995 1814.23 48.7729 L1814.23 46.1398 Q1812.58 49.0044 1810 50.4222 Q1807.43 51.84 1803.84 51.84 Q1797.88 51.84 1794.24 47.2972 Q1790.59 42.7544 1790.59 35.2602 Q1790.59 27.7371 1794.24 23.1943 Q1797.88 18.6515 1803.84 18.6515 Q1807.43 18.6515 1810 20.0693 Q1812.58 21.4872 1814.23 24.3517 L1814.23 19.4328 L1819.55 19.4328 L1819.55 47.818 Z" fill="#000000" fill-rule="nonzero" fill-opacity="1" /><path clip-path="url(#clip730)" d="M1837.2 4.44442 L1842.96 4.44442 L1833.53 15.324 L1829.1 15.324 L1837.2 4.44442 M1830.52 19.4328 L1835.84 19.4328 L1835.84 51.84 L1830.52 51.84 L1830.52 19.4328 M1833.18 18.6515 L1833.18 18.6515 Z" fill="#000000" fill-rule="nonzero" fill-opacity="1" /><path clip-path="url(#clip730)" d="M1867.64 20.3876 L1867.64 25.4223 Q1865.39 24.2649 1862.96 23.6862 Q1860.53 23.1075 1857.92 23.1075 Q1853.96 23.1075 1851.96 24.3228 Q1849.99 25.5381 1849.99 27.9686 Q1849.99 29.8204 1851.41 30.891 Q1852.83 31.9327 1857.11 32.8876 L1858.93 33.2926 Q1864.61 34.5079 1866.98 36.7359 Q1869.38 38.935 1869.38 42.8991 Q1869.38 47.4129 1865.79 50.046 Q1862.23 52.6791 1855.98 52.6791 Q1853.38 52.6791 1850.54 52.1583 Q1847.74 51.6664 1844.61 50.6537 L1844.61 45.156 Q1847.56 46.6896 1850.43 47.4708 Q1853.29 48.2231 1856.1 48.2231 Q1859.86 48.2231 1861.89 46.95 Q1863.91 45.6479 1863.91 43.3042 Q1863.91 41.134 1862.44 39.9766 Q1860.99 38.8192 1856.04 37.7486 L1854.19 37.3146 Q1849.24 36.273 1847.04 34.1318 Q1844.84 31.9616 1844.84 28.2001 Q1844.84 23.6283 1848.08 21.1399 Q1851.32 18.6515 1857.28 18.6515 Q1860.24 18.6515 1862.84 19.0855 Q1865.44 19.5196 1867.64 20.3876 Z" fill="#000000" fill-rule="nonzero" fill-opacity="1" /><path clip-path="url(#clip730)" d="M1883.12 10.2314 L1883.12 19.4328 L1894.09 19.4328 L1894.09 23.5705 L1883.12 23.5705 L1883.12 41.163 Q1883.12 45.1271 1884.19 46.2555 Q1885.29 47.384 1888.62 47.384 L1894.09 47.384 L1894.09 51.84 L1888.62 51.84 Q1882.46 51.84 1880.11 49.5541 Q1877.77 47.2393 1877.77 41.163 L1877.77 23.5705 L1873.86 23.5705 L1873.86 19.4328 L1877.77 19.4328 L1877.77 10.2314 L1883.12 10.2314 Z" fill="#000000" fill-rule="nonzero" fill-opacity="1" /><path clip-path="url(#clip730)" d="M1901.09 19.4328 L1906.42 19.4328 L1906.42 51.84 L1901.09 51.84 L1901.09 19.4328 M1901.09 6.81709 L1906.42 6.81709 L1906.42 13.559 L1901.09 13.559 L1901.09 6.81709 Z" fill="#000000" fill-rule="nonzero" fill-opacity="1" /><path clip-path="url(#clip730)" d="M1940.88 20.677 L1940.88 25.6538 Q1938.62 24.4096 1936.34 23.802 Q1934.08 23.1654 1931.76 23.1654 Q1926.58 23.1654 1923.72 26.464 Q1920.86 29.7336 1920.86 35.6653 Q1920.86 41.597 1923.72 44.8956 Q1926.58 48.1653 1931.76 48.1653 Q1934.08 48.1653 1936.34 47.5576 Q1938.62 46.921 1940.88 45.6768 L1940.88 50.5958 Q1938.65 51.6375 1936.25 52.1583 Q1933.88 52.6791 1931.18 52.6791 Q1923.86 52.6791 1919.55 48.0784 Q1915.24 43.4778 1915.24 35.6653 Q1915.24 27.7371 1919.58 23.1943 Q1923.95 18.6515 1931.53 18.6515 Q1933.99 18.6515 1936.34 19.1724 Q1938.68 19.6642 1940.88 20.677 Z" fill="#000000" fill-rule="nonzero" fill-opacity="1" /><path clip-path="url(#clip730)" d="M1964.87 35.5496 Q1958.41 35.5496 1955.92 37.0253 Q1953.44 38.501 1953.44 42.06 Q1953.44 44.8956 1955.29 46.5738 Q1957.17 48.2231 1960.38 48.2231 Q1964.81 48.2231 1967.47 45.0981 Q1970.16 41.9442 1970.16 36.7359 L1970.16 35.5496 L1964.87 35.5496 M1975.48 33.3505 L1975.48 51.84 L1970.16 51.84 L1970.16 46.921 Q1968.34 49.8724 1965.62 51.2902 Q1962.9 52.6791 1958.96 52.6791 Q1953.99 52.6791 1951.03 49.9014 Q1948.11 47.0947 1948.11 42.4072 Q1948.11 36.9385 1951.76 34.1607 Q1955.43 31.3829 1962.7 31.3829 L1970.16 31.3829 L1970.16 30.8621 Q1970.16 27.1874 1967.73 25.1908 Q1965.33 23.1654 1960.96 23.1654 Q1958.18 23.1654 1955.55 23.8309 Q1952.92 24.4964 1950.48 25.8274 L1950.48 20.9085 Q1953.41 19.78 1956.16 19.2302 Q1958.9 18.6515 1961.51 18.6515 Q1968.54 18.6515 1972.01 22.2973 Q1975.48 25.9431 1975.48 33.3505 Z" fill="#000000" fill-rule="nonzero" fill-opacity="1" /><path clip-path="url(#clip730)" d="M2020.02 35.5496 Q2013.56 35.5496 2011.07 37.0253 Q2008.59 38.501 2008.59 42.06 Q2008.59 44.8956 2010.44 46.5738 Q2012.32 48.2231 2015.53 48.2231 Q2019.96 48.2231 2022.62 45.0981 Q2025.31 41.9442 2025.31 36.7359 L2025.31 35.5496 L2020.02 35.5496 M2030.63 33.3505 L2030.63 51.84 L2025.31 51.84 L2025.31 46.921 Q2023.49 49.8724 2020.77 51.2902 Q2018.05 52.6791 2014.11 52.6791 Q2009.14 52.6791 2006.18 49.9014 Q2003.26 47.0947 2003.26 42.4072 Q2003.26 36.9385 2006.91 34.1607 Q2010.58 31.3829 2017.85 31.3829 L2025.31 31.3829 L2025.31 30.8621 Q2025.31 27.1874 2022.88 25.1908 Q2020.48 23.1654 2016.11 23.1654 Q2013.33 23.1654 2010.7 23.8309 Q2008.07 24.4964 2005.63 25.8274 L2005.63 20.9085 Q2008.56 19.78 2011.31 19.2302 Q2014.05 18.6515 2016.66 18.6515 Q2023.69 18.6515 2027.16 22.2973 Q2030.63 25.9431 2030.63 33.3505 Z" fill="#000000" fill-rule="nonzero" fill-opacity="1" /><path clip-path="url(#clip730)" d="M2041.6 6.81709 L2046.93 6.81709 L2046.93 51.84 L2041.6 51.84 L2041.6 6.81709 Z" fill="#000000" fill-rule="nonzero" fill-opacity="1" /><path clip-path="url(#clip730)" d="M2085.78 34.3054 L2085.78 36.9095 L2061.31 36.9095 Q2061.65 42.4072 2064.6 45.3007 Q2067.58 48.1653 2072.88 48.1653 Q2075.95 48.1653 2078.81 47.4129 Q2081.7 46.6606 2084.54 45.156 L2084.54 50.1907 Q2081.68 51.406 2078.67 52.0425 Q2075.66 52.6791 2072.56 52.6791 Q2064.81 52.6791 2060.26 48.1653 Q2055.75 43.6514 2055.75 35.9547 Q2055.75 27.9975 2060.03 23.339 Q2064.34 18.6515 2071.64 18.6515 Q2078.17 18.6515 2081.97 22.876 Q2085.78 27.0716 2085.78 34.3054 M2080.46 32.7429 Q2080.4 28.3737 2078 25.7695 Q2075.63 23.1654 2071.69 23.1654 Q2067.24 23.1654 2064.55 25.6827 Q2061.88 28.2001 2061.48 32.7718 L2080.46 32.7429 Z" fill="#000000" fill-rule="nonzero" fill-opacity="1" /><path clip-path="url(#clip730)" d="M2109.25 35.5496 Q2102.8 35.5496 2100.31 37.0253 Q2097.82 38.501 2097.82 42.06 Q2097.82 44.8956 2099.67 46.5738 Q2101.55 48.2231 2104.77 48.2231 Q2109.19 48.2231 2111.86 45.0981 Q2114.55 41.9442 2114.55 36.7359 L2114.55 35.5496 L2109.25 35.5496 M2119.87 33.3505 L2119.87 51.84 L2114.55 51.84 L2114.55 46.921 Q2112.72 49.8724 2110 51.2902 Q2107.28 52.6791 2103.35 52.6791 Q2098.37 52.6791 2095.42 49.9014 Q2092.5 47.0947 2092.5 42.4072 Q2092.5 36.9385 2096.14 34.1607 Q2099.82 31.3829 2107.08 31.3829 L2114.55 31.3829 L2114.55 30.8621 Q2114.55 27.1874 2112.12 25.1908 Q2109.71 23.1654 2105.34 23.1654 Q2102.57 23.1654 2099.93 23.8309 Q2097.3 24.4964 2094.87 25.8274 L2094.87 20.9085 Q2097.79 19.78 2100.54 19.2302 Q2103.29 18.6515 2105.89 18.6515 Q2112.93 18.6515 2116.4 22.2973 Q2119.87 25.9431 2119.87 33.3505 Z" fill="#000000" fill-rule="nonzero" fill-opacity="1" /><path clip-path="url(#clip730)" d="M2136.1 10.2314 L2136.1 19.4328 L2147.07 19.4328 L2147.07 23.5705 L2136.1 23.5705 L2136.1 41.163 Q2136.1 45.1271 2137.17 46.2555 Q2138.27 47.384 2141.6 47.384 L2147.07 47.384 L2147.07 51.84 L2141.6 51.84 Q2135.44 51.84 2133.09 49.5541 Q2130.75 47.2393 2130.75 41.163 L2130.75 23.5705 L2126.84 23.5705 L2126.84 19.4328 L2130.75 19.4328 L2130.75 10.2314 L2136.1 10.2314 Z" fill="#000000" fill-rule="nonzero" fill-opacity="1" /><path clip-path="url(#clip730)" d="M2166.63 23.1654 Q2162.35 23.1654 2159.86 26.5218 Q2157.37 29.8494 2157.37 35.6653 Q2157.37 41.4813 2159.83 44.8377 Q2162.32 48.1653 2166.63 48.1653 Q2170.88 48.1653 2173.37 44.8088 Q2175.86 41.4523 2175.86 35.6653 Q2175.86 29.9072 2173.37 26.5508 Q2170.88 23.1654 2166.63 23.1654 M2166.63 18.6515 Q2173.57 18.6515 2177.54 23.1654 Q2181.5 27.6792 2181.5 35.6653 Q2181.5 43.6225 2177.54 48.1653 Q2173.57 52.6791 2166.63 52.6791 Q2159.66 52.6791 2155.69 48.1653 Q2151.76 43.6225 2151.76 35.6653 Q2151.76 27.6792 2155.69 23.1654 Q2159.66 18.6515 2166.63 18.6515 M2170.65 4.44442 L2176.41 4.44442 L2166.98 15.324 L2162.55 15.324 L2170.65 4.44442 Z" fill="#000000" fill-rule="nonzero" fill-opacity="1" /><path clip-path="url(#clip730)" d="M2209.11 24.4096 Q2208.21 23.8888 2207.14 23.6573 Q2206.1 23.3969 2204.82 23.3969 Q2200.31 23.3969 2197.88 26.3482 Q2195.48 29.2707 2195.48 34.7683 L2195.48 51.84 L2190.12 51.84 L2190.12 19.4328 L2195.48 19.4328 L2195.48 24.4675 Q2197.16 21.5161 2199.85 20.0983 Q2202.54 18.6515 2206.39 18.6515 Q2206.94 18.6515 2207.6 18.7383 Q2208.27 18.7962 2209.08 18.9409 L2209.11 24.4096 Z" fill="#000000" fill-rule="nonzero" fill-opacity="1" /><path clip-path="url(#clip730)" d="M2214.69 19.4328 L2220.01 19.4328 L2220.01 51.84 L2214.69 51.84 L2214.69 19.4328 M2214.69 6.81709 L2220.01 6.81709 L2220.01 13.559 L2214.69 13.559 L2214.69 6.81709 Z" fill="#000000" fill-rule="nonzero" fill-opacity="1" /><path clip-path="url(#clip730)" d="M2245.88 35.5496 Q2239.43 35.5496 2236.94 37.0253 Q2234.45 38.501 2234.45 42.06 Q2234.45 44.8956 2236.3 46.5738 Q2238.19 48.2231 2241.4 48.2231 Q2245.82 48.2231 2248.49 45.0981 Q2251.18 41.9442 2251.18 36.7359 L2251.18 35.5496 L2245.88 35.5496 M2256.5 33.3505 L2256.5 51.84 L2251.18 51.84 L2251.18 46.921 Q2249.35 49.8724 2246.63 51.2902 Q2243.91 52.6791 2239.98 52.6791 Q2235 52.6791 2232.05 49.9014 Q2229.13 47.0947 2229.13 42.4072 Q2229.13 36.9385 2232.77 34.1607 Q2236.45 31.3829 2243.71 31.3829 L2251.18 31.3829 L2251.18 30.8621 Q2251.18 27.1874 2248.75 25.1908 Q2246.35 23.1654 2241.98 23.1654 Q2239.2 23.1654 2236.57 23.8309 Q2233.93 24.4964 2231.5 25.8274 L2231.5 20.9085 Q2234.42 19.78 2237.17 19.2302 Q2239.92 18.6515 2242.53 18.6515 Q2249.56 18.6515 2253.03 22.2973 Q2256.5 25.9431 2256.5 33.3505 Z" fill="#000000" fill-rule="nonzero" fill-opacity="1" /><polyline clip-path="url(#clip732)" style="stroke:#009af9; stroke-linecap:round; stroke-linejoin:round; stroke-width:4; stroke-opacity:1; fill:none" points="314.394,2145.67 319.905,2113.52 325.416,2081.54 330.928,2050.2 336.439,2019.13 341.951,1988.77 347.462,1958.57 352.973,1928.58 358.485,1899.12 363.996,1870 369.508,1840.68 375.019,1811.62 380.53,1783.31 386.042,1755.94 391.553,1729.44 397.064,1703.22 402.576,1677.41 408.087,1651.78 413.599,1626.17 419.11,1601.34 424.621,1576.42 430.133,1551.17 435.644,1526.25 441.155,1501.56 446.667,1478.05 452.178,1455.72 457.69,1433.87 463.201,1412.34 468.712,1391.19 474.224,1370.25 479.735,1349.84 485.247,1329.88 490.758,1309.8 496.269,1289.87 501.781,1271.32 507.292,1254.13 512.803,1237.58 518.315,1220.75 523.826,1202.77 529.338,1185.42 534.849,1166.46 540.36,1147.7 545.872,1128.71 551.383,1110.33 556.895,1093.01 562.406,1076.17 567.917,1060.06 573.429,1044.46 578.94,1030.11 584.451,1015.96 589.963,1004.03 595.474,993.548 600.986,984.097 606.497,974.193 612.008,964.291 617.52,954.63 623.031,945.021 628.543,935.777 634.054,925.981 639.565,914.743 645.077,903.013 650.588,891.568 656.099,878.255 661.611,864.473 667.122,851.67 672.634,838.9 678.145,826.606 683.656,815.465 689.168,803.462 694.679,793.587 700.19,783.062 705.702,772.872 711.213,762.578 716.725,753.871 722.236,748.324 727.747,742.836 733.259,736.032 738.77,729.349 744.282,723.532 749.793,716.503 755.304,708.122 760.816,699.764 766.327,691.422 771.838,681.904 777.35,673.032 782.861,662.893 788.373,652.654 793.884,642.206 799.395,630.736 804.907,619.397 810.418,608.405 815.93,598.47 821.441,588.121 826.952,577.604 832.464,566.706 837.975,555.895 843.486,546.172 848.998,536.886 854.509,527.227 860.021,518.009 865.532,509.768 871.043,501.232 876.555,492.493 882.066,483.763 887.578,475.557 893.089,467.212 898.6,459.876 904.112,451.624 909.623,443.286 915.134,434.906 920.646,426.382 926.157,418.167 931.669,410.139 937.18,402.238 942.691,394.648 948.203,387.303 953.714,380.051 959.225,372.976 964.737,366.174 970.248,359.514 975.76,352.708 981.271,346.173 986.782,340.375 992.294,334.735 997.805,329.037 1003.32,323.383 1008.83,317.962 1014.34,312.867 1019.85,307.898 1025.36,303.274 1030.87,299.134 1036.38,295.485 1041.9,291.802 1047.41,288.087 1052.92,284.567 1058.43,281.286 1063.94,277.266 1069.45,274.25 1074.96,271.816 1080.48,268.592 1085.99,264.507 1091.5,260.462 1097.01,256.549 1102.52,252.477 1108.03,248.413 1113.54,244.484 1119.06,240.759 1124.57,237.29 1130.08,234.101 1135.59,230.774 1141.1,227.82 1146.61,224.905 1152.12,222.066 1157.64,219.137 1163.15,216.4 1168.66,213.657 1174.17,210.818 1179.68,208.015 1185.19,205.225 1190.7,202.647 1196.21,200.863 1201.73,198.825 1207.24,196.605 1212.75,194.15 1218.26,191.988 1223.77,189.876 1229.28,188.077 1234.79,186.708 1240.31,185.68 1245.82,184.488 1251.33,183.618 1256.84,183.082 1262.35,183.089 1267.86,183.315 1273.37,183.888 1278.89,183.424 1284.4,183.166 1289.91,182.203 1295.42,180.966 1300.93,179.223 1306.44,177.545 1311.95,175.928 1317.47,174.181 1322.98,173.259 1328.49,172.446 1334,172.426 1339.51,171.645 1345.02,170.837 1350.53,170.933 1356.05,171.46 1361.56,173.036 1367.07,176.009 1372.58,180.719 1378.09,185.443 1383.6,189.217 1389.11,195.336 1394.62,203.697 1400.14,211.202 1405.65,220.426 1411.16,226.261 1416.67,233.018 1422.18,238.719 1427.69,244.079 1433.2,249.271 1438.72,255.259 1444.23,262.447 1449.74,269.84 1455.25,279.199 1460.76,286.915 1466.27,292.034 1471.78,296.421 1477.3,302.467 1482.81,309.787 1488.32,315.08 1493.83,318.439 1499.34,320.639 1504.85,322.343 1510.36,325.423 1515.88,326.714 1521.39,326.161 1526.9,326.82 1532.41,326.87 1537.92,327.458 1543.43,328.281 1548.94,327.917 1554.45,327.3 1559.97,326.027 1565.48,324.684 1570.99,322.871 1576.5,321.064 1582.01,319.024 1587.52,316.835 1593.03,312.357 1598.55,309.129 1604.06,305.827 1609.57,302.001 1615.08,298.15 1620.59,296.256 1626.1,294.134 1631.61,290.967 1637.13,287.984 1642.64,284.809 1648.15,281.321 1653.66,278.67 1659.17,276.911 1664.68,276.458 1670.19,276.869 1675.71,276.368 1681.22,274.89 1686.73,273.299 1692.24,273.839 1697.75,274.422 1703.26,274.557 1708.77,275.183 1714.28,275.491 1719.8,273.91 1725.31,272.114 1730.82,269.864 1736.33,268.144 1741.84,266.687 1747.35,264.656 1752.86,263.534 1758.38,263.753 1763.89,264.198 1769.4,264.334 1774.91,268.598 1780.42,270.796 1785.93,271.007 1791.44,272.317 1796.96,274.746 1802.47,275.784 1807.98,277.176 1813.49,278.104 1819,279.365 1824.51,279.117 1830.02,277.672 1835.54,274.93 1841.05,272.115 1846.56,268.656 1852.07,264.869 1857.58,261.309 1863.09,257.856 1868.6,254.279 1874.12,250.438 1879.63,246.616 1885.14,243.356 1890.65,240.485 1896.16,236.915 1901.67,233.298 1907.18,229.77 1912.69,226.342 1918.21,223.127 1923.72,219.914 1929.23,217.002 1934.74,214.146 1940.25,211.263 1945.76,208.387 1951.27,205.575 1956.79,202.924 1962.3,200.501 1967.81,198.891 1973.32,198.894 1978.83,199.488 1984.34,199.144 1989.85,198.806 1995.37,198.413 2000.88,198.397 2006.39,198.126 2011.9,197.709 2017.41,197.741 2022.92,196.632 2028.43,195.728 2033.95,198.488 2039.46,200.863 2044.97,203.778 2050.48,205.893 2055.99,208.992 2061.5,211.88 2067.01,214.559 2072.52,218.107 2078.04,222.592 2083.55,228.837 2089.06,234.706 2094.57,241.864 2100.08,247.968 2105.59,252.965 2111.1,256.183 2116.62,259.882 2122.13,264.116 2127.64,268.391 2133.15,272.047 2138.66,274.899 2144.17,277.24 2149.68,278.251 2155.2,277.181 2160.71,277.18 2166.22,276.278 2171.73,277.39 2177.24,279.172 2182.75,283.269 2188.26,285.828 2193.78,288.67 2199.29,290.217 2204.8,292.438 2210.31,296.138 2215.82,301.415 2221.33,306.165 2226.84,312.064 2232.35,318.641 2237.87,325.11 2243.38,329.829 2248.89,335.555 2254.4,341.518 2259.91,345.909 2265.42,350.355 2270.93,353.71 2276.45,356.587 2281.96,359.821 2287.47,365.875 2292.98,371.692 2298.49,378.72 2304,386.141 2309.51,394.141 2315.03,402.243 2320.54,410.427 2326.05,416.569 2331.56,420.623 2337.07,424.492 2342.58,428.634 2348.09,430.599 2353.61,431.418 2359.12,432.267 2364.63,433.608 2370.14,434.525 2375.65,435.484 2381.16,434.634 2386.67,432.669 2392.19,429.654 2397.7,424.578 2403.21,420.663 2408.72,416.707 2414.23,411.68 2419.74,405.935 2425.25,399.468 2430.76,395.224 2436.28,390.185 2441.79,384.815 2447.3,379.362 2452.81,375.383 2458.32,371.707 2463.83,370.204 2469.34,367.759 2474.86,365.041 2480.37,362.528 2485.88,358.791 2491.39,355.63 2496.9,353.224 2502.41,352.692 2507.92,350.968 2513.44,347.532 2518.95,346.284 2524.46,341.731 2529.97,338.981 2535.48,337.777 2540.99,337.582 2546.5,337.683 2552.02,336.104 2557.53,333.065 2563.04,330.401 2568.55,329.113 2574.06,326.744 2579.57,324.215 2585.08,321.731 2590.59,319.646 2596.11,318.866 2601.62,318.813 2607.13,317.491 2612.64,315.672 2618.15,314.151 2623.66,311.48 2629.17,308.62 2634.69,305.295 2640.2,303.126 2645.71,300.619 2651.22,298.58 2656.73,296.19 2662.24,294.58 2667.75,294.475 2673.27,293.204 2678.78,290.1 2684.29,286.657 2689.8,283.238 2695.31,280.756 2700.82,280.292 2706.33,280.066 2711.85,279.686 2717.36,278.701 2722.87,277.533 2728.38,274.972 2733.89,273.634 2739.4,272.626 2744.91,271.023 2750.42,269.091 2755.94,267.909 2761.45,267.726 2766.96,267.982 2772.47,266.971 2777.98,266.938 2783.49,267.153 2789,266.387 2794.52,266.085 2800.03,265.44 2805.54,265.409 2811.05,264.643 2816.56,264.928 2822.07,265.048 2827.58,267.27 2833.1,271.428 2838.61,274.015 2844.12,275.579 2849.63,277.709 2855.14,281.201 2860.65,285.548 2866.16,291.202 2871.68,296.487 2877.19,303.503 2882.7,311.183 2888.21,318.805 2893.72,324.116 2899.23,330.25 2904.74,337.121 2910.26,343.491 2915.77,349.12 2921.28,354.663 2926.79,359.41 2932.3,363.538 2937.81,366.635 2943.32,370.025 2948.83,374.755 2954.35,378.519 2959.86,380.94 2965.37,382.434 2970.88,384.786 2976.39,386.639 2981.9,389.134 2987.41,389.966 2992.93,393.173 2998.44,396.647 3003.95,399.087 3009.46,401.614 3014.97,403.948 3020.48,405.141 3025.99,408.437 3031.51,412.112 3037.02,415.433 3042.53,418.103 3048.04,420.864 3053.55,421.953 3059.06,424.911 3064.57,427.147 3070.09,429.891 "/>
</svg>
