<?xml version="1.0" encoding="utf-8"?>
<svg xmlns="http://www.w3.org/2000/svg" xmlns:xlink="http://www.w3.org/1999/xlink" width="800" height="600" viewBox="0 0 3200 2400">
<defs>
  <clipPath id="clip410">
    <rect x="0" y="0" width="3200" height="2400"/>
  </clipPath>
</defs>
<path clip-path="url(#clip410)" d="M0 2400 L3200 2400 L3200 0 L0 0  Z" fill="#ffffff" fill-rule="evenodd" fill-opacity="1"/>
<defs>
  <clipPath id="clip411">
    <rect x="233" y="111" width="2920" height="2094"/>
  </clipPath>
</defs>
<path clip-path="url(#clip410)" d="M189.385 2204.92 L3152.76 2204.92 L3152.76 111.592 L189.385 111.592  Z" fill="#eaeaea" fill-rule="evenodd" fill-opacity="1"/>
<defs>
  <clipPath id="clip412">
    <rect x="189" y="111" width="2964" height="2094"/>
  </clipPath>
</defs>
<polyline clip-path="url(#clip412)" style="stroke:#ffffff; stroke-linecap:round; stroke-linejoin:round; stroke-width:2; stroke-opacity:1; fill:none" points="552.817,2204.92 552.817,111.592 "/>
<polyline clip-path="url(#clip412)" style="stroke:#ffffff; stroke-linecap:round; stroke-linejoin:round; stroke-width:2; stroke-opacity:1; fill:none" points="1111.94,2204.92 1111.94,111.592 "/>
<polyline clip-path="url(#clip412)" style="stroke:#ffffff; stroke-linecap:round; stroke-linejoin:round; stroke-width:2; stroke-opacity:1; fill:none" points="1671.07,2204.92 1671.07,111.592 "/>
<polyline clip-path="url(#clip412)" style="stroke:#ffffff; stroke-linecap:round; stroke-linejoin:round; stroke-width:2; stroke-opacity:1; fill:none" points="2230.2,2204.92 2230.2,111.592 "/>
<polyline clip-path="url(#clip412)" style="stroke:#ffffff; stroke-linecap:round; stroke-linejoin:round; stroke-width:2; stroke-opacity:1; fill:none" points="2789.32,2204.92 2789.32,111.592 "/>
<polyline clip-path="url(#clip412)" style="stroke:#ffffff; stroke-linecap:round; stroke-linejoin:round; stroke-width:2; stroke-opacity:1; fill:none" points="189.385,1677.55 3152.76,1677.55 "/>
<polyline clip-path="url(#clip412)" style="stroke:#ffffff; stroke-linecap:round; stroke-linejoin:round; stroke-width:2; stroke-opacity:1; fill:none" points="189.385,1095.07 3152.76,1095.07 "/>
<polyline clip-path="url(#clip412)" style="stroke:#ffffff; stroke-linecap:round; stroke-linejoin:round; stroke-width:2; stroke-opacity:1; fill:none" points="189.385,512.584 3152.76,512.584 "/>
<polyline clip-path="url(#clip412)" style="stroke:#ffffff; stroke-linecap:round; stroke-linejoin:round; stroke-width:4; stroke-opacity:1; fill:none" points="273.254,2204.92 273.254,111.592 "/>
<polyline clip-path="url(#clip412)" style="stroke:#ffffff; stroke-linecap:round; stroke-linejoin:round; stroke-width:4; stroke-opacity:1; fill:none" points="832.381,2204.92 832.381,111.592 "/>
<polyline clip-path="url(#clip412)" style="stroke:#ffffff; stroke-linecap:round; stroke-linejoin:round; stroke-width:4; stroke-opacity:1; fill:none" points="1391.51,2204.92 1391.51,111.592 "/>
<polyline clip-path="url(#clip412)" style="stroke:#ffffff; stroke-linecap:round; stroke-linejoin:round; stroke-width:4; stroke-opacity:1; fill:none" points="1950.63,2204.92 1950.63,111.592 "/>
<polyline clip-path="url(#clip412)" style="stroke:#ffffff; stroke-linecap:round; stroke-linejoin:round; stroke-width:4; stroke-opacity:1; fill:none" points="2509.76,2204.92 2509.76,111.592 "/>
<polyline clip-path="url(#clip412)" style="stroke:#ffffff; stroke-linecap:round; stroke-linejoin:round; stroke-width:4; stroke-opacity:1; fill:none" points="3068.89,2204.92 3068.89,111.592 "/>
<polyline clip-path="url(#clip412)" style="stroke:#ffffff; stroke-linecap:round; stroke-linejoin:round; stroke-width:4; stroke-opacity:1; fill:none" points="189.385,1968.79 3152.76,1968.79 "/>
<polyline clip-path="url(#clip412)" style="stroke:#ffffff; stroke-linecap:round; stroke-linejoin:round; stroke-width:4; stroke-opacity:1; fill:none" points="189.385,1386.31 3152.76,1386.31 "/>
<polyline clip-path="url(#clip412)" style="stroke:#ffffff; stroke-linecap:round; stroke-linejoin:round; stroke-width:4; stroke-opacity:1; fill:none" points="189.385,803.826 3152.76,803.826 "/>
<polyline clip-path="url(#clip412)" style="stroke:#ffffff; stroke-linecap:round; stroke-linejoin:round; stroke-width:4; stroke-opacity:1; fill:none" points="189.385,221.343 3152.76,221.343 "/>
<polyline clip-path="url(#clip410)" style="stroke:#ffffff; stroke-linecap:round; stroke-linejoin:round; stroke-width:4; stroke-opacity:1; fill:none" points="189.385,2204.92 3152.76,2204.92 "/>
<polyline clip-path="url(#clip410)" style="stroke:#333333; stroke-linecap:round; stroke-linejoin:round; stroke-width:4; stroke-opacity:1; fill:none" points="273.254,2204.92 273.254,2223.82 "/>
<polyline clip-path="url(#clip410)" style="stroke:#333333; stroke-linecap:round; stroke-linejoin:round; stroke-width:4; stroke-opacity:1; fill:none" points="832.381,2204.92 832.381,2223.82 "/>
<polyline clip-path="url(#clip410)" style="stroke:#333333; stroke-linecap:round; stroke-linejoin:round; stroke-width:4; stroke-opacity:1; fill:none" points="1391.51,2204.92 1391.51,2223.82 "/>
<polyline clip-path="url(#clip410)" style="stroke:#333333; stroke-linecap:round; stroke-linejoin:round; stroke-width:4; stroke-opacity:1; fill:none" points="1950.63,2204.92 1950.63,2223.82 "/>
<polyline clip-path="url(#clip410)" style="stroke:#333333; stroke-linecap:round; stroke-linejoin:round; stroke-width:4; stroke-opacity:1; fill:none" points="2509.76,2204.92 2509.76,2223.82 "/>
<polyline clip-path="url(#clip410)" style="stroke:#333333; stroke-linecap:round; stroke-linejoin:round; stroke-width:4; stroke-opacity:1; fill:none" points="3068.89,2204.92 3068.89,2223.82 "/>
<polyline clip-path="url(#clip410)" style="stroke:#333333; stroke-linecap:round; stroke-linejoin:round; stroke-width:4; stroke-opacity:1; fill:none" points="552.817,2204.92 552.817,2214.37 "/>
<polyline clip-path="url(#clip410)" style="stroke:#333333; stroke-linecap:round; stroke-linejoin:round; stroke-width:4; stroke-opacity:1; fill:none" points="1111.94,2204.92 1111.94,2214.37 "/>
<polyline clip-path="url(#clip410)" style="stroke:#333333; stroke-linecap:round; stroke-linejoin:round; stroke-width:4; stroke-opacity:1; fill:none" points="1671.07,2204.92 1671.07,2214.37 "/>
<polyline clip-path="url(#clip410)" style="stroke:#333333; stroke-linecap:round; stroke-linejoin:round; stroke-width:4; stroke-opacity:1; fill:none" points="2230.2,2204.92 2230.2,2214.37 "/>
<polyline clip-path="url(#clip410)" style="stroke:#333333; stroke-linecap:round; stroke-linejoin:round; stroke-width:4; stroke-opacity:1; fill:none" points="2789.32,2204.92 2789.32,2214.37 "/>
<path clip-path="url(#clip410)" d="M273.254 2255.04 Q269.643 2255.04 267.814 2258.6 Q266.009 2262.14 266.009 2269.27 Q266.009 2276.38 267.814 2279.95 Q269.643 2283.49 273.254 2283.49 Q276.888 2283.49 278.694 2279.95 Q280.523 2276.38 280.523 2269.27 Q280.523 2262.14 278.694 2258.6 Q276.888 2255.04 273.254 2255.04 M273.254 2251.33 Q279.064 2251.33 282.12 2255.94 Q285.199 2260.52 285.199 2269.27 Q285.199 2278 282.12 2282.61 Q279.064 2287.19 273.254 2287.19 Q267.444 2287.19 264.365 2282.61 Q261.31 2278 261.31 2269.27 Q261.31 2260.52 264.365 2255.94 Q267.444 2251.33 273.254 2251.33 Z" fill="#4c4c4c" fill-rule="nonzero" fill-opacity="1" /><path clip-path="url(#clip410)" d="M822.763 2282.58 L830.402 2282.58 L830.402 2256.22 L822.091 2257.89 L822.091 2253.63 L830.355 2251.96 L835.031 2251.96 L835.031 2282.58 L842.67 2282.58 L842.67 2286.52 L822.763 2286.52 L822.763 2282.58 Z" fill="#4c4c4c" fill-rule="nonzero" fill-opacity="1" /><path clip-path="url(#clip410)" d="M1386.16 2282.58 L1402.48 2282.58 L1402.48 2286.52 L1380.54 2286.52 L1380.54 2282.58 Q1383.2 2279.83 1387.78 2275.2 Q1392.39 2270.55 1393.57 2269.21 Q1395.81 2266.68 1396.69 2264.95 Q1397.6 2263.19 1397.6 2261.5 Q1397.6 2258.74 1395.65 2257.01 Q1393.73 2255.27 1390.63 2255.27 Q1388.43 2255.27 1385.97 2256.03 Q1383.54 2256.8 1380.77 2258.35 L1380.77 2253.63 Q1383.59 2252.49 1386.04 2251.91 Q1388.5 2251.33 1390.54 2251.33 Q1395.91 2251.33 1399.1 2254.02 Q1402.29 2256.71 1402.29 2261.2 Q1402.29 2263.33 1401.48 2265.25 Q1400.7 2267.14 1398.59 2269.74 Q1398.01 2270.41 1394.91 2273.63 Q1391.81 2276.82 1386.16 2282.58 Z" fill="#4c4c4c" fill-rule="nonzero" fill-opacity="1" /><path clip-path="url(#clip410)" d="M1954.88 2267.89 Q1958.24 2268.6 1960.11 2270.87 Q1962.01 2273.14 1962.01 2276.47 Q1962.01 2281.59 1958.49 2284.39 Q1954.97 2287.19 1948.49 2287.19 Q1946.32 2287.19 1944 2286.75 Q1941.71 2286.33 1939.26 2285.48 L1939.26 2280.96 Q1941.2 2282.1 1943.52 2282.68 Q1945.83 2283.26 1948.35 2283.26 Q1952.75 2283.26 1955.04 2281.52 Q1957.36 2279.78 1957.36 2276.47 Q1957.36 2273.42 1955.21 2271.71 Q1953.08 2269.97 1949.26 2269.97 L1945.23 2269.97 L1945.23 2266.13 L1949.44 2266.13 Q1952.89 2266.13 1954.72 2264.76 Q1956.55 2263.37 1956.55 2260.78 Q1956.55 2258.12 1954.65 2256.71 Q1952.78 2255.27 1949.26 2255.27 Q1947.34 2255.27 1945.14 2255.69 Q1942.94 2256.1 1940.3 2256.98 L1940.3 2252.82 Q1942.96 2252.08 1945.28 2251.71 Q1947.61 2251.33 1949.67 2251.33 Q1955 2251.33 1958.1 2253.77 Q1961.2 2256.17 1961.2 2260.29 Q1961.2 2263.16 1959.56 2265.15 Q1957.91 2267.12 1954.88 2267.89 Z" fill="#4c4c4c" fill-rule="nonzero" fill-opacity="1" /><path clip-path="url(#clip410)" d="M2512.77 2256.03 L2500.96 2274.48 L2512.77 2274.48 L2512.77 2256.03 M2511.54 2251.96 L2517.42 2251.96 L2517.42 2274.48 L2522.35 2274.48 L2522.35 2278.37 L2517.42 2278.37 L2517.42 2286.52 L2512.77 2286.52 L2512.77 2278.37 L2497.17 2278.37 L2497.17 2273.86 L2511.54 2251.96 Z" fill="#4c4c4c" fill-rule="nonzero" fill-opacity="1" /><path clip-path="url(#clip410)" d="M3059.16 2251.96 L3077.52 2251.96 L3077.52 2255.9 L3063.45 2255.9 L3063.45 2264.37 Q3064.47 2264.02 3065.48 2263.86 Q3066.5 2263.67 3067.52 2263.67 Q3073.31 2263.67 3076.69 2266.84 Q3080.07 2270.02 3080.07 2275.43 Q3080.07 2281.01 3076.6 2284.11 Q3073.12 2287.19 3066.8 2287.19 Q3064.63 2287.19 3062.36 2286.82 Q3060.11 2286.45 3057.71 2285.71 L3057.71 2281.01 Q3059.79 2282.14 3062.01 2282.7 Q3064.23 2283.26 3066.71 2283.26 Q3070.72 2283.26 3073.05 2281.15 Q3075.39 2279.04 3075.39 2275.43 Q3075.39 2271.82 3073.05 2269.71 Q3070.72 2267.61 3066.71 2267.61 Q3064.84 2267.61 3062.96 2268.02 Q3061.11 2268.44 3059.16 2269.32 L3059.16 2251.96 Z" fill="#4c4c4c" fill-rule="nonzero" fill-opacity="1" /><path clip-path="url(#clip410)" d="M1670.13 2316.01 L1670.13 2326.14 L1682.19 2326.14 L1682.19 2330.69 L1670.13 2330.69 L1670.13 2350.04 Q1670.13 2354.4 1671.31 2355.64 Q1672.52 2356.88 1676.18 2356.88 L1682.19 2356.88 L1682.19 2361.78 L1676.18 2361.78 Q1669.4 2361.78 1666.82 2359.27 Q1664.24 2356.72 1664.24 2350.04 L1664.24 2330.69 L1659.95 2330.69 L1659.95 2326.14 L1664.24 2326.14 L1664.24 2316.01 L1670.13 2316.01 Z" fill="#000000" fill-rule="nonzero" fill-opacity="1" /><polyline clip-path="url(#clip410)" style="stroke:#ffffff; stroke-linecap:round; stroke-linejoin:round; stroke-width:4; stroke-opacity:1; fill:none" points="189.385,2204.92 189.385,111.592 "/>
<polyline clip-path="url(#clip410)" style="stroke:#333333; stroke-linecap:round; stroke-linejoin:round; stroke-width:4; stroke-opacity:1; fill:none" points="189.385,1968.79 170.488,1968.79 "/>
<polyline clip-path="url(#clip410)" style="stroke:#333333; stroke-linecap:round; stroke-linejoin:round; stroke-width:4; stroke-opacity:1; fill:none" points="189.385,1386.31 170.488,1386.31 "/>
<polyline clip-path="url(#clip410)" style="stroke:#333333; stroke-linecap:round; stroke-linejoin:round; stroke-width:4; stroke-opacity:1; fill:none" points="189.385,803.826 170.488,803.826 "/>
<polyline clip-path="url(#clip410)" style="stroke:#333333; stroke-linecap:round; stroke-linejoin:round; stroke-width:4; stroke-opacity:1; fill:none" points="189.385,221.343 170.488,221.343 "/>
<polyline clip-path="url(#clip410)" style="stroke:#333333; stroke-linecap:round; stroke-linejoin:round; stroke-width:4; stroke-opacity:1; fill:none" points="189.385,1677.55 179.936,1677.55 "/>
<polyline clip-path="url(#clip410)" style="stroke:#333333; stroke-linecap:round; stroke-linejoin:round; stroke-width:4; stroke-opacity:1; fill:none" points="189.385,1095.07 179.936,1095.07 "/>
<polyline clip-path="url(#clip410)" style="stroke:#333333; stroke-linecap:round; stroke-linejoin:round; stroke-width:4; stroke-opacity:1; fill:none" points="189.385,512.584 179.936,512.584 "/>
<path clip-path="url(#clip410)" d="M97.4779 1982.14 L105.117 1982.14 L105.117 1955.77 L96.8066 1957.44 L96.8066 1953.18 L105.07 1951.51 L109.746 1951.51 L109.746 1982.14 L117.385 1982.14 L117.385 1986.07 L97.4779 1986.07 L97.4779 1982.14 Z" fill="#4c4c4c" fill-rule="nonzero" fill-opacity="1" /><path clip-path="url(#clip410)" d="M101.066 1399.65 L117.385 1399.65 L117.385 1403.59 L95.4409 1403.59 L95.4409 1399.65 Q98.1029 1396.9 102.686 1392.27 Q107.293 1387.62 108.473 1386.27 Q110.719 1383.75 111.598 1382.01 Q112.501 1380.26 112.501 1378.57 Q112.501 1375.81 110.557 1374.08 Q108.635 1372.34 105.533 1372.34 Q103.334 1372.34 100.881 1373.1 Q98.4501 1373.87 95.6724 1375.42 L95.6724 1370.7 Q98.4964 1369.56 100.95 1368.98 Q103.404 1368.4 105.441 1368.4 Q110.811 1368.4 114.006 1371.09 Q117.2 1373.77 117.2 1378.26 Q117.2 1380.39 116.39 1382.32 Q115.603 1384.21 113.496 1386.81 Q112.918 1387.48 109.816 1390.7 Q106.714 1393.89 101.066 1399.65 Z" fill="#4c4c4c" fill-rule="nonzero" fill-opacity="1" /><path clip-path="url(#clip410)" d="M110.256 802.472 Q113.612 803.189 115.487 805.458 Q117.385 807.726 117.385 811.06 Q117.385 816.175 113.867 818.976 Q110.348 821.777 103.867 821.777 Q101.691 821.777 99.376 821.337 Q97.0844 820.921 94.6307 820.064 L94.6307 815.55 Q96.5751 816.685 98.8899 817.263 Q101.205 817.842 103.728 817.842 Q108.126 817.842 110.418 816.106 Q112.732 814.37 112.732 811.06 Q112.732 808.004 110.58 806.291 Q108.45 804.555 104.631 804.555 L100.603 804.555 L100.603 800.712 L104.816 800.712 Q108.265 800.712 110.094 799.347 Q111.922 797.958 111.922 795.365 Q111.922 792.703 110.024 791.291 Q108.149 789.856 104.631 789.856 Q102.709 789.856 100.51 790.273 Q98.3112 790.689 95.6724 791.569 L95.6724 787.402 Q98.3344 786.662 100.649 786.291 Q102.987 785.921 105.047 785.921 Q110.371 785.921 113.473 788.351 Q116.575 790.759 116.575 794.879 Q116.575 797.749 114.932 799.74 Q113.288 801.708 110.256 802.472 Z" fill="#4c4c4c" fill-rule="nonzero" fill-opacity="1" /><path clip-path="url(#clip410)" d="M107.802 208.137 L95.9964 226.586 L107.802 226.586 L107.802 208.137 M106.575 204.063 L112.455 204.063 L112.455 226.586 L117.385 226.586 L117.385 230.475 L112.455 230.475 L112.455 238.623 L107.802 238.623 L107.802 230.475 L92.2002 230.475 L92.2002 225.961 L106.575 204.063 Z" fill="#4c4c4c" fill-rule="nonzero" fill-opacity="1" /><path clip-path="url(#clip410)" d="M18.2962 1141.64 L35.6428 1154.53 L53.9442 1140.97 L53.9442 1147.88 L39.9396 1158.26 L53.9442 1168.63 L53.9442 1175.54 L35.2926 1161.69 L18.2962 1174.36 L18.2962 1167.45 L30.9958 1158 L18.2962 1148.55 L18.2962 1141.64 Z" fill="#000000" fill-rule="nonzero" fill-opacity="1" /><path clip-path="url(#clip410)" d="M614.002 20.3876 L614.002 25.4223 Q611.745 24.2649 609.314 23.6862 Q606.884 23.1075 604.279 23.1075 Q600.315 23.1075 598.319 24.3228 Q596.351 25.5381 596.351 27.9686 Q596.351 29.8204 597.769 30.891 Q599.187 31.9327 603.469 32.8876 L605.292 33.2926 Q610.963 34.5079 613.336 36.7359 Q615.738 38.935 615.738 42.8991 Q615.738 47.4129 612.15 50.046 Q608.591 52.6791 602.341 52.6791 Q599.737 52.6791 596.901 52.1583 Q594.094 51.6664 590.969 50.6537 L590.969 45.156 Q593.921 46.6896 596.785 47.4708 Q599.65 48.2231 602.456 48.2231 Q606.218 48.2231 608.243 46.95 Q610.269 45.6479 610.269 43.3042 Q610.269 41.134 608.793 39.9766 Q607.347 38.8192 602.399 37.7486 L600.547 37.3146 Q595.599 36.273 593.4 34.1318 Q591.201 31.9616 591.201 28.2001 Q591.201 23.6283 594.441 21.1399 Q597.682 18.6515 603.643 18.6515 Q606.594 18.6515 609.198 19.0855 Q611.803 19.5196 614.002 20.3876 Z" fill="#000000" fill-rule="nonzero" fill-opacity="1" /><path clip-path="url(#clip410)" d="M636.773 23.1654 Q632.491 23.1654 630.003 26.5218 Q627.514 29.8494 627.514 35.6653 Q627.514 41.4813 629.974 44.8377 Q632.462 48.1653 636.773 48.1653 Q641.027 48.1653 643.515 44.8088 Q646.004 41.4523 646.004 35.6653 Q646.004 29.9072 643.515 26.5508 Q641.027 23.1654 636.773 23.1654 M636.773 18.6515 Q643.718 18.6515 647.682 23.1654 Q651.646 27.6792 651.646 35.6653 Q651.646 43.6225 647.682 48.1653 Q643.718 52.6791 636.773 52.6791 Q629.8 52.6791 625.836 48.1653 Q621.901 43.6225 621.901 35.6653 Q621.901 27.6792 625.836 23.1654 Q629.8 18.6515 636.773 18.6515 Z" fill="#000000" fill-rule="nonzero" fill-opacity="1" /><path clip-path="url(#clip410)" d="M660.471 6.81709 L665.795 6.81709 L665.795 51.84 L660.471 51.84 L660.471 6.81709 Z" fill="#000000" fill-rule="nonzero" fill-opacity="1" /><path clip-path="url(#clip410)" d="M676.385 39.0507 L676.385 19.4328 L681.71 19.4328 L681.71 38.8482 Q681.71 43.4488 683.504 45.7636 Q685.297 48.0495 688.885 48.0495 Q693.197 48.0495 695.685 45.3007 Q698.203 42.5519 698.203 37.8065 L698.203 19.4328 L703.527 19.4328 L703.527 51.84 L698.203 51.84 L698.203 46.8632 Q696.264 49.8145 693.689 51.2613 Q691.142 52.6791 687.757 52.6791 Q682.172 52.6791 679.279 49.2069 Q676.385 45.7347 676.385 39.0507 M689.782 18.6515 L689.782 18.6515 Z" fill="#000000" fill-rule="nonzero" fill-opacity="1" /><path clip-path="url(#clip410)" d="M737.815 20.677 L737.815 25.6538 Q735.558 24.4096 733.272 23.802 Q731.015 23.1654 728.7 23.1654 Q723.521 23.1654 720.656 26.464 Q717.792 29.7336 717.792 35.6653 Q717.792 41.597 720.656 44.8956 Q723.521 48.1653 728.7 48.1653 Q731.015 48.1653 733.272 47.5576 Q735.558 46.921 737.815 45.6768 L737.815 50.5958 Q735.587 51.6375 733.185 52.1583 Q730.812 52.6791 728.121 52.6791 Q720.801 52.6791 716.489 48.0784 Q712.178 43.4778 712.178 35.6653 Q712.178 27.7371 716.518 23.1943 Q720.888 18.6515 728.469 18.6515 Q730.928 18.6515 733.272 19.1724 Q735.615 19.6642 737.815 20.677 M730.291 51.84 Q731.883 53.634 732.664 55.1386 Q733.445 56.6722 733.445 58.061 Q733.445 60.6362 731.709 61.9383 Q729.973 63.2693 726.559 63.2693 Q725.228 63.2693 723.955 63.0957 Q722.71 62.9221 721.466 62.5749 L721.466 58.7844 Q722.45 59.2763 723.521 59.4788 Q724.591 59.7103 725.951 59.7103 Q727.658 59.7103 728.526 59.0159 Q729.394 58.3214 729.394 56.9904 Q729.394 56.1224 728.758 54.8492 Q728.15 53.605 726.848 51.84 L730.291 51.84 Z" fill="#000000" fill-rule="nonzero" fill-opacity="1" /><path clip-path="url(#clip410)" d="M761.802 35.5496 Q755.349 35.5496 752.861 37.0253 Q750.372 38.501 750.372 42.06 Q750.372 44.8956 752.224 46.5738 Q754.105 48.2231 757.317 48.2231 Q761.744 48.2231 764.406 45.0981 Q767.097 41.9442 767.097 36.7359 L767.097 35.5496 L761.802 35.5496 M772.421 33.3505 L772.421 51.84 L767.097 51.84 L767.097 46.921 Q765.274 49.8724 762.554 51.2902 Q759.834 52.6791 755.899 52.6791 Q750.922 52.6791 747.971 49.9014 Q745.048 47.0947 745.048 42.4072 Q745.048 36.9385 748.694 34.1607 Q752.369 31.3829 759.632 31.3829 L767.097 31.3829 L767.097 30.8621 Q767.097 27.1874 764.666 25.1908 Q762.265 23.1654 757.895 23.1654 Q755.118 23.1654 752.485 23.8309 Q749.852 24.4964 747.421 25.8274 L747.421 20.9085 Q750.343 19.78 753.092 19.2302 Q755.841 18.6515 758.445 18.6515 Q765.476 18.6515 768.949 22.2973 Q772.421 25.9431 772.421 33.3505 M758.561 12.199 L756.912 10.6076 Q756.275 10.0289 755.783 9.76847 Q755.32 9.47912 754.944 9.47912 Q753.845 9.47912 753.324 10.5497 Q752.803 11.5914 752.745 13.964 L749.128 13.964 Q749.186 10.0578 750.662 7.94556 Q752.137 5.80437 754.77 5.80437 Q755.87 5.80437 756.796 6.20946 Q757.722 6.61455 758.792 7.5694 L760.442 9.16083 Q761.078 9.73953 761.541 10.0289 Q762.033 10.2893 762.409 10.2893 Q763.509 10.2893 764.03 9.24764 Q764.551 8.17704 764.608 5.80437 L768.225 5.80437 Q768.167 9.7106 766.692 11.8518 Q765.216 13.964 762.583 13.964 Q761.483 13.964 760.557 13.559 Q759.632 13.1539 758.561 12.199 Z" fill="#000000" fill-rule="nonzero" fill-opacity="1" /><path clip-path="url(#clip410)" d="M795.945 23.1654 Q791.663 23.1654 789.174 26.5218 Q786.686 29.8494 786.686 35.6653 Q786.686 41.4813 789.145 44.8377 Q791.634 48.1653 795.945 48.1653 Q800.198 48.1653 802.687 44.8088 Q805.175 41.4523 805.175 35.6653 Q805.175 29.9072 802.687 26.5508 Q800.198 23.1654 795.945 23.1654 M795.945 18.6515 Q802.889 18.6515 806.854 23.1654 Q810.818 27.6792 810.818 35.6653 Q810.818 43.6225 806.854 48.1653 Q802.889 52.6791 795.945 52.6791 Q788.972 52.6791 785.008 48.1653 Q781.072 43.6225 781.072 35.6653 Q781.072 27.6792 785.008 23.1654 Q788.972 18.6515 795.945 18.6515 Z" fill="#000000" fill-rule="nonzero" fill-opacity="1" /><path clip-path="url(#clip410)" d="M859.805 24.3517 L859.805 6.81709 L865.129 6.81709 L865.129 51.84 L859.805 51.84 L859.805 46.9789 Q858.126 49.8724 855.551 51.2902 Q853.005 52.6791 849.417 52.6791 Q843.543 52.6791 839.839 47.9916 Q836.165 43.3042 836.165 35.6653 Q836.165 28.0265 839.839 23.339 Q843.543 18.6515 849.417 18.6515 Q853.005 18.6515 855.551 20.0693 Q858.126 21.4582 859.805 24.3517 M841.662 35.6653 Q841.662 41.5391 844.064 44.8956 Q846.495 48.2231 850.719 48.2231 Q854.944 48.2231 857.374 44.8956 Q859.805 41.5391 859.805 35.6653 Q859.805 29.7915 857.374 26.464 Q854.944 23.1075 850.719 23.1075 Q846.495 23.1075 844.064 26.464 Q841.662 29.7915 841.662 35.6653 Z" fill="#000000" fill-rule="nonzero" fill-opacity="1" /><path clip-path="url(#clip410)" d="M890.823 35.5496 Q884.37 35.5496 881.882 37.0253 Q879.394 38.501 879.394 42.06 Q879.394 44.8956 881.246 46.5738 Q883.126 48.2231 886.338 48.2231 Q890.765 48.2231 893.427 45.0981 Q896.118 41.9442 896.118 36.7359 L896.118 35.5496 L890.823 35.5496 M901.442 33.3505 L901.442 51.84 L896.118 51.84 L896.118 46.921 Q894.295 49.8724 891.575 51.2902 Q888.855 52.6791 884.92 52.6791 Q879.943 52.6791 876.992 49.9014 Q874.07 47.0947 874.07 42.4072 Q874.07 36.9385 877.715 34.1607 Q881.39 31.3829 888.653 31.3829 L896.118 31.3829 L896.118 30.8621 Q896.118 27.1874 893.688 25.1908 Q891.286 23.1654 886.917 23.1654 Q884.139 23.1654 881.506 23.8309 Q878.873 24.4964 876.442 25.8274 L876.442 20.9085 Q879.365 19.78 882.114 19.2302 Q884.862 18.6515 887.467 18.6515 Q894.498 18.6515 897.97 22.2973 Q901.442 25.9431 901.442 33.3505 Z" fill="#000000" fill-rule="nonzero" fill-opacity="1" /><path clip-path="url(#clip410)" d="M958.965 34.3054 L958.965 36.9095 L934.486 36.9095 Q934.833 42.4072 937.785 45.3007 Q940.765 48.1653 946.06 48.1653 Q949.127 48.1653 951.992 47.4129 Q954.885 46.6606 957.721 45.156 L957.721 50.1907 Q954.856 51.406 951.847 52.0425 Q948.838 52.6791 945.742 52.6791 Q937.987 52.6791 933.444 48.1653 Q928.93 43.6514 928.93 35.9547 Q928.93 27.9975 933.213 23.339 Q937.524 18.6515 944.816 18.6515 Q951.355 18.6515 955.146 22.876 Q958.965 27.0716 958.965 34.3054 M953.641 32.7429 Q953.583 28.3737 951.181 25.7695 Q948.809 23.1654 944.874 23.1654 Q940.418 23.1654 937.727 25.6827 Q935.065 28.2001 934.66 32.7718 L953.641 32.7429 Z" fill="#000000" fill-rule="nonzero" fill-opacity="1" /><path clip-path="url(#clip410)" d="M970.886 35.6653 Q970.886 41.5391 973.288 44.8956 Q975.718 48.2231 979.943 48.2231 Q984.167 48.2231 986.598 44.8956 Q989.028 41.5391 989.028 35.6653 Q989.028 29.7915 986.598 26.464 Q984.167 23.1075 979.943 23.1075 Q975.718 23.1075 973.288 26.464 Q970.886 29.7915 970.886 35.6653 M989.028 46.9789 Q987.35 49.8724 984.775 51.2902 Q982.229 52.6791 978.641 52.6791 Q972.767 52.6791 969.063 47.9916 Q965.389 43.3042 965.389 35.6653 Q965.389 28.0265 969.063 23.339 Q972.767 18.6515 978.641 18.6515 Q982.229 18.6515 984.775 20.0693 Q987.35 21.4582 989.028 24.3517 L989.028 19.4328 L994.353 19.4328 L994.353 64.1663 L989.028 64.1663 L989.028 46.9789 Z" fill="#000000" fill-rule="nonzero" fill-opacity="1" /><path clip-path="url(#clip410)" d="M1004.77 39.0507 L1004.77 19.4328 L1010.09 19.4328 L1010.09 38.8482 Q1010.09 43.4488 1011.89 45.7636 Q1013.68 48.0495 1017.27 48.0495 Q1021.58 48.0495 1024.07 45.3007 Q1026.59 42.5519 1026.59 37.8065 L1026.59 19.4328 L1031.91 19.4328 L1031.91 51.84 L1026.59 51.84 L1026.59 46.8632 Q1024.65 49.8145 1022.07 51.2613 Q1019.53 52.6791 1016.14 52.6791 Q1010.56 52.6791 1007.66 49.2069 Q1004.77 45.7347 1004.77 39.0507 M1018.17 18.6515 L1018.17 18.6515 Z" fill="#000000" fill-rule="nonzero" fill-opacity="1" /><path clip-path="url(#clip410)" d="M1057.6 35.5496 Q1051.15 35.5496 1048.66 37.0253 Q1046.18 38.501 1046.18 42.06 Q1046.18 44.8956 1048.03 46.5738 Q1049.91 48.2231 1053.12 48.2231 Q1057.55 48.2231 1060.21 45.0981 Q1062.9 41.9442 1062.9 36.7359 L1062.9 35.5496 L1057.6 35.5496 M1068.22 33.3505 L1068.22 51.84 L1062.9 51.84 L1062.9 46.921 Q1061.08 49.8724 1058.36 51.2902 Q1055.64 52.6791 1051.7 52.6791 Q1046.72 52.6791 1043.77 49.9014 Q1040.85 47.0947 1040.85 42.4072 Q1040.85 36.9385 1044.5 34.1607 Q1048.17 31.3829 1055.43 31.3829 L1062.9 31.3829 L1062.9 30.8621 Q1062.9 27.1874 1060.47 25.1908 Q1058.07 23.1654 1053.7 23.1654 Q1050.92 23.1654 1048.29 23.8309 Q1045.65 24.4964 1043.22 25.8274 L1043.22 20.9085 Q1046.15 19.78 1048.9 19.2302 Q1051.64 18.6515 1054.25 18.6515 Q1061.28 18.6515 1064.75 22.2973 Q1068.22 25.9431 1068.22 33.3505 Z" fill="#000000" fill-rule="nonzero" fill-opacity="1" /><path clip-path="url(#clip410)" d="M1102.51 20.677 L1102.51 25.6538 Q1100.25 24.4096 1097.97 23.802 Q1095.71 23.1654 1093.4 23.1654 Q1088.22 23.1654 1085.35 26.464 Q1082.49 29.7336 1082.49 35.6653 Q1082.49 41.597 1085.35 44.8956 Q1088.22 48.1653 1093.4 48.1653 Q1095.71 48.1653 1097.97 47.5576 Q1100.25 46.921 1102.51 45.6768 L1102.51 50.5958 Q1100.28 51.6375 1097.88 52.1583 Q1095.51 52.6791 1092.82 52.6791 Q1085.5 52.6791 1081.19 48.0784 Q1076.88 43.4778 1076.88 35.6653 Q1076.88 27.7371 1081.22 23.1943 Q1085.58 18.6515 1093.17 18.6515 Q1095.63 18.6515 1097.97 19.1724 Q1100.31 19.6642 1102.51 20.677 M1094.99 51.84 Q1096.58 53.634 1097.36 55.1386 Q1098.14 56.6722 1098.14 58.061 Q1098.14 60.6362 1096.41 61.9383 Q1094.67 63.2693 1091.26 63.2693 Q1089.92 63.2693 1088.65 63.0957 Q1087.41 62.9221 1086.16 62.5749 L1086.16 58.7844 Q1087.15 59.2763 1088.22 59.4788 Q1089.29 59.7103 1090.65 59.7103 Q1092.36 59.7103 1093.22 59.0159 Q1094.09 58.3214 1094.09 56.9904 Q1094.09 56.1224 1093.46 54.8492 Q1092.85 53.605 1091.55 51.84 L1094.99 51.84 Z" fill="#000000" fill-rule="nonzero" fill-opacity="1" /><path clip-path="url(#clip410)" d="M1126.5 35.5496 Q1120.05 35.5496 1117.56 37.0253 Q1115.07 38.501 1115.07 42.06 Q1115.07 44.8956 1116.92 46.5738 Q1118.8 48.2231 1122.01 48.2231 Q1126.44 48.2231 1129.1 45.0981 Q1131.79 41.9442 1131.79 36.7359 L1131.79 35.5496 L1126.5 35.5496 M1137.12 33.3505 L1137.12 51.84 L1131.79 51.84 L1131.79 46.921 Q1129.97 49.8724 1127.25 51.2902 Q1124.53 52.6791 1120.6 52.6791 Q1115.62 52.6791 1112.67 49.9014 Q1109.75 47.0947 1109.75 42.4072 Q1109.75 36.9385 1113.39 34.1607 Q1117.07 31.3829 1124.33 31.3829 L1131.79 31.3829 L1131.79 30.8621 Q1131.79 27.1874 1129.36 25.1908 Q1126.96 23.1654 1122.59 23.1654 Q1119.81 23.1654 1117.18 23.8309 Q1114.55 24.4964 1112.12 25.8274 L1112.12 20.9085 Q1115.04 19.78 1117.79 19.2302 Q1120.54 18.6515 1123.14 18.6515 Q1130.17 18.6515 1133.65 22.2973 Q1137.12 25.9431 1137.12 33.3505 M1123.26 12.199 L1121.61 10.6076 Q1120.97 10.0289 1120.48 9.76847 Q1120.02 9.47912 1119.64 9.47912 Q1118.54 9.47912 1118.02 10.5497 Q1117.5 11.5914 1117.44 13.964 L1113.83 13.964 Q1113.88 10.0578 1115.36 7.94556 Q1116.83 5.80437 1119.47 5.80437 Q1120.57 5.80437 1121.49 6.20946 Q1122.42 6.61455 1123.49 7.5694 L1125.14 9.16083 Q1125.78 9.73953 1126.24 10.0289 Q1126.73 10.2893 1127.11 10.2893 Q1128.21 10.2893 1128.73 9.24764 Q1129.25 8.17704 1129.31 5.80437 L1132.92 5.80437 Q1132.86 9.7106 1131.39 11.8518 Q1129.91 13.964 1127.28 13.964 Q1126.18 13.964 1125.25 13.559 Q1124.33 13.1539 1123.26 12.199 Z" fill="#000000" fill-rule="nonzero" fill-opacity="1" /><path clip-path="url(#clip410)" d="M1160.64 23.1654 Q1156.36 23.1654 1153.87 26.5218 Q1151.38 29.8494 1151.38 35.6653 Q1151.38 41.4813 1153.84 44.8377 Q1156.33 48.1653 1160.64 48.1653 Q1164.9 48.1653 1167.38 44.8088 Q1169.87 41.4523 1169.87 35.6653 Q1169.87 29.9072 1167.38 26.5508 Q1164.9 23.1654 1160.64 23.1654 M1160.64 18.6515 Q1167.59 18.6515 1171.55 23.1654 Q1175.51 27.6792 1175.51 35.6653 Q1175.51 43.6225 1171.55 48.1653 Q1167.59 52.6791 1160.64 52.6791 Q1153.67 52.6791 1149.7 48.1653 Q1145.77 43.6225 1145.77 35.6653 Q1145.77 27.6792 1149.7 23.1654 Q1153.67 18.6515 1160.64 18.6515 Z" fill="#000000" fill-rule="nonzero" fill-opacity="1" /><path clip-path="url(#clip410)" d="M1224.5 24.3517 L1224.5 6.81709 L1229.83 6.81709 L1229.83 51.84 L1224.5 51.84 L1224.5 46.9789 Q1222.82 49.8724 1220.25 51.2902 Q1217.7 52.6791 1214.11 52.6791 Q1208.24 52.6791 1204.54 47.9916 Q1200.86 43.3042 1200.86 35.6653 Q1200.86 28.0265 1204.54 23.339 Q1208.24 18.6515 1214.11 18.6515 Q1217.7 18.6515 1220.25 20.0693 Q1222.82 21.4582 1224.5 24.3517 M1206.36 35.6653 Q1206.36 41.5391 1208.76 44.8956 Q1211.19 48.2231 1215.42 48.2231 Q1219.64 48.2231 1222.07 44.8956 Q1224.5 41.5391 1224.5 35.6653 Q1224.5 29.7915 1222.07 26.464 Q1219.64 23.1075 1215.42 23.1075 Q1211.19 23.1075 1208.76 26.464 Q1206.36 29.7915 1206.36 35.6653 Z" fill="#000000" fill-rule="nonzero" fill-opacity="1" /><path clip-path="url(#clip410)" d="M1240.79 19.4328 L1246.12 19.4328 L1246.12 51.84 L1240.79 51.84 L1240.79 19.4328 M1240.79 6.81709 L1246.12 6.81709 L1246.12 13.559 L1240.79 13.559 L1240.79 6.81709 Z" fill="#000000" fill-rule="nonzero" fill-opacity="1" /><path clip-path="url(#clip410)" d="M1273.66 6.81709 L1273.66 11.2442 L1268.57 11.2442 Q1265.71 11.2442 1264.58 12.4016 Q1263.48 13.559 1263.48 16.5682 L1263.48 19.4328 L1272.24 19.4328 L1272.24 23.5705 L1263.48 23.5705 L1263.48 51.84 L1258.12 51.84 L1258.12 23.5705 L1253.03 23.5705 L1253.03 19.4328 L1258.12 19.4328 L1258.12 17.1758 Q1258.12 11.765 1260.64 9.30551 Q1263.16 6.81709 1268.63 6.81709 L1273.66 6.81709 Z" fill="#000000" fill-rule="nonzero" fill-opacity="1" /><path clip-path="url(#clip410)" d="M1305.84 34.3054 L1305.84 36.9095 L1281.36 36.9095 Q1281.71 42.4072 1284.66 45.3007 Q1287.64 48.1653 1292.93 48.1653 Q1296 48.1653 1298.86 47.4129 Q1301.76 46.6606 1304.59 45.156 L1304.59 50.1907 Q1301.73 51.406 1298.72 52.0425 Q1295.71 52.6791 1292.61 52.6791 Q1284.86 52.6791 1280.32 48.1653 Q1275.8 43.6514 1275.8 35.9547 Q1275.8 27.9975 1280.09 23.339 Q1284.4 18.6515 1291.69 18.6515 Q1298.23 18.6515 1302.02 22.876 Q1305.84 27.0716 1305.84 34.3054 M1300.51 32.7429 Q1300.46 28.3737 1298.05 25.7695 Q1295.68 23.1654 1291.75 23.1654 Q1287.29 23.1654 1284.6 25.6827 Q1281.94 28.2001 1281.53 32.7718 L1300.51 32.7429 Z" fill="#000000" fill-rule="nonzero" fill-opacity="1" /><path clip-path="url(#clip410)" d="M1333.36 24.4096 Q1332.46 23.8888 1331.39 23.6573 Q1330.35 23.3969 1329.07 23.3969 Q1324.56 23.3969 1322.13 26.3482 Q1319.73 29.2707 1319.73 34.7683 L1319.73 51.84 L1314.37 51.84 L1314.37 19.4328 L1319.73 19.4328 L1319.73 24.4675 Q1321.41 21.5161 1324.1 20.0983 Q1326.79 18.6515 1330.64 18.6515 Q1331.19 18.6515 1331.85 18.7383 Q1332.52 18.7962 1333.33 18.9409 L1333.36 24.4096 Z" fill="#000000" fill-rule="nonzero" fill-opacity="1" /><path clip-path="url(#clip410)" d="M1365.36 34.3054 L1365.36 36.9095 L1340.88 36.9095 Q1341.23 42.4072 1344.18 45.3007 Q1347.16 48.1653 1352.45 48.1653 Q1355.52 48.1653 1358.38 47.4129 Q1361.28 46.6606 1364.11 45.156 L1364.11 50.1907 Q1361.25 51.406 1358.24 52.0425 Q1355.23 52.6791 1352.13 52.6791 Q1344.38 52.6791 1339.84 48.1653 Q1335.32 43.6514 1335.32 35.9547 Q1335.32 27.9975 1339.61 23.339 Q1343.92 18.6515 1351.21 18.6515 Q1357.75 18.6515 1361.54 22.876 Q1365.36 27.0716 1365.36 34.3054 M1360.03 32.7429 Q1359.98 28.3737 1357.57 25.7695 Q1355.2 23.1654 1351.27 23.1654 Q1346.81 23.1654 1344.12 25.6827 Q1341.46 28.2001 1341.05 32.7718 L1360.03 32.7429 Z" fill="#000000" fill-rule="nonzero" fill-opacity="1" /><path clip-path="url(#clip410)" d="M1401.03 32.2799 L1401.03 51.84 L1395.71 51.84 L1395.71 32.4535 Q1395.71 27.8529 1393.92 25.567 Q1392.12 23.2811 1388.53 23.2811 Q1384.22 23.2811 1381.73 26.03 Q1379.25 28.7788 1379.25 33.5241 L1379.25 51.84 L1373.89 51.84 L1373.89 19.4328 L1379.25 19.4328 L1379.25 24.4675 Q1381.16 21.545 1383.73 20.0983 Q1386.34 18.6515 1389.72 18.6515 Q1395.31 18.6515 1398.17 22.1237 Q1401.03 25.567 1401.03 32.2799 Z" fill="#000000" fill-rule="nonzero" fill-opacity="1" /><path clip-path="url(#clip410)" d="M1434.98 20.677 L1434.98 25.6538 Q1432.72 24.4096 1430.43 23.802 Q1428.18 23.1654 1425.86 23.1654 Q1420.68 23.1654 1417.82 26.464 Q1414.95 29.7336 1414.95 35.6653 Q1414.95 41.597 1417.82 44.8956 Q1420.68 48.1653 1425.86 48.1653 Q1428.18 48.1653 1430.43 47.5576 Q1432.72 46.921 1434.98 45.6768 L1434.98 50.5958 Q1432.75 51.6375 1430.35 52.1583 Q1427.97 52.6791 1425.28 52.6791 Q1417.96 52.6791 1413.65 48.0784 Q1409.34 43.4778 1409.34 35.6653 Q1409.34 27.7371 1413.68 23.1943 Q1418.05 18.6515 1425.63 18.6515 Q1428.09 18.6515 1430.43 19.1724 Q1432.78 19.6642 1434.98 20.677 Z" fill="#000000" fill-rule="nonzero" fill-opacity="1" /><path clip-path="url(#clip410)" d="M1444.23 19.4328 L1449.56 19.4328 L1449.56 51.84 L1444.23 51.84 L1444.23 19.4328 M1444.23 6.81709 L1449.56 6.81709 L1449.56 13.559 L1444.23 13.559 L1444.23 6.81709 Z" fill="#000000" fill-rule="nonzero" fill-opacity="1" /><path clip-path="url(#clip410)" d="M1475.43 35.5496 Q1468.97 35.5496 1466.49 37.0253 Q1464 38.501 1464 42.06 Q1464 44.8956 1465.85 46.5738 Q1467.73 48.2231 1470.94 48.2231 Q1475.37 48.2231 1478.03 45.0981 Q1480.72 41.9442 1480.72 36.7359 L1480.72 35.5496 L1475.43 35.5496 M1486.05 33.3505 L1486.05 51.84 L1480.72 51.84 L1480.72 46.921 Q1478.9 49.8724 1476.18 51.2902 Q1473.46 52.6791 1469.52 52.6791 Q1464.55 52.6791 1461.6 49.9014 Q1458.67 47.0947 1458.67 42.4072 Q1458.67 36.9385 1462.32 34.1607 Q1465.99 31.3829 1473.26 31.3829 L1480.72 31.3829 L1480.72 30.8621 Q1480.72 27.1874 1478.29 25.1908 Q1475.89 23.1654 1471.52 23.1654 Q1468.74 23.1654 1466.11 23.8309 Q1463.48 24.4964 1461.05 25.8274 L1461.05 20.9085 Q1463.97 19.78 1466.72 19.2302 Q1469.47 18.6515 1472.07 18.6515 Q1479.1 18.6515 1482.57 22.2973 Q1486.05 25.9431 1486.05 33.3505 Z" fill="#000000" fill-rule="nonzero" fill-opacity="1" /><path clip-path="url(#clip410)" d="M1497.01 6.81709 L1502.34 6.81709 L1502.34 51.84 L1497.01 51.84 L1497.01 6.81709 Z" fill="#000000" fill-rule="nonzero" fill-opacity="1" /><path clip-path="url(#clip410)" d="M1547.04 35.5496 Q1540.59 35.5496 1538.1 37.0253 Q1535.61 38.501 1535.61 42.06 Q1535.61 44.8956 1537.46 46.5738 Q1539.34 48.2231 1542.56 48.2231 Q1546.98 48.2231 1549.64 45.0981 Q1552.34 41.9442 1552.34 36.7359 L1552.34 35.5496 L1547.04 35.5496 M1557.66 33.3505 L1557.66 51.84 L1552.34 51.84 L1552.34 46.921 Q1550.51 49.8724 1547.79 51.2902 Q1545.07 52.6791 1541.14 52.6791 Q1536.16 52.6791 1533.21 49.9014 Q1530.29 47.0947 1530.29 42.4072 Q1530.29 36.9385 1533.93 34.1607 Q1537.61 31.3829 1544.87 31.3829 L1552.34 31.3829 L1552.34 30.8621 Q1552.34 27.1874 1549.91 25.1908 Q1547.5 23.1654 1543.13 23.1654 Q1540.36 23.1654 1537.72 23.8309 Q1535.09 24.4964 1532.66 25.8274 L1532.66 20.9085 Q1535.58 19.78 1538.33 19.2302 Q1541.08 18.6515 1543.68 18.6515 Q1550.72 18.6515 1554.19 22.2973 Q1557.66 25.9431 1557.66 33.3505 Z" fill="#000000" fill-rule="nonzero" fill-opacity="1" /><path clip-path="url(#clip410)" d="M1568.63 6.81709 L1573.95 6.81709 L1573.95 51.84 L1568.63 51.84 L1568.63 6.81709 Z" fill="#000000" fill-rule="nonzero" fill-opacity="1" /><path clip-path="url(#clip410)" d="M1612.81 34.3054 L1612.81 36.9095 L1588.33 36.9095 Q1588.68 42.4072 1591.63 45.3007 Q1594.61 48.1653 1599.9 48.1653 Q1602.97 48.1653 1605.84 47.4129 Q1608.73 46.6606 1611.57 45.156 L1611.57 50.1907 Q1608.7 51.406 1605.69 52.0425 Q1602.68 52.6791 1599.59 52.6791 Q1591.83 52.6791 1587.29 48.1653 Q1582.78 43.6514 1582.78 35.9547 Q1582.78 27.9975 1587.06 23.339 Q1591.37 18.6515 1598.66 18.6515 Q1605.2 18.6515 1608.99 22.876 Q1612.81 27.0716 1612.81 34.3054 M1607.49 32.7429 Q1607.43 28.3737 1605.03 25.7695 Q1602.65 23.1654 1598.72 23.1654 Q1594.26 23.1654 1591.57 25.6827 Q1588.91 28.2001 1588.5 32.7718 L1607.49 32.7429 Z" fill="#000000" fill-rule="nonzero" fill-opacity="1" /><path clip-path="url(#clip410)" d="M1636.28 35.5496 Q1629.82 35.5496 1627.34 37.0253 Q1624.85 38.501 1624.85 42.06 Q1624.85 44.8956 1626.7 46.5738 Q1628.58 48.2231 1631.79 48.2231 Q1636.22 48.2231 1638.88 45.0981 Q1641.57 41.9442 1641.57 36.7359 L1641.57 35.5496 L1636.28 35.5496 M1646.9 33.3505 L1646.9 51.84 L1641.57 51.84 L1641.57 46.921 Q1639.75 49.8724 1637.03 51.2902 Q1634.31 52.6791 1630.37 52.6791 Q1625.4 52.6791 1622.45 49.9014 Q1619.52 47.0947 1619.52 42.4072 Q1619.52 36.9385 1623.17 34.1607 Q1626.84 31.3829 1634.11 31.3829 L1641.57 31.3829 L1641.57 30.8621 Q1641.57 27.1874 1639.14 25.1908 Q1636.74 23.1654 1632.37 23.1654 Q1629.59 23.1654 1626.96 23.8309 Q1624.33 24.4964 1621.9 25.8274 L1621.9 20.9085 Q1624.82 19.78 1627.57 19.2302 Q1630.32 18.6515 1632.92 18.6515 Q1639.95 18.6515 1643.42 22.2973 Q1646.9 25.9431 1646.9 33.3505 Z" fill="#000000" fill-rule="nonzero" fill-opacity="1" /><path clip-path="url(#clip410)" d="M1663.13 10.2314 L1663.13 19.4328 L1674.09 19.4328 L1674.09 23.5705 L1663.13 23.5705 L1663.13 41.163 Q1663.13 45.1271 1664.2 46.2555 Q1665.3 47.384 1668.63 47.384 L1674.09 47.384 L1674.09 51.84 L1668.63 51.84 Q1662.46 51.84 1660.12 49.5541 Q1657.77 47.2393 1657.77 41.163 L1657.77 23.5705 L1653.87 23.5705 L1653.87 19.4328 L1657.77 19.4328 L1657.77 10.2314 L1663.13 10.2314 Z" fill="#000000" fill-rule="nonzero" fill-opacity="1" /><path clip-path="url(#clip410)" d="M1693.65 23.1654 Q1689.37 23.1654 1686.88 26.5218 Q1684.4 29.8494 1684.4 35.6653 Q1684.4 41.4813 1686.85 44.8377 Q1689.34 48.1653 1693.65 48.1653 Q1697.91 48.1653 1700.4 44.8088 Q1702.88 41.4523 1702.88 35.6653 Q1702.88 29.9072 1700.4 26.5508 Q1697.91 23.1654 1693.65 23.1654 M1693.65 18.6515 Q1700.6 18.6515 1704.56 23.1654 Q1708.53 27.6792 1708.53 35.6653 Q1708.53 43.6225 1704.56 48.1653 Q1700.6 52.6791 1693.65 52.6791 Q1686.68 52.6791 1682.72 48.1653 Q1678.78 43.6225 1678.78 35.6653 Q1678.78 27.6792 1682.72 23.1654 Q1686.68 18.6515 1693.65 18.6515 M1697.68 4.44442 L1703.43 4.44442 L1694 15.324 L1689.57 15.324 L1697.68 4.44442 Z" fill="#000000" fill-rule="nonzero" fill-opacity="1" /><path clip-path="url(#clip410)" d="M1736.13 24.4096 Q1735.23 23.8888 1734.16 23.6573 Q1733.12 23.3969 1731.85 23.3969 Q1727.33 23.3969 1724.9 26.3482 Q1722.5 29.2707 1722.5 34.7683 L1722.5 51.84 L1717.15 51.84 L1717.15 19.4328 L1722.5 19.4328 L1722.5 24.4675 Q1724.18 21.5161 1726.87 20.0983 Q1729.56 18.6515 1733.41 18.6515 Q1733.96 18.6515 1734.63 18.7383 Q1735.29 18.7962 1736.1 18.9409 L1736.13 24.4096 Z" fill="#000000" fill-rule="nonzero" fill-opacity="1" /><path clip-path="url(#clip410)" d="M1741.72 19.4328 L1747.04 19.4328 L1747.04 51.84 L1741.72 51.84 L1741.72 19.4328 M1741.72 6.81709 L1747.04 6.81709 L1747.04 13.559 L1741.72 13.559 L1741.72 6.81709 Z" fill="#000000" fill-rule="nonzero" fill-opacity="1" /><path clip-path="url(#clip410)" d="M1772.91 35.5496 Q1766.45 35.5496 1763.97 37.0253 Q1761.48 38.501 1761.48 42.06 Q1761.48 44.8956 1763.33 46.5738 Q1765.21 48.2231 1768.42 48.2231 Q1772.85 48.2231 1775.51 45.0981 Q1778.2 41.9442 1778.2 36.7359 L1778.2 35.5496 L1772.91 35.5496 M1783.53 33.3505 L1783.53 51.84 L1778.2 51.84 L1778.2 46.921 Q1776.38 49.8724 1773.66 51.2902 Q1770.94 52.6791 1767 52.6791 Q1762.03 52.6791 1759.08 49.9014 Q1756.15 47.0947 1756.15 42.4072 Q1756.15 36.9385 1759.8 34.1607 Q1763.47 31.3829 1770.74 31.3829 L1778.2 31.3829 L1778.2 30.8621 Q1778.2 27.1874 1775.77 25.1908 Q1773.37 23.1654 1769 23.1654 Q1766.22 23.1654 1763.59 23.8309 Q1760.96 24.4964 1758.53 25.8274 L1758.53 20.9085 Q1761.45 19.78 1764.2 19.2302 Q1766.95 18.6515 1769.55 18.6515 Q1776.58 18.6515 1780.05 22.2973 Q1783.53 25.9431 1783.53 33.3505 Z" fill="#000000" fill-rule="nonzero" fill-opacity="1" /><path clip-path="url(#clip410)" d="M1818.36 4.44442 L1826.52 15.2661 L1822.1 15.2661 L1812.66 4.44442 L1818.36 4.44442 Z" fill="#000000" fill-rule="nonzero" fill-opacity="1" /><path clip-path="url(#clip410)" d="M1842.41 39.0507 L1842.41 19.4328 L1847.73 19.4328 L1847.73 38.8482 Q1847.73 43.4488 1849.53 45.7636 Q1851.32 48.0495 1854.91 48.0495 Q1859.22 48.0495 1861.71 45.3007 Q1864.23 42.5519 1864.23 37.8065 L1864.23 19.4328 L1869.55 19.4328 L1869.55 51.84 L1864.23 51.84 L1864.23 46.8632 Q1862.29 49.8145 1859.71 51.2613 Q1857.17 52.6791 1853.78 52.6791 Q1848.2 52.6791 1845.3 49.2069 Q1842.41 45.7347 1842.41 39.0507 M1855.81 18.6515 L1855.81 18.6515 Z" fill="#000000" fill-rule="nonzero" fill-opacity="1" /><path clip-path="url(#clip410)" d="M1885.55 8.64 L1885.55 24.6989 L1880.63 24.6989 L1880.63 8.64 L1885.55 8.64 Z" fill="#000000" fill-rule="nonzero" fill-opacity="1" /><path clip-path="url(#clip410)" d="M1916.34 24.9304 L1953.43 24.9304 L1953.43 29.7915 L1916.34 29.7915 L1916.34 24.9304 M1916.34 36.7359 L1953.43 36.7359 L1953.43 41.6549 L1916.34 41.6549 L1916.34 36.7359 Z" fill="#000000" fill-rule="nonzero" fill-opacity="1" /><path clip-path="url(#clip410)" d="M2004.79 20.3876 L2004.79 25.4223 Q2002.54 24.2649 2000.11 23.6862 Q1997.67 23.1075 1995.07 23.1075 Q1991.11 23.1075 1989.11 24.3228 Q1987.14 25.5381 1987.14 27.9686 Q1987.14 29.8204 1988.56 30.891 Q1989.98 31.9327 1994.26 32.8876 L1996.08 33.2926 Q2001.75 34.5079 2004.13 36.7359 Q2006.53 38.935 2006.53 42.8991 Q2006.53 47.4129 2002.94 50.046 Q1999.38 52.6791 1993.13 52.6791 Q1990.53 52.6791 1987.69 52.1583 Q1984.89 51.6664 1981.76 50.6537 L1981.76 45.156 Q1984.71 46.6896 1987.58 47.4708 Q1990.44 48.2231 1993.25 48.2231 Q1997.01 48.2231 1999.03 46.95 Q2001.06 45.6479 2001.06 43.3042 Q2001.06 41.134 1999.58 39.9766 Q1998.14 38.8192 1993.19 37.7486 L1991.34 37.3146 Q1986.39 36.273 1984.19 34.1318 Q1981.99 31.9616 1981.99 28.2001 Q1981.99 23.6283 1985.23 21.1399 Q1988.47 18.6515 1994.43 18.6515 Q1997.39 18.6515 1999.99 19.0855 Q2002.59 19.5196 2004.79 20.3876 Z" fill="#000000" fill-rule="nonzero" fill-opacity="1" /><path clip-path="url(#clip410)" d="M2015.01 19.4328 L2020.33 19.4328 L2020.33 51.84 L2015.01 51.84 L2015.01 19.4328 M2015.01 6.81709 L2020.33 6.81709 L2020.33 13.559 L2015.01 13.559 L2015.01 6.81709 Z" fill="#000000" fill-rule="nonzero" fill-opacity="1" /><path clip-path="url(#clip410)" d="M2058.41 32.2799 L2058.41 51.84 L2053.09 51.84 L2053.09 32.4535 Q2053.09 27.8529 2051.29 25.567 Q2049.5 23.2811 2045.91 23.2811 Q2041.6 23.2811 2039.11 26.03 Q2036.62 28.7788 2036.62 33.5241 L2036.62 51.84 L2031.27 51.84 L2031.27 19.4328 L2036.62 19.4328 L2036.62 24.4675 Q2038.53 21.545 2041.11 20.0983 Q2043.71 18.6515 2047.1 18.6515 Q2052.68 18.6515 2055.54 22.1237 Q2058.41 25.567 2058.41 32.2799 Z" fill="#000000" fill-rule="nonzero" fill-opacity="1" /><path clip-path="url(#clip410)" d="M2081.82 6.87496 Q2077.94 13.53 2076.06 20.0404 Q2074.18 26.5508 2074.18 33.2348 Q2074.18 39.9188 2076.06 46.487 Q2077.97 53.0263 2081.82 59.6525 L2077.19 59.6525 Q2072.85 52.8527 2070.68 46.2845 Q2068.54 39.7162 2068.54 33.2348 Q2068.54 26.7823 2070.68 20.2429 Q2072.82 13.7036 2077.19 6.87496 L2081.82 6.87496 Z" fill="#000000" fill-rule="nonzero" fill-opacity="1" /><path clip-path="url(#clip410)" d="M2088.53 8.64 L2094.43 8.64 L2103.52 45.156 L2112.58 8.64 L2119.14 8.64 L2128.23 45.156 L2137.29 8.64 L2143.22 8.64 L2132.37 51.84 L2125.02 51.84 L2115.9 14.3402 L2106.7 51.84 L2099.35 51.84 L2088.53 8.64 Z" fill="#000000" fill-rule="nonzero" fill-opacity="1" /><path clip-path="url(#clip410)" d="M2149.9 6.87496 L2154.53 6.87496 Q2158.87 13.7036 2161.01 20.2429 Q2163.18 26.7823 2163.18 33.2348 Q2163.18 39.7162 2161.01 46.2845 Q2158.87 52.8527 2154.53 59.6525 L2149.9 59.6525 Q2153.75 53.0263 2155.63 46.487 Q2157.54 39.9188 2157.54 33.2348 Q2157.54 26.5508 2155.63 20.0404 Q2153.75 13.53 2149.9 6.87496 Z" fill="#000000" fill-rule="nonzero" fill-opacity="1" /><path clip-path="url(#clip410)" d="M2173.31 39.0507 L2173.31 19.4328 L2178.63 19.4328 L2178.63 38.8482 Q2178.63 43.4488 2180.43 45.7636 Q2182.22 48.0495 2185.81 48.0495 Q2190.12 48.0495 2192.61 45.3007 Q2195.13 42.5519 2195.13 37.8065 L2195.13 19.4328 L2200.45 19.4328 L2200.45 51.84 L2195.13 51.84 L2195.13 46.8632 Q2193.19 49.8145 2190.61 51.2613 Q2188.07 52.6791 2184.68 52.6791 Q2179.1 52.6791 2176.2 49.2069 Q2173.31 45.7347 2173.31 39.0507 M2186.71 18.6515 L2186.71 18.6515 Z" fill="#000000" fill-rule="nonzero" fill-opacity="1" /><path clip-path="url(#clip410)" d="M2216.45 4.44442 L2224.61 15.2661 L2220.19 15.2661 L2210.75 4.44442 L2216.45 4.44442 Z" fill="#000000" fill-rule="nonzero" fill-opacity="1" /><path clip-path="url(#clip410)" d="M2283.21 20.677 L2283.21 25.6538 Q2280.95 24.4096 2278.66 23.802 Q2276.41 23.1654 2274.09 23.1654 Q2268.91 23.1654 2266.05 26.464 Q2263.18 29.7336 2263.18 35.6653 Q2263.18 41.597 2266.05 44.8956 Q2268.91 48.1653 2274.09 48.1653 Q2276.41 48.1653 2278.66 47.5576 Q2280.95 46.921 2283.21 45.6768 L2283.21 50.5958 Q2280.98 51.6375 2278.58 52.1583 Q2276.2 52.6791 2273.51 52.6791 Q2266.19 52.6791 2261.88 48.0784 Q2257.57 43.4778 2257.57 35.6653 Q2257.57 27.7371 2261.91 23.1943 Q2266.28 18.6515 2273.86 18.6515 Q2276.32 18.6515 2278.66 19.1724 Q2281.01 19.6642 2283.21 20.677 Z" fill="#000000" fill-rule="nonzero" fill-opacity="1" /><path clip-path="url(#clip410)" d="M2305.02 23.1654 Q2300.74 23.1654 2298.25 26.5218 Q2295.76 29.8494 2295.76 35.6653 Q2295.76 41.4813 2298.22 44.8377 Q2300.71 48.1653 2305.02 48.1653 Q2309.28 48.1653 2311.76 44.8088 Q2314.25 41.4523 2314.25 35.6653 Q2314.25 29.9072 2311.76 26.5508 Q2309.28 23.1654 2305.02 23.1654 M2305.02 18.6515 Q2311.97 18.6515 2315.93 23.1654 Q2319.9 27.6792 2319.9 35.6653 Q2319.9 43.6225 2315.93 48.1653 Q2311.97 52.6791 2305.02 52.6791 Q2298.05 52.6791 2294.09 48.1653 Q2290.15 43.6225 2290.15 35.6653 Q2290.15 27.6792 2294.09 23.1654 Q2298.05 18.6515 2305.02 18.6515 Z" fill="#000000" fill-rule="nonzero" fill-opacity="1" /><path clip-path="url(#clip410)" d="M2353.95 25.6538 Q2355.95 22.0659 2358.73 20.3587 Q2361.5 18.6515 2365.27 18.6515 Q2370.33 18.6515 2373.08 22.2105 Q2375.83 25.7406 2375.83 32.2799 L2375.83 51.84 L2370.47 51.84 L2370.47 32.4535 Q2370.47 27.795 2368.82 25.5381 Q2367.18 23.2811 2363.79 23.2811 Q2359.65 23.2811 2357.25 26.03 Q2354.85 28.7788 2354.85 33.5241 L2354.85 51.84 L2349.5 51.84 L2349.5 32.4535 Q2349.5 27.7661 2347.85 25.5381 Q2346.2 23.2811 2342.75 23.2811 Q2338.67 23.2811 2336.27 26.0589 Q2333.87 28.8077 2333.87 33.5241 L2333.87 51.84 L2328.52 51.84 L2328.52 19.4328 L2333.87 19.4328 L2333.87 24.4675 Q2335.69 21.4872 2338.24 20.0693 Q2340.79 18.6515 2344.29 18.6515 Q2347.82 18.6515 2350.28 20.4455 Q2352.77 22.2395 2353.95 25.6538 Z" fill="#000000" fill-rule="nonzero" fill-opacity="1" /><path clip-path="url(#clip410)" d="M2410.32 4.44442 L2418.48 15.2661 L2414.05 15.2661 L2404.62 4.44442 L2410.32 4.44442 Z" fill="#000000" fill-rule="nonzero" fill-opacity="1" /><path clip-path="url(#clip410)" d="M2434.36 39.0507 L2434.36 19.4328 L2439.69 19.4328 L2439.69 38.8482 Q2439.69 43.4488 2441.48 45.7636 Q2443.27 48.0495 2446.86 48.0495 Q2451.17 48.0495 2453.66 45.3007 Q2456.18 42.5519 2456.18 37.8065 L2456.18 19.4328 L2461.5 19.4328 L2461.5 51.84 L2456.18 51.84 L2456.18 46.8632 Q2454.24 49.8145 2451.67 51.2613 Q2449.12 52.6791 2445.73 52.6791 Q2440.15 52.6791 2437.26 49.2069 Q2434.36 45.7347 2434.36 39.0507 M2447.76 18.6515 L2447.76 18.6515 Z" fill="#000000" fill-rule="nonzero" fill-opacity="1" /><path clip-path="url(#clip410)" d="M2485.26 6.87496 Q2481.38 13.53 2479.5 20.0404 Q2477.62 26.5508 2477.62 33.2348 Q2477.62 39.9188 2479.5 46.487 Q2481.41 53.0263 2485.26 59.6525 L2480.63 59.6525 Q2476.29 52.8527 2474.12 46.2845 Q2471.98 39.7162 2471.98 33.2348 Q2471.98 26.7823 2474.12 20.2429 Q2476.26 13.7036 2480.63 6.87496 L2485.26 6.87496 Z" fill="#000000" fill-rule="nonzero" fill-opacity="1" /><path clip-path="url(#clip410)" d="M2508.84 12.4884 Q2504.33 12.4884 2502.04 16.9444 Q2499.78 21.3714 2499.78 30.2834 Q2499.78 39.1665 2502.04 43.6225 Q2504.33 48.0495 2508.84 48.0495 Q2513.38 48.0495 2515.64 43.6225 Q2517.93 39.1665 2517.93 30.2834 Q2517.93 21.3714 2515.64 16.9444 Q2513.38 12.4884 2508.84 12.4884 M2508.84 7.85875 Q2516.1 7.85875 2519.92 13.6168 Q2523.77 19.346 2523.77 30.2834 Q2523.77 41.1919 2519.92 46.95 Q2516.1 52.6791 2508.84 52.6791 Q2501.58 52.6791 2497.73 46.95 Q2493.91 41.1919 2493.91 30.2834 Q2493.91 19.346 2497.73 13.6168 Q2501.58 7.85875 2508.84 7.85875 Z" fill="#000000" fill-rule="nonzero" fill-opacity="1" /><path clip-path="url(#clip410)" d="M2532.45 6.87496 L2537.08 6.87496 Q2541.42 13.7036 2543.56 20.2429 Q2545.73 26.7823 2545.73 33.2348 Q2545.73 39.7162 2543.56 46.2845 Q2541.42 52.8527 2537.08 59.6525 L2532.45 59.6525 Q2536.3 53.0263 2538.18 46.487 Q2540.09 39.9188 2540.09 33.2348 Q2540.09 26.5508 2538.18 20.0404 Q2536.3 13.53 2532.45 6.87496 Z" fill="#000000" fill-rule="nonzero" fill-opacity="1" /><path clip-path="url(#clip410)" d="M2575.94 24.9304 L2613.04 24.9304 L2613.04 29.7915 L2575.94 29.7915 L2575.94 24.9304 M2575.94 36.7359 L2613.04 36.7359 L2613.04 41.6549 L2575.94 41.6549 L2575.94 36.7359 Z" fill="#000000" fill-rule="nonzero" fill-opacity="1" /><path clip-path="url(#clip410)" d="M2645.5 46.921 L2655.05 46.921 L2655.05 13.964 L2644.66 16.0474 L2644.66 10.7233 L2654.99 8.64 L2660.84 8.64 L2660.84 46.921 L2670.39 46.921 L2670.39 51.84 L2645.5 51.84 L2645.5 46.921 Z" fill="#000000" fill-rule="nonzero" fill-opacity="1" /><path clip-path="url(#clip410)" d="M2682.19 44.4905 L2688.3 44.4905 L2688.3 51.84 L2682.19 51.84 L2682.19 44.4905 Z" fill="#000000" fill-rule="nonzero" fill-opacity="1" /><path clip-path="url(#clip410)" d="M2713.53 12.4884 Q2709.01 12.4884 2706.73 16.9444 Q2704.47 21.3714 2704.47 30.2834 Q2704.47 39.1665 2706.73 43.6225 Q2709.01 48.0495 2713.53 48.0495 Q2718.07 48.0495 2720.33 43.6225 Q2722.61 39.1665 2722.61 30.2834 Q2722.61 21.3714 2720.33 16.9444 Q2718.07 12.4884 2713.53 12.4884 M2713.53 7.85875 Q2720.79 7.85875 2724.61 13.6168 Q2728.46 19.346 2728.46 30.2834 Q2728.46 41.1919 2724.61 46.95 Q2720.79 52.6791 2713.53 52.6791 Q2706.26 52.6791 2702.42 46.95 Q2698.6 41.1919 2698.6 30.2834 Q2698.6 19.346 2702.42 13.6168 Q2706.26 7.85875 2713.53 7.85875 Z" fill="#000000" fill-rule="nonzero" fill-opacity="1" /><path clip-path="url(#clip410)" d="M2743.01 4.44442 L2751.17 15.2661 L2746.74 15.2661 L2737.31 4.44442 L2743.01 4.44442 Z" fill="#000000" fill-rule="nonzero" fill-opacity="1" /><polyline clip-path="url(#clip412)" style="stroke:#009af9; stroke-linecap:round; stroke-linejoin:round; stroke-width:4; stroke-opacity:1; fill:none" points="273.254,1968.79 278.845,1968.79 284.437,1967.52 290.028,1966.48 295.619,1966.42 301.211,1966.21 306.802,1965.17 312.393,1963.88 317.984,1962.62 323.576,1960.83 329.167,1958.25 334.758,1956.95 340.349,1956.37 345.941,1955.45 351.532,1954.58 357.123,1953.39 362.714,1952.81 368.306,1952.15 373.897,1950.47 379.488,1947.6 385.079,1944.21 390.671,1940.65 396.262,1936.97 401.853,1933.69 407.445,1931.04 413.036,1929.41 418.627,1928.56 424.218,1927 429.81,1924.31 435.401,1921.85 440.992,1919.71 446.583,1918.32 452.175,1916.5 457.766,1914.14 463.357,1911.47 468.948,1909.99 474.54,1908.32 480.131,1906.23 485.722,1903.66 491.314,1901.09 496.905,1898.27 502.496,1896.09 508.087,1893.84 513.679,1892.66 519.27,1891.34 524.861,1889.78 530.452,1887.77 536.044,1884.75 541.635,1880.82 547.226,1876.79 552.817,1872.43 558.409,1867.95 564,1864.08 569.591,1859.65 575.183,1854.89 580.774,1849.86 586.365,1844.61 591.956,1838.97 597.548,1833.09 603.139,1826.34 608.73,1819.74 614.321,1813.69 619.913,1807.53 625.504,1800.87 631.095,1794.06 636.686,1786.81 642.278,1780.23 647.869,1773.09 653.46,1765.59 659.052,1757.96 664.643,1750.28 670.234,1742.41 675.825,1734.53 681.417,1726.55 687.008,1718.53 692.599,1710.67 698.19,1702.9 703.782,1695.1 709.373,1687.27 714.964,1678.88 720.555,1670.3 726.147,1661.61 731.738,1652.78 737.329,1643.82 742.92,1634.75 748.512,1625.67 754.103,1616.48 759.694,1607.2 765.286,1597.77 770.877,1588.25 776.468,1578.63 782.059,1569.03 787.651,1559.3 793.242,1549.4 798.833,1539.39 804.424,1529.28 810.016,1519.06 815.607,1508.74 821.198,1498.34 826.789,1487.84 832.381,1477.26 837.972,1466.54 843.563,1455.7 849.155,1444.76 854.746,1433.69 860.337,1422.63 865.928,1411.49 871.52,1400.13 877.111,1388.82 882.702,1377.44 888.293,1366.03 893.885,1354.24 899.476,1342.33 905.067,1330.37 910.658,1318.18 916.25,1305.86 921.841,1293.41 927.432,1280.89 933.024,1268.18 938.615,1255.37 944.206,1242.51 949.797,1229.45 955.389,1216.37 960.98,1203.1 966.571,1189.99 972.162,1177.27 977.754,1163.83 983.345,1150.51 988.936,1137.38 994.527,1124.44 1000.12,1111.58 1005.71,1098.35 1011.3,1085.27 1016.89,1071.61 1022.48,1057.76 1028.08,1043.72 1033.67,1030.22 1039.26,1017.14 1044.85,1003.9 1050.44,990.095 1056.03,976.924 1061.62,963.834 1067.21,951.07 1072.81,939.541 1078.4,928.301 1083.99,915.255 1089.58,902.745 1095.17,891.346 1100.76,882.385 1106.35,872.29 1111.94,863.3 1117.54,852.58 1123.13,841.249 1128.72,830.362 1134.31,817.602 1139.9,805.683 1145.49,793.205 1151.08,783.886 1156.67,774.714 1162.27,763.853 1167.86,753.422 1173.45,742.625 1179.04,734.156 1184.63,724.667 1190.22,714.651 1195.81,703.436 1201.4,690.163 1207,677.64 1212.59,664.349 1218.18,650.001 1223.77,637.241 1229.36,622.138 1234.95,605.772 1240.54,589.861 1246.13,573.961 1251.73,558.612 1257.32,543.246 1262.91,527.238 1268.5,510.685 1274.09,494.048 1279.68,480.612 1285.27,466.938 1290.86,453.586 1296.46,440.334 1302.05,424.033 1307.64,407.4 1313.23,391.617 1318.82,376.053 1324.41,362.628 1330,350.838 1335.59,337.481 1341.19,325.524 1346.78,314.519 1352.37,304.55 1357.96,291.628 1363.55,279.479 1369.14,268.393 1374.73,260.505 1380.32,251.411 1385.92,246.165 1391.51,238.106 1397.1,232.303 1402.69,226.476 1408.28,220.566 1413.87,214.212 1419.46,206.364 1425.05,197.208 1430.65,191.165 1436.24,187.49 1441.83,182.487 1447.42,178.026 1453.01,173.763 1458.6,170.837 1464.19,170.895 1469.78,172.789 1475.38,177.427 1480.97,186.27 1486.56,193.301 1492.15,203.372 1497.74,213.259 1503.33,222.107 1508.92,231.174 1514.52,241.32 1520.11,253.757 1525.7,263.927 1531.29,274.207 1536.88,281.549 1542.47,289.287 1548.06,295.247 1553.65,302.665 1559.25,309.053 1564.84,313.737 1570.43,315.957 1576.02,316.287 1581.61,315.573 1587.2,318.521 1592.79,316.708 1598.38,316.18 1603.98,316.816 1609.57,313.204 1615.16,311.321 1620.75,311.33 1626.34,312.339 1631.93,312.684 1637.52,311.352 1643.11,312.657 1648.71,312.615 1654.3,312.156 1659.89,310.824 1665.48,308.323 1671.07,306.989 1676.66,306.312 1682.25,303.694 1687.84,300.906 1693.44,296.959 1699.03,295.825 1704.62,294.133 1710.21,292.039 1715.8,289.146 1721.39,286.815 1726.98,284.447 1732.57,281.448 1738.17,279.413 1743.76,278.669 1749.35,276.465 1754.94,277.681 1760.53,278.994 1766.12,281.801 1771.71,284.246 1777.3,285.659 1782.9,287.606 1788.49,288.676 1794.08,291.659 1799.67,290.862 1805.26,288.863 1810.85,282.484 1816.44,276.432 1822.03,266.668 1827.63,259.587 1833.22,253.461 1838.81,247.479 1844.4,245.523 1849.99,245.736 1855.58,244.402 1861.17,246.585 1866.76,250.018 1872.36,254.983 1877.95,261.107 1883.54,268.298 1889.13,276.227 1894.72,283.049 1900.31,291.801 1905.9,303.584 1911.49,317.357 1917.09,331.012 1922.68,345.254 1928.27,358.967 1933.86,370.517 1939.45,383.91 1945.04,397.477 1950.63,412.289 1956.23,428.184 1961.82,445.045 1967.41,460.931 1973,475.455 1978.59,487.665 1984.18,503.878 1989.77,517.036 1995.36,528.825 2000.96,542.769 2006.55,557.61 2012.14,573.501 2017.73,588.518 2023.32,599.449 2028.91,609.458 2034.5,618.4 2040.09,629.376 2045.69,642.935 2051.28,654.665 2056.87,664.438 2062.46,674.705 2068.05,684.681 2073.64,691.841 2079.23,700.356 2084.82,708.346 2090.42,716.218 2096.01,719.862 2101.6,725.513 2107.19,732.792 2112.78,738.198 2118.37,745.403 2123.96,751.545 2129.55,757.855 2135.15,764.093 2140.74,770.545 2146.33,777.76 2151.92,788.558 2157.51,801.086 2163.1,813.238 2168.69,825.063 2174.28,835.19 2179.88,847.654 2185.47,860.12 2191.06,872.477 2196.65,885.065 2202.24,897.366 2207.83,910.694 2213.42,924.433 2219.01,937.211 2224.61,948.25 2230.2,960.033 2235.79,971.858 2241.38,984.172 2246.97,996.528 2252.56,1009.62 2258.15,1022.97 2263.74,1035 2269.34,1046.87 2274.93,1060.72 2280.52,1074.58 2286.11,1088.38 2291.7,1102.22 2297.29,1116.53 2302.88,1130.87 2308.47,1145.01 2314.07,1159.03 2319.66,1172.91 2325.25,1186.66 2330.84,1200.27 2336.43,1213.55 2342.02,1226.57 2347.61,1239.09 2353.2,1251.7 2358.8,1264.01 2364.39,1276.34 2369.98,1288.85 2375.57,1301.12 2381.16,1313.44 2386.75,1325.81 2392.34,1338.01 2397.94,1350.1 2403.53,1362 2409.12,1373.55 2414.71,1384.8 2420.3,1396.05 2425.89,1407.2 2431.48,1418.33 2437.07,1429.27 2442.67,1439.97 2448.26,1450.29 2453.85,1460.33 2459.44,1470.41 2465.03,1479.74 2470.62,1489.04 2476.21,1498.02 2481.8,1506.95 2487.4,1515.89 2492.99,1524.81 2498.58,1534.08 2504.17,1543.11 2509.76,1552.01 2515.35,1560.58 2520.94,1568.38 2526.53,1576.09 2532.13,1584.27 2537.72,1592.39 2543.31,1600.67 2548.9,1609.01 2554.49,1617.21 2560.08,1625.82 2565.67,1634.37 2571.26,1643.19 2576.86,1651.43 2582.45,1659 2588.04,1666.91 2593.63,1674.61 2599.22,1682.07 2604.81,1689.38 2610.4,1696.74 2615.99,1703.95 2621.59,1711.42 2627.18,1718.88 2632.77,1726.06 2638.36,1732.7 2643.95,1739.66 2649.54,1746.8 2655.13,1753.8 2660.72,1760.9 2666.32,1767.81 2671.91,1775.32 2677.5,1782.66 2683.09,1790.24 2688.68,1797.82 2694.27,1805.22 2699.86,1812.56 2705.45,1819.67 2711.05,1826.76 2716.64,1833.5 2722.23,1840.45 2727.82,1847.42 2733.41,1854.4 2739,1861.24 2744.59,1867.75 2750.18,1874.26 2755.78,1880.43 2761.37,1886.25 2766.96,1892.14 2772.55,1897.89 2778.14,1903.88 2783.73,1910.02 2789.32,1915.79 2794.91,1920.91 2800.51,1925.41 2806.1,1930.02 2811.69,1934.7 2817.28,1938.33 2822.87,1942.45 2828.46,1947.04 2834.05,1952.2 2839.65,1957.54 2845.24,1962.4 2850.83,1967.37 2856.42,1972.66 2862.01,1978.24 2867.6,1983.91 2873.19,1989.52 2878.78,1995.12 2884.38,2000.62 2889.97,2006.09 2895.56,2011.48 2901.15,2016.88 2906.74,2022.22 2912.33,2027.51 2917.92,2032.75 2923.51,2037.93 2929.11,2043.06 2934.7,2048.12 2940.29,2053.1 2945.88,2057.98 2951.47,2062.71 2957.06,2067.19 2962.65,2071.51 2968.24,2075.71 2973.84,2079.99 2979.43,2084.45 2985.02,2088.74 2990.61,2092.82 2996.2,2096.65 3001.79,2100.9 3007.38,2105.2 3012.97,2109.21 3018.57,2113.22 3024.16,2116.93 3029.75,2120.35 3035.34,2124.01 3040.93,2127.65 3046.52,2131.46 3052.11,2135.16 3057.7,2138.69 3063.3,2142.2 3068.89,2145.67 "/>
</svg>
