<?xml version="1.0" encoding="utf-8"?>
<svg xmlns="http://www.w3.org/2000/svg" xmlns:xlink="http://www.w3.org/1999/xlink" width="800" height="600" viewBox="0 0 3200 2400">
<defs>
  <clipPath id="clip560">
    <rect x="0" y="0" width="3200" height="2400"/>
  </clipPath>
</defs>
<path clip-path="url(#clip560)" d="M0 2400 L3200 2400 L3200 0 L0 0  Z" fill="#ffffff" fill-rule="evenodd" fill-opacity="1"/>
<defs>
  <clipPath id="clip561">
    <rect x="640" y="0" width="2241" height="2241"/>
  </clipPath>
</defs>
<path clip-path="url(#clip560)" d="M219.061 2204.92 L3152.76 2204.92 L3152.76 111.592 L219.061 111.592  Z" fill="#eaeaea" fill-rule="evenodd" fill-opacity="1"/>
<defs>
  <clipPath id="clip562">
    <rect x="219" y="111" width="2935" height="2094"/>
  </clipPath>
</defs>
<polyline clip-path="url(#clip562)" style="stroke:#ffffff; stroke-linecap:round; stroke-linejoin:round; stroke-width:2; stroke-opacity:1; fill:none" points="578.854,2204.92 578.854,111.592 "/>
<polyline clip-path="url(#clip562)" style="stroke:#ffffff; stroke-linecap:round; stroke-linejoin:round; stroke-width:2; stroke-opacity:1; fill:none" points="1132.38,2204.92 1132.38,111.592 "/>
<polyline clip-path="url(#clip562)" style="stroke:#ffffff; stroke-linecap:round; stroke-linejoin:round; stroke-width:2; stroke-opacity:1; fill:none" points="1685.91,2204.92 1685.91,111.592 "/>
<polyline clip-path="url(#clip562)" style="stroke:#ffffff; stroke-linecap:round; stroke-linejoin:round; stroke-width:2; stroke-opacity:1; fill:none" points="2239.44,2204.92 2239.44,111.592 "/>
<polyline clip-path="url(#clip562)" style="stroke:#ffffff; stroke-linecap:round; stroke-linejoin:round; stroke-width:2; stroke-opacity:1; fill:none" points="2792.96,2204.92 2792.96,111.592 "/>
<polyline clip-path="url(#clip562)" style="stroke:#ffffff; stroke-linecap:round; stroke-linejoin:round; stroke-width:2; stroke-opacity:1; fill:none" points="219.061,1949.14 3152.76,1949.14 "/>
<polyline clip-path="url(#clip562)" style="stroke:#ffffff; stroke-linecap:round; stroke-linejoin:round; stroke-width:2; stroke-opacity:1; fill:none" points="219.061,1458.64 3152.76,1458.64 "/>
<polyline clip-path="url(#clip562)" style="stroke:#ffffff; stroke-linecap:round; stroke-linejoin:round; stroke-width:2; stroke-opacity:1; fill:none" points="219.061,968.138 3152.76,968.138 "/>
<polyline clip-path="url(#clip562)" style="stroke:#ffffff; stroke-linecap:round; stroke-linejoin:round; stroke-width:2; stroke-opacity:1; fill:none" points="219.061,477.637 3152.76,477.637 "/>
<polyline clip-path="url(#clip562)" style="stroke:#ffffff; stroke-linecap:round; stroke-linejoin:round; stroke-width:4; stroke-opacity:1; fill:none" points="302.09,2204.92 302.09,111.592 "/>
<polyline clip-path="url(#clip562)" style="stroke:#ffffff; stroke-linecap:round; stroke-linejoin:round; stroke-width:4; stroke-opacity:1; fill:none" points="855.617,2204.92 855.617,111.592 "/>
<polyline clip-path="url(#clip562)" style="stroke:#ffffff; stroke-linecap:round; stroke-linejoin:round; stroke-width:4; stroke-opacity:1; fill:none" points="1409.14,2204.92 1409.14,111.592 "/>
<polyline clip-path="url(#clip562)" style="stroke:#ffffff; stroke-linecap:round; stroke-linejoin:round; stroke-width:4; stroke-opacity:1; fill:none" points="1962.67,2204.92 1962.67,111.592 "/>
<polyline clip-path="url(#clip562)" style="stroke:#ffffff; stroke-linecap:round; stroke-linejoin:round; stroke-width:4; stroke-opacity:1; fill:none" points="2516.2,2204.92 2516.2,111.592 "/>
<polyline clip-path="url(#clip562)" style="stroke:#ffffff; stroke-linecap:round; stroke-linejoin:round; stroke-width:4; stroke-opacity:1; fill:none" points="3069.73,2204.92 3069.73,111.592 "/>
<polyline clip-path="url(#clip562)" style="stroke:#ffffff; stroke-linecap:round; stroke-linejoin:round; stroke-width:4; stroke-opacity:1; fill:none" points="219.061,2194.39 3152.76,2194.39 "/>
<polyline clip-path="url(#clip562)" style="stroke:#ffffff; stroke-linecap:round; stroke-linejoin:round; stroke-width:4; stroke-opacity:1; fill:none" points="219.061,1703.89 3152.76,1703.89 "/>
<polyline clip-path="url(#clip562)" style="stroke:#ffffff; stroke-linecap:round; stroke-linejoin:round; stroke-width:4; stroke-opacity:1; fill:none" points="219.061,1213.39 3152.76,1213.39 "/>
<polyline clip-path="url(#clip562)" style="stroke:#ffffff; stroke-linecap:round; stroke-linejoin:round; stroke-width:4; stroke-opacity:1; fill:none" points="219.061,722.888 3152.76,722.888 "/>
<polyline clip-path="url(#clip562)" style="stroke:#ffffff; stroke-linecap:round; stroke-linejoin:round; stroke-width:4; stroke-opacity:1; fill:none" points="219.061,232.386 3152.76,232.386 "/>
<polyline clip-path="url(#clip560)" style="stroke:#ffffff; stroke-linecap:round; stroke-linejoin:round; stroke-width:4; stroke-opacity:1; fill:none" points="219.061,2204.92 3152.76,2204.92 "/>
<polyline clip-path="url(#clip560)" style="stroke:#333333; stroke-linecap:round; stroke-linejoin:round; stroke-width:4; stroke-opacity:1; fill:none" points="302.09,2204.92 302.09,2223.82 "/>
<polyline clip-path="url(#clip560)" style="stroke:#333333; stroke-linecap:round; stroke-linejoin:round; stroke-width:4; stroke-opacity:1; fill:none" points="855.617,2204.92 855.617,2223.82 "/>
<polyline clip-path="url(#clip560)" style="stroke:#333333; stroke-linecap:round; stroke-linejoin:round; stroke-width:4; stroke-opacity:1; fill:none" points="1409.14,2204.92 1409.14,2223.82 "/>
<polyline clip-path="url(#clip560)" style="stroke:#333333; stroke-linecap:round; stroke-linejoin:round; stroke-width:4; stroke-opacity:1; fill:none" points="1962.67,2204.92 1962.67,2223.82 "/>
<polyline clip-path="url(#clip560)" style="stroke:#333333; stroke-linecap:round; stroke-linejoin:round; stroke-width:4; stroke-opacity:1; fill:none" points="2516.2,2204.92 2516.2,2223.82 "/>
<polyline clip-path="url(#clip560)" style="stroke:#333333; stroke-linecap:round; stroke-linejoin:round; stroke-width:4; stroke-opacity:1; fill:none" points="3069.73,2204.92 3069.73,2223.82 "/>
<polyline clip-path="url(#clip560)" style="stroke:#333333; stroke-linecap:round; stroke-linejoin:round; stroke-width:4; stroke-opacity:1; fill:none" points="578.854,2204.92 578.854,2214.37 "/>
<polyline clip-path="url(#clip560)" style="stroke:#333333; stroke-linecap:round; stroke-linejoin:round; stroke-width:4; stroke-opacity:1; fill:none" points="1132.38,2204.92 1132.38,2214.37 "/>
<polyline clip-path="url(#clip560)" style="stroke:#333333; stroke-linecap:round; stroke-linejoin:round; stroke-width:4; stroke-opacity:1; fill:none" points="1685.91,2204.92 1685.91,2214.37 "/>
<polyline clip-path="url(#clip560)" style="stroke:#333333; stroke-linecap:round; stroke-linejoin:round; stroke-width:4; stroke-opacity:1; fill:none" points="2239.44,2204.92 2239.44,2214.37 "/>
<polyline clip-path="url(#clip560)" style="stroke:#333333; stroke-linecap:round; stroke-linejoin:round; stroke-width:4; stroke-opacity:1; fill:none" points="2792.96,2204.92 2792.96,2214.37 "/>
<path clip-path="url(#clip560)" d="M302.09 2255.04 Q298.479 2255.04 296.65 2258.6 Q294.845 2262.14 294.845 2269.27 Q294.845 2276.38 296.65 2279.95 Q298.479 2283.49 302.09 2283.49 Q305.724 2283.49 307.53 2279.95 Q309.359 2276.38 309.359 2269.27 Q309.359 2262.14 307.53 2258.6 Q305.724 2255.04 302.09 2255.04 M302.09 2251.33 Q307.9 2251.33 310.956 2255.94 Q314.034 2260.52 314.034 2269.27 Q314.034 2278 310.956 2282.61 Q307.9 2287.19 302.09 2287.19 Q296.28 2287.19 293.201 2282.61 Q290.146 2278 290.146 2269.27 Q290.146 2260.52 293.201 2255.94 Q296.28 2251.33 302.09 2251.33 Z" fill="#4c4c4c" fill-rule="nonzero" fill-opacity="1" /><path clip-path="url(#clip560)" d="M845.999 2282.58 L853.638 2282.58 L853.638 2256.22 L845.328 2257.89 L845.328 2253.63 L853.592 2251.96 L858.268 2251.96 L858.268 2282.58 L865.907 2282.58 L865.907 2286.52 L845.999 2286.52 L845.999 2282.58 Z" fill="#4c4c4c" fill-rule="nonzero" fill-opacity="1" /><path clip-path="url(#clip560)" d="M1403.8 2282.58 L1420.12 2282.58 L1420.12 2286.52 L1398.17 2286.52 L1398.17 2282.58 Q1400.83 2279.83 1405.42 2275.2 Q1410.02 2270.55 1411.2 2269.21 Q1413.45 2266.68 1414.33 2264.95 Q1415.23 2263.19 1415.23 2261.5 Q1415.23 2258.74 1413.29 2257.01 Q1411.37 2255.27 1408.27 2255.27 Q1406.07 2255.27 1403.61 2256.03 Q1401.18 2256.8 1398.4 2258.35 L1398.4 2253.63 Q1401.23 2252.49 1403.68 2251.91 Q1406.14 2251.33 1408.17 2251.33 Q1413.54 2251.33 1416.74 2254.02 Q1419.93 2256.71 1419.93 2261.2 Q1419.93 2263.33 1419.12 2265.25 Q1418.33 2267.14 1416.23 2269.74 Q1415.65 2270.41 1412.55 2273.63 Q1409.45 2276.82 1403.8 2282.58 Z" fill="#4c4c4c" fill-rule="nonzero" fill-opacity="1" /><path clip-path="url(#clip560)" d="M1966.92 2267.89 Q1970.28 2268.6 1972.15 2270.87 Q1974.05 2273.14 1974.05 2276.47 Q1974.05 2281.59 1970.53 2284.39 Q1967.01 2287.19 1960.53 2287.19 Q1958.36 2287.19 1956.04 2286.75 Q1953.75 2286.33 1951.29 2285.48 L1951.29 2280.96 Q1953.24 2282.1 1955.55 2282.68 Q1957.87 2283.26 1960.39 2283.26 Q1964.79 2283.26 1967.08 2281.52 Q1969.4 2279.78 1969.4 2276.47 Q1969.4 2273.42 1967.24 2271.71 Q1965.11 2269.97 1961.29 2269.97 L1957.27 2269.97 L1957.27 2266.13 L1961.48 2266.13 Q1964.93 2266.13 1966.76 2264.76 Q1968.59 2263.37 1968.59 2260.78 Q1968.59 2258.12 1966.69 2256.71 Q1964.81 2255.27 1961.29 2255.27 Q1959.37 2255.27 1957.17 2255.69 Q1954.98 2256.1 1952.34 2256.98 L1952.34 2252.82 Q1955 2252.08 1957.31 2251.71 Q1959.65 2251.33 1961.71 2251.33 Q1967.04 2251.33 1970.14 2253.77 Q1973.24 2256.17 1973.24 2260.29 Q1973.24 2263.16 1971.6 2265.15 Q1969.95 2267.12 1966.92 2267.89 Z" fill="#4c4c4c" fill-rule="nonzero" fill-opacity="1" /><path clip-path="url(#clip560)" d="M2519.21 2256.03 L2507.4 2274.48 L2519.21 2274.48 L2519.21 2256.03 M2517.98 2251.96 L2523.86 2251.96 L2523.86 2274.48 L2528.79 2274.48 L2528.79 2278.37 L2523.86 2278.37 L2523.86 2286.52 L2519.21 2286.52 L2519.21 2278.37 L2503.61 2278.37 L2503.61 2273.86 L2517.98 2251.96 Z" fill="#4c4c4c" fill-rule="nonzero" fill-opacity="1" /><path clip-path="url(#clip560)" d="M3060 2251.96 L3078.36 2251.96 L3078.36 2255.9 L3064.29 2255.9 L3064.29 2264.37 Q3065.31 2264.02 3066.32 2263.86 Q3067.34 2263.67 3068.36 2263.67 Q3074.15 2263.67 3077.53 2266.84 Q3080.91 2270.02 3080.91 2275.43 Q3080.91 2281.01 3077.44 2284.11 Q3073.96 2287.19 3067.64 2287.19 Q3065.47 2287.19 3063.2 2286.82 Q3060.95 2286.45 3058.55 2285.71 L3058.55 2281.01 Q3060.63 2282.14 3062.85 2282.7 Q3065.07 2283.26 3067.55 2283.26 Q3071.56 2283.26 3073.89 2281.15 Q3076.23 2279.04 3076.23 2275.43 Q3076.23 2271.82 3073.89 2269.71 Q3071.56 2267.61 3067.55 2267.61 Q3065.68 2267.61 3063.8 2268.02 Q3061.95 2268.44 3060 2269.32 L3060 2251.96 Z" fill="#4c4c4c" fill-rule="nonzero" fill-opacity="1" /><path clip-path="url(#clip560)" d="M1684.97 2316.01 L1684.97 2326.14 L1697.03 2326.14 L1697.03 2330.69 L1684.97 2330.69 L1684.97 2350.04 Q1684.97 2354.4 1686.15 2355.64 Q1687.36 2356.88 1691.02 2356.88 L1697.03 2356.88 L1697.03 2361.78 L1691.02 2361.78 Q1684.24 2361.78 1681.66 2359.27 Q1679.08 2356.72 1679.08 2350.04 L1679.08 2330.69 L1674.78 2330.69 L1674.78 2326.14 L1679.08 2326.14 L1679.08 2316.01 L1684.97 2316.01 Z" fill="#000000" fill-rule="nonzero" fill-opacity="1" /><polyline clip-path="url(#clip560)" style="stroke:#ffffff; stroke-linecap:round; stroke-linejoin:round; stroke-width:4; stroke-opacity:1; fill:none" points="219.061,2204.92 219.061,111.592 "/>
<polyline clip-path="url(#clip560)" style="stroke:#333333; stroke-linecap:round; stroke-linejoin:round; stroke-width:4; stroke-opacity:1; fill:none" points="219.061,2194.39 200.163,2194.39 "/>
<polyline clip-path="url(#clip560)" style="stroke:#333333; stroke-linecap:round; stroke-linejoin:round; stroke-width:4; stroke-opacity:1; fill:none" points="219.061,1703.89 200.163,1703.89 "/>
<polyline clip-path="url(#clip560)" style="stroke:#333333; stroke-linecap:round; stroke-linejoin:round; stroke-width:4; stroke-opacity:1; fill:none" points="219.061,1213.39 200.163,1213.39 "/>
<polyline clip-path="url(#clip560)" style="stroke:#333333; stroke-linecap:round; stroke-linejoin:round; stroke-width:4; stroke-opacity:1; fill:none" points="219.061,722.888 200.163,722.888 "/>
<polyline clip-path="url(#clip560)" style="stroke:#333333; stroke-linecap:round; stroke-linejoin:round; stroke-width:4; stroke-opacity:1; fill:none" points="219.061,232.386 200.163,232.386 "/>
<polyline clip-path="url(#clip560)" style="stroke:#333333; stroke-linecap:round; stroke-linejoin:round; stroke-width:4; stroke-opacity:1; fill:none" points="219.061,1949.14 209.612,1949.14 "/>
<polyline clip-path="url(#clip560)" style="stroke:#333333; stroke-linecap:round; stroke-linejoin:round; stroke-width:4; stroke-opacity:1; fill:none" points="219.061,1458.64 209.612,1458.64 "/>
<polyline clip-path="url(#clip560)" style="stroke:#333333; stroke-linecap:round; stroke-linejoin:round; stroke-width:4; stroke-opacity:1; fill:none" points="219.061,968.138 209.612,968.138 "/>
<polyline clip-path="url(#clip560)" style="stroke:#333333; stroke-linecap:round; stroke-linejoin:round; stroke-width:4; stroke-opacity:1; fill:none" points="219.061,477.637 209.612,477.637 "/>
<path clip-path="url(#clip560)" d="M135.117 2180.19 Q131.506 2180.19 129.677 2183.76 Q127.871 2187.3 127.871 2194.43 Q127.871 2201.53 129.677 2205.1 Q131.506 2208.64 135.117 2208.64 Q138.751 2208.64 140.556 2205.1 Q142.385 2201.53 142.385 2194.43 Q142.385 2187.3 140.556 2183.76 Q138.751 2180.19 135.117 2180.19 M135.117 2176.49 Q140.927 2176.49 143.982 2181.09 Q147.061 2185.68 147.061 2194.43 Q147.061 2203.15 143.982 2207.76 Q140.927 2212.34 135.117 2212.34 Q129.306 2212.34 126.228 2207.76 Q123.172 2203.15 123.172 2194.43 Q123.172 2185.68 126.228 2181.09 Q129.306 2176.49 135.117 2176.49 Z" fill="#4c4c4c" fill-rule="nonzero" fill-opacity="1" /><path clip-path="url(#clip560)" d="M95.765 1717.24 L103.404 1717.24 L103.404 1690.87 L95.0937 1692.54 L95.0937 1688.28 L103.358 1686.61 L108.033 1686.61 L108.033 1717.24 L115.672 1717.24 L115.672 1721.17 L95.765 1721.17 L95.765 1717.24 Z" fill="#4c4c4c" fill-rule="nonzero" fill-opacity="1" /><path clip-path="url(#clip560)" d="M135.117 1689.69 Q131.506 1689.69 129.677 1693.25 Q127.871 1696.8 127.871 1703.93 Q127.871 1711.03 129.677 1714.6 Q131.506 1718.14 135.117 1718.14 Q138.751 1718.14 140.556 1714.6 Q142.385 1711.03 142.385 1703.93 Q142.385 1696.8 140.556 1693.25 Q138.751 1689.69 135.117 1689.69 M135.117 1685.99 Q140.927 1685.99 143.982 1690.59 Q147.061 1695.18 147.061 1703.93 Q147.061 1712.65 143.982 1717.26 Q140.927 1721.84 135.117 1721.84 Q129.306 1721.84 126.228 1717.26 Q123.172 1712.65 123.172 1703.93 Q123.172 1695.18 126.228 1690.59 Q129.306 1685.99 135.117 1685.99 Z" fill="#4c4c4c" fill-rule="nonzero" fill-opacity="1" /><path clip-path="url(#clip560)" d="M98.9825 1226.73 L115.302 1226.73 L115.302 1230.67 L93.3576 1230.67 L93.3576 1226.73 Q96.0196 1223.98 100.603 1219.35 Q105.209 1214.7 106.39 1213.35 Q108.635 1210.83 109.515 1209.1 Q110.418 1207.34 110.418 1205.65 Q110.418 1202.89 108.473 1201.16 Q106.552 1199.42 103.45 1199.42 Q101.251 1199.42 98.7973 1200.18 Q96.3668 1200.95 93.589 1202.5 L93.589 1197.78 Q96.4131 1196.64 98.8668 1196.06 Q101.32 1195.48 103.358 1195.48 Q108.728 1195.48 111.922 1198.17 Q115.117 1200.85 115.117 1205.35 Q115.117 1207.47 114.307 1209.4 Q113.519 1211.29 111.413 1213.89 Q110.834 1214.56 107.732 1217.78 Q104.631 1220.97 98.9825 1226.73 Z" fill="#4c4c4c" fill-rule="nonzero" fill-opacity="1" /><path clip-path="url(#clip560)" d="M135.117 1199.19 Q131.506 1199.19 129.677 1202.75 Q127.871 1206.29 127.871 1213.42 Q127.871 1220.53 129.677 1224.1 Q131.506 1227.64 135.117 1227.64 Q138.751 1227.64 140.556 1224.1 Q142.385 1220.53 142.385 1213.42 Q142.385 1206.29 140.556 1202.75 Q138.751 1199.19 135.117 1199.19 M135.117 1195.48 Q140.927 1195.48 143.982 1200.09 Q147.061 1204.67 147.061 1213.42 Q147.061 1222.15 143.982 1226.76 Q140.927 1231.34 135.117 1231.34 Q129.306 1231.34 126.228 1226.76 Q123.172 1222.15 123.172 1213.42 Q123.172 1204.67 126.228 1200.09 Q129.306 1195.48 135.117 1195.48 Z" fill="#4c4c4c" fill-rule="nonzero" fill-opacity="1" /><path clip-path="url(#clip560)" d="M109.121 721.533 Q112.478 722.251 114.353 724.52 Q116.251 726.788 116.251 730.121 Q116.251 735.237 112.732 738.038 Q109.214 740.839 102.733 740.839 Q100.557 740.839 98.2418 740.399 Q95.9501 739.982 93.4964 739.126 L93.4964 734.612 Q95.4409 735.746 97.7557 736.325 Q100.07 736.904 102.594 736.904 Q106.992 736.904 109.283 735.168 Q111.598 733.432 111.598 730.121 Q111.598 727.066 109.445 725.353 Q107.316 723.617 103.496 723.617 L99.4686 723.617 L99.4686 719.774 L103.682 719.774 Q107.131 719.774 108.959 718.408 Q110.788 717.02 110.788 714.427 Q110.788 711.765 108.89 710.353 Q107.015 708.918 103.496 708.918 Q101.575 708.918 99.376 709.334 Q97.177 709.751 94.5381 710.631 L94.5381 706.464 Q97.2001 705.723 99.5149 705.353 Q101.853 704.983 103.913 704.983 Q109.237 704.983 112.339 707.413 Q115.441 709.821 115.441 713.941 Q115.441 716.811 113.797 718.802 Q112.154 720.77 109.121 721.533 Z" fill="#4c4c4c" fill-rule="nonzero" fill-opacity="1" /><path clip-path="url(#clip560)" d="M135.117 708.686 Q131.506 708.686 129.677 712.251 Q127.871 715.793 127.871 722.922 Q127.871 730.029 129.677 733.594 Q131.506 737.135 135.117 737.135 Q138.751 737.135 140.556 733.594 Q142.385 730.029 142.385 722.922 Q142.385 715.793 140.556 712.251 Q138.751 708.686 135.117 708.686 M135.117 704.983 Q140.927 704.983 143.982 709.589 Q147.061 714.172 147.061 722.922 Q147.061 731.649 143.982 736.256 Q140.927 740.839 135.117 740.839 Q129.306 740.839 126.228 736.256 Q123.172 731.649 123.172 722.922 Q123.172 714.172 126.228 709.589 Q129.306 704.983 135.117 704.983 Z" fill="#4c4c4c" fill-rule="nonzero" fill-opacity="1" /><path clip-path="url(#clip560)" d="M107.802 219.18 L95.9964 237.629 L107.802 237.629 L107.802 219.18 M106.575 215.106 L112.455 215.106 L112.455 237.629 L117.385 237.629 L117.385 241.518 L112.455 241.518 L112.455 249.666 L107.802 249.666 L107.802 241.518 L92.2002 241.518 L92.2002 237.004 L106.575 215.106 Z" fill="#4c4c4c" fill-rule="nonzero" fill-opacity="1" /><path clip-path="url(#clip560)" d="M135.117 218.185 Q131.506 218.185 129.677 221.749 Q127.871 225.291 127.871 232.421 Q127.871 239.527 129.677 243.092 Q131.506 246.634 135.117 246.634 Q138.751 246.634 140.556 243.092 Q142.385 239.527 142.385 232.421 Q142.385 225.291 140.556 221.749 Q138.751 218.185 135.117 218.185 M135.117 214.481 Q140.927 214.481 143.982 219.087 Q147.061 223.671 147.061 232.421 Q147.061 241.147 143.982 245.754 Q140.927 250.337 135.117 250.337 Q129.306 250.337 126.228 245.754 Q123.172 241.147 123.172 232.421 Q123.172 223.671 126.228 219.087 Q129.306 214.481 135.117 214.481 Z" fill="#4c4c4c" fill-rule="nonzero" fill-opacity="1" /><path clip-path="url(#clip560)" d="M18.2962 1141.64 L35.6428 1154.53 L53.9442 1140.97 L53.9442 1147.88 L39.9396 1158.26 L53.9442 1168.63 L53.9442 1175.54 L35.2926 1161.69 L18.2962 1174.36 L18.2962 1167.45 L30.9958 1158 L18.2962 1148.55 L18.2962 1141.64 Z" fill="#000000" fill-rule="nonzero" fill-opacity="1" /><path clip-path="url(#clip560)" d="M628.839 20.3876 L628.839 25.4223 Q626.583 24.2649 624.152 23.6862 Q621.721 23.1075 619.117 23.1075 Q615.153 23.1075 613.157 24.3228 Q611.189 25.5381 611.189 27.9686 Q611.189 29.8204 612.607 30.891 Q614.025 31.9327 618.307 32.8876 L620.13 33.2926 Q625.801 34.5079 628.174 36.7359 Q630.576 38.935 630.576 42.8991 Q630.576 47.4129 626.988 50.046 Q623.429 52.6791 617.179 52.6791 Q614.574 52.6791 611.739 52.1583 Q608.932 51.6664 605.807 50.6537 L605.807 45.156 Q608.759 46.6896 611.623 47.4708 Q614.488 48.2231 617.294 48.2231 Q621.056 48.2231 623.081 46.95 Q625.107 45.6479 625.107 43.3042 Q625.107 41.134 623.631 39.9766 Q622.184 38.8192 617.237 37.7486 L615.385 37.3146 Q610.437 36.273 608.238 34.1318 Q606.039 31.9616 606.039 28.2001 Q606.039 23.6283 609.279 21.1399 Q612.52 18.6515 618.481 18.6515 Q621.432 18.6515 624.036 19.0855 Q626.64 19.5196 628.839 20.3876 Z" fill="#000000" fill-rule="nonzero" fill-opacity="1" /><path clip-path="url(#clip560)" d="M651.611 23.1654 Q647.329 23.1654 644.841 26.5218 Q642.352 29.8494 642.352 35.6653 Q642.352 41.4813 644.812 44.8377 Q647.3 48.1653 651.611 48.1653 Q655.865 48.1653 658.353 44.8088 Q660.842 41.4523 660.842 35.6653 Q660.842 29.9072 658.353 26.5508 Q655.865 23.1654 651.611 23.1654 M651.611 18.6515 Q658.556 18.6515 662.52 23.1654 Q666.484 27.6792 666.484 35.6653 Q666.484 43.6225 662.52 48.1653 Q658.556 52.6791 651.611 52.6791 Q644.638 52.6791 640.674 48.1653 Q636.739 43.6225 636.739 35.6653 Q636.739 27.6792 640.674 23.1654 Q644.638 18.6515 651.611 18.6515 Z" fill="#000000" fill-rule="nonzero" fill-opacity="1" /><path clip-path="url(#clip560)" d="M675.309 6.81709 L680.633 6.81709 L680.633 51.84 L675.309 51.84 L675.309 6.81709 Z" fill="#000000" fill-rule="nonzero" fill-opacity="1" /><path clip-path="url(#clip560)" d="M691.223 39.0507 L691.223 19.4328 L696.547 19.4328 L696.547 38.8482 Q696.547 43.4488 698.341 45.7636 Q700.135 48.0495 703.723 48.0495 Q708.035 48.0495 710.523 45.3007 Q713.04 42.5519 713.04 37.8065 L713.04 19.4328 L718.364 19.4328 L718.364 51.84 L713.04 51.84 L713.04 46.8632 Q711.102 49.8145 708.527 51.2613 Q705.98 52.6791 702.595 52.6791 Q697.01 52.6791 694.117 49.2069 Q691.223 45.7347 691.223 39.0507 M704.62 18.6515 L704.62 18.6515 Z" fill="#000000" fill-rule="nonzero" fill-opacity="1" /><path clip-path="url(#clip560)" d="M752.652 20.677 L752.652 25.6538 Q750.396 24.4096 748.11 23.802 Q745.853 23.1654 743.538 23.1654 Q738.359 23.1654 735.494 26.464 Q732.629 29.7336 732.629 35.6653 Q732.629 41.597 735.494 44.8956 Q738.359 48.1653 743.538 48.1653 Q745.853 48.1653 748.11 47.5576 Q750.396 46.921 752.652 45.6768 L752.652 50.5958 Q750.424 51.6375 748.023 52.1583 Q745.65 52.6791 742.959 52.6791 Q735.639 52.6791 731.327 48.0784 Q727.016 43.4778 727.016 35.6653 Q727.016 27.7371 731.356 23.1943 Q735.725 18.6515 743.306 18.6515 Q745.766 18.6515 748.11 19.1724 Q750.453 19.6642 752.652 20.677 M745.129 51.84 Q746.721 53.634 747.502 55.1386 Q748.283 56.6722 748.283 58.061 Q748.283 60.6362 746.547 61.9383 Q744.811 63.2693 741.397 63.2693 Q740.066 63.2693 738.793 63.0957 Q737.548 62.9221 736.304 62.5749 L736.304 58.7844 Q737.288 59.2763 738.359 59.4788 Q739.429 59.7103 740.789 59.7103 Q742.496 59.7103 743.364 59.0159 Q744.232 58.3214 744.232 56.9904 Q744.232 56.1224 743.596 54.8492 Q742.988 53.605 741.686 51.84 L745.129 51.84 Z" fill="#000000" fill-rule="nonzero" fill-opacity="1" /><path clip-path="url(#clip560)" d="M776.64 35.5496 Q770.187 35.5496 767.699 37.0253 Q765.21 38.501 765.21 42.06 Q765.21 44.8956 767.062 46.5738 Q768.943 48.2231 772.155 48.2231 Q776.582 48.2231 779.244 45.0981 Q781.935 41.9442 781.935 36.7359 L781.935 35.5496 L776.64 35.5496 M787.259 33.3505 L787.259 51.84 L781.935 51.84 L781.935 46.921 Q780.112 49.8724 777.392 51.2902 Q774.672 52.6791 770.737 52.6791 Q765.76 52.6791 762.809 49.9014 Q759.886 47.0947 759.886 42.4072 Q759.886 36.9385 763.532 34.1607 Q767.207 31.3829 774.469 31.3829 L781.935 31.3829 L781.935 30.8621 Q781.935 27.1874 779.504 25.1908 Q777.103 23.1654 772.733 23.1654 Q769.956 23.1654 767.323 23.8309 Q764.689 24.4964 762.259 25.8274 L762.259 20.9085 Q765.181 19.78 767.93 19.2302 Q770.679 18.6515 773.283 18.6515 Q780.314 18.6515 783.787 22.2973 Q787.259 25.9431 787.259 33.3505 M773.399 12.199 L771.75 10.6076 Q771.113 10.0289 770.621 9.76847 Q770.158 9.47912 769.782 9.47912 Q768.682 9.47912 768.162 10.5497 Q767.641 11.5914 767.583 13.964 L763.966 13.964 Q764.024 10.0578 765.5 7.94556 Q766.975 5.80437 769.608 5.80437 Q770.708 5.80437 771.634 6.20946 Q772.56 6.61455 773.63 7.5694 L775.28 9.16083 Q775.916 9.73953 776.379 10.0289 Q776.871 10.2893 777.247 10.2893 Q778.347 10.2893 778.868 9.24764 Q779.388 8.17704 779.446 5.80437 L783.063 5.80437 Q783.005 9.7106 781.53 11.8518 Q780.054 13.964 777.421 13.964 Q776.321 13.964 775.395 13.559 Q774.469 13.1539 773.399 12.199 Z" fill="#000000" fill-rule="nonzero" fill-opacity="1" /><path clip-path="url(#clip560)" d="M810.783 23.1654 Q806.501 23.1654 804.012 26.5218 Q801.524 29.8494 801.524 35.6653 Q801.524 41.4813 803.983 44.8377 Q806.472 48.1653 810.783 48.1653 Q815.036 48.1653 817.525 44.8088 Q820.013 41.4523 820.013 35.6653 Q820.013 29.9072 817.525 26.5508 Q815.036 23.1654 810.783 23.1654 M810.783 18.6515 Q817.727 18.6515 821.691 23.1654 Q825.656 27.6792 825.656 35.6653 Q825.656 43.6225 821.691 48.1653 Q817.727 52.6791 810.783 52.6791 Q803.81 52.6791 799.845 48.1653 Q795.91 43.6225 795.91 35.6653 Q795.91 27.6792 799.845 23.1654 Q803.81 18.6515 810.783 18.6515 Z" fill="#000000" fill-rule="nonzero" fill-opacity="1" /><path clip-path="url(#clip560)" d="M874.643 24.3517 L874.643 6.81709 L879.967 6.81709 L879.967 51.84 L874.643 51.84 L874.643 46.9789 Q872.964 49.8724 870.389 51.2902 Q867.843 52.6791 864.255 52.6791 Q858.381 52.6791 854.677 47.9916 Q851.003 43.3042 851.003 35.6653 Q851.003 28.0265 854.677 23.339 Q858.381 18.6515 864.255 18.6515 Q867.843 18.6515 870.389 20.0693 Q872.964 21.4582 874.643 24.3517 M856.5 35.6653 Q856.5 41.5391 858.902 44.8956 Q861.332 48.2231 865.557 48.2231 Q869.781 48.2231 872.212 44.8956 Q874.643 41.5391 874.643 35.6653 Q874.643 29.7915 872.212 26.464 Q869.781 23.1075 865.557 23.1075 Q861.332 23.1075 858.902 26.464 Q856.5 29.7915 856.5 35.6653 Z" fill="#000000" fill-rule="nonzero" fill-opacity="1" /><path clip-path="url(#clip560)" d="M905.661 35.5496 Q899.208 35.5496 896.72 37.0253 Q894.232 38.501 894.232 42.06 Q894.232 44.8956 896.083 46.5738 Q897.964 48.2231 901.176 48.2231 Q905.603 48.2231 908.265 45.0981 Q910.956 41.9442 910.956 36.7359 L910.956 35.5496 L905.661 35.5496 M916.28 33.3505 L916.28 51.84 L910.956 51.84 L910.956 46.921 Q909.133 49.8724 906.413 51.2902 Q903.693 52.6791 899.758 52.6791 Q894.781 52.6791 891.83 49.9014 Q888.908 47.0947 888.908 42.4072 Q888.908 36.9385 892.553 34.1607 Q896.228 31.3829 903.491 31.3829 L910.956 31.3829 L910.956 30.8621 Q910.956 27.1874 908.525 25.1908 Q906.124 23.1654 901.755 23.1654 Q898.977 23.1654 896.344 23.8309 Q893.711 24.4964 891.28 25.8274 L891.28 20.9085 Q894.203 19.78 896.951 19.2302 Q899.7 18.6515 902.304 18.6515 Q909.336 18.6515 912.808 22.2973 Q916.28 25.9431 916.28 33.3505 Z" fill="#000000" fill-rule="nonzero" fill-opacity="1" /><path clip-path="url(#clip560)" d="M973.803 34.3054 L973.803 36.9095 L949.324 36.9095 Q949.671 42.4072 952.622 45.3007 Q955.603 48.1653 960.898 48.1653 Q963.965 48.1653 966.83 47.4129 Q969.723 46.6606 972.559 45.156 L972.559 50.1907 Q969.694 51.406 966.685 52.0425 Q963.676 52.6791 960.58 52.6791 Q952.825 52.6791 948.282 48.1653 Q943.768 43.6514 943.768 35.9547 Q943.768 27.9975 948.051 23.339 Q952.362 18.6515 959.654 18.6515 Q966.193 18.6515 969.983 22.876 Q973.803 27.0716 973.803 34.3054 M968.479 32.7429 Q968.421 28.3737 966.019 25.7695 Q963.647 23.1654 959.712 23.1654 Q955.256 23.1654 952.565 25.6827 Q949.903 28.2001 949.497 32.7718 L968.479 32.7429 Z" fill="#000000" fill-rule="nonzero" fill-opacity="1" /><path clip-path="url(#clip560)" d="M985.724 35.6653 Q985.724 41.5391 988.126 44.8956 Q990.556 48.2231 994.781 48.2231 Q999.005 48.2231 1001.44 44.8956 Q1003.87 41.5391 1003.87 35.6653 Q1003.87 29.7915 1001.44 26.464 Q999.005 23.1075 994.781 23.1075 Q990.556 23.1075 988.126 26.464 Q985.724 29.7915 985.724 35.6653 M1003.87 46.9789 Q1002.19 49.8724 999.613 51.2902 Q997.067 52.6791 993.479 52.6791 Q987.605 52.6791 983.901 47.9916 Q980.226 43.3042 980.226 35.6653 Q980.226 28.0265 983.901 23.339 Q987.605 18.6515 993.479 18.6515 Q997.067 18.6515 999.613 20.0693 Q1002.19 21.4582 1003.87 24.3517 L1003.87 19.4328 L1009.19 19.4328 L1009.19 64.1663 L1003.87 64.1663 L1003.87 46.9789 Z" fill="#000000" fill-rule="nonzero" fill-opacity="1" /><path clip-path="url(#clip560)" d="M1019.61 39.0507 L1019.61 19.4328 L1024.93 19.4328 L1024.93 38.8482 Q1024.93 43.4488 1026.73 45.7636 Q1028.52 48.0495 1032.11 48.0495 Q1036.42 48.0495 1038.91 45.3007 Q1041.42 42.5519 1041.42 37.8065 L1041.42 19.4328 L1046.75 19.4328 L1046.75 51.84 L1041.42 51.84 L1041.42 46.8632 Q1039.49 49.8145 1036.91 51.2613 Q1034.36 52.6791 1030.98 52.6791 Q1025.39 52.6791 1022.5 49.2069 Q1019.61 45.7347 1019.61 39.0507 M1033 18.6515 L1033 18.6515 Z" fill="#000000" fill-rule="nonzero" fill-opacity="1" /><path clip-path="url(#clip560)" d="M1072.44 35.5496 Q1065.99 35.5496 1063.5 37.0253 Q1061.01 38.501 1061.01 42.06 Q1061.01 44.8956 1062.86 46.5738 Q1064.75 48.2231 1067.96 48.2231 Q1072.38 48.2231 1075.05 45.0981 Q1077.74 41.9442 1077.74 36.7359 L1077.74 35.5496 L1072.44 35.5496 M1083.06 33.3505 L1083.06 51.84 L1077.74 51.84 L1077.74 46.921 Q1075.91 49.8724 1073.19 51.2902 Q1070.47 52.6791 1066.54 52.6791 Q1061.56 52.6791 1058.61 49.9014 Q1055.69 47.0947 1055.69 42.4072 Q1055.69 36.9385 1059.33 34.1607 Q1063.01 31.3829 1070.27 31.3829 L1077.74 31.3829 L1077.74 30.8621 Q1077.74 27.1874 1075.31 25.1908 Q1072.91 23.1654 1068.54 23.1654 Q1065.76 23.1654 1063.13 23.8309 Q1060.49 24.4964 1058.06 25.8274 L1058.06 20.9085 Q1060.98 19.78 1063.73 19.2302 Q1066.48 18.6515 1069.09 18.6515 Q1076.12 18.6515 1079.59 22.2973 Q1083.06 25.9431 1083.06 33.3505 Z" fill="#000000" fill-rule="nonzero" fill-opacity="1" /><path clip-path="url(#clip560)" d="M1117.35 20.677 L1117.35 25.6538 Q1115.09 24.4096 1112.81 23.802 Q1110.55 23.1654 1108.24 23.1654 Q1103.06 23.1654 1100.19 26.464 Q1097.33 29.7336 1097.33 35.6653 Q1097.33 41.597 1100.19 44.8956 Q1103.06 48.1653 1108.24 48.1653 Q1110.55 48.1653 1112.81 47.5576 Q1115.09 46.921 1117.35 45.6768 L1117.35 50.5958 Q1115.12 51.6375 1112.72 52.1583 Q1110.35 52.6791 1107.66 52.6791 Q1100.34 52.6791 1096.02 48.0784 Q1091.71 43.4778 1091.71 35.6653 Q1091.71 27.7371 1096.05 23.1943 Q1100.42 18.6515 1108 18.6515 Q1110.46 18.6515 1112.81 19.1724 Q1115.15 19.6642 1117.35 20.677 M1109.83 51.84 Q1111.42 53.634 1112.2 55.1386 Q1112.98 56.6722 1112.98 58.061 Q1112.98 60.6362 1111.24 61.9383 Q1109.51 63.2693 1106.09 63.2693 Q1104.76 63.2693 1103.49 63.0957 Q1102.25 62.9221 1101 62.5749 L1101 58.7844 Q1101.99 59.2763 1103.06 59.4788 Q1104.13 59.7103 1105.49 59.7103 Q1107.19 59.7103 1108.06 59.0159 Q1108.93 58.3214 1108.93 56.9904 Q1108.93 56.1224 1108.29 54.8492 Q1107.69 53.605 1106.38 51.84 L1109.83 51.84 Z" fill="#000000" fill-rule="nonzero" fill-opacity="1" /><path clip-path="url(#clip560)" d="M1141.34 35.5496 Q1134.88 35.5496 1132.4 37.0253 Q1129.91 38.501 1129.91 42.06 Q1129.91 44.8956 1131.76 46.5738 Q1133.64 48.2231 1136.85 48.2231 Q1141.28 48.2231 1143.94 45.0981 Q1146.63 41.9442 1146.63 36.7359 L1146.63 35.5496 L1141.34 35.5496 M1151.96 33.3505 L1151.96 51.84 L1146.63 51.84 L1146.63 46.921 Q1144.81 49.8724 1142.09 51.2902 Q1139.37 52.6791 1135.43 52.6791 Q1130.46 52.6791 1127.51 49.9014 Q1124.58 47.0947 1124.58 42.4072 Q1124.58 36.9385 1128.23 34.1607 Q1131.9 31.3829 1139.17 31.3829 L1146.63 31.3829 L1146.63 30.8621 Q1146.63 27.1874 1144.2 25.1908 Q1141.8 23.1654 1137.43 23.1654 Q1134.65 23.1654 1132.02 23.8309 Q1129.39 24.4964 1126.96 25.8274 L1126.96 20.9085 Q1129.88 19.78 1132.63 19.2302 Q1135.38 18.6515 1137.98 18.6515 Q1145.01 18.6515 1148.48 22.2973 Q1151.96 25.9431 1151.96 33.3505 M1138.1 12.199 L1136.45 10.6076 Q1135.81 10.0289 1135.32 9.76847 Q1134.86 9.47912 1134.48 9.47912 Q1133.38 9.47912 1132.86 10.5497 Q1132.34 11.5914 1132.28 13.964 L1128.66 13.964 Q1128.72 10.0578 1130.2 7.94556 Q1131.67 5.80437 1134.31 5.80437 Q1135.41 5.80437 1136.33 6.20946 Q1137.26 6.61455 1138.33 7.5694 L1139.98 9.16083 Q1140.61 9.73953 1141.08 10.0289 Q1141.57 10.2893 1141.94 10.2893 Q1143.04 10.2893 1143.56 9.24764 Q1144.09 8.17704 1144.14 5.80437 L1147.76 5.80437 Q1147.7 9.7106 1146.23 11.8518 Q1144.75 13.964 1142.12 13.964 Q1141.02 13.964 1140.09 13.559 Q1139.17 13.1539 1138.1 12.199 Z" fill="#000000" fill-rule="nonzero" fill-opacity="1" /><path clip-path="url(#clip560)" d="M1175.48 23.1654 Q1171.2 23.1654 1168.71 26.5218 Q1166.22 29.8494 1166.22 35.6653 Q1166.22 41.4813 1168.68 44.8377 Q1171.17 48.1653 1175.48 48.1653 Q1179.73 48.1653 1182.22 44.8088 Q1184.71 41.4523 1184.71 35.6653 Q1184.71 29.9072 1182.22 26.5508 Q1179.73 23.1654 1175.48 23.1654 M1175.48 18.6515 Q1182.42 18.6515 1186.39 23.1654 Q1190.35 27.6792 1190.35 35.6653 Q1190.35 43.6225 1186.39 48.1653 Q1182.42 52.6791 1175.48 52.6791 Q1168.51 52.6791 1164.54 48.1653 Q1160.61 43.6225 1160.61 35.6653 Q1160.61 27.6792 1164.54 23.1654 Q1168.51 18.6515 1175.48 18.6515 Z" fill="#000000" fill-rule="nonzero" fill-opacity="1" /><path clip-path="url(#clip560)" d="M1239.34 24.3517 L1239.34 6.81709 L1244.66 6.81709 L1244.66 51.84 L1239.34 51.84 L1239.34 46.9789 Q1237.66 49.8724 1235.09 51.2902 Q1232.54 52.6791 1228.95 52.6791 Q1223.08 52.6791 1219.37 47.9916 Q1215.7 43.3042 1215.7 35.6653 Q1215.7 28.0265 1219.37 23.339 Q1223.08 18.6515 1228.95 18.6515 Q1232.54 18.6515 1235.09 20.0693 Q1237.66 21.4582 1239.34 24.3517 M1221.2 35.6653 Q1221.2 41.5391 1223.6 44.8956 Q1226.03 48.2231 1230.25 48.2231 Q1234.48 48.2231 1236.91 44.8956 Q1239.34 41.5391 1239.34 35.6653 Q1239.34 29.7915 1236.91 26.464 Q1234.48 23.1075 1230.25 23.1075 Q1226.03 23.1075 1223.6 26.464 Q1221.2 29.7915 1221.2 35.6653 Z" fill="#000000" fill-rule="nonzero" fill-opacity="1" /><path clip-path="url(#clip560)" d="M1255.63 19.4328 L1260.95 19.4328 L1260.95 51.84 L1255.63 51.84 L1255.63 19.4328 M1255.63 6.81709 L1260.95 6.81709 L1260.95 13.559 L1255.63 13.559 L1255.63 6.81709 Z" fill="#000000" fill-rule="nonzero" fill-opacity="1" /><path clip-path="url(#clip560)" d="M1288.5 6.81709 L1288.5 11.2442 L1283.41 11.2442 Q1280.54 11.2442 1279.41 12.4016 Q1278.32 13.559 1278.32 16.5682 L1278.32 19.4328 L1287.08 19.4328 L1287.08 23.5705 L1278.32 23.5705 L1278.32 51.84 L1272.96 51.84 L1272.96 23.5705 L1267.87 23.5705 L1267.87 19.4328 L1272.96 19.4328 L1272.96 17.1758 Q1272.96 11.765 1275.48 9.30551 Q1278 6.81709 1283.47 6.81709 L1288.5 6.81709 Z" fill="#000000" fill-rule="nonzero" fill-opacity="1" /><path clip-path="url(#clip560)" d="M1320.68 34.3054 L1320.68 36.9095 L1296.2 36.9095 Q1296.54 42.4072 1299.5 45.3007 Q1302.48 48.1653 1307.77 48.1653 Q1310.84 48.1653 1313.7 47.4129 Q1316.6 46.6606 1319.43 45.156 L1319.43 50.1907 Q1316.57 51.406 1313.56 52.0425 Q1310.55 52.6791 1307.45 52.6791 Q1299.7 52.6791 1295.16 48.1653 Q1290.64 43.6514 1290.64 35.9547 Q1290.64 27.9975 1294.92 23.339 Q1299.24 18.6515 1306.53 18.6515 Q1313.07 18.6515 1316.86 22.876 Q1320.68 27.0716 1320.68 34.3054 M1315.35 32.7429 Q1315.29 28.3737 1312.89 25.7695 Q1310.52 23.1654 1306.58 23.1654 Q1302.13 23.1654 1299.44 25.6827 Q1296.78 28.2001 1296.37 32.7718 L1315.35 32.7429 Z" fill="#000000" fill-rule="nonzero" fill-opacity="1" /><path clip-path="url(#clip560)" d="M1348.19 24.4096 Q1347.3 23.8888 1346.23 23.6573 Q1345.18 23.3969 1343.91 23.3969 Q1339.4 23.3969 1336.97 26.3482 Q1334.56 29.2707 1334.56 34.7683 L1334.56 51.84 L1329.21 51.84 L1329.21 19.4328 L1334.56 19.4328 L1334.56 24.4675 Q1336.24 21.5161 1338.93 20.0983 Q1341.62 18.6515 1345.47 18.6515 Q1346.02 18.6515 1346.69 18.7383 Q1347.35 18.7962 1348.16 18.9409 L1348.19 24.4096 Z" fill="#000000" fill-rule="nonzero" fill-opacity="1" /><path clip-path="url(#clip560)" d="M1380.2 34.3054 L1380.2 36.9095 L1355.72 36.9095 Q1356.06 42.4072 1359.01 45.3007 Q1362 48.1653 1367.29 48.1653 Q1370.36 48.1653 1373.22 47.4129 Q1376.12 46.6606 1378.95 45.156 L1378.95 50.1907 Q1376.09 51.406 1373.08 52.0425 Q1370.07 52.6791 1366.97 52.6791 Q1359.22 52.6791 1354.67 48.1653 Q1350.16 43.6514 1350.16 35.9547 Q1350.16 27.9975 1354.44 23.339 Q1358.75 18.6515 1366.05 18.6515 Q1372.59 18.6515 1376.38 22.876 Q1380.2 27.0716 1380.2 34.3054 M1374.87 32.7429 Q1374.81 28.3737 1372.41 25.7695 Q1370.04 23.1654 1366.1 23.1654 Q1361.65 23.1654 1358.96 25.6827 Q1356.3 28.2001 1355.89 32.7718 L1374.87 32.7429 Z" fill="#000000" fill-rule="nonzero" fill-opacity="1" /><path clip-path="url(#clip560)" d="M1415.87 32.2799 L1415.87 51.84 L1410.55 51.84 L1410.55 32.4535 Q1410.55 27.8529 1408.75 25.567 Q1406.96 23.2811 1403.37 23.2811 Q1399.06 23.2811 1396.57 26.03 Q1394.08 28.7788 1394.08 33.5241 L1394.08 51.84 L1388.73 51.84 L1388.73 19.4328 L1394.08 19.4328 L1394.08 24.4675 Q1395.99 21.545 1398.57 20.0983 Q1401.17 18.6515 1404.56 18.6515 Q1410.14 18.6515 1413.01 22.1237 Q1415.87 25.567 1415.87 32.2799 Z" fill="#000000" fill-rule="nonzero" fill-opacity="1" /><path clip-path="url(#clip560)" d="M1449.81 20.677 L1449.81 25.6538 Q1447.56 24.4096 1445.27 23.802 Q1443.01 23.1654 1440.7 23.1654 Q1435.52 23.1654 1432.65 26.464 Q1429.79 29.7336 1429.79 35.6653 Q1429.79 41.597 1432.65 44.8956 Q1435.52 48.1653 1440.7 48.1653 Q1443.01 48.1653 1445.27 47.5576 Q1447.56 46.921 1449.81 45.6768 L1449.81 50.5958 Q1447.59 51.6375 1445.18 52.1583 Q1442.81 52.6791 1440.12 52.6791 Q1432.8 52.6791 1428.49 48.0784 Q1424.18 43.4778 1424.18 35.6653 Q1424.18 27.7371 1428.52 23.1943 Q1432.89 18.6515 1440.47 18.6515 Q1442.93 18.6515 1445.27 19.1724 Q1447.61 19.6642 1449.81 20.677 Z" fill="#000000" fill-rule="nonzero" fill-opacity="1" /><path clip-path="url(#clip560)" d="M1459.07 19.4328 L1464.4 19.4328 L1464.4 51.84 L1459.07 51.84 L1459.07 19.4328 M1459.07 6.81709 L1464.4 6.81709 L1464.4 13.559 L1459.07 13.559 L1459.07 6.81709 Z" fill="#000000" fill-rule="nonzero" fill-opacity="1" /><path clip-path="url(#clip560)" d="M1490.26 35.5496 Q1483.81 35.5496 1481.32 37.0253 Q1478.83 38.501 1478.83 42.06 Q1478.83 44.8956 1480.69 46.5738 Q1482.57 48.2231 1485.78 48.2231 Q1490.21 48.2231 1492.87 45.0981 Q1495.56 41.9442 1495.56 36.7359 L1495.56 35.5496 L1490.26 35.5496 M1500.88 33.3505 L1500.88 51.84 L1495.56 51.84 L1495.56 46.921 Q1493.74 49.8724 1491.02 51.2902 Q1488.3 52.6791 1484.36 52.6791 Q1479.38 52.6791 1476.43 49.9014 Q1473.51 47.0947 1473.51 42.4072 Q1473.51 36.9385 1477.16 34.1607 Q1480.83 31.3829 1488.09 31.3829 L1495.56 31.3829 L1495.56 30.8621 Q1495.56 27.1874 1493.13 25.1908 Q1490.73 23.1654 1486.36 23.1654 Q1483.58 23.1654 1480.95 23.8309 Q1478.31 24.4964 1475.88 25.8274 L1475.88 20.9085 Q1478.81 19.78 1481.55 19.2302 Q1484.3 18.6515 1486.91 18.6515 Q1493.94 18.6515 1497.41 22.2973 Q1500.88 25.9431 1500.88 33.3505 Z" fill="#000000" fill-rule="nonzero" fill-opacity="1" /><path clip-path="url(#clip560)" d="M1511.85 6.81709 L1517.17 6.81709 L1517.17 51.84 L1511.85 51.84 L1511.85 6.81709 Z" fill="#000000" fill-rule="nonzero" fill-opacity="1" /><path clip-path="url(#clip560)" d="M1561.88 35.5496 Q1555.43 35.5496 1552.94 37.0253 Q1550.45 38.501 1550.45 42.06 Q1550.45 44.8956 1552.3 46.5738 Q1554.18 48.2231 1557.39 48.2231 Q1561.82 48.2231 1564.48 45.0981 Q1567.17 41.9442 1567.17 36.7359 L1567.17 35.5496 L1561.88 35.5496 M1572.5 33.3505 L1572.5 51.84 L1567.17 51.84 L1567.17 46.921 Q1565.35 49.8724 1562.63 51.2902 Q1559.91 52.6791 1555.98 52.6791 Q1551 52.6791 1548.05 49.9014 Q1545.13 47.0947 1545.13 42.4072 Q1545.13 36.9385 1548.77 34.1607 Q1552.45 31.3829 1559.71 31.3829 L1567.17 31.3829 L1567.17 30.8621 Q1567.17 27.1874 1564.74 25.1908 Q1562.34 23.1654 1557.97 23.1654 Q1555.19 23.1654 1552.56 23.8309 Q1549.93 24.4964 1547.5 25.8274 L1547.5 20.9085 Q1550.42 19.78 1553.17 19.2302 Q1555.92 18.6515 1558.52 18.6515 Q1565.55 18.6515 1569.03 22.2973 Q1572.5 25.9431 1572.5 33.3505 Z" fill="#000000" fill-rule="nonzero" fill-opacity="1" /><path clip-path="url(#clip560)" d="M1583.46 6.81709 L1588.79 6.81709 L1588.79 51.84 L1583.46 51.84 L1583.46 6.81709 Z" fill="#000000" fill-rule="nonzero" fill-opacity="1" /><path clip-path="url(#clip560)" d="M1627.65 34.3054 L1627.65 36.9095 L1603.17 36.9095 Q1603.52 42.4072 1606.47 45.3007 Q1609.45 48.1653 1614.74 48.1653 Q1617.81 48.1653 1620.67 47.4129 Q1623.57 46.6606 1626.4 45.156 L1626.4 50.1907 Q1623.54 51.406 1620.53 52.0425 Q1617.52 52.6791 1614.42 52.6791 Q1606.67 52.6791 1602.13 48.1653 Q1597.61 43.6514 1597.61 35.9547 Q1597.61 27.9975 1601.9 23.339 Q1606.21 18.6515 1613.5 18.6515 Q1620.04 18.6515 1623.83 22.876 Q1627.65 27.0716 1627.65 34.3054 M1622.32 32.7429 Q1622.27 28.3737 1619.86 25.7695 Q1617.49 23.1654 1613.56 23.1654 Q1609.1 23.1654 1606.41 25.6827 Q1603.75 28.2001 1603.34 32.7718 L1622.32 32.7429 Z" fill="#000000" fill-rule="nonzero" fill-opacity="1" /><path clip-path="url(#clip560)" d="M1651.11 35.5496 Q1644.66 35.5496 1642.17 37.0253 Q1639.68 38.501 1639.68 42.06 Q1639.68 44.8956 1641.54 46.5738 Q1643.42 48.2231 1646.63 48.2231 Q1651.06 48.2231 1653.72 45.0981 Q1656.41 41.9442 1656.41 36.7359 L1656.41 35.5496 L1651.11 35.5496 M1661.73 33.3505 L1661.73 51.84 L1656.41 51.84 L1656.41 46.921 Q1654.59 49.8724 1651.87 51.2902 Q1649.15 52.6791 1645.21 52.6791 Q1640.23 52.6791 1637.28 49.9014 Q1634.36 47.0947 1634.36 42.4072 Q1634.36 36.9385 1638.01 34.1607 Q1641.68 31.3829 1648.94 31.3829 L1656.41 31.3829 L1656.41 30.8621 Q1656.41 27.1874 1653.98 25.1908 Q1651.58 23.1654 1647.21 23.1654 Q1644.43 23.1654 1641.8 23.8309 Q1639.16 24.4964 1636.73 25.8274 L1636.73 20.9085 Q1639.66 19.78 1642.4 19.2302 Q1645.15 18.6515 1647.76 18.6515 Q1654.79 18.6515 1658.26 22.2973 Q1661.73 25.9431 1661.73 33.3505 Z" fill="#000000" fill-rule="nonzero" fill-opacity="1" /><path clip-path="url(#clip560)" d="M1677.97 10.2314 L1677.97 19.4328 L1688.93 19.4328 L1688.93 23.5705 L1677.97 23.5705 L1677.97 41.163 Q1677.97 45.1271 1679.04 46.2555 Q1680.14 47.384 1683.46 47.384 L1688.93 47.384 L1688.93 51.84 L1683.46 51.84 Q1677.3 51.84 1674.96 49.5541 Q1672.61 47.2393 1672.61 41.163 L1672.61 23.5705 L1668.71 23.5705 L1668.71 19.4328 L1672.61 19.4328 L1672.61 10.2314 L1677.97 10.2314 Z" fill="#000000" fill-rule="nonzero" fill-opacity="1" /><path clip-path="url(#clip560)" d="M1708.49 23.1654 Q1704.21 23.1654 1701.72 26.5218 Q1699.23 29.8494 1699.23 35.6653 Q1699.23 41.4813 1701.69 44.8377 Q1704.18 48.1653 1708.49 48.1653 Q1712.75 48.1653 1715.23 44.8088 Q1717.72 41.4523 1717.72 35.6653 Q1717.72 29.9072 1715.23 26.5508 Q1712.75 23.1654 1708.49 23.1654 M1708.49 18.6515 Q1715.44 18.6515 1719.4 23.1654 Q1723.36 27.6792 1723.36 35.6653 Q1723.36 43.6225 1719.4 48.1653 Q1715.44 52.6791 1708.49 52.6791 Q1701.52 52.6791 1697.55 48.1653 Q1693.62 43.6225 1693.62 35.6653 Q1693.62 27.6792 1697.55 23.1654 Q1701.52 18.6515 1708.49 18.6515 M1712.51 4.44442 L1718.27 4.44442 L1708.84 15.324 L1704.41 15.324 L1712.51 4.44442 Z" fill="#000000" fill-rule="nonzero" fill-opacity="1" /><path clip-path="url(#clip560)" d="M1750.97 24.4096 Q1750.07 23.8888 1749 23.6573 Q1747.96 23.3969 1746.69 23.3969 Q1742.17 23.3969 1739.74 26.3482 Q1737.34 29.2707 1737.34 34.7683 L1737.34 51.84 L1731.99 51.84 L1731.99 19.4328 L1737.34 19.4328 L1737.34 24.4675 Q1739.02 21.5161 1741.71 20.0983 Q1744.4 18.6515 1748.25 18.6515 Q1748.8 18.6515 1749.46 18.7383 Q1750.13 18.7962 1750.94 18.9409 L1750.97 24.4096 Z" fill="#000000" fill-rule="nonzero" fill-opacity="1" /><path clip-path="url(#clip560)" d="M1756.55 19.4328 L1761.88 19.4328 L1761.88 51.84 L1756.55 51.84 L1756.55 19.4328 M1756.55 6.81709 L1761.88 6.81709 L1761.88 13.559 L1756.55 13.559 L1756.55 6.81709 Z" fill="#000000" fill-rule="nonzero" fill-opacity="1" /><path clip-path="url(#clip560)" d="M1787.75 35.5496 Q1781.29 35.5496 1778.8 37.0253 Q1776.32 38.501 1776.32 42.06 Q1776.32 44.8956 1778.17 46.5738 Q1780.05 48.2231 1783.26 48.2231 Q1787.69 48.2231 1790.35 45.0981 Q1793.04 41.9442 1793.04 36.7359 L1793.04 35.5496 L1787.75 35.5496 M1798.36 33.3505 L1798.36 51.84 L1793.04 51.84 L1793.04 46.921 Q1791.22 49.8724 1788.5 51.2902 Q1785.78 52.6791 1781.84 52.6791 Q1776.87 52.6791 1773.91 49.9014 Q1770.99 47.0947 1770.99 42.4072 Q1770.99 36.9385 1774.64 34.1607 Q1778.31 31.3829 1785.58 31.3829 L1793.04 31.3829 L1793.04 30.8621 Q1793.04 27.1874 1790.61 25.1908 Q1788.21 23.1654 1783.84 23.1654 Q1781.06 23.1654 1778.43 23.8309 Q1775.8 24.4964 1773.36 25.8274 L1773.36 20.9085 Q1776.29 19.78 1779.04 19.2302 Q1781.78 18.6515 1784.39 18.6515 Q1791.42 18.6515 1794.89 22.2973 Q1798.36 25.9431 1798.36 33.3505 Z" fill="#000000" fill-rule="nonzero" fill-opacity="1" /><path clip-path="url(#clip560)" d="M1833.2 4.44442 L1841.36 15.2661 L1836.93 15.2661 L1827.5 4.44442 L1833.2 4.44442 Z" fill="#000000" fill-rule="nonzero" fill-opacity="1" /><path clip-path="url(#clip560)" d="M1857.25 39.0507 L1857.25 19.4328 L1862.57 19.4328 L1862.57 38.8482 Q1862.57 43.4488 1864.37 45.7636 Q1866.16 48.0495 1869.75 48.0495 Q1874.06 48.0495 1876.55 45.3007 Q1879.06 42.5519 1879.06 37.8065 L1879.06 19.4328 L1884.39 19.4328 L1884.39 51.84 L1879.06 51.84 L1879.06 46.8632 Q1877.13 49.8145 1874.55 51.2613 Q1872 52.6791 1868.62 52.6791 Q1863.03 52.6791 1860.14 49.2069 Q1857.25 45.7347 1857.25 39.0507 M1870.64 18.6515 L1870.64 18.6515 Z" fill="#000000" fill-rule="nonzero" fill-opacity="1" /><path clip-path="url(#clip560)" d="M1900.39 8.64 L1900.39 24.6989 L1895.47 24.6989 L1895.47 8.64 L1900.39 8.64 Z" fill="#000000" fill-rule="nonzero" fill-opacity="1" /><path clip-path="url(#clip560)" d="M1931.18 24.9304 L1968.27 24.9304 L1968.27 29.7915 L1931.18 29.7915 L1931.18 24.9304 M1931.18 36.7359 L1968.27 36.7359 L1968.27 41.6549 L1931.18 41.6549 L1931.18 36.7359 Z" fill="#000000" fill-rule="nonzero" fill-opacity="1" /><path clip-path="url(#clip560)" d="M2019.63 20.3876 L2019.63 25.4223 Q2017.37 24.2649 2014.94 23.6862 Q2012.51 23.1075 2009.91 23.1075 Q2005.94 23.1075 2003.95 24.3228 Q2001.98 25.5381 2001.98 27.9686 Q2001.98 29.8204 2003.4 30.891 Q2004.82 31.9327 2009.1 32.8876 L2010.92 33.2926 Q2016.59 34.5079 2018.97 36.7359 Q2021.37 38.935 2021.37 42.8991 Q2021.37 47.4129 2017.78 50.046 Q2014.22 52.6791 2007.97 52.6791 Q2005.37 52.6791 2002.53 52.1583 Q1999.72 51.6664 1996.6 50.6537 L1996.6 45.156 Q1999.55 46.6896 2002.41 47.4708 Q2005.28 48.2231 2008.09 48.2231 Q2011.85 48.2231 2013.87 46.95 Q2015.9 45.6479 2015.9 43.3042 Q2015.9 41.134 2014.42 39.9766 Q2012.98 38.8192 2008.03 37.7486 L2006.18 37.3146 Q2001.23 36.273 1999.03 34.1318 Q1996.83 31.9616 1996.83 28.2001 Q1996.83 23.6283 2000.07 21.1399 Q2003.31 18.6515 2009.27 18.6515 Q2012.22 18.6515 2014.83 19.0855 Q2017.43 19.5196 2019.63 20.3876 Z" fill="#000000" fill-rule="nonzero" fill-opacity="1" /><path clip-path="url(#clip560)" d="M2029.84 19.4328 L2035.17 19.4328 L2035.17 51.84 L2029.84 51.84 L2029.84 19.4328 M2029.84 6.81709 L2035.17 6.81709 L2035.17 13.559 L2029.84 13.559 L2029.84 6.81709 Z" fill="#000000" fill-rule="nonzero" fill-opacity="1" /><path clip-path="url(#clip560)" d="M2073.25 32.2799 L2073.25 51.84 L2067.92 51.84 L2067.92 32.4535 Q2067.92 27.8529 2066.13 25.567 Q2064.34 23.2811 2060.75 23.2811 Q2056.44 23.2811 2053.95 26.03 Q2051.46 28.7788 2051.46 33.5241 L2051.46 51.84 L2046.11 51.84 L2046.11 19.4328 L2051.46 19.4328 L2051.46 24.4675 Q2053.37 21.545 2055.94 20.0983 Q2058.55 18.6515 2061.93 18.6515 Q2067.52 18.6515 2070.38 22.1237 Q2073.25 25.567 2073.25 32.2799 Z" fill="#000000" fill-rule="nonzero" fill-opacity="1" /><path clip-path="url(#clip560)" d="M2096.66 6.87496 Q2092.78 13.53 2090.9 20.0404 Q2089.02 26.5508 2089.02 33.2348 Q2089.02 39.9188 2090.9 46.487 Q2092.81 53.0263 2096.66 59.6525 L2092.03 59.6525 Q2087.69 52.8527 2085.52 46.2845 Q2083.37 39.7162 2083.37 33.2348 Q2083.37 26.7823 2085.52 20.2429 Q2087.66 13.7036 2092.03 6.87496 L2096.66 6.87496 Z" fill="#000000" fill-rule="nonzero" fill-opacity="1" /><path clip-path="url(#clip560)" d="M2103.37 8.64 L2109.27 8.64 L2118.36 45.156 L2127.41 8.64 L2133.98 8.64 L2143.07 45.156 L2152.12 8.64 L2158.06 8.64 L2147.21 51.84 L2139.86 51.84 L2130.74 14.3402 L2121.54 51.84 L2114.19 51.84 L2103.37 8.64 Z" fill="#000000" fill-rule="nonzero" fill-opacity="1" /><path clip-path="url(#clip560)" d="M2164.74 6.87496 L2169.37 6.87496 Q2173.71 13.7036 2175.85 20.2429 Q2178.02 26.7823 2178.02 33.2348 Q2178.02 39.7162 2175.85 46.2845 Q2173.71 52.8527 2169.37 59.6525 L2164.74 59.6525 Q2168.59 53.0263 2170.47 46.487 Q2172.38 39.9188 2172.38 33.2348 Q2172.38 26.5508 2170.47 20.0404 Q2168.59 13.53 2164.74 6.87496 Z" fill="#000000" fill-rule="nonzero" fill-opacity="1" /><path clip-path="url(#clip560)" d="M2188.15 39.0507 L2188.15 19.4328 L2193.47 19.4328 L2193.47 38.8482 Q2193.47 43.4488 2195.27 45.7636 Q2197.06 48.0495 2200.65 48.0495 Q2204.96 48.0495 2207.45 45.3007 Q2209.97 42.5519 2209.97 37.8065 L2209.97 19.4328 L2215.29 19.4328 L2215.29 51.84 L2209.97 51.84 L2209.97 46.8632 Q2208.03 49.8145 2205.45 51.2613 Q2202.91 52.6791 2199.52 52.6791 Q2193.94 52.6791 2191.04 49.2069 Q2188.15 45.7347 2188.15 39.0507 M2201.55 18.6515 L2201.55 18.6515 Z" fill="#000000" fill-rule="nonzero" fill-opacity="1" /><path clip-path="url(#clip560)" d="M2231.29 4.44442 L2239.45 15.2661 L2235.02 15.2661 L2225.59 4.44442 L2231.29 4.44442 Z" fill="#000000" fill-rule="nonzero" fill-opacity="1" /><path clip-path="url(#clip560)" d="M2298.04 20.677 L2298.04 25.6538 Q2295.79 24.4096 2293.5 23.802 Q2291.24 23.1654 2288.93 23.1654 Q2283.75 23.1654 2280.88 26.464 Q2278.02 29.7336 2278.02 35.6653 Q2278.02 41.597 2280.88 44.8956 Q2283.75 48.1653 2288.93 48.1653 Q2291.24 48.1653 2293.5 47.5576 Q2295.79 46.921 2298.04 45.6768 L2298.04 50.5958 Q2295.82 51.6375 2293.41 52.1583 Q2291.04 52.6791 2288.35 52.6791 Q2281.03 52.6791 2276.72 48.0784 Q2272.41 43.4778 2272.41 35.6653 Q2272.41 27.7371 2276.75 23.1943 Q2281.12 18.6515 2288.7 18.6515 Q2291.16 18.6515 2293.5 19.1724 Q2295.84 19.6642 2298.04 20.677 Z" fill="#000000" fill-rule="nonzero" fill-opacity="1" /><path clip-path="url(#clip560)" d="M2319.86 23.1654 Q2315.58 23.1654 2313.09 26.5218 Q2310.6 29.8494 2310.6 35.6653 Q2310.6 41.4813 2313.06 44.8377 Q2315.55 48.1653 2319.86 48.1653 Q2324.11 48.1653 2326.6 44.8088 Q2329.09 41.4523 2329.09 35.6653 Q2329.09 29.9072 2326.6 26.5508 Q2324.11 23.1654 2319.86 23.1654 M2319.86 18.6515 Q2326.8 18.6515 2330.77 23.1654 Q2334.73 27.6792 2334.73 35.6653 Q2334.73 43.6225 2330.77 48.1653 Q2326.8 52.6791 2319.86 52.6791 Q2312.89 52.6791 2308.92 48.1653 Q2304.99 43.6225 2304.99 35.6653 Q2304.99 27.6792 2308.92 23.1654 Q2312.89 18.6515 2319.86 18.6515 Z" fill="#000000" fill-rule="nonzero" fill-opacity="1" /><path clip-path="url(#clip560)" d="M2368.79 25.6538 Q2370.79 22.0659 2373.56 20.3587 Q2376.34 18.6515 2380.1 18.6515 Q2385.17 18.6515 2387.92 22.2105 Q2390.66 25.7406 2390.66 32.2799 L2390.66 51.84 L2385.31 51.84 L2385.31 32.4535 Q2385.31 27.795 2383.66 25.5381 Q2382.01 23.2811 2378.63 23.2811 Q2374.49 23.2811 2372.09 26.03 Q2369.69 28.7788 2369.69 33.5241 L2369.69 51.84 L2364.33 51.84 L2364.33 32.4535 Q2364.33 27.7661 2362.68 25.5381 Q2361.04 23.2811 2357.59 23.2811 Q2353.51 23.2811 2351.11 26.0589 Q2348.71 28.8077 2348.71 33.5241 L2348.71 51.84 L2343.36 51.84 L2343.36 19.4328 L2348.71 19.4328 L2348.71 24.4675 Q2350.53 21.4872 2353.08 20.0693 Q2355.62 18.6515 2359.13 18.6515 Q2362.66 18.6515 2365.11 20.4455 Q2367.6 22.2395 2368.79 25.6538 Z" fill="#000000" fill-rule="nonzero" fill-opacity="1" /><path clip-path="url(#clip560)" d="M2425.16 4.44442 L2433.31 15.2661 L2428.89 15.2661 L2419.45 4.44442 L2425.16 4.44442 Z" fill="#000000" fill-rule="nonzero" fill-opacity="1" /><path clip-path="url(#clip560)" d="M2449.2 39.0507 L2449.2 19.4328 L2454.52 19.4328 L2454.52 38.8482 Q2454.52 43.4488 2456.32 45.7636 Q2458.11 48.0495 2461.7 48.0495 Q2466.01 48.0495 2468.5 45.3007 Q2471.02 42.5519 2471.02 37.8065 L2471.02 19.4328 L2476.34 19.4328 L2476.34 51.84 L2471.02 51.84 L2471.02 46.8632 Q2469.08 49.8145 2466.5 51.2613 Q2463.96 52.6791 2460.57 52.6791 Q2454.99 52.6791 2452.09 49.2069 Q2449.2 45.7347 2449.2 39.0507 M2462.6 18.6515 L2462.6 18.6515 Z" fill="#000000" fill-rule="nonzero" fill-opacity="1" /><path clip-path="url(#clip560)" d="M2500.1 6.87496 Q2496.22 13.53 2494.34 20.0404 Q2492.46 26.5508 2492.46 33.2348 Q2492.46 39.9188 2494.34 46.487 Q2496.25 53.0263 2500.1 59.6525 L2495.47 59.6525 Q2491.13 52.8527 2488.96 46.2845 Q2486.82 39.7162 2486.82 33.2348 Q2486.82 26.7823 2488.96 20.2429 Q2491.1 13.7036 2495.47 6.87496 L2500.1 6.87496 Z" fill="#000000" fill-rule="nonzero" fill-opacity="1" /><path clip-path="url(#clip560)" d="M2523.68 12.4884 Q2519.16 12.4884 2516.88 16.9444 Q2514.62 21.3714 2514.62 30.2834 Q2514.62 39.1665 2516.88 43.6225 Q2519.16 48.0495 2523.68 48.0495 Q2528.22 48.0495 2530.48 43.6225 Q2532.76 39.1665 2532.76 30.2834 Q2532.76 21.3714 2530.48 16.9444 Q2528.22 12.4884 2523.68 12.4884 M2523.68 7.85875 Q2530.94 7.85875 2534.76 13.6168 Q2538.61 19.346 2538.61 30.2834 Q2538.61 41.1919 2534.76 46.95 Q2530.94 52.6791 2523.68 52.6791 Q2516.42 52.6791 2512.57 46.95 Q2508.75 41.1919 2508.75 30.2834 Q2508.75 19.346 2512.57 13.6168 Q2516.42 7.85875 2523.68 7.85875 Z" fill="#000000" fill-rule="nonzero" fill-opacity="1" /><path clip-path="url(#clip560)" d="M2547.29 6.87496 L2551.92 6.87496 Q2556.26 13.7036 2558.4 20.2429 Q2560.57 26.7823 2560.57 33.2348 Q2560.57 39.7162 2558.4 46.2845 Q2556.26 52.8527 2551.92 59.6525 L2547.29 59.6525 Q2551.14 53.0263 2553.02 46.487 Q2554.93 39.9188 2554.93 33.2348 Q2554.93 26.5508 2553.02 20.0404 Q2551.14 13.53 2547.29 6.87496 Z" fill="#000000" fill-rule="nonzero" fill-opacity="1" /><path clip-path="url(#clip560)" d="M2590.78 24.9304 L2627.87 24.9304 L2627.87 29.7915 L2590.78 29.7915 L2590.78 24.9304 M2590.78 36.7359 L2627.87 36.7359 L2627.87 41.6549 L2590.78 41.6549 L2590.78 36.7359 Z" fill="#000000" fill-rule="nonzero" fill-opacity="1" /><path clip-path="url(#clip560)" d="M2660.34 46.921 L2669.89 46.921 L2669.89 13.964 L2659.5 16.0474 L2659.5 10.7233 L2669.83 8.64 L2675.67 8.64 L2675.67 46.921 L2685.22 46.921 L2685.22 51.84 L2660.34 51.84 L2660.34 46.921 Z" fill="#000000" fill-rule="nonzero" fill-opacity="1" /><path clip-path="url(#clip560)" d="M2697.03 44.4905 L2703.13 44.4905 L2703.13 51.84 L2697.03 51.84 L2697.03 44.4905 Z" fill="#000000" fill-rule="nonzero" fill-opacity="1" /><path clip-path="url(#clip560)" d="M2728.37 12.4884 Q2723.85 12.4884 2721.57 16.9444 Q2719.31 21.3714 2719.31 30.2834 Q2719.31 39.1665 2721.57 43.6225 Q2723.85 48.0495 2728.37 48.0495 Q2732.91 48.0495 2735.16 43.6225 Q2737.45 39.1665 2737.45 30.2834 Q2737.45 21.3714 2735.16 16.9444 Q2732.91 12.4884 2728.37 12.4884 M2728.37 7.85875 Q2735.63 7.85875 2739.45 13.6168 Q2743.3 19.346 2743.3 30.2834 Q2743.3 41.1919 2739.45 46.95 Q2735.63 52.6791 2728.37 52.6791 Q2721.1 52.6791 2717.25 46.95 Q2713.43 41.1919 2713.43 30.2834 Q2713.43 19.346 2717.25 13.6168 Q2721.1 7.85875 2728.37 7.85875 Z" fill="#000000" fill-rule="nonzero" fill-opacity="1" /><path clip-path="url(#clip560)" d="M2757.85 4.44442 L2766.01 15.2661 L2761.58 15.2661 L2752.15 4.44442 L2757.85 4.44442 Z" fill="#000000" fill-rule="nonzero" fill-opacity="1" /><polyline clip-path="url(#clip562)" style="stroke:#009af9; stroke-linecap:round; stroke-linejoin:round; stroke-width:4; stroke-opacity:1; fill:none" points="302.09,2145.34 307.625,2145.34 313.161,2145.3 318.696,2145.25 324.231,2145.21 329.766,2145.18 335.302,2145.18 340.837,2145.14 346.372,2145.16 351.908,2145.2 357.443,2145.2 362.978,2145.21 368.513,2145.24 374.049,2145.42 379.584,2145.56 385.119,2145.65 390.654,2145.67 396.19,2145.67 401.725,2145.62 407.26,2145.62 412.796,2145.63 418.331,2145.62 423.866,2145.57 429.401,2145.53 434.937,2145.51 440.472,2145.49 446.007,2145.39 451.542,2145.34 457.078,2145.16 462.613,2144.95 468.148,2144.75 473.684,2144.52 479.219,2144.26 484.754,2143.97 490.289,2143.66 495.825,2143.34 501.36,2143.06 506.895,2142.79 512.43,2142.47 517.966,2142.15 523.501,2141.87 529.036,2141.66 534.572,2141.46 540.107,2141.26 545.642,2141.08 551.177,2140.85 556.713,2140.57 562.248,2140.34 567.783,2140.15 573.318,2139.97 578.854,2139.73 584.389,2139.43 589.924,2139.11 595.46,2138.81 600.995,2138.62 606.53,2138.44 612.065,2138.25 617.601,2138.06 623.136,2137.92 628.671,2137.77 634.206,2137.64 639.742,2137.54 645.277,2137.53 650.812,2137.49 656.348,2137.51 661.883,2137.54 667.418,2137.55 672.953,2137.61 678.489,2137.61 684.024,2137.54 689.559,2137.43 695.094,2137.31 700.63,2137.27 706.165,2137.14 711.7,2136.97 717.236,2136.78 722.771,2136.61 728.306,2136.4 733.841,2136.12 739.377,2135.85 744.912,2135.6 750.447,2135.3 755.982,2134.98 761.518,2134.66 767.053,2134.3 772.588,2133.96 778.124,2133.62 783.659,2133.3 789.194,2132.98 794.729,2132.69 800.265,2132.33 805.8,2132.07 811.335,2131.76 816.871,2131.38 822.406,2131.01 827.941,2130.63 833.476,2130.2 839.012,2129.75 844.547,2129.28 850.082,2128.81 855.617,2128.31 861.153,2127.79 866.688,2127.32 872.223,2126.87 877.759,2126.41 883.294,2126.01 888.829,2125.62 894.364,2125.26 899.9,2124.84 905.435,2124.42 910.97,2123.99 916.505,2123.55 922.041,2123.13 927.576,2122.74 933.111,2122.29 938.647,2121.78 944.182,2121.27 949.717,2120.85 955.252,2120.46 960.788,2120.02 966.323,2119.55 971.858,2119.15 977.393,2118.7 982.929,2118.27 988.464,2117.85 993.999,2117.39 999.535,2116.97 1005.07,2116.46 1010.61,2115.97 1016.14,2115.45 1021.68,2114.93 1027.21,2114.4 1032.75,2113.93 1038.28,2113.49 1043.82,2113.1 1049.35,2112.68 1054.89,2112.14 1060.42,2111.61 1065.96,2111.05 1071.49,2110.62 1077.03,2110.16 1082.56,2109.77 1088.1,2109.5 1093.63,2109.18 1099.17,2108.83 1104.7,2108.54 1110.24,2108.12 1115.78,2107.7 1121.31,2107.17 1126.85,2106.67 1132.38,2106.22 1137.92,2105.81 1143.45,2105.36 1148.99,2104.86 1154.52,2104.21 1160.06,2103.58 1165.59,2102.99 1171.13,2102.31 1176.66,2101.67 1182.2,2100.99 1187.73,2100.33 1193.27,2099.69 1198.8,2098.92 1204.34,2098.13 1209.87,2097.39 1215.41,2096.69 1220.95,2095.99 1226.48,2095.29 1232.02,2094.64 1237.55,2093.98 1243.09,2093.29 1248.62,2092.59 1254.16,2091.85 1259.69,2091.15 1265.23,2090.39 1270.76,2089.64 1276.3,2088.8 1281.83,2087.96 1287.37,2087.04 1292.9,2086.16 1298.44,2085.24 1303.97,2084.37 1309.51,2083.46 1315.05,2082.48 1320.58,2081.46 1326.12,2080.45 1331.65,2079.44 1337.19,2078.4 1342.72,2077.28 1348.26,2076.12 1353.79,2074.97 1359.33,2073.83 1364.86,2072.7 1370.4,2071.57 1375.93,2070.38 1381.47,2069.27 1387,2068.19 1392.54,2067.14 1398.07,2066.05 1403.61,2064.92 1409.14,2063.82 1414.68,2062.66 1420.22,2061.54 1425.75,2060.41 1431.29,2059.27 1436.82,2058.2 1442.36,2057.11 1447.89,2055.89 1453.43,2054.63 1458.96,2053.42 1464.5,2052.16 1470.03,2050.95 1475.57,2049.74 1481.1,2048.47 1486.64,2047.21 1492.17,2045.93 1497.71,2044.61 1503.24,2043.21 1508.78,2041.76 1514.31,2040.27 1519.85,2038.76 1525.39,2037.22 1530.92,2035.72 1536.46,2034.29 1541.99,2032.94 1547.53,2031.54 1553.06,2030.08 1558.6,2028.67 1564.13,2027.19 1569.67,2025.61 1575.2,2024.06 1580.74,2022.37 1586.27,2020.73 1591.81,2019.07 1597.34,2017.38 1602.88,2015.7 1608.41,2014.12 1613.95,2012.52 1619.49,2011 1625.02,2009.33 1630.56,2007.68 1636.09,2005.91 1641.63,2004.1 1647.16,2002.3 1652.7,2000.57 1658.23,1998.82 1663.77,1997.1 1669.3,1995.23 1674.84,1993.3 1680.37,1991.34 1685.91,1989.35 1691.44,1987.43 1696.98,1985.4 1702.51,1983.31 1708.05,1981.2 1713.58,1979.07 1719.12,1976.93 1724.66,1974.75 1730.19,1972.56 1735.73,1970.35 1741.26,1968.18 1746.8,1966 1752.33,1963.73 1757.87,1961.44 1763.4,1959.21 1768.94,1956.96 1774.47,1954.69 1780.01,1952.35 1785.54,1949.94 1791.08,1947.5 1796.61,1945.04 1802.15,1942.55 1807.68,1940.04 1813.22,1937.51 1818.76,1934.98 1824.29,1932.4 1829.83,1929.78 1835.36,1927.16 1840.9,1924.49 1846.43,1921.8 1851.97,1919.08 1857.5,1916.33 1863.04,1913.56 1868.57,1910.75 1874.11,1907.93 1879.64,1905.09 1885.18,1902.25 1890.71,1899.58 1896.25,1896.89 1901.78,1894.29 1907.32,1891.7 1912.85,1889.32 1918.39,1886.78 1923.93,1884.14 1929.46,1881.31 1935,1878.4 1940.53,1875.32 1946.07,1872.15 1951.6,1868.94 1957.14,1865.71 1962.67,1862.51 1968.21,1859.3 1973.74,1856.04 1979.28,1852.76 1984.81,1849.63 1990.35,1846.42 1995.88,1843.19 2001.42,1839.88 2006.95,1836.49 2012.49,1833.1 2018.02,1829.73 2023.56,1826.26 2029.1,1822.95 2034.63,1819.88 2040.17,1816.84 2045.7,1813.77 2051.24,1810.52 2056.77,1807.19 2062.31,1803.68 2067.84,1800.15 2073.38,1796.5 2078.91,1793.09 2084.45,1789.8 2089.98,1786.63 2095.52,1783.61 2101.05,1780.66 2106.59,1777.38 2112.12,1774.05 2117.66,1770.66 2123.2,1767.03 2128.73,1763.45 2134.27,1759.56 2139.8,1755.77 2145.34,1752.06 2150.87,1748.58 2156.41,1744.8 2161.94,1740.97 2167.48,1737.03 2173.01,1733.45 2178.55,1730 2184.08,1726.75 2189.62,1723.21 2195.15,1719.11 2200.69,1715.15 2206.22,1710.9 2211.76,1706.83 2217.29,1702.66 2222.83,1698.61 2228.37,1694.41 2233.9,1690.37 2239.44,1686.33 2244.97,1682.17 2250.51,1678.87 2256.04,1675.22 2261.58,1670.93 2267.11,1666.55 2272.65,1662.07 2278.18,1657.25 2283.72,1652.59 2289.25,1647.66 2294.79,1642.86 2300.32,1637.76 2305.86,1632.76 2311.39,1627.63 2316.93,1622.32 2322.46,1617.01 2328,1611.82 2333.54,1606.29 2339.07,1600.44 2344.61,1594.53 2350.14,1588.57 2355.68,1582.52 2361.21,1576.42 2366.75,1570.32 2372.28,1564.23 2377.82,1558.57 2383.35,1552.55 2388.89,1546.79 2394.42,1540.82 2399.96,1534.84 2405.49,1528.85 2411.03,1523.09 2416.56,1517.55 2422.1,1511.89 2427.64,1506.21 2433.17,1500.48 2438.71,1494.7 2444.24,1488.68 2449.78,1482.48 2455.31,1475.87 2460.85,1469.06 2466.38,1461.96 2471.92,1454.69 2477.45,1447.29 2482.99,1439.84 2488.52,1432.3 2494.06,1424.73 2499.59,1417.03 2505.13,1409.26 2510.66,1401.43 2516.2,1393.5 2521.73,1385.58 2527.27,1377.52 2532.81,1369.48 2538.34,1361.24 2543.88,1352.91 2549.41,1344.65 2554.95,1336.15 2560.48,1327.63 2566.02,1319.09 2571.55,1310.51 2577.09,1301.68 2582.62,1292.86 2588.16,1283.84 2593.69,1274.74 2599.23,1265.61 2604.76,1256.33 2610.3,1247.02 2615.83,1237.61 2621.37,1228.15 2626.9,1218.53 2632.44,1208.82 2637.98,1199.07 2643.51,1189.12 2649.05,1179.07 2654.58,1168.93 2660.12,1158.77 2665.65,1148.73 2671.19,1138.39 2676.72,1127.85 2682.26,1117.2 2687.79,1106.47 2693.33,1095.59 2698.86,1084.61 2704.4,1073.61 2709.93,1062.59 2715.47,1051.86 2721,1041.66 2726.54,1031.06 2732.08,1020.46 2737.61,1009.94 2743.15,1000.51 2748.68,991.794 2754.22,982.748 2759.75,973.959 2765.29,964.234 2770.82,955.214 2776.36,945.761 2781.89,936.642 2787.43,927.182 2792.96,917.429 2798.5,907.667 2804.03,896.733 2809.57,885.84 2815.1,874.95 2820.64,863.846 2826.17,852.037 2831.71,839.414 2837.25,826.514 2842.78,813.401 2848.32,800.16 2853.85,786.773 2859.39,772.847 2864.92,759.125 2870.46,744.86 2875.99,730.376 2881.53,715.737 2887.06,701.073 2892.6,686.148 2898.13,671.156 2903.67,656.161 2909.2,640.792 2914.74,625.304 2920.27,609.668 2925.81,594.206 2931.34,578.685 2936.88,563.393 2942.42,547.726 2947.95,531.707 2953.49,515.804 2959.02,499.547 2964.56,482.834 2970.09,465.944 2975.63,449.072 2981.16,431.975 2986.7,414.351 2992.23,396.606 2997.77,379.606 3003.3,362.928 3008.84,346.322 3014.37,328.445 3019.91,310.443 3025.44,292.918 3030.98,274.372 3036.52,257.537 3042.05,242.723 3047.59,229.018 3053.12,215.4 3058.66,199.984 3064.19,184.571 3069.73,170.837 "/>
</svg>
