<?xml version="1.0" encoding="utf-8"?>
<svg xmlns="http://www.w3.org/2000/svg" xmlns:xlink="http://www.w3.org/1999/xlink" width="800" height="600" viewBox="0 0 3200 2400">
<defs>
  <clipPath id="clip680">
    <rect x="0" y="0" width="3200" height="2400"/>
  </clipPath>
</defs>
<path clip-path="url(#clip680)" d="M0 2400 L3200 2400 L3200 0 L0 0  Z" fill="#ffffff" fill-rule="evenodd" fill-opacity="1"/>
<defs>
  <clipPath id="clip681">
    <rect x="640" y="0" width="2241" height="2241"/>
  </clipPath>
</defs>
<path clip-path="url(#clip680)" d="M232.973 2204.92 L3152.76 2204.92 L3152.76 111.592 L232.973 111.592  Z" fill="#eaeaea" fill-rule="evenodd" fill-opacity="1"/>
<defs>
  <clipPath id="clip682">
    <rect x="232" y="111" width="2921" height="2094"/>
  </clipPath>
</defs>
<polyline clip-path="url(#clip682)" style="stroke:#ffffff; stroke-linecap:round; stroke-linejoin:round; stroke-width:2; stroke-opacity:1; fill:none" points="591.06,2204.92 591.06,111.592 "/>
<polyline clip-path="url(#clip682)" style="stroke:#ffffff; stroke-linecap:round; stroke-linejoin:round; stroke-width:2; stroke-opacity:1; fill:none" points="1141.96,2204.92 1141.96,111.592 "/>
<polyline clip-path="url(#clip682)" style="stroke:#ffffff; stroke-linecap:round; stroke-linejoin:round; stroke-width:2; stroke-opacity:1; fill:none" points="1692.86,2204.92 1692.86,111.592 "/>
<polyline clip-path="url(#clip682)" style="stroke:#ffffff; stroke-linecap:round; stroke-linejoin:round; stroke-width:2; stroke-opacity:1; fill:none" points="2243.77,2204.92 2243.77,111.592 "/>
<polyline clip-path="url(#clip682)" style="stroke:#ffffff; stroke-linecap:round; stroke-linejoin:round; stroke-width:2; stroke-opacity:1; fill:none" points="2794.67,2204.92 2794.67,111.592 "/>
<polyline clip-path="url(#clip682)" style="stroke:#ffffff; stroke-linecap:round; stroke-linejoin:round; stroke-width:2; stroke-opacity:1; fill:none" points="232.973,2030.15 3152.76,2030.15 "/>
<polyline clip-path="url(#clip682)" style="stroke:#ffffff; stroke-linecap:round; stroke-linejoin:round; stroke-width:2; stroke-opacity:1; fill:none" points="232.973,1590.41 3152.76,1590.41 "/>
<polyline clip-path="url(#clip682)" style="stroke:#ffffff; stroke-linecap:round; stroke-linejoin:round; stroke-width:2; stroke-opacity:1; fill:none" points="232.973,1150.66 3152.76,1150.66 "/>
<polyline clip-path="url(#clip682)" style="stroke:#ffffff; stroke-linecap:round; stroke-linejoin:round; stroke-width:2; stroke-opacity:1; fill:none" points="232.973,710.922 3152.76,710.922 "/>
<polyline clip-path="url(#clip682)" style="stroke:#ffffff; stroke-linecap:round; stroke-linejoin:round; stroke-width:2; stroke-opacity:1; fill:none" points="232.973,271.18 3152.76,271.18 "/>
<polyline clip-path="url(#clip682)" style="stroke:#ffffff; stroke-linecap:round; stroke-linejoin:round; stroke-width:4; stroke-opacity:1; fill:none" points="315.608,2204.92 315.608,111.592 "/>
<polyline clip-path="url(#clip682)" style="stroke:#ffffff; stroke-linecap:round; stroke-linejoin:round; stroke-width:4; stroke-opacity:1; fill:none" points="866.511,2204.92 866.511,111.592 "/>
<polyline clip-path="url(#clip682)" style="stroke:#ffffff; stroke-linecap:round; stroke-linejoin:round; stroke-width:4; stroke-opacity:1; fill:none" points="1417.41,2204.92 1417.41,111.592 "/>
<polyline clip-path="url(#clip682)" style="stroke:#ffffff; stroke-linecap:round; stroke-linejoin:round; stroke-width:4; stroke-opacity:1; fill:none" points="1968.32,2204.92 1968.32,111.592 "/>
<polyline clip-path="url(#clip682)" style="stroke:#ffffff; stroke-linecap:round; stroke-linejoin:round; stroke-width:4; stroke-opacity:1; fill:none" points="2519.22,2204.92 2519.22,111.592 "/>
<polyline clip-path="url(#clip682)" style="stroke:#ffffff; stroke-linecap:round; stroke-linejoin:round; stroke-width:4; stroke-opacity:1; fill:none" points="3070.12,2204.92 3070.12,111.592 "/>
<polyline clip-path="url(#clip682)" style="stroke:#ffffff; stroke-linecap:round; stroke-linejoin:round; stroke-width:4; stroke-opacity:1; fill:none" points="232.973,1810.28 3152.76,1810.28 "/>
<polyline clip-path="url(#clip682)" style="stroke:#ffffff; stroke-linecap:round; stroke-linejoin:round; stroke-width:4; stroke-opacity:1; fill:none" points="232.973,1370.54 3152.76,1370.54 "/>
<polyline clip-path="url(#clip682)" style="stroke:#ffffff; stroke-linecap:round; stroke-linejoin:round; stroke-width:4; stroke-opacity:1; fill:none" points="232.973,930.793 3152.76,930.793 "/>
<polyline clip-path="url(#clip682)" style="stroke:#ffffff; stroke-linecap:round; stroke-linejoin:round; stroke-width:4; stroke-opacity:1; fill:none" points="232.973,491.051 3152.76,491.051 "/>
<polyline clip-path="url(#clip680)" style="stroke:#ffffff; stroke-linecap:round; stroke-linejoin:round; stroke-width:4; stroke-opacity:1; fill:none" points="232.973,2204.92 3152.76,2204.92 "/>
<polyline clip-path="url(#clip680)" style="stroke:#333333; stroke-linecap:round; stroke-linejoin:round; stroke-width:4; stroke-opacity:1; fill:none" points="315.608,2204.92 315.608,2223.82 "/>
<polyline clip-path="url(#clip680)" style="stroke:#333333; stroke-linecap:round; stroke-linejoin:round; stroke-width:4; stroke-opacity:1; fill:none" points="866.511,2204.92 866.511,2223.82 "/>
<polyline clip-path="url(#clip680)" style="stroke:#333333; stroke-linecap:round; stroke-linejoin:round; stroke-width:4; stroke-opacity:1; fill:none" points="1417.41,2204.92 1417.41,2223.82 "/>
<polyline clip-path="url(#clip680)" style="stroke:#333333; stroke-linecap:round; stroke-linejoin:round; stroke-width:4; stroke-opacity:1; fill:none" points="1968.32,2204.92 1968.32,2223.82 "/>
<polyline clip-path="url(#clip680)" style="stroke:#333333; stroke-linecap:round; stroke-linejoin:round; stroke-width:4; stroke-opacity:1; fill:none" points="2519.22,2204.92 2519.22,2223.82 "/>
<polyline clip-path="url(#clip680)" style="stroke:#333333; stroke-linecap:round; stroke-linejoin:round; stroke-width:4; stroke-opacity:1; fill:none" points="3070.12,2204.92 3070.12,2223.82 "/>
<polyline clip-path="url(#clip680)" style="stroke:#333333; stroke-linecap:round; stroke-linejoin:round; stroke-width:4; stroke-opacity:1; fill:none" points="591.06,2204.92 591.06,2214.37 "/>
<polyline clip-path="url(#clip680)" style="stroke:#333333; stroke-linecap:round; stroke-linejoin:round; stroke-width:4; stroke-opacity:1; fill:none" points="1141.96,2204.92 1141.96,2214.37 "/>
<polyline clip-path="url(#clip680)" style="stroke:#333333; stroke-linecap:round; stroke-linejoin:round; stroke-width:4; stroke-opacity:1; fill:none" points="1692.86,2204.92 1692.86,2214.37 "/>
<polyline clip-path="url(#clip680)" style="stroke:#333333; stroke-linecap:round; stroke-linejoin:round; stroke-width:4; stroke-opacity:1; fill:none" points="2243.77,2204.92 2243.77,2214.37 "/>
<polyline clip-path="url(#clip680)" style="stroke:#333333; stroke-linecap:round; stroke-linejoin:round; stroke-width:4; stroke-opacity:1; fill:none" points="2794.67,2204.92 2794.67,2214.37 "/>
<path clip-path="url(#clip680)" d="M315.608 2255.04 Q311.997 2255.04 310.169 2258.6 Q308.363 2262.14 308.363 2269.27 Q308.363 2276.38 310.169 2279.95 Q311.997 2283.49 315.608 2283.49 Q319.243 2283.49 321.048 2279.95 Q322.877 2276.38 322.877 2269.27 Q322.877 2262.14 321.048 2258.6 Q319.243 2255.04 315.608 2255.04 M315.608 2251.33 Q321.418 2251.33 324.474 2255.94 Q327.553 2260.52 327.553 2269.27 Q327.553 2278 324.474 2282.61 Q321.418 2287.19 315.608 2287.19 Q309.798 2287.19 306.719 2282.61 Q303.664 2278 303.664 2269.27 Q303.664 2260.52 306.719 2255.94 Q309.798 2251.33 315.608 2251.33 Z" fill="#4c4c4c" fill-rule="nonzero" fill-opacity="1" /><path clip-path="url(#clip680)" d="M856.893 2282.58 L864.532 2282.58 L864.532 2256.22 L856.221 2257.89 L856.221 2253.63 L864.485 2251.96 L869.161 2251.96 L869.161 2282.58 L876.8 2282.58 L876.8 2286.52 L856.893 2286.52 L856.893 2282.58 Z" fill="#4c4c4c" fill-rule="nonzero" fill-opacity="1" /><path clip-path="url(#clip680)" d="M1412.07 2282.58 L1428.39 2282.58 L1428.39 2286.52 L1406.44 2286.52 L1406.44 2282.58 Q1409.1 2279.83 1413.69 2275.2 Q1418.29 2270.55 1419.47 2269.21 Q1421.72 2266.68 1422.6 2264.95 Q1423.5 2263.19 1423.5 2261.5 Q1423.5 2258.74 1421.56 2257.01 Q1419.64 2255.27 1416.53 2255.27 Q1414.33 2255.27 1411.88 2256.03 Q1409.45 2256.8 1406.67 2258.35 L1406.67 2253.63 Q1409.5 2252.49 1411.95 2251.91 Q1414.4 2251.33 1416.44 2251.33 Q1421.81 2251.33 1425.01 2254.02 Q1428.2 2256.71 1428.2 2261.2 Q1428.2 2263.33 1427.39 2265.25 Q1426.6 2267.14 1424.5 2269.74 Q1423.92 2270.41 1420.82 2273.63 Q1417.71 2276.82 1412.07 2282.58 Z" fill="#4c4c4c" fill-rule="nonzero" fill-opacity="1" /><path clip-path="url(#clip680)" d="M1972.56 2267.89 Q1975.92 2268.6 1977.79 2270.87 Q1979.69 2273.14 1979.69 2276.47 Q1979.69 2281.59 1976.17 2284.39 Q1972.66 2287.19 1966.17 2287.19 Q1964 2287.19 1961.68 2286.75 Q1959.39 2286.33 1956.94 2285.48 L1956.94 2280.96 Q1958.88 2282.1 1961.2 2282.68 Q1963.51 2283.26 1966.04 2283.26 Q1970.43 2283.26 1972.73 2281.52 Q1975.04 2279.78 1975.04 2276.47 Q1975.04 2273.42 1972.89 2271.71 Q1970.76 2269.97 1966.94 2269.97 L1962.91 2269.97 L1962.91 2266.13 L1967.12 2266.13 Q1970.57 2266.13 1972.4 2264.76 Q1974.23 2263.37 1974.23 2260.78 Q1974.23 2258.12 1972.33 2256.71 Q1970.46 2255.27 1966.94 2255.27 Q1965.02 2255.27 1962.82 2255.69 Q1960.62 2256.1 1957.98 2256.98 L1957.98 2252.82 Q1960.64 2252.08 1962.96 2251.71 Q1965.29 2251.33 1967.36 2251.33 Q1972.68 2251.33 1975.78 2253.77 Q1978.88 2256.17 1978.88 2260.29 Q1978.88 2263.16 1977.24 2265.15 Q1975.6 2267.12 1972.56 2267.89 Z" fill="#4c4c4c" fill-rule="nonzero" fill-opacity="1" /><path clip-path="url(#clip680)" d="M2522.23 2256.03 L2510.42 2274.48 L2522.23 2274.48 L2522.23 2256.03 M2521 2251.96 L2526.88 2251.96 L2526.88 2274.48 L2531.81 2274.48 L2531.81 2278.37 L2526.88 2278.37 L2526.88 2286.52 L2522.23 2286.52 L2522.23 2278.37 L2506.63 2278.37 L2506.63 2273.86 L2521 2251.96 Z" fill="#4c4c4c" fill-rule="nonzero" fill-opacity="1" /><path clip-path="url(#clip680)" d="M3060.4 2251.96 L3078.75 2251.96 L3078.75 2255.9 L3064.68 2255.9 L3064.68 2264.37 Q3065.7 2264.02 3066.72 2263.86 Q3067.74 2263.67 3068.75 2263.67 Q3074.54 2263.67 3077.92 2266.84 Q3081.3 2270.02 3081.3 2275.43 Q3081.3 2281.01 3077.83 2284.11 Q3074.36 2287.19 3068.04 2287.19 Q3065.86 2287.19 3063.59 2286.82 Q3061.35 2286.45 3058.94 2285.71 L3058.94 2281.01 Q3061.02 2282.14 3063.25 2282.7 Q3065.47 2283.26 3067.94 2283.26 Q3071.95 2283.26 3074.29 2281.15 Q3076.63 2279.04 3076.63 2275.43 Q3076.63 2271.82 3074.29 2269.71 Q3071.95 2267.61 3067.94 2267.61 Q3066.07 2267.61 3064.19 2268.02 Q3062.34 2268.44 3060.4 2269.32 L3060.4 2251.96 Z" fill="#4c4c4c" fill-rule="nonzero" fill-opacity="1" /><path clip-path="url(#clip680)" d="M1691.93 2316.01 L1691.93 2326.14 L1703.99 2326.14 L1703.99 2330.69 L1691.93 2330.69 L1691.93 2350.04 Q1691.93 2354.4 1693.1 2355.64 Q1694.31 2356.88 1697.97 2356.88 L1703.99 2356.88 L1703.99 2361.78 L1697.97 2361.78 Q1691.19 2361.78 1688.62 2359.27 Q1686.04 2356.72 1686.04 2350.04 L1686.04 2330.69 L1681.74 2330.69 L1681.74 2326.14 L1686.04 2326.14 L1686.04 2316.01 L1691.93 2316.01 Z" fill="#000000" fill-rule="nonzero" fill-opacity="1" /><polyline clip-path="url(#clip680)" style="stroke:#ffffff; stroke-linecap:round; stroke-linejoin:round; stroke-width:4; stroke-opacity:1; fill:none" points="232.973,2204.92 232.973,111.592 "/>
<polyline clip-path="url(#clip680)" style="stroke:#333333; stroke-linecap:round; stroke-linejoin:round; stroke-width:4; stroke-opacity:1; fill:none" points="232.973,1810.28 214.075,1810.28 "/>
<polyline clip-path="url(#clip680)" style="stroke:#333333; stroke-linecap:round; stroke-linejoin:round; stroke-width:4; stroke-opacity:1; fill:none" points="232.973,1370.54 214.075,1370.54 "/>
<polyline clip-path="url(#clip680)" style="stroke:#333333; stroke-linecap:round; stroke-linejoin:round; stroke-width:4; stroke-opacity:1; fill:none" points="232.973,930.793 214.075,930.793 "/>
<polyline clip-path="url(#clip680)" style="stroke:#333333; stroke-linecap:round; stroke-linejoin:round; stroke-width:4; stroke-opacity:1; fill:none" points="232.973,491.051 214.075,491.051 "/>
<polyline clip-path="url(#clip680)" style="stroke:#333333; stroke-linecap:round; stroke-linejoin:round; stroke-width:4; stroke-opacity:1; fill:none" points="232.973,2030.15 223.524,2030.15 "/>
<polyline clip-path="url(#clip680)" style="stroke:#333333; stroke-linecap:round; stroke-linejoin:round; stroke-width:4; stroke-opacity:1; fill:none" points="232.973,1590.41 223.524,1590.41 "/>
<polyline clip-path="url(#clip680)" style="stroke:#333333; stroke-linecap:round; stroke-linejoin:round; stroke-width:4; stroke-opacity:1; fill:none" points="232.973,1150.66 223.524,1150.66 "/>
<polyline clip-path="url(#clip680)" style="stroke:#333333; stroke-linecap:round; stroke-linejoin:round; stroke-width:4; stroke-opacity:1; fill:none" points="232.973,710.922 223.524,710.922 "/>
<polyline clip-path="url(#clip680)" style="stroke:#333333; stroke-linecap:round; stroke-linejoin:round; stroke-width:4; stroke-opacity:1; fill:none" points="232.973,271.18 223.524,271.18 "/>
<path clip-path="url(#clip680)" d="M94.6076 1823.62 L102.246 1823.62 L102.246 1797.26 L93.9363 1798.92 L93.9363 1794.66 L102.2 1793 L106.876 1793 L106.876 1823.62 L114.515 1823.62 L114.515 1827.56 L94.6076 1827.56 L94.6076 1823.62 Z" fill="#4c4c4c" fill-rule="nonzero" fill-opacity="1" /><path clip-path="url(#clip680)" d="M123.959 1821.68 L128.843 1821.68 L128.843 1827.56 L123.959 1827.56 L123.959 1821.68 Z" fill="#4c4c4c" fill-rule="nonzero" fill-opacity="1" /><path clip-path="url(#clip680)" d="M149.029 1796.08 Q145.417 1796.08 143.589 1799.64 Q141.783 1803.18 141.783 1810.31 Q141.783 1817.42 143.589 1820.98 Q145.417 1824.52 149.029 1824.52 Q152.663 1824.52 154.468 1820.98 Q156.297 1817.42 156.297 1810.31 Q156.297 1803.18 154.468 1799.64 Q152.663 1796.08 149.029 1796.08 M149.029 1792.37 Q154.839 1792.37 157.894 1796.98 Q160.973 1801.56 160.973 1810.31 Q160.973 1819.04 157.894 1823.65 Q154.839 1828.23 149.029 1828.23 Q143.218 1828.23 140.14 1823.65 Q137.084 1819.04 137.084 1810.31 Q137.084 1801.56 140.14 1796.98 Q143.218 1792.37 149.029 1792.37 Z" fill="#4c4c4c" fill-rule="nonzero" fill-opacity="1" /><path clip-path="url(#clip680)" d="M95.6029 1383.88 L103.242 1383.88 L103.242 1357.51 L94.9316 1359.18 L94.9316 1354.92 L103.195 1353.26 L107.871 1353.26 L107.871 1383.88 L115.51 1383.88 L115.51 1387.82 L95.6029 1387.82 L95.6029 1383.88 Z" fill="#4c4c4c" fill-rule="nonzero" fill-opacity="1" /><path clip-path="url(#clip680)" d="M124.955 1381.94 L129.839 1381.94 L129.839 1387.82 L124.955 1387.82 L124.955 1381.94 Z" fill="#4c4c4c" fill-rule="nonzero" fill-opacity="1" /><path clip-path="url(#clip680)" d="M140.07 1353.26 L158.427 1353.26 L158.427 1357.19 L144.353 1357.19 L144.353 1365.66 Q145.371 1365.32 146.39 1365.15 Q147.408 1364.97 148.427 1364.97 Q154.214 1364.97 157.593 1368.14 Q160.973 1371.31 160.973 1376.73 Q160.973 1382.31 157.501 1385.41 Q154.029 1388.49 147.709 1388.49 Q145.533 1388.49 143.265 1388.12 Q141.019 1387.75 138.612 1387 L138.612 1382.31 Q140.695 1383.44 142.917 1384 Q145.14 1384.55 147.617 1384.55 Q151.621 1384.55 153.959 1382.44 Q156.297 1380.34 156.297 1376.73 Q156.297 1373.12 153.959 1371.01 Q151.621 1368.9 147.617 1368.9 Q145.742 1368.9 143.867 1369.32 Q142.015 1369.74 140.07 1370.62 L140.07 1353.26 Z" fill="#4c4c4c" fill-rule="nonzero" fill-opacity="1" /><path clip-path="url(#clip680)" d="M97.8251 944.138 L114.144 944.138 L114.144 948.073 L92.2002 948.073 L92.2002 944.138 Q94.8622 941.383 99.4455 936.754 Q104.052 932.101 105.232 930.758 Q107.478 928.235 108.357 926.499 Q109.26 924.74 109.26 923.05 Q109.26 920.295 107.316 918.559 Q105.395 916.823 102.293 916.823 Q100.094 916.823 97.6399 917.587 Q95.2094 918.351 92.4316 919.902 L92.4316 915.18 Q95.2557 914.045 97.7094 913.467 Q100.163 912.888 102.2 912.888 Q107.57 912.888 110.765 915.573 Q113.959 918.258 113.959 922.749 Q113.959 924.879 113.149 926.8 Q112.362 928.698 110.256 931.291 Q109.677 931.962 106.575 935.179 Q103.473 938.374 97.8251 944.138 Z" fill="#4c4c4c" fill-rule="nonzero" fill-opacity="1" /><path clip-path="url(#clip680)" d="M123.959 942.193 L128.843 942.193 L128.843 948.073 L123.959 948.073 L123.959 942.193 Z" fill="#4c4c4c" fill-rule="nonzero" fill-opacity="1" /><path clip-path="url(#clip680)" d="M149.029 916.592 Q145.417 916.592 143.589 920.156 Q141.783 923.698 141.783 930.828 Q141.783 937.934 143.589 941.499 Q145.417 945.041 149.029 945.041 Q152.663 945.041 154.468 941.499 Q156.297 937.934 156.297 930.828 Q156.297 923.698 154.468 920.156 Q152.663 916.592 149.029 916.592 M149.029 912.888 Q154.839 912.888 157.894 917.494 Q160.973 922.078 160.973 930.828 Q160.973 939.554 157.894 944.161 Q154.839 948.744 149.029 948.744 Q143.218 948.744 140.14 944.161 Q137.084 939.554 137.084 930.828 Q137.084 922.078 140.14 917.494 Q143.218 912.888 149.029 912.888 Z" fill="#4c4c4c" fill-rule="nonzero" fill-opacity="1" /><path clip-path="url(#clip680)" d="M98.8205 504.396 L115.14 504.396 L115.14 508.331 L93.1955 508.331 L93.1955 504.396 Q95.8575 501.641 100.441 497.011 Q105.047 492.359 106.228 491.016 Q108.473 488.493 109.353 486.757 Q110.256 484.998 110.256 483.308 Q110.256 480.553 108.311 478.817 Q106.39 477.081 103.288 477.081 Q101.089 477.081 98.6353 477.845 Q96.2048 478.609 93.427 480.16 L93.427 475.437 Q96.2511 474.303 98.7048 473.725 Q101.158 473.146 103.195 473.146 Q108.566 473.146 111.76 475.831 Q114.955 478.516 114.955 483.007 Q114.955 485.136 114.144 487.058 Q113.357 488.956 111.251 491.548 Q110.672 492.22 107.57 495.437 Q104.469 498.632 98.8205 504.396 Z" fill="#4c4c4c" fill-rule="nonzero" fill-opacity="1" /><path clip-path="url(#clip680)" d="M124.955 502.451 L129.839 502.451 L129.839 508.331 L124.955 508.331 L124.955 502.451 Z" fill="#4c4c4c" fill-rule="nonzero" fill-opacity="1" /><path clip-path="url(#clip680)" d="M140.07 473.771 L158.427 473.771 L158.427 477.706 L144.353 477.706 L144.353 486.178 Q145.371 485.831 146.39 485.669 Q147.408 485.484 148.427 485.484 Q154.214 485.484 157.593 488.655 Q160.973 491.826 160.973 497.243 Q160.973 502.822 157.501 505.923 Q154.029 509.002 147.709 509.002 Q145.533 509.002 143.265 508.632 Q141.019 508.261 138.612 507.521 L138.612 502.822 Q140.695 503.956 142.917 504.511 Q145.14 505.067 147.617 505.067 Q151.621 505.067 153.959 502.96 Q156.297 500.854 156.297 497.243 Q156.297 493.632 153.959 491.525 Q151.621 489.419 147.617 489.419 Q145.742 489.419 143.867 489.836 Q142.015 490.252 140.07 491.132 L140.07 473.771 Z" fill="#4c4c4c" fill-rule="nonzero" fill-opacity="1" /><path clip-path="url(#clip680)" d="M18.2962 1141.64 L35.6428 1154.53 L53.9442 1140.97 L53.9442 1147.88 L39.9396 1158.26 L53.9442 1168.63 L53.9442 1175.54 L35.2926 1161.69 L18.2962 1174.36 L18.2962 1167.45 L30.9958 1158 L18.2962 1148.55 L18.2962 1141.64 Z" fill="#000000" fill-rule="nonzero" fill-opacity="1" /><path clip-path="url(#clip680)" d="M635.795 20.3876 L635.795 25.4223 Q633.539 24.2649 631.108 23.6862 Q628.677 23.1075 626.073 23.1075 Q622.109 23.1075 620.113 24.3228 Q618.145 25.5381 618.145 27.9686 Q618.145 29.8204 619.563 30.891 Q620.981 31.9327 625.263 32.8876 L627.086 33.2926 Q632.757 34.5079 635.13 36.7359 Q637.532 38.935 637.532 42.8991 Q637.532 47.4129 633.944 50.046 Q630.385 52.6791 624.135 52.6791 Q621.53 52.6791 618.695 52.1583 Q615.888 51.6664 612.763 50.6537 L612.763 45.156 Q615.715 46.6896 618.579 47.4708 Q621.444 48.2231 624.25 48.2231 Q628.012 48.2231 630.037 46.95 Q632.063 45.6479 632.063 43.3042 Q632.063 41.134 630.587 39.9766 Q629.14 38.8192 624.192 37.7486 L622.341 37.3146 Q617.393 36.273 615.194 34.1318 Q612.995 31.9616 612.995 28.2001 Q612.995 23.6283 616.235 21.1399 Q619.476 18.6515 625.437 18.6515 Q628.388 18.6515 630.992 19.0855 Q633.596 19.5196 635.795 20.3876 Z" fill="#000000" fill-rule="nonzero" fill-opacity="1" /><path clip-path="url(#clip680)" d="M658.567 23.1654 Q654.285 23.1654 651.797 26.5218 Q649.308 29.8494 649.308 35.6653 Q649.308 41.4813 651.768 44.8377 Q654.256 48.1653 658.567 48.1653 Q662.821 48.1653 665.309 44.8088 Q667.798 41.4523 667.798 35.6653 Q667.798 29.9072 665.309 26.5508 Q662.821 23.1654 658.567 23.1654 M658.567 18.6515 Q665.512 18.6515 669.476 23.1654 Q673.44 27.6792 673.44 35.6653 Q673.44 43.6225 669.476 48.1653 Q665.512 52.6791 658.567 52.6791 Q651.594 52.6791 647.63 48.1653 Q643.695 43.6225 643.695 35.6653 Q643.695 27.6792 647.63 23.1654 Q651.594 18.6515 658.567 18.6515 Z" fill="#000000" fill-rule="nonzero" fill-opacity="1" /><path clip-path="url(#clip680)" d="M682.265 6.81709 L687.589 6.81709 L687.589 51.84 L682.265 51.84 L682.265 6.81709 Z" fill="#000000" fill-rule="nonzero" fill-opacity="1" /><path clip-path="url(#clip680)" d="M698.179 39.0507 L698.179 19.4328 L703.503 19.4328 L703.503 38.8482 Q703.503 43.4488 705.297 45.7636 Q707.091 48.0495 710.679 48.0495 Q714.991 48.0495 717.479 45.3007 Q719.996 42.5519 719.996 37.8065 L719.996 19.4328 L725.32 19.4328 L725.32 51.84 L719.996 51.84 L719.996 46.8632 Q718.058 49.8145 715.483 51.2613 Q712.936 52.6791 709.551 52.6791 Q703.966 52.6791 701.073 49.2069 Q698.179 45.7347 698.179 39.0507 M711.576 18.6515 L711.576 18.6515 Z" fill="#000000" fill-rule="nonzero" fill-opacity="1" /><path clip-path="url(#clip680)" d="M759.608 20.677 L759.608 25.6538 Q757.351 24.4096 755.066 23.802 Q752.809 23.1654 750.494 23.1654 Q745.315 23.1654 742.45 26.464 Q739.585 29.7336 739.585 35.6653 Q739.585 41.597 742.45 44.8956 Q745.315 48.1653 750.494 48.1653 Q752.809 48.1653 755.066 47.5576 Q757.351 46.921 759.608 45.6768 L759.608 50.5958 Q757.38 51.6375 754.979 52.1583 Q752.606 52.6791 749.915 52.6791 Q742.595 52.6791 738.283 48.0784 Q733.972 43.4778 733.972 35.6653 Q733.972 27.7371 738.312 23.1943 Q742.681 18.6515 750.262 18.6515 Q752.722 18.6515 755.066 19.1724 Q757.409 19.6642 759.608 20.677 M752.085 51.84 Q753.677 53.634 754.458 55.1386 Q755.239 56.6722 755.239 58.061 Q755.239 60.6362 753.503 61.9383 Q751.767 63.2693 748.353 63.2693 Q747.022 63.2693 745.749 63.0957 Q744.504 62.9221 743.26 62.5749 L743.26 58.7844 Q744.244 59.2763 745.315 59.4788 Q746.385 59.7103 747.745 59.7103 Q749.452 59.7103 750.32 59.0159 Q751.188 58.3214 751.188 56.9904 Q751.188 56.1224 750.552 54.8492 Q749.944 53.605 748.642 51.84 L752.085 51.84 Z" fill="#000000" fill-rule="nonzero" fill-opacity="1" /><path clip-path="url(#clip680)" d="M783.596 35.5496 Q777.143 35.5496 774.655 37.0253 Q772.166 38.501 772.166 42.06 Q772.166 44.8956 774.018 46.5738 Q775.899 48.2231 779.111 48.2231 Q783.538 48.2231 786.2 45.0981 Q788.891 41.9442 788.891 36.7359 L788.891 35.5496 L783.596 35.5496 M794.215 33.3505 L794.215 51.84 L788.891 51.84 L788.891 46.921 Q787.068 49.8724 784.348 51.2902 Q781.628 52.6791 777.693 52.6791 Q772.716 52.6791 769.765 49.9014 Q766.842 47.0947 766.842 42.4072 Q766.842 36.9385 770.488 34.1607 Q774.163 31.3829 781.425 31.3829 L788.891 31.3829 L788.891 30.8621 Q788.891 27.1874 786.46 25.1908 Q784.059 23.1654 779.689 23.1654 Q776.912 23.1654 774.278 23.8309 Q771.645 24.4964 769.215 25.8274 L769.215 20.9085 Q772.137 19.78 774.886 19.2302 Q777.635 18.6515 780.239 18.6515 Q787.27 18.6515 790.743 22.2973 Q794.215 25.9431 794.215 33.3505 M780.355 12.199 L778.706 10.6076 Q778.069 10.0289 777.577 9.76847 Q777.114 9.47912 776.738 9.47912 Q775.638 9.47912 775.118 10.5497 Q774.597 11.5914 774.539 13.964 L770.922 13.964 Q770.98 10.0578 772.456 7.94556 Q773.931 5.80437 776.564 5.80437 Q777.664 5.80437 778.59 6.20946 Q779.516 6.61455 780.586 7.5694 L782.236 9.16083 Q782.872 9.73953 783.335 10.0289 Q783.827 10.2893 784.203 10.2893 Q785.303 10.2893 785.824 9.24764 Q786.344 8.17704 786.402 5.80437 L790.019 5.80437 Q789.961 9.7106 788.486 11.8518 Q787.01 13.964 784.377 13.964 Q783.277 13.964 782.351 13.559 Q781.425 13.1539 780.355 12.199 Z" fill="#000000" fill-rule="nonzero" fill-opacity="1" /><path clip-path="url(#clip680)" d="M817.739 23.1654 Q813.457 23.1654 810.968 26.5218 Q808.48 29.8494 808.48 35.6653 Q808.48 41.4813 810.939 44.8377 Q813.428 48.1653 817.739 48.1653 Q821.992 48.1653 824.481 44.8088 Q826.969 41.4523 826.969 35.6653 Q826.969 29.9072 824.481 26.5508 Q821.992 23.1654 817.739 23.1654 M817.739 18.6515 Q824.683 18.6515 828.647 23.1654 Q832.612 27.6792 832.612 35.6653 Q832.612 43.6225 828.647 48.1653 Q824.683 52.6791 817.739 52.6791 Q810.766 52.6791 806.801 48.1653 Q802.866 43.6225 802.866 35.6653 Q802.866 27.6792 806.801 23.1654 Q810.766 18.6515 817.739 18.6515 Z" fill="#000000" fill-rule="nonzero" fill-opacity="1" /><path clip-path="url(#clip680)" d="M881.599 24.3517 L881.599 6.81709 L886.923 6.81709 L886.923 51.84 L881.599 51.84 L881.599 46.9789 Q879.92 49.8724 877.345 51.2902 Q874.799 52.6791 871.211 52.6791 Q865.337 52.6791 861.633 47.9916 Q857.959 43.3042 857.959 35.6653 Q857.959 28.0265 861.633 23.339 Q865.337 18.6515 871.211 18.6515 Q874.799 18.6515 877.345 20.0693 Q879.92 21.4582 881.599 24.3517 M863.456 35.6653 Q863.456 41.5391 865.858 44.8956 Q868.288 48.2231 872.513 48.2231 Q876.737 48.2231 879.168 44.8956 Q881.599 41.5391 881.599 35.6653 Q881.599 29.7915 879.168 26.464 Q876.737 23.1075 872.513 23.1075 Q868.288 23.1075 865.858 26.464 Q863.456 29.7915 863.456 35.6653 Z" fill="#000000" fill-rule="nonzero" fill-opacity="1" /><path clip-path="url(#clip680)" d="M912.617 35.5496 Q906.164 35.5496 903.676 37.0253 Q901.188 38.501 901.188 42.06 Q901.188 44.8956 903.039 46.5738 Q904.92 48.2231 908.132 48.2231 Q912.559 48.2231 915.221 45.0981 Q917.912 41.9442 917.912 36.7359 L917.912 35.5496 L912.617 35.5496 M923.236 33.3505 L923.236 51.84 L917.912 51.84 L917.912 46.921 Q916.089 49.8724 913.369 51.2902 Q910.649 52.6791 906.714 52.6791 Q901.737 52.6791 898.786 49.9014 Q895.863 47.0947 895.863 42.4072 Q895.863 36.9385 899.509 34.1607 Q903.184 31.3829 910.447 31.3829 L917.912 31.3829 L917.912 30.8621 Q917.912 27.1874 915.481 25.1908 Q913.08 23.1654 908.711 23.1654 Q905.933 23.1654 903.3 23.8309 Q900.667 24.4964 898.236 25.8274 L898.236 20.9085 Q901.159 19.78 903.907 19.2302 Q906.656 18.6515 909.26 18.6515 Q916.292 18.6515 919.764 22.2973 Q923.236 25.9431 923.236 33.3505 Z" fill="#000000" fill-rule="nonzero" fill-opacity="1" /><path clip-path="url(#clip680)" d="M980.759 34.3054 L980.759 36.9095 L956.28 36.9095 Q956.627 42.4072 959.578 45.3007 Q962.559 48.1653 967.854 48.1653 Q970.921 48.1653 973.786 47.4129 Q976.679 46.6606 979.515 45.156 L979.515 50.1907 Q976.65 51.406 973.641 52.0425 Q970.632 52.6791 967.536 52.6791 Q959.781 52.6791 955.238 48.1653 Q950.724 43.6514 950.724 35.9547 Q950.724 27.9975 955.007 23.339 Q959.318 18.6515 966.61 18.6515 Q973.149 18.6515 976.939 22.876 Q980.759 27.0716 980.759 34.3054 M975.435 32.7429 Q975.377 28.3737 972.975 25.7695 Q970.603 23.1654 966.668 23.1654 Q962.212 23.1654 959.521 25.6827 Q956.859 28.2001 956.453 32.7718 L975.435 32.7429 Z" fill="#000000" fill-rule="nonzero" fill-opacity="1" /><path clip-path="url(#clip680)" d="M992.68 35.6653 Q992.68 41.5391 995.082 44.8956 Q997.512 48.2231 1001.74 48.2231 Q1005.96 48.2231 1008.39 44.8956 Q1010.82 41.5391 1010.82 35.6653 Q1010.82 29.7915 1008.39 26.464 Q1005.96 23.1075 1001.74 23.1075 Q997.512 23.1075 995.082 26.464 Q992.68 29.7915 992.68 35.6653 M1010.82 46.9789 Q1009.14 49.8724 1006.57 51.2902 Q1004.02 52.6791 1000.43 52.6791 Q994.561 52.6791 990.857 47.9916 Q987.182 43.3042 987.182 35.6653 Q987.182 28.0265 990.857 23.339 Q994.561 18.6515 1000.43 18.6515 Q1004.02 18.6515 1006.57 20.0693 Q1009.14 21.4582 1010.82 24.3517 L1010.82 19.4328 L1016.15 19.4328 L1016.15 64.1663 L1010.82 64.1663 L1010.82 46.9789 Z" fill="#000000" fill-rule="nonzero" fill-opacity="1" /><path clip-path="url(#clip680)" d="M1026.56 39.0507 L1026.56 19.4328 L1031.89 19.4328 L1031.89 38.8482 Q1031.89 43.4488 1033.68 45.7636 Q1035.48 48.0495 1039.06 48.0495 Q1043.37 48.0495 1045.86 45.3007 Q1048.38 42.5519 1048.38 37.8065 L1048.38 19.4328 L1053.7 19.4328 L1053.7 51.84 L1048.38 51.84 L1048.38 46.8632 Q1046.44 49.8145 1043.87 51.2613 Q1041.32 52.6791 1037.93 52.6791 Q1032.35 52.6791 1029.46 49.2069 Q1026.56 45.7347 1026.56 39.0507 M1039.96 18.6515 L1039.96 18.6515 Z" fill="#000000" fill-rule="nonzero" fill-opacity="1" /><path clip-path="url(#clip680)" d="M1079.4 35.5496 Q1072.95 35.5496 1070.46 37.0253 Q1067.97 38.501 1067.97 42.06 Q1067.97 44.8956 1069.82 46.5738 Q1071.7 48.2231 1074.91 48.2231 Q1079.34 48.2231 1082 45.0981 Q1084.69 41.9442 1084.69 36.7359 L1084.69 35.5496 L1079.4 35.5496 M1090.02 33.3505 L1090.02 51.84 L1084.69 51.84 L1084.69 46.921 Q1082.87 49.8724 1080.15 51.2902 Q1077.43 52.6791 1073.5 52.6791 Q1068.52 52.6791 1065.57 49.9014 Q1062.64 47.0947 1062.64 42.4072 Q1062.64 36.9385 1066.29 34.1607 Q1069.97 31.3829 1077.23 31.3829 L1084.69 31.3829 L1084.69 30.8621 Q1084.69 27.1874 1082.26 25.1908 Q1079.86 23.1654 1075.49 23.1654 Q1072.71 23.1654 1070.08 23.8309 Q1067.45 24.4964 1065.02 25.8274 L1065.02 20.9085 Q1067.94 19.78 1070.69 19.2302 Q1073.44 18.6515 1076.04 18.6515 Q1083.07 18.6515 1086.55 22.2973 Q1090.02 25.9431 1090.02 33.3505 Z" fill="#000000" fill-rule="nonzero" fill-opacity="1" /><path clip-path="url(#clip680)" d="M1124.31 20.677 L1124.31 25.6538 Q1122.05 24.4096 1119.76 23.802 Q1117.51 23.1654 1115.19 23.1654 Q1110.01 23.1654 1107.15 26.464 Q1104.28 29.7336 1104.28 35.6653 Q1104.28 41.597 1107.15 44.8956 Q1110.01 48.1653 1115.19 48.1653 Q1117.51 48.1653 1119.76 47.5576 Q1122.05 46.921 1124.31 45.6768 L1124.31 50.5958 Q1122.08 51.6375 1119.68 52.1583 Q1117.3 52.6791 1114.61 52.6791 Q1107.29 52.6791 1102.98 48.0784 Q1098.67 43.4778 1098.67 35.6653 Q1098.67 27.7371 1103.01 23.1943 Q1107.38 18.6515 1114.96 18.6515 Q1117.42 18.6515 1119.76 19.1724 Q1122.11 19.6642 1124.31 20.677 M1116.78 51.84 Q1118.37 53.634 1119.16 55.1386 Q1119.94 56.6722 1119.94 58.061 Q1119.94 60.6362 1118.2 61.9383 Q1116.46 63.2693 1113.05 63.2693 Q1111.72 63.2693 1110.45 63.0957 Q1109.2 62.9221 1107.96 62.5749 L1107.96 58.7844 Q1108.94 59.2763 1110.01 59.4788 Q1111.08 59.7103 1112.44 59.7103 Q1114.15 59.7103 1115.02 59.0159 Q1115.89 58.3214 1115.89 56.9904 Q1115.89 56.1224 1115.25 54.8492 Q1114.64 53.605 1113.34 51.84 L1116.78 51.84 Z" fill="#000000" fill-rule="nonzero" fill-opacity="1" /><path clip-path="url(#clip680)" d="M1148.29 35.5496 Q1141.84 35.5496 1139.35 37.0253 Q1136.86 38.501 1136.86 42.06 Q1136.86 44.8956 1138.72 46.5738 Q1140.6 48.2231 1143.81 48.2231 Q1148.23 48.2231 1150.9 45.0981 Q1153.59 41.9442 1153.59 36.7359 L1153.59 35.5496 L1148.29 35.5496 M1158.91 33.3505 L1158.91 51.84 L1153.59 51.84 L1153.59 46.921 Q1151.76 49.8724 1149.04 51.2902 Q1146.33 52.6791 1142.39 52.6791 Q1137.41 52.6791 1134.46 49.9014 Q1131.54 47.0947 1131.54 42.4072 Q1131.54 36.9385 1135.19 34.1607 Q1138.86 31.3829 1146.12 31.3829 L1153.59 31.3829 L1153.59 30.8621 Q1153.59 27.1874 1151.16 25.1908 Q1148.76 23.1654 1144.39 23.1654 Q1141.61 23.1654 1138.98 23.8309 Q1136.34 24.4964 1133.91 25.8274 L1133.91 20.9085 Q1136.83 19.78 1139.58 19.2302 Q1142.33 18.6515 1144.94 18.6515 Q1151.97 18.6515 1155.44 22.2973 Q1158.91 25.9431 1158.91 33.3505 M1145.05 12.199 L1143.4 10.6076 Q1142.77 10.0289 1142.27 9.76847 Q1141.81 9.47912 1141.44 9.47912 Q1140.34 9.47912 1139.81 10.5497 Q1139.29 11.5914 1139.24 13.964 L1135.62 13.964 Q1135.68 10.0578 1137.15 7.94556 Q1138.63 5.80437 1141.26 5.80437 Q1142.36 5.80437 1143.29 6.20946 Q1144.21 6.61455 1145.28 7.5694 L1146.93 9.16083 Q1147.57 9.73953 1148.03 10.0289 Q1148.52 10.2893 1148.9 10.2893 Q1150 10.2893 1150.52 9.24764 Q1151.04 8.17704 1151.1 5.80437 L1154.72 5.80437 Q1154.66 9.7106 1153.18 11.8518 Q1151.71 13.964 1149.07 13.964 Q1147.97 13.964 1147.05 13.559 Q1146.12 13.1539 1145.05 12.199 Z" fill="#000000" fill-rule="nonzero" fill-opacity="1" /><path clip-path="url(#clip680)" d="M1182.44 23.1654 Q1178.15 23.1654 1175.67 26.5218 Q1173.18 29.8494 1173.18 35.6653 Q1173.18 41.4813 1175.64 44.8377 Q1178.12 48.1653 1182.44 48.1653 Q1186.69 48.1653 1189.18 44.8088 Q1191.67 41.4523 1191.67 35.6653 Q1191.67 29.9072 1189.18 26.5508 Q1186.69 23.1654 1182.44 23.1654 M1182.44 18.6515 Q1189.38 18.6515 1193.34 23.1654 Q1197.31 27.6792 1197.31 35.6653 Q1197.31 43.6225 1193.34 48.1653 Q1189.38 52.6791 1182.44 52.6791 Q1175.46 52.6791 1171.5 48.1653 Q1167.56 43.6225 1167.56 35.6653 Q1167.56 27.6792 1171.5 23.1654 Q1175.46 18.6515 1182.44 18.6515 Z" fill="#000000" fill-rule="nonzero" fill-opacity="1" /><path clip-path="url(#clip680)" d="M1246.3 24.3517 L1246.3 6.81709 L1251.62 6.81709 L1251.62 51.84 L1246.3 51.84 L1246.3 46.9789 Q1244.62 49.8724 1242.04 51.2902 Q1239.5 52.6791 1235.91 52.6791 Q1230.03 52.6791 1226.33 47.9916 Q1222.66 43.3042 1222.66 35.6653 Q1222.66 28.0265 1226.33 23.339 Q1230.03 18.6515 1235.91 18.6515 Q1239.5 18.6515 1242.04 20.0693 Q1244.62 21.4582 1246.3 24.3517 M1228.15 35.6653 Q1228.15 41.5391 1230.55 44.8956 Q1232.99 48.2231 1237.21 48.2231 Q1241.43 48.2231 1243.87 44.8956 Q1246.3 41.5391 1246.3 35.6653 Q1246.3 29.7915 1243.87 26.464 Q1241.43 23.1075 1237.21 23.1075 Q1232.99 23.1075 1230.55 26.464 Q1228.15 29.7915 1228.15 35.6653 Z" fill="#000000" fill-rule="nonzero" fill-opacity="1" /><path clip-path="url(#clip680)" d="M1262.59 19.4328 L1267.91 19.4328 L1267.91 51.84 L1262.59 51.84 L1262.59 19.4328 M1262.59 6.81709 L1267.91 6.81709 L1267.91 13.559 L1262.59 13.559 L1262.59 6.81709 Z" fill="#000000" fill-rule="nonzero" fill-opacity="1" /><path clip-path="url(#clip680)" d="M1295.46 6.81709 L1295.46 11.2442 L1290.36 11.2442 Q1287.5 11.2442 1286.37 12.4016 Q1285.27 13.559 1285.27 16.5682 L1285.27 19.4328 L1294.04 19.4328 L1294.04 23.5705 L1285.27 23.5705 L1285.27 51.84 L1279.92 51.84 L1279.92 23.5705 L1274.83 23.5705 L1274.83 19.4328 L1279.92 19.4328 L1279.92 17.1758 Q1279.92 11.765 1282.44 9.30551 Q1284.95 6.81709 1290.42 6.81709 L1295.46 6.81709 Z" fill="#000000" fill-rule="nonzero" fill-opacity="1" /><path clip-path="url(#clip680)" d="M1327.63 34.3054 L1327.63 36.9095 L1303.15 36.9095 Q1303.5 42.4072 1306.45 45.3007 Q1309.43 48.1653 1314.73 48.1653 Q1317.79 48.1653 1320.66 47.4129 Q1323.55 46.6606 1326.39 45.156 L1326.39 50.1907 Q1323.52 51.406 1320.51 52.0425 Q1317.5 52.6791 1314.41 52.6791 Q1306.65 52.6791 1302.11 48.1653 Q1297.6 43.6514 1297.6 35.9547 Q1297.6 27.9975 1301.88 23.339 Q1306.19 18.6515 1313.48 18.6515 Q1320.02 18.6515 1323.81 22.876 Q1327.63 27.0716 1327.63 34.3054 M1322.31 32.7429 Q1322.25 28.3737 1319.85 25.7695 Q1317.48 23.1654 1313.54 23.1654 Q1309.08 23.1654 1306.39 25.6827 Q1303.73 28.2001 1303.33 32.7718 L1322.31 32.7429 Z" fill="#000000" fill-rule="nonzero" fill-opacity="1" /><path clip-path="url(#clip680)" d="M1355.15 24.4096 Q1354.25 23.8888 1353.18 23.6573 Q1352.14 23.3969 1350.87 23.3969 Q1346.35 23.3969 1343.92 26.3482 Q1341.52 29.2707 1341.52 34.7683 L1341.52 51.84 L1336.17 51.84 L1336.17 19.4328 L1341.52 19.4328 L1341.52 24.4675 Q1343.2 21.5161 1345.89 20.0983 Q1348.58 18.6515 1352.43 18.6515 Q1352.98 18.6515 1353.64 18.7383 Q1354.31 18.7962 1355.12 18.9409 L1355.15 24.4096 Z" fill="#000000" fill-rule="nonzero" fill-opacity="1" /><path clip-path="url(#clip680)" d="M1387.15 34.3054 L1387.15 36.9095 L1362.67 36.9095 Q1363.02 42.4072 1365.97 45.3007 Q1368.95 48.1653 1374.25 48.1653 Q1377.31 48.1653 1380.18 47.4129 Q1383.07 46.6606 1385.91 45.156 L1385.91 50.1907 Q1383.04 51.406 1380.03 52.0425 Q1377.02 52.6791 1373.93 52.6791 Q1366.17 52.6791 1361.63 48.1653 Q1357.12 43.6514 1357.12 35.9547 Q1357.12 27.9975 1361.4 23.339 Q1365.71 18.6515 1373 18.6515 Q1379.54 18.6515 1383.33 22.876 Q1387.15 27.0716 1387.15 34.3054 M1381.83 32.7429 Q1381.77 28.3737 1379.37 25.7695 Q1377 23.1654 1373.06 23.1654 Q1368.6 23.1654 1365.91 25.6827 Q1363.25 28.2001 1362.85 32.7718 L1381.83 32.7429 Z" fill="#000000" fill-rule="nonzero" fill-opacity="1" /><path clip-path="url(#clip680)" d="M1422.83 32.2799 L1422.83 51.84 L1417.5 51.84 L1417.5 32.4535 Q1417.5 27.8529 1415.71 25.567 Q1413.92 23.2811 1410.33 23.2811 Q1406.02 23.2811 1403.53 26.03 Q1401.04 28.7788 1401.04 33.5241 L1401.04 51.84 L1395.69 51.84 L1395.69 19.4328 L1401.04 19.4328 L1401.04 24.4675 Q1402.95 21.545 1405.53 20.0983 Q1408.13 18.6515 1411.51 18.6515 Q1417.1 18.6515 1419.96 22.1237 Q1422.83 25.567 1422.83 32.2799 Z" fill="#000000" fill-rule="nonzero" fill-opacity="1" /><path clip-path="url(#clip680)" d="M1456.77 20.677 L1456.77 25.6538 Q1454.51 24.4096 1452.23 23.802 Q1449.97 23.1654 1447.65 23.1654 Q1442.48 23.1654 1439.61 26.464 Q1436.75 29.7336 1436.75 35.6653 Q1436.75 41.597 1439.61 44.8956 Q1442.48 48.1653 1447.65 48.1653 Q1449.97 48.1653 1452.23 47.5576 Q1454.51 46.921 1456.77 45.6768 L1456.77 50.5958 Q1454.54 51.6375 1452.14 52.1583 Q1449.77 52.6791 1447.08 52.6791 Q1439.76 52.6791 1435.44 48.0784 Q1431.13 43.4778 1431.13 35.6653 Q1431.13 27.7371 1435.47 23.1943 Q1439.84 18.6515 1447.42 18.6515 Q1449.88 18.6515 1452.23 19.1724 Q1454.57 19.6642 1456.77 20.677 Z" fill="#000000" fill-rule="nonzero" fill-opacity="1" /><path clip-path="url(#clip680)" d="M1466.03 19.4328 L1471.35 19.4328 L1471.35 51.84 L1466.03 51.84 L1466.03 19.4328 M1466.03 6.81709 L1471.35 6.81709 L1471.35 13.559 L1466.03 13.559 L1466.03 6.81709 Z" fill="#000000" fill-rule="nonzero" fill-opacity="1" /><path clip-path="url(#clip680)" d="M1497.22 35.5496 Q1490.77 35.5496 1488.28 37.0253 Q1485.79 38.501 1485.79 42.06 Q1485.79 44.8956 1487.64 46.5738 Q1489.52 48.2231 1492.74 48.2231 Q1497.16 48.2231 1499.82 45.0981 Q1502.52 41.9442 1502.52 36.7359 L1502.52 35.5496 L1497.22 35.5496 M1507.84 33.3505 L1507.84 51.84 L1502.52 51.84 L1502.52 46.921 Q1500.69 49.8724 1497.97 51.2902 Q1495.25 52.6791 1491.32 52.6791 Q1486.34 52.6791 1483.39 49.9014 Q1480.47 47.0947 1480.47 42.4072 Q1480.47 36.9385 1484.11 34.1607 Q1487.79 31.3829 1495.05 31.3829 L1502.52 31.3829 L1502.52 30.8621 Q1502.52 27.1874 1500.08 25.1908 Q1497.68 23.1654 1493.31 23.1654 Q1490.54 23.1654 1487.9 23.8309 Q1485.27 24.4964 1482.84 25.8274 L1482.84 20.9085 Q1485.76 19.78 1488.51 19.2302 Q1491.26 18.6515 1493.86 18.6515 Q1500.89 18.6515 1504.37 22.2973 Q1507.84 25.9431 1507.84 33.3505 Z" fill="#000000" fill-rule="nonzero" fill-opacity="1" /><path clip-path="url(#clip680)" d="M1518.81 6.81709 L1524.13 6.81709 L1524.13 51.84 L1518.81 51.84 L1518.81 6.81709 Z" fill="#000000" fill-rule="nonzero" fill-opacity="1" /><path clip-path="url(#clip680)" d="M1568.83 35.5496 Q1562.38 35.5496 1559.89 37.0253 Q1557.41 38.501 1557.41 42.06 Q1557.41 44.8956 1559.26 46.5738 Q1561.14 48.2231 1564.35 48.2231 Q1568.78 48.2231 1571.44 45.0981 Q1574.13 41.9442 1574.13 36.7359 L1574.13 35.5496 L1568.83 35.5496 M1579.45 33.3505 L1579.45 51.84 L1574.13 51.84 L1574.13 46.921 Q1572.31 49.8724 1569.59 51.2902 Q1566.87 52.6791 1562.93 52.6791 Q1557.95 52.6791 1555 49.9014 Q1552.08 47.0947 1552.08 42.4072 Q1552.08 36.9385 1555.73 34.1607 Q1559.4 31.3829 1566.66 31.3829 L1574.13 31.3829 L1574.13 30.8621 Q1574.13 27.1874 1571.7 25.1908 Q1569.3 23.1654 1564.93 23.1654 Q1562.15 23.1654 1559.52 23.8309 Q1556.88 24.4964 1554.45 25.8274 L1554.45 20.9085 Q1557.38 19.78 1560.12 19.2302 Q1562.87 18.6515 1565.48 18.6515 Q1572.51 18.6515 1575.98 22.2973 Q1579.45 25.9431 1579.45 33.3505 Z" fill="#000000" fill-rule="nonzero" fill-opacity="1" /><path clip-path="url(#clip680)" d="M1590.42 6.81709 L1595.74 6.81709 L1595.74 51.84 L1590.42 51.84 L1590.42 6.81709 Z" fill="#000000" fill-rule="nonzero" fill-opacity="1" /><path clip-path="url(#clip680)" d="M1634.6 34.3054 L1634.6 36.9095 L1610.12 36.9095 Q1610.47 42.4072 1613.42 45.3007 Q1616.4 48.1653 1621.7 48.1653 Q1624.77 48.1653 1627.63 47.4129 Q1630.52 46.6606 1633.36 45.156 L1633.36 50.1907 Q1630.49 51.406 1627.49 52.0425 Q1624.48 52.6791 1621.38 52.6791 Q1613.63 52.6791 1609.08 48.1653 Q1604.57 43.6514 1604.57 35.9547 Q1604.57 27.9975 1608.85 23.339 Q1613.16 18.6515 1620.45 18.6515 Q1626.99 18.6515 1630.78 22.876 Q1634.6 27.0716 1634.6 34.3054 M1629.28 32.7429 Q1629.22 28.3737 1626.82 25.7695 Q1624.45 23.1654 1620.51 23.1654 Q1616.06 23.1654 1613.37 25.6827 Q1610.7 28.2001 1610.3 32.7718 L1629.28 32.7429 Z" fill="#000000" fill-rule="nonzero" fill-opacity="1" /><path clip-path="url(#clip680)" d="M1658.07 35.5496 Q1651.62 35.5496 1649.13 37.0253 Q1646.64 38.501 1646.64 42.06 Q1646.64 44.8956 1648.49 46.5738 Q1650.37 48.2231 1653.59 48.2231 Q1658.01 48.2231 1660.67 45.0981 Q1663.37 41.9442 1663.37 36.7359 L1663.37 35.5496 L1658.07 35.5496 M1668.69 33.3505 L1668.69 51.84 L1663.37 51.84 L1663.37 46.921 Q1661.54 49.8724 1658.82 51.2902 Q1656.1 52.6791 1652.17 52.6791 Q1647.19 52.6791 1644.24 49.9014 Q1641.32 47.0947 1641.32 42.4072 Q1641.32 36.9385 1644.96 34.1607 Q1648.64 31.3829 1655.9 31.3829 L1663.37 31.3829 L1663.37 30.8621 Q1663.37 27.1874 1660.93 25.1908 Q1658.53 23.1654 1654.16 23.1654 Q1651.39 23.1654 1648.75 23.8309 Q1646.12 24.4964 1643.69 25.8274 L1643.69 20.9085 Q1646.61 19.78 1649.36 19.2302 Q1652.11 18.6515 1654.71 18.6515 Q1661.74 18.6515 1665.22 22.2973 Q1668.69 25.9431 1668.69 33.3505 Z" fill="#000000" fill-rule="nonzero" fill-opacity="1" /><path clip-path="url(#clip680)" d="M1684.92 10.2314 L1684.92 19.4328 L1695.89 19.4328 L1695.89 23.5705 L1684.92 23.5705 L1684.92 41.163 Q1684.92 45.1271 1685.99 46.2555 Q1687.09 47.384 1690.42 47.384 L1695.89 47.384 L1695.89 51.84 L1690.42 51.84 Q1684.26 51.84 1681.91 49.5541 Q1679.57 47.2393 1679.57 41.163 L1679.57 23.5705 L1675.66 23.5705 L1675.66 19.4328 L1679.57 19.4328 L1679.57 10.2314 L1684.92 10.2314 Z" fill="#000000" fill-rule="nonzero" fill-opacity="1" /><path clip-path="url(#clip680)" d="M1715.45 23.1654 Q1711.17 23.1654 1708.68 26.5218 Q1706.19 29.8494 1706.19 35.6653 Q1706.19 41.4813 1708.65 44.8377 Q1711.14 48.1653 1715.45 48.1653 Q1719.7 48.1653 1722.19 44.8088 Q1724.68 41.4523 1724.68 35.6653 Q1724.68 29.9072 1722.19 26.5508 Q1719.7 23.1654 1715.45 23.1654 M1715.45 18.6515 Q1722.39 18.6515 1726.36 23.1654 Q1730.32 27.6792 1730.32 35.6653 Q1730.32 43.6225 1726.36 48.1653 Q1722.39 52.6791 1715.45 52.6791 Q1708.47 52.6791 1704.51 48.1653 Q1700.58 43.6225 1700.58 35.6653 Q1700.58 27.6792 1704.51 23.1654 Q1708.47 18.6515 1715.45 18.6515 M1719.47 4.44442 L1725.23 4.44442 L1715.8 15.324 L1711.37 15.324 L1719.47 4.44442 Z" fill="#000000" fill-rule="nonzero" fill-opacity="1" /><path clip-path="url(#clip680)" d="M1757.92 24.4096 Q1757.03 23.8888 1755.96 23.6573 Q1754.92 23.3969 1753.64 23.3969 Q1749.13 23.3969 1746.7 26.3482 Q1744.3 29.2707 1744.3 34.7683 L1744.3 51.84 L1738.94 51.84 L1738.94 19.4328 L1744.3 19.4328 L1744.3 24.4675 Q1745.97 21.5161 1748.67 20.0983 Q1751.36 18.6515 1755.2 18.6515 Q1755.75 18.6515 1756.42 18.7383 Q1757.09 18.7962 1757.9 18.9409 L1757.92 24.4096 Z" fill="#000000" fill-rule="nonzero" fill-opacity="1" /><path clip-path="url(#clip680)" d="M1763.51 19.4328 L1768.83 19.4328 L1768.83 51.84 L1763.51 51.84 L1763.51 19.4328 M1763.51 6.81709 L1768.83 6.81709 L1768.83 13.559 L1763.51 13.559 L1763.51 6.81709 Z" fill="#000000" fill-rule="nonzero" fill-opacity="1" /><path clip-path="url(#clip680)" d="M1794.7 35.5496 Q1788.25 35.5496 1785.76 37.0253 Q1783.27 38.501 1783.27 42.06 Q1783.27 44.8956 1785.12 46.5738 Q1787 48.2231 1790.22 48.2231 Q1794.64 48.2231 1797.31 45.0981 Q1800 41.9442 1800 36.7359 L1800 35.5496 L1794.7 35.5496 M1805.32 33.3505 L1805.32 51.84 L1800 51.84 L1800 46.921 Q1798.17 49.8724 1795.45 51.2902 Q1792.73 52.6791 1788.8 52.6791 Q1783.82 52.6791 1780.87 49.9014 Q1777.95 47.0947 1777.95 42.4072 Q1777.95 36.9385 1781.59 34.1607 Q1785.27 31.3829 1792.53 31.3829 L1800 31.3829 L1800 30.8621 Q1800 27.1874 1797.57 25.1908 Q1795.16 23.1654 1790.8 23.1654 Q1788.02 23.1654 1785.38 23.8309 Q1782.75 24.4964 1780.32 25.8274 L1780.32 20.9085 Q1783.24 19.78 1785.99 19.2302 Q1788.74 18.6515 1791.34 18.6515 Q1798.38 18.6515 1801.85 22.2973 Q1805.32 25.9431 1805.32 33.3505 Z" fill="#000000" fill-rule="nonzero" fill-opacity="1" /><path clip-path="url(#clip680)" d="M1840.16 4.44442 L1848.32 15.2661 L1843.89 15.2661 L1834.46 4.44442 L1840.16 4.44442 Z" fill="#000000" fill-rule="nonzero" fill-opacity="1" /><path clip-path="url(#clip680)" d="M1864.2 39.0507 L1864.2 19.4328 L1869.53 19.4328 L1869.53 38.8482 Q1869.53 43.4488 1871.32 45.7636 Q1873.12 48.0495 1876.7 48.0495 Q1881.01 48.0495 1883.5 45.3007 Q1886.02 42.5519 1886.02 37.8065 L1886.02 19.4328 L1891.34 19.4328 L1891.34 51.84 L1886.02 51.84 L1886.02 46.8632 Q1884.08 49.8145 1881.51 51.2613 Q1878.96 52.6791 1875.57 52.6791 Q1869.99 52.6791 1867.1 49.2069 Q1864.2 45.7347 1864.2 39.0507 M1877.6 18.6515 L1877.6 18.6515 Z" fill="#000000" fill-rule="nonzero" fill-opacity="1" /><path clip-path="url(#clip680)" d="M1907.35 8.64 L1907.35 24.6989 L1902.43 24.6989 L1902.43 8.64 L1907.35 8.64 Z" fill="#000000" fill-rule="nonzero" fill-opacity="1" /><path clip-path="url(#clip680)" d="M1938.13 24.9304 L1975.23 24.9304 L1975.23 29.7915 L1938.13 29.7915 L1938.13 24.9304 M1938.13 36.7359 L1975.23 36.7359 L1975.23 41.6549 L1938.13 41.6549 L1938.13 36.7359 Z" fill="#000000" fill-rule="nonzero" fill-opacity="1" /><path clip-path="url(#clip680)" d="M2026.59 20.3876 L2026.59 25.4223 Q2024.33 24.2649 2021.9 23.6862 Q2019.47 23.1075 2016.86 23.1075 Q2012.9 23.1075 2010.9 24.3228 Q2008.94 25.5381 2008.94 27.9686 Q2008.94 29.8204 2010.35 30.891 Q2011.77 31.9327 2016.05 32.8876 L2017.88 33.2926 Q2023.55 34.5079 2025.92 36.7359 Q2028.32 38.935 2028.32 42.8991 Q2028.32 47.4129 2024.73 50.046 Q2021.18 52.6791 2014.93 52.6791 Q2012.32 52.6791 2009.49 52.1583 Q2006.68 51.6664 2003.55 50.6537 L2003.55 45.156 Q2006.51 46.6896 2009.37 47.4708 Q2012.23 48.2231 2015.04 48.2231 Q2018.8 48.2231 2020.83 46.95 Q2022.85 45.6479 2022.85 43.3042 Q2022.85 41.134 2021.38 39.9766 Q2019.93 38.8192 2014.98 37.7486 L2013.13 37.3146 Q2008.18 36.273 2005.98 34.1318 Q2003.79 31.9616 2003.79 28.2001 Q2003.79 23.6283 2007.03 21.1399 Q2010.27 18.6515 2016.23 18.6515 Q2019.18 18.6515 2021.78 19.0855 Q2024.39 19.5196 2026.59 20.3876 Z" fill="#000000" fill-rule="nonzero" fill-opacity="1" /><path clip-path="url(#clip680)" d="M2036.8 19.4328 L2042.12 19.4328 L2042.12 51.84 L2036.8 51.84 L2036.8 19.4328 M2036.8 6.81709 L2042.12 6.81709 L2042.12 13.559 L2036.8 13.559 L2036.8 6.81709 Z" fill="#000000" fill-rule="nonzero" fill-opacity="1" /><path clip-path="url(#clip680)" d="M2080.2 32.2799 L2080.2 51.84 L2074.88 51.84 L2074.88 32.4535 Q2074.88 27.8529 2073.09 25.567 Q2071.29 23.2811 2067.7 23.2811 Q2063.39 23.2811 2060.9 26.03 Q2058.42 28.7788 2058.42 33.5241 L2058.42 51.84 L2053.06 51.84 L2053.06 19.4328 L2058.42 19.4328 L2058.42 24.4675 Q2060.32 21.545 2062.9 20.0983 Q2065.5 18.6515 2068.89 18.6515 Q2074.47 18.6515 2077.34 22.1237 Q2080.2 25.567 2080.2 32.2799 Z" fill="#000000" fill-rule="nonzero" fill-opacity="1" /><path clip-path="url(#clip680)" d="M2103.61 6.87496 Q2099.73 13.53 2097.85 20.0404 Q2095.97 26.5508 2095.97 33.2348 Q2095.97 39.9188 2097.85 46.487 Q2099.76 53.0263 2103.61 59.6525 L2098.98 59.6525 Q2094.64 52.8527 2092.47 46.2845 Q2090.33 39.7162 2090.33 33.2348 Q2090.33 26.7823 2092.47 20.2429 Q2094.61 13.7036 2098.98 6.87496 L2103.61 6.87496 Z" fill="#000000" fill-rule="nonzero" fill-opacity="1" /><path clip-path="url(#clip680)" d="M2110.32 8.64 L2116.23 8.64 L2125.31 45.156 L2134.37 8.64 L2140.94 8.64 L2150.02 45.156 L2159.08 8.64 L2165.01 8.64 L2154.16 51.84 L2146.81 51.84 L2137.7 14.3402 L2128.5 51.84 L2121.15 51.84 L2110.32 8.64 Z" fill="#000000" fill-rule="nonzero" fill-opacity="1" /><path clip-path="url(#clip680)" d="M2171.7 6.87496 L2176.33 6.87496 Q2180.67 13.7036 2182.81 20.2429 Q2184.98 26.7823 2184.98 33.2348 Q2184.98 39.7162 2182.81 46.2845 Q2180.67 52.8527 2176.33 59.6525 L2171.7 59.6525 Q2175.54 53.0263 2177.42 46.487 Q2179.33 39.9188 2179.33 33.2348 Q2179.33 26.5508 2177.42 20.0404 Q2175.54 13.53 2171.7 6.87496 Z" fill="#000000" fill-rule="nonzero" fill-opacity="1" /><path clip-path="url(#clip680)" d="M2195.1 39.0507 L2195.1 19.4328 L2200.43 19.4328 L2200.43 38.8482 Q2200.43 43.4488 2202.22 45.7636 Q2204.02 48.0495 2207.6 48.0495 Q2211.92 48.0495 2214.4 45.3007 Q2216.92 42.5519 2216.92 37.8065 L2216.92 19.4328 L2222.25 19.4328 L2222.25 51.84 L2216.92 51.84 L2216.92 46.8632 Q2214.98 49.8145 2212.41 51.2613 Q2209.86 52.6791 2206.48 52.6791 Q2200.89 52.6791 2198 49.2069 Q2195.1 45.7347 2195.1 39.0507 M2208.5 18.6515 L2208.5 18.6515 Z" fill="#000000" fill-rule="nonzero" fill-opacity="1" /><path clip-path="url(#clip680)" d="M2238.25 4.44442 L2246.41 15.2661 L2241.98 15.2661 L2232.55 4.44442 L2238.25 4.44442 Z" fill="#000000" fill-rule="nonzero" fill-opacity="1" /><path clip-path="url(#clip680)" d="M2305 20.677 L2305 25.6538 Q2302.74 24.4096 2300.46 23.802 Q2298.2 23.1654 2295.88 23.1654 Q2290.71 23.1654 2287.84 26.464 Q2284.98 29.7336 2284.98 35.6653 Q2284.98 41.597 2287.84 44.8956 Q2290.71 48.1653 2295.88 48.1653 Q2298.2 48.1653 2300.46 47.5576 Q2302.74 46.921 2305 45.6768 L2305 50.5958 Q2302.77 51.6375 2300.37 52.1583 Q2298 52.6791 2295.31 52.6791 Q2287.99 52.6791 2283.67 48.0784 Q2279.36 43.4778 2279.36 35.6653 Q2279.36 27.7371 2283.7 23.1943 Q2288.07 18.6515 2295.65 18.6515 Q2298.11 18.6515 2300.46 19.1724 Q2302.8 19.6642 2305 20.677 Z" fill="#000000" fill-rule="nonzero" fill-opacity="1" /><path clip-path="url(#clip680)" d="M2326.82 23.1654 Q2322.53 23.1654 2320.05 26.5218 Q2317.56 29.8494 2317.56 35.6653 Q2317.56 41.4813 2320.02 44.8377 Q2322.51 48.1653 2326.82 48.1653 Q2331.07 48.1653 2333.56 44.8088 Q2336.05 41.4523 2336.05 35.6653 Q2336.05 29.9072 2333.56 26.5508 Q2331.07 23.1654 2326.82 23.1654 M2326.82 18.6515 Q2333.76 18.6515 2337.72 23.1654 Q2341.69 27.6792 2341.69 35.6653 Q2341.69 43.6225 2337.72 48.1653 Q2333.76 52.6791 2326.82 52.6791 Q2319.84 52.6791 2315.88 48.1653 Q2311.94 43.6225 2311.94 35.6653 Q2311.94 27.6792 2315.88 23.1654 Q2319.84 18.6515 2326.82 18.6515 Z" fill="#000000" fill-rule="nonzero" fill-opacity="1" /><path clip-path="url(#clip680)" d="M2375.75 25.6538 Q2377.74 22.0659 2380.52 20.3587 Q2383.3 18.6515 2387.06 18.6515 Q2392.12 18.6515 2394.87 22.2105 Q2397.62 25.7406 2397.62 32.2799 L2397.62 51.84 L2392.27 51.84 L2392.27 32.4535 Q2392.27 27.795 2390.62 25.5381 Q2388.97 23.2811 2385.58 23.2811 Q2381.45 23.2811 2379.04 26.03 Q2376.64 28.7788 2376.64 33.5241 L2376.64 51.84 L2371.29 51.84 L2371.29 32.4535 Q2371.29 27.7661 2369.64 25.5381 Q2367.99 23.2811 2364.55 23.2811 Q2360.47 23.2811 2358.07 26.0589 Q2355.66 28.8077 2355.66 33.5241 L2355.66 51.84 L2350.31 51.84 L2350.31 19.4328 L2355.66 19.4328 L2355.66 24.4675 Q2357.49 21.4872 2360.03 20.0693 Q2362.58 18.6515 2366.08 18.6515 Q2369.61 18.6515 2372.07 20.4455 Q2374.56 22.2395 2375.75 25.6538 Z" fill="#000000" fill-rule="nonzero" fill-opacity="1" /><path clip-path="url(#clip680)" d="M2432.11 4.44442 L2440.27 15.2661 L2435.84 15.2661 L2426.41 4.44442 L2432.11 4.44442 Z" fill="#000000" fill-rule="nonzero" fill-opacity="1" /><path clip-path="url(#clip680)" d="M2456.16 39.0507 L2456.16 19.4328 L2461.48 19.4328 L2461.48 38.8482 Q2461.48 43.4488 2463.27 45.7636 Q2465.07 48.0495 2468.66 48.0495 Q2472.97 48.0495 2475.46 45.3007 Q2477.97 42.5519 2477.97 37.8065 L2477.97 19.4328 L2483.3 19.4328 L2483.3 51.84 L2477.97 51.84 L2477.97 46.8632 Q2476.03 49.8145 2473.46 51.2613 Q2470.91 52.6791 2467.53 52.6791 Q2461.94 52.6791 2459.05 49.2069 Q2456.16 45.7347 2456.16 39.0507 M2469.55 18.6515 L2469.55 18.6515 Z" fill="#000000" fill-rule="nonzero" fill-opacity="1" /><path clip-path="url(#clip680)" d="M2507.05 6.87496 Q2503.18 13.53 2501.29 20.0404 Q2499.41 26.5508 2499.41 33.2348 Q2499.41 39.9188 2501.29 46.487 Q2503.2 53.0263 2507.05 59.6525 L2502.42 59.6525 Q2498.08 52.8527 2495.91 46.2845 Q2493.77 39.7162 2493.77 33.2348 Q2493.77 26.7823 2495.91 20.2429 Q2498.05 13.7036 2502.42 6.87496 L2507.05 6.87496 Z" fill="#000000" fill-rule="nonzero" fill-opacity="1" /><path clip-path="url(#clip680)" d="M2530.63 12.4884 Q2526.12 12.4884 2523.84 16.9444 Q2521.58 21.3714 2521.58 30.2834 Q2521.58 39.1665 2523.84 43.6225 Q2526.12 48.0495 2530.63 48.0495 Q2535.18 48.0495 2537.43 43.6225 Q2539.72 39.1665 2539.72 30.2834 Q2539.72 21.3714 2537.43 16.9444 Q2535.18 12.4884 2530.63 12.4884 M2530.63 7.85875 Q2537.9 7.85875 2541.72 13.6168 Q2545.57 19.346 2545.57 30.2834 Q2545.57 41.1919 2541.72 46.95 Q2537.9 52.6791 2530.63 52.6791 Q2523.37 52.6791 2519.52 46.95 Q2515.7 41.1919 2515.7 30.2834 Q2515.7 19.346 2519.52 13.6168 Q2523.37 7.85875 2530.63 7.85875 Z" fill="#000000" fill-rule="nonzero" fill-opacity="1" /><path clip-path="url(#clip680)" d="M2554.25 6.87496 L2558.88 6.87496 Q2563.22 13.7036 2565.36 20.2429 Q2567.53 26.7823 2567.53 33.2348 Q2567.53 39.7162 2565.36 46.2845 Q2563.22 52.8527 2558.88 59.6525 L2554.25 59.6525 Q2558.09 53.0263 2559.97 46.487 Q2561.88 39.9188 2561.88 33.2348 Q2561.88 26.5508 2559.97 20.0404 Q2558.09 13.53 2554.25 6.87496 Z" fill="#000000" fill-rule="nonzero" fill-opacity="1" /><path clip-path="url(#clip680)" d="M2597.74 24.9304 L2634.83 24.9304 L2634.83 29.7915 L2597.74 29.7915 L2597.74 24.9304 M2597.74 36.7359 L2634.83 36.7359 L2634.83 41.6549 L2597.74 41.6549 L2597.74 36.7359 Z" fill="#000000" fill-rule="nonzero" fill-opacity="1" /><path clip-path="url(#clip680)" d="M2667.29 46.921 L2676.84 46.921 L2676.84 13.964 L2666.46 16.0474 L2666.46 10.7233 L2676.79 8.64 L2682.63 8.64 L2682.63 46.921 L2692.18 46.921 L2692.18 51.84 L2667.29 51.84 L2667.29 46.921 Z" fill="#000000" fill-rule="nonzero" fill-opacity="1" /><path clip-path="url(#clip680)" d="M2703.98 44.4905 L2710.09 44.4905 L2710.09 51.84 L2703.98 51.84 L2703.98 44.4905 Z" fill="#000000" fill-rule="nonzero" fill-opacity="1" /><path clip-path="url(#clip680)" d="M2735.32 12.4884 Q2730.81 12.4884 2728.52 16.9444 Q2726.26 21.3714 2726.26 30.2834 Q2726.26 39.1665 2728.52 43.6225 Q2730.81 48.0495 2735.32 48.0495 Q2739.86 48.0495 2742.12 43.6225 Q2744.41 39.1665 2744.41 30.2834 Q2744.41 21.3714 2742.12 16.9444 Q2739.86 12.4884 2735.32 12.4884 M2735.32 7.85875 Q2742.58 7.85875 2746.4 13.6168 Q2750.25 19.346 2750.25 30.2834 Q2750.25 41.1919 2746.4 46.95 Q2742.58 52.6791 2735.32 52.6791 Q2728.06 52.6791 2724.21 46.95 Q2720.39 41.1919 2720.39 30.2834 Q2720.39 19.346 2724.21 13.6168 Q2728.06 7.85875 2735.32 7.85875 Z" fill="#000000" fill-rule="nonzero" fill-opacity="1" /><path clip-path="url(#clip680)" d="M2764.81 4.44442 L2772.97 15.2661 L2768.54 15.2661 L2759.11 4.44442 L2764.81 4.44442 Z" fill="#000000" fill-rule="nonzero" fill-opacity="1" /><polyline clip-path="url(#clip682)" style="stroke:#009af9; stroke-linecap:round; stroke-linejoin:round; stroke-width:4; stroke-opacity:1; fill:none" points="315.608,1810.28 321.117,1810.28 326.626,1811.75 332.135,1814.87 337.644,1818.27 343.153,1821.93 348.662,1826.71 354.171,1830.19 359.68,1834.59 365.19,1839.03 370.699,1844.07 376.208,1848.04 381.717,1852.29 387.226,1857.54 392.735,1863.27 398.244,1869.09 403.753,1875.06 409.262,1881.11 414.771,1887.69 420.28,1894.26 425.789,1900.39 431.298,1906.33 436.807,1912.34 442.316,1918.1 447.825,1924.26 453.334,1930.13 458.843,1935.76 464.352,1940.67 469.861,1945.07 475.37,1949.38 480.879,1953.25 486.388,1956.78 491.897,1960.69 497.406,1964.26 502.915,1967.31 508.424,1970.59 513.933,1973.98 519.442,1978.72 524.951,1984.1 530.46,1989.38 535.969,1994.79 541.478,1999.99 546.987,2005.39 552.496,2010.39 558.005,2015.11 563.514,2019.53 569.023,2023.67 574.532,2027.01 580.041,2030.29 585.551,2033.74 591.06,2036.6 596.569,2039.77 602.078,2042.52 607.587,2045.38 613.096,2047.61 618.605,2048.94 624.114,2050.75 629.623,2051.73 635.132,2050.9 640.641,2050.01 646.15,2048.08 651.659,2045.14 657.168,2042.69 662.677,2041.09 668.186,2039.23 673.695,2037.05 679.204,2034.51 684.713,2032.36 690.222,2030.05 695.731,2027.34 701.24,2025.45 706.749,2023.53 712.258,2021.7 717.767,2018.35 723.276,2014.95 728.785,2010.99 734.294,2006.73 739.803,2001.69 745.312,1996.02 750.821,1990.04 756.33,1985.17 761.839,1980.46 767.348,1975.55 772.857,1970.13 778.366,1964.82 783.875,1959.32 789.384,1953.9 794.893,1948.9 800.402,1944.1 805.911,1939.44 811.421,1934.42 816.93,1929.05 822.439,1923.48 827.948,1917.96 833.457,1912.7 838.966,1907.4 844.475,1901.71 849.984,1895.41 855.493,1889.7 861.002,1883.73 866.511,1877.36 872.02,1870.32 877.529,1863.25 883.038,1856.34 888.547,1849.37 894.056,1842.94 899.565,1838.39 905.074,1833.36 910.583,1829.93 916.092,1827.36 921.601,1824.2 927.11,1820.94 932.619,1817.38 938.128,1813.02 943.637,1807.78 949.146,1803.16 954.655,1799.01 960.164,1795.38 965.673,1790.5 971.182,1787.46 976.691,1784.59 982.2,1781.2 987.709,1777.97 993.218,1774.3 998.727,1770.19 1004.24,1766.18 1009.75,1762.35 1015.25,1758.64 1020.76,1754.99 1026.27,1751.4 1031.78,1747.84 1037.29,1743.99 1042.8,1740.14 1048.31,1737.48 1053.82,1733.5 1059.33,1728.51 1064.84,1724.16 1070.34,1720.99 1075.85,1716.77 1081.36,1712.49 1086.87,1709.66 1092.38,1708.21 1097.89,1706.64 1103.4,1704.9 1108.91,1704.68 1114.42,1704.4 1119.93,1705.48 1125.43,1707.33 1130.94,1708.62 1136.45,1710.29 1141.96,1710.81 1147.47,1710.9 1152.98,1711.94 1158.49,1712.1 1164,1713.04 1169.51,1714.74 1175.02,1716.83 1180.53,1718.91 1186.03,1720.16 1191.54,1720.7 1197.05,1719.84 1202.56,1719.09 1208.07,1718.69 1213.58,1718.33 1219.09,1717.49 1224.6,1717.33 1230.11,1718.45 1235.62,1719.66 1241.12,1720.91 1246.63,1721.99 1252.14,1723.59 1257.65,1724.03 1263.16,1726 1268.67,1727.99 1274.18,1729.71 1279.69,1731.43 1285.2,1733.73 1290.71,1737.57 1296.21,1741.67 1301.72,1745.81 1307.23,1750.76 1312.74,1757.05 1318.25,1762.7 1323.76,1767.72 1329.27,1773.54 1334.78,1780.06 1340.29,1786.96 1345.8,1793.16 1351.3,1798.99 1356.81,1804.13 1362.32,1809.48 1367.83,1813.94 1373.34,1818.3 1378.85,1823.17 1384.36,1826.81 1389.87,1831.36 1395.38,1836.85 1400.89,1841.94 1406.4,1846.04 1411.9,1850.35 1417.41,1853.89 1422.92,1857.07 1428.43,1860.28 1433.94,1863.31 1439.45,1866.86 1444.96,1870.1 1450.47,1873.42 1455.98,1876.32 1461.49,1879.1 1466.99,1883.87 1472.5,1886.83 1478.01,1890.08 1483.52,1892.71 1489.03,1895.48 1494.54,1898.05 1500.05,1901.93 1505.56,1905.71 1511.07,1909.53 1516.58,1913.83 1522.08,1918.87 1527.59,1923.96 1533.1,1928.95 1538.61,1933.3 1544.12,1937.86 1549.63,1942.25 1555.14,1946.12 1560.65,1950.07 1566.16,1954.16 1571.67,1958.39 1577.17,1963.22 1582.68,1967.71 1588.19,1972.24 1593.7,1976.82 1599.21,1980.94 1604.72,1985.52 1610.23,1990.15 1615.74,1995.39 1621.25,2000.65 1626.76,2005.3 1632.27,2009.87 1637.77,2014.11 1643.28,2016.94 1648.79,2019.25 1654.3,2022.29 1659.81,2025.69 1665.32,2028.99 1670.83,2031.34 1676.34,2034.55 1681.85,2038.22 1687.36,2041.55 1692.86,2045.21 1698.37,2049.12 1703.88,2053.31 1709.39,2057.55 1714.9,2061.84 1720.41,2066.23 1725.92,2070.64 1731.43,2074.87 1736.94,2078.5 1742.45,2081.69 1747.95,2084.94 1753.46,2088.4 1758.97,2091.5 1764.48,2094.86 1769.99,2098.49 1775.5,2101.98 1781.01,2105.29 1786.52,2108.04 1792.03,2110.97 1797.54,2114.19 1803.04,2116.82 1808.55,2119.47 1814.06,2121.16 1819.57,2123.25 1825.08,2125.59 1830.59,2127.49 1836.1,2128.46 1841.61,2130.21 1847.12,2132.09 1852.63,2134.29 1858.14,2136.78 1863.64,2139.39 1869.15,2141.5 1874.66,2142.99 1880.17,2144.1 1885.68,2144.81 1891.19,2145.22 1896.7,2145.67 1902.21,2145.66 1907.72,2144.38 1913.23,2143.34 1918.73,2142.22 1924.24,2141.02 1929.75,2139.72 1935.26,2138.26 1940.77,2136.72 1946.28,2135.27 1951.79,2134.15 1957.3,2132.44 1962.81,2129.73 1968.32,2127.52 1973.82,2126.1 1979.33,2125.55 1984.84,2125.25 1990.35,2124.49 1995.86,2123.52 2001.37,2121.41 2006.88,2119.61 2012.39,2118.05 2017.9,2117.02 2023.41,2115.8 2028.91,2114.03 2034.42,2112.03 2039.93,2109.2 2045.44,2106.93 2050.95,2105.08 2056.46,2102.27 2061.97,2099.8 2067.48,2098.05 2072.99,2096.95 2078.5,2095.64 2084.01,2094.62 2089.51,2092.79 2095.02,2090.59 2100.53,2087.98 2106.04,2085.54 2111.55,2082.75 2117.06,2079.8 2122.57,2075.49 2128.08,2070.77 2133.59,2066.66 2139.1,2062.14 2144.6,2058.36 2150.11,2054.43 2155.62,2049.99 2161.13,2045.47 2166.64,2041.53 2172.15,2038.21 2177.66,2034.86 2183.17,2031.21 2188.68,2027.1 2194.19,2023.05 2199.69,2019.17 2205.2,2015.48 2210.71,2012.47 2216.22,2009.77 2221.73,2007.04 2227.24,2004.38 2232.75,2000.52 2238.26,1996.15 2243.77,1991.86 2249.28,1987.55 2254.78,1983.5 2260.29,1979.23 2265.8,1974.88 2271.31,1969.64 2276.82,1964.25 2282.33,1959 2287.84,1953.22 2293.35,1947.15 2298.86,1940.89 2304.37,1934.23 2309.88,1927.31 2315.38,1920.83 2320.89,1914.59 2326.4,1908.15 2331.91,1902 2337.42,1895.87 2342.93,1889 2348.44,1881.7 2353.95,1874.4 2359.46,1866.38 2364.97,1858.39 2370.47,1850.41 2375.98,1842.26 2381.49,1833.99 2387,1825.93 2392.51,1817.36 2398.02,1809.03 2403.53,1800.46 2409.04,1792.03 2414.55,1783.75 2420.06,1775.16 2425.56,1766.67 2431.07,1758.69 2436.58,1750.1 2442.09,1741.31 2447.6,1732.26 2453.11,1722.76 2458.62,1713.1 2464.13,1703.34 2469.64,1693.48 2475.15,1683.52 2480.65,1673.5 2486.16,1663.51 2491.67,1653.34 2497.18,1643.12 2502.69,1632.79 2508.2,1622.27 2513.71,1611.62 2519.22,1600.98 2524.73,1590.21 2530.24,1579.31 2535.75,1568.23 2541.25,1557.13 2546.76,1545.81 2552.27,1534.45 2557.78,1523.02 2563.29,1511.45 2568.8,1499.73 2574.31,1487.84 2579.82,1475.83 2585.33,1463.72 2590.84,1451.56 2596.34,1439.35 2601.85,1427.08 2607.36,1414.46 2612.87,1401.73 2618.38,1388.94 2623.89,1375.96 2629.4,1363.01 2634.91,1349.83 2640.42,1336.44 2645.93,1322.91 2651.43,1309.33 2656.94,1295.62 2662.45,1281.7 2667.96,1267.83 2673.47,1254.16 2678.98,1240.66 2684.49,1227.3 2690,1215.27 2695.51,1203.49 2701.02,1191.61 2706.52,1179.45 2712.03,1166.95 2717.54,1154.55 2723.05,1141.45 2728.56,1127.54 2734.07,1113.95 2739.58,1099.9 2745.09,1086.47 2750.6,1072.9 2756.11,1057.95 2761.62,1042.3 2767.12,1026.72 2772.63,1011.15 2778.14,995.931 2783.65,982.436 2789.16,966.815 2794.67,951.425 2800.18,935.214 2805.69,918.588 2811.2,901.145 2816.71,883.422 2822.21,866.179 2827.72,848.59 2833.23,830.772 2838.74,812.183 2844.25,793.411 2849.76,774.453 2855.27,755.667 2860.78,736.887 2866.29,719.339 2871.8,703.088 2877.3,686.091 2882.81,669.736 2888.32,652.618 2893.83,635.6 2899.34,619.485 2904.85,605.691 2910.36,594.211 2915.87,582.73 2921.38,572.123 2926.89,559.735 2932.39,547.14 2937.9,533.643 2943.41,516.253 2948.92,497.827 2954.43,479.84 2959.94,461.476 2965.45,443.245 2970.96,425.573 2976.47,410.516 2981.98,399.541 2987.49,390.906 2992.99,381.121 2998.5,370.901 3004.01,361.885 3009.52,351.421 3015.03,341.595 3020.54,327.182 3026.05,311.988 3031.56,297.707 3037.07,280.645 3042.58,263.533 3048.08,245.942 3053.59,226.988 3059.1,209.346 3064.61,191.634 3070.12,170.837 "/>
</svg>
