<?xml version="1.0" encoding="utf-8"?>
<svg xmlns="http://www.w3.org/2000/svg" xmlns:xlink="http://www.w3.org/1999/xlink" width="800" height="600" viewBox="0 0 3200 2400">
<defs>
  <clipPath id="clip650">
    <rect x="0" y="0" width="3200" height="2400"/>
  </clipPath>
</defs>
<path clip-path="url(#clip650)" d="M0 2400 L3200 2400 L3200 0 L0 0  Z" fill="#ffffff" fill-rule="evenodd" fill-opacity="1"/>
<defs>
  <clipPath id="clip651">
    <rect x="640" y="0" width="2241" height="2241"/>
  </clipPath>
</defs>
<path clip-path="url(#clip650)" d="M261.399 2204.92 L3152.76 2204.92 L3152.76 111.592 L261.399 111.592  Z" fill="#eaeaea" fill-rule="evenodd" fill-opacity="1"/>
<defs>
  <clipPath id="clip652">
    <rect x="261" y="111" width="2892" height="2094"/>
  </clipPath>
</defs>
<polyline clip-path="url(#clip652)" style="stroke:#ffffff; stroke-linecap:round; stroke-linejoin:round; stroke-width:2; stroke-opacity:1; fill:none" points="615.999,2204.92 615.999,111.592 "/>
<polyline clip-path="url(#clip652)" style="stroke:#ffffff; stroke-linecap:round; stroke-linejoin:round; stroke-width:2; stroke-opacity:1; fill:none" points="1161.54,2204.92 1161.54,111.592 "/>
<polyline clip-path="url(#clip652)" style="stroke:#ffffff; stroke-linecap:round; stroke-linejoin:round; stroke-width:2; stroke-opacity:1; fill:none" points="1707.08,2204.92 1707.08,111.592 "/>
<polyline clip-path="url(#clip652)" style="stroke:#ffffff; stroke-linecap:round; stroke-linejoin:round; stroke-width:2; stroke-opacity:1; fill:none" points="2252.62,2204.92 2252.62,111.592 "/>
<polyline clip-path="url(#clip652)" style="stroke:#ffffff; stroke-linecap:round; stroke-linejoin:round; stroke-width:2; stroke-opacity:1; fill:none" points="2798.16,2204.92 2798.16,111.592 "/>
<polyline clip-path="url(#clip652)" style="stroke:#ffffff; stroke-linecap:round; stroke-linejoin:round; stroke-width:2; stroke-opacity:1; fill:none" points="261.399,2100.85 3152.76,2100.85 "/>
<polyline clip-path="url(#clip652)" style="stroke:#ffffff; stroke-linecap:round; stroke-linejoin:round; stroke-width:2; stroke-opacity:1; fill:none" points="261.399,1652.55 3152.76,1652.55 "/>
<polyline clip-path="url(#clip652)" style="stroke:#ffffff; stroke-linecap:round; stroke-linejoin:round; stroke-width:2; stroke-opacity:1; fill:none" points="261.399,1204.26 3152.76,1204.26 "/>
<polyline clip-path="url(#clip652)" style="stroke:#ffffff; stroke-linecap:round; stroke-linejoin:round; stroke-width:2; stroke-opacity:1; fill:none" points="261.399,755.964 3152.76,755.964 "/>
<polyline clip-path="url(#clip652)" style="stroke:#ffffff; stroke-linecap:round; stroke-linejoin:round; stroke-width:2; stroke-opacity:1; fill:none" points="261.399,307.67 3152.76,307.67 "/>
<polyline clip-path="url(#clip652)" style="stroke:#ffffff; stroke-linecap:round; stroke-linejoin:round; stroke-width:4; stroke-opacity:1; fill:none" points="343.23,2204.92 343.23,111.592 "/>
<polyline clip-path="url(#clip652)" style="stroke:#ffffff; stroke-linecap:round; stroke-linejoin:round; stroke-width:4; stroke-opacity:1; fill:none" points="888.769,2204.92 888.769,111.592 "/>
<polyline clip-path="url(#clip652)" style="stroke:#ffffff; stroke-linecap:round; stroke-linejoin:round; stroke-width:4; stroke-opacity:1; fill:none" points="1434.31,2204.92 1434.31,111.592 "/>
<polyline clip-path="url(#clip652)" style="stroke:#ffffff; stroke-linecap:round; stroke-linejoin:round; stroke-width:4; stroke-opacity:1; fill:none" points="1979.85,2204.92 1979.85,111.592 "/>
<polyline clip-path="url(#clip652)" style="stroke:#ffffff; stroke-linecap:round; stroke-linejoin:round; stroke-width:4; stroke-opacity:1; fill:none" points="2525.39,2204.92 2525.39,111.592 "/>
<polyline clip-path="url(#clip652)" style="stroke:#ffffff; stroke-linecap:round; stroke-linejoin:round; stroke-width:4; stroke-opacity:1; fill:none" points="3070.93,2204.92 3070.93,111.592 "/>
<polyline clip-path="url(#clip652)" style="stroke:#ffffff; stroke-linecap:round; stroke-linejoin:round; stroke-width:4; stroke-opacity:1; fill:none" points="261.399,1876.7 3152.76,1876.7 "/>
<polyline clip-path="url(#clip652)" style="stroke:#ffffff; stroke-linecap:round; stroke-linejoin:round; stroke-width:4; stroke-opacity:1; fill:none" points="261.399,1428.4 3152.76,1428.4 "/>
<polyline clip-path="url(#clip652)" style="stroke:#ffffff; stroke-linecap:round; stroke-linejoin:round; stroke-width:4; stroke-opacity:1; fill:none" points="261.399,980.111 3152.76,980.111 "/>
<polyline clip-path="url(#clip652)" style="stroke:#ffffff; stroke-linecap:round; stroke-linejoin:round; stroke-width:4; stroke-opacity:1; fill:none" points="261.399,531.817 3152.76,531.817 "/>
<polyline clip-path="url(#clip650)" style="stroke:#ffffff; stroke-linecap:round; stroke-linejoin:round; stroke-width:4; stroke-opacity:1; fill:none" points="261.399,2204.92 3152.76,2204.92 "/>
<polyline clip-path="url(#clip650)" style="stroke:#333333; stroke-linecap:round; stroke-linejoin:round; stroke-width:4; stroke-opacity:1; fill:none" points="343.23,2204.92 343.23,2223.82 "/>
<polyline clip-path="url(#clip650)" style="stroke:#333333; stroke-linecap:round; stroke-linejoin:round; stroke-width:4; stroke-opacity:1; fill:none" points="888.769,2204.92 888.769,2223.82 "/>
<polyline clip-path="url(#clip650)" style="stroke:#333333; stroke-linecap:round; stroke-linejoin:round; stroke-width:4; stroke-opacity:1; fill:none" points="1434.31,2204.92 1434.31,2223.82 "/>
<polyline clip-path="url(#clip650)" style="stroke:#333333; stroke-linecap:round; stroke-linejoin:round; stroke-width:4; stroke-opacity:1; fill:none" points="1979.85,2204.92 1979.85,2223.82 "/>
<polyline clip-path="url(#clip650)" style="stroke:#333333; stroke-linecap:round; stroke-linejoin:round; stroke-width:4; stroke-opacity:1; fill:none" points="2525.39,2204.92 2525.39,2223.82 "/>
<polyline clip-path="url(#clip650)" style="stroke:#333333; stroke-linecap:round; stroke-linejoin:round; stroke-width:4; stroke-opacity:1; fill:none" points="3070.93,2204.92 3070.93,2223.82 "/>
<polyline clip-path="url(#clip650)" style="stroke:#333333; stroke-linecap:round; stroke-linejoin:round; stroke-width:4; stroke-opacity:1; fill:none" points="615.999,2204.92 615.999,2214.37 "/>
<polyline clip-path="url(#clip650)" style="stroke:#333333; stroke-linecap:round; stroke-linejoin:round; stroke-width:4; stroke-opacity:1; fill:none" points="1161.54,2204.92 1161.54,2214.37 "/>
<polyline clip-path="url(#clip650)" style="stroke:#333333; stroke-linecap:round; stroke-linejoin:round; stroke-width:4; stroke-opacity:1; fill:none" points="1707.08,2204.92 1707.08,2214.37 "/>
<polyline clip-path="url(#clip650)" style="stroke:#333333; stroke-linecap:round; stroke-linejoin:round; stroke-width:4; stroke-opacity:1; fill:none" points="2252.62,2204.92 2252.62,2214.37 "/>
<polyline clip-path="url(#clip650)" style="stroke:#333333; stroke-linecap:round; stroke-linejoin:round; stroke-width:4; stroke-opacity:1; fill:none" points="2798.16,2204.92 2798.16,2214.37 "/>
<path clip-path="url(#clip650)" d="M343.23 2255.04 Q339.618 2255.04 337.79 2258.6 Q335.984 2262.14 335.984 2269.27 Q335.984 2276.38 337.79 2279.95 Q339.618 2283.49 343.23 2283.49 Q346.864 2283.49 348.669 2279.95 Q350.498 2276.38 350.498 2269.27 Q350.498 2262.14 348.669 2258.6 Q346.864 2255.04 343.23 2255.04 M343.23 2251.33 Q349.04 2251.33 352.095 2255.94 Q355.174 2260.52 355.174 2269.27 Q355.174 2278 352.095 2282.61 Q349.04 2287.19 343.23 2287.19 Q337.419 2287.19 334.341 2282.61 Q331.285 2278 331.285 2269.27 Q331.285 2260.52 334.341 2255.94 Q337.419 2251.33 343.23 2251.33 Z" fill="#4c4c4c" fill-rule="nonzero" fill-opacity="1" /><path clip-path="url(#clip650)" d="M879.151 2282.58 L886.79 2282.58 L886.79 2256.22 L878.479 2257.89 L878.479 2253.63 L886.743 2251.96 L891.419 2251.96 L891.419 2282.58 L899.058 2282.58 L899.058 2286.52 L879.151 2286.52 L879.151 2282.58 Z" fill="#4c4c4c" fill-rule="nonzero" fill-opacity="1" /><path clip-path="url(#clip650)" d="M1428.96 2282.58 L1445.28 2282.58 L1445.28 2286.52 L1423.34 2286.52 L1423.34 2282.58 Q1426 2279.83 1430.58 2275.2 Q1435.19 2270.55 1436.37 2269.21 Q1438.61 2266.68 1439.49 2264.95 Q1440.4 2263.19 1440.4 2261.5 Q1440.4 2258.74 1438.45 2257.01 Q1436.53 2255.27 1433.43 2255.27 Q1431.23 2255.27 1428.78 2256.03 Q1426.34 2256.8 1423.57 2258.35 L1423.57 2253.63 Q1426.39 2252.49 1428.84 2251.91 Q1431.3 2251.33 1433.34 2251.33 Q1438.71 2251.33 1441.9 2254.02 Q1445.09 2256.71 1445.09 2261.2 Q1445.09 2263.33 1444.28 2265.25 Q1443.5 2267.14 1441.39 2269.74 Q1440.81 2270.41 1437.71 2273.63 Q1434.61 2276.82 1428.96 2282.58 Z" fill="#4c4c4c" fill-rule="nonzero" fill-opacity="1" /><path clip-path="url(#clip650)" d="M1984.09 2267.89 Q1987.45 2268.6 1989.33 2270.87 Q1991.22 2273.14 1991.22 2276.47 Q1991.22 2281.59 1987.71 2284.39 Q1984.19 2287.19 1977.71 2287.19 Q1975.53 2287.19 1973.21 2286.75 Q1970.92 2286.33 1968.47 2285.48 L1968.47 2280.96 Q1970.41 2282.1 1972.73 2282.68 Q1975.04 2283.26 1977.57 2283.26 Q1981.96 2283.26 1984.26 2281.52 Q1986.57 2279.78 1986.57 2276.47 Q1986.57 2273.42 1984.42 2271.71 Q1982.29 2269.97 1978.47 2269.97 L1974.44 2269.97 L1974.44 2266.13 L1978.65 2266.13 Q1982.1 2266.13 1983.93 2264.76 Q1985.76 2263.37 1985.76 2260.78 Q1985.76 2258.12 1983.86 2256.71 Q1981.99 2255.27 1978.47 2255.27 Q1976.55 2255.27 1974.35 2255.69 Q1972.15 2256.1 1969.51 2256.98 L1969.51 2252.82 Q1972.17 2252.08 1974.49 2251.71 Q1976.83 2251.33 1978.89 2251.33 Q1984.21 2251.33 1987.31 2253.77 Q1990.41 2256.17 1990.41 2260.29 Q1990.41 2263.16 1988.77 2265.15 Q1987.13 2267.12 1984.09 2267.89 Z" fill="#4c4c4c" fill-rule="nonzero" fill-opacity="1" /><path clip-path="url(#clip650)" d="M2528.4 2256.03 L2516.59 2274.48 L2528.4 2274.48 L2528.4 2256.03 M2527.17 2251.96 L2533.05 2251.96 L2533.05 2274.48 L2537.98 2274.48 L2537.98 2278.37 L2533.05 2278.37 L2533.05 2286.52 L2528.4 2286.52 L2528.4 2278.37 L2512.79 2278.37 L2512.79 2273.86 L2527.17 2251.96 Z" fill="#4c4c4c" fill-rule="nonzero" fill-opacity="1" /><path clip-path="url(#clip650)" d="M3061.2 2251.96 L3079.56 2251.96 L3079.56 2255.9 L3065.49 2255.9 L3065.49 2264.37 Q3066.5 2264.02 3067.52 2263.86 Q3068.54 2263.67 3069.56 2263.67 Q3075.35 2263.67 3078.73 2266.84 Q3082.11 2270.02 3082.11 2275.43 Q3082.11 2281.01 3078.63 2284.11 Q3075.16 2287.19 3068.84 2287.19 Q3066.67 2287.19 3064.4 2286.82 Q3062.15 2286.45 3059.74 2285.71 L3059.74 2281.01 Q3061.83 2282.14 3064.05 2282.7 Q3066.27 2283.26 3068.75 2283.26 Q3072.75 2283.26 3075.09 2281.15 Q3077.43 2279.04 3077.43 2275.43 Q3077.43 2271.82 3075.09 2269.71 Q3072.75 2267.61 3068.75 2267.61 Q3066.87 2267.61 3065 2268.02 Q3063.15 2268.44 3061.2 2269.32 L3061.2 2251.96 Z" fill="#4c4c4c" fill-rule="nonzero" fill-opacity="1" /><path clip-path="url(#clip650)" d="M1706.14 2316.01 L1706.14 2326.14 L1718.2 2326.14 L1718.2 2330.69 L1706.14 2330.69 L1706.14 2350.04 Q1706.14 2354.4 1707.32 2355.64 Q1708.53 2356.88 1712.19 2356.88 L1718.2 2356.88 L1718.2 2361.78 L1712.19 2361.78 Q1705.41 2361.78 1702.83 2359.27 Q1700.25 2356.72 1700.25 2350.04 L1700.25 2330.69 L1695.95 2330.69 L1695.95 2326.14 L1700.25 2326.14 L1700.25 2316.01 L1706.14 2316.01 Z" fill="#000000" fill-rule="nonzero" fill-opacity="1" /><polyline clip-path="url(#clip650)" style="stroke:#ffffff; stroke-linecap:round; stroke-linejoin:round; stroke-width:4; stroke-opacity:1; fill:none" points="261.399,2204.92 261.399,111.592 "/>
<polyline clip-path="url(#clip650)" style="stroke:#333333; stroke-linecap:round; stroke-linejoin:round; stroke-width:4; stroke-opacity:1; fill:none" points="261.399,1876.7 242.501,1876.7 "/>
<polyline clip-path="url(#clip650)" style="stroke:#333333; stroke-linecap:round; stroke-linejoin:round; stroke-width:4; stroke-opacity:1; fill:none" points="261.399,1428.4 242.501,1428.4 "/>
<polyline clip-path="url(#clip650)" style="stroke:#333333; stroke-linecap:round; stroke-linejoin:round; stroke-width:4; stroke-opacity:1; fill:none" points="261.399,980.111 242.501,980.111 "/>
<polyline clip-path="url(#clip650)" style="stroke:#333333; stroke-linecap:round; stroke-linejoin:round; stroke-width:4; stroke-opacity:1; fill:none" points="261.399,531.817 242.501,531.817 "/>
<polyline clip-path="url(#clip650)" style="stroke:#333333; stroke-linecap:round; stroke-linejoin:round; stroke-width:4; stroke-opacity:1; fill:none" points="261.399,2100.85 251.95,2100.85 "/>
<polyline clip-path="url(#clip650)" style="stroke:#333333; stroke-linecap:round; stroke-linejoin:round; stroke-width:4; stroke-opacity:1; fill:none" points="261.399,1652.55 251.95,1652.55 "/>
<polyline clip-path="url(#clip650)" style="stroke:#333333; stroke-linecap:round; stroke-linejoin:round; stroke-width:4; stroke-opacity:1; fill:none" points="261.399,1204.26 251.95,1204.26 "/>
<polyline clip-path="url(#clip650)" style="stroke:#333333; stroke-linecap:round; stroke-linejoin:round; stroke-width:4; stroke-opacity:1; fill:none" points="261.399,755.964 251.95,755.964 "/>
<polyline clip-path="url(#clip650)" style="stroke:#333333; stroke-linecap:round; stroke-linejoin:round; stroke-width:4; stroke-opacity:1; fill:none" points="261.399,307.67 251.95,307.67 "/>
<path clip-path="url(#clip650)" d="M127.246 1890.04 L143.566 1890.04 L143.566 1893.98 L121.621 1893.98 L121.621 1890.04 Q124.283 1887.29 128.867 1882.66 Q133.473 1878.01 134.654 1876.66 Q136.899 1874.14 137.779 1872.4 Q138.681 1870.65 138.681 1868.96 Q138.681 1866.2 136.737 1864.46 Q134.816 1862.73 131.714 1862.73 Q129.515 1862.73 127.061 1863.49 Q124.631 1864.26 121.853 1865.81 L121.853 1861.09 Q124.677 1859.95 127.131 1859.37 Q129.584 1858.79 131.621 1858.79 Q136.992 1858.79 140.186 1861.48 Q143.38 1864.16 143.38 1868.65 Q143.38 1870.78 142.57 1872.71 Q141.783 1874.6 139.677 1877.2 Q139.098 1877.87 135.996 1881.08 Q132.894 1884.28 127.246 1890.04 Z" fill="#4c4c4c" fill-rule="nonzero" fill-opacity="1" /><path clip-path="url(#clip650)" d="M153.38 1888.1 L158.265 1888.1 L158.265 1893.98 L153.38 1893.98 L153.38 1888.1 Z" fill="#4c4c4c" fill-rule="nonzero" fill-opacity="1" /><path clip-path="url(#clip650)" d="M168.496 1859.42 L186.852 1859.42 L186.852 1863.35 L172.778 1863.35 L172.778 1871.83 Q173.797 1871.48 174.815 1871.32 Q175.834 1871.13 176.852 1871.13 Q182.639 1871.13 186.019 1874.3 Q189.399 1877.47 189.399 1882.89 Q189.399 1888.47 185.927 1891.57 Q182.454 1894.65 176.135 1894.65 Q173.959 1894.65 171.69 1894.28 Q169.445 1893.91 167.038 1893.17 L167.038 1888.47 Q169.121 1889.6 171.343 1890.16 Q173.565 1890.71 176.042 1890.71 Q180.047 1890.71 182.385 1888.61 Q184.723 1886.5 184.723 1882.89 Q184.723 1879.28 182.385 1877.17 Q180.047 1875.07 176.042 1875.07 Q174.167 1875.07 172.292 1875.48 Q170.44 1875.9 168.496 1876.78 L168.496 1859.42 Z" fill="#4c4c4c" fill-rule="nonzero" fill-opacity="1" /><path clip-path="url(#clip650)" d="M122.269 1411.12 L140.626 1411.12 L140.626 1415.06 L126.552 1415.06 L126.552 1423.53 Q127.57 1423.18 128.589 1423.02 Q129.607 1422.84 130.626 1422.84 Q136.413 1422.84 139.792 1426.01 Q143.172 1429.18 143.172 1434.6 Q143.172 1440.18 139.7 1443.28 Q136.228 1446.36 129.908 1446.36 Q127.732 1446.36 125.464 1445.99 Q123.219 1445.62 120.811 1444.87 L120.811 1440.18 Q122.894 1441.31 125.117 1441.87 Q127.339 1442.42 129.816 1442.42 Q133.82 1442.42 136.158 1440.31 Q138.496 1438.21 138.496 1434.6 Q138.496 1430.99 136.158 1428.88 Q133.82 1426.77 129.816 1426.77 Q127.941 1426.77 126.066 1427.19 Q124.214 1427.61 122.269 1428.49 L122.269 1411.12 Z" fill="#4c4c4c" fill-rule="nonzero" fill-opacity="1" /><path clip-path="url(#clip650)" d="M152.385 1439.8 L157.269 1439.8 L157.269 1445.68 L152.385 1445.68 L152.385 1439.8 Z" fill="#4c4c4c" fill-rule="nonzero" fill-opacity="1" /><path clip-path="url(#clip650)" d="M177.454 1414.2 Q173.843 1414.2 172.015 1417.77 Q170.209 1421.31 170.209 1428.44 Q170.209 1435.55 172.015 1439.11 Q173.843 1442.65 177.454 1442.65 Q181.089 1442.65 182.894 1439.11 Q184.723 1435.55 184.723 1428.44 Q184.723 1421.31 182.894 1417.77 Q181.089 1414.2 177.454 1414.2 M177.454 1410.5 Q183.264 1410.5 186.32 1415.11 Q189.399 1419.69 189.399 1428.44 Q189.399 1437.17 186.32 1441.77 Q183.264 1446.36 177.454 1446.36 Q171.644 1446.36 168.565 1441.77 Q165.51 1437.17 165.51 1428.44 Q165.51 1419.69 168.565 1415.11 Q171.644 1410.5 177.454 1410.5 Z" fill="#4c4c4c" fill-rule="nonzero" fill-opacity="1" /><path clip-path="url(#clip650)" d="M122.038 962.831 L144.26 962.831 L144.26 964.821 L131.714 997.391 L126.83 997.391 L138.635 966.766 L122.038 966.766 L122.038 962.831 Z" fill="#4c4c4c" fill-rule="nonzero" fill-opacity="1" /><path clip-path="url(#clip650)" d="M153.38 991.511 L158.265 991.511 L158.265 997.391 L153.38 997.391 L153.38 991.511 Z" fill="#4c4c4c" fill-rule="nonzero" fill-opacity="1" /><path clip-path="url(#clip650)" d="M168.496 962.831 L186.852 962.831 L186.852 966.766 L172.778 966.766 L172.778 975.238 Q173.797 974.891 174.815 974.729 Q175.834 974.544 176.852 974.544 Q182.639 974.544 186.019 977.715 Q189.399 980.886 189.399 986.303 Q189.399 991.881 185.927 994.983 Q182.454 998.062 176.135 998.062 Q173.959 998.062 171.69 997.692 Q169.445 997.321 167.038 996.58 L167.038 991.881 Q169.121 993.016 171.343 993.571 Q173.565 994.127 176.042 994.127 Q180.047 994.127 182.385 992.02 Q184.723 989.914 184.723 986.303 Q184.723 982.692 182.385 980.585 Q180.047 978.479 176.042 978.479 Q174.167 978.479 172.292 978.895 Q170.44 979.312 168.496 980.192 L168.496 962.831 Z" fill="#4c4c4c" fill-rule="nonzero" fill-opacity="1" /><path clip-path="url(#clip650)" d="M92.8715 545.162 L100.51 545.162 L100.51 518.796 L92.2002 520.463 L92.2002 516.203 L100.464 514.537 L105.14 514.537 L105.14 545.162 L112.779 545.162 L112.779 549.097 L92.8715 549.097 L92.8715 545.162 Z" fill="#4c4c4c" fill-rule="nonzero" fill-opacity="1" /><path clip-path="url(#clip650)" d="M132.223 517.615 Q128.612 517.615 126.783 521.18 Q124.978 524.722 124.978 531.851 Q124.978 538.958 126.783 542.523 Q128.612 546.064 132.223 546.064 Q135.857 546.064 137.663 542.523 Q139.492 538.958 139.492 531.851 Q139.492 524.722 137.663 521.18 Q135.857 517.615 132.223 517.615 M132.223 513.912 Q138.033 513.912 141.089 518.518 Q144.167 523.102 144.167 531.851 Q144.167 540.578 141.089 545.185 Q138.033 549.768 132.223 549.768 Q126.413 549.768 123.334 545.185 Q120.279 540.578 120.279 531.851 Q120.279 523.102 123.334 518.518 Q126.413 513.912 132.223 513.912 Z" fill="#4c4c4c" fill-rule="nonzero" fill-opacity="1" /><path clip-path="url(#clip650)" d="M152.385 543.217 L157.269 543.217 L157.269 549.097 L152.385 549.097 L152.385 543.217 Z" fill="#4c4c4c" fill-rule="nonzero" fill-opacity="1" /><path clip-path="url(#clip650)" d="M177.454 517.615 Q173.843 517.615 172.015 521.18 Q170.209 524.722 170.209 531.851 Q170.209 538.958 172.015 542.523 Q173.843 546.064 177.454 546.064 Q181.089 546.064 182.894 542.523 Q184.723 538.958 184.723 531.851 Q184.723 524.722 182.894 521.18 Q181.089 517.615 177.454 517.615 M177.454 513.912 Q183.264 513.912 186.32 518.518 Q189.399 523.102 189.399 531.851 Q189.399 540.578 186.32 545.185 Q183.264 549.768 177.454 549.768 Q171.644 549.768 168.565 545.185 Q165.51 540.578 165.51 531.851 Q165.51 523.102 168.565 518.518 Q171.644 513.912 177.454 513.912 Z" fill="#4c4c4c" fill-rule="nonzero" fill-opacity="1" /><path clip-path="url(#clip650)" d="M18.2962 1141.64 L35.6428 1154.53 L53.9442 1140.97 L53.9442 1147.88 L39.9396 1158.26 L53.9442 1168.63 L53.9442 1175.54 L35.2926 1161.69 L18.2962 1174.36 L18.2962 1167.45 L30.9958 1158 L18.2962 1148.55 L18.2962 1141.64 Z" fill="#000000" fill-rule="nonzero" fill-opacity="1" /><path clip-path="url(#clip650)" d="M650.008 20.3876 L650.008 25.4223 Q647.751 24.2649 645.321 23.6862 Q642.89 23.1075 640.286 23.1075 Q636.322 23.1075 634.326 24.3228 Q632.358 25.5381 632.358 27.9686 Q632.358 29.8204 633.776 30.891 Q635.194 31.9327 639.476 32.8876 L641.299 33.2926 Q646.97 34.5079 649.343 36.7359 Q651.744 38.935 651.744 42.8991 Q651.744 47.4129 648.156 50.046 Q644.597 52.6791 638.348 52.6791 Q635.743 52.6791 632.908 52.1583 Q630.101 51.6664 626.976 50.6537 L626.976 45.156 Q629.927 46.6896 632.792 47.4708 Q635.657 48.2231 638.463 48.2231 Q642.225 48.2231 644.25 46.95 Q646.276 45.6479 646.276 43.3042 Q646.276 41.134 644.8 39.9766 Q643.353 38.8192 638.405 37.7486 L636.554 37.3146 Q631.606 36.273 629.407 34.1318 Q627.208 31.9616 627.208 28.2001 Q627.208 23.6283 630.448 21.1399 Q633.689 18.6515 639.65 18.6515 Q642.601 18.6515 645.205 19.0855 Q647.809 19.5196 650.008 20.3876 Z" fill="#000000" fill-rule="nonzero" fill-opacity="1" /><path clip-path="url(#clip650)" d="M672.78 23.1654 Q668.498 23.1654 666.009 26.5218 Q663.521 29.8494 663.521 35.6653 Q663.521 41.4813 665.98 44.8377 Q668.469 48.1653 672.78 48.1653 Q677.034 48.1653 679.522 44.8088 Q682.01 41.4523 682.01 35.6653 Q682.01 29.9072 679.522 26.5508 Q677.034 23.1654 672.78 23.1654 M672.78 18.6515 Q679.725 18.6515 683.689 23.1654 Q687.653 27.6792 687.653 35.6653 Q687.653 43.6225 683.689 48.1653 Q679.725 52.6791 672.78 52.6791 Q665.807 52.6791 661.843 48.1653 Q657.908 43.6225 657.908 35.6653 Q657.908 27.6792 661.843 23.1654 Q665.807 18.6515 672.78 18.6515 Z" fill="#000000" fill-rule="nonzero" fill-opacity="1" /><path clip-path="url(#clip650)" d="M696.478 6.81709 L701.802 6.81709 L701.802 51.84 L696.478 51.84 L696.478 6.81709 Z" fill="#000000" fill-rule="nonzero" fill-opacity="1" /><path clip-path="url(#clip650)" d="M712.392 39.0507 L712.392 19.4328 L717.716 19.4328 L717.716 38.8482 Q717.716 43.4488 719.51 45.7636 Q721.304 48.0495 724.892 48.0495 Q729.203 48.0495 731.692 45.3007 Q734.209 42.5519 734.209 37.8065 L734.209 19.4328 L739.533 19.4328 L739.533 51.84 L734.209 51.84 L734.209 46.8632 Q732.271 49.8145 729.695 51.2613 Q727.149 52.6791 723.764 52.6791 Q718.179 52.6791 715.286 49.2069 Q712.392 45.7347 712.392 39.0507 M725.789 18.6515 L725.789 18.6515 Z" fill="#000000" fill-rule="nonzero" fill-opacity="1" /><path clip-path="url(#clip650)" d="M773.821 20.677 L773.821 25.6538 Q771.564 24.4096 769.279 23.802 Q767.022 23.1654 764.707 23.1654 Q759.527 23.1654 756.663 26.464 Q753.798 29.7336 753.798 35.6653 Q753.798 41.597 756.663 44.8956 Q759.527 48.1653 764.707 48.1653 Q767.022 48.1653 769.279 47.5576 Q771.564 46.921 773.821 45.6768 L773.821 50.5958 Q771.593 51.6375 769.192 52.1583 Q766.819 52.6791 764.128 52.6791 Q756.808 52.6791 752.496 48.0784 Q748.185 43.4778 748.185 35.6653 Q748.185 27.7371 752.525 23.1943 Q756.894 18.6515 764.475 18.6515 Q766.935 18.6515 769.279 19.1724 Q771.622 19.6642 773.821 20.677 M766.298 51.84 Q767.89 53.634 768.671 55.1386 Q769.452 56.6722 769.452 58.061 Q769.452 60.6362 767.716 61.9383 Q765.98 63.2693 762.566 63.2693 Q761.235 63.2693 759.961 63.0957 Q758.717 62.9221 757.473 62.5749 L757.473 58.7844 Q758.457 59.2763 759.527 59.4788 Q760.598 59.7103 761.958 59.7103 Q763.665 59.7103 764.533 59.0159 Q765.401 58.3214 765.401 56.9904 Q765.401 56.1224 764.765 54.8492 Q764.157 53.605 762.855 51.84 L766.298 51.84 Z" fill="#000000" fill-rule="nonzero" fill-opacity="1" /><path clip-path="url(#clip650)" d="M797.808 35.5496 Q791.356 35.5496 788.868 37.0253 Q786.379 38.501 786.379 42.06 Q786.379 44.8956 788.231 46.5738 Q790.112 48.2231 793.324 48.2231 Q797.751 48.2231 800.413 45.0981 Q803.104 41.9442 803.104 36.7359 L803.104 35.5496 L797.808 35.5496 M808.428 33.3505 L808.428 51.84 L803.104 51.84 L803.104 46.921 Q801.281 49.8724 798.561 51.2902 Q795.841 52.6791 791.906 52.6791 Q786.929 52.6791 783.978 49.9014 Q781.055 47.0947 781.055 42.4072 Q781.055 36.9385 784.701 34.1607 Q788.376 31.3829 795.638 31.3829 L803.104 31.3829 L803.104 30.8621 Q803.104 27.1874 800.673 25.1908 Q798.271 23.1654 793.902 23.1654 Q791.124 23.1654 788.491 23.8309 Q785.858 24.4964 783.428 25.8274 L783.428 20.9085 Q786.35 19.78 789.099 19.2302 Q791.848 18.6515 794.452 18.6515 Q801.483 18.6515 804.955 22.2973 Q808.428 25.9431 808.428 33.3505 M794.568 12.199 L792.918 10.6076 Q792.282 10.0289 791.79 9.76847 Q791.327 9.47912 790.951 9.47912 Q789.851 9.47912 789.33 10.5497 Q788.81 11.5914 788.752 13.964 L785.135 13.964 Q785.193 10.0578 786.668 7.94556 Q788.144 5.80437 790.777 5.80437 Q791.877 5.80437 792.803 6.20946 Q793.729 6.61455 794.799 7.5694 L796.449 9.16083 Q797.085 9.73953 797.548 10.0289 Q798.04 10.2893 798.416 10.2893 Q799.516 10.2893 800.036 9.24764 Q800.557 8.17704 800.615 5.80437 L804.232 5.80437 Q804.174 9.7106 802.698 11.8518 Q801.223 13.964 798.59 13.964 Q797.49 13.964 796.564 13.559 Q795.638 13.1539 794.568 12.199 Z" fill="#000000" fill-rule="nonzero" fill-opacity="1" /><path clip-path="url(#clip650)" d="M831.952 23.1654 Q827.669 23.1654 825.181 26.5218 Q822.693 29.8494 822.693 35.6653 Q822.693 41.4813 825.152 44.8377 Q827.64 48.1653 831.952 48.1653 Q836.205 48.1653 838.694 44.8088 Q841.182 41.4523 841.182 35.6653 Q841.182 29.9072 838.694 26.5508 Q836.205 23.1654 831.952 23.1654 M831.952 18.6515 Q838.896 18.6515 842.86 23.1654 Q846.824 27.6792 846.824 35.6653 Q846.824 43.6225 842.86 48.1653 Q838.896 52.6791 831.952 52.6791 Q824.978 52.6791 821.014 48.1653 Q817.079 43.6225 817.079 35.6653 Q817.079 27.6792 821.014 23.1654 Q824.978 18.6515 831.952 18.6515 Z" fill="#000000" fill-rule="nonzero" fill-opacity="1" /><path clip-path="url(#clip650)" d="M895.811 24.3517 L895.811 6.81709 L901.135 6.81709 L901.135 51.84 L895.811 51.84 L895.811 46.9789 Q894.133 49.8724 891.558 51.2902 Q889.012 52.6791 885.424 52.6791 Q879.55 52.6791 875.846 47.9916 Q872.171 43.3042 872.171 35.6653 Q872.171 28.0265 875.846 23.339 Q879.55 18.6515 885.424 18.6515 Q889.012 18.6515 891.558 20.0693 Q894.133 21.4582 895.811 24.3517 M877.669 35.6653 Q877.669 41.5391 880.071 44.8956 Q882.501 48.2231 886.726 48.2231 Q890.95 48.2231 893.381 44.8956 Q895.811 41.5391 895.811 35.6653 Q895.811 29.7915 893.381 26.464 Q890.95 23.1075 886.726 23.1075 Q882.501 23.1075 880.071 26.464 Q877.669 29.7915 877.669 35.6653 Z" fill="#000000" fill-rule="nonzero" fill-opacity="1" /><path clip-path="url(#clip650)" d="M926.83 35.5496 Q920.377 35.5496 917.889 37.0253 Q915.4 38.501 915.4 42.06 Q915.4 44.8956 917.252 46.5738 Q919.133 48.2231 922.345 48.2231 Q926.772 48.2231 929.434 45.0981 Q932.125 41.9442 932.125 36.7359 L932.125 35.5496 L926.83 35.5496 M937.449 33.3505 L937.449 51.84 L932.125 51.84 L932.125 46.921 Q930.302 49.8724 927.582 51.2902 Q924.862 52.6791 920.927 52.6791 Q915.95 52.6791 912.999 49.9014 Q910.076 47.0947 910.076 42.4072 Q910.076 36.9385 913.722 34.1607 Q917.397 31.3829 924.66 31.3829 L932.125 31.3829 L932.125 30.8621 Q932.125 27.1874 929.694 25.1908 Q927.293 23.1654 922.924 23.1654 Q920.146 23.1654 917.513 23.8309 Q914.88 24.4964 912.449 25.8274 L912.449 20.9085 Q915.371 19.78 918.12 19.2302 Q920.869 18.6515 923.473 18.6515 Q930.505 18.6515 933.977 22.2973 Q937.449 25.9431 937.449 33.3505 Z" fill="#000000" fill-rule="nonzero" fill-opacity="1" /><path clip-path="url(#clip650)" d="M994.972 34.3054 L994.972 36.9095 L970.493 36.9095 Q970.84 42.4072 973.791 45.3007 Q976.772 48.1653 982.067 48.1653 Q985.134 48.1653 987.998 47.4129 Q990.892 46.6606 993.728 45.156 L993.728 50.1907 Q990.863 51.406 987.854 52.0425 Q984.844 52.6791 981.748 52.6791 Q973.994 52.6791 969.451 48.1653 Q964.937 43.6514 964.937 35.9547 Q964.937 27.9975 969.22 23.339 Q973.531 18.6515 980.823 18.6515 Q987.362 18.6515 991.152 22.876 Q994.972 27.0716 994.972 34.3054 M989.648 32.7429 Q989.59 28.3737 987.188 25.7695 Q984.816 23.1654 980.88 23.1654 Q976.424 23.1654 973.733 25.6827 Q971.071 28.2001 970.666 32.7718 L989.648 32.7429 Z" fill="#000000" fill-rule="nonzero" fill-opacity="1" /><path clip-path="url(#clip650)" d="M1006.89 35.6653 Q1006.89 41.5391 1009.29 44.8956 Q1011.73 48.2231 1015.95 48.2231 Q1020.17 48.2231 1022.6 44.8956 Q1025.04 41.5391 1025.04 35.6653 Q1025.04 29.7915 1022.6 26.464 Q1020.17 23.1075 1015.95 23.1075 Q1011.73 23.1075 1009.29 26.464 Q1006.89 29.7915 1006.89 35.6653 M1025.04 46.9789 Q1023.36 49.8724 1020.78 51.2902 Q1018.24 52.6791 1014.65 52.6791 Q1008.77 52.6791 1005.07 47.9916 Q1001.4 43.3042 1001.4 35.6653 Q1001.4 28.0265 1005.07 23.339 Q1008.77 18.6515 1014.65 18.6515 Q1018.24 18.6515 1020.78 20.0693 Q1023.36 21.4582 1025.04 24.3517 L1025.04 19.4328 L1030.36 19.4328 L1030.36 64.1663 L1025.04 64.1663 L1025.04 46.9789 Z" fill="#000000" fill-rule="nonzero" fill-opacity="1" /><path clip-path="url(#clip650)" d="M1040.78 39.0507 L1040.78 19.4328 L1046.1 19.4328 L1046.1 38.8482 Q1046.1 43.4488 1047.89 45.7636 Q1049.69 48.0495 1053.28 48.0495 Q1057.59 48.0495 1060.08 45.3007 Q1062.59 42.5519 1062.59 37.8065 L1062.59 19.4328 L1067.92 19.4328 L1067.92 51.84 L1062.59 51.84 L1062.59 46.8632 Q1060.65 49.8145 1058.08 51.2613 Q1055.53 52.6791 1052.15 52.6791 Q1046.56 52.6791 1043.67 49.2069 Q1040.78 45.7347 1040.78 39.0507 M1054.17 18.6515 L1054.17 18.6515 Z" fill="#000000" fill-rule="nonzero" fill-opacity="1" /><path clip-path="url(#clip650)" d="M1093.61 35.5496 Q1087.16 35.5496 1084.67 37.0253 Q1082.18 38.501 1082.18 42.06 Q1082.18 44.8956 1084.03 46.5738 Q1085.91 48.2231 1089.13 48.2231 Q1093.55 48.2231 1096.22 45.0981 Q1098.91 41.9442 1098.91 36.7359 L1098.91 35.5496 L1093.61 35.5496 M1104.23 33.3505 L1104.23 51.84 L1098.91 51.84 L1098.91 46.921 Q1097.08 49.8724 1094.36 51.2902 Q1091.64 52.6791 1087.71 52.6791 Q1082.73 52.6791 1079.78 49.9014 Q1076.86 47.0947 1076.86 42.4072 Q1076.86 36.9385 1080.5 34.1607 Q1084.18 31.3829 1091.44 31.3829 L1098.91 31.3829 L1098.91 30.8621 Q1098.91 27.1874 1096.48 25.1908 Q1094.07 23.1654 1089.71 23.1654 Q1086.93 23.1654 1084.29 23.8309 Q1081.66 24.4964 1079.23 25.8274 L1079.23 20.9085 Q1082.15 19.78 1084.9 19.2302 Q1087.65 18.6515 1090.25 18.6515 Q1097.29 18.6515 1100.76 22.2973 Q1104.23 25.9431 1104.23 33.3505 Z" fill="#000000" fill-rule="nonzero" fill-opacity="1" /><path clip-path="url(#clip650)" d="M1138.52 20.677 L1138.52 25.6538 Q1136.26 24.4096 1133.98 23.802 Q1131.72 23.1654 1129.4 23.1654 Q1124.22 23.1654 1121.36 26.464 Q1118.5 29.7336 1118.5 35.6653 Q1118.5 41.597 1121.36 44.8956 Q1124.22 48.1653 1129.4 48.1653 Q1131.72 48.1653 1133.98 47.5576 Q1136.26 46.921 1138.52 45.6768 L1138.52 50.5958 Q1136.29 51.6375 1133.89 52.1583 Q1131.52 52.6791 1128.83 52.6791 Q1121.5 52.6791 1117.19 48.0784 Q1112.88 43.4778 1112.88 35.6653 Q1112.88 27.7371 1117.22 23.1943 Q1121.59 18.6515 1129.17 18.6515 Q1131.63 18.6515 1133.98 19.1724 Q1136.32 19.6642 1138.52 20.677 M1131 51.84 Q1132.59 53.634 1133.37 55.1386 Q1134.15 56.6722 1134.15 58.061 Q1134.15 60.6362 1132.41 61.9383 Q1130.68 63.2693 1127.26 63.2693 Q1125.93 63.2693 1124.66 63.0957 Q1123.41 62.9221 1122.17 62.5749 L1122.17 58.7844 Q1123.15 59.2763 1124.22 59.4788 Q1125.3 59.7103 1126.66 59.7103 Q1128.36 59.7103 1129.23 59.0159 Q1130.1 58.3214 1130.1 56.9904 Q1130.1 56.1224 1129.46 54.8492 Q1128.85 53.605 1127.55 51.84 L1131 51.84 Z" fill="#000000" fill-rule="nonzero" fill-opacity="1" /><path clip-path="url(#clip650)" d="M1162.51 35.5496 Q1156.05 35.5496 1153.56 37.0253 Q1151.08 38.501 1151.08 42.06 Q1151.08 44.8956 1152.93 46.5738 Q1154.81 48.2231 1158.02 48.2231 Q1162.45 48.2231 1165.11 45.0981 Q1167.8 41.9442 1167.8 36.7359 L1167.8 35.5496 L1162.51 35.5496 M1173.12 33.3505 L1173.12 51.84 L1167.8 51.84 L1167.8 46.921 Q1165.98 49.8724 1163.26 51.2902 Q1160.54 52.6791 1156.6 52.6791 Q1151.63 52.6791 1148.67 49.9014 Q1145.75 47.0947 1145.75 42.4072 Q1145.75 36.9385 1149.4 34.1607 Q1153.07 31.3829 1160.34 31.3829 L1167.8 31.3829 L1167.8 30.8621 Q1167.8 27.1874 1165.37 25.1908 Q1162.97 23.1654 1158.6 23.1654 Q1155.82 23.1654 1153.19 23.8309 Q1150.56 24.4964 1148.12 25.8274 L1148.12 20.9085 Q1151.05 19.78 1153.8 19.2302 Q1156.54 18.6515 1159.15 18.6515 Q1166.18 18.6515 1169.65 22.2973 Q1173.12 25.9431 1173.12 33.3505 M1159.26 12.199 L1157.62 10.6076 Q1156.98 10.0289 1156.49 9.76847 Q1156.02 9.47912 1155.65 9.47912 Q1154.55 9.47912 1154.03 10.5497 Q1153.51 11.5914 1153.45 13.964 L1149.83 13.964 Q1149.89 10.0578 1151.37 7.94556 Q1152.84 5.80437 1155.47 5.80437 Q1156.57 5.80437 1157.5 6.20946 Q1158.43 6.61455 1159.5 7.5694 L1161.15 9.16083 Q1161.78 9.73953 1162.25 10.0289 Q1162.74 10.2893 1163.11 10.2893 Q1164.21 10.2893 1164.73 9.24764 Q1165.25 8.17704 1165.31 5.80437 L1168.93 5.80437 Q1168.87 9.7106 1167.4 11.8518 Q1165.92 13.964 1163.29 13.964 Q1162.19 13.964 1161.26 13.559 Q1160.34 13.1539 1159.26 12.199 Z" fill="#000000" fill-rule="nonzero" fill-opacity="1" /><path clip-path="url(#clip650)" d="M1196.65 23.1654 Q1192.37 23.1654 1189.88 26.5218 Q1187.39 29.8494 1187.39 35.6653 Q1187.39 41.4813 1189.85 44.8377 Q1192.34 48.1653 1196.65 48.1653 Q1200.9 48.1653 1203.39 44.8088 Q1205.88 41.4523 1205.88 35.6653 Q1205.88 29.9072 1203.39 26.5508 Q1200.9 23.1654 1196.65 23.1654 M1196.65 18.6515 Q1203.59 18.6515 1207.56 23.1654 Q1211.52 27.6792 1211.52 35.6653 Q1211.52 43.6225 1207.56 48.1653 Q1203.59 52.6791 1196.65 52.6791 Q1189.68 52.6791 1185.71 48.1653 Q1181.78 43.6225 1181.78 35.6653 Q1181.78 27.6792 1185.71 23.1654 Q1189.68 18.6515 1196.65 18.6515 Z" fill="#000000" fill-rule="nonzero" fill-opacity="1" /><path clip-path="url(#clip650)" d="M1260.51 24.3517 L1260.51 6.81709 L1265.83 6.81709 L1265.83 51.84 L1260.51 51.84 L1260.51 46.9789 Q1258.83 49.8724 1256.26 51.2902 Q1253.71 52.6791 1250.12 52.6791 Q1244.25 52.6791 1240.54 47.9916 Q1236.87 43.3042 1236.87 35.6653 Q1236.87 28.0265 1240.54 23.339 Q1244.25 18.6515 1250.12 18.6515 Q1253.71 18.6515 1256.26 20.0693 Q1258.83 21.4582 1260.51 24.3517 M1242.37 35.6653 Q1242.37 41.5391 1244.77 44.8956 Q1247.2 48.2231 1251.42 48.2231 Q1255.65 48.2231 1258.08 44.8956 Q1260.51 41.5391 1260.51 35.6653 Q1260.51 29.7915 1258.08 26.464 Q1255.65 23.1075 1251.42 23.1075 Q1247.2 23.1075 1244.77 26.464 Q1242.37 29.7915 1242.37 35.6653 Z" fill="#000000" fill-rule="nonzero" fill-opacity="1" /><path clip-path="url(#clip650)" d="M1276.8 19.4328 L1282.12 19.4328 L1282.12 51.84 L1276.8 51.84 L1276.8 19.4328 M1276.8 6.81709 L1282.12 6.81709 L1282.12 13.559 L1276.8 13.559 L1276.8 6.81709 Z" fill="#000000" fill-rule="nonzero" fill-opacity="1" /><path clip-path="url(#clip650)" d="M1309.67 6.81709 L1309.67 11.2442 L1304.58 11.2442 Q1301.71 11.2442 1300.58 12.4016 Q1299.48 13.559 1299.48 16.5682 L1299.48 19.4328 L1308.25 19.4328 L1308.25 23.5705 L1299.48 23.5705 L1299.48 51.84 L1294.13 51.84 L1294.13 23.5705 L1289.04 23.5705 L1289.04 19.4328 L1294.13 19.4328 L1294.13 17.1758 Q1294.13 11.765 1296.65 9.30551 Q1299.17 6.81709 1304.63 6.81709 L1309.67 6.81709 Z" fill="#000000" fill-rule="nonzero" fill-opacity="1" /><path clip-path="url(#clip650)" d="M1341.84 34.3054 L1341.84 36.9095 L1317.37 36.9095 Q1317.71 42.4072 1320.66 45.3007 Q1323.64 48.1653 1328.94 48.1653 Q1332.01 48.1653 1334.87 47.4129 Q1337.77 46.6606 1340.6 45.156 L1340.6 50.1907 Q1337.74 51.406 1334.73 52.0425 Q1331.72 52.6791 1328.62 52.6791 Q1320.87 52.6791 1316.32 48.1653 Q1311.81 43.6514 1311.81 35.9547 Q1311.81 27.9975 1316.09 23.339 Q1320.4 18.6515 1327.7 18.6515 Q1334.23 18.6515 1338.03 22.876 Q1341.84 27.0716 1341.84 34.3054 M1336.52 32.7429 Q1336.46 28.3737 1334.06 25.7695 Q1331.69 23.1654 1327.75 23.1654 Q1323.3 23.1654 1320.61 25.6827 Q1317.94 28.2001 1317.54 32.7718 L1336.52 32.7429 Z" fill="#000000" fill-rule="nonzero" fill-opacity="1" /><path clip-path="url(#clip650)" d="M1369.36 24.4096 Q1368.47 23.8888 1367.39 23.6573 Q1366.35 23.3969 1365.08 23.3969 Q1360.57 23.3969 1358.14 26.3482 Q1355.73 29.2707 1355.73 34.7683 L1355.73 51.84 L1350.38 51.84 L1350.38 19.4328 L1355.73 19.4328 L1355.73 24.4675 Q1357.41 21.5161 1360.1 20.0983 Q1362.79 18.6515 1366.64 18.6515 Q1367.19 18.6515 1367.86 18.7383 Q1368.52 18.7962 1369.33 18.9409 L1369.36 24.4096 Z" fill="#000000" fill-rule="nonzero" fill-opacity="1" /><path clip-path="url(#clip650)" d="M1401.36 34.3054 L1401.36 36.9095 L1376.89 36.9095 Q1377.23 42.4072 1380.18 45.3007 Q1383.16 48.1653 1388.46 48.1653 Q1391.53 48.1653 1394.39 47.4129 Q1397.28 46.6606 1400.12 45.156 L1400.12 50.1907 Q1397.26 51.406 1394.25 52.0425 Q1391.24 52.6791 1388.14 52.6791 Q1380.39 52.6791 1375.84 48.1653 Q1371.33 43.6514 1371.33 35.9547 Q1371.33 27.9975 1375.61 23.339 Q1379.92 18.6515 1387.22 18.6515 Q1393.75 18.6515 1397.54 22.876 Q1401.36 27.0716 1401.36 34.3054 M1396.04 32.7429 Q1395.98 28.3737 1393.58 25.7695 Q1391.21 23.1654 1387.27 23.1654 Q1382.82 23.1654 1380.13 25.6827 Q1377.46 28.2001 1377.06 32.7718 L1396.04 32.7429 Z" fill="#000000" fill-rule="nonzero" fill-opacity="1" /><path clip-path="url(#clip650)" d="M1437.04 32.2799 L1437.04 51.84 L1431.72 51.84 L1431.72 32.4535 Q1431.72 27.8529 1429.92 25.567 Q1428.13 23.2811 1424.54 23.2811 Q1420.23 23.2811 1417.74 26.03 Q1415.25 28.7788 1415.25 33.5241 L1415.25 51.84 L1409.9 51.84 L1409.9 19.4328 L1415.25 19.4328 L1415.25 24.4675 Q1417.16 21.545 1419.74 20.0983 Q1422.34 18.6515 1425.73 18.6515 Q1431.31 18.6515 1434.18 22.1237 Q1437.04 25.567 1437.04 32.2799 Z" fill="#000000" fill-rule="nonzero" fill-opacity="1" /><path clip-path="url(#clip650)" d="M1470.98 20.677 L1470.98 25.6538 Q1468.72 24.4096 1466.44 23.802 Q1464.18 23.1654 1461.87 23.1654 Q1456.69 23.1654 1453.82 26.464 Q1450.96 29.7336 1450.96 35.6653 Q1450.96 41.597 1453.82 44.8956 Q1456.69 48.1653 1461.87 48.1653 Q1464.18 48.1653 1466.44 47.5576 Q1468.72 46.921 1470.98 45.6768 L1470.98 50.5958 Q1468.75 51.6375 1466.35 52.1583 Q1463.98 52.6791 1461.29 52.6791 Q1453.97 52.6791 1449.66 48.0784 Q1445.35 43.4778 1445.35 35.6653 Q1445.35 27.7371 1449.69 23.1943 Q1454.05 18.6515 1461.64 18.6515 Q1464.1 18.6515 1466.44 19.1724 Q1468.78 19.6642 1470.98 20.677 Z" fill="#000000" fill-rule="nonzero" fill-opacity="1" /><path clip-path="url(#clip650)" d="M1480.24 19.4328 L1485.57 19.4328 L1485.57 51.84 L1480.24 51.84 L1480.24 19.4328 M1480.24 6.81709 L1485.57 6.81709 L1485.57 13.559 L1480.24 13.559 L1480.24 6.81709 Z" fill="#000000" fill-rule="nonzero" fill-opacity="1" /><path clip-path="url(#clip650)" d="M1511.43 35.5496 Q1504.98 35.5496 1502.49 37.0253 Q1500 38.501 1500 42.06 Q1500 44.8956 1501.86 46.5738 Q1503.74 48.2231 1506.95 48.2231 Q1511.38 48.2231 1514.04 45.0981 Q1516.73 41.9442 1516.73 36.7359 L1516.73 35.5496 L1511.43 35.5496 M1522.05 33.3505 L1522.05 51.84 L1516.73 51.84 L1516.73 46.921 Q1514.91 49.8724 1512.19 51.2902 Q1509.47 52.6791 1505.53 52.6791 Q1500.55 52.6791 1497.6 49.9014 Q1494.68 47.0947 1494.68 42.4072 Q1494.68 36.9385 1498.33 34.1607 Q1502 31.3829 1509.26 31.3829 L1516.73 31.3829 L1516.73 30.8621 Q1516.73 27.1874 1514.3 25.1908 Q1511.9 23.1654 1507.53 23.1654 Q1504.75 23.1654 1502.12 23.8309 Q1499.48 24.4964 1497.05 25.8274 L1497.05 20.9085 Q1499.97 19.78 1502.72 19.2302 Q1505.47 18.6515 1508.08 18.6515 Q1515.11 18.6515 1518.58 22.2973 Q1522.05 25.9431 1522.05 33.3505 Z" fill="#000000" fill-rule="nonzero" fill-opacity="1" /><path clip-path="url(#clip650)" d="M1533.02 6.81709 L1538.34 6.81709 L1538.34 51.84 L1533.02 51.84 L1533.02 6.81709 Z" fill="#000000" fill-rule="nonzero" fill-opacity="1" /><path clip-path="url(#clip650)" d="M1583.05 35.5496 Q1576.59 35.5496 1574.11 37.0253 Q1571.62 38.501 1571.62 42.06 Q1571.62 44.8956 1573.47 46.5738 Q1575.35 48.2231 1578.56 48.2231 Q1582.99 48.2231 1585.65 45.0981 Q1588.34 41.9442 1588.34 36.7359 L1588.34 35.5496 L1583.05 35.5496 M1593.67 33.3505 L1593.67 51.84 L1588.34 51.84 L1588.34 46.921 Q1586.52 49.8724 1583.8 51.2902 Q1581.08 52.6791 1577.14 52.6791 Q1572.17 52.6791 1569.22 49.9014 Q1566.29 47.0947 1566.29 42.4072 Q1566.29 36.9385 1569.94 34.1607 Q1573.61 31.3829 1580.88 31.3829 L1588.34 31.3829 L1588.34 30.8621 Q1588.34 27.1874 1585.91 25.1908 Q1583.51 23.1654 1579.14 23.1654 Q1576.36 23.1654 1573.73 23.8309 Q1571.1 24.4964 1568.67 25.8274 L1568.67 20.9085 Q1571.59 19.78 1574.34 19.2302 Q1577.09 18.6515 1579.69 18.6515 Q1586.72 18.6515 1590.19 22.2973 Q1593.67 25.9431 1593.67 33.3505 Z" fill="#000000" fill-rule="nonzero" fill-opacity="1" /><path clip-path="url(#clip650)" d="M1604.63 6.81709 L1609.96 6.81709 L1609.96 51.84 L1604.63 51.84 L1604.63 6.81709 Z" fill="#000000" fill-rule="nonzero" fill-opacity="1" /><path clip-path="url(#clip650)" d="M1648.82 34.3054 L1648.82 36.9095 L1624.34 36.9095 Q1624.68 42.4072 1627.64 45.3007 Q1630.62 48.1653 1635.91 48.1653 Q1638.98 48.1653 1641.84 47.4129 Q1644.74 46.6606 1647.57 45.156 L1647.57 50.1907 Q1644.71 51.406 1641.7 52.0425 Q1638.69 52.6791 1635.59 52.6791 Q1627.84 52.6791 1623.3 48.1653 Q1618.78 43.6514 1618.78 35.9547 Q1618.78 27.9975 1623.06 23.339 Q1627.38 18.6515 1634.67 18.6515 Q1641.21 18.6515 1645 22.876 Q1648.82 27.0716 1648.82 34.3054 M1643.49 32.7429 Q1643.43 28.3737 1641.03 25.7695 Q1638.66 23.1654 1634.73 23.1654 Q1630.27 23.1654 1627.58 25.6827 Q1624.92 28.2001 1624.51 32.7718 L1643.49 32.7429 Z" fill="#000000" fill-rule="nonzero" fill-opacity="1" /><path clip-path="url(#clip650)" d="M1672.28 35.5496 Q1665.83 35.5496 1663.34 37.0253 Q1660.85 38.501 1660.85 42.06 Q1660.85 44.8956 1662.71 46.5738 Q1664.59 48.2231 1667.8 48.2231 Q1672.23 48.2231 1674.89 45.0981 Q1677.58 41.9442 1677.58 36.7359 L1677.58 35.5496 L1672.28 35.5496 M1682.9 33.3505 L1682.9 51.84 L1677.58 51.84 L1677.58 46.921 Q1675.76 49.8724 1673.04 51.2902 Q1670.32 52.6791 1666.38 52.6791 Q1661.4 52.6791 1658.45 49.9014 Q1655.53 47.0947 1655.53 42.4072 Q1655.53 36.9385 1659.18 34.1607 Q1662.85 31.3829 1670.11 31.3829 L1677.58 31.3829 L1677.58 30.8621 Q1677.58 27.1874 1675.15 25.1908 Q1672.75 23.1654 1668.38 23.1654 Q1665.6 23.1654 1662.97 23.8309 Q1660.33 24.4964 1657.9 25.8274 L1657.9 20.9085 Q1660.82 19.78 1663.57 19.2302 Q1666.32 18.6515 1668.93 18.6515 Q1675.96 18.6515 1679.43 22.2973 Q1682.9 25.9431 1682.9 33.3505 Z" fill="#000000" fill-rule="nonzero" fill-opacity="1" /><path clip-path="url(#clip650)" d="M1699.13 10.2314 L1699.13 19.4328 L1710.1 19.4328 L1710.1 23.5705 L1699.13 23.5705 L1699.13 41.163 Q1699.13 45.1271 1700.21 46.2555 Q1701.3 47.384 1704.63 47.384 L1710.1 47.384 L1710.1 51.84 L1704.63 51.84 Q1698.47 51.84 1696.13 49.5541 Q1693.78 47.2393 1693.78 41.163 L1693.78 23.5705 L1689.88 23.5705 L1689.88 19.4328 L1693.78 19.4328 L1693.78 10.2314 L1699.13 10.2314 Z" fill="#000000" fill-rule="nonzero" fill-opacity="1" /><path clip-path="url(#clip650)" d="M1729.66 23.1654 Q1725.38 23.1654 1722.89 26.5218 Q1720.4 29.8494 1720.4 35.6653 Q1720.4 41.4813 1722.86 44.8377 Q1725.35 48.1653 1729.66 48.1653 Q1733.91 48.1653 1736.4 44.8088 Q1738.89 41.4523 1738.89 35.6653 Q1738.89 29.9072 1736.4 26.5508 Q1733.91 23.1654 1729.66 23.1654 M1729.66 18.6515 Q1736.61 18.6515 1740.57 23.1654 Q1744.53 27.6792 1744.53 35.6653 Q1744.53 43.6225 1740.57 48.1653 Q1736.61 52.6791 1729.66 52.6791 Q1722.69 52.6791 1718.72 48.1653 Q1714.79 43.6225 1714.79 35.6653 Q1714.79 27.6792 1718.72 23.1654 Q1722.69 18.6515 1729.66 18.6515 M1733.68 4.44442 L1739.44 4.44442 L1730.01 15.324 L1725.58 15.324 L1733.68 4.44442 Z" fill="#000000" fill-rule="nonzero" fill-opacity="1" /><path clip-path="url(#clip650)" d="M1772.14 24.4096 Q1771.24 23.8888 1770.17 23.6573 Q1769.13 23.3969 1767.86 23.3969 Q1763.34 23.3969 1760.91 26.3482 Q1758.51 29.2707 1758.51 34.7683 L1758.51 51.84 L1753.16 51.84 L1753.16 19.4328 L1758.51 19.4328 L1758.51 24.4675 Q1760.19 21.5161 1762.88 20.0983 Q1765.57 18.6515 1769.42 18.6515 Q1769.97 18.6515 1770.63 18.7383 Q1771.3 18.7962 1772.11 18.9409 L1772.14 24.4096 Z" fill="#000000" fill-rule="nonzero" fill-opacity="1" /><path clip-path="url(#clip650)" d="M1777.72 19.4328 L1783.05 19.4328 L1783.05 51.84 L1777.72 51.84 L1777.72 19.4328 M1777.72 6.81709 L1783.05 6.81709 L1783.05 13.559 L1777.72 13.559 L1777.72 6.81709 Z" fill="#000000" fill-rule="nonzero" fill-opacity="1" /><path clip-path="url(#clip650)" d="M1808.91 35.5496 Q1802.46 35.5496 1799.97 37.0253 Q1797.48 38.501 1797.48 42.06 Q1797.48 44.8956 1799.34 46.5738 Q1801.22 48.2231 1804.43 48.2231 Q1808.86 48.2231 1811.52 45.0981 Q1814.21 41.9442 1814.21 36.7359 L1814.21 35.5496 L1808.91 35.5496 M1819.53 33.3505 L1819.53 51.84 L1814.21 51.84 L1814.21 46.921 Q1812.39 49.8724 1809.67 51.2902 Q1806.95 52.6791 1803.01 52.6791 Q1798.03 52.6791 1795.08 49.9014 Q1792.16 47.0947 1792.16 42.4072 Q1792.16 36.9385 1795.81 34.1607 Q1799.48 31.3829 1806.74 31.3829 L1814.21 31.3829 L1814.21 30.8621 Q1814.21 27.1874 1811.78 25.1908 Q1809.38 23.1654 1805.01 23.1654 Q1802.23 23.1654 1799.6 23.8309 Q1796.96 24.4964 1794.53 25.8274 L1794.53 20.9085 Q1797.46 19.78 1800.2 19.2302 Q1802.95 18.6515 1805.56 18.6515 Q1812.59 18.6515 1816.06 22.2973 Q1819.53 25.9431 1819.53 33.3505 Z" fill="#000000" fill-rule="nonzero" fill-opacity="1" /><path clip-path="url(#clip650)" d="M1854.37 4.44442 L1862.53 15.2661 L1858.1 15.2661 L1848.67 4.44442 L1854.37 4.44442 Z" fill="#000000" fill-rule="nonzero" fill-opacity="1" /><path clip-path="url(#clip650)" d="M1878.42 39.0507 L1878.42 19.4328 L1883.74 19.4328 L1883.74 38.8482 Q1883.74 43.4488 1885.53 45.7636 Q1887.33 48.0495 1890.92 48.0495 Q1895.23 48.0495 1897.72 45.3007 Q1900.23 42.5519 1900.23 37.8065 L1900.23 19.4328 L1905.56 19.4328 L1905.56 51.84 L1900.23 51.84 L1900.23 46.8632 Q1898.29 49.8145 1895.72 51.2613 Q1893.17 52.6791 1889.79 52.6791 Q1884.2 52.6791 1881.31 49.2069 Q1878.42 45.7347 1878.42 39.0507 M1891.81 18.6515 L1891.81 18.6515 Z" fill="#000000" fill-rule="nonzero" fill-opacity="1" /><path clip-path="url(#clip650)" d="M1921.56 8.64 L1921.56 24.6989 L1916.64 24.6989 L1916.64 8.64 L1921.56 8.64 Z" fill="#000000" fill-rule="nonzero" fill-opacity="1" /><path clip-path="url(#clip650)" d="M1952.35 24.9304 L1989.44 24.9304 L1989.44 29.7915 L1952.35 29.7915 L1952.35 24.9304 M1952.35 36.7359 L1989.44 36.7359 L1989.44 41.6549 L1952.35 41.6549 L1952.35 36.7359 Z" fill="#000000" fill-rule="nonzero" fill-opacity="1" /><path clip-path="url(#clip650)" d="M2040.8 20.3876 L2040.8 25.4223 Q2038.54 24.2649 2036.11 23.6862 Q2033.68 23.1075 2031.08 23.1075 Q2027.11 23.1075 2025.12 24.3228 Q2023.15 25.5381 2023.15 27.9686 Q2023.15 29.8204 2024.57 30.891 Q2025.98 31.9327 2030.27 32.8876 L2032.09 33.2926 Q2037.76 34.5079 2040.13 36.7359 Q2042.54 38.935 2042.54 42.8991 Q2042.54 47.4129 2038.95 50.046 Q2035.39 52.6791 2029.14 52.6791 Q2026.53 52.6791 2023.7 52.1583 Q2020.89 51.6664 2017.77 50.6537 L2017.77 45.156 Q2020.72 46.6896 2023.58 47.4708 Q2026.45 48.2231 2029.25 48.2231 Q2033.02 48.2231 2035.04 46.95 Q2037.07 45.6479 2037.07 43.3042 Q2037.07 41.134 2035.59 39.9766 Q2034.14 38.8192 2029.2 37.7486 L2027.34 37.3146 Q2022.4 36.273 2020.2 34.1318 Q2018 31.9616 2018 28.2001 Q2018 23.6283 2021.24 21.1399 Q2024.48 18.6515 2030.44 18.6515 Q2033.39 18.6515 2036 19.0855 Q2038.6 19.5196 2040.8 20.3876 Z" fill="#000000" fill-rule="nonzero" fill-opacity="1" /><path clip-path="url(#clip650)" d="M2051.01 19.4328 L2056.34 19.4328 L2056.34 51.84 L2051.01 51.84 L2051.01 19.4328 M2051.01 6.81709 L2056.34 6.81709 L2056.34 13.559 L2051.01 13.559 L2051.01 6.81709 Z" fill="#000000" fill-rule="nonzero" fill-opacity="1" /><path clip-path="url(#clip650)" d="M2094.42 32.2799 L2094.42 51.84 L2089.09 51.84 L2089.09 32.4535 Q2089.09 27.8529 2087.3 25.567 Q2085.5 23.2811 2081.92 23.2811 Q2077.6 23.2811 2075.12 26.03 Q2072.63 28.7788 2072.63 33.5241 L2072.63 51.84 L2067.28 51.84 L2067.28 19.4328 L2072.63 19.4328 L2072.63 24.4675 Q2074.54 21.545 2077.11 20.0983 Q2079.72 18.6515 2083.1 18.6515 Q2088.69 18.6515 2091.55 22.1237 Q2094.42 25.567 2094.42 32.2799 Z" fill="#000000" fill-rule="nonzero" fill-opacity="1" /><path clip-path="url(#clip650)" d="M2117.82 6.87496 Q2113.95 13.53 2112.07 20.0404 Q2110.19 26.5508 2110.19 33.2348 Q2110.19 39.9188 2112.07 46.487 Q2113.98 53.0263 2117.82 59.6525 L2113.19 59.6525 Q2108.85 52.8527 2106.68 46.2845 Q2104.54 39.7162 2104.54 33.2348 Q2104.54 26.7823 2106.68 20.2429 Q2108.83 13.7036 2113.19 6.87496 L2117.82 6.87496 Z" fill="#000000" fill-rule="nonzero" fill-opacity="1" /><path clip-path="url(#clip650)" d="M2124.54 8.64 L2130.44 8.64 L2139.53 45.156 L2148.58 8.64 L2155.15 8.64 L2164.24 45.156 L2173.29 8.64 L2179.22 8.64 L2168.37 51.84 L2161.02 51.84 L2151.91 14.3402 L2142.71 51.84 L2135.36 51.84 L2124.54 8.64 Z" fill="#000000" fill-rule="nonzero" fill-opacity="1" /><path clip-path="url(#clip650)" d="M2185.91 6.87496 L2190.54 6.87496 Q2194.88 13.7036 2197.02 20.2429 Q2199.19 26.7823 2199.19 33.2348 Q2199.19 39.7162 2197.02 46.2845 Q2194.88 52.8527 2190.54 59.6525 L2185.91 59.6525 Q2189.76 53.0263 2191.64 46.487 Q2193.55 39.9188 2193.55 33.2348 Q2193.55 26.5508 2191.64 20.0404 Q2189.76 13.53 2185.91 6.87496 Z" fill="#000000" fill-rule="nonzero" fill-opacity="1" /><path clip-path="url(#clip650)" d="M2209.32 39.0507 L2209.32 19.4328 L2214.64 19.4328 L2214.64 38.8482 Q2214.64 43.4488 2216.44 45.7636 Q2218.23 48.0495 2221.82 48.0495 Q2226.13 48.0495 2228.62 45.3007 Q2231.13 42.5519 2231.13 37.8065 L2231.13 19.4328 L2236.46 19.4328 L2236.46 51.84 L2231.13 51.84 L2231.13 46.8632 Q2229.2 49.8145 2226.62 51.2613 Q2224.07 52.6791 2220.69 52.6791 Q2215.1 52.6791 2212.21 49.2069 Q2209.32 45.7347 2209.32 39.0507 M2222.71 18.6515 L2222.71 18.6515 Z" fill="#000000" fill-rule="nonzero" fill-opacity="1" /><path clip-path="url(#clip650)" d="M2252.46 4.44442 L2260.62 15.2661 L2256.19 15.2661 L2246.76 4.44442 L2252.46 4.44442 Z" fill="#000000" fill-rule="nonzero" fill-opacity="1" /><path clip-path="url(#clip650)" d="M2319.21 20.677 L2319.21 25.6538 Q2316.96 24.4096 2314.67 23.802 Q2312.41 23.1654 2310.1 23.1654 Q2304.92 23.1654 2302.05 26.464 Q2299.19 29.7336 2299.19 35.6653 Q2299.19 41.597 2302.05 44.8956 Q2304.92 48.1653 2310.1 48.1653 Q2312.41 48.1653 2314.67 47.5576 Q2316.96 46.921 2319.21 45.6768 L2319.21 50.5958 Q2316.98 51.6375 2314.58 52.1583 Q2312.21 52.6791 2309.52 52.6791 Q2302.2 52.6791 2297.89 48.0784 Q2293.58 43.4778 2293.58 35.6653 Q2293.58 27.7371 2297.92 23.1943 Q2302.29 18.6515 2309.87 18.6515 Q2312.33 18.6515 2314.67 19.1724 Q2317.01 19.6642 2319.21 20.677 Z" fill="#000000" fill-rule="nonzero" fill-opacity="1" /><path clip-path="url(#clip650)" d="M2341.03 23.1654 Q2336.75 23.1654 2334.26 26.5218 Q2331.77 29.8494 2331.77 35.6653 Q2331.77 41.4813 2334.23 44.8377 Q2336.72 48.1653 2341.03 48.1653 Q2345.28 48.1653 2347.77 44.8088 Q2350.26 41.4523 2350.26 35.6653 Q2350.26 29.9072 2347.77 26.5508 Q2345.28 23.1654 2341.03 23.1654 M2341.03 18.6515 Q2347.97 18.6515 2351.94 23.1654 Q2355.9 27.6792 2355.9 35.6653 Q2355.9 43.6225 2351.94 48.1653 Q2347.97 52.6791 2341.03 52.6791 Q2334.06 52.6791 2330.09 48.1653 Q2326.16 43.6225 2326.16 35.6653 Q2326.16 27.6792 2330.09 23.1654 Q2334.06 18.6515 2341.03 18.6515 Z" fill="#000000" fill-rule="nonzero" fill-opacity="1" /><path clip-path="url(#clip650)" d="M2389.96 25.6538 Q2391.96 22.0659 2394.73 20.3587 Q2397.51 18.6515 2401.27 18.6515 Q2406.34 18.6515 2409.08 22.2105 Q2411.83 25.7406 2411.83 32.2799 L2411.83 51.84 L2406.48 51.84 L2406.48 32.4535 Q2406.48 27.795 2404.83 25.5381 Q2403.18 23.2811 2399.8 23.2811 Q2395.66 23.2811 2393.26 26.03 Q2390.86 28.7788 2390.86 33.5241 L2390.86 51.84 L2385.5 51.84 L2385.5 32.4535 Q2385.5 27.7661 2383.85 25.5381 Q2382.2 23.2811 2378.76 23.2811 Q2374.68 23.2811 2372.28 26.0589 Q2369.88 28.8077 2369.88 33.5241 L2369.88 51.84 L2364.52 51.84 L2364.52 19.4328 L2369.88 19.4328 L2369.88 24.4675 Q2371.7 21.4872 2374.25 20.0693 Q2376.79 18.6515 2380.29 18.6515 Q2383.82 18.6515 2386.28 20.4455 Q2388.77 22.2395 2389.96 25.6538 Z" fill="#000000" fill-rule="nonzero" fill-opacity="1" /><path clip-path="url(#clip650)" d="M2446.32 4.44442 L2454.48 15.2661 L2450.06 15.2661 L2440.62 4.44442 L2446.32 4.44442 Z" fill="#000000" fill-rule="nonzero" fill-opacity="1" /><path clip-path="url(#clip650)" d="M2470.37 39.0507 L2470.37 19.4328 L2475.69 19.4328 L2475.69 38.8482 Q2475.69 43.4488 2477.49 45.7636 Q2479.28 48.0495 2482.87 48.0495 Q2487.18 48.0495 2489.67 45.3007 Q2492.19 42.5519 2492.19 37.8065 L2492.19 19.4328 L2497.51 19.4328 L2497.51 51.84 L2492.19 51.84 L2492.19 46.8632 Q2490.25 49.8145 2487.67 51.2613 Q2485.13 52.6791 2481.74 52.6791 Q2476.16 52.6791 2473.26 49.2069 Q2470.37 45.7347 2470.37 39.0507 M2483.77 18.6515 L2483.77 18.6515 Z" fill="#000000" fill-rule="nonzero" fill-opacity="1" /><path clip-path="url(#clip650)" d="M2521.27 6.87496 Q2517.39 13.53 2515.51 20.0404 Q2513.63 26.5508 2513.63 33.2348 Q2513.63 39.9188 2515.51 46.487 Q2517.42 53.0263 2521.27 59.6525 L2516.64 59.6525 Q2512.3 52.8527 2510.13 46.2845 Q2507.98 39.7162 2507.98 33.2348 Q2507.98 26.7823 2510.13 20.2429 Q2512.27 13.7036 2516.64 6.87496 L2521.27 6.87496 Z" fill="#000000" fill-rule="nonzero" fill-opacity="1" /><path clip-path="url(#clip650)" d="M2544.85 12.4884 Q2540.33 12.4884 2538.05 16.9444 Q2535.79 21.3714 2535.79 30.2834 Q2535.79 39.1665 2538.05 43.6225 Q2540.33 48.0495 2544.85 48.0495 Q2549.39 48.0495 2551.65 43.6225 Q2553.93 39.1665 2553.93 30.2834 Q2553.93 21.3714 2551.65 16.9444 Q2549.39 12.4884 2544.85 12.4884 M2544.85 7.85875 Q2552.11 7.85875 2555.93 13.6168 Q2559.78 19.346 2559.78 30.2834 Q2559.78 41.1919 2555.93 46.95 Q2552.11 52.6791 2544.85 52.6791 Q2537.59 52.6791 2533.74 46.95 Q2529.92 41.1919 2529.92 30.2834 Q2529.92 19.346 2533.74 13.6168 Q2537.59 7.85875 2544.85 7.85875 Z" fill="#000000" fill-rule="nonzero" fill-opacity="1" /><path clip-path="url(#clip650)" d="M2568.46 6.87496 L2573.09 6.87496 Q2577.43 13.7036 2579.57 20.2429 Q2581.74 26.7823 2581.74 33.2348 Q2581.74 39.7162 2579.57 46.2845 Q2577.43 52.8527 2573.09 59.6525 L2568.46 59.6525 Q2572.31 53.0263 2574.19 46.487 Q2576.1 39.9188 2576.1 33.2348 Q2576.1 26.5508 2574.19 20.0404 Q2572.31 13.53 2568.46 6.87496 Z" fill="#000000" fill-rule="nonzero" fill-opacity="1" /><path clip-path="url(#clip650)" d="M2611.95 24.9304 L2649.04 24.9304 L2649.04 29.7915 L2611.95 29.7915 L2611.95 24.9304 M2611.95 36.7359 L2649.04 36.7359 L2649.04 41.6549 L2611.95 41.6549 L2611.95 36.7359 Z" fill="#000000" fill-rule="nonzero" fill-opacity="1" /><path clip-path="url(#clip650)" d="M2681.51 46.921 L2691.06 46.921 L2691.06 13.964 L2680.67 16.0474 L2680.67 10.7233 L2691 8.64 L2696.84 8.64 L2696.84 46.921 L2706.39 46.921 L2706.39 51.84 L2681.51 51.84 L2681.51 46.921 Z" fill="#000000" fill-rule="nonzero" fill-opacity="1" /><path clip-path="url(#clip650)" d="M2718.2 44.4905 L2724.3 44.4905 L2724.3 51.84 L2718.2 51.84 L2718.2 44.4905 Z" fill="#000000" fill-rule="nonzero" fill-opacity="1" /><path clip-path="url(#clip650)" d="M2749.53 12.4884 Q2745.02 12.4884 2742.73 16.9444 Q2740.48 21.3714 2740.48 30.2834 Q2740.48 39.1665 2742.73 43.6225 Q2745.02 48.0495 2749.53 48.0495 Q2754.08 48.0495 2756.33 43.6225 Q2758.62 39.1665 2758.62 30.2834 Q2758.62 21.3714 2756.33 16.9444 Q2754.08 12.4884 2749.53 12.4884 M2749.53 7.85875 Q2756.8 7.85875 2760.62 13.6168 Q2764.46 19.346 2764.46 30.2834 Q2764.46 41.1919 2760.62 46.95 Q2756.8 52.6791 2749.53 52.6791 Q2742.27 52.6791 2738.42 46.95 Q2734.6 41.1919 2734.6 30.2834 Q2734.6 19.346 2738.42 13.6168 Q2742.27 7.85875 2749.53 7.85875 Z" fill="#000000" fill-rule="nonzero" fill-opacity="1" /><path clip-path="url(#clip650)" d="M2779.02 4.44442 L2787.18 15.2661 L2782.75 15.2661 L2773.32 4.44442 L2779.02 4.44442 Z" fill="#000000" fill-rule="nonzero" fill-opacity="1" /><polyline clip-path="url(#clip652)" style="stroke:#009af9; stroke-linecap:round; stroke-linejoin:round; stroke-width:4; stroke-opacity:1; fill:none" points="343.23,2145.67 348.685,2145.67 354.14,2145.54 359.596,2145.21 365.051,2144.82 370.507,2144.54 375.962,2144.31 381.417,2144.32 386.873,2144.59 392.328,2144.68 397.783,2144.67 403.239,2144.55 408.694,2144.57 414.15,2144.52 419.605,2144.15 425.06,2143.67 430.516,2143.38 435.971,2143.23 441.427,2143.01 446.882,2142.65 452.337,2142.28 457.793,2142.15 463.248,2141.86 468.704,2141.49 474.159,2141.18 479.614,2141.17 485.07,2141.25 490.525,2141.2 495.981,2140.98 501.436,2140.77 506.891,2140.07 512.347,2139.23 517.802,2138.25 523.257,2137.09 528.713,2135.92 534.168,2134.55 539.624,2133.15 545.079,2131.86 550.534,2130.84 555.99,2129.68 561.445,2128.53 566.901,2127.44 572.356,2125.91 577.811,2124.27 583.267,2122.65 588.722,2120.99 594.178,2119.57 599.633,2118.07 605.088,2116.31 610.544,2114.53 615.999,2112.73 621.455,2111.1 626.91,2109.33 632.365,2107.51 637.821,2105.67 643.276,2103.71 648.731,2101.71 654.187,2099.73 659.642,2097.62 665.098,2095.56 670.553,2093.4 676.008,2091.43 681.464,2089.6 686.919,2087.42 692.375,2085.21 697.83,2083.07 703.285,2080.94 708.741,2078.72 714.196,2076.36 719.652,2074.11 725.107,2071.76 730.562,2069.49 736.018,2067.09 741.473,2064.78 746.929,2062.55 752.384,2060.25 757.839,2058 763.295,2055.75 768.75,2053.35 774.205,2051 779.661,2048.68 785.116,2046.35 790.572,2043.98 796.027,2041.61 801.482,2039.08 806.938,2036.73 812.393,2034.31 817.849,2031.57 823.304,2028.78 828.759,2026.02 834.215,2023.28 839.67,2020.38 845.126,2017.37 850.581,2014.33 856.036,2011.27 861.492,2008.14 866.947,2004.97 872.402,2001.78 877.858,1998.56 883.313,1995.37 888.769,1992.22 894.224,1988.98 899.679,1985.74 905.135,1982.52 910.59,1979.28 916.046,1976.23 921.501,1973.44 926.956,1971.01 932.412,1968.77 937.867,1966.45 943.323,1963.7 948.778,1960.68 954.233,1957.56 959.689,1954.38 965.144,1951.34 970.6,1948.24 976.055,1945.1 981.51,1941.76 986.966,1938.67 992.421,1935.74 997.876,1932.58 1003.33,1929.6 1008.79,1926.73 1014.24,1923.45 1019.7,1920.22 1025.15,1917.03 1030.61,1913.88 1036.06,1910.65 1041.52,1907.24 1046.98,1904.13 1052.43,1901.35 1057.89,1898.38 1063.34,1895.68 1068.8,1892.55 1074.25,1889.09 1079.71,1885.32 1085.16,1881.53 1090.62,1877.77 1096.07,1874.23 1101.53,1870.61 1106.98,1866.82 1112.44,1863.14 1117.9,1859.34 1123.35,1855.22 1128.81,1851.02 1134.26,1846.77 1139.72,1843.02 1145.17,1839.37 1150.63,1835.56 1156.08,1831.5 1161.54,1827.58 1166.99,1823.97 1172.45,1820.1 1177.9,1816.07 1183.36,1812.31 1188.82,1809 1194.27,1806.27 1199.73,1803.4 1205.18,1800.42 1210.64,1797.53 1216.09,1794.77 1221.55,1791.58 1227,1788.04 1232.46,1784.6 1237.91,1781.16 1243.37,1778.02 1248.82,1773.6 1254.28,1769.38 1259.74,1765.45 1265.19,1760.92 1270.65,1757 1276.1,1753.26 1281.56,1749.76 1287.01,1745.51 1292.47,1741.55 1297.92,1737.49 1303.38,1733.68 1308.83,1729.39 1314.29,1725.32 1319.74,1720.93 1325.2,1716.23 1330.66,1712.08 1336.11,1707.49 1341.57,1702.48 1347.02,1698.16 1352.48,1692.88 1357.93,1687.42 1363.39,1682.07 1368.84,1676.76 1374.3,1671.57 1379.75,1665.98 1385.21,1660.5 1390.66,1655.62 1396.12,1650.59 1401.58,1645.61 1407.03,1639.92 1412.49,1633.78 1417.94,1627.98 1423.4,1622.44 1428.85,1616.38 1434.31,1610.07 1439.76,1604.49 1445.22,1598.51 1450.67,1592.16 1456.13,1586.02 1461.58,1580.45 1467.04,1574 1472.5,1566.99 1477.95,1559.6 1483.41,1552.99 1488.86,1547.05 1494.32,1540.63 1499.77,1533.27 1505.23,1526.33 1510.68,1519.15 1516.14,1511.98 1521.59,1504.61 1527.05,1497.73 1532.5,1490.26 1537.96,1482.97 1543.42,1475.83 1548.87,1468.33 1554.33,1460.48 1559.78,1452.18 1565.24,1443.58 1570.69,1434.82 1576.15,1425.93 1581.6,1416.95 1587.06,1407.87 1592.51,1398.97 1597.97,1390.28 1603.42,1381.4 1608.88,1372.02 1614.34,1362.52 1619.79,1353.13 1625.25,1343.75 1630.7,1334.69 1636.16,1326.2 1641.61,1317.19 1647.07,1307.89 1652.52,1298.8 1657.98,1289.56 1663.43,1280.59 1668.89,1272.21 1674.34,1263.63 1679.8,1254.78 1685.26,1245.88 1690.71,1237.41 1696.17,1230.19 1701.62,1224.29 1707.08,1217.89 1712.53,1211.27 1717.99,1203.51 1723.44,1196.44 1728.9,1190.22 1734.35,1183.71 1739.81,1178.28 1745.27,1173.11 1750.72,1167.3 1756.18,1162.97 1761.63,1159.21 1767.09,1155.54 1772.54,1151.49 1778,1148.54 1783.45,1146.5 1788.91,1145.74 1794.36,1144.75 1799.82,1142.88 1805.27,1139.2 1810.73,1136.65 1816.19,1133.84 1821.64,1131.21 1827.1,1131.11 1832.55,1129.32 1838.01,1127.14 1843.46,1123.87 1848.92,1119.78 1854.37,1114.42 1859.83,1108.75 1865.28,1104.19 1870.74,1097.83 1876.19,1092.26 1881.65,1086.23 1887.11,1080.04 1892.56,1071.78 1898.02,1063.51 1903.47,1056.41 1908.93,1048.94 1914.38,1042.82 1919.84,1037.24 1925.29,1030.02 1930.75,1021.96 1936.2,1013.38 1941.66,1005.87 1947.11,999.808 1952.57,991.923 1958.03,983.509 1963.48,975.676 1968.94,967.528 1974.39,957.269 1979.85,946.602 1985.3,936.636 1990.76,926.742 1996.21,917.272 2001.67,906.212 2007.12,893.262 2012.58,881.092 2018.03,869.332 2023.49,856.471 2028.95,842.926 2034.4,828.996 2039.86,814.623 2045.31,800.133 2050.77,785.071 2056.22,769.744 2061.68,754.2 2067.13,738.508 2072.59,722.681 2078.04,706.861 2083.5,690.684 2088.95,674.837 2094.41,658.803 2099.87,642.504 2105.32,626.791 2110.78,611.439 2116.23,595.995 2121.69,580.051 2127.14,564.508 2132.6,548.421 2138.05,533.427 2143.51,517.765 2148.96,501.687 2154.42,484.819 2159.87,467.673 2165.33,450.886 2170.79,433.869 2176.24,417.398 2181.7,401.494 2187.15,384.193 2192.61,366.957 2198.06,350.522 2203.52,334.741 2208.97,318.218 2214.43,301.074 2219.88,283.773 2225.34,268.117 2230.79,254.854 2236.25,240.617 2241.71,227.117 2247.16,216.984 2252.62,206.882 2258.07,195.301 2263.53,185.233 2268.98,177.489 2274.44,173.682 2279.89,172.168 2285.35,170.837 2290.8,172.599 2296.26,175.429 2301.71,179.331 2307.17,183.472 2312.63,188.158 2318.08,192.363 2323.54,194.511 2328.99,197.718 2334.45,199.766 2339.9,203.515 2345.36,207.909 2350.81,215.148 2356.27,226.612 2361.72,238.904 2367.18,252.043 2372.64,264.721 2378.09,277.642 2383.55,292.245 2389,306.171 2394.46,319.569 2399.91,332.243 2405.37,347.44 2410.82,362.844 2416.28,378.266 2421.73,393.947 2427.19,409.599 2432.64,425.354 2438.1,440.528 2443.56,456.978 2449.01,474.265 2454.47,491.943 2459.92,509.504 2465.38,526.799 2470.83,543.845 2476.29,561.256 2481.74,578.455 2487.2,595.106 2492.65,612.153 2498.11,628.903 2503.56,644.938 2509.02,660.143 2514.48,674.968 2519.93,690.211 2525.39,705.135 2530.84,719.678 2536.3,734.408 2541.75,747.384 2547.21,760.205 2552.66,772.086 2558.12,784.404 2563.57,795.425 2569.03,808.024 2574.48,818.814 2579.94,830.094 2585.4,842.353 2590.85,854.952 2596.31,867.222 2601.76,879.347 2607.22,888.246 2612.67,898.183 2618.13,907.511 2623.58,915.722 2629.04,924.469 2634.49,932.668 2639.95,940.841 2645.4,949.926 2650.86,958.367 2656.32,966.99 2661.77,975.073 2667.23,982.492 2672.68,991.578 2678.14,1001.86 2683.59,1013.4 2689.05,1025.71 2694.5,1038.39 2699.96,1051.17 2705.41,1063.81 2710.87,1076.34 2716.32,1088.68 2721.78,1100.88 2727.24,1112.3 2732.69,1123.93 2738.15,1135.47 2743.6,1146.23 2749.06,1155.29 2754.51,1164.94 2759.97,1174.88 2765.42,1185.06 2770.88,1194.62 2776.33,1202.99 2781.79,1211.72 2787.24,1220.08 2792.7,1226.99 2798.16,1232.06 2803.61,1237.15 2809.07,1242.3 2814.52,1249.32 2819.98,1255.89 2825.43,1261.8 2830.89,1268.28 2836.34,1275.28 2841.8,1282.63 2847.25,1289.91 2852.71,1298.33 2858.16,1306.39 2863.62,1314.17 2869.08,1321.54 2874.53,1328.13 2879.99,1335.1 2885.44,1341.38 2890.9,1345.64 2896.35,1350.68 2901.81,1356.22 2907.26,1360.97 2912.72,1366.36 2918.17,1373 2923.63,1380.63 2929.08,1388.81 2934.54,1396.47 2940,1404.2 2945.45,1411.69 2950.91,1419 2956.36,1426.23 2961.82,1433.18 2967.27,1440.35 2972.73,1447.73 2978.18,1455.3 2983.64,1463.3 2989.09,1469.89 2994.55,1475.56 3000,1480.93 3005.46,1486.03 3010.92,1491.05 3016.37,1496.5 3021.83,1502.12 3027.28,1507.77 3032.74,1513.28 3038.19,1518.48 3043.65,1523.95 3049.1,1528.59 3054.56,1532.89 3060.01,1537.68 3065.47,1543.45 3070.93,1549.11 "/>
</svg>
