<?xml version="1.0" encoding="utf-8"?>
<svg xmlns="http://www.w3.org/2000/svg" xmlns:xlink="http://www.w3.org/1999/xlink" width="800" height="600" viewBox="0 0 3200 2400">
<defs>
  <clipPath id="clip030">
    <rect x="0" y="0" width="3200" height="2400"/>
  </clipPath>
</defs>
<path clip-path="url(#clip030)" d="M0 2400 L3200 2400 L3200 0 L0 0  Z" fill="#ffffff" fill-rule="evenodd" fill-opacity="1"/>
<defs>
  <clipPath id="clip031">
    <rect x="640" y="0" width="2241" height="2241"/>
  </clipPath>
</defs>
<path clip-path="url(#clip030)" d="M231.723 2204.92 L3152.76 2204.92 L3152.76 111.592 L231.723 111.592  Z" fill="#eaeaea" fill-rule="evenodd" fill-opacity="1"/>
<defs>
  <clipPath id="clip032">
    <rect x="231" y="111" width="2922" height="2094"/>
  </clipPath>
</defs>
<polyline clip-path="url(#clip032)" style="stroke:#ffffff; stroke-linecap:round; stroke-linejoin:round; stroke-width:2; stroke-opacity:1; fill:none" points="589.963,2204.92 589.963,111.592 "/>
<polyline clip-path="url(#clip032)" style="stroke:#ffffff; stroke-linecap:round; stroke-linejoin:round; stroke-width:2; stroke-opacity:1; fill:none" points="1141.1,2204.92 1141.1,111.592 "/>
<polyline clip-path="url(#clip032)" style="stroke:#ffffff; stroke-linecap:round; stroke-linejoin:round; stroke-width:2; stroke-opacity:1; fill:none" points="1692.24,2204.92 1692.24,111.592 "/>
<polyline clip-path="url(#clip032)" style="stroke:#ffffff; stroke-linecap:round; stroke-linejoin:round; stroke-width:2; stroke-opacity:1; fill:none" points="2243.38,2204.92 2243.38,111.592 "/>
<polyline clip-path="url(#clip032)" style="stroke:#ffffff; stroke-linecap:round; stroke-linejoin:round; stroke-width:2; stroke-opacity:1; fill:none" points="2794.52,2204.92 2794.52,111.592 "/>
<polyline clip-path="url(#clip032)" style="stroke:#ffffff; stroke-linecap:round; stroke-linejoin:round; stroke-width:2; stroke-opacity:1; fill:none" points="231.723,1975.91 3152.76,1975.91 "/>
<polyline clip-path="url(#clip032)" style="stroke:#ffffff; stroke-linecap:round; stroke-linejoin:round; stroke-width:2; stroke-opacity:1; fill:none" points="231.723,1636.38 3152.76,1636.38 "/>
<polyline clip-path="url(#clip032)" style="stroke:#ffffff; stroke-linecap:round; stroke-linejoin:round; stroke-width:2; stroke-opacity:1; fill:none" points="231.723,1296.86 3152.76,1296.86 "/>
<polyline clip-path="url(#clip032)" style="stroke:#ffffff; stroke-linecap:round; stroke-linejoin:round; stroke-width:2; stroke-opacity:1; fill:none" points="231.723,957.33 3152.76,957.33 "/>
<polyline clip-path="url(#clip032)" style="stroke:#ffffff; stroke-linecap:round; stroke-linejoin:round; stroke-width:2; stroke-opacity:1; fill:none" points="231.723,617.803 3152.76,617.803 "/>
<polyline clip-path="url(#clip032)" style="stroke:#ffffff; stroke-linecap:round; stroke-linejoin:round; stroke-width:2; stroke-opacity:1; fill:none" points="231.723,278.276 3152.76,278.276 "/>
<polyline clip-path="url(#clip032)" style="stroke:#ffffff; stroke-linecap:round; stroke-linejoin:round; stroke-width:4; stroke-opacity:1; fill:none" points="314.394,2204.92 314.394,111.592 "/>
<polyline clip-path="url(#clip032)" style="stroke:#ffffff; stroke-linecap:round; stroke-linejoin:round; stroke-width:4; stroke-opacity:1; fill:none" points="865.532,2204.92 865.532,111.592 "/>
<polyline clip-path="url(#clip032)" style="stroke:#ffffff; stroke-linecap:round; stroke-linejoin:round; stroke-width:4; stroke-opacity:1; fill:none" points="1416.67,2204.92 1416.67,111.592 "/>
<polyline clip-path="url(#clip032)" style="stroke:#ffffff; stroke-linecap:round; stroke-linejoin:round; stroke-width:4; stroke-opacity:1; fill:none" points="1967.81,2204.92 1967.81,111.592 "/>
<polyline clip-path="url(#clip032)" style="stroke:#ffffff; stroke-linecap:round; stroke-linejoin:round; stroke-width:4; stroke-opacity:1; fill:none" points="2518.95,2204.92 2518.95,111.592 "/>
<polyline clip-path="url(#clip032)" style="stroke:#ffffff; stroke-linecap:round; stroke-linejoin:round; stroke-width:4; stroke-opacity:1; fill:none" points="3070.09,2204.92 3070.09,111.592 "/>
<polyline clip-path="url(#clip032)" style="stroke:#ffffff; stroke-linecap:round; stroke-linejoin:round; stroke-width:4; stroke-opacity:1; fill:none" points="231.723,2145.67 3152.76,2145.67 "/>
<polyline clip-path="url(#clip032)" style="stroke:#ffffff; stroke-linecap:round; stroke-linejoin:round; stroke-width:4; stroke-opacity:1; fill:none" points="231.723,1806.15 3152.76,1806.15 "/>
<polyline clip-path="url(#clip032)" style="stroke:#ffffff; stroke-linecap:round; stroke-linejoin:round; stroke-width:4; stroke-opacity:1; fill:none" points="231.723,1466.62 3152.76,1466.62 "/>
<polyline clip-path="url(#clip032)" style="stroke:#ffffff; stroke-linecap:round; stroke-linejoin:round; stroke-width:4; stroke-opacity:1; fill:none" points="231.723,1127.09 3152.76,1127.09 "/>
<polyline clip-path="url(#clip032)" style="stroke:#ffffff; stroke-linecap:round; stroke-linejoin:round; stroke-width:4; stroke-opacity:1; fill:none" points="231.723,787.567 3152.76,787.567 "/>
<polyline clip-path="url(#clip032)" style="stroke:#ffffff; stroke-linecap:round; stroke-linejoin:round; stroke-width:4; stroke-opacity:1; fill:none" points="231.723,448.04 3152.76,448.04 "/>
<polyline clip-path="url(#clip030)" style="stroke:#ffffff; stroke-linecap:round; stroke-linejoin:round; stroke-width:4; stroke-opacity:1; fill:none" points="231.723,2204.92 3152.76,2204.92 "/>
<polyline clip-path="url(#clip030)" style="stroke:#333333; stroke-linecap:round; stroke-linejoin:round; stroke-width:4; stroke-opacity:1; fill:none" points="314.394,2204.92 314.394,2223.82 "/>
<polyline clip-path="url(#clip030)" style="stroke:#333333; stroke-linecap:round; stroke-linejoin:round; stroke-width:4; stroke-opacity:1; fill:none" points="865.532,2204.92 865.532,2223.82 "/>
<polyline clip-path="url(#clip030)" style="stroke:#333333; stroke-linecap:round; stroke-linejoin:round; stroke-width:4; stroke-opacity:1; fill:none" points="1416.67,2204.92 1416.67,2223.82 "/>
<polyline clip-path="url(#clip030)" style="stroke:#333333; stroke-linecap:round; stroke-linejoin:round; stroke-width:4; stroke-opacity:1; fill:none" points="1967.81,2204.92 1967.81,2223.82 "/>
<polyline clip-path="url(#clip030)" style="stroke:#333333; stroke-linecap:round; stroke-linejoin:round; stroke-width:4; stroke-opacity:1; fill:none" points="2518.95,2204.92 2518.95,2223.82 "/>
<polyline clip-path="url(#clip030)" style="stroke:#333333; stroke-linecap:round; stroke-linejoin:round; stroke-width:4; stroke-opacity:1; fill:none" points="3070.09,2204.92 3070.09,2223.82 "/>
<polyline clip-path="url(#clip030)" style="stroke:#333333; stroke-linecap:round; stroke-linejoin:round; stroke-width:4; stroke-opacity:1; fill:none" points="589.963,2204.92 589.963,2214.37 "/>
<polyline clip-path="url(#clip030)" style="stroke:#333333; stroke-linecap:round; stroke-linejoin:round; stroke-width:4; stroke-opacity:1; fill:none" points="1141.1,2204.92 1141.1,2214.37 "/>
<polyline clip-path="url(#clip030)" style="stroke:#333333; stroke-linecap:round; stroke-linejoin:round; stroke-width:4; stroke-opacity:1; fill:none" points="1692.24,2204.92 1692.24,2214.37 "/>
<polyline clip-path="url(#clip030)" style="stroke:#333333; stroke-linecap:round; stroke-linejoin:round; stroke-width:4; stroke-opacity:1; fill:none" points="2243.38,2204.92 2243.38,2214.37 "/>
<polyline clip-path="url(#clip030)" style="stroke:#333333; stroke-linecap:round; stroke-linejoin:round; stroke-width:4; stroke-opacity:1; fill:none" points="2794.52,2204.92 2794.52,2214.37 "/>
<path clip-path="url(#clip030)" d="M314.394 2255.04 Q310.783 2255.04 308.954 2258.6 Q307.148 2262.14 307.148 2269.27 Q307.148 2276.38 308.954 2279.95 Q310.783 2283.49 314.394 2283.49 Q318.028 2283.49 319.833 2279.95 Q321.662 2276.38 321.662 2269.27 Q321.662 2262.14 319.833 2258.6 Q318.028 2255.04 314.394 2255.04 M314.394 2251.33 Q320.204 2251.33 323.259 2255.94 Q326.338 2260.52 326.338 2269.27 Q326.338 2278 323.259 2282.61 Q320.204 2287.19 314.394 2287.19 Q308.584 2287.19 305.505 2282.61 Q302.449 2278 302.449 2269.27 Q302.449 2260.52 305.505 2255.94 Q308.584 2251.33 314.394 2251.33 Z" fill="#4c4c4c" fill-rule="nonzero" fill-opacity="1" /><path clip-path="url(#clip030)" d="M855.914 2282.58 L863.553 2282.58 L863.553 2256.22 L855.243 2257.89 L855.243 2253.63 L863.507 2251.96 L868.182 2251.96 L868.182 2282.58 L875.821 2282.58 L875.821 2286.52 L855.914 2286.52 L855.914 2282.58 Z" fill="#4c4c4c" fill-rule="nonzero" fill-opacity="1" /><path clip-path="url(#clip030)" d="M1411.32 2282.58 L1427.64 2282.58 L1427.64 2286.52 L1405.7 2286.52 L1405.7 2282.58 Q1408.36 2279.83 1412.94 2275.2 Q1417.55 2270.55 1418.73 2269.21 Q1420.98 2266.68 1421.86 2264.95 Q1422.76 2263.19 1422.76 2261.5 Q1422.76 2258.74 1420.81 2257.01 Q1418.89 2255.27 1415.79 2255.27 Q1413.59 2255.27 1411.14 2256.03 Q1408.71 2256.8 1405.93 2258.35 L1405.93 2253.63 Q1408.75 2252.49 1411.21 2251.91 Q1413.66 2251.33 1415.7 2251.33 Q1421.07 2251.33 1424.26 2254.02 Q1427.46 2256.71 1427.46 2261.2 Q1427.46 2263.33 1426.65 2265.25 Q1425.86 2267.14 1423.75 2269.74 Q1423.17 2270.41 1420.07 2273.63 Q1416.97 2276.82 1411.32 2282.58 Z" fill="#4c4c4c" fill-rule="nonzero" fill-opacity="1" /><path clip-path="url(#clip030)" d="M1972.06 2267.89 Q1975.41 2268.6 1977.29 2270.87 Q1979.19 2273.14 1979.19 2276.47 Q1979.19 2281.59 1975.67 2284.39 Q1972.15 2287.19 1965.67 2287.19 Q1963.49 2287.19 1961.18 2286.75 Q1958.89 2286.33 1956.43 2285.48 L1956.43 2280.96 Q1958.38 2282.1 1960.69 2282.68 Q1963.01 2283.26 1965.53 2283.26 Q1969.93 2283.26 1972.22 2281.52 Q1974.53 2279.78 1974.53 2276.47 Q1974.53 2273.42 1972.38 2271.71 Q1970.25 2269.97 1966.43 2269.97 L1962.4 2269.97 L1962.4 2266.13 L1966.62 2266.13 Q1970.07 2266.13 1971.89 2264.76 Q1973.72 2263.37 1973.72 2260.78 Q1973.72 2258.12 1971.82 2256.71 Q1969.95 2255.27 1966.43 2255.27 Q1964.51 2255.27 1962.31 2255.69 Q1960.11 2256.1 1957.47 2256.98 L1957.47 2252.82 Q1960.14 2252.08 1962.45 2251.71 Q1964.79 2251.33 1966.85 2251.33 Q1972.17 2251.33 1975.27 2253.77 Q1978.38 2256.17 1978.38 2260.29 Q1978.38 2263.16 1976.73 2265.15 Q1975.09 2267.12 1972.06 2267.89 Z" fill="#4c4c4c" fill-rule="nonzero" fill-opacity="1" /><path clip-path="url(#clip030)" d="M2521.96 2256.03 L2510.15 2274.48 L2521.96 2274.48 L2521.96 2256.03 M2520.73 2251.96 L2526.61 2251.96 L2526.61 2274.48 L2531.54 2274.48 L2531.54 2278.37 L2526.61 2278.37 L2526.61 2286.52 L2521.96 2286.52 L2521.96 2278.37 L2506.35 2278.37 L2506.35 2273.86 L2520.73 2251.96 Z" fill="#4c4c4c" fill-rule="nonzero" fill-opacity="1" /><path clip-path="url(#clip030)" d="M3060.36 2251.96 L3078.72 2251.96 L3078.72 2255.9 L3064.65 2255.9 L3064.65 2264.37 Q3065.66 2264.02 3066.68 2263.86 Q3067.7 2263.67 3068.72 2263.67 Q3074.51 2263.67 3077.89 2266.84 Q3081.27 2270.02 3081.27 2275.43 Q3081.27 2281.01 3077.79 2284.11 Q3074.32 2287.19 3068 2287.19 Q3065.83 2287.19 3063.56 2286.82 Q3061.31 2286.45 3058.9 2285.71 L3058.9 2281.01 Q3060.99 2282.14 3063.21 2282.7 Q3065.43 2283.26 3067.91 2283.26 Q3071.91 2283.26 3074.25 2281.15 Q3076.59 2279.04 3076.59 2275.43 Q3076.59 2271.82 3074.25 2269.71 Q3071.91 2267.61 3067.91 2267.61 Q3066.03 2267.61 3064.16 2268.02 Q3062.31 2268.44 3060.36 2269.32 L3060.36 2251.96 Z" fill="#4c4c4c" fill-rule="nonzero" fill-opacity="1" /><path clip-path="url(#clip030)" d="M1691.3 2316.01 L1691.3 2326.14 L1703.36 2326.14 L1703.36 2330.69 L1691.3 2330.69 L1691.3 2350.04 Q1691.3 2354.4 1692.48 2355.64 Q1693.69 2356.88 1697.35 2356.88 L1703.36 2356.88 L1703.36 2361.78 L1697.35 2361.78 Q1690.57 2361.78 1687.99 2359.27 Q1685.41 2356.72 1685.41 2350.04 L1685.41 2330.69 L1681.12 2330.69 L1681.12 2326.14 L1685.41 2326.14 L1685.41 2316.01 L1691.3 2316.01 Z" fill="#000000" fill-rule="nonzero" fill-opacity="1" /><polyline clip-path="url(#clip030)" style="stroke:#ffffff; stroke-linecap:round; stroke-linejoin:round; stroke-width:4; stroke-opacity:1; fill:none" points="231.723,2204.92 231.723,111.592 "/>
<polyline clip-path="url(#clip030)" style="stroke:#333333; stroke-linecap:round; stroke-linejoin:round; stroke-width:4; stroke-opacity:1; fill:none" points="231.723,2145.67 212.825,2145.67 "/>
<polyline clip-path="url(#clip030)" style="stroke:#333333; stroke-linecap:round; stroke-linejoin:round; stroke-width:4; stroke-opacity:1; fill:none" points="231.723,1806.15 212.825,1806.15 "/>
<polyline clip-path="url(#clip030)" style="stroke:#333333; stroke-linecap:round; stroke-linejoin:round; stroke-width:4; stroke-opacity:1; fill:none" points="231.723,1466.62 212.825,1466.62 "/>
<polyline clip-path="url(#clip030)" style="stroke:#333333; stroke-linecap:round; stroke-linejoin:round; stroke-width:4; stroke-opacity:1; fill:none" points="231.723,1127.09 212.825,1127.09 "/>
<polyline clip-path="url(#clip030)" style="stroke:#333333; stroke-linecap:round; stroke-linejoin:round; stroke-width:4; stroke-opacity:1; fill:none" points="231.723,787.567 212.825,787.567 "/>
<polyline clip-path="url(#clip030)" style="stroke:#333333; stroke-linecap:round; stroke-linejoin:round; stroke-width:4; stroke-opacity:1; fill:none" points="231.723,448.04 212.825,448.04 "/>
<polyline clip-path="url(#clip030)" style="stroke:#333333; stroke-linecap:round; stroke-linejoin:round; stroke-width:4; stroke-opacity:1; fill:none" points="231.723,1975.91 222.274,1975.91 "/>
<polyline clip-path="url(#clip030)" style="stroke:#333333; stroke-linecap:round; stroke-linejoin:round; stroke-width:4; stroke-opacity:1; fill:none" points="231.723,1636.38 222.274,1636.38 "/>
<polyline clip-path="url(#clip030)" style="stroke:#333333; stroke-linecap:round; stroke-linejoin:round; stroke-width:4; stroke-opacity:1; fill:none" points="231.723,1296.86 222.274,1296.86 "/>
<polyline clip-path="url(#clip030)" style="stroke:#333333; stroke-linecap:round; stroke-linejoin:round; stroke-width:4; stroke-opacity:1; fill:none" points="231.723,957.33 222.274,957.33 "/>
<polyline clip-path="url(#clip030)" style="stroke:#333333; stroke-linecap:round; stroke-linejoin:round; stroke-width:4; stroke-opacity:1; fill:none" points="231.723,617.803 222.274,617.803 "/>
<polyline clip-path="url(#clip030)" style="stroke:#333333; stroke-linecap:round; stroke-linejoin:round; stroke-width:4; stroke-opacity:1; fill:none" points="231.723,278.276 222.274,278.276 "/>
<path clip-path="url(#clip030)" d="M93.3576 2159.02 L100.996 2159.02 L100.996 2132.65 L92.6863 2134.32 L92.6863 2130.06 L100.95 2128.39 L105.626 2128.39 L105.626 2159.02 L113.265 2159.02 L113.265 2162.95 L93.3576 2162.95 L93.3576 2159.02 Z" fill="#4c4c4c" fill-rule="nonzero" fill-opacity="1" /><path clip-path="url(#clip030)" d="M122.709 2157.08 L127.593 2157.08 L127.593 2162.95 L122.709 2162.95 L122.709 2157.08 Z" fill="#4c4c4c" fill-rule="nonzero" fill-opacity="1" /><path clip-path="url(#clip030)" d="M147.779 2131.47 Q144.167 2131.47 142.339 2135.04 Q140.533 2138.58 140.533 2145.71 Q140.533 2152.82 142.339 2156.38 Q144.167 2159.92 147.779 2159.92 Q151.413 2159.92 153.218 2156.38 Q155.047 2152.82 155.047 2145.71 Q155.047 2138.58 153.218 2135.04 Q151.413 2131.47 147.779 2131.47 M147.779 2127.77 Q153.589 2127.77 156.644 2132.38 Q159.723 2136.96 159.723 2145.71 Q159.723 2154.44 156.644 2159.04 Q153.589 2163.63 147.779 2163.63 Q141.968 2163.63 138.89 2159.04 Q135.834 2154.44 135.834 2145.71 Q135.834 2136.96 138.89 2132.38 Q141.968 2127.77 147.779 2127.77 Z" fill="#4c4c4c" fill-rule="nonzero" fill-opacity="1" /><path clip-path="url(#clip030)" d="M94.5844 1819.49 L102.223 1819.49 L102.223 1793.13 L93.9131 1794.79 L93.9131 1790.53 L102.177 1788.87 L106.853 1788.87 L106.853 1819.49 L114.492 1819.49 L114.492 1823.43 L94.5844 1823.43 L94.5844 1819.49 Z" fill="#4c4c4c" fill-rule="nonzero" fill-opacity="1" /><path clip-path="url(#clip030)" d="M123.936 1817.55 L128.82 1817.55 L128.82 1823.43 L123.936 1823.43 L123.936 1817.55 Z" fill="#4c4c4c" fill-rule="nonzero" fill-opacity="1" /><path clip-path="url(#clip030)" d="M139.816 1819.49 L147.454 1819.49 L147.454 1793.13 L139.144 1794.79 L139.144 1790.53 L147.408 1788.87 L152.084 1788.87 L152.084 1819.49 L159.723 1819.49 L159.723 1823.43 L139.816 1823.43 L139.816 1819.49 Z" fill="#4c4c4c" fill-rule="nonzero" fill-opacity="1" /><path clip-path="url(#clip030)" d="M94.9548 1479.97 L102.594 1479.97 L102.594 1453.6 L94.2835 1455.27 L94.2835 1451.01 L102.547 1449.34 L107.223 1449.34 L107.223 1479.97 L114.862 1479.97 L114.862 1483.9 L94.9548 1483.9 L94.9548 1479.97 Z" fill="#4c4c4c" fill-rule="nonzero" fill-opacity="1" /><path clip-path="url(#clip030)" d="M124.306 1478.02 L129.191 1478.02 L129.191 1483.9 L124.306 1483.9 L124.306 1478.02 Z" fill="#4c4c4c" fill-rule="nonzero" fill-opacity="1" /><path clip-path="url(#clip030)" d="M143.404 1479.97 L159.723 1479.97 L159.723 1483.9 L137.779 1483.9 L137.779 1479.97 Q140.441 1477.21 145.024 1472.58 Q149.63 1467.93 150.811 1466.59 Q153.056 1464.06 153.936 1462.33 Q154.839 1460.57 154.839 1458.88 Q154.839 1456.12 152.894 1454.39 Q150.973 1452.65 147.871 1452.65 Q145.672 1452.65 143.218 1453.41 Q140.788 1454.18 138.01 1455.73 L138.01 1451.01 Q140.834 1449.87 143.288 1449.29 Q145.742 1448.72 147.779 1448.72 Q153.149 1448.72 156.343 1451.4 Q159.538 1454.09 159.538 1458.58 Q159.538 1460.71 158.728 1462.63 Q157.941 1464.53 155.834 1467.12 Q155.255 1467.79 152.154 1471.01 Q149.052 1474.2 143.404 1479.97 Z" fill="#4c4c4c" fill-rule="nonzero" fill-opacity="1" /><path clip-path="url(#clip030)" d="M94.0057 1140.44 L101.645 1140.44 L101.645 1114.07 L93.3344 1115.74 L93.3344 1111.48 L101.598 1109.81 L106.274 1109.81 L106.274 1140.44 L113.913 1140.44 L113.913 1144.37 L94.0057 1144.37 L94.0057 1140.44 Z" fill="#4c4c4c" fill-rule="nonzero" fill-opacity="1" /><path clip-path="url(#clip030)" d="M123.357 1138.49 L128.242 1138.49 L128.242 1144.37 L123.357 1144.37 L123.357 1138.49 Z" fill="#4c4c4c" fill-rule="nonzero" fill-opacity="1" /><path clip-path="url(#clip030)" d="M152.593 1125.74 Q155.95 1126.46 157.825 1128.73 Q159.723 1130.99 159.723 1134.33 Q159.723 1139.44 156.204 1142.24 Q152.686 1145.05 146.204 1145.05 Q144.029 1145.05 141.714 1144.61 Q139.422 1144.19 136.968 1143.33 L136.968 1138.82 Q138.913 1139.95 141.228 1140.53 Q143.542 1141.11 146.066 1141.11 Q150.464 1141.11 152.755 1139.37 Q155.07 1137.64 155.07 1134.33 Q155.07 1131.27 152.917 1129.56 Q150.788 1127.82 146.968 1127.82 L142.941 1127.82 L142.941 1123.98 L147.154 1123.98 Q150.603 1123.98 152.431 1122.61 Q154.26 1121.23 154.26 1118.63 Q154.26 1115.97 152.362 1114.56 Q150.487 1113.12 146.968 1113.12 Q145.047 1113.12 142.848 1113.54 Q140.649 1113.96 138.01 1114.84 L138.01 1110.67 Q140.672 1109.93 142.987 1109.56 Q145.325 1109.19 147.385 1109.19 Q152.709 1109.19 155.811 1111.62 Q158.913 1114.03 158.913 1118.15 Q158.913 1121.02 157.269 1123.01 Q155.626 1124.98 152.593 1125.74 Z" fill="#4c4c4c" fill-rule="nonzero" fill-opacity="1" /><path clip-path="url(#clip030)" d="M92.8715 800.912 L100.51 800.912 L100.51 774.546 L92.2002 776.213 L92.2002 771.953 L100.464 770.287 L105.14 770.287 L105.14 800.912 L112.779 800.912 L112.779 804.847 L92.8715 804.847 L92.8715 800.912 Z" fill="#4c4c4c" fill-rule="nonzero" fill-opacity="1" /><path clip-path="url(#clip030)" d="M122.223 798.967 L127.107 798.967 L127.107 804.847 L122.223 804.847 L122.223 798.967 Z" fill="#4c4c4c" fill-rule="nonzero" fill-opacity="1" /><path clip-path="url(#clip030)" d="M150.14 774.361 L138.334 792.81 L150.14 792.81 L150.14 774.361 M148.913 770.287 L154.792 770.287 L154.792 792.81 L159.723 792.81 L159.723 796.699 L154.792 796.699 L154.792 804.847 L150.14 804.847 L150.14 796.699 L134.538 796.699 L134.538 792.185 L148.913 770.287 Z" fill="#4c4c4c" fill-rule="nonzero" fill-opacity="1" /><path clip-path="url(#clip030)" d="M94.3529 461.385 L101.992 461.385 L101.992 435.019 L93.6816 436.686 L93.6816 432.426 L101.945 430.76 L106.621 430.76 L106.621 461.385 L114.26 461.385 L114.26 465.32 L94.3529 465.32 L94.3529 461.385 Z" fill="#4c4c4c" fill-rule="nonzero" fill-opacity="1" /><path clip-path="url(#clip030)" d="M123.705 459.44 L128.589 459.44 L128.589 465.32 L123.705 465.32 L123.705 459.44 Z" fill="#4c4c4c" fill-rule="nonzero" fill-opacity="1" /><path clip-path="url(#clip030)" d="M138.82 430.76 L157.177 430.76 L157.177 434.695 L143.103 434.695 L143.103 443.167 Q144.121 442.82 145.14 442.658 Q146.158 442.473 147.177 442.473 Q152.964 442.473 156.343 445.644 Q159.723 448.815 159.723 454.232 Q159.723 459.811 156.251 462.912 Q152.779 465.991 146.459 465.991 Q144.283 465.991 142.015 465.621 Q139.769 465.25 137.362 464.51 L137.362 459.811 Q139.445 460.945 141.667 461.5 Q143.89 462.056 146.367 462.056 Q150.371 462.056 152.709 459.949 Q155.047 457.843 155.047 454.232 Q155.047 450.621 152.709 448.514 Q150.371 446.408 146.367 446.408 Q144.492 446.408 142.617 446.825 Q140.765 447.241 138.82 448.121 L138.82 430.76 Z" fill="#4c4c4c" fill-rule="nonzero" fill-opacity="1" /><path clip-path="url(#clip030)" d="M18.2962 1141.64 L35.6428 1154.53 L53.9442 1140.97 L53.9442 1147.88 L39.9396 1158.26 L53.9442 1168.63 L53.9442 1175.54 L35.2926 1161.69 L18.2962 1174.36 L18.2962 1167.45 L30.9958 1158 L18.2962 1148.55 L18.2962 1141.64 Z" fill="#000000" fill-rule="nonzero" fill-opacity="1" /><path clip-path="url(#clip030)" d="M1151.01 20.3876 L1151.01 25.4223 Q1148.75 24.2649 1146.32 23.6862 Q1143.89 23.1075 1141.29 23.1075 Q1137.32 23.1075 1135.33 24.3228 Q1133.36 25.5381 1133.36 27.9686 Q1133.36 29.8204 1134.78 30.891 Q1136.19 31.9327 1140.48 32.8876 L1142.3 33.2926 Q1147.97 34.5079 1150.34 36.7359 Q1152.75 38.935 1152.75 42.8991 Q1152.75 47.4129 1149.16 50.046 Q1145.6 52.6791 1139.35 52.6791 Q1136.74 52.6791 1133.91 52.1583 Q1131.1 51.6664 1127.98 50.6537 L1127.98 45.156 Q1130.93 46.6896 1133.79 47.4708 Q1136.66 48.2231 1139.46 48.2231 Q1143.23 48.2231 1145.25 46.95 Q1147.28 45.6479 1147.28 43.3042 Q1147.28 41.134 1145.8 39.9766 Q1144.35 38.8192 1139.41 37.7486 L1137.55 37.3146 Q1132.61 36.273 1130.41 34.1318 Q1128.21 31.9616 1128.21 28.2001 Q1128.21 23.6283 1131.45 21.1399 Q1134.69 18.6515 1140.65 18.6515 Q1143.6 18.6515 1146.21 19.0855 Q1148.81 19.5196 1151.01 20.3876 Z" fill="#000000" fill-rule="nonzero" fill-opacity="1" /><path clip-path="url(#clip030)" d="M1173.78 23.1654 Q1169.5 23.1654 1167.01 26.5218 Q1164.52 29.8494 1164.52 35.6653 Q1164.52 41.4813 1166.98 44.8377 Q1169.47 48.1653 1173.78 48.1653 Q1178.04 48.1653 1180.52 44.8088 Q1183.01 41.4523 1183.01 35.6653 Q1183.01 29.9072 1180.52 26.5508 Q1178.04 23.1654 1173.78 23.1654 M1173.78 18.6515 Q1180.73 18.6515 1184.69 23.1654 Q1188.65 27.6792 1188.65 35.6653 Q1188.65 43.6225 1184.69 48.1653 Q1180.73 52.6791 1173.78 52.6791 Q1166.81 52.6791 1162.84 48.1653 Q1158.91 43.6225 1158.91 35.6653 Q1158.91 27.6792 1162.84 23.1654 Q1166.81 18.6515 1173.78 18.6515 Z" fill="#000000" fill-rule="nonzero" fill-opacity="1" /><path clip-path="url(#clip030)" d="M1197.48 6.81709 L1202.8 6.81709 L1202.8 51.84 L1197.48 51.84 L1197.48 6.81709 Z" fill="#000000" fill-rule="nonzero" fill-opacity="1" /><path clip-path="url(#clip030)" d="M1213.39 39.0507 L1213.39 19.4328 L1218.72 19.4328 L1218.72 38.8482 Q1218.72 43.4488 1220.51 45.7636 Q1222.31 48.0495 1225.89 48.0495 Q1230.2 48.0495 1232.69 45.3007 Q1235.21 42.5519 1235.21 37.8065 L1235.21 19.4328 L1240.53 19.4328 L1240.53 51.84 L1235.21 51.84 L1235.21 46.8632 Q1233.27 49.8145 1230.7 51.2613 Q1228.15 52.6791 1224.77 52.6791 Q1219.18 52.6791 1216.29 49.2069 Q1213.39 45.7347 1213.39 39.0507 M1226.79 18.6515 L1226.79 18.6515 Z" fill="#000000" fill-rule="nonzero" fill-opacity="1" /><path clip-path="url(#clip030)" d="M1274.82 20.677 L1274.82 25.6538 Q1272.57 24.4096 1270.28 23.802 Q1268.02 23.1654 1265.71 23.1654 Q1260.53 23.1654 1257.66 26.464 Q1254.8 29.7336 1254.8 35.6653 Q1254.8 41.597 1257.66 44.8956 Q1260.53 48.1653 1265.71 48.1653 Q1268.02 48.1653 1270.28 47.5576 Q1272.57 46.921 1274.82 45.6768 L1274.82 50.5958 Q1272.59 51.6375 1270.19 52.1583 Q1267.82 52.6791 1265.13 52.6791 Q1257.81 52.6791 1253.5 48.0784 Q1249.19 43.4778 1249.19 35.6653 Q1249.19 27.7371 1253.53 23.1943 Q1257.9 18.6515 1265.48 18.6515 Q1267.94 18.6515 1270.28 19.1724 Q1272.62 19.6642 1274.82 20.677 M1267.3 51.84 Q1268.89 53.634 1269.67 55.1386 Q1270.45 56.6722 1270.45 58.061 Q1270.45 60.6362 1268.72 61.9383 Q1266.98 63.2693 1263.57 63.2693 Q1262.24 63.2693 1260.96 63.0957 Q1259.72 62.9221 1258.47 62.5749 L1258.47 58.7844 Q1259.46 59.2763 1260.53 59.4788 Q1261.6 59.7103 1262.96 59.7103 Q1264.67 59.7103 1265.53 59.0159 Q1266.4 58.3214 1266.4 56.9904 Q1266.4 56.1224 1265.77 54.8492 Q1265.16 53.605 1263.86 51.84 L1267.3 51.84 Z" fill="#000000" fill-rule="nonzero" fill-opacity="1" /><path clip-path="url(#clip030)" d="M1298.81 35.5496 Q1292.36 35.5496 1289.87 37.0253 Q1287.38 38.501 1287.38 42.06 Q1287.38 44.8956 1289.23 46.5738 Q1291.11 48.2231 1294.32 48.2231 Q1298.75 48.2231 1301.41 45.0981 Q1304.1 41.9442 1304.1 36.7359 L1304.1 35.5496 L1298.81 35.5496 M1309.43 33.3505 L1309.43 51.84 L1304.1 51.84 L1304.1 46.921 Q1302.28 49.8724 1299.56 51.2902 Q1296.84 52.6791 1292.91 52.6791 Q1287.93 52.6791 1284.98 49.9014 Q1282.06 47.0947 1282.06 42.4072 Q1282.06 36.9385 1285.7 34.1607 Q1289.38 31.3829 1296.64 31.3829 L1304.1 31.3829 L1304.1 30.8621 Q1304.1 27.1874 1301.67 25.1908 Q1299.27 23.1654 1294.9 23.1654 Q1292.13 23.1654 1289.49 23.8309 Q1286.86 24.4964 1284.43 25.8274 L1284.43 20.9085 Q1287.35 19.78 1290.1 19.2302 Q1292.85 18.6515 1295.45 18.6515 Q1302.48 18.6515 1305.96 22.2973 Q1309.43 25.9431 1309.43 33.3505 M1295.57 12.199 L1293.92 10.6076 Q1293.28 10.0289 1292.79 9.76847 Q1292.33 9.47912 1291.95 9.47912 Q1290.85 9.47912 1290.33 10.5497 Q1289.81 11.5914 1289.75 13.964 L1286.14 13.964 Q1286.19 10.0578 1287.67 7.94556 Q1289.15 5.80437 1291.78 5.80437 Q1292.88 5.80437 1293.8 6.20946 Q1294.73 6.61455 1295.8 7.5694 L1297.45 9.16083 Q1298.09 9.73953 1298.55 10.0289 Q1299.04 10.2893 1299.42 10.2893 Q1300.52 10.2893 1301.04 9.24764 Q1301.56 8.17704 1301.62 5.80437 L1305.23 5.80437 Q1305.18 9.7106 1303.7 11.8518 Q1302.22 13.964 1299.59 13.964 Q1298.49 13.964 1297.57 13.559 Q1296.64 13.1539 1295.57 12.199 Z" fill="#000000" fill-rule="nonzero" fill-opacity="1" /><path clip-path="url(#clip030)" d="M1332.95 23.1654 Q1328.67 23.1654 1326.18 26.5218 Q1323.69 29.8494 1323.69 35.6653 Q1323.69 41.4813 1326.15 44.8377 Q1328.64 48.1653 1332.95 48.1653 Q1337.21 48.1653 1339.7 44.8088 Q1342.18 41.4523 1342.18 35.6653 Q1342.18 29.9072 1339.7 26.5508 Q1337.21 23.1654 1332.95 23.1654 M1332.95 18.6515 Q1339.9 18.6515 1343.86 23.1654 Q1347.83 27.6792 1347.83 35.6653 Q1347.83 43.6225 1343.86 48.1653 Q1339.9 52.6791 1332.95 52.6791 Q1325.98 52.6791 1322.02 48.1653 Q1318.08 43.6225 1318.08 35.6653 Q1318.08 27.6792 1322.02 23.1654 Q1325.98 18.6515 1332.95 18.6515 Z" fill="#000000" fill-rule="nonzero" fill-opacity="1" /><path clip-path="url(#clip030)" d="M1396.81 24.3517 L1396.81 6.81709 L1402.14 6.81709 L1402.14 51.84 L1396.81 51.84 L1396.81 46.9789 Q1395.13 49.8724 1392.56 51.2902 Q1390.01 52.6791 1386.43 52.6791 Q1380.55 52.6791 1376.85 47.9916 Q1373.17 43.3042 1373.17 35.6653 Q1373.17 28.0265 1376.85 23.339 Q1380.55 18.6515 1386.43 18.6515 Q1390.01 18.6515 1392.56 20.0693 Q1395.13 21.4582 1396.81 24.3517 M1378.67 35.6653 Q1378.67 41.5391 1381.07 44.8956 Q1383.5 48.2231 1387.73 48.2231 Q1391.95 48.2231 1394.38 44.8956 Q1396.81 41.5391 1396.81 35.6653 Q1396.81 29.7915 1394.38 26.464 Q1391.95 23.1075 1387.73 23.1075 Q1383.5 23.1075 1381.07 26.464 Q1378.67 29.7915 1378.67 35.6653 Z" fill="#000000" fill-rule="nonzero" fill-opacity="1" /><path clip-path="url(#clip030)" d="M1427.83 35.5496 Q1421.38 35.5496 1418.89 37.0253 Q1416.4 38.501 1416.4 42.06 Q1416.4 44.8956 1418.25 46.5738 Q1420.13 48.2231 1423.35 48.2231 Q1427.77 48.2231 1430.44 45.0981 Q1433.13 41.9442 1433.13 36.7359 L1433.13 35.5496 L1427.83 35.5496 M1438.45 33.3505 L1438.45 51.84 L1433.13 51.84 L1433.13 46.921 Q1431.3 49.8724 1428.58 51.2902 Q1425.86 52.6791 1421.93 52.6791 Q1416.95 52.6791 1414 49.9014 Q1411.08 47.0947 1411.08 42.4072 Q1411.08 36.9385 1414.72 34.1607 Q1418.4 31.3829 1425.66 31.3829 L1433.13 31.3829 L1433.13 30.8621 Q1433.13 27.1874 1430.7 25.1908 Q1428.29 23.1654 1423.92 23.1654 Q1421.15 23.1654 1418.51 23.8309 Q1415.88 24.4964 1413.45 25.8274 L1413.45 20.9085 Q1416.37 19.78 1419.12 19.2302 Q1421.87 18.6515 1424.47 18.6515 Q1431.51 18.6515 1434.98 22.2973 Q1438.45 25.9431 1438.45 33.3505 Z" fill="#000000" fill-rule="nonzero" fill-opacity="1" /><path clip-path="url(#clip030)" d="M1495.97 34.3054 L1495.97 36.9095 L1471.49 36.9095 Q1471.84 42.4072 1474.79 45.3007 Q1477.77 48.1653 1483.07 48.1653 Q1486.14 48.1653 1489 47.4129 Q1491.89 46.6606 1494.73 45.156 L1494.73 50.1907 Q1491.86 51.406 1488.86 52.0425 Q1485.85 52.6791 1482.75 52.6791 Q1475 52.6791 1470.45 48.1653 Q1465.94 43.6514 1465.94 35.9547 Q1465.94 27.9975 1470.22 23.339 Q1474.53 18.6515 1481.82 18.6515 Q1488.36 18.6515 1492.15 22.876 Q1495.97 27.0716 1495.97 34.3054 M1490.65 32.7429 Q1490.59 28.3737 1488.19 25.7695 Q1485.82 23.1654 1481.88 23.1654 Q1477.43 23.1654 1474.73 25.6827 Q1472.07 28.2001 1471.67 32.7718 L1490.65 32.7429 Z" fill="#000000" fill-rule="nonzero" fill-opacity="1" /><path clip-path="url(#clip030)" d="M1507.89 35.6653 Q1507.89 41.5391 1510.3 44.8956 Q1512.73 48.2231 1516.95 48.2231 Q1521.18 48.2231 1523.61 44.8956 Q1526.04 41.5391 1526.04 35.6653 Q1526.04 29.7915 1523.61 26.464 Q1521.18 23.1075 1516.95 23.1075 Q1512.73 23.1075 1510.3 26.464 Q1507.89 29.7915 1507.89 35.6653 M1526.04 46.9789 Q1524.36 49.8724 1521.78 51.2902 Q1519.24 52.6791 1515.65 52.6791 Q1509.78 52.6791 1506.07 47.9916 Q1502.4 43.3042 1502.4 35.6653 Q1502.4 28.0265 1506.07 23.339 Q1509.78 18.6515 1515.65 18.6515 Q1519.24 18.6515 1521.78 20.0693 Q1524.36 21.4582 1526.04 24.3517 L1526.04 19.4328 L1531.36 19.4328 L1531.36 64.1663 L1526.04 64.1663 L1526.04 46.9789 Z" fill="#000000" fill-rule="nonzero" fill-opacity="1" /><path clip-path="url(#clip030)" d="M1541.78 39.0507 L1541.78 19.4328 L1547.1 19.4328 L1547.1 38.8482 Q1547.1 43.4488 1548.9 45.7636 Q1550.69 48.0495 1554.28 48.0495 Q1558.59 48.0495 1561.08 45.3007 Q1563.59 42.5519 1563.59 37.8065 L1563.59 19.4328 L1568.92 19.4328 L1568.92 51.84 L1563.59 51.84 L1563.59 46.8632 Q1561.66 49.8145 1559.08 51.2613 Q1556.53 52.6791 1553.15 52.6791 Q1547.56 52.6791 1544.67 49.2069 Q1541.78 45.7347 1541.78 39.0507 M1555.17 18.6515 L1555.17 18.6515 Z" fill="#000000" fill-rule="nonzero" fill-opacity="1" /><path clip-path="url(#clip030)" d="M1594.61 35.5496 Q1588.16 35.5496 1585.67 37.0253 Q1583.18 38.501 1583.18 42.06 Q1583.18 44.8956 1585.04 46.5738 Q1586.92 48.2231 1590.13 48.2231 Q1594.55 48.2231 1597.22 45.0981 Q1599.91 41.9442 1599.91 36.7359 L1599.91 35.5496 L1594.61 35.5496 M1605.23 33.3505 L1605.23 51.84 L1599.91 51.84 L1599.91 46.921 Q1598.08 49.8724 1595.36 51.2902 Q1592.65 52.6791 1588.71 52.6791 Q1583.73 52.6791 1580.78 49.9014 Q1577.86 47.0947 1577.86 42.4072 Q1577.86 36.9385 1581.51 34.1607 Q1585.18 31.3829 1592.44 31.3829 L1599.91 31.3829 L1599.91 30.8621 Q1599.91 27.1874 1597.48 25.1908 Q1595.08 23.1654 1590.71 23.1654 Q1587.93 23.1654 1585.3 23.8309 Q1582.66 24.4964 1580.23 25.8274 L1580.23 20.9085 Q1583.15 19.78 1585.9 19.2302 Q1588.65 18.6515 1591.26 18.6515 Q1598.29 18.6515 1601.76 22.2973 Q1605.23 25.9431 1605.23 33.3505 Z" fill="#000000" fill-rule="nonzero" fill-opacity="1" /><path clip-path="url(#clip030)" d="M1639.52 20.677 L1639.52 25.6538 Q1637.26 24.4096 1634.98 23.802 Q1632.72 23.1654 1630.41 23.1654 Q1625.23 23.1654 1622.36 26.464 Q1619.5 29.7336 1619.5 35.6653 Q1619.5 41.597 1622.36 44.8956 Q1625.23 48.1653 1630.41 48.1653 Q1632.72 48.1653 1634.98 47.5576 Q1637.26 46.921 1639.52 45.6768 L1639.52 50.5958 Q1637.29 51.6375 1634.89 52.1583 Q1632.52 52.6791 1629.83 52.6791 Q1622.51 52.6791 1618.19 48.0784 Q1613.88 43.4778 1613.88 35.6653 Q1613.88 27.7371 1618.22 23.1943 Q1622.59 18.6515 1630.17 18.6515 Q1632.63 18.6515 1634.98 19.1724 Q1637.32 19.6642 1639.52 20.677 M1632 51.84 Q1633.59 53.634 1634.37 55.1386 Q1635.15 56.6722 1635.15 58.061 Q1635.15 60.6362 1633.41 61.9383 Q1631.68 63.2693 1628.26 63.2693 Q1626.93 63.2693 1625.66 63.0957 Q1624.42 62.9221 1623.17 62.5749 L1623.17 58.7844 Q1624.16 59.2763 1625.23 59.4788 Q1626.3 59.7103 1627.66 59.7103 Q1629.36 59.7103 1630.23 59.0159 Q1631.1 58.3214 1631.1 56.9904 Q1631.1 56.1224 1630.46 54.8492 Q1629.86 53.605 1628.55 51.84 L1632 51.84 Z" fill="#000000" fill-rule="nonzero" fill-opacity="1" /><path clip-path="url(#clip030)" d="M1663.51 35.5496 Q1657.05 35.5496 1654.57 37.0253 Q1652.08 38.501 1652.08 42.06 Q1652.08 44.8956 1653.93 46.5738 Q1655.81 48.2231 1659.02 48.2231 Q1663.45 48.2231 1666.11 45.0981 Q1668.8 41.9442 1668.8 36.7359 L1668.8 35.5496 L1663.51 35.5496 M1674.13 33.3505 L1674.13 51.84 L1668.8 51.84 L1668.8 46.921 Q1666.98 49.8724 1664.26 51.2902 Q1661.54 52.6791 1657.6 52.6791 Q1652.63 52.6791 1649.68 49.9014 Q1646.75 47.0947 1646.75 42.4072 Q1646.75 36.9385 1650.4 34.1607 Q1654.07 31.3829 1661.34 31.3829 L1668.8 31.3829 L1668.8 30.8621 Q1668.8 27.1874 1666.37 25.1908 Q1663.97 23.1654 1659.6 23.1654 Q1656.82 23.1654 1654.19 23.8309 Q1651.56 24.4964 1649.13 25.8274 L1649.13 20.9085 Q1652.05 19.78 1654.8 19.2302 Q1657.55 18.6515 1660.15 18.6515 Q1667.18 18.6515 1670.65 22.2973 Q1674.13 25.9431 1674.13 33.3505 M1660.27 12.199 L1658.62 10.6076 Q1657.98 10.0289 1657.49 9.76847 Q1657.03 9.47912 1656.65 9.47912 Q1655.55 9.47912 1655.03 10.5497 Q1654.51 11.5914 1654.45 13.964 L1650.83 13.964 Q1650.89 10.0578 1652.37 7.94556 Q1653.84 5.80437 1656.48 5.80437 Q1657.58 5.80437 1658.5 6.20946 Q1659.43 6.61455 1660.5 7.5694 L1662.15 9.16083 Q1662.78 9.73953 1663.25 10.0289 Q1663.74 10.2893 1664.11 10.2893 Q1665.21 10.2893 1665.73 9.24764 Q1666.26 8.17704 1666.31 5.80437 L1669.93 5.80437 Q1669.87 9.7106 1668.4 11.8518 Q1666.92 13.964 1664.29 13.964 Q1663.19 13.964 1662.26 13.559 Q1661.34 13.1539 1660.27 12.199 Z" fill="#000000" fill-rule="nonzero" fill-opacity="1" /><path clip-path="url(#clip030)" d="M1697.65 23.1654 Q1693.37 23.1654 1690.88 26.5218 Q1688.39 29.8494 1688.39 35.6653 Q1688.39 41.4813 1690.85 44.8377 Q1693.34 48.1653 1697.65 48.1653 Q1701.9 48.1653 1704.39 44.8088 Q1706.88 41.4523 1706.88 35.6653 Q1706.88 29.9072 1704.39 26.5508 Q1701.9 23.1654 1697.65 23.1654 M1697.65 18.6515 Q1704.59 18.6515 1708.56 23.1654 Q1712.52 27.6792 1712.52 35.6653 Q1712.52 43.6225 1708.56 48.1653 Q1704.59 52.6791 1697.65 52.6791 Q1690.68 52.6791 1686.71 48.1653 Q1682.78 43.6225 1682.78 35.6653 Q1682.78 27.6792 1686.71 23.1654 Q1690.68 18.6515 1697.65 18.6515 Z" fill="#000000" fill-rule="nonzero" fill-opacity="1" /><path clip-path="url(#clip030)" d="M1740.18 6.81709 L1745.51 6.81709 L1745.51 51.84 L1740.18 51.84 L1740.18 6.81709 Z" fill="#000000" fill-rule="nonzero" fill-opacity="1" /><path clip-path="url(#clip030)" d="M1769.21 23.1654 Q1764.92 23.1654 1762.44 26.5218 Q1759.95 29.8494 1759.95 35.6653 Q1759.95 41.4813 1762.41 44.8377 Q1764.9 48.1653 1769.21 48.1653 Q1773.46 48.1653 1775.95 44.8088 Q1778.44 41.4523 1778.44 35.6653 Q1778.44 29.9072 1775.95 26.5508 Q1773.46 23.1654 1769.21 23.1654 M1769.21 18.6515 Q1776.15 18.6515 1780.12 23.1654 Q1784.08 27.6792 1784.08 35.6653 Q1784.08 43.6225 1780.12 48.1653 Q1776.15 52.6791 1769.21 52.6791 Q1762.23 52.6791 1758.27 48.1653 Q1754.33 43.6225 1754.33 35.6653 Q1754.33 27.6792 1758.27 23.1654 Q1762.23 18.6515 1769.21 18.6515 Z" fill="#000000" fill-rule="nonzero" fill-opacity="1" /><path clip-path="url(#clip030)" d="M1814.23 35.2602 Q1814.23 29.4732 1811.83 26.2904 Q1809.46 23.1075 1805.14 23.1075 Q1800.86 23.1075 1798.46 26.2904 Q1796.09 29.4732 1796.09 35.2602 Q1796.09 41.0183 1798.46 44.2012 Q1800.86 47.384 1805.14 47.384 Q1809.46 47.384 1811.83 44.2012 Q1814.23 41.0183 1814.23 35.2602 M1819.55 47.818 Q1819.55 56.0934 1815.88 60.1154 Q1812.2 64.1663 1804.62 64.1663 Q1801.82 64.1663 1799.33 63.7323 Q1796.84 63.3272 1794.5 62.4592 L1794.5 57.2798 Q1796.84 58.5529 1799.13 59.1606 Q1801.41 59.7682 1803.78 59.7682 Q1809.02 59.7682 1811.63 57.0194 Q1814.23 54.2995 1814.23 48.7729 L1814.23 46.1398 Q1812.58 49.0044 1810 50.4222 Q1807.43 51.84 1803.84 51.84 Q1797.88 51.84 1794.24 47.2972 Q1790.59 42.7544 1790.59 35.2602 Q1790.59 27.7371 1794.24 23.1943 Q1797.88 18.6515 1803.84 18.6515 Q1807.43 18.6515 1810 20.0693 Q1812.58 21.4872 1814.23 24.3517 L1814.23 19.4328 L1819.55 19.4328 L1819.55 47.818 Z" fill="#000000" fill-rule="nonzero" fill-opacity="1" /><path clip-path="url(#clip030)" d="M1837.2 4.44442 L1842.96 4.44442 L1833.53 15.324 L1829.1 15.324 L1837.2 4.44442 M1830.52 19.4328 L1835.84 19.4328 L1835.84 51.84 L1830.52 51.84 L1830.52 19.4328 M1833.18 18.6515 L1833.18 18.6515 Z" fill="#000000" fill-rule="nonzero" fill-opacity="1" /><path clip-path="url(#clip030)" d="M1867.64 20.3876 L1867.64 25.4223 Q1865.39 24.2649 1862.96 23.6862 Q1860.53 23.1075 1857.92 23.1075 Q1853.96 23.1075 1851.96 24.3228 Q1849.99 25.5381 1849.99 27.9686 Q1849.99 29.8204 1851.41 30.891 Q1852.83 31.9327 1857.11 32.8876 L1858.93 33.2926 Q1864.61 34.5079 1866.98 36.7359 Q1869.38 38.935 1869.38 42.8991 Q1869.38 47.4129 1865.79 50.046 Q1862.23 52.6791 1855.98 52.6791 Q1853.38 52.6791 1850.54 52.1583 Q1847.74 51.6664 1844.61 50.6537 L1844.61 45.156 Q1847.56 46.6896 1850.43 47.4708 Q1853.29 48.2231 1856.1 48.2231 Q1859.86 48.2231 1861.89 46.95 Q1863.91 45.6479 1863.91 43.3042 Q1863.91 41.134 1862.44 39.9766 Q1860.99 38.8192 1856.04 37.7486 L1854.19 37.3146 Q1849.24 36.273 1847.04 34.1318 Q1844.84 31.9616 1844.84 28.2001 Q1844.84 23.6283 1848.08 21.1399 Q1851.32 18.6515 1857.28 18.6515 Q1860.24 18.6515 1862.84 19.0855 Q1865.44 19.5196 1867.64 20.3876 Z" fill="#000000" fill-rule="nonzero" fill-opacity="1" /><path clip-path="url(#clip030)" d="M1883.12 10.2314 L1883.12 19.4328 L1894.09 19.4328 L1894.09 23.5705 L1883.12 23.5705 L1883.12 41.163 Q1883.12 45.1271 1884.19 46.2555 Q1885.29 47.384 1888.62 47.384 L1894.09 47.384 L1894.09 51.84 L1888.62 51.84 Q1882.46 51.84 1880.11 49.5541 Q1877.77 47.2393 1877.77 41.163 L1877.77 23.5705 L1873.86 23.5705 L1873.86 19.4328 L1877.77 19.4328 L1877.77 10.2314 L1883.12 10.2314 Z" fill="#000000" fill-rule="nonzero" fill-opacity="1" /><path clip-path="url(#clip030)" d="M1901.09 19.4328 L1906.42 19.4328 L1906.42 51.84 L1901.09 51.84 L1901.09 19.4328 M1901.09 6.81709 L1906.42 6.81709 L1906.42 13.559 L1901.09 13.559 L1901.09 6.81709 Z" fill="#000000" fill-rule="nonzero" fill-opacity="1" /><path clip-path="url(#clip030)" d="M1940.88 20.677 L1940.88 25.6538 Q1938.62 24.4096 1936.34 23.802 Q1934.08 23.1654 1931.76 23.1654 Q1926.58 23.1654 1923.72 26.464 Q1920.86 29.7336 1920.86 35.6653 Q1920.86 41.597 1923.72 44.8956 Q1926.58 48.1653 1931.76 48.1653 Q1934.08 48.1653 1936.34 47.5576 Q1938.62 46.921 1940.88 45.6768 L1940.88 50.5958 Q1938.65 51.6375 1936.25 52.1583 Q1933.88 52.6791 1931.18 52.6791 Q1923.86 52.6791 1919.55 48.0784 Q1915.24 43.4778 1915.24 35.6653 Q1915.24 27.7371 1919.58 23.1943 Q1923.95 18.6515 1931.53 18.6515 Q1933.99 18.6515 1936.34 19.1724 Q1938.68 19.6642 1940.88 20.677 Z" fill="#000000" fill-rule="nonzero" fill-opacity="1" /><path clip-path="url(#clip030)" d="M1964.87 35.5496 Q1958.41 35.5496 1955.92 37.0253 Q1953.44 38.501 1953.44 42.06 Q1953.44 44.8956 1955.29 46.5738 Q1957.17 48.2231 1960.38 48.2231 Q1964.81 48.2231 1967.47 45.0981 Q1970.16 41.9442 1970.16 36.7359 L1970.16 35.5496 L1964.87 35.5496 M1975.48 33.3505 L1975.48 51.84 L1970.16 51.84 L1970.16 46.921 Q1968.34 49.8724 1965.62 51.2902 Q1962.9 52.6791 1958.96 52.6791 Q1953.99 52.6791 1951.03 49.9014 Q1948.11 47.0947 1948.11 42.4072 Q1948.11 36.9385 1951.76 34.1607 Q1955.43 31.3829 1962.7 31.3829 L1970.16 31.3829 L1970.16 30.8621 Q1970.16 27.1874 1967.73 25.1908 Q1965.33 23.1654 1960.96 23.1654 Q1958.18 23.1654 1955.55 23.8309 Q1952.92 24.4964 1950.48 25.8274 L1950.48 20.9085 Q1953.41 19.78 1956.16 19.2302 Q1958.9 18.6515 1961.51 18.6515 Q1968.54 18.6515 1972.01 22.2973 Q1975.48 25.9431 1975.48 33.3505 Z" fill="#000000" fill-rule="nonzero" fill-opacity="1" /><path clip-path="url(#clip030)" d="M2020.02 35.5496 Q2013.56 35.5496 2011.07 37.0253 Q2008.59 38.501 2008.59 42.06 Q2008.59 44.8956 2010.44 46.5738 Q2012.32 48.2231 2015.53 48.2231 Q2019.96 48.2231 2022.62 45.0981 Q2025.31 41.9442 2025.31 36.7359 L2025.31 35.5496 L2020.02 35.5496 M2030.63 33.3505 L2030.63 51.84 L2025.31 51.84 L2025.31 46.921 Q2023.49 49.8724 2020.77 51.2902 Q2018.05 52.6791 2014.11 52.6791 Q2009.14 52.6791 2006.18 49.9014 Q2003.26 47.0947 2003.26 42.4072 Q2003.26 36.9385 2006.91 34.1607 Q2010.58 31.3829 2017.85 31.3829 L2025.31 31.3829 L2025.31 30.8621 Q2025.31 27.1874 2022.88 25.1908 Q2020.48 23.1654 2016.11 23.1654 Q2013.33 23.1654 2010.7 23.8309 Q2008.07 24.4964 2005.63 25.8274 L2005.63 20.9085 Q2008.56 19.78 2011.31 19.2302 Q2014.05 18.6515 2016.66 18.6515 Q2023.69 18.6515 2027.16 22.2973 Q2030.63 25.9431 2030.63 33.3505 Z" fill="#000000" fill-rule="nonzero" fill-opacity="1" /><path clip-path="url(#clip030)" d="M2041.6 6.81709 L2046.93 6.81709 L2046.93 51.84 L2041.6 51.84 L2041.6 6.81709 Z" fill="#000000" fill-rule="nonzero" fill-opacity="1" /><path clip-path="url(#clip030)" d="M2085.78 34.3054 L2085.78 36.9095 L2061.31 36.9095 Q2061.65 42.4072 2064.6 45.3007 Q2067.58 48.1653 2072.88 48.1653 Q2075.95 48.1653 2078.81 47.4129 Q2081.7 46.6606 2084.54 45.156 L2084.54 50.1907 Q2081.68 51.406 2078.67 52.0425 Q2075.66 52.6791 2072.56 52.6791 Q2064.81 52.6791 2060.26 48.1653 Q2055.75 43.6514 2055.75 35.9547 Q2055.75 27.9975 2060.03 23.339 Q2064.34 18.6515 2071.64 18.6515 Q2078.17 18.6515 2081.97 22.876 Q2085.78 27.0716 2085.78 34.3054 M2080.46 32.7429 Q2080.4 28.3737 2078 25.7695 Q2075.63 23.1654 2071.69 23.1654 Q2067.24 23.1654 2064.55 25.6827 Q2061.88 28.2001 2061.48 32.7718 L2080.46 32.7429 Z" fill="#000000" fill-rule="nonzero" fill-opacity="1" /><path clip-path="url(#clip030)" d="M2109.25 35.5496 Q2102.8 35.5496 2100.31 37.0253 Q2097.82 38.501 2097.82 42.06 Q2097.82 44.8956 2099.67 46.5738 Q2101.55 48.2231 2104.77 48.2231 Q2109.19 48.2231 2111.86 45.0981 Q2114.55 41.9442 2114.55 36.7359 L2114.55 35.5496 L2109.25 35.5496 M2119.87 33.3505 L2119.87 51.84 L2114.55 51.84 L2114.55 46.921 Q2112.72 49.8724 2110 51.2902 Q2107.28 52.6791 2103.35 52.6791 Q2098.37 52.6791 2095.42 49.9014 Q2092.5 47.0947 2092.5 42.4072 Q2092.5 36.9385 2096.14 34.1607 Q2099.82 31.3829 2107.08 31.3829 L2114.55 31.3829 L2114.55 30.8621 Q2114.55 27.1874 2112.12 25.1908 Q2109.71 23.1654 2105.34 23.1654 Q2102.57 23.1654 2099.93 23.8309 Q2097.3 24.4964 2094.87 25.8274 L2094.87 20.9085 Q2097.79 19.78 2100.54 19.2302 Q2103.29 18.6515 2105.89 18.6515 Q2112.93 18.6515 2116.4 22.2973 Q2119.87 25.9431 2119.87 33.3505 Z" fill="#000000" fill-rule="nonzero" fill-opacity="1" /><path clip-path="url(#clip030)" d="M2136.1 10.2314 L2136.1 19.4328 L2147.07 19.4328 L2147.07 23.5705 L2136.1 23.5705 L2136.1 41.163 Q2136.1 45.1271 2137.17 46.2555 Q2138.27 47.384 2141.6 47.384 L2147.07 47.384 L2147.07 51.84 L2141.6 51.84 Q2135.44 51.84 2133.09 49.5541 Q2130.75 47.2393 2130.75 41.163 L2130.75 23.5705 L2126.84 23.5705 L2126.84 19.4328 L2130.75 19.4328 L2130.75 10.2314 L2136.1 10.2314 Z" fill="#000000" fill-rule="nonzero" fill-opacity="1" /><path clip-path="url(#clip030)" d="M2166.63 23.1654 Q2162.35 23.1654 2159.86 26.5218 Q2157.37 29.8494 2157.37 35.6653 Q2157.37 41.4813 2159.83 44.8377 Q2162.32 48.1653 2166.63 48.1653 Q2170.88 48.1653 2173.37 44.8088 Q2175.86 41.4523 2175.86 35.6653 Q2175.86 29.9072 2173.37 26.5508 Q2170.88 23.1654 2166.63 23.1654 M2166.63 18.6515 Q2173.57 18.6515 2177.54 23.1654 Q2181.5 27.6792 2181.5 35.6653 Q2181.5 43.6225 2177.54 48.1653 Q2173.57 52.6791 2166.63 52.6791 Q2159.66 52.6791 2155.69 48.1653 Q2151.76 43.6225 2151.76 35.6653 Q2151.76 27.6792 2155.69 23.1654 Q2159.66 18.6515 2166.63 18.6515 M2170.65 4.44442 L2176.41 4.44442 L2166.98 15.324 L2162.55 15.324 L2170.65 4.44442 Z" fill="#000000" fill-rule="nonzero" fill-opacity="1" /><path clip-path="url(#clip030)" d="M2209.11 24.4096 Q2208.21 23.8888 2207.14 23.6573 Q2206.1 23.3969 2204.82 23.3969 Q2200.31 23.3969 2197.88 26.3482 Q2195.48 29.2707 2195.48 34.7683 L2195.48 51.84 L2190.12 51.84 L2190.12 19.4328 L2195.48 19.4328 L2195.48 24.4675 Q2197.16 21.5161 2199.85 20.0983 Q2202.54 18.6515 2206.39 18.6515 Q2206.94 18.6515 2207.6 18.7383 Q2208.27 18.7962 2209.08 18.9409 L2209.11 24.4096 Z" fill="#000000" fill-rule="nonzero" fill-opacity="1" /><path clip-path="url(#clip030)" d="M2214.69 19.4328 L2220.01 19.4328 L2220.01 51.84 L2214.69 51.84 L2214.69 19.4328 M2214.69 6.81709 L2220.01 6.81709 L2220.01 13.559 L2214.69 13.559 L2214.69 6.81709 Z" fill="#000000" fill-rule="nonzero" fill-opacity="1" /><path clip-path="url(#clip030)" d="M2245.88 35.5496 Q2239.43 35.5496 2236.94 37.0253 Q2234.45 38.501 2234.45 42.06 Q2234.45 44.8956 2236.3 46.5738 Q2238.19 48.2231 2241.4 48.2231 Q2245.82 48.2231 2248.49 45.0981 Q2251.18 41.9442 2251.18 36.7359 L2251.18 35.5496 L2245.88 35.5496 M2256.5 33.3505 L2256.5 51.84 L2251.18 51.84 L2251.18 46.921 Q2249.35 49.8724 2246.63 51.2902 Q2243.91 52.6791 2239.98 52.6791 Q2235 52.6791 2232.05 49.9014 Q2229.13 47.0947 2229.13 42.4072 Q2229.13 36.9385 2232.77 34.1607 Q2236.45 31.3829 2243.71 31.3829 L2251.18 31.3829 L2251.18 30.8621 Q2251.18 27.1874 2248.75 25.1908 Q2246.35 23.1654 2241.98 23.1654 Q2239.2 23.1654 2236.57 23.8309 Q2233.93 24.4964 2231.5 25.8274 L2231.5 20.9085 Q2234.42 19.78 2237.17 19.2302 Q2239.92 18.6515 2242.53 18.6515 Q2249.56 18.6515 2253.03 22.2973 Q2256.5 25.9431 2256.5 33.3505 Z" fill="#000000" fill-rule="nonzero" fill-opacity="1" /><polyline clip-path="url(#clip032)" style="stroke:#009af9; stroke-linecap:round; stroke-linejoin:round; stroke-width:4; stroke-opacity:1; fill:none" points="314.394,2145.67 319.905,2111.72 325.416,2077.61 330.928,2043.95 336.439,2010.73 341.951,1977.5 347.462,1944.15 352.973,1911.09 358.485,1879.8 363.996,1848.33 369.508,1816.84 375.019,1785.98 380.53,1755.69 386.042,1725.7 391.553,1695.71 397.064,1666.83 402.576,1637.88 408.087,1609.97 413.599,1582.3 419.11,1554.74 424.621,1527.43 430.133,1499.34 435.644,1471.53 441.155,1444.24 446.667,1417 452.178,1390.54 457.69,1365.89 463.201,1339.96 468.712,1313.92 474.224,1288.61 479.735,1264.81 485.247,1241.32 490.758,1218.48 496.269,1195.96 501.781,1174.11 507.292,1150.51 512.803,1129.01 518.315,1107.52 523.826,1086.88 529.338,1068.01 534.849,1050.5 540.36,1033 545.872,1016.13 551.383,999.749 556.895,983.002 562.406,966.102 567.917,951.226 573.429,937.526 578.94,923.292 584.451,908.929 589.963,893.914 595.474,880.237 600.986,866.661 606.497,853.973 612.008,841.446 617.52,828.486 623.031,815.498 628.543,802.611 634.054,791.092 639.565,779.482 645.077,767.706 650.588,755.712 656.099,745.232 661.611,734.411 667.122,724.65 672.634,716.113 678.145,708.938 683.656,701.653 689.168,696.214 694.679,690.328 700.19,684.03 705.702,678.333 711.213,671.673 716.725,664.904 722.236,659.043 727.747,654.496 733.259,649.183 738.77,644.907 744.282,640.958 749.793,635.607 755.304,631.725 760.816,627.077 766.327,622.288 771.838,619.596 777.35,615.607 782.861,612.492 788.373,608.981 793.884,605.512 799.395,602.438 804.907,598.044 810.418,593.926 815.93,591.144 821.441,586.509 826.952,582.602 832.464,579.58 837.975,575.89 843.486,573.817 848.998,570.973 854.509,569.056 860.021,569.635 865.532,571.345 871.043,572.223 876.555,572.662 882.066,573.184 887.578,576.13 893.089,579.978 898.6,584.399 904.112,589.275 909.623,594.581 915.134,599.172 920.646,603.164 926.157,605.103 931.669,605.465 937.18,605.161 942.691,605.009 948.203,604.997 953.714,604.622 959.225,604.31 964.737,605.567 970.248,603.614 975.76,601.506 981.271,600.45 986.782,598.274 992.294,595.764 997.805,593.104 1003.32,591.653 1008.83,591.084 1014.34,590.668 1019.85,590.026 1025.36,589.397 1030.87,587.373 1036.38,584.735 1041.9,581.919 1047.41,580.357 1052.92,577.373 1058.43,572.889 1063.94,568.149 1069.45,562.495 1074.96,556.488 1080.48,549.604 1085.99,544.019 1091.5,538.443 1097.01,532.39 1102.52,524.272 1108.03,517.29 1113.54,511.858 1119.06,506.902 1124.57,501.653 1130.08,495.823 1135.59,490.41 1141.1,484.3 1146.61,479.241 1152.12,475.099 1157.64,471.812 1163.15,467.772 1168.66,462.277 1174.17,455.81 1179.68,447.889 1185.19,438.372 1190.7,429.841 1196.21,420.981 1201.73,413.138 1207.24,405.706 1212.75,398.38 1218.26,391.13 1223.77,382.788 1229.28,376.265 1234.79,371.116 1240.31,365.946 1245.82,360.849 1251.33,356.261 1256.84,352.761 1262.35,350.284 1267.86,347.73 1273.37,343.339 1278.89,339.447 1284.4,334.841 1289.91,331.834 1295.42,328.007 1300.93,324.261 1306.44,320.925 1311.95,317.335 1317.47,313.539 1322.98,310.964 1328.49,306.581 1334,303.365 1339.51,301.137 1345.02,299.926 1350.53,298.544 1356.05,295.74 1361.56,293.881 1367.07,290.765 1372.58,288.022 1378.09,286.342 1383.6,283.164 1389.11,280.156 1394.62,278.18 1400.14,274.041 1405.65,270.363 1411.16,266.661 1416.67,262.751 1422.18,257.977 1427.69,254.183 1433.2,252.038 1438.72,250.368 1444.23,248.219 1449.74,247.619 1455.25,247.495 1460.76,247.271 1466.27,246.611 1471.78,245.212 1477.3,244.082 1482.81,243.156 1488.32,241.998 1493.83,241.838 1499.34,241.944 1504.85,239.245 1510.36,237.437 1515.88,234.456 1521.39,231.026 1526.9,227.675 1532.41,224.008 1537.92,219.669 1543.43,215.237 1548.94,210.596 1554.45,206.174 1559.97,201.686 1565.48,197.218 1570.99,192.185 1576.5,187.988 1582.01,183.732 1587.52,180.471 1593.03,178.708 1598.55,176.627 1604.06,175.199 1609.57,173.645 1615.08,171.735 1620.59,171.772 1626.1,171.372 1631.61,170.837 1637.13,172.198 1642.64,175.41 1648.15,177.091 1653.66,178.588 1659.17,180.188 1664.68,182.82 1670.19,186.776 1675.71,193.359 1681.22,199.483 1686.73,202.757 1692.24,204.848 1697.75,208.278 1703.26,210.428 1708.77,212.355 1714.28,212.749 1719.8,213.874 1725.31,216.819 1730.82,218.82 1736.33,222.213 1741.84,225.342 1747.35,229.476 1752.86,234.077 1758.38,238.769 1763.89,244.207 1769.4,249.471 1774.91,255.959 1780.42,263.368 1785.93,270.548 1791.44,278.891 1796.96,285.487 1802.47,290.59 1807.98,295.621 1813.49,299.353 1819,303.015 1824.51,305.436 1830.02,307.48 1835.54,310.496 1841.05,315.376 1846.56,319.05 1852.07,321.012 1857.58,323.605 1863.09,325.704 1868.6,329.218 1874.12,330.743 1879.63,333.491 1885.14,335.75 1890.65,339.005 1896.16,342.794 1901.67,344.334 1907.18,346.594 1912.69,350.364 1918.21,353.258 1923.72,356.378 1929.23,357.884 1934.74,361.122 1940.25,364.448 1945.76,369.475 1951.27,371.472 1956.79,372.513 1962.3,372.956 1967.81,373.174 1973.32,373.017 1978.83,374.011 1984.34,375.286 1989.85,378.369 1995.37,381.621 2000.88,384.152 2006.39,385.614 2011.9,387.192 2017.41,388.793 2022.92,391.483 2028.43,394.239 2033.95,397.299 2039.46,399.439 2044.97,401.776 2050.48,403.868 2055.99,406.128 2061.5,407.554 2067.01,407.526 2072.52,407.908 2078.04,409.75 2083.55,411.857 2089.06,416.575 2094.57,420.751 2100.08,423.117 2105.59,426.242 2111.1,427.652 2116.62,427.808 2122.13,427.534 2127.64,425.764 2133.15,424.607 2138.66,422.273 2144.17,420.701 2149.68,417.862 2155.2,414.76 2160.71,411.62 2166.22,405.613 2171.73,398.116 2177.24,390.537 2182.75,383.58 2188.26,375.837 2193.78,367.139 2199.29,361.222 2204.8,354.83 2210.31,348.228 2215.82,343.053 2221.33,338.277 2226.84,334.399 2232.35,331.183 2237.87,328.293 2243.38,324.387 2248.89,321.821 2254.4,317.651 2259.91,314.741 2265.42,310.612 2270.93,307.067 2276.45,305.043 2281.96,304.395 2287.47,303.073 2292.98,301.403 2298.49,299.886 2304,300.223 2309.51,301.107 2315.03,303.731 2320.54,304.166 2326.05,304.668 2331.56,302.898 2337.07,301.201 2342.58,300.885 2348.09,299.678 2353.61,299.408 2359.12,299.09 2364.63,299.443 2370.14,300.052 2375.65,300.646 2381.16,302.85 2386.67,303.198 2392.19,303.644 2397.7,304.625 2403.21,305.341 2408.72,306.43 2414.23,307.111 2419.74,308.376 2425.25,309.587 2430.76,309.327 2436.28,309.958 2441.79,309.239 2447.3,308.858 2452.81,310.38 2458.32,311.833 2463.83,312.397 2469.34,312.856 2474.86,314.173 2480.37,316.89 2485.88,319.077 2491.39,318.402 2496.9,318.441 2502.41,318.371 2507.92,319.355 2513.44,320.121 2518.95,320.779 2524.46,323.094 2529.97,325.145 2535.48,329.706 2540.99,333.488 2546.5,337.18 2552.02,340.745 2557.53,346.772 2563.04,350.598 2568.55,353.995 2574.06,358.593 2579.57,362.473 2585.08,367.447 2590.59,373.256 2596.11,376.963 2601.62,380.142 2607.13,385.4 2612.64,389.875 2618.15,393.998 2623.66,397.319 2629.17,401.249 2634.69,403.702 2640.2,406.133 2645.71,409.25 2651.22,411.625 2656.73,414.423 2662.24,418.314 2667.75,422.144 2673.27,425.639 2678.78,428.613 2684.29,432.413 2689.8,437.733 2695.31,444.117 2700.82,450.431 2706.33,458.653 2711.85,465.596 2717.36,470.925 2722.87,475.386 2728.38,482.097 2733.89,488.314 2739.4,494.999 2744.91,502.566 2750.42,511.063 2755.94,519.491 2761.45,527.765 2766.96,536.244 2772.47,544.017 2777.98,550.835 2783.49,557.062 2789,564.26 2794.52,571.203 2800.03,578.257 2805.54,585.473 2811.05,592.161 2816.56,598.74 2822.07,605.674 2827.58,612.402 2833.1,618.888 2838.61,625.212 2844.12,631.25 2849.63,637.161 2855.14,642.833 2860.65,648.364 2866.16,653.647 2871.68,658.748 2877.19,663.704 2882.7,668.56 2888.21,673.249 2893.72,677.582 2899.23,681.653 2904.74,685.767 2910.26,689.437 2915.77,692.966 2921.28,695.754 2926.79,698.952 2932.3,701.842 2937.81,704.852 2943.32,706.487 2948.83,707.248 2954.35,708.277 2959.86,709.984 2965.37,710.82 2970.88,710.696 2976.39,708.411 2981.9,704.305 2987.41,701.565 2992.93,700.455 2998.44,698.52 3003.95,697.824 3009.46,698.057 3014.97,698.136 3020.48,697.492 3025.99,695.079 3031.51,695.25 3037.02,695.598 3042.53,695.027 3048.04,693.101 3053.55,692.505 3059.06,691.007 3064.57,689.841 3070.09,690.237 "/>
</svg>
