<?xml version="1.0" encoding="utf-8"?>
<svg xmlns="http://www.w3.org/2000/svg" xmlns:xlink="http://www.w3.org/1999/xlink" width="800" height="600" viewBox="0 0 3200 2400">
<defs>
  <clipPath id="clip000">
    <rect x="0" y="0" width="3200" height="2400"/>
  </clipPath>
</defs>
<path clip-path="url(#clip000)" d="M0 2400 L3200 2400 L3200 0 L0 0  Z" fill="#ffffff" fill-rule="evenodd" fill-opacity="1"/>
<defs>
  <clipPath id="clip001">
    <rect x="640" y="0" width="2241" height="2241"/>
  </clipPath>
</defs>
<path clip-path="url(#clip000)" d="M263.135 2204.92 L3152.76 2204.92 L3152.76 111.592 L263.135 111.592  Z" fill="#eaeaea" fill-rule="evenodd" fill-opacity="1"/>
<defs>
  <clipPath id="clip002">
    <rect x="263" y="111" width="2891" height="2094"/>
  </clipPath>
</defs>
<polyline clip-path="url(#clip002)" style="stroke:#ffffff; stroke-linecap:round; stroke-linejoin:round; stroke-width:2; stroke-opacity:1; fill:none" points="617.522,2204.92 617.522,111.592 "/>
<polyline clip-path="url(#clip002)" style="stroke:#ffffff; stroke-linecap:round; stroke-linejoin:round; stroke-width:2; stroke-opacity:1; fill:none" points="1162.73,2204.92 1162.73,111.592 "/>
<polyline clip-path="url(#clip002)" style="stroke:#ffffff; stroke-linecap:round; stroke-linejoin:round; stroke-width:2; stroke-opacity:1; fill:none" points="1707.95,2204.92 1707.95,111.592 "/>
<polyline clip-path="url(#clip002)" style="stroke:#ffffff; stroke-linecap:round; stroke-linejoin:round; stroke-width:2; stroke-opacity:1; fill:none" points="2253.16,2204.92 2253.16,111.592 "/>
<polyline clip-path="url(#clip002)" style="stroke:#ffffff; stroke-linecap:round; stroke-linejoin:round; stroke-width:2; stroke-opacity:1; fill:none" points="2798.37,2204.92 2798.37,111.592 "/>
<polyline clip-path="url(#clip002)" style="stroke:#ffffff; stroke-linecap:round; stroke-linejoin:round; stroke-width:2; stroke-opacity:1; fill:none" points="263.135,2149.98 3152.76,2149.98 "/>
<polyline clip-path="url(#clip002)" style="stroke:#ffffff; stroke-linecap:round; stroke-linejoin:round; stroke-width:2; stroke-opacity:1; fill:none" points="263.135,1716.98 3152.76,1716.98 "/>
<polyline clip-path="url(#clip002)" style="stroke:#ffffff; stroke-linecap:round; stroke-linejoin:round; stroke-width:2; stroke-opacity:1; fill:none" points="263.135,1283.99 3152.76,1283.99 "/>
<polyline clip-path="url(#clip002)" style="stroke:#ffffff; stroke-linecap:round; stroke-linejoin:round; stroke-width:2; stroke-opacity:1; fill:none" points="263.135,850.992 3152.76,850.992 "/>
<polyline clip-path="url(#clip002)" style="stroke:#ffffff; stroke-linecap:round; stroke-linejoin:round; stroke-width:2; stroke-opacity:1; fill:none" points="263.135,417.997 3152.76,417.997 "/>
<polyline clip-path="url(#clip002)" style="stroke:#ffffff; stroke-linecap:round; stroke-linejoin:round; stroke-width:4; stroke-opacity:1; fill:none" points="344.917,2204.92 344.917,111.592 "/>
<polyline clip-path="url(#clip002)" style="stroke:#ffffff; stroke-linecap:round; stroke-linejoin:round; stroke-width:4; stroke-opacity:1; fill:none" points="890.128,2204.92 890.128,111.592 "/>
<polyline clip-path="url(#clip002)" style="stroke:#ffffff; stroke-linecap:round; stroke-linejoin:round; stroke-width:4; stroke-opacity:1; fill:none" points="1435.34,2204.92 1435.34,111.592 "/>
<polyline clip-path="url(#clip002)" style="stroke:#ffffff; stroke-linecap:round; stroke-linejoin:round; stroke-width:4; stroke-opacity:1; fill:none" points="1980.55,2204.92 1980.55,111.592 "/>
<polyline clip-path="url(#clip002)" style="stroke:#ffffff; stroke-linecap:round; stroke-linejoin:round; stroke-width:4; stroke-opacity:1; fill:none" points="2525.76,2204.92 2525.76,111.592 "/>
<polyline clip-path="url(#clip002)" style="stroke:#ffffff; stroke-linecap:round; stroke-linejoin:round; stroke-width:4; stroke-opacity:1; fill:none" points="3070.97,2204.92 3070.97,111.592 "/>
<polyline clip-path="url(#clip002)" style="stroke:#ffffff; stroke-linecap:round; stroke-linejoin:round; stroke-width:4; stroke-opacity:1; fill:none" points="263.135,1933.48 3152.76,1933.48 "/>
<polyline clip-path="url(#clip002)" style="stroke:#ffffff; stroke-linecap:round; stroke-linejoin:round; stroke-width:4; stroke-opacity:1; fill:none" points="263.135,1500.49 3152.76,1500.49 "/>
<polyline clip-path="url(#clip002)" style="stroke:#ffffff; stroke-linecap:round; stroke-linejoin:round; stroke-width:4; stroke-opacity:1; fill:none" points="263.135,1067.49 3152.76,1067.49 "/>
<polyline clip-path="url(#clip002)" style="stroke:#ffffff; stroke-linecap:round; stroke-linejoin:round; stroke-width:4; stroke-opacity:1; fill:none" points="263.135,634.495 3152.76,634.495 "/>
<polyline clip-path="url(#clip002)" style="stroke:#ffffff; stroke-linecap:round; stroke-linejoin:round; stroke-width:4; stroke-opacity:1; fill:none" points="263.135,201.5 3152.76,201.5 "/>
<polyline clip-path="url(#clip000)" style="stroke:#ffffff; stroke-linecap:round; stroke-linejoin:round; stroke-width:4; stroke-opacity:1; fill:none" points="263.135,2204.92 3152.76,2204.92 "/>
<polyline clip-path="url(#clip000)" style="stroke:#333333; stroke-linecap:round; stroke-linejoin:round; stroke-width:4; stroke-opacity:1; fill:none" points="344.917,2204.92 344.917,2223.82 "/>
<polyline clip-path="url(#clip000)" style="stroke:#333333; stroke-linecap:round; stroke-linejoin:round; stroke-width:4; stroke-opacity:1; fill:none" points="890.128,2204.92 890.128,2223.82 "/>
<polyline clip-path="url(#clip000)" style="stroke:#333333; stroke-linecap:round; stroke-linejoin:round; stroke-width:4; stroke-opacity:1; fill:none" points="1435.34,2204.92 1435.34,2223.82 "/>
<polyline clip-path="url(#clip000)" style="stroke:#333333; stroke-linecap:round; stroke-linejoin:round; stroke-width:4; stroke-opacity:1; fill:none" points="1980.55,2204.92 1980.55,2223.82 "/>
<polyline clip-path="url(#clip000)" style="stroke:#333333; stroke-linecap:round; stroke-linejoin:round; stroke-width:4; stroke-opacity:1; fill:none" points="2525.76,2204.92 2525.76,2223.82 "/>
<polyline clip-path="url(#clip000)" style="stroke:#333333; stroke-linecap:round; stroke-linejoin:round; stroke-width:4; stroke-opacity:1; fill:none" points="3070.97,2204.92 3070.97,2223.82 "/>
<polyline clip-path="url(#clip000)" style="stroke:#333333; stroke-linecap:round; stroke-linejoin:round; stroke-width:4; stroke-opacity:1; fill:none" points="617.522,2204.92 617.522,2214.37 "/>
<polyline clip-path="url(#clip000)" style="stroke:#333333; stroke-linecap:round; stroke-linejoin:round; stroke-width:4; stroke-opacity:1; fill:none" points="1162.73,2204.92 1162.73,2214.37 "/>
<polyline clip-path="url(#clip000)" style="stroke:#333333; stroke-linecap:round; stroke-linejoin:round; stroke-width:4; stroke-opacity:1; fill:none" points="1707.95,2204.92 1707.95,2214.37 "/>
<polyline clip-path="url(#clip000)" style="stroke:#333333; stroke-linecap:round; stroke-linejoin:round; stroke-width:4; stroke-opacity:1; fill:none" points="2253.16,2204.92 2253.16,2214.37 "/>
<polyline clip-path="url(#clip000)" style="stroke:#333333; stroke-linecap:round; stroke-linejoin:round; stroke-width:4; stroke-opacity:1; fill:none" points="2798.37,2204.92 2798.37,2214.37 "/>
<path clip-path="url(#clip000)" d="M344.917 2255.04 Q341.305 2255.04 339.477 2258.6 Q337.671 2262.14 337.671 2269.27 Q337.671 2276.38 339.477 2279.95 Q341.305 2283.49 344.917 2283.49 Q348.551 2283.49 350.356 2279.95 Q352.185 2276.38 352.185 2269.27 Q352.185 2262.14 350.356 2258.6 Q348.551 2255.04 344.917 2255.04 M344.917 2251.33 Q350.727 2251.33 353.782 2255.94 Q356.861 2260.52 356.861 2269.27 Q356.861 2278 353.782 2282.61 Q350.727 2287.19 344.917 2287.19 Q339.106 2287.19 336.028 2282.61 Q332.972 2278 332.972 2269.27 Q332.972 2260.52 336.028 2255.94 Q339.106 2251.33 344.917 2251.33 Z" fill="#4c4c4c" fill-rule="nonzero" fill-opacity="1" /><path clip-path="url(#clip000)" d="M880.51 2282.58 L888.149 2282.58 L888.149 2256.22 L879.839 2257.89 L879.839 2253.63 L888.103 2251.96 L892.779 2251.96 L892.779 2282.58 L900.417 2282.58 L900.417 2286.52 L880.51 2286.52 L880.51 2282.58 Z" fill="#4c4c4c" fill-rule="nonzero" fill-opacity="1" /><path clip-path="url(#clip000)" d="M1429.99 2282.58 L1446.31 2282.58 L1446.31 2286.52 L1424.37 2286.52 L1424.37 2282.58 Q1427.03 2279.83 1431.61 2275.2 Q1436.22 2270.55 1437.4 2269.21 Q1439.65 2266.68 1440.52 2264.95 Q1441.43 2263.19 1441.43 2261.5 Q1441.43 2258.74 1439.48 2257.01 Q1437.56 2255.27 1434.46 2255.27 Q1432.26 2255.27 1429.81 2256.03 Q1427.38 2256.8 1424.6 2258.35 L1424.6 2253.63 Q1427.42 2252.49 1429.88 2251.91 Q1432.33 2251.33 1434.37 2251.33 Q1439.74 2251.33 1442.93 2254.02 Q1446.13 2256.71 1446.13 2261.2 Q1446.13 2263.33 1445.32 2265.25 Q1444.53 2267.14 1442.42 2269.74 Q1441.84 2270.41 1438.74 2273.63 Q1435.64 2276.82 1429.99 2282.58 Z" fill="#4c4c4c" fill-rule="nonzero" fill-opacity="1" /><path clip-path="url(#clip000)" d="M1984.8 2267.89 Q1988.16 2268.6 1990.03 2270.87 Q1991.93 2273.14 1991.93 2276.47 Q1991.93 2281.59 1988.41 2284.39 Q1984.89 2287.19 1978.41 2287.19 Q1976.23 2287.19 1973.92 2286.75 Q1971.63 2286.33 1969.17 2285.48 L1969.17 2280.96 Q1971.12 2282.1 1973.43 2282.68 Q1975.75 2283.26 1978.27 2283.26 Q1982.67 2283.26 1984.96 2281.52 Q1987.28 2279.78 1987.28 2276.47 Q1987.28 2273.42 1985.12 2271.71 Q1982.99 2269.97 1979.17 2269.97 L1975.15 2269.97 L1975.15 2266.13 L1979.36 2266.13 Q1982.81 2266.13 1984.64 2264.76 Q1986.47 2263.37 1986.47 2260.78 Q1986.47 2258.12 1984.57 2256.71 Q1982.69 2255.27 1979.17 2255.27 Q1977.25 2255.27 1975.05 2255.69 Q1972.85 2256.1 1970.22 2256.98 L1970.22 2252.82 Q1972.88 2252.08 1975.19 2251.71 Q1977.53 2251.33 1979.59 2251.33 Q1984.91 2251.33 1988.02 2253.77 Q1991.12 2256.17 1991.12 2260.29 Q1991.12 2263.16 1989.47 2265.15 Q1987.83 2267.12 1984.8 2267.89 Z" fill="#4c4c4c" fill-rule="nonzero" fill-opacity="1" /><path clip-path="url(#clip000)" d="M2528.77 2256.03 L2516.97 2274.48 L2528.77 2274.48 L2528.77 2256.03 M2527.55 2251.96 L2533.42 2251.96 L2533.42 2274.48 L2538.36 2274.48 L2538.36 2278.37 L2533.42 2278.37 L2533.42 2286.52 L2528.77 2286.52 L2528.77 2278.37 L2513.17 2278.37 L2513.17 2273.86 L2527.55 2251.96 Z" fill="#4c4c4c" fill-rule="nonzero" fill-opacity="1" /><path clip-path="url(#clip000)" d="M3061.25 2251.96 L3079.61 2251.96 L3079.61 2255.9 L3065.53 2255.9 L3065.53 2264.37 Q3066.55 2264.02 3067.57 2263.86 Q3068.59 2263.67 3069.61 2263.67 Q3075.4 2263.67 3078.78 2266.84 Q3082.15 2270.02 3082.15 2275.43 Q3082.15 2281.01 3078.68 2284.11 Q3075.21 2287.19 3068.89 2287.19 Q3066.71 2287.19 3064.45 2286.82 Q3062.2 2286.45 3059.79 2285.71 L3059.79 2281.01 Q3061.88 2282.14 3064.1 2282.7 Q3066.32 2283.26 3068.8 2283.26 Q3072.8 2283.26 3075.14 2281.15 Q3077.48 2279.04 3077.48 2275.43 Q3077.48 2271.82 3075.14 2269.71 Q3072.8 2267.61 3068.8 2267.61 Q3066.92 2267.61 3065.05 2268.02 Q3063.2 2268.44 3061.25 2269.32 L3061.25 2251.96 Z" fill="#4c4c4c" fill-rule="nonzero" fill-opacity="1" /><path clip-path="url(#clip000)" d="M1707.01 2316.01 L1707.01 2326.14 L1719.07 2326.14 L1719.07 2330.69 L1707.01 2330.69 L1707.01 2350.04 Q1707.01 2354.4 1708.18 2355.64 Q1709.39 2356.88 1713.05 2356.88 L1719.07 2356.88 L1719.07 2361.78 L1713.05 2361.78 Q1706.27 2361.78 1703.7 2359.27 Q1701.12 2356.72 1701.12 2350.04 L1701.12 2330.69 L1696.82 2330.69 L1696.82 2326.14 L1701.12 2326.14 L1701.12 2316.01 L1707.01 2316.01 Z" fill="#000000" fill-rule="nonzero" fill-opacity="1" /><polyline clip-path="url(#clip000)" style="stroke:#ffffff; stroke-linecap:round; stroke-linejoin:round; stroke-width:4; stroke-opacity:1; fill:none" points="263.135,2204.92 263.135,111.592 "/>
<polyline clip-path="url(#clip000)" style="stroke:#333333; stroke-linecap:round; stroke-linejoin:round; stroke-width:4; stroke-opacity:1; fill:none" points="263.135,1933.48 244.237,1933.48 "/>
<polyline clip-path="url(#clip000)" style="stroke:#333333; stroke-linecap:round; stroke-linejoin:round; stroke-width:4; stroke-opacity:1; fill:none" points="263.135,1500.49 244.237,1500.49 "/>
<polyline clip-path="url(#clip000)" style="stroke:#333333; stroke-linecap:round; stroke-linejoin:round; stroke-width:4; stroke-opacity:1; fill:none" points="263.135,1067.49 244.237,1067.49 "/>
<polyline clip-path="url(#clip000)" style="stroke:#333333; stroke-linecap:round; stroke-linejoin:round; stroke-width:4; stroke-opacity:1; fill:none" points="263.135,634.495 244.237,634.495 "/>
<polyline clip-path="url(#clip000)" style="stroke:#333333; stroke-linecap:round; stroke-linejoin:round; stroke-width:4; stroke-opacity:1; fill:none" points="263.135,201.5 244.237,201.5 "/>
<polyline clip-path="url(#clip000)" style="stroke:#333333; stroke-linecap:round; stroke-linejoin:round; stroke-width:4; stroke-opacity:1; fill:none" points="263.135,2149.98 253.686,2149.98 "/>
<polyline clip-path="url(#clip000)" style="stroke:#333333; stroke-linecap:round; stroke-linejoin:round; stroke-width:4; stroke-opacity:1; fill:none" points="263.135,1716.98 253.686,1716.98 "/>
<polyline clip-path="url(#clip000)" style="stroke:#333333; stroke-linecap:round; stroke-linejoin:round; stroke-width:4; stroke-opacity:1; fill:none" points="263.135,1283.99 253.686,1283.99 "/>
<polyline clip-path="url(#clip000)" style="stroke:#333333; stroke-linecap:round; stroke-linejoin:round; stroke-width:4; stroke-opacity:1; fill:none" points="263.135,850.992 253.686,850.992 "/>
<polyline clip-path="url(#clip000)" style="stroke:#333333; stroke-linecap:round; stroke-linejoin:round; stroke-width:4; stroke-opacity:1; fill:none" points="263.135,417.997 253.686,417.997 "/>
<path clip-path="url(#clip000)" d="M94.6076 1946.83 L102.246 1946.83 L102.246 1920.46 L93.9363 1922.13 L93.9363 1917.87 L102.2 1916.2 L106.876 1916.2 L106.876 1946.83 L114.515 1946.83 L114.515 1950.76 L94.6076 1950.76 L94.6076 1946.83 Z" fill="#4c4c4c" fill-rule="nonzero" fill-opacity="1" /><path clip-path="url(#clip000)" d="M123.959 1944.88 L128.843 1944.88 L128.843 1950.76 L123.959 1950.76 L123.959 1944.88 Z" fill="#4c4c4c" fill-rule="nonzero" fill-opacity="1" /><path clip-path="url(#clip000)" d="M149.029 1919.28 Q145.417 1919.28 143.589 1922.84 Q141.783 1926.39 141.783 1933.51 Q141.783 1940.62 143.589 1944.19 Q145.417 1947.73 149.029 1947.73 Q152.663 1947.73 154.468 1944.19 Q156.297 1940.62 156.297 1933.51 Q156.297 1926.39 154.468 1922.84 Q152.663 1919.28 149.029 1919.28 M149.029 1915.58 Q154.839 1915.58 157.894 1920.18 Q160.973 1924.76 160.973 1933.51 Q160.973 1942.24 157.894 1946.85 Q154.839 1951.43 149.029 1951.43 Q143.218 1951.43 140.14 1946.85 Q137.084 1942.24 137.084 1933.51 Q137.084 1924.76 140.14 1920.18 Q143.218 1915.58 149.029 1915.58 Z" fill="#4c4c4c" fill-rule="nonzero" fill-opacity="1" /><path clip-path="url(#clip000)" d="M179.19 1919.28 Q175.579 1919.28 173.751 1922.84 Q171.945 1926.39 171.945 1933.51 Q171.945 1940.62 173.751 1944.19 Q175.579 1947.73 179.19 1947.73 Q182.825 1947.73 184.63 1944.19 Q186.459 1940.62 186.459 1933.51 Q186.459 1926.39 184.63 1922.84 Q182.825 1919.28 179.19 1919.28 M179.19 1915.58 Q185.001 1915.58 188.056 1920.18 Q191.135 1924.76 191.135 1933.51 Q191.135 1942.24 188.056 1946.85 Q185.001 1951.43 179.19 1951.43 Q173.38 1951.43 170.302 1946.85 Q167.246 1942.24 167.246 1933.51 Q167.246 1924.76 170.302 1920.18 Q173.38 1915.58 179.19 1915.58 Z" fill="#4c4c4c" fill-rule="nonzero" fill-opacity="1" /><path clip-path="url(#clip000)" d="M95.6029 1513.83 L103.242 1513.83 L103.242 1487.46 L94.9316 1489.13 L94.9316 1484.87 L103.195 1483.21 L107.871 1483.21 L107.871 1513.83 L115.51 1513.83 L115.51 1517.77 L95.6029 1517.77 L95.6029 1513.83 Z" fill="#4c4c4c" fill-rule="nonzero" fill-opacity="1" /><path clip-path="url(#clip000)" d="M124.955 1511.89 L129.839 1511.89 L129.839 1517.77 L124.955 1517.77 L124.955 1511.89 Z" fill="#4c4c4c" fill-rule="nonzero" fill-opacity="1" /><path clip-path="url(#clip000)" d="M144.052 1513.83 L160.371 1513.83 L160.371 1517.77 L138.427 1517.77 L138.427 1513.83 Q141.089 1511.08 145.672 1506.45 Q150.279 1501.79 151.459 1500.45 Q153.704 1497.93 154.584 1496.19 Q155.487 1494.43 155.487 1492.74 Q155.487 1489.99 153.542 1488.25 Q151.621 1486.52 148.519 1486.52 Q146.32 1486.52 143.867 1487.28 Q141.436 1488.04 138.658 1489.59 L138.658 1484.87 Q141.482 1483.74 143.936 1483.16 Q146.39 1482.58 148.427 1482.58 Q153.797 1482.58 156.991 1485.27 Q160.186 1487.95 160.186 1492.44 Q160.186 1494.57 159.376 1496.49 Q158.589 1498.39 156.482 1500.98 Q155.904 1501.65 152.802 1504.87 Q149.7 1508.07 144.052 1513.83 Z" fill="#4c4c4c" fill-rule="nonzero" fill-opacity="1" /><path clip-path="url(#clip000)" d="M170.232 1483.21 L188.589 1483.21 L188.589 1487.14 L174.515 1487.14 L174.515 1495.61 Q175.533 1495.27 176.552 1495.1 Q177.57 1494.92 178.589 1494.92 Q184.376 1494.92 187.755 1498.09 Q191.135 1501.26 191.135 1506.68 Q191.135 1512.26 187.663 1515.36 Q184.19 1518.44 177.871 1518.44 Q175.695 1518.44 173.427 1518.07 Q171.181 1517.7 168.774 1516.95 L168.774 1512.26 Q170.857 1513.39 173.079 1513.95 Q175.302 1514.5 177.778 1514.5 Q181.783 1514.5 184.121 1512.39 Q186.459 1510.29 186.459 1506.68 Q186.459 1503.07 184.121 1500.96 Q181.783 1498.85 177.778 1498.85 Q175.903 1498.85 174.028 1499.27 Q172.177 1499.69 170.232 1500.57 L170.232 1483.21 Z" fill="#4c4c4c" fill-rule="nonzero" fill-opacity="1" /><path clip-path="url(#clip000)" d="M94.6076 1080.83 L102.246 1080.83 L102.246 1054.47 L93.9363 1056.14 L93.9363 1051.88 L102.2 1050.21 L106.876 1050.21 L106.876 1080.83 L114.515 1080.83 L114.515 1084.77 L94.6076 1084.77 L94.6076 1080.83 Z" fill="#4c4c4c" fill-rule="nonzero" fill-opacity="1" /><path clip-path="url(#clip000)" d="M123.959 1078.89 L128.843 1078.89 L128.843 1084.77 L123.959 1084.77 L123.959 1078.89 Z" fill="#4c4c4c" fill-rule="nonzero" fill-opacity="1" /><path clip-path="url(#clip000)" d="M139.075 1050.21 L157.431 1050.21 L157.431 1054.15 L143.357 1054.15 L143.357 1062.62 Q144.376 1062.27 145.394 1062.11 Q146.413 1061.92 147.431 1061.92 Q153.218 1061.92 156.598 1065.09 Q159.978 1068.27 159.978 1073.68 Q159.978 1079.26 156.505 1082.36 Q153.033 1085.44 146.714 1085.44 Q144.538 1085.44 142.269 1085.07 Q140.024 1084.7 137.617 1083.96 L137.617 1079.26 Q139.7 1080.39 141.922 1080.95 Q144.144 1081.51 146.621 1081.51 Q150.626 1081.51 152.964 1079.4 Q155.302 1077.29 155.302 1073.68 Q155.302 1070.07 152.964 1067.96 Q150.626 1065.86 146.621 1065.86 Q144.746 1065.86 142.871 1066.27 Q141.019 1066.69 139.075 1067.57 L139.075 1050.21 Z" fill="#4c4c4c" fill-rule="nonzero" fill-opacity="1" /><path clip-path="url(#clip000)" d="M179.19 1053.29 Q175.579 1053.29 173.751 1056.85 Q171.945 1060.39 171.945 1067.52 Q171.945 1074.63 173.751 1078.2 Q175.579 1081.74 179.19 1081.74 Q182.825 1081.74 184.63 1078.2 Q186.459 1074.63 186.459 1067.52 Q186.459 1060.39 184.63 1056.85 Q182.825 1053.29 179.19 1053.29 M179.19 1049.58 Q185.001 1049.58 188.056 1054.19 Q191.135 1058.77 191.135 1067.52 Q191.135 1076.25 188.056 1080.86 Q185.001 1085.44 179.19 1085.44 Q173.38 1085.44 170.302 1080.86 Q167.246 1076.25 167.246 1067.52 Q167.246 1058.77 170.302 1054.19 Q173.38 1049.58 179.19 1049.58 Z" fill="#4c4c4c" fill-rule="nonzero" fill-opacity="1" /><path clip-path="url(#clip000)" d="M95.6029 647.84 L103.242 647.84 L103.242 621.474 L94.9316 623.141 L94.9316 618.881 L103.195 617.215 L107.871 617.215 L107.871 647.84 L115.51 647.84 L115.51 651.775 L95.6029 651.775 L95.6029 647.84 Z" fill="#4c4c4c" fill-rule="nonzero" fill-opacity="1" /><path clip-path="url(#clip000)" d="M124.955 645.895 L129.839 645.895 L129.839 651.775 L124.955 651.775 L124.955 645.895 Z" fill="#4c4c4c" fill-rule="nonzero" fill-opacity="1" /><path clip-path="url(#clip000)" d="M138.843 617.215 L161.066 617.215 L161.066 619.205 L148.519 651.775 L143.635 651.775 L155.441 621.15 L138.843 621.15 L138.843 617.215 Z" fill="#4c4c4c" fill-rule="nonzero" fill-opacity="1" /><path clip-path="url(#clip000)" d="M170.232 617.215 L188.589 617.215 L188.589 621.15 L174.515 621.15 L174.515 629.622 Q175.533 629.275 176.552 629.113 Q177.57 628.928 178.589 628.928 Q184.376 628.928 187.755 632.099 Q191.135 635.27 191.135 640.687 Q191.135 646.265 187.663 649.367 Q184.19 652.446 177.871 652.446 Q175.695 652.446 173.427 652.076 Q171.181 651.705 168.774 650.965 L168.774 646.265 Q170.857 647.4 173.079 647.955 Q175.302 648.511 177.778 648.511 Q181.783 648.511 184.121 646.404 Q186.459 644.298 186.459 640.687 Q186.459 637.076 184.121 634.969 Q181.783 632.863 177.778 632.863 Q175.903 632.863 174.028 633.279 Q172.177 633.696 170.232 634.576 L170.232 617.215 Z" fill="#4c4c4c" fill-rule="nonzero" fill-opacity="1" /><path clip-path="url(#clip000)" d="M97.8251 214.844 L114.144 214.844 L114.144 218.78 L92.2002 218.78 L92.2002 214.844 Q94.8622 212.09 99.4455 207.46 Q104.052 202.807 105.232 201.465 Q107.478 198.942 108.357 197.206 Q109.26 195.446 109.26 193.757 Q109.26 191.002 107.316 189.266 Q105.395 187.53 102.293 187.53 Q100.094 187.53 97.6399 188.294 Q95.2094 189.057 92.4316 190.608 L92.4316 185.886 Q95.2557 184.752 97.7094 184.173 Q100.163 183.595 102.2 183.595 Q107.57 183.595 110.765 186.28 Q113.959 188.965 113.959 193.456 Q113.959 195.585 113.149 197.506 Q112.362 199.405 110.256 201.997 Q109.677 202.669 106.575 205.886 Q103.473 209.081 97.8251 214.844 Z" fill="#4c4c4c" fill-rule="nonzero" fill-opacity="1" /><path clip-path="url(#clip000)" d="M123.959 212.9 L128.843 212.9 L128.843 218.78 L123.959 218.78 L123.959 212.9 Z" fill="#4c4c4c" fill-rule="nonzero" fill-opacity="1" /><path clip-path="url(#clip000)" d="M149.029 187.298 Q145.417 187.298 143.589 190.863 Q141.783 194.405 141.783 201.534 Q141.783 208.641 143.589 212.205 Q145.417 215.747 149.029 215.747 Q152.663 215.747 154.468 212.205 Q156.297 208.641 156.297 201.534 Q156.297 194.405 154.468 190.863 Q152.663 187.298 149.029 187.298 M149.029 183.595 Q154.839 183.595 157.894 188.201 Q160.973 192.784 160.973 201.534 Q160.973 210.261 157.894 214.868 Q154.839 219.451 149.029 219.451 Q143.218 219.451 140.14 214.868 Q137.084 210.261 137.084 201.534 Q137.084 192.784 140.14 188.201 Q143.218 183.595 149.029 183.595 Z" fill="#4c4c4c" fill-rule="nonzero" fill-opacity="1" /><path clip-path="url(#clip000)" d="M179.19 187.298 Q175.579 187.298 173.751 190.863 Q171.945 194.405 171.945 201.534 Q171.945 208.641 173.751 212.205 Q175.579 215.747 179.19 215.747 Q182.825 215.747 184.63 212.205 Q186.459 208.641 186.459 201.534 Q186.459 194.405 184.63 190.863 Q182.825 187.298 179.19 187.298 M179.19 183.595 Q185.001 183.595 188.056 188.201 Q191.135 192.784 191.135 201.534 Q191.135 210.261 188.056 214.868 Q185.001 219.451 179.19 219.451 Q173.38 219.451 170.302 214.868 Q167.246 210.261 167.246 201.534 Q167.246 192.784 170.302 188.201 Q173.38 183.595 179.19 183.595 Z" fill="#4c4c4c" fill-rule="nonzero" fill-opacity="1" /><path clip-path="url(#clip000)" d="M18.2962 1141.64 L35.6428 1154.53 L53.9442 1140.97 L53.9442 1147.88 L39.9396 1158.26 L53.9442 1168.63 L53.9442 1175.54 L35.2926 1161.69 L18.2962 1174.36 L18.2962 1167.45 L30.9958 1158 L18.2962 1148.55 L18.2962 1141.64 Z" fill="#000000" fill-rule="nonzero" fill-opacity="1" /><path clip-path="url(#clip000)" d="M650.876 20.3876 L650.876 25.4223 Q648.619 24.2649 646.189 23.6862 Q643.758 23.1075 641.154 23.1075 Q637.19 23.1075 635.194 24.3228 Q633.226 25.5381 633.226 27.9686 Q633.226 29.8204 634.644 30.891 Q636.062 31.9327 640.344 32.8876 L642.167 33.2926 Q647.838 34.5079 650.211 36.7359 Q652.612 38.935 652.612 42.8991 Q652.612 47.4129 649.025 50.046 Q645.466 52.6791 639.216 52.6791 Q636.611 52.6791 633.776 52.1583 Q630.969 51.6664 627.844 50.6537 L627.844 45.156 Q630.795 46.6896 633.66 47.4708 Q636.525 48.2231 639.331 48.2231 Q643.093 48.2231 645.118 46.95 Q647.144 45.6479 647.144 43.3042 Q647.144 41.134 645.668 39.9766 Q644.221 38.8192 639.273 37.7486 L637.422 37.3146 Q632.474 36.273 630.275 34.1318 Q628.076 31.9616 628.076 28.2001 Q628.076 23.6283 631.316 21.1399 Q634.557 18.6515 640.518 18.6515 Q643.469 18.6515 646.073 19.0855 Q648.677 19.5196 650.876 20.3876 Z" fill="#000000" fill-rule="nonzero" fill-opacity="1" /><path clip-path="url(#clip000)" d="M673.648 23.1654 Q669.366 23.1654 666.877 26.5218 Q664.389 29.8494 664.389 35.6653 Q664.389 41.4813 666.849 44.8377 Q669.337 48.1653 673.648 48.1653 Q677.902 48.1653 680.39 44.8088 Q682.879 41.4523 682.879 35.6653 Q682.879 29.9072 680.39 26.5508 Q677.902 23.1654 673.648 23.1654 M673.648 18.6515 Q680.593 18.6515 684.557 23.1654 Q688.521 27.6792 688.521 35.6653 Q688.521 43.6225 684.557 48.1653 Q680.593 52.6791 673.648 52.6791 Q666.675 52.6791 662.711 48.1653 Q658.776 43.6225 658.776 35.6653 Q658.776 27.6792 662.711 23.1654 Q666.675 18.6515 673.648 18.6515 Z" fill="#000000" fill-rule="nonzero" fill-opacity="1" /><path clip-path="url(#clip000)" d="M697.346 6.81709 L702.67 6.81709 L702.67 51.84 L697.346 51.84 L697.346 6.81709 Z" fill="#000000" fill-rule="nonzero" fill-opacity="1" /><path clip-path="url(#clip000)" d="M713.26 39.0507 L713.26 19.4328 L718.584 19.4328 L718.584 38.8482 Q718.584 43.4488 720.378 45.7636 Q722.172 48.0495 725.76 48.0495 Q730.072 48.0495 732.56 45.3007 Q735.077 42.5519 735.077 37.8065 L735.077 19.4328 L740.401 19.4328 L740.401 51.84 L735.077 51.84 L735.077 46.8632 Q733.139 49.8145 730.563 51.2613 Q728.017 52.6791 724.632 52.6791 Q719.047 52.6791 716.154 49.2069 Q713.26 45.7347 713.26 39.0507 M726.657 18.6515 L726.657 18.6515 Z" fill="#000000" fill-rule="nonzero" fill-opacity="1" /><path clip-path="url(#clip000)" d="M774.689 20.677 L774.689 25.6538 Q772.432 24.4096 770.147 23.802 Q767.89 23.1654 765.575 23.1654 Q760.395 23.1654 757.531 26.464 Q754.666 29.7336 754.666 35.6653 Q754.666 41.597 757.531 44.8956 Q760.395 48.1653 765.575 48.1653 Q767.89 48.1653 770.147 47.5576 Q772.432 46.921 774.689 45.6768 L774.689 50.5958 Q772.461 51.6375 770.06 52.1583 Q767.687 52.6791 764.996 52.6791 Q757.676 52.6791 753.364 48.0784 Q749.053 43.4778 749.053 35.6653 Q749.053 27.7371 753.393 23.1943 Q757.762 18.6515 765.343 18.6515 Q767.803 18.6515 770.147 19.1724 Q772.49 19.6642 774.689 20.677 M767.166 51.84 Q768.758 53.634 769.539 55.1386 Q770.32 56.6722 770.32 58.061 Q770.32 60.6362 768.584 61.9383 Q766.848 63.2693 763.434 63.2693 Q762.103 63.2693 760.829 63.0957 Q759.585 62.9221 758.341 62.5749 L758.341 58.7844 Q759.325 59.2763 760.395 59.4788 Q761.466 59.7103 762.826 59.7103 Q764.533 59.7103 765.401 59.0159 Q766.269 58.3214 766.269 56.9904 Q766.269 56.1224 765.633 54.8492 Q765.025 53.605 763.723 51.84 L767.166 51.84 Z" fill="#000000" fill-rule="nonzero" fill-opacity="1" /><path clip-path="url(#clip000)" d="M798.677 35.5496 Q792.224 35.5496 789.736 37.0253 Q787.247 38.501 787.247 42.06 Q787.247 44.8956 789.099 46.5738 Q790.98 48.2231 794.192 48.2231 Q798.619 48.2231 801.281 45.0981 Q803.972 41.9442 803.972 36.7359 L803.972 35.5496 L798.677 35.5496 M809.296 33.3505 L809.296 51.84 L803.972 51.84 L803.972 46.921 Q802.149 49.8724 799.429 51.2902 Q796.709 52.6791 792.774 52.6791 Q787.797 52.6791 784.846 49.9014 Q781.923 47.0947 781.923 42.4072 Q781.923 36.9385 785.569 34.1607 Q789.244 31.3829 796.506 31.3829 L803.972 31.3829 L803.972 30.8621 Q803.972 27.1874 801.541 25.1908 Q799.139 23.1654 794.77 23.1654 Q791.993 23.1654 789.359 23.8309 Q786.726 24.4964 784.296 25.8274 L784.296 20.9085 Q787.218 19.78 789.967 19.2302 Q792.716 18.6515 795.32 18.6515 Q802.351 18.6515 805.823 22.2973 Q809.296 25.9431 809.296 33.3505 M795.436 12.199 L793.786 10.6076 Q793.15 10.0289 792.658 9.76847 Q792.195 9.47912 791.819 9.47912 Q790.719 9.47912 790.199 10.5497 Q789.678 11.5914 789.62 13.964 L786.003 13.964 Q786.061 10.0578 787.537 7.94556 Q789.012 5.80437 791.645 5.80437 Q792.745 5.80437 793.671 6.20946 Q794.597 6.61455 795.667 7.5694 L797.317 9.16083 Q797.953 9.73953 798.416 10.0289 Q798.908 10.2893 799.284 10.2893 Q800.384 10.2893 800.905 9.24764 Q801.425 8.17704 801.483 5.80437 L805.1 5.80437 Q805.042 9.7106 803.567 11.8518 Q802.091 13.964 799.458 13.964 Q798.358 13.964 797.432 13.559 Q796.506 13.1539 795.436 12.199 Z" fill="#000000" fill-rule="nonzero" fill-opacity="1" /><path clip-path="url(#clip000)" d="M832.82 23.1654 Q828.537 23.1654 826.049 26.5218 Q823.561 29.8494 823.561 35.6653 Q823.561 41.4813 826.02 44.8377 Q828.509 48.1653 832.82 48.1653 Q837.073 48.1653 839.562 44.8088 Q842.05 41.4523 842.05 35.6653 Q842.05 29.9072 839.562 26.5508 Q837.073 23.1654 832.82 23.1654 M832.82 18.6515 Q839.764 18.6515 843.728 23.1654 Q847.692 27.6792 847.692 35.6653 Q847.692 43.6225 843.728 48.1653 Q839.764 52.6791 832.82 52.6791 Q825.846 52.6791 821.882 48.1653 Q817.947 43.6225 817.947 35.6653 Q817.947 27.6792 821.882 23.1654 Q825.846 18.6515 832.82 18.6515 Z" fill="#000000" fill-rule="nonzero" fill-opacity="1" /><path clip-path="url(#clip000)" d="M896.679 24.3517 L896.679 6.81709 L902.003 6.81709 L902.003 51.84 L896.679 51.84 L896.679 46.9789 Q895.001 49.8724 892.426 51.2902 Q889.88 52.6791 886.292 52.6791 Q880.418 52.6791 876.714 47.9916 Q873.04 43.3042 873.04 35.6653 Q873.04 28.0265 876.714 23.339 Q880.418 18.6515 886.292 18.6515 Q889.88 18.6515 892.426 20.0693 Q895.001 21.4582 896.679 24.3517 M878.537 35.6653 Q878.537 41.5391 880.939 44.8956 Q883.369 48.2231 887.594 48.2231 Q891.818 48.2231 894.249 44.8956 Q896.679 41.5391 896.679 35.6653 Q896.679 29.7915 894.249 26.464 Q891.818 23.1075 887.594 23.1075 Q883.369 23.1075 880.939 26.464 Q878.537 29.7915 878.537 35.6653 Z" fill="#000000" fill-rule="nonzero" fill-opacity="1" /><path clip-path="url(#clip000)" d="M927.698 35.5496 Q921.245 35.5496 918.757 37.0253 Q916.268 38.501 916.268 42.06 Q916.268 44.8956 918.12 46.5738 Q920.001 48.2231 923.213 48.2231 Q927.64 48.2231 930.302 45.0981 Q932.993 41.9442 932.993 36.7359 L932.993 35.5496 L927.698 35.5496 M938.317 33.3505 L938.317 51.84 L932.993 51.84 L932.993 46.921 Q931.17 49.8724 928.45 51.2902 Q925.73 52.6791 921.795 52.6791 Q916.818 52.6791 913.867 49.9014 Q910.944 47.0947 910.944 42.4072 Q910.944 36.9385 914.59 34.1607 Q918.265 31.3829 925.528 31.3829 L932.993 31.3829 L932.993 30.8621 Q932.993 27.1874 930.562 25.1908 Q928.161 23.1654 923.792 23.1654 Q921.014 23.1654 918.381 23.8309 Q915.748 24.4964 913.317 25.8274 L913.317 20.9085 Q916.24 19.78 918.988 19.2302 Q921.737 18.6515 924.341 18.6515 Q931.373 18.6515 934.845 22.2973 Q938.317 25.9431 938.317 33.3505 Z" fill="#000000" fill-rule="nonzero" fill-opacity="1" /><path clip-path="url(#clip000)" d="M995.84 34.3054 L995.84 36.9095 L971.361 36.9095 Q971.708 42.4072 974.659 45.3007 Q977.64 48.1653 982.935 48.1653 Q986.002 48.1653 988.866 47.4129 Q991.76 46.6606 994.596 45.156 L994.596 50.1907 Q991.731 51.406 988.722 52.0425 Q985.713 52.6791 982.616 52.6791 Q974.862 52.6791 970.319 48.1653 Q965.805 43.6514 965.805 35.9547 Q965.805 27.9975 970.088 23.339 Q974.399 18.6515 981.691 18.6515 Q988.23 18.6515 992.02 22.876 Q995.84 27.0716 995.84 34.3054 M990.516 32.7429 Q990.458 28.3737 988.056 25.7695 Q985.684 23.1654 981.748 23.1654 Q977.292 23.1654 974.601 25.6827 Q971.939 28.2001 971.534 32.7718 L990.516 32.7429 Z" fill="#000000" fill-rule="nonzero" fill-opacity="1" /><path clip-path="url(#clip000)" d="M1007.76 35.6653 Q1007.76 41.5391 1010.16 44.8956 Q1012.59 48.2231 1016.82 48.2231 Q1021.04 48.2231 1023.47 44.8956 Q1025.9 41.5391 1025.9 35.6653 Q1025.9 29.7915 1023.47 26.464 Q1021.04 23.1075 1016.82 23.1075 Q1012.59 23.1075 1010.16 26.464 Q1007.76 29.7915 1007.76 35.6653 M1025.9 46.9789 Q1024.23 49.8724 1021.65 51.2902 Q1019.1 52.6791 1015.52 52.6791 Q1009.64 52.6791 1005.94 47.9916 Q1002.26 43.3042 1002.26 35.6653 Q1002.26 28.0265 1005.94 23.339 Q1009.64 18.6515 1015.52 18.6515 Q1019.1 18.6515 1021.65 20.0693 Q1024.23 21.4582 1025.9 24.3517 L1025.9 19.4328 L1031.23 19.4328 L1031.23 64.1663 L1025.9 64.1663 L1025.9 46.9789 Z" fill="#000000" fill-rule="nonzero" fill-opacity="1" /><path clip-path="url(#clip000)" d="M1041.64 39.0507 L1041.64 19.4328 L1046.97 19.4328 L1046.97 38.8482 Q1046.97 43.4488 1048.76 45.7636 Q1050.56 48.0495 1054.14 48.0495 Q1058.46 48.0495 1060.94 45.3007 Q1063.46 42.5519 1063.46 37.8065 L1063.46 19.4328 L1068.79 19.4328 L1068.79 51.84 L1063.46 51.84 L1063.46 46.8632 Q1061.52 49.8145 1058.95 51.2613 Q1056.4 52.6791 1053.02 52.6791 Q1047.43 52.6791 1044.54 49.2069 Q1041.64 45.7347 1041.64 39.0507 M1055.04 18.6515 L1055.04 18.6515 Z" fill="#000000" fill-rule="nonzero" fill-opacity="1" /><path clip-path="url(#clip000)" d="M1094.48 35.5496 Q1088.03 35.5496 1085.54 37.0253 Q1083.05 38.501 1083.05 42.06 Q1083.05 44.8956 1084.9 46.5738 Q1086.78 48.2231 1089.99 48.2231 Q1094.42 48.2231 1097.08 45.0981 Q1099.77 41.9442 1099.77 36.7359 L1099.77 35.5496 L1094.48 35.5496 M1105.1 33.3505 L1105.1 51.84 L1099.77 51.84 L1099.77 46.921 Q1097.95 49.8724 1095.23 51.2902 Q1092.51 52.6791 1088.58 52.6791 Q1083.6 52.6791 1080.65 49.9014 Q1077.73 47.0947 1077.73 42.4072 Q1077.73 36.9385 1081.37 34.1607 Q1085.05 31.3829 1092.31 31.3829 L1099.77 31.3829 L1099.77 30.8621 Q1099.77 27.1874 1097.34 25.1908 Q1094.94 23.1654 1090.57 23.1654 Q1087.8 23.1654 1085.16 23.8309 Q1082.53 24.4964 1080.1 25.8274 L1080.1 20.9085 Q1083.02 19.78 1085.77 19.2302 Q1088.52 18.6515 1091.12 18.6515 Q1098.15 18.6515 1101.63 22.2973 Q1105.1 25.9431 1105.1 33.3505 Z" fill="#000000" fill-rule="nonzero" fill-opacity="1" /><path clip-path="url(#clip000)" d="M1139.39 20.677 L1139.39 25.6538 Q1137.13 24.4096 1134.84 23.802 Q1132.59 23.1654 1130.27 23.1654 Q1125.09 23.1654 1122.23 26.464 Q1119.36 29.7336 1119.36 35.6653 Q1119.36 41.597 1122.23 44.8956 Q1125.09 48.1653 1130.27 48.1653 Q1132.59 48.1653 1134.84 47.5576 Q1137.13 46.921 1139.39 45.6768 L1139.39 50.5958 Q1137.16 51.6375 1134.76 52.1583 Q1132.38 52.6791 1129.69 52.6791 Q1122.37 52.6791 1118.06 48.0784 Q1113.75 43.4778 1113.75 35.6653 Q1113.75 27.7371 1118.09 23.1943 Q1122.46 18.6515 1130.04 18.6515 Q1132.5 18.6515 1134.84 19.1724 Q1137.19 19.6642 1139.39 20.677 M1131.86 51.84 Q1133.45 53.634 1134.24 55.1386 Q1135.02 56.6722 1135.02 58.061 Q1135.02 60.6362 1133.28 61.9383 Q1131.55 63.2693 1128.13 63.2693 Q1126.8 63.2693 1125.53 63.0957 Q1124.28 62.9221 1123.04 62.5749 L1123.04 58.7844 Q1124.02 59.2763 1125.09 59.4788 Q1126.16 59.7103 1127.52 59.7103 Q1129.23 59.7103 1130.1 59.0159 Q1130.97 58.3214 1130.97 56.9904 Q1130.97 56.1224 1130.33 54.8492 Q1129.72 53.605 1128.42 51.84 L1131.86 51.84 Z" fill="#000000" fill-rule="nonzero" fill-opacity="1" /><path clip-path="url(#clip000)" d="M1163.37 35.5496 Q1156.92 35.5496 1154.43 37.0253 Q1151.94 38.501 1151.94 42.06 Q1151.94 44.8956 1153.8 46.5738 Q1155.68 48.2231 1158.89 48.2231 Q1163.32 48.2231 1165.98 45.0981 Q1168.67 41.9442 1168.67 36.7359 L1168.67 35.5496 L1163.37 35.5496 M1173.99 33.3505 L1173.99 51.84 L1168.67 51.84 L1168.67 46.921 Q1166.85 49.8724 1164.13 51.2902 Q1161.41 52.6791 1157.47 52.6791 Q1152.49 52.6791 1149.54 49.9014 Q1146.62 47.0947 1146.62 42.4072 Q1146.62 36.9385 1150.27 34.1607 Q1153.94 31.3829 1161.2 31.3829 L1168.67 31.3829 L1168.67 30.8621 Q1168.67 27.1874 1166.24 25.1908 Q1163.84 23.1654 1159.47 23.1654 Q1156.69 23.1654 1154.06 23.8309 Q1151.42 24.4964 1148.99 25.8274 L1148.99 20.9085 Q1151.92 19.78 1154.66 19.2302 Q1157.41 18.6515 1160.02 18.6515 Q1167.05 18.6515 1170.52 22.2973 Q1173.99 25.9431 1173.99 33.3505 M1160.13 12.199 L1158.48 10.6076 Q1157.85 10.0289 1157.36 9.76847 Q1156.89 9.47912 1156.52 9.47912 Q1155.42 9.47912 1154.9 10.5497 Q1154.37 11.5914 1154.32 13.964 L1150.7 13.964 Q1150.76 10.0578 1152.23 7.94556 Q1153.71 5.80437 1156.34 5.80437 Q1157.44 5.80437 1158.37 6.20946 Q1159.29 6.61455 1160.36 7.5694 L1162.01 9.16083 Q1162.65 9.73953 1163.11 10.0289 Q1163.61 10.2893 1163.98 10.2893 Q1165.08 10.2893 1165.6 9.24764 Q1166.12 8.17704 1166.18 5.80437 L1169.8 5.80437 Q1169.74 9.7106 1168.26 11.8518 Q1166.79 13.964 1164.15 13.964 Q1163.06 13.964 1162.13 13.559 Q1161.2 13.1539 1160.13 12.199 Z" fill="#000000" fill-rule="nonzero" fill-opacity="1" /><path clip-path="url(#clip000)" d="M1197.52 23.1654 Q1193.23 23.1654 1190.75 26.5218 Q1188.26 29.8494 1188.26 35.6653 Q1188.26 41.4813 1190.72 44.8377 Q1193.21 48.1653 1197.52 48.1653 Q1201.77 48.1653 1204.26 44.8088 Q1206.75 41.4523 1206.75 35.6653 Q1206.75 29.9072 1204.26 26.5508 Q1201.77 23.1654 1197.52 23.1654 M1197.52 18.6515 Q1204.46 18.6515 1208.43 23.1654 Q1212.39 27.6792 1212.39 35.6653 Q1212.39 43.6225 1208.43 48.1653 Q1204.46 52.6791 1197.52 52.6791 Q1190.54 52.6791 1186.58 48.1653 Q1182.64 43.6225 1182.64 35.6653 Q1182.64 27.6792 1186.58 23.1654 Q1190.54 18.6515 1197.52 18.6515 Z" fill="#000000" fill-rule="nonzero" fill-opacity="1" /><path clip-path="url(#clip000)" d="M1261.38 24.3517 L1261.38 6.81709 L1266.7 6.81709 L1266.7 51.84 L1261.38 51.84 L1261.38 46.9789 Q1259.7 49.8724 1257.12 51.2902 Q1254.58 52.6791 1250.99 52.6791 Q1245.12 52.6791 1241.41 47.9916 Q1237.74 43.3042 1237.74 35.6653 Q1237.74 28.0265 1241.41 23.339 Q1245.12 18.6515 1250.99 18.6515 Q1254.58 18.6515 1257.12 20.0693 Q1259.7 21.4582 1261.38 24.3517 M1243.23 35.6653 Q1243.23 41.5391 1245.64 44.8956 Q1248.07 48.2231 1252.29 48.2231 Q1256.52 48.2231 1258.95 44.8956 Q1261.38 41.5391 1261.38 35.6653 Q1261.38 29.7915 1258.95 26.464 Q1256.52 23.1075 1252.29 23.1075 Q1248.07 23.1075 1245.64 26.464 Q1243.23 29.7915 1243.23 35.6653 Z" fill="#000000" fill-rule="nonzero" fill-opacity="1" /><path clip-path="url(#clip000)" d="M1277.67 19.4328 L1282.99 19.4328 L1282.99 51.84 L1277.67 51.84 L1277.67 19.4328 M1277.67 6.81709 L1282.99 6.81709 L1282.99 13.559 L1277.67 13.559 L1277.67 6.81709 Z" fill="#000000" fill-rule="nonzero" fill-opacity="1" /><path clip-path="url(#clip000)" d="M1310.54 6.81709 L1310.54 11.2442 L1305.44 11.2442 Q1302.58 11.2442 1301.45 12.4016 Q1300.35 13.559 1300.35 16.5682 L1300.35 19.4328 L1309.12 19.4328 L1309.12 23.5705 L1300.35 23.5705 L1300.35 51.84 L1295 51.84 L1295 23.5705 L1289.91 23.5705 L1289.91 19.4328 L1295 19.4328 L1295 17.1758 Q1295 11.765 1297.52 9.30551 Q1300.03 6.81709 1305.5 6.81709 L1310.54 6.81709 Z" fill="#000000" fill-rule="nonzero" fill-opacity="1" /><path clip-path="url(#clip000)" d="M1342.71 34.3054 L1342.71 36.9095 L1318.23 36.9095 Q1318.58 42.4072 1321.53 45.3007 Q1324.51 48.1653 1329.81 48.1653 Q1332.88 48.1653 1335.74 47.4129 Q1338.63 46.6606 1341.47 45.156 L1341.47 50.1907 Q1338.6 51.406 1335.59 52.0425 Q1332.59 52.6791 1329.49 52.6791 Q1321.74 52.6791 1317.19 48.1653 Q1312.68 43.6514 1312.68 35.9547 Q1312.68 27.9975 1316.96 23.339 Q1321.27 18.6515 1328.56 18.6515 Q1335.1 18.6515 1338.89 22.876 Q1342.71 27.0716 1342.71 34.3054 M1337.39 32.7429 Q1337.33 28.3737 1334.93 25.7695 Q1332.56 23.1654 1328.62 23.1654 Q1324.17 23.1654 1321.47 25.6827 Q1318.81 28.2001 1318.41 32.7718 L1337.39 32.7429 Z" fill="#000000" fill-rule="nonzero" fill-opacity="1" /><path clip-path="url(#clip000)" d="M1370.23 24.4096 Q1369.33 23.8888 1368.26 23.6573 Q1367.22 23.3969 1365.95 23.3969 Q1361.43 23.3969 1359 26.3482 Q1356.6 29.2707 1356.6 34.7683 L1356.6 51.84 L1351.25 51.84 L1351.25 19.4328 L1356.6 19.4328 L1356.6 24.4675 Q1358.28 21.5161 1360.97 20.0983 Q1363.66 18.6515 1367.51 18.6515 Q1368.06 18.6515 1368.73 18.7383 Q1369.39 18.7962 1370.2 18.9409 L1370.23 24.4096 Z" fill="#000000" fill-rule="nonzero" fill-opacity="1" /><path clip-path="url(#clip000)" d="M1402.23 34.3054 L1402.23 36.9095 L1377.75 36.9095 Q1378.1 42.4072 1381.05 45.3007 Q1384.03 48.1653 1389.33 48.1653 Q1392.39 48.1653 1395.26 47.4129 Q1398.15 46.6606 1400.99 45.156 L1400.99 50.1907 Q1398.12 51.406 1395.11 52.0425 Q1392.11 52.6791 1389.01 52.6791 Q1381.25 52.6791 1376.71 48.1653 Q1372.2 43.6514 1372.2 35.9547 Q1372.2 27.9975 1376.48 23.339 Q1380.79 18.6515 1388.08 18.6515 Q1394.62 18.6515 1398.41 22.876 Q1402.23 27.0716 1402.23 34.3054 M1396.91 32.7429 Q1396.85 28.3737 1394.45 25.7695 Q1392.08 23.1654 1388.14 23.1654 Q1383.68 23.1654 1380.99 25.6827 Q1378.33 28.2001 1377.93 32.7718 L1396.91 32.7429 Z" fill="#000000" fill-rule="nonzero" fill-opacity="1" /><path clip-path="url(#clip000)" d="M1437.91 32.2799 L1437.91 51.84 L1432.59 51.84 L1432.59 32.4535 Q1432.59 27.8529 1430.79 25.567 Q1429 23.2811 1425.41 23.2811 Q1421.1 23.2811 1418.61 26.03 Q1416.12 28.7788 1416.12 33.5241 L1416.12 51.84 L1410.77 51.84 L1410.77 19.4328 L1416.12 19.4328 L1416.12 24.4675 Q1418.03 21.545 1420.61 20.0983 Q1423.21 18.6515 1426.6 18.6515 Q1432.18 18.6515 1435.04 22.1237 Q1437.91 25.567 1437.91 32.2799 Z" fill="#000000" fill-rule="nonzero" fill-opacity="1" /><path clip-path="url(#clip000)" d="M1471.85 20.677 L1471.85 25.6538 Q1469.59 24.4096 1467.31 23.802 Q1465.05 23.1654 1462.74 23.1654 Q1457.56 23.1654 1454.69 26.464 Q1451.83 29.7336 1451.83 35.6653 Q1451.83 41.597 1454.69 44.8956 Q1457.56 48.1653 1462.74 48.1653 Q1465.05 48.1653 1467.31 47.5576 Q1469.59 46.921 1471.85 45.6768 L1471.85 50.5958 Q1469.62 51.6375 1467.22 52.1583 Q1464.85 52.6791 1462.16 52.6791 Q1454.84 52.6791 1450.52 48.0784 Q1446.21 43.4778 1446.21 35.6653 Q1446.21 27.7371 1450.55 23.1943 Q1454.92 18.6515 1462.5 18.6515 Q1464.96 18.6515 1467.31 19.1724 Q1469.65 19.6642 1471.85 20.677 Z" fill="#000000" fill-rule="nonzero" fill-opacity="1" /><path clip-path="url(#clip000)" d="M1481.11 19.4328 L1486.43 19.4328 L1486.43 51.84 L1481.11 51.84 L1481.11 19.4328 M1481.11 6.81709 L1486.43 6.81709 L1486.43 13.559 L1481.11 13.559 L1481.11 6.81709 Z" fill="#000000" fill-rule="nonzero" fill-opacity="1" /><path clip-path="url(#clip000)" d="M1512.3 35.5496 Q1505.85 35.5496 1503.36 37.0253 Q1500.87 38.501 1500.87 42.06 Q1500.87 44.8956 1502.72 46.5738 Q1504.6 48.2231 1507.82 48.2231 Q1512.24 48.2231 1514.91 45.0981 Q1517.6 41.9442 1517.6 36.7359 L1517.6 35.5496 L1512.3 35.5496 M1522.92 33.3505 L1522.92 51.84 L1517.6 51.84 L1517.6 46.921 Q1515.77 49.8724 1513.05 51.2902 Q1510.33 52.6791 1506.4 52.6791 Q1501.42 52.6791 1498.47 49.9014 Q1495.55 47.0947 1495.55 42.4072 Q1495.55 36.9385 1499.19 34.1607 Q1502.87 31.3829 1510.13 31.3829 L1517.6 31.3829 L1517.6 30.8621 Q1517.6 27.1874 1515.17 25.1908 Q1512.76 23.1654 1508.39 23.1654 Q1505.62 23.1654 1502.98 23.8309 Q1500.35 24.4964 1497.92 25.8274 L1497.92 20.9085 Q1500.84 19.78 1503.59 19.2302 Q1506.34 18.6515 1508.94 18.6515 Q1515.98 18.6515 1519.45 22.2973 Q1522.92 25.9431 1522.92 33.3505 Z" fill="#000000" fill-rule="nonzero" fill-opacity="1" /><path clip-path="url(#clip000)" d="M1533.89 6.81709 L1539.21 6.81709 L1539.21 51.84 L1533.89 51.84 L1533.89 6.81709 Z" fill="#000000" fill-rule="nonzero" fill-opacity="1" /><path clip-path="url(#clip000)" d="M1583.92 35.5496 Q1577.46 35.5496 1574.97 37.0253 Q1572.49 38.501 1572.49 42.06 Q1572.49 44.8956 1574.34 46.5738 Q1576.22 48.2231 1579.43 48.2231 Q1583.86 48.2231 1586.52 45.0981 Q1589.21 41.9442 1589.21 36.7359 L1589.21 35.5496 L1583.92 35.5496 M1594.53 33.3505 L1594.53 51.84 L1589.21 51.84 L1589.21 46.921 Q1587.39 49.8724 1584.67 51.2902 Q1581.95 52.6791 1578.01 52.6791 Q1573.04 52.6791 1570.08 49.9014 Q1567.16 47.0947 1567.16 42.4072 Q1567.16 36.9385 1570.81 34.1607 Q1574.48 31.3829 1581.75 31.3829 L1589.21 31.3829 L1589.21 30.8621 Q1589.21 27.1874 1586.78 25.1908 Q1584.38 23.1654 1580.01 23.1654 Q1577.23 23.1654 1574.6 23.8309 Q1571.97 24.4964 1569.53 25.8274 L1569.53 20.9085 Q1572.46 19.78 1575.21 19.2302 Q1577.95 18.6515 1580.56 18.6515 Q1587.59 18.6515 1591.06 22.2973 Q1594.53 25.9431 1594.53 33.3505 Z" fill="#000000" fill-rule="nonzero" fill-opacity="1" /><path clip-path="url(#clip000)" d="M1605.5 6.81709 L1610.82 6.81709 L1610.82 51.84 L1605.5 51.84 L1605.5 6.81709 Z" fill="#000000" fill-rule="nonzero" fill-opacity="1" /><path clip-path="url(#clip000)" d="M1649.68 34.3054 L1649.68 36.9095 L1625.21 36.9095 Q1625.55 42.4072 1628.5 45.3007 Q1631.48 48.1653 1636.78 48.1653 Q1639.85 48.1653 1642.71 47.4129 Q1645.6 46.6606 1648.44 45.156 L1648.44 50.1907 Q1645.58 51.406 1642.57 52.0425 Q1639.56 52.6791 1636.46 52.6791 Q1628.71 52.6791 1624.16 48.1653 Q1619.65 43.6514 1619.65 35.9547 Q1619.65 27.9975 1623.93 23.339 Q1628.24 18.6515 1635.54 18.6515 Q1642.07 18.6515 1645.87 22.876 Q1649.68 27.0716 1649.68 34.3054 M1644.36 32.7429 Q1644.3 28.3737 1641.9 25.7695 Q1639.53 23.1654 1635.59 23.1654 Q1631.14 23.1654 1628.45 25.6827 Q1625.78 28.2001 1625.38 32.7718 L1644.36 32.7429 Z" fill="#000000" fill-rule="nonzero" fill-opacity="1" /><path clip-path="url(#clip000)" d="M1673.15 35.5496 Q1666.7 35.5496 1664.21 37.0253 Q1661.72 38.501 1661.72 42.06 Q1661.72 44.8956 1663.57 46.5738 Q1665.45 48.2231 1668.67 48.2231 Q1673.09 48.2231 1675.76 45.0981 Q1678.45 41.9442 1678.45 36.7359 L1678.45 35.5496 L1673.15 35.5496 M1683.77 33.3505 L1683.77 51.84 L1678.45 51.84 L1678.45 46.921 Q1676.62 49.8724 1673.9 51.2902 Q1671.18 52.6791 1667.25 52.6791 Q1662.27 52.6791 1659.32 49.9014 Q1656.4 47.0947 1656.4 42.4072 Q1656.4 36.9385 1660.04 34.1607 Q1663.72 31.3829 1670.98 31.3829 L1678.45 31.3829 L1678.45 30.8621 Q1678.45 27.1874 1676.02 25.1908 Q1673.61 23.1654 1669.24 23.1654 Q1666.47 23.1654 1663.83 23.8309 Q1661.2 24.4964 1658.77 25.8274 L1658.77 20.9085 Q1661.69 19.78 1664.44 19.2302 Q1667.19 18.6515 1669.79 18.6515 Q1676.83 18.6515 1680.3 22.2973 Q1683.77 25.9431 1683.77 33.3505 Z" fill="#000000" fill-rule="nonzero" fill-opacity="1" /><path clip-path="url(#clip000)" d="M1700 10.2314 L1700 19.4328 L1710.97 19.4328 L1710.97 23.5705 L1700 23.5705 L1700 41.163 Q1700 45.1271 1701.07 46.2555 Q1702.17 47.384 1705.5 47.384 L1710.97 47.384 L1710.97 51.84 L1705.5 51.84 Q1699.34 51.84 1696.99 49.5541 Q1694.65 47.2393 1694.65 41.163 L1694.65 23.5705 L1690.74 23.5705 L1690.74 19.4328 L1694.65 19.4328 L1694.65 10.2314 L1700 10.2314 Z" fill="#000000" fill-rule="nonzero" fill-opacity="1" /><path clip-path="url(#clip000)" d="M1730.53 23.1654 Q1726.25 23.1654 1723.76 26.5218 Q1721.27 29.8494 1721.27 35.6653 Q1721.27 41.4813 1723.73 44.8377 Q1726.22 48.1653 1730.53 48.1653 Q1734.78 48.1653 1737.27 44.8088 Q1739.76 41.4523 1739.76 35.6653 Q1739.76 29.9072 1737.27 26.5508 Q1734.78 23.1654 1730.53 23.1654 M1730.53 18.6515 Q1737.47 18.6515 1741.44 23.1654 Q1745.4 27.6792 1745.4 35.6653 Q1745.4 43.6225 1741.44 48.1653 Q1737.47 52.6791 1730.53 52.6791 Q1723.56 52.6791 1719.59 48.1653 Q1715.66 43.6225 1715.66 35.6653 Q1715.66 27.6792 1719.59 23.1654 Q1723.56 18.6515 1730.53 18.6515 M1734.55 4.44442 L1740.31 4.44442 L1730.88 15.324 L1726.45 15.324 L1734.55 4.44442 Z" fill="#000000" fill-rule="nonzero" fill-opacity="1" /><path clip-path="url(#clip000)" d="M1773.01 24.4096 Q1772.11 23.8888 1771.04 23.6573 Q1770 23.3969 1768.72 23.3969 Q1764.21 23.3969 1761.78 26.3482 Q1759.38 29.2707 1759.38 34.7683 L1759.38 51.84 L1754.02 51.84 L1754.02 19.4328 L1759.38 19.4328 L1759.38 24.4675 Q1761.06 21.5161 1763.75 20.0983 Q1766.44 18.6515 1770.29 18.6515 Q1770.84 18.6515 1771.5 18.7383 Q1772.17 18.7962 1772.98 18.9409 L1773.01 24.4096 Z" fill="#000000" fill-rule="nonzero" fill-opacity="1" /><path clip-path="url(#clip000)" d="M1778.59 19.4328 L1783.91 19.4328 L1783.91 51.84 L1778.59 51.84 L1778.59 19.4328 M1778.59 6.81709 L1783.91 6.81709 L1783.91 13.559 L1778.59 13.559 L1778.59 6.81709 Z" fill="#000000" fill-rule="nonzero" fill-opacity="1" /><path clip-path="url(#clip000)" d="M1809.78 35.5496 Q1803.33 35.5496 1800.84 37.0253 Q1798.35 38.501 1798.35 42.06 Q1798.35 44.8956 1800.2 46.5738 Q1802.09 48.2231 1805.3 48.2231 Q1809.72 48.2231 1812.39 45.0981 Q1815.08 41.9442 1815.08 36.7359 L1815.08 35.5496 L1809.78 35.5496 M1820.4 33.3505 L1820.4 51.84 L1815.08 51.84 L1815.08 46.921 Q1813.25 49.8724 1810.53 51.2902 Q1807.81 52.6791 1803.88 52.6791 Q1798.9 52.6791 1795.95 49.9014 Q1793.03 47.0947 1793.03 42.4072 Q1793.03 36.9385 1796.67 34.1607 Q1800.35 31.3829 1807.61 31.3829 L1815.08 31.3829 L1815.08 30.8621 Q1815.08 27.1874 1812.65 25.1908 Q1810.25 23.1654 1805.88 23.1654 Q1803.1 23.1654 1800.47 23.8309 Q1797.83 24.4964 1795.4 25.8274 L1795.4 20.9085 Q1798.32 19.78 1801.07 19.2302 Q1803.82 18.6515 1806.43 18.6515 Q1813.46 18.6515 1816.93 22.2973 Q1820.4 25.9431 1820.4 33.3505 Z" fill="#000000" fill-rule="nonzero" fill-opacity="1" /><path clip-path="url(#clip000)" d="M1855.24 4.44442 L1863.4 15.2661 L1858.97 15.2661 L1849.54 4.44442 L1855.24 4.44442 Z" fill="#000000" fill-rule="nonzero" fill-opacity="1" /><path clip-path="url(#clip000)" d="M1879.28 39.0507 L1879.28 19.4328 L1884.61 19.4328 L1884.61 38.8482 Q1884.61 43.4488 1886.4 45.7636 Q1888.2 48.0495 1891.78 48.0495 Q1896.1 48.0495 1898.58 45.3007 Q1901.1 42.5519 1901.1 37.8065 L1901.1 19.4328 L1906.43 19.4328 L1906.43 51.84 L1901.1 51.84 L1901.1 46.8632 Q1899.16 49.8145 1896.59 51.2613 Q1894.04 52.6791 1890.66 52.6791 Q1885.07 52.6791 1882.18 49.2069 Q1879.28 45.7347 1879.28 39.0507 M1892.68 18.6515 L1892.68 18.6515 Z" fill="#000000" fill-rule="nonzero" fill-opacity="1" /><path clip-path="url(#clip000)" d="M1922.43 8.64 L1922.43 24.6989 L1917.51 24.6989 L1917.51 8.64 L1922.43 8.64 Z" fill="#000000" fill-rule="nonzero" fill-opacity="1" /><path clip-path="url(#clip000)" d="M1953.21 24.9304 L1990.31 24.9304 L1990.31 29.7915 L1953.21 29.7915 L1953.21 24.9304 M1953.21 36.7359 L1990.31 36.7359 L1990.31 41.6549 L1953.21 41.6549 L1953.21 36.7359 Z" fill="#000000" fill-rule="nonzero" fill-opacity="1" /><path clip-path="url(#clip000)" d="M2041.67 20.3876 L2041.67 25.4223 Q2039.41 24.2649 2036.98 23.6862 Q2034.55 23.1075 2031.95 23.1075 Q2027.98 23.1075 2025.98 24.3228 Q2024.02 25.5381 2024.02 27.9686 Q2024.02 29.8204 2025.43 30.891 Q2026.85 31.9327 2031.14 32.8876 L2032.96 33.2926 Q2038.63 34.5079 2041 36.7359 Q2043.4 38.935 2043.4 42.8991 Q2043.4 47.4129 2039.82 50.046 Q2036.26 52.6791 2030.01 52.6791 Q2027.4 52.6791 2024.57 52.1583 Q2021.76 51.6664 2018.64 50.6537 L2018.64 45.156 Q2021.59 46.6896 2024.45 47.4708 Q2027.32 48.2231 2030.12 48.2231 Q2033.88 48.2231 2035.91 46.95 Q2037.93 45.6479 2037.93 43.3042 Q2037.93 41.134 2036.46 39.9766 Q2035.01 38.8192 2030.06 37.7486 L2028.21 37.3146 Q2023.26 36.273 2021.07 34.1318 Q2018.87 31.9616 2018.87 28.2001 Q2018.87 23.6283 2022.11 21.1399 Q2025.35 18.6515 2031.31 18.6515 Q2034.26 18.6515 2036.86 19.0855 Q2039.47 19.5196 2041.67 20.3876 Z" fill="#000000" fill-rule="nonzero" fill-opacity="1" /><path clip-path="url(#clip000)" d="M2051.88 19.4328 L2057.21 19.4328 L2057.21 51.84 L2051.88 51.84 L2051.88 19.4328 M2051.88 6.81709 L2057.21 6.81709 L2057.21 13.559 L2051.88 13.559 L2051.88 6.81709 Z" fill="#000000" fill-rule="nonzero" fill-opacity="1" /><path clip-path="url(#clip000)" d="M2095.28 32.2799 L2095.28 51.84 L2089.96 51.84 L2089.96 32.4535 Q2089.96 27.8529 2088.17 25.567 Q2086.37 23.2811 2082.78 23.2811 Q2078.47 23.2811 2075.98 26.03 Q2073.5 28.7788 2073.5 33.5241 L2073.5 51.84 L2068.14 51.84 L2068.14 19.4328 L2073.5 19.4328 L2073.5 24.4675 Q2075.41 21.545 2077.98 20.0983 Q2080.59 18.6515 2083.97 18.6515 Q2089.56 18.6515 2092.42 22.1237 Q2095.28 25.567 2095.28 32.2799 Z" fill="#000000" fill-rule="nonzero" fill-opacity="1" /><path clip-path="url(#clip000)" d="M2118.69 6.87496 Q2114.82 13.53 2112.93 20.0404 Q2111.05 26.5508 2111.05 33.2348 Q2111.05 39.9188 2112.93 46.487 Q2114.84 53.0263 2118.69 59.6525 L2114.06 59.6525 Q2109.72 52.8527 2107.55 46.2845 Q2105.41 39.7162 2105.41 33.2348 Q2105.41 26.7823 2107.55 20.2429 Q2109.69 13.7036 2114.06 6.87496 L2118.69 6.87496 Z" fill="#000000" fill-rule="nonzero" fill-opacity="1" /><path clip-path="url(#clip000)" d="M2125.41 8.64 L2131.31 8.64 L2140.39 45.156 L2149.45 8.64 L2156.02 8.64 L2165.1 45.156 L2174.16 8.64 L2180.09 8.64 L2169.24 51.84 L2161.89 51.84 L2152.78 14.3402 L2143.58 51.84 L2136.23 51.84 L2125.41 8.64 Z" fill="#000000" fill-rule="nonzero" fill-opacity="1" /><path clip-path="url(#clip000)" d="M2186.78 6.87496 L2191.41 6.87496 Q2195.75 13.7036 2197.89 20.2429 Q2200.06 26.7823 2200.06 33.2348 Q2200.06 39.7162 2197.89 46.2845 Q2195.75 52.8527 2191.41 59.6525 L2186.78 59.6525 Q2190.63 53.0263 2192.51 46.487 Q2194.42 39.9188 2194.42 33.2348 Q2194.42 26.5508 2192.51 20.0404 Q2190.63 13.53 2186.78 6.87496 Z" fill="#000000" fill-rule="nonzero" fill-opacity="1" /><path clip-path="url(#clip000)" d="M2210.19 39.0507 L2210.19 19.4328 L2215.51 19.4328 L2215.51 38.8482 Q2215.51 43.4488 2217.3 45.7636 Q2219.1 48.0495 2222.69 48.0495 Q2227 48.0495 2229.48 45.3007 Q2232 42.5519 2232 37.8065 L2232 19.4328 L2237.33 19.4328 L2237.33 51.84 L2232 51.84 L2232 46.8632 Q2230.06 49.8145 2227.49 51.2613 Q2224.94 52.6791 2221.56 52.6791 Q2215.97 52.6791 2213.08 49.2069 Q2210.19 45.7347 2210.19 39.0507 M2223.58 18.6515 L2223.58 18.6515 Z" fill="#000000" fill-rule="nonzero" fill-opacity="1" /><path clip-path="url(#clip000)" d="M2253.33 4.44442 L2261.49 15.2661 L2257.06 15.2661 L2247.63 4.44442 L2253.33 4.44442 Z" fill="#000000" fill-rule="nonzero" fill-opacity="1" /><path clip-path="url(#clip000)" d="M2320.08 20.677 L2320.08 25.6538 Q2317.82 24.4096 2315.54 23.802 Q2313.28 23.1654 2310.97 23.1654 Q2305.79 23.1654 2302.92 26.464 Q2300.06 29.7336 2300.06 35.6653 Q2300.06 41.597 2302.92 44.8956 Q2305.79 48.1653 2310.97 48.1653 Q2313.28 48.1653 2315.54 47.5576 Q2317.82 46.921 2320.08 45.6768 L2320.08 50.5958 Q2317.85 51.6375 2315.45 52.1583 Q2313.08 52.6791 2310.39 52.6791 Q2303.07 52.6791 2298.76 48.0784 Q2294.44 43.4778 2294.44 35.6653 Q2294.44 27.7371 2298.78 23.1943 Q2303.15 18.6515 2310.73 18.6515 Q2313.19 18.6515 2315.54 19.1724 Q2317.88 19.6642 2320.08 20.677 Z" fill="#000000" fill-rule="nonzero" fill-opacity="1" /><path clip-path="url(#clip000)" d="M2341.9 23.1654 Q2337.62 23.1654 2335.13 26.5218 Q2332.64 29.8494 2332.64 35.6653 Q2332.64 41.4813 2335.1 44.8377 Q2337.59 48.1653 2341.9 48.1653 Q2346.15 48.1653 2348.64 44.8088 Q2351.13 41.4523 2351.13 35.6653 Q2351.13 29.9072 2348.64 26.5508 Q2346.15 23.1654 2341.9 23.1654 M2341.9 18.6515 Q2348.84 18.6515 2352.81 23.1654 Q2356.77 27.6792 2356.77 35.6653 Q2356.77 43.6225 2352.81 48.1653 Q2348.84 52.6791 2341.9 52.6791 Q2334.92 52.6791 2330.96 48.1653 Q2327.02 43.6225 2327.02 35.6653 Q2327.02 27.6792 2330.96 23.1654 Q2334.92 18.6515 2341.9 18.6515 Z" fill="#000000" fill-rule="nonzero" fill-opacity="1" /><path clip-path="url(#clip000)" d="M2390.83 25.6538 Q2392.82 22.0659 2395.6 20.3587 Q2398.38 18.6515 2402.14 18.6515 Q2407.2 18.6515 2409.95 22.2105 Q2412.7 25.7406 2412.7 32.2799 L2412.7 51.84 L2407.35 51.84 L2407.35 32.4535 Q2407.35 27.795 2405.7 25.5381 Q2404.05 23.2811 2400.66 23.2811 Q2396.53 23.2811 2394.13 26.03 Q2391.72 28.7788 2391.72 33.5241 L2391.72 51.84 L2386.37 51.84 L2386.37 32.4535 Q2386.37 27.7661 2384.72 25.5381 Q2383.07 23.2811 2379.63 23.2811 Q2375.55 23.2811 2373.15 26.0589 Q2370.75 28.8077 2370.75 33.5241 L2370.75 51.84 L2365.39 51.84 L2365.39 19.4328 L2370.75 19.4328 L2370.75 24.4675 Q2372.57 21.4872 2375.11 20.0693 Q2377.66 18.6515 2381.16 18.6515 Q2384.69 18.6515 2387.15 20.4455 Q2389.64 22.2395 2390.83 25.6538 Z" fill="#000000" fill-rule="nonzero" fill-opacity="1" /><path clip-path="url(#clip000)" d="M2447.19 4.44442 L2455.35 15.2661 L2450.92 15.2661 L2441.49 4.44442 L2447.19 4.44442 Z" fill="#000000" fill-rule="nonzero" fill-opacity="1" /><path clip-path="url(#clip000)" d="M2471.24 39.0507 L2471.24 19.4328 L2476.56 19.4328 L2476.56 38.8482 Q2476.56 43.4488 2478.36 45.7636 Q2480.15 48.0495 2483.74 48.0495 Q2488.05 48.0495 2490.54 45.3007 Q2493.05 42.5519 2493.05 37.8065 L2493.05 19.4328 L2498.38 19.4328 L2498.38 51.84 L2493.05 51.84 L2493.05 46.8632 Q2491.12 49.8145 2488.54 51.2613 Q2485.99 52.6791 2482.61 52.6791 Q2477.02 52.6791 2474.13 49.2069 Q2471.24 45.7347 2471.24 39.0507 M2484.63 18.6515 L2484.63 18.6515 Z" fill="#000000" fill-rule="nonzero" fill-opacity="1" /><path clip-path="url(#clip000)" d="M2522.13 6.87496 Q2518.26 13.53 2516.38 20.0404 Q2514.49 26.5508 2514.49 33.2348 Q2514.49 39.9188 2516.38 46.487 Q2518.29 53.0263 2522.13 59.6525 L2517.5 59.6525 Q2513.16 52.8527 2510.99 46.2845 Q2508.85 39.7162 2508.85 33.2348 Q2508.85 26.7823 2510.99 20.2429 Q2513.13 13.7036 2517.5 6.87496 L2522.13 6.87496 Z" fill="#000000" fill-rule="nonzero" fill-opacity="1" /><path clip-path="url(#clip000)" d="M2545.72 12.4884 Q2541.2 12.4884 2538.92 16.9444 Q2536.66 21.3714 2536.66 30.2834 Q2536.66 39.1665 2538.92 43.6225 Q2541.2 48.0495 2545.72 48.0495 Q2550.26 48.0495 2552.52 43.6225 Q2554.8 39.1665 2554.8 30.2834 Q2554.8 21.3714 2552.52 16.9444 Q2550.26 12.4884 2545.72 12.4884 M2545.72 7.85875 Q2552.98 7.85875 2556.8 13.6168 Q2560.65 19.346 2560.65 30.2834 Q2560.65 41.1919 2556.8 46.95 Q2552.98 52.6791 2545.72 52.6791 Q2538.45 52.6791 2534.6 46.95 Q2530.79 41.1919 2530.79 30.2834 Q2530.79 19.346 2534.6 13.6168 Q2538.45 7.85875 2545.72 7.85875 Z" fill="#000000" fill-rule="nonzero" fill-opacity="1" /><path clip-path="url(#clip000)" d="M2569.33 6.87496 L2573.96 6.87496 Q2578.3 13.7036 2580.44 20.2429 Q2582.61 26.7823 2582.61 33.2348 Q2582.61 39.7162 2580.44 46.2845 Q2578.3 52.8527 2573.96 59.6525 L2569.33 59.6525 Q2573.18 53.0263 2575.06 46.487 Q2576.97 39.9188 2576.97 33.2348 Q2576.97 26.5508 2575.06 20.0404 Q2573.18 13.53 2569.33 6.87496 Z" fill="#000000" fill-rule="nonzero" fill-opacity="1" /><path clip-path="url(#clip000)" d="M2612.82 24.9304 L2649.91 24.9304 L2649.91 29.7915 L2612.82 29.7915 L2612.82 24.9304 M2612.82 36.7359 L2649.91 36.7359 L2649.91 41.6549 L2612.82 41.6549 L2612.82 36.7359 Z" fill="#000000" fill-rule="nonzero" fill-opacity="1" /><path clip-path="url(#clip000)" d="M2682.38 46.921 L2691.92 46.921 L2691.92 13.964 L2681.54 16.0474 L2681.54 10.7233 L2691.87 8.64 L2697.71 8.64 L2697.71 46.921 L2707.26 46.921 L2707.26 51.84 L2682.38 51.84 L2682.38 46.921 Z" fill="#000000" fill-rule="nonzero" fill-opacity="1" /><path clip-path="url(#clip000)" d="M2719.07 44.4905 L2725.17 44.4905 L2725.17 51.84 L2719.07 51.84 L2719.07 44.4905 Z" fill="#000000" fill-rule="nonzero" fill-opacity="1" /><path clip-path="url(#clip000)" d="M2750.4 12.4884 Q2745.89 12.4884 2743.6 16.9444 Q2741.35 21.3714 2741.35 30.2834 Q2741.35 39.1665 2743.6 43.6225 Q2745.89 48.0495 2750.4 48.0495 Q2754.94 48.0495 2757.2 43.6225 Q2759.49 39.1665 2759.49 30.2834 Q2759.49 21.3714 2757.2 16.9444 Q2754.94 12.4884 2750.4 12.4884 M2750.4 7.85875 Q2757.66 7.85875 2761.48 13.6168 Q2765.33 19.346 2765.33 30.2834 Q2765.33 41.1919 2761.48 46.95 Q2757.66 52.6791 2750.4 52.6791 Q2743.14 52.6791 2739.29 46.95 Q2735.47 41.1919 2735.47 30.2834 Q2735.47 19.346 2739.29 13.6168 Q2743.14 7.85875 2750.4 7.85875 Z" fill="#000000" fill-rule="nonzero" fill-opacity="1" /><path clip-path="url(#clip000)" d="M2779.89 4.44442 L2788.05 15.2661 L2783.62 15.2661 L2774.19 4.44442 L2779.89 4.44442 Z" fill="#000000" fill-rule="nonzero" fill-opacity="1" /><polyline clip-path="url(#clip002)" style="stroke:#009af9; stroke-linecap:round; stroke-linejoin:round; stroke-width:4; stroke-opacity:1; fill:none" points="344.917,1933.48 350.369,1933.48 355.821,1935.36 361.273,1936.86 366.725,1938.58 372.177,1941.85 377.629,1946.74 383.081,1952.32 388.533,1957.2 393.986,1961.97 399.438,1967.78 404.89,1973.42 410.342,1978.47 415.794,1982.08 421.246,1985.85 426.698,1990.12 432.15,1995.49 437.603,1999.93 443.055,2007.7 448.507,2017.17 453.959,2025.64 459.411,2035.13 464.863,2044.43 470.315,2053.09 475.767,2061 481.219,2065.35 486.672,2069.33 492.124,2075 497.576,2080.89 503.028,2084.93 508.48,2090.05 513.932,2095.99 519.384,2101.91 524.836,2105.94 530.288,2111.01 535.741,2114.45 541.193,2121.08 546.645,2125.72 552.097,2131.82 557.549,2138.34 563.001,2142.89 568.453,2145.67 573.905,2144.99 579.357,2144.96 584.81,2143.83 590.262,2143.15 595.714,2142.4 601.166,2142.58 606.618,2142.15 612.07,2144.37 617.522,2144.85 622.974,2144.69 628.427,2143.87 633.879,2141.18 639.331,2138.16 644.783,2133.87 650.235,2130.98 655.687,2128.76 661.139,2123.31 666.591,2120.87 672.043,2118.47 677.496,2115.73 682.948,2110.35 688.4,2105.63 693.852,2098.35 699.304,2088.37 704.756,2078.36 710.208,2069.8 715.66,2061.81 721.112,2056.1 726.565,2049.01 732.017,2041.39 737.469,2032.35 742.921,2024.87 748.373,2015.22 753.825,2007.15 759.277,1997.73 764.729,1988.47 770.182,1979.9 775.634,1970.75 781.086,1960.53 786.538,1948.81 791.99,1937.07 797.442,1926.47 802.894,1916.86 808.346,1907.98 813.798,1897.95 819.251,1886.79 824.703,1876.51 830.155,1869.03 835.607,1859.15 841.059,1849.31 846.511,1840.73 851.963,1828.92 857.415,1819.1 862.867,1810.1 868.32,1802.34 873.772,1789.95 879.224,1777.25 884.676,1767.18 890.128,1756.06 895.58,1744.48 901.032,1734.37 906.484,1725.17 911.937,1715.9 917.389,1708.32 922.841,1697.73 928.293,1688.96 933.745,1679.11 939.197,1671.26 944.649,1662.01 950.101,1652.02 955.553,1642.2 961.006,1632.19 966.458,1620.72 971.91,1607.83 977.362,1593.74 982.814,1579.62 988.266,1566.65 993.718,1553.25 999.17,1541.31 1004.62,1531.33 1010.07,1522.97 1015.53,1512.21 1020.98,1500.59 1026.43,1489.46 1031.88,1478.73 1037.34,1468.07 1042.79,1455.16 1048.24,1442.09 1053.69,1426.42 1059.14,1410.49 1064.6,1393.73 1070.05,1375.21 1075.5,1359.81 1080.95,1344.45 1086.4,1327.81 1091.86,1310.8 1097.31,1291.61 1102.76,1271.95 1108.21,1254.14 1113.66,1236 1119.12,1218.91 1124.57,1205.9 1130.02,1194.07 1135.47,1181.45 1140.93,1169.33 1146.38,1160.38 1151.83,1152.95 1157.28,1148.79 1162.73,1143.67 1168.19,1138.65 1173.64,1134.39 1179.09,1130.82 1184.54,1127.39 1189.99,1124.52 1195.45,1120.44 1200.9,1121.74 1206.35,1126.27 1211.8,1129.84 1217.25,1134.41 1222.71,1135.3 1228.16,1138.47 1233.61,1144.09 1239.06,1148.55 1244.52,1153.64 1249.97,1159.04 1255.42,1167.56 1260.87,1177.56 1266.32,1183.88 1271.78,1187.43 1277.23,1192.17 1282.68,1195.14 1288.13,1200.84 1293.58,1208.09 1299.04,1211.02 1304.49,1213.42 1309.94,1217.62 1315.39,1220.93 1320.85,1230.42 1326.3,1239.53 1331.75,1247.99 1337.2,1255.78 1342.65,1262.15 1348.11,1265.38 1353.56,1265.9 1359.01,1268.95 1364.46,1275.63 1369.91,1285.08 1375.37,1291.45 1380.82,1299 1386.27,1305.94 1391.72,1312.08 1397.17,1316.16 1402.63,1321.43 1408.08,1324.99 1413.53,1328.78 1418.98,1329.84 1424.44,1329.5 1429.89,1326.48 1435.34,1322.38 1440.79,1319.12 1446.24,1317.62 1451.7,1314.53 1457.15,1308.4 1462.6,1301.53 1468.05,1294.63 1473.5,1285.09 1478.96,1276.07 1484.41,1264.48 1489.86,1253.07 1495.31,1242.75 1500.76,1234.52 1506.22,1223.94 1511.67,1212.53 1517.12,1198.06 1522.57,1183.6 1528.03,1169.25 1533.48,1152.63 1538.93,1134.77 1544.38,1113.77 1549.83,1091.25 1555.29,1068.47 1560.74,1045.69 1566.19,1022.39 1571.64,998.766 1577.09,976.538 1582.55,953.952 1588,934.158 1593.45,914.879 1598.9,894.273 1604.36,871.974 1609.81,847.977 1615.26,824.399 1620.71,802.444 1626.16,780.82 1631.62,760.672 1637.07,742.283 1642.52,723.026 1647.97,702.779 1653.42,685.068 1658.88,669.141 1664.33,654.801 1669.78,639.149 1675.23,627.491 1680.68,614.455 1686.14,597.87 1691.59,584.513 1697.04,574.371 1702.49,564.675 1707.95,554.506 1713.4,547.637 1718.85,540.324 1724.3,531.266 1729.75,526.474 1735.21,519.745 1740.66,512.839 1746.11,501.426 1751.56,489.278 1757.01,473.936 1762.47,459.455 1767.92,443.613 1773.37,425.348 1778.82,407.506 1784.27,392.034 1789.73,376.357 1795.18,358.697 1800.63,341.104 1806.08,323.019 1811.54,307.458 1816.99,289.408 1822.44,272.825 1827.89,254.824 1833.34,240.521 1838.8,222.414 1844.25,205.64 1849.7,197.456 1855.15,195.425 1860.6,194.138 1866.06,200.628 1871.51,203.58 1876.96,206.492 1882.41,210.499 1887.87,212.708 1893.32,219.491 1898.77,223.024 1904.22,225.553 1909.67,226.481 1915.13,231.579 1920.58,230.016 1926.03,235.874 1931.48,239.845 1936.93,240.414 1942.39,237.178 1947.84,235.838 1953.29,233.376 1958.74,230.483 1964.19,234.222 1969.65,234.88 1975.1,234.551 1980.55,228.422 1986,216.606 1991.46,207.597 1996.91,197.668 2002.36,187.264 2007.81,178.03 2013.26,170.837 2018.72,172.846 2024.17,180.167 2029.62,182.734 2035.07,193.063 2040.52,202.77 2045.98,206.404 2051.43,210.489 2056.88,216.65 2062.33,220.468 2067.78,224.534 2073.24,230.625 2078.69,232.791 2084.14,236.981 2089.59,240.744 2095.05,244.185 2100.5,248.897 2105.95,254.672 2111.4,261.263 2116.85,263.932 2122.31,263.119 2127.76,265.709 2133.21,273.934 2138.66,279.907 2144.11,282.462 2149.57,281.76 2155.02,284.532 2160.47,284.45 2165.92,279.29 2171.38,272.361 2176.83,265.686 2182.28,262.47 2187.73,264.218 2193.18,264.021 2198.64,269.091 2204.09,273.902 2209.54,283.607 2214.99,294.737 2220.44,305.091 2225.9,313.752 2231.35,320.931 2236.8,330.349 2242.25,333.238 2247.7,338.213 2253.16,347.739 2258.61,358.318 2264.06,369.936 2269.51,381.136 2274.97,387.837 2280.42,398.706 2285.87,410.811 2291.32,425.767 2296.77,444.311 2302.23,461.872 2307.68,481.491 2313.13,503.782 2318.58,527.026 2324.03,550.109 2329.49,574.627 2334.94,598.185 2340.39,615.36 2345.84,629.198 2351.29,642.396 2356.75,654.572 2362.2,665.243 2367.65,678.997 2373.1,688.962 2378.56,700.156 2384.01,705.243 2389.46,711.3 2394.91,716.094 2400.36,716.348 2405.82,713.977 2411.27,707.608 2416.72,705.244 2422.17,705.594 2427.62,703.745 2433.08,702.445 2438.53,694.224 2443.98,689.392 2449.43,681.19 2454.89,677.881 2460.34,674.453 2465.79,673.601 2471.24,669.96 2476.69,665.269 2482.15,662.737 2487.6,664.403 2493.05,668.159 2498.5,668.529 2503.95,669.269 2509.41,668.992 2514.86,669.872 2520.31,670.465 2525.76,669.275 2531.21,668.029 2536.67,670.193 2542.12,672.369 2547.57,667.755 2553.02,660.599 2558.48,650.205 2563.93,638.601 2569.38,627.622 2574.83,615.499 2580.28,602.51 2585.74,593 2591.19,588.662 2596.64,582.928 2602.09,577.501 2607.54,575.974 2613,580.447 2618.45,586.188 2623.9,591.313 2629.35,598.705 2634.8,609.214 2640.26,618.476 2645.71,628.995 2651.16,639.547 2656.61,651.606 2662.07,665.627 2667.52,684.101 2672.97,698.031 2678.42,708.896 2683.87,715.921 2689.33,722.836 2694.78,729.765 2700.23,736.088 2705.68,743.728 2711.13,752.168 2716.59,759.908 2722.04,771.683 2727.49,781.741 2732.94,790.413 2738.4,795.638 2743.85,803.657 2749.3,813.672 2754.75,828.183 2760.2,842.681 2765.66,855.602 2771.11,864.331 2776.56,877.179 2782.01,893.361 2787.46,909.58 2792.92,924.699 2798.37,943.394 2803.82,961.629 2809.27,977.563 2814.72,991.195 2820.18,1005.56 2825.63,1020.58 2831.08,1035.57 2836.53,1049.61 2841.99,1063.56 2847.44,1077.43 2852.89,1094.58 2858.34,1111.01 2863.79,1128.65 2869.25,1145.71 2874.7,1162.92 2880.15,1181.58 2885.6,1199.78 2891.05,1219.19 2896.51,1237.6 2901.96,1255.72 2907.41,1270.84 2912.86,1288.85 2918.31,1305.9 2923.77,1321.68 2929.22,1335.63 2934.67,1347.37 2940.12,1361.37 2945.58,1376.31 2951.03,1391.97 2956.48,1408.09 2961.93,1423.44 2967.38,1439.15 2972.84,1454.34 2978.29,1466.55 2983.74,1481.4 2989.19,1493.15 2994.64,1504.91 3000.1,1517.31 3005.55,1531.92 3011,1543.4 3016.45,1554.42 3021.91,1566.88 3027.36,1578.82 3032.81,1591.61 3038.26,1606.37 3043.71,1621.34 3049.17,1634.32 3054.62,1647.08 3060.07,1659.43 3065.52,1669.62 3070.97,1678.26 "/>
</svg>
