<?xml version="1.0" encoding="utf-8"?>
<svg xmlns="http://www.w3.org/2000/svg" xmlns:xlink="http://www.w3.org/1999/xlink" width="800" height="600" viewBox="0 0 3200 2400">
<defs>
  <clipPath id="clip880">
    <rect x="0" y="0" width="3200" height="2400"/>
  </clipPath>
</defs>
<path clip-path="url(#clip880)" d="M0 2400 L3200 2400 L3200 0 L0 0  Z" fill="#ffffff" fill-rule="evenodd" fill-opacity="1"/>
<defs>
  <clipPath id="clip881">
    <rect x="640" y="0" width="2241" height="2241"/>
  </clipPath>
</defs>
<path clip-path="url(#clip880)" d="M233.806 2204.92 L3152.76 2204.92 L3152.76 111.592 L233.806 111.592  Z" fill="#eaeaea" fill-rule="evenodd" fill-opacity="1"/>
<defs>
  <clipPath id="clip882">
    <rect x="233" y="111" width="2920" height="2094"/>
  </clipPath>
</defs>
<polyline clip-path="url(#clip882)" style="stroke:#ffffff; stroke-linecap:round; stroke-linejoin:round; stroke-width:2; stroke-opacity:1; fill:none" points="591.791,2204.92 591.791,111.592 "/>
<polyline clip-path="url(#clip882)" style="stroke:#ffffff; stroke-linecap:round; stroke-linejoin:round; stroke-width:2; stroke-opacity:1; fill:none" points="1142.54,2204.92 1142.54,111.592 "/>
<polyline clip-path="url(#clip882)" style="stroke:#ffffff; stroke-linecap:round; stroke-linejoin:round; stroke-width:2; stroke-opacity:1; fill:none" points="1693.28,2204.92 1693.28,111.592 "/>
<polyline clip-path="url(#clip882)" style="stroke:#ffffff; stroke-linecap:round; stroke-linejoin:round; stroke-width:2; stroke-opacity:1; fill:none" points="2244.03,2204.92 2244.03,111.592 "/>
<polyline clip-path="url(#clip882)" style="stroke:#ffffff; stroke-linecap:round; stroke-linejoin:round; stroke-width:2; stroke-opacity:1; fill:none" points="2794.77,2204.92 2794.77,111.592 "/>
<polyline clip-path="url(#clip882)" style="stroke:#ffffff; stroke-linecap:round; stroke-linejoin:round; stroke-width:2; stroke-opacity:1; fill:none" points="233.806,2034.25 3152.76,2034.25 "/>
<polyline clip-path="url(#clip882)" style="stroke:#ffffff; stroke-linecap:round; stroke-linejoin:round; stroke-width:2; stroke-opacity:1; fill:none" points="233.806,1660.43 3152.76,1660.43 "/>
<polyline clip-path="url(#clip882)" style="stroke:#ffffff; stroke-linecap:round; stroke-linejoin:round; stroke-width:2; stroke-opacity:1; fill:none" points="233.806,1286.61 3152.76,1286.61 "/>
<polyline clip-path="url(#clip882)" style="stroke:#ffffff; stroke-linecap:round; stroke-linejoin:round; stroke-width:2; stroke-opacity:1; fill:none" points="233.806,912.791 3152.76,912.791 "/>
<polyline clip-path="url(#clip882)" style="stroke:#ffffff; stroke-linecap:round; stroke-linejoin:round; stroke-width:2; stroke-opacity:1; fill:none" points="233.806,538.972 3152.76,538.972 "/>
<polyline clip-path="url(#clip882)" style="stroke:#ffffff; stroke-linecap:round; stroke-linejoin:round; stroke-width:2; stroke-opacity:1; fill:none" points="233.806,165.154 3152.76,165.154 "/>
<polyline clip-path="url(#clip882)" style="stroke:#ffffff; stroke-linecap:round; stroke-linejoin:round; stroke-width:4; stroke-opacity:1; fill:none" points="316.418,2204.92 316.418,111.592 "/>
<polyline clip-path="url(#clip882)" style="stroke:#ffffff; stroke-linecap:round; stroke-linejoin:round; stroke-width:4; stroke-opacity:1; fill:none" points="867.163,2204.92 867.163,111.592 "/>
<polyline clip-path="url(#clip882)" style="stroke:#ffffff; stroke-linecap:round; stroke-linejoin:round; stroke-width:4; stroke-opacity:1; fill:none" points="1417.91,2204.92 1417.91,111.592 "/>
<polyline clip-path="url(#clip882)" style="stroke:#ffffff; stroke-linecap:round; stroke-linejoin:round; stroke-width:4; stroke-opacity:1; fill:none" points="1968.65,2204.92 1968.65,111.592 "/>
<polyline clip-path="url(#clip882)" style="stroke:#ffffff; stroke-linecap:round; stroke-linejoin:round; stroke-width:4; stroke-opacity:1; fill:none" points="2519.4,2204.92 2519.4,111.592 "/>
<polyline clip-path="url(#clip882)" style="stroke:#ffffff; stroke-linecap:round; stroke-linejoin:round; stroke-width:4; stroke-opacity:1; fill:none" points="3070.14,2204.92 3070.14,111.592 "/>
<polyline clip-path="url(#clip882)" style="stroke:#ffffff; stroke-linecap:round; stroke-linejoin:round; stroke-width:4; stroke-opacity:1; fill:none" points="233.806,1847.34 3152.76,1847.34 "/>
<polyline clip-path="url(#clip882)" style="stroke:#ffffff; stroke-linecap:round; stroke-linejoin:round; stroke-width:4; stroke-opacity:1; fill:none" points="233.806,1473.52 3152.76,1473.52 "/>
<polyline clip-path="url(#clip882)" style="stroke:#ffffff; stroke-linecap:round; stroke-linejoin:round; stroke-width:4; stroke-opacity:1; fill:none" points="233.806,1099.7 3152.76,1099.7 "/>
<polyline clip-path="url(#clip882)" style="stroke:#ffffff; stroke-linecap:round; stroke-linejoin:round; stroke-width:4; stroke-opacity:1; fill:none" points="233.806,725.881 3152.76,725.881 "/>
<polyline clip-path="url(#clip882)" style="stroke:#ffffff; stroke-linecap:round; stroke-linejoin:round; stroke-width:4; stroke-opacity:1; fill:none" points="233.806,352.063 3152.76,352.063 "/>
<polyline clip-path="url(#clip880)" style="stroke:#ffffff; stroke-linecap:round; stroke-linejoin:round; stroke-width:4; stroke-opacity:1; fill:none" points="233.806,2204.92 3152.76,2204.92 "/>
<polyline clip-path="url(#clip880)" style="stroke:#333333; stroke-linecap:round; stroke-linejoin:round; stroke-width:4; stroke-opacity:1; fill:none" points="316.418,2204.92 316.418,2223.82 "/>
<polyline clip-path="url(#clip880)" style="stroke:#333333; stroke-linecap:round; stroke-linejoin:round; stroke-width:4; stroke-opacity:1; fill:none" points="867.163,2204.92 867.163,2223.82 "/>
<polyline clip-path="url(#clip880)" style="stroke:#333333; stroke-linecap:round; stroke-linejoin:round; stroke-width:4; stroke-opacity:1; fill:none" points="1417.91,2204.92 1417.91,2223.82 "/>
<polyline clip-path="url(#clip880)" style="stroke:#333333; stroke-linecap:round; stroke-linejoin:round; stroke-width:4; stroke-opacity:1; fill:none" points="1968.65,2204.92 1968.65,2223.82 "/>
<polyline clip-path="url(#clip880)" style="stroke:#333333; stroke-linecap:round; stroke-linejoin:round; stroke-width:4; stroke-opacity:1; fill:none" points="2519.4,2204.92 2519.4,2223.82 "/>
<polyline clip-path="url(#clip880)" style="stroke:#333333; stroke-linecap:round; stroke-linejoin:round; stroke-width:4; stroke-opacity:1; fill:none" points="3070.14,2204.92 3070.14,2223.82 "/>
<polyline clip-path="url(#clip880)" style="stroke:#333333; stroke-linecap:round; stroke-linejoin:round; stroke-width:4; stroke-opacity:1; fill:none" points="591.791,2204.92 591.791,2214.37 "/>
<polyline clip-path="url(#clip880)" style="stroke:#333333; stroke-linecap:round; stroke-linejoin:round; stroke-width:4; stroke-opacity:1; fill:none" points="1142.54,2204.92 1142.54,2214.37 "/>
<polyline clip-path="url(#clip880)" style="stroke:#333333; stroke-linecap:round; stroke-linejoin:round; stroke-width:4; stroke-opacity:1; fill:none" points="1693.28,2204.92 1693.28,2214.37 "/>
<polyline clip-path="url(#clip880)" style="stroke:#333333; stroke-linecap:round; stroke-linejoin:round; stroke-width:4; stroke-opacity:1; fill:none" points="2244.03,2204.92 2244.03,2214.37 "/>
<polyline clip-path="url(#clip880)" style="stroke:#333333; stroke-linecap:round; stroke-linejoin:round; stroke-width:4; stroke-opacity:1; fill:none" points="2794.77,2204.92 2794.77,2214.37 "/>
<path clip-path="url(#clip880)" d="M316.418 2255.04 Q312.807 2255.04 310.978 2258.6 Q309.173 2262.14 309.173 2269.27 Q309.173 2276.38 310.978 2279.95 Q312.807 2283.49 316.418 2283.49 Q320.052 2283.49 321.858 2279.95 Q323.687 2276.38 323.687 2269.27 Q323.687 2262.14 321.858 2258.6 Q320.052 2255.04 316.418 2255.04 M316.418 2251.33 Q322.228 2251.33 325.284 2255.94 Q328.362 2260.52 328.362 2269.27 Q328.362 2278 325.284 2282.61 Q322.228 2287.19 316.418 2287.19 Q310.608 2287.19 307.529 2282.61 Q304.474 2278 304.474 2269.27 Q304.474 2260.52 307.529 2255.94 Q310.608 2251.33 316.418 2251.33 Z" fill="#4c4c4c" fill-rule="nonzero" fill-opacity="1" /><path clip-path="url(#clip880)" d="M857.545 2282.58 L865.184 2282.58 L865.184 2256.22 L856.874 2257.89 L856.874 2253.63 L865.138 2251.96 L869.814 2251.96 L869.814 2282.58 L877.453 2282.58 L877.453 2286.52 L857.545 2286.52 L857.545 2282.58 Z" fill="#4c4c4c" fill-rule="nonzero" fill-opacity="1" /><path clip-path="url(#clip880)" d="M1412.56 2282.58 L1428.88 2282.58 L1428.88 2286.52 L1406.94 2286.52 L1406.94 2282.58 Q1409.6 2279.83 1414.18 2275.2 Q1418.79 2270.55 1419.97 2269.21 Q1422.21 2266.68 1423.09 2264.95 Q1424 2263.19 1424 2261.5 Q1424 2258.74 1422.05 2257.01 Q1420.13 2255.27 1417.03 2255.27 Q1414.83 2255.27 1412.38 2256.03 Q1409.95 2256.8 1407.17 2258.35 L1407.17 2253.63 Q1409.99 2252.49 1412.45 2251.91 Q1414.9 2251.33 1416.94 2251.33 Q1422.31 2251.33 1425.5 2254.02 Q1428.7 2256.71 1428.7 2261.2 Q1428.7 2263.33 1427.89 2265.25 Q1427.1 2267.14 1424.99 2269.74 Q1424.41 2270.41 1421.31 2273.63 Q1418.21 2276.82 1412.56 2282.58 Z" fill="#4c4c4c" fill-rule="nonzero" fill-opacity="1" /><path clip-path="url(#clip880)" d="M1972.9 2267.89 Q1976.26 2268.6 1978.13 2270.87 Q1980.03 2273.14 1980.03 2276.47 Q1980.03 2281.59 1976.51 2284.39 Q1972.99 2287.19 1966.51 2287.19 Q1964.34 2287.19 1962.02 2286.75 Q1959.73 2286.33 1957.28 2285.48 L1957.28 2280.96 Q1959.22 2282.1 1961.54 2282.68 Q1963.85 2283.26 1966.37 2283.26 Q1970.77 2283.26 1973.06 2281.52 Q1975.38 2279.78 1975.38 2276.47 Q1975.38 2273.42 1973.23 2271.71 Q1971.1 2269.97 1967.28 2269.97 L1963.25 2269.97 L1963.25 2266.13 L1967.46 2266.13 Q1970.91 2266.13 1972.74 2264.76 Q1974.57 2263.37 1974.57 2260.78 Q1974.57 2258.12 1972.67 2256.71 Q1970.79 2255.27 1967.28 2255.27 Q1965.36 2255.27 1963.16 2255.69 Q1960.96 2256.1 1958.32 2256.98 L1958.32 2252.82 Q1960.98 2252.08 1963.29 2251.71 Q1965.63 2251.33 1967.69 2251.33 Q1973.02 2251.33 1976.12 2253.77 Q1979.22 2256.17 1979.22 2260.29 Q1979.22 2263.16 1977.58 2265.15 Q1975.93 2267.12 1972.9 2267.89 Z" fill="#4c4c4c" fill-rule="nonzero" fill-opacity="1" /><path clip-path="url(#clip880)" d="M2522.41 2256.03 L2510.6 2274.48 L2522.41 2274.48 L2522.41 2256.03 M2521.18 2251.96 L2527.06 2251.96 L2527.06 2274.48 L2531.99 2274.48 L2531.99 2278.37 L2527.06 2278.37 L2527.06 2286.52 L2522.41 2286.52 L2522.41 2278.37 L2506.81 2278.37 L2506.81 2273.86 L2521.18 2251.96 Z" fill="#4c4c4c" fill-rule="nonzero" fill-opacity="1" /><path clip-path="url(#clip880)" d="M3060.42 2251.96 L3078.78 2251.96 L3078.78 2255.9 L3064.7 2255.9 L3064.7 2264.37 Q3065.72 2264.02 3066.74 2263.86 Q3067.76 2263.67 3068.78 2263.67 Q3074.57 2263.67 3077.95 2266.84 Q3081.32 2270.02 3081.32 2275.43 Q3081.32 2281.01 3077.85 2284.11 Q3074.38 2287.19 3068.06 2287.19 Q3065.88 2287.19 3063.62 2286.82 Q3061.37 2286.45 3058.96 2285.71 L3058.96 2281.01 Q3061.05 2282.14 3063.27 2282.7 Q3065.49 2283.26 3067.97 2283.26 Q3071.97 2283.26 3074.31 2281.15 Q3076.65 2279.04 3076.65 2275.43 Q3076.65 2271.82 3074.31 2269.71 Q3071.97 2267.61 3067.97 2267.61 Q3066.09 2267.61 3064.22 2268.02 Q3062.37 2268.44 3060.42 2269.32 L3060.42 2251.96 Z" fill="#4c4c4c" fill-rule="nonzero" fill-opacity="1" /><path clip-path="url(#clip880)" d="M1692.34 2316.01 L1692.34 2326.14 L1704.41 2326.14 L1704.41 2330.69 L1692.34 2330.69 L1692.34 2350.04 Q1692.34 2354.4 1693.52 2355.64 Q1694.73 2356.88 1698.39 2356.88 L1704.41 2356.88 L1704.41 2361.78 L1698.39 2361.78 Q1691.61 2361.78 1689.03 2359.27 Q1686.45 2356.72 1686.45 2350.04 L1686.45 2330.69 L1682.16 2330.69 L1682.16 2326.14 L1686.45 2326.14 L1686.45 2316.01 L1692.34 2316.01 Z" fill="#000000" fill-rule="nonzero" fill-opacity="1" /><polyline clip-path="url(#clip880)" style="stroke:#ffffff; stroke-linecap:round; stroke-linejoin:round; stroke-width:4; stroke-opacity:1; fill:none" points="233.806,2204.92 233.806,111.592 "/>
<polyline clip-path="url(#clip880)" style="stroke:#333333; stroke-linecap:round; stroke-linejoin:round; stroke-width:4; stroke-opacity:1; fill:none" points="233.806,1847.34 214.909,1847.34 "/>
<polyline clip-path="url(#clip880)" style="stroke:#333333; stroke-linecap:round; stroke-linejoin:round; stroke-width:4; stroke-opacity:1; fill:none" points="233.806,1473.52 214.909,1473.52 "/>
<polyline clip-path="url(#clip880)" style="stroke:#333333; stroke-linecap:round; stroke-linejoin:round; stroke-width:4; stroke-opacity:1; fill:none" points="233.806,1099.7 214.909,1099.7 "/>
<polyline clip-path="url(#clip880)" style="stroke:#333333; stroke-linecap:round; stroke-linejoin:round; stroke-width:4; stroke-opacity:1; fill:none" points="233.806,725.881 214.909,725.881 "/>
<polyline clip-path="url(#clip880)" style="stroke:#333333; stroke-linecap:round; stroke-linejoin:round; stroke-width:4; stroke-opacity:1; fill:none" points="233.806,352.063 214.909,352.063 "/>
<polyline clip-path="url(#clip880)" style="stroke:#333333; stroke-linecap:round; stroke-linejoin:round; stroke-width:4; stroke-opacity:1; fill:none" points="233.806,2034.25 224.357,2034.25 "/>
<polyline clip-path="url(#clip880)" style="stroke:#333333; stroke-linecap:round; stroke-linejoin:round; stroke-width:4; stroke-opacity:1; fill:none" points="233.806,1660.43 224.357,1660.43 "/>
<polyline clip-path="url(#clip880)" style="stroke:#333333; stroke-linecap:round; stroke-linejoin:round; stroke-width:4; stroke-opacity:1; fill:none" points="233.806,1286.61 224.357,1286.61 "/>
<polyline clip-path="url(#clip880)" style="stroke:#333333; stroke-linecap:round; stroke-linejoin:round; stroke-width:4; stroke-opacity:1; fill:none" points="233.806,912.791 224.357,912.791 "/>
<polyline clip-path="url(#clip880)" style="stroke:#333333; stroke-linecap:round; stroke-linejoin:round; stroke-width:4; stroke-opacity:1; fill:none" points="233.806,538.972 224.357,538.972 "/>
<polyline clip-path="url(#clip880)" style="stroke:#333333; stroke-linecap:round; stroke-linejoin:round; stroke-width:4; stroke-opacity:1; fill:none" points="233.806,165.154 224.357,165.154 "/>
<path clip-path="url(#clip880)" d="M106.228 1833.14 Q102.617 1833.14 100.788 1836.7 Q98.9825 1840.24 98.9825 1847.37 Q98.9825 1854.48 100.788 1858.04 Q102.617 1861.58 106.228 1861.58 Q109.862 1861.58 111.668 1858.04 Q113.496 1854.48 113.496 1847.37 Q113.496 1840.24 111.668 1836.7 Q109.862 1833.14 106.228 1833.14 M106.228 1829.43 Q112.038 1829.43 115.094 1834.04 Q118.172 1838.62 118.172 1847.37 Q118.172 1856.1 115.094 1860.7 Q112.038 1865.29 106.228 1865.29 Q100.418 1865.29 97.339 1860.7 Q94.2835 1856.1 94.2835 1847.37 Q94.2835 1838.62 97.339 1834.04 Q100.418 1829.43 106.228 1829.43 Z" fill="#4c4c4c" fill-rule="nonzero" fill-opacity="1" /><path clip-path="url(#clip880)" d="M126.39 1858.74 L131.274 1858.74 L131.274 1864.62 L126.39 1864.62 L126.39 1858.74 Z" fill="#4c4c4c" fill-rule="nonzero" fill-opacity="1" /><path clip-path="url(#clip880)" d="M145.487 1860.68 L161.806 1860.68 L161.806 1864.62 L139.862 1864.62 L139.862 1860.68 Q142.524 1857.93 147.107 1853.3 Q151.714 1848.64 152.894 1847.3 Q155.14 1844.78 156.019 1843.04 Q156.922 1841.28 156.922 1839.59 Q156.922 1836.84 154.978 1835.1 Q153.056 1833.37 149.954 1833.37 Q147.755 1833.37 145.302 1834.13 Q142.871 1834.89 140.093 1836.45 L140.093 1831.72 Q142.917 1830.59 145.371 1830.01 Q147.825 1829.43 149.862 1829.43 Q155.232 1829.43 158.427 1832.12 Q161.621 1834.8 161.621 1839.29 Q161.621 1841.42 160.811 1843.34 Q160.024 1845.24 157.917 1847.83 Q157.339 1848.51 154.237 1851.72 Q151.135 1854.92 145.487 1860.68 Z" fill="#4c4c4c" fill-rule="nonzero" fill-opacity="1" /><path clip-path="url(#clip880)" d="M104.145 1459.32 Q100.533 1459.32 98.7048 1462.88 Q96.8992 1466.42 96.8992 1473.55 Q96.8992 1480.66 98.7048 1484.22 Q100.533 1487.77 104.145 1487.77 Q107.779 1487.77 109.584 1484.22 Q111.413 1480.66 111.413 1473.55 Q111.413 1466.42 109.584 1462.88 Q107.779 1459.32 104.145 1459.32 M104.145 1455.61 Q109.955 1455.61 113.01 1460.22 Q116.089 1464.8 116.089 1473.55 Q116.089 1482.28 113.01 1486.89 Q109.955 1491.47 104.145 1491.47 Q98.3344 1491.47 95.2557 1486.89 Q92.2002 1482.28 92.2002 1473.55 Q92.2002 1464.8 95.2557 1460.22 Q98.3344 1455.61 104.145 1455.61 Z" fill="#4c4c4c" fill-rule="nonzero" fill-opacity="1" /><path clip-path="url(#clip880)" d="M124.306 1484.92 L129.191 1484.92 L129.191 1490.8 L124.306 1490.8 L124.306 1484.92 Z" fill="#4c4c4c" fill-rule="nonzero" fill-opacity="1" /><path clip-path="url(#clip880)" d="M152.223 1460.31 L140.417 1478.76 L152.223 1478.76 L152.223 1460.31 M150.996 1456.24 L156.876 1456.24 L156.876 1478.76 L161.806 1478.76 L161.806 1482.65 L156.876 1482.65 L156.876 1490.8 L152.223 1490.8 L152.223 1482.65 L136.621 1482.65 L136.621 1478.14 L150.996 1456.24 Z" fill="#4c4c4c" fill-rule="nonzero" fill-opacity="1" /><path clip-path="url(#clip880)" d="M104.469 1085.5 Q100.858 1085.5 99.0288 1089.06 Q97.2233 1092.61 97.2233 1099.73 Q97.2233 1106.84 99.0288 1110.41 Q100.858 1113.95 104.469 1113.95 Q108.103 1113.95 109.908 1110.41 Q111.737 1106.84 111.737 1099.73 Q111.737 1092.61 109.908 1089.06 Q108.103 1085.5 104.469 1085.5 M104.469 1081.79 Q110.279 1081.79 113.334 1086.4 Q116.413 1090.98 116.413 1099.73 Q116.413 1108.46 113.334 1113.07 Q110.279 1117.65 104.469 1117.65 Q98.6585 1117.65 95.5798 1113.07 Q92.5242 1108.46 92.5242 1099.73 Q92.5242 1090.98 95.5798 1086.4 Q98.6585 1081.79 104.469 1081.79 Z" fill="#4c4c4c" fill-rule="nonzero" fill-opacity="1" /><path clip-path="url(#clip880)" d="M124.631 1111.1 L129.515 1111.1 L129.515 1116.98 L124.631 1116.98 L124.631 1111.1 Z" fill="#4c4c4c" fill-rule="nonzero" fill-opacity="1" /><path clip-path="url(#clip880)" d="M150.279 1097.84 Q147.13 1097.84 145.279 1099.99 Q143.45 1102.14 143.45 1105.89 Q143.45 1109.62 145.279 1111.79 Q147.13 1113.95 150.279 1113.95 Q153.427 1113.95 155.255 1111.79 Q157.107 1109.62 157.107 1105.89 Q157.107 1102.14 155.255 1099.99 Q153.427 1097.84 150.279 1097.84 M159.561 1083.18 L159.561 1087.44 Q157.802 1086.61 155.996 1086.17 Q154.214 1085.73 152.454 1085.73 Q147.825 1085.73 145.371 1088.86 Q142.941 1091.98 142.593 1098.3 Q143.959 1096.29 146.019 1095.22 Q148.079 1094.13 150.556 1094.13 Q155.765 1094.13 158.774 1097.3 Q161.806 1100.45 161.806 1105.89 Q161.806 1111.22 158.658 1114.43 Q155.51 1117.65 150.279 1117.65 Q144.283 1117.65 141.112 1113.07 Q137.941 1108.46 137.941 1099.73 Q137.941 1091.54 141.83 1086.68 Q145.718 1081.79 152.269 1081.79 Q154.029 1081.79 155.811 1082.14 Q157.616 1082.49 159.561 1083.18 Z" fill="#4c4c4c" fill-rule="nonzero" fill-opacity="1" /><path clip-path="url(#clip880)" d="M104.723 711.68 Q101.112 711.68 99.2835 715.245 Q97.4779 718.787 97.4779 725.916 Q97.4779 733.023 99.2835 736.587 Q101.112 740.129 104.723 740.129 Q108.357 740.129 110.163 736.587 Q111.992 733.023 111.992 725.916 Q111.992 718.787 110.163 715.245 Q108.357 711.68 104.723 711.68 M104.723 707.976 Q110.533 707.976 113.589 712.583 Q116.668 717.166 116.668 725.916 Q116.668 734.643 113.589 739.249 Q110.533 743.833 104.723 743.833 Q98.9131 743.833 95.8344 739.249 Q92.7789 734.643 92.7789 725.916 Q92.7789 717.166 95.8344 712.583 Q98.9131 707.976 104.723 707.976 Z" fill="#4c4c4c" fill-rule="nonzero" fill-opacity="1" /><path clip-path="url(#clip880)" d="M124.885 737.282 L129.769 737.282 L129.769 743.161 L124.885 743.161 L124.885 737.282 Z" fill="#4c4c4c" fill-rule="nonzero" fill-opacity="1" /><path clip-path="url(#clip880)" d="M149.954 726.75 Q146.621 726.75 144.7 728.532 Q142.802 730.314 142.802 733.439 Q142.802 736.564 144.7 738.347 Q146.621 740.129 149.954 740.129 Q153.288 740.129 155.209 738.347 Q157.13 736.541 157.13 733.439 Q157.13 730.314 155.209 728.532 Q153.311 726.75 149.954 726.75 M145.279 724.759 Q142.269 724.018 140.58 721.958 Q138.913 719.898 138.913 716.935 Q138.913 712.791 141.853 710.384 Q144.816 707.976 149.954 707.976 Q155.116 707.976 158.056 710.384 Q160.996 712.791 160.996 716.935 Q160.996 719.898 159.306 721.958 Q157.64 724.018 154.654 724.759 Q158.033 725.546 159.908 727.837 Q161.806 730.129 161.806 733.439 Q161.806 738.462 158.728 741.148 Q155.672 743.833 149.954 743.833 Q144.237 743.833 141.158 741.148 Q138.103 738.462 138.103 733.439 Q138.103 730.129 140.001 727.837 Q141.899 725.546 145.279 724.759 M143.566 717.375 Q143.566 720.06 145.232 721.564 Q146.922 723.069 149.954 723.069 Q152.964 723.069 154.654 721.564 Q156.366 720.06 156.366 717.375 Q156.366 714.689 154.654 713.185 Q152.964 711.68 149.954 711.68 Q146.922 711.68 145.232 713.185 Q143.566 714.689 143.566 717.375 Z" fill="#4c4c4c" fill-rule="nonzero" fill-opacity="1" /><path clip-path="url(#clip880)" d="M95.4409 365.408 L103.08 365.408 L103.08 339.042 L94.7696 340.709 L94.7696 336.45 L103.033 334.783 L107.709 334.783 L107.709 365.408 L115.348 365.408 L115.348 369.343 L95.4409 369.343 L95.4409 365.408 Z" fill="#4c4c4c" fill-rule="nonzero" fill-opacity="1" /><path clip-path="url(#clip880)" d="M124.793 363.463 L129.677 363.463 L129.677 369.343 L124.793 369.343 L124.793 363.463 Z" fill="#4c4c4c" fill-rule="nonzero" fill-opacity="1" /><path clip-path="url(#clip880)" d="M149.862 337.862 Q146.251 337.862 144.422 341.427 Q142.617 344.968 142.617 352.098 Q142.617 359.204 144.422 362.769 Q146.251 366.311 149.862 366.311 Q153.496 366.311 155.302 362.769 Q157.13 359.204 157.13 352.098 Q157.13 344.968 155.302 341.427 Q153.496 337.862 149.862 337.862 M149.862 334.158 Q155.672 334.158 158.728 338.765 Q161.806 343.348 161.806 352.098 Q161.806 360.825 158.728 365.431 Q155.672 370.014 149.862 370.014 Q144.052 370.014 140.973 365.431 Q137.918 360.825 137.918 352.098 Q137.918 343.348 140.973 338.765 Q144.052 334.158 149.862 334.158 Z" fill="#4c4c4c" fill-rule="nonzero" fill-opacity="1" /><path clip-path="url(#clip880)" d="M18.2962 1141.64 L35.6428 1154.53 L53.9442 1140.97 L53.9442 1147.88 L39.9396 1158.26 L53.9442 1168.63 L53.9442 1175.54 L35.2926 1161.69 L18.2962 1174.36 L18.2962 1167.45 L30.9958 1158 L18.2962 1148.55 L18.2962 1141.64 Z" fill="#000000" fill-rule="nonzero" fill-opacity="1" /><path clip-path="url(#clip880)" d="M636.212 20.3876 L636.212 25.4223 Q633.955 24.2649 631.525 23.6862 Q629.094 23.1075 626.49 23.1075 Q622.526 23.1075 620.529 24.3228 Q618.562 25.5381 618.562 27.9686 Q618.562 29.8204 619.98 30.891 Q621.397 31.9327 625.68 32.8876 L627.503 33.2926 Q633.174 34.5079 635.547 36.7359 Q637.948 38.935 637.948 42.8991 Q637.948 47.4129 634.36 50.046 Q630.801 52.6791 624.551 52.6791 Q621.947 52.6791 619.111 52.1583 Q616.305 51.6664 613.18 50.6537 L613.18 45.156 Q616.131 46.6896 618.996 47.4708 Q621.86 48.2231 624.667 48.2231 Q628.429 48.2231 630.454 46.95 Q632.479 45.6479 632.479 43.3042 Q632.479 41.134 631.004 39.9766 Q629.557 38.8192 624.609 37.7486 L622.757 37.3146 Q617.809 36.273 615.61 34.1318 Q613.411 31.9616 613.411 28.2001 Q613.411 23.6283 616.652 21.1399 Q619.893 18.6515 625.853 18.6515 Q628.805 18.6515 631.409 19.0855 Q634.013 19.5196 636.212 20.3876 Z" fill="#000000" fill-rule="nonzero" fill-opacity="1" /><path clip-path="url(#clip880)" d="M658.984 23.1654 Q654.702 23.1654 652.213 26.5218 Q649.725 29.8494 649.725 35.6653 Q649.725 41.4813 652.184 44.8377 Q654.673 48.1653 658.984 48.1653 Q663.237 48.1653 665.726 44.8088 Q668.214 41.4523 668.214 35.6653 Q668.214 29.9072 665.726 26.5508 Q663.237 23.1654 658.984 23.1654 M658.984 18.6515 Q665.928 18.6515 669.892 23.1654 Q673.857 27.6792 673.857 35.6653 Q673.857 43.6225 669.892 48.1653 Q665.928 52.6791 658.984 52.6791 Q652.011 52.6791 648.047 48.1653 Q644.111 43.6225 644.111 35.6653 Q644.111 27.6792 648.047 23.1654 Q652.011 18.6515 658.984 18.6515 Z" fill="#000000" fill-rule="nonzero" fill-opacity="1" /><path clip-path="url(#clip880)" d="M682.682 6.81709 L688.006 6.81709 L688.006 51.84 L682.682 51.84 L682.682 6.81709 Z" fill="#000000" fill-rule="nonzero" fill-opacity="1" /><path clip-path="url(#clip880)" d="M698.596 39.0507 L698.596 19.4328 L703.92 19.4328 L703.92 38.8482 Q703.92 43.4488 705.714 45.7636 Q707.508 48.0495 711.096 48.0495 Q715.407 48.0495 717.896 45.3007 Q720.413 42.5519 720.413 37.8065 L720.413 19.4328 L725.737 19.4328 L725.737 51.84 L720.413 51.84 L720.413 46.8632 Q718.474 49.8145 715.899 51.2613 Q713.353 52.6791 709.967 52.6791 Q704.383 52.6791 701.49 49.2069 Q698.596 45.7347 698.596 39.0507 M711.993 18.6515 L711.993 18.6515 Z" fill="#000000" fill-rule="nonzero" fill-opacity="1" /><path clip-path="url(#clip880)" d="M760.025 20.677 L760.025 25.6538 Q757.768 24.4096 755.482 23.802 Q753.225 23.1654 750.911 23.1654 Q745.731 23.1654 742.867 26.464 Q740.002 29.7336 740.002 35.6653 Q740.002 41.597 742.867 44.8956 Q745.731 48.1653 750.911 48.1653 Q753.225 48.1653 755.482 47.5576 Q757.768 46.921 760.025 45.6768 L760.025 50.5958 Q757.797 51.6375 755.395 52.1583 Q753.023 52.6791 750.332 52.6791 Q743.011 52.6791 738.7 48.0784 Q734.389 43.4778 734.389 35.6653 Q734.389 27.7371 738.729 23.1943 Q743.098 18.6515 750.679 18.6515 Q753.139 18.6515 755.482 19.1724 Q757.826 19.6642 760.025 20.677 M752.502 51.84 Q754.093 53.634 754.875 55.1386 Q755.656 56.6722 755.656 58.061 Q755.656 60.6362 753.92 61.9383 Q752.184 63.2693 748.769 63.2693 Q747.438 63.2693 746.165 63.0957 Q744.921 62.9221 743.677 62.5749 L743.677 58.7844 Q744.661 59.2763 745.731 59.4788 Q746.802 59.7103 748.162 59.7103 Q749.869 59.7103 750.737 59.0159 Q751.605 58.3214 751.605 56.9904 Q751.605 56.1224 750.968 54.8492 Q750.361 53.605 749.059 51.84 L752.502 51.84 Z" fill="#000000" fill-rule="nonzero" fill-opacity="1" /><path clip-path="url(#clip880)" d="M784.012 35.5496 Q777.56 35.5496 775.071 37.0253 Q772.583 38.501 772.583 42.06 Q772.583 44.8956 774.435 46.5738 Q776.316 48.2231 779.527 48.2231 Q783.954 48.2231 786.616 45.0981 Q789.307 41.9442 789.307 36.7359 L789.307 35.5496 L784.012 35.5496 M794.631 33.3505 L794.631 51.84 L789.307 51.84 L789.307 46.921 Q787.484 49.8724 784.765 51.2902 Q782.045 52.6791 778.109 52.6791 Q773.133 52.6791 770.181 49.9014 Q767.259 47.0947 767.259 42.4072 Q767.259 36.9385 770.905 34.1607 Q774.579 31.3829 781.842 31.3829 L789.307 31.3829 L789.307 30.8621 Q789.307 27.1874 786.877 25.1908 Q784.475 23.1654 780.106 23.1654 Q777.328 23.1654 774.695 23.8309 Q772.062 24.4964 769.632 25.8274 L769.632 20.9085 Q772.554 19.78 775.303 19.2302 Q778.052 18.6515 780.656 18.6515 Q787.687 18.6515 791.159 22.2973 Q794.631 25.9431 794.631 33.3505 M780.772 12.199 L779.122 10.6076 Q778.486 10.0289 777.994 9.76847 Q777.531 9.47912 777.155 9.47912 Q776.055 9.47912 775.534 10.5497 Q775.013 11.5914 774.956 13.964 L771.339 13.964 Q771.397 10.0578 772.872 7.94556 Q774.348 5.80437 776.981 5.80437 Q778.081 5.80437 779.006 6.20946 Q779.932 6.61455 781.003 7.5694 L782.652 9.16083 Q783.289 9.73953 783.752 10.0289 Q784.244 10.2893 784.62 10.2893 Q785.719 10.2893 786.24 9.24764 Q786.761 8.17704 786.819 5.80437 L790.436 5.80437 Q790.378 9.7106 788.902 11.8518 Q787.427 13.964 784.793 13.964 Q783.694 13.964 782.768 13.559 Q781.842 13.1539 780.772 12.199 Z" fill="#000000" fill-rule="nonzero" fill-opacity="1" /><path clip-path="url(#clip880)" d="M818.156 23.1654 Q813.873 23.1654 811.385 26.5218 Q808.896 29.8494 808.896 35.6653 Q808.896 41.4813 811.356 44.8377 Q813.844 48.1653 818.156 48.1653 Q822.409 48.1653 824.897 44.8088 Q827.386 41.4523 827.386 35.6653 Q827.386 29.9072 824.897 26.5508 Q822.409 23.1654 818.156 23.1654 M818.156 18.6515 Q825.1 18.6515 829.064 23.1654 Q833.028 27.6792 833.028 35.6653 Q833.028 43.6225 829.064 48.1653 Q825.1 52.6791 818.156 52.6791 Q811.182 52.6791 807.218 48.1653 Q803.283 43.6225 803.283 35.6653 Q803.283 27.6792 807.218 23.1654 Q811.182 18.6515 818.156 18.6515 Z" fill="#000000" fill-rule="nonzero" fill-opacity="1" /><path clip-path="url(#clip880)" d="M882.015 24.3517 L882.015 6.81709 L887.339 6.81709 L887.339 51.84 L882.015 51.84 L882.015 46.9789 Q880.337 49.8724 877.762 51.2902 Q875.215 52.6791 871.628 52.6791 Q865.754 52.6791 862.05 47.9916 Q858.375 43.3042 858.375 35.6653 Q858.375 28.0265 862.05 23.339 Q865.754 18.6515 871.628 18.6515 Q875.215 18.6515 877.762 20.0693 Q880.337 21.4582 882.015 24.3517 M863.873 35.6653 Q863.873 41.5391 866.275 44.8956 Q868.705 48.2231 872.93 48.2231 Q877.154 48.2231 879.585 44.8956 Q882.015 41.5391 882.015 35.6653 Q882.015 29.7915 879.585 26.464 Q877.154 23.1075 872.93 23.1075 Q868.705 23.1075 866.275 26.464 Q863.873 29.7915 863.873 35.6653 Z" fill="#000000" fill-rule="nonzero" fill-opacity="1" /><path clip-path="url(#clip880)" d="M913.034 35.5496 Q906.581 35.5496 904.093 37.0253 Q901.604 38.501 901.604 42.06 Q901.604 44.8956 903.456 46.5738 Q905.337 48.2231 908.549 48.2231 Q912.976 48.2231 915.638 45.0981 Q918.329 41.9442 918.329 36.7359 L918.329 35.5496 L913.034 35.5496 M923.653 33.3505 L923.653 51.84 L918.329 51.84 L918.329 46.921 Q916.506 49.8724 913.786 51.2902 Q911.066 52.6791 907.131 52.6791 Q902.154 52.6791 899.203 49.9014 Q896.28 47.0947 896.28 42.4072 Q896.28 36.9385 899.926 34.1607 Q903.601 31.3829 910.863 31.3829 L918.329 31.3829 L918.329 30.8621 Q918.329 27.1874 915.898 25.1908 Q913.496 23.1654 909.127 23.1654 Q906.35 23.1654 903.716 23.8309 Q901.083 24.4964 898.653 25.8274 L898.653 20.9085 Q901.575 19.78 904.324 19.2302 Q907.073 18.6515 909.677 18.6515 Q916.708 18.6515 920.18 22.2973 Q923.653 25.9431 923.653 33.3505 Z" fill="#000000" fill-rule="nonzero" fill-opacity="1" /><path clip-path="url(#clip880)" d="M981.176 34.3054 L981.176 36.9095 L956.696 36.9095 Q957.044 42.4072 959.995 45.3007 Q962.975 48.1653 968.271 48.1653 Q971.338 48.1653 974.202 47.4129 Q977.096 46.6606 979.931 45.156 L979.931 50.1907 Q977.067 51.406 974.058 52.0425 Q971.048 52.6791 967.952 52.6791 Q960.198 52.6791 955.655 48.1653 Q951.141 43.6514 951.141 35.9547 Q951.141 27.9975 955.423 23.339 Q959.735 18.6515 967.026 18.6515 Q973.566 18.6515 977.356 22.876 Q981.176 27.0716 981.176 34.3054 M975.851 32.7429 Q975.794 28.3737 973.392 25.7695 Q971.019 23.1654 967.084 23.1654 Q962.628 23.1654 959.937 25.6827 Q957.275 28.2001 956.87 32.7718 L975.851 32.7429 Z" fill="#000000" fill-rule="nonzero" fill-opacity="1" /><path clip-path="url(#clip880)" d="M993.097 35.6653 Q993.097 41.5391 995.498 44.8956 Q997.929 48.2231 1002.15 48.2231 Q1006.38 48.2231 1008.81 44.8956 Q1011.24 41.5391 1011.24 35.6653 Q1011.24 29.7915 1008.81 26.464 Q1006.38 23.1075 1002.15 23.1075 Q997.929 23.1075 995.498 26.464 Q993.097 29.7915 993.097 35.6653 M1011.24 46.9789 Q1009.56 49.8724 1006.99 51.2902 Q1004.44 52.6791 1000.85 52.6791 Q994.978 52.6791 991.274 47.9916 Q987.599 43.3042 987.599 35.6653 Q987.599 28.0265 991.274 23.339 Q994.978 18.6515 1000.85 18.6515 Q1004.44 18.6515 1006.99 20.0693 Q1009.56 21.4582 1011.24 24.3517 L1011.24 19.4328 L1016.56 19.4328 L1016.56 64.1663 L1011.24 64.1663 L1011.24 46.9789 Z" fill="#000000" fill-rule="nonzero" fill-opacity="1" /><path clip-path="url(#clip880)" d="M1026.98 39.0507 L1026.98 19.4328 L1032.3 19.4328 L1032.3 38.8482 Q1032.3 43.4488 1034.1 45.7636 Q1035.89 48.0495 1039.48 48.0495 Q1043.79 48.0495 1046.28 45.3007 Q1048.8 42.5519 1048.8 37.8065 L1048.8 19.4328 L1054.12 19.4328 L1054.12 51.84 L1048.8 51.84 L1048.8 46.8632 Q1046.86 49.8145 1044.28 51.2613 Q1041.74 52.6791 1038.35 52.6791 Q1032.77 52.6791 1029.87 49.2069 Q1026.98 45.7347 1026.98 39.0507 M1040.38 18.6515 L1040.38 18.6515 Z" fill="#000000" fill-rule="nonzero" fill-opacity="1" /><path clip-path="url(#clip880)" d="M1079.82 35.5496 Q1073.36 35.5496 1070.87 37.0253 Q1068.39 38.501 1068.39 42.06 Q1068.39 44.8956 1070.24 46.5738 Q1072.12 48.2231 1075.33 48.2231 Q1079.76 48.2231 1082.42 45.0981 Q1085.11 41.9442 1085.11 36.7359 L1085.11 35.5496 L1079.82 35.5496 M1090.43 33.3505 L1090.43 51.84 L1085.11 51.84 L1085.11 46.921 Q1083.29 49.8724 1080.57 51.2902 Q1077.85 52.6791 1073.91 52.6791 Q1068.94 52.6791 1065.98 49.9014 Q1063.06 47.0947 1063.06 42.4072 Q1063.06 36.9385 1066.71 34.1607 Q1070.38 31.3829 1077.64 31.3829 L1085.11 31.3829 L1085.11 30.8621 Q1085.11 27.1874 1082.68 25.1908 Q1080.28 23.1654 1075.91 23.1654 Q1073.13 23.1654 1070.5 23.8309 Q1067.86 24.4964 1065.43 25.8274 L1065.43 20.9085 Q1068.36 19.78 1071.11 19.2302 Q1073.85 18.6515 1076.46 18.6515 Q1083.49 18.6515 1086.96 22.2973 Q1090.43 25.9431 1090.43 33.3505 Z" fill="#000000" fill-rule="nonzero" fill-opacity="1" /><path clip-path="url(#clip880)" d="M1124.72 20.677 L1124.72 25.6538 Q1122.47 24.4096 1120.18 23.802 Q1117.92 23.1654 1115.61 23.1654 Q1110.43 23.1654 1107.56 26.464 Q1104.7 29.7336 1104.7 35.6653 Q1104.7 41.597 1107.56 44.8956 Q1110.43 48.1653 1115.61 48.1653 Q1117.92 48.1653 1120.18 47.5576 Q1122.47 46.921 1124.72 45.6768 L1124.72 50.5958 Q1122.49 51.6375 1120.09 52.1583 Q1117.72 52.6791 1115.03 52.6791 Q1107.71 52.6791 1103.4 48.0784 Q1099.09 43.4778 1099.09 35.6653 Q1099.09 27.7371 1103.43 23.1943 Q1107.8 18.6515 1115.38 18.6515 Q1117.84 18.6515 1120.18 19.1724 Q1122.52 19.6642 1124.72 20.677 M1117.2 51.84 Q1118.79 53.634 1119.57 55.1386 Q1120.35 56.6722 1120.35 58.061 Q1120.35 60.6362 1118.62 61.9383 Q1116.88 63.2693 1113.47 63.2693 Q1112.14 63.2693 1110.86 63.0957 Q1109.62 62.9221 1108.37 62.5749 L1108.37 58.7844 Q1109.36 59.2763 1110.43 59.4788 Q1111.5 59.7103 1112.86 59.7103 Q1114.57 59.7103 1115.43 59.0159 Q1116.3 58.3214 1116.3 56.9904 Q1116.3 56.1224 1115.67 54.8492 Q1115.06 53.605 1113.76 51.84 L1117.2 51.84 Z" fill="#000000" fill-rule="nonzero" fill-opacity="1" /><path clip-path="url(#clip880)" d="M1148.71 35.5496 Q1142.26 35.5496 1139.77 37.0253 Q1137.28 38.501 1137.28 42.06 Q1137.28 44.8956 1139.13 46.5738 Q1141.01 48.2231 1144.22 48.2231 Q1148.65 48.2231 1151.31 45.0981 Q1154 41.9442 1154 36.7359 L1154 35.5496 L1148.71 35.5496 M1159.33 33.3505 L1159.33 51.84 L1154 51.84 L1154 46.921 Q1152.18 49.8724 1149.46 51.2902 Q1146.74 52.6791 1142.81 52.6791 Q1137.83 52.6791 1134.88 49.9014 Q1131.96 47.0947 1131.96 42.4072 Q1131.96 36.9385 1135.6 34.1607 Q1139.28 31.3829 1146.54 31.3829 L1154 31.3829 L1154 30.8621 Q1154 27.1874 1151.57 25.1908 Q1149.17 23.1654 1144.8 23.1654 Q1142.03 23.1654 1139.39 23.8309 Q1136.76 24.4964 1134.33 25.8274 L1134.33 20.9085 Q1137.25 19.78 1140 19.2302 Q1142.75 18.6515 1145.35 18.6515 Q1152.38 18.6515 1155.86 22.2973 Q1159.33 25.9431 1159.33 33.3505 M1145.47 12.199 L1143.82 10.6076 Q1143.18 10.0289 1142.69 9.76847 Q1142.23 9.47912 1141.85 9.47912 Q1140.75 9.47912 1140.23 10.5497 Q1139.71 11.5914 1139.65 13.964 L1136.04 13.964 Q1136.09 10.0578 1137.57 7.94556 Q1139.05 5.80437 1141.68 5.80437 Q1142.78 5.80437 1143.7 6.20946 Q1144.63 6.61455 1145.7 7.5694 L1147.35 9.16083 Q1147.99 9.73953 1148.45 10.0289 Q1148.94 10.2893 1149.32 10.2893 Q1150.42 10.2893 1150.94 9.24764 Q1151.46 8.17704 1151.52 5.80437 L1155.13 5.80437 Q1155.08 9.7106 1153.6 11.8518 Q1152.12 13.964 1149.49 13.964 Q1148.39 13.964 1147.47 13.559 Q1146.54 13.1539 1145.47 12.199 Z" fill="#000000" fill-rule="nonzero" fill-opacity="1" /><path clip-path="url(#clip880)" d="M1182.85 23.1654 Q1178.57 23.1654 1176.08 26.5218 Q1173.59 29.8494 1173.59 35.6653 Q1173.59 41.4813 1176.05 44.8377 Q1178.54 48.1653 1182.85 48.1653 Q1187.11 48.1653 1189.59 44.8088 Q1192.08 41.4523 1192.08 35.6653 Q1192.08 29.9072 1189.59 26.5508 Q1187.11 23.1654 1182.85 23.1654 M1182.85 18.6515 Q1189.8 18.6515 1193.76 23.1654 Q1197.73 27.6792 1197.73 35.6653 Q1197.73 43.6225 1193.76 48.1653 Q1189.8 52.6791 1182.85 52.6791 Q1175.88 52.6791 1171.92 48.1653 Q1167.98 43.6225 1167.98 35.6653 Q1167.98 27.6792 1171.92 23.1654 Q1175.88 18.6515 1182.85 18.6515 Z" fill="#000000" fill-rule="nonzero" fill-opacity="1" /><path clip-path="url(#clip880)" d="M1246.71 24.3517 L1246.71 6.81709 L1252.04 6.81709 L1252.04 51.84 L1246.71 51.84 L1246.71 46.9789 Q1245.03 49.8724 1242.46 51.2902 Q1239.91 52.6791 1236.32 52.6791 Q1230.45 52.6791 1226.75 47.9916 Q1223.07 43.3042 1223.07 35.6653 Q1223.07 28.0265 1226.75 23.339 Q1230.45 18.6515 1236.32 18.6515 Q1239.91 18.6515 1242.46 20.0693 Q1245.03 21.4582 1246.71 24.3517 M1228.57 35.6653 Q1228.57 41.5391 1230.97 44.8956 Q1233.4 48.2231 1237.63 48.2231 Q1241.85 48.2231 1244.28 44.8956 Q1246.71 41.5391 1246.71 35.6653 Q1246.71 29.7915 1244.28 26.464 Q1241.85 23.1075 1237.63 23.1075 Q1233.4 23.1075 1230.97 26.464 Q1228.57 29.7915 1228.57 35.6653 Z" fill="#000000" fill-rule="nonzero" fill-opacity="1" /><path clip-path="url(#clip880)" d="M1263 19.4328 L1268.33 19.4328 L1268.33 51.84 L1263 51.84 L1263 19.4328 M1263 6.81709 L1268.33 6.81709 L1268.33 13.559 L1263 13.559 L1263 6.81709 Z" fill="#000000" fill-rule="nonzero" fill-opacity="1" /><path clip-path="url(#clip880)" d="M1295.87 6.81709 L1295.87 11.2442 L1290.78 11.2442 Q1287.92 11.2442 1286.79 12.4016 Q1285.69 13.559 1285.69 16.5682 L1285.69 19.4328 L1294.46 19.4328 L1294.46 23.5705 L1285.69 23.5705 L1285.69 51.84 L1280.33 51.84 L1280.33 23.5705 L1275.24 23.5705 L1275.24 19.4328 L1280.33 19.4328 L1280.33 17.1758 Q1280.33 11.765 1282.85 9.30551 Q1285.37 6.81709 1290.84 6.81709 L1295.87 6.81709 Z" fill="#000000" fill-rule="nonzero" fill-opacity="1" /><path clip-path="url(#clip880)" d="M1328.05 34.3054 L1328.05 36.9095 L1303.57 36.9095 Q1303.92 42.4072 1306.87 45.3007 Q1309.85 48.1653 1315.14 48.1653 Q1318.21 48.1653 1321.08 47.4129 Q1323.97 46.6606 1326.8 45.156 L1326.8 50.1907 Q1323.94 51.406 1320.93 52.0425 Q1317.92 52.6791 1314.83 52.6791 Q1307.07 52.6791 1302.53 48.1653 Q1298.01 43.6514 1298.01 35.9547 Q1298.01 27.9975 1302.3 23.339 Q1306.61 18.6515 1313.9 18.6515 Q1320.44 18.6515 1324.23 22.876 Q1328.05 27.0716 1328.05 34.3054 M1322.72 32.7429 Q1322.67 28.3737 1320.27 25.7695 Q1317.89 23.1654 1313.96 23.1654 Q1309.5 23.1654 1306.81 25.6827 Q1304.15 28.2001 1303.74 32.7718 L1322.72 32.7429 Z" fill="#000000" fill-rule="nonzero" fill-opacity="1" /><path clip-path="url(#clip880)" d="M1355.57 24.4096 Q1354.67 23.8888 1353.6 23.6573 Q1352.56 23.3969 1351.28 23.3969 Q1346.77 23.3969 1344.34 26.3482 Q1341.94 29.2707 1341.94 34.7683 L1341.94 51.84 L1336.58 51.84 L1336.58 19.4328 L1341.94 19.4328 L1341.94 24.4675 Q1343.62 21.5161 1346.31 20.0983 Q1349 18.6515 1352.85 18.6515 Q1353.4 18.6515 1354.06 18.7383 Q1354.73 18.7962 1355.54 18.9409 L1355.57 24.4096 Z" fill="#000000" fill-rule="nonzero" fill-opacity="1" /><path clip-path="url(#clip880)" d="M1387.57 34.3054 L1387.57 36.9095 L1363.09 36.9095 Q1363.44 42.4072 1366.39 45.3007 Q1369.37 48.1653 1374.66 48.1653 Q1377.73 48.1653 1380.59 47.4129 Q1383.49 46.6606 1386.32 45.156 L1386.32 50.1907 Q1383.46 51.406 1380.45 52.0425 Q1377.44 52.6791 1374.34 52.6791 Q1366.59 52.6791 1362.05 48.1653 Q1357.53 43.6514 1357.53 35.9547 Q1357.53 27.9975 1361.82 23.339 Q1366.13 18.6515 1373.42 18.6515 Q1379.96 18.6515 1383.75 22.876 Q1387.57 27.0716 1387.57 34.3054 M1382.24 32.7429 Q1382.19 28.3737 1379.78 25.7695 Q1377.41 23.1654 1373.48 23.1654 Q1369.02 23.1654 1366.33 25.6827 Q1363.67 28.2001 1363.26 32.7718 L1382.24 32.7429 Z" fill="#000000" fill-rule="nonzero" fill-opacity="1" /><path clip-path="url(#clip880)" d="M1423.24 32.2799 L1423.24 51.84 L1417.92 51.84 L1417.92 32.4535 Q1417.92 27.8529 1416.13 25.567 Q1414.33 23.2811 1410.74 23.2811 Q1406.43 23.2811 1403.95 26.03 Q1401.46 28.7788 1401.46 33.5241 L1401.46 51.84 L1396.1 51.84 L1396.1 19.4328 L1401.46 19.4328 L1401.46 24.4675 Q1403.37 21.545 1405.94 20.0983 Q1408.55 18.6515 1411.93 18.6515 Q1417.52 18.6515 1420.38 22.1237 Q1423.24 25.567 1423.24 32.2799 Z" fill="#000000" fill-rule="nonzero" fill-opacity="1" /><path clip-path="url(#clip880)" d="M1457.19 20.677 L1457.19 25.6538 Q1454.93 24.4096 1452.64 23.802 Q1450.39 23.1654 1448.07 23.1654 Q1442.89 23.1654 1440.03 26.464 Q1437.16 29.7336 1437.16 35.6653 Q1437.16 41.597 1440.03 44.8956 Q1442.89 48.1653 1448.07 48.1653 Q1450.39 48.1653 1452.64 47.5576 Q1454.93 46.921 1457.19 45.6768 L1457.19 50.5958 Q1454.96 51.6375 1452.56 52.1583 Q1450.18 52.6791 1447.49 52.6791 Q1440.17 52.6791 1435.86 48.0784 Q1431.55 43.4778 1431.55 35.6653 Q1431.55 27.7371 1435.89 23.1943 Q1440.26 18.6515 1447.84 18.6515 Q1450.3 18.6515 1452.64 19.1724 Q1454.99 19.6642 1457.19 20.677 Z" fill="#000000" fill-rule="nonzero" fill-opacity="1" /><path clip-path="url(#clip880)" d="M1466.44 19.4328 L1471.77 19.4328 L1471.77 51.84 L1466.44 51.84 L1466.44 19.4328 M1466.44 6.81709 L1471.77 6.81709 L1471.77 13.559 L1466.44 13.559 L1466.44 6.81709 Z" fill="#000000" fill-rule="nonzero" fill-opacity="1" /><path clip-path="url(#clip880)" d="M1497.64 35.5496 Q1491.18 35.5496 1488.7 37.0253 Q1486.21 38.501 1486.21 42.06 Q1486.21 44.8956 1488.06 46.5738 Q1489.94 48.2231 1493.15 48.2231 Q1497.58 48.2231 1500.24 45.0981 Q1502.93 41.9442 1502.93 36.7359 L1502.93 35.5496 L1497.64 35.5496 M1508.26 33.3505 L1508.26 51.84 L1502.93 51.84 L1502.93 46.921 Q1501.11 49.8724 1498.39 51.2902 Q1495.67 52.6791 1491.73 52.6791 Q1486.76 52.6791 1483.81 49.9014 Q1480.88 47.0947 1480.88 42.4072 Q1480.88 36.9385 1484.53 34.1607 Q1488.2 31.3829 1495.47 31.3829 L1502.93 31.3829 L1502.93 30.8621 Q1502.93 27.1874 1500.5 25.1908 Q1498.1 23.1654 1493.73 23.1654 Q1490.95 23.1654 1488.32 23.8309 Q1485.69 24.4964 1483.26 25.8274 L1483.26 20.9085 Q1486.18 19.78 1488.93 19.2302 Q1491.68 18.6515 1494.28 18.6515 Q1501.31 18.6515 1504.78 22.2973 Q1508.26 25.9431 1508.26 33.3505 Z" fill="#000000" fill-rule="nonzero" fill-opacity="1" /><path clip-path="url(#clip880)" d="M1519.22 6.81709 L1524.55 6.81709 L1524.55 51.84 L1519.22 51.84 L1519.22 6.81709 Z" fill="#000000" fill-rule="nonzero" fill-opacity="1" /><path clip-path="url(#clip880)" d="M1569.25 35.5496 Q1562.8 35.5496 1560.31 37.0253 Q1557.82 38.501 1557.82 42.06 Q1557.82 44.8956 1559.67 46.5738 Q1561.55 48.2231 1564.77 48.2231 Q1569.19 48.2231 1571.86 45.0981 Q1574.55 41.9442 1574.55 36.7359 L1574.55 35.5496 L1569.25 35.5496 M1579.87 33.3505 L1579.87 51.84 L1574.55 51.84 L1574.55 46.921 Q1572.72 49.8724 1570 51.2902 Q1567.28 52.6791 1563.35 52.6791 Q1558.37 52.6791 1555.42 49.9014 Q1552.5 47.0947 1552.5 42.4072 Q1552.5 36.9385 1556.14 34.1607 Q1559.82 31.3829 1567.08 31.3829 L1574.55 31.3829 L1574.55 30.8621 Q1574.55 27.1874 1572.12 25.1908 Q1569.71 23.1654 1565.34 23.1654 Q1562.57 23.1654 1559.93 23.8309 Q1557.3 24.4964 1554.87 25.8274 L1554.87 20.9085 Q1557.79 19.78 1560.54 19.2302 Q1563.29 18.6515 1565.89 18.6515 Q1572.93 18.6515 1576.4 22.2973 Q1579.87 25.9431 1579.87 33.3505 Z" fill="#000000" fill-rule="nonzero" fill-opacity="1" /><path clip-path="url(#clip880)" d="M1590.84 6.81709 L1596.16 6.81709 L1596.16 51.84 L1590.84 51.84 L1590.84 6.81709 Z" fill="#000000" fill-rule="nonzero" fill-opacity="1" /><path clip-path="url(#clip880)" d="M1635.02 34.3054 L1635.02 36.9095 L1610.54 36.9095 Q1610.89 42.4072 1613.84 45.3007 Q1616.82 48.1653 1622.12 48.1653 Q1625.18 48.1653 1628.05 47.4129 Q1630.94 46.6606 1633.78 45.156 L1633.78 50.1907 Q1630.91 51.406 1627.9 52.0425 Q1624.89 52.6791 1621.8 52.6791 Q1614.04 52.6791 1609.5 48.1653 Q1604.99 43.6514 1604.99 35.9547 Q1604.99 27.9975 1609.27 23.339 Q1613.58 18.6515 1620.87 18.6515 Q1627.41 18.6515 1631.2 22.876 Q1635.02 27.0716 1635.02 34.3054 M1629.7 32.7429 Q1629.64 28.3737 1627.24 25.7695 Q1624.86 23.1654 1620.93 23.1654 Q1616.47 23.1654 1613.78 25.6827 Q1611.12 28.2001 1610.71 32.7718 L1629.7 32.7429 Z" fill="#000000" fill-rule="nonzero" fill-opacity="1" /><path clip-path="url(#clip880)" d="M1658.49 35.5496 Q1652.03 35.5496 1649.55 37.0253 Q1647.06 38.501 1647.06 42.06 Q1647.06 44.8956 1648.91 46.5738 Q1650.79 48.2231 1654 48.2231 Q1658.43 48.2231 1661.09 45.0981 Q1663.78 41.9442 1663.78 36.7359 L1663.78 35.5496 L1658.49 35.5496 M1669.11 33.3505 L1669.11 51.84 L1663.78 51.84 L1663.78 46.921 Q1661.96 49.8724 1659.24 51.2902 Q1656.52 52.6791 1652.58 52.6791 Q1647.61 52.6791 1644.66 49.9014 Q1641.73 47.0947 1641.73 42.4072 Q1641.73 36.9385 1645.38 34.1607 Q1649.05 31.3829 1656.32 31.3829 L1663.78 31.3829 L1663.78 30.8621 Q1663.78 27.1874 1661.35 25.1908 Q1658.95 23.1654 1654.58 23.1654 Q1651.8 23.1654 1649.17 23.8309 Q1646.54 24.4964 1644.11 25.8274 L1644.11 20.9085 Q1647.03 19.78 1649.78 19.2302 Q1652.53 18.6515 1655.13 18.6515 Q1662.16 18.6515 1665.63 22.2973 Q1669.11 25.9431 1669.11 33.3505 Z" fill="#000000" fill-rule="nonzero" fill-opacity="1" /><path clip-path="url(#clip880)" d="M1685.34 10.2314 L1685.34 19.4328 L1696.3 19.4328 L1696.3 23.5705 L1685.34 23.5705 L1685.34 41.163 Q1685.34 45.1271 1686.41 46.2555 Q1687.51 47.384 1690.84 47.384 L1696.3 47.384 L1696.3 51.84 L1690.84 51.84 Q1684.67 51.84 1682.33 49.5541 Q1679.99 47.2393 1679.99 41.163 L1679.99 23.5705 L1676.08 23.5705 L1676.08 19.4328 L1679.99 19.4328 L1679.99 10.2314 L1685.34 10.2314 Z" fill="#000000" fill-rule="nonzero" fill-opacity="1" /><path clip-path="url(#clip880)" d="M1715.86 23.1654 Q1711.58 23.1654 1709.09 26.5218 Q1706.61 29.8494 1706.61 35.6653 Q1706.61 41.4813 1709.07 44.8377 Q1711.55 48.1653 1715.86 48.1653 Q1720.12 48.1653 1722.61 44.8088 Q1725.1 41.4523 1725.1 35.6653 Q1725.1 29.9072 1722.61 26.5508 Q1720.12 23.1654 1715.86 23.1654 M1715.86 18.6515 Q1722.81 18.6515 1726.77 23.1654 Q1730.74 27.6792 1730.74 35.6653 Q1730.74 43.6225 1726.77 48.1653 Q1722.81 52.6791 1715.86 52.6791 Q1708.89 52.6791 1704.93 48.1653 Q1700.99 43.6225 1700.99 35.6653 Q1700.99 27.6792 1704.93 23.1654 Q1708.89 18.6515 1715.86 18.6515 M1719.89 4.44442 L1725.64 4.44442 L1716.21 15.324 L1711.79 15.324 L1719.89 4.44442 Z" fill="#000000" fill-rule="nonzero" fill-opacity="1" /><path clip-path="url(#clip880)" d="M1758.34 24.4096 Q1757.44 23.8888 1756.37 23.6573 Q1755.33 23.3969 1754.06 23.3969 Q1749.55 23.3969 1747.11 26.3482 Q1744.71 29.2707 1744.71 34.7683 L1744.71 51.84 L1739.36 51.84 L1739.36 19.4328 L1744.71 19.4328 L1744.71 24.4675 Q1746.39 21.5161 1749.08 20.0983 Q1751.77 18.6515 1755.62 18.6515 Q1756.17 18.6515 1756.84 18.7383 Q1757.5 18.7962 1758.31 18.9409 L1758.34 24.4096 Z" fill="#000000" fill-rule="nonzero" fill-opacity="1" /><path clip-path="url(#clip880)" d="M1763.93 19.4328 L1769.25 19.4328 L1769.25 51.84 L1763.93 51.84 L1763.93 19.4328 M1763.93 6.81709 L1769.25 6.81709 L1769.25 13.559 L1763.93 13.559 L1763.93 6.81709 Z" fill="#000000" fill-rule="nonzero" fill-opacity="1" /><path clip-path="url(#clip880)" d="M1795.12 35.5496 Q1788.67 35.5496 1786.18 37.0253 Q1783.69 38.501 1783.69 42.06 Q1783.69 44.8956 1785.54 46.5738 Q1787.42 48.2231 1790.63 48.2231 Q1795.06 48.2231 1797.72 45.0981 Q1800.41 41.9442 1800.41 36.7359 L1800.41 35.5496 L1795.12 35.5496 M1805.74 33.3505 L1805.74 51.84 L1800.41 51.84 L1800.41 46.921 Q1798.59 49.8724 1795.87 51.2902 Q1793.15 52.6791 1789.22 52.6791 Q1784.24 52.6791 1781.29 49.9014 Q1778.36 47.0947 1778.36 42.4072 Q1778.36 36.9385 1782.01 34.1607 Q1785.69 31.3829 1792.95 31.3829 L1800.41 31.3829 L1800.41 30.8621 Q1800.41 27.1874 1797.98 25.1908 Q1795.58 23.1654 1791.21 23.1654 Q1788.43 23.1654 1785.8 23.8309 Q1783.17 24.4964 1780.74 25.8274 L1780.74 20.9085 Q1783.66 19.78 1786.41 19.2302 Q1789.16 18.6515 1791.76 18.6515 Q1798.79 18.6515 1802.26 22.2973 Q1805.74 25.9431 1805.74 33.3505 Z" fill="#000000" fill-rule="nonzero" fill-opacity="1" /><path clip-path="url(#clip880)" d="M1840.57 4.44442 L1848.73 15.2661 L1844.31 15.2661 L1834.87 4.44442 L1840.57 4.44442 Z" fill="#000000" fill-rule="nonzero" fill-opacity="1" /><path clip-path="url(#clip880)" d="M1864.62 39.0507 L1864.62 19.4328 L1869.94 19.4328 L1869.94 38.8482 Q1869.94 43.4488 1871.74 45.7636 Q1873.53 48.0495 1877.12 48.0495 Q1881.43 48.0495 1883.92 45.3007 Q1886.44 42.5519 1886.44 37.8065 L1886.44 19.4328 L1891.76 19.4328 L1891.76 51.84 L1886.44 51.84 L1886.44 46.8632 Q1884.5 49.8145 1881.92 51.2613 Q1879.38 52.6791 1875.99 52.6791 Q1870.41 52.6791 1867.51 49.2069 Q1864.62 45.7347 1864.62 39.0507 M1878.02 18.6515 L1878.02 18.6515 Z" fill="#000000" fill-rule="nonzero" fill-opacity="1" /><path clip-path="url(#clip880)" d="M1907.76 8.64 L1907.76 24.6989 L1902.84 24.6989 L1902.84 8.64 L1907.76 8.64 Z" fill="#000000" fill-rule="nonzero" fill-opacity="1" /><path clip-path="url(#clip880)" d="M1938.55 24.9304 L1975.64 24.9304 L1975.64 29.7915 L1938.55 29.7915 L1938.55 24.9304 M1938.55 36.7359 L1975.64 36.7359 L1975.64 41.6549 L1938.55 41.6549 L1938.55 36.7359 Z" fill="#000000" fill-rule="nonzero" fill-opacity="1" /><path clip-path="url(#clip880)" d="M2027 20.3876 L2027 25.4223 Q2024.75 24.2649 2022.32 23.6862 Q2019.89 23.1075 2017.28 23.1075 Q2013.32 23.1075 2011.32 24.3228 Q2009.35 25.5381 2009.35 27.9686 Q2009.35 29.8204 2010.77 30.891 Q2012.19 31.9327 2016.47 32.8876 L2018.29 33.2926 Q2023.97 34.5079 2026.34 36.7359 Q2028.74 38.935 2028.74 42.8991 Q2028.74 47.4129 2025.15 50.046 Q2021.59 52.6791 2015.34 52.6791 Q2012.74 52.6791 2009.9 52.1583 Q2007.1 51.6664 2003.97 50.6537 L2003.97 45.156 Q2006.92 46.6896 2009.79 47.4708 Q2012.65 48.2231 2015.46 48.2231 Q2019.22 48.2231 2021.25 46.95 Q2023.27 45.6479 2023.27 43.3042 Q2023.27 41.134 2021.79 39.9766 Q2020.35 38.8192 2015.4 37.7486 L2013.55 37.3146 Q2008.6 36.273 2006.4 34.1318 Q2004.2 31.9616 2004.2 28.2001 Q2004.2 23.6283 2007.44 21.1399 Q2010.68 18.6515 2016.64 18.6515 Q2019.6 18.6515 2022.2 19.0855 Q2024.8 19.5196 2027 20.3876 Z" fill="#000000" fill-rule="nonzero" fill-opacity="1" /><path clip-path="url(#clip880)" d="M2037.22 19.4328 L2042.54 19.4328 L2042.54 51.84 L2037.22 51.84 L2037.22 19.4328 M2037.22 6.81709 L2042.54 6.81709 L2042.54 13.559 L2037.22 13.559 L2037.22 6.81709 Z" fill="#000000" fill-rule="nonzero" fill-opacity="1" /><path clip-path="url(#clip880)" d="M2080.62 32.2799 L2080.62 51.84 L2075.3 51.84 L2075.3 32.4535 Q2075.3 27.8529 2073.5 25.567 Q2071.71 23.2811 2068.12 23.2811 Q2063.81 23.2811 2061.32 26.03 Q2058.83 28.7788 2058.83 33.5241 L2058.83 51.84 L2053.48 51.84 L2053.48 19.4328 L2058.83 19.4328 L2058.83 24.4675 Q2060.74 21.545 2063.32 20.0983 Q2065.92 18.6515 2069.31 18.6515 Q2074.89 18.6515 2077.76 22.1237 Q2080.62 25.567 2080.62 32.2799 Z" fill="#000000" fill-rule="nonzero" fill-opacity="1" /><path clip-path="url(#clip880)" d="M2104.03 6.87496 Q2100.15 13.53 2098.27 20.0404 Q2096.39 26.5508 2096.39 33.2348 Q2096.39 39.9188 2098.27 46.487 Q2100.18 53.0263 2104.03 59.6525 L2099.4 59.6525 Q2095.06 52.8527 2092.89 46.2845 Q2090.75 39.7162 2090.75 33.2348 Q2090.75 26.7823 2092.89 20.2429 Q2095.03 13.7036 2099.4 6.87496 L2104.03 6.87496 Z" fill="#000000" fill-rule="nonzero" fill-opacity="1" /><path clip-path="url(#clip880)" d="M2110.74 8.64 L2116.64 8.64 L2125.73 45.156 L2134.79 8.64 L2141.35 8.64 L2150.44 45.156 L2159.5 8.64 L2165.43 8.64 L2154.58 51.84 L2147.23 51.84 L2138.11 14.3402 L2128.91 51.84 L2121.56 51.84 L2110.74 8.64 Z" fill="#000000" fill-rule="nonzero" fill-opacity="1" /><path clip-path="url(#clip880)" d="M2172.11 6.87496 L2176.74 6.87496 Q2181.08 13.7036 2183.22 20.2429 Q2185.39 26.7823 2185.39 33.2348 Q2185.39 39.7162 2183.22 46.2845 Q2181.08 52.8527 2176.74 59.6525 L2172.11 59.6525 Q2175.96 53.0263 2177.84 46.487 Q2179.75 39.9188 2179.75 33.2348 Q2179.75 26.5508 2177.84 20.0404 Q2175.96 13.53 2172.11 6.87496 Z" fill="#000000" fill-rule="nonzero" fill-opacity="1" /><path clip-path="url(#clip880)" d="M2195.52 39.0507 L2195.52 19.4328 L2200.84 19.4328 L2200.84 38.8482 Q2200.84 43.4488 2202.64 45.7636 Q2204.43 48.0495 2208.02 48.0495 Q2212.33 48.0495 2214.82 45.3007 Q2217.34 42.5519 2217.34 37.8065 L2217.34 19.4328 L2222.66 19.4328 L2222.66 51.84 L2217.34 51.84 L2217.34 46.8632 Q2215.4 49.8145 2212.82 51.2613 Q2210.28 52.6791 2206.89 52.6791 Q2201.31 52.6791 2198.41 49.2069 Q2195.52 45.7347 2195.52 39.0507 M2208.92 18.6515 L2208.92 18.6515 Z" fill="#000000" fill-rule="nonzero" fill-opacity="1" /><path clip-path="url(#clip880)" d="M2238.66 4.44442 L2246.82 15.2661 L2242.4 15.2661 L2232.96 4.44442 L2238.66 4.44442 Z" fill="#000000" fill-rule="nonzero" fill-opacity="1" /><path clip-path="url(#clip880)" d="M2305.42 20.677 L2305.42 25.6538 Q2303.16 24.4096 2300.87 23.802 Q2298.62 23.1654 2296.3 23.1654 Q2291.12 23.1654 2288.26 26.464 Q2285.39 29.7336 2285.39 35.6653 Q2285.39 41.597 2288.26 44.8956 Q2291.12 48.1653 2296.3 48.1653 Q2298.62 48.1653 2300.87 47.5576 Q2303.16 46.921 2305.42 45.6768 L2305.42 50.5958 Q2303.19 51.6375 2300.79 52.1583 Q2298.41 52.6791 2295.72 52.6791 Q2288.4 52.6791 2284.09 48.0784 Q2279.78 43.4778 2279.78 35.6653 Q2279.78 27.7371 2284.12 23.1943 Q2288.49 18.6515 2296.07 18.6515 Q2298.53 18.6515 2300.87 19.1724 Q2303.22 19.6642 2305.42 20.677 Z" fill="#000000" fill-rule="nonzero" fill-opacity="1" /><path clip-path="url(#clip880)" d="M2327.23 23.1654 Q2322.95 23.1654 2320.46 26.5218 Q2317.97 29.8494 2317.97 35.6653 Q2317.97 41.4813 2320.43 44.8377 Q2322.92 48.1653 2327.23 48.1653 Q2331.49 48.1653 2333.97 44.8088 Q2336.46 41.4523 2336.46 35.6653 Q2336.46 29.9072 2333.97 26.5508 Q2331.49 23.1654 2327.23 23.1654 M2327.23 18.6515 Q2334.18 18.6515 2338.14 23.1654 Q2342.11 27.6792 2342.11 35.6653 Q2342.11 43.6225 2338.14 48.1653 Q2334.18 52.6791 2327.23 52.6791 Q2320.26 52.6791 2316.3 48.1653 Q2312.36 43.6225 2312.36 35.6653 Q2312.36 27.6792 2316.3 23.1654 Q2320.26 18.6515 2327.23 18.6515 Z" fill="#000000" fill-rule="nonzero" fill-opacity="1" /><path clip-path="url(#clip880)" d="M2376.16 25.6538 Q2378.16 22.0659 2380.94 20.3587 Q2383.71 18.6515 2387.48 18.6515 Q2392.54 18.6515 2395.29 22.2105 Q2398.04 25.7406 2398.04 32.2799 L2398.04 51.84 L2392.68 51.84 L2392.68 32.4535 Q2392.68 27.795 2391.03 25.5381 Q2389.39 23.2811 2386 23.2811 Q2381.86 23.2811 2379.46 26.03 Q2377.06 28.7788 2377.06 33.5241 L2377.06 51.84 L2371.71 51.84 L2371.71 32.4535 Q2371.71 27.7661 2370.06 25.5381 Q2368.41 23.2811 2364.96 23.2811 Q2360.88 23.2811 2358.48 26.0589 Q2356.08 28.8077 2356.08 33.5241 L2356.08 51.84 L2350.73 51.84 L2350.73 19.4328 L2356.08 19.4328 L2356.08 24.4675 Q2357.9 21.4872 2360.45 20.0693 Q2363 18.6515 2366.5 18.6515 Q2370.03 18.6515 2372.49 20.4455 Q2374.98 22.2395 2376.16 25.6538 Z" fill="#000000" fill-rule="nonzero" fill-opacity="1" /><path clip-path="url(#clip880)" d="M2432.53 4.44442 L2440.69 15.2661 L2436.26 15.2661 L2426.83 4.44442 L2432.53 4.44442 Z" fill="#000000" fill-rule="nonzero" fill-opacity="1" /><path clip-path="url(#clip880)" d="M2456.57 39.0507 L2456.57 19.4328 L2461.9 19.4328 L2461.9 38.8482 Q2461.9 43.4488 2463.69 45.7636 Q2465.48 48.0495 2469.07 48.0495 Q2473.38 48.0495 2475.87 45.3007 Q2478.39 42.5519 2478.39 37.8065 L2478.39 19.4328 L2483.71 19.4328 L2483.71 51.84 L2478.39 51.84 L2478.39 46.8632 Q2476.45 49.8145 2473.88 51.2613 Q2471.33 52.6791 2467.94 52.6791 Q2462.36 52.6791 2459.47 49.2069 Q2456.57 45.7347 2456.57 39.0507 M2469.97 18.6515 L2469.97 18.6515 Z" fill="#000000" fill-rule="nonzero" fill-opacity="1" /><path clip-path="url(#clip880)" d="M2507.47 6.87496 Q2503.59 13.53 2501.71 20.0404 Q2499.83 26.5508 2499.83 33.2348 Q2499.83 39.9188 2501.71 46.487 Q2503.62 53.0263 2507.47 59.6525 L2502.84 59.6525 Q2498.5 52.8527 2496.33 46.2845 Q2494.19 39.7162 2494.19 33.2348 Q2494.19 26.7823 2496.33 20.2429 Q2498.47 13.7036 2502.84 6.87496 L2507.47 6.87496 Z" fill="#000000" fill-rule="nonzero" fill-opacity="1" /><path clip-path="url(#clip880)" d="M2531.05 12.4884 Q2526.54 12.4884 2524.25 16.9444 Q2521.99 21.3714 2521.99 30.2834 Q2521.99 39.1665 2524.25 43.6225 Q2526.54 48.0495 2531.05 48.0495 Q2535.59 48.0495 2537.85 43.6225 Q2540.14 39.1665 2540.14 30.2834 Q2540.14 21.3714 2537.85 16.9444 Q2535.59 12.4884 2531.05 12.4884 M2531.05 7.85875 Q2538.31 7.85875 2542.13 13.6168 Q2545.98 19.346 2545.98 30.2834 Q2545.98 41.1919 2542.13 46.95 Q2538.31 52.6791 2531.05 52.6791 Q2523.79 52.6791 2519.94 46.95 Q2516.12 41.1919 2516.12 30.2834 Q2516.12 19.346 2519.94 13.6168 Q2523.79 7.85875 2531.05 7.85875 Z" fill="#000000" fill-rule="nonzero" fill-opacity="1" /><path clip-path="url(#clip880)" d="M2554.66 6.87496 L2559.29 6.87496 Q2563.63 13.7036 2565.77 20.2429 Q2567.94 26.7823 2567.94 33.2348 Q2567.94 39.7162 2565.77 46.2845 Q2563.63 52.8527 2559.29 59.6525 L2554.66 59.6525 Q2558.51 53.0263 2560.39 46.487 Q2562.3 39.9188 2562.3 33.2348 Q2562.3 26.5508 2560.39 20.0404 Q2558.51 13.53 2554.66 6.87496 Z" fill="#000000" fill-rule="nonzero" fill-opacity="1" /><path clip-path="url(#clip880)" d="M2598.15 24.9304 L2635.25 24.9304 L2635.25 29.7915 L2598.15 29.7915 L2598.15 24.9304 M2598.15 36.7359 L2635.25 36.7359 L2635.25 41.6549 L2598.15 41.6549 L2598.15 36.7359 Z" fill="#000000" fill-rule="nonzero" fill-opacity="1" /><path clip-path="url(#clip880)" d="M2667.71 46.921 L2677.26 46.921 L2677.26 13.964 L2666.87 16.0474 L2666.87 10.7233 L2677.2 8.64 L2683.05 8.64 L2683.05 46.921 L2692.6 46.921 L2692.6 51.84 L2667.71 51.84 L2667.71 46.921 Z" fill="#000000" fill-rule="nonzero" fill-opacity="1" /><path clip-path="url(#clip880)" d="M2704.4 44.4905 L2710.51 44.4905 L2710.51 51.84 L2704.4 51.84 L2704.4 44.4905 Z" fill="#000000" fill-rule="nonzero" fill-opacity="1" /><path clip-path="url(#clip880)" d="M2735.74 12.4884 Q2731.22 12.4884 2728.94 16.9444 Q2726.68 21.3714 2726.68 30.2834 Q2726.68 39.1665 2728.94 43.6225 Q2731.22 48.0495 2735.74 48.0495 Q2740.28 48.0495 2742.54 43.6225 Q2744.82 39.1665 2744.82 30.2834 Q2744.82 21.3714 2742.54 16.9444 Q2740.28 12.4884 2735.74 12.4884 M2735.74 7.85875 Q2743 7.85875 2746.82 13.6168 Q2750.67 19.346 2750.67 30.2834 Q2750.67 41.1919 2746.82 46.95 Q2743 52.6791 2735.74 52.6791 Q2728.48 52.6791 2724.63 46.95 Q2720.81 41.1919 2720.81 30.2834 Q2720.81 19.346 2724.63 13.6168 Q2728.48 7.85875 2735.74 7.85875 Z" fill="#000000" fill-rule="nonzero" fill-opacity="1" /><path clip-path="url(#clip880)" d="M2765.22 4.44442 L2773.38 15.2661 L2768.96 15.2661 L2759.52 4.44442 L2765.22 4.44442 Z" fill="#000000" fill-rule="nonzero" fill-opacity="1" /><polyline clip-path="url(#clip882)" style="stroke:#009af9; stroke-linecap:round; stroke-linejoin:round; stroke-width:4; stroke-opacity:1; fill:none" points="316.418,352.063 321.926,352.063 327.433,352.478 332.94,353.229 338.448,352.925 343.955,352.801 349.463,350.774 354.97,348.447 360.478,344.256 365.985,337.835 371.493,331.937 377,328.835 382.507,326.166 388.015,324.862 393.522,321.277 399.03,316.678 404.537,311.119 410.045,306.639 415.552,300.393 421.06,293.447 426.567,285.881 432.075,279.553 437.582,271.015 443.089,262.39 448.597,253.883 454.104,246.634 459.612,241.898 465.119,238.497 470.627,237.026 476.134,233.682 481.642,231.565 487.149,228.049 492.657,224.178 498.164,220.432 503.671,214.395 509.179,210.208 514.686,206.458 520.194,204.582 525.701,203.3 531.209,204.609 536.716,205.695 542.224,204.544 547.731,199.532 553.238,194.632 558.746,191.271 564.253,188.035 569.761,183.736 575.268,180.047 580.776,176.33 586.283,173.473 591.791,171.699 597.298,170.837 602.806,172.207 608.313,176.459 613.82,181.345 619.328,183.327 624.835,184.362 630.343,185.246 635.85,189.045 641.358,193.495 646.865,199.409 652.373,204.062 657.88,209.677 663.388,215.301 668.895,221.451 674.402,226.713 679.91,229.969 685.417,233.296 690.925,237.492 696.432,243.163 701.94,250.119 707.447,255.571 712.955,260.162 718.462,265.026 723.97,270.348 729.477,275.639 734.984,280.256 740.492,287.234 745.999,295.447 751.507,304.939 757.014,316.788 762.522,329.325 768.029,341.702 773.537,353.685 779.044,364.477 784.551,376.364 790.059,389.093 795.566,402.742 801.074,417.629 806.581,432.237 812.089,446.939 817.596,461.083 823.104,475.683 828.611,490.484 834.119,505.789 839.626,521.339 845.133,534.982 850.641,547.806 856.148,561.621 861.656,574.176 867.163,589.073 872.671,604.45 878.178,619.613 883.686,635.111 889.193,650.128 894.701,664.879 900.208,679.502 905.715,694.567 911.223,709.192 916.73,723.631 922.238,737.958 927.745,751.755 933.253,764.262 938.76,776.871 944.268,789.027 949.775,801.687 955.282,812.927 960.79,823.452 966.297,835.3 971.805,846.529 977.312,858.603 982.82,870.601 988.327,882.735 993.835,894.781 999.342,906.113 1004.85,917.534 1010.36,927.436 1015.86,936.076 1021.37,944.287 1026.88,953.508 1032.39,963.185 1037.89,973.582 1043.4,984.478 1048.91,994.152 1054.42,1002.82 1059.92,1010.98 1065.43,1020.68 1070.94,1029.49 1076.45,1038.24 1081.95,1046.93 1087.46,1054.73 1092.97,1060.66 1098.48,1067.15 1103.98,1073.09 1109.49,1080.87 1115,1087.48 1120.51,1093.48 1126.01,1100.02 1131.52,1106.58 1137.03,1112.18 1142.54,1118.13 1148.04,1124.99 1153.55,1131.84 1159.06,1138.17 1164.57,1142.94 1170.07,1146.88 1175.58,1149.26 1181.09,1152.09 1186.6,1155.36 1192.1,1160.28 1197.61,1166.77 1203.12,1172.44 1208.63,1178.31 1214.13,1182.8 1219.64,1185.38 1225.15,1188.81 1230.66,1192.44 1236.16,1197.34 1241.67,1202.44 1247.18,1207.45 1252.68,1212.79 1258.19,1216.58 1263.7,1219.56 1269.21,1222.82 1274.71,1225.54 1280.22,1229.24 1285.73,1232.99 1291.24,1235.86 1296.74,1238.95 1302.25,1240.65 1307.76,1243.39 1313.27,1245.44 1318.77,1249.2 1324.28,1252.29 1329.79,1256.62 1335.3,1261.81 1340.8,1268.17 1346.31,1274.8 1351.82,1280.58 1357.33,1285.86 1362.83,1292.36 1368.34,1298.8 1373.85,1305.31 1379.36,1311.58 1384.86,1317.8 1390.37,1324.44 1395.88,1330.71 1401.39,1337.7 1406.89,1345.18 1412.4,1352.27 1417.91,1359.52 1423.42,1366.7 1428.92,1374.11 1434.43,1381.08 1439.94,1387.51 1445.45,1393.67 1450.95,1399.81 1456.46,1406.6 1461.97,1414.18 1467.48,1421.5 1472.98,1428.82 1478.49,1435.75 1484,1442.92 1489.51,1450.08 1495.01,1456.48 1500.52,1462.06 1506.03,1467.59 1511.54,1473.38 1517.04,1479.2 1522.55,1485.25 1528.06,1490.61 1533.56,1495.78 1539.07,1501.16 1544.58,1506.02 1550.09,1511.2 1555.59,1516.7 1561.1,1522.37 1566.61,1528.27 1572.12,1533.86 1577.62,1540.13 1583.13,1546.42 1588.64,1552.2 1594.15,1557.67 1599.65,1563.5 1605.16,1569.01 1610.67,1574.22 1616.18,1579.32 1621.68,1584.63 1627.19,1589.91 1632.7,1595.11 1638.21,1600.84 1643.71,1606.71 1649.22,1612.19 1654.73,1617.66 1660.24,1623.48 1665.74,1629.45 1671.25,1635.36 1676.76,1641.09 1682.27,1646.54 1687.77,1651.57 1693.28,1656.36 1698.79,1661.2 1704.3,1665.78 1709.8,1670.38 1715.31,1675.06 1720.82,1679.25 1726.33,1682.99 1731.83,1686.97 1737.34,1691.17 1742.85,1695.44 1748.36,1699.81 1753.86,1704.04 1759.37,1708.03 1764.88,1711.92 1770.39,1715.8 1775.89,1719.83 1781.4,1724.03 1786.91,1728.19 1792.42,1732.53 1797.92,1736.73 1803.43,1740.62 1808.94,1744.79 1814.45,1749.06 1819.95,1753.21 1825.46,1756.86 1830.97,1760.64 1836.47,1763.91 1841.98,1767.37 1847.49,1770.95 1853,1773.52 1858.5,1776.51 1864.01,1779.63 1869.52,1782.54 1875.03,1785.51 1880.53,1788.76 1886.04,1792.27 1891.55,1795.9 1897.06,1799.3 1902.56,1802.81 1908.07,1806.45 1913.58,1810.24 1919.09,1813.96 1924.59,1817.59 1930.1,1821.26 1935.61,1824.74 1941.12,1828.23 1946.62,1831.91 1952.13,1835.69 1957.64,1839.17 1963.15,1842.2 1968.65,1845.34 1974.16,1848.51 1979.67,1852 1985.18,1855.33 1990.68,1858.6 1996.19,1861.57 2001.7,1864.49 2007.21,1866.71 2012.71,1868.72 2018.22,1870.9 2023.73,1873.14 2029.24,1876.02 2034.74,1878.87 2040.25,1881.86 2045.76,1884.68 2051.27,1887.68 2056.77,1890.9 2062.28,1894.18 2067.79,1897.44 2073.3,1900.64 2078.8,1903.76 2084.31,1906.91 2089.82,1910.05 2095.33,1913.16 2100.83,1916.23 2106.34,1919.27 2111.85,1922.29 2117.35,1925.25 2122.86,1928.2 2128.37,1931.11 2133.88,1934 2139.38,1936.76 2144.89,1939.45 2150.4,1942.16 2155.91,1944.82 2161.41,1947.54 2166.92,1950.21 2172.43,1952.71 2177.94,1955.29 2183.44,1957.86 2188.95,1960.43 2194.46,1962.93 2199.97,1965.44 2205.47,1967.96 2210.98,1970.46 2216.49,1972.96 2222,1975.36 2227.5,1977.56 2233.01,1979.71 2238.52,1981.9 2244.03,1984.06 2249.53,1986.23 2255.04,1988.4 2260.55,1990.62 2266.06,1992.88 2271.56,1995.13 2277.07,1997.39 2282.58,1999.63 2288.09,2001.83 2293.59,2004.03 2299.1,2006.19 2304.61,2008.34 2310.12,2010.47 2315.62,2012.57 2321.13,2014.62 2326.64,2016.62 2332.15,2018.6 2337.65,2020.49 2343.16,2022.26 2348.67,2023.9 2354.18,2025.66 2359.68,2027.4 2365.19,2029.3 2370.7,2031.21 2376.21,2033.1 2381.71,2034.98 2387.22,2036.84 2392.73,2038.67 2398.23,2040.48 2403.74,2042.26 2409.25,2044.02 2414.76,2045.72 2420.26,2047.44 2425.77,2049.16 2431.28,2050.84 2436.79,2052.48 2442.29,2053.94 2447.8,2055.42 2453.31,2057.01 2458.82,2058.61 2464.32,2060.2 2469.83,2061.79 2475.34,2063.35 2480.85,2064.92 2486.35,2066.47 2491.86,2068 2497.37,2069.51 2502.88,2071.01 2508.38,2072.49 2513.89,2073.96 2519.4,2075.43 2524.91,2076.88 2530.41,2078.32 2535.92,2079.73 2541.43,2081.04 2546.94,2082.42 2552.44,2083.76 2557.95,2085.07 2563.46,2086.29 2568.97,2087.45 2574.47,2088.63 2579.98,2089.79 2585.49,2090.89 2591,2092 2596.5,2093.09 2602.01,2094.17 2607.52,2095.35 2613.03,2096.43 2618.53,2097.33 2624.04,2098.29 2629.55,2099.2 2635.06,2100.02 2640.56,2100.92 2646.07,2101.87 2651.58,2102.67 2657.09,2103.3 2662.59,2103.99 2668.1,2104.61 2673.61,2105.22 2679.12,2105.86 2684.62,2106.43 2690.13,2106.98 2695.64,2107.65 2701.14,2108.37 2706.65,2109.1 2712.16,2109.87 2717.67,2110.65 2723.17,2111.39 2728.68,2112.1 2734.19,2112.59 2739.7,2113.16 2745.2,2113.86 2750.71,2114.68 2756.22,2115.48 2761.73,2116.31 2767.23,2117.06 2772.74,2117.78 2778.25,2118.46 2783.76,2119.12 2789.26,2119.83 2794.77,2120.49 2800.28,2121.16 2805.79,2121.87 2811.29,2122.56 2816.8,2123.28 2822.31,2124.08 2827.82,2124.85 2833.32,2125.64 2838.83,2126.42 2844.34,2127.15 2849.85,2127.9 2855.35,2128.65 2860.86,2129.42 2866.37,2130.15 2871.88,2130.86 2877.38,2131.53 2882.89,2132.22 2888.4,2132.95 2893.91,2133.65 2899.41,2134.4 2904.92,2135.09 2910.43,2135.69 2915.94,2136.39 2921.44,2137.08 2926.95,2137.68 2932.46,2138.17 2937.97,2138.59 2943.47,2139.03 2948.98,2139.51 2954.49,2139.99 2960,2140.4 2965.5,2140.81 2971.01,2141.17 2976.52,2141.56 2982.02,2141.9 2987.53,2142.3 2993.04,2142.6 2998.55,2142.91 3004.05,2143.18 3009.56,2143.56 3015.07,2143.87 3020.58,2144.17 3026.08,2144.47 3031.59,2144.79 3037.1,2145.08 3042.61,2145.35 3048.11,2145.44 3053.62,2145.53 3059.13,2145.66 3064.64,2145.67 3070.14,2145.6 "/>
</svg>
