<?xml version="1.0" encoding="utf-8"?>
<svg xmlns="http://www.w3.org/2000/svg" xmlns:xlink="http://www.w3.org/1999/xlink" width="600" height="400" viewBox="0 0 2400 1600">
<defs>
  <clipPath id="clip950">
    <rect x="0" y="0" width="2400" height="1600"/>
  </clipPath>
</defs>
<path clip-path="url(#clip950)" d="M0 1600 L2400 1600 L2400 0 L0 0  Z" fill="#ffffff" fill-rule="evenodd" fill-opacity="1"/>
<defs>
  <clipPath id="clip951">
    <rect x="480" y="0" width="1681" height="1600"/>
  </clipPath>
</defs>
<path clip-path="url(#clip950)" d="M264.287 1423.18 L2352.76 1423.18 L2352.76 47.2441 L264.287 47.2441  Z" fill="#eaeaea" fill-rule="evenodd" fill-opacity="1"/>
<defs>
  <clipPath id="clip952">
    <rect x="264" y="47" width="2089" height="1377"/>
  </clipPath>
</defs>
<polyline clip-path="url(#clip952)" style="stroke:#ffffff; stroke-linecap:round; stroke-linejoin:round; stroke-width:2; stroke-opacity:1; fill:none" points="597.041,1423.18 597.041,47.2441 "/>
<polyline clip-path="url(#clip952)" style="stroke:#ffffff; stroke-linecap:round; stroke-linejoin:round; stroke-width:2; stroke-opacity:1; fill:none" points="1144.33,1423.18 1144.33,47.2441 "/>
<polyline clip-path="url(#clip952)" style="stroke:#ffffff; stroke-linecap:round; stroke-linejoin:round; stroke-width:2; stroke-opacity:1; fill:none" points="1691.63,1423.18 1691.63,47.2441 "/>
<polyline clip-path="url(#clip952)" style="stroke:#ffffff; stroke-linecap:round; stroke-linejoin:round; stroke-width:2; stroke-opacity:1; fill:none" points="2238.92,1423.18 2238.92,47.2441 "/>
<polyline clip-path="url(#clip952)" style="stroke:#ffffff; stroke-linecap:round; stroke-linejoin:round; stroke-width:2; stroke-opacity:1; fill:none" points="264.287,1195.87 2352.76,1195.87 "/>
<polyline clip-path="url(#clip952)" style="stroke:#ffffff; stroke-linecap:round; stroke-linejoin:round; stroke-width:2; stroke-opacity:1; fill:none" points="264.287,817.657 2352.76,817.657 "/>
<polyline clip-path="url(#clip952)" style="stroke:#ffffff; stroke-linecap:round; stroke-linejoin:round; stroke-width:2; stroke-opacity:1; fill:none" points="264.287,439.444 2352.76,439.444 "/>
<polyline clip-path="url(#clip952)" style="stroke:#ffffff; stroke-linecap:round; stroke-linejoin:round; stroke-width:2; stroke-opacity:1; fill:none" points="264.287,61.2303 2352.76,61.2303 "/>
<polyline clip-path="url(#clip952)" style="stroke:#ffffff; stroke-linecap:round; stroke-linejoin:round; stroke-width:4; stroke-opacity:1; fill:none" points="323.395,1423.18 323.395,47.2441 "/>
<polyline clip-path="url(#clip952)" style="stroke:#ffffff; stroke-linecap:round; stroke-linejoin:round; stroke-width:4; stroke-opacity:1; fill:none" points="870.688,1423.18 870.688,47.2441 "/>
<polyline clip-path="url(#clip952)" style="stroke:#ffffff; stroke-linecap:round; stroke-linejoin:round; stroke-width:4; stroke-opacity:1; fill:none" points="1417.98,1423.18 1417.98,47.2441 "/>
<polyline clip-path="url(#clip952)" style="stroke:#ffffff; stroke-linecap:round; stroke-linejoin:round; stroke-width:4; stroke-opacity:1; fill:none" points="1965.27,1423.18 1965.27,47.2441 "/>
<polyline clip-path="url(#clip952)" style="stroke:#ffffff; stroke-linecap:round; stroke-linejoin:round; stroke-width:4; stroke-opacity:1; fill:none" points="264.287,1384.98 2352.76,1384.98 "/>
<polyline clip-path="url(#clip952)" style="stroke:#ffffff; stroke-linecap:round; stroke-linejoin:round; stroke-width:4; stroke-opacity:1; fill:none" points="264.287,1006.76 2352.76,1006.76 "/>
<polyline clip-path="url(#clip952)" style="stroke:#ffffff; stroke-linecap:round; stroke-linejoin:round; stroke-width:4; stroke-opacity:1; fill:none" points="264.287,628.55 2352.76,628.55 "/>
<polyline clip-path="url(#clip952)" style="stroke:#ffffff; stroke-linecap:round; stroke-linejoin:round; stroke-width:4; stroke-opacity:1; fill:none" points="264.287,250.337 2352.76,250.337 "/>
<polyline clip-path="url(#clip950)" style="stroke:#ffffff; stroke-linecap:round; stroke-linejoin:round; stroke-width:4; stroke-opacity:1; fill:none" points="264.287,1423.18 2352.76,1423.18 "/>
<polyline clip-path="url(#clip950)" style="stroke:#333333; stroke-linecap:round; stroke-linejoin:round; stroke-width:4; stroke-opacity:1; fill:none" points="323.395,1423.18 323.395,1442.08 "/>
<polyline clip-path="url(#clip950)" style="stroke:#333333; stroke-linecap:round; stroke-linejoin:round; stroke-width:4; stroke-opacity:1; fill:none" points="870.688,1423.18 870.688,1442.08 "/>
<polyline clip-path="url(#clip950)" style="stroke:#333333; stroke-linecap:round; stroke-linejoin:round; stroke-width:4; stroke-opacity:1; fill:none" points="1417.98,1423.18 1417.98,1442.08 "/>
<polyline clip-path="url(#clip950)" style="stroke:#333333; stroke-linecap:round; stroke-linejoin:round; stroke-width:4; stroke-opacity:1; fill:none" points="1965.27,1423.18 1965.27,1442.08 "/>
<polyline clip-path="url(#clip950)" style="stroke:#333333; stroke-linecap:round; stroke-linejoin:round; stroke-width:4; stroke-opacity:1; fill:none" points="597.041,1423.18 597.041,1432.63 "/>
<polyline clip-path="url(#clip950)" style="stroke:#333333; stroke-linecap:round; stroke-linejoin:round; stroke-width:4; stroke-opacity:1; fill:none" points="1144.33,1423.18 1144.33,1432.63 "/>
<polyline clip-path="url(#clip950)" style="stroke:#333333; stroke-linecap:round; stroke-linejoin:round; stroke-width:4; stroke-opacity:1; fill:none" points="1691.63,1423.18 1691.63,1432.63 "/>
<polyline clip-path="url(#clip950)" style="stroke:#333333; stroke-linecap:round; stroke-linejoin:round; stroke-width:4; stroke-opacity:1; fill:none" points="2238.92,1423.18 2238.92,1432.63 "/>
<path clip-path="url(#clip950)" d="M323.395 1463.7 Q319.784 1463.7 317.955 1467.26 Q316.15 1470.8 316.15 1477.93 Q316.15 1485.04 317.955 1488.61 Q319.784 1492.15 323.395 1492.15 Q327.029 1492.15 328.835 1488.61 Q330.663 1485.04 330.663 1477.93 Q330.663 1470.8 328.835 1467.26 Q327.029 1463.7 323.395 1463.7 M323.395 1459.99 Q329.205 1459.99 332.261 1464.6 Q335.339 1469.18 335.339 1477.93 Q335.339 1486.66 332.261 1491.27 Q329.205 1495.85 323.395 1495.85 Q317.585 1495.85 314.506 1491.27 Q311.451 1486.66 311.451 1477.93 Q311.451 1469.18 314.506 1464.6 Q317.585 1459.99 323.395 1459.99 Z" fill="#4c4c4c" fill-rule="nonzero" fill-opacity="1" /><path clip-path="url(#clip950)" d="M830.294 1491.24 L837.933 1491.24 L837.933 1464.88 L829.623 1466.55 L829.623 1462.29 L837.887 1460.62 L842.563 1460.62 L842.563 1491.24 L850.202 1491.24 L850.202 1495.18 L830.294 1495.18 L830.294 1491.24 Z" fill="#4c4c4c" fill-rule="nonzero" fill-opacity="1" /><path clip-path="url(#clip950)" d="M869.646 1463.7 Q866.035 1463.7 864.206 1467.26 Q862.401 1470.8 862.401 1477.93 Q862.401 1485.04 864.206 1488.61 Q866.035 1492.15 869.646 1492.15 Q873.28 1492.15 875.086 1488.61 Q876.914 1485.04 876.914 1477.93 Q876.914 1470.8 875.086 1467.26 Q873.28 1463.7 869.646 1463.7 M869.646 1459.99 Q875.456 1459.99 878.512 1464.6 Q881.59 1469.18 881.59 1477.93 Q881.59 1486.66 878.512 1491.27 Q875.456 1495.85 869.646 1495.85 Q863.836 1495.85 860.757 1491.27 Q857.701 1486.66 857.701 1477.93 Q857.701 1469.18 860.757 1464.6 Q863.836 1459.99 869.646 1459.99 Z" fill="#4c4c4c" fill-rule="nonzero" fill-opacity="1" /><path clip-path="url(#clip950)" d="M899.808 1463.7 Q896.197 1463.7 894.368 1467.26 Q892.562 1470.8 892.562 1477.93 Q892.562 1485.04 894.368 1488.61 Q896.197 1492.15 899.808 1492.15 Q903.442 1492.15 905.248 1488.61 Q907.076 1485.04 907.076 1477.93 Q907.076 1470.8 905.248 1467.26 Q903.442 1463.7 899.808 1463.7 M899.808 1459.99 Q905.618 1459.99 908.673 1464.6 Q911.752 1469.18 911.752 1477.93 Q911.752 1486.66 908.673 1491.27 Q905.618 1495.85 899.808 1495.85 Q893.998 1495.85 890.919 1491.27 Q887.863 1486.66 887.863 1477.93 Q887.863 1469.18 890.919 1464.6 Q893.998 1459.99 899.808 1459.99 Z" fill="#4c4c4c" fill-rule="nonzero" fill-opacity="1" /><path clip-path="url(#clip950)" d="M1381.67 1491.24 L1397.99 1491.24 L1397.99 1495.18 L1376.05 1495.18 L1376.05 1491.24 Q1378.71 1488.49 1383.29 1483.86 Q1387.9 1479.21 1389.08 1477.87 Q1391.33 1475.34 1392.2 1473.61 Q1393.11 1471.85 1393.11 1470.16 Q1393.11 1467.4 1391.16 1465.67 Q1389.24 1463.93 1386.14 1463.93 Q1383.94 1463.93 1381.49 1464.69 Q1379.06 1465.46 1376.28 1467.01 L1376.28 1462.29 Q1379.1 1461.15 1381.56 1460.57 Q1384.01 1459.99 1386.05 1459.99 Q1391.42 1459.99 1394.61 1462.68 Q1397.81 1465.37 1397.81 1469.86 Q1397.81 1471.99 1397 1473.91 Q1396.21 1475.8 1394.1 1478.4 Q1393.52 1479.07 1390.42 1482.29 Q1387.32 1485.48 1381.67 1491.24 Z" fill="#4c4c4c" fill-rule="nonzero" fill-opacity="1" /><path clip-path="url(#clip950)" d="M1417.81 1463.7 Q1414.2 1463.7 1412.37 1467.26 Q1410.56 1470.8 1410.56 1477.93 Q1410.56 1485.04 1412.37 1488.61 Q1414.2 1492.15 1417.81 1492.15 Q1421.44 1492.15 1423.25 1488.61 Q1425.08 1485.04 1425.08 1477.93 Q1425.08 1470.8 1423.25 1467.26 Q1421.44 1463.7 1417.81 1463.7 M1417.81 1459.99 Q1423.62 1459.99 1426.67 1464.6 Q1429.75 1469.18 1429.75 1477.93 Q1429.75 1486.66 1426.67 1491.27 Q1423.62 1495.85 1417.81 1495.85 Q1412 1495.85 1408.92 1491.27 Q1405.86 1486.66 1405.86 1477.93 Q1405.86 1469.18 1408.92 1464.6 Q1412 1459.99 1417.81 1459.99 Z" fill="#4c4c4c" fill-rule="nonzero" fill-opacity="1" /><path clip-path="url(#clip950)" d="M1447.97 1463.7 Q1444.36 1463.7 1442.53 1467.26 Q1440.72 1470.8 1440.72 1477.93 Q1440.72 1485.04 1442.53 1488.61 Q1444.36 1492.15 1447.97 1492.15 Q1451.6 1492.15 1453.41 1488.61 Q1455.24 1485.04 1455.24 1477.93 Q1455.24 1470.8 1453.41 1467.26 Q1451.6 1463.7 1447.97 1463.7 M1447.97 1459.99 Q1453.78 1459.99 1456.83 1464.6 Q1459.91 1469.18 1459.91 1477.93 Q1459.91 1486.66 1456.83 1491.27 Q1453.78 1495.85 1447.97 1495.85 Q1442.16 1495.85 1439.08 1491.27 Q1436.02 1486.66 1436.02 1477.93 Q1436.02 1469.18 1439.08 1464.6 Q1442.16 1459.99 1447.97 1459.99 Z" fill="#4c4c4c" fill-rule="nonzero" fill-opacity="1" /><path clip-path="url(#clip950)" d="M1939.03 1476.55 Q1942.39 1477.26 1944.27 1479.53 Q1946.16 1481.8 1946.16 1485.13 Q1946.16 1490.25 1942.65 1493.05 Q1939.13 1495.85 1932.65 1495.85 Q1930.47 1495.85 1928.15 1495.41 Q1925.86 1494.99 1923.41 1494.14 L1923.41 1489.62 Q1925.35 1490.76 1927.67 1491.34 Q1929.98 1491.92 1932.51 1491.92 Q1936.9 1491.92 1939.2 1490.18 Q1941.51 1488.44 1941.51 1485.13 Q1941.51 1482.08 1939.36 1480.37 Q1937.23 1478.63 1933.41 1478.63 L1929.38 1478.63 L1929.38 1474.79 L1933.59 1474.79 Q1937.04 1474.79 1938.87 1473.42 Q1940.7 1472.03 1940.7 1469.44 Q1940.7 1466.78 1938.8 1465.37 Q1936.93 1463.93 1933.41 1463.93 Q1931.49 1463.93 1929.29 1464.35 Q1927.09 1464.76 1924.45 1465.64 L1924.45 1461.48 Q1927.11 1460.74 1929.43 1460.37 Q1931.77 1459.99 1933.83 1459.99 Q1939.15 1459.99 1942.25 1462.43 Q1945.35 1464.83 1945.35 1468.95 Q1945.35 1471.82 1943.71 1473.81 Q1942.07 1475.78 1939.03 1476.55 Z" fill="#4c4c4c" fill-rule="nonzero" fill-opacity="1" /><path clip-path="url(#clip950)" d="M1965.03 1463.7 Q1961.42 1463.7 1959.59 1467.26 Q1957.78 1470.8 1957.78 1477.93 Q1957.78 1485.04 1959.59 1488.61 Q1961.42 1492.15 1965.03 1492.15 Q1968.66 1492.15 1970.47 1488.61 Q1972.3 1485.04 1972.3 1477.93 Q1972.3 1470.8 1970.47 1467.26 Q1968.66 1463.7 1965.03 1463.7 M1965.03 1459.99 Q1970.84 1459.99 1973.9 1464.6 Q1976.97 1469.18 1976.97 1477.93 Q1976.97 1486.66 1973.9 1491.27 Q1970.84 1495.85 1965.03 1495.85 Q1959.22 1495.85 1956.14 1491.27 Q1953.09 1486.66 1953.09 1477.93 Q1953.09 1469.18 1956.14 1464.6 Q1959.22 1459.99 1965.03 1459.99 Z" fill="#4c4c4c" fill-rule="nonzero" fill-opacity="1" /><path clip-path="url(#clip950)" d="M1995.19 1463.7 Q1991.58 1463.7 1989.75 1467.26 Q1987.95 1470.8 1987.95 1477.93 Q1987.95 1485.04 1989.75 1488.61 Q1991.58 1492.15 1995.19 1492.15 Q1998.83 1492.15 2000.63 1488.61 Q2002.46 1485.04 2002.46 1477.93 Q2002.46 1470.8 2000.63 1467.26 Q1998.83 1463.7 1995.19 1463.7 M1995.19 1459.99 Q2001 1459.99 2004.06 1464.6 Q2007.14 1469.18 2007.14 1477.93 Q2007.14 1486.66 2004.06 1491.27 Q2001 1495.85 1995.19 1495.85 Q1989.38 1495.85 1986.3 1491.27 Q1983.25 1486.66 1983.25 1477.93 Q1983.25 1469.18 1986.3 1464.6 Q1989.38 1459.99 1995.19 1459.99 Z" fill="#4c4c4c" fill-rule="nonzero" fill-opacity="1" /><path clip-path="url(#clip950)" d="M1136.03 1522.27 L1136.03 1532.4 L1148.09 1532.4 L1148.09 1536.95 L1136.03 1536.95 L1136.03 1556.3 Q1136.03 1560.66 1137.2 1561.9 Q1138.41 1563.14 1142.07 1563.14 L1148.09 1563.14 L1148.09 1568.04 L1142.07 1568.04 Q1135.29 1568.04 1132.72 1565.53 Q1130.14 1562.98 1130.14 1556.3 L1130.14 1536.95 L1125.84 1536.95 L1125.84 1532.4 L1130.14 1532.4 L1130.14 1522.27 L1136.03 1522.27 Z" fill="#000000" fill-rule="nonzero" fill-opacity="1" /><path clip-path="url(#clip950)" d="M1155.79 1532.4 L1161.65 1532.4 L1161.65 1568.04 L1155.79 1568.04 L1155.79 1532.4 M1155.79 1518.52 L1161.65 1518.52 L1161.65 1525.93 L1155.79 1525.93 L1155.79 1518.52 Z" fill="#000000" fill-rule="nonzero" fill-opacity="1" /><path clip-path="url(#clip950)" d="M1201.66 1539.24 Q1203.85 1535.29 1206.91 1533.41 Q1209.96 1531.54 1214.1 1531.54 Q1219.67 1531.54 1222.7 1535.45 Q1225.72 1539.33 1225.72 1546.53 L1225.72 1568.04 L1219.83 1568.04 L1219.83 1546.72 Q1219.83 1541.59 1218.02 1539.11 Q1216.2 1536.63 1212.48 1536.63 Q1207.93 1536.63 1205.29 1539.65 Q1202.64 1542.68 1202.64 1547.9 L1202.64 1568.04 L1196.76 1568.04 L1196.76 1546.72 Q1196.76 1541.56 1194.94 1539.11 Q1193.13 1536.63 1189.34 1536.63 Q1184.85 1536.63 1182.21 1539.68 Q1179.57 1542.71 1179.57 1547.9 L1179.57 1568.04 L1173.68 1568.04 L1173.68 1532.4 L1179.57 1532.4 L1179.57 1537.93 Q1181.57 1534.66 1184.37 1533.1 Q1187.18 1531.54 1191.03 1531.54 Q1194.91 1531.54 1197.62 1533.51 Q1200.35 1535.48 1201.66 1539.24 Z" fill="#000000" fill-rule="nonzero" fill-opacity="1" /><path clip-path="url(#clip950)" d="M1267.89 1548.76 L1267.89 1551.62 L1240.97 1551.62 Q1241.35 1557.67 1244.59 1560.85 Q1247.87 1564 1253.7 1564 Q1257.07 1564 1260.22 1563.17 Q1263.4 1562.35 1266.52 1560.69 L1266.52 1566.23 Q1263.37 1567.57 1260.06 1568.27 Q1256.75 1568.97 1253.35 1568.97 Q1244.82 1568.97 1239.82 1564 Q1234.85 1559.04 1234.85 1550.57 Q1234.85 1541.82 1239.57 1536.69 Q1244.31 1531.54 1252.33 1531.54 Q1259.52 1531.54 1263.69 1536.18 Q1267.89 1540.8 1267.89 1548.76 M1262.04 1547.04 Q1261.97 1542.23 1259.33 1539.37 Q1256.72 1536.5 1252.39 1536.5 Q1247.49 1536.5 1244.53 1539.27 Q1241.6 1542.04 1241.16 1547.07 L1262.04 1547.04 Z" fill="#000000" fill-rule="nonzero" fill-opacity="1" /><path clip-path="url(#clip950)" d="M1312.29 1518.58 Q1308.03 1525.9 1305.96 1533.06 Q1303.89 1540.23 1303.89 1547.58 Q1303.89 1554.93 1305.96 1562.16 Q1308.06 1569.35 1312.29 1576.64 L1307.2 1576.64 Q1302.43 1569.16 1300.04 1561.93 Q1297.68 1554.71 1297.68 1547.58 Q1297.68 1540.48 1300.04 1533.29 Q1302.39 1526.09 1307.2 1518.58 L1312.29 1518.58 Z" fill="#000000" fill-rule="nonzero" fill-opacity="1" /><path clip-path="url(#clip950)" d="M1347.11 1537.81 L1347.11 1518.52 L1352.97 1518.52 L1352.97 1568.04 L1347.11 1568.04 L1347.11 1562.7 Q1345.27 1565.88 1342.43 1567.44 Q1339.63 1568.97 1335.69 1568.97 Q1329.23 1568.97 1325.15 1563.81 Q1321.11 1558.65 1321.11 1550.25 Q1321.11 1541.85 1325.15 1536.69 Q1329.23 1531.54 1335.69 1531.54 Q1339.63 1531.54 1342.43 1533.1 Q1345.27 1534.62 1347.11 1537.81 M1327.16 1550.25 Q1327.16 1556.71 1329.8 1560.4 Q1332.47 1564.07 1337.12 1564.07 Q1341.77 1564.07 1344.44 1560.4 Q1347.11 1556.71 1347.11 1550.25 Q1347.11 1543.79 1344.44 1540.13 Q1341.77 1536.44 1337.12 1536.44 Q1332.47 1536.44 1329.8 1540.13 Q1327.16 1543.79 1327.16 1550.25 Z" fill="#000000" fill-rule="nonzero" fill-opacity="1" /><path clip-path="url(#clip950)" d="M1381.23 1550.12 Q1374.14 1550.12 1371.4 1551.75 Q1368.66 1553.37 1368.66 1557.29 Q1368.66 1560.4 1370.7 1562.25 Q1372.77 1564.07 1376.3 1564.07 Q1381.17 1564.07 1384.1 1560.63 Q1387.06 1557.16 1387.06 1551.43 L1387.06 1550.12 L1381.23 1550.12 M1392.91 1547.71 L1392.91 1568.04 L1387.06 1568.04 L1387.06 1562.63 Q1385.05 1565.88 1382.06 1567.44 Q1379.07 1568.97 1374.74 1568.97 Q1369.27 1568.97 1366.02 1565.91 Q1362.81 1562.82 1362.81 1557.67 Q1362.81 1551.65 1366.82 1548.6 Q1370.86 1545.54 1378.85 1545.54 L1387.06 1545.54 L1387.06 1544.97 Q1387.06 1540.93 1384.38 1538.73 Q1381.74 1536.5 1376.94 1536.5 Q1373.88 1536.5 1370.99 1537.23 Q1368.09 1537.97 1365.42 1539.43 L1365.42 1534.02 Q1368.63 1532.78 1371.65 1532.17 Q1374.68 1531.54 1377.54 1531.54 Q1385.28 1531.54 1389.1 1535.55 Q1392.91 1539.56 1392.91 1547.71 Z" fill="#000000" fill-rule="nonzero" fill-opacity="1" /><path clip-path="url(#clip950)" d="M1419.81 1571.35 Q1417.33 1577.72 1414.97 1579.66 Q1412.62 1581.6 1408.67 1581.6 L1403.99 1581.6 L1403.99 1576.7 L1407.43 1576.7 Q1409.85 1576.7 1411.18 1575.56 Q1412.52 1574.41 1414.14 1570.14 L1415.19 1567.47 L1400.78 1532.4 L1406.98 1532.4 L1418.12 1560.28 L1429.26 1532.4 L1435.47 1532.4 L1419.81 1571.35 Z" fill="#000000" fill-rule="nonzero" fill-opacity="1" /><path clip-path="url(#clip950)" d="M1466.28 1533.45 L1466.28 1538.98 Q1463.8 1537.71 1461.12 1537.07 Q1458.45 1536.44 1455.59 1536.44 Q1451.22 1536.44 1449.03 1537.77 Q1446.86 1539.11 1446.86 1541.79 Q1446.86 1543.82 1448.42 1545 Q1449.98 1546.15 1454.69 1547.2 L1456.7 1547.64 Q1462.94 1548.98 1465.55 1551.43 Q1468.19 1553.85 1468.19 1558.21 Q1468.19 1563.17 1464.24 1566.07 Q1460.33 1568.97 1453.45 1568.97 Q1450.59 1568.97 1447.47 1568.39 Q1444.38 1567.85 1440.94 1566.74 L1440.94 1560.69 Q1444.19 1562.38 1447.34 1563.24 Q1450.49 1564.07 1453.58 1564.07 Q1457.72 1564.07 1459.95 1562.66 Q1462.17 1561.23 1462.17 1558.65 Q1462.17 1556.27 1460.55 1554.99 Q1458.96 1553.72 1453.52 1552.54 L1451.48 1552.07 Q1446.04 1550.92 1443.62 1548.56 Q1441.2 1546.18 1441.2 1542.04 Q1441.2 1537.01 1444.76 1534.27 Q1448.33 1531.54 1454.89 1531.54 Q1458.13 1531.54 1461 1532.01 Q1463.86 1532.49 1466.28 1533.45 Z" fill="#000000" fill-rule="nonzero" fill-opacity="1" /><path clip-path="url(#clip950)" d="M1476.59 1518.58 L1481.68 1518.58 Q1486.46 1526.09 1488.81 1533.29 Q1491.2 1540.48 1491.2 1547.58 Q1491.2 1554.71 1488.81 1561.93 Q1486.46 1569.16 1481.68 1576.64 L1476.59 1576.64 Q1480.83 1569.35 1482.89 1562.16 Q1484.99 1554.93 1484.99 1547.58 Q1484.99 1540.23 1482.89 1533.06 Q1480.83 1525.9 1476.59 1518.58 Z" fill="#000000" fill-rule="nonzero" fill-opacity="1" /><polyline clip-path="url(#clip950)" style="stroke:#ffffff; stroke-linecap:round; stroke-linejoin:round; stroke-width:4; stroke-opacity:1; fill:none" points="264.287,1423.18 264.287,47.2441 "/>
<polyline clip-path="url(#clip950)" style="stroke:#333333; stroke-linecap:round; stroke-linejoin:round; stroke-width:4; stroke-opacity:1; fill:none" points="264.287,1384.98 245.39,1384.98 "/>
<polyline clip-path="url(#clip950)" style="stroke:#333333; stroke-linecap:round; stroke-linejoin:round; stroke-width:4; stroke-opacity:1; fill:none" points="264.287,1006.76 245.39,1006.76 "/>
<polyline clip-path="url(#clip950)" style="stroke:#333333; stroke-linecap:round; stroke-linejoin:round; stroke-width:4; stroke-opacity:1; fill:none" points="264.287,628.55 245.39,628.55 "/>
<polyline clip-path="url(#clip950)" style="stroke:#333333; stroke-linecap:round; stroke-linejoin:round; stroke-width:4; stroke-opacity:1; fill:none" points="264.287,250.337 245.39,250.337 "/>
<polyline clip-path="url(#clip950)" style="stroke:#333333; stroke-linecap:round; stroke-linejoin:round; stroke-width:4; stroke-opacity:1; fill:none" points="264.287,1195.87 254.839,1195.87 "/>
<polyline clip-path="url(#clip950)" style="stroke:#333333; stroke-linecap:round; stroke-linejoin:round; stroke-width:4; stroke-opacity:1; fill:none" points="264.287,817.657 254.839,817.657 "/>
<polyline clip-path="url(#clip950)" style="stroke:#333333; stroke-linecap:round; stroke-linejoin:round; stroke-width:4; stroke-opacity:1; fill:none" points="264.287,439.444 254.839,439.444 "/>
<polyline clip-path="url(#clip950)" style="stroke:#333333; stroke-linecap:round; stroke-linejoin:round; stroke-width:4; stroke-opacity:1; fill:none" points="264.287,61.2303 254.839,61.2303 "/>
<path clip-path="url(#clip950)" d="M198.343 1370.78 Q194.732 1370.78 192.903 1374.34 Q191.098 1377.88 191.098 1385.01 Q191.098 1392.12 192.903 1395.68 Q194.732 1399.22 198.343 1399.22 Q201.977 1399.22 203.783 1395.68 Q205.611 1392.12 205.611 1385.01 Q205.611 1377.88 203.783 1374.34 Q201.977 1370.78 198.343 1370.78 M198.343 1367.07 Q204.153 1367.07 207.209 1371.68 Q210.287 1376.26 210.287 1385.01 Q210.287 1393.74 207.209 1398.34 Q204.153 1402.93 198.343 1402.93 Q192.533 1402.93 189.454 1398.34 Q186.399 1393.74 186.399 1385.01 Q186.399 1376.26 189.454 1371.68 Q192.533 1367.07 198.343 1367.07 Z" fill="#4c4c4c" fill-rule="nonzero" fill-opacity="1" /><path clip-path="url(#clip950)" d="M98.6676 1020.11 L106.306 1020.11 L106.306 993.743 L97.9963 995.409 L97.9963 991.15 L106.26 989.483 L110.936 989.483 L110.936 1020.11 L118.575 1020.11 L118.575 1024.04 L98.6676 1024.04 L98.6676 1020.11 Z" fill="#4c4c4c" fill-rule="nonzero" fill-opacity="1" /><path clip-path="url(#clip950)" d="M138.019 992.562 Q134.408 992.562 132.579 996.127 Q130.774 999.669 130.774 1006.8 Q130.774 1013.9 132.579 1017.47 Q134.408 1021.01 138.019 1021.01 Q141.653 1021.01 143.459 1017.47 Q145.288 1013.9 145.288 1006.8 Q145.288 999.669 143.459 996.127 Q141.653 992.562 138.019 992.562 M138.019 988.858 Q143.829 988.858 146.885 993.465 Q149.964 998.048 149.964 1006.8 Q149.964 1015.52 146.885 1020.13 Q143.829 1024.71 138.019 1024.71 Q132.209 1024.71 129.13 1020.13 Q126.075 1015.52 126.075 1006.8 Q126.075 998.048 129.13 993.465 Q132.209 988.858 138.019 988.858 Z" fill="#4c4c4c" fill-rule="nonzero" fill-opacity="1" /><path clip-path="url(#clip950)" d="M168.181 992.562 Q164.57 992.562 162.741 996.127 Q160.936 999.669 160.936 1006.8 Q160.936 1013.9 162.741 1017.47 Q164.57 1021.01 168.181 1021.01 Q171.815 1021.01 173.621 1017.47 Q175.45 1013.9 175.45 1006.8 Q175.45 999.669 173.621 996.127 Q171.815 992.562 168.181 992.562 M168.181 988.858 Q173.991 988.858 177.047 993.465 Q180.125 998.048 180.125 1006.8 Q180.125 1015.52 177.047 1020.13 Q173.991 1024.71 168.181 1024.71 Q162.371 1024.71 159.292 1020.13 Q156.237 1015.52 156.237 1006.8 Q156.237 998.048 159.292 993.465 Q162.371 988.858 168.181 988.858 Z" fill="#4c4c4c" fill-rule="nonzero" fill-opacity="1" /><path clip-path="url(#clip950)" d="M198.343 992.562 Q194.732 992.562 192.903 996.127 Q191.098 999.669 191.098 1006.8 Q191.098 1013.9 192.903 1017.47 Q194.732 1021.01 198.343 1021.01 Q201.977 1021.01 203.783 1017.47 Q205.611 1013.9 205.611 1006.8 Q205.611 999.669 203.783 996.127 Q201.977 992.562 198.343 992.562 M198.343 988.858 Q204.153 988.858 207.209 993.465 Q210.287 998.048 210.287 1006.8 Q210.287 1015.52 207.209 1020.13 Q204.153 1024.71 198.343 1024.71 Q192.533 1024.71 189.454 1020.13 Q186.399 1015.52 186.399 1006.8 Q186.399 998.048 189.454 993.465 Q192.533 988.858 198.343 988.858 Z" fill="#4c4c4c" fill-rule="nonzero" fill-opacity="1" /><path clip-path="url(#clip950)" d="M101.885 641.895 L118.204 641.895 L118.204 645.83 L96.2602 645.83 L96.2602 641.895 Q98.9222 639.14 103.505 634.511 Q108.112 629.858 109.292 628.515 Q111.538 625.992 112.417 624.256 Q113.32 622.497 113.32 620.807 Q113.32 618.053 111.376 616.316 Q109.455 614.58 106.353 614.58 Q104.154 614.58 101.7 615.344 Q99.2694 616.108 96.4916 617.659 L96.4916 612.937 Q99.3157 611.803 101.769 611.224 Q104.223 610.645 106.26 610.645 Q111.63 610.645 114.825 613.33 Q118.019 616.016 118.019 620.506 Q118.019 622.636 117.209 624.557 Q116.422 626.455 114.316 629.048 Q113.737 629.719 110.635 632.937 Q107.533 636.131 101.885 641.895 Z" fill="#4c4c4c" fill-rule="nonzero" fill-opacity="1" /><path clip-path="url(#clip950)" d="M138.019 614.349 Q134.408 614.349 132.579 617.914 Q130.774 621.455 130.774 628.585 Q130.774 635.691 132.579 639.256 Q134.408 642.798 138.019 642.798 Q141.653 642.798 143.459 639.256 Q145.288 635.691 145.288 628.585 Q145.288 621.455 143.459 617.914 Q141.653 614.349 138.019 614.349 M138.019 610.645 Q143.829 610.645 146.885 615.252 Q149.964 619.835 149.964 628.585 Q149.964 637.312 146.885 641.918 Q143.829 646.501 138.019 646.501 Q132.209 646.501 129.13 641.918 Q126.075 637.312 126.075 628.585 Q126.075 619.835 129.13 615.252 Q132.209 610.645 138.019 610.645 Z" fill="#4c4c4c" fill-rule="nonzero" fill-opacity="1" /><path clip-path="url(#clip950)" d="M168.181 614.349 Q164.57 614.349 162.741 617.914 Q160.936 621.455 160.936 628.585 Q160.936 635.691 162.741 639.256 Q164.57 642.798 168.181 642.798 Q171.815 642.798 173.621 639.256 Q175.45 635.691 175.45 628.585 Q175.45 621.455 173.621 617.914 Q171.815 614.349 168.181 614.349 M168.181 610.645 Q173.991 610.645 177.047 615.252 Q180.125 619.835 180.125 628.585 Q180.125 637.312 177.047 641.918 Q173.991 646.501 168.181 646.501 Q162.371 646.501 159.292 641.918 Q156.237 637.312 156.237 628.585 Q156.237 619.835 159.292 615.252 Q162.371 610.645 168.181 610.645 Z" fill="#4c4c4c" fill-rule="nonzero" fill-opacity="1" /><path clip-path="url(#clip950)" d="M198.343 614.349 Q194.732 614.349 192.903 617.914 Q191.098 621.455 191.098 628.585 Q191.098 635.691 192.903 639.256 Q194.732 642.798 198.343 642.798 Q201.977 642.798 203.783 639.256 Q205.611 635.691 205.611 628.585 Q205.611 621.455 203.783 617.914 Q201.977 614.349 198.343 614.349 M198.343 610.645 Q204.153 610.645 207.209 615.252 Q210.287 619.835 210.287 628.585 Q210.287 637.312 207.209 641.918 Q204.153 646.501 198.343 646.501 Q192.533 646.501 189.454 641.918 Q186.399 637.312 186.399 628.585 Q186.399 619.835 189.454 615.252 Q192.533 610.645 198.343 610.645 Z" fill="#4c4c4c" fill-rule="nonzero" fill-opacity="1" /><path clip-path="url(#clip950)" d="M112.024 248.983 Q115.38 249.7 117.255 251.969 Q119.154 254.237 119.154 257.571 Q119.154 262.686 115.635 265.487 Q112.117 268.288 105.635 268.288 Q103.459 268.288 101.144 267.848 Q98.8527 267.432 96.399 266.575 L96.399 262.061 Q98.3435 263.196 100.658 263.774 Q102.973 264.353 105.496 264.353 Q109.894 264.353 112.186 262.617 Q114.501 260.881 114.501 257.571 Q114.501 254.515 112.348 252.802 Q110.218 251.066 106.399 251.066 L102.371 251.066 L102.371 247.224 L106.584 247.224 Q110.033 247.224 111.862 245.858 Q113.691 244.469 113.691 241.876 Q113.691 239.214 111.792 237.802 Q109.917 236.367 106.399 236.367 Q104.478 236.367 102.279 236.784 Q100.08 237.2 97.4407 238.08 L97.4407 233.913 Q100.103 233.173 102.418 232.802 Q104.755 232.432 106.816 232.432 Q112.14 232.432 115.242 234.862 Q118.343 237.27 118.343 241.39 Q118.343 244.261 116.7 246.251 Q115.056 248.219 112.024 248.983 Z" fill="#4c4c4c" fill-rule="nonzero" fill-opacity="1" /><path clip-path="url(#clip950)" d="M138.019 236.136 Q134.408 236.136 132.579 239.7 Q130.774 243.242 130.774 250.372 Q130.774 257.478 132.579 261.043 Q134.408 264.585 138.019 264.585 Q141.653 264.585 143.459 261.043 Q145.288 257.478 145.288 250.372 Q145.288 243.242 143.459 239.7 Q141.653 236.136 138.019 236.136 M138.019 232.432 Q143.829 232.432 146.885 237.038 Q149.964 241.622 149.964 250.372 Q149.964 259.098 146.885 263.705 Q143.829 268.288 138.019 268.288 Q132.209 268.288 129.13 263.705 Q126.075 259.098 126.075 250.372 Q126.075 241.622 129.13 237.038 Q132.209 232.432 138.019 232.432 Z" fill="#4c4c4c" fill-rule="nonzero" fill-opacity="1" /><path clip-path="url(#clip950)" d="M168.181 236.136 Q164.57 236.136 162.741 239.7 Q160.936 243.242 160.936 250.372 Q160.936 257.478 162.741 261.043 Q164.57 264.585 168.181 264.585 Q171.815 264.585 173.621 261.043 Q175.45 257.478 175.45 250.372 Q175.45 243.242 173.621 239.7 Q171.815 236.136 168.181 236.136 M168.181 232.432 Q173.991 232.432 177.047 237.038 Q180.125 241.622 180.125 250.372 Q180.125 259.098 177.047 263.705 Q173.991 268.288 168.181 268.288 Q162.371 268.288 159.292 263.705 Q156.237 259.098 156.237 250.372 Q156.237 241.622 159.292 237.038 Q162.371 232.432 168.181 232.432 Z" fill="#4c4c4c" fill-rule="nonzero" fill-opacity="1" /><path clip-path="url(#clip950)" d="M198.343 236.136 Q194.732 236.136 192.903 239.7 Q191.098 243.242 191.098 250.372 Q191.098 257.478 192.903 261.043 Q194.732 264.585 198.343 264.585 Q201.977 264.585 203.783 261.043 Q205.611 257.478 205.611 250.372 Q205.611 243.242 203.783 239.7 Q201.977 236.136 198.343 236.136 M198.343 232.432 Q204.153 232.432 207.209 237.038 Q210.287 241.622 210.287 250.372 Q210.287 259.098 207.209 263.705 Q204.153 268.288 198.343 268.288 Q192.533 268.288 189.454 263.705 Q186.399 259.098 186.399 250.372 Q186.399 241.622 189.454 237.038 Q192.533 232.432 198.343 232.432 Z" fill="#4c4c4c" fill-rule="nonzero" fill-opacity="1" /><path clip-path="url(#clip950)" d="M58.657 897.028 L77.5631 897.028 L77.5631 902.917 L28.3562 902.917 L28.3562 897.028 L33.7671 897.028 Q30.5842 895.182 29.0564 892.381 Q27.4968 889.549 27.4968 885.634 Q27.4968 879.141 32.6531 875.098 Q37.8093 871.024 46.212 871.024 Q54.6147 871.024 59.771 875.098 Q64.9272 879.141 64.9272 885.634 Q64.9272 889.549 63.3994 892.381 Q61.8398 895.182 58.657 897.028 M46.212 877.104 Q39.7508 877.104 36.0905 879.777 Q32.3984 882.419 32.3984 887.066 Q32.3984 891.713 36.0905 894.386 Q39.7508 897.028 46.212 897.028 Q52.6732 897.028 56.3653 894.386 Q60.0256 891.713 60.0256 887.066 Q60.0256 882.419 56.3653 879.777 Q52.6732 877.104 46.212 877.104 Z" fill="#000000" fill-rule="nonzero" fill-opacity="1" /><path clip-path="url(#clip950)" d="M32.4621 847.503 Q32.4621 852.214 36.1542 854.951 Q39.8145 857.688 46.212 857.688 Q52.6095 857.688 56.3017 854.983 Q59.9619 852.245 59.9619 847.503 Q59.9619 842.824 56.2698 840.087 Q52.5777 837.35 46.212 837.35 Q39.8781 837.35 36.186 840.087 Q32.4621 842.824 32.4621 847.503 M27.4968 847.503 Q27.4968 839.864 32.4621 835.504 Q37.4273 831.143 46.212 831.143 Q54.9649 831.143 59.9619 835.504 Q64.9272 839.864 64.9272 847.503 Q64.9272 855.174 59.9619 859.534 Q54.9649 863.863 46.212 863.863 Q37.4273 863.863 32.4621 859.534 Q27.4968 855.174 27.4968 847.503 Z" fill="#000000" fill-rule="nonzero" fill-opacity="1" /><path clip-path="url(#clip950)" d="M58.657 815.77 L77.5631 815.77 L77.5631 821.658 L28.3562 821.658 L28.3562 815.77 L33.7671 815.77 Q30.5842 813.924 29.0564 811.123 Q27.4968 808.29 27.4968 804.375 Q27.4968 797.882 32.6531 793.84 Q37.8093 789.766 46.212 789.766 Q54.6147 789.766 59.771 793.84 Q64.9272 797.882 64.9272 804.375 Q64.9272 808.29 63.3994 811.123 Q61.8398 813.924 58.657 815.77 M46.212 795.845 Q39.7508 795.845 36.0905 798.519 Q32.3984 801.161 32.3984 805.808 Q32.3984 810.455 36.0905 813.128 Q39.7508 815.77 46.212 815.77 Q52.6732 815.77 56.3653 813.128 Q60.0256 810.455 60.0256 805.808 Q60.0256 801.161 56.3653 798.519 Q52.6732 795.845 46.212 795.845 Z" fill="#000000" fill-rule="nonzero" fill-opacity="1" /><path clip-path="url(#clip950)" d="M49.9359 780.663 L28.3562 780.663 L28.3562 774.807 L49.7131 774.807 Q54.7739 774.807 57.3202 772.833 Q59.8346 770.86 59.8346 766.913 Q59.8346 762.171 56.8109 759.433 Q53.7872 756.664 48.5673 756.664 L28.3562 756.664 L28.3562 750.808 L64.0042 750.808 L64.0042 756.664 L58.5296 756.664 Q61.7762 758.797 63.3676 761.63 Q64.9272 764.431 64.9272 768.155 Q64.9272 774.297 61.1078 777.48 Q57.2883 780.663 49.9359 780.663 M27.4968 765.927 L27.4968 765.927 Z" fill="#000000" fill-rule="nonzero" fill-opacity="1" /><path clip-path="url(#clip950)" d="M14.479 738.745 L14.479 732.888 L64.0042 732.888 L64.0042 738.745 L14.479 738.745 Z" fill="#000000" fill-rule="nonzero" fill-opacity="1" /><path clip-path="url(#clip950)" d="M46.0847 704.434 Q46.0847 711.532 47.7079 714.269 Q49.3312 717.006 53.2461 717.006 Q56.3653 717.006 58.2114 714.969 Q60.0256 712.9 60.0256 709.367 Q60.0256 704.497 56.5881 701.569 Q53.1188 698.609 47.3897 698.609 L46.0847 698.609 L46.0847 704.434 M43.6657 692.753 L64.0042 692.753 L64.0042 698.609 L58.5933 698.609 Q61.8398 700.614 63.3994 703.606 Q64.9272 706.598 64.9272 710.927 Q64.9272 716.401 61.8716 719.648 Q58.7843 722.862 53.6281 722.862 Q47.6125 722.862 44.5569 718.852 Q41.5014 714.81 41.5014 706.821 L41.5014 698.609 L40.9285 698.609 Q36.8862 698.609 34.6901 701.283 Q32.4621 703.925 32.4621 708.731 Q32.4621 711.786 33.1941 714.683 Q33.9262 717.579 35.3903 720.253 L29.9795 720.253 Q28.7381 717.038 28.1334 714.014 Q27.4968 710.99 27.4968 708.126 Q27.4968 700.392 31.5072 696.572 Q35.5176 692.753 43.6657 692.753 Z" fill="#000000" fill-rule="nonzero" fill-opacity="1" /><path clip-path="url(#clip950)" d="M18.2347 674.897 L28.3562 674.897 L28.3562 662.834 L32.9077 662.834 L32.9077 674.897 L52.2594 674.897 Q56.6199 674.897 57.8613 673.719 Q59.1026 672.51 59.1026 668.849 L59.1026 662.834 L64.0042 662.834 L64.0042 668.849 Q64.0042 675.629 61.4897 678.207 Q58.9434 680.785 52.2594 680.785 L32.9077 680.785 L32.9077 685.082 L28.3562 685.082 L28.3562 680.785 L18.2347 680.785 L18.2347 674.897 Z" fill="#000000" fill-rule="nonzero" fill-opacity="1" /><path clip-path="url(#clip950)" d="M28.3562 655.131 L28.3562 649.275 L64.0042 649.275 L64.0042 655.131 L28.3562 655.131 M14.479 655.131 L14.479 649.275 L21.895 649.275 L21.895 655.131 L14.479 655.131 Z" fill="#000000" fill-rule="nonzero" fill-opacity="1" /><path clip-path="url(#clip950)" d="M32.4621 623.207 Q32.4621 627.918 36.1542 630.655 Q39.8145 633.392 46.212 633.392 Q52.6095 633.392 56.3017 630.687 Q59.9619 627.95 59.9619 623.207 Q59.9619 618.529 56.2698 615.791 Q52.5777 613.054 46.212 613.054 Q39.8781 613.054 36.186 615.791 Q32.4621 618.529 32.4621 623.207 M27.4968 623.207 Q27.4968 615.569 32.4621 611.208 Q37.4273 606.847 46.212 606.847 Q54.9649 606.847 59.9619 611.208 Q64.9272 615.569 64.9272 623.207 Q64.9272 630.878 59.9619 635.239 Q54.9649 639.567 46.212 639.567 Q37.4273 639.567 32.4621 635.239 Q27.4968 630.878 27.4968 623.207 Z" fill="#000000" fill-rule="nonzero" fill-opacity="1" /><path clip-path="url(#clip950)" d="M42.4881 567.507 L64.0042 567.507 L64.0042 573.364 L42.679 573.364 Q37.6183 573.364 35.1038 575.337 Q32.5894 577.311 32.5894 581.257 Q32.5894 586 35.6131 588.737 Q38.6368 591.474 43.8567 591.474 L64.0042 591.474 L64.0042 597.363 L28.3562 597.363 L28.3562 591.474 L33.8944 591.474 Q30.6797 589.374 29.0883 586.541 Q27.4968 583.676 27.4968 579.952 Q27.4968 573.809 31.3163 570.658 Q35.1038 567.507 42.4881 567.507 Z" fill="#000000" fill-rule="nonzero" fill-opacity="1" /><polyline clip-path="url(#clip952)" style="stroke:#ff0000; stroke-linecap:round; stroke-linejoin:round; stroke-width:4; stroke-opacity:1; fill:none" points="323.395,1381.19 325.367,1381.13 327.339,1381.06 329.312,1380.98 331.284,1380.91 333.256,1380.84 335.228,1380.76 337.201,1380.69 339.173,1380.61 341.145,1380.53 343.117,1380.45 345.089,1380.37 347.062,1380.28 349.034,1380.2 351.006,1380.11 352.978,1380.02 354.951,1379.93 356.923,1379.84 358.895,1379.75 360.867,1379.65 362.839,1379.56 364.812,1379.46 366.784,1379.36 368.756,1379.25 370.728,1379.15 372.701,1379.04 374.673,1378.94 376.645,1378.83 378.617,1378.72 380.589,1378.6 382.562,1378.49 384.534,1378.37 386.506,1378.25 388.478,1378.13 390.451,1378 392.423,1377.88 394.395,1377.75 396.367,1377.62 398.339,1377.48 400.312,1377.35 402.284,1377.21 404.256,1377.07 406.228,1376.92 408.201,1376.78 410.173,1376.63 412.145,1376.48 414.117,1376.32 416.09,1376.17 418.062,1376.01 420.034,1375.84 422.006,1375.68 423.978,1375.51 425.951,1375.34 427.923,1375.16 429.895,1374.98 431.867,1374.8 433.84,1374.62 435.812,1374.43 437.784,1374.24 439.756,1374.05 441.728,1373.85 443.701,1373.65 445.673,1373.44 447.645,1373.23 449.617,1373.02 451.59,1372.8 453.562,1372.58 455.534,1372.36 457.506,1372.13 459.478,1371.9 461.451,1371.66 463.423,1371.42 465.395,1371.17 467.367,1370.92 469.34,1370.67 471.312,1370.41 473.284,1370.15 475.256,1369.88 477.229,1369.61 479.201,1369.33 481.173,1369.05 483.145,1368.76 485.117,1368.46 487.09,1368.17 489.062,1367.86 491.034,1367.55 493.006,1367.24 494.979,1366.92 496.951,1366.59 498.923,1366.26 500.895,1365.92 502.867,1365.58 504.84,1365.23 506.812,1364.87 508.784,1364.51 510.756,1364.14 512.729,1363.76 514.701,1363.38 516.673,1362.99 518.645,1362.59 520.617,1362.19 522.59,1361.78 524.562,1361.36 526.534,1360.94 528.506,1360.5 530.479,1360.06 532.451,1359.61 534.423,1359.16 536.395,1358.69 538.368,1358.22 540.34,1357.74 542.312,1357.25 544.284,1356.75 546.256,1356.24 548.229,1355.72 550.201,1355.2 552.173,1354.66 554.145,1354.12 556.118,1353.57 558.09,1353 560.062,1352.43 562.034,1351.84 564.006,1351.25 565.979,1350.64 567.951,1350.03 569.923,1349.4 571.895,1348.76 573.868,1348.11 575.84,1347.45 577.812,1346.78 579.784,1346.1 581.756,1345.4 583.729,1344.69 585.701,1343.97 587.673,1343.24 589.645,1342.49 591.618,1341.74 593.59,1340.96 595.562,1340.18 597.534,1339.38 599.507,1338.56 601.479,1337.74 603.451,1336.89 605.423,1336.04 607.395,1335.17 609.368,1334.28 611.34,1333.38 613.312,1332.46 615.284,1331.52 617.257,1330.57 619.229,1329.61 621.201,1328.62 623.173,1327.62 625.145,1326.6 627.118,1325.57 629.09,1324.51 631.062,1323.44 633.034,1322.35 635.007,1321.24 636.979,1320.11 638.951,1318.97 640.923,1317.8 642.895,1316.61 644.868,1315.4 646.84,1314.18 648.812,1312.93 650.784,1311.66 652.757,1310.37 654.729,1309.05 656.701,1307.71 658.673,1306.36 660.646,1304.97 662.618,1303.57 664.59,1302.14 666.562,1300.69 668.534,1299.21 670.507,1297.71 672.479,1296.18 674.451,1294.62 676.423,1293.04 678.396,1291.44 680.368,1289.8 682.34,1288.14 684.312,1286.46 686.284,1284.74 688.257,1282.99 690.229,1281.22 692.201,1279.42 694.173,1277.58 696.146,1275.72 698.118,1273.83 700.09,1271.9 702.062,1269.95 704.034,1267.96 706.007,1265.94 707.979,1263.88 709.951,1261.79 711.923,1259.67 713.896,1257.52 715.868,1255.33 717.84,1253.1 719.812,1250.84 721.784,1248.54 723.757,1246.21 725.729,1243.83 727.701,1241.42 729.673,1238.97 731.646,1236.49 733.618,1233.96 735.59,1231.4 737.562,1228.79 739.535,1226.14 741.507,1223.46 743.479,1220.73 745.451,1217.95 747.423,1215.14 749.396,1212.28 751.368,1209.38 753.34,1206.43 755.312,1203.44 757.285,1200.4 759.257,1197.31 761.229,1194.18 763.201,1191 765.173,1187.77 767.146,1184.5 769.118,1181.17 771.09,1177.8 773.062,1174.37 775.035,1170.9 777.007,1167.37 778.979,1163.79 780.951,1160.16 782.923,1156.48 784.896,1152.74 786.868,1148.95 788.84,1145.11 790.812,1141.21 792.785,1137.26 794.757,1133.25 796.729,1129.18 798.701,1125.06 800.674,1120.88 802.646,1116.64 804.618,1112.34 806.59,1107.99 808.562,1103.58 810.535,1099.1 812.507,1094.57 814.479,1089.98 816.451,1085.33 818.424,1080.61 820.396,1075.83 822.368,1070.99 824.34,1066.09 826.312,1061.13 828.285,1056.1 830.257,1051.01 832.229,1045.86 834.201,1040.64 836.174,1035.36 838.146,1030.02 840.118,1024.6 842.09,1019.13 844.062,1013.58 846.035,1007.98 848.007,1002.3 849.979,996.559 851.951,990.751 853.924,984.877 855.896,978.936 857.868,972.928 859.84,966.854 861.813,960.713 863.785,954.505 865.757,948.231 867.729,941.891 869.701,935.485 871.674,929.012 873.646,922.475 875.618,915.871 877.59,909.203 879.563,902.47 881.535,895.672 883.507,888.81 885.479,881.885 887.451,874.897 889.424,867.846 891.396,860.733 893.368,853.559 895.34,846.324 897.313,839.028 899.285,831.673 901.257,824.259 903.229,816.787 905.201,809.258 907.174,801.672 909.146,794.03 911.118,786.333 913.09,778.582 915.063,770.778 917.035,762.922 919.007,755.015 920.979,747.058 922.952,739.052 924.924,730.996 926.896,722.894 928.868,714.746 930.84,706.555 932.813,698.322 934.785,690.048 936.757,681.737 938.729,673.389 940.702,665.006 942.674,656.591 944.646,648.146 946.618,639.672 948.59,631.171 950.563,622.645 952.535,614.098 954.507,605.529 956.479,596.943 958.452,588.341 960.424,579.726 962.396,571.098 964.368,562.462 966.34,553.82 968.313,545.172 970.285,536.523 972.257,527.875 974.229,519.23 976.202,510.59 978.174,501.958 980.146,493.337 982.118,484.729 984.091,476.138 986.063,467.565 988.035,459.014 990.007,450.486 991.979,441.986 993.952,433.516 995.924,425.079 997.896,416.677 999.868,408.314 1001.84,399.992 1003.81,391.715 1005.78,383.486 1007.76,375.308 1009.73,367.183 1011.7,359.116 1013.67,351.108 1015.65,343.165 1017.62,335.288 1019.59,327.48 1021.56,319.747 1023.54,312.09 1025.51,304.513 1027.48,297.02 1029.45,289.614 1031.42,282.298 1033.4,275.076 1035.37,267.951 1037.34,260.923 1039.31,253.994 1041.29,247.168 1043.26,240.448 1045.23,233.838 1047.2,227.341 1049.17,220.96 1051.15,214.698 1053.12,208.557 1055.09,202.541 1057.06,196.653 1059.04,190.894 1061.01,185.268 1062.98,179.778 1064.95,174.425 1066.92,169.212 1068.9,164.141 1070.87,159.215 1072.84,154.436 1074.81,149.805 1076.79,145.325 1078.76,140.997 1080.73,136.823 1082.7,132.806 1084.67,128.946 1086.65,125.245 1088.62,121.704 1090.59,118.326 1092.56,115.111 1094.54,112.061 1096.51,109.177 1098.48,106.459 1100.45,103.909 1102.42,101.527 1104.4,99.3155 1106.37,97.2739 1108.34,95.4032 1110.31,93.704 1112.29,92.1768 1114.26,90.8221 1116.23,89.6401 1118.2,88.6312 1120.17,87.7955 1122.15,87.1331 1124.12,86.6441 1126.09,86.3283 1128.06,86.1857 1130.04,86.216 1132.01,86.4189 1133.98,86.794 1135.95,87.341 1137.92,88.0591 1139.9,88.9479 1141.87,90.0066 1143.84,91.2344 1145.81,92.6304 1147.79,94.1937 1149.76,95.9234 1151.73,97.8182 1153.7,99.8769 1155.67,102.098 1157.65,104.481 1159.62,107.024 1161.59,109.725 1163.56,112.583 1165.54,115.596 1167.51,118.763 1169.48,122.081 1171.45,125.549 1173.42,129.165 1175.4,132.926 1177.37,136.83 1179.34,140.876 1181.31,145.06 1183.29,149.381 1185.26,153.837 1187.23,158.423 1189.2,163.138 1191.17,167.98 1193.15,172.945 1195.12,178.032 1197.09,183.238 1199.06,188.561 1201.04,193.997 1203.01,199.542 1204.98,205.195 1206.95,210.952 1208.92,216.81 1210.9,222.765 1212.87,228.815 1214.84,234.958 1216.81,241.189 1218.79,247.506 1220.76,253.907 1222.73,260.388 1224.7,266.947 1226.67,273.581 1228.65,280.287 1230.62,287.062 1232.59,293.904 1234.56,300.81 1236.54,307.777 1238.51,314.803 1240.48,321.885 1242.45,329.021 1244.42,336.208 1246.4,343.443 1248.37,350.725 1250.34,358.05 1252.31,365.417 1254.29,372.822 1256.26,380.264 1258.23,387.739 1260.2,395.247 1262.17,402.784 1264.15,410.349 1266.12,417.938 1268.09,425.55 1270.06,433.183 1272.04,440.835 1274.01,448.503 1275.98,456.185 1277.95,463.879 1279.92,471.584 1281.9,479.297 1283.87,487.015 1285.84,494.739 1287.81,502.464 1289.79,510.19 1291.76,517.914 1293.73,525.636 1295.7,533.352 1297.67,541.061 1299.65,548.761 1301.62,556.451 1303.59,564.129 1305.56,571.793 1307.54,579.441 1309.51,587.073 1311.48,594.686 1313.45,602.278 1315.42,609.849 1317.4,617.396 1319.37,624.919 1321.34,632.415 1323.31,639.884 1325.29,647.323 1327.26,654.732 1329.23,662.109 1331.2,669.453 1333.17,676.763 1335.15,684.037 1337.12,691.275 1339.09,698.476 1341.06,705.64 1343.04,712.765 1345.01,719.852 1346.98,726.9 1348.95,733.907 1350.92,740.875 1352.9,747.801 1354.87,754.686 1356.84,761.528 1358.81,768.328 1360.79,775.085 1362.76,781.798 1364.73,788.467 1366.7,795.092 1368.67,801.672 1370.65,808.206 1372.62,814.695 1374.59,821.138 1376.56,827.534 1378.54,833.883 1380.51,840.186 1382.48,846.44 1384.45,852.647 1386.42,858.806 1388.4,864.917 1390.37,870.979 1392.34,876.992 1394.31,882.956 1396.29,888.871 1398.26,894.737 1400.23,900.553 1402.2,906.319 1404.17,912.035 1406.15,917.701 1408.12,923.317 1410.09,928.882 1412.06,934.398 1414.04,939.863 1416.01,945.277 1417.98,950.641 1419.95,955.955 1421.92,961.218 1423.9,966.43 1425.87,971.592 1427.84,976.704 1429.81,981.766 1431.79,986.777 1433.76,991.738 1435.73,996.649 1437.7,1001.51 1439.67,1006.32 1441.65,1011.08 1443.62,1015.79 1445.59,1020.46 1447.56,1025.07 1449.54,1029.64 1451.51,1034.15 1453.48,1038.62 1455.45,1043.04 1457.42,1047.41 1459.4,1051.74 1461.37,1056.02 1463.34,1060.25 1465.31,1064.43 1467.29,1068.57 1469.26,1072.66 1471.23,1076.71 1473.2,1080.71 1475.17,1084.67 1477.15,1088.58 1479.12,1092.45 1481.09,1096.28 1483.06,1100.07 1485.04,1103.81 1487.01,1107.5 1488.98,1111.16 1490.95,1114.78 1492.92,1118.35 1494.9,1121.88 1496.87,1125.37 1498.84,1128.82 1500.81,1132.23 1502.79,1135.6 1504.76,1138.93 1506.73,1142.22 1508.7,1145.47 1510.67,1148.68 1512.65,1151.85 1514.62,1154.98 1516.59,1158.08 1518.56,1161.14 1520.54,1164.16 1522.51,1167.14 1524.48,1170.09 1526.45,1173 1528.42,1175.88 1530.4,1178.72 1532.37,1181.52 1534.34,1184.29 1536.31,1187.02 1538.29,1189.72 1540.26,1192.39 1542.23,1195.02 1544.2,1197.61 1546.17,1200.18 1548.15,1202.71 1550.12,1205.21 1552.09,1207.67 1554.06,1210.11 1556.04,1212.51 1558.01,1214.88 1559.98,1217.22 1561.95,1219.53 1563.92,1221.81 1565.9,1224.06 1567.87,1226.28 1569.84,1228.47 1571.81,1230.64 1573.79,1232.77 1575.76,1234.87 1577.73,1236.95 1579.7,1239 1581.67,1241.03 1583.65,1243.02 1585.62,1244.99 1587.59,1246.93 1589.56,1248.85 1591.54,1250.74 1593.51,1252.61 1595.48,1254.45 1597.45,1256.27 1599.42,1258.07 1601.4,1259.84 1603.37,1261.58 1605.34,1263.31 1607.31,1265.01 1609.29,1266.69 1611.26,1268.35 1613.23,1269.99 1615.2,1271.6 1617.17,1273.2 1619.15,1274.77 1621.12,1276.32 1623.09,1277.85 1625.06,1279.37 1627.04,1280.86 1629.01,1282.33 1630.98,1283.78 1632.95,1285.21 1634.92,1286.62 1636.9,1288.02 1638.87,1289.39 1640.84,1290.75 1642.81,1292.08 1644.79,1293.4 1646.76,1294.7 1648.73,1295.99 1650.7,1297.25 1652.67,1298.5 1654.65,1299.73 1656.62,1300.94 1658.59,1302.14 1660.56,1303.32 1662.54,1304.48 1664.51,1305.63 1666.48,1306.76 1668.45,1307.88 1670.43,1308.98 1672.4,1310.06 1674.37,1311.13 1676.34,1312.19 1678.31,1313.23 1680.29,1314.25 1682.26,1315.26 1684.23,1316.26 1686.2,1317.24 1688.18,1318.21 1690.15,1319.16 1692.12,1320.1 1694.09,1321.03 1696.06,1321.95 1698.04,1322.85 1700.01,1323.74 1701.98,1324.61 1703.95,1325.48 1705.93,1326.33 1707.9,1327.17 1709.87,1328 1711.84,1328.81 1713.81,1329.62 1715.79,1330.41 1717.76,1331.19 1719.73,1331.97 1721.7,1332.73 1723.68,1333.48 1725.65,1334.21 1727.62,1334.94 1729.59,1335.66 1731.56,1336.37 1733.54,1337.07 1735.51,1337.76 1737.48,1338.44 1739.45,1339.11 1741.43,1339.77 1743.4,1340.42 1745.37,1341.06 1747.34,1341.7 1749.31,1342.32 1751.29,1342.94 1753.26,1343.55 1755.23,1344.15 1757.2,1344.74 1759.18,1345.32 1761.15,1345.89 1763.12,1346.46 1765.09,1347.01 1767.06,1347.56 1769.04,1348.11 1771.01,1348.64 1772.98,1349.17 1774.95,1349.69 1776.93,1350.2 1778.9,1350.7 1780.87,1351.2 1782.84,1351.69 1784.81,1352.17 1786.79,1352.65 1788.76,1353.12 1790.73,1353.58 1792.7,1354.03 1794.68,1354.48 1796.65,1354.92 1798.62,1355.36 1800.59,1355.79 1802.56,1356.21 1804.54,1356.63 1806.51,1357.04 1808.48,1357.45 1810.45,1357.84 1812.43,1358.24 1814.4,1358.63 1816.37,1359.01 1818.34,1359.38 1820.31,1359.76 1822.29,1360.12 1824.26,1360.48 1826.23,1360.84 1828.2,1361.19 1830.18,1361.53 1832.15,1361.87 1834.12,1362.21 1836.09,1362.54 1838.06,1362.86 1840.04,1363.18 1842.01,1363.5 1843.98,1363.81 1845.95,1364.12 1847.93,1364.42 1849.9,1364.72 1851.87,1365.01 1853.84,1365.3 1855.81,1365.59 1857.79,1365.87 1859.76,1366.15 1861.73,1366.42 1863.7,1366.69 1865.68,1366.96 1867.65,1367.22 1869.62,1367.48 1871.59,1367.73 1873.56,1367.98 1875.54,1368.23 1877.51,1368.47 1879.48,1368.71 1881.45,1368.95 1883.43,1369.19 1885.4,1369.42 1887.37,1369.64 1889.34,1369.87 1891.31,1370.09 1893.29,1370.3 1895.26,1370.52 1897.23,1370.73 1899.2,1370.94 1901.18,1371.14 1903.15,1371.34 1905.12,1371.54 1907.09,1371.74 1909.06,1371.93 1911.04,1372.12 1913.01,1372.31 1914.98,1372.5 1916.95,1372.68 1918.93,1372.86 1920.9,1373.03 1922.87,1373.21 1924.84,1373.38 1926.81,1373.55 1928.79,1373.72 1930.76,1373.88 1932.73,1374.04 1934.7,1374.2 1936.68,1374.36 1938.65,1374.51 1940.62,1374.67 1942.59,1374.82 1944.56,1374.96 1946.54,1375.11 1948.51,1375.25 1950.48,1375.4 1952.45,1375.53 1954.43,1375.67 1956.4,1375.81 1958.37,1375.94 1960.34,1376.07 1962.31,1376.2 1964.29,1376.33 1966.26,1376.46 1968.23,1376.58 1970.2,1376.7 1972.18,1376.82 1974.15,1376.94 1976.12,1377.06 1978.09,1377.18 1980.06,1377.29 1982.04,1377.4 1984.01,1377.51 1985.98,1377.62 1987.95,1377.73 1989.93,1377.83 1991.9,1377.94 1993.87,1378.04 1995.84,1378.14 1997.81,1378.24 1999.79,1378.34 2001.76,1378.44 2003.73,1378.53 2005.7,1378.63 2007.68,1378.72 2009.65,1378.81 2011.62,1378.9 2013.59,1378.99 2015.56,1379.08 2017.54,1379.17 2019.51,1379.25 2021.48,1379.33 2023.45,1379.42 2025.43,1379.5 2027.4,1379.58 2029.37,1379.66 2031.34,1379.74 2033.31,1379.81 2035.29,1379.89 2037.26,1379.96 2039.23,1380.04 2041.2,1380.11 2043.18,1380.18 2045.15,1380.25 2047.12,1380.32 2049.09,1380.39 2051.06,1380.45 2053.04,1380.52 2055.01,1380.58 2056.98,1380.65 2058.95,1380.71 2060.93,1380.77 2062.9,1380.84 2064.87,1380.9 2066.84,1380.96 2068.81,1381.01 2070.79,1381.07 2072.76,1381.13 2074.73,1381.19 2076.7,1381.24 2078.68,1381.3 2080.65,1381.35 2082.62,1381.4 2084.59,1381.45 2086.56,1381.51 2088.54,1381.56 2090.51,1381.61 2092.48,1381.66 2094.45,1381.7 2096.43,1381.75 2098.4,1381.8 2100.37,1381.85 2102.34,1381.89 2104.31,1381.94 2106.29,1381.98 2108.26,1382.02 2110.23,1382.07 2112.2,1382.11 2114.18,1382.15 2116.15,1382.19 2118.12,1382.23 2120.09,1382.27 2122.06,1382.31 2124.04,1382.35 2126.01,1382.39 2127.98,1382.43 2129.95,1382.47 2131.93,1382.5 2133.9,1382.54 2135.87,1382.58 2137.84,1382.61 2139.81,1382.65 2141.79,1382.68 2143.76,1382.71 2145.73,1382.75 2147.7,1382.78 2149.68,1382.81 2151.65,1382.84 2153.62,1382.87 2155.59,1382.9 2157.56,1382.94 2159.54,1382.97 2161.51,1382.99 2163.48,1383.02 2165.45,1383.05 2167.43,1383.08 2169.4,1383.11 2171.37,1383.14 2173.34,1383.16 2175.31,1383.19 2177.29,1383.21 2179.26,1383.24 2181.23,1383.27 2183.2,1383.29 2185.18,1383.32 2187.15,1383.34 2189.12,1383.36 2191.09,1383.39 2193.06,1383.41 2195.04,1383.43 2197.01,1383.46 2198.98,1383.48 2200.95,1383.5 2202.93,1383.52 2204.9,1383.54 2206.87,1383.56 2208.84,1383.58 2210.81,1383.6 2212.79,1383.63 2214.76,1383.64 2216.73,1383.66 2218.7,1383.68 2220.68,1383.7 2222.65,1383.72 2224.62,1383.74 2226.59,1383.76 2228.56,1383.78 2230.54,1383.79 2232.51,1383.81 2234.48,1383.83 2236.45,1383.84 2238.43,1383.86 2240.4,1383.88 2242.37,1383.89 2244.34,1383.91 2246.31,1383.92 2248.29,1383.94 2250.26,1383.96 2252.23,1383.97 2254.2,1383.98 2256.18,1384 2258.15,1384.01 2260.12,1384.03 2262.09,1384.04 2264.06,1384.06 2266.04,1384.07 2268.01,1384.08 2269.98,1384.1 2271.95,1384.11 2273.93,1384.12 2275.9,1384.13 2277.87,1384.15 2279.84,1384.16 2281.81,1384.17 2283.79,1384.18 2285.76,1384.19 2287.73,1384.2 2289.7,1384.22 2291.68,1384.23 2293.65,1384.24 "/>
<path clip-path="url(#clip950)" d="M1889.46 196.789 L2283.14 196.789 L2283.14 93.1086 L1889.46 93.1086  Z" fill="#eaeaea" fill-rule="evenodd" fill-opacity="1"/>
<polyline clip-path="url(#clip950)" style="stroke:#ffffff; stroke-linecap:round; stroke-linejoin:round; stroke-width:4; stroke-opacity:1; fill:none" points="1889.46,196.789 2283.14,196.789 2283.14,93.1086 1889.46,93.1086 1889.46,196.789 "/>
<polyline clip-path="url(#clip950)" style="stroke:#ff0000; stroke-linecap:round; stroke-linejoin:round; stroke-width:4; stroke-opacity:1; fill:none" points="1912.66,144.949 2051.89,144.949 "/>
<path clip-path="url(#clip950)" d="M2075.1 127.669 L2079.77 127.669 L2079.77 162.229 L2075.1 162.229 L2075.1 127.669 Z" fill="#000000" fill-rule="nonzero" fill-opacity="1" /><path clip-path="url(#clip950)" d="M2110.45 146.581 L2110.45 162.229 L2106.19 162.229 L2106.19 146.719 Q2106.19 143.039 2104.75 141.21 Q2103.32 139.382 2100.45 139.382 Q2097 139.382 2095.01 141.581 Q2093.01 143.78 2093.01 147.576 L2093.01 162.229 L2088.73 162.229 L2088.73 136.303 L2093.01 136.303 L2093.01 140.331 Q2094.54 137.993 2096.6 136.835 Q2098.69 135.678 2101.39 135.678 Q2105.86 135.678 2108.15 138.456 Q2110.45 141.21 2110.45 146.581 Z" fill="#000000" fill-rule="nonzero" fill-opacity="1" /><path clip-path="url(#clip950)" d="M2132.07 126.21 L2132.07 129.752 L2127.99 129.752 Q2125.7 129.752 2124.8 130.678 Q2123.92 131.604 2123.92 134.011 L2123.92 136.303 L2130.93 136.303 L2130.93 139.613 L2123.92 139.613 L2123.92 162.229 L2119.63 162.229 L2119.63 139.613 L2115.56 139.613 L2115.56 136.303 L2119.63 136.303 L2119.63 134.497 Q2119.63 130.169 2121.65 128.201 Q2123.66 126.21 2128.04 126.21 L2132.07 126.21 Z" fill="#000000" fill-rule="nonzero" fill-opacity="1" /><path clip-path="url(#clip950)" d="M2157.81 148.201 L2157.81 150.284 L2138.22 150.284 Q2138.5 154.682 2140.86 156.997 Q2143.25 159.289 2147.48 159.289 Q2149.94 159.289 2152.23 158.687 Q2154.54 158.085 2156.81 156.881 L2156.81 160.909 Q2154.52 161.881 2152.11 162.391 Q2149.7 162.9 2147.23 162.9 Q2141.02 162.9 2137.39 159.289 Q2133.78 155.678 2133.78 149.52 Q2133.78 143.155 2137.2 139.428 Q2140.65 135.678 2146.49 135.678 Q2151.72 135.678 2154.75 139.057 Q2157.81 142.414 2157.81 148.201 M2153.55 146.951 Q2153.5 143.456 2151.58 141.372 Q2149.68 139.289 2146.53 139.289 Q2142.97 139.289 2140.82 141.303 Q2138.69 143.317 2138.36 146.974 L2153.55 146.951 Z" fill="#000000" fill-rule="nonzero" fill-opacity="1" /><path clip-path="url(#clip950)" d="M2183.45 137.298 L2183.45 141.28 Q2181.65 140.284 2179.82 139.798 Q2178.01 139.289 2176.16 139.289 Q2172.02 139.289 2169.73 141.928 Q2167.44 144.544 2167.44 149.289 Q2167.44 154.034 2169.73 156.673 Q2172.02 159.289 2176.16 159.289 Q2178.01 159.289 2179.82 158.803 Q2181.65 158.293 2183.45 157.298 L2183.45 161.233 Q2181.67 162.067 2179.75 162.483 Q2177.85 162.9 2175.7 162.9 Q2169.84 162.9 2166.39 159.219 Q2162.94 155.539 2162.94 149.289 Q2162.94 142.946 2166.42 139.312 Q2169.91 135.678 2175.98 135.678 Q2177.94 135.678 2179.82 136.095 Q2181.69 136.488 2183.45 137.298 Z" fill="#000000" fill-rule="nonzero" fill-opacity="1" /><path clip-path="url(#clip950)" d="M2195.07 128.942 L2195.07 136.303 L2203.85 136.303 L2203.85 139.613 L2195.07 139.613 L2195.07 153.687 Q2195.07 156.858 2195.93 157.761 Q2196.81 158.664 2199.47 158.664 L2203.85 158.664 L2203.85 162.229 L2199.47 162.229 Q2194.54 162.229 2192.67 160.4 Q2190.79 158.548 2190.79 153.687 L2190.79 139.613 L2187.67 139.613 L2187.67 136.303 L2190.79 136.303 L2190.79 128.942 L2195.07 128.942 Z" fill="#000000" fill-rule="nonzero" fill-opacity="1" /><path clip-path="url(#clip950)" d="M2231.63 148.201 L2231.63 150.284 L2212.04 150.284 Q2212.32 154.682 2214.68 156.997 Q2217.06 159.289 2221.3 159.289 Q2223.75 159.289 2226.05 158.687 Q2228.36 158.085 2230.63 156.881 L2230.63 160.909 Q2228.34 161.881 2225.93 162.391 Q2223.52 162.9 2221.05 162.9 Q2214.84 162.9 2211.21 159.289 Q2207.6 155.678 2207.6 149.52 Q2207.6 143.155 2211.02 139.428 Q2214.47 135.678 2220.31 135.678 Q2225.54 135.678 2228.57 139.057 Q2231.63 142.414 2231.63 148.201 M2227.37 146.951 Q2227.32 143.456 2225.4 141.372 Q2223.5 139.289 2220.35 139.289 Q2216.79 139.289 2214.63 141.303 Q2212.5 143.317 2212.18 146.974 L2227.37 146.951 Z" fill="#000000" fill-rule="nonzero" fill-opacity="1" /><path clip-path="url(#clip950)" d="M2255.68 140.238 L2255.68 126.21 L2259.94 126.21 L2259.94 162.229 L2255.68 162.229 L2255.68 158.34 Q2254.33 160.655 2252.27 161.789 Q2250.24 162.9 2247.37 162.9 Q2242.67 162.9 2239.7 159.15 Q2236.76 155.4 2236.76 149.289 Q2236.76 143.178 2239.7 139.428 Q2242.67 135.678 2247.37 135.678 Q2250.24 135.678 2252.27 136.812 Q2254.33 137.923 2255.68 140.238 M2241.16 149.289 Q2241.16 153.988 2243.08 156.673 Q2245.03 159.335 2248.41 159.335 Q2251.79 159.335 2253.73 156.673 Q2255.68 153.988 2255.68 149.289 Q2255.68 144.59 2253.73 141.928 Q2251.79 139.243 2248.41 139.243 Q2245.03 139.243 2243.08 141.928 Q2241.16 144.59 2241.16 149.289 Z" fill="#000000" fill-rule="nonzero" fill-opacity="1" /></svg>
