<?xml version="1.0" encoding="utf-8"?>
<svg xmlns="http://www.w3.org/2000/svg" xmlns:xlink="http://www.w3.org/1999/xlink" width="600" height="400" viewBox="0 0 2400 1600">
<defs>
  <clipPath id="clip650">
    <rect x="0" y="0" width="2400" height="1600"/>
  </clipPath>
</defs>
<path clip-path="url(#clip650)" d="M0 1600 L2400 1600 L2400 0 L0 0  Z" fill="#ffffff" fill-rule="evenodd" fill-opacity="1"/>
<defs>
  <clipPath id="clip651">
    <rect x="480" y="0" width="1681" height="1600"/>
  </clipPath>
</defs>
<path clip-path="url(#clip650)" d="M369.703 1423.18 L2352.76 1423.18 L2352.76 47.2441 L369.703 47.2441  Z" fill="#eaeaea" fill-rule="evenodd" fill-opacity="1"/>
<defs>
  <clipPath id="clip652">
    <rect x="369" y="47" width="1984" height="1377"/>
  </clipPath>
</defs>
<polyline clip-path="url(#clip652)" style="stroke:#ffffff; stroke-linecap:round; stroke-linejoin:round; stroke-width:4; stroke-opacity:1; fill:none" points="425.828,1423.18 425.828,47.2441 "/>
<polyline clip-path="url(#clip652)" style="stroke:#ffffff; stroke-linecap:round; stroke-linejoin:round; stroke-width:4; stroke-opacity:1; fill:none" points="945.495,1423.18 945.495,47.2441 "/>
<polyline clip-path="url(#clip652)" style="stroke:#ffffff; stroke-linecap:round; stroke-linejoin:round; stroke-width:4; stroke-opacity:1; fill:none" points="1465.16,1423.18 1465.16,47.2441 "/>
<polyline clip-path="url(#clip652)" style="stroke:#ffffff; stroke-linecap:round; stroke-linejoin:round; stroke-width:4; stroke-opacity:1; fill:none" points="1984.83,1423.18 1984.83,47.2441 "/>
<polyline clip-path="url(#clip652)" style="stroke:#ffffff; stroke-linecap:round; stroke-linejoin:round; stroke-width:2; stroke-opacity:1; fill:none" points="685.661,1423.18 685.661,47.2441 "/>
<polyline clip-path="url(#clip652)" style="stroke:#ffffff; stroke-linecap:round; stroke-linejoin:round; stroke-width:2; stroke-opacity:1; fill:none" points="1205.33,1423.18 1205.33,47.2441 "/>
<polyline clip-path="url(#clip652)" style="stroke:#ffffff; stroke-linecap:round; stroke-linejoin:round; stroke-width:2; stroke-opacity:1; fill:none" points="1725,1423.18 1725,47.2441 "/>
<polyline clip-path="url(#clip652)" style="stroke:#ffffff; stroke-linecap:round; stroke-linejoin:round; stroke-width:2; stroke-opacity:1; fill:none" points="2244.66,1423.18 2244.66,47.2441 "/>
<polyline clip-path="url(#clip650)" style="stroke:#ffffff; stroke-linecap:round; stroke-linejoin:round; stroke-width:4; stroke-opacity:1; fill:none" points="369.703,1423.18 2352.76,1423.18 "/>
<polyline clip-path="url(#clip650)" style="stroke:#333333; stroke-linecap:round; stroke-linejoin:round; stroke-width:4; stroke-opacity:1; fill:none" points="425.828,1423.18 425.828,1442.08 "/>
<polyline clip-path="url(#clip650)" style="stroke:#333333; stroke-linecap:round; stroke-linejoin:round; stroke-width:4; stroke-opacity:1; fill:none" points="945.495,1423.18 945.495,1442.08 "/>
<polyline clip-path="url(#clip650)" style="stroke:#333333; stroke-linecap:round; stroke-linejoin:round; stroke-width:4; stroke-opacity:1; fill:none" points="1465.16,1423.18 1465.16,1442.08 "/>
<polyline clip-path="url(#clip650)" style="stroke:#333333; stroke-linecap:round; stroke-linejoin:round; stroke-width:4; stroke-opacity:1; fill:none" points="1984.83,1423.18 1984.83,1442.08 "/>
<polyline clip-path="url(#clip650)" style="stroke:#333333; stroke-linecap:round; stroke-linejoin:round; stroke-width:4; stroke-opacity:1; fill:none" points="685.661,1423.18 685.661,1432.63 "/>
<polyline clip-path="url(#clip650)" style="stroke:#333333; stroke-linecap:round; stroke-linejoin:round; stroke-width:4; stroke-opacity:1; fill:none" points="1205.33,1423.18 1205.33,1432.63 "/>
<polyline clip-path="url(#clip650)" style="stroke:#333333; stroke-linecap:round; stroke-linejoin:round; stroke-width:4; stroke-opacity:1; fill:none" points="1725,1423.18 1725,1432.63 "/>
<polyline clip-path="url(#clip650)" style="stroke:#333333; stroke-linecap:round; stroke-linejoin:round; stroke-width:4; stroke-opacity:1; fill:none" points="2244.66,1423.18 2244.66,1432.63 "/>
<path clip-path="url(#clip650)" d="M425.828 1463.7 Q422.216 1463.7 420.388 1467.26 Q418.582 1470.8 418.582 1477.93 Q418.582 1485.04 420.388 1488.61 Q422.216 1492.15 425.828 1492.15 Q429.462 1492.15 431.267 1488.61 Q433.096 1485.04 433.096 1477.93 Q433.096 1470.8 431.267 1467.26 Q429.462 1463.7 425.828 1463.7 M425.828 1459.99 Q431.638 1459.99 434.693 1464.6 Q437.772 1469.18 437.772 1477.93 Q437.772 1486.66 434.693 1491.27 Q431.638 1495.85 425.828 1495.85 Q420.017 1495.85 416.939 1491.27 Q413.883 1486.66 413.883 1477.93 Q413.883 1469.18 416.939 1464.6 Q420.017 1459.99 425.828 1459.99 Z" fill="#4c4c4c" fill-rule="nonzero" fill-opacity="1" /><path clip-path="url(#clip650)" d="M905.102 1491.24 L912.741 1491.24 L912.741 1464.88 L904.431 1466.55 L904.431 1462.29 L912.695 1460.62 L917.371 1460.62 L917.371 1491.24 L925.009 1491.24 L925.009 1495.18 L905.102 1495.18 L905.102 1491.24 Z" fill="#4c4c4c" fill-rule="nonzero" fill-opacity="1" /><path clip-path="url(#clip650)" d="M944.454 1463.7 Q940.843 1463.7 939.014 1467.26 Q937.208 1470.8 937.208 1477.93 Q937.208 1485.04 939.014 1488.61 Q940.843 1492.15 944.454 1492.15 Q948.088 1492.15 949.894 1488.61 Q951.722 1485.04 951.722 1477.93 Q951.722 1470.8 949.894 1467.26 Q948.088 1463.7 944.454 1463.7 M944.454 1459.99 Q950.264 1459.99 953.319 1464.6 Q956.398 1469.18 956.398 1477.93 Q956.398 1486.66 953.319 1491.27 Q950.264 1495.85 944.454 1495.85 Q938.644 1495.85 935.565 1491.27 Q932.509 1486.66 932.509 1477.93 Q932.509 1469.18 935.565 1464.6 Q938.644 1459.99 944.454 1459.99 Z" fill="#4c4c4c" fill-rule="nonzero" fill-opacity="1" /><path clip-path="url(#clip650)" d="M974.616 1463.7 Q971.005 1463.7 969.176 1467.26 Q967.37 1470.8 967.37 1477.93 Q967.37 1485.04 969.176 1488.61 Q971.005 1492.15 974.616 1492.15 Q978.25 1492.15 980.055 1488.61 Q981.884 1485.04 981.884 1477.93 Q981.884 1470.8 980.055 1467.26 Q978.25 1463.7 974.616 1463.7 M974.616 1459.99 Q980.426 1459.99 983.481 1464.6 Q986.56 1469.18 986.56 1477.93 Q986.56 1486.66 983.481 1491.27 Q980.426 1495.85 974.616 1495.85 Q968.805 1495.85 965.727 1491.27 Q962.671 1486.66 962.671 1477.93 Q962.671 1469.18 965.727 1464.6 Q968.805 1459.99 974.616 1459.99 Z" fill="#4c4c4c" fill-rule="nonzero" fill-opacity="1" /><path clip-path="url(#clip650)" d="M1428.86 1491.24 L1445.17 1491.24 L1445.17 1495.18 L1423.23 1495.18 L1423.23 1491.24 Q1425.89 1488.49 1430.48 1483.86 Q1435.08 1479.21 1436.26 1477.87 Q1438.51 1475.34 1439.39 1473.61 Q1440.29 1471.85 1440.29 1470.16 Q1440.29 1467.4 1438.35 1465.67 Q1436.42 1463.93 1433.32 1463.93 Q1431.12 1463.93 1428.67 1464.69 Q1426.24 1465.46 1423.46 1467.01 L1423.46 1462.29 Q1426.29 1461.15 1428.74 1460.57 Q1431.19 1459.99 1433.23 1459.99 Q1438.6 1459.99 1441.8 1462.68 Q1444.99 1465.37 1444.99 1469.86 Q1444.99 1471.99 1444.18 1473.91 Q1443.39 1475.8 1441.29 1478.4 Q1440.71 1479.07 1437.61 1482.29 Q1434.5 1485.48 1428.86 1491.24 Z" fill="#4c4c4c" fill-rule="nonzero" fill-opacity="1" /><path clip-path="url(#clip650)" d="M1464.99 1463.7 Q1461.38 1463.7 1459.55 1467.26 Q1457.74 1470.8 1457.74 1477.93 Q1457.74 1485.04 1459.55 1488.61 Q1461.38 1492.15 1464.99 1492.15 Q1468.62 1492.15 1470.43 1488.61 Q1472.26 1485.04 1472.26 1477.93 Q1472.26 1470.8 1470.43 1467.26 Q1468.62 1463.7 1464.99 1463.7 M1464.99 1459.99 Q1470.8 1459.99 1473.86 1464.6 Q1476.93 1469.18 1476.93 1477.93 Q1476.93 1486.66 1473.86 1491.27 Q1470.8 1495.85 1464.99 1495.85 Q1459.18 1495.85 1456.1 1491.27 Q1453.05 1486.66 1453.05 1477.93 Q1453.05 1469.18 1456.1 1464.6 Q1459.18 1459.99 1464.99 1459.99 Z" fill="#4c4c4c" fill-rule="nonzero" fill-opacity="1" /><path clip-path="url(#clip650)" d="M1495.15 1463.7 Q1491.54 1463.7 1489.71 1467.26 Q1487.91 1470.8 1487.91 1477.93 Q1487.91 1485.04 1489.71 1488.61 Q1491.54 1492.15 1495.15 1492.15 Q1498.79 1492.15 1500.59 1488.61 Q1502.42 1485.04 1502.42 1477.93 Q1502.42 1470.8 1500.59 1467.26 Q1498.79 1463.7 1495.15 1463.7 M1495.15 1459.99 Q1500.96 1459.99 1504.02 1464.6 Q1507.1 1469.18 1507.1 1477.93 Q1507.1 1486.66 1504.02 1491.27 Q1500.96 1495.85 1495.15 1495.85 Q1489.34 1495.85 1486.26 1491.27 Q1483.21 1486.66 1483.21 1477.93 Q1483.21 1469.18 1486.26 1464.6 Q1489.34 1459.99 1495.15 1459.99 Z" fill="#4c4c4c" fill-rule="nonzero" fill-opacity="1" /><path clip-path="url(#clip650)" d="M1958.59 1476.55 Q1961.95 1477.26 1963.82 1479.53 Q1965.72 1481.8 1965.72 1485.13 Q1965.72 1490.25 1962.2 1493.05 Q1958.69 1495.85 1952.2 1495.85 Q1950.03 1495.85 1947.71 1495.41 Q1945.42 1494.99 1942.97 1494.14 L1942.97 1489.62 Q1944.91 1490.76 1947.23 1491.34 Q1949.54 1491.92 1952.07 1491.92 Q1956.46 1491.92 1958.75 1490.18 Q1961.07 1488.44 1961.07 1485.13 Q1961.07 1482.08 1958.92 1480.37 Q1956.79 1478.63 1952.97 1478.63 L1948.94 1478.63 L1948.94 1474.79 L1953.15 1474.79 Q1956.6 1474.79 1958.43 1473.42 Q1960.26 1472.03 1960.26 1469.44 Q1960.26 1466.78 1958.36 1465.37 Q1956.49 1463.93 1952.97 1463.93 Q1951.05 1463.93 1948.85 1464.35 Q1946.65 1464.76 1944.01 1465.64 L1944.01 1461.48 Q1946.67 1460.74 1948.99 1460.37 Q1951.32 1459.99 1953.38 1459.99 Q1958.71 1459.99 1961.81 1462.43 Q1964.91 1464.83 1964.91 1468.95 Q1964.91 1471.82 1963.27 1473.81 Q1961.63 1475.78 1958.59 1476.55 Z" fill="#4c4c4c" fill-rule="nonzero" fill-opacity="1" /><path clip-path="url(#clip650)" d="M1984.59 1463.7 Q1980.98 1463.7 1979.15 1467.26 Q1977.34 1470.8 1977.34 1477.93 Q1977.34 1485.04 1979.15 1488.61 Q1980.98 1492.15 1984.59 1492.15 Q1988.22 1492.15 1990.03 1488.61 Q1991.86 1485.04 1991.86 1477.93 Q1991.86 1470.8 1990.03 1467.26 Q1988.22 1463.7 1984.59 1463.7 M1984.59 1459.99 Q1990.4 1459.99 1993.45 1464.6 Q1996.53 1469.18 1996.53 1477.93 Q1996.53 1486.66 1993.45 1491.27 Q1990.4 1495.85 1984.59 1495.85 Q1978.78 1495.85 1975.7 1491.27 Q1972.64 1486.66 1972.64 1477.93 Q1972.64 1469.18 1975.7 1464.6 Q1978.78 1459.99 1984.59 1459.99 Z" fill="#4c4c4c" fill-rule="nonzero" fill-opacity="1" /><path clip-path="url(#clip650)" d="M2014.75 1463.7 Q2011.14 1463.7 2009.31 1467.26 Q2007.5 1470.8 2007.5 1477.93 Q2007.5 1485.04 2009.31 1488.61 Q2011.14 1492.15 2014.75 1492.15 Q2018.38 1492.15 2020.19 1488.61 Q2022.02 1485.04 2022.02 1477.93 Q2022.02 1470.8 2020.19 1467.26 Q2018.38 1463.7 2014.75 1463.7 M2014.75 1459.99 Q2020.56 1459.99 2023.62 1464.6 Q2026.69 1469.18 2026.69 1477.93 Q2026.69 1486.66 2023.62 1491.27 Q2020.56 1495.85 2014.75 1495.85 Q2008.94 1495.85 2005.86 1491.27 Q2002.81 1486.66 2002.81 1477.93 Q2002.81 1469.18 2005.86 1464.6 Q2008.94 1459.99 2014.75 1459.99 Z" fill="#4c4c4c" fill-rule="nonzero" fill-opacity="1" /><path clip-path="url(#clip650)" d="M1188.73 1522.27 L1188.73 1532.4 L1200.8 1532.4 L1200.8 1536.95 L1188.73 1536.95 L1188.73 1556.3 Q1188.73 1560.66 1189.91 1561.9 Q1191.12 1563.14 1194.78 1563.14 L1200.8 1563.14 L1200.8 1568.04 L1194.78 1568.04 Q1188 1568.04 1185.42 1565.53 Q1182.85 1562.98 1182.85 1556.3 L1182.85 1536.95 L1178.55 1536.95 L1178.55 1532.4 L1182.85 1532.4 L1182.85 1522.27 L1188.73 1522.27 Z" fill="#000000" fill-rule="nonzero" fill-opacity="1" /><path clip-path="url(#clip650)" d="M1208.5 1532.4 L1214.36 1532.4 L1214.36 1568.04 L1208.5 1568.04 L1208.5 1532.4 M1208.5 1518.52 L1214.36 1518.52 L1214.36 1525.93 L1208.5 1525.93 L1208.5 1518.52 Z" fill="#000000" fill-rule="nonzero" fill-opacity="1" /><path clip-path="url(#clip650)" d="M1254.37 1539.24 Q1256.56 1535.29 1259.62 1533.41 Q1262.67 1531.54 1266.81 1531.54 Q1272.38 1531.54 1275.4 1535.45 Q1278.43 1539.33 1278.43 1546.53 L1278.43 1568.04 L1272.54 1568.04 L1272.54 1546.72 Q1272.54 1541.59 1270.73 1539.11 Q1268.91 1536.63 1265.19 1536.63 Q1260.64 1536.63 1257.99 1539.65 Q1255.35 1542.68 1255.35 1547.9 L1255.35 1568.04 L1249.46 1568.04 L1249.46 1546.72 Q1249.46 1541.56 1247.65 1539.11 Q1245.84 1536.63 1242.05 1536.63 Q1237.56 1536.63 1234.92 1539.68 Q1232.28 1542.71 1232.28 1547.9 L1232.28 1568.04 L1226.39 1568.04 L1226.39 1532.4 L1232.28 1532.4 L1232.28 1537.93 Q1234.28 1534.66 1237.08 1533.1 Q1239.88 1531.54 1243.73 1531.54 Q1247.62 1531.54 1250.32 1533.51 Q1253.06 1535.48 1254.37 1539.24 Z" fill="#000000" fill-rule="nonzero" fill-opacity="1" /><path clip-path="url(#clip650)" d="M1320.6 1548.76 L1320.6 1551.62 L1293.67 1551.62 Q1294.06 1557.67 1297.3 1560.85 Q1300.58 1564 1306.41 1564 Q1309.78 1564 1312.93 1563.17 Q1316.11 1562.35 1319.23 1560.69 L1319.23 1566.23 Q1316.08 1567.57 1312.77 1568.27 Q1309.46 1568.97 1306.05 1568.97 Q1297.52 1568.97 1292.53 1564 Q1287.56 1559.04 1287.56 1550.57 Q1287.56 1541.82 1292.27 1536.69 Q1297.02 1531.54 1305.04 1531.54 Q1312.23 1531.54 1316.4 1536.18 Q1320.6 1540.8 1320.6 1548.76 M1314.74 1547.04 Q1314.68 1542.23 1312.04 1539.37 Q1309.43 1536.5 1305.1 1536.5 Q1300.2 1536.5 1297.24 1539.27 Q1294.31 1542.04 1293.86 1547.07 L1314.74 1547.04 Z" fill="#000000" fill-rule="nonzero" fill-opacity="1" /><path clip-path="url(#clip650)" d="M1365 1518.58 Q1360.74 1525.9 1358.67 1533.06 Q1356.6 1540.23 1356.6 1547.58 Q1356.6 1554.93 1358.67 1562.16 Q1360.77 1569.35 1365 1576.64 L1359.91 1576.64 Q1355.13 1569.16 1352.75 1561.93 Q1350.39 1554.71 1350.39 1547.58 Q1350.39 1540.48 1352.75 1533.29 Q1355.1 1526.09 1359.91 1518.58 L1365 1518.58 Z" fill="#000000" fill-rule="nonzero" fill-opacity="1" /><path clip-path="url(#clip650)" d="M1399.82 1537.81 L1399.82 1518.52 L1405.68 1518.52 L1405.68 1568.04 L1399.82 1568.04 L1399.82 1562.7 Q1397.98 1565.88 1395.14 1567.44 Q1392.34 1568.97 1388.4 1568.97 Q1381.93 1568.97 1377.86 1563.81 Q1373.82 1558.65 1373.82 1550.25 Q1373.82 1541.85 1377.86 1536.69 Q1381.93 1531.54 1388.4 1531.54 Q1392.34 1531.54 1395.14 1533.1 Q1397.98 1534.62 1399.82 1537.81 M1379.87 1550.25 Q1379.87 1556.71 1382.51 1560.4 Q1385.18 1564.07 1389.83 1564.07 Q1394.47 1564.07 1397.15 1560.4 Q1399.82 1556.71 1399.82 1550.25 Q1399.82 1543.79 1397.15 1540.13 Q1394.47 1536.44 1389.83 1536.44 Q1385.18 1536.44 1382.51 1540.13 Q1379.87 1543.79 1379.87 1550.25 Z" fill="#000000" fill-rule="nonzero" fill-opacity="1" /><path clip-path="url(#clip650)" d="M1433.94 1550.12 Q1426.84 1550.12 1424.11 1551.75 Q1421.37 1553.37 1421.37 1557.29 Q1421.37 1560.4 1423.41 1562.25 Q1425.48 1564.07 1429.01 1564.07 Q1433.88 1564.07 1436.81 1560.63 Q1439.77 1557.16 1439.77 1551.43 L1439.77 1550.12 L1433.94 1550.12 M1445.62 1547.71 L1445.62 1568.04 L1439.77 1568.04 L1439.77 1562.63 Q1437.76 1565.88 1434.77 1567.44 Q1431.78 1568.97 1427.45 1568.97 Q1421.97 1568.97 1418.73 1565.91 Q1415.51 1562.82 1415.51 1557.67 Q1415.51 1551.65 1419.52 1548.6 Q1423.57 1545.54 1431.55 1545.54 L1439.77 1545.54 L1439.77 1544.97 Q1439.77 1540.93 1437.09 1538.73 Q1434.45 1536.5 1429.65 1536.5 Q1426.59 1536.5 1423.69 1537.23 Q1420.8 1537.97 1418.12 1539.43 L1418.12 1534.02 Q1421.34 1532.78 1424.36 1532.17 Q1427.39 1531.54 1430.25 1531.54 Q1437.98 1531.54 1441.8 1535.55 Q1445.62 1539.56 1445.62 1547.71 Z" fill="#000000" fill-rule="nonzero" fill-opacity="1" /><path clip-path="url(#clip650)" d="M1472.52 1571.35 Q1470.04 1577.72 1467.68 1579.66 Q1465.32 1581.6 1461.38 1581.6 L1456.7 1581.6 L1456.7 1576.7 L1460.14 1576.7 Q1462.56 1576.7 1463.89 1575.56 Q1465.23 1574.41 1466.85 1570.14 L1467.9 1567.47 L1453.48 1532.4 L1459.69 1532.4 L1470.83 1560.28 L1481.97 1532.4 L1488.18 1532.4 L1472.52 1571.35 Z" fill="#000000" fill-rule="nonzero" fill-opacity="1" /><path clip-path="url(#clip650)" d="M1518.99 1533.45 L1518.99 1538.98 Q1516.51 1537.71 1513.83 1537.07 Q1511.16 1536.44 1508.29 1536.44 Q1503.93 1536.44 1501.74 1537.77 Q1499.57 1539.11 1499.57 1541.79 Q1499.57 1543.82 1501.13 1545 Q1502.69 1546.15 1507.4 1547.2 L1509.41 1547.64 Q1515.65 1548.98 1518.26 1551.43 Q1520.9 1553.85 1520.9 1558.21 Q1520.9 1563.17 1516.95 1566.07 Q1513.04 1568.97 1506.16 1568.97 Q1503.3 1568.97 1500.18 1568.39 Q1497.09 1567.85 1493.65 1566.74 L1493.65 1560.69 Q1496.9 1562.38 1500.05 1563.24 Q1503.2 1564.07 1506.29 1564.07 Q1510.43 1564.07 1512.65 1562.66 Q1514.88 1561.23 1514.88 1558.65 Q1514.88 1556.27 1513.26 1554.99 Q1511.67 1553.72 1506.22 1552.54 L1504.19 1552.07 Q1498.74 1550.92 1496.33 1548.56 Q1493.91 1546.18 1493.91 1542.04 Q1493.91 1537.01 1497.47 1534.27 Q1501.04 1531.54 1507.59 1531.54 Q1510.84 1531.54 1513.7 1532.01 Q1516.57 1532.49 1518.99 1533.45 Z" fill="#000000" fill-rule="nonzero" fill-opacity="1" /><path clip-path="url(#clip650)" d="M1529.3 1518.58 L1534.39 1518.58 Q1539.17 1526.09 1541.52 1533.29 Q1543.91 1540.48 1543.91 1547.58 Q1543.91 1554.71 1541.52 1561.93 Q1539.17 1569.16 1534.39 1576.64 L1529.3 1576.64 Q1533.53 1569.35 1535.6 1562.16 Q1537.7 1554.93 1537.7 1547.58 Q1537.7 1540.23 1535.6 1533.06 Q1533.53 1525.9 1529.3 1518.58 Z" fill="#000000" fill-rule="nonzero" fill-opacity="1" /><polyline clip-path="url(#clip652)" style="stroke:#ffffff; stroke-linecap:round; stroke-linejoin:round; stroke-width:4; stroke-opacity:1; fill:none" points="369.703,1384.24 2352.76,1384.24 "/>
<polyline clip-path="url(#clip652)" style="stroke:#ffffff; stroke-linecap:round; stroke-linejoin:round; stroke-width:4; stroke-opacity:1; fill:none" points="369.703,1059.73 2352.76,1059.73 "/>
<polyline clip-path="url(#clip652)" style="stroke:#ffffff; stroke-linecap:round; stroke-linejoin:round; stroke-width:4; stroke-opacity:1; fill:none" points="369.703,735.212 2352.76,735.212 "/>
<polyline clip-path="url(#clip652)" style="stroke:#ffffff; stroke-linecap:round; stroke-linejoin:round; stroke-width:4; stroke-opacity:1; fill:none" points="369.703,410.699 2352.76,410.699 "/>
<polyline clip-path="url(#clip652)" style="stroke:#ffffff; stroke-linecap:round; stroke-linejoin:round; stroke-width:4; stroke-opacity:1; fill:none" points="369.703,86.1857 2352.76,86.1857 "/>
<polyline clip-path="url(#clip652)" style="stroke:#ffffff; stroke-linecap:round; stroke-linejoin:round; stroke-width:2; stroke-opacity:1; fill:none" points="369.703,1221.98 2352.76,1221.98 "/>
<polyline clip-path="url(#clip652)" style="stroke:#ffffff; stroke-linecap:round; stroke-linejoin:round; stroke-width:2; stroke-opacity:1; fill:none" points="369.703,897.469 2352.76,897.469 "/>
<polyline clip-path="url(#clip652)" style="stroke:#ffffff; stroke-linecap:round; stroke-linejoin:round; stroke-width:2; stroke-opacity:1; fill:none" points="369.703,572.955 2352.76,572.955 "/>
<polyline clip-path="url(#clip652)" style="stroke:#ffffff; stroke-linecap:round; stroke-linejoin:round; stroke-width:2; stroke-opacity:1; fill:none" points="369.703,248.442 2352.76,248.442 "/>
<polyline clip-path="url(#clip650)" style="stroke:#ffffff; stroke-linecap:round; stroke-linejoin:round; stroke-width:4; stroke-opacity:1; fill:none" points="369.703,1423.18 369.703,47.2441 "/>
<polyline clip-path="url(#clip650)" style="stroke:#333333; stroke-linecap:round; stroke-linejoin:round; stroke-width:4; stroke-opacity:1; fill:none" points="369.703,1384.24 350.806,1384.24 "/>
<polyline clip-path="url(#clip650)" style="stroke:#333333; stroke-linecap:round; stroke-linejoin:round; stroke-width:4; stroke-opacity:1; fill:none" points="369.703,1059.73 350.806,1059.73 "/>
<polyline clip-path="url(#clip650)" style="stroke:#333333; stroke-linecap:round; stroke-linejoin:round; stroke-width:4; stroke-opacity:1; fill:none" points="369.703,735.212 350.806,735.212 "/>
<polyline clip-path="url(#clip650)" style="stroke:#333333; stroke-linecap:round; stroke-linejoin:round; stroke-width:4; stroke-opacity:1; fill:none" points="369.703,410.699 350.806,410.699 "/>
<polyline clip-path="url(#clip650)" style="stroke:#333333; stroke-linecap:round; stroke-linejoin:round; stroke-width:4; stroke-opacity:1; fill:none" points="369.703,86.1857 350.806,86.1857 "/>
<polyline clip-path="url(#clip650)" style="stroke:#333333; stroke-linecap:round; stroke-linejoin:round; stroke-width:4; stroke-opacity:1; fill:none" points="369.703,1221.98 360.255,1221.98 "/>
<polyline clip-path="url(#clip650)" style="stroke:#333333; stroke-linecap:round; stroke-linejoin:round; stroke-width:4; stroke-opacity:1; fill:none" points="369.703,897.469 360.255,897.469 "/>
<polyline clip-path="url(#clip650)" style="stroke:#333333; stroke-linecap:round; stroke-linejoin:round; stroke-width:4; stroke-opacity:1; fill:none" points="369.703,572.955 360.255,572.955 "/>
<polyline clip-path="url(#clip650)" style="stroke:#333333; stroke-linecap:round; stroke-linejoin:round; stroke-width:4; stroke-opacity:1; fill:none" points="369.703,248.442 360.255,248.442 "/>
<path clip-path="url(#clip650)" d="M303.759 1370.04 Q300.148 1370.04 298.319 1373.6 Q296.514 1377.14 296.514 1384.27 Q296.514 1391.38 298.319 1394.94 Q300.148 1398.49 303.759 1398.49 Q307.393 1398.49 309.199 1394.94 Q311.028 1391.38 311.028 1384.27 Q311.028 1377.14 309.199 1373.6 Q307.393 1370.04 303.759 1370.04 M303.759 1366.33 Q309.569 1366.33 312.625 1370.94 Q315.703 1375.52 315.703 1384.27 Q315.703 1393 312.625 1397.61 Q309.569 1402.19 303.759 1402.19 Q297.949 1402.19 294.87 1397.61 Q291.815 1393 291.815 1384.27 Q291.815 1375.52 294.87 1370.94 Q297.949 1366.33 303.759 1366.33 Z" fill="#4c4c4c" fill-rule="nonzero" fill-opacity="1" /><path clip-path="url(#clip650)" d="M101.885 1079.52 L118.204 1079.52 L118.204 1083.45 L96.2602 1083.45 L96.2602 1079.52 Q98.9222 1076.76 103.505 1072.13 Q108.112 1067.48 109.292 1066.14 Q111.538 1063.61 112.417 1061.88 Q113.32 1060.12 113.32 1058.43 Q113.32 1055.68 111.376 1053.94 Q109.455 1052.2 106.353 1052.2 Q104.154 1052.2 101.7 1052.97 Q99.2694 1053.73 96.4916 1055.28 L96.4916 1050.56 Q99.3157 1049.43 101.769 1048.85 Q104.223 1048.27 106.26 1048.27 Q111.63 1048.27 114.825 1050.95 Q118.019 1053.64 118.019 1058.13 Q118.019 1060.26 117.209 1062.18 Q116.422 1064.08 114.316 1066.67 Q113.737 1067.34 110.635 1070.56 Q107.533 1073.75 101.885 1079.52 Z" fill="#4c4c4c" fill-rule="nonzero" fill-opacity="1" /><path clip-path="url(#clip650)" d="M128.019 1077.57 L132.903 1077.57 L132.903 1083.45 L128.019 1083.45 L128.019 1077.57 Z" fill="#4c4c4c" fill-rule="nonzero" fill-opacity="1" /><path clip-path="url(#clip650)" d="M143.135 1048.89 L161.491 1048.89 L161.491 1052.83 L147.417 1052.83 L147.417 1061.3 Q148.436 1060.95 149.454 1060.79 Q150.473 1060.61 151.491 1060.61 Q157.278 1060.61 160.658 1063.78 Q164.038 1066.95 164.038 1072.36 Q164.038 1077.94 160.565 1081.05 Q157.093 1084.12 150.774 1084.12 Q148.598 1084.12 146.329 1083.75 Q144.084 1083.38 141.677 1082.64 L141.677 1077.94 Q143.76 1079.08 145.982 1079.63 Q148.204 1080.19 150.681 1080.19 Q154.686 1080.19 157.024 1078.08 Q159.362 1075.98 159.362 1072.36 Q159.362 1068.75 157.024 1066.65 Q154.686 1064.54 150.681 1064.54 Q148.806 1064.54 146.931 1064.96 Q145.079 1065.37 143.135 1066.25 L143.135 1048.89 Z" fill="#4c4c4c" fill-rule="nonzero" fill-opacity="1" /><path clip-path="url(#clip650)" d="M183.25 1051.97 Q179.639 1051.97 177.811 1055.54 Q176.005 1059.08 176.005 1066.21 Q176.005 1073.31 177.811 1076.88 Q179.639 1080.42 183.25 1080.42 Q186.885 1080.42 188.69 1076.88 Q190.519 1073.31 190.519 1066.21 Q190.519 1059.08 188.69 1055.54 Q186.885 1051.97 183.25 1051.97 M183.25 1048.27 Q189.061 1048.27 192.116 1052.87 Q195.195 1057.46 195.195 1066.21 Q195.195 1074.93 192.116 1079.54 Q189.061 1084.12 183.25 1084.12 Q177.44 1084.12 174.362 1079.54 Q171.306 1074.93 171.306 1066.21 Q171.306 1057.46 174.362 1052.87 Q177.44 1048.27 183.25 1048.27 Z" fill="#4c4c4c" fill-rule="nonzero" fill-opacity="1" /><path clip-path="url(#clip650)" d="M231.584 1057.99 L221.005 1068.61 L231.584 1079.19 L228.829 1081.99 L218.204 1071.37 L207.579 1081.99 L204.848 1079.19 L215.403 1068.61 L204.848 1057.99 L207.579 1055.19 L218.204 1065.81 L228.829 1055.19 L231.584 1057.99 Z" fill="#4c4c4c" fill-rule="nonzero" fill-opacity="1" /><path clip-path="url(#clip650)" d="M243.945 1079.52 L251.583 1079.52 L251.583 1053.15 L243.273 1054.82 L243.273 1050.56 L251.537 1048.89 L256.213 1048.89 L256.213 1079.52 L263.852 1079.52 L263.852 1083.45 L243.945 1083.45 L243.945 1079.52 Z" fill="#4c4c4c" fill-rule="nonzero" fill-opacity="1" /><path clip-path="url(#clip650)" d="M283.296 1051.97 Q279.685 1051.97 277.856 1055.54 Q276.051 1059.08 276.051 1066.21 Q276.051 1073.31 277.856 1076.88 Q279.685 1080.42 283.296 1080.42 Q286.93 1080.42 288.736 1076.88 Q290.565 1073.31 290.565 1066.21 Q290.565 1059.08 288.736 1055.54 Q286.93 1051.97 283.296 1051.97 M283.296 1048.27 Q289.106 1048.27 292.162 1052.87 Q295.241 1057.46 295.241 1066.21 Q295.241 1074.93 292.162 1079.54 Q289.106 1084.12 283.296 1084.12 Q277.486 1084.12 274.407 1079.54 Q271.352 1074.93 271.352 1066.21 Q271.352 1057.46 274.407 1052.87 Q277.486 1048.27 283.296 1048.27 Z" fill="#4c4c4c" fill-rule="nonzero" fill-opacity="1" /><path clip-path="url(#clip650)" d="M307.917 1031.27 L298.325 1046.26 L307.917 1046.26 L307.917 1031.27 M306.92 1027.96 L311.697 1027.96 L311.697 1046.26 L315.703 1046.26 L315.703 1049.42 L311.697 1049.42 L311.697 1056.04 L307.917 1056.04 L307.917 1049.42 L295.241 1049.42 L295.241 1045.75 L306.92 1027.96 Z" fill="#4c4c4c" fill-rule="nonzero" fill-opacity="1" /><path clip-path="url(#clip650)" d="M97.9037 724.38 L116.26 724.38 L116.26 728.315 L102.186 728.315 L102.186 736.787 Q103.205 736.44 104.223 736.278 Q105.242 736.092 106.26 736.092 Q112.047 736.092 115.427 739.264 Q118.806 742.435 118.806 747.852 Q118.806 753.43 115.334 756.532 Q111.862 759.611 105.543 759.611 Q103.367 759.611 101.098 759.24 Q98.8527 758.87 96.4453 758.129 L96.4453 753.43 Q98.5287 754.565 100.751 755.12 Q102.973 755.676 105.45 755.676 Q109.455 755.676 111.792 753.569 Q114.13 751.463 114.13 747.852 Q114.13 744.241 111.792 742.134 Q109.455 740.028 105.45 740.028 Q103.575 740.028 101.7 740.444 Q99.8481 740.861 97.9037 741.741 L97.9037 724.38 Z" fill="#4c4c4c" fill-rule="nonzero" fill-opacity="1" /><path clip-path="url(#clip650)" d="M128.019 753.06 L132.903 753.06 L132.903 758.94 L128.019 758.94 L128.019 753.06 Z" fill="#4c4c4c" fill-rule="nonzero" fill-opacity="1" /><path clip-path="url(#clip650)" d="M153.089 727.458 Q149.477 727.458 147.649 731.023 Q145.843 734.565 145.843 741.694 Q145.843 748.801 147.649 752.366 Q149.477 755.907 153.089 755.907 Q156.723 755.907 158.528 752.366 Q160.357 748.801 160.357 741.694 Q160.357 734.565 158.528 731.023 Q156.723 727.458 153.089 727.458 M153.089 723.755 Q158.899 723.755 161.954 728.361 Q165.033 732.944 165.033 741.694 Q165.033 750.421 161.954 755.028 Q158.899 759.611 153.089 759.611 Q147.278 759.611 144.2 755.028 Q141.144 750.421 141.144 741.694 Q141.144 732.944 144.2 728.361 Q147.278 723.755 153.089 723.755 Z" fill="#4c4c4c" fill-rule="nonzero" fill-opacity="1" /><path clip-path="url(#clip650)" d="M183.25 727.458 Q179.639 727.458 177.811 731.023 Q176.005 734.565 176.005 741.694 Q176.005 748.801 177.811 752.366 Q179.639 755.907 183.25 755.907 Q186.885 755.907 188.69 752.366 Q190.519 748.801 190.519 741.694 Q190.519 734.565 188.69 731.023 Q186.885 727.458 183.25 727.458 M183.25 723.755 Q189.061 723.755 192.116 728.361 Q195.195 732.944 195.195 741.694 Q195.195 750.421 192.116 755.028 Q189.061 759.611 183.25 759.611 Q177.44 759.611 174.362 755.028 Q171.306 750.421 171.306 741.694 Q171.306 732.944 174.362 728.361 Q177.44 723.755 183.25 723.755 Z" fill="#4c4c4c" fill-rule="nonzero" fill-opacity="1" /><path clip-path="url(#clip650)" d="M231.584 733.477 L221.005 744.102 L231.584 754.68 L228.829 757.481 L218.204 746.856 L207.579 757.481 L204.848 754.68 L215.403 744.102 L204.848 733.477 L207.579 730.676 L218.204 741.301 L228.829 730.676 L231.584 733.477 Z" fill="#4c4c4c" fill-rule="nonzero" fill-opacity="1" /><path clip-path="url(#clip650)" d="M243.945 755.004 L251.583 755.004 L251.583 728.639 L243.273 730.305 L243.273 726.046 L251.537 724.38 L256.213 724.38 L256.213 755.004 L263.852 755.004 L263.852 758.94 L243.945 758.94 L243.945 755.004 Z" fill="#4c4c4c" fill-rule="nonzero" fill-opacity="1" /><path clip-path="url(#clip650)" d="M283.296 727.458 Q279.685 727.458 277.856 731.023 Q276.051 734.565 276.051 741.694 Q276.051 748.801 277.856 752.366 Q279.685 755.907 283.296 755.907 Q286.93 755.907 288.736 752.366 Q290.565 748.801 290.565 741.694 Q290.565 734.565 288.736 731.023 Q286.93 727.458 283.296 727.458 M283.296 723.755 Q289.106 723.755 292.162 728.361 Q295.241 732.944 295.241 741.694 Q295.241 750.421 292.162 755.028 Q289.106 759.611 283.296 759.611 Q277.486 759.611 274.407 755.028 Q271.352 750.421 271.352 741.694 Q271.352 732.944 274.407 728.361 Q277.486 723.755 283.296 723.755 Z" fill="#4c4c4c" fill-rule="nonzero" fill-opacity="1" /><path clip-path="url(#clip650)" d="M307.917 706.759 L298.325 721.749 L307.917 721.749 L307.917 706.759 M306.92 703.449 L311.697 703.449 L311.697 721.749 L315.703 721.749 L315.703 724.909 L311.697 724.909 L311.697 731.529 L307.917 731.529 L307.917 724.909 L295.241 724.909 L295.241 721.241 L306.92 703.449 Z" fill="#4c4c4c" fill-rule="nonzero" fill-opacity="1" /><path clip-path="url(#clip650)" d="M96.6768 399.866 L118.899 399.866 L118.899 401.857 L106.353 434.426 L101.468 434.426 L113.274 403.802 L96.6768 403.802 L96.6768 399.866 Z" fill="#4c4c4c" fill-rule="nonzero" fill-opacity="1" /><path clip-path="url(#clip650)" d="M128.019 428.547 L132.903 428.547 L132.903 434.426 L128.019 434.426 L128.019 428.547 Z" fill="#4c4c4c" fill-rule="nonzero" fill-opacity="1" /><path clip-path="url(#clip650)" d="M143.135 399.866 L161.491 399.866 L161.491 403.802 L147.417 403.802 L147.417 412.274 Q148.436 411.927 149.454 411.765 Q150.473 411.579 151.491 411.579 Q157.278 411.579 160.658 414.751 Q164.038 417.922 164.038 423.339 Q164.038 428.917 160.565 432.019 Q157.093 435.098 150.774 435.098 Q148.598 435.098 146.329 434.727 Q144.084 434.357 141.677 433.616 L141.677 428.917 Q143.76 430.051 145.982 430.607 Q148.204 431.163 150.681 431.163 Q154.686 431.163 157.024 429.056 Q159.362 426.95 159.362 423.339 Q159.362 419.727 157.024 417.621 Q154.686 415.514 150.681 415.514 Q148.806 415.514 146.931 415.931 Q145.079 416.348 143.135 417.227 L143.135 399.866 Z" fill="#4c4c4c" fill-rule="nonzero" fill-opacity="1" /><path clip-path="url(#clip650)" d="M183.25 402.945 Q179.639 402.945 177.811 406.51 Q176.005 410.052 176.005 417.181 Q176.005 424.288 177.811 427.852 Q179.639 431.394 183.25 431.394 Q186.885 431.394 188.69 427.852 Q190.519 424.288 190.519 417.181 Q190.519 410.052 188.69 406.51 Q186.885 402.945 183.25 402.945 M183.25 399.241 Q189.061 399.241 192.116 403.848 Q195.195 408.431 195.195 417.181 Q195.195 425.908 192.116 430.514 Q189.061 435.098 183.25 435.098 Q177.44 435.098 174.362 430.514 Q171.306 425.908 171.306 417.181 Q171.306 408.431 174.362 403.848 Q177.44 399.241 183.25 399.241 Z" fill="#4c4c4c" fill-rule="nonzero" fill-opacity="1" /><path clip-path="url(#clip650)" d="M231.584 408.964 L221.005 419.589 L231.584 430.167 L228.829 432.968 L218.204 422.343 L207.579 432.968 L204.848 430.167 L215.403 419.589 L204.848 408.964 L207.579 406.163 L218.204 416.788 L228.829 406.163 L231.584 408.964 Z" fill="#4c4c4c" fill-rule="nonzero" fill-opacity="1" /><path clip-path="url(#clip650)" d="M243.945 430.491 L251.583 430.491 L251.583 404.126 L243.273 405.792 L243.273 401.533 L251.537 399.866 L256.213 399.866 L256.213 430.491 L263.852 430.491 L263.852 434.426 L243.945 434.426 L243.945 430.491 Z" fill="#4c4c4c" fill-rule="nonzero" fill-opacity="1" /><path clip-path="url(#clip650)" d="M283.296 402.945 Q279.685 402.945 277.856 406.51 Q276.051 410.052 276.051 417.181 Q276.051 424.288 277.856 427.852 Q279.685 431.394 283.296 431.394 Q286.93 431.394 288.736 427.852 Q290.565 424.288 290.565 417.181 Q290.565 410.052 288.736 406.51 Q286.93 402.945 283.296 402.945 M283.296 399.241 Q289.106 399.241 292.162 403.848 Q295.241 408.431 295.241 417.181 Q295.241 425.908 292.162 430.514 Q289.106 435.098 283.296 435.098 Q277.486 435.098 274.407 430.514 Q271.352 425.908 271.352 417.181 Q271.352 408.431 274.407 403.848 Q277.486 399.241 283.296 399.241 Z" fill="#4c4c4c" fill-rule="nonzero" fill-opacity="1" /><path clip-path="url(#clip650)" d="M307.917 382.246 L298.325 397.236 L307.917 397.236 L307.917 382.246 M306.92 378.936 L311.697 378.936 L311.697 397.236 L315.703 397.236 L315.703 400.396 L311.697 400.396 L311.697 407.016 L307.917 407.016 L307.917 400.396 L295.241 400.396 L295.241 396.728 L306.92 378.936 Z" fill="#4c4c4c" fill-rule="nonzero" fill-opacity="1" /><path clip-path="url(#clip650)" d="M100.962 105.978 L108.601 105.978 L108.601 79.6125 L100.291 81.2792 L100.291 77.0199 L108.555 75.3533 L113.231 75.3533 L113.231 105.978 L120.869 105.978 L120.869 109.913 L100.962 109.913 L100.962 105.978 Z" fill="#4c4c4c" fill-rule="nonzero" fill-opacity="1" /><path clip-path="url(#clip650)" d="M130.314 104.034 L135.198 104.034 L135.198 109.913 L130.314 109.913 L130.314 104.034 Z" fill="#4c4c4c" fill-rule="nonzero" fill-opacity="1" /><path clip-path="url(#clip650)" d="M155.383 78.432 Q151.772 78.432 149.943 81.9968 Q148.138 85.5384 148.138 92.668 Q148.138 99.7744 149.943 103.339 Q151.772 106.881 155.383 106.881 Q159.017 106.881 160.823 103.339 Q162.652 99.7744 162.652 92.668 Q162.652 85.5384 160.823 81.9968 Q159.017 78.432 155.383 78.432 M155.383 74.7283 Q161.193 74.7283 164.249 79.3347 Q167.327 83.918 167.327 92.668 Q167.327 101.395 164.249 106.001 Q161.193 110.585 155.383 110.585 Q149.573 110.585 146.494 106.001 Q143.439 101.395 143.439 92.668 Q143.439 83.918 146.494 79.3347 Q149.573 74.7283 155.383 74.7283 Z" fill="#4c4c4c" fill-rule="nonzero" fill-opacity="1" /><path clip-path="url(#clip650)" d="M185.545 78.432 Q181.934 78.432 180.105 81.9968 Q178.3 85.5384 178.3 92.668 Q178.3 99.7744 180.105 103.339 Q181.934 106.881 185.545 106.881 Q189.179 106.881 190.985 103.339 Q192.813 99.7744 192.813 92.668 Q192.813 85.5384 190.985 81.9968 Q189.179 78.432 185.545 78.432 M185.545 74.7283 Q191.355 74.7283 194.411 79.3347 Q197.489 83.918 197.489 92.668 Q197.489 101.395 194.411 106.001 Q191.355 110.585 185.545 110.585 Q179.735 110.585 176.656 106.001 Q173.601 101.395 173.601 92.668 Q173.601 83.918 176.656 79.3347 Q179.735 74.7283 185.545 74.7283 Z" fill="#4c4c4c" fill-rule="nonzero" fill-opacity="1" /><path clip-path="url(#clip650)" d="M233.878 84.4504 L223.299 95.0754 L233.878 105.654 L231.123 108.455 L220.498 97.83 L209.874 108.455 L207.142 105.654 L217.698 95.0754 L207.142 84.4504 L209.874 81.6495 L220.498 92.2745 L231.123 81.6495 L233.878 84.4504 Z" fill="#4c4c4c" fill-rule="nonzero" fill-opacity="1" /><path clip-path="url(#clip650)" d="M246.239 105.978 L253.878 105.978 L253.878 79.6125 L245.568 81.2792 L245.568 77.0199 L253.832 75.3533 L258.508 75.3533 L258.508 105.978 L266.146 105.978 L266.146 109.913 L246.239 109.913 L246.239 105.978 Z" fill="#4c4c4c" fill-rule="nonzero" fill-opacity="1" /><path clip-path="url(#clip650)" d="M285.591 78.432 Q281.98 78.432 280.151 81.9968 Q278.345 85.5384 278.345 92.668 Q278.345 99.7744 280.151 103.339 Q281.98 106.881 285.591 106.881 Q289.225 106.881 291.031 103.339 Q292.859 99.7744 292.859 92.668 Q292.859 85.5384 291.031 81.9968 Q289.225 78.432 285.591 78.432 M285.591 74.7283 Q291.401 74.7283 294.456 79.3347 Q297.535 83.918 297.535 92.668 Q297.535 101.395 294.456 106.001 Q291.401 110.585 285.591 110.585 Q279.781 110.585 276.702 106.001 Q273.646 101.395 273.646 92.668 Q273.646 83.918 276.702 79.3347 Q279.781 74.7283 285.591 74.7283 Z" fill="#4c4c4c" fill-rule="nonzero" fill-opacity="1" /><path clip-path="url(#clip650)" d="M298.72 54.4229 L313.635 54.4229 L313.635 57.6202 L302.199 57.6202 L302.199 64.5038 Q303.027 64.2217 303.855 64.0901 Q304.682 63.9396 305.51 63.9396 Q310.212 63.9396 312.957 66.5163 Q315.703 69.0929 315.703 73.494 Q315.703 78.0266 312.882 80.5469 Q310.061 83.0483 304.927 83.0483 Q303.159 83.0483 301.315 82.7474 Q299.491 82.4464 297.535 81.8446 L297.535 78.0266 Q299.228 78.9482 301.033 79.3996 Q302.839 79.851 304.851 79.851 Q308.105 79.851 310.005 78.1395 Q311.904 76.428 311.904 73.494 Q311.904 70.5599 310.005 68.8484 Q308.105 67.1369 304.851 67.1369 Q303.328 67.1369 301.804 67.4755 Q300.3 67.814 298.72 68.5287 L298.72 54.4229 Z" fill="#4c4c4c" fill-rule="nonzero" fill-opacity="1" /><path clip-path="url(#clip650)" d="M58.657 897.028 L77.5631 897.028 L77.5631 902.917 L28.3562 902.917 L28.3562 897.028 L33.7671 897.028 Q30.5842 895.182 29.0564 892.381 Q27.4968 889.549 27.4968 885.634 Q27.4968 879.141 32.6531 875.098 Q37.8093 871.024 46.212 871.024 Q54.6147 871.024 59.771 875.098 Q64.9272 879.141 64.9272 885.634 Q64.9272 889.549 63.3994 892.381 Q61.8398 895.182 58.657 897.028 M46.212 877.104 Q39.7508 877.104 36.0905 879.777 Q32.3984 882.419 32.3984 887.066 Q32.3984 891.713 36.0905 894.386 Q39.7508 897.028 46.212 897.028 Q52.6732 897.028 56.3653 894.386 Q60.0256 891.713 60.0256 887.066 Q60.0256 882.419 56.3653 879.777 Q52.6732 877.104 46.212 877.104 Z" fill="#000000" fill-rule="nonzero" fill-opacity="1" /><path clip-path="url(#clip650)" d="M32.4621 847.503 Q32.4621 852.214 36.1542 854.951 Q39.8145 857.688 46.212 857.688 Q52.6095 857.688 56.3017 854.983 Q59.9619 852.245 59.9619 847.503 Q59.9619 842.824 56.2698 840.087 Q52.5777 837.35 46.212 837.35 Q39.8781 837.35 36.186 840.087 Q32.4621 842.824 32.4621 847.503 M27.4968 847.503 Q27.4968 839.864 32.4621 835.504 Q37.4273 831.143 46.212 831.143 Q54.9649 831.143 59.9619 835.504 Q64.9272 839.864 64.9272 847.503 Q64.9272 855.174 59.9619 859.534 Q54.9649 863.863 46.212 863.863 Q37.4273 863.863 32.4621 859.534 Q27.4968 855.174 27.4968 847.503 Z" fill="#000000" fill-rule="nonzero" fill-opacity="1" /><path clip-path="url(#clip650)" d="M58.657 815.77 L77.5631 815.77 L77.5631 821.658 L28.3562 821.658 L28.3562 815.77 L33.7671 815.77 Q30.5842 813.924 29.0564 811.123 Q27.4968 808.29 27.4968 804.375 Q27.4968 797.882 32.6531 793.84 Q37.8093 789.766 46.212 789.766 Q54.6147 789.766 59.771 793.84 Q64.9272 797.882 64.9272 804.375 Q64.9272 808.29 63.3994 811.123 Q61.8398 813.924 58.657 815.77 M46.212 795.845 Q39.7508 795.845 36.0905 798.519 Q32.3984 801.161 32.3984 805.808 Q32.3984 810.455 36.0905 813.128 Q39.7508 815.77 46.212 815.77 Q52.6732 815.77 56.3653 813.128 Q60.0256 810.455 60.0256 805.808 Q60.0256 801.161 56.3653 798.519 Q52.6732 795.845 46.212 795.845 Z" fill="#000000" fill-rule="nonzero" fill-opacity="1" /><path clip-path="url(#clip650)" d="M49.9359 780.663 L28.3562 780.663 L28.3562 774.807 L49.7131 774.807 Q54.7739 774.807 57.3202 772.833 Q59.8346 770.86 59.8346 766.913 Q59.8346 762.171 56.8109 759.433 Q53.7872 756.664 48.5673 756.664 L28.3562 756.664 L28.3562 750.808 L64.0042 750.808 L64.0042 756.664 L58.5296 756.664 Q61.7762 758.797 63.3676 761.63 Q64.9272 764.431 64.9272 768.155 Q64.9272 774.297 61.1078 777.48 Q57.2883 780.663 49.9359 780.663 M27.4968 765.927 L27.4968 765.927 Z" fill="#000000" fill-rule="nonzero" fill-opacity="1" /><path clip-path="url(#clip650)" d="M14.479 738.745 L14.479 732.888 L64.0042 732.888 L64.0042 738.745 L14.479 738.745 Z" fill="#000000" fill-rule="nonzero" fill-opacity="1" /><path clip-path="url(#clip650)" d="M46.0847 704.434 Q46.0847 711.532 47.7079 714.269 Q49.3312 717.006 53.2461 717.006 Q56.3653 717.006 58.2114 714.969 Q60.0256 712.9 60.0256 709.367 Q60.0256 704.497 56.5881 701.569 Q53.1188 698.609 47.3897 698.609 L46.0847 698.609 L46.0847 704.434 M43.6657 692.753 L64.0042 692.753 L64.0042 698.609 L58.5933 698.609 Q61.8398 700.614 63.3994 703.606 Q64.9272 706.598 64.9272 710.927 Q64.9272 716.401 61.8716 719.648 Q58.7843 722.862 53.6281 722.862 Q47.6125 722.862 44.5569 718.852 Q41.5014 714.81 41.5014 706.821 L41.5014 698.609 L40.9285 698.609 Q36.8862 698.609 34.6901 701.283 Q32.4621 703.925 32.4621 708.731 Q32.4621 711.786 33.1941 714.683 Q33.9262 717.579 35.3903 720.253 L29.9795 720.253 Q28.7381 717.038 28.1334 714.014 Q27.4968 710.99 27.4968 708.126 Q27.4968 700.392 31.5072 696.572 Q35.5176 692.753 43.6657 692.753 Z" fill="#000000" fill-rule="nonzero" fill-opacity="1" /><path clip-path="url(#clip650)" d="M18.2347 674.897 L28.3562 674.897 L28.3562 662.834 L32.9077 662.834 L32.9077 674.897 L52.2594 674.897 Q56.6199 674.897 57.8613 673.719 Q59.1026 672.51 59.1026 668.849 L59.1026 662.834 L64.0042 662.834 L64.0042 668.849 Q64.0042 675.629 61.4897 678.207 Q58.9434 680.785 52.2594 680.785 L32.9077 680.785 L32.9077 685.082 L28.3562 685.082 L28.3562 680.785 L18.2347 680.785 L18.2347 674.897 Z" fill="#000000" fill-rule="nonzero" fill-opacity="1" /><path clip-path="url(#clip650)" d="M28.3562 655.131 L28.3562 649.275 L64.0042 649.275 L64.0042 655.131 L28.3562 655.131 M14.479 655.131 L14.479 649.275 L21.895 649.275 L21.895 655.131 L14.479 655.131 Z" fill="#000000" fill-rule="nonzero" fill-opacity="1" /><path clip-path="url(#clip650)" d="M32.4621 623.207 Q32.4621 627.918 36.1542 630.655 Q39.8145 633.392 46.212 633.392 Q52.6095 633.392 56.3017 630.687 Q59.9619 627.95 59.9619 623.207 Q59.9619 618.529 56.2698 615.791 Q52.5777 613.054 46.212 613.054 Q39.8781 613.054 36.186 615.791 Q32.4621 618.529 32.4621 623.207 M27.4968 623.207 Q27.4968 615.569 32.4621 611.208 Q37.4273 606.847 46.212 606.847 Q54.9649 606.847 59.9619 611.208 Q64.9272 615.569 64.9272 623.207 Q64.9272 630.878 59.9619 635.239 Q54.9649 639.567 46.212 639.567 Q37.4273 639.567 32.4621 635.239 Q27.4968 630.878 27.4968 623.207 Z" fill="#000000" fill-rule="nonzero" fill-opacity="1" /><path clip-path="url(#clip650)" d="M42.4881 567.507 L64.0042 567.507 L64.0042 573.364 L42.679 573.364 Q37.6183 573.364 35.1038 575.337 Q32.5894 577.311 32.5894 581.257 Q32.5894 586 35.6131 588.737 Q38.6368 591.474 43.8567 591.474 L64.0042 591.474 L64.0042 597.363 L28.3562 597.363 L28.3562 591.474 L33.8944 591.474 Q30.6797 589.374 29.0883 586.541 Q27.4968 583.676 27.4968 579.952 Q27.4968 573.809 31.3163 570.658 Q35.1038 567.507 42.4881 567.507 Z" fill="#000000" fill-rule="nonzero" fill-opacity="1" /><polyline clip-path="url(#clip652)" style="stroke:#009af9; stroke-linecap:round; stroke-linejoin:round; stroke-width:4; stroke-opacity:1; fill:none" points="425.828,86.3155 427.7,86.3249 429.573,86.3345 431.446,86.3443 433.318,86.3543 435.191,86.3644 437.064,86.3747 438.936,86.3853 440.809,86.396 442.682,86.4069 444.554,86.418 446.427,86.4293 448.3,86.4408 450.172,86.4525 452.045,86.4644 453.918,86.4766 455.79,86.4889 457.663,86.5015 459.536,86.5143 461.408,86.5274 463.281,86.5407 465.154,86.5542 467.026,86.568 468.899,86.582 470.772,86.5963 472.644,86.6108 474.517,86.6256 476.39,86.6407 478.263,86.656 480.135,86.6716 482.008,86.6876 483.881,86.7037 485.753,86.7202 487.626,86.737 489.499,86.7541 491.371,86.7715 493.244,86.7892 495.117,86.8073 496.989,86.8256 498.862,86.8443 500.735,86.8634 502.607,86.8827 504.48,86.9025 506.353,86.9226 508.225,86.943 510.098,86.9638 511.971,86.985 513.843,87.0066 515.716,87.0286 517.589,87.051 519.461,87.0738 521.334,87.097 523.207,87.1206 525.079,87.1446 526.952,87.1691 528.825,87.194 530.697,87.2194 532.57,87.2452 534.443,87.2715 536.315,87.2983 538.188,87.3256 540.061,87.3533 541.934,87.3816 543.806,87.4103 545.679,87.4396 547.552,87.4694 549.424,87.4998 551.297,87.5307 553.17,87.5621 555.042,87.5942 556.915,87.6268 558.788,87.66 560.66,87.6938 562.533,87.7282 564.406,87.7632 566.278,87.7989 568.151,87.8352 570.024,87.8722 571.896,87.9098 573.769,87.9481 575.642,87.9871 577.514,88.0268 579.387,88.0672 581.26,88.1084 583.132,88.1503 585.005,88.1929 586.878,88.2364 588.75,88.2806 590.623,88.3256 592.496,88.3714 594.368,88.418 596.241,88.4655 598.114,88.5138 599.987,88.563 601.859,88.6131 603.732,88.6641 605.605,88.716 607.477,88.7689 609.35,88.8226 611.223,88.8774 613.095,88.9332 614.968,88.9899 616.841,89.0477 618.713,89.1065 620.586,89.1663 622.459,89.2273 624.331,89.2893 626.204,89.3524 628.077,89.4167 629.949,89.4822 631.822,89.5488 633.695,89.6166 635.567,89.6856 637.44,89.7558 639.313,89.8273 641.185,89.9001 643.058,89.9742 644.931,90.0497 646.803,90.1265 648.676,90.2046 650.549,90.2842 652.421,90.3651 654.294,90.4476 656.167,90.5315 658.039,90.6169 659.912,90.7038 661.785,90.7923 663.658,90.8823 665.53,90.974 667.403,91.0673 669.276,91.1622 671.148,91.2589 673.021,91.3573 674.894,91.4574 676.766,91.5593 678.639,91.663 680.512,91.7686 682.384,91.876 684.257,91.9853 686.13,92.0966 688.002,92.2099 689.875,92.3252 691.748,92.4425 693.62,92.5619 695.493,92.6834 697.366,92.8071 699.238,92.9329 701.111,93.061 702.984,93.1914 704.856,93.324 706.729,93.459 708.602,93.5964 710.474,93.7362 712.347,93.8785 714.22,94.0233 716.092,94.1707 717.965,94.3207 719.838,94.4733 721.711,94.6285 723.583,94.7865 725.456,94.9473 727.329,95.1109 729.201,95.2774 731.074,95.4468 732.947,95.6192 734.819,95.7945 736.692,95.973 738.565,96.1545 740.437,96.3393 742.31,96.5272 744.183,96.7184 746.055,96.913 747.928,97.1109 749.801,97.3123 751.673,97.5172 753.546,97.7257 755.419,97.9377 757.291,98.1535 759.164,98.373 761.037,98.5962 762.909,98.8234 764.782,99.0545 766.655,99.2895 768.527,99.5287 770.4,99.7719 772.273,100.019 774.145,100.271 776.018,100.527 777.891,100.788 779.763,101.052 781.636,101.322 783.509,101.596 785.382,101.875 787.254,102.158 789.127,102.447 791,102.74 792.872,103.038 794.745,103.341 796.618,103.65 798.49,103.964 800.363,104.283 802.236,104.607 804.108,104.937 805.981,105.272 807.854,105.613 809.726,105.96 811.599,106.313 813.472,106.671 815.344,107.036 817.217,107.406 819.09,107.783 820.962,108.166 822.835,108.555 824.708,108.951 826.58,109.353 828.453,109.762 830.326,110.178 832.198,110.601 834.071,111.031 835.944,111.467 837.816,111.911 839.689,112.362 841.562,112.821 843.435,113.287 845.307,113.76 847.18,114.242 849.053,114.731 850.925,115.228 852.798,115.733 854.671,116.246 856.543,116.768 858.416,117.297 860.289,117.836 862.161,118.383 864.034,118.938 865.907,119.503 867.779,120.076 869.652,120.659 871.525,121.25 873.397,121.851 875.27,122.461 877.143,123.081 879.015,123.711 880.888,124.35 882.761,125 884.633,125.659 886.506,126.328 888.379,127.008 890.251,127.698 892.124,128.399 893.997,129.11 895.869,129.832 897.742,130.565 899.615,131.309 901.487,132.064 903.36,132.831 905.233,133.608 907.106,134.398 908.978,135.199 910.851,136.011 912.724,136.836 914.596,137.673 916.469,138.522 918.342,139.383 920.214,140.257 922.087,141.144 923.96,142.043 925.832,142.956 927.705,143.881 929.578,144.819 931.45,145.771 933.323,146.736 935.196,147.715 937.068,148.707 938.941,149.713 940.814,150.733 942.686,151.767 944.559,152.815 946.432,153.877 948.304,154.954 950.177,156.045 952.05,157.15 953.922,158.27 955.795,159.405 957.668,160.555 959.54,161.72 961.413,162.899 963.286,164.094 965.159,165.305 967.031,166.53 968.904,167.771 970.777,169.027 972.649,170.3 974.522,171.587 976.395,172.891 978.267,174.21 980.14,175.546 982.013,176.897 983.885,178.264 985.758,179.648 987.631,181.048 989.503,182.464 991.376,183.897 993.249,185.346 995.121,186.812 996.994,188.294 998.867,189.792 1000.74,191.308 1002.61,192.84 1004.48,194.388 1006.36,195.953 1008.23,197.535 1010.1,199.134 1011.98,200.749 1013.85,202.381 1015.72,204.03 1017.59,205.696 1019.47,207.378 1021.34,209.077 1023.21,210.792 1025.08,212.525 1026.96,214.273 1028.83,216.039 1030.7,217.82 1032.57,219.619 1034.45,221.433 1036.32,223.264 1038.19,225.111 1040.07,226.974 1041.94,228.853 1043.81,230.749 1045.68,232.66 1047.56,234.586 1049.43,236.529 1051.3,238.487 1053.17,240.46 1055.05,242.448 1056.92,244.452 1058.79,246.471 1060.67,248.504 1062.54,250.552 1064.41,252.615 1066.28,254.692 1068.16,256.783 1070.03,258.889 1071.9,261.008 1073.77,263.14 1075.65,265.286 1077.52,267.446 1079.39,269.618 1081.26,271.803 1083.14,274.001 1085.01,276.211 1086.88,278.433 1088.76,280.667 1090.63,282.913 1092.5,285.17 1094.37,287.439 1096.25,289.718 1098.12,292.008 1099.99,294.308 1101.86,296.618 1103.74,298.939 1105.61,301.27 1107.48,303.61 1109.35,305.96 1111.23,308.318 1113.1,310.686 1114.97,313.061 1116.85,315.444 1118.72,317.834 1120.59,320.231 1122.46,322.635 1124.34,325.045 1126.21,327.461 1128.08,329.883 1129.95,332.309 1131.83,334.741 1133.7,337.177 1135.57,339.617 1137.44,342.06 1139.32,344.507 1141.19,346.957 1143.06,349.41 1144.94,351.864 1146.81,354.321 1148.68,356.78 1150.55,359.239 1152.43,361.7 1154.3,364.161 1156.17,366.623 1158.04,369.084 1159.92,371.545 1161.79,374.005 1163.66,376.464 1165.53,378.922 1167.41,381.378 1169.28,383.832 1171.15,386.284 1173.03,388.733 1174.9,391.18 1176.77,393.622 1178.64,396.062 1180.52,398.497 1182.39,400.928 1184.26,403.355 1186.13,405.777 1188.01,408.194 1189.88,410.606 1191.75,413.011 1193.63,415.411 1195.5,417.805 1197.37,420.192 1199.24,422.572 1201.12,424.945 1202.99,427.311 1204.86,429.669 1206.73,432.02 1208.61,434.361 1210.48,436.695 1212.35,439.02 1214.22,441.335 1216.1,443.642 1217.97,445.939 1219.84,448.226 1221.72,450.503 1223.59,452.77 1225.46,455.026 1227.33,457.271 1229.21,459.505 1231.08,461.728 1232.95,463.94 1234.82,466.139 1236.7,468.327 1238.57,470.502 1240.44,472.665 1242.31,474.815 1244.19,476.952 1246.06,479.076 1247.93,481.186 1249.81,483.283 1251.68,485.366 1253.55,487.435 1255.42,489.49 1257.3,491.531 1259.17,493.559 1261.04,495.572 1262.91,497.571 1264.79,499.556 1266.66,501.526 1268.53,503.482 1270.4,505.424 1272.28,507.351 1274.15,509.264 1276.02,511.162 1277.9,513.046 1279.77,514.914 1281.64,516.769 1283.51,518.608 1285.39,520.433 1287.26,522.243 1289.13,524.038 1291,525.818 1292.88,527.583 1294.75,529.334 1296.62,531.069 1298.49,532.79 1300.37,534.495 1302.24,536.186 1304.11,537.862 1305.99,539.522 1307.86,541.168 1309.73,542.799 1311.6,544.415 1313.48,546.016 1315.35,547.602 1317.22,549.173 1319.09,550.729 1320.97,552.27 1322.84,553.797 1324.71,555.309 1326.59,556.805 1328.46,558.288 1330.33,559.755 1332.2,561.208 1334.08,562.646 1335.95,564.069 1337.82,565.478 1339.69,566.873 1341.57,568.253 1343.44,569.618 1345.31,570.969 1347.18,572.307 1349.06,573.629 1350.93,574.938 1352.8,576.233 1354.68,577.513 1356.55,578.78 1358.42,580.033 1360.29,581.273 1362.17,582.498 1364.04,583.71 1365.91,584.909 1367.78,586.094 1369.66,587.266 1371.53,588.425 1373.4,589.571 1375.27,590.703 1377.15,591.823 1379.02,592.931 1380.89,594.025 1382.77,595.107 1384.64,596.177 1386.51,597.234 1388.38,598.279 1390.26,599.312 1392.13,600.332 1394,601.341 1395.87,602.337 1397.75,603.322 1399.62,604.295 1401.49,605.256 1403.36,606.206 1405.24,607.144 1407.11,608.071 1408.98,608.987 1410.86,609.892 1412.73,610.786 1414.6,611.669 1416.47,612.541 1418.35,613.403 1420.22,614.254 1422.09,615.094 1423.96,615.925 1425.84,616.745 1427.71,617.554 1429.58,618.354 1431.46,619.144 1433.33,619.924 1435.2,620.694 1437.07,621.455 1438.95,622.206 1440.82,622.948 1442.69,623.68 1444.56,624.403 1446.44,625.117 1448.31,625.822 1450.18,626.518 1452.05,627.204 1453.93,627.883 1455.8,628.552 1457.67,629.213 1459.55,629.865 1461.42,630.509 1463.29,631.145 1465.16,631.772 1467.04,632.391 1468.91,633.002 1470.78,633.605 1472.65,634.201 1474.53,634.788 1476.4,635.368 1478.27,635.94 1480.14,636.504 1482.02,637.062 1483.89,637.611 1485.76,638.154 1487.64,638.689 1489.51,639.217 1491.38,639.738 1493.25,640.252 1495.13,640.76 1497,641.26 1498.87,641.754 1500.74,642.241 1502.62,642.721 1504.49,643.195 1506.36,643.663 1508.23,644.124 1510.11,644.579 1511.98,645.028 1513.85,645.471 1515.73,645.908 1517.6,646.339 1519.47,646.764 1521.34,647.183 1523.22,647.596 1525.09,648.004 1526.96,648.407 1528.83,648.804 1530.71,649.196 1532.58,649.582 1534.45,649.963 1536.32,650.339 1538.2,650.71 1540.07,651.076 1541.94,651.437 1543.82,651.793 1545.69,652.144 1547.56,652.49 1549.43,652.831 1551.31,653.168 1553.18,653.5 1555.05,653.827 1556.92,654.15 1558.8,654.468 1560.67,654.782 1562.54,655.091 1564.42,655.396 1566.29,655.697 1568.16,655.994 1570.03,656.286 1571.91,656.575 1573.78,656.859 1575.65,657.139 1577.52,657.416 1579.4,657.688 1581.27,657.957 1583.14,658.221 1585.01,658.482 1586.89,658.74 1588.76,658.993 1590.63,659.243 1592.51,659.49 1594.38,659.733 1596.25,659.972 1598.12,660.208 1600,660.441 1601.87,660.67 1603.74,660.896 1605.61,661.119 1607.49,661.339 1609.36,661.555 1611.23,661.769 1613.1,661.979 1614.98,662.187 1616.85,662.391 1618.72,662.593 1620.6,662.791 1622.47,662.987 1624.34,663.18 1626.21,663.371 1628.09,663.558 1629.96,663.743 1631.83,663.926 1633.7,664.105 1635.58,664.283 1637.45,664.458 1639.32,664.63 1641.19,664.8 1643.07,664.967 1644.94,665.132 1646.81,665.295 1648.69,665.456 1650.56,665.614 1652.43,665.771 1654.3,665.925 1656.18,666.077 1658.05,666.227 1659.92,666.374 1661.79,666.52 1663.67,666.663 1665.54,666.805 1667.41,666.944 1669.29,667.082 1671.16,667.217 1673.03,667.351 1674.9,667.483 1676.78,667.613 1678.65,667.741 1680.52,667.867 1682.39,667.991 1684.27,668.113 1686.14,668.234 1688.01,668.353 1689.88,668.471 1691.76,668.586 1693.63,668.7 1695.5,668.812 1697.38,668.923 1699.25,669.032 1701.12,669.139 1702.99,669.245 1704.87,669.35 1706.74,669.452 1708.61,669.554 1710.48,669.654 1712.36,669.752 1714.23,669.849 1716.1,669.945 1717.97,670.039 1719.85,670.131 1721.72,670.223 1723.59,670.313 1725.47,670.402 1727.34,670.489 1729.21,670.575 1731.08,670.66 1732.96,670.744 1734.83,670.827 1736.7,670.908 1738.57,670.988 1740.45,671.067 1742.32,671.145 1744.19,671.221 1746.06,671.297 1747.94,671.371 1749.81,671.445 1751.68,671.517 1753.56,671.588 1755.43,671.659 1757.3,671.728 1759.17,671.796 1761.05,671.864 1762.92,671.93 1764.79,671.995 1766.66,672.06 1768.54,672.123 1770.41,672.186 1772.28,672.248 1774.15,672.309 1776.03,672.369 1777.9,672.428 1779.77,672.486 1781.65,672.544 1783.52,672.6 1785.39,672.656 1787.26,672.711 1789.14,672.765 1791.01,672.819 1792.88,672.872 1794.75,672.923 1796.63,672.975 1798.5,673.025 1800.37,673.075 1802.25,673.124 1804.12,673.172 1805.99,673.22 1807.86,673.266 1809.74,673.313 1811.61,673.358 1813.48,673.403 1815.35,673.447 1817.23,673.491 1819.1,673.533 1820.97,673.576 1822.84,673.617 1824.72,673.658 1826.59,673.699 1828.46,673.739 1830.34,673.778 1832.21,673.816 1834.08,673.854 1835.95,673.892 1837.83,673.929 1839.7,673.965 1841.57,674.001 1843.44,674.037 1845.32,674.071 1847.19,674.106 1849.06,674.14 1850.93,674.173 1852.81,674.206 1854.68,674.238 1856.55,674.27 1858.43,674.301 1860.3,674.332 1862.17,674.363 1864.04,674.393 1865.92,674.423 1867.79,674.452 1869.66,674.48 1871.53,674.509 1873.41,674.537 1875.28,674.564 1877.15,674.591 1879.02,674.618 1880.9,674.645 1882.77,674.671 1884.64,674.696 1886.52,674.721 1888.39,674.746 1890.26,674.771 1892.13,674.795 1894.01,674.819 1895.88,674.842 1897.75,674.865 1899.62,674.888 1901.5,674.911 1903.37,674.933 1905.24,674.955 1907.11,674.976 1908.99,674.998 1910.86,675.018 1912.73,675.039 1914.61,675.059 1916.48,675.079 1918.35,675.099 1920.22,675.119 1922.1,675.138 1923.97,675.157 1925.84,675.175 1927.71,675.193 1929.59,675.211 1931.46,675.229 1933.33,675.247 1935.21,675.264 1937.08,675.281 1938.95,675.298 1940.82,675.314 1942.7,675.33 1944.57,675.346 1946.44,675.362 1948.31,675.378 1950.19,675.393 1952.06,675.408 1953.93,675.423 1955.8,675.438 1957.68,675.452 1959.55,675.466 1961.42,675.48 1963.3,675.494 1965.17,675.508 1967.04,675.521 1968.91,675.534 1970.79,675.547 1972.66,675.56 1974.53,675.573 1976.4,675.585 1978.28,675.598 1980.15,675.61 1982.02,675.622 1983.89,675.633 1985.77,675.645 1987.64,675.656 1989.51,675.668 1991.39,675.679 1993.26,675.689 1995.13,675.7 1997,675.711 1998.88,675.721 2000.75,675.732 2002.62,675.742 2004.49,675.752 2006.37,675.762 2008.24,675.771 2010.11,675.781 2011.98,675.79 2013.86,675.8 2015.73,675.809 2017.6,675.818 2019.48,675.827 2021.35,675.835 2023.22,675.844 2025.09,675.853 2026.97,675.861 2028.84,675.869 2030.71,675.877 2032.58,675.885 2034.46,675.893 2036.33,675.901 2038.2,675.909 2040.08,675.916 2041.95,675.924 2043.82,675.931 2045.69,675.939 2047.57,675.946 2049.44,675.953 2051.31,675.96 2053.18,675.966 2055.06,675.973 2056.93,675.98 2058.8,675.986 2060.67,675.993 2062.55,675.999 2064.42,676.005 2066.29,676.011 2068.17,676.017 2070.04,676.023 2071.91,676.029 2073.78,676.035 2075.66,676.041 2077.53,676.046 2079.4,676.052 2081.27,676.057 2083.15,676.063 2085.02,676.068 2086.89,676.073 2088.76,676.078 2090.64,676.084 2092.51,676.089 2094.38,676.093 2096.26,676.098 2098.13,676.103 2100,676.108 2101.87,676.112 2103.75,676.117 2105.62,676.122 2107.49,676.126 2109.36,676.13 2111.24,676.135 2113.11,676.139 2114.98,676.143 2116.85,676.147 2118.73,676.151 2120.6,676.155 2122.47,676.159 2124.35,676.163 2126.22,676.167 2128.09,676.171 2129.96,676.175 2131.84,676.178 2133.71,676.182 2135.58,676.185 2137.45,676.189 2139.33,676.192 2141.2,676.196 2143.07,676.199 2144.94,676.202 2146.82,676.206 2148.69,676.209 2150.56,676.212 2152.44,676.215 2154.31,676.218 2156.18,676.221 2158.05,676.224 2159.93,676.227 2161.8,676.23 2163.67,676.233 2165.54,676.236 2167.42,676.239 2169.29,676.241 2171.16,676.244 2173.04,676.247 2174.91,676.249 2176.78,676.252 2178.65,676.254 2180.53,676.257 2182.4,676.259 2184.27,676.262 2186.14,676.264 2188.02,676.267 2189.89,676.269 2191.76,676.271 2193.63,676.273 2195.51,676.276 2197.38,676.278 2199.25,676.28 2201.13,676.282 2203,676.284 2204.87,676.286 2206.74,676.288 2208.62,676.29 2210.49,676.292 2212.36,676.294 2214.23,676.296 2216.11,676.298 2217.98,676.3 2219.85,676.302 2221.72,676.304 2223.6,676.305 2225.47,676.307 2227.34,676.309 2229.22,676.311 2231.09,676.312 2232.96,676.314 2234.83,676.316 2236.71,676.317 2238.58,676.319 2240.45,676.32 2242.32,676.322 2244.2,676.323 2246.07,676.325 2247.94,676.326 2249.81,676.328 2251.69,676.329 2253.56,676.331 2255.43,676.332 2257.31,676.333 2259.18,676.335 2261.05,676.336 2262.92,676.337 2264.8,676.339 2266.67,676.34 2268.54,676.341 2270.41,676.342 2272.29,676.344 2274.16,676.345 2276.03,676.346 2277.91,676.347 2279.78,676.348 2281.65,676.349 2283.52,676.351 2285.4,676.352 2287.27,676.353 2289.14,676.354 2291.01,676.355 2292.89,676.356 2294.76,676.357 2296.63,676.358 "/>
<polyline clip-path="url(#clip652)" style="stroke:#e26f46; stroke-linecap:round; stroke-linejoin:round; stroke-width:4; stroke-opacity:1; fill:none" points="425.828,1384.11 427.7,1384.11 429.573,1384.1 431.446,1384.1 433.318,1384.1 435.191,1384.1 437.064,1384.09 438.936,1384.09 440.809,1384.09 442.682,1384.09 444.554,1384.08 446.427,1384.08 448.3,1384.08 450.172,1384.07 452.045,1384.07 453.918,1384.07 455.79,1384.07 457.663,1384.06 459.536,1384.06 461.408,1384.06 463.281,1384.05 465.154,1384.05 467.026,1384.05 468.899,1384.04 470.772,1384.04 472.644,1384.03 474.517,1384.03 476.39,1384.03 478.263,1384.02 480.135,1384.02 482.008,1384.02 483.881,1384.01 485.753,1384.01 487.626,1384 489.499,1384 491.371,1383.99 493.244,1383.99 495.117,1383.99 496.989,1383.98 498.862,1383.98 500.735,1383.97 502.607,1383.97 504.48,1383.96 506.353,1383.96 508.225,1383.95 510.098,1383.95 511.971,1383.94 513.843,1383.94 515.716,1383.93 517.589,1383.92 519.461,1383.92 521.334,1383.91 523.207,1383.91 525.079,1383.9 526.952,1383.9 528.825,1383.89 530.697,1383.88 532.57,1383.88 534.443,1383.87 536.315,1383.86 538.188,1383.86 540.061,1383.85 541.934,1383.84 543.806,1383.84 545.679,1383.83 547.552,1383.82 549.424,1383.81 551.297,1383.81 553.17,1383.8 555.042,1383.79 556.915,1383.78 558.788,1383.77 560.66,1383.76 562.533,1383.76 564.406,1383.75 566.278,1383.74 568.151,1383.73 570.024,1383.72 571.896,1383.71 573.769,1383.7 575.642,1383.69 577.514,1383.68 579.387,1383.67 581.26,1383.66 583.132,1383.65 585.005,1383.64 586.878,1383.63 588.75,1383.62 590.623,1383.61 592.496,1383.6 594.368,1383.58 596.241,1383.57 598.114,1383.56 599.987,1383.55 601.859,1383.54 603.732,1383.52 605.605,1383.51 607.477,1383.5 609.35,1383.48 611.223,1383.47 613.095,1383.46 614.968,1383.44 616.841,1383.43 618.713,1383.41 620.586,1383.4 622.459,1383.38 624.331,1383.37 626.204,1383.35 628.077,1383.34 629.949,1383.32 631.822,1383.3 633.695,1383.29 635.567,1383.27 637.44,1383.25 639.313,1383.23 641.185,1383.22 643.058,1383.2 644.931,1383.18 646.803,1383.16 648.676,1383.14 650.549,1383.12 652.421,1383.1 654.294,1383.08 656.167,1383.06 658.039,1383.04 659.912,1383.02 661.785,1383 663.658,1382.97 665.53,1382.95 667.403,1382.93 669.276,1382.9 671.148,1382.88 673.021,1382.86 674.894,1382.83 676.766,1382.81 678.639,1382.78 680.512,1382.75 682.384,1382.73 684.257,1382.7 686.13,1382.67 688.002,1382.65 689.875,1382.62 691.748,1382.59 693.62,1382.56 695.493,1382.53 697.366,1382.5 699.238,1382.47 701.111,1382.44 702.984,1382.4 704.856,1382.37 706.729,1382.34 708.602,1382.3 710.474,1382.27 712.347,1382.23 714.22,1382.2 716.092,1382.16 717.965,1382.13 719.838,1382.09 721.711,1382.05 723.583,1382.01 725.456,1381.97 727.329,1381.93 729.201,1381.89 731.074,1381.85 732.947,1381.81 734.819,1381.77 736.692,1381.72 738.565,1381.68 740.437,1381.63 742.31,1381.59 744.183,1381.54 746.055,1381.49 747.928,1381.44 749.801,1381.4 751.673,1381.35 753.546,1381.29 755.419,1381.24 757.291,1381.19 759.164,1381.14 761.037,1381.08 762.909,1381.03 764.782,1380.97 766.655,1380.91 768.527,1380.86 770.4,1380.8 772.273,1380.74 774.145,1380.68 776.018,1380.62 777.891,1380.55 779.763,1380.49 781.636,1380.42 783.509,1380.36 785.382,1380.29 787.254,1380.22 789.127,1380.15 791,1380.08 792.872,1380.01 794.745,1379.94 796.618,1379.86 798.49,1379.79 800.363,1379.71 802.236,1379.63 804.108,1379.56 805.981,1379.48 807.854,1379.39 809.726,1379.31 811.599,1379.23 813.472,1379.14 815.344,1379.06 817.217,1378.97 819.09,1378.88 820.962,1378.79 822.835,1378.69 824.708,1378.6 826.58,1378.51 828.453,1378.41 830.326,1378.31 832.198,1378.21 834.071,1378.11 835.944,1378.01 837.816,1377.9 839.689,1377.8 841.562,1377.69 843.435,1377.58 845.307,1377.47 847.18,1377.36 849.053,1377.24 850.925,1377.13 852.798,1377.01 854.671,1376.89 856.543,1376.77 858.416,1376.65 860.289,1376.52 862.161,1376.4 864.034,1376.27 865.907,1376.14 867.779,1376.01 869.652,1375.87 871.525,1375.74 873.397,1375.6 875.27,1375.46 877.143,1375.32 879.015,1375.17 880.888,1375.03 882.761,1374.88 884.633,1374.73 886.506,1374.58 888.379,1374.43 890.251,1374.27 892.124,1374.11 893.997,1373.95 895.869,1373.79 897.742,1373.63 899.615,1373.46 901.487,1373.29 903.36,1373.12 905.233,1372.95 907.106,1372.78 908.978,1372.6 910.851,1372.42 912.724,1372.24 914.596,1372.06 916.469,1371.87 918.342,1371.68 920.214,1371.49 922.087,1371.3 923.96,1371.1 925.832,1370.91 927.705,1370.71 929.578,1370.51 931.45,1370.3 933.323,1370.1 935.196,1369.89 937.068,1369.68 938.941,1369.46 940.814,1369.25 942.686,1369.03 944.559,1368.81 946.432,1368.59 948.304,1368.36 950.177,1368.14 952.05,1367.91 953.922,1367.68 955.795,1367.45 957.668,1367.21 959.54,1366.97 961.413,1366.73 963.286,1366.49 965.159,1366.25 967.031,1366 968.904,1365.75 970.777,1365.5 972.649,1365.25 974.522,1364.99 976.395,1364.74 978.267,1364.48 980.14,1364.22 982.013,1363.96 983.885,1363.69 985.758,1363.43 987.631,1363.16 989.503,1362.89 991.376,1362.62 993.249,1362.34 995.121,1362.07 996.994,1361.79 998.867,1361.52 1000.74,1361.24 1002.61,1360.95 1004.48,1360.67 1006.36,1360.39 1008.23,1360.1 1010.1,1359.82 1011.98,1359.53 1013.85,1359.24 1015.72,1358.95 1017.59,1358.66 1019.47,1358.37 1021.34,1358.07 1023.21,1357.78 1025.08,1357.49 1026.96,1357.19 1028.83,1356.9 1030.7,1356.6 1032.57,1356.31 1034.45,1356.01 1036.32,1355.71 1038.19,1355.42 1040.07,1355.12 1041.94,1354.82 1043.81,1354.53 1045.68,1354.23 1047.56,1353.93 1049.43,1353.64 1051.3,1353.34 1053.17,1353.05 1055.05,1352.75 1056.92,1352.46 1058.79,1352.17 1060.67,1351.87 1062.54,1351.58 1064.41,1351.29 1066.28,1351.01 1068.16,1350.72 1070.03,1350.43 1071.9,1350.15 1073.77,1349.87 1075.65,1349.59 1077.52,1349.31 1079.39,1349.03 1081.26,1348.76 1083.14,1348.48 1085.01,1348.21 1086.88,1347.94 1088.76,1347.68 1090.63,1347.42 1092.5,1347.16 1094.37,1346.9 1096.25,1346.64 1098.12,1346.39 1099.99,1346.15 1101.86,1345.9 1103.74,1345.66 1105.61,1345.42 1107.48,1345.19 1109.35,1344.96 1111.23,1344.73 1113.1,1344.51 1114.97,1344.29 1116.85,1344.07 1118.72,1343.86 1120.59,1343.66 1122.46,1343.45 1124.34,1343.26 1126.21,1343.06 1128.08,1342.88 1129.95,1342.69 1131.83,1342.51 1133.7,1342.34 1135.57,1342.17 1137.44,1342.01 1139.32,1341.85 1141.19,1341.69 1143.06,1341.54 1144.94,1341.4 1146.81,1341.26 1148.68,1341.13 1150.55,1341 1152.43,1340.88 1154.3,1340.77 1156.17,1340.66 1158.04,1340.55 1159.92,1340.45 1161.79,1340.36 1163.66,1340.27 1165.53,1340.19 1167.41,1340.11 1169.28,1340.04 1171.15,1339.98 1173.03,1339.92 1174.9,1339.87 1176.77,1339.82 1178.64,1339.78 1180.52,1339.75 1182.39,1339.72 1184.26,1339.7 1186.13,1339.68 1188.01,1339.67 1189.88,1339.66 1191.75,1339.66 1193.63,1339.67 1195.5,1339.68 1197.37,1339.7 1199.24,1339.73 1201.12,1339.76 1202.99,1339.79 1204.86,1339.84 1206.73,1339.88 1208.61,1339.94 1210.48,1340 1212.35,1340.06 1214.22,1340.13 1216.1,1340.21 1217.97,1340.29 1219.84,1340.38 1221.72,1340.47 1223.59,1340.57 1225.46,1340.67 1227.33,1340.78 1229.21,1340.89 1231.08,1341.01 1232.95,1341.14 1234.82,1341.27 1236.7,1341.4 1238.57,1341.54 1240.44,1341.68 1242.31,1341.83 1244.19,1341.98 1246.06,1342.14 1247.93,1342.3 1249.81,1342.47 1251.68,1342.64 1253.55,1342.82 1255.42,1342.99 1257.3,1343.18 1259.17,1343.36 1261.04,1343.55 1262.91,1343.75 1264.79,1343.94 1266.66,1344.15 1268.53,1344.35 1270.4,1344.56 1272.28,1344.77 1274.15,1344.98 1276.02,1345.2 1277.9,1345.42 1279.77,1345.64 1281.64,1345.87 1283.51,1346.09 1285.39,1346.32 1287.26,1346.56 1289.13,1346.79 1291,1347.03 1292.88,1347.27 1294.75,1347.51 1296.62,1347.75 1298.49,1348 1300.37,1348.24 1302.24,1348.49 1304.11,1348.74 1305.99,1348.99 1307.86,1349.25 1309.73,1349.5 1311.6,1349.76 1313.48,1350.01 1315.35,1350.27 1317.22,1350.53 1319.09,1350.79 1320.97,1351.05 1322.84,1351.31 1324.71,1351.57 1326.59,1351.83 1328.46,1352.1 1330.33,1352.36 1332.2,1352.63 1334.08,1352.89 1335.95,1353.15 1337.82,1353.42 1339.69,1353.68 1341.57,1353.95 1343.44,1354.22 1345.31,1354.48 1347.18,1354.75 1349.06,1355.01 1350.93,1355.27 1352.8,1355.54 1354.68,1355.8 1356.55,1356.07 1358.42,1356.33 1360.29,1356.59 1362.17,1356.85 1364.04,1357.11 1365.91,1357.38 1367.78,1357.64 1369.66,1357.89 1371.53,1358.15 1373.4,1358.41 1375.27,1358.67 1377.15,1358.92 1379.02,1359.18 1380.89,1359.43 1382.77,1359.68 1384.64,1359.93 1386.51,1360.18 1388.38,1360.43 1390.26,1360.68 1392.13,1360.92 1394,1361.17 1395.87,1361.41 1397.75,1361.65 1399.62,1361.89 1401.49,1362.13 1403.36,1362.37 1405.24,1362.61 1407.11,1362.84 1408.98,1363.07 1410.86,1363.31 1412.73,1363.54 1414.6,1363.77 1416.47,1363.99 1418.35,1364.22 1420.22,1364.44 1422.09,1364.67 1423.96,1364.89 1425.84,1365.11 1427.71,1365.32 1429.58,1365.54 1431.46,1365.76 1433.33,1365.97 1435.2,1366.18 1437.07,1366.39 1438.95,1366.6 1440.82,1366.8 1442.69,1367.01 1444.56,1367.21 1446.44,1367.41 1448.31,1367.61 1450.18,1367.81 1452.05,1368.01 1453.93,1368.2 1455.8,1368.39 1457.67,1368.58 1459.55,1368.77 1461.42,1368.96 1463.29,1369.15 1465.16,1369.33 1467.04,1369.51 1468.91,1369.69 1470.78,1369.87 1472.65,1370.05 1474.53,1370.23 1476.4,1370.4 1478.27,1370.57 1480.14,1370.74 1482.02,1370.91 1483.89,1371.08 1485.76,1371.24 1487.64,1371.41 1489.51,1371.57 1491.38,1371.73 1493.25,1371.89 1495.13,1372.04 1497,1372.2 1498.87,1372.35 1500.74,1372.5 1502.62,1372.65 1504.49,1372.8 1506.36,1372.95 1508.23,1373.09 1510.11,1373.24 1511.98,1373.38 1513.85,1373.52 1515.73,1373.66 1517.6,1373.8 1519.47,1373.93 1521.34,1374.07 1523.22,1374.2 1525.09,1374.33 1526.96,1374.46 1528.83,1374.59 1530.71,1374.72 1532.58,1374.84 1534.45,1374.96 1536.32,1375.09 1538.2,1375.21 1540.07,1375.33 1541.94,1375.45 1543.82,1375.56 1545.69,1375.68 1547.56,1375.79 1549.43,1375.91 1551.31,1376.02 1553.18,1376.13 1555.05,1376.24 1556.92,1376.34 1558.8,1376.45 1560.67,1376.56 1562.54,1376.66 1564.42,1376.76 1566.29,1376.86 1568.16,1376.96 1570.03,1377.06 1571.91,1377.16 1573.78,1377.26 1575.65,1377.35 1577.52,1377.44 1579.4,1377.54 1581.27,1377.63 1583.14,1377.72 1585.01,1377.81 1586.89,1377.9 1588.76,1377.98 1590.63,1378.07 1592.51,1378.15 1594.38,1378.24 1596.25,1378.32 1598.12,1378.4 1600,1378.48 1601.87,1378.56 1603.74,1378.64 1605.61,1378.72 1607.49,1378.79 1609.36,1378.87 1611.23,1378.94 1613.1,1379.01 1614.98,1379.09 1616.85,1379.16 1618.72,1379.23 1620.6,1379.3 1622.47,1379.37 1624.34,1379.43 1626.21,1379.5 1628.09,1379.57 1629.96,1379.63 1631.83,1379.7 1633.7,1379.76 1635.58,1379.82 1637.45,1379.88 1639.32,1379.94 1641.19,1380 1643.07,1380.06 1644.94,1380.12 1646.81,1380.18 1648.69,1380.24 1650.56,1380.29 1652.43,1380.35 1654.3,1380.4 1656.18,1380.46 1658.05,1380.51 1659.92,1380.56 1661.79,1380.61 1663.67,1380.66 1665.54,1380.72 1667.41,1380.77 1669.29,1380.81 1671.16,1380.86 1673.03,1380.91 1674.9,1380.96 1676.78,1381 1678.65,1381.05 1680.52,1381.1 1682.39,1381.14 1684.27,1381.18 1686.14,1381.23 1688.01,1381.27 1689.88,1381.31 1691.76,1381.35 1693.63,1381.4 1695.5,1381.44 1697.38,1381.48 1699.25,1381.52 1701.12,1381.55 1702.99,1381.59 1704.87,1381.63 1706.74,1381.67 1708.61,1381.7 1710.48,1381.74 1712.36,1381.78 1714.23,1381.81 1716.1,1381.85 1717.97,1381.88 1719.85,1381.91 1721.72,1381.95 1723.59,1381.98 1725.47,1382.01 1727.34,1382.04 1729.21,1382.08 1731.08,1382.11 1732.96,1382.14 1734.83,1382.17 1736.7,1382.2 1738.57,1382.23 1740.45,1382.25 1742.32,1382.28 1744.19,1382.31 1746.06,1382.34 1747.94,1382.37 1749.81,1382.39 1751.68,1382.42 1753.56,1382.44 1755.43,1382.47 1757.3,1382.5 1759.17,1382.52 1761.05,1382.55 1762.92,1382.57 1764.79,1382.59 1766.66,1382.62 1768.54,1382.64 1770.41,1382.66 1772.28,1382.69 1774.15,1382.71 1776.03,1382.73 1777.9,1382.75 1779.77,1382.77 1781.65,1382.8 1783.52,1382.82 1785.39,1382.84 1787.26,1382.86 1789.14,1382.88 1791.01,1382.9 1792.88,1382.92 1794.75,1382.94 1796.63,1382.95 1798.5,1382.97 1800.37,1382.99 1802.25,1383.01 1804.12,1383.03 1805.99,1383.04 1807.86,1383.06 1809.74,1383.08 1811.61,1383.1 1813.48,1383.11 1815.35,1383.13 1817.23,1383.14 1819.1,1383.16 1820.97,1383.18 1822.84,1383.19 1824.72,1383.21 1826.59,1383.22 1828.46,1383.24 1830.34,1383.25 1832.21,1383.27 1834.08,1383.28 1835.95,1383.29 1837.83,1383.31 1839.7,1383.32 1841.57,1383.33 1843.44,1383.35 1845.32,1383.36 1847.19,1383.37 1849.06,1383.39 1850.93,1383.4 1852.81,1383.41 1854.68,1383.42 1856.55,1383.43 1858.43,1383.45 1860.3,1383.46 1862.17,1383.47 1864.04,1383.48 1865.92,1383.49 1867.79,1383.5 1869.66,1383.51 1871.53,1383.52 1873.41,1383.53 1875.28,1383.54 1877.15,1383.55 1879.02,1383.56 1880.9,1383.57 1882.77,1383.58 1884.64,1383.59 1886.52,1383.6 1888.39,1383.61 1890.26,1383.62 1892.13,1383.63 1894.01,1383.64 1895.88,1383.65 1897.75,1383.66 1899.62,1383.66 1901.5,1383.67 1903.37,1383.68 1905.24,1383.69 1907.11,1383.7 1908.99,1383.7 1910.86,1383.71 1912.73,1383.72 1914.61,1383.73 1916.48,1383.73 1918.35,1383.74 1920.22,1383.75 1922.1,1383.76 1923.97,1383.76 1925.84,1383.77 1927.71,1383.78 1929.59,1383.78 1931.46,1383.79 1933.33,1383.8 1935.21,1383.8 1937.08,1383.81 1938.95,1383.82 1940.82,1383.82 1942.7,1383.83 1944.57,1383.83 1946.44,1383.84 1948.31,1383.85 1950.19,1383.85 1952.06,1383.86 1953.93,1383.86 1955.8,1383.87 1957.68,1383.87 1959.55,1383.88 1961.42,1383.88 1963.3,1383.89 1965.17,1383.89 1967.04,1383.9 1968.91,1383.9 1970.79,1383.91 1972.66,1383.91 1974.53,1383.92 1976.4,1383.92 1978.28,1383.93 1980.15,1383.93 1982.02,1383.94 1983.89,1383.94 1985.77,1383.95 1987.64,1383.95 1989.51,1383.95 1991.39,1383.96 1993.26,1383.96 1995.13,1383.97 1997,1383.97 1998.88,1383.97 2000.75,1383.98 2002.62,1383.98 2004.49,1383.99 2006.37,1383.99 2008.24,1383.99 2010.11,1384 2011.98,1384 2013.86,1384 2015.73,1384.01 2017.6,1384.01 2019.48,1384.01 2021.35,1384.02 2023.22,1384.02 2025.09,1384.02 2026.97,1384.03 2028.84,1384.03 2030.71,1384.03 2032.58,1384.04 2034.46,1384.04 2036.33,1384.04 2038.2,1384.04 2040.08,1384.05 2041.95,1384.05 2043.82,1384.05 2045.69,1384.06 2047.57,1384.06 2049.44,1384.06 2051.31,1384.06 2053.18,1384.07 2055.06,1384.07 2056.93,1384.07 2058.8,1384.07 2060.67,1384.08 2062.55,1384.08 2064.42,1384.08 2066.29,1384.08 2068.17,1384.09 2070.04,1384.09 2071.91,1384.09 2073.78,1384.09 2075.66,1384.09 2077.53,1384.1 2079.4,1384.1 2081.27,1384.1 2083.15,1384.1 2085.02,1384.1 2086.89,1384.11 2088.76,1384.11 2090.64,1384.11 2092.51,1384.11 2094.38,1384.11 2096.26,1384.12 2098.13,1384.12 2100,1384.12 2101.87,1384.12 2103.75,1384.12 2105.62,1384.12 2107.49,1384.13 2109.36,1384.13 2111.24,1384.13 2113.11,1384.13 2114.98,1384.13 2116.85,1384.13 2118.73,1384.14 2120.6,1384.14 2122.47,1384.14 2124.35,1384.14 2126.22,1384.14 2128.09,1384.14 2129.96,1384.14 2131.84,1384.15 2133.71,1384.15 2135.58,1384.15 2137.45,1384.15 2139.33,1384.15 2141.2,1384.15 2143.07,1384.15 2144.94,1384.15 2146.82,1384.16 2148.69,1384.16 2150.56,1384.16 2152.44,1384.16 2154.31,1384.16 2156.18,1384.16 2158.05,1384.16 2159.93,1384.16 2161.8,1384.17 2163.67,1384.17 2165.54,1384.17 2167.42,1384.17 2169.29,1384.17 2171.16,1384.17 2173.04,1384.17 2174.91,1384.17 2176.78,1384.17 2178.65,1384.17 2180.53,1384.18 2182.4,1384.18 2184.27,1384.18 2186.14,1384.18 2188.02,1384.18 2189.89,1384.18 2191.76,1384.18 2193.63,1384.18 2195.51,1384.18 2197.38,1384.18 2199.25,1384.18 2201.13,1384.18 2203,1384.19 2204.87,1384.19 2206.74,1384.19 2208.62,1384.19 2210.49,1384.19 2212.36,1384.19 2214.23,1384.19 2216.11,1384.19 2217.98,1384.19 2219.85,1384.19 2221.72,1384.19 2223.6,1384.19 2225.47,1384.19 2227.34,1384.19 2229.22,1384.2 2231.09,1384.2 2232.96,1384.2 2234.83,1384.2 2236.71,1384.2 2238.58,1384.2 2240.45,1384.2 2242.32,1384.2 2244.2,1384.2 2246.07,1384.2 2247.94,1384.2 2249.81,1384.2 2251.69,1384.2 2253.56,1384.2 2255.43,1384.2 2257.31,1384.2 2259.18,1384.2 2261.05,1384.2 2262.92,1384.21 2264.8,1384.21 2266.67,1384.21 2268.54,1384.21 2270.41,1384.21 2272.29,1384.21 2274.16,1384.21 2276.03,1384.21 2277.91,1384.21 2279.78,1384.21 2281.65,1384.21 2283.52,1384.21 2285.4,1384.21 2287.27,1384.21 2289.14,1384.21 2291.01,1384.21 2292.89,1384.21 2294.76,1384.21 2296.63,1384.21 "/>
<path clip-path="url(#clip650)" d="M1831.71 248.629 L2286.65 248.629 L2286.65 93.1086 L1831.71 93.1086  Z" fill="#eaeaea" fill-rule="evenodd" fill-opacity="1"/>
<polyline clip-path="url(#clip650)" style="stroke:#ffffff; stroke-linecap:round; stroke-linejoin:round; stroke-width:4; stroke-opacity:1; fill:none" points="1831.71,248.629 2286.65,248.629 2286.65,93.1086 1831.71,93.1086 1831.71,248.629 "/>
<polyline clip-path="url(#clip650)" style="stroke:#009af9; stroke-linecap:round; stroke-linejoin:round; stroke-width:4; stroke-opacity:1; fill:none" points="1853.74,144.949 1985.94,144.949 "/>
<path clip-path="url(#clip650)" d="M2026.4 137.067 L2026.4 141.094 Q2024.6 140.169 2022.65 139.706 Q2020.71 139.243 2018.63 139.243 Q2015.45 139.243 2013.86 140.215 Q2012.28 141.187 2012.28 143.131 Q2012.28 144.613 2013.42 145.469 Q2014.55 146.303 2017.98 147.067 L2019.44 147.391 Q2023.97 148.363 2025.87 150.145 Q2027.79 151.905 2027.79 155.076 Q2027.79 158.687 2024.92 160.793 Q2022.08 162.9 2017.08 162.9 Q2014.99 162.9 2012.72 162.483 Q2010.48 162.09 2007.98 161.28 L2007.98 156.881 Q2010.34 158.108 2012.63 158.733 Q2014.92 159.335 2017.17 159.335 Q2020.18 159.335 2021.8 158.317 Q2023.42 157.275 2023.42 155.4 Q2023.42 153.664 2022.24 152.738 Q2021.08 151.812 2017.12 150.956 L2015.64 150.608 Q2011.68 149.775 2009.92 148.062 Q2008.16 146.326 2008.16 143.317 Q2008.16 139.659 2010.76 137.669 Q2013.35 135.678 2018.12 135.678 Q2020.48 135.678 2022.56 136.025 Q2024.64 136.372 2026.4 137.067 Z" fill="#000000" fill-rule="nonzero" fill-opacity="1" /><path clip-path="url(#clip650)" d="M2034.14 151.997 L2034.14 136.303 L2038.39 136.303 L2038.39 151.835 Q2038.39 155.516 2039.83 157.368 Q2041.26 159.196 2044.14 159.196 Q2047.58 159.196 2049.58 156.997 Q2051.59 154.798 2051.59 151.002 L2051.59 136.303 L2055.85 136.303 L2055.85 162.229 L2051.59 162.229 L2051.59 158.247 Q2050.04 160.608 2047.98 161.766 Q2045.94 162.9 2043.23 162.9 Q2038.76 162.9 2036.45 160.122 Q2034.14 157.344 2034.14 151.997 M2044.85 135.678 L2044.85 135.678 Z" fill="#000000" fill-rule="nonzero" fill-opacity="1" /><path clip-path="url(#clip650)" d="M2081.15 137.067 L2081.15 141.094 Q2079.34 140.169 2077.4 139.706 Q2075.45 139.243 2073.37 139.243 Q2070.2 139.243 2068.6 140.215 Q2067.03 141.187 2067.03 143.131 Q2067.03 144.613 2068.16 145.469 Q2069.3 146.303 2072.72 147.067 L2074.18 147.391 Q2078.72 148.363 2080.62 150.145 Q2082.54 151.905 2082.54 155.076 Q2082.54 158.687 2079.67 160.793 Q2076.82 162.9 2071.82 162.9 Q2069.74 162.9 2067.47 162.483 Q2065.22 162.09 2062.72 161.28 L2062.72 156.881 Q2065.08 158.108 2067.38 158.733 Q2069.67 159.335 2071.91 159.335 Q2074.92 159.335 2076.54 158.317 Q2078.16 157.275 2078.16 155.4 Q2078.16 153.664 2076.98 152.738 Q2075.82 151.812 2071.87 150.956 L2070.39 150.608 Q2066.43 149.775 2064.67 148.062 Q2062.91 146.326 2062.91 143.317 Q2062.91 139.659 2065.5 137.669 Q2068.09 135.678 2072.86 135.678 Q2075.22 135.678 2077.31 136.025 Q2079.39 136.372 2081.15 137.067 Z" fill="#000000" fill-rule="nonzero" fill-opacity="1" /><path clip-path="url(#clip650)" d="M2107.98 137.298 L2107.98 141.28 Q2106.17 140.284 2104.34 139.798 Q2102.54 139.289 2100.69 139.289 Q2096.54 139.289 2094.25 141.928 Q2091.96 144.544 2091.96 149.289 Q2091.96 154.034 2094.25 156.673 Q2096.54 159.289 2100.69 159.289 Q2102.54 159.289 2104.34 158.803 Q2106.17 158.293 2107.98 157.298 L2107.98 161.233 Q2106.2 162.067 2104.27 162.483 Q2102.38 162.9 2100.22 162.9 Q2094.37 162.9 2090.92 159.219 Q2087.47 155.539 2087.47 149.289 Q2087.47 142.946 2090.94 139.312 Q2094.44 135.678 2100.5 135.678 Q2102.47 135.678 2104.34 136.095 Q2106.22 136.488 2107.98 137.298 Z" fill="#000000" fill-rule="nonzero" fill-opacity="1" /><path clip-path="url(#clip650)" d="M2137.56 148.201 L2137.56 150.284 L2117.98 150.284 Q2118.26 154.682 2120.62 156.997 Q2123 159.289 2127.24 159.289 Q2129.69 159.289 2131.98 158.687 Q2134.3 158.085 2136.57 156.881 L2136.57 160.909 Q2134.27 161.881 2131.87 162.391 Q2129.46 162.9 2126.98 162.9 Q2120.78 162.9 2117.14 159.289 Q2113.53 155.678 2113.53 149.52 Q2113.53 143.155 2116.96 139.428 Q2120.41 135.678 2126.24 135.678 Q2131.47 135.678 2134.51 139.057 Q2137.56 142.414 2137.56 148.201 M2133.3 146.951 Q2133.26 143.456 2131.33 141.372 Q2129.44 139.289 2126.29 139.289 Q2122.72 139.289 2120.57 141.303 Q2118.44 143.317 2118.12 146.974 L2133.3 146.951 Z" fill="#000000" fill-rule="nonzero" fill-opacity="1" /><path clip-path="url(#clip650)" d="M2148.76 128.942 L2148.76 136.303 L2157.54 136.303 L2157.54 139.613 L2148.76 139.613 L2148.76 153.687 Q2148.76 156.858 2149.62 157.761 Q2150.5 158.664 2153.16 158.664 L2157.54 158.664 L2157.54 162.229 L2153.16 162.229 Q2148.23 162.229 2146.36 160.4 Q2144.48 158.548 2144.48 153.687 L2144.48 139.613 L2141.36 139.613 L2141.36 136.303 L2144.48 136.303 L2144.48 128.942 L2148.76 128.942 Z" fill="#000000" fill-rule="nonzero" fill-opacity="1" /><path clip-path="url(#clip650)" d="M2168.49 124.312 L2173.09 124.312 L2165.55 133.016 L2162.01 133.016 L2168.49 124.312 M2163.14 136.303 L2167.4 136.303 L2167.4 162.229 L2163.14 162.229 L2163.14 136.303 M2165.27 135.678 L2165.27 135.678 Z" fill="#000000" fill-rule="nonzero" fill-opacity="1" /><path clip-path="url(#clip650)" d="M2173.25 136.303 L2177.77 136.303 L2185.87 158.062 L2193.97 136.303 L2198.49 136.303 L2188.76 162.229 L2182.98 162.229 L2173.25 136.303 Z" fill="#000000" fill-rule="nonzero" fill-opacity="1" /><path clip-path="url(#clip650)" d="M2226.54 148.201 L2226.54 150.284 L2206.96 150.284 Q2207.24 154.682 2209.6 156.997 Q2211.98 159.289 2216.22 159.289 Q2218.67 159.289 2220.96 158.687 Q2223.28 158.085 2225.55 156.881 L2225.55 160.909 Q2223.25 161.881 2220.85 162.391 Q2218.44 162.9 2215.96 162.9 Q2209.76 162.9 2206.13 159.289 Q2202.51 155.678 2202.51 149.52 Q2202.51 143.155 2205.94 139.428 Q2209.39 135.678 2215.22 135.678 Q2220.45 135.678 2223.49 139.057 Q2226.54 142.414 2226.54 148.201 M2222.28 146.951 Q2222.24 143.456 2220.31 141.372 Q2218.42 139.289 2215.27 139.289 Q2211.7 139.289 2209.55 141.303 Q2207.42 143.317 2207.1 146.974 L2222.28 146.951 Z" fill="#000000" fill-rule="nonzero" fill-opacity="1" /><path clip-path="url(#clip650)" d="M2233.53 136.303 L2237.79 136.303 L2237.79 162.229 L2233.53 162.229 L2233.53 136.303 M2233.53 126.21 L2237.79 126.21 L2237.79 131.604 L2233.53 131.604 L2233.53 126.21 Z" fill="#000000" fill-rule="nonzero" fill-opacity="1" /><path clip-path="url(#clip650)" d="M2263.23 137.067 L2263.23 141.094 Q2261.43 140.169 2259.48 139.706 Q2257.54 139.243 2255.45 139.243 Q2252.28 139.243 2250.69 140.215 Q2249.11 141.187 2249.11 143.131 Q2249.11 144.613 2250.25 145.469 Q2251.38 146.303 2254.81 147.067 L2256.26 147.391 Q2260.8 148.363 2262.7 150.145 Q2264.62 151.905 2264.62 155.076 Q2264.62 158.687 2261.75 160.793 Q2258.9 162.9 2253.9 162.9 Q2251.82 162.9 2249.55 162.483 Q2247.31 162.09 2244.81 161.28 L2244.81 156.881 Q2247.17 158.108 2249.46 158.733 Q2251.75 159.335 2254 159.335 Q2257 159.335 2258.62 158.317 Q2260.25 157.275 2260.25 155.4 Q2260.25 153.664 2259.06 152.738 Q2257.91 151.812 2253.95 150.956 L2252.47 150.608 Q2248.51 149.775 2246.75 148.062 Q2244.99 146.326 2244.99 143.317 Q2244.99 139.659 2247.58 137.669 Q2250.18 135.678 2254.94 135.678 Q2257.31 135.678 2259.39 136.025 Q2261.47 136.372 2263.23 137.067 Z" fill="#000000" fill-rule="nonzero" fill-opacity="1" /><polyline clip-path="url(#clip650)" style="stroke:#e26f46; stroke-linecap:round; stroke-linejoin:round; stroke-width:4; stroke-opacity:1; fill:none" points="1853.74,196.789 1985.94,196.789 "/>
<path clip-path="url(#clip650)" d="M2007.98 188.143 L2012.24 188.143 L2012.24 214.069 L2007.98 214.069 L2007.98 188.143 M2007.98 178.05 L2012.24 178.05 L2012.24 183.444 L2007.98 183.444 L2007.98 178.05 Z" fill="#000000" fill-rule="nonzero" fill-opacity="1" /><path clip-path="url(#clip650)" d="M2042.7 198.421 L2042.7 214.069 L2038.44 214.069 L2038.44 198.559 Q2038.44 194.879 2037.01 193.05 Q2035.57 191.222 2032.7 191.222 Q2029.25 191.222 2027.26 193.421 Q2025.27 195.62 2025.27 199.416 L2025.27 214.069 L2020.99 214.069 L2020.99 188.143 L2025.27 188.143 L2025.27 192.171 Q2026.8 189.833 2028.86 188.675 Q2030.94 187.518 2033.65 187.518 Q2038.12 187.518 2040.41 190.296 Q2042.7 193.05 2042.7 198.421 Z" fill="#000000" fill-rule="nonzero" fill-opacity="1" /><path clip-path="url(#clip650)" d="M2064.32 178.05 L2064.32 181.592 L2060.25 181.592 Q2057.95 181.592 2057.05 182.518 Q2056.17 183.444 2056.17 185.851 L2056.17 188.143 L2063.19 188.143 L2063.19 191.453 L2056.17 191.453 L2056.17 214.069 L2051.89 214.069 L2051.89 191.453 L2047.82 191.453 L2047.82 188.143 L2051.89 188.143 L2051.89 186.337 Q2051.89 182.009 2053.9 180.041 Q2055.92 178.05 2060.29 178.05 L2064.32 178.05 Z" fill="#000000" fill-rule="nonzero" fill-opacity="1" /><path clip-path="url(#clip650)" d="M2090.06 200.041 L2090.06 202.124 L2070.48 202.124 Q2070.76 206.522 2073.12 208.837 Q2075.5 211.129 2079.74 211.129 Q2082.19 211.129 2084.48 210.527 Q2086.8 209.925 2089.07 208.721 L2089.07 212.749 Q2086.77 213.721 2084.37 214.231 Q2081.96 214.74 2079.48 214.74 Q2073.28 214.74 2069.64 211.129 Q2066.03 207.518 2066.03 201.36 Q2066.03 194.995 2069.46 191.268 Q2072.91 187.518 2078.74 187.518 Q2083.97 187.518 2087.01 190.897 Q2090.06 194.254 2090.06 200.041 M2085.8 198.791 Q2085.76 195.296 2083.83 193.212 Q2081.94 191.129 2078.79 191.129 Q2075.22 191.129 2073.07 193.143 Q2070.94 195.157 2070.62 198.814 L2085.8 198.791 Z" fill="#000000" fill-rule="nonzero" fill-opacity="1" /><path clip-path="url(#clip650)" d="M2115.71 189.138 L2115.71 193.12 Q2113.9 192.124 2112.07 191.638 Q2110.27 191.129 2108.42 191.129 Q2104.27 191.129 2101.98 193.768 Q2099.69 196.384 2099.69 201.129 Q2099.69 205.874 2101.98 208.513 Q2104.27 211.129 2108.42 211.129 Q2110.27 211.129 2112.07 210.643 Q2113.9 210.133 2115.71 209.138 L2115.71 213.073 Q2113.93 213.907 2112.01 214.323 Q2110.11 214.74 2107.95 214.74 Q2102.1 214.74 2098.65 211.059 Q2095.2 207.379 2095.2 201.129 Q2095.2 194.786 2098.67 191.152 Q2102.17 187.518 2108.23 187.518 Q2110.2 187.518 2112.07 187.935 Q2113.95 188.328 2115.71 189.138 Z" fill="#000000" fill-rule="nonzero" fill-opacity="1" /><path clip-path="url(#clip650)" d="M2127.33 180.782 L2127.33 188.143 L2136.1 188.143 L2136.1 191.453 L2127.33 191.453 L2127.33 205.527 Q2127.33 208.698 2128.19 209.601 Q2129.07 210.504 2131.73 210.504 L2136.1 210.504 L2136.1 214.069 L2131.73 214.069 Q2126.8 214.069 2124.92 212.24 Q2123.05 210.388 2123.05 205.527 L2123.05 191.453 L2119.92 191.453 L2119.92 188.143 L2123.05 188.143 L2123.05 180.782 L2127.33 180.782 Z" fill="#000000" fill-rule="nonzero" fill-opacity="1" /><path clip-path="url(#clip650)" d="M2153.49 201.036 Q2148.32 201.036 2146.33 202.217 Q2144.34 203.397 2144.34 206.245 Q2144.34 208.513 2145.82 209.856 Q2147.33 211.175 2149.9 211.175 Q2153.44 211.175 2155.57 208.675 Q2157.72 206.152 2157.72 201.985 L2157.72 201.036 L2153.49 201.036 M2161.98 199.277 L2161.98 214.069 L2157.72 214.069 L2157.72 210.133 Q2156.26 212.495 2154.09 213.629 Q2151.91 214.74 2148.76 214.74 Q2144.78 214.74 2142.42 212.518 Q2140.08 210.272 2140.08 206.522 Q2140.08 202.147 2143 199.925 Q2145.94 197.703 2151.75 197.703 L2157.72 197.703 L2157.72 197.286 Q2157.72 194.347 2155.78 192.749 Q2153.86 191.129 2150.36 191.129 Q2148.14 191.129 2146.03 191.661 Q2143.93 192.194 2141.98 193.259 L2141.98 189.323 Q2144.32 188.421 2146.52 187.981 Q2148.72 187.518 2150.8 187.518 Q2156.43 187.518 2159.2 190.434 Q2161.98 193.351 2161.98 199.277 Z" fill="#000000" fill-rule="nonzero" fill-opacity="1" /><path clip-path="url(#clip650)" d="M2187.82 192.078 L2187.82 178.05 L2192.07 178.05 L2192.07 214.069 L2187.82 214.069 L2187.82 210.18 Q2186.47 212.495 2184.41 213.629 Q2182.38 214.74 2179.5 214.74 Q2174.81 214.74 2171.84 210.99 Q2168.9 207.24 2168.9 201.129 Q2168.9 195.018 2171.84 191.268 Q2174.81 187.518 2179.5 187.518 Q2182.38 187.518 2184.41 188.652 Q2186.47 189.763 2187.82 192.078 M2173.3 201.129 Q2173.3 205.828 2175.22 208.513 Q2177.17 211.175 2180.55 211.175 Q2183.93 211.175 2185.87 208.513 Q2187.82 205.828 2187.82 201.129 Q2187.82 196.43 2185.87 193.768 Q2183.93 191.083 2180.55 191.083 Q2177.17 191.083 2175.22 193.768 Q2173.3 196.43 2173.3 201.129 Z" fill="#000000" fill-rule="nonzero" fill-opacity="1" /><path clip-path="url(#clip650)" d="M2210.89 191.129 Q2207.47 191.129 2205.48 193.814 Q2203.49 196.476 2203.49 201.129 Q2203.49 205.782 2205.45 208.467 Q2207.44 211.129 2210.89 211.129 Q2214.3 211.129 2216.29 208.444 Q2218.28 205.758 2218.28 201.129 Q2218.28 196.522 2216.29 193.837 Q2214.3 191.129 2210.89 191.129 M2210.89 187.518 Q2216.45 187.518 2219.62 191.129 Q2222.79 194.74 2222.79 201.129 Q2222.79 207.495 2219.62 211.129 Q2216.45 214.74 2210.89 214.74 Q2205.32 214.74 2202.14 211.129 Q2199 207.495 2199 201.129 Q2199 194.74 2202.14 191.129 Q2205.32 187.518 2210.89 187.518 Z" fill="#000000" fill-rule="nonzero" fill-opacity="1" /><path clip-path="url(#clip650)" d="M2246.38 188.907 L2246.38 192.934 Q2244.57 192.009 2242.63 191.546 Q2240.69 191.083 2238.6 191.083 Q2235.43 191.083 2233.83 192.055 Q2232.26 193.027 2232.26 194.971 Q2232.26 196.453 2233.39 197.309 Q2234.53 198.143 2237.95 198.907 L2239.41 199.231 Q2243.95 200.203 2245.85 201.985 Q2247.77 203.745 2247.77 206.916 Q2247.77 210.527 2244.9 212.633 Q2242.05 214.74 2237.05 214.74 Q2234.97 214.74 2232.7 214.323 Q2230.45 213.93 2227.95 213.12 L2227.95 208.721 Q2230.31 209.948 2232.61 210.573 Q2234.9 211.175 2237.14 211.175 Q2240.15 211.175 2241.77 210.157 Q2243.39 209.115 2243.39 207.24 Q2243.39 205.504 2242.21 204.578 Q2241.06 203.652 2237.1 202.796 L2235.62 202.448 Q2231.66 201.615 2229.9 199.902 Q2228.14 198.166 2228.14 195.157 Q2228.14 191.499 2230.73 189.509 Q2233.32 187.518 2238.09 187.518 Q2240.45 187.518 2242.54 187.865 Q2244.62 188.212 2246.38 188.907 Z" fill="#000000" fill-rule="nonzero" fill-opacity="1" /></svg>
